<?xml version="1.0" encoding="UTF-8" ?>
<!DOCTYPE svg PUBLIC "-//W3C//DTD SVG 1.1//EN" "http://www.w3.org/Graphics/SVG/1.1/DTD/svg11.dtd">
<svg width="131pt" height="101pt" viewBox="0 0 131 101" version="1.1" xmlns="http://www.w3.org/2000/svg">
<path fill="#000000" opacity="1.00" d=" M 57.67 9.67 C 62.74 5.65 68.22 1.90 74.48 0.01 C 76.46 4.17 77.33 8.71 77.93 13.25 C 80.19 11.39 82.38 9.41 84.93 7.95 C 88.80 5.70 93.52 6.79 97.65 7.59 C 102.49 8.39 102.76 14.21 103.84 17.99 C 106.08 15.85 108.56 13.97 110.65 11.69 C 110.81 8.42 110.61 5.12 111.35 1.90 C 114.10 3.76 116.14 6.41 117.39 9.48 C 117.86 10.38 118.65 11.06 119.37 11.75 C 120.06 12.27 121.43 13.31 122.12 13.83 C 122.46 12.09 123.29 8.06 125.97 9.64 C 128.04 10.38 127.47 12.51 127.46 14.21 C 128.65 14.96 129.84 15.72 131.00 16.52 L 131.00 18.13 C 128.36 19.00 125.65 19.59 122.90 20.01 C 120.44 22.85 118.01 25.92 114.51 27.53 C 114.18 27.96 113.53 28.81 113.20 29.24 C 112.69 29.40 111.66 29.74 111.14 29.91 C 110.45 30.73 109.76 31.56 109.07 32.38 C 107.54 32.67 106.02 32.95 104.49 33.27 C 105.94 33.50 107.40 33.72 108.85 33.94 C 109.76 39.17 109.19 44.47 108.03 49.61 C 110.14 49.48 112.23 49.16 114.23 48.49 C 115.37 48.48 116.51 48.48 117.65 48.48 C 119.85 49.25 122.15 49.78 124.29 50.73 C 126.70 52.86 125.50 56.37 124.59 58.95 C 122.82 58.35 121.05 57.75 119.28 57.17 C 120.13 63.11 116.13 67.91 112.63 72.17 C 113.34 74.23 114.04 76.29 114.74 78.36 C 113.96 78.55 112.40 78.94 111.62 79.14 C 114.36 80.78 118.15 81.71 119.11 85.17 C 118.25 85.55 116.54 86.31 115.69 86.69 C 118.50 87.99 121.36 89.22 124.25 90.36 C 120.12 90.81 115.99 91.34 111.83 91.10 L 112.95 89.79 C 113.75 89.63 115.34 89.30 116.14 89.13 C 112.31 88.40 108.54 87.38 104.80 86.31 C 105.01 86.08 105.44 85.64 105.65 85.41 C 108.79 85.10 111.92 84.73 115.04 84.30 C 115.45 84.23 116.28 84.09 116.70 84.02 C 115.46 82.53 113.53 81.97 111.75 81.39 C 107.70 80.11 103.49 79.39 99.26 79.05 C 101.70 80.95 104.99 81.14 107.37 83.14 C 105.61 83.61 103.84 84.06 102.05 84.40 C 101.18 81.98 99.91 79.62 97.54 78.38 C 98.31 78.22 99.85 77.89 100.61 77.73 C 104.39 77.55 108.14 76.99 111.82 76.12 C 111.00 75.11 110.16 74.09 109.32 73.10 C 110.25 70.97 111.77 69.20 113.19 67.39 C 113.39 67.04 113.80 66.34 114.00 65.99 C 115.23 63.77 115.66 61.24 116.26 58.80 C 112.43 58.34 108.59 57.88 104.72 57.81 C 103.89 57.86 102.22 57.97 101.38 58.03 C 101.11 58.07 100.57 58.14 100.30 58.18 C 100.94 57.56 101.54 56.91 102.10 56.24 C 106.71 50.48 107.00 42.54 106.45 35.50 C 103.76 35.75 101.22 36.76 99.41 38.82 C 98.27 39.78 97.14 40.74 96.00 41.69 L 96.85 40.14 C 97.84 38.88 99.20 37.82 99.71 36.25 L 99.55 35.89 C 99.58 35.59 99.62 34.99 99.64 34.69 C 99.92 34.81 100.48 35.06 100.76 35.18 C 103.66 29.17 101.87 22.11 100.48 15.92 C 100.44 15.75 100.37 15.42 100.33 15.25 C 99.68 13.27 99.36 10.91 97.74 9.45 C 95.46 8.51 92.91 8.32 90.48 8.49 C 84.92 9.64 80.38 13.55 76.73 17.73 C 76.30 14.34 76.16 10.91 75.49 7.55 C 74.85 5.80 74.13 4.09 73.45 2.36 C 69.63 3.44 66.24 5.53 63.00 7.77 C 64.03 8.02 66.08 8.51 67.10 8.76 C 66.08 10.61 64.56 12.06 62.57 12.83 L 62.37 12.24 C 64.02 11.48 65.47 10.39 66.54 8.91 C 64.86 8.81 62.88 7.81 61.48 9.24 L 61.23 9.45 C 55.80 13.63 51.45 19.70 50.49 26.59 C 50.66 26.88 50.99 27.48 51.16 27.78 C 55.01 27.45 56.40 21.46 55.23 18.07 C 57.85 21.55 55.34 25.58 52.79 28.21 C 52.14 28.44 50.84 28.88 50.19 29.10 C 49.30 31.61 51.92 34.04 53.06 36.22 C 53.72 37.26 54.38 38.30 55.03 39.34 C 56.03 40.97 57.02 42.61 58.02 44.25 C 59.49 43.55 60.96 42.86 62.44 42.16 C 61.63 38.43 60.97 34.66 60.50 30.87 C 59.80 25.00 60.27 19.09 60.34 13.20 C 62.01 18.31 63.48 23.47 65.11 28.60 C 65.62 30.36 66.24 32.09 66.84 33.83 C 68.23 30.90 69.67 27.99 71.02 25.04 L 71.72 26.19 C 70.17 28.47 68.99 31.01 68.38 33.71 L 68.09 35.62 L 67.81 38.12 C 69.48 37.76 71.14 37.41 72.81 37.05 C 71.15 37.54 69.49 38.01 67.83 38.46 C 67.80 41.02 67.83 43.58 67.77 46.15 L 67.72 46.92 C 69.41 46.66 71.09 46.39 72.78 46.09 C 71.07 46.84 69.29 47.41 67.50 47.93 C 67.21 46.13 66.92 44.33 66.65 42.53 C 65.75 42.97 64.85 43.41 63.95 43.85 C 63.50 43.70 62.61 43.39 62.16 43.24 C 60.43 44.00 58.69 44.74 57.00 45.57 C 53.63 47.73 51.42 51.20 48.23 53.56 C 49.28 51.88 50.56 50.36 51.86 48.87 C 51.55 46.86 51.27 44.85 51.08 42.82 L 50.96 41.38 C 51.16 42.06 51.58 43.42 51.78 44.10 C 52.12 45.33 52.45 46.57 52.80 47.81 C 54.20 46.66 55.60 45.52 57.01 44.37 C 55.94 42.73 54.87 41.08 53.84 39.42 C 53.12 38.21 52.45 36.98 51.71 35.79 C 49.13 31.90 46.59 27.98 44.16 24.00 L 44.68 26.69 C 44.32 26.70 43.59 26.72 43.22 26.72 C 42.70 26.53 41.65 26.14 41.12 25.95 C 40.18 25.52 39.21 25.17 38.22 24.89 C 38.27 25.41 38.35 26.44 38.40 26.96 C 38.16 27.29 37.70 27.97 37.47 28.30 C 35.73 30.54 35.62 33.75 36.71 36.29 C 39.40 37.74 42.55 37.95 45.47 38.71 C 44.27 38.99 43.06 39.25 41.84 39.50 C 40.96 39.42 40.07 39.34 39.19 39.27 C 31.77 38.10 24.27 40.52 18.17 44.68 C 16.29 45.81 14.73 47.39 13.34 49.08 C 12.66 50.38 12.06 51.71 11.49 53.06 C 11.43 54.68 11.30 56.40 11.99 57.92 C 14.39 59.92 17.85 60.71 19.09 63.92 C 17.37 62.68 15.61 61.50 13.72 60.54 C 13.91 61.84 14.10 63.14 14.29 64.44 C 16.81 64.50 19.18 65.32 21.38 66.49 L 22.64 67.98 C 21.12 67.81 19.60 67.63 18.09 67.38 C 15.74 66.97 13.34 66.51 10.94 66.86 C 8.70 67.44 6.66 68.84 5.60 70.95 C 5.27 71.47 4.61 72.51 4.28 73.04 C 6.57 72.73 8.88 72.68 11.17 73.09 C 8.80 75.00 5.52 74.18 2.71 74.47 C 3.51 69.01 8.16 65.74 12.60 63.23 C 11.18 60.89 9.20 58.75 8.64 56.00 C 8.14 51.15 11.19 46.77 14.91 43.98 C 20.31 39.24 27.54 37.66 34.46 36.65 C 34.36 34.78 34.24 32.92 34.10 31.05 C 34.52 30.39 35.37 29.07 35.79 28.41 C 35.16 28.28 33.92 28.04 33.30 27.92 C 33.28 27.32 33.25 26.11 33.24 25.50 C 32.09 24.45 30.95 23.40 29.82 22.34 C 33.03 20.78 35.56 17.83 39.20 17.25 C 41.20 16.69 42.89 15.43 44.68 14.42 C 44.57 16.59 44.32 18.75 43.88 20.88 C 45.09 22.50 46.32 24.10 47.53 25.72 C 49.71 19.74 52.60 13.74 57.67 9.67 M 112.23 4.15 C 112.33 6.33 112.71 8.48 113.34 10.57 C 113.97 10.65 115.25 10.83 115.89 10.92 C 116.02 8.51 113.94 5.98 112.23 4.15 M 124.03 10.92 C 123.37 12.50 123.91 13.01 125.65 12.43 C 126.30 10.85 125.77 10.35 124.03 10.92 M 108.39 16.63 C 107.98 17.03 107.18 17.82 106.78 18.22 C 104.75 18.06 104.82 21.59 105.98 22.64 C 105.20 24.11 105.11 25.62 105.71 27.17 L 105.48 28.03 L 106.17 28.83 L 107.08 28.74 C 107.18 29.38 107.38 30.66 107.48 31.30 L 108.89 30.05 C 108.82 29.48 108.69 28.34 108.62 27.77 C 109.91 27.70 111.20 27.64 112.48 27.57 C 112.69 27.12 113.11 26.20 113.32 25.75 C 114.58 25.30 115.69 24.62 116.63 23.69 C 116.64 23.65 116.67 23.58 116.69 23.54 C 117.06 21.91 117.21 20.24 117.41 18.58 C 118.47 18.18 119.31 17.51 119.93 16.60 L 119.61 15.81 L 120.88 15.36 C 119.65 13.91 118.08 12.88 116.34 12.18 C 116.48 13.29 116.76 15.51 116.91 16.62 L 115.71 15.71 C 115.71 14.43 115.55 13.14 114.91 12.00 C 114.51 11.84 113.71 11.51 113.32 11.35 C 111.70 13.04 108.85 14.17 108.39 16.63 M 120.90 18.16 C 123.63 18.65 126.40 18.08 128.98 17.20 C 127.48 15.57 125.19 15.02 123.05 15.23 C 121.60 15.19 119.32 16.56 120.90 18.16 M 40.13 19.23 C 39.73 19.33 38.95 19.53 38.56 19.63 C 36.95 17.21 36.44 20.06 35.63 21.19 C 34.40 21.23 33.18 21.29 31.95 21.34 C 31.93 23.59 34.59 23.78 36.08 24.73 C 35.61 25.26 34.66 26.32 34.19 26.85 C 34.73 26.70 35.81 26.41 36.35 26.26 C 36.45 24.96 36.22 23.16 37.98 22.93 C 40.92 22.31 43.27 20.11 43.70 17.08 C 42.41 17.63 41.18 18.30 40.13 19.23 M 118.35 19.03 C 116.90 20.30 118.92 22.79 120.38 21.45 C 121.73 20.26 119.76 17.63 118.35 19.03 M 61.22 20.40 C 60.96 24.66 61.69 28.89 62.13 33.12 C 62.29 34.47 62.47 35.83 62.64 37.19 C 63.01 39.21 63.38 41.22 63.77 43.23 C 67.34 42.53 67.90 38.62 66.46 35.80 C 65.72 33.94 65.06 32.05 64.36 30.17 L 64.41 30.11 C 63.31 26.85 62.70 23.46 61.72 20.16 C 61.60 20.22 61.34 20.34 61.22 20.40 M 104.51 26.27 C 104.68 24.15 104.70 22.03 104.61 19.92 C 102.75 21.69 103.95 24.22 104.51 26.27 M 108.28 50.45 C 108.43 50.85 108.73 51.64 108.89 52.03 C 109.47 51.96 110.65 51.83 111.24 51.76 C 110.26 52.62 109.33 53.52 108.44 54.48 C 110.89 53.91 113.22 52.99 115.53 52.04 C 115.31 53.27 115.24 54.52 115.30 55.76 C 117.91 55.94 120.52 55.71 123.14 55.71 L 124.22 55.99 C 124.14 55.10 123.96 53.30 123.88 52.40 C 123.86 52.34 123.82 52.21 123.80 52.14 L 123.44 51.11 C 121.52 51.35 119.59 51.38 117.67 51.25 C 117.29 51.38 116.53 51.65 116.15 51.79 C 117.15 51.34 117.88 50.61 118.34 49.59 C 116.94 49.91 115.54 50.24 114.19 50.72 C 112.22 50.68 110.25 50.58 108.28 50.45 M 106.28 52.17 C 105.73 53.77 106.28 54.31 107.93 53.78 C 108.48 52.17 107.93 51.63 106.28 52.17 M 111.46 56.08 C 111.64 57.45 112.33 57.68 113.54 56.78 C 113.35 55.41 112.66 55.18 111.46 56.08 Z" />
<path fill="#e5363a" opacity="1.00" d=" M 63.00 7.77 C 66.24 5.53 69.63 3.44 73.45 2.36 C 73.42 7.91 70.83 12.87 67.98 17.46 C 67.64 18.03 66.95 19.19 66.60 19.77 C 65.71 22.63 65.32 25.62 65.11 28.60 C 63.48 23.47 62.01 18.31 60.34 13.20 C 60.27 19.09 59.80 25.00 60.50 30.87 C 59.96 30.46 58.89 29.64 58.35 29.23 C 56.08 31.14 54.28 33.52 53.06 36.22 C 51.92 34.04 49.30 31.61 50.19 29.10 C 50.84 28.88 52.14 28.44 52.79 28.21 C 55.34 25.58 57.85 21.55 55.23 18.07 C 57.10 15.11 59.25 12.33 61.23 9.45 L 61.48 9.24 C 61.70 9.99 62.15 11.49 62.37 12.24 L 62.57 12.83 C 64.56 12.06 66.08 10.61 67.10 8.76 C 66.08 8.51 64.03 8.02 63.00 7.77 Z" />
<path fill="#6a1531" opacity="1.00" d=" M 73.45 2.36 C 74.13 4.09 74.85 5.80 75.49 7.55 C 74.93 9.24 74.37 10.92 73.80 12.61 C 73.38 12.89 72.52 13.46 72.10 13.75 C 74.10 15.39 73.54 17.48 71.39 18.66 C 70.21 21.03 68.82 23.29 67.05 25.27 C 68.40 24.84 69.76 24.42 71.12 24.01 C 71.09 24.27 71.04 24.78 71.02 25.04 C 69.67 27.99 68.23 30.90 66.84 33.83 C 66.24 32.09 65.62 30.36 65.11 28.60 C 65.32 25.62 65.71 22.63 66.60 19.77 C 66.71 20.80 66.93 22.85 67.03 23.87 C 68.27 22.30 69.45 20.69 70.58 19.04 C 69.93 18.64 68.63 17.85 67.98 17.46 C 70.83 12.87 73.42 7.91 73.45 2.36 Z" />
<path fill="#3a2f11" opacity="0.83" d=" M 122.49 4.67 C 123.67 4.21 124.86 3.75 126.12 3.56 L 126.42 5.07 C 123.33 3.81 123.58 8.07 126.53 6.60 L 126.43 7.96 C 125.78 8.12 124.49 8.43 123.84 8.59 C 123.37 7.29 122.92 5.99 122.49 4.67 Z" />
<path fill="#ebffaf" opacity="1.00" d=" M 112.23 4.15 C 113.94 5.98 116.02 8.51 115.89 10.92 C 115.25 10.83 113.97 10.65 113.34 10.57 C 112.71 8.48 112.33 6.33 112.23 4.15 Z" />
<path fill="#0c0b02" opacity="0.48" d=" M 121.93 8.65 C 122.13 7.33 122.31 6.00 122.49 4.67 C 122.92 5.99 123.37 7.29 123.84 8.59 C 122.15 9.33 120.76 10.57 119.37 11.75 C 118.65 11.06 117.86 10.38 117.39 9.48 C 117.52 8.36 117.66 7.25 117.83 6.13 L 119.01 6.18 C 117.48 8.25 121.24 8.36 119.82 6.21 L 120.81 6.24 C 121.09 6.84 121.65 8.05 121.93 8.65 Z" />
<path fill="#f7e347" opacity="1.00" d=" M 126.53 6.60 C 123.58 8.07 123.33 3.81 126.42 5.07 C 126.45 5.45 126.50 6.21 126.53 6.60 Z" />
<path fill="#d6d32f" opacity="1.00" d=" M 119.01 6.18 L 119.82 6.21 C 121.24 8.36 117.48 8.25 119.01 6.18 Z" />
<path fill="#3a1322" opacity="1.00" d=" M 75.49 7.55 C 76.16 10.91 76.30 14.34 76.73 17.73 C 76.13 18.56 75.55 19.41 74.98 20.27 L 75.31 21.39 C 76.65 27.33 76.25 33.49 75.68 39.50 L 75.44 38.58 C 75.35 38.22 75.16 37.50 75.07 37.14 C 74.94 35.47 74.91 33.79 74.88 32.11 C 74.83 29.03 74.72 25.95 74.57 22.87 C 73.61 23.97 72.65 25.07 71.72 26.19 L 71.02 25.04 C 71.04 24.78 71.09 24.27 71.12 24.01 C 69.76 24.42 68.40 24.84 67.05 25.27 C 68.82 23.29 70.21 21.03 71.39 18.66 C 73.54 17.48 74.10 15.39 72.10 13.75 C 72.52 13.46 73.38 12.89 73.80 12.61 C 74.37 10.92 74.93 9.24 75.49 7.55 Z" />
<path fill="#fee8ba" opacity="1.00" d=" M 61.48 9.24 C 62.88 7.81 64.86 8.81 66.54 8.91 C 65.47 10.39 64.02 11.48 62.37 12.24 C 62.15 11.49 61.70 9.99 61.48 9.24 Z" />
<path fill="#deb099" opacity="1.00" d=" M 76.73 17.73 C 80.38 13.55 84.92 9.64 90.48 8.49 C 89.51 8.88 88.56 9.27 87.60 9.67 C 89.33 14.95 83.07 17.14 79.02 17.06 C 77.77 18.50 76.54 19.94 75.31 21.39 L 74.98 20.27 C 75.55 19.41 76.13 18.56 76.73 17.73 Z" />
<path fill="#f3383b" opacity="1.00" d=" M 90.48 8.49 C 92.91 8.32 95.46 8.51 97.74 9.45 C 99.36 10.91 99.68 13.27 100.33 15.25 C 99.29 17.11 98.25 18.96 97.30 20.86 C 95.46 22.08 93.70 23.43 92.00 24.84 C 92.80 23.19 91.09 21.90 89.58 21.99 L 89.22 22.28 C 88.87 22.62 88.18 23.30 87.83 23.64 C 85.72 25.32 87.83 26.96 89.54 27.63 C 84.87 31.99 78.48 35.05 75.91 41.22 C 75.85 40.79 75.74 39.93 75.68 39.50 C 76.25 33.49 76.65 27.33 75.31 21.39 C 76.54 19.94 77.77 18.50 79.02 17.06 C 83.22 20.78 92.58 14.45 87.60 9.67 C 88.56 9.27 89.51 8.88 90.48 8.49 M 78.28 29.19 C 77.70 30.85 78.21 31.40 79.83 30.85 C 80.41 29.19 79.89 28.63 78.28 29.19 Z" />
<path fill="#fee8ba" opacity="1.00" d=" M 50.49 26.59 C 51.45 19.70 55.80 13.63 61.23 9.45 C 59.25 12.33 57.10 15.11 55.23 18.07 C 56.40 21.46 55.01 27.45 51.16 27.78 C 50.99 27.48 50.66 26.88 50.49 26.59 Z" />
<path fill="#76292c" opacity="1.00" d=" M 87.60 9.67 C 92.58 14.45 83.22 20.78 79.02 17.06 C 83.07 17.14 89.33 14.95 87.60 9.67 Z" />
<path fill="#e5c820" opacity="1.00" d=" M 124.03 10.92 C 125.77 10.35 126.30 10.85 125.65 12.43 C 123.91 13.01 123.37 12.50 124.03 10.92 Z" />
<path fill="#e2a596" opacity="1.00" d=" M 108.39 16.63 C 108.85 14.17 111.70 13.04 113.32 11.35 C 113.71 11.51 114.51 11.84 114.91 12.00 C 115.55 13.14 115.71 14.43 115.71 15.71 C 115.75 17.08 115.73 18.44 115.67 19.81 C 114.36 17.92 113.27 15.89 112.22 13.86 C 111.83 14.35 111.04 15.33 110.65 15.82 C 110.67 18.22 110.68 20.62 110.73 23.02 C 110.25 21.57 109.77 20.12 109.28 18.67 C 109.10 19.53 108.73 21.25 108.54 22.11 C 108.49 20.28 108.42 18.46 108.39 16.63 Z" />
<path fill="#e4c840" opacity="1.00" d=" M 116.34 12.18 C 118.08 12.88 119.65 13.91 120.88 15.36 L 119.61 15.81 C 118.93 16.02 117.58 16.42 116.91 16.62 C 116.76 15.51 116.48 13.29 116.34 12.18 Z" />
<path fill="#722c45" opacity="1.00" d=" M 112.22 13.86 C 113.27 15.89 114.36 17.92 115.67 19.81 C 115.60 21.39 114.57 22.64 113.80 23.95 C 113.21 22.75 112.62 21.55 112.04 20.35 C 112.03 22.18 112.02 24.00 112.01 25.83 C 110.64 24.75 109.27 23.66 107.89 22.59 C 108.12 24.32 108.37 26.04 108.62 27.77 C 108.69 28.34 108.82 29.48 108.89 30.05 L 107.48 31.30 C 107.38 30.66 107.18 29.38 107.08 28.74 C 106.73 28.35 106.05 27.57 105.71 27.17 C 105.11 25.62 105.20 24.11 105.98 22.64 C 106.68 21.27 106.89 19.74 106.78 18.22 C 107.18 17.82 107.98 17.03 108.39 16.63 C 108.42 18.46 108.49 20.28 108.54 22.11 C 108.73 21.25 109.10 19.53 109.28 18.67 C 109.77 20.12 110.25 21.57 110.73 23.02 C 110.68 20.62 110.67 18.22 110.65 15.82 C 111.04 15.33 111.83 14.35 112.22 13.86 Z" />
<path fill="#5bb393" opacity="1.00" d=" M 120.90 18.16 C 119.32 16.56 121.60 15.19 123.05 15.23 C 125.19 15.02 127.48 15.57 128.98 17.20 C 126.40 18.08 123.63 18.65 120.90 18.16 Z" />
<path fill="#5d112e" opacity="1.00" d=" M 97.30 20.86 C 98.25 18.96 99.29 17.11 100.33 15.25 C 100.37 15.42 100.44 15.75 100.48 15.92 C 99.75 18.48 99.83 21.14 100.01 23.77 C 96.14 29.77 91.16 34.88 86.39 40.14 C 86.48 40.65 86.68 41.68 86.78 42.19 C 83.97 44.05 81.46 46.31 78.98 48.57 C 78.17 47.90 77.38 47.22 76.59 46.53 C 80.00 44.18 83.01 41.29 85.15 37.73 C 90.86 33.54 94.38 27.16 97.30 20.86 Z" />
<path fill="#48142a" opacity="1.00" d=" M 115.71 15.71 L 116.91 16.62 C 117.94 17.53 118.95 17.52 119.93 16.60 C 119.31 17.51 118.47 18.18 117.41 18.58 C 117.21 20.24 117.06 21.91 116.69 23.54 C 116.67 23.58 116.64 23.65 116.63 23.69 C 115.69 24.62 114.58 25.30 113.32 25.75 C 113.11 26.20 112.69 27.12 112.48 27.57 C 111.20 27.64 109.91 27.70 108.62 27.77 C 108.37 26.04 108.12 24.32 107.89 22.59 C 109.27 23.66 110.64 24.75 112.01 25.83 C 112.02 24.00 112.03 22.18 112.04 20.35 C 112.62 21.55 113.21 22.75 113.80 23.95 C 114.57 22.64 115.60 21.39 115.67 19.81 C 115.73 18.44 115.75 17.08 115.71 15.71 Z" />
<path fill="#ae4f2f" opacity="1.00" d=" M 116.91 16.62 C 117.58 16.42 118.93 16.02 119.61 15.81 L 119.93 16.60 C 118.95 17.52 117.94 17.53 116.91 16.62 Z" />
<path fill="#5ea362" opacity="1.00" d=" M 40.13 19.23 C 41.18 18.30 42.41 17.63 43.70 17.08 C 43.27 20.11 40.92 22.31 37.98 22.93 C 36.22 23.16 36.45 24.96 36.35 26.26 C 35.81 26.41 34.73 26.70 34.19 26.85 C 34.66 26.32 35.61 25.26 36.08 24.73 C 34.59 23.78 31.93 23.59 31.95 21.34 C 33.18 21.29 34.40 21.23 35.63 21.19 C 36.44 20.06 36.95 17.21 38.56 19.63 C 38.95 19.53 39.73 19.33 40.13 19.23 Z" />
<path fill="#9d217b" opacity="1.00" d=" M 100.01 23.77 C 99.83 21.14 99.75 18.48 100.48 15.92 C 101.87 22.11 103.66 29.17 100.76 35.18 C 100.48 35.06 99.92 34.81 99.64 34.69 C 99.87 31.05 100.22 27.42 100.01 23.77 Z" />
<path fill="#9c686b" opacity="1.00" d=" M 67.98 17.46 C 68.63 17.85 69.93 18.64 70.58 19.04 C 69.45 20.69 68.27 22.30 67.03 23.87 C 66.93 22.85 66.71 20.80 66.60 19.77 C 66.95 19.19 67.64 18.03 67.98 17.46 Z" />
<path fill="#9f5c69" opacity="1.00" d=" M 105.98 22.64 C 104.82 21.59 104.75 18.06 106.78 18.22 C 106.89 19.74 106.68 21.27 105.98 22.64 Z" />
<path fill="#378a89" opacity="1.00" d=" M 118.35 19.03 C 119.76 17.63 121.73 20.26 120.38 21.45 C 118.92 22.79 116.90 20.30 118.35 19.03 Z" />
<path fill="#ebffaf" opacity="1.00" d=" M 61.22 20.40 C 61.34 20.34 61.60 20.22 61.72 20.16 C 62.70 23.46 63.31 26.85 64.41 30.11 L 64.36 30.17 C 63.62 31.15 62.87 32.13 62.13 33.12 C 61.69 28.89 60.96 24.66 61.22 20.40 Z" />
<path fill="#d22d40" opacity="1.00" d=" M 92.00 24.84 C 93.70 23.43 95.46 22.08 97.30 20.86 C 94.38 27.16 90.86 33.54 85.15 37.73 C 82.03 39.26 79.02 40.99 76.09 42.86 C 76.04 42.45 75.96 41.63 75.91 41.22 C 78.48 35.05 84.87 31.99 89.54 27.63 C 87.83 26.96 85.72 25.32 87.83 23.64 C 87.66 25.24 88.36 25.96 89.93 25.81 C 90.45 25.56 91.48 25.08 92.00 24.84 Z" />
<path fill="#e2a596" opacity="1.00" d=" M 104.51 26.27 C 103.95 24.22 102.75 21.69 104.61 19.92 C 104.70 22.03 104.68 24.15 104.51 26.27 Z" />
<path fill="#000000" opacity="1.00" d=" M 89.58 21.99 C 91.09 21.90 92.80 23.19 92.00 24.84 C 91.48 25.08 90.45 25.56 89.93 25.81 C 90.27 24.52 90.04 23.34 89.22 22.28 L 89.58 21.99 Z" />
<path fill="#ffffdc" opacity="1.00" d=" M 74.57 22.87 C 74.72 25.95 74.83 29.03 74.88 32.11 C 72.63 32.23 70.39 32.65 68.38 33.71 C 68.99 31.01 70.17 28.47 71.72 26.19 C 72.65 25.07 73.61 23.97 74.57 22.87 Z" />
<path fill="#eac8a7" opacity="1.00" d=" M 87.83 23.64 C 88.18 23.30 88.87 22.62 89.22 22.28 C 90.04 23.34 90.27 24.52 89.93 25.81 C 88.36 25.96 87.66 25.24 87.83 23.64 Z" />
<path fill="#88206b" opacity="1.00" d=" M 116.63 23.69 C 116.64 23.65 116.67 23.58 116.69 23.54 C 116.67 23.58 116.64 23.65 116.63 23.69 Z" />
<path fill="#2f0c2a" opacity="1.00" d=" M 86.39 40.14 C 91.16 34.88 96.14 29.77 100.01 23.77 C 100.22 27.42 99.87 31.05 99.64 34.69 C 99.62 34.99 99.58 35.59 99.55 35.89 L 99.33 36.04 C 94.60 36.82 90.74 39.73 86.78 42.19 C 86.68 41.68 86.48 40.65 86.39 40.14 Z" />
<path fill="#774a4b" opacity="1.00" d=" M 38.22 24.89 C 39.21 25.17 40.18 25.52 41.12 25.95 C 40.98 27.29 39.39 28.03 38.40 26.96 C 38.35 26.44 38.27 25.41 38.22 24.89 Z" />
<path fill="#ebffaf" opacity="1.00" d=" M 44.16 24.00 C 46.59 27.98 49.13 31.90 51.71 35.79 C 51.27 37.01 50.84 38.22 50.40 39.44 L 49.90 37.86 C 49.43 36.43 48.91 35.02 48.37 33.62 C 47.41 31.12 46.25 28.70 45.12 26.27 C 44.21 27.66 43.34 29.08 42.32 30.40 C 42.62 29.18 42.92 27.95 43.22 26.72 C 43.59 26.72 44.32 26.70 44.68 26.69 L 44.16 24.00 Z" />
<path fill="#6d3043" opacity="1.00" d=" M 41.12 25.95 C 41.65 26.14 42.70 26.53 43.22 26.72 C 42.92 27.95 42.62 29.18 42.32 30.40 C 41.38 31.45 40.21 32.25 39.11 33.13 C 38.54 31.53 37.96 29.93 37.47 28.30 C 37.70 27.97 38.16 27.29 38.40 26.96 C 39.39 28.03 40.98 27.29 41.12 25.95 Z" />
<path fill="#491532" opacity="1.00" d=" M 105.71 27.17 C 106.05 27.57 106.73 28.35 107.08 28.74 L 106.17 28.83 L 105.48 28.03 L 105.71 27.17 Z" />
<path fill="#2a1029" opacity="1.00" d=" M 36.71 36.29 C 35.62 33.75 35.73 30.54 37.47 28.30 C 37.96 29.93 38.54 31.53 39.11 33.13 C 40.21 32.25 41.38 31.45 42.32 30.40 C 43.34 29.08 44.21 27.66 45.12 26.27 C 46.25 28.70 47.41 31.12 48.37 33.62 C 47.00 35.15 46.09 36.97 45.49 38.92 C 46.58 39.30 47.67 39.68 48.76 40.06 C 49.05 39.51 49.62 38.41 49.90 37.86 L 50.40 39.44 C 50.59 40.08 50.78 40.73 50.96 41.38 L 51.08 42.82 C 48.30 41.01 45.07 40.11 41.84 39.50 C 43.06 39.25 44.27 38.99 45.47 38.71 C 42.55 37.95 39.40 37.74 36.71 36.29 M 42.40 33.06 C 40.47 32.40 40.73 35.21 39.91 36.19 C 42.23 35.85 44.69 35.20 45.83 32.92 C 47.42 29.94 41.52 30.41 42.40 33.06 Z" />
<path fill="#ce2a39" opacity="1.00" d=" M 53.06 36.22 C 54.28 33.52 56.08 31.14 58.35 29.23 C 58.89 29.64 59.96 30.46 60.50 30.87 C 60.38 32.27 60.27 33.67 60.15 35.07 C 58.45 36.50 56.74 37.92 55.03 39.34 C 54.38 38.30 53.72 37.26 53.06 36.22 Z" />
<path fill="#9e6958" opacity="1.00" d=" M 78.28 29.19 C 79.89 28.63 80.41 29.19 79.83 30.85 C 78.21 31.40 77.70 30.85 78.28 29.19 Z" />
<path fill="#deb099" opacity="1.00" d=" M 42.40 33.06 C 41.52 30.41 47.42 29.94 45.83 32.92 C 44.70 33.14 43.56 33.19 42.40 33.06 Z" />
<path fill="#a11c35" opacity="1.00" d=" M 60.50 30.87 C 60.97 34.66 61.63 38.43 62.44 42.16 C 60.96 42.86 59.49 43.55 58.02 44.25 C 57.02 42.61 56.03 40.97 55.03 39.34 C 56.74 37.92 58.45 36.50 60.15 35.07 C 60.27 33.67 60.38 32.27 60.50 30.87 Z" />
<path fill="#68b77e" opacity="1.00" d=" M 64.36 30.17 C 65.06 32.05 65.72 33.94 66.46 35.80 C 65.18 36.27 63.91 36.73 62.64 37.19 C 62.47 35.83 62.29 34.47 62.13 33.12 C 62.87 32.13 63.62 31.15 64.36 30.17 Z" />
<path fill="#83d492" opacity="1.00" d=" M 68.38 33.71 C 70.39 32.65 72.63 32.23 74.88 32.11 C 74.91 33.79 74.94 35.47 75.07 37.14 L 74.88 36.47 L 74.66 35.71 C 72.47 35.62 70.27 35.64 68.09 35.62 L 68.38 33.71 Z" />
<path fill="#732c47" opacity="1.00" d=" M 39.91 36.19 C 40.73 35.21 40.47 32.40 42.40 33.06 C 43.56 33.19 44.70 33.14 45.83 32.92 C 44.69 35.20 42.23 35.85 39.91 36.19 Z" />
<path fill="#6c1530" opacity="1.00" d=" M 48.37 33.62 C 48.91 35.02 49.43 36.43 49.90 37.86 C 49.62 38.41 49.05 39.51 48.76 40.06 C 47.67 39.68 46.58 39.30 45.49 38.92 C 46.09 36.97 47.00 35.15 48.37 33.62 Z" />
<path fill="#2fa49c" opacity="1.00" d=" M 68.09 35.62 C 70.27 35.64 72.47 35.62 74.66 35.71 L 74.88 36.47 C 74.73 38.05 74.56 39.63 74.32 41.20 C 71.37 41.57 69.43 43.91 67.77 46.15 C 67.83 43.58 67.80 41.02 67.83 38.46 C 69.49 38.01 71.15 37.54 72.81 37.05 C 71.14 37.41 69.48 37.76 67.81 38.12 L 68.09 35.62 Z" />
<path fill="#fee8ba" opacity="1.00" d=" M 99.41 38.82 C 101.22 36.76 103.76 35.75 106.45 35.50 C 106.10 35.78 105.40 36.34 105.05 36.62 C 103.20 37.41 101.29 38.09 99.41 38.82 Z" />
<path fill="#aef69e" opacity="1.00" d=" M 51.71 35.79 C 52.45 36.98 53.12 38.21 53.84 39.42 C 53.09 40.95 52.34 42.49 51.78 44.10 C 51.58 43.42 51.16 42.06 50.96 41.38 C 50.78 40.73 50.59 40.08 50.40 39.44 C 50.84 38.22 51.27 37.01 51.71 35.79 Z" />
<path fill="#329d97" opacity="1.00" d=" M 62.64 37.19 C 63.91 36.73 65.18 36.27 66.46 35.80 C 67.90 38.62 67.34 42.53 63.77 43.23 C 63.38 41.22 63.01 39.21 62.64 37.19 Z" />
<path fill="#000000" opacity="1.00" d=" M 86.78 42.19 C 90.74 39.73 94.60 36.82 99.33 36.04 C 96.16 38.15 92.80 39.96 89.77 42.26 C 88.81 42.95 87.86 43.66 86.92 44.38 C 83.81 46.86 80.76 49.44 78.12 52.42 C 81.01 53.27 83.92 52.31 86.43 50.87 C 86.13 51.24 85.55 51.98 85.26 52.35 C 85.32 53.35 85.40 54.36 85.49 55.36 C 85.32 54.70 84.96 53.38 84.78 52.72 C 83.16 53.14 81.54 53.54 79.91 53.94 C 79.42 55.28 78.92 56.62 78.42 57.95 C 77.55 59.35 76.59 60.68 75.66 62.04 C 79.79 62.71 83.97 63.65 88.18 63.05 C 86.61 63.38 85.03 63.68 83.46 64.01 C 85.07 66.65 88.37 67.15 90.88 68.61 C 93.61 68.31 96.34 67.95 99.08 67.64 C 101.65 67.65 104.25 68.30 106.25 69.97 C 101.35 68.64 96.24 68.29 91.21 68.94 C 91.23 70.75 91.23 72.56 91.23 74.37 C 92.43 75.21 93.62 76.06 94.84 76.88 C 93.39 76.12 91.97 75.33 90.54 74.54 C 90.50 72.56 91.34 69.99 89.46 68.58 C 87.83 67.13 85.55 66.94 83.54 66.40 C 84.59 68.64 86.20 70.52 87.91 72.27 C 86.62 71.27 85.33 70.28 84.04 69.29 C 82.86 70.47 81.69 71.67 80.46 72.80 C 77.14 75.51 73.19 77.26 69.47 79.32 C 70.49 80.15 71.52 80.96 72.57 81.75 C 73.89 82.51 75.27 83.16 76.65 83.82 C 76.51 84.42 76.24 85.63 76.11 86.24 C 80.63 84.36 85.52 84.63 90.29 84.86 C 93.92 84.97 97.54 84.68 101.14 84.27 C 100.86 84.95 100.29 86.32 100.00 87.00 C 104.39 87.94 108.85 88.43 113.21 89.48 C 110.77 91.36 107.64 89.83 104.90 89.75 C 101.16 91.35 96.97 90.42 93.02 90.63 C 85.62 90.85 78.36 88.58 70.96 89.38 C 66.59 89.70 62.34 88.41 57.99 88.28 C 55.02 88.13 52.33 89.61 49.90 91.13 C 47.59 91.19 45.28 91.23 42.97 91.23 L 41.76 90.82 C 45.77 88.24 50.36 86.86 54.97 85.83 C 50.98 82.83 46.51 80.62 41.81 78.99 C 41.98 78.54 42.33 77.64 42.51 77.19 C 43.61 78.27 44.67 79.55 46.26 79.90 C 51.46 81.42 57.02 80.93 62.32 80.26 C 69.46 78.98 76.24 75.47 81.49 70.48 C 83.46 68.92 83.08 66.24 83.39 64.02 C 81.90 63.84 80.42 63.66 78.95 63.47 C 76.81 63.19 74.69 62.85 72.55 62.61 C 72.86 62.37 73.49 61.87 73.80 61.63 C 76.08 59.92 78.55 57.24 77.72 54.14 C 76.22 54.94 75.90 56.94 75.11 58.32 C 76.18 54.71 78.18 49.97 75.13 46.81 C 74.69 46.57 73.81 46.08 73.37 45.84 C 73.76 44.31 74.05 42.75 74.32 41.20 C 74.56 39.63 74.73 38.05 74.88 36.47 L 75.07 37.14 C 75.16 37.50 75.35 38.22 75.44 38.58 C 75.22 41.32 73.64 44.70 76.59 46.53 C 77.38 47.22 78.17 47.90 78.98 48.57 C 81.46 46.31 83.97 44.05 86.78 42.19 M 65.92 80.00 C 66.55 81.80 68.62 81.85 70.10 82.47 C 69.40 82.36 67.99 82.15 67.29 82.04 L 67.64 83.73 C 67.14 82.91 66.64 82.10 66.15 81.28 C 60.99 81.20 55.92 82.43 50.76 82.33 C 57.71 86.96 66.64 86.94 74.66 86.16 C 72.88 83.03 70.22 78.56 65.92 80.00 M 79.46 85.42 L 79.47 87.44 C 85.02 87.64 90.51 88.56 96.05 88.86 C 96.65 89.35 99.56 90.25 98.72 88.57 C 97.52 87.59 95.89 86.33 94.28 86.66 L 93.91 85.75 C 89.09 85.53 84.27 85.72 79.46 85.42 Z" />
<path fill="#ffffdc" opacity="1.00" d=" M 99.33 36.04 L 99.55 35.89 L 99.71 36.25 C 99.20 37.82 97.84 38.88 96.85 40.14 C 95.49 41.25 94.10 42.34 92.75 43.46 C 91.75 43.53 89.77 43.68 88.77 43.75 L 89.77 42.26 C 92.80 39.96 96.16 38.15 99.33 36.04 Z" />
<path fill="#cc47a4" opacity="1.00" d=" M 105.05 36.62 C 105.40 36.34 106.10 35.78 106.45 35.50 C 107.00 42.54 106.71 50.48 102.10 56.24 C 102.84 53.82 103.46 51.37 104.02 48.91 C 104.99 44.89 104.91 40.73 105.05 36.62 Z" />
<path fill="#e9363b" opacity="1.00" d=" M 99.41 38.82 C 101.29 38.09 103.20 37.41 105.05 36.62 C 104.91 40.73 104.99 44.89 104.02 48.91 C 102.94 49.44 101.85 49.98 100.77 50.52 C 100.73 49.70 100.65 48.06 100.61 47.24 C 100.21 47.04 99.41 46.65 99.00 46.46 C 95.15 45.95 91.55 48.59 91.20 52.53 C 93.24 52.21 95.28 51.85 97.32 51.45 C 97.31 51.85 97.29 52.65 97.28 53.06 C 94.95 53.54 92.64 54.15 90.42 54.99 C 88.78 55.15 87.14 55.26 85.49 55.36 C 85.40 54.36 85.32 53.35 85.26 52.35 C 85.55 51.98 86.13 51.24 86.43 50.87 C 86.59 50.71 86.93 50.40 87.10 50.25 C 89.67 48.15 92.06 45.83 94.28 43.36 C 94.85 42.80 95.43 42.25 96.00 41.69 C 97.14 40.74 98.27 39.78 99.41 38.82 Z" />
<path fill="#921932" opacity="1.00" d=" M 76.09 42.86 C 79.02 40.99 82.03 39.26 85.15 37.73 C 83.01 41.29 80.00 44.18 76.59 46.53 C 73.64 44.70 75.22 41.32 75.44 38.58 L 75.68 39.50 C 75.74 39.93 75.85 40.79 75.91 41.22 C 75.96 41.63 76.04 42.45 76.09 42.86 Z" />
<path fill="#deb099" opacity="1.00" d=" M 18.17 44.68 C 24.27 40.52 31.77 38.10 39.19 39.27 C 35.22 40.15 31.17 40.52 27.14 41.07 L 26.04 42.43 C 24.61 43.10 23.16 43.75 21.73 44.45 C 20.92 44.88 20.14 45.36 19.37 45.85 L 20.19 43.88 L 18.17 44.68 Z" />
<path fill="#f63a3c" opacity="1.00" d=" M 39.19 39.27 C 40.07 39.34 40.96 39.42 41.84 39.50 C 45.07 40.11 48.30 41.01 51.08 42.82 C 51.27 44.85 51.55 46.86 51.86 48.87 C 50.56 50.36 49.28 51.88 48.23 53.56 C 51.42 51.20 53.63 47.73 57.00 45.57 C 57.56 45.96 58.67 46.73 59.23 47.12 C 55.55 48.08 52.28 50.58 50.66 54.06 C 49.35 56.68 48.52 60.21 50.75 62.60 C 49.50 62.54 48.25 62.57 47.00 62.56 C 46.88 62.48 46.63 62.32 46.50 62.23 C 45.97 62.84 45.44 63.44 44.91 64.05 C 45.22 61.33 46.13 58.75 47.34 56.30 C 48.57 55.44 47.71 54.56 47.23 53.81 C 46.01 55.86 44.93 57.98 43.85 60.11 C 42.90 59.78 41.94 59.45 40.99 59.13 C 41.57 58.51 42.16 57.90 42.74 57.28 C 36.53 54.59 30.07 52.55 23.67 50.38 C 25.98 48.70 28.88 47.05 29.49 44.00 C 28.76 42.98 27.98 42.00 27.14 41.07 C 31.17 40.52 35.22 40.15 39.19 39.27 M 43.12 46.93 L 43.70 46.98 C 43.39 47.55 42.78 48.68 42.47 49.24 C 43.45 50.22 45.11 49.37 46.34 49.31 C 46.32 48.42 46.31 47.53 46.29 46.64 C 45.23 46.73 44.18 46.82 43.12 46.93 Z" />
<path fill="#6fbe79" opacity="1.00" d=" M 92.75 43.46 C 94.10 42.34 95.49 41.25 96.85 40.14 L 96.00 41.69 C 95.43 42.25 94.85 42.80 94.28 43.36 C 93.36 44.15 92.45 44.95 91.56 45.77 C 90.01 45.31 88.46 44.85 86.92 44.38 C 87.86 43.66 88.81 42.95 89.77 42.26 L 88.77 43.75 C 89.77 43.68 91.75 43.53 92.75 43.46 Z" />
<path fill="#389b9a" opacity="1.00" d=" M 51.78 44.10 C 52.34 42.49 53.09 40.95 53.84 39.42 C 54.87 41.08 55.94 42.73 57.01 44.37 C 55.60 45.52 54.20 46.66 52.80 47.81 C 52.45 46.57 52.12 45.33 51.78 44.10 Z" />
<path fill="#1c7385" opacity="1.00" d=" M 67.77 46.15 C 69.43 43.91 71.37 41.57 74.32 41.20 C 74.05 42.75 73.76 44.31 73.37 45.84 L 72.78 46.09 C 71.09 46.39 69.41 46.66 67.72 46.92 L 67.77 46.15 Z" />
<path fill="#3a1322" opacity="1.00" d=" M 27.14 41.07 C 27.98 42.00 28.76 42.98 29.49 44.00 C 28.88 47.05 25.98 48.70 23.67 50.38 C 21.95 50.52 20.23 50.51 18.51 50.52 C 18.60 49.40 18.67 48.28 18.82 47.16 C 19.05 47.87 19.50 49.29 19.73 49.99 C 21.99 49.48 24.25 48.86 26.24 47.65 C 27.57 46.28 28.86 44.72 28.25 42.67 L 26.04 42.43 L 27.14 41.07 Z" />
<path fill="#fee8ba" opacity="1.00" d=" M 21.73 44.45 C 23.16 43.75 24.61 43.10 26.04 42.43 L 28.25 42.67 C 28.86 44.72 27.57 46.28 26.24 47.65 C 24.74 46.58 23.24 45.51 21.73 44.45 Z" />
<path fill="#de313a" opacity="1.00" d=" M 62.16 43.24 C 62.61 43.39 63.50 43.70 63.95 43.85 C 64.85 43.41 65.75 42.97 66.65 42.53 C 66.92 44.33 67.21 46.13 67.50 47.93 C 69.29 47.41 71.07 46.84 72.78 46.09 L 73.37 45.84 C 73.81 46.08 74.69 46.57 75.13 46.81 C 74.98 48.32 74.84 49.84 74.70 51.36 C 74.28 51.36 73.45 51.38 73.03 51.38 C 72.94 52.55 72.88 53.73 72.72 54.90 C 71.29 57.26 69.91 59.88 67.48 61.37 C 65.28 62.41 62.82 62.73 60.46 63.22 C 61.88 61.88 63.36 60.60 64.76 59.23 C 66.73 57.61 67.80 55.27 68.69 52.95 C 68.36 52.75 67.70 52.35 67.38 52.15 C 66.50 51.04 65.69 49.89 64.81 48.78 C 63.23 47.48 61.18 47.29 59.23 47.12 C 58.67 46.73 57.56 45.96 57.00 45.57 C 58.69 44.74 60.43 44.00 62.16 43.24 Z" />
<path fill="#eac8a7" opacity="1.00" d=" M 19.37 45.85 C 20.14 45.36 20.92 44.88 21.73 44.45 C 23.24 45.51 24.74 46.58 26.24 47.65 C 24.25 48.86 21.99 49.48 19.73 49.99 C 19.50 49.29 19.05 47.87 18.82 47.16 L 19.37 45.85 Z" />
<path fill="#288088" opacity="1.00" d=" M 78.12 52.42 C 80.76 49.44 83.81 46.86 86.92 44.38 C 88.46 44.85 90.01 45.31 91.56 45.77 C 90.03 47.22 88.58 48.75 87.10 50.25 C 86.93 50.40 86.59 50.71 86.43 50.87 C 83.92 52.31 81.01 53.27 78.12 52.42 Z" />
<path fill="#dc313b" opacity="1.00" d=" M 13.34 49.08 C 14.73 47.39 16.29 45.81 18.17 44.68 L 20.19 43.88 L 19.37 45.85 L 18.82 47.16 C 18.67 48.28 18.60 49.40 18.51 50.52 C 20.23 50.51 21.95 50.52 23.67 50.38 C 30.07 52.55 36.53 54.59 42.74 57.28 C 42.16 57.90 41.57 58.51 40.99 59.13 C 36.09 57.56 31.18 56.00 26.14 54.97 C 21.35 54.35 16.93 52.31 13.34 49.08 Z" />
<path fill="#000000" opacity="1.00" d=" M 43.12 46.93 C 44.18 46.82 45.23 46.73 46.29 46.64 C 46.31 47.53 46.32 48.42 46.34 49.31 C 45.11 49.37 43.45 50.22 42.47 49.24 C 43.58 49.34 46.45 49.31 45.52 47.49 C 45.07 47.36 44.15 47.11 43.70 46.98 L 43.12 46.93 Z" />
<path fill="#ffffdc" opacity="1.00" d=" M 42.47 49.24 C 42.78 48.68 43.39 47.55 43.70 46.98 C 44.15 47.11 45.07 47.36 45.52 47.49 C 46.45 49.31 43.58 49.34 42.47 49.24 Z" />
<path fill="#360e2d" opacity="1.00" d=" M 50.66 54.06 C 52.28 50.58 55.55 48.08 59.23 47.12 C 61.18 47.29 63.23 47.48 64.81 48.78 C 62.03 49.42 59.16 50.05 56.83 51.80 C 56.55 52.03 55.97 52.50 55.69 52.74 C 55.54 53.03 55.23 53.62 55.08 53.92 C 51.45 55.34 52.82 59.09 54.06 61.70 C 54.21 62.09 54.51 62.86 54.66 63.24 C 54.22 63.20 53.33 63.11 52.89 63.06 C 52.36 62.95 51.29 62.71 50.75 62.60 C 48.52 60.21 49.35 56.68 50.66 54.06 Z" />
<path fill="#b01d34" opacity="1.00" d=" M 75.13 46.81 C 78.18 49.97 76.18 54.71 75.11 58.32 C 74.67 59.43 74.24 60.53 73.80 61.63 C 72.50 61.45 71.20 61.28 69.89 61.11 C 71.24 59.25 72.60 57.27 72.72 54.90 C 72.88 53.73 72.94 52.55 73.03 51.38 C 73.45 51.38 74.28 51.36 74.70 51.36 C 74.84 49.84 74.98 48.32 75.13 46.81 Z" />
<path fill="#b66c70" opacity="1.00" d=" M 91.20 52.53 C 91.55 48.59 95.15 45.95 99.00 46.46 C 99.19 46.97 99.56 48.00 99.75 48.52 C 98.92 49.48 98.08 50.43 97.32 51.45 C 95.28 51.85 93.24 52.21 91.20 52.53 Z" />
<path fill="#3a0d2b" opacity="1.00" d=" M 99.00 46.46 C 99.41 46.65 100.21 47.04 100.61 47.24 C 100.65 48.06 100.73 49.70 100.77 50.52 C 101.85 49.98 102.94 49.44 104.02 48.91 C 103.46 51.37 102.84 53.82 102.10 56.24 C 101.54 56.91 100.94 57.56 100.30 58.18 C 99.90 58.44 99.10 58.96 98.70 59.22 C 95.42 61.02 91.84 62.28 88.18 63.05 C 83.97 63.65 79.79 62.71 75.66 62.04 C 76.59 60.68 77.55 59.35 78.42 57.95 L 78.58 59.65 C 82.80 58.91 86.89 57.45 90.42 54.99 C 92.64 54.15 94.95 53.54 97.28 53.06 C 97.29 52.65 97.31 51.85 97.32 51.45 C 98.08 50.43 98.92 49.48 99.75 48.52 C 99.56 48.00 99.19 46.97 99.00 46.46 Z" />
<path fill="#ba2639" opacity="1.00" d=" M 11.49 53.06 C 12.06 51.71 12.66 50.38 13.34 49.08 C 16.93 52.31 21.35 54.35 26.14 54.97 C 25.23 54.97 23.40 54.97 22.49 54.97 C 23.11 56.01 23.75 57.04 24.41 58.05 C 20.30 58.22 16.72 55.85 12.81 54.97 C 12.48 54.49 11.82 53.54 11.49 53.06 Z" />
<path fill="#6c1530" opacity="1.00" d=" M 56.83 51.80 C 59.16 50.05 62.03 49.42 64.81 48.78 C 65.69 49.89 66.50 51.04 67.38 52.15 C 65.79 51.87 64.01 51.47 62.48 52.19 C 63.25 53.95 65.96 53.70 67.28 52.64 C 66.93 54.99 66.00 57.21 64.76 59.23 C 63.36 60.60 61.88 61.88 60.46 63.22 C 62.82 62.73 65.28 62.41 67.48 61.37 C 69.91 59.88 71.29 57.26 72.72 54.90 C 72.60 57.27 71.24 59.25 69.89 61.11 C 71.20 61.28 72.50 61.45 73.80 61.63 C 73.49 61.87 72.86 62.37 72.55 62.61 L 72.04 62.64 C 68.58 62.73 65.18 63.43 61.82 64.24 C 60.30 64.39 58.77 64.48 57.25 64.67 C 55.80 64.12 54.36 63.57 52.89 63.06 C 53.33 63.11 54.22 63.20 54.66 63.24 C 54.51 62.86 54.21 62.09 54.06 61.70 C 56.08 60.62 59.68 60.63 59.72 57.63 C 60.11 57.67 60.88 57.77 61.27 57.82 C 61.13 57.42 60.86 56.63 60.72 56.23 C 60.54 55.29 60.81 54.06 59.91 53.41 L 59.53 53.36 L 58.86 53.21 C 58.35 52.86 57.34 52.15 56.83 51.80 Z" />
<path fill="#51996d" opacity="1.00" d=" M 108.28 50.45 C 110.25 50.58 112.22 50.68 114.19 50.72 C 113.21 51.06 112.22 51.41 111.24 51.76 C 110.65 51.83 109.47 51.96 108.89 52.03 C 108.73 51.64 108.43 50.85 108.28 50.45 Z" />
<path fill="#672940" opacity="1.00" d=" M 114.19 50.72 C 115.54 50.24 116.94 49.91 118.34 49.59 C 117.88 50.61 117.15 51.34 116.15 51.79 L 115.53 52.04 C 113.22 52.99 110.89 53.91 108.44 54.48 C 109.33 53.52 110.26 52.62 111.24 51.76 C 112.22 51.41 113.21 51.06 114.19 50.72 Z" />
<path fill="#6ea967" opacity="1.00" d=" M 117.67 51.25 C 119.59 51.38 121.52 51.35 123.44 51.11 L 123.80 52.14 C 123.82 52.21 123.86 52.34 123.88 52.40 C 123.96 53.30 124.14 55.10 124.22 55.99 L 123.14 55.71 C 121.63 55.30 120.13 54.90 118.62 54.50 C 118.38 53.68 117.91 52.06 117.67 51.25 Z" />
<path fill="#ffffdc" opacity="1.00" d=" M 55.69 52.74 C 55.97 52.50 56.55 52.03 56.83 51.80 C 57.34 52.15 58.35 52.86 58.86 53.21 C 57.83 54.48 56.57 54.71 55.08 53.92 C 55.23 53.62 55.54 53.03 55.69 52.74 Z" />
<path fill="#3d091c" opacity="1.00" d=" M 62.48 52.19 C 64.01 51.47 65.79 51.87 67.38 52.15 L 67.28 52.64 C 65.96 53.70 63.25 53.95 62.48 52.19 Z" />
<path fill="#ebffaf" opacity="1.00" d=" M 67.38 52.15 C 67.70 52.35 68.36 52.75 68.69 52.95 C 67.80 55.27 66.73 57.61 64.76 59.23 C 66.00 57.21 66.93 54.99 67.28 52.64 L 67.38 52.15 Z" />
<path fill="#000000" opacity="0.67" d=" M 106.28 52.17 C 107.93 51.63 108.48 52.17 107.93 53.78 C 106.28 54.31 105.73 53.77 106.28 52.17 Z" />
<path fill="#2b8083" opacity="1.00" d=" M 115.53 52.04 L 116.15 51.79 C 116.53 51.65 117.29 51.38 117.67 51.25 C 117.91 52.06 118.38 53.68 118.62 54.50 C 120.13 54.90 121.63 55.30 123.14 55.71 C 120.52 55.71 117.91 55.94 115.30 55.76 C 115.24 54.52 115.31 53.27 115.53 52.04 Z" />
<path fill="#d1ec94" opacity="1.00" d=" M 123.80 52.14 C 123.82 52.21 123.86 52.34 123.88 52.40 C 123.86 52.34 123.82 52.21 123.80 52.14 Z" />
<path fill="#3b0d2a" opacity="1.00" d=" M 11.99 57.92 C 11.30 56.40 11.43 54.68 11.49 53.06 C 11.82 53.54 12.48 54.49 12.81 54.97 C 15.72 59.51 21.50 60.54 25.98 62.96 C 28.23 62.48 27.22 60.14 27.07 58.57 L 27.17 58.65 C 28.33 59.69 29.54 60.69 30.80 61.60 C 31.67 62.18 32.57 62.73 33.47 63.27 C 34.85 64.07 36.26 64.84 37.73 65.47 C 39.86 66.39 42.11 67.03 44.35 67.67 C 44.18 65.62 44.03 63.57 43.75 61.53 L 43.10 61.28 C 42.26 60.98 41.41 60.71 40.55 60.46 C 35.34 58.75 30.04 57.32 24.71 56.05 C 25.18 56.55 26.10 57.57 26.57 58.08 C 26.03 58.07 24.95 58.06 24.41 58.05 C 23.75 57.04 23.11 56.01 22.49 54.97 C 23.40 54.97 25.23 54.97 26.14 54.97 C 31.18 56.00 36.09 57.56 40.99 59.13 C 41.94 59.45 42.90 59.78 43.85 60.11 C 44.93 57.98 46.01 55.86 47.23 53.81 C 47.71 54.56 48.57 55.44 47.34 56.30 C 46.13 58.75 45.22 61.33 44.91 64.05 C 45.69 65.24 46.44 66.48 47.47 67.48 C 49.19 68.12 50.80 66.70 52.39 66.25 C 53.96 65.59 55.60 65.07 57.25 64.67 C 58.77 64.48 60.30 64.39 61.82 64.24 C 61.44 64.64 60.67 65.45 60.29 65.86 C 58.54 67.25 56.55 68.38 54.29 68.67 C 53.70 68.49 52.53 68.13 51.94 67.94 C 48.79 70.27 46.15 73.17 43.20 75.74 C 43.90 74.43 44.64 73.15 45.43 71.90 C 45.83 71.49 46.65 70.67 47.06 70.26 C 46.65 70.26 45.84 70.26 45.43 70.26 C 39.16 69.97 32.72 70.05 26.84 67.54 C 25.72 67.16 24.60 66.80 23.46 66.47 C 21.93 65.76 20.44 64.94 19.09 63.92 C 17.85 60.71 14.39 59.92 11.99 57.92 M 54.15 67.78 C 55.55 68.05 57.96 67.36 58.32 65.88 C 56.92 65.54 54.40 66.25 54.15 67.78 Z" />
<path fill="#000000" opacity="1.00" d=" M 58.86 53.21 L 59.53 53.36 C 59.61 53.38 59.78 53.44 59.86 53.46 L 59.91 53.41 C 60.81 54.06 60.54 55.29 60.72 56.23 C 60.47 56.58 59.97 57.28 59.72 57.63 C 59.26 57.83 58.33 58.23 57.87 58.43 C 58.17 58.04 58.78 57.25 59.08 56.86 C 59.78 55.87 59.49 54.13 57.91 54.68 C 55.96 55.12 57.06 57.31 57.50 58.48 L 56.31 58.67 C 56.32 58.19 56.35 57.22 56.37 56.73 C 55.97 56.79 55.17 56.92 54.77 56.98 C 54.93 56.66 55.25 56.01 55.42 55.69 C 55.46 55.60 55.55 55.42 55.59 55.34 L 55.44 55.08 L 55.08 53.92 C 56.57 54.71 57.83 54.48 58.86 53.21 Z" />
<path fill="#bab7a1" opacity="1.00" d=" M 59.53 53.36 L 59.91 53.41 L 59.86 53.46 C 59.78 53.44 59.61 53.38 59.53 53.36 Z" />
<path fill="#892247" opacity="1.00" d=" M 54.06 61.70 C 52.82 59.09 51.45 55.34 55.08 53.92 L 55.44 55.08 L 55.42 55.69 C 55.25 56.01 54.93 56.66 54.77 56.98 C 54.70 57.41 54.57 58.27 54.50 58.70 C 54.95 58.69 55.85 58.68 56.31 58.67 L 57.50 58.48 L 57.87 58.43 C 58.33 58.23 59.26 57.83 59.72 57.63 C 59.68 60.63 56.08 60.62 54.06 61.70 Z" />
<path fill="#a3237d" opacity="1.00" d=" M 75.11 58.32 C 75.90 56.94 76.22 54.94 77.72 54.14 C 78.55 57.24 76.08 59.92 73.80 61.63 C 74.24 60.53 74.67 59.43 75.11 58.32 Z" />
<path fill="#b52235" opacity="1.00" d=" M 79.91 53.94 C 81.54 53.54 83.16 53.14 84.78 52.72 C 84.96 53.38 85.32 54.70 85.49 55.36 C 87.14 55.26 88.78 55.15 90.42 54.99 C 86.89 57.45 82.80 58.91 78.58 59.65 L 78.42 57.95 C 78.92 56.62 79.42 55.28 79.91 53.94 Z" />
<path fill="#4d0f2d" opacity="1.00" d=" M 12.81 54.97 C 16.72 55.85 20.30 58.22 24.41 58.05 C 24.95 58.06 26.03 58.07 26.57 58.08 C 26.69 58.20 26.95 58.45 27.07 58.57 C 27.22 60.14 28.23 62.48 25.98 62.96 C 21.50 60.54 15.72 59.51 12.81 54.97 Z" />
<path fill="#e0e2cc" opacity="1.00" d=" M 55.44 55.08 L 55.59 55.34 C 55.55 55.42 55.46 55.60 55.42 55.69 L 55.44 55.08 Z" />
<path fill="#fee8ba" opacity="1.00" d=" M 57.50 58.48 C 57.06 57.31 55.96 55.12 57.91 54.68 C 59.49 54.13 59.78 55.87 59.08 56.86 C 58.78 57.25 58.17 58.04 57.87 58.43 L 57.50 58.48 Z" />
<path fill="#ebffaf" opacity="1.00" d=" M 24.71 56.05 C 30.04 57.32 35.34 58.75 40.55 60.46 C 38.21 60.45 35.87 60.24 33.60 59.67 C 31.48 59.20 29.33 58.89 27.17 58.65 L 27.07 58.57 C 26.95 58.45 26.69 58.20 26.57 58.08 C 26.10 57.57 25.18 56.55 24.71 56.05 Z" />
<path fill="#000000" opacity="0.56" d=" M 111.46 56.08 C 112.66 55.18 113.35 55.41 113.54 56.78 C 112.33 57.68 111.64 57.45 111.46 56.08 Z" />
<path fill="#fee8ba" opacity="1.00" d=" M 54.77 56.98 C 55.17 56.92 55.97 56.79 56.37 56.73 C 56.35 57.22 56.32 58.19 56.31 58.67 C 55.85 58.68 54.95 58.69 54.50 58.70 C 54.57 58.27 54.70 57.41 54.77 56.98 Z" />
<path fill="#db867e" opacity="1.00" d=" M 59.72 57.63 C 59.97 57.28 60.47 56.58 60.72 56.23 C 60.86 56.63 61.13 57.42 61.27 57.82 C 60.88 57.77 60.11 57.67 59.72 57.63 Z" />
<path fill="#409597" opacity="1.00" d=" M 100.30 58.18 C 100.57 58.14 101.11 58.07 101.38 58.03 C 103.34 58.89 105.34 59.95 106.18 62.06 C 105.32 62.41 104.47 62.80 103.63 63.21 C 103.43 62.50 103.03 61.08 102.83 60.37 C 101.45 59.98 100.07 59.60 98.70 59.22 C 99.10 58.96 99.90 58.44 100.30 58.18 Z" />
<path fill="#88d9bb" opacity="1.00" d=" M 101.38 58.03 C 102.22 57.97 103.89 57.86 104.72 57.81 C 106.30 58.72 107.76 59.82 109.17 60.98 C 108.43 61.24 106.96 61.77 106.23 62.04 L 106.18 62.06 C 105.34 59.95 103.34 58.89 101.38 58.03 Z" />
<path fill="#ffffff" opacity="1.00" d=" M 104.72 57.81 C 108.59 57.88 112.43 58.34 116.26 58.80 C 115.66 61.24 115.23 63.77 114.00 65.99 C 114.43 63.86 114.75 61.70 115.12 59.56 C 113.24 60.74 111.05 63.79 109.17 60.98 C 107.76 59.82 106.30 58.72 104.72 57.81 Z" />
<path fill="#6fbe79" opacity="1.00" d=" M 27.17 58.65 C 29.33 58.89 31.48 59.20 33.60 59.67 C 32.90 60.16 31.50 61.12 30.80 61.60 C 29.54 60.69 28.33 59.69 27.17 58.65 Z" />
<path fill="#13587c" opacity="1.00" d=" M 88.18 63.05 C 91.84 62.28 95.42 61.02 98.70 59.22 C 100.07 59.60 101.45 59.98 102.83 60.37 C 103.03 61.08 103.43 62.50 103.63 63.21 C 102.04 64.60 100.56 66.12 99.08 67.64 C 96.34 67.95 93.61 68.31 90.88 68.61 C 88.37 67.15 85.07 66.65 83.46 64.01 C 85.03 63.68 86.61 63.38 88.18 63.05 Z" />
<path fill="#4eb688" opacity="1.00" d=" M 33.60 59.67 C 35.87 60.24 38.21 60.45 40.55 60.46 C 41.41 60.71 42.26 60.98 43.10 61.28 C 43.10 61.72 43.08 62.59 43.08 63.03 C 39.87 63.00 36.67 63.06 33.47 63.27 C 32.57 62.73 31.67 62.18 30.80 61.60 C 31.50 61.12 32.90 60.16 33.60 59.67 Z" />
<path fill="#ebffaf" opacity="1.00" d=" M 109.17 60.98 C 111.05 63.79 113.24 60.74 115.12 59.56 C 114.75 61.70 114.43 63.86 114.00 65.99 C 113.80 66.34 113.39 67.04 113.19 67.39 L 111.89 67.11 C 110.44 66.81 108.97 66.61 107.51 66.39 C 107.07 64.94 106.64 63.49 106.23 62.04 C 106.96 61.77 108.43 61.24 109.17 60.98 Z" />
<path fill="#a5ea8a" opacity="1.00" d=" M 13.72 60.54 C 15.61 61.50 17.37 62.68 19.09 63.92 C 20.44 64.94 21.93 65.76 23.46 66.47 C 22.94 66.47 21.90 66.49 21.38 66.49 C 19.18 65.32 16.81 64.50 14.29 64.44 C 14.10 63.14 13.91 61.84 13.72 60.54 Z" />
<path fill="#217f81" opacity="1.00" d=" M 43.10 61.28 L 43.75 61.53 C 44.03 63.57 44.18 65.62 44.35 67.67 C 42.11 67.03 39.86 66.39 37.73 65.47 C 39.47 65.35 41.20 65.17 42.93 64.93 C 42.97 64.45 43.04 63.50 43.08 63.03 C 43.08 62.59 43.10 61.72 43.10 61.28 Z" />
<path fill="#791932" opacity="1.00" d=" M 44.91 64.05 C 45.44 63.44 45.97 62.84 46.50 62.23 C 46.63 62.32 46.88 62.48 47.00 62.56 C 48.74 63.87 50.53 65.11 52.39 66.25 C 50.80 66.70 49.19 68.12 47.47 67.48 C 46.44 66.48 45.69 65.24 44.91 64.05 Z" />
<path fill="#dd5d4f" opacity="1.00" d=" M 47.00 62.56 C 48.25 62.57 49.50 62.54 50.75 62.60 C 51.29 62.71 52.36 62.95 52.89 63.06 C 54.36 63.57 55.80 64.12 57.25 64.67 C 55.60 65.07 53.96 65.59 52.39 66.25 C 50.53 65.11 48.74 63.87 47.00 62.56 Z" />
<path fill="#ebffaf" opacity="1.00" d=" M 61.82 64.24 C 65.18 63.43 68.58 62.73 72.04 62.64 C 68.03 63.35 64.11 64.47 60.29 65.86 C 60.67 65.45 61.44 64.64 61.82 64.24 Z" />
<path fill="#51996d" opacity="1.00" d=" M 103.63 63.21 C 104.47 62.80 105.32 62.41 106.18 62.06 L 106.23 62.04 C 106.64 63.49 107.07 64.94 107.51 66.39 C 108.97 66.61 110.44 66.81 111.89 67.11 C 110.45 68.60 109.72 71.59 107.27 71.60 C 107.02 71.19 106.51 70.37 106.25 69.97 C 104.25 68.30 101.65 67.65 99.08 67.64 C 100.56 66.12 102.04 64.60 103.63 63.21 Z" />
<path fill="#34a592" opacity="1.00" d=" M 33.47 63.27 C 36.67 63.06 39.87 63.00 43.08 63.03 C 43.04 63.50 42.97 64.45 42.93 64.93 C 41.20 65.17 39.47 65.35 37.73 65.47 C 36.26 64.84 34.85 64.07 33.47 63.27 Z" />
<path fill="#cf2b38" opacity="1.00" d=" M 60.29 65.86 C 64.11 64.47 68.03 63.35 72.04 62.64 L 72.55 62.61 C 74.69 62.85 76.81 63.19 78.95 63.47 C 78.80 64.02 78.52 65.14 78.38 65.70 C 76.53 64.88 74.67 64.10 72.80 63.36 C 73.49 64.26 74.18 65.16 74.87 66.06 C 74.18 66.29 73.48 66.51 72.79 66.74 C 70.97 63.85 66.82 65.37 66.26 68.42 C 68.70 68.45 71.13 68.53 73.57 68.66 C 69.52 71.53 64.57 72.40 59.84 73.49 C 57.76 72.43 55.64 71.45 53.49 70.54 C 53.69 70.07 54.09 69.14 54.29 68.67 C 56.55 68.38 58.54 67.25 60.29 65.86 Z" />
<path fill="#380d2a" opacity="1.00" d=" M 78.95 63.47 C 80.42 63.66 81.90 63.84 83.39 64.02 C 81.25 71.50 73.69 74.73 67.07 77.26 C 66.82 76.56 66.57 75.87 66.32 75.17 C 62.97 75.32 59.63 75.01 56.36 74.27 C 57.23 74.07 58.97 73.68 59.84 73.49 C 64.57 72.40 69.52 71.53 73.57 68.66 C 71.13 68.53 68.70 68.45 66.26 68.42 C 68.47 68.00 70.66 67.48 72.79 66.74 C 73.48 66.51 74.18 66.29 74.87 66.06 C 74.18 65.16 73.49 64.26 72.80 63.36 C 74.67 64.10 76.53 64.88 78.38 65.70 C 78.52 65.14 78.80 64.02 78.95 63.47 Z" />
<path fill="#deb099" opacity="1.00" d=" M 66.26 68.42 C 66.82 65.37 70.97 63.85 72.79 66.74 C 70.66 67.48 68.47 68.00 66.26 68.42 Z" />
<path fill="#b62995" opacity="1.00" d=" M 67.07 77.26 C 73.69 74.73 81.25 71.50 83.39 64.02 C 83.08 66.24 83.46 68.92 81.49 70.48 C 76.24 75.47 69.46 78.98 62.32 80.26 C 63.78 79.09 65.34 78.01 67.07 77.26 Z" />
<path fill="#6fbe79" opacity="1.00" d=" M 10.94 66.86 C 13.34 66.51 15.74 66.97 18.09 67.38 C 17.42 69.58 16.71 71.77 15.84 73.90 C 14.98 74.44 14.13 74.97 13.28 75.51 C 13.02 74.74 12.51 73.19 12.25 72.42 L 11.89 72.63 C 11.71 72.74 11.35 72.97 11.17 73.09 C 8.88 72.68 6.57 72.73 4.28 73.04 C 4.61 72.51 5.27 71.47 5.60 70.95 L 5.51 72.45 C 7.76 70.85 9.96 69.16 12.13 67.44 C 11.83 67.30 11.24 67.01 10.94 66.86 M 15.02 69.28 C 13.42 72.26 18.35 69.42 15.02 69.28 Z" />
<path fill="#1f6161" opacity="1.00" d=" M 23.46 66.47 C 24.60 66.80 25.72 67.16 26.84 67.54 C 25.95 68.53 26.34 69.32 28.02 69.90 C 27.67 70.04 26.96 70.32 26.61 70.46 C 26.19 70.42 25.36 70.35 24.95 70.31 C 24.14 69.57 23.36 68.80 22.64 67.98 L 21.38 66.49 C 21.90 66.49 22.94 66.47 23.46 66.47 Z" />
<path fill="#be927f" opacity="1.00" d=" M 54.15 67.78 C 54.40 66.25 56.92 65.54 58.32 65.88 C 57.96 67.36 55.55 68.05 54.15 67.78 Z" />
<path fill="#bbe6ad" opacity="1.00" d=" M 5.60 70.95 C 6.66 68.84 8.70 67.44 10.94 66.86 C 11.24 67.01 11.83 67.30 12.13 67.44 C 9.96 69.16 7.76 70.85 5.51 72.45 L 5.60 70.95 Z" />
<path fill="#248b8e" opacity="1.00" d=" M 18.09 67.38 C 19.60 67.63 21.12 67.81 22.64 67.98 C 23.36 68.80 24.14 69.57 24.95 70.31 C 24.50 70.35 23.59 70.43 23.14 70.46 C 20.52 71.15 18.16 72.55 15.84 73.90 C 16.71 71.77 17.42 69.58 18.09 67.38 Z" />
<path fill="#22747c" opacity="1.00" d=" M 83.54 66.40 C 85.55 66.94 87.83 67.13 89.46 68.58 C 91.34 69.99 90.50 72.56 90.54 74.54 C 89.28 74.01 88.01 73.53 86.73 73.09 C 89.22 74.59 91.79 75.98 94.19 77.64 C 92.76 78.26 91.24 78.72 89.92 79.57 C 89.53 80.82 89.20 82.08 88.94 83.36 C 85.78 82.75 83.23 80.86 81.66 78.07 C 82.25 78.02 83.43 77.93 84.02 77.88 C 86.27 77.51 84.60 74.47 83.02 74.21 C 82.38 73.86 81.10 73.16 80.46 72.80 C 81.69 71.67 82.86 70.47 84.04 69.29 C 85.33 70.28 86.62 71.27 87.91 72.27 C 86.20 70.52 84.59 68.64 83.54 66.40 Z" />
<path fill="#1f6e7d" opacity="1.00" d=" M 28.02 69.90 C 26.34 69.32 25.95 68.53 26.84 67.54 C 32.72 70.05 39.16 69.97 45.43 70.26 C 40.59 70.65 35.75 71.02 30.90 71.27 C 29.47 71.00 28.04 70.73 26.61 70.46 C 26.96 70.32 27.67 70.04 28.02 69.90 Z" />
<path fill="#b2243b" opacity="1.00" d=" M 43.20 75.74 C 46.15 73.17 48.79 70.27 51.94 67.94 C 52.53 68.13 53.70 68.49 54.29 68.67 C 54.09 69.14 53.69 70.07 53.49 70.54 C 55.64 71.45 57.76 72.43 59.84 73.49 C 58.97 73.68 57.23 74.07 56.36 74.27 C 53.16 74.33 49.97 74.59 46.78 74.84 C 47.27 75.34 48.26 76.33 48.75 76.83 C 46.89 76.53 45.03 76.19 43.20 75.74 Z" />
<path fill="#ffffff" opacity="1.00" d=" M 107.27 71.60 C 109.72 71.59 110.45 68.60 111.89 67.11 L 113.19 67.39 C 111.77 69.20 110.25 70.97 109.32 73.10 C 110.16 74.09 111.00 75.11 111.82 76.12 C 108.14 76.99 104.39 77.55 100.61 77.73 C 101.01 77.64 101.79 77.46 102.18 77.37 C 104.75 76.79 107.30 76.12 109.81 75.33 C 109.01 74.38 108.22 73.42 107.44 72.45 C 107.40 72.24 107.32 71.81 107.27 71.60 Z" />
<path fill="#325e41" opacity="1.00" d=" M 15.02 69.28 C 18.35 69.42 13.42 72.26 15.02 69.28 Z" />
<path fill="#175a78" opacity="1.00" d=" M 91.21 68.94 C 96.24 68.29 101.35 68.64 106.25 69.97 C 106.51 70.37 107.02 71.19 107.27 71.60 C 107.32 71.81 107.40 72.24 107.44 72.45 C 105.72 72.73 104.01 72.98 102.30 73.24 C 102.25 74.61 102.22 75.99 102.18 77.37 C 101.79 77.46 101.01 77.64 100.61 77.73 C 99.85 77.89 98.31 78.22 97.54 78.38 C 96.65 77.86 95.74 77.38 94.84 76.88 C 93.62 76.06 92.43 75.21 91.23 74.37 C 91.23 72.56 91.23 70.75 91.21 68.94 Z" />
<path fill="#000000" opacity="1.00" d=" M 15.84 73.90 C 18.16 72.55 20.52 71.15 23.14 70.46 C 21.40 71.34 19.81 72.46 18.24 73.62 C 16.68 74.67 15.10 75.69 13.56 76.78 C 11.08 78.49 8.90 80.61 6.98 82.93 C 4.45 85.98 3.17 89.84 0.58 92.85 C 1.14 88.43 2.71 84.02 5.69 80.65 C 6.96 79.09 8.97 77.75 8.52 75.44 C 9.17 75.37 10.49 75.25 11.14 75.19 C 11.70 76.12 12.41 76.23 13.28 75.51 C 14.13 74.97 14.98 74.44 15.84 73.90 Z" />
<path fill="#58bda5" opacity="1.00" d=" M 24.95 70.31 C 25.36 70.35 26.19 70.42 26.61 70.46 C 28.04 70.73 29.47 71.00 30.90 71.27 C 29.25 73.64 26.23 73.52 23.67 74.03 L 22.89 74.09 C 21.36 73.72 19.81 73.56 18.24 73.62 C 19.81 72.46 21.40 71.34 23.14 70.46 C 23.59 70.43 24.50 70.35 24.95 70.31 Z" />
<path fill="#27666c" opacity="1.00" d=" M 45.43 70.26 C 45.84 70.26 46.65 70.26 47.06 70.26 C 46.65 70.67 45.83 71.49 45.43 71.90 C 42.77 72.10 40.09 72.07 37.46 72.53 C 36.16 74.92 34.93 77.34 33.50 79.65 L 32.83 78.63 C 33.22 76.82 33.62 75.01 33.91 73.17 L 33.95 72.86 L 33.67 72.97 C 32.40 73.23 31.68 74.03 31.48 75.37 C 30.55 74.69 29.59 73.53 28.29 73.99 C 27.82 74.05 26.88 74.17 26.41 74.24 C 25.73 74.18 24.36 74.08 23.67 74.03 C 26.23 73.52 29.25 73.64 30.90 71.27 C 35.75 71.02 40.59 70.65 45.43 70.26 Z" />
<path fill="#94d797" opacity="1.00" d=" M 11.89 72.63 L 12.25 72.42 C 12.51 73.19 13.02 74.74 13.28 75.51 C 12.41 76.23 11.70 76.12 11.14 75.19 C 11.41 74.34 11.66 73.48 11.89 72.63 Z" />
<path fill="#145b7c" opacity="1.00" d=" M 37.46 72.53 C 40.09 72.07 42.77 72.10 45.43 71.90 C 44.64 73.15 43.90 74.43 43.20 75.74 C 43.03 76.10 42.68 76.83 42.51 77.19 C 42.33 77.64 41.98 78.54 41.81 78.99 C 46.51 80.62 50.98 82.83 54.97 85.83 C 50.36 86.86 45.77 88.24 41.76 90.82 C 43.10 89.38 44.43 87.95 45.73 86.48 L 44.18 86.81 C 45.84 85.88 47.55 85.04 49.25 84.19 C 42.52 85.04 35.75 85.55 28.97 85.23 C 23.26 84.75 18.60 88.65 13.40 90.34 L 13.53 88.77 C 15.20 87.77 16.86 86.75 18.54 85.75 C 24.18 84.33 30.03 84.63 35.79 84.69 C 34.79 83.79 33.79 82.88 32.79 81.98 C 35.10 79.25 36.94 76.12 37.46 72.53 Z" />
<path fill="#55b7ac" opacity="1.00" d=" M 31.48 75.37 C 31.68 74.03 32.40 73.23 33.67 72.97 C 33.73 73.02 33.85 73.12 33.91 73.17 C 33.62 75.01 33.22 76.82 32.83 78.63 L 32.40 78.01 C 32.06 77.77 31.39 77.29 31.05 77.05 C 31.07 77.42 31.12 78.15 31.15 78.52 L 31.93 78.72 C 31.43 79.47 30.92 80.22 30.41 80.96 C 30.17 80.46 29.70 79.46 29.46 78.96 C 28.83 77.52 28.27 76.05 27.78 74.56 L 28.29 73.99 C 29.59 73.53 30.55 74.69 31.48 75.37 Z" />
<path fill="#a0f6d2" opacity="1.00" d=" M 33.67 72.97 L 33.95 72.86 L 33.91 73.17 C 33.85 73.12 33.73 73.02 33.67 72.97 Z" />
<path fill="#2b8083" opacity="1.00" d=" M 33.50 79.65 C 34.93 77.34 36.16 74.92 37.46 72.53 C 36.94 76.12 35.10 79.25 32.79 81.98 C 33.79 82.88 34.79 83.79 35.79 84.69 C 30.03 84.63 24.18 84.33 18.54 85.75 C 16.56 86.07 14.58 86.29 12.60 86.56 C 14.29 85.49 15.91 84.33 17.58 83.23 C 18.77 82.57 19.97 81.92 21.18 81.27 C 24.20 81.73 26.98 80.58 29.46 78.96 C 29.70 79.46 30.17 80.46 30.41 80.96 C 30.92 80.22 31.43 79.47 31.93 78.72 L 32.40 78.01 L 32.83 78.63 L 33.50 79.65 Z" />
<path fill="#14597c" opacity="1.00" d=" M 69.47 79.32 C 73.19 77.26 77.14 75.51 80.46 72.80 C 81.10 73.16 82.38 73.86 83.02 74.21 C 82.89 75.51 83.11 76.89 84.02 77.88 C 83.43 77.93 82.25 78.02 81.66 78.07 C 78.18 77.88 75.29 79.88 72.57 81.75 C 71.52 80.96 70.49 80.15 69.47 79.32 Z" />
<path fill="#ffffff" opacity="1.00" d=" M 86.73 73.09 C 88.01 73.53 89.28 74.01 90.54 74.54 C 91.97 75.33 93.39 76.12 94.84 76.88 C 95.74 77.38 96.65 77.86 97.54 78.38 C 99.91 79.62 101.18 81.98 102.05 84.40 C 99.51 82.05 97.30 79.30 94.19 77.64 C 91.79 75.98 89.22 74.59 86.73 73.09 Z" />
<path fill="#3c8c70" opacity="1.00" d=" M 102.30 73.24 C 104.01 72.98 105.72 72.73 107.44 72.45 C 108.22 73.42 109.01 74.38 109.81 75.33 C 107.30 76.12 104.75 76.79 102.18 77.37 C 102.22 75.99 102.25 74.61 102.30 73.24 Z" />
<path fill="#7ea97f" opacity="1.00" d=" M 13.56 76.78 C 15.10 75.69 16.68 74.67 18.24 73.62 C 19.10 75.49 21.53 75.15 22.89 74.09 L 23.67 74.03 C 24.36 74.08 25.73 74.18 26.41 74.24 C 23.20 75.54 19.92 76.78 17.09 78.81 C 15.09 79.69 13.10 80.57 11.09 81.41 C 12.72 79.86 14.40 78.37 16.10 76.90 C 15.46 76.87 14.20 76.81 13.56 76.78 Z" />
<path fill="#d1f1c5" opacity="1.00" d=" M 18.24 73.62 C 19.81 73.56 21.36 73.72 22.89 74.09 C 21.53 75.15 19.10 75.49 18.24 73.62 Z" />
<path fill="#ffffff" opacity="1.00" d=" M 26.41 74.24 C 26.88 74.17 27.82 74.05 28.29 73.99 L 27.78 74.56 C 27.51 74.86 26.97 75.46 26.70 75.76 C 25.46 76.92 24.20 78.23 23.93 79.99 L 23.24 79.78 C 23.36 78.86 23.59 77.02 23.71 76.09 C 21.55 77.10 19.35 78.05 17.09 78.81 C 19.92 76.78 23.20 75.54 26.41 74.24 Z" />
<path fill="#500f2d" opacity="1.00" d=" M 46.78 74.84 C 49.97 74.59 53.16 74.33 56.36 74.27 C 59.63 75.01 62.97 75.32 66.32 75.17 C 66.57 75.87 66.82 76.56 67.07 77.26 C 65.34 78.01 63.78 79.09 62.32 80.26 C 57.02 80.93 51.46 81.42 46.26 79.90 C 44.67 79.55 43.61 78.27 42.51 77.19 C 42.68 76.83 43.03 76.10 43.20 75.74 C 45.03 76.19 46.89 76.53 48.75 76.83 C 48.26 76.33 47.27 75.34 46.78 74.84 Z" />
<path fill="#0d3748" opacity="1.00" d=" M 83.02 74.21 C 84.60 74.47 86.27 77.51 84.02 77.88 C 83.11 76.89 82.89 75.51 83.02 74.21 Z" />
<path fill="#7fe5ad" opacity="1.00" d=" M 26.70 75.76 C 26.97 75.46 27.51 74.86 27.78 74.56 C 28.27 76.05 28.83 77.52 29.46 78.96 C 26.98 80.58 24.20 81.73 21.18 81.27 C 19.97 81.92 18.77 82.57 17.58 83.23 C 16.85 83.30 15.40 83.43 14.67 83.50 C 15.48 81.94 16.30 80.38 17.09 78.81 C 19.35 78.05 21.55 77.10 23.71 76.09 C 23.59 77.02 23.36 78.86 23.24 79.78 L 23.93 79.99 C 26.31 80.63 26.92 77.50 26.70 75.76 Z" />
<path fill="#51996d" opacity="1.00" d=" M 23.93 79.99 C 24.20 78.23 25.46 76.92 26.70 75.76 C 26.92 77.50 26.31 80.63 23.93 79.99 Z" />
<path fill="#a5ea8a" opacity="1.00" d=" M 6.98 82.93 C 8.90 80.61 11.08 78.49 13.56 76.78 C 14.20 76.81 15.46 76.87 16.10 76.90 C 14.40 78.37 12.72 79.86 11.09 81.41 C 13.10 80.57 15.09 79.69 17.09 78.81 C 16.30 80.38 15.48 81.94 14.67 83.50 C 15.40 83.43 16.85 83.30 17.58 83.23 C 15.91 84.33 14.29 85.49 12.60 86.56 C 8.12 87.78 4.44 90.65 0.54 93.02 L 0.58 92.85 C 3.17 89.84 4.45 85.98 6.98 82.93 Z" />
<path fill="#97e3cb" opacity="1.00" d=" M 31.05 77.05 C 31.39 77.29 32.06 77.77 32.40 78.01 L 31.93 78.72 L 31.15 78.52 C 31.12 78.15 31.07 77.42 31.05 77.05 Z" />
<path fill="#238b91" opacity="1.00" d=" M 72.57 81.75 C 75.29 79.88 78.18 77.88 81.66 78.07 C 83.23 80.86 85.78 82.75 88.94 83.36 C 89.28 83.74 89.96 84.49 90.29 84.86 C 85.52 84.63 80.63 84.36 76.11 86.24 C 76.24 85.63 76.51 84.42 76.65 83.82 C 75.27 83.16 73.89 82.51 72.57 81.75 Z" />
<path fill="#4fb277" opacity="1.00" d=" M 89.92 79.57 C 91.24 78.72 92.76 78.26 94.19 77.64 C 97.30 79.30 99.51 82.05 102.05 84.40 C 103.84 84.06 105.61 83.61 107.37 83.14 C 104.99 81.14 101.70 80.95 99.26 79.05 C 103.49 79.39 107.70 80.11 111.75 81.39 C 111.67 81.69 111.51 82.28 111.43 82.58 C 109.24 82.89 106.98 83.49 105.65 85.41 C 105.44 85.64 105.01 86.08 104.80 86.31 C 108.54 87.38 112.31 88.40 116.14 89.13 C 115.34 89.30 113.75 89.63 112.95 89.79 L 113.21 89.48 C 108.85 88.43 104.39 87.94 100.00 87.00 C 100.29 86.32 100.86 84.95 101.14 84.27 C 97.54 84.68 93.92 84.97 90.29 84.86 C 89.96 84.49 89.28 83.74 88.94 83.36 C 89.20 82.08 89.53 80.82 89.92 79.57 Z" />
<path fill="#248b8e" opacity="1.00" d=" M 65.92 80.00 C 70.22 78.56 72.88 83.03 74.66 86.16 C 66.64 86.94 57.71 86.96 50.76 82.33 C 55.92 82.43 60.99 81.20 66.15 81.28 C 66.64 82.10 67.14 82.91 67.64 83.73 L 67.29 82.04 C 67.99 82.15 69.40 82.36 70.10 82.47 C 68.62 81.85 66.55 81.80 65.92 80.00 Z" />
<path fill="#ffffdc" opacity="1.00" d=" M 111.75 81.39 C 113.53 81.97 115.46 82.53 116.70 84.02 C 116.28 84.09 115.45 84.23 115.04 84.30 C 113.79 83.82 112.59 83.24 111.43 82.58 C 111.51 82.28 111.67 81.69 111.75 81.39 Z" />
<path fill="#a5ea8a" opacity="1.00" d=" M 105.65 85.41 C 106.98 83.49 109.24 82.89 111.43 82.58 C 112.59 83.24 113.79 83.82 115.04 84.30 C 111.92 84.73 108.79 85.10 105.65 85.41 Z" />
<path fill="#000000" opacity="1.00" d=" M 28.97 85.23 C 35.75 85.55 42.52 85.04 49.25 84.19 C 47.55 85.04 45.84 85.88 44.18 86.81 C 41.17 88.37 38.34 90.55 36.91 93.72 C 39.62 93.46 43.14 94.39 45.08 92.05 L 44.58 93.46 C 50.39 92.80 56.25 92.79 62.07 93.42 C 63.66 93.31 65.85 94.07 67.09 92.85 L 67.03 92.42 C 66.00 92.13 63.94 91.56 62.91 91.28 C 70.52 91.36 79.00 90.74 85.74 94.81 C 85.65 98.03 82.39 99.34 79.89 100.43 C 77.74 100.07 75.61 99.64 73.46 99.37 C 74.77 98.74 76.09 98.10 77.40 97.45 C 76.03 96.21 74.37 95.37 72.51 95.26 C 61.74 93.94 50.77 93.90 40.06 95.67 C 37.95 96.01 34.09 96.22 34.55 93.01 C 35.62 90.91 37.43 89.34 39.01 87.64 C 31.54 87.63 24.14 88.67 17.03 90.97 C 20.28 91.67 19.73 95.38 22.14 96.99 C 16.29 98.72 9.82 100.50 3.94 97.87 C 5.43 96.88 7.02 96.04 8.64 95.28 C 7.63 94.23 6.65 93.15 5.71 92.03 C 3.83 93.43 1.93 94.82 0.01 96.17 C 0.14 95.38 0.41 93.81 0.54 93.02 C 4.44 90.65 8.12 87.78 12.60 86.56 C 14.58 86.29 16.56 86.07 18.54 85.75 C 16.86 86.75 15.20 87.77 13.53 88.77 C 11.78 90.20 8.22 90.64 8.05 93.15 C 10.29 94.31 14.51 92.54 15.08 95.84 C 15.82 95.80 17.29 95.71 18.03 95.67 C 18.38 91.96 13.84 92.35 11.45 91.17 C 11.94 90.96 12.92 90.55 13.40 90.34 C 18.60 88.65 23.26 84.75 28.97 85.23 M 69.20 93.16 C 69.20 93.34 69.21 93.71 69.21 93.90 C 73.30 94.23 77.51 94.35 81.35 95.99 C 80.28 96.97 79.20 97.92 78.13 98.89 C 80.63 98.49 83.58 97.90 84.38 95.10 C 79.60 93.39 74.20 91.88 69.20 93.16 M 6.33 97.61 C 10.27 98.76 14.41 98.57 18.35 97.52 C 14.60 96.12 9.98 95.89 6.33 97.61 Z" />
<path fill="#4bc297" opacity="1.00" d=" M 79.46 85.42 C 84.27 85.72 89.09 85.53 93.91 85.75 L 94.28 86.66 C 94.66 87.55 95.25 88.28 96.05 88.86 C 90.51 88.56 85.02 87.64 79.47 87.44 L 79.46 85.42 Z" />
<path fill="#ffffff" opacity="1.00" d=" M 94.28 86.66 C 95.89 86.33 97.52 87.59 98.72 88.57 C 99.56 90.25 96.65 89.35 96.05 88.86 C 95.25 88.28 94.66 87.55 94.28 86.66 Z" />
<path fill="#aef69e" opacity="1.00" d=" M 36.91 93.72 C 38.34 90.55 41.17 88.37 44.18 86.81 L 45.73 86.48 C 44.43 87.95 43.10 89.38 41.76 90.82 L 42.97 91.23 C 43.53 91.41 44.63 91.77 45.18 91.95 L 45.08 92.05 C 43.14 94.39 39.62 93.46 36.91 93.72 Z" />
<path fill="#a5ea8a" opacity="1.00" d=" M 8.05 93.15 C 8.22 90.64 11.78 90.20 13.53 88.77 L 13.40 90.34 C 12.92 90.55 11.94 90.96 11.45 91.17 C 13.84 92.35 18.38 91.96 18.03 95.67 C 17.29 95.71 15.82 95.80 15.08 95.84 C 14.51 92.54 10.29 94.31 8.05 93.15 Z" />
<path fill="#3c8c70" opacity="1.00" d=" M 45.18 91.95 C 51.07 91.26 56.99 91.21 62.91 91.28 C 63.94 91.56 66.00 92.13 67.03 92.42 L 67.09 92.85 C 65.85 94.07 63.66 93.31 62.07 93.42 C 56.25 92.79 50.39 92.80 44.58 93.46 L 45.08 92.05 L 45.18 91.95 Z" />
<path fill="#6fbe79" opacity="1.00" d=" M 69.20 93.16 C 74.20 91.88 79.60 93.39 84.38 95.10 C 83.58 97.90 80.63 98.49 78.13 98.89 C 79.20 97.92 80.28 96.97 81.35 95.99 C 77.51 94.35 73.30 94.23 69.21 93.90 C 69.21 93.71 69.20 93.34 69.20 93.16 Z" />
<path fill="#6a8f43" opacity="1.00" d=" M 6.33 97.61 C 9.98 95.89 14.60 96.12 18.35 97.52 C 14.41 98.57 10.27 98.76 6.33 97.61 Z" />
<path fill="#000000" opacity="0.66" d=" M 70.18 101.00 C 71.27 100.46 72.35 99.89 73.46 99.37 C 75.61 99.64 77.74 100.07 79.89 100.43 L 78.53 101.00 L 70.18 101.00 Z" />
</svg>
