<?xml version="1.0" encoding="UTF-8" ?>
<!DOCTYPE svg PUBLIC "-//W3C//DTD SVG 1.1//EN" "http://www.w3.org/Graphics/SVG/1.1/DTD/svg11.dtd">
<svg width="140pt" height="107pt" viewBox="0 0 140 107" version="1.1" xmlns="http://www.w3.org/2000/svg">
<path fill="#000000" opacity="1.00" d=" M 69.95 4.54 C 76.13 5.72 80.79 -0.14 87.00 0.52 C 86.82 3.25 86.67 5.99 86.59 8.73 C 89.46 10.71 92.34 12.73 94.84 15.18 C 97.99 18.19 99.30 22.50 100.65 26.52 C 102.68 32.92 100.84 39.64 99.03 45.86 C 108.51 58.28 118.04 70.76 129.12 81.81 C 132.69 85.49 137.09 88.39 140.00 92.69 L 140.00 94.42 C 135.94 94.31 132.76 91.61 129.52 89.51 C 119.86 82.82 110.36 75.55 103.07 66.23 C 109.20 77.52 117.63 87.32 126.43 96.60 C 127.61 98.28 130.11 100.00 129.30 102.28 C 126.08 103.12 123.12 100.98 120.41 99.54 C 115.60 96.69 111.01 93.48 106.83 89.76 C 109.77 95.46 113.13 100.95 115.73 106.82 C 110.57 107.74 106.73 103.86 103.77 100.23 C 98.06 93.83 93.15 86.77 88.30 79.71 C 85.09 74.87 83.06 69.41 80.29 64.34 C 75.80 65.97 70.99 65.65 66.30 65.88 C 66.89 71.77 69.82 77.07 72.08 82.45 C 76.50 82.16 81.00 82.11 85.29 83.41 C 82.28 83.85 79.24 84.00 76.21 84.24 C 78.91 87.24 83.51 85.54 87.03 86.34 C 83.24 87.76 79.16 87.70 75.18 87.93 C 77.85 93.93 81.40 99.51 83.70 105.69 C 77.09 102.79 71.28 98.05 67.17 92.10 C 58.07 96.25 47.78 95.60 38.04 95.21 C 35.77 94.80 31.63 94.97 31.45 91.86 C 32.52 89.70 35.09 89.14 37.14 88.30 C 45.30 85.64 53.65 83.40 62.17 82.23 C 59.66 77.14 57.83 71.73 57.24 66.07 C 56.13 69.96 55.19 74.21 52.07 77.05 C 46.75 82.03 40.35 86.13 33.21 87.84 C 34.05 82.61 36.16 77.67 39.05 73.26 C 37.07 73.42 35.10 73.56 33.13 73.71 C 32.95 78.71 30.70 83.34 27.83 87.33 C 24.63 86.31 26.30 81.68 25.80 79.06 C 24.13 81.60 22.34 84.36 19.19 85.13 C 18.34 83.39 17.52 81.62 16.72 79.85 C 11.77 84.56 6.55 89.44 0.00 91.77 L 0.00 90.96 C 0.91 88.93 2.07 87.00 3.58 85.34 C 3.51 86.07 3.39 87.51 3.32 88.23 C 7.67 84.99 12.27 82.00 15.92 77.95 C 15.55 71.61 14.79 62.72 21.75 59.60 C 22.69 57.73 23.60 55.85 24.53 53.97 C 24.13 53.00 23.72 52.03 23.31 51.07 C 22.72 49.88 21.92 48.81 21.17 47.71 C 20.36 50.45 19.55 53.20 18.65 55.91 C 15.58 63.37 13.68 71.66 8.44 77.98 C 10.48 71.49 13.95 65.55 15.84 59.01 C 17.69 54.23 17.76 48.78 20.90 44.55 C 21.70 40.47 19.35 35.67 21.97 31.93 C 23.47 33.57 24.92 35.26 26.36 36.96 C 25.97 32.68 25.46 28.36 25.77 24.05 C 25.46 22.45 27.56 21.03 28.85 22.04 C 31.75 23.52 34.09 25.85 36.28 28.23 C 37.86 22.29 40.82 16.61 45.49 12.51 C 52.02 6.45 61.25 4.28 69.95 4.54 M 82.55 3.53 L 82.51 3.73 C 80.93 4.34 79.36 5.01 77.83 5.75 C 79.18 6.10 80.54 6.43 81.91 6.75 C 82.77 7.11 83.64 7.48 84.50 7.84 C 84.59 6.24 84.68 4.64 84.78 3.05 C 84.22 3.17 83.11 3.41 82.55 3.53 M 58.10 8.60 C 51.95 9.10 49.87 15.83 48.42 20.82 C 54.10 16.34 60.83 13.53 67.44 10.73 C 68.94 10.09 70.49 9.44 71.63 8.24 C 67.37 6.35 62.50 7.91 58.10 8.60 M 73.86 7.66 C 74.28 9.91 72.27 10.98 70.80 12.17 C 64.26 14.58 57.80 17.40 51.83 21.02 C 50.57 21.94 49.33 22.87 48.09 23.81 C 45.29 25.93 41.88 26.97 38.94 28.86 C 36.56 30.55 34.30 32.43 32.39 34.66 C 29.24 39.61 27.02 45.42 27.89 51.39 C 30.68 49.67 33.84 48.88 37.09 48.78 C 39.07 49.57 41.15 50.01 43.19 50.60 C 44.55 51.23 45.88 51.92 47.25 52.52 L 48.07 52.26 L 47.71 52.44 C 50.89 54.03 51.30 57.66 51.78 60.79 C 53.55 59.67 53.33 57.13 54.99 55.95 C 57.11 55.33 59.26 54.77 61.09 53.47 C 61.44 54.11 62.15 55.38 62.50 56.02 C 64.09 55.75 64.82 54.37 65.49 53.07 C 66.32 53.54 67.14 54.01 67.97 54.48 C 69.44 53.41 69.96 51.98 69.23 50.30 C 70.76 48.71 72.70 47.28 73.40 45.10 C 73.74 42.71 73.33 40.30 72.88 37.96 C 73.37 38.32 74.35 39.03 74.84 39.38 C 73.31 40.32 75.72 43.12 76.35 41.08 C 78.27 37.61 79.18 33.64 81.19 30.26 C 82.75 30.61 83.56 32.62 84.75 33.67 C 85.82 32.15 86.92 30.64 88.06 29.17 C 90.43 31.39 91.52 34.52 93.21 37.23 C 93.88 36.29 94.54 35.34 95.14 34.35 L 95.00 33.90 C 95.89 32.50 96.80 31.11 97.81 29.80 C 97.33 25.98 96.24 22.10 94.11 18.86 C 91.32 15.60 87.85 12.95 84.16 10.80 C 80.78 9.59 77.35 8.49 73.86 7.66 M 38.84 26.64 C 41.33 24.95 44.21 24.24 47.18 24.06 C 46.71 19.66 48.43 15.55 50.10 11.59 C 44.77 15.18 40.88 20.57 38.84 26.64 M 28.46 36.51 C 30.19 34.05 32.06 31.67 34.31 29.66 C 33.13 28.30 31.94 26.95 30.72 25.61 C 29.75 24.90 28.77 24.21 27.78 23.52 C 27.37 27.87 28.03 32.20 28.46 36.51 M 85.84 36.08 C 90.42 44.46 94.12 53.38 99.92 61.04 C 102.79 63.22 105.46 65.62 107.86 68.30 C 110.34 71.77 113.78 74.38 117.01 77.11 C 123.20 81.96 129.21 87.14 135.98 91.17 C 132.34 87.42 127.96 84.44 124.47 80.53 C 117.89 74.02 112.62 66.37 106.41 59.54 C 103.07 54.82 99.33 50.33 95.87 45.68 C 94.19 42.60 91.72 40.00 90.33 36.75 C 89.51 35.62 89.48 33.36 87.59 33.53 C 87.02 34.38 86.43 35.23 85.84 36.08 M 81.84 34.31 C 81.13 37.02 79.87 39.53 78.87 42.13 C 77.13 45.44 74.50 48.19 72.88 51.55 C 76.89 49.02 79.32 44.60 83.54 42.38 C 83.90 43.56 84.39 44.68 85.02 45.73 C 86.23 50.19 88.90 54.02 90.70 58.24 C 92.35 62.16 94.36 65.91 96.25 69.72 C 99.18 75.44 101.63 81.71 106.82 85.83 C 109.88 90.92 115.37 93.65 120.15 96.84 C 122.32 98.05 124.39 99.94 127.02 99.82 C 123.25 96.09 119.49 92.36 116.01 88.35 L 115.82 88.34 C 107.13 77.69 100.36 65.68 92.90 54.21 L 92.68 54.23 C 90.00 49.79 87.55 45.21 85.62 40.39 C 84.52 38.30 83.90 35.67 81.84 34.31 M 23.13 35.52 C 23.10 41.47 23.15 48.03 26.44 53.17 C 26.62 51.40 25.67 49.78 25.56 48.04 C 25.29 45.40 26.18 42.85 26.84 40.34 C 25.62 38.73 24.39 37.12 23.13 35.52 M 79.81 48.07 C 77.27 50.97 74.42 53.70 70.83 55.25 C 68.41 56.45 65.97 57.63 63.34 58.29 C 63.98 60.30 64.61 62.32 65.23 64.33 C 67.87 63.30 69.67 61.03 71.75 59.22 C 73.66 57.33 75.69 55.52 78.08 54.24 C 79.37 56.88 80.56 59.56 81.93 62.16 C 85.77 68.88 88.45 76.28 93.36 82.37 C 96.88 87.22 100.23 92.24 104.36 96.61 C 106.60 98.92 108.39 101.82 111.39 103.26 C 110.09 98.78 106.66 95.43 104.66 91.31 C 102.22 86.44 99.42 81.77 96.98 76.90 C 95.93 74.70 94.88 72.51 93.70 70.38 C 90.99 61.70 86.18 53.93 81.85 45.99 C 81.17 46.68 80.49 47.38 79.81 48.07 M 26.00 55.97 C 23.47 58.55 22.78 62.22 22.20 65.65 C 23.53 66.70 24.85 67.77 26.02 69.01 C 27.18 71.10 29.74 71.31 31.87 71.52 C 34.59 71.65 37.45 72.03 40.05 71.00 C 42.07 69.45 43.38 67.15 45.27 65.44 C 46.88 63.67 49.42 62.43 49.68 59.80 C 49.20 58.24 49.41 56.13 48.00 55.01 C 46.31 53.84 44.33 53.20 42.40 52.54 C 42.04 52.39 41.33 52.09 40.97 51.95 C 38.94 51.25 36.87 50.68 34.81 50.09 C 31.66 51.69 28.30 53.18 26.00 55.97 M 59.18 56.25 L 59.24 56.74 C 57.45 58.93 58.41 62.01 58.52 64.58 C 59.49 74.35 64.94 82.69 69.05 91.35 C 71.92 95.39 75.52 99.04 79.98 101.30 C 76.99 95.83 74.19 90.25 71.22 84.77 C 70.75 83.72 70.28 82.67 69.79 81.63 L 69.57 81.57 C 67.85 77.28 65.90 73.07 64.70 68.59 C 63.34 64.50 62.74 60.13 60.90 56.22 C 60.47 56.22 59.61 56.24 59.18 56.25 M 55.22 57.05 C 54.63 58.57 55.02 59.04 56.38 58.46 C 56.98 56.94 56.60 56.47 55.22 57.05 M 18.82 79.81 L 18.69 80.08 C 18.99 80.82 19.60 82.31 19.90 83.05 C 22.09 79.97 24.29 76.74 25.21 73.02 C 25.78 71.58 25.14 70.24 24.38 69.05 C 22.91 68.29 21.50 67.42 20.38 66.19 C 20.71 64.74 20.89 63.27 20.91 61.78 C 16.39 66.47 17.20 74.03 18.82 79.81 M 49.27 64.24 C 44.52 68.21 40.55 73.23 37.97 78.87 C 36.63 81.01 35.94 83.47 35.05 85.81 C 40.43 83.23 45.68 80.19 50.07 76.12 C 53.81 72.80 54.92 67.58 55.43 62.83 C 55.57 62.41 55.86 61.58 56.01 61.16 C 53.58 61.71 51.15 62.53 49.27 64.24 M 27.40 84.16 C 29.55 80.92 30.69 77.19 31.96 73.56 C 30.49 73.13 29.03 72.71 27.56 72.29 C 26.86 76.17 27.38 80.21 27.40 84.16 Z" />
<path fill="#b54041" opacity="1.00" d=" M 82.55 3.53 C 83.11 3.41 84.22 3.17 84.78 3.05 C 84.68 4.64 84.59 6.24 84.50 7.84 C 83.64 7.48 82.77 7.11 81.91 6.75 C 82.06 6.00 82.36 4.48 82.51 3.73 L 82.55 3.53 Z" />
<path fill="#ffe05c" opacity="1.00" d=" M 77.83 5.75 C 79.36 5.01 80.93 4.34 82.51 3.73 C 82.36 4.48 82.06 6.00 81.91 6.75 C 80.54 6.43 79.18 6.10 77.83 5.75 Z" />
<path fill="#ffe05c" opacity="1.00" d=" M 58.10 8.60 C 62.50 7.91 67.37 6.35 71.63 8.24 C 70.49 9.44 68.94 10.09 67.44 10.73 C 60.83 13.53 54.10 16.34 48.42 20.82 C 49.87 15.83 51.95 9.10 58.10 8.60 Z" />
<path fill="#4c9e9b" opacity="1.00" d=" M 73.86 7.66 C 77.35 8.49 80.78 9.59 84.16 10.80 C 84.22 11.27 84.34 12.21 84.40 12.69 C 83.95 16.92 83.59 21.34 81.35 25.07 C 81.59 21.40 77.99 20.31 75.16 19.48 C 77.35 16.85 79.62 14.12 80.31 10.65 C 77.09 10.80 73.90 11.27 70.80 12.17 C 72.27 10.98 74.28 9.91 73.86 7.66 Z" />
<path fill="#8fcb98" opacity="1.00" d=" M 70.80 12.17 C 73.90 11.27 77.09 10.80 80.31 10.65 C 79.62 14.12 77.35 16.85 75.16 19.48 C 77.99 20.31 81.59 21.40 81.35 25.07 C 79.56 28.36 77.64 31.59 75.34 34.55 C 74.75 34.55 73.59 34.56 73.00 34.57 C 70.07 28.04 62.55 25.37 56.16 23.42 C 54.69 22.68 53.25 21.85 51.83 21.02 C 57.80 17.40 64.26 14.58 70.80 12.17 Z" />
<path fill="#d3ff7b" opacity="1.00" d=" M 84.16 10.80 C 87.85 12.95 91.32 15.60 94.11 18.86 C 96.24 22.10 97.33 25.98 97.81 29.80 C 96.80 31.11 95.89 32.50 95.00 33.90 C 93.38 28.92 92.41 23.70 90.02 19.00 C 88.73 16.43 86.38 14.68 84.40 12.69 C 84.34 12.21 84.22 11.27 84.16 10.80 Z" />
<path fill="#8fcb98" opacity="1.00" d=" M 38.84 26.64 C 40.88 20.57 44.77 15.18 50.10 11.59 C 48.43 15.55 46.71 19.66 47.18 24.06 C 44.21 24.24 41.33 24.95 38.84 26.64 Z" />
<path fill="#11387a" opacity="1.00" d=" M 84.40 12.69 C 86.38 14.68 88.73 16.43 90.02 19.00 C 92.41 23.70 93.38 28.92 95.00 33.90 L 95.14 34.35 C 94.54 35.34 93.88 36.29 93.21 37.23 C 91.52 34.52 90.43 31.39 88.06 29.17 C 86.92 30.64 85.82 32.15 84.75 33.67 C 83.56 32.62 82.75 30.61 81.19 30.26 C 79.18 33.64 78.27 37.61 76.35 41.08 C 75.98 40.65 75.22 39.81 74.84 39.38 C 74.35 39.03 73.37 38.32 72.88 37.96 C 73.69 36.81 74.50 35.67 75.34 34.55 C 77.64 31.59 79.56 28.36 81.35 25.07 C 83.59 21.34 83.95 16.92 84.40 12.69 Z" />
<path fill="#7bbd99" opacity="1.00" d=" M 48.09 23.81 C 49.33 22.87 50.57 21.94 51.83 21.02 C 53.25 21.85 54.69 22.68 56.16 23.42 C 54.31 23.44 52.51 23.91 50.78 24.54 C 53.89 24.87 57.04 24.95 60.08 25.71 C 60.22 27.41 60.36 29.11 60.50 30.82 C 59.54 31.60 58.60 32.41 57.65 33.21 C 55.38 32.90 53.10 32.66 50.82 32.59 C 51.31 31.39 51.76 30.17 52.16 28.94 C 51.29 26.90 49.50 25.46 48.09 23.81 Z" />
<path fill="#000000" opacity="1.00" d=" M 50.78 24.54 C 52.51 23.91 54.31 23.44 56.16 23.42 C 62.55 25.37 70.07 28.04 73.00 34.57 L 72.45 34.55 C 70.51 31.73 68.48 28.65 64.95 27.71 C 63.32 27.05 61.72 26.34 60.08 25.71 C 57.04 24.95 53.89 24.87 50.78 24.54 Z" />
<path fill="#306d8c" opacity="1.00" d=" M 28.46 36.51 C 28.03 32.20 27.37 27.87 27.78 23.52 C 28.15 26.26 27.44 29.58 29.79 31.60 C 30.14 29.61 30.43 27.61 30.72 25.61 C 31.94 26.95 33.13 28.30 34.31 29.66 C 32.06 31.67 30.19 34.05 28.46 36.51 Z" />
<path fill="#59948e" opacity="1.00" d=" M 27.78 23.52 C 28.77 24.21 29.75 24.90 30.72 25.61 C 30.43 27.61 30.14 29.61 29.79 31.60 C 27.44 29.58 28.15 26.26 27.78 23.52 Z" />
<path fill="#d3ff7b" opacity="1.00" d=" M 38.94 28.86 C 41.88 26.97 45.29 25.93 48.09 23.81 C 49.50 25.46 51.29 26.90 52.16 28.94 C 51.76 30.17 51.31 31.39 50.82 32.59 C 46.34 33.54 42.95 30.10 38.94 28.86 Z" />
<path fill="#5aa79b" opacity="1.00" d=" M 60.08 25.71 C 61.72 26.34 63.32 27.05 64.95 27.71 C 65.97 29.41 67.09 31.05 68.02 32.80 C 66.70 34.13 65.39 35.47 64.12 36.84 C 61.96 35.62 59.86 34.30 57.65 33.21 C 58.60 32.41 59.54 31.60 60.50 30.82 C 60.36 29.11 60.22 27.41 60.08 25.71 Z" />
<path fill="#8fcb98" opacity="1.00" d=" M 32.39 34.66 C 34.30 32.43 36.56 30.55 38.94 28.86 C 42.95 30.10 46.34 33.54 50.82 32.59 C 53.10 32.66 55.38 32.90 57.65 33.21 C 59.86 34.30 61.96 35.62 64.12 36.84 L 64.29 37.88 C 64.23 38.39 64.12 39.40 64.06 39.91 C 57.32 43.86 50.37 47.52 43.19 50.60 C 41.15 50.01 39.07 49.57 37.09 48.78 C 36.51 48.35 35.95 47.90 35.38 47.45 C 36.80 45.78 38.51 44.13 38.61 41.79 C 39.18 41.76 40.32 41.70 40.90 41.67 C 41.35 42.03 42.27 42.75 42.72 43.11 C 42.33 42.70 41.53 41.88 41.14 41.47 C 43.44 40.50 45.95 38.77 45.93 35.97 C 46.15 33.79 44.15 31.99 42.02 32.16 C 39.36 32.48 37.16 34.35 36.03 36.71 C 34.81 36.03 33.60 35.35 32.39 34.66 Z" />
<path fill="#d9ff7f" opacity="1.00" d=" M 64.95 27.71 C 68.48 28.65 70.51 31.73 72.45 34.55 C 72.45 36.88 72.19 39.19 71.82 41.49 C 71.43 40.76 70.65 39.30 70.26 38.58 C 69.44 36.68 68.80 34.71 68.02 32.80 C 67.09 31.05 65.97 29.41 64.95 27.71 Z" />
<path fill="#000000" opacity="1.00" d=" M 36.03 36.71 C 37.16 34.35 39.36 32.48 42.02 32.16 C 44.15 31.99 46.15 33.79 45.93 35.97 C 45.95 38.77 43.44 40.50 41.14 41.47 C 41.53 41.88 42.33 42.70 42.72 43.11 C 42.27 42.75 41.35 42.03 40.90 41.67 C 40.32 41.70 39.18 41.76 38.61 41.79 C 36.82 40.63 35.82 38.90 36.03 36.71 M 37.38 38.91 C 40.23 43.17 46.71 35.61 42.12 33.27 C 39.96 34.30 36.20 35.86 37.38 38.91 Z" />
<path fill="#3e939c" opacity="1.00" d=" M 64.12 36.84 C 65.39 35.47 66.70 34.13 68.02 32.80 C 68.80 34.71 69.44 36.68 70.26 38.58 C 68.49 40.04 66.78 41.58 65.19 43.24 C 64.91 41.45 64.60 39.66 64.29 37.88 L 64.12 36.84 Z" />
<path fill="#ffe05c" opacity="1.00" d=" M 37.38 38.91 C 36.20 35.86 39.96 34.30 42.12 33.27 C 46.71 35.61 40.23 43.17 37.38 38.91 Z" />
<path fill="#247b99" opacity="1.00" d=" M 73.00 34.57 C 73.59 34.56 74.75 34.55 75.34 34.55 C 74.50 35.67 73.69 36.81 72.88 37.96 C 73.33 40.30 73.74 42.71 73.40 45.10 C 72.70 47.28 70.76 48.71 69.23 50.30 C 69.96 51.98 69.44 53.41 67.97 54.48 C 67.14 54.01 66.32 53.54 65.49 53.07 C 64.82 54.37 64.09 55.75 62.50 56.02 C 62.15 55.38 61.44 54.11 61.09 53.47 C 59.26 54.77 57.11 55.33 54.99 55.95 C 53.33 57.13 53.55 59.67 51.78 60.79 C 51.30 57.66 50.89 54.03 47.71 52.44 L 48.07 52.26 C 53.76 50.19 59.91 48.68 64.26 44.16 C 66.97 43.86 69.51 42.90 71.82 41.49 C 72.19 39.19 72.45 36.88 72.45 34.55 L 73.00 34.57 Z" />
<path fill="#277e99" opacity="1.00" d=" M 85.84 36.08 C 86.43 35.23 87.02 34.38 87.59 33.53 C 88.39 39.23 91.79 44.25 95.79 48.24 C 95.81 47.60 95.85 46.32 95.87 45.68 C 99.33 50.33 103.07 54.82 106.41 59.54 C 106.57 62.50 106.85 65.48 107.86 68.30 C 105.46 65.62 102.79 63.22 99.92 61.04 C 94.12 53.38 90.42 44.46 85.84 36.08 Z" />
<path fill="#7bbd99" opacity="1.00" d=" M 87.59 33.53 C 89.48 33.36 89.51 35.62 90.33 36.75 C 91.72 40.00 94.19 42.60 95.87 45.68 C 95.85 46.32 95.81 47.60 95.79 48.24 C 91.79 44.25 88.39 39.23 87.59 33.53 Z" />
<path fill="#80c199" opacity="1.00" d=" M 27.89 51.39 C 27.02 45.42 29.24 39.61 32.39 34.66 C 33.60 35.35 34.81 36.03 36.03 36.71 C 35.82 38.90 36.82 40.63 38.61 41.79 C 38.51 44.13 36.80 45.78 35.38 47.45 C 35.95 47.90 36.51 48.35 37.09 48.78 C 33.84 48.88 30.68 49.67 27.89 51.39 Z" />
<path fill="#7bbd99" opacity="1.00" d=" M 81.84 34.31 C 83.90 35.67 84.52 38.30 85.62 40.39 C 87.55 45.21 90.00 49.79 92.68 54.23 C 92.19 54.29 91.20 54.40 90.71 54.46 C 88.79 51.56 86.94 48.63 85.02 45.73 C 84.39 44.68 83.90 43.56 83.54 42.38 C 83.22 41.46 82.90 40.53 82.58 39.61 C 81.44 41.09 80.26 42.53 79.13 44.01 C 79.06 43.54 78.94 42.60 78.87 42.13 C 79.87 39.53 81.13 37.02 81.84 34.31 Z" />
<path fill="#659f97" opacity="1.00" d=" M 23.13 35.52 C 24.39 37.12 25.62 38.73 26.84 40.34 C 26.18 42.85 25.29 45.40 25.56 48.04 C 25.67 49.78 26.62 51.40 26.44 53.17 C 23.15 48.03 23.10 41.47 23.13 35.52 Z" />
<path fill="#53a29b" opacity="1.00" d=" M 64.29 37.88 C 64.60 39.66 64.91 41.45 65.19 43.24 L 64.26 44.16 C 59.91 48.68 53.76 50.19 48.07 52.26 L 47.25 52.52 C 45.88 51.92 44.55 51.23 43.19 50.60 C 50.37 47.52 57.32 43.86 64.06 39.91 C 64.12 39.40 64.23 38.39 64.29 37.88 Z" />
<path fill="#184e83" opacity="1.00" d=" M 65.19 43.24 C 66.78 41.58 68.49 40.04 70.26 38.58 C 70.65 39.30 71.43 40.76 71.82 41.49 C 69.51 42.90 66.97 43.86 64.26 44.16 L 65.19 43.24 Z" />
<path fill="#1b6291" opacity="1.00" d=" M 74.84 39.38 C 75.22 39.81 75.98 40.65 76.35 41.08 C 75.72 43.12 73.31 40.32 74.84 39.38 Z" />
<path fill="#247b99" opacity="1.00" d=" M 79.13 44.01 C 80.26 42.53 81.44 41.09 82.58 39.61 C 82.90 40.53 83.22 41.46 83.54 42.38 C 79.32 44.60 76.89 49.02 72.88 51.55 C 74.50 48.19 77.13 45.44 78.87 42.13 C 78.94 42.60 79.06 43.54 79.13 44.01 Z" />
<path fill="#78b998" opacity="1.00" d=" M 79.81 48.07 C 80.49 47.38 81.17 46.68 81.85 45.99 C 86.18 53.93 90.99 61.70 93.70 70.38 C 92.64 70.75 91.66 71.56 90.49 71.54 C 88.76 70.25 87.65 68.35 86.52 66.56 C 83.16 60.89 80.44 54.70 79.81 48.07 Z" />
<path fill="#378196" opacity="1.00" d=" M 85.02 45.73 C 86.94 48.63 88.79 51.56 90.71 54.46 C 91.20 54.40 92.19 54.29 92.68 54.23 L 92.90 54.21 C 100.36 65.68 107.13 77.69 115.82 88.34 C 112.65 88.27 109.69 87.03 106.82 85.83 C 101.63 81.71 99.18 75.44 96.25 69.72 C 94.36 65.91 92.35 62.16 90.70 58.24 C 88.90 54.02 86.23 50.19 85.02 45.73 Z" />
<path fill="#66a094" opacity="1.00" d=" M 21.17 47.71 C 21.92 48.81 22.72 49.88 23.31 51.07 C 23.25 53.96 20.59 55.64 18.79 57.52 L 18.65 55.91 C 19.55 53.20 20.36 50.45 21.17 47.71 Z" />
<path fill="#2f7d96" opacity="1.00" d=" M 70.83 55.25 C 74.42 53.70 77.27 50.97 79.81 48.07 C 80.44 54.70 83.16 60.89 86.52 66.56 C 87.65 68.35 88.76 70.25 90.49 71.54 C 91.66 71.56 92.64 70.75 93.70 70.38 C 94.88 72.51 95.93 74.70 96.98 76.90 C 96.31 77.03 94.96 77.28 94.29 77.41 C 93.98 79.07 93.67 80.72 93.36 82.37 C 88.45 76.28 85.77 68.88 81.93 62.16 C 80.56 59.56 79.37 56.88 78.08 54.24 C 75.69 55.52 73.66 57.33 71.75 59.22 C 71.43 58.83 70.80 58.05 70.48 57.65 C 70.60 56.85 70.71 56.05 70.83 55.25 Z" />
<path fill="#3a6985" opacity="1.00" d=" M 23.31 51.07 C 23.72 52.03 24.13 53.00 24.53 53.97 C 23.60 55.85 22.69 57.73 21.75 59.60 C 14.79 62.72 15.55 71.61 15.92 77.95 C 12.27 82.00 7.67 84.99 3.32 88.23 C 3.39 87.51 3.51 86.07 3.58 85.34 C 3.98 84.90 4.41 84.48 4.85 84.08 C 6.92 83.13 8.07 81.08 8.20 78.86 C 8.26 78.64 8.38 78.20 8.44 77.98 C 13.68 71.66 15.58 63.37 18.65 55.91 L 18.79 57.52 C 20.59 55.64 23.25 53.96 23.31 51.07 Z" />
<path fill="#86c598" opacity="1.00" d=" M 26.00 55.97 C 28.30 53.18 31.66 51.69 34.81 50.09 C 36.87 50.68 38.94 51.25 40.97 51.95 C 42.19 53.97 43.04 56.18 43.84 58.40 C 42.56 58.51 41.27 58.65 39.99 58.80 C 37.36 60.96 33.72 63.41 34.42 67.34 C 32.97 70.70 28.77 69.12 26.02 69.01 C 24.85 67.77 23.53 66.70 22.20 65.65 C 22.78 62.22 23.47 58.55 26.00 55.97 M 29.65 54.67 C 26.94 56.01 25.53 59.18 25.73 62.13 C 29.53 65.19 34.27 61.24 33.97 56.98 C 34.16 54.72 31.39 53.68 29.65 54.67 Z" />
<path fill="#2f8ca1" opacity="1.00" d=" M 40.97 51.95 C 41.33 52.09 42.04 52.39 42.40 52.54 C 43.30 56.13 46.24 58.67 49.68 59.80 C 49.42 62.43 46.88 63.67 45.27 65.44 C 43.38 67.15 42.07 69.45 40.05 71.00 C 37.45 72.03 34.59 71.65 31.87 71.52 C 29.74 71.31 27.18 71.10 26.02 69.01 C 28.77 69.12 32.97 70.70 34.42 67.34 C 38.41 71.48 45.90 66.09 45.12 60.99 C 44.59 58.69 41.86 58.73 39.99 58.80 C 41.27 58.65 42.56 58.51 43.84 58.40 C 43.04 56.18 42.19 53.97 40.97 51.95 Z" />
<path fill="#d9ff7f" opacity="1.00" d=" M 42.40 52.54 C 44.33 53.20 46.31 53.84 48.00 55.01 C 49.41 56.13 49.20 58.24 49.68 59.80 C 46.24 58.67 43.30 56.13 42.40 52.54 Z" />
<path fill="#000000" opacity="1.00" d=" M 29.65 54.67 C 31.39 53.68 34.16 54.72 33.97 56.98 C 34.27 61.24 29.53 65.19 25.73 62.13 C 25.53 59.18 26.94 56.01 29.65 54.67 M 26.85 61.27 C 30.03 62.88 32.42 59.74 32.53 56.81 C 31.90 56.50 30.64 55.88 30.01 55.56 C 28.41 57.13 27.34 59.08 26.85 61.27 Z" />
<path fill="#13407d" opacity="1.00" d=" M 63.34 58.29 C 65.97 57.63 68.41 56.45 70.83 55.25 C 70.71 56.05 70.60 56.85 70.48 57.65 C 70.80 58.05 71.43 58.83 71.75 59.22 C 69.67 61.03 67.87 63.30 65.23 64.33 C 64.61 62.32 63.98 60.30 63.34 58.29 Z" />
<path fill="#fbd45b" opacity="1.00" d=" M 26.85 61.27 C 27.34 59.08 28.41 57.13 30.01 55.56 C 30.64 55.88 31.90 56.50 32.53 56.81 C 32.42 59.74 30.03 62.88 26.85 61.27 Z" />
<path fill="#79bb99" opacity="1.00" d=" M 59.18 56.25 C 59.61 56.24 60.47 56.22 60.90 56.22 C 62.74 60.13 63.34 64.50 64.70 68.59 C 63.73 68.67 61.80 68.81 60.83 68.88 C 60.24 64.84 59.81 60.78 59.24 56.74 L 59.18 56.25 Z" />
<path fill="#477368" opacity="1.00" d=" M 55.22 57.05 C 56.60 56.47 56.98 56.94 56.38 58.46 C 55.02 59.04 54.63 58.57 55.22 57.05 Z" />
<path fill="#306d8c" opacity="1.00" d=" M 58.52 64.58 C 58.41 62.01 57.45 58.93 59.24 56.74 C 59.81 60.78 60.24 64.84 60.83 68.88 C 62.09 72.75 63.96 76.44 66.26 79.79 C 66.92 81.05 68.36 81.22 69.57 81.57 L 69.79 81.63 C 70.28 82.67 70.75 83.72 71.22 84.77 C 70.46 86.95 69.75 89.15 69.05 91.35 C 64.94 82.69 59.49 74.35 58.52 64.58 Z" />
<path fill="#000000" opacity="1.00" d=" M 34.42 67.34 C 33.72 63.41 37.36 60.96 39.99 58.80 C 41.86 58.73 44.59 58.69 45.12 60.99 C 45.90 66.09 38.41 71.48 34.42 67.34 M 35.92 67.16 C 36.68 67.17 38.20 67.21 38.96 67.23 C 41.54 66.63 45.82 62.35 41.65 60.94 C 38.27 60.43 34.86 63.80 35.92 67.16 Z" />
<path fill="#478b93" opacity="1.00" d=" M 107.86 68.30 C 106.85 65.48 106.57 62.50 106.41 59.54 C 112.62 66.37 117.89 74.02 124.47 80.53 C 127.96 84.44 132.34 87.42 135.98 91.17 C 129.21 87.14 123.20 81.96 117.01 77.11 C 113.78 74.38 110.34 71.77 107.86 68.30 Z" />
<path fill="#ffe05c" opacity="1.00" d=" M 35.92 67.16 C 34.86 63.80 38.27 60.43 41.65 60.94 C 41.65 63.37 40.55 65.46 38.96 67.23 C 38.20 67.21 36.68 67.17 35.92 67.16 Z" />
<path fill="#b54041" opacity="1.00" d=" M 41.65 60.94 C 45.82 62.35 41.54 66.63 38.96 67.23 C 40.55 65.46 41.65 63.37 41.65 60.94 Z" />
<path fill="#ffe05c" opacity="1.00" d=" M 18.82 79.81 C 17.20 74.03 16.39 66.47 20.91 61.78 C 20.89 63.27 20.71 64.74 20.38 66.19 C 21.50 67.42 22.91 68.29 24.38 69.05 C 22.52 72.63 20.70 76.24 18.82 79.81 Z" />
<path fill="#ffe05c" opacity="1.00" d=" M 49.27 64.24 C 51.15 62.53 53.58 61.71 56.01 61.16 C 55.86 61.58 55.57 62.41 55.43 62.83 C 49.59 68.16 44.10 73.86 37.97 78.87 C 40.55 73.23 44.52 68.21 49.27 64.24 Z" />
<path fill="#b54041" opacity="1.00" d=" M 37.97 78.87 C 44.10 73.86 49.59 68.16 55.43 62.83 C 54.92 67.58 53.81 72.80 50.07 76.12 C 45.68 80.19 40.43 83.23 35.05 85.81 C 35.94 83.47 36.63 81.01 37.97 78.87 Z" />
<path fill="#af4140" opacity="1.00" d=" M 24.38 69.05 C 25.14 70.24 25.78 71.58 25.21 73.02 C 24.29 76.74 22.09 79.97 19.90 83.05 C 19.60 82.31 18.99 80.82 18.69 80.08 L 18.82 79.81 C 20.70 76.24 22.52 72.63 24.38 69.05 Z" />
<path fill="#5f9b91" opacity="1.00" d=" M 60.83 68.88 C 61.80 68.81 63.73 68.67 64.70 68.59 C 65.90 73.07 67.85 77.28 69.57 81.57 C 68.36 81.22 66.92 81.05 66.26 79.79 C 63.96 76.44 62.09 72.75 60.83 68.88 Z" />
<path fill="#173f7f" opacity="1.00" d=" M 27.40 84.16 C 27.38 80.21 26.86 76.17 27.56 72.29 C 29.03 72.71 30.49 73.13 31.96 73.56 C 30.69 77.19 29.55 80.92 27.40 84.16 Z" />
<path fill="#4a848d" opacity="1.00" d=" M 94.29 77.41 C 94.96 77.28 96.31 77.03 96.98 76.90 C 99.42 81.77 102.22 86.44 104.66 91.31 C 106.66 95.43 110.09 98.78 111.39 103.26 C 108.39 101.82 106.60 98.92 104.36 96.61 C 100.23 92.24 96.88 87.22 93.36 82.37 C 93.67 80.72 93.98 79.07 94.29 77.41 Z" />
<path fill="#060a0d" opacity="0.80" d=" M 4.85 84.08 C 5.03 81.97 6.18 79.73 8.20 78.86 C 8.07 81.08 6.92 83.13 4.85 84.08 Z" />
<path fill="#1b497f" opacity="1.00" d=" M 71.22 84.77 C 74.19 90.25 76.99 95.83 79.98 101.30 C 75.52 99.04 71.92 95.39 69.05 91.35 C 69.75 89.15 70.46 86.95 71.22 84.77 Z" />
<path fill="#295680" opacity="1.00" d=" M 106.82 85.83 C 109.69 87.03 112.65 88.27 115.82 88.34 L 116.01 88.35 C 119.49 92.36 123.25 96.09 127.02 99.82 C 124.39 99.94 122.32 98.05 120.15 96.84 C 115.37 93.65 109.88 90.92 106.82 85.83 Z" />
</svg>
