<?xml version="1.0" encoding="UTF-8" ?>
<!DOCTYPE svg PUBLIC "-//W3C//DTD SVG 1.1//EN" "http://www.w3.org/Graphics/SVG/1.1/DTD/svg11.dtd">
<svg width="465pt" height="382pt" viewBox="0 0 465 382" version="1.1" xmlns="http://www.w3.org/2000/svg">
<path fill="#000000" opacity="1.00" d=" M 180.95 2.10 C 187.48 0.34 194.31 0.10 201.03 0.22 C 212.77 0.48 224.46 1.63 236.14 2.79 C 247.98 3.93 259.20 8.31 270.95 10.02 C 278.78 11.27 285.72 15.25 293.02 18.08 C 299.81 23.19 304.95 30.20 309.95 37.00 C 310.58 37.90 311.45 38.45 312.57 38.64 C 339.20 46.48 364.98 57.28 389.25 70.77 C 396.54 74.93 403.98 79.05 410.12 84.86 C 413.84 87.77 417.47 90.94 419.86 95.09 C 423.46 101.33 426.11 108.07 429.82 114.25 C 431.12 116.52 432.46 119.33 431.06 121.89 C 428.26 127.27 424.43 132.03 421.17 137.13 C 418.46 141.17 415.92 145.40 412.27 148.67 C 415.19 151.94 419.23 155.21 419.23 159.99 C 419.02 164.49 414.93 167.26 411.27 169.05 C 428.06 182.32 446.86 193.64 460.36 210.58 C 463.98 215.08 466.75 221.81 462.91 227.04 C 457.43 234.44 448.87 238.64 440.99 243.00 C 422.12 252.33 402.05 259.13 381.72 264.48 C 381.16 273.15 377.71 281.27 373.87 288.95 C 370.55 295.34 366.78 301.60 361.84 306.87 C 359.91 309.06 356.87 309.58 354.09 309.34 C 343.52 308.62 333.15 306.16 322.93 303.47 C 313.71 300.91 304.47 298.26 295.71 294.37 C 291.81 297.22 288.58 300.84 284.82 303.86 C 282.88 305.57 280.20 304.69 278.03 304.02 C 272.92 302.27 267.74 300.75 262.74 298.71 C 266.19 302.15 263.34 306.57 261.54 310.06 C 263.89 314.11 266.75 317.86 268.98 322.00 C 269.87 323.44 270.61 325.08 271.98 326.16 C 276.78 328.37 282.23 328.68 287.05 330.82 C 289.86 333.02 287.94 337.12 288.02 340.13 C 292.12 344.98 296.98 349.12 301.95 353.04 C 306.26 356.25 310.81 359.49 316.15 360.65 C 321.78 361.68 327.35 363.08 333.00 364.06 C 335.11 364.25 336.61 365.99 337.10 367.96 C 331.43 369.06 325.85 370.82 320.03 370.84 C 313.36 371.29 306.71 370.09 300.05 370.69 C 293.63 371.14 287.05 370.37 281.09 367.85 C 277.65 366.30 273.53 366.85 270.36 364.61 C 268.47 363.24 266.16 362.79 263.89 362.58 C 266.66 366.55 271.98 367.25 274.96 370.97 C 277.11 373.17 277.83 376.38 277.43 379.38 C 265.83 376.15 253.63 376.13 242.02 372.96 C 238.51 371.97 234.87 371.51 231.39 370.46 C 228.83 369.37 228.82 366.28 228.88 363.94 C 222.98 360.39 216.28 363.47 209.96 363.51 C 205.32 365.03 200.48 365.56 195.64 365.99 C 195.78 368.79 196.28 372.79 192.95 374.00 C 186.19 376.20 178.97 376.53 172.03 378.02 C 160.48 380.34 148.67 380.65 136.98 381.84 C 137.47 379.32 140.07 378.25 142.04 377.08 C 150.37 373.04 158.92 369.46 167.67 366.43 C 170.22 365.70 171.65 363.33 173.09 361.31 C 168.09 360.66 163.72 363.45 159.10 364.77 C 157.30 364.51 156.45 362.66 155.27 361.51 C 153.67 359.56 151.29 358.57 149.04 357.58 C 144.03 361.06 137.69 360.37 131.94 361.14 C 123.61 361.63 115.42 363.45 107.07 363.77 C 99.33 363.99 91.57 364.26 83.83 364.12 C 83.47 363.85 82.75 363.29 82.39 363.01 C 84.62 359.62 88.82 358.22 92.35 356.55 C 102.96 353.57 113.91 352.03 124.65 349.61 C 127.62 344.75 130.73 339.98 133.71 335.13 C 131.96 332.40 129.91 329.44 130.15 326.04 C 131.00 323.31 134.32 322.93 136.57 321.86 C 135.58 311.65 135.04 301.25 136.51 291.06 C 137.05 289.78 136.85 287.45 138.46 287.08 C 143.74 293.71 149.41 300.06 154.35 306.96 C 155.30 305.71 156.78 304.68 157.09 303.06 C 157.07 300.98 156.83 298.92 156.70 296.85 C 160.19 294.77 162.82 291.43 164.67 287.88 C 165.49 284.10 165.14 280.21 165.23 276.38 C 161.01 279.89 156.86 283.59 152.03 286.23 C 150.92 286.68 148.88 287.68 148.32 285.96 C 149.52 282.16 152.64 279.29 154.66 275.90 C 138.89 282.47 121.93 286.01 104.92 287.21 C 100.86 287.28 95.84 287.65 93.05 284.07 C 89.50 279.70 87.17 274.52 84.44 269.64 C 79.99 260.97 75.45 252.34 71.57 243.39 C 70.78 242.04 71.15 240.51 71.29 239.05 C 66.98 238.81 63.02 237.02 58.95 235.79 C 43.49 232.07 28.29 226.57 14.62 218.35 C 7.50 213.91 -0.31 207.28 0.23 198.03 C 1.26 187.73 9.03 179.93 15.97 172.95 C 33.30 156.52 52.97 142.60 73.93 131.20 C 70.82 125.03 67.99 118.66 66.08 112.02 C 64.27 105.67 68.02 99.56 72.06 94.98 C 82.20 83.93 94.80 75.42 107.79 68.06 C 106.67 63.84 105.79 59.36 106.88 55.02 C 107.73 51.34 110.71 48.76 113.29 46.22 C 125.40 34.42 139.02 24.24 153.43 15.42 C 162.16 10.16 171.24 5.31 180.95 2.10 M 187.99 4.65 L 188.50 4.70 C 187.96 4.94 186.90 5.42 186.37 5.66 C 169.60 10.14 154.75 19.72 140.55 29.40 L 140.29 29.90 C 132.41 34.43 125.66 40.68 118.64 46.41 C 118.23 46.96 117.80 47.50 117.44 48.09 C 114.24 50.56 110.32 53.88 111.08 58.43 C 110.48 63.16 111.36 67.93 112.65 72.48 C 113.03 73.78 112.94 75.06 112.36 76.32 C 111.53 75.11 110.67 73.92 109.78 72.75 C 107.73 74.55 105.53 76.16 103.17 77.52 C 101.63 78.49 100.11 79.49 98.60 80.50 C 90.54 85.99 82.67 91.89 76.04 99.09 C 73.66 102.04 71.35 105.30 71.19 109.23 C 71.98 112.27 73.00 115.24 74.22 118.13 C 75.61 121.67 77.07 125.19 78.78 128.59 C 80.45 127.78 82.13 126.97 83.82 126.18 C 79.50 129.89 74.84 133.20 70.78 137.20 C 69.89 137.79 69.09 138.49 68.39 139.31 C 63.69 142.74 59.28 146.59 54.70 150.19 C 48.42 153.80 42.72 158.41 37.01 162.87 C 31.72 166.85 26.76 171.25 21.86 175.69 C 15.18 182.18 7.82 189.19 6.03 198.75 C 6.49 200.62 7.06 202.46 7.72 204.27 C 8.52 205.22 9.30 206.18 10.08 207.14 C 18.40 215.34 29.71 219.08 39.91 224.24 C 54.06 230.42 68.48 235.96 83.20 240.60 C 80.86 240.68 78.52 240.51 76.20 240.24 C 80.44 249.14 84.71 258.03 89.30 266.76 C 91.96 271.73 94.44 276.85 97.95 281.30 C 104.64 282.15 111.36 281.12 117.98 280.17 C 131.02 278.08 144.06 274.94 155.91 268.96 C 158.67 267.34 161.42 265.13 162.53 262.03 C 164.46 256.89 165.84 251.45 165.32 245.92 C 162.97 243.73 159.70 242.04 158.46 238.97 C 159.45 235.84 163.01 234.59 165.86 233.66 C 164.01 229.16 163.97 224.20 164.68 219.46 C 162.60 217.73 160.31 216.17 158.68 213.97 C 157.80 210.73 161.88 210.15 164.06 209.57 C 163.69 205.35 163.28 201.13 163.13 196.89 C 158.73 196.91 154.29 196.83 149.99 195.80 C 145.32 194.97 140.69 193.86 135.95 193.47 C 130.81 193.00 125.87 191.08 120.74 190.79 C 116.40 189.49 111.58 188.87 108.01 185.84 C 107.96 183.56 110.53 184.22 112.02 184.15 C 119.03 184.61 125.99 183.32 133.00 183.48 C 140.02 183.50 147.04 184.13 154.05 183.57 C 155.31 183.15 156.57 182.73 157.83 182.31 C 157.03 179.85 156.16 177.40 155.69 174.84 C 156.65 171.14 160.56 174.02 162.29 175.49 C 164.10 168.82 163.55 161.87 164.47 155.09 C 165.11 141.91 168.17 128.99 172.08 116.43 L 171.96 115.90 C 173.50 110.99 174.50 105.83 177.44 101.50 C 177.42 107.88 176.63 114.57 178.95 120.67 L 178.84 121.06 C 178.37 131.78 178.16 143.18 183.27 152.94 C 187.29 152.24 192.12 149.73 195.73 152.78 C 195.50 154.82 195.32 156.86 195.14 158.90 C 198.14 158.76 201.95 157.22 204.45 159.44 C 205.06 162.40 204.91 165.79 207.57 167.81 C 209.88 166.56 212.21 165.38 214.55 164.20 C 213.80 160.95 211.96 157.76 212.43 154.35 C 213.59 151.25 215.81 148.72 217.58 145.97 C 223.70 137.85 230.28 130.00 238.13 123.54 C 245.03 118.16 253.31 115.29 261.31 112.00 C 256.99 116.67 254.75 122.74 250.73 127.62 C 245.90 134.13 241.49 141.05 238.55 148.63 C 237.63 151.31 234.18 152.38 234.07 155.41 C 240.34 156.78 246.58 158.43 252.53 160.87 C 253.35 161.54 254.17 162.21 254.98 162.90 C 253.89 167.39 247.98 167.31 246.02 170.74 C 250.47 170.11 254.96 169.76 259.44 169.43 C 263.39 169.33 267.44 168.68 271.33 169.61 C 271.63 169.95 272.25 170.64 272.55 170.99 C 272.46 174.27 268.82 175.88 266.93 178.17 C 275.94 178.78 284.44 175.15 293.38 175.13 C 297.02 176.41 300.92 176.93 304.39 178.64 C 307.71 180.74 310.78 183.21 314.02 185.42 C 309.04 184.80 304.00 183.98 298.99 184.80 C 292.03 185.66 285.89 189.38 279.09 190.86 C 273.49 192.42 267.66 191.65 261.94 192.00 C 261.38 193.70 261.00 195.50 260.06 197.05 C 258.56 198.70 256.19 198.05 254.24 198.12 C 253.34 215.17 252.72 232.32 254.35 249.35 C 254.33 262.46 255.84 275.52 256.69 288.60 C 257.51 291.69 260.86 292.41 263.43 293.52 C 269.61 295.58 275.69 297.98 282.04 299.49 C 284.88 296.81 287.76 294.16 290.82 291.73 C 290.56 290.94 290.31 290.15 290.06 289.37 C 290.84 289.22 292.39 288.93 293.17 288.78 L 293.90 289.16 C 294.62 289.24 296.06 289.41 296.78 289.50 C 308.20 293.75 319.82 297.49 331.68 300.30 C 336.51 301.33 341.35 302.84 346.29 303.07 C 349.81 303.70 353.40 304.42 356.99 304.07 C 359.89 301.91 361.81 298.75 363.86 295.83 C 368.54 288.54 372.50 280.70 374.91 272.37 L 375.06 272.32 C 375.32 271.12 375.58 269.92 375.83 268.71 L 376.02 268.66 C 376.16 267.86 376.44 266.26 376.58 265.46 C 374.48 265.75 372.39 266.06 370.30 266.33 C 370.32 266.16 370.38 265.81 370.41 265.64 C 379.63 262.30 388.71 258.58 397.75 254.78 C 403.36 252.53 409.19 250.86 414.83 248.66 L 414.55 248.51 C 425.34 245.04 435.73 240.25 445.54 234.57 C 450.33 231.53 455.58 228.60 458.77 223.74 C 460.26 221.65 459.17 219.18 458.44 217.05 C 455.52 212.36 451.66 208.40 447.77 204.52 C 445.50 202.38 443.21 200.27 440.88 198.21 C 437.68 195.52 434.43 192.90 431.15 190.31 C 427.13 187.10 422.76 184.35 418.85 180.99 C 418.60 180.90 418.09 180.71 417.84 180.62 C 415.92 178.92 413.83 177.42 411.76 175.91 C 409.32 173.14 404.56 171.40 404.66 167.17 C 406.71 165.33 409.57 164.75 411.98 163.48 L 412.19 163.48 C 413.59 162.09 416.15 160.34 414.81 158.07 C 412.54 153.97 409.88 150.08 408.01 145.76 C 411.95 142.59 414.43 138.13 417.15 133.98 C 420.29 129.02 424.29 124.47 426.58 119.06 C 425.29 116.17 423.61 113.49 422.19 110.67 C 418.82 104.18 416.44 97.05 411.66 91.40 C 409.18 88.31 405.66 86.39 402.55 84.05 C 379.46 69.38 354.44 57.85 328.68 48.72 C 324.56 47.26 320.43 45.88 316.26 44.58 C 313.77 43.69 310.74 43.36 309.11 41.03 C 304.44 35.07 298.99 29.74 293.27 24.81 C 286.23 20.23 278.33 17.11 270.32 14.71 C 261.06 12.12 251.65 10.08 242.33 7.73 C 224.39 4.87 206.14 3.15 187.99 4.65 M 241.09 127.14 C 232.66 133.33 226.38 141.81 220.08 150.03 C 218.82 151.90 217.12 153.65 216.61 155.90 C 217.08 158.90 218.39 161.92 217.58 164.98 C 217.16 166.53 215.48 167.12 214.35 168.04 L 214.37 168.10 C 212.68 168.74 211.00 169.41 209.33 170.12 C 209.29 171.53 209.24 172.95 209.16 174.37 C 205.45 171.37 202.23 167.28 201.45 162.45 C 198.92 162.79 196.39 163.34 193.82 163.32 C 190.22 162.17 192.02 157.84 192.23 155.17 C 188.65 155.11 185.13 157.20 181.62 156.35 C 179.73 154.40 179.02 151.63 177.74 149.28 C 176.48 144.59 175.57 139.82 174.91 135.01 C 174.24 130.26 175.00 125.45 174.57 120.68 C 171.94 128.87 169.03 137.11 169.18 145.85 C 167.95 157.27 169.33 169.25 165.06 180.15 C 162.30 179.88 160.62 177.62 158.75 175.88 C 159.32 178.71 160.10 181.49 161.17 184.18 C 157.20 186.44 152.57 187.36 148.03 187.24 C 139.37 186.92 130.65 186.07 122.00 187.11 C 128.92 188.63 135.89 189.87 142.93 190.65 C 149.76 192.11 156.66 193.66 163.70 193.23 L 164.72 193.06 C 165.71 193.53 167.83 193.32 167.72 194.98 C 167.40 197.88 167.54 200.79 168.05 203.67 C 167.94 207.12 169.95 213.16 164.95 213.91 C 167.65 216.94 171.77 218.50 173.75 222.20 C 177.18 227.76 179.61 235.10 177.09 241.43 C 173.21 240.56 169.27 239.03 166.81 235.74 C 165.64 236.87 164.46 237.98 163.27 239.08 C 165.03 241.15 166.66 243.35 168.43 245.43 C 169.90 252.11 167.17 258.42 165.27 264.68 C 163.51 269.05 160.78 272.90 158.46 276.97 C 162.78 273.79 166.35 269.68 170.80 266.68 C 172.53 265.59 173.54 267.63 174.44 268.76 C 177.75 269.28 180.66 266.94 183.97 267.45 C 187.20 267.65 191.66 267.63 192.43 271.65 C 194.60 270.52 196.61 268.93 199.04 268.39 C 201.25 271.40 200.85 275.57 201.78 279.09 C 205.60 275.07 208.39 270.18 212.47 266.41 C 212.92 265.94 213.81 265.01 214.26 264.54 C 218.88 264.77 223.60 265.77 228.17 264.61 C 229.89 265.44 231.46 266.51 232.92 267.74 L 232.65 267.89 C 233.02 269.98 232.91 272.24 233.74 274.22 C 234.90 274.54 236.08 274.82 237.28 275.05 C 237.28 276.73 237.37 278.42 237.14 280.10 C 236.63 282.47 233.85 283.60 233.64 286.09 C 234.29 286.93 235.00 287.70 235.79 288.42 C 239.10 286.67 242.86 286.24 246.55 286.06 C 245.19 286.79 243.83 287.51 242.47 288.24 C 243.62 289.84 244.77 291.45 245.88 293.09 C 245.85 294.48 245.83 295.87 245.83 297.27 C 245.62 298.69 245.39 300.11 245.15 301.54 C 245.67 301.80 246.70 302.34 247.22 302.61 C 248.31 304.92 250.56 306.17 252.45 307.73 C 253.42 310.24 252.51 313.16 251.29 315.45 C 249.99 316.63 248.13 317.01 246.88 318.31 C 245.84 317.20 244.79 316.10 243.73 315.03 L 243.34 316.13 L 243.42 315.16 C 234.96 312.89 229.39 305.30 226.09 297.62 C 225.32 303.80 222.67 309.68 222.82 315.99 C 223.05 319.71 220.82 324.03 216.56 323.42 C 214.76 323.56 212.96 323.75 211.17 323.94 C 210.79 323.46 210.03 322.50 209.65 322.02 C 208.57 322.49 207.36 322.77 206.41 323.48 C 200.04 325.34 193.38 325.34 186.88 326.34 C 182.17 323.80 182.19 317.87 181.53 313.25 C 173.69 314.22 167.39 319.48 160.19 322.25 C 159.07 321.15 157.94 320.05 156.82 318.97 C 151.72 310.87 145.54 303.41 140.49 295.24 C 140.49 304.69 139.61 314.40 141.90 323.67 C 139.75 325.51 137.03 326.39 134.54 327.65 C 135.68 330.26 137.94 332.34 138.81 335.02 C 137.98 337.71 135.73 339.75 134.36 342.20 C 132.01 345.55 129.77 349.00 127.11 352.10 C 124.87 353.32 122.14 353.15 119.91 354.23 L 119.65 354.94 L 118.98 354.59 C 109.79 355.75 100.55 357.63 91.69 360.42 C 92.73 360.97 93.84 361.21 95.03 361.15 C 104.07 361.16 113.09 360.52 122.03 359.17 C 128.66 358.17 135.37 357.94 142.03 357.16 C 144.52 356.90 146.52 355.11 148.99 354.75 C 153.19 355.13 156.52 357.95 159.97 360.09 C 161.87 359.29 163.83 358.45 165.94 358.74 C 170.70 359.00 175.38 357.94 179.88 356.53 C 181.17 356.07 182.47 355.61 183.76 355.15 C 181.95 356.65 180.23 358.27 178.67 360.04 C 175.71 364.51 172.65 369.54 166.99 370.77 C 161.74 372.49 156.62 374.58 151.55 376.76 C 156.41 376.77 161.21 375.98 166.00 375.32 C 170.75 374.36 175.63 373.91 180.29 372.56 C 184.17 372.35 187.99 371.52 191.67 370.30 C 191.57 367.82 189.91 364.28 192.71 362.71 C 196.99 360.58 202.01 362.00 206.44 360.46 C 208.73 359.59 211.17 359.33 213.61 359.25 C 215.88 358.84 219.33 359.90 220.16 356.97 C 219.04 356.27 218.27 355.33 217.84 354.14 C 222.14 358.95 229.69 358.09 233.98 362.87 C 233.62 364.19 233.28 365.52 232.94 366.86 C 235.75 367.41 238.55 368.01 241.34 368.64 L 241.24 368.79 C 252.04 371.97 263.38 372.52 274.16 375.72 C 272.65 369.53 265.30 369.56 261.80 365.08 C 259.19 360.98 255.31 357.99 251.87 354.66 C 249.53 351.80 247.69 348.53 247.03 344.86 L 247.28 343.33 C 249.78 347.12 252.42 350.86 255.92 353.80 C 257.38 355.10 258.76 356.51 260.37 357.63 C 263.62 358.51 267.09 358.28 270.33 359.30 C 271.99 360.52 273.80 361.55 275.76 362.24 C 279.66 362.37 283.20 364.14 286.80 365.47 C 291.16 366.06 295.54 366.84 299.96 366.37 C 307.66 365.61 315.35 367.56 323.05 366.47 C 319.70 365.44 316.18 365.12 312.82 364.18 C 306.51 362.03 301.13 357.92 295.98 353.80 C 293.00 351.16 290.09 348.42 287.36 345.52 C 286.49 345.81 284.75 346.39 283.88 346.68 C 282.52 342.73 283.51 338.54 283.75 334.50 C 277.95 332.54 270.63 332.70 266.59 327.46 C 264.06 322.35 260.65 317.77 257.69 312.92 C 257.97 311.21 258.08 309.48 257.54 307.82 C 258.38 305.93 259.41 304.07 259.60 301.97 C 258.12 301.61 255.96 302.38 254.98 300.83 C 253.84 297.89 253.36 294.74 252.43 291.73 C 250.47 277.41 250.12 262.91 249.04 248.50 C 249.38 244.67 248.63 240.84 248.67 237.01 C 248.21 225.12 248.68 213.23 249.19 201.35 C 249.70 200.02 249.86 198.56 249.89 197.14 C 251.32 195.04 250.92 192.23 252.44 190.19 C 252.63 191.67 252.80 193.15 252.96 194.64 C 254.56 194.62 256.16 194.61 257.77 194.60 C 257.97 192.80 258.15 191.00 258.40 189.21 C 264.19 187.69 270.22 189.04 276.06 187.93 C 281.03 187.14 285.70 185.20 290.39 183.44 C 294.28 181.90 298.51 181.93 302.61 181.52 C 296.55 178.91 289.50 178.06 283.08 179.82 C 275.36 181.58 267.34 182.01 259.50 180.80 C 256.86 180.86 254.40 181.84 252.02 182.88 C 251.47 182.65 250.38 182.19 249.83 181.96 C 250.24 178.63 254.08 177.53 256.91 177.14 C 260.56 176.85 264.10 175.63 266.92 173.25 C 260.30 173.20 253.68 173.64 247.12 174.41 C 244.58 173.27 239.84 172.61 240.01 169.13 C 241.38 167.21 243.88 166.78 245.92 165.90 C 247.29 165.22 248.58 164.41 249.81 163.50 C 243.55 161.25 237.00 159.99 230.64 158.06 C 230.80 155.69 229.82 152.69 231.91 150.91 C 233.42 149.37 235.24 148.00 235.88 145.84 C 239.57 136.19 245.99 127.98 252.09 119.78 C 248.22 121.92 244.65 124.54 241.09 127.14 M 167.39 221.47 C 167.32 225.35 167.87 229.27 169.02 232.98 C 169.90 236.09 173.06 237.56 175.68 238.93 C 175.55 232.23 172.05 226.16 168.82 220.47 C 168.46 220.72 167.75 221.22 167.39 221.47 M 201.92 284.08 C 196.92 283.21 198.11 276.96 197.01 273.28 C 195.38 273.89 193.74 274.51 192.11 275.12 C 191.05 273.83 190.11 272.42 188.81 271.36 C 182.95 269.62 177.00 272.47 171.10 271.16 C 170.45 272.07 169.04 272.69 169.16 273.98 C 168.95 279.95 170.15 286.20 167.90 291.92 C 166.63 295.22 163.25 296.78 160.38 298.40 C 160.51 300.82 160.95 303.26 160.60 305.68 C 159.53 307.26 157.85 308.28 156.42 309.50 C 158.12 312.53 159.79 315.58 161.36 318.69 C 167.47 314.15 174.21 309.71 181.99 309.06 C 183.17 308.94 185.23 308.64 185.47 310.31 C 186.21 314.08 186.41 317.96 187.48 321.68 C 190.96 321.51 194.44 321.37 197.92 321.53 C 202.20 321.75 205.92 319.28 209.95 318.31 C 212.51 321.31 216.31 320.20 219.68 319.69 C 220.09 309.34 222.12 299.17 224.44 289.11 C 225.22 289.65 226.00 290.20 226.78 290.75 C 228.99 286.65 231.48 282.72 234.19 278.94 C 232.88 277.89 231.58 276.84 230.29 275.78 C 229.99 273.75 229.87 271.67 229.29 269.69 C 226.89 265.93 221.72 266.89 217.93 266.90 C 211.50 271.48 208.04 279.19 201.92 284.08 M 227.90 293.48 C 231.69 299.61 235.13 306.60 241.63 310.29 C 243.38 311.61 244.98 309.79 245.96 308.47 C 244.44 306.88 242.79 305.40 241.53 303.60 C 240.36 299.89 243.09 295.80 241.75 292.20 C 237.32 289.26 232.71 294.35 227.90 293.48 Z" />
<path fill="#b7d795" opacity="1.00" d=" M 187.99 4.65 C 206.14 3.15 224.39 4.87 242.33 7.73 C 242.66 15.42 242.43 23.12 241.64 30.78 C 237.08 34.42 232.40 38.21 229.08 43.06 C 227.05 49.62 226.49 56.70 223.06 62.81 C 217.73 64.30 214.26 68.95 211.06 73.15 C 209.08 75.56 209.80 78.79 209.36 81.64 C 207.79 84.89 204.29 86.56 201.22 88.14 C 201.72 85.84 202.27 83.55 202.85 81.26 C 198.05 83.64 192.80 84.89 187.88 86.93 C 185.75 89.47 184.68 92.69 183.30 95.66 C 184.93 95.83 186.55 96.00 188.18 96.12 C 186.55 96.38 184.91 96.55 183.26 96.65 C 179.99 96.66 176.73 96.34 173.47 96.32 L 172.49 96.30 C 168.12 94.10 163.30 92.71 159.36 89.72 C 161.30 87.48 161.31 84.60 160.62 81.88 C 164.02 82.89 167.43 83.89 170.83 84.94 C 167.66 79.24 164.78 72.79 166.30 66.11 C 167.07 60.66 169.93 55.71 174.22 52.26 C 184.55 43.09 188.56 29.10 190.50 15.90 C 189.40 12.28 185.52 10.09 181.80 10.18 C 183.07 9.06 184.28 7.87 185.44 6.64 C 187.46 8.93 189.61 11.13 191.86 13.20 C 192.62 10.60 193.28 7.97 193.86 5.32 C 192.07 5.10 190.29 4.86 188.50 4.70 L 187.99 4.65 Z" />
<path fill="#93c690" opacity="1.00" d=" M 186.37 5.66 C 186.90 5.42 187.96 4.94 188.50 4.70 C 190.29 4.86 192.07 5.10 193.86 5.32 C 193.28 7.97 192.62 10.60 191.86 13.20 C 189.61 11.13 187.46 8.93 185.44 6.64 L 186.37 5.66 Z" />
<path fill="#fffdcb" opacity="1.00" d=" M 140.55 29.40 C 154.75 19.72 169.60 10.14 186.37 5.66 L 185.44 6.64 C 184.28 7.87 183.07 9.06 181.80 10.18 C 178.39 13.03 174.79 15.63 171.23 18.29 C 173.52 20.45 176.65 22.52 176.79 26.01 C 176.94 34.70 170.04 43.71 160.95 43.85 C 155.84 43.32 150.39 41.47 147.34 37.08 C 144.55 38.87 141.89 41.91 138.24 41.12 C 134.05 37.93 138.99 33.36 140.29 29.90 L 140.55 29.40 Z" />
<path fill="#5faa89" opacity="1.00" d=" M 242.33 7.73 C 251.65 10.08 261.06 12.12 270.32 14.71 C 258.32 29.69 249.23 46.72 238.17 62.37 L 238.43 60.92 C 240.12 50.95 240.87 40.85 241.64 30.78 C 242.43 23.12 242.66 15.42 242.33 7.73 Z" />
<path fill="#c2dc97" opacity="1.00" d=" M 171.23 18.29 C 174.79 15.63 178.39 13.03 181.80 10.18 C 185.52 10.09 189.40 12.28 190.50 15.90 C 188.56 29.10 184.55 43.09 174.22 52.26 C 169.93 55.71 167.07 60.66 166.30 66.11 C 164.78 72.79 167.66 79.24 170.83 84.94 C 167.43 83.89 164.02 82.89 160.62 81.88 C 161.31 84.60 161.30 87.48 159.36 89.72 C 148.82 81.94 141.75 69.70 140.35 56.66 C 139.67 52.05 139.97 47.38 140.28 42.75 C 139.59 42.22 138.91 41.67 138.24 41.12 C 141.89 41.91 144.55 38.87 147.34 37.08 C 150.39 41.47 155.84 43.32 160.95 43.85 C 170.04 43.71 176.94 34.70 176.79 26.01 C 176.65 22.52 173.52 20.45 171.23 18.29 Z" />
<path fill="#258a80" opacity="1.00" d=" M 270.32 14.71 C 278.33 17.11 286.23 20.23 293.27 24.81 C 298.99 29.74 304.44 35.07 309.11 41.03 C 310.74 43.36 313.77 43.69 316.26 44.58 C 315.00 49.50 312.92 54.15 310.55 58.63 C 309.21 61.05 308.51 63.76 308.59 66.52 C 306.46 68.43 304.39 70.49 303.00 73.01 C 296.91 84.22 290.86 95.45 284.58 106.55 C 278.86 116.47 273.28 126.47 267.31 136.24 C 264.31 140.89 261.64 145.72 258.69 150.39 C 257.01 152.98 255.30 155.56 253.86 158.30 C 253.41 159.15 252.96 160.01 252.53 160.87 C 246.58 158.43 240.34 156.78 234.07 155.41 C 234.18 152.38 237.63 151.31 238.55 148.63 C 241.49 141.05 245.90 134.13 250.73 127.62 C 254.75 122.74 256.99 116.67 261.31 112.00 C 253.31 115.29 245.03 118.16 238.13 123.54 C 239.83 117.64 246.36 116.23 251.03 113.42 C 248.01 113.03 244.86 113.09 241.99 111.98 C 238.63 110.16 236.87 106.53 233.99 104.15 C 231.08 102.06 227.11 100.99 225.33 97.63 C 225.13 94.39 225.76 91.18 226.05 87.96 C 223.79 89.69 221.46 91.34 219.05 92.87 C 223.98 81.86 232.33 72.87 238.17 62.37 C 249.23 46.72 258.32 29.69 270.32 14.71 Z" />
<path fill="#add294" opacity="1.00" d=" M 118.64 46.41 C 125.66 40.68 132.41 34.43 140.29 29.90 C 138.99 33.36 134.05 37.93 138.24 41.12 C 138.91 41.67 139.59 42.22 140.28 42.75 C 139.97 47.38 139.67 52.05 140.35 56.66 C 141.75 69.70 148.82 81.94 159.36 89.72 C 163.30 92.71 168.12 94.10 172.49 96.30 C 167.68 96.42 162.85 96.97 158.06 96.38 C 154.46 95.74 151.15 94.11 147.83 92.67 C 142.96 88.75 137.71 85.16 133.90 80.13 C 129.08 74.30 126.22 67.20 124.22 59.99 C 123.08 64.49 122.03 69.01 120.81 73.49 C 118.88 64.62 118.10 55.48 118.64 46.41 Z" />
<path fill="#a9cd93" opacity="1.00" d=" M 229.08 43.06 C 232.40 38.21 237.08 34.42 241.64 30.78 C 240.87 40.85 240.12 50.95 238.43 60.92 C 235.32 63.83 232.62 67.12 229.96 70.42 C 227.86 68.88 225.60 67.56 223.21 66.51 C 219.43 72.52 214.48 77.62 210.32 83.34 C 204.71 89.94 196.64 94.40 188.18 96.12 C 186.55 96.00 184.93 95.83 183.30 95.66 C 184.68 92.69 185.75 89.47 187.88 86.93 C 192.80 84.89 198.05 83.64 202.85 81.26 C 202.27 83.55 201.72 85.84 201.22 88.14 C 204.29 86.56 207.79 84.89 209.36 81.64 C 209.80 78.79 209.08 75.56 211.06 73.15 C 214.26 68.95 217.73 64.30 223.06 62.81 C 226.49 56.70 227.05 49.62 229.08 43.06 Z" />
<path fill="#3b9883" opacity="1.00" d=" M 316.26 44.58 C 320.43 45.88 324.56 47.26 328.68 48.72 C 321.95 54.63 315.33 60.64 308.59 66.52 C 308.51 63.76 309.21 61.05 310.55 58.63 C 312.92 54.15 315.00 49.50 316.26 44.58 Z" />
<path fill="#70b48b" opacity="1.00" d=" M 117.44 48.09 C 117.80 47.50 118.23 46.96 118.64 46.41 C 118.10 55.48 118.88 64.62 120.81 73.49 C 120.46 74.88 120.00 76.23 119.56 77.59 C 117.78 74.23 116.07 70.81 114.68 67.26 C 115.39 60.84 116.61 54.49 117.44 48.09 Z" />
<path fill="#379783" opacity="1.00" d=" M 111.08 58.43 C 110.32 53.88 114.24 50.56 117.44 48.09 C 116.61 54.49 115.39 60.84 114.68 67.26 C 113.49 64.31 112.19 61.41 111.08 58.43 Z" />
<path fill="#bdda96" opacity="1.00" d=" M 328.68 48.72 C 354.44 57.85 379.46 69.38 402.55 84.05 C 399.21 86.49 395.84 88.87 392.45 91.22 C 381.17 98.86 369.36 105.64 357.80 112.83 C 347.17 118.53 336.89 125.03 325.56 129.29 C 317.98 131.35 310.43 127.68 304.86 122.72 C 300.52 124.65 298.30 128.95 295.09 132.17 C 294.04 132.22 292.98 132.04 291.94 131.95 C 290.40 132.94 288.87 133.95 287.36 134.97 C 286.32 132.99 285.28 131.02 284.24 129.05 C 282.19 130.08 280.14 131.09 278.07 132.07 C 279.00 123.50 286.03 117.57 290.39 110.62 C 288.62 109.03 286.67 107.68 284.58 106.55 C 290.86 95.45 296.91 84.22 303.00 73.01 C 304.39 70.49 306.46 68.43 308.59 66.52 C 315.33 60.64 321.95 54.63 328.68 48.72 M 297.73 91.73 C 295.30 93.62 292.54 95.61 291.83 98.79 C 294.81 99.65 297.50 104.21 300.75 101.83 C 302.89 100.38 301.83 97.75 301.11 95.83 C 304.55 92.46 309.38 89.63 310.44 84.60 C 305.73 86.03 301.67 88.88 297.73 91.73 Z" />
<path fill="#0e5f79" opacity="1.00" d=" M 111.08 58.43 C 112.19 61.41 113.49 64.31 114.68 67.26 C 116.07 70.81 117.78 74.23 119.56 77.59 C 122.26 82.69 125.63 87.41 129.35 91.82 C 132.57 95.69 135.60 99.81 139.65 102.89 C 141.95 104.46 144.45 105.74 146.76 107.30 C 142.79 108.60 139.21 106.15 135.95 104.21 C 126.49 96.52 117.27 87.71 112.36 76.32 C 112.94 75.06 113.03 73.78 112.65 72.48 C 111.36 67.93 110.48 63.16 111.08 58.43 Z" />
<path fill="#309482" opacity="1.00" d=" M 124.22 59.99 C 126.22 67.20 129.08 74.30 133.90 80.13 C 137.71 85.16 142.96 88.75 147.83 92.67 C 149.67 95.35 151.98 98.99 155.77 98.37 C 161.66 97.48 167.76 98.36 173.47 96.32 C 176.73 96.34 179.99 96.66 183.26 96.65 C 183.09 97.40 182.73 98.90 182.55 99.65 C 181.32 99.08 180.09 98.51 178.86 97.93 C 173.86 102.13 169.96 109.30 171.96 115.90 L 172.08 116.43 C 162.80 116.98 153.48 113.76 146.76 107.30 C 144.45 105.74 141.95 104.46 139.65 102.89 C 138.80 97.59 134.43 93.26 129.35 91.82 C 125.63 87.41 122.26 82.69 119.56 77.59 C 120.00 76.23 120.46 74.88 120.81 73.49 C 122.03 69.01 123.08 64.49 124.22 59.99 Z" />
<path fill="#99c590" opacity="1.00" d=" M 229.96 70.42 C 232.62 67.12 235.32 63.83 238.43 60.92 L 238.17 62.37 C 232.33 72.87 223.98 81.86 219.05 92.87 C 218.55 94.19 218.12 95.53 217.66 96.86 C 213.98 93.11 212.82 87.81 210.32 83.34 C 214.48 77.62 219.43 72.52 223.21 66.51 C 225.60 67.56 227.86 68.88 229.96 70.42 Z" />
<path fill="#68b08a" opacity="1.00" d=" M 103.17 77.52 C 105.53 76.16 107.73 74.55 109.78 72.75 C 110.67 73.92 111.53 75.11 112.36 76.32 C 117.27 87.71 126.49 96.52 135.95 104.21 C 137.39 107.32 138.47 110.59 139.21 113.93 C 138.12 115.05 137.07 116.20 135.85 117.17 C 132.28 117.47 128.96 115.10 125.37 115.48 C 122.75 116.70 120.52 118.63 117.84 119.72 C 113.09 121.72 107.79 121.58 102.76 121.07 C 99.16 120.34 95.61 119.36 92.08 118.34 C 88.72 115.28 84.44 112.91 82.38 108.69 C 80.78 105.59 80.35 102.08 79.81 98.68 C 78.55 98.81 77.30 98.95 76.04 99.09 C 82.67 91.89 90.54 85.99 98.60 80.50 C 103.41 81.74 108.08 84.01 113.15 83.89 C 109.96 81.56 106.51 79.62 103.17 77.52 Z" />
<path fill="#329480" opacity="1.00" d=" M 98.60 80.50 C 100.11 79.49 101.63 78.49 103.17 77.52 C 106.51 79.62 109.96 81.56 113.15 83.89 C 108.08 84.01 103.41 81.74 98.60 80.50 Z" />
<path fill="#389583" opacity="1.00" d=" M 188.18 96.12 C 196.64 94.40 204.71 89.94 210.32 83.34 C 212.82 87.81 213.98 93.11 217.66 96.86 C 217.03 99.01 215.69 100.83 214.09 102.37 C 211.31 99.10 208.54 94.83 203.83 94.45 C 197.17 93.90 191.44 98.65 187.81 103.78 C 185.81 106.73 183.18 109.16 180.97 111.93 C 179.91 114.72 179.88 117.82 178.95 120.67 C 176.63 114.57 177.42 107.88 177.44 101.50 C 174.50 105.83 173.50 110.99 171.96 115.90 C 169.96 109.30 173.86 102.13 178.86 97.93 C 180.09 98.51 181.32 99.08 182.55 99.65 C 182.73 98.90 183.09 97.40 183.26 96.65 C 184.91 96.55 186.55 96.38 188.18 96.12 Z" />
<path fill="#b3d79b" opacity="1.00" d=" M 402.55 84.05 C 405.66 86.39 409.18 88.31 411.66 91.40 C 416.44 97.05 418.82 104.18 422.19 110.67 C 414.63 113.26 407.02 115.66 399.46 118.23 C 395.83 119.48 392.17 120.67 388.54 121.89 C 389.41 118.64 390.64 115.50 391.92 112.39 C 391.08 111.42 390.25 110.44 389.41 109.47 C 390.36 107.41 391.38 105.37 392.23 103.26 C 393.64 101.10 391.01 99.40 390.03 97.71 C 390.91 95.58 391.77 93.43 392.45 91.22 C 395.84 88.87 399.21 86.49 402.55 84.05 Z" />
<path fill="#fffdcb" opacity="1.00" d=" M 297.73 91.73 C 301.67 88.88 305.73 86.03 310.44 84.60 C 309.38 89.63 304.55 92.46 301.11 95.83 C 301.83 97.75 302.89 100.38 300.75 101.83 C 297.50 104.21 294.81 99.65 291.83 98.79 C 292.54 95.61 295.30 93.62 297.73 91.73 Z" />
<path fill="#18797d" opacity="1.00" d=" M 219.05 92.87 C 221.46 91.34 223.79 89.69 226.05 87.96 C 225.76 91.18 225.13 94.39 225.33 97.63 C 227.11 100.99 231.08 102.06 233.99 104.15 C 236.87 106.53 238.63 110.16 241.99 111.98 C 244.86 113.09 248.01 113.03 251.03 113.42 C 246.36 116.23 239.83 117.64 238.13 123.54 C 230.28 130.00 223.70 137.85 217.58 145.97 C 212.83 144.96 206.93 144.50 204.49 139.55 C 201.97 133.99 203.60 127.57 205.00 121.92 C 206.43 115.82 210.25 110.66 211.79 104.61 C 212.57 103.88 213.34 103.13 214.09 102.37 C 215.69 100.83 217.03 99.01 217.66 96.86 C 218.12 95.53 218.55 94.19 219.05 92.87 Z" />
<path fill="#5ca688" opacity="1.00" d=" M 129.35 91.82 C 134.43 93.26 138.80 97.59 139.65 102.89 C 135.60 99.81 132.57 95.69 129.35 91.82 Z" />
<path fill="#add193" opacity="1.00" d=" M 357.80 112.83 C 369.36 105.64 381.17 98.86 392.45 91.22 C 391.77 93.43 390.91 95.58 390.03 97.71 C 391.01 99.40 393.64 101.10 392.23 103.26 C 391.38 105.37 390.36 107.41 389.41 109.47 C 390.25 110.44 391.08 111.42 391.92 112.39 C 390.64 115.50 389.41 118.64 388.54 121.89 C 370.91 127.89 353.36 134.10 335.95 140.70 C 331.81 142.13 327.67 143.57 323.52 144.97 C 317.95 144.18 311.93 145.80 306.74 143.14 C 303.26 145.18 300.02 148.13 295.88 148.59 C 293.13 148.22 290.60 146.99 288.01 146.07 C 285.91 147.62 283.82 149.17 281.76 150.76 C 279.16 149.73 276.24 148.87 274.46 146.57 C 273.46 142.72 274.34 138.71 274.55 134.81 C 272.14 135.29 269.72 135.78 267.31 136.24 C 273.28 126.47 278.86 116.47 284.58 106.55 C 286.67 107.68 288.62 109.03 290.39 110.62 C 286.03 117.57 279.00 123.50 278.07 132.07 C 280.14 131.09 282.19 130.08 284.24 129.05 C 285.28 131.02 286.32 132.99 287.36 134.97 C 288.87 133.95 290.40 132.94 291.94 131.95 C 292.98 132.04 294.04 132.22 295.09 132.17 C 298.30 128.95 300.52 124.65 304.86 122.72 C 310.43 127.68 317.98 131.35 325.56 129.29 C 336.89 125.03 347.17 118.53 357.80 112.83 Z" />
<path fill="#77b78c" opacity="1.00" d=" M 147.83 92.67 C 151.15 94.11 154.46 95.74 158.06 96.38 C 162.85 96.97 167.68 96.42 172.49 96.30 L 173.47 96.32 C 167.76 98.36 161.66 97.48 155.77 98.37 C 151.98 98.99 149.67 95.35 147.83 92.67 Z" />
<path fill="#1e897f" opacity="1.00" d=" M 187.81 103.78 C 191.44 98.65 197.17 93.90 203.83 94.45 C 208.54 94.83 211.31 99.10 214.09 102.37 C 213.34 103.13 212.57 103.88 211.79 104.61 C 204.46 111.62 195.38 116.94 189.89 125.71 C 185.94 124.85 182.33 123.03 178.84 121.06 L 178.95 120.67 C 179.88 117.82 179.91 114.72 180.97 111.93 C 183.18 109.16 185.81 106.73 187.81 103.78 Z" />
<path fill="#56a788" opacity="1.00" d=" M 76.04 99.09 C 77.30 98.95 78.55 98.81 79.81 98.68 C 80.35 102.08 80.78 105.59 82.38 108.69 C 84.44 112.91 88.72 115.28 92.08 118.34 C 89.39 117.62 86.69 116.86 84.17 115.66 C 79.87 113.46 75.65 111.10 71.19 109.23 C 71.35 105.30 73.66 102.04 76.04 99.09 Z" />
<path fill="#116a7a" opacity="1.00" d=" M 135.95 104.21 C 139.21 106.15 142.79 108.60 146.76 107.30 C 153.48 113.76 162.80 116.98 172.08 116.43 C 168.17 128.99 165.11 141.91 164.47 155.09 C 163.55 161.87 164.10 168.82 162.29 175.49 C 160.56 174.02 156.65 171.14 155.69 174.84 C 156.16 177.40 157.03 179.85 157.83 182.31 C 156.57 182.73 155.31 183.15 154.05 183.57 C 153.23 180.77 152.45 177.96 151.74 175.13 C 154.77 172.03 158.18 168.94 159.49 164.66 C 161.67 157.93 160.12 149.98 155.11 144.90 C 149.57 139.27 141.97 136.22 134.35 134.65 C 124.29 132.57 113.96 131.90 103.70 132.20 C 106.45 129.20 108.89 125.73 112.41 123.58 C 117.00 122.75 121.89 124.09 126.29 122.14 C 130.69 120.34 135.02 117.49 140.01 118.69 C 139.75 117.10 139.51 115.51 139.21 113.93 C 138.47 110.59 137.39 107.32 135.95 104.21 Z" />
<path fill="#085d78" opacity="1.00" d=" M 211.79 104.61 C 210.25 110.66 206.43 115.82 205.00 121.92 C 203.60 127.57 201.97 133.99 204.49 139.55 C 206.93 144.50 212.83 144.96 217.58 145.97 C 215.81 148.72 213.59 151.25 212.43 154.35 C 211.96 157.76 213.80 160.95 214.55 164.20 C 212.21 165.38 209.88 166.56 207.57 167.81 C 204.91 165.79 205.06 162.40 204.45 159.44 C 201.95 157.22 198.14 158.76 195.14 158.90 C 195.32 156.86 195.50 154.82 195.73 152.78 C 192.12 149.73 187.29 152.24 183.27 152.94 C 178.16 143.18 178.37 131.78 178.84 121.06 C 182.33 123.03 185.94 124.85 189.89 125.71 C 195.38 116.94 204.46 111.62 211.79 104.61 Z" />
<path fill="#289181" opacity="1.00" d=" M 71.19 109.23 C 75.65 111.10 79.87 113.46 84.17 115.66 C 80.82 116.32 77.50 117.17 74.22 118.13 C 73.00 115.24 71.98 112.27 71.19 109.23 Z" />
<path fill="#32978e" opacity="1.00" d=" M 399.46 118.23 C 407.02 115.66 414.63 113.26 422.19 110.67 C 423.61 113.49 425.29 116.17 426.58 119.06 C 424.29 124.47 420.29 129.02 417.15 133.98 C 411.40 134.74 405.77 136.14 400.13 137.42 C 399.61 137.22 398.56 136.82 398.04 136.61 C 398.54 131.83 399.89 127.18 400.54 122.41 C 399.54 122.16 398.54 121.92 397.55 121.67 C 398.18 120.52 398.82 119.38 399.46 118.23 Z" />
<path fill="#2e7c7f" opacity="1.00" d=" M 135.85 117.17 C 137.07 116.20 138.12 115.05 139.21 113.93 C 139.51 115.51 139.75 117.10 140.01 118.69 C 135.02 117.49 130.69 120.34 126.29 122.14 C 118.45 122.02 110.50 122.67 102.76 121.07 C 107.79 121.58 113.09 121.72 117.84 119.72 C 120.52 118.63 122.75 116.70 125.37 115.48 C 128.96 115.10 132.28 117.47 135.85 117.17 Z" />
<path fill="#15717c" opacity="1.00" d=" M 74.22 118.13 C 77.50 117.17 80.82 116.32 84.17 115.66 C 86.69 116.86 89.39 117.62 92.08 118.34 C 95.61 119.36 99.16 120.34 102.76 121.07 C 110.50 122.67 118.45 122.02 126.29 122.14 C 121.89 124.09 117.00 122.75 112.41 123.58 C 108.89 125.73 106.45 129.20 103.70 132.20 C 92.55 132.58 81.64 134.83 70.78 137.20 C 74.84 133.20 79.50 129.89 83.82 126.18 C 82.13 126.97 80.45 127.78 78.78 128.59 C 77.07 125.19 75.61 121.67 74.22 118.13 Z" />
<path fill="#268c82" opacity="1.00" d=" M 388.54 121.89 C 392.17 120.67 395.83 119.48 399.46 118.23 C 398.82 119.38 398.18 120.52 397.55 121.67 C 398.54 121.92 399.54 122.16 400.54 122.41 C 399.89 127.18 398.54 131.83 398.04 136.61 C 398.56 136.82 399.61 137.22 400.13 137.42 C 398.35 137.83 396.58 138.30 394.80 138.70 C 388.77 139.93 382.73 141.18 376.77 142.72 C 359.36 146.55 342.10 150.97 324.77 155.12 C 328.59 150.55 333.76 147.41 337.62 142.88 C 337.06 142.15 336.51 141.42 335.95 140.70 C 353.36 134.10 370.91 127.89 388.54 121.89 Z" />
<path fill="#98233f" opacity="1.00" d=" M 241.09 127.14 C 244.65 124.54 248.22 121.92 252.09 119.78 C 245.99 127.98 239.57 136.19 235.88 145.84 C 235.24 148.00 233.42 149.37 231.91 150.91 C 229.82 152.69 230.80 155.69 230.64 158.06 C 237.00 159.99 243.55 161.25 249.81 163.50 C 248.58 164.41 247.29 165.22 245.92 165.90 C 243.16 165.31 240.21 164.46 237.45 165.53 C 234.31 166.77 231.76 169.06 229.04 170.99 C 228.36 170.34 227.69 169.69 227.02 169.05 C 226.75 167.22 226.43 165.40 226.10 163.58 C 222.92 167.86 219.29 172.05 217.90 177.32 C 217.28 174.06 215.92 171.01 214.37 168.10 L 214.35 168.04 C 215.48 167.12 217.16 166.53 217.58 164.98 C 218.39 161.92 217.08 158.90 216.61 155.90 C 217.12 153.65 218.82 151.90 220.08 150.03 C 226.38 141.81 232.66 133.33 241.09 127.14 Z" />
<path fill="#cf4f6e" opacity="1.00" d=" M 169.18 145.85 C 169.03 137.11 171.94 128.87 174.57 120.68 C 175.00 125.45 174.24 130.26 174.91 135.01 C 175.57 139.82 176.48 144.59 177.74 149.28 C 174.62 149.14 170.06 149.88 169.18 145.85 Z" />
<path fill="#24897f" opacity="1.00" d=" M 70.78 137.20 C 81.64 134.83 92.55 132.58 103.70 132.20 C 113.96 131.90 124.29 132.57 134.35 134.65 C 141.97 136.22 149.57 139.27 155.11 144.90 C 160.12 149.98 161.67 157.93 159.49 164.66 C 158.18 168.94 154.77 172.03 151.74 175.13 C 152.45 177.96 153.23 180.77 154.05 183.57 C 147.04 184.13 140.02 183.50 133.00 183.48 C 125.99 183.32 119.03 184.61 112.02 184.15 C 110.53 184.22 107.96 183.56 108.01 185.84 C 111.58 188.87 116.40 189.49 120.74 190.79 C 116.74 192.35 112.59 193.49 108.36 194.22 C 102.00 194.09 95.46 194.64 89.32 192.66 C 86.24 191.77 83.30 190.43 80.21 189.58 L 79.55 189.42 C 94.67 185.30 109.82 181.28 124.92 177.09 C 129.61 176.14 131.50 171.14 134.71 168.14 C 140.87 160.88 147.55 154.06 154.74 147.82 C 150.82 143.95 145.54 142.22 140.28 141.13 C 135.15 138.85 129.59 138.17 124.08 137.47 C 105.71 132.87 86.79 137.10 68.39 139.31 C 69.09 138.49 69.89 137.79 70.78 137.20 Z" />
<path fill="#0a6a88" opacity="1.00" d=" M 400.13 137.42 C 405.77 136.14 411.40 134.74 417.15 133.98 C 414.43 138.13 411.95 142.59 408.01 145.76 C 409.88 150.08 412.54 153.97 414.81 158.07 C 416.15 160.34 413.59 162.09 412.19 163.48 L 411.98 163.48 C 404.42 163.55 396.89 165.04 389.70 167.29 C 389.67 165.88 389.31 164.36 390.09 163.07 C 392.91 157.68 396.53 152.72 398.82 147.05 C 398.00 145.99 397.19 144.93 396.39 143.87 C 396.76 142.31 397.13 140.75 397.51 139.19 C 396.83 139.06 395.48 138.82 394.80 138.70 C 396.58 138.30 398.35 137.83 400.13 137.42 Z" />
<path fill="#93c08f" opacity="1.00" d=" M 267.31 136.24 C 269.72 135.78 272.14 135.29 274.55 134.81 C 274.34 138.71 273.46 142.72 274.46 146.57 C 276.24 148.87 279.16 149.73 281.76 150.76 C 283.82 149.17 285.91 147.62 288.01 146.07 C 290.60 146.99 293.13 148.22 295.88 148.59 C 300.02 148.13 303.26 145.18 306.74 143.14 C 311.93 145.80 317.95 144.18 323.52 144.97 C 315.35 148.38 306.66 150.22 298.28 153.00 C 290.23 154.17 282.13 154.82 274.02 155.26 C 268.57 155.14 263.42 152.93 258.69 150.39 C 261.64 145.72 264.31 140.89 267.31 136.24 Z" />
<path fill="#8bbc8e" opacity="1.00" d=" M 68.39 139.31 C 86.79 137.10 105.71 132.87 124.08 137.47 C 129.59 138.17 135.15 138.85 140.28 141.13 C 134.70 141.35 129.03 140.26 123.55 141.74 C 114.09 143.30 104.71 145.28 95.38 147.48 C 89.55 149.00 83.79 146.29 77.94 146.57 C 71.99 146.86 65.98 147.23 60.21 148.87 C 58.38 149.32 56.53 149.72 54.70 150.19 C 59.28 146.59 63.69 142.74 68.39 139.31 Z" />
<path fill="#096581" opacity="1.00" d=" M 376.77 142.72 C 382.73 141.18 388.77 139.93 394.80 138.70 C 395.48 138.82 396.83 139.06 397.51 139.19 C 397.13 140.75 396.76 142.31 396.39 143.87 C 397.19 144.93 398.00 145.99 398.82 147.05 C 396.53 152.72 392.91 157.68 390.09 163.07 C 389.31 164.36 389.67 165.88 389.70 167.29 C 388.28 167.88 386.91 168.56 385.56 169.28 C 390.16 170.08 394.84 170.37 399.51 170.29 C 396.20 172.35 392.23 171.78 388.59 172.56 C 386.54 174.28 385.85 176.97 385.37 179.49 C 376.86 180.80 368.40 182.43 359.89 183.71 C 361.38 180.43 363.56 177.57 365.77 174.75 C 371.66 167.08 375.25 158.03 379.85 149.59 C 378.92 149.45 378.00 149.31 377.08 149.16 C 377.86 147.18 378.65 145.19 379.44 143.20 C 378.77 143.08 377.44 142.84 376.77 142.72 Z" />
<path fill="#97c190" opacity="1.00" d=" M 123.55 141.74 C 129.03 140.26 134.70 141.35 140.28 141.13 C 145.54 142.22 150.82 143.95 154.74 147.82 C 147.55 154.06 140.87 160.88 134.71 168.14 C 132.54 168.19 129.90 168.66 128.52 166.50 C 120.16 158.70 126.44 142.20 138.03 142.33 C 133.19 142.43 128.36 142.14 123.55 141.74 Z" />
<path fill="#308d81" opacity="1.00" d=" M 323.52 144.97 C 327.67 143.57 331.81 142.13 335.95 140.70 C 336.51 141.42 337.06 142.15 337.62 142.88 C 333.76 147.41 328.59 150.55 324.77 155.12 C 320.66 156.05 316.49 157.41 313.51 160.55 C 307.50 166.29 301.21 171.98 293.38 175.13 C 284.44 175.15 275.94 178.78 266.93 178.17 C 268.82 175.88 272.46 174.27 272.55 170.99 C 272.25 170.64 271.63 169.95 271.33 169.61 C 267.44 168.68 263.39 169.33 259.44 169.43 C 258.46 166.94 257.20 164.50 254.98 162.90 C 254.17 162.21 253.35 161.54 252.53 160.87 C 252.96 160.01 253.41 159.15 253.86 158.30 C 257.91 163.40 264.83 165.22 271.08 164.22 C 277.29 163.31 282.69 159.91 288.42 157.60 C 291.79 156.25 295.06 154.68 298.28 153.00 C 306.66 150.22 315.35 148.38 323.52 144.97 Z" />
<path fill="#a4c992" opacity="1.00" d=" M 95.38 147.48 C 104.71 145.28 114.09 143.30 123.55 141.74 C 128.36 142.14 133.19 142.43 138.03 142.33 C 126.44 142.20 120.16 158.70 128.52 166.50 C 129.90 168.66 132.54 168.19 134.71 168.14 C 131.50 171.14 129.61 176.14 124.92 177.09 C 109.82 181.28 94.67 185.30 79.55 189.42 C 75.18 189.11 70.82 188.02 66.43 188.57 C 58.69 189.88 51.50 193.75 43.52 193.76 C 38.81 192.10 33.75 190.55 30.33 186.68 C 26.71 183.63 25.24 178.93 21.86 175.69 C 26.76 171.25 31.72 166.85 37.01 162.87 C 37.52 163.55 38.56 164.91 39.07 165.60 C 47.82 162.30 56.04 157.02 62.03 149.77 C 61.57 149.54 60.67 149.09 60.21 148.87 C 65.98 147.23 71.99 146.86 77.94 146.57 C 83.79 146.29 89.55 149.00 95.38 147.48 Z" />
<path fill="#085e78" opacity="1.00" d=" M 324.77 155.12 C 342.10 150.97 359.36 146.55 376.77 142.72 C 377.44 142.84 378.77 143.08 379.44 143.20 C 378.65 145.19 377.86 147.18 377.08 149.16 C 378.00 149.31 378.92 149.45 379.85 149.59 C 375.25 158.03 371.66 167.08 365.77 174.75 C 363.56 177.57 361.38 180.43 359.89 183.71 C 359.50 183.78 358.73 183.92 358.34 183.99 C 349.27 185.24 340.42 187.64 331.50 189.67 C 321.28 192.33 311.55 196.87 302.77 202.72 C 297.94 205.55 292.30 207.14 288.35 211.32 C 283.40 216.30 278.61 221.45 274.05 226.78 C 277.60 228.01 281.19 229.17 284.79 230.28 C 282.73 232.70 279.64 233.17 276.64 233.30 C 276.96 233.88 277.29 234.46 277.61 235.05 C 270.79 239.27 263.61 242.88 256.78 247.10 C 256.30 245.76 255.81 244.43 255.33 243.10 C 254.98 245.18 254.62 247.25 254.35 249.35 C 252.72 232.32 253.34 215.17 254.24 198.12 C 256.19 198.05 258.56 198.70 260.06 197.05 C 261.00 195.50 261.38 193.70 261.94 192.00 C 267.66 191.65 273.49 192.42 279.09 190.86 C 285.89 189.38 292.03 185.66 298.99 184.80 C 304.00 183.98 309.04 184.80 314.02 185.42 C 310.78 183.21 307.71 180.74 304.39 178.64 C 300.92 176.93 297.02 176.41 293.38 175.13 C 301.21 171.98 307.50 166.29 313.51 160.55 C 316.49 157.41 320.66 156.05 324.77 155.12 Z" />
<path fill="#c34465" opacity="1.00" d=" M 165.06 180.15 C 169.33 169.25 167.95 157.27 169.18 145.85 C 170.06 149.88 174.62 149.14 177.74 149.28 C 179.02 151.63 179.73 154.40 181.62 156.35 C 185.13 157.20 188.65 155.11 192.23 155.17 C 192.02 157.84 190.22 162.17 193.82 163.32 C 196.39 163.34 198.92 162.79 201.45 162.45 C 202.23 167.28 205.45 171.37 209.16 174.37 C 209.24 172.95 209.29 171.53 209.33 170.12 C 211.00 169.41 212.68 168.74 214.37 168.10 C 215.92 171.01 217.28 174.06 217.90 177.32 C 217.69 178.52 217.48 179.73 217.28 180.93 C 219.44 178.99 221.70 177.16 223.98 175.35 C 223.05 178.18 222.32 181.07 221.48 183.93 C 221.09 183.45 220.32 182.48 219.93 182.00 C 218.70 183.18 217.48 184.35 216.25 185.54 C 212.75 182.62 209.53 179.31 205.69 176.84 C 203.65 176.34 201.37 176.85 199.49 177.69 C 197.94 179.32 196.81 181.28 195.54 183.12 C 195.24 180.97 195.10 178.77 194.42 176.70 C 193.00 176.00 191.51 175.50 190.03 174.97 C 189.64 181.42 190.00 187.90 189.45 194.34 C 185.91 192.05 185.27 187.48 182.35 184.61 C 180.01 182.29 177.53 179.36 174.08 178.95 C 171.11 180.10 169.03 182.73 166.80 184.89 C 164.49 186.93 165.10 190.31 164.72 193.06 L 163.70 193.23 C 163.91 188.85 163.95 184.42 165.06 180.15 Z" />
<path fill="#fffdcb" opacity="1.00" d=" M 60.21 148.87 C 60.67 149.09 61.57 149.54 62.03 149.77 C 56.04 157.02 47.82 162.30 39.07 165.60 C 38.56 164.91 37.52 163.55 37.01 162.87 C 42.72 158.41 48.42 153.80 54.70 150.19 C 56.53 149.72 58.38 149.32 60.21 148.87 Z" />
<path fill="#4e9c86" opacity="1.00" d=" M 253.86 158.30 C 255.30 155.56 257.01 152.98 258.69 150.39 C 263.42 152.93 268.57 155.14 274.02 155.26 C 282.13 154.82 290.23 154.17 298.28 153.00 C 295.06 154.68 291.79 156.25 288.42 157.60 C 282.69 159.91 277.29 163.31 271.08 164.22 C 264.83 165.22 257.91 163.40 253.86 158.30 Z" />
<path fill="#1d837e" opacity="1.00" d=" M 254.98 162.90 C 257.20 164.50 258.46 166.94 259.44 169.43 C 254.96 169.76 250.47 170.11 246.02 170.74 C 247.98 167.31 253.89 167.39 254.98 162.90 Z" />
<path fill="#1ef8ff" opacity="1.00" d=" M 389.70 167.29 C 396.89 165.04 404.42 163.55 411.98 163.48 C 409.57 164.75 406.71 165.33 404.66 167.17 C 404.32 167.94 404.00 168.71 403.69 169.49 C 402.29 169.75 400.89 170.01 399.51 170.29 C 394.84 170.37 390.16 170.08 385.56 169.28 C 386.91 168.56 388.28 167.88 389.70 167.29 Z" />
<path fill="#d55873" opacity="1.00" d=" M 217.90 177.32 C 219.29 172.05 222.92 167.86 226.10 163.58 C 226.43 165.40 226.75 167.22 227.02 169.05 C 226.55 171.23 225.62 173.29 224.28 175.08 L 223.98 175.35 C 221.70 177.16 219.44 178.99 217.28 180.93 C 217.48 179.73 217.69 178.52 217.90 177.32 Z" />
<path fill="#a7264f" opacity="1.00" d=" M 237.45 165.53 C 240.21 164.46 243.16 165.31 245.92 165.90 C 243.88 166.78 241.38 167.21 240.01 169.13 C 239.84 172.61 244.58 173.27 247.12 174.41 C 253.68 173.64 260.30 173.20 266.92 173.25 C 264.10 175.63 260.56 176.85 256.91 177.14 C 254.08 177.53 250.24 178.63 249.83 181.96 C 250.38 182.19 251.47 182.65 252.02 182.88 C 250.59 185.48 248.92 188.08 248.56 191.09 C 245.14 193.31 242.97 196.88 239.91 199.52 C 238.13 193.41 240.21 187.29 241.53 181.37 C 239.91 178.75 237.41 176.49 234.42 175.60 C 231.09 174.95 227.66 175.04 224.28 175.08 C 225.62 173.29 226.55 171.23 227.02 169.05 C 227.69 169.69 228.36 170.34 229.04 170.99 C 231.76 169.06 234.31 166.77 237.45 165.53 Z" />
<path fill="#0a6c8d" opacity="1.00" d=" M 403.69 169.49 C 404.00 168.71 404.32 167.94 404.66 167.17 C 404.56 171.40 409.32 173.14 411.76 175.91 C 404.58 177.17 397.33 177.98 390.13 179.07 C 388.54 179.22 386.95 179.36 385.37 179.49 C 385.85 176.97 386.54 174.28 388.59 172.56 C 392.23 171.78 396.20 172.35 399.51 170.29 C 400.89 170.01 402.29 169.75 403.69 169.49 Z" />
<path fill="#cf5c6d" opacity="1.00" d=" M 190.03 174.97 C 191.51 175.50 193.00 176.00 194.42 176.70 C 195.10 178.77 195.24 180.97 195.54 183.12 C 196.81 181.28 197.94 179.32 199.49 177.69 C 201.37 176.85 203.65 176.34 205.69 176.84 C 209.53 179.31 212.75 182.62 216.25 185.54 C 217.48 184.35 218.70 183.18 219.93 182.00 C 220.32 182.48 221.09 183.45 221.48 183.93 C 220.12 189.93 217.57 195.84 217.91 202.08 C 217.61 201.61 217.01 200.66 216.71 200.19 C 214.66 204.56 212.70 209.79 207.92 211.83 C 203.13 212.97 198.70 209.69 195.25 206.75 C 191.10 202.23 192.14 195.51 191.57 189.87 C 190.47 197.20 190.16 204.61 189.78 212.01 C 188.53 209.30 187.19 206.64 185.78 204.02 C 183.28 205.79 180.77 207.54 178.22 209.24 C 178.65 207.08 179.10 204.93 179.54 202.78 C 176.25 203.32 173.23 204.77 170.46 206.59 C 170.15 205.62 169.83 204.66 169.51 203.69 C 169.15 203.69 168.42 203.67 168.05 203.67 C 167.54 200.79 167.40 197.88 167.72 194.98 C 167.83 193.32 165.71 193.53 164.72 193.06 C 165.10 190.31 164.49 186.93 166.80 184.89 C 169.03 182.73 171.11 180.10 174.08 178.95 C 177.53 179.36 180.01 182.29 182.35 184.61 C 185.27 187.48 185.91 192.05 189.45 194.34 C 190.00 187.90 189.64 181.42 190.03 174.97 Z" />
<path fill="#b12c58" opacity="1.00" d=" M 223.98 175.35 L 224.28 175.08 C 227.66 175.04 231.09 174.95 234.42 175.60 C 237.41 176.49 239.91 178.75 241.53 181.37 C 240.21 187.29 238.13 193.41 239.91 199.52 C 240.15 199.75 240.63 200.21 240.88 200.44 C 234.05 204.03 226.78 206.76 220.36 211.08 C 219.60 208.07 218.86 205.04 217.91 202.08 C 217.57 195.84 220.12 189.93 221.48 183.93 C 222.32 181.07 223.05 178.18 223.98 175.35 Z" />
<path fill="#80b58c" opacity="1.00" d=" M 6.03 198.75 C 7.82 189.19 15.18 182.18 21.86 175.69 C 25.24 178.93 26.71 183.63 30.33 186.68 C 33.75 190.55 38.81 192.10 43.52 193.76 C 36.91 196.08 29.93 197.06 22.99 197.74 C 17.32 198.47 11.17 195.14 6.03 198.75 Z" />
<path fill="#bd3a61" opacity="1.00" d=" M 158.75 175.88 C 160.62 177.62 162.30 179.88 165.06 180.15 C 163.95 184.42 163.91 188.85 163.70 193.23 C 156.66 193.66 149.76 192.11 142.93 190.65 C 135.89 189.87 128.92 188.63 122.00 187.11 C 130.65 186.07 139.37 186.92 148.03 187.24 C 152.57 187.36 157.20 186.44 161.17 184.18 C 160.10 181.49 159.32 178.71 158.75 175.88 Z" />
<path fill="#138395" opacity="1.00" d=" M 390.13 179.07 C 397.33 177.98 404.58 177.17 411.76 175.91 C 413.83 177.42 415.92 178.92 417.84 180.62 C 410.95 180.34 403.87 180.87 397.33 183.17 C 393.24 183.38 389.15 183.56 385.07 183.96 C 386.54 182.12 388.12 180.34 390.13 179.07 Z" />
<path fill="#8e1837" opacity="1.00" d=" M 283.08 179.82 C 289.50 178.06 296.55 178.91 302.61 181.52 C 298.51 181.93 294.28 181.90 290.39 183.44 C 285.70 185.20 281.03 187.14 276.06 187.93 C 270.22 189.04 264.19 187.69 258.40 189.21 C 258.81 186.41 259.23 183.62 259.50 180.80 C 267.34 182.01 275.36 181.58 283.08 179.82 Z" />
<path fill="#188584" opacity="1.00" d=" M 359.89 183.71 C 368.40 182.43 376.86 180.80 385.37 179.49 C 386.95 179.36 388.54 179.22 390.13 179.07 C 388.12 180.34 386.54 182.12 385.07 183.96 C 389.15 183.56 393.24 183.38 397.33 183.17 C 393.56 185.05 389.77 186.86 385.92 188.56 C 377.89 192.08 369.97 195.83 362.03 199.54 C 353.67 203.26 345.36 207.12 337.06 210.98 C 329.56 214.66 321.72 217.75 314.78 222.47 C 314.39 222.72 313.62 223.23 313.23 223.48 C 313.34 218.79 314.26 213.94 317.12 210.10 C 319.84 206.35 324.22 204.49 327.84 201.80 C 330.49 199.83 331.97 196.54 335.03 195.07 C 340.57 192.09 346.94 191.57 352.89 189.86 C 355.70 189.12 356.87 186.19 358.34 183.99 C 358.73 183.92 359.50 183.78 359.89 183.71 Z" />
<path fill="#981d41" opacity="1.00" d=" M 252.02 182.88 C 254.40 181.84 256.86 180.86 259.50 180.80 C 259.23 183.62 258.81 186.41 258.40 189.21 C 258.15 191.00 257.97 192.80 257.77 194.60 C 256.16 194.61 254.56 194.62 252.96 194.64 C 252.80 193.15 252.63 191.67 252.44 190.19 C 250.92 192.23 251.32 195.04 249.89 197.14 C 249.48 195.12 248.99 193.11 248.56 191.09 C 248.92 188.08 250.59 185.48 252.02 182.88 Z" />
<path fill="#6bbda6" opacity="1.00" d=" M 397.33 183.17 C 403.87 180.87 410.95 180.34 417.84 180.62 C 418.09 180.71 418.60 180.90 418.85 180.99 C 413.18 186.08 409.44 192.83 404.93 198.89 C 402.11 202.53 400.06 206.68 397.37 210.41 C 393.85 215.11 391.43 221.09 385.71 223.60 C 379.23 224.07 372.75 224.48 366.27 224.67 C 364.65 224.41 363.05 224.09 361.45 223.80 C 366.46 219.26 369.86 213.28 373.96 207.96 C 377.57 201.24 383.36 195.87 385.92 188.56 C 389.77 186.86 393.56 185.05 397.33 183.17 Z" />
<path fill="#71c9b7" opacity="1.00" d=" M 404.93 198.89 C 409.44 192.83 413.18 186.08 418.85 180.99 C 422.76 184.35 427.13 187.10 431.15 190.31 C 429.10 195.01 426.93 199.70 423.77 203.77 C 419.55 208.87 417.89 215.43 414.29 220.92 C 416.62 221.22 418.94 221.57 421.29 221.77 C 419.61 221.90 417.94 222.08 416.26 222.21 C 410.59 222.56 404.89 222.47 399.23 223.03 C 394.73 223.38 390.21 223.35 385.71 223.60 C 391.43 221.09 393.85 215.11 397.37 210.41 C 400.06 206.68 402.11 202.53 404.93 198.89 Z" />
<path fill="#137c7f" opacity="1.00" d=" M 331.50 189.67 C 340.42 187.64 349.27 185.24 358.34 183.99 C 356.87 186.19 355.70 189.12 352.89 189.86 C 346.94 191.57 340.57 192.09 335.03 195.07 C 331.97 196.54 330.49 199.83 327.84 201.80 C 324.22 204.49 319.84 206.35 317.12 210.10 C 314.26 213.94 313.34 218.79 313.23 223.48 C 310.13 225.60 306.75 227.41 304.20 230.21 C 297.79 231.13 291.08 232.59 284.79 230.28 C 281.19 229.17 277.60 228.01 274.05 226.78 C 278.61 221.45 283.40 216.30 288.35 211.32 C 292.30 207.14 297.94 205.55 302.77 202.72 C 311.55 196.87 321.28 192.33 331.50 189.67 Z" />
<path fill="#6da98a" opacity="1.00" d=" M 66.43 188.57 C 70.82 188.02 75.18 189.11 79.55 189.42 L 80.21 189.58 C 73.85 190.80 67.66 192.79 61.25 193.77 C 43.16 195.92 25.66 201.27 7.72 204.27 C 7.06 202.46 6.49 200.62 6.03 198.75 C 11.17 195.14 17.32 198.47 22.99 197.74 C 29.93 197.06 36.91 196.08 43.52 193.76 C 51.50 193.75 58.69 189.88 66.43 188.57 Z" />
<path fill="#65b29a" opacity="1.00" d=" M 362.03 199.54 C 369.97 195.83 377.89 192.08 385.92 188.56 C 383.36 195.87 377.57 201.24 373.96 207.96 C 369.86 213.28 366.46 219.26 361.45 223.80 C 363.05 224.09 364.65 224.41 366.27 224.67 C 364.70 224.82 363.16 225.04 361.61 225.20 C 358.52 225.44 355.42 225.56 352.33 225.68 C 349.97 225.38 347.63 224.98 345.28 224.63 C 350.36 222.20 351.16 216.35 353.87 212.00 C 356.15 207.55 359.76 203.98 362.03 199.54 Z" />
<path fill="#1b7e7e" opacity="1.00" d=" M 61.25 193.77 C 67.66 192.79 73.85 190.80 80.21 189.58 C 83.30 190.43 86.24 191.77 89.32 192.66 C 95.46 194.64 102.00 194.09 108.36 194.22 C 104.13 195.17 99.87 196.10 95.87 197.81 C 87.76 201.27 79.47 204.26 71.21 207.32 C 65.97 209.43 60.22 208.92 54.70 209.36 C 42.06 208.49 29.38 208.34 16.74 207.35 C 21.59 207.24 26.58 207.08 31.09 205.08 C 41.01 200.95 51.46 198.22 61.25 193.77 Z" />
<path fill="#d86e77" opacity="1.00" d=" M 189.78 212.01 C 190.16 204.61 190.47 197.20 191.57 189.87 C 192.14 195.51 191.10 202.23 195.25 206.75 C 198.70 209.69 203.13 212.97 207.92 211.83 C 212.70 209.79 214.66 204.56 216.71 200.19 C 217.01 200.66 217.61 201.61 217.91 202.08 C 218.86 205.04 219.60 208.07 220.36 211.08 C 212.30 216.66 204.68 223.42 200.23 232.31 C 198.77 235.20 197.32 238.30 197.70 241.63 C 198.10 241.66 198.91 241.72 199.31 241.74 C 204.75 244.60 210.13 247.61 216.16 249.08 C 216.13 252.28 214.53 255.18 211.18 255.77 C 195.87 258.72 180.67 262.24 165.27 264.68 C 167.17 258.42 169.90 252.11 168.43 245.43 C 166.66 243.35 165.03 241.15 163.27 239.08 C 164.46 237.98 165.64 236.87 166.81 235.74 C 169.27 239.03 173.21 240.56 177.09 241.43 C 179.61 235.10 177.18 227.76 173.75 222.20 C 171.77 218.50 167.65 216.94 164.95 213.91 C 169.95 213.16 167.94 207.12 168.05 203.67 C 168.42 203.67 169.15 203.69 169.51 203.69 C 169.83 204.66 170.15 205.62 170.46 206.59 C 173.23 204.77 176.25 203.32 179.54 202.78 C 179.10 204.93 178.65 207.08 178.22 209.24 C 180.77 207.54 183.28 205.79 185.78 204.02 C 187.19 206.64 188.53 209.30 189.78 212.01 Z" />
<path fill="#0e727b" opacity="1.00" d=" M 120.74 190.79 C 125.87 191.08 130.81 193.00 135.95 193.47 C 140.69 193.86 145.32 194.97 149.99 195.80 C 145.98 198.04 146.16 203.93 141.69 205.61 C 135.85 208.26 129.33 208.74 123.07 209.79 C 110.83 211.93 98.38 210.93 86.04 210.67 C 75.61 209.68 65.11 210.55 54.70 209.36 C 60.22 208.92 65.97 209.43 71.21 207.32 C 79.47 204.26 87.76 201.27 95.87 197.81 C 99.87 196.10 104.13 195.17 108.36 194.22 C 112.59 193.49 116.74 192.35 120.74 190.79 Z" />
<path fill="#ba2d60" opacity="1.00" d=" M 239.91 199.52 C 242.97 196.88 245.14 193.31 248.56 191.09 C 248.99 193.11 249.48 195.12 249.89 197.14 C 249.86 198.56 249.70 200.02 249.19 201.35 C 246.06 205.83 243.77 210.80 241.01 215.50 C 241.10 211.57 239.94 207.82 239.08 204.04 C 240.75 202.21 242.79 200.78 244.63 199.13 C 243.37 199.55 242.12 199.99 240.88 200.44 C 240.63 200.21 240.15 199.75 239.91 199.52 Z" />
<path fill="#77d4c6" opacity="1.00" d=" M 423.77 203.77 C 426.93 199.70 429.10 195.01 431.15 190.31 C 434.43 192.90 437.68 195.52 440.88 198.21 C 434.86 204.22 431.54 212.26 427.00 219.35 C 428.39 219.81 429.78 220.27 431.19 220.69 C 427.90 221.12 424.61 221.58 421.29 221.77 C 418.94 221.57 416.62 221.22 414.29 220.92 C 417.89 215.43 419.55 208.87 423.77 203.77 Z" />
<path fill="#2c8880" opacity="1.00" d=" M 7.72 204.27 C 25.66 201.27 43.16 195.92 61.25 193.77 C 51.46 198.22 41.01 200.95 31.09 205.08 C 26.58 207.08 21.59 207.24 16.74 207.35 C 14.52 207.28 12.30 207.21 10.08 207.14 C 9.30 206.18 8.52 205.22 7.72 204.27 Z" />
<path fill="#065c78" opacity="1.00" d=" M 149.99 195.80 C 154.29 196.83 158.73 196.91 163.13 196.89 C 163.28 201.13 163.69 205.35 164.06 209.57 C 161.88 210.15 157.80 210.73 158.68 213.97 C 160.31 216.17 162.60 217.73 164.68 219.46 C 163.97 224.20 164.01 229.16 165.86 233.66 C 163.01 234.59 159.45 235.84 158.46 238.97 C 159.70 242.04 162.97 243.73 165.32 245.92 C 165.84 251.45 164.46 256.89 162.53 262.03 C 161.42 265.13 158.67 267.34 155.91 268.96 C 144.06 274.94 131.02 278.08 117.98 280.17 C 111.36 281.12 104.64 282.15 97.95 281.30 C 94.44 276.85 91.96 271.73 89.30 266.76 C 84.71 258.03 80.44 249.14 76.20 240.24 C 78.52 240.51 80.86 240.68 83.20 240.60 C 68.48 235.96 54.06 230.42 39.91 224.24 C 29.71 219.08 18.40 215.34 10.08 207.14 C 12.30 207.21 14.52 207.28 16.74 207.35 C 29.38 208.34 42.06 208.49 54.70 209.36 C 65.11 210.55 75.61 209.68 86.04 210.67 C 98.38 210.93 110.83 211.93 123.07 209.79 C 129.33 208.74 135.85 208.26 141.69 205.61 C 146.16 203.93 145.98 198.04 149.99 195.80 Z" />
<path fill="#000000" opacity="1.00" d=" M 240.88 200.44 C 242.12 199.99 243.37 199.55 244.63 199.13 C 242.79 200.78 240.75 202.21 239.08 204.04 C 239.94 207.82 241.10 211.57 241.01 215.50 C 240.48 218.43 240.12 221.41 239.16 224.24 C 237.77 228.05 234.90 231.09 231.85 233.66 C 226.64 237.53 220.42 239.98 214.01 240.89 C 209.14 241.63 204.20 241.22 199.31 241.74 C 198.91 241.72 198.10 241.66 197.70 241.63 C 197.32 238.30 198.77 235.20 200.23 232.31 C 204.68 223.42 212.30 216.66 220.36 211.08 C 226.78 206.76 234.05 204.03 240.88 200.44 M 224.85 212.22 L 224.91 212.46 C 214.44 218.19 205.47 227.16 200.94 238.31 C 208.53 238.14 216.37 237.83 223.41 234.65 L 223.48 234.13 C 227.56 233.32 230.48 230.09 233.08 227.08 C 237.75 221.58 237.43 213.54 235.40 207.02 C 231.77 208.52 228.44 210.63 224.85 212.22 Z" />
<path fill="#7bdcd0" opacity="1.00" d=" M 427.00 219.35 C 431.54 212.26 434.86 204.22 440.88 198.21 C 443.21 200.27 445.50 202.38 447.77 204.52 C 446.05 210.37 442.66 215.65 438.20 219.79 C 437.82 219.86 437.07 219.98 436.69 220.04 C 434.85 220.28 433.03 220.51 431.19 220.69 C 429.78 220.27 428.39 219.81 427.00 219.35 Z" />
<path fill="#5eaa92" opacity="1.00" d=" M 337.06 210.98 C 345.36 207.12 353.67 203.26 362.03 199.54 C 359.76 203.98 356.15 207.55 353.87 212.00 C 351.16 216.35 350.36 222.20 345.28 224.63 C 347.63 224.98 349.97 225.38 352.33 225.68 C 340.96 226.66 329.57 227.55 318.20 228.60 C 317.33 228.32 316.47 228.04 315.62 227.76 C 315.86 227.28 316.33 226.32 316.57 225.84 C 315.97 224.72 315.36 223.59 314.78 222.47 C 321.72 217.75 329.56 214.66 337.06 210.98 Z" />
<path fill="#911b3c" opacity="1.00" d=" M 241.01 215.50 C 243.77 210.80 246.06 205.83 249.19 201.35 C 248.68 213.23 248.21 225.12 248.67 237.01 C 248.63 240.84 249.38 244.67 249.04 248.50 C 248.23 251.52 248.31 254.95 246.74 257.67 C 242.51 261.48 238.04 265.18 232.92 267.74 C 231.46 266.51 229.89 265.44 228.17 264.61 C 228.67 264.50 229.65 264.28 230.14 264.17 C 228.75 254.01 228.63 243.51 231.85 233.66 C 234.90 231.09 237.77 228.05 239.16 224.24 C 240.12 221.41 240.48 218.43 241.01 215.50 Z" />
<path fill="#7de4dc" opacity="1.00" d=" M 447.77 204.52 C 451.66 208.40 455.52 212.36 458.44 217.05 C 451.70 217.99 444.94 218.87 438.20 219.79 C 442.66 215.65 446.05 210.37 447.77 204.52 Z" />
<path fill="#9a125e" opacity="1.00" d=" M 224.85 212.22 C 228.44 210.63 231.77 208.52 235.40 207.02 C 237.43 213.54 237.75 221.58 233.08 227.08 C 230.48 230.09 227.56 233.32 223.48 234.13 C 224.30 226.97 226.63 219.65 224.91 212.46 L 224.85 212.22 Z" />
<path fill="#ff3d83" opacity="1.00" d=" M 200.94 238.31 C 205.47 227.16 214.44 218.19 224.91 212.46 C 226.63 219.65 224.30 226.97 223.48 234.13 L 223.41 234.65 C 216.37 237.83 208.53 238.14 200.94 238.31 Z" />
<path fill="#0c8aca" opacity="1.00" d=" M 438.20 219.79 C 444.94 218.87 451.70 217.99 458.44 217.05 C 459.17 219.18 460.26 221.65 458.77 223.74 C 455.58 228.60 450.33 231.53 445.54 234.57 C 435.73 240.25 425.34 245.04 414.55 248.51 C 414.23 248.34 413.59 247.99 413.27 247.82 C 421.48 240.85 428.25 232.45 435.10 224.19 C 436.06 223.01 436.31 221.47 436.69 220.04 C 437.07 219.98 437.82 219.86 438.20 219.79 Z" />
<path fill="#0b80bb" opacity="1.00" d=" M 431.19 220.69 C 433.03 220.51 434.85 220.28 436.69 220.04 C 436.31 221.47 436.06 223.01 435.10 224.19 C 428.25 232.45 421.48 240.85 413.27 247.82 C 413.59 247.99 414.23 248.34 414.55 248.51 L 414.83 248.66 C 409.19 250.86 403.36 252.53 397.75 254.78 C 388.71 258.58 379.63 262.30 370.41 265.64 L 370.62 264.50 C 375.51 260.90 381.56 259.17 386.21 255.20 C 391.83 250.19 396.90 244.57 402.54 239.60 C 407.14 236.91 410.07 232.37 413.79 228.70 C 415.64 227.05 415.99 224.53 416.26 222.21 C 417.94 222.08 419.61 221.90 421.29 221.77 C 424.61 221.58 427.90 221.12 431.19 220.69 Z" />
<path fill="#9b125f" opacity="1.00" d=" M 167.39 221.47 C 167.75 221.22 168.46 220.72 168.82 220.47 C 172.05 226.16 175.55 232.23 175.68 238.93 C 173.06 237.56 169.90 236.09 169.02 232.98 C 167.87 229.27 167.32 225.35 167.39 221.47 Z" />
<path fill="#4d9c8c" opacity="1.00" d=" M 313.23 223.48 C 313.62 223.23 314.39 222.72 314.78 222.47 C 315.36 223.59 315.97 224.72 316.57 225.84 C 316.33 226.32 315.86 227.28 315.62 227.76 C 316.47 228.04 317.33 228.32 318.20 228.60 C 313.53 229.13 308.87 229.67 304.20 230.21 C 306.75 227.41 310.13 225.60 313.23 223.48 Z" />
<path fill="#09709c" opacity="1.00" d=" M 366.27 224.67 C 372.75 224.48 379.23 224.07 385.71 223.60 C 390.21 223.35 394.73 223.38 399.23 223.03 C 397.78 223.91 396.40 224.91 395.03 225.91 C 394.94 227.02 395.24 228.33 394.27 229.17 C 386.60 237.85 377.97 245.62 369.24 253.21 C 366.78 255.40 363.02 254.45 360.40 256.34 C 358.30 257.74 356.27 259.22 354.12 260.54 C 353.03 259.92 351.95 259.31 350.86 258.71 C 344.48 255.51 338.02 252.45 331.20 250.29 C 333.94 249.69 336.47 248.46 338.65 246.69 C 344.33 242.30 350.32 238.30 355.81 233.65 C 355.18 233.33 353.93 232.67 353.30 232.35 C 356.25 230.19 359.12 227.89 361.61 225.20 C 363.16 225.04 364.70 224.82 366.27 224.67 Z" />
<path fill="#0a7aad" opacity="1.00" d=" M 399.23 223.03 C 404.89 222.47 410.59 222.56 416.26 222.21 C 415.99 224.53 415.64 227.05 413.79 228.70 C 410.07 232.37 407.14 236.91 402.54 239.60 C 396.90 244.57 391.83 250.19 386.21 255.20 C 381.56 259.17 375.51 260.90 370.62 264.50 L 370.41 265.64 C 370.38 265.81 370.32 266.16 370.30 266.33 C 372.39 266.06 374.48 265.75 376.58 265.46 C 376.44 266.26 376.16 267.86 376.02 268.66 L 375.83 268.71 C 375.54 268.80 374.94 268.99 374.65 269.08 C 374.02 269.48 373.41 269.89 372.81 270.32 C 366.61 266.99 360.38 263.74 354.12 260.54 C 356.27 259.22 358.30 257.74 360.40 256.34 C 363.02 254.45 366.78 255.40 369.24 253.21 C 377.97 245.62 386.60 237.85 394.27 229.17 C 395.24 228.33 394.94 227.02 395.03 225.91 C 396.40 224.91 397.78 223.91 399.23 223.03 Z" />
<path fill="#076185" opacity="1.00" d=" M 352.33 225.68 C 355.42 225.56 358.52 225.44 361.61 225.20 C 359.12 227.89 356.25 230.19 353.30 232.35 C 353.93 232.67 355.18 233.33 355.81 233.65 C 350.32 238.30 344.33 242.30 338.65 246.69 C 336.47 248.46 333.94 249.69 331.20 250.29 L 330.17 249.83 C 324.30 246.81 317.44 245.61 310.93 246.72 C 304.21 247.85 298.95 254.39 299.77 261.26 C 297.68 263.03 296.53 265.42 295.77 267.99 C 294.10 270.06 291.87 271.74 290.99 274.36 C 282.94 275.94 277.48 282.68 271.24 287.45 C 271.50 288.89 271.75 290.34 272.00 291.78 C 267.03 290.17 261.98 288.59 256.69 288.60 C 255.84 275.52 254.33 262.46 254.35 249.35 C 254.62 247.25 254.98 245.18 255.33 243.10 C 255.81 244.43 256.30 245.76 256.78 247.10 C 263.61 242.88 270.79 239.27 277.61 235.05 C 277.29 234.46 276.96 233.88 276.64 233.30 C 279.64 233.17 282.73 232.70 284.79 230.28 C 291.08 232.59 297.79 231.13 304.20 230.21 C 308.87 229.67 313.53 229.13 318.20 228.60 C 329.57 227.55 340.96 226.66 352.33 225.68 Z" />
<path fill="#bd3665" opacity="1.00" d=" M 214.01 240.89 C 220.42 239.98 226.64 237.53 231.85 233.66 C 228.63 243.51 228.75 254.01 230.14 264.17 C 229.65 264.28 228.67 264.50 228.17 264.61 C 223.60 265.77 218.88 264.77 214.26 264.54 C 213.81 265.01 212.92 265.94 212.47 266.41 C 210.65 266.93 208.81 267.32 206.96 267.70 C 207.50 263.46 209.16 259.50 211.18 255.77 C 214.53 255.18 216.13 252.28 216.16 249.08 C 210.13 247.61 204.75 244.60 199.31 241.74 C 204.20 241.22 209.14 241.63 214.01 240.89 Z" />
<path fill="#0b718e" opacity="1.00" d=" M 310.93 246.72 C 317.44 245.61 324.30 246.81 330.17 249.83 C 323.23 251.96 318.09 257.14 312.48 261.43 C 309.95 263.48 308.35 266.37 306.65 269.08 C 304.51 266.41 301.14 266.33 298.03 266.72 C 299.34 265.79 300.65 264.85 301.96 263.91 C 301.22 263.02 300.49 262.14 299.77 261.26 C 298.95 254.39 304.21 247.85 310.93 246.72 Z" />
<path fill="#921f43" opacity="1.00" d=" M 246.74 257.67 C 248.31 254.95 248.23 251.52 249.04 248.50 C 250.12 262.91 250.47 277.41 252.43 291.73 C 250.19 293.53 247.98 295.36 245.83 297.27 C 245.83 295.87 245.85 294.48 245.88 293.09 C 244.77 291.45 243.62 289.84 242.47 288.24 C 243.83 287.51 245.19 286.79 246.55 286.06 C 242.86 286.24 239.10 286.67 235.79 288.42 C 235.00 287.70 234.29 286.93 233.64 286.09 C 233.85 283.60 236.63 282.47 237.14 280.10 C 237.37 278.42 237.28 276.73 237.28 275.05 C 236.08 274.82 234.90 274.54 233.74 274.22 C 232.91 272.24 233.02 269.98 232.65 267.89 L 232.92 267.74 C 238.04 265.18 242.51 261.48 246.74 257.67 Z" />
<path fill="#0e7d9a" opacity="1.00" d=" M 312.48 261.43 C 318.09 257.14 323.23 251.96 330.17 249.83 L 331.20 250.29 C 338.02 252.45 344.48 255.51 350.86 258.71 C 345.11 259.72 340.99 264.14 336.59 267.57 C 332.18 271.84 327.22 275.63 323.73 280.74 C 321.46 279.41 318.97 278.54 316.54 277.56 C 312.48 275.74 309.72 272.14 306.65 269.08 C 308.35 266.37 309.95 263.48 312.48 261.43 Z" />
<path fill="#c13f67" opacity="1.00" d=" M 165.27 264.68 C 180.67 262.24 195.87 258.72 211.18 255.77 C 209.16 259.50 207.50 263.46 206.96 267.70 C 208.81 267.32 210.65 266.93 212.47 266.41 C 208.39 270.18 205.60 275.07 201.78 279.09 C 200.85 275.57 201.25 271.40 199.04 268.39 C 196.61 268.93 194.60 270.52 192.43 271.65 C 191.66 267.63 187.20 267.65 183.97 267.45 C 180.66 266.94 177.75 269.28 174.44 268.76 C 173.54 267.63 172.53 265.59 170.80 266.68 C 166.35 269.68 162.78 273.79 158.46 276.97 C 160.78 272.90 163.51 269.05 165.27 264.68 Z" />
<path fill="#128eaf" opacity="1.00" d=" M 336.59 267.57 C 340.99 264.14 345.11 259.72 350.86 258.71 C 351.95 259.31 353.03 259.92 354.12 260.54 C 360.38 263.74 366.61 266.99 372.81 270.32 C 373.41 269.89 374.02 269.48 374.65 269.08 C 374.94 268.99 375.54 268.80 375.83 268.71 C 375.58 269.92 375.32 271.12 375.06 272.32 L 374.91 272.37 C 373.51 272.63 372.17 273.17 371.14 274.19 C 363.03 281.42 352.84 286.88 347.51 296.75 C 342.54 293.62 337.64 290.38 332.73 287.15 C 329.58 285.23 326.70 282.92 323.73 280.74 C 327.22 275.63 332.18 271.84 336.59 267.57 Z" />
<path fill="#086a94" opacity="1.00" d=" M 295.77 267.99 C 296.53 265.42 297.68 263.03 299.77 261.26 C 300.49 262.14 301.22 263.02 301.96 263.91 C 300.65 264.85 299.34 265.79 298.03 266.72 C 301.14 266.33 304.51 266.41 306.65 269.08 C 309.72 272.14 312.48 275.74 316.54 277.56 C 316.54 278.53 316.55 279.51 316.57 280.50 C 315.37 281.16 314.18 281.84 312.99 282.52 C 312.33 286.06 309.29 287.76 305.99 288.39 C 297.98 285.37 289.69 283.02 281.17 282.03 C 284.83 284.85 289.12 286.63 293.17 288.78 C 292.39 288.93 290.84 289.22 290.06 289.37 C 290.31 290.15 290.56 290.94 290.82 291.73 C 287.76 294.16 284.88 296.81 282.04 299.49 C 282.57 298.28 283.11 297.08 283.65 295.89 C 280.10 293.69 275.93 293.00 272.00 291.78 C 271.75 290.34 271.50 288.89 271.24 287.45 C 277.48 282.68 282.94 275.94 290.99 274.36 C 291.87 271.74 294.10 270.06 295.77 267.99 Z" />
<path fill="#111111" opacity="1.00" d=" M 201.92 284.08 C 208.04 279.19 211.50 271.48 217.93 266.90 C 221.72 266.89 226.89 265.93 229.29 269.69 C 229.87 271.67 229.99 273.75 230.29 275.78 C 231.58 276.84 232.88 277.89 234.19 278.94 C 231.48 282.72 228.99 286.65 226.78 290.75 C 226.00 290.20 225.22 289.65 224.44 289.11 C 222.12 299.17 220.09 309.34 219.68 319.69 C 216.31 320.20 212.51 321.31 209.95 318.31 C 205.92 319.28 202.20 321.75 197.92 321.53 C 194.44 321.37 190.96 321.51 187.48 321.68 C 186.41 317.96 186.21 314.08 185.47 310.31 C 185.23 308.64 183.17 308.94 181.99 309.06 C 174.21 309.71 167.47 314.15 161.36 318.69 C 159.79 315.58 158.12 312.53 156.42 309.50 C 157.85 308.28 159.53 307.26 160.60 305.68 C 160.95 303.26 160.51 300.82 160.38 298.40 C 163.25 296.78 166.63 295.22 167.90 291.92 C 170.15 286.20 168.95 279.95 169.16 273.98 C 169.04 272.69 170.45 272.07 171.10 271.16 C 177.00 272.47 182.95 269.62 188.81 271.36 C 190.11 272.42 191.05 273.83 192.11 275.12 C 193.74 274.51 195.38 273.89 197.01 273.28 C 198.11 276.96 196.92 283.21 201.92 284.08 Z" />
<path fill="#159bc2" opacity="1.00" d=" M 371.14 274.19 C 372.17 273.17 373.51 272.63 374.91 272.37 C 372.50 280.70 368.54 288.54 363.86 295.83 C 361.81 298.75 359.89 301.91 356.99 304.07 C 353.40 304.42 349.81 303.70 346.29 303.07 C 348.73 302.25 351.24 301.69 353.80 301.43 C 351.69 299.88 349.64 298.26 347.51 296.75 C 352.84 286.88 363.03 281.42 371.14 274.19 Z" />
<path fill="#0975a5" opacity="1.00" d=" M 316.54 277.56 C 318.97 278.54 321.46 279.41 323.73 280.74 C 326.70 282.92 329.58 285.23 332.73 287.15 C 331.70 288.91 330.42 290.50 328.94 291.89 C 328.42 293.18 327.92 294.48 327.45 295.79 C 320.45 292.87 313.12 290.93 305.99 288.39 C 309.29 287.76 312.33 286.06 312.99 282.52 C 314.18 281.84 315.37 281.16 316.57 280.50 C 316.55 279.51 316.54 278.53 316.54 277.56 Z" />
<path fill="#1bf2ff" opacity="1.00" d=" M 281.17 282.03 C 289.69 283.02 297.98 285.37 305.99 288.39 C 313.12 290.93 320.45 292.87 327.45 295.79 C 328.86 296.36 330.27 296.94 331.69 297.52 C 331.69 298.22 331.68 299.60 331.68 300.30 C 319.82 297.49 308.20 293.75 296.78 289.50 C 296.06 289.41 294.62 289.24 293.90 289.16 L 293.17 288.78 C 289.12 286.63 284.83 284.85 281.17 282.03 Z" />
<path fill="#0c82b7" opacity="1.00" d=" M 332.73 287.15 C 337.64 290.38 342.54 293.62 347.51 296.75 C 349.64 298.26 351.69 299.88 353.80 301.43 C 351.24 301.69 348.73 302.25 346.29 303.07 C 341.35 302.84 336.51 301.33 331.68 300.30 C 331.68 299.60 331.69 298.22 331.69 297.52 C 330.27 296.94 328.86 296.36 327.45 295.79 C 327.92 294.48 328.42 293.18 328.94 291.89 C 330.42 290.50 331.70 288.91 332.73 287.15 Z" />
<path fill="#1bf0ff" opacity="1.00" d=" M 256.69 288.60 C 261.98 288.59 267.03 290.17 272.00 291.78 C 275.93 293.00 280.10 293.69 283.65 295.89 C 283.11 297.08 282.57 298.28 282.04 299.49 C 275.69 297.98 269.61 295.58 263.43 293.52 C 260.86 292.41 257.51 291.69 256.69 288.60 Z" />
<path fill="#111111" opacity="1.00" d=" M 227.90 293.48 C 232.71 294.35 237.32 289.26 241.75 292.20 C 243.09 295.80 240.36 299.89 241.53 303.60 C 242.79 305.40 244.44 306.88 245.96 308.47 C 244.98 309.79 243.38 311.61 241.63 310.29 C 235.13 306.60 231.69 299.61 227.90 293.48 Z" />
<path fill="#8e2952" opacity="1.00" d=" M 245.83 297.27 C 247.98 295.36 250.19 293.53 252.43 291.73 C 253.36 294.74 253.84 297.89 254.98 300.83 C 255.96 302.38 258.12 301.61 259.60 301.97 C 259.41 304.07 258.38 305.93 257.54 307.82 C 258.08 309.48 257.97 311.21 257.69 312.92 C 260.65 317.77 264.06 322.35 266.59 327.46 C 262.95 329.55 262.70 333.98 261.36 337.53 C 260.59 336.63 259.85 335.72 259.12 334.81 C 254.94 329.38 251.74 323.20 246.88 318.31 C 248.13 317.01 249.99 316.63 251.29 315.45 C 252.51 313.16 253.42 310.24 252.45 307.73 C 250.56 306.17 248.31 304.92 247.22 302.61 C 246.70 302.34 245.67 301.80 245.15 301.54 C 245.39 300.11 245.62 298.69 245.83 297.27 Z" />
<path fill="#d36974" opacity="1.00" d=" M 140.49 295.24 C 145.54 303.41 151.72 310.87 156.82 318.97 C 156.55 322.46 156.81 326.22 155.24 329.45 C 151.32 334.74 146.98 340.03 140.98 343.04 C 138.74 343.23 136.54 342.56 134.36 342.20 C 135.73 339.75 137.98 337.71 138.81 335.02 C 137.94 332.34 135.68 330.26 134.54 327.65 C 137.03 326.39 139.75 325.51 141.90 323.67 C 139.61 314.40 140.49 304.69 140.49 295.24 Z" />
<path fill="#b84e6f" opacity="1.00" d=" M 226.09 297.62 C 229.39 305.30 234.96 312.89 243.42 315.16 L 243.34 316.13 C 242.80 322.52 242.56 328.95 241.39 335.27 C 241.14 332.72 240.59 330.22 239.90 327.76 C 238.01 329.60 236.28 331.60 234.48 333.53 C 232.07 336.30 228.05 337.00 225.96 340.13 C 224.77 342.28 222.14 341.68 220.09 341.92 C 219.95 340.95 219.79 340.00 219.63 339.05 C 218.56 333.84 216.60 328.80 216.56 323.42 C 220.82 324.03 223.05 319.71 222.82 315.99 C 222.67 309.68 225.32 303.80 226.09 297.62 Z" />
<path fill="#d16c78" opacity="1.00" d=" M 160.19 322.25 C 167.39 319.48 173.69 314.22 181.53 313.25 C 182.19 317.87 182.17 323.80 186.88 326.34 C 193.38 325.34 200.04 325.34 206.41 323.48 C 202.86 328.79 196.86 332.98 196.02 339.70 C 195.92 343.26 194.07 346.27 192.01 349.03 C 186.05 350.07 179.79 351.81 173.79 350.17 C 169.18 348.60 168.79 343.06 169.01 338.96 C 169.04 336.20 171.15 334.19 172.59 332.05 C 166.64 331.15 161.28 334.78 155.38 334.34 C 157.69 330.62 158.84 326.37 160.19 322.25 Z" />
<path fill="#ac3d72" opacity="1.00" d=" M 243.34 316.13 L 243.73 315.03 C 244.79 316.10 245.84 317.20 246.88 318.31 C 251.74 323.20 254.94 329.38 259.12 334.81 C 261.32 341.40 258.26 347.75 255.92 353.80 C 252.42 350.86 249.78 347.12 247.28 343.33 L 247.03 344.86 C 246.66 341.61 243.53 340.23 241.08 338.70 C 241.18 337.56 241.28 336.41 241.39 335.27 C 242.56 328.95 242.80 322.52 243.34 316.13 Z" />
<path fill="#c14169" opacity="1.00" d=" M 156.82 318.97 C 157.94 320.05 159.07 321.15 160.19 322.25 C 158.84 326.37 157.69 330.62 155.38 334.34 C 153.96 335.97 151.76 337.46 152.20 339.95 C 151.84 345.14 156.91 348.12 161.11 349.70 C 166.53 352.01 172.24 353.46 178.03 354.52 C 178.49 355.03 179.42 356.03 179.88 356.53 C 175.38 357.94 170.70 359.00 165.94 358.74 C 163.83 358.45 161.87 359.29 159.97 360.09 C 156.52 357.95 153.19 355.13 148.99 354.75 C 146.52 355.11 144.52 356.90 142.03 357.16 C 135.37 357.94 128.66 358.17 122.03 359.17 C 121.20 357.78 120.38 356.37 119.65 354.94 L 119.91 354.23 C 122.14 353.15 124.87 353.32 127.11 352.10 C 129.77 349.00 132.01 345.55 134.36 342.20 C 136.54 342.56 138.74 343.23 140.98 343.04 C 146.98 340.03 151.32 334.74 155.24 329.45 C 156.81 326.22 156.55 322.46 156.82 318.97 Z" />
<path fill="#c15273" opacity="1.00" d=" M 206.41 323.48 C 207.36 322.77 208.57 322.49 209.65 322.02 C 210.03 322.50 210.79 323.46 211.17 323.94 C 212.96 323.75 214.76 323.56 216.56 323.42 C 216.60 328.80 218.56 333.84 219.63 339.05 C 218.32 339.96 217.06 340.98 215.62 341.69 C 212.44 342.01 209.29 340.54 206.13 341.14 C 203.95 342.23 202.31 344.11 200.52 345.72 C 198.98 343.74 197.48 341.74 196.02 339.70 C 196.86 332.98 202.86 328.79 206.41 323.48 Z" />
<path fill="#b9577b" opacity="1.00" d=" M 234.48 333.53 C 236.28 331.60 238.01 329.60 239.90 327.76 C 240.59 330.22 241.14 332.72 241.39 335.27 C 241.28 336.41 241.18 337.56 241.08 338.70 C 243.53 340.23 246.66 341.61 247.03 344.86 C 247.69 348.53 249.53 351.80 251.87 354.66 C 250.10 356.50 248.91 358.76 247.88 361.08 C 244.84 360.22 241.74 359.50 238.91 358.09 C 235.19 356.28 233.79 351.77 230.08 349.97 C 226.89 348.40 223.43 347.48 220.26 345.86 C 219.46 345.25 218.67 344.64 217.89 344.02 C 218.62 343.31 219.35 342.61 220.09 341.92 C 222.14 341.68 224.77 342.28 225.96 340.13 C 228.05 337.00 232.07 336.30 234.48 333.53 Z" />
<path fill="#8d3467" opacity="1.00" d=" M 261.36 337.53 C 262.70 333.98 262.95 329.55 266.59 327.46 C 270.63 332.70 277.95 332.54 283.75 334.50 C 283.51 338.54 282.52 342.73 283.88 346.68 C 281.96 351.24 279.23 355.49 278.19 360.38 C 277.38 361.00 276.56 361.62 275.76 362.24 C 273.80 361.55 271.99 360.52 270.33 359.30 C 270.93 356.31 272.88 352.90 270.93 350.05 C 268.05 345.65 264.59 341.66 261.36 337.53 Z" />
<path fill="#cb5973" opacity="1.00" d=" M 155.38 334.34 C 161.28 334.78 166.64 331.15 172.59 332.05 C 171.15 334.19 169.04 336.20 169.01 338.96 C 168.79 343.06 169.18 348.60 173.79 350.17 C 179.79 351.81 186.05 350.07 192.01 349.03 C 188.31 353.57 190.02 359.58 189.66 364.90 C 187.14 368.05 183.26 369.85 180.29 372.56 C 175.63 373.91 170.75 374.36 166.00 375.32 C 166.33 373.80 166.66 372.28 166.99 370.77 C 172.65 369.54 175.71 364.51 178.67 360.04 C 181.59 362.50 184.78 364.89 188.74 365.17 C 188.76 361.54 188.69 357.91 188.57 354.28 C 185.06 354.30 181.54 354.53 178.03 354.52 C 172.24 353.46 166.53 352.01 161.11 349.70 C 156.91 348.12 151.84 345.14 152.20 339.95 C 151.76 337.46 153.96 335.97 155.38 334.34 Z" />
<path fill="#993b6f" opacity="1.00" d=" M 259.12 334.81 C 259.85 335.72 260.59 336.63 261.36 337.53 C 264.59 341.66 268.05 345.65 270.93 350.05 C 272.88 352.90 270.93 356.31 270.33 359.30 C 267.09 358.28 263.62 358.51 260.37 357.63 C 258.76 356.51 257.38 355.10 255.92 353.80 C 258.26 347.75 261.32 341.40 259.12 334.81 Z" />
<path fill="#ba4070" opacity="1.00" d=" M 219.63 339.05 C 219.79 340.00 219.95 340.95 220.09 341.92 C 219.35 342.61 218.62 343.31 217.89 344.02 C 218.67 344.64 219.46 345.25 220.26 345.86 C 220.33 347.18 220.41 348.52 220.48 349.85 C 218.21 351.42 215.59 352.69 213.92 354.95 C 213.44 356.33 213.67 357.82 213.61 359.25 C 211.17 359.33 208.73 359.59 206.44 360.46 C 202.01 362.00 196.99 360.58 192.71 362.71 C 189.91 364.28 191.57 367.82 191.67 370.30 C 187.99 371.52 184.17 372.35 180.29 372.56 C 183.26 369.85 187.14 368.05 189.66 364.90 C 190.02 359.58 188.31 353.57 192.01 349.03 C 194.07 346.27 195.92 343.26 196.02 339.70 C 197.48 341.74 198.98 343.74 200.52 345.72 C 202.31 344.11 203.95 342.23 206.13 341.14 C 209.29 340.54 212.44 342.01 215.62 341.69 C 217.06 340.98 218.32 339.96 219.63 339.05 Z" />
<path fill="#ae3b71" opacity="1.00" d=" M 220.26 345.86 C 223.43 347.48 226.89 348.40 230.08 349.97 C 233.79 351.77 235.19 356.28 238.91 358.09 C 241.74 359.50 244.84 360.22 247.88 361.08 L 247.59 361.59 C 245.14 363.59 242.92 365.87 241.34 368.64 C 238.55 368.01 235.75 367.41 232.94 366.86 C 233.28 365.52 233.62 364.19 233.98 362.87 C 229.69 358.09 222.14 358.95 217.84 354.14 C 218.27 355.33 219.04 356.27 220.16 356.97 C 219.33 359.90 215.88 358.84 213.61 359.25 C 213.67 357.82 213.44 356.33 213.92 354.95 C 215.59 352.69 218.21 351.42 220.48 349.85 C 220.41 348.52 220.33 347.18 220.26 345.86 Z" />
<path fill="#8c3d75" opacity="1.00" d=" M 283.88 346.68 C 284.75 346.39 286.49 345.81 287.36 345.52 C 290.09 348.42 293.00 351.16 295.98 353.80 C 293.13 357.83 291.47 363.08 286.80 365.47 C 283.20 364.14 279.66 362.37 275.76 362.24 C 276.56 361.62 277.38 361.00 278.19 360.38 C 279.23 355.49 281.96 351.24 283.88 346.68 Z" />
<path fill="#d36f7f" opacity="1.00" d=" M 178.03 354.52 C 181.54 354.53 185.06 354.30 188.57 354.28 C 188.69 357.91 188.76 361.54 188.74 365.17 C 184.78 364.89 181.59 362.50 178.67 360.04 C 180.23 358.27 181.95 356.65 183.76 355.15 C 182.47 355.61 181.17 356.07 179.88 356.53 C 179.42 356.03 178.49 355.03 178.03 354.52 Z" />
<path fill="#8f4683" opacity="1.00" d=" M 286.80 365.47 C 291.47 363.08 293.13 357.83 295.98 353.80 C 301.13 357.92 306.51 362.03 312.82 364.18 C 316.18 365.12 319.70 365.44 323.05 366.47 C 315.35 367.56 307.66 365.61 299.96 366.37 C 295.54 366.84 291.16 366.06 286.80 365.47 Z" />
<path fill="#c64c6a" opacity="1.00" d=" M 91.69 360.42 C 100.55 357.63 109.79 355.75 118.98 354.59 L 119.65 354.94 C 120.38 356.37 121.20 357.78 122.03 359.17 C 113.09 360.52 104.07 361.16 95.03 361.15 C 93.84 361.21 92.73 360.97 91.69 360.42 Z" />
<path fill="#993b6b" opacity="1.00" d=" M 251.87 354.66 C 255.31 357.99 259.19 360.98 261.80 365.08 C 256.82 365.19 252.00 363.82 247.59 361.59 L 247.88 361.08 C 248.91 358.76 250.10 356.50 251.87 354.66 Z" />
<path fill="#893161" opacity="1.00" d=" M 241.34 368.64 C 242.92 365.87 245.14 363.59 247.59 361.59 C 252.00 363.82 256.82 365.19 261.80 365.08 C 265.30 369.56 272.65 369.53 274.16 375.72 C 263.38 372.52 252.04 371.97 241.24 368.79 L 241.34 368.64 Z" />
<path fill="#ca4470" opacity="1.00" d=" M 151.55 376.76 C 156.62 374.58 161.74 372.49 166.99 370.77 C 166.66 372.28 166.33 373.80 166.00 375.32 C 161.21 375.98 156.41 376.77 151.55 376.76 Z" />
</svg>
