<?xml version="1.0" encoding="UTF-8" ?>
<!DOCTYPE svg PUBLIC "-//W3C//DTD SVG 1.1//EN" "http://www.w3.org/Graphics/SVG/1.1/DTD/svg11.dtd">
<svg width="498pt" height="454pt" viewBox="0 0 498 454" version="1.1" xmlns="http://www.w3.org/2000/svg">
<g id="#060505f6">
<path fill="#060505" opacity="0.96" d=" M 181.81 82.92 C 189.01 65.00 185.90 40.75 199.08 25.98 C 222.07 36.01 236.94 60.95 248.13 81.99 C 256.10 76.00 262.11 65.54 270.07 59.07 C 274.74 58.17 269.77 66.21 269.99 68.01 C 268.04 78.71 258.92 88.37 262.28 99.69 C 265.35 110.00 253.43 116.10 253.67 125.71 C 250.02 128.84 245.30 132.19 246.25 137.64 C 249.91 139.63 253.49 141.75 257.03 143.94 C 262.03 140.40 271.40 130.71 276.01 140.02 C 280.46 147.35 291.56 165.24 276.36 167.30 C 265.99 164.62 270.66 173.09 269.23 178.68 C 269.18 185.57 272.49 192.17 276.92 197.24 C 279.33 195.66 281.76 191.05 284.87 194.09 C 297.73 204.41 303.33 221.58 316.07 231.81 C 321.18 229.65 325.07 234.17 328.95 236.74 C 335.49 231.92 348.25 247.07 341.02 251.93 C 385.62 295.18 434.94 334.29 476.25 381.10 C 472.79 385.13 468.53 379.00 465.07 377.91 C 417.43 344.28 369.80 310.48 319.93 280.18 C 313.49 282.32 307.24 275.38 303.95 271.02 C 309.62 263.75 299.75 258.36 297.01 252.05 C 297.36 239.67 282.70 236.23 275.00 228.90 C 281.73 247.82 272.39 270.30 286.00 287.03 C 291.83 299.67 306.81 308.49 307.97 322.89 C 302.55 333.53 293.11 341.51 286.36 351.32 C 278.57 357.49 284.60 371.18 273.27 374.31 C 273.89 382.59 273.09 391.16 275.91 399.12 C 279.83 408.10 289.73 415.14 288.95 425.82 C 284.88 428.20 280.77 431.07 276.03 431.88 C 270.46 431.65 264.98 432.58 259.57 433.76 C 237.92 433.98 216.26 434.52 194.66 435.66 C 194.23 435.71 193.37 435.82 192.94 435.88 C 134.29 435.07 75.63 442.70 17.09 437.86 C 4.62 429.80 31.79 429.20 37.99 428.01 C 50.48 427.56 62.98 426.18 75.34 424.36 C 81.45 423.22 87.69 422.94 93.80 421.79 C 98.71 408.49 115.18 397.05 109.98 382.08 C 111.03 378.84 115.85 378.08 117.00 374.94 C 110.64 358.76 90.82 346.84 91.26 328.29 C 107.19 307.77 132.53 297.56 152.36 281.39 C 172.09 267.28 189.18 248.77 199.97 227.10 C 194.93 223.32 190.36 217.30 184.93 223.92 C 174.46 234.63 169.28 201.22 163.97 216.98 C 161.59 222.14 158.29 226.80 155.96 231.98 C 152.27 236.96 163.55 244.97 156.24 247.60 C 146.72 241.59 144.65 251.96 145.28 259.32 C 139.70 260.94 133.58 255.74 127.97 254.11 C 121.40 252.52 128.21 244.57 126.09 240.01 C 124.36 226.26 126.37 208.92 120.07 197.82 C 114.53 196.26 109.49 193.41 104.98 189.87 C 102.85 177.35 126.09 167.01 111.29 156.75 C 99.86 139.31 86.03 120.66 85.97 99.00 C 90.20 84.56 108.36 83.64 121.01 82.02 C 139.93 81.87 159.02 79.22 177.84 82.27 C 179.16 82.49 180.47 82.79 181.81 82.92 M 192.87 55.80 C 189.46 66.19 188.35 78.08 182.92 88.04 C 180.39 87.63 178.02 85.23 175.42 86.38 C 150.45 83.85 124.48 84.80 100.07 91.12 C 88.89 93.49 87.83 107.14 94.09 114.95 C 99.60 133.52 112.36 149.24 121.94 165.97 C 117.51 174.20 101.21 189.51 118.97 193.02 C 125.12 196.86 118.26 187.48 123.07 187.05 C 129.99 186.78 136.92 187.18 143.85 186.91 C 148.97 178.49 155.58 170.61 160.07 162.00 C 155.34 153.03 143.90 143.79 154.16 133.53 C 160.90 124.75 164.72 113.56 171.12 105.03 C 178.65 110.01 188.10 116.02 192.53 124.54 C 194.15 127.46 198.85 120.91 196.51 116.52 C 200.78 115.28 205.34 116.30 209.72 115.82 C 213.97 108.56 202.60 99.42 210.84 92.76 C 216.02 94.34 214.59 86.06 217.99 83.98 C 223.30 75.00 234.67 77.95 243.07 80.13 C 230.14 62.67 219.82 41.69 200.06 30.73 C 194.84 37.77 194.84 47.49 192.87 55.80 M 264.31 70.24 C 260.23 76.78 244.72 84.35 257.14 89.13 C 257.86 84.23 267.58 72.55 264.31 70.24 M 230.02 81.24 C 222.46 81.62 212.41 97.24 222.73 100.03 C 220.14 92.53 232.19 85.04 230.02 81.24 M 231.21 114.81 C 235.97 120.06 249.00 122.44 252.72 115.33 C 265.48 104.26 254.78 88.18 241.66 83.63 C 230.55 79.77 217.99 107.37 231.21 114.81 M 212.03 97.94 C 211.07 102.78 212.71 107.75 217.03 110.27 C 224.24 106.24 218.27 98.63 212.03 97.94 M 172.24 111.05 C 167.42 119.47 162.58 127.90 157.53 136.20 C 150.37 143.47 158.23 152.09 163.11 158.05 C 169.72 154.66 175.87 149.79 182.92 146.93 C 190.12 143.64 187.53 133.68 186.98 127.52 C 188.83 118.66 177.17 115.92 172.24 111.05 M 221.00 110.85 C 221.44 120.07 233.05 123.23 238.66 129.36 C 241.95 131.20 255.70 121.75 246.64 121.52 C 235.39 127.50 229.14 115.94 221.00 110.85 M 202.30 120.12 C 197.93 128.54 216.81 123.59 220.65 128.33 C 227.92 127.46 236.67 135.97 241.98 134.10 C 231.24 126.35 216.31 119.70 202.30 120.12 M 200.13 130.86 C 201.19 140.37 195.97 148.45 192.97 157.02 C 195.40 163.83 201.18 174.47 210.14 171.20 C 222.17 167.79 234.82 167.37 247.04 169.93 C 250.40 170.67 250.19 166.48 250.15 164.29 C 250.28 159.79 249.53 155.38 247.65 151.28 C 243.49 132.98 221.37 133.92 207.02 128.92 C 204.00 128.41 196.69 125.92 200.13 130.86 M 192.12 130.93 C 190.64 136.03 194.36 143.25 190.28 147.37 C 186.45 149.74 176.05 154.41 185.05 157.13 C 190.24 151.74 201.67 135.18 192.12 130.93 M 259.80 145.89 C 263.02 149.35 265.19 153.51 267.09 157.81 C 267.27 160.80 267.44 165.59 271.69 163.76 C 282.28 164.94 280.01 155.70 276.53 150.04 C 274.46 139.04 267.07 139.16 259.80 145.89 M 247.94 142.93 C 250.26 149.43 253.27 155.93 254.05 163.05 C 249.57 168.60 257.43 183.73 262.69 178.09 C 268.38 166.50 261.76 146.90 247.94 142.93 M 173.35 156.34 C 161.05 162.38 157.43 177.23 149.00 187.11 C 166.60 201.12 168.81 171.29 182.13 166.23 C 195.84 167.00 177.62 156.79 173.35 156.34 M 192.57 167.35 C 191.58 168.44 191.35 170.47 189.83 170.89 C 177.81 167.29 174.12 183.82 167.17 190.17 C 162.29 195.83 177.37 197.48 173.20 203.15 C 165.19 208.93 178.01 216.23 180.89 221.11 C 187.23 216.86 193.59 212.52 199.10 207.20 C 192.36 199.47 211.24 198.96 210.94 191.10 C 211.03 180.43 197.75 173.08 192.57 167.35 M 211.12 176.02 C 219.39 185.99 215.41 198.79 204.00 204.22 C 207.98 209.70 215.15 211.58 219.95 216.25 C 230.32 226.55 242.05 236.07 254.87 243.11 C 259.21 236.89 270.94 230.38 264.59 222.35 C 259.52 211.87 251.46 202.10 250.79 190.03 C 250.71 185.85 253.50 182.09 253.81 178.27 C 242.97 167.24 224.33 172.99 211.12 176.02 M 263.35 183.35 C 247.12 187.88 259.65 205.82 265.12 214.80 C 270.44 224.13 271.98 206.40 273.96 202.12 C 267.62 197.90 267.49 185.05 263.35 183.35 M 128.37 192.35 C 126.47 192.60 127.10 195.00 126.87 196.30 C 127.41 211.86 129.67 227.29 131.27 242.76 C 133.70 243.79 142.16 247.22 142.53 245.48 C 151.37 231.73 157.77 216.54 166.99 203.00 C 169.01 200.95 166.07 199.57 164.62 198.37 C 153.85 191.87 140.69 189.40 128.37 192.35 M 276.92 208.18 C 274.75 211.34 274.11 217.03 272.22 220.94 C 281.06 227.55 289.77 234.33 298.12 241.57 C 300.18 240.89 302.20 240.05 304.24 239.28 C 302.80 235.18 299.77 231.87 298.10 227.90 C 306.23 216.95 288.41 206.84 283.04 197.66 C 279.95 200.41 278.19 204.32 276.92 208.18 M 199.71 216.70 C 193.10 221.99 209.36 222.77 203.85 228.82 C 184.50 271.00 142.33 293.43 106.64 319.62 C 102.41 323.98 93.33 327.84 96.63 335.31 C 105.54 350.89 117.76 364.38 126.67 379.95 C 126.82 380.91 125.24 384.93 126.47 383.66 C 130.00 387.19 136.82 383.65 141.35 383.42 C 158.76 377.86 177.59 375.62 193.77 366.80 C 202.91 331.63 206.81 295.19 217.25 260.29 C 222.16 252.92 231.52 252.76 238.90 249.55 C 244.32 251.53 236.64 253.34 234.40 254.48 C 229.76 257.25 221.48 257.08 219.93 262.99 C 224.24 272.75 227.54 282.94 230.95 293.08 C 230.22 301.97 220.74 306.38 215.30 312.28 C 214.40 318.93 211.78 327.85 218.69 332.31 C 235.04 344.34 245.12 365.73 267.43 367.58 C 277.03 373.55 277.35 360.01 277.17 354.14 C 285.78 344.38 293.48 333.83 301.83 323.84 C 305.44 319.75 299.62 315.49 297.93 312.06 C 290.13 302.08 282.72 291.86 276.93 280.56 C 275.20 282.50 275.63 286.82 272.09 286.04 C 272.01 268.10 275.08 249.82 270.72 232.11 C 265.16 235.31 262.41 244.61 255.98 248.08 C 244.35 242.64 234.02 234.56 223.94 226.64 C 216.93 221.81 207.02 205.47 199.71 216.70 M 301.96 224.93 C 304.78 233.44 312.39 243.47 320.11 247.03 C 315.27 238.75 311.07 229.14 301.96 224.93 M 320.31 235.22 C 317.06 237.44 320.65 241.77 323.01 243.27 C 327.66 241.48 323.51 234.60 320.31 235.22 M 324.17 248.54 C 322.80 249.51 321.56 250.68 320.63 252.09 C 316.14 257.68 312.40 263.85 308.92 270.11 C 316.26 283.67 322.50 267.51 326.57 261.10 C 328.50 259.29 330.20 257.19 331.21 254.72 C 334.86 252.39 342.82 246.54 336.32 242.66 C 331.57 235.66 326.98 245.21 324.17 248.54 M 304.32 243.26 C 294.05 245.30 308.54 266.66 312.39 256.35 C 316.15 251.78 310.79 241.24 304.32 243.26 M 129.20 247.07 C 127.36 251.29 138.38 252.73 142.02 255.08 C 143.51 248.17 134.05 247.99 129.20 247.07 M 327.57 267.18 C 312.91 277.84 333.21 282.16 340.08 287.85 C 371.90 307.00 401.93 328.98 433.10 349.02 C 440.92 354.35 450.53 365.39 458.11 367.06 C 419.85 327.92 377.44 292.78 337.86 255.03 C 333.07 256.60 331.24 263.47 327.57 267.18 M 218.24 272.96 C 216.19 285.07 212.99 296.97 210.99 309.08 C 227.31 304.13 229.08 283.12 218.24 272.96 M 207.19 326.04 C 205.71 337.62 203.58 349.13 200.42 360.37 C 198.90 376.91 178.36 376.77 165.98 380.90 C 157.40 379.71 159.27 387.99 158.26 393.26 C 149.72 398.97 142.75 407.71 136.96 415.89 C 150.89 416.08 164.80 414.23 178.73 413.67 C 201.53 415.07 224.25 411.58 247.00 414.03 C 253.32 420.32 252.85 409.35 250.45 410.48 C 242.57 396.08 236.97 380.52 232.19 364.85 C 229.11 357.32 236.37 359.20 240.11 359.99 C 233.22 347.98 218.44 341.92 210.74 330.35 C 209.93 328.34 210.33 325.03 207.19 326.04 M 237.98 365.18 C 240.30 377.33 246.36 388.89 251.75 399.97 C 254.65 406.32 256.52 413.80 260.93 419.10 C 267.02 419.80 275.27 423.49 280.80 420.78 C 277.84 412.25 270.40 404.84 270.00 395.08 C 268.42 387.37 269.60 379.19 268.36 371.69 C 257.96 370.24 248.62 362.77 237.98 365.18 M 117.56 391.51 C 110.74 403.24 103.97 415.52 98.96 427.95 C 102.92 429.82 115.22 429.71 118.88 428.01 C 131.33 416.34 140.92 401.19 153.77 389.66 C 156.84 380.70 147.71 387.96 143.98 388.94 C 135.47 390.42 117.10 391.98 122.02 378.95 C 114.38 378.69 116.46 386.85 117.56 391.51 Z" />
</g>
<g id="#fb504dff">
<path fill="#fb504d" opacity="1.00" d=" M 192.87 55.80 C 194.84 47.49 194.84 37.77 200.06 30.73 C 219.82 41.69 230.14 62.67 243.07 80.13 C 234.67 77.95 223.30 75.00 217.99 83.98 C 214.59 86.06 216.02 94.34 210.84 92.76 C 205.31 80.32 200.99 66.80 192.87 55.80 Z" />
</g>
<g id="#d13749ff">
<path fill="#d13749" opacity="1.00" d=" M 182.92 88.04 C 188.35 78.08 189.46 66.19 192.87 55.80 C 200.99 66.80 205.31 80.32 210.84 92.76 C 202.60 99.42 213.97 108.56 209.72 115.82 C 205.34 116.30 200.78 115.28 196.51 116.52 C 198.85 120.91 194.15 127.46 192.53 124.54 C 201.65 115.66 181.24 114.01 177.71 106.28 C 175.51 100.47 163.71 88.36 175.42 86.38 C 178.02 85.23 180.39 87.63 182.92 88.04 Z" />
</g>
<g id="#f0e66bfe">
<path fill="#f0e66b" opacity="1.00" d=" M 264.31 70.24 C 267.58 72.55 257.86 84.23 257.14 89.13 C 244.72 84.35 260.23 76.78 264.31 70.24 Z" />
</g>
<g id="#00000089">
<path fill="#000000" opacity="0.54" d=" M 121.01 82.02 C 137.41 79.71 161.96 77.21 177.84 82.27 C 159.02 79.22 139.93 81.87 121.01 82.02 Z" />
</g>
<g id="#8984a6ff">
<path fill="#8984a6" opacity="1.00" d=" M 230.02 81.24 C 232.19 85.04 220.14 92.53 222.73 100.03 C 212.41 97.24 222.46 81.62 230.02 81.24 Z" />
</g>
<g id="#7c799eff">
<path fill="#7c799e" opacity="1.00" d=" M 231.21 114.81 C 217.99 107.37 230.55 79.77 241.66 83.63 C 229.72 87.43 231.15 104.60 237.84 113.06 C 238.30 117.49 244.53 120.91 246.99 116.40 C 249.47 117.14 250.66 114.50 252.03 112.97 C 252.20 113.56 252.55 114.74 252.72 115.33 C 249.00 122.44 235.97 120.06 231.21 114.81 Z" />
</g>
<g id="#dfdfe0ff">
<path fill="#dfdfe0" opacity="1.00" d=" M 237.84 113.06 C 231.15 104.60 229.72 87.43 241.66 83.63 C 254.78 88.18 265.48 104.26 252.72 115.33 C 252.55 114.74 252.20 113.56 252.03 112.97 C 252.92 109.34 259.26 102.32 253.24 100.86 C 250.67 105.80 247.96 110.85 246.99 116.40 C 244.53 120.91 238.30 117.49 237.84 113.06 M 244.21 102.13 C 242.24 105.37 241.03 109.22 240.98 113.03 C 246.03 114.49 247.67 101.38 244.21 102.13 Z" />
</g>
<g id="#fb4e4bff">
<path fill="#fb4e4b" opacity="1.00" d=" M 100.07 91.12 C 124.48 84.80 150.45 83.85 175.42 86.38 C 163.71 88.36 175.51 100.47 177.71 106.28 C 181.24 114.01 201.65 115.66 192.53 124.54 C 188.10 116.02 178.65 110.01 171.12 105.03 C 164.72 113.56 160.90 124.75 154.16 133.53 C 133.43 130.31 114.91 115.88 94.09 114.95 C 87.83 107.14 88.89 93.49 100.07 91.12 Z" />
</g>
<g id="#8582a2ff">
<path fill="#8582a2" opacity="1.00" d=" M 212.03 97.94 C 218.27 98.63 224.24 106.24 217.03 110.27 C 212.71 107.75 211.07 102.78 212.03 97.94 Z" />
</g>
<g id="#181818ff">
<path fill="#181818" opacity="1.00" d=" M 253.24 100.86 C 259.26 102.32 252.92 109.34 252.03 112.97 C 250.66 114.50 249.47 117.14 246.99 116.40 C 247.96 110.85 250.67 105.80 253.24 100.86 Z" />
</g>
<g id="#1f1f1fff">
<path fill="#1f1f1f" opacity="1.00" d=" M 244.21 102.13 C 247.67 101.38 246.03 114.49 240.98 113.03 C 241.03 109.22 242.24 105.37 244.21 102.13 Z" />
</g>
<g id="#d4d4d6ff">
<path fill="#d4d4d6" opacity="1.00" d=" M 172.24 111.05 C 177.17 115.92 188.83 118.66 186.98 127.52 C 178.77 120.51 183.20 135.05 183.87 140.03 C 175.36 137.76 165.26 138.57 157.53 136.20 C 162.58 127.90 167.42 119.47 172.24 111.05 Z" />
</g>
<g id="#ebe290ff">
<path fill="#ebe290" opacity="1.00" d=" M 221.00 110.85 C 229.14 115.94 235.39 127.50 246.64 121.52 C 255.70 121.75 241.95 131.20 238.66 129.36 C 233.05 123.23 221.44 120.07 221.00 110.85 Z" />
</g>
<g id="#8c2541ff">
<path fill="#8c2541" opacity="1.00" d=" M 94.09 114.95 C 114.91 115.88 133.43 130.31 154.16 133.53 C 143.90 143.79 155.34 153.03 160.07 162.00 C 155.58 170.61 148.97 178.49 143.85 186.91 C 136.92 187.18 129.99 186.78 123.07 187.05 C 118.26 187.48 125.12 196.86 118.97 193.02 C 101.21 189.51 117.51 174.20 121.94 165.97 C 112.36 149.24 99.60 133.52 94.09 114.95 Z" />
</g>
<g id="#b6b5cdff">
<path fill="#b6b5cd" opacity="1.00" d=" M 202.30 120.12 C 216.31 119.70 231.24 126.35 241.98 134.10 C 236.67 135.97 227.92 127.46 220.65 128.33 C 216.81 123.59 197.93 128.54 202.30 120.12 Z" />
</g>
<g id="#8c8aa8ff">
<path fill="#8c8aa8" opacity="1.00" d=" M 183.87 140.03 C 183.20 135.05 178.77 120.51 186.98 127.52 C 187.53 133.68 190.12 143.64 182.92 146.93 C 175.87 149.79 169.72 154.66 163.11 158.05 C 158.23 152.09 150.37 143.47 157.53 136.20 C 165.26 138.57 175.36 137.76 183.87 140.03 Z" />
</g>
<g id="#d8d8d8ff">
<path fill="#d8d8d8" opacity="1.00" d=" M 200.13 130.86 C 196.69 125.92 204.00 128.41 207.02 128.92 C 221.37 133.92 243.49 132.98 247.65 151.28 C 249.53 155.38 250.28 159.79 250.15 164.29 C 236.04 162.65 218.10 165.77 207.19 154.84 C 202.03 147.94 201.20 139.09 200.13 130.86 Z" />
</g>
<g id="#b9b7cfff">
<path fill="#b9b7cf" opacity="1.00" d=" M 192.12 130.93 C 201.67 135.18 190.24 151.74 185.05 157.13 C 176.05 154.41 186.45 149.74 190.28 147.37 C 194.36 143.25 190.64 136.03 192.12 130.93 Z" />
</g>
<g id="#69658bff">
<path fill="#69658b" opacity="1.00" d=" M 200.13 130.86 C 201.20 139.09 202.03 147.94 207.19 154.84 C 218.10 165.77 236.04 162.65 250.15 164.29 C 250.19 166.48 250.40 170.67 247.04 169.93 C 234.82 167.37 222.17 167.79 210.14 171.20 C 201.18 174.47 195.40 163.83 192.97 157.02 C 195.97 148.45 201.19 140.37 200.13 130.86 Z" />
</g>
<g id="#e2e2e4ff">
<path fill="#e2e2e4" opacity="1.00" d=" M 259.80 145.89 C 267.07 139.16 274.46 139.04 276.53 150.04 C 274.74 154.31 267.76 155.01 270.44 161.26 C 270.70 166.14 268.20 159.32 267.09 157.81 C 265.19 153.51 263.02 149.35 259.80 145.89 Z" />
</g>
<g id="#dcdce0ff">
<path fill="#dcdce0" opacity="1.00" d=" M 247.94 142.93 C 261.76 146.90 268.38 166.50 262.69 178.09 C 257.90 179.24 263.28 172.49 261.98 170.94 C 263.64 165.79 257.41 164.85 254.05 163.05 C 253.27 155.93 250.26 149.43 247.94 142.93 Z" />
</g>
<g id="#908eabff">
<path fill="#908eab" opacity="1.00" d=" M 276.53 150.04 C 280.01 155.70 282.28 164.94 271.69 163.76 C 267.44 165.59 267.27 160.80 267.09 157.81 C 268.20 159.32 270.70 166.14 270.44 161.26 C 267.76 155.01 274.74 154.31 276.53 150.04 Z" />
</g>
<g id="#626085ff">
<path fill="#626085" opacity="1.00" d=" M 173.35 156.34 C 177.62 156.79 195.84 167.00 182.13 166.23 C 168.81 171.29 166.60 201.12 149.00 187.11 C 157.43 177.23 161.05 162.38 173.35 156.34 Z" />
</g>
<g id="#8785a7ff">
<path fill="#8785a7" opacity="1.00" d=" M 254.05 163.05 C 257.41 164.85 263.64 165.79 261.98 170.94 C 263.28 172.49 257.90 179.24 262.69 178.09 C 257.43 183.73 249.57 168.60 254.05 163.05 Z" />
</g>
<g id="#84253fff">
<path fill="#84253f" opacity="1.00" d=" M 192.57 167.35 C 197.75 173.08 211.03 180.43 210.94 191.10 C 211.24 198.96 192.36 199.47 199.10 207.20 C 193.59 212.52 187.23 216.86 180.89 221.11 C 178.01 216.23 165.19 208.93 173.20 203.15 C 177.37 197.48 162.29 195.83 167.17 190.17 C 174.12 183.82 177.81 167.29 189.83 170.89 C 191.35 170.47 191.58 168.44 192.57 167.35 Z" />
</g>
<g id="#635e81ff">
<path fill="#635e81" opacity="1.00" d=" M 211.12 176.02 C 224.33 172.99 242.97 167.24 253.81 178.27 C 253.50 182.09 250.71 185.85 250.79 190.03 C 247.24 186.67 240.79 190.56 236.04 188.07 C 227.50 194.63 224.31 206.53 219.95 216.25 C 215.15 211.58 207.98 209.70 204.00 204.22 C 215.41 198.79 219.39 185.99 211.12 176.02 Z" />
</g>
<g id="#646285ff">
<path fill="#646285" opacity="1.00" d=" M 263.35 183.35 C 267.49 185.05 267.62 197.90 273.96 202.12 C 271.98 206.40 270.44 224.13 265.12 214.80 C 259.65 205.82 247.12 187.88 263.35 183.35 Z" />
</g>
<g id="#cccbd0ff">
<path fill="#cccbd0" opacity="1.00" d=" M 219.95 216.25 C 224.31 206.53 227.50 194.63 236.04 188.07 C 240.79 190.56 247.24 186.67 250.79 190.03 C 251.46 202.10 259.52 211.87 264.59 222.35 C 270.94 230.38 259.21 236.89 254.87 243.11 C 242.05 236.07 230.32 226.55 219.95 216.25 Z" />
</g>
<g id="#dcdcddff">
<path fill="#dcdcdd" opacity="1.00" d=" M 128.37 192.35 C 140.69 189.40 153.85 191.87 164.62 198.37 C 166.07 199.57 169.01 200.95 166.99 203.00 C 157.77 216.54 151.37 231.73 142.53 245.48 C 136.46 242.73 151.73 235.26 147.53 228.33 C 145.25 217.34 143.25 206.25 140.55 195.37 C 136.92 190.49 131.48 197.57 126.87 196.30 C 127.10 195.00 126.47 192.60 128.37 192.35 Z" />
</g>
<g id="#a4a3b6ff">
<path fill="#a4a3b6" opacity="1.00" d=" M 126.87 196.30 C 131.48 197.57 136.92 190.49 140.55 195.37 C 143.25 206.25 145.25 217.34 147.53 228.33 C 151.73 235.26 136.46 242.73 142.53 245.48 C 142.16 247.22 133.70 243.79 131.27 242.76 C 129.67 227.29 127.41 211.86 126.87 196.30 Z" />
</g>
<g id="#0000007a">
<path fill="#000000" opacity="0.48" d=" M 120.07 197.82 C 126.37 208.92 124.36 226.26 126.09 240.01 C 121.62 227.92 125.02 210.74 120.07 197.82 Z" />
</g>
<g id="#e7e7e7ff">
<path fill="#e7e7e7" opacity="1.00" d=" M 276.92 208.18 C 278.19 204.32 279.95 200.41 283.04 197.66 C 288.41 206.84 306.23 216.95 298.10 227.90 C 299.77 231.87 302.80 235.18 304.24 239.28 C 294.19 235.99 291.56 221.49 282.60 215.44 C 280.82 212.84 276.44 211.91 276.92 208.18 Z" />
</g>
<g id="#8a88a9ff">
<path fill="#8a88a9" opacity="1.00" d=" M 272.22 220.94 C 274.11 217.03 274.75 211.34 276.92 208.18 C 276.44 211.91 280.82 212.84 282.60 215.44 C 291.56 221.49 294.19 235.99 304.24 239.28 C 302.20 240.05 300.18 240.89 298.12 241.57 C 289.77 234.33 281.06 227.55 272.22 220.94 Z" />
</g>
<g id="#514c79ff">
<path fill="#514c79" opacity="1.00" d=" M 199.71 216.70 C 207.02 205.47 216.93 221.81 223.94 226.64 C 212.53 233.33 212.34 247.47 205.92 257.93 C 194.87 280.99 183.06 303.68 171.18 326.30 C 157.60 346.36 142.48 365.48 126.47 383.66 C 125.24 384.93 126.82 380.91 126.67 379.95 C 117.76 364.38 105.54 350.89 96.63 335.31 C 93.33 327.84 102.41 323.98 106.64 319.62 C 142.33 293.43 184.50 271.00 203.85 228.82 C 209.36 222.77 193.10 221.99 199.71 216.70 Z" />
</g>
<g id="#e8d156fe">
<path fill="#e8d156" opacity="1.00" d=" M 301.96 224.93 C 311.07 229.14 315.27 238.75 320.11 247.03 C 312.39 243.47 304.78 233.44 301.96 224.93 Z" />
</g>
<g id="#777889ff">
<path fill="#777889" opacity="1.00" d=" M 205.92 257.93 C 212.34 247.47 212.53 233.33 223.94 226.64 C 234.02 234.56 244.35 242.64 255.98 248.08 C 262.41 244.61 265.16 235.31 270.72 232.11 C 275.08 249.82 272.01 268.10 272.09 286.04 C 275.63 286.82 275.20 282.50 276.93 280.56 C 282.72 291.86 290.13 302.08 297.93 312.06 C 299.62 315.49 305.44 319.75 301.83 323.84 C 293.48 333.83 285.78 344.38 277.17 354.14 C 276.78 355.64 276.00 358.65 275.61 360.15 C 265.88 344.31 254.20 330.00 251.98 310.98 C 250.41 291.26 244.85 271.95 245.97 252.05 C 246.15 248.89 241.19 248.69 238.90 249.55 C 231.52 252.76 222.16 252.92 217.25 260.29 C 206.81 295.19 202.91 331.63 193.77 366.80 C 177.59 375.62 158.76 377.86 141.35 383.42 C 136.82 383.65 130.00 387.19 126.47 383.66 C 142.48 365.48 157.60 346.36 171.18 326.30 C 183.06 303.68 194.87 280.99 205.92 257.93 Z" />
</g>
<g id="#9396a8ff">
<path fill="#9396a8" opacity="1.00" d=" M 320.31 235.22 C 323.51 234.60 327.66 241.48 323.01 243.27 C 320.65 241.77 317.06 237.44 320.31 235.22 Z" />
</g>
<g id="#f1e462ff">
<path fill="#f1e462" opacity="1.00" d=" M 324.17 248.54 C 326.98 245.21 331.57 235.66 336.32 242.66 C 342.82 246.54 334.86 252.39 331.21 254.72 C 328.93 252.58 326.65 250.44 324.17 248.54 Z" />
</g>
<g id="#68668aff">
<path fill="#68668a" opacity="1.00" d=" M 304.32 243.26 C 310.79 241.24 316.15 251.78 312.39 256.35 C 308.54 266.66 294.05 245.30 304.32 243.26 Z" />
</g>
<g id="#8988acff">
<path fill="#8988ac" opacity="1.00" d=" M 129.20 247.07 C 134.05 247.99 143.51 248.17 142.02 255.08 C 138.38 252.73 127.36 251.29 129.20 247.07 Z" />
</g>
<g id="#514d7aff">
<path fill="#514d7a" opacity="1.00" d=" M 238.90 249.55 C 241.19 248.69 246.15 248.89 245.97 252.05 C 244.85 271.95 250.41 291.26 251.98 310.98 C 254.20 330.00 265.88 344.31 275.61 360.15 C 276.00 358.65 276.78 355.64 277.17 354.14 C 277.35 360.01 277.03 373.55 267.43 367.58 C 245.12 365.73 235.04 344.34 218.69 332.31 C 211.78 327.85 214.40 318.93 215.30 312.28 C 220.74 306.38 230.22 301.97 230.95 293.08 C 227.54 282.94 224.24 272.75 219.93 262.99 C 221.48 257.08 229.76 257.25 234.40 254.48 C 236.64 253.34 244.32 251.53 238.90 249.55 Z" />
</g>
<g id="#f7f7f3ff">
<path fill="#f7f7f3" opacity="1.00" d=" M 320.63 252.09 C 321.56 250.68 322.80 249.51 324.17 248.54 C 326.65 250.44 328.93 252.58 331.21 254.72 C 330.20 257.19 328.50 259.29 326.57 261.10 C 324.46 258.19 321.54 255.68 320.63 252.09 Z" />
</g>
<g id="#efb83eff">
<path fill="#efb83e" opacity="1.00" d=" M 308.92 270.11 C 312.40 263.85 316.14 257.68 320.63 252.09 C 321.54 255.68 324.46 258.19 326.57 261.10 C 322.50 267.51 316.26 283.67 308.92 270.11 Z" />
</g>
<g id="#e4e4e4ff">
<path fill="#e4e4e4" opacity="1.00" d=" M 327.57 267.18 C 331.24 263.47 333.07 256.60 337.86 255.03 C 377.44 292.78 419.85 327.92 458.11 367.06 C 450.53 365.39 440.92 354.35 433.10 349.02 C 405.20 313.29 362.09 294.50 327.57 267.18 Z" />
</g>
<g id="#9997b2ff">
<path fill="#9997b2" opacity="1.00" d=" M 340.08 287.85 C 333.21 282.16 312.91 277.84 327.57 267.18 C 362.09 294.50 405.20 313.29 433.10 349.02 C 401.93 328.98 371.90 307.00 340.08 287.85 Z" />
</g>
<g id="#00000019">
<path fill="#000000" opacity="0.10" d=" M 218.24 272.96 C 229.08 283.12 227.31 304.13 210.99 309.08 C 212.99 296.97 216.19 285.07 218.24 272.96 Z" />
</g>
<g id="#b5b4c7ff">
<path fill="#b5b4c7" opacity="1.00" d=" M 237.98 365.18 C 248.62 362.77 257.96 370.24 268.36 371.69 C 269.60 379.19 268.42 387.37 270.00 395.08 C 268.62 391.95 264.87 393.81 262.56 394.69 C 261.29 402.55 266.34 410.71 264.29 418.59 C 258.94 415.00 258.50 407.95 255.29 402.85 C 254.49 401.65 252.04 395.25 251.75 399.97 C 246.36 388.89 240.30 377.33 237.98 365.18 Z" />
</g>
<g id="#cac9d2ff">
<path fill="#cac9d2" opacity="1.00" d=" M 117.56 391.51 C 116.46 386.85 114.38 378.69 122.02 378.95 C 117.10 391.98 135.47 390.42 143.98 388.94 C 138.93 401.86 130.57 412.94 120.87 422.76 C 116.97 429.10 108.28 422.85 103.49 427.80 C 108.61 427.97 113.75 428.10 118.88 428.01 C 115.22 429.71 102.92 429.82 98.96 427.95 C 103.97 415.52 110.74 403.24 117.56 391.51 Z" />
</g>
<g id="#f2f2f3ff">
<path fill="#f2f2f3" opacity="1.00" d=" M 143.98 388.94 C 147.71 387.96 156.84 380.70 153.77 389.66 C 140.92 401.19 131.33 416.34 118.88 428.01 C 113.75 428.10 108.61 427.97 103.49 427.80 C 108.28 422.85 116.97 429.10 120.87 422.76 C 130.57 412.94 138.93 401.86 143.98 388.94 Z" />
</g>
<g id="#d9d9ddff">
<path fill="#d9d9dd" opacity="1.00" d=" M 262.56 394.69 C 264.87 393.81 268.62 391.95 270.00 395.08 C 270.40 404.84 277.84 412.25 280.80 420.78 C 275.27 423.49 267.02 419.80 260.93 419.10 C 256.52 413.80 254.65 406.32 251.75 399.97 C 252.04 395.25 254.49 401.65 255.29 402.85 C 258.50 407.95 258.94 415.00 264.29 418.59 C 266.34 410.71 261.29 402.55 262.56 394.69 Z" />
</g>
<g id="#00000074">
<path fill="#000000" opacity="0.45" d=" M 250.45 410.48 C 252.85 409.35 253.32 420.32 247.00 414.03 C 224.25 411.58 201.53 415.07 178.73 413.67 C 202.50 410.96 227.13 413.86 250.45 410.48 Z" />
</g>
<g id="#0000007b">
<path fill="#000000" opacity="0.48" d=" M 37.99 428.01 C 48.90 425.83 63.12 424.09 75.34 424.36 C 62.98 426.18 50.48 427.56 37.99 428.01 Z" />
</g>
<g id="#00000079">
<path fill="#000000" opacity="0.47" d=" M 259.57 433.76 C 264.98 432.58 270.46 431.65 276.03 431.88 C 271.83 434.08 265.03 434.10 259.57 433.76 Z" />
</g>
<g id="#00000082">
<path fill="#000000" opacity="0.51" d=" M 194.66 435.66 C 216.26 434.52 237.92 433.98 259.57 433.76 C 241.42 437.42 215.66 435.91 194.66 435.66 Z" />
</g>
<g id="#00000075">
<path fill="#000000" opacity="0.46" d=" M 17.09 437.86 C 75.63 442.70 134.29 435.07 192.94 435.88 C 156.53 438.67 115.31 438.63 77.08 440.04 C 68.77 448.97 50.50 441.95 38.47 443.74 C 36.32 434.79 21.44 443.49 17.09 437.86 Z" />
</g>
</svg>
