<?xml version="1.0" encoding="UTF-8" ?>
<!DOCTYPE svg PUBLIC "-//W3C//DTD SVG 1.1//EN" "http://www.w3.org/Graphics/SVG/1.1/DTD/svg11.dtd">
<svg width="348pt" height="274pt" viewBox="0 0 348 274" version="1.1" xmlns="http://www.w3.org/2000/svg">
<path fill="#000000" opacity="1.00" d=" M 139.00 17.27 C 145.28 11.87 150.95 5.65 158.09 1.33 C 168.67 13.29 180.93 23.64 191.35 35.74 C 193.18 38.24 193.77 41.37 194.96 44.19 C 207.10 44.97 219.28 46.17 231.07 49.29 C 240.00 51.70 249.02 53.91 257.57 57.52 C 261.48 59.24 265.73 60.47 269.00 63.36 C 266.65 63.26 264.30 63.28 262.01 63.84 C 248.08 66.02 233.98 66.78 219.88 66.71 L 219.07 67.31 C 215.03 67.38 211.04 66.68 207.01 66.60 C 210.50 72.56 214.57 78.17 217.67 84.36 C 222.56 93.80 228.55 102.59 234.24 111.56 C 241.03 122.36 250.13 131.56 256.22 142.83 C 261.58 152.57 266.25 162.95 267.63 174.08 C 266.83 174.48 266.02 175.91 265.03 175.19 C 258.24 164.30 250.05 154.34 241.30 144.97 C 238.48 141.74 235.62 138.54 232.35 135.75 C 227.55 131.58 223.73 126.45 219.17 122.03 C 212.17 126.34 204.52 129.47 196.68 131.88 C 197.34 134.91 197.44 138.02 197.34 141.11 C 196.56 144.09 195.34 147.39 192.14 148.48 C 189.73 148.56 187.32 148.46 184.94 148.16 C 181.55 145.14 179.46 141.05 177.08 137.27 C 173.38 137.58 169.66 137.89 165.97 137.45 C 167.35 137.69 168.74 137.94 170.12 138.21 C 163.70 138.61 157.26 138.48 150.83 138.35 C 153.46 143.33 157.58 147.61 162.43 150.46 C 169.75 154.10 177.46 157.07 184.16 161.84 C 189.02 164.88 192.98 169.04 197.34 172.71 C 201.74 176.63 205.20 181.50 208.12 186.59 C 211.31 192.23 215.31 197.45 217.56 203.59 C 219.10 207.94 220.89 212.23 222.00 216.73 C 224.28 226.72 226.20 236.88 225.44 247.18 C 225.12 249.36 224.60 251.51 224.15 253.67 C 258.75 254.55 293.42 255.11 327.88 258.71 C 333.85 259.59 340.10 259.88 345.68 262.35 C 345.75 262.76 345.90 263.60 345.97 264.01 C 338.46 267.28 330.03 267.38 322.00 268.43 C 265.16 273.32 208.03 273.03 151.02 272.84 C 135.67 273.14 120.31 272.94 104.96 273.01 C 98.94 273.07 92.92 272.71 86.92 272.34 C 80.95 271.95 74.98 270.64 69.00 271.55 C 70.30 271.34 71.61 271.12 72.91 270.91 C 61.54 269.83 50.19 268.51 38.84 267.20 C 34.06 266.50 29.18 265.84 24.79 263.68 C 25.73 262.24 27.44 261.75 28.91 261.07 C 27.26 260.48 25.34 260.22 24.06 258.96 C 22.66 256.93 21.63 254.65 20.87 252.32 C 20.13 247.27 19.06 242.15 19.71 237.03 C 20.24 232.19 21.33 227.44 22.33 222.68 C 27.35 206.57 37.05 191.86 50.22 181.26 C 55.04 177.40 59.52 173.09 64.78 169.82 C 69.76 166.67 74.82 163.65 79.58 160.16 C 76.14 154.42 72.03 149.09 69.12 143.04 C 67.88 140.59 64.95 139.75 63.40 137.54 C 61.55 134.85 60.70 131.64 59.16 128.78 C 55.30 121.74 50.40 115.33 46.39 108.38 C 43.50 103.48 41.45 97.96 37.23 93.96 C 31.72 95.72 25.97 93.42 21.15 90.80 C 18.09 87.47 13.27 87.02 9.98 84.02 C 5.93 80.67 3.50 75.81 1.85 70.92 C -0.35 60.89 4.63 49.85 13.23 44.37 C 20.75 39.46 31.26 37.67 39.08 42.95 C 42.55 44.30 46.55 44.80 49.07 47.90 C 54.51 52.25 54.08 59.90 53.15 66.10 C 54.31 67.75 55.56 69.33 56.75 70.96 C 55.02 74.00 52.50 76.53 49.40 78.17 C 47.70 78.89 46.99 80.60 46.27 82.17 C 48.63 84.45 50.70 87.04 51.83 90.16 C 55.75 99.16 61.84 106.92 66.24 115.65 C 68.84 120.43 72.78 124.33 75.36 129.12 C 76.03 131.66 75.78 134.34 75.94 136.95 C 78.34 130.15 84.20 125.65 89.31 120.94 C 84.25 117.17 79.19 113.35 73.66 110.29 C 70.08 107.81 66.82 104.67 64.52 100.96 C 64.15 94.36 70.00 89.78 72.35 84.10 C 74.26 78.55 77.65 73.70 81.17 69.08 C 87.17 61.56 93.65 54.11 101.98 49.10 C 101.57 46.35 100.95 43.62 100.04 40.99 C 103.39 37.05 107.38 33.51 112.31 31.71 C 115.97 29.91 120.11 30.66 124.03 30.72 C 128.74 25.93 134.15 21.91 139.00 17.27 M 129.69 28.27 L 129.22 28.23 C 128.60 29.21 126.76 29.86 127.31 31.22 C 136.41 32.23 145.45 33.89 154.14 36.87 L 154.13 37.09 C 158.65 38.76 163.15 40.52 167.43 42.74 C 169.79 43.95 172.40 44.45 175.04 44.44 C 179.01 44.09 183.04 44.69 186.95 43.77 C 188.92 43.26 190.88 44.09 192.83 44.26 C 191.70 38.18 187.33 33.78 182.97 29.75 C 180.03 26.01 176.68 22.48 172.81 19.69 C 170.67 16.78 167.89 14.42 165.32 11.90 C 163.72 10.15 162.01 8.51 160.34 6.83 L 160.50 6.55 C 159.64 5.67 158.79 4.79 157.95 3.91 C 147.71 11.00 139.30 20.38 129.69 28.27 M 114.14 33.62 C 110.89 34.29 108.33 36.47 105.62 38.22 C 104.61 39.39 103.58 40.54 102.56 41.70 C 103.29 43.64 103.70 45.68 103.98 47.73 C 105.00 47.32 106.05 46.94 107.10 46.61 C 108.62 46.06 110.17 45.61 111.74 45.25 L 111.74 44.82 C 114.57 44.56 117.24 43.69 119.90 42.73 C 121.14 42.62 122.39 42.50 123.65 42.39 C 125.42 42.02 127.21 41.63 129.03 41.53 C 134.86 42.71 140.84 42.69 146.70 43.73 C 149.79 44.25 152.89 44.82 155.95 45.51 C 158.79 46.36 161.61 47.27 164.48 48.05 C 170.89 50.83 177.10 54.06 182.94 57.91 C 186.05 59.65 188.67 62.42 192.28 63.11 C 186.78 55.39 178.31 50.23 169.91 46.15 C 165.60 44.13 161.40 41.74 156.78 40.48 C 155.49 39.64 154.07 39.03 152.72 38.31 L 152.34 38.62 C 148.47 37.04 144.41 36.07 140.35 35.17 L 139.90 36.63 L 139.44 35.01 C 132.86 33.92 126.24 32.94 119.55 33.31 L 119.36 32.54 C 118.54 32.67 116.91 32.95 116.10 33.08 C 115.61 33.22 114.63 33.49 114.14 33.62 M 22.94 43.53 C 22.01 43.96 20.35 43.82 20.14 45.08 C 16.95 46.03 14.35 48.16 11.99 50.44 C 9.53 53.63 7.03 56.92 5.78 60.82 C 5.32 63.86 4.37 66.95 4.83 70.03 C 6.16 74.09 8.61 77.85 11.83 80.66 C 12.83 81.95 14.54 82.53 15.87 83.44 C 16.88 83.36 17.88 83.28 18.89 83.21 C 23.15 83.47 27.53 85.41 31.72 83.72 C 31.58 82.38 31.45 81.03 31.31 79.69 C 32.48 79.08 33.66 78.47 34.85 77.88 C 35.95 77.42 36.90 76.80 37.71 76.01 C 43.00 74.57 43.06 68.45 43.41 63.99 C 42.71 61.31 41.66 58.69 41.48 55.89 C 41.72 55.58 42.18 54.96 42.41 54.65 C 43.08 54.19 44.42 53.27 45.10 52.81 C 44.02 51.91 42.94 51.02 41.86 50.12 C 40.56 49.08 39.29 48.00 37.90 47.06 C 37.34 46.22 36.78 45.37 36.23 44.52 C 34.72 43.96 33.16 43.51 31.57 43.24 C 28.76 42.32 25.80 43.44 22.94 43.53 M 39.83 46.03 C 42.56 48.36 45.77 50.16 48.00 53.03 C 46.56 53.91 45.21 54.93 43.88 55.97 C 47.48 60.75 44.83 66.59 44.64 71.91 C 44.34 74.64 41.59 76.10 40.34 78.33 C 38.37 78.79 36.40 79.29 34.44 79.77 C 34.45 81.22 34.46 82.67 34.44 84.12 C 33.81 84.73 32.56 85.97 31.93 86.59 C 28.33 86.83 24.76 86.39 21.28 85.42 C 21.34 85.88 21.47 86.80 21.53 87.25 C 25.32 90.12 30.60 92.93 35.05 89.73 C 35.80 89.77 37.30 89.85 38.06 89.89 C 38.62 90.71 39.18 91.54 39.75 92.37 L 39.93 92.37 C 47.76 102.68 55.03 113.47 60.94 125.01 C 62.05 127.13 64.18 128.40 65.98 129.85 C 65.81 131.04 64.41 131.25 63.59 131.85 L 64.44 131.80 C 65.89 135.70 68.43 139.01 71.63 141.65 C 71.62 142.56 72.13 143.34 72.49 144.14 C 77.74 152.65 83.19 161.04 88.76 169.34 C 94.64 178.50 99.61 188.22 105.92 197.10 C 109.01 201.34 111.42 206.05 114.78 210.08 C 114.10 207.86 113.45 205.59 112.23 203.60 C 107.86 189.68 99.66 177.42 92.23 164.99 C 88.96 159.09 85.54 153.26 81.39 147.93 C 79.51 144.43 76.70 141.59 73.68 139.05 C 73.48 136.38 73.96 133.53 72.98 130.99 C 70.97 127.43 68.35 124.26 66.31 120.72 C 62.74 115.29 59.95 109.34 56.07 104.13 C 53.94 99.97 51.07 96.25 48.74 92.21 C 46.66 88.11 43.22 84.30 44.34 79.35 C 47.35 76.42 51.15 74.38 53.89 71.15 C 52.76 69.49 51.64 67.82 50.56 66.13 C 52.02 61.20 52.64 55.35 49.40 50.96 C 46.75 48.39 43.92 45.37 39.83 46.03 M 100.79 52.99 L 101.14 53.63 L 100.27 52.73 C 91.45 59.55 83.75 68.10 78.46 77.96 C 86.49 69.22 96.87 63.14 107.16 57.46 L 107.84 57.61 C 116.11 53.36 125.47 50.78 134.83 51.58 C 145.39 53.41 155.30 57.59 165.11 61.71 L 164.51 61.80 C 167.31 63.08 169.94 64.73 172.84 65.77 C 174.86 67.71 177.46 68.82 179.83 70.24 C 187.86 74.88 195.44 80.28 202.42 86.39 C 203.63 87.56 204.87 88.70 206.12 89.83 C 210.78 94.30 215.17 99.02 219.63 103.68 C 219.03 104.32 218.43 104.94 217.82 105.56 C 209.67 95.24 199.03 87.22 188.64 79.26 C 182.07 74.19 174.88 70.08 167.46 66.39 C 159.00 61.14 149.74 57.20 140.01 55.04 C 142.93 61.43 146.32 67.75 147.71 74.69 C 156.23 71.10 168.10 79.58 164.91 89.07 C 163.79 92.30 163.91 95.95 166.58 98.40 C 171.71 103.62 176.73 108.99 182.39 113.67 C 187.36 118.54 193.17 122.97 196.03 129.53 C 204.33 126.99 212.55 123.73 219.65 118.65 C 221.48 117.21 223.89 115.64 223.86 113.02 C 223.79 110.34 221.26 108.71 219.42 107.20 C 220.03 106.60 220.66 106.02 221.30 105.45 C 217.61 97.55 214.13 89.39 208.26 82.81 C 206.29 80.39 204.25 78.02 201.95 75.92 C 197.01 70.74 190.92 66.82 184.96 62.94 C 181.10 60.54 177.30 58.07 173.34 55.85 C 163.39 51.15 152.73 47.77 141.83 46.24 L 141.16 45.75 C 134.78 45.54 128.37 44.85 122.00 45.53 C 114.55 46.67 107.17 48.89 100.79 52.99 M 174.58 46.66 C 176.40 47.54 178.31 48.18 180.25 48.69 C 180.37 49.07 180.60 49.82 180.72 50.20 L 181.89 50.57 C 182.11 50.64 182.53 50.78 182.75 50.85 C 186.57 55.22 191.97 58.06 194.91 63.24 C 195.95 62.40 196.94 61.51 197.89 60.57 C 198.37 60.61 199.32 60.70 199.80 60.75 C 200.73 61.93 201.05 64.22 202.92 64.23 C 209.80 64.80 216.75 64.84 223.64 64.35 C 226.47 64.40 229.31 64.36 232.14 64.30 C 235.49 64.29 238.86 64.32 242.19 63.80 C 248.84 63.88 255.42 62.78 262.03 62.31 C 261.48 60.60 259.51 60.48 258.07 60.07 C 252.23 57.47 246.10 55.55 239.93 53.89 C 218.83 47.44 196.56 45.51 174.58 46.66 M 121.83 55.28 C 120.81 55.39 119.79 55.52 118.78 55.66 C 117.28 56.54 115.54 57.08 114.00 57.98 C 112.86 58.29 111.71 58.61 110.56 58.92 C 110.12 61.58 110.24 64.29 110.58 66.96 L 111.30 66.69 C 111.17 68.84 113.50 70.08 114.62 71.64 L 114.48 72.00 C 120.36 78.16 121.20 86.88 122.32 94.89 C 122.46 99.74 123.04 104.68 122.21 109.50 C 120.17 118.27 116.96 126.78 112.91 134.81 C 108.19 143.64 99.65 149.19 91.88 155.04 C 90.33 155.85 91.80 157.52 91.94 158.66 C 92.28 159.17 92.96 160.21 93.30 160.72 C 96.71 166.55 100.31 172.27 103.70 178.11 C 110.88 189.93 116.27 202.75 120.61 215.85 C 121.37 217.82 121.60 219.92 121.59 222.01 C 117.90 219.47 116.19 215.11 113.23 211.86 C 104.43 199.34 95.30 187.02 87.56 173.80 C 85.59 170.51 83.75 167.13 81.57 163.96 L 82.01 163.15 C 79.66 163.22 77.92 164.90 76.06 166.09 C 72.14 168.82 67.94 171.14 64.11 173.99 C 59.68 176.84 55.98 180.63 51.87 183.90 C 42.63 191.12 35.63 200.84 30.18 211.14 C 29.49 212.79 28.81 214.45 28.13 216.11 C 27.53 217.80 26.87 219.48 26.16 221.14 C 25.69 222.47 25.22 223.84 25.29 225.29 L 24.59 225.24 C 23.01 232.37 21.58 239.82 23.28 247.07 C 24.20 250.84 24.86 255.32 28.44 257.55 C 40.60 261.90 53.20 265.55 66.10 266.57 C 77.25 268.66 88.73 269.00 100.04 269.93 C 121.02 271.51 142.11 270.31 162.94 267.54 C 169.52 266.52 176.27 266.30 182.74 264.66 C 189.77 264.25 196.88 263.20 203.74 261.65 C 208.25 261.45 212.66 260.28 217.00 259.08 C 218.56 258.86 219.96 257.36 219.47 255.70 L 220.13 255.52 C 220.60 254.04 221.24 252.58 221.34 251.01 C 223.30 244.52 222.42 237.60 222.18 230.93 C 219.63 218.38 215.89 205.86 209.12 194.89 C 206.08 189.93 203.88 184.30 199.55 180.27 C 199.52 180.14 199.46 179.87 199.43 179.74 C 194.02 173.91 188.31 168.25 181.59 163.93 L 181.53 163.60 C 175.20 159.54 168.35 156.42 161.50 153.35 C 158.30 151.99 155.91 149.40 153.21 147.30 C 149.08 141.24 144.72 135.13 143.15 127.80 L 142.81 127.39 C 141.94 119.06 142.70 110.71 142.85 102.36 C 143.44 99.44 143.96 96.50 144.32 93.53 C 145.13 93.00 145.94 92.48 146.76 91.96 C 148.59 94.15 150.66 96.14 152.33 98.47 C 154.05 101.81 153.80 105.90 156.02 109.04 C 159.18 113.79 164.18 116.90 169.05 119.67 C 174.56 123.94 177.75 130.31 180.36 136.61 L 180.21 136.97 C 182.54 140.63 184.12 145.99 189.14 146.53 C 191.25 145.91 193.46 145.23 194.55 143.10 L 194.46 142.63 L 194.50 142.80 C 195.14 137.68 193.85 132.73 191.99 128.05 C 188.50 121.61 182.18 117.32 177.11 112.18 C 171.49 106.72 165.64 101.24 161.76 94.34 C 162.87 90.59 164.16 86.62 162.46 82.82 C 161.57 81.21 160.38 79.68 158.63 78.96 L 158.66 78.62 C 157.56 77.99 156.46 77.23 155.16 77.10 L 155.86 76.28 C 154.80 76.14 152.67 75.88 151.60 75.74 C 149.56 76.19 147.52 76.63 145.46 77.00 C 145.91 75.33 145.17 73.66 144.82 72.05 C 142.92 65.72 140.28 59.42 136.00 54.31 C 131.29 53.72 126.37 53.77 121.83 55.28 M 93.53 68.81 L 93.48 69.08 C 88.70 72.16 84.42 75.93 80.21 79.72 L 80.22 79.93 C 76.28 83.53 73.64 88.22 70.48 92.46 C 68.80 95.28 65.78 99.31 68.81 102.26 C 74.07 107.56 80.98 110.79 86.46 115.86 C 88.26 116.92 90.00 118.17 92.02 118.79 C 96.12 116.45 99.68 113.25 103.31 110.25 C 105.36 107.75 108.00 105.62 109.37 102.65 C 110.55 98.91 110.40 94.93 111.11 91.10 C 112.86 88.59 115.41 86.91 118.03 85.45 C 116.90 78.97 112.58 73.84 108.54 68.91 C 107.05 66.24 107.26 63.14 107.28 60.20 C 102.40 62.57 97.82 65.50 93.53 68.81 M 194.91 65.60 C 202.44 71.55 209.49 78.18 214.76 86.27 C 217.91 90.33 219.61 95.24 222.37 99.53 C 223.27 103.85 225.82 107.69 226.62 112.07 C 225.83 115.59 223.55 118.48 220.98 120.92 C 223.01 122.94 224.94 125.05 226.77 127.26 C 230.67 131.95 235.53 135.72 239.63 140.24 C 241.29 142.10 242.97 143.97 244.85 145.62 C 251.61 153.20 257.78 161.25 263.87 169.36 C 263.90 161.97 260.19 155.32 257.02 148.87 C 253.50 141.47 248.87 134.63 243.67 128.31 C 243.41 127.19 242.31 126.33 241.69 125.36 C 234.38 116.68 228.94 106.68 222.50 97.39 C 216.94 86.99 211.26 76.39 204.46 66.65 C 202.02 66.50 199.74 65.62 198.52 63.38 C 197.32 64.12 196.11 64.86 194.91 65.60 M 117.17 88.61 C 116.54 88.96 115.28 89.66 114.66 90.02 C 112.40 93.93 112.65 98.57 112.21 102.91 C 110.24 106.28 108.05 109.55 105.32 112.36 C 102.49 115.16 98.99 117.15 95.86 119.58 C 90.12 123.63 84.28 127.92 80.48 133.94 C 80.49 134.29 80.49 134.99 80.49 135.33 L 79.71 135.60 C 78.50 137.13 78.81 139.23 78.40 141.04 L 78.67 140.39 C 79.83 141.59 80.97 142.81 82.11 144.04 C 84.77 141.35 87.06 138.34 89.31 135.31 C 91.96 131.74 95.62 129.14 99.16 126.54 C 100.30 125.85 101.61 125.36 102.57 124.42 C 107.01 122.83 111.45 121.03 115.39 118.41 C 118.19 116.64 118.69 112.99 119.18 110.00 C 121.65 102.83 119.62 95.36 118.92 88.09 C 118.48 88.22 117.60 88.48 117.17 88.61 M 144.89 120.98 C 145.15 125.99 146.46 130.89 148.79 135.33 C 157.66 135.78 166.86 136.62 175.52 134.34 C 174.55 131.74 173.85 128.98 172.29 126.65 C 167.25 119.28 157.59 116.96 152.65 109.45 C 151.00 106.95 151.09 103.85 150.64 100.99 C 150.41 98.39 148.12 96.66 146.66 94.70 C 144.36 103.24 144.38 112.21 144.89 120.98 M 106.83 126.08 C 109.05 126.89 111.33 127.51 113.66 127.88 C 114.55 125.80 115.19 123.62 115.81 121.44 C 112.83 123.00 109.83 124.55 106.83 126.08 M 94.40 133.47 C 90.05 137.14 87.94 142.58 84.33 146.87 C 86.08 148.76 87.07 151.39 89.13 152.93 C 93.34 151.40 96.61 147.77 100.37 145.32 C 105.12 141.11 110.64 136.50 111.91 129.98 C 108.85 129.56 106.07 127.73 103.00 127.64 C 99.90 129.20 97.00 131.19 94.40 133.47 Z" />
<path fill="#c6a369" opacity="1.00" d=" M 129.69 28.27 C 139.30 20.38 147.71 11.00 157.95 3.91 C 158.79 4.79 159.64 5.67 160.50 6.55 L 160.34 6.83 C 159.54 8.24 158.65 9.63 158.16 11.19 C 158.08 16.45 159.12 21.72 160.96 26.64 C 159.61 26.68 158.26 26.72 156.91 26.77 C 155.62 27.66 154.35 28.57 153.05 29.45 C 146.68 27.91 140.23 25.95 133.61 26.71 C 133.50 27.16 133.28 28.06 133.17 28.51 C 132.01 28.43 130.85 28.35 129.69 28.27 Z" />
<path fill="#ba9463" opacity="1.00" d=" M 158.16 11.19 C 158.65 9.63 159.54 8.24 160.34 6.83 C 162.01 8.51 163.72 10.15 165.32 11.90 C 164.69 12.88 164.07 13.86 163.45 14.84 C 165.07 19.80 166.70 24.77 167.84 29.87 C 166.86 31.06 165.87 32.24 164.89 33.42 C 163.40 32.78 161.89 32.19 160.35 31.68 C 157.94 30.86 155.51 30.10 153.05 29.45 C 154.35 28.57 155.62 27.66 156.91 26.77 C 158.26 26.72 159.61 26.68 160.96 26.64 C 159.12 21.72 158.08 16.45 158.16 11.19 Z" />
<path fill="#a2785b" opacity="1.00" d=" M 165.32 11.90 C 167.89 14.42 170.67 16.78 172.81 19.69 C 174.03 23.80 175.93 27.75 176.55 32.01 C 177.07 34.66 175.17 36.70 173.67 38.61 C 172.61 37.87 171.54 37.15 170.47 36.43 C 168.68 35.31 166.81 34.31 164.89 33.42 C 165.87 32.24 166.86 31.06 167.84 29.87 C 166.70 24.77 165.07 19.80 163.45 14.84 C 164.07 13.86 164.69 12.88 165.32 11.90 Z" />
<path fill="#784a51" opacity="1.00" d=" M 172.81 19.69 C 176.68 22.48 180.03 26.01 182.97 29.75 C 182.57 32.58 181.96 35.36 181.31 38.14 C 178.87 39.86 176.75 41.99 175.04 44.44 C 172.40 44.45 169.79 43.95 167.43 42.74 C 168.81 40.83 169.85 38.71 170.47 36.43 C 171.54 37.15 172.61 37.87 173.67 38.61 C 175.17 36.70 177.07 34.66 176.55 32.01 C 175.93 27.75 174.03 23.80 172.81 19.69 Z" />
<path fill="#97654f" opacity="1.00" d=" M 133.61 26.71 C 140.23 25.95 146.68 27.91 153.05 29.45 C 155.51 30.10 157.94 30.86 160.35 31.68 C 158.33 31.56 156.30 31.52 154.27 31.47 C 154.23 33.27 154.18 35.07 154.14 36.87 C 145.45 33.89 136.41 32.23 127.31 31.22 C 126.76 29.86 128.60 29.21 129.22 28.23 L 129.69 28.27 C 130.85 28.35 132.01 28.43 133.17 28.51 C 133.28 28.06 133.50 27.16 133.61 26.71 Z" />
<path fill="#6b4051" opacity="1.00" d=" M 182.97 29.75 C 187.33 33.78 191.70 38.18 192.83 44.26 C 190.88 44.09 188.92 43.26 186.95 43.77 C 183.04 44.69 179.01 44.09 175.04 44.44 C 176.75 41.99 178.87 39.86 181.31 38.14 C 181.96 35.36 182.57 32.58 182.97 29.75 Z" />
<path fill="#8b594c" opacity="1.00" d=" M 154.27 31.47 C 156.30 31.52 158.33 31.56 160.35 31.68 C 161.89 32.19 163.40 32.78 164.89 33.42 C 166.81 34.31 168.68 35.31 170.47 36.43 C 169.85 38.71 168.81 40.83 167.43 42.74 C 163.15 40.52 158.65 38.76 154.13 37.09 L 154.14 36.87 C 154.18 35.07 154.23 33.27 154.27 31.47 Z" />
<path fill="#ffffff" opacity="1.00" d=" M 114.14 33.62 C 114.63 33.49 115.61 33.22 116.10 33.08 C 116.91 32.95 118.54 32.67 119.36 32.54 L 119.55 33.31 C 126.24 32.94 132.86 33.92 139.44 35.01 L 139.90 36.63 C 134.15 35.97 128.40 35.05 122.59 35.50 C 122.93 37.80 123.28 40.09 123.65 42.39 C 122.39 42.50 121.14 42.62 119.90 42.73 C 117.24 43.69 114.57 44.56 111.74 44.82 C 111.69 41.86 111.66 38.89 111.60 35.92 C 112.43 35.14 113.28 34.37 114.14 33.62 Z" />
<path fill="#e3d26b" opacity="1.00" d=" M 105.62 38.22 C 108.33 36.47 110.89 34.29 114.14 33.62 C 113.28 34.37 112.43 35.14 111.60 35.92 C 111.66 38.89 111.69 41.86 111.74 44.82 L 111.74 45.25 C 110.17 45.61 108.62 46.06 107.10 46.61 C 106.24 43.89 105.77 41.07 105.62 38.22 Z" />
<path fill="#e0cb6a" opacity="1.00" d=" M 122.59 35.50 C 128.40 35.05 134.15 35.97 139.90 36.63 L 140.35 35.17 C 144.41 36.07 148.47 37.04 152.34 38.62 C 150.35 40.20 148.46 41.91 146.70 43.73 C 140.84 42.69 134.86 42.71 129.03 41.53 C 127.21 41.63 125.42 42.02 123.65 42.39 C 123.28 40.09 122.93 37.80 122.59 35.50 Z" />
<path fill="#a56d5b" opacity="1.00" d=" M 102.56 41.70 C 103.58 40.54 104.61 39.39 105.62 38.22 C 105.77 41.07 106.24 43.89 107.10 46.61 C 106.05 46.94 105.00 47.32 103.98 47.73 C 103.70 45.68 103.29 43.64 102.56 41.70 Z" />
<path fill="#c79867" opacity="1.00" d=" M 152.34 38.62 L 152.72 38.31 C 154.07 39.03 155.49 39.64 156.78 40.48 C 157.84 41.57 158.85 42.70 159.86 43.84 C 158.56 44.40 157.25 44.95 155.95 45.51 C 152.89 44.82 149.79 44.25 146.70 43.73 C 148.46 41.91 150.35 40.20 152.34 38.62 Z" />
<path fill="#b16d64" opacity="1.00" d=" M 156.78 40.48 C 161.40 41.74 165.60 44.13 169.91 46.15 C 168.25 47.16 166.41 47.84 164.48 48.05 C 161.61 47.27 158.79 46.36 155.95 45.51 C 157.25 44.95 158.56 44.40 159.86 43.84 C 158.85 42.70 157.84 41.57 156.78 40.48 Z" />
<path fill="#f75280" opacity="1.00" d=" M 22.94 43.53 C 25.80 43.44 28.76 42.32 31.57 43.24 C 33.74 44.43 35.85 45.70 37.90 47.06 C 39.29 48.00 40.56 49.08 41.86 50.12 C 40.77 50.65 39.67 51.16 38.56 51.65 C 37.65 51.63 36.75 51.60 35.85 51.53 C 34.01 49.24 31.76 47.32 29.26 45.79 C 27.46 46.20 25.65 46.65 23.79 46.62 C 23.58 45.85 23.15 44.30 22.94 43.53 Z" />
<path fill="#ffffff" opacity="1.00" d=" M 31.57 43.24 C 33.16 43.51 34.72 43.96 36.23 44.52 C 36.78 45.37 37.34 46.22 37.90 47.06 C 35.85 45.70 33.74 44.43 31.57 43.24 Z" />
<path fill="#90215c" opacity="1.00" d=" M 20.14 45.08 C 20.35 43.82 22.01 43.96 22.94 43.53 C 23.15 44.30 23.58 45.85 23.79 46.62 C 25.65 46.65 27.46 46.20 29.26 45.79 C 31.76 47.32 34.01 49.24 35.85 51.53 C 33.43 51.19 31.08 50.51 28.79 49.67 C 27.11 50.61 25.37 51.57 24.27 53.21 C 21.66 56.84 19.00 60.66 17.87 65.05 C 18.25 66.91 20.14 68.00 21.23 69.48 L 21.58 70.37 C 22.76 73.04 23.40 75.93 23.05 78.86 C 22.12 77.89 21.21 76.90 20.24 75.98 C 18.61 74.91 16.02 74.45 15.69 72.17 C 15.32 69.37 15.31 66.54 15.28 63.72 C 15.32 63.35 15.41 62.61 15.45 62.24 C 16.51 60.07 17.74 57.98 18.92 55.87 C 17.70 54.89 16.49 53.91 15.26 52.94 C 17.33 50.63 19.34 48.15 20.14 45.08 Z" />
<path fill="#e3d26b" opacity="1.00" d=" M 11.99 50.44 C 14.35 48.16 16.95 46.03 20.14 45.08 C 19.34 48.15 17.33 50.63 15.26 52.94 C 14.18 52.10 13.09 51.26 11.99 50.44 Z" />
<path fill="#af8054" opacity="1.00" d=" M 39.83 46.03 C 43.92 45.37 46.75 48.39 49.40 50.96 C 49.42 57.33 48.17 63.60 47.71 69.94 C 47.64 72.95 46.24 75.60 44.42 77.91 C 43.00 78.67 41.56 79.38 40.12 80.09 L 40.34 78.33 C 41.59 76.10 44.34 74.64 44.64 71.91 C 44.83 66.59 47.48 60.75 43.88 55.97 C 45.21 54.93 46.56 53.91 48.00 53.03 C 45.77 50.16 42.56 48.36 39.83 46.03 Z" />
<path fill="#d8be6d" opacity="1.00" d=" M 100.79 52.99 C 107.17 48.89 114.55 46.67 122.00 45.53 C 128.37 44.85 134.78 45.54 141.16 45.75 L 141.83 46.24 C 142.31 46.59 143.27 47.28 143.75 47.63 C 141.73 50.60 138.19 51.36 134.83 51.58 C 125.47 50.78 116.11 53.36 107.84 57.61 L 107.16 57.46 C 105.67 57.12 104.18 56.78 102.69 56.44 C 102.19 55.50 101.67 54.56 101.14 53.63 L 100.79 52.99 Z" />
<path fill="#c19a63" opacity="1.00" d=" M 141.83 46.24 C 152.73 47.77 163.39 51.15 173.34 55.85 C 171.46 58.81 168.97 61.81 165.11 61.71 C 155.30 57.59 145.39 53.41 134.83 51.58 C 138.19 51.36 141.73 50.60 143.75 47.63 C 143.27 47.28 142.31 46.59 141.83 46.24 Z" />
<path fill="#891e5f" opacity="1.00" d=" M 169.91 46.15 C 178.31 50.23 186.78 55.39 192.28 63.11 C 188.67 62.42 186.05 59.65 182.94 57.91 C 177.10 54.06 170.89 50.83 164.48 48.05 C 166.41 47.84 168.25 47.16 169.91 46.15 Z" />
<path fill="#e2483d" opacity="1.00" d=" M 174.58 46.66 C 196.56 45.51 218.83 47.44 239.93 53.89 C 238.33 53.60 236.75 53.94 235.22 54.37 L 234.98 54.29 C 232.67 53.64 230.35 53.06 228.02 52.53 C 224.17 51.73 220.21 51.60 216.39 50.63 C 211.93 49.50 207.22 48.49 202.65 49.62 C 199.87 50.28 197.06 50.78 194.22 51.09 C 194.87 50.13 195.52 49.16 196.18 48.20 C 191.18 46.84 186.38 48.45 181.89 50.57 L 180.72 50.20 C 180.60 49.82 180.37 49.07 180.25 48.69 C 178.31 48.18 176.40 47.54 174.58 46.66 Z" />
<path fill="#871c5f" opacity="1.00" d=" M 181.89 50.57 C 186.38 48.45 191.18 46.84 196.18 48.20 C 195.52 49.16 194.87 50.13 194.22 51.09 C 197.06 50.78 199.87 50.28 202.65 49.62 C 207.22 48.49 211.93 49.50 216.39 50.63 C 220.21 51.60 224.17 51.73 228.02 52.53 C 227.82 56.90 229.67 60.83 232.14 64.30 C 229.31 64.36 226.47 64.40 223.64 64.35 C 220.18 61.30 215.51 61.34 211.18 61.18 C 207.94 56.39 202.10 55.09 196.69 54.80 C 195.96 54.75 194.50 54.66 193.78 54.62 C 190.06 53.49 186.49 51.91 182.75 50.85 C 182.53 50.78 182.11 50.64 181.89 50.57 Z" />
<path fill="#52166c" opacity="1.00" d=" M 24.27 53.21 C 25.37 51.57 27.11 50.61 28.79 49.67 C 31.08 50.51 33.43 51.19 35.85 51.53 C 36.75 51.60 37.65 51.63 38.56 51.65 C 39.80 52.70 41.06 53.74 42.41 54.65 C 42.18 54.96 41.72 55.58 41.48 55.89 C 41.66 58.69 42.71 61.31 43.41 63.99 C 43.06 68.45 43.00 74.57 37.71 76.01 C 39.05 73.53 40.40 71.06 41.71 68.56 C 42.04 65.68 38.22 65.71 36.43 64.62 C 37.04 63.77 37.65 62.94 38.26 62.10 C 37.73 58.25 35.75 54.90 33.17 52.06 C 30.60 53.57 28.13 55.26 25.86 57.19 C 27.50 57.42 29.13 57.63 30.77 57.84 C 30.74 59.67 30.71 61.50 30.60 63.34 C 30.56 63.75 30.47 64.58 30.43 64.99 C 28.38 64.90 26.34 64.54 24.53 63.55 C 24.13 63.99 23.34 64.88 22.94 65.33 C 22.30 66.68 21.76 68.08 21.23 69.48 C 20.14 68.00 18.25 66.91 17.87 65.05 C 19.00 60.66 21.66 56.84 24.27 53.21 Z" />
<path fill="#7d2ab1" opacity="1.00" d=" M 41.86 50.12 C 42.94 51.02 44.02 51.91 45.10 52.81 C 44.42 53.27 43.08 54.19 42.41 54.65 C 41.06 53.74 39.80 52.70 38.56 51.65 C 39.67 51.16 40.77 50.65 41.86 50.12 Z" />
<path fill="#ffffc7" opacity="1.00" d=" M 5.78 60.82 C 7.03 56.92 9.53 53.63 11.99 50.44 C 13.09 51.26 14.18 52.10 15.26 52.94 C 16.49 53.91 17.70 54.89 18.92 55.87 C 17.74 57.98 16.51 60.07 15.45 62.24 C 12.21 62.18 8.98 62.00 5.75 61.71 L 5.78 60.82 Z" />
<path fill="#6f355a" opacity="1.00" d=" M 49.40 50.96 C 52.64 55.35 52.02 61.20 50.56 66.13 C 51.64 67.82 52.76 69.49 53.89 71.15 C 51.15 74.38 47.35 76.42 44.34 79.35 L 44.42 77.91 C 46.24 75.60 47.64 72.95 47.71 69.94 C 48.17 63.60 49.42 57.33 49.40 50.96 Z" />
<path fill="#671452" opacity="1.00" d=" M 182.75 50.85 C 186.49 51.91 190.06 53.49 193.78 54.62 C 194.70 55.98 195.63 57.33 196.57 58.69 C 196.33 59.02 195.86 59.69 195.63 60.02 C 196.19 60.16 197.32 60.43 197.89 60.57 C 196.94 61.51 195.95 62.40 194.91 63.24 C 191.97 58.06 186.57 55.22 182.75 50.85 Z" />
<path fill="#6b24e3" opacity="1.00" d=" M 25.86 57.19 C 28.13 55.26 30.60 53.57 33.17 52.06 C 35.75 54.90 37.73 58.25 38.26 62.10 C 37.65 62.94 37.04 63.77 36.43 64.62 C 34.50 64.11 32.54 63.74 30.60 63.34 C 30.71 61.50 30.74 59.67 30.77 57.84 C 29.13 57.63 27.50 57.42 25.86 57.19 Z" />
<path fill="#91228f" opacity="1.00" d=" M 228.02 52.53 C 230.35 53.06 232.67 53.64 234.98 54.29 C 235.48 57.02 235.17 60.42 237.51 62.40 C 238.99 63.09 240.60 63.42 242.19 63.80 C 238.86 64.32 235.49 64.29 232.14 64.30 C 229.67 60.83 227.82 56.90 228.02 52.53 Z" />
<path fill="#caa86c" opacity="1.00" d=" M 78.46 77.96 C 83.75 68.10 91.45 59.55 100.27 52.73 L 101.14 53.63 C 101.67 54.56 102.19 55.50 102.69 56.44 C 104.18 56.78 105.67 57.12 107.16 57.46 C 96.87 63.14 86.49 69.22 78.46 77.96 Z" />
<path fill="#446fbe" opacity="1.00" d=" M 121.83 55.28 C 126.37 53.77 131.29 53.72 136.00 54.31 C 137.42 61.18 140.93 67.82 139.95 75.00 C 139.65 77.88 139.86 80.78 139.61 83.66 C 137.19 87.47 132.87 89.67 130.76 93.76 C 134.36 93.90 137.94 93.27 141.28 91.89 C 140.89 99.66 138.70 107.55 140.57 115.26 C 142.26 111.16 142.10 106.67 142.85 102.36 C 142.70 110.71 141.94 119.06 142.81 127.39 C 136.14 120.18 139.79 109.58 138.53 100.80 C 133.96 109.42 136.58 120.89 129.01 128.05 C 127.51 130.05 125.16 130.64 122.87 129.74 C 116.85 140.35 107.44 148.33 98.99 156.92 C 97.43 158.65 95.40 159.78 93.30 160.72 C 92.96 160.21 92.28 159.17 91.94 158.66 C 102.20 151.56 111.15 142.44 117.99 132.00 C 121.74 126.53 122.60 119.81 124.60 113.62 C 125.92 109.56 126.82 105.29 126.20 101.01 C 125.30 93.51 124.75 85.89 122.54 78.63 C 121.49 75.04 119.00 72.15 117.38 68.84 C 115.85 65.92 117.15 62.67 117.69 59.68 C 118.10 59.38 118.92 58.78 119.33 58.48 C 119.51 57.87 119.88 56.64 120.07 56.03 C 120.51 55.84 121.39 55.47 121.83 55.28 M 127.39 56.32 C 124.79 57.66 121.63 58.38 119.81 60.84 C 117.86 63.84 117.17 68.29 120.08 70.95 C 124.12 76.19 132.78 73.58 135.12 68.03 C 135.55 65.34 136.00 62.55 135.48 59.85 C 134.30 56.77 130.54 54.10 127.39 56.32 Z" />
<path fill="#701756" opacity="1.00" d=" M 196.69 54.80 C 202.10 55.09 207.94 56.39 211.18 61.18 C 209.53 61.10 207.88 61.03 206.23 60.92 C 202.65 59.58 199.69 57.09 196.69 54.80 Z" />
<path fill="#f856aa" opacity="1.00" d=" M 235.22 54.37 C 236.75 53.94 238.33 53.60 239.93 53.89 C 246.10 55.55 252.23 57.47 258.07 60.07 C 250.22 59.28 242.51 57.41 235.22 54.37 Z" />
<path fill="#e2eefd" opacity="1.00" d=" M 118.78 55.66 C 119.79 55.52 120.81 55.39 121.83 55.28 C 121.39 55.47 120.51 55.84 120.07 56.03 C 119.88 56.64 119.51 57.87 119.33 58.48 C 118.92 58.78 118.10 59.38 117.69 59.68 C 117.23 59.88 116.31 60.28 115.85 60.47 C 114.77 60.38 113.70 60.27 112.62 60.14 C 112.59 62.17 112.55 64.19 112.50 66.22 C 112.20 66.34 111.60 66.57 111.30 66.69 L 110.58 66.96 C 110.24 64.29 110.12 61.58 110.56 58.92 C 111.71 58.61 112.86 58.29 114.00 57.98 C 115.54 57.08 117.28 56.54 118.78 55.66 Z" />
<path fill="#3753a9" opacity="1.00" d=" M 136.00 54.31 C 140.28 59.42 142.92 65.72 144.82 72.05 C 145.17 73.66 145.91 75.33 145.46 77.00 C 143.31 81.07 142.71 85.68 144.54 90.00 C 143.98 90.07 142.88 90.22 142.32 90.29 C 142.06 90.69 141.54 91.49 141.28 91.89 C 137.94 93.27 134.36 93.90 130.76 93.76 C 132.87 89.67 137.19 87.47 139.61 83.66 C 139.86 80.78 139.65 77.88 139.95 75.00 C 140.93 67.82 137.42 61.18 136.00 54.31 Z" />
<path fill="#a23233" opacity="1.00" d=" M 193.78 54.62 C 194.50 54.66 195.96 54.75 196.69 54.80 C 199.69 57.09 202.65 59.58 206.23 60.92 C 204.09 60.82 201.94 60.81 199.80 60.75 C 199.32 60.70 198.37 60.61 197.89 60.57 C 197.32 60.43 196.19 60.16 195.63 60.02 C 195.86 59.69 196.33 59.02 196.57 58.69 C 195.63 57.33 194.70 55.98 193.78 54.62 Z" />
<path fill="#9f2ac3" opacity="1.00" d=" M 234.98 54.29 L 235.22 54.37 C 242.51 57.41 250.22 59.28 258.07 60.07 C 259.51 60.48 261.48 60.60 262.03 62.31 C 255.42 62.78 248.84 63.88 242.19 63.80 C 240.60 63.42 238.99 63.09 237.51 62.40 C 235.17 60.42 235.48 57.02 234.98 54.29 Z" />
<path fill="#252587" opacity="1.00" d=" M 127.39 56.32 C 130.54 54.10 134.30 56.77 135.48 59.85 C 136.00 62.55 135.55 65.34 135.12 68.03 C 132.78 73.58 124.12 76.19 120.08 70.95 C 117.17 68.29 117.86 63.84 119.81 60.84 C 121.63 58.38 124.79 57.66 127.39 56.32 M 120.33 67.65 C 122.22 69.48 124.27 71.88 127.07 71.98 C 129.35 71.24 131.12 69.41 132.61 67.61 C 133.34 64.96 132.70 62.11 132.72 59.39 C 131.99 59.96 131.26 60.54 130.53 61.12 C 130.54 60.10 130.55 59.07 130.57 58.05 C 126.21 59.48 119.82 62.14 120.33 67.65 Z" />
<path fill="#58345a" opacity="1.00" d=" M 140.01 55.04 C 149.74 57.20 159.00 61.14 167.46 66.39 C 174.88 70.08 182.07 74.19 188.64 79.26 C 199.03 87.22 209.67 95.24 217.82 105.56 C 218.43 104.94 219.03 104.32 219.63 103.68 C 215.17 99.02 210.78 94.30 206.12 89.83 C 206.94 87.53 207.64 85.18 208.26 82.81 C 214.13 89.39 217.61 97.55 221.30 105.45 C 220.66 106.02 220.03 106.60 219.42 107.20 C 221.26 108.71 223.79 110.34 223.86 113.02 C 223.89 115.64 221.48 117.21 219.65 118.65 C 212.55 123.73 204.33 126.99 196.03 129.53 C 193.17 122.97 187.36 118.54 182.39 113.67 C 176.73 108.99 171.71 103.62 166.58 98.40 C 163.91 95.95 163.79 92.30 164.91 89.07 C 168.10 79.58 156.23 71.10 147.71 74.69 C 146.32 67.75 142.93 61.43 140.01 55.04 Z" />
<path fill="#b18255" opacity="1.00" d=" M 173.34 55.85 C 177.30 58.07 181.10 60.54 184.96 62.94 C 183.18 63.15 181.40 63.35 179.63 63.55 C 179.24 64.83 178.86 66.11 178.48 67.40 C 176.60 66.86 174.71 66.34 172.84 65.77 C 169.94 64.73 167.31 63.08 164.51 61.80 L 165.11 61.71 C 168.97 61.81 171.46 58.81 173.34 55.85 Z" />
<path fill="#30439d" opacity="1.00" d=" M 120.33 67.65 C 119.82 62.14 126.21 59.48 130.57 58.05 C 130.55 59.07 130.54 60.10 130.53 61.12 C 131.26 60.54 131.99 59.96 132.72 59.39 C 132.70 62.11 133.34 64.96 132.61 67.61 C 131.12 69.41 129.35 71.24 127.07 71.98 C 124.27 71.88 122.22 69.48 120.33 67.65 Z" />
<path fill="#7ea8e8" opacity="1.00" d=" M 112.62 60.14 C 113.70 60.27 114.77 60.38 115.85 60.47 C 115.69 64.20 116.24 68.15 114.62 71.64 C 113.50 70.08 111.17 68.84 111.30 66.69 C 111.60 66.57 112.20 66.34 112.50 66.22 C 112.55 64.19 112.59 62.17 112.62 60.14 Z" />
<path fill="#5c9fe3" opacity="1.00" d=" M 115.85 60.47 C 116.31 60.28 117.23 59.88 117.69 59.68 C 117.15 62.67 115.85 65.92 117.38 68.84 C 119.00 72.15 121.49 75.04 122.54 78.63 C 124.75 85.89 125.30 93.51 126.20 101.01 C 126.82 105.29 125.92 109.56 124.60 113.62 C 122.60 119.81 121.74 126.53 117.99 132.00 C 111.15 142.44 102.20 151.56 91.94 158.66 C 91.80 157.52 90.33 155.85 91.88 155.04 C 99.65 149.19 108.19 143.64 112.91 134.81 C 116.96 126.78 120.17 118.27 122.21 109.50 C 123.04 104.68 122.46 99.74 122.32 94.89 C 121.20 86.88 120.36 78.16 114.48 72.00 L 114.62 71.64 C 116.24 68.15 115.69 64.20 115.85 60.47 Z" />
<path fill="#ffdbd5" opacity="1.00" d=" M 4.83 70.03 C 4.37 66.95 5.32 63.86 5.78 60.82 L 5.75 61.71 C 5.78 63.86 5.93 66.01 6.08 68.16 C 6.70 67.84 7.93 67.19 8.55 66.87 C 8.50 67.60 8.39 69.05 8.34 69.77 C 8.17 73.77 11.12 76.85 11.83 80.66 C 8.61 77.85 6.16 74.09 4.83 70.03 Z" />
<path fill="#663d55" opacity="1.00" d=" M 93.53 68.81 C 97.82 65.50 102.40 62.57 107.28 60.20 C 107.26 63.14 107.05 66.24 108.54 68.91 C 107.45 73.31 105.18 77.78 106.40 82.41 C 106.92 85.78 108.95 88.57 111.11 91.10 C 110.40 94.93 110.55 98.91 109.37 102.65 C 108.00 105.62 105.36 107.75 103.31 110.25 C 101.06 105.43 98.77 100.41 98.68 94.98 C 98.51 92.48 98.87 89.93 98.33 87.46 C 97.20 85.42 95.35 83.65 95.38 81.15 C 95.37 78.71 93.41 77.04 92.49 74.95 C 92.66 72.97 93.12 71.03 93.48 69.08 L 93.53 68.81 Z" />
<path fill="#56114c" opacity="1.00" d=" M 199.80 60.75 C 201.94 60.81 204.09 60.82 206.23 60.92 C 207.88 61.03 209.53 61.10 211.18 61.18 C 215.51 61.34 220.18 61.30 223.64 64.35 C 216.75 64.84 209.80 64.80 202.92 64.23 C 201.05 64.22 200.73 61.93 199.80 60.75 Z" />
<path fill="#ffffa4" opacity="1.00" d=" M 5.75 61.71 C 8.98 62.00 12.21 62.18 15.45 62.24 C 15.41 62.61 15.32 63.35 15.28 63.72 C 13.38 63.29 11.48 62.85 9.59 62.42 C 9.24 63.90 8.89 65.38 8.55 66.87 C 7.93 67.19 6.70 67.84 6.08 68.16 C 5.93 66.01 5.78 63.86 5.75 61.71 Z" />
<path fill="#ec6864" opacity="1.00" d=" M 8.55 66.87 C 8.89 65.38 9.24 63.90 9.59 62.42 C 10.69 63.84 11.80 65.26 12.91 66.68 C 11.69 67.67 10.48 68.66 9.21 69.58 L 8.34 69.77 C 8.39 69.05 8.50 67.60 8.55 66.87 Z" />
<path fill="#b8344e" opacity="1.00" d=" M 9.59 62.42 C 11.48 62.85 13.38 63.29 15.28 63.72 C 15.31 66.54 15.32 69.37 15.69 72.17 C 16.02 74.45 18.61 74.91 20.24 75.98 C 18.12 76.03 16.01 76.14 13.89 76.28 C 14.47 75.02 15.05 73.75 15.62 72.48 C 14.22 72.59 12.82 72.70 11.42 72.79 C 10.69 71.72 9.96 70.64 9.21 69.58 C 10.48 68.66 11.69 67.67 12.91 66.68 C 11.80 65.26 10.69 63.84 9.59 62.42 Z" />
<path fill="#abcdff" opacity="1.00" d=" M 24.53 63.55 C 26.34 64.54 28.38 64.90 30.43 64.99 C 30.47 64.58 30.56 63.75 30.60 63.34 C 32.54 63.74 34.50 64.11 36.43 64.62 C 38.22 65.71 42.04 65.68 41.71 68.56 C 40.57 67.99 39.43 67.41 38.29 66.83 C 36.04 67.41 33.74 67.72 31.43 67.87 C 31.18 67.17 30.67 65.78 30.42 65.09 C 27.93 65.17 25.44 65.23 22.94 65.33 C 23.34 64.88 24.13 63.99 24.53 63.55 Z" />
<path fill="#905540" opacity="1.00" d=" M 179.63 63.55 C 181.40 63.35 183.18 63.15 184.96 62.94 C 190.92 66.82 197.01 70.74 201.95 75.92 C 203.89 79.16 203.70 82.94 202.42 86.39 C 195.44 80.28 187.86 74.88 179.83 70.24 C 177.46 68.82 174.86 67.71 172.84 65.77 C 174.71 66.34 176.60 66.86 178.48 67.40 C 178.86 66.11 179.24 64.83 179.63 63.55 Z" />
<path fill="#623a55" opacity="1.00" d=" M 194.91 65.60 C 196.11 64.86 197.32 64.12 198.52 63.38 C 199.74 65.62 202.02 66.50 204.46 66.65 C 211.26 76.39 216.94 86.99 222.50 97.39 C 222.46 97.92 222.40 99.00 222.37 99.53 C 219.61 95.24 217.91 90.33 214.76 86.27 C 209.49 78.18 202.44 71.55 194.91 65.60 Z" />
<path fill="#57237b" opacity="1.00" d=" M 21.23 69.48 C 21.76 68.08 22.30 66.68 22.94 65.33 C 25.44 65.23 27.93 65.17 30.42 65.09 C 30.67 65.78 31.18 67.17 31.43 67.87 C 33.74 67.72 36.04 67.41 38.29 66.83 C 39.43 67.41 40.57 67.99 41.71 68.56 C 40.40 71.06 39.05 73.53 37.71 76.01 C 36.90 76.80 35.95 77.42 34.85 77.88 C 32.13 74.81 31.81 70.04 28.43 67.59 C 25.60 65.80 23.42 68.59 21.58 70.37 L 21.23 69.48 Z" />
<path fill="#50166c" opacity="1.00" d=" M 21.58 70.37 C 23.42 68.59 25.60 65.80 28.43 67.59 C 31.81 70.04 32.13 74.81 34.85 77.88 C 33.66 78.47 32.48 79.08 31.31 79.69 C 31.45 81.03 31.58 82.38 31.72 83.72 C 27.53 85.41 23.15 83.47 18.89 83.21 C 19.33 82.69 20.20 81.65 20.64 81.13 C 20.18 80.87 19.25 80.36 18.78 80.10 C 19.77 79.40 20.75 78.70 21.73 78.00 C 21.36 77.49 20.61 76.48 20.24 75.98 C 21.21 76.90 22.12 77.89 23.05 78.86 C 23.40 75.93 22.76 73.04 21.58 70.37 Z" />
<path fill="#58345a" opacity="1.00" d=" M 108.54 68.91 C 112.58 73.84 116.90 78.97 118.03 85.45 C 115.41 86.91 112.86 88.59 111.11 91.10 C 108.95 88.57 106.92 85.78 106.40 82.41 C 105.18 77.78 107.45 73.31 108.54 68.91 Z" />
<path fill="#f353a9" opacity="1.00" d=" M 8.34 69.77 L 9.21 69.58 C 9.96 70.64 10.69 71.72 11.42 72.79 C 12.22 73.97 13.02 75.15 13.89 76.28 C 15.32 77.79 16.98 79.06 18.78 80.10 C 19.25 80.36 20.18 80.87 20.64 81.13 C 20.20 81.65 19.33 82.69 18.89 83.21 C 17.88 83.28 16.88 83.36 15.87 83.44 C 14.54 82.53 12.83 81.95 11.83 80.66 C 11.12 76.85 8.17 73.77 8.34 69.77 Z" />
<path fill="#83514b" opacity="1.00" d=" M 80.21 79.72 C 84.42 75.93 88.70 72.16 93.48 69.08 C 93.12 71.03 92.66 72.97 92.49 74.95 C 93.41 77.04 95.37 78.71 95.38 81.15 C 95.35 83.65 97.20 85.42 98.33 87.46 C 98.87 89.93 98.51 92.48 98.68 94.98 C 98.77 100.41 101.06 105.43 103.31 110.25 C 99.68 113.25 96.12 116.45 92.02 118.79 C 90.00 118.17 88.26 116.92 86.46 115.86 C 87.13 114.94 87.90 113.91 87.21 112.75 C 85.82 107.46 79.74 103.94 80.73 98.01 C 81.31 91.98 80.54 85.95 80.22 79.93 L 80.21 79.72 Z" />
<path fill="#c55a5a" opacity="1.00" d=" M 11.42 72.79 C 12.82 72.70 14.22 72.59 15.62 72.48 C 15.05 73.75 14.47 75.02 13.89 76.28 C 13.02 75.15 12.22 73.97 11.42 72.79 Z" />
<path fill="#db474a" opacity="1.00" d=" M 13.89 76.28 C 16.01 76.14 18.12 76.03 20.24 75.98 C 20.61 76.48 21.36 77.49 21.73 78.00 C 20.75 78.70 19.77 79.40 18.78 80.10 C 16.98 79.06 15.32 77.79 13.89 76.28 Z" />
<path fill="#282d8d" opacity="1.00" d=" M 145.46 77.00 C 147.52 76.63 149.56 76.19 151.60 75.74 C 150.14 79.47 147.92 83.54 149.32 87.61 C 150.07 90.46 152.31 92.47 154.36 94.42 C 154.76 96.40 155.03 98.42 155.72 100.33 C 156.50 102.49 158.70 103.54 160.37 104.92 C 165.25 109.72 171.48 112.62 177.03 116.52 C 177.66 117.68 178.26 118.87 178.87 120.05 C 175.72 118.50 172.17 117.38 169.05 119.67 C 164.18 116.90 159.18 113.79 156.02 109.04 C 153.80 105.90 154.05 101.81 152.33 98.47 C 150.66 96.14 148.59 94.15 146.76 91.96 C 145.94 92.48 145.13 93.00 144.32 93.53 C 144.44 92.36 144.51 91.18 144.54 90.00 C 142.71 85.68 143.31 81.07 145.46 77.00 Z" />
<path fill="#344aa1" opacity="1.00" d=" M 151.60 75.74 C 152.67 75.88 154.80 76.14 155.86 76.28 L 155.16 77.10 C 151.45 79.19 155.02 83.67 158.37 82.86 C 157.62 86.84 157.47 90.90 157.86 94.94 C 155.04 98.34 158.82 101.88 160.37 104.92 C 158.70 103.54 156.50 102.49 155.72 100.33 C 155.03 98.42 154.76 96.40 154.36 94.42 C 152.31 92.47 150.07 90.46 149.32 87.61 C 147.92 83.54 150.14 79.47 151.60 75.74 Z" />
<path fill="#75454d" opacity="1.00" d=" M 201.95 75.92 C 204.25 78.02 206.29 80.39 208.26 82.81 C 207.64 85.18 206.94 87.53 206.12 89.83 C 204.87 88.70 203.63 87.56 202.42 86.39 C 203.70 82.94 203.89 79.16 201.95 75.92 Z" />
<path fill="#f2f6fb" opacity="1.00" d=" M 158.37 82.86 C 155.02 83.67 151.45 79.19 155.16 77.10 C 156.46 77.23 157.56 77.99 158.66 78.62 L 158.63 78.96 C 158.51 80.25 158.42 81.55 158.37 82.86 Z" />
<path fill="#95474d" opacity="1.00" d=" M 40.12 80.09 C 41.56 79.38 43.00 78.67 44.42 77.91 L 44.34 79.35 C 43.22 84.30 46.66 88.11 48.74 92.21 C 51.07 96.25 53.94 99.97 56.07 104.13 C 55.29 104.08 53.71 103.98 52.93 103.94 C 51.13 100.27 48.99 96.74 46.26 93.69 C 44.77 91.76 42.02 92.51 39.93 92.37 L 39.75 92.37 C 39.18 91.54 38.62 90.71 38.06 89.89 C 37.30 89.85 35.80 89.77 35.05 89.73 C 36.04 88.95 37.02 88.15 37.96 87.32 C 39.28 85.12 39.96 82.63 40.12 80.09 Z" />
<path fill="#d2b66d" opacity="1.00" d=" M 34.44 79.77 C 36.40 79.29 38.37 78.79 40.34 78.33 L 40.12 80.09 C 39.96 82.63 39.28 85.12 37.96 87.32 C 35.95 87.07 33.95 86.80 31.93 86.59 C 32.56 85.97 33.81 84.73 34.44 84.12 C 34.46 82.67 34.45 81.22 34.44 79.77 Z" />
<path fill="#5b9fe1" opacity="1.00" d=" M 158.63 78.96 C 160.38 79.68 161.57 81.21 162.46 82.82 C 162.55 85.36 162.42 87.89 162.26 90.43 C 161.39 90.48 159.65 90.59 158.77 90.65 C 158.66 88.05 158.47 85.45 158.37 82.86 C 158.42 81.55 158.51 80.25 158.63 78.96 Z" />
<path fill="#a36d48" opacity="1.00" d=" M 70.48 92.46 C 73.64 88.22 76.28 83.53 80.22 79.93 C 80.54 85.95 81.31 91.98 80.73 98.01 C 79.74 103.94 85.82 107.46 87.21 112.75 C 87.90 113.91 87.13 114.94 86.46 115.86 C 80.98 110.79 74.07 107.56 68.81 102.26 C 65.78 99.31 68.80 95.28 70.48 92.46 Z" />
<path fill="#4368b9" opacity="1.00" d=" M 158.37 82.86 C 158.47 85.45 158.66 88.05 158.77 90.65 C 159.65 90.59 161.39 90.48 162.26 90.43 C 162.42 87.89 162.55 85.36 162.46 82.82 C 164.16 86.62 162.87 90.59 161.76 94.34 C 160.46 94.54 159.16 94.74 157.86 94.94 C 157.47 90.90 157.62 86.84 158.37 82.86 Z" />
<path fill="#b18455" opacity="1.00" d=" M 21.28 85.42 C 24.76 86.39 28.33 86.83 31.93 86.59 C 33.95 86.80 35.95 87.07 37.96 87.32 C 37.02 88.15 36.04 88.95 35.05 89.73 C 30.60 92.93 25.32 90.12 21.53 87.25 C 21.47 86.80 21.34 85.88 21.28 85.42 Z" />
<path fill="#30459e" opacity="1.00" d=" M 117.17 88.61 C 117.60 88.48 118.48 88.22 118.92 88.09 C 119.62 95.36 121.65 102.83 119.18 110.00 C 119.16 109.45 119.13 108.36 119.12 107.81 C 117.77 108.24 116.42 108.67 115.10 109.17 C 115.46 107.10 115.88 105.04 116.37 103.00 C 116.07 102.55 115.47 101.64 115.17 101.19 C 115.29 98.36 115.13 95.28 117.04 92.95 C 117.41 92.76 118.16 92.37 118.53 92.17 C 118.57 91.20 118.64 89.27 118.67 88.30 L 117.17 88.61 Z" />
<path fill="#b3dff5" opacity="1.00" d=" M 114.66 90.02 C 115.28 89.66 116.54 88.96 117.17 88.61 L 118.67 88.30 C 118.64 89.27 118.57 91.20 118.53 92.17 C 118.16 92.37 117.41 92.76 117.04 92.95 C 116.37 93.10 115.02 93.38 114.35 93.52 C 114.42 92.65 114.58 90.89 114.66 90.02 Z" />
<path fill="#416bad" opacity="1.00" d=" M 112.21 102.91 C 112.65 98.57 112.40 93.93 114.66 90.02 C 114.58 90.89 114.42 92.65 114.35 93.52 C 115.02 93.38 116.37 93.10 117.04 92.95 C 115.13 95.28 115.29 98.36 115.17 101.19 C 114.19 101.76 113.20 102.34 112.21 102.91 Z" />
<path fill="#5c9fe3" opacity="1.00" d=" M 142.32 90.29 C 142.88 90.22 143.98 90.07 144.54 90.00 C 144.51 91.18 144.44 92.36 144.32 93.53 C 143.96 96.50 143.44 99.44 142.85 102.36 C 142.10 106.67 142.26 111.16 140.57 115.26 C 138.70 107.55 140.89 99.66 141.28 91.89 C 141.54 91.49 142.06 90.69 142.32 90.29 Z" />
<path fill="#caa669" opacity="1.00" d=" M 39.93 92.37 C 42.02 92.51 44.77 91.76 46.26 93.69 C 48.99 96.74 51.13 100.27 52.93 103.94 C 53.37 109.14 55.43 114.14 58.60 118.27 C 61.67 121.64 66.36 124.68 65.98 129.85 C 64.18 128.40 62.05 127.13 60.94 125.01 C 55.03 113.47 47.76 102.68 39.93 92.37 Z" />
<path fill="#5b9ee1" opacity="1.00" d=" M 157.86 94.94 C 159.16 94.74 160.46 94.54 161.76 94.34 C 165.64 101.24 171.49 106.72 177.11 112.18 C 177.90 113.90 178.56 115.67 179.32 117.41 C 178.75 117.19 177.60 116.74 177.03 116.52 C 171.48 112.62 165.25 109.72 160.37 104.92 C 158.82 101.88 155.04 98.34 157.86 94.94 Z" />
<path fill="#5a3559" opacity="1.00" d=" M 144.89 120.98 C 144.38 112.21 144.36 103.24 146.66 94.70 C 148.12 96.66 150.41 98.39 150.64 100.99 C 151.09 103.85 151.00 106.95 152.65 109.45 C 157.59 116.96 167.25 119.28 172.29 126.65 C 173.85 128.98 174.55 131.74 175.52 134.34 C 166.86 136.62 157.66 135.78 148.79 135.33 C 146.46 130.89 145.15 125.99 144.89 120.98 Z" />
<path fill="#8e5542" opacity="1.00" d=" M 222.37 99.53 C 222.40 99.00 222.46 97.92 222.50 97.39 C 228.94 106.68 234.38 116.68 241.69 125.36 C 242.31 126.33 243.41 127.19 243.67 128.31 C 241.31 134.07 243.68 139.91 244.85 145.62 C 242.97 143.97 241.29 142.10 239.63 140.24 C 235.53 135.72 230.67 131.95 226.77 127.26 C 224.94 125.05 223.01 122.94 220.98 120.92 C 223.55 118.48 225.83 115.59 226.62 112.07 C 225.82 107.69 223.27 103.85 222.37 99.53 Z" />
<path fill="#3d60b3" opacity="1.00" d=" M 129.01 128.05 C 136.58 120.89 133.96 109.42 138.53 100.80 C 139.79 109.58 136.14 120.18 142.81 127.39 L 143.15 127.80 C 144.72 135.13 149.08 141.24 153.21 147.30 C 152.63 147.37 151.48 147.49 150.90 147.55 C 154.12 151.66 158.62 154.34 162.84 157.26 C 164.32 158.11 163.37 159.99 163.49 161.31 C 160.07 159.91 156.30 159.07 153.44 156.60 C 151.47 154.98 149.45 153.43 147.38 151.95 C 144.24 162.37 134.09 167.73 126.16 174.09 C 121.53 179.21 114.60 181.74 110.82 187.71 C 116.22 185.23 121.00 181.60 126.55 179.44 C 135.87 175.79 143.32 168.88 151.75 163.71 C 153.98 161.92 155.33 164.85 156.65 166.23 C 159.50 167.18 162.20 168.52 164.88 169.87 C 166.25 169.96 167.66 169.35 169.00 169.89 C 177.02 173.32 183.19 179.63 189.57 185.38 C 194.96 190.73 198.26 197.74 200.97 204.73 C 196.03 203.76 190.80 207.92 190.90 213.00 C 190.66 217.17 193.35 221.31 197.30 222.68 C 200.08 223.75 203.05 222.89 205.87 222.51 C 206.33 225.51 208.86 227.45 209.94 230.11 C 209.32 233.04 208.56 235.96 208.79 238.99 C 209.22 243.40 206.54 247.14 205.42 251.22 C 204.84 252.58 205.60 253.81 206.83 254.42 C 198.60 256.90 190.01 258.25 181.42 258.55 C 185.20 255.88 189.77 254.82 193.81 252.68 C 197.64 250.89 197.75 246.01 200.39 243.10 C 198.22 240.63 195.45 238.76 192.24 237.96 C 186.39 236.39 181.02 233.29 174.99 232.38 C 169.00 231.40 163.07 229.95 156.98 229.65 C 142.00 229.19 127.02 229.41 112.03 229.57 C 99.15 230.68 86.19 230.82 73.39 232.82 C 63.94 233.22 54.61 235.35 45.88 238.94 C 44.63 232.90 45.17 226.79 46.16 220.77 C 44.54 218.14 42.54 215.72 41.25 212.88 C 38.30 217.64 35.99 222.74 33.57 227.77 C 33.10 226.38 32.65 224.98 32.22 223.57 C 33.21 218.14 35.34 212.95 38.26 208.29 C 45.64 197.50 56.71 190.11 65.12 180.24 C 66.51 178.69 67.99 177.21 69.49 175.76 C 70.63 178.22 71.46 181.51 74.39 182.36 C 78.31 183.40 82.94 182.78 85.93 179.87 C 87.51 178.27 87.44 175.87 87.56 173.80 C 95.30 187.02 104.43 199.34 113.23 211.86 C 116.19 215.11 117.90 219.47 121.59 222.01 C 121.60 219.92 121.37 217.82 120.61 215.85 C 116.27 202.75 110.88 189.93 103.70 178.11 C 100.31 172.27 96.71 166.55 93.30 160.72 C 95.40 159.78 97.43 158.65 98.99 156.92 C 107.44 148.33 116.85 140.35 122.87 129.74 C 125.16 130.64 127.51 130.05 129.01 128.05 Z" />
<path fill="#4b7cc8" opacity="1.00" d=" M 112.21 102.91 C 113.20 102.34 114.19 101.76 115.17 101.19 C 115.47 101.64 116.07 102.55 116.37 103.00 C 115.88 105.04 115.46 107.10 115.10 109.17 C 113.45 110.29 111.88 111.51 110.19 112.58 C 105.76 114.79 102.02 118.05 98.22 121.16 L 97.64 120.75 C 97.19 120.46 96.30 119.88 95.86 119.58 C 98.99 117.15 102.49 115.16 105.32 112.36 C 108.05 109.55 110.24 106.28 112.21 102.91 Z" />
<path fill="#945741" opacity="1.00" d=" M 52.93 103.94 C 53.71 103.98 55.29 104.08 56.07 104.13 C 59.95 109.34 62.74 115.29 66.31 120.72 C 68.35 124.26 70.97 127.43 72.98 130.99 C 73.96 133.53 73.48 136.38 73.68 139.05 C 76.70 141.59 79.51 144.43 81.39 147.93 C 81.14 149.40 80.89 150.87 80.64 152.34 C 78.17 148.65 75.85 144.85 72.89 141.52 C 72.79 142.18 72.59 143.49 72.49 144.14 C 72.13 143.34 71.62 142.56 71.63 141.65 C 71.77 137.82 69.27 134.67 67.23 131.66 C 66.53 131.69 65.14 131.76 64.44 131.80 L 63.59 131.85 C 64.41 131.25 65.81 131.04 65.98 129.85 C 66.36 124.68 61.67 121.64 58.60 118.27 C 55.43 114.14 53.37 109.14 52.93 103.94 Z" />
<path fill="#25288a" opacity="1.00" d=" M 115.10 109.17 C 116.42 108.67 117.77 108.24 119.12 107.81 C 119.13 108.36 119.16 109.45 119.18 110.00 C 118.69 112.99 118.19 116.64 115.39 118.41 C 111.45 121.03 107.01 122.83 102.57 124.42 C 104.76 120.21 109.26 117.43 110.19 112.58 C 111.88 111.51 113.45 110.29 115.10 109.17 Z" />
<path fill="#c4daf3" opacity="1.00" d=" M 177.11 112.18 C 182.18 117.32 188.50 121.61 191.99 128.05 C 193.85 132.73 195.14 137.68 194.50 142.80 L 194.46 142.63 C 194.45 138.98 193.52 135.49 191.36 132.50 C 189.40 129.09 186.92 126.02 184.48 122.95 C 182.92 120.96 181.17 119.13 179.32 117.41 C 178.56 115.67 177.90 113.90 177.11 112.18 Z" />
<path fill="#3349a2" opacity="1.00" d=" M 98.22 121.16 C 102.02 118.05 105.76 114.79 110.19 112.58 C 109.26 117.43 104.76 120.21 102.57 124.42 C 101.61 125.36 100.30 125.85 99.16 126.54 C 99.62 125.30 100.08 124.07 100.54 122.84 C 99.77 122.28 99.00 121.71 98.22 121.16 Z" />
<path fill="#3a57ad" opacity="1.00" d=" M 177.03 116.52 C 177.60 116.74 178.75 117.19 179.32 117.41 C 181.17 119.13 182.92 120.96 184.48 122.95 C 184.25 125.97 185.22 128.82 186.64 131.43 C 185.39 131.58 184.12 131.68 182.90 131.99 C 181.50 133.14 181.10 135.04 180.36 136.61 C 177.75 130.31 174.56 123.94 169.05 119.67 C 172.17 117.38 175.72 118.50 178.87 120.05 C 178.26 118.87 177.66 117.68 177.03 116.52 Z" />
<path fill="#a8cff4" opacity="1.00" d=" M 80.48 133.94 C 84.28 127.92 90.12 123.63 95.86 119.58 C 96.30 119.88 97.19 120.46 97.64 120.75 C 90.96 126.88 81.39 130.99 78.67 140.39 L 78.40 141.04 C 78.81 139.23 78.50 137.13 79.71 135.60 L 80.49 135.33 C 80.49 134.99 80.49 134.29 80.48 133.94 Z" />
<path fill="#3f64b6" opacity="1.00" d=" M 97.64 120.75 L 98.22 121.16 C 99.00 121.71 99.77 122.28 100.54 122.84 C 100.08 124.07 99.62 125.30 99.16 126.54 C 95.62 129.14 91.96 131.74 89.31 135.31 C 87.06 138.34 84.77 141.35 82.11 144.04 C 80.97 142.81 79.83 141.59 78.67 140.39 C 81.39 130.99 90.96 126.88 97.64 120.75 Z" />
<path fill="#814d49" opacity="1.00" d=" M 106.83 126.08 C 109.83 124.55 112.83 123.00 115.81 121.44 C 115.19 123.62 114.55 125.80 113.66 127.88 C 111.33 127.51 109.05 126.89 106.83 126.08 Z" />
<path fill="#446fbe" opacity="1.00" d=" M 184.48 122.95 C 186.92 126.02 189.40 129.09 191.36 132.50 C 191.50 137.25 192.18 142.46 189.14 146.53 C 184.12 145.99 182.54 140.63 180.21 136.97 L 180.36 136.61 C 181.10 135.04 181.50 133.14 182.90 131.99 C 184.12 131.68 185.39 131.58 186.64 131.43 C 185.22 128.82 184.25 125.97 184.48 122.95 Z" />
<path fill="#bb9260" opacity="1.00" d=" M 244.85 145.62 C 243.68 139.91 241.31 134.07 243.67 128.31 C 248.87 134.63 253.50 141.47 257.02 148.87 C 260.19 155.32 263.90 161.97 263.87 169.36 C 257.78 161.25 251.61 153.20 244.85 145.62 Z" />
<path fill="#c2a164" opacity="1.00" d=" M 64.44 131.80 C 65.14 131.76 66.53 131.69 67.23 131.66 C 69.27 134.67 71.77 137.82 71.63 141.65 C 68.43 139.01 65.89 135.70 64.44 131.80 Z" />
<path fill="#5a9cdf" opacity="1.00" d=" M 191.36 132.50 C 193.52 135.49 194.45 138.98 194.46 142.63 L 194.55 143.10 C 193.46 145.23 191.25 145.91 189.14 146.53 C 192.18 142.46 191.50 137.25 191.36 132.50 Z" />
<path fill="#d2b66d" opacity="1.00" d=" M 72.89 141.52 C 75.85 144.85 78.17 148.65 80.64 152.34 C 83.71 156.94 86.46 161.75 89.87 166.12 C 92.60 169.43 93.18 173.86 95.56 177.38 C 101.25 186.03 105.55 195.61 112.23 203.60 C 113.45 205.59 114.10 207.86 114.78 210.08 C 111.42 206.05 109.01 201.34 105.92 197.10 C 99.61 188.22 94.64 178.50 88.76 169.34 C 83.19 161.04 77.74 152.65 72.49 144.14 C 72.59 143.49 72.79 142.18 72.89 141.52 Z" />
<path fill="#5b9ee1" opacity="1.00" d=" M 150.90 147.55 C 151.48 147.49 152.63 147.37 153.21 147.30 C 155.91 149.40 158.30 151.99 161.50 153.35 C 168.35 156.42 175.20 159.54 181.53 163.60 L 181.59 163.93 C 181.67 164.34 181.82 165.14 181.90 165.54 C 186.58 169.36 190.19 174.26 194.58 178.40 C 197.01 180.68 199.11 183.28 200.90 186.10 C 200.42 184.16 199.97 182.22 199.55 180.27 C 203.88 184.30 206.08 189.93 209.12 194.89 C 215.89 205.86 219.63 218.38 222.18 230.93 C 222.42 237.60 223.30 244.52 221.34 251.01 C 221.24 250.60 221.04 249.77 220.93 249.35 C 216.67 251.13 212.30 252.63 207.91 254.07 C 212.94 248.70 215.46 241.35 214.62 234.01 C 215.19 223.22 211.88 212.66 206.70 203.31 C 203.66 196.72 200.57 190.05 195.71 184.57 C 192.22 179.36 187.36 175.29 182.11 171.95 C 176.11 168.07 170.01 164.26 163.49 161.31 C 163.37 159.99 164.32 158.11 162.84 157.26 C 158.62 154.34 154.12 151.66 150.90 147.55 Z" />
<path fill="#95464d" opacity="1.00" d=" M 81.39 147.93 C 85.54 153.26 88.96 159.09 92.23 164.99 C 99.66 177.42 107.86 189.68 112.23 203.60 C 105.55 195.61 101.25 186.03 95.56 177.38 C 93.18 173.86 92.60 169.43 89.87 166.12 C 86.46 161.75 83.71 156.94 80.64 152.34 C 80.89 150.87 81.14 149.40 81.39 147.93 Z" />
<path fill="#000000" opacity="0.54" d=" M 184.94 148.16 C 187.32 148.46 189.73 148.56 192.14 148.48 C 190.51 150.73 186.49 150.34 184.94 148.16 Z" />
<path fill="#2d3897" opacity="1.00" d=" M 147.38 151.95 C 149.45 153.43 151.47 154.98 153.44 156.60 C 156.30 159.07 160.07 159.91 163.49 161.31 C 170.01 164.26 176.11 168.07 182.11 171.95 C 187.36 175.29 192.22 179.36 195.71 184.57 C 191.85 183.38 189.89 179.44 186.67 177.27 C 180.01 172.33 172.96 167.73 165.24 164.66 C 165.13 166.39 165.01 168.13 164.88 169.87 C 162.20 168.52 159.50 167.18 156.65 166.23 C 155.33 164.85 153.98 161.92 151.75 163.71 C 143.32 168.88 135.87 175.79 126.55 179.44 C 121.00 181.60 116.22 185.23 110.82 187.71 C 114.60 181.74 121.53 179.21 126.16 174.09 C 134.09 167.73 144.24 162.37 147.38 151.95 Z" />
<path fill="#e5efff" opacity="1.00" d=" M 76.06 166.09 C 77.92 164.90 79.66 163.22 82.01 163.15 L 81.57 163.96 C 80.93 164.99 80.21 165.96 79.49 166.95 C 80.91 168.12 82.71 169.07 83.40 170.90 C 83.51 174.81 79.54 177.41 75.99 177.62 C 73.68 177.99 71.91 176.25 70.02 175.26 C 69.89 175.38 69.62 175.63 69.49 175.76 C 67.99 177.21 66.51 178.69 65.12 180.24 C 64.26 179.07 63.39 177.90 62.53 176.73 C 63.04 175.81 63.56 174.89 64.11 173.99 C 67.94 171.14 72.14 168.82 76.06 166.09 Z" />
<path fill="#4fb0ec" opacity="1.00" d=" M 79.49 166.95 C 80.21 165.96 80.93 164.99 81.57 163.96 C 83.75 167.13 85.59 170.51 87.56 173.80 C 87.44 175.87 87.51 178.27 85.93 179.87 C 82.94 182.78 78.31 183.40 74.39 182.36 C 71.46 181.51 70.63 178.22 69.49 175.76 C 69.62 175.63 69.89 175.38 70.02 175.26 C 71.91 176.25 73.68 177.99 75.99 177.62 C 79.54 177.41 83.51 174.81 83.40 170.90 C 82.71 169.07 80.91 168.12 79.49 166.95 Z" />
<path fill="#c4daf3" opacity="1.00" d=" M 181.59 163.93 C 188.31 168.25 194.02 173.91 199.43 179.74 C 199.46 179.87 199.52 180.14 199.55 180.27 C 199.97 182.22 200.42 184.16 200.90 186.10 C 199.11 183.28 197.01 180.68 194.58 178.40 C 190.19 174.26 186.58 169.36 181.90 165.54 C 181.82 165.14 181.67 164.34 181.59 163.93 Z" />
<path fill="#3753a9" opacity="1.00" d=" M 165.24 164.66 C 172.96 167.73 180.01 172.33 186.67 177.27 C 189.89 179.44 191.85 183.38 195.71 184.57 C 200.57 190.05 203.66 196.72 206.70 203.31 C 211.88 212.66 215.19 223.22 214.62 234.01 C 215.46 241.35 212.94 248.70 207.91 254.07 L 206.83 254.42 C 205.60 253.81 204.84 252.58 205.42 251.22 C 206.54 247.14 209.22 243.40 208.79 238.99 C 208.56 235.96 209.32 233.04 209.94 230.11 C 208.86 227.45 206.33 225.51 205.87 222.51 C 207.36 219.89 209.34 216.97 208.37 213.82 C 207.66 209.68 204.26 206.92 200.97 204.73 C 198.26 197.74 194.96 190.73 189.57 185.38 C 183.19 179.63 177.02 173.32 169.00 169.89 C 167.66 169.35 166.25 169.96 164.88 169.87 C 165.01 168.13 165.13 166.39 165.24 164.66 Z" />
<path fill="#a8cff4" opacity="1.00" d=" M 51.87 183.90 C 55.98 180.63 59.68 176.84 64.11 173.99 C 63.56 174.89 63.04 175.81 62.53 176.73 C 63.39 177.90 64.26 179.07 65.12 180.24 C 56.71 190.11 45.64 197.50 38.26 208.29 C 35.34 212.95 33.21 218.14 32.22 223.57 C 31.99 224.72 31.77 225.86 31.58 227.02 C 30.89 227.40 30.21 227.78 29.52 228.17 C 28.60 227.87 27.67 227.57 26.75 227.27 C 26.25 228.15 25.75 229.02 25.24 229.90 C 25.25 228.36 25.25 226.82 25.29 225.29 C 25.22 223.84 25.69 222.47 26.16 221.14 C 26.87 219.48 27.53 217.80 28.13 216.11 C 28.81 214.45 29.49 212.79 30.18 211.14 C 35.63 200.84 42.63 191.12 51.87 183.90 Z" />
<path fill="#416fbf" opacity="1.00" d=" M 190.90 213.00 C 190.80 207.92 196.03 203.76 200.97 204.73 C 204.26 206.92 207.66 209.68 208.37 213.82 C 209.34 216.97 207.36 219.89 205.87 222.51 C 203.05 222.89 200.08 223.75 197.30 222.68 C 193.35 221.31 190.66 217.17 190.90 213.00 Z" />
<path fill="#4570bf" opacity="1.00" d=" M 41.25 212.88 C 42.54 215.72 44.54 218.14 46.16 220.77 C 45.17 226.79 44.63 232.90 45.88 238.94 C 42.42 240.40 38.59 242.04 36.67 245.46 C 36.16 247.29 36.21 249.21 36.20 251.09 C 34.80 247.27 33.94 243.22 31.73 239.73 C 30.58 235.58 30.97 231.22 31.58 227.02 C 31.77 225.86 31.99 224.72 32.22 223.57 C 32.65 224.98 33.10 226.38 33.57 227.77 C 35.99 222.74 38.30 217.64 41.25 212.88 Z" />
<path fill="#000000" opacity="0.49" d=" M 222.00 216.73 C 225.48 226.28 228.15 237.06 225.44 247.18 C 226.20 236.88 224.28 226.72 222.00 216.73 Z" />
<path fill="#000000" opacity="0.48" d=" M 19.34 232.07 C 20.18 228.91 20.14 225.29 22.33 222.68 C 21.33 227.44 20.24 232.19 19.71 237.03 C 19.06 242.15 20.13 247.27 20.87 252.32 C 17.51 246.15 18.17 238.74 19.34 232.07 Z" />
<path fill="#86b8eb" opacity="1.00" d=" M 24.59 225.24 L 25.29 225.29 C 25.25 226.82 25.25 228.36 25.24 229.90 C 25.75 229.02 26.25 228.15 26.75 227.27 C 27.67 227.57 28.60 227.87 29.52 228.17 C 30.21 227.78 30.89 227.40 31.58 227.02 C 30.97 231.22 30.58 235.58 31.73 239.73 C 30.88 243.52 29.94 247.36 30.55 251.28 C 30.66 253.58 29.60 255.64 28.44 257.55 C 24.86 255.32 24.20 250.84 23.28 247.07 C 21.58 239.82 23.01 232.37 24.59 225.24 Z" />
<path fill="#2a3191" opacity="1.00" d=" M 112.03 229.57 C 127.02 229.41 142.00 229.19 156.98 229.65 C 163.07 229.95 169.00 231.40 174.99 232.38 C 181.02 233.29 186.39 236.39 192.24 237.96 C 195.45 238.76 198.22 240.63 200.39 243.10 C 197.75 246.01 197.64 250.89 193.81 252.68 C 189.77 254.82 185.20 255.88 181.42 258.55 C 175.44 259.21 169.50 260.17 163.49 260.54 C 148.99 260.19 134.44 260.91 119.98 259.58 C 112.00 259.44 104.02 259.65 96.04 259.51 C 88.87 259.51 81.69 258.99 74.54 259.66 C 69.48 259.52 64.44 258.99 59.44 258.22 C 62.49 257.10 65.73 256.80 68.95 256.74 C 67.95 252.29 62.31 252.40 60.17 248.76 C 57.92 246.81 59.82 244.12 60.63 241.95 C 59.79 241.21 58.94 240.48 58.10 239.75 C 58.14 239.20 58.21 238.12 58.24 237.57 C 63.41 236.39 68.34 234.41 73.39 232.82 C 86.19 230.82 99.15 230.68 112.03 229.57 Z" />
<path fill="#2f3e9b" opacity="1.00" d=" M 45.88 238.94 C 54.61 235.35 63.94 233.22 73.39 232.82 C 68.34 234.41 63.41 236.39 58.24 237.57 C 58.21 238.12 58.14 239.20 58.10 239.75 C 58.94 240.48 59.79 241.21 60.63 241.95 C 59.82 244.12 57.92 246.81 60.17 248.76 C 62.31 252.40 67.95 252.29 68.95 256.74 C 65.73 256.80 62.49 257.10 59.44 258.22 C 51.69 257.74 44.13 255.74 36.92 252.90 C 36.74 252.45 36.38 251.55 36.20 251.09 C 36.21 249.21 36.16 247.29 36.67 245.46 C 38.59 242.04 42.42 240.40 45.88 238.94 Z" />
<path fill="#6494d5" opacity="1.00" d=" M 31.73 239.73 C 33.94 243.22 34.80 247.27 36.20 251.09 C 36.38 251.55 36.74 252.45 36.92 252.90 C 34.83 252.23 32.70 251.73 30.55 251.28 C 29.94 247.36 30.88 243.52 31.73 239.73 Z" />
<path fill="#7ca4e6" opacity="1.00" d=" M 207.91 254.07 C 212.30 252.63 216.67 251.13 220.93 249.35 C 221.04 249.77 221.24 250.60 221.34 251.01 C 221.24 252.58 220.60 254.04 220.13 255.52 L 219.47 255.70 C 214.09 257.27 208.61 258.79 203.74 261.65 C 196.88 263.20 189.77 264.25 182.74 264.66 C 179.78 264.16 176.81 263.55 173.80 263.48 C 175.42 262.96 176.98 262.25 178.51 261.50 C 174.06 261.11 169.57 261.55 165.21 262.47 C 164.63 262.06 163.46 261.24 162.87 260.83 L 163.49 260.54 C 169.50 260.17 175.44 259.21 181.42 258.55 C 190.01 258.25 198.60 256.90 206.83 254.42 L 207.91 254.07 Z" />
<path fill="#7e9cdf" opacity="1.00" d=" M 30.55 251.28 C 32.70 251.73 34.83 252.23 36.92 252.90 C 44.13 255.74 51.69 257.74 59.44 258.22 C 64.44 258.99 69.48 259.52 74.54 259.66 C 95.00 262.12 115.72 261.16 136.24 262.95 C 136.95 264.04 137.65 265.14 138.28 266.29 L 137.67 266.44 C 133.25 264.92 128.53 265.21 123.94 264.92 C 114.62 264.45 105.28 264.56 95.99 263.66 C 91.20 263.51 86.33 262.57 81.61 263.80 C 83.90 265.44 86.65 266.12 89.40 266.46 C 81.64 267.58 73.86 265.41 66.10 266.57 C 53.20 265.55 40.60 261.90 28.44 257.55 C 29.60 255.64 30.66 253.58 30.55 251.28 Z" />
<path fill="#5998d9" opacity="1.00" d=" M 203.74 261.65 C 208.61 258.79 214.09 257.27 219.47 255.70 C 219.96 257.36 218.56 258.86 217.00 259.08 C 212.66 260.28 208.25 261.45 203.74 261.65 Z" />
<path fill="#3d5fb2" opacity="1.00" d=" M 74.54 259.66 C 81.69 258.99 88.87 259.51 96.04 259.51 C 104.02 259.65 112.00 259.44 119.98 259.58 C 134.44 260.91 148.99 260.19 163.49 260.54 L 162.87 260.83 C 157.77 263.84 151.70 263.93 146.02 264.96 C 142.58 265.79 139.40 263.99 136.24 262.95 C 115.72 261.16 95.00 262.12 74.54 259.66 Z" />
<path fill="#5898dd" opacity="1.00" d=" M 146.02 264.96 C 151.70 263.93 157.77 263.84 162.87 260.83 C 163.46 261.24 164.63 262.06 165.21 262.47 C 164.28 262.87 163.36 263.30 162.46 263.75 C 166.24 263.95 170.02 263.76 173.80 263.48 C 176.81 263.55 179.78 264.16 182.74 264.66 C 176.27 266.30 169.52 266.52 162.94 267.54 C 142.11 270.31 121.02 271.51 100.04 269.93 C 88.73 269.00 77.25 268.66 66.10 266.57 C 73.86 265.41 81.64 267.58 89.40 266.46 C 102.94 267.50 116.53 268.02 130.11 267.76 C 132.69 267.75 135.20 267.11 137.67 266.44 L 138.28 266.29 C 137.65 265.14 136.95 264.04 136.24 262.95 C 139.40 263.99 142.58 265.79 146.02 264.96 Z" />
<path fill="#e2eefd" opacity="1.00" d=" M 165.21 262.47 C 169.57 261.55 174.06 261.11 178.51 261.50 C 176.98 262.25 175.42 262.96 173.80 263.48 C 170.02 263.76 166.24 263.95 162.46 263.75 C 163.36 263.30 164.28 262.87 165.21 262.47 Z" />
<path fill="#eaf3ff" opacity="1.00" d=" M 81.61 263.80 C 86.33 262.57 91.20 263.51 95.99 263.66 C 105.28 264.56 114.62 264.45 123.94 264.92 C 128.53 265.21 133.25 264.92 137.67 266.44 C 135.20 267.11 132.69 267.75 130.11 267.76 C 116.53 268.02 102.94 267.50 89.40 266.46 C 86.65 266.12 83.90 265.44 81.61 263.80 Z" />
</svg>
