<?xml version="1.0" encoding="UTF-8" ?>
<!DOCTYPE svg PUBLIC "-//W3C//DTD SVG 1.1//EN" "http://www.w3.org/Graphics/SVG/1.1/DTD/svg11.dtd">
<svg width="299pt" height="237pt" viewBox="0 0 299 237" version="1.1" xmlns="http://www.w3.org/2000/svg">
<path fill="#040405" opacity="1.00" d=" M 131.10 16.19 C 136.69 10.71 141.61 4.22 148.78 0.68 C 147.60 6.32 145.56 11.72 143.25 16.97 C 145.21 15.44 147.18 13.93 149.31 12.64 C 149.17 17.86 148.10 23.03 146.39 27.96 C 148.59 26.06 150.85 24.19 153.51 22.96 C 153.80 28.25 151.59 33.15 148.88 37.54 C 149.88 37.66 151.88 37.91 152.88 38.04 C 149.58 42.30 145.32 45.83 143.00 50.79 C 146.32 49.31 149.46 47.47 152.52 45.52 C 156.05 44.03 159.68 48.09 163.19 46.18 C 173.10 41.78 182.88 37.07 192.94 33.01 C 185.90 41.32 178.10 49.04 169.09 55.20 C 171.56 57.06 174.22 58.66 177.03 59.96 C 189.08 65.57 201.29 70.86 213.85 75.23 C 229.60 80.68 245.55 85.88 260.31 93.72 C 271.16 99.60 281.60 107.23 287.98 118.03 C 296.89 133.63 298.56 153.04 292.96 170.07 C 291.94 169.65 290.93 169.24 289.92 168.83 C 296.25 148.90 292.76 124.62 277.36 109.64 C 266.26 99.03 251.99 92.64 237.85 87.16 C 226.60 82.90 215.19 79.07 203.85 75.06 C 203.91 79.20 202.80 83.65 204.25 87.59 C 208.19 92.04 213.39 95.69 219.01 97.61 C 223.91 96.43 228.29 93.63 233.31 92.81 C 230.76 95.93 227.65 98.52 224.55 101.07 C 236.58 108.80 247.99 117.84 256.70 129.28 C 261.64 135.77 264.70 143.78 264.56 151.99 C 264.78 170.31 257.46 187.65 248.39 203.20 C 248.05 202.72 247.36 201.76 247.02 201.28 C 251.20 192.50 255.99 183.91 258.60 174.47 C 261.30 164.70 263.37 154.26 260.97 144.20 C 259.67 138.30 256.53 132.97 252.63 128.41 C 243.98 118.27 233.43 109.87 221.98 103.10 C 217.38 106.15 212.69 109.07 208.00 111.99 C 202.49 115.36 198.45 120.57 194.66 125.69 C 191.96 128.84 193.59 133.08 194.27 136.65 C 195.82 142.73 196.80 148.97 196.83 155.26 C 191.58 147.27 188.75 138.07 184.55 129.55 C 182.95 133.36 182.57 138.38 178.47 140.47 C 171.83 144.32 164.77 147.40 158.12 151.21 C 158.05 155.37 158.05 159.52 158.16 163.67 C 161.79 165.52 166.03 166.90 168.54 170.32 C 168.22 174.28 166.40 177.92 165.06 181.61 C 160.46 181.51 160.99 187.05 160.54 190.26 C 160.21 187.06 159.44 183.71 160.62 180.60 C 161.78 177.32 163.64 174.36 165.35 171.35 C 159.61 168.04 153.12 165.40 146.41 165.40 C 142.15 170.67 138.37 176.33 135.07 182.24 C 136.09 182.99 137.12 183.75 138.13 184.52 C 136.95 185.34 135.77 186.16 134.59 186.99 C 133.32 186.10 132.02 185.27 130.73 184.43 C 131.76 179.77 134.19 175.65 136.58 171.58 C 138.64 168.66 136.05 165.49 135.05 162.69 C 131.55 164.22 127.87 165.64 125.02 168.27 C 126.36 171.73 128.96 174.55 130.20 178.06 C 129.95 180.49 127.97 182.30 126.61 184.22 C 125.72 183.35 124.83 182.48 123.95 181.61 C 121.08 178.93 118.78 175.72 116.99 172.24 C 115.00 172.88 113.02 173.55 111.05 174.22 C 114.72 180.34 115.53 187.41 115.59 194.40 C 114.60 196.24 113.56 198.06 112.61 199.92 C 112.50 193.52 115.07 186.38 111.18 180.64 L 110.82 179.89 C 107.49 183.27 104.84 187.31 102.93 191.64 C 101.91 195.41 101.69 199.34 100.98 203.18 C 100.69 202.85 100.10 202.19 99.81 201.86 C 99.37 201.94 98.50 202.09 98.07 202.17 C 98.58 195.72 101.12 188.84 98.21 182.61 L 97.82 181.83 C 88.48 184.80 80.23 190.32 71.61 194.87 C 72.51 195.82 73.40 196.78 74.34 197.70 C 73.67 198.14 72.32 199.02 71.65 199.46 C 70.39 198.42 69.17 197.33 67.95 196.26 C 66.48 196.85 65.02 197.44 63.55 198.02 C 63.04 197.73 62.01 197.14 61.50 196.85 C 70.09 191.78 79.18 187.67 88.03 183.08 C 96.00 178.59 103.94 174.02 112.32 170.33 C 124.98 165.01 137.10 158.54 149.33 152.32 C 156.86 148.18 164.96 145.10 172.12 140.28 L 171.22 140.10 C 165.36 139.29 162.83 133.57 159.41 129.54 C 155.83 131.52 152.34 133.72 149.42 136.61 C 139.88 142.97 130.05 148.88 120.59 155.37 C 117.52 156.97 114.57 158.78 111.67 160.67 C 99.66 168.82 86.18 174.66 74.77 183.74 C 58.47 192.75 43.19 203.45 27.57 213.55 C 24.55 215.40 21.92 217.78 19.44 220.29 C 17.33 221.79 15.16 223.18 12.96 224.54 C 12.56 223.56 12.16 222.58 11.75 221.60 C 14.50 219.76 17.20 217.87 19.91 215.98 C 13.05 203.80 11.80 188.88 15.34 175.46 C 20.20 156.05 32.80 139.66 46.99 126.00 C 59.63 114.00 73.94 103.89 88.74 94.74 C 93.71 92.28 93.60 86.02 94.73 81.33 C 95.15 81.30 95.99 81.25 96.41 81.23 C 96.52 83.98 96.65 86.73 96.82 89.49 C 100.75 87.20 104.72 84.97 108.52 82.47 C 108.47 78.03 106.29 74.19 103.46 70.91 C 104.93 67.86 107.63 65.70 109.99 63.37 C 106.07 59.18 101.83 55.09 99.36 49.82 C 104.23 51.22 108.64 53.81 113.45 55.37 C 113.25 54.11 113.05 52.86 112.83 51.60 C 111.11 51.33 109.41 51.02 107.71 50.69 C 106.29 42.38 103.09 34.58 100.12 26.75 C 103.10 28.73 105.71 31.19 108.41 33.52 C 108.57 28.00 107.79 22.21 110.01 16.97 C 110.60 15.89 110.79 13.93 112.46 14.27 C 113.32 16.40 113.94 18.61 114.70 20.78 C 119.44 13.37 124.75 5.71 132.76 1.53 C 132.69 6.47 131.53 11.29 131.10 16.19 M 113.91 27.95 C 112.96 26.57 112.02 25.19 111.06 23.82 C 110.51 28.25 110.37 32.77 111.42 37.13 C 111.20 38.76 111.11 40.40 110.99 42.04 C 109.75 39.41 108.21 36.92 106.26 34.76 C 107.19 39.21 108.10 43.78 110.21 47.85 C 111.50 48.59 113.05 48.63 114.48 48.94 C 114.58 46.91 114.79 44.88 114.65 42.85 C 116.00 45.49 117.76 47.90 119.55 50.26 C 120.21 51.98 121.11 53.59 121.96 55.22 C 122.63 54.31 123.29 53.39 123.95 52.47 C 125.43 55.55 129.07 55.53 132.01 55.60 C 134.61 54.02 137.28 52.53 140.27 51.83 C 139.20 51.76 138.12 51.71 137.05 51.67 C 136.57 50.87 136.06 50.10 135.52 49.35 C 136.35 48.18 137.18 47.00 138.01 45.83 C 138.81 47.08 139.60 48.33 140.41 49.59 C 143.00 46.54 145.46 43.37 147.87 40.17 C 147.33 39.42 146.78 38.67 146.24 37.91 C 147.58 34.99 148.88 32.04 150.12 29.07 C 147.72 30.02 145.33 30.98 142.92 31.89 C 144.52 26.82 146.99 21.97 147.38 16.58 C 144.80 18.18 142.17 19.90 140.44 22.47 C 138.79 18.28 141.62 14.08 142.16 9.93 C 136.21 15.08 132.37 22.20 126.29 27.20 C 126.40 20.63 128.10 14.24 128.63 7.71 C 121.96 12.99 117.89 20.61 113.91 27.95 M 168.80 45.91 C 166.13 46.46 163.77 47.87 161.72 49.63 C 159.30 50.80 159.05 53.99 157.97 56.18 C 161.24 55.81 164.74 55.50 167.45 53.42 C 172.77 49.56 177.58 45.04 182.08 40.26 C 177.47 41.64 172.67 42.90 168.80 45.91 M 152.82 48.76 C 150.34 53.67 150.28 59.23 150.61 64.59 C 153.64 64.86 156.70 65.04 159.75 64.77 C 162.80 65.08 165.94 64.87 168.82 63.75 C 168.41 61.43 167.55 59.24 166.79 57.03 C 164.39 57.70 162.01 58.44 159.66 59.26 C 158.21 58.88 156.73 58.62 155.27 58.29 C 155.75 55.03 156.82 51.91 157.75 48.76 C 156.14 48.75 154.32 47.93 152.82 48.76 M 117.01 57.69 C 119.85 57.69 122.70 57.70 125.50 58.26 C 127.04 58.82 128.24 57.52 129.46 56.83 C 127.15 57.06 124.80 57.55 122.48 57.18 C 121.01 56.29 120.02 54.82 118.84 53.60 C 118.23 54.96 117.62 56.32 117.01 57.69 M 144.52 65.09 C 145.53 65.12 147.55 65.18 148.57 65.21 C 148.42 61.94 148.32 58.67 148.08 55.40 C 145.77 58.14 144.99 61.64 144.52 65.09 M 108.86 56.33 C 109.77 58.04 110.77 59.70 111.72 61.39 C 112.72 61.10 113.72 60.82 114.73 60.55 C 112.82 59.08 110.90 57.61 108.86 56.33 M 135.24 58.92 C 133.59 59.36 134.44 62.01 136.04 61.29 C 137.70 60.87 136.84 58.20 135.24 58.92 M 114.56 67.27 C 112.50 68.63 111.45 70.96 110.28 73.04 C 112.95 72.55 115.59 71.94 118.22 71.26 C 117.90 70.77 117.27 69.78 116.96 69.29 C 119.48 66.01 122.75 63.39 125.21 60.06 C 120.62 60.35 118.05 64.83 114.56 67.27 M 126.43 61.85 C 126.53 64.16 126.72 66.47 126.56 68.79 C 127.81 69.13 129.05 69.48 130.29 69.85 C 129.99 70.18 129.37 70.82 129.06 71.15 C 127.93 70.59 126.82 70.03 125.70 69.46 C 124.59 71.07 123.47 72.67 122.45 74.34 C 121.75 74.27 120.36 74.14 119.67 74.07 C 120.35 76.81 121.06 79.55 121.85 82.27 C 124.98 79.94 127.82 77.21 129.97 73.94 C 132.27 72.45 132.76 69.65 132.98 67.13 L 132.43 67.68 C 131.02 65.52 129.74 63.27 128.10 61.27 C 127.68 61.41 126.85 61.70 126.43 61.85 M 132.86 64.75 C 133.66 65.93 134.47 67.12 135.28 68.29 C 136.37 66.52 137.34 64.67 138.15 62.75 C 136.37 63.36 134.60 64.03 132.86 64.75 M 107.00 72.34 C 110.18 70.47 112.45 67.44 114.49 64.44 C 111.27 66.11 107.29 68.27 107.00 72.34 M 122.31 65.30 L 123.01 65.75 C 122.74 66.07 122.21 66.71 121.95 67.03 L 121.44 66.45 C 121.29 67.46 120.97 69.48 120.82 70.49 C 119.40 72.15 123.13 73.41 123.20 71.31 C 124.09 69.19 124.89 67.04 125.64 64.87 C 124.81 64.97 123.14 65.19 122.31 65.30 M 138.40 65.97 C 138.62 67.52 138.86 69.06 139.13 70.61 C 141.30 69.47 141.26 66.93 141.63 64.84 C 140.82 65.12 139.21 65.69 138.40 65.97 M 174.77 65.09 C 175.57 67.30 176.32 69.54 177.33 71.67 C 179.98 70.97 178.58 66.78 179.40 64.66 C 177.85 64.80 176.31 64.94 174.77 65.09 M 180.97 71.75 C 181.76 71.77 183.32 71.81 184.11 71.83 C 184.10 69.70 184.08 67.56 183.98 65.42 C 181.53 66.60 181.51 69.46 180.97 71.75 M 147.90 67.29 C 148.04 68.53 148.18 69.78 148.32 71.03 C 150.28 69.84 152.24 68.65 154.17 67.42 C 152.08 67.37 149.99 67.33 147.90 67.29 M 165.71 70.11 C 164.57 71.47 163.38 72.78 162.21 74.11 C 163.95 77.11 167.21 78.36 170.21 79.70 C 171.72 78.12 173.17 76.49 174.70 74.93 L 175.25 75.55 C 175.67 72.52 174.93 69.37 172.75 67.13 C 170.06 67.01 167.75 68.56 165.71 70.11 M 137.14 68.36 C 135.21 67.89 134.82 71.01 136.54 71.49 C 138.45 72.06 138.87 68.78 137.14 68.36 M 143.14 67.45 C 143.59 69.74 144.62 71.86 146.21 73.58 C 145.93 71.22 145.51 68.61 143.14 67.45 M 158.15 71.02 C 160.49 71.58 161.77 69.14 163.30 67.85 C 161.48 68.66 156.72 67.88 158.15 71.02 M 185.89 68.01 C 187.43 71.08 189.99 73.37 192.94 75.08 C 196.22 76.79 196.66 80.74 197.97 83.81 C 199.30 80.59 200.50 77.32 201.74 74.07 C 196.52 71.90 191.36 69.49 185.89 68.01 M 140.07 71.47 C 140.22 73.98 140.38 76.49 140.51 79.00 C 142.35 78.77 144.19 78.52 146.02 78.24 C 144.41 75.83 143.85 71.01 140.07 71.47 M 155.80 72.40 C 156.48 73.69 157.18 74.98 157.89 76.26 C 158.30 74.93 158.70 73.61 159.09 72.28 C 158.27 72.31 156.62 72.37 155.80 72.40 M 131.64 79.96 C 133.51 79.93 135.52 80.24 137.24 79.29 C 139.15 77.97 138.16 75.47 138.35 73.55 C 135.65 75.16 133.46 77.42 131.64 79.96 M 146.38 73.56 C 146.96 74.67 147.62 75.74 148.35 76.77 C 149.58 76.76 150.79 76.59 151.99 76.28 C 150.17 75.27 148.29 74.37 146.38 73.56 M 180.45 74.96 C 182.10 80.34 183.47 85.84 183.61 91.50 C 184.64 92.58 186.16 92.99 187.44 93.71 C 187.71 86.80 185.16 80.23 184.30 73.44 C 183.02 73.95 181.74 74.46 180.45 74.96 M 160.66 75.73 C 160.61 77.20 160.57 78.68 160.53 80.15 C 163.51 80.64 166.45 81.40 169.47 81.55 C 166.55 79.59 163.26 78.16 160.66 75.73 M 168.62 87.99 C 168.89 88.50 169.44 89.51 169.72 90.02 C 171.45 88.08 173.14 86.05 175.40 84.68 C 175.40 86.52 175.36 88.36 175.28 90.20 C 177.33 90.25 179.72 91.48 181.56 90.18 C 181.60 85.16 179.62 80.42 178.31 75.64 C 173.59 78.22 170.53 83.12 168.62 87.99 M 145.43 87.42 C 143.57 89.01 140.22 89.98 140.13 92.81 C 142.47 94.75 145.63 95.01 148.46 95.76 C 149.09 99.06 149.42 102.43 150.50 105.62 C 151.65 108.68 155.31 110.88 154.52 114.51 C 153.91 119.37 153.03 124.21 153.10 129.14 C 155.59 127.89 158.03 126.53 160.45 125.15 C 161.40 126.97 162.10 129.00 163.56 130.50 C 166.65 132.52 171.60 131.81 173.41 128.39 C 174.85 125.50 174.82 122.17 175.24 119.03 C 176.40 119.27 177.57 119.52 178.74 119.77 C 177.94 116.48 177.58 112.99 175.98 109.97 C 173.59 107.25 170.42 105.03 166.94 104.00 C 164.17 104.49 161.65 105.84 158.96 106.61 C 157.78 104.54 159.67 102.28 160.40 100.36 C 163.39 95.15 165.49 89.50 166.88 83.67 C 164.08 83.05 161.29 82.41 158.50 81.76 C 158.05 80.12 157.59 78.49 157.13 76.85 C 152.36 79.39 150.18 84.84 145.43 87.42 M 190.17 76.86 C 191.00 79.46 192.14 81.97 193.60 84.28 C 193.54 82.69 193.56 81.08 193.32 79.50 C 192.65 78.26 191.22 77.71 190.17 76.86 M 110.75 80.70 C 113.99 83.07 117.55 84.92 121.07 86.83 C 120.00 83.93 119.27 80.85 117.62 78.20 C 114.93 77.37 112.63 78.94 110.75 80.70 M 141.70 86.91 C 144.92 85.74 147.85 83.77 149.41 80.62 C 145.89 81.34 143.17 83.67 141.70 86.91 M 199.72 88.18 C 197.08 93.18 199.99 98.65 203.19 102.57 C 203.96 100.79 205.43 98.85 204.00 97.00 C 201.87 93.22 201.55 88.88 201.32 84.64 C 201.50 83.31 201.58 81.97 201.55 80.63 C 200.38 82.97 199.53 85.52 199.72 88.18 M 129.88 82.58 C 126.67 84.40 123.07 86.89 122.65 90.90 C 123.23 94.04 124.17 97.22 126.03 99.87 C 126.83 96.76 125.42 92.63 128.47 90.49 C 131.85 87.88 135.19 85.23 138.40 82.42 C 135.56 82.45 132.69 82.02 129.88 82.58 M 189.33 88.51 C 191.06 94.16 192.64 99.86 193.95 105.63 C 192.42 106.59 190.90 107.54 189.38 108.50 C 190.85 111.06 192.75 113.35 195.01 115.27 C 196.20 112.41 198.08 109.48 197.44 106.25 C 196.05 97.52 194.15 88.32 188.67 81.17 C 188.39 83.63 188.54 86.14 189.33 88.51 M 107.77 89.47 C 108.36 91.27 109.04 93.04 109.83 94.76 C 111.69 92.02 113.57 89.29 115.91 86.94 C 114.91 86.42 113.91 85.90 112.91 85.37 C 111.20 86.75 109.50 88.12 107.77 89.47 M 129.86 95.44 C 133.71 93.24 136.61 89.78 139.22 86.26 C 135.79 88.94 131.16 90.90 129.86 95.44 M 111.92 96.37 C 115.28 94.47 117.67 91.30 119.18 87.79 C 115.48 89.30 113.01 92.62 111.92 96.37 M 102.43 90.65 C 97.30 97.94 93.69 106.31 91.68 114.98 C 90.69 117.69 92.79 119.78 94.49 121.56 C 97.49 115.30 100.86 109.14 105.83 104.22 C 108.57 103.45 110.63 101.48 112.31 99.28 C 110.95 98.16 109.60 97.04 108.26 95.92 C 107.96 95.77 107.36 95.49 107.06 95.34 C 105.96 92.96 104.77 90.63 103.47 88.36 C 103.09 89.11 102.74 89.87 102.43 90.65 M 135.99 93.90 C 132.91 95.64 129.36 98.14 130.47 102.19 C 131.39 103.42 132.31 104.67 133.21 105.93 C 135.64 104.26 138.07 102.60 140.52 100.95 C 139.60 97.88 138.62 94.83 137.52 91.82 C 137.00 92.50 136.48 93.20 135.99 93.90 M 119.36 93.54 C 115.86 98.74 112.51 104.06 109.45 109.54 C 107.97 112.75 108.98 116.20 109.82 119.44 C 114.28 114.99 118.33 110.14 121.99 105.02 C 123.30 103.42 122.65 101.26 122.67 99.38 C 121.89 97.32 121.31 95.19 120.53 93.14 C 120.24 93.24 119.65 93.44 119.36 93.54 M 171.19 93.53 C 170.70 94.18 169.71 95.49 169.22 96.15 C 170.66 96.30 172.16 96.62 173.59 96.18 C 175.86 96.84 178.14 97.46 180.44 98.03 C 179.92 96.39 179.84 94.50 178.74 93.11 C 176.22 92.78 173.68 93.18 171.19 93.53 M 182.03 92.77 C 183.20 97.51 183.04 103.56 187.75 106.41 C 188.19 103.12 188.75 99.65 187.55 96.45 C 186.17 94.68 183.88 93.94 182.03 92.77 M 207.50 95.11 C 208.79 100.35 205.11 104.41 202.10 108.17 C 207.05 105.91 211.69 103.05 216.07 99.82 C 213.24 98.19 210.36 96.66 207.50 95.11 M 141.70 97.23 C 143.01 99.82 144.77 102.12 146.88 104.10 C 146.76 101.92 146.60 99.74 146.44 97.57 C 144.86 97.45 143.28 97.33 141.70 97.23 M 75.82 106.68 C 69.42 110.89 63.26 115.44 57.43 120.41 C 41.46 133.80 26.99 150.11 20.12 170.11 C 15.11 184.32 15.05 200.86 22.40 214.27 C 22.91 200.70 25.29 187.12 30.59 174.57 C 40.94 149.61 58.52 128.42 77.96 109.98 C 82.17 106.11 86.86 102.66 90.28 98.01 C 85.07 100.19 80.37 103.37 75.82 106.68 M 123.55 109.79 C 121.09 111.71 119.69 114.61 118.06 117.19 C 122.73 114.70 127.24 111.82 130.98 108.03 C 130.64 106.63 130.28 105.24 129.97 103.84 C 126.10 102.39 124.83 107.22 123.55 109.79 M 74.60 117.61 C 61.14 130.66 48.77 145.16 40.00 161.82 C 44.92 161.00 50.64 159.62 54.92 163.06 C 61.81 168.37 63.34 177.49 66.12 185.21 C 70.40 182.63 75.51 180.88 78.76 176.94 C 84.22 174.58 89.38 171.55 94.41 168.39 C 98.43 165.75 95.76 160.46 95.10 156.78 C 93.71 153.14 92.14 149.55 91.24 145.75 C 90.37 142.65 91.98 139.67 92.95 136.81 C 90.56 135.12 87.72 133.88 85.89 131.53 C 85.97 130.61 86.18 129.70 86.37 128.80 C 87.93 128.59 88.47 127.13 89.13 125.93 C 88.51 126.04 87.25 126.26 86.62 126.37 C 87.28 125.12 87.93 123.86 88.71 122.68 C 89.90 123.44 91.08 124.21 92.28 124.97 C 91.63 123.43 90.98 121.90 90.28 120.40 C 89.16 118.59 87.80 116.84 87.30 114.73 C 87.11 111.38 88.13 108.11 88.69 104.83 C 83.46 108.47 79.15 113.19 74.60 117.61 M 139.58 109.91 L 138.98 109.44 C 139.26 111.48 139.46 113.62 140.63 115.40 C 143.70 120.51 146.80 125.65 150.66 130.22 C 151.43 125.95 151.40 121.58 152.15 117.31 C 152.11 115.60 152.71 113.76 152.02 112.13 C 149.50 108.88 146.19 106.34 142.97 103.82 C 141.80 105.82 140.69 107.87 139.58 109.91 M 131.77 110.99 C 133.19 111.06 134.61 111.13 136.04 111.19 C 136.69 109.42 137.32 107.64 137.93 105.85 C 135.77 107.43 133.72 109.16 131.77 110.99 M 97.03 123.25 C 100.39 121.06 103.32 118.29 106.20 115.51 C 106.40 112.24 107.50 109.15 108.63 106.11 C 102.46 109.76 99.39 116.79 97.03 123.25 M 127.47 117.69 C 130.50 116.65 133.42 115.29 136.21 113.71 C 132.83 113.78 128.98 114.16 127.47 117.69 M 117.16 120.89 C 116.11 121.52 115.10 122.23 114.08 122.93 C 114.59 124.53 115.11 126.13 115.62 127.73 C 116.77 130.39 117.83 133.10 119.34 135.59 C 119.63 136.51 120.07 137.37 120.47 138.26 C 121.85 134.22 123.17 130.17 124.37 126.08 C 125.93 122.61 127.48 118.74 125.39 115.11 C 122.52 116.84 119.72 118.72 117.16 120.89 M 189.58 115.99 C 188.75 117.52 191.11 119.45 192.47 118.37 C 193.38 116.93 190.81 115.03 189.58 115.99 M 184.55 124.35 C 188.09 130.82 188.92 138.61 193.74 144.38 C 192.64 137.70 190.65 131.22 189.43 124.56 C 189.02 121.47 187.44 118.75 184.89 116.95 C 183.80 119.30 183.01 121.98 184.55 124.35 M 191.06 120.41 C 191.58 121.57 192.12 122.74 192.88 123.78 C 193.66 122.69 194.37 121.55 195.07 120.41 C 193.73 120.37 192.39 120.37 191.06 120.41 M 133.17 130.80 C 132.20 132.58 131.20 134.35 130.19 136.11 C 131.19 138.96 132.30 141.77 133.58 144.51 C 135.22 143.30 136.86 142.11 138.54 140.95 C 141.38 139.10 144.09 137.06 146.73 134.93 C 146.02 132.41 145.33 129.88 144.63 127.35 C 142.43 126.69 140.24 125.93 137.97 125.52 C 135.83 126.68 134.57 128.89 133.17 130.80 M 103.74 128.10 C 103.94 128.61 104.35 129.64 104.56 130.15 C 103.93 134.25 104.61 138.89 107.56 142.01 C 110.35 143.70 113.44 144.85 116.72 145.11 C 118.65 139.45 115.78 133.35 111.39 129.72 C 108.86 129.10 106.33 128.43 103.74 128.10 M 90.17 129.15 C 89.01 129.26 87.61 131.31 89.17 131.88 C 90.94 132.50 92.70 128.80 90.17 129.15 M 129.11 129.00 C 127.91 129.33 127.37 131.53 128.87 131.82 C 130.90 132.19 131.49 128.18 129.11 129.00 M 93.41 142.99 C 93.44 145.10 94.47 147.02 95.04 149.02 C 96.92 154.22 97.95 159.67 99.83 164.87 C 101.66 163.92 103.46 162.92 105.29 161.98 C 109.34 158.00 110.21 152.11 112.28 147.05 C 110.36 146.02 108.46 144.97 106.55 143.93 C 102.22 140.62 102.23 134.76 101.09 129.91 C 98.32 134.14 95.07 138.16 93.41 142.99 M 90.81 132.88 C 92.14 133.65 93.54 134.32 94.92 135.01 C 95.39 133.55 95.86 132.10 96.32 130.64 C 94.25 130.84 91.73 130.57 90.81 132.88 M 125.52 132.44 C 123.83 135.59 122.58 138.95 121.53 142.37 C 123.35 144.62 125.11 146.91 126.85 149.22 C 126.14 146.06 124.93 142.82 125.76 139.56 C 126.36 137.19 126.62 134.71 125.52 132.44 M 173.36 138.97 C 176.26 138.63 179.22 137.66 180.66 134.90 C 177.82 135.39 175.10 136.56 173.36 138.97 M 128.51 138.71 C 126.91 141.61 128.97 144.15 130.16 146.72 C 130.63 146.43 131.58 145.85 132.05 145.56 C 131.09 143.17 130.00 140.82 128.51 138.71 M 117.88 153.88 C 119.52 152.86 121.16 151.82 122.79 150.78 C 122.49 149.11 122.18 147.44 121.85 145.78 C 118.66 147.28 118.28 150.77 117.88 153.88 M 114.01 147.97 C 112.76 151.35 111.67 154.79 111.06 158.34 C 115.36 156.64 115.99 151.91 116.88 147.96 C 116.16 147.96 114.73 147.97 114.01 147.97 M 148.71 155.45 C 147.37 156.16 146.03 156.87 144.69 157.59 C 143.37 158.28 142.05 158.97 140.73 159.66 C 141.51 161.51 142.30 163.35 143.04 165.21 C 144.24 164.40 145.42 163.58 146.58 162.72 L 147.14 162.54 C 149.74 162.76 152.32 163.15 154.90 163.60 C 154.76 160.04 154.65 156.48 154.54 152.92 C 152.60 153.75 150.65 154.60 148.71 155.45 M 138.62 164.46 C 139.36 165.78 139.73 168.32 141.79 167.55 C 141.87 164.71 140.06 162.35 138.76 159.98 C 137.56 161.36 137.83 162.96 138.62 164.46 M 32.73 176.69 C 28.33 187.99 24.77 199.93 25.23 212.18 C 37.63 203.69 50.22 195.48 62.96 187.52 C 61.49 181.33 59.75 175.06 56.47 169.56 C 54.25 165.71 49.71 162.77 45.17 164.10 C 38.93 165.42 34.97 171.12 32.73 176.69 M 121.17 169.59 C 120.86 171.52 119.90 173.54 120.47 175.51 C 121.75 177.18 123.62 178.25 125.33 179.43 C 126.31 175.50 123.70 172.24 121.17 169.59 M 99.98 179.55 C 100.92 181.49 101.90 183.42 102.90 185.34 C 104.85 182.42 106.64 179.39 108.17 176.23 C 105.41 177.27 102.69 178.41 99.98 179.55 Z" />
<path fill="#4d4d50" opacity="1.00" d=" M 113.91 27.95 C 117.89 20.61 121.96 12.99 128.63 7.71 C 128.10 14.24 126.40 20.63 126.29 27.20 C 132.37 22.20 136.21 15.08 142.16 9.93 C 141.62 14.08 138.79 18.28 140.44 22.47 C 139.55 26.20 139.06 30.00 138.49 33.79 C 135.42 33.24 132.35 32.67 129.29 32.10 C 132.12 36.57 134.57 41.32 135.97 46.45 C 133.69 43.87 131.74 41.05 129.81 38.21 C 126.52 37.60 123.70 35.78 121.10 33.76 C 121.22 36.11 121.33 38.45 121.42 40.80 C 119.54 40.41 117.66 40.01 115.79 39.61 C 117.09 43.14 118.27 46.72 119.55 50.26 C 117.76 47.90 116.00 45.49 114.65 42.85 C 114.52 42.55 114.27 41.96 114.14 41.66 C 113.56 42.36 112.97 43.07 112.39 43.78 C 112.11 41.56 111.88 39.32 111.42 37.13 C 110.37 32.77 110.51 28.25 111.06 23.82 C 112.02 25.19 112.96 26.57 113.91 27.95 Z" />
<path fill="#1c1e27" opacity="1.00" d=" M 140.44 22.47 C 142.17 19.90 144.80 18.18 147.38 16.58 C 146.99 21.97 144.52 26.82 142.92 31.89 C 145.33 30.98 147.72 30.02 150.12 29.07 C 148.88 32.04 147.58 34.99 146.24 37.91 C 146.78 38.67 147.33 39.42 147.87 40.17 C 145.46 43.37 143.00 46.54 140.41 49.59 C 139.60 48.33 138.81 47.08 138.01 45.83 C 137.18 47.00 136.35 48.18 135.52 49.35 C 134.67 48.30 133.78 47.29 132.88 46.28 C 132.83 47.98 132.80 49.68 132.78 51.38 C 131.62 50.28 130.74 48.76 129.23 48.09 C 128.68 49.69 128.42 51.36 128.09 53.01 C 126.94 52.49 125.80 51.94 124.64 51.45 C 124.62 50.20 123.88 47.92 122.26 48.44 C 121.40 49.64 122.77 50.90 123.44 51.82 L 123.95 52.47 C 123.29 53.39 122.63 54.31 121.96 55.22 C 121.11 53.59 120.21 51.98 119.55 50.26 C 118.27 46.72 117.09 43.14 115.79 39.61 C 117.66 40.01 119.54 40.41 121.42 40.80 C 121.33 38.45 121.22 36.11 121.10 33.76 C 123.70 35.78 126.52 37.60 129.81 38.21 C 131.74 41.05 133.69 43.87 135.97 46.45 C 134.57 41.32 132.12 36.57 129.29 32.10 C 132.35 32.67 135.42 33.24 138.49 33.79 C 139.06 30.00 139.55 26.20 140.44 22.47 M 136.29 40.31 C 137.02 41.91 137.72 43.52 138.42 45.13 C 138.56 42.99 138.74 40.85 138.90 38.71 C 138.02 39.23 137.15 39.76 136.29 40.31 M 127.62 51.23 C 127.94 48.76 128.46 46.24 128.06 43.74 C 124.29 44.69 124.68 49.51 127.62 51.23 Z" />
<path fill="#2b2c36" opacity="1.00" d=" M 106.26 34.76 C 108.21 36.92 109.75 39.41 110.99 42.04 C 111.11 40.40 111.20 38.76 111.42 37.13 C 111.88 39.32 112.11 41.56 112.39 43.78 C 112.97 43.07 113.56 42.36 114.14 41.66 C 114.27 41.96 114.52 42.55 114.65 42.85 C 114.79 44.88 114.58 46.91 114.48 48.94 C 113.05 48.63 111.50 48.59 110.21 47.85 C 108.10 43.78 107.19 39.21 106.26 34.76 Z" />
<path fill="#fef7d3" opacity="1.00" d=" M 136.29 40.31 C 137.15 39.76 138.02 39.23 138.90 38.71 C 138.74 40.85 138.56 42.99 138.42 45.13 C 137.72 43.52 137.02 41.91 136.29 40.31 Z" />
<path fill="#25242b" opacity="1.00" d=" M 168.80 45.91 C 172.67 42.90 177.47 41.64 182.08 40.26 C 177.58 45.04 172.77 49.56 167.45 53.42 C 164.74 55.50 161.24 55.81 157.97 56.18 C 159.05 53.99 159.30 50.80 161.72 49.63 C 164.18 48.59 166.67 47.55 168.80 45.91 Z" />
<path fill="#325363" opacity="1.00" d=" M 127.62 51.23 C 124.68 49.51 124.29 44.69 128.06 43.74 C 128.46 46.24 127.94 48.76 127.62 51.23 Z" />
<path fill="#8e94a1" opacity="1.00" d=" M 161.72 49.63 C 163.77 47.87 166.13 46.46 168.80 45.91 C 166.67 47.55 164.18 48.59 161.72 49.63 Z" />
<path fill="#fef7d3" opacity="1.00" d=" M 132.88 46.28 C 133.78 47.29 134.67 48.30 135.52 49.35 C 136.06 50.10 136.57 50.87 137.05 51.67 C 138.12 51.71 139.20 51.76 140.27 51.83 C 137.28 52.53 134.61 54.02 132.01 55.60 C 129.07 55.53 125.43 55.55 123.95 52.47 L 123.44 51.82 C 123.74 51.72 124.34 51.54 124.64 51.45 C 125.80 51.94 126.94 52.49 128.09 53.01 C 128.42 51.36 128.68 49.69 129.23 48.09 C 130.74 48.76 131.62 50.28 132.78 51.38 C 132.80 49.68 132.83 47.98 132.88 46.28 Z" />
<path fill="#825f54" opacity="1.00" d=" M 122.26 48.44 C 123.88 47.92 124.62 50.20 124.64 51.45 C 124.34 51.54 123.74 51.72 123.44 51.82 C 122.77 50.90 121.40 49.64 122.26 48.44 Z" />
<path fill="#fefefe" opacity="1.00" d=" M 152.82 48.76 C 154.32 47.93 156.14 48.75 157.75 48.76 C 156.82 51.91 155.75 55.03 155.27 58.29 C 156.73 58.62 158.21 58.88 159.66 59.26 C 161.54 60.62 163.29 62.15 165.03 63.68 C 163.28 64.11 161.52 64.50 159.75 64.77 C 156.70 65.04 153.64 64.86 150.61 64.59 C 150.28 59.23 150.34 53.67 152.82 48.76 Z" />
<path fill="#697187" opacity="1.00" d=" M 144.52 65.09 C 144.99 61.64 145.77 58.14 148.08 55.40 C 148.32 58.67 148.42 61.94 148.57 65.21 C 147.55 65.18 145.53 65.12 144.52 65.09 Z" />
<path fill="#798193" opacity="1.00" d=" M 108.86 56.33 C 110.90 57.61 112.82 59.08 114.73 60.55 C 113.72 60.82 112.72 61.10 111.72 61.39 C 110.77 59.70 109.77 58.04 108.86 56.33 Z" />
<path fill="#495570" opacity="1.00" d=" M 159.66 59.26 C 162.01 58.44 164.39 57.70 166.79 57.03 C 167.55 59.24 168.41 61.43 168.82 63.75 C 165.94 64.87 162.80 65.08 159.75 64.77 C 161.52 64.50 163.28 64.11 165.03 63.68 C 163.29 62.15 161.54 60.62 159.66 59.26 Z" />
<path fill="#6d6c75" opacity="1.00" d=" M 135.24 58.92 C 136.84 58.20 137.70 60.87 136.04 61.29 C 134.44 62.01 133.59 59.36 135.24 58.92 Z" />
<path fill="#f9f9fa" opacity="1.00" d=" M 114.56 67.27 C 118.05 64.83 120.62 60.35 125.21 60.06 C 122.75 63.39 119.48 66.01 116.96 69.29 C 116.19 68.58 115.39 67.91 114.56 67.27 Z" />
<path fill="#fefefe" opacity="1.00" d=" M 126.43 61.85 C 126.85 61.70 127.68 61.41 128.10 61.27 C 129.74 63.27 131.02 65.52 132.43 67.68 C 131.71 68.40 131.00 69.12 130.29 69.85 C 129.05 69.48 127.81 69.13 126.56 68.79 C 126.72 66.47 126.53 64.16 126.43 61.85 Z" />
<path fill="#999ea9" opacity="1.00" d=" M 132.86 64.75 C 134.60 64.03 136.37 63.36 138.15 62.75 C 137.34 64.67 136.37 66.52 135.28 68.29 C 134.47 67.12 133.66 65.93 132.86 64.75 Z" />
<path fill="#b7bcc5" opacity="1.00" d=" M 107.00 72.34 C 107.29 68.27 111.27 66.11 114.49 64.44 C 112.45 67.44 110.18 70.47 107.00 72.34 Z" />
<path fill="#306676" opacity="1.00" d=" M 122.31 65.30 C 123.14 65.19 124.81 64.97 125.64 64.87 C 124.89 67.04 124.09 69.19 123.20 71.31 C 122.61 71.11 121.41 70.69 120.82 70.49 C 120.97 69.48 121.29 67.46 121.44 66.45 L 121.95 67.03 C 122.92 69.17 125.27 66.37 123.01 65.75 L 122.31 65.30 Z" />
<path fill="#626a7e" opacity="1.00" d=" M 138.40 65.97 C 139.21 65.69 140.82 65.12 141.63 64.84 C 141.26 66.93 141.30 69.47 139.13 70.61 C 138.86 69.06 138.62 67.52 138.40 65.97 Z" />
<path fill="#3c455c" opacity="1.00" d=" M 174.77 65.09 C 176.31 64.94 177.85 64.80 179.40 64.66 C 178.58 66.78 179.98 70.97 177.33 71.67 C 176.32 69.54 175.57 67.30 174.77 65.09 Z" />
<path fill="#fef7d3" opacity="1.00" d=" M 121.95 67.03 C 122.21 66.71 122.74 66.07 123.01 65.75 C 125.27 66.37 122.92 69.17 121.95 67.03 Z" />
<path fill="#20313a" opacity="1.00" d=" M 180.97 71.75 C 181.51 69.46 181.53 66.60 183.98 65.42 C 184.08 67.56 184.10 69.70 184.11 71.83 C 183.32 71.81 181.76 71.77 180.97 71.75 Z" />
<path fill="#525b70" opacity="1.00" d=" M 110.28 73.04 C 111.45 70.96 112.50 68.63 114.56 67.27 C 115.39 67.91 116.19 68.58 116.96 69.29 C 117.27 69.78 117.90 70.77 118.22 71.26 C 115.59 71.94 112.95 72.55 110.28 73.04 Z" />
<path fill="#767e91" opacity="1.00" d=" M 132.43 67.68 L 132.98 67.13 C 132.76 69.65 132.27 72.45 129.97 73.94 C 127.01 75.21 123.94 76.15 120.86 77.06 C 121.38 76.15 121.91 75.24 122.45 74.34 C 123.47 72.67 124.59 71.07 125.70 69.46 C 126.82 70.03 127.93 70.59 129.06 71.15 C 129.37 70.82 129.99 70.18 130.29 69.85 C 131.00 69.12 131.71 68.40 132.43 67.68 Z" />
<path fill="#505b76" opacity="1.00" d=" M 147.90 67.29 C 149.99 67.33 152.08 67.37 154.17 67.42 C 152.24 68.65 150.28 69.84 148.32 71.03 C 148.18 69.78 148.04 68.53 147.90 67.29 Z" />
<path fill="#6d7589" opacity="1.00" d=" M 165.71 70.11 C 167.75 68.56 170.06 67.01 172.75 67.13 C 174.93 69.37 175.67 72.52 175.25 75.55 L 174.70 74.93 C 172.60 71.93 169.50 69.80 165.71 70.11 Z" />
<path fill="#878fa1" opacity="1.00" d=" M 137.14 68.36 C 138.87 68.78 138.45 72.06 136.54 71.49 C 134.82 71.01 135.21 67.89 137.14 68.36 Z" />
<path fill="#3d414b" opacity="1.00" d=" M 143.14 67.45 C 145.51 68.61 145.93 71.22 146.21 73.58 C 144.62 71.86 143.59 69.74 143.14 67.45 Z" />
<path fill="#3b4458" opacity="1.00" d=" M 158.15 71.02 C 156.72 67.88 161.48 68.66 163.30 67.85 C 161.77 69.14 160.49 71.58 158.15 71.02 Z" />
<path fill="#4f7473" opacity="1.00" d=" M 185.89 68.01 C 191.36 69.49 196.52 71.90 201.74 74.07 C 200.50 77.32 199.30 80.59 197.97 83.81 C 196.66 80.74 196.22 76.79 192.94 75.08 C 189.99 73.37 187.43 71.08 185.89 68.01 Z" />
<path fill="#8ebfa1" opacity="1.00" d=" M 120.82 70.49 C 121.41 70.69 122.61 71.11 123.20 71.31 C 123.13 73.41 119.40 72.15 120.82 70.49 Z" />
<path fill="#fafbfb" opacity="1.00" d=" M 165.71 70.11 C 169.50 69.80 172.60 71.93 174.70 74.93 C 173.17 76.49 171.72 78.12 170.21 79.70 C 167.21 78.36 163.95 77.11 162.21 74.11 C 163.38 72.78 164.57 71.47 165.71 70.11 Z" />
<path fill="#666f87" opacity="1.00" d=" M 140.07 71.47 C 143.85 71.01 144.41 75.83 146.02 78.24 C 144.19 78.52 142.35 78.77 140.51 79.00 C 140.38 76.49 140.22 73.98 140.07 71.47 Z" />
<path fill="#767e91" opacity="1.00" d=" M 155.80 72.40 C 156.62 72.37 158.27 72.31 159.09 72.28 C 158.70 73.61 158.30 74.93 157.89 76.26 C 157.18 74.98 156.48 73.69 155.80 72.40 Z" />
<path fill="#4e5a75" opacity="1.00" d=" M 119.67 74.07 C 120.36 74.14 121.75 74.27 122.45 74.34 C 121.91 75.24 121.38 76.15 120.86 77.06 C 123.94 76.15 127.01 75.21 129.97 73.94 C 127.82 77.21 124.98 79.94 121.85 82.27 C 121.06 79.55 120.35 76.81 119.67 74.07 Z" />
<path fill="#858da0" opacity="1.00" d=" M 131.64 79.96 C 133.46 77.42 135.65 75.16 138.35 73.55 C 138.16 75.47 139.15 77.97 137.24 79.29 C 135.52 80.24 133.51 79.93 131.64 79.96 Z" />
<path fill="#31384c" opacity="1.00" d=" M 146.38 73.56 C 148.29 74.37 150.17 75.27 151.99 76.28 C 150.79 76.59 149.58 76.76 148.35 76.77 C 147.62 75.74 146.96 74.67 146.38 73.56 Z" />
<path fill="#8b93a0" opacity="1.00" d=" M 180.45 74.96 C 181.74 74.46 183.02 73.95 184.30 73.44 C 185.16 80.23 187.71 86.80 187.44 93.71 C 186.16 92.99 184.64 92.58 183.61 91.50 C 183.47 85.84 182.10 80.34 180.45 74.96 Z" />
<path fill="#537978" opacity="1.00" d=" M 203.85 75.06 C 215.19 79.07 226.60 82.90 237.85 87.16 C 251.99 92.64 266.26 99.03 277.36 109.64 C 292.76 124.62 296.25 148.90 289.92 168.83 C 285.13 183.40 275.30 195.92 263.28 205.27 C 254.13 212.09 244.33 218.28 233.63 222.36 C 238.54 215.96 244.80 210.55 248.39 203.20 C 257.46 187.65 264.78 170.31 264.56 151.99 C 264.70 143.78 261.64 135.77 256.70 129.28 C 247.99 117.84 236.58 108.80 224.55 101.07 C 227.65 98.52 230.76 95.93 233.31 92.81 C 228.29 93.63 223.91 96.43 219.01 97.61 C 213.39 95.69 208.19 92.04 204.25 87.59 C 202.80 83.65 203.91 79.20 203.85 75.06 Z" />
<path fill="#fafbfb" opacity="1.00" d=" M 160.66 75.73 C 163.26 78.16 166.55 79.59 169.47 81.55 C 166.45 81.40 163.51 80.64 160.53 80.15 C 160.57 78.68 160.61 77.20 160.66 75.73 Z" />
<path fill="#f9f9fa" opacity="1.00" d=" M 168.62 87.99 C 170.53 83.12 173.59 78.22 178.31 75.64 C 179.62 80.42 181.60 85.16 181.56 90.18 C 179.72 91.48 177.33 90.25 175.28 90.20 C 175.36 88.36 175.40 86.52 175.40 84.68 C 173.14 86.05 171.45 88.08 169.72 90.02 C 169.44 89.51 168.89 88.50 168.62 87.99 Z" />
<path fill="#1a2433" opacity="1.00" d=" M 145.43 87.42 C 150.18 84.84 152.36 79.39 157.13 76.85 C 157.59 78.49 158.05 80.12 158.50 81.76 C 161.29 82.41 164.08 83.05 166.88 83.67 C 165.49 89.50 163.39 95.15 160.40 100.36 C 159.67 102.28 157.78 104.54 158.96 106.61 C 161.65 105.84 164.17 104.49 166.94 104.00 C 170.42 105.03 173.59 107.25 175.98 109.97 C 177.58 112.99 177.94 116.48 178.74 119.77 C 177.57 119.52 176.40 119.27 175.24 119.03 C 174.82 122.17 174.85 125.50 173.41 128.39 C 171.60 131.81 166.65 132.52 163.56 130.50 C 162.10 129.00 161.40 126.97 160.45 125.15 C 158.03 126.53 155.59 127.89 153.10 129.14 C 153.03 124.21 153.91 119.37 154.52 114.51 C 155.31 110.88 151.65 108.68 150.50 105.62 C 149.42 102.43 149.09 99.06 148.46 95.76 C 145.63 95.01 142.47 94.75 140.13 92.81 C 140.22 89.98 143.57 89.01 145.43 87.42 Z" />
<path fill="#939aa5" opacity="1.00" d=" M 190.17 76.86 C 191.22 77.71 192.65 78.26 193.32 79.50 C 193.56 81.08 193.54 82.69 193.60 84.28 C 192.14 81.97 191.00 79.46 190.17 76.86 Z" />
<path fill="#798193" opacity="1.00" d=" M 110.75 80.70 C 112.63 78.94 114.93 77.37 117.62 78.20 C 119.27 80.85 120.00 83.93 121.07 86.83 C 117.55 84.92 113.99 83.07 110.75 80.70 Z" />
<path fill="#2d3447" opacity="1.00" d=" M 141.70 86.91 C 143.17 83.67 145.89 81.34 149.41 80.62 C 147.85 83.77 144.92 85.74 141.70 86.91 Z" />
<path fill="#999ea9" opacity="1.00" d=" M 199.72 88.18 C 199.53 85.52 200.38 82.97 201.55 80.63 C 201.58 81.97 201.50 83.31 201.32 84.64 C 200.82 85.83 200.26 87.00 199.72 88.18 Z" />
<path fill="#fafbfb" opacity="1.00" d=" M 129.88 82.58 C 132.69 82.02 135.56 82.45 138.40 82.42 C 135.19 85.23 131.85 87.88 128.47 90.49 C 125.42 92.63 126.83 96.76 126.03 99.87 C 124.17 97.22 123.23 94.04 122.65 90.90 C 123.07 86.89 126.67 84.40 129.88 82.58 Z" />
<path fill="#26262d" opacity="1.00" d=" M 189.33 88.51 C 188.54 86.14 188.39 83.63 188.67 81.17 C 194.15 88.32 196.05 97.52 197.44 106.25 C 198.08 109.48 196.20 112.41 195.01 115.27 C 192.75 113.35 190.85 111.06 189.38 108.50 C 190.90 107.54 192.42 106.59 193.95 105.63 C 192.64 99.86 191.06 94.16 189.33 88.51 Z" />
<path fill="#232228" opacity="1.00" d=" M 199.72 88.18 C 200.26 87.00 200.82 85.83 201.32 84.64 C 201.55 88.88 201.87 93.22 204.00 97.00 C 205.43 98.85 203.96 100.79 203.19 102.57 C 199.99 98.65 197.08 93.18 199.72 88.18 Z" />
<path fill="#b7bcc5" opacity="1.00" d=" M 107.77 89.47 C 109.50 88.12 111.20 86.75 112.91 85.37 C 113.91 85.90 114.91 86.42 115.91 86.94 C 113.57 89.29 111.69 92.02 109.83 94.76 C 109.04 93.04 108.36 91.27 107.77 89.47 Z" />
<path fill="#999ea9" opacity="1.00" d=" M 129.86 95.44 C 131.16 90.90 135.79 88.94 139.22 86.26 C 136.61 89.78 133.71 93.24 129.86 95.44 Z" />
<path fill="#767e91" opacity="1.00" d=" M 111.92 96.37 C 113.01 92.62 115.48 89.30 119.18 87.79 C 117.67 91.30 115.28 94.47 111.92 96.37 Z" />
<path fill="#797f8c" opacity="1.00" d=" M 102.43 90.65 C 102.74 89.87 103.09 89.11 103.47 88.36 C 104.77 90.63 105.96 92.96 107.06 95.34 C 105.62 95.48 104.19 95.68 102.76 95.87 C 102.64 94.13 102.51 92.39 102.43 90.65 Z" />
<path fill="#dde0e2" opacity="1.00" d=" M 102.43 90.65 C 102.51 92.39 102.64 94.13 102.76 95.87 C 104.19 95.68 105.62 95.48 107.06 95.34 C 107.36 95.49 107.96 95.77 108.26 95.92 C 107.56 98.71 106.78 101.49 105.83 104.22 C 100.86 109.14 97.49 115.30 94.49 121.56 C 92.79 119.78 90.69 117.69 91.68 114.98 C 93.69 106.31 97.30 97.94 102.43 90.65 Z" />
<path fill="#505b76" opacity="1.00" d=" M 135.99 93.90 C 136.48 93.20 137.00 92.50 137.52 91.82 C 138.62 94.83 139.60 97.88 140.52 100.95 C 138.07 102.60 135.64 104.26 133.21 105.93 C 132.31 104.67 131.39 103.42 130.47 102.19 C 132.29 99.41 134.14 96.66 135.99 93.90 Z" />
<path fill="#f9fafa" opacity="1.00" d=" M 119.36 93.54 C 119.65 93.44 120.24 93.24 120.53 93.14 C 121.31 95.19 121.89 97.32 122.67 99.38 C 119.61 104.22 114.87 107.76 109.45 109.54 C 112.51 104.06 115.86 98.74 119.36 93.54 Z" />
<path fill="#212027" opacity="1.00" d=" M 171.19 93.53 C 173.68 93.18 176.22 92.78 178.74 93.11 C 179.84 94.50 179.92 96.39 180.44 98.03 C 178.14 97.46 175.86 96.84 173.59 96.18 C 174.20 96.02 175.41 95.72 176.02 95.57 C 174.41 94.89 172.80 94.21 171.19 93.53 Z" />
<path fill="#606a81" opacity="1.00" d=" M 182.03 92.77 C 183.88 93.94 186.17 94.68 187.55 96.45 C 188.75 99.65 188.19 103.12 187.75 106.41 C 183.04 103.56 183.20 97.51 182.03 92.77 Z" />
<path fill="#dde0e2" opacity="1.00" d=" M 130.47 102.19 C 129.36 98.14 132.91 95.64 135.99 93.90 C 134.14 96.66 132.29 99.41 130.47 102.19 Z" />
<path fill="#b7bcc5" opacity="1.00" d=" M 169.22 96.15 C 169.71 95.49 170.70 94.18 171.19 93.53 C 172.80 94.21 174.41 94.89 176.02 95.57 C 175.41 95.72 174.20 96.02 173.59 96.18 C 172.16 96.62 170.66 96.30 169.22 96.15 Z" />
<path fill="#1a2433" opacity="1.00" d=" M 207.50 95.11 C 210.36 96.66 213.24 98.19 216.07 99.82 C 211.69 103.05 207.05 105.91 202.10 108.17 C 205.11 104.41 208.79 100.35 207.50 95.11 Z" />
<path fill="#6a7286" opacity="1.00" d=" M 108.26 95.92 C 109.60 97.04 110.95 98.16 112.31 99.28 C 110.63 101.48 108.57 103.45 105.83 104.22 C 106.78 101.49 107.56 98.71 108.26 95.92 Z" />
<path fill="#646f8a" opacity="1.00" d=" M 141.70 97.23 C 143.28 97.33 144.86 97.45 146.44 97.57 C 146.60 99.74 146.76 101.92 146.88 104.10 C 144.77 102.12 143.01 99.82 141.70 97.23 Z" />
<path fill="#3a565e" opacity="1.00" d=" M 75.82 106.68 C 80.37 103.37 85.07 100.19 90.28 98.01 C 86.86 102.66 82.17 106.11 77.96 109.98 C 77.25 108.88 76.53 107.78 75.82 106.68 Z" />
<path fill="#999ea9" opacity="1.00" d=" M 122.67 99.38 C 122.65 101.26 123.30 103.42 121.99 105.02 C 118.33 110.14 114.28 114.99 109.82 119.44 C 108.98 116.20 107.97 112.75 109.45 109.54 C 114.87 107.76 119.61 104.22 122.67 99.38 Z" />
<path fill="#797f8e" opacity="1.00" d=" M 123.55 109.79 C 124.83 107.22 126.10 102.39 129.97 103.84 C 128.15 106.14 125.98 108.14 123.55 109.79 Z" />
<path fill="#1a2433" opacity="1.00" d=" M 208.00 111.99 C 212.69 109.07 217.38 106.15 221.98 103.10 C 233.43 109.87 243.98 118.27 252.63 128.41 C 256.53 132.97 259.67 138.30 260.97 144.20 C 263.37 154.26 261.30 164.70 258.60 174.47 C 255.99 183.91 251.20 192.50 247.02 201.28 C 242.32 201.01 237.51 200.66 233.11 198.82 C 229.65 197.39 226.90 194.78 224.08 192.40 C 226.78 185.30 228.45 177.87 230.59 170.58 C 232.39 164.67 233.88 158.25 231.83 152.19 C 229.09 143.84 224.07 136.07 217.00 130.75 C 218.75 143.83 222.48 156.71 222.09 170.03 C 222.01 176.41 220.80 182.70 219.79 188.98 C 212.42 183.71 204.37 178.43 195.05 177.87 C 184.85 176.72 175.03 180.20 165.06 181.61 C 166.40 177.92 168.22 174.28 168.54 170.32 C 166.03 166.90 161.79 165.52 158.16 163.67 C 158.05 159.52 158.05 155.37 158.12 151.21 C 164.77 147.40 171.83 144.32 178.47 140.47 C 182.57 138.38 182.95 133.36 184.55 129.55 C 188.75 138.07 191.58 147.27 196.83 155.26 C 196.80 148.97 195.82 142.73 194.27 136.65 C 193.59 133.08 191.96 128.84 194.66 125.69 C 198.45 120.57 202.49 115.36 208.00 111.99 Z" />
<path fill="#58637c" opacity="1.00" d=" M 129.97 103.84 C 130.28 105.24 130.64 106.63 130.98 108.03 C 127.24 111.82 122.73 114.70 118.06 117.19 C 119.69 114.61 121.09 111.71 123.55 109.79 C 125.98 108.14 128.15 106.14 129.97 103.84 Z" />
<path fill="#1a2433" opacity="1.00" d=" M 74.60 117.61 C 79.15 113.19 83.46 108.47 88.69 104.83 C 88.13 108.11 87.11 111.38 87.30 114.73 C 87.80 116.84 89.16 118.59 90.28 120.40 C 89.74 121.15 89.22 121.91 88.71 122.68 C 87.93 123.86 87.28 125.12 86.62 126.37 C 86.10 127.32 85.61 128.29 85.12 129.26 C 85.43 129.15 86.06 128.91 86.37 128.80 C 86.18 129.70 85.97 130.61 85.89 131.53 C 87.72 133.88 90.56 135.12 92.95 136.81 C 91.98 139.67 90.37 142.65 91.24 145.75 C 92.14 149.55 93.71 153.14 95.10 156.78 C 94.50 156.60 93.29 156.25 92.68 156.07 C 87.55 162.68 82.42 169.37 78.76 176.94 C 75.51 180.88 70.40 182.63 66.12 185.21 C 63.34 177.49 61.81 168.37 54.92 163.06 C 50.64 159.62 44.92 161.00 40.00 161.82 C 48.77 145.16 61.14 130.66 74.60 117.61 Z" />
<path fill="#ffffff" opacity="1.00" d=" M 139.58 109.91 C 140.69 107.87 141.80 105.82 142.97 103.82 C 146.19 106.34 149.50 108.88 152.02 112.13 C 152.71 113.76 152.11 115.60 152.15 117.31 C 147.58 115.56 143.35 113.03 139.58 109.91 Z" />
<path fill="#495570" opacity="1.00" d=" M 131.77 110.99 C 133.72 109.16 135.77 107.43 137.93 105.85 C 137.32 107.64 136.69 109.42 136.04 111.19 C 134.61 111.13 133.19 111.06 131.77 110.99 Z" />
<path fill="#537978" opacity="1.00" d=" M 57.43 120.41 C 63.26 115.44 69.42 110.89 75.82 106.68 C 76.53 107.78 77.25 108.88 77.96 109.98 C 58.52 128.42 40.94 149.61 30.59 174.57 C 25.29 187.12 22.91 200.70 22.40 214.27 C 15.05 200.86 15.11 184.32 20.12 170.11 C 26.99 150.11 41.46 133.80 57.43 120.41 Z" />
<path fill="#555f79" opacity="1.00" d=" M 97.03 123.25 C 99.39 116.79 102.46 109.76 108.63 106.11 C 107.50 109.15 106.40 112.24 106.20 115.51 C 103.32 118.29 100.39 121.06 97.03 123.25 Z" />
<path fill="#939aa5" opacity="1.00" d=" M 138.98 109.44 L 139.58 109.91 C 143.35 113.03 147.58 115.56 152.15 117.31 C 151.40 121.58 151.43 125.95 150.66 130.22 C 146.80 125.65 143.70 120.51 140.63 115.40 C 139.46 113.62 139.26 111.48 138.98 109.44 Z" />
<path fill="#6c758d" opacity="1.00" d=" M 127.47 117.69 C 128.98 114.16 132.83 113.78 136.21 113.71 C 133.42 115.29 130.50 116.65 127.47 117.69 Z" />
<path fill="#4c5773" opacity="1.00" d=" M 117.16 120.89 C 119.72 118.72 122.52 116.84 125.39 115.11 C 127.48 118.74 125.93 122.61 124.37 126.08 C 123.72 124.25 123.02 122.41 121.85 120.85 C 120.29 120.70 118.72 120.77 117.16 120.89 Z" />
<path fill="#f9f9fa" opacity="1.00" d=" M 189.58 115.99 C 190.81 115.03 193.38 116.93 192.47 118.37 C 191.11 119.45 188.75 117.52 189.58 115.99 Z" />
<path fill="#201f26" opacity="1.00" d=" M 184.55 124.35 C 183.01 121.98 183.80 119.30 184.89 116.95 C 187.44 118.75 189.02 121.47 189.43 124.56 C 190.65 131.22 192.64 137.70 193.74 144.38 C 188.92 138.61 188.09 130.82 184.55 124.35 Z" />
<path fill="#f9f9fa" opacity="1.00" d=" M 191.06 120.41 C 192.39 120.37 193.73 120.37 195.07 120.41 C 194.37 121.55 193.66 122.69 192.88 123.78 C 192.12 122.74 191.58 121.57 191.06 120.41 Z" />
<path fill="#b7bcc5" opacity="1.00" d=" M 88.71 122.68 C 89.22 121.91 89.74 121.15 90.28 120.40 C 90.98 121.90 91.63 123.43 92.28 124.97 C 91.08 124.21 89.90 123.44 88.71 122.68 Z" />
<path fill="#6c758d" opacity="1.00" d=" M 114.08 122.93 C 115.10 122.23 116.11 121.52 117.16 120.89 C 118.72 120.77 120.29 120.70 121.85 120.85 C 123.02 122.41 123.72 124.25 124.37 126.08 C 123.17 130.17 121.85 134.22 120.47 138.26 C 120.07 137.37 119.63 136.51 119.34 135.59 C 120.33 131.13 121.19 126.62 121.41 122.05 C 119.25 123.70 117.31 125.60 115.62 127.73 C 115.11 126.13 114.59 124.53 114.08 122.93 Z" />
<path fill="#fdfdfd" opacity="1.00" d=" M 115.62 127.73 C 117.31 125.60 119.25 123.70 121.41 122.05 C 121.19 126.62 120.33 131.13 119.34 135.59 C 117.83 133.10 116.77 130.39 115.62 127.73 Z" />
<path fill="#b7bcc5" opacity="1.00" d=" M 86.62 126.37 C 87.25 126.26 88.51 126.04 89.13 125.93 C 88.47 127.13 87.93 128.59 86.37 128.80 C 86.06 128.91 85.43 129.15 85.12 129.26 C 85.61 128.29 86.10 127.32 86.62 126.37 Z" />
<path fill="#6c758b" opacity="1.00" d=" M 133.17 130.80 C 134.57 128.89 135.83 126.68 137.97 125.52 C 140.24 125.93 142.43 126.69 144.63 127.35 C 145.33 129.88 146.02 132.41 146.73 134.93 C 144.09 137.06 141.38 139.10 138.54 140.95 C 137.30 137.30 135.73 133.73 133.17 130.80 Z" />
<path fill="#80889c" opacity="1.00" d=" M 103.74 128.10 C 106.33 128.43 108.86 129.10 111.39 129.72 C 110.28 133.51 109.13 137.29 107.85 141.03 C 108.47 137.04 106.32 133.53 104.56 130.15 C 104.35 129.64 103.94 128.61 103.74 128.10 Z" />
<path fill="#373f54" opacity="1.00" d=" M 90.17 129.15 C 92.70 128.80 90.94 132.50 89.17 131.88 C 87.61 131.31 89.01 129.26 90.17 129.15 Z" />
<path fill="#6a6e76" opacity="1.00" d=" M 129.11 129.00 C 131.49 128.18 130.90 132.19 128.87 131.82 C 127.37 131.53 127.91 129.33 129.11 129.00 Z" />
<path fill="#ffffff" opacity="1.00" d=" M 93.41 142.99 C 95.07 138.16 98.32 134.14 101.09 129.91 C 102.23 134.76 102.22 140.62 106.55 143.93 C 105.88 149.93 105.38 155.94 105.29 161.98 C 103.46 162.92 101.66 163.92 99.83 164.87 C 97.95 159.67 96.92 154.22 95.04 149.02 C 94.47 147.02 93.44 145.10 93.41 142.99 Z" />
<path fill="#4e5873" opacity="1.00" d=" M 111.39 129.72 C 115.78 133.35 118.65 139.45 116.72 145.11 C 113.44 144.85 110.35 143.70 107.56 142.01 L 107.85 141.03 C 109.13 137.29 110.28 133.51 111.39 129.72 Z" />
<path fill="#18171e" opacity="1.00" d=" M 149.42 136.61 C 152.34 133.72 155.83 131.52 159.41 129.54 C 162.83 133.57 165.36 139.29 171.22 140.10 C 160.83 143.84 151.28 149.52 141.25 154.10 C 127.50 157.68 115.25 165.17 102.01 170.11 C 108.38 164.73 116.01 161.18 122.54 156.02 C 128.75 152.10 134.78 147.89 141.07 144.10 C 144.34 142.20 147.15 139.63 149.42 136.61 Z" />
<path fill="#32394c" opacity="1.00" d=" M 90.81 132.88 C 91.73 130.57 94.25 130.84 96.32 130.64 C 95.86 132.10 95.39 133.55 94.92 135.01 C 93.54 134.32 92.14 133.65 90.81 132.88 Z" />
<path fill="#f9f9fa" opacity="1.00" d=" M 104.56 130.15 C 106.32 133.53 108.47 137.04 107.85 141.03 L 107.56 142.01 C 104.61 138.89 103.93 134.25 104.56 130.15 Z" />
<path fill="#263845" opacity="1.00" d=" M 217.00 130.75 C 224.07 136.07 229.09 143.84 231.83 152.19 C 233.88 158.25 232.39 164.67 230.59 170.58 C 228.45 177.87 226.78 185.30 224.08 192.40 C 222.68 191.23 221.25 190.08 219.79 188.98 C 220.80 182.70 222.01 176.41 222.09 170.03 C 222.48 156.71 218.75 143.83 217.00 130.75 Z" />
<path fill="#fefefe" opacity="1.00" d=" M 130.19 136.11 C 131.20 134.35 132.20 132.58 133.17 130.80 C 135.73 133.73 137.30 137.30 138.54 140.95 C 136.86 142.11 135.22 143.30 133.58 144.51 C 132.30 141.77 131.19 138.96 130.19 136.11 Z" />
<path fill="#16202b" opacity="1.00" d=" M 125.52 132.44 C 126.62 134.71 126.36 137.19 125.76 139.56 C 124.93 142.82 126.14 146.06 126.85 149.22 C 125.11 146.91 123.35 144.62 121.53 142.37 C 122.58 138.95 123.83 135.59 125.52 132.44 Z" />
<path fill="#373640" opacity="1.00" d=" M 173.36 138.97 C 175.10 136.56 177.82 135.39 180.66 134.90 C 179.22 137.66 176.26 138.63 173.36 138.97 Z" />
<path fill="#585768" opacity="1.00" d=" M 120.59 155.37 C 130.05 148.88 139.88 142.97 149.42 136.61 C 147.15 139.63 144.34 142.20 141.07 144.10 C 134.78 147.89 128.75 152.10 122.54 156.02 C 122.05 155.85 121.08 155.53 120.59 155.37 Z" />
<path fill="#f9f9fa" opacity="1.00" d=" M 128.51 138.71 C 130.00 140.82 131.09 143.17 132.05 145.56 C 131.58 145.85 130.63 146.43 130.16 146.72 C 128.97 144.15 126.91 141.61 128.51 138.71 Z" />
<path fill="#4b4a57" opacity="1.00" d=" M 141.25 154.10 C 151.28 149.52 160.83 143.84 171.22 140.10 L 172.12 140.28 C 164.96 145.10 156.86 148.18 149.33 152.32 C 137.10 158.54 124.98 165.01 112.32 170.33 C 103.94 174.02 96.00 178.59 88.03 183.08 C 79.18 187.67 70.09 191.78 61.50 196.85 C 47.00 203.79 33.43 212.43 19.44 220.29 C 21.92 217.78 24.55 215.40 27.57 213.55 C 43.19 203.45 58.47 192.75 74.77 183.74 C 75.31 183.75 76.37 183.78 76.91 183.79 C 72.04 187.41 66.67 190.26 61.80 193.86 C 69.48 190.93 76.73 186.99 83.74 182.70 C 92.85 177.10 102.85 173.21 112.35 168.34 C 121.88 163.39 132.08 159.73 141.25 154.10 Z" />
<path fill="#878fa1" opacity="1.00" d=" M 106.55 143.93 C 108.46 144.97 110.36 146.02 112.28 147.05 C 110.21 152.11 109.34 158.00 105.29 161.98 C 105.38 155.94 105.88 149.93 106.55 143.93 Z" />
<path fill="#434d67" opacity="1.00" d=" M 117.88 153.88 C 118.28 150.77 118.66 147.28 121.85 145.78 C 122.18 147.44 122.49 149.11 122.79 150.78 C 121.16 151.82 119.52 152.86 117.88 153.88 Z" />
<path fill="#293043" opacity="1.00" d=" M 114.01 147.97 C 114.73 147.97 116.16 147.96 116.88 147.96 C 115.99 151.91 115.36 156.64 111.06 158.34 C 111.67 154.79 112.76 151.35 114.01 147.97 Z" />
<path fill="#4c5773" opacity="1.00" d=" M 148.71 155.45 C 150.65 154.60 152.60 153.75 154.54 152.92 C 154.65 156.48 154.76 160.04 154.90 163.60 C 152.32 163.15 149.74 162.76 147.14 162.54 C 148.46 162.11 149.80 161.69 151.13 161.27 C 150.35 159.31 149.54 157.38 148.71 155.45 Z" />
<path fill="#31303b" opacity="1.00" d=" M 102.01 170.11 C 115.25 165.17 127.50 157.68 141.25 154.10 C 132.08 159.73 121.88 163.39 112.35 168.34 C 102.85 173.21 92.85 177.10 83.74 182.70 C 76.73 186.99 69.48 190.93 61.80 193.86 C 66.67 190.26 72.04 187.41 76.91 183.79 C 76.37 183.78 75.31 183.75 74.77 183.74 C 86.18 174.66 99.66 168.82 111.67 160.67 C 114.57 158.78 117.52 156.97 120.59 155.37 C 121.08 155.53 122.05 155.85 122.54 156.02 C 116.01 161.18 108.38 164.73 102.01 170.11 Z" />
<path fill="#283c48" opacity="1.00" d=" M 78.76 176.94 C 82.42 169.37 87.55 162.68 92.68 156.07 C 93.29 156.25 94.50 156.60 95.10 156.78 C 95.76 160.46 98.43 165.75 94.41 168.39 C 89.38 171.55 84.22 174.58 78.76 176.94 Z" />
<path fill="#6a738a" opacity="1.00" d=" M 144.69 157.59 C 146.03 156.87 147.37 156.16 148.71 155.45 C 149.54 157.38 150.35 159.31 151.13 161.27 C 149.80 161.69 148.46 162.11 147.14 162.54 L 146.58 162.72 C 145.96 161.00 145.34 159.29 144.69 157.59 Z" />
<path fill="#fcfdfd" opacity="1.00" d=" M 140.73 159.66 C 142.05 158.97 143.37 158.28 144.69 157.59 C 145.34 159.29 145.96 161.00 146.58 162.72 C 145.42 163.58 144.24 164.40 143.04 165.21 C 142.30 163.35 141.51 161.51 140.73 159.66 Z" />
<path fill="#dde0e2" opacity="1.00" d=" M 138.62 164.46 C 137.83 162.96 137.56 161.36 138.76 159.98 C 140.06 162.35 141.87 164.71 141.79 167.55 C 139.73 168.32 139.36 165.78 138.62 164.46 Z" />
<path fill="#1d2937" opacity="1.00" d=" M 125.02 168.27 C 127.87 165.64 131.55 164.22 135.05 162.69 C 136.05 165.49 138.64 168.66 136.58 171.58 C 134.19 175.65 131.76 179.77 130.73 184.43 C 132.02 185.27 133.32 186.10 134.59 186.99 C 136.57 188.44 138.43 190.05 140.28 191.67 C 132.79 194.82 125.11 197.63 117.11 199.22 C 119.67 193.86 122.71 188.72 126.61 184.22 C 127.97 182.30 129.95 180.49 130.20 178.06 C 128.96 174.55 126.36 171.73 125.02 168.27 Z" />
<path fill="#4e5974" opacity="1.00" d=" M 146.41 165.40 C 153.12 165.40 159.61 168.04 165.35 171.35 C 163.64 174.36 161.78 177.32 160.62 180.60 C 159.44 183.71 160.21 187.06 160.54 190.26 C 160.97 193.55 161.45 196.84 161.97 200.12 C 157.54 195.01 154.96 188.77 152.89 182.41 C 152.75 184.37 152.61 186.34 152.56 188.31 C 150.92 180.57 149.33 172.78 146.41 165.40 Z" />
<path fill="#ffffff" opacity="1.00" d=" M 146.41 165.40 C 149.33 172.78 150.92 180.57 152.56 188.31 C 153.66 194.94 157.70 200.78 157.90 207.60 C 156.61 208.56 155.32 209.54 154.04 210.52 C 152.04 200.36 146.38 190.85 138.13 184.52 C 137.12 183.75 136.09 182.99 135.07 182.24 C 138.37 176.33 142.15 170.67 146.41 165.40 Z" />
<path fill="#000000" opacity="1.00" d=" M 289.92 168.83 C 290.93 169.24 291.94 169.65 292.96 170.07 C 285.28 191.41 269.43 209.82 249.02 219.88 C 250.40 221.15 251.87 222.38 252.86 224.01 C 249.85 226.87 245.66 227.76 241.76 228.71 C 233.03 230.64 224.13 231.65 215.25 232.56 C 192.24 234.75 169.12 235.60 146.01 235.94 C 113.20 236.21 80.33 235.48 47.66 232.23 C 36.61 231.09 25.56 229.48 14.98 226.03 C 9.99 227.33 5.59 230.42 0.42 231.21 C 3.41 227.17 7.65 224.38 11.75 221.60 C 12.16 222.58 12.56 223.56 12.96 224.54 C 15.16 223.18 17.33 221.79 19.44 220.29 C 33.43 212.43 47.00 203.79 61.50 196.85 C 62.01 197.14 63.04 197.73 63.55 198.02 C 52.69 204.42 41.36 210.01 30.74 216.82 C 49.09 214.36 67.56 212.78 86.07 212.02 C 89.52 212.52 90.79 208.93 92.37 206.62 C 85.08 205.70 77.48 204.25 71.65 199.46 C 72.32 199.02 73.67 198.14 74.34 197.70 C 78.24 200.12 82.66 201.54 87.06 202.76 C 90.74 203.12 94.44 202.83 98.07 202.17 C 98.50 202.09 99.37 201.94 99.81 201.86 C 100.10 202.19 100.69 202.85 100.98 203.18 C 100.86 203.86 100.60 205.24 100.48 205.92 C 101.92 207.05 103.36 208.19 104.78 209.35 C 106.26 210.57 107.74 211.81 109.22 213.04 C 110.02 208.59 111.15 204.20 112.61 199.92 C 113.56 198.06 114.60 196.24 115.59 194.40 C 117.92 189.86 120.68 185.54 123.95 181.61 C 124.83 182.48 125.72 183.35 126.61 184.22 C 122.71 188.72 119.67 193.86 117.11 199.22 C 125.11 197.63 132.79 194.82 140.28 191.67 C 138.43 190.05 136.57 188.44 134.59 186.99 C 135.77 186.16 136.95 185.34 138.13 184.52 C 146.38 190.85 152.04 200.36 154.04 210.52 C 155.32 209.54 156.61 208.56 157.90 207.60 C 160.35 208.53 162.76 209.52 165.17 210.55 C 164.03 207.09 162.98 203.61 161.97 200.12 C 161.45 196.84 160.97 193.55 160.54 190.26 C 160.99 187.05 160.46 181.51 165.06 181.61 C 175.03 180.20 184.85 176.72 195.05 177.87 C 204.37 178.43 212.42 183.71 219.79 188.98 C 221.25 190.08 222.68 191.23 224.08 192.40 C 226.90 194.78 229.65 197.39 233.11 198.82 C 237.51 200.66 242.32 201.01 247.02 201.28 C 247.36 201.76 248.05 202.72 248.39 203.20 C 244.80 210.55 238.54 215.96 233.63 222.36 C 244.33 218.28 254.13 212.09 263.28 205.27 C 275.30 195.92 285.13 183.40 289.92 168.83 M 168.19 185.21 C 166.85 185.77 164.45 186.00 164.79 188.02 C 165.05 196.06 166.75 204.02 169.56 211.56 C 190.82 212.42 212.11 213.57 233.19 216.58 C 236.84 212.70 240.35 208.67 243.45 204.33 C 237.99 203.51 232.18 202.77 227.62 199.36 C 218.90 192.90 210.64 185.00 199.86 182.19 C 189.29 179.78 178.37 182.18 168.19 185.21 M 125.78 200.75 C 122.29 202.04 118.43 202.43 115.18 204.31 C 114.09 206.36 113.66 208.68 113.05 210.91 C 125.66 211.17 138.28 210.99 150.89 210.97 C 148.73 205.43 146.95 199.39 142.88 194.92 C 137.03 196.40 131.57 199.07 125.78 200.75 M 95.50 207.22 C 94.21 209.83 92.88 212.42 91.54 215.01 L 90.82 214.76 C 90.91 215.19 91.09 216.06 91.17 216.49 C 98.35 217.02 104.26 221.45 111.12 223.10 C 109.13 217.69 105.15 213.40 100.86 209.68 C 99.07 208.87 97.29 208.04 95.50 207.22 M 157.79 210.02 C 156.23 212.70 154.35 215.24 153.31 218.18 C 149.97 219.99 148.63 224.60 151.50 227.46 C 152.28 226.76 153.06 226.06 153.84 225.36 C 153.99 226.06 154.14 226.76 154.29 227.46 C 156.87 228.23 159.49 228.89 162.08 229.64 C 162.65 229.52 163.78 229.29 164.35 229.18 C 166.21 228.35 168.05 227.49 169.89 226.60 C 170.59 225.31 171.31 224.03 172.03 222.76 C 169.62 218.66 166.35 215.13 162.30 212.62 C 160.79 211.75 159.29 210.89 157.79 210.02 M 89.94 226.53 C 94.84 226.40 99.71 225.74 104.56 225.13 C 102.71 223.08 100.69 220.99 97.95 220.21 C 95.04 221.99 92.58 224.39 89.94 226.53 Z" />
<path fill="#323a51" opacity="1.00" d=" M 121.17 169.59 C 123.70 172.24 126.31 175.50 125.33 179.43 C 123.62 178.25 121.75 177.18 120.47 175.51 C 119.90 173.54 120.86 171.52 121.17 169.59 Z" />
<path fill="#303951" opacity="1.00" d=" M 111.05 174.22 C 113.02 173.55 115.00 172.88 116.99 172.24 C 118.78 175.72 121.08 178.93 123.95 181.61 C 120.68 185.54 117.92 189.86 115.59 194.40 C 115.53 187.41 114.72 180.34 111.05 174.22 Z" />
<path fill="#2d364c" opacity="1.00" d=" M 99.98 179.55 C 102.69 178.41 105.41 177.27 108.17 176.23 C 106.64 179.39 104.85 182.42 102.90 185.34 C 101.90 183.42 100.92 181.49 99.98 179.55 Z" />
<path fill="#fefefe" opacity="1.00" d=" M 102.93 191.64 C 104.84 187.31 107.49 183.27 110.82 179.89 L 111.18 180.64 C 108.77 190.15 107.83 200.01 104.78 209.35 C 103.36 208.19 101.92 207.05 100.48 205.92 C 100.60 205.24 100.86 203.86 100.98 203.18 C 101.69 199.34 101.91 195.41 102.93 191.64 Z" />
<path fill="#555f7a" opacity="1.00" d=" M 111.18 180.64 C 115.07 186.38 112.50 193.52 112.61 199.92 C 111.15 204.20 110.02 208.59 109.22 213.04 C 107.74 211.81 106.26 210.57 104.78 209.35 C 107.83 200.01 108.77 190.15 111.18 180.64 Z" />
<path fill="#283c48" opacity="1.00" d=" M 71.61 194.87 C 80.23 190.32 88.48 184.80 97.82 181.83 L 98.21 182.61 C 94.86 189.49 93.55 197.94 87.06 202.76 C 82.66 201.54 78.24 200.12 74.34 197.70 C 73.40 196.78 72.51 195.82 71.61 194.87 Z" />
<path fill="#1a2433" opacity="1.00" d=" M 98.21 182.61 C 101.12 188.84 98.58 195.72 98.07 202.17 C 94.44 202.83 90.74 203.12 87.06 202.76 C 93.55 197.94 94.86 189.49 98.21 182.61 Z" />
<path fill="#6b758b" opacity="1.00" d=" M 152.89 182.41 C 154.96 188.77 157.54 195.01 161.97 200.12 C 162.98 203.61 164.03 207.09 165.17 210.55 C 162.76 209.52 160.35 208.53 157.90 207.60 C 157.70 200.78 153.66 194.94 152.56 188.31 C 152.61 186.34 152.75 184.37 152.89 182.41 Z" />
<path fill="#585768" opacity="1.00" d=" M 95.50 207.22 C 97.29 208.04 99.07 208.87 100.86 209.68 C 98.63 211.73 96.67 214.16 94.05 215.74 C 93.19 215.54 92.36 215.30 91.54 215.01 C 92.88 212.42 94.21 209.83 95.50 207.22 Z" />
<path fill="#24242b" opacity="1.00" d=" M 100.86 209.68 C 105.15 213.40 109.13 217.69 111.12 223.10 C 104.26 221.45 98.35 217.02 91.17 216.49 C 91.09 216.06 90.91 215.19 90.82 214.76 L 91.54 215.01 C 92.36 215.30 93.19 215.54 94.05 215.74 C 96.67 214.16 98.63 211.73 100.86 209.68 Z" />
<path fill="#565566" opacity="1.00" d=" M 157.79 210.02 C 159.29 210.89 160.79 211.75 162.30 212.62 C 159.18 214.86 156.21 217.28 153.32 219.79 C 153.32 219.39 153.31 218.58 153.31 218.18 C 154.35 215.24 156.23 212.70 157.79 210.02 Z" />
<path fill="#0a0a0d" opacity="1.00" d=" M 162.30 212.62 C 166.35 215.13 169.62 218.66 172.03 222.76 C 171.31 224.03 170.59 225.31 169.89 226.60 C 167.96 223.79 165.80 221.14 163.25 218.86 C 162.50 218.18 161.74 217.50 160.97 216.83 C 160.59 216.95 159.83 217.18 159.45 217.29 C 157.32 220.46 155.54 223.85 154.29 227.46 C 154.14 226.76 153.99 226.06 153.84 225.36 C 153.06 226.06 152.28 226.76 151.50 227.46 C 148.63 224.60 149.97 219.99 153.31 218.18 C 153.31 218.58 153.32 219.39 153.32 219.79 C 156.21 217.28 159.18 214.86 162.30 212.62 Z" />
<path fill="#8e94a1" opacity="1.00" d=" M 159.45 217.29 C 159.83 217.18 160.59 216.95 160.97 216.83 C 161.74 217.50 162.50 218.18 163.25 218.86 C 163.86 222.27 164.43 225.71 164.35 229.18 C 163.78 229.29 162.65 229.52 162.08 229.64 C 161.44 225.48 160.77 221.30 159.45 217.29 Z" />
<path fill="#fdfdfd" opacity="1.00" d=" M 159.45 217.29 C 160.77 221.30 161.44 225.48 162.08 229.64 C 159.49 228.89 156.87 228.23 154.29 227.46 C 155.54 223.85 157.32 220.46 159.45 217.29 Z" />
<path fill="#6d768d" opacity="1.00" d=" M 163.25 218.86 C 165.80 221.14 167.96 223.79 169.89 226.60 C 168.05 227.49 166.21 228.35 164.35 229.18 C 164.43 225.71 163.86 222.27 163.25 218.86 Z" />
<path fill="#fefefe" opacity="1.00" d=" M 89.94 226.53 C 92.58 224.39 95.04 221.99 97.95 220.21 C 100.69 220.99 102.71 223.08 104.56 225.13 C 99.71 225.74 94.84 226.40 89.94 226.53 Z" />
</svg>
