<?xml version="1.0" encoding="UTF-8" ?>
<!DOCTYPE svg PUBLIC "-//W3C//DTD SVG 1.1//EN" "http://www.w3.org/Graphics/SVG/1.1/DTD/svg11.dtd">
<svg width="438pt" height="277pt" viewBox="0 0 438 277" version="1.1" xmlns="http://www.w3.org/2000/svg">
<path fill="#000000" opacity="1.00" d=" M 432.55 5.17 C 433.38 3.08 434.39 -0.75 437.46 0.67 C 437.90 3.73 437.66 6.84 437.18 9.88 C 435.05 22.69 431.83 35.43 426.16 47.17 C 423.87 52.20 421.03 57.00 419.28 62.25 C 417.98 65.89 419.23 69.82 418.34 73.49 C 415.37 79.50 407.04 81.10 405.32 87.92 C 409.85 88.05 414.56 87.23 418.96 88.67 C 422.30 89.96 421.91 94.17 422.17 97.08 C 422.03 102.41 422.62 108.27 419.52 112.93 C 424.35 115.76 429.11 118.95 432.74 123.27 C 434.20 125.06 435.68 127.78 433.96 129.90 C 430.16 135.21 425.61 139.95 422.16 145.52 C 419.77 144.89 417.40 144.24 415.03 143.59 C 414.29 144.59 413.57 145.59 412.84 146.60 C 416.28 147.91 419.91 148.94 422.96 151.09 C 424.27 151.91 424.41 153.58 424.09 154.96 C 423.17 160.43 420.92 165.60 417.99 170.28 C 414.27 169.47 410.55 168.70 406.82 167.95 C 406.58 168.79 406.35 169.63 406.12 170.47 C 408.67 171.85 411.98 172.69 413.43 175.42 C 414.25 178.90 412.98 182.46 411.91 185.76 C 410.94 188.21 409.96 191.50 406.91 191.95 C 401.01 193.09 394.97 194.04 388.93 193.77 C 386.33 193.72 384.63 191.45 382.66 190.08 C 383.60 196.62 387.09 202.29 390.05 208.06 C 391.05 209.94 391.74 213.29 389.06 214.09 C 386.31 215.59 382.17 215.48 380.74 218.71 C 377.15 229.25 380.35 241.65 373.95 251.29 C 369.99 247.22 370.98 241.11 371.08 235.96 C 371.41 225.58 373.88 215.41 374.41 205.08 C 372.86 202.26 369.96 200.55 368.19 197.91 C 367.48 195.53 369.65 193.68 370.61 191.73 C 362.04 186.27 350.75 191.46 342.33 185.71 C 335.94 181.81 328.89 178.83 323.39 173.63 C 322.03 172.58 320.61 170.78 318.70 171.73 C 307.35 175.02 295.82 177.63 284.32 180.28 C 279.58 181.29 274.86 182.66 269.99 182.85 C 268.41 183.09 267.24 181.84 266.02 181.11 C 270.15 176.27 276.18 173.75 281.70 170.86 C 290.93 166.78 300.48 163.41 309.47 158.76 C 306.93 155.93 303.99 153.20 302.74 149.51 C 301.84 146.38 301.58 143.12 301.16 139.90 C 294.87 136.94 288.11 134.74 282.46 130.61 C 279.44 128.79 281.53 124.99 281.48 122.25 C 281.04 122.48 280.16 122.93 279.72 123.15 C 276.46 129.50 270.47 133.68 265.50 138.58 C 263.63 140.61 260.88 141.11 258.31 141.62 C 256.19 145.60 254.77 149.88 253.01 154.02 C 252.11 156.55 249.26 157.26 247.15 158.49 C 246.12 161.38 245.01 164.25 243.73 167.05 C 245.25 167.48 247.55 166.87 248.27 168.71 C 250.13 171.43 250.00 174.95 247.85 177.47 C 250.96 176.79 254.82 174.88 257.70 176.47 C 259.98 181.21 259.04 186.88 258.60 191.96 C 264.59 197.77 270.60 203.67 275.22 210.67 C 278.32 215.25 280.66 220.28 283.09 225.24 C 283.40 221.14 283.23 216.93 284.56 212.99 C 287.69 214.50 290.53 216.56 292.91 219.09 C 299.09 225.60 305.24 232.22 310.14 239.78 C 316.10 248.65 319.99 258.66 324.11 268.46 C 344.76 267.49 365.41 269.36 386.02 270.48 C 389.02 270.57 392.03 270.98 394.86 272.04 C 393.92 272.55 392.93 272.92 391.90 273.14 C 369.86 274.39 347.77 274.16 325.70 274.29 C 325.76 274.96 325.89 276.32 325.95 277.00 L 325.26 277.00 C 324.12 276.21 323.17 275.14 321.91 274.57 C 309.34 272.88 296.65 272.61 284.00 271.84 C 254.99 271.84 225.97 271.94 196.95 271.81 C 193.18 271.92 189.71 270.12 185.98 269.87 C 174.69 268.79 163.42 267.05 152.04 267.57 C 135.38 268.74 118.67 268.10 101.99 268.22 C 99.94 268.09 97.09 268.65 96.56 265.96 C 103.37 264.70 110.30 264.48 117.17 263.76 C 127.44 263.07 137.69 261.93 147.99 261.84 C 150.34 261.71 153.30 261.90 154.78 259.66 C 160.22 252.54 164.03 244.25 166.59 235.70 C 162.67 237.58 158.94 239.82 155.29 242.18 C 153.47 243.45 151.23 244.07 149.02 243.82 C 147.16 243.45 147.35 241.50 147.43 240.05 C 147.87 235.21 150.44 230.97 152.93 226.94 C 160.31 215.56 170.90 206.88 180.23 197.21 C 180.47 194.19 180.80 191.18 181.27 188.18 C 187.42 189.71 193.96 188.55 199.10 184.78 C 197.50 183.92 195.25 183.84 194.28 182.09 C 194.23 178.40 197.48 175.90 199.55 173.20 C 191.11 169.93 182.19 167.39 174.63 162.25 C 171.76 162.52 168.91 162.06 166.14 161.33 C 166.05 165.58 166.66 170.12 164.85 174.10 C 164.36 174.25 163.39 174.55 162.90 174.70 C 158.96 169.96 162.57 161.76 156.91 158.15 C 150.99 154.80 143.71 152.97 139.80 146.93 C 138.82 152.28 136.85 157.44 136.41 162.89 C 136.19 164.40 136.15 166.00 135.45 167.40 C 131.41 168.52 127.16 168.07 123.05 167.79 C 127.76 175.31 131.65 184.04 130.65 193.12 C 130.71 194.74 129.34 195.72 128.32 196.75 C 128.75 197.84 129.36 198.89 129.47 200.09 C 128.49 201.56 127.13 202.72 125.85 203.93 C 126.91 208.94 128.71 213.88 128.59 219.05 C 128.68 221.38 126.62 224.29 124.04 223.14 C 120.95 221.33 120.27 217.42 119.81 214.17 C 119.02 209.31 119.80 204.23 118.42 199.48 C 116.28 197.89 113.91 196.62 111.73 195.08 C 109.30 203.33 102.24 208.60 96.63 214.64 C 91.53 219.55 86.65 224.84 80.58 228.59 C 77.76 230.42 74.28 230.66 71.02 230.24 C 61.39 229.10 51.90 227.03 42.41 225.10 C 40.46 227.52 38.01 229.88 37.55 233.11 C 36.55 240.87 36.66 248.72 36.16 256.52 C 36.00 260.29 33.34 263.71 29.42 263.88 C 28.21 252.95 27.83 241.92 27.51 230.92 C 21.81 231.39 16.41 233.31 10.85 234.46 C 8.91 235.00 7.35 232.81 7.58 231.03 C 7.53 224.72 9.06 218.52 10.59 212.44 C 6.85 209.21 1.74 206.83 0.00 201.88 L 0.00 201.34 C 1.00 197.10 4.53 194.30 8.06 192.14 C 6.41 185.88 11.36 180.98 14.51 176.20 C 13.78 172.15 12.44 168.12 12.62 163.97 C 14.14 160.31 17.50 157.89 20.29 155.24 C 34.90 142.59 51.35 131.84 69.34 124.66 C 78.44 129.03 87.37 133.81 95.87 139.28 C 98.48 136.19 100.62 132.34 104.29 130.39 C 108.32 129.65 112.33 131.11 116.13 132.29 C 114.82 130.25 113.18 128.31 112.61 125.90 C 115.80 121.04 121.23 118.24 125.91 115.01 C 122.10 108.73 119.35 101.90 116.60 95.12 C 114.20 89.03 111.84 82.90 110.41 76.50 C 113.52 77.53 116.35 79.17 119.01 81.04 C 126.56 86.19 134.61 90.54 142.24 95.55 C 140.57 88.53 142.90 81.07 147.84 75.91 C 154.81 68.17 165.76 65.25 175.88 66.42 C 176.76 63.50 176.64 59.57 179.45 57.73 C 183.88 56.47 188.55 57.43 193.04 57.89 C 193.41 58.32 194.15 59.20 194.52 59.64 C 201.17 57.81 208.07 56.07 215.02 56.73 C 222.16 57.75 229.06 59.98 235.88 62.23 C 239.35 58.16 244.82 60.26 248.87 62.18 C 255.41 54.30 262.67 47.08 270.02 39.97 C 279.18 31.57 288.36 22.78 299.66 17.31 C 300.08 29.61 295.43 41.19 291.76 52.69 C 290.77 55.51 290.00 58.63 287.68 60.68 C 285.07 63.09 282.16 65.15 279.40 67.38 C 282.83 68.60 287.66 68.81 289.25 72.70 C 291.78 78.91 294.48 85.07 296.61 91.43 C 306.21 94.19 316.07 96.18 325.37 99.85 C 325.85 97.89 326.17 95.87 327.00 94.02 C 328.06 91.99 330.39 91.20 332.48 90.70 C 339.43 89.20 346.62 89.47 353.64 90.38 C 352.09 88.81 349.19 87.73 349.29 85.12 C 350.87 82.31 354.61 81.88 357.20 80.31 C 354.01 74.22 349.36 69.12 345.33 63.61 C 342.03 59.12 338.36 54.58 337.32 48.95 C 338.03 48.49 339.44 47.56 340.15 47.10 C 344.90 49.59 346.93 54.81 350.46 58.56 C 356.54 65.15 363.03 71.37 369.84 77.20 C 371.02 78.15 372.08 79.34 371.27 80.94 C 368.93 82.67 366.36 84.07 364.05 85.84 C 366.07 87.82 368.36 89.51 370.88 90.81 C 371.77 89.10 372.55 86.74 374.93 86.86 C 378.53 87.40 381.47 89.70 384.34 91.75 C 386.05 91.28 387.76 90.81 389.48 90.35 C 390.29 88.90 391.13 87.46 391.76 85.91 C 391.14 82.46 386.45 81.83 385.40 78.60 C 384.96 75.86 387.27 73.76 388.88 71.86 C 395.77 64.74 402.95 57.88 409.21 50.18 C 419.64 36.79 427.88 21.53 432.55 5.17 M 406.16 57.93 C 402.13 62.05 397.99 66.10 394.20 70.44 L 393.94 70.47 C 391.51 72.69 389.32 75.18 387.58 77.97 C 390.06 79.92 392.97 81.54 394.47 84.46 C 394.06 86.26 393.56 88.03 392.98 89.77 C 396.35 89.08 399.77 88.70 403.20 88.36 C 402.70 85.11 405.02 82.97 406.75 80.63 C 409.25 78.84 411.76 77.04 414.02 74.94 C 418.00 71.58 415.29 65.78 416.52 61.32 L 416.68 62.03 C 418.59 56.03 422.23 50.77 424.06 44.76 C 428.36 37.51 430.30 29.07 432.46 20.98 C 433.73 14.95 435.57 8.98 435.78 2.78 C 430.20 23.07 420.20 42.20 406.16 57.93 M 275.88 38.25 C 265.76 46.73 256.87 56.60 248.15 66.50 C 248.24 67.14 248.43 68.44 248.53 69.08 C 247.54 69.65 246.53 70.18 245.50 70.66 C 240.89 82.37 236.06 94.01 232.05 105.96 C 230.36 110.86 235.21 113.48 237.92 116.57 C 238.72 119.68 239.39 122.85 239.44 126.08 C 240.36 125.89 241.28 125.71 242.20 125.53 C 243.48 121.25 245.37 117.18 247.31 113.16 C 246.80 111.82 246.28 110.50 245.74 109.17 C 248.19 110.68 250.22 112.73 251.92 115.03 C 253.02 116.87 254.23 118.65 255.50 120.38 C 260.34 120.43 265.18 120.26 270.02 120.15 C 274.80 120.00 279.71 120.60 284.35 119.08 C 284.46 122.07 283.96 125.04 283.92 128.03 C 289.07 131.90 295.25 134.03 300.99 136.86 C 301.04 135.68 301.10 134.49 301.16 133.31 C 301.37 131.47 301.61 129.64 301.80 127.81 C 303.72 117.63 311.15 109.67 319.77 104.47 C 319.72 103.62 319.63 101.94 319.58 101.09 C 317.78 100.65 315.97 100.21 314.17 99.77 L 313.46 100.08 C 310.79 99.02 308.04 98.18 305.25 97.55 L 304.99 97.65 C 302.00 96.89 299.04 96.04 296.12 95.09 C 293.47 97.01 290.08 97.64 287.57 99.69 C 287.55 99.20 287.50 98.21 287.47 97.72 C 289.48 95.87 291.96 94.61 294.10 92.92 C 291.62 85.83 288.84 78.79 285.40 72.10 C 282.32 71.29 279.23 70.49 276.10 69.91 C 273.03 69.40 269.99 68.82 266.92 68.35 C 266.08 68.34 264.39 68.30 263.55 68.28 C 264.04 67.27 264.59 66.28 265.54 65.61 L 265.27 66.14 C 268.21 66.56 271.18 66.73 274.15 66.74 C 274.63 66.82 275.59 66.97 276.07 67.05 C 279.14 63.75 282.91 61.24 286.16 58.15 C 288.48 55.11 289.07 51.16 290.34 47.62 L 290.72 47.33 C 291.53 44.31 292.45 41.32 293.46 38.37 C 293.83 36.75 294.94 34.93 293.79 33.35 C 297.02 30.11 296.13 24.87 297.29 20.76 C 289.90 26.24 282.27 31.66 275.88 38.25 M 338.96 49.24 C 343.32 59.72 352.21 67.39 357.95 77.05 C 358.95 78.67 359.73 81.45 357.62 82.54 C 355.46 83.68 353.15 84.50 351.05 85.75 C 354.41 88.36 357.69 91.24 361.75 92.71 C 362.38 95.35 362.77 98.05 363.15 100.74 C 363.37 103.13 363.56 105.52 363.73 107.92 C 363.73 111.92 363.64 115.91 363.53 119.91 C 363.40 123.77 362.54 127.56 362.49 131.43 L 362.27 130.84 C 361.62 134.59 361.42 138.46 360.06 142.05 C 354.84 140.87 349.62 139.47 344.99 136.70 C 344.28 136.82 342.86 137.04 342.15 137.16 L 342.25 137.61 C 341.51 137.89 340.05 138.46 339.32 138.75 C 338.64 139.49 337.96 140.22 337.27 140.95 C 338.03 143.48 340.39 144.57 342.37 146.01 C 340.61 148.36 337.53 148.80 334.99 149.90 C 328.19 152.55 321.42 155.44 315.08 159.04 C 311.02 160.76 306.89 162.52 303.20 164.93 C 291.89 169.67 279.84 173.28 269.77 180.49 C 276.60 179.80 283.18 177.68 289.90 176.33 C 298.90 174.00 308.25 172.59 316.82 168.88 C 320.73 168.78 324.35 167.16 327.97 165.85 C 335.10 162.94 342.19 159.97 349.53 157.61 C 350.65 157.59 351.75 157.45 352.86 157.24 C 352.82 157.81 352.74 158.95 352.70 159.52 C 350.70 161.41 348.79 163.44 347.54 165.92 C 353.30 164.83 358.49 161.99 364.04 160.23 C 364.59 160.77 365.69 161.84 366.24 162.38 C 366.04 163.87 366.22 165.38 366.25 166.88 C 370.68 165.22 375.20 163.08 380.04 163.35 C 388.39 164.39 396.22 167.76 404.44 169.41 C 404.19 168.91 403.69 167.92 403.44 167.43 C 399.06 165.98 394.25 166.06 389.99 164.23 C 386.72 161.89 385.47 157.86 383.39 154.59 C 381.83 151.70 379.46 149.21 378.51 146.02 C 379.42 142.04 384.07 141.27 387.44 140.57 C 390.92 140.18 394.80 139.08 398.04 140.95 C 401.25 142.80 404.80 143.89 408.33 144.97 L 409.03 143.81 C 411.27 146.13 413.77 141.38 410.17 142.15 C 400.81 139.63 391.36 137.23 382.42 133.45 C 377.65 131.81 377.16 126.17 375.39 122.17 C 375.06 121.15 374.71 120.14 374.34 119.14 C 373.92 116.72 373.79 114.27 373.84 111.82 C 375.89 111.19 377.95 110.60 380.02 110.04 C 378.18 108.54 376.30 107.08 374.36 105.70 C 374.23 105.13 373.97 103.98 373.84 103.41 C 376.00 100.95 378.12 98.47 380.20 95.95 C 381.06 95.00 381.92 94.05 382.79 93.10 C 379.99 91.58 377.22 89.74 373.96 89.42 C 373.76 90.18 373.38 91.69 373.18 92.45 C 370.99 92.63 368.64 92.69 366.84 91.21 C 364.84 89.75 361.98 87.94 362.36 85.08 C 363.59 82.29 366.83 81.34 369.27 79.89 C 360.23 71.51 350.71 63.35 343.86 52.99 C 342.61 51.34 341.26 49.34 338.96 49.24 M 180.31 60.25 C 179.31 62.85 179.05 65.63 179.39 68.39 C 181.54 68.60 182.53 70.76 183.87 72.15 C 185.91 71.70 187.91 71.10 189.87 70.39 C 189.33 68.87 188.80 67.35 188.27 65.83 C 189.78 64.17 192.18 62.80 191.99 60.23 C 188.10 60.06 184.20 59.86 180.31 60.25 M 202.76 60.50 C 201.98 60.69 200.42 61.07 199.63 61.25 L 199.15 62.51 L 198.74 61.09 C 195.69 62.01 193.65 64.50 191.36 66.54 C 191.64 68.45 193.05 70.77 191.37 72.41 C 189.62 73.87 187.16 73.86 185.04 74.42 C 186.68 81.04 186.01 88.29 182.78 94.34 C 180.75 96.45 178.91 98.73 177.00 100.94 C 173.00 103.17 169.08 105.68 164.49 106.56 C 164.30 107.72 164.11 108.87 163.92 110.03 C 162.23 114.30 161.47 118.85 160.53 123.33 C 162.69 125.62 166.27 126.86 167.31 130.00 C 165.85 133.77 162.36 136.12 159.61 138.90 C 160.52 143.19 161.43 147.59 163.77 151.38 C 165.24 153.54 166.75 155.84 166.66 158.57 C 169.15 159.56 171.82 160.45 174.52 159.79 C 179.57 158.79 184.95 158.98 189.73 156.97 C 198.67 156.80 207.24 153.91 215.94 152.22 C 217.28 151.91 218.58 152.03 219.84 152.59 C 218.58 153.30 217.29 153.96 216.16 154.86 C 203.75 157.58 191.31 160.23 178.70 161.91 C 180.39 163.22 182.33 164.26 184.45 164.65 C 188.21 166.30 192.08 167.68 195.88 169.24 L 196.22 169.07 C 198.64 170.38 201.15 171.52 203.73 172.49 C 205.07 176.54 204.27 180.74 202.46 184.49 C 197.88 189.72 190.06 193.52 183.23 190.64 C 183.03 193.60 182.79 196.57 182.48 199.53 C 181.33 200.25 180.20 200.99 179.11 201.79 C 170.75 210.55 161.31 218.49 154.79 228.83 C 152.42 232.78 150.03 236.92 149.60 241.60 C 152.65 241.08 155.54 239.90 157.90 237.86 C 162.43 234.03 167.86 231.58 173.26 229.27 L 173.46 228.93 C 178.93 227.25 184.22 224.89 189.25 222.18 C 191.45 219.40 192.66 215.71 195.76 213.74 C 199.22 211.81 203.24 211.28 207.10 210.76 C 213.47 210.17 219.95 209.77 226.29 210.73 C 232.24 215.38 237.38 221.00 243.33 225.68 C 252.08 232.73 260.76 239.91 269.88 246.49 L 269.87 246.75 C 273.75 248.15 277.29 250.27 280.92 252.20 C 283.37 245.39 284.71 237.70 282.33 230.69 C 278.64 221.33 274.00 212.20 267.34 204.59 C 263.73 200.61 260.19 196.54 256.16 192.99 C 256.23 191.21 256.32 189.43 256.43 187.66 C 256.01 184.44 257.55 180.09 254.91 177.69 L 254.79 178.25 C 249.73 179.56 244.70 181.02 239.72 182.62 C 237.44 183.23 235.96 185.16 234.27 186.66 C 232.86 185.09 230.73 185.19 228.89 185.81 C 228.05 191.18 222.06 194.31 217.00 193.32 C 214.57 192.87 212.01 194.05 210.32 195.69 C 207.09 196.69 203.89 199.86 200.41 198.57 C 199.59 194.46 204.15 192.19 206.38 189.47 C 210.87 185.96 216.19 183.78 221.61 182.15 C 222.96 181.68 224.32 181.21 225.68 180.74 L 225.70 180.31 C 227.69 179.53 229.21 177.71 229.31 175.53 C 232.70 172.06 238.07 170.96 240.66 166.74 C 241.76 164.61 242.79 162.43 243.37 160.09 C 240.06 161.65 236.20 162.49 233.30 164.67 C 228.44 165.88 224.00 168.26 219.27 169.85 C 219.30 168.52 220.06 167.56 221.30 167.13 C 230.09 162.68 239.35 159.26 248.36 155.30 C 251.51 154.29 251.63 150.54 252.36 147.86 C 253.94 146.24 254.10 143.76 254.84 141.71 C 251.82 141.73 248.80 141.76 245.79 141.68 L 245.46 142.05 C 243.85 141.77 242.24 141.61 240.62 141.57 C 236.57 139.23 234.10 135.11 230.98 131.77 C 226.64 125.80 223.51 119.05 221.36 112.00 C 221.02 110.63 220.67 109.27 220.30 107.91 C 219.64 103.42 218.58 98.95 217.58 94.51 C 216.63 90.79 217.17 86.96 219.46 83.83 C 221.55 82.16 223.06 79.88 225.20 78.27 C 227.81 76.14 231.01 74.84 233.46 72.52 C 234.91 70.55 235.01 67.96 235.68 65.68 C 233.03 64.16 230.09 63.26 227.14 62.51 C 223.14 61.25 219.06 60.26 214.91 59.60 C 210.84 59.01 206.78 59.95 202.76 60.50 M 239.00 62.64 C 237.35 67.06 237.72 72.16 234.36 75.84 C 228.25 78.50 222.59 82.87 219.70 89.01 C 219.37 92.31 220.74 95.52 221.21 98.77 C 222.00 102.99 222.84 107.21 223.99 111.35 C 225.58 116.72 227.78 121.92 230.77 126.66 C 233.62 130.83 236.64 134.97 240.12 138.62 C 243.51 138.91 246.91 138.81 250.31 138.96 C 253.25 138.96 256.22 138.55 259.12 139.30 C 262.33 137.57 265.07 135.12 267.52 132.43 C 270.80 129.76 274.47 126.94 276.21 122.97 C 268.42 122.93 260.48 124.17 252.80 122.69 C 252.06 123.49 251.32 124.29 250.58 125.09 C 249.40 125.67 248.22 126.26 247.06 126.87 C 243.76 127.46 238.92 129.87 237.15 125.55 C 237.69 121.30 235.64 117.22 232.38 114.59 C 230.29 113.01 229.12 110.68 229.06 108.07 C 229.88 104.10 231.05 100.21 232.43 96.40 C 236.72 86.67 240.29 76.61 244.40 66.80 C 245.45 66.11 246.41 65.30 247.31 64.41 C 246.14 63.67 244.97 62.94 243.81 62.21 C 242.20 62.37 240.60 62.50 239.00 62.64 M 165.06 69.46 C 163.99 69.80 162.94 70.17 161.90 70.58 C 158.29 71.46 155.16 73.56 152.13 75.62 L 153.29 76.03 L 152.46 75.74 C 146.23 80.44 142.24 89.53 146.10 96.90 C 148.09 101.16 152.51 103.36 156.79 104.63 C 157.42 104.59 158.69 104.50 159.32 104.46 L 158.97 105.14 C 159.04 105.31 159.18 105.65 159.24 105.82 C 156.10 112.60 152.15 119.28 151.36 126.86 C 151.64 127.33 152.20 128.29 152.49 128.77 C 155.12 129.51 156.53 131.62 155.59 134.30 C 153.56 137.83 150.36 141.52 151.55 145.90 C 152.91 151.68 158.62 154.77 161.02 159.98 C 162.86 163.07 162.79 166.75 163.46 170.17 C 163.96 165.68 163.90 161.15 164.17 156.65 C 163.00 154.51 161.74 152.42 160.48 150.33 C 160.33 149.51 159.88 148.80 159.47 148.10 C 158.52 144.49 156.64 140.76 157.89 137.00 C 160.80 135.36 162.67 132.50 164.78 130.00 C 162.58 128.11 159.79 126.63 158.48 123.93 C 158.47 120.75 159.34 117.64 159.33 114.46 C 159.55 113.88 159.72 113.30 159.85 112.70 C 161.62 110.24 162.11 107.20 163.00 104.37 C 164.69 103.80 166.64 103.68 168.09 102.58 C 174.83 100.42 180.62 94.80 182.64 87.98 C 183.27 83.51 184.99 78.26 181.67 74.41 C 178.10 68.99 170.86 68.65 165.06 69.46 M 114.29 81.05 C 115.00 83.79 115.90 86.50 117.03 89.10 C 117.54 90.36 118.00 91.64 118.67 92.83 C 119.52 95.27 120.46 97.74 122.03 99.84 C 122.88 105.01 126.11 109.28 128.11 114.02 C 128.62 114.83 128.13 115.73 128.02 116.58 C 123.90 119.78 119.60 122.76 115.67 126.20 C 117.12 128.54 118.73 130.78 120.45 132.93 C 122.15 134.90 124.50 136.08 126.77 137.26 C 126.60 137.86 126.28 139.04 126.11 139.63 C 125.56 139.20 124.46 138.33 123.91 137.89 C 117.42 136.36 111.15 132.11 104.30 133.42 C 102.47 135.63 100.50 137.73 98.58 139.86 C 100.12 140.80 101.65 141.76 103.12 142.80 C 100.64 142.50 98.20 142.01 95.77 141.48 C 95.18 141.35 94.60 141.21 94.02 141.09 C 86.14 136.33 77.56 132.73 70.11 127.29 C 68.31 128.02 66.50 128.72 64.67 129.38 L 64.58 129.73 C 50.70 135.78 37.89 144.27 26.22 153.89 C 22.16 156.81 18.61 160.37 15.22 164.04 C 15.32 167.58 16.04 171.06 16.67 174.54 C 17.86 173.73 19.04 172.92 20.20 172.09 C 24.83 172.35 28.88 174.81 32.52 177.48 C 39.07 183.03 43.16 190.80 45.78 198.85 L 45.66 199.04 C 47.95 203.61 44.21 207.37 42.12 211.08 C 41.29 214.00 39.84 216.77 39.16 219.71 C 40.42 221.56 42.62 222.19 44.71 222.55 C 54.14 224.30 63.52 226.42 73.07 227.41 C 76.72 227.94 79.92 225.78 82.64 223.64 C 86.33 220.65 89.94 217.50 93.06 213.90 C 95.62 211.86 97.84 209.44 100.25 207.23 C 103.89 203.97 104.65 198.61 104.29 193.98 C 102.86 192.89 100.98 192.62 99.47 191.66 C 97.38 188.98 95.84 185.42 92.19 184.59 C 89.76 184.80 87.32 184.88 84.89 184.91 C 83.68 184.70 82.48 184.52 81.27 184.39 C 84.02 182.71 86.63 180.79 89.51 179.33 C 88.28 175.59 88.75 171.67 90.29 168.11 C 94.23 162.63 99.44 157.24 106.42 156.13 C 107.89 157.36 109.57 158.31 111.22 159.28 C 111.12 158.50 110.91 156.96 110.81 156.18 C 106.63 151.61 101.01 148.53 97.24 143.55 C 102.75 145.59 107.33 149.48 111.75 153.23 C 113.64 154.58 113.66 157.00 114.06 159.06 L 114.72 157.61 C 117.29 159.75 119.41 162.37 121.17 165.21 C 125.16 164.99 129.85 166.01 133.40 164.63 C 133.61 156.73 137.90 149.75 138.45 141.89 C 136.97 139.53 135.51 137.15 134.05 134.78 C 135.00 134.62 135.95 134.47 136.91 134.32 C 136.66 128.39 135.03 122.06 137.53 116.41 L 138.31 117.57 C 139.27 123.98 138.79 130.57 140.15 136.92 C 140.74 140.56 141.57 144.31 143.65 147.42 C 145.92 149.90 149.14 151.18 152.02 152.79 C 150.57 150.03 148.75 147.24 148.76 144.00 C 148.70 139.67 151.61 136.17 153.74 132.66 C 152.70 131.87 151.65 131.09 150.64 130.27 C 147.10 128.15 149.97 123.71 149.79 120.54 C 150.88 118.78 151.62 116.82 152.20 114.84 C 153.46 112.13 154.79 109.42 156.63 107.04 C 154.28 106.42 151.99 105.62 149.71 104.81 C 146.63 102.77 144.68 99.41 141.35 97.71 C 133.92 93.44 126.52 89.11 119.29 84.49 C 117.68 83.26 116.03 82.08 114.29 81.05 M 387.04 94.06 C 384.32 94.73 383.07 97.58 381.34 99.50 C 379.80 100.81 378.75 102.59 377.51 104.16 C 379.69 105.87 381.84 107.62 383.96 109.42 C 389.77 108.44 395.53 107.15 401.39 106.45 C 407.51 105.26 412.48 109.86 417.92 111.82 C 418.87 108.52 419.24 105.09 419.12 101.66 C 419.12 99.47 419.17 97.28 419.27 95.09 C 419.03 93.92 418.74 92.76 418.40 91.61 C 416.35 90.82 414.10 90.85 411.94 90.88 C 403.58 91.22 395.15 91.89 387.04 94.06 M 330.21 94.06 C 327.23 99.33 328.35 105.72 329.66 111.32 C 331.12 106.68 331.61 101.71 333.66 97.20 C 334.67 95.65 335.77 94.16 336.93 92.71 C 334.69 93.15 332.45 93.61 330.21 94.06 M 335.26 101.59 C 333.56 106.12 332.57 111.06 333.29 115.89 C 335.03 120.73 338.33 124.80 340.60 129.39 C 342.26 133.28 346.91 134.06 350.14 136.22 C 352.74 137.34 355.49 138.07 358.27 138.59 C 358.49 136.87 358.73 135.15 359.06 133.45 C 359.03 133.20 358.99 132.68 358.97 132.43 C 361.05 119.86 361.63 106.71 358.99 94.21 C 355.51 92.89 351.65 92.50 347.98 92.86 C 342.31 92.12 336.05 95.58 335.26 101.59 M 313.25 111.51 C 313.29 111.68 313.35 112.03 313.38 112.21 C 309.88 115.18 307.62 119.41 306.07 123.67 C 304.79 128.30 303.20 133.05 303.84 137.92 C 304.31 141.48 304.61 145.09 305.54 148.57 C 306.78 152.10 309.72 154.63 312.16 157.34 C 320.53 153.21 328.96 149.13 337.82 146.15 C 336.95 144.49 335.61 143.13 334.52 141.63 C 335.14 138.12 338.23 136.17 341.30 134.98 C 338.70 131.79 337.04 127.97 334.59 124.66 L 334.13 124.44 C 332.67 120.92 330.35 117.71 329.96 113.82 C 326.19 112.58 326.23 108.24 325.50 105.02 C 321.13 106.58 317.20 109.11 313.25 111.51 M 376.33 113.91 C 377.04 118.23 378.44 122.40 380.06 126.46 C 380.93 130.21 384.70 131.34 387.89 132.49 L 388.30 132.33 L 388.32 132.69 C 399.10 136.07 410.05 139.16 420.90 142.38 C 423.94 137.65 427.68 133.45 431.07 128.98 C 433.09 126.27 429.10 124.03 427.67 122.04 C 421.06 116.71 413.60 112.61 406.07 108.76 C 396.04 109.52 386.23 112.18 376.33 113.91 M 248.60 115.78 C 247.89 118.76 247.68 122.11 245.10 124.17 C 246.35 123.41 247.59 122.63 248.81 121.82 C 249.82 121.33 250.83 120.84 251.84 120.35 C 250.76 118.82 249.69 117.29 248.60 115.78 M 381.18 145.80 C 383.89 149.99 386.61 154.18 388.78 158.68 C 389.18 159.72 389.59 160.77 390.00 161.81 C 398.88 163.83 407.96 164.97 416.65 167.80 C 418.80 163.07 421.46 158.23 421.50 152.92 C 414.15 149.46 406.33 147.17 398.76 144.29 C 393.22 141.48 386.45 143.10 381.18 145.80 M 94.18 167.19 C 89.76 172.22 91.03 180.25 95.94 184.45 C 94.86 179.16 96.19 173.91 98.43 169.12 C 101.59 165.89 105.00 162.85 109.06 160.80 C 107.97 160.08 106.88 159.36 105.78 158.64 C 101.09 160.14 97.22 163.39 94.18 167.19 M 99.27 172.94 C 97.67 176.83 98.24 181.14 99.18 185.12 C 99.56 187.62 101.32 189.96 103.99 190.19 C 111.94 191.78 119.96 193.17 128.03 193.97 C 128.57 187.94 127.12 181.89 124.60 176.44 C 122.61 172.37 120.60 168.00 116.59 165.52 C 116.52 164.14 116.06 162.88 115.22 161.80 L 115.13 160.95 C 108.72 163.13 102.62 166.86 99.27 172.94 M 323.82 170.15 C 327.75 174.45 333.07 177.02 338.01 179.93 C 341.23 181.61 344.24 183.69 347.56 185.16 C 350.82 185.86 354.18 185.73 357.50 185.88 C 355.71 184.88 353.82 184.02 352.19 182.77 C 350.95 182.03 350.89 180.07 352.03 179.22 C 354.31 177.28 357.07 176.04 359.74 174.73 C 363.08 173.34 362.48 169.70 364.11 167.10 C 363.96 165.50 363.62 163.93 363.30 162.36 C 359.44 163.52 356.18 165.99 352.43 167.41 C 349.69 167.63 345.98 169.55 344.46 166.16 C 345.51 164.40 346.59 162.66 347.68 160.92 C 339.36 163.02 332.02 167.68 323.82 170.15 M 364.91 169.14 C 367.12 172.53 370.08 175.52 373.43 177.74 C 376.81 181.33 380.67 184.42 384.14 187.92 L 384.44 187.74 C 386.07 189.30 387.60 192.14 390.27 191.51 C 395.82 190.64 401.46 190.20 406.94 188.93 C 410.08 185.39 410.59 180.27 411.66 175.81 C 410.53 175.25 409.49 174.48 408.27 174.15 C 399.64 170.57 390.58 168.27 381.51 166.16 C 375.78 164.32 370.47 168.28 364.91 169.14 M 234.73 174.76 C 231.21 176.38 230.98 181.10 227.47 182.70 C 223.36 184.76 218.73 185.53 214.61 187.59 C 209.99 189.50 206.15 192.89 203.11 196.81 C 207.15 195.04 210.66 192.16 214.89 190.83 C 217.39 190.95 219.89 191.35 222.38 190.93 C 223.62 190.16 224.75 189.23 225.90 188.34 C 226.40 186.82 226.33 184.74 227.97 183.91 C 230.04 182.78 232.41 182.41 234.68 181.87 C 235.75 181.49 236.82 181.10 237.90 180.72 L 238.09 180.13 C 239.71 180.53 240.86 179.95 241.53 178.39 L 241.83 178.59 C 244.13 176.51 248.15 174.88 247.08 171.08 L 246.77 171.22 L 245.51 169.97 C 241.43 170.11 238.16 172.90 234.73 174.76 M 353.32 181.02 C 356.53 183.22 359.84 185.47 363.65 186.46 C 366.75 187.36 370.13 188.20 372.49 190.53 C 373.73 192.94 371.21 195.00 370.11 196.93 C 370.70 197.58 371.30 198.24 371.91 198.89 L 372.12 198.81 C 372.86 199.76 373.74 200.51 374.76 201.05 C 377.99 204.67 375.84 209.42 375.87 213.65 C 374.46 225.03 371.83 236.64 373.67 248.09 C 376.63 238.46 376.07 228.20 377.70 218.35 C 379.49 215.70 381.94 213.59 385.10 212.80 C 386.34 212.34 387.57 211.87 388.81 211.40 C 386.56 206.84 384.13 202.38 382.13 197.70 C 381.19 194.60 380.68 191.39 380.66 188.15 C 375.49 183.15 369.71 178.80 364.88 173.45 C 361.74 176.97 357.21 178.53 353.32 181.02 M 15.08 179.95 C 13.24 183.06 10.04 186.09 10.52 189.97 C 11.93 193.54 14.32 196.60 16.09 199.98 C 19.66 206.16 22.63 212.67 26.31 218.78 C 26.93 220.59 28.13 222.13 29.11 223.76 C 33.59 218.25 37.49 212.28 41.47 206.41 C 42.38 204.76 44.06 203.07 43.26 201.04 C 41.90 195.75 39.57 190.73 36.63 186.13 C 35.78 185.10 34.93 184.06 34.09 183.02 C 32.36 181.25 30.52 179.58 28.55 178.07 C 26.99 177.20 25.44 176.30 23.91 175.37 C 20.16 174.35 16.89 176.88 15.08 179.95 M 196.96 181.52 C 198.32 181.37 199.75 181.39 201.05 180.90 C 201.83 178.91 201.75 176.72 201.96 174.63 C 200.03 176.71 198.03 178.83 196.96 181.52 M 2.52 201.18 C 3.87 203.47 5.95 205.15 8.05 206.73 C 12.12 209.75 16.24 212.75 20.75 215.10 C 18.20 209.81 15.30 204.69 12.46 199.54 C 11.42 197.63 10.25 195.80 9.11 193.95 C 6.54 196.00 4.21 198.34 2.52 201.18 M 115.82 195.22 C 117.29 196.07 118.86 196.79 120.18 197.88 C 121.25 199.74 121.24 202.00 121.64 204.08 C 121.97 209.87 121.36 216.39 125.05 221.31 C 128.64 214.86 121.51 207.78 124.23 201.17 C 125.23 200.67 126.22 200.16 127.21 199.64 C 124.73 195.72 119.91 195.77 115.82 195.22 M 196.93 215.00 C 193.47 217.85 192.92 223.22 188.73 225.29 C 190.52 226.78 192.49 228.13 193.82 230.08 C 193.83 232.64 191.16 233.83 189.52 235.35 C 185.59 237.93 184.01 242.58 180.83 245.87 C 178.83 248.30 175.53 249.27 173.85 252.00 C 171.90 254.88 169.50 257.42 166.85 259.68 C 175.11 258.09 183.57 258.56 191.91 259.20 C 207.34 259.95 222.66 262.20 238.03 263.57 C 248.00 263.49 257.95 264.11 267.89 264.85 C 284.21 266.43 300.74 266.34 316.90 269.30 C 310.69 263.29 303.71 258.11 296.21 253.80 C 292.59 251.80 288.39 251.03 284.96 248.63 C 284.23 250.69 283.31 252.69 282.11 254.52 C 277.22 252.64 272.58 250.18 267.78 248.09 C 264.85 246.95 262.71 244.59 260.32 242.66 C 248.08 233.10 235.68 223.58 225.24 212.02 C 215.80 212.86 206.18 212.65 196.93 215.00 M 12.89 214.02 C 11.64 219.76 10.59 225.57 10.49 231.46 C 15.51 230.08 20.53 228.70 25.68 227.89 C 24.85 224.26 24.83 218.10 20.00 217.72 C 17.28 217.30 15.17 215.41 12.89 214.02 M 285.87 215.97 C 285.71 219.33 285.68 222.74 284.88 226.04 C 283.78 229.39 285.85 232.61 286.63 235.79 C 287.21 239.22 286.28 242.60 285.55 245.94 C 288.25 247.03 290.92 248.20 293.57 249.42 C 304.27 254.90 313.84 262.33 322.24 270.90 C 320.47 266.52 319.12 261.80 316.49 257.86 C 314.51 251.31 310.75 245.45 307.02 239.78 C 302.70 233.38 297.47 227.67 292.23 222.03 C 290.34 219.77 288.18 217.77 285.87 215.97 M 29.89 226.24 C 29.96 231.20 29.71 236.19 30.55 241.11 C 30.45 244.81 30.86 248.51 31.37 252.18 C 31.28 254.90 31.47 257.63 31.66 260.35 C 34.88 256.55 33.28 251.07 33.67 246.52 C 34.24 245.09 34.20 243.52 34.16 242.02 C 34.60 236.10 34.29 229.51 38.91 225.02 C 38.08 223.05 37.18 221.12 36.21 219.22 C 34.59 221.97 32.32 224.21 29.89 226.24 M 169.41 234.41 C 168.26 236.07 168.50 238.26 168.22 240.18 C 164.63 248.62 160.64 256.95 154.84 264.13 C 156.88 263.04 159.46 262.28 160.56 260.04 C 167.45 258.16 170.21 250.60 175.77 246.77 C 179.15 244.47 181.39 241.00 183.59 237.65 C 185.48 234.72 188.51 232.89 191.21 230.81 C 189.61 229.23 187.94 227.73 186.20 226.32 C 180.67 229.16 174.81 231.35 169.41 234.41 Z" />
<path fill="#4895da" opacity="1.00" d=" M 406.16 57.93 C 420.20 42.20 430.20 23.07 435.78 2.78 C 435.57 8.98 433.73 14.95 432.46 20.98 C 430.30 29.07 428.36 37.51 424.06 44.76 C 418.06 50.79 415.89 59.78 409.05 65.08 C 403.08 70.53 395.51 75.78 394.47 84.46 C 392.97 81.54 390.06 79.92 387.58 77.97 C 389.32 75.18 391.51 72.69 393.94 70.47 L 394.20 70.44 C 396.76 70.71 398.62 68.88 400.36 67.30 C 403.93 63.93 407.79 60.61 409.79 56.00 C 408.55 56.61 407.35 57.25 406.16 57.93 Z" />
<path fill="#94a1a4" opacity="1.00" d=" M 275.88 38.25 C 282.27 31.66 289.90 26.24 297.29 20.76 C 296.13 24.87 297.02 30.11 293.79 33.35 C 286.72 40.13 281.28 48.38 274.65 55.56 C 271.93 58.28 269.07 60.87 266.50 63.73 C 262.39 65.33 260.65 70.05 256.40 71.46 C 253.70 72.75 250.96 71.05 248.50 70.05 L 249.16 68.59 C 256.24 58.69 265.71 50.80 273.82 41.79 C 274.69 40.73 275.25 39.46 275.88 38.25 Z" />
<path fill="#222e40" opacity="1.00" d=" M 274.65 55.56 C 281.28 48.38 286.72 40.13 293.79 33.35 C 294.94 34.93 293.83 36.75 293.46 38.37 C 292.45 41.32 291.53 44.31 290.72 47.33 L 290.34 47.62 C 283.25 53.63 276.68 60.23 269.32 65.93 C 270.92 66.20 272.54 66.47 274.15 66.74 C 271.18 66.73 268.21 66.56 265.27 66.14 L 265.54 65.61 C 265.78 65.14 266.26 64.20 266.50 63.73 C 269.07 60.87 271.93 58.28 274.65 55.56 Z" />
<path fill="#8ed3d9" opacity="1.00" d=" M 248.15 66.50 C 256.87 56.60 265.76 46.73 275.88 38.25 C 275.25 39.46 274.69 40.73 273.82 41.79 C 265.71 50.80 256.24 58.69 249.16 68.59 L 248.53 69.08 C 248.43 68.44 248.24 67.14 248.15 66.50 Z" />
<path fill="#23427c" opacity="1.00" d=" M 409.05 65.08 C 415.89 59.78 418.06 50.79 424.06 44.76 C 422.23 50.77 418.59 56.03 416.68 62.03 L 416.52 61.32 L 416.25 60.06 C 413.71 62.26 410.19 64.20 409.74 67.87 C 408.94 72.17 408.21 76.49 406.75 80.63 C 405.02 82.97 402.70 85.11 403.20 88.36 C 399.77 88.70 396.35 89.08 392.98 89.77 C 393.56 88.03 394.06 86.26 394.47 84.46 C 395.51 75.78 403.08 70.53 409.05 65.08 Z" />
<path fill="#496d84" opacity="1.00" d=" M 269.32 65.93 C 276.68 60.23 283.25 53.63 290.34 47.62 C 289.07 51.16 288.48 55.11 286.16 58.15 C 282.91 61.24 279.14 63.75 276.07 67.05 C 275.59 66.97 274.63 66.82 274.15 66.74 C 272.54 66.47 270.92 66.20 269.32 65.93 Z" />
<path fill="#468fd3" opacity="1.00" d=" M 338.96 49.24 C 341.26 49.34 342.61 51.34 343.86 52.99 C 350.71 63.35 360.23 71.51 369.27 79.89 C 366.83 81.34 363.59 82.29 362.36 85.08 C 361.98 87.94 364.84 89.75 366.84 91.21 C 368.64 92.69 370.99 92.63 373.18 92.45 C 373.38 91.69 373.76 90.18 373.96 89.42 C 377.22 89.74 379.99 91.58 382.79 93.10 C 381.92 94.05 381.06 95.00 380.20 95.95 C 376.85 96.13 373.43 97.11 372.01 100.47 C 369.06 100.66 366.11 100.75 363.15 100.74 C 362.77 98.05 362.38 95.35 361.75 92.71 C 357.69 91.24 354.41 88.36 351.05 85.75 C 353.15 84.50 355.46 83.68 357.62 82.54 C 359.73 81.45 358.95 78.67 357.95 77.05 C 352.21 67.39 343.32 59.72 338.96 49.24 Z" />
<path fill="#f1f6fa" opacity="1.00" d=" M 406.16 57.93 C 407.35 57.25 408.55 56.61 409.79 56.00 C 407.79 60.61 403.93 63.93 400.36 67.30 C 398.62 68.88 396.76 70.71 394.20 70.44 C 397.99 66.10 402.13 62.05 406.16 57.93 Z" />
<path fill="#4895da" opacity="1.00" d=" M 180.31 60.25 C 184.20 59.86 188.10 60.06 191.99 60.23 C 192.18 62.80 189.78 64.17 188.27 65.83 C 188.80 67.35 189.33 68.87 189.87 70.39 C 187.91 71.10 185.91 71.70 183.87 72.15 C 182.53 70.76 181.54 68.60 179.39 68.39 C 179.05 65.63 179.31 62.85 180.31 60.25 Z" />
<path fill="#94a1a4" opacity="1.00" d=" M 202.76 60.50 C 206.78 59.95 210.84 59.01 214.91 59.60 C 219.06 60.26 223.14 61.25 227.14 62.51 C 225.55 64.63 223.93 66.72 222.22 68.74 C 213.54 74.35 206.11 81.65 197.94 87.94 C 195.10 90.04 191.68 91.07 188.41 92.26 C 189.53 87.58 190.97 82.98 192.66 78.48 C 196.73 72.90 199.15 66.36 202.76 60.50 Z" />
<path fill="#94dbe6" opacity="1.00" d=" M 199.63 61.25 C 200.42 61.07 201.98 60.69 202.76 60.50 C 199.15 66.36 196.73 72.90 192.66 78.48 C 193.76 72.75 197.05 67.86 199.15 62.51 L 199.63 61.25 Z" />
<path fill="#3d74b4" opacity="1.00" d=" M 409.74 67.87 C 410.19 64.20 413.71 62.26 416.25 60.06 L 416.52 61.32 C 415.29 65.78 418.00 71.58 414.02 74.94 C 411.76 77.04 409.25 78.84 406.75 80.63 C 408.21 76.49 408.94 72.17 409.74 67.87 Z" />
<path fill="#496d84" opacity="1.00" d=" M 191.36 66.54 C 193.65 64.50 195.69 62.01 198.74 61.09 L 199.15 62.51 C 197.05 67.86 193.76 72.75 192.66 78.48 C 190.97 82.98 189.53 87.58 188.41 92.26 C 191.68 91.07 195.10 90.04 197.94 87.94 C 206.11 81.65 213.54 74.35 222.22 68.74 C 219.35 73.06 215.98 77.01 212.71 81.03 C 209.53 84.61 207.00 89.03 202.93 91.66 C 196.16 93.41 189.15 94.09 182.30 95.56 L 182.78 94.34 C 186.01 88.29 186.68 81.04 185.04 74.42 C 187.16 73.86 189.62 73.87 191.37 72.41 C 193.05 70.77 191.64 68.45 191.36 66.54 Z" />
<path fill="#243970" opacity="1.00" d=" M 239.00 62.64 C 240.60 62.50 242.20 62.37 243.81 62.21 C 244.97 62.94 246.14 63.67 247.31 64.41 C 246.41 65.30 245.45 66.11 244.40 66.80 C 240.29 76.61 236.72 86.67 232.43 96.40 C 230.68 97.31 228.75 99.38 226.69 98.44 C 226.17 97.28 225.70 96.11 225.29 94.91 C 227.79 90.89 228.13 85.86 231.13 82.11 C 232.70 80.30 233.56 78.07 234.36 75.84 C 237.72 72.16 237.35 67.06 239.00 62.64 Z" />
<path fill="#161d3b" opacity="1.00" d=" M 227.14 62.51 C 230.09 63.26 233.03 64.16 235.68 65.68 C 235.01 67.96 234.91 70.55 233.46 72.52 C 231.01 74.84 227.81 76.14 225.20 78.27 C 223.06 79.88 221.55 82.16 219.46 83.83 C 217.18 82.96 214.95 81.98 212.71 81.03 C 215.98 77.01 219.35 73.06 222.22 68.74 C 223.93 66.72 225.55 64.63 227.14 62.51 Z" />
<path fill="#496d84" opacity="1.00" d=" M 256.40 71.46 C 260.65 70.05 262.39 65.33 266.50 63.73 C 266.26 64.20 265.78 65.14 265.54 65.61 C 264.59 66.28 264.04 67.27 263.55 68.28 C 264.39 68.30 266.08 68.34 266.92 68.35 C 264.07 70.95 261.14 73.51 258.87 76.65 C 257.90 76.10 256.93 75.54 255.97 74.98 C 254.47 82.08 249.64 87.75 245.14 93.18 C 244.25 94.67 240.97 95.27 240.72 93.02 C 241.11 89.63 242.33 86.40 243.26 83.13 C 244.75 78.68 245.53 73.84 248.50 70.05 C 250.96 71.05 253.70 72.75 256.40 71.46 Z" />
<path fill="#2b3f77" opacity="1.00" d=" M 165.06 69.46 C 170.86 68.65 178.10 68.99 181.67 74.41 C 184.99 78.26 183.27 83.51 182.64 87.98 C 180.62 94.80 174.83 100.42 168.09 102.58 C 172.76 97.44 180.40 93.76 181.01 86.00 C 181.28 80.39 175.92 77.10 171.16 75.81 C 170.27 72.76 168.84 69.29 165.06 69.46 Z" />
<path fill="#212d3f" opacity="1.00" d=" M 248.53 69.08 L 249.16 68.59 L 248.50 70.05 C 245.53 73.84 244.75 78.68 243.26 83.13 C 242.33 86.40 241.11 89.63 240.72 93.02 C 240.97 95.27 244.25 94.67 245.14 93.18 C 249.64 87.75 254.47 82.08 255.97 74.98 C 256.93 75.54 257.90 76.10 258.87 76.65 C 258.72 78.32 258.60 80.09 257.45 81.42 C 252.54 87.93 247.58 94.41 242.54 100.83 C 243.55 103.63 244.54 106.44 245.74 109.17 C 246.28 110.50 246.80 111.82 247.31 113.16 C 245.37 117.18 243.48 121.25 242.20 125.53 C 241.28 125.71 240.36 125.89 239.44 126.08 C 239.39 122.85 238.72 119.68 237.92 116.57 C 237.17 112.47 234.48 109.19 232.05 105.96 C 236.06 94.01 240.89 82.37 245.50 70.66 C 246.53 70.18 247.54 69.65 248.53 69.08 M 240.20 121.47 C 239.53 122.59 239.53 124.71 240.94 125.28 C 242.76 124.90 241.78 121.22 240.20 121.47 Z" />
<path fill="#94a1a4" opacity="1.00" d=" M 266.92 68.35 C 269.99 68.82 273.03 69.40 276.10 69.91 C 278.44 73.20 279.80 77.64 277.32 81.27 C 271.46 91.07 265.45 100.77 259.61 110.58 C 258.14 113.53 254.84 114.31 251.92 115.03 C 250.22 112.73 248.19 110.68 245.74 109.17 C 244.54 106.44 243.55 103.63 242.54 100.83 C 247.58 94.41 252.54 87.93 257.45 81.42 C 258.60 80.09 258.72 78.32 258.87 76.65 C 261.14 73.51 264.07 70.95 266.92 68.35 Z" />
<path fill="#224c88" opacity="1.00" d=" M 161.90 70.58 C 162.94 70.17 163.99 69.80 165.06 69.46 C 168.84 69.29 170.27 72.76 171.16 75.81 C 171.49 80.95 171.28 86.31 169.02 91.03 C 166.85 96.28 161.24 99.05 159.32 104.46 C 158.69 104.50 157.42 104.59 156.79 104.63 C 157.10 104.00 157.73 102.73 158.04 102.09 C 155.46 99.78 152.93 96.76 153.55 93.02 C 154.66 84.26 162.75 78.46 170.63 75.98 C 168.93 74.00 167.16 72.06 165.36 70.16 C 164.50 70.27 162.77 70.48 161.90 70.58 Z" />
<path fill="#496d84" opacity="1.00" d=" M 276.10 69.91 C 279.23 70.49 282.32 71.29 285.40 72.10 C 283.63 80.12 281.65 88.10 278.88 95.85 C 277.31 100.79 273.07 104.01 269.50 107.47 C 264.93 111.88 259.94 115.83 255.50 120.38 C 254.23 118.65 253.02 116.87 251.92 115.03 C 254.84 114.31 258.14 113.53 259.61 110.58 C 265.45 100.77 271.46 91.07 277.32 81.27 C 279.80 77.64 278.44 73.20 276.10 69.91 Z" />
<path fill="#4895da" opacity="1.00" d=" M 152.13 75.62 C 155.16 73.56 158.29 71.46 161.90 70.58 C 162.77 70.48 164.50 70.27 165.36 70.16 C 167.16 72.06 168.93 74.00 170.63 75.98 C 162.75 78.46 154.66 84.26 153.55 93.02 C 152.93 96.76 155.46 99.78 158.04 102.09 C 157.73 102.73 157.10 104.00 156.79 104.63 C 152.51 103.36 148.09 101.16 146.10 96.90 C 142.24 89.53 146.23 80.44 152.46 75.74 C 151.30 77.94 148.65 79.93 149.40 82.69 C 153.39 86.49 159.38 76.63 153.29 76.03 L 152.13 75.62 Z" />
<path fill="#18203c" opacity="1.00" d=" M 285.40 72.10 C 288.84 78.79 291.62 85.83 294.10 92.92 C 291.96 94.61 289.48 95.87 287.47 97.72 C 287.50 98.21 287.55 99.20 287.57 99.69 C 286.62 101.72 285.41 103.62 284.10 105.44 C 281.36 102.86 277.24 100.29 278.88 95.85 C 281.65 88.10 283.63 80.12 285.40 72.10 Z" />
<path fill="#ffffff" opacity="1.00" d=" M 152.46 75.74 L 153.29 76.03 C 159.38 76.63 153.39 86.49 149.40 82.69 C 148.65 79.93 151.30 77.94 152.46 75.74 Z" />
<path fill="#243369" opacity="1.00" d=" M 171.16 75.81 C 175.92 77.10 181.28 80.39 181.01 86.00 C 180.40 93.76 172.76 97.44 168.09 102.58 C 166.64 103.68 164.69 103.80 163.00 104.37 C 162.11 107.20 161.62 110.24 159.85 112.70 C 159.99 111.17 160.07 109.63 160.10 108.10 C 159.89 107.53 159.46 106.39 159.24 105.82 C 159.18 105.65 159.04 105.31 158.97 105.14 L 159.32 104.46 C 161.24 99.05 166.85 96.28 169.02 91.03 C 171.28 86.31 171.49 80.95 171.16 75.81 Z" />
<path fill="#468ed2" opacity="1.00" d=" M 219.70 89.01 C 222.59 82.87 228.25 78.50 234.36 75.84 C 233.56 78.07 232.70 80.30 231.13 82.11 C 228.13 85.86 227.79 90.89 225.29 94.91 C 223.99 96.26 222.59 97.50 221.21 98.77 C 220.74 95.52 219.37 92.31 219.70 89.01 Z" />
<path fill="#8ac7cd" opacity="1.00" d=" M 114.29 81.05 C 116.03 82.08 117.68 83.26 119.29 84.49 C 119.55 86.92 119.82 89.36 120.04 91.80 C 119.01 90.92 117.99 90.05 117.03 89.10 C 115.90 86.50 115.00 83.79 114.29 81.05 Z" />
<path fill="#1f2a3f" opacity="1.00" d=" M 202.93 91.66 C 207.00 89.03 209.53 84.61 212.71 81.03 C 214.95 81.98 217.18 82.96 219.46 83.83 C 217.17 86.96 216.63 90.79 217.58 94.51 C 204.14 97.14 190.53 98.81 177.00 100.94 C 178.91 98.73 180.75 96.45 182.78 94.34 L 182.30 95.56 C 189.15 94.09 196.16 93.41 202.93 91.66 Z" />
<path fill="#94a1a4" opacity="1.00" d=" M 120.04 91.80 C 119.82 89.36 119.55 86.92 119.29 84.49 C 126.52 89.11 133.92 93.44 141.35 97.71 C 144.68 99.41 146.63 102.77 149.71 104.81 C 148.05 106.39 146.55 108.77 143.97 108.69 C 139.64 108.49 135.97 105.83 132.53 103.46 C 127.85 100.00 123.18 96.51 118.67 92.83 C 118.00 91.64 117.54 90.36 117.03 89.10 C 117.99 90.05 119.01 90.92 120.04 91.80 Z" />
<path fill="#94a1a4" opacity="1.00" d=" M 387.04 94.06 C 395.15 91.89 403.58 91.22 411.94 90.88 C 414.10 90.85 416.35 90.82 418.40 91.61 C 418.74 92.76 419.03 93.92 419.27 95.09 C 406.61 96.37 393.91 97.49 381.34 99.50 C 383.07 97.58 384.32 94.73 387.04 94.06 Z" />
<path fill="#496d84" opacity="1.00" d=" M 118.67 92.83 C 123.18 96.51 127.85 100.00 132.53 103.46 C 135.97 105.83 139.64 108.49 143.97 108.69 C 146.55 108.77 148.05 106.39 149.71 104.81 C 151.99 105.62 154.28 106.42 156.63 107.04 C 154.79 109.42 153.46 112.13 152.20 114.84 L 152.58 112.82 C 147.48 117.69 144.59 124.21 141.10 130.21 C 139.75 132.21 139.88 134.63 140.15 136.92 C 138.79 130.57 139.27 123.98 138.31 117.57 L 137.53 116.41 C 131.29 111.96 126.87 105.65 122.03 99.84 C 120.46 97.74 119.52 95.27 118.67 92.83 Z" />
<path fill="#94a1a4" opacity="1.00" d=" M 330.21 94.06 C 332.45 93.61 334.69 93.15 336.93 92.71 C 335.77 94.16 334.67 95.65 333.66 97.20 C 332.51 96.15 331.36 95.10 330.21 94.06 Z" />
<path fill="#94dee4" opacity="1.00" d=" M 335.26 101.59 C 336.05 95.58 342.31 92.12 347.98 92.86 C 343.63 95.80 338.70 98.15 335.69 102.66 L 335.26 101.59 Z" />
<path fill="#94a1a4" opacity="1.00" d=" M 347.98 92.86 C 351.65 92.50 355.51 92.89 358.99 94.21 C 361.63 106.71 361.05 119.86 358.97 132.43 C 354.05 128.61 348.87 124.99 345.02 120.00 C 340.69 114.95 338.22 108.72 335.69 102.66 C 338.70 98.15 343.63 95.80 347.98 92.86 Z" />
<path fill="#4c7189" opacity="1.00" d=" M 329.66 111.32 C 328.35 105.72 327.23 99.33 330.21 94.06 C 331.36 95.10 332.51 96.15 333.66 97.20 C 331.61 101.71 331.12 106.68 329.66 111.32 Z" />
<path fill="#496d84" opacity="1.00" d=" M 177.00 100.94 C 190.53 98.81 204.14 97.14 217.58 94.51 C 218.58 98.95 219.64 103.42 220.30 107.91 C 217.31 114.58 214.20 121.60 214.14 129.02 C 213.26 132.17 212.33 135.31 211.39 138.44 C 214.54 137.42 217.73 136.53 220.93 135.67 C 218.55 140.06 214.06 142.50 210.07 145.18 C 203.07 148.72 196.28 152.65 189.73 156.97 C 184.95 158.98 179.57 158.79 174.52 159.79 C 171.82 160.45 169.15 159.56 166.66 158.57 C 166.75 155.84 165.24 153.54 163.77 151.38 C 172.35 150.05 181.25 149.49 189.45 146.57 C 192.97 141.03 194.21 134.41 197.39 128.69 C 197.32 129.69 197.17 131.68 197.09 132.68 C 195.78 136.78 194.05 140.81 193.47 145.10 C 193.14 146.82 195.20 148.86 196.92 148.10 C 198.80 147.63 199.23 145.49 199.91 143.96 C 203.53 133.07 206.89 122.09 210.31 111.14 C 210.88 108.71 212.19 105.78 210.31 103.59 C 207.50 101.98 205.86 105.18 204.94 107.30 C 204.07 109.08 203.21 110.87 202.41 112.69 C 202.74 108.77 203.69 104.94 204.77 101.16 C 190.62 100.86 177.23 105.95 163.92 110.03 C 164.11 108.87 164.30 107.72 164.49 106.56 C 169.08 105.68 173.00 103.17 177.00 100.94 Z" />
<path fill="#2f4982" opacity="1.00" d=" M 221.21 98.77 C 222.59 97.50 223.99 96.26 225.29 94.91 C 225.70 96.11 226.17 97.28 226.69 98.44 C 228.75 99.38 230.68 97.31 232.43 96.40 C 231.05 100.21 229.88 104.10 229.06 108.07 C 227.37 109.17 225.68 110.26 223.99 111.35 C 222.84 107.21 222.00 102.99 221.21 98.77 Z" />
<path fill="#94a1a4" opacity="1.00" d=" M 287.57 99.69 C 290.08 97.64 293.47 97.01 296.12 95.09 C 299.04 96.04 302.00 96.89 304.99 97.65 C 298.02 100.21 291.13 103.02 284.10 105.44 C 285.41 103.62 286.62 101.72 287.57 99.69 Z" />
<path fill="#496d84" opacity="1.00" d=" M 381.34 99.50 C 393.91 97.49 406.61 96.37 419.27 95.09 C 419.17 97.28 419.12 99.47 419.12 101.66 C 405.27 102.86 391.40 103.68 377.51 104.16 C 378.75 102.59 379.80 100.81 381.34 99.50 Z" />
<path fill="#212d3f" opacity="1.00" d=" M 269.50 107.47 C 273.07 104.01 277.31 100.79 278.88 95.85 C 277.24 100.29 281.36 102.86 284.10 105.44 C 291.13 103.02 298.02 100.21 304.99 97.65 L 305.25 97.55 C 308.04 98.18 310.79 99.02 313.46 100.08 C 303.81 104.19 293.75 107.21 284.00 111.04 C 282.67 111.40 282.13 112.69 281.48 113.75 C 282.89 115.41 284.23 117.14 285.42 118.98 C 288.73 125.51 295.68 128.86 301.16 133.31 C 301.10 134.49 301.04 135.68 300.99 136.86 C 295.25 134.03 289.07 131.90 283.92 128.03 C 283.96 125.04 284.46 122.07 284.35 119.08 C 279.71 120.60 274.80 120.00 270.02 120.15 C 265.18 120.26 260.34 120.43 255.50 120.38 C 259.94 115.83 264.93 111.88 269.50 107.47 Z" />
<path fill="#233d76" opacity="1.00" d=" M 372.01 100.47 C 373.43 97.11 376.85 96.13 380.20 95.95 C 378.12 98.47 376.00 100.95 373.84 103.41 C 371.04 105.97 367.22 106.73 363.73 107.92 C 363.56 105.52 363.37 103.13 363.15 100.74 C 366.11 100.75 369.06 100.66 372.01 100.47 Z" />
<path fill="#222e40" opacity="1.00" d=" M 122.03 99.84 C 126.87 105.65 131.29 111.96 137.53 116.41 C 135.03 122.06 136.66 128.39 136.91 134.32 C 135.95 134.47 135.00 134.62 134.05 134.78 C 135.51 137.15 136.97 139.53 138.45 141.89 C 137.90 149.75 133.61 156.73 133.40 164.63 C 129.85 166.01 125.16 164.99 121.17 165.21 C 119.41 162.37 117.29 159.75 114.72 157.61 C 115.19 155.26 115.43 152.87 115.70 150.50 C 119.45 153.00 122.90 155.95 126.82 158.20 C 127.95 159.13 129.69 158.63 130.35 157.38 C 132.05 154.63 133.34 151.63 135.38 149.10 C 132.15 146.08 129.19 142.80 126.11 139.63 C 126.28 139.04 126.60 137.86 126.77 137.26 C 124.50 136.08 122.15 134.90 120.45 132.93 C 124.17 129.52 128.57 126.47 130.84 121.83 C 130.45 119.84 129.04 118.27 128.02 116.58 C 128.13 115.73 128.62 114.83 128.11 114.02 C 126.11 109.28 122.88 105.01 122.03 99.84 Z" />
<path fill="#94a1a4" opacity="1.00" d=" M 313.46 100.08 L 314.17 99.77 C 315.97 100.21 317.78 100.65 319.58 101.09 C 319.63 101.94 319.72 103.62 319.77 104.47 C 311.15 109.67 303.72 117.63 301.80 127.81 C 296.00 125.55 290.65 122.32 285.42 118.98 C 284.23 117.14 282.89 115.41 281.48 113.75 C 282.13 112.69 282.67 111.40 284.00 111.04 C 293.75 107.21 303.81 104.19 313.46 100.08 Z" />
<path fill="#94a1a4" opacity="1.00" d=" M 163.92 110.03 C 177.23 105.95 190.62 100.86 204.77 101.16 C 203.69 104.94 202.74 108.77 202.41 112.69 C 200.73 118.02 199.17 123.39 197.39 128.69 C 194.21 134.41 192.97 141.03 189.45 146.57 C 181.25 149.49 172.35 150.05 163.77 151.38 C 161.43 147.59 160.52 143.19 159.61 138.90 C 162.36 136.12 165.85 133.77 167.31 130.00 C 166.27 126.86 162.69 125.62 160.53 123.33 C 161.47 118.85 162.23 114.30 163.92 110.03 Z" />
<path fill="#496d84" opacity="1.00" d=" M 335.26 101.59 L 335.69 102.66 C 338.22 108.72 340.69 114.95 345.02 120.00 C 348.87 124.99 354.05 128.61 358.97 132.43 C 358.99 132.68 359.03 133.20 359.06 133.45 C 355.74 133.09 352.38 133.51 350.14 136.22 C 346.91 134.06 342.26 133.28 340.60 129.39 C 338.33 124.80 335.03 120.73 333.29 115.89 C 332.57 111.06 333.56 106.12 335.26 101.59 Z" />
<path fill="#222e40" opacity="1.00" d=" M 377.51 104.16 C 391.40 103.68 405.27 102.86 419.12 101.66 C 419.24 105.09 418.87 108.52 417.92 111.82 C 412.48 109.86 407.51 105.26 401.39 106.45 C 395.53 107.15 389.77 108.44 383.96 109.42 C 381.84 107.62 379.69 105.87 377.51 104.16 Z" />
<path fill="#94a1a4" opacity="1.00" d=" M 204.94 107.30 C 205.86 105.18 207.50 101.98 210.31 103.59 C 212.19 105.78 210.88 108.71 210.31 111.14 C 206.89 122.09 203.53 133.07 199.91 143.96 C 199.23 145.49 198.80 147.63 196.92 148.10 C 195.20 148.86 193.14 146.82 193.47 145.10 C 194.05 140.81 195.78 136.78 197.09 132.68 C 200.96 124.71 203.88 116.11 204.94 107.30 Z" />
<path fill="#253168" opacity="1.00" d=" M 363.73 107.92 C 367.22 106.73 371.04 105.97 373.84 103.41 C 373.97 103.98 374.23 105.13 374.36 105.70 C 376.30 107.08 378.18 108.54 380.02 110.04 C 377.95 110.60 375.89 111.19 373.84 111.82 C 373.79 114.27 373.92 116.72 374.34 119.14 C 370.75 119.60 367.14 119.82 363.53 119.91 C 363.64 115.91 363.73 111.92 363.73 107.92 Z" />
<path fill="#496d84" opacity="1.00" d=" M 313.25 111.51 C 317.20 109.11 321.13 106.58 325.50 105.02 C 326.23 108.24 326.19 112.58 329.96 113.82 C 330.35 117.71 332.67 120.92 334.13 124.44 C 327.43 121.17 321.29 116.74 314.07 114.61 C 313.90 114.01 313.56 112.81 313.38 112.21 C 313.35 112.03 313.29 111.68 313.25 111.51 Z" />
<path fill="#4895da" opacity="1.00" d=" M 151.36 126.86 C 152.15 119.28 156.10 112.60 159.24 105.82 C 159.46 106.39 159.89 107.53 160.10 108.10 C 160.07 109.63 159.99 111.17 159.85 112.70 C 159.72 113.30 159.55 113.88 159.33 114.46 C 156.95 119.19 155.95 124.62 152.49 128.77 C 152.20 128.29 151.64 127.33 151.36 126.86 Z" />
<path fill="#405f75" opacity="1.00" d=" M 232.05 105.96 C 234.48 109.19 237.17 112.47 237.92 116.57 C 235.21 113.48 230.36 110.86 232.05 105.96 Z" />
<path fill="#96dce7" opacity="1.00" d=" M 202.41 112.69 C 203.21 110.87 204.07 109.08 204.94 107.30 C 203.88 116.11 200.96 124.71 197.09 132.68 C 197.17 131.68 197.32 129.69 197.39 128.69 C 199.17 123.39 200.73 118.02 202.41 112.69 Z" />
<path fill="#4793d7" opacity="1.00" d=" M 223.99 111.35 C 225.68 110.26 227.37 109.17 229.06 108.07 C 229.12 110.68 230.29 113.01 232.38 114.59 C 235.64 117.22 237.69 121.30 237.15 125.55 C 235.02 125.89 232.89 126.26 230.77 126.66 C 227.78 121.92 225.58 116.72 223.99 111.35 M 227.30 114.95 C 226.75 116.58 227.29 117.15 228.92 116.67 C 229.46 115.04 228.92 114.47 227.30 114.95 Z" />
<path fill="#96e1ec" opacity="1.00" d=" M 214.14 129.02 C 214.20 121.60 217.31 114.58 220.30 107.91 C 220.67 109.27 221.02 110.63 221.36 112.00 C 218.41 117.46 217.72 123.87 214.14 129.02 Z" />
<path fill="#94a1a4" opacity="1.00" d=" M 376.33 113.91 C 386.23 112.18 396.04 109.52 406.07 108.76 C 413.60 112.61 421.06 116.71 427.67 122.04 C 426.40 123.80 425.13 125.58 423.82 127.31 C 409.24 126.66 394.65 126.01 380.06 126.46 C 378.44 122.40 377.04 118.23 376.33 113.91 Z" />
<path fill="#93a0a4" opacity="1.00" d=" M 214.14 129.02 C 217.72 123.87 218.41 117.46 221.36 112.00 C 223.51 119.05 226.64 125.80 230.98 131.77 C 227.64 133.10 224.34 134.54 220.93 135.67 C 217.73 136.53 214.54 137.42 211.39 138.44 C 212.33 135.31 213.26 132.17 214.14 129.02 Z" />
<path fill="#88c8cf" opacity="1.00" d=" M 306.07 123.67 C 307.62 119.41 309.88 115.18 313.38 112.21 C 313.23 117.09 308.95 120.34 307.01 124.55 L 306.07 123.67 Z" />
<path fill="#94a1a4" opacity="1.00" d=" M 313.38 112.21 C 313.56 112.81 313.90 114.01 314.07 114.61 C 321.29 116.74 327.43 121.17 334.13 124.44 L 334.59 124.66 C 337.04 127.97 338.70 131.79 341.30 134.98 C 338.23 136.17 335.14 138.12 334.52 141.63 C 324.58 137.34 315.42 131.32 307.01 124.55 C 308.95 120.34 313.23 117.09 313.38 112.21 Z" />
<path fill="#9ae3ec" opacity="1.00" d=" M 141.10 130.21 C 144.59 124.21 147.48 117.69 152.58 112.82 L 152.20 114.84 C 151.62 116.82 150.88 118.78 149.79 120.54 C 145.97 125.62 142.93 131.22 140.15 136.92 C 139.88 134.63 139.75 132.21 141.10 130.21 Z" />
<path fill="#27366d" opacity="1.00" d=" M 152.49 128.77 C 155.95 124.62 156.95 119.19 159.33 114.46 C 159.34 117.64 158.47 120.75 158.48 123.93 C 159.79 126.63 162.58 128.11 164.78 130.00 C 162.67 132.50 160.80 135.36 157.89 137.00 C 157.16 136.06 156.37 135.18 155.59 134.30 C 156.53 131.62 155.12 129.51 152.49 128.77 Z" />
<path fill="#daeaf7" opacity="1.00" d=" M 227.30 114.95 C 228.92 114.47 229.46 115.04 228.92 116.67 C 227.29 117.15 226.75 116.58 227.30 114.95 Z" />
<path fill="#486b83" opacity="1.00" d=" M 248.60 115.78 C 249.69 117.29 250.76 118.82 251.84 120.35 C 250.83 120.84 249.82 121.33 248.81 121.82 C 247.59 122.63 246.35 123.41 245.10 124.17 C 247.68 122.11 247.89 118.76 248.60 115.78 Z" />
<path fill="#94a1a4" opacity="1.00" d=" M 128.02 116.58 C 129.04 118.27 130.45 119.84 130.84 121.83 C 128.57 126.47 124.17 129.52 120.45 132.93 C 118.73 130.78 117.12 128.54 115.67 126.20 C 119.60 122.76 123.90 119.78 128.02 116.58 Z" />
<path fill="#496d84" opacity="1.00" d=" M 285.42 118.98 C 290.65 122.32 296.00 125.55 301.80 127.81 C 301.61 129.64 301.37 131.47 301.16 133.31 C 295.68 128.86 288.73 125.51 285.42 118.98 Z" />
<path fill="#224c88" opacity="1.00" d=" M 363.53 119.91 C 367.14 119.82 370.75 119.60 374.34 119.14 C 374.71 120.14 375.06 121.15 375.39 122.17 C 375.18 123.47 374.69 124.74 373.59 125.53 C 370.32 128.33 366.65 130.62 363.07 132.99 C 362.93 132.60 362.63 131.82 362.49 131.43 C 362.54 127.56 363.40 123.77 363.53 119.91 Z" />
<path fill="#94a1a4" opacity="1.00" d=" M 140.15 136.92 C 142.93 131.22 145.97 125.62 149.79 120.54 C 149.97 123.71 147.10 128.15 150.64 130.27 C 151.65 131.09 152.70 131.87 153.74 132.66 C 151.61 136.17 148.70 139.67 148.76 144.00 C 148.75 147.24 150.57 150.03 152.02 152.79 C 149.14 151.18 145.92 149.90 143.65 147.42 C 141.57 144.31 140.74 140.56 140.15 136.92 Z" />
<path fill="#496d85" opacity="1.00" d=" M 240.20 121.47 C 241.78 121.22 242.76 124.90 240.94 125.28 C 239.53 124.71 239.53 122.59 240.20 121.47 Z" />
<path fill="#253066" opacity="1.00" d=" M 375.39 122.17 C 377.16 126.17 377.65 131.81 382.42 133.45 C 391.36 137.23 400.81 139.63 410.17 142.15 C 409.88 142.56 409.31 143.39 409.03 143.81 L 408.33 144.97 C 404.80 143.89 401.25 142.80 398.04 140.95 C 394.80 139.08 390.92 140.18 387.44 140.57 C 384.07 141.27 379.42 142.04 378.51 146.02 C 379.46 149.21 381.83 151.70 383.39 154.59 C 385.47 157.86 386.72 161.89 389.99 164.23 C 394.25 166.06 399.06 165.98 403.44 167.43 C 403.69 167.92 404.19 168.91 404.44 169.41 C 396.22 167.76 388.39 164.39 380.04 163.35 C 375.20 163.08 370.68 165.22 366.25 166.88 C 366.22 165.38 366.04 163.87 366.24 162.38 C 367.38 160.27 368.67 158.26 369.93 156.23 C 364.23 156.00 358.45 155.86 352.86 157.24 C 351.75 157.45 350.65 157.59 349.53 157.61 C 344.73 157.33 340.22 159.22 335.57 160.02 C 340.05 156.41 345.57 154.51 350.31 151.30 C 354.01 148.81 358.39 146.47 360.06 142.05 C 361.42 138.46 361.62 134.59 362.27 130.84 L 362.49 131.43 C 362.63 131.82 362.93 132.60 363.07 132.99 C 366.65 130.62 370.32 128.33 373.59 125.53 C 374.69 124.74 375.18 123.47 375.39 122.17 Z" />
<path fill="#222e40" opacity="1.00" d=" M 427.67 122.04 C 429.10 124.03 433.09 126.27 431.07 128.98 C 427.68 133.45 423.94 137.65 420.90 142.38 C 410.05 139.16 399.10 136.07 388.32 132.69 L 388.30 132.33 C 388.49 132.26 388.87 132.12 389.06 132.05 C 399.67 132.66 410.30 131.41 420.92 131.01 C 421.88 129.78 422.86 128.56 423.82 127.31 C 425.13 125.58 426.40 123.80 427.67 122.04 Z" />
<path fill="#252e63" opacity="1.00" d=" M 250.58 125.09 C 251.32 124.29 252.06 123.49 252.80 122.69 C 260.48 124.17 268.42 122.93 276.21 122.97 C 274.47 126.94 270.80 129.76 267.52 132.43 C 264.89 133.15 261.96 135.09 259.27 133.87 C 257.54 129.90 254.11 127.36 250.58 125.09 Z" />
<path fill="#496d84" opacity="1.00" d=" M 306.07 123.67 L 307.01 124.55 C 315.42 131.32 324.58 137.34 334.52 141.63 C 335.61 143.13 336.95 144.49 337.82 146.15 C 328.96 149.13 320.53 153.21 312.16 157.34 C 309.72 154.63 306.78 152.10 305.54 148.57 C 304.61 145.09 304.31 141.48 303.84 137.92 C 303.20 133.05 304.79 128.30 306.07 123.67 Z" />
<path fill="#243870" opacity="1.00" d=" M 247.06 126.87 C 248.22 126.26 249.40 125.67 250.58 125.09 C 254.11 127.36 257.54 129.90 259.27 133.87 C 261.96 135.09 264.89 133.15 267.52 132.43 C 265.07 135.12 262.33 137.57 259.12 139.30 C 256.22 138.55 253.25 138.96 250.31 138.96 C 247.63 138.39 244.48 138.28 242.39 136.33 C 240.95 131.73 246.48 129.75 249.15 127.18 C 248.63 127.10 247.59 126.95 247.06 126.87 Z" />
<path fill="#3c70af" opacity="1.00" d=" M 230.77 126.66 C 232.89 126.26 235.02 125.89 237.15 125.55 C 238.92 129.87 243.76 127.46 247.06 126.87 C 247.59 126.95 248.63 127.10 249.15 127.18 C 246.48 129.75 240.95 131.73 242.39 136.33 C 244.48 138.28 247.63 138.39 250.31 138.96 C 246.91 138.81 243.51 138.91 240.12 138.62 C 236.64 134.97 233.62 130.83 230.77 126.66 Z" />
<path fill="#496d84" opacity="1.00" d=" M 380.06 126.46 C 394.65 126.01 409.24 126.66 423.82 127.31 C 422.86 128.56 421.88 129.78 420.92 131.01 C 410.30 131.41 399.67 132.66 389.06 132.05 C 388.87 132.12 388.49 132.26 388.30 132.33 L 387.89 132.49 C 384.70 131.34 380.93 130.21 380.06 126.46 Z" />
<path fill="#496d84" opacity="1.00" d=" M 64.67 129.38 C 66.50 128.72 68.31 128.02 70.11 127.29 C 77.56 132.73 86.14 136.33 94.02 141.09 C 86.56 145.20 78.85 148.88 71.83 153.75 C 67.47 152.37 62.85 151.96 58.30 152.36 C 60.25 144.78 62.74 137.34 64.58 129.73 L 64.67 129.38 Z" />
<path fill="#94a1a4" opacity="1.00" d=" M 26.22 153.89 C 37.89 144.27 50.70 135.78 64.58 129.73 C 62.74 137.34 60.25 144.78 58.30 152.36 C 50.57 153.73 40.75 155.48 37.65 163.84 C 35.73 168.30 34.08 172.88 32.52 177.48 C 28.88 174.81 24.83 172.35 20.20 172.09 C 19.04 172.92 17.86 173.73 16.67 174.54 C 16.04 171.06 15.32 167.58 15.22 164.04 C 16.07 165.32 16.91 166.62 17.76 167.91 C 21.57 163.13 26.47 159.11 29.07 153.46 C 28.36 153.57 26.94 153.78 26.22 153.89 Z" />
<path fill="#141a3a" opacity="1.00" d=" M 220.93 135.67 C 224.34 134.54 227.64 133.10 230.98 131.77 C 234.10 135.11 236.57 139.23 240.62 141.57 C 238.68 142.60 237.08 144.13 235.67 145.80 C 231.28 147.12 227.20 149.24 223.01 151.05 C 223.28 148.76 224.61 145.44 221.63 144.35 C 217.82 143.36 213.97 145.62 210.07 145.18 C 214.06 142.50 218.55 140.06 220.93 135.67 Z" />
<path fill="#496d84" opacity="1.00" d=" M 98.58 139.86 C 100.50 137.73 102.47 135.63 104.30 133.42 C 110.51 139.02 117.48 143.70 123.88 149.08 C 126.04 151.12 129.10 151.25 131.88 151.62 C 129.51 146.88 126.41 142.56 123.91 137.89 C 124.46 138.33 125.56 139.20 126.11 139.63 C 129.19 142.80 132.15 146.08 135.38 149.10 C 133.34 151.63 132.05 154.63 130.35 157.38 C 129.69 158.63 127.95 159.13 126.82 158.20 C 122.90 155.95 119.45 153.00 115.70 150.50 C 115.43 152.87 115.19 155.26 114.72 157.61 L 114.06 159.06 C 113.66 157.00 113.64 154.58 111.75 153.23 C 107.33 149.48 102.75 145.59 97.24 143.55 C 101.01 148.53 106.63 151.61 110.81 156.18 C 110.91 156.96 111.12 158.50 111.22 159.28 C 109.57 158.31 107.89 157.36 106.42 156.13 C 101.90 152.06 97.06 147.72 95.77 141.48 C 98.20 142.01 100.64 142.50 103.12 142.80 C 101.65 141.76 100.12 140.80 98.58 139.86 Z" />
<path fill="#94a1a4" opacity="1.00" d=" M 104.30 133.42 C 111.15 132.11 117.42 136.36 123.91 137.89 C 126.41 142.56 129.51 146.88 131.88 151.62 C 129.10 151.25 126.04 151.12 123.88 149.08 C 117.48 143.70 110.51 139.02 104.30 133.42 Z" />
<path fill="#222e40" opacity="1.00" d=" M 350.14 136.22 C 352.38 133.51 355.74 133.09 359.06 133.45 C 358.73 135.15 358.49 136.87 358.27 138.59 C 355.49 138.07 352.74 137.34 350.14 136.22 Z" />
<path fill="#4894da" opacity="1.00" d=" M 155.59 134.30 C 156.37 135.18 157.16 136.06 157.89 137.00 C 156.64 140.76 158.52 144.49 159.47 148.10 C 158.21 146.17 156.92 144.20 155.09 142.76 C 152.31 144.76 154.12 148.30 155.29 150.71 C 156.27 152.96 158.27 154.44 160.32 155.67 C 160.40 153.89 160.49 152.11 160.48 150.33 C 161.74 152.42 163.00 154.51 164.17 156.65 C 163.90 161.15 163.96 165.68 163.46 170.17 C 162.79 166.75 162.86 163.07 161.02 159.98 C 158.62 154.77 152.91 151.68 151.55 145.90 C 150.36 141.52 153.56 137.83 155.59 134.30 Z" />
<path fill="#4180c1" opacity="1.00" d=" M 342.15 137.16 C 342.86 137.04 344.28 136.82 344.99 136.70 C 344.45 140.26 345.23 143.76 346.82 146.94 C 345.28 149.09 343.24 150.83 340.66 151.57 C 331.24 154.83 322.16 159.01 312.66 162.06 C 313.47 161.05 314.27 160.05 315.08 159.04 C 321.42 155.44 328.19 152.55 334.99 149.90 C 337.53 148.80 340.61 148.36 342.37 146.01 C 340.39 144.57 338.03 143.48 337.27 140.95 C 337.96 140.22 338.64 139.49 339.32 138.75 C 339.13 140.05 338.59 141.41 339.23 142.68 C 340.91 142.70 341.57 140.70 342.70 139.75 C 342.59 139.22 342.36 138.14 342.25 137.61 L 342.15 137.16 Z" />
<path fill="#23457f" opacity="1.00" d=" M 344.99 136.70 C 349.62 139.47 354.84 140.87 360.06 142.05 C 358.39 146.47 354.01 148.81 350.31 151.30 C 345.57 154.51 340.05 156.41 335.57 160.02 C 340.22 159.22 344.73 157.33 349.53 157.61 C 342.19 159.97 335.10 162.94 327.97 165.85 C 324.35 167.16 320.73 168.78 316.82 168.88 C 319.02 167.56 321.19 166.20 323.39 164.87 C 317.69 165.92 312.44 168.51 306.81 169.79 C 305.01 170.45 303.97 168.58 302.78 167.65 C 306.04 165.72 309.27 163.75 312.66 162.06 C 322.16 159.01 331.24 154.83 340.66 151.57 C 343.24 150.83 345.28 149.09 346.82 146.94 C 345.23 143.76 344.45 140.26 344.99 136.70 Z" />
<path fill="#bcd5ed" opacity="1.00" d=" M 339.32 138.75 C 340.05 138.46 341.51 137.89 342.25 137.61 C 342.36 138.14 342.59 139.22 342.70 139.75 C 341.57 140.70 340.91 142.70 339.23 142.68 C 338.59 141.41 339.13 140.05 339.32 138.75 Z" />
<path fill="#94a1a4" opacity="1.00" d=" M 94.02 141.09 C 94.60 141.21 95.18 141.35 95.77 141.48 C 97.06 147.72 101.90 152.06 106.42 156.13 C 99.44 157.24 94.23 162.63 90.29 168.11 C 87.82 167.09 85.37 166.03 82.97 164.87 C 82.48 158.97 76.94 155.45 71.83 153.75 C 78.85 148.88 86.56 145.20 94.02 141.09 Z" />
<path fill="#222e40" opacity="1.00" d=" M 235.67 145.80 C 237.08 144.13 238.68 142.60 240.62 141.57 C 242.24 141.61 243.85 141.77 245.46 142.05 C 241.48 146.86 236.48 151.03 234.01 156.90 C 240.36 154.40 246.39 151.15 252.36 147.86 C 251.63 150.54 251.51 154.29 248.36 155.30 C 239.35 159.26 230.09 162.68 221.30 167.13 C 220.06 167.56 219.30 168.52 219.27 169.85 C 218.69 170.07 218.09 170.26 217.50 170.44 C 213.80 171.34 210.14 172.39 206.57 173.73 C 207.43 177.30 208.64 180.80 210.43 184.03 C 213.31 182.01 216.18 179.96 219.02 177.88 C 218.60 176.62 218.17 175.36 217.75 174.10 C 222.55 171.52 227.93 170.01 232.33 166.69 C 232.57 166.19 233.06 165.18 233.30 164.67 C 236.20 162.49 240.06 161.65 243.37 160.09 C 242.79 162.43 241.76 164.61 240.66 166.74 C 237.35 164.55 233.71 166.92 230.96 168.88 C 228.93 170.45 229.61 173.31 229.31 175.53 C 229.21 177.71 227.69 179.53 225.70 180.31 C 225.75 178.16 225.82 176.03 225.89 173.89 C 224.47 174.26 223.04 174.64 221.62 175.01 C 221.61 177.39 221.61 179.77 221.61 182.15 C 216.19 183.78 210.87 185.96 206.38 189.47 C 205.06 187.81 203.76 186.15 202.46 184.49 C 204.27 180.74 205.07 176.54 203.73 172.49 C 201.15 171.52 198.64 170.38 196.22 169.07 C 199.32 167.48 202.50 166.04 205.72 164.68 C 206.15 163.43 206.59 162.19 207.03 160.94 C 199.54 162.38 192.05 163.91 184.45 164.65 C 182.33 164.26 180.39 163.22 178.70 161.91 C 191.31 160.23 203.75 157.58 216.16 154.86 C 214.71 157.09 213.44 159.42 212.09 161.71 C 217.69 159.25 223.60 157.58 229.29 155.36 C 233.86 153.83 235.37 148.71 237.99 145.16 L 235.67 145.80 Z" />
<path fill="#496d84" opacity="1.00" d=" M 245.46 142.05 L 245.79 141.68 C 248.80 141.76 251.82 141.73 254.84 141.71 C 254.10 143.76 253.94 146.24 252.36 147.86 C 246.39 151.15 240.36 154.40 234.01 156.90 C 236.48 151.03 241.48 146.86 245.46 142.05 Z" />
<path fill="#33679a" opacity="1.00" d=" M 410.17 142.15 C 413.77 141.38 411.27 146.13 409.03 143.81 C 409.31 143.39 409.88 142.56 410.17 142.15 Z" />
<path fill="#224c88" opacity="1.00" d=" M 155.09 142.76 C 156.92 144.20 158.21 146.17 159.47 148.10 C 159.88 148.80 160.33 149.51 160.48 150.33 C 160.49 152.11 160.40 153.89 160.32 155.67 C 158.27 154.44 156.27 152.96 155.29 150.71 C 154.12 148.30 152.31 144.76 155.09 142.76 Z" />
<path fill="#94a1a4" opacity="1.00" d=" M 381.18 145.80 C 386.45 143.10 393.22 141.48 398.76 144.29 C 406.33 147.17 414.15 149.46 421.50 152.92 C 410.84 155.90 399.98 159.16 388.78 158.68 C 386.61 154.18 383.89 149.99 381.18 145.80 Z" />
<path fill="#1c263e" opacity="1.00" d=" M 210.07 145.18 C 213.97 145.62 217.82 143.36 221.63 144.35 C 224.61 145.44 223.28 148.76 223.01 151.05 C 221.94 151.54 220.88 152.04 219.84 152.59 C 218.58 152.03 217.28 151.91 215.94 152.22 C 207.24 153.91 198.67 156.80 189.73 156.97 C 196.28 152.65 203.07 148.72 210.07 145.18 Z" />
<path fill="#94a1a4" opacity="1.00" d=" M 223.01 151.05 C 227.20 149.24 231.28 147.12 235.67 145.80 L 237.99 145.16 C 235.37 148.71 233.86 153.83 229.29 155.36 C 223.60 157.58 217.69 159.25 212.09 161.71 C 213.44 159.42 214.71 157.09 216.16 154.86 C 217.29 153.96 218.58 153.30 219.84 152.59 C 220.88 152.04 221.94 151.54 223.01 151.05 Z" />
<path fill="#000000" opacity="1.00" d=" M 37.65 163.84 C 40.75 155.48 50.57 153.73 58.30 152.36 C 62.85 151.96 67.47 152.37 71.83 153.75 C 76.94 155.45 82.48 158.97 82.97 164.87 C 82.79 170.65 81.48 176.31 79.97 181.86 C 79.23 184.20 78.22 186.62 76.09 188.03 C 69.21 193.11 61.75 197.70 53.38 199.84 C 52.03 197.70 50.68 195.56 49.30 193.44 C 43.40 184.64 36.20 175.09 37.65 163.84 M 58.04 155.88 L 57.28 154.63 L 56.59 155.35 C 54.19 155.85 51.68 156.08 49.44 157.16 C 45.62 157.81 41.46 159.60 39.94 163.46 C 38.57 173.72 45.19 182.49 50.25 190.75 C 51.52 192.85 52.83 194.92 54.19 196.97 C 60.84 194.96 66.56 190.98 72.42 187.40 C 74.46 186.08 76.86 184.69 77.19 182.02 C 78.62 176.13 80.59 170.14 80.18 164.02 C 78.90 159.05 73.54 156.98 69.10 155.68 C 65.75 155.04 62.32 154.42 58.91 154.92 C 58.69 155.16 58.26 155.64 58.04 155.88 Z" />
<path fill="#9ff2ff" opacity="1.00" d=" M 26.22 153.89 C 26.94 153.78 28.36 153.57 29.07 153.46 C 26.47 159.11 21.57 163.13 17.76 167.91 C 16.91 166.62 16.07 165.32 15.22 164.04 C 18.61 160.37 22.16 156.81 26.22 153.89 Z" />
<path fill="#222e40" opacity="1.00" d=" M 388.78 158.68 C 399.98 159.16 410.84 155.90 421.50 152.92 C 421.46 158.23 418.80 163.07 416.65 167.80 C 407.96 164.97 398.88 163.83 390.00 161.81 C 389.59 160.77 389.18 159.72 388.78 158.68 Z" />
<path fill="#93a0a3" opacity="1.00" d=" M 58.04 155.88 C 58.26 155.64 58.69 155.16 58.91 154.92 C 62.32 154.42 65.75 155.04 69.10 155.68 C 66.36 165.16 64.65 175.10 60.24 184.00 C 56.76 179.50 53.77 174.45 52.18 168.97 C 52.32 164.03 56.05 160.19 58.04 155.88 Z" />
<path fill="#93a0a4" opacity="1.00" d=" M 49.44 157.16 C 51.68 156.08 54.19 155.85 56.59 155.35 C 53.04 159.72 47.35 163.78 47.26 169.86 C 49.70 175.87 53.41 181.32 56.53 187.01 C 54.44 188.26 52.35 189.51 50.25 190.75 C 45.19 182.49 38.57 173.72 39.94 163.46 C 44.02 162.99 47.10 160.35 49.44 157.16 Z" />
<path fill="#486c83" opacity="1.00" d=" M 56.59 155.35 L 57.28 154.63 L 58.04 155.88 C 56.05 160.19 52.32 164.03 52.18 168.97 C 53.77 174.45 56.76 179.50 60.24 184.00 C 64.65 175.10 66.36 165.16 69.10 155.68 C 73.54 156.98 78.90 159.05 80.18 164.02 C 80.59 170.14 78.62 176.13 77.19 182.02 C 76.86 184.69 74.46 186.08 72.42 187.40 C 66.56 190.98 60.84 194.96 54.19 196.97 C 52.83 194.92 51.52 192.85 50.25 190.75 C 52.35 189.51 54.44 188.26 56.53 187.01 C 53.41 181.32 49.70 175.87 47.26 169.86 C 47.35 163.78 53.04 159.72 56.59 155.35 Z" />
<path fill="#2d427b" opacity="1.00" d=" M 352.86 157.24 C 358.45 155.86 364.23 156.00 369.93 156.23 C 368.67 158.26 367.38 160.27 366.24 162.38 C 365.69 161.84 364.59 160.77 364.04 160.23 C 358.49 161.99 353.30 164.83 347.54 165.92 C 348.79 163.44 350.70 161.41 352.70 159.52 C 352.74 158.95 352.82 157.81 352.86 157.24 Z" />
<path fill="#8ccdd3" opacity="1.00" d=" M 39.94 163.46 C 41.46 159.60 45.62 157.81 49.44 157.16 C 47.10 160.35 44.02 162.99 39.94 163.46 Z" />
<path fill="#93a0a3" opacity="1.00" d=" M 94.18 167.19 C 97.22 163.39 101.09 160.14 105.78 158.64 C 106.88 159.36 107.97 160.08 109.06 160.80 C 105.00 162.85 101.59 165.89 98.43 169.12 C 97.01 168.48 95.59 167.84 94.18 167.19 Z" />
<path fill="#ccd4dd" opacity="1.00" d=" M 303.20 164.93 C 306.89 162.52 311.02 160.76 315.08 159.04 C 314.27 160.05 313.47 161.05 312.66 162.06 C 309.27 163.75 306.04 165.72 302.78 167.65 C 302.54 167.43 302.07 167.00 301.83 166.78 C 302.17 166.32 302.86 165.40 303.20 164.93 Z" />
<path fill="#93a0a3" opacity="1.00" d=" M 99.27 172.94 C 102.62 166.86 108.72 163.13 115.13 160.95 L 115.22 161.80 C 115.85 169.63 116.41 177.49 116.06 185.36 C 112.37 184.94 108.70 184.41 105.07 183.67 C 104.97 181.84 104.97 180.01 104.64 178.21 C 103.30 176.06 101.12 174.62 99.27 172.94 Z" />
<path fill="#496d84" opacity="1.00" d=" M 184.45 164.65 C 192.05 163.91 199.54 162.38 207.03 160.94 C 206.59 162.19 206.15 163.43 205.72 164.68 C 202.50 166.04 199.32 167.48 196.22 169.07 L 195.88 169.24 C 192.08 167.68 188.21 166.30 184.45 164.65 Z" />
<path fill="#496d84" opacity="1.00" d=" M 323.82 170.15 C 332.02 167.68 339.36 163.02 347.68 160.92 C 346.59 162.66 345.51 164.40 344.46 166.16 C 345.98 169.55 349.69 167.63 352.43 167.41 C 353.14 167.41 354.56 167.42 355.27 167.42 C 355.34 170.60 357.05 173.15 359.74 174.73 C 357.07 176.04 354.31 177.28 352.03 179.22 C 350.89 180.07 350.95 182.03 352.19 182.77 C 353.82 184.02 355.71 184.88 357.50 185.88 C 354.18 185.73 350.82 185.86 347.56 185.16 C 344.24 183.69 341.23 181.61 338.01 179.93 C 333.07 177.02 327.75 174.45 323.82 170.15 Z" />
<path fill="#496c83" opacity="1.00" d=" M 115.22 161.80 C 116.06 162.88 116.52 164.14 116.59 165.52 C 120.60 168.00 122.61 172.37 124.60 176.44 C 127.12 181.89 128.57 187.94 128.03 193.97 C 119.96 193.17 111.94 191.78 103.99 190.19 C 101.32 189.96 99.56 187.62 99.18 185.12 C 98.24 181.14 97.67 176.83 99.27 172.94 C 101.12 174.62 103.30 176.06 104.64 178.21 C 104.97 180.01 104.97 181.84 105.07 183.67 C 108.70 184.41 112.37 184.94 116.06 185.36 C 116.41 177.49 115.85 169.63 115.22 161.80 Z" />
<path fill="#94a1a4" opacity="1.00" d=" M 352.43 167.41 C 356.18 165.99 359.44 163.52 363.30 162.36 C 363.62 163.93 363.96 165.50 364.11 167.10 C 362.48 169.70 363.08 173.34 359.74 174.73 C 357.05 173.15 355.34 170.60 355.27 167.42 C 354.56 167.42 353.14 167.41 352.43 167.41 Z" />
<path fill="#496d84" opacity="1.00" d=" M 32.52 177.48 C 34.08 172.88 35.73 168.30 37.65 163.84 C 36.20 175.09 43.40 184.64 49.30 193.44 C 48.15 195.26 46.98 197.07 45.78 198.85 C 43.16 190.80 39.07 183.03 32.52 177.48 Z" />
<path fill="#486b83" opacity="1.00" d=" M 82.97 164.87 C 85.37 166.03 87.82 167.09 90.29 168.11 C 88.75 171.67 88.28 175.59 89.51 179.33 C 86.63 180.79 84.02 182.71 81.27 184.39 C 80.58 184.46 79.89 184.52 79.20 184.59 C 79.40 183.90 79.78 182.54 79.97 181.86 C 81.48 176.31 82.79 170.65 82.97 164.87 Z" />
<path fill="#98a5a8" opacity="1.00" d=" M 219.27 169.85 C 224.00 168.26 228.44 165.88 233.30 164.67 C 233.06 165.18 232.57 166.19 232.33 166.69 C 227.93 170.01 222.55 171.52 217.75 174.10 C 216.47 174.76 215.20 175.42 213.93 176.08 C 215.10 174.19 216.30 172.31 217.50 170.44 C 218.09 170.26 218.69 170.07 219.27 169.85 Z" />
<path fill="#4181c3" opacity="1.00" d=" M 269.77 180.49 C 279.84 173.28 291.89 169.67 303.20 164.93 C 302.86 165.40 302.17 166.32 301.83 166.78 C 302.07 167.00 302.54 167.43 302.78 167.65 C 303.97 168.58 305.01 170.45 306.81 169.79 C 312.44 168.51 317.69 165.92 323.39 164.87 C 321.19 166.20 319.02 167.56 316.82 168.88 C 308.25 172.59 298.90 174.00 289.90 176.33 C 283.18 177.68 276.60 179.80 269.77 180.49 Z" />
<path fill="#496d84" opacity="1.00" d=" M 230.96 168.88 C 233.71 166.92 237.35 164.55 240.66 166.74 C 238.07 170.96 232.70 172.06 229.31 175.53 C 229.61 173.31 228.93 170.45 230.96 168.88 Z" />
<path fill="#94a1a4" opacity="1.00" d=" M 364.91 169.14 C 370.47 168.28 375.78 164.32 381.51 166.16 C 390.58 168.27 399.64 170.57 408.27 174.15 C 404.46 176.07 400.78 178.24 397.07 180.33 C 389.17 179.63 381.32 178.54 373.43 177.74 C 370.08 175.52 367.12 172.53 364.91 169.14 Z" />
<path fill="#496c83" opacity="1.00" d=" M 95.94 184.45 C 91.03 180.25 89.76 172.22 94.18 167.19 C 95.59 167.84 97.01 168.48 98.43 169.12 C 96.19 173.91 94.86 179.16 95.94 184.45 Z" />
<path fill="#4b9ae2" opacity="1.00" d=" M 234.73 174.76 C 238.16 172.90 241.43 170.11 245.51 169.97 L 246.77 171.22 C 241.61 173.54 236.47 176.01 231.76 179.18 C 232.73 180.08 233.70 180.97 234.68 181.87 C 232.41 182.41 230.04 182.78 227.97 183.91 C 226.33 184.74 226.40 186.82 225.90 188.34 C 225.34 187.19 224.79 186.05 224.23 184.92 C 221.58 185.68 219.19 187.06 217.26 189.04 C 218.94 189.74 220.64 190.41 222.38 190.93 C 219.89 191.35 217.39 190.95 214.89 190.83 C 210.66 192.16 207.15 195.04 203.11 196.81 C 206.15 192.89 209.99 189.50 214.61 187.59 C 218.73 185.53 223.36 184.76 227.47 182.70 C 230.98 181.10 231.21 176.38 234.73 174.76 Z" />
<path fill="#496d84" opacity="1.00" d=" M 206.57 173.73 C 210.14 172.39 213.80 171.34 217.50 170.44 C 216.30 172.31 215.10 174.19 213.93 176.08 C 215.20 175.42 216.47 174.76 217.75 174.10 C 218.17 175.36 218.60 176.62 219.02 177.88 C 216.18 179.96 213.31 182.01 210.43 184.03 C 208.64 180.80 207.43 177.30 206.57 173.73 Z" />
<path fill="#214b87" opacity="1.00" d=" M 246.77 171.22 L 247.08 171.08 C 248.15 174.88 244.13 176.51 241.83 178.59 L 241.53 178.39 C 240.22 177.21 238.28 178.65 238.09 180.13 L 237.90 180.72 C 236.82 181.10 235.75 181.49 234.68 181.87 C 233.70 180.97 232.73 180.08 231.76 179.18 C 236.47 176.01 241.61 173.54 246.77 171.22 Z" />
<path fill="#4a6f86" opacity="1.00" d=" M 221.62 175.01 C 223.04 174.64 224.47 174.26 225.89 173.89 C 225.82 176.03 225.75 178.16 225.70 180.31 L 225.68 180.74 C 224.32 181.21 222.96 181.68 221.61 182.15 C 221.61 179.77 221.61 177.39 221.62 175.01 Z" />
<path fill="#28346a" opacity="1.00" d=" M 353.32 181.02 C 357.21 178.53 361.74 176.97 364.88 173.45 C 369.71 178.80 375.49 183.15 380.66 188.15 C 380.68 191.39 381.19 194.60 382.13 197.70 C 378.74 197.08 375.22 197.13 372.12 198.81 L 371.91 198.89 C 371.30 198.24 370.70 197.58 370.11 196.93 C 371.21 195.00 373.73 192.94 372.49 190.53 C 370.13 188.20 366.75 187.36 363.65 186.46 C 359.84 185.47 356.53 183.22 353.32 181.02 Z" />
<path fill="#222e40" opacity="1.00" d=" M 408.27 174.15 C 409.49 174.48 410.53 175.25 411.66 175.81 C 410.59 180.27 410.08 185.39 406.94 188.93 C 401.46 190.20 395.82 190.64 390.27 191.51 C 387.60 192.14 386.07 189.30 384.44 187.74 C 388.65 185.27 392.82 182.73 397.07 180.33 C 400.78 178.24 404.46 176.07 408.27 174.15 Z" />
<path fill="#94a1a4" opacity="1.00" d=" M 15.08 179.95 C 16.89 176.88 20.16 174.35 23.91 175.37 C 22.09 181.77 21.31 188.39 20.23 194.94 C 19.98 197.31 17.59 198.44 16.09 199.98 C 14.32 196.60 11.93 193.54 10.52 189.97 C 10.04 186.09 13.24 183.06 15.08 179.95 Z" />
<path fill="#4c9ee7" opacity="1.00" d=" M 196.96 181.52 C 198.03 178.83 200.03 176.71 201.96 174.63 C 201.75 176.72 201.83 178.91 201.05 180.90 C 199.75 181.39 198.32 181.37 196.96 181.52 Z" />
<path fill="#496d84" opacity="1.00" d=" M 23.91 175.37 C 25.44 176.30 26.99 177.20 28.55 178.07 C 27.51 182.29 26.80 186.58 26.37 190.91 C 29.08 188.42 31.63 185.76 34.09 183.02 C 34.93 184.06 35.78 185.10 36.63 186.13 C 34.53 189.52 32.20 192.76 30.14 196.17 C 28.50 198.81 29.01 202.07 28.76 205.02 C 28.71 209.72 27.52 214.28 26.31 218.78 C 22.63 212.67 19.66 206.16 16.09 199.98 C 17.59 198.44 19.98 197.31 20.23 194.94 C 21.31 188.39 22.09 181.77 23.91 175.37 Z" />
<path fill="#4895da" opacity="1.00" d=" M 238.09 180.13 C 238.28 178.65 240.22 177.21 241.53 178.39 C 240.86 179.95 239.71 180.53 238.09 180.13 Z" />
<path fill="#496d84" opacity="1.00" d=" M 254.91 177.69 C 257.55 180.09 256.01 184.44 256.43 187.66 C 255.48 188.40 254.53 189.14 253.59 189.88 C 254.56 193.87 253.33 198.49 256.14 201.89 C 259.20 206.99 263.93 211.34 265.09 217.38 C 261.67 211.58 258.03 205.90 253.77 200.66 C 247.27 204.26 240.63 207.61 233.70 210.32 C 237.21 214.11 240.80 217.83 244.51 221.43 C 251.81 228.47 260.57 233.80 269.58 238.37 C 269.94 241.06 269.98 243.78 269.88 246.49 C 260.76 239.91 252.08 232.73 243.33 225.68 C 237.38 221.00 232.24 215.38 226.29 210.73 C 219.95 209.77 213.47 210.17 207.10 210.76 C 203.24 211.28 199.22 211.81 195.76 213.74 C 192.66 215.71 191.45 219.40 189.25 222.18 C 184.22 224.89 178.93 227.25 173.46 228.93 C 179.44 217.81 187.33 207.91 193.89 197.17 C 189.09 199.07 184.45 201.89 179.11 201.79 C 180.20 200.99 181.33 200.25 182.48 199.53 C 182.79 196.57 183.03 193.60 183.23 190.64 C 190.06 193.52 197.88 189.72 202.46 184.49 C 203.76 186.15 205.06 187.81 206.38 189.47 C 204.15 192.19 199.59 194.46 200.41 198.57 C 203.89 199.86 207.09 196.69 210.32 195.69 C 208.99 198.97 207.61 202.23 205.99 205.38 C 220.59 200.60 235.45 195.82 248.58 187.66 C 252.06 185.74 254.33 182.17 254.79 178.25 L 254.91 177.69 Z" />
<path fill="#496d84" opacity="1.00" d=" M 373.43 177.74 C 381.32 178.54 389.17 179.63 397.07 180.33 C 392.82 182.73 388.65 185.27 384.44 187.74 L 384.14 187.92 C 380.67 184.42 376.81 181.33 373.43 177.74 Z" />
<path fill="#94a1a4" opacity="1.00" d=" M 26.37 190.91 C 26.80 186.58 27.51 182.29 28.55 178.07 C 30.52 179.58 32.36 181.25 34.09 183.02 C 31.63 185.76 29.08 188.42 26.37 190.91 Z" />
<path fill="#94a1a4" opacity="1.00" d=" M 239.72 182.62 C 244.70 181.02 249.73 179.56 254.79 178.25 C 254.33 182.17 252.06 185.74 248.58 187.66 C 235.45 195.82 220.59 200.60 205.99 205.38 C 207.61 202.23 208.99 198.97 210.32 195.69 C 212.01 194.05 214.57 192.87 217.00 193.32 C 222.06 194.31 228.05 191.18 228.89 185.81 C 230.73 185.19 232.86 185.09 234.27 186.66 C 235.96 185.16 237.44 183.23 239.72 182.62 Z" />
<path fill="#141a3a" opacity="1.00" d=" M 76.09 188.03 C 78.22 186.62 79.23 184.20 79.97 181.86 C 79.78 182.54 79.40 183.90 79.20 184.59 C 79.89 184.52 80.58 184.46 81.27 184.39 C 82.48 184.52 83.68 184.70 84.89 184.91 C 81.97 188.89 79.38 193.11 76.40 197.05 C 74.23 199.64 72.26 202.49 71.86 205.94 C 74.37 205.69 76.88 205.38 79.32 204.70 C 78.90 206.67 78.35 208.64 78.40 210.67 C 79.07 213.52 81.43 215.88 84.13 216.89 C 87.33 216.91 90.25 215.25 93.06 213.90 C 89.94 217.50 86.33 220.65 82.64 223.64 C 79.92 225.78 76.72 227.94 73.07 227.41 C 63.52 226.42 54.14 224.30 44.71 222.55 C 42.62 222.19 40.42 221.56 39.16 219.71 C 39.84 216.77 41.29 214.00 42.12 211.08 C 44.21 207.37 47.95 203.61 45.66 199.04 L 45.78 198.85 C 46.98 197.07 48.15 195.26 49.30 193.44 C 50.68 195.56 52.03 197.70 53.38 199.84 C 61.75 197.70 69.21 193.11 76.09 188.03 Z" />
<path fill="#344c67" opacity="1.00" d=" M 84.89 184.91 C 87.32 184.88 89.76 184.80 92.19 184.59 C 92.62 185.41 93.06 186.23 93.50 187.05 C 90.18 191.59 87.57 196.63 83.90 200.92 C 81.36 199.70 78.86 198.42 76.40 197.05 C 79.38 193.11 81.97 188.89 84.89 184.91 Z" />
<path fill="#1a233d" opacity="1.00" d=" M 92.19 184.59 C 95.84 185.42 97.38 188.98 99.47 191.66 C 100.98 192.62 102.86 192.89 104.29 193.98 C 104.65 198.61 103.89 203.97 100.25 207.23 C 97.84 209.44 95.62 211.86 93.06 213.90 C 90.25 215.25 87.33 216.91 84.13 216.89 C 81.43 215.88 79.07 213.52 78.40 210.67 C 78.35 208.64 78.90 206.67 79.32 204.70 C 81.00 203.64 82.54 202.37 83.90 200.92 C 87.57 196.63 90.18 191.59 93.50 187.05 C 93.06 186.23 92.62 185.41 92.19 184.59 Z" />
<path fill="#222e40" opacity="1.00" d=" M 36.63 186.13 C 39.57 190.73 41.90 195.75 43.26 201.04 C 44.06 203.07 42.38 204.76 41.47 206.41 C 37.49 212.28 33.59 218.25 29.11 223.76 C 28.13 222.13 26.93 220.59 26.31 218.78 C 27.52 214.28 28.71 209.72 28.76 205.02 C 29.01 202.07 28.50 198.81 30.14 196.17 C 32.20 192.76 34.53 189.52 36.63 186.13 Z" />
<path fill="#214a86" opacity="1.00" d=" M 217.26 189.04 C 219.19 187.06 221.58 185.68 224.23 184.92 C 224.79 186.05 225.34 187.19 225.90 188.34 C 224.75 189.23 223.62 190.16 222.38 190.93 C 220.64 190.41 218.94 189.74 217.26 189.04 Z" />
<path fill="#222e40" opacity="1.00" d=" M 253.59 189.88 C 254.53 189.14 255.48 188.40 256.43 187.66 C 256.32 189.43 256.23 191.21 256.16 192.99 C 260.19 196.54 263.73 200.61 267.34 204.59 C 274.00 212.20 278.64 221.33 282.33 230.69 C 284.71 237.70 283.37 245.39 280.92 252.20 C 277.29 250.27 273.75 248.15 269.87 246.75 L 269.88 246.49 C 269.98 243.78 269.94 241.06 269.58 238.37 C 268.89 231.22 267.46 224.17 265.09 217.38 C 263.93 211.34 259.20 206.99 256.14 201.89 C 253.33 198.49 254.56 193.87 253.59 189.88 Z" />
<path fill="#94a1a4" opacity="1.00" d=" M 2.52 201.18 C 4.21 198.34 6.54 196.00 9.11 193.95 C 10.25 195.80 11.42 197.63 12.46 199.54 C 11.58 202.26 9.80 204.52 8.05 206.73 C 5.95 205.15 3.87 203.47 2.52 201.18 Z" />
<path fill="#224d89" opacity="1.00" d=" M 115.82 195.22 C 119.91 195.77 124.73 195.72 127.21 199.64 C 126.22 200.16 125.23 200.67 124.23 201.17 C 123.57 200.89 122.25 200.32 121.58 200.03 C 121.60 201.38 121.62 202.73 121.64 204.08 C 121.24 202.00 121.25 199.74 120.18 197.88 C 118.86 196.79 117.29 196.07 115.82 195.22 Z" />
<path fill="#243452" opacity="1.00" d=" M 71.86 205.94 C 72.26 202.49 74.23 199.64 76.40 197.05 C 78.86 198.42 81.36 199.70 83.90 200.92 C 82.54 202.37 81.00 203.64 79.32 204.70 C 76.88 205.38 74.37 205.69 71.86 205.94 Z" />
<path fill="#2e4882" opacity="1.00" d=" M 372.12 198.81 C 375.22 197.13 378.74 197.08 382.13 197.70 C 384.13 202.38 386.56 206.84 388.81 211.40 C 387.57 211.87 386.34 212.34 385.10 212.80 C 384.51 209.90 384.37 206.77 382.82 204.19 C 380.89 201.78 377.45 201.96 374.76 201.05 C 373.74 200.51 372.86 199.76 372.12 198.81 Z" />
<path fill="#94a1a4" opacity="1.00" d=" M 179.11 201.79 C 184.45 201.89 189.09 199.07 193.89 197.17 C 187.33 207.91 179.44 217.81 173.46 228.93 L 173.26 229.27 C 167.86 231.58 162.43 234.03 157.90 237.86 C 155.54 239.90 152.65 241.08 149.60 241.60 C 150.03 236.92 152.42 232.78 154.79 228.83 C 161.31 218.49 170.75 210.55 179.11 201.79 Z" />
<path fill="#496d84" opacity="1.00" d=" M 12.46 199.54 C 15.30 204.69 18.20 209.81 20.75 215.10 C 16.24 212.75 12.12 209.75 8.05 206.73 C 9.80 204.52 11.58 202.26 12.46 199.54 Z" />
<path fill="#4b9ae2" opacity="1.00" d=" M 121.58 200.03 C 122.25 200.32 123.57 200.89 124.23 201.17 C 121.51 207.78 128.64 214.86 125.05 221.31 C 121.36 216.39 121.97 209.87 121.64 204.08 C 121.62 202.73 121.60 201.38 121.58 200.03 Z" />
<path fill="#94a1a4" opacity="1.00" d=" M 233.70 210.32 C 240.63 207.61 247.27 204.26 253.77 200.66 C 258.03 205.90 261.67 211.58 265.09 217.38 C 267.46 224.17 268.89 231.22 269.58 238.37 C 260.57 233.80 251.81 228.47 244.51 221.43 C 240.80 217.83 237.21 214.11 233.70 210.32 Z" />
<path fill="#345893" opacity="1.00" d=" M 374.76 201.05 C 377.45 201.96 380.89 201.78 382.82 204.19 C 384.37 206.77 384.51 209.90 385.10 212.80 C 381.94 213.59 379.49 215.70 377.70 218.35 C 377.12 216.77 376.45 215.22 375.87 213.65 C 375.84 209.42 377.99 204.67 374.76 201.05 Z" />
<path fill="#222e40" opacity="1.00" d=" M 12.89 214.02 C 15.17 215.41 17.28 217.30 20.00 217.72 C 24.83 218.10 24.85 224.26 25.68 227.89 C 20.53 228.70 15.51 230.08 10.49 231.46 C 10.59 225.57 11.64 219.76 12.89 214.02 Z" />
<path fill="#417cc0" opacity="1.00" d=" M 375.87 213.65 C 376.45 215.22 377.12 216.77 377.70 218.35 C 376.07 228.20 376.63 238.46 373.67 248.09 C 371.83 236.64 374.46 225.03 375.87 213.65 Z" />
<path fill="#496d84" opacity="1.00" d=" M 285.87 215.97 C 288.18 217.77 290.34 219.77 292.23 222.03 C 292.08 225.69 292.86 229.69 291.06 233.06 C 290.23 234.79 288.22 235.12 286.63 235.79 C 285.85 232.61 283.78 229.39 284.88 226.04 C 285.68 222.74 285.71 219.33 285.87 215.97 Z" />
<path fill="#25336b" opacity="1.00" d=" M 29.89 226.24 C 32.32 224.21 34.59 221.97 36.21 219.22 C 37.18 221.12 38.08 223.05 38.91 225.02 C 34.29 229.51 34.60 236.10 34.16 242.02 C 34.06 240.60 33.94 239.19 33.81 237.78 C 32.84 237.52 31.86 237.26 30.89 237.01 C 30.76 238.37 30.65 239.74 30.55 241.11 C 29.71 236.19 29.96 231.20 29.89 226.24 Z" />
<path fill="#222e40" opacity="1.00" d=" M 292.23 222.03 C 297.47 227.67 302.70 233.38 307.02 239.78 C 303.46 239.78 299.90 239.91 296.34 240.09 C 296.01 240.09 295.33 240.09 294.99 240.09 C 294.62 243.21 294.13 246.32 293.57 249.42 C 290.92 248.20 288.25 247.03 285.55 245.94 C 286.28 242.60 287.21 239.22 286.63 235.79 C 288.22 235.12 290.23 234.79 291.06 233.06 C 292.86 229.69 292.08 225.69 292.23 222.03 Z" />
<path fill="#222e40" opacity="1.00" d=" M 169.41 234.41 C 174.81 231.35 180.67 229.16 186.20 226.32 C 187.94 227.73 189.61 229.23 191.21 230.81 C 188.51 232.89 185.48 234.72 183.59 237.65 C 181.39 241.00 179.15 244.47 175.77 246.77 C 170.21 250.60 167.45 258.16 160.56 260.04 C 164.03 252.99 169.27 246.96 172.66 239.88 C 172.74 236.89 169.32 239.08 168.22 240.18 C 168.50 238.26 168.26 236.07 169.41 234.41 Z" />
<path fill="#3967a5" opacity="1.00" d=" M 30.89 237.01 C 31.86 237.26 32.84 237.52 33.81 237.78 C 33.94 239.19 34.06 240.60 34.16 242.02 C 34.20 243.52 34.24 245.09 33.67 246.52 C 32.90 248.40 32.05 250.26 31.37 252.18 C 30.86 248.51 30.45 244.81 30.55 241.11 C 30.65 239.74 30.76 238.37 30.89 237.01 Z" />
<path fill="#4a6e85" opacity="1.00" d=" M 168.22 240.18 C 169.32 239.08 172.74 236.89 172.66 239.88 C 169.27 246.96 164.03 252.99 160.56 260.04 C 159.46 262.28 156.88 263.04 154.84 264.13 C 160.64 256.95 164.63 248.62 168.22 240.18 Z" />
<path fill="#94a1a4" opacity="1.00" d=" M 294.99 240.09 C 295.33 240.09 296.01 240.09 296.34 240.09 C 302.95 246.12 309.22 252.60 316.49 257.86 C 319.12 261.80 320.47 266.52 322.24 270.90 C 313.84 262.33 304.27 254.90 293.57 249.42 C 294.13 246.32 294.62 243.21 294.99 240.09 Z" />
<path fill="#496d84" opacity="1.00" d=" M 296.34 240.09 C 299.90 239.91 303.46 239.78 307.02 239.78 C 310.75 245.45 314.51 251.31 316.49 257.86 C 309.22 252.60 302.95 246.12 296.34 240.09 Z" />
<path fill="#4584cb" opacity="1.00" d=" M 31.37 252.18 C 32.05 250.26 32.90 248.40 33.67 246.52 C 33.28 251.07 34.88 256.55 31.66 260.35 C 31.47 257.63 31.28 254.90 31.37 252.18 Z" />
</svg>
