<?xml version="1.0" encoding="UTF-8" ?>
<!DOCTYPE svg PUBLIC "-//W3C//DTD SVG 1.1//EN" "http://www.w3.org/Graphics/SVG/1.1/DTD/svg11.dtd">
<svg width="371pt" height="290pt" viewBox="0 0 371 290" version="1.1" xmlns="http://www.w3.org/2000/svg">
<path fill="#000000" opacity="1.00" d=" M 119.50 21.47 C 125.01 16.57 131.58 12.30 139.06 11.46 C 143.50 11.75 147.89 13.83 150.59 17.44 C 155.73 23.95 156.50 32.64 156.35 40.63 C 162.11 37.77 168.44 35.61 174.93 35.64 C 182.00 35.97 187.24 41.78 190.27 47.67 C 194.39 56.50 191.77 66.78 187.35 74.97 C 192.96 74.48 198.97 73.40 204.33 75.71 C 208.10 77.54 208.75 82.21 208.58 85.96 C 208.24 92.92 203.72 98.64 199.41 103.73 C 204.88 105.51 209.92 108.90 213.44 113.47 C 216.03 116.80 216.01 121.19 215.65 125.18 C 220.36 130.86 223.91 137.38 228.58 143.09 C 230.07 135.96 234.95 130.09 240.82 126.02 C 234.44 125.01 228.95 120.75 225.34 115.53 C 222.33 111.22 221.14 105.30 223.32 100.38 C 225.09 96.46 230.05 94.82 233.97 96.34 C 240.77 98.61 246.38 103.78 250.15 109.78 C 251.76 111.89 251.54 116.04 255.03 115.78 C 258.34 109.75 262.99 104.63 267.53 99.53 C 274.53 91.90 283.37 85.23 293.84 83.60 C 297.97 83.11 302.52 82.71 306.27 84.85 C 308.86 86.25 310.28 89.03 311.06 91.75 C 311.21 93.91 311.21 96.08 311.03 98.23 C 309.22 106.98 302.09 113.19 294.95 117.86 C 285.98 123.63 275.72 128.09 264.87 128.06 C 271.73 133.65 278.21 141.55 277.56 150.93 C 277.35 158.17 269.43 163.96 262.52 161.27 C 254.47 157.93 250.56 149.07 248.99 141.02 C 248.18 137.98 249.23 134.96 250.79 132.37 C 247.05 132.49 244.42 135.54 241.70 137.71 C 238.51 141.02 234.89 144.55 233.40 148.91 C 239.36 156.76 249.75 159.62 255.74 167.47 C 257.07 169.19 256.34 171.63 257.49 173.45 C 261.48 179.86 262.94 187.36 265.15 194.48 C 267.30 201.43 266.92 209.57 262.46 215.55 C 259.73 219.47 254.71 221.94 249.95 220.89 C 245.39 219.87 240.49 219.26 236.70 216.28 C 233.33 221.55 229.49 226.92 228.13 233.10 C 229.12 236.60 231.72 239.34 233.84 242.20 C 242.37 243.49 250.96 244.51 259.39 246.38 C 260.82 246.83 262.54 247.08 263.54 248.33 C 264.61 251.09 260.81 251.88 258.93 252.60 C 234.71 258.70 209.96 263.33 184.94 263.84 C 174.30 264.64 163.62 264.20 152.99 263.69 C 149.72 265.46 147.12 267.98 145.10 271.07 C 139.18 274.20 132.95 276.85 127.54 280.88 C 127.14 277.96 127.04 275.02 127.23 272.08 C 119.35 273.24 111.76 276.47 105.55 281.48 C 104.34 282.36 103.42 283.60 103.01 285.05 C 100.22 282.27 100.51 278.30 100.84 274.69 C 98.29 276.21 95.86 277.92 93.71 279.98 C 93.14 275.68 94.78 271.57 95.81 267.47 C 97.68 261.86 99.90 256.24 103.38 251.43 C 105.30 248.68 108.77 248.07 111.90 248.35 C 110.99 247.24 108.11 245.74 109.92 244.09 C 113.44 240.06 118.65 237.68 123.98 237.33 C 132.41 234.90 139.15 227.48 141.27 219.00 C 142.38 214.76 143.68 210.42 143.28 205.98 C 142.92 201.84 141.29 197.95 140.07 194.01 C 136.66 193.46 133.40 192.17 130.78 189.88 C 129.42 191.19 128.10 192.53 126.82 193.91 C 129.08 196.24 131.21 198.82 131.97 202.07 C 133.29 201.44 134.85 199.11 136.31 200.64 C 139.99 204.34 139.62 210.30 138.45 214.99 C 138.03 217.26 135.47 217.87 133.75 218.89 C 132.92 221.04 132.09 223.20 131.22 225.34 C 122.93 228.94 114.30 231.74 106.12 235.59 C 100.98 234.39 95.67 233.35 90.97 230.85 C 89.87 229.02 91.33 226.75 91.40 224.77 C 88.16 221.22 84.38 218.25 80.38 215.60 C 77.39 216.70 73.95 217.29 70.89 216.16 C 66.04 213.73 64.69 207.38 66.23 202.52 C 64.58 202.52 61.89 203.18 61.37 200.96 C 61.16 199.11 61.66 197.28 61.95 195.47 C 60.04 195.95 57.85 197.37 55.95 196.11 C 54.58 193.53 56.21 190.75 56.92 188.23 C 53.74 187.02 50.94 184.39 50.52 180.87 C 50.03 175.41 53.36 170.40 57.15 166.79 C 55.25 165.68 53.27 164.70 51.17 164.03 C 49.09 171.44 38.89 171.92 34.10 167.00 C 30.76 162.80 33.13 156.32 37.62 153.98 C 36.89 150.25 38.34 146.68 40.53 143.73 C 38.54 142.36 36.19 141.34 34.67 139.39 C 33.41 136.96 35.07 134.53 36.09 132.37 C 31.32 129.78 25.30 128.98 21.71 124.60 C 28.09 124.32 34.45 123.57 40.85 123.85 C 39.25 120.06 38.36 115.40 40.73 111.73 C 43.80 106.85 49.04 103.70 54.41 101.93 C 51.79 95.98 50.61 88.90 52.82 82.64 C 55.63 76.17 62.78 71.36 69.96 72.50 C 73.15 65.73 76.29 58.95 79.41 52.15 C 82.14 46.63 84.77 40.61 89.88 36.85 C 94.54 33.29 101.06 33.98 106.15 36.21 C 109.88 30.68 114.53 25.87 119.50 21.47 M 124.54 20.54 C 119.07 24.79 114.05 29.63 109.69 35.01 C 108.84 36.10 107.68 37.41 108.49 38.89 C 103.48 38.23 98.61 35.47 93.48 37.33 C 90.11 39.26 87.39 42.15 85.51 45.54 C 81.96 51.74 79.11 58.32 76.28 64.87 C 74.69 67.80 73.23 70.80 71.89 73.86 C 71.43 74.23 70.49 74.97 70.02 75.35 C 64.86 73.09 59.92 77.02 56.45 80.47 C 52.09 87.11 54.60 95.18 56.05 102.31 C 51.28 106.02 44.76 108.32 42.22 114.23 C 40.56 117.57 42.32 121.12 43.93 124.08 C 45.65 124.12 47.36 124.16 49.08 124.20 C 52.73 120.84 58.39 117.86 63.26 120.23 C 70.34 114.77 79.15 112.12 87.83 110.56 C 92.03 109.62 96.48 111.04 100.54 109.36 C 107.37 106.88 114.24 104.52 121.17 102.36 C 119.54 105.33 117.46 107.99 115.30 110.59 C 118.32 109.46 121.63 109.02 124.53 107.61 C 130.56 106.34 136.46 104.54 142.45 103.13 C 144.64 102.64 146.98 102.47 149.03 101.49 C 157.82 100.14 166.52 98.04 175.39 97.19 C 174.36 98.52 173.30 99.85 171.90 100.80 C 161.49 108.00 151.36 115.58 140.64 122.31 C 139.40 122.66 138.43 123.61 137.35 124.25 C 134.93 123.73 132.48 123.38 130.03 123.14 C 128.07 124.41 126.23 126.09 123.91 126.62 C 117.52 126.98 110.96 126.94 104.68 127.75 C 104.98 129.42 104.87 132.04 106.53 132.92 C 106.62 133.67 106.81 135.19 106.91 135.94 C 101.58 138.70 99.71 144.74 96.54 149.41 C 98.83 152.10 101.23 155.33 100.35 159.11 C 99.06 160.73 97.06 161.52 95.33 162.55 C 94.89 162.69 94.02 162.98 93.58 163.12 C 94.23 164.07 94.88 165.03 95.53 165.98 C 95.44 166.44 95.25 167.36 95.16 167.82 C 94.49 168.68 93.94 169.58 93.52 170.53 C 86.81 177.55 79.56 184.18 71.18 189.17 C 69.60 190.09 67.80 190.49 66.02 190.83 C 69.36 185.41 70.36 177.25 66.27 172.12 C 64.85 171.15 63.52 170.05 62.26 168.89 C 63.90 166.43 66.74 165.50 69.49 164.92 C 66.08 162.07 65.47 157.48 64.26 153.47 C 64.11 152.78 63.80 151.40 63.64 150.71 C 63.24 150.62 62.45 150.44 62.05 150.35 C 61.43 150.20 60.21 149.90 59.59 149.75 C 57.35 146.21 55.76 142.30 55.21 138.13 C 54.97 137.67 54.47 136.76 54.22 136.30 C 51.56 136.20 49.15 135.05 46.94 133.67 C 44.10 135.48 40.86 134.40 37.93 133.48 C 37.40 134.97 36.04 136.32 36.32 137.99 C 37.69 139.80 39.80 140.77 41.69 141.92 C 43.20 140.23 44.86 138.66 46.88 137.57 C 46.49 138.44 45.72 140.19 45.33 141.07 C 42.39 144.20 40.00 148.01 39.42 152.34 C 41.93 155.80 45.42 158.34 49.23 160.22 C 51.16 161.29 53.12 162.32 55.12 163.27 C 56.41 164.12 57.69 164.98 58.95 165.87 C 56.79 169.82 53.99 173.55 52.83 177.95 C 52.11 180.41 53.35 182.71 54.72 184.67 C 55.88 185.25 57.03 185.86 58.18 186.48 C 60.07 184.29 61.91 182.06 63.98 180.04 C 61.20 184.58 57.75 188.98 57.44 194.52 C 59.42 193.94 61.44 193.42 63.53 193.49 C 63.71 195.90 63.65 198.31 63.44 200.72 C 64.47 200.42 66.52 199.81 67.55 199.51 C 67.63 200.79 67.69 202.08 67.76 203.37 C 67.55 207.26 67.87 212.43 72.01 214.21 C 77.41 215.43 82.53 212.44 86.86 209.57 C 91.36 206.11 95.08 201.52 96.91 196.11 C 95.45 194.22 94.07 192.17 94.00 189.69 C 96.94 190.69 97.76 194.08 100.10 195.85 C 103.44 198.46 107.48 201.70 112.01 200.15 C 119.05 197.79 124.59 192.58 130.14 187.87 C 135.32 190.20 141.27 193.41 146.97 190.83 C 150.31 189.29 149.98 185.18 150.85 182.17 C 157.52 182.39 164.96 182.79 170.57 178.47 C 175.68 174.75 177.45 167.65 175.33 161.79 C 174.59 160.01 173.70 158.30 172.67 156.67 C 173.25 156.26 174.41 155.43 174.99 155.01 C 173.45 153.22 171.50 151.90 169.26 151.15 C 182.86 147.62 197.45 143.93 207.72 133.69 C 212.41 129.23 215.32 122.14 212.33 115.93 C 208.75 110.07 202.25 107.19 196.30 104.38 C 197.19 103.12 198.09 101.86 199.00 100.60 C 203.33 95.93 206.78 89.85 206.43 83.27 C 205.87 80.68 204.88 77.63 201.84 77.18 C 196.07 76.05 189.79 76.12 184.22 78.18 C 184.22 74.85 186.24 72.09 187.39 69.09 C 189.75 63.27 190.72 56.58 188.78 50.50 C 186.47 44.71 181.86 39.02 175.35 38.06 C 173.70 38.19 172.07 38.30 170.43 38.39 C 165.42 39.96 158.67 40.21 155.48 44.72 C 154.41 43.75 153.53 42.61 153.81 41.07 C 153.86 33.81 153.61 25.99 149.27 19.82 C 147.38 16.72 144.06 14.84 140.53 14.20 C 134.57 14.09 129.13 16.99 124.54 20.54 M 279.98 91.88 C 271.05 98.23 263.92 106.80 257.53 115.62 C 260.51 118.16 262.60 121.74 262.99 125.68 C 265.78 125.64 268.58 125.53 271.35 125.07 C 278.25 124.14 284.78 121.07 290.72 117.51 L 291.01 117.51 C 296.81 113.98 302.52 109.81 306.21 104.00 C 309.28 98.89 310.35 91.28 305.43 86.94 C 296.85 83.73 287.29 87.08 279.98 91.88 M 225.04 101.85 C 222.82 109.70 228.06 117.07 234.32 121.23 C 236.69 122.35 239.07 123.45 241.46 124.56 C 241.89 123.16 242.32 121.76 242.74 120.36 C 244.49 117.71 247.12 115.92 250.20 115.19 C 247.39 107.79 241.14 101.77 233.86 98.81 C 230.52 97.38 226.79 98.71 225.04 101.85 M 156.04 102.56 C 148.26 104.24 140.40 105.70 132.82 108.13 C 127.83 109.03 122.95 110.57 118.12 112.10 C 114.52 112.71 110.80 113.51 108.24 116.34 C 109.82 116.95 111.40 117.59 113.00 118.14 C 114.62 118.78 116.25 119.35 117.89 119.94 C 115.84 122.14 113.10 123.43 110.66 125.09 C 114.74 124.74 118.83 124.59 122.92 124.53 C 124.97 124.46 126.52 122.91 127.97 121.65 C 130.94 120.74 133.99 121.41 136.95 121.98 C 143.91 117.64 151.01 113.37 157.26 108.03 C 161.52 105.74 165.24 102.56 169.36 100.03 C 164.80 100.17 160.52 101.91 156.04 102.56 M 99.40 111.62 C 93.45 112.64 87.26 112.48 81.49 114.37 C 74.91 116.09 68.27 118.61 63.11 123.15 C 60.18 125.12 56.98 126.61 53.58 127.60 C 54.60 130.88 55.71 134.13 57.05 137.30 C 63.01 134.46 69.30 131.95 75.93 131.40 C 78.17 131.41 80.83 130.79 82.55 132.64 C 83.71 132.63 84.88 132.61 86.04 132.60 C 86.53 133.51 87.02 134.42 87.52 135.33 C 86.93 140.31 85.32 145.29 82.22 149.30 C 81.56 150.35 80.60 150.77 79.34 150.56 C 78.57 151.73 77.81 152.90 77.04 154.07 C 77.46 155.29 77.88 156.52 78.30 157.74 C 79.57 157.50 80.84 157.27 82.11 157.06 C 83.54 152.89 85.01 148.72 87.02 144.79 C 87.76 146.15 88.44 147.54 89.06 148.96 C 89.10 144.64 89.83 140.04 87.88 136.02 C 87.71 135.47 87.38 134.37 87.21 133.83 L 89.05 133.66 C 88.60 133.59 87.69 133.44 87.24 133.36 L 86.03 132.40 C 86.61 131.99 87.77 131.17 88.35 130.76 C 90.92 130.87 93.03 132.45 95.24 133.58 C 96.73 134.09 98.21 134.64 99.69 135.18 C 99.69 132.74 99.72 130.29 99.77 127.84 C 102.41 126.75 105.06 125.60 107.35 123.86 C 109.57 123.11 111.59 121.89 113.63 120.77 C 111.25 119.56 108.70 118.75 106.28 117.64 C 106.20 116.71 106.30 115.79 106.57 114.88 C 109.66 112.13 113.06 109.77 116.09 106.96 C 115.11 107.18 113.15 107.63 112.16 107.86 C 107.77 108.64 103.76 110.74 99.40 111.62 M 246.29 119.28 C 244.82 120.51 244.26 122.41 243.58 124.13 C 244.42 125.92 244.79 128.30 246.80 129.21 C 250.64 131.47 255.39 130.89 259.17 128.80 L 258.50 127.95 C 259.38 125.74 260.50 123.17 259.11 120.91 C 258.15 118.35 255.40 117.69 253.07 116.98 C 250.77 117.58 248.07 117.46 246.29 119.28 M 53.32 121.94 C 51.44 122.26 51.51 125.50 53.69 124.64 C 55.73 124.44 55.55 121.03 53.32 121.94 M 27.79 126.38 C 29.35 127.24 30.96 128.22 32.77 128.41 C 36.24 130.34 39.86 132.20 43.85 132.74 C 46.78 129.69 50.07 133.28 53.12 134.19 C 52.78 132.58 52.44 130.97 52.18 129.35 C 52.08 127.40 50.47 126.47 48.84 125.88 C 44.65 126.30 40.41 126.31 36.22 125.97 C 33.40 125.83 30.58 125.94 27.79 126.38 M 214.77 127.93 C 213.84 130.08 212.71 132.16 211.26 134.01 C 210.36 134.76 209.54 135.62 208.88 136.59 C 199.09 144.35 187.42 149.63 175.10 151.77 C 176.08 153.71 177.40 155.81 175.78 157.84 C 178.95 163.59 179.03 170.72 175.74 176.44 C 170.38 183.64 160.57 186.14 152.13 183.59 C 152.14 185.16 152.15 186.74 152.18 188.32 C 150.92 190.65 149.03 192.55 146.64 193.73 C 145.22 193.79 143.79 193.87 142.37 193.95 C 143.43 197.37 144.74 200.73 145.52 204.23 C 145.67 207.84 145.70 211.47 145.18 215.06 C 143.50 219.35 142.25 223.80 140.15 227.93 C 139.07 228.97 138.21 230.21 137.31 231.40 L 137.07 231.44 C 136.75 231.85 136.13 232.69 135.81 233.11 L 135.41 233.04 L 135.60 233.45 C 132.52 235.99 129.06 238.00 125.43 239.65 C 121.92 239.61 118.37 240.37 115.44 242.39 L 115.25 242.34 C 114.09 243.26 112.93 244.19 111.78 245.12 C 112.85 246.07 113.76 247.35 115.17 247.84 C 121.40 249.87 127.56 253.74 129.99 260.11 C 133.13 254.78 137.60 250.42 143.09 247.54 C 149.52 250.02 148.97 258.34 148.58 263.98 C 149.01 263.77 149.86 263.35 150.29 263.14 L 150.33 262.69 C 151.89 261.75 153.44 260.80 154.98 259.83 C 154.30 258.95 153.61 258.08 152.93 257.21 C 152.25 255.24 150.97 253.17 151.81 251.05 C 152.58 248.68 155.01 247.65 156.95 246.43 C 155.72 244.03 153.17 241.92 153.28 239.09 C 156.85 234.02 162.31 230.74 166.52 226.25 C 164.19 224.64 161.51 222.22 162.59 219.05 C 164.57 214.73 167.15 210.71 169.66 206.68 L 170.29 206.55 C 169.63 203.03 168.87 199.34 169.81 195.80 C 171.07 191.38 174.21 187.90 176.99 184.36 C 180.95 179.45 186.05 175.57 190.39 171.12 C 190.12 164.74 185.87 159.67 183.52 154.00 C 186.45 155.51 187.93 158.53 189.68 161.14 C 191.32 164.80 192.78 168.65 192.76 172.72 C 187.75 176.32 183.63 180.95 179.56 185.53 L 179.18 185.58 C 176.15 188.88 173.34 192.50 171.91 196.81 C 173.30 197.34 174.68 197.86 176.07 198.39 C 182.70 194.85 189.54 191.47 196.99 190.06 C 200.70 189.44 204.65 188.36 208.31 189.76 C 203.07 191.01 197.83 192.23 192.73 193.99 C 192.53 194.57 192.13 195.73 191.94 196.31 L 191.42 196.48 C 191.50 205.86 190.30 215.45 192.59 224.66 C 193.01 227.11 195.65 228.34 197.84 227.15 C 204.19 224.89 210.28 221.71 215.93 218.12 C 218.97 216.89 221.79 215.20 224.89 214.12 C 221.41 218.51 216.26 220.95 211.42 223.51 C 211.60 225.31 211.56 227.13 211.29 228.93 C 209.94 230.71 208.58 232.49 207.16 234.23 C 208.72 235.86 210.32 237.46 211.94 239.03 C 213.96 236.73 215.91 233.48 219.51 234.32 C 222.61 237.08 224.12 241.03 224.34 245.12 C 226.72 244.31 229.14 243.62 231.58 243.01 C 229.23 239.91 227.06 236.66 225.40 233.13 C 226.94 228.49 229.20 224.15 231.69 219.95 C 233.62 216.69 235.80 213.55 238.63 210.99 C 234.75 210.66 230.87 210.44 226.98 210.32 C 233.36 203.89 239.35 197.08 245.26 190.22 C 248.15 186.13 250.22 181.53 252.46 177.07 C 253.32 174.75 254.39 172.43 254.49 169.91 C 251.06 164.69 245.30 161.71 240.40 158.08 C 239.04 157.01 237.68 155.94 236.29 154.92 C 232.99 152.39 230.64 148.79 227.69 146.02 C 227.49 144.85 226.34 144.18 225.67 143.28 C 221.98 138.20 218.51 132.97 214.77 127.93 M 238.83 130.49 C 236.11 132.72 233.87 135.51 232.36 138.68 L 231.97 138.74 C 231.08 141.49 230.04 144.42 231.06 147.31 C 232.82 146.22 233.62 144.26 234.72 142.61 C 237.56 138.02 241.79 134.57 246.03 131.36 C 244.70 130.08 243.41 128.77 242.12 127.45 C 241.01 128.44 239.74 129.30 238.83 130.49 M 101.65 137.75 C 99.10 137.12 96.60 136.29 94.21 135.20 C 95.41 138.19 96.33 141.29 96.90 144.46 C 99.30 141.09 101.24 137.21 105.01 135.13 C 103.89 133.07 103.00 130.90 102.24 128.68 C 101.46 131.64 101.57 134.72 101.65 137.75 M 257.08 132.23 C 255.53 132.44 253.98 132.65 252.43 132.81 C 250.76 137.42 251.15 142.51 253.31 146.89 C 255.24 153.77 261.84 161.65 269.83 159.04 L 269.63 158.89 C 273.98 156.78 276.16 151.64 275.13 147.00 C 273.47 139.64 268.55 133.09 262.09 129.24 C 260.44 130.27 258.80 131.32 257.08 132.23 M 62.16 137.25 C 60.64 137.92 58.87 138.41 57.88 139.86 C 56.87 141.13 58.22 142.50 58.60 143.74 C 58.60 145.04 59.12 146.08 60.16 146.86 C 61.44 146.12 61.19 143.75 60.41 142.66 C 61.84 141.76 61.12 139.50 62.37 138.41 C 65.29 135.90 69.28 134.95 73.06 135.40 C 75.37 134.81 77.74 134.60 80.12 134.76 C 80.69 137.54 81.08 140.34 81.37 143.15 C 81.40 144.46 81.47 145.77 81.59 147.08 C 82.89 144.71 83.82 142.17 84.84 139.68 C 85.29 138.05 85.51 136.38 84.86 134.77 C 82.11 134.87 79.72 132.92 76.94 133.43 C 71.84 133.86 66.90 135.41 62.16 137.25 M 77.03 136.96 C 77.54 139.87 78.14 142.83 79.77 145.35 C 79.75 142.62 79.68 139.84 78.78 137.23 C 78.34 137.16 77.46 137.02 77.03 136.96 M 62.75 143.75 C 62.57 145.28 62.39 146.80 62.21 148.33 C 62.67 148.43 63.60 148.62 64.06 148.71 C 64.79 149.43 65.54 150.12 66.30 150.80 C 68.00 153.39 69.58 156.08 71.78 158.30 C 73.94 155.01 73.75 151.03 73.37 147.29 C 72.85 145.53 72.28 143.78 71.65 142.07 C 70.90 140.81 70.18 139.53 69.52 138.23 C 65.86 136.72 62.23 139.93 62.75 143.75 M 73.03 138.20 C 74.27 142.23 75.36 146.31 75.82 150.52 C 76.11 150.76 76.69 151.25 76.98 151.49 C 78.21 147.09 76.44 142.78 75.26 138.60 C 74.70 138.50 73.59 138.30 73.03 138.20 M 89.16 155.14 C 92.59 154.47 93.86 150.92 94.74 147.96 C 94.77 145.40 95.77 140.27 91.65 141.18 C 91.35 145.94 89.29 150.38 89.16 155.14 M 86.32 150.43 C 85.22 153.45 84.26 156.52 83.16 159.54 C 81.04 157.98 79.18 160.50 77.04 160.00 C 74.88 158.93 73.41 162.38 71.41 161.51 C 70.03 159.93 68.98 158.05 67.29 156.75 C 67.81 159.19 68.69 161.62 70.64 163.28 C 71.73 164.55 72.24 166.60 73.80 167.30 C 76.81 166.32 79.61 164.83 82.34 163.26 C 84.81 162.14 86.82 160.26 88.90 158.58 C 87.64 155.99 87.25 153.13 86.32 150.43 M 95.14 150.79 C 95.17 152.23 95.19 153.68 95.23 155.12 C 92.22 157.53 89.79 160.60 86.66 162.86 L 86.67 163.40 C 81.97 165.78 77.39 168.56 72.24 169.92 C 71.60 168.70 70.96 167.49 70.31 166.29 C 69.17 166.89 68.03 167.52 66.90 168.16 L 65.82 167.97 C 66.33 169.68 68.02 171.32 69.77 171.50 L 69.41 171.58 C 70.66 175.49 71.15 179.59 71.23 183.69 L 70.95 182.84 C 70.62 184.54 70.34 186.25 70.07 187.97 C 71.64 186.76 73.36 185.68 74.60 184.11 C 76.01 183.43 77.38 182.67 78.56 181.65 C 83.92 177.16 89.19 172.47 93.46 166.89 C 92.60 165.53 91.74 164.16 90.89 162.80 C 93.42 161.14 96.13 159.81 98.89 158.60 C 98.72 155.57 97.06 153.02 95.14 150.79 M 36.12 158.00 C 35.79 158.49 35.13 159.48 34.80 159.98 C 34.19 162.46 34.82 164.92 36.69 166.69 C 37.40 166.94 38.83 167.42 39.55 167.66 L 38.89 167.97 C 41.14 167.92 43.44 168.13 45.64 167.59 C 47.65 166.68 48.89 164.74 50.31 163.15 C 49.46 162.72 48.61 162.29 47.77 161.86 C 46.54 161.20 45.32 160.54 44.09 159.89 C 42.30 158.47 40.57 156.99 38.87 155.47 C 37.93 156.28 37.00 157.11 36.12 158.00 M 73.47 158.61 C 74.60 159.07 76.38 158.24 76.37 156.90 C 75.63 154.85 72.38 157.05 73.47 158.61 M 253.48 180.23 C 254.10 181.45 254.74 182.67 255.38 183.89 C 257.21 189.62 257.83 195.64 257.97 201.63 C 257.65 205.40 256.68 210.00 252.79 211.63 C 247.40 212.73 242.33 209.85 237.52 207.85 C 236.47 207.11 235.31 206.52 234.19 205.89 C 233.62 206.56 232.49 207.90 231.92 208.57 C 234.06 208.61 236.21 208.64 238.36 208.53 C 239.25 209.28 240.12 210.06 240.98 210.85 C 239.89 212.00 238.84 213.18 237.82 214.39 C 241.79 216.84 246.44 217.83 250.99 218.58 C 255.14 219.32 259.18 216.79 261.24 213.29 C 264.42 208.49 264.64 202.43 263.63 196.93 L 263.46 197.08 C 262.26 191.96 260.59 186.96 259.10 181.92 C 258.15 179.48 257.10 177.08 255.99 174.72 C 255.17 176.56 254.35 178.41 253.48 180.23 M 246.16 193.15 C 242.93 196.99 239.81 200.95 236.11 204.35 C 240.39 206.93 245.13 208.91 250.08 209.73 C 253.31 210.25 255.08 206.65 255.44 203.99 C 256.25 196.91 254.93 189.72 252.80 182.98 C 249.87 185.86 248.80 190.04 246.16 193.15 M 177.93 200.07 C 175.89 201.32 173.77 199.70 171.79 199.15 C 171.83 200.60 171.88 202.04 171.94 203.48 C 172.86 203.60 173.79 203.71 174.71 203.81 C 173.73 205.36 172.75 206.91 171.78 208.48 L 171.44 208.55 C 170.36 210.03 169.28 211.50 168.19 212.97 C 169.87 216.31 171.93 219.43 174.16 222.43 C 176.56 221.01 178.79 219.33 180.91 217.52 C 183.85 215.37 187.24 213.38 188.96 210.05 C 189.28 204.87 188.77 199.63 189.90 194.52 C 185.64 195.76 181.91 198.19 177.93 200.07 M 119.42 204.39 C 123.11 204.29 126.02 206.67 128.98 208.49 C 129.51 207.34 130.04 206.19 130.58 205.05 C 129.96 201.13 127.79 197.80 125.00 195.07 C 121.70 197.15 120.44 200.84 119.42 204.39 M 98.46 197.81 C 97.80 199.30 97.16 200.80 96.52 202.30 C 93.15 207.52 88.39 211.53 83.15 214.76 C 84.82 215.89 86.49 217.03 88.15 218.17 C 89.94 219.96 91.96 221.58 93.32 223.74 C 93.24 225.57 93.14 227.41 93.01 229.25 C 94.92 229.99 96.85 230.67 98.81 231.26 C 100.36 231.64 101.90 232.07 103.44 232.54 C 104.95 232.78 106.53 232.90 107.98 232.27 C 112.43 230.67 116.76 228.73 121.08 226.80 C 123.63 225.60 126.39 224.99 129.02 224.01 C 130.97 221.31 131.28 217.71 132.66 214.68 C 129.43 211.24 125.39 208.66 121.16 206.60 C 119.36 208.08 117.56 209.56 115.78 211.07 C 115.49 212.58 115.19 214.09 114.86 215.59 C 114.15 217.38 113.36 219.14 112.64 220.93 C 111.96 214.90 114.04 208.58 111.16 202.89 C 109.78 202.86 108.41 202.84 107.03 202.83 C 103.91 201.64 101.18 199.70 98.46 197.81 M 113.25 202.46 C 113.97 204.56 114.57 206.69 115.08 208.86 C 115.64 208.39 116.78 207.45 117.35 206.98 C 117.46 204.50 117.95 202.08 118.75 199.74 C 116.94 200.68 115.10 201.58 113.25 202.46 M 130.42 209.22 C 132.44 211.16 134.72 213.01 135.54 215.83 C 137.54 211.59 137.47 206.22 135.05 202.16 C 133.38 204.42 131.88 206.81 130.42 209.22 M 174.88 224.75 C 174.48 224.74 173.67 224.73 173.27 224.72 C 170.39 222.35 168.77 218.86 166.84 215.75 C 165.49 217.19 164.57 219.10 164.69 221.11 C 165.49 223.53 168.16 224.17 170.18 225.23 C 167.20 229.93 162.43 233.08 158.35 236.74 C 170.44 236.14 182.58 235.91 194.67 236.69 C 196.05 235.10 197.36 233.40 199.07 232.15 C 200.47 231.89 201.45 233.01 202.45 233.75 C 203.42 233.65 204.39 233.55 205.35 233.45 C 207.35 231.09 209.17 228.57 210.66 225.85 C 209.50 225.08 208.12 224.98 206.95 225.78 C 202.75 227.60 198.28 230.77 193.50 229.35 C 188.91 226.17 189.85 219.65 189.18 214.80 C 184.16 217.74 180.20 222.31 174.88 224.75 M 189.03 251.58 C 190.44 250.83 191.95 250.19 193.19 249.17 C 194.16 247.68 194.47 245.87 195.22 244.28 C 196.60 240.95 199.46 238.50 200.89 235.21 L 200.03 234.03 C 195.06 238.90 189.37 244.10 189.03 251.58 M 197.41 245.02 C 195.47 247.91 195.71 251.67 195.38 255.00 C 196.00 254.61 197.25 253.83 197.87 253.44 C 200.61 252.69 203.32 251.86 206.04 251.05 C 207.92 247.64 209.51 244.00 209.79 240.07 C 208.56 238.70 207.36 237.31 206.18 235.90 C 201.54 236.64 199.12 241.11 197.41 245.02 M 217.76 236.14 C 215.08 238.35 213.03 241.21 211.79 244.45 L 211.16 244.33 C 209.99 247.74 209.46 251.33 209.50 254.93 C 210.89 254.10 212.49 253.51 213.69 252.41 C 216.73 251.39 220.72 250.27 221.48 246.66 C 222.69 242.97 221.09 239.26 218.79 236.41 C 218.53 236.35 218.02 236.21 217.76 236.14 M 143.40 249.87 L 143.24 250.48 C 141.43 251.04 139.80 252.00 138.29 253.13 C 135.91 255.27 133.86 257.75 132.35 260.57 C 129.84 265.78 128.85 271.73 129.09 277.52 C 130.18 276.76 131.27 276.00 132.34 275.23 C 135.65 273.54 139.03 271.98 142.52 270.70 C 145.76 269.80 146.25 265.88 146.77 263.06 C 146.96 258.57 147.27 253.02 143.40 249.87 M 101.64 258.33 C 99.00 263.73 97.08 269.47 95.94 275.37 C 97.78 274.39 99.61 273.40 101.46 272.43 C 102.53 268.09 103.58 263.68 105.70 259.71 C 107.40 256.23 110.13 253.42 112.14 250.14 L 110.77 250.53 C 105.87 249.84 103.31 254.59 101.64 258.33 M 105.51 266.24 C 103.92 270.19 103.29 274.47 103.11 278.71 C 103.01 279.36 102.81 280.67 102.71 281.32 C 109.16 275.70 116.98 271.62 125.52 270.48 C 126.34 267.13 128.02 263.78 127.60 260.26 C 126.07 256.40 122.65 253.68 119.07 251.79 C 118.11 251.25 117.15 250.71 116.19 250.18 C 111.21 254.37 107.22 259.91 105.51 266.24 Z" />
<path fill="#7bcf70" opacity="1.00" d=" M 124.54 20.54 C 129.13 16.99 134.57 14.09 140.53 14.20 C 142.97 21.59 144.27 29.30 145.06 37.02 C 145.91 45.72 143.41 54.23 143.05 62.88 C 141.03 62.52 138.97 62.50 136.92 62.48 C 136.06 60.96 135.21 59.40 133.96 58.16 C 132.60 59.78 134.68 61.84 135.02 63.59 C 131.55 66.24 128.15 69.61 127.49 74.13 C 126.58 79.14 130.10 84.56 135.14 85.54 C 141.99 86.71 149.46 82.62 152.17 76.23 C 154.04 71.48 150.92 66.52 146.83 64.18 C 149.90 57.78 152.77 51.29 155.48 44.72 C 158.67 40.21 165.42 39.96 170.43 38.39 C 169.95 41.98 169.34 45.58 168.02 48.97 C 166.82 52.41 164.76 55.96 166.10 59.68 C 162.16 67.25 157.77 74.74 151.58 80.71 C 145.47 86.96 139.26 93.13 132.90 99.12 C 129.80 101.63 126.96 104.44 124.53 107.61 C 121.63 109.02 118.32 109.46 115.30 110.59 C 117.46 107.99 119.54 105.33 121.17 102.36 C 114.24 104.52 107.37 106.88 100.54 109.36 C 96.48 111.04 92.03 109.62 87.83 110.56 C 79.15 112.12 70.34 114.77 63.26 120.23 C 58.39 117.86 52.73 120.84 49.08 124.20 C 47.36 124.16 45.65 124.12 43.93 124.08 C 42.32 121.12 40.56 117.57 42.22 114.23 C 44.76 108.32 51.28 106.02 56.05 102.31 C 61.02 106.44 66.28 110.84 73.04 111.29 C 64.59 103.03 58.46 92.16 56.45 80.47 C 59.92 77.02 64.86 73.09 70.02 75.35 C 70.49 74.97 71.43 74.23 71.89 73.86 C 70.79 76.27 70.52 78.94 70.86 81.56 C 73.56 79.64 73.97 76.15 75.21 73.32 C 76.01 70.61 78.00 67.64 76.28 64.87 C 79.11 58.32 81.96 51.74 85.51 45.54 C 87.39 42.15 90.11 39.26 93.48 37.33 C 96.64 41.45 96.39 46.77 97.29 51.62 C 97.22 57.01 97.10 62.41 96.72 67.79 C 96.17 72.24 95.90 76.73 96.08 81.22 C 97.36 81.44 98.66 81.57 99.90 81.98 C 100.98 83.24 101.78 84.71 102.68 86.10 C 103.99 83.37 104.80 80.45 105.19 77.45 C 105.96 73.72 107.02 70.03 107.21 66.21 C 107.40 63.60 107.66 60.99 108.01 58.39 C 109.57 52.05 110.59 45.23 108.49 38.89 C 107.68 37.41 108.84 36.10 109.69 35.01 C 114.05 29.63 119.07 24.79 124.54 20.54 M 120.42 32.40 C 117.88 33.28 115.47 35.30 114.86 38.02 C 115.30 42.20 120.81 41.27 122.57 38.55 C 124.94 36.65 124.03 31.45 120.42 32.40 M 113.48 45.66 C 111.92 46.36 112.05 48.97 113.82 49.38 C 114.87 48.61 115.88 47.78 116.85 46.90 C 115.89 46.26 114.79 44.65 113.48 45.66 Z" />
<path fill="#578fa4" opacity="1.00" d=" M 140.53 14.20 C 144.06 14.84 147.38 16.72 149.27 19.82 C 153.61 25.99 153.86 33.81 153.81 41.07 C 153.53 42.61 154.41 43.75 155.48 44.72 C 152.77 51.29 149.90 57.78 146.83 64.18 C 145.58 63.70 144.32 63.27 143.05 62.88 C 143.41 54.23 145.91 45.72 145.06 37.02 C 144.27 29.30 142.97 21.59 140.53 14.20 Z" />
<path fill="#f4ffb9" opacity="1.00" d=" M 120.42 32.40 C 124.03 31.45 124.94 36.65 122.57 38.55 C 120.81 41.27 115.30 42.20 114.86 38.02 C 115.47 35.30 117.88 33.28 120.42 32.40 Z" />
<path fill="#5287ab" opacity="1.00" d=" M 93.48 37.33 C 98.61 35.47 103.48 38.23 108.49 38.89 C 110.59 45.23 109.57 52.05 108.01 58.39 C 106.48 54.65 105.66 48.51 100.36 48.89 C 99.48 50.47 98.58 52.04 97.73 53.63 C 97.62 53.13 97.40 52.12 97.29 51.62 C 96.39 46.77 96.64 41.45 93.48 37.33 Z" />
<path fill="#6fb982" opacity="1.00" d=" M 170.43 38.39 C 172.07 38.30 173.70 38.19 175.35 38.06 C 174.10 41.67 173.59 45.53 172.05 49.04 C 170.07 52.59 167.82 55.99 166.10 59.68 C 164.76 55.96 166.82 52.41 168.02 48.97 C 169.34 45.58 169.95 41.98 170.43 38.39 Z" />
<path fill="#4e80b1" opacity="1.00" d=" M 175.35 38.06 C 181.86 39.02 186.47 44.71 188.78 50.50 C 190.72 56.58 189.75 63.27 187.39 69.09 C 186.24 72.09 184.22 74.85 184.22 78.18 C 179.17 81.10 174.41 84.51 169.41 87.51 C 164.21 90.63 159.75 94.86 154.31 97.60 C 155.92 93.06 159.46 89.38 160.37 84.57 C 160.74 83.02 159.84 81.41 158.60 80.52 C 156.27 80.28 153.92 80.56 151.58 80.71 C 157.77 74.74 162.16 67.25 166.10 59.68 C 167.82 55.99 170.07 52.59 172.05 49.04 C 173.59 45.53 174.10 41.67 175.35 38.06 Z" />
<path fill="#f4ffb9" opacity="1.00" d=" M 113.48 45.66 C 114.79 44.65 115.89 46.26 116.85 46.90 C 115.88 47.78 114.87 48.61 113.82 49.38 C 112.05 48.97 111.92 46.36 113.48 45.66 Z" />
<path fill="#5f9e98" opacity="1.00" d=" M 100.36 48.89 C 105.66 48.51 106.48 54.65 108.01 58.39 C 107.66 60.99 107.40 63.60 107.21 66.21 C 106.23 63.18 104.03 60.91 100.98 59.98 C 100.01 60.48 99.04 60.98 98.07 61.49 C 98.01 58.87 97.93 56.25 97.73 53.63 C 98.58 52.04 99.48 50.47 100.36 48.89 Z" />
<path fill="#67ac8c" opacity="1.00" d=" M 97.29 51.62 C 97.40 52.12 97.62 53.13 97.73 53.63 C 97.93 56.25 98.01 58.87 98.07 61.49 C 99.04 60.98 100.01 60.48 100.98 59.98 C 104.03 60.91 106.23 63.18 107.21 66.21 C 107.02 70.03 105.96 73.72 105.19 77.45 C 104.30 75.22 103.70 72.68 101.96 70.93 C 100.47 69.62 98.68 70.75 97.17 71.33 C 97.00 70.15 96.85 68.97 96.72 67.79 C 97.10 62.41 97.22 57.01 97.29 51.62 Z" />
<path fill="#000000" opacity="1.00" d=" M 135.02 63.59 C 134.68 61.84 132.60 59.78 133.96 58.16 C 135.21 59.40 136.06 60.96 136.92 62.48 C 138.97 62.50 141.03 62.52 143.05 62.88 C 144.32 63.27 145.58 63.70 146.83 64.18 C 150.92 66.52 154.04 71.48 152.17 76.23 C 149.46 82.62 141.99 86.71 135.14 85.54 C 130.10 84.56 126.58 79.14 127.49 74.13 C 128.15 69.61 131.55 66.24 135.02 63.59 M 138.58 64.30 C 137.83 65.39 137.01 66.44 135.95 67.24 C 135.80 66.69 135.48 65.60 135.33 65.05 C 134.14 66.27 132.95 67.49 131.76 68.71 C 130.81 70.32 129.97 72.00 129.27 73.74 C 129.35 75.45 129.47 77.15 129.60 78.85 C 130.69 80.20 131.82 81.50 133.03 82.74 C 134.14 83.04 135.25 83.36 136.37 83.68 C 141.86 83.98 147.61 80.84 150.04 75.85 C 151.22 73.75 150.19 71.48 149.56 69.40 C 147.43 66.88 144.47 65.39 141.28 64.73 C 140.38 64.59 139.48 64.44 138.58 64.30 Z" />
<path fill="#ff6674" opacity="1.00" d=" M 138.58 64.30 C 139.48 64.44 140.38 64.59 141.28 64.73 C 141.37 68.34 141.17 72.05 139.48 75.32 C 136.39 77.02 133.04 78.14 129.60 78.85 C 129.47 77.15 129.35 75.45 129.27 73.74 C 132.09 73.99 134.92 72.61 135.02 69.50 C 134.20 69.30 132.57 68.90 131.76 68.71 C 132.95 67.49 134.14 66.27 135.33 65.05 C 135.48 65.60 135.80 66.69 135.95 67.24 C 137.01 66.44 137.83 65.39 138.58 64.30 Z" />
<path fill="#9e2d51" opacity="1.00" d=" M 141.28 64.73 C 144.47 65.39 147.43 66.88 149.56 69.40 C 144.89 73.86 139.11 77.62 136.37 83.68 C 135.25 83.36 134.14 83.04 133.03 82.74 C 135.83 80.91 138.26 78.50 139.48 75.32 C 141.17 72.05 141.37 68.34 141.28 64.73 Z" />
<path fill="#f4ffb9" opacity="1.00" d=" M 76.28 64.87 C 78.00 67.64 76.01 70.61 75.21 73.32 C 73.97 76.15 73.56 79.64 70.86 81.56 C 70.52 78.94 70.79 76.27 71.89 73.86 C 73.23 70.80 74.69 67.80 76.28 64.87 Z" />
<path fill="#6fb982" opacity="1.00" d=" M 96.08 81.22 C 95.90 76.73 96.17 72.24 96.72 67.79 C 96.85 68.97 97.00 70.15 97.17 71.33 C 98.68 70.75 100.47 69.62 101.96 70.93 C 103.70 72.68 104.30 75.22 105.19 77.45 C 104.80 80.45 103.99 83.37 102.68 86.10 C 101.78 84.71 100.98 83.24 99.90 81.98 C 98.66 81.57 97.36 81.44 96.08 81.22 Z" />
<path fill="#ffffcb" opacity="1.00" d=" M 129.27 73.74 C 129.97 72.00 130.81 70.32 131.76 68.71 C 132.57 68.90 134.20 69.30 135.02 69.50 C 134.92 72.61 132.09 73.99 129.27 73.74 Z" />
<path fill="#761d49" opacity="1.00" d=" M 136.37 83.68 C 139.11 77.62 144.89 73.86 149.56 69.40 C 150.19 71.48 151.22 73.75 150.04 75.85 C 147.61 80.84 141.86 83.98 136.37 83.68 Z" />
<path fill="#b83d5b" opacity="1.00" d=" M 129.60 78.85 C 133.04 78.14 136.39 77.02 139.48 75.32 C 138.26 78.50 135.83 80.91 133.03 82.74 C 131.82 81.50 130.69 80.20 129.60 78.85 Z" />
<path fill="#7bce71" opacity="1.00" d=" M 184.22 78.18 C 189.79 76.12 196.07 76.05 201.84 77.18 C 204.88 77.63 205.87 80.68 206.43 83.27 C 202.82 86.35 199.58 89.86 195.88 92.84 C 188.62 98.50 180.86 103.46 173.26 108.65 C 181.79 105.80 190.61 103.83 199.00 100.60 C 198.09 101.86 197.19 103.12 196.30 104.38 C 202.25 107.19 208.75 110.07 212.33 115.93 C 212.64 119.21 212.81 122.87 210.64 125.61 C 207.80 129.97 202.60 131.53 197.90 132.98 C 192.72 134.75 187.31 135.59 181.97 136.67 C 171.34 139.15 160.36 138.88 149.54 139.60 C 149.18 139.61 148.48 139.62 148.13 139.63 C 144.27 139.89 140.52 140.86 136.78 141.78 C 140.44 144.26 144.49 146.03 148.55 147.71 C 144.91 150.16 142.18 155.37 144.66 159.52 C 147.60 164.58 156.18 163.76 158.45 158.46 C 160.21 155.13 158.77 151.26 156.60 148.52 C 162.68 149.03 168.99 151.63 172.67 156.67 C 173.70 158.30 174.59 160.01 175.33 161.79 C 174.95 164.98 174.69 168.77 171.83 170.83 C 168.91 172.87 165.67 174.94 162.04 175.24 C 148.44 173.42 137.05 165.05 124.09 161.13 C 123.87 161.55 123.44 162.40 123.22 162.83 C 120.17 167.11 117.43 172.47 112.03 174.11 C 108.32 175.47 104.46 174.05 100.86 173.06 C 98.87 169.62 96.03 166.60 95.33 162.55 C 97.06 161.52 99.06 160.73 100.35 159.11 C 101.23 155.33 98.83 152.10 96.54 149.41 C 99.71 144.74 101.58 138.70 106.91 135.94 C 106.81 135.19 106.62 133.67 106.53 132.92 C 111.82 133.20 115.66 138.15 121.04 137.46 C 123.07 137.20 124.99 136.48 126.91 135.81 C 136.44 132.38 146.17 129.53 155.97 126.97 C 158.65 126.29 161.25 125.30 163.74 124.10 C 156.00 123.97 148.38 122.22 140.64 122.31 C 151.36 115.58 161.49 108.00 171.90 100.80 C 173.30 99.85 174.36 98.52 175.39 97.19 C 166.52 98.04 157.82 100.14 149.03 101.49 C 150.76 100.16 152.46 98.78 154.31 97.60 C 159.75 94.86 164.21 90.63 169.41 87.51 C 174.41 84.51 179.17 81.10 184.22 78.18 M 186.54 108.44 C 184.47 109.83 185.84 112.65 185.79 114.62 C 184.01 112.82 180.87 109.65 178.57 112.50 C 175.82 116.19 179.96 121.18 184.11 120.78 C 184.29 122.44 183.79 125.07 186.02 125.57 C 188.48 125.73 189.52 123.10 190.36 121.28 C 191.39 123.13 193.19 126.46 195.75 124.79 C 198.90 122.91 197.03 118.84 194.96 116.89 C 196.23 115.46 198.68 113.18 196.76 111.32 C 194.64 109.03 191.76 111.69 189.84 112.91 C 189.53 111.28 189.14 107.26 186.54 108.44 Z" />
<path fill="#609f97" opacity="1.00" d=" M 151.58 80.71 C 153.92 80.56 156.27 80.28 158.60 80.52 C 159.84 81.41 160.74 83.02 160.37 84.57 C 159.46 89.38 155.92 93.06 154.31 97.60 C 152.46 98.78 150.76 100.16 149.03 101.49 C 146.98 102.47 144.64 102.64 142.45 103.13 C 139.46 101.36 136.23 100.05 132.90 99.12 C 139.26 93.13 145.47 86.96 151.58 80.71 Z" />
<path fill="#558ba7" opacity="1.00" d=" M 56.05 102.31 C 54.60 95.18 52.09 87.11 56.45 80.47 C 58.46 92.16 64.59 103.03 73.04 111.29 C 66.28 110.84 61.02 106.44 56.05 102.31 Z" />
<path fill="#4d7eb2" opacity="1.00" d=" M 195.88 92.84 C 199.58 89.86 202.82 86.35 206.43 83.27 C 206.78 89.85 203.33 95.93 199.00 100.60 C 190.61 103.83 181.79 105.80 173.26 108.65 C 180.86 103.46 188.62 98.50 195.88 92.84 Z" />
<path fill="#ffffff" opacity="1.00" d=" M 279.98 91.88 C 287.29 87.08 296.85 83.73 305.43 86.94 C 301.04 100.17 288.14 107.33 276.87 114.00 C 273.19 116.33 269.30 118.31 265.55 120.52 C 263.89 121.24 263.26 122.89 262.91 124.54 C 265.72 124.67 268.53 124.86 271.35 125.07 C 268.58 125.53 265.78 125.64 262.99 125.68 C 262.60 121.74 260.51 118.16 257.53 115.62 C 263.92 106.80 271.05 98.23 279.98 91.88 Z" />
<path fill="#a4aec8" opacity="1.00" d=" M 305.43 86.94 C 310.35 91.28 309.28 98.89 306.21 104.00 C 302.52 109.81 296.81 113.98 291.01 117.51 L 290.72 117.51 C 286.81 117.17 283.40 119.38 279.93 120.78 C 278.88 118.53 277.87 116.27 276.87 114.00 C 288.14 107.33 301.04 100.17 305.43 86.94 Z" />
<path fill="#000000" opacity="0.44" d=" M 311.06 91.75 C 313.64 93.07 313.53 96.88 311.03 98.23 C 311.21 96.08 311.21 93.91 311.06 91.75 Z" />
<path fill="#69af8c" opacity="1.00" d=" M 124.53 107.61 C 126.96 104.44 129.80 101.63 132.90 99.12 C 136.23 100.05 139.46 101.36 142.45 103.13 C 136.46 104.54 130.56 106.34 124.53 107.61 Z" />
<path fill="#ffffff" opacity="1.00" d=" M 225.04 101.85 C 226.79 98.71 230.52 97.38 233.86 98.81 C 241.14 101.77 247.39 107.79 250.20 115.19 C 247.12 115.92 244.49 117.71 242.74 120.36 C 242.39 120.45 241.69 120.64 241.33 120.73 C 240.82 120.29 240.31 119.85 239.80 119.41 C 234.00 114.38 228.97 108.45 225.04 101.85 Z" />
<path fill="#fed267" opacity="1.00" d=" M 156.04 102.56 C 160.52 101.91 164.80 100.17 169.36 100.03 C 165.24 102.56 161.52 105.74 157.26 108.03 C 146.30 110.13 135.86 115.24 124.46 114.75 C 127.73 111.64 131.81 109.66 136.10 108.38 C 135.00 108.29 133.91 108.20 132.82 108.13 C 140.40 105.70 148.26 104.24 156.04 102.56 Z" />
<path fill="#aeb7ce" opacity="1.00" d=" M 234.32 121.23 C 228.06 117.07 222.82 109.70 225.04 101.85 C 228.97 108.45 234.00 114.38 239.80 119.41 C 237.98 120.05 236.15 120.65 234.32 121.23 Z" />
<path fill="#988485" opacity="1.00" d=" M 99.40 111.62 C 103.76 110.74 107.77 108.64 112.16 107.86 C 108.92 109.99 105.52 111.86 102.07 113.64 C 94.61 112.64 87.25 115.59 80.92 119.29 C 81.57 121.91 82.64 124.57 85.11 125.98 C 83.59 126.73 82.06 127.47 80.55 128.23 C 82.27 129.76 84.17 131.05 86.03 132.40 L 87.24 133.36 C 87.69 133.44 88.60 133.59 89.05 133.66 L 87.21 133.83 C 87.38 134.37 87.71 135.47 87.88 136.02 L 87.52 135.33 C 87.02 134.42 86.53 133.51 86.04 132.60 C 84.88 132.61 83.71 132.63 82.55 132.64 C 80.83 130.79 78.17 131.41 75.93 131.40 C 69.30 131.95 63.01 134.46 57.05 137.30 C 55.71 134.13 54.60 130.88 53.58 127.60 C 56.98 126.61 60.18 125.12 63.11 123.15 C 69.43 120.66 75.55 117.67 81.49 114.37 C 87.26 112.48 93.45 112.64 99.40 111.62 Z" />
<path fill="#826265" opacity="1.00" d=" M 112.16 107.86 C 113.15 107.63 115.11 107.18 116.09 106.96 C 113.06 109.77 109.66 112.13 106.57 114.88 C 106.30 115.79 106.20 116.71 106.28 117.64 C 108.70 118.75 111.25 119.56 113.63 120.77 C 111.59 121.89 109.57 123.11 107.35 123.86 C 103.75 123.77 100.18 123.31 96.62 122.78 C 99.34 120.37 101.39 117.25 102.07 113.64 C 105.52 111.86 108.92 109.99 112.16 107.86 Z" />
<path fill="#ffffff" opacity="1.00" d=" M 118.12 112.10 C 122.95 110.57 127.83 109.03 132.82 108.13 C 133.91 108.20 135.00 108.29 136.10 108.38 C 131.81 109.66 127.73 111.64 124.46 114.75 C 123.53 115.54 122.62 116.35 121.69 117.14 L 120.68 117.29 C 120.15 117.34 119.08 117.44 118.55 117.49 C 119.06 116.16 119.58 114.84 120.13 113.53 C 117.71 114.41 115.21 115.06 112.66 115.49 C 114.40 114.23 116.18 113.02 118.12 112.10 Z" />
<path fill="#985432" opacity="1.00" d=" M 124.46 114.75 C 135.86 115.24 146.30 110.13 157.26 108.03 C 151.01 113.37 143.91 117.64 136.95 121.98 C 133.99 121.41 130.94 120.74 127.97 121.65 C 126.89 120.23 125.85 118.78 124.88 117.29 C 123.82 117.22 122.75 117.17 121.69 117.14 C 122.62 116.35 123.53 115.54 124.46 114.75 Z" />
<path fill="#000000" opacity="1.00" d=" M 186.54 108.44 C 189.14 107.26 189.53 111.28 189.84 112.91 C 191.76 111.69 194.64 109.03 196.76 111.32 C 198.68 113.18 196.23 115.46 194.96 116.89 C 197.03 118.84 198.90 122.91 195.75 124.79 C 193.19 126.46 191.39 123.13 190.36 121.28 C 189.52 123.10 188.48 125.73 186.02 125.57 C 183.79 125.07 184.29 122.44 184.11 120.78 C 179.96 121.18 175.82 116.19 178.57 112.50 C 180.87 109.65 184.01 112.82 185.79 114.62 C 185.84 112.65 184.47 109.83 186.54 108.44 M 187.17 111.22 C 185.53 114.18 190.46 111.54 187.17 111.22 M 191.04 115.78 C 192.87 115.37 195.31 114.68 194.92 112.26 C 193.40 113.14 191.23 113.72 191.04 115.78 M 179.56 115.03 C 179.99 118.12 183.00 119.14 185.73 118.31 C 184.66 116.43 180.98 110.96 179.56 115.03 M 187.43 114.48 C 185.43 115.27 187.49 118.79 188.98 116.97 C 190.66 116.04 188.95 113.31 187.43 114.48 M 191.53 118.73 C 191.98 120.51 193.21 121.94 194.19 123.45 C 196.94 122.03 193.96 116.73 191.53 118.73 M 186.42 119.12 C 186.31 120.68 186.22 122.24 186.16 123.81 C 187.69 122.75 188.42 121.12 188.69 119.33 C 188.13 119.28 186.99 119.18 186.42 119.12 Z" />
<path fill="#856f39" opacity="1.00" d=" M 187.17 111.22 C 190.46 111.54 185.53 114.18 187.17 111.22 Z" />
<path fill="#ffd768" opacity="1.00" d=" M 108.24 116.34 C 110.80 113.51 114.52 112.71 118.12 112.10 C 116.18 113.02 114.40 114.23 112.66 115.49 C 115.21 115.06 117.71 114.41 120.13 113.53 C 119.58 114.84 119.06 116.16 118.55 117.49 C 119.08 117.44 120.15 117.34 120.68 117.29 C 118.14 117.71 115.59 118.14 113.00 118.14 C 111.40 117.59 109.82 116.95 108.24 116.34 Z" />
<path fill="#ffd769" opacity="1.00" d=" M 191.04 115.78 C 191.23 113.72 193.40 113.14 194.92 112.26 C 195.31 114.68 192.87 115.37 191.04 115.78 Z" />
<path fill="#000000" opacity="1.00" d=" M 80.92 119.29 C 87.25 115.59 94.61 112.64 102.07 113.64 C 101.39 117.25 99.34 120.37 96.62 122.78 C 95.89 123.36 95.15 123.91 94.38 124.45 C 90.76 124.73 87.14 124.23 83.74 122.97 C 85.37 124.69 87.03 126.40 88.79 128.00 C 87.57 127.31 86.33 126.67 85.11 125.98 C 82.64 124.57 81.57 121.91 80.92 119.29 M 82.61 119.97 C 85.40 121.81 88.63 123.14 92.05 122.73 C 96.55 122.82 98.91 118.13 100.63 114.66 C 94.35 115.30 88.40 117.59 82.61 119.97 Z" />
<path fill="#f4ffb9" opacity="1.00" d=" M 63.11 123.15 C 68.27 118.61 74.91 116.09 81.49 114.37 C 75.55 117.67 69.43 120.66 63.11 123.15 Z" />
<path fill="#ffd769" opacity="1.00" d=" M 179.56 115.03 C 180.98 110.96 184.66 116.43 185.73 118.31 C 183.00 119.14 179.99 118.12 179.56 115.03 Z" />
<path fill="#b3bbd0" opacity="1.00" d=" M 265.55 120.52 C 269.30 118.31 273.19 116.33 276.87 114.00 C 277.87 116.27 278.88 118.53 279.93 120.78 C 283.40 119.38 286.81 117.17 290.72 117.51 C 284.78 121.07 278.25 124.14 271.35 125.07 C 268.53 124.86 265.72 124.67 262.91 124.54 C 263.26 122.89 263.89 121.24 265.55 120.52 Z" />
<path fill="#62ffea" opacity="1.00" d=" M 82.61 119.97 C 88.40 117.59 94.35 115.30 100.63 114.66 C 98.91 118.13 96.55 122.82 92.05 122.73 C 88.63 123.14 85.40 121.81 82.61 119.97 Z" />
<path fill="#4f81af" opacity="1.00" d=" M 212.33 115.93 C 215.32 122.14 212.41 129.23 207.72 133.69 C 197.45 143.93 182.86 147.62 169.26 151.15 C 171.50 151.90 173.45 153.22 174.99 155.01 C 174.41 155.43 173.25 156.26 172.67 156.67 C 168.99 151.63 162.68 149.03 156.60 148.52 C 155.97 147.59 155.33 146.67 154.70 145.74 C 153.99 145.78 152.58 145.87 151.87 145.91 C 151.12 143.79 150.37 141.68 149.54 139.60 C 160.36 138.88 171.34 139.15 181.97 136.67 C 187.31 135.59 192.72 134.75 197.90 132.98 C 202.60 131.53 207.80 129.97 210.64 125.61 C 212.81 122.87 212.64 119.21 212.33 115.93 Z" />
<path fill="#8b4024" opacity="1.00" d=" M 120.68 117.29 L 121.69 117.14 C 122.75 117.17 123.82 117.22 124.88 117.29 C 125.85 118.78 126.89 120.23 127.97 121.65 C 126.52 122.91 124.97 124.46 122.92 124.53 C 118.83 124.59 114.74 124.74 110.66 125.09 C 113.10 123.43 115.84 122.14 117.89 119.94 C 116.25 119.35 114.62 118.78 113.00 118.14 C 115.59 118.14 118.14 117.71 120.68 117.29 Z" />
<path fill="#facd64" opacity="1.00" d=" M 246.29 119.28 C 248.07 117.46 250.77 117.58 253.07 116.98 C 255.40 117.69 258.15 118.35 259.11 120.91 C 260.50 123.17 259.38 125.74 258.50 127.95 C 258.22 127.60 257.67 126.90 257.39 126.55 C 252.75 125.93 248.23 124.70 243.58 124.13 C 244.26 122.41 244.82 120.51 246.29 119.28 Z" />
<path fill="#ffd769" opacity="1.00" d=" M 191.53 118.73 C 193.96 116.73 196.94 122.03 194.19 123.45 C 193.21 121.94 191.98 120.51 191.53 118.73 Z" />
<path fill="#ffd769" opacity="1.00" d=" M 186.42 119.12 C 186.99 119.18 188.13 119.28 188.69 119.33 C 188.42 121.12 187.69 122.75 186.16 123.81 C 186.22 122.24 186.31 120.68 186.42 119.12 Z" />
<path fill="#ced5e8" opacity="1.00" d=" M 239.80 119.41 C 240.31 119.85 240.82 120.29 241.33 120.73 C 241.69 120.64 242.39 120.45 242.74 120.36 C 242.32 121.76 241.89 123.16 241.46 124.56 C 239.07 123.45 236.69 122.35 234.32 121.23 C 236.15 120.65 237.98 120.05 239.80 119.41 Z" />
<path fill="#ffffff" opacity="1.00" d=" M 53.32 121.94 C 55.55 121.03 55.73 124.44 53.69 124.64 C 51.51 125.50 51.44 122.26 53.32 121.94 Z" />
<path fill="#548ba9" opacity="1.00" d=" M 137.35 124.25 C 138.43 123.61 139.40 122.66 140.64 122.31 C 148.38 122.22 156.00 123.97 163.74 124.10 C 161.25 125.30 158.65 126.29 155.97 126.97 C 146.17 129.53 136.44 132.38 126.91 135.81 C 124.99 136.48 123.07 137.20 121.04 137.46 C 115.66 138.15 111.82 133.20 106.53 132.92 C 104.87 132.04 104.98 129.42 104.68 127.75 C 110.96 126.94 117.52 126.98 123.91 126.62 C 126.23 126.09 128.07 124.41 130.03 123.14 C 132.48 123.38 134.93 123.73 137.35 124.25 Z" />
<path fill="#724c50" opacity="1.00" d=" M 83.74 122.97 C 87.14 124.23 90.76 124.73 94.38 124.45 C 92.97 125.27 91.50 126.01 90.05 126.77 C 92.66 127.79 95.41 128.62 97.69 130.32 C 97.97 131.94 96.11 132.56 95.24 133.58 C 93.03 132.45 90.92 130.87 88.35 130.76 C 89.08 130.27 89.82 129.80 90.56 129.32 C 89.97 128.88 89.38 128.44 88.79 128.00 C 87.03 126.40 85.37 124.69 83.74 122.97 Z" />
<path fill="#63353b" opacity="1.00" d=" M 94.38 124.45 C 95.15 123.91 95.89 123.36 96.62 122.78 C 100.18 123.31 103.75 123.77 107.35 123.86 C 105.06 125.60 102.41 126.75 99.77 127.84 C 99.72 130.29 99.69 132.74 99.69 135.18 C 98.21 134.64 96.73 134.09 95.24 133.58 C 96.11 132.56 97.97 131.94 97.69 130.32 C 95.41 128.62 92.66 127.79 90.05 126.77 C 91.50 126.01 92.97 125.27 94.38 124.45 Z" />
<path fill="#904725" opacity="1.00" d=" M 243.58 124.13 C 248.23 124.70 252.75 125.93 257.39 126.55 C 257.67 126.90 258.22 127.60 258.50 127.95 L 259.17 128.80 C 255.39 130.89 250.64 131.47 246.80 129.21 C 244.79 128.30 244.42 125.92 243.58 124.13 Z" />
<path fill="#c5896c" opacity="1.00" d=" M 27.79 126.38 C 30.58 125.94 33.40 125.83 36.22 125.97 C 36.67 126.53 37.58 127.65 38.04 128.21 C 36.28 128.24 34.53 128.37 32.77 128.41 C 30.96 128.22 29.35 127.24 27.79 126.38 Z" />
<path fill="#fff6ff" opacity="1.00" d=" M 36.22 125.97 C 40.41 126.31 44.65 126.30 48.84 125.88 C 48.65 126.86 48.45 127.84 48.26 128.83 C 44.86 128.59 41.45 128.35 38.04 128.21 C 37.58 127.65 36.67 126.53 36.22 125.97 Z" />
<path fill="#e2bd66" opacity="1.00" d=" M 48.84 125.88 C 50.47 126.47 52.08 127.40 52.18 129.35 C 50.88 129.16 49.57 128.99 48.26 128.83 C 48.45 127.84 48.65 126.86 48.84 125.88 Z" />
<path fill="#86696b" opacity="1.00" d=" M 85.11 125.98 C 86.33 126.67 87.57 127.31 88.79 128.00 C 89.38 128.44 89.97 128.88 90.56 129.32 C 89.82 129.80 89.08 130.27 88.35 130.76 C 87.77 131.17 86.61 131.99 86.03 132.40 C 84.17 131.05 82.27 129.76 80.55 128.23 C 82.06 127.47 83.59 126.73 85.11 125.98 Z" />
<path fill="#be7053" opacity="1.00" d=" M 32.77 128.41 C 34.53 128.37 36.28 128.24 38.04 128.21 C 41.45 128.35 44.86 128.59 48.26 128.83 C 49.57 128.99 50.88 129.16 52.18 129.35 C 52.44 130.97 52.78 132.58 53.12 134.19 C 50.07 133.28 46.78 129.69 43.85 132.74 C 39.86 132.20 36.24 130.34 32.77 128.41 Z" />
<path fill="#8f7779" opacity="1.00" d=" M 214.77 127.93 C 218.51 132.97 221.98 138.20 225.67 143.28 C 221.62 145.69 217.37 148.90 212.42 148.57 C 208.16 147.71 209.50 142.47 208.96 139.32 C 211.62 136.74 214.36 134.23 216.77 131.42 C 214.86 132.10 212.93 132.82 211.26 134.01 C 212.71 132.16 213.84 130.08 214.77 127.93 Z" />
<path fill="#724d52" opacity="1.00" d=" M 238.83 130.49 C 239.74 129.30 241.01 128.44 242.12 127.45 C 243.41 128.77 244.70 130.08 246.03 131.36 C 241.79 134.57 237.56 138.02 234.72 142.61 C 233.62 144.26 232.82 146.22 231.06 147.31 C 230.04 144.42 231.08 141.49 231.97 138.74 L 232.36 138.68 C 237.11 139.18 238.09 134.03 238.83 130.49 Z" />
<path fill="#6f4349" opacity="1.00" d=" M 101.65 137.75 C 101.57 134.72 101.46 131.64 102.24 128.68 C 103.00 130.90 103.89 133.07 105.01 135.13 C 101.24 137.21 99.30 141.09 96.90 144.46 C 96.33 141.29 95.41 138.19 94.21 135.20 C 96.60 136.29 99.10 137.12 101.65 137.75 Z" />
<path fill="#ffffff" opacity="1.00" d=" M 257.08 132.23 C 258.80 131.32 260.44 130.27 262.09 129.24 C 268.55 133.09 273.47 139.64 275.13 147.00 C 276.16 151.64 273.98 156.78 269.63 158.89 C 262.74 154.53 259.43 146.43 257.14 138.94 C 256.59 137.00 255.97 135.08 255.34 133.17 C 255.78 132.93 256.65 132.47 257.08 132.23 Z" />
<path fill="#9b8888" opacity="1.00" d=" M 232.36 138.68 C 233.87 135.51 236.11 132.72 238.83 130.49 C 238.09 134.03 237.11 139.18 232.36 138.68 Z" />
<path fill="#e4dbb8" opacity="1.00" d=" M 211.26 134.01 C 212.93 132.82 214.86 132.10 216.77 131.42 C 214.36 134.23 211.62 136.74 208.96 139.32 C 208.94 138.64 208.90 137.27 208.88 136.59 C 209.54 135.62 210.36 134.76 211.26 134.01 Z" />
<path fill="#bfc6d9" opacity="1.00" d=" M 252.43 132.81 C 253.98 132.65 255.53 132.44 257.08 132.23 C 256.65 132.47 255.78 132.93 255.34 133.17 C 255.97 135.08 256.59 137.00 257.14 138.94 C 256.02 139.45 254.90 139.98 253.78 140.51 C 253.68 142.64 253.49 144.76 253.31 146.89 C 251.15 142.51 250.76 137.42 252.43 132.81 Z" />
<path fill="#c28749" opacity="1.00" d=" M 62.16 137.25 C 66.90 135.41 71.84 133.86 76.94 133.43 C 79.72 132.92 82.11 134.87 84.86 134.77 C 85.51 136.38 85.29 138.05 84.84 139.68 C 84.28 139.29 83.17 138.50 82.61 138.11 C 81.99 139.73 81.40 141.39 81.37 143.15 C 81.08 140.34 80.69 137.54 80.12 134.76 C 77.74 134.60 75.37 134.81 73.06 135.40 C 69.28 134.95 65.29 135.90 62.37 138.41 C 61.12 139.50 61.84 141.76 60.41 142.66 C 59.96 142.93 59.06 143.47 58.60 143.74 C 58.22 142.50 56.87 141.13 57.88 139.86 C 58.87 138.41 60.64 137.92 62.16 137.25 Z" />
<path fill="#5389a9" opacity="1.00" d=" M 37.93 133.48 C 40.86 134.40 44.10 135.48 46.94 133.67 C 49.15 135.05 51.56 136.20 54.22 136.30 C 50.76 136.76 47.67 138.50 45.33 141.07 C 45.72 140.19 46.49 138.44 46.88 137.57 C 44.86 138.66 43.20 140.23 41.69 141.92 C 39.80 140.77 37.69 139.80 36.32 137.99 C 36.04 136.32 37.40 134.97 37.93 133.48 Z" />
<path fill="#ff6977" opacity="1.00" d=" M 87.52 135.33 L 87.88 136.02 C 89.83 140.04 89.10 144.64 89.06 148.96 C 88.44 147.54 87.76 146.15 87.02 144.79 C 85.01 148.72 83.54 152.89 82.11 157.06 C 80.84 157.27 79.57 157.50 78.30 157.74 C 77.88 156.52 77.46 155.29 77.04 154.07 C 77.81 152.90 78.57 151.73 79.34 150.56 C 80.60 150.77 81.56 150.35 82.22 149.30 C 85.32 145.29 86.93 140.31 87.52 135.33 Z" />
<path fill="#7bcf70" opacity="1.00" d=" M 45.33 141.07 C 47.67 138.50 50.76 136.76 54.22 136.30 C 54.47 136.76 54.97 137.67 55.21 138.13 C 55.59 141.61 52.28 143.20 50.01 145.06 C 46.55 147.59 43.78 151.26 39.42 152.34 C 40.00 148.01 42.39 144.20 45.33 141.07 Z" />
<path fill="#26161a" opacity="1.00" d=" M 77.03 136.96 C 77.46 137.02 78.34 137.16 78.78 137.23 C 79.68 139.84 79.75 142.62 79.77 145.35 C 78.14 142.83 77.54 139.87 77.03 136.96 Z" />
<path fill="#70474e" opacity="1.00" d=" M 175.10 151.77 C 187.42 149.63 199.09 144.35 208.88 136.59 C 208.90 137.27 208.94 138.64 208.96 139.32 C 209.50 142.47 208.16 147.71 212.42 148.57 C 217.37 148.90 221.62 145.69 225.67 143.28 C 226.34 144.18 227.49 144.85 227.69 146.02 L 227.16 146.07 C 224.82 146.12 222.94 147.64 221.02 148.77 C 219.07 149.30 217.09 149.70 215.13 150.15 C 212.64 150.75 210.18 151.48 207.78 152.36 C 204.96 153.20 202.41 154.76 200.44 156.95 C 196.70 157.93 193.24 159.69 189.68 161.14 C 187.93 158.53 186.45 155.51 183.52 154.00 C 185.87 159.67 190.12 164.74 190.39 171.12 C 186.05 175.57 180.95 179.45 176.99 184.36 C 176.04 183.64 175.11 182.93 174.17 182.21 C 175.67 181.25 177.18 180.30 178.69 179.34 C 177.70 178.37 176.72 177.41 175.74 176.44 C 179.03 170.72 178.95 163.59 175.78 157.84 C 177.40 155.81 176.08 153.71 175.10 151.77 Z" />
<path fill="#69af8a" opacity="1.00" d=" M 55.21 138.13 C 55.76 142.30 57.35 146.21 59.59 149.75 C 60.21 149.90 61.43 150.20 62.05 150.35 C 58.73 154.73 53.45 156.88 49.23 160.22 C 45.42 158.34 41.93 155.80 39.42 152.34 C 43.78 151.26 46.55 147.59 50.01 145.06 C 52.28 143.20 55.59 141.61 55.21 138.13 Z" />
<path fill="#4d7fa0" opacity="1.00" d=" M 62.75 143.75 C 62.23 139.93 65.86 136.72 69.52 138.23 C 67.58 140.43 65.27 142.26 62.75 143.75 Z" />
<path fill="#5e3940" opacity="1.00" d=" M 73.03 138.20 C 73.59 138.30 74.70 138.50 75.26 138.60 C 76.44 142.78 78.21 147.09 76.98 151.49 C 76.69 151.25 76.11 150.76 75.82 150.52 C 75.36 146.31 74.27 142.23 73.03 138.20 Z" />
<path fill="#6fba82" opacity="1.00" d=" M 62.75 143.75 C 65.27 142.26 67.58 140.43 69.52 138.23 C 70.18 139.53 70.90 140.81 71.65 142.07 C 69.05 144.20 66.47 146.36 64.06 148.71 C 63.60 148.62 62.67 148.43 62.21 148.33 C 62.39 146.80 62.57 145.28 62.75 143.75 Z" />
<path fill="#ffd769" opacity="1.00" d=" M 81.37 143.15 C 81.40 141.39 81.99 139.73 82.61 138.11 C 83.17 138.50 84.28 139.29 84.84 139.68 C 83.82 142.17 82.89 144.71 81.59 147.08 C 81.47 145.77 81.40 144.46 81.37 143.15 Z" />
<path fill="#abb3cb" opacity="1.00" d=" M 253.78 140.51 C 254.90 139.98 256.02 139.45 257.14 138.94 C 259.43 146.43 262.74 154.53 269.63 158.89 L 269.83 159.04 C 261.84 161.65 255.24 153.77 253.31 146.89 C 253.49 144.76 253.68 142.64 253.78 140.51 Z" />
<path fill="#5185ac" opacity="1.00" d=" M 136.78 141.78 C 140.52 140.86 144.27 139.89 148.13 139.63 C 148.47 142.11 149.18 144.53 150.16 146.83 C 149.76 147.05 148.96 147.49 148.55 147.71 C 144.49 146.03 140.44 144.26 136.78 141.78 Z" />
<path fill="#000000" opacity="1.00" d=" M 148.13 139.63 C 148.48 139.62 149.18 139.61 149.54 139.60 C 150.37 141.68 151.12 143.79 151.87 145.91 C 152.58 145.87 153.99 145.78 154.70 145.74 C 155.33 146.67 155.97 147.59 156.60 148.52 C 158.77 151.26 160.21 155.13 158.45 158.46 C 156.18 163.76 147.60 164.58 144.66 159.52 C 142.18 155.37 144.91 150.16 148.55 147.71 C 148.96 147.49 149.76 147.05 150.16 146.83 C 149.18 144.53 148.47 142.11 148.13 139.63 M 148.46 150.16 C 147.32 151.56 146.35 153.08 145.55 154.70 L 146.81 154.78 L 145.51 154.78 C 145.75 156.49 146.22 158.15 146.87 159.75 C 149.33 161.14 152.45 161.27 154.97 159.94 C 157.49 158.20 157.40 154.90 156.92 152.21 L 156.74 152.25 C 155.83 150.57 154.64 149.03 152.74 148.43 L 152.68 150.32 C 152.25 149.84 151.38 148.88 150.95 148.39 C 150.11 148.98 149.29 149.57 148.46 150.16 Z" />
<path fill="#664547" opacity="1.00" d=" M 89.16 155.14 C 89.29 150.38 91.35 145.94 91.65 141.18 C 95.77 140.27 94.77 145.40 94.74 147.96 C 93.86 150.92 92.59 154.47 89.16 155.14 Z" />
<path fill="#ffd769" opacity="1.00" d=" M 58.60 143.74 C 59.06 143.47 59.96 142.93 60.41 142.66 C 61.19 143.75 61.44 146.12 60.16 146.86 C 59.12 146.08 58.60 145.04 58.60 143.74 Z" />
<path fill="#5388ab" opacity="1.00" d=" M 64.06 148.71 C 66.47 146.36 69.05 144.20 71.65 142.07 C 72.28 143.78 72.85 145.53 73.37 147.29 C 70.93 148.29 68.56 149.45 66.30 150.80 C 65.54 150.12 64.79 149.43 64.06 148.71 Z" />
<path fill="#ccc1a7" opacity="1.00" d=" M 221.02 148.77 C 222.94 147.64 224.82 146.12 227.16 146.07 C 226.03 148.67 222.97 149.21 220.69 150.36 L 221.02 148.77 Z" />
<path fill="#9b8888" opacity="1.00" d=" M 227.16 146.07 L 227.69 146.02 C 230.64 148.79 232.99 152.39 236.29 154.92 C 235.98 156.09 235.68 157.26 235.38 158.42 C 228.51 161.39 221.64 164.49 214.45 166.59 C 216.51 161.18 219.74 156.16 220.69 150.36 C 222.97 149.21 226.03 148.67 227.16 146.07 Z" />
<path fill="#78c976" opacity="1.00" d=" M 66.30 150.80 C 68.56 149.45 70.93 148.29 73.37 147.29 C 73.75 151.03 73.94 155.01 71.78 158.30 C 69.58 156.08 68.00 153.39 66.30 150.80 Z" />
<path fill="#ff6774" opacity="1.00" d=" M 148.46 150.16 C 149.29 149.57 150.11 148.98 150.95 148.39 C 151.38 148.88 152.25 149.84 152.68 150.32 C 152.73 151.04 152.83 152.47 152.88 153.18 C 151.34 155.76 149.27 157.95 146.87 159.75 C 146.22 158.15 145.75 156.49 145.51 154.78 L 146.81 154.78 C 149.93 155.72 148.59 151.86 148.46 150.16 Z" />
<path fill="#ab3855" opacity="1.00" d=" M 152.74 148.43 C 154.64 149.03 155.83 150.57 156.74 152.25 C 155.45 152.55 154.17 152.86 152.88 153.18 C 152.83 152.47 152.73 151.04 152.68 150.32 L 152.74 148.43 Z" />
<path fill="#7a565b" opacity="1.00" d=" M 215.13 150.15 C 217.09 149.70 219.07 149.30 221.02 148.77 L 220.69 150.36 C 219.74 156.16 216.51 161.18 214.45 166.59 C 221.64 164.49 228.51 161.39 235.38 158.42 C 235.68 157.26 235.98 156.09 236.29 154.92 C 237.68 155.94 239.04 157.01 240.40 158.08 C 237.93 163.06 231.94 163.41 227.43 165.52 C 221.13 168.37 214.84 171.35 208.08 172.98 C 206.72 172.21 205.37 171.45 204.01 170.70 C 206.16 169.04 208.67 167.55 209.90 165.01 C 212.20 160.27 213.54 155.15 215.13 150.15 Z" />
<path fill="#5287ab" opacity="1.00" d=" M 62.05 150.35 C 62.45 150.44 63.24 150.62 63.64 150.71 C 63.80 151.40 64.11 152.78 64.26 153.47 C 61.22 156.74 58.16 160.00 55.12 163.27 C 53.12 162.32 51.16 161.29 49.23 160.22 C 53.45 156.88 58.73 154.73 62.05 150.35 Z" />
<path fill="#957f80" opacity="1.00" d=" M 207.78 152.36 C 210.18 151.48 212.64 150.75 215.13 150.15 C 213.54 155.15 212.20 160.27 209.90 165.01 C 208.67 167.55 206.16 169.04 204.01 170.70 C 205.37 171.45 206.72 172.21 208.08 172.98 C 205.84 173.67 203.74 174.71 201.62 175.72 C 198.79 176.85 196.00 178.11 193.45 179.79 C 192.94 176.51 195.44 174.40 197.86 172.73 C 196.47 171.24 195.10 169.72 193.79 168.16 C 195.00 166.07 196.25 163.99 197.52 161.93 C 200.29 161.25 201.91 158.70 204.03 157.00 C 205.42 155.59 207.55 154.56 207.78 152.36 Z" />
<path fill="#ffd769" opacity="1.00" d=" M 86.32 150.43 C 87.25 153.13 87.64 155.99 88.90 158.58 C 86.82 160.26 84.81 162.14 82.34 163.26 C 78.45 163.71 74.54 163.55 70.64 163.28 C 68.69 161.62 67.81 159.19 67.29 156.75 C 68.98 158.05 70.03 159.93 71.41 161.51 C 73.41 162.38 74.88 158.93 77.04 160.00 C 79.18 160.50 81.04 157.98 83.16 159.54 C 84.26 156.52 85.22 153.45 86.32 150.43 Z" />
<path fill="#6b4146" opacity="1.00" d=" M 95.14 150.79 C 97.06 153.02 98.72 155.57 98.89 158.60 C 96.13 159.81 93.42 161.14 90.89 162.80 C 91.74 164.16 92.60 165.53 93.46 166.89 C 89.19 172.47 83.92 177.16 78.56 181.65 C 77.38 182.67 76.01 183.43 74.60 184.11 C 76.25 181.58 78.16 179.22 79.57 176.55 C 80.70 173.69 78.49 171.34 76.57 169.57 C 80.05 168.58 83.85 167.75 86.43 165.00 C 86.49 164.60 86.61 163.80 86.67 163.40 L 86.66 162.86 C 89.79 160.60 92.22 157.53 95.23 155.12 C 95.19 153.68 95.17 152.23 95.14 150.79 Z" />
<path fill="#f1d5b4" opacity="1.00" d=" M 145.55 154.70 C 146.35 153.08 147.32 151.56 148.46 150.16 C 148.59 151.86 149.93 155.72 146.81 154.78 L 145.55 154.70 Z" />
<path fill="#82254e" opacity="1.00" d=" M 156.74 152.25 L 156.92 152.21 C 157.40 154.90 157.49 158.20 154.97 159.94 C 152.45 161.27 149.33 161.14 146.87 159.75 C 149.27 157.95 151.34 155.76 152.88 153.18 C 154.17 152.86 155.45 152.55 156.74 152.25 Z" />
<path fill="#ede7bf" opacity="1.00" d=" M 200.44 156.95 C 202.41 154.76 204.96 153.20 207.78 152.36 C 207.55 154.56 205.42 155.59 204.03 157.00 C 201.91 158.70 200.29 161.25 197.52 161.93 C 198.48 160.26 199.42 158.58 200.44 156.95 Z" />
<path fill="#77c777" opacity="1.00" d=" M 55.12 163.27 C 58.16 160.00 61.22 156.74 64.26 153.47 C 65.47 157.48 66.08 162.07 69.49 164.92 C 66.74 165.50 63.90 166.43 62.26 168.89 C 63.52 170.05 64.85 171.15 66.27 172.12 C 62.18 176.09 58.79 180.68 54.72 184.67 C 53.35 182.71 52.11 180.41 52.83 177.95 C 53.99 173.55 56.79 169.82 58.95 165.87 C 57.69 164.98 56.41 164.12 55.12 163.27 Z" />
<path fill="#bd3f5c" opacity="1.00" d=" M 36.12 158.00 C 37.00 157.11 37.93 156.28 38.87 155.47 C 40.57 156.99 42.30 158.47 44.09 159.89 C 41.48 161.99 39.01 164.27 36.69 166.69 C 34.82 164.92 34.19 162.46 34.80 159.98 C 35.32 160.38 36.36 161.19 36.88 161.59 C 37.42 161.17 38.49 160.31 39.02 159.88 C 38.86 159.21 38.53 157.87 38.37 157.21 C 37.80 157.40 36.68 157.80 36.12 158.00 Z" />
<path fill="#7b575c" opacity="1.00" d=" M 189.68 161.14 C 193.24 159.69 196.70 157.93 200.44 156.95 C 199.42 158.58 198.48 160.26 197.52 161.93 C 196.25 163.99 195.00 166.07 193.79 168.16 C 195.10 169.72 196.47 171.24 197.86 172.73 C 195.44 174.40 192.94 176.51 193.45 179.79 C 189.24 182.52 184.72 185.30 179.56 185.53 C 183.63 180.95 187.75 176.32 192.76 172.72 C 192.78 168.65 191.32 164.80 189.68 161.14 Z" />
<path fill="#f1d6b3" opacity="1.00" d=" M 36.12 158.00 C 36.68 157.80 37.80 157.40 38.37 157.21 C 38.53 157.87 38.86 159.21 39.02 159.88 C 38.49 160.31 37.42 161.17 36.88 161.59 C 36.36 161.19 35.32 160.38 34.80 159.98 C 35.13 159.48 35.79 158.49 36.12 158.00 Z" />
<path fill="#6c4349" opacity="1.00" d=" M 240.40 158.08 C 245.30 161.71 251.06 164.69 254.49 169.91 C 254.39 172.43 253.32 174.75 252.46 177.07 C 251.35 176.75 250.25 176.43 249.14 176.11 C 243.64 180.04 239.20 185.21 234.60 190.11 C 235.16 191.96 236.12 193.81 235.89 195.79 C 235.30 198.21 233.44 200.02 231.78 201.75 C 226.35 207.06 220.61 212.10 215.93 218.12 C 210.28 221.71 204.19 224.89 197.84 227.15 C 202.77 220.64 207.85 214.24 213.06 207.95 C 215.56 205.10 216.29 201.29 218.02 198.01 C 222.34 192.60 229.45 190.18 233.58 184.57 C 235.54 182.71 233.61 179.49 231.09 179.74 C 226.82 179.84 222.66 181.17 218.80 182.93 C 211.71 181.46 204.83 184.54 197.76 184.70 C 197.81 183.58 197.12 182.07 198.28 181.29 C 200.91 179.22 204.04 177.93 206.97 176.35 C 205.19 176.12 203.41 175.89 201.62 175.72 C 203.74 174.71 205.84 173.67 208.08 172.98 C 214.84 171.35 221.13 168.37 227.43 165.52 C 231.94 163.41 237.93 163.06 240.40 158.08 Z" />
<path fill="#a53254" opacity="1.00" d=" M 44.09 159.89 C 45.32 160.54 46.54 161.20 47.77 161.86 C 45.20 164.02 42.68 166.34 39.55 167.66 C 38.83 167.42 37.40 166.94 36.69 166.69 C 39.01 164.27 41.48 161.99 44.09 159.89 Z" />
<path fill="#4e7fb0" opacity="1.00" d=" M 124.09 161.13 C 137.05 165.05 148.44 173.42 162.04 175.24 C 165.67 174.94 168.91 172.87 171.83 170.83 C 174.69 168.77 174.95 164.98 175.33 161.79 C 177.45 167.65 175.68 174.75 170.57 178.47 C 164.96 182.79 157.52 182.39 150.85 182.17 C 149.98 185.18 150.31 189.29 146.97 190.83 C 141.27 193.41 135.32 190.20 130.14 187.87 C 124.59 192.58 119.05 197.79 112.01 200.15 C 107.48 201.70 103.44 198.46 100.10 195.85 C 97.76 194.08 96.94 190.69 94.00 189.69 C 94.07 192.17 95.45 194.22 96.91 196.11 C 95.08 201.52 91.36 206.11 86.86 209.57 C 85.29 207.44 83.90 205.17 82.65 202.84 C 84.40 196.88 89.20 192.57 92.09 187.20 C 94.79 183.83 97.78 180.34 98.43 175.92 C 99.05 172.78 96.73 170.25 95.16 167.82 C 95.25 167.36 95.44 166.44 95.53 165.98 C 94.88 165.03 94.23 164.07 93.58 163.12 C 94.02 162.98 94.89 162.69 95.33 162.55 C 96.03 166.60 98.87 169.62 100.86 173.06 C 102.08 175.11 103.10 177.59 105.45 178.59 C 109.57 180.64 114.72 178.92 117.59 175.55 C 120.85 172.05 122.02 167.31 123.22 162.83 C 123.44 162.40 123.87 161.55 124.09 161.13 Z" />
<path fill="#772048" opacity="1.00" d=" M 47.77 161.86 C 48.61 162.29 49.46 162.72 50.31 163.15 C 48.89 164.74 47.65 166.68 45.64 167.59 C 43.44 168.13 41.14 167.92 38.89 167.97 L 39.55 167.66 C 42.68 166.34 45.20 164.02 47.77 161.86 Z" />
<path fill="#ad7842" opacity="1.00" d=" M 70.64 163.28 C 74.54 163.55 78.45 163.71 82.34 163.26 C 79.61 164.83 76.81 166.32 73.80 167.30 C 72.24 166.60 71.73 164.55 70.64 163.28 Z" />
<path fill="#6ab188" opacity="1.00" d=" M 112.03 174.11 C 117.43 172.47 120.17 167.11 123.22 162.83 C 122.02 167.31 120.85 172.05 117.59 175.55 C 114.72 178.92 109.57 180.64 105.45 178.59 C 103.10 177.59 102.08 175.11 100.86 173.06 C 104.46 174.05 108.32 175.47 112.03 174.11 Z" />
<path fill="#8f7778" opacity="1.00" d=" M 72.24 169.92 C 77.39 168.56 81.97 165.78 86.67 163.40 C 86.61 163.80 86.49 164.60 86.43 165.00 C 83.85 167.75 80.05 168.58 76.57 169.57 C 78.49 171.34 80.70 173.69 79.57 176.55 C 78.16 179.22 76.25 181.58 74.60 184.11 C 73.36 185.68 71.64 186.76 70.07 187.97 C 70.34 186.25 70.62 184.54 70.95 182.84 L 71.23 183.69 C 71.38 184.16 71.68 185.11 71.83 185.59 C 73.98 181.20 74.24 175.04 70.81 171.29 C 70.55 171.34 70.03 171.45 69.77 171.50 C 68.02 171.32 66.33 169.68 65.82 167.97 L 66.90 168.16 C 67.71 169.90 71.59 168.72 68.81 167.63 C 68.34 167.76 67.38 168.03 66.90 168.16 C 68.03 167.52 69.17 166.89 70.31 166.29 C 70.96 167.49 71.60 168.70 72.24 169.92 Z" />
<path fill="#ebe1bc" opacity="1.00" d=" M 66.90 168.16 C 67.38 168.03 68.34 167.76 68.81 167.63 C 71.59 168.72 67.71 169.90 66.90 168.16 Z" />
<path fill="#6db683" opacity="1.00" d=" M 93.52 170.53 C 93.94 169.58 94.49 168.68 95.16 167.82 C 96.73 170.25 99.05 172.78 98.43 175.92 C 97.78 180.34 94.79 183.83 92.09 187.20 C 93.56 181.79 95.90 176.05 93.52 170.53 Z" />
<path fill="#ffffd3" opacity="1.00" d=" M 69.77 171.50 C 70.03 171.45 70.55 171.34 70.81 171.29 C 74.24 175.04 73.98 181.20 71.83 185.59 C 71.68 185.11 71.38 184.16 71.23 183.69 C 71.15 179.59 70.66 175.49 69.41 171.58 L 69.77 171.50 Z" />
<path fill="#7bcf70" opacity="1.00" d=" M 93.52 170.53 C 95.90 176.05 93.56 181.79 92.09 187.20 C 89.20 192.57 84.40 196.88 82.65 202.84 C 82.29 203.97 81.95 205.11 81.62 206.25 C 81.60 203.93 81.51 201.61 81.30 199.30 C 78.95 201.06 76.78 203.23 73.95 204.19 C 71.86 204.90 69.77 203.83 67.76 203.37 C 67.69 202.08 67.63 200.79 67.55 199.51 C 66.52 199.81 64.47 200.42 63.44 200.72 C 63.65 198.31 63.71 195.90 63.53 193.49 C 64.37 192.62 65.22 191.75 66.02 190.83 C 67.80 190.49 69.60 190.09 71.18 189.17 C 79.56 184.18 86.81 177.55 93.52 170.53 Z" />
<path fill="#6eb883" opacity="1.00" d=" M 66.27 172.12 C 70.36 177.25 69.36 185.41 66.02 190.83 C 65.22 191.75 64.37 192.62 63.53 193.49 C 61.44 193.42 59.42 193.94 57.44 194.52 C 57.75 188.98 61.20 184.58 63.98 180.04 C 61.91 182.06 60.07 184.29 58.18 186.48 C 57.03 185.86 55.88 185.25 54.72 184.67 C 58.79 180.68 62.18 176.09 66.27 172.12 Z" />
<path fill="#64363e" opacity="1.00" d=" M 152.13 183.59 C 160.57 186.14 170.38 183.64 175.74 176.44 C 176.72 177.41 177.70 178.37 178.69 179.34 C 177.18 180.30 175.67 181.25 174.17 182.21 C 175.11 182.93 176.04 183.64 176.99 184.36 C 174.21 187.90 171.07 191.38 169.81 195.80 C 168.87 199.34 169.63 203.03 170.29 206.55 L 169.66 206.68 C 167.27 207.14 164.92 207.78 162.59 208.46 C 162.13 209.61 161.66 210.76 161.19 211.91 C 161.02 211.11 160.66 209.52 160.48 208.73 C 160.71 203.05 161.43 197.26 160.24 191.65 C 158.23 189.31 155.03 188.84 152.18 188.32 C 152.15 186.74 152.14 185.16 152.13 183.59 Z" />
<path fill="#62343b" opacity="1.00" d=" M 193.45 179.79 C 196.00 178.11 198.79 176.85 201.62 175.72 C 203.41 175.89 205.19 176.12 206.97 176.35 C 204.04 177.93 200.91 179.22 198.28 181.29 C 197.12 182.07 197.81 183.58 197.76 184.70 C 204.83 184.54 211.71 181.46 218.80 182.93 C 215.19 185.01 210.99 186.39 208.31 189.76 C 204.65 188.36 200.70 189.44 196.99 190.06 C 189.54 191.47 182.70 194.85 176.07 198.39 C 174.68 197.86 173.30 197.34 171.91 196.81 C 173.34 192.50 176.15 188.88 179.18 185.58 L 179.56 185.53 C 184.72 185.30 189.24 182.52 193.45 179.79 Z" />
<path fill="#64363d" opacity="1.00" d=" M 249.14 176.11 C 250.25 176.43 251.35 176.75 252.46 177.07 C 250.22 181.53 248.15 186.13 245.26 190.22 C 239.35 197.08 233.36 203.89 226.98 210.32 C 230.87 210.44 234.75 210.66 238.63 210.99 C 235.80 213.55 233.62 216.69 231.69 219.95 C 230.71 219.70 229.75 219.45 228.78 219.20 C 228.38 218.15 227.97 217.11 227.57 216.07 C 227.11 216.33 226.18 216.85 225.71 217.11 C 225.90 218.40 226.12 219.68 226.36 220.96 C 224.67 223.04 223.48 225.64 221.27 227.23 C 218.02 228.16 214.61 228.32 211.29 228.93 C 211.56 227.13 211.60 225.31 211.42 223.51 C 216.26 220.95 221.41 218.51 224.89 214.12 C 221.79 215.20 218.97 216.89 215.93 218.12 C 220.61 212.10 226.35 207.06 231.78 201.75 C 233.44 200.02 235.30 198.21 235.89 195.79 C 236.12 193.81 235.16 191.96 234.60 190.11 C 239.20 185.21 243.64 180.04 249.14 176.11 Z" />
<path fill="#7e5a5f" opacity="1.00" d=" M 253.48 180.23 C 254.35 178.41 255.17 176.56 255.99 174.72 C 257.10 177.08 258.15 179.48 259.10 181.92 C 257.85 182.57 256.61 183.23 255.38 183.89 C 254.74 182.67 254.10 181.45 253.48 180.23 Z" />
<path fill="#978081" opacity="1.00" d=" M 218.80 182.93 C 222.66 181.17 226.82 179.84 231.09 179.74 C 233.61 179.49 235.54 182.71 233.58 184.57 C 229.45 190.18 222.34 192.60 218.02 198.01 C 216.29 201.29 215.56 205.10 213.06 207.95 C 207.85 214.24 202.77 220.64 197.84 227.15 C 195.65 228.34 193.01 227.11 192.59 224.66 C 190.30 215.45 191.50 205.86 191.42 196.48 L 191.94 196.31 C 197.38 194.15 203.60 193.39 208.31 189.76 C 210.99 186.39 215.19 185.01 218.80 182.93 Z" />
<path fill="#968081" opacity="1.00" d=" M 255.38 183.89 C 256.61 183.23 257.85 182.57 259.10 181.92 C 260.59 186.96 262.26 191.96 263.46 197.08 C 262.01 198.38 260.61 199.75 259.26 201.16 C 258.94 201.28 258.29 201.51 257.97 201.63 C 257.83 195.64 257.21 189.62 255.38 183.89 Z" />
<path fill="#978283" opacity="1.00" d=" M 146.64 193.73 C 149.03 192.55 150.92 190.65 152.18 188.32 C 155.03 188.84 158.23 189.31 160.24 191.65 C 161.43 197.26 160.71 203.05 160.48 208.73 C 159.05 215.81 158.40 224.20 152.19 228.94 C 147.21 229.64 142.30 230.77 137.31 231.40 C 138.21 230.21 139.07 228.97 140.15 227.93 C 146.63 222.56 149.89 213.72 148.98 205.42 C 146.68 208.15 146.48 211.86 145.18 215.06 C 145.70 211.47 145.67 207.84 145.52 204.23 C 145.35 200.69 145.76 197.15 146.64 193.73 Z" />
<path fill="#f4ffb9" opacity="1.00" d=" M 192.73 193.99 C 197.83 192.23 203.07 191.01 208.31 189.76 C 203.60 193.39 197.38 194.15 191.94 196.31 C 192.13 195.73 192.53 194.57 192.73 193.99 Z" />
<path fill="#6d494e" opacity="1.00" d=" M 142.37 193.95 C 143.79 193.87 145.22 193.79 146.64 193.73 C 145.76 197.15 145.35 200.69 145.52 204.23 C 144.74 200.73 143.43 197.37 142.37 193.95 Z" />
<path fill="#5c2b32" opacity="1.00" d=" M 177.93 200.07 C 181.91 198.19 185.64 195.76 189.90 194.52 C 188.77 199.63 189.28 204.87 188.96 210.05 C 187.24 213.38 183.85 215.37 180.91 217.52 C 180.72 213.83 180.79 209.83 178.13 206.92 C 176.02 207.47 173.91 208.00 171.78 208.48 C 172.75 206.91 173.73 205.36 174.71 203.81 C 173.79 203.71 172.86 203.60 171.94 203.48 C 171.88 202.04 171.83 200.60 171.79 199.15 C 173.77 199.70 175.89 201.32 177.93 200.07 Z" />
<path fill="#562f39" opacity="1.00" d=" M 119.42 204.39 C 120.44 200.84 121.70 197.15 125.00 195.07 C 127.79 197.80 129.96 201.13 130.58 205.05 C 130.04 206.19 129.51 207.34 128.98 208.49 C 126.02 206.67 123.11 204.29 119.42 204.39 Z" />
<path fill="#7c5a5e" opacity="1.00" d=" M 263.46 197.08 L 263.63 196.93 C 264.64 202.43 264.42 208.49 261.24 213.29 C 259.18 216.79 255.14 219.32 250.99 218.58 C 246.44 217.83 241.79 216.84 237.82 214.39 C 238.84 213.18 239.89 212.00 240.98 210.85 C 240.12 210.06 239.25 209.28 238.36 208.53 L 237.52 207.85 C 242.33 209.85 247.40 212.73 252.79 211.63 C 256.68 210.00 257.65 205.40 257.97 201.63 C 258.29 201.51 258.94 201.28 259.26 201.16 C 260.61 199.75 262.01 198.38 263.46 197.08 Z" />
<path fill="#6b4249" opacity="1.00" d=" M 98.46 197.81 C 101.18 199.70 103.91 201.64 107.03 202.83 C 110.02 208.26 111.47 214.45 110.63 220.64 C 108.85 220.27 107.07 219.91 105.28 219.58 C 103.36 215.70 101.80 211.66 100.00 207.73 C 98.99 205.83 97.76 204.05 96.52 202.30 C 97.16 200.80 97.80 199.30 98.46 197.81 Z" />
<path fill="#3e72ab" opacity="1.00" d=" M 73.95 204.19 C 76.78 203.23 78.95 201.06 81.30 199.30 C 81.51 201.61 81.60 203.93 81.62 206.25 C 81.95 205.11 82.29 203.97 82.65 202.84 C 83.90 205.17 85.29 207.44 86.86 209.57 C 82.53 212.44 77.41 215.43 72.01 214.21 C 67.87 212.43 67.55 207.26 67.76 203.37 C 69.77 203.83 71.86 204.90 73.95 204.19 Z" />
<path fill="#79565a" opacity="1.00" d=" M 96.52 202.30 C 97.76 204.05 98.99 205.83 100.00 207.73 C 96.16 211.34 92.66 215.37 88.15 218.17 C 86.49 217.03 84.82 215.89 83.15 214.76 C 88.39 211.53 93.15 207.52 96.52 202.30 Z" />
<path fill="#765257" opacity="1.00" d=" M 107.03 202.83 C 108.41 202.84 109.78 202.86 111.16 202.89 C 114.04 208.58 111.96 214.90 112.64 220.93 C 112.09 222.62 111.54 224.30 110.98 225.99 C 109.88 225.03 108.79 224.07 107.69 223.11 C 103.69 224.50 99.94 226.89 98.81 231.26 C 96.85 230.67 94.92 229.99 93.01 229.25 C 93.14 227.41 93.24 225.57 93.32 223.74 C 93.61 224.22 94.18 225.18 94.47 225.66 C 94.58 224.80 94.69 223.95 94.80 223.10 C 98.44 222.45 102.15 221.66 105.28 219.58 C 107.07 219.91 108.85 220.27 110.63 220.64 C 111.47 214.45 110.02 208.26 107.03 202.83 Z" />
<path fill="#58313b" opacity="1.00" d=" M 130.42 209.22 C 131.88 206.81 133.38 204.42 135.05 202.16 C 137.47 206.22 137.54 211.59 135.54 215.83 C 134.72 213.01 132.44 211.16 130.42 209.22 Z" />
<path fill="#f4ffb9" opacity="1.00" d=" M 145.18 215.06 C 146.48 211.86 146.68 208.15 148.98 205.42 C 149.89 213.72 146.63 222.56 140.15 227.93 C 142.25 223.80 143.50 219.35 145.18 215.06 Z" />
<path fill="#6a3f45" opacity="1.00" d=" M 162.59 208.46 C 164.92 207.78 167.27 207.14 169.66 206.68 C 167.15 210.71 164.57 214.73 162.59 219.05 C 161.51 222.22 164.19 224.64 166.52 226.25 C 162.31 230.74 156.85 234.02 153.28 239.09 C 153.17 241.92 155.72 244.03 156.95 246.43 C 155.01 247.65 152.58 248.68 151.81 251.05 C 150.97 253.17 152.25 255.24 152.93 257.21 C 151.88 258.92 150.26 260.53 150.33 262.69 L 150.29 263.14 C 149.86 263.35 149.01 263.77 148.58 263.98 C 148.97 258.34 149.52 250.02 143.09 247.54 L 143.46 247.32 C 148.49 245.26 152.38 239.35 149.39 234.09 C 150.05 233.37 150.73 232.66 151.41 231.96 C 151.25 231.28 151.00 230.64 150.65 230.05 C 151.03 229.77 151.80 229.22 152.19 228.94 C 158.40 224.20 159.05 215.81 160.48 208.73 C 160.66 209.52 161.02 211.11 161.19 211.91 C 161.66 210.76 162.13 209.61 162.59 208.46 Z" />
<path fill="#683d44" opacity="1.00" d=" M 115.78 211.07 C 117.56 209.56 119.36 208.08 121.16 206.60 C 125.39 208.66 129.43 211.24 132.66 214.68 C 131.28 217.71 130.97 221.31 129.02 224.01 C 126.39 224.99 123.63 225.60 121.08 226.80 C 120.32 225.94 119.56 225.08 118.81 224.23 C 119.95 221.57 122.62 218.74 121.36 215.70 C 119.83 213.20 116.91 214.90 114.86 215.59 C 115.19 214.09 115.49 212.58 115.78 211.07 Z" />
<path fill="#63363d" opacity="1.00" d=" M 171.78 208.48 C 173.91 208.00 176.02 207.47 178.13 206.92 C 180.79 209.83 180.72 213.83 180.91 217.52 C 178.79 219.33 176.56 221.01 174.16 222.43 C 171.93 219.43 169.87 216.31 168.19 212.97 C 169.28 211.50 170.36 210.03 171.44 208.55 L 171.78 208.48 Z" />
<path fill="#937d7d" opacity="1.00" d=" M 88.15 218.17 C 92.66 215.37 96.16 211.34 100.00 207.73 C 101.80 211.66 103.36 215.70 105.28 219.58 C 102.15 221.66 98.44 222.45 94.80 223.10 C 94.69 223.95 94.58 224.80 94.47 225.66 C 94.18 225.18 93.61 224.22 93.32 223.74 C 91.96 221.58 89.94 219.96 88.15 218.17 Z" />
<path fill="#836568" opacity="1.00" d=" M 114.86 215.59 C 116.91 214.90 119.83 213.20 121.36 215.70 C 122.62 218.74 119.95 221.57 118.81 224.23 C 113.36 226.36 106.58 226.87 103.44 232.54 C 101.90 232.07 100.36 231.64 98.81 231.26 C 99.94 226.89 103.69 224.50 107.69 223.11 C 108.79 224.07 109.88 225.03 110.98 225.99 C 111.54 224.30 112.09 222.62 112.64 220.93 C 113.36 219.14 114.15 217.38 114.86 215.59 Z" />
<path fill="#6c4349" opacity="1.00" d=" M 225.71 217.11 C 226.18 216.85 227.11 216.33 227.57 216.07 C 227.97 217.11 228.38 218.15 228.78 219.20 C 229.75 219.45 230.71 219.70 231.69 219.95 C 229.20 224.15 226.94 228.49 225.40 233.13 C 227.06 236.66 229.23 239.91 231.58 243.01 C 229.14 243.62 226.72 244.31 224.34 245.12 C 224.12 241.03 222.61 237.08 219.51 234.32 C 220.77 233.14 221.45 231.54 222.15 230.00 C 223.47 226.82 225.89 224.31 227.90 221.56 C 227.51 221.41 226.74 221.11 226.36 220.96 C 226.12 219.68 225.90 218.40 225.71 217.11 Z" />
<path fill="#876a6e" opacity="1.00" d=" M 226.36 220.96 C 226.74 221.11 227.51 221.41 227.90 221.56 C 225.89 224.31 223.47 226.82 222.15 230.00 C 221.45 231.54 220.77 233.14 219.51 234.32 C 215.91 233.48 213.96 236.73 211.94 239.03 C 210.32 237.46 208.72 235.86 207.16 234.23 C 208.58 232.49 209.94 230.71 211.29 228.93 C 214.61 228.32 218.02 228.16 221.27 227.23 C 223.48 225.64 224.67 223.04 226.36 220.96 Z" />
<path fill="#765157" opacity="1.00" d=" M 103.44 232.54 C 106.58 226.87 113.36 226.36 118.81 224.23 C 119.56 225.08 120.32 225.94 121.08 226.80 C 116.76 228.73 112.43 230.67 107.98 232.27 C 106.53 232.90 104.95 232.78 103.44 232.54 Z" />
<path fill="#775357" opacity="1.00" d=" M 137.31 231.40 C 142.30 230.77 147.21 229.64 152.19 228.94 C 151.80 229.22 151.03 229.77 150.65 230.05 C 151.00 230.64 151.25 231.28 151.41 231.96 C 150.73 232.66 150.05 233.37 149.39 234.09 C 144.84 234.34 140.29 233.90 135.81 233.11 C 136.13 232.69 136.75 231.85 137.07 231.44 L 137.31 231.40 Z" />
<path fill="#998585" opacity="1.00" d=" M 135.41 233.04 L 135.81 233.11 C 140.29 233.90 144.84 234.34 149.39 234.09 C 152.38 239.35 148.49 245.26 143.46 247.32 C 139.40 247.89 135.14 248.29 131.19 246.95 C 125.99 245.26 120.75 243.69 115.44 242.39 C 118.37 240.37 121.92 239.61 125.43 239.65 C 129.60 240.34 133.79 238.42 136.41 235.19 C 136.20 234.75 135.80 233.88 135.60 233.45 L 135.41 233.04 Z" />
<path fill="#f4ffb9" opacity="1.00" d=" M 125.43 239.65 C 129.06 238.00 132.52 235.99 135.60 233.45 C 135.80 233.88 136.20 234.75 136.41 235.19 C 133.79 238.42 129.60 240.34 125.43 239.65 Z" />
<path fill="#57303a" opacity="1.00" d=" M 189.03 251.58 C 189.37 244.10 195.06 238.90 200.03 234.03 L 200.89 235.21 C 199.46 238.50 196.60 240.95 195.22 244.28 C 194.47 245.87 194.16 247.68 193.19 249.17 C 191.95 250.19 190.44 250.83 189.03 251.58 Z" />
<path fill="#a9916f" opacity="1.00" d=" M 197.41 245.02 C 199.12 241.11 201.54 236.64 206.18 235.90 C 204.73 238.21 203.79 240.78 203.19 243.43 C 201.25 243.93 199.32 244.43 197.41 245.02 Z" />
<path fill="#5e3940" opacity="1.00" d=" M 206.18 235.90 C 207.36 237.31 208.56 238.70 209.79 240.07 C 209.51 244.00 207.92 247.64 206.04 251.05 C 203.32 251.86 200.61 252.69 197.87 253.44 C 199.79 250.19 201.90 247.00 203.19 243.43 C 203.79 240.78 204.73 238.21 206.18 235.90 Z" />
<path fill="#5c373f" opacity="1.00" d=" M 217.76 236.14 C 218.02 236.21 218.53 236.35 218.79 236.41 C 221.09 239.26 222.69 242.97 221.48 246.66 C 220.72 250.27 216.73 251.39 213.69 252.41 C 214.74 250.05 215.82 247.71 216.92 245.38 C 218.06 242.43 218.01 239.23 217.76 236.14 Z" />
<path fill="#a48b6c" opacity="1.00" d=" M 211.79 244.45 C 213.03 241.21 215.08 238.35 217.76 236.14 C 218.01 239.23 218.06 242.43 216.92 245.38 C 215.21 245.07 213.50 244.77 211.79 244.45 Z" />
<path fill="#6d444a" opacity="1.00" d=" M 115.25 242.34 L 115.44 242.39 C 120.75 243.69 125.99 245.26 131.19 246.95 C 135.14 248.29 139.40 247.89 143.46 247.32 L 143.09 247.54 C 137.60 250.42 133.13 254.78 129.99 260.11 C 127.56 253.74 121.40 249.87 115.17 247.84 C 113.76 247.35 112.85 246.07 111.78 245.12 C 112.93 244.19 114.09 243.26 115.25 242.34 Z" />
<path fill="#704f4f" opacity="1.00" d=" M 197.41 245.02 C 199.32 244.43 201.25 243.93 203.19 243.43 C 201.90 247.00 199.79 250.19 197.87 253.44 C 197.25 253.83 196.00 254.61 195.38 255.00 C 195.71 251.67 195.47 247.91 197.41 245.02 Z" />
<path fill="#69474a" opacity="1.00" d=" M 211.16 244.33 L 211.79 244.45 C 213.50 244.77 215.21 245.07 216.92 245.38 C 215.82 247.71 214.74 250.05 213.69 252.41 C 212.49 253.51 210.89 254.10 209.50 254.93 C 209.46 251.33 209.99 247.74 211.16 244.33 Z" />
<path fill="#5a363d" opacity="1.00" d=" M 143.40 249.87 C 147.27 253.02 146.96 258.57 146.77 263.06 C 146.25 265.88 145.76 269.80 142.52 270.70 C 139.03 271.98 135.65 273.54 132.34 275.23 C 133.17 270.20 136.70 266.30 138.96 261.89 C 141.05 258.37 142.32 254.45 143.24 250.48 L 143.40 249.87 Z" />
<path fill="#a48a6c" opacity="1.00" d=" M 101.64 258.33 C 103.31 254.59 105.87 249.84 110.77 250.53 C 108.22 253.68 105.83 257.07 102.29 259.20 L 101.64 258.33 Z" />
<path fill="#715050" opacity="1.00" d=" M 110.77 250.53 L 112.14 250.14 C 110.13 253.42 107.40 256.23 105.70 259.71 C 103.58 263.68 102.53 268.09 101.46 272.43 C 99.61 273.40 97.78 274.39 95.94 275.37 C 97.08 269.47 99.00 263.73 101.64 258.33 L 102.29 259.20 C 105.83 257.07 108.22 253.68 110.77 250.53 Z" />
<path fill="#a8906e" opacity="1.00" d=" M 105.51 266.24 C 107.22 259.91 111.21 254.37 116.19 250.18 C 115.18 253.55 114.45 257.04 113.02 260.27 C 110.45 262.17 107.51 263.66 105.51 266.24 Z" />
<path fill="#704f4f" opacity="1.00" d=" M 116.19 250.18 C 117.15 250.71 118.11 251.25 119.07 251.79 C 115.76 261.74 110.92 271.51 103.11 278.71 C 103.29 274.47 103.92 270.19 105.51 266.24 C 107.51 263.66 110.45 262.17 113.02 260.27 C 114.45 257.04 115.18 253.55 116.19 250.18 Z" />
<path fill="#704f4f" opacity="1.00" d=" M 138.29 253.13 C 139.80 252.00 141.43 251.04 143.24 250.48 C 142.32 254.45 141.05 258.37 138.96 261.89 C 136.70 266.30 133.17 270.20 132.34 275.23 C 131.27 276.00 130.18 276.76 129.09 277.52 C 128.85 271.73 129.84 265.78 132.35 260.57 C 134.91 259.91 138.41 260.51 139.94 257.85 C 141.30 256.08 139.04 254.57 138.29 253.13 Z" />
<path fill="#5a343d" opacity="1.00" d=" M 119.07 251.79 C 122.65 253.68 126.07 256.40 127.60 260.26 C 128.02 263.78 126.34 267.13 125.52 270.48 C 116.98 271.62 109.16 275.70 102.71 281.32 C 102.81 280.67 103.01 279.36 103.11 278.71 C 110.92 271.51 115.76 261.74 119.07 251.79 Z" />
<path fill="#a58d6d" opacity="1.00" d=" M 132.35 260.57 C 133.86 257.75 135.91 255.27 138.29 253.13 C 139.04 254.57 141.30 256.08 139.94 257.85 C 138.41 260.51 134.91 259.91 132.35 260.57 Z" />
<path fill="#745558" opacity="1.00" d=" M 150.33 262.69 C 150.26 260.53 151.88 258.92 152.93 257.21 C 153.61 258.08 154.30 258.95 154.98 259.83 C 153.44 260.80 151.89 261.75 150.33 262.69 Z" />
</svg>
