<?xml version="1.0" encoding="UTF-8" ?>
<!DOCTYPE svg PUBLIC "-//W3C//DTD SVG 1.1//EN" "http://www.w3.org/Graphics/SVG/1.1/DTD/svg11.dtd">
<svg width="404pt" height="290pt" viewBox="0 0 404 290" version="1.1" xmlns="http://www.w3.org/2000/svg">
<path fill="#000000" opacity="0.49" d=" M 263.89 6.36 C 265.49 6.35 267.04 6.74 268.25 7.85 C 269.51 8.19 270.78 8.52 272.06 8.84 C 267.67 8.35 263.23 8.31 258.85 8.83 C 260.73 8.45 262.57 7.85 263.89 6.36 Z" />
<path fill="#000000" opacity="1.00" d=" M 234.03 20.92 C 241.35 15.30 249.50 10.03 258.85 8.83 C 263.23 8.31 267.67 8.35 272.06 8.84 C 279.47 10.04 287.50 12.62 292.05 19.00 C 295.84 24.53 295.17 31.68 294.33 37.98 C 292.72 45.91 290.59 53.73 289.08 61.69 C 294.49 62.06 300.40 63.71 303.60 68.45 C 305.21 70.53 304.65 73.28 304.56 75.70 C 309.72 74.38 315.58 73.98 320.35 76.80 C 324.28 79.09 326.18 83.61 326.86 87.93 C 328.12 95.61 327.61 103.74 324.46 110.93 C 333.90 104.66 342.71 97.44 352.64 91.89 C 346.79 105.21 340.26 118.23 332.90 130.78 C 338.46 131.52 344.62 132.10 348.98 136.03 C 352.20 139.07 351.98 144.09 350.52 147.93 C 348.31 153.73 344.27 158.61 339.97 163.00 C 342.75 164.85 343.06 167.98 342.28 171.02 C 346.23 168.44 350.04 165.34 354.70 164.16 C 354.38 165.49 353.97 166.80 353.46 168.07 C 346.28 183.44 336.89 197.62 328.68 212.43 C 343.40 208.46 358.53 205.97 373.68 204.39 C 373.51 205.95 372.71 207.35 371.55 208.37 C 364.31 214.93 355.97 220.10 348.37 226.21 C 344.15 229.55 340.39 233.41 336.42 237.03 C 335.75 240.13 336.07 243.59 334.41 246.39 C 332.55 246.91 330.64 247.14 328.75 247.49 C 329.07 249.91 329.28 252.35 329.40 254.79 C 341.26 254.80 353.13 255.40 364.99 255.78 C 371.99 256.52 379.17 256.43 385.98 258.40 C 388.36 258.88 389.83 261.97 387.85 263.79 C 384.61 266.90 379.87 267.44 375.66 268.37 C 359.54 271.04 343.18 271.84 326.92 273.27 C 312.60 274.09 298.33 275.95 283.97 275.78 C 280.98 275.43 278.91 278.04 276.14 278.58 C 262.68 281.55 248.76 281.49 235.05 280.85 C 231.03 280.66 226.95 281.22 222.97 280.49 C 220.66 279.47 218.88 277.59 216.97 276.00 C 213.74 278.58 210.40 281.61 206.05 281.86 C 196.39 282.90 186.72 283.94 177.05 284.80 C 168.26 285.78 159.40 286.02 150.67 287.49 C 145.68 281.86 137.73 282.85 130.97 282.39 C 124.43 281.93 117.80 281.78 111.37 280.42 C 102.52 277.63 94.28 273.28 85.92 269.33 C 77.71 267.28 69.30 266.03 61.06 264.06 C 56.60 262.88 50.97 263.16 48.22 258.74 C 45.65 254.91 41.70 251.92 40.19 247.48 C 47.50 247.45 54.81 247.75 62.12 247.63 C 59.27 246.37 56.38 245.06 54.05 242.94 C 49.50 238.83 44.88 234.80 40.02 231.05 C 32.13 224.97 24.74 218.27 16.83 212.22 C 14.70 210.69 13.18 208.52 11.94 206.23 C 24.36 208.62 36.81 211.00 48.93 214.65 C 41.47 206.02 33.33 197.88 26.92 188.40 C 33.06 189.17 39.02 190.85 45.05 192.15 C 40.68 185.11 36.11 178.19 31.97 171.02 C 30.63 168.87 30.07 166.40 29.61 163.94 C 31.76 164.25 33.90 164.64 35.94 165.38 C 44.48 168.33 53.04 171.26 61.44 174.60 C 61.30 171.57 60.44 168.01 62.63 165.47 C 64.26 163.30 66.94 162.44 69.44 161.76 C 69.46 158.16 68.77 154.09 71.13 151.02 C 73.56 147.72 77.33 145.82 80.78 143.78 C 79.56 142.55 77.97 141.56 77.24 139.94 C 77.31 138.58 77.58 137.24 77.79 135.91 C 74.63 138.42 70.63 139.29 66.89 140.55 C 63.26 139.44 59.02 141.71 56.02 138.82 C 47.21 131.37 38.73 123.25 32.48 113.47 C 31.50 112.17 31.27 110.56 31.12 108.99 C 38.23 112.19 44.84 116.36 51.50 120.37 C 51.06 117.52 50.61 114.65 50.82 111.76 C 53.74 112.66 55.66 115.12 58.05 116.84 C 59.81 117.95 61.49 116.52 63.02 115.77 C 65.37 115.77 67.73 115.69 70.05 115.27 C 66.71 112.95 64.91 109.09 65.24 105.04 C 65.22 103.27 65.27 99.64 68.05 100.60 C 70.76 102.89 72.42 106.09 74.58 108.84 C 76.02 107.86 76.93 106.30 78.14 105.08 C 80.54 102.41 83.92 100.96 86.58 98.61 C 96.01 83.79 109.06 71.28 123.93 61.98 C 131.65 57.02 140.76 54.24 149.97 54.50 C 149.49 53.27 149.01 52.04 148.52 50.82 C 149.83 46.07 155.37 46.72 158.83 48.54 C 157.77 42.56 157.06 36.15 159.32 30.37 C 160.20 28.21 162.66 28.51 163.66 30.40 C 166.71 35.72 166.69 42.20 166.35 48.16 C 169.00 46.09 171.57 43.61 174.97 42.89 C 180.04 41.62 185.10 43.91 189.35 46.50 C 191.42 38.47 196.30 29.97 204.92 27.84 C 211.39 26.59 218.13 27.68 224.34 29.70 C 227.25 26.44 230.49 23.49 234.03 20.92 M 248.60 14.67 L 248.24 15.02 C 242.42 17.34 237.58 21.43 232.60 25.12 L 232.54 25.28 C 230.69 26.88 228.43 28.22 227.19 30.40 L 225.87 31.43 C 218.11 30.79 209.74 27.78 202.29 31.35 C 195.98 34.98 191.94 42.24 191.59 49.44 C 191.42 49.62 191.08 49.97 190.91 50.15 C 189.10 49.09 187.27 48.06 185.47 46.99 C 181.85 45.42 177.63 44.24 173.81 45.82 C 169.45 47.79 166.48 51.74 163.94 55.64 C 168.74 57.04 173.47 58.70 178.07 60.70 C 180.29 61.59 182.48 62.55 184.62 63.63 C 185.80 63.51 186.99 63.36 188.17 63.20 C 188.34 63.64 188.68 64.52 188.85 64.96 C 191.20 65.54 193.53 66.19 195.86 66.83 C 199.05 67.91 202.01 69.50 205.10 70.82 C 208.58 69.90 211.63 67.75 214.53 65.66 C 218.92 62.51 220.31 56.91 224.19 53.28 C 229.92 50.01 236.11 47.03 242.79 46.56 C 236.62 52.72 230.40 59.02 226.25 66.80 C 224.95 69.53 224.31 72.80 221.75 74.70 C 219.92 76.14 218.47 77.97 217.34 80.00 C 226.38 88.15 236.11 95.79 243.05 105.93 C 243.38 106.57 243.71 107.21 244.04 107.85 L 244.25 107.73 C 246.02 110.71 247.36 114.83 250.80 116.15 C 260.64 110.17 270.26 103.76 280.41 98.32 C 280.92 98.49 281.92 98.84 282.42 99.01 L 281.73 99.87 C 281.44 106.52 281.97 113.27 280.44 119.81 C 277.36 131.80 271.81 142.91 266.97 154.25 C 270.30 152.26 273.13 149.58 276.19 147.23 C 290.97 135.60 306.01 124.30 321.37 113.45 C 322.64 108.47 324.53 103.62 324.80 98.44 C 324.81 92.70 325.19 86.34 321.82 81.37 C 319.74 78.26 315.89 77.30 312.38 77.01 C 309.68 77.03 306.97 77.38 304.59 78.70 C 300.41 79.14 302.81 74.26 302.77 72.03 C 301.30 65.86 294.27 64.09 288.78 63.63 L 287.95 64.69 C 287.63 64.29 287.00 63.49 286.69 63.08 C 287.04 55.88 289.79 49.07 290.55 41.95 L 290.92 42.25 C 292.13 36.08 293.52 29.54 291.49 23.39 C 290.05 19.13 286.31 16.25 282.36 14.45 L 282.38 14.36 C 271.71 9.88 259.07 9.30 248.60 14.67 M 160.39 44.04 C 160.81 46.99 161.73 49.84 163.42 52.31 C 164.51 47.93 164.75 43.31 163.93 38.87 C 163.73 36.10 162.78 33.47 161.69 30.94 C 159.49 34.93 160.35 39.69 160.39 44.04 M 151.48 52.45 C 153.31 56.06 158.22 54.16 161.50 55.29 C 161.86 54.86 162.23 54.43 162.60 54.00 C 159.86 51.78 156.92 49.05 153.11 49.33 C 151.16 48.99 150.63 51.14 151.48 52.45 M 225.42 55.53 C 222.97 57.63 221.69 60.69 220.11 63.42 C 218.57 65.05 216.94 66.58 215.26 68.06 L 215.18 68.30 C 212.14 70.12 209.03 71.84 205.88 73.47 C 200.37 75.36 194.74 76.97 189.24 78.92 C 188.47 78.95 186.93 79.02 186.16 79.05 C 185.03 78.66 183.91 78.25 182.80 77.84 C 180.82 74.78 184.06 72.04 184.91 69.19 C 181.52 72.74 179.01 77.07 178.89 82.10 C 178.23 85.64 175.53 87.87 172.31 89.12 C 171.93 89.19 171.17 89.32 170.79 89.39 C 167.95 90.22 165.10 91.01 162.17 91.48 C 158.49 96.66 152.07 98.79 145.93 98.78 C 145.08 99.68 144.25 100.58 143.41 101.49 C 141.72 105.09 140.97 109.09 141.37 113.06 C 141.41 115.45 143.00 117.70 145.12 118.72 C 147.18 118.72 149.20 118.31 151.23 118.05 C 156.80 120.10 161.61 115.76 167.07 115.80 C 169.80 116.85 172.65 117.56 175.36 118.68 C 177.92 115.12 180.39 111.51 182.79 107.84 C 181.03 105.35 177.66 104.83 175.95 102.37 C 179.58 102.49 182.27 104.95 185.14 106.83 C 187.40 106.77 188.61 104.51 189.90 102.96 C 192.23 99.41 194.99 95.63 194.78 91.16 C 195.08 90.70 195.69 89.78 196.00 89.32 C 201.63 88.34 207.36 87.34 212.35 84.38 C 214.75 82.11 215.45 78.82 217.03 76.05 C 218.82 73.98 221.03 72.31 222.69 70.13 L 222.39 69.34 C 225.59 62.40 230.48 56.53 235.27 50.65 C 231.79 51.82 228.33 53.26 225.42 55.53 M 126.64 63.22 L 126.86 63.40 C 112.67 71.43 100.80 83.14 91.03 96.09 C 96.92 93.78 102.49 90.48 108.85 89.56 C 116.22 88.56 123.62 86.53 131.11 87.47 C 133.70 85.98 136.31 84.50 139.03 83.24 C 140.00 84.67 140.96 86.11 141.92 87.55 C 150.67 83.14 159.84 79.67 168.97 76.16 L 169.49 76.83 C 169.46 77.41 169.38 78.57 169.34 79.15 C 167.13 82.42 165.63 86.13 163.47 89.43 C 167.34 88.02 171.46 87.11 175.03 84.98 C 176.99 82.48 176.96 79.06 177.55 76.06 C 179.09 72.17 182.05 69.17 184.71 66.04 C 181.17 64.98 177.65 63.81 174.38 62.07 C 159.42 55.43 141.06 54.85 126.64 63.22 M 188.21 66.99 C 187.16 70.05 185.34 72.76 184.13 75.75 C 186.25 77.95 189.30 76.14 191.77 75.63 C 195.29 74.28 199.37 73.97 202.38 71.54 C 197.65 70.06 192.94 68.50 188.21 66.99 M 141.06 90.13 C 140.12 88.81 139.19 87.48 138.28 86.15 C 135.27 87.51 132.43 89.98 128.92 89.48 C 123.16 89.30 117.53 90.73 111.86 91.47 C 106.68 92.12 101.67 93.74 97.00 96.04 C 90.56 99.20 84.08 102.58 78.82 107.53 C 83.75 107.21 89.59 106.75 93.26 110.79 C 94.71 112.86 92.32 114.67 90.99 116.00 C 85.18 120.61 77.06 123.04 69.88 120.33 C 68.09 123.38 66.53 126.91 68.01 130.43 C 69.94 132.65 71.91 134.83 74.00 136.90 C 75.41 135.01 76.45 132.76 78.29 131.24 C 81.36 129.32 84.94 128.40 88.45 127.65 C 97.21 126.22 106.25 125.80 114.99 127.63 L 115.16 127.86 C 117.47 128.85 119.75 129.93 122.02 131.02 C 125.51 132.42 127.63 135.49 128.63 139.01 C 131.51 136.57 134.67 134.31 136.89 131.21 C 139.84 128.37 142.16 124.98 144.62 121.72 C 143.42 120.52 142.20 119.33 140.98 118.14 L 140.61 118.23 C 139.46 115.53 139.19 112.60 139.10 109.70 C 139.29 105.36 141.22 101.47 143.22 97.72 L 143.53 97.54 L 143.67 97.31 C 147.88 96.79 152.24 96.28 156.01 94.20 C 159.54 92.00 161.69 88.25 163.57 84.66 L 163.82 84.62 C 164.67 83.02 165.51 81.42 166.31 79.80 C 157.74 82.86 149.44 86.62 141.06 90.13 M 203.08 90.31 C 201.09 90.75 199.12 91.27 197.18 91.90 C 196.53 97.72 193.09 102.66 189.70 107.26 C 188.62 107.97 187.56 108.70 186.49 109.44 C 186.06 109.44 185.19 109.45 184.76 109.46 C 182.24 113.38 179.50 117.15 176.89 121.02 C 172.10 120.08 167.15 117.29 162.28 119.38 C 159.04 120.77 155.55 121.05 152.07 120.87 C 150.38 121.50 148.57 121.54 146.79 121.49 C 142.07 129.77 135.50 137.25 127.23 142.13 C 126.49 139.54 125.59 136.99 124.17 134.70 C 121.52 135.89 118.85 137.01 116.17 138.12 C 116.26 141.27 117.02 144.98 114.49 147.45 C 110.98 151.10 106.66 154.10 101.97 156.02 C 100.19 152.93 97.24 151.21 93.81 150.47 C 94.52 158.18 94.15 165.98 95.49 173.63 C 95.95 178.00 96.88 182.35 99.00 186.23 L 99.39 186.15 C 106.31 195.79 117.15 201.47 126.25 208.77 L 125.81 209.12 L 126.77 209.09 C 128.44 210.50 130.12 211.90 131.80 213.30 C 139.91 212.07 148.10 213.08 156.19 213.92 C 157.20 212.64 154.02 210.74 155.15 209.10 C 157.53 202.50 159.99 195.91 162.79 189.47 C 160.14 186.04 158.31 182.02 155.51 178.72 C 153.95 176.16 152.01 173.84 149.72 171.90 C 148.45 165.47 150.01 158.86 151.58 152.62 L 151.32 152.37 C 152.37 147.79 153.39 143.11 156.01 139.12 C 156.44 140.94 156.41 142.79 155.82 144.57 C 153.90 151.60 152.50 158.78 151.68 166.02 C 151.63 167.57 151.26 169.38 152.45 170.63 C 156.89 176.07 161.33 181.64 164.40 188.00 C 169.45 183.62 174.00 178.62 179.70 175.06 C 175.79 180.95 169.77 184.90 164.94 189.93 C 162.82 194.87 161.45 200.11 159.44 205.11 C 158.65 206.71 158.11 208.42 157.51 210.10 C 159.91 213.91 162.10 217.86 164.61 221.61 C 164.82 221.63 165.23 221.68 165.44 221.71 C 169.64 214.10 174.91 207.15 179.29 199.66 L 179.79 199.45 C 188.23 188.83 196.27 177.86 203.80 166.58 L 203.98 166.54 C 205.65 164.08 207.56 161.74 208.74 158.99 C 212.90 153.45 218.30 147.60 217.78 140.16 C 213.93 135.25 208.26 131.89 202.96 128.67 C 202.14 127.82 201.16 127.15 200.24 126.44 C 198.40 125.16 196.46 123.82 195.67 121.62 C 200.62 122.96 204.47 126.49 208.79 129.07 C 213.24 132.88 220.13 135.49 220.79 142.10 C 223.21 139.03 224.98 135.52 227.36 132.42 C 229.12 130.04 232.20 129.17 234.04 126.90 C 234.64 123.87 235.24 120.14 233.91 117.34 L 232.98 117.35 C 234.04 116.61 234.59 115.52 234.63 114.08 C 234.81 113.98 235.15 113.78 235.32 113.68 C 235.52 113.89 235.93 114.31 236.13 114.52 L 234.66 114.79 L 234.52 115.91 L 235.85 116.49 C 236.46 119.63 234.44 122.68 235.22 125.77 C 235.48 125.76 236.00 125.75 236.26 125.74 C 240.35 123.09 244.31 120.25 248.54 117.83 C 246.59 116.11 245.07 114.01 243.56 111.92 C 238.07 100.96 228.17 93.43 219.75 84.88 L 219.54 84.98 C 218.75 84.07 217.96 83.16 217.18 82.25 C 214.01 87.02 208.53 89.32 203.08 90.31 M 323.23 115.15 L 323.28 115.79 C 322.23 116.44 321.16 117.06 320.31 117.97 C 315.70 119.85 312.13 123.49 308.02 126.20 C 302.41 130.66 296.12 134.34 291.06 139.44 C 286.29 142.74 281.68 146.29 277.26 150.04 C 274.45 151.44 272.03 153.44 269.64 155.43 L 269.41 156.04 C 268.11 156.53 266.83 157.04 265.55 157.55 C 255.83 179.98 247.31 202.93 237.16 225.18 C 233.26 233.76 230.07 242.64 226.31 251.28 C 227.50 250.11 228.56 248.81 229.37 247.35 C 235.97 235.83 243.61 224.96 250.91 213.88 C 255.24 207.66 259.12 200.90 264.88 195.85 C 272.29 191.08 280.93 188.79 289.27 186.23 C 290.29 183.06 291.27 179.83 293.10 177.02 C 297.08 170.81 303.85 167.02 310.66 164.66 C 318.47 152.54 324.78 139.57 332.25 127.24 C 334.40 123.42 337.04 119.82 338.37 115.59 C 342.25 109.90 344.77 103.30 347.82 97.12 C 339.66 103.18 331.48 109.21 323.23 115.15 M 255.65 116.04 L 255.61 116.25 C 248.80 120.52 241.87 124.66 235.35 129.36 C 233.51 130.49 231.60 131.58 230.01 133.05 C 216.56 152.61 203.42 172.40 189.25 191.46 L 189.13 191.45 C 179.43 203.75 171.27 217.16 161.63 229.50 C 153.50 237.89 144.16 245.15 136.38 253.82 C 135.74 254.09 134.47 254.61 133.83 254.87 C 132.20 259.02 131.58 263.55 131.13 267.98 C 130.67 270.44 133.20 271.85 134.97 272.95 C 138.31 276.04 142.19 278.46 145.86 281.13 C 148.32 282.68 150.86 284.90 153.99 284.34 C 165.77 283.21 177.57 282.29 189.34 281.01 C 196.02 280.19 202.76 279.99 209.41 278.88 C 212.88 277.10 215.58 274.15 216.64 270.35 L 216.96 270.26 C 218.77 266.42 220.75 262.66 222.70 258.89 C 224.09 256.66 225.36 254.36 226.52 252.02 C 225.80 252.25 224.34 252.73 223.61 252.96 C 224.67 248.02 227.02 243.51 228.73 238.79 C 235.59 221.50 243.86 204.80 250.22 187.32 C 254.27 177.63 258.11 167.86 262.34 158.25 C 267.81 145.26 274.45 132.67 278.10 118.99 C 279.14 113.28 279.26 107.43 279.30 101.64 C 271.25 106.15 263.49 111.17 255.65 116.04 M 67.45 103.34 C 67.28 106.84 68.12 110.28 70.17 113.16 C 71.20 112.16 72.22 111.16 73.24 110.16 C 71.36 107.85 69.53 105.48 67.45 103.34 M 73.92 110.29 C 72.91 111.78 69.75 113.97 72.15 115.68 C 75.52 116.48 78.20 111.20 73.92 110.29 M 35.29 113.63 C 39.32 119.96 44.56 125.44 50.08 130.49 C 52.91 133.21 55.72 135.96 58.96 138.20 C 62.59 136.27 66.52 139.48 70.00 137.18 C 68.29 133.83 64.72 131.07 65.09 126.96 C 64.95 123.50 67.36 120.83 68.94 117.99 C 67.58 117.83 66.21 117.79 64.83 117.88 C 62.73 118.65 60.57 119.29 58.32 119.46 C 56.99 118.54 55.70 117.57 54.38 116.63 L 54.40 116.14 C 53.82 115.89 53.23 115.64 52.65 115.40 C 53.19 117.66 53.55 119.96 53.62 122.29 C 46.74 121.32 41.76 115.80 35.29 113.63 M 92.32 129.40 C 89.73 131.87 85.72 133.21 84.68 136.96 C 88.62 136.83 92.46 135.78 96.07 134.26 C 99.36 132.84 102.91 131.55 105.30 128.75 C 100.96 128.55 96.63 128.89 92.32 129.40 M 98.98 135.35 C 93.90 136.81 87.87 140.71 82.85 137.31 C 83.83 134.88 84.94 132.50 85.86 130.05 C 82.40 132.09 81.19 136.27 78.87 139.34 C 85.72 144.30 93.50 147.67 101.21 150.97 C 101.72 151.92 102.24 152.87 102.76 153.82 C 106.38 151.16 110.52 149.01 113.37 145.45 C 115.22 143.13 113.71 140.00 114.30 137.32 C 116.25 135.47 118.95 134.79 121.33 133.68 C 117.50 130.73 112.71 129.59 108.04 128.78 C 105.78 131.90 102.32 133.65 98.98 135.35 M 79.31 132.07 C 79.03 132.39 78.45 133.01 78.17 133.33 C 78.97 136.62 83.22 131.22 79.31 132.07 M 331.35 133.29 C 328.07 138.54 325.19 144.06 322.40 149.58 L 322.23 149.59 C 319.05 155.20 315.88 160.86 312.16 166.12 C 308.00 168.23 303.58 169.95 299.93 172.96 C 306.53 171.12 312.27 167.01 318.93 165.33 C 322.51 164.50 325.08 167.64 327.39 169.82 C 328.85 172.60 329.82 175.60 330.21 178.72 C 332.91 177.24 335.48 175.53 338.03 173.81 C 339.14 171.38 340.36 168.91 340.36 166.17 C 338.81 165.53 336.84 165.19 336.35 163.32 C 341.67 157.83 347.53 151.78 348.87 143.96 C 349.65 140.62 347.72 137.74 344.98 136.06 C 340.63 134.58 335.97 132.81 331.35 133.29 M 73.54 151.54 C 70.56 154.74 71.59 159.43 71.72 163.38 C 68.65 163.78 65.25 164.92 63.67 167.81 C 62.67 170.20 63.49 172.84 63.67 175.31 C 67.11 176.65 70.52 178.08 73.93 179.52 C 79.72 169.50 85.33 159.36 89.85 148.69 C 87.66 147.27 85.41 145.97 83.09 144.78 C 79.89 146.99 76.28 148.72 73.54 151.54 M 87.02 161.17 C 83.66 167.70 79.93 174.03 76.31 180.42 C 74.38 184.11 71.96 187.64 71.23 191.81 C 82.74 199.65 91.09 212.32 93.05 226.17 L 93.32 226.32 C 93.16 226.47 92.84 226.76 92.67 226.91 L 93.45 228.36 C 98.00 228.31 102.44 227.10 106.97 226.84 C 109.38 226.71 112.64 226.12 113.79 228.91 C 111.90 229.35 109.95 229.32 108.02 229.42 C 108.73 230.63 109.44 231.84 110.15 233.06 C 115.70 231.06 121.11 228.66 126.60 226.52 C 126.93 226.43 127.57 226.26 127.90 226.17 C 128.85 226.08 130.75 225.88 131.70 225.78 C 130.57 226.81 129.37 227.76 128.11 228.61 C 124.75 229.83 121.47 231.27 118.13 232.57 C 119.34 235.01 120.47 237.50 121.51 240.02 C 125.20 239.34 128.53 237.55 131.85 235.87 C 132.97 235.35 134.11 234.85 135.24 234.34 C 135.45 234.85 135.87 235.87 136.08 236.38 C 138.31 236.09 140.48 235.47 142.64 234.86 C 142.88 233.45 143.13 232.04 143.39 230.63 L 143.57 230.64 C 143.95 227.44 144.23 224.23 144.32 221.01 C 140.46 221.65 136.58 222.40 132.98 224.02 C 133.83 221.97 134.72 219.94 135.63 217.92 C 135.27 217.37 134.54 216.26 134.18 215.70 C 132.44 215.35 130.12 215.83 129.13 214.00 C 127.10 210.81 123.30 209.79 120.24 207.92 C 114.94 203.37 108.89 199.74 103.78 194.94 L 103.49 194.89 C 101.72 192.95 99.90 191.07 98.02 189.24 C 95.24 185.57 93.87 181.14 93.21 176.64 C 93.06 176.01 92.77 174.75 92.63 174.12 C 92.26 166.64 91.49 159.19 91.51 151.70 C 89.62 154.66 88.43 157.97 87.02 161.17 M 33.27 167.37 C 33.25 167.55 33.20 167.91 33.17 168.09 L 33.87 168.37 C 35.52 173.41 38.98 177.56 41.74 182.02 C 43.84 185.92 46.47 189.50 48.76 193.29 C 53.96 194.63 59.05 196.39 64.00 198.46 C 68.19 200.23 71.65 203.30 75.65 205.41 C 78.97 207.73 82.28 210.07 85.80 212.10 C 84.72 210.18 83.59 208.30 82.43 206.43 L 82.00 206.37 C 78.69 200.66 73.26 196.81 68.48 192.48 C 68.61 190.58 69.30 188.78 69.81 186.97 C 70.85 185.20 71.85 183.42 72.87 181.65 C 69.21 180.04 65.54 178.26 61.62 177.45 C 52.34 173.66 42.86 170.29 33.27 167.37 M 318.12 168.08 C 310.82 170.88 303.61 174.00 296.77 177.81 C 293.77 179.14 293.01 182.54 292.23 185.40 C 296.18 184.46 299.97 182.82 304.05 182.50 C 304.74 187.07 304.76 191.70 304.98 196.31 C 312.63 190.79 320.56 185.69 328.21 180.19 C 327.69 176.69 326.49 173.35 324.74 170.29 C 322.82 168.95 320.64 166.60 318.12 168.08 M 337.87 176.78 C 327.85 183.47 317.72 190.01 307.94 197.05 C 306.72 198.12 304.80 199.06 304.90 200.95 C 304.68 208.13 304.39 215.32 304.54 222.51 C 303.76 224.88 303.97 227.45 303.82 229.92 C 308.19 229.19 312.63 228.83 316.96 227.88 C 318.17 226.66 318.90 225.08 319.71 223.60 C 324.22 214.64 329.42 206.05 334.52 197.41 C 336.54 193.92 338.98 190.62 340.22 186.75 L 340.74 186.49 C 344.15 180.80 347.64 175.09 350.19 168.95 C 345.88 171.23 341.94 174.12 337.87 176.78 M 281.04 191.32 C 276.70 192.87 272.07 194.25 268.56 197.38 C 267.25 197.75 265.36 197.95 264.92 199.53 C 262.41 201.50 260.47 204.06 258.67 206.67 C 244.64 227.26 230.63 247.96 219.31 270.20 C 218.67 271.41 218.48 272.68 218.72 274.03 C 221.04 276.71 224.30 278.86 228.00 278.35 C 241.50 277.83 255.25 279.82 268.56 277.06 C 272.22 276.64 276.58 277.26 279.43 274.42 C 283.39 270.77 287.86 267.63 291.43 263.58 C 293.05 260.05 294.37 256.36 295.28 252.57 C 295.61 252.12 296.29 251.21 296.63 250.76 C 297.90 247.08 299.25 243.42 300.36 239.68 C 301.76 230.13 301.78 220.47 302.03 210.84 C 302.71 202.28 302.39 193.67 302.28 185.09 C 301.47 185.38 299.84 185.94 299.03 186.23 C 292.92 187.51 286.97 189.41 281.04 191.32 M 31.95 191.56 C 33.48 193.28 34.71 195.42 36.73 196.60 C 39.86 201.45 43.87 205.76 48.01 209.76 C 51.30 214.13 55.20 218.00 58.92 222.01 C 67.05 230.47 77.59 235.86 87.55 241.79 C 89.94 240.66 92.27 239.12 94.99 239.00 C 97.75 241.09 99.64 244.11 102.16 246.48 C 102.99 248.24 103.80 250.01 104.58 251.80 C 107.15 252.10 109.76 252.15 112.29 252.71 C 118.34 255.51 122.96 260.61 128.82 263.71 C 129.44 260.57 128.82 256.73 131.33 254.29 C 140.12 245.34 149.85 237.38 159.50 229.39 C 161.28 228.00 162.51 226.09 163.68 224.19 C 161.55 221.38 159.66 218.41 157.77 215.44 C 150.93 215.59 144.09 215.05 137.25 215.16 C 137.35 216.79 137.45 218.43 137.53 220.07 C 140.53 219.38 143.60 218.03 146.69 219.01 C 146.79 224.93 146.42 230.95 144.53 236.59 C 141.65 238.22 138.22 238.35 135.06 239.12 C 134.53 238.84 133.48 238.28 132.95 238.01 C 128.91 239.66 124.70 243.34 120.17 241.95 C 118.37 239.45 117.45 236.45 116.17 233.68 C 114.21 234.34 112.29 235.21 110.23 235.53 C 107.46 234.74 106.63 231.58 105.21 229.42 C 102.63 229.73 100.03 230.10 97.56 230.95 C 95.63 230.76 93.68 230.71 91.79 230.29 C 91.21 228.93 90.85 227.50 90.45 226.09 C 89.52 222.58 89.51 218.18 86.33 215.81 C 81.06 211.57 75.22 208.13 69.59 204.41 C 64.26 200.77 58.17 198.27 51.82 197.10 C 45.39 194.62 38.60 193.30 31.95 191.56 M 327.16 215.25 C 324.55 219.41 322.31 223.77 319.87 228.03 C 319.06 229.64 317.30 230.33 315.85 231.23 L 314.95 231.02 C 311.12 231.42 307.29 231.83 303.46 232.25 C 303.91 240.53 299.74 247.96 297.46 255.68 L 297.08 255.82 C 296.48 257.39 295.92 258.96 295.37 260.55 C 305.83 259.28 316.44 259.97 326.83 258.19 C 326.99 253.88 325.87 249.35 327.12 245.18 C 329.01 244.56 331.00 244.38 332.96 244.12 C 333.32 241.45 333.24 238.65 334.30 236.14 C 336.90 232.62 340.66 230.18 343.42 226.79 C 346.93 224.51 350.17 221.77 353.22 218.90 C 358.77 215.87 363.97 212.01 368.54 207.63 C 354.60 209.17 340.74 211.72 327.16 215.25 M 17.08 209.54 C 19.38 211.68 21.99 213.45 24.61 215.17 C 29.40 219.28 34.02 223.81 39.53 226.93 C 42.23 230.14 45.83 232.37 48.95 235.13 C 51.68 237.38 54.07 240.06 57.05 241.98 C 60.65 245.12 65.61 245.69 70.03 247.03 C 72.32 247.86 75.46 247.00 77.17 248.97 C 73.34 249.41 69.49 249.53 65.64 249.73 C 58.38 249.71 51.12 249.77 43.86 249.48 C 45.58 252.10 47.61 254.49 49.63 256.89 C 51.19 259.03 53.44 260.43 56.15 260.51 C 65.62 262.88 75.26 264.62 84.85 266.49 C 82.72 261.49 79.27 256.96 78.41 251.49 L 78.06 250.76 C 86.12 250.47 94.14 251.48 102.18 251.70 C 100.60 248.66 98.86 245.52 96.05 243.44 C 95.55 242.64 95.05 241.84 94.56 241.05 C 92.98 241.61 91.41 242.22 89.89 242.94 C 88.34 243.00 86.70 243.38 85.23 242.68 C 80.35 240.59 76.01 237.47 71.33 234.99 C 68.64 233.25 66.10 231.31 63.53 229.41 C 59.74 226.21 56.24 222.69 52.96 218.97 C 52.00 217.66 50.37 217.38 48.88 217.13 C 38.49 213.78 27.72 211.90 17.08 209.54 M 81.73 253.41 C 82.54 257.22 84.62 260.52 86.57 263.82 C 88.88 269.37 95.05 270.83 99.95 273.23 C 105.46 275.52 110.92 278.42 116.98 278.80 C 124.67 279.49 132.39 279.93 140.09 280.47 C 136.76 276.86 132.11 274.83 128.88 271.12 C 127.44 269.70 127.93 267.51 127.66 265.70 L 127.46 266.22 C 122.57 262.21 117.53 258.22 111.94 255.26 C 101.96 253.93 91.81 253.61 81.73 253.41 Z" />
<path fill="#78cb72" opacity="1.00" d=" M 248.60 14.67 C 259.07 9.30 271.71 9.88 282.38 14.36 L 282.36 14.45 C 282.10 16.16 281.87 17.88 281.67 19.60 C 279.75 24.98 276.39 29.64 273.71 34.65 C 271.93 38.01 269.45 40.94 266.65 43.50 C 264.81 45.13 262.70 46.42 260.59 47.66 C 260.85 47.81 261.37 48.12 261.63 48.27 C 257.29 50.42 253.13 52.91 249.07 55.54 C 248.76 55.24 248.14 54.63 247.83 54.32 C 243.65 56.62 239.38 58.77 235.47 61.51 C 232.54 63.50 229.83 66.04 226.25 66.80 C 230.40 59.02 236.62 52.72 242.79 46.56 C 236.11 47.03 229.92 50.01 224.19 53.28 C 224.52 50.88 224.83 48.48 225.03 46.07 C 225.98 46.66 226.92 47.25 227.88 47.84 C 227.00 40.00 229.40 32.36 232.54 25.28 L 232.60 25.12 C 237.58 21.43 242.42 17.34 248.24 15.02 C 245.99 17.24 244.64 20.11 243.66 23.07 C 245.53 23.73 247.46 25.20 249.53 24.46 C 252.27 23.56 254.12 20.80 254.46 18.01 C 254.40 14.93 250.74 15.15 248.60 14.67 M 238.43 30.15 C 237.28 31.62 239.85 33.21 240.83 31.74 C 241.99 30.26 239.40 28.66 238.43 30.15 Z" />
<path fill="#f4ffb9" opacity="1.00" d=" M 248.24 15.02 L 248.60 14.67 C 250.74 15.15 254.40 14.93 254.46 18.01 C 254.12 20.80 252.27 23.56 249.53 24.46 C 247.46 25.20 245.53 23.73 243.66 23.07 C 244.64 20.11 245.99 17.24 248.24 15.02 Z" />
<path fill="#2b63a2" opacity="1.00" d=" M 281.67 19.60 C 281.87 17.88 282.10 16.16 282.36 14.45 C 286.31 16.25 290.05 19.13 291.49 23.39 C 293.52 29.54 292.13 36.08 290.92 42.25 L 290.55 41.95 C 290.31 41.75 289.84 41.35 289.60 41.15 C 289.33 41.73 288.80 42.89 288.53 43.46 C 284.47 42.90 281.25 46.92 277.28 45.74 C 275.70 45.16 276.11 43.45 276.24 42.15 C 277.44 34.48 281.90 27.50 281.67 19.60 Z" />
<path fill="#346aa7" opacity="1.00" d=" M 273.71 34.65 C 276.39 29.64 279.75 24.98 281.67 19.60 C 281.90 27.50 277.44 34.48 276.24 42.15 C 276.11 43.45 275.70 45.16 277.28 45.74 C 281.25 46.92 284.47 42.90 288.53 43.46 C 288.80 42.89 289.33 41.73 289.60 41.15 C 289.84 41.35 290.31 41.75 290.55 41.95 C 289.79 49.07 287.04 55.88 286.69 63.08 C 287.00 63.49 287.63 64.29 287.95 64.69 L 287.87 64.79 C 281.60 67.37 276.91 72.51 271.94 76.93 C 266.82 81.55 262.13 86.59 257.30 91.49 C 256.82 90.80 255.86 89.43 255.39 88.74 C 257.07 84.72 256.62 79.97 253.19 77.02 C 258.43 70.62 265.59 66.19 271.27 60.24 C 274.69 56.62 272.92 50.72 269.25 47.96 C 269.31 47.54 269.42 46.68 269.48 46.26 C 268.54 45.34 267.59 44.42 266.65 43.50 C 269.45 40.94 271.93 38.01 273.71 34.65 Z" />
<path fill="#ffffbe" opacity="1.00" d=" M 227.19 30.40 C 228.43 28.22 230.69 26.88 232.54 25.28 C 229.40 32.36 227.00 40.00 227.88 47.84 C 226.92 47.25 225.98 46.66 225.03 46.07 C 225.17 40.78 225.77 35.50 227.19 30.40 Z" />
<path fill="#7bce71" opacity="1.00" d=" M 202.29 31.35 C 209.74 27.78 218.11 30.79 225.87 31.43 C 223.34 37.05 222.70 43.36 219.80 48.83 C 217.13 53.45 212.17 55.90 208.03 58.99 C 204.16 61.87 200.11 64.53 195.86 66.83 C 193.53 66.19 191.20 65.54 188.85 64.96 C 188.68 64.52 188.34 63.64 188.17 63.20 C 186.99 63.36 185.80 63.51 184.62 63.63 C 184.90 61.30 184.90 58.88 185.74 56.66 C 186.94 54.12 189.02 52.17 190.91 50.15 C 191.08 49.97 191.42 49.62 191.59 49.44 C 191.94 42.24 195.98 34.98 202.29 31.35 Z" />
<path fill="#ebf8b5" opacity="1.00" d=" M 238.43 30.15 C 239.40 28.66 241.99 30.26 240.83 31.74 C 239.85 33.21 237.28 31.62 238.43 30.15 Z" />
<path fill="#e7b35b" opacity="1.00" d=" M 160.39 44.04 C 160.35 39.69 159.49 34.93 161.69 30.94 C 162.78 33.47 163.73 36.10 163.93 38.87 C 163.85 40.13 163.76 41.39 163.66 42.65 C 162.57 43.11 161.48 43.58 160.39 44.04 Z" />
<path fill="#5288a9" opacity="1.00" d=" M 225.87 31.43 L 227.19 30.40 C 225.77 35.50 225.17 40.78 225.03 46.07 C 224.83 48.48 224.52 50.88 224.19 53.28 C 220.31 56.91 218.92 62.51 214.53 65.66 C 211.63 67.75 208.58 69.90 205.10 70.82 C 202.01 69.50 199.05 67.91 195.86 66.83 C 200.11 64.53 204.16 61.87 208.03 58.99 C 212.17 55.90 217.13 53.45 219.80 48.83 C 222.70 43.36 223.34 37.05 225.87 31.43 Z" />
<path fill="#af6f40" opacity="1.00" d=" M 163.93 38.87 C 164.75 43.31 164.51 47.93 163.42 52.31 C 161.73 49.84 160.81 46.99 160.39 44.04 C 161.48 43.58 162.57 43.11 163.66 42.65 C 163.76 41.39 163.85 40.13 163.93 38.87 Z" />
<path fill="#4175aa" opacity="1.00" d=" M 260.59 47.66 C 262.70 46.42 264.81 45.13 266.65 43.50 C 267.59 44.42 268.54 45.34 269.48 46.26 C 269.42 46.68 269.31 47.54 269.25 47.96 C 272.92 50.72 274.69 56.62 271.27 60.24 C 265.59 66.19 258.43 70.62 253.19 77.02 C 250.96 76.30 248.68 75.82 246.40 75.35 C 245.67 74.60 244.95 73.85 244.23 73.10 C 244.28 73.81 244.39 75.24 244.45 75.95 C 241.52 77.80 238.80 80.46 238.46 84.10 C 237.36 89.50 242.88 94.31 248.06 93.73 C 251.29 93.70 253.60 91.13 255.39 88.74 C 255.86 89.43 256.82 90.80 257.30 91.49 C 252.47 96.23 247.78 101.10 243.05 105.93 C 236.11 95.79 226.38 88.15 217.34 80.00 C 218.47 77.97 219.92 76.14 221.75 74.70 C 224.31 72.80 224.95 69.53 226.25 66.80 C 229.83 66.04 232.54 63.50 235.47 61.51 C 239.38 58.77 243.65 56.62 247.83 54.32 C 248.14 54.63 248.76 55.24 249.07 55.54 C 253.13 52.91 257.29 50.42 261.63 48.27 C 261.37 48.12 260.85 47.81 260.59 47.66 Z" />
<path fill="#7bce70" opacity="1.00" d=" M 173.81 45.82 C 177.63 44.24 181.85 45.42 185.47 46.99 C 185.39 52.57 182.13 57.18 178.07 60.70 C 173.47 58.70 168.74 57.04 163.94 55.64 C 166.48 51.74 169.45 47.79 173.81 45.82 Z" />
<path fill="#62a395" opacity="1.00" d=" M 185.47 46.99 C 187.27 48.06 189.10 49.09 190.91 50.15 C 189.02 52.17 186.94 54.12 185.74 56.66 C 184.90 58.88 184.90 61.30 184.62 63.63 C 182.48 62.55 180.29 61.59 178.07 60.70 C 182.13 57.18 185.39 52.57 185.47 46.99 Z" />
<path fill="#efc060" opacity="1.00" d=" M 151.48 52.45 C 150.63 51.14 151.16 48.99 153.11 49.33 C 156.92 49.05 159.86 51.78 162.60 54.00 C 162.23 54.43 161.86 54.86 161.50 55.29 C 158.22 54.16 153.31 56.06 151.48 52.45 Z" />
<path fill="#b5445c" opacity="1.00" d=" M 225.42 55.53 C 228.33 53.26 231.79 51.82 235.27 50.65 C 230.48 56.53 225.59 62.40 222.39 69.34 C 221.61 67.37 220.86 65.40 220.11 63.42 C 221.69 60.69 222.97 57.63 225.42 55.53 Z" />
<path fill="#cc8f6b" opacity="1.00" d=" M 126.64 63.22 C 141.06 54.85 159.42 55.43 174.38 62.07 C 173.26 62.52 172.13 62.97 171.01 63.42 C 172.99 64.75 174.97 66.10 176.95 67.44 C 174.59 68.96 172.28 70.68 169.56 71.49 C 163.74 72.96 157.82 67.69 152.25 71.02 C 147.19 69.87 142.18 68.53 137.08 67.58 C 133.46 66.84 129.56 66.15 126.86 63.40 L 126.64 63.22 Z" />
<path fill="#bf7b61" opacity="1.00" d=" M 174.38 62.07 C 177.65 63.81 181.17 64.98 184.71 66.04 C 182.05 69.17 179.09 72.17 177.55 76.06 C 174.69 74.20 171.27 73.12 168.14 75.10 C 162.60 74.86 157.56 72.36 152.25 71.02 C 157.82 67.69 163.74 72.96 169.56 71.49 C 172.28 70.68 174.59 68.96 176.95 67.44 C 174.97 66.10 172.99 64.75 171.01 63.42 C 172.13 62.97 173.26 62.52 174.38 62.07 Z" />
<path fill="#d9a776" opacity="1.00" d=" M 91.03 96.09 C 100.80 83.14 112.67 71.43 126.86 63.40 C 129.56 66.15 133.46 66.84 137.08 67.58 C 142.18 68.53 147.19 69.87 152.25 71.02 C 157.56 72.36 162.60 74.86 168.14 75.10 L 168.97 76.16 C 159.84 79.67 150.67 83.14 141.92 87.55 C 140.96 86.11 140.00 84.67 139.03 83.24 C 136.31 84.50 133.70 85.98 131.11 87.47 C 123.62 86.53 116.22 88.56 108.85 89.56 C 102.49 90.48 96.92 93.78 91.03 96.09 Z" />
<path fill="#bc5961" opacity="1.00" d=" M 215.26 68.06 C 216.94 66.58 218.57 65.05 220.11 63.42 C 220.86 65.40 221.61 67.37 222.39 69.34 L 222.69 70.13 C 221.03 72.31 218.82 73.98 217.03 76.05 C 215.45 78.82 214.75 82.11 212.35 84.38 C 211.54 83.57 210.74 82.76 209.94 81.95 C 210.25 79.89 210.56 77.84 210.87 75.79 C 213.16 73.87 214.53 71.18 215.18 68.30 L 215.26 68.06 Z" />
<path fill="#77c776" opacity="1.00" d=" M 287.95 64.69 L 288.78 63.63 C 294.27 64.09 301.30 65.86 302.77 72.03 C 297.74 74.89 293.17 78.49 288.04 81.18 C 280.56 85.14 273.72 90.17 266.31 94.25 C 258.85 98.57 251.83 103.61 244.25 107.73 L 244.04 107.85 C 243.71 107.21 243.38 106.57 243.05 105.93 C 247.78 101.10 252.47 96.23 257.30 91.49 C 262.13 86.59 266.82 81.55 271.94 76.93 C 271.48 78.18 271.06 79.44 270.66 80.71 C 273.19 78.94 275.54 76.94 277.86 74.91 C 281.40 71.75 285.75 69.24 287.87 64.79 L 287.95 64.69 Z" />
<path fill="#f4ffb9" opacity="1.00" d=" M 271.94 76.93 C 276.91 72.51 281.60 67.37 287.87 64.79 C 285.75 69.24 281.40 71.75 277.86 74.91 C 275.54 76.94 273.19 78.94 270.66 80.71 C 271.06 79.44 271.48 78.18 271.94 76.93 Z" />
<path fill="#b26354" opacity="1.00" d=" M 188.21 66.99 C 192.94 68.50 197.65 70.06 202.38 71.54 C 199.37 73.97 195.29 74.28 191.77 75.63 C 189.30 76.14 186.25 77.95 184.13 75.75 C 185.34 72.76 187.16 70.05 188.21 66.99 Z" />
<path fill="#f1c162" opacity="1.00" d=" M 178.89 82.10 C 179.01 77.07 181.52 72.74 184.91 69.19 C 184.06 72.04 180.82 74.78 182.80 77.84 C 184.46 80.89 187.02 83.31 188.81 86.26 C 190.31 88.57 187.84 90.79 186.85 92.78 C 184.79 96.41 181.56 99.14 177.79 100.89 C 175.98 97.49 174.50 93.95 173.11 90.37 C 176.09 90.69 178.14 87.88 180.06 86.03 C 182.48 83.71 182.59 80.22 182.22 77.11 C 180.82 78.56 179.62 80.21 178.89 82.10 Z" />
<path fill="#fca880" opacity="1.00" d=" M 205.88 73.47 C 209.03 71.84 212.14 70.12 215.18 68.30 C 214.53 71.18 213.16 73.87 210.87 75.79 C 209.19 76.59 207.46 77.28 205.73 77.97 C 205.15 77.74 203.99 77.26 203.40 77.03 C 205.22 76.09 206.96 75.01 208.69 73.92 C 207.98 73.81 206.58 73.58 205.88 73.47 Z" />
<path fill="#000000" opacity="1.00" d=" M 244.23 73.10 C 244.95 73.85 245.67 74.60 246.40 75.35 C 248.68 75.82 250.96 76.30 253.19 77.02 C 256.62 79.97 257.07 84.72 255.39 88.74 C 253.60 91.13 251.29 93.70 248.06 93.73 C 242.88 94.31 237.36 89.50 238.46 84.10 C 238.80 80.46 241.52 77.80 244.45 75.95 C 244.39 75.24 244.28 73.81 244.23 73.10 M 242.33 78.83 L 242.83 79.43 C 241.91 80.78 241.11 82.20 240.37 83.65 C 240.34 85.80 240.88 87.85 242.02 89.68 C 243.91 90.54 245.77 91.92 247.96 91.53 C 253.87 90.97 256.80 81.22 250.74 78.64 L 250.87 78.22 C 247.89 78.08 245.26 80.47 242.33 78.83 Z" />
<path fill="#4e7fb1" opacity="1.00" d=" M 288.04 81.18 C 293.17 78.49 297.74 74.89 302.77 72.03 C 302.81 74.26 300.41 79.14 304.59 78.70 C 300.70 82.41 296.73 86.05 292.52 89.40 C 288.81 92.22 285.57 95.59 282.42 99.01 C 281.92 98.84 280.92 98.49 280.41 98.32 C 270.26 103.76 260.64 110.17 250.80 116.15 C 247.36 114.83 246.02 110.71 244.25 107.73 C 251.83 103.61 258.85 98.57 266.31 94.25 C 273.72 90.17 280.56 85.14 288.04 81.18 Z" />
<path fill="#b16753" opacity="1.00" d=" M 168.14 75.10 C 171.27 73.12 174.69 74.20 177.55 76.06 C 176.96 79.06 176.99 82.48 175.03 84.98 C 171.46 87.11 167.34 88.02 163.47 89.43 C 165.63 86.13 167.13 82.42 169.34 79.15 C 170.64 78.12 172.01 77.16 173.36 76.19 C 172.07 76.40 170.78 76.58 169.49 76.83 L 168.97 76.16 L 168.14 75.10 Z" />
<path fill="#e3d2d7" opacity="1.00" d=" M 189.24 78.92 C 194.74 76.97 200.37 75.36 205.88 73.47 C 206.58 73.58 207.98 73.81 208.69 73.92 C 206.96 75.01 205.22 76.09 203.40 77.03 C 198.73 77.82 193.94 81.39 189.24 78.92 Z" />
<path fill="#d9a776" opacity="1.00" d=" M 169.49 76.83 C 170.78 76.58 172.07 76.40 173.36 76.19 C 172.01 77.16 170.64 78.12 169.34 79.15 C 169.38 78.57 169.46 77.41 169.49 76.83 Z" />
<path fill="#c37759" opacity="1.00" d=" M 205.73 77.97 C 207.46 77.28 209.19 76.59 210.87 75.79 C 210.56 77.84 210.25 79.89 209.94 81.95 C 210.74 82.76 211.54 83.57 212.35 84.38 C 207.36 87.34 201.63 88.34 196.00 89.32 C 197.34 86.86 197.86 84.08 198.32 81.35 C 200.82 80.28 203.26 79.10 205.73 77.97 Z" />
<path fill="#f5bb66" opacity="1.00" d=" M 189.24 78.92 C 193.94 81.39 198.73 77.82 203.40 77.03 C 203.99 77.26 205.15 77.74 205.73 77.97 C 203.26 79.10 200.82 80.28 198.32 81.35 C 195.38 82.49 192.64 84.05 190.06 85.86 C 188.71 83.61 187.40 81.35 186.16 79.05 C 186.93 79.02 188.47 78.95 189.24 78.92 Z" />
<path fill="#f4ffb9" opacity="1.00" d=" M 304.59 78.70 C 306.97 77.38 309.68 77.03 312.38 77.01 C 309.68 78.82 306.83 80.39 304.00 81.98 C 303.66 82.23 302.99 82.74 302.65 82.99 C 300.52 84.72 298.56 86.66 296.79 88.76 L 296.27 89.36 C 295.02 89.38 293.77 89.40 292.52 89.40 C 296.73 86.05 300.70 82.41 304.59 78.70 Z" />
<path fill="#76c578" opacity="1.00" d=" M 312.38 77.01 C 315.89 77.30 319.74 78.26 321.82 81.37 C 325.19 86.34 324.81 92.70 324.80 98.44 C 317.07 101.59 309.97 106.05 302.25 109.23 C 295.03 112.86 287.48 115.82 280.44 119.81 C 281.97 113.27 281.44 106.52 281.73 99.87 L 282.42 99.01 C 285.57 95.59 288.81 92.22 292.52 89.40 C 293.77 89.40 295.02 89.38 296.27 89.36 C 294.00 92.86 291.95 97.59 294.39 101.54 C 298.55 108.61 310.60 107.12 313.49 99.67 C 315.30 93.56 310.87 87.06 304.90 85.50 C 304.59 84.33 304.29 83.15 304.00 81.98 C 306.83 80.39 309.68 78.82 312.38 77.01 Z" />
<path fill="#efebe1" opacity="1.00" d=" M 178.89 82.10 C 179.62 80.21 180.82 78.56 182.22 77.11 C 182.59 80.22 182.48 83.71 180.06 86.03 C 178.14 87.88 176.09 90.69 173.11 90.37 L 172.31 89.12 C 175.53 87.87 178.23 85.64 178.89 82.10 Z" />
<path fill="#aa6b3e" opacity="1.00" d=" M 182.80 77.84 C 183.91 78.25 185.03 78.66 186.16 79.05 C 187.40 81.35 188.71 83.61 190.06 85.86 C 192.64 84.05 195.38 82.49 198.32 81.35 C 197.86 84.08 197.34 86.86 196.00 89.32 C 195.69 89.78 195.08 90.70 194.78 91.16 C 194.99 95.63 192.23 99.41 189.90 102.96 C 188.61 104.51 187.40 106.77 185.14 106.83 C 182.27 104.95 179.58 102.49 175.95 102.37 C 177.66 104.83 181.03 105.35 182.79 107.84 C 180.39 111.51 177.92 115.12 175.36 118.68 C 172.65 117.56 169.80 116.85 167.07 115.80 C 166.07 115.40 165.08 115.00 164.09 114.60 C 165.59 114.18 167.10 113.77 168.62 113.36 C 168.51 112.00 168.41 110.64 168.30 109.28 C 169.78 109.51 171.26 109.75 172.74 109.98 C 172.33 109.17 171.93 108.35 171.52 107.54 C 171.82 107.16 172.42 106.41 172.72 106.04 C 170.82 105.92 168.92 105.75 167.02 105.85 C 166.86 104.73 166.70 103.60 166.55 102.48 C 170.09 99.00 170.04 93.95 170.79 89.39 C 171.17 89.32 171.93 89.19 172.31 89.12 L 173.11 90.37 C 174.50 93.95 175.98 97.49 177.79 100.89 C 181.56 99.14 184.79 96.41 186.85 92.78 C 187.84 90.79 190.31 88.57 188.81 86.26 C 187.02 83.31 184.46 80.89 182.80 77.84 Z" />
<path fill="#ff6674" opacity="1.00" d=" M 242.33 78.83 C 245.26 80.47 247.89 78.08 250.87 78.22 L 250.74 78.64 C 249.94 81.13 249.36 83.77 247.90 85.98 C 246.22 87.59 244.02 88.53 242.02 89.68 C 240.88 87.85 240.34 85.80 240.37 83.65 C 241.09 84.08 242.55 84.94 243.27 85.37 C 244.14 84.64 245.01 83.91 245.89 83.18 C 244.87 81.93 243.85 80.68 242.83 79.43 L 242.33 78.83 Z" />
<path fill="#982a4f" opacity="1.00" d=" M 250.74 78.64 C 256.80 81.22 253.87 90.97 247.96 91.53 C 245.77 91.92 243.91 90.54 242.02 89.68 C 244.02 88.53 246.22 87.59 247.90 85.98 C 249.36 83.77 249.94 81.13 250.74 78.64 Z" />
<path fill="#daaa78" opacity="1.00" d=" M 141.06 90.13 C 149.44 86.62 157.74 82.86 166.31 79.80 C 165.51 81.42 164.67 83.02 163.82 84.62 L 163.57 84.66 C 160.08 84.72 157.14 86.51 154.56 88.68 C 151.00 91.66 145.66 92.71 143.67 97.31 L 143.53 97.54 L 143.22 97.72 C 139.13 99.59 136.59 103.45 133.26 106.31 C 127.94 111.66 122.89 117.29 117.33 122.40 C 116.28 123.52 114.67 123.47 113.27 123.75 C 107.40 121.50 101.05 122.24 94.92 122.44 C 85.45 122.92 76.38 126.12 68.01 130.43 C 66.53 126.91 68.09 123.38 69.88 120.33 C 77.06 123.04 85.18 120.61 90.99 116.00 C 92.32 114.67 94.71 112.86 93.26 110.79 C 89.59 106.75 83.75 107.21 78.82 107.53 C 84.08 102.58 90.56 99.20 97.00 96.04 C 101.67 93.74 106.68 92.12 111.86 91.47 C 117.53 90.73 123.16 89.30 128.92 89.48 C 132.43 89.98 135.27 87.51 138.28 86.15 C 139.19 87.48 140.12 88.81 141.06 90.13 M 118.99 92.86 C 112.92 94.96 107.55 98.72 102.75 102.92 C 100.91 102.37 99.05 101.85 97.16 101.49 C 98.00 103.17 99.55 104.26 101.26 104.91 C 101.56 105.88 101.85 106.85 102.15 107.82 C 106.44 108.14 110.83 108.80 115.08 107.80 C 116.60 107.57 117.53 106.29 118.40 105.16 C 124.36 103.97 129.43 98.94 128.71 92.54 C 125.48 92.30 122.11 91.67 118.99 92.86 Z" />
<path fill="#ffffc4" opacity="1.00" d=" M 240.37 83.65 C 241.11 82.20 241.91 80.78 242.83 79.43 C 243.85 80.68 244.87 81.93 245.89 83.18 C 245.01 83.91 244.14 84.64 243.27 85.37 C 242.55 84.94 241.09 84.08 240.37 83.65 Z" />
<path fill="#000000" opacity="1.00" d=" M 302.65 82.99 C 302.99 82.74 303.66 82.23 304.00 81.98 C 304.29 83.15 304.59 84.33 304.90 85.50 C 310.87 87.06 315.30 93.56 313.49 99.67 C 310.60 107.12 298.55 108.61 294.39 101.54 C 291.95 97.59 294.00 92.86 296.27 89.36 L 296.79 88.76 C 298.62 87.72 300.58 86.96 302.54 86.22 C 302.56 85.14 302.59 84.07 302.65 82.99 M 300.04 89.04 C 298.02 90.59 296.63 92.71 295.57 94.99 C 295.56 96.51 295.55 98.02 295.55 99.54 C 298.51 104.90 306.73 105.10 310.38 100.42 C 312.70 97.38 311.16 93.29 308.86 90.73 C 307.96 89.86 306.99 89.07 306.05 88.25 C 306.07 90.84 303.58 91.60 301.49 91.63 C 301.99 90.49 302.49 89.34 302.98 88.20 C 302.00 88.48 301.01 88.76 300.04 89.04 Z" />
<path fill="#9a3941" opacity="1.00" d=" M 203.08 90.31 C 208.53 89.32 214.01 87.02 217.18 82.25 C 217.96 83.16 218.75 84.07 219.54 84.98 C 217.74 85.94 215.34 86.50 214.57 88.64 C 213.39 90.44 214.96 92.45 216.39 93.54 C 219.70 95.98 223.30 98.03 226.38 100.77 C 225.68 101.40 225.00 102.04 224.34 102.70 C 226.75 102.52 228.86 101.29 230.98 100.26 C 232.22 102.92 233.43 105.59 234.35 108.38 C 234.27 108.75 234.10 109.48 234.01 109.84 C 233.30 109.20 232.59 108.55 231.89 107.91 C 231.28 108.17 230.08 108.70 229.48 108.97 C 227.69 106.91 225.87 104.53 223.05 103.94 C 221.98 100.29 219.06 97.48 216.11 95.25 C 213.21 95.82 210.42 97.39 209.07 100.11 C 207.35 103.87 203.12 104.94 199.57 106.23 C 196.42 107.40 193.04 107.93 189.70 107.26 C 193.09 102.66 196.53 97.72 197.18 91.90 C 198.24 95.51 201.60 92.51 203.74 91.76 C 203.58 91.40 203.25 90.67 203.08 90.31 Z" />
<path fill="#76c578" opacity="1.00" d=" M 296.79 88.76 C 298.56 86.66 300.52 84.72 302.65 82.99 C 302.59 84.07 302.56 85.14 302.54 86.22 C 300.58 86.96 298.62 87.72 296.79 88.76 Z" />
<path fill="#bb775c" opacity="1.00" d=" M 154.56 88.68 C 157.14 86.51 160.08 84.72 163.57 84.66 C 161.69 88.25 159.54 92.00 156.01 94.20 C 152.24 96.28 147.88 96.79 143.67 97.31 C 145.66 92.71 151.00 91.66 154.56 88.68 Z" />
<path fill="#942d3c" opacity="1.00" d=" M 219.54 84.98 L 219.75 84.88 C 228.17 93.43 238.07 100.96 243.56 111.92 C 241.11 112.86 238.76 114.16 236.13 114.52 C 235.93 114.31 235.52 113.89 235.32 113.68 C 235.15 113.78 234.81 113.98 234.63 114.08 L 233.52 114.71 C 232.26 112.74 230.93 110.81 229.48 108.97 C 230.08 108.70 231.28 108.17 231.89 107.91 C 232.59 108.55 233.30 109.20 234.01 109.84 C 234.10 109.48 234.27 108.75 234.35 108.38 C 235.77 104.30 232.42 100.70 230.95 97.12 C 229.44 98.36 227.90 99.55 226.38 100.77 C 223.30 98.03 219.70 95.98 216.39 93.54 C 214.96 92.45 213.39 90.44 214.57 88.64 C 215.34 86.50 217.74 85.94 219.54 84.98 Z" />
<path fill="#ff6674" opacity="1.00" d=" M 300.04 89.04 C 301.01 88.76 302.00 88.48 302.98 88.20 C 302.49 89.34 301.99 90.49 301.49 91.63 C 303.58 91.60 306.07 90.84 306.05 88.25 C 306.99 89.07 307.96 89.86 308.86 90.73 C 308.19 92.32 307.82 94.17 306.58 95.43 C 303.35 97.78 299.31 98.46 295.55 99.54 C 295.55 98.02 295.56 96.51 295.57 94.99 C 296.63 95.23 297.70 95.47 298.77 95.70 C 299.64 93.58 300.01 91.32 300.04 89.04 Z" />
<path fill="#f4ffb9" opacity="1.00" d=" M 295.57 94.99 C 296.63 92.71 298.02 90.59 300.04 89.04 C 300.01 91.32 299.64 93.58 298.77 95.70 C 297.70 95.47 296.63 95.23 295.57 94.99 Z" />
<path fill="#ecbb5b" opacity="1.00" d=" M 162.17 91.48 C 165.10 91.01 167.95 90.22 170.79 89.39 C 170.04 93.95 170.09 99.00 166.55 102.48 C 166.70 103.60 166.86 104.73 167.02 105.85 C 161.33 106.87 155.54 107.06 149.78 107.06 C 147.48 105.41 145.48 103.41 143.41 101.49 C 144.25 100.58 145.08 99.68 145.93 98.78 C 152.07 98.79 158.49 96.66 162.17 91.48 Z" />
<path fill="#bf7b61" opacity="1.00" d=" M 197.18 91.90 C 199.12 91.27 201.09 90.75 203.08 90.31 C 203.25 90.67 203.58 91.40 203.74 91.76 C 201.60 92.51 198.24 95.51 197.18 91.90 Z" />
<path fill="#a93355" opacity="1.00" d=" M 308.86 90.73 C 311.16 93.29 312.70 97.38 310.38 100.42 C 306.73 105.10 298.51 104.90 295.55 99.54 C 299.31 98.46 303.35 97.78 306.58 95.43 C 307.82 94.17 308.19 92.32 308.86 90.73 Z" />
<path fill="#000000" opacity="1.00" d=" M 118.99 92.86 C 122.11 91.67 125.48 92.30 128.71 92.54 C 129.43 98.94 124.36 103.97 118.40 105.16 C 113.89 105.57 109.31 105.17 105.01 103.71 C 103.77 104.13 102.53 104.56 101.26 104.91 C 99.55 104.26 98.00 103.17 97.16 101.49 C 99.05 101.85 100.91 102.37 102.75 102.92 C 107.55 98.72 112.92 94.96 118.99 92.86 M 106.29 102.55 C 110.56 103.37 114.94 103.38 119.26 102.97 C 123.57 101.69 127.09 98.24 127.23 93.54 C 125.36 93.68 123.51 93.83 121.65 94.01 C 115.99 95.70 110.67 98.57 106.29 102.55 Z" />
<path fill="#62ffea" opacity="1.00" d=" M 106.29 102.55 C 110.67 98.57 115.99 95.70 121.65 94.01 C 121.05 97.05 120.32 100.06 119.26 102.97 C 114.94 103.38 110.56 103.37 106.29 102.55 Z" />
<path fill="#2448aa" opacity="1.00" d=" M 121.65 94.01 C 123.51 93.83 125.36 93.68 127.23 93.54 C 127.09 98.24 123.57 101.69 119.26 102.97 C 120.32 100.06 121.05 97.05 121.65 94.01 Z" />
<path fill="#b36955" opacity="1.00" d=" M 209.07 100.11 C 210.42 97.39 213.21 95.82 216.11 95.25 C 219.06 97.48 221.98 100.29 223.05 103.94 C 221.07 105.64 219.34 107.60 217.71 109.63 C 217.04 109.76 215.69 110.01 215.01 110.14 C 214.44 111.09 213.87 112.04 213.35 113.02 C 211.21 113.92 209.13 114.99 206.89 115.64 C 203.05 113.92 200.82 110.08 199.57 106.23 C 203.12 104.94 207.35 103.87 209.07 100.11 Z" />
<path fill="#721c27" opacity="1.00" d=" M 226.38 100.77 C 227.90 99.55 229.44 98.36 230.95 97.12 C 232.42 100.70 235.77 104.30 234.35 108.38 C 233.43 105.59 232.22 102.92 230.98 100.26 C 228.86 101.29 226.75 102.52 224.34 102.70 C 225.00 102.04 225.68 101.40 226.38 100.77 Z" />
<path fill="#b16653" opacity="1.00" d=" M 133.26 106.31 C 136.59 103.45 139.13 99.59 143.22 97.72 C 141.22 101.47 139.29 105.36 139.10 109.70 C 135.37 113.56 131.18 116.92 126.55 119.64 C 131.29 120.02 136.01 119.35 140.61 118.23 L 140.98 118.14 C 142.20 119.33 143.42 120.52 144.62 121.72 C 142.16 124.98 139.84 128.37 136.89 131.21 C 137.37 129.12 137.76 127.00 138.18 124.90 C 136.49 123.30 134.96 120.31 132.18 121.14 C 127.27 122.40 125.05 127.46 122.02 131.02 C 119.75 129.93 117.47 128.85 115.16 127.86 L 114.99 127.63 C 114.21 126.53 113.42 125.44 112.67 124.33 C 112.82 124.18 113.12 123.90 113.27 123.75 C 114.67 123.47 116.28 123.52 117.33 122.40 C 122.89 117.29 127.94 111.66 133.26 106.31 Z" />
<path fill="#907678" opacity="1.00" d=" M 323.23 115.15 C 331.48 109.21 339.66 103.18 347.82 97.12 C 344.77 103.30 342.25 109.90 338.37 115.59 C 330.19 119.62 324.15 126.54 317.44 132.50 C 310.40 139.11 302.81 145.10 295.75 151.70 C 289.44 158.12 282.24 163.59 276.20 170.29 C 273.94 168.00 271.53 165.89 268.98 163.94 C 270.98 159.98 275.43 157.65 276.73 153.36 C 287.23 144.81 298.88 137.81 309.78 129.78 C 314.92 126.30 320.07 122.54 323.36 117.15 C 323.34 116.81 323.30 116.13 323.28 115.79 L 323.23 115.15 Z" />
<path fill="#3168a6" opacity="1.00" d=" M 302.25 109.23 C 309.97 106.05 317.07 101.59 324.80 98.44 C 324.53 103.62 322.64 108.47 321.37 113.45 C 306.01 124.30 290.97 135.60 276.19 147.23 C 273.13 149.58 270.30 152.26 266.97 154.25 C 271.81 142.91 277.36 131.80 280.44 119.81 C 287.48 115.82 295.03 112.86 302.25 109.23 Z" />
<path fill="#823319" opacity="1.00" d=" M 141.37 113.06 C 140.97 109.09 141.72 105.09 143.41 101.49 C 145.48 103.41 147.48 105.41 149.78 107.06 C 150.68 107.72 151.58 108.39 152.48 109.05 C 150.77 110.12 148.95 111.06 147.48 112.46 C 146.96 114.95 149.81 116.42 151.23 118.05 C 149.20 118.31 147.18 118.72 145.12 118.72 C 143.00 117.70 141.41 115.45 141.37 113.06 Z" />
<path fill="#6c4147" opacity="1.00" d=" M 255.65 116.04 C 263.49 111.17 271.25 106.15 279.30 101.64 C 279.26 107.43 279.14 113.28 278.10 118.99 C 274.45 132.67 267.81 145.26 262.34 158.25 C 258.11 167.86 254.27 177.63 250.22 187.32 C 249.40 186.43 248.57 185.55 247.75 184.66 C 244.96 188.59 242.85 193.06 239.40 196.49 C 236.56 199.82 229.22 196.89 230.37 192.39 C 231.12 187.23 232.50 182.18 232.97 176.98 C 233.29 172.92 235.51 169.24 235.34 165.12 C 238.18 155.10 241.03 144.78 247.10 136.15 C 250.61 129.88 254.14 123.34 255.61 116.25 L 255.65 116.04 Z" />
<path fill="#bd8948" opacity="1.00" d=" M 67.45 103.34 C 69.53 105.48 71.36 107.85 73.24 110.16 C 72.22 111.16 71.20 112.16 70.17 113.16 C 68.12 110.28 67.28 106.84 67.45 103.34 Z" />
<path fill="#c27f61" opacity="1.00" d=" M 101.26 104.91 C 102.53 104.56 103.77 104.13 105.01 103.71 C 109.31 105.17 113.89 105.57 118.40 105.16 C 117.53 106.29 116.60 107.57 115.08 107.80 C 110.83 108.80 106.44 108.14 102.15 107.82 C 101.85 106.85 101.56 105.88 101.26 104.91 Z" />
<path fill="#8b1d35" opacity="1.00" d=" M 217.71 109.63 C 219.34 107.60 221.07 105.64 223.05 103.94 C 221.70 106.37 220.19 108.70 218.42 110.85 C 215.54 111.68 214.46 114.60 213.26 117.04 C 216.04 119.65 218.95 122.12 222.03 124.38 C 225.54 121.83 229.14 119.38 232.98 117.35 L 233.91 117.34 C 235.24 120.14 234.64 123.87 234.04 126.90 C 232.20 129.17 229.12 130.04 227.36 132.42 C 224.98 135.52 223.21 139.03 220.79 142.10 C 220.13 135.49 213.24 132.88 208.79 129.07 C 212.46 127.90 216.24 127.01 219.74 125.38 C 218.47 122.10 214.43 120.46 212.11 117.79 C 212.49 116.20 212.88 114.60 213.35 113.02 C 213.87 112.04 214.44 111.09 215.01 110.14 C 215.69 110.01 217.04 109.76 217.71 109.63 Z" />
<path fill="#aa594e" opacity="1.00" d=" M 223.05 103.94 C 225.87 104.53 227.69 106.91 229.48 108.97 C 230.93 110.81 232.26 112.74 233.52 114.71 C 228.29 117.91 222.55 114.10 218.42 110.85 C 220.19 108.70 221.70 106.37 223.05 103.94 Z" />
<path fill="#9c5931" opacity="1.00" d=" M 167.02 105.85 C 168.92 105.75 170.82 105.92 172.72 106.04 C 172.42 106.41 171.82 107.16 171.52 107.54 C 171.93 108.35 172.33 109.17 172.74 109.98 C 171.26 109.75 169.78 109.51 168.30 109.28 C 168.41 110.64 168.51 112.00 168.62 113.36 C 167.10 113.77 165.59 114.18 164.09 114.60 C 165.08 115.00 166.07 115.40 167.07 115.80 C 161.61 115.76 156.80 120.10 151.23 118.05 C 149.81 116.42 146.96 114.95 147.48 112.46 C 148.95 111.06 150.77 110.12 152.48 109.05 C 151.58 108.39 150.68 107.72 149.78 107.06 C 155.54 107.06 161.33 106.87 167.02 105.85 Z" />
<path fill="#9f4643" opacity="1.00" d=" M 189.70 107.26 C 193.04 107.93 196.42 107.40 199.57 106.23 C 200.82 110.08 203.05 113.92 206.89 115.64 C 209.13 114.99 211.21 113.92 213.35 113.02 C 212.88 114.60 212.49 116.20 212.11 117.79 C 214.43 120.46 218.47 122.10 219.74 125.38 C 216.24 127.01 212.46 127.90 208.79 129.07 C 204.47 126.49 200.62 122.96 195.67 121.62 C 196.24 121.43 197.39 121.06 197.96 120.87 C 196.31 117.07 195.17 112.93 192.58 109.63 C 190.57 109.34 188.52 109.45 186.49 109.44 C 187.56 108.70 188.62 107.97 189.70 107.26 Z" />
<path fill="#b87159" opacity="1.00" d=" M 186.49 109.44 C 188.52 109.45 190.57 109.34 192.58 109.63 C 195.17 112.93 196.31 117.07 197.96 120.87 C 197.39 121.06 196.24 121.43 195.67 121.62 C 196.46 123.82 198.40 125.16 200.24 126.44 C 198.81 128.40 197.39 130.36 195.97 132.32 C 194.39 129.86 193.03 127.15 190.80 125.20 C 188.26 123.19 184.79 123.73 181.82 124.02 C 178.44 124.89 175.48 126.81 172.30 128.17 C 168.62 129.90 164.34 131.36 162.16 135.05 C 160.64 137.64 159.21 140.33 156.96 142.37 C 156.16 138.58 158.81 135.70 160.34 132.55 C 160.35 131.00 159.88 129.49 159.61 127.97 C 159.77 132.08 157.35 135.42 156.01 139.12 C 153.39 143.11 152.37 147.79 151.32 152.37 C 150.08 151.44 149.03 149.58 147.22 150.23 C 145.25 151.92 143.89 154.23 141.83 155.82 C 139.93 156.91 137.77 157.39 135.73 158.13 C 139.45 154.72 143.31 151.26 145.59 146.67 C 148.56 140.82 150.95 134.68 153.27 128.55 C 143.71 130.39 137.27 138.43 129.12 143.07 C 122.85 146.27 119.24 152.60 113.62 156.64 C 109.33 160.21 104.16 164.87 104.76 171.00 C 104.01 170.50 103.27 170.00 102.53 169.51 C 100.43 171.26 98.07 172.69 95.49 173.63 C 94.15 165.98 94.52 158.18 93.81 150.47 C 97.24 151.21 100.19 152.93 101.97 156.02 C 106.66 154.10 110.98 151.10 114.49 147.45 C 117.02 144.98 116.26 141.27 116.17 138.12 C 118.85 137.01 121.52 135.89 124.17 134.70 C 125.59 136.99 126.49 139.54 127.23 142.13 C 135.50 137.25 142.07 129.77 146.79 121.49 C 148.57 121.54 150.38 121.50 152.07 120.87 C 155.55 121.05 159.04 120.77 162.28 119.38 C 167.15 117.29 172.10 120.08 176.89 121.02 C 179.50 117.15 182.24 113.38 184.76 109.46 C 185.19 109.45 186.06 109.44 186.49 109.44 Z" />
<path fill="#a5504a" opacity="1.00" d=" M 126.55 119.64 C 131.18 116.92 135.37 113.56 139.10 109.70 C 139.19 112.60 139.46 115.53 140.61 118.23 C 136.01 119.35 131.29 120.02 126.55 119.64 Z" />
<path fill="#d7d7d7" opacity="1.00" d=" M 73.92 110.29 C 78.20 111.20 75.52 116.48 72.15 115.68 C 69.75 113.97 72.91 111.78 73.92 110.29 Z" />
<path fill="#9f4643" opacity="1.00" d=" M 213.26 117.04 C 214.46 114.60 215.54 111.68 218.42 110.85 C 222.55 114.10 228.29 117.91 233.52 114.71 L 234.63 114.08 C 234.59 115.52 234.04 116.61 232.98 117.35 C 229.14 119.38 225.54 121.83 222.03 124.38 C 218.95 122.12 216.04 119.65 213.26 117.04 Z" />
<path fill="#8b1d35" opacity="1.00" d=" M 236.13 114.52 C 238.76 114.16 241.11 112.86 243.56 111.92 C 245.07 114.01 246.59 116.11 248.54 117.83 C 244.31 120.25 240.35 123.09 236.26 125.74 C 236.00 125.75 235.48 125.76 235.22 125.77 C 234.44 122.68 236.46 119.63 235.85 116.49 L 234.52 115.91 L 234.66 114.79 L 236.13 114.52 Z" />
<path fill="#f2a376" opacity="1.00" d=" M 35.29 113.63 C 41.76 115.80 46.74 121.32 53.62 122.29 C 53.55 119.96 53.19 117.66 52.65 115.40 C 53.23 115.64 53.82 115.89 54.40 116.14 L 54.38 116.63 C 54.16 119.45 54.21 122.35 55.30 125.01 C 53.87 127.11 52.12 128.97 50.08 130.49 C 44.56 125.44 39.32 119.96 35.29 113.63 Z" />
<path fill="#f4ffb9" opacity="1.00" d=" M 320.31 117.97 C 321.16 117.06 322.23 116.44 323.28 115.79 C 323.30 116.13 323.34 116.81 323.36 117.15 C 320.07 122.54 314.92 126.30 309.78 129.78 C 298.88 137.81 287.23 144.81 276.73 153.36 C 274.49 155.17 272.16 156.88 269.64 158.26 C 271.88 155.26 274.56 152.64 277.26 150.04 C 281.68 146.29 286.29 142.74 291.06 139.44 C 297.96 135.35 304.18 130.25 310.79 125.73 C 314.13 123.36 317.57 121.06 320.31 117.97 Z" />
<path fill="#6f464c" opacity="1.00" d=" M 317.44 132.50 C 324.15 126.54 330.19 119.62 338.37 115.59 C 337.04 119.82 334.40 123.42 332.25 127.24 C 324.78 139.57 318.47 152.54 310.66 164.66 C 303.85 167.02 297.08 170.81 293.10 177.02 C 291.27 179.83 290.29 183.06 289.27 186.23 C 280.93 188.79 272.29 191.08 264.88 195.85 C 259.12 200.90 255.24 207.66 250.91 213.88 C 243.61 224.96 235.97 235.83 229.37 247.35 C 228.56 248.81 227.50 250.11 226.31 251.28 C 230.07 242.64 233.26 233.76 237.16 225.18 C 247.31 202.93 255.83 179.98 265.55 157.55 C 266.83 157.04 268.11 156.53 269.41 156.04 C 266.17 164.12 261.56 171.56 257.74 179.37 C 259.55 181.14 262.02 182.84 264.61 181.47 C 269.15 178.54 272.41 174.07 276.20 170.29 C 282.24 163.59 289.44 158.12 295.75 151.70 C 302.81 145.10 310.40 139.11 317.44 132.50 Z" />
<path fill="#f2b967" opacity="1.00" d=" M 55.30 125.01 C 54.21 122.35 54.16 119.45 54.38 116.63 C 55.70 117.57 56.99 118.54 58.32 119.46 C 59.93 120.80 62.03 121.09 64.05 121.25 C 63.22 123.37 62.73 125.65 61.52 127.60 C 59.04 128.28 56.90 126.69 55.30 125.01 Z" />
<path fill="#9b8888" opacity="1.00" d=" M 235.35 129.36 C 241.87 124.66 248.80 120.52 255.61 116.25 C 254.14 123.34 250.61 129.88 247.10 136.15 C 241.03 144.78 238.18 155.10 235.34 165.12 C 229.05 177.07 223.02 189.20 215.94 200.71 C 208.51 211.10 201.34 221.68 194.14 232.23 C 188.62 239.27 184.12 247.61 176.00 252.05 C 170.47 256.09 163.62 257.93 156.80 257.23 C 153.29 256.84 149.82 256.19 146.40 255.38 C 142.94 254.29 139.32 254.50 135.84 255.33 C 135.98 254.96 136.25 254.20 136.38 253.82 C 144.16 245.15 153.50 237.89 161.63 229.50 C 171.27 217.16 179.43 203.75 189.13 191.45 L 189.25 191.46 C 189.64 191.51 190.41 191.60 190.80 191.64 C 198.35 182.13 205.46 172.27 212.22 162.18 C 219.76 151.12 227.84 140.44 235.35 129.36 Z" />
<path fill="#f4ffb9" opacity="1.00" d=" M 58.32 119.46 C 60.57 119.29 62.73 118.65 64.83 117.88 C 65.13 118.77 65.44 119.67 65.74 120.57 C 65.32 120.74 64.47 121.08 64.05 121.25 C 62.03 121.09 59.93 120.80 58.32 119.46 Z" />
<path fill="#b17543" opacity="1.00" d=" M 64.83 117.88 C 66.21 117.79 67.58 117.83 68.94 117.99 C 67.36 120.83 64.95 123.50 65.09 126.96 C 64.72 131.07 68.29 133.83 70.00 137.18 C 66.52 139.48 62.59 136.27 58.96 138.20 C 55.72 135.96 52.91 133.21 50.08 130.49 C 52.12 128.97 53.87 127.11 55.30 125.01 C 56.90 126.69 59.04 128.28 61.52 127.60 C 62.73 125.65 63.22 123.37 64.05 121.25 C 64.47 121.08 65.32 120.74 65.74 120.57 C 65.44 119.67 65.13 118.77 64.83 117.88 Z" />
<path fill="#907678" opacity="1.00" d=" M 308.02 126.20 C 312.13 123.49 315.70 119.85 320.31 117.97 C 317.57 121.06 314.13 123.36 310.79 125.73 C 304.18 130.25 297.96 135.35 291.06 139.44 C 296.12 134.34 302.41 130.66 308.02 126.20 Z" />
<path fill="#bd795d" opacity="1.00" d=" M 122.02 131.02 C 125.05 127.46 127.27 122.40 132.18 121.14 C 134.96 120.31 136.49 123.30 138.18 124.90 C 137.76 127.00 137.37 129.12 136.89 131.21 C 134.67 134.31 131.51 136.57 128.63 139.01 C 127.63 135.49 125.51 132.42 122.02 131.02 Z" />
<path fill="#bc7a5e" opacity="1.00" d=" M 68.01 130.43 C 76.38 126.12 85.45 122.92 94.92 122.44 C 101.05 122.24 107.40 121.50 113.27 123.75 C 113.12 123.90 112.82 124.18 112.67 124.33 C 113.42 125.44 114.21 126.53 114.99 127.63 C 106.25 125.80 97.21 126.22 88.45 127.65 C 84.94 128.40 81.36 129.32 78.29 131.24 C 76.45 132.76 75.41 135.01 74.00 136.90 C 71.91 134.83 69.94 132.65 68.01 130.43 Z" />
<path fill="#d9a777" opacity="1.00" d=" M 172.30 128.17 C 175.48 126.81 178.44 124.89 181.82 124.02 C 184.51 124.69 187.68 125.23 189.29 127.77 C 191.70 131.00 191.57 135.22 191.42 139.04 C 192.83 136.94 194.28 134.86 195.76 132.82 C 196.77 135.99 197.65 139.20 198.60 142.39 C 200.15 147.49 202.24 152.57 202.25 157.99 C 202.27 160.88 201.24 164.09 198.59 165.61 C 192.85 169.09 186.56 171.96 181.97 177.04 C 189.31 173.72 195.64 167.82 203.80 166.58 C 196.27 177.86 188.23 188.83 179.79 199.45 L 179.29 199.66 C 175.08 200.85 172.37 204.52 168.58 206.42 C 165.49 207.03 162.46 205.62 159.44 205.11 C 161.45 200.11 162.82 194.87 164.94 189.93 C 169.77 184.90 175.79 180.95 179.70 175.06 C 174.00 178.62 169.45 183.62 164.40 188.00 C 161.33 181.64 156.89 176.07 152.45 170.63 C 151.26 169.38 151.63 167.57 151.68 166.02 C 152.50 158.78 153.90 151.60 155.82 144.57 C 156.41 142.79 156.44 140.94 156.01 139.12 C 157.35 135.42 159.77 132.08 159.61 127.97 C 159.88 129.49 160.35 131.00 160.34 132.55 C 158.81 135.70 156.16 138.58 156.96 142.37 C 159.21 140.33 160.64 137.64 162.16 135.05 C 164.34 131.36 168.62 129.90 172.30 128.17 Z" />
<path fill="#c98b6a" opacity="1.00" d=" M 181.82 124.02 C 184.79 123.73 188.26 123.19 190.80 125.20 C 193.03 127.15 194.39 129.86 195.97 132.32 C 197.39 130.36 198.81 128.40 200.24 126.44 C 201.16 127.15 202.14 127.82 202.96 128.67 C 204.06 130.03 205.09 131.45 206.21 132.80 C 206.36 137.20 206.40 141.61 206.23 146.02 C 203.77 144.64 201.24 143.39 198.60 142.39 C 197.65 139.20 196.77 135.99 195.76 132.82 C 194.28 134.86 192.83 136.94 191.42 139.04 C 191.57 135.22 191.70 131.00 189.29 127.77 C 187.68 125.23 184.51 124.69 181.82 124.02 Z" />
<path fill="#ff6775" opacity="1.00" d=" M 92.32 129.40 C 96.63 128.89 100.96 128.55 105.30 128.75 C 102.91 131.55 99.36 132.84 96.07 134.26 C 92.46 135.78 88.62 136.83 84.68 136.96 C 85.72 133.21 89.73 131.87 92.32 129.40 Z" />
<path fill="#b8735a" opacity="1.00" d=" M 98.98 135.35 C 102.32 133.65 105.78 131.90 108.04 128.78 C 112.71 129.59 117.50 130.73 121.33 133.68 C 118.95 134.79 116.25 135.47 114.30 137.32 C 113.71 140.00 115.22 143.13 113.37 145.45 C 110.52 149.01 106.38 151.16 102.76 153.82 C 102.24 152.87 101.72 151.92 101.21 150.97 C 104.85 147.63 108.08 143.43 108.33 138.29 C 105.19 137.39 102.07 136.40 98.98 135.35 Z" />
<path fill="#d29b71" opacity="1.00" d=" M 129.12 143.07 C 137.27 138.43 143.71 130.39 153.27 128.55 C 150.95 134.68 148.56 140.82 145.59 146.67 C 143.31 151.26 139.45 154.72 135.73 158.13 C 130.62 161.96 125.56 166.03 119.65 168.60 C 116.72 169.88 113.82 171.23 111.06 172.85 C 117.41 171.76 122.91 168.25 128.71 165.67 C 132.51 163.82 136.83 164.45 140.90 164.39 C 141.56 170.30 143.63 176.55 141.31 182.35 C 140.59 182.91 139.86 183.45 139.11 183.97 C 132.43 185.82 125.51 183.53 118.75 184.65 C 112.34 185.87 105.75 184.73 99.39 186.15 L 99.00 186.23 C 96.88 182.35 95.95 178.00 95.49 173.63 C 98.07 172.69 100.43 171.26 102.53 169.51 C 103.27 170.00 104.01 170.50 104.76 171.00 C 104.16 164.87 109.33 160.21 113.62 156.64 C 119.24 152.60 122.85 146.27 129.12 143.07 Z" />
<path fill="#952d3e" opacity="1.00" d=" M 202.96 128.67 C 208.26 131.89 213.93 135.25 217.78 140.16 C 218.30 147.60 212.90 153.45 208.74 158.99 C 208.56 154.80 206.58 151.06 204.94 147.31 C 207.39 147.24 210.22 147.86 212.30 146.20 C 214.30 144.81 214.25 141.81 213.19 139.86 C 211.33 137.08 208.50 135.18 206.21 132.80 C 205.09 131.45 204.06 130.03 202.96 128.67 Z" />
<path fill="#f4ffb9" opacity="1.00" d=" M 230.01 133.05 C 231.60 131.58 233.51 130.49 235.35 129.36 C 227.84 140.44 219.76 151.12 212.22 162.18 C 205.46 172.27 198.35 182.13 190.80 191.64 C 190.41 191.60 189.64 191.51 189.25 191.46 C 203.42 172.40 216.56 152.61 230.01 133.05 Z" />
<path fill="#daa978" opacity="1.00" d=" M 78.87 139.34 C 81.19 136.27 82.40 132.09 85.86 130.05 C 84.94 132.50 83.83 134.88 82.85 137.31 C 87.87 140.71 93.90 136.81 98.98 135.35 C 102.07 136.40 105.19 137.39 108.33 138.29 C 108.08 143.43 104.85 147.63 101.21 150.97 C 93.50 147.67 85.72 144.30 78.87 139.34 Z" />
<path fill="#661f29" opacity="1.00" d=" M 79.31 132.07 C 83.22 131.22 78.97 136.62 78.17 133.33 C 78.45 133.01 79.03 132.39 79.31 132.07 Z" />
<path fill="#ae5f52" opacity="1.00" d=" M 206.21 132.80 C 208.50 135.18 211.33 137.08 213.19 139.86 C 214.25 141.81 214.30 144.81 212.30 146.20 C 210.22 147.86 207.39 147.24 204.94 147.31 C 206.58 151.06 208.56 154.80 208.74 158.99 C 207.56 161.74 205.65 164.08 203.98 166.54 L 203.80 166.58 C 195.64 167.82 189.31 173.72 181.97 177.04 C 186.56 171.96 192.85 169.09 198.59 165.61 C 201.24 164.09 202.27 160.88 202.25 157.99 C 202.24 152.57 200.15 147.49 198.60 142.39 C 201.24 143.39 203.77 144.64 206.23 146.02 C 206.40 141.61 206.36 137.20 206.21 132.80 Z" />
<path fill="#3067a5" opacity="1.00" d=" M 331.35 133.29 C 335.97 132.81 340.63 134.58 344.98 136.06 C 342.09 138.62 338.78 140.62 335.41 142.46 C 331.47 144.61 327.94 147.42 323.96 149.49 C 323.57 149.51 322.79 149.56 322.40 149.58 C 325.19 144.06 328.07 138.54 331.35 133.29 Z" />
<path fill="#215a9f" opacity="1.00" d=" M 344.98 136.06 C 347.72 137.74 349.65 140.62 348.87 143.96 C 347.53 151.78 341.67 157.83 336.35 163.32 C 333.75 165.98 330.63 168.03 327.39 169.82 C 325.08 167.64 322.51 164.50 318.93 165.33 C 312.27 167.01 306.53 171.12 299.93 172.96 C 303.58 169.95 308.00 168.23 312.16 166.12 C 315.88 160.86 319.05 155.20 322.23 149.59 L 322.40 149.58 C 322.79 149.56 323.57 149.51 323.96 149.49 C 327.94 147.42 331.47 144.61 335.41 142.46 C 338.78 140.62 342.09 138.62 344.98 136.06 Z" />
<path fill="#578fa4" opacity="1.00" d=" M 73.54 151.54 C 76.28 148.72 79.89 146.99 83.09 144.78 C 85.41 145.97 87.66 147.27 89.85 148.69 C 85.33 159.36 79.72 169.50 73.93 179.52 C 70.52 178.08 67.11 176.65 63.67 175.31 C 63.49 172.84 62.67 170.20 63.67 167.81 C 65.25 164.92 68.65 163.78 71.72 163.38 C 71.59 159.43 70.56 154.74 73.54 151.54 Z" />
<path fill="#a7574a" opacity="1.00" d=" M 141.83 155.82 C 143.89 154.23 145.25 151.92 147.22 150.23 C 149.03 149.58 150.08 151.44 151.32 152.37 L 151.58 152.62 C 150.01 158.86 148.45 165.47 149.72 171.90 C 146.69 175.21 145.00 179.65 141.31 182.35 C 143.63 176.55 141.56 170.30 140.90 164.39 C 136.83 164.45 132.51 163.82 128.71 165.67 C 122.91 168.25 117.41 171.76 111.06 172.85 C 113.82 171.23 116.72 169.88 119.65 168.60 C 125.56 166.03 130.62 161.96 135.73 158.13 C 137.77 157.39 139.93 156.91 141.83 155.82 Z" />
<path fill="#896c6e" opacity="1.00" d=" M 269.64 155.43 C 272.03 153.44 274.45 151.44 277.26 150.04 C 274.56 152.64 271.88 155.26 269.64 158.26 C 272.16 156.88 274.49 155.17 276.73 153.36 C 275.43 157.65 270.98 159.98 268.98 163.94 C 271.53 165.89 273.94 168.00 276.20 170.29 C 272.41 174.07 269.15 178.54 264.61 181.47 C 262.02 182.84 259.55 181.14 257.74 179.37 C 261.56 171.56 266.17 164.12 269.41 156.04 L 269.64 155.43 Z" />
<path fill="#c37a5f" opacity="1.00" d=" M 87.02 161.17 C 88.43 157.97 89.62 154.66 91.51 151.70 C 91.49 159.19 92.26 166.64 92.63 174.12 C 92.15 173.30 91.68 172.49 91.21 171.69 C 89.71 168.21 89.38 164.26 87.02 161.17 Z" />
<path fill="#d5a173" opacity="1.00" d=" M 76.31 180.42 C 79.93 174.03 83.66 167.70 87.02 161.17 C 89.38 164.26 89.71 168.21 91.21 171.69 C 89.54 173.54 86.48 175.04 86.99 177.98 C 87.40 182.72 86.58 187.45 84.28 191.65 C 85.20 191.52 86.11 191.39 87.03 191.27 C 90.74 190.86 94.42 190.26 98.02 189.24 C 99.90 191.07 101.72 192.95 103.49 194.89 C 101.86 194.64 100.28 194.14 98.75 193.55 C 103.05 197.84 107.15 202.33 111.37 206.70 C 114.61 209.77 115.46 214.90 119.99 216.59 C 116.02 220.81 110.65 223.14 105.47 225.48 C 102.25 226.97 98.68 227.28 95.19 227.46 C 94.58 227.06 93.95 226.68 93.32 226.32 L 93.05 226.17 C 91.09 212.32 82.74 199.65 71.23 191.81 C 71.96 187.64 74.38 184.11 76.31 180.42 Z" />
<path fill="#2c64a3" opacity="1.00" d=" M 327.39 169.82 C 330.63 168.03 333.75 165.98 336.35 163.32 C 336.84 165.19 338.81 165.53 340.36 166.17 C 340.36 168.91 339.14 171.38 338.03 173.81 C 335.48 175.53 332.91 177.24 330.21 178.72 C 329.82 175.60 328.85 172.60 327.39 169.82 Z" />
<path fill="#64363d" opacity="1.00" d=" M 215.94 200.71 C 223.02 189.20 229.05 177.07 235.34 165.12 C 235.51 169.24 233.29 172.92 232.97 176.98 C 232.50 182.18 231.12 187.23 230.37 192.39 C 229.22 196.89 236.56 199.82 239.40 196.49 C 242.85 193.06 244.96 188.59 247.75 184.66 C 248.57 185.55 249.40 186.43 250.22 187.32 C 243.86 204.80 235.59 221.50 228.73 238.79 C 227.02 243.51 224.67 248.02 223.61 252.96 C 224.34 252.73 225.80 252.25 226.52 252.02 C 225.36 254.36 224.09 256.66 222.70 258.89 C 221.87 257.09 220.58 255.22 221.24 253.16 C 222.45 246.74 226.22 241.05 226.67 234.45 C 226.55 232.34 228.60 231.61 230.16 230.90 C 230.00 229.87 229.83 228.83 229.67 227.81 C 230.25 226.97 230.84 226.14 231.42 225.31 C 231.02 224.92 230.21 224.13 229.81 223.74 C 232.04 218.21 236.42 213.86 238.27 208.17 C 233.87 211.78 229.66 215.69 226.26 220.28 C 223.16 224.11 220.09 228.64 215.10 230.09 C 213.42 229.16 211.81 227.82 211.13 225.98 C 210.88 219.14 213.53 212.66 215.49 206.23 C 215.43 205.69 215.30 204.61 215.24 204.07 C 215.45 202.94 215.67 201.82 215.94 200.71 Z" />
<path fill="#f4ffb9" opacity="1.00" d=" M 33.27 167.37 C 42.86 170.29 52.34 173.66 61.62 177.45 C 54.76 178.51 48.81 174.67 42.67 172.38 C 39.68 171.16 36.89 169.51 33.87 168.37 L 33.17 168.09 C 33.20 167.91 33.25 167.55 33.27 167.37 Z" />
<path fill="#6f464c" opacity="1.00" d=" M 318.12 168.08 C 320.64 166.60 322.82 168.95 324.74 170.29 C 320.96 173.53 316.40 175.58 312.27 178.30 C 309.68 179.99 306.90 181.34 304.05 182.50 C 299.97 182.82 296.18 184.46 292.23 185.40 C 293.01 182.54 293.77 179.14 296.77 177.81 C 303.61 174.00 310.82 170.88 318.12 168.08 Z" />
<path fill="#907779" opacity="1.00" d=" M 33.87 168.37 C 36.89 169.51 39.68 171.16 42.67 172.38 C 48.81 174.67 54.76 178.51 61.62 177.45 C 65.54 178.26 69.21 180.04 72.87 181.65 C 71.85 183.42 70.85 185.20 69.81 186.97 C 64.89 186.50 59.84 186.55 55.12 184.92 C 50.78 183.45 46.30 182.48 41.74 182.02 C 38.98 177.56 35.52 173.41 33.87 168.37 Z" />
<path fill="#6e444a" opacity="1.00" d=" M 337.87 176.78 C 341.94 174.12 345.88 171.23 350.19 168.95 C 347.64 175.09 344.15 180.80 340.74 186.49 L 340.22 186.75 C 334.79 189.09 330.73 193.54 325.91 196.84 C 320.99 200.30 317.67 205.37 314.14 210.11 C 311.04 214.32 307.37 218.09 304.54 222.51 C 304.39 215.32 304.68 208.13 304.90 200.95 C 304.80 199.06 306.72 198.12 307.94 197.05 C 317.72 190.01 327.85 183.47 337.87 176.78 Z" />
<path fill="#64353b" opacity="1.00" d=" M 324.74 170.29 C 326.49 173.35 327.69 176.69 328.21 180.19 C 320.56 185.69 312.63 190.79 304.98 196.31 C 304.76 191.70 304.74 187.07 304.05 182.50 C 306.90 181.34 309.68 179.99 312.27 178.30 C 316.40 175.58 320.96 173.53 324.74 170.29 Z" />
<path fill="#aa534f" opacity="1.00" d=" M 91.21 171.69 C 91.68 172.49 92.15 173.30 92.63 174.12 C 92.77 174.75 93.06 176.01 93.21 176.64 C 90.74 181.34 87.40 185.77 87.03 191.27 C 86.11 191.39 85.20 191.52 84.28 191.65 C 86.58 187.45 87.40 182.72 86.99 177.98 C 86.48 175.04 89.54 173.54 91.21 171.69 Z" />
<path fill="#932f3b" opacity="1.00" d=" M 149.72 171.90 C 152.01 173.84 153.95 176.16 155.51 178.72 C 155.02 178.60 154.05 178.36 153.57 178.24 C 153.66 181.09 153.40 183.95 152.84 186.75 C 150.35 187.73 147.84 189.55 145.04 188.95 C 142.60 187.88 142.32 183.65 139.11 183.97 C 139.86 183.45 140.59 182.91 141.31 182.35 C 145.00 179.65 146.69 175.21 149.72 171.90 Z" />
<path fill="#c58765" opacity="1.00" d=" M 87.03 191.27 C 87.40 185.77 90.74 181.34 93.21 176.64 C 93.87 181.14 95.24 185.57 98.02 189.24 C 94.42 190.26 90.74 190.86 87.03 191.27 Z" />
<path fill="#8d2036" opacity="1.00" d=" M 153.57 178.24 C 154.05 178.36 155.02 178.60 155.51 178.72 C 158.31 182.02 160.14 186.04 162.79 189.47 C 159.99 195.91 157.53 202.50 155.15 209.10 C 154.02 210.74 157.20 212.64 156.19 213.92 C 148.10 213.08 139.91 212.07 131.80 213.30 C 130.12 211.90 128.44 210.50 126.77 209.09 C 130.23 208.79 133.88 209.31 137.19 208.10 C 140.34 206.14 143.30 203.66 145.39 200.57 C 146.30 197.48 145.77 193.06 142.35 191.75 C 139.45 190.38 136.35 189.09 134.58 186.24 C 134.03 186.18 132.94 186.06 132.39 186.00 C 127.83 185.73 123.26 185.46 118.75 184.65 C 125.51 183.53 132.43 185.82 139.11 183.97 C 142.32 183.65 142.60 187.88 145.04 188.95 C 147.84 189.55 150.35 187.73 152.84 186.75 C 153.40 183.95 153.66 181.09 153.57 178.24 Z" />
<path fill="#734b50" opacity="1.00" d=" M 41.74 182.02 C 46.30 182.48 50.78 183.45 55.12 184.92 C 59.84 186.55 64.89 186.50 69.81 186.97 C 69.30 188.78 68.61 190.58 68.48 192.48 C 73.26 196.81 78.69 200.66 82.00 206.37 C 79.87 206.09 77.74 205.85 75.65 205.41 C 71.65 203.30 68.19 200.23 64.00 198.46 C 59.05 196.39 53.96 194.63 48.76 193.29 C 46.47 189.50 43.84 185.92 41.74 182.02 Z" />
<path fill="#a8554b" opacity="1.00" d=" M 99.39 186.15 C 105.75 184.73 112.34 185.87 118.75 184.65 C 123.26 185.46 127.83 185.73 132.39 186.00 C 132.91 187.19 133.42 188.39 133.94 189.58 C 132.36 189.83 130.78 190.08 129.21 190.33 C 130.79 193.81 132.34 197.29 133.92 200.78 C 131.79 203.82 129.24 206.55 126.25 208.77 C 117.15 201.47 106.31 195.79 99.39 186.15 Z" />
<path fill="#9f4445" opacity="1.00" d=" M 132.39 186.00 C 132.94 186.06 134.03 186.18 134.58 186.24 C 136.35 189.09 139.45 190.38 142.35 191.75 C 145.77 193.06 146.30 197.48 145.39 200.57 C 143.30 203.66 140.34 206.14 137.19 208.10 C 133.88 209.31 130.23 208.79 126.77 209.09 L 125.81 209.12 L 126.25 208.77 C 129.24 206.55 131.79 203.82 133.92 200.78 C 132.34 197.29 130.79 193.81 129.21 190.33 C 130.78 190.08 132.36 189.83 133.94 189.58 C 133.42 188.39 132.91 187.19 132.39 186.00 Z" />
<path fill="#fffcc6" opacity="1.00" d=" M 281.04 191.32 C 286.97 189.41 292.92 187.51 299.03 186.23 C 294.14 188.52 289.68 191.65 284.64 193.65 C 278.92 195.89 273.53 198.91 267.66 200.77 C 267.89 199.92 268.34 198.23 268.56 197.38 C 272.07 194.25 276.70 192.87 281.04 191.32 Z" />
<path fill="#92797b" opacity="1.00" d=" M 299.03 186.23 C 299.84 185.94 301.47 185.38 302.28 185.09 C 302.39 193.67 302.71 202.28 302.03 210.84 C 292.49 218.57 282.09 225.15 272.33 232.58 C 268.83 234.59 265.96 237.54 262.34 239.35 C 259.62 240.72 256.90 242.10 254.26 243.62 C 254.17 242.17 254.08 240.73 254.00 239.29 C 252.89 239.74 251.78 240.19 250.67 240.64 C 250.11 238.21 249.54 235.78 248.99 233.35 C 248.30 233.84 247.61 234.34 246.93 234.85 C 246.94 234.34 246.96 233.33 246.97 232.82 C 251.60 224.85 256.07 216.79 260.99 208.98 C 262.81 206.07 263.88 202.78 264.92 199.53 C 265.36 197.95 267.25 197.75 268.56 197.38 C 268.34 198.23 267.89 199.92 267.66 200.77 C 273.53 198.91 278.92 195.89 284.64 193.65 C 289.68 191.65 294.14 188.52 299.03 186.23 M 280.52 196.35 C 276.90 198.01 274.98 201.75 273.58 205.28 C 277.21 202.70 280.86 200.10 284.12 197.07 C 284.08 195.32 281.58 196.11 280.52 196.35 Z" />
<path fill="#5e2e34" opacity="1.00" d=" M 325.91 196.84 C 330.73 193.54 334.79 189.09 340.22 186.75 C 338.98 190.62 336.54 193.92 334.52 197.41 C 329.42 206.05 324.22 214.64 319.71 223.60 C 318.90 225.08 318.17 226.66 316.96 227.88 C 312.63 228.83 308.19 229.19 303.82 229.92 C 303.97 227.45 303.76 224.88 304.54 222.51 C 307.37 218.09 311.04 214.32 314.14 210.11 C 317.67 205.37 320.99 200.30 325.91 196.84 Z" />
<path fill="#fffdc7" opacity="1.00" d=" M 31.95 191.56 C 38.60 193.30 45.39 194.62 51.82 197.10 C 53.54 197.99 55.18 199.02 56.82 200.06 C 49.85 201.21 43.28 198.50 36.73 196.60 C 34.71 195.42 33.48 193.28 31.95 191.56 Z" />
<path fill="#a44c4a" opacity="1.00" d=" M 98.75 193.55 C 100.28 194.14 101.86 194.64 103.49 194.89 L 103.78 194.94 C 108.89 199.74 114.94 203.37 120.24 207.92 C 121.13 211.19 120.74 214.59 121.04 217.92 C 121.95 218.74 122.97 219.43 123.96 220.16 C 125.12 222.26 126.39 224.30 127.90 226.17 C 127.57 226.26 126.93 226.43 126.60 226.52 C 122.13 224.61 117.99 227.74 113.79 228.91 C 112.64 226.12 109.38 226.71 106.97 226.84 C 102.44 227.10 98.00 228.31 93.45 228.36 L 92.67 226.91 C 92.84 226.76 93.16 226.47 93.32 226.32 C 93.95 226.68 94.58 227.06 95.19 227.46 C 98.68 227.28 102.25 226.97 105.47 225.48 C 110.65 223.14 116.02 220.81 119.99 216.59 C 115.46 214.90 114.61 209.77 111.37 206.70 C 107.15 202.33 103.05 197.84 98.75 193.55 Z" />
<path fill="#f0ecbf" opacity="1.00" d=" M 280.52 196.35 C 281.58 196.11 284.08 195.32 284.12 197.07 C 280.86 200.10 277.21 202.70 273.58 205.28 C 274.98 201.75 276.90 198.01 280.52 196.35 Z" />
<path fill="#907779" opacity="1.00" d=" M 36.73 196.60 C 43.28 198.50 49.85 201.21 56.82 200.06 C 55.18 199.02 53.54 197.99 51.82 197.10 C 58.17 198.27 64.26 200.77 69.59 204.41 C 75.22 208.13 81.06 211.57 86.33 215.81 C 89.51 218.18 89.52 222.58 90.45 226.09 C 87.36 224.19 84.22 222.36 81.08 220.52 C 77.74 218.57 74.50 216.36 70.80 215.14 C 66.86 213.78 62.69 213.37 58.63 212.58 C 55.25 211.10 51.61 210.44 48.01 209.76 C 43.87 205.76 39.86 201.45 36.73 196.60 Z" />
<path fill="#bb785c" opacity="1.00" d=" M 168.58 206.42 C 172.37 204.52 175.08 200.85 179.29 199.66 C 174.91 207.15 169.64 214.10 165.44 221.71 C 165.23 221.68 164.82 221.63 164.61 221.61 C 162.10 217.86 159.91 213.91 157.51 210.10 C 158.11 208.42 158.65 206.71 159.44 205.11 C 162.46 205.62 165.49 207.03 168.58 206.42 Z" />
<path fill="#6c4147" opacity="1.00" d=" M 258.67 206.67 C 260.47 204.06 262.41 201.50 264.92 199.53 C 263.88 202.78 262.81 206.07 260.99 208.98 C 256.07 216.79 251.60 224.85 246.97 232.82 C 244.78 236.47 242.46 240.16 241.55 244.37 C 240.86 247.41 241.50 250.51 242.03 253.52 C 243.70 253.38 245.37 253.25 247.04 253.13 C 244.43 256.47 241.18 259.28 238.86 262.84 C 236.67 266.64 238.01 271.22 240.07 274.76 C 243.48 274.14 247.14 274.01 250.18 272.16 C 255.55 268.96 260.84 265.64 266.24 262.49 C 275.14 259.43 281.62 251.84 290.37 248.45 C 292.75 247.41 294.97 249.26 296.63 250.76 C 296.29 251.21 295.61 252.12 295.28 252.57 C 293.13 253.92 290.83 255.31 289.70 257.69 C 287.76 260.73 287.21 264.83 284.06 266.98 C 279.04 270.55 273.59 273.49 268.56 277.06 C 255.25 279.82 241.50 277.83 228.00 278.35 C 224.30 278.86 221.04 276.71 218.72 274.03 C 218.48 272.68 218.67 271.41 219.31 270.20 C 230.63 247.96 244.64 227.26 258.67 206.67 Z" />
<path fill="#876669" opacity="1.00" d=" M 194.14 232.23 C 201.34 221.68 208.51 211.10 215.94 200.71 C 215.67 201.82 215.45 202.94 215.24 204.07 C 212.06 208.93 208.52 213.55 205.64 218.60 C 202.79 223.44 200.66 228.75 196.95 233.03 C 188.95 242.22 180.19 250.72 172.54 260.21 C 167.32 259.08 162.07 258.06 156.80 257.23 C 163.62 257.93 170.47 256.09 176.00 252.05 C 184.12 247.61 188.62 239.27 194.14 232.23 Z" />
<path fill="#896c6e" opacity="1.00" d=" M 75.65 205.41 C 77.74 205.85 79.87 206.09 82.00 206.37 L 82.43 206.43 C 83.59 208.30 84.72 210.18 85.80 212.10 C 82.28 210.07 78.97 207.73 75.65 205.41 Z" />
<path fill="#5e2d35" opacity="1.00" d=" M 205.64 218.60 C 208.52 213.55 212.06 208.93 215.24 204.07 C 215.30 204.61 215.43 205.69 215.49 206.23 C 213.53 212.66 210.88 219.14 211.13 225.98 C 211.81 227.82 213.42 229.16 215.10 230.09 C 220.09 228.64 223.16 224.11 226.26 220.28 C 229.66 215.69 233.87 211.78 238.27 208.17 C 236.42 213.86 232.04 218.21 229.81 223.74 C 230.21 224.13 231.02 224.92 231.42 225.31 C 230.84 226.14 230.25 226.97 229.67 227.81 C 229.83 228.83 230.00 229.87 230.16 230.90 C 228.60 231.61 226.55 232.34 226.67 234.45 C 226.22 241.05 222.45 246.74 221.24 253.16 C 220.58 255.22 221.87 257.09 222.70 258.89 C 220.75 262.66 218.77 266.42 216.96 270.26 L 216.64 270.35 C 212.84 271.21 209.41 274.89 209.41 278.88 C 202.76 279.99 196.02 280.19 189.34 281.01 C 188.12 276.16 186.64 270.87 182.57 267.60 C 179.34 264.96 177.03 260.89 172.54 260.21 C 180.19 250.72 188.95 242.22 196.95 233.03 C 200.66 228.75 202.79 223.44 205.64 218.60 Z" />
<path fill="#912839" opacity="1.00" d=" M 120.24 207.92 C 123.30 209.79 127.10 210.81 129.13 214.00 C 130.12 215.83 132.44 215.35 134.18 215.70 C 134.54 216.26 135.27 217.37 135.63 217.92 C 134.72 219.94 133.83 221.97 132.98 224.02 C 136.58 222.40 140.46 221.65 144.32 221.01 C 144.23 224.23 143.95 227.44 143.57 230.64 L 143.39 230.63 C 138.46 230.40 133.55 229.89 128.69 229.08 L 128.11 228.61 C 129.37 227.76 130.57 226.81 131.70 225.78 C 130.75 225.88 128.85 226.08 127.90 226.17 C 126.39 224.30 125.12 222.26 123.96 220.16 C 122.97 219.43 121.95 218.74 121.04 217.92 C 120.74 214.59 121.13 211.19 120.24 207.92 Z" />
<path fill="#6e454b" opacity="1.00" d=" M 327.16 215.25 C 340.74 211.72 354.60 209.17 368.54 207.63 C 363.97 212.01 358.77 215.87 353.22 218.90 C 349.09 220.34 345.12 222.20 341.31 224.34 C 336.39 227.25 330.36 227.36 325.58 230.55 C 322.70 232.63 319.06 232.05 315.85 231.23 C 317.30 230.33 319.06 229.64 319.87 228.03 C 322.31 223.77 324.55 219.41 327.16 215.25 Z" />
<path fill="#fffecd" opacity="1.00" d=" M 17.08 209.54 C 27.72 211.90 38.49 213.78 48.88 217.13 C 49.40 217.59 50.42 218.51 50.94 218.97 C 42.12 218.02 33.45 215.96 24.61 215.17 C 21.99 213.45 19.38 211.68 17.08 209.54 Z" />
<path fill="#6b3f45" opacity="1.00" d=" M 48.01 209.76 C 51.61 210.44 55.25 211.10 58.63 212.58 C 62.12 217.04 67.36 219.40 72.41 221.60 C 74.90 222.73 77.65 222.84 80.33 223.06 C 80.58 222.21 80.83 221.36 81.08 220.52 C 84.22 222.36 87.36 224.19 90.45 226.09 C 90.85 227.50 91.21 228.93 91.79 230.29 C 93.68 230.71 95.63 230.76 97.56 230.95 C 95.11 231.78 92.54 232.11 89.98 232.34 C 94.90 234.55 100.36 235.93 104.67 239.28 C 105.82 241.98 103.30 244.27 102.16 246.48 C 99.64 244.11 97.75 241.09 94.99 239.00 C 92.27 239.12 89.94 240.66 87.55 241.79 C 77.59 235.86 67.05 230.47 58.92 222.01 C 55.20 218.00 51.30 214.13 48.01 209.76 Z" />
<path fill="#6b3f45" opacity="1.00" d=" M 272.33 232.58 C 282.09 225.15 292.49 218.57 302.03 210.84 C 301.78 220.47 301.76 230.13 300.36 239.68 C 297.95 239.39 295.54 239.12 293.12 238.88 C 293.54 235.56 294.62 232.38 295.22 229.10 C 294.07 227.69 292.66 226.44 290.96 225.76 C 288.19 226.34 285.47 227.17 282.73 227.85 C 279.51 228.59 277.02 230.88 274.12 232.30 C 273.67 232.37 272.78 232.51 272.33 232.58 Z" />
<path fill="#754e53" opacity="1.00" d=" M 58.63 212.58 C 62.69 213.37 66.86 213.78 70.80 215.14 C 74.50 216.36 77.74 218.57 81.08 220.52 C 80.83 221.36 80.58 222.21 80.33 223.06 C 77.65 222.84 74.90 222.73 72.41 221.60 C 67.36 219.40 62.12 217.04 58.63 212.58 Z" />
<path fill="#8d7374" opacity="1.00" d=" M 24.61 215.17 C 33.45 215.96 42.12 218.02 50.94 218.97 C 50.42 218.51 49.40 217.59 48.88 217.13 C 50.37 217.38 52.00 217.66 52.96 218.97 C 56.24 222.69 59.74 226.21 63.53 229.41 C 61.92 230.48 60.30 232.23 58.16 231.59 C 53.99 230.90 49.93 229.73 45.79 228.89 C 43.71 228.20 41.62 227.59 39.53 226.93 C 34.02 223.81 29.40 219.28 24.61 215.17 Z" />
<path fill="#613137" opacity="1.00" d=" M 137.25 215.16 C 144.09 215.05 150.93 215.59 157.77 215.44 C 159.66 218.41 161.55 221.38 163.68 224.19 C 162.51 226.09 161.28 228.00 159.50 229.39 C 149.85 237.38 140.12 245.34 131.33 254.29 C 128.82 256.73 129.44 260.57 128.82 263.71 C 122.96 260.61 118.34 255.51 112.29 252.71 C 109.76 252.15 107.15 252.10 104.58 251.80 C 103.80 250.01 102.99 248.24 102.16 246.48 C 103.30 244.27 105.82 241.98 104.67 239.28 C 100.36 235.93 94.90 234.55 89.98 232.34 C 92.54 232.11 95.11 231.78 97.56 230.95 C 100.03 230.10 102.63 229.73 105.21 229.42 C 106.63 231.58 107.46 234.74 110.23 235.53 C 112.29 235.21 114.21 234.34 116.17 233.68 C 117.45 236.45 118.37 239.45 120.17 241.95 C 124.70 243.34 128.91 239.66 132.95 238.01 C 133.48 238.28 134.53 238.84 135.06 239.12 C 138.22 238.35 141.65 238.22 144.53 236.59 C 146.42 230.95 146.79 224.93 146.69 219.01 C 143.60 218.03 140.53 219.38 137.53 220.07 C 137.45 218.43 137.35 216.79 137.25 215.16 Z" />
<path fill="#65373d" opacity="1.00" d=" M 341.31 224.34 C 345.12 222.20 349.09 220.34 353.22 218.90 C 350.17 221.77 346.93 224.51 343.42 226.79 C 342.87 226.75 341.76 226.68 341.21 226.65 C 336.40 229.24 331.90 232.36 327.42 235.49 C 320.33 240.61 310.82 241.29 304.20 247.18 C 301.36 249.53 301.30 254.62 297.46 255.68 C 299.74 247.96 303.91 240.53 303.46 232.25 C 307.29 231.83 311.12 231.42 314.95 231.02 L 315.85 231.23 C 319.06 232.05 322.70 232.63 325.58 230.55 C 330.36 227.36 336.39 227.25 341.31 224.34 Z" />
<path fill="#be745c" opacity="1.00" d=" M 113.79 228.91 C 117.99 227.74 122.13 224.61 126.60 226.52 C 121.11 228.66 115.70 231.06 110.15 233.06 C 109.44 231.84 108.73 230.63 108.02 229.42 C 109.95 229.32 111.90 229.35 113.79 228.91 Z" />
<path fill="#8b6f71" opacity="1.00" d=" M 282.73 227.85 C 285.47 227.17 288.19 226.34 290.96 225.76 C 292.66 226.44 294.07 227.69 295.22 229.10 C 294.62 232.38 293.54 235.56 293.12 238.88 C 285.61 248.25 275.18 254.62 266.24 262.49 C 260.84 265.64 255.55 268.96 250.18 272.16 C 247.14 274.01 243.48 274.14 240.07 274.76 C 238.01 271.22 236.67 266.64 238.86 262.84 C 241.18 259.28 244.43 256.47 247.04 253.13 C 245.37 253.25 243.70 253.38 242.03 253.52 C 241.50 250.51 240.86 247.41 241.55 244.37 C 242.46 240.16 244.78 236.47 246.97 232.82 C 246.96 233.33 246.94 234.34 246.93 234.85 C 247.61 234.34 248.30 233.84 248.99 233.35 C 249.54 235.78 250.11 238.21 250.67 240.64 C 251.78 240.19 252.89 239.74 254.00 239.29 C 254.08 240.73 254.17 242.17 254.26 243.62 C 256.90 242.10 259.62 240.72 262.34 239.35 C 265.96 237.54 268.83 234.59 272.33 232.58 C 272.78 232.51 273.67 232.37 274.12 232.30 C 277.02 230.88 279.51 228.59 282.73 227.85 M 263.04 241.45 C 260.34 242.48 257.44 243.27 255.26 245.27 C 253.06 246.90 252.35 249.68 250.78 251.81 C 247.88 255.84 244.58 259.58 242.01 263.85 C 252.64 254.88 262.66 245.18 273.98 237.07 C 270.16 238.08 266.74 240.11 263.04 241.45 Z" />
<path fill="#5e2e34" opacity="1.00" d=" M 341.21 226.65 C 341.76 226.68 342.87 226.75 343.42 226.79 C 340.66 230.18 336.90 232.62 334.30 236.14 C 333.24 238.65 333.32 241.45 332.96 244.12 C 331.00 244.38 329.01 244.56 327.12 245.18 C 325.87 249.35 326.99 253.88 326.83 258.19 C 316.44 259.97 305.83 259.28 295.37 260.55 C 295.92 258.96 296.48 257.39 297.08 255.82 L 297.46 255.68 C 301.30 254.62 301.36 249.53 304.20 247.18 C 310.82 241.29 320.33 240.61 327.42 235.49 C 331.90 232.36 336.40 229.24 341.21 226.65 Z" />
<path fill="#6f3e45" opacity="1.00" d=" M 39.53 226.93 C 41.62 227.59 43.71 228.20 45.79 228.89 C 52.83 233.58 60.87 236.59 69.15 238.21 C 65.00 239.09 60.91 240.21 57.05 241.98 C 54.07 240.06 51.68 237.38 48.95 235.13 C 45.83 232.37 42.23 230.14 39.53 226.93 Z" />
<path fill="#7b5157" opacity="1.00" d=" M 45.79 228.89 C 49.93 229.73 53.99 230.90 58.16 231.59 C 60.30 232.23 61.92 230.48 63.53 229.41 C 66.10 231.31 68.64 233.25 71.33 234.99 C 70.62 236.07 69.91 237.16 69.15 238.21 C 60.87 236.59 52.83 233.58 45.79 228.89 Z" />
<path fill="#b67058" opacity="1.00" d=" M 118.13 232.57 C 121.47 231.27 124.75 229.83 128.11 228.61 L 128.69 229.08 C 129.76 231.34 130.75 233.63 131.85 235.87 C 128.53 237.55 125.20 239.34 121.51 240.02 C 120.47 237.50 119.34 235.01 118.13 232.57 Z" />
<path fill="#a65649" opacity="1.00" d=" M 128.69 229.08 C 133.55 229.89 138.46 230.40 143.39 230.63 C 143.13 232.04 142.88 233.45 142.64 234.86 C 140.48 235.47 138.31 236.09 136.08 236.38 C 135.87 235.87 135.45 234.85 135.24 234.34 C 134.11 234.85 132.97 235.35 131.85 235.87 C 130.75 233.63 129.76 231.34 128.69 229.08 Z" />
<path fill="#623238" opacity="1.00" d=" M 71.33 234.99 C 76.01 237.47 80.35 240.59 85.23 242.68 C 86.70 243.38 88.34 243.00 89.89 242.94 C 87.42 244.41 82.36 245.56 83.50 249.39 C 85.79 251.03 88.88 250.31 91.34 249.43 C 93.66 248.80 93.79 246.14 94.64 244.31 C 95.00 244.09 95.70 243.66 96.05 243.44 C 98.86 245.52 100.60 248.66 102.18 251.70 C 94.14 251.48 86.12 250.47 78.06 250.76 C 77.84 250.31 77.39 249.42 77.17 248.97 C 75.46 247.00 72.32 247.86 70.03 247.03 C 65.61 245.69 60.65 245.12 57.05 241.98 C 60.91 240.21 65.00 239.09 69.15 238.21 C 69.91 237.16 70.62 236.07 71.33 234.99 Z" />
<path fill="#fff8c4" opacity="1.00" d=" M 263.04 241.45 C 266.74 240.11 270.16 238.08 273.98 237.07 C 262.66 245.18 252.64 254.88 242.01 263.85 C 244.58 259.58 247.88 255.84 250.78 251.81 C 252.35 249.68 253.06 246.90 255.26 245.27 C 257.44 243.27 260.34 242.48 263.04 241.45 Z" />
<path fill="#5f3036" opacity="1.00" d=" M 293.12 238.88 C 295.54 239.12 297.95 239.39 300.36 239.68 C 299.25 243.42 297.90 247.08 296.63 250.76 C 294.97 249.26 292.75 247.41 290.37 248.45 C 281.62 251.84 275.14 259.43 266.24 262.49 C 275.18 254.62 285.61 248.25 293.12 238.88 Z" />
<path fill="#754f53" opacity="1.00" d=" M 89.89 242.94 C 91.41 242.22 92.98 241.61 94.56 241.05 C 95.05 241.84 95.55 242.64 96.05 243.44 C 95.70 243.66 95.00 244.09 94.64 244.31 C 93.79 246.14 93.66 248.80 91.34 249.43 C 88.88 250.31 85.79 251.03 83.50 249.39 C 82.36 245.56 87.42 244.41 89.89 242.94 Z" />
<path fill="#795559" opacity="1.00" d=" M 65.64 249.73 C 69.49 249.53 73.34 249.41 77.17 248.97 C 77.39 249.42 77.84 250.31 78.06 250.76 L 78.41 251.49 C 75.73 251.90 73.07 252.45 70.55 253.46 C 65.15 255.64 59.33 256.33 53.78 258.00 C 54.55 258.85 55.34 259.68 56.15 260.51 C 53.44 260.43 51.19 259.03 49.63 256.89 C 53.26 255.47 57.12 254.96 60.94 254.39 C 63.46 254.19 64.35 251.46 65.64 249.73 Z" />
<path fill="#886b6d" opacity="1.00" d=" M 43.86 249.48 C 51.12 249.77 58.38 249.71 65.64 249.73 C 64.35 251.46 63.46 254.19 60.94 254.39 C 57.12 254.96 53.26 255.47 49.63 256.89 C 47.61 254.49 45.58 252.10 43.86 249.48 Z" />
<path fill="#603036" opacity="1.00" d=" M 70.55 253.46 C 73.07 252.45 75.73 251.90 78.41 251.49 C 79.27 256.96 82.72 261.49 84.85 266.49 C 75.26 264.62 65.62 262.88 56.15 260.51 C 55.34 259.68 54.55 258.85 53.78 258.00 C 59.33 256.33 65.15 255.64 70.55 253.46 Z" />
<path fill="#613338" opacity="1.00" d=" M 289.70 257.69 C 290.83 255.31 293.13 253.92 295.28 252.57 C 294.37 256.36 293.05 260.05 291.43 263.58 C 287.86 267.63 283.39 270.77 279.43 274.42 C 276.58 277.26 272.22 276.64 268.56 277.06 C 273.59 273.49 279.04 270.55 284.06 266.98 C 287.21 264.83 287.76 260.73 289.70 257.69 Z" />
<path fill="#937b7c" opacity="1.00" d=" M 81.73 253.41 C 91.81 253.61 101.96 253.93 111.94 255.26 C 117.53 258.22 122.57 262.21 127.46 266.22 C 127.20 266.87 126.69 268.17 126.43 268.81 C 113.04 268.00 100.00 264.26 86.57 263.82 C 84.62 260.52 82.54 257.22 81.73 253.41 Z" />
<path fill="#87686a" opacity="1.00" d=" M 133.83 254.87 C 134.47 254.61 135.74 254.09 136.38 253.82 C 136.25 254.20 135.98 254.96 135.84 255.33 C 139.32 254.50 142.94 254.29 146.40 255.38 C 143.45 255.57 139.68 254.99 137.73 257.76 C 135.44 260.54 133.41 264.13 134.11 267.86 C 134.76 269.80 135.99 271.48 137.04 273.23 C 136.52 273.16 135.48 273.02 134.97 272.95 C 133.20 271.85 130.67 270.44 131.13 267.98 C 131.58 263.55 132.20 259.02 133.83 254.87 Z" />
<path fill="#6f464c" opacity="1.00" d=" M 137.73 257.76 C 139.68 254.99 143.45 255.57 146.40 255.38 C 149.82 256.19 153.29 256.84 156.80 257.23 C 162.07 258.06 167.32 259.08 172.54 260.21 C 177.03 260.89 179.34 264.96 182.57 267.60 C 186.64 270.87 188.12 276.16 189.34 281.01 C 177.57 282.29 165.77 283.21 153.99 284.34 C 150.86 284.90 148.32 282.68 145.86 281.13 C 142.19 278.46 138.31 276.04 134.97 272.95 C 135.48 273.02 136.52 273.16 137.04 273.23 C 135.99 271.48 134.76 269.80 134.11 267.86 C 133.41 264.13 135.44 260.54 137.73 257.76 Z" />
<path fill="#76494f" opacity="1.00" d=" M 86.57 263.82 C 100.00 264.26 113.04 268.00 126.43 268.81 C 126.69 268.17 127.20 266.87 127.46 266.22 L 127.66 265.70 C 127.93 267.51 127.44 269.70 128.88 271.12 C 132.11 274.83 136.76 276.86 140.09 280.47 C 132.39 279.93 124.67 279.49 116.98 278.80 C 110.92 278.42 105.46 275.52 99.95 273.23 C 95.05 270.83 88.88 269.37 86.57 263.82 Z" />
<path fill="#6a4046" opacity="1.00" d=" M 209.41 278.88 C 209.41 274.89 212.84 271.21 216.64 270.35 C 215.58 274.15 212.88 277.10 209.41 278.88 Z" />
</svg>
