<?xml version="1.0" encoding="UTF-8" ?>
<!DOCTYPE svg PUBLIC "-//W3C//DTD SVG 1.1//EN" "http://www.w3.org/Graphics/SVG/1.1/DTD/svg11.dtd">
<svg width="84pt" height="116pt" viewBox="0 0 84 116" version="1.1" xmlns="http://www.w3.org/2000/svg">
<path fill="#000000" opacity="1.00" d=" M 27.96 21.06 C 32.03 13.83 36.73 6.42 44.07 2.12 C 49.03 4.31 50.78 10.08 50.50 15.10 C 52.78 13.48 55.02 11.37 57.94 11.12 C 60.40 11.54 60.30 14.71 60.82 16.60 C 64.30 14.87 68.10 13.50 72.04 13.62 C 75.61 13.70 78.68 16.71 79.57 20.02 C 78.86 23.79 76.69 27.13 74.15 29.94 C 75.94 35.16 70.72 38.36 66.82 40.38 C 69.11 43.58 71.89 47.66 69.50 51.63 C 66.21 57.32 59.36 59.65 53.36 61.32 C 52.74 63.74 52.60 66.72 50.38 68.32 C 48.19 69.88 45.42 69.31 42.95 69.14 C 38.48 75.73 29.16 78.72 21.98 74.87 C 18.13 72.85 16.56 68.53 15.38 64.62 C 12.58 64.75 9.62 65.19 6.94 64.12 C 5.19 63.40 4.39 61.57 3.32 60.15 C 4.78 54.63 7.34 49.47 10.82 44.96 C 8.66 38.88 8.82 31.70 11.89 25.95 C 15.08 20.48 22.33 19.73 27.96 21.06 M 33.07 16.98 C 31.42 19.08 30.02 21.41 29.06 23.92 C 26.21 23.34 22.99 21.91 20.22 23.39 C 17.29 24.07 13.50 25.80 13.34 29.22 C 11.41 34.17 10.20 41.01 14.34 45.17 L 13.23 45.22 C 10.18 50.19 5.37 55.50 6.68 61.73 C 9.64 62.51 12.76 63.12 15.76 62.07 C 17.99 63.86 18.11 67.06 19.68 69.33 C 22.35 74.29 29.08 75.11 33.92 73.21 C 37.25 71.74 40.50 69.77 42.85 66.92 C 44.99 67.11 47.51 67.91 49.38 66.40 C 50.21 65.45 50.49 64.18 51.00 63.05 C 50.91 62.24 50.75 60.62 50.66 59.81 C 51.91 59.53 53.17 59.25 54.42 58.98 C 60.00 56.89 66.75 54.34 68.49 47.97 C 67.47 45.49 65.69 43.44 64.54 41.05 C 65.89 37.38 70.75 36.71 72.24 33.08 C 72.14 31.50 70.51 29.51 72.35 28.38 C 75.34 25.66 77.72 21.60 76.10 17.49 C 72.53 14.56 67.92 16.14 63.90 16.99 L 63.43 17.52 C 61.78 17.85 60.13 17.87 58.47 17.59 C 58.96 16.03 58.24 14.42 58.04 12.86 C 55.26 13.98 52.72 15.62 49.91 16.68 C 49.42 16.30 48.44 15.53 47.95 15.15 C 49.16 11.93 47.30 7.65 44.88 5.20 L 44.98 4.86 C 39.43 6.82 36.15 12.29 33.07 16.98 Z" />
<path fill="#78c974" opacity="1.00" d=" M 33.07 16.98 C 36.15 12.29 39.43 6.82 44.98 4.86 L 44.88 5.20 C 43.34 10.81 40.99 16.15 39.27 21.70 C 42.26 19.65 45.23 17.55 47.95 15.15 C 48.44 15.53 49.42 16.30 49.91 16.68 C 52.72 15.62 55.26 13.98 58.04 12.86 C 58.24 14.42 58.96 16.03 58.47 17.59 C 58.21 18.32 57.69 19.78 57.43 20.51 C 59.62 19.98 62.15 19.67 63.43 17.52 L 63.90 16.99 C 67.92 16.14 72.53 14.56 76.10 17.49 C 71.75 21.40 66.08 23.11 61.05 25.89 C 59.31 24.95 57.64 23.89 56.02 22.75 C 55.60 23.29 54.77 24.38 54.36 24.92 C 53.51 23.33 52.58 21.74 51.13 20.61 C 51.51 22.34 51.97 24.05 52.44 25.76 C 50.22 28.41 49.09 31.73 49.61 35.20 C 49.77 36.91 50.07 38.61 50.35 40.30 C 48.81 42.17 47.05 43.84 45.16 45.35 C 46.15 46.95 47.14 48.55 47.93 50.25 C 48.38 51.63 48.27 53.42 49.56 54.36 C 50.87 55.43 52.67 54.82 54.20 54.91 C 54.28 56.27 54.35 57.63 54.42 58.98 C 53.17 59.25 51.91 59.53 50.66 59.81 C 50.75 60.62 50.91 62.24 51.00 63.05 C 44.39 64.46 38.78 59.49 36.03 53.95 C 34.09 58.38 31.69 64.34 25.97 64.45 C 21.00 65.27 16.89 61.01 16.15 56.37 C 15.71 56.52 15.28 56.68 14.86 56.89 C 12.77 59.44 9.66 60.61 6.68 61.73 C 5.37 55.50 10.18 50.19 13.23 45.22 L 14.34 45.17 C 15.01 45.14 16.36 45.08 17.03 45.05 C 15.64 40.26 14.57 35.39 13.58 30.51 C 16.19 28.53 18.41 26.11 20.22 23.39 C 22.99 21.91 26.21 23.34 29.06 23.92 C 28.56 25.44 28.15 27.00 27.76 28.56 C 31.97 24.58 34.28 19.04 36.91 13.99 C 35.61 14.96 34.31 15.92 33.07 16.98 M 35.36 27.37 C 33.93 28.48 31.80 29.87 32.23 31.97 C 33.68 36.07 41.44 34.69 40.43 30.03 C 40.75 27.46 37.30 25.69 35.36 27.37 M 43.05 33.03 C 42.06 34.15 41.76 35.91 43.17 36.84 C 46.09 37.70 46.29 31.76 43.05 33.03 M 26.95 37.13 C 23.46 39.96 20.00 43.04 17.65 46.91 C 17.13 51.06 19.43 56.03 23.48 57.59 C 22.49 54.25 19.71 51.49 19.67 47.89 C 22.81 42.43 28.52 39.32 32.80 34.92 C 30.66 35.05 28.57 35.67 26.95 37.13 M 31.33 40.35 C 28.83 41.56 26.57 44.65 27.71 47.49 C 30.28 51.64 37.54 50.79 39.21 46.23 C 40.36 42.04 35.09 38.08 31.33 40.35 Z" />
<path fill="#5084ad" opacity="1.00" d=" M 44.88 5.20 C 47.30 7.65 49.16 11.93 47.95 15.15 C 45.23 17.55 42.26 19.65 39.27 21.70 C 40.99 16.15 43.34 10.81 44.88 5.20 Z" />
<path fill="#e9f7b7" opacity="1.00" d=" M 33.07 16.98 C 34.31 15.92 35.61 14.96 36.91 13.99 C 34.28 19.04 31.97 24.58 27.76 28.56 C 28.15 27.00 28.56 25.44 29.06 23.92 C 30.02 21.41 31.42 19.08 33.07 16.98 Z" />
<path fill="#e1efaf" opacity="1.00" d=" M 57.43 20.51 C 57.69 19.78 58.21 18.32 58.47 17.59 C 60.13 17.87 61.78 17.85 63.43 17.52 C 62.15 19.67 59.62 19.98 57.43 20.51 Z" />
<path fill="#376da8" opacity="1.00" d=" M 76.10 17.49 C 77.72 21.60 75.34 25.66 72.35 28.38 C 70.51 29.51 72.14 31.50 72.24 33.08 C 70.75 36.71 65.89 37.38 64.54 41.05 C 65.69 43.44 67.47 45.49 68.49 47.97 C 66.75 54.34 60.00 56.89 54.42 58.98 C 54.35 57.63 54.28 56.27 54.20 54.91 C 55.20 55.60 56.01 57.08 57.42 56.67 C 58.82 56.30 59.72 55.03 60.83 54.18 C 60.72 53.47 60.49 52.06 60.38 51.35 C 62.60 49.91 65.79 47.83 64.40 44.70 C 63.19 42.13 60.38 42.66 58.27 43.62 C 57.30 41.43 55.82 39.56 54.04 37.97 L 54.05 37.95 C 57.52 37.46 61.04 35.45 62.16 31.94 C 62.99 29.85 61.74 27.82 61.05 25.89 C 66.08 23.11 71.75 21.40 76.10 17.49 Z" />
<path fill="#000000" opacity="1.00" d=" M 51.13 20.61 C 52.58 21.74 53.51 23.33 54.36 24.92 C 54.77 24.38 55.60 23.29 56.02 22.75 C 57.64 23.89 59.31 24.95 61.05 25.89 C 61.74 27.82 62.99 29.85 62.16 31.94 C 61.04 35.45 57.52 37.46 54.05 37.95 C 52.50 37.15 51.05 36.17 49.61 35.20 C 49.09 31.73 50.22 28.41 52.44 25.76 C 51.97 24.05 51.51 22.34 51.13 20.61 M 52.35 28.00 L 53.25 28.59 C 52.87 28.86 52.11 29.39 51.73 29.65 L 51.86 30.48 C 50.77 32.45 51.96 34.23 53.00 35.86 C 55.98 35.83 59.35 34.56 60.50 31.60 C 61.28 29.53 59.72 27.80 58.58 26.27 C 56.42 26.54 54.37 27.26 52.35 28.00 Z" />
<path fill="#f4ffb9" opacity="1.00" d=" M 13.34 29.22 C 13.50 25.80 17.29 24.07 20.22 23.39 C 18.41 26.11 16.19 28.53 13.58 30.51 L 13.34 29.22 Z" />
<path fill="#f4ffb9" opacity="1.00" d=" M 35.36 27.37 C 37.30 25.69 40.75 27.46 40.43 30.03 C 41.44 34.69 33.68 36.07 32.23 31.97 C 31.80 29.87 33.93 28.48 35.36 27.37 Z" />
<path fill="#ff6170" opacity="1.00" d=" M 52.35 28.00 C 54.37 27.26 56.42 26.54 58.58 26.27 C 57.52 29.88 55.79 33.28 53.00 35.86 C 51.96 34.23 50.77 32.45 51.86 30.48 C 53.30 31.76 55.44 29.25 53.25 28.59 L 52.35 28.00 Z" />
<path fill="#9d3770" opacity="1.00" d=" M 58.58 26.27 C 59.72 27.80 61.28 29.53 60.50 31.60 C 59.35 34.56 55.98 35.83 53.00 35.86 C 55.79 33.28 57.52 29.88 58.58 26.27 Z" />
<path fill="#f5c8c1" opacity="1.00" d=" M 51.73 29.65 C 52.11 29.39 52.87 28.86 53.25 28.59 C 55.44 29.25 53.30 31.76 51.86 30.48 L 51.73 29.65 Z" />
<path fill="#578fa7" opacity="1.00" d=" M 14.34 45.17 C 10.20 41.01 11.41 34.17 13.34 29.22 L 13.58 30.51 C 14.57 35.39 15.64 40.26 17.03 45.05 C 16.36 45.08 15.01 45.14 14.34 45.17 Z" />
<path fill="#e0f3af" opacity="1.00" d=" M 43.05 33.03 C 46.29 31.76 46.09 37.70 43.17 36.84 C 41.76 35.91 42.06 34.15 43.05 33.03 Z" />
<path fill="#000000" opacity="1.00" d=" M 26.95 37.13 C 28.57 35.67 30.66 35.05 32.80 34.92 C 28.52 39.32 22.81 42.43 19.67 47.89 C 19.71 51.49 22.49 54.25 23.48 57.59 C 19.43 56.03 17.13 51.06 17.65 46.91 C 20.00 43.04 23.46 39.96 26.95 37.13 Z" />
<path fill="#5085aa" opacity="1.00" d=" M 50.35 40.30 C 50.07 38.61 49.77 36.91 49.61 35.20 C 51.05 36.17 52.50 37.15 54.05 37.95 L 54.04 37.97 C 51.67 40.40 50.62 43.53 51.91 46.78 C 50.57 47.92 49.22 49.05 47.93 50.25 C 47.14 48.55 46.15 46.95 45.16 45.35 C 47.05 43.84 48.81 42.17 50.35 40.30 Z" />
<path fill="#000000" opacity="1.00" d=" M 51.91 46.78 C 50.62 43.53 51.67 40.40 54.04 37.97 C 55.82 39.56 57.30 41.43 58.27 43.62 C 60.38 42.66 63.19 42.13 64.40 44.70 C 65.79 47.83 62.60 49.91 60.38 51.35 C 60.49 52.06 60.72 53.47 60.83 54.18 C 59.72 55.03 58.82 56.30 57.42 56.67 C 56.01 57.08 55.20 55.60 54.20 54.91 C 52.67 54.82 50.87 55.43 49.56 54.36 C 48.27 53.42 48.38 51.63 47.93 50.25 C 49.22 49.05 50.57 47.92 51.91 46.78 M 53.83 46.25 C 54.24 46.62 55.05 47.34 55.46 47.71 L 54.89 47.99 C 54.94 48.52 55.05 49.59 55.10 50.12 C 56.60 52.05 58.39 49.18 56.68 48.05 C 56.95 48.09 57.48 48.16 57.74 48.19 C 58.87 48.48 61.13 49.06 62.25 49.36 C 62.23 49.00 62.19 48.27 62.17 47.91 C 63.40 47.18 62.86 45.72 62.11 44.80 C 60.69 43.70 59.61 45.59 58.45 46.17 C 57.98 46.00 57.05 45.66 56.58 45.48 C 56.47 44.92 56.26 43.78 56.15 43.22 C 55.60 42.27 55.08 41.32 54.58 40.35 C 52.77 41.86 52.93 44.29 53.83 46.25 M 49.34 51.94 C 50.20 52.47 51.05 53.01 51.91 53.54 C 52.83 52.95 53.82 52.75 54.88 52.93 C 55.29 53.40 56.10 54.33 56.51 54.79 C 56.96 54.68 57.85 54.45 58.30 54.34 C 58.39 53.81 58.57 52.77 58.66 52.25 C 57.97 52.31 56.60 52.43 55.91 52.49 C 55.24 52.19 53.92 51.59 53.25 51.29 C 53.35 50.38 53.53 48.55 53.62 47.64 C 52.00 48.87 50.53 50.28 49.34 51.94 Z" />
<path fill="#000000" opacity="1.00" d=" M 31.33 40.35 C 35.09 38.08 40.36 42.04 39.21 46.23 C 37.54 50.79 30.28 51.64 27.71 47.49 C 26.57 44.65 28.83 41.56 31.33 40.35 M 28.41 46.08 C 30.09 48.47 33.02 48.63 35.66 48.17 C 38.55 46.32 38.01 41.61 34.23 41.36 C 31.25 41.33 29.48 43.59 28.41 46.08 Z" />
<path fill="#f8ffff" opacity="1.00" d=" M 53.83 46.25 C 52.93 44.29 52.77 41.86 54.58 40.35 C 55.08 41.32 55.60 42.27 56.15 43.22 C 55.37 44.22 54.60 45.23 53.83 46.25 Z" />
<path fill="#62ffea" opacity="1.00" d=" M 28.41 46.08 C 29.48 43.59 31.25 41.33 34.23 41.36 C 34.82 43.60 35.30 45.88 35.66 48.17 C 33.02 48.63 30.09 48.47 28.41 46.08 Z" />
<path fill="#376da8" opacity="1.00" d=" M 34.23 41.36 C 38.01 41.61 38.55 46.32 35.66 48.17 C 35.30 45.88 34.82 43.60 34.23 41.36 Z" />
<path fill="#62ffea" opacity="1.00" d=" M 53.83 46.25 C 54.60 45.23 55.37 44.22 56.15 43.22 C 56.26 43.78 56.47 44.92 56.58 45.48 C 57.05 45.66 57.98 46.00 58.45 46.17 C 59.31 46.40 61.03 46.86 61.89 47.08 C 61.96 47.29 62.10 47.71 62.17 47.91 C 62.19 48.27 62.23 49.00 62.25 49.36 C 61.13 49.06 58.87 48.48 57.74 48.19 C 57.48 48.16 56.95 48.09 56.68 48.05 C 56.37 47.97 55.76 47.79 55.46 47.71 C 55.05 47.34 54.24 46.62 53.83 46.25 Z" />
<path fill="#f8ffff" opacity="1.00" d=" M 58.45 46.17 C 59.61 45.59 60.69 43.70 62.11 44.80 C 62.86 45.72 63.40 47.18 62.17 47.91 C 62.10 47.71 61.96 47.29 61.89 47.08 C 61.03 46.86 59.31 46.40 58.45 46.17 Z" />
<path fill="#f8ffff" opacity="1.00" d=" M 49.34 51.94 C 50.53 50.28 52.00 48.87 53.62 47.64 C 53.53 48.55 53.35 50.38 53.25 51.29 C 53.92 51.59 55.24 52.19 55.91 52.49 C 56.60 52.43 57.97 52.31 58.66 52.25 C 58.57 52.77 58.39 53.81 58.30 54.34 C 57.85 54.45 56.96 54.68 56.51 54.79 C 56.10 54.33 55.29 53.40 54.88 52.93 C 53.82 52.75 52.83 52.95 51.91 53.54 C 51.05 53.01 50.20 52.47 49.34 51.94 Z" />
<path fill="#f4ffb9" opacity="1.00" d=" M 55.46 47.71 C 55.76 47.79 56.37 47.97 56.68 48.05 C 58.39 49.18 56.60 52.05 55.10 50.12 C 55.05 49.59 54.94 48.52 54.89 47.99 L 55.46 47.71 Z" />
<path fill="#3c71a9" opacity="1.00" d=" M 25.97 64.45 C 31.69 64.34 34.09 58.38 36.03 53.95 C 38.78 59.49 44.39 64.46 51.00 63.05 C 50.49 64.18 50.21 65.45 49.38 66.40 C 47.51 67.91 44.99 67.11 42.85 66.92 C 40.50 69.77 37.25 71.74 33.92 73.21 C 29.08 75.11 22.35 74.29 19.68 69.33 C 18.11 67.06 17.99 63.86 15.76 62.07 C 15.40 60.36 15.14 58.62 14.86 56.89 C 15.28 56.68 15.71 56.52 16.15 56.37 C 16.89 61.01 21.00 65.27 25.97 64.45 Z" />
<path fill="#5489ac" opacity="1.00" d=" M 6.68 61.73 C 9.66 60.61 12.77 59.44 14.86 56.89 C 15.14 58.62 15.40 60.36 15.76 62.07 C 12.76 63.12 9.64 62.51 6.68 61.73 Z" />
<path fill="#000000" opacity="1.00" d=" M 19.31 103.40 C 29.47 98.66 41.08 99.70 51.93 100.58 C 55.78 101.18 60.10 101.33 63.30 103.81 C 64.54 105.26 63.19 107.12 61.64 107.58 C 57.36 109.03 52.76 109.23 48.28 109.51 C 42.09 109.68 35.91 109.25 29.74 108.96 C 26.15 108.61 22.34 108.61 19.06 106.93 C 17.55 106.27 17.63 103.77 19.31 103.40 Z" />
<path fill="#000000" opacity="0.46" d=" M 29.74 108.96 C 35.91 109.25 42.09 109.68 48.28 109.51 C 42.41 111.98 35.71 110.21 29.74 108.96 Z" />
</svg>
