<?xml version="1.0" encoding="UTF-8" ?>
<!DOCTYPE svg PUBLIC "-//W3C//DTD SVG 1.1//EN" "http://www.w3.org/Graphics/SVG/1.1/DTD/svg11.dtd">
<svg width="195pt" height="229pt" viewBox="0 0 195 229" version="1.1" xmlns="http://www.w3.org/2000/svg">
<path fill="#000000" opacity="1.00" d=" M 126.62 37.49 C 131.62 30.79 137.57 24.29 145.46 21.03 C 146.58 23.91 147.66 26.86 147.70 29.98 C 148.12 39.73 147.14 49.62 144.16 58.94 C 154.93 51.95 167.04 45.32 180.25 45.54 C 180.51 50.82 178.32 55.78 176.43 60.58 C 171.77 70.97 167.41 81.95 159.00 89.98 C 148.90 99.76 137.05 108.09 123.69 112.74 C 124.76 113.70 125.96 114.51 127.20 115.25 C 126.93 115.70 126.39 116.58 126.12 117.03 C 122.91 118.13 119.56 118.87 116.56 120.53 C 115.18 123.86 114.09 127.31 112.56 130.57 C 111.77 130.64 110.19 130.78 109.39 130.85 C 109.34 131.98 109.28 133.11 109.23 134.24 C 108.15 134.33 107.07 134.42 105.99 134.50 C 102.98 137.21 99.89 139.86 96.45 142.02 C 94.27 139.96 91.92 138.07 89.29 136.64 C 87.00 137.98 84.20 138.21 81.79 137.03 C 74.63 133.76 69.85 126.60 68.32 119.02 C 46.32 116.92 26.53 99.15 22.52 77.36 L 21.52 77.62 C 22.32 76.78 23.06 75.87 23.98 75.14 C 27.75 75.26 31.19 77.01 34.62 78.41 C 46.43 83.72 57.39 90.75 67.82 98.38 C 65.78 81.50 68.28 63.74 76.95 48.94 C 78.55 46.38 80.29 43.70 82.95 42.14 C 84.90 43.05 85.67 45.24 86.57 47.04 C 90.70 56.46 94.33 66.38 94.65 76.77 C 95.59 76.17 96.55 75.60 97.49 75.01 C 97.65 77.87 97.78 80.72 97.86 83.58 C 100.27 83.07 102.69 82.67 105.10 82.17 C 109.10 66.00 116.83 50.91 126.62 37.49 M 141.83 25.06 C 133.42 31.38 127.29 40.13 121.81 48.98 C 115.06 60.18 109.69 72.31 106.79 85.09 C 106.19 87.27 106.71 89.93 104.89 91.61 C 105.05 91.62 105.36 91.62 105.51 91.62 L 105.39 91.79 C 105.17 94.61 104.83 97.42 104.58 100.24 C 106.93 95.86 109.84 91.84 112.50 87.65 C 115.40 83.53 118.17 79.32 120.89 75.08 C 119.45 73.04 118.12 70.93 116.91 68.75 C 117.48 68.69 118.63 68.59 119.20 68.54 C 119.26 70.75 120.89 72.56 122.47 73.96 L 122.35 73.03 C 125.37 67.68 128.79 62.54 131.44 56.99 C 131.64 53.08 128.33 49.65 129.22 45.70 C 131.25 48.19 131.70 51.47 132.82 54.39 C 133.32 53.37 133.83 52.36 134.35 51.35 L 134.23 51.06 C 135.70 48.46 137.04 45.78 138.60 43.22 C 139.21 47.41 136.39 50.97 135.10 54.76 C 136.43 53.83 137.78 52.90 139.15 52.02 C 137.71 55.79 133.42 57.29 131.85 60.99 C 129.45 65.85 126.22 70.24 123.86 75.12 C 129.45 70.18 134.94 65.09 141.15 60.90 C 144.40 52.01 145.68 42.48 145.50 33.04 C 145.56 29.64 145.07 26.27 144.17 23.00 C 143.38 23.67 142.60 24.37 141.83 25.06 M 79.54 49.08 L 79.54 49.68 C 77.56 52.62 75.89 55.79 74.71 59.13 L 75.13 59.75 C 77.13 61.67 78.57 64.07 80.20 66.29 C 80.24 65.48 80.33 63.86 80.38 63.05 C 80.97 59.16 81.47 55.25 81.47 51.32 C 81.92 51.23 82.83 51.07 83.28 50.99 C 83.22 56.12 82.77 61.23 82.36 66.34 C 83.17 66.01 84.79 65.34 85.60 65.01 C 84.50 66.40 83.29 67.71 82.29 69.18 C 81.51 72.11 81.68 75.20 81.35 78.20 C 81.16 79.91 80.99 81.63 80.82 83.36 C 82.38 81.47 84.04 79.66 85.76 77.91 C 85.77 79.90 85.75 81.89 85.73 83.89 C 88.05 82.00 90.39 80.12 92.68 78.20 C 92.25 73.72 92.01 69.16 90.49 64.87 L 90.60 64.69 C 89.17 58.91 87.00 53.34 84.57 47.91 C 84.04 46.63 83.52 45.35 82.99 44.06 C 81.76 45.68 80.59 47.34 79.54 49.08 M 165.10 50.73 C 147.29 57.82 131.59 69.71 118.97 84.06 C 118.39 84.84 117.53 85.54 117.35 86.54 C 115.14 87.56 114.24 90.08 112.85 91.93 C 109.59 96.63 106.76 101.59 104.34 106.76 C 103.67 108.41 103.03 110.07 102.39 111.73 C 106.67 109.73 111.01 107.72 114.73 104.76 C 118.51 103.22 121.75 100.63 125.42 98.87 C 125.86 98.54 126.72 97.86 127.15 97.53 C 131.43 95.24 135.33 92.34 139.45 89.80 C 139.47 88.46 139.94 87.04 139.54 85.74 C 140.48 83.04 138.49 79.38 140.86 77.32 C 141.77 80.89 141.75 84.59 141.40 88.24 C 142.20 87.63 142.99 86.98 143.81 86.39 L 144.56 86.67 L 144.57 85.91 C 145.96 85.10 147.37 84.33 148.79 83.56 C 149.09 83.70 149.71 83.99 150.02 84.14 L 149.27 83.83 C 147.09 85.98 144.78 87.99 142.35 89.84 C 146.24 89.90 150.29 89.90 153.82 91.77 C 158.82 87.16 163.53 82.08 166.63 75.97 C 168.91 71.67 171.16 67.32 172.77 62.72 C 175.48 57.90 177.32 52.49 178.15 47.01 C 173.77 48.13 169.28 48.97 165.10 50.73 M 73.77 61.35 C 70.46 72.01 68.50 83.36 69.99 94.50 C 69.96 95.10 69.90 96.30 69.87 96.90 C 70.25 98.66 70.47 100.57 71.98 101.78 C 73.06 99.81 73.95 97.75 74.77 95.67 C 76.34 91.87 78.98 88.32 78.68 84.01 C 77.09 81.53 74.84 79.18 74.53 76.13 C 76.22 77.76 77.73 79.55 79.25 81.33 C 79.24 80.51 79.21 78.88 79.20 78.06 C 79.51 75.02 79.71 71.97 79.93 68.93 C 78.59 66.86 77.23 64.80 75.78 62.81 L 75.39 63.87 C 75.23 63.19 74.93 61.83 74.78 61.15 C 74.53 61.20 74.03 61.30 73.77 61.35 M 24.55 77.25 C 26.22 84.58 29.69 91.39 34.30 97.29 C 36.61 100.04 38.84 103.00 41.91 104.95 C 49.13 111.65 58.67 115.47 68.31 117.02 C 68.36 115.61 68.42 114.20 68.48 112.79 C 65.07 110.47 61.25 112.10 57.53 112.01 C 58.69 111.27 59.86 110.53 61.02 109.79 C 59.31 108.97 57.72 107.68 55.80 107.41 C 52.89 105.28 49.22 105.01 45.84 104.14 C 46.18 103.60 46.85 102.52 47.19 101.98 C 46.81 101.91 46.05 101.78 45.67 101.72 C 44.35 100.42 43.08 99.08 41.82 97.73 C 44.36 98.95 46.89 100.25 49.56 101.17 L 49.28 101.16 C 49.94 101.57 51.26 102.40 51.92 102.81 C 51.16 100.72 50.37 98.64 49.61 96.55 C 51.79 97.98 53.11 100.22 54.32 102.45 L 54.24 103.00 C 56.12 105.50 59.18 106.48 61.86 107.85 C 61.64 106.94 61.41 106.02 61.19 105.11 C 61.39 104.64 61.79 103.70 61.99 103.24 C 62.78 105.30 63.89 107.22 64.91 109.18 C 66.13 109.77 67.36 110.36 68.58 110.95 C 69.28 108.36 70.05 105.79 70.88 103.25 C 66.70 100.17 62.53 97.05 58.05 94.41 C 56.19 92.83 54.01 91.68 51.92 90.45 C 47.37 87.37 42.48 84.78 37.55 82.36 C 33.99 80.52 30.29 78.89 26.43 77.80 C 25.96 77.66 25.02 77.39 24.55 77.25 M 92.18 81.35 C 89.14 83.69 86.07 86.00 83.26 88.62 C 83.25 87.71 83.23 85.89 83.22 84.98 C 78.65 92.17 75.28 100.00 71.95 107.81 C 70.39 113.06 70.54 118.66 71.99 123.92 C 74.02 128.52 77.65 132.32 81.97 134.86 L 81.96 134.92 C 82.96 135.43 83.97 135.95 84.97 136.48 C 89.02 133.31 93.49 136.69 96.41 139.69 C 97.11 138.97 97.85 138.29 98.48 137.51 C 101.47 135.88 103.97 133.48 107.11 132.11 C 107.70 130.96 108.28 129.80 108.86 128.65 C 109.50 128.67 110.78 128.71 111.42 128.74 C 111.88 127.04 112.34 125.35 112.79 123.65 L 112.96 123.65 C 114.25 118.91 118.70 116.66 123.17 115.73 C 122.48 114.99 121.79 114.25 121.10 113.51 C 116.39 114.86 111.51 115.45 106.62 115.38 C 104.40 114.47 101.93 114.01 99.96 112.57 C 100.93 108.96 102.28 105.47 103.97 102.14 C 103.64 101.66 102.97 100.68 102.64 100.20 C 102.88 95.16 103.38 90.12 104.45 85.18 C 101.84 85.59 99.23 86.05 96.68 86.76 C 96.18 84.27 95.45 81.81 95.04 79.29 C 94.07 79.96 93.14 80.67 92.18 81.35 M 127.66 99.96 C 130.79 100.80 133.95 101.97 135.90 104.73 C 141.51 100.96 147.64 97.65 152.22 92.60 C 148.08 92.12 143.93 91.85 139.78 91.62 C 135.87 94.59 131.54 96.95 127.66 99.96 M 125.26 101.23 C 118.48 104.98 111.89 109.11 104.82 112.33 C 115.24 114.74 125.49 109.63 134.83 105.53 C 132.18 103.25 128.64 101.84 125.26 101.23 Z" />
<path fill="#7bce70" opacity="1.00" d=" M 141.83 25.06 C 142.60 24.37 143.38 23.67 144.17 23.00 C 145.07 26.27 145.56 29.64 145.50 33.04 C 142.92 36.23 140.65 39.67 138.60 43.22 C 137.04 45.78 135.70 48.46 134.23 51.06 C 133.35 49.14 132.63 47.14 131.61 45.28 C 130.91 44.44 129.99 45.54 129.22 45.70 C 128.33 49.65 131.64 53.08 131.44 56.99 C 128.79 62.54 125.37 67.68 122.35 73.03 C 122.07 70.37 121.44 67.69 119.56 65.68 C 119.47 66.39 119.29 67.82 119.20 68.54 C 118.63 68.59 117.48 68.69 116.91 68.75 C 118.12 70.93 119.45 73.04 120.89 75.08 C 118.17 79.32 115.40 83.53 112.50 87.65 L 112.25 86.65 C 110.61 86.92 108.97 87.22 107.33 87.54 C 112.50 68.68 121.27 50.81 133.46 35.48 C 135.78 31.62 140.07 29.26 141.83 25.06 Z" />
<path fill="#ffffc3" opacity="1.00" d=" M 121.81 48.98 C 127.29 40.13 133.42 31.38 141.83 25.06 C 140.07 29.26 135.78 31.62 133.46 35.48 C 121.27 50.81 112.50 68.68 107.33 87.54 C 106.84 88.94 106.40 90.41 105.51 91.62 C 105.36 91.62 105.05 91.62 104.89 91.61 C 106.71 89.93 106.19 87.27 106.79 85.09 C 109.69 72.31 115.06 60.18 121.81 48.98 Z" />
<path fill="#4579ac" opacity="1.00" d=" M 138.60 43.22 C 140.65 39.67 142.92 36.23 145.50 33.04 C 145.68 42.48 144.40 52.01 141.15 60.90 C 134.94 65.09 129.45 70.18 123.86 75.12 C 126.22 70.24 129.45 65.85 131.85 60.99 C 133.42 57.29 137.71 55.79 139.15 52.02 C 137.78 52.90 136.43 53.83 135.10 54.76 C 136.39 50.97 139.21 47.41 138.60 43.22 Z" />
<path fill="#6eb88b" opacity="1.00" d=" M 79.54 49.08 C 80.59 47.34 81.76 45.68 82.99 44.06 C 83.52 45.35 84.04 46.63 84.57 47.91 C 84.14 48.93 83.71 49.96 83.28 50.99 C 82.83 51.07 81.92 51.23 81.47 51.32 C 81.47 55.25 80.97 59.16 80.38 63.05 C 79.24 61.77 77.89 60.63 77.11 59.08 C 77.93 55.95 79.98 53.06 79.54 49.68 L 79.54 49.08 Z" />
<path fill="#ffffc3" opacity="1.00" d=" M 129.22 45.70 C 129.99 45.54 130.91 44.44 131.61 45.28 C 132.63 47.14 133.35 49.14 134.23 51.06 L 134.35 51.35 C 133.83 52.36 133.32 53.37 132.82 54.39 C 131.70 51.47 131.25 48.19 129.22 45.70 Z" />
<path fill="#7acd71" opacity="1.00" d=" M 165.10 50.73 C 169.28 48.97 173.77 48.13 178.15 47.01 C 177.32 52.49 175.48 57.90 172.77 62.72 C 167.69 65.49 163.55 69.54 159.15 73.22 C 154.37 77.06 149.37 80.60 144.61 84.45 C 144.48 80.46 144.93 76.25 143.18 72.52 C 142.06 76.92 142.02 81.49 142.30 86.00 C 142.68 86.10 143.43 86.30 143.81 86.39 C 142.99 86.98 142.20 87.63 141.40 88.24 C 141.75 84.59 141.77 80.89 140.86 77.32 C 138.49 79.38 140.48 83.04 139.54 85.74 C 138.27 83.34 137.77 80.67 137.55 77.99 C 131.58 79.88 126.56 84.84 119.99 84.45 C 129.92 72.09 144.33 64.53 157.88 56.82 C 161.26 54.96 164.62 53.04 167.64 50.62 C 167.00 50.64 165.74 50.70 165.10 50.73 Z" />
<path fill="#4f8d9c" opacity="1.00" d=" M 84.57 47.91 C 87.00 53.34 89.17 58.91 90.60 64.69 L 90.49 64.87 C 87.80 69.58 86.12 75.07 81.35 78.20 C 81.68 75.20 81.51 72.11 82.29 69.18 C 83.29 67.71 84.50 66.40 85.60 65.01 C 84.79 65.34 83.17 66.01 82.36 66.34 C 82.77 61.23 83.22 56.12 83.28 50.99 C 83.71 49.96 84.14 48.93 84.57 47.91 Z" />
<path fill="#ffffc3" opacity="1.00" d=" M 74.71 59.13 C 75.89 55.79 77.56 52.62 79.54 49.68 C 79.98 53.06 77.93 55.95 77.11 59.08 C 77.89 60.63 79.24 61.77 80.38 63.05 C 80.33 63.86 80.24 65.48 80.20 66.29 C 78.57 64.07 77.13 61.67 75.13 59.75 L 74.71 59.13 Z" />
<path fill="#ffffc3" opacity="1.00" d=" M 118.97 84.06 C 131.59 69.71 147.29 57.82 165.10 50.73 C 165.74 50.70 167.00 50.64 167.64 50.62 C 164.62 53.04 161.26 54.96 157.88 56.82 C 144.33 64.53 129.92 72.09 119.99 84.45 L 119.49 83.76 L 119.34 84.71 C 118.68 85.69 117.95 86.64 117.24 87.59 L 117.35 86.54 C 117.53 85.54 118.39 84.84 118.97 84.06 Z" />
<path fill="#ffffc3" opacity="1.00" d=" M 73.77 61.35 C 74.03 61.30 74.53 61.20 74.78 61.15 C 74.93 61.83 75.23 63.19 75.39 63.87 C 71.50 73.62 71.54 84.26 69.99 94.50 C 68.50 83.36 70.46 72.01 73.77 61.35 Z" />
<path fill="#5b9c94" opacity="1.00" d=" M 159.15 73.22 C 163.55 69.54 167.69 65.49 172.77 62.72 C 171.16 67.32 168.91 71.67 166.63 75.97 C 164.15 77.30 161.77 78.82 159.65 80.68 C 159.44 78.20 159.28 75.71 159.15 73.22 Z" />
<path fill="#73c17b" opacity="1.00" d=" M 75.39 63.87 L 75.78 62.81 C 77.23 64.80 78.59 66.86 79.93 68.93 C 79.71 71.97 79.51 75.02 79.20 78.06 C 77.75 76.05 76.03 74.25 74.22 72.56 C 74.31 73.75 74.38 74.94 74.53 76.13 C 74.84 79.18 77.09 81.53 78.68 84.01 C 78.98 88.32 76.34 91.87 74.77 95.67 C 73.14 96.08 71.50 96.50 69.87 96.90 C 69.90 96.30 69.96 95.10 69.99 94.50 C 71.54 84.26 71.50 73.62 75.39 63.87 Z" />
<path fill="#3f73ab" opacity="1.00" d=" M 81.35 78.20 C 86.12 75.07 87.80 69.58 90.49 64.87 C 92.01 69.16 92.25 73.72 92.68 78.20 C 90.39 80.12 88.05 82.00 85.73 83.89 C 85.75 81.89 85.77 79.90 85.76 77.91 C 84.04 79.66 82.38 81.47 80.82 83.36 C 80.99 81.63 81.16 79.91 81.35 78.20 Z" />
<path fill="#ffffc3" opacity="1.00" d=" M 119.56 65.68 C 121.44 67.69 122.07 70.37 122.35 73.03 L 122.47 73.96 C 120.89 72.56 119.26 70.75 119.20 68.54 C 119.29 67.82 119.47 66.39 119.56 65.68 Z" />
<path fill="#ffffc3" opacity="1.00" d=" M 74.22 72.56 C 76.03 74.25 77.75 76.05 79.20 78.06 C 79.21 78.88 79.24 80.51 79.25 81.33 C 77.73 79.55 76.22 77.76 74.53 76.13 C 74.38 74.94 74.31 73.75 74.22 72.56 Z" />
<path fill="#ffffc3" opacity="1.00" d=" M 143.18 72.52 C 144.93 76.25 144.48 80.46 144.61 84.45 L 144.57 85.91 L 144.56 86.67 L 143.81 86.39 C 143.43 86.30 142.68 86.10 142.30 86.00 C 142.02 81.49 142.06 76.92 143.18 72.52 Z" />
<path fill="#4c879e" opacity="1.00" d=" M 144.61 84.45 C 149.37 80.60 154.37 77.06 159.15 73.22 C 159.28 75.71 159.44 78.20 159.65 80.68 C 156.98 82.75 153.62 86.34 150.02 84.14 C 149.71 83.99 149.09 83.70 148.79 83.56 C 147.37 84.33 145.96 85.10 144.57 85.91 L 144.61 84.45 Z" />
<path fill="#4379a9" opacity="1.00" d=" M 159.65 80.68 C 161.77 78.82 164.15 77.30 166.63 75.97 C 163.53 82.08 158.82 87.16 153.82 91.77 C 150.29 89.90 146.24 89.90 142.35 89.84 C 144.78 87.99 147.09 85.98 149.27 83.83 L 150.02 84.14 C 153.62 86.34 156.98 82.75 159.65 80.68 Z" />
<path fill="#f6ffb9" opacity="1.00" d=" M 24.55 77.25 C 25.02 77.39 25.96 77.66 26.43 77.80 C 28.27 82.73 30.03 88.02 34.36 91.40 C 36.78 93.58 39.36 95.59 41.82 97.73 C 43.08 99.08 44.35 100.42 45.67 101.72 C 45.29 101.63 44.52 101.45 44.14 101.36 C 41.56 100.00 39.24 98.20 36.93 96.43 C 36.05 96.71 35.18 97.00 34.30 97.29 C 29.69 91.39 26.22 84.58 24.55 77.25 Z" />
<path fill="#6fbc7d" opacity="1.00" d=" M 26.43 77.80 C 30.29 78.89 33.99 80.52 37.55 82.36 C 38.08 85.75 39.46 89.01 39.33 92.48 C 37.67 92.12 36.02 91.76 34.36 91.40 C 30.03 88.02 28.27 82.73 26.43 77.80 Z" />
<path fill="#71c177" opacity="1.00" d=" M 119.99 84.45 C 126.56 84.84 131.58 79.88 137.55 77.99 C 137.77 80.67 138.27 83.34 139.54 85.74 C 139.94 87.04 139.47 88.46 139.45 89.80 C 135.33 92.34 131.43 95.24 127.15 97.53 C 126.44 93.39 125.48 89.28 124.02 85.34 C 123.66 86.08 122.94 87.58 122.59 88.32 C 121.79 86.98 120.85 85.74 119.99 84.45 Z" />
<path fill="#9fa9c6" opacity="1.00" d=" M 92.18 81.35 C 93.14 80.67 94.07 79.96 95.04 79.29 C 95.45 81.81 96.18 84.27 96.68 86.76 C 97.26 94.21 96.55 101.69 95.60 109.08 C 97.04 110.26 98.47 111.44 99.96 112.57 C 101.93 114.01 104.40 114.47 106.62 115.38 C 107.16 115.57 108.24 115.96 108.78 116.15 C 107.19 116.65 105.57 117.11 104.07 117.86 L 103.00 118.59 C 100.11 116.34 97.27 114.04 94.45 111.71 C 92.66 101.65 95.02 91.23 92.18 81.35 Z" />
<path fill="#fefeff" opacity="1.00" d=" M 83.26 88.62 C 86.07 86.00 89.14 83.69 92.18 81.35 C 95.02 91.23 92.66 101.65 94.45 111.71 C 97.27 114.04 100.11 116.34 103.00 118.59 C 99.78 121.14 96.41 123.49 93.28 126.16 C 93.62 126.47 94.29 127.11 94.63 127.43 C 90.96 128.04 87.14 128.31 83.70 129.82 C 82.56 131.23 82.44 133.16 81.97 134.86 C 77.65 132.32 74.02 128.52 71.99 123.92 C 70.54 118.66 70.39 113.06 71.95 107.81 C 75.28 100.00 78.65 92.17 83.22 84.98 C 83.23 85.89 83.25 87.71 83.26 88.62 Z" />
<path fill="#66ad87" opacity="1.00" d=" M 37.55 82.36 C 42.48 84.78 47.37 87.37 51.92 90.45 C 54.45 93.93 55.42 98.26 54.32 102.45 C 53.11 100.22 51.79 97.98 49.61 96.55 C 48.36 95.20 47.12 93.83 45.84 92.50 C 46.94 95.81 49.01 98.63 50.88 101.52 L 49.56 101.17 C 46.89 100.25 44.36 98.95 41.82 97.73 C 39.36 95.59 36.78 93.58 34.36 91.40 C 36.02 91.76 37.67 92.12 39.33 92.48 C 39.46 89.01 38.08 85.75 37.55 82.36 Z" />
<path fill="#000000" opacity="1.00" d=" M 119.49 83.76 L 119.99 84.45 C 120.85 85.74 121.79 86.98 122.59 88.32 C 122.74 88.94 123.05 90.19 123.20 90.81 C 123.19 92.50 123.14 94.18 123.04 95.87 C 121.56 92.24 120.48 88.46 119.34 84.71 L 119.49 83.76 Z" />
<path fill="#bbc2d5" opacity="1.00" d=" M 96.68 86.76 C 99.23 86.05 101.84 85.59 104.45 85.18 C 103.38 90.12 102.88 95.16 102.64 100.20 C 102.97 100.68 103.64 101.66 103.97 102.14 C 102.28 105.47 100.93 108.96 99.96 112.57 C 98.47 111.44 97.04 110.26 95.60 109.08 C 96.55 101.69 97.26 94.21 96.68 86.76 Z" />
<path fill="#6bb97b" opacity="1.00" d=" M 117.24 87.59 C 117.95 86.64 118.68 85.69 119.34 84.71 C 120.48 88.46 121.56 92.24 123.04 95.87 C 123.14 94.18 123.19 92.50 123.20 90.81 C 123.88 93.51 124.62 96.20 125.42 98.87 C 121.75 100.63 118.51 103.22 114.73 104.76 C 111.26 105.40 107.79 106.02 104.34 106.76 C 106.76 101.59 109.59 96.63 112.85 91.93 C 114.24 90.08 115.14 87.56 117.35 86.54 L 117.24 87.59 Z" />
<path fill="#ffffc3" opacity="1.00" d=" M 122.59 88.32 C 122.94 87.58 123.66 86.08 124.02 85.34 C 125.48 89.28 126.44 93.39 127.15 97.53 C 126.72 97.86 125.86 98.54 125.42 98.87 C 124.62 96.20 123.88 93.51 123.20 90.81 C 123.05 90.19 122.74 88.94 122.59 88.32 Z" />
<path fill="#62ae84" opacity="1.00" d=" M 107.33 87.54 C 108.97 87.22 110.61 86.92 112.25 86.65 L 112.50 87.65 C 109.84 91.84 106.93 95.86 104.58 100.24 C 104.83 97.42 105.17 94.61 105.39 91.79 L 105.51 91.62 C 106.40 90.41 106.84 88.94 107.33 87.54 Z" />
<path fill="#579696" opacity="1.00" d=" M 51.92 90.45 C 54.01 91.68 56.19 92.83 58.05 94.41 C 59.90 97.08 61.21 100.08 61.99 103.24 C 61.79 103.70 61.39 104.64 61.19 105.11 C 61.41 106.02 61.64 106.94 61.86 107.85 C 59.18 106.48 56.12 105.50 54.24 103.00 L 54.32 102.45 C 55.42 98.26 54.45 93.93 51.92 90.45 Z" />
<path fill="#3f75a7" opacity="1.00" d=" M 127.66 99.96 C 131.54 96.95 135.87 94.59 139.78 91.62 C 143.93 91.85 148.08 92.12 152.22 92.60 C 147.64 97.65 141.51 100.96 135.90 104.73 C 133.95 101.97 130.79 100.80 127.66 99.96 Z" />
<path fill="#ffffc3" opacity="1.00" d=" M 45.84 92.50 C 47.12 93.83 48.36 95.20 49.61 96.55 C 50.37 98.64 51.16 100.72 51.92 102.81 C 51.26 102.40 49.94 101.57 49.28 101.16 L 49.56 101.17 L 50.88 101.52 C 49.01 98.63 46.94 95.81 45.84 92.50 Z" />
<path fill="#366ba7" opacity="1.00" d=" M 58.05 94.41 C 62.53 97.05 66.70 100.17 70.88 103.25 C 70.05 105.79 69.28 108.36 68.58 110.95 C 67.36 110.36 66.13 109.77 64.91 109.18 C 63.89 107.22 62.78 105.30 61.99 103.24 C 61.21 100.08 59.90 97.08 58.05 94.41 Z" />
<path fill="#65ab8b" opacity="1.00" d=" M 34.30 97.29 C 35.18 97.00 36.05 96.71 36.93 96.43 C 39.24 98.20 41.56 100.00 44.14 101.36 C 44.52 101.45 45.29 101.63 45.67 101.72 C 46.05 101.78 46.81 101.91 47.19 101.98 C 46.85 102.52 46.18 103.60 45.84 104.14 C 49.22 105.01 52.89 105.28 55.80 107.41 C 51.04 107.51 46.46 106.16 41.91 104.95 C 38.84 103.00 36.61 100.04 34.30 97.29 Z" />
<path fill="#558ab9" opacity="1.00" d=" M 69.87 96.90 C 71.50 96.50 73.14 96.08 74.77 95.67 C 73.95 97.75 73.06 99.81 71.98 101.78 C 70.47 100.57 70.25 98.66 69.87 96.90 Z" />
<path fill="#3369a6" opacity="1.00" d=" M 125.26 101.23 C 128.64 101.84 132.18 103.25 134.83 105.53 C 125.49 109.63 115.24 114.74 104.82 112.33 C 111.89 109.11 118.48 104.98 125.26 101.23 Z" />
<path fill="#3970a6" opacity="1.00" d=" M 41.91 104.95 C 46.46 106.16 51.04 107.51 55.80 107.41 C 57.72 107.68 59.31 108.97 61.02 109.79 C 59.86 110.53 58.69 111.27 57.53 112.01 C 61.25 112.10 65.07 110.47 68.48 112.79 C 68.42 114.20 68.36 115.61 68.31 117.02 C 58.67 115.47 49.13 111.65 41.91 104.95 Z" />
<path fill="#366d9d" opacity="1.00" d=" M 104.34 106.76 C 107.79 106.02 111.26 105.40 114.73 104.76 C 111.01 107.72 106.67 109.73 102.39 111.73 C 103.03 110.07 103.67 108.41 104.34 106.76 Z" />
<path fill="#6776a2" opacity="1.00" d=" M 106.62 115.38 C 111.51 115.45 116.39 114.86 121.10 113.51 C 121.79 114.25 122.48 114.99 123.17 115.73 C 118.70 116.66 114.25 118.91 112.96 123.65 L 112.79 123.65 C 112.36 123.65 111.50 123.66 111.06 123.66 C 110.12 124.60 109.20 125.56 108.31 126.56 C 108.04 126.17 107.50 125.39 107.23 125.00 C 108.59 122.24 108.54 116.52 104.07 117.86 C 105.57 117.11 107.19 116.65 108.78 116.15 C 108.24 115.96 107.16 115.57 106.62 115.38 Z" />
<path fill="#000000" opacity="1.00" d=" M 103.00 118.59 L 104.07 117.86 C 108.54 116.52 108.59 122.24 107.23 125.00 C 105.52 126.47 103.64 127.76 101.61 128.74 C 99.23 128.88 96.52 129.22 94.63 127.43 C 94.29 127.11 93.62 126.47 93.28 126.16 C 96.41 123.49 99.78 121.14 103.00 118.59 M 95.17 127.10 C 100.01 128.00 107.41 125.50 106.20 119.33 C 102.26 121.47 98.19 123.73 95.17 127.10 Z" />
<path fill="#63ffee" opacity="1.00" d=" M 95.17 127.10 C 98.19 123.73 102.26 121.47 106.20 119.33 C 107.41 125.50 100.01 128.00 95.17 127.10 Z" />
<path fill="#7b88ae" opacity="1.00" d=" M 111.06 123.66 C 111.50 123.66 112.36 123.65 112.79 123.65 C 112.34 125.35 111.88 127.04 111.42 128.74 C 110.78 128.71 109.50 128.67 108.86 128.65 C 108.28 129.80 107.70 130.96 107.11 132.11 C 103.97 133.48 101.47 135.88 98.48 137.51 C 99.66 134.64 100.61 131.68 101.61 128.74 C 103.64 127.76 105.52 126.47 107.23 125.00 C 107.50 125.39 108.04 126.17 108.31 126.56 C 109.20 125.56 110.12 124.60 111.06 123.66 Z" />
<path fill="#eceef3" opacity="1.00" d=" M 83.70 129.82 C 87.14 128.31 90.96 128.04 94.63 127.43 C 96.52 129.22 99.23 128.88 101.61 128.74 C 100.61 131.68 99.66 134.64 98.48 137.51 C 97.85 138.29 97.11 138.97 96.41 139.69 C 93.49 136.69 89.02 133.31 84.97 136.48 C 83.97 135.95 82.96 135.43 81.96 134.92 L 81.97 134.86 C 82.44 133.16 82.56 131.23 83.70 129.82 Z" />
<path fill="#000000" opacity="1.00" d=" M 88.37 208.68 C 97.96 205.82 108.07 206.37 117.95 205.77 C 126.50 206.22 135.33 206.32 143.41 209.48 C 145.86 210.15 147.93 213.48 145.17 215.18 C 138.67 219.09 130.62 218.77 123.29 219.45 C 117.42 219.50 111.57 219.15 105.71 218.92 C 99.52 218.46 93.24 217.72 87.39 215.52 C 86.00 214.90 84.03 213.95 84.24 212.12 C 84.36 210.05 86.75 209.31 88.37 208.68 Z" />
<path fill="#000000" opacity="0.38" d=" M 105.71 218.92 C 111.57 219.15 117.42 219.50 123.29 219.45 C 121.40 220.61 119.16 220.85 116.99 220.55 C 113.22 220.06 109.41 219.81 105.71 218.92 Z" />
</svg>
