<?xml version="1.0" encoding="UTF-8" ?>
<!DOCTYPE svg PUBLIC "-//W3C//DTD SVG 1.1//EN" "http://www.w3.org/Graphics/SVG/1.1/DTD/svg11.dtd">
<svg width="152pt" height="203pt" viewBox="0 0 152 203" version="1.1" xmlns="http://www.w3.org/2000/svg">
<path fill="#000000" opacity="1.00" d=" M 21.64 27.06 C 23.08 18.42 25.44 9.78 29.99 2.23 C 32.01 5.13 34.45 7.75 36.04 10.94 C 43.34 25.73 49.23 41.48 50.87 58.00 C 52.63 73.38 50.67 88.84 48.40 104.05 C 52.90 100.37 56.80 96.02 61.07 92.09 C 75.99 78.36 91.81 65.32 109.74 55.70 C 115.30 52.92 120.96 50.04 127.10 48.80 C 127.78 49.05 129.14 49.55 129.82 49.79 C 129.33 51.26 128.82 52.76 127.88 54.01 C 110.87 76.56 88.81 96.12 62.13 106.25 C 63.18 109.09 63.64 112.09 62.71 115.04 C 64.04 115.44 65.38 115.84 66.72 116.24 C 68.09 115.22 69.71 113.43 71.56 114.62 C 76.21 117.10 80.08 120.80 84.60 123.49 C 86.55 124.36 88.78 124.28 90.85 124.74 C 89.17 128.14 86.30 130.72 84.48 134.03 C 85.63 135.00 86.78 135.98 87.92 136.98 C 83.14 141.00 77.64 144.44 73.96 149.57 C 77.30 148.23 80.10 145.96 83.13 144.09 C 83.49 144.18 84.20 144.36 84.55 144.45 C 88.38 147.68 91.20 151.90 94.09 155.95 C 97.73 161.19 101.37 166.68 102.56 173.08 C 95.09 167.36 90.32 158.69 82.24 153.70 C 80.86 154.32 79.47 154.90 78.08 155.48 C 79.76 158.13 82.26 160.62 82.68 163.84 C 81.11 166.70 79.02 169.24 77.16 171.91 C 81.89 176.84 84.56 183.34 85.95 189.95 C 88.03 187.32 89.53 184.20 92.02 181.91 C 95.07 180.57 96.71 183.88 98.05 185.93 C 103.01 185.49 107.97 185.88 112.92 186.23 C 122.79 186.44 132.72 187.33 142.30 189.79 C 144.11 190.36 147.73 191.75 146.34 194.22 C 143.56 196.15 140.17 196.82 136.91 197.48 C 122.71 200.10 108.30 201.45 93.92 202.67 C 85.61 202.76 77.35 201.37 69.03 201.60 C 60.05 200.91 51.04 201.45 42.04 201.32 C 36.04 201.25 29.99 199.75 24.01 200.92 C 21.27 201.43 18.48 201.31 15.72 201.17 C 18.17 197.43 23.59 197.78 26.69 194.69 C 30.23 191.92 27.75 186.37 30.97 183.48 C 31.68 183.67 33.11 184.03 33.82 184.21 C 34.67 183.20 35.54 182.20 36.43 181.21 C 33.07 176.53 29.31 171.88 28.13 166.08 C 27.51 162.50 25.75 158.57 27.87 155.16 C 30.63 155.14 33.25 156.03 35.78 157.07 C 35.16 154.39 34.65 151.70 34.44 148.97 C 32.57 148.26 30.69 147.60 28.78 146.99 C 26.20 154.62 26.50 163.61 20.88 169.92 C 15.49 174.45 7.85 177.28 0.88 175.07 C 2.15 172.37 5.82 173.63 7.84 171.83 C 14.33 167.25 20.40 160.99 22.07 152.96 C 23.01 148.94 22.49 144.70 23.67 140.72 C 26.19 137.89 29.98 140.89 32.97 140.49 C 37.62 138.40 42.34 136.44 46.86 134.07 C 45.74 130.59 42.88 128.13 41.27 124.93 C 42.22 122.32 46.22 122.49 48.40 121.14 C 45.46 119.47 43.68 116.59 43.44 113.24 C 35.05 111.51 27.46 107.24 20.30 102.69 C 15.75 99.58 10.91 96.16 8.55 91.00 C 8.91 90.59 9.63 89.78 9.99 89.38 C 19.16 91.44 27.43 96.27 35.90 100.23 C 28.68 86.45 22.99 71.66 20.83 56.20 C 19.74 46.51 20.06 36.68 21.64 27.06 M 30.06 6.29 C 24.02 21.39 21.61 37.95 23.08 54.13 L 23.18 53.45 C 23.60 60.47 25.52 67.31 27.52 74.02 C 28.69 77.84 30.15 81.55 31.61 85.27 C 35.22 93.25 38.34 102.01 44.87 108.13 C 47.05 99.52 47.57 90.60 48.64 81.81 C 48.64 81.12 48.62 79.73 48.62 79.04 C 48.83 70.38 49.38 61.54 47.50 53.02 C 45.50 37.50 39.53 22.57 32.11 8.86 L 32.13 8.81 C 31.44 7.97 30.75 7.13 30.06 6.29 M 119.13 54.14 C 111.62 57.20 104.61 61.37 97.86 65.83 C 88.27 72.41 78.78 79.30 70.45 87.45 L 70.10 87.48 C 69.81 87.68 69.25 88.08 68.97 88.27 C 63.08 92.89 57.63 98.03 52.22 103.19 C 51.29 104.06 50.62 105.11 50.20 106.33 C 59.65 104.28 69.03 101.46 77.36 96.43 C 80.79 94.40 84.18 92.32 87.46 90.07 C 89.80 88.44 92.13 86.82 94.41 85.12 C 97.49 82.63 100.55 80.11 103.49 77.46 C 111.94 69.41 119.87 60.79 126.83 51.41 C 124.18 52.05 121.49 52.76 119.13 54.14 M 11.90 92.12 C 13.16 93.89 14.80 95.34 16.42 96.78 L 16.75 96.75 C 20.10 100.33 24.55 102.69 28.91 104.83 L 27.99 105.01 C 33.41 106.91 38.37 110.18 44.16 111.03 C 41.99 108.80 40.14 106.25 37.89 104.11 C 34.43 101.80 30.62 100.09 26.89 98.25 C 25.34 97.44 23.69 96.82 22.06 96.19 C 18.74 94.66 15.36 93.27 11.90 92.12 M 59.81 106.99 C 59.55 107.79 59.03 109.39 58.77 110.19 C 58.62 109.96 58.31 109.50 58.16 109.27 C 56.57 111.21 54.16 112.73 53.57 115.32 C 55.93 114.68 57.81 113.13 58.76 110.87 C 59.78 114.14 56.55 115.63 54.05 116.47 C 53.44 116.18 52.24 115.58 51.64 115.28 C 52.33 114.18 53.02 113.08 53.72 111.99 C 53.73 111.15 53.76 109.47 53.77 108.63 C 51.71 108.72 49.66 108.79 47.60 108.79 C 45.43 112.00 46.65 116.28 49.42 118.71 C 52.12 119.99 54.91 119.02 57.19 117.38 C 57.52 117.47 58.17 117.65 58.50 117.74 C 58.22 118.39 57.66 119.70 57.38 120.35 C 56.38 120.71 55.37 121.07 54.37 121.44 C 52.73 121.49 51.09 121.56 49.46 121.66 C 48.68 122.17 47.91 122.69 47.15 123.21 L 47.12 123.67 C 46.30 123.77 44.67 123.96 43.86 124.06 C 45.22 126.44 46.91 128.59 48.52 130.80 C 49.65 133.28 49.03 135.87 46.52 137.11 L 46.53 137.21 C 42.98 138.67 39.49 140.29 35.98 141.86 C 37.48 143.34 38.96 144.84 40.43 146.36 L 39.81 147.02 C 43.50 146.10 46.53 143.60 49.53 141.40 C 51.17 139.22 52.20 136.66 53.50 134.27 C 52.16 133.05 50.91 131.73 49.79 130.30 C 50.21 130.15 51.04 129.83 51.45 129.67 C 52.24 130.47 53.11 131.19 53.99 131.88 C 55.11 132.76 55.80 133.91 56.07 135.31 L 55.40 135.30 C 54.34 137.61 53.42 140.00 52.18 142.22 C 50.80 144.93 47.54 145.55 45.24 147.20 C 44.44 147.65 43.63 148.09 42.83 148.52 C 41.51 149.04 40.20 149.54 38.88 150.04 C 41.42 154.27 44.53 158.12 47.64 161.94 C 49.12 164.03 51.26 166.10 50.63 168.91 C 48.44 167.81 47.39 165.46 45.88 163.65 C 44.17 167.55 43.89 171.86 42.46 175.85 C 41.53 178.44 39.66 180.51 38.05 182.69 C 36.28 182.80 37.12 184.98 36.81 186.11 C 35.00 186.80 33.12 186.89 31.63 185.42 C 31.07 188.20 30.94 191.08 30.07 193.80 C 28.64 196.83 24.73 197.16 23.04 199.89 C 28.36 199.29 30.30 193.77 33.33 190.21 C 34.49 188.56 36.61 189.82 38.23 189.81 C 38.30 190.36 38.44 191.47 38.51 192.03 C 40.59 191.63 42.43 189.97 44.62 189.57 C 44.65 191.12 44.17 192.59 43.68 194.03 C 44.53 195.39 45.38 196.76 46.20 198.14 C 47.32 198.29 48.43 198.42 49.55 198.56 C 49.11 196.79 48.46 195.08 47.32 193.63 C 47.16 190.99 47.87 188.45 48.68 185.97 C 48.39 183.67 45.95 185.34 44.72 185.64 C 43.23 186.49 41.71 187.32 40.20 188.14 C 42.92 185.34 45.18 182.14 47.04 178.72 C 50.05 175.87 50.44 171.56 52.49 168.15 C 52.29 165.14 51.90 162.16 51.63 159.17 C 51.58 158.22 51.50 157.26 51.40 156.32 C 52.79 155.03 54.30 153.76 55.05 151.98 C 57.40 150.49 60.00 151.97 61.65 153.77 C 58.49 157.74 58.13 163.06 58.16 167.93 C 59.91 168.49 61.64 169.10 63.38 169.71 L 63.29 169.82 C 65.07 170.86 66.82 171.97 68.49 173.18 C 71.23 175.51 74.30 177.67 76.20 180.79 C 76.43 184.60 80.03 187.25 82.90 189.16 C 82.82 189.74 82.64 190.89 82.55 191.47 C 79.89 189.48 77.46 187.21 74.90 185.09 L 74.91 184.85 C 72.33 182.98 69.99 180.67 66.99 179.46 C 67.80 183.72 69.68 187.72 70.26 192.02 C 70.62 194.95 67.88 196.59 65.93 198.16 C 70.99 199.69 74.74 193.94 74.76 189.48 C 77.64 190.76 79.57 193.31 81.85 195.37 C 84.21 194.59 87.46 195.48 88.90 192.98 C 90.08 191.79 90.94 189.85 92.84 189.76 C 95.70 190.81 97.17 193.66 97.91 196.43 C 99.86 196.70 101.82 197.11 103.80 197.06 C 109.33 197.58 114.91 197.76 120.46 197.63 C 121.42 194.69 121.74 191.60 121.61 188.53 C 119.16 190.45 118.17 193.78 115.28 195.22 C 112.62 197.00 109.35 196.57 106.34 196.81 C 103.66 195.59 100.62 194.66 98.81 192.17 C 96.85 189.40 95.63 186.20 93.78 183.36 C 90.08 185.91 89.30 191.50 84.74 192.85 C 84.58 191.68 84.34 190.54 84.00 189.42 C 81.75 180.84 76.76 173.31 71.21 166.52 C 69.92 165.57 68.57 164.70 67.15 163.96 C 67.32 161.02 68.28 158.25 69.76 155.72 C 68.72 154.57 67.70 153.41 66.62 152.31 C 65.23 149.07 65.09 145.56 66.09 142.19 L 66.76 141.93 C 66.77 139.20 66.90 136.47 67.23 133.76 C 67.92 131.82 68.64 129.90 69.40 127.99 L 70.32 128.48 C 69.14 126.40 67.58 124.58 66.35 122.53 C 71.32 122.53 71.58 129.31 76.25 129.37 C 77.82 129.80 79.47 130.13 80.83 131.09 C 81.18 132.90 79.21 134.03 78.41 135.40 L 79.09 135.91 C 74.53 139.23 70.08 143.62 69.85 149.65 C 68.78 148.63 68.05 147.36 67.36 146.07 C 67.62 148.10 68.23 150.06 69.17 151.87 C 73.80 155.74 78.37 160.69 77.78 167.23 C 78.95 165.97 79.97 164.59 80.87 163.13 C 78.40 159.27 75.61 155.60 73.56 151.48 C 72.76 151.55 71.16 151.67 70.35 151.73 L 70.33 150.20 C 73.45 145.34 78.18 141.89 82.54 138.24 C 85.41 137.85 82.03 135.58 82.41 134.00 C 82.91 131.27 84.98 129.23 86.50 127.01 C 86.07 126.90 85.20 126.68 84.76 126.57 C 80.30 123.42 75.84 120.27 71.43 117.05 C 71.08 116.90 70.37 116.59 70.02 116.44 C 69.53 116.73 68.55 117.32 68.06 117.62 C 65.55 117.75 63.04 117.53 60.55 117.22 C 60.68 113.80 60.84 110.30 59.81 106.99 M 70.77 130.08 C 69.28 134.26 68.71 138.70 68.83 143.13 C 71.45 138.91 76.22 136.55 78.28 131.95 C 75.74 131.46 73.24 130.84 70.77 130.08 M 25.60 142.06 C 25.23 148.63 24.86 155.57 21.35 161.35 C 18.53 166.36 13.95 169.91 9.79 173.72 C 13.36 172.63 17.09 171.38 19.89 168.82 C 22.43 165.39 23.49 161.12 24.45 157.03 C 25.39 153.16 25.28 148.88 27.59 145.47 C 31.31 144.38 34.87 147.03 38.11 148.58 C 37.94 148.17 37.62 147.34 37.45 146.93 C 34.00 144.27 30.20 141.66 25.60 142.06 M 75.02 151.58 C 76.43 152.19 77.84 152.81 79.25 153.43 C 80.16 152.82 81.06 152.21 81.97 151.60 C 88.78 154.52 92.52 161.21 97.95 165.84 C 93.85 158.88 89.19 152.10 83.45 146.37 C 80.91 148.52 77.92 149.99 75.02 151.58 M 36.55 151.02 C 37.06 153.44 37.97 155.77 38.39 158.21 C 35.40 160.90 31.95 156.77 28.59 157.06 C 29.04 161.60 29.68 166.20 31.52 170.41 C 32.00 167.43 29.97 163.07 33.08 161.14 C 35.73 160.86 38.06 162.55 40.67 162.71 C 39.22 158.86 39.12 154.38 36.55 151.02 M 53.46 156.96 C 53.99 160.28 54.49 163.63 54.55 167.01 C 53.45 173.28 50.16 178.99 46.08 183.86 C 47.05 183.70 48.99 183.38 49.96 183.22 C 50.90 185.63 50.23 188.13 49.59 190.52 C 55.44 189.80 61.28 188.96 67.17 188.62 C 66.12 184.93 64.76 181.22 65.17 177.31 C 69.16 176.63 71.83 180.13 74.91 181.99 C 69.99 175.86 63.17 171.35 55.62 169.16 C 56.12 163.82 56.36 158.37 58.75 153.45 C 56.23 152.80 55.11 155.66 53.46 156.96 M 69.18 162.23 C 71.50 164.39 73.67 166.72 75.60 169.23 C 75.79 164.80 74.81 160.29 71.76 156.92 C 70.79 158.64 69.93 160.41 69.18 162.23 M 42.13 158.91 C 42.15 160.77 43.09 162.93 41.82 164.58 C 39.01 165.58 36.22 163.50 33.47 163.10 C 33.55 168.80 34.33 175.18 38.08 179.70 C 41.82 174.32 41.25 167.35 44.73 161.90 C 43.86 160.90 43.00 159.91 42.13 158.91 Z" />
<path fill="#ffffc4" opacity="1.00" d=" M 30.06 6.29 C 30.75 7.13 31.44 7.97 32.13 8.81 L 32.11 8.86 C 26.70 22.60 25.16 37.44 23.39 51.98 C 23.34 52.35 23.24 53.08 23.18 53.45 L 23.08 54.13 C 21.61 37.95 24.02 21.39 30.06 6.29 Z" />
<path fill="#76c775" opacity="1.00" d=" M 23.39 51.98 C 25.16 37.44 26.70 22.60 32.11 8.86 C 39.53 22.57 45.50 37.50 47.50 53.02 C 45.47 57.47 45.25 64.16 39.60 65.68 C 34.01 67.26 29.79 62.30 27.08 58.14 C 27.53 60.85 27.76 63.60 27.56 66.34 C 25.57 61.67 27.13 55.93 23.39 51.98 Z" />
<path fill="#74c376" opacity="1.00" d=" M 119.13 54.14 C 121.49 52.76 124.18 52.05 126.83 51.41 C 119.87 60.79 111.94 69.41 103.49 77.46 C 102.19 75.78 100.82 74.16 99.41 72.58 C 99.73 70.83 100.05 69.08 100.38 67.33 C 106.64 62.94 113.12 58.88 119.13 54.14 Z" />
<path fill="#69b481" opacity="1.00" d=" M 23.18 53.45 C 23.24 53.08 23.34 52.35 23.39 51.98 C 27.13 55.93 25.57 61.67 27.56 66.34 C 27.76 63.60 27.53 60.85 27.08 58.14 C 29.79 62.30 34.01 67.26 39.60 65.68 C 45.25 64.16 45.47 57.47 47.50 53.02 C 49.38 61.54 48.83 70.38 48.62 79.04 C 48.48 77.55 48.33 76.06 48.14 74.58 C 45.78 76.78 43.70 80.31 39.98 79.90 C 35.10 80.30 32.28 75.72 29.71 72.35 C 28.98 72.91 28.25 73.46 27.52 74.02 C 25.52 67.31 23.60 60.47 23.18 53.45 Z" />
<path fill="#ffffc4" opacity="1.00" d=" M 97.86 65.83 C 104.61 61.37 111.62 57.20 119.13 54.14 C 113.12 58.88 106.64 62.94 100.38 67.33 C 96.53 69.97 92.72 72.67 88.88 75.33 C 85.08 77.97 81.31 80.66 77.78 83.65 C 75.64 85.40 73.45 87.66 70.45 87.45 C 78.78 79.30 88.27 72.41 97.86 65.83 Z" />
<path fill="#69b47f" opacity="1.00" d=" M 88.88 75.33 C 92.72 72.67 96.53 69.97 100.38 67.33 C 100.05 69.08 99.73 70.83 99.41 72.58 C 100.82 74.16 102.19 75.78 103.49 77.46 C 100.55 80.11 97.49 82.63 94.41 85.12 C 92.91 83.47 91.20 82.02 89.76 80.33 C 89.23 78.71 89.11 77.00 88.88 75.33 Z" />
<path fill="#549790" opacity="1.00" d=" M 27.52 74.02 C 28.25 73.46 28.98 72.91 29.71 72.35 C 32.28 75.72 35.10 80.30 39.98 79.90 C 43.70 80.31 45.78 76.78 48.14 74.58 C 48.33 76.06 48.48 77.55 48.62 79.04 C 48.62 79.73 48.64 81.12 48.64 81.81 C 43.78 85.48 37.51 86.44 31.61 85.27 C 30.15 81.55 28.69 77.84 27.52 74.02 Z" />
<path fill="#62aa85" opacity="1.00" d=" M 77.78 83.65 C 81.31 80.66 85.08 77.97 88.88 75.33 C 89.11 77.00 89.23 78.71 89.76 80.33 C 91.20 82.02 92.91 83.47 94.41 85.12 C 92.13 86.82 89.80 88.44 87.46 90.07 C 85.01 89.40 82.44 88.98 80.15 87.83 C 78.89 86.77 78.50 85.07 77.78 83.65 Z" />
<path fill="#3a72a2" opacity="1.00" d=" M 31.61 85.27 C 37.51 86.44 43.78 85.48 48.64 81.81 C 47.57 90.60 47.05 99.52 44.87 108.13 C 38.34 102.01 35.22 93.25 31.61 85.27 Z" />
<path fill="#559792" opacity="1.00" d=" M 70.45 87.45 C 73.45 87.66 75.64 85.40 77.78 83.65 C 78.50 85.07 78.89 86.77 80.15 87.83 C 82.44 88.98 85.01 89.40 87.46 90.07 C 84.18 92.32 80.79 94.40 77.36 96.43 C 75.37 95.87 72.99 96.02 71.28 94.77 C 70.09 92.78 69.67 90.45 68.97 88.27 C 69.25 88.08 69.81 87.68 70.10 87.48 L 70.45 87.45 Z" />
<path fill="#3b72a8" opacity="1.00" d=" M 52.22 103.19 C 57.63 98.03 63.08 92.89 68.97 88.27 C 69.67 90.45 70.09 92.78 71.28 94.77 C 72.99 96.02 75.37 95.87 77.36 96.43 C 69.03 101.46 59.65 104.28 50.20 106.33 C 50.62 105.11 51.29 104.06 52.22 103.19 Z" />
<path fill="#ffffc4" opacity="1.00" d=" M 11.90 92.12 C 15.36 93.27 18.74 94.66 22.06 96.19 C 20.30 96.46 18.52 96.64 16.75 96.75 L 16.42 96.78 C 14.80 95.34 13.16 93.89 11.90 92.12 Z" />
<path fill="#61a391" opacity="1.00" d=" M 22.06 96.19 C 23.69 96.82 25.34 97.44 26.89 98.25 C 27.97 100.28 29.13 102.45 28.91 104.83 C 24.55 102.69 20.10 100.33 16.75 96.75 C 18.52 96.64 20.30 96.46 22.06 96.19 Z" />
<path fill="#356ba7" opacity="1.00" d=" M 26.89 98.25 C 30.62 100.09 34.43 101.80 37.89 104.11 C 40.14 106.25 41.99 108.80 44.16 111.03 C 38.37 110.18 33.41 106.91 27.99 105.01 L 28.91 104.83 C 29.13 102.45 27.97 100.28 26.89 98.25 Z" />
<path fill="#ae504b" opacity="1.00" d=" M 59.81 106.99 C 60.84 110.30 60.68 113.80 60.55 117.22 C 63.04 117.53 65.55 117.75 68.06 117.62 C 64.97 118.76 61.61 118.83 58.50 117.74 C 58.17 117.65 57.52 117.47 57.19 117.38 C 54.91 119.02 52.12 119.99 49.42 118.71 C 50.16 117.57 50.91 116.43 51.64 115.28 C 52.24 115.58 53.44 116.18 54.05 116.47 C 56.55 115.63 59.78 114.14 58.76 110.87 L 58.77 110.19 C 59.03 109.39 59.55 107.79 59.81 106.99 Z" />
<path fill="#dbaa78" opacity="1.00" d=" M 49.42 118.71 C 46.65 116.28 45.43 112.00 47.60 108.79 C 49.66 108.79 51.71 108.72 53.77 108.63 C 53.76 109.47 53.73 111.15 53.72 111.99 C 53.02 113.08 52.33 114.18 51.64 115.28 C 50.91 116.43 50.16 117.57 49.42 118.71 Z" />
<path fill="#41a29e" opacity="1.00" d=" M 58.16 109.27 C 58.31 109.50 58.62 109.96 58.77 110.19 L 58.76 110.87 C 57.81 113.13 55.93 114.68 53.57 115.32 C 54.16 112.73 56.57 111.21 58.16 109.27 Z" />
<path fill="#af6452" opacity="1.00" d=" M 68.06 117.62 C 68.55 117.32 69.53 116.73 70.02 116.44 C 70.37 116.59 71.08 116.90 71.43 117.05 C 70.09 120.95 72.50 124.30 75.02 127.00 C 75.32 127.59 75.94 128.78 76.25 129.37 C 71.58 129.31 71.32 122.53 66.35 122.53 C 67.58 124.58 69.14 126.40 70.32 128.48 L 69.40 127.99 C 67.91 127.19 66.45 126.35 65.00 125.51 C 65.70 123.57 65.76 121.54 64.22 120.00 C 62.37 121.18 60.58 122.52 58.52 123.33 C 56.83 124.11 55.67 122.13 54.37 121.44 C 55.37 121.07 56.38 120.71 57.38 120.35 C 57.66 119.70 58.22 118.39 58.50 117.74 C 61.61 118.83 64.97 118.76 68.06 117.62 Z" />
<path fill="#ce966e" opacity="1.00" d=" M 75.02 127.00 C 72.50 124.30 70.09 120.95 71.43 117.05 C 75.84 120.27 80.30 123.42 84.76 126.57 C 81.62 127.87 78.20 128.70 75.02 127.00 Z" />
<path fill="#d29d71" opacity="1.00" d=" M 58.52 123.33 C 60.58 122.52 62.37 121.18 64.22 120.00 C 65.76 121.54 65.70 123.57 65.00 125.51 C 64.79 126.18 64.37 127.52 64.17 128.19 C 60.77 129.40 57.33 130.51 53.99 131.88 C 53.11 131.19 52.24 130.47 51.45 129.67 C 50.48 127.09 49.97 124.37 49.46 121.66 C 51.09 121.56 52.73 121.49 54.37 121.44 C 55.67 122.13 56.83 124.11 58.52 123.33 Z" />
<path fill="#b36451" opacity="1.00" d=" M 47.15 123.21 C 47.91 122.69 48.68 122.17 49.46 121.66 C 49.97 124.37 50.48 127.09 51.45 129.67 C 51.04 129.83 50.21 130.15 49.79 130.30 C 50.91 131.73 52.16 133.05 53.50 134.27 C 52.20 136.66 51.17 139.22 49.53 141.40 C 46.53 143.60 43.50 146.10 39.81 147.02 L 40.43 146.36 C 42.36 144.23 44.57 142.38 46.81 140.60 C 46.72 139.47 46.62 138.34 46.53 137.21 L 46.52 137.11 C 49.03 135.87 49.65 133.28 48.52 130.80 C 49.25 128.47 49.94 124.92 47.12 123.67 L 47.15 123.21 Z" />
<path fill="#dcab79" opacity="1.00" d=" M 43.86 124.06 C 44.67 123.96 46.30 123.77 47.12 123.67 C 49.94 124.92 49.25 128.47 48.52 130.80 C 46.91 128.59 45.22 126.44 43.86 124.06 Z" />
<path fill="#9b4242" opacity="1.00" d=" M 65.00 125.51 C 66.45 126.35 67.91 127.19 69.40 127.99 C 68.64 129.90 67.92 131.82 67.23 133.76 C 65.99 134.17 64.75 134.60 63.50 134.96 C 62.42 134.42 61.34 133.88 60.25 133.34 C 62.19 132.16 63.61 130.41 64.17 128.19 C 64.37 127.52 64.79 126.18 65.00 125.51 Z" />
<path fill="#b86e56" opacity="1.00" d=" M 84.76 126.57 C 85.20 126.68 86.07 126.90 86.50 127.01 C 84.98 129.23 82.91 131.27 82.41 134.00 C 82.03 135.58 85.41 137.85 82.54 138.24 C 81.34 137.53 80.20 136.75 79.09 135.91 L 78.41 135.40 C 79.21 134.03 81.18 132.90 80.83 131.09 C 79.47 130.13 77.82 129.80 76.25 129.37 C 75.94 128.78 75.32 127.59 75.02 127.00 C 78.20 128.70 81.62 127.87 84.76 126.57 Z" />
<path fill="#b06454" opacity="1.00" d=" M 53.99 131.88 C 57.33 130.51 60.77 129.40 64.17 128.19 C 63.61 130.41 62.19 132.16 60.25 133.34 C 61.34 133.88 62.42 134.42 63.50 134.96 C 63.20 135.03 62.61 135.16 62.31 135.23 C 60.23 135.36 58.15 135.33 56.07 135.31 C 55.80 133.91 55.11 132.76 53.99 131.88 Z" />
<path fill="#a55549" opacity="1.00" d=" M 63.50 134.96 C 64.75 134.60 65.99 134.17 67.23 133.76 C 66.90 136.47 66.77 139.20 66.76 141.93 L 66.09 142.19 C 63.73 142.91 61.79 144.46 59.90 145.98 C 60.65 142.39 61.44 138.80 62.31 135.23 C 62.61 135.16 63.20 135.03 63.50 134.96 Z" />
<path fill="#d6a375" opacity="1.00" d=" M 56.07 135.31 C 58.15 135.33 60.23 135.36 62.31 135.23 C 61.44 138.80 60.65 142.39 59.90 145.98 C 58.95 146.72 57.99 147.45 57.03 148.18 C 53.08 149.04 48.67 150.03 45.24 147.20 C 47.54 145.55 50.80 144.93 52.18 142.22 C 53.42 140.00 54.34 137.61 55.40 135.30 L 56.07 135.31 Z" />
<path fill="#cd976d" opacity="1.00" d=" M 79.09 135.91 C 80.20 136.75 81.34 137.53 82.54 138.24 C 78.18 141.89 73.45 145.34 70.33 150.20 C 70.04 150.62 69.46 151.45 69.17 151.87 C 68.23 150.06 67.62 148.10 67.36 146.07 C 68.05 147.36 68.78 148.63 69.85 149.65 C 70.08 143.62 74.53 139.23 79.09 135.91 Z" />
<path fill="#d0986f" opacity="1.00" d=" M 35.98 141.86 C 39.49 140.29 42.98 138.67 46.53 137.21 C 46.62 138.34 46.72 139.47 46.81 140.60 C 44.57 142.38 42.36 144.23 40.43 146.36 C 38.96 144.84 37.48 143.34 35.98 141.86 Z" />
<path fill="#f3bd86" opacity="1.00" d=" M 25.60 142.06 C 30.20 141.66 34.00 144.27 37.45 146.93 C 37.62 147.34 37.94 148.17 38.11 148.58 C 34.87 147.03 31.31 144.38 27.59 145.47 C 25.28 148.88 25.39 153.16 24.45 157.03 C 23.49 161.12 22.43 165.39 19.89 168.82 C 17.09 171.38 13.36 172.63 9.79 173.72 C 13.95 169.91 18.53 166.36 21.35 161.35 C 24.86 155.57 25.23 148.63 25.60 142.06 Z" />
<path fill="#99383f" opacity="1.00" d=" M 59.90 145.98 C 61.79 144.46 63.73 142.91 66.09 142.19 C 65.09 145.56 65.23 149.07 66.62 152.31 C 64.82 152.15 63.17 152.89 61.65 153.77 C 60.00 151.97 57.40 150.49 55.05 151.98 C 55.70 150.70 56.32 149.42 57.03 148.18 C 57.99 147.45 58.95 146.72 59.90 145.98 Z" />
<path fill="#bb785b" opacity="1.00" d=" M 42.83 148.52 C 43.63 148.09 44.44 147.65 45.24 147.20 C 48.67 150.03 53.08 149.04 57.03 148.18 C 56.32 149.42 55.70 150.70 55.05 151.98 C 54.30 153.76 52.79 155.03 51.40 156.32 C 50.08 152.33 46.36 150.25 42.83 148.52 Z" />
<path fill="#dcab79" opacity="1.00" d=" M 75.02 151.58 C 77.92 149.99 80.91 148.52 83.45 146.37 C 89.19 152.10 93.85 158.88 97.95 165.84 C 92.52 161.21 88.78 154.52 81.97 151.60 C 81.06 152.21 80.16 152.82 79.25 153.43 C 77.84 152.81 76.43 152.19 75.02 151.58 Z" />
<path fill="#d7a475" opacity="1.00" d=" M 38.88 150.04 C 40.20 149.54 41.51 149.04 42.83 148.52 C 46.36 150.25 50.08 152.33 51.40 156.32 C 51.50 157.26 51.58 158.22 51.63 159.17 C 50.29 160.09 48.97 161.01 47.64 161.94 C 44.53 158.12 41.42 154.27 38.88 150.04 Z" />
<path fill="#ce8565" opacity="1.00" d=" M 69.17 151.87 C 69.46 151.45 70.04 150.62 70.33 150.20 L 70.35 151.73 C 71.16 151.67 72.76 151.55 73.56 151.48 C 75.61 155.60 78.40 159.27 80.87 163.13 C 79.97 164.59 78.95 165.97 77.78 167.23 C 78.37 160.69 73.80 155.74 69.17 151.87 Z" />
<path fill="#e2b17d" opacity="1.00" d=" M 36.55 151.02 C 39.12 154.38 39.22 158.86 40.67 162.71 C 38.06 162.55 35.73 160.86 33.08 161.14 C 29.97 163.07 32.00 167.43 31.52 170.41 C 29.68 166.20 29.04 161.60 28.59 157.06 C 31.95 156.77 35.40 160.90 38.39 158.21 C 37.97 155.77 37.06 153.44 36.55 151.02 Z" />
<path fill="#d6a375" opacity="1.00" d=" M 61.65 153.77 C 63.17 152.89 64.82 152.15 66.62 152.31 C 67.70 153.41 68.72 154.57 69.76 155.72 C 68.28 158.25 67.32 161.02 67.15 163.96 C 66.19 166.05 64.78 167.90 63.38 169.71 C 61.64 169.10 59.91 168.49 58.16 167.93 C 58.13 163.06 58.49 157.74 61.65 153.77 Z" />
<path fill="#ce956e" opacity="1.00" d=" M 47.64 161.94 C 48.97 161.01 50.29 160.09 51.63 159.17 C 51.90 162.16 52.29 165.14 52.49 168.15 C 50.44 171.56 50.05 175.87 47.04 178.72 C 44.40 180.70 41.54 182.88 38.05 182.69 C 39.66 180.51 41.53 178.44 42.46 175.85 C 43.89 171.86 44.17 167.55 45.88 163.65 C 47.39 165.46 48.44 167.81 50.63 168.91 C 51.26 166.10 49.12 164.03 47.64 161.94 Z" />
<path fill="#bc775d" opacity="1.00" d=" M 67.15 163.96 C 68.57 164.70 69.92 165.57 71.21 166.52 C 70.09 168.64 69.21 170.88 68.49 173.18 C 66.82 171.97 65.07 170.86 63.29 169.82 L 63.38 169.71 C 64.78 167.90 66.19 166.05 67.15 163.96 Z" />
<path fill="#9c4141" opacity="1.00" d=" M 71.21 166.52 C 76.76 173.31 81.75 180.84 84.00 189.42 L 82.90 189.16 C 80.03 187.25 76.43 184.60 76.20 180.79 C 74.30 177.67 71.23 175.51 68.49 173.18 C 69.21 170.88 70.09 168.64 71.21 166.52 Z" />
<path fill="#a24646" opacity="1.00" d=" M 38.05 182.69 C 41.54 182.88 44.40 180.70 47.04 178.72 C 45.18 182.14 42.92 185.34 40.20 188.14 C 41.71 187.32 43.23 186.49 44.72 185.64 C 44.70 186.95 44.69 188.26 44.62 189.57 C 42.43 189.97 40.59 191.63 38.51 192.03 C 38.44 191.47 38.30 190.36 38.23 189.81 C 36.61 189.82 34.49 188.56 33.33 190.21 C 30.30 193.77 28.36 199.29 23.04 199.89 C 24.73 197.16 28.64 196.83 30.07 193.80 C 30.94 191.08 31.07 188.20 31.63 185.42 C 33.12 186.89 35.00 186.80 36.81 186.11 C 37.12 184.98 36.28 182.80 38.05 182.69 Z" />
<path fill="#cf996e" opacity="1.00" d=" M 66.99 179.46 C 69.99 180.67 72.33 182.98 74.91 184.85 L 74.90 185.09 C 74.87 186.55 74.82 188.01 74.76 189.48 C 74.74 193.94 70.99 199.69 65.93 198.16 C 67.88 196.59 70.62 194.95 70.26 192.02 C 69.68 187.72 67.80 183.72 66.99 179.46 Z" />
<path fill="#ac564c" opacity="1.00" d=" M 84.74 192.85 C 89.30 191.50 90.08 185.91 93.78 183.36 C 95.63 186.20 96.85 189.40 98.81 192.17 C 100.62 194.66 103.66 195.59 106.34 196.81 C 105.71 196.87 104.44 197.00 103.80 197.06 C 101.82 197.11 99.86 196.70 97.91 196.43 C 97.17 193.66 95.70 190.81 92.84 189.76 C 90.94 189.85 90.08 191.79 88.90 192.98 C 87.46 195.48 84.21 194.59 81.85 195.37 C 79.57 193.31 77.64 190.76 74.76 189.48 C 74.82 188.01 74.87 186.55 74.90 185.09 C 77.46 187.21 79.89 189.48 82.55 191.47 C 82.64 190.89 82.82 189.74 82.90 189.16 L 84.00 189.42 C 84.34 190.54 84.58 191.68 84.74 192.85 Z" />
<path fill="#b16551" opacity="1.00" d=" M 44.72 185.64 C 45.95 185.34 48.39 183.67 48.68 185.97 C 47.87 188.45 47.16 190.99 47.32 193.63 C 48.46 195.08 49.11 196.79 49.55 198.56 C 48.43 198.42 47.32 198.29 46.20 198.14 C 45.38 196.76 44.53 195.39 43.68 194.03 C 44.17 192.59 44.65 191.12 44.62 189.57 C 44.69 188.26 44.70 186.95 44.72 185.64 Z" />
<path fill="#cf906a" opacity="1.00" d=" M 115.28 195.22 C 118.17 193.78 119.16 190.45 121.61 188.53 C 121.74 191.60 121.42 194.69 120.46 197.63 C 114.91 197.76 109.33 197.58 103.80 197.06 C 104.44 197.00 105.71 196.87 106.34 196.81 C 109.35 196.57 112.62 197.00 115.28 195.22 Z" />
</svg>
