<?xml version="1.0" encoding="UTF-8" ?>
<!DOCTYPE svg PUBLIC "-//W3C//DTD SVG 1.1//EN" "http://www.w3.org/Graphics/SVG/1.1/DTD/svg11.dtd">
<svg width="364pt" height="216pt" viewBox="0 0 364 216" version="1.1" xmlns="http://www.w3.org/2000/svg">
<path fill="#000000" opacity="1.00" d=" M 316.57 18.47 C 320.63 13.20 324.06 7.32 329.00 2.80 C 330.73 2.68 332.03 4.15 333.49 4.86 C 331.89 15.41 329.53 25.81 327.28 36.23 C 324.67 48.63 322.99 61.21 320.07 73.55 C 324.59 74.52 329.10 75.80 333.03 78.32 C 334.95 77.97 336.90 77.69 338.85 77.53 C 344.91 73.08 351.83 70.08 358.23 66.20 C 359.21 65.40 360.43 65.27 361.64 65.53 C 357.50 77.90 350.71 89.20 346.27 101.47 C 343.50 108.39 341.87 115.78 338.18 122.31 C 341.06 123.00 344.82 122.71 346.83 125.19 C 346.78 125.57 346.68 126.35 346.63 126.74 C 339.97 138.40 329.64 147.52 323.34 159.41 C 319.52 165.57 314.71 171.09 311.37 177.55 C 308.92 181.54 307.00 185.82 304.70 189.88 C 302.39 193.74 297.76 194.79 293.85 196.25 C 306.10 198.02 318.37 199.81 330.53 202.16 C 334.18 203.03 338.46 203.57 340.76 206.94 C 339.41 208.20 337.97 209.55 336.05 209.81 C 325.85 212.08 315.34 211.28 305.00 212.13 C 295.67 212.70 286.26 211.99 276.99 213.38 C 269.66 213.66 262.31 213.40 254.98 213.49 C 248.02 213.37 241.02 213.93 234.12 212.74 C 210.85 211.88 187.60 210.69 164.38 208.93 C 147.68 207.89 131.27 203.83 114.51 203.52 C 113.76 202.36 114.32 201.09 114.95 200.05 C 119.91 191.64 125.45 183.57 130.03 174.95 C 133.78 168.16 136.38 160.84 139.83 153.91 C 139.34 153.43 138.36 152.48 137.88 152.01 C 144.18 145.27 152.18 140.25 158.26 133.26 C 160.10 131.08 161.97 128.91 164.05 126.96 C 164.19 125.68 164.32 124.40 164.45 123.12 C 163.47 121.13 162.59 119.09 161.80 117.02 C 154.80 119.36 147.95 122.11 141.07 124.78 C 135.87 127.76 131.52 122.30 127.46 119.83 C 127.59 121.59 127.72 123.36 127.85 125.12 C 129.42 126.73 131.76 127.90 132.69 129.97 C 128.11 138.62 121.64 146.08 115.27 153.44 C 111.00 156.73 107.07 160.42 102.98 163.94 C 103.75 166.27 104.70 168.57 104.98 171.03 C 103.39 172.97 100.82 173.65 98.66 174.74 C 87.75 179.32 76.95 184.31 67.09 190.91 C 58.78 177.71 47.19 167.05 37.09 155.28 C 35.07 155.47 33.06 155.68 31.06 155.93 C 24.99 152.14 20.97 146.05 16.23 140.85 C 12.17 135.62 6.85 131.37 3.43 125.65 C 0.63 121.48 4.32 116.94 6.67 113.54 C 15.93 102.24 26.51 92.10 37.06 82.03 C 40.96 78.83 44.57 74.53 49.88 73.92 C 51.20 73.80 53.09 72.40 54.05 73.95 C 55.59 76.43 56.49 79.24 57.69 81.89 C 59.39 79.28 61.63 77.12 63.79 74.91 C 67.21 70.57 69.22 65.27 73.02 61.20 C 77.10 64.32 78.89 69.33 81.32 73.67 C 83.70 78.10 85.39 82.86 87.79 87.27 C 98.03 96.39 107.66 106.22 116.94 116.31 C 117.24 114.81 117.54 113.30 117.84 111.80 C 109.86 106.32 106.29 96.89 102.47 88.41 C 100.14 83.99 103.24 79.23 105.53 75.49 C 110.20 68.95 115.01 62.45 120.48 56.55 C 138.88 38.00 162.24 23.41 188.06 18.32 C 192.52 19.06 196.31 21.79 200.04 24.18 C 209.96 31.12 219.55 38.76 227.46 47.97 C 230.38 49.87 234.84 51.12 235.57 54.93 C 234.61 60.29 231.63 65.06 229.36 69.96 C 236.38 74.13 243.10 78.77 249.94 83.23 C 252.89 84.93 255.88 86.58 258.46 88.83 C 261.69 81.71 263.60 74.07 266.86 66.96 C 271.74 65.16 276.77 63.75 281.94 63.07 C 293.47 48.20 305.58 33.76 316.57 18.47 M 310.74 30.21 C 302.29 41.45 293.45 52.40 284.40 63.18 C 282.43 65.00 279.87 65.87 277.25 66.25 C 276.95 66.40 276.33 66.70 276.03 66.85 C 273.51 67.18 271.07 67.86 268.65 68.59 C 265.74 76.26 263.18 84.06 260.30 91.74 C 254.57 107.64 248.82 123.53 243.39 139.53 C 242.06 143.30 239.30 146.34 236.50 149.09 C 236.38 149.33 236.14 149.83 236.02 150.08 C 233.39 148.38 230.80 146.62 228.13 144.99 C 228.30 145.84 228.64 147.53 228.81 148.38 C 228.31 148.50 227.32 148.73 226.83 148.85 C 225.07 154.06 222.75 159.11 219.36 163.48 C 218.51 164.59 217.68 165.70 216.84 166.82 C 221.33 167.45 225.83 167.94 230.31 168.63 C 232.76 165.48 232.67 160.83 235.93 158.32 C 235.73 162.10 234.42 165.68 233.64 169.35 L 233.30 169.55 C 233.07 171.16 232.85 172.77 232.63 174.38 L 232.32 174.51 C 229.21 184.55 225.84 194.54 221.87 204.27 C 225.21 206.36 228.87 204.55 232.42 204.32 C 237.97 203.78 243.55 202.72 248.82 200.93 C 254.90 199.87 260.85 198.22 266.93 197.23 C 270.78 196.46 274.80 196.49 278.48 194.99 C 286.62 194.98 294.96 194.01 302.37 190.40 C 306.42 180.25 312.54 171.13 317.26 161.30 C 325.85 149.28 336.28 138.63 344.12 126.05 C 341.58 125.40 339.05 124.73 336.52 124.07 C 337.01 116.39 341.55 109.63 343.10 102.14 C 347.54 91.10 352.88 80.46 357.57 69.54 C 351.85 72.24 346.41 75.48 340.80 78.39 L 340.64 78.74 C 337.86 79.27 335.13 80.93 332.30 80.60 C 328.47 78.57 324.43 77.07 320.34 75.69 C 317.94 75.13 318.23 72.51 317.97 70.62 C 319.76 65.59 320.09 60.10 321.25 54.88 C 323.93 38.52 328.05 22.45 331.02 6.15 C 330.49 5.64 329.44 4.64 328.91 4.13 C 323.65 13.35 316.92 21.61 310.74 30.21 M 179.87 22.65 C 176.96 23.15 174.28 24.47 171.49 25.37 C 163.20 28.93 154.67 32.48 147.54 38.10 C 143.08 40.13 139.31 43.38 135.42 46.31 C 124.47 54.77 115.03 65.13 107.46 76.71 C 106.24 79.11 103.64 81.58 104.64 84.49 C 106.49 89.97 109.29 95.05 111.71 100.29 C 113.02 102.84 114.05 105.73 116.39 107.56 C 120.79 110.96 124.97 114.64 129.39 118.03 C 131.92 119.87 134.51 121.62 137.13 123.33 C 144.21 120.91 151.08 117.89 158.14 115.41 C 163.20 113.22 168.79 112.06 173.43 109.04 C 176.96 109.06 180.17 106.49 183.69 107.47 C 182.17 108.24 180.71 109.12 179.27 110.03 C 174.03 111.74 169.09 114.29 163.89 116.12 C 164.82 118.58 165.96 120.95 167.31 123.21 C 167.36 123.61 167.45 124.41 167.50 124.81 C 166.63 126.10 165.84 127.45 165.15 128.85 C 163.84 130.43 162.37 131.92 161.45 133.78 C 159.48 136.68 156.47 138.54 153.98 140.93 C 151.11 143.43 148.76 146.50 145.49 148.52 C 144.06 148.65 143.66 150.10 143.27 151.23 C 149.18 150.80 153.38 146.13 158.39 143.51 C 161.66 141.99 163.93 139.07 167.09 137.41 C 172.33 137.09 177.29 134.22 182.64 135.49 C 185.31 136.96 188.14 138.09 191.03 139.03 C 196.26 141.55 201.51 144.31 207.13 145.81 C 207.50 146.00 208.24 146.39 208.60 146.58 C 208.74 146.98 209.01 147.77 209.14 148.17 L 209.34 149.91 C 207.78 149.59 206.29 149.03 204.87 148.34 C 202.77 151.02 200.22 153.31 198.22 156.06 C 197.75 158.42 200.95 159.20 202.30 160.52 C 204.62 162.88 206.11 165.86 207.47 168.84 C 212.03 179.22 216.06 190.26 215.43 201.78 C 217.40 202.23 219.36 202.75 221.26 203.46 C 221.11 201.04 221.55 198.65 221.97 196.29 C 225.77 188.15 228.16 179.39 230.64 170.78 C 226.07 170.75 221.53 170.15 217.05 169.30 C 215.51 169.16 214.29 168.18 213.11 167.30 C 218.43 160.83 223.25 153.61 224.94 145.26 C 222.10 142.29 218.83 139.76 215.25 137.75 C 213.88 140.19 212.40 142.56 210.74 144.82 C 209.53 144.40 208.31 143.98 207.10 143.57 C 203.60 137.44 200.71 130.48 194.84 126.21 C 194.13 124.52 193.31 122.88 192.36 121.31 C 193.60 120.35 194.83 119.38 196.05 118.41 C 201.37 114.15 207.48 110.37 211.03 104.40 C 214.56 101.25 216.52 96.85 218.89 92.86 C 220.17 90.36 221.92 88.05 222.72 85.34 C 221.70 83.80 220.44 82.45 219.22 81.08 C 218.11 79.75 217.05 78.39 216.07 76.98 C 215.18 75.02 213.22 76.27 211.70 76.45 C 209.34 71.66 207.89 65.12 211.59 60.62 C 213.09 60.10 214.72 60.39 216.27 60.10 C 218.17 60.99 220.73 61.09 221.97 63.01 C 223.41 65.14 225.01 67.17 227.12 68.69 C 229.37 64.30 231.71 59.86 232.97 55.07 C 231.05 52.27 227.60 51.06 225.23 48.67 C 223.01 45.65 219.99 43.32 217.22 40.82 C 214.37 38.35 211.45 35.98 208.49 33.64 C 202.49 28.75 196.22 23.93 189.07 20.84 C 185.94 19.31 182.75 21.55 179.87 22.65 M 212.82 74.38 C 213.65 74.13 215.29 73.63 216.11 73.39 C 225.12 84.12 233.53 95.33 242.12 106.38 C 244.52 109.65 246.85 112.96 248.94 116.44 C 249.91 113.52 250.92 110.61 251.90 107.69 C 253.92 102.12 255.90 96.54 258.01 91.00 C 251.94 87.97 246.63 83.74 240.90 80.17 C 234.43 76.05 228.07 71.77 221.70 67.51 C 221.68 66.35 221.66 65.19 221.63 64.03 C 219.15 63.43 216.67 62.84 214.20 62.23 C 210.29 64.85 211.99 70.54 212.82 74.38 M 70.69 69.20 C 70.26 70.22 69.80 71.22 69.32 72.21 C 68.56 73.22 67.59 74.18 67.31 75.45 C 65.37 77.30 63.90 79.56 62.51 81.84 C 61.18 83.80 59.59 85.59 57.64 86.97 C 58.05 88.09 58.46 89.20 58.87 90.32 C 60.78 95.93 63.07 101.58 66.79 106.24 C 74.62 109.67 84.76 111.58 92.07 105.89 C 92.76 103.71 91.28 101.51 90.77 99.41 L 90.42 99.41 C 88.62 95.29 86.57 91.29 84.86 87.13 L 84.53 87.30 C 84.07 86.11 83.61 84.91 83.15 83.72 L 82.88 83.55 C 80.42 77.01 77.03 70.85 73.48 64.85 C 72.42 66.21 71.46 67.65 70.69 69.20 M 42.98 79.75 L 43.39 80.39 C 41.85 81.42 40.36 82.55 39.14 83.97 C 34.61 88.31 29.85 92.41 25.56 96.99 C 23.08 99.01 21.18 101.63 18.90 103.86 C 14.07 109.08 8.75 114.07 5.53 120.51 L 5.25 120.52 C 4.73 124.71 8.04 127.69 10.58 130.51 C 13.98 134.03 17.06 137.84 20.28 141.53 C 20.73 141.99 21.64 142.92 22.10 143.38 C 24.76 146.97 27.63 150.48 31.07 153.34 C 33.99 153.71 37.34 152.29 39.80 154.51 C 47.40 163.20 55.54 171.40 62.85 180.34 C 64.68 182.74 66.43 185.20 68.07 187.74 C 70.73 185.82 73.48 184.02 76.26 182.26 C 84.79 177.72 93.74 174.05 102.56 170.12 C 97.45 157.22 92.44 144.28 87.25 131.40 C 84.93 124.82 81.87 118.53 78.81 112.26 C 77.15 111.84 75.49 111.43 73.83 111.00 C 69.45 109.48 63.66 109.41 61.08 104.93 C 58.73 100.38 56.88 95.58 55.14 90.78 C 54.11 88.57 55.14 86.27 55.82 84.14 C 54.82 81.22 53.63 78.37 52.29 75.59 C 49.26 77.14 45.91 77.99 42.98 79.75 M 224.17 87.77 C 221.54 93.14 218.72 98.45 215.33 103.38 C 210.31 110.69 203.18 116.18 196.00 121.22 C 196.50 126.63 201.04 130.02 203.75 134.32 C 205.84 137.25 207.16 140.60 208.77 143.80 C 210.57 141.14 211.79 138.05 214.05 135.73 C 218.89 135.18 222.46 139.76 225.91 142.59 C 229.85 142.28 232.63 145.29 235.86 146.80 C 237.82 145.32 239.50 143.38 240.18 140.99 C 242.69 133.32 245.58 125.79 248.00 118.10 C 241.59 109.46 234.93 101.03 228.37 92.52 C 227.11 90.81 225.78 89.15 224.17 87.77 M 90.56 93.39 C 92.38 97.70 94.86 101.87 95.09 106.67 L 93.59 106.51 L 94.54 107.40 C 91.91 109.25 88.52 110.05 86.48 112.67 C 84.93 112.76 83.38 112.84 81.84 112.91 C 82.80 114.91 83.62 117.01 84.94 118.80 C 86.64 123.74 89.02 128.41 90.81 133.32 C 94.33 142.87 98.25 152.27 101.84 161.81 C 112.80 152.80 121.11 141.25 129.47 129.94 C 123.87 125.27 117.48 121.41 112.96 115.57 L 112.69 115.64 C 107.42 109.14 101.00 103.73 95.26 97.68 C 93.81 96.12 92.24 94.68 90.56 93.39 M 119.78 113.62 C 119.57 115.12 119.37 116.63 119.16 118.13 C 121.08 120.02 123.10 121.81 125.32 123.34 C 125.24 121.59 125.38 119.78 124.89 118.07 C 123.53 116.24 121.55 115.01 119.78 113.62 M 168.11 139.54 C 165.48 142.34 162.20 144.37 158.86 146.21 C 161.90 150.21 166.21 154.35 165.81 159.77 C 162.75 162.12 158.68 163.03 155.87 165.85 C 161.12 172.12 168.99 179.22 165.58 188.33 C 180.94 188.36 196.30 188.29 211.66 188.49 C 209.77 181.24 206.86 174.31 203.85 167.47 C 202.90 165.16 201.45 163.07 199.32 161.73 C 197.36 160.19 193.85 158.43 195.37 155.38 C 197.31 152.33 200.23 150.08 202.32 147.14 C 196.18 144.38 190.03 141.66 183.93 138.84 C 178.95 136.16 173.15 138.08 168.11 139.54 M 144.30 153.37 C 143.87 153.38 143.01 153.39 142.58 153.39 C 140.47 158.34 138.17 163.23 136.48 168.34 L 136.16 168.49 C 130.96 180.00 123.80 190.45 117.29 201.23 C 121.97 201.36 126.64 200.89 131.31 200.60 C 134.91 200.46 138.47 199.93 142.03 199.38 C 147.27 198.84 152.53 198.27 157.73 197.40 C 160.41 194.06 162.42 190.01 163.53 185.86 C 164.91 179.72 160.06 174.84 156.40 170.62 C 155.23 168.99 153.06 167.30 153.65 165.09 C 155.95 161.55 160.15 160.19 163.54 157.99 C 161.82 154.16 159.17 150.88 157.07 147.28 C 152.99 149.67 149.24 153.05 144.30 153.37 M 240.83 205.41 C 241.76 207.39 244.23 206.48 245.94 206.72 C 253.10 206.44 260.27 206.82 267.42 206.28 C 266.87 204.19 266.25 202.13 265.57 200.09 C 257.29 201.70 249.08 203.65 240.83 205.41 Z" />
<path fill="#7f595e" opacity="1.00" d=" M 310.74 30.21 C 316.92 21.61 323.65 13.35 328.91 4.13 C 329.44 4.64 330.49 5.64 331.02 6.15 C 328.05 22.45 323.93 38.52 321.25 54.88 C 320.09 60.10 319.76 65.59 317.97 70.62 C 311.34 79.03 310.71 91.39 301.77 98.03 C 301.32 96.97 300.89 95.90 300.47 94.84 C 300.63 89.20 300.83 83.55 300.59 77.91 C 300.62 76.25 299.83 74.77 299.07 73.36 C 299.14 72.27 299.22 71.18 299.29 70.09 C 299.95 64.73 302.32 59.80 303.64 54.60 C 305.29 48.18 307.46 41.91 309.80 35.71 C 310.50 33.96 310.86 32.09 310.74 30.21 Z" />
<path fill="#64363b" opacity="1.00" d=" M 179.87 22.65 C 182.75 21.55 185.94 19.31 189.07 20.84 C 196.22 23.93 202.49 28.75 208.49 33.64 C 205.51 33.45 202.52 33.29 199.53 33.26 C 198.96 33.25 197.82 33.23 197.25 33.23 C 196.63 37.81 197.32 42.39 197.34 46.97 C 196.81 52.23 196.35 57.50 195.66 62.74 C 194.98 67.28 194.01 71.77 193.29 76.30 C 190.41 79.69 187.38 82.96 184.63 86.46 C 183.01 86.57 181.40 86.68 179.79 86.80 C 185.86 72.79 184.88 56.86 181.84 42.23 C 181.95 41.66 182.16 40.50 182.27 39.93 C 183.28 41.79 184.27 43.66 185.28 45.52 C 186.05 41.38 186.57 37.15 186.22 32.93 C 186.37 28.90 181.88 27.50 179.27 25.35 C 180.16 24.56 181.05 23.78 181.93 22.98 C 181.41 22.90 180.38 22.73 179.87 22.65 Z" />
<path fill="#6d4448" opacity="1.00" d=" M 171.49 25.37 C 174.28 24.47 176.96 23.15 179.87 22.65 C 180.38 22.73 181.41 22.90 181.93 22.98 C 181.05 23.78 180.16 24.56 179.27 25.35 C 181.88 27.50 186.37 28.90 186.22 32.93 C 186.57 37.15 186.05 41.38 185.28 45.52 C 184.27 43.66 183.28 41.79 182.27 39.93 C 182.16 40.50 181.95 41.66 181.84 42.23 C 180.47 38.65 178.85 35.18 177.13 31.76 C 175.81 31.96 174.48 32.16 173.16 32.36 C 172.79 32.29 172.03 32.16 171.65 32.09 C 172.82 29.85 173.54 27.36 171.49 25.37 Z" />
<path fill="#765054" opacity="1.00" d=" M 147.54 38.10 C 154.67 32.48 163.20 28.93 171.49 25.37 C 173.54 27.36 172.82 29.85 171.65 32.09 C 172.03 32.16 172.79 32.29 173.16 32.36 C 164.58 34.09 156.16 36.56 147.54 38.10 Z" />
<path fill="#9b8787" opacity="1.00" d=" M 310.74 30.21 C 310.86 32.09 310.50 33.96 309.80 35.71 C 307.46 41.91 305.29 48.18 303.64 54.60 C 302.32 59.80 299.95 64.73 299.29 70.09 C 296.66 71.93 293.76 73.54 290.44 73.39 C 289.23 69.57 286.93 66.25 284.40 63.18 C 293.45 52.40 302.29 41.45 310.74 30.21 Z" />
<path fill="#9b8888" opacity="1.00" d=" M 173.16 32.36 C 174.48 32.16 175.81 31.96 177.13 31.76 C 178.85 35.18 180.47 38.65 181.84 42.23 C 184.88 56.86 185.86 72.79 179.79 86.80 C 176.67 90.35 172.26 92.29 168.37 94.83 C 167.47 92.04 166.34 89.22 163.81 87.52 C 165.89 86.08 167.94 84.56 170.23 83.46 C 170.64 83.25 171.45 82.82 171.86 82.61 C 174.00 81.67 174.18 79.07 174.55 77.07 C 175.60 69.92 172.33 63.11 168.90 57.07 C 168.03 55.20 166.15 54.34 164.19 54.09 C 165.63 56.38 167.25 58.58 168.41 61.04 C 168.34 61.48 168.20 62.35 168.13 62.78 C 161.35 66.40 153.56 67.33 146.51 70.30 C 147.15 68.82 146.95 67.36 145.52 66.51 C 141.77 63.66 137.08 62.49 132.72 60.90 C 137.25 58.46 142.47 57.15 146.33 53.58 C 139.59 54.72 133.57 58.15 127.90 61.79 C 122.60 64.65 117.88 68.40 113.18 72.12 C 111.00 73.82 109.33 76.05 107.77 78.30 C 107.69 77.90 107.54 77.11 107.46 76.71 C 115.03 65.13 124.47 54.77 135.42 46.31 C 139.31 43.38 143.08 40.13 147.54 38.10 C 156.16 36.56 164.58 34.09 173.16 32.36 M 148.26 53.58 C 153.83 53.37 159.24 54.72 164.74 55.28 C 160.44 51.79 152.95 49.96 148.26 53.58 Z" />
<path fill="#ffffce" opacity="1.00" d=" M 197.25 33.23 C 197.82 33.23 198.96 33.25 199.53 33.26 C 199.92 34.03 200.31 34.82 200.69 35.60 C 201.14 36.56 201.59 37.52 202.05 38.48 C 201.40 38.15 200.12 37.49 199.47 37.16 C 199.48 46.66 198.65 56.21 196.25 65.43 C 196.03 64.54 195.83 63.64 195.66 62.74 C 196.35 57.50 196.81 52.23 197.34 46.97 C 197.32 42.39 196.63 37.81 197.25 33.23 Z" />
<path fill="#785357" opacity="1.00" d=" M 199.53 33.26 C 202.52 33.29 205.51 33.45 208.49 33.64 C 211.45 35.98 214.37 38.35 217.22 40.82 C 216.24 43.04 215.27 45.26 214.12 47.39 C 209.26 43.87 206.04 38.46 200.69 35.60 C 200.31 34.82 199.92 34.03 199.53 33.26 Z" />
<path fill="#9b8888" opacity="1.00" d=" M 200.69 35.60 C 206.04 38.46 209.26 43.87 214.12 47.39 C 211.33 52.80 207.36 57.41 203.50 62.07 C 199.70 66.52 196.81 71.64 193.29 76.30 C 194.01 71.77 194.98 67.28 195.66 62.74 C 195.83 63.64 196.03 64.54 196.25 65.43 C 198.65 56.21 199.48 46.66 199.47 37.16 C 200.12 37.49 201.40 38.15 202.05 38.48 C 201.59 37.52 201.14 36.56 200.69 35.60 Z" />
<path fill="#5c2a31" opacity="1.00" d=" M 217.22 40.82 C 219.99 43.32 223.01 45.65 225.23 48.67 C 226.22 52.57 225.92 56.69 224.19 60.33 C 222.70 59.77 221.21 59.20 219.72 58.65 C 218.58 59.15 217.43 59.63 216.27 60.10 C 214.72 60.39 213.09 60.10 211.59 60.62 C 207.89 65.12 209.34 71.66 211.70 76.45 C 213.22 76.27 215.18 75.02 216.07 76.98 C 214.46 77.16 212.85 77.33 211.23 77.42 C 210.73 77.45 209.72 77.50 209.22 77.53 C 206.89 79.78 204.49 82.51 200.91 82.24 C 202.42 79.42 204.21 76.76 206.10 74.18 C 203.72 73.22 201.31 72.31 198.89 71.47 C 200.52 68.39 203.77 65.85 203.50 62.07 C 207.36 57.41 211.33 52.80 214.12 47.39 C 215.27 45.26 216.24 43.04 217.22 40.82 Z" />
<path fill="#64343a" opacity="1.00" d=" M 225.23 48.67 C 227.60 51.06 231.05 52.27 232.97 55.07 C 231.71 59.86 229.37 64.30 227.12 68.69 C 225.01 67.17 223.41 65.14 221.97 63.01 C 220.73 61.09 218.17 60.99 216.27 60.10 C 217.43 59.63 218.58 59.15 219.72 58.65 C 221.21 59.20 222.70 59.77 224.19 60.33 C 225.92 56.69 226.22 52.57 225.23 48.67 Z" />
<path fill="#000000" opacity="1.00" d=" M 148.26 53.58 C 152.95 49.96 160.44 51.79 164.74 55.28 C 159.24 54.72 153.83 53.37 148.26 53.58 Z" />
<path fill="#020102" opacity="1.00" d=" M 127.90 61.79 C 133.57 58.15 139.59 54.72 146.33 53.58 C 142.47 57.15 137.25 58.46 132.72 60.90 C 137.08 62.49 141.77 63.66 145.52 66.51 C 146.95 67.36 147.15 68.82 146.51 70.30 C 145.65 72.11 144.69 73.87 143.77 75.65 C 144.89 76.64 146.01 77.63 147.13 78.63 C 145.19 80.00 143.19 81.29 141.18 82.55 C 142.96 85.41 144.24 88.58 144.57 91.96 C 144.84 93.74 145.10 95.52 145.37 97.30 C 142.58 100.47 138.58 102.09 134.67 103.39 C 130.45 104.66 126.14 106.01 121.68 105.68 C 121.03 103.04 120.32 100.42 119.55 97.82 C 120.27 97.03 120.98 96.25 121.70 95.46 C 121.52 93.44 121.34 91.42 121.18 89.39 C 119.64 90.22 118.10 91.04 116.55 91.84 C 116.15 90.79 115.76 89.74 115.37 88.69 C 111.63 86.31 108.76 82.68 107.77 78.30 C 109.33 76.05 111.00 73.82 113.18 72.12 C 117.88 68.40 122.60 64.65 127.90 61.79 M 127.29 64.25 C 123.55 66.92 119.84 69.63 116.19 72.41 L 116.49 72.37 C 114.18 73.82 112.07 75.66 110.56 77.95 C 110.34 79.79 111.55 81.31 112.33 82.86 C 114.03 84.81 115.93 86.57 117.77 88.39 L 115.89 89.44 C 118.06 89.55 120.16 89.08 122.20 88.39 C 122.45 88.66 122.94 89.20 123.19 89.47 C 122.95 92.45 124.41 96.11 121.80 98.40 C 122.13 99.53 122.47 100.67 122.82 101.80 C 123.05 102.46 123.50 103.79 123.73 104.45 C 129.24 103.37 134.59 101.67 139.85 99.72 L 139.82 99.64 C 141.39 98.61 143.95 97.40 143.08 95.03 C 142.37 91.44 142.64 87.34 140.00 84.47 C 138.91 84.27 137.82 84.06 136.73 83.84 C 138.54 81.25 141.80 80.40 144.45 78.94 C 143.51 77.96 142.57 76.99 141.63 76.01 C 142.87 73.71 144.04 71.37 145.16 69.01 C 140.89 66.19 136.18 64.11 131.22 62.84 C 129.86 63.17 128.40 63.34 127.29 64.25 Z" />
<path fill="#000000" opacity="1.00" d=" M 164.19 54.09 C 166.15 54.34 168.03 55.20 168.90 57.07 C 172.33 63.11 175.60 69.92 174.55 77.07 C 174.18 79.07 174.00 81.67 171.86 82.61 C 172.63 77.78 172.83 72.73 171.31 68.02 C 170.44 65.65 169.48 63.32 168.41 61.04 C 167.25 58.58 165.63 56.38 164.19 54.09 Z" />
<path fill="#7d555b" opacity="1.00" d=" M 168.41 61.04 C 169.48 63.32 170.44 65.65 171.31 68.02 C 165.02 66.15 158.33 67.51 152.89 71.03 C 150.97 73.05 150.77 76.45 152.21 78.81 C 153.41 81.06 155.76 82.26 157.86 83.50 C 153.60 84.72 149.58 82.85 145.82 81.09 C 146.73 82.47 147.23 84.37 148.79 85.17 C 150.92 85.86 153.17 86.04 155.36 86.46 C 151.82 88.46 147.04 88.34 144.57 91.96 C 144.24 88.58 142.96 85.41 141.18 82.55 C 143.19 81.29 145.19 80.00 147.13 78.63 C 146.01 77.63 144.89 76.64 143.77 75.65 C 144.69 73.87 145.65 72.11 146.51 70.30 C 153.56 67.33 161.35 66.40 168.13 62.78 C 168.20 62.35 168.34 61.48 168.41 61.04 Z" />
<path fill="#998585" opacity="1.00" d=" M 127.29 64.25 C 128.40 63.34 129.86 63.17 131.22 62.84 C 132.21 64.66 133.21 66.47 134.22 68.28 C 127.75 71.39 124.24 78.20 121.78 84.60 C 122.34 84.33 123.47 83.78 124.03 83.51 L 126.19 84.26 C 126.25 84.00 126.36 83.49 126.41 83.23 C 129.15 82.55 131.68 81.27 133.96 79.64 C 133.74 80.16 133.29 81.20 133.06 81.72 C 128.35 84.77 122.74 85.87 117.77 88.39 C 115.93 86.57 114.03 84.81 112.33 82.86 C 113.85 79.14 115.24 75.31 117.89 72.21 L 116.49 72.37 L 116.19 72.41 C 119.84 69.63 123.55 66.92 127.29 64.25 Z" />
<path fill="#75484e" opacity="1.00" d=" M 131.22 62.84 C 136.18 64.11 140.89 66.19 145.16 69.01 C 144.04 71.37 142.87 73.71 141.63 76.01 C 142.57 76.99 143.51 77.96 144.45 78.94 C 141.80 80.40 138.54 81.25 136.73 83.84 C 136.41 84.28 135.76 85.17 135.44 85.61 C 134.96 85.08 134.49 84.54 134.02 84.01 C 133.07 84.53 132.11 85.06 131.16 85.58 C 131.62 86.83 132.07 88.09 132.55 89.34 C 132.09 91.27 131.77 93.24 131.75 95.23 C 131.11 91.92 131.35 88.03 128.78 85.48 C 128.89 88.51 129.58 91.49 129.61 94.52 C 129.13 94.87 128.17 95.58 127.68 95.94 C 127.43 92.78 127.37 89.60 127.24 86.44 C 126.05 87.84 124.94 89.37 124.73 91.26 C 124.34 90.81 123.57 89.92 123.19 89.47 C 122.94 89.20 122.45 88.66 122.20 88.39 C 120.16 89.08 118.06 89.55 115.89 89.44 L 117.77 88.39 C 122.74 85.87 128.35 84.77 133.06 81.72 C 133.29 81.20 133.74 80.16 133.96 79.64 C 134.78 77.79 135.79 75.99 136.19 73.99 C 136.52 71.87 135.10 70.07 134.22 68.28 C 133.21 66.47 132.21 64.66 131.22 62.84 Z" />
<path fill="#531f27" opacity="1.00" d=" M 193.29 76.30 C 196.81 71.64 199.70 66.52 203.50 62.07 C 203.77 65.85 200.52 68.39 198.89 71.47 C 201.31 72.31 203.72 73.22 206.10 74.18 C 204.21 76.76 202.42 79.42 200.91 82.24 C 204.49 82.51 206.89 79.78 209.22 77.53 C 209.72 77.50 210.73 77.45 211.23 77.42 C 206.49 83.90 207.03 92.67 202.25 99.17 C 203.97 93.54 206.58 88.18 207.42 82.30 C 204.12 84.45 201.93 87.75 200.15 91.18 C 197.55 95.88 194.75 100.47 191.90 105.02 C 191.31 105.97 190.71 106.90 190.12 107.84 C 188.67 107.39 187.22 106.94 185.77 106.48 C 185.07 106.80 184.38 107.12 183.69 107.47 C 180.17 106.49 176.96 109.06 173.43 109.04 C 174.98 107.71 176.51 106.39 178.12 105.14 C 184.00 102.52 190.69 99.33 192.84 92.72 C 185.49 90.62 178.64 94.70 171.84 96.81 C 169.79 97.37 167.74 97.93 165.69 98.48 C 165.98 97.79 166.57 96.42 166.86 95.74 C 167.24 95.51 167.99 95.06 168.37 94.83 C 172.26 92.29 176.67 90.35 179.79 86.80 C 181.40 86.68 183.01 86.57 184.63 86.46 C 187.38 82.96 190.41 79.69 193.29 76.30 Z" />
<path fill="#6f3e46" opacity="1.00" d=" M 212.82 74.38 C 211.99 70.54 210.29 64.85 214.20 62.23 C 214.43 63.46 214.61 64.71 214.98 65.92 C 216.58 67.21 218.68 67.60 220.57 68.29 C 220.97 69.28 221.37 70.28 221.78 71.28 C 223.21 75.45 227.07 77.99 229.82 81.23 C 237.47 88.98 243.78 97.89 250.63 106.33 C 249.67 107.06 248.74 107.83 247.72 108.45 C 245.82 107.83 244.03 106.94 242.12 106.38 C 233.53 95.33 225.12 84.12 216.11 73.39 C 215.29 73.63 213.65 74.13 212.82 74.38 Z" />
<path fill="#8e7073" opacity="1.00" d=" M 214.20 62.23 C 216.67 62.84 219.15 63.43 221.63 64.03 C 221.66 65.19 221.68 66.35 221.70 67.51 C 221.72 68.45 221.76 70.34 221.78 71.28 C 221.37 70.28 220.97 69.28 220.57 68.29 C 218.68 67.60 216.58 67.21 214.98 65.92 C 214.61 64.71 214.43 63.46 214.20 62.23 Z" />
<path fill="#785356" opacity="1.00" d=" M 277.25 66.25 C 279.87 65.87 282.43 65.00 284.40 63.18 C 286.93 66.25 289.23 69.57 290.44 73.39 C 292.78 79.62 291.58 86.98 295.77 92.49 C 295.12 96.32 294.52 100.17 293.78 104.00 C 293.58 108.06 288.53 108.61 286.82 111.80 C 284.12 116.46 282.29 121.55 280.14 126.47 C 278.17 121.69 282.32 117.73 282.35 113.03 C 283.04 105.38 282.91 97.68 282.87 90.01 C 282.84 84.14 281.29 78.45 280.45 72.68 C 279.91 70.35 279.84 67.30 277.25 66.25 Z" />
<path fill="#9b8787" opacity="1.00" d=" M 70.69 69.20 C 71.46 67.65 72.42 66.21 73.48 64.85 C 77.03 70.85 80.42 77.01 82.88 83.55 C 78.65 80.71 74.44 77.82 69.79 75.70 C 70.94 74.20 71.96 72.61 73.00 71.02 C 72.23 70.42 71.46 69.81 70.69 69.20 Z" />
<path fill="#836064" opacity="1.00" d=" M 152.89 71.03 C 158.33 67.51 165.02 66.15 171.31 68.02 C 172.83 72.73 172.63 77.78 171.86 82.61 C 171.45 82.82 170.64 83.25 170.23 83.46 C 170.07 82.60 169.75 80.89 169.59 80.04 C 165.65 81.10 161.76 82.33 157.86 83.50 C 155.76 82.26 153.41 81.06 152.21 78.81 C 150.77 76.45 150.97 73.05 152.89 71.03 Z" />
<path fill="#fffdc8" opacity="1.00" d=" M 268.65 68.59 C 271.07 67.86 273.51 67.18 276.03 66.85 C 274.97 68.86 273.31 70.39 271.41 71.58 C 268.80 78.45 265.84 85.23 261.86 91.43 C 261.47 91.51 260.69 91.66 260.30 91.74 C 263.18 84.06 265.74 76.26 268.65 68.59 Z" />
<path fill="#9b8888" opacity="1.00" d=" M 276.03 66.85 C 276.33 66.70 276.95 66.40 277.25 66.25 C 279.84 67.30 279.91 70.35 280.45 72.68 C 281.29 78.45 282.84 84.14 282.87 90.01 C 282.91 97.68 283.04 105.38 282.35 113.03 C 282.32 117.73 278.17 121.69 280.14 126.47 C 277.62 135.22 273.52 143.67 267.69 150.70 C 265.56 153.49 262.22 154.79 259.10 156.12 C 254.15 158.18 249.60 161.08 244.56 162.93 C 242.50 162.29 240.21 161.91 238.53 160.47 C 236.46 157.08 236.84 152.89 236.50 149.09 C 239.30 146.34 242.06 143.30 243.39 139.53 C 248.82 123.53 254.57 107.64 260.30 91.74 C 260.69 91.66 261.47 91.51 261.86 91.43 C 265.84 85.23 268.80 78.45 271.41 71.58 C 273.31 70.39 274.97 68.86 276.03 66.85 Z" />
<path fill="#9b8888" opacity="1.00" d=" M 221.70 67.51 C 228.07 71.77 234.43 76.05 240.90 80.17 C 246.63 83.74 251.94 87.97 258.01 91.00 C 255.90 96.54 253.92 102.12 251.90 107.69 C 251.58 107.35 250.94 106.67 250.63 106.33 C 243.78 97.89 237.47 88.98 229.82 81.23 C 227.07 77.99 223.21 75.45 221.78 71.28 C 221.76 70.34 221.72 68.45 221.70 67.51 M 229.72 77.05 C 232.25 79.95 235.22 82.46 238.32 84.73 C 239.70 86.09 241.67 85.21 243.32 85.18 C 241.28 82.33 238.82 79.71 235.84 77.82 C 233.87 77.15 231.77 77.18 229.72 77.05 Z" />
<path fill="#ede8c3" opacity="1.00" d=" M 69.32 72.21 C 69.80 71.22 70.26 70.22 70.69 69.20 C 71.46 69.81 72.23 70.42 73.00 71.02 C 71.96 72.61 70.94 74.20 69.79 75.70 C 68.80 76.70 67.76 77.64 66.71 78.59 C 66.86 77.80 67.16 76.23 67.31 75.45 C 67.59 74.18 68.56 73.22 69.32 72.21 Z" />
<path fill="#020102" opacity="1.00" d=" M 121.78 84.60 C 124.24 78.20 127.75 71.39 134.22 68.28 C 135.10 70.07 136.52 71.87 136.19 73.99 C 135.79 75.99 134.78 77.79 133.96 79.64 C 131.68 81.27 129.15 82.55 126.41 83.23 C 126.85 81.33 129.32 80.95 130.62 79.72 C 133.76 77.96 135.72 73.29 132.98 70.36 C 129.33 74.16 125.40 78.31 124.03 83.51 C 123.47 83.78 122.34 84.33 121.78 84.60 Z" />
<path fill="#816265" opacity="1.00" d=" M 290.44 73.39 C 293.76 73.54 296.66 71.93 299.29 70.09 C 299.22 71.18 299.14 72.27 299.07 73.36 C 298.08 79.75 296.72 86.09 295.77 92.49 C 291.58 86.98 292.78 79.62 290.44 73.39 Z" />
<path fill="#5b2931" opacity="1.00" d=" M 340.80 78.39 C 346.41 75.48 351.85 72.24 357.57 69.54 C 352.88 80.46 347.54 91.10 343.10 102.14 C 343.09 101.64 343.06 100.63 343.05 100.13 C 342.16 100.95 341.28 101.77 340.41 102.60 C 338.23 101.42 335.91 99.10 333.24 100.23 C 331.60 101.44 330.65 104.27 328.14 103.39 C 332.82 95.43 336.22 86.83 340.64 78.74 L 340.80 78.39 Z" />
<path fill="#62ffea" opacity="1.00" d=" M 124.03 83.51 C 125.40 78.31 129.33 74.16 132.98 70.36 C 135.72 73.29 133.76 77.96 130.62 79.72 C 129.32 80.95 126.85 81.33 126.41 83.23 C 126.36 83.49 126.25 84.00 126.19 84.26 L 124.03 83.51 Z" />
<path fill="#7a5358" opacity="1.00" d=" M 301.77 98.03 C 310.71 91.39 311.34 79.03 317.97 70.62 C 318.23 72.51 317.94 75.13 320.34 75.69 C 324.43 77.07 328.47 78.57 332.30 80.60 C 335.13 80.93 337.86 79.27 340.64 78.74 C 336.22 86.83 332.82 95.43 328.14 103.39 C 322.82 112.07 317.14 120.55 312.51 129.64 C 306.91 140.68 303.05 152.68 296.13 163.01 C 291.40 163.32 289.34 169.01 284.56 168.70 C 284.42 166.80 284.27 164.89 284.24 162.99 C 285.48 159.66 287.03 156.46 288.34 153.16 C 289.94 149.45 289.67 145.30 290.59 141.42 C 291.64 136.88 291.18 132.11 292.69 127.67 C 293.58 124.77 294.15 121.80 294.96 118.89 C 295.97 115.17 298.34 111.94 298.93 108.10 C 299.64 103.70 299.96 99.26 300.47 94.84 C 300.89 95.90 301.32 96.97 301.77 98.03 Z" />
<path fill="#f3f2c6" opacity="1.00" d=" M 110.56 77.95 C 112.07 75.66 114.18 73.82 116.49 72.37 L 117.89 72.21 C 115.24 75.31 113.85 79.14 112.33 82.86 C 111.55 81.31 110.34 79.79 110.56 77.95 Z" />
<path fill="#65373d" opacity="1.00" d=" M 299.07 73.36 C 299.83 74.77 300.62 76.25 300.59 77.91 C 300.83 83.55 300.63 89.20 300.47 94.84 C 299.96 99.26 299.64 103.70 298.93 108.10 C 298.34 111.94 295.97 115.17 294.96 118.89 C 294.15 121.80 293.58 124.77 292.69 127.67 C 291.18 132.11 291.64 136.88 290.59 141.42 C 289.67 145.30 289.94 149.45 288.34 153.16 C 287.03 156.46 285.48 159.66 284.24 162.99 C 283.00 163.37 281.77 163.74 280.57 164.18 C 280.20 164.47 279.46 165.05 279.09 165.34 C 277.95 166.32 276.90 167.41 276.00 168.62 C 274.08 166.97 272.52 164.94 271.70 162.52 C 271.64 162.12 271.51 161.32 271.45 160.93 C 263.99 165.43 255.13 165.96 247.16 169.16 C 242.35 170.98 237.36 172.33 232.63 174.38 C 232.85 172.77 233.07 171.16 233.30 169.55 L 233.64 169.35 C 237.33 167.30 240.77 164.80 244.56 162.93 C 249.60 161.08 254.15 158.18 259.10 156.12 C 262.22 154.79 265.56 153.49 267.69 150.70 C 273.52 143.67 277.62 135.22 280.14 126.47 C 282.29 121.55 284.12 116.46 286.82 111.80 C 288.53 108.61 293.58 108.06 293.78 104.00 C 294.52 100.17 295.12 96.32 295.77 92.49 C 296.72 86.09 298.08 79.75 299.07 73.36 Z" />
<path fill="#7d555a" opacity="1.00" d=" M 42.98 79.75 C 45.91 77.99 49.26 77.14 52.29 75.59 C 53.63 78.37 54.82 81.22 55.82 84.14 C 55.14 86.27 54.11 88.57 55.14 90.78 C 56.88 95.58 58.73 100.38 61.08 104.93 C 63.66 109.41 69.45 109.48 73.83 111.00 C 74.83 115.63 77.10 119.81 78.80 124.18 C 79.41 125.39 78.15 126.44 77.82 127.54 C 77.70 126.88 77.48 125.57 77.37 124.92 C 74.19 126.78 71.01 128.65 67.89 130.62 C 63.53 129.68 59.28 131.32 55.04 132.11 C 48.27 133.44 41.57 135.11 34.92 136.96 C 30.00 138.37 24.76 138.90 20.28 141.53 C 17.06 137.84 13.98 134.03 10.58 130.51 C 8.04 127.69 4.73 124.71 5.25 120.52 L 5.53 120.51 C 13.06 120.35 20.48 118.85 28.00 118.43 C 33.65 118.13 39.08 116.45 44.64 115.51 C 49.03 114.76 53.40 113.83 57.67 112.53 C 58.14 107.44 55.94 102.74 53.47 98.46 C 49.94 92.52 47.31 86.09 43.39 80.39 L 42.98 79.75 Z" />
<path fill="#957c7e" opacity="1.00" d=" M 62.51 81.84 C 63.90 79.56 65.37 77.30 67.31 75.45 C 67.16 76.23 66.86 77.80 66.71 78.59 C 67.76 77.64 68.80 76.70 69.79 75.70 C 74.44 77.82 78.65 80.71 82.88 83.55 L 83.15 83.72 C 83.61 84.91 84.07 86.11 84.53 87.30 C 81.95 88.47 78.95 90.75 76.13 88.87 C 71.70 86.33 67.40 83.48 62.51 81.84 Z" />
<path fill="#988383" opacity="1.00" d=" M 107.46 76.71 C 107.54 77.11 107.69 77.90 107.77 78.30 C 108.76 82.68 111.63 86.31 115.37 88.69 C 115.76 89.74 116.15 90.79 116.55 91.84 C 118.10 91.04 119.64 90.22 121.18 89.39 C 121.34 91.42 121.52 93.44 121.70 95.46 C 120.98 96.25 120.27 97.03 119.55 97.82 C 120.32 100.42 121.03 103.04 121.68 105.68 C 126.14 106.01 130.45 104.66 134.67 103.39 C 138.58 102.09 142.58 100.47 145.37 97.30 C 151.66 94.33 157.99 91.37 163.81 87.52 C 166.34 89.22 167.47 92.04 168.37 94.83 C 167.99 95.06 167.24 95.51 166.86 95.74 C 160.04 100.23 152.90 104.16 145.77 108.13 C 140.73 111.03 134.78 112.43 130.34 116.32 C 130.10 116.75 129.63 117.60 129.39 118.03 C 124.97 114.64 120.79 110.96 116.39 107.56 C 114.05 105.73 113.02 102.84 111.71 100.29 C 109.29 95.05 106.49 89.97 104.64 84.49 C 103.64 81.58 106.24 79.11 107.46 76.71 Z" />
<path fill="#71484d" opacity="1.00" d=" M 211.23 77.42 C 212.85 77.33 214.46 77.16 216.07 76.98 C 217.05 78.39 218.11 79.75 219.22 81.08 C 218.38 89.50 212.96 96.32 211.03 104.40 C 207.48 110.37 201.37 114.15 196.05 118.41 C 195.85 116.04 194.77 113.38 196.18 111.19 C 197.70 108.46 199.27 105.72 200.07 102.68 C 197.38 105.32 195.49 108.61 193.40 111.71 C 192.19 109.68 191.78 107.35 191.90 105.02 C 194.75 100.47 197.55 95.88 200.15 91.18 C 201.93 87.75 204.12 84.45 207.42 82.30 C 206.58 88.18 203.97 93.54 202.25 99.17 C 207.03 92.67 206.49 83.90 211.23 77.42 Z" />
<path fill="#fff8c4" opacity="1.00" d=" M 229.72 77.05 C 231.77 77.18 233.87 77.15 235.84 77.82 C 238.82 79.71 241.28 82.33 243.32 85.18 C 241.67 85.21 239.70 86.09 238.32 84.73 C 235.22 82.46 232.25 79.95 229.72 77.05 Z" />
<path fill="#714148" opacity="1.00" d=" M 157.86 83.50 C 161.76 82.33 165.65 81.10 169.59 80.04 C 169.75 80.89 170.07 82.60 170.23 83.46 C 167.94 84.56 165.89 86.08 163.81 87.52 C 157.99 91.37 151.66 94.33 145.37 97.30 C 145.10 95.52 144.84 93.74 144.57 91.96 C 147.04 88.34 151.82 88.46 155.36 86.46 C 153.17 86.04 150.92 85.86 148.79 85.17 C 147.23 84.37 146.73 82.47 145.82 81.09 C 149.58 82.85 153.60 84.72 157.86 83.50 Z" />
<path fill="#9a8787" opacity="1.00" d=" M 39.14 83.97 C 40.36 82.55 41.85 81.42 43.39 80.39 C 47.31 86.09 49.94 92.52 53.47 98.46 C 55.94 102.74 58.14 107.44 57.67 112.53 C 53.40 113.83 49.03 114.76 44.64 115.51 C 39.08 116.45 33.65 118.13 28.00 118.43 C 20.48 118.85 13.06 120.35 5.53 120.51 C 8.75 114.07 14.07 109.08 18.90 103.86 C 21.18 101.63 23.08 99.01 25.56 96.99 C 30.51 93.85 35.53 90.54 39.61 86.30 C 39.49 85.72 39.26 84.55 39.14 83.97 Z" />
<path fill="#5d2b32" opacity="1.00" d=" M 219.22 81.08 C 220.44 82.45 221.70 83.80 222.72 85.34 C 221.92 88.05 220.17 90.36 218.89 92.86 C 216.52 96.85 214.56 101.25 211.03 104.40 C 212.96 96.32 218.38 89.50 219.22 81.08 Z" />
<path fill="#7b5258" opacity="1.00" d=" M 57.64 86.97 C 59.59 85.59 61.18 83.80 62.51 81.84 C 67.40 83.48 71.70 86.33 76.13 88.87 C 78.95 90.75 81.95 88.47 84.53 87.30 L 84.86 87.13 C 86.57 91.29 88.62 95.29 90.42 99.41 C 84.98 99.53 79.52 99.81 74.09 99.22 C 72.41 97.19 70.99 94.62 68.39 93.66 C 65.25 92.46 62.01 91.53 58.87 90.32 C 58.46 89.20 58.05 88.09 57.64 86.97 Z" />
<path fill="#020102" opacity="1.00" d=" M 131.16 85.58 C 132.11 85.06 133.07 84.53 134.02 84.01 C 134.49 84.54 134.96 85.08 135.44 85.61 C 136.74 87.04 138.12 88.40 139.51 89.75 C 139.30 90.53 139.53 92.04 138.27 91.52 C 136.14 90.04 134.69 87.82 133.06 85.86 C 134.27 88.58 135.39 91.34 136.13 94.23 L 134.72 94.75 C 134.00 92.95 133.26 91.15 132.55 89.34 C 132.07 88.09 131.62 86.83 131.16 85.58 Z" />
<path fill="#9b8888" opacity="1.00" d=" M 135.44 85.61 C 135.76 85.17 136.41 84.28 136.73 83.84 C 137.82 84.06 138.91 84.27 140.00 84.47 C 139.81 86.23 139.68 87.99 139.51 89.75 C 138.12 88.40 136.74 87.04 135.44 85.61 Z" />
<path fill="#ffffce" opacity="1.00" d=" M 25.56 96.99 C 29.85 92.41 34.61 88.31 39.14 83.97 C 39.26 84.55 39.49 85.72 39.61 86.30 C 35.53 90.54 30.51 93.85 25.56 96.99 Z" />
<path fill="#81595e" opacity="1.00" d=" M 140.00 84.47 C 142.64 87.34 142.37 91.44 143.08 95.03 C 143.95 97.40 141.39 98.61 139.82 99.64 C 139.57 98.90 139.08 97.42 138.83 96.68 C 139.16 95.46 139.49 94.24 139.83 93.03 C 138.59 93.42 137.35 93.81 136.13 94.23 C 135.39 91.34 134.27 88.58 133.06 85.86 C 134.69 87.82 136.14 90.04 138.27 91.52 C 139.53 92.04 139.30 90.53 139.51 89.75 C 139.68 87.99 139.81 86.23 140.00 84.47 Z" />
<path fill="#020102" opacity="1.00" d=" M 128.78 85.48 C 131.35 88.03 131.11 91.92 131.75 95.23 L 131.86 96.45 C 129.77 96.63 127.69 96.79 125.60 96.94 C 125.34 95.04 125.06 93.14 124.73 91.26 C 124.94 89.37 126.05 87.84 127.24 86.44 C 127.37 89.60 127.43 92.78 127.68 95.94 C 128.17 95.58 129.13 94.87 129.61 94.52 C 129.58 91.49 128.89 88.51 128.78 85.48 Z" />
<path fill="#613037" opacity="1.00" d=" M 58.87 90.32 C 62.01 91.53 65.25 92.46 68.39 93.66 C 70.99 94.62 72.41 97.19 74.09 99.22 C 79.52 99.81 84.98 99.53 90.42 99.41 L 90.77 99.41 C 91.28 101.51 92.76 103.71 92.07 105.89 C 84.76 111.58 74.62 109.67 66.79 106.24 C 63.07 101.58 60.78 95.93 58.87 90.32 Z" />
<path fill="#978384" opacity="1.00" d=" M 123.19 89.47 C 123.57 89.92 124.34 90.81 124.73 91.26 C 125.06 93.14 125.34 95.04 125.60 96.94 C 127.69 96.79 129.77 96.63 131.86 96.45 L 131.75 95.23 C 131.77 93.24 132.09 91.27 132.55 89.34 C 133.26 91.15 134.00 92.95 134.72 94.75 L 136.13 94.23 C 137.35 93.81 138.59 93.42 139.83 93.03 C 139.49 94.24 139.16 95.46 138.83 96.68 C 133.44 98.24 128.08 99.88 122.82 101.80 C 122.47 100.67 122.13 99.53 121.80 98.40 C 124.41 96.11 122.95 92.45 123.19 89.47 Z" />
<path fill="#64363d" opacity="1.00" d=" M 171.84 96.81 C 178.64 94.70 185.49 90.62 192.84 92.72 C 190.69 99.33 184.00 102.52 178.12 105.14 C 178.87 103.31 180.82 100.95 178.88 99.19 C 177.25 96.99 174.29 97.05 171.84 96.81 Z" />
<path fill="#774e54" opacity="1.00" d=" M 90.56 93.39 C 92.24 94.68 93.81 96.12 95.26 97.68 C 101.00 103.73 107.42 109.14 112.69 115.64 C 107.87 117.72 104.33 112.56 100.71 110.27 C 98.96 108.89 97.11 107.62 95.09 106.67 C 94.86 101.87 92.38 97.70 90.56 93.39 Z" />
<path fill="#744b50" opacity="1.00" d=" M 145.77 108.13 C 152.90 104.16 160.04 100.23 166.86 95.74 C 166.57 96.42 165.98 97.79 165.69 98.48 C 167.74 97.93 169.79 97.37 171.84 96.81 C 174.29 97.05 177.25 96.99 178.88 99.19 C 180.82 100.95 178.87 103.31 178.12 105.14 C 176.51 106.39 174.98 107.71 173.43 109.04 C 168.79 112.06 163.20 113.22 158.14 115.41 C 156.11 113.32 154.67 110.78 153.97 107.96 C 149.31 109.58 145.52 112.95 140.79 114.40 C 142.82 112.64 144.82 110.70 145.77 108.13 Z" />
<path fill="#774950" opacity="1.00" d=" M 122.82 101.80 C 128.08 99.88 133.44 98.24 138.83 96.68 C 139.08 97.42 139.57 98.90 139.82 99.64 L 139.85 99.72 C 134.59 101.67 129.24 103.37 123.73 104.45 C 123.50 103.79 123.05 102.46 122.82 101.80 Z" />
<path fill="#613137" opacity="1.00" d=" M 328.14 103.39 C 330.65 104.27 331.60 101.44 333.24 100.23 C 335.91 99.10 338.23 101.42 340.41 102.60 C 341.28 101.77 342.16 100.95 343.05 100.13 C 343.06 100.63 343.09 101.64 343.10 102.14 C 341.55 109.63 337.01 116.39 336.52 124.07 C 339.05 124.73 341.58 125.40 344.12 126.05 C 336.28 138.63 325.85 149.28 317.26 161.30 C 310.34 163.39 306.50 170.22 300.79 174.22 C 301.32 168.39 305.50 164.04 308.30 159.19 C 308.93 158.47 308.94 157.74 308.35 157.02 C 303.65 158.62 302.03 164.36 297.04 165.63 C 296.81 164.97 296.35 163.66 296.13 163.01 C 303.05 152.68 306.91 140.68 312.51 129.64 C 317.14 120.55 322.82 112.07 328.14 103.39 Z" />
<path fill="#603137" opacity="1.00" d=" M 193.40 111.71 C 195.49 108.61 197.38 105.32 200.07 102.68 C 199.27 105.72 197.70 108.46 196.18 111.19 C 194.77 113.38 195.85 116.04 196.05 118.41 C 194.83 119.38 193.60 120.35 192.36 121.31 C 193.31 122.88 194.13 124.52 194.84 126.21 L 195.34 127.32 C 192.28 128.80 189.29 130.44 186.56 132.49 C 185.24 133.47 183.95 134.49 182.64 135.49 C 177.29 134.22 172.33 137.09 167.09 137.41 C 167.47 134.37 167.21 131.27 165.15 128.85 C 165.84 127.45 166.63 126.10 167.50 124.81 C 167.45 124.41 167.36 123.61 167.31 123.21 C 173.83 120.50 180.81 119.05 187.25 116.11 C 189.56 115.06 191.73 113.64 193.40 111.71 M 168.14 127.06 C 168.60 128.21 169.06 129.36 169.53 130.52 C 173.72 131.39 178.11 132.25 182.38 131.41 C 185.18 130.68 184.93 126.39 182.29 125.67 C 177.57 124.53 172.68 125.69 168.14 127.06 Z" />
<path fill="#6a3d43" opacity="1.00" d=" M 190.12 107.84 C 190.71 106.90 191.31 105.97 191.90 105.02 C 191.78 107.35 192.19 109.68 193.40 111.71 C 191.73 113.64 189.56 115.06 187.25 116.11 C 186.94 114.62 186.63 113.13 186.32 111.64 C 183.98 111.05 181.64 110.46 179.27 110.03 C 180.71 109.12 182.17 108.24 183.69 107.47 C 184.38 107.12 185.07 106.80 185.77 106.48 C 187.22 106.94 188.67 107.39 190.12 107.84 Z" />
<path fill="#7d555a" opacity="1.00" d=" M 242.12 106.38 C 244.03 106.94 245.82 107.83 247.72 108.45 C 248.74 107.83 249.67 107.06 250.63 106.33 C 250.94 106.67 251.58 107.35 251.90 107.69 C 250.92 110.61 249.91 113.52 248.94 116.44 C 246.85 112.96 244.52 109.65 242.12 106.38 Z" />
<path fill="#71454b" opacity="1.00" d=" M 93.59 106.51 L 95.09 106.67 C 97.11 107.62 98.96 108.89 100.71 110.27 C 100.58 112.42 100.28 114.61 100.70 116.76 C 106.33 119.61 112.50 121.28 118.23 123.93 C 118.29 124.90 118.35 125.86 118.41 126.83 C 113.07 130.29 106.60 128.39 100.89 127.09 C 97.03 126.03 92.45 126.36 89.42 123.34 C 92.99 121.70 99.37 121.29 99.12 116.04 C 99.97 112.23 97.18 109.57 94.54 107.40 L 93.59 106.51 Z" />
<path fill="#7a5055" opacity="1.00" d=" M 86.48 112.67 C 88.52 110.05 91.91 109.25 94.54 107.40 C 97.18 109.57 99.97 112.23 99.12 116.04 C 99.37 121.29 92.99 121.70 89.42 123.34 C 87.88 121.88 86.38 120.37 84.94 118.80 C 83.62 117.01 82.80 114.91 81.84 112.91 C 83.38 112.84 84.93 112.76 86.48 112.67 Z" />
<path fill="#7c585d" opacity="1.00" d=" M 140.79 114.40 C 145.52 112.95 149.31 109.58 153.97 107.96 C 154.67 110.78 156.11 113.32 158.14 115.41 C 151.08 117.89 144.21 120.91 137.13 123.33 C 134.51 121.62 131.92 119.87 129.39 118.03 C 129.63 117.60 130.10 116.75 130.34 116.32 C 130.68 116.65 131.36 117.32 131.70 117.65 C 135.00 117.72 137.84 115.63 140.79 114.40 Z" />
<path fill="#603239" opacity="1.00" d=" M 130.34 116.32 C 134.78 112.43 140.73 111.03 145.77 108.13 C 144.82 110.70 142.82 112.64 140.79 114.40 C 137.84 115.63 135.00 117.72 131.70 117.65 C 131.36 117.32 130.68 116.65 130.34 116.32 Z" />
<path fill="#764e52" opacity="1.00" d=" M 163.89 116.12 C 169.09 114.29 174.03 111.74 179.27 110.03 C 181.64 110.46 183.98 111.05 186.32 111.64 C 186.63 113.13 186.94 114.62 187.25 116.11 C 180.81 119.05 173.83 120.50 167.31 123.21 C 165.96 120.95 164.82 118.58 163.89 116.12 Z" />
<path fill="#66393f" opacity="1.00" d=" M 73.83 111.00 C 75.49 111.43 77.15 111.84 78.81 112.26 C 81.87 118.53 84.93 124.82 87.25 131.40 C 85.62 133.16 84.67 135.33 84.37 137.70 C 83.39 135.36 82.28 133.06 81.13 130.80 C 80.97 134.97 80.77 139.14 80.83 143.31 C 80.57 141.38 80.23 139.45 79.90 137.53 C 78.30 139.64 77.24 142.27 75.19 143.98 C 63.90 148.98 51.81 151.79 39.80 154.51 C 37.34 152.29 33.99 153.71 31.07 153.34 C 27.63 150.48 24.76 146.97 22.10 143.38 C 30.53 142.54 38.57 139.66 46.82 137.85 C 53.94 135.78 61.86 135.41 67.89 130.62 C 71.01 128.65 74.19 126.78 77.37 124.92 C 77.48 125.57 77.70 126.88 77.82 127.54 C 78.15 126.44 79.41 125.39 78.80 124.18 C 77.10 119.81 74.83 115.63 73.83 111.00 Z" />
<path fill="#5a2830" opacity="1.00" d=" M 100.70 116.76 C 100.28 114.61 100.58 112.42 100.71 110.27 C 104.33 112.56 107.87 117.72 112.69 115.64 L 112.96 115.57 C 117.48 121.41 123.87 125.27 129.47 129.94 C 121.11 141.25 112.80 152.80 101.84 161.81 C 98.25 152.27 94.33 142.87 90.81 133.32 C 91.30 132.38 91.79 131.44 92.29 130.51 C 97.16 131.49 102.23 132.43 107.14 131.11 C 112.81 129.47 118.82 130.49 124.50 128.97 C 123.22 126.44 120.85 124.86 118.23 123.93 C 112.50 121.28 106.33 119.61 100.70 116.76 Z" />
<path fill="#5d3036" opacity="1.00" d=" M 119.78 113.62 C 121.55 115.01 123.53 116.24 124.89 118.07 C 125.38 119.78 125.24 121.59 125.32 123.34 C 123.10 121.81 121.08 120.02 119.16 118.13 C 119.37 116.63 119.57 115.12 119.78 113.62 Z" />
<path fill="#67383f" opacity="1.00" d=" M 84.94 118.80 C 86.38 120.37 87.88 121.88 89.42 123.34 C 92.45 126.36 97.03 126.03 100.89 127.09 C 106.60 128.39 113.07 130.29 118.41 126.83 C 118.35 125.86 118.29 124.90 118.23 123.93 C 120.85 124.86 123.22 126.44 124.50 128.97 C 118.82 130.49 112.81 129.47 107.14 131.11 C 102.23 132.43 97.16 131.49 92.29 130.51 C 91.79 131.44 91.30 132.38 90.81 133.32 C 89.02 128.41 86.64 123.74 84.94 118.80 Z" />
<path fill="#734c50" opacity="1.00" d=" M 168.14 127.06 C 172.68 125.69 177.57 124.53 182.29 125.67 C 184.93 126.39 185.18 130.68 182.38 131.41 C 178.11 132.25 173.72 131.39 169.53 130.52 C 169.06 129.36 168.60 128.21 168.14 127.06 Z" />
<path fill="#5b272f" opacity="1.00" d=" M 194.84 126.21 C 200.71 130.48 203.60 137.44 207.10 143.57 C 208.31 143.98 209.53 144.40 210.74 144.82 C 212.40 142.56 213.88 140.19 215.25 137.75 C 218.83 139.76 222.10 142.29 224.94 145.26 C 223.25 153.61 218.43 160.83 213.11 167.30 C 214.29 168.18 215.51 169.16 217.05 169.30 C 221.53 170.15 226.07 170.75 230.64 170.78 C 228.16 179.39 225.77 188.15 221.97 196.29 C 221.54 191.30 221.86 186.03 219.59 181.42 C 217.66 177.17 216.48 172.48 213.39 168.84 C 211.51 166.30 209.46 163.87 207.30 161.56 C 209.84 159.85 213.43 158.38 213.77 154.90 C 214.15 151.78 211.21 149.91 209.14 148.17 C 209.01 147.77 208.74 146.98 208.60 146.58 C 208.24 146.39 207.50 146.00 207.13 145.81 C 204.92 142.81 203.39 139.39 201.23 136.36 C 200.44 135.38 199.62 134.43 198.85 133.43 C 198.57 132.99 198.01 132.10 197.73 131.65 C 196.89 130.23 196.07 128.80 195.34 127.32 L 194.84 126.21 Z" />
<path fill="#978283" opacity="1.00" d=" M 186.56 132.49 C 189.29 130.44 192.28 128.80 195.34 127.32 C 196.07 128.80 196.89 130.23 197.73 131.65 C 196.80 133.33 196.24 135.17 195.69 137.01 C 196.80 137.69 197.90 138.42 199.06 139.03 C 199.83 138.18 200.52 137.26 201.23 136.36 C 203.39 139.39 204.92 142.81 207.13 145.81 C 201.51 144.31 196.26 141.55 191.03 139.03 C 189.30 137.03 187.91 134.76 186.56 132.49 Z" />
<path fill="#988484" opacity="1.00" d=" M 55.04 132.11 C 59.28 131.32 63.53 129.68 67.89 130.62 C 61.86 135.41 53.94 135.78 46.82 137.85 C 38.57 139.66 30.53 142.54 22.10 143.38 C 21.64 142.92 20.73 141.99 20.28 141.53 C 24.76 138.90 30.00 138.37 34.92 136.96 C 41.57 135.11 48.27 133.44 55.04 132.11 Z" />
<path fill="#724c50" opacity="1.00" d=" M 161.45 133.78 C 162.37 131.92 163.84 130.43 165.15 128.85 C 167.21 131.27 167.47 134.37 167.09 137.41 C 163.93 139.07 161.66 141.99 158.39 143.51 C 153.38 146.13 149.18 150.80 143.27 151.23 C 143.66 150.10 144.06 148.65 145.49 148.52 C 145.88 148.41 146.66 148.19 147.05 148.08 C 149.73 146.31 152.44 144.57 155.10 142.75 C 158.19 140.57 159.87 137.09 161.45 133.78 Z" />
<path fill="#5d2c33" opacity="1.00" d=" M 81.13 130.80 C 82.28 133.06 83.39 135.36 84.37 137.70 C 84.67 135.33 85.62 133.16 87.25 131.40 C 92.44 144.28 97.45 157.22 102.56 170.12 C 93.74 174.05 84.79 177.72 76.26 182.26 C 77.37 177.36 79.39 172.72 80.49 167.82 C 81.69 160.89 82.17 153.78 81.19 146.79 C 81.07 145.63 80.95 144.47 80.83 143.31 C 80.77 139.14 80.97 134.97 81.13 130.80 Z" />
<path fill="#785257" opacity="1.00" d=" M 182.64 135.49 C 183.95 134.49 185.24 133.47 186.56 132.49 C 187.91 134.76 189.30 137.03 191.03 139.03 C 188.14 138.09 185.31 136.96 182.64 135.49 Z" />
<path fill="#fffec8" opacity="1.00" d=" M 195.69 137.01 C 196.24 135.17 196.80 133.33 197.73 131.65 C 198.01 132.10 198.57 132.99 198.85 133.43 C 199.62 134.43 200.44 135.38 201.23 136.36 C 200.52 137.26 199.83 138.18 199.06 139.03 C 197.90 138.42 196.80 137.69 195.69 137.01 Z" />
<path fill="#ede8c3" opacity="1.00" d=" M 161.45 133.78 C 159.87 137.09 158.19 140.57 155.10 142.75 C 152.44 144.57 149.73 146.31 147.05 148.08 C 146.66 148.19 145.88 148.41 145.49 148.52 C 148.76 146.50 151.11 143.43 153.98 140.93 C 156.47 138.54 159.48 136.68 161.45 133.78 Z" />
<path fill="#968080" opacity="1.00" d=" M 75.19 143.98 C 77.24 142.27 78.30 139.64 79.90 137.53 C 80.23 139.45 80.57 141.38 80.83 143.31 C 80.95 144.47 81.07 145.63 81.19 146.79 C 81.27 149.79 81.75 152.95 80.77 155.85 C 78.44 159.71 75.02 162.79 72.64 166.64 C 69.64 171.39 66.17 175.81 62.85 180.34 C 55.54 171.40 47.40 163.20 39.80 154.51 C 51.81 151.79 63.90 148.98 75.19 143.98 Z" />
<path fill="#896e70" opacity="1.00" d=" M 228.13 144.99 C 230.80 146.62 233.39 148.38 236.02 150.08 C 233.50 156.31 229.58 162.52 223.27 165.42 C 221.58 166.34 220.47 164.39 219.36 163.48 C 222.75 159.11 225.07 154.06 226.83 148.85 C 227.32 148.73 228.31 148.50 228.81 148.38 C 228.64 147.53 228.30 145.84 228.13 144.99 Z" />
<path fill="#7c575b" opacity="1.00" d=" M 81.19 146.79 C 82.17 153.78 81.69 160.89 80.49 167.82 C 79.39 172.72 77.37 177.36 76.26 182.26 C 73.48 184.02 70.73 185.82 68.07 187.74 C 66.43 185.20 64.68 182.74 62.85 180.34 C 66.17 175.81 69.64 171.39 72.64 166.64 C 75.02 162.79 78.44 159.71 80.77 155.85 C 81.75 152.95 81.27 149.79 81.19 146.79 Z" />
<path fill="#5d2b33" opacity="1.00" d=" M 144.30 153.37 C 149.24 153.05 152.99 149.67 157.07 147.28 C 159.17 150.88 161.82 154.16 163.54 157.99 C 161.52 157.75 159.43 156.88 157.41 157.38 C 153.78 159.67 152.68 164.19 152.91 168.23 C 151.43 163.55 149.22 159.11 148.37 154.24 C 146.75 153.99 145.14 153.74 143.52 153.55 L 144.30 153.37 Z" />
<path fill="#7e595d" opacity="1.00" d=" M 198.22 156.06 C 200.22 153.31 202.77 151.02 204.87 148.34 C 206.29 149.03 207.78 149.59 209.34 149.91 C 209.39 150.34 209.49 151.20 209.55 151.63 C 207.33 154.76 204.87 157.68 202.30 160.52 C 200.95 159.20 197.75 158.42 198.22 156.06 Z" />
<path fill="#693840" opacity="1.00" d=" M 209.14 148.17 C 211.21 149.91 214.15 151.78 213.77 154.90 C 213.43 158.38 209.84 159.85 207.30 161.56 C 209.46 163.87 211.51 166.30 213.39 168.84 C 212.24 168.20 211.07 167.61 209.91 167.01 C 209.09 167.62 208.28 168.23 207.47 168.84 C 206.11 165.86 204.62 162.88 202.30 160.52 C 204.87 157.68 207.33 154.76 209.55 151.63 C 209.49 151.20 209.39 150.34 209.34 149.91 L 209.14 148.17 Z" />
<path fill="#5e2d34" opacity="1.00" d=" M 236.02 150.08 C 236.14 149.83 236.38 149.33 236.50 149.09 C 236.84 152.89 236.46 157.08 238.53 160.47 C 240.21 161.91 242.50 162.29 244.56 162.93 C 240.77 164.80 237.33 167.30 233.64 169.35 C 234.42 165.68 235.73 162.10 235.93 158.32 C 232.67 160.83 232.76 165.48 230.31 168.63 C 225.83 167.94 221.33 167.45 216.84 166.82 C 217.68 165.70 218.51 164.59 219.36 163.48 C 220.47 164.39 221.58 166.34 223.27 165.42 C 229.58 162.52 233.50 156.31 236.02 150.08 Z" />
<path fill="#ffffce" opacity="1.00" d=" M 142.58 153.39 C 143.01 153.39 143.87 153.38 144.30 153.37 L 143.52 153.55 L 142.68 153.74 L 142.56 154.70 C 142.06 159.15 140.52 163.43 138.47 167.39 C 137.97 167.63 136.98 168.10 136.48 168.34 C 138.17 163.23 140.47 158.34 142.58 153.39 Z" />
<path fill="#683d43" opacity="1.00" d=" M 142.68 153.74 L 143.52 153.55 C 145.14 153.74 146.75 153.99 148.37 154.24 C 149.22 159.11 151.43 163.55 152.91 168.23 C 152.94 170.73 152.12 173.12 151.25 175.43 C 150.71 172.62 150.39 169.78 150.25 166.92 C 148.15 169.73 146.07 172.57 143.96 175.37 C 143.93 174.74 143.85 173.47 143.81 172.83 C 145.84 168.01 148.77 162.94 147.50 157.52 C 145.94 156.43 144.21 155.64 142.56 154.70 L 142.68 153.74 Z" />
<path fill="#9b8686" opacity="1.00" d=" M 142.56 154.70 C 144.21 155.64 145.94 156.43 147.50 157.52 C 148.77 162.94 145.84 168.01 143.81 172.83 C 139.35 181.94 134.07 190.76 131.31 200.60 C 126.64 200.89 121.97 201.36 117.29 201.23 C 123.80 190.45 130.96 180.00 136.16 168.49 L 136.48 168.34 C 136.98 168.10 137.97 167.63 138.47 167.39 C 140.52 163.43 142.06 159.15 142.56 154.70 Z" />
<path fill="#56222a" opacity="1.00" d=" M 157.41 157.38 C 159.43 156.88 161.52 157.75 163.54 157.99 C 160.15 160.19 155.95 161.55 153.65 165.09 C 153.06 167.30 155.23 168.99 156.40 170.62 C 160.06 174.84 164.91 179.72 163.53 185.86 C 162.42 190.01 160.41 194.06 157.73 197.40 C 152.53 198.27 147.27 198.84 142.03 199.38 C 145.41 191.52 148.58 183.57 151.25 175.43 C 152.12 173.12 152.94 170.73 152.91 168.23 C 152.68 164.19 153.78 159.67 157.41 157.38 Z" />
<path fill="#59252d" opacity="1.00" d=" M 308.35 157.02 C 308.94 157.74 308.93 158.47 308.30 159.19 C 305.50 164.04 301.32 168.39 300.79 174.22 C 306.50 170.22 310.34 163.39 317.26 161.30 C 312.54 171.13 306.42 180.25 302.37 190.40 C 294.96 194.01 286.62 194.98 278.48 194.99 C 276.79 194.05 274.63 193.42 273.59 191.70 C 273.54 189.07 274.32 186.52 274.82 183.96 C 278.83 182.60 283.08 181.83 286.91 179.98 C 291.14 175.89 293.54 170.31 297.04 165.63 C 302.03 164.36 303.65 158.62 308.35 157.02 Z" />
<path fill="#957e7f" opacity="1.00" d=" M 247.16 169.16 C 255.13 165.96 263.99 165.43 271.45 160.93 C 271.51 161.32 271.64 162.12 271.70 162.52 C 268.74 169.29 264.92 175.62 260.56 181.58 C 257.73 185.18 257.00 190.44 252.78 192.84 C 248.91 195.40 245.13 198.18 240.79 199.92 C 237.86 201.11 235.04 202.56 232.42 204.32 C 228.87 204.55 225.21 206.36 221.87 204.27 C 225.84 194.54 229.21 184.55 232.32 174.51 L 232.63 174.38 C 237.36 172.33 242.35 170.98 247.16 169.16 Z" />
<path fill="#724b50" opacity="1.00" d=" M 260.56 181.58 C 264.92 175.62 268.74 169.29 271.70 162.52 C 272.52 164.94 274.08 166.97 276.00 168.62 C 273.56 174.26 269.52 178.97 266.97 184.55 C 273.79 180.44 278.13 173.19 279.09 165.34 C 279.46 165.05 280.20 164.47 280.57 164.18 C 280.73 166.09 280.92 168.10 280.08 169.90 C 278.12 174.70 275.75 179.32 274.01 184.21 C 270.42 185.40 266.45 185.99 263.46 188.46 C 258.54 192.58 253.21 196.21 248.82 200.93 C 243.55 202.72 237.97 203.78 232.42 204.32 C 235.04 202.56 237.86 201.11 240.79 199.92 C 245.13 198.18 248.91 195.40 252.78 192.84 C 257.00 190.44 257.73 185.18 260.56 181.58 Z" />
<path fill="#6f4047" opacity="1.00" d=" M 280.57 164.18 C 281.77 163.74 283.00 163.37 284.24 162.99 C 284.27 164.89 284.42 166.80 284.56 168.70 C 289.34 169.01 291.40 163.32 296.13 163.01 C 296.35 163.66 296.81 164.97 297.04 165.63 C 293.54 170.31 291.14 175.89 286.91 179.98 C 283.08 181.83 278.83 182.60 274.82 183.96 L 274.01 184.21 C 275.75 179.32 278.12 174.70 280.08 169.90 C 280.92 168.10 280.73 166.09 280.57 164.18 Z" />
<path fill="#8e7576" opacity="1.00" d=" M 276.00 168.62 C 276.90 167.41 277.95 166.32 279.09 165.34 C 278.13 173.19 273.79 180.44 266.97 184.55 C 269.52 178.97 273.56 174.26 276.00 168.62 Z" />
<path fill="#826467" opacity="1.00" d=" M 143.96 175.37 C 146.07 172.57 148.15 169.73 150.25 166.92 C 150.39 169.78 150.71 172.62 151.25 175.43 C 148.58 183.57 145.41 191.52 142.03 199.38 C 138.47 199.93 134.91 200.46 131.31 200.60 C 134.07 190.76 139.35 181.94 143.81 172.83 C 143.85 173.47 143.93 174.74 143.96 175.37 Z" />
<path fill="#7b5459" opacity="1.00" d=" M 207.47 168.84 C 208.28 168.23 209.09 167.62 209.91 167.01 C 211.07 167.61 212.24 168.20 213.39 168.84 C 216.48 172.48 217.66 177.17 219.59 181.42 C 221.86 186.03 221.54 191.30 221.97 196.29 C 221.55 198.65 221.11 201.04 221.26 203.46 C 219.36 202.75 217.40 202.23 215.43 201.78 C 216.06 190.26 212.03 179.22 207.47 168.84 Z" />
<path fill="#65353c" opacity="1.00" d=" M 263.46 188.46 C 266.45 185.99 270.42 185.40 274.01 184.21 L 274.82 183.96 C 274.32 186.52 273.54 189.07 273.59 191.70 C 274.63 193.42 276.79 194.05 278.48 194.99 C 274.80 196.49 270.78 196.46 266.93 197.23 C 260.85 198.22 254.90 199.87 248.82 200.93 C 253.21 196.21 258.54 192.58 263.46 188.46 Z" />
<path fill="#724348" opacity="1.00" d=" M 240.83 205.41 C 249.08 203.65 257.29 201.70 265.57 200.09 C 266.25 202.13 266.87 204.19 267.42 206.28 C 260.27 206.82 253.10 206.44 245.94 206.72 C 244.23 206.48 241.76 207.39 240.83 205.41 Z" />
</svg>
