<?xml version="1.0" encoding="UTF-8" ?>
<!DOCTYPE svg PUBLIC "-//W3C//DTD SVG 1.1//EN" "http://www.w3.org/Graphics/SVG/1.1/DTD/svg11.dtd">
<svg width="245pt" height="209pt" viewBox="0 0 245 209" version="1.1" xmlns="http://www.w3.org/2000/svg">
<path fill="#000000" opacity="1.00" d=" M 222.46 13.53 C 225.11 10.13 227.58 6.45 231.17 3.95 C 232.04 11.26 231.44 18.65 231.70 26.00 C 232.45 43.33 233.29 60.66 233.82 78.00 C 234.78 93.01 234.37 108.07 235.31 123.08 C 235.35 132.56 235.83 142.13 234.23 151.51 C 232.24 156.66 226.64 158.54 222.27 161.15 C 205.62 170.00 190.11 180.75 174.02 190.53 C 187.38 189.96 200.72 191.27 213.96 192.95 C 217.04 193.42 220.21 193.76 223.12 194.99 C 224.38 197.74 220.63 197.77 218.89 198.18 C 193.62 200.49 168.24 201.57 143.01 204.35 C 138.84 205.30 134.96 203.21 131.04 202.17 C 128.81 203.56 126.53 204.84 124.18 206.01 C 123.78 205.68 122.97 205.00 122.56 204.66 C 117.84 204.11 113.02 203.82 108.46 202.39 C 100.57 198.86 93.56 193.55 87.54 187.39 C 86.36 186.19 85.68 184.64 84.91 183.18 C 95.71 182.93 105.90 187.34 116.04 190.49 C 113.53 185.92 110.16 181.47 109.90 176.06 C 117.13 176.61 123.39 180.64 130.17 182.84 C 130.18 180.48 130.30 178.12 130.10 175.77 C 128.86 173.34 126.39 171.72 123.92 170.71 C 122.57 169.99 120.62 169.70 120.19 167.98 C 121.33 165.75 122.97 163.85 124.48 161.87 C 123.64 160.73 122.80 159.59 121.96 158.46 C 116.53 161.98 110.84 165.40 106.84 170.63 C 103.86 169.04 102.31 165.97 100.46 163.32 C 99.05 163.10 98.30 164.69 97.26 165.35 C 93.58 164.03 89.74 163.20 85.89 162.61 C 83.86 162.39 82.11 164.58 80.20 164.07 C 75.64 159.78 72.05 154.60 67.66 150.15 C 67.27 150.16 66.49 150.19 66.10 150.20 C 65.57 152.55 66.36 154.93 66.46 157.30 C 65.01 156.93 63.57 156.55 62.13 156.19 C 64.26 158.62 66.78 160.67 68.96 163.05 C 68.65 165.23 66.55 166.64 65.19 168.23 C 56.90 175.95 48.85 183.95 40.20 191.24 C 37.93 192.98 36.02 189.92 34.71 188.41 C 26.66 177.52 18.05 167.06 9.23 156.79 C 7.58 154.95 6.50 152.56 4.39 151.18 C 6.49 150.40 6.80 147.96 7.59 146.16 C 15.90 122.14 24.16 98.09 33.43 74.43 C 38.84 60.56 44.99 46.97 52.19 33.95 C 54.15 37.68 54.51 41.93 55.17 46.01 C 57.24 60.94 58.46 75.97 59.53 91.00 C 60.39 102.61 61.89 114.23 61.55 125.88 C 59.23 132.89 54.03 139.07 53.73 146.68 C 55.08 146.66 56.44 146.64 57.79 146.63 C 57.96 144.79 57.32 142.40 58.99 141.09 C 61.88 139.23 64.99 137.77 67.95 136.02 C 65.04 130.43 67.99 123.84 73.04 120.68 C 69.58 118.21 65.63 114.36 67.66 109.68 C 71.42 103.56 79.17 102.36 85.45 100.24 C 81.85 93.39 80.16 85.50 80.42 77.78 C 77.15 78.28 72.30 77.33 71.56 73.56 C 73.11 71.24 76.46 72.51 78.77 72.16 C 76.42 67.85 75.55 62.79 75.82 57.93 L 77.12 57.35 C 80.28 60.97 81.51 65.78 82.96 70.26 C 89.26 62.43 98.29 57.65 107.02 53.05 C 115.81 48.69 125.05 45.24 134.57 42.86 C 139.51 41.09 144.77 38.47 150.11 40.24 C 156.61 41.86 160.64 47.93 162.93 53.82 C 166.91 52.96 170.90 51.26 175.04 51.77 C 180.48 53.45 183.86 59.39 183.67 64.93 C 196.25 47.54 209.57 30.70 222.46 13.53 M 221.08 19.04 C 212.25 30.82 203.52 42.68 194.41 54.26 L 194.75 54.42 C 182.15 71.10 169.48 88.53 158.75 106.77 C 152.55 117.36 146.86 128.23 141.30 139.17 L 142.02 139.85 C 143.11 143.93 144.55 147.95 146.46 151.71 C 150.97 166.07 156.90 179.99 163.21 193.65 C 173.55 188.73 182.80 181.90 192.52 175.90 L 192.57 175.70 C 200.14 171.25 207.44 166.35 215.16 162.15 C 219.81 159.48 224.73 157.26 229.14 154.19 C 233.95 150.89 232.01 144.24 232.46 139.31 C 232.46 136.76 232.82 134.12 232.14 131.64 C 232.99 124.45 232.19 117.19 232.32 109.98 C 231.41 86.63 231.02 63.26 229.73 39.93 C 229.19 31.76 229.73 23.52 228.76 15.38 C 228.83 13.16 228.95 10.95 229.08 8.74 C 226.03 11.87 223.72 15.59 221.08 19.04 M 47.67 48.31 C 42.57 58.27 38.48 68.71 34.38 79.11 C 31.54 86.77 28.27 94.31 26.14 102.20 C 20.59 115.74 16.07 129.69 11.30 143.52 C 10.54 144.95 9.94 146.47 9.65 148.07 C 9.29 149.29 7.89 150.51 8.55 151.82 C 10.95 155.10 13.76 158.04 16.19 161.30 L 17.26 161.46 C 18.10 162.73 18.92 164.02 19.98 165.12 C 21.27 167.10 22.76 168.95 24.28 170.76 L 24.13 170.91 C 24.54 171.29 25.34 172.06 25.75 172.44 C 28.00 175.47 30.34 178.44 32.65 181.43 C 34.71 184.36 36.91 187.18 39.20 189.92 C 48.20 180.74 57.74 172.12 67.19 163.41 C 62.06 160.44 58.85 155.29 54.86 151.08 C 53.29 149.05 50.71 146.96 51.46 144.08 C 52.72 138.41 55.56 133.26 58.08 128.07 C 60.23 124.04 58.95 119.34 58.88 115.00 C 58.51 104.98 57.30 95.02 56.62 85.02 C 55.52 69.99 54.15 54.98 51.93 40.07 C 50.10 42.57 48.67 45.38 47.67 48.31 M 131.24 46.19 C 120.63 49.31 110.41 53.68 100.79 59.14 L 100.71 59.30 C 96.05 61.93 91.44 64.83 87.73 68.74 C 86.62 70.05 85.54 71.38 84.48 72.72 C 80.64 80.98 83.93 90.41 87.02 98.36 L 87.47 98.60 C 87.64 99.22 87.99 100.45 88.17 101.07 C 81.96 104.45 73.49 104.51 69.22 110.94 C 68.72 115.67 73.21 118.27 76.75 120.19 C 74.09 122.67 70.74 124.82 69.49 128.41 C 68.66 130.71 69.30 133.15 70.04 135.38 C 73.11 132.57 75.04 128.83 77.54 125.57 C 79.58 122.53 82.03 119.77 83.94 116.65 C 87.38 112.47 90.53 108.07 93.92 103.85 C 96.11 101.04 98.40 98.31 100.68 95.57 C 103.28 92.68 105.73 89.66 108.48 86.91 C 108.44 89.09 108.34 91.27 108.15 93.44 C 107.27 99.59 107.42 105.84 106.72 112.02 C 109.53 108.41 111.93 104.46 115.23 101.26 C 117.55 99.08 119.76 96.07 123.24 95.98 C 128.18 99.02 133.47 102.14 136.28 107.47 C 138.10 111.13 139.69 114.90 140.83 118.84 C 142.98 117.68 145.08 116.44 147.15 115.13 C 147.94 116.06 148.74 116.99 149.53 117.93 C 154.75 108.43 160.30 99.13 166.21 90.04 C 163.97 89.77 161.77 89.31 159.67 88.48 C 157.46 93.06 153.04 96.13 148.04 96.88 C 147.69 96.38 146.99 95.39 146.63 94.90 C 147.56 91.69 149.50 88.97 152.01 86.81 C 150.51 86.00 149.02 85.17 147.56 84.29 C 146.54 82.98 145.54 81.65 144.55 80.33 C 144.14 77.72 144.53 75.13 145.89 72.85 C 148.47 74.26 151.05 75.68 153.58 77.18 C 154.79 78.47 155.99 79.76 157.20 81.05 C 159.58 77.83 161.83 74.51 164.48 71.50 C 164.64 71.46 164.96 71.36 165.11 71.31 C 165.29 71.11 165.64 70.70 165.82 70.50 C 167.34 70.49 168.86 70.60 170.35 70.93 C 170.60 73.35 171.28 75.92 170.22 78.25 C 169.35 80.35 167.38 81.65 165.76 83.12 C 167.06 83.76 168.36 84.41 169.66 85.05 C 172.86 79.89 176.66 75.13 179.85 69.97 C 181.88 66.91 181.63 63.11 180.67 59.73 C 179.88 58.59 179.10 57.44 178.34 56.27 C 175.59 53.20 170.78 53.14 167.52 55.24 C 165.40 55.29 163.30 55.54 161.19 55.61 C 160.40 51.60 157.54 48.18 154.80 45.24 L 154.79 44.99 C 152.11 43.38 149.23 41.76 145.99 41.90 C 140.77 42.11 136.19 44.85 131.24 46.19 M 77.76 62.27 C 78.09 65.78 78.29 70.14 81.68 72.20 C 80.87 68.74 80.20 65.01 77.76 62.27 M 160.68 79.73 C 159.46 80.95 161.58 81.67 162.11 82.57 C 164.33 81.42 166.92 80.43 168.17 78.10 C 169.19 76.26 168.70 74.08 168.60 72.09 C 164.84 73.12 162.76 76.73 160.68 79.73 M 73.12 73.73 C 74.79 76.47 81.27 78.52 81.59 73.79 C 78.77 73.60 75.94 73.56 73.12 73.73 M 146.41 75.53 C 145.44 80.25 149.34 84.55 154.00 84.72 C 154.36 83.97 155.09 82.48 155.45 81.74 C 152.91 79.04 149.68 77.19 146.41 75.53 M 156.35 83.73 C 156.87 84.67 157.39 85.60 157.92 86.53 C 158.81 86.21 159.70 85.89 160.59 85.56 C 160.45 84.49 160.30 83.42 160.15 82.35 C 158.82 82.61 157.57 83.15 156.35 83.73 M 161.16 87.20 C 163.44 87.72 165.77 87.96 168.11 87.82 C 167.68 84.41 162.15 83.67 161.16 87.20 M 155.04 86.99 C 152.71 89.24 150.13 91.47 149.16 94.70 C 152.66 93.54 155.90 91.40 157.55 88.00 C 156.92 87.75 155.67 87.24 155.04 86.99 M 89.03 114.68 C 86.22 117.41 84.14 120.77 81.79 123.88 C 78.21 129.03 74.22 133.92 71.13 139.39 C 69.47 141.05 68.47 143.24 67.13 145.15 C 67.59 145.92 68.05 146.69 68.51 147.46 C 70.15 149.25 71.82 151.00 73.55 152.69 C 75.50 156.03 78.38 158.71 80.92 161.59 C 82.84 160.62 84.94 160.36 87.06 160.50 C 90.39 161.31 93.76 161.99 97.09 162.79 C 101.13 159.47 104.62 155.56 108.34 151.90 C 117.26 143.34 124.19 132.92 130.22 122.19 C 126.38 123.09 122.48 123.67 118.66 124.63 C 114.73 125.09 110.81 125.63 106.89 126.12 C 106.24 126.11 104.94 126.08 104.29 126.06 C 104.07 117.83 104.65 109.60 105.09 101.38 C 105.35 98.75 105.53 96.10 105.69 93.46 C 99.83 100.27 93.90 107.13 89.03 114.68 M 106.75 117.47 C 106.19 119.69 106.44 122.01 106.46 124.28 C 112.48 123.08 118.72 122.78 124.59 120.89 C 127.77 120.56 130.83 119.58 133.97 118.98 C 132.29 124.72 128.55 129.49 125.37 134.45 C 119.04 144.63 110.76 153.47 101.70 161.26 C 103.11 163.45 104.61 165.59 106.17 167.68 C 110.66 162.81 116.23 159.15 122.01 156.00 C 123.04 155.32 124.28 155.34 125.46 155.30 C 124.96 155.79 123.97 156.78 123.47 157.28 C 124.60 158.58 125.73 159.88 126.87 161.18 C 125.97 162.65 125.03 164.10 124.09 165.55 C 123.47 166.40 122.85 167.26 122.25 168.12 C 125.87 169.16 129.54 170.90 131.64 174.17 C 131.91 177.03 131.79 179.92 132.21 182.78 C 131.68 183.55 131.22 184.37 130.82 185.22 C 128.83 184.45 126.83 183.71 124.82 183.02 C 120.61 181.42 116.54 179.44 112.18 178.27 C 114.15 183.09 116.35 188.15 120.41 191.58 C 122.56 192.77 125.04 193.19 127.38 193.92 L 126.48 194.84 C 126.14 194.95 125.45 195.15 125.11 195.25 C 122.05 193.77 118.66 193.29 115.43 192.34 C 106.44 189.69 97.54 186.44 88.22 185.13 C 89.52 186.54 90.90 187.89 92.33 189.19 C 97.14 194.08 103.14 197.70 109.35 200.53 C 114.46 202.02 119.92 201.85 125.02 203.45 C 125.54 203.18 126.57 202.63 127.08 202.36 C 128.08 201.62 129.16 200.96 129.99 200.02 C 133.38 200.67 136.65 202.06 140.11 202.19 C 146.08 199.29 148.46 192.38 153.77 188.75 C 153.52 188.57 153.01 188.21 152.76 188.03 C 152.98 187.93 153.41 187.72 153.63 187.61 C 153.07 187.21 150.56 186.96 151.57 186.01 C 152.99 185.27 154.65 185.11 156.17 184.65 C 154.39 179.57 152.11 174.68 150.23 169.64 C 148.38 169.72 146.52 169.79 144.67 169.86 C 143.90 173.97 142.84 178.02 141.94 182.11 C 144.04 180.01 146.11 177.87 148.33 175.90 C 149.55 179.38 149.74 183.19 148.69 186.74 C 149.12 186.95 149.98 187.38 150.40 187.59 C 149.70 187.84 148.30 188.36 147.59 188.61 C 147.40 187.35 147.23 186.08 147.10 184.81 C 147.21 183.14 147.30 181.47 147.36 179.79 C 141.89 184.53 137.27 190.78 130.44 193.62 C 133.54 190.32 136.96 187.34 139.94 183.93 C 140.49 178.66 141.87 173.49 143.56 168.49 C 145.38 167.49 147.57 167.70 149.58 167.45 C 145.63 158.03 142.32 148.35 138.47 138.89 C 141.51 133.13 144.79 127.49 147.62 121.62 C 148.31 120.40 147.14 119.10 146.96 117.89 C 145.18 118.88 143.41 119.90 141.65 120.93 C 142.10 122.62 142.54 124.31 142.95 126.01 C 142.51 125.92 141.61 125.74 141.17 125.65 C 138.23 119.66 136.91 112.94 133.51 107.12 C 130.40 103.24 126.33 100.29 122.01 97.90 C 115.92 103.54 110.17 109.82 106.75 117.47 M 60.13 142.91 C 60.11 144.88 60.25 146.89 59.75 148.82 C 58.55 149.10 57.32 149.23 56.07 149.20 C 58.25 151.49 60.13 154.61 63.73 154.43 C 63.48 152.07 63.98 149.82 65.44 147.93 C 64.88 146.86 63.01 145.65 64.36 144.40 C 65.80 142.22 67.63 140.28 68.58 137.81 C 65.64 139.29 62.85 141.06 60.13 142.91 M 154.34 189.63 C 155.83 189.86 157.32 190.10 158.81 190.33 C 158.26 188.87 157.69 187.42 157.11 185.97 C 156.19 187.19 155.27 188.41 154.34 189.63 Z" />
<path fill="#9b8787" opacity="1.00" d=" M 221.08 19.04 C 223.72 15.59 226.03 11.87 229.08 8.74 C 228.95 10.95 228.83 13.16 228.76 15.38 C 227.19 17.68 225.75 20.09 224.80 22.71 C 221.58 31.48 217.96 40.10 214.84 48.90 C 211.83 57.39 207.98 65.71 206.78 74.71 C 206.01 79.39 205.00 84.04 203.87 88.64 C 201.30 95.36 199.43 102.30 197.26 109.15 C 193.28 122.24 187.91 134.84 182.53 147.40 C 178.20 158.46 173.56 169.39 168.61 180.19 C 162.37 172.77 156.52 165.01 151.08 156.98 C 149.77 155.03 148.11 153.36 146.46 151.71 C 144.55 147.95 143.11 143.93 142.02 139.85 C 142.60 140.40 143.75 141.49 144.33 142.04 C 159.21 110.63 179.55 82.29 198.07 53.02 C 197.43 53.46 196.14 54.34 195.50 54.79 C 195.32 54.70 194.94 54.51 194.75 54.42 L 194.41 54.26 C 203.52 42.68 212.25 30.82 221.08 19.04 Z" />
<path fill="#6e434a" opacity="1.00" d=" M 224.80 22.71 C 225.75 20.09 227.19 17.68 228.76 15.38 C 229.73 23.52 229.19 31.76 229.73 39.93 C 231.02 63.26 231.41 86.63 232.32 109.98 C 232.19 117.19 232.99 124.45 232.14 131.64 C 231.94 131.13 231.54 130.11 231.34 129.61 C 229.75 125.52 229.21 121.14 228.26 116.89 C 226.43 107.85 223.94 98.96 220.87 90.28 C 220.12 91.30 219.39 92.34 218.68 93.39 C 218.61 88.54 219.80 81.99 214.76 79.15 C 212.37 77.35 209.54 78.17 207.15 79.45 C 207.02 77.87 206.87 76.29 206.78 74.71 C 207.98 65.71 211.83 57.39 214.84 48.90 C 217.96 40.10 221.58 31.48 224.80 22.71 Z" />
<path fill="#6b4046" opacity="1.00" d=" M 47.67 48.31 C 48.67 45.38 50.10 42.57 51.93 40.07 C 54.15 54.98 55.52 69.99 56.62 85.02 C 57.30 95.02 58.51 104.98 58.88 115.00 C 58.95 119.34 60.23 124.04 58.08 128.07 C 55.56 133.26 52.72 138.41 51.46 144.08 C 50.71 146.96 53.29 149.05 54.86 151.08 C 58.85 155.29 62.06 160.44 67.19 163.41 C 57.74 172.12 48.20 180.74 39.20 189.92 C 38.71 185.36 38.82 180.76 39.33 176.21 C 39.46 174.95 39.61 173.70 39.72 172.44 C 40.40 167.38 40.76 162.19 39.55 157.17 C 38.82 154.42 39.13 151.57 39.59 148.80 C 39.69 148.26 39.88 147.18 39.98 146.64 C 35.36 148.37 30.83 150.38 26.49 152.73 C 27.28 146.98 33.30 144.69 36.75 140.75 C 40.43 136.44 45.12 132.73 47.16 127.26 C 45.35 125.85 43.56 124.41 41.78 122.97 C 45.12 118.06 49.21 113.16 49.89 107.05 C 50.46 102.18 51.16 97.28 50.67 92.38 C 49.41 80.50 51.22 68.32 47.69 56.71 C 47.83 53.91 47.74 51.11 47.67 48.31 Z" />
<path fill="#7bcf70" opacity="1.00" d=" M 131.24 46.19 C 136.19 44.85 140.77 42.11 145.99 41.90 C 149.23 41.76 152.11 43.38 154.79 44.99 L 154.80 45.24 C 155.30 49.53 153.92 54.06 155.87 58.12 C 158.34 64.26 158.24 72.08 153.58 77.18 C 151.05 75.68 148.47 74.26 145.89 72.85 C 144.53 75.13 144.14 77.72 144.55 80.33 C 134.61 83.98 124.48 87.11 114.59 90.88 C 114.54 89.88 114.43 87.88 114.38 86.88 C 113.86 88.48 113.33 90.09 112.81 91.69 C 111.25 92.28 109.70 92.86 108.15 93.44 C 108.34 91.27 108.44 89.09 108.48 86.91 C 105.73 89.66 103.28 92.68 100.68 95.57 C 97.43 93.54 94.12 91.41 91.79 88.30 C 88.11 83.77 86.61 78.03 84.48 72.72 C 85.54 71.38 86.62 70.05 87.73 68.74 C 86.82 70.51 86.25 72.47 87.61 74.22 C 88.58 73.06 89.54 71.89 90.50 70.72 C 93.33 71.86 97.42 72.20 98.89 68.86 C 100.45 66.89 99.57 64.58 98.24 62.78 C 98.86 62.04 99.49 61.30 100.07 60.53 C 100.23 60.22 100.55 59.60 100.71 59.30 L 100.79 59.14 C 110.41 53.68 120.63 49.31 131.24 46.19 M 115.49 58.86 C 116.29 60.31 117.17 61.72 118.07 63.11 C 114.86 64.53 111.98 67.27 111.83 70.99 C 112.39 76.96 120.12 79.69 125.02 77.17 C 129.07 75.27 129.93 69.63 127.85 66.00 C 126.66 63.90 124.19 63.26 122.08 62.48 C 122.16 61.72 122.32 60.19 122.39 59.43 C 121.44 60.24 120.49 61.05 119.55 61.88 C 118.60 60.34 117.58 58.72 115.49 58.86 Z" />
<path fill="#548ba5" opacity="1.00" d=" M 154.80 45.24 C 157.54 48.18 160.40 51.60 161.19 55.61 C 160.79 58.09 160.66 60.61 160.72 63.12 C 160.21 66.35 160.03 69.61 159.89 72.87 C 161.42 72.42 162.95 71.96 164.48 71.50 C 161.83 74.51 159.58 77.83 157.20 81.05 C 155.99 79.76 154.79 78.47 153.58 77.18 C 158.24 72.08 158.34 64.26 155.87 58.12 C 153.92 54.06 155.30 49.53 154.80 45.24 Z" />
<path fill="#9b8888" opacity="1.00" d=" M 47.67 48.31 C 47.74 51.11 47.83 53.91 47.69 56.71 C 46.11 63.56 47.07 70.61 46.39 77.55 C 45.03 88.37 45.20 99.34 43.38 110.12 C 42.31 115.95 42.19 122.45 38.25 127.24 C 33.26 133.52 28.10 140.10 20.87 143.91 C 17.14 145.99 13.41 148.06 9.55 149.86 L 9.65 148.07 C 9.94 146.47 10.54 144.95 11.30 143.52 C 12.76 140.91 14.20 138.30 15.41 135.56 C 21.49 121.81 28.33 108.37 33.30 94.16 C 34.48 90.83 35.27 87.38 35.85 83.90 C 32.13 89.73 29.30 96.06 26.14 102.20 C 28.27 94.31 31.54 86.77 34.38 79.11 C 38.48 68.71 42.57 58.27 47.67 48.31 Z" />
<path fill="#fff9c4" opacity="1.00" d=" M 198.07 53.02 C 179.55 82.29 159.21 110.63 144.33 142.04 C 143.75 141.49 142.60 140.40 142.02 139.85 L 141.30 139.17 C 146.86 128.23 152.55 117.36 158.75 106.77 C 169.48 88.53 182.15 71.10 194.75 54.42 C 194.94 54.51 195.32 54.70 195.50 54.79 C 196.14 54.34 197.43 53.46 198.07 53.02 Z" />
<path fill="#79ca73" opacity="1.00" d=" M 167.52 55.24 C 170.78 53.14 175.59 53.20 178.34 56.27 C 174.58 61.38 170.13 65.88 165.82 70.50 C 165.64 70.70 165.29 71.11 165.11 71.31 C 164.96 71.36 164.64 71.46 164.48 71.50 C 162.95 71.96 161.42 72.42 159.89 72.87 C 160.03 69.61 160.21 66.35 160.72 63.12 C 162.12 61.49 162.70 59.44 163.32 57.44 C 165.13 57.55 166.58 56.81 167.52 55.24 Z" />
<path fill="#f4ffb9" opacity="1.00" d=" M 161.19 55.61 C 163.30 55.54 165.40 55.29 167.52 55.24 C 166.58 56.81 165.13 57.55 163.32 57.44 C 162.70 59.44 162.12 61.49 160.72 63.12 C 160.66 60.61 160.79 58.09 161.19 55.61 Z" />
<path fill="#744e52" opacity="1.00" d=" M 46.39 77.55 C 47.07 70.61 46.11 63.56 47.69 56.71 C 51.22 68.32 49.41 80.50 50.67 92.38 C 51.16 97.28 50.46 102.18 49.89 107.05 C 49.21 113.16 45.12 118.06 41.78 122.97 C 43.56 124.41 45.35 125.85 47.16 127.26 C 45.12 132.73 40.43 136.44 36.75 140.75 C 33.30 144.69 27.28 146.98 26.49 152.73 C 23.86 154.46 21.12 156.01 18.29 157.38 C 17.30 158.52 16.60 159.83 16.19 161.30 C 13.76 158.04 10.95 155.10 8.55 151.82 C 7.89 150.51 9.29 149.29 9.65 148.07 L 9.55 149.86 C 13.41 148.06 17.14 145.99 20.87 143.91 C 28.10 140.10 33.26 133.52 38.25 127.24 C 42.19 122.45 42.31 115.95 43.38 110.12 C 45.20 99.34 45.03 88.37 46.39 77.55 Z" />
<path fill="#4b81a8" opacity="1.00" d=" M 165.82 70.50 C 170.13 65.88 174.58 61.38 178.34 56.27 C 179.10 57.44 179.88 58.59 180.67 59.73 C 177.35 63.57 174.35 67.74 170.35 70.93 C 168.86 70.60 167.34 70.49 165.82 70.50 Z" />
<path fill="#000000" opacity="1.00" d=" M 115.49 58.86 C 117.58 58.72 118.60 60.34 119.55 61.88 C 120.49 61.05 121.44 60.24 122.39 59.43 C 122.32 60.19 122.16 61.72 122.08 62.48 C 124.19 63.26 126.66 63.90 127.85 66.00 C 129.93 69.63 129.07 75.27 125.02 77.17 C 120.12 79.69 112.39 76.96 111.83 70.99 C 111.98 67.27 114.86 64.53 118.07 63.11 C 117.17 61.72 116.29 60.31 115.49 58.86 M 114.20 68.56 C 113.71 70.31 114.05 72.03 114.63 73.70 C 117.51 75.70 121.62 77.01 124.79 74.87 C 127.64 72.58 127.27 68.14 124.90 65.63 C 122.45 65.21 119.95 65.17 117.47 65.15 C 116.28 66.19 115.19 67.33 114.20 68.56 Z" />
<path fill="#f4ffb9" opacity="1.00" d=" M 87.73 68.74 C 91.44 64.83 96.05 61.93 100.71 59.30 C 100.55 59.60 100.23 60.22 100.07 60.53 C 99.49 61.30 98.86 62.04 98.24 62.78 C 99.57 64.58 100.45 66.89 98.89 68.86 C 97.42 72.20 93.33 71.86 90.50 70.72 C 89.54 71.89 88.58 73.06 87.61 74.22 C 86.25 72.47 86.82 70.51 87.73 68.74 Z" />
<path fill="#3369a7" opacity="1.00" d=" M 180.67 59.73 C 181.63 63.11 181.88 66.91 179.85 69.97 C 176.66 75.13 172.86 79.89 169.66 85.05 C 168.36 84.41 167.06 83.76 165.76 83.12 C 167.38 81.65 169.35 80.35 170.22 78.25 C 171.28 75.92 170.60 73.35 170.35 70.93 C 174.35 67.74 177.35 63.57 180.67 59.73 Z" />
<path fill="#a89649" opacity="1.00" d=" M 77.76 62.27 C 80.20 65.01 80.87 68.74 81.68 72.20 C 78.29 70.14 78.09 65.78 77.76 62.27 Z" />
<path fill="#ffffcc" opacity="1.00" d=" M 114.20 68.56 C 115.19 67.33 116.28 66.19 117.47 65.15 C 117.57 66.97 117.65 68.79 117.71 70.62 C 117.19 70.62 116.16 70.63 115.64 70.64 C 115.28 70.12 114.56 69.08 114.20 68.56 Z" />
<path fill="#ff6975" opacity="1.00" d=" M 117.47 65.15 C 119.95 65.17 122.45 65.21 124.90 65.63 C 122.37 69.33 118.71 71.96 114.63 73.70 C 114.05 72.03 113.71 70.31 114.20 68.56 C 114.56 69.08 115.28 70.12 115.64 70.64 C 116.16 70.63 117.19 70.62 117.71 70.62 C 117.65 68.79 117.57 66.97 117.47 65.15 Z" />
<path fill="#9e2d51" opacity="1.00" d=" M 124.90 65.63 C 127.27 68.14 127.64 72.58 124.79 74.87 C 121.62 77.01 117.51 75.70 114.63 73.70 C 118.71 71.96 122.37 69.33 124.90 65.63 Z" />
<path fill="#ffffff" opacity="1.00" d=" M 160.68 79.73 C 162.76 76.73 164.84 73.12 168.60 72.09 C 168.70 74.08 169.19 76.26 168.17 78.10 C 166.92 80.43 164.33 81.42 162.11 82.57 C 161.58 81.67 159.46 80.95 160.68 79.73 Z" />
<path fill="#548aa9" opacity="1.00" d=" M 87.02 98.36 C 83.93 90.41 80.64 80.98 84.48 72.72 C 86.61 78.03 88.11 83.77 91.79 88.30 C 94.12 91.41 97.43 93.54 100.68 95.57 C 98.40 98.31 96.11 101.04 93.92 103.85 C 92.15 101.67 90.07 99.74 87.47 98.60 L 87.02 98.36 Z" />
<path fill="#cbb558" opacity="1.00" d=" M 73.12 73.73 C 75.94 73.56 78.77 73.60 81.59 73.79 C 81.27 78.52 74.79 76.47 73.12 73.73 Z" />
<path fill="#7b565a" opacity="1.00" d=" M 203.87 88.64 C 205.00 84.04 206.01 79.39 206.78 74.71 C 206.87 76.29 207.02 77.87 207.15 79.45 C 209.54 78.17 212.37 77.35 214.76 79.15 C 219.80 81.99 218.61 88.54 218.68 93.39 C 218.57 95.07 218.48 96.75 218.33 98.43 C 215.15 105.28 213.21 112.59 210.92 119.75 C 210.20 116.94 210.81 113.56 208.64 111.31 C 206.58 108.62 203.49 107.10 200.41 105.90 C 201.70 100.17 203.48 94.53 203.87 88.64 Z" />
<path fill="#ffffff" opacity="1.00" d=" M 146.41 75.53 C 149.68 77.19 152.91 79.04 155.45 81.74 C 155.09 82.48 154.36 83.97 154.00 84.72 C 149.34 84.55 145.44 80.25 146.41 75.53 Z" />
<path fill="#558ca7" opacity="1.00" d=" M 144.55 80.33 C 145.54 81.65 146.54 82.98 147.56 84.29 C 138.56 86.08 130.62 90.73 123.24 95.98 C 119.76 96.07 117.55 99.08 115.23 101.26 C 111.93 104.46 109.53 108.41 106.72 112.02 C 107.42 105.84 107.27 99.59 108.15 93.44 C 109.70 92.86 111.25 92.28 112.81 91.69 C 113.33 90.09 113.86 88.48 114.38 86.88 C 114.43 87.88 114.54 89.88 114.59 90.88 C 124.48 87.11 134.61 83.98 144.55 80.33 Z" />
<path fill="#f4ffb9" opacity="1.00" d=" M 156.35 83.73 C 157.57 83.15 158.82 82.61 160.15 82.35 C 160.30 83.42 160.45 84.49 160.59 85.56 C 159.70 85.89 158.81 86.21 157.92 86.53 C 157.39 85.60 156.87 84.67 156.35 83.73 Z" />
<path fill="#fffdc6" opacity="1.00" d=" M 26.14 102.20 C 29.30 96.06 32.13 89.73 35.85 83.90 C 35.27 87.38 34.48 90.83 33.30 94.16 C 28.33 108.37 21.49 121.81 15.41 135.56 C 14.20 138.30 12.76 140.91 11.30 143.52 C 16.07 129.69 20.59 115.74 26.14 102.20 Z" />
<path fill="#79cc73" opacity="1.00" d=" M 123.24 95.98 C 130.62 90.73 138.56 86.08 147.56 84.29 C 149.02 85.17 150.51 86.00 152.01 86.81 C 149.50 88.97 147.56 91.69 146.63 94.90 C 146.99 95.39 147.69 96.38 148.04 96.88 C 144.31 100.61 140.26 104.00 136.28 107.47 C 133.47 102.14 128.18 99.02 123.24 95.98 Z" />
<path fill="#ffffff" opacity="1.00" d=" M 161.16 87.20 C 162.15 83.67 167.68 84.41 168.11 87.82 C 165.77 87.96 163.44 87.72 161.16 87.20 Z" />
<path fill="#ffffff" opacity="1.00" d=" M 155.04 86.99 C 155.67 87.24 156.92 87.75 157.55 88.00 C 155.90 91.40 152.66 93.54 149.16 94.70 C 150.13 91.47 152.71 89.24 155.04 86.99 Z" />
<path fill="#3369a7" opacity="1.00" d=" M 148.04 96.88 C 153.04 96.13 157.46 93.06 159.67 88.48 C 161.77 89.31 163.97 89.77 166.21 90.04 C 160.30 99.13 154.75 108.43 149.53 117.93 C 148.74 116.99 147.94 116.06 147.15 115.13 C 145.08 116.44 142.98 117.68 140.83 118.84 C 139.69 114.90 138.10 111.13 136.28 107.47 C 140.26 104.00 144.31 100.61 148.04 96.88 Z" />
<path fill="#825f63" opacity="1.00" d=" M 197.26 109.15 C 199.43 102.30 201.30 95.36 203.87 88.64 C 203.48 94.53 201.70 100.17 200.41 105.90 C 203.49 107.10 206.58 108.62 208.64 111.31 C 210.81 113.56 210.20 116.94 210.92 119.75 C 209.78 123.71 208.90 127.73 207.81 131.70 C 205.39 134.98 204.31 138.95 202.66 142.62 C 199.77 149.08 196.96 155.57 194.28 162.12 C 195.44 161.31 196.60 160.50 197.72 159.64 C 195.89 164.96 193.73 170.19 192.57 175.70 L 192.52 175.90 C 182.80 181.90 173.55 188.73 163.21 193.65 C 156.90 179.99 150.97 166.07 146.46 151.71 C 148.11 153.36 149.77 155.03 151.08 156.98 C 156.52 165.01 162.37 172.77 168.61 180.19 C 173.56 169.39 178.20 158.46 182.53 147.40 C 187.91 134.84 193.28 122.24 197.26 109.15 Z" />
<path fill="#9b8888" opacity="1.00" d=" M 218.68 93.39 C 219.39 92.34 220.12 91.30 220.87 90.28 C 223.94 98.96 226.43 107.85 228.26 116.89 C 229.21 121.14 229.75 125.52 231.34 129.61 C 226.87 132.99 222.72 136.76 218.48 140.42 C 211.34 146.58 203.47 152.06 197.72 159.64 C 196.60 160.50 195.44 161.31 194.28 162.12 C 196.96 155.57 199.77 149.08 202.66 142.62 C 204.31 138.95 205.39 134.98 207.81 131.70 C 207.99 131.47 208.36 131.03 208.55 130.80 C 212.02 125.00 213.94 118.42 216.11 112.05 C 217.67 107.17 219.10 102.22 219.62 97.10 C 219.30 97.44 218.65 98.10 218.33 98.43 C 218.48 96.75 218.57 95.07 218.68 93.39 Z" />
<path fill="#9b8888" opacity="1.00" d=" M 89.03 114.68 C 93.90 107.13 99.83 100.27 105.69 93.46 C 105.53 96.10 105.35 98.75 105.09 101.38 C 104.04 102.42 102.38 103.21 102.41 104.92 C 101.51 110.52 101.62 116.24 100.72 121.85 C 99.60 128.85 97.88 135.75 95.85 142.54 C 94.03 147.81 92.35 153.14 90.27 158.31 C 89.96 159.89 88.46 160.34 87.06 160.50 C 84.94 160.36 82.84 160.62 80.92 161.59 C 78.38 158.71 75.50 156.03 73.55 152.69 C 72.55 149.66 71.21 146.76 69.43 144.10 C 68.84 145.15 68.53 146.27 68.51 147.46 C 68.05 146.69 67.59 145.92 67.13 145.15 C 68.47 143.24 69.47 141.05 71.13 139.39 C 72.97 137.85 74.71 136.18 76.23 134.32 C 77.04 136.01 77.80 138.17 80.03 138.28 C 83.40 137.41 87.30 134.35 86.46 130.47 C 86.02 128.35 83.55 128.04 81.95 127.18 C 85.44 123.13 88.72 118.88 91.26 114.16 L 89.03 114.68 Z" />
<path fill="#ffffcc" opacity="1.00" d=" M 218.33 98.43 C 218.65 98.10 219.30 97.44 219.62 97.10 C 219.10 102.22 217.67 107.17 216.11 112.05 C 213.94 118.42 212.02 125.00 208.55 130.80 C 208.36 131.03 207.99 131.47 207.81 131.70 C 208.90 127.73 209.78 123.71 210.92 119.75 C 213.21 112.59 215.15 105.28 218.33 98.43 Z" />
<path fill="#947d7e" opacity="1.00" d=" M 106.75 117.47 C 110.17 109.82 115.92 103.54 122.01 97.90 C 126.33 100.29 130.40 103.24 133.51 107.12 C 131.78 112.41 128.66 117.12 124.59 120.89 C 118.72 122.78 112.48 123.08 106.46 124.28 C 106.44 122.01 106.19 119.69 106.75 117.47 Z" />
<path fill="#77c777" opacity="1.00" d=" M 87.47 98.60 C 90.07 99.74 92.15 101.67 93.92 103.85 C 90.53 108.07 87.38 112.47 83.94 116.65 L 84.06 115.15 C 84.12 113.20 83.17 111.48 82.34 109.79 C 82.44 108.91 82.54 108.04 82.63 107.17 C 81.93 107.54 80.52 108.28 79.82 108.65 C 79.47 108.00 78.78 106.70 78.43 106.05 C 76.57 108.70 74.74 111.38 73.27 114.28 C 71.97 113.11 70.59 112.02 69.22 110.94 C 73.49 104.51 81.96 104.45 88.17 101.07 C 87.99 100.45 87.64 99.22 87.47 98.60 Z" />
<path fill="#846165" opacity="1.00" d=" M 102.41 104.92 C 102.38 103.21 104.04 102.42 105.09 101.38 C 104.65 109.60 104.07 117.83 104.29 126.06 C 104.94 126.08 106.24 126.11 106.89 126.12 C 104.78 130.32 102.11 134.90 103.98 139.71 C 101.01 142.63 98.65 146.08 96.53 149.64 C 96.85 147.81 97.10 145.98 97.38 144.16 C 97.00 143.76 96.23 142.95 95.85 142.54 C 97.88 135.75 99.60 128.85 100.72 121.85 C 101.62 116.24 101.51 110.52 102.41 104.92 Z" />
<path fill="#000000" opacity="1.00" d=" M 73.27 114.28 C 74.74 111.38 76.57 108.70 78.43 106.05 C 78.78 106.70 79.47 108.00 79.82 108.65 C 80.52 108.28 81.93 107.54 82.63 107.17 C 82.54 108.04 82.44 108.91 82.34 109.79 C 83.17 111.48 84.12 113.20 84.06 115.15 C 82.87 116.28 81.78 117.99 79.93 117.89 C 77.10 118.23 75.14 115.99 73.27 114.28 M 75.69 115.11 L 75.98 114.87 C 77.58 115.81 80.02 117.41 81.65 115.63 C 83.61 114.14 81.41 112.22 80.77 110.64 C 77.86 108.87 74.54 112.07 75.69 115.11 Z" />
<path fill="#6a3d44" opacity="1.00" d=" M 133.51 107.12 C 136.91 112.94 138.23 119.66 141.17 125.65 C 141.61 125.74 142.51 125.92 142.95 126.01 C 142.54 124.31 142.10 122.62 141.65 120.93 C 143.41 119.90 145.18 118.88 146.96 117.89 C 147.14 119.10 148.31 120.40 147.62 121.62 C 144.79 127.49 141.51 133.13 138.47 138.89 C 142.32 148.35 145.63 158.03 149.58 167.45 C 147.57 167.70 145.38 167.49 143.56 168.49 C 141.87 173.49 140.49 178.66 139.94 183.93 C 136.96 187.34 133.54 190.32 130.44 193.62 C 129.14 194.08 127.81 194.45 126.48 194.84 L 127.38 193.92 C 128.01 193.27 128.66 192.63 129.31 192.01 C 132.61 189.29 135.62 186.00 136.47 181.65 C 137.68 175.85 140.71 170.52 141.08 164.55 C 136.44 169.82 137.50 177.98 132.21 182.78 C 131.79 179.92 131.91 177.03 131.64 174.17 C 129.54 170.90 125.87 169.16 122.25 168.12 C 122.85 167.26 123.47 166.40 124.09 165.55 C 130.19 166.30 135.60 161.45 138.80 156.69 C 141.10 153.68 139.65 147.14 135.02 148.08 C 130.64 148.27 128.47 152.74 125.46 155.30 C 124.28 155.34 123.04 155.32 122.01 156.00 C 116.23 159.15 110.66 162.81 106.17 167.68 C 104.61 165.59 103.11 163.45 101.70 161.26 C 110.76 153.47 119.04 144.63 125.37 134.45 C 128.55 129.49 132.29 124.72 133.97 118.98 C 130.83 119.58 127.77 120.56 124.59 120.89 C 128.66 117.12 131.78 112.41 133.51 107.12 Z" />
<path fill="#ff6975" opacity="1.00" d=" M 75.69 115.11 C 74.54 112.07 77.86 108.87 80.77 110.64 C 79.19 112.07 77.60 113.48 75.98 114.87 L 75.69 115.11 Z" />
<path fill="#9c2c51" opacity="1.00" d=" M 80.77 110.64 C 81.41 112.22 83.61 114.14 81.65 115.63 C 80.02 117.41 77.58 115.81 75.98 114.87 C 77.60 113.48 79.19 112.07 80.77 110.64 Z" />
<path fill="#4f82b0" opacity="1.00" d=" M 69.22 110.94 C 70.59 112.02 71.97 113.11 73.27 114.28 C 75.14 115.99 77.10 118.23 79.93 117.89 C 81.78 117.99 82.87 116.28 84.06 115.15 L 83.94 116.65 C 82.03 119.77 79.58 122.53 77.54 125.57 C 75.04 128.83 73.11 132.57 70.04 135.38 C 69.30 133.15 68.66 130.71 69.49 128.41 C 70.74 124.82 74.09 122.67 76.75 120.19 C 73.21 118.27 68.72 115.67 69.22 110.94 Z" />
<path fill="#fff8c4" opacity="1.00" d=" M 81.79 123.88 C 84.14 120.77 86.22 117.41 89.03 114.68 L 91.26 114.16 C 88.72 118.88 85.44 123.13 81.95 127.18 C 83.55 128.04 86.02 128.35 86.46 130.47 C 87.30 134.35 83.40 137.41 80.03 138.28 C 77.80 138.17 77.04 136.01 76.23 134.32 C 74.71 136.18 72.97 137.85 71.13 139.39 C 74.22 133.92 78.21 129.03 81.79 123.88 Z" />
<path fill="#724249" opacity="1.00" d=" M 118.66 124.63 C 122.48 123.67 126.38 123.09 130.22 122.19 C 124.19 132.92 117.26 143.34 108.34 151.90 C 107.58 151.19 106.83 150.49 106.08 149.80 C 107.83 146.31 111.07 142.10 108.58 138.20 C 111.49 133.38 114.16 128.20 118.66 124.63 Z" />
<path fill="#937b7c" opacity="1.00" d=" M 106.89 126.12 C 110.81 125.63 114.73 125.09 118.66 124.63 C 114.16 128.20 111.49 133.38 108.58 138.20 C 108.11 138.01 107.16 137.62 106.69 137.43 C 105.76 138.16 104.86 138.92 103.98 139.71 C 102.11 134.90 104.78 130.32 106.89 126.12 Z" />
<path fill="#866468" opacity="1.00" d=" M 218.48 140.42 C 222.72 136.76 226.87 132.99 231.34 129.61 C 231.54 130.11 231.94 131.13 232.14 131.64 C 232.82 134.12 232.46 136.76 232.46 139.31 C 228.28 141.52 226.64 146.24 223.26 149.31 C 219.70 152.71 216.32 156.31 213.34 160.24 C 213.95 160.87 214.55 161.51 215.16 162.15 C 207.44 166.35 200.14 171.25 192.57 175.70 C 193.73 170.19 195.89 164.96 197.72 159.64 C 203.47 152.06 211.34 146.58 218.48 140.42 Z" />
<path fill="#6e4147" opacity="1.00" d=" M 60.13 142.91 C 62.85 141.06 65.64 139.29 68.58 137.81 C 67.63 140.28 65.80 142.22 64.36 144.40 C 63.01 145.65 64.88 146.86 65.44 147.93 C 63.98 149.82 63.48 152.07 63.73 154.43 C 60.13 154.61 58.25 151.49 56.07 149.20 C 57.32 149.23 58.55 149.10 59.75 148.82 C 60.25 146.89 60.11 144.88 60.13 142.91 Z" />
<path fill="#000000" opacity="1.00" d=" M 103.98 139.71 C 104.86 138.92 105.76 138.16 106.69 137.43 C 107.16 137.62 108.11 138.01 108.58 138.20 C 111.07 142.10 107.83 146.31 106.08 149.80 C 103.70 153.73 99.41 156.76 94.63 156.20 C 94.40 153.85 95.75 151.77 96.53 149.64 C 98.65 146.08 101.01 142.63 103.98 139.71 M 106.54 139.28 C 101.89 143.59 98.75 149.19 95.84 154.75 C 102.19 154.23 105.57 148.24 107.51 142.91 C 107.86 141.75 108.45 139.16 106.54 139.28 Z" />
<path fill="#63ffec" opacity="1.00" d=" M 106.54 139.28 C 108.45 139.16 107.86 141.75 107.51 142.91 C 105.57 148.24 102.19 154.23 95.84 154.75 C 98.75 149.19 101.89 143.59 106.54 139.28 Z" />
<path fill="#7f585c" opacity="1.00" d=" M 223.26 149.31 C 226.64 146.24 228.28 141.52 232.46 139.31 C 232.01 144.24 233.95 150.89 229.14 154.19 C 224.73 157.26 219.81 159.48 215.16 162.15 C 214.55 161.51 213.95 160.87 213.34 160.24 C 216.32 156.31 219.70 152.71 223.26 149.31 Z" />
<path fill="#794f55" opacity="1.00" d=" M 95.85 142.54 C 96.23 142.95 97.00 143.76 97.38 144.16 C 97.10 145.98 96.85 147.81 96.53 149.64 C 95.75 151.77 94.40 153.85 94.63 156.20 C 99.41 156.76 103.70 153.73 106.08 149.80 C 106.83 150.49 107.58 151.19 108.34 151.90 C 104.62 155.56 101.13 159.47 97.09 162.79 C 93.76 161.99 90.39 161.31 87.06 160.50 C 88.46 160.34 89.96 159.89 90.27 158.31 C 92.35 153.14 94.03 147.81 95.85 142.54 Z" />
<path fill="#ffffcc" opacity="1.00" d=" M 68.51 147.46 C 68.53 146.27 68.84 145.15 69.43 144.10 C 71.21 146.76 72.55 149.66 73.55 152.69 C 71.82 151.00 70.15 149.25 68.51 147.46 Z" />
<path fill="#9b8888" opacity="1.00" d=" M 26.49 152.73 C 30.83 150.38 35.36 148.37 39.98 146.64 C 39.88 147.18 39.69 148.26 39.59 148.80 C 38.06 151.51 36.25 154.03 34.46 156.57 C 29.37 159.86 26.99 165.61 24.28 170.76 C 22.76 168.95 21.27 167.10 19.98 165.12 C 21.02 165.52 22.08 165.90 23.15 166.27 C 21.87 163.13 20.28 160.12 18.29 157.38 C 21.12 156.01 23.86 154.46 26.49 152.73 Z" />
<path fill="#805d62" opacity="1.00" d=" M 125.46 155.30 C 128.47 152.74 130.64 148.27 135.02 148.08 C 139.65 147.14 141.10 153.68 138.80 156.69 C 135.60 161.45 130.19 166.30 124.09 165.55 C 125.03 164.10 125.97 162.65 126.87 161.18 C 125.73 159.88 124.60 158.58 123.47 157.28 C 123.97 156.78 124.96 155.79 125.46 155.30 Z" />
<path fill="#7f5f61" opacity="1.00" d=" M 34.46 156.57 C 36.25 154.03 38.06 151.51 39.59 148.80 C 39.13 151.57 38.82 154.42 39.55 157.17 C 40.76 162.19 40.40 167.38 39.72 172.44 C 39.35 168.26 38.98 164.08 38.81 159.88 C 34.19 163.79 30.62 168.80 25.75 172.44 C 25.34 172.06 24.54 171.29 24.13 170.91 L 24.28 170.76 C 28.42 166.62 31.56 161.62 34.46 156.57 Z" />
<path fill="#ffffcc" opacity="1.00" d=" M 24.28 170.76 C 26.99 165.61 29.37 159.86 34.46 156.57 C 31.56 161.62 28.42 166.62 24.28 170.76 Z" />
<path fill="#ffffcc" opacity="1.00" d=" M 16.19 161.30 C 16.60 159.83 17.30 158.52 18.29 157.38 C 20.28 160.12 21.87 163.13 23.15 166.27 C 22.08 165.90 21.02 165.52 19.98 165.12 C 18.92 164.02 18.10 162.73 17.26 161.46 L 16.19 161.30 Z" />
<path fill="#8d7374" opacity="1.00" d=" M 25.75 172.44 C 30.62 168.80 34.19 163.79 38.81 159.88 C 38.98 164.08 39.35 168.26 39.72 172.44 C 39.61 173.70 39.46 174.95 39.33 176.21 C 39.22 175.40 39.01 173.79 38.90 172.99 C 36.93 175.88 34.88 178.72 32.65 181.43 C 30.34 178.44 28.00 175.47 25.75 172.44 Z" />
<path fill="#7f585d" opacity="1.00" d=" M 132.21 182.78 C 137.50 177.98 136.44 169.82 141.08 164.55 C 140.71 170.52 137.68 175.85 136.47 181.65 C 135.62 186.00 132.61 189.29 129.31 192.01 C 125.75 190.56 122.31 188.83 119.10 186.71 C 121.03 185.52 122.94 184.30 124.82 183.02 C 126.83 183.71 128.83 184.45 130.82 185.22 C 131.22 184.37 131.68 183.55 132.21 182.78 Z" />
<path fill="#9c8a89" opacity="1.00" d=" M 32.65 181.43 C 34.88 178.72 36.93 175.88 38.90 172.99 C 39.01 173.79 39.22 175.40 39.33 176.21 C 38.82 180.76 38.71 185.36 39.20 189.92 C 36.91 187.18 34.71 184.36 32.65 181.43 Z" />
<path fill="#896a6d" opacity="1.00" d=" M 112.18 178.27 C 116.54 179.44 120.61 181.42 124.82 183.02 C 122.94 184.30 121.03 185.52 119.10 186.71 C 122.31 188.83 125.75 190.56 129.31 192.01 C 128.66 192.63 128.01 193.27 127.38 193.92 C 125.04 193.19 122.56 192.77 120.41 191.58 C 116.35 188.15 114.15 183.09 112.18 178.27 Z" />
<path fill="#8f7476" opacity="1.00" d=" M 130.44 193.62 C 137.27 190.78 141.89 184.53 147.36 179.79 C 147.30 181.47 147.21 183.14 147.10 184.81 C 141.11 189.53 134.78 194.01 129.99 200.02 C 129.16 200.96 128.08 201.62 127.08 202.36 C 125.78 200.59 124.47 198.82 123.16 197.06 C 124.81 196.98 126.45 196.85 128.10 196.71 C 127.11 196.20 126.11 195.72 125.11 195.25 C 125.45 195.15 126.14 194.95 126.48 194.84 C 127.81 194.45 129.14 194.08 130.44 193.62 Z" />
<path fill="#9b8989" opacity="1.00" d=" M 88.22 185.13 C 97.54 186.44 106.44 189.69 115.43 192.34 C 118.66 193.29 122.05 193.77 125.11 195.25 C 126.11 195.72 127.11 196.20 128.10 196.71 C 126.45 196.85 124.81 196.98 123.16 197.06 C 117.06 197.26 111.33 195.03 105.59 193.32 C 101.15 191.97 97.10 189.27 92.33 189.19 C 90.90 187.89 89.52 186.54 88.22 185.13 Z" />
<path fill="#825d62" opacity="1.00" d=" M 129.99 200.02 C 134.78 194.01 141.11 189.53 147.10 184.81 C 147.23 186.08 147.40 187.35 147.59 188.61 C 148.30 188.36 149.70 187.84 150.40 187.59 C 150.99 187.70 152.17 187.92 152.76 188.03 C 153.01 188.21 153.52 188.57 153.77 188.75 C 148.46 192.38 146.08 199.29 140.11 202.19 C 136.65 202.06 133.38 200.67 129.99 200.02 Z" />
<path fill="#836064" opacity="1.00" d=" M 92.33 189.19 C 97.10 189.27 101.15 191.97 105.59 193.32 C 111.33 195.03 117.06 197.26 123.16 197.06 C 124.47 198.82 125.78 200.59 127.08 202.36 C 126.57 202.63 125.54 203.18 125.02 203.45 C 119.92 201.85 114.46 202.02 109.35 200.53 C 103.14 197.70 97.14 194.08 92.33 189.19 Z" />
</svg>
