<?xml version="1.0" encoding="UTF-8" ?>
<!DOCTYPE svg PUBLIC "-//W3C//DTD SVG 1.1//EN" "http://www.w3.org/Graphics/SVG/1.1/DTD/svg11.dtd">
<svg width="128pt" height="146pt" viewBox="0 0 128 146" version="1.1" xmlns="http://www.w3.org/2000/svg">
<path fill="#000000" opacity="1.00" d=" M 41.47 42.65 C 47.11 33.86 52.85 25.11 59.76 17.25 C 60.07 23.81 58.98 30.31 58.33 36.82 C 64.73 32.90 71.46 29.47 78.47 26.79 C 78.39 29.24 78.17 31.70 77.75 34.12 C 84.45 29.30 91.05 24.29 98.28 20.26 C 99.28 19.69 100.37 19.19 101.54 19.54 C 101.74 20.41 101.58 21.21 101.06 21.95 C 98.67 26.15 95.49 29.83 92.35 33.48 C 86.70 39.55 81.28 45.85 75.02 51.33 C 77.63 51.00 80.36 50.43 82.75 51.89 C 80.05 54.84 77.17 57.63 74.76 60.83 C 74.81 65.03 74.87 69.24 74.37 73.42 C 71.98 73.50 69.58 73.50 67.18 73.51 C 65.91 77.26 63.45 80.41 61.76 83.96 C 59.88 87.58 58.81 91.54 57.09 95.24 C 52.32 92.82 46.07 92.95 42.38 88.67 C 37.20 81.68 30.79 75.71 25.63 68.73 C 25.26 68.64 24.50 68.48 24.13 68.40 C 24.81 68.05 25.50 67.71 26.20 67.39 C 26.79 65.63 27.85 63.92 27.73 62.00 C 27.33 52.99 27.88 43.98 28.59 35.00 C 28.72 32.87 29.35 30.82 29.96 28.79 C 31.23 29.16 32.36 29.89 33.08 31.03 C 35.91 34.88 38.73 38.73 41.47 42.65 M 57.70 23.02 C 52.16 30.44 47.02 38.15 42.00 45.93 C 41.55 46.01 40.66 46.18 40.21 46.27 L 40.68 45.13 C 38.15 41.86 35.79 38.47 33.31 35.17 C 32.64 34.07 31.87 33.04 31.00 32.09 C 30.37 39.60 30.26 47.14 29.99 54.67 C 29.61 56.33 29.89 58.08 29.87 59.77 C 30.03 62.71 29.36 65.58 28.13 68.24 C 31.03 71.96 34.46 75.21 37.53 78.77 C 40.22 81.99 42.75 85.35 45.53 88.49 C 48.83 90.47 52.72 91.19 56.44 92.00 C 58.00 85.18 61.60 79.10 65.21 73.20 C 66.72 70.54 70.18 71.50 72.66 71.25 C 72.53 67.38 72.47 63.51 72.58 59.64 C 74.75 57.63 76.58 55.30 78.38 52.97 C 76.02 53.19 73.65 53.39 71.28 53.51 C 72.02 49.72 76.13 47.97 78.31 45.03 C 80.01 43.85 81.34 42.23 82.74 40.73 C 87.97 34.89 93.70 29.44 98.19 22.98 C 96.01 24.40 92.83 24.92 91.51 27.35 C 87.75 29.41 84.10 31.91 80.99 34.89 C 78.80 35.60 76.99 37.02 75.15 38.35 C 75.41 35.69 75.42 33.00 75.63 30.33 C 73.59 31.33 71.55 32.30 69.48 33.23 L 69.54 33.32 C 69.11 33.58 68.26 34.10 67.84 34.37 C 65.43 35.30 63.16 36.54 60.88 37.75 C 59.38 38.66 57.81 39.47 56.32 40.41 C 55.85 34.90 57.51 29.49 57.30 23.98 C 57.40 23.74 57.60 23.26 57.70 23.02 Z" />
<path fill="#fffec9" opacity="1.00" d=" M 57.70 23.02 C 57.60 23.26 57.40 23.74 57.30 23.98 C 56.37 26.13 55.45 28.29 54.71 30.51 C 51.44 35.95 47.70 41.08 44.47 46.55 C 43.50 48.34 41.70 49.36 40.05 50.42 C 40.42 48.82 41.10 47.30 42.00 45.93 C 47.02 38.15 52.16 30.44 57.70 23.02 Z" />
<path fill="#6f3f45" opacity="1.00" d=" M 91.51 27.35 C 92.83 24.92 96.01 24.40 98.19 22.98 C 93.70 29.44 87.97 34.89 82.74 40.73 C 81.34 42.23 80.01 43.85 78.31 45.03 C 76.61 45.19 74.91 45.29 73.21 45.39 C 73.90 43.06 74.64 40.73 75.15 38.35 C 76.99 37.02 78.80 35.60 80.99 34.89 C 80.78 35.58 80.34 36.95 80.12 37.64 C 84.76 34.43 88.24 29.84 93.07 26.87 L 91.51 27.35 Z" />
<path fill="#846265" opacity="1.00" d=" M 54.71 30.51 C 55.45 28.29 56.37 26.13 57.30 23.98 C 57.51 29.49 55.85 34.90 56.32 40.41 C 56.38 43.13 56.46 45.98 55.40 48.54 C 54.16 50.01 52.53 51.10 50.97 52.21 C 51.90 44.91 54.94 37.96 54.71 30.51 Z" />
<path fill="#fffec9" opacity="1.00" d=" M 80.99 34.89 C 84.10 31.91 87.75 29.41 91.51 27.35 L 93.07 26.87 C 88.24 29.84 84.76 34.43 80.12 37.64 C 80.34 36.95 80.78 35.58 80.99 34.89 Z" />
<path fill="#9a8686" opacity="1.00" d=" M 44.47 46.55 C 47.70 41.08 51.44 35.95 54.71 30.51 C 54.94 37.96 51.90 44.91 50.97 52.21 C 49.18 53.36 47.03 53.48 45.00 53.86 C 43.58 54.16 42.33 54.93 41.08 55.59 C 40.72 53.87 40.33 52.16 40.05 50.42 C 41.70 49.36 43.50 48.34 44.47 46.55 Z" />
<path fill="#65353d" opacity="1.00" d=" M 69.48 33.23 C 71.55 32.30 73.59 31.33 75.63 30.33 C 75.42 33.00 75.41 35.69 75.15 38.35 C 74.64 40.73 73.90 43.06 73.21 45.39 C 74.91 45.29 76.61 45.19 78.31 45.03 C 76.13 47.97 72.02 49.72 71.28 53.51 C 73.65 53.39 76.02 53.19 78.38 52.97 C 76.58 55.30 74.75 57.63 72.58 59.64 C 72.47 63.51 72.53 67.38 72.66 71.25 C 70.18 71.50 66.72 70.54 65.21 73.20 C 61.60 79.10 58.00 85.18 56.44 92.00 C 52.72 91.19 48.83 90.47 45.53 88.49 C 42.75 85.35 40.22 81.99 37.53 78.77 C 38.16 77.14 38.81 75.52 39.48 73.90 C 39.90 73.75 40.72 73.45 41.13 73.30 C 43.70 71.85 45.67 69.56 48.22 68.08 C 47.74 69.53 47.24 70.98 46.71 72.41 C 45.47 75.75 44.19 79.08 43.15 82.49 C 46.99 79.29 50.53 75.72 54.65 72.86 C 55.05 72.56 55.85 71.95 56.25 71.64 C 56.86 70.10 57.45 68.50 58.68 67.33 C 61.26 65.11 63.37 62.34 64.26 59.01 C 65.71 53.46 67.29 47.92 69.56 42.64 C 70.82 39.73 71.79 36.02 69.54 33.32 L 69.48 33.23 Z" />
<path fill="#fffec9" opacity="1.00" d=" M 31.00 32.09 C 31.87 33.04 32.64 34.07 33.31 35.17 C 32.12 41.65 32.81 48.57 29.99 54.67 C 30.26 47.14 30.37 39.60 31.00 32.09 Z" />
<path fill="#8f7577" opacity="1.00" d=" M 67.84 34.37 C 68.26 34.10 69.11 33.58 69.54 33.32 C 71.79 36.02 70.82 39.73 69.56 42.64 C 67.29 47.92 65.71 53.46 64.26 59.01 C 62.32 58.47 60.36 57.98 58.42 57.43 C 58.10 57.84 57.47 58.67 57.15 59.09 C 56.76 58.55 55.98 57.46 55.59 56.92 C 55.80 55.21 55.90 53.48 56.29 51.80 C 58.39 48.66 59.94 45.19 62.09 42.10 C 64.25 39.70 66.66 37.46 67.84 34.37 Z" />
<path fill="#9a8687" opacity="1.00" d=" M 33.31 35.17 C 35.79 38.47 38.15 41.86 40.68 45.13 L 40.21 46.27 C 38.18 51.60 35.68 57.66 29.87 59.77 C 29.89 58.08 29.61 56.33 29.99 54.67 C 32.81 48.57 32.12 41.65 33.31 35.17 Z" />
<path fill="#fffec9" opacity="1.00" d=" M 60.88 37.75 C 63.16 36.54 65.43 35.30 67.84 34.37 C 66.66 37.46 64.25 39.70 62.09 42.10 C 59.94 45.19 58.39 48.66 56.29 51.80 C 57.52 47.02 59.35 42.43 60.88 37.75 Z" />
<path fill="#75484e" opacity="1.00" d=" M 56.32 40.41 C 57.81 39.47 59.38 38.66 60.88 37.75 C 59.35 42.43 57.52 47.02 56.29 51.80 C 55.90 53.48 55.80 55.21 55.59 56.92 C 54.00 56.01 52.25 54.57 50.32 55.33 C 46.27 56.35 43.31 62.91 47.48 65.61 C 50.37 67.80 54.29 66.46 56.70 64.21 C 57.36 65.25 58.02 66.29 58.68 67.33 C 57.45 68.50 56.86 70.10 56.25 71.64 C 54.37 69.08 51.39 67.73 48.22 68.08 C 45.67 69.56 43.70 71.85 41.13 73.30 C 39.20 69.83 35.97 65.93 37.74 61.74 C 39.92 57.83 44.42 56.23 47.72 53.46 C 47.04 53.56 45.68 53.76 45.00 53.86 C 47.03 53.48 49.18 53.36 50.97 52.21 C 52.53 51.10 54.16 50.01 55.40 48.54 C 56.46 45.98 56.38 43.13 56.32 40.41 Z" />
<path fill="#866367" opacity="1.00" d=" M 40.21 46.27 C 40.66 46.18 41.55 46.01 42.00 45.93 C 41.10 47.30 40.42 48.82 40.05 50.42 C 40.33 52.16 40.72 53.87 41.08 55.59 C 38.50 57.78 35.53 60.36 35.35 63.99 C 35.16 67.76 37.43 70.96 39.48 73.90 C 38.81 75.52 38.16 77.14 37.53 78.77 C 34.46 75.21 31.03 71.96 28.13 68.24 C 29.36 65.58 30.03 62.71 29.87 59.77 C 35.68 57.66 38.18 51.60 40.21 46.27 Z" />
<path fill="#000000" opacity="1.00" d=" M 41.08 55.59 C 42.33 54.93 43.58 54.16 45.00 53.86 C 45.68 53.76 47.04 53.56 47.72 53.46 C 44.42 56.23 39.92 57.83 37.74 61.74 C 35.97 65.93 39.20 69.83 41.13 73.30 C 40.72 73.45 39.90 73.75 39.48 73.90 C 37.43 70.96 35.16 67.76 35.35 63.99 C 35.53 60.36 38.50 57.78 41.08 55.59 Z" />
<path fill="#000000" opacity="1.00" d=" M 50.32 55.33 C 52.25 54.57 54.00 56.01 55.59 56.92 C 55.98 57.46 56.76 58.55 57.15 59.09 C 57.75 60.82 57.67 62.63 56.70 64.21 C 54.29 66.46 50.37 67.80 47.48 65.61 C 43.31 62.91 46.27 56.35 50.32 55.33 M 49.51 57.67 C 47.54 58.84 46.28 61.52 47.57 63.64 C 49.96 65.82 54.65 64.96 55.89 61.88 C 56.02 58.81 52.33 55.86 49.51 57.67 Z" />
<path fill="#62ffea" opacity="1.00" d=" M 49.51 57.67 C 52.33 55.86 56.02 58.81 55.89 61.88 C 54.65 64.96 49.96 65.82 47.57 63.64 C 46.28 61.52 47.54 58.84 49.51 57.67 Z" />
<path fill="#846467" opacity="1.00" d=" M 58.42 57.43 C 60.36 57.98 62.32 58.47 64.26 59.01 C 63.37 62.34 61.26 65.11 58.68 67.33 C 58.02 66.29 57.36 65.25 56.70 64.21 C 57.67 62.63 57.75 60.82 57.15 59.09 C 57.47 58.67 58.10 57.84 58.42 57.43 Z" />
<path fill="#7e5d61" opacity="1.00" d=" M 48.22 68.08 C 51.39 67.73 54.37 69.08 56.25 71.64 C 55.85 71.95 55.05 72.56 54.65 72.86 C 52.16 71.45 49.36 71.80 46.71 72.41 C 47.24 70.98 47.74 69.53 48.22 68.08 Z" />
<path fill="#90777a" opacity="1.00" d=" M 46.71 72.41 C 49.36 71.80 52.16 71.45 54.65 72.86 C 50.53 75.72 46.99 79.29 43.15 82.49 C 44.19 79.08 45.47 75.75 46.71 72.41 Z" />
<path fill="#000000" opacity="1.00" d=" M 50.59 128.90 C 57.39 128.08 64.19 127.21 71.01 126.67 C 73.27 126.75 76.15 126.18 77.78 128.16 C 78.36 130.55 75.61 131.31 73.92 131.98 C 68.52 133.62 62.90 134.52 57.28 134.87 C 51.75 135.16 46.20 135.77 40.69 134.93 C 39.72 134.56 38.92 133.93 38.29 133.04 C 41.55 129.84 46.41 129.88 50.59 128.90 Z" />
<path fill="#000000" opacity="0.40" d=" M 40.69 134.93 C 46.20 135.77 51.75 135.16 57.28 134.87 C 53.22 137.19 48.29 137.25 43.78 136.68 C 42.49 136.66 41.60 135.69 40.69 134.93 Z" />
</svg>
