<?xml version="1.0" encoding="UTF-8" ?>
<!DOCTYPE svg PUBLIC "-//W3C//DTD SVG 1.1//EN" "http://www.w3.org/Graphics/SVG/1.1/DTD/svg11.dtd">
<svg width="266pt" height="158pt" viewBox="0 0 266 158" version="1.1" xmlns="http://www.w3.org/2000/svg">
<path fill="#000000" opacity="1.00" d=" M 121.06 13.00 C 124.02 12.54 127.06 10.63 129.99 12.20 C 135.75 13.11 140.85 16.21 144.85 20.37 C 150.44 18.68 156.38 19.24 162.11 19.63 C 168.62 20.35 175.61 21.79 180.38 26.63 C 188.54 34.68 191.14 47.27 187.29 58.02 C 190.00 59.34 192.72 61.68 192.81 64.92 C 193.07 67.00 192.16 68.94 191.38 70.80 C 193.34 73.20 194.62 76.02 195.73 78.89 C 200.10 75.93 204.74 73.24 208.43 69.40 C 209.40 68.36 210.54 67.50 211.80 66.84 C 211.78 76.62 206.17 85.15 202.28 93.80 C 210.54 102.30 217.21 112.87 219.84 124.53 C 229.60 125.16 239.35 126.77 248.85 129.09 C 250.78 129.23 253.41 131.69 250.91 133.11 C 247.53 134.65 243.71 134.57 240.11 135.14 C 224.43 136.38 208.73 137.13 193.06 138.41 C 185.81 138.64 178.56 139.48 171.31 138.72 C 171.30 141.37 174.38 145.33 170.97 146.85 C 169.19 147.94 167.02 147.75 165.03 147.83 C 154.98 147.73 144.87 148.28 134.90 146.73 C 129.73 146.54 124.73 145.27 119.96 143.33 C 110.92 142.87 101.81 145.24 92.83 143.70 C 89.70 145.25 86.48 146.66 83.59 148.64 C 81.04 150.39 79.49 153.20 76.99 154.98 C 72.78 153.71 69.32 150.54 65.41 148.52 C 64.07 147.49 62.47 148.57 61.20 149.15 C 58.51 150.43 56.46 152.65 54.74 155.03 C 49.20 153.25 46.17 147.87 43.30 143.22 C 36.34 144.92 29.16 145.65 22.00 145.73 C 20.75 145.74 19.01 145.85 18.52 144.34 C 18.42 140.47 18.65 136.59 19.12 132.74 C 19.58 129.28 20.97 126.04 22.53 122.94 C 21.56 121.12 20.31 119.23 20.66 117.06 C 21.17 110.73 22.00 104.23 24.78 98.45 C 26.09 96.36 28.15 94.90 29.88 93.18 C 27.95 89.34 25.58 84.69 27.68 80.42 C 29.54 76.90 33.36 75.03 37.03 73.97 C 35.60 69.46 36.18 64.65 36.26 60.01 C 36.29 56.71 38.24 53.74 40.91 51.92 C 46.29 48.15 53.02 46.08 59.60 46.83 C 63.19 38.23 66.99 28.39 75.77 23.86 C 85.06 19.51 95.66 19.71 105.69 19.83 C 109.80 15.76 115.50 13.98 121.06 13.00 M 113.07 17.87 C 111.96 18.35 110.89 18.92 109.82 19.48 C 108.94 20.03 108.07 20.59 107.20 21.14 L 107.36 21.67 C 97.94 22.97 88.07 21.56 79.04 25.16 C 71.54 27.84 67.23 35.24 64.34 42.22 C 62.94 44.30 62.12 46.69 61.22 49.01 C 54.70 48.17 47.97 50.03 42.52 53.63 C 40.31 55.07 38.63 57.44 38.54 60.15 C 38.23 65.11 38.29 70.10 38.82 75.04 C 35.71 76.67 32.16 78.02 30.05 80.99 C 28.85 82.66 29.46 84.81 29.62 86.69 L 29.64 87.88 C 30.82 89.97 32.00 92.06 33.34 94.05 C 32.49 98.01 31.46 102.60 33.66 106.30 C 37.64 110.56 44.07 109.20 49.25 110.16 C 52.58 109.06 55.42 106.59 58.96 105.93 C 66.82 103.22 75.81 105.64 82.12 110.78 C 86.28 115.11 92.28 116.98 98.01 118.14 C 103.90 119.21 108.27 114.26 112.56 111.09 L 112.61 110.77 C 116.37 108.09 119.91 105.10 123.10 101.76 C 134.18 104.91 145.85 105.59 157.26 104.23 C 160.53 103.59 164.11 103.03 166.49 100.45 C 171.14 95.69 174.89 90.13 178.89 84.82 C 181.40 81.63 182.39 77.65 184.03 74.01 C 185.99 71.52 188.81 69.81 190.68 67.20 C 191.03 63.49 188.33 60.92 185.40 59.21 C 185.55 57.88 185.70 56.55 185.85 55.22 C 187.19 47.68 186.63 39.47 182.15 33.02 C 178.99 27.49 173.27 23.84 167.01 22.94 C 159.93 21.86 152.55 20.71 145.49 22.48 C 141.40 21.40 138.73 17.69 134.79 16.23 C 127.76 13.42 119.90 15.38 113.07 17.87 M 196.26 80.89 C 196.41 81.67 196.69 83.23 196.83 84.01 C 197.67 86.91 196.64 91.64 200.71 92.15 C 202.64 88.15 204.69 84.21 206.34 80.08 C 207.50 77.44 208.51 74.74 209.42 72.00 C 205.31 75.35 201.07 78.60 196.26 80.89 M 186.31 73.75 C 184.34 83.27 177.60 90.49 171.92 97.99 C 169.74 100.72 167.22 103.20 164.25 105.08 C 160.68 106.24 156.91 106.44 153.25 107.20 C 143.38 107.87 133.42 106.88 123.86 104.29 C 119.35 108.64 114.52 112.64 109.56 116.46 C 106.98 118.34 104.21 120.40 100.90 120.57 C 96.45 120.86 92.21 119.19 88.24 117.39 C 90.28 121.62 91.07 126.26 90.82 130.93 C 90.46 135.47 87.94 139.31 84.86 142.49 C 79.34 145.35 72.79 144.84 66.96 146.88 C 69.94 149.10 73.37 150.60 76.36 152.80 C 79.47 149.27 82.79 145.75 87.25 143.95 C 95.04 139.23 104.06 137.77 112.69 135.41 C 110.92 132.94 109.68 130.15 108.75 127.26 C 108.47 122.85 109.87 118.22 113.45 115.42 C 118.63 111.24 125.19 108.08 132.00 108.62 C 135.83 108.88 139.97 108.79 143.40 110.78 C 144.41 111.53 145.50 112.09 146.68 112.46 C 149.71 114.27 152.72 116.13 155.47 118.35 C 157.70 120.17 159.72 122.22 161.88 124.11 C 162.73 125.33 163.98 124.46 165.02 124.06 C 171.84 121.10 177.76 116.43 183.06 111.28 C 186.64 107.71 190.11 103.93 192.50 99.44 L 192.79 99.44 C 197.68 91.49 194.50 82.07 191.40 74.10 L 191.40 74.67 C 190.92 74.05 189.97 72.79 189.49 72.16 C 188.69 72.55 187.10 73.35 186.31 73.75 M 193.07 103.71 C 190.13 107.25 187.21 110.82 183.96 114.07 C 189.49 118.98 196.96 120.56 203.61 123.39 C 208.34 125.22 213.23 126.63 218.23 127.49 C 217.40 124.53 216.51 121.58 215.74 118.60 L 215.41 118.52 C 212.23 110.06 206.98 102.49 200.97 95.80 C 199.92 94.89 198.86 93.98 197.81 93.08 C 196.58 96.77 195.20 100.43 193.07 103.71 M 26.67 98.95 C 25.51 102.79 24.25 106.63 23.87 110.64 C 23.76 110.88 23.55 111.34 23.44 111.58 C 23.34 114.00 22.84 116.43 23.09 118.86 C 23.96 121.28 26.12 122.91 27.86 124.71 L 28.26 124.65 C 31.83 128.17 35.92 131.10 39.92 134.10 C 39.46 130.78 39.23 127.42 39.56 124.07 C 39.75 123.65 40.13 122.81 40.32 122.39 C 41.51 118.38 44.24 115.14 47.18 112.27 C 42.20 111.73 36.49 112.19 32.56 108.50 C 29.65 105.65 30.33 101.27 30.15 97.58 C 30.31 96.99 30.62 95.79 30.77 95.20 C 29.35 96.39 28.00 97.66 26.67 98.95 M 59.34 108.13 L 59.34 108.47 C 58.10 108.85 56.85 109.21 55.60 109.57 C 52.51 111.32 49.34 113.15 47.13 116.01 C 43.91 118.85 41.88 123.13 41.70 127.42 L 41.44 127.81 C 42.07 137.40 46.43 146.93 54.01 152.99 C 56.08 150.39 58.45 148.12 61.16 146.19 C 65.64 145.62 69.84 143.82 74.29 143.09 C 78.04 142.28 82.79 142.75 85.23 139.17 C 88.80 134.32 88.86 127.76 87.56 122.09 C 85.51 116.97 81.62 112.74 76.83 110.06 C 74.57 109.13 72.32 108.12 69.92 107.61 C 66.39 107.13 62.80 107.27 59.34 108.13 M 125.90 111.56 C 125.33 111.65 124.18 111.84 123.61 111.94 L 123.54 112.26 C 118.79 114.25 113.56 116.84 111.53 121.93 C 110.82 124.81 110.90 127.89 112.44 130.50 C 115.27 135.38 118.61 140.78 124.34 142.52 C 130.80 144.52 137.69 144.77 144.40 145.18 C 152.99 145.92 161.67 145.61 170.29 145.51 C 169.57 141.45 168.54 137.43 166.86 133.65 L 166.38 133.69 C 163.83 128.75 159.44 125.14 155.56 121.28 C 154.28 120.30 153.01 119.31 151.76 118.30 C 149.86 117.03 147.89 115.87 145.90 114.74 C 141.27 111.90 135.91 111.02 130.56 110.85 C 129.01 111.09 127.45 111.32 125.90 111.56 M 180.24 117.20 C 180.53 118.70 182.89 118.40 183.88 117.77 C 184.82 115.65 180.57 115.08 180.24 117.20 M 22.30 129.19 C 21.56 131.88 20.82 134.63 21.12 137.46 C 20.89 138.68 20.76 139.92 20.72 141.17 C 20.71 141.71 20.69 142.78 20.68 143.32 C 25.64 143.72 30.61 143.02 35.53 142.35 C 37.86 142.00 40.20 141.64 42.53 141.24 C 41.54 136.30 36.28 134.54 32.73 131.73 C 29.81 129.37 27.08 126.77 24.06 124.52 C 23.44 126.07 22.82 127.61 22.30 129.19 Z" />
<path fill="#5892a3" opacity="1.00" d=" M 113.07 17.87 C 119.90 15.38 127.76 13.42 134.79 16.23 C 138.73 17.69 141.40 21.40 145.49 22.48 C 147.61 29.88 148.76 37.59 148.57 45.31 C 146.60 39.84 145.07 34.06 141.69 29.25 C 135.08 20.79 123.83 15.51 113.07 17.87 Z" />
<path fill="#7acd71" opacity="1.00" d=" M 109.82 19.48 C 110.89 18.92 111.96 18.35 113.07 17.87 C 123.83 15.51 135.08 20.79 141.69 29.25 C 145.07 34.06 146.60 39.84 148.57 45.31 C 148.62 46.46 148.67 47.62 148.72 48.77 C 148.87 52.92 148.88 57.10 148.20 61.21 C 148.09 61.78 147.87 62.92 147.76 63.49 C 146.97 66.07 144.69 68.71 146.20 71.47 C 144.74 72.55 143.36 73.72 142.03 74.94 C 137.15 79.08 132.26 83.29 126.91 86.83 C 123.69 89.00 119.13 88.58 116.77 85.36 C 121.33 80.65 126.10 76.06 130.19 70.93 C 124.86 74.40 121.06 79.56 116.79 84.16 C 116.63 81.56 117.39 79.07 118.51 76.77 C 120.13 73.81 120.39 70.41 120.47 67.10 C 123.00 64.91 125.56 61.60 124.22 58.06 C 123.27 55.10 120.04 54.21 117.30 53.88 C 120.58 49.31 123.82 43.26 121.36 37.60 C 120.37 35.24 117.63 36.17 115.67 36.32 C 115.80 34.98 115.93 33.64 116.04 32.29 C 116.39 33.47 117.04 34.38 117.99 35.03 C 118.21 34.89 118.63 34.62 118.85 34.48 C 117.76 30.51 116.48 25.98 112.80 23.63 C 112.82 24.20 112.85 25.33 112.87 25.90 C 111.77 24.55 110.62 23.26 109.49 21.94 C 109.57 21.32 109.74 20.09 109.82 19.48 Z" />
<path fill="#69af8a" opacity="1.00" d=" M 107.20 21.14 C 108.07 20.59 108.94 20.03 109.82 19.48 C 109.74 20.09 109.57 21.32 109.49 21.94 C 110.62 23.26 111.77 24.55 112.87 25.90 C 114.05 27.97 115.18 30.07 116.04 32.29 C 115.93 33.64 115.80 34.98 115.67 36.32 C 113.53 37.82 111.59 39.60 109.99 41.68 C 109.79 34.94 109.74 28.09 107.36 21.67 L 107.20 21.14 Z" />
<path fill="#7cd06f" opacity="1.00" d=" M 79.04 25.16 C 88.07 21.56 97.94 22.97 107.36 21.67 C 109.74 28.09 109.79 34.94 109.99 41.68 C 108.28 44.86 107.17 48.33 106.23 51.81 C 103.47 51.50 100.41 51.22 98.15 53.19 C 95.93 54.89 93.59 57.07 93.15 59.97 C 92.82 62.73 95.99 63.40 97.88 64.31 C 95.04 67.10 91.26 70.93 92.69 75.25 C 95.23 78.58 99.77 75.84 102.46 74.16 C 102.62 78.27 97.76 78.49 94.84 79.31 C 95.35 81.01 95.61 82.88 96.74 84.32 C 98.30 86.50 101.08 87.08 103.41 88.06 C 98.49 91.02 93.77 94.26 89.05 97.50 C 83.31 100.49 77.17 102.86 70.76 103.88 C 76.24 101.10 82.40 99.76 87.53 96.28 C 85.39 95.62 83.24 94.99 81.02 94.70 C 75.01 94.13 69.15 92.40 63.52 90.31 C 59.90 86.79 56.34 83.16 51.82 80.77 C 53.89 80.77 56.63 81.02 57.77 78.84 C 59.25 76.06 57.32 72.70 54.97 71.08 C 53.29 69.81 51.13 70.85 49.29 71.01 C 51.93 67.84 54.87 64.30 54.86 59.94 C 55.12 57.98 53.14 55.71 51.12 56.77 C 48.59 58.13 47.68 61.04 46.56 63.49 C 40.58 63.52 38.77 72.18 42.84 75.81 C 42.09 77.22 41.31 78.62 40.61 80.06 C 36.14 80.34 31.43 82.28 29.62 86.69 C 29.46 84.81 28.85 82.66 30.05 80.99 C 32.16 78.02 35.71 76.67 38.82 75.04 C 38.29 70.10 38.23 65.11 38.54 60.15 C 38.63 57.44 40.31 55.07 42.52 53.63 C 47.97 50.03 54.70 48.17 61.22 49.01 L 62.60 49.14 C 65.25 46.59 67.15 43.33 68.04 39.76 C 66.78 40.54 65.53 41.33 64.34 42.22 C 67.23 35.24 71.54 27.84 79.04 25.16 M 77.53 30.51 C 74.75 32.03 75.21 35.45 75.05 38.11 C 78.16 39.82 82.16 38.36 83.16 34.88 C 84.71 31.70 80.24 28.30 77.53 30.51 M 73.32 42.41 C 71.78 43.74 74.14 46.15 75.47 44.59 C 76.84 43.29 74.64 41.08 73.32 42.41 Z" />
<path fill="#78c975" opacity="1.00" d=" M 145.49 22.48 C 152.55 20.71 159.93 21.86 167.01 22.94 C 173.27 23.84 178.99 27.49 182.15 33.02 C 186.63 39.47 187.19 47.68 185.85 55.22 C 180.66 58.55 175.53 63.31 168.97 63.05 C 163.72 62.97 159.40 59.61 155.35 56.67 C 152.62 54.51 150.67 51.60 148.72 48.77 C 148.67 47.62 148.62 46.46 148.57 45.31 C 148.76 37.59 147.61 29.88 145.49 22.48 M 164.46 34.69 C 162.42 35.72 161.70 38.88 163.48 40.48 C 165.36 42.60 169.17 41.57 169.97 38.93 C 170.32 36.09 167.24 33.14 164.46 34.69 Z" />
<path fill="#fffcc2" opacity="1.00" d=" M 112.80 23.63 C 116.48 25.98 117.76 30.51 118.85 34.48 C 118.63 34.62 118.21 34.89 117.99 35.03 C 117.04 34.38 116.39 33.47 116.04 32.29 C 115.18 30.07 114.05 27.97 112.87 25.90 C 112.85 25.33 112.82 24.20 112.80 23.63 Z" />
<path fill="#f4ffb9" opacity="1.00" d=" M 77.53 30.51 C 80.24 28.30 84.71 31.70 83.16 34.88 C 82.16 38.36 78.16 39.82 75.05 38.11 C 75.21 35.45 74.75 32.03 77.53 30.51 Z" />
<path fill="#000000" opacity="1.00" d=" M 164.46 34.69 C 167.24 33.14 170.32 36.09 169.97 38.93 C 169.17 41.57 165.36 42.60 163.48 40.48 C 161.70 38.88 162.42 35.72 164.46 34.69 M 165.64 35.59 C 164.44 36.23 163.85 37.56 164.09 38.88 C 165.09 40.72 168.02 40.02 168.62 38.18 C 168.23 36.96 167.30 34.72 165.64 35.59 Z" />
<path fill="#ff6774" opacity="1.00" d=" M 165.64 35.59 C 167.30 34.72 168.23 36.96 168.62 38.18 C 168.02 40.02 165.09 40.72 164.09 38.88 C 163.85 37.56 164.44 36.23 165.64 35.59 Z" />
<path fill="#000000" opacity="1.00" d=" M 115.67 36.32 C 117.63 36.17 120.37 35.24 121.36 37.60 C 123.82 43.26 120.58 49.31 117.30 53.88 C 120.04 54.21 123.27 55.10 124.22 58.06 C 125.56 61.60 123.00 64.91 120.47 67.10 C 119.85 67.45 118.63 68.16 118.01 68.52 C 114.37 70.12 109.47 70.64 107.20 66.63 C 106.08 69.41 104.34 71.85 102.46 74.16 C 99.77 75.84 95.23 78.58 92.69 75.25 C 91.26 70.93 95.04 67.10 97.88 64.31 C 95.99 63.40 92.82 62.73 93.15 59.97 C 93.59 57.07 95.93 54.89 98.15 53.19 C 100.41 51.22 103.47 51.50 106.23 51.81 C 107.17 48.33 108.28 44.86 109.99 41.68 C 111.59 39.60 113.53 37.82 115.67 36.32 M 112.38 42.41 C 109.91 46.06 108.58 50.43 108.24 54.81 L 109.10 54.28 C 109.87 54.63 111.39 55.33 112.15 55.68 C 115.64 52.67 118.67 48.92 119.67 44.31 C 119.88 42.28 119.81 40.23 119.55 38.21 C 116.48 37.79 114.03 40.11 112.38 42.41 M 95.15 59.62 L 94.75 59.54 C 95.66 62.11 98.79 62.47 101.12 62.03 C 101.63 60.89 102.08 59.73 102.48 58.54 C 104.11 57.52 105.58 56.24 107.12 55.08 C 105.45 54.50 103.80 53.22 101.93 53.69 C 98.92 54.59 96.87 57.15 95.15 59.62 M 103.52 62.51 C 106.98 65.15 112.09 61.77 111.78 57.63 C 110.32 57.20 108.65 55.49 107.14 56.69 C 105.30 57.87 101.87 59.94 103.52 62.51 M 113.60 57.55 C 113.51 59.61 112.98 61.64 111.49 63.14 C 110.46 63.74 109.45 64.37 108.44 65.00 C 110.22 69.23 115.13 67.67 118.25 66.07 C 120.59 64.31 123.83 61.34 121.92 58.18 C 120.03 55.24 116.18 56.31 113.60 57.55 M 96.84 68.05 C 96.59 68.21 96.10 68.51 95.86 68.67 C 94.86 70.61 94.01 72.65 94.17 74.89 C 94.99 74.89 95.80 74.87 96.62 74.81 C 100.54 74.17 103.08 70.81 104.85 67.55 L 105.01 67.63 C 105.24 66.83 105.47 66.03 105.71 65.24 C 104.50 64.70 103.30 64.17 102.10 63.65 C 100.14 64.84 98.15 66.12 96.84 68.05 Z" />
<path fill="#ffffff" opacity="1.00" d=" M 112.38 42.41 C 114.03 40.11 116.48 37.79 119.55 38.21 C 119.81 40.23 119.88 42.28 119.67 44.31 C 115.37 46.72 112.24 50.58 109.10 54.28 L 108.24 54.81 C 108.58 50.43 109.91 46.06 112.38 42.41 Z" />
<path fill="#fffcc2" opacity="1.00" d=" M 64.34 42.22 C 65.53 41.33 66.78 40.54 68.04 39.76 C 67.15 43.33 65.25 46.59 62.60 49.14 L 61.22 49.01 C 62.12 46.69 62.94 44.30 64.34 42.22 Z" />
<path fill="#caeda1" opacity="1.00" d=" M 73.32 42.41 C 74.64 41.08 76.84 43.29 75.47 44.59 C 74.14 46.15 71.78 43.74 73.32 42.41 Z" />
<path fill="#b4bcd2" opacity="1.00" d=" M 109.10 54.28 C 112.24 50.58 115.37 46.72 119.67 44.31 C 118.67 48.92 115.64 52.67 112.15 55.68 C 111.39 55.33 109.87 54.63 109.10 54.28 Z" />
<path fill="#2a61a2" opacity="1.00" d=" M 148.72 48.77 C 150.67 51.60 152.62 54.51 155.35 56.67 C 155.59 59.00 155.83 61.33 156.07 63.66 C 163.37 63.91 170.67 64.38 177.98 63.90 C 182.50 63.48 186.81 64.98 190.68 67.20 C 188.81 69.81 185.99 71.52 184.03 74.01 C 182.39 77.65 181.40 81.63 178.89 84.82 C 174.89 90.13 171.14 95.69 166.49 100.45 C 164.11 103.03 160.53 103.59 157.26 104.23 C 156.13 103.48 155.00 102.72 153.86 101.97 C 155.74 99.20 157.78 96.53 160.17 94.17 C 161.75 92.56 163.22 90.84 164.58 89.03 L 163.10 88.95 C 163.50 88.55 163.91 88.14 164.30 87.73 C 165.40 87.52 166.58 87.25 167.17 86.18 C 169.82 82.74 170.46 78.32 171.10 74.15 C 168.92 74.15 166.73 74.14 164.55 74.13 C 162.41 70.80 159.04 68.26 154.99 67.97 C 151.24 67.92 150.25 63.61 148.20 61.21 C 148.88 57.10 148.87 52.92 148.72 48.77 Z" />
<path fill="#ffffff" opacity="1.00" d=" M 95.15 59.62 C 96.87 57.15 98.92 54.59 101.93 53.69 C 103.80 53.22 105.45 54.50 107.12 55.08 C 105.58 56.24 104.11 57.52 102.48 58.54 C 100.13 59.23 97.63 60.48 95.15 59.62 Z" />
<path fill="#2e66a4" opacity="1.00" d=" M 168.97 63.05 C 175.53 63.31 180.66 58.55 185.85 55.22 C 185.70 56.55 185.55 57.88 185.40 59.21 C 188.33 60.92 191.03 63.49 190.68 67.20 C 186.81 64.98 182.50 63.48 177.98 63.90 C 170.67 64.38 163.37 63.91 156.07 63.66 C 155.83 61.33 155.59 59.00 155.35 56.67 C 159.40 59.61 163.72 62.97 168.97 63.05 Z" />
<path fill="#000000" opacity="1.00" d=" M 46.56 63.49 C 47.68 61.04 48.59 58.13 51.12 56.77 C 53.14 55.71 55.12 57.98 54.86 59.94 C 54.87 64.30 51.93 67.84 49.29 71.01 C 51.13 70.85 53.29 69.81 54.97 71.08 C 57.32 72.70 59.25 76.06 57.77 78.84 C 56.63 81.02 53.89 80.77 51.82 80.77 C 51.40 80.47 50.56 79.87 50.13 79.57 C 49.21 78.11 47.44 79.11 47.94 80.67 C 47.96 83.55 45.69 87.26 42.44 86.58 C 39.70 85.55 40.25 82.33 40.61 80.06 C 41.31 78.62 42.09 77.22 42.84 75.81 C 38.77 72.18 40.58 63.52 46.56 63.49 M 48.64 67.38 C 52.24 65.98 53.25 61.50 52.61 58.05 C 49.33 59.81 48.01 63.85 48.64 67.38 M 45.02 73.63 C 45.40 70.70 47.88 67.64 45.13 65.08 C 41.70 66.34 39.75 73.85 45.02 73.63 M 47.19 74.71 C 48.54 74.44 48.50 72.03 47.92 71.02 C 46.55 71.28 46.60 73.71 47.19 74.71 M 49.92 72.77 C 49.65 74.19 49.36 75.61 49.06 77.02 C 50.99 78.66 53.43 79.13 55.89 78.84 L 55.43 78.60 C 58.00 76.55 55.04 73.63 53.28 72.27 C 52.44 72.40 50.76 72.64 49.92 72.77 M 42.36 84.75 C 46.73 84.58 46.27 79.15 46.27 76.05 C 42.80 76.91 42.23 81.70 42.36 84.75 Z" />
<path fill="#ffd367" opacity="1.00" d=" M 103.52 62.51 C 101.87 59.94 105.30 57.87 107.14 56.69 C 108.65 55.49 110.32 57.20 111.78 57.63 C 112.09 61.77 106.98 65.15 103.52 62.51 Z" />
<path fill="#fbfbfc" opacity="1.00" d=" M 113.60 57.55 C 116.18 56.31 120.03 55.24 121.92 58.18 C 123.83 61.34 120.59 64.31 118.25 66.07 C 115.88 65.39 113.44 64.73 111.49 63.14 C 112.98 61.64 113.51 59.61 113.60 57.55 Z" />
<path fill="#ffffff" opacity="1.00" d=" M 48.64 67.38 C 48.01 63.85 49.33 59.81 52.61 58.05 C 53.25 61.50 52.24 65.98 48.64 67.38 Z" />
<path fill="#8b95ad" opacity="1.00" d=" M 94.75 59.54 L 95.15 59.62 C 97.63 60.48 100.13 59.23 102.48 58.54 C 102.08 59.73 101.63 60.89 101.12 62.03 C 98.79 62.47 95.66 62.11 94.75 59.54 Z" />
<path fill="#000000" opacity="1.00" d=" M 148.20 61.21 C 150.25 63.61 151.24 67.92 154.99 67.97 C 159.04 68.26 162.41 70.80 164.55 74.13 C 166.76 78.38 167.25 83.69 164.30 87.73 C 163.91 88.14 163.50 88.55 163.10 88.95 C 157.62 93.24 149.61 93.64 143.58 90.30 C 141.33 89.08 140.00 86.79 139.04 84.51 C 139.11 81.10 140.18 77.80 142.03 74.94 C 143.36 73.72 144.74 72.55 146.20 71.47 C 147.83 70.80 149.51 70.24 151.19 69.67 C 150.09 67.58 148.90 65.55 147.76 63.49 C 147.87 62.92 148.09 61.78 148.20 61.21 M 151.21 71.23 C 149.33 71.95 147.46 72.74 145.81 73.91 C 142.86 75.89 141.40 79.34 140.96 82.77 C 141.29 84.00 141.61 85.23 141.94 86.47 C 143.88 88.16 146.17 89.36 148.61 90.19 C 151.89 90.42 155.43 90.98 158.48 89.37 C 160.79 88.19 163.68 87.06 164.39 84.27 C 165.55 80.14 163.73 75.86 160.87 72.88 C 159.57 72.03 158.24 71.23 156.84 70.54 C 156.66 70.37 156.28 70.03 156.09 69.86 C 155.61 72.11 151.21 75.40 151.21 71.23 Z" />
<path fill="#a9b1c8" opacity="1.00" d=" M 108.44 65.00 C 109.45 64.37 110.46 63.74 111.49 63.14 C 113.44 64.73 115.88 65.39 118.25 66.07 C 115.13 67.67 110.22 69.23 108.44 65.00 Z" />
<path fill="#8892ac" opacity="1.00" d=" M 96.84 68.05 C 98.15 66.12 100.14 64.84 102.10 63.65 C 103.30 64.17 104.50 64.70 105.71 65.24 C 105.47 66.03 105.24 66.83 105.01 67.63 L 104.85 67.55 C 104.40 67.35 103.52 66.96 103.08 66.76 C 100.96 66.99 98.87 67.43 96.84 68.05 Z" />
<path fill="#408497" opacity="1.00" d=" M 146.20 71.47 C 144.69 68.71 146.97 66.07 147.76 63.49 C 148.90 65.55 150.09 67.58 151.19 69.67 C 149.51 70.24 147.83 70.80 146.20 71.47 Z" />
<path fill="#ffffff" opacity="1.00" d=" M 45.02 73.63 C 39.75 73.85 41.70 66.34 45.13 65.08 C 47.88 67.64 45.40 70.70 45.02 73.63 Z" />
<path fill="#bdc3d6" opacity="1.00" d=" M 96.84 68.05 C 98.87 67.43 100.96 66.99 103.08 66.76 C 103.52 66.96 104.40 67.35 104.85 67.55 C 103.08 70.81 100.54 74.17 96.62 74.81 C 98.15 72.76 99.58 70.64 101.01 68.53 C 99.29 68.58 97.57 68.63 95.86 68.67 C 96.10 68.51 96.59 68.21 96.84 68.05 Z" />
<path fill="#75c575" opacity="1.00" d=" M 107.20 66.63 C 109.47 70.64 114.37 70.12 118.01 68.52 C 114.43 75.80 110.48 83.58 103.41 88.06 C 101.08 87.08 98.30 86.50 96.74 84.32 C 95.61 82.88 95.35 81.01 94.84 79.31 C 97.76 78.49 102.62 78.27 102.46 74.16 C 104.34 71.85 106.08 69.41 107.20 66.63 Z" />
<path fill="#5287ab" opacity="1.00" d=" M 118.01 68.52 C 118.63 68.16 119.85 67.45 120.47 67.10 C 120.39 70.41 120.13 73.81 118.51 76.77 C 115.41 78.93 112.77 81.65 110.40 84.57 C 108.29 86.72 107.37 89.59 106.96 92.50 C 105.16 92.71 103.12 92.41 101.60 93.61 C 99.93 94.82 99.67 97.05 98.95 98.84 C 95.54 99.71 92.07 99.37 89.05 97.50 C 93.77 94.26 98.49 91.02 103.41 88.06 C 110.48 83.58 114.43 75.80 118.01 68.52 Z" />
<path fill="#ffffff" opacity="1.00" d=" M 95.86 68.67 C 97.57 68.63 99.29 68.58 101.01 68.53 C 99.58 70.64 98.15 72.76 96.62 74.81 C 95.80 74.87 94.99 74.89 94.17 74.89 C 94.01 72.65 94.86 70.61 95.86 68.67 Z" />
<path fill="#ff6774" opacity="1.00" d=" M 151.21 71.23 C 151.21 75.40 155.61 72.11 156.09 69.86 C 156.28 70.03 156.66 70.37 156.84 70.54 C 155.85 74.45 154.10 78.28 151.15 81.11 C 148.56 83.61 145.15 84.95 141.94 86.47 C 141.61 85.23 141.29 84.00 140.96 82.77 C 143.17 81.26 145.77 80.49 148.00 79.06 C 149.92 77.49 149.04 75.01 148.81 72.94 C 148.06 73.18 146.56 73.67 145.81 73.91 C 147.46 72.74 149.33 71.95 151.21 71.23 Z" />
<path fill="#c0aa53" opacity="1.00" d=" M 47.19 74.71 C 46.60 73.71 46.55 71.28 47.92 71.02 C 48.50 72.03 48.54 74.44 47.19 74.71 Z" />
<path fill="#fbfbfc" opacity="1.00" d=" M 130.19 70.93 C 126.10 76.06 121.33 80.65 116.77 85.36 C 116.78 85.06 116.79 84.46 116.79 84.16 C 121.06 79.56 124.86 74.40 130.19 70.93 Z" />
<path fill="#b53c59" opacity="1.00" d=" M 151.15 81.11 C 154.10 78.28 155.85 74.45 156.84 70.54 C 158.24 71.23 159.57 72.03 160.87 72.88 C 159.91 75.78 159.02 78.77 157.34 81.36 C 155.14 84.93 151.70 87.44 148.61 90.19 C 146.17 89.36 143.88 88.16 141.94 86.47 C 145.15 84.95 148.56 83.61 151.15 81.11 Z" />
<path fill="#dbab79" opacity="1.00" d=" M 196.26 80.89 C 201.07 78.60 205.31 75.35 209.42 72.00 C 208.51 74.74 207.50 77.44 206.34 80.08 C 203.17 81.38 200.00 82.69 196.83 84.01 C 196.69 83.23 196.41 81.67 196.26 80.89 Z" />
<path fill="#aab1c4" opacity="1.00" d=" M 49.92 72.77 C 50.76 72.64 52.44 72.40 53.28 72.27 C 52.32 73.47 51.35 74.67 50.39 75.87 C 52.06 76.80 53.72 77.75 55.43 78.60 L 55.89 78.84 C 53.43 79.13 50.99 78.66 49.06 77.02 C 49.36 75.61 49.65 74.19 49.92 72.77 Z" />
<path fill="#ffffff" opacity="1.00" d=" M 53.28 72.27 C 55.04 73.63 58.00 76.55 55.43 78.60 C 53.72 77.75 52.06 76.80 50.39 75.87 C 51.35 74.67 52.32 73.47 53.28 72.27 Z" />
<path fill="#761e46" opacity="1.00" d=" M 160.87 72.88 C 163.73 75.86 165.55 80.14 164.39 84.27 C 163.68 87.06 160.79 88.19 158.48 89.37 C 155.43 90.98 151.89 90.42 148.61 90.19 C 151.70 87.44 155.14 84.93 157.34 81.36 C 159.02 78.77 159.91 75.78 160.87 72.88 Z" />
<path fill="#fdd166" opacity="1.00" d=" M 186.31 73.75 C 187.10 73.35 188.69 72.55 189.49 72.16 C 189.97 72.79 190.92 74.05 191.40 74.67 C 191.37 79.00 190.71 83.53 188.14 87.12 C 185.38 91.03 182.79 95.06 179.84 98.83 C 176.69 102.44 173.21 105.75 169.98 109.29 C 166.99 111.65 163.87 113.88 160.55 115.76 C 158.88 116.67 157.18 117.51 155.47 118.35 C 152.72 116.13 149.71 114.27 146.68 112.46 C 152.63 110.27 158.93 108.66 164.25 105.08 C 167.22 103.20 169.74 100.72 171.92 97.99 C 177.60 90.49 184.34 83.27 186.31 73.75 Z" />
<path fill="#fffcc2" opacity="1.00" d=" M 140.96 82.77 C 141.40 79.34 142.86 75.89 145.81 73.91 C 146.56 73.67 148.06 73.18 148.81 72.94 C 149.04 75.01 149.92 77.49 148.00 79.06 C 145.77 80.49 143.17 81.26 140.96 82.77 Z" />
<path fill="#5184b1" opacity="1.00" d=" M 164.55 74.13 C 166.73 74.14 168.92 74.15 171.10 74.15 C 170.46 78.32 169.82 82.74 167.17 86.18 C 166.58 87.25 165.40 87.52 164.30 87.73 C 167.25 83.69 166.76 78.38 164.55 74.13 Z" />
<path fill="#823217" opacity="1.00" d=" M 191.40 74.67 L 191.40 74.10 C 194.50 82.07 197.68 91.49 192.79 99.44 L 192.50 99.44 C 190.03 99.38 187.48 99.34 185.15 100.29 C 179.69 102.58 176.09 108.43 169.98 109.29 C 173.21 105.75 176.69 102.44 179.84 98.83 C 182.79 95.06 185.38 91.03 188.14 87.12 C 190.71 83.53 191.37 79.00 191.40 74.67 Z" />
<path fill="#2962a1" opacity="1.00" d=" M 126.91 86.83 C 132.26 83.29 137.15 79.08 142.03 74.94 C 140.18 77.80 139.11 81.10 139.04 84.51 C 132.96 86.86 127.01 90.80 123.98 96.75 C 124.49 97.10 125.51 97.79 126.02 98.13 C 121.74 100.68 118.01 104.03 114.23 107.24 C 113.05 108.05 112.69 109.42 112.61 110.77 L 112.56 111.09 C 108.27 114.26 103.90 119.21 98.01 118.14 C 92.28 116.98 86.28 115.11 82.12 110.78 C 75.81 105.64 66.82 103.22 58.96 105.93 C 55.42 106.59 52.58 109.06 49.25 110.16 C 44.07 109.20 37.64 110.56 33.66 106.30 C 31.46 102.60 32.49 98.01 33.34 94.05 C 32.00 92.06 30.82 89.97 29.64 87.88 C 33.62 88.18 37.62 88.82 41.22 90.60 C 41.33 92.12 41.43 93.65 41.52 95.17 C 40.40 97.24 38.57 99.38 39.23 101.90 C 40.24 105.66 45.91 107.83 48.75 104.74 C 50.71 102.54 51.00 98.99 49.55 96.44 C 48.29 94.17 45.44 94.20 43.24 93.58 C 42.80 92.68 42.35 91.78 41.88 90.89 C 49.08 93.13 56.61 93.93 64.03 95.06 C 69.69 95.96 75.35 94.48 81.02 94.70 C 83.24 94.99 85.39 95.62 87.53 96.28 C 82.40 99.76 76.24 101.10 70.76 103.88 C 77.17 102.86 83.31 100.49 89.05 97.50 C 92.07 99.37 95.54 99.71 98.95 98.84 C 100.46 100.83 102.20 102.86 105.00 102.50 C 104.71 104.18 103.33 106.07 104.70 107.63 C 105.86 109.20 108.29 108.72 109.51 107.43 C 111.45 105.81 110.66 102.89 111.83 100.89 C 114.96 99.52 119.64 98.27 119.49 93.98 C 119.46 91.31 116.55 91.09 114.57 91.45 C 114.90 88.40 114.15 84.66 110.40 84.57 C 112.77 81.65 115.41 78.93 118.51 76.77 C 117.39 79.07 116.63 81.56 116.79 84.16 C 116.79 84.46 116.78 85.06 116.77 85.36 C 119.13 88.58 123.69 89.00 126.91 86.83 Z" />
<path fill="#ffffff" opacity="1.00" d=" M 42.36 84.75 C 42.23 81.70 42.80 76.91 46.27 76.05 C 46.27 79.15 46.73 84.58 42.36 84.75 Z" />
<path fill="#548d5d" opacity="1.00" d=" M 47.94 80.67 C 47.44 79.11 49.21 78.11 50.13 79.57 C 49.58 79.85 48.49 80.40 47.94 80.67 Z" />
<path fill="#558da4" opacity="1.00" d=" M 29.62 86.69 C 31.43 82.28 36.14 80.34 40.61 80.06 C 40.25 82.33 39.70 85.55 42.44 86.58 C 45.69 87.26 47.96 83.55 47.94 80.67 C 48.49 80.40 49.58 79.85 50.13 79.57 C 50.56 79.87 51.40 80.47 51.82 80.77 C 56.34 83.16 59.90 86.79 63.52 90.31 C 69.15 92.40 75.01 94.13 81.02 94.70 C 75.35 94.48 69.69 95.96 64.03 95.06 C 56.61 93.93 49.08 93.13 41.88 90.89 L 41.22 90.60 C 37.62 88.82 33.62 88.18 29.64 87.88 L 29.62 86.69 Z" />
<path fill="#95303d" opacity="1.00" d=" M 196.83 84.01 C 200.00 82.69 203.17 81.38 206.34 80.08 C 204.69 84.21 202.64 88.15 200.71 92.15 C 196.64 91.64 197.67 86.91 196.83 84.01 Z" />
<path fill="#000000" opacity="1.00" d=" M 110.40 84.57 C 114.15 84.66 114.90 88.40 114.57 91.45 C 116.55 91.09 119.46 91.31 119.49 93.98 C 119.64 98.27 114.96 99.52 111.83 100.89 C 110.66 102.89 111.45 105.81 109.51 107.43 C 108.29 108.72 105.86 109.20 104.70 107.63 C 103.33 106.07 104.71 104.18 105.00 102.50 C 102.20 102.86 100.46 100.83 98.95 98.84 C 99.67 97.05 99.93 94.82 101.60 93.61 C 103.12 92.41 105.16 92.71 106.96 92.50 C 107.37 89.59 108.29 86.72 110.40 84.57 M 109.28 96.86 C 112.58 94.45 113.47 90.07 112.35 86.28 C 107.97 87.76 109.41 93.33 109.28 96.86 M 112.41 98.60 C 115.01 97.88 118.09 96.35 117.68 93.13 C 114.74 93.16 112.72 95.87 112.41 98.60 M 101.70 99.59 C 103.10 101.79 105.63 99.51 107.37 99.03 C 107.60 97.36 107.00 95.81 106.30 94.33 C 103.37 93.60 99.78 96.65 101.70 99.59 M 109.23 98.27 C 108.68 100.06 109.17 100.57 110.70 99.80 C 111.24 98.00 110.75 97.49 109.23 98.27 M 107.78 101.31 C 106.43 102.85 105.80 104.83 105.51 106.84 C 108.96 108.14 111.19 102.56 107.78 101.31 Z" />
<path fill="#4f83ab" opacity="1.00" d=" M 123.98 96.75 C 127.01 90.80 132.96 86.86 139.04 84.51 C 140.00 86.79 141.33 89.08 143.58 90.30 C 149.61 93.64 157.62 93.24 163.10 88.95 L 164.58 89.03 C 163.22 90.84 161.75 92.56 160.17 94.17 C 148.80 95.70 137.54 98.25 126.02 98.13 C 125.51 97.79 124.49 97.10 123.98 96.75 Z" />
<path fill="#ffffff" opacity="1.00" d=" M 109.28 96.86 C 109.41 93.33 107.97 87.76 112.35 86.28 C 113.47 90.07 112.58 94.45 109.28 96.86 Z" />
<path fill="#000000" opacity="1.00" d=" M 41.22 90.60 L 41.88 90.89 C 42.35 91.78 42.80 92.68 43.24 93.58 C 45.44 94.20 48.29 94.17 49.55 96.44 C 51.00 98.99 50.71 102.54 48.75 104.74 C 45.91 107.83 40.24 105.66 39.23 101.90 C 38.57 99.38 40.40 97.24 41.52 95.17 C 41.43 93.65 41.33 92.12 41.22 90.60 M 45.20 96.76 L 45.89 98.20 C 44.66 98.20 43.42 98.21 42.19 98.21 L 42.67 96.51 C 41.87 97.72 41.07 98.94 40.26 100.15 C 40.32 103.39 43.98 105.60 46.93 104.33 C 49.38 102.62 49.04 99.10 47.74 96.78 L 48.02 96.52 C 47.08 96.60 46.14 96.68 45.20 96.76 Z" />
<path fill="#ffffff" opacity="1.00" d=" M 112.41 98.60 C 112.72 95.87 114.74 93.16 117.68 93.13 C 118.09 96.35 115.01 97.88 112.41 98.60 Z" />
<path fill="#ffffff" opacity="1.00" d=" M 101.70 99.59 C 99.78 96.65 103.37 93.60 106.30 94.33 C 107.00 95.81 107.60 97.36 107.37 99.03 C 105.63 99.51 103.10 101.79 101.70 99.59 Z" />
<path fill="#356ba8" opacity="1.00" d=" M 126.02 98.13 C 137.54 98.25 148.80 95.70 160.17 94.17 C 157.78 96.53 155.74 99.20 153.86 101.97 C 155.00 102.72 156.13 103.48 157.26 104.23 C 145.85 105.59 134.18 104.91 123.10 101.76 C 119.91 105.10 116.37 108.09 112.61 110.77 C 112.69 109.42 113.05 108.05 114.23 107.24 C 118.01 104.03 121.74 100.68 126.02 98.13 Z" />
<path fill="#724249" opacity="1.00" d=" M 193.07 103.71 C 195.20 100.43 196.58 96.77 197.81 93.08 C 198.86 93.98 199.92 94.89 200.97 95.80 C 198.32 99.42 196.00 103.26 193.96 107.25 C 193.65 106.07 193.36 104.89 193.07 103.71 Z" />
<path fill="#ffffff" opacity="1.00" d=" M 26.67 98.95 C 28.00 97.66 29.35 96.39 30.77 95.20 C 30.62 95.79 30.31 96.99 30.15 97.58 C 28.11 102.18 30.45 107.06 30.71 111.76 C 28.61 109.56 27.96 106.59 27.28 103.75 C 26.14 106.04 24.99 108.33 23.87 110.64 C 24.25 106.63 25.51 102.79 26.67 98.95 Z" />
<path fill="#fff9c5" opacity="1.00" d=" M 45.20 96.76 C 46.14 96.68 47.08 96.60 48.02 96.52 L 47.74 96.78 C 47.23 97.27 46.20 98.24 45.68 98.72 C 44.54 98.79 43.39 98.86 42.25 98.92 L 42.76 100.57 C 42.14 100.47 40.89 100.25 40.26 100.15 C 41.07 98.94 41.87 97.72 42.67 96.51 L 42.19 98.21 C 43.42 98.21 44.66 98.20 45.89 98.20 L 45.20 96.76 Z" />
<path fill="#978282" opacity="1.00" d=" M 193.96 107.25 C 196.00 103.26 198.32 99.42 200.97 95.80 C 206.98 102.49 212.23 110.06 215.41 118.52 C 212.02 117.70 208.64 116.83 205.27 115.94 C 202.47 115.13 199.59 114.37 197.08 112.85 C 195.14 111.65 194.58 109.28 193.96 107.25 Z" />
<path fill="#ffd367" opacity="1.00" d=" M 30.71 111.76 C 30.45 107.06 28.11 102.18 30.15 97.58 C 30.33 101.27 29.65 105.65 32.56 108.50 C 36.49 112.19 42.20 111.73 47.18 112.27 C 44.24 115.14 41.51 118.38 40.32 122.39 C 39.93 122.17 39.14 121.75 38.75 121.53 C 35.39 118.99 31.71 116.93 28.10 114.77 C 26.53 113.73 24.99 112.64 23.44 111.58 C 23.55 111.34 23.76 110.88 23.87 110.64 C 24.99 108.33 26.14 106.04 27.28 103.75 C 27.96 106.59 28.61 109.56 30.71 111.76 Z" />
<path fill="#ac3656" opacity="1.00" d=" M 45.68 98.72 C 46.20 98.24 47.23 97.27 47.74 96.78 C 49.04 99.10 49.38 102.62 46.93 104.33 C 43.98 105.60 40.32 103.39 40.26 100.15 C 40.89 100.25 42.14 100.47 42.76 100.57 L 42.25 98.92 C 43.39 98.86 44.54 98.79 45.68 98.72 Z" />
<path fill="#ffd367" opacity="1.00" d=" M 109.23 98.27 C 110.75 97.49 111.24 98.00 110.70 99.80 C 109.17 100.57 108.68 100.06 109.23 98.27 Z" />
<path fill="#97502a" opacity="1.00" d=" M 185.15 100.29 C 187.48 99.34 190.03 99.38 192.50 99.44 C 190.11 103.93 186.64 107.71 183.06 111.28 C 182.81 110.19 182.56 109.10 182.32 108.01 C 180.21 108.18 177.97 108.07 176.08 109.17 C 170.74 111.93 165.87 115.53 160.46 118.17 C 160.48 117.56 160.52 116.36 160.55 115.76 C 163.87 113.88 166.99 111.65 169.98 109.29 C 176.09 108.43 179.69 102.58 185.15 100.29 Z" />
<path fill="#ffffff" opacity="1.00" d=" M 107.78 101.31 C 111.19 102.56 108.96 108.14 105.51 106.84 C 105.80 104.83 106.43 102.85 107.78 101.31 Z" />
<path fill="#623339" opacity="1.00" d=" M 183.96 114.07 C 187.21 110.82 190.13 107.25 193.07 103.71 C 193.36 104.89 193.65 106.07 193.96 107.25 C 194.58 109.28 195.14 111.65 197.08 112.85 C 199.59 114.37 202.47 115.13 205.27 115.94 C 204.22 116.62 203.17 117.29 202.13 117.97 C 202.64 119.77 203.14 121.58 203.61 123.39 C 196.96 120.56 189.49 118.98 183.96 114.07 Z" />
<path fill="#fdd065" opacity="1.00" d=" M 109.56 116.46 C 114.52 112.64 119.35 108.64 123.86 104.29 C 133.42 106.88 143.38 107.87 153.25 107.20 C 149.88 108.14 146.65 109.51 143.40 110.78 C 139.97 108.79 135.83 108.88 132.00 108.62 C 125.19 108.08 118.63 111.24 113.45 115.42 C 109.87 118.22 108.47 122.85 108.75 127.26 C 102.70 128.11 96.74 129.45 90.82 130.93 C 91.07 126.26 90.28 121.62 88.24 117.39 C 92.21 119.19 96.45 120.86 100.90 120.57 C 104.21 120.40 106.98 118.34 109.56 116.46 Z" />
<path fill="#ffffff" opacity="1.00" d=" M 153.25 107.20 C 156.91 106.44 160.68 106.24 164.25 105.08 C 158.93 108.66 152.63 110.27 146.68 112.46 C 145.50 112.09 144.41 111.53 143.40 110.78 C 146.65 109.51 149.88 108.14 153.25 107.20 Z" />
<path fill="#ffffce" opacity="1.00" d=" M 59.34 108.13 C 62.80 107.27 66.39 107.13 69.92 107.61 C 67.53 107.55 65.13 107.60 62.74 107.62 C 61.66 110.93 62.43 114.38 62.45 117.78 C 59.86 115.35 58.93 111.94 59.34 108.47 L 59.34 108.13 Z" />
<path fill="#947e7f" opacity="1.00" d=" M 62.74 107.62 C 65.13 107.60 67.53 107.55 69.92 107.61 C 72.32 108.12 74.57 109.13 76.83 110.06 C 77.34 111.61 77.88 113.14 78.48 114.66 C 75.61 118.87 71.42 122.22 66.22 122.83 C 64.99 121.13 63.75 119.43 62.45 117.78 C 62.43 114.38 61.66 110.93 62.74 107.62 Z" />
<path fill="#a16035" opacity="1.00" d=" M 176.08 109.17 C 177.97 108.07 180.21 108.18 182.32 108.01 C 182.56 109.10 182.81 110.19 183.06 111.28 C 177.76 116.43 171.84 121.10 165.02 124.06 C 163.98 124.46 162.73 125.33 161.88 124.11 C 159.72 122.22 157.70 120.17 155.47 118.35 C 157.18 117.51 158.88 116.67 160.55 115.76 C 160.52 116.36 160.48 117.56 160.46 118.17 C 165.87 115.53 170.74 111.93 176.08 109.17 Z" />
<path fill="#836568" opacity="1.00" d=" M 55.60 109.57 C 56.85 109.21 58.10 108.85 59.34 108.47 C 58.93 111.94 59.86 115.35 62.45 117.78 C 63.75 119.43 64.99 121.13 66.22 122.83 C 64.14 123.33 62.07 123.90 60.09 124.73 C 61.15 119.14 57.53 114.49 55.60 109.57 Z" />
<path fill="#988384" opacity="1.00" d=" M 47.13 116.01 C 49.34 113.15 52.51 111.32 55.60 109.57 C 57.53 114.49 61.15 119.14 60.09 124.73 C 58.13 126.48 56.34 128.42 54.65 130.43 C 57.92 130.35 60.82 128.64 64.01 128.18 C 65.42 127.77 66.23 129.36 66.45 130.49 C 64.38 132.82 62.78 135.56 62.08 138.62 C 64.62 138.79 67.17 138.83 69.70 138.57 C 67.22 141.54 63.01 142.55 61.16 146.19 C 58.45 148.12 56.08 150.39 54.01 152.99 C 46.43 146.93 42.07 137.40 41.44 127.81 L 41.70 127.42 C 43.22 125.18 44.47 122.78 45.68 120.37 C 47.14 120.91 49.07 121.88 50.25 120.26 C 51.54 118.43 51.06 115.93 51.42 113.82 C 49.98 114.53 48.54 115.24 47.13 116.01 M 46.97 136.02 C 50.12 134.97 53.02 133.19 55.30 130.75 C 51.86 131.13 49.18 133.55 46.97 136.02 Z" />
<path fill="#6e454a" opacity="1.00" d=" M 76.83 110.06 C 81.62 112.74 85.51 116.97 87.56 122.09 C 85.86 124.83 83.96 127.44 81.97 129.97 C 82.58 126.59 82.67 123.14 82.64 119.71 C 81.24 120.84 79.90 122.03 78.60 123.27 C 73.53 123.26 69.76 127.12 66.45 130.49 C 66.23 129.36 65.42 127.77 64.01 128.18 C 60.82 128.64 57.92 130.35 54.65 130.43 C 56.34 128.42 58.13 126.48 60.09 124.73 C 62.07 123.90 64.14 123.33 66.22 122.83 C 71.42 122.22 75.61 118.87 78.48 114.66 C 77.88 113.14 77.34 111.61 76.83 110.06 Z" />
<path fill="#ffffcf" opacity="1.00" d=" M 125.90 111.56 C 127.45 111.32 129.01 111.09 130.56 110.85 C 126.70 114.75 126.07 120.38 123.14 124.80 C 121.88 120.14 124.12 115.72 125.90 111.56 Z" />
<path fill="#9a8787" opacity="1.00" d=" M 130.56 110.85 C 135.91 111.02 141.27 111.90 145.90 114.74 C 145.74 117.56 145.49 120.36 145.17 123.16 C 141.56 125.80 139.73 130.01 137.91 133.94 C 133.82 133.91 129.15 134.96 125.57 132.43 C 123.16 130.67 123.56 127.41 123.14 124.80 C 126.07 120.38 126.70 114.75 130.56 110.85 Z" />
<path fill="#9f5a2e" opacity="1.00" d=" M 23.44 111.58 C 24.99 112.64 26.53 113.73 28.10 114.77 L 26.67 115.19 C 29.81 118.48 33.93 121.90 38.75 121.53 C 39.14 121.75 39.93 122.17 40.32 122.39 C 40.13 122.81 39.75 123.65 39.56 124.07 C 39.11 124.60 38.62 125.08 38.09 125.53 C 34.85 124.91 31.58 123.73 28.26 124.65 L 27.86 124.71 C 26.12 122.91 23.96 121.28 23.09 118.86 C 22.84 116.43 23.34 114.00 23.44 111.58 Z" />
<path fill="#63343a" opacity="1.00" d=" M 123.61 111.94 C 124.18 111.84 125.33 111.65 125.90 111.56 C 124.12 115.72 121.88 120.14 123.14 124.80 C 123.56 127.41 123.16 130.67 125.57 132.43 C 129.15 134.96 133.82 133.91 137.91 133.94 C 143.27 134.29 148.57 135.38 153.96 135.14 C 158.01 134.97 162.07 134.83 166.12 135.26 C 159.10 136.16 152.09 137.50 144.98 137.34 C 141.55 137.25 138.14 137.69 134.81 138.45 C 135.70 142.97 140.79 143.76 144.40 145.18 C 137.69 144.77 130.80 144.52 124.34 142.52 C 118.61 140.78 115.27 135.38 112.44 130.50 C 110.90 127.89 110.82 124.81 111.53 121.93 C 111.46 123.65 111.46 125.38 111.46 127.10 C 114.26 128.16 117.08 129.18 119.93 130.09 C 121.08 124.13 122.15 118.16 123.54 112.26 L 123.61 111.94 Z" />
<path fill="#9b8888" opacity="1.00" d=" M 111.53 121.93 C 113.56 116.84 118.79 114.25 123.54 112.26 C 122.15 118.16 121.08 124.13 119.93 130.09 C 117.08 129.18 114.26 128.16 111.46 127.10 C 111.46 125.38 111.46 123.65 111.53 121.93 Z" />
<path fill="#fff9c5" opacity="1.00" d=" M 47.13 116.01 C 48.54 115.24 49.98 114.53 51.42 113.82 C 51.06 115.93 51.54 118.43 50.25 120.26 C 49.07 121.88 47.14 120.91 45.68 120.37 C 44.47 122.78 43.22 125.18 41.70 127.42 C 41.88 123.13 43.91 118.85 47.13 116.01 Z" />
<path fill="#924823" opacity="1.00" d=" M 26.67 115.19 L 28.10 114.77 C 31.71 116.93 35.39 118.99 38.75 121.53 C 33.93 121.90 29.81 118.48 26.67 115.19 Z" />
<path fill="#86686b" opacity="1.00" d=" M 145.90 114.74 C 147.89 115.87 149.86 117.03 151.76 118.30 C 149.79 120.21 147.52 121.76 145.17 123.16 C 145.49 120.36 145.74 117.56 145.90 114.74 Z" />
<path fill="#000000" opacity="0.28" d=" M 180.24 117.20 C 180.57 115.08 184.82 115.65 183.88 117.77 C 182.89 118.40 180.53 118.70 180.24 117.20 Z" />
<path fill="#693e44" opacity="1.00" d=" M 205.27 115.94 C 208.64 116.83 212.02 117.70 215.41 118.52 L 215.74 118.60 C 216.51 121.58 217.40 124.53 218.23 127.49 C 213.23 126.63 208.34 125.22 203.61 123.39 C 203.14 121.58 202.64 119.77 202.13 117.97 C 203.17 117.29 204.22 116.62 205.27 115.94 Z" />
<path fill="#71474c" opacity="1.00" d=" M 151.76 118.30 C 153.01 119.31 154.28 120.30 155.56 121.28 C 154.51 121.91 153.47 122.55 152.46 123.24 C 149.25 125.11 146.26 127.43 144.43 130.73 L 145.44 130.62 C 145.86 131.28 146.69 132.59 147.11 133.25 C 153.53 133.33 159.96 134.20 166.38 133.69 L 166.86 133.65 C 168.54 137.43 169.57 141.45 170.29 145.51 C 161.67 145.61 152.99 145.92 144.40 145.18 C 140.79 143.76 135.70 142.97 134.81 138.45 C 138.14 137.69 141.55 137.25 144.98 137.34 C 152.09 137.50 159.10 136.16 166.12 135.26 C 162.07 134.83 158.01 134.97 153.96 135.14 C 148.57 135.38 143.27 134.29 137.91 133.94 C 139.73 130.01 141.56 125.80 145.17 123.16 C 147.52 121.76 149.79 120.21 151.76 118.30 Z" />
<path fill="#876a6c" opacity="1.00" d=" M 78.60 123.27 C 79.90 122.03 81.24 120.84 82.64 119.71 C 82.67 123.14 82.58 126.59 81.97 129.97 C 81.75 130.28 81.31 130.89 81.09 131.19 C 80.85 129.76 80.63 128.33 80.34 126.92 C 79.82 125.67 79.24 124.45 78.60 123.27 Z" />
<path fill="#5d2c32" opacity="1.00" d=" M 87.56 122.09 C 88.86 127.76 88.80 134.32 85.23 139.17 C 82.79 142.75 78.04 142.28 74.29 143.09 C 73.63 141.25 72.97 139.40 72.31 137.55 C 77.01 136.19 80.88 132.08 80.34 126.92 C 80.63 128.33 80.85 129.76 81.09 131.19 C 81.31 130.89 81.75 130.28 81.97 129.97 C 83.96 127.44 85.86 124.83 87.56 122.09 Z" />
<path fill="#998585" opacity="1.00" d=" M 152.46 123.24 C 153.47 122.55 154.51 121.91 155.56 121.28 C 159.44 125.14 163.83 128.75 166.38 133.69 C 159.96 134.20 153.53 133.33 147.11 133.25 C 146.69 132.59 145.86 131.28 145.44 130.62 C 147.87 128.26 150.92 126.34 152.46 123.24 Z" />
<path fill="#000000" opacity="1.00" d=" M 66.45 130.49 C 69.76 127.12 73.53 123.26 78.60 123.27 C 79.24 124.45 79.82 125.67 80.34 126.92 C 80.88 132.08 77.01 136.19 72.31 137.55 C 71.45 137.90 70.58 138.24 69.70 138.57 C 67.17 138.83 64.62 138.79 62.08 138.62 C 62.78 135.56 64.38 132.82 66.45 130.49 M 64.25 137.20 C 69.28 136.63 75.61 135.86 78.19 130.87 C 78.99 129.04 79.24 124.64 76.17 125.27 C 71.08 127.80 66.62 131.99 64.25 137.20 Z" />
<path fill="#ae703b" opacity="1.00" d=" M 28.26 124.65 C 31.58 123.73 34.85 124.91 38.09 125.53 C 38.62 125.08 39.11 124.60 39.56 124.07 C 39.23 127.42 39.46 130.78 39.92 134.10 C 35.92 131.10 31.83 128.17 28.26 124.65 Z" />
<path fill="#ffffce" opacity="1.00" d=" M 144.43 130.73 C 146.26 127.43 149.25 125.11 152.46 123.24 C 150.92 126.34 147.87 128.26 145.44 130.62 L 144.43 130.73 Z" />
<path fill="#958181" opacity="1.00" d=" M 22.30 129.19 C 22.82 127.61 23.44 126.07 24.06 124.52 C 27.08 126.77 29.81 129.37 32.73 131.73 C 31.97 133.29 31.21 134.85 30.44 136.41 C 29.18 135.88 27.91 135.37 26.67 134.80 C 24.91 133.19 23.42 131.29 22.30 129.19 Z" />
<path fill="#62ffea" opacity="1.00" d=" M 64.25 137.20 C 66.62 131.99 71.08 127.80 76.17 125.27 C 79.24 124.64 78.99 129.04 78.19 130.87 C 75.61 135.86 69.28 136.63 64.25 137.20 Z" />
<path fill="#9f5e33" opacity="1.00" d=" M 90.82 130.93 C 96.74 129.45 102.70 128.11 108.75 127.26 C 109.68 130.15 110.92 132.94 112.69 135.41 C 104.06 137.77 95.04 139.23 87.25 143.95 C 86.65 143.58 85.46 142.86 84.86 142.49 C 87.94 139.31 90.46 135.47 90.82 130.93 Z" />
<path fill="#84696b" opacity="1.00" d=" M 21.12 137.46 C 20.82 134.63 21.56 131.88 22.30 129.19 C 23.42 131.29 24.91 133.19 26.67 134.80 C 26.33 136.47 25.99 138.14 25.65 139.80 C 24.78 139.77 23.06 139.71 22.20 139.67 C 22.74 137.66 23.22 135.64 23.41 133.56 C 22.61 134.84 21.83 136.13 21.12 137.46 Z" />
<path fill="#fff9c5" opacity="1.00" d=" M 46.97 136.02 C 49.18 133.55 51.86 131.13 55.30 130.75 C 53.02 133.19 50.12 134.97 46.97 136.02 Z" />
<path fill="#613137" opacity="1.00" d=" M 32.73 131.73 C 36.28 134.54 41.54 136.30 42.53 141.24 C 40.20 141.64 37.86 142.00 35.53 142.35 C 35.02 139.51 33.36 137.09 30.44 136.41 C 31.21 134.85 31.97 133.29 32.73 131.73 Z" />
<path fill="#000000" opacity="0.46" d=" M 18.52 144.34 C 16.29 140.74 18.00 136.42 19.12 132.74 C 18.65 136.59 18.42 140.47 18.52 144.34 Z" />
<path fill="#ffffcf" opacity="1.00" d=" M 21.12 137.46 C 21.83 136.13 22.61 134.84 23.41 133.56 C 23.22 135.64 22.74 137.66 22.20 139.67 C 21.83 140.05 21.09 140.80 20.72 141.17 C 20.76 139.92 20.89 138.68 21.12 137.46 Z" />
<path fill="#6b4146" opacity="1.00" d=" M 25.65 139.80 C 25.99 138.14 26.33 136.47 26.67 134.80 C 27.91 135.37 29.18 135.88 30.44 136.41 C 33.36 137.09 35.02 139.51 35.53 142.35 C 30.61 143.02 25.64 143.72 20.68 143.32 C 20.69 142.78 20.71 141.71 20.72 141.17 C 21.09 140.80 21.83 140.05 22.20 139.67 C 23.06 139.71 24.78 139.77 25.65 139.80 Z" />
<path fill="#6b3f47" opacity="1.00" d=" M 69.70 138.57 C 70.58 138.24 71.45 137.90 72.31 137.55 C 72.97 139.40 73.63 141.25 74.29 143.09 C 69.84 143.82 65.64 145.62 61.16 146.19 C 63.01 142.55 67.22 141.54 69.70 138.57 Z" />
<path fill="#bc7f42" opacity="1.00" d=" M 66.96 146.88 C 72.79 144.84 79.34 145.35 84.86 142.49 C 85.46 142.86 86.65 143.58 87.25 143.95 C 82.79 145.75 79.47 149.27 76.36 152.80 C 73.37 150.60 69.94 149.10 66.96 146.88 Z" />
</svg>
