<?xml version="1.0" encoding="UTF-8" ?>
<!DOCTYPE svg PUBLIC "-//W3C//DTD SVG 1.1//EN" "http://www.w3.org/Graphics/SVG/1.1/DTD/svg11.dtd">
<svg width="187pt" height="155pt" viewBox="0 0 187 155" version="1.1" xmlns="http://www.w3.org/2000/svg">
<path fill="#000000" opacity="1.00" d=" M 134.52 1.44 C 136.28 -0.52 139.96 -0.04 140.13 2.94 C 141.56 8.66 135.91 12.06 132.37 15.39 C 130.62 16.56 128.53 19.12 126.26 17.76 C 125.81 14.93 126.81 12.12 127.47 9.40 C 128.31 5.71 131.81 3.69 134.52 1.44 M 132.93 4.86 C 131.46 6.17 129.91 7.52 129.68 9.60 L 129.47 9.53 C 129.50 9.66 129.56 9.92 129.59 10.05 C 128.94 12.02 128.35 14.00 127.93 16.03 C 130.00 14.92 131.94 13.55 133.40 11.68 C 134.94 10.06 136.71 8.66 138.11 6.91 C 138.87 5.29 138.30 3.48 138.11 1.81 C 136.14 2.38 134.45 3.54 132.93 4.86 Z" />
<path fill="#ffffef" opacity="1.00" d=" M 132.93 4.86 C 134.45 3.54 136.14 2.38 138.11 1.81 C 138.30 3.48 138.87 5.29 138.11 6.91 C 136.71 8.66 134.94 10.06 133.40 11.68 C 132.13 11.13 130.86 10.59 129.59 10.05 C 129.56 9.92 129.50 9.66 129.47 9.53 L 129.68 9.60 C 130.79 10.00 131.92 10.35 133.07 10.67 C 135.62 9.29 133.70 6.70 132.93 4.86 Z" />
<path fill="#000000" opacity="1.00" d=" M 169.97 4.04 C 172.97 3.16 176.04 2.32 179.19 2.29 C 180.31 3.04 180.81 4.36 181.40 5.51 C 183.96 11.16 185.62 17.16 186.93 23.20 C 183.93 26.78 179.99 29.52 177.30 33.35 C 175.34 39.42 175.21 46.01 172.93 51.98 C 167.41 59.67 162.08 67.66 154.88 73.92 C 139.97 86.98 122.25 96.42 104.05 104.04 C 97.79 105.78 93.36 110.78 88.85 115.15 C 98.53 111.75 107.95 107.65 117.74 104.56 C 123.41 103.01 127.87 98.97 132.65 95.76 C 139.65 90.91 146.11 85.37 152.46 79.71 C 159.69 72.83 165.97 65.04 173.00 57.97 C 171.53 64.15 170.58 70.74 166.76 76.00 C 160.54 83.28 152.11 88.08 144.06 93.02 C 137.88 96.95 130.86 99.48 125.11 104.08 C 113.60 112.43 101.10 119.39 88.06 125.05 C 85.59 126.02 83.57 128.27 80.77 128.24 C 76.11 128.24 71.39 128.84 66.78 128.09 C 64.25 127.25 65.85 124.37 66.99 123.01 C 70.37 119.92 74.48 117.76 78.16 115.06 C 66.14 118.45 53.97 124.07 41.22 122.29 C 35.76 121.60 29.09 118.70 28.92 112.31 C 22.89 113.92 17.24 117.17 10.98 117.76 C 6.14 116.90 2.17 113.03 0.00 108.75 L 0.00 107.99 C 8.45 94.36 22.31 85.62 34.05 75.15 C 43.07 68.37 52.81 62.34 63.21 57.93 C 58.12 62.65 52.34 66.58 47.33 71.40 C 37.96 80.21 28.48 89.57 23.09 101.44 C 31.79 98.08 40.43 94.53 49.10 91.06 C 52.49 89.68 56.16 88.69 59.00 86.26 C 62.14 83.55 65.52 81.13 69.14 79.09 C 69.33 77.63 69.52 76.18 69.71 74.73 C 59.85 79.13 51.07 85.45 41.84 90.96 C 46.38 83.16 52.72 76.49 59.79 70.94 C 60.12 71.13 60.79 71.51 61.13 71.70 C 57.15 75.86 52.78 79.65 49.13 84.11 C 54.60 80.72 59.97 77.12 65.85 74.43 C 67.35 73.72 68.87 73.05 70.40 72.39 C 72.04 69.13 72.90 65.23 75.90 62.87 C 77.42 61.58 79.25 60.73 81.08 59.99 C 86.55 58.37 92.18 56.90 97.92 57.10 C 101.68 55.63 105.24 53.70 108.96 52.14 C 112.07 50.80 115.19 49.46 118.33 48.16 C 122.23 46.61 126.22 45.25 129.85 43.10 C 130.71 42.70 131.59 42.33 132.47 41.98 C 134.20 41.28 135.89 40.47 137.54 39.59 C 135.48 38.90 133.46 38.10 131.59 37.01 C 134.12 34.94 136.97 33.26 139.34 30.98 C 135.07 32.23 130.94 33.89 126.77 35.43 C 124.34 36.36 121.93 37.31 119.53 38.31 C 117.03 39.35 114.53 40.40 112.06 41.50 C 110.07 42.41 108.10 43.34 106.14 44.30 C 102.75 45.97 99.34 47.61 95.98 49.34 C 90.13 52.41 84.30 55.55 78.72 59.11 C 74.60 61.73 70.59 64.52 66.73 67.52 C 65.43 68.51 64.10 69.46 62.74 70.38 C 62.51 70.25 62.03 69.98 61.79 69.85 C 63.04 68.41 64.39 67.06 65.87 65.86 C 79.43 54.62 95.34 46.73 111.21 39.32 C 113.43 38.26 115.21 36.52 116.91 34.77 C 117.61 35.19 118.06 36.46 119.02 36.16 L 118.95 36.41 C 127.15 32.56 135.82 29.45 144.79 28.09 C 144.72 28.50 144.57 29.30 144.50 29.71 C 142.21 31.55 139.68 33.06 137.30 34.79 C 136.35 35.46 135.40 36.14 134.46 36.82 C 137.40 37.27 140.50 38.91 143.45 37.69 C 144.86 37.22 146.23 36.66 147.62 36.12 C 153.74 34.03 157.15 28.06 161.64 23.79 C 164.16 21.04 166.59 18.20 168.95 15.30 C 171.85 11.70 174.95 8.24 177.51 4.37 C 172.45 5.37 167.61 7.19 162.72 8.80 C 159.27 10.02 155.83 11.27 152.39 12.51 C 145.60 14.99 138.85 17.57 132.20 20.41 C 121.47 25.07 110.53 29.56 100.59 35.78 C 108.24 33.74 115.41 30.09 123.19 28.47 C 123.88 28.49 125.26 28.52 125.95 28.54 C 124.05 30.72 121.92 32.71 119.50 34.30 C 119.55 34.04 119.64 33.53 119.69 33.28 C 119.91 32.82 120.34 31.90 120.56 31.45 C 118.39 31.36 116.42 32.49 114.55 33.46 C 110.96 35.00 107.13 35.85 103.47 37.22 C 99.16 38.68 95.04 41.12 90.35 40.98 C 98.60 33.47 108.84 28.64 118.76 23.75 C 135.36 16.03 152.50 9.49 169.97 4.04 M 169.76 17.48 C 164.98 22.84 160.16 28.15 154.88 33.03 C 158.48 31.46 162.07 29.87 165.71 28.40 C 169.13 27.21 172.67 26.43 176.22 25.71 C 176.96 26.62 177.69 27.52 178.43 28.43 C 180.32 26.59 182.16 24.70 184.06 22.88 C 183.40 16.90 181.09 11.30 179.11 5.68 C 175.97 9.58 172.53 13.34 169.76 17.48 M 160.37 33.16 L 160.43 33.40 C 155.57 35.04 150.96 37.32 146.16 39.11 L 146.25 39.28 C 140.73 41.59 135.35 44.24 130.04 47.00 C 127.91 48.14 125.58 49.02 123.87 50.80 C 129.82 49.39 135.80 47.43 141.99 47.78 C 140.26 50.13 137.50 51.46 135.93 53.92 C 140.90 51.23 146.35 49.66 151.58 47.59 L 152.10 47.95 C 152.46 47.52 153.19 46.65 153.56 46.22 C 157.22 43.75 160.22 40.46 163.42 37.44 C 165.33 35.75 166.42 33.11 168.86 32.09 C 168.59 35.14 166.33 37.28 164.55 39.54 L 164.23 39.63 C 160.55 43.38 156.54 46.78 152.60 50.25 C 142.98 58.23 132.90 65.68 122.23 72.19 C 119.37 74.08 116.30 75.72 113.74 78.04 C 111.96 78.78 110.38 79.89 108.75 80.90 C 100.40 85.22 91.66 88.72 82.97 92.31 C 71.50 96.49 60.69 102.37 48.98 105.92 C 45.70 106.51 41.95 107.97 38.84 106.05 C 37.56 105.09 38.69 103.85 39.43 103.01 C 40.03 105.86 43.24 104.87 45.17 104.14 C 46.75 99.69 50.10 96.24 52.05 91.99 C 45.49 94.41 39.59 98.66 35.09 104.00 C 33.03 107.11 30.06 110.58 31.40 114.59 C 33.21 118.04 37.38 119.01 40.91 119.65 C 51.05 121.64 61.23 118.21 70.38 114.08 C 78.37 110.71 86.73 108.22 94.65 104.69 C 105.06 101.52 114.80 96.47 124.43 91.47 C 127.23 89.81 130.36 88.59 132.82 86.45 C 142.14 81.48 150.87 75.15 157.92 67.24 C 162.64 63.05 165.61 57.36 169.56 52.51 C 170.80 51.14 171.31 49.35 171.68 47.59 L 171.93 47.50 C 172.29 45.07 172.68 42.64 173.23 40.24 C 173.88 35.97 175.48 31.88 175.68 27.55 C 170.57 29.41 165.53 31.45 160.37 33.16 M 102.05 57.31 C 102.39 58.19 102.74 59.07 103.09 59.95 C 109.14 55.85 116.35 53.86 122.01 49.11 C 115.32 51.74 108.84 54.91 102.05 57.31 M 129.48 51.74 C 120.36 53.23 111.93 57.12 103.63 61.02 C 104.87 64.05 106.03 67.12 107.14 70.20 C 114.09 65.80 121.02 61.25 128.57 57.93 L 128.62 57.63 C 132.83 56.72 134.59 52.41 137.43 49.64 C 134.77 50.30 132.14 51.05 129.48 51.74 M 108.43 71.45 C 107.28 73.89 107.46 76.84 106.11 79.27 C 118.76 72.18 130.94 64.27 142.50 55.51 C 143.38 54.80 144.16 53.97 144.93 53.14 C 132.35 58.38 120.12 64.44 108.43 71.45 M 80.44 62.79 C 79.19 63.69 77.36 64.12 76.81 65.72 C 75.59 68.99 74.35 72.26 73.03 75.49 L 72.79 77.05 C 71.13 79.70 73.62 82.05 75.50 83.66 C 76.60 85.89 79.26 86.99 81.13 88.54 L 80.88 88.92 C 81.42 89.15 82.49 89.59 83.03 89.82 C 88.83 87.31 94.91 85.38 100.51 82.44 C 103.08 80.06 104.38 76.66 106.32 73.80 C 106.06 73.64 105.53 73.34 105.27 73.18 C 104.39 68.45 102.58 63.94 100.14 59.81 C 99.88 59.57 99.37 59.08 99.11 58.83 C 92.82 59.77 86.47 60.71 80.44 62.79 M 159.03 76.02 C 152.03 83.40 143.83 89.48 135.85 95.74 C 137.82 95.44 139.36 94.07 141.03 93.08 C 148.62 88.11 156.24 83.07 162.95 76.92 C 166.54 73.98 167.72 69.26 169.06 65.03 C 165.67 68.65 162.59 72.55 159.03 76.02 M 20.81 88.51 C 19.32 89.82 17.83 91.13 16.32 92.43 C 15.35 93.33 14.31 94.16 13.22 94.91 L 13.34 95.46 C 9.37 98.41 6.70 102.77 3.91 106.78 C 9.77 106.43 15.33 104.30 20.74 102.17 C 21.34 100.71 21.96 99.27 22.60 97.83 C 23.56 96.06 24.55 94.31 25.59 92.59 C 29.81 86.28 34.60 80.33 40.13 75.11 C 42.11 73.20 44.39 71.59 46.08 69.39 C 37.28 75.25 28.95 81.78 20.81 88.51 M 58.48 89.51 L 58.08 89.50 C 53.70 93.35 50.55 98.35 47.36 103.17 C 58.36 99.90 68.99 95.40 79.58 90.99 C 77.09 88.90 74.57 86.85 72.29 84.53 C 71.55 83.34 70.79 82.15 70.04 80.97 C 66.04 83.60 62.02 86.27 58.48 89.51 M 8.07 108.54 C 6.10 109.08 4.06 108.66 2.08 108.45 C 4.43 111.46 7.10 114.74 11.00 115.65 C 17.11 114.44 22.75 111.55 28.75 109.89 C 29.89 105.45 33.09 102.09 36.17 98.88 C 26.90 102.38 17.74 106.27 8.07 108.54 M 92.83 116.44 C 84.60 119.22 76.68 123.20 68.01 124.44 C 67.79 124.95 67.34 125.98 67.12 126.49 C 72.11 126.29 77.11 126.20 82.11 126.18 C 87.05 124.09 91.61 121.17 96.44 118.85 C 103.89 114.95 111.25 110.81 118.18 106.05 C 109.68 109.33 101.45 113.40 92.83 116.44 M 87.90 112.40 C 82.95 115.27 77.07 116.93 72.94 120.97 C 78.24 118.84 85.23 118.26 87.90 112.40 Z" />
<path fill="#ffffba" opacity="1.00" d=" M 129.68 9.60 C 129.91 7.52 131.46 6.17 132.93 4.86 C 133.70 6.70 135.62 9.29 133.07 10.67 C 131.92 10.35 130.79 10.00 129.68 9.60 Z" />
<path fill="#4e9095" opacity="1.00" d=" M 162.72 8.80 C 167.61 7.19 172.45 5.37 177.51 4.37 C 174.95 8.24 171.85 11.70 168.95 15.30 C 167.60 12.50 165.69 9.98 162.72 8.80 Z" />
<path fill="#409292" opacity="1.00" d=" M 169.76 17.48 C 172.53 13.34 175.97 9.58 179.11 5.68 C 181.09 11.30 183.40 16.90 184.06 22.88 C 182.16 24.70 180.32 26.59 178.43 28.43 C 177.69 27.52 176.96 26.62 176.22 25.71 C 172.67 26.43 169.13 27.21 165.71 28.40 C 167.08 24.77 169.11 21.36 169.76 17.48 Z" />
<path fill="#3b8693" opacity="1.00" d=" M 152.39 12.51 C 155.83 11.27 159.27 10.02 162.72 8.80 C 165.69 9.98 167.60 12.50 168.95 15.30 C 166.59 18.20 164.16 21.04 161.64 23.79 C 160.51 23.76 159.37 23.73 158.25 23.75 C 158.50 19.27 156.19 14.89 152.39 12.51 Z" />
<path fill="#68c494" opacity="1.00" d=" M 129.59 10.05 C 130.86 10.59 132.13 11.13 133.40 11.68 C 131.94 13.55 130.00 14.92 127.93 16.03 C 128.35 14.00 128.94 12.02 129.59 10.05 Z" />
<path fill="#3c9991" opacity="1.00" d=" M 132.20 20.41 C 138.85 17.57 145.60 14.99 152.39 12.51 C 156.19 14.89 158.50 19.27 158.25 23.75 C 153.92 24.76 149.62 25.99 145.14 26.05 C 140.27 26.34 135.58 27.83 131.09 29.67 C 132.23 26.71 132.88 23.56 132.20 20.41 Z" />
<path fill="#51a193" opacity="1.00" d=" M 154.88 33.03 C 160.16 28.15 164.98 22.84 169.76 17.48 C 169.11 21.36 167.08 24.77 165.71 28.40 C 162.07 29.87 158.48 31.46 154.88 33.03 Z" />
<path fill="#000000" opacity="1.00" d=" M 86.94 25.00 C 87.33 23.22 88.07 21.55 88.98 19.98 C 90.69 22.46 90.93 25.63 92.60 28.16 C 94.55 31.03 92.42 34.34 90.91 36.87 C 88.99 39.48 87.44 42.72 84.36 44.13 C 83.26 37.60 85.42 31.26 86.94 25.00 M 88.67 24.89 C 88.30 26.45 87.99 28.01 87.74 29.59 L 87.71 29.15 C 86.68 32.94 86.19 36.86 85.60 40.74 C 87.63 38.21 89.92 35.71 90.86 32.53 L 91.59 32.44 C 91.57 29.69 90.53 26.93 88.67 24.89 Z" />
<path fill="#45a88f" opacity="1.00" d=" M 100.59 35.78 C 110.53 29.56 121.47 25.07 132.20 20.41 C 132.88 23.56 132.23 26.71 131.09 29.67 C 135.58 27.83 140.27 26.34 145.14 26.05 C 145.06 26.56 144.88 27.58 144.79 28.09 C 135.82 29.45 127.15 32.56 118.95 36.41 L 119.02 36.16 C 119.14 35.70 119.38 34.76 119.50 34.30 C 121.92 32.71 124.05 30.72 125.95 28.54 C 125.26 28.52 123.88 28.49 123.19 28.47 C 115.41 30.09 108.24 33.74 100.59 35.78 Z" />
<path fill="#4c9d93" opacity="1.00" d=" M 158.25 23.75 C 159.37 23.73 160.51 23.76 161.64 23.79 C 157.15 28.06 153.74 34.03 147.62 36.12 C 146.59 32.92 143.52 35.24 141.31 35.41 C 139.93 35.92 138.60 35.11 137.30 34.79 C 139.68 33.06 142.21 31.55 144.50 29.71 C 144.57 29.30 144.72 28.50 144.79 28.09 C 144.88 27.58 145.06 26.56 145.14 26.05 C 149.62 25.99 153.92 24.76 158.25 23.75 Z" />
<path fill="#ffffd2" opacity="1.00" d=" M 88.67 24.89 C 90.53 26.93 91.57 29.69 91.59 32.44 L 90.86 32.53 C 90.16 32.61 88.76 32.77 88.06 32.85 C 87.95 31.77 87.84 30.68 87.74 29.59 C 87.99 28.01 88.30 26.45 88.67 24.89 Z" />
<path fill="#3ba88e" opacity="1.00" d=" M 160.37 33.16 C 165.53 31.45 170.57 29.41 175.68 27.55 C 175.48 31.88 173.88 35.97 173.23 40.24 C 172.46 39.42 171.70 38.61 170.93 37.80 C 168.81 38.40 166.69 39.00 164.55 39.54 C 166.33 37.28 168.59 35.14 168.86 32.09 C 166.42 33.11 165.33 35.75 163.42 37.44 C 160.22 40.46 157.22 43.75 153.56 46.22 C 153.60 45.72 153.69 44.72 153.73 44.22 C 156.28 41.31 158.96 38.46 160.81 35.02 C 160.71 34.62 160.52 33.80 160.43 33.40 L 160.37 33.16 Z" />
<path fill="#beffaf" opacity="1.00" d=" M 87.71 29.15 L 87.74 29.59 C 87.84 30.68 87.95 31.77 88.06 32.85 C 88.76 32.77 90.16 32.61 90.86 32.53 C 89.92 35.71 87.63 38.21 85.60 40.74 C 86.19 36.86 86.68 32.94 87.71 29.15 Z" />
<path fill="#78c39a" opacity="1.00" d=" M 126.77 35.43 C 130.94 33.89 135.07 32.23 139.34 30.98 C 136.97 33.26 134.12 34.94 131.59 37.01 C 133.46 38.10 135.48 38.90 137.54 39.59 C 135.89 40.47 134.20 41.28 132.47 41.98 C 130.44 39.92 128.50 37.76 126.77 35.43 Z" />
<path fill="#62bd91" opacity="1.00" d=" M 141.31 35.41 C 143.52 35.24 146.59 32.92 147.62 36.12 C 146.23 36.66 144.86 37.22 143.45 37.69 C 140.50 38.91 137.40 37.27 134.46 36.82 C 135.40 36.14 136.35 35.46 137.30 34.79 C 138.60 35.11 139.93 35.92 141.31 35.41 Z" />
<path fill="#62bd91" opacity="1.00" d=" M 146.16 39.11 C 150.96 37.32 155.57 35.04 160.43 33.40 C 160.52 33.80 160.71 34.62 160.81 35.02 C 158.96 38.46 156.28 41.31 153.73 44.22 C 153.69 44.72 153.60 45.72 153.56 46.22 C 153.19 46.65 152.46 47.52 152.10 47.95 L 151.58 47.59 C 150.60 46.90 149.62 46.21 148.65 45.51 C 148.27 43.29 147.37 41.22 146.25 39.28 L 146.16 39.11 Z" />
<path fill="#91d19b" opacity="1.00" d=" M 119.53 38.31 C 121.93 37.31 124.34 36.36 126.77 35.43 C 128.50 37.76 130.44 39.92 132.47 41.98 C 131.59 42.33 130.71 42.70 129.85 43.10 C 126.10 42.11 121.68 42.13 119.53 38.31 Z" />
<path fill="#3e9595" opacity="1.00" d=" M 164.55 39.54 C 166.69 39.00 168.81 38.40 170.93 37.80 C 171.70 38.61 172.46 39.42 173.23 40.24 C 172.68 42.64 172.29 45.07 171.93 47.50 L 171.68 47.59 C 171.41 47.68 170.87 47.87 170.60 47.96 C 166.32 52.41 161.00 55.59 155.99 59.13 C 152.58 62.16 147.70 58.98 144.09 61.74 C 142.74 62.51 141.42 63.34 140.11 64.17 L 138.77 63.89 C 143.21 59.60 149.08 56.80 152.68 51.67 C 152.66 51.32 152.62 50.61 152.60 50.25 C 156.54 46.78 160.55 43.38 164.23 39.63 L 164.55 39.54 Z" />
<path fill="#a5e29d" opacity="1.00" d=" M 112.06 41.50 C 114.53 40.40 117.03 39.35 119.53 38.31 C 121.68 42.13 126.10 42.11 129.85 43.10 C 126.22 45.25 122.23 46.61 118.33 48.16 C 115.90 46.31 112.70 44.79 112.06 41.50 Z" />
<path fill="#7bc992" opacity="1.00" d=" M 130.04 47.00 C 135.35 44.24 140.73 41.59 146.25 39.28 C 147.37 41.22 148.27 43.29 148.65 45.51 C 149.62 46.21 150.60 46.90 151.58 47.59 C 146.35 49.66 140.90 51.23 135.93 53.92 C 137.50 51.46 140.26 50.13 141.99 47.78 C 135.80 47.43 129.82 49.39 123.87 50.80 C 125.58 49.02 127.91 48.14 130.04 47.00 Z" />
<path fill="#bcf2a1" opacity="1.00" d=" M 106.14 44.30 C 108.10 43.34 110.07 42.41 112.06 41.50 C 112.70 44.79 115.90 46.31 118.33 48.16 C 115.19 49.46 112.07 50.80 108.96 52.14 C 106.17 50.41 105.92 47.28 106.14 44.30 Z" />
<path fill="#dbffa9" opacity="1.00" d=" M 95.98 49.34 C 99.34 47.61 102.75 45.97 106.14 44.30 C 105.92 47.28 106.17 50.41 108.96 52.14 C 105.24 53.70 101.68 55.63 97.92 57.10 C 97.00 54.59 96.29 52.00 95.98 49.34 Z" />
<path fill="#000000" opacity="1.00" d=" M 68.00 49.60 C 69.74 47.27 72.98 46.01 75.81 46.64 C 78.03 47.83 76.88 50.40 76.30 52.23 C 75.39 54.22 74.83 56.70 72.86 57.92 C 70.15 55.82 71.68 50.83 68.00 49.60 M 70.72 49.24 C 71.60 50.90 72.33 52.64 73.29 54.25 C 74.08 52.37 74.84 50.48 75.56 48.58 C 73.91 48.29 72.31 48.85 70.72 49.24 Z" />
<path fill="#66b8a7" opacity="1.00" d=" M 170.60 47.96 C 170.87 47.87 171.41 47.68 171.68 47.59 C 171.31 49.35 170.80 51.14 169.56 52.51 C 165.61 57.36 162.64 63.05 157.92 67.24 C 156.53 67.48 155.13 67.66 153.73 67.92 C 152.38 66.67 151.00 65.43 149.50 64.35 C 147.73 63.41 145.90 62.59 144.09 61.74 C 147.70 58.98 152.58 62.16 155.99 59.13 C 161.00 55.59 166.32 52.41 170.60 47.96 Z" />
<path fill="#ffffd2" opacity="1.00" d=" M 70.72 49.24 C 72.31 48.85 73.91 48.29 75.56 48.58 C 74.84 50.48 74.08 52.37 73.29 54.25 C 72.33 52.64 71.60 50.90 70.72 49.24 Z" />
<path fill="#f1ffae" opacity="1.00" d=" M 78.72 59.11 C 84.30 55.55 90.13 52.41 95.98 49.34 C 96.29 52.00 97.00 54.59 97.92 57.10 C 92.18 56.90 86.55 58.37 81.08 59.99 C 80.49 59.77 79.31 59.33 78.72 59.11 Z" />
<path fill="#68c494" opacity="1.00" d=" M 129.48 51.74 C 132.14 51.05 134.77 50.30 137.43 49.64 C 134.59 52.41 132.83 56.72 128.62 57.63 C 128.88 55.66 129.18 53.70 129.48 51.74 Z" />
<path fill="#58b38f" opacity="1.00" d=" M 122.23 72.19 C 132.90 65.68 142.98 58.23 152.60 50.25 C 152.62 50.61 152.66 51.32 152.68 51.67 C 149.08 56.80 143.21 59.60 138.77 63.89 L 140.11 64.17 C 139.31 64.75 138.52 65.33 137.73 65.91 C 132.33 69.39 126.35 71.79 120.66 74.71 C 119.60 75.33 118.56 76.00 117.51 76.63 C 116.27 77.14 114.99 77.57 113.74 78.04 C 116.30 75.72 119.37 74.08 122.23 72.19 Z" />
<path fill="#55af91" opacity="1.00" d=" M 103.63 61.02 C 111.93 57.12 120.36 53.23 129.48 51.74 C 129.18 53.70 128.88 55.66 128.62 57.63 L 128.57 57.93 C 121.02 61.25 114.09 65.80 107.14 70.20 C 106.03 67.12 104.87 64.05 103.63 61.02 Z" />
<path fill="#ffffc1" opacity="1.00" d=" M 66.73 67.52 C 70.59 64.52 74.60 61.73 78.72 59.11 C 79.31 59.33 80.49 59.77 81.08 59.99 C 79.25 60.73 77.42 61.58 75.90 62.87 C 72.90 65.23 72.04 69.13 70.40 72.39 C 68.87 73.05 67.35 73.72 65.85 74.43 C 65.76 72.09 66.10 69.77 66.73 67.52 Z" />
<path fill="#3cc47b" opacity="1.00" d=" M 80.44 62.79 C 86.47 60.71 92.82 59.77 99.11 58.83 C 99.37 59.08 99.88 59.57 100.14 59.81 C 99.28 59.88 97.55 60.03 96.68 60.10 C 97.02 60.82 97.38 61.53 97.76 62.23 C 97.33 66.33 98.29 70.42 97.82 74.52 C 94.99 70.55 93.99 65.74 93.70 60.96 C 92.79 64.59 91.26 68.17 88.13 70.43 C 90.10 70.49 92.09 70.77 93.88 71.67 C 93.42 71.69 92.50 71.72 92.04 71.74 C 92.62 72.98 93.19 74.22 93.82 75.44 C 90.53 76.39 87.55 78.16 85.34 80.81 C 84.38 79.55 83.42 78.29 82.54 76.98 C 84.80 75.56 86.97 73.96 88.60 71.82 C 87.28 72.29 85.96 72.78 84.63 73.25 C 81.24 74.09 78.18 76.11 74.53 75.47 C 75.32 73.11 76.36 70.85 77.70 68.75 C 80.03 69.27 81.86 68.17 82.86 66.08 C 82.05 64.98 81.24 63.88 80.44 62.79 Z" />
<path fill="#7fe264" opacity="1.00" d=" M 96.68 60.10 C 97.55 60.03 99.28 59.88 100.14 59.81 C 102.58 63.94 104.39 68.45 105.27 73.18 L 104.25 72.60 C 101.96 69.22 100.52 65.31 97.76 62.23 C 97.38 61.53 97.02 60.82 96.68 60.10 Z" />
<path fill="#2c737a" opacity="1.00" d=" M 93.70 60.96 C 93.99 65.74 94.99 70.55 97.82 74.52 C 100.15 74.89 102.16 73.36 104.25 72.60 L 105.27 73.18 C 105.53 73.34 106.06 73.64 106.32 73.80 C 104.38 76.66 103.08 80.06 100.51 82.44 C 94.91 85.38 88.83 87.31 83.03 89.82 C 82.49 89.59 81.42 89.15 80.88 88.92 L 81.13 88.54 C 82.22 86.74 83.47 85.05 84.83 83.44 C 83.25 81.27 81.56 78.93 78.97 77.91 C 77.07 77.06 75.20 78.23 73.42 78.78 C 73.26 78.35 72.94 77.49 72.79 77.05 L 73.03 75.49 C 73.40 75.48 74.15 75.48 74.53 75.47 C 78.18 76.11 81.24 74.09 84.63 73.25 C 83.73 74.11 82.84 74.98 81.98 75.88 C 82.12 76.15 82.40 76.70 82.54 76.98 C 83.42 78.29 84.38 79.55 85.34 80.81 C 87.55 78.16 90.53 76.39 93.82 75.44 C 94.90 76.68 96.19 77.69 97.54 78.62 C 96.97 76.02 95.76 73.57 93.88 71.67 C 92.09 70.77 90.10 70.49 88.13 70.43 C 91.26 68.17 92.79 64.59 93.70 60.96 Z" />
<path fill="#79be9e" opacity="1.00" d=" M 140.11 64.17 C 141.42 63.34 142.74 62.51 144.09 61.74 C 145.90 62.59 147.73 63.41 149.50 64.35 C 147.67 65.58 145.85 66.83 143.99 68.00 L 143.11 68.53 C 141.31 67.66 139.51 66.79 137.73 65.91 C 138.52 65.33 139.31 64.75 140.11 64.17 Z" />
<path fill="#fffdd1" opacity="1.00" d=" M 76.81 65.72 C 77.36 64.12 79.19 63.69 80.44 62.79 C 81.24 63.88 82.05 64.98 82.86 66.08 C 81.86 68.17 80.03 69.27 77.70 68.75 C 76.36 70.85 75.32 73.11 74.53 75.47 C 74.15 75.48 73.40 75.48 73.03 75.49 C 74.35 72.26 75.59 68.99 76.81 65.72 Z" />
<path fill="#16b45f" opacity="1.00" d=" M 97.82 74.52 C 98.29 70.42 97.33 66.33 97.76 62.23 C 100.52 65.31 101.96 69.22 104.25 72.60 C 102.16 73.36 100.15 74.89 97.82 74.52 Z" />
<path fill="#a0f0ad" opacity="1.00" d=" M 143.99 68.00 C 145.85 66.83 147.67 65.58 149.50 64.35 C 151.00 65.43 152.38 66.67 153.73 67.92 C 151.46 68.76 149.27 69.82 147.05 70.78 C 146.85 70.28 146.45 69.27 146.24 68.77 C 145.68 68.58 144.55 68.19 143.99 68.00 Z" />
<path fill="#66b8a7" opacity="1.00" d=" M 159.03 76.02 C 162.59 72.55 165.67 68.65 169.06 65.03 C 167.72 69.26 166.54 73.98 162.95 76.92 C 156.24 83.07 148.62 88.11 141.03 93.08 C 139.36 94.07 137.82 95.44 135.85 95.74 C 143.83 89.48 152.03 83.40 159.03 76.02 Z" />
<path fill="#93d4a3" opacity="1.00" d=" M 120.66 74.71 C 126.35 71.79 132.33 69.39 137.73 65.91 C 139.51 66.79 141.31 67.66 143.11 68.53 C 137.80 71.53 132.07 73.81 126.13 75.20 C 124.30 75.80 122.44 75.13 120.66 74.71 Z" />
<path fill="#73c297" opacity="1.00" d=" M 153.73 67.92 C 155.13 67.66 156.53 67.48 157.92 67.24 C 150.87 75.15 142.14 81.48 132.82 86.45 C 135.42 82.39 140.37 80.98 143.36 77.32 C 144.97 75.57 145.65 73.25 146.39 71.04 L 147.05 70.78 C 149.27 69.82 151.46 68.76 153.73 67.92 Z" />
<path fill="#ffffec" opacity="1.00" d=" M 62.74 70.38 C 64.10 69.46 65.43 68.51 66.73 67.52 C 66.10 69.77 65.76 72.09 65.85 74.43 C 59.97 77.12 54.60 80.72 49.13 84.11 C 52.78 79.65 57.15 75.86 61.13 71.70 C 61.49 71.45 62.22 70.95 62.58 70.70 L 62.74 70.38 Z" />
<path fill="#d0ffb3" opacity="1.00" d=" M 143.11 68.53 L 143.99 68.00 C 144.55 68.19 145.68 68.58 146.24 68.77 C 146.45 69.27 146.85 70.28 147.05 70.78 L 146.39 71.04 C 144.58 71.67 142.73 72.14 140.89 72.63 C 134.72 74.17 130.12 79.00 124.12 80.97 C 124.23 80.39 124.45 79.22 124.56 78.64 C 126.01 77.83 127.46 77.03 128.92 76.24 C 125.18 77.13 121.30 77.44 117.51 76.63 C 118.56 76.00 119.60 75.33 120.66 74.71 C 122.44 75.13 124.30 75.80 126.13 75.20 C 132.07 73.81 137.80 71.53 143.11 68.53 Z" />
<path fill="#a5f5a6" opacity="1.00" d=" M 20.81 88.51 C 28.95 81.78 37.28 75.25 46.08 69.39 C 44.39 71.59 42.11 73.20 40.13 75.11 C 34.60 80.33 29.81 86.28 25.59 92.59 C 24.00 91.22 22.41 89.86 20.81 88.51 Z" />
<path fill="#a0d29c" opacity="1.00" d=" M 140.89 72.63 C 142.73 72.14 144.58 71.67 146.39 71.04 C 145.65 73.25 144.97 75.57 143.36 77.32 C 140.37 80.98 135.42 82.39 132.82 86.45 C 130.36 88.59 127.23 89.81 124.43 91.47 C 114.80 96.47 105.06 101.52 94.65 104.69 C 103.74 98.47 113.31 92.94 123.11 87.90 C 127.08 85.92 131.14 84.07 135.02 81.92 C 138.55 80.03 138.15 75.27 140.89 72.63 Z" />
<path fill="#fffdd1" opacity="1.00" d=" M 84.63 73.25 C 85.96 72.78 87.28 72.29 88.60 71.82 C 86.97 73.96 84.80 75.56 82.54 76.98 C 82.40 76.70 82.12 76.15 81.98 75.88 C 82.84 74.98 83.73 74.11 84.63 73.25 Z" />
<path fill="#8df56c" opacity="1.00" d=" M 92.04 71.74 C 92.50 71.72 93.42 71.69 93.88 71.67 C 95.76 73.57 96.97 76.02 97.54 78.62 C 96.19 77.69 94.90 76.68 93.82 75.44 C 93.19 74.22 92.62 72.98 92.04 71.74 Z" />
<path fill="#b3e89c" opacity="1.00" d=" M 124.12 80.97 C 130.12 79.00 134.72 74.17 140.89 72.63 C 138.15 75.27 138.55 80.03 135.02 81.92 C 131.14 84.07 127.08 85.92 123.11 87.90 C 122.57 87.04 122.03 86.19 121.50 85.33 C 122.39 83.89 123.27 82.44 124.12 80.97 Z" />
<path fill="#f2ffb9" opacity="1.00" d=" M 117.51 76.63 C 121.30 77.44 125.18 77.13 128.92 76.24 C 127.46 77.03 126.01 77.83 124.56 78.64 C 124.45 79.22 124.23 80.39 124.12 80.97 C 118.78 83.40 113.79 86.56 108.80 89.63 C 107.66 86.97 108.85 84.58 111.10 83.02 C 110.31 82.31 109.53 81.60 108.75 80.90 C 110.38 79.89 111.96 78.78 113.74 78.04 C 114.99 77.57 116.27 77.14 117.51 76.63 Z" />
<path fill="#ffffd2" opacity="1.00" d=" M 75.50 83.66 C 73.62 82.05 71.13 79.70 72.79 77.05 C 72.94 77.49 73.26 78.35 73.42 78.78 C 74.31 80.31 75.17 81.90 75.50 83.66 Z" />
<path fill="#3bb87c" opacity="1.00" d=" M 73.42 78.78 C 75.20 78.23 77.07 77.06 78.97 77.91 C 81.56 78.93 83.25 81.27 84.83 83.44 C 83.47 85.05 82.22 86.74 81.13 88.54 C 79.26 86.99 76.60 85.89 75.50 83.66 C 75.17 81.90 74.31 80.31 73.42 78.78 Z" />
<path fill="#e8ffa7" opacity="1.00" d=" M 82.97 92.31 C 91.66 88.72 100.40 85.22 108.75 80.90 C 109.53 81.60 110.31 82.31 111.10 83.02 C 108.85 84.58 107.66 86.97 108.80 89.63 C 101.06 95.52 92.99 101.08 84.26 105.42 C 83.75 105.27 82.73 104.96 82.22 104.81 C 85.30 102.02 86.03 97.32 82.60 94.45 C 82.70 93.92 82.88 92.84 82.97 92.31 Z" />
<path fill="#cdf99c" opacity="1.00" d=" M 108.80 89.63 C 113.79 86.56 118.78 83.40 124.12 80.97 C 123.27 82.44 122.39 83.89 121.50 85.33 C 122.03 86.19 122.57 87.04 123.11 87.90 C 113.31 92.94 103.74 98.47 94.65 104.69 C 86.73 108.22 78.37 110.71 70.38 114.08 C 69.85 113.68 68.80 112.88 68.27 112.48 C 73.43 109.74 79.12 108.20 84.26 105.42 C 92.99 101.08 101.06 95.52 108.80 89.63 Z" />
<path fill="#6fbd93" opacity="1.00" d=" M 58.48 89.51 C 62.02 86.27 66.04 83.60 70.04 80.97 C 70.79 82.15 71.55 83.34 72.29 84.53 C 67.71 86.14 63.54 89.88 58.48 89.51 Z" />
<path fill="#58af91" opacity="1.00" d=" M 58.48 89.51 C 63.54 89.88 67.71 86.14 72.29 84.53 C 74.57 86.85 77.09 88.90 79.58 90.99 C 68.99 95.40 58.36 99.90 47.36 103.17 C 50.55 98.35 53.70 93.35 58.08 89.50 L 58.48 89.51 Z" />
<path fill="#beffaf" opacity="1.00" d=" M 16.32 92.43 C 17.83 91.13 19.32 89.82 20.81 88.51 C 22.41 89.86 24.00 91.22 25.59 92.59 C 24.55 94.31 23.56 96.06 22.60 97.83 C 20.71 97.23 18.77 96.72 16.99 95.84 C 16.58 94.74 16.51 93.57 16.32 92.43 Z" />
<path fill="#e1ff9e" opacity="1.00" d=" M 35.09 104.00 C 39.59 98.66 45.49 94.41 52.05 91.99 C 50.10 96.24 46.75 99.69 45.17 104.14 C 43.24 104.87 40.03 105.86 39.43 103.01 C 38.69 103.85 37.56 105.09 38.84 106.05 C 41.95 107.97 45.70 106.51 48.98 105.92 C 60.69 102.37 71.50 96.49 82.97 92.31 C 82.88 92.84 82.70 93.92 82.60 94.45 C 86.03 97.32 85.30 102.02 82.22 104.81 C 82.73 104.96 83.75 105.27 84.26 105.42 C 79.12 108.20 73.43 109.74 68.27 112.48 C 68.80 112.88 69.85 113.68 70.38 114.08 C 61.23 118.21 51.05 121.64 40.91 119.65 C 37.38 119.01 33.21 118.04 31.40 114.59 C 30.06 110.58 33.03 107.11 35.09 104.00 Z" />
<path fill="#dcffbb" opacity="1.00" d=" M 13.22 94.91 C 14.31 94.16 15.35 93.33 16.32 92.43 C 16.51 93.57 16.58 94.74 16.99 95.84 C 18.77 96.72 20.71 97.23 22.60 97.83 C 21.96 99.27 21.34 100.71 20.74 102.17 C 18.83 101.41 16.85 100.79 14.98 99.91 C 13.79 98.79 13.83 96.93 13.34 95.46 L 13.22 94.91 Z" />
<path fill="#ffffe0" opacity="1.00" d=" M 3.91 106.78 C 6.70 102.77 9.37 98.41 13.34 95.46 C 13.83 96.93 13.79 98.79 14.98 99.91 C 16.85 100.79 18.83 101.41 20.74 102.17 C 15.33 104.30 9.77 106.43 3.91 106.78 Z" />
<path fill="#e0ff9c" opacity="1.00" d=" M 8.07 108.54 C 17.74 106.27 26.90 102.38 36.17 98.88 C 33.09 102.09 29.89 105.45 28.75 109.89 C 22.75 111.55 17.11 114.44 11.00 115.65 C 7.10 114.74 4.43 111.46 2.08 108.45 C 4.06 108.66 6.10 109.08 8.07 108.54 Z" />
<path fill="#dcffbb" opacity="1.00" d=" M 92.83 116.44 C 101.45 113.40 109.68 109.33 118.18 106.05 C 111.25 110.81 103.89 114.95 96.44 118.85 C 95.24 118.04 94.03 117.24 92.83 116.44 Z" />
<path fill="#78c39a" opacity="1.00" d=" M 87.90 112.40 C 85.23 118.26 78.24 118.84 72.94 120.97 C 77.07 116.93 82.95 115.27 87.90 112.40 Z" />
<path fill="#f3ffb5" opacity="1.00" d=" M 68.01 124.44 C 76.68 123.20 84.60 119.22 92.83 116.44 C 94.03 117.24 95.24 118.04 96.44 118.85 C 91.61 121.17 87.05 124.09 82.11 126.18 C 77.11 126.20 72.11 126.29 67.12 126.49 C 67.34 125.98 67.79 124.95 68.01 124.44 Z" />
<path fill="#000000" opacity="1.00" d=" M 100.06 144.97 C 112.00 144.17 124.01 144.17 135.96 144.84 C 138.95 145.40 142.42 145.35 144.94 147.20 C 146.72 149.07 144.23 150.97 142.48 151.35 C 136.47 153.00 130.21 153.53 124.01 153.93 C 114.04 154.98 104.00 154.86 93.99 154.83 C 89.87 154.71 85.60 154.86 81.69 153.38 C 81.34 152.76 80.65 151.54 80.30 150.93 C 85.46 145.69 93.40 146.44 100.06 144.97 Z" />
</svg>
