<?xml version="1.0" encoding="UTF-8" ?>
<!DOCTYPE svg PUBLIC "-//W3C//DTD SVG 1.1//EN" "http://www.w3.org/Graphics/SVG/1.1/DTD/svg11.dtd">
<svg width="192pt" height="176pt" viewBox="0 0 192 176" version="1.1" xmlns="http://www.w3.org/2000/svg">
<path fill="#000000" opacity="1.00" d=" M 113.83 8.77 C 115.20 5.93 116.37 2.93 118.51 0.55 C 118.40 9.64 119.98 18.64 120.40 27.70 C 123.67 30.56 127.65 32.55 130.48 35.90 C 128.56 37.98 126.71 40.11 125.02 42.38 C 126.75 41.95 128.50 41.56 130.29 41.58 C 129.48 43.13 128.62 44.67 127.73 46.19 C 135.37 46.58 142.62 52.53 142.87 60.48 C 149.21 59.81 155.60 60.20 161.95 60.43 C 170.22 55.96 178.51 51.50 186.84 47.12 C 184.57 50.34 182.35 53.70 179.22 56.17 C 169.91 63.88 160.23 71.17 150.10 77.76 C 146.23 76.63 142.17 73.97 138.15 76.20 C 140.10 73.88 142.62 72.23 145.24 70.78 C 144.09 70.45 142.95 70.11 141.81 69.73 L 143.60 68.88 C 145.90 68.49 148.35 68.46 150.46 67.33 C 151.12 66.93 151.78 66.52 152.43 66.09 C 154.67 64.75 156.93 63.46 159.12 62.05 C 158.19 61.94 157.26 61.86 156.32 61.84 C 154.28 61.82 152.24 61.97 150.20 62.14 C 147.73 62.16 145.27 62.04 142.80 61.94 C 142.45 63.54 142.09 65.13 141.73 66.73 C 141.75 67.63 141.79 69.42 141.81 70.32 C 139.09 71.79 137.98 74.88 135.70 76.83 C 133.28 79.17 130.13 80.54 126.85 81.11 C 128.99 82.71 131.10 84.34 133.11 86.11 C 130.88 87.22 128.43 87.84 126.25 89.06 C 125.90 90.48 125.63 91.91 125.44 93.36 C 139.50 87.19 153.46 80.79 167.48 74.55 C 175.42 70.11 183.39 65.69 191.17 60.98 C 189.06 63.66 187.07 66.46 184.74 68.97 L 184.17 69.14 C 183.87 69.00 183.29 68.71 182.99 68.57 C 179.10 70.30 175.66 72.87 171.80 74.65 C 166.49 77.16 161.12 79.53 155.78 81.98 C 152.14 83.62 148.49 85.25 144.85 86.88 C 142.83 87.78 140.81 88.71 138.79 89.63 C 130.62 93.25 122.41 96.81 114.23 100.40 C 105.11 104.28 95.92 108.00 86.61 111.38 C 79.68 113.90 72.71 116.31 65.70 118.58 C 52.08 123.06 38.35 127.24 24.46 130.78 C 27.17 131.55 29.92 132.19 32.70 132.67 C 32.74 133.13 32.80 134.06 32.83 134.52 C 31.04 137.75 29.12 140.90 27.14 144.02 C 32.00 142.30 36.78 140.37 41.50 138.30 C 44.20 137.11 46.96 136.05 49.69 134.94 C 55.61 132.78 61.45 130.44 67.32 128.19 C 69.58 127.28 71.87 126.42 74.17 125.61 C 73.67 124.77 73.17 123.93 72.67 123.09 L 74.06 122.57 C 74.73 122.33 75.41 122.08 76.10 121.84 C 79.97 120.48 83.83 119.11 87.68 117.67 C 96.34 114.47 104.94 111.11 113.57 107.83 C 119.39 105.58 125.41 103.81 130.94 100.87 C 134.26 99.10 137.81 97.87 141.33 96.56 C 143.88 95.56 146.41 94.54 148.93 93.46 C 151.65 92.31 154.24 90.85 156.89 89.53 C 157.33 91.72 157.93 93.88 158.54 96.03 C 165.84 89.12 172.69 81.77 179.27 74.18 C 180.73 72.59 181.77 70.47 183.77 69.49 C 183.67 69.81 183.48 70.45 183.38 70.77 C 177.01 79.49 170.12 87.88 162.14 95.20 C 160.46 96.53 159.08 98.81 156.75 98.86 C 156.25 96.61 156.24 94.30 156.12 92.01 C 145.71 97.86 134.16 101.11 123.27 105.90 C 122.01 109.77 123.17 115.24 119.90 118.02 C 119.28 114.74 118.73 111.45 118.10 108.17 C 113.90 110.17 109.64 112.08 105.15 113.35 C 95.38 116.28 86.06 120.52 76.29 123.48 C 76.55 124.28 76.82 125.09 77.08 125.90 C 70.06 129.56 62.53 132.10 55.21 135.07 C 46.15 138.46 37.34 142.52 28.10 145.42 C 26.94 145.72 24.62 146.25 25.15 144.26 C 27.08 140.78 29.38 137.52 31.22 133.98 C 28.20 133.65 25.19 132.91 22.77 130.98 C 23.11 129.44 23.62 127.86 25.23 127.25 C 32.23 123.47 38.93 119.08 46.27 115.96 C 45.42 118.82 43.57 121.21 42.18 123.81 C 44.14 123.27 46.10 122.71 48.05 122.13 C 48.97 117.90 49.83 113.67 50.71 109.44 C 40.17 114.63 29.54 119.63 19.24 125.27 C 14.28 127.61 9.73 130.88 4.44 132.44 C 4.88 131.00 5.67 129.74 6.83 128.79 C 13.20 122.99 19.49 117.12 25.60 111.05 C 23.65 111.90 21.76 111.96 19.92 111.23 C 21.91 109.25 24.34 107.86 26.68 106.36 C 26.57 104.87 24.34 104.79 23.33 103.95 C 16.88 111.54 9.40 118.22 1.84 124.67 C 1.01 121.62 0.60 118.49 0.00 115.40 L 0.00 107.05 C 2.14 108.39 3.24 110.66 4.29 112.85 C 9.55 107.78 13.65 101.64 18.79 96.47 C 23.25 98.26 27.03 101.31 30.34 104.75 C 31.90 104.05 33.43 103.29 34.95 102.50 C 33.28 99.55 34.38 96.13 34.26 92.94 C 34.61 85.57 33.66 77.99 35.49 70.78 C 39.12 79.23 38.58 88.67 40.35 97.56 C 41.94 97.93 43.53 98.30 45.12 98.67 C 45.85 98.26 47.30 97.43 48.03 97.01 C 47.71 96.35 47.07 95.03 46.75 94.37 C 45.93 94.59 44.28 95.01 43.46 95.23 C 43.88 91.02 45.23 86.99 46.21 82.89 C 50.17 68.99 53.58 54.92 58.48 41.31 C 58.95 42.46 59.22 43.69 59.25 44.94 C 60.04 55.84 60.95 66.74 61.26 77.66 C 63.85 76.82 66.47 76.08 69.11 75.40 C 69.16 67.65 70.86 59.26 76.52 53.58 C 78.60 51.84 81.91 49.32 84.49 51.57 C 90.23 56.08 91.45 63.89 92.10 70.71 C 94.28 69.97 96.44 69.22 98.60 68.44 C 97.67 58.87 102.23 47.55 112.33 44.99 C 111.34 43.62 110.49 42.15 109.82 40.59 C 111.35 40.29 112.88 39.98 114.42 39.67 C 111.78 36.28 108.23 33.83 104.94 31.15 C 103.44 30.37 104.31 28.86 104.75 27.73 C 107.47 21.27 110.90 15.14 113.83 8.77 M 106.07 29.54 C 107.50 30.56 108.93 31.59 110.37 32.60 C 112.83 34.93 115.47 37.15 117.29 40.04 C 116.85 40.42 115.95 41.16 115.50 41.53 C 114.88 41.56 113.65 41.63 113.03 41.67 C 113.58 42.94 114.26 44.14 115.07 45.27 C 114.84 45.53 114.39 46.04 114.16 46.30 C 111.16 47.26 108.14 48.59 105.99 50.98 C 101.94 55.21 100.65 61.33 100.68 67.01 C 101.14 68.35 101.56 69.72 102.08 71.06 C 102.76 72.62 103.74 74.00 104.79 75.33 C 105.04 75.50 105.52 75.85 105.76 76.03 C 109.46 79.46 114.82 78.61 119.42 78.70 L 119.19 79.65 C 117.73 81.71 115.36 82.70 113.56 84.38 C 114.80 84.78 115.95 85.35 117.02 86.08 C 117.76 88.40 116.97 90.98 118.06 93.23 C 118.17 94.30 118.24 95.39 118.27 96.49 C 119.96 95.75 121.70 95.10 123.33 94.22 C 124.03 93.09 123.60 91.62 123.78 90.36 C 123.98 87.37 126.73 86.65 129.13 85.86 C 127.56 83.77 124.97 82.75 123.10 80.94 L 123.70 79.66 C 127.11 79.41 130.60 78.75 133.35 76.55 C 133.81 76.18 134.29 75.81 134.77 75.44 C 135.06 74.78 135.66 73.45 135.96 72.78 C 136.97 72.90 137.57 72.42 137.77 71.34 C 138.51 69.83 139.24 68.30 139.82 66.72 C 141.28 62.40 141.12 57.51 138.31 53.75 C 138.21 53.55 138.01 53.14 137.91 52.94 C 136.44 51.76 135.00 50.50 133.26 49.73 C 132.99 49.65 132.44 49.51 132.16 49.44 L 130.94 48.76 C 128.95 48.46 127.04 47.81 125.16 47.09 C 125.19 46.47 125.24 45.21 125.27 44.59 C 124.44 44.60 122.79 44.63 121.97 44.64 C 123.10 42.40 124.58 40.36 125.68 38.11 C 126.34 37.34 127.00 36.56 127.66 35.79 C 124.70 33.30 120.99 31.60 118.63 28.47 C 118.10 25.37 118.32 22.13 117.48 19.06 C 117.72 15.15 117.13 10.97 117.22 6.96 C 113.05 14.14 109.67 21.98 106.07 29.54 M 57.71 47.88 C 56.21 53.73 54.71 59.57 53.30 65.44 L 53.13 65.29 C 52.42 68.76 51.34 72.14 50.55 75.59 L 50.34 75.53 C 50.22 76.04 49.99 77.05 49.88 77.55 C 49.69 78.28 49.32 79.74 49.13 80.46 C 47.90 84.33 46.78 88.24 46.16 92.26 C 49.10 90.13 52.23 88.31 55.27 86.36 C 56.92 88.77 56.18 91.96 55.82 94.65 C 55.53 95.84 55.29 97.04 55.08 98.25 C 55.01 98.63 54.87 99.38 54.80 99.76 L 54.31 101.39 L 54.84 101.89 C 54.64 102.30 54.23 103.13 54.03 103.55 L 53.67 104.94 C 52.84 108.68 52.15 112.44 51.30 116.18 C 53.88 113.11 55.43 109.32 57.66 105.99 C 58.14 105.08 58.62 104.16 59.09 103.23 C 59.98 99.97 64.16 96.47 61.12 93.18 L 61.42 93.34 C 62.39 92.44 63.27 94.14 64.15 94.42 C 65.00 90.35 68.71 87.59 69.69 83.59 L 70.33 82.79 L 69.43 82.44 C 69.47 80.81 69.40 79.19 69.25 77.58 C 65.91 78.01 62.78 79.70 59.37 79.29 L 59.20 77.75 C 59.19 76.95 59.17 75.35 59.16 74.55 C 58.80 71.70 58.76 68.82 58.60 65.96 C 57.88 59.98 58.83 53.70 57.71 47.88 M 76.25 57.15 L 76.07 57.12 C 74.55 59.50 73.35 62.07 72.61 64.80 C 70.93 71.33 71.01 78.36 72.69 84.88 C 73.54 88.56 75.16 92.71 78.90 94.27 C 83.35 95.31 87.47 91.60 88.30 87.44 C 89.74 84.52 89.62 81.17 89.85 78.00 C 89.96 70.92 89.57 63.48 86.11 57.13 C 85.30 55.18 83.64 53.82 82.05 52.52 C 79.64 53.36 77.51 54.89 76.25 57.15 M 162.45 62.44 L 162.50 63.17 C 160.80 63.09 159.45 64.24 158.03 64.97 C 153.20 67.86 148.10 70.39 143.71 73.91 C 145.86 74.46 148.01 75.01 150.09 75.81 C 152.63 74.24 155.13 72.59 157.48 70.75 C 165.86 64.77 174.18 58.65 181.79 51.70 C 175.17 54.97 168.89 58.84 162.45 62.44 M 94.55 72.22 C 94.03 72.30 92.99 72.46 92.47 72.54 C 92.10 75.65 92.42 78.78 92.27 81.91 C 92.12 82.69 91.82 84.27 91.67 85.05 C 96.99 83.12 102.49 81.67 108.00 80.42 C 106.30 79.49 104.58 78.52 103.24 77.10 C 102.96 76.85 102.39 76.37 102.11 76.12 C 100.99 74.22 100.01 72.25 99.23 70.19 C 97.61 70.72 96.02 71.36 94.55 72.22 M 36.14 85.11 L 35.68 85.86 L 36.15 86.55 C 35.41 89.03 35.88 91.68 35.68 94.24 C 35.60 96.28 35.54 98.32 35.56 100.36 C 37.17 100.81 38.75 101.34 40.32 101.90 C 41.32 103.71 41.93 105.68 42.53 107.66 C 42.73 105.19 42.97 102.73 43.36 100.28 C 41.85 99.49 40.17 99.18 38.47 99.33 C 38.52 98.75 38.61 97.58 38.65 97.00 C 38.57 96.27 38.39 94.81 38.30 94.08 C 38.07 91.50 37.71 88.93 37.10 86.41 C 37.04 86.08 36.92 85.42 36.85 85.09 C 37.47 83.25 36.47 81.22 36.40 79.32 C 35.14 80.21 35.54 83.58 36.14 85.11 M 91.09 86.74 C 90.13 91.26 86.95 95.82 82.14 96.64 C 79.60 97.29 77.14 96.19 75.03 94.89 C 73.58 96.07 72.16 97.30 70.79 98.57 C 72.34 99.17 75.37 97.47 76.08 99.63 C 70.73 102.26 65.00 104.03 59.70 106.73 C 56.86 111.46 54.10 116.26 51.44 121.10 C 73.49 114.37 95.29 106.69 116.33 97.24 C 115.75 93.91 115.20 90.58 114.97 87.21 C 113.36 86.44 111.31 85.96 110.70 84.04 C 111.85 83.07 113.00 82.11 114.13 81.12 C 106.31 82.20 98.72 84.73 91.09 86.74 M 65.81 96.15 C 64.26 98.77 62.80 101.45 61.26 104.08 C 64.91 102.84 68.42 101.15 71.95 99.61 C 71.06 99.58 69.29 99.51 68.40 99.48 C 69.19 98.19 70.15 97.00 70.94 95.71 C 72.12 95.29 72.95 94.29 73.90 93.52 C 72.58 91.55 71.60 89.38 70.84 87.13 C 68.78 89.90 67.35 93.08 65.81 96.15 M 52.52 90.24 L 52.79 90.50 C 51.49 91.98 46.53 92.78 49.21 95.52 C 51.17 98.31 47.20 99.38 45.25 100.16 C 45.17 101.04 45.01 102.80 44.93 103.68 L 44.67 103.83 C 44.70 106.22 44.24 108.56 43.34 110.77 L 44.11 110.46 C 46.44 109.17 50.46 109.09 51.32 106.27 C 51.68 104.82 52.08 103.37 52.58 101.96 L 52.28 101.61 L 52.57 101.77 C 52.63 100.95 52.77 99.30 52.83 98.47 C 53.22 96.67 53.54 94.86 54.11 93.11 C 54.82 91.96 54.85 90.56 55.11 89.27 C 54.25 89.60 53.39 89.92 52.52 90.24 M 12.21 106.64 C 11.55 107.38 10.89 108.12 10.22 108.87 C 8.67 111.09 6.79 113.06 4.83 114.92 C 3.34 114.54 2.30 113.62 1.68 112.16 C 2.01 115.36 2.37 118.56 2.85 121.75 C 4.48 120.13 6.13 118.53 7.79 116.94 C 9.19 115.62 10.59 114.30 11.99 112.98 C 14.21 110.94 16.33 108.80 18.42 106.62 C 19.89 105.13 21.37 103.63 22.80 102.09 C 24.02 102.57 25.18 103.17 26.27 103.89 C 24.69 100.97 21.34 99.79 18.71 98.04 C 16.55 100.90 14.54 103.89 12.21 106.64 M 31.62 105.98 C 32.57 106.93 33.51 107.89 34.48 108.83 C 33.97 108.71 32.96 108.47 32.45 108.35 C 30.07 106.18 26.84 107.63 24.78 109.48 C 25.89 108.85 28.46 107.53 28.46 109.95 C 23.38 115.28 18.36 120.87 12.30 125.11 C 12.88 125.57 13.46 126.04 14.04 126.51 C 22.99 121.02 32.47 116.43 41.87 111.77 L 42.54 111.94 C 41.09 108.86 40.47 105.49 39.05 102.40 C 36.58 103.62 34.10 104.81 31.62 105.98 M 120.40 112.53 L 120.53 112.58 C 121.22 110.80 122.02 108.50 121.03 106.71 C 118.59 107.27 120.89 110.75 120.40 112.53 M 26.70 127.89 C 29.84 127.72 32.81 126.64 35.78 125.70 C 36.32 125.49 37.41 125.07 37.96 124.86 C 41.32 125.10 41.61 121.03 43.07 118.91 C 37.53 121.77 31.98 124.57 26.70 127.89 M 10.85 126.03 L 10.51 126.63 C 10.19 127.15 9.57 128.19 9.25 128.71 C 10.66 128.63 11.83 128.03 12.76 126.91 C 12.32 126.15 11.69 125.85 10.85 126.03 Z" />
<path fill="#fffffe" opacity="1.00" d=" M 106.07 29.54 C 109.67 21.98 113.05 14.14 117.22 6.96 C 117.13 10.97 117.72 15.15 117.48 19.06 C 115.74 20.56 114.18 22.25 112.87 24.13 C 113.04 24.67 113.22 25.18 113.42 25.66 C 110.75 26.95 109.94 29.85 110.37 32.60 C 108.93 31.59 107.50 30.56 106.07 29.54 Z" />
<path fill="#fff186" opacity="1.00" d=" M 112.87 24.13 C 114.18 22.25 115.74 20.56 117.48 19.06 C 118.32 22.13 118.10 25.37 118.63 28.47 C 120.99 31.60 124.70 33.30 127.66 35.79 C 127.00 36.56 126.34 37.34 125.68 38.11 C 121.96 38.42 119.32 42.22 115.50 41.53 C 115.95 41.16 116.85 40.42 117.29 40.04 C 115.47 37.15 112.83 34.93 110.37 32.60 C 109.94 29.85 110.75 26.95 113.42 25.66 C 113.22 25.18 113.04 24.67 112.87 24.13 Z" />
<path fill="#000000" opacity="1.00" d=" M 149.80 41.78 C 157.74 34.74 165.44 27.34 173.94 20.97 C 173.18 23.41 172.38 25.89 170.94 28.03 C 165.49 36.15 159.21 43.65 153.33 51.45 C 152.39 52.64 151.45 53.88 150.11 54.65 C 149.33 53.61 148.54 52.58 147.75 51.56 C 148.08 51.34 148.73 50.92 149.06 50.70 C 149.48 51.03 150.32 51.69 150.75 52.02 C 152.45 49.51 154.22 47.04 156.15 44.70 C 158.52 41.81 160.84 38.86 163.05 35.84 C 165.41 32.90 167.77 29.95 169.67 26.69 C 161.53 33.37 154.05 40.84 146.06 47.70 C 145.48 47.49 144.31 47.08 143.73 46.87 C 143.91 48.03 144.42 49.01 145.25 49.82 C 143.67 50.41 142.10 51.04 140.54 51.67 C 141.58 49.44 142.74 47.25 144.11 45.20 C 146.69 45.70 148.05 43.16 149.80 41.78 Z" />
<path fill="#fffbd3" opacity="1.00" d=" M 146.06 47.70 C 154.05 40.84 161.53 33.37 169.67 26.69 C 167.77 29.95 165.41 32.90 163.05 35.84 C 158.35 39.05 153.49 42.27 149.79 46.66 C 151.92 46.04 154.03 45.37 156.15 44.70 C 154.22 47.04 152.45 49.51 150.75 52.02 C 150.32 51.69 149.48 51.03 149.06 50.70 C 147.96 49.81 146.79 48.94 146.06 47.70 Z" />
<path fill="#fffe91" opacity="1.00" d=" M 149.79 46.66 C 153.49 42.27 158.35 39.05 163.05 35.84 C 160.84 38.86 158.52 41.81 156.15 44.70 C 154.03 45.37 151.92 46.04 149.79 46.66 Z" />
<path fill="#f8d272" opacity="1.00" d=" M 115.50 41.53 C 119.32 42.22 121.96 38.42 125.68 38.11 C 124.58 40.36 123.10 42.40 121.97 44.64 C 122.79 44.63 124.44 44.60 125.27 44.59 C 125.24 45.21 125.19 46.47 125.16 47.09 C 124.49 47.61 123.81 48.12 123.13 48.63 C 121.74 48.46 120.36 48.33 118.98 48.19 C 117.88 51.87 113.36 51.76 110.41 53.10 C 111.27 54.82 112.12 56.54 112.97 58.27 C 111.53 58.03 110.08 58.14 108.69 58.58 C 110.21 58.91 111.74 59.21 113.27 59.50 C 110.56 60.96 107.44 62.54 104.32 61.36 C 105.32 57.61 106.23 53.67 108.64 50.54 C 110.08 48.64 112.54 48.00 114.16 46.30 C 114.39 46.04 114.84 45.53 115.07 45.27 C 114.26 44.14 113.58 42.94 113.03 41.67 C 113.65 41.63 114.88 41.56 115.50 41.53 Z" />
<path fill="#ffffff" opacity="1.00" d=" M 105.99 50.98 C 108.14 48.59 111.16 47.26 114.16 46.30 C 112.54 48.00 110.08 48.64 108.64 50.54 C 106.23 53.67 105.32 57.61 104.32 61.36 C 107.44 62.54 110.56 60.96 113.27 59.50 C 111.74 59.21 110.21 58.91 108.69 58.58 C 110.08 58.14 111.53 58.03 112.97 58.27 C 114.35 58.65 115.70 59.07 117.07 59.49 C 121.20 57.55 125.51 55.76 130.18 56.18 L 129.82 56.98 C 122.71 57.04 115.73 60.00 110.81 65.14 L 109.86 64.98 C 111.34 63.53 113.29 62.37 114.00 60.33 C 110.97 61.46 107.88 62.49 104.64 62.85 C 104.26 64.06 103.87 65.28 103.49 66.49 C 102.79 66.62 101.38 66.88 100.68 67.01 C 100.65 61.33 101.94 55.21 105.99 50.98 Z" />
<path fill="#ffe07b" opacity="1.00" d=" M 123.13 48.63 C 123.81 48.12 124.49 47.61 125.16 47.09 C 127.04 47.81 128.95 48.46 130.94 48.76 C 130.73 51.24 130.59 53.73 130.18 56.18 C 125.51 55.76 121.20 57.55 117.07 59.49 C 115.70 59.07 114.35 58.65 112.97 58.27 C 112.12 56.54 111.27 54.82 110.41 53.10 C 113.36 51.76 117.88 51.87 118.98 48.19 C 120.36 48.33 121.74 48.46 123.13 48.63 Z" />
<path fill="#14140e" opacity="0.78" d=" M 143.73 46.87 C 144.31 47.08 145.48 47.49 146.06 47.70 C 146.79 48.94 147.96 49.81 149.06 50.70 C 148.73 50.92 148.08 51.34 147.75 51.56 C 146.85 51.08 146.04 50.45 145.25 49.82 C 144.42 49.01 143.91 48.03 143.73 46.87 Z" />
<path fill="#ffffcb" opacity="1.00" d=" M 57.71 47.88 C 58.83 53.70 57.88 59.98 58.60 65.96 C 57.21 66.12 55.82 66.30 54.42 66.40 C 54.14 66.16 53.58 65.68 53.30 65.44 C 54.71 59.57 56.21 53.73 57.71 47.88 Z" />
<path fill="#d99b4f" opacity="1.00" d=" M 130.94 48.76 L 132.16 49.44 C 132.17 50.73 131.25 53.03 132.76 53.68 C 133.37 52.44 133.54 51.13 133.26 49.73 C 135.00 50.50 136.44 51.76 137.91 52.94 C 133.72 55.49 129.83 58.49 125.62 61.01 C 126.09 61.44 126.56 61.87 127.04 62.31 C 128.00 60.78 129.47 59.76 130.99 58.87 C 130.72 59.93 130.45 60.99 130.17 62.04 C 127.44 63.05 126.23 65.70 124.18 67.49 C 124.52 65.81 124.87 64.13 125.20 62.45 C 124.06 63.82 122.78 65.07 121.36 66.14 C 117.59 65.64 113.84 66.32 110.17 67.15 L 109.76 66.12 C 110.02 65.87 110.55 65.39 110.81 65.14 C 115.73 60.00 122.71 57.04 129.82 56.98 L 130.18 56.18 C 130.59 53.73 130.73 51.24 130.94 48.76 Z" />
<path fill="#e4c369" opacity="1.00" d=" M 132.16 49.44 C 132.44 49.51 132.99 49.65 133.26 49.73 C 133.54 51.13 133.37 52.44 132.76 53.68 C 131.25 53.03 132.17 50.73 132.16 49.44 Z" />
<path fill="#f9a366" opacity="1.00" d=" M 76.25 57.15 C 77.51 54.89 79.64 53.36 82.05 52.52 C 83.64 53.82 85.30 55.18 86.11 57.13 C 86.26 58.40 86.42 59.67 86.58 60.94 C 84.67 59.43 82.75 57.63 80.14 57.67 C 78.85 57.50 77.55 57.32 76.25 57.15 Z" />
<path fill="#ffffdd" opacity="1.00" d=" M 137.91 52.94 C 138.01 53.14 138.21 53.55 138.31 53.75 C 138.12 54.28 137.75 55.35 137.56 55.88 C 137.83 56.34 138.36 57.27 138.63 57.73 C 137.33 58.69 135.97 59.62 134.99 60.93 L 134.67 61.69 C 134.58 62.03 134.40 62.71 134.31 63.06 C 132.55 64.54 130.36 65.20 128.13 65.56 C 128.38 65.77 128.87 66.19 129.12 66.39 C 127.31 67.10 125.55 67.97 123.67 68.46 C 121.26 68.69 119.04 69.63 117.07 71.00 C 113.65 73.37 109.62 74.56 105.76 76.03 C 105.52 75.85 105.04 75.50 104.79 75.33 C 109.72 72.74 115.62 71.78 119.69 67.75 C 120.24 67.21 120.80 66.68 121.36 66.14 C 122.78 65.07 124.06 63.82 125.20 62.45 C 124.87 64.13 124.52 65.81 124.18 67.49 C 126.23 65.70 127.44 63.05 130.17 62.04 C 130.45 60.99 130.72 59.93 130.99 58.87 C 129.47 59.76 128.00 60.78 127.04 62.31 C 126.56 61.87 126.09 61.44 125.62 61.01 C 129.83 58.49 133.72 55.49 137.91 52.94 Z" />
<path fill="#fed779" opacity="1.00" d=" M 137.56 55.88 C 137.75 55.35 138.12 54.28 138.31 53.75 C 141.12 57.51 141.28 62.40 139.82 66.72 C 138.65 65.51 136.98 65.64 135.46 65.48 L 135.14 64.95 C 136.25 63.88 136.49 61.78 134.99 60.93 C 135.97 59.62 137.33 58.69 138.63 57.73 C 138.36 57.27 137.83 56.34 137.56 55.88 Z" />
<path fill="#ffeb8e" opacity="1.00" d=" M 162.45 62.44 C 168.89 58.84 175.17 54.97 181.79 51.70 C 174.18 58.65 165.86 64.77 157.48 70.75 C 157.41 67.22 163.70 67.12 162.50 63.17 L 162.45 62.44 Z" />
<path fill="#fff5c1" opacity="1.00" d=" M 76.07 57.12 L 76.25 57.15 C 77.55 57.32 78.85 57.50 80.14 57.67 C 80.19 58.92 80.22 60.18 80.23 61.44 C 79.31 63.47 77.84 65.17 75.78 66.09 C 74.73 65.65 73.67 65.22 72.61 64.80 C 73.35 62.07 74.55 59.50 76.07 57.12 Z" />
<path fill="#fff5c1" opacity="1.00" d=" M 86.11 57.13 C 89.57 63.48 89.96 70.92 89.85 78.00 C 89.62 81.17 89.74 84.52 88.30 87.44 C 88.45 79.59 88.95 71.65 87.15 63.91 C 86.94 62.93 86.74 61.94 86.58 60.94 C 86.42 59.67 86.26 58.40 86.11 57.13 Z" />
<path fill="#d16e4d" opacity="1.00" d=" M 80.14 57.67 C 82.75 57.63 84.67 59.43 86.58 60.94 C 86.74 61.94 86.94 62.93 87.15 63.91 C 86.16 63.32 85.17 62.73 84.18 62.14 C 83.83 69.66 88.36 78.16 82.70 84.70 C 82.11 80.76 83.61 76.90 83.29 72.97 C 82.99 69.00 82.89 64.67 80.23 61.44 C 80.22 60.18 80.19 58.92 80.14 57.67 Z" />
<path fill="#f7d06e" opacity="1.00" d=" M 104.64 62.85 C 107.88 62.49 110.97 61.46 114.00 60.33 C 113.29 62.37 111.34 63.53 109.86 64.98 L 110.81 65.14 C 110.55 65.39 110.02 65.87 109.76 66.12 C 108.07 66.10 106.38 66.06 104.70 66.02 C 104.68 65.23 104.65 63.64 104.64 62.85 Z" />
<path fill="#eba353" opacity="1.00" d=" M 134.99 60.93 C 136.49 61.78 136.25 63.88 135.14 64.95 C 135.02 64.13 134.79 62.50 134.67 61.69 L 134.99 60.93 Z" />
<path fill="#af4238" opacity="1.00" d=" M 80.23 61.44 C 82.89 64.67 82.99 69.00 83.29 72.97 C 83.61 76.90 82.11 80.76 82.70 84.70 C 80.71 87.21 77.25 86.14 74.62 85.53 C 74.66 79.05 73.82 72.39 75.78 66.09 C 77.84 65.17 79.31 63.47 80.23 61.44 Z" />
<path fill="#af414f" opacity="1.00" d=" M 84.18 62.14 C 85.17 62.73 86.16 63.32 87.15 63.91 C 88.95 71.65 88.45 79.59 88.30 87.44 C 87.47 91.60 83.35 95.31 78.90 94.27 C 75.16 92.71 73.54 88.56 72.69 84.88 L 74.62 85.53 C 77.25 86.14 80.71 87.21 82.70 84.70 C 88.36 78.16 83.83 69.66 84.18 62.14 M 84.22 84.17 C 82.81 85.68 85.57 86.58 86.34 85.27 C 87.75 83.81 85.02 82.74 84.22 84.17 Z" />
<path fill="#fffe91" opacity="1.00" d=" M 134.31 63.06 C 134.40 62.71 134.58 62.03 134.67 61.69 C 134.79 62.50 135.02 64.13 135.14 64.95 L 135.46 65.48 C 136.98 65.64 138.65 65.51 139.82 66.72 C 139.24 68.30 138.51 69.83 137.77 71.34 C 137.39 70.27 136.94 69.23 136.42 68.23 C 135.39 69.53 135.91 71.27 135.96 72.78 C 135.66 73.45 135.06 74.78 134.77 75.44 C 133.08 75.41 131.42 75.14 130.01 74.15 C 131.66 72.44 133.12 70.56 134.59 68.70 C 134.03 68.68 132.91 68.65 132.35 68.63 C 133.11 66.81 133.81 64.96 134.31 63.06 Z" />
<path fill="#c3ba73" opacity="1.00" d=" M 141.73 66.73 C 142.09 65.13 142.45 63.54 142.80 61.94 C 145.27 62.04 147.73 62.16 150.20 62.14 C 147.78 62.44 145.35 62.71 142.91 62.85 C 142.13 64.76 143.04 66.17 144.95 66.69 C 143.87 66.68 142.80 66.70 141.73 66.73 Z" />
<path fill="#fffe9e" opacity="1.00" d=" M 150.20 62.14 C 152.24 61.97 154.28 61.82 156.32 61.84 C 154.88 63.12 153.66 64.61 152.43 66.09 C 151.78 66.52 151.12 66.93 150.46 67.33 C 147.87 65.54 145.63 67.22 143.60 68.88 L 141.81 69.73 C 141.81 69.88 141.81 70.18 141.81 70.32 C 141.79 69.42 141.75 67.63 141.73 66.73 C 142.80 66.70 143.87 66.68 144.95 66.69 C 143.04 66.17 142.13 64.76 142.91 62.85 C 145.35 62.71 147.78 62.44 150.20 62.14 Z" />
<path fill="#fffffe" opacity="1.00" d=" M 156.32 61.84 C 157.26 61.86 158.19 61.94 159.12 62.05 C 156.93 63.46 154.67 64.75 152.43 66.09 C 153.66 64.61 154.88 63.12 156.32 61.84 Z" />
<path fill="#ffffcc" opacity="1.00" d=" M 103.49 66.49 C 103.87 65.28 104.26 64.06 104.64 62.85 C 104.65 63.64 104.68 65.23 104.70 66.02 C 104.75 66.81 104.86 68.40 104.92 69.19 C 106.09 68.33 107.27 67.47 108.45 66.62 C 108.25 67.23 107.87 68.45 107.67 69.06 C 107.06 70.02 106.40 70.96 105.76 71.91 C 104.53 71.64 103.30 71.36 102.08 71.06 C 101.56 69.72 101.14 68.35 100.68 67.01 C 101.38 66.88 102.79 66.62 103.49 66.49 Z" />
<path fill="#ffffff" opacity="1.00" d=" M 128.13 65.56 C 130.36 65.20 132.55 64.54 134.31 63.06 C 133.81 64.96 133.11 66.81 132.35 68.63 C 132.91 68.65 134.03 68.68 134.59 68.70 C 133.12 70.56 131.66 72.44 130.01 74.15 C 129.39 74.45 128.78 74.73 128.16 75.01 C 128.03 74.56 127.78 73.66 127.65 73.21 L 128.38 72.55 C 129.72 71.33 130.29 69.57 131.06 67.98 C 130.57 67.58 129.61 66.79 129.12 66.39 C 128.87 66.19 128.38 65.77 128.13 65.56 Z" />
<path fill="#ecba63" opacity="1.00" d=" M 158.03 64.97 C 159.45 64.24 160.80 63.09 162.50 63.17 C 163.70 67.12 157.41 67.22 157.48 70.75 C 155.13 72.59 152.63 74.24 150.09 75.81 C 148.01 75.01 145.86 74.46 143.71 73.91 C 148.10 70.39 153.20 67.86 158.03 64.97 Z" />
<path fill="#ffffb3" opacity="1.00" d=" M 53.13 65.29 L 53.30 65.44 C 53.58 65.68 54.14 66.16 54.42 66.40 C 55.82 66.30 57.21 66.12 58.60 65.96 C 58.76 68.82 58.80 71.70 59.16 74.55 C 56.77 74.93 54.43 75.50 52.07 76.01 C 51.69 75.90 50.93 75.70 50.55 75.59 C 51.34 72.14 52.42 68.76 53.13 65.29 Z" />
<path fill="#f59e65" opacity="1.00" d=" M 72.61 64.80 C 73.67 65.22 74.73 65.65 75.78 66.09 C 73.82 72.39 74.66 79.05 74.62 85.53 L 72.69 84.88 C 71.01 78.36 70.93 71.33 72.61 64.80 Z" />
<path fill="#e5b571" opacity="1.00" d=" M 104.70 66.02 C 106.38 66.06 108.07 66.10 109.76 66.12 L 110.17 67.15 C 113.84 66.32 117.59 65.64 121.36 66.14 C 120.80 66.68 120.24 67.21 119.69 67.75 C 115.85 65.45 111.72 69.04 107.67 69.06 C 107.87 68.45 108.25 67.23 108.45 66.62 C 107.27 67.47 106.09 68.33 104.92 69.19 C 104.86 68.40 104.75 66.81 104.70 66.02 Z" />
<path fill="#ffb86a" opacity="1.00" d=" M 143.60 68.88 C 145.63 67.22 147.87 65.54 150.46 67.33 C 148.35 68.46 145.90 68.49 143.60 68.88 Z" />
<path fill="#d99a4e" opacity="1.00" d=" M 107.67 69.06 C 111.72 69.04 115.85 65.45 119.69 67.75 C 115.62 71.78 109.72 72.74 104.79 75.33 C 103.74 74.00 102.76 72.62 102.08 71.06 C 103.30 71.36 104.53 71.64 105.76 71.91 C 106.40 70.96 107.06 70.02 107.67 69.06 Z" />
<path fill="#fac46d" opacity="1.00" d=" M 123.67 68.46 C 125.55 67.97 127.31 67.10 129.12 66.39 C 129.61 66.79 130.57 67.58 131.06 67.98 C 130.29 69.57 129.72 71.33 128.38 72.55 C 127.14 72.24 125.90 71.94 124.66 71.64 C 123.02 73.32 121.00 74.49 118.66 74.83 C 120.16 72.58 121.98 70.58 123.67 68.46 Z" />
<path fill="#ddb463" opacity="1.00" d=" M 135.96 72.78 C 135.91 71.27 135.39 69.53 136.42 68.23 C 136.94 69.23 137.39 70.27 137.77 71.34 C 137.57 72.42 136.97 72.90 135.96 72.78 Z" />
<path fill="#ffffff" opacity="1.00" d=" M 171.80 74.65 C 175.66 72.87 179.10 70.30 182.99 68.57 C 183.29 68.71 183.87 69.00 184.17 69.14 L 183.77 69.49 C 181.77 70.47 180.73 72.59 179.27 74.18 C 172.69 81.77 165.84 89.12 158.54 96.03 C 157.93 93.88 157.33 91.72 156.89 89.53 C 156.74 87.46 155.76 85.66 154.32 84.19 C 156.24 84.89 158.26 85.36 160.32 85.07 C 159.19 83.54 157.47 82.72 155.78 81.98 C 161.12 79.53 166.49 77.16 171.80 74.65 Z" />
<path fill="#d7934a" opacity="1.00" d=" M 117.07 71.00 C 119.04 69.63 121.26 68.69 123.67 68.46 C 121.98 70.58 120.16 72.58 118.66 74.83 C 121.00 74.49 123.02 73.32 124.66 71.64 C 125.90 71.94 127.14 72.24 128.38 72.55 L 127.65 73.21 C 125.85 74.59 123.93 75.83 121.83 76.70 C 121.30 76.93 120.24 77.39 119.71 77.63 C 119.64 77.89 119.49 78.43 119.42 78.70 C 114.82 78.61 109.46 79.46 105.76 76.03 C 109.62 74.56 113.65 73.37 117.07 71.00 Z" />
<path fill="#ffb86a" opacity="1.00" d=" M 94.55 72.22 C 96.02 71.36 97.61 70.72 99.23 70.19 C 100.01 72.25 100.99 74.22 102.11 76.12 C 99.11 76.98 96.05 77.57 92.95 77.82 C 92.98 76.68 93.01 75.55 93.04 74.41 C 95.59 74.94 97.60 73.11 99.60 71.89 C 97.91 71.96 96.23 72.07 94.55 72.22 Z" />
<path fill="#feeac6" opacity="1.00" d=" M 92.47 72.54 C 92.99 72.46 94.03 72.30 94.55 72.22 C 96.23 72.07 97.91 71.96 99.60 71.89 C 97.60 73.11 95.59 74.94 93.04 74.41 C 93.01 75.55 92.98 76.68 92.95 77.82 C 96.05 77.57 99.11 76.98 102.11 76.12 C 102.39 76.37 102.96 76.85 103.24 77.10 C 99.49 78.48 95.48 79.41 92.27 81.91 C 92.42 78.78 92.10 75.65 92.47 72.54 Z" />
<path fill="#fffea4" opacity="1.00" d=" M 121.83 76.70 C 123.93 75.83 125.85 74.59 127.65 73.21 C 127.78 73.66 128.03 74.56 128.16 75.01 L 128.41 75.69 C 130.04 76.02 131.70 76.28 133.35 76.55 C 130.60 78.75 127.11 79.41 123.70 79.66 L 123.10 80.94 C 122.11 82.69 120.96 84.59 118.91 85.20 C 119.61 82.76 120.94 80.59 122.37 78.52 C 122.24 78.06 121.97 77.15 121.83 76.70 Z" />
<path fill="#d5b165" opacity="1.00" d=" M 128.16 75.01 C 128.78 74.73 129.39 74.45 130.01 74.15 C 131.42 75.14 133.08 75.41 134.77 75.44 C 134.29 75.81 133.81 76.18 133.35 76.55 C 131.70 76.28 130.04 76.02 128.41 75.69 L 128.16 75.01 Z" />
<path fill="#efcd78" opacity="1.00" d=" M 50.34 75.53 L 50.55 75.59 C 50.93 75.70 51.69 75.90 52.07 76.01 C 54.43 75.50 56.77 74.93 59.16 74.55 C 59.17 75.35 59.19 76.95 59.20 77.75 C 56.09 77.80 52.99 77.52 49.88 77.55 C 49.99 77.05 50.22 76.04 50.34 75.53 Z" />
<path fill="#ffffce" opacity="1.00" d=" M 49.88 77.55 C 52.99 77.52 56.09 77.80 59.20 77.75 L 59.37 79.29 C 55.93 79.44 52.56 80.24 49.13 80.46 C 49.32 79.74 49.69 78.28 49.88 77.55 Z" />
<path fill="#fff087" opacity="1.00" d=" M 59.37 79.29 C 62.78 79.70 65.91 78.01 69.25 77.58 C 69.40 79.19 69.47 80.81 69.43 82.44 C 68.96 82.35 68.01 82.18 67.54 82.09 C 68.07 81.08 68.61 80.08 69.14 79.07 C 68.34 78.90 66.74 78.57 65.94 78.41 C 65.43 80.35 64.62 82.21 63.45 83.85 C 60.67 84.47 57.76 84.88 55.27 86.36 C 52.23 88.31 49.10 90.13 46.16 92.26 C 46.78 88.24 47.90 84.33 49.13 80.46 C 52.56 80.24 55.93 79.44 59.37 79.29 Z" />
<path fill="#ffc270" opacity="1.00" d=" M 92.27 81.91 C 95.48 79.41 99.49 78.48 103.24 77.10 C 104.58 78.52 106.30 79.49 108.00 80.42 C 102.49 81.67 96.99 83.12 91.67 85.05 C 91.82 84.27 92.12 82.69 92.27 81.91 Z" />
<path fill="#fff086" opacity="1.00" d=" M 119.71 77.63 C 120.24 77.39 121.30 76.93 121.83 76.70 C 121.97 77.15 122.24 78.06 122.37 78.52 C 120.94 80.59 119.61 82.76 118.91 85.20 C 120.96 84.59 122.11 82.69 123.10 80.94 C 124.97 82.75 127.56 83.77 129.13 85.86 C 126.73 86.65 123.98 87.37 123.78 90.36 C 122.27 91.99 120.15 92.70 118.06 93.23 C 116.97 90.98 117.76 88.40 117.02 86.08 C 115.95 85.35 114.80 84.78 113.56 84.38 C 115.36 82.70 117.73 81.71 119.19 79.65 L 119.42 78.70 C 119.49 78.43 119.64 77.89 119.71 77.63 Z" />
<path fill="#ffe07b" opacity="1.00" d=" M 36.14 85.11 C 35.54 83.58 35.14 80.21 36.40 79.32 C 36.47 81.22 37.47 83.25 36.85 85.09 L 36.14 85.11 Z" />
<path fill="#ffffff" opacity="1.00" d=" M 65.94 78.41 C 66.74 78.57 68.34 78.90 69.14 79.07 C 68.61 80.08 68.07 81.08 67.54 82.09 C 68.01 82.18 68.96 82.35 69.43 82.44 L 70.33 82.79 L 69.69 83.59 C 65.32 87.49 59.34 89.94 57.26 95.86 C 57.78 98.34 58.36 100.80 59.09 103.23 C 58.62 104.16 58.14 105.08 57.66 105.99 C 56.33 105.64 55.00 105.29 53.67 104.94 L 54.03 103.55 C 54.74 103.86 57.67 104.19 56.42 102.72 C 56.03 102.51 55.24 102.10 54.84 101.89 L 54.31 101.39 L 54.80 99.76 C 55.36 100.03 56.46 100.58 57.02 100.85 C 57.70 99.53 56.71 97.60 55.08 98.25 C 55.29 97.04 55.53 95.84 55.82 94.65 C 57.18 93.09 58.48 91.48 59.74 89.84 C 59.73 89.46 59.72 88.71 59.71 88.34 C 61.12 86.99 62.40 85.50 63.45 83.85 C 64.62 82.21 65.43 80.35 65.94 78.41 M 66.41 82.98 C 64.93 83.24 64.50 86.09 66.50 84.81 C 67.98 84.58 68.42 81.69 66.41 82.98 Z" />
<path fill="#ffffce" opacity="1.00" d=" M 144.85 86.88 C 148.49 85.25 152.14 83.62 155.78 81.98 C 157.47 82.72 159.19 83.54 160.32 85.07 C 158.26 85.36 156.24 84.89 154.32 84.19 C 155.76 85.66 156.74 87.46 156.89 89.53 C 154.24 90.85 151.65 92.31 148.93 93.46 C 147.22 92.33 145.24 91.90 143.24 91.65 C 144.43 90.76 145.60 89.84 146.78 88.93 C 146.13 88.25 145.49 87.56 144.85 86.88 Z" />
<path fill="#efc88e" opacity="1.00" d=" M 66.41 82.98 C 68.42 81.69 67.98 84.58 66.50 84.81 C 64.50 86.09 64.93 83.24 66.41 82.98 Z" />
<path fill="#eeb560" opacity="1.00" d=" M 55.27 86.36 C 57.76 84.88 60.67 84.47 63.45 83.85 C 62.40 85.50 61.12 86.99 59.71 88.34 C 59.72 88.71 59.73 89.46 59.74 89.84 C 58.48 91.48 57.18 93.09 55.82 94.65 C 56.18 91.96 56.92 88.77 55.27 86.36 Z" />
<path fill="#fddb77" opacity="1.00" d=" M 57.26 95.86 C 59.34 89.94 65.32 87.49 69.69 83.59 C 68.71 87.59 65.00 90.35 64.15 94.42 C 63.27 94.14 62.39 92.44 61.42 93.34 L 61.12 93.18 C 64.16 96.47 59.98 99.97 59.09 103.23 C 58.36 100.80 57.78 98.34 57.26 95.86 Z" />
<path fill="#ffffcb" opacity="1.00" d=" M 84.22 84.17 C 85.02 82.74 87.75 83.81 86.34 85.27 C 85.57 86.58 82.81 85.68 84.22 84.17 Z" />
<path fill="#fffef0" opacity="1.00" d=" M 36.14 85.11 L 36.85 85.09 C 36.92 85.42 37.04 86.08 37.10 86.41 L 36.15 86.55 L 35.68 85.86 L 36.14 85.11 Z" />
<path fill="#000000" opacity="1.00" d=" M 101.40 87.41 C 102.64 86.36 103.79 85.02 105.48 84.73 C 104.35 87.97 101.92 90.50 100.11 93.36 C 96.99 98.13 93.51 102.67 89.69 106.91 C 89.06 106.06 88.43 105.19 87.81 104.33 C 85.72 105.44 83.86 106.93 81.88 108.23 L 81.39 107.16 C 83.04 104.53 85.21 102.25 86.50 99.40 C 87.06 99.48 88.20 99.66 88.76 99.75 C 92.65 95.31 97.07 91.40 101.40 87.41 M 89.00 101.11 C 87.36 101.38 86.17 102.27 85.59 103.88 C 86.13 103.57 87.20 102.96 87.74 102.65 C 88.51 103.34 89.23 104.09 89.99 104.78 C 93.50 100.33 97.04 95.87 100.03 91.04 C 96.00 94.01 92.81 97.91 89.00 101.11 Z" />
<path fill="#f3e680" opacity="1.00" d=" M 36.15 86.55 L 37.10 86.41 C 37.71 88.93 38.07 91.50 38.30 94.08 C 37.65 94.12 36.34 94.20 35.68 94.24 C 35.88 91.68 35.41 89.03 36.15 86.55 Z" />
<path fill="#ffffb2" opacity="1.00" d=" M 138.79 89.63 C 140.81 88.71 142.83 87.78 144.85 86.88 C 145.49 87.56 146.13 88.25 146.78 88.93 C 145.60 89.84 144.43 90.76 143.24 91.65 C 145.24 91.90 147.22 92.33 148.93 93.46 C 146.41 94.54 143.88 95.56 141.33 96.56 C 139.89 95.39 138.46 94.22 137.03 93.06 C 137.62 91.91 138.20 90.77 138.79 89.63 Z" />
<path fill="#fbd473" opacity="1.00" d=" M 65.81 96.15 C 67.35 93.08 68.78 89.90 70.84 87.13 C 71.60 89.38 72.58 91.55 73.90 93.52 C 72.95 94.29 72.12 95.29 70.94 95.71 C 69.22 96.39 67.51 97.10 65.81 97.85 C 65.81 97.43 65.81 96.57 65.81 96.15 Z" />
<path fill="#eeb560" opacity="1.00" d=" M 52.52 90.24 C 53.39 89.92 54.25 89.60 55.11 89.27 C 54.85 90.56 54.82 91.96 54.11 93.11 C 53.54 94.86 53.22 96.67 52.83 98.47 C 50.25 100.28 47.74 102.22 44.93 103.68 C 45.01 102.80 45.17 101.04 45.25 100.16 C 47.20 99.38 51.17 98.31 49.21 95.52 C 50.76 94.51 52.35 93.56 53.74 92.33 C 53.81 91.55 53.50 90.94 52.79 90.50 L 52.52 90.24 Z" />
<path fill="#ffffbe" opacity="1.00" d=" M 118.06 93.23 C 120.15 92.70 122.27 91.99 123.78 90.36 C 123.60 91.62 124.03 93.09 123.33 94.22 C 121.70 95.10 119.96 95.75 118.27 96.49 C 118.24 95.39 118.17 94.30 118.06 93.23 Z" />
<path fill="#fffc95" opacity="1.00" d=" M 114.23 100.40 C 122.41 96.81 130.62 93.25 138.79 89.63 C 138.20 90.77 137.62 91.91 137.03 93.06 C 138.46 94.22 139.89 95.39 141.33 96.56 C 137.81 97.87 134.26 99.10 130.94 100.87 C 125.41 103.81 119.39 105.58 113.57 107.83 C 113.07 105.33 113.98 102.87 114.23 100.40 Z" />
<path fill="#fffffe" opacity="1.00" d=" M 49.21 95.52 C 46.53 92.78 51.49 91.98 52.79 90.50 C 53.50 90.94 53.81 91.55 53.74 92.33 C 52.35 93.56 50.76 94.51 49.21 95.52 Z" />
<path fill="#fffe9e" opacity="1.00" d=" M 89.00 101.11 C 92.81 97.91 96.00 94.01 100.03 91.04 C 97.04 95.87 93.50 100.33 89.99 104.78 C 89.23 104.09 88.51 103.34 87.74 102.65 C 87.20 102.96 86.13 103.57 85.59 103.88 C 86.17 102.27 87.36 101.38 89.00 101.11 Z" />
<path fill="#ffc56c" opacity="1.00" d=" M 35.68 94.24 C 36.34 94.20 37.65 94.12 38.30 94.08 C 38.39 94.81 38.57 96.27 38.65 97.00 C 37.65 98.14 36.62 99.26 35.56 100.36 C 35.54 98.32 35.60 96.28 35.68 94.24 Z" />
<path fill="#e4ac59" opacity="1.00" d=" M 61.26 104.08 C 62.80 101.45 64.26 98.77 65.81 96.15 C 65.81 96.57 65.81 97.43 65.81 97.85 C 67.51 97.10 69.22 96.39 70.94 95.71 C 70.15 97.00 69.19 98.19 68.40 99.48 C 69.29 99.51 71.06 99.58 71.95 99.61 C 68.42 101.15 64.91 102.84 61.26 104.08 Z" />
<path fill="#ffffdd" opacity="1.00" d=" M 38.65 97.00 C 38.61 97.58 38.52 98.75 38.47 99.33 C 40.17 99.18 41.85 99.49 43.36 100.28 C 42.60 100.68 41.08 101.49 40.32 101.90 C 38.75 101.34 37.17 100.81 35.56 100.36 C 36.62 99.26 37.65 98.14 38.65 97.00 Z" />
<path fill="#eecd84" opacity="1.00" d=" M 55.08 98.25 C 56.71 97.60 57.70 99.53 57.02 100.85 C 56.46 100.58 55.36 100.03 54.80 99.76 C 54.87 99.38 55.01 98.63 55.08 98.25 Z" />
<path fill="#ffffa1" opacity="1.00" d=" M 12.21 106.64 C 14.54 103.89 16.55 100.90 18.71 98.04 C 21.34 99.79 24.69 100.97 26.27 103.89 C 25.18 103.17 24.02 102.57 22.80 102.09 C 21.37 103.63 19.89 105.13 18.42 106.62 C 16.35 106.62 14.28 106.62 12.21 106.64 Z" />
<path fill="#ffffdd" opacity="1.00" d=" M 44.93 103.68 C 47.74 102.22 50.25 100.28 52.83 98.47 C 52.77 99.30 52.63 100.95 52.57 101.77 L 52.28 101.61 C 52.12 101.43 51.81 101.07 51.65 100.89 C 49.11 102.71 45.43 103.77 44.50 107.10 C 47.81 106.62 50.22 104.11 52.58 101.96 C 52.08 103.37 51.68 104.82 51.32 106.27 C 48.34 106.33 46.21 108.66 44.11 110.46 L 43.34 110.77 C 44.24 108.56 44.70 106.22 44.67 103.83 L 44.93 103.68 Z" />
<path fill="#fed779" opacity="1.00" d=" M 40.32 101.90 C 41.08 101.49 42.60 100.68 43.36 100.28 C 42.97 102.73 42.73 105.19 42.53 107.66 C 41.93 105.68 41.32 103.71 40.32 101.90 Z" />
<path fill="#d7934a" opacity="1.00" d=" M 51.65 100.89 C 51.81 101.07 52.12 101.43 52.28 101.61 L 52.58 101.96 C 50.22 104.11 47.81 106.62 44.50 107.10 C 45.43 103.77 49.11 102.71 51.65 100.89 Z" />
<path fill="#ffe382" opacity="1.00" d=" M 86.61 111.38 C 95.92 108.00 105.11 104.28 114.23 100.40 C 113.98 102.87 113.07 105.33 113.57 107.83 C 104.94 111.11 96.34 114.47 87.68 117.67 C 87.57 115.54 87.23 113.42 86.61 111.38 Z" />
<path fill="#fddb77" opacity="1.00" d=" M 54.84 101.89 C 55.24 102.10 56.03 102.51 56.42 102.72 C 57.67 104.19 54.74 103.86 54.03 103.55 C 54.23 103.13 54.64 102.30 54.84 101.89 Z" />
<path fill="#fffda1" opacity="1.00" d=" M 31.62 105.98 C 34.10 104.81 36.58 103.62 39.05 102.40 C 40.47 105.49 41.09 108.86 42.54 111.94 L 41.87 111.77 C 39.93 111.07 37.91 111.74 35.95 111.92 C 36.76 110.26 37.98 108.86 39.28 107.56 C 35.30 108.70 32.02 111.29 28.36 113.13 C 29.24 111.16 30.66 109.53 32.45 108.35 C 32.96 108.47 33.97 108.71 34.48 108.83 C 33.51 107.89 32.57 106.93 31.62 105.98 Z" />
<path fill="#ffe07b" opacity="1.00" d=" M 53.67 104.94 C 55.00 105.29 56.33 105.64 57.66 105.99 C 55.43 109.32 53.88 113.11 51.30 116.18 C 52.15 112.44 52.84 108.68 53.67 104.94 Z" />
<path fill="#ffe386" opacity="1.00" d=" M 12.21 106.64 C 14.28 106.62 16.35 106.62 18.42 106.62 C 16.33 108.80 14.21 110.94 11.99 112.98 C 11.37 111.62 10.78 110.25 10.22 108.87 C 10.89 108.12 11.55 107.38 12.21 106.64 Z" />
<path fill="#eeb560" opacity="1.00" d=" M 44.11 110.46 C 46.21 108.66 48.34 106.33 51.32 106.27 C 50.46 109.09 46.44 109.17 44.11 110.46 Z" />
<path fill="#ffffff" opacity="1.00" d=" M 24.78 109.48 C 26.84 107.63 30.07 106.18 32.45 108.35 C 30.66 109.53 29.24 111.16 28.36 113.13 C 32.02 111.29 35.30 108.70 39.28 107.56 C 37.98 108.86 36.76 110.26 35.95 111.92 C 37.91 111.74 39.93 111.07 41.87 111.77 C 32.47 116.43 22.99 121.02 14.04 126.51 C 13.46 126.04 12.88 125.57 12.30 125.11 C 18.36 120.87 23.38 115.28 28.46 109.95 C 28.46 107.53 25.89 108.85 24.78 109.48 Z" />
<path fill="#fffc95" opacity="1.00" d=" M 120.40 112.53 C 120.89 110.75 118.59 107.27 121.03 106.71 C 122.02 108.50 121.22 110.80 120.53 112.58 L 120.40 112.53 Z" />
<path fill="#ffffdd" opacity="1.00" d=" M 4.83 114.92 C 6.79 113.06 8.67 111.09 10.22 108.87 C 10.78 110.25 11.37 111.62 11.99 112.98 C 10.59 114.30 9.19 115.62 7.79 116.94 C 6.82 116.24 5.86 115.53 4.83 114.92 Z" />
<path fill="#fdd376" opacity="1.00" d=" M 65.70 118.58 C 72.71 116.31 79.68 113.90 86.61 111.38 C 87.23 113.42 87.57 115.54 87.68 117.67 C 83.83 119.11 79.97 120.48 76.10 121.84 C 74.13 120.57 72.26 119.16 70.46 117.66 C 71.06 119.05 71.60 120.54 72.83 121.51 C 72.21 122.46 71.65 123.47 70.87 124.30 C 69.61 124.70 69.21 123.03 68.40 122.43 C 68.17 123.96 67.72 125.44 66.96 126.80 C 66.01 124.16 65.84 121.35 65.70 118.58 Z" />
<path fill="#ffffff" opacity="1.00" d=" M 1.68 112.16 C 2.30 113.62 3.34 114.54 4.83 114.92 C 5.86 115.53 6.82 116.24 7.79 116.94 C 6.13 118.53 4.48 120.13 2.85 121.75 C 2.37 118.56 2.01 115.36 1.68 112.16 Z" />
<path fill="#fffbd3" opacity="1.00" d=" M 70.46 117.66 C 72.26 119.16 74.13 120.57 76.10 121.84 C 75.41 122.08 74.73 122.33 74.06 122.57 C 73.75 122.31 73.14 121.78 72.83 121.51 C 71.60 120.54 71.06 119.05 70.46 117.66 Z" />
<path fill="#eab45f" opacity="1.00" d=" M 24.46 130.78 C 38.35 127.24 52.08 123.06 65.70 118.58 C 65.84 121.35 66.01 124.16 66.96 126.80 C 67.05 127.15 67.23 127.84 67.32 128.19 C 61.45 130.44 55.61 132.78 49.69 134.94 C 51.38 133.22 53.18 131.46 55.72 131.31 C 57.07 128.68 60.04 127.91 62.17 126.14 C 63.22 125.37 61.97 123.88 60.93 124.18 C 57.86 124.61 54.93 126.83 51.87 125.04 C 50.96 129.10 45.99 129.13 43.24 131.52 C 42.05 131.22 40.86 130.92 39.67 130.61 C 37.89 132.72 35.31 133.24 32.70 132.67 C 29.92 132.19 27.17 131.55 24.46 130.78 Z" />
<path fill="#ffc270" opacity="1.00" d=" M 26.70 127.89 C 31.98 124.57 37.53 121.77 43.07 118.91 C 41.61 121.03 41.32 125.10 37.96 124.86 C 38.11 124.45 38.42 123.62 38.58 123.20 C 36.94 122.94 32.32 124.32 35.78 125.70 C 32.81 126.64 29.84 127.72 26.70 127.89 Z" />
<path fill="#dcab5b" opacity="1.00" d=" M 68.40 122.43 C 69.21 123.03 69.61 124.70 70.87 124.30 C 71.65 123.47 72.21 122.46 72.83 121.51 C 73.14 121.78 73.75 122.31 74.06 122.57 L 72.67 123.09 C 73.17 123.93 73.67 124.77 74.17 125.61 C 71.87 126.42 69.58 127.28 67.32 128.19 C 67.23 127.84 67.05 127.15 66.96 126.80 C 67.72 125.44 68.17 123.96 68.40 122.43 Z" />
<path fill="#fffffe" opacity="1.00" d=" M 35.78 125.70 C 32.32 124.32 36.94 122.94 38.58 123.20 C 38.42 123.62 38.11 124.45 37.96 124.86 C 37.41 125.07 36.32 125.49 35.78 125.70 Z" />
<path fill="#f2cf84" opacity="1.00" d=" M 51.87 125.04 C 54.93 126.83 57.86 124.61 60.93 124.18 C 61.97 123.88 63.22 125.37 62.17 126.14 C 60.04 127.91 57.07 128.68 55.72 131.31 C 53.18 131.46 51.38 133.22 49.69 134.94 C 46.96 136.05 44.20 137.11 41.50 138.30 C 40.61 136.93 40.02 135.27 38.69 134.25 C 36.67 133.85 34.90 135.23 33.10 135.91 L 32.83 134.52 C 32.80 134.06 32.74 133.13 32.70 132.67 C 35.31 133.24 37.89 132.72 39.67 130.61 C 40.86 130.92 42.05 131.22 43.24 131.52 C 45.99 129.13 50.96 129.10 51.87 125.04 M 51.24 129.14 C 49.61 129.37 49.78 132.10 51.58 130.98 C 53.09 130.69 52.97 128.15 51.24 129.14 M 40.20 132.52 C 38.98 134.31 43.02 136.35 43.56 134.37 C 42.67 133.58 41.48 132.26 40.20 132.52 Z" />
<path fill="#ffffff" opacity="1.00" d=" M 10.85 126.03 C 11.69 125.85 12.32 126.15 12.76 126.91 C 11.83 128.03 10.66 128.63 9.25 128.71 C 9.57 128.19 10.19 127.15 10.51 126.63 L 10.85 126.03 Z" />
<path fill="#e8b15b" opacity="1.00" d=" M 51.24 129.14 C 52.97 128.15 53.09 130.69 51.58 130.98 C 49.78 132.10 49.61 129.37 51.24 129.14 Z" />
<path fill="#e8b25d" opacity="1.00" d=" M 40.20 132.52 C 41.48 132.26 42.67 133.58 43.56 134.37 C 43.02 136.35 38.98 134.31 40.20 132.52 Z" />
<path fill="#e4ae5b" opacity="1.00" d=" M 33.10 135.91 C 34.90 135.23 36.67 133.85 38.69 134.25 C 40.02 135.27 40.61 136.93 41.50 138.30 C 36.78 140.37 32.00 142.30 27.14 144.02 C 29.12 140.90 31.04 137.75 32.83 134.52 L 33.10 135.91 Z" />
<path fill="#000000" opacity="1.00" d=" M 124.14 163.15 C 129.28 162.81 134.56 162.31 139.62 163.57 C 140.95 163.90 142.35 165.48 141.66 166.89 C 141.13 168.62 139.24 169.18 137.72 169.74 C 131.63 171.67 125.28 172.58 118.97 173.45 C 104.74 175.15 90.38 176.35 76.04 175.73 C 74.24 175.88 71.50 174.06 73.03 172.11 C 74.11 171.06 75.64 170.69 77.03 170.23 C 92.37 165.92 108.27 164.05 124.14 163.15 Z" />
</svg>
