<?xml version="1.0" encoding="UTF-8" ?>
<!DOCTYPE svg PUBLIC "-//W3C//DTD SVG 1.1//EN" "http://www.w3.org/Graphics/SVG/1.1/DTD/svg11.dtd">
<svg width="146pt" height="155pt" viewBox="0 0 146 155" version="1.1" xmlns="http://www.w3.org/2000/svg">
<path fill="#000000" opacity="1.00" d=" M 72.78 0.13 C 82.49 2.81 92.26 7.26 98.97 15.00 C 102.91 19.46 103.22 25.65 103.33 31.31 C 108.29 29.08 112.81 25.77 118.28 24.82 C 114.94 28.62 110.21 31.24 107.97 35.97 C 105.85 39.46 104.62 44.13 107.03 47.80 C 108.01 49.49 110.64 49.23 111.59 47.65 C 115.34 42.72 116.05 36.03 120.38 31.44 C 123.82 27.31 130.08 24.98 135.06 27.73 C 129.30 30.30 124.00 35.70 124.65 42.47 C 131.19 40.19 138.32 38.95 145.15 40.63 C 143.68 42.91 140.64 42.93 138.52 44.34 C 133.68 47.09 130.13 53.56 132.85 58.92 C 135.39 64.38 142.73 65.96 144.35 71.96 C 144.17 76.89 138.94 79.22 135.27 81.45 C 134.65 81.88 134.04 82.34 133.47 82.83 C 135.55 83.01 137.72 82.86 139.69 83.70 C 137.20 85.44 134.79 87.38 133.12 89.95 C 135.12 92.59 137.75 94.79 139.33 97.73 C 140.69 100.68 138.29 103.59 135.63 104.68 C 127.91 108.23 118.82 106.81 111.22 103.61 C 106.03 101.54 100.12 99.00 94.71 101.90 C 96.99 104.05 99.99 105.44 101.76 108.11 C 103.14 109.92 103.95 112.61 102.50 114.62 C 100.34 117.61 96.49 118.72 92.96 118.83 C 94.62 117.00 96.55 115.28 97.44 112.91 C 97.47 111.32 96.68 110.53 95.08 110.54 C 89.95 111.01 85.25 114.03 79.99 113.59 C 77.51 113.55 75.38 112.14 73.33 110.93 C 73.38 111.79 73.48 113.52 73.53 114.38 C 70.69 112.08 68.50 109.13 66.53 106.08 C 63.41 106.89 59.61 107.96 58.23 111.18 C 57.47 113.58 60.31 114.14 61.90 114.93 C 58.57 116.64 53.87 116.63 51.64 113.20 C 49.58 109.99 51.23 106.18 53.04 103.29 C 47.96 103.97 42.81 104.85 38.11 107.00 C 36.16 108.03 33.76 109.13 33.18 111.48 C 35.91 111.52 38.63 111.34 41.35 111.11 C 36.10 115.03 29.64 117.50 23.04 117.36 C 20.30 117.25 16.56 115.41 17.28 112.12 C 18.35 108.32 22.04 106.01 25.41 104.42 C 28.20 102.82 31.88 102.74 34.17 100.37 C 29.12 100.17 23.85 100.62 19.00 98.94 C 17.36 98.42 17.05 96.75 17.02 95.25 C 14.75 95.71 12.35 97.24 10.09 95.94 C 6.43 94.70 3.02 90.74 4.73 86.72 C 6.76 82.13 11.55 79.78 15.20 76.65 C 13.94 74.04 11.16 72.79 8.99 71.06 C 4.96 68.27 0.86 64.75 0.00 59.64 L 0.00 57.57 C 1.66 51.21 5.89 45.90 10.40 41.29 C 13.93 37.88 18.03 34.57 22.96 33.61 C 15.84 38.60 11.53 47.25 12.54 55.99 C 12.75 59.16 15.82 61.94 19.05 61.29 C 21.53 61.11 22.70 58.70 24.42 57.29 C 26.20 56.99 27.42 58.60 28.36 59.83 C 28.71 59.36 29.40 58.42 29.74 57.95 C 30.92 64.45 36.60 69.44 43.03 70.36 C 44.54 70.71 46.26 69.78 46.25 68.09 C 46.40 62.63 43.72 57.48 44.21 51.98 C 44.27 49.04 46.19 46.03 49.12 45.27 C 53.54 43.91 57.90 46.17 61.78 48.03 C 63.22 45.19 64.96 42.45 67.42 40.37 C 73.17 35.23 81.28 34.60 87.83 30.90 C 90.63 29.44 92.63 26.20 91.42 23.04 C 88.46 13.12 79.05 7.68 72.78 0.13 M 79.07 4.09 C 84.74 8.70 90.13 14.17 92.87 21.07 C 93.99 23.58 93.84 26.40 92.94 28.94 C 88.35 35.03 80.08 35.41 73.75 38.71 C 67.03 41.45 61.58 48.52 62.17 55.98 C 63.04 55.84 64.80 55.55 65.67 55.41 C 68.44 54.27 70.66 55.97 72.38 58.00 C 72.24 56.27 72.08 54.47 72.68 52.80 C 72.66 54.80 72.75 56.81 72.94 58.81 L 73.79 58.74 C 75.26 60.01 76.68 61.32 78.02 62.72 C 78.21 62.84 78.60 63.08 78.80 63.19 C 79.31 67.70 79.85 72.21 80.64 76.68 C 83.49 74.45 87.11 71.93 87.44 68.01 C 86.77 65.64 85.83 63.35 84.81 61.11 C 84.09 49.16 92.65 39.17 101.79 32.59 C 101.59 30.72 101.43 28.84 101.36 26.96 C 101.19 14.69 88.95 8.19 79.07 4.09 M 121.74 32.67 C 117.60 37.46 116.79 44.09 113.05 49.15 C 111.81 49.99 110.55 51.09 108.92 50.92 C 106.65 50.78 105.70 48.42 104.31 46.97 C 104.30 51.45 103.65 56.58 106.75 60.29 C 109.29 63.58 115.56 63.09 116.70 58.78 C 117.09 55.84 116.78 52.87 116.95 49.91 C 117.97 46.88 120.45 44.84 123.02 43.12 C 121.84 36.86 126.34 31.60 131.02 28.13 C 127.46 28.29 124.04 29.94 121.74 32.67 M 97.32 38.27 C 93.79 41.88 90.25 45.68 88.35 50.44 L 88.24 50.43 C 87.77 51.88 87.30 53.33 86.79 54.77 C 84.92 60.25 89.33 64.86 88.95 70.22 C 88.10 71.53 87.20 72.83 86.23 74.06 C 84.04 76.02 81.80 77.98 79.07 79.14 C 78.08 79.26 76.11 79.51 75.12 79.64 C 75.78 78.16 77.10 77.58 79.09 77.89 C 79.07 76.54 78.87 75.19 78.24 73.98 C 77.72 70.67 77.35 67.33 76.86 64.01 C 75.81 63.06 74.76 62.11 73.71 61.16 C 73.15 63.51 70.88 65.46 71.59 68.03 C 72.09 70.83 72.52 73.65 72.32 76.51 L 73.22 77.06 C 72.75 77.94 72.28 78.82 71.82 79.69 C 72.17 79.93 72.88 80.39 73.23 80.63 C 75.38 82.69 79.74 82.86 80.08 86.34 C 75.42 89.73 69.48 91.24 65.46 95.50 C 63.81 96.90 64.09 99.17 64.33 101.08 C 65.14 101.93 66.14 102.47 67.33 102.71 C 68.00 105.48 69.51 107.88 71.34 110.04 C 71.89 108.65 72.34 107.19 73.34 106.05 C 73.71 108.72 75.59 111.01 78.30 111.52 C 84.12 112.86 89.37 109.16 95.05 108.76 C 96.21 109.12 97.79 109.28 98.41 110.48 C 99.51 112.26 98.28 114.23 97.88 116.03 C 99.67 115.07 102.26 113.40 101.31 111.00 C 99.67 107.44 96.20 105.31 93.11 103.15 C 92.42 104.05 91.54 104.61 90.48 104.85 C 92.42 99.38 98.74 97.80 103.92 98.76 C 105.58 99.47 107.32 99.95 109.03 100.51 L 109.23 100.37 C 114.81 103.29 121.16 104.89 127.49 104.74 C 130.88 104.23 134.68 103.82 137.21 101.22 C 138.67 99.70 137.32 97.82 136.40 96.46 C 135.53 95.55 134.66 94.65 133.77 93.76 C 132.83 92.32 131.17 90.90 131.65 88.99 C 132.34 87.22 134.10 86.24 135.02 84.62 C 133.57 84.39 132.11 84.17 130.66 83.96 C 133.36 79.08 140.02 78.12 142.52 73.04 C 142.83 71.25 141.32 70.00 140.36 68.72 C 138.23 67.12 136.19 65.40 134.15 63.69 C 130.80 60.72 129.42 56.29 130.30 51.90 C 131.83 47.10 135.60 43.61 140.00 41.38 C 133.61 41.85 126.69 42.51 121.41 46.46 C 116.82 49.99 119.78 56.15 117.98 60.85 C 115.90 63.12 113.06 64.36 109.95 64.14 C 108.51 63.47 107.14 62.67 105.80 61.84 C 101.59 56.51 102.21 49.15 103.47 42.89 C 104.34 39.83 105.41 36.79 107.09 34.07 C 108.26 32.24 110.24 31.01 111.06 28.94 C 106.23 31.65 101.34 34.42 97.32 38.27 M 2.47 55.53 C 0.04 60.77 4.42 66.06 8.78 68.56 L 8.75 68.82 C 11.36 70.47 13.66 72.54 16.28 74.18 C 17.51 76.42 16.11 78.49 14.24 79.77 C 10.59 82.55 4.69 85.87 6.54 91.38 C 8.03 93.17 10.05 94.32 12.07 95.41 C 15.57 94.10 18.94 92.40 22.59 91.49 C 21.35 93.05 20.16 94.65 18.90 96.19 C 23.75 99.56 30.36 97.61 35.96 98.70 L 37.07 99.64 C 37.93 101.58 35.51 102.44 34.15 103.09 C 29.02 105.23 22.79 106.46 19.55 111.43 C 17.94 113.77 20.91 115.56 22.99 115.46 C 27.43 115.61 31.95 114.55 35.93 112.61 C 34.27 112.75 32.38 112.61 31.50 110.94 C 34.28 105.54 40.78 104.15 46.14 102.67 C 46.59 102.61 47.48 102.50 47.93 102.44 C 50.56 102.10 53.35 101.24 55.95 102.09 C 56.14 104.28 53.11 104.81 52.73 106.89 C 50.90 110.41 53.74 114.57 57.60 114.66 C 54.37 110.74 59.05 106.28 62.94 105.72 C 64.03 105.26 65.80 105.73 66.33 104.41 C 64.28 103.30 62.00 101.63 62.06 99.02 C 61.91 95.59 64.79 93.21 67.17 91.21 C 65.06 91.29 62.94 91.34 60.84 91.05 C 58.62 89.61 56.12 88.54 54.23 86.64 C 53.15 84.94 53.27 82.77 52.50 80.93 C 52.42 80.27 52.26 78.94 52.18 78.28 L 51.87 78.39 C 51.64 76.45 51.37 74.51 51.06 72.58 C 49.68 68.15 52.71 64.26 54.31 60.36 C 55.55 58.27 57.38 56.80 59.87 56.57 C 60.21 54.33 60.51 52.07 61.23 49.91 C 59.09 48.20 56.40 47.34 53.73 46.92 C 51.09 46.36 47.76 47.05 46.66 49.82 C 44.23 56.71 50.18 63.86 47.35 70.61 C 44.15 74.18 38.88 71.36 35.44 69.52 C 34.00 68.28 32.59 67.00 31.26 65.64 C 30.80 64.77 30.34 63.90 29.88 63.03 C 29.23 62.90 27.94 62.65 27.29 62.52 C 27.29 62.12 27.30 61.34 27.31 60.94 C 26.67 60.27 26.00 59.65 25.28 59.07 C 22.67 63.23 16.98 64.69 13.03 61.47 C 12.36 60.40 11.67 59.35 10.97 58.31 C 9.66 52.39 11.12 46.25 13.72 40.89 C 8.95 44.78 4.96 49.88 2.47 55.53 M 58.22 58.50 C 55.71 61.51 54.45 65.28 52.56 68.66 C 52.87 71.78 53.65 74.84 54.01 77.96 C 54.20 78.58 54.40 79.19 54.63 79.80 C 54.74 81.79 55.04 83.76 55.40 85.73 C 57.86 87.07 60.29 88.54 62.96 89.43 C 68.09 89.36 74.08 89.16 77.72 85.07 C 75.85 84.09 74.18 82.56 72.11 82.05 C 70.50 80.13 70.15 77.72 70.18 75.30 C 70.65 75.39 71.59 75.56 72.07 75.65 C 71.76 72.81 71.73 69.94 71.14 67.14 L 70.78 65.44 C 70.36 65.46 69.53 65.50 69.12 65.52 C 71.44 64.87 71.06 62.08 73.02 61.32 C 72.27 59.89 71.19 58.72 70.02 57.64 L 69.43 57.64 C 65.85 56.27 61.95 58.50 58.22 58.50 Z" />
<path fill="#b73846" opacity="1.00" d=" M 79.07 4.09 C 88.95 8.19 101.19 14.69 101.36 26.96 C 99.59 28.00 97.81 29.02 96.01 30.03 C 95.50 29.86 94.48 29.54 93.96 29.38 L 92.94 28.94 C 93.84 26.40 93.99 23.58 92.87 21.07 C 90.13 14.17 84.74 8.70 79.07 4.09 Z" />
<path fill="#cd4a51" opacity="1.00" d=" M 96.01 30.03 C 97.81 29.02 99.59 28.00 101.36 26.96 C 101.43 28.84 101.59 30.72 101.79 32.59 C 92.65 39.17 84.09 49.16 84.81 61.11 C 84.43 60.58 84.04 60.05 83.65 59.53 C 82.13 60.88 80.56 62.18 78.80 63.19 C 78.60 63.08 78.21 62.84 78.02 62.72 C 78.74 61.18 79.47 59.64 80.06 58.04 C 81.06 54.71 82.08 51.37 83.49 48.18 C 83.60 47.94 83.81 47.44 83.91 47.20 C 88.13 43.57 92.05 39.30 94.11 34.06 C 94.82 32.55 94.32 30.90 93.96 29.38 C 94.48 29.54 95.50 29.86 96.01 30.03 Z" />
<path fill="#b83746" opacity="1.00" d=" M 121.74 32.67 C 124.04 29.94 127.46 28.29 131.02 28.13 C 126.34 31.60 121.84 36.86 123.02 43.12 C 120.45 44.84 117.97 46.88 116.95 49.91 C 116.37 51.23 115.84 52.57 115.29 53.90 C 114.50 52.33 113.76 50.75 113.05 49.15 C 116.79 44.09 117.60 37.46 121.74 32.67 Z" />
<path fill="#f5705d" opacity="1.00" d=" M 92.94 28.94 L 93.96 29.38 C 94.32 30.90 94.82 32.55 94.11 34.06 C 92.05 39.30 88.13 43.57 83.91 47.20 C 85.41 43.08 86.20 38.77 87.39 34.57 L 86.49 34.62 C 84.04 34.41 82.14 36.14 80.36 37.54 C 78.71 38.23 76.98 38.68 75.23 39.00 L 73.75 38.71 C 80.08 35.41 88.35 35.03 92.94 28.94 Z" />
<path fill="#b74651" opacity="1.00" d=" M 97.32 38.27 C 101.34 34.42 106.23 31.65 111.06 28.94 C 110.24 31.01 108.26 32.24 107.09 34.07 C 105.41 36.79 104.34 39.83 103.47 42.89 C 102.06 41.02 99.85 40.50 97.70 40.07 C 97.60 39.62 97.41 38.72 97.32 38.27 Z" />
<path fill="#f9f5f7" opacity="1.00" d=" M 80.36 37.54 C 82.14 36.14 84.04 34.41 86.49 34.62 C 84.79 36.56 83.04 38.50 81.73 40.74 C 80.44 43.35 82.46 45.89 83.49 48.18 C 82.08 51.37 81.06 54.71 80.06 58.04 C 77.98 58.40 75.89 58.62 73.79 58.74 L 72.94 58.81 C 72.75 56.81 72.66 54.80 72.68 52.80 C 72.83 50.44 72.70 48.08 72.54 45.73 C 75.85 44.05 80.48 41.86 80.36 37.54 Z" />
<path fill="#f4c9b0" opacity="1.00" d=" M 86.49 34.62 L 87.39 34.57 C 86.20 38.77 85.41 43.08 83.91 47.20 C 83.81 47.44 83.60 47.94 83.49 48.18 C 82.46 45.89 80.44 43.35 81.73 40.74 C 83.04 38.50 84.79 36.56 86.49 34.62 Z" />
<path fill="#fd9e88" opacity="1.00" d=" M 75.23 39.00 C 76.98 38.68 78.71 38.23 80.36 37.54 C 80.48 41.86 75.85 44.05 72.54 45.73 L 71.87 46.03 C 71.32 45.06 70.78 44.08 70.23 43.11 C 71.71 41.54 73.36 40.11 75.23 39.00 Z" />
<path fill="#fd806a" opacity="1.00" d=" M 62.17 55.98 C 61.58 48.52 67.03 41.45 73.75 38.71 L 75.23 39.00 C 73.36 40.11 71.71 41.54 70.23 43.11 C 70.78 44.08 71.32 45.06 71.87 46.03 C 67.72 47.34 66.98 51.87 65.67 55.41 C 64.80 55.55 63.04 55.84 62.17 55.98 Z" />
<path fill="#f47b6b" opacity="1.00" d=" M 88.35 50.44 C 90.25 45.68 93.79 41.88 97.32 38.27 C 97.41 38.72 97.60 39.62 97.70 40.07 C 97.05 41.45 96.33 42.80 95.65 44.16 C 94.09 46.84 92.19 51.44 88.35 50.44 Z" />
<path fill="#d45553" opacity="1.00" d=" M 95.65 44.16 C 96.33 42.80 97.05 41.45 97.70 40.07 C 99.85 40.50 102.06 41.02 103.47 42.89 C 102.21 49.15 101.59 56.51 105.80 61.84 C 105.09 62.82 104.38 63.80 103.65 64.76 C 102.46 65.54 101.27 66.31 100.08 67.09 L 99.06 67.30 C 99.79 65.69 101.02 64.10 100.80 62.22 C 100.07 60.89 99.12 59.70 98.28 58.44 C 98.07 58.10 97.67 57.41 97.46 57.06 C 99.11 53.75 101.53 50.51 101.66 46.68 C 99.69 45.88 96.88 46.21 95.65 44.16 Z" />
<path fill="#b83a46" opacity="1.00" d=" M 2.47 55.53 C 4.96 49.88 8.95 44.78 13.72 40.89 C 11.12 46.25 9.66 52.39 10.97 58.31 C 9.51 61.54 9.15 65.07 8.78 68.56 C 4.42 66.06 0.04 60.77 2.47 55.53 Z" />
<path fill="#bd3b46" opacity="1.00" d=" M 121.41 46.46 C 126.69 42.51 133.61 41.85 140.00 41.38 C 135.60 43.61 131.83 47.10 130.30 51.90 C 128.85 53.86 127.14 55.61 125.23 57.12 C 127.15 55.84 124.74 53.50 123.78 54.80 C 124.11 58.33 120.01 58.88 117.98 60.85 C 119.78 56.15 116.82 49.99 121.41 46.46 Z" />
<path fill="#df6865" opacity="1.00" d=" M 88.35 50.44 C 92.19 51.44 94.09 46.84 95.65 44.16 C 96.88 46.21 99.69 45.88 101.66 46.68 C 101.53 50.51 99.11 53.75 97.46 57.06 C 96.57 57.50 95.90 58.15 95.44 59.03 L 94.94 59.75 C 93.12 58.46 92.91 56.22 92.50 54.22 C 91.90 55.79 91.27 57.36 90.62 58.92 C 89.28 57.60 88.01 56.20 86.79 54.77 C 87.30 53.33 87.77 51.88 88.24 50.43 L 88.35 50.44 Z" />
<path fill="#feeeda" opacity="1.00" d=" M 65.67 55.41 C 66.98 51.87 67.72 47.34 71.87 46.03 L 72.54 45.73 C 72.70 48.08 72.83 50.44 72.68 52.80 C 72.08 54.47 72.24 56.27 72.38 58.00 C 70.66 55.97 68.44 54.27 65.67 55.41 Z" />
<path fill="#ea604e" opacity="1.00" d=" M 46.66 49.82 C 47.76 47.05 51.09 46.36 53.73 46.92 C 53.65 51.40 53.34 55.94 54.31 60.36 C 52.71 64.26 49.68 68.15 51.06 72.58 C 48.62 72.28 46.18 72.61 43.88 73.48 C 42.54 73.88 41.20 74.30 39.90 74.82 C 39.00 75.19 38.14 75.67 37.30 76.17 C 33.10 78.72 30.04 82.98 28.34 87.52 C 27.10 91.17 29.34 94.76 32.36 96.67 C 33.67 96.63 34.98 96.59 36.30 96.55 C 36.21 97.09 36.05 98.17 35.96 98.70 C 30.36 97.61 23.75 99.56 18.90 96.19 C 20.16 94.65 21.35 93.05 22.59 91.49 C 22.65 91.44 22.78 91.33 22.85 91.28 C 22.09 91.18 20.56 90.97 19.80 90.87 C 21.86 85.78 27.42 83.71 30.32 79.30 C 28.54 79.82 26.79 80.40 25.11 81.18 C 27.36 76.34 31.43 72.87 35.44 69.52 C 38.88 71.36 44.15 74.18 47.35 70.61 C 50.18 63.86 44.23 56.71 46.66 49.82 Z" />
<path fill="#a93345" opacity="1.00" d=" M 53.73 46.92 C 56.40 47.34 59.09 48.20 61.23 49.91 C 60.51 52.07 60.21 54.33 59.87 56.57 C 57.38 56.80 55.55 58.27 54.31 60.36 C 53.34 55.94 53.65 51.40 53.73 46.92 Z" />
<path fill="#992e48" opacity="1.00" d=" M 104.31 46.97 C 105.70 48.42 106.65 50.78 108.92 50.92 C 110.55 51.09 111.81 49.99 113.05 49.15 C 113.76 50.75 114.50 52.33 115.29 53.90 C 115.84 52.57 116.37 51.23 116.95 49.91 C 116.78 52.87 117.09 55.84 116.70 58.78 C 115.56 63.09 109.29 63.58 106.75 60.29 C 103.65 56.58 104.30 51.45 104.31 46.97 Z" />
<path fill="#e16265" opacity="1.00" d=" M 125.23 57.12 C 127.14 55.61 128.85 53.86 130.30 51.90 C 129.42 56.29 130.80 60.72 134.15 63.69 C 132.84 65.41 131.49 67.10 130.20 68.83 C 130.20 68.36 130.19 67.43 130.19 66.97 C 128.44 64.83 126.23 63.13 123.64 62.17 C 122.66 63.62 121.71 65.08 120.76 66.56 C 119.49 66.27 118.12 65.06 116.82 65.64 C 115.69 67.07 114.83 68.68 113.78 70.17 C 113.48 70.24 112.88 70.39 112.57 70.47 L 113.10 68.38 C 112.64 68.60 111.73 69.05 111.28 69.27 C 111.61 67.93 111.97 66.60 112.35 65.27 C 111.55 64.89 110.75 64.52 109.95 64.14 C 113.06 64.36 115.90 63.12 117.98 60.85 C 120.01 58.88 124.11 58.33 123.78 54.80 C 124.74 53.50 127.15 55.84 125.23 57.12 Z" />
<path fill="#e97d6f" opacity="1.00" d=" M 92.50 54.22 C 92.91 56.22 93.12 58.46 94.94 59.75 C 94.90 59.94 94.81 60.32 94.76 60.51 C 91.74 63.02 91.45 67.29 88.95 70.22 C 89.33 64.86 84.92 60.25 86.79 54.77 C 88.01 56.20 89.28 57.60 90.62 58.92 C 91.27 57.36 91.90 55.79 92.50 54.22 Z" />
<path fill="#ffeef0" opacity="1.00" d=" M 58.22 58.50 C 61.95 58.50 65.85 56.27 69.43 57.64 C 67.17 58.16 64.86 58.68 62.82 59.81 C 60.66 61.16 59.84 63.66 59.02 65.92 C 58.20 66.43 57.39 66.95 56.58 67.47 L 55.92 67.92 C 55.84 68.22 55.67 68.81 55.59 69.11 C 54.74 71.36 55.42 73.70 55.90 75.94 C 55.43 76.45 54.48 77.45 54.01 77.96 C 53.65 74.84 52.87 71.78 52.56 68.66 C 54.45 65.28 55.71 61.51 58.22 58.50 Z" />
<path fill="#f6cabe" opacity="1.00" d=" M 95.44 59.03 C 95.90 58.15 96.57 57.50 97.46 57.06 C 97.67 57.41 98.07 58.10 98.28 58.44 C 97.94 60.17 95.73 61.76 95.44 59.03 Z" />
<path fill="#ff7c9b" opacity="1.00" d=" M 62.82 59.81 C 64.86 58.68 67.17 58.16 69.43 57.64 L 70.02 57.64 C 69.62 58.19 68.81 59.30 68.40 59.85 C 68.58 60.68 68.95 62.32 69.13 63.15 C 66.34 65.30 63.13 66.77 59.95 68.25 C 59.11 68.06 57.42 67.67 56.58 67.47 C 57.39 66.95 58.20 66.43 59.02 65.92 C 59.84 63.66 60.66 61.16 62.82 59.81 Z" />
<path fill="#bd4a6d" opacity="1.00" d=" M 70.02 57.64 C 71.19 58.72 72.27 59.89 73.02 61.32 C 71.06 62.08 71.44 64.87 69.12 65.52 C 69.53 65.50 70.36 65.46 70.78 65.44 L 71.14 67.14 C 68.38 67.39 65.52 67.64 63.06 69.02 C 61.83 69.74 60.09 70.40 60.27 72.14 C 60.17 75.81 61.70 79.27 62.10 82.89 L 61.28 83.31 C 59.69 78.47 60.06 72.47 55.59 69.11 C 55.67 68.81 55.84 68.22 55.92 67.92 L 56.58 67.47 C 57.42 67.67 59.11 68.06 59.95 68.25 C 63.13 66.77 66.34 65.30 69.13 63.15 C 68.95 62.32 68.58 60.68 68.40 59.85 C 68.81 59.30 69.62 58.19 70.02 57.64 Z" />
<path fill="#ffbda9" opacity="1.00" d=" M 73.79 58.74 C 75.89 58.62 77.98 58.40 80.06 58.04 C 79.47 59.64 78.74 61.18 78.02 62.72 C 76.68 61.32 75.26 60.01 73.79 58.74 Z" />
<path fill="#e15c4d" opacity="1.00" d=" M 8.78 68.56 C 9.15 65.07 9.51 61.54 10.97 58.31 C 11.67 59.35 12.36 60.40 13.03 61.47 C 12.67 63.86 11.32 66.72 13.08 68.87 C 14.00 69.70 15.09 70.30 16.12 70.97 L 16.37 71.66 C 16.35 72.29 16.30 73.55 16.28 74.18 C 13.66 72.54 11.36 70.47 8.75 68.82 L 8.78 68.56 Z" />
<path fill="#f67c6a" opacity="1.00" d=" M 25.28 59.07 C 26.00 59.65 26.67 60.27 27.31 60.94 C 25.47 62.04 23.32 62.53 21.55 63.73 C 20.71 65.60 20.48 67.69 19.56 69.53 C 18.44 70.08 17.28 70.51 16.12 70.97 C 15.09 70.30 14.00 69.70 13.08 68.87 C 11.32 66.72 12.67 63.86 13.03 61.47 C 16.98 64.69 22.67 63.23 25.28 59.07 Z" />
<path fill="#d45c5d" opacity="1.00" d=" M 83.65 59.53 C 84.04 60.05 84.43 60.58 84.81 61.11 C 85.83 63.35 86.77 65.64 87.44 68.01 C 87.11 71.93 83.49 74.45 80.64 76.68 C 79.85 72.21 79.31 67.70 78.80 63.19 C 80.56 62.18 82.13 60.88 83.65 59.53 Z" />
<path fill="#eab3a6" opacity="1.00" d=" M 94.94 59.75 L 95.44 59.03 C 95.73 61.76 97.94 60.17 98.28 58.44 C 99.12 59.70 100.07 60.89 100.80 62.22 C 101.02 64.10 99.79 65.69 99.06 67.30 C 96.75 67.68 94.41 67.89 92.07 68.10 C 93.41 65.75 94.70 63.29 94.76 60.51 C 94.81 60.32 94.90 59.94 94.94 59.75 Z" />
<path fill="#f9f6f9" opacity="1.00" d=" M 21.55 63.73 C 23.32 62.53 25.47 62.04 27.31 60.94 C 27.30 61.34 27.29 62.12 27.29 62.52 C 25.26 65.11 22.43 67.81 23.81 71.43 C 21.73 72.44 19.74 73.60 17.72 74.72 C 17.27 73.70 16.82 72.68 16.37 71.66 L 16.12 70.97 C 17.28 70.51 18.44 70.08 19.56 69.53 C 20.48 67.69 20.71 65.60 21.55 63.73 Z" />
<path fill="#fa9d89" opacity="1.00" d=" M 88.95 70.22 C 91.45 67.29 91.74 63.02 94.76 60.51 C 94.70 63.29 93.41 65.75 92.07 68.10 C 94.41 67.89 96.75 67.68 99.06 67.30 L 100.08 67.09 C 98.99 68.06 97.91 69.06 97.00 70.21 C 96.86 71.63 97.56 72.95 97.87 74.31 C 95.44 74.25 93.46 72.86 91.57 71.49 C 90.07 72.85 88.57 75.74 86.23 74.06 C 87.20 72.83 88.10 71.53 88.95 70.22 Z" />
<path fill="#ff7c9b" opacity="1.00" d=" M 73.71 61.16 C 74.76 62.11 75.81 63.06 76.86 64.01 C 77.35 67.33 77.72 70.67 78.24 73.98 C 78.01 75.11 77.76 76.24 77.51 77.37 C 77.31 72.81 75.78 68.44 75.57 63.88 L 74.35 64.55 C 72.28 68.99 75.10 73.71 75.51 78.23 C 74.94 77.94 73.79 77.36 73.22 77.06 L 72.32 76.51 C 72.52 73.65 72.09 70.83 71.59 68.03 C 70.88 65.46 73.15 63.51 73.71 61.16 Z" />
<path fill="#ff967b" opacity="1.00" d=" M 103.65 64.76 C 104.38 63.80 105.09 62.82 105.80 61.84 C 107.14 62.67 108.51 63.47 109.95 64.14 C 110.75 64.52 111.55 64.89 112.35 65.27 C 111.97 66.60 111.61 67.93 111.28 69.27 C 108.72 71.25 105.92 72.86 103.03 74.29 C 104.52 70.96 106.24 67.73 107.39 64.25 C 106.92 64.32 105.97 64.44 105.50 64.51 L 103.65 64.76 Z" />
<path fill="#fb8d87" opacity="1.00" d=" M 120.76 66.56 C 121.71 65.08 122.66 63.62 123.64 62.17 C 126.23 63.13 128.44 64.83 130.19 66.97 C 127.12 67.40 124.27 68.75 122.02 70.88 C 119.86 73.40 117.70 76.13 114.54 77.44 C 112.12 78.47 109.84 79.79 107.71 81.33 C 109.38 77.74 109.76 73.44 112.57 70.47 C 112.88 70.39 113.48 70.24 113.78 70.17 C 114.83 68.68 115.69 67.07 116.82 65.64 C 118.12 65.06 119.49 66.27 120.76 66.56 Z" />
<path fill="#ff8f79" opacity="1.00" d=" M 27.29 62.52 C 27.94 62.65 29.23 62.90 29.88 63.03 C 30.34 63.90 30.80 64.77 31.26 65.64 C 30.33 65.57 29.39 65.50 28.46 65.43 C 28.24 66.81 28.16 68.24 27.68 69.57 C 26.43 70.29 25.10 70.83 23.81 71.43 C 22.43 67.81 25.26 65.11 27.29 62.52 Z" />
<path fill="#fcfbfb" opacity="1.00" d=" M 105.50 64.51 C 105.97 64.44 106.92 64.32 107.39 64.25 C 106.24 67.73 104.52 70.96 103.03 74.29 C 105.92 72.86 108.72 71.25 111.28 69.27 C 111.73 69.05 112.64 68.60 113.10 68.38 L 112.57 70.47 C 109.76 73.44 109.38 77.74 107.71 81.33 C 109.84 79.79 112.12 78.47 114.54 77.44 C 117.70 76.13 119.86 73.40 122.02 70.88 C 124.15 71.07 126.27 71.26 128.40 71.44 L 128.01 72.07 C 126.26 75.08 125.15 78.45 123.15 81.32 C 120.43 81.80 118.41 83.79 116.10 85.12 C 112.54 87.38 108.44 88.80 105.29 91.69 C 103.93 88.41 104.03 84.74 106.11 81.79 C 104.46 80.55 103.50 82.74 102.83 83.82 C 102.08 85.68 101.92 87.70 101.42 89.64 L 100.94 90.10 C 96.97 90.49 92.89 91.36 89.54 93.64 C 88.31 94.95 87.71 96.70 86.82 98.24 C 86.61 98.62 86.20 99.39 85.99 99.78 C 84.22 99.84 82.45 99.89 80.69 99.91 C 81.46 99.30 82.24 98.71 83.02 98.12 C 84.78 97.09 85.38 95.06 86.53 93.50 C 88.10 91.36 89.90 89.39 91.20 87.07 C 86.92 88.98 83.13 91.81 79.66 94.94 C 79.20 95.30 78.29 96.03 77.83 96.40 C 77.81 95.79 77.77 94.57 77.76 93.97 C 78.48 91.58 79.67 89.35 81.15 87.35 C 83.00 85.14 84.94 83.00 86.88 80.88 C 89.13 78.63 91.35 76.28 94.07 74.59 C 95.70 74.21 97.38 74.36 99.03 74.29 C 99.74 74.26 101.17 74.21 101.89 74.18 C 103.41 71.09 104.89 67.93 105.50 64.51 Z" />
<path fill="#ca474a" opacity="1.00" d=" M 134.15 63.69 C 136.19 65.40 138.23 67.12 140.36 68.72 C 139.02 70.50 138.09 72.52 137.23 74.56 C 136.14 77.19 133.66 78.82 131.36 80.31 C 131.31 78.90 131.23 77.51 131.13 76.11 C 130.21 75.80 129.29 75.50 128.37 75.19 C 128.25 74.15 128.13 73.11 128.01 72.07 L 128.40 71.44 C 128.99 70.57 129.59 69.69 130.20 68.83 C 131.49 67.10 132.84 65.41 134.15 63.69 Z" />
<path fill="#fa735e" opacity="1.00" d=" M 28.46 65.43 C 29.39 65.50 30.33 65.57 31.26 65.64 C 32.59 67.00 34.00 68.28 35.44 69.52 C 31.43 72.87 27.36 76.34 25.11 81.18 C 23.31 82.69 21.19 83.74 19.01 84.60 C 16.94 83.51 15.48 81.70 14.24 79.77 C 16.11 78.49 17.51 76.42 16.28 74.18 C 16.30 73.55 16.35 72.29 16.37 71.66 C 16.82 72.68 17.27 73.70 17.72 74.72 C 19.74 73.60 21.73 72.44 23.81 71.43 C 25.10 70.83 26.43 70.29 27.68 69.57 C 28.16 68.24 28.24 66.81 28.46 65.43 Z" />
<path fill="#72243f" opacity="1.00" d=" M 74.35 64.55 L 75.57 63.88 C 75.78 68.44 77.31 72.81 77.51 77.37 C 77.76 76.24 78.01 75.11 78.24 73.98 C 78.87 75.19 79.07 76.54 79.09 77.89 C 77.10 77.58 75.78 78.16 75.12 79.64 C 76.11 79.51 78.08 79.26 79.07 79.14 C 78.49 79.38 77.32 79.86 76.74 80.10 C 75.51 79.96 74.34 80.14 73.23 80.63 C 72.88 80.39 72.17 79.93 71.82 79.69 C 72.28 78.82 72.75 77.94 73.22 77.06 C 73.79 77.36 74.94 77.94 75.51 78.23 C 75.10 73.71 72.28 68.99 74.35 64.55 Z" />
<path fill="#ffbda9" opacity="1.00" d=" M 100.08 67.09 C 101.27 66.31 102.46 65.54 103.65 64.76 L 105.50 64.51 C 104.89 67.93 103.41 71.09 101.89 74.18 C 101.17 74.21 99.74 74.26 99.03 74.29 L 97.87 74.31 C 97.56 72.95 96.86 71.63 97.00 70.21 C 97.91 69.06 98.99 68.06 100.08 67.09 Z" />
<path fill="#ff6b8e" opacity="1.00" d=" M 63.06 69.02 C 65.52 67.64 68.38 67.39 71.14 67.14 C 71.73 69.94 71.76 72.81 72.07 75.65 C 71.59 75.56 70.65 75.39 70.18 75.30 C 70.15 77.72 70.50 80.13 72.11 82.05 C 68.83 82.87 65.44 84.35 62.10 82.89 C 61.70 79.27 60.17 75.81 60.27 72.14 C 60.09 70.40 61.83 69.74 63.06 69.02 Z" />
<path fill="#fce0cd" opacity="1.00" d=" M 122.02 70.88 C 124.27 68.75 127.12 67.40 130.19 66.97 C 130.19 67.43 130.20 68.36 130.20 68.83 C 129.59 69.69 128.99 70.57 128.40 71.44 C 126.27 71.26 124.15 71.07 122.02 70.88 Z" />
<path fill="#a93848" opacity="1.00" d=" M 140.36 68.72 C 141.32 70.00 142.83 71.25 142.52 73.04 C 140.02 78.12 133.36 79.08 130.66 83.96 C 132.11 84.17 133.57 84.39 135.02 84.62 C 134.10 86.24 132.34 87.22 131.65 88.99 C 131.17 90.90 132.83 92.32 133.77 93.76 C 132.15 94.82 130.52 95.85 128.89 96.88 C 126.98 95.37 124.36 93.88 124.46 91.10 C 128.12 88.53 129.69 84.26 131.36 80.31 C 133.66 78.82 136.14 77.19 137.23 74.56 C 138.09 72.52 139.02 70.50 140.36 68.72 Z" />
<path fill="#fd698b" opacity="1.00" d=" M 55.90 75.94 C 55.42 73.70 54.74 71.36 55.59 69.11 C 60.06 72.47 59.69 78.47 61.28 83.31 C 59.86 84.03 58.35 84.51 56.77 84.67 C 56.09 83.03 55.35 81.42 54.63 79.80 C 54.40 79.19 54.20 78.58 54.01 77.96 C 54.48 77.45 55.43 76.45 55.90 75.94 Z" />
<path fill="#eb6a57" opacity="1.00" d=" M 86.23 74.06 C 88.57 75.74 90.07 72.85 91.57 71.49 C 93.46 72.86 95.44 74.25 97.87 74.31 L 99.03 74.29 C 97.38 74.36 95.70 74.21 94.07 74.59 C 91.35 76.28 89.13 78.63 86.88 80.88 C 83.50 80.56 80.06 80.97 76.74 80.10 C 77.32 79.86 78.49 79.38 79.07 79.14 C 81.80 77.98 84.04 76.02 86.23 74.06 Z" />
<path fill="#d65457" opacity="1.00" d=" M 123.15 81.32 C 125.15 78.45 126.26 75.08 128.01 72.07 C 128.13 73.11 128.25 74.15 128.37 75.19 C 129.29 75.50 130.21 75.80 131.13 76.11 C 131.23 77.51 131.31 78.90 131.36 80.31 C 129.69 84.26 128.12 88.53 124.46 91.10 C 123.16 91.77 121.82 92.34 120.52 93.00 C 118.49 92.21 116.41 91.48 114.62 90.21 C 117.23 87.02 120.45 84.42 123.15 81.32 Z" />
<path fill="#fcbba1" opacity="1.00" d=" M 43.88 73.48 C 46.18 72.61 48.62 72.28 51.06 72.58 C 51.37 74.51 51.64 76.45 51.87 78.39 C 51.16 78.65 49.72 79.18 49.01 79.44 C 47.82 79.11 46.64 78.77 45.46 78.43 C 45.45 77.03 45.45 75.63 45.37 74.23 C 45.00 74.04 44.25 73.67 43.88 73.48 Z" />
<path fill="#fcdbbe" opacity="1.00" d=" M 39.90 74.82 C 41.20 74.30 42.54 73.88 43.88 73.48 C 44.25 73.67 45.00 74.04 45.37 74.23 C 45.45 75.63 45.45 77.03 45.46 78.43 C 46.64 78.77 47.82 79.11 49.01 79.44 C 46.98 80.13 44.94 80.79 42.95 81.59 C 41.80 80.23 40.85 78.72 40.27 77.04 C 40.82 76.32 41.37 75.61 41.92 74.89 C 41.41 74.87 40.41 74.83 39.90 74.82 Z" />
<path fill="#fcf6d5" opacity="1.00" d=" M 37.30 76.17 C 38.14 75.67 39.00 75.19 39.90 74.82 C 40.41 74.83 41.41 74.87 41.92 74.89 C 41.37 75.61 40.82 76.32 40.27 77.04 C 40.85 78.72 41.80 80.23 42.95 81.59 C 40.76 82.64 38.37 82.99 35.97 82.80 C 36.18 80.54 37.35 78.46 37.30 76.17 Z" />
<path fill="#fbf9fa" opacity="1.00" d=" M 28.34 87.52 C 30.04 82.98 33.10 78.72 37.30 76.17 C 37.35 78.46 36.18 80.54 35.97 82.80 C 38.37 82.99 40.76 82.64 42.95 81.59 C 44.94 80.79 46.98 80.13 49.01 79.44 C 49.72 79.18 51.16 78.65 51.87 78.39 L 52.18 78.28 C 52.26 78.94 52.42 80.27 52.50 80.93 C 52.06 82.40 51.55 83.85 51.04 85.30 C 48.93 85.67 46.86 86.24 44.80 86.85 C 44.73 87.44 44.58 88.62 44.51 89.22 C 43.67 90.30 42.84 91.38 41.96 92.43 C 41.66 92.44 41.05 92.46 40.74 92.47 C 39.42 94.00 38.12 95.60 36.30 96.55 C 34.98 96.59 33.67 96.63 32.36 96.67 C 29.34 94.76 27.10 91.17 28.34 87.52 Z" />
<path fill="#ce4748" opacity="1.00" d=" M 25.11 81.18 C 26.79 80.40 28.54 79.82 30.32 79.30 C 27.42 83.71 21.86 85.78 19.80 90.87 C 20.56 90.97 22.09 91.18 22.85 91.28 C 22.78 91.33 22.65 91.44 22.59 91.49 C 18.94 92.40 15.57 94.10 12.07 95.41 C 10.05 94.32 8.03 93.17 6.54 91.38 C 10.41 88.62 14.66 86.48 19.01 84.60 C 21.19 83.74 23.31 82.69 25.11 81.18 Z" />
<path fill="#ee6651" opacity="1.00" d=" M 6.54 91.38 C 4.69 85.87 10.59 82.55 14.24 79.77 C 15.48 81.70 16.94 83.51 19.01 84.60 C 14.66 86.48 10.41 88.62 6.54 91.38 Z" />
<path fill="#80254b" opacity="1.00" d=" M 54.63 79.80 C 55.35 81.42 56.09 83.03 56.77 84.67 C 58.35 84.51 59.86 84.03 61.28 83.31 L 62.10 82.89 C 65.44 84.35 68.83 82.87 72.11 82.05 C 74.18 82.56 75.85 84.09 77.72 85.07 C 74.08 89.16 68.09 89.36 62.96 89.43 C 60.29 88.54 57.86 87.07 55.40 85.73 C 55.04 83.76 54.74 81.79 54.63 79.80 Z" />
<path fill="#c8484f" opacity="1.00" d=" M 73.23 80.63 C 74.34 80.14 75.51 79.96 76.74 80.10 C 80.06 80.97 83.50 80.56 86.88 80.88 C 84.94 83.00 83.00 85.14 81.15 87.35 L 80.08 86.34 C 79.74 82.86 75.38 82.69 73.23 80.63 Z" />
<path fill="#c5414d" opacity="1.00" d=" M 52.50 80.93 C 53.27 82.77 53.15 84.94 54.23 86.64 C 56.12 88.54 58.62 89.61 60.84 91.05 C 57.49 95.44 52.83 98.70 48.07 101.43 C 48.28 98.72 48.45 96.01 48.71 93.31 C 46.40 93.63 43.89 94.18 41.96 92.43 C 42.84 91.38 43.67 90.30 44.51 89.22 C 44.58 88.62 44.73 87.44 44.80 86.85 C 46.86 86.24 48.93 85.67 51.04 85.30 C 51.55 83.85 52.06 82.40 52.50 80.93 Z" />
<path fill="#000000" opacity="0.48" d=" M 133.47 82.83 C 134.04 82.34 134.65 81.88 135.27 81.45 C 137.26 82.66 139.57 81.80 141.71 81.66 C 141.09 82.39 140.41 83.07 139.69 83.70 C 137.72 82.86 135.55 83.01 133.47 82.83 Z" />
<path fill="#fd927a" opacity="1.00" d=" M 102.83 83.82 C 103.50 82.74 104.46 80.55 106.11 81.79 C 104.03 84.74 103.93 88.41 105.29 91.69 C 104.18 93.61 103.35 95.69 102.77 97.83 C 103.06 98.06 103.64 98.53 103.92 98.76 C 98.74 97.80 92.42 99.38 90.48 104.85 C 89.54 106.06 88.89 108.06 86.97 107.72 C 85.23 107.93 84.45 106.22 83.44 105.18 C 83.86 103.68 84.29 102.17 84.70 100.67 C 82.88 100.53 81.07 100.40 79.26 100.35 C 78.79 100.14 77.85 99.71 77.38 99.50 C 77.23 97.65 77.19 95.76 77.76 93.97 C 77.77 94.57 77.81 95.79 77.83 96.40 C 78.29 96.03 79.20 95.30 79.66 94.94 C 80.78 96.00 81.90 97.06 83.02 98.12 C 82.24 98.71 81.46 99.30 80.69 99.91 C 82.45 99.89 84.22 99.84 85.99 99.78 C 86.20 99.39 86.61 98.62 86.82 98.24 C 88.65 99.14 90.86 100.32 92.71 98.70 C 95.76 96.15 97.68 92.47 100.94 90.10 L 101.42 89.64 C 101.92 87.70 102.08 85.68 102.83 83.82 Z" />
<path fill="#fb725d" opacity="1.00" d=" M 116.10 85.12 C 118.41 83.79 120.43 81.80 123.15 81.32 C 120.45 84.42 117.23 87.02 114.62 90.21 C 116.41 91.48 118.49 92.21 120.52 93.00 C 116.71 95.39 112.88 97.75 109.23 100.37 L 109.03 100.51 C 107.32 99.95 105.58 99.47 103.92 98.76 C 103.64 98.53 103.06 98.06 102.77 97.83 C 103.35 95.69 104.18 93.61 105.29 91.69 C 108.44 88.80 112.54 87.38 116.10 85.12 Z" />
<path fill="#ee6954" opacity="1.00" d=" M 65.46 95.50 C 69.48 91.24 75.42 89.73 80.08 86.34 L 81.15 87.35 C 79.67 89.35 78.48 91.58 77.76 93.97 C 77.19 95.76 77.23 97.65 77.38 99.50 C 77.85 99.71 78.79 100.14 79.26 100.35 C 75.43 102.41 70.76 101.96 66.90 100.23 C 66.26 100.44 64.97 100.87 64.33 101.08 C 64.09 99.17 63.81 96.90 65.46 95.50 Z" />
<path fill="#ffceb0" opacity="1.00" d=" M 79.66 94.94 C 83.13 91.81 86.92 88.98 91.20 87.07 C 89.90 89.39 88.10 91.36 86.53 93.50 C 85.38 95.06 84.78 97.09 83.02 98.12 C 81.90 97.06 80.78 96.00 79.66 94.94 Z" />
<path fill="#ffc8ad" opacity="1.00" d=" M 89.54 93.64 C 92.89 91.36 96.97 90.49 100.94 90.10 C 97.68 92.47 95.76 96.15 92.71 98.70 C 90.86 100.32 88.65 99.14 86.82 98.24 C 87.71 96.70 88.31 94.95 89.54 93.64 Z" />
<path fill="#d24a49" opacity="1.00" d=" M 60.84 91.05 C 62.94 91.34 65.06 91.29 67.17 91.21 C 64.79 93.21 61.91 95.59 62.06 99.02 C 62.00 101.63 64.28 103.30 66.33 104.41 C 65.80 105.73 64.03 105.26 62.94 105.72 C 59.05 106.28 54.37 110.74 57.60 114.66 C 53.74 114.57 50.90 110.41 52.73 106.89 C 53.11 104.81 56.14 104.28 55.95 102.09 C 53.35 101.24 50.56 102.10 47.93 102.44 L 48.07 101.43 C 52.83 98.70 57.49 95.44 60.84 91.05 Z" />
<path fill="#c14148" opacity="1.00" d=" M 120.52 93.00 C 121.82 92.34 123.16 91.77 124.46 91.10 C 124.36 93.88 126.98 95.37 128.89 96.88 C 130.52 95.85 132.15 94.82 133.77 93.76 C 134.66 94.65 135.53 95.55 136.40 96.46 C 133.67 99.48 130.44 101.97 127.49 104.74 C 121.16 104.89 114.81 103.29 109.23 100.37 C 112.88 97.75 116.71 95.39 120.52 93.00 Z" />
<path fill="#cf4b56" opacity="1.00" d=" M 40.74 92.47 C 41.05 92.46 41.66 92.44 41.96 92.43 C 43.89 94.18 46.40 93.63 48.71 93.31 C 48.45 96.01 48.28 98.72 48.07 101.43 L 47.93 102.44 C 47.48 102.50 46.59 102.61 46.14 102.67 C 43.03 102.03 39.56 101.85 37.07 99.64 L 35.96 98.70 C 36.05 98.17 36.21 97.09 36.30 96.55 C 38.12 95.60 39.42 94.00 40.74 92.47 Z" />
<path fill="#f1674f" opacity="1.00" d=" M 127.49 104.74 C 130.44 101.97 133.67 99.48 136.40 96.46 C 137.32 97.82 138.67 99.70 137.21 101.22 C 134.68 103.82 130.88 104.23 127.49 104.74 Z" />
<path fill="#c13b46" opacity="1.00" d=" M 37.07 99.64 C 39.56 101.85 43.03 102.03 46.14 102.67 C 40.78 104.15 34.28 105.54 31.50 110.94 C 32.38 112.61 34.27 112.75 35.93 112.61 C 31.95 114.55 27.43 115.61 22.99 115.46 C 20.91 115.56 17.94 113.77 19.55 111.43 C 22.79 106.46 29.02 105.23 34.15 103.09 C 35.51 102.44 37.93 101.58 37.07 99.64 Z" />
<path fill="#cf4849" opacity="1.00" d=" M 64.33 101.08 C 64.97 100.87 66.26 100.44 66.90 100.23 C 70.76 101.96 75.43 102.41 79.26 100.35 C 81.07 100.40 82.88 100.53 84.70 100.67 C 84.29 102.17 83.86 103.68 83.44 105.18 C 84.45 106.22 85.23 107.93 86.97 107.72 C 88.89 108.06 89.54 106.06 90.48 104.85 C 91.54 104.61 92.42 104.05 93.11 103.15 C 96.20 105.31 99.67 107.44 101.31 111.00 C 102.26 113.40 99.67 115.07 97.88 116.03 C 98.28 114.23 99.51 112.26 98.41 110.48 C 97.79 109.28 96.21 109.12 95.05 108.76 C 89.37 109.16 84.12 112.86 78.30 111.52 C 75.59 111.01 73.71 108.72 73.34 106.05 C 72.34 107.19 71.89 108.65 71.34 110.04 C 69.51 107.88 68.00 105.48 67.33 102.71 C 66.14 102.47 65.14 101.93 64.33 101.08 Z" />
<path fill="#000000" opacity="1.00" d=" M 78.04 146.93 C 88.29 145.27 98.65 144.32 109.02 143.79 C 111.60 143.84 114.97 143.41 116.45 146.09 C 115.12 149.47 110.93 149.40 107.99 150.38 C 95.21 153.12 82.13 155.17 69.02 154.80 C 66.56 155.02 64.16 153.53 64.13 150.88 C 68.19 148.11 73.37 147.95 78.04 146.93 Z" />
</svg>
