<?xml version="1.0" encoding="UTF-8" ?>
<!DOCTYPE svg PUBLIC "-//W3C//DTD SVG 1.1//EN" "http://www.w3.org/Graphics/SVG/1.1/DTD/svg11.dtd">
<svg width="148pt" height="154pt" viewBox="0 0 148 154" version="1.1" xmlns="http://www.w3.org/2000/svg">
<path fill="#000000" opacity="1.00" d=" M 119.28 16.07 C 123.45 8.11 131.06 1.69 140.07 0.21 C 144.22 -0.47 149.02 3.58 147.42 7.94 C 144.93 15.94 140.57 23.17 136.28 30.31 C 132.92 36.15 129.59 42.48 129.70 49.41 C 133.49 47.81 139.61 49.10 139.82 53.98 C 139.06 58.22 134.46 59.92 131.05 61.59 C 136.01 63.71 141.86 65.27 145.06 69.97 C 147.08 73.20 144.35 76.90 141.24 78.04 C 134.94 80.58 127.99 79.20 121.53 78.12 C 118.31 81.83 113.07 81.49 108.70 82.60 C 110.45 84.08 112.43 85.42 113.70 87.37 C 115.28 89.61 112.93 92.01 111.01 93.01 C 106.12 95.50 100.42 96.44 94.98 95.90 C 92.00 95.56 88.19 94.45 87.60 91.02 C 87.84 88.21 90.05 86.25 91.86 84.34 C 83.92 85.71 75.14 85.40 68.18 90.00 C 73.59 97.05 83.94 97.58 89.58 104.46 C 91.32 106.44 91.13 109.56 89.34 111.45 C 86.24 114.88 81.76 116.58 77.53 118.16 C 67.37 121.49 56.62 123.59 45.89 122.73 C 42.94 122.44 39.72 121.65 37.70 119.32 C 35.70 116.87 36.78 113.47 38.18 111.01 C 41.57 105.30 46.94 101.18 52.05 97.09 C 43.44 99.57 35.05 103.22 26.03 104.02 C 23.50 104.17 20.58 104.19 18.62 102.34 C 16.79 100.45 18.09 97.84 18.82 95.78 C 17.08 92.74 17.41 88.79 14.90 86.17 C 12.32 83.32 8.31 82.73 5.12 80.84 C 2.78 79.57 1.39 77.21 0.00 75.04 L 0.00 69.58 C 0.85 68.05 0.93 65.50 3.03 65.12 C 4.52 67.92 4.85 71.20 6.58 73.90 C 13.04 73.79 13.08 65.46 18.52 63.60 C 22.55 62.05 26.63 66.02 26.78 69.96 C 27.51 73.80 25.59 77.26 23.76 80.45 C 28.79 80.28 29.18 73.14 34.07 73.16 C 40.40 73.31 41.29 81.72 47.40 82.63 C 47.13 80.45 46.63 78.32 45.76 76.30 C 43.69 75.12 40.26 73.93 40.73 70.97 C 40.62 69.28 42.81 69.24 43.80 68.37 C 41.53 64.96 39.24 61.22 39.10 57.01 C 38.88 54.32 41.44 52.73 43.44 51.54 C 48.87 48.56 54.80 46.65 60.74 44.96 C 60.04 36.13 61.89 26.03 69.01 20.06 C 71.33 17.86 75.79 16.95 77.78 20.03 C 80.53 24.53 79.96 30.17 79.39 35.18 C 80.40 35.27 82.44 35.46 83.45 35.55 C 82.20 33.09 81.03 30.14 82.45 27.47 C 85.13 22.42 90.82 19.82 96.15 18.58 C 99.86 17.78 104.98 18.28 106.43 22.44 C 107.97 27.59 105.01 32.59 102.30 36.75 C 104.62 36.40 110.43 33.63 110.03 37.91 C 107.50 41.64 103.44 44.26 101.93 48.68 C 104.16 48.33 106.38 47.93 108.61 47.60 C 109.42 46.08 110.11 44.26 111.98 43.80 C 114.29 43.09 116.09 45.00 117.86 46.09 C 117.79 41.89 116.74 37.84 115.44 33.88 C 113.49 27.70 116.45 21.45 119.28 16.07 M 139.30 2.03 L 139.34 2.33 C 136.77 2.70 134.32 3.63 132.14 5.05 C 124.30 9.37 119.54 17.70 117.07 26.05 C 115.48 31.15 118.28 36.03 119.19 40.95 C 119.18 43.43 119.27 45.91 119.50 48.38 C 118.75 49.13 117.87 49.68 116.88 50.05 C 116.21 48.18 115.43 45.42 112.91 45.63 C 109.10 46.36 110.31 53.13 113.19 53.99 L 112.77 54.59 L 112.55 55.71 C 105.65 53.41 98.06 51.69 90.90 53.93 C 87.91 54.57 84.68 57.38 86.32 60.70 C 88.93 65.07 93.15 68.70 98.00 70.29 C 99.42 70.26 100.36 70.80 100.84 71.90 C 99.91 71.95 98.04 72.06 97.10 72.12 C 93.90 71.41 91.09 66.93 87.85 69.42 L 87.10 69.11 L 87.30 70.06 C 86.26 70.42 85.22 70.76 84.18 71.09 C 80.04 71.82 76.11 70.63 72.41 68.85 C 72.36 68.60 72.25 68.09 72.19 67.83 C 70.95 66.56 69.87 65.15 68.84 63.70 L 67.86 64.23 C 65.81 65.21 63.02 65.49 61.89 67.72 C 63.95 68.25 66.05 68.47 68.15 68.74 C 68.54 69.30 69.32 70.42 69.71 70.99 C 66.17 71.76 62.40 71.58 59.03 73.07 C 58.00 73.59 56.60 74.48 57.03 75.86 C 58.20 77.22 59.78 78.18 61.44 78.84 L 60.46 79.20 C 56.31 78.37 52.16 77.52 48.02 76.65 C 48.51 79.14 50.86 82.95 47.57 84.30 C 46.47 84.07 45.39 83.77 44.32 83.46 C 43.21 82.69 42.12 81.90 41.01 81.14 C 36.47 82.88 32.52 85.77 28.69 88.71 C 24.86 91.77 21.19 95.38 19.47 100.09 C 20.60 100.76 21.62 101.73 22.95 101.99 C 34.03 101.23 44.60 97.51 54.86 93.47 C 55.68 93.21 57.32 92.68 58.14 92.42 C 58.55 92.81 59.38 93.59 59.79 93.98 C 59.17 94.46 57.93 95.41 57.31 95.89 C 54.33 98.02 51.43 100.26 48.47 102.43 L 48.41 102.70 C 46.58 104.27 44.85 105.96 43.18 107.70 C 40.99 110.57 37.00 114.62 39.59 118.35 C 42.88 120.89 47.32 120.57 51.23 120.86 C 57.58 120.64 63.91 119.61 70.07 118.07 C 72.77 117.51 75.38 116.59 77.96 115.61 C 81.89 114.11 86.44 112.43 88.71 108.68 C 89.03 105.15 85.14 103.28 82.64 101.62 L 82.68 101.43 C 78.77 99.74 75.11 97.55 71.23 95.79 C 70.74 95.42 69.78 94.68 69.29 94.31 C 68.64 93.78 68.00 93.25 67.35 92.72 C 65.81 90.68 67.10 88.47 68.54 86.86 C 73.26 85.14 78.17 83.82 83.21 83.58 C 84.03 83.47 85.66 83.25 86.48 83.14 C 89.91 83.32 93.33 83.14 96.76 83.24 C 97.62 83.28 99.35 83.37 100.21 83.41 C 97.44 83.96 94.45 84.26 92.40 86.45 L 92.07 86.42 C 91.88 86.70 91.51 87.27 91.33 87.56 C 89.86 88.86 88.62 92.00 91.28 92.73 C 96.92 94.91 103.47 93.82 108.97 91.62 C 110.23 90.98 112.35 90.08 111.82 88.30 C 110.91 87.19 109.76 86.30 108.71 85.33 L 108.80 84.92 C 108.44 84.87 107.71 84.78 107.35 84.74 C 107.10 84.06 106.61 82.70 106.36 82.03 C 108.97 79.28 113.26 80.05 116.59 78.91 C 117.44 78.59 118.29 78.26 119.13 77.91 C 117.17 75.82 114.12 75.30 111.79 73.72 C 112.30 73.57 113.31 73.26 113.82 73.11 C 114.43 73.42 115.64 74.05 116.25 74.37 C 116.68 74.01 117.53 73.28 117.96 72.92 C 119.75 75.14 122.33 76.17 125.10 76.53 C 129.87 77.41 134.77 77.67 139.56 76.72 L 139.56 76.55 C 141.54 75.54 144.78 73.86 143.39 71.11 C 139.94 66.58 134.09 65.03 128.94 63.27 C 127.37 62.98 125.79 62.77 124.20 62.71 C 123.79 62.35 122.97 61.63 122.55 61.27 L 123.26 61.34 C 125.88 60.37 128.94 60.61 131.24 58.82 C 131.72 58.93 132.11 58.88 132.40 58.65 C 134.39 57.47 137.17 56.38 137.70 53.85 C 137.30 50.57 132.55 49.84 130.08 51.16 L 129.88 51.52 C 129.48 51.13 128.69 50.36 128.30 49.97 C 126.93 41.63 132.25 34.39 135.70 27.31 C 137.33 25.21 138.71 22.92 139.76 20.47 C 142.08 17.19 143.31 13.25 145.08 9.65 C 145.34 7.84 146.60 5.70 145.11 4.09 C 143.85 2.11 141.37 2.06 139.30 2.03 M 65.73 27.51 L 65.60 27.35 C 63.89 31.74 62.94 36.38 62.59 41.07 C 62.93 42.74 63.02 44.47 63.48 46.11 C 62.27 46.56 61.05 46.99 59.82 47.39 C 53.64 49.36 47.01 51.22 41.91 55.40 C 41.75 55.84 41.43 56.73 41.27 57.17 C 42.00 61.46 44.25 65.35 46.66 68.92 C 45.53 70.22 43.92 70.68 42.24 70.62 C 42.30 73.55 45.70 74.19 47.94 74.70 C 50.60 74.90 53.07 76.00 55.50 77.00 C 54.11 72.44 59.11 70.74 62.64 70.43 C 62.98 68.89 60.66 68.63 59.85 67.70 C 61.34 64.34 65.32 63.43 68.45 62.25 C 66.42 56.47 67.48 50.44 69.04 44.71 C 69.29 44.20 69.79 43.18 70.04 42.67 C 70.34 42.36 70.93 41.72 71.23 41.40 C 72.41 39.93 73.64 38.50 74.85 37.05 C 75.75 36.52 76.62 35.95 77.46 35.33 C 77.79 31.23 78.01 27.06 77.05 23.02 C 76.92 22.67 76.64 21.97 76.51 21.62 C 72.34 17.33 67.57 23.96 65.73 27.51 M 84.65 27.49 C 83.08 29.60 83.62 32.63 85.31 34.49 C 87.38 37.15 90.80 37.90 93.86 38.79 C 93.78 39.27 93.60 40.23 93.52 40.71 C 92.87 40.53 91.56 40.18 90.91 40.00 C 92.96 43.39 96.15 46.64 95.48 50.94 C 99.27 50.89 103.06 51.17 106.81 51.74 C 106.86 51.32 106.94 50.48 106.99 50.05 C 104.61 50.37 101.93 51.44 99.91 49.54 C 100.40 44.36 105.00 41.27 107.93 37.45 C 105.18 37.77 102.50 38.77 99.70 38.57 C 100.78 33.53 105.72 29.44 104.77 23.99 C 104.46 21.13 101.26 19.90 98.73 20.40 C 98.40 20.41 97.73 20.44 97.40 20.45 C 92.55 21.24 87.59 23.40 84.65 27.49 M 71.95 44.74 C 68.14 52.13 68.26 63.56 76.36 68.04 C 80.28 69.39 84.68 69.07 87.98 66.42 C 87.66 65.57 87.13 64.99 86.41 64.68 C 85.31 62.60 83.70 60.49 84.10 58.00 C 84.25 56.11 85.69 54.79 86.91 53.50 C 89.08 52.43 91.36 51.58 93.75 51.12 C 92.72 46.02 89.81 41.19 85.22 38.58 C 83.20 37.96 81.12 37.06 78.96 37.61 C 75.63 38.71 73.61 41.85 71.95 44.74 M 108.07 51.33 C 107.60 52.92 108.19 53.46 109.86 52.95 C 110.32 51.36 109.72 50.82 108.07 51.33 M 8.95 75.51 C 4.48 76.56 3.45 70.87 2.08 67.89 C 1.72 70.64 1.25 73.70 2.74 76.23 C 3.95 78.40 6.28 79.50 8.38 80.62 C 10.65 81.24 12.70 82.38 14.76 83.49 C 15.84 84.67 16.92 85.85 18.01 87.03 C 18.68 89.25 19.26 91.49 19.71 93.77 C 25.70 88.86 31.45 83.33 38.72 80.25 L 38.48 80.19 L 39.88 79.71 C 38.49 78.23 37.60 75.35 35.12 75.55 C 34.94 75.84 34.58 76.41 34.40 76.70 C 34.33 76.16 34.21 75.06 34.14 74.52 C 30.90 75.73 30.23 79.64 27.31 81.24 C 26.02 81.92 24.50 81.71 23.11 81.93 C 22.51 81.25 20.60 80.66 21.74 79.55 C 25.13 75.78 26.58 69.18 22.31 65.50 C 14.97 63.76 15.21 74.40 8.95 75.51 Z" />
<path fill="#57a6ff" opacity="1.00" d=" M 139.30 2.03 C 141.37 2.06 143.85 2.11 145.11 4.09 C 146.60 5.70 145.34 7.84 145.08 9.65 C 143.76 9.64 142.44 9.67 141.13 9.71 C 140.66 9.78 139.73 9.91 139.27 9.98 C 139.90 7.46 139.94 4.86 139.34 2.33 L 139.30 2.03 Z" />
<path fill="#9effff" opacity="1.00" d=" M 132.14 5.05 C 134.32 3.63 136.77 2.70 139.34 2.33 C 139.94 4.86 139.90 7.46 139.27 9.98 C 138.48 10.48 137.70 11.01 136.93 11.55 C 135.38 12.71 133.88 13.94 132.46 15.25 C 132.10 14.67 131.39 13.52 131.03 12.94 C 129.73 12.61 128.44 12.24 127.13 11.92 C 128.71 9.57 130.33 7.24 132.14 5.05 Z" />
<path fill="#57a6ff" opacity="1.00" d=" M 117.07 26.05 C 119.54 17.70 124.30 9.37 132.14 5.05 C 130.33 7.24 128.71 9.57 127.13 11.92 C 124.95 15.50 121.95 18.51 119.91 22.17 C 118.35 25.16 120.48 28.33 122.58 30.40 C 120.41 34.28 122.08 38.84 120.91 42.94 L 119.87 43.76 C 119.70 43.06 119.36 41.65 119.19 40.95 C 118.28 36.03 115.48 31.15 117.07 26.05 Z" />
<path fill="#447ce1" opacity="1.00" d=" M 136.93 11.55 C 137.70 11.01 138.48 10.48 139.27 9.98 C 139.73 9.91 140.66 9.78 141.13 9.71 C 139.50 13.07 138.68 17.55 134.49 18.59 C 134.99 16.15 135.88 13.81 136.93 11.55 Z" />
<path fill="#2d50b6" opacity="1.00" d=" M 141.13 9.71 C 142.44 9.67 143.76 9.64 145.08 9.65 C 143.31 13.25 142.08 17.19 139.76 20.47 C 137.67 22.27 136.12 24.54 135.70 27.31 C 132.25 34.39 126.93 41.63 128.30 49.97 C 127.38 50.41 126.45 50.84 125.52 51.26 C 124.48 50.40 123.43 49.56 122.39 48.70 C 123.35 46.92 124.31 45.15 125.25 43.36 C 123.38 40.46 124.48 37.29 125.66 34.35 C 123.78 34.38 122.17 35.12 121.84 37.08 C 121.00 39.52 123.16 41.65 123.54 43.98 C 122.40 45.62 120.92 46.99 119.50 48.38 C 119.27 45.91 119.18 43.43 119.19 40.95 C 119.36 41.65 119.70 43.06 119.87 43.76 L 120.91 42.94 C 122.08 38.84 120.41 34.28 122.58 30.40 C 122.98 30.79 123.79 31.56 124.19 31.95 C 124.52 32.27 125.17 32.91 125.50 33.22 C 125.66 31.38 124.93 29.19 126.49 27.76 C 129.06 24.63 131.27 21.12 134.49 18.59 C 138.68 17.55 139.50 13.07 141.13 9.71 Z" />
<path fill="#c3ffff" opacity="1.00" d=" M 127.13 11.92 C 128.44 12.24 129.73 12.61 131.03 12.94 C 131.39 13.52 132.10 14.67 132.46 15.25 C 130.25 17.50 127.54 19.41 126.06 22.25 C 125.25 25.44 125.22 28.79 124.19 31.95 C 123.79 31.56 122.98 30.79 122.58 30.40 C 120.48 28.33 118.35 25.16 119.91 22.17 C 121.95 18.51 124.95 15.50 127.13 11.92 Z" />
<path fill="#66bcff" opacity="1.00" d=" M 132.46 15.25 C 133.88 13.94 135.38 12.71 136.93 11.55 C 135.88 13.81 134.99 16.15 134.49 18.59 C 131.27 21.12 129.06 24.63 126.49 27.76 C 124.93 29.19 125.66 31.38 125.50 33.22 C 125.17 32.91 124.52 32.27 124.19 31.95 C 125.22 28.79 125.25 25.44 126.06 22.25 C 127.54 19.41 130.25 17.50 132.46 15.25 Z" />
<path fill="#000000" opacity="1.00" d=" M 48.54 17.80 C 52.19 15.92 55.91 19.55 56.36 23.08 C 57.87 29.87 50.86 37.21 43.99 35.24 C 39.89 34.07 38.75 28.89 40.60 25.43 C 42.12 22.00 45.02 19.13 48.54 17.80 M 47.79 19.74 L 46.77 19.61 C 46.64 20.03 46.39 20.87 46.26 21.29 C 44.86 20.49 42.67 22.88 43.50 24.24 L 42.42 24.68 C 41.41 27.45 40.56 31.65 43.92 33.17 C 49.32 35.35 55.26 29.55 54.50 24.08 C 54.47 21.46 52.27 19.71 50.41 18.21 C 49.55 18.74 48.67 19.25 47.79 19.74 Z" />
<path fill="#62b8ff" opacity="1.00" d=" M 47.79 19.74 C 48.67 19.25 49.55 18.74 50.41 18.21 C 52.27 19.71 54.47 21.46 54.50 24.08 C 55.26 29.55 49.32 35.35 43.92 33.17 C 40.56 31.65 41.41 27.45 42.42 24.68 C 43.39 25.79 44.45 26.82 45.77 27.49 C 45.30 27.76 44.36 28.29 43.89 28.56 C 45.39 31.50 47.76 29.02 49.01 27.26 C 49.80 27.98 50.58 28.70 51.37 29.43 C 52.02 28.64 52.67 27.85 53.33 27.06 C 53.40 25.50 52.15 24.44 51.29 23.31 C 51.71 22.45 52.22 21.65 52.81 20.89 C 51.15 20.45 49.48 20.04 47.79 19.74 Z" />
<path fill="#9affff" opacity="1.00" d=" M 46.77 19.61 L 47.79 19.74 C 49.48 20.04 51.15 20.45 52.81 20.89 C 52.22 21.65 51.71 22.45 51.29 23.31 C 49.53 24.81 47.67 26.17 45.77 27.49 C 44.45 26.82 43.39 25.79 42.42 24.68 L 43.50 24.24 C 44.94 23.89 46.00 22.75 46.26 21.29 C 46.39 20.87 46.64 20.03 46.77 19.61 Z" />
<path fill="#64b4d5" opacity="1.00" d=" M 43.50 24.24 C 42.67 22.88 44.86 20.49 46.26 21.29 C 46.00 22.75 44.94 23.89 43.50 24.24 Z" />
<path fill="#9effff" opacity="1.00" d=" M 65.73 27.51 C 67.57 23.96 72.34 17.33 76.51 21.62 C 75.49 22.86 74.50 24.13 73.49 25.38 C 73.84 26.26 74.19 27.15 74.54 28.03 C 71.99 29.95 70.12 32.56 68.25 35.11 C 66.73 36.23 65.12 37.23 63.51 38.22 C 64.01 35.10 65.83 32.51 67.56 29.95 C 66.95 29.14 66.34 28.32 65.73 27.51 Z" />
<path fill="#529af8" opacity="1.00" d=" M 84.65 27.49 C 87.59 23.40 92.55 21.24 97.40 20.45 C 96.71 21.27 96.53 22.16 96.84 23.13 C 97.04 23.75 97.44 24.97 97.64 25.59 C 99.55 26.22 101.54 26.85 103.53 26.11 C 102.50 23.79 100.16 22.15 97.56 23.03 C 97.85 22.38 98.44 21.06 98.73 20.40 C 101.26 19.90 104.46 21.13 104.77 23.99 C 105.72 29.44 100.78 33.53 99.70 38.57 C 99.56 39.28 99.48 40.01 99.45 40.73 C 98.42 41.27 97.39 41.78 96.36 42.32 C 99.37 43.81 99.85 47.08 98.54 49.93 C 98.88 49.84 99.57 49.64 99.91 49.54 C 101.93 51.44 104.61 50.37 106.99 50.05 C 106.94 50.48 106.86 51.32 106.81 51.74 C 103.06 51.17 99.27 50.89 95.48 50.94 C 96.15 46.64 92.96 43.39 90.91 40.00 C 91.56 40.18 92.87 40.53 93.52 40.71 C 93.60 40.23 93.78 39.27 93.86 38.79 C 90.80 37.90 87.38 37.15 85.31 34.49 C 83.62 32.63 83.08 29.60 84.65 27.49 M 95.28 25.11 C 92.84 27.24 89.94 29.60 91.07 33.28 C 93.84 32.00 94.96 28.73 97.82 27.48 C 96.96 26.71 96.14 25.89 95.28 25.11 Z" />
<path fill="#78e3ff" opacity="1.00" d=" M 97.40 20.45 C 97.73 20.44 98.40 20.41 98.73 20.40 C 98.44 21.06 97.85 22.38 97.56 23.03 L 96.84 23.13 C 96.53 22.16 96.71 21.27 97.40 20.45 Z" />
<path fill="#57a6ff" opacity="1.00" d=" M 135.70 27.31 C 136.12 24.54 137.67 22.27 139.76 20.47 C 138.71 22.92 137.33 25.21 135.70 27.31 Z" />
<path fill="#4582e0" opacity="1.00" d=" M 76.51 21.62 C 76.64 21.97 76.92 22.67 77.05 23.02 C 74.88 23.85 75.89 26.30 75.59 28.00 C 75.79 31.26 74.45 34.28 73.47 37.31 L 74.85 37.05 C 73.64 38.50 72.41 39.93 71.23 41.40 C 69.88 40.39 68.53 39.38 67.18 38.38 C 67.60 37.31 67.87 36.19 68.25 35.11 C 70.12 32.56 71.99 29.95 74.54 28.03 C 74.19 27.15 73.84 26.26 73.49 25.38 C 74.50 24.13 75.49 22.86 76.51 21.62 Z" />
<path fill="#3b6dcf" opacity="1.00" d=" M 96.84 23.13 L 97.56 23.03 C 100.16 22.15 102.50 23.79 103.53 26.11 C 101.54 26.85 99.55 26.22 97.64 25.59 C 97.44 24.97 97.04 23.75 96.84 23.13 Z" />
<path fill="#4886e2" opacity="1.00" d=" M 45.77 27.49 C 47.67 26.17 49.53 24.81 51.29 23.31 C 52.15 24.44 53.40 25.50 53.33 27.06 C 52.67 27.85 52.02 28.64 51.37 29.43 C 50.58 28.70 49.80 27.98 49.01 27.26 C 47.76 29.02 45.39 31.50 43.89 28.56 C 44.36 28.29 45.30 27.76 45.77 27.49 Z" />
<path fill="#7de8ff" opacity="1.00" d=" M 75.59 28.00 C 75.89 26.30 74.88 23.85 77.05 23.02 C 78.01 27.06 77.79 31.23 77.46 35.33 C 76.62 35.95 75.75 36.52 74.85 37.05 L 73.47 37.31 C 74.45 34.28 75.79 31.26 75.59 28.00 Z" />
<path fill="#3763c7" opacity="1.00" d=" M 95.28 25.11 C 96.14 25.89 96.96 26.71 97.82 27.48 C 94.96 28.73 93.84 32.00 91.07 33.28 C 89.94 29.60 92.84 27.24 95.28 25.11 Z" />
<path fill="#6ecbff" opacity="1.00" d=" M 65.60 27.35 L 65.73 27.51 C 66.34 28.32 66.95 29.14 67.56 29.95 C 65.83 32.51 64.01 35.10 63.51 38.22 C 65.12 37.23 66.73 36.23 68.25 35.11 C 67.87 36.19 67.60 37.31 67.18 38.38 C 68.53 39.38 69.88 40.39 71.23 41.40 C 70.93 41.72 70.34 42.36 70.04 42.67 C 68.89 43.08 67.73 43.44 66.57 43.82 C 66.62 43.38 66.71 42.50 66.76 42.07 C 65.37 41.72 63.98 41.40 62.59 41.07 C 62.94 36.38 63.89 31.74 65.60 27.35 Z" />
<path fill="#57a6ff" opacity="1.00" d=" M 121.84 37.08 C 122.17 35.12 123.78 34.38 125.66 34.35 C 124.48 37.29 123.38 40.46 125.25 43.36 C 124.31 45.15 123.35 46.92 122.39 48.70 C 123.43 49.56 124.48 50.40 125.52 51.26 C 122.95 53.02 119.89 51.30 117.17 52.36 C 115.80 52.80 114.49 53.39 113.19 53.99 C 110.31 53.13 109.10 46.36 112.91 45.63 C 115.43 45.42 116.21 48.18 116.88 50.05 C 117.87 49.68 118.75 49.13 119.50 48.38 C 120.92 46.99 122.40 45.62 123.54 43.98 C 123.16 41.65 121.00 39.52 121.84 37.08 Z" />
<path fill="#f2fcff" opacity="1.00" d=" M 71.95 44.74 C 73.61 41.85 75.63 38.71 78.96 37.61 C 81.12 37.06 83.20 37.96 85.22 38.58 C 84.06 40.41 82.92 42.25 81.73 44.06 C 82.61 46.13 84.22 47.54 86.44 47.96 C 86.56 49.81 86.78 51.65 86.91 53.50 C 85.69 54.79 84.25 56.11 84.10 58.00 C 83.70 60.49 85.31 62.60 86.41 64.68 C 83.92 64.61 81.44 64.66 78.96 64.67 C 77.59 63.16 76.11 61.72 75.03 59.97 C 74.15 57.63 73.93 55.11 73.47 52.67 C 72.53 52.62 71.58 52.57 70.64 52.52 C 71.03 49.92 71.34 47.30 71.95 44.74 Z" />
<path fill="#3967c9" opacity="1.00" d=" M 99.45 40.73 C 99.48 40.01 99.56 39.28 99.70 38.57 C 102.50 38.77 105.18 37.77 107.93 37.45 C 105.00 41.27 100.40 44.36 99.91 49.54 C 99.57 49.64 98.88 49.84 98.54 49.93 C 99.85 47.08 99.37 43.81 96.36 42.32 C 97.39 41.78 98.42 41.27 99.45 40.73 Z" />
<path fill="#d6fdff" opacity="1.00" d=" M 85.22 38.58 C 89.81 41.19 92.72 46.02 93.75 51.12 C 91.36 51.58 89.08 52.43 86.91 53.50 C 86.78 51.65 86.56 49.81 86.44 47.96 C 84.22 47.54 82.61 46.13 81.73 44.06 C 82.92 42.25 84.06 40.41 85.22 38.58 Z" />
<path fill="#000000" opacity="1.00" d=" M 39.47 41.60 C 44.30 40.08 40.97 49.36 37.34 46.91 C 35.19 45.16 37.51 42.37 39.47 41.60 M 39.26 42.88 C 38.07 43.10 36.58 45.81 38.56 45.88 C 40.07 45.95 41.54 42.43 39.26 42.88 Z" />
<path fill="#5499ff" opacity="1.00" d=" M 62.59 41.07 C 63.98 41.40 65.37 41.72 66.76 42.07 C 66.71 42.50 66.62 43.38 66.57 43.82 C 67.73 43.44 68.89 43.08 70.04 42.67 C 69.79 43.18 69.29 44.20 69.04 44.71 C 66.56 45.87 64.11 47.08 61.80 48.54 C 63.85 49.54 67.11 49.93 67.38 52.67 C 64.74 52.59 61.95 52.84 59.49 51.67 C 58.98 51.71 57.95 51.78 57.43 51.82 C 58.08 50.17 59.58 49.27 60.95 48.24 C 60.67 48.03 60.11 47.60 59.82 47.39 C 61.05 46.99 62.27 46.56 63.48 46.11 C 63.02 44.47 62.93 42.74 62.59 41.07 Z" />
<path fill="#8affff" opacity="1.00" d=" M 39.26 42.88 C 41.54 42.43 40.07 45.95 38.56 45.88 C 36.58 45.81 38.07 43.10 39.26 42.88 Z" />
<path fill="#2641ab" opacity="1.00" d=" M 61.80 48.54 C 64.11 47.08 66.56 45.87 69.04 44.71 C 67.48 50.44 66.42 56.47 68.45 62.25 C 65.32 63.43 61.34 64.34 59.85 67.70 C 60.66 68.63 62.98 68.89 62.64 70.43 C 59.11 70.74 54.11 72.44 55.50 77.00 C 53.07 76.00 50.60 74.90 47.94 74.70 C 47.79 74.02 47.49 72.65 47.35 71.96 C 49.93 71.23 52.59 70.83 55.27 70.65 C 53.88 70.35 52.49 70.05 51.10 69.75 C 51.34 69.31 51.82 68.45 52.06 68.02 C 52.79 66.76 53.54 65.52 54.28 64.28 C 57.02 64.67 59.99 65.10 62.44 63.46 C 64.90 62.26 67.35 59.08 65.62 56.37 C 64.08 54.36 61.39 54.19 59.07 54.27 C 58.40 54.70 57.05 55.57 56.38 56.00 C 56.76 54.62 57.11 53.22 57.43 51.82 C 57.95 51.78 58.98 51.71 59.49 51.67 C 61.95 52.84 64.74 52.59 67.38 52.67 C 67.11 49.93 63.85 49.54 61.80 48.54 Z" />
<path fill="#98dbfa" opacity="1.00" d=" M 76.36 68.04 C 68.26 63.56 68.14 52.13 71.95 44.74 C 71.34 47.30 71.03 49.92 70.64 52.52 C 71.58 52.57 72.53 52.62 73.47 52.67 C 73.93 55.11 74.15 57.63 75.03 59.97 C 76.11 61.72 77.59 63.16 78.96 64.67 C 78.09 65.79 77.22 66.91 76.36 68.04 Z" />
<path fill="#99ffff" opacity="1.00" d=" M 41.91 55.40 C 47.01 51.22 53.64 49.36 59.82 47.39 C 60.11 47.60 60.67 48.03 60.95 48.24 C 59.58 49.27 58.08 50.17 57.43 51.82 C 57.11 53.22 56.76 54.62 56.38 56.00 C 54.88 57.11 53.63 58.54 52.92 60.29 C 51.52 59.09 50.04 57.94 48.31 57.26 C 46.31 57.91 46.75 60.32 46.20 61.94 C 43.05 61.46 41.89 58.24 41.91 55.40 Z" />
<path fill="#7de8ff" opacity="1.00" d=" M 125.52 51.26 C 126.45 50.84 127.38 50.41 128.30 49.97 C 128.69 50.36 129.48 51.13 129.88 51.52 C 129.81 51.65 129.66 51.90 129.59 52.02 C 126.53 53.42 123.36 54.65 120.16 55.71 L 119.57 55.85 C 119.46 57.49 119.42 59.14 119.45 60.79 C 120.48 60.95 121.52 61.11 122.55 61.27 C 122.97 61.63 123.79 62.35 124.20 62.71 C 125.79 62.77 127.37 62.98 128.94 63.27 C 128.80 63.75 128.52 64.72 128.38 65.21 C 125.48 65.06 123.25 62.21 120.42 62.61 C 118.71 61.87 116.95 61.30 115.19 60.72 C 115.54 59.14 115.86 57.56 116.18 55.98 C 115.05 55.50 113.91 55.03 112.77 54.59 L 113.19 53.99 C 114.49 53.39 115.80 52.80 117.17 52.36 C 119.89 51.30 122.95 53.02 125.52 51.26 Z" />
<path fill="#000000" opacity="0.57" d=" M 108.07 51.33 C 109.72 50.82 110.32 51.36 109.86 52.95 C 108.19 53.46 107.60 52.92 108.07 51.33 Z" />
<path fill="#355ec6" opacity="1.00" d=" M 129.88 51.52 L 130.08 51.16 C 131.88 52.14 133.77 52.91 135.69 53.62 C 135.64 54.05 135.54 54.93 135.49 55.36 C 134.22 56.22 132.16 56.69 132.40 58.65 C 132.11 58.88 131.72 58.93 131.24 58.82 C 128.68 58.19 125.76 59.23 123.46 57.69 C 122.36 57.03 121.26 56.37 120.16 55.71 C 123.36 54.65 126.53 53.42 129.59 52.02 C 129.66 51.90 129.81 51.65 129.88 51.52 Z" />
<path fill="#5aa8ff" opacity="1.00" d=" M 130.08 51.16 C 132.55 49.84 137.30 50.57 137.70 53.85 C 137.17 56.38 134.39 57.47 132.40 58.65 C 132.16 56.69 134.22 56.22 135.49 55.36 C 135.54 54.93 135.64 54.05 135.69 53.62 C 133.77 52.91 131.88 52.14 130.08 51.16 Z" />
<path fill="#a6ffff" opacity="1.00" d=" M 90.90 53.93 C 98.06 51.69 105.65 53.41 112.55 55.71 C 111.74 59.89 106.74 59.28 103.59 58.80 C 98.30 57.62 92.63 58.66 87.63 56.35 C 88.75 55.58 89.79 54.70 90.90 53.93 Z" />
<path fill="#3b6cce" opacity="1.00" d=" M 86.32 60.70 C 84.68 57.38 87.91 54.57 90.90 53.93 C 89.79 54.70 88.75 55.58 87.63 56.35 L 86.85 56.89 C 90.96 62.12 97.04 65.31 103.29 67.27 C 103.45 69.15 104.39 70.82 105.01 72.57 C 105.19 73.05 105.56 74.00 105.75 74.47 C 104.02 73.53 102.83 71.96 101.59 70.48 C 100.40 70.36 99.20 70.29 98.00 70.29 C 93.15 68.70 88.93 65.07 86.32 60.70 Z" />
<path fill="#000000" opacity="1.00" d=" M 56.38 56.00 C 57.05 55.57 58.40 54.70 59.07 54.27 C 61.39 54.19 64.08 54.36 65.62 56.37 C 67.35 59.08 64.90 62.26 62.44 63.46 C 59.99 65.10 57.02 64.67 54.28 64.28 C 53.95 63.68 53.28 62.48 52.95 61.88 C 52.94 61.48 52.92 60.68 52.92 60.29 C 53.63 58.54 54.88 57.11 56.38 56.00 M 54.66 61.95 C 57.10 63.19 59.96 62.52 62.17 61.10 C 63.46 60.13 64.90 58.28 63.40 56.82 L 63.12 57.03 C 59.35 54.43 55.40 58.30 54.66 61.95 Z" />
<path fill="#6ecefe" opacity="1.00" d=" M 112.77 54.59 C 113.91 55.03 115.05 55.50 116.18 55.98 C 115.86 57.56 115.54 59.14 115.19 60.72 C 112.89 60.34 110.53 59.76 108.20 60.14 C 106.71 61.09 105.26 62.11 103.60 62.75 C 103.70 61.43 103.46 60.12 103.59 58.80 C 106.74 59.28 111.74 59.89 112.55 55.71 L 112.77 54.59 Z" />
<path fill="#539ef8" opacity="1.00" d=" M 41.27 57.17 C 41.43 56.73 41.75 55.84 41.91 55.40 C 41.89 58.24 43.05 61.46 46.20 61.94 C 46.75 60.32 46.31 57.91 48.31 57.26 C 50.04 57.94 51.52 59.09 52.92 60.29 C 52.92 60.68 52.94 61.48 52.95 61.88 C 53.28 62.48 53.95 63.68 54.28 64.28 C 53.54 65.52 52.79 66.76 52.06 68.02 C 50.54 68.63 48.97 69.11 47.42 69.63 C 47.21 70.09 46.80 71.00 46.60 71.46 C 45.51 71.25 43.33 70.83 42.24 70.62 C 43.92 70.68 45.53 70.22 46.66 68.92 C 44.25 65.35 42.00 61.46 41.27 57.17 Z" />
<path fill="#99ffff" opacity="1.00" d=" M 54.66 61.95 C 55.40 58.30 59.35 54.43 63.12 57.03 C 60.67 59.26 57.66 60.65 54.66 61.95 Z" />
<path fill="#4781e6" opacity="1.00" d=" M 119.57 55.85 L 120.16 55.71 C 121.26 56.37 122.36 57.03 123.46 57.69 C 125.76 59.23 128.68 58.19 131.24 58.82 C 128.94 60.61 125.88 60.37 123.26 61.34 L 122.55 61.27 C 121.52 61.11 120.48 60.95 119.45 60.79 C 119.42 59.14 119.46 57.49 119.57 55.85 Z" />
<path fill="#3056bb" opacity="1.00" d=" M 63.12 57.03 L 63.40 56.82 C 64.90 58.28 63.46 60.13 62.17 61.10 C 59.96 62.52 57.10 63.19 54.66 61.95 C 57.66 60.65 60.67 59.26 63.12 57.03 Z" />
<path fill="#8affff" opacity="1.00" d=" M 86.85 56.89 L 87.63 56.35 C 92.63 58.66 98.30 57.62 103.59 58.80 C 103.46 60.12 103.70 61.43 103.60 62.75 C 103.37 62.89 102.90 63.17 102.66 63.30 C 102.51 64.68 103.39 65.89 103.29 67.27 C 97.04 65.31 90.96 62.12 86.85 56.89 Z" />
<path fill="#5093f9" opacity="1.00" d=" M 103.60 62.75 C 105.26 62.11 106.71 61.09 108.20 60.14 C 110.53 59.76 112.89 60.34 115.19 60.72 C 116.95 61.30 118.71 61.87 120.42 62.61 C 115.59 64.38 110.41 63.95 105.38 64.43 C 106.79 67.11 106.88 70.05 105.01 72.57 C 104.39 70.82 103.45 69.15 103.29 67.27 C 103.39 65.89 102.51 64.68 102.66 63.30 C 102.90 63.17 103.37 62.89 103.60 62.75 Z" />
<path fill="#447be1" opacity="1.00" d=" M 120.42 62.61 C 123.25 62.21 125.48 65.06 128.38 65.21 L 129.08 65.39 C 128.68 65.57 127.88 65.92 127.48 66.10 C 127.50 67.08 127.54 68.07 127.59 69.06 C 123.02 67.90 118.98 64.52 114.06 65.10 C 112.03 64.97 110.49 66.31 108.98 67.43 C 114.87 69.32 120.84 71.01 126.86 72.43 C 126.27 73.79 125.69 75.16 125.10 76.53 C 122.33 76.17 119.75 75.14 117.96 72.92 C 117.53 73.28 116.68 74.01 116.25 74.37 C 115.64 74.05 114.43 73.42 113.82 73.11 C 113.31 73.26 112.30 73.57 111.79 73.72 C 111.11 73.93 109.74 74.36 109.05 74.57 C 109.76 74.85 110.47 75.13 111.18 75.40 C 109.90 75.43 108.63 75.50 107.35 75.49 C 106.95 75.24 106.15 74.73 105.75 74.47 C 105.56 74.00 105.19 73.05 105.01 72.57 C 106.88 70.05 106.79 67.11 105.38 64.43 C 110.41 63.95 115.59 64.38 120.42 62.61 Z" />
<path fill="#57a7ff" opacity="1.00" d=" M 128.94 63.27 C 134.09 65.03 139.94 66.58 143.39 71.11 C 144.78 73.86 141.54 75.54 139.56 76.55 C 139.42 74.58 139.91 72.24 138.37 70.69 C 135.80 68.13 132.17 67.14 129.08 65.39 L 128.38 65.21 C 128.52 64.72 128.80 63.75 128.94 63.27 Z" />
<path fill="#62b8ff" opacity="1.00" d=" M 61.89 67.72 C 63.02 65.49 65.81 65.21 67.86 64.23 C 66.58 65.03 66.25 66.43 66.01 67.82 C 66.54 68.05 67.61 68.51 68.15 68.74 C 66.05 68.47 63.95 68.25 61.89 67.72 Z" />
<path fill="#3056bb" opacity="1.00" d=" M 67.86 64.23 L 68.84 63.70 C 69.87 65.15 70.95 66.56 72.19 67.83 C 71.37 68.89 70.56 69.95 69.71 70.99 C 69.32 70.42 68.54 69.30 68.15 68.74 C 67.61 68.51 66.54 68.05 66.01 67.82 C 66.25 66.43 66.58 65.03 67.86 64.23 Z" />
<path fill="#b7ffff" opacity="1.00" d=" M 76.36 68.04 C 77.22 66.91 78.09 65.79 78.96 64.67 C 81.44 64.66 83.92 64.61 86.41 64.68 C 87.13 64.99 87.66 65.57 87.98 66.42 C 84.68 69.07 80.28 69.39 76.36 68.04 Z" />
<path fill="#325abf" opacity="1.00" d=" M 108.98 67.43 C 110.49 66.31 112.03 64.97 114.06 65.10 C 118.98 64.52 123.02 67.90 127.59 69.06 C 127.54 68.07 127.50 67.08 127.48 66.10 C 127.88 65.92 128.68 65.57 129.08 65.39 C 132.17 67.14 135.80 68.13 138.37 70.69 C 139.91 72.24 139.42 74.58 139.56 76.55 L 139.56 76.72 C 134.77 77.67 129.87 77.41 125.10 76.53 C 125.69 75.16 126.27 73.79 126.86 72.43 C 120.84 71.01 114.87 69.32 108.98 67.43 Z" />
<path fill="#9affff" opacity="1.00" d=" M 8.95 75.51 C 15.21 74.40 14.97 63.76 22.31 65.50 C 21.89 66.09 21.05 67.28 20.62 67.88 C 19.33 69.54 17.71 70.90 16.16 72.31 C 13.99 74.94 12.66 78.24 10.13 80.56 C 9.69 80.58 8.82 80.61 8.38 80.62 C 8.54 78.91 8.73 77.21 8.95 75.51 Z" />
<path fill="#447edf" opacity="1.00" d=" M 22.31 65.50 C 26.58 69.18 25.13 75.78 21.74 79.55 C 20.60 80.66 22.51 81.25 23.11 81.93 C 22.40 82.61 21.69 83.30 20.99 83.99 C 19.51 84.40 18.02 84.75 16.53 85.12 C 19.67 79.91 21.32 73.98 20.62 67.88 C 21.05 67.28 21.89 66.09 22.31 65.50 Z" />
<path fill="#6dcbff" opacity="1.00" d=" M 16.16 72.31 C 17.71 70.90 19.33 69.54 20.62 67.88 C 21.32 73.98 19.67 79.91 16.53 85.12 C 18.02 84.75 19.51 84.40 20.99 83.99 C 20.77 84.40 20.32 85.21 20.10 85.62 C 21.75 86.09 23.40 86.56 25.06 87.01 C 24.05 87.62 23.02 88.17 22.02 88.79 C 21.27 87.09 19.64 86.97 18.01 87.03 C 16.92 85.85 15.84 84.67 14.76 83.49 C 16.11 81.07 17.56 78.65 18.21 75.94 C 19.08 74.26 17.03 73.34 16.16 72.31 Z" />
<path fill="#3d6fd4" opacity="1.00" d=" M 47.42 69.63 C 48.97 69.11 50.54 68.63 52.06 68.02 C 51.82 68.45 51.34 69.31 51.10 69.75 C 52.49 70.05 53.88 70.35 55.27 70.65 C 52.59 70.83 49.93 71.23 47.35 71.96 C 47.49 72.65 47.79 74.02 47.94 74.70 C 45.70 74.19 42.30 73.55 42.24 70.62 C 43.33 70.83 45.51 71.25 46.60 71.46 C 46.80 71.00 47.21 70.09 47.42 69.63 Z" />
<path fill="#4989e7" opacity="1.00" d=" M 69.71 70.99 C 70.56 69.95 71.37 68.89 72.19 67.83 C 72.25 68.09 72.36 68.60 72.41 68.85 C 73.02 70.79 73.51 72.78 74.02 74.75 C 76.89 73.41 79.90 72.39 82.98 71.67 C 82.90 74.13 83.24 76.98 80.85 78.53 C 79.90 78.86 78.94 79.20 78.00 79.58 C 77.44 79.36 76.31 78.92 75.75 78.70 C 77.81 77.79 79.79 76.68 81.44 75.12 C 76.13 75.42 70.74 76.70 66.33 79.81 C 65.38 79.67 64.43 79.53 63.49 79.37 C 62.97 79.24 61.95 78.97 61.44 78.84 C 59.78 78.18 58.20 77.22 57.03 75.86 C 56.60 74.48 58.00 73.59 59.03 73.07 C 62.40 71.58 66.17 71.76 69.71 70.99 Z" />
<path fill="#57a6ff" opacity="1.00" d=" M 2.08 67.89 C 3.45 70.87 4.48 76.56 8.95 75.51 C 8.73 77.21 8.54 78.91 8.38 80.62 C 6.28 79.50 3.95 78.40 2.74 76.23 C 1.25 73.70 1.72 70.64 2.08 67.89 Z" />
<path fill="#243da5" opacity="1.00" d=" M 72.41 68.85 C 76.11 70.63 80.04 71.82 84.18 71.09 C 84.23 72.24 84.28 73.39 84.32 74.53 C 87.27 74.30 90.30 74.74 91.40 77.90 C 90.81 78.23 89.64 78.89 89.05 79.22 C 86.30 79.21 83.59 78.77 80.85 78.53 C 83.24 76.98 82.90 74.13 82.98 71.67 C 79.90 72.39 76.89 73.41 74.02 74.75 C 73.51 72.78 73.02 70.79 72.41 68.85 Z" />
<path fill="#5ba9ee" opacity="1.00" d=" M 87.10 69.11 L 87.85 69.42 C 90.00 70.34 91.03 72.41 91.43 74.61 C 88.82 74.63 87.84 72.18 87.30 70.06 L 87.10 69.11 Z" />
<path fill="#427bdb" opacity="1.00" d=" M 87.85 69.42 C 91.09 66.93 93.90 71.41 97.10 72.12 C 98.33 72.43 99.56 72.73 100.80 73.01 C 98.34 75.61 94.71 74.27 91.60 74.37 C 92.86 75.24 94.14 76.07 95.52 76.75 C 94.08 76.90 92.66 77.17 91.40 77.90 C 90.30 74.74 87.27 74.30 84.32 74.53 C 84.28 73.39 84.23 72.24 84.18 71.09 C 85.22 70.76 86.26 70.42 87.30 70.06 C 87.84 72.18 88.82 74.63 91.43 74.61 C 91.03 72.41 90.00 70.34 87.85 69.42 Z" />
<path fill="#243da6" opacity="1.00" d=" M 98.00 70.29 C 99.20 70.29 100.40 70.36 101.59 70.48 C 102.83 71.96 104.02 73.53 105.75 74.47 C 106.15 74.73 106.95 75.24 107.35 75.49 C 107.04 76.79 106.74 78.09 106.52 79.41 C 103.16 80.26 99.76 80.94 96.33 81.40 C 96.44 81.86 96.65 82.78 96.76 83.24 C 93.33 83.14 89.91 83.32 86.48 83.14 C 89.75 81.42 93.60 80.16 95.52 76.75 C 94.14 76.07 92.86 75.24 91.60 74.37 C 94.71 74.27 98.34 75.61 100.80 73.01 C 99.56 72.73 98.33 72.43 97.10 72.12 C 98.04 72.06 99.91 71.95 100.84 71.90 C 100.36 70.80 99.42 70.26 98.00 70.29 Z" />
<path fill="#3b6cce" opacity="1.00" d=" M 10.13 80.56 C 12.66 78.24 13.99 74.94 16.16 72.31 C 17.03 73.34 19.08 74.26 18.21 75.94 C 17.56 78.65 16.11 81.07 14.76 83.49 C 12.70 82.38 10.65 81.24 8.38 80.62 C 8.82 80.61 9.69 80.58 10.13 80.56 Z" />
<path fill="#62b8ff" opacity="1.00" d=" M 109.05 74.57 C 109.74 74.36 111.11 73.93 111.79 73.72 C 114.12 75.30 117.17 75.82 119.13 77.91 C 118.29 78.26 117.44 78.59 116.59 78.91 C 115.40 76.91 113.46 75.75 111.18 75.40 C 110.47 75.13 109.76 74.85 109.05 74.57 Z" />
<path fill="#85fbff" opacity="1.00" d=" M 27.31 81.24 C 30.23 79.64 30.90 75.73 34.14 74.52 C 34.21 75.06 34.33 76.16 34.40 76.70 C 34.58 76.41 34.94 75.84 35.12 75.55 C 37.60 75.35 38.49 78.23 39.88 79.71 L 38.48 80.19 C 36.81 79.97 35.09 78.86 33.43 79.32 C 31.29 82.54 28.48 85.18 25.06 87.01 C 23.40 86.56 21.75 86.09 20.10 85.62 C 20.32 85.21 20.77 84.40 20.99 83.99 C 21.69 83.30 22.40 82.61 23.11 81.93 C 24.50 81.71 26.02 81.92 27.31 81.24 Z" />
<path fill="#223aa3" opacity="1.00" d=" M 66.33 79.81 C 70.74 76.70 76.13 75.42 81.44 75.12 C 79.79 76.68 77.81 77.79 75.75 78.70 C 74.20 79.44 72.65 80.19 71.09 80.92 C 68.74 81.54 66.39 82.19 64.10 83.01 C 64.79 81.91 65.54 80.84 66.33 79.81 Z" />
<path fill="#3c6fd1" opacity="1.00" d=" M 107.35 75.49 C 108.63 75.50 109.90 75.43 111.18 75.40 C 113.46 75.75 115.40 76.91 116.59 78.91 C 113.26 80.05 108.97 79.28 106.36 82.03 C 106.61 82.70 107.10 84.06 107.35 84.74 C 102.43 85.67 97.45 87.12 92.40 86.45 C 94.45 84.26 97.44 83.96 100.21 83.41 C 99.35 83.37 97.62 83.28 96.76 83.24 C 96.65 82.78 96.44 81.86 96.33 81.40 C 99.76 80.94 103.16 80.26 106.52 79.41 C 106.74 78.09 107.04 76.79 107.35 75.49 Z" />
<path fill="#5aa8ff" opacity="1.00" d=" M 48.02 76.65 C 52.16 77.52 56.31 78.37 60.46 79.20 C 57.62 80.28 54.69 81.10 51.74 81.86 C 51.67 82.59 51.52 84.06 51.44 84.79 C 50.15 84.64 48.85 84.52 47.57 84.30 C 50.86 82.95 48.51 79.14 48.02 76.65 Z" />
<path fill="#5498f8" opacity="1.00" d=" M 91.40 77.90 C 92.66 77.17 94.08 76.90 95.52 76.75 C 93.60 80.16 89.75 81.42 86.48 83.14 C 85.66 83.25 84.03 83.47 83.21 83.58 C 84.83 81.71 86.91 80.40 89.05 79.22 C 89.64 78.89 90.81 78.23 91.40 77.90 Z" />
<path fill="#3969cb" opacity="1.00" d=" M 78.00 79.58 C 78.94 79.20 79.90 78.86 80.85 78.53 C 83.59 78.77 86.30 79.21 89.05 79.22 C 86.91 80.40 84.83 81.71 83.21 83.58 C 78.17 83.82 73.26 85.14 68.54 86.86 C 70.62 83.26 74.22 81.05 78.00 79.58 Z" />
<path fill="#57a6ff" opacity="1.00" d=" M 33.43 79.32 C 35.09 78.86 36.81 79.97 38.48 80.19 L 38.72 80.25 C 31.45 83.33 25.70 88.86 19.71 93.77 C 19.26 91.49 18.68 89.25 18.01 87.03 C 19.64 86.97 21.27 87.09 22.02 88.79 C 23.02 88.17 24.05 87.62 25.06 87.01 C 28.48 85.18 31.29 82.54 33.43 79.32 Z" />
<path fill="#2b4bb2" opacity="1.00" d=" M 60.46 79.20 L 61.44 78.84 C 61.95 78.97 62.97 79.24 63.49 79.37 C 61.60 82.43 60.11 85.84 57.52 88.39 C 52.95 89.97 48.11 90.71 43.29 91.06 C 43.60 88.52 43.97 85.99 44.32 83.46 C 45.39 83.77 46.47 84.07 47.57 84.30 C 48.85 84.52 50.15 84.64 51.44 84.79 C 51.52 84.06 51.67 82.59 51.74 81.86 C 54.69 81.10 57.62 80.28 60.46 79.20 Z" />
<path fill="#4175df" opacity="1.00" d=" M 63.49 79.37 C 64.43 79.53 65.38 79.67 66.33 79.81 C 65.54 80.84 64.79 81.91 64.10 83.01 C 62.65 85.47 61.30 88.09 59.05 89.93 C 57.43 91.48 54.99 91.10 52.95 91.51 C 53.59 92.16 54.23 92.82 54.86 93.47 C 44.60 97.51 34.03 101.23 22.95 101.99 C 21.62 101.73 20.60 100.76 19.47 100.09 C 21.19 95.38 24.86 91.77 28.69 88.71 C 32.52 85.77 36.47 82.88 41.01 81.14 C 42.12 81.90 43.21 82.69 44.32 83.46 C 43.97 85.99 43.60 88.52 43.29 91.06 C 48.11 90.71 52.95 89.97 57.52 88.39 C 60.11 85.84 61.60 82.43 63.49 79.37 M 29.87 91.04 C 26.26 93.28 21.86 95.72 20.89 100.23 C 24.26 100.30 27.10 98.04 30.25 97.11 C 34.05 96.04 36.88 93.20 40.13 91.12 C 42.02 90.07 41.66 87.68 41.90 85.89 C 37.62 86.91 34.00 89.57 29.87 91.04 Z" />
<path fill="#62b8ff" opacity="1.00" d=" M 71.09 80.92 C 72.65 80.19 74.20 79.44 75.75 78.70 C 76.31 78.92 77.44 79.36 78.00 79.58 C 74.22 81.05 70.62 83.26 68.54 86.86 C 67.10 88.47 65.81 90.68 67.35 92.72 C 64.31 94.60 61.04 96.47 57.31 95.89 C 57.93 95.41 59.17 94.46 59.79 93.98 C 61.22 93.42 62.70 92.93 64.01 92.12 C 65.98 88.15 67.95 84.12 71.09 80.92 Z" />
<path fill="#3c6bd3" opacity="1.00" d=" M 64.10 83.01 C 66.39 82.19 68.74 81.54 71.09 80.92 C 67.95 84.12 65.98 88.15 64.01 92.12 C 62.70 92.93 61.22 93.42 59.79 93.98 C 59.38 93.59 58.55 92.81 58.14 92.42 C 57.32 92.68 55.68 93.21 54.86 93.47 C 54.23 92.82 53.59 92.16 52.95 91.51 C 54.99 91.10 57.43 91.48 59.05 89.93 C 61.30 88.09 62.65 85.47 64.10 83.01 Z" />
<path fill="#2a4ab1" opacity="1.00" d=" M 107.35 84.74 C 107.71 84.78 108.44 84.87 108.80 84.92 L 108.71 85.33 C 108.05 87.22 108.22 90.16 105.78 90.74 C 101.33 92.25 96.54 91.44 91.96 91.12 C 91.73 89.93 91.52 88.75 91.33 87.56 C 91.51 87.27 91.88 86.70 92.07 86.42 L 92.40 86.45 C 97.45 87.12 102.43 85.67 107.35 84.74 Z" />
<path fill="#2a49b0" opacity="1.00" d=" M 29.87 91.04 C 34.00 89.57 37.62 86.91 41.90 85.89 C 41.66 87.68 42.02 90.07 40.13 91.12 C 36.88 93.20 34.05 96.04 30.25 97.11 C 27.10 98.04 24.26 100.30 20.89 100.23 C 21.86 95.72 26.26 93.28 29.87 91.04 Z" />
<path fill="#5098f8" opacity="1.00" d=" M 105.78 90.74 C 108.22 90.16 108.05 87.22 108.71 85.33 C 109.76 86.30 110.91 87.19 111.82 88.30 C 112.35 90.08 110.23 90.98 108.97 91.62 C 103.47 93.82 96.92 94.91 91.28 92.73 C 88.62 92.00 89.86 88.86 91.33 87.56 C 91.52 88.75 91.73 89.93 91.96 91.12 C 96.54 91.44 101.33 92.25 105.78 90.74 Z" />
<path fill="#4e8ff7" opacity="1.00" d=" M 57.31 95.89 C 61.04 96.47 64.31 94.60 67.35 92.72 C 68.00 93.25 68.64 93.78 69.29 94.31 C 68.02 94.85 66.82 95.50 65.68 96.27 C 64.28 97.90 62.82 99.47 61.32 101.00 C 61.00 102.46 60.67 103.92 60.37 105.39 C 60.37 103.50 60.30 101.61 60.24 99.72 C 56.55 101.24 52.18 102.32 49.80 105.80 C 48.88 107.00 47.96 108.22 47.15 109.51 C 47.43 107.22 47.88 104.95 48.41 102.70 L 48.47 102.43 C 51.43 100.26 54.33 98.02 57.31 95.89 Z" />
<path fill="#7feafe" opacity="1.00" d=" M 65.68 96.27 C 66.82 95.50 68.02 94.85 69.29 94.31 C 69.78 94.68 70.74 95.42 71.23 95.79 L 71.49 96.81 C 69.68 97.09 67.87 97.39 66.05 97.60 C 65.96 97.27 65.77 96.60 65.68 96.27 Z" />
<path fill="#72cdff" opacity="1.00" d=" M 61.32 101.00 C 62.82 99.47 64.28 97.90 65.68 96.27 C 65.77 96.60 65.96 97.27 66.05 97.60 C 67.87 97.39 69.68 97.09 71.49 96.81 C 72.73 101.93 67.48 104.39 64.39 107.26 C 62.97 107.03 61.56 106.70 60.16 106.37 L 60.37 105.39 C 60.67 103.92 61.00 102.46 61.32 101.00 Z" />
<path fill="#1c2c97" opacity="1.00" d=" M 71.23 95.79 C 75.11 97.55 78.77 99.74 82.68 101.43 L 82.64 101.62 C 82.03 104.61 81.65 107.85 79.38 110.11 C 78.68 108.84 77.95 107.59 77.26 106.32 C 75.68 106.80 74.09 107.25 72.47 107.53 C 69.78 107.48 67.08 107.38 64.39 107.26 C 67.48 104.39 72.73 101.93 71.49 96.81 L 71.23 95.79 Z" />
<path fill="#3e6cdb" opacity="1.00" d=" M 49.80 105.80 C 52.18 102.32 56.55 101.24 60.24 99.72 C 60.30 101.61 60.37 103.50 60.37 105.39 L 60.16 106.37 C 57.36 107.42 54.64 108.70 52.05 110.20 C 51.96 110.68 51.78 111.64 51.69 112.12 C 51.46 111.62 51.01 110.64 50.79 110.14 C 49.42 110.19 48.06 110.24 46.69 110.29 L 47.15 109.51 C 47.96 108.22 48.88 107.00 49.80 105.80 Z" />
<path fill="#3056bb" opacity="1.00" d=" M 79.38 110.11 C 81.65 107.85 82.03 104.61 82.64 101.62 C 85.14 103.28 89.03 105.15 88.71 108.68 C 86.44 112.43 81.89 114.11 77.96 115.61 C 78.24 114.18 78.53 112.76 78.81 111.33 C 75.00 113.26 70.98 114.73 66.99 116.22 C 66.96 112.43 70.98 110.67 72.47 107.53 C 74.09 107.25 75.68 106.80 77.26 106.32 C 77.95 107.59 78.68 108.84 79.38 110.11 Z" />
<path fill="#72cdff" opacity="1.00" d=" M 43.18 107.70 C 44.85 105.96 46.58 104.27 48.41 102.70 C 47.88 104.95 47.43 107.22 47.15 109.51 C 45.83 108.90 44.51 108.29 43.18 107.70 Z" />
<path fill="#67baff" opacity="1.00" d=" M 52.05 110.20 C 54.64 108.70 57.36 107.42 60.16 106.37 C 61.56 106.70 62.97 107.03 64.39 107.26 C 67.08 107.38 69.78 107.48 72.47 107.53 C 70.98 110.67 66.96 112.43 66.99 116.22 C 66.93 116.78 66.83 117.91 66.78 118.47 C 61.18 119.38 53.80 118.21 51.69 112.12 C 51.78 111.64 51.96 110.68 52.05 110.20 Z" />
<path fill="#57a6ff" opacity="1.00" d=" M 43.18 107.70 C 44.51 108.29 45.83 108.90 47.15 109.51 L 46.69 110.29 C 46.46 114.37 48.64 117.91 51.23 120.86 C 47.32 120.57 42.88 120.89 39.59 118.35 C 37.00 114.62 40.99 110.57 43.18 107.70 Z" />
<path fill="#243ca5" opacity="1.00" d=" M 46.69 110.29 C 48.06 110.24 49.42 110.19 50.79 110.14 C 51.01 110.64 51.46 111.62 51.69 112.12 C 53.80 118.21 61.18 119.38 66.78 118.47 C 67.60 118.37 69.24 118.17 70.07 118.07 C 63.91 119.61 57.58 120.64 51.23 120.86 C 48.64 117.91 46.46 114.37 46.69 110.29 Z" />
<path fill="#3d6ed7" opacity="1.00" d=" M 66.99 116.22 C 70.98 114.73 75.00 113.26 78.81 111.33 C 78.53 112.76 78.24 114.18 77.96 115.61 C 75.38 116.59 72.77 117.51 70.07 118.07 C 69.24 118.17 67.60 118.37 66.78 118.47 C 66.83 117.91 66.93 116.78 66.99 116.22 Z" />
<path fill="#000000" opacity="1.00" d=" M 84.53 142.91 C 93.33 142.30 102.18 141.61 111.00 142.19 C 112.78 142.23 115.56 142.71 115.61 144.99 C 115.72 147.25 113.01 147.92 111.30 148.39 C 102.27 150.30 93.06 151.15 83.91 152.24 C 73.33 153.20 62.70 154.32 52.06 153.73 C 50.42 153.57 47.88 153.07 48.02 150.91 C 48.02 148.82 50.44 148.41 51.98 147.87 C 62.62 145.10 73.62 144.09 84.53 142.91 Z" />
</svg>
