<?xml version="1.0" encoding="UTF-8" ?>
<!DOCTYPE svg PUBLIC "-//W3C//DTD SVG 1.1//EN" "http://www.w3.org/Graphics/SVG/1.1/DTD/svg11.dtd">
<svg width="178pt" height="196pt" viewBox="0 0 178 196" version="1.1" xmlns="http://www.w3.org/2000/svg">
<path fill="#000000" opacity="1.00" d=" M 95.47 5.69 C 99.64 1.84 105.54 0.73 111.01 0.29 C 119.95 -0.21 128.76 4.92 132.75 12.92 C 141.51 4.46 156.44 2.09 166.64 9.32 C 171.54 12.60 174.68 19.04 172.54 24.84 C 170.95 29.76 166.46 32.78 162.15 35.16 C 162.12 35.78 162.06 37.03 162.02 37.65 C 166.78 37.81 172.26 37.55 176.07 40.91 C 178.29 42.84 178.22 46.21 176.56 48.46 C 174.61 51.15 174.64 54.63 172.82 57.37 C 172.95 58.07 173.22 59.46 173.35 60.16 C 171.82 61.97 170.01 63.51 168.06 64.84 C 169.43 71.88 166.43 79.41 160.52 83.47 C 156.05 86.83 150.37 87.34 144.98 87.45 C 142.15 89.83 139.06 91.89 135.42 92.79 C 136.87 97.75 138.40 102.73 138.77 107.91 C 138.97 110.48 139.33 113.46 137.24 115.41 C 133.05 120.25 128.90 125.13 124.42 129.71 C 125.32 133.10 125.39 136.62 125.24 140.11 C 123.76 140.52 122.27 140.92 120.79 141.31 C 119.14 150.63 120.52 160.30 118.09 169.48 C 116.30 167.40 115.40 164.75 115.65 162.01 C 116.00 155.81 116.28 149.60 116.06 143.39 C 115.04 142.63 114.03 141.86 113.01 141.09 C 113.34 140.50 113.98 139.32 114.30 138.73 C 112.98 138.75 111.67 138.76 110.36 138.77 C 109.85 144.97 110.77 151.92 106.99 157.29 C 105.02 148.70 105.01 139.85 104.50 131.10 C 104.45 128.59 102.83 126.55 101.58 124.51 C 99.41 121.30 97.50 117.92 95.92 114.38 C 93.59 115.94 91.15 117.35 89.02 119.17 C 90.10 122.37 93.40 126.19 90.26 129.28 C 86.44 131.58 81.66 131.22 77.47 132.47 C 77.41 139.94 82.23 146.11 83.01 153.37 C 78.40 151.55 74.71 148.12 70.90 145.07 C 65.03 140.21 60.38 132.43 62.53 124.60 C 60.93 125.11 59.33 125.60 57.74 126.09 C 57.37 127.85 57.33 129.76 56.38 131.34 C 54.21 132.59 51.81 131.51 49.76 130.61 C 46.74 133.76 43.56 137.34 39.05 138.18 C 35.45 138.79 31.14 138.35 28.67 135.35 C 25.31 131.27 23.62 126.12 22.92 120.94 C 22.67 118.11 19.27 117.92 17.39 116.53 C 16.22 114.42 15.64 112.04 14.69 109.84 C 15.18 108.80 15.68 107.77 16.17 106.73 C 13.36 105.58 10.19 105.07 7.68 103.28 C 5.74 100.90 6.92 97.60 7.31 94.89 C 9.24 86.96 9.50 78.53 7.34 70.62 C 5.86 65.33 2.62 60.83 0.00 56.07 L 0.00 52.90 C 8.38 55.36 15.73 62.90 15.96 71.95 C 16.79 79.37 14.02 86.61 14.53 93.99 C 16.05 99.97 24.53 99.61 26.53 105.41 C 28.80 111.63 30.62 118.69 36.36 122.72 C 39.24 124.87 42.77 123.00 45.44 121.46 C 49.94 118.74 54.88 116.31 58.15 112.06 C 59.97 109.88 60.20 106.96 60.61 104.27 C 56.34 103.82 51.84 103.91 47.84 102.14 C 45.54 98.97 46.36 94.68 45.71 90.99 C 44.44 81.91 44.56 72.64 46.53 63.67 C 49.97 63.26 53.41 62.85 56.88 62.69 C 57.78 61.35 58.70 60.02 59.63 58.70 C 57.48 53.62 55.45 48.42 54.45 42.98 C 54.02 37.60 58.21 33.22 62.62 30.80 C 62.94 29.77 63.27 28.74 63.60 27.71 C 65.64 26.74 67.66 25.70 69.69 24.69 C 69.73 21.08 69.74 17.13 72.14 14.18 C 73.61 11.90 76.95 11.44 79.11 12.98 C 82.22 15.11 83.72 18.72 85.36 21.97 C 86.45 21.50 87.53 21.04 88.61 20.58 C 89.16 15.03 91.47 9.62 95.47 5.69 M 104.96 3.39 C 104.46 3.55 103.45 3.88 102.95 4.04 C 98.57 5.25 94.93 8.37 93.12 12.54 C 91.48 15.05 90.91 17.99 90.45 20.89 C 90.56 22.00 89.46 22.09 88.71 22.32 C 87.29 23.28 86.25 24.65 85.23 25.99 C 82.78 22.30 81.74 17.65 78.28 14.69 C 76.26 13.13 73.40 14.35 72.72 16.70 C 71.33 19.68 71.47 23.00 71.31 26.20 C 69.74 26.71 67.31 26.48 67.13 28.84 C 66.26 28.72 65.39 28.64 64.52 28.59 C 64.54 29.35 64.58 30.88 64.60 31.65 C 61.05 33.66 58.16 36.58 56.20 40.16 C 56.15 45.60 58.23 50.75 60.15 55.75 C 60.77 56.73 60.97 58.35 62.23 58.69 C 60.99 60.05 59.74 61.41 58.52 62.79 C 62.22 64.20 64.86 67.17 67.43 70.05 C 68.72 71.66 70.01 73.28 71.27 74.92 C 73.79 71.38 77.27 68.65 81.56 67.67 C 81.40 66.49 81.23 65.32 81.07 64.15 C 79.42 62.72 77.83 61.23 76.27 59.71 C 72.93 58.86 68.96 58.07 67.20 54.74 C 64.98 51.22 66.04 46.99 66.72 43.19 C 66.96 42.57 67.46 41.35 67.71 40.73 C 68.08 40.48 68.82 39.99 69.19 39.74 C 68.28 44.56 65.81 50.30 69.22 54.67 C 73.77 58.95 80.59 58.05 86.07 56.38 C 88.01 55.83 90.48 53.61 91.86 56.30 L 90.86 57.30 C 92.71 57.66 94.57 57.94 96.43 58.20 C 94.95 59.79 92.82 59.71 90.84 59.54 C 90.47 58.97 89.74 57.83 89.37 57.26 C 87.73 57.78 86.10 58.30 84.46 58.81 C 84.69 60.27 84.93 61.73 85.18 63.19 C 84.41 64.40 83.64 65.61 82.88 66.82 C 84.97 66.95 87.29 67.40 89.09 66.02 C 90.62 65.18 93.07 63.25 94.32 65.52 C 95.24 68.72 96.36 72.65 99.75 74.03 C 100.70 72.91 101.25 71.52 101.90 70.22 C 97.65 66.29 99.91 60.45 101.90 55.99 C 103.70 53.94 105.60 51.75 108.36 51.07 C 105.13 53.66 102.37 56.91 101.34 61.02 C 100.89 63.26 100.31 66.00 102.15 67.78 C 103.66 68.87 105.41 69.51 107.09 70.29 C 106.16 72.74 104.56 75.09 104.43 77.75 C 104.95 80.77 109.15 79.48 110.32 82.07 C 110.85 82.13 111.93 82.25 112.46 82.31 C 112.67 85.33 112.25 88.59 113.63 91.38 C 116.26 94.90 121.42 95.97 125.43 94.43 C 127.83 93.32 129.94 91.68 132.12 90.21 C 132.58 90.55 133.50 91.25 133.96 91.59 C 136.39 89.87 139.12 88.72 142.00 88.03 C 143.26 86.92 142.29 85.16 142.30 83.79 C 150.16 86.57 159.92 83.44 164.01 76.01 C 166.27 72.31 166.19 67.83 165.90 63.66 C 167.76 62.32 169.59 60.96 171.35 59.49 C 170.66 58.43 169.97 57.36 169.28 56.30 C 170.58 55.52 171.89 54.75 173.20 53.98 C 172.75 53.00 172.31 52.01 171.87 51.02 C 172.61 50.38 173.36 49.75 174.11 49.12 C 175.22 47.13 176.95 44.20 174.75 42.29 C 171.95 40.08 167.83 39.26 164.45 39.91 C 161.97 39.90 158.63 39.49 159.81 36.05 C 158.45 36.07 157.04 36.19 155.77 35.61 C 160.00 33.42 164.55 31.65 168.01 28.25 C 168.79 27.00 169.58 25.75 170.38 24.52 C 171.98 18.90 169.13 13.26 164.28 10.35 C 159.67 7.88 154.33 6.85 149.12 7.37 C 145.34 8.19 141.54 9.16 138.16 11.11 C 135.88 12.51 132.59 13.76 133.14 17.09 C 130.22 12.08 126.50 7.19 121.14 4.64 C 116.14 2.09 110.32 2.49 104.96 3.39 M 1.86 55.14 C 2.86 57.32 4.13 59.35 5.52 61.31 L 5.76 61.39 C 7.67 65.74 9.83 70.08 10.37 74.87 C 11.50 81.28 10.60 87.76 10.19 94.18 C 8.96 96.51 7.64 100.05 9.66 102.26 C 12.09 103.22 14.63 103.89 17.06 104.86 C 17.42 105.42 18.13 106.54 18.49 107.09 C 17.96 107.98 17.44 108.86 16.91 109.74 C 17.28 110.17 18.03 111.03 18.40 111.46 C 18.44 112.68 18.48 113.90 18.52 115.12 C 20.11 115.62 21.70 116.13 23.29 116.65 C 24.09 118.35 24.96 120.02 25.95 121.62 C 25.04 126.18 27.47 130.41 30.21 133.85 C 32.47 136.36 36.11 136.42 39.23 136.07 L 39.38 135.72 C 42.99 134.48 45.86 131.86 48.13 128.87 C 48.60 128.73 49.56 128.44 50.03 128.29 C 51.57 129.41 53.32 130.16 55.22 130.39 C 55.41 128.58 55.58 126.76 55.76 124.95 C 58.68 123.99 61.83 123.27 64.17 121.14 C 67.35 118.77 68.74 114.91 71.35 112.03 C 68.37 110.19 65.21 108.64 62.35 106.60 C 61.97 112.42 57.53 116.69 52.76 119.43 C 50.09 121.08 47.41 122.70 44.69 124.25 C 43.08 124.85 41.47 125.45 39.87 126.09 C 37.97 125.42 35.78 125.24 34.26 123.77 C 29.09 119.31 26.51 112.79 24.80 106.35 C 23.49 104.08 21.38 102.53 19.04 101.45 C 16.37 100.25 14.34 98.15 12.34 96.09 C 11.45 85.18 17.07 73.49 11.10 63.28 C 8.51 60.05 5.25 57.48 1.86 55.14 M 77.81 59.56 C 79.33 61.22 81.12 62.61 83.20 63.51 C 83.07 62.02 82.93 60.55 82.79 59.07 C 81.12 59.22 79.46 59.38 77.81 59.56 M 48.21 65.78 C 46.79 75.67 47.25 85.72 48.39 95.62 C 48.67 97.31 48.96 98.99 49.25 100.68 C 53.19 101.50 57.18 102.01 61.19 102.34 C 63.99 97.42 68.06 93.39 72.62 90.09 C 71.75 89.30 70.89 88.52 70.02 87.74 C 69.95 86.49 69.89 85.24 69.84 83.98 C 70.04 81.70 70.17 79.40 69.99 77.11 C 68.82 74.56 66.77 72.57 64.87 70.56 C 63.48 68.81 62.05 67.09 60.62 65.37 C 56.48 65.02 52.28 64.68 48.21 65.78 M 90.53 67.37 C 90.52 69.60 90.44 71.83 90.21 74.05 C 89.65 75.58 89.44 77.21 89.30 78.83 C 86.19 82.03 82.34 86.33 77.35 84.75 C 77.25 84.59 77.05 84.28 76.95 84.13 C 76.43 83.84 75.39 83.27 74.87 82.99 C 71.76 82.77 71.44 86.50 71.95 88.73 L 73.24 88.13 C 73.73 89.16 74.22 90.19 74.71 91.21 C 73.62 92.02 72.52 92.83 71.43 93.63 C 70.72 94.37 70.02 95.10 69.32 95.84 C 67.28 97.05 65.85 98.98 64.66 100.97 L 64.16 101.12 C 64.30 102.47 64.44 103.81 64.58 105.16 C 66.54 106.44 68.43 107.90 70.64 108.74 C 71.52 109.86 72.40 110.99 73.28 112.11 C 72.82 113.02 72.35 113.92 71.87 114.81 C 70.54 115.71 69.77 117.04 69.34 118.56 C 65.91 121.59 63.43 126.10 64.24 130.79 C 65.48 137.62 70.67 142.85 76.16 146.65 C 77.63 148.17 79.55 149.15 81.29 150.30 C 78.84 144.38 75.08 138.21 76.48 131.56 C 78.36 129.92 81.08 129.91 83.37 129.20 L 83.88 129.68 C 85.99 128.83 89.87 129.16 89.94 126.04 C 89.41 123.37 86.94 121.21 87.34 118.37 C 92.25 113.98 98.62 111.08 102.51 105.59 C 102.44 103.28 101.51 100.46 104.48 99.64 C 104.06 102.40 105.30 105.83 103.05 108.00 C 101.33 109.98 99.28 111.64 97.28 113.33 C 102.17 121.36 107.35 129.22 112.43 137.14 C 114.68 135.61 116.75 133.85 118.66 131.92 C 118.06 130.93 117.47 129.94 116.87 128.96 C 118.42 121.82 119.82 114.56 119.66 107.22 C 119.67 104.85 119.84 102.49 120.01 100.14 C 119.21 99.14 118.55 98.04 118.05 96.86 C 116.59 96.16 115.12 95.49 113.65 94.83 C 110.72 91.87 110.43 87.68 110.51 83.76 C 110.20 83.92 109.56 84.24 109.25 84.40 C 108.90 83.89 108.21 82.87 107.87 82.37 C 106.33 81.81 104.84 81.15 103.43 80.32 C 102.35 80.30 101.28 80.29 100.21 80.28 C 100.23 80.63 100.26 81.31 100.28 81.66 C 99.71 85.32 97.98 88.63 95.89 91.63 C 95.69 88.68 95.59 85.71 95.41 82.76 C 94.75 82.65 93.43 82.44 92.78 82.34 C 92.37 81.03 91.98 79.72 91.52 78.43 L 90.98 77.93 L 90.47 77.30 C 91.07 73.89 91.92 70.52 92.93 67.21 C 92.33 67.25 91.13 67.33 90.53 67.37 M 75.02 73.97 C 72.99 75.97 72.42 78.84 71.81 81.50 C 73.32 81.43 74.82 81.36 76.33 81.27 C 76.93 81.90 78.14 83.18 78.74 83.81 C 84.17 83.19 88.58 78.33 88.48 72.81 C 88.49 71.50 88.51 70.20 88.53 68.90 C 83.79 69.55 78.30 70.01 75.02 73.97 M 93.23 80.01 C 94.79 80.80 96.37 81.55 97.97 82.26 C 97.75 79.84 97.33 77.44 96.67 75.11 C 95.94 73.90 95.21 72.69 94.48 71.49 C 92.37 73.82 93.02 77.17 93.23 80.01 M 101.35 75.37 C 100.81 75.63 99.74 76.14 99.20 76.40 C 99.55 77.14 99.90 77.87 100.25 78.61 C 100.81 78.61 101.93 78.61 102.50 78.61 C 102.96 76.13 103.52 73.67 104.08 71.21 C 102.95 72.44 102.07 73.87 101.35 75.37 M 126.66 99.87 C 126.41 106.63 124.91 113.25 124.16 119.96 C 123.99 123.12 122.15 125.82 121.67 128.91 C 124.41 126.75 126.76 124.15 128.93 121.43 C 131.46 118.49 134.35 115.82 136.53 112.60 C 137.43 105.69 134.67 99.02 133.13 92.39 C 130.26 94.13 125.96 95.69 126.66 99.87 M 121.40 97.20 C 122.49 102.80 120.56 108.50 121.25 114.17 C 120.84 117.40 120.78 120.69 119.99 123.87 C 118.84 128.11 120.81 132.93 117.73 136.64 C 117.45 136.61 116.89 136.56 116.62 136.53 C 116.49 137.22 116.23 138.59 116.10 139.27 C 115.92 139.63 115.55 140.37 115.36 140.73 C 115.90 141.06 116.96 141.71 117.49 142.04 C 117.82 149.70 117.67 157.36 117.42 165.02 C 118.38 156.51 117.85 147.92 119.25 139.46 C 121.05 139.90 122.37 138.82 122.94 137.17 C 122.95 134.18 122.98 130.95 120.44 128.88 C 120.23 126.02 122.08 123.65 122.48 120.92 C 122.78 118.94 123.02 116.96 123.23 114.97 C 124.25 109.04 125.23 103.09 125.41 97.07 C 124.07 97.11 122.74 97.16 121.40 97.20 M 106.34 132.69 C 106.54 139.21 107.18 145.71 107.47 152.23 C 108.42 146.90 108.84 141.45 108.50 136.04 C 108.58 134.55 107.18 133.70 106.34 132.69 Z" />
<path fill="#a2d278" opacity="1.00" d=" M 104.96 3.39 C 110.32 2.49 116.14 2.09 121.14 4.64 C 126.50 7.19 130.22 12.08 133.14 17.09 C 132.59 13.76 135.88 12.51 138.16 11.11 C 141.54 9.16 145.34 8.19 149.12 7.37 C 151.82 8.86 154.79 9.90 157.27 11.76 C 159.40 13.96 159.76 17.19 160.44 20.04 C 160.69 26.69 155.02 32.03 149.56 34.98 C 149.27 35.16 148.69 35.52 148.40 35.71 C 147.75 37.95 147.28 40.25 146.76 42.52 C 145.85 43.42 144.94 44.33 144.06 45.25 C 142.59 46.84 141.17 48.48 139.78 50.15 C 139.33 47.37 140.31 44.73 141.40 42.24 C 139.79 40.26 138.31 38.18 136.74 36.18 C 136.52 36.03 136.10 35.75 135.89 35.61 C 134.08 34.49 132.29 33.35 130.56 32.14 L 130.53 30.24 C 130.45 27.52 130.48 24.79 130.62 22.07 C 128.68 27.03 125.55 31.89 120.31 33.77 C 114.63 33.61 108.97 34.70 103.31 34.04 C 95.74 30.02 91.95 20.83 93.12 12.54 C 94.93 8.37 98.57 5.25 102.95 4.04 C 101.47 5.49 99.21 7.79 101.02 9.87 C 104.33 13.01 111.00 10.58 111.48 5.99 C 110.53 3.20 107.30 3.64 104.96 3.39 M 97.08 13.38 C 95.43 16.31 100.41 13.63 97.08 13.38 M 135.03 30.64 C 133.70 32.51 138.04 34.18 138.68 32.39 C 137.96 31.28 136.39 30.03 135.03 30.64 Z" />
<path fill="#fff6ab" opacity="1.00" d=" M 102.95 4.04 C 103.45 3.88 104.46 3.55 104.96 3.39 C 107.30 3.64 110.53 3.20 111.48 5.99 C 111.00 10.58 104.33 13.01 101.02 9.87 C 99.21 7.79 101.47 5.49 102.95 4.04 Z" />
<path fill="#376264" opacity="1.00" d=" M 149.12 7.37 C 154.33 6.85 159.67 7.88 164.28 10.35 C 163.51 13.78 163.19 17.29 163.13 20.81 C 164.87 21.03 166.61 21.25 168.35 21.47 C 169.03 22.48 169.70 23.50 170.38 24.52 C 169.58 25.75 168.79 27.00 168.01 28.25 C 165.64 25.37 163.10 22.65 160.44 20.04 C 159.76 17.19 159.40 13.96 157.27 11.76 C 154.79 9.90 151.82 8.86 149.12 7.37 Z" />
<path fill="#4f7b69" opacity="1.00" d=" M 164.28 10.35 C 169.13 13.26 171.98 18.90 170.38 24.52 C 169.70 23.50 169.03 22.48 168.35 21.47 C 166.61 21.25 164.87 21.03 163.13 20.81 C 163.19 17.29 163.51 13.78 164.28 10.35 Z" />
<path fill="#4e8369" opacity="1.00" d=" M 90.45 20.89 C 90.91 17.99 91.48 15.05 93.12 12.54 C 91.95 20.83 95.74 30.02 103.31 34.04 C 103.35 36.52 104.18 38.69 106.74 39.43 L 107.33 40.65 C 104.31 40.00 101.16 39.39 98.62 37.50 C 98.10 37.11 97.59 36.71 97.08 36.31 C 95.85 35.00 94.22 34.33 92.47 34.06 C 88.72 33.86 87.86 30.29 87.82 27.17 C 88.34 25.60 88.65 23.97 88.71 22.32 C 89.46 22.09 90.56 22.00 90.45 20.89 Z" />
<path fill="#eaed9f" opacity="1.00" d=" M 97.08 13.38 C 100.41 13.63 95.43 16.31 97.08 13.38 Z" />
<path fill="#9fcf76" opacity="1.00" d=" M 72.72 16.70 C 73.40 14.35 76.26 13.13 78.28 14.69 C 81.74 17.65 82.78 22.30 85.23 25.99 C 86.25 24.65 87.29 23.28 88.71 22.32 C 88.65 23.97 88.34 25.60 87.82 27.17 C 86.44 27.29 85.05 27.43 83.67 27.58 C 82.99 28.90 82.40 30.28 81.53 31.50 C 80.49 32.19 79.16 31.33 78.01 31.33 C 77.39 29.94 76.81 28.53 76.22 27.12 C 75.60 27.30 74.36 27.65 73.74 27.83 C 72.03 24.37 72.61 20.41 72.72 16.70 Z" />
<path fill="#5aa35b" opacity="1.00" d=" M 71.31 26.20 C 71.47 23.00 71.33 19.68 72.72 16.70 C 72.61 20.41 72.03 24.37 73.74 27.83 C 74.71 29.60 75.86 31.28 76.56 33.19 C 75.81 35.57 74.04 37.44 72.64 39.45 C 72.65 38.97 72.66 38.00 72.66 37.52 C 72.38 35.33 73.11 32.34 70.86 31.02 C 69.72 30.13 68.44 29.44 67.13 28.84 C 67.31 26.48 69.74 26.71 71.31 26.20 Z" />
<path fill="#22565b" opacity="1.00" d=" M 160.44 20.04 C 163.10 22.65 165.64 25.37 168.01 28.25 C 164.55 31.65 160.00 33.42 155.77 35.61 C 157.04 36.19 158.45 36.07 159.81 36.05 C 158.63 39.49 161.97 39.90 164.45 39.91 C 163.58 40.62 162.73 41.34 161.89 42.08 C 160.39 41.89 158.89 41.70 157.39 41.51 C 156.84 42.84 156.29 44.17 155.74 45.49 C 153.68 47.73 152.00 50.31 151.60 53.40 C 152.61 54.22 153.63 55.03 154.60 55.91 C 154.66 56.44 154.78 57.50 154.83 58.03 C 152.65 59.10 150.47 60.17 148.28 61.23 C 148.80 59.99 149.31 58.76 149.82 57.52 C 146.69 57.35 143.73 58.42 140.89 59.61 L 140.34 58.98 C 140.45 58.18 140.58 57.38 140.71 56.59 C 138.73 57.64 136.54 58.06 134.33 57.52 C 136.19 55.09 137.95 52.60 139.78 50.15 C 141.17 48.48 142.59 46.84 144.06 45.25 C 146.61 43.92 150.08 42.95 150.94 39.84 C 150.95 38.13 150.08 36.58 149.56 34.98 C 155.02 32.03 160.69 26.69 160.44 20.04 Z" />
<path fill="#5b9c5e" opacity="1.00" d=" M 120.31 33.77 C 125.55 31.89 128.68 27.03 130.62 22.07 C 130.48 24.79 130.45 27.52 130.53 30.24 C 129.04 31.05 127.28 31.62 126.27 33.06 C 126.06 35.45 126.35 37.85 126.54 40.23 C 129.44 38.56 130.64 35.37 130.56 32.14 C 132.29 33.35 134.08 34.49 135.89 35.61 C 132.61 37.62 129.01 40.12 128.26 44.17 C 127.55 44.82 126.13 46.12 125.42 46.78 C 123.90 48.73 123.26 51.15 122.74 53.53 C 122.18 53.96 121.64 54.40 121.11 54.87 C 120.83 51.57 120.73 48.13 122.48 45.17 C 123.01 43.60 124.22 41.99 123.73 40.28 C 122.46 38.32 120.03 37.66 118.10 36.55 C 118.82 35.61 119.55 34.68 120.31 33.77 Z" />
<path fill="#82b874" opacity="1.00" d=" M 73.74 27.83 C 74.36 27.65 75.60 27.30 76.22 27.12 C 76.81 28.53 77.39 29.94 78.01 31.33 C 79.28 34.54 82.83 35.92 86.00 36.34 C 88.40 36.58 90.40 34.98 92.47 34.06 C 94.22 34.33 95.85 35.00 97.08 36.31 C 95.74 36.66 94.38 36.87 92.99 36.95 L 91.64 36.54 C 91.52 38.84 92.12 41.51 90.48 43.42 C 87.27 47.09 82.63 49.21 77.97 50.42 C 75.85 49.21 73.34 48.06 72.29 45.70 C 71.34 43.68 72.22 41.48 72.64 39.45 C 74.04 37.44 75.81 35.57 76.56 33.19 C 75.86 31.28 74.71 29.60 73.74 27.83 Z" />
<path fill="#649f71" opacity="1.00" d=" M 83.67 27.58 C 85.05 27.43 86.44 27.29 87.82 27.17 C 87.86 30.29 88.72 33.86 92.47 34.06 C 90.40 34.98 88.40 36.58 86.00 36.34 C 82.83 35.92 79.28 34.54 78.01 31.33 C 79.16 31.33 80.49 32.19 81.53 31.50 C 82.40 30.28 82.99 28.90 83.67 27.58 Z" />
<path fill="#37776a" opacity="1.00" d=" M 64.52 28.59 C 65.39 28.64 66.26 28.72 67.13 28.84 C 68.44 29.44 69.72 30.13 70.86 31.02 C 73.11 32.34 72.38 35.33 72.66 37.52 C 71.50 38.26 70.34 38.99 69.19 39.74 C 68.82 39.99 68.08 40.48 67.71 40.73 C 67.46 41.35 66.96 42.57 66.72 43.19 C 64.51 44.89 61.31 45.53 58.79 44.20 C 57.65 43.05 57.01 41.53 56.20 40.16 C 58.16 36.58 61.05 33.66 64.60 31.65 C 64.58 30.88 64.54 29.35 64.52 28.59 Z" />
<path fill="#2a5c5d" opacity="1.00" d=" M 126.27 33.06 C 127.28 31.62 129.04 31.05 130.53 30.24 L 130.56 32.14 C 130.64 35.37 129.44 38.56 126.54 40.23 C 126.35 37.85 126.06 35.45 126.27 33.06 Z" />
<path fill="#e1eb9c" opacity="1.00" d=" M 135.03 30.64 C 136.39 30.03 137.96 31.28 138.68 32.39 C 138.04 34.18 133.70 32.51 135.03 30.64 Z" />
<path fill="#7cac70" opacity="1.00" d=" M 103.31 34.04 C 108.97 34.70 114.63 33.61 120.31 33.77 C 119.55 34.68 118.82 35.61 118.10 36.55 C 120.03 37.66 122.46 38.32 123.73 40.28 C 124.22 41.99 123.01 43.60 122.48 45.17 C 121.89 43.53 121.31 41.88 120.73 40.24 C 119.78 40.41 118.82 40.58 117.88 40.78 C 114.84 37.82 110.43 37.60 106.74 39.43 C 104.18 38.69 103.35 36.52 103.31 34.04 Z" />
<path fill="#92c575" opacity="1.00" d=" M 135.89 35.61 C 136.10 35.75 136.52 36.03 136.74 36.18 C 138.31 38.18 139.79 40.26 141.40 42.24 C 140.31 44.73 139.33 47.37 139.78 50.15 C 137.95 52.60 136.19 55.09 134.33 57.52 C 132.57 57.30 130.79 57.25 129.02 57.37 C 127.81 57.48 126.59 57.59 125.39 57.72 C 125.40 55.75 125.54 53.78 125.67 51.81 C 124.68 52.37 123.70 52.95 122.74 53.53 C 123.26 51.15 123.90 48.73 125.42 46.78 C 126.79 47.47 128.15 48.15 129.51 48.86 C 129.07 47.30 128.64 45.74 128.26 44.17 C 129.01 40.12 132.61 37.62 135.89 35.61 M 134.35 46.03 C 133.36 46.18 131.51 47.06 132.14 48.31 C 133.57 49.61 137.38 45.97 134.35 46.03 Z" />
<path fill="#3d6865" opacity="1.00" d=" M 148.40 35.71 C 148.69 35.52 149.27 35.16 149.56 34.98 C 150.08 36.58 150.95 38.13 150.94 39.84 C 150.08 42.95 146.61 43.92 144.06 45.25 C 144.94 44.33 145.85 43.42 146.76 42.52 C 147.28 40.25 147.75 37.95 148.40 35.71 Z" />
<path fill="#589470" opacity="1.00" d=" M 97.08 36.31 C 97.59 36.71 98.10 37.11 98.62 37.50 C 98.67 38.05 98.72 38.60 98.78 39.15 C 98.73 40.95 98.62 42.74 98.52 44.54 C 97.04 45.76 95.57 46.99 94.11 48.24 C 94.95 44.49 96.55 39.82 92.99 36.95 C 94.38 36.87 95.74 36.66 97.08 36.31 Z" />
<path fill="#3b7c6d" opacity="1.00" d=" M 90.48 43.42 C 92.12 41.51 91.52 38.84 91.64 36.54 L 92.99 36.95 C 96.55 39.82 94.95 44.49 94.11 48.24 C 95.57 46.99 97.04 45.76 98.52 44.54 C 98.62 42.74 98.73 40.95 98.78 39.15 C 99.34 40.72 99.96 42.27 100.42 43.88 C 100.16 45.58 99.97 47.36 99.09 48.88 C 96.78 51.45 94.28 53.84 91.86 56.30 C 90.48 53.61 88.01 55.83 86.07 56.38 C 85.35 55.64 84.63 54.90 83.90 54.16 C 81.55 55.27 78.89 58.45 76.25 56.79 C 74.90 54.38 78.41 52.88 79.70 51.27 C 79.12 50.99 78.55 50.71 77.97 50.42 C 82.63 49.21 87.27 47.09 90.48 43.42 Z" />
<path fill="#184e61" opacity="1.00" d=" M 69.19 39.74 C 70.34 38.99 71.50 38.26 72.66 37.52 C 72.66 38.00 72.65 38.97 72.64 39.45 C 72.22 41.48 71.34 43.68 72.29 45.70 C 73.34 48.06 75.85 49.21 77.97 50.42 C 78.55 50.71 79.12 50.99 79.70 51.27 C 78.41 52.88 74.90 54.38 76.25 56.79 C 78.89 58.45 81.55 55.27 83.90 54.16 C 84.63 54.90 85.35 55.64 86.07 56.38 C 80.59 58.05 73.77 58.95 69.22 54.67 C 65.81 50.30 68.28 44.56 69.19 39.74 Z" />
<path fill="#7bb865" opacity="1.00" d=" M 98.78 39.15 C 98.72 38.60 98.67 38.05 98.62 37.50 C 101.16 39.39 104.31 40.00 107.33 40.65 C 105.87 43.26 103.56 45.19 101.21 46.97 C 100.95 45.94 100.69 44.91 100.42 43.88 C 99.96 42.27 99.34 40.72 98.78 39.15 Z" />
<path fill="#4c9656" opacity="1.00" d=" M 106.74 39.43 C 110.43 37.60 114.84 37.82 117.88 40.78 C 113.74 43.21 110.85 47.07 108.36 51.07 C 105.60 51.75 103.70 53.94 101.90 55.99 C 100.05 55.14 98.21 54.28 96.37 53.42 C 97.30 51.92 98.23 50.42 99.09 48.88 C 99.97 47.36 100.16 45.58 100.42 43.88 C 100.69 44.91 100.95 45.94 101.21 46.97 C 103.56 45.19 105.87 43.26 107.33 40.65 L 106.74 39.43 Z" />
<path fill="#13495d" opacity="1.00" d=" M 60.15 55.75 C 58.23 50.75 56.15 45.60 56.20 40.16 C 57.01 41.53 57.65 43.05 58.79 44.20 C 61.31 45.53 64.51 44.89 66.72 43.19 C 66.04 46.99 64.98 51.22 67.20 54.74 C 68.96 58.07 72.93 58.86 76.27 59.71 C 77.83 61.23 79.42 62.72 81.07 64.15 C 81.23 65.32 81.40 66.49 81.56 67.67 C 77.27 68.65 73.79 71.38 71.27 74.92 C 70.01 73.28 68.72 71.66 67.43 70.05 C 69.26 68.77 71.17 67.56 72.76 65.99 C 71.34 61.48 66.23 60.06 62.23 58.69 C 60.97 58.35 60.77 56.73 60.15 55.75 Z" />
<path fill="#95c776" opacity="1.00" d=" M 117.88 40.78 C 118.82 40.58 119.78 40.41 120.73 40.24 C 121.31 41.88 121.89 43.53 122.48 45.17 C 120.73 48.13 120.83 51.57 121.11 54.87 C 120.49 55.44 119.87 56.02 119.26 56.60 C 115.75 59.82 112.12 63.81 107.08 64.25 C 104.60 64.63 102.78 62.73 101.34 61.02 C 102.37 56.91 105.13 53.66 108.36 51.07 C 110.85 47.07 113.74 43.21 117.88 40.78 M 108.17 54.23 C 106.81 54.89 106.77 55.56 108.04 56.24 C 109.40 55.58 109.44 54.91 108.17 54.23 Z" />
<path fill="#37725c" opacity="1.00" d=" M 164.45 39.91 C 167.83 39.26 171.95 40.08 174.75 42.29 C 176.95 44.20 175.22 47.13 174.11 49.12 C 173.48 48.36 172.86 47.59 172.23 46.83 C 170.60 48.32 168.81 49.64 166.79 50.57 C 161.94 51.11 160.55 44.44 155.74 45.49 C 156.29 44.17 156.84 42.84 157.39 41.51 C 158.89 41.70 160.39 41.89 161.89 42.08 C 162.73 41.34 163.58 40.62 164.45 39.91 Z" />
<path fill="#fff6ab" opacity="1.00" d=" M 125.42 46.78 C 126.13 46.12 127.55 44.82 128.26 44.17 C 128.64 45.74 129.07 47.30 129.51 48.86 C 128.15 48.15 126.79 47.47 125.42 46.78 Z" />
<path fill="#11465f" opacity="1.00" d=" M 155.74 45.49 C 160.55 44.44 161.94 51.11 166.79 50.57 C 165.83 54.44 161.87 50.39 159.32 51.23 C 157.28 52.21 156.08 54.29 154.60 55.91 C 153.63 55.03 152.61 54.22 151.60 53.40 C 152.00 50.31 153.68 47.73 155.74 45.49 Z" />
<path fill="#b7d786" opacity="1.00" d=" M 134.35 46.03 C 137.38 45.97 133.57 49.61 132.14 48.31 C 131.51 47.06 133.36 46.18 134.35 46.03 Z" />
<path fill="#256459" opacity="1.00" d=" M 166.79 50.57 C 168.81 49.64 170.60 48.32 172.23 46.83 C 172.86 47.59 173.48 48.36 174.11 49.12 C 173.36 49.75 172.61 50.38 171.87 51.02 C 172.31 52.01 172.75 53.00 173.20 53.98 C 171.89 54.75 170.58 55.52 169.28 56.30 C 169.97 57.36 170.66 58.43 171.35 59.49 C 169.87 59.24 168.39 58.99 166.91 58.75 C 163.72 62.07 159.53 63.88 155.21 65.20 C 155.08 62.81 154.99 60.41 154.83 58.03 C 154.78 57.50 154.66 56.44 154.60 55.91 C 156.08 54.29 157.28 52.21 159.32 51.23 C 161.87 50.39 165.83 54.44 166.79 50.57 Z" />
<path fill="#19505d" opacity="1.00" d=" M 91.86 56.30 C 94.28 53.84 96.78 51.45 99.09 48.88 C 98.23 50.42 97.30 51.92 96.37 53.42 C 98.21 54.28 100.05 55.14 101.90 55.99 C 99.91 60.45 97.65 66.29 101.90 70.22 C 101.25 71.52 100.70 72.91 99.75 74.03 C 96.36 72.65 95.24 68.72 94.32 65.52 C 93.07 63.25 90.62 65.18 89.09 66.02 C 87.29 67.40 84.97 66.95 82.88 66.82 C 83.64 65.61 84.41 64.40 85.18 63.19 C 84.93 61.73 84.69 60.27 84.46 58.81 C 86.10 58.30 87.73 57.78 89.37 57.26 C 89.74 57.83 90.47 58.97 90.84 59.54 C 92.82 59.71 94.95 59.79 96.43 58.20 C 94.57 57.94 92.71 57.66 90.86 57.30 L 91.86 56.30 M 99.17 57.27 C 97.79 57.90 97.75 58.56 99.03 59.25 C 100.40 58.62 100.45 57.96 99.17 57.27 Z" />
<path fill="#236965" opacity="1.00" d=" M 122.74 53.53 C 123.70 52.95 124.68 52.37 125.67 51.81 C 125.54 53.78 125.40 55.75 125.39 57.72 C 125.45 59.10 125.57 60.47 125.70 61.84 C 125.39 62.26 124.77 63.09 124.46 63.51 C 122.79 61.16 121.06 58.85 119.26 56.60 C 119.87 56.02 120.49 55.44 121.11 54.87 C 121.64 54.40 122.18 53.96 122.74 53.53 Z" />
<path fill="#cce092" opacity="1.00" d=" M 108.17 54.23 C 109.44 54.91 109.40 55.58 108.04 56.24 C 106.77 55.56 106.81 54.89 108.17 54.23 Z" />
<path fill="#fff6ab" opacity="1.00" d=" M 1.86 55.14 C 5.25 57.48 8.51 60.05 11.10 63.28 C 9.32 62.66 7.54 62.02 5.76 61.39 L 5.52 61.31 C 4.13 59.35 2.86 57.32 1.86 55.14 Z" />
<path fill="#3b6c66" opacity="1.00" d=" M 134.33 57.52 C 136.54 58.06 138.73 57.64 140.71 56.59 C 140.58 57.38 140.45 58.18 140.34 58.98 C 140.24 59.74 140.03 61.25 139.93 62.01 C 136.44 63.00 132.62 63.60 129.61 61.07 C 129.80 60.74 130.18 60.08 130.37 59.75 C 129.93 58.95 129.48 58.16 129.02 57.37 C 130.79 57.25 132.57 57.30 134.33 57.52 Z" />
<path fill="#061112" opacity="1.00" d=" M 99.17 57.27 C 100.45 57.96 100.40 58.62 99.03 59.25 C 97.75 58.56 97.79 57.90 99.17 57.27 Z" />
<path fill="#0f425d" opacity="1.00" d=" M 119.26 56.60 C 121.06 58.85 122.79 61.16 124.46 63.51 L 123.88 64.28 C 122.36 66.07 120.61 67.63 118.94 69.26 C 114.61 72.93 116.31 80.23 121.44 82.21 C 127.98 83.51 133.27 78.38 138.93 76.02 C 143.09 73.31 148.08 74.13 152.48 75.73 C 150.94 77.15 149.42 78.59 147.91 80.04 C 152.48 79.15 157.10 77.60 160.37 74.11 C 161.09 70.41 161.21 66.54 162.90 63.10 C 163.90 63.28 164.90 63.47 165.90 63.66 C 166.19 67.83 166.27 72.31 164.01 76.01 C 159.92 83.44 150.16 86.57 142.30 83.79 C 142.29 85.16 143.26 86.92 142.00 88.03 C 139.12 88.72 136.39 89.87 133.96 91.59 C 133.50 91.25 132.58 90.55 132.12 90.21 C 129.94 91.68 127.83 93.32 125.43 94.43 C 121.42 95.97 116.26 94.90 113.63 91.38 C 112.25 88.59 112.67 85.33 112.46 82.31 C 111.93 82.25 110.85 82.13 110.32 82.07 C 109.15 79.48 104.95 80.77 104.43 77.75 C 104.56 75.09 106.16 72.74 107.09 70.29 C 105.41 69.51 103.66 68.87 102.15 67.78 C 100.31 66.00 100.89 63.26 101.34 61.02 C 102.78 62.73 104.60 64.63 107.08 64.25 C 112.12 63.81 115.75 59.82 119.26 56.60 Z" />
<path fill="#307853" opacity="1.00" d=" M 140.89 59.61 C 143.73 58.42 146.69 57.35 149.82 57.52 C 149.31 58.76 148.80 59.99 148.28 61.23 C 150.47 60.17 152.65 59.10 154.83 58.03 C 154.99 60.41 155.08 62.81 155.21 65.20 C 153.15 66.30 151.35 68.09 149.02 68.56 C 146.95 68.35 145.21 67.04 143.39 66.15 C 143.74 65.14 144.10 64.12 144.45 63.10 C 143.25 61.95 142.03 60.82 140.89 59.61 Z" />
<path fill="#468e58" opacity="1.00" d=" M 125.39 57.72 C 126.59 57.59 127.81 57.48 129.02 57.37 C 129.48 58.16 129.93 58.95 130.37 59.75 C 130.18 60.08 129.80 60.74 129.61 61.07 C 128.61 62.67 127.55 64.24 126.53 65.83 C 126.02 65.77 125.01 65.65 124.51 65.59 C 124.35 65.27 124.04 64.61 123.88 64.28 L 124.46 63.51 C 124.77 63.09 125.39 62.26 125.70 61.84 C 125.57 60.47 125.45 59.10 125.39 57.72 Z" />
<path fill="#185860" opacity="1.00" d=" M 166.91 58.75 C 168.39 58.99 169.87 59.24 171.35 59.49 C 169.59 60.96 167.76 62.32 165.90 63.66 C 164.90 63.47 163.90 63.28 162.90 63.10 C 161.21 66.54 161.09 70.41 160.37 74.11 C 160.12 72.75 159.87 71.39 159.62 70.03 C 157.14 71.80 154.71 73.66 152.48 75.73 C 148.08 74.13 143.09 73.31 138.93 76.02 C 139.71 74.46 140.49 72.91 141.28 71.35 C 142.64 72.08 144.01 72.80 145.37 73.53 C 145.77 72.79 146.14 72.05 146.50 71.30 C 145.03 70.16 143.35 69.32 141.99 68.04 C 140.79 66.26 140.37 64.08 139.93 62.01 C 140.03 61.25 140.24 59.74 140.34 58.98 L 140.89 59.61 C 142.03 60.82 143.25 61.95 144.45 63.10 C 144.10 64.12 143.74 65.14 143.39 66.15 C 145.21 67.04 146.95 68.35 149.02 68.56 C 151.35 68.09 153.15 66.30 155.21 65.20 C 159.53 63.88 163.72 62.07 166.91 58.75 Z" />
<path fill="#21665e" opacity="1.00" d=" M 62.23 58.69 C 66.23 60.06 71.34 61.48 72.76 65.99 C 71.17 67.56 69.26 68.77 67.43 70.05 C 64.86 67.17 62.22 64.20 58.52 62.79 C 59.74 61.41 60.99 60.05 62.23 58.69 Z" />
<path fill="#572c23" opacity="1.00" d=" M 77.81 59.56 C 79.46 59.38 81.12 59.22 82.79 59.07 C 82.93 60.55 83.07 62.02 83.20 63.51 C 81.12 62.61 79.33 61.22 77.81 59.56 Z" />
<path fill="#c28f7c" opacity="1.00" d=" M 5.76 61.39 C 7.54 62.02 9.32 62.66 11.10 63.28 C 17.07 73.49 11.45 85.18 12.34 96.09 C 11.63 95.44 10.92 94.80 10.19 94.18 C 10.60 87.76 11.50 81.28 10.37 74.87 C 9.83 70.08 7.67 65.74 5.76 61.39 Z" />
<path fill="#266e55" opacity="1.00" d=" M 126.53 65.83 C 127.55 64.24 128.61 62.67 129.61 61.07 C 132.62 63.60 136.44 63.00 139.93 62.01 C 140.37 64.08 140.79 66.26 141.99 68.04 C 143.35 69.32 145.03 70.16 146.50 71.30 C 146.14 72.05 145.77 72.79 145.37 73.53 C 144.01 72.80 142.64 72.08 141.28 71.35 C 140.49 72.91 139.71 74.46 138.93 76.02 C 133.27 78.38 127.98 83.51 121.44 82.21 C 122.33 80.29 122.89 77.99 124.77 76.74 C 128.55 74.09 132.83 72.27 136.76 69.87 C 134.59 68.48 132.55 66.91 130.64 65.19 C 127.23 67.87 124.62 71.66 120.44 73.23 C 119.94 71.90 119.44 70.59 118.94 69.26 C 120.61 67.63 122.36 66.07 123.88 64.28 C 124.04 64.61 124.35 65.27 124.51 65.59 C 125.01 65.65 126.02 65.77 126.53 65.83 Z" />
<path fill="#be8c7a" opacity="1.00" d=" M 48.21 65.78 C 52.28 64.68 56.48 65.02 60.62 65.37 C 62.05 67.09 63.48 68.81 64.87 70.56 C 64.40 77.46 66.53 85.55 61.03 91.02 C 56.98 92.96 52.69 94.35 48.39 95.62 C 47.25 85.72 46.79 75.67 48.21 65.78 M 49.66 66.75 C 49.68 68.04 48.84 69.69 50.16 70.62 C 51.45 70.16 52.67 69.51 53.90 68.90 C 53.69 68.36 53.28 67.29 53.07 66.75 C 52.22 66.75 50.51 66.75 49.66 66.75 Z" />
<path fill="#165863" opacity="1.00" d=" M 120.44 73.23 C 124.62 71.66 127.23 67.87 130.64 65.19 C 132.55 66.91 134.59 68.48 136.76 69.87 C 132.83 72.27 128.55 74.09 124.77 76.74 C 122.89 77.99 122.33 80.29 121.44 82.21 C 116.31 80.23 114.61 72.93 118.94 69.26 C 119.44 70.59 119.94 71.90 120.44 73.23 Z" />
<path fill="#e6e49a" opacity="1.00" d=" M 49.66 66.75 C 50.51 66.75 52.22 66.75 53.07 66.75 C 53.28 67.29 53.69 68.36 53.90 68.90 C 52.67 69.51 51.45 70.16 50.16 70.62 C 48.84 69.69 49.68 68.04 49.66 66.75 Z" />
<path fill="#be8c7a" opacity="1.00" d=" M 90.53 67.37 C 91.13 67.33 92.33 67.25 92.93 67.21 C 91.92 70.52 91.07 73.89 90.47 77.30 L 90.98 77.93 L 91.52 78.43 C 91.98 79.72 92.37 81.03 92.78 82.34 C 93.43 82.44 94.75 82.65 95.41 82.76 C 95.59 85.71 95.69 88.68 95.89 91.63 C 97.98 88.63 99.71 85.32 100.28 81.66 C 101.44 81.32 102.61 80.99 103.78 80.66 C 102.94 81.60 102.10 82.53 101.26 83.47 C 101.90 84.92 102.53 86.38 103.17 87.83 C 100.98 92.06 98.87 96.33 96.74 100.59 C 94.99 104.25 91.18 106.10 87.73 107.81 C 82.11 108.80 76.33 109.76 70.64 108.74 C 68.43 107.90 66.54 106.44 64.58 105.16 C 64.44 103.81 64.30 102.47 64.16 101.12 L 64.66 100.97 C 66.98 100.37 69.16 99.35 71.22 98.14 C 71.11 97.32 70.89 95.69 70.78 94.88 L 69.32 95.84 C 70.02 95.10 70.72 94.37 71.43 93.63 C 72.72 94.37 74.00 95.12 75.32 95.83 C 74.51 95.62 72.89 95.20 72.08 94.99 C 72.05 96.31 72.03 97.63 72.01 98.95 C 72.72 98.94 74.13 98.93 74.83 98.93 C 75.36 97.99 75.91 97.07 76.47 96.15 C 76.88 96.16 77.69 96.18 78.10 96.18 C 76.79 98.98 81.55 98.53 79.86 95.99 C 80.46 95.85 81.68 95.56 82.29 95.41 C 87.11 94.68 94.85 93.30 94.53 86.95 C 95.38 84.35 92.87 83.32 90.74 83.48 C 90.48 82.38 90.18 81.30 89.84 80.22 C 89.64 80.18 89.25 80.10 89.05 80.06 C 86.79 83.76 83.32 86.52 78.93 87.09 C 78.40 86.31 77.88 85.53 77.35 84.75 C 82.34 86.33 86.19 82.03 89.30 78.83 C 89.44 77.21 89.65 75.58 90.21 74.05 C 90.44 71.83 90.52 69.60 90.53 67.37 Z" />
<path fill="#574f69" opacity="1.00" d=" M 75.02 73.97 C 78.30 70.01 83.79 69.55 88.53 68.90 C 88.51 70.20 88.49 71.50 88.48 72.81 C 83.17 73.39 79.02 76.84 76.33 81.27 C 74.82 81.36 73.32 81.43 71.81 81.50 C 72.42 78.84 72.99 75.97 75.02 73.97 Z" />
<path fill="#2e7b59" opacity="1.00" d=" M 152.48 75.73 C 154.71 73.66 157.14 71.80 159.62 70.03 C 159.87 71.39 160.12 72.75 160.37 74.11 C 157.10 77.60 152.48 79.15 147.91 80.04 C 149.42 78.59 150.94 77.15 152.48 75.73 Z" />
<path fill="#935e4f" opacity="1.00" d=" M 64.87 70.56 C 66.77 72.57 68.82 74.56 69.99 77.11 C 70.17 79.40 70.04 81.70 69.84 83.98 C 68.80 88.08 64.33 89.26 61.03 91.02 C 66.53 85.55 64.40 77.46 64.87 70.56 Z" />
<path fill="#49425b" opacity="1.00" d=" M 93.23 80.01 C 93.02 77.17 92.37 73.82 94.48 71.49 C 95.21 72.69 95.94 73.90 96.67 75.11 C 95.54 76.75 94.40 78.39 93.23 80.01 Z" />
<path fill="#855043" opacity="1.00" d=" M 101.35 75.37 C 102.07 73.87 102.95 72.44 104.08 71.21 C 103.52 73.67 102.96 76.13 102.50 78.61 C 101.93 78.61 100.81 78.61 100.25 78.61 C 99.90 77.87 99.55 77.14 99.20 76.40 C 99.74 76.14 100.81 75.63 101.35 75.37 Z" />
<path fill="#c4b3e8" opacity="1.00" d=" M 76.33 81.27 C 79.02 76.84 83.17 73.39 88.48 72.81 C 88.58 78.33 84.17 83.19 78.74 83.81 C 78.14 83.18 76.93 81.90 76.33 81.27 Z" />
<path fill="#271a48" opacity="1.00" d=" M 96.67 75.11 C 97.33 77.44 97.75 79.84 97.97 82.26 C 96.37 81.55 94.79 80.80 93.23 80.01 C 94.40 78.39 95.54 76.75 96.67 75.11 Z" />
<path fill="#000000" opacity="1.00" d=" M 89.05 80.06 C 89.25 80.10 89.64 80.18 89.84 80.22 C 90.18 81.30 90.48 82.38 90.74 83.48 C 92.87 83.32 95.38 84.35 94.53 86.95 C 94.85 93.30 87.11 94.68 82.29 95.41 C 79.78 95.08 77.36 94.30 75.08 93.22 C 76.18 91.14 76.01 87.45 78.93 87.09 C 83.32 86.52 86.79 83.76 89.05 80.06 M 88.13 83.81 C 87.87 84.23 87.36 85.06 87.10 85.48 C 84.37 87.24 81.36 88.51 78.20 89.27 C 78.07 90.10 77.80 91.75 77.67 92.58 L 78.43 92.16 C 82.27 93.16 86.32 92.39 90.03 91.19 C 91.79 90.65 92.52 88.68 92.61 87.00 C 91.20 85.83 89.66 84.82 88.13 83.81 Z" />
<path fill="#855043" opacity="1.00" d=" M 100.21 80.28 C 101.28 80.29 102.35 80.30 103.43 80.32 C 104.84 81.15 106.33 81.81 107.87 82.37 C 108.21 82.87 108.90 83.89 109.25 84.40 C 108.88 85.30 108.55 86.22 108.25 87.14 C 108.30 86.60 108.41 85.52 108.47 84.97 C 106.69 85.91 104.93 86.86 103.17 87.83 C 102.53 86.38 101.90 84.92 101.26 83.47 C 102.10 82.53 102.94 81.60 103.78 80.66 C 102.61 80.99 101.44 81.32 100.28 81.66 C 100.26 81.31 100.23 80.63 100.21 80.28 Z" />
<path fill="#b58473" opacity="1.00" d=" M 71.95 88.73 C 71.44 86.50 71.76 82.77 74.87 82.99 C 75.39 83.27 76.43 83.84 76.95 84.13 C 75.81 85.55 74.66 86.98 73.24 88.13 L 71.95 88.73 Z" />
<path fill="#703a2e" opacity="1.00" d=" M 61.03 91.02 C 64.33 89.26 68.80 88.08 69.84 83.98 C 69.89 85.24 69.95 86.49 70.02 87.74 C 70.89 88.52 71.75 89.30 72.62 90.09 C 68.06 93.39 63.99 97.42 61.19 102.34 C 57.18 102.01 53.19 101.50 49.25 100.68 C 48.96 98.99 48.67 97.31 48.39 95.62 C 52.69 94.35 56.98 92.96 61.03 91.02 Z" />
<path fill="#8f5749" opacity="1.00" d=" M 76.95 84.13 C 77.05 84.28 77.25 84.59 77.35 84.75 C 77.88 85.53 78.40 86.31 78.93 87.09 C 76.01 87.45 76.18 91.14 75.08 93.22 C 77.36 94.30 79.78 95.08 82.29 95.41 C 81.68 95.56 80.46 95.85 79.86 95.99 C 79.42 96.04 78.54 96.14 78.10 96.18 C 77.69 96.18 76.88 96.16 76.47 96.15 L 75.32 95.83 C 74.00 95.12 72.72 94.37 71.43 93.63 C 72.52 92.83 73.62 92.02 74.71 91.21 C 74.22 90.19 73.73 89.16 73.24 88.13 C 74.66 86.98 75.81 85.55 76.95 84.13 Z" />
<path fill="#2c1d54" opacity="1.00" d=" M 88.13 83.81 C 89.66 84.82 91.20 85.83 92.61 87.00 C 92.52 88.68 91.79 90.65 90.03 91.19 C 86.32 92.39 82.27 93.16 78.43 92.16 C 81.55 90.29 85.17 88.76 87.10 85.48 C 87.36 85.06 87.87 84.23 88.13 83.81 Z" />
<path fill="#ac7969" opacity="1.00" d=" M 109.25 84.40 C 109.56 84.24 110.20 83.92 110.51 83.76 C 110.43 87.68 110.72 91.87 113.65 94.83 C 112.74 95.65 111.84 96.47 110.93 97.29 C 110.37 97.09 109.80 96.88 109.23 96.69 C 108.66 96.82 107.52 97.09 106.96 97.22 C 107.31 93.85 107.80 90.50 108.25 87.14 C 108.55 86.22 108.88 85.30 109.25 84.40 Z" />
<path fill="#662f25" opacity="1.00" d=" M 103.17 87.83 C 104.93 86.86 106.69 85.91 108.47 84.97 C 108.41 85.52 108.30 86.60 108.25 87.14 C 107.80 90.50 107.31 93.85 106.96 97.22 C 106.93 97.62 106.87 98.43 106.84 98.84 C 106.79 100.29 106.73 101.74 106.67 103.19 C 107.38 104.13 108.10 105.06 108.82 106.00 C 108.44 106.82 108.05 107.63 107.66 108.45 C 106.31 108.94 104.96 109.42 103.61 109.93 C 109.11 110.09 114.34 108.28 119.66 107.22 C 119.82 114.56 118.42 121.82 116.87 128.96 C 117.47 129.94 118.06 130.93 118.66 131.92 C 116.75 133.85 114.68 135.61 112.43 137.14 C 107.35 129.22 102.17 121.36 97.28 113.33 C 99.28 111.64 101.33 109.98 103.05 108.00 C 105.30 105.83 104.06 102.40 104.48 99.64 C 101.51 100.46 102.44 103.28 102.51 105.59 C 98.62 111.08 92.25 113.98 87.34 118.37 C 86.94 121.21 89.41 123.37 89.94 126.04 C 89.87 129.16 85.99 128.83 83.88 129.68 L 83.37 129.20 C 82.64 128.51 81.90 127.82 81.17 127.13 C 82.15 124.89 83.16 122.66 84.01 120.37 C 84.31 119.23 84.53 118.08 84.72 116.92 C 85.15 113.73 84.91 110.01 87.73 107.81 C 91.18 106.10 94.99 104.25 96.74 100.59 C 98.87 96.33 100.98 92.06 103.17 87.83 Z" />
<path fill="#574f69" opacity="1.00" d=" M 78.20 89.27 C 81.36 88.51 84.37 87.24 87.10 85.48 C 85.17 88.76 81.55 90.29 78.43 92.16 L 77.67 92.58 C 77.80 91.75 78.07 90.10 78.20 89.27 Z" />
<path fill="#6e382d" opacity="1.00" d=" M 126.66 99.87 C 125.96 95.69 130.26 94.13 133.13 92.39 C 134.67 99.02 137.43 105.69 136.53 112.60 C 134.35 115.82 131.46 118.49 128.93 121.43 C 124.75 114.57 129.05 106.68 129.05 99.34 C 128.45 99.47 127.26 99.74 126.66 99.87 Z" />
<path fill="#753f33" opacity="1.00" d=" M 10.19 94.18 C 10.92 94.80 11.63 95.44 12.34 96.09 C 14.34 98.15 16.37 100.25 19.04 101.45 C 18.38 102.59 17.72 103.73 17.06 104.86 C 14.63 103.89 12.09 103.22 9.66 102.26 C 7.64 100.05 8.96 96.51 10.19 94.18 Z" />
<path fill="#be8c7a" opacity="1.00" d=" M 113.65 94.83 C 115.12 95.49 116.59 96.16 118.05 96.86 C 118.55 98.04 119.21 99.14 120.01 100.14 C 119.84 102.49 119.67 104.85 119.66 107.22 C 114.34 108.28 109.11 110.09 103.61 109.93 C 104.96 109.42 106.31 108.94 107.66 108.45 C 108.05 107.63 108.44 106.82 108.82 106.00 C 108.10 105.06 107.38 104.13 106.67 103.19 C 106.73 101.74 106.79 100.29 106.84 98.84 C 108.11 99.05 109.21 97.92 109.23 96.69 C 109.80 96.88 110.37 97.09 110.93 97.29 C 111.84 96.47 112.74 95.65 113.65 94.83 Z" />
<path fill="#fff6ab" opacity="1.00" d=" M 64.66 100.97 C 65.85 98.98 67.28 97.05 69.32 95.84 L 70.78 94.88 C 70.89 95.69 71.11 97.32 71.22 98.14 C 69.16 99.35 66.98 100.37 64.66 100.97 Z" />
<path fill="#e8eb9c" opacity="1.00" d=" M 72.01 98.95 C 72.03 97.63 72.05 96.31 72.08 94.99 C 72.89 95.20 74.51 95.62 75.32 95.83 L 76.47 96.15 C 75.91 97.07 75.36 97.99 74.83 98.93 C 74.13 98.93 72.72 98.94 72.01 98.95 Z" />
<path fill="#dfdd93" opacity="1.00" d=" M 78.10 96.18 C 78.54 96.14 79.42 96.04 79.86 95.99 C 81.55 98.53 76.79 98.98 78.10 96.18 Z" />
<path fill="#ecf09f" opacity="1.00" d=" M 106.96 97.22 C 107.52 97.09 108.66 96.82 109.23 96.69 C 109.21 97.92 108.11 99.05 106.84 98.84 C 106.87 98.43 106.93 97.62 106.96 97.22 Z" />
<path fill="#72382d" opacity="1.00" d=" M 121.40 97.20 C 122.74 97.16 124.07 97.11 125.41 97.07 C 125.23 103.09 124.25 109.04 123.23 114.97 C 123.47 112.30 123.46 109.61 123.29 106.94 C 122.34 109.26 121.56 111.67 121.25 114.17 C 120.56 108.50 122.49 102.80 121.40 97.20 Z" />
<path fill="#7b4538" opacity="1.00" d=" M 126.66 99.87 C 127.26 99.74 128.45 99.47 129.05 99.34 C 129.05 106.68 124.75 114.57 128.93 121.43 C 126.76 124.15 124.41 126.75 121.67 128.91 C 122.15 125.82 123.99 123.12 124.16 119.96 C 124.91 113.25 126.41 106.63 126.66 99.87 Z" />
<path fill="#865144" opacity="1.00" d=" M 17.06 104.86 C 17.72 103.73 18.38 102.59 19.04 101.45 C 21.38 102.53 23.49 104.08 24.80 106.35 C 23.82 107.23 22.35 107.73 21.80 109.00 C 21.57 111.63 22.35 114.22 23.29 116.65 C 21.70 116.13 20.11 115.62 18.52 115.12 C 18.48 113.90 18.44 112.68 18.40 111.46 C 18.03 111.03 17.28 110.17 16.91 109.74 C 17.44 108.86 17.96 107.98 18.49 107.09 C 18.13 106.54 17.42 105.42 17.06 104.86 Z" />
<path fill="#b27f6e" opacity="1.00" d=" M 21.80 109.00 C 22.35 107.73 23.82 107.23 24.80 106.35 C 26.51 112.79 29.09 119.31 34.26 123.77 C 35.78 125.24 37.97 125.42 39.87 126.09 L 40.92 126.60 C 38.95 127.62 36.79 129.67 34.42 128.51 C 31.16 126.84 28.46 124.25 25.95 121.62 C 24.96 120.02 24.09 118.35 23.29 116.65 C 22.35 114.22 21.57 111.63 21.80 109.00 Z" />
<path fill="#774135" opacity="1.00" d=" M 62.35 106.60 C 65.21 108.64 68.37 110.19 71.35 112.03 C 68.74 114.91 67.35 118.77 64.17 121.14 C 61.83 123.27 58.68 123.99 55.76 124.95 C 55.58 126.76 55.41 128.58 55.22 130.39 C 53.32 130.16 51.57 129.41 50.03 128.29 C 49.56 128.44 48.60 128.73 48.13 128.87 C 48.72 128.16 49.33 127.47 49.97 126.80 C 51.56 126.49 53.81 126.98 54.41 124.98 C 54.72 122.97 53.47 121.21 52.76 119.43 C 57.53 116.69 61.97 112.42 62.35 106.60 Z" />
<path fill="#7b4539" opacity="1.00" d=" M 70.64 108.74 C 76.33 109.76 82.11 108.80 87.73 107.81 C 84.91 110.01 85.15 113.73 84.72 116.92 C 80.36 116.77 76.02 116.17 71.87 114.81 C 72.35 113.92 72.82 113.02 73.28 112.11 C 72.40 110.99 71.52 109.86 70.64 108.74 Z" />
<path fill="#bb8774" opacity="1.00" d=" M 121.25 114.17 C 121.56 111.67 122.34 109.26 123.29 106.94 C 123.46 109.61 123.47 112.30 123.23 114.97 C 123.02 116.96 122.78 118.94 122.48 120.92 C 122.08 123.65 120.23 126.02 120.44 128.88 C 122.98 130.95 122.95 134.18 122.94 137.17 C 121.20 136.98 119.47 136.81 117.73 136.64 C 120.81 132.93 118.84 128.11 119.99 123.87 C 120.78 120.69 120.84 117.40 121.25 114.17 Z" />
<path fill="#be8c7a" opacity="1.00" d=" M 69.34 118.56 C 69.77 117.04 70.54 115.71 71.87 114.81 C 76.02 116.17 80.36 116.77 84.72 116.92 C 84.53 118.08 84.31 119.23 84.01 120.37 C 79.15 121.90 73.00 123.81 71.20 129.11 C 71.58 135.22 74.23 140.91 76.16 146.65 C 70.67 142.85 65.48 137.62 64.24 130.79 C 63.43 126.10 65.91 121.59 69.34 118.56 Z" />
<path fill="#b38170" opacity="1.00" d=" M 44.69 124.25 C 47.41 122.70 50.09 121.08 52.76 119.43 C 53.47 121.21 54.72 122.97 54.41 124.98 C 53.81 126.98 51.56 126.49 49.97 126.80 C 48.18 126.00 46.44 125.11 44.69 124.25 Z" />
<path fill="#885346" opacity="1.00" d=" M 71.20 129.11 C 73.00 123.81 79.15 121.90 84.01 120.37 C 83.16 122.66 82.15 124.89 81.17 127.13 C 81.90 127.82 82.64 128.51 83.37 129.20 C 81.08 129.91 78.36 129.92 76.48 131.56 C 75.08 138.21 78.84 144.38 81.29 150.30 C 79.55 149.15 77.63 148.17 76.16 146.65 C 74.23 140.91 71.58 135.22 71.20 129.11 Z" />
<path fill="#774135" opacity="1.00" d=" M 25.95 121.62 C 28.46 124.25 31.16 126.84 34.42 128.51 C 36.79 129.67 38.95 127.62 40.92 126.60 C 43.31 129.58 40.38 132.78 39.38 135.72 L 39.23 136.07 C 36.11 136.42 32.47 136.36 30.21 133.85 C 27.47 130.41 25.04 126.18 25.95 121.62 Z" />
<path fill="#895547" opacity="1.00" d=" M 39.87 126.09 C 41.47 125.45 43.08 124.85 44.69 124.25 C 46.44 125.11 48.18 126.00 49.97 126.80 C 49.33 127.47 48.72 128.16 48.13 128.87 C 45.86 131.86 42.99 134.48 39.38 135.72 C 40.38 132.78 43.31 129.58 40.92 126.60 L 39.87 126.09 Z" />
<path fill="#72382d" opacity="1.00" d=" M 106.34 132.69 C 107.18 133.70 108.58 134.55 108.50 136.04 C 108.84 141.45 108.42 146.90 107.47 152.23 C 107.18 145.71 106.54 139.21 106.34 132.69 Z" />
<path fill="#935e4f" opacity="1.00" d=" M 116.62 136.53 C 116.89 136.56 117.45 136.61 117.73 136.64 C 119.47 136.81 121.20 136.98 122.94 137.17 C 122.37 138.82 121.05 139.90 119.25 139.46 C 118.20 139.41 117.15 139.34 116.10 139.27 C 116.23 138.59 116.49 137.22 116.62 136.53 Z" />
<path fill="#bb8774" opacity="1.00" d=" M 116.10 139.27 C 117.15 139.34 118.20 139.41 119.25 139.46 C 117.85 147.92 118.38 156.51 117.42 165.02 C 117.67 157.36 117.82 149.70 117.49 142.04 C 116.96 141.71 115.90 141.06 115.36 140.73 C 115.55 140.37 115.92 139.63 116.10 139.27 Z" />
<path fill="#000000" opacity="1.00" d=" M 92.48 185.79 C 100.60 184.59 108.81 184.78 116.99 184.57 C 124.35 184.45 131.79 183.94 139.10 185.04 C 142.13 185.22 142.78 189.89 139.79 190.68 C 131.25 193.86 121.97 194.17 112.98 194.97 C 103.66 195.89 94.28 195.89 84.93 195.79 C 81.19 195.67 77.32 195.57 73.79 194.20 C 71.54 193.25 71.99 189.89 74.24 189.28 C 79.99 186.84 86.36 186.61 92.48 185.79 Z" />
</svg>
