<?xml version="1.0" encoding="UTF-8" ?>
<!DOCTYPE svg PUBLIC "-//W3C//DTD SVG 1.1//EN" "http://www.w3.org/Graphics/SVG/1.1/DTD/svg11.dtd">
<svg width="262pt" height="241pt" viewBox="0 0 262 241" version="1.1" xmlns="http://www.w3.org/2000/svg">
<path fill="#000000" opacity="1.00" d=" M 172.00 0.00 L 172.71 0.00 C 176.47 0.44 180.25 0.11 184.01 0.42 C 188.58 0.91 192.58 3.43 196.13 6.18 C 193.56 7.74 191.19 9.63 189.22 11.92 C 189.34 12.61 189.57 13.99 189.69 14.69 C 189.77 15.69 188.63 17.41 190.17 17.82 C 193.76 20.10 198.75 22.15 199.26 26.97 C 198.59 31.24 195.34 34.37 192.76 37.61 C 195.12 41.53 198.94 45.73 197.57 50.66 C 195.83 54.19 191.44 54.66 188.05 55.50 C 188.79 57.66 190.33 60.03 189.27 62.35 C 188.09 64.17 185.63 64.15 183.78 64.82 C 183.35 66.82 183.55 69.73 181.02 70.36 C 179.49 70.43 177.97 70.19 176.45 70.03 C 176.35 71.73 176.65 73.87 174.94 74.91 C 170.34 78.12 164.69 79.20 159.34 80.51 C 160.46 84.24 161.77 88.07 164.92 90.62 C 164.79 88.86 164.66 87.11 164.52 85.36 C 170.01 89.53 175.03 94.39 178.90 100.12 C 181.11 103.78 185.47 104.92 189.04 106.79 C 189.50 110.09 190.73 113.24 193.23 115.52 C 189.48 116.37 185.62 116.27 182.05 114.74 C 181.21 117.16 179.99 119.49 177.56 120.63 C 177.51 116.73 175.85 113.25 173.83 110.02 C 169.11 106.78 164.01 104.01 159.68 100.24 C 158.32 99.29 158.67 97.52 158.42 96.11 C 155.71 93.64 153.96 90.43 152.87 86.95 C 151.67 88.39 150.47 89.84 149.26 91.28 C 149.57 91.96 150.19 93.32 150.50 94.00 C 150.25 95.13 149.99 96.26 149.74 97.39 C 151.07 98.51 152.38 99.65 153.67 100.82 C 152.54 101.87 151.41 102.91 150.29 103.96 C 152.14 106.72 156.21 109.15 155.35 112.90 C 153.48 115.63 149.93 116.28 147.41 118.24 C 146.09 125.25 150.54 131.36 153.93 137.04 C 156.19 140.37 157.90 144.45 161.64 146.42 C 169.74 151.09 178.61 156.23 182.91 164.91 C 183.44 171.71 179.31 178.02 175.14 183.13 C 173.06 185.18 173.23 188.31 173.91 190.93 C 176.24 193.88 180.17 195.49 183.91 195.22 C 189.96 195.05 196.06 195.61 201.91 197.21 C 205.03 198.00 207.10 200.63 208.95 203.07 C 203.18 207.36 196.39 209.73 189.62 211.91 C 193.48 213.75 197.62 215.24 201.96 215.28 C 214.98 215.09 228.44 214.89 240.87 219.34 C 241.74 218.02 242.40 215.44 244.50 216.55 C 250.71 218.93 257.17 221.47 262.00 226.21 L 262.00 227.56 C 256.88 227.51 252.02 225.79 247.13 224.48 C 246.53 226.09 247.09 228.78 245.00 229.43 C 238.06 229.77 231.96 224.70 224.96 225.85 C 220.84 226.50 216.95 228.12 212.89 229.02 C 208.79 230.08 204.52 229.78 200.34 229.87 C 203.18 231.71 206.84 233.05 208.07 236.52 C 198.52 237.93 189.25 233.78 179.71 234.67 C 179.03 239.40 173.71 239.57 169.99 239.60 C 164.62 240.05 159.31 239.17 154.02 238.42 C 145.51 239.25 136.32 238.06 129.07 233.26 C 129.51 232.52 130.40 231.04 130.84 230.30 C 129.17 229.59 127.52 228.87 125.88 228.11 C 122.35 229.10 118.89 230.34 115.67 232.10 C 120.02 233.76 125.10 234.16 128.64 237.48 C 123.12 237.58 117.54 237.42 112.11 238.62 C 110.44 238.76 108.53 239.68 106.97 238.68 L 106.62 238.28 C 110.21 236.70 114.10 236.13 117.92 235.43 C 115.09 234.77 112.28 233.99 109.56 232.96 C 112.41 230.54 115.83 228.93 119.45 228.07 C 122.66 227.23 125.94 226.67 129.15 225.81 L 129.91 227.21 C 130.82 228.10 131.82 228.87 132.81 229.67 C 132.15 230.87 131.50 232.07 130.85 233.28 C 137.38 235.55 144.33 236.93 151.27 236.64 C 147.36 233.57 141.18 232.23 139.57 227.02 C 141.52 223.37 147.74 223.90 148.12 219.25 C 146.16 219.00 144.19 218.77 142.23 218.53 C 143.90 218.47 145.57 218.36 147.25 218.31 C 149.96 219.32 152.68 220.28 155.46 221.11 C 155.66 222.26 155.86 223.42 156.06 224.57 C 157.62 225.46 159.15 226.41 160.65 227.40 C 158.19 228.75 155.53 229.67 152.92 230.65 C 151.51 231.11 150.29 231.96 149.21 232.95 C 153.44 236.84 159.45 237.50 164.92 238.05 C 169.08 238.55 173.28 238.14 177.36 237.22 C 177.00 236.07 176.65 234.93 176.30 233.79 C 186.40 231.84 196.44 234.77 206.47 235.68 C 198.69 229.25 187.51 230.08 179.01 224.87 C 180.69 220.89 185.23 216.45 181.77 212.14 C 179.75 211.00 177.39 209.81 175.06 210.82 C 171.68 212.51 169.93 216.10 168.41 219.36 C 168.39 218.61 168.34 217.10 168.32 216.35 C 166.36 215.17 164.57 213.74 162.94 212.13 C 164.35 210.43 165.74 208.72 167.25 207.12 C 168.10 206.61 168.97 206.15 169.86 205.73 C 170.18 205.65 170.82 205.48 171.14 205.40 C 169.02 207.18 166.20 208.65 165.14 211.32 C 164.48 213.78 167.38 214.61 168.86 215.81 C 170.30 214.04 171.72 212.25 173.24 210.55 C 174.93 209.90 176.69 209.44 178.45 209.02 C 180.15 210.42 182.19 211.57 183.37 213.49 C 183.75 215.29 183.75 217.15 183.87 218.99 C 185.19 219.48 186.52 219.98 187.85 220.48 C 185.86 222.16 183.87 223.82 181.89 225.52 C 189.62 228.52 198.15 226.83 206.23 227.90 C 209.47 228.18 212.82 228.00 215.83 226.65 C 217.08 226.16 218.31 225.62 219.56 225.12 C 228.16 222.18 236.67 226.28 245.15 227.41 C 245.28 226.50 245.54 224.69 245.67 223.78 C 245.80 223.51 246.06 222.98 246.19 222.71 C 250.87 223.16 255.19 225.13 259.78 226.05 C 255.26 222.60 249.88 220.51 244.56 218.66 C 243.50 220.04 242.10 221.35 240.23 220.50 C 234.04 218.67 227.63 217.70 221.16 217.85 C 217.26 217.84 213.36 217.83 209.46 217.63 C 209.12 217.61 208.44 217.57 208.10 217.55 C 203.86 217.02 199.62 216.49 195.42 215.77 C 192.11 214.99 188.06 214.05 187.31 210.15 C 193.69 206.84 200.89 205.69 207.27 202.40 C 204.83 200.79 202.26 199.33 199.42 198.57 C 196.55 197.86 193.61 197.60 190.67 197.48 C 184.02 196.81 175.77 198.49 171.19 192.34 C 170.74 187.84 172.22 183.64 174.92 180.10 C 176.15 178.02 177.25 175.86 178.31 173.69 C 179.03 172.18 179.75 170.67 180.31 169.10 C 181.57 166.72 181.09 164.08 179.66 161.90 C 175.00 156.99 169.09 153.51 163.20 150.30 C 162.23 149.77 161.27 149.24 160.31 148.71 C 158.24 147.58 156.16 146.46 154.04 145.44 C 155.47 145.63 156.90 145.86 158.34 146.10 C 155.90 142.80 153.38 139.55 151.20 136.07 C 148.84 131.78 146.61 127.38 145.24 122.66 C 145.21 120.88 145.24 119.10 145.29 117.33 C 148.44 115.51 151.64 113.76 154.46 111.44 C 152.21 109.61 150.01 107.70 148.00 105.60 C 147.58 106.08 147.16 106.57 146.74 107.06 C 147.17 108.28 147.53 109.52 147.83 110.79 C 146.38 112.02 144.73 112.97 143.16 114.04 L 142.78 114.31 C 142.66 114.96 142.42 116.24 142.30 116.88 C 141.89 116.14 141.48 115.41 141.07 114.67 C 143.12 113.13 145.40 111.87 147.29 110.11 C 146.89 108.91 146.45 107.74 145.97 106.58 C 143.24 108.25 140.61 110.09 138.15 112.13 C 138.25 113.56 138.50 115.01 138.33 116.45 C 137.36 117.81 136.06 118.89 134.86 120.03 C 135.79 118.63 136.75 117.25 137.70 115.87 C 137.61 114.64 137.48 113.41 137.51 112.18 C 139.42 109.77 142.13 108.16 144.45 106.16 C 144.11 104.95 143.78 103.75 143.45 102.54 C 145.58 100.30 148.26 98.15 148.90 94.95 C 149.30 93.40 147.85 92.22 147.26 90.94 C 145.89 93.41 144.71 95.98 143.21 98.38 L 142.31 99.05 C 142.94 96.53 144.02 94.17 145.33 91.94 C 144.14 91.72 142.96 91.54 141.80 91.27 C 141.35 90.82 140.45 89.91 140.00 89.46 C 139.33 88.02 138.75 86.54 138.06 85.12 C 138.53 84.42 138.98 83.72 139.44 83.01 C 139.58 84.27 139.73 85.53 139.88 86.78 C 140.33 87.83 140.83 88.85 141.36 89.86 C 141.82 90.24 142.73 91.00 143.18 91.38 C 143.27 90.52 143.44 88.79 143.53 87.93 C 143.56 88.74 143.60 90.37 143.63 91.19 L 144.62 90.57 C 145.88 89.81 147.11 89.00 148.35 88.21 C 150.24 87.53 151.54 85.96 152.84 84.51 C 153.57 85.88 154.29 87.26 155.04 88.62 L 155.38 89.22 C 156.75 88.93 158.10 88.57 159.44 88.20 C 158.88 86.93 158.31 85.65 157.74 84.38 C 157.13 84.18 155.93 83.78 155.32 83.59 C 156.09 82.53 156.85 81.49 157.60 80.43 C 155.00 76.13 149.79 77.96 145.98 79.23 L 144.88 79.29 C 147.47 78.27 148.75 76.05 148.54 73.27 C 146.46 74.90 144.39 76.57 142.04 77.80 C 141.47 78.05 140.90 78.30 140.35 78.57 C 138.58 80.40 136.82 82.24 134.90 83.90 C 134.44 83.77 133.54 83.51 133.09 83.38 C 133.17 84.38 133.32 85.38 133.51 86.37 C 133.89 88.23 133.81 90.12 133.31 91.94 C 132.17 93.27 130.89 94.47 129.57 95.63 C 130.61 93.33 131.90 91.16 133.23 89.01 C 132.37 86.42 132.12 83.70 132.18 80.98 C 133.14 81.32 134.10 81.67 135.06 82.01 C 136.82 78.92 139.73 76.96 142.87 75.47 C 140.98 75.01 139.12 75.53 137.28 75.90 L 136.04 75.66 C 136.60 75.31 137.73 74.61 138.29 74.26 C 136.63 72.78 134.88 71.39 132.91 70.33 C 133.32 72.23 133.26 74.65 135.42 75.52 L 136.66 76.44 C 134.15 77.27 131.71 79.12 128.95 78.56 C 125.93 77.31 126.75 73.58 126.11 71.02 C 126.50 71.16 127.28 71.44 127.66 71.57 C 128.15 73.16 128.56 74.78 128.98 76.39 C 130.16 76.04 131.35 75.68 132.54 75.33 C 132.54 73.17 132.55 71.00 132.57 68.84 C 129.60 68.55 126.11 69.31 123.58 67.36 C 121.75 65.90 123.03 63.63 123.43 61.83 C 123.57 63.63 123.69 65.43 123.79 67.24 C 126.43 67.70 129.78 69.46 131.78 66.73 C 134.90 70.43 138.22 74.85 143.68 74.44 C 145.65 72.61 147.68 70.85 149.54 68.90 C 148.84 71.04 150.35 74.34 152.93 73.07 C 156.15 72.30 154.55 68.61 153.03 66.97 C 152.66 67.35 151.93 68.11 151.56 68.48 C 151.08 68.46 150.12 68.42 149.64 68.40 C 149.34 68.41 148.73 68.42 148.43 68.43 C 146.74 69.41 145.09 70.48 143.36 71.42 C 139.80 70.22 139.65 66.18 139.01 63.10 C 137.89 62.48 136.79 61.86 135.69 61.22 C 134.03 62.30 132.36 63.37 130.72 64.47 L 130.46 64.62 L 130.31 63.99 C 131.39 62.17 132.60 60.43 133.69 58.61 C 132.52 57.87 131.34 57.14 130.17 56.41 L 130.29 55.80 C 130.68 53.45 130.83 51.07 131.13 48.71 C 131.20 49.57 131.25 50.43 131.28 51.30 C 131.30 52.80 131.33 54.30 131.40 55.81 C 132.14 55.74 133.62 55.61 134.35 55.55 C 134.30 56.93 134.25 58.32 134.20 59.70 C 135.93 60.37 137.66 61.04 139.39 61.71 C 140.17 64.43 139.90 68.26 142.88 69.66 C 145.32 70.15 146.95 68.08 148.73 66.82 C 151.78 66.90 154.33 65.49 155.65 62.68 C 155.51 65.19 155.49 67.71 155.51 70.22 C 155.49 71.28 155.45 72.34 155.41 73.39 C 153.27 73.55 151.13 73.69 149.00 73.83 C 149.03 74.62 149.08 76.21 149.10 77.00 C 153.76 75.72 158.15 79.00 162.79 77.68 C 166.54 76.88 170.70 76.33 173.67 73.67 C 174.73 70.90 172.28 68.45 171.19 66.08 C 174.33 67.20 177.58 68.02 180.92 68.13 C 180.96 67.69 181.04 66.81 181.08 66.37 C 181.14 65.72 181.26 64.42 181.32 63.77 C 183.51 63.38 186.21 63.73 187.74 61.76 C 188.55 59.12 186.59 56.91 185.18 54.93 L 184.21 53.61 L 185.74 53.56 C 189.21 53.34 194.05 53.26 195.50 49.41 C 196.23 44.87 192.96 40.98 191.11 37.10 C 193.16 33.91 195.77 30.84 196.43 26.99 C 195.40 22.74 190.71 21.20 187.43 19.02 C 187.09 18.81 186.42 18.38 186.08 18.16 C 186.76 17.05 187.48 15.96 188.20 14.87 C 188.05 14.09 187.76 12.52 187.61 11.73 C 187.79 11.46 188.14 10.92 188.32 10.64 C 188.50 10.36 188.87 9.79 189.05 9.50 C 190.50 8.22 192.04 7.02 193.56 5.81 C 192.64 5.13 191.71 4.48 190.77 3.84 C 188.21 2.81 185.50 2.18 182.77 1.78 C 179.27 1.53 175.73 1.70 172.28 2.36 C 164.90 3.70 158.38 7.71 152.82 12.59 C 151.57 13.63 150.34 14.69 149.10 15.74 C 148.20 13.56 148.17 11.20 148.63 8.91 C 148.73 8.36 148.94 7.27 149.05 6.73 C 149.30 5.09 148.81 4.71 147.58 5.59 C 147.40 5.77 147.05 6.14 146.87 6.33 C 143.43 9.40 139.63 12.24 137.09 16.15 C 136.27 17.29 136.58 18.76 136.57 20.06 C 136.58 20.47 136.61 21.29 136.62 21.69 C 134.30 22.71 131.89 23.52 129.62 24.67 C 129.08 25.50 128.56 26.34 128.06 27.19 C 127.50 28.09 126.95 28.99 126.31 29.83 C 124.32 30.10 122.95 31.54 122.51 33.43 C 121.55 33.23 120.61 32.97 119.66 32.74 C 119.47 33.56 119.11 35.21 118.93 36.03 C 118.78 40.47 116.04 45.35 119.10 49.34 C 117.92 49.76 116.74 50.18 115.58 50.66 C 115.47 51.06 115.25 51.87 115.14 52.27 C 114.63 55.77 112.18 58.42 110.32 61.26 C 110.03 63.27 109.92 65.87 112.04 66.95 C 116.04 68.85 120.93 67.88 124.68 70.53 C 118.93 70.06 111.45 70.54 107.95 64.93 C 106.80 60.69 110.77 57.30 113.07 54.18 C 112.23 51.41 113.70 49.28 115.96 47.87 C 115.76 43.28 117.49 38.86 117.26 34.23 C 118.87 31.21 122.37 29.98 125.12 28.22 C 125.64 23.55 130.34 22.27 134.06 20.87 C 134.59 16.08 138.34 12.72 141.40 9.36 C 144.03 6.48 147.18 4.09 150.88 2.74 C 150.78 5.67 150.52 8.58 150.15 11.48 C 157.05 6.31 164.93 2.50 173.32 0.45 L 172.00 0.00 M 161.38 93.78 C 159.71 92.75 158.39 90.73 156.20 90.96 C 157.64 93.27 159.42 95.33 161.30 97.28 C 161.01 97.37 160.42 97.55 160.12 97.63 C 163.83 100.69 167.34 104.00 171.30 106.73 C 172.73 107.76 174.60 107.50 176.26 107.80 C 176.17 110.53 176.98 113.14 178.36 115.48 C 177.80 118.51 182.58 115.81 180.24 114.22 L 179.50 114.19 C 179.60 113.37 179.80 111.72 179.90 110.89 C 181.29 111.97 183.04 111.73 184.65 111.48 C 184.60 111.92 184.50 112.79 184.46 113.23 C 186.35 113.83 188.23 114.44 190.18 114.82 C 189.49 114.15 188.79 113.48 188.09 112.81 C 188.32 112.35 188.78 111.44 189.00 110.99 C 187.86 110.36 186.72 109.73 185.58 109.11 L 184.76 110.51 L 184.88 109.25 C 185.18 108.73 185.79 107.69 186.09 107.17 C 183.49 105.81 180.29 105.07 178.57 102.49 C 175.19 97.86 171.30 93.61 166.91 89.92 C 167.20 91.65 167.71 93.34 168.38 94.97 C 167.81 94.61 166.68 93.90 166.11 93.54 C 165.50 93.79 164.29 94.29 163.68 94.54 C 163.94 94.13 164.46 93.31 164.72 92.90 C 163.29 91.08 161.62 89.47 159.79 88.06 C 156.76 89.50 160.17 92.28 161.38 93.78 M 148.09 99.11 C 145.70 100.36 143.35 103.18 145.45 105.86 C 145.71 105.23 146.22 103.98 146.48 103.35 C 148.00 102.67 149.48 101.91 150.94 101.11 C 150.05 100.36 149.10 99.69 148.09 99.11 M 180.42 224.69 C 182.55 223.70 184.47 222.34 186.17 220.73 C 183.22 218.36 180.39 221.75 180.42 224.69 M 141.25 226.86 C 143.25 228.96 145.35 230.97 147.55 232.87 C 149.96 230.43 153.02 228.84 156.19 227.61 C 155.31 227.09 154.43 226.57 153.55 226.05 C 153.67 224.70 153.78 223.34 153.89 221.99 C 152.54 221.82 151.19 221.66 149.85 221.49 C 147.49 224.01 144.43 225.62 141.25 226.86 Z" />
<path fill="#8cc174" opacity="1.00" d=" M 172.28 2.36 C 175.73 1.70 179.27 1.53 182.77 1.78 C 182.78 2.29 182.80 3.30 182.81 3.80 C 184.33 3.92 186.96 2.50 187.19 4.90 C 186.07 6.61 184.43 7.87 182.82 9.09 C 181.16 10.20 179.86 11.72 178.75 13.37 C 175.42 11.84 173.98 16.03 172.51 18.12 C 171.66 18.98 170.82 19.90 169.72 20.42 C 168.23 20.25 166.80 19.70 165.30 19.65 C 162.75 20.59 160.51 22.22 158.02 23.30 C 156.08 24.14 154.10 24.88 152.14 25.64 C 151.33 24.31 150.53 22.98 149.85 21.58 C 149.58 19.63 149.44 17.67 149.10 15.74 C 150.34 14.69 151.57 13.63 152.82 12.59 C 152.88 13.88 152.94 15.17 153.01 16.46 C 152.57 16.45 151.68 16.41 151.23 16.39 C 151.50 18.72 151.61 21.06 151.80 23.40 C 154.11 21.50 156.68 19.84 158.57 17.48 C 159.39 15.73 159.14 13.67 159.84 11.88 C 160.70 10.68 161.77 9.65 162.78 8.58 C 165.35 8.13 167.92 7.68 170.50 7.31 C 171.11 5.66 171.69 4.01 172.28 2.36 M 162.11 10.19 C 162.38 10.70 162.93 11.73 163.20 12.24 C 162.58 12.00 161.34 11.51 160.71 11.26 C 160.01 12.95 159.31 15.50 161.21 16.70 C 162.71 16.73 164.81 17.42 165.72 15.80 C 167.68 13.29 164.45 10.61 162.11 10.19 Z" />
<path fill="#56a178" opacity="1.00" d=" M 182.77 1.78 C 185.50 2.18 188.21 2.81 190.77 3.84 C 190.21 5.73 189.66 7.62 189.05 9.50 C 188.87 9.79 188.50 10.36 188.32 10.64 C 186.48 10.13 184.65 9.62 182.82 9.09 C 184.43 7.87 186.07 6.61 187.19 4.90 C 186.96 2.50 184.33 3.92 182.81 3.80 C 182.80 3.30 182.78 2.29 182.77 1.78 Z" />
<path fill="#def171" opacity="1.00" d=" M 152.82 12.59 C 158.38 7.71 164.90 3.70 172.28 2.36 C 171.69 4.01 171.11 5.66 170.50 7.31 C 167.92 7.68 165.35 8.13 162.78 8.58 C 161.77 9.65 160.70 10.68 159.84 11.88 C 159.14 13.67 159.39 15.73 158.57 17.48 C 156.68 19.84 154.11 21.50 151.80 23.40 C 151.61 21.06 151.50 18.72 151.23 16.39 C 151.68 16.41 152.57 16.45 153.01 16.46 C 152.94 15.17 152.88 13.88 152.82 12.59 Z" />
<path fill="#1b697b" opacity="1.00" d=" M 190.77 3.84 C 191.71 4.48 192.64 5.13 193.56 5.81 C 192.04 7.02 190.50 8.22 189.05 9.50 C 189.66 7.62 190.21 5.73 190.77 3.84 Z" />
<path fill="#2c9195" opacity="1.00" d=" M 147.58 5.59 C 148.81 4.71 149.30 5.09 149.05 6.73 C 148.68 6.44 147.95 5.87 147.58 5.59 Z" />
<path fill="#86c27c" opacity="1.00" d=" M 146.87 6.33 C 147.05 6.14 147.40 5.77 147.58 5.59 C 147.95 5.87 148.68 6.44 149.05 6.73 C 148.94 7.27 148.73 8.36 148.63 8.91 C 147.32 12.41 145.46 15.68 144.24 19.22 C 143.44 20.66 143.67 22.63 145.23 23.49 L 145.20 23.50 C 142.27 24.27 139.29 24.84 136.39 25.69 C 137.87 23.25 141.64 23.28 143.11 21.26 C 141.49 20.41 139.60 20.39 137.83 20.09 C 141.43 19.61 141.20 15.36 143.14 13.09 C 144.85 11.09 146.94 9.22 146.87 6.33 Z" />
<path fill="#c7e575" opacity="1.00" d=" M 137.09 16.15 C 139.63 12.24 143.43 9.40 146.87 6.33 C 146.94 9.22 144.85 11.09 143.14 13.09 C 141.20 15.36 141.43 19.61 137.83 20.09 L 136.57 20.06 C 136.58 18.76 136.27 17.29 137.09 16.15 Z" />
<path fill="#188098" opacity="1.00" d=" M 144.24 19.22 C 145.46 15.68 147.32 12.41 148.63 8.91 C 148.17 11.20 148.20 13.56 149.10 15.74 C 149.44 17.67 149.58 19.63 149.85 21.58 C 148.34 22.29 146.82 23.00 145.23 23.49 C 143.67 22.63 143.44 20.66 144.24 19.22 Z" />
<path fill="#4d9c7b" opacity="1.00" d=" M 182.82 9.09 C 184.65 9.62 186.48 10.13 188.32 10.64 C 188.14 10.92 187.79 11.46 187.61 11.73 C 187.17 12.40 186.73 13.07 186.29 13.73 C 184.70 13.26 183.16 12.23 181.46 12.37 C 180.07 13.39 179.87 15.34 179.17 16.84 C 176.99 17.45 174.75 17.84 172.51 18.12 C 173.98 16.03 175.42 11.84 178.75 13.37 C 179.86 11.72 181.16 10.20 182.82 9.09 Z" />
<path fill="#3b0b1b" opacity="1.00" d=" M 162.11 10.19 C 164.45 10.61 167.68 13.29 165.72 15.80 C 164.81 17.42 162.71 16.73 161.21 16.70 C 159.31 15.50 160.01 12.95 160.71 11.26 C 160.96 12.54 159.87 15.69 162.08 15.70 C 162.75 15.78 164.07 15.94 164.74 16.02 C 164.77 15.26 164.82 13.73 164.85 12.96 C 164.44 12.78 163.61 12.42 163.20 12.24 C 162.93 11.73 162.38 10.70 162.11 10.19 Z" />
<path fill="#f95290" opacity="1.00" d=" M 160.71 11.26 C 161.34 11.51 162.58 12.00 163.20 12.24 C 163.61 12.42 164.44 12.78 164.85 12.96 C 164.82 13.73 164.77 15.26 164.74 16.02 C 164.07 15.94 162.75 15.78 162.08 15.70 C 159.87 15.69 160.96 12.54 160.71 11.26 Z" />
<path fill="#156883" opacity="1.00" d=" M 181.46 12.37 C 183.16 12.23 184.70 13.26 186.29 13.73 C 186.73 13.07 187.17 12.40 187.61 11.73 C 187.76 12.52 188.05 14.09 188.20 14.87 C 187.48 15.96 186.76 17.05 186.08 18.16 C 186.42 18.38 187.09 18.81 187.43 19.02 C 187.10 19.34 186.44 19.98 186.11 20.30 C 184.45 20.97 182.74 21.51 181.04 22.07 C 181.30 21.53 181.82 20.45 182.09 19.91 C 181.75 20.01 181.08 20.21 180.75 20.31 C 180.23 19.15 179.70 17.99 179.17 16.84 C 179.87 15.34 180.07 13.39 181.46 12.37 Z" />
<path fill="#6eb27b" opacity="1.00" d=" M 172.51 18.12 C 174.75 17.84 176.99 17.45 179.17 16.84 C 179.70 17.99 180.23 19.15 180.75 20.31 C 178.97 21.33 177.00 20.91 175.13 20.50 C 175.36 21.89 175.59 23.28 175.82 24.67 C 174.54 24.16 173.27 23.65 172.00 23.14 C 172.11 24.41 172.23 25.68 172.36 26.95 L 171.73 26.18 C 171.13 25.12 170.57 24.05 170.03 22.96 C 166.99 24.60 165.27 27.65 163.24 30.30 C 163.11 29.47 162.85 27.82 162.73 27.00 L 163.17 26.16 C 163.26 25.99 163.44 25.66 163.54 25.49 C 161.69 24.77 159.85 24.04 158.02 23.30 C 160.51 22.22 162.75 20.59 165.30 19.65 C 166.80 19.70 168.23 20.25 169.72 20.42 C 170.82 19.90 171.66 18.98 172.51 18.12 Z" />
<path fill="#082153" opacity="1.00" d=" M 187.43 19.02 C 190.71 21.20 195.40 22.74 196.43 26.99 C 195.77 30.84 193.16 33.91 191.11 37.10 C 192.96 40.98 196.23 44.87 195.50 49.41 C 194.05 53.26 189.21 53.34 185.74 53.56 C 185.71 53.01 185.66 51.90 185.63 51.35 C 184.82 51.74 184.01 52.14 183.20 52.54 C 181.73 52.46 180.26 52.38 178.79 52.37 C 177.18 53.27 175.55 54.26 174.42 55.75 C 173.71 60.46 177.28 64.23 181.08 66.37 C 181.04 66.81 180.96 67.69 180.92 68.13 C 177.58 68.02 174.33 67.20 171.19 66.08 C 172.28 68.45 174.73 70.90 173.67 73.67 C 170.70 76.33 166.54 76.88 162.79 77.68 C 158.15 79.00 153.76 75.72 149.10 77.00 C 149.08 76.21 149.03 74.62 149.00 73.83 C 151.13 73.69 153.27 73.55 155.41 73.39 C 155.45 72.34 155.49 71.28 155.51 70.22 C 156.04 70.29 157.08 70.44 157.61 70.51 C 159.05 69.30 160.60 68.18 161.83 66.74 C 162.94 64.08 163.03 61.14 163.51 58.33 C 164.63 58.88 165.75 59.45 166.92 59.91 C 168.87 57.81 169.28 54.88 169.82 52.19 C 168.59 52.85 167.36 53.52 166.14 54.19 C 164.67 53.76 163.19 53.34 161.73 52.86 L 161.15 52.26 C 161.45 51.96 162.04 51.34 162.34 51.04 C 162.52 50.85 162.88 50.48 163.06 50.29 C 164.72 49.87 166.39 49.50 168.05 49.09 C 169.66 47.75 171.55 46.83 173.56 46.26 C 172.88 45.56 172.21 44.85 171.55 44.14 C 172.15 44.25 173.33 44.48 173.92 44.59 C 175.38 44.27 177.12 44.19 178.07 42.84 C 178.59 41.20 178.21 39.45 178.15 37.77 C 178.15 35.70 175.54 35.14 174.03 36.02 C 173.38 36.26 172.10 36.72 171.46 36.96 C 171.74 36.49 172.30 35.54 172.58 35.07 C 173.55 33.43 174.36 31.67 174.52 29.74 L 174.70 30.08 C 174.87 30.41 175.20 31.07 175.37 31.40 C 178.20 32.43 181.24 32.54 184.21 32.85 C 185.86 31.92 187.52 31.00 189.17 30.07 C 187.02 29.62 184.87 29.19 182.71 28.78 C 182.04 25.44 183.63 22.46 186.11 20.30 C 186.44 19.98 187.10 19.34 187.43 19.02 M 178.66 36.86 C 178.92 38.95 179.35 41.23 181.94 41.22 C 182.25 39.30 182.55 37.37 182.84 35.44 C 181.44 35.92 180.05 36.40 178.66 36.86 M 166.05 62.95 C 165.33 65.44 168.31 66.32 169.97 65.09 C 171.77 64.41 170.99 62.63 170.83 61.22 C 169.15 61.61 165.79 60.14 166.05 62.95 Z" />
<path fill="#3a968f" opacity="1.00" d=" M 136.57 20.06 L 137.83 20.09 C 139.60 20.39 141.49 20.41 143.11 21.26 C 141.64 23.28 137.87 23.25 136.39 25.69 L 135.80 26.39 C 133.73 25.84 131.67 25.26 129.62 24.67 C 131.89 23.52 134.30 22.71 136.62 21.69 C 136.61 21.29 136.58 20.47 136.57 20.06 Z" />
<path fill="#258085" opacity="1.00" d=" M 175.13 20.50 C 177.00 20.91 178.97 21.33 180.75 20.31 C 181.08 20.21 181.75 20.01 182.09 19.91 C 181.82 20.45 181.30 21.53 181.04 22.07 C 179.40 25.10 176.78 27.38 174.70 30.08 L 174.52 29.74 C 173.88 28.75 173.10 27.86 172.36 26.95 C 172.23 25.68 172.11 24.41 172.00 23.14 C 173.27 23.65 174.54 24.16 175.82 24.67 C 175.59 23.28 175.36 21.89 175.13 20.50 Z" />
<path fill="#125377" opacity="1.00" d=" M 181.04 22.07 C 182.74 21.51 184.45 20.97 186.11 20.30 C 183.63 22.46 182.04 25.44 182.71 28.78 C 184.87 29.19 187.02 29.62 189.17 30.07 C 187.52 31.00 185.86 31.92 184.21 32.85 C 181.24 32.54 178.20 32.43 175.37 31.40 C 175.20 31.07 174.87 30.41 174.70 30.08 C 176.78 27.38 179.40 25.10 181.04 22.07 Z" />
<path fill="#59aa84" opacity="1.00" d=" M 145.23 23.49 C 146.82 23.00 148.34 22.29 149.85 21.58 C 150.53 22.98 151.33 24.31 152.14 25.64 C 154.10 24.88 156.08 24.14 158.02 23.30 C 159.85 24.04 161.69 24.77 163.54 25.49 C 163.44 25.66 163.26 25.99 163.17 26.16 C 160.87 25.85 158.60 25.33 156.29 25.28 C 153.39 27.62 154.69 30.94 156.44 33.49 C 156.24 33.45 155.82 33.36 155.62 33.31 C 154.87 33.08 154.13 32.81 153.39 32.56 C 153.31 33.08 153.14 34.12 153.05 34.64 C 152.07 34.52 151.10 34.39 150.12 34.28 C 148.64 35.97 146.94 37.45 145.16 38.81 C 145.69 39.59 146.23 40.37 146.76 41.15 C 146.31 41.11 145.42 41.05 144.97 41.01 C 144.41 40.52 143.85 40.03 143.30 39.53 C 142.89 39.89 142.09 40.60 141.68 40.95 C 141.48 39.59 141.17 38.17 141.73 36.84 C 143.96 36.82 146.11 36.23 148.04 35.12 C 147.55 34.19 147.06 33.25 146.58 32.31 C 148.05 29.32 148.59 25.42 145.20 23.50 L 145.23 23.49 Z" />
<path fill="#d5eb71" opacity="1.00" d=" M 163.24 30.30 C 165.27 27.65 166.99 24.60 170.03 22.96 C 170.57 24.05 171.13 25.12 171.73 26.18 L 172.36 26.95 C 173.10 27.86 173.88 28.75 174.52 29.74 C 174.36 31.67 173.55 33.43 172.58 35.07 C 170.01 33.67 167.13 33.19 164.24 33.18 C 164.70 33.67 165.17 34.16 165.64 34.64 C 164.56 34.59 163.48 34.56 162.40 34.49 C 162.73 33.10 163.04 31.71 163.24 30.30 Z" />
<path fill="#c9e471" opacity="1.00" d=" M 136.39 25.69 C 139.29 24.84 142.27 24.27 145.20 23.50 C 145.61 24.66 146.02 25.81 146.43 26.97 C 144.82 28.93 143.26 30.93 141.78 33.00 C 140.82 33.14 139.86 33.29 138.90 33.44 C 137.65 32.56 136.40 31.68 135.12 30.85 C 135.34 29.36 135.54 27.87 135.80 26.39 L 136.39 25.69 Z" />
<path fill="#96c876" opacity="1.00" d=" M 145.20 23.50 C 148.59 25.42 148.05 29.32 146.58 32.31 C 144.98 32.53 143.37 32.75 141.78 33.00 C 143.26 30.93 144.82 28.93 146.43 26.97 C 146.02 25.81 145.61 24.66 145.20 23.50 Z" />
<path fill="#58a77e" opacity="1.00" d=" M 128.06 27.19 C 128.56 26.34 129.08 25.50 129.62 24.67 C 131.67 25.26 133.73 25.84 135.80 26.39 C 135.54 27.87 135.34 29.36 135.12 30.85 C 133.11 30.02 130.98 29.56 128.86 29.12 C 128.66 28.63 128.26 27.67 128.06 27.19 Z" />
<path fill="#1a8096" opacity="1.00" d=" M 156.29 25.28 C 158.60 25.33 160.87 25.85 163.17 26.16 L 162.73 27.00 C 161.90 30.36 158.31 30.99 156.44 33.49 C 154.69 30.94 153.39 27.62 156.29 25.28 Z" />
<path fill="#157d98" opacity="1.00" d=" M 126.31 29.83 C 126.95 28.99 127.50 28.09 128.06 27.19 C 128.26 27.67 128.66 28.63 128.86 29.12 C 130.98 29.56 133.11 30.02 135.12 30.85 C 136.40 31.68 137.65 32.56 138.90 33.44 C 139.86 33.29 140.82 33.14 141.78 33.00 C 143.37 32.75 144.98 32.53 146.58 32.31 C 147.06 33.25 147.55 34.19 148.04 35.12 C 146.11 36.23 143.96 36.82 141.73 36.84 C 141.15 36.83 140.00 36.80 139.42 36.79 C 138.58 36.76 136.90 36.70 136.05 36.67 C 135.44 35.26 135.83 32.93 134.03 32.37 C 132.79 32.22 131.56 32.27 130.34 32.52 C 130.02 33.91 129.87 35.34 129.64 36.75 C 129.67 33.88 129.24 31.04 126.31 29.83 Z" />
<path fill="#529979" opacity="1.00" d=" M 156.44 33.49 C 158.31 30.99 161.90 30.36 162.73 27.00 C 162.85 27.82 163.11 29.47 163.24 30.30 C 163.04 31.71 162.73 33.10 162.40 34.49 C 161.93 34.45 160.99 34.36 160.51 34.32 C 159.16 34.04 157.80 33.74 156.44 33.49 Z" />
<path fill="#d4eb70" opacity="1.00" d=" M 122.51 33.43 C 122.95 31.54 124.32 30.10 126.31 29.83 C 129.24 31.04 129.67 33.88 129.64 36.75 C 130.04 37.19 130.83 38.08 131.23 38.52 C 131.98 40.09 130.17 41.13 129.26 42.12 C 127.85 43.16 125.84 45.63 124.50 43.09 C 124.65 40.93 125.96 39.14 126.95 37.29 C 125.04 37.64 123.12 37.97 121.21 38.30 C 120.72 36.44 120.21 34.58 119.66 32.74 C 120.61 32.97 121.55 33.23 122.51 33.43 Z" />
<path fill="#000000" opacity="1.00" d=" M 130.34 32.52 C 131.56 32.27 132.79 32.22 134.03 32.37 C 135.83 32.93 135.44 35.26 136.05 36.67 C 134.54 37.51 132.95 38.24 131.23 38.52 C 130.83 38.08 130.04 37.19 129.64 36.75 C 129.87 35.34 130.02 33.91 130.34 32.52 M 131.04 32.90 C 130.88 33.24 130.57 33.91 130.41 34.25 C 130.48 35.05 130.63 36.64 130.70 37.44 C 132.88 38.62 135.51 36.67 134.76 34.27 C 135.08 32.58 132.74 33.36 132.04 33.86 L 131.89 33.10 L 131.04 32.90 Z" />
<path fill="#7ab575" opacity="1.00" d=" M 153.39 32.56 C 154.13 32.81 154.87 33.08 155.62 33.31 C 155.82 33.36 156.24 33.45 156.44 33.49 C 157.80 33.74 159.16 34.04 160.51 34.32 C 160.99 34.36 161.93 34.45 162.40 34.49 C 163.48 34.56 164.56 34.59 165.64 34.64 C 165.17 34.16 164.70 33.67 164.24 33.18 C 167.13 33.19 170.01 33.67 172.58 35.07 C 172.30 35.54 171.74 36.49 171.46 36.96 C 171.22 37.30 170.76 37.97 170.52 38.31 C 169.33 38.99 168.17 39.70 167.03 40.46 C 165.84 39.32 164.65 38.19 163.46 37.06 C 163.11 38.16 162.76 39.27 162.42 40.37 C 161.97 40.54 161.07 40.88 160.62 41.05 C 159.50 40.14 158.26 37.65 156.51 38.71 C 154.07 39.52 154.15 42.33 153.49 44.36 C 154.09 44.62 155.29 45.13 155.89 45.38 C 157.29 44.91 158.83 44.56 159.90 43.45 C 160.86 45.93 161.73 48.45 162.34 51.04 C 162.04 51.34 161.45 51.96 161.15 52.26 C 159.93 51.02 158.76 49.74 157.60 48.46 C 156.13 48.60 154.67 48.74 153.21 48.88 C 153.75 53.10 154.23 58.43 149.80 60.78 C 147.90 60.03 146.03 59.21 144.15 58.42 C 147.55 58.77 150.49 56.81 151.99 53.85 C 153.13 52.33 151.25 50.70 150.89 49.20 C 151.25 47.86 151.59 46.52 151.93 45.18 C 150.57 45.12 149.22 45.06 147.87 45.01 C 146.95 43.64 145.99 42.30 144.97 41.01 C 145.42 41.05 146.31 41.11 146.76 41.15 C 146.23 40.37 145.69 39.59 145.16 38.81 C 146.94 37.45 148.64 35.97 150.12 34.28 C 151.10 34.39 152.07 34.52 153.05 34.64 C 153.14 34.12 153.31 33.08 153.39 32.56 M 151.25 38.09 C 150.13 38.49 149.42 40.71 150.98 41.00 C 152.89 41.25 153.61 37.17 151.25 38.09 Z" />
<path fill="#f9c395" opacity="1.00" d=" M 131.04 32.90 L 131.89 33.10 L 132.04 33.86 C 131.63 33.96 130.82 34.15 130.41 34.25 C 130.57 33.91 130.88 33.24 131.04 32.90 Z" />
<path fill="#f95290" opacity="1.00" d=" M 132.04 33.86 C 132.74 33.36 135.08 32.58 134.76 34.27 C 135.51 36.67 132.88 38.62 130.70 37.44 C 130.63 36.64 130.48 35.05 130.41 34.25 C 130.82 34.15 131.63 33.96 132.04 33.86 Z" />
<path fill="#6db276" opacity="1.00" d=" M 118.93 36.03 C 119.11 35.21 119.47 33.56 119.66 32.74 C 120.21 34.58 120.72 36.44 121.21 38.30 C 123.12 37.97 125.04 37.64 126.95 37.29 C 125.96 39.14 124.65 40.93 124.50 43.09 C 125.84 45.63 127.85 43.16 129.26 42.12 C 130.17 41.13 131.98 40.09 131.23 38.52 C 132.95 38.24 134.54 37.51 136.05 36.67 C 136.90 36.70 138.58 36.76 139.42 36.79 C 138.40 37.52 137.37 38.24 136.33 38.95 C 136.41 39.18 136.56 39.63 136.64 39.86 C 135.21 41.32 133.59 42.61 132.31 44.21 C 132.02 45.63 133.16 46.74 133.72 47.91 C 134.30 47.06 134.87 46.21 135.45 45.37 C 136.23 46.14 137.02 46.91 137.82 47.68 C 138.57 48.39 139.33 49.09 140.08 49.80 C 138.83 49.79 136.71 48.81 135.94 50.08 C 136.85 51.36 138.69 51.22 140.08 51.16 L 139.78 51.88 C 138.23 52.44 136.66 52.90 135.09 53.37 C 133.82 52.67 132.55 51.98 131.28 51.30 C 131.25 50.43 131.20 49.57 131.13 48.71 C 130.83 51.07 130.68 53.45 130.29 55.80 C 127.91 56.97 125.32 57.56 122.67 57.61 C 122.90 56.51 123.16 55.43 123.45 54.34 C 125.37 56.19 127.25 54.37 128.73 53.03 C 127.68 52.10 126.64 51.17 125.59 50.25 C 125.28 49.98 124.66 49.45 124.35 49.18 C 126.37 48.44 128.30 47.46 129.76 45.84 C 127.06 45.61 124.35 45.50 121.65 45.42 C 121.60 44.17 121.54 42.91 121.49 41.65 C 119.80 40.18 118.27 38.45 118.93 36.03 Z" />
<path fill="#136387" opacity="1.00" d=" M 178.66 36.86 C 180.05 36.40 181.44 35.92 182.84 35.44 C 182.55 37.37 182.25 39.30 181.94 41.22 C 179.35 41.23 178.92 38.95 178.66 36.86 Z" />
<path fill="#195268" opacity="1.00" d=" M 119.10 49.34 C 116.04 45.35 118.78 40.47 118.93 36.03 C 118.27 38.45 119.80 40.18 121.49 41.65 C 121.54 42.91 121.60 44.17 121.65 45.42 C 124.35 45.50 127.06 45.61 129.76 45.84 C 128.30 47.46 126.37 48.44 124.35 49.18 C 124.66 49.45 125.28 49.98 125.59 50.25 C 124.83 51.59 124.08 52.94 123.45 54.34 C 123.16 55.43 122.90 56.51 122.67 57.61 C 125.32 57.56 127.91 56.97 130.29 55.80 L 130.17 56.41 C 129.71 58.17 129.54 59.98 129.48 61.79 C 128.30 61.98 127.13 62.17 125.97 62.36 C 123.98 61.22 121.97 60.11 119.96 59.01 C 119.93 60.86 119.90 62.71 119.87 64.57 C 119.48 64.56 118.71 64.55 118.32 64.54 C 118.82 61.35 118.50 58.12 118.73 54.92 C 119.38 53.85 120.86 54.36 121.89 54.07 C 121.83 53.66 121.70 52.86 121.63 52.46 C 119.47 52.41 117.31 52.35 115.14 52.27 C 115.25 51.87 115.47 51.06 115.58 50.66 C 116.74 50.18 117.92 49.76 119.10 49.34 Z" />
<path fill="#3b0b1b" opacity="1.00" d=" M 174.03 36.02 C 175.54 35.14 178.15 35.70 178.15 37.77 C 177.48 37.61 176.13 37.28 175.46 37.12 C 175.10 36.85 174.39 36.30 174.03 36.02 Z" />
<path fill="#87bf78" opacity="1.00" d=" M 139.42 36.79 C 140.00 36.80 141.15 36.83 141.73 36.84 C 141.17 38.17 141.48 39.59 141.68 40.95 C 142.09 40.60 142.89 39.89 143.30 39.53 C 143.85 40.03 144.41 40.52 144.97 41.01 C 145.99 42.30 146.95 43.64 147.87 45.01 C 148.02 47.21 147.43 49.34 146.88 51.44 L 145.82 50.58 C 144.11 49.13 142.15 48.01 140.19 46.93 C 140.39 45.43 140.59 43.93 140.80 42.43 C 140.38 42.50 139.52 42.63 139.09 42.70 C 138.88 42.28 138.46 41.44 138.25 41.03 C 137.84 40.74 137.04 40.15 136.64 39.86 C 136.56 39.63 136.41 39.18 136.33 38.95 C 137.37 38.24 138.40 37.52 139.42 36.79 Z" />
<path fill="#4ea184" opacity="1.00" d=" M 163.46 37.06 C 164.65 38.19 165.84 39.32 167.03 40.46 C 166.71 40.67 166.08 41.10 165.76 41.32 C 164.43 41.67 163.08 41.94 161.72 42.12 C 161.77 42.84 161.88 44.28 161.94 44.99 C 163.52 44.40 165.10 43.80 166.68 43.21 C 165.91 44.94 165.15 46.67 164.39 48.40 C 164.16 48.41 163.70 48.43 163.47 48.43 C 163.37 48.90 163.17 49.83 163.06 50.29 C 162.88 50.48 162.52 50.85 162.34 51.04 C 161.73 48.45 160.86 45.93 159.90 43.45 C 160.08 42.85 160.44 41.65 160.62 41.05 C 161.07 40.88 161.97 40.54 162.42 40.37 C 162.76 39.27 163.11 38.16 163.46 37.06 Z" />
<path fill="#000000" opacity="1.00" d=" M 170.52 38.31 C 170.76 37.97 171.22 37.30 171.46 36.96 C 172.10 36.72 173.38 36.26 174.03 36.02 L 173.77 37.11 C 173.22 37.43 172.12 38.08 171.57 38.40 C 171.37 38.74 170.97 39.41 170.77 39.75 C 170.78 40.60 170.79 42.30 170.79 43.15 C 170.34 41.90 169.92 40.64 169.53 39.37 C 168.30 40.08 167.08 40.80 165.76 41.32 C 166.08 41.10 166.71 40.67 167.03 40.46 C 168.17 39.70 169.33 38.99 170.52 38.31 Z" />
<path fill="#f95290" opacity="1.00" d=" M 174.03 36.02 C 174.39 36.30 175.10 36.85 175.46 37.12 C 174.95 39.61 174.42 42.10 173.92 44.59 C 173.33 44.48 172.15 44.25 171.55 44.14 C 171.36 43.89 170.98 43.40 170.79 43.15 C 170.79 42.30 170.78 40.60 170.77 39.75 C 172.42 39.99 172.68 39.54 171.57 38.40 C 172.12 38.08 173.22 37.43 173.77 37.11 L 174.03 36.02 Z" />
<path fill="#c02479" opacity="1.00" d=" M 175.46 37.12 C 176.13 37.28 177.48 37.61 178.15 37.77 C 178.21 39.45 178.59 41.20 178.07 42.84 C 177.12 44.19 175.38 44.27 173.92 44.59 C 174.42 42.10 174.95 39.61 175.46 37.12 Z" />
<path fill="#5c946c" opacity="1.00" d=" M 151.25 38.09 C 153.61 37.17 152.89 41.25 150.98 41.00 C 149.42 40.71 150.13 38.49 151.25 38.09 Z" />
<path fill="#000000" opacity="1.00" d=" M 156.51 38.71 C 158.26 37.65 159.50 40.14 160.62 41.05 C 160.44 41.65 160.08 42.85 159.90 43.45 C 158.83 44.56 157.29 44.91 155.89 45.38 C 155.29 45.13 154.09 44.62 153.49 44.36 C 154.15 42.33 154.07 39.52 156.51 38.71 M 154.52 42.01 L 154.98 42.30 C 154.39 43.95 156.57 44.58 157.75 43.98 C 161.06 43.45 159.41 37.29 156.44 39.71 L 155.51 39.83 C 155.26 40.38 154.77 41.47 154.52 42.01 Z" />
<path fill="#f7c195" opacity="1.00" d=" M 170.77 39.75 C 170.97 39.41 171.37 38.74 171.57 38.40 C 172.68 39.54 172.42 39.99 170.77 39.75 Z" />
<path fill="#e3f36f" opacity="1.00" d=" M 136.64 39.86 C 137.04 40.15 137.84 40.74 138.25 41.03 C 138.46 41.44 138.88 42.28 139.09 42.70 C 138.66 44.35 138.24 46.01 137.82 47.68 C 137.02 46.91 136.23 46.14 135.45 45.37 C 134.87 46.21 134.30 47.06 133.72 47.91 C 133.16 46.74 132.02 45.63 132.31 44.21 C 133.59 42.61 135.21 41.32 136.64 39.86 Z" />
<path fill="#dd7982" opacity="1.00" d=" M 154.52 42.01 C 154.77 41.47 155.26 40.38 155.51 39.83 L 156.44 39.71 C 156.34 40.78 155.86 41.64 154.98 42.30 L 154.52 42.01 Z" />
<path fill="#c7267d" opacity="1.00" d=" M 156.44 39.71 C 159.41 37.29 161.06 43.45 157.75 43.98 C 156.57 44.58 154.39 43.95 154.98 42.30 C 155.86 41.64 156.34 40.78 156.44 39.71 Z" />
<path fill="#379187" opacity="1.00" d=" M 165.76 41.32 C 167.08 40.80 168.30 40.08 169.53 39.37 C 169.92 40.64 170.34 41.90 170.79 43.15 C 170.98 43.40 171.36 43.89 171.55 44.14 C 172.21 44.85 172.88 45.56 173.56 46.26 C 171.55 46.83 169.66 47.75 168.05 49.09 C 166.39 49.50 164.72 49.87 163.06 50.29 C 163.17 49.83 163.37 48.90 163.47 48.43 C 163.70 48.43 164.16 48.41 164.39 48.40 C 165.15 46.67 165.91 44.94 166.68 43.21 C 165.10 43.80 163.52 44.40 161.94 44.99 C 161.88 44.28 161.77 42.84 161.72 42.12 C 163.08 41.94 164.43 41.67 165.76 41.32 Z" />
<path fill="#4fa385" opacity="1.00" d=" M 139.09 42.70 C 139.52 42.63 140.38 42.50 140.80 42.43 C 140.59 43.93 140.39 45.43 140.19 46.93 C 142.15 48.01 144.11 49.13 145.82 50.58 C 145.48 53.24 144.81 55.83 144.15 58.42 C 142.68 58.54 141.59 59.61 140.42 60.37 C 136.82 58.63 138.89 54.65 139.78 51.88 L 140.08 51.16 C 140.19 50.92 140.39 50.43 140.49 50.19 L 140.08 49.80 C 139.33 49.09 138.57 48.39 137.82 47.68 C 138.24 46.01 138.66 44.35 139.09 42.70 Z" />
<path fill="#a9d377" opacity="1.00" d=" M 147.87 45.01 C 149.22 45.06 150.57 45.12 151.93 45.18 C 151.59 46.52 151.25 47.86 150.89 49.20 C 149.75 50.24 148.58 51.65 146.88 51.44 C 147.43 49.34 148.02 47.21 147.87 45.01 Z" />
<path fill="#439b88" opacity="1.00" d=" M 153.21 48.88 C 154.67 48.74 156.13 48.60 157.60 48.46 C 158.76 49.74 159.93 51.02 161.15 52.26 L 161.73 52.86 C 160.38 54.32 158.60 55.25 156.73 55.87 C 155.96 55.71 155.19 55.55 154.42 55.39 C 153.93 57.59 153.44 59.78 152.94 61.97 C 151.89 61.57 150.84 61.19 149.80 60.78 C 154.23 58.43 153.75 53.10 153.21 48.88 Z" />
<path fill="#c4e374" opacity="1.00" d=" M 135.94 50.08 C 136.71 48.81 138.83 49.79 140.08 49.80 L 140.49 50.19 C 140.39 50.43 140.19 50.92 140.08 51.16 C 138.69 51.22 136.85 51.36 135.94 50.08 Z" />
<path fill="#ddef6f" opacity="1.00" d=" M 146.88 51.44 C 148.58 51.65 149.75 50.24 150.89 49.20 C 151.25 50.70 153.13 52.33 151.99 53.85 C 150.49 56.81 147.55 58.77 144.15 58.42 C 144.81 55.83 145.48 53.24 145.82 50.58 L 146.88 51.44 Z" />
<path fill="#a6cf71" opacity="1.00" d=" M 123.45 54.34 C 124.08 52.94 124.83 51.59 125.59 50.25 C 126.64 51.17 127.68 52.10 128.73 53.03 C 127.25 54.37 125.37 56.19 123.45 54.34 Z" />
<path fill="#3e9d8c" opacity="1.00" d=" M 183.20 52.54 C 184.01 52.14 184.82 51.74 185.63 51.35 C 185.66 51.90 185.71 53.01 185.74 53.56 L 184.21 53.61 L 185.18 54.93 C 186.06 60.14 179.42 61.18 175.74 59.76 C 177.15 57.48 178.19 54.99 178.79 52.37 C 180.26 52.38 181.73 52.46 183.20 52.54 Z" />
<path fill="#1a6b81" opacity="1.00" d=" M 115.14 52.27 C 117.31 52.35 119.47 52.41 121.63 52.46 C 121.70 52.86 121.83 53.66 121.89 54.07 C 120.86 54.36 119.38 53.85 118.73 54.92 C 118.50 58.12 118.82 61.35 118.32 64.54 C 115.23 64.71 111.93 64.25 110.32 61.26 C 112.18 58.42 114.63 55.77 115.14 52.27 Z" />
<path fill="#16718c" opacity="1.00" d=" M 131.40 55.81 C 131.33 54.30 131.30 52.80 131.28 51.30 C 132.55 51.98 133.82 52.67 135.09 53.37 C 136.66 52.90 138.23 52.44 139.78 51.88 C 138.89 54.65 136.82 58.63 140.42 60.37 C 141.59 59.61 142.68 58.54 144.15 58.42 C 146.03 59.21 147.90 60.03 149.80 60.78 C 150.84 61.19 151.89 61.57 152.94 61.97 C 153.44 59.78 153.93 57.59 154.42 55.39 C 155.19 55.55 155.96 55.71 156.73 55.87 C 158.60 55.25 160.38 54.32 161.73 52.86 C 163.19 53.34 164.67 53.76 166.14 54.19 C 167.36 53.52 168.59 52.85 169.82 52.19 C 169.28 54.88 168.87 57.81 166.92 59.91 C 165.75 59.45 164.63 58.88 163.51 58.33 C 163.03 61.14 162.94 64.08 161.83 66.74 C 160.60 68.18 159.05 69.30 157.61 70.51 C 157.08 70.44 156.04 70.29 155.51 70.22 C 155.49 67.71 155.51 65.19 155.65 62.68 C 154.33 65.49 151.78 66.90 148.73 66.82 C 146.95 68.08 145.32 70.15 142.88 69.66 C 139.90 68.26 140.17 64.43 139.39 61.71 C 137.66 61.04 135.93 60.37 134.20 59.70 C 134.25 58.32 134.30 56.93 134.35 55.55 C 133.62 55.61 132.14 55.74 131.40 55.81 Z" />
<path fill="#177d98" opacity="1.00" d=" M 174.42 55.75 C 175.55 54.26 177.18 53.27 178.79 52.37 C 178.19 54.99 177.15 57.48 175.74 59.76 C 179.42 61.18 186.06 60.14 185.18 54.93 C 186.59 56.91 188.55 59.12 187.74 61.76 C 186.21 63.73 183.51 63.38 181.32 63.77 C 181.26 64.42 181.14 65.72 181.08 66.37 C 177.28 64.23 173.71 60.46 174.42 55.75 Z" />
<path fill="#082150" opacity="1.00" d=" M 129.48 61.79 C 129.54 59.98 129.71 58.17 130.17 56.41 C 131.34 57.14 132.52 57.87 133.69 58.61 C 132.60 60.43 131.39 62.17 130.31 63.99 C 129.79 63.83 128.76 63.51 128.24 63.35 C 127.04 65.15 129.43 66.47 130.46 64.62 L 130.72 64.47 C 130.98 65.04 131.51 66.17 131.78 66.73 C 129.78 69.46 126.43 67.70 123.79 67.24 C 123.69 65.43 123.57 63.63 123.43 61.83 C 123.03 63.63 121.75 65.90 123.58 67.36 C 126.11 69.31 129.60 68.55 132.57 68.84 C 132.55 71.00 132.54 73.17 132.54 75.33 C 131.35 75.68 130.16 76.04 128.98 76.39 C 128.56 74.78 128.15 73.16 127.66 71.57 C 127.28 71.44 126.50 71.16 126.11 71.02 C 125.75 70.89 125.04 70.65 124.68 70.53 C 120.93 67.88 116.04 68.85 112.04 66.95 C 109.92 65.87 110.03 63.27 110.32 61.26 C 111.93 64.25 115.23 64.71 118.32 64.54 C 118.71 64.55 119.48 64.56 119.87 64.57 C 119.90 62.71 119.93 60.86 119.96 59.01 C 121.97 60.11 123.98 61.22 125.97 62.36 C 127.13 62.17 128.30 61.98 129.48 61.79 Z" />
<path fill="#c7267d" opacity="1.00" d=" M 166.05 62.95 C 165.79 60.14 169.15 61.61 170.83 61.22 C 170.99 62.63 171.77 64.41 169.97 65.09 C 168.31 66.32 165.33 65.44 166.05 62.95 Z" />
<path fill="#c9dfc3" opacity="1.00" d=" M 130.72 64.47 C 132.36 63.37 134.03 62.30 135.69 61.22 C 136.79 61.86 137.89 62.48 139.01 63.10 C 139.65 66.18 139.80 70.22 143.36 71.42 C 143.52 72.42 143.59 73.43 143.68 74.44 C 138.22 74.85 134.90 70.43 131.78 66.73 C 131.51 66.17 130.98 65.04 130.72 64.47 Z" />
<path fill="#020812" opacity="1.00" d=" M 128.24 63.35 C 128.76 63.51 129.79 63.83 130.31 63.99 L 130.46 64.62 C 129.43 66.47 127.04 65.15 128.24 63.35 Z" />
<path fill="#f95290" opacity="1.00" d=" M 151.56 68.48 C 151.93 68.11 152.66 67.35 153.03 66.97 C 154.55 68.61 156.15 72.30 152.93 73.07 C 150.35 74.34 148.84 71.04 149.54 68.90 L 149.64 68.40 C 150.12 68.42 151.08 68.46 151.56 68.48 Z" />
<path fill="#386f76" opacity="1.00" d=" M 148.43 68.43 C 148.73 68.42 149.34 68.41 149.64 68.40 L 149.54 68.90 C 147.68 70.85 145.65 72.61 143.68 74.44 C 143.59 73.43 143.52 72.42 143.36 71.42 C 145.09 70.48 146.74 69.41 148.43 68.43 Z" />
<path fill="#f95290" opacity="1.00" d=" M 132.91 70.33 C 134.88 71.39 136.63 72.78 138.29 74.26 C 137.73 74.61 136.60 75.31 136.04 75.66 C 135.88 75.62 135.57 75.55 135.42 75.52 C 133.26 74.65 133.32 72.23 132.91 70.33 Z" />
<path fill="#285c70" opacity="1.00" d=" M 142.04 77.80 C 144.39 76.57 146.46 74.90 148.54 73.27 C 148.75 76.05 147.47 78.27 144.88 79.29 C 144.17 78.92 142.75 78.17 142.04 77.80 Z" />
<path fill="#62847d" opacity="1.00" d=" M 140.35 78.57 C 140.90 78.30 141.47 78.05 142.04 77.80 C 142.75 78.17 144.17 78.92 144.88 79.29 L 145.98 79.23 C 144.30 79.82 142.64 80.46 140.97 81.10 C 140.82 80.47 140.50 79.20 140.35 78.57 Z" />
<path fill="#cae0c3" opacity="1.00" d=" M 145.98 79.23 C 149.79 77.96 155.00 76.13 157.60 80.43 C 156.85 81.49 156.09 82.53 155.32 83.59 C 155.93 83.78 157.13 84.18 157.74 84.38 C 156.83 85.79 155.94 87.21 155.04 88.62 C 154.29 87.26 153.57 85.88 152.84 84.51 C 152.17 83.30 151.46 82.12 150.76 80.94 C 149.88 82.34 149.00 83.74 148.13 85.15 C 147.30 83.75 146.47 82.35 145.64 80.96 C 144.69 81.38 143.74 81.79 142.81 82.26 C 141.75 83.71 140.80 85.24 139.88 86.78 C 139.73 85.53 139.58 84.27 139.44 83.01 C 138.98 83.72 138.53 84.42 138.06 85.12 C 137.63 85.09 136.78 85.03 136.36 85.00 C 135.99 84.73 135.26 84.18 134.90 83.90 C 136.82 82.24 138.58 80.40 140.35 78.57 C 140.50 79.20 140.82 80.47 140.97 81.10 C 142.64 80.46 144.30 79.82 145.98 79.23 Z" />
<path fill="#256276" opacity="1.00" d=" M 142.81 82.26 C 143.74 81.79 144.69 81.38 145.64 80.96 C 146.47 82.35 147.30 83.75 148.13 85.15 C 149.00 83.74 149.88 82.34 150.76 80.94 C 151.46 82.12 152.17 83.30 152.84 84.51 C 151.54 85.96 150.24 87.53 148.35 88.21 C 147.65 87.01 146.97 85.81 146.30 84.60 C 144.80 86.24 144.76 88.48 144.62 90.57 L 143.63 91.19 C 143.60 90.37 143.56 88.74 143.53 87.93 C 143.44 88.79 143.27 90.52 143.18 91.38 C 142.73 91.00 141.82 90.24 141.36 89.86 C 141.64 89.13 142.21 87.69 142.49 86.97 C 142.57 86.85 142.73 86.60 142.81 86.48 C 143.64 85.63 144.47 84.79 145.31 83.95 C 144.68 83.53 143.43 82.68 142.81 82.26 Z" />
<path fill="#3b4c33" opacity="1.00" d=" M 133.09 83.38 C 133.54 83.51 134.44 83.77 134.90 83.90 C 135.26 84.18 135.99 84.73 136.36 85.00 L 136.41 85.73 C 135.54 86.38 134.58 86.59 133.51 86.37 C 133.32 85.38 133.17 84.38 133.09 83.38 Z" />
<path fill="#678a58" opacity="1.00" d=" M 139.88 86.78 C 140.80 85.24 141.75 83.71 142.81 82.26 C 143.43 82.68 144.68 83.53 145.31 83.95 C 144.47 84.79 143.64 85.63 142.81 86.48 L 142.61 86.68 L 142.49 86.97 C 142.21 87.69 141.64 89.13 141.36 89.86 C 140.83 88.85 140.33 87.83 139.88 86.78 Z" />
<path fill="#6ca29d" opacity="1.00" d=" M 136.36 85.00 C 136.78 85.03 137.63 85.09 138.06 85.12 C 138.75 86.54 139.33 88.02 140.00 89.46 C 138.69 89.71 137.41 90.07 136.14 90.46 C 136.48 88.90 136.53 87.31 136.41 85.73 L 136.36 85.00 Z" />
<path fill="#1a8293" opacity="1.00" d=" M 144.62 90.57 C 144.76 88.48 144.80 86.24 146.30 84.60 C 146.97 85.81 147.65 87.01 148.35 88.21 C 147.11 89.00 145.88 89.81 144.62 90.57 Z" />
<path fill="#9db29a" opacity="1.00" d=" M 157.74 84.38 C 158.31 85.65 158.88 86.93 159.44 88.20 C 158.10 88.57 156.75 88.93 155.38 89.22 L 155.04 88.62 C 155.94 87.21 156.83 85.79 157.74 84.38 Z" />
<path fill="#38625b" opacity="1.00" d=" M 133.51 86.37 C 134.58 86.59 135.54 86.38 136.41 85.73 C 136.53 87.31 136.48 88.90 136.14 90.46 C 135.75 91.57 135.35 92.67 134.93 93.77 L 133.72 93.31 C 133.62 92.97 133.41 92.29 133.31 91.94 C 133.81 90.12 133.89 88.23 133.51 86.37 Z" />
<path fill="#92d78d" opacity="1.00" d=" M 142.61 86.68 L 142.81 86.48 C 142.73 86.60 142.57 86.85 142.49 86.97 L 142.61 86.68 Z" />
<path fill="#b4554b" opacity="1.00" d=" M 161.38 93.78 C 160.17 92.28 156.76 89.50 159.79 88.06 C 161.62 89.47 163.29 91.08 164.72 92.90 C 164.46 93.31 163.94 94.13 163.68 94.54 C 162.79 94.75 162.02 94.49 161.38 93.78 Z" />
<path fill="#cce0c3" opacity="1.00" d=" M 136.14 90.46 C 137.41 90.07 138.69 89.71 140.00 89.46 C 140.45 89.91 141.35 90.82 141.80 91.27 C 140.89 92.77 139.76 94.15 138.28 95.10 L 137.35 95.78 C 135.90 98.02 135.05 100.56 134.11 103.03 C 133.96 102.45 133.65 101.27 133.50 100.69 C 133.03 98.26 133.22 95.63 135.13 93.84 L 134.93 93.77 C 135.35 92.67 135.75 91.57 136.14 90.46 Z" />
<path fill="#c05254" opacity="1.00" d=" M 166.91 89.92 C 171.30 93.61 175.19 97.86 178.57 102.49 C 180.29 105.07 183.49 105.81 186.09 107.17 C 185.79 107.69 185.18 108.73 184.88 109.25 L 184.76 110.51 C 184.73 110.75 184.68 111.24 184.65 111.48 C 183.04 111.73 181.29 111.97 179.90 110.89 C 179.68 109.02 179.58 107.15 179.50 105.27 C 178.42 106.11 177.34 106.95 176.26 107.80 C 174.60 107.50 172.73 107.76 171.30 106.73 C 167.34 104.00 163.83 100.69 160.12 97.63 C 160.42 97.55 161.01 97.37 161.30 97.28 C 162.60 96.89 163.90 96.50 165.20 96.10 C 169.53 99.50 173.94 102.91 178.96 105.24 C 175.90 101.38 171.99 98.29 168.38 94.97 C 167.71 93.34 167.20 91.65 166.91 89.92 Z" />
<path fill="#8ca996" opacity="1.00" d=" M 141.80 91.27 C 142.96 91.54 144.14 91.72 145.33 91.94 C 144.02 94.17 142.94 96.53 142.31 99.05 C 142.05 99.24 141.53 99.62 141.27 99.81 C 140.80 99.63 139.88 99.27 139.41 99.10 C 139.12 99.43 138.54 100.09 138.25 100.43 C 137.93 100.77 137.28 101.45 136.96 101.79 L 135.48 102.37 C 136.35 99.92 137.32 97.51 138.28 95.10 C 139.76 94.15 140.89 92.77 141.80 91.27 Z" />
<path fill="#c9dfc3" opacity="1.00" d=" M 133.31 91.94 C 133.41 92.29 133.62 92.97 133.72 93.31 C 133.16 94.62 132.34 95.81 131.04 96.46 C 128.55 97.60 126.16 99.05 124.51 101.28 C 124.06 101.37 123.16 101.54 122.71 101.63 C 124.42 100.16 126.12 98.68 127.79 97.18 C 128.39 96.67 128.98 96.15 129.57 95.63 C 130.89 94.47 132.17 93.27 133.31 91.94 Z" />
<path fill="#590c2a" opacity="1.00" d=" M 147.26 90.94 C 147.85 92.22 149.30 93.40 148.90 94.95 C 148.26 98.15 145.58 100.30 143.45 102.54 C 143.78 103.75 144.11 104.95 144.45 106.16 C 142.13 108.16 139.42 109.77 137.51 112.18 C 137.48 113.41 137.61 114.64 137.70 115.87 C 136.75 117.25 135.79 118.63 134.86 120.03 C 136.06 118.89 137.36 117.81 138.33 116.45 C 138.50 115.01 138.25 113.56 138.15 112.13 C 140.61 110.09 143.24 108.25 145.97 106.58 C 146.45 107.74 146.89 108.91 147.29 110.11 C 145.40 111.87 143.12 113.13 141.07 114.67 C 141.48 115.41 141.89 116.14 142.30 116.88 C 142.42 116.24 142.66 114.96 142.78 114.31 L 143.16 114.04 C 143.88 115.13 144.57 116.24 145.29 117.33 C 145.24 119.10 145.21 120.88 145.24 122.66 C 144.60 122.94 143.31 123.50 142.66 123.79 C 142.30 123.96 141.56 124.31 141.19 124.48 C 141.23 128.12 143.65 131.03 145.02 134.24 C 145.63 136.15 146.22 138.06 146.88 139.94 C 144.37 137.19 141.45 134.86 138.42 132.68 C 138.27 130.87 138.22 129.03 137.85 127.24 C 137.17 125.51 135.15 125.34 133.62 124.92 C 133.22 124.82 132.43 124.62 132.03 124.52 C 132.97 122.41 133.81 120.15 133.13 117.81 C 133.60 116.06 134.22 114.33 135.24 112.82 C 137.02 110.56 138.82 108.29 140.15 105.72 C 141.29 104.10 141.36 102.11 141.25 100.20 L 141.27 99.81 C 141.53 99.62 142.05 99.24 142.31 99.05 L 143.21 98.38 C 144.71 95.98 145.89 93.41 147.26 90.94 Z" />
<path fill="#5a2226" opacity="1.00" d=" M 156.20 90.96 C 158.39 90.73 159.71 92.75 161.38 93.78 C 162.02 94.49 162.79 94.75 163.68 94.54 C 164.29 94.29 165.50 93.79 166.11 93.54 C 166.68 93.90 167.81 94.61 168.38 94.97 C 171.99 98.29 175.90 101.38 178.96 105.24 C 173.94 102.91 169.53 99.50 165.20 96.10 C 163.90 96.50 162.60 96.89 161.30 97.28 C 159.42 95.33 157.64 93.27 156.20 90.96 Z" />
<path fill="#000000" opacity="1.00" d=" M 117.78 100.80 C 119.71 98.33 121.58 95.53 124.55 94.24 C 125.07 95.40 125.55 96.58 126.00 97.79 L 127.79 97.18 C 126.12 98.68 124.42 100.16 122.71 101.63 C 123.16 101.54 124.06 101.37 124.51 101.28 C 124.35 101.95 124.04 103.28 123.88 103.95 C 123.98 104.40 124.18 105.31 124.29 105.77 C 123.16 107.74 120.81 109.55 121.62 112.07 C 122.26 114.90 124.10 117.22 126.11 119.22 C 127.12 115.95 126.03 112.85 124.67 109.92 C 125.27 108.16 126.40 106.64 127.37 105.07 C 127.19 104.63 126.82 103.75 126.64 103.31 C 128.54 101.34 130.48 99.25 131.04 96.46 C 132.34 95.81 133.16 94.62 133.72 93.31 L 134.93 93.77 L 135.13 93.84 C 133.22 95.63 133.03 98.26 133.50 100.69 L 132.60 98.96 C 129.54 100.15 127.83 102.90 128.22 106.14 C 128.72 105.93 129.72 105.52 130.22 105.31 C 130.31 104.21 130.43 103.11 130.57 102.01 C 130.33 104.30 133.95 106.04 134.11 103.03 C 135.05 100.56 135.90 98.02 137.35 95.78 L 138.28 95.10 C 137.32 97.51 136.35 99.92 135.48 102.37 L 136.96 101.79 C 134.54 104.65 130.63 106.77 130.70 111.03 C 131.82 110.10 132.91 109.14 133.99 108.17 C 133.48 109.49 132.97 110.82 132.43 112.14 C 129.66 115.89 125.32 118.76 124.50 123.67 C 123.44 130.50 123.68 137.81 126.29 144.28 C 125.13 147.27 122.39 150.53 124.28 153.78 C 126.34 157.69 129.00 161.58 128.36 166.26 C 127.49 168.46 126.48 170.62 125.11 172.56 C 126.58 168.84 128.54 164.50 126.54 160.59 C 124.77 156.79 121.88 152.91 123.29 148.48 C 123.94 146.47 125.84 144.53 124.86 142.32 C 122.49 135.07 123.40 127.31 124.22 119.88 C 124.02 119.41 123.63 118.47 123.43 118.00 C 122.72 116.55 121.93 115.14 121.17 113.73 C 117.91 117.60 113.57 121.60 113.83 127.11 C 115.98 129.31 118.72 131.07 120.28 133.79 C 121.43 138.00 119.69 142.30 118.05 146.13 C 115.08 151.51 110.76 155.94 107.39 161.05 C 107.04 162.32 106.09 163.61 106.58 164.97 C 107.89 166.24 109.39 167.27 110.86 168.34 C 111.46 169.54 112.06 170.74 112.66 171.95 C 116.25 168.69 119.58 165.16 122.47 161.27 C 122.77 162.49 123.08 163.72 123.39 164.96 C 120.97 166.99 118.46 168.92 115.90 170.78 C 112.62 172.87 109.07 174.64 106.38 177.52 C 107.59 175.57 109.06 173.81 110.31 171.89 C 111.89 168.02 105.56 167.42 105.28 164.07 C 106.07 160.81 108.21 158.08 110.21 155.46 C 115.24 150.22 119.63 143.58 119.63 136.06 C 119.72 133.90 118.26 132.15 116.73 130.82 C 115.51 130.67 114.66 131.79 113.71 132.36 C 109.09 136.54 105.00 141.42 102.32 147.09 C 101.78 149.49 102.08 151.95 102.40 154.36 C 103.55 159.87 100.96 165.04 98.45 169.76 C 96.64 172.27 94.26 174.56 91.08 175.07 C 86.85 174.80 82.82 173.42 79.07 171.50 C 76.79 175.50 73.77 179.03 71.50 183.02 C 68.83 187.21 72.52 191.37 73.58 195.43 C 67.03 199.14 60.81 205.16 52.79 204.69 C 51.11 204.85 49.16 204.53 47.79 205.75 C 46.82 208.64 46.96 211.84 45.65 214.62 C 44.42 217.01 41.64 217.65 39.42 218.76 C 38.99 218.97 38.13 219.38 37.71 219.58 C 26.24 225.27 14.02 229.21 2.12 233.83 C 7.67 234.08 13.03 232.53 18.36 231.21 C 22.52 230.63 26.73 230.11 30.73 228.74 C 33.42 227.89 35.23 225.58 37.34 223.85 C 40.72 223.82 44.47 225.44 47.60 223.63 C 49.79 221.17 50.30 217.16 53.63 215.81 C 58.63 213.91 64.08 213.79 69.27 212.56 C 69.91 210.54 70.66 208.55 71.68 206.69 C 72.42 210.31 72.59 214.02 72.51 217.71 C 72.08 219.08 71.63 220.45 71.18 221.82 C 64.88 223.84 58.16 224.42 52.04 227.00 C 49.32 228.17 47.43 230.57 44.90 232.03 C 42.92 232.89 40.77 233.25 38.71 233.85 C 45.10 233.60 51.07 230.45 57.58 231.46 C 63.24 231.85 69.15 231.00 74.14 228.18 C 77.01 226.54 75.34 222.78 76.18 220.17 C 81.35 218.10 84.93 225.06 90.09 223.81 C 93.25 223.33 95.64 221.05 97.97 219.06 C 95.68 216.58 93.14 214.35 90.46 212.32 C 91.91 211.72 93.35 211.08 94.77 210.42 C 96.24 209.67 97.69 208.85 98.96 207.78 C 98.75 204.68 95.70 202.63 93.08 201.56 C 91.94 200.89 90.88 201.68 89.98 202.32 C 88.26 203.61 86.45 204.86 84.33 205.38 C 82.24 205.75 80.24 206.44 78.54 207.73 L 78.41 207.18 C 78.64 206.80 79.12 206.05 79.36 205.67 C 82.93 204.21 87.44 204.03 90.01 200.84 C 91.29 196.18 85.08 194.06 84.96 189.57 C 91.46 187.06 97.22 183.09 103.52 180.24 C 100.09 183.38 95.35 184.91 92.57 188.78 C 92.17 189.85 91.79 190.92 91.43 192.01 C 91.36 190.63 91.29 189.26 91.22 187.89 C 89.36 188.70 87.50 189.51 85.64 190.32 C 88.22 193.57 90.66 196.96 92.09 200.89 C 92.98 200.02 95.18 199.71 94.58 198.05 C 94.42 196.99 94.13 195.96 93.88 194.93 C 93.79 194.61 93.62 193.95 93.54 193.63 C 95.25 195.79 95.99 198.33 95.25 201.03 C 96.80 202.69 98.60 204.18 99.72 206.18 C 100.42 210.12 95.17 210.86 92.66 212.47 C 95.03 214.59 97.32 216.86 98.73 219.75 C 102.43 217.64 106.64 216.16 109.67 213.04 C 109.47 207.92 104.21 204.25 104.32 198.95 C 104.18 196.22 106.13 194.07 107.43 191.87 L 108.50 192.19 C 105.44 195.14 103.74 199.86 106.34 203.67 C 107.93 206.49 109.58 209.28 111.21 212.07 C 108.07 217.15 101.78 218.44 97.27 221.92 C 96.85 222.21 96.00 222.78 95.57 223.06 C 96.15 224.12 96.71 225.18 97.32 226.21 C 98.69 227.91 100.44 229.22 102.25 230.41 C 103.75 233.18 102.28 236.25 101.69 239.06 C 102.63 238.99 104.51 238.84 105.45 238.77 C 105.46 239.00 105.48 239.45 105.49 239.67 C 103.91 241.19 100.87 241.15 99.95 238.92 C 99.13 236.41 100.81 233.97 101.50 231.63 C 98.66 230.30 96.05 228.55 93.97 226.18 C 90.69 226.28 86.95 226.98 84.11 224.87 C 82.12 223.37 80.22 221.68 77.76 220.99 C 77.74 223.10 79.24 225.68 77.53 227.49 C 73.14 233.65 64.72 233.09 58.01 233.27 C 50.51 232.44 43.61 237.61 36.06 235.35 C 37.50 232.08 40.53 230.17 44.13 230.67 C 46.32 228.90 48.33 226.82 50.88 225.56 C 56.89 222.82 63.77 222.80 69.76 220.07 C 70.20 218.17 70.38 216.23 70.62 214.30 C 65.23 215.17 59.61 215.31 54.48 217.32 C 50.56 218.84 50.83 224.45 46.78 225.82 C 44.06 227.10 41.20 225.51 38.43 225.34 C 35.52 227.04 33.15 229.66 29.87 230.70 C 22.44 233.23 14.69 234.79 6.86 235.34 C 4.46 235.50 2.22 234.52 0.00 233.75 L 0.00 232.03 C 7.21 228.74 14.73 226.21 22.17 223.51 C 29.83 220.69 37.20 217.18 44.38 213.30 C 44.45 210.84 44.47 208.38 44.80 205.94 C 44.80 204.69 45.77 203.46 47.06 203.41 C 50.42 202.89 53.93 203.59 57.19 202.45 C 62.51 200.53 67.69 197.99 71.87 194.13 C 70.77 190.93 67.45 187.65 69.21 184.13 C 71.76 178.66 75.23 173.67 78.52 168.62 C 82.11 171.10 86.63 172.47 90.97 171.97 C 96.72 170.83 99.21 164.81 100.75 159.82 C 100.89 154.70 99.13 149.27 101.48 144.41 C 104.24 138.65 109.48 134.67 114.34 130.77 C 112.83 128.87 110.37 126.84 111.34 124.09 C 112.52 120.41 115.61 117.82 117.98 114.90 C 115.41 116.56 112.83 118.21 110.09 119.57 C 110.32 116.97 110.08 114.27 110.85 111.76 C 112.67 107.83 115.26 104.31 117.78 100.80 M 121.05 99.02 C 118.36 102.71 115.53 106.35 113.44 110.43 C 116.56 107.84 118.42 104.12 121.48 101.47 C 123.08 100.13 124.05 98.28 124.68 96.32 C 122.93 96.19 122.05 97.90 121.05 99.02 M 119.92 105.07 C 119.31 105.69 119.31 105.69 119.92 105.07 C 120.51 104.44 120.51 104.44 119.92 105.07 M 121.47 105.15 C 118.41 107.83 115.59 110.78 112.91 113.84 C 111.44 114.01 110.26 116.74 111.92 117.40 C 113.53 117.32 114.38 115.06 113.46 113.84 C 114.95 114.14 115.97 113.62 116.52 112.27 C 117.01 112.41 118.00 112.69 118.49 112.83 C 117.92 116.09 122.63 112.90 119.09 112.43 C 119.40 112.19 120.02 111.71 120.33 111.47 C 119.71 111.21 118.47 110.69 117.85 110.43 C 120.75 111.19 123.03 107.53 122.90 105.04 C 122.54 105.07 121.83 105.12 121.47 105.15 M 127.66 106.43 C 127.71 108.31 126.40 109.63 125.25 110.92 C 125.99 111.74 126.74 112.55 127.50 113.37 C 127.33 114.34 127.17 115.31 127.01 116.29 C 131.49 114.47 130.23 109.40 131.46 105.66 C 130.51 105.85 128.61 106.24 127.66 106.43 Z" />
<path fill="#c05254" opacity="1.00" d=" M 121.05 99.02 C 122.05 97.90 122.93 96.19 124.68 96.32 C 124.05 98.28 123.08 100.13 121.48 101.47 C 118.42 104.12 116.56 107.84 113.44 110.43 C 115.53 106.35 118.36 102.71 121.05 99.02 Z" />
<path fill="#97333f" opacity="1.00" d=" M 124.51 101.28 C 126.16 99.05 128.55 97.60 131.04 96.46 C 130.48 99.25 128.54 101.34 126.64 103.31 C 126.82 103.75 127.19 104.63 127.37 105.07 C 126.40 106.64 125.27 108.16 124.67 109.92 C 126.03 112.85 127.12 115.95 126.11 119.22 C 124.10 117.22 122.26 114.90 121.62 112.07 C 120.81 109.55 123.16 107.74 124.29 105.77 C 124.18 105.31 123.98 104.40 123.88 103.95 C 124.04 103.28 124.35 101.95 124.51 101.28 Z" />
<path fill="#000000" opacity="1.00" d=" M 139.41 99.10 C 139.88 99.27 140.80 99.63 141.27 99.81 L 141.25 100.20 C 140.99 100.85 140.47 102.15 140.22 102.80 C 139.83 103.20 139.05 104.00 138.67 104.39 C 138.53 103.07 138.40 101.74 138.25 100.43 C 138.54 100.09 139.12 99.43 139.41 99.10 Z" />
<path fill="#6e1831" opacity="1.00" d=" M 148.09 99.11 C 149.10 99.69 150.05 100.36 150.94 101.11 C 149.48 101.91 148.00 102.67 146.48 103.35 C 146.22 103.98 145.71 105.23 145.45 105.86 C 143.35 103.18 145.70 100.36 148.09 99.11 Z" />
<path fill="#d04e61" opacity="1.00" d=" M 128.22 106.14 C 127.83 102.90 129.54 100.15 132.60 98.96 C 132.09 99.73 131.08 101.25 130.57 102.01 C 130.43 103.11 130.31 104.21 130.22 105.31 C 129.72 105.52 128.72 105.93 128.22 106.14 Z" />
<path fill="#517c75" opacity="1.00" d=" M 130.57 102.01 C 131.08 101.25 132.09 99.73 132.60 98.96 L 133.50 100.69 C 133.65 101.27 133.96 102.45 134.11 103.03 C 133.95 106.04 130.33 104.30 130.57 102.01 Z" />
<path fill="#97333f" opacity="1.00" d=" M 136.96 101.79 C 137.28 101.45 137.93 100.77 138.25 100.43 C 138.40 101.74 138.53 103.07 138.67 104.39 C 136.97 106.00 135.40 107.73 134.07 109.64 C 136.73 109.57 138.44 107.43 140.15 105.72 C 138.82 108.29 137.02 110.56 135.24 112.82 C 134.54 112.65 133.13 112.31 132.43 112.14 C 132.97 110.82 133.48 109.49 133.99 108.17 C 132.91 109.14 131.82 110.10 130.70 111.03 C 130.63 106.77 134.54 104.65 136.96 101.79 Z" />
<path fill="#cae0c3" opacity="1.00" d=" M 140.22 102.80 C 140.47 102.15 140.99 100.85 141.25 100.20 C 141.36 102.11 141.29 104.10 140.15 105.72 C 138.44 107.43 136.73 109.57 134.07 109.64 C 135.40 107.73 136.97 106.00 138.67 104.39 C 139.05 104.00 139.83 103.20 140.22 102.80 Z" />
<path fill="#c14c50" opacity="1.00" d=" M 119.92 105.07 C 120.51 104.44 120.51 104.44 119.92 105.07 Z" />
<path fill="#b04449" opacity="1.00" d=" M 119.92 105.07 C 119.31 105.69 119.31 105.69 119.92 105.07 Z" />
<path fill="#b1464d" opacity="1.00" d=" M 121.47 105.15 C 121.83 105.12 122.54 105.07 122.90 105.04 C 123.03 107.53 120.75 111.19 117.85 110.43 C 118.47 110.69 119.71 111.21 120.33 111.47 C 120.02 111.71 119.40 112.19 119.09 112.43 L 118.49 112.83 C 118.00 112.69 117.01 112.41 116.52 112.27 C 115.97 113.62 114.95 114.14 113.46 113.84 L 112.91 113.84 C 115.59 110.78 118.41 107.83 121.47 105.15 Z" />
<path fill="#7e2035" opacity="1.00" d=" M 146.74 107.06 C 147.16 106.57 147.58 106.08 148.00 105.60 C 150.01 107.70 152.21 109.61 154.46 111.44 C 151.64 113.76 148.44 115.51 145.29 117.33 C 144.57 116.24 143.88 115.13 143.16 114.04 C 144.73 112.97 146.38 112.02 147.83 110.79 C 147.53 109.52 147.17 108.28 146.74 107.06 Z" />
<path fill="#732130" opacity="1.00" d=" M 176.26 107.80 C 177.34 106.95 178.42 106.11 179.50 105.27 C 179.58 107.15 179.68 109.02 179.90 110.89 C 179.80 111.72 179.60 113.37 179.50 114.19 C 179.22 114.52 178.64 115.16 178.36 115.48 C 176.98 113.14 176.17 110.53 176.26 107.80 Z" />
<path fill="#97333f" opacity="1.00" d=" M 127.66 106.43 C 128.61 106.24 130.51 105.85 131.46 105.66 C 130.23 109.40 131.49 114.47 127.01 116.29 C 127.17 115.31 127.33 114.34 127.50 113.37 C 126.74 112.55 125.99 111.74 125.25 110.92 C 126.40 109.63 127.71 108.31 127.66 106.43 Z" />
<path fill="#c9dfc3" opacity="1.00" d=" M 184.76 110.51 L 185.58 109.11 C 186.72 109.73 187.86 110.36 189.00 110.99 C 188.78 111.44 188.32 112.35 188.09 112.81 C 188.79 113.48 189.49 114.15 190.18 114.82 C 188.23 114.44 186.35 113.83 184.46 113.23 C 184.50 112.79 184.60 111.92 184.65 111.48 C 184.68 111.24 184.73 110.75 184.76 110.51 Z" />
<path fill="#c16b50" opacity="1.00" d=" M 132.43 112.14 C 133.13 112.31 134.54 112.65 135.24 112.82 C 134.22 114.33 133.60 116.06 133.13 117.81 C 130.30 120.81 130.08 124.79 131.05 128.61 C 131.46 130.58 132.05 132.52 132.82 134.39 C 135.11 138.71 132.66 144.09 136.16 147.97 C 136.22 148.54 136.32 149.70 136.38 150.27 C 133.69 148.42 131.06 146.48 128.39 144.61 C 126.11 137.85 124.56 130.84 124.50 123.67 C 125.32 118.76 129.66 115.89 132.43 112.14 M 127.77 133.10 C 128.30 133.38 129.35 133.94 129.87 134.22 C 129.95 130.37 129.39 126.54 128.37 122.82 C 126.20 125.61 127.69 129.80 127.77 133.10 Z" />
<path fill="#1e505d" opacity="1.00" d=" M 118.49 112.83 L 119.09 112.43 C 122.63 112.90 117.92 116.09 118.49 112.83 Z" />
<path fill="#cae0c3" opacity="1.00" d=" M 111.92 117.40 C 110.26 116.74 111.44 114.01 112.91 113.84 L 113.46 113.84 C 114.38 115.06 113.53 117.32 111.92 117.40 Z" />
<path fill="#c9dfc3" opacity="1.00" d=" M 178.36 115.48 C 178.64 115.16 179.22 114.52 179.50 114.19 L 180.24 114.22 C 182.58 115.81 177.80 118.51 178.36 115.48 Z" />
<path fill="#c55e56" opacity="1.00" d=" M 113.83 127.11 C 113.57 121.60 117.91 117.60 121.17 113.73 C 121.93 115.14 122.72 116.55 123.43 118.00 C 120.66 121.45 118.43 125.84 113.83 127.11 Z" />
<path fill="#802135" opacity="1.00" d=" M 113.83 127.11 C 118.43 125.84 120.66 121.45 123.43 118.00 C 123.63 118.47 124.02 119.41 124.22 119.88 C 123.40 127.31 122.49 135.07 124.86 142.32 C 125.84 144.53 123.94 146.47 123.29 148.48 C 121.16 153.67 118.43 158.61 117.21 164.13 C 116.71 167.19 113.17 167.30 110.86 168.34 C 109.39 167.27 107.89 166.24 106.58 164.97 C 106.09 163.61 107.04 162.32 107.39 161.05 C 107.84 162.52 107.94 164.18 108.89 165.45 C 110.84 166.40 112.03 164.46 113.15 163.20 C 115.58 160.13 118.17 156.94 119.12 153.06 C 119.84 150.69 118.66 148.38 118.05 146.13 C 119.69 142.30 121.43 138.00 120.28 133.79 C 118.72 131.07 115.98 129.31 113.83 127.11 Z" />
<path fill="#772234" opacity="1.00" d=" M 131.05 128.61 C 130.08 124.79 130.30 120.81 133.13 117.81 C 133.81 120.15 132.97 122.41 132.03 124.52 C 132.43 124.62 133.22 124.82 133.62 124.92 C 135.96 126.77 137.24 129.36 136.03 132.26 C 134.36 131.05 132.71 129.82 131.05 128.61 Z" />
<path fill="#ffffe5" opacity="1.00" d=" M 127.77 133.10 C 127.69 129.80 126.20 125.61 128.37 122.82 C 129.39 126.54 129.95 130.37 129.87 134.22 C 129.35 133.94 128.30 133.38 127.77 133.10 Z" />
<path fill="#b04e48" opacity="1.00" d=" M 142.66 123.79 C 143.31 123.50 144.60 122.94 145.24 122.66 C 146.61 127.38 148.84 131.78 151.20 136.07 L 150.74 137.36 C 145.42 135.00 144.25 128.77 142.66 123.79 Z" />
<path fill="#862637" opacity="1.00" d=" M 126.29 144.28 C 123.68 137.81 123.44 130.50 124.50 123.67 C 124.56 130.84 126.11 137.85 128.39 144.61 C 131.06 146.48 133.69 148.42 136.38 150.27 C 136.32 149.70 136.22 148.54 136.16 147.97 C 137.49 148.85 138.85 149.68 140.21 150.52 C 139.63 152.19 139.05 153.87 138.37 155.50 C 135.98 152.29 133.26 149.26 129.70 147.31 C 128.14 148.43 126.56 149.51 124.97 150.59 C 127.78 153.59 130.96 156.55 134.99 157.75 C 136.06 157.38 137.05 156.82 138.03 156.26 C 136.21 159.65 134.62 164.54 138.60 167.10 C 135.77 170.23 132.69 173.11 129.66 176.03 C 129.75 175.46 129.93 174.30 130.02 173.73 C 131.79 170.96 135.67 168.26 134.43 164.58 C 132.70 164.33 130.95 164.28 129.22 164.18 C 129.00 164.70 128.57 165.74 128.36 166.26 C 129.00 161.58 126.34 157.69 124.28 153.78 C 122.39 150.53 125.13 147.27 126.29 144.28 Z" />
<path fill="#812636" opacity="1.00" d=" M 141.19 124.48 C 141.56 124.31 142.30 123.96 142.66 123.79 C 144.25 128.77 145.42 135.00 150.74 137.36 L 151.20 136.07 C 153.38 139.55 155.90 142.80 158.34 146.10 C 156.90 145.86 155.47 145.63 154.04 145.44 C 151.46 141.37 147.86 138.11 145.02 134.24 C 143.65 131.03 141.23 128.12 141.19 124.48 Z" />
<path fill="#3b0b1b" opacity="1.00" d=" M 133.62 124.92 C 135.15 125.34 137.17 125.51 137.85 127.24 C 138.22 129.03 138.27 130.87 138.42 132.68 C 141.45 134.86 144.37 137.19 146.88 139.94 C 146.22 138.06 145.63 136.15 145.02 134.24 C 147.86 138.11 151.46 141.37 154.04 145.44 C 153.45 145.20 152.28 144.72 151.69 144.48 C 147.73 142.79 143.68 141.26 139.87 139.26 C 137.88 138.34 137.41 136.01 136.48 134.23 C 136.10 136.90 135.54 139.53 135.02 142.18 C 135.45 144.11 136.35 145.93 137.76 147.34 C 138.98 148.46 140.37 149.38 141.58 150.52 C 141.61 151.78 141.09 152.96 140.71 154.14 C 140.33 154.94 139.93 155.72 139.53 156.52 C 138.59 158.84 135.99 161.67 138.30 164.01 C 140.46 166.09 142.56 168.25 144.38 170.66 L 144.68 171.03 C 143.62 171.72 142.56 172.39 141.48 173.04 C 140.44 173.51 139.39 173.93 138.35 174.37 C 140.12 177.07 141.79 179.85 143.35 182.69 C 140.26 183.83 137.19 185.04 134.14 186.31 C 134.68 187.74 135.22 189.16 135.76 190.59 C 141.69 189.02 147.82 188.15 153.52 185.80 C 150.20 182.08 145.67 179.71 142.42 175.93 C 143.09 175.68 144.42 175.18 145.08 174.93 C 149.10 174.61 153.14 174.58 157.13 174.03 C 155.64 172.08 154.14 170.12 152.86 168.02 C 150.68 164.20 148.53 160.21 144.95 157.50 C 144.77 157.35 144.41 157.06 144.23 156.91 C 144.34 156.44 144.57 155.48 144.68 155.01 C 144.11 153.97 143.54 152.93 142.97 151.90 C 144.36 150.15 145.79 148.42 147.10 146.60 L 146.69 146.34 C 144.37 144.93 142.01 143.60 139.59 142.39 C 142.82 142.62 145.85 144.04 148.32 146.11 C 147.84 148.60 145.77 150.32 144.33 152.26 C 147.85 154.75 151.91 156.22 156.01 157.46 C 158.51 158.56 161.02 159.64 163.48 160.82 C 165.70 162.13 168.05 163.38 169.82 165.31 C 170.75 166.64 170.00 168.36 169.89 169.83 L 169.56 171.03 C 169.08 172.55 168.53 174.06 167.95 175.54 C 166.81 178.37 165.31 181.04 163.96 183.77 C 163.84 184.10 163.59 184.74 163.47 185.07 C 163.51 186.59 163.71 188.11 163.59 189.63 C 162.33 191.67 160.46 193.25 158.81 194.96 C 160.44 195.93 162.07 196.92 163.77 197.79 C 164.78 198.26 165.81 198.72 166.85 199.14 C 169.34 200.30 172.30 201.33 173.32 204.16 C 170.48 202.42 167.49 200.93 164.37 199.74 C 161.63 198.36 158.24 197.03 157.57 193.65 C 159.53 192.15 161.25 190.35 162.61 188.29 L 162.16 187.03 C 161.96 186.51 161.56 185.47 161.35 184.95 L 161.17 184.50 C 164.31 180.30 166.50 175.50 168.05 170.52 C 168.34 169.18 168.84 167.79 168.57 166.41 C 165.04 162.49 159.85 160.75 155.11 158.79 C 151.94 157.54 148.76 156.29 145.54 155.19 C 147.40 158.36 149.85 161.11 152.07 164.02 C 153.41 167.22 155.55 169.96 157.92 172.45 C 158.64 173.27 159.35 174.10 160.06 174.93 C 158.14 175.33 156.21 175.71 154.29 176.08 C 150.97 175.96 147.65 175.86 144.33 176.06 C 147.75 179.37 152.39 181.42 154.81 185.71 C 148.85 190.12 141.10 190.06 134.28 192.30 C 133.24 194.55 133.66 196.91 134.88 199.00 C 138.57 203.13 143.83 205.16 148.71 207.48 C 148.63 208.35 148.55 209.23 148.47 210.11 C 143.27 211.73 137.97 213.57 133.80 217.20 C 136.60 217.72 139.40 218.26 142.23 218.53 C 140.29 221.18 137.13 219.81 134.44 219.65 C 133.81 219.39 132.56 218.87 131.93 218.62 C 131.87 217.28 131.73 215.78 133.17 215.10 C 137.22 212.01 142.24 210.65 146.83 208.57 C 141.40 205.86 134.99 203.38 132.35 197.45 C 130.92 195.01 132.61 192.49 133.44 190.18 C 132.99 188.55 132.49 186.93 132.22 185.25 C 135.18 184.00 138.30 183.17 141.32 182.07 C 139.66 179.44 137.82 176.90 136.61 174.03 C 137.52 171.76 140.38 171.97 142.29 171.13 C 141.60 170.44 140.92 169.74 140.18 169.12 C 136.68 171.69 133.75 174.94 130.43 177.73 C 131.37 179.51 132.62 181.45 131.61 183.50 C 128.94 190.17 123.75 195.46 118.51 200.21 C 122.20 202.72 127.05 203.70 129.96 207.20 C 131.40 212.15 125.30 214.66 122.69 217.93 C 125.93 218.87 129.22 219.74 132.61 219.89 C 134.43 220.93 137.72 221.25 137.41 224.02 C 135.61 226.26 132.45 226.35 129.91 227.21 L 129.15 225.81 C 131.50 225.11 133.80 224.27 136.08 223.39 C 131.01 221.38 125.57 220.57 120.41 218.83 C 121.62 217.05 123.03 215.42 124.52 213.87 C 126.18 212.11 127.76 210.28 129.24 208.37 C 126.71 206.61 123.98 205.20 121.16 203.96 C 119.60 202.80 117.27 202.05 116.72 200.01 C 121.09 194.66 127.11 190.31 129.51 183.54 C 130.27 181.59 128.72 179.86 128.06 178.14 C 128.59 177.44 129.12 176.73 129.66 176.03 C 132.69 173.11 135.77 170.23 138.60 167.10 C 134.62 164.54 136.21 159.65 138.03 156.26 L 138.37 155.50 C 139.05 153.87 139.63 152.19 140.21 150.52 C 138.85 149.68 137.49 148.85 136.16 147.97 C 132.66 144.09 135.11 138.71 132.82 134.39 C 132.05 132.52 131.46 130.58 131.05 128.61 C 132.71 129.82 134.36 131.05 136.03 132.26 C 137.24 129.36 135.96 126.77 133.62 124.92 Z" />
<path fill="#822336" opacity="1.00" d=" M 113.71 132.36 C 114.66 131.79 115.51 130.67 116.73 130.82 C 118.26 132.15 119.72 133.90 119.63 136.06 C 119.63 143.58 115.24 150.22 110.21 155.46 C 107.61 155.09 105.00 154.72 102.40 154.36 C 102.08 151.95 101.78 149.49 102.32 147.09 C 102.69 151.36 107.64 151.72 110.95 151.13 C 113.76 150.25 113.97 146.83 114.66 144.44 C 115.75 140.41 115.31 136.19 113.71 132.36 Z" />
<path fill="#c26254" opacity="1.00" d=" M 102.32 147.09 C 105.00 141.42 109.09 136.54 113.71 132.36 C 115.31 136.19 115.75 140.41 114.66 144.44 C 113.97 146.83 113.76 150.25 110.95 151.13 C 107.64 151.72 102.69 151.36 102.32 147.09 M 106.13 146.85 C 108.90 145.32 110.02 141.84 110.96 138.97 C 107.41 139.50 105.35 143.53 106.13 146.85 Z" />
<path fill="#862637" opacity="1.00" d=" M 135.02 142.18 C 135.54 139.53 136.10 136.90 136.48 134.23 C 137.41 136.01 137.88 138.34 139.87 139.26 C 143.68 141.26 147.73 142.79 151.69 144.48 C 150.78 147.26 149.76 150.09 149.85 153.06 C 151.70 154.79 153.87 156.12 156.01 157.46 C 151.91 156.22 147.85 154.75 144.33 152.26 C 145.77 150.32 147.84 148.60 148.32 146.11 C 145.85 144.04 142.82 142.62 139.59 142.39 C 138.07 142.22 136.54 142.22 135.02 142.18 Z" />
<path fill="#f6dab8" opacity="1.00" d=" M 106.13 146.85 C 105.35 143.53 107.41 139.50 110.96 138.97 C 110.02 141.84 108.90 145.32 106.13 146.85 Z" />
<path fill="#a24142" opacity="1.00" d=" M 135.02 142.18 C 136.54 142.22 138.07 142.22 139.59 142.39 C 142.01 143.60 144.37 144.93 146.69 146.34 C 143.89 149.20 140.65 146.43 137.89 145.03 C 137.86 145.60 137.79 146.76 137.76 147.34 C 136.35 145.93 135.45 144.11 135.02 142.18 Z" />
<path fill="#852737" opacity="1.00" d=" M 137.89 145.03 C 140.65 146.43 143.89 149.20 146.69 146.34 L 147.10 146.60 C 145.79 148.42 144.36 150.15 142.97 151.90 C 143.54 152.93 144.11 153.97 144.68 155.01 C 144.57 155.48 144.34 156.44 144.23 156.91 C 143.05 155.99 141.87 155.07 140.71 154.14 C 141.09 152.96 141.61 151.78 141.58 150.52 C 140.37 149.38 138.98 148.46 137.76 147.34 C 137.79 146.76 137.86 145.60 137.89 145.03 Z" />
<path fill="#bf6850" opacity="1.00" d=" M 149.85 153.06 C 149.76 150.09 150.78 147.26 151.69 144.48 C 152.28 144.72 153.45 145.20 154.04 145.44 C 156.16 146.46 158.24 147.58 160.31 148.71 C 159.66 149.07 158.35 149.79 157.70 150.16 C 156.78 149.69 155.86 149.25 154.92 148.84 C 158.46 153.07 161.93 158.29 167.64 159.62 C 166.93 158.12 166.16 156.65 165.41 155.18 C 164.63 153.57 163.92 151.93 163.20 150.30 C 169.09 153.51 175.00 156.99 179.66 161.90 C 174.16 163.52 168.95 160.41 163.48 160.82 C 161.02 159.64 158.51 158.56 156.01 157.46 C 153.87 156.12 151.70 154.79 149.85 153.06 Z" />
<path fill="#b45a4a" opacity="1.00" d=" M 107.39 161.05 C 110.76 155.94 115.08 151.51 118.05 146.13 C 118.66 148.38 119.84 150.69 119.12 153.06 C 118.17 156.94 115.58 160.13 113.15 163.20 C 112.03 164.46 110.84 166.40 108.89 165.45 C 107.94 164.18 107.84 162.52 107.39 161.05 Z" />
<path fill="#ad4f47" opacity="1.00" d=" M 129.70 147.31 C 133.26 149.26 135.98 152.29 138.37 155.50 L 138.03 156.26 C 137.05 156.82 136.06 157.38 134.99 157.75 C 130.96 156.55 127.78 153.59 124.97 150.59 C 126.56 149.51 128.14 148.43 129.70 147.31 Z" />
<path fill="#590d2a" opacity="1.00" d=" M 117.21 164.13 C 118.43 158.61 121.16 153.67 123.29 148.48 C 121.88 152.91 124.77 156.79 126.54 160.59 C 128.54 164.50 126.58 168.84 125.11 172.56 C 124.82 172.93 124.25 173.68 123.96 174.05 L 124.28 172.85 C 120.64 176.14 116.58 179.35 114.80 184.09 C 113.25 186.41 111.50 188.59 109.73 190.75 C 109.42 191.11 108.81 191.83 108.50 192.19 L 107.43 191.87 C 106.58 191.62 105.74 191.36 104.89 191.12 C 105.52 189.02 106.16 186.93 106.99 184.91 C 110.75 180.73 113.09 175.59 115.90 170.78 C 118.46 168.92 120.97 166.99 123.39 164.96 C 123.08 163.72 122.77 162.49 122.47 161.27 C 119.58 165.16 116.25 168.69 112.66 171.95 C 112.06 170.74 111.46 169.54 110.86 168.34 C 113.17 167.30 116.71 167.19 117.21 164.13 Z" />
<path fill="#f7ce9a" opacity="1.00" d=" M 154.92 148.84 C 155.86 149.25 156.78 149.69 157.70 150.16 C 159.96 152.27 162.33 154.37 165.41 155.18 C 166.16 156.65 166.93 158.12 167.64 159.62 C 161.93 158.29 158.46 153.07 154.92 148.84 Z" />
<path fill="#db8d64" opacity="1.00" d=" M 157.70 150.16 C 158.35 149.79 159.66 149.07 160.31 148.71 C 161.27 149.24 162.23 149.77 163.20 150.30 C 163.92 151.93 164.63 153.57 165.41 155.18 C 162.33 154.37 159.96 152.27 157.70 150.16 Z" />
<path fill="#560c29" opacity="1.00" d=" M 102.40 154.36 C 105.00 154.72 107.61 155.09 110.21 155.46 C 108.21 158.08 106.07 160.81 105.28 164.07 C 105.56 167.42 111.89 168.02 110.31 171.89 C 109.06 173.81 107.59 175.57 106.38 177.52 C 105.44 178.44 104.54 179.40 103.52 180.24 C 97.22 183.09 91.46 187.06 84.96 189.57 C 85.08 194.06 91.29 196.18 90.01 200.84 C 87.44 204.03 82.93 204.21 79.36 205.67 C 79.12 206.05 78.64 206.80 78.41 207.18 C 77.94 205.77 77.37 204.41 76.83 203.04 C 76.53 201.45 75.83 199.68 74.00 199.45 C 74.12 199.24 74.37 198.81 74.49 198.59 C 74.23 197.52 73.91 196.47 73.58 195.43 C 72.52 191.37 68.83 187.21 71.50 183.02 C 71.45 183.55 71.35 184.61 71.30 185.14 C 73.40 186.97 75.90 189.25 78.95 188.46 C 84.57 187.18 89.60 184.11 94.30 180.88 C 96.23 179.35 98.31 177.82 99.49 175.61 C 100.18 173.59 99.14 171.61 98.45 169.76 C 100.96 165.04 103.55 159.87 102.40 154.36 Z" />
<path fill="#66172e" opacity="1.00" d=" M 139.53 156.52 C 139.93 155.72 140.33 154.94 140.71 154.14 C 141.87 155.07 143.05 155.99 144.23 156.91 C 144.41 157.06 144.77 157.35 144.95 157.50 C 144.39 161.40 144.11 165.34 144.27 169.28 C 144.30 169.62 144.35 170.31 144.38 170.66 C 142.56 168.25 140.46 166.09 138.30 164.01 C 139.69 161.72 140.41 159.14 139.53 156.52 Z" />
<path fill="#8c2b39" opacity="1.00" d=" M 145.54 155.19 C 148.76 156.29 151.94 157.54 155.11 158.79 C 154.46 158.91 153.16 159.16 152.51 159.28 C 152.36 160.86 152.19 162.44 152.07 164.02 C 149.85 161.11 147.40 158.36 145.54 155.19 Z" />
<path fill="#7d2235" opacity="1.00" d=" M 139.53 156.52 C 140.41 159.14 139.69 161.72 138.30 164.01 C 135.99 161.67 138.59 158.84 139.53 156.52 Z" />
<path fill="#b05349" opacity="1.00" d=" M 144.95 157.50 C 148.53 160.21 150.68 164.20 152.86 168.02 C 151.76 168.88 150.71 169.80 149.53 170.54 C 147.71 170.69 146.00 169.70 144.27 169.28 C 144.11 165.34 144.39 161.40 144.95 157.50 Z" />
<path fill="#ba604d" opacity="1.00" d=" M 152.51 159.28 C 153.16 159.16 154.46 158.91 155.11 158.79 C 159.85 160.75 165.04 162.49 168.57 166.41 C 168.84 167.79 168.34 169.18 168.05 170.52 C 164.66 171.11 161.29 171.76 157.92 172.45 C 155.55 169.96 153.41 167.22 152.07 164.02 C 152.19 162.44 152.36 160.86 152.51 159.28 Z" />
<path fill="#9f3e41" opacity="1.00" d=" M 163.48 160.82 C 168.95 160.41 174.16 163.52 179.66 161.90 C 181.09 164.08 181.57 166.72 180.31 169.10 C 180.32 168.68 180.35 167.83 180.36 167.41 C 176.83 167.92 173.02 167.86 169.89 169.83 C 170.00 168.36 170.75 166.64 169.82 165.31 C 168.05 163.38 165.70 162.13 163.48 160.82 Z" />
<path fill="#b3584a" opacity="1.00" d=" M 129.22 164.18 C 130.95 164.28 132.70 164.33 134.43 164.58 C 135.67 168.26 131.79 170.96 130.02 173.73 C 128.54 174.37 127.03 174.95 125.53 175.53 C 127.04 177.49 128.24 179.92 126.08 181.93 C 124.75 180.01 123.41 178.10 122.03 176.22 C 122.70 175.52 123.35 174.80 123.96 174.05 C 124.25 173.68 124.82 172.93 125.11 172.56 C 126.48 170.62 127.49 168.46 128.36 166.26 C 128.57 165.74 129.00 164.70 129.22 164.18 Z" />
<path fill="#af5248" opacity="1.00" d=" M 169.89 169.83 C 173.02 167.86 176.83 167.92 180.36 167.41 C 180.35 167.83 180.32 168.68 180.31 169.10 C 179.75 170.67 179.03 172.18 178.31 173.69 C 175.93 172.69 173.67 173.60 171.66 174.95 C 170.93 173.66 170.20 172.37 169.56 171.03 L 169.89 169.83 Z" />
<path fill="#862637" opacity="1.00" d=" M 152.86 168.02 C 154.14 170.12 155.64 172.08 157.13 174.03 C 153.14 174.58 149.10 174.61 145.08 174.93 C 147.52 174.36 150.02 174.15 152.49 173.78 C 150.17 172.16 147.38 171.64 144.68 171.03 L 144.38 170.66 C 144.35 170.31 144.30 169.62 144.27 169.28 C 146.00 169.70 147.71 170.69 149.53 170.54 C 150.71 169.80 151.76 168.88 152.86 168.02 Z" />
<path fill="#580c29" opacity="1.00" d=" M 130.43 177.73 C 133.75 174.94 136.68 171.69 140.18 169.12 C 140.92 169.74 141.60 170.44 142.29 171.13 C 140.38 171.97 137.52 171.76 136.61 174.03 C 137.82 176.90 139.66 179.44 141.32 182.07 C 138.30 183.17 135.18 184.00 132.22 185.25 C 132.49 186.93 132.99 188.55 133.44 190.18 C 132.61 192.49 130.92 195.01 132.35 197.45 C 134.99 203.38 141.40 205.86 146.83 208.57 C 142.24 210.65 137.22 212.01 133.17 215.10 C 131.73 215.78 131.87 217.28 131.93 218.62 C 132.56 218.87 133.81 219.39 134.44 219.65 C 133.98 219.71 133.07 219.83 132.61 219.89 C 129.22 219.74 125.93 218.87 122.69 217.93 C 125.30 214.66 131.40 212.15 129.96 207.20 C 127.05 203.70 122.20 202.72 118.51 200.21 C 123.75 195.46 128.94 190.17 131.61 183.50 C 132.62 181.45 131.37 179.51 130.43 177.73 Z" />
<path fill="#a24642" opacity="1.00" d=" M 98.45 169.76 C 99.14 171.61 100.18 173.59 99.49 175.61 C 98.31 177.82 96.23 179.35 94.30 180.88 C 93.24 178.94 92.16 177.00 91.08 175.07 C 94.26 174.56 96.64 172.27 98.45 169.76 Z" />
<path fill="#af5448" opacity="1.00" d=" M 106.38 177.52 C 109.07 174.64 112.62 172.87 115.90 170.78 C 113.09 175.59 110.75 180.73 106.99 184.91 C 103.94 187.53 101.46 190.72 98.60 193.53 C 96.91 193.76 95.20 193.58 93.50 193.51 C 93.13 191.94 92.85 190.36 92.57 188.78 C 95.35 184.91 100.09 183.38 103.52 180.24 C 104.54 179.40 105.44 178.44 106.38 177.52 Z" />
<path fill="#a34443" opacity="1.00" d=" M 144.68 171.03 C 147.38 171.64 150.17 172.16 152.49 173.78 C 150.02 174.15 147.52 174.36 145.08 174.93 C 144.42 175.18 143.09 175.68 142.42 175.93 C 142.09 174.97 141.77 174.00 141.48 173.04 C 142.56 172.39 143.62 171.72 144.68 171.03 Z" />
<path fill="#5d0e2b" opacity="1.00" d=" M 157.92 172.45 C 161.29 171.76 164.66 171.11 168.05 170.52 C 166.50 175.50 164.31 180.30 161.17 184.50 C 159.25 184.20 157.28 184.08 155.43 183.46 C 153.31 182.14 151.74 180.15 150.00 178.40 C 151.42 177.60 152.83 176.81 154.29 176.08 C 156.21 175.71 158.14 175.33 160.06 174.93 C 159.35 174.10 158.64 173.27 157.92 172.45 Z" />
<path fill="#95333d" opacity="1.00" d=" M 167.95 175.54 C 168.53 174.06 169.08 172.55 169.56 171.03 C 170.20 172.37 170.93 173.66 171.66 174.95 C 173.67 173.60 175.93 172.69 178.31 173.69 C 177.25 175.86 176.15 178.02 174.92 180.10 C 173.10 177.90 170.62 176.48 167.95 175.54 Z" />
<path fill="#bd664f" opacity="1.00" d=" M 79.07 171.50 C 82.82 173.42 86.85 174.80 91.08 175.07 C 92.16 177.00 93.24 178.94 94.30 180.88 C 89.60 184.11 84.57 187.18 78.95 188.46 C 75.90 189.25 73.40 186.97 71.30 185.14 C 71.35 184.61 71.45 183.55 71.50 183.02 C 73.77 179.03 76.79 175.50 79.07 171.50 Z" />
<path fill="#000000" opacity="1.00" d=" M 114.80 184.09 C 116.58 179.35 120.64 176.14 124.28 172.85 L 123.96 174.05 C 123.35 174.80 122.70 175.52 122.03 176.22 C 120.91 177.35 119.76 178.45 118.67 179.61 C 117.32 181.05 116.03 182.54 114.80 184.09 Z" />
<path fill="#7c1f34" opacity="1.00" d=" M 138.35 174.37 C 139.39 173.93 140.44 173.51 141.48 173.04 C 141.77 174.00 142.09 174.97 142.42 175.93 C 145.67 179.71 150.20 182.08 153.52 185.80 C 147.82 188.15 141.69 189.02 135.76 190.59 C 135.22 189.16 134.68 187.74 134.14 186.31 C 137.19 185.04 140.26 183.83 143.35 182.69 C 141.79 179.85 140.12 177.07 138.35 174.37 Z" />
<path fill="#832336" opacity="1.00" d=" M 125.53 175.53 C 127.03 174.95 128.54 174.37 130.02 173.73 C 129.93 174.30 129.75 175.46 129.66 176.03 C 129.12 176.73 128.59 177.44 128.06 178.14 C 128.72 179.86 130.27 181.59 129.51 183.54 C 127.11 190.31 121.09 194.66 116.72 200.01 C 117.27 202.05 119.60 202.80 121.16 203.96 C 123.71 206.64 124.57 210.26 124.52 213.87 C 123.03 215.42 121.62 217.05 120.41 218.83 C 117.84 221.43 118.47 224.93 119.45 228.07 C 115.83 228.93 112.41 230.54 109.56 232.96 C 112.28 233.99 115.09 234.77 117.92 235.43 C 114.10 236.13 110.21 236.70 106.62 238.28 C 106.33 238.40 105.74 238.65 105.45 238.77 C 104.51 238.84 102.63 238.99 101.69 239.06 C 102.28 236.25 103.75 233.18 102.25 230.41 C 107.61 231.00 112.05 227.44 113.75 222.54 C 108.38 224.21 103.02 226.06 97.32 226.21 C 96.71 225.18 96.15 224.12 95.57 223.06 C 96.00 222.78 96.85 222.21 97.27 221.92 C 97.53 222.67 98.06 224.18 98.32 224.93 C 103.85 224.63 109.38 223.41 114.55 221.48 C 117.07 218.52 118.14 214.67 119.34 211.04 C 116.62 211.28 113.90 211.58 111.21 212.07 C 109.58 209.28 107.93 206.49 106.34 203.67 C 112.39 200.50 116.40 194.85 120.22 189.39 C 121.94 186.73 123.96 184.28 126.08 181.93 C 128.24 179.92 127.04 177.49 125.53 175.53 Z" />
<path fill="#761d33" opacity="1.00" d=" M 144.33 176.06 C 147.65 175.86 150.97 175.96 154.29 176.08 C 152.83 176.81 151.42 177.60 150.00 178.40 C 151.74 180.15 153.31 182.14 155.43 183.46 C 157.28 184.08 159.25 184.20 161.17 184.50 L 161.35 184.95 C 159.16 185.08 156.95 185.18 154.81 185.71 C 152.39 181.42 147.75 179.37 144.33 176.06 Z" />
<path fill="#6d1730" opacity="1.00" d=" M 163.96 183.77 C 165.31 181.04 166.81 178.37 167.95 175.54 C 170.62 176.48 173.10 177.90 174.92 180.10 C 172.22 183.64 170.74 187.84 171.19 192.34 C 166.54 192.13 165.62 187.18 163.96 183.77 Z" />
<path fill="#cb7459" opacity="1.00" d=" M 118.67 179.61 C 119.76 178.45 120.91 177.35 122.03 176.22 C 123.41 178.10 124.75 180.01 126.08 181.93 C 123.96 184.28 121.94 186.73 120.22 189.39 C 118.98 189.47 117.76 189.56 116.53 189.65 C 117.24 188.82 117.97 188.01 118.71 187.21 C 120.97 185.65 122.63 183.49 123.59 180.92 C 121.95 180.47 120.31 180.03 118.67 179.61 Z" />
<path fill="#efaa7b" opacity="1.00" d=" M 114.80 184.09 C 116.03 182.54 117.32 181.05 118.67 179.61 C 120.31 180.03 121.95 180.47 123.59 180.92 C 122.63 183.49 120.97 185.65 118.71 187.21 C 119.22 185.78 119.67 184.33 120.12 182.88 C 116.57 184.56 113.05 186.92 111.54 190.72 C 111.69 191.93 112.29 193.02 112.70 194.15 C 111.54 194.99 110.20 198.09 108.83 196.01 C 108.93 194.23 109.31 192.48 109.73 190.75 C 111.50 188.59 113.25 186.41 114.80 184.09 Z" />
<path fill="#ffffd4" opacity="1.00" d=" M 111.54 190.72 C 113.05 186.92 116.57 184.56 120.12 182.88 C 119.67 184.33 119.22 185.78 118.71 187.21 C 117.97 188.01 117.24 188.82 116.53 189.65 C 115.25 191.14 114.00 192.67 112.70 194.15 C 112.29 193.02 111.69 191.93 111.54 190.72 Z" />
<path fill="#9b3940" opacity="1.00" d=" M 163.47 185.07 C 163.59 184.74 163.84 184.10 163.96 183.77 C 165.62 187.18 166.54 192.13 171.19 192.34 C 175.77 198.49 184.02 196.81 190.67 197.48 C 188.35 199.72 185.19 200.44 182.20 201.28 C 179.23 202.09 176.51 203.54 173.69 204.74 L 173.32 204.16 C 172.30 201.33 169.34 200.30 166.85 199.14 C 168.87 199.14 170.89 199.03 172.90 198.93 C 171.37 196.86 169.97 194.65 168.04 192.93 C 166.91 191.60 165.36 192.86 164.05 193.16 C 164.93 193.93 165.83 194.72 166.73 195.49 C 165.74 196.25 164.75 197.02 163.77 197.79 C 162.07 196.92 160.44 195.93 158.81 194.96 C 160.46 193.25 162.33 191.67 163.59 189.63 C 163.71 188.11 163.51 186.59 163.47 185.07 M 173.40 199.00 C 174.30 199.88 175.28 202.13 176.88 200.96 C 178.31 200.39 179.25 199.12 180.31 198.07 C 177.93 197.58 175.58 198.00 173.40 199.00 Z" />
<path fill="#7f2035" opacity="1.00" d=" M 98.60 193.53 C 101.46 190.72 103.94 187.53 106.99 184.91 C 106.16 186.93 105.52 189.02 104.89 191.12 C 105.74 191.36 106.58 191.62 107.43 191.87 C 106.13 194.07 104.18 196.22 104.32 198.95 C 104.21 204.25 109.47 207.92 109.67 213.04 C 106.64 216.16 102.43 217.64 98.73 219.75 C 97.32 216.86 95.03 214.59 92.66 212.47 C 95.17 210.86 100.42 210.12 99.72 206.18 C 98.60 204.18 96.80 202.69 95.25 201.03 C 95.99 198.33 95.25 195.79 93.54 193.63 L 93.50 193.51 C 95.20 193.58 96.91 193.76 98.60 193.53 Z" />
<path fill="#a84d45" opacity="1.00" d=" M 154.81 185.71 C 156.95 185.18 159.16 185.08 161.35 184.95 C 161.56 185.47 161.96 186.51 162.16 187.03 C 159.82 187.55 157.50 188.14 155.17 188.68 C 151.63 189.33 148.09 190.00 144.69 191.22 C 145.75 193.16 147.84 193.83 149.82 194.41 C 152.43 195.03 155.17 194.95 157.57 193.65 C 158.24 197.03 161.63 198.36 164.37 199.74 C 160.22 199.39 156.10 198.72 152.10 197.58 C 146.15 195.84 139.69 195.58 134.28 192.30 C 141.10 190.06 148.85 190.12 154.81 185.71 Z" />
<path fill="#de8d67" opacity="1.00" d=" M 155.17 188.68 C 157.50 188.14 159.82 187.55 162.16 187.03 L 162.61 188.29 C 161.25 190.35 159.53 192.15 157.57 193.65 C 155.17 194.95 152.43 195.03 149.82 194.41 C 151.87 192.77 153.75 190.91 155.17 188.68 Z" />
<path fill="#5a0b2a" opacity="1.00" d=" M 85.64 190.32 C 87.50 189.51 89.36 188.70 91.22 187.89 C 91.29 189.26 91.36 190.63 91.43 192.01 C 91.79 190.92 92.17 189.85 92.57 188.78 C 92.85 190.36 93.13 191.94 93.50 193.51 L 93.54 193.63 C 93.62 193.95 93.79 194.61 93.88 194.93 C 94.13 195.96 94.42 196.99 94.58 198.05 C 95.18 199.71 92.98 200.02 92.09 200.89 C 90.66 196.96 88.22 193.57 85.64 190.32 Z" />
<path fill="#b75c4d" opacity="1.00" d=" M 116.53 189.65 C 117.76 189.56 118.98 189.47 120.22 189.39 C 116.40 194.85 112.39 200.50 106.34 203.67 C 103.74 199.86 105.44 195.14 108.50 192.19 C 108.81 191.83 109.42 191.11 109.73 190.75 C 109.31 192.48 108.93 194.23 108.83 196.01 C 110.20 198.09 111.54 194.99 112.70 194.15 C 114.00 192.67 115.25 191.14 116.53 189.65 Z" />
<path fill="#ffe1ab" opacity="1.00" d=" M 144.69 191.22 C 148.09 190.00 151.63 189.33 155.17 188.68 C 153.75 190.91 151.87 192.77 149.82 194.41 C 147.84 193.83 145.75 193.16 144.69 191.22 Z" />
<path fill="#791d33" opacity="1.00" d=" M 134.88 199.00 C 133.66 196.91 133.24 194.55 134.28 192.30 C 139.69 195.58 146.15 195.84 152.10 197.58 C 156.10 198.72 160.22 199.39 164.37 199.74 C 167.49 200.93 170.48 202.42 173.32 204.16 L 173.69 204.74 C 173.06 204.90 171.81 205.23 171.18 205.39 L 171.14 205.40 C 170.82 205.48 170.18 205.65 169.86 205.73 C 168.97 206.15 168.10 206.61 167.25 207.12 C 162.19 205.36 156.67 206.14 151.62 204.38 C 146.61 202.70 141.67 200.80 136.97 198.39 C 136.45 198.54 135.40 198.85 134.88 199.00 Z" />
<path fill="#ac5047" opacity="1.00" d=" M 164.05 193.16 C 165.36 192.86 166.91 191.60 168.04 192.93 C 169.97 194.65 171.37 196.86 172.90 198.93 C 170.89 199.03 168.87 199.14 166.85 199.14 C 165.81 198.72 164.78 198.26 163.77 197.79 C 164.75 197.02 165.74 196.25 166.73 195.49 C 165.83 194.72 164.93 193.93 164.05 193.16 Z" />
<path fill="#a34543" opacity="1.00" d=" M 52.79 204.69 C 60.81 205.16 67.03 199.14 73.58 195.43 C 73.91 196.47 74.23 197.52 74.49 198.59 C 74.37 198.81 74.12 199.24 74.00 199.45 C 73.84 199.69 73.53 200.16 73.37 200.40 C 71.98 202.24 70.99 204.72 68.69 205.62 C 63.07 207.96 56.92 208.70 50.88 208.70 C 51.52 207.36 52.16 206.03 52.79 204.69 Z" />
<path fill="#510828" opacity="1.00" d=" M 134.88 199.00 C 135.40 198.85 136.45 198.54 136.97 198.39 C 141.67 200.80 146.61 202.70 151.62 204.38 C 156.67 206.14 162.19 205.36 167.25 207.12 C 165.74 208.72 164.35 210.43 162.94 212.13 C 164.57 213.74 166.36 215.17 168.32 216.35 C 168.34 217.10 168.39 218.61 168.41 219.36 C 168.03 220.25 167.62 221.12 167.19 221.98 C 166.83 222.21 166.12 222.66 165.77 222.89 C 165.20 223.25 164.07 223.97 163.50 224.33 C 162.52 225.33 161.62 226.39 160.65 227.40 C 159.15 226.41 157.62 225.46 156.06 224.57 C 155.86 223.42 155.66 222.26 155.46 221.11 C 152.68 220.28 149.96 219.32 147.25 218.31 C 150.28 217.43 153.52 216.85 156.23 215.15 C 157.73 213.95 156.74 211.93 156.78 210.35 C 154.02 210.06 151.24 209.78 148.47 210.11 C 148.55 209.23 148.63 208.35 148.71 207.48 C 143.83 205.16 138.57 203.13 134.88 199.00 Z" />
<path fill="#782034" opacity="1.00" d=" M 173.40 199.00 C 175.58 198.00 177.93 197.58 180.31 198.07 C 179.25 199.12 178.31 200.39 176.88 200.96 C 175.28 202.13 174.30 199.88 173.40 199.00 Z" />
<path fill="#b95f4d" opacity="1.00" d=" M 190.67 197.48 C 193.61 197.60 196.55 197.86 199.42 198.57 C 193.58 204.11 185.24 205.09 178.45 209.02 C 176.69 209.44 174.93 209.90 173.24 210.55 C 172.36 208.91 171.60 207.21 171.18 205.39 C 171.81 205.23 173.06 204.90 173.69 204.74 C 176.51 203.54 179.23 202.09 182.20 201.28 C 185.19 200.44 188.35 199.72 190.67 197.48 Z" />
<path fill="#a64444" opacity="1.00" d=" M 199.42 198.57 C 202.26 199.33 204.83 200.79 207.27 202.40 C 200.89 205.69 193.69 206.84 187.31 210.15 C 186.20 210.60 185.08 211.03 183.97 211.48 C 183.56 211.03 182.75 210.14 182.34 209.70 C 181.04 209.47 179.74 209.25 178.45 209.02 C 185.24 205.09 193.58 204.11 199.42 198.57 Z" />
<path fill="#340f17" opacity="1.00" d=" M 73.37 200.40 C 73.53 200.16 73.84 199.69 74.00 199.45 C 75.83 199.68 76.53 201.45 76.83 203.04 C 75.65 202.39 74.44 201.79 73.35 201.00 L 73.37 200.40 Z" />
<path fill="#550a29" opacity="1.00" d=" M 68.69 205.62 C 70.99 204.72 71.98 202.24 73.37 200.40 L 73.35 201.00 C 72.72 206.78 72.46 212.60 72.80 218.41 L 72.51 217.71 C 72.59 214.02 72.42 210.31 71.68 206.69 C 70.66 208.55 69.91 210.54 69.27 212.56 C 64.08 213.79 58.63 213.91 53.63 215.81 C 50.30 217.16 49.79 221.17 47.60 223.63 C 44.47 225.44 40.72 223.82 37.34 223.85 C 38.10 223.31 38.87 222.78 39.65 222.28 C 39.60 221.10 39.52 219.93 39.42 218.76 C 41.64 217.65 44.42 217.01 45.65 214.62 C 46.96 211.84 46.82 208.64 47.79 205.75 C 49.16 204.53 51.11 204.85 52.79 204.69 C 52.16 206.03 51.52 207.36 50.88 208.70 C 56.92 208.70 63.07 207.96 68.69 205.62 Z" />
<path fill="#b05149" opacity="1.00" d=" M 73.35 201.00 C 74.44 201.79 75.65 202.39 76.83 203.04 C 77.37 204.41 77.94 205.77 78.41 207.18 L 78.54 207.73 C 79.04 211.35 81.35 214.23 83.53 217.01 C 82.41 217.64 81.29 218.28 80.17 218.92 C 78.98 217.85 77.78 216.79 76.58 215.74 C 75.81 217.60 75.04 219.47 74.22 221.32 C 73.72 220.36 73.25 219.39 72.80 218.41 C 72.46 212.60 72.72 206.78 73.35 201.00 Z" />
<path fill="#852537" opacity="1.00" d=" M 89.98 202.32 C 90.88 201.68 91.94 200.89 93.08 201.56 C 95.70 202.63 98.75 204.68 98.96 207.78 C 97.69 208.85 96.24 209.67 94.77 210.42 C 94.11 207.22 92.94 204.04 89.98 202.32 Z" />
<path fill="#b85e4c" opacity="1.00" d=" M 84.33 205.38 C 86.45 204.86 88.26 203.61 89.98 202.32 C 92.94 204.04 94.11 207.22 94.77 210.42 C 93.35 211.08 91.91 211.72 90.46 212.32 C 86.53 213.90 83.17 211.02 81.12 207.95 C 82.19 207.10 83.26 206.24 84.33 205.38 Z" />
<path fill="#570c29" opacity="1.00" d=" M 121.16 203.96 C 123.98 205.20 126.71 206.61 129.24 208.37 C 127.76 210.28 126.18 212.11 124.52 213.87 C 124.57 210.26 123.71 206.64 121.16 203.96 Z" />
<path fill="#832336" opacity="1.00" d=" M 78.54 207.73 C 80.24 206.44 82.24 205.75 84.33 205.38 C 83.26 206.24 82.19 207.10 81.12 207.95 C 83.17 211.02 86.53 213.90 90.46 212.32 C 93.14 214.35 95.68 216.58 97.97 219.06 C 95.64 221.05 93.25 223.33 90.09 223.81 C 84.93 225.06 81.35 218.10 76.18 220.17 C 75.34 222.78 77.01 226.54 74.14 228.18 C 69.15 231.00 63.24 231.85 57.58 231.46 C 62.60 228.53 68.87 228.26 73.32 224.31 C 72.61 223.48 71.89 222.65 71.18 221.82 C 71.63 220.45 72.08 219.08 72.51 217.71 L 72.80 218.41 C 73.25 219.39 73.72 220.36 74.22 221.32 C 75.04 219.47 75.81 217.60 76.58 215.74 C 77.78 216.79 78.98 217.85 80.17 218.92 C 81.29 218.28 82.41 217.64 83.53 217.01 C 81.35 214.23 79.04 211.35 78.54 207.73 Z" />
<path fill="#97363e" opacity="1.00" d=" M 165.14 211.32 C 166.20 208.65 169.02 207.18 171.14 205.40 L 171.18 205.39 C 171.60 207.21 172.36 208.91 173.24 210.55 C 171.72 212.25 170.30 214.04 168.86 215.81 C 167.38 214.61 164.48 213.78 165.14 211.32 Z" />
<path fill="#560b29" opacity="1.00" d=" M 178.45 209.02 C 179.74 209.25 181.04 209.47 182.34 209.70 C 182.75 210.14 183.56 211.03 183.97 211.48 C 185.08 211.03 186.20 210.60 187.31 210.15 C 188.06 214.05 192.11 214.99 195.42 215.77 C 194.75 218.49 193.98 221.19 193.12 223.85 C 198.06 223.94 203.00 223.94 207.94 223.87 C 211.85 223.69 215.82 223.87 219.56 225.12 C 218.31 225.62 217.08 226.16 215.83 226.65 C 211.77 224.82 207.25 226.15 203.01 226.52 C 204.07 226.99 205.14 227.46 206.23 227.90 C 198.15 226.83 189.62 228.52 181.89 225.52 C 183.87 223.82 185.86 222.16 187.85 220.48 C 186.52 219.98 185.19 219.48 183.87 218.99 C 183.75 217.15 183.75 215.29 183.37 213.49 C 182.19 211.57 180.15 210.42 178.45 209.02 Z" />
<path fill="#782235" opacity="1.00" d=" M 133.80 217.20 C 137.97 213.57 143.27 211.73 148.47 210.11 C 151.24 209.78 154.02 210.06 156.78 210.35 C 156.74 211.93 157.73 213.95 156.23 215.15 C 153.52 216.85 150.28 217.43 147.25 218.31 C 145.57 218.36 143.90 218.47 142.23 218.53 C 139.40 218.26 136.60 217.72 133.80 217.20 Z" />
<path fill="#b85d4e" opacity="1.00" d=" M 111.21 212.07 C 113.90 211.58 116.62 211.28 119.34 211.04 C 118.14 214.67 117.07 218.52 114.55 221.48 C 109.38 223.41 103.85 224.63 98.32 224.93 C 98.06 224.18 97.53 222.67 97.27 221.92 C 101.78 218.44 108.07 217.15 111.21 212.07 Z" />
<path fill="#b7594d" opacity="1.00" d=" M 168.41 219.36 C 169.93 216.10 171.68 212.51 175.06 210.82 C 177.39 209.81 179.75 211.00 181.77 212.14 C 178.32 218.41 172.84 223.26 167.18 227.50 C 166.69 227.04 165.70 226.12 165.20 225.66 C 165.39 224.73 165.58 223.81 165.77 222.89 C 166.12 222.66 166.83 222.21 167.19 221.98 C 167.62 221.12 168.03 220.25 168.41 219.36 Z" />
<path fill="#97333f" opacity="1.00" d=" M 167.18 227.50 C 172.84 223.26 178.32 218.41 181.77 212.14 C 185.23 216.45 180.69 220.89 179.01 224.87 C 175.14 226.99 170.83 229.69 166.22 228.38 C 164.35 228.02 164.24 225.73 163.50 224.33 C 164.07 223.97 165.20 223.25 165.77 222.89 C 165.58 223.81 165.39 224.73 165.20 225.66 C 165.70 226.12 166.69 227.04 167.18 227.50 Z" />
<path fill="#6c1631" opacity="1.00" d=" M 195.42 215.77 C 199.62 216.49 203.86 217.02 208.10 217.55 C 206.37 217.70 204.65 217.94 202.94 218.18 C 204.18 220.41 205.85 222.38 207.94 223.87 C 203.00 223.94 198.06 223.94 193.12 223.85 C 193.98 221.19 194.75 218.49 195.42 215.77 Z" />
<path fill="#832139" opacity="1.00" d=" M 202.94 218.18 C 204.65 217.94 206.37 217.70 208.10 217.55 C 208.44 217.57 209.12 217.61 209.46 217.63 C 212.09 222.70 218.43 221.66 223.18 221.37 C 230.76 220.55 238.36 221.79 245.67 223.78 C 245.54 224.69 245.28 226.50 245.15 227.41 C 236.67 226.28 228.16 222.18 219.56 225.12 C 215.82 223.87 211.85 223.69 207.94 223.87 C 205.85 222.38 204.18 220.41 202.94 218.18 Z" />
<path fill="#ae394c" opacity="1.00" d=" M 209.46 217.63 C 213.36 217.83 217.26 217.84 221.16 217.85 C 220.49 218.59 219.81 219.33 219.14 220.07 C 220.48 220.52 221.82 220.96 223.18 221.37 C 218.43 221.66 212.09 222.70 209.46 217.63 Z" />
<path fill="#d04e61" opacity="1.00" d=" M 221.16 217.85 C 227.63 217.70 234.04 218.67 240.23 220.50 C 242.10 221.35 243.50 220.04 244.56 218.66 C 245.23 219.90 246.27 220.84 247.43 221.63 C 247.00 221.98 246.59 222.34 246.19 222.71 C 246.06 222.98 245.80 223.51 245.67 223.78 C 238.36 221.79 230.76 220.55 223.18 221.37 C 221.82 220.96 220.48 220.52 219.14 220.07 C 219.81 219.33 220.49 218.59 221.16 217.85 Z" />
<path fill="#822038" opacity="1.00" d=" M 37.71 219.58 C 38.13 219.38 38.99 218.97 39.42 218.76 C 39.52 219.93 39.60 221.10 39.65 222.28 C 38.87 222.78 38.10 223.31 37.34 223.85 C 35.23 225.58 33.42 227.89 30.73 228.74 C 26.73 230.11 22.52 230.63 18.36 231.21 C 23.20 227.50 29.39 226.51 34.53 223.38 C 36.04 222.56 36.86 221.00 37.71 219.58 Z" />
<path fill="#66132e" opacity="1.00" d=" M 119.45 228.07 C 118.47 224.93 117.84 221.43 120.41 218.83 C 125.57 220.57 131.01 221.38 136.08 223.39 C 133.80 224.27 131.50 225.11 129.15 225.81 C 125.94 226.67 122.66 227.23 119.45 228.07 Z" />
<path fill="#4e0627" opacity="1.00" d=" M 134.44 219.65 C 137.13 219.81 140.29 221.18 142.23 218.53 C 144.19 218.77 146.16 219.00 148.12 219.25 C 147.74 223.90 141.52 223.37 139.57 227.02 C 141.18 232.23 147.36 233.57 151.27 236.64 C 144.33 236.93 137.38 235.55 130.85 233.28 C 131.50 232.07 132.15 230.87 132.81 229.67 C 131.82 228.87 130.82 228.10 129.91 227.21 C 132.45 226.35 135.61 226.26 137.41 224.02 C 137.72 221.25 134.43 220.93 132.61 219.89 C 133.07 219.83 133.98 219.71 134.44 219.65 Z" />
<path fill="#8a253c" opacity="1.00" d=" M 244.56 218.66 C 249.88 220.51 255.26 222.60 259.78 226.05 C 255.19 225.13 250.87 223.16 246.19 222.71 C 246.59 222.34 247.00 221.98 247.43 221.63 C 246.27 220.84 245.23 219.90 244.56 218.66 Z" />
<path fill="#d04e61" opacity="1.00" d=" M 2.12 233.83 C 14.02 229.21 26.24 225.27 37.71 219.58 C 36.86 221.00 36.04 222.56 34.53 223.38 C 29.39 226.51 23.20 227.50 18.36 231.21 C 13.03 232.53 7.67 234.08 2.12 233.83 Z" />
<path fill="#6e1831" opacity="1.00" d=" M 180.42 224.69 C 180.39 221.75 183.22 218.36 186.17 220.73 C 184.47 222.34 182.55 223.70 180.42 224.69 Z" />
<path fill="#c35057" opacity="1.00" d=" M 52.04 227.00 C 58.16 224.42 64.88 223.84 71.18 221.82 C 71.89 222.65 72.61 223.48 73.32 224.31 C 68.87 228.26 62.60 228.53 57.58 231.46 C 51.07 230.45 45.10 233.60 38.71 233.85 C 40.77 233.25 42.92 232.89 44.90 232.03 C 47.43 230.57 49.32 228.17 52.04 227.00 Z" />
<path fill="#b9584e" opacity="1.00" d=" M 97.32 226.21 C 103.02 226.06 108.38 224.21 113.75 222.54 C 112.05 227.44 107.61 231.00 102.25 230.41 C 100.44 229.22 98.69 227.91 97.32 226.21 Z" />
<path fill="#62112e" opacity="1.00" d=" M 160.65 227.40 C 161.62 226.39 162.52 225.33 163.50 224.33 C 164.24 225.73 164.35 228.02 166.22 228.38 C 170.83 229.69 175.14 226.99 179.01 224.87 C 187.51 230.08 198.69 229.25 206.47 235.68 C 196.44 234.77 186.40 231.84 176.30 233.79 C 176.65 234.93 177.00 236.07 177.36 237.22 C 173.28 238.14 169.08 238.55 164.92 238.05 C 165.65 237.39 166.39 236.74 167.13 236.09 C 164.95 234.90 162.89 233.50 160.88 232.06 C 158.62 230.31 155.59 230.66 152.92 230.65 C 155.53 229.67 158.19 228.75 160.65 227.40 Z" />
<path fill="#6c182f" opacity="1.00" d=" M 203.01 226.52 C 207.25 226.15 211.77 224.82 215.83 226.65 C 212.82 228.00 209.47 228.18 206.23 227.90 C 205.14 227.46 204.07 226.99 203.01 226.52 Z" />
<path fill="#b1464d" opacity="1.00" d=" M 149.21 232.95 C 150.29 231.96 151.51 231.11 152.92 230.65 C 155.59 230.66 158.62 230.31 160.88 232.06 C 162.89 233.50 164.95 234.90 167.13 236.09 C 166.39 236.74 165.65 237.39 164.92 238.05 C 159.45 237.50 153.44 236.84 149.21 232.95 Z" />
</svg>
