<?xml version="1.0" encoding="UTF-8" ?>
<!DOCTYPE svg PUBLIC "-//W3C//DTD SVG 1.1//EN" "http://www.w3.org/Graphics/SVG/1.1/DTD/svg11.dtd">
<svg width="71pt" height="77pt" viewBox="0 0 71 77" version="1.1" xmlns="http://www.w3.org/2000/svg">
<path fill="#000000" opacity="1.00" d=" M 20.28 0.00 L 20.96 0.00 C 25.30 2.80 27.70 8.05 28.28 13.06 C 27.59 17.53 21.86 20.36 23.98 25.41 C 26.42 25.97 28.97 23.89 31.54 23.71 C 38.09 22.87 45.31 22.53 51.21 26.02 C 53.95 24.36 57.44 23.40 60.53 24.65 C 64.98 27.54 65.44 33.56 64.65 38.33 C 65.93 40.10 67.12 41.98 67.70 44.12 C 69.55 50.19 71.10 56.50 70.66 62.90 C 64.66 68.14 56.77 70.28 49.57 73.33 C 39.14 76.82 27.87 77.35 16.99 76.20 C 11.86 75.27 5.54 74.18 3.07 68.92 C -0.53 61.90 -0.97 52.74 3.30 45.92 C 2.00 41.07 4.88 33.94 10.77 34.66 C 13.28 31.33 16.64 28.70 20.41 26.94 C 18.67 24.91 16.49 22.89 16.22 20.07 C 15.57 15.54 19.01 11.95 19.87 7.71 C 20.76 5.22 20.12 2.57 20.28 0.00 M 19.58 15.53 L 19.58 15.03 C 18.56 19.22 19.18 24.15 22.92 26.86 C 21.44 23.45 22.22 19.83 23.84 16.70 C 28.61 13.40 25.33 7.23 22.68 3.63 C 22.44 7.80 20.64 11.57 19.58 15.53 M 27.21 27.22 L 27.45 27.49 C 26.82 27.59 25.58 27.78 24.96 27.88 C 25.33 28.67 25.63 29.48 25.88 30.31 C 24.64 29.65 23.40 28.98 22.15 28.32 C 20.18 29.30 18.27 30.41 16.65 31.91 C 14.70 33.15 13.17 34.90 11.49 36.45 L 11.36 37.11 L 10.15 37.03 C 7.74 36.36 6.25 38.76 5.55 40.68 C 4.75 43.43 5.13 46.37 4.11 49.07 C 1.75 56.44 2.37 65.42 7.70 71.37 C 12.68 73.37 18.35 74.40 23.68 73.81 C 28.46 74.95 33.52 73.96 38.37 73.56 C 48.43 71.55 58.53 68.51 67.24 62.96 C 70.31 60.40 68.02 56.09 67.75 52.84 C 67.58 51.05 66.72 49.38 66.16 47.68 C 65.70 44.27 64.05 41.24 62.52 38.22 C 64.16 34.67 62.15 30.79 60.37 27.68 C 58.57 24.86 54.90 26.69 52.44 27.45 C 50.60 28.52 48.97 26.47 47.11 26.68 C 46.21 26.37 45.31 26.06 44.42 25.74 C 38.67 24.87 32.77 25.60 27.21 27.22 Z" />
<path fill="#c8f370" opacity="1.00" d=" M 19.58 15.53 C 20.64 11.57 22.44 7.80 22.68 3.63 C 25.33 7.23 28.61 13.40 23.84 16.70 C 22.64 17.66 21.12 17.85 19.65 18.02 C 19.63 17.40 19.59 16.16 19.58 15.53 Z" />
<path fill="#469654" opacity="1.00" d=" M 19.58 15.03 L 19.58 15.53 C 19.59 16.16 19.63 17.40 19.65 18.02 C 21.12 17.85 22.64 17.66 23.84 16.70 C 22.22 19.83 21.44 23.45 22.92 26.86 C 19.18 24.15 18.56 19.22 19.58 15.03 Z" />
<path fill="#80617e" opacity="1.00" d=" M 27.21 27.22 C 32.77 25.60 38.67 24.87 44.42 25.74 C 39.00 28.44 35.93 34.13 34.62 39.83 C 34.27 41.14 34.65 42.49 34.83 43.80 C 33.87 45.09 33.03 46.45 32.28 47.87 C 28.38 50.02 25.01 52.95 22.41 56.56 C 21.96 55.78 21.52 55.00 21.07 54.22 C 19.84 52.00 17.87 50.20 15.50 49.30 L 13.87 49.68 C 13.75 49.71 13.49 49.77 13.36 49.80 C 9.69 50.28 8.38 55.59 10.86 58.13 C 12.79 60.81 16.61 60.94 19.28 59.34 C 19.72 61.89 17.86 63.92 17.38 66.29 C 17.64 67.67 18.32 68.91 18.86 70.19 C 15.38 70.75 11.54 69.39 9.58 66.38 C 7.93 63.99 5.22 62.13 4.91 59.04 C 3.49 53.38 6.13 47.99 6.65 42.43 C 7.49 40.44 8.92 38.77 10.15 37.03 L 11.36 37.11 C 11.37 39.68 9.45 41.94 9.57 44.40 C 13.89 48.34 21.34 48.95 25.84 44.85 C 31.08 40.97 32.65 32.00 27.45 27.49 L 27.21 27.22 Z" />
<path fill="#6e5570" opacity="1.00" d=" M 44.42 25.74 C 45.31 26.06 46.21 26.37 47.11 26.68 C 48.35 28.07 50.25 29.70 48.84 31.70 C 46.87 35.69 46.67 40.21 46.05 44.54 C 42.55 43.10 38.31 41.27 34.83 43.80 C 34.65 42.49 34.27 41.14 34.62 39.83 C 35.93 34.13 39.00 28.44 44.42 25.74 Z" />
<path fill="#3c2e45" opacity="1.00" d=" M 52.44 27.45 C 54.90 26.69 58.57 24.86 60.37 27.68 C 62.15 30.79 64.16 34.67 62.52 38.22 C 61.94 39.16 61.38 40.11 60.74 41.00 C 58.44 38.14 57.92 34.20 55.36 31.56 C 53.52 29.57 50.94 31.11 48.84 31.70 C 50.25 29.70 48.35 28.07 47.11 26.68 C 48.97 26.47 50.60 28.52 52.44 27.45 Z" />
<path fill="#9c778b" opacity="1.00" d=" M 24.96 27.88 C 25.58 27.78 26.82 27.59 27.45 27.49 C 32.65 32.00 31.08 40.97 25.84 44.85 C 21.34 48.95 13.89 48.34 9.57 44.40 C 9.45 41.94 11.37 39.68 11.36 37.11 L 11.49 36.45 C 13.17 34.90 14.70 33.15 16.65 31.91 C 16.75 32.66 16.96 34.17 17.07 34.92 C 15.93 36.10 14.92 37.38 14.08 38.79 C 13.67 39.21 12.83 40.07 12.42 40.49 C 15.08 46.07 24.21 44.85 26.33 39.40 C 27.86 36.47 26.82 33.24 25.88 30.31 C 25.63 29.48 25.33 28.67 24.96 27.88 Z" />
<path fill="#b38993" opacity="1.00" d=" M 16.65 31.91 C 18.27 30.41 20.18 29.30 22.15 28.32 C 23.40 28.98 24.64 29.65 25.88 30.31 C 26.82 33.24 27.86 36.47 26.33 39.40 C 24.21 44.85 15.08 46.07 12.42 40.49 C 12.83 40.07 13.67 39.21 14.08 38.79 C 15.91 43.90 23.90 38.98 22.56 34.65 C 20.77 33.88 18.82 34.26 17.07 34.92 C 16.96 34.17 16.75 32.66 16.65 31.91 Z" />
<path fill="#5e4962" opacity="1.00" d=" M 48.84 31.70 C 50.94 31.11 53.52 29.57 55.36 31.56 C 57.92 34.20 58.44 38.14 60.74 41.00 C 59.06 43.64 55.49 42.97 52.98 44.27 C 54.81 44.91 57.60 43.98 58.69 45.89 C 58.03 47.53 57.09 49.04 56.50 50.71 C 57.66 52.66 59.05 54.46 60.34 56.33 C 56.34 59.19 52.00 61.69 47.19 62.89 C 43.09 62.04 40.31 65.09 37.19 67.08 C 38.01 65.72 38.97 64.38 39.37 62.82 C 39.10 61.24 38.53 59.74 38.23 58.17 C 39.26 56.97 40.68 56.21 41.99 55.37 C 46.49 54.07 49.50 48.44 46.05 44.54 C 46.67 40.21 46.87 35.69 48.84 31.70 Z" />
<path fill="#ffffd4" opacity="1.00" d=" M 17.07 34.92 C 18.82 34.26 20.77 33.88 22.56 34.65 C 23.90 38.98 15.91 43.90 14.08 38.79 C 14.92 37.38 15.93 36.10 17.07 34.92 Z" />
<path fill="#4d3b52" opacity="1.00" d=" M 5.55 40.68 C 6.25 38.76 7.74 36.36 10.15 37.03 C 8.92 38.77 7.49 40.44 6.65 42.43 C 6.13 47.99 3.49 53.38 4.91 59.04 C 5.22 62.13 7.93 63.99 9.58 66.38 C 11.54 69.39 15.38 70.75 18.86 70.19 C 21.29 69.55 23.70 69.88 26.12 70.28 C 29.95 69.87 33.68 68.65 37.19 67.08 C 40.31 65.09 43.09 62.04 47.19 62.89 C 46.65 64.77 46.24 66.71 45.39 68.49 C 42.68 71.21 38.49 68.24 35.47 70.28 C 31.84 72.35 27.70 72.94 23.68 73.81 C 18.35 74.40 12.68 73.37 7.70 71.37 C 2.37 65.42 1.75 56.44 4.11 49.07 C 5.13 46.37 4.75 43.43 5.55 40.68 Z" />
<path fill="#413248" opacity="1.00" d=" M 60.74 41.00 C 61.38 40.11 61.94 39.16 62.52 38.22 C 64.05 41.24 65.70 44.27 66.16 47.68 C 64.94 50.97 63.79 54.73 60.34 56.33 C 59.05 54.46 57.66 52.66 56.50 50.71 C 57.09 49.04 58.03 47.53 58.69 45.89 C 57.60 43.98 54.81 44.91 52.98 44.27 C 55.49 42.97 59.06 43.64 60.74 41.00 Z" />
<path fill="#000000" opacity="1.00" d=" M 34.83 43.80 C 38.31 41.27 42.55 43.10 46.05 44.54 C 49.50 48.44 46.49 54.07 41.99 55.37 C 38.69 55.99 34.52 55.62 32.52 52.56 C 31.91 51.08 32.31 49.42 32.28 47.87 C 33.03 46.45 33.87 45.09 34.83 43.80 M 35.00 45.05 C 33.07 47.35 31.62 51.67 34.90 53.51 C 38.10 55.18 42.53 54.83 45.04 52.08 C 46.62 50.45 47.10 47.11 45.33 45.58 C 42.23 44.06 37.81 42.02 35.00 45.05 Z" />
<path fill="#fbd11c" opacity="1.00" d=" M 35.00 45.05 C 37.81 42.02 42.23 44.06 45.33 45.58 C 42.69 49.04 40.00 54.04 34.90 53.51 C 31.62 51.67 33.07 47.35 35.00 45.05 Z" />
<path fill="#d38d1d" opacity="1.00" d=" M 45.33 45.58 C 47.10 47.11 46.62 50.45 45.04 52.08 C 42.53 54.83 38.10 55.18 34.90 53.51 C 40.00 54.04 42.69 49.04 45.33 45.58 Z" />
<path fill="#6e5470" opacity="1.00" d=" M 22.41 56.56 C 25.01 52.95 28.38 50.02 32.28 47.87 C 32.31 49.42 31.91 51.08 32.52 52.56 C 34.52 55.62 38.69 55.99 41.99 55.37 C 40.68 56.21 39.26 56.97 38.23 58.17 C 38.53 59.74 39.10 61.24 39.37 62.82 C 38.97 64.38 38.01 65.72 37.19 67.08 C 33.68 68.65 29.95 69.87 26.12 70.28 C 23.70 69.88 21.29 69.55 18.86 70.19 C 18.32 68.91 17.64 67.67 17.38 66.29 C 17.86 63.92 19.72 61.89 19.28 59.34 C 20.57 57.95 21.91 56.22 21.07 54.22 C 21.52 55.00 21.96 55.78 22.41 56.56 Z" />
<path fill="#34283d" opacity="1.00" d=" M 66.16 47.68 C 66.72 49.38 67.58 51.05 67.75 52.84 C 66.52 56.04 66.94 59.63 67.24 62.96 C 58.53 68.51 48.43 71.55 38.37 73.56 C 33.52 73.96 28.46 74.95 23.68 73.81 C 27.70 72.94 31.84 72.35 35.47 70.28 C 38.49 68.24 42.68 71.21 45.39 68.49 C 46.24 66.71 46.65 64.77 47.19 62.89 C 52.00 61.69 56.34 59.19 60.34 56.33 C 63.79 54.73 64.94 50.97 66.16 47.68 Z" />
<path fill="#000000" opacity="1.00" d=" M 10.86 58.13 C 8.38 55.59 9.69 50.28 13.36 49.80 C 10.14 51.51 9.24 56.54 12.73 58.46 C 15.30 60.23 19.28 58.89 20.28 55.95 C 20.08 55.44 19.67 54.42 19.47 53.91 C 18.09 51.98 16.19 50.35 13.87 49.68 L 15.50 49.30 C 17.87 50.20 19.84 52.00 21.07 54.22 C 21.91 56.22 20.57 57.95 19.28 59.34 C 16.61 60.94 12.79 60.81 10.86 58.13 Z" />
<path fill="#f8cd1c" opacity="1.00" d=" M 13.36 49.80 C 13.49 49.77 13.75 49.71 13.87 49.68 C 16.19 50.35 18.09 51.98 19.47 53.91 C 17.30 55.53 15.04 57.04 12.73 58.46 C 9.24 56.54 10.14 51.51 13.36 49.80 Z" />
<path fill="#d0911b" opacity="1.00" d=" M 19.47 53.91 C 19.67 54.42 20.08 55.44 20.28 55.95 C 19.28 58.89 15.30 60.23 12.73 58.46 C 15.04 57.04 17.30 55.53 19.47 53.91 Z" />
<path fill="#7f1c2d" opacity="1.00" d=" M 67.24 62.96 C 66.94 59.63 66.52 56.04 67.75 52.84 C 68.02 56.09 70.31 60.40 67.24 62.96 Z" />
</svg>
