<?xml version="1.0" encoding="UTF-8" ?>
<!DOCTYPE svg PUBLIC "-//W3C//DTD SVG 1.1//EN" "http://www.w3.org/Graphics/SVG/1.1/DTD/svg11.dtd">
<svg width="130pt" height="120pt" viewBox="0 0 130 120" version="1.1" xmlns="http://www.w3.org/2000/svg">
<path fill="#000000" opacity="1.00" d=" M 81.37 8.31 C 84.57 4.77 87.57 -1.19 93.31 0.64 C 92.49 3.82 91.53 6.97 90.50 10.09 C 96.43 17.97 102.42 25.81 108.64 33.47 C 113.57 39.86 117.76 46.81 123.21 52.80 C 125.80 56.33 129.64 59.70 129.64 64.40 C 124.95 62.82 121.88 58.78 118.44 55.48 C 114.43 51.55 110.77 47.29 107.16 43.00 C 99.75 34.80 92.14 26.64 86.31 17.20 C 84.62 21.33 83.17 25.56 81.19 29.57 C 84.17 29.13 87.16 28.77 90.16 28.57 C 89.67 34.20 88.00 39.76 84.51 44.28 C 87.64 44.41 90.74 44.94 93.74 45.84 C 93.13 47.57 92.68 49.39 91.71 50.97 C 85.45 60.03 75.35 65.49 64.97 68.46 C 67.33 75.13 71.22 81.05 74.31 87.36 C 65.22 85.94 62.06 76.18 59.21 68.76 C 53.43 69.14 47.95 71.06 42.28 72.03 C 42.07 74.74 41.79 77.47 41.10 80.11 C 39.87 78.79 39.17 77.13 38.67 75.42 C 36.88 77.49 34.97 79.44 33.00 81.34 C 33.56 88.39 27.81 93.03 24.26 98.32 C 21.92 101.50 21.35 105.57 19.02 108.75 C 17.54 102.68 20.07 96.44 23.58 91.54 C 25.78 88.69 26.41 85.07 27.90 81.87 C 28.92 89.02 22.51 93.68 21.15 100.18 C 24.79 94.41 30.02 89.41 31.73 82.61 C 30.69 81.94 29.67 81.25 28.71 80.49 C 30.48 79.44 31.42 77.69 32.10 75.82 C 28.11 77.11 24.42 80.21 20.02 79.53 C 16.79 79.39 15.82 75.40 12.68 74.98 C 12.28 81.39 11.18 89.49 4.69 92.61 C 5.72 86.17 7.10 79.70 6.57 73.14 C 5.89 72.49 4.51 71.20 3.82 70.55 C 6.94 68.94 10.52 69.96 13.84 70.08 C 13.54 65.05 10.29 60.73 10.67 55.54 C 9.31 54.53 7.85 53.56 6.91 52.12 C 2.41 45.53 0.78 37.48 0.00 29.67 L 0.00 25.94 C 0.45 25.63 1.36 25.00 1.81 24.69 C 6.58 32.97 10.29 41.80 14.21 50.49 C 16.56 48.62 19.05 46.95 21.74 45.61 C 23.17 37.92 25.76 30.42 29.68 23.64 C 30.66 21.85 32.21 20.51 33.92 19.43 L 33.46 20.67 C 29.00 27.11 26.32 34.60 24.33 42.12 C 23.75 44.35 23.76 46.68 23.81 48.97 C 26.34 45.06 27.77 40.60 29.27 36.23 C 31.23 30.70 33.83 25.15 34.21 19.24 C 34.68 18.96 35.62 18.41 36.09 18.13 C 35.01 27.24 31.15 35.73 27.96 44.25 C 30.64 44.68 33.11 45.78 35.21 47.48 C 37.76 45.20 42.45 44.45 42.55 40.35 C 44.15 31.57 46.64 22.85 51.07 15.05 C 52.96 11.82 54.83 8.16 58.49 6.65 C 60.03 11.96 59.54 17.54 60.16 22.98 C 60.59 27.41 60.07 31.84 59.73 36.26 C 61.44 35.54 63.30 34.84 64.17 33.06 C 69.60 24.61 74.62 15.82 81.37 8.31 M 86.67 4.55 C 82.42 9.76 77.87 14.79 74.36 20.55 L 74.21 20.59 C 66.73 32.43 58.62 43.99 53.06 56.90 C 52.08 59.07 50.85 61.18 50.68 63.61 C 50.49 63.71 50.10 63.92 49.91 64.03 C 52.32 63.21 55.42 63.29 57.13 61.13 C 64.94 50.58 72.39 39.74 79.59 28.77 C 82.10 23.31 83.76 17.52 86.01 11.98 C 88.59 9.18 89.73 5.63 90.76 2.04 C 88.90 1.70 87.79 3.38 86.67 4.55 M 43.85 42.51 C 46.34 41.32 48.81 40.09 51.39 39.10 C 51.45 38.53 51.57 37.38 51.63 36.81 C 53.06 35.63 52.35 33.52 52.74 31.93 C 54.49 24.79 55.99 17.43 56.62 10.02 C 49.67 19.56 45.96 31.00 43.85 42.51 M 87.10 14.54 C 89.83 18.71 92.42 23.01 95.97 26.55 C 99.09 30.80 102.63 34.73 106.21 38.60 C 110.57 43.35 114.40 48.55 119.00 53.08 C 121.46 55.44 123.30 58.63 126.51 60.07 C 122.84 54.09 117.55 49.34 113.58 43.58 C 110.44 39.08 107.01 34.81 103.40 30.68 C 103.24 30.58 102.92 30.39 102.76 30.29 C 98.66 23.86 93.68 17.98 89.04 11.92 C 87.86 12.25 87.73 13.67 87.10 14.54 M 53.53 38.46 C 54.79 37.99 56.05 37.53 57.32 37.08 C 58.41 31.31 58.51 25.38 57.56 19.59 C 56.10 25.85 55.15 32.22 53.53 38.46 M 8.52 50.98 C 9.39 52.02 10.33 52.99 11.22 54.01 C 14.14 50.69 10.37 46.90 9.15 43.65 C 7.19 38.63 4.51 33.92 2.36 28.98 C 2.34 36.65 4.61 44.37 8.52 50.98 M 79.54 32.49 C 74.08 40.32 69.19 48.56 63.22 56.04 C 70.16 53.33 76.37 48.86 81.99 44.01 C 85.88 40.79 87.38 35.81 87.89 30.97 C 85.13 31.32 81.93 30.92 79.54 32.49 M 36.34 48.92 C 37.44 51.00 38.42 53.14 39.30 55.33 C 39.66 57.37 39.97 59.43 40.21 61.49 C 43.25 61.54 46.27 61.12 49.22 60.42 C 50.98 56.06 53.86 52.21 55.10 47.64 C 57.55 44.81 58.96 41.12 61.00 37.96 C 52.52 40.94 43.99 44.11 36.34 48.92 M 26.51 46.45 C 29.28 50.47 32.07 54.51 34.23 58.91 C 33.99 61.52 32.88 63.89 31.70 66.19 C 29.47 69.73 26.48 72.75 23.13 75.25 C 21.46 75.98 19.58 75.57 17.81 75.65 C 18.72 77.07 20.30 77.80 22.00 77.46 C 27.77 75.98 32.83 72.17 36.07 67.17 C 38.22 64.23 38.51 60.38 37.56 56.94 C 36.04 51.93 32.87 45.32 26.51 46.45 M 70.81 54.14 C 67.13 56.79 62.38 57.79 59.17 61.04 C 60.16 61.19 62.15 61.49 63.14 61.64 C 63.57 63.10 64.01 64.56 64.46 66.01 C 74.82 63.28 84.61 57.58 90.76 48.64 C 91.02 48.40 91.53 47.93 91.79 47.70 C 88.72 46.82 85.34 45.92 82.18 46.53 C 78.52 49.25 74.79 51.89 70.81 54.14 M 25.78 49.33 C 24.84 50.68 24.22 52.39 22.56 53.02 C 22.25 52.30 21.64 50.86 21.33 50.14 C 19.91 50.55 18.50 50.95 17.08 51.33 C 15.53 52.28 14.27 53.60 13.29 55.13 C 13.11 58.84 13.89 62.54 15.62 65.83 C 16.31 65.77 17.67 65.65 18.36 65.59 C 21.39 65.41 23.73 63.35 26.34 62.07 C 25.82 64.48 23.21 65.15 21.34 66.23 L 21.46 66.47 C 19.37 66.87 17.26 67.14 15.15 67.31 C 15.72 68.54 16.30 69.77 16.86 71.01 C 17.89 72.21 18.91 73.42 19.93 74.62 C 24.33 72.54 28.06 69.13 30.66 65.04 C 26.18 63.23 26.60 57.78 26.76 53.80 C 27.37 53.38 28.58 52.53 29.19 52.10 C 28.03 51.29 27.30 49.49 25.78 49.33 M 27.79 53.83 C 27.10 56.67 27.80 59.64 29.29 62.11 C 28.91 63.27 31.63 62.85 32.11 62.08 C 33.55 59.68 31.57 57.11 30.58 54.93 C 29.88 54.66 28.49 54.10 27.79 53.83 M 39.73 63.24 C 41.51 63.66 43.24 64.32 44.37 65.84 C 45.62 64.65 47.09 63.77 48.73 63.21 C 48.69 63.03 48.63 62.67 48.60 62.49 C 45.68 63.06 42.71 63.43 39.73 63.24 M 46.79 65.98 C 44.25 66.30 47.22 70.99 47.76 68.03 C 51.10 66.49 55.12 67.58 58.69 66.55 C 58.73 65.94 58.81 64.70 58.85 64.08 C 54.81 64.58 50.80 67.08 46.79 65.98 M 61.32 63.83 C 61.15 65.52 60.84 67.28 61.45 68.93 C 63.42 74.57 65.91 80.42 70.77 84.19 C 66.20 78.12 63.73 70.93 61.32 63.83 M 38.52 67.95 L 38.64 68.37 C 36.70 70.78 35.07 73.42 33.90 76.28 C 33.10 77.47 32.55 78.80 31.97 80.10 C 33.97 78.67 35.76 76.94 36.92 74.75 L 36.94 74.16 C 38.49 74.12 39.01 73.29 38.50 71.66 L 39.44 71.09 C 40.69 69.97 43.01 69.17 41.94 67.07 C 40.72 65.92 39.51 67.30 38.52 67.95 M 7.74 71.29 C 9.98 72.78 13.18 74.23 15.79 73.16 C 13.67 71.03 10.45 71.60 7.74 71.29 M 8.68 74.30 C 9.37 79.93 7.80 85.43 5.92 90.67 C 10.55 86.66 10.95 80.13 10.70 74.45 C 10.20 74.41 9.19 74.34 8.68 74.30 Z" />
<path fill="#1d9e9d" opacity="1.00" d=" M 86.67 4.55 C 87.79 3.38 88.90 1.70 90.76 2.04 C 89.73 5.63 88.59 9.18 86.01 11.98 C 83.76 17.52 82.10 23.31 79.59 28.77 C 72.39 39.74 64.94 50.58 57.13 61.13 C 55.42 63.29 52.32 63.21 49.91 64.03 C 50.10 63.92 50.49 63.71 50.68 63.61 C 52.05 63.08 53.12 62.08 53.80 60.79 C 61.96 46.81 71.53 33.74 80.24 20.11 C 83.42 15.08 85.68 9.55 88.08 4.13 L 86.67 4.55 Z" />
<path fill="#d2ecaa" opacity="1.00" d=" M 86.67 4.55 L 88.08 4.13 C 85.68 9.55 83.42 15.08 80.24 20.11 C 80.13 19.65 79.91 18.72 79.80 18.26 C 78.07 19.19 76.29 20.09 74.36 20.55 C 77.87 14.79 82.42 9.76 86.67 4.55 Z" />
<path fill="#d0e7a0" opacity="1.00" d=" M 43.85 42.51 C 45.96 31.00 49.67 19.56 56.62 10.02 C 55.99 17.43 54.49 24.79 52.74 31.93 C 52.35 33.52 53.06 35.63 51.63 36.81 C 51.57 37.38 51.45 38.53 51.39 39.10 C 48.81 40.09 46.34 41.32 43.85 42.51 Z" />
<path fill="#46af9f" opacity="1.00" d=" M 87.10 14.54 C 87.73 13.67 87.86 12.25 89.04 11.92 C 93.68 17.98 98.66 23.86 102.76 30.29 C 100.18 28.87 97.97 26.94 95.71 25.08 L 95.97 26.55 C 92.42 23.01 89.83 18.71 87.10 14.54 Z" />
<path fill="#d8e99a" opacity="1.00" d=" M 74.36 20.55 C 76.29 20.09 78.07 19.19 79.80 18.26 C 79.91 18.72 80.13 19.65 80.24 20.11 C 71.53 33.74 61.96 46.81 53.80 60.79 C 53.12 62.08 52.05 63.08 50.68 63.61 C 50.85 61.18 52.08 59.07 53.06 56.90 C 58.62 43.99 66.73 32.43 74.21 20.59 L 74.36 20.55 Z" />
<path fill="#d2ecaa" opacity="1.00" d=" M 33.92 19.43 C 33.99 19.38 34.14 19.29 34.21 19.24 C 33.83 25.15 31.23 30.70 29.27 36.23 C 27.52 38.11 25.76 39.98 24.33 42.12 C 26.32 34.60 29.00 27.11 33.46 20.67 L 33.92 19.43 Z" />
<path fill="#2faba4" opacity="1.00" d=" M 53.53 38.46 C 55.15 32.22 56.10 25.85 57.56 19.59 C 58.51 25.38 58.41 31.31 57.32 37.08 C 56.05 37.53 54.79 37.99 53.53 38.46 Z" />
<path fill="#a6e2ab" opacity="1.00" d=" M 95.71 25.08 C 97.97 26.94 100.18 28.87 102.76 30.29 C 102.92 30.39 103.24 30.58 103.40 30.68 C 107.01 34.81 110.44 39.08 113.58 43.58 C 117.55 49.34 122.84 54.09 126.51 60.07 C 123.30 58.63 121.46 55.44 119.00 53.08 C 114.40 48.55 110.57 43.35 106.21 38.60 C 102.63 34.73 99.09 30.80 95.97 26.55 L 95.71 25.08 Z" />
<path fill="#c0e2a3" opacity="1.00" d=" M 8.52 50.98 C 4.61 44.37 2.34 36.65 2.36 28.98 C 4.51 33.92 7.19 38.63 9.15 43.65 C 9.43 46.11 9.45 48.64 8.52 50.98 Z" />
<path fill="#19924c" opacity="1.00" d=" M 79.54 32.49 C 81.93 30.92 85.13 31.32 87.89 30.97 C 87.38 35.81 85.88 40.79 81.99 44.01 C 76.37 48.86 70.16 53.33 63.22 56.04 C 69.19 48.56 74.08 40.32 79.54 32.49 Z" />
<path fill="#2faba4" opacity="1.00" d=" M 24.33 42.12 C 25.76 39.98 27.52 38.11 29.27 36.23 C 27.77 40.60 26.34 45.06 23.81 48.97 C 23.76 46.68 23.75 44.35 24.33 42.12 Z" />
<path fill="#8fcb98" opacity="1.00" d=" M 36.34 48.92 C 43.99 44.11 52.52 40.94 61.00 37.96 C 58.96 41.12 57.55 44.81 55.10 47.64 C 49.89 50.31 44.99 53.70 39.30 55.33 C 38.42 53.14 37.44 51.00 36.34 48.92 Z" />
<path fill="#369c92" opacity="1.00" d=" M 9.15 43.65 C 10.37 46.90 14.14 50.69 11.22 54.01 C 10.33 52.99 9.39 52.02 8.52 50.98 C 9.45 48.64 9.43 46.11 9.15 43.65 Z" />
<path fill="#bbff66" opacity="1.00" d=" M 26.51 46.45 C 32.87 45.32 36.04 51.93 37.56 56.94 C 37.30 58.26 37.02 59.58 36.72 60.89 C 35.88 60.24 35.04 59.60 34.23 58.91 C 32.07 54.51 29.28 50.47 26.51 46.45 Z" />
<path fill="#d33f5f" opacity="1.00" d=" M 70.81 54.14 C 74.79 51.89 78.52 49.25 82.18 46.53 C 85.34 45.92 88.72 46.82 91.79 47.70 C 91.53 47.93 91.02 48.40 90.76 48.64 C 84.67 50.41 79.27 53.84 73.32 55.99 C 72.48 55.38 71.65 54.76 70.81 54.14 Z" />
<path fill="#0e8d45" opacity="1.00" d=" M 39.30 55.33 C 44.99 53.70 49.89 50.31 55.10 47.64 C 53.86 52.21 50.98 56.06 49.22 60.42 C 46.27 61.12 43.25 61.54 40.21 61.49 C 39.97 59.43 39.66 57.37 39.30 55.33 Z" />
<path fill="#84c691" opacity="1.00" d=" M 25.78 49.33 C 27.30 49.49 28.03 51.29 29.19 52.10 C 28.58 52.53 27.37 53.38 26.76 53.80 C 26.33 55.88 26.76 58.50 24.89 59.95 C 22.75 61.87 20.41 63.56 18.36 65.59 C 17.67 65.65 16.31 65.77 15.62 65.83 C 13.89 62.54 13.11 58.84 13.29 55.13 C 14.74 55.70 16.29 56.88 17.83 55.78 C 19.00 54.24 17.75 52.74 17.08 51.33 C 18.50 50.95 19.91 50.55 21.33 50.14 C 21.64 50.86 22.25 52.30 22.56 53.02 C 24.22 52.39 24.84 50.68 25.78 49.33 M 18.52 58.07 C 17.55 59.25 19.64 60.54 20.46 59.41 C 21.48 58.22 19.35 56.91 18.52 58.07 Z" />
<path fill="#f59874" opacity="1.00" d=" M 73.32 55.99 C 79.27 53.84 84.67 50.41 90.76 48.64 C 84.61 57.58 74.82 63.28 64.46 66.01 C 64.01 64.56 63.57 63.10 63.14 61.64 C 66.75 60.15 69.63 57.33 73.32 55.99 Z" />
<path fill="#fff3ae" opacity="1.00" d=" M 13.29 55.13 C 14.27 53.60 15.53 52.28 17.08 51.33 C 17.75 52.74 19.00 54.24 17.83 55.78 C 16.29 56.88 14.74 55.70 13.29 55.13 Z" />
<path fill="#0f8e46" opacity="1.00" d=" M 24.89 59.95 C 26.76 58.50 26.33 55.88 26.76 53.80 C 26.60 57.78 26.18 63.23 30.66 65.04 C 28.06 69.13 24.33 72.54 19.93 74.62 C 18.91 73.42 17.89 72.21 16.86 71.01 C 18.89 70.54 20.92 70.07 22.95 69.59 C 22.45 68.55 21.96 67.51 21.46 66.47 L 21.34 66.23 C 23.21 65.15 25.82 64.48 26.34 62.07 C 23.73 63.35 21.39 65.41 18.36 65.59 C 20.41 63.56 22.75 61.87 24.89 59.95 Z" />
<path fill="#e8295e" opacity="1.00" d=" M 27.79 53.83 C 28.49 54.10 29.88 54.66 30.58 54.93 C 30.55 57.39 30.28 59.84 29.29 62.11 C 27.80 59.64 27.10 56.67 27.79 53.83 Z" />
<path fill="#ca335a" opacity="1.00" d=" M 59.17 61.04 C 62.38 57.79 67.13 56.79 70.81 54.14 C 71.65 54.76 72.48 55.38 73.32 55.99 C 69.63 57.33 66.75 60.15 63.14 61.64 C 62.15 61.49 60.16 61.19 59.17 61.04 Z" />
<path fill="#8a1a5a" opacity="1.00" d=" M 30.58 54.93 C 31.57 57.11 33.55 59.68 32.11 62.08 C 31.63 62.85 28.91 63.27 29.29 62.11 C 30.28 59.84 30.55 57.39 30.58 54.93 Z" />
<path fill="#8eee53" opacity="1.00" d=" M 37.56 56.94 C 38.51 60.38 38.22 64.23 36.07 67.17 C 34.99 67.76 33.91 68.33 32.82 68.89 C 32.54 68.22 31.98 66.87 31.70 66.19 C 32.88 63.89 33.99 61.52 34.23 58.91 C 35.04 59.60 35.88 60.24 36.72 60.89 C 37.02 59.58 37.30 58.26 37.56 56.94 Z" />
<path fill="#d1e3a3" opacity="1.00" d=" M 18.52 58.07 C 19.35 56.91 21.48 58.22 20.46 59.41 C 19.64 60.54 17.55 59.25 18.52 58.07 Z" />
<path fill="#d33f5f" opacity="1.00" d=" M 39.73 63.24 C 42.71 63.43 45.68 63.06 48.60 62.49 C 48.63 62.67 48.69 63.03 48.73 63.21 C 47.09 63.77 45.62 64.65 44.37 65.84 C 43.24 64.32 41.51 63.66 39.73 63.24 Z" />
<path fill="#a6e2ab" opacity="1.00" d=" M 46.79 65.98 C 50.80 67.08 54.81 64.58 58.85 64.08 C 58.81 64.70 58.73 65.94 58.69 66.55 C 55.12 67.58 51.10 66.49 47.76 68.03 C 47.52 67.52 47.03 66.49 46.79 65.98 Z" />
<path fill="#a6e2ab" opacity="1.00" d=" M 61.32 63.83 C 63.73 70.93 66.20 78.12 70.77 84.19 C 65.91 80.42 63.42 74.57 61.45 68.93 C 60.84 67.28 61.15 65.52 61.32 63.83 Z" />
<path fill="#1f821e" opacity="1.00" d=" M 23.13 75.25 C 26.48 72.75 29.47 69.73 31.70 66.19 C 31.98 66.87 32.54 68.22 32.82 68.89 C 33.91 68.33 34.99 67.76 36.07 67.17 C 32.83 72.17 27.77 75.98 22.00 77.46 C 20.30 77.80 18.72 77.07 17.81 75.65 C 19.58 75.57 21.46 75.98 23.13 75.25 Z" />
<path fill="#0a4a4b" opacity="1.00" d=" M 47.76 68.03 C 47.22 70.99 44.25 66.30 46.79 65.98 C 47.03 66.49 47.52 67.52 47.76 68.03 Z" />
<path fill="#6bbd82" opacity="1.00" d=" M 15.15 67.31 C 17.26 67.14 19.37 66.87 21.46 66.47 C 21.96 67.51 22.45 68.55 22.95 69.59 C 20.92 70.07 18.89 70.54 16.86 71.01 C 16.30 69.77 15.72 68.54 15.15 67.31 Z" />
<path fill="#2a746b" opacity="1.00" d=" M 38.52 67.95 C 39.51 67.30 40.72 65.92 41.94 67.07 C 43.01 69.17 40.69 69.97 39.44 71.09 C 39.24 70.41 38.84 69.05 38.64 68.37 L 38.52 67.95 Z" />
<path fill="#a6e2ab" opacity="1.00" d=" M 38.64 68.37 C 38.84 69.05 39.24 70.41 39.44 71.09 L 38.50 71.66 C 37.42 72.17 36.90 73.00 36.94 74.16 L 36.92 74.75 C 35.90 75.24 34.89 75.75 33.90 76.28 C 35.07 73.42 36.70 70.78 38.64 68.37 Z" />
<path fill="#58bba9" opacity="1.00" d=" M 7.74 71.29 C 10.45 71.60 13.67 71.03 15.79 73.16 C 13.18 74.23 9.98 72.78 7.74 71.29 Z" />
<path fill="#1d9e9d" opacity="1.00" d=" M 36.94 74.16 C 36.90 73.00 37.42 72.17 38.50 71.66 C 39.01 73.29 38.49 74.12 36.94 74.16 Z" />
<path fill="#c0e2a3" opacity="1.00" d=" M 8.68 74.30 C 9.19 74.34 10.20 74.41 10.70 74.45 C 10.95 80.13 10.55 86.66 5.92 90.67 C 7.80 85.43 9.37 79.93 8.68 74.30 Z" />
<path fill="#46af9f" opacity="1.00" d=" M 33.90 76.28 C 34.89 75.75 35.90 75.24 36.92 74.75 C 35.76 76.94 33.97 78.67 31.97 80.10 C 32.55 78.80 33.10 77.47 33.90 76.28 Z" />
<path fill="#58bba9" opacity="1.00" d=" M 27.90 81.87 C 28.11 81.53 28.51 80.84 28.71 80.49 C 29.67 81.25 30.69 81.94 31.73 82.61 C 30.02 89.41 24.79 94.41 21.15 100.18 C 22.51 93.68 28.92 89.02 27.90 81.87 Z" />
<path fill="#000000" opacity="1.00" d=" M 35.86 110.29 C 45.87 108.71 56.04 109.33 66.12 109.53 C 69.72 110.00 74.36 109.42 76.57 112.96 C 74.58 116.21 70.52 116.62 67.16 117.48 C 56.96 119.41 46.48 120.44 36.11 119.45 C 33.29 119.13 28.78 117.92 29.22 114.25 C 30.23 111.55 33.32 110.75 35.86 110.29 Z" />
</svg>
