<?xml version="1.0" encoding="UTF-8" ?>
<!DOCTYPE svg PUBLIC "-//W3C//DTD SVG 1.1//EN" "http://www.w3.org/Graphics/SVG/1.1/DTD/svg11.dtd">
<svg width="132pt" height="107pt" viewBox="0 0 132 107" version="1.1" xmlns="http://www.w3.org/2000/svg">
<path fill="#170e10" opacity="0.95" d=" M 76.40 0.00 L 78.00 0.00 C 79.71 3.82 81.34 7.71 82.27 11.80 C 88.12 7.00 96.43 5.39 103.26 8.79 C 107.87 11.50 105.76 19.73 112.09 19.76 C 109.82 19.57 107.20 23.64 110.92 22.43 C 113.08 25.49 109.57 27.98 107.07 29.17 C 106.99 27.34 106.86 25.49 106.36 23.72 C 106.08 22.41 105.77 21.11 105.43 19.81 C 104.28 15.95 103.97 8.61 98.21 10.02 C 97.70 10.02 96.68 10.02 96.17 10.02 C 88.86 8.91 84.03 15.88 79.12 20.13 C 79.18 19.35 79.31 17.80 79.38 17.03 C 80.10 14.67 81.21 11.95 79.39 9.93 C 78.00 7.40 77.30 2.32 73.31 4.31 C 66.43 8.20 59.73 13.21 55.47 19.97 C 54.25 22.18 53.31 24.53 52.65 26.96 C 52.30 27.91 51.96 28.86 51.62 29.81 C 51.03 30.54 50.44 31.29 49.86 32.03 C 48.98 30.90 48.07 29.79 46.97 28.85 C 47.44 30.95 48.37 32.89 49.24 34.84 C 48.69 34.57 47.60 34.03 47.05 33.76 C 45.75 31.12 45.14 27.93 43.01 25.79 C 42.98 28.99 44.34 32.01 46.38 34.42 C 43.97 34.44 42.55 33.35 42.59 30.87 C 40.64 33.00 41.49 35.67 42.30 38.08 L 41.49 38.13 C 40.94 35.43 38.07 34.97 36.05 33.80 C 35.45 31.57 36.82 29.76 37.92 27.99 C 34.88 26.46 32.04 20.58 36.93 19.91 C 36.25 21.67 34.54 26.05 38.01 25.02 C 41.28 25.62 41.48 21.90 40.09 19.88 C 43.99 21.10 46.33 25.07 49.91 27.03 C 51.73 23.07 52.78 18.78 55.01 15.01 C 59.97 7.40 68.13 3.10 76.40 0.00 Z" />
<path fill="#f7eff7" opacity="1.00" d=" M 73.31 4.31 C 77.30 2.32 78.00 7.40 79.39 9.93 C 79.16 10.73 78.72 12.32 78.50 13.12 C 77.06 11.48 76.85 5.66 74.11 8.01 C 72.12 12.13 69.48 16.73 64.17 16.97 C 63.44 16.14 62.66 16.07 61.83 16.76 C 59.20 16.95 57.68 20.93 55.47 19.97 C 59.73 13.21 66.43 8.20 73.31 4.31 Z" />
<path fill="#1a0a0f" opacity="0.89" d=" M 123.93 5.77 C 127.14 3.83 130.49 6.37 132.00 9.23 L 132.00 12.88 C 129.55 15.22 126.25 16.00 123.12 16.94 C 123.20 15.63 123.35 14.31 123.34 12.99 C 128.90 14.45 130.62 12.79 128.51 7.99 C 127.27 6.67 125.17 7.11 123.57 6.64 L 123.93 5.77 Z" />
<path fill="#060101" opacity="0.87" d=" M 118.02 14.90 C 120.79 12.28 119.44 6.58 123.93 5.77 L 123.57 6.64 C 122.77 8.32 122.14 10.07 122.08 11.94 C 121.19 13.11 120.17 14.17 119.10 15.17 L 118.02 14.90 Z" />
<path fill="#cb47d7" opacity="1.00" d=" M 74.11 8.01 C 76.85 5.66 77.06 11.48 78.50 13.12 C 78.76 14.43 79.06 15.73 79.38 17.03 C 79.31 17.80 79.18 19.35 79.12 20.13 C 79.07 20.92 78.97 22.50 78.92 23.29 C 77.72 18.68 75.59 24.53 73.95 26.01 C 71.23 25.16 68.78 22.58 65.78 23.64 C 65.53 22.44 65.21 21.26 64.93 20.08 C 66.60 18.73 68.61 18.07 70.67 17.54 C 74.12 15.81 73.99 11.27 74.11 8.01 Z" />
<path fill="#da385e" opacity="1.00" d=" M 122.08 11.94 C 122.14 10.07 122.77 8.32 123.57 6.64 C 123.20 9.86 126.77 9.32 128.51 7.99 C 130.62 12.79 128.90 14.45 123.34 12.99 C 123.02 12.73 122.40 12.20 122.08 11.94 Z" />
<path fill="#f6c6a4" opacity="1.00" d=" M 123.57 6.64 C 125.17 7.11 127.27 6.67 128.51 7.99 C 126.77 9.32 123.20 9.86 123.57 6.64 Z" />
<path fill="#ef76e6" opacity="1.00" d=" M 64.17 16.97 C 69.48 16.73 72.12 12.13 74.11 8.01 C 73.99 11.27 74.12 15.81 70.67 17.54 C 68.61 18.07 66.60 18.73 64.93 20.08 C 64.65 19.05 64.39 18.01 64.17 16.97 Z" />
<path fill="#4c284c" opacity="1.00" d=" M 79.39 9.93 C 81.21 11.95 80.10 14.67 79.38 17.03 C 79.06 15.73 78.76 14.43 78.50 13.12 C 78.72 12.32 79.16 10.73 79.39 9.93 Z" />
<path fill="#f9ebf8" opacity="1.00" d=" M 79.12 20.13 C 84.03 15.88 88.86 8.91 96.17 10.02 C 91.15 11.80 92.21 20.58 84.98 18.05 C 82.98 17.73 82.01 19.64 80.85 20.88 C 80.19 21.67 79.55 22.48 78.92 23.29 C 78.97 22.50 79.07 20.92 79.12 20.13 Z" />
<path fill="#ee6ee1" opacity="1.00" d=" M 96.17 10.02 C 96.68 10.02 97.70 10.02 98.21 10.02 C 95.76 13.77 92.94 17.52 89.20 20.09 C 86.39 20.01 83.62 20.50 80.85 20.88 C 82.01 19.64 82.98 17.73 84.98 18.05 C 92.21 20.58 91.15 11.80 96.17 10.02 Z" />
<path fill="#af29ba" opacity="1.00" d=" M 98.21 10.02 C 103.97 8.61 104.28 15.95 105.43 19.81 C 105.05 24.72 102.39 18.35 100.71 17.14 C 96.25 14.94 93.80 19.01 90.75 21.01 C 90.27 20.99 89.32 20.93 88.84 20.90 L 89.20 20.09 C 92.94 17.52 95.76 13.77 98.21 10.02 Z" />
<path fill="#964a57" opacity="1.00" d=" M 122.08 11.94 C 122.40 12.20 123.02 12.73 123.34 12.99 C 123.35 14.31 123.20 15.63 123.12 16.94 C 123.12 17.38 123.12 18.26 123.12 18.70 C 124.99 20.42 126.24 24.27 122.29 22.89 C 122.83 18.43 118.09 20.18 116.22 22.22 C 113.44 24.41 112.36 28.42 114.83 31.23 C 113.26 31.63 111.68 31.97 110.10 32.31 C 110.07 31.49 109.99 29.84 109.96 29.02 C 108.66 29.68 106.36 32.33 107.07 29.17 C 109.57 27.98 113.08 25.49 110.92 22.43 C 107.20 23.64 109.82 19.57 112.09 19.76 C 112.48 20.86 112.89 21.96 113.30 23.06 C 115.51 20.65 117.35 17.92 119.10 15.17 C 120.17 14.17 121.19 13.11 122.08 11.94 Z" />
<path fill="#140809" opacity="0.96" d=" M 112.09 19.76 C 115.03 20.02 115.95 16.39 118.02 14.90 L 119.10 15.17 C 117.35 17.92 115.51 20.65 113.30 23.06 C 112.89 21.96 112.48 20.86 112.09 19.76 Z" />
<path fill="#4d3650" opacity="1.00" d=" M 61.83 16.76 C 62.66 16.07 63.44 16.14 64.17 16.97 C 64.39 18.01 64.65 19.05 64.93 20.08 C 65.21 21.26 65.53 22.44 65.78 23.64 L 65.03 24.16 C 64.70 24.56 64.04 25.37 63.71 25.77 C 63.29 26.08 62.46 26.69 62.05 27.00 L 62.02 25.96 C 62.01 24.59 61.98 23.22 61.94 21.85 C 61.91 21.07 61.87 19.49 61.85 18.70 C 61.84 18.22 61.83 17.25 61.83 16.76 Z" />
<path fill="#f0b0ed" opacity="1.00" d=" M 55.47 19.97 C 57.68 20.93 59.20 16.95 61.83 16.76 C 61.83 17.25 61.84 18.22 61.85 18.70 C 59.21 20.35 56.11 21.85 54.73 24.80 C 54.05 25.53 53.36 26.26 52.65 26.96 C 53.31 24.53 54.25 22.18 55.47 19.97 Z" />
<path fill="#9720bd" opacity="1.00" d=" M 90.75 21.01 C 93.80 19.01 96.25 14.94 100.71 17.14 C 102.39 18.35 105.05 24.72 105.43 19.81 C 105.77 21.11 106.08 22.41 106.36 23.72 C 106.17 25.54 105.97 27.36 105.83 29.18 C 104.22 27.08 102.50 25.03 100.11 23.77 C 100.08 23.31 100.02 22.39 99.99 21.93 C 100.74 18.39 97.32 21.19 95.65 21.57 C 94.03 22.50 92.32 21.51 90.75 21.01 Z" />
<path fill="#e462e9" opacity="1.00" d=" M 54.73 24.80 C 56.11 21.85 59.21 20.35 61.85 18.70 C 61.87 19.49 61.91 21.07 61.94 21.85 C 59.45 22.62 57.02 23.56 54.73 24.80 Z" />
<path fill="#0b080b" opacity="0.97" d=" M 123.12 18.70 C 124.90 18.75 126.91 19.74 126.57 21.77 C 126.70 25.19 121.57 24.90 120.52 22.19 C 118.70 24.29 113.11 26.68 116.17 29.80 C 118.45 32.17 115.46 34.85 113.01 35.10 C 111.33 35.27 108.03 34.04 109.01 36.95 C 110.72 37.02 112.43 36.95 114.14 36.89 C 113.99 42.24 113.96 47.59 114.04 52.94 L 115.03 52.97 C 115.81 52.96 117.38 52.95 118.17 52.94 C 118.06 54.84 116.24 55.30 114.81 55.99 C 112.70 56.83 110.79 58.09 108.78 59.14 L 107.94 58.95 C 108.38 57.41 108.85 55.88 109.28 54.33 C 110.04 51.93 110.71 49.50 111.39 47.07 C 112.20 44.73 113.10 42.06 111.54 39.93 C 110.92 36.67 107.21 38.31 105.25 39.25 C 104.97 39.02 104.39 38.55 104.10 38.32 C 104.39 37.79 104.97 36.72 105.26 36.19 C 105.67 35.21 106.00 34.19 106.23 33.15 C 107.52 32.88 108.81 32.60 110.10 32.31 C 111.69 33.74 115.78 34.66 114.83 31.23 C 112.36 28.42 113.44 24.41 116.22 22.22 C 118.09 20.18 122.83 18.43 122.29 22.89 C 126.24 24.27 124.99 20.42 123.12 18.70 Z" />
<path fill="#e37a6c" opacity="1.00" d=" M 36.93 19.91 C 37.72 19.91 39.30 19.89 40.09 19.88 C 41.48 21.90 41.28 25.62 38.01 25.02 C 34.54 26.05 36.25 21.67 36.93 19.91 Z" />
<path fill="#bd44cc" opacity="1.00" d=" M 80.85 20.88 C 83.62 20.50 86.39 20.01 89.20 20.09 L 88.84 20.90 C 85.23 21.58 82.03 23.17 79.07 25.28 C 79.03 24.78 78.96 23.79 78.92 23.29 C 79.55 22.48 80.19 21.67 80.85 20.88 Z" />
<path fill="#8427b1" opacity="1.00" d=" M 95.65 21.57 C 97.32 21.19 100.74 18.39 99.99 21.93 C 93.16 24.47 85.26 22.77 79.03 27.06 L 79.02 26.21 L 79.07 25.28 C 82.03 23.17 85.23 21.58 88.84 20.90 C 89.32 20.93 90.27 20.99 90.75 21.01 C 92.32 21.51 94.03 22.50 95.65 21.57 Z" />
<path fill="#271e2c" opacity="1.00" d=" M 73.95 26.01 C 75.59 24.53 77.72 18.68 78.92 23.29 C 78.96 23.79 79.03 24.78 79.07 25.28 L 79.02 26.21 L 78.13 25.83 C 78.13 23.89 77.70 23.58 76.85 24.91 C 73.86 28.22 72.79 32.66 71.82 36.89 L 70.92 37.14 L 70.64 36.26 C 70.96 34.19 71.42 32.14 72.01 30.12 C 72.24 29.57 72.71 28.48 72.94 27.93 C 73.19 27.45 73.69 26.49 73.95 26.01 Z" />
<path fill="#b741d6" opacity="1.00" d=" M 54.73 24.80 C 57.02 23.56 59.45 22.62 61.94 21.85 C 61.98 23.22 62.01 24.59 62.02 25.96 C 59.14 26.66 53.15 31.24 52.65 26.96 C 53.36 26.26 54.05 25.53 54.73 24.80 Z" />
<path fill="#6822a2" opacity="1.00" d=" M 79.03 27.06 C 85.26 22.77 93.16 24.47 99.99 21.93 C 100.02 22.39 100.08 23.31 100.11 23.77 C 94.98 23.22 91.64 27.41 88.90 31.13 C 85.92 29.26 82.44 29.12 79.02 28.91 C 79.02 28.44 79.02 27.52 79.03 27.06 Z" />
<path fill="#8932b6" opacity="1.00" d=" M 65.78 23.64 C 68.78 22.58 71.23 25.16 73.95 26.01 C 73.69 26.49 73.19 27.45 72.94 27.93 C 71.22 28.45 69.48 28.93 67.73 29.34 C 67.02 27.46 66.36 25.56 65.78 23.64 Z" />
<path fill="#a1cbd8" opacity="1.00" d=" M 63.71 25.77 C 64.04 25.37 64.70 24.56 65.03 24.16 C 65.09 26.50 65.69 28.77 66.14 31.05 C 65.91 32.47 65.63 33.88 65.21 35.26 C 64.43 32.81 63.87 30.30 63.60 27.74 C 63.63 27.25 63.68 26.26 63.71 25.77 Z" />
<path fill="#27203b" opacity="1.00" d=" M 65.03 24.16 L 65.78 23.64 C 66.36 25.56 67.02 27.46 67.73 29.34 L 67.83 30.11 C 67.60 30.34 67.13 30.80 66.89 31.03 L 66.14 31.05 C 65.69 28.77 65.09 26.50 65.03 24.16 Z" />
<path fill="#7f9399" opacity="1.00" d=" M 76.85 24.91 C 77.70 23.58 78.13 23.89 78.13 25.83 C 78.10 27.63 78.04 31.22 78.01 33.02 L 77.01 32.92 C 76.96 30.25 76.90 27.58 76.85 24.91 Z" />
<path fill="#451883" opacity="1.00" d=" M 88.90 31.13 C 91.64 27.41 94.98 23.22 100.11 23.77 L 99.70 24.68 L 99.05 25.11 C 96.90 26.22 95.53 28.24 94.07 30.08 C 92.35 30.46 90.63 30.83 88.90 31.13 Z" />
<path fill="#801dbb" opacity="1.00" d=" M 100.11 23.77 C 102.50 25.03 104.22 27.08 105.83 29.18 C 105.97 30.51 106.10 31.83 106.23 33.15 C 106.00 34.19 105.67 35.21 105.26 36.19 C 105.18 35.39 105.01 33.78 104.92 32.97 C 102.07 34.25 98.90 36.35 98.79 39.81 L 97.97 40.01 C 97.95 38.52 97.90 35.55 97.88 34.07 C 99.73 32.89 101.44 31.31 101.86 29.06 C 101.18 27.58 100.34 26.18 99.70 24.68 L 100.11 23.77 Z" />
<path fill="#2a0d29" opacity="1.00" d=" M 106.36 23.72 C 106.86 25.49 106.99 27.34 107.07 29.17 C 106.36 32.33 108.66 29.68 109.96 29.02 C 109.99 29.84 110.07 31.49 110.10 32.31 C 108.81 32.60 107.52 32.88 106.23 33.15 C 106.10 31.83 105.97 30.51 105.83 29.18 C 105.97 27.36 106.17 25.54 106.36 23.72 Z" />
<path fill="#e5eef7" opacity="1.00" d=" M 71.82 36.89 C 72.79 32.66 73.86 28.22 76.85 24.91 C 76.90 27.58 76.96 30.25 77.01 32.92 L 76.93 33.82 C 75.27 35.98 73.74 38.26 72.78 40.83 L 71.99 41.07 C 71.91 39.68 71.86 38.29 71.82 36.89 Z" />
<path fill="#201450" opacity="1.00" d=" M 94.07 30.08 C 95.53 28.24 96.90 26.22 99.05 25.11 C 98.79 27.72 98.20 30.28 97.75 32.87 C 97.03 35.56 94.97 38.66 97.23 41.16 C 95.97 41.91 94.70 42.63 93.35 43.20 C 93.94 41.13 93.95 38.99 92.81 37.09 C 87.57 35.50 83.77 42.58 78.96 40.08 C 78.96 38.70 78.97 37.32 78.99 35.94 C 81.12 38.59 84.44 38.39 86.01 35.33 C 89.50 35.06 92.25 33.02 94.07 30.08 Z" />
<path fill="#6319a8" opacity="1.00" d=" M 99.05 25.11 L 99.70 24.68 C 100.34 26.18 101.18 27.58 101.86 29.06 C 101.44 31.31 99.73 32.89 97.88 34.07 L 97.75 32.87 C 98.20 30.28 98.79 27.72 99.05 25.11 Z" />
<path fill="#000000" opacity="0.36" d=" M 43.01 25.79 C 45.14 27.93 45.75 31.12 47.05 33.76 L 46.38 34.42 C 44.34 32.01 42.98 28.99 43.01 25.79 Z" />
<path fill="#8835b3" opacity="1.00" d=" M 52.65 26.96 C 53.15 31.24 59.14 26.66 62.02 25.96 L 62.05 27.00 L 61.95 27.82 C 60.10 29.77 58.54 31.96 56.97 34.12 C 55.94 34.53 54.91 34.92 53.87 35.29 C 52.72 33.65 51.95 31.79 51.62 29.81 C 51.96 28.86 52.30 27.91 52.65 26.96 Z" />
<path fill="#1d1844" opacity="1.00" d=" M 62.05 27.00 C 62.46 26.69 63.29 26.08 63.71 25.77 C 63.68 26.26 63.63 27.25 63.60 27.74 C 62.20 32.22 63.59 36.58 64.06 41.00 C 58.24 43.57 55.88 39.37 53.87 35.29 C 54.91 34.92 55.94 34.53 56.97 34.12 C 59.79 33.37 62.54 31.01 61.95 27.82 L 62.05 27.00 Z" />
<path fill="#09091b" opacity="1.00" d=" M 78.13 25.83 L 79.02 26.21 L 79.03 27.06 C 79.02 27.52 79.02 28.44 79.02 28.91 C 79.02 29.66 79.01 31.16 79.01 31.91 C 78.99 33.25 78.99 34.60 78.99 35.94 C 78.97 37.32 78.96 38.70 78.96 40.08 C 78.95 41.39 79.00 42.70 79.09 44.00 C 83.58 44.66 87.03 41.63 90.93 40.16 C 91.97 41.06 92.23 42.47 91.85 43.76 C 88.63 46.87 84.61 49.17 81.94 52.83 C 82.43 52.90 83.40 53.05 83.89 53.13 C 83.52 54.07 83.20 55.03 82.94 56.01 C 86.78 56.75 89.55 53.61 92.17 51.34 C 92.61 50.98 93.48 50.26 93.92 49.90 L 94.96 49.92 C 94.27 50.92 93.55 51.89 92.82 52.86 C 91.46 54.11 90.12 55.39 88.83 56.71 C 85.89 57.99 83.20 59.76 81.11 62.22 C 80.41 64.15 82.00 65.57 83.12 66.87 C 82.63 66.91 81.63 66.99 81.13 67.03 C 78.67 66.95 76.23 66.75 73.81 66.41 C 74.07 66.15 74.60 65.62 74.87 65.36 C 79.19 65.15 81.90 59.69 81.51 55.86 C 80.94 53.63 79.99 51.44 78.37 49.77 C 77.56 48.25 75.68 49.43 74.53 49.79 L 73.77 50.05 C 72.57 50.02 71.36 49.98 70.16 49.92 L 69.84 49.20 C 69.79 47.70 69.93 46.13 69.18 44.77 C 70.79 39.95 67.86 35.65 66.89 31.03 C 67.13 30.80 67.60 30.34 67.83 30.11 L 68.12 31.01 C 68.70 32.87 69.42 34.72 70.64 36.26 L 70.92 37.14 C 72.69 39.53 67.73 50.68 73.17 48.46 C 74.37 48.24 75.58 47.99 76.78 47.72 C 78.32 42.99 77.89 37.92 78.01 33.02 C 78.04 31.22 78.10 27.63 78.13 25.83 Z" />
<path fill="#412a64" opacity="1.00" d=" M 56.97 34.12 C 58.54 31.96 60.10 29.77 61.95 27.82 C 62.54 31.01 59.79 33.37 56.97 34.12 Z" />
<path fill="#110f19" opacity="1.00" d=" M 64.06 41.00 C 63.59 36.58 62.20 32.22 63.60 27.74 C 63.87 30.30 64.43 32.81 65.21 35.26 C 65.77 38.74 63.63 46.58 69.18 44.77 C 69.93 46.13 69.79 47.70 69.84 49.20 C 69.57 45.88 66.13 46.02 63.67 46.65 C 56.84 50.07 50.23 55.32 47.70 62.78 C 45.78 67.40 46.30 74.96 53.80 72.05 L 53.64 73.00 C 52.76 73.24 51.89 73.48 51.02 73.72 C 45.36 73.46 39.69 74.33 34.02 73.94 C 30.02 72.76 26.15 71.14 22.17 69.89 C 21.20 68.93 17.88 68.19 20.11 66.73 L 20.92 67.26 C 27.82 71.48 36.18 73.53 44.24 72.88 C 37.34 69.31 30.09 66.28 24.09 61.19 C 23.17 60.32 22.36 59.34 21.68 58.27 L 22.71 58.38 C 24.16 58.57 27.07 58.97 28.52 59.16 C 30.93 59.99 33.38 60.65 35.84 61.29 C 40.06 64.20 46.30 62.78 47.57 57.65 C 48.48 53.11 52.98 49.97 53.04 45.34 L 52.46 44.95 C 50.09 43.52 47.25 43.15 44.70 42.11 C 44.77 40.46 44.28 38.86 44.02 37.24 C 44.85 36.34 45.63 35.39 46.38 34.42 L 47.05 33.76 C 47.10 36.22 45.95 40.44 49.85 38.85 C 49.98 38.35 50.23 37.34 50.36 36.84 C 51.31 38.56 52.17 40.33 52.99 42.13 C 53.74 44.70 54.52 47.27 55.23 49.85 C 56.43 49.19 57.58 48.45 58.73 47.72 C 57.82 45.25 56.53 42.95 55.20 40.69 C 53.46 37.77 51.70 34.88 49.86 32.03 C 50.44 31.29 51.03 30.54 51.62 29.81 C 51.95 31.79 52.72 33.65 53.87 35.29 C 55.88 39.37 58.24 43.57 64.06 41.00 M 26.89 60.99 C 28.77 64.08 32.87 65.72 35.99 67.00 C 36.49 67.26 37.50 67.78 38.00 68.04 C 38.26 69.11 39.23 69.44 40.92 69.03 C 41.73 70.80 47.22 72.57 45.98 68.99 C 45.62 68.00 46.98 64.25 45.12 65.25 C 42.76 64.71 40.43 63.71 37.97 64.08 C 34.51 62.50 30.77 60.89 26.89 60.99 Z" />
<path fill="#4c277c" opacity="1.00" d=" M 67.73 29.34 C 69.48 28.93 71.22 28.45 72.94 27.93 C 72.71 28.48 72.24 29.57 72.01 30.12 C 70.74 30.52 69.44 30.80 68.12 31.01 L 67.83 30.11 L 67.73 29.34 Z" />
<path fill="#ccccd6" opacity="1.00" d=" M 46.97 28.85 C 48.07 29.79 48.98 30.90 49.86 32.03 C 51.70 34.88 53.46 37.77 55.20 40.69 C 54.65 41.05 53.55 41.77 52.99 42.13 C 52.17 40.33 51.31 38.56 50.36 36.84 C 50.08 36.34 49.52 35.34 49.24 34.84 C 48.37 32.89 47.44 30.95 46.97 28.85 Z" />
<path fill="#502189" opacity="1.00" d=" M 79.02 28.91 C 82.44 29.12 85.92 29.26 88.90 31.13 C 87.91 32.51 86.91 33.88 86.01 35.33 C 83.40 34.85 81.25 33.23 79.01 31.91 C 79.01 31.16 79.02 29.66 79.02 28.91 Z" />
<path fill="#281c4f" opacity="1.00" d=" M 68.12 31.01 C 69.44 30.80 70.74 30.52 72.01 30.12 C 71.42 32.14 70.96 34.19 70.64 36.26 C 69.42 34.72 68.70 32.87 68.12 31.01 Z" />
<path fill="#33166d" opacity="1.00" d=" M 88.90 31.13 C 90.63 30.83 92.35 30.46 94.07 30.08 C 92.25 33.02 89.50 35.06 86.01 35.33 C 86.91 33.88 87.91 32.51 88.90 31.13 Z" />
<path fill="#ac4a4e" opacity="1.00" d=" M 42.30 38.08 C 41.49 35.67 40.64 33.00 42.59 30.87 C 42.55 33.35 43.97 34.44 46.38 34.42 C 45.63 35.39 44.85 36.34 44.02 37.24 C 43.59 37.45 42.73 37.87 42.30 38.08 Z" />
<path fill="#4d4bb0" opacity="1.00" d=" M 66.14 31.05 L 66.89 31.03 C 67.86 35.65 70.79 39.95 69.18 44.77 C 63.63 46.58 65.77 38.74 65.21 35.26 C 65.63 33.88 65.91 32.47 66.14 31.05 Z" />
<path fill="#370b1d" opacity="1.00" d=" M 110.10 32.31 C 111.68 31.97 113.26 31.63 114.83 31.23 C 115.78 34.66 111.69 33.74 110.10 32.31 Z" />
<path fill="#3b1e6c" opacity="1.00" d=" M 79.01 31.91 C 81.25 33.23 83.40 34.85 86.01 35.33 C 84.44 38.39 81.12 38.59 78.99 35.94 C 78.99 34.60 78.99 33.25 79.01 31.91 Z" />
<path fill="#262878" opacity="1.00" d=" M 77.01 32.92 L 78.01 33.02 C 77.89 37.92 78.32 42.99 76.78 47.72 C 75.58 47.99 74.37 48.24 73.17 48.46 L 72.91 47.48 C 75.74 44.61 78.12 41.20 76.82 36.80 C 76.85 36.05 76.90 34.56 76.93 33.82 L 77.01 32.92 Z" />
<path fill="#341b63" opacity="1.00" d=" M 97.23 41.16 C 94.97 38.66 97.03 35.56 97.75 32.87 L 97.88 34.07 C 97.90 35.55 97.95 38.52 97.97 40.01 L 98.79 39.81 C 99.38 39.66 100.56 39.35 101.15 39.20 L 101.30 40.10 C 100.61 40.68 99.90 41.24 99.17 41.77 C 98.68 41.61 97.71 41.31 97.23 41.16 Z" />
<path fill="#aa30cd" opacity="1.00" d=" M 98.79 39.81 C 98.90 36.35 102.07 34.25 104.92 32.97 C 105.01 33.78 105.18 35.39 105.26 36.19 C 104.97 36.72 104.39 37.79 104.10 38.32 C 103.12 38.61 102.13 38.90 101.15 39.20 C 100.56 39.35 99.38 39.66 98.79 39.81 Z" />
<path fill="#030303" opacity="0.46" d=" M 47.05 33.76 C 47.60 34.03 48.69 34.57 49.24 34.84 C 49.52 35.34 50.08 36.34 50.36 36.84 C 50.23 37.34 49.98 38.35 49.85 38.85 C 45.95 40.44 47.10 36.22 47.05 33.76 Z" />
<path fill="#9e9eed" opacity="1.00" d=" M 72.78 40.83 C 73.74 38.26 75.27 35.98 76.93 33.82 C 76.90 34.56 76.85 36.05 76.82 36.80 C 76.31 37.93 75.82 39.08 75.30 40.22 C 74.67 40.37 73.41 40.68 72.78 40.83 Z" />
<path fill="#000000" opacity="0.26" d=" M 109.01 36.95 C 108.03 34.04 111.33 35.27 113.01 35.10 C 113.29 35.55 113.86 36.44 114.14 36.89 C 112.43 36.95 110.72 37.02 109.01 36.95 Z" />
<path fill="#683543" opacity="1.00" d=" M 42.30 38.08 C 42.73 37.87 43.59 37.45 44.02 37.24 C 44.28 38.86 44.77 40.46 44.70 42.11 L 44.12 42.05 C 43.43 41.01 42.82 39.93 42.19 38.86 L 42.30 38.08 Z" />
<path fill="#5850ab" opacity="1.00" d=" M 70.92 37.14 L 71.82 36.89 C 71.86 38.29 71.91 39.68 71.99 41.07 C 72.22 42.68 72.68 45.88 72.91 47.48 L 73.17 48.46 C 67.73 50.68 72.69 39.53 70.92 37.14 Z" />
<path fill="#463daf" opacity="1.00" d=" M 75.30 40.22 C 75.82 39.08 76.31 37.93 76.82 36.80 C 78.12 41.20 75.74 44.61 72.91 47.48 C 73.55 45.01 74.55 42.65 75.30 40.22 Z" />
<path fill="#19152c" opacity="1.00" d=" M 78.96 40.08 C 83.77 42.58 87.57 35.50 92.81 37.09 C 93.95 38.99 93.94 41.13 93.35 43.20 C 94.70 42.63 95.97 41.91 97.23 41.16 C 97.71 41.31 98.68 41.61 99.17 41.77 C 97.37 43.09 95.53 44.35 93.79 45.75 C 91.70 47.16 89.73 48.73 87.75 50.27 C 86.43 51.18 85.18 52.18 83.89 53.13 C 83.40 53.05 82.43 52.90 81.94 52.83 C 84.61 49.17 88.63 46.87 91.85 43.76 C 92.23 42.47 91.97 41.06 90.93 40.16 C 87.03 41.63 83.58 44.66 79.09 44.00 C 79.00 42.70 78.95 41.39 78.96 40.08 Z" />
<path fill="#000000" opacity="0.67" d=" M 114.14 36.89 C 115.72 41.98 114.68 47.67 115.03 52.97 L 114.04 52.94 C 113.96 47.59 113.99 42.24 114.14 36.89 Z" />
<path fill="#000000" opacity="0.50" d=" M 41.49 38.13 L 42.30 38.08 L 42.19 38.86 C 40.14 41.02 36.41 39.52 33.74 39.69 C 36.29 39.02 38.90 38.65 41.49 38.13 Z" />
<path fill="#24202d" opacity="1.00" d=" M 101.15 39.20 C 102.13 38.90 103.12 38.61 104.10 38.32 C 104.39 38.55 104.97 39.02 105.25 39.25 C 104.49 40.64 103.58 41.94 102.65 43.22 C 101.96 43.76 101.30 44.32 100.66 44.91 C 99.59 45.86 98.58 46.88 97.62 47.93 C 97.01 48.57 96.41 49.23 95.83 49.90 L 94.96 49.92 L 93.92 49.90 C 94.99 48.64 96.07 47.41 97.19 46.20 C 99.21 44.25 101.27 42.33 103.10 40.20 C 102.65 40.17 101.75 40.12 101.30 40.10 L 101.15 39.20 Z" />
<path fill="#c157c2" opacity="1.00" d=" M 105.25 39.25 C 107.21 38.31 110.92 36.67 111.54 39.93 L 111.03 40.65 C 108.70 42.60 105.68 43.58 102.65 43.22 C 103.58 41.94 104.49 40.64 105.25 39.25 Z" />
<path fill="#09070a" opacity="0.93" d=" M 42.19 38.86 C 42.82 39.93 43.43 41.01 44.12 42.05 L 43.21 41.99 C 42.66 41.94 41.57 41.85 41.03 41.81 L 40.04 41.54 C 37.70 40.67 34.99 39.96 32.94 41.60 C 31.89 41.92 30.84 42.25 29.79 42.59 C 26.72 43.49 23.62 44.47 20.86 46.14 C 17.68 48.14 14.12 50.30 12.64 53.91 C 11.83 55.48 11.97 57.31 11.93 59.02 C 11.86 60.61 11.80 62.43 13.95 62.12 C 13.98 62.53 14.03 63.35 14.06 63.76 C 14.06 64.28 14.06 65.32 14.06 65.83 C 12.57 70.90 19.03 69.13 22.17 69.89 C 22.14 70.41 22.07 71.45 22.03 71.96 C 19.82 71.69 17.66 71.15 15.50 70.66 C 14.34 70.30 13.09 69.96 11.93 70.49 C 10.27 70.96 8.63 71.49 6.98 72.00 C 8.23 70.27 11.22 69.50 11.01 67.02 C 12.40 63.22 8.06 60.73 9.09 57.13 C 11.98 46.31 23.45 41.00 33.74 39.69 C 36.41 39.52 40.14 41.02 42.19 38.86 Z" />
<path fill="#936fe7" opacity="1.00" d=" M 72.78 40.83 C 73.41 40.68 74.67 40.37 75.30 40.22 C 74.55 42.65 73.55 45.01 72.91 47.48 C 72.68 45.88 72.22 42.68 71.99 41.07 L 72.78 40.83 Z" />
<path fill="#b6cce1" opacity="1.00" d=" M 101.30 40.10 C 101.75 40.12 102.65 40.17 103.10 40.20 C 101.27 42.33 99.21 44.25 97.19 46.20 C 96.34 46.09 94.64 45.86 93.79 45.75 C 95.53 44.35 97.37 43.09 99.17 41.77 C 99.90 41.24 100.61 40.68 101.30 40.10 Z" />
<path fill="#280b33" opacity="1.00" d=" M 111.54 39.93 C 113.10 42.06 112.20 44.73 111.39 47.07 C 110.74 44.99 110.52 42.78 111.03 40.65 L 111.54 39.93 Z" />
<path fill="#38123d" opacity="1.00" d=" M 32.94 41.60 C 34.99 39.96 37.70 40.67 40.04 41.54 L 39.35 41.97 C 38.54 42.07 36.92 42.26 36.11 42.36 C 35.31 42.17 33.73 41.79 32.94 41.60 Z" />
<path fill="#303687" opacity="1.00" d=" M 52.99 42.13 C 53.55 41.77 54.65 41.05 55.20 40.69 C 56.53 42.95 57.82 45.25 58.73 47.72 C 57.58 48.45 56.43 49.19 55.23 49.85 C 54.52 47.27 53.74 44.70 52.99 42.13 Z" />
<path fill="#7b1ea8" opacity="1.00" d=" M 102.65 43.22 C 105.68 43.58 108.70 42.60 111.03 40.65 C 110.52 42.78 110.74 44.99 111.39 47.07 C 110.71 49.50 110.04 51.93 109.28 54.33 C 108.48 54.24 106.89 54.04 106.10 53.94 C 107.24 52.23 108.48 50.43 107.97 48.25 C 106.08 47.28 100.80 48.44 100.66 44.91 C 101.30 44.32 101.96 43.76 102.65 43.22 Z" />
<path fill="#e851d0" opacity="1.00" d=" M 29.79 42.59 C 30.84 42.25 31.89 41.92 32.94 41.60 C 33.73 41.79 35.31 42.17 36.11 42.36 C 35.96 44.13 35.06 45.61 33.93 46.93 C 28.34 48.55 22.79 50.60 17.90 53.79 C 16.09 54.46 12.50 57.85 12.64 53.91 C 15.77 51.56 18.79 49.07 22.18 47.10 C 25.63 45.75 31.94 48.44 31.94 43.13 C 31.40 42.99 30.33 42.72 29.79 42.59 Z" />
<path fill="#b93ac8" opacity="1.00" d=" M 36.11 42.36 C 36.92 42.26 38.54 42.07 39.35 41.97 C 38.32 43.72 37.58 45.70 35.89 46.95 C 35.40 46.94 34.42 46.94 33.93 46.93 C 35.06 45.61 35.96 44.13 36.11 42.36 Z" />
<path fill="#8429af" opacity="1.00" d=" M 39.35 41.97 L 40.04 41.54 L 41.03 41.81 C 40.81 43.63 40.47 45.43 40.21 47.25 C 38.77 47.13 37.33 47.03 35.89 46.95 C 37.58 45.70 38.32 43.72 39.35 41.97 Z" />
<path fill="#562090" opacity="1.00" d=" M 41.03 41.81 C 41.57 41.85 42.66 41.94 43.21 41.99 C 44.95 44.59 42.57 46.45 40.21 47.25 C 40.47 45.43 40.81 43.63 41.03 41.81 Z" />
<path fill="#1f174d" opacity="1.00" d=" M 43.21 41.99 L 44.12 42.05 L 44.70 42.11 C 47.25 43.15 50.09 43.52 52.46 44.95 C 50.37 47.27 46.80 47.35 44.92 49.92 C 42.61 52.46 39.09 53.17 35.90 53.97 C 37.01 52.17 37.84 50.21 38.24 48.13 C 38.73 47.91 39.71 47.47 40.21 47.25 C 42.57 46.45 44.95 44.59 43.21 41.99 Z" />
<path fill="#f6e6f4" opacity="1.00" d=" M 20.86 46.14 C 23.62 44.47 26.72 43.49 29.79 42.59 C 30.33 42.72 31.40 42.99 31.94 43.13 C 31.94 48.44 25.63 45.75 22.18 47.10 C 21.85 46.86 21.19 46.38 20.86 46.14 Z" />
<path fill="#0e0f2a" opacity="1.00" d=" M 52.46 44.95 L 53.04 45.34 C 52.98 49.97 48.48 53.11 47.57 57.65 C 46.30 62.78 40.06 64.20 35.84 61.29 C 35.90 58.85 34.99 56.34 35.90 53.97 C 39.09 53.17 42.61 52.46 44.92 49.92 C 46.80 47.35 50.37 47.27 52.46 44.95 Z" />
<path fill="#5f17a4" opacity="1.00" d=" M 97.62 47.93 C 98.58 46.88 99.59 45.86 100.66 44.91 C 100.80 48.44 106.08 47.28 107.97 48.25 C 108.48 50.43 107.24 52.23 106.10 53.94 C 106.89 54.04 108.48 54.24 109.28 54.33 C 108.85 55.88 108.38 57.41 107.94 58.95 C 104.77 60.75 101.41 62.14 98.01 63.42 C 95.52 59.56 101.35 56.15 103.00 52.99 C 102.32 50.53 98.15 50.76 97.62 47.93 Z" />
<path fill="#dfbedd" opacity="1.00" d=" M 12.64 53.91 C 14.12 50.30 17.68 48.14 20.86 46.14 C 21.19 46.38 21.85 46.86 22.18 47.10 C 18.79 49.07 15.77 51.56 12.64 53.91 Z" />
<path fill="#f6ed7e" opacity="1.00" d=" M 63.67 46.65 C 66.13 46.02 69.57 45.88 69.84 49.20 L 70.16 49.92 C 71.21 52.29 76.83 50.26 72.90 56.02 C 72.74 58.42 72.53 60.81 72.27 63.20 L 71.83 63.79 C 71.19 64.43 70.58 65.09 69.99 65.77 C 69.30 65.91 67.91 66.19 67.21 66.33 C 66.65 66.11 65.53 65.67 64.98 65.45 C 68.74 62.83 72.88 55.52 67.30 52.66 C 64.86 50.47 61.96 51.43 59.44 52.94 C 53.81 54.48 49.82 63.92 55.88 67.22 C 56.89 67.81 57.99 68.25 59.06 68.74 C 58.05 69.16 57.05 69.62 56.06 70.11 C 50.96 70.66 45.46 69.41 47.70 62.78 C 50.23 55.32 56.84 50.07 63.67 46.65 Z" />
<path fill="#6780d0" opacity="1.00" d=" M 87.75 50.27 C 89.73 48.73 91.70 47.16 93.79 45.75 C 94.64 45.86 96.34 46.09 97.19 46.20 C 96.07 47.41 94.99 48.64 93.92 49.90 C 93.48 50.26 92.61 50.98 92.17 51.34 C 90.68 51.04 89.20 50.71 87.75 50.27 Z" />
<path fill="#572a75" opacity="1.00" d=" M 17.90 53.79 C 22.79 50.60 28.34 48.55 33.93 46.93 C 34.42 46.94 35.40 46.94 35.89 46.95 C 37.33 47.03 38.77 47.13 40.21 47.25 C 39.71 47.47 38.73 47.91 38.24 48.13 C 36.11 48.48 32.52 46.68 32.07 50.07 C 30.92 54.71 26.61 56.57 22.71 58.38 L 21.68 58.27 C 17.59 56.40 18.98 63.13 14.90 62.27 C 14.91 60.79 14.91 59.32 14.91 57.85 C 15.95 56.54 16.98 55.20 17.90 53.79 Z" />
<path fill="#39235f" opacity="1.00" d=" M 32.07 50.07 C 32.52 46.68 36.11 48.48 38.24 48.13 C 37.84 50.21 37.01 52.17 35.90 53.97 C 32.60 54.01 29.48 55.89 28.52 59.16 C 27.07 58.97 24.16 58.57 22.71 58.38 C 26.61 56.57 30.92 54.71 32.07 50.07 Z" />
<path fill="#47158d" opacity="1.00" d=" M 95.83 49.90 C 96.41 49.23 97.01 48.57 97.62 47.93 C 98.15 50.76 102.32 50.53 103.00 52.99 C 101.35 56.15 95.52 59.56 98.01 63.42 C 96.13 64.16 94.20 64.75 92.28 65.36 C 92.77 62.00 93.64 58.63 96.16 56.18 C 98.04 54.44 96.26 51.89 95.83 49.90 Z" />
<path fill="#aa3038" opacity="1.00" d=" M 74.53 49.79 C 75.68 49.43 77.56 48.25 78.37 49.77 C 78.09 51.29 77.83 52.83 77.37 54.32 C 76.36 52.85 75.33 51.39 74.53 49.79 Z" />
<path fill="#d88c4d" opacity="1.00" d=" M 70.16 49.92 C 71.36 49.98 72.57 50.02 73.77 50.05 C 73.93 53.14 74.13 56.25 75.20 59.18 C 74.31 60.58 73.33 61.92 72.27 63.20 C 72.53 60.81 72.74 58.42 72.90 56.02 C 76.83 50.26 71.21 52.29 70.16 49.92 Z" />
<path fill="#cf5344" opacity="1.00" d=" M 73.77 50.05 L 74.53 49.79 C 75.33 51.39 76.36 52.85 77.37 54.32 C 76.97 56.07 76.22 57.71 75.20 59.18 C 74.13 56.25 73.93 53.14 73.77 50.05 Z" />
<path fill="#79263d" opacity="1.00" d=" M 78.37 49.77 C 79.99 51.44 80.94 53.63 81.51 55.86 C 80.47 58.30 77.14 57.83 76.37 60.30 C 75.76 61.95 75.30 63.65 74.87 65.36 C 73.87 64.81 72.85 64.29 71.83 63.79 L 72.27 63.20 C 73.33 61.92 74.31 60.58 75.20 59.18 C 76.22 57.71 76.97 56.07 77.37 54.32 C 77.83 52.83 78.09 51.29 78.37 49.77 Z" />
<path fill="#202774" opacity="1.00" d=" M 83.89 53.13 C 85.18 52.18 86.43 51.18 87.75 50.27 C 89.20 50.71 90.68 51.04 92.17 51.34 C 89.55 53.61 86.78 56.75 82.94 56.01 C 83.20 55.03 83.52 54.07 83.89 53.13 Z" />
<path fill="#32136e" opacity="1.00" d=" M 94.96 49.92 L 95.83 49.90 C 96.26 51.89 98.04 54.44 96.16 56.18 C 93.64 58.63 92.77 62.00 92.28 65.36 C 91.69 65.64 90.51 66.19 89.92 66.47 C 87.86 61.15 95.96 58.16 92.82 52.86 C 93.55 51.89 94.27 50.92 94.96 49.92 Z" />
<path fill="#968f3f" opacity="1.00" d=" M 59.44 52.94 C 61.96 51.43 64.86 50.47 67.30 52.66 C 65.70 52.85 62.51 53.22 60.92 53.41 C 60.55 53.30 59.81 53.06 59.44 52.94 Z" />
<path fill="#919574" opacity="1.00" d=" M 118.17 52.94 C 119.31 52.71 120.48 52.66 121.65 52.63 C 124.02 53.55 126.51 53.97 129.12 53.91 C 129.41 54.13 129.99 54.58 130.28 54.80 C 130.20 55.61 130.03 57.25 129.95 58.06 C 126.95 57.27 123.97 56.42 121.01 55.48 C 119.13 54.67 117.47 56.54 115.78 57.14 C 115.54 56.85 115.06 56.28 114.81 55.99 C 116.24 55.30 118.06 54.84 118.17 52.94 Z" />
<path fill="#080806" opacity="0.88" d=" M 121.65 52.63 C 124.16 51.80 126.91 52.66 129.12 53.91 C 126.51 53.97 124.02 53.55 121.65 52.63 Z" />
<path fill="#877135" opacity="1.00" d=" M 55.88 67.22 C 49.82 63.92 53.81 54.48 59.44 52.94 C 59.81 53.06 60.55 53.30 60.92 53.41 C 62.44 54.09 64.87 53.62 65.35 55.65 C 61.07 53.68 56.19 56.56 55.04 60.93 C 54.90 62.65 55.45 64.30 56.20 65.82 C 57.78 66.04 59.39 66.07 60.99 66.10 L 62.10 66.13 C 60.55 66.40 57.43 66.95 55.88 67.22 Z" />
<path fill="#f3de69" opacity="1.00" d=" M 60.92 53.41 C 62.51 53.22 65.70 52.85 67.30 52.66 C 69.53 58.07 65.04 63.06 60.99 66.10 C 59.39 66.07 57.78 66.04 56.20 65.82 C 55.45 64.30 54.90 62.65 55.04 60.93 C 56.36 64.57 60.58 64.83 63.17 62.29 C 64.79 61.05 65.78 59.11 66.06 57.11 C 65.88 56.75 65.53 56.02 65.35 55.65 C 64.87 53.62 62.44 54.09 60.92 53.41 Z" />
<path fill="#9f5532" opacity="1.00" d=" M 67.30 52.66 C 72.88 55.52 68.74 62.83 64.98 65.45 C 64.02 65.69 63.06 65.92 62.10 66.13 L 60.99 66.10 C 65.04 63.06 69.53 58.07 67.30 52.66 Z" />
<path fill="#1c1047" opacity="1.00" d=" M 88.83 56.71 C 90.12 55.39 91.46 54.11 92.82 52.86 C 95.96 58.16 87.86 61.15 89.92 66.47 C 88.74 67.07 87.38 67.01 86.10 67.13 C 88.03 64.00 89.56 60.48 88.83 56.71 Z" />
<path fill="#ac32a8" opacity="1.00" d=" M 11.93 59.02 C 11.97 57.31 11.83 55.48 12.64 53.91 C 12.50 57.85 16.09 54.46 17.90 53.79 C 16.98 55.20 15.95 56.54 14.91 57.85 C 13.91 58.23 12.92 58.62 11.93 59.02 Z" />
<path fill="#211a45" opacity="1.00" d=" M 28.52 59.16 C 29.48 55.89 32.60 54.01 35.90 53.97 C 34.99 56.34 35.90 58.85 35.84 61.29 C 33.38 60.65 30.93 59.99 28.52 59.16 Z" />
<path fill="#c68b46" opacity="1.00" d=" M 55.04 60.93 C 56.19 56.56 61.07 53.68 65.35 55.65 C 65.53 56.02 65.88 56.75 66.06 57.11 C 63.64 56.24 58.67 55.54 58.48 59.09 C 58.34 60.05 58.21 61.02 58.10 61.98 C 59.49 61.89 60.87 61.66 62.25 61.44 C 62.48 61.66 62.94 62.08 63.17 62.29 C 60.58 64.83 56.36 64.57 55.04 60.93 Z" />
<path fill="#040708" opacity="0.96" d=" M 115.78 57.14 C 117.47 56.54 119.13 54.67 121.01 55.48 C 120.33 56.54 119.95 57.71 119.87 58.97 C 122.39 58.75 127.43 58.29 129.95 58.06 C 130.03 57.25 130.20 55.61 130.28 54.80 C 130.71 55.14 131.57 55.83 132.00 56.17 L 132.00 57.64 C 131.23 59.32 130.55 61.04 129.77 62.72 C 128.55 62.38 127.37 61.94 126.18 61.53 C 122.68 59.50 123.72 64.56 124.24 67.08 C 123.08 70.91 120.33 73.78 118.11 76.96 C 119.29 79.52 121.82 83.98 116.85 83.33 C 119.20 84.68 121.67 85.82 124.02 87.17 C 124.16 89.59 121.25 90.13 119.91 91.66 C 123.47 92.49 127.56 93.10 130.19 95.84 C 129.71 95.94 128.75 96.14 128.27 96.24 C 123.10 96.13 117.93 95.89 112.77 96.19 C 110.27 96.14 107.76 96.15 105.27 96.23 C 100.43 96.09 95.59 95.97 90.76 96.24 C 84.40 96.23 78.67 92.72 72.28 93.28 C 68.43 93.07 64.58 92.92 60.73 93.21 C 57.54 92.77 54.24 92.65 51.67 94.77 C 56.12 94.94 60.57 95.05 65.03 95.02 C 72.22 94.10 79.12 96.31 85.98 98.08 C 87.07 98.25 92.20 99.12 90.74 101.73 C 89.85 104.14 87.29 105.03 85.29 106.32 C 84.38 106.20 82.57 105.97 81.66 105.86 C 82.78 104.98 83.95 104.18 85.02 103.25 C 86.11 102.33 87.17 101.35 88.05 100.23 C 83.93 98.33 79.38 97.87 74.89 97.94 C 77.16 100.20 81.84 99.33 84.85 101.11 C 84.66 101.39 84.28 101.95 84.09 102.24 C 82.40 102.63 80.94 103.96 80.95 105.79 C 78.99 105.92 77.03 106.01 75.07 106.20 C 76.45 104.51 78.68 103.82 80.15 102.20 C 74.93 100.47 69.41 100.12 64.00 99.44 C 59.06 100.24 54.15 101.24 49.28 102.36 C 46.44 102.29 43.59 102.25 40.75 102.24 C 38.58 101.72 37.10 99.80 35.90 98.05 C 36.85 96.64 38.05 95.42 38.98 94.00 L 39.13 93.07 C 33.52 93.73 27.08 91.43 21.79 93.79 C 20.54 94.56 19.19 95.28 18.25 96.45 C 19.43 97.76 22.01 99.39 20.42 101.35 C 19.42 105.20 15.19 103.90 12.07 104.16 C 10.32 104.13 6.81 104.06 5.06 104.03 C 4.19 101.08 8.39 101.60 9.15 99.32 C 10.68 99.27 13.74 99.18 15.26 99.14 C 14.63 100.22 13.81 101.18 13.07 102.18 C 15.08 102.07 17.08 101.69 18.91 100.81 C 19.31 97.32 14.29 97.36 11.91 96.34 C 15.01 94.13 18.65 92.96 22.12 91.47 C 29.05 88.74 36.74 90.72 43.99 89.66 C 45.06 90.05 46.11 90.46 47.16 90.90 C 44.17 93.23 37.99 94.23 38.99 98.94 C 47.59 97.78 56.26 98.09 64.91 97.94 L 65.08 97.02 C 60.07 96.92 55.07 97.08 50.06 96.88 C 48.74 96.41 46.10 95.47 44.78 95.01 C 47.17 93.82 49.57 92.66 52.08 91.76 C 54.16 91.17 56.26 90.63 58.29 89.85 C 60.12 90.29 61.92 90.87 63.77 91.26 C 67.25 92.16 70.73 92.18 74.23 91.33 C 75.64 91.16 77.25 91.00 77.05 89.15 C 77.30 88.80 77.81 88.09 78.06 87.74 C 78.49 87.85 79.35 88.07 79.77 88.19 C 77.74 91.36 81.68 90.89 83.53 92.40 C 84.90 93.30 86.68 92.70 88.23 92.84 C 93.25 92.90 98.21 93.77 103.22 93.92 C 101.42 92.54 99.33 91.61 97.21 90.83 L 96.87 90.02 C 97.65 89.99 99.23 89.94 100.01 89.91 C 101.89 89.85 103.56 90.49 105.01 91.64 C 107.20 92.39 109.44 93.01 111.74 93.34 C 114.18 93.72 116.65 93.97 119.12 94.08 C 118.08 92.19 115.03 92.90 113.12 92.25 C 111.80 91.93 110.68 91.21 109.71 90.30 C 113.88 89.90 118.02 89.36 122.17 88.78 C 120.93 87.94 119.63 87.19 118.24 86.62 C 114.41 85.26 110.32 83.78 106.19 84.25 C 104.51 84.08 102.92 83.52 101.71 82.30 C 106.51 82.35 111.31 81.91 115.97 80.75 C 116.14 79.75 115.96 78.87 115.43 78.09 C 115.04 77.60 114.25 76.63 113.85 76.14 L 114.08 75.34 C 114.58 74.94 115.58 74.15 116.08 73.76 C 116.40 73.40 117.03 72.68 117.35 72.32 C 119.71 69.53 121.12 65.82 121.01 62.15 C 119.42 61.96 117.82 61.88 116.22 61.74 C 114.67 61.51 111.56 61.06 110.01 60.83 L 109.92 60.02 C 111.93 58.96 114.03 58.08 116.29 57.76 C 115.09 58.44 113.19 60.14 115.81 60.26 C 118.42 62.08 118.85 57.97 116.29 57.76 L 115.78 57.14 Z" />
<path fill="#8e6b34" opacity="1.00" d=" M 58.48 59.09 C 58.67 55.54 63.64 56.24 66.06 57.11 C 65.78 59.11 64.79 61.05 63.17 62.29 C 62.94 62.08 62.48 61.66 62.25 61.44 C 62.88 59.37 60.23 57.54 58.48 59.09 Z" />
<path fill="#421b4b" opacity="1.00" d=" M 81.51 55.86 C 81.90 59.69 79.19 65.15 74.87 65.36 C 75.30 63.65 75.76 61.95 76.37 60.30 C 77.14 57.83 80.47 58.30 81.51 55.86 Z" />
<path fill="#4a2337" opacity="1.00" d=" M 108.78 59.14 C 110.79 58.09 112.70 56.83 114.81 55.99 C 115.06 56.28 115.54 56.85 115.78 57.14 L 116.29 57.76 C 114.03 58.08 111.93 58.96 109.92 60.02 C 109.64 59.80 109.06 59.36 108.78 59.14 Z" />
<path fill="#4d9b90" opacity="1.00" d=" M 119.87 58.97 C 119.95 57.71 120.33 56.54 121.01 55.48 C 123.97 56.42 126.95 57.27 129.95 58.06 C 127.43 58.29 122.39 58.75 119.87 58.97 Z" />
<path fill="#0e0c28" opacity="1.00" d=" M 81.11 62.22 C 83.20 59.76 85.89 57.99 88.83 56.71 C 89.56 60.48 88.03 64.00 86.10 67.13 C 87.38 67.01 88.74 67.07 89.92 66.47 C 90.51 66.19 91.69 65.64 92.28 65.36 C 94.20 64.75 96.13 64.16 98.01 63.42 C 101.41 62.14 104.77 60.75 107.94 58.95 L 108.78 59.14 C 109.06 59.36 109.64 59.80 109.92 60.02 L 110.01 60.83 C 108.87 61.07 107.75 61.35 106.65 61.69 C 106.22 61.82 105.36 62.07 104.94 62.20 C 102.77 62.98 100.77 64.14 98.69 65.12 C 94.97 66.32 90.53 66.60 87.80 69.74 C 89.27 69.91 90.75 70.07 92.23 70.24 C 89.52 70.34 88.01 73.18 85.80 73.34 C 86.40 72.22 86.79 71.03 86.97 69.78 C 87.54 67.43 84.56 67.64 83.12 66.87 C 82.00 65.57 80.41 64.15 81.11 62.22 Z" />
<path fill="#69228b" opacity="1.00" d=" M 11.93 59.02 C 12.92 58.62 13.91 58.23 14.91 57.85 C 14.91 59.32 14.91 60.79 14.90 62.27 L 13.95 62.12 C 11.80 62.43 11.86 60.61 11.93 59.02 Z" />
<path fill="#341e62" opacity="1.00" d=" M 14.90 62.27 C 18.98 63.13 17.59 56.40 21.68 58.27 C 22.36 59.34 23.17 60.32 24.09 61.19 C 23.19 63.29 22.07 65.29 20.92 67.26 L 20.11 66.73 C 18.58 65.01 16.89 63.42 14.90 62.27 Z" />
<path fill="#f9de6b" opacity="1.00" d=" M 58.48 59.09 C 60.23 57.54 62.88 59.37 62.25 61.44 C 60.87 61.66 59.49 61.89 58.10 61.98 C 58.21 61.02 58.34 60.05 58.48 59.09 Z" />
<path fill="#000000" opacity="0.24" d=" M 116.29 57.76 C 118.85 57.97 118.42 62.08 115.81 60.26 C 113.19 60.14 115.09 58.44 116.29 57.76 Z" />
<path fill="#1f1752" opacity="1.00" d=" M 24.09 61.19 C 30.09 66.28 37.34 69.31 44.24 72.88 C 36.18 73.53 27.82 71.48 20.92 67.26 C 22.07 65.29 23.19 63.29 24.09 61.19 Z" />
<path fill="#cfd0e3" opacity="1.00" d=" M 26.89 60.99 C 30.77 60.89 34.51 62.50 37.97 64.08 C 37.98 64.81 38.00 66.26 38.00 66.99 C 37.50 66.99 36.49 67.00 35.99 67.00 C 32.87 65.72 28.77 64.08 26.89 60.99 Z" />
<path fill="#305056" opacity="1.00" d=" M 106.65 61.69 C 107.75 61.35 108.87 61.07 110.01 60.83 C 111.56 61.06 114.67 61.51 116.22 61.74 C 113.35 61.88 110.48 62.01 107.61 62.13 L 106.65 61.69 Z" />
<path fill="#000000" opacity="0.47" d=" M 124.24 67.08 C 123.72 64.56 122.68 59.50 126.18 61.53 C 125.69 62.91 124.73 65.69 124.24 67.08 Z" />
<path fill="#1b1134" opacity="1.00" d=" M 13.95 62.12 L 14.90 62.27 C 16.89 63.42 18.58 65.01 20.11 66.73 C 17.88 68.19 21.20 68.93 22.17 69.89 C 19.03 69.13 12.57 70.90 14.06 65.83 C 14.75 67.58 16.24 68.26 18.06 68.05 C 18.37 65.63 15.89 64.54 14.06 63.76 C 14.03 63.35 13.98 62.53 13.95 62.12 Z" />
<path fill="#102a68" opacity="1.00" d=" M 98.69 65.12 C 100.77 64.14 102.77 62.98 104.94 62.20 C 105.61 64.10 106.60 65.89 107.02 67.87 C 105.88 69.14 104.45 70.19 103.77 71.81 C 102.00 71.77 98.47 71.69 96.71 71.65 C 98.09 68.41 104.07 70.36 102.87 66.32 C 101.48 65.91 100.07 65.57 98.69 65.12 Z" />
<path fill="#133a77" opacity="1.00" d=" M 104.94 62.20 C 105.36 62.07 106.22 61.82 106.65 61.69 L 107.61 62.13 C 109.18 63.22 110.93 63.80 112.84 63.55 C 116.24 65.87 114.80 69.89 111.84 71.83 C 110.52 72.05 109.20 72.30 107.89 72.59 L 107.16 72.64 C 106.04 72.34 104.90 72.07 103.77 71.81 C 104.45 70.19 105.88 69.14 107.02 67.87 C 106.60 65.89 105.61 64.10 104.94 62.20 Z" />
<path fill="#19497e" opacity="1.00" d=" M 107.61 62.13 C 110.48 62.01 113.35 61.88 116.22 61.74 C 117.82 61.88 119.42 61.96 121.01 62.15 C 121.12 65.82 119.71 69.53 117.35 72.32 C 115.52 72.13 113.68 71.96 111.84 71.83 C 114.80 69.89 116.24 65.87 112.84 63.55 C 110.93 63.80 109.18 63.22 107.61 62.13 Z" />
<path fill="#c6733f" opacity="1.00" d=" M 53.80 72.05 C 46.30 74.96 45.78 67.40 47.70 62.78 C 45.46 69.41 50.96 70.66 56.06 70.11 C 55.30 70.75 54.55 71.40 53.80 72.05 Z" />
<path fill="#482c6a" opacity="1.00" d=" M 14.06 63.76 C 15.89 64.54 18.37 65.63 18.06 68.05 C 16.24 68.26 14.75 67.58 14.06 65.83 C 14.06 65.32 14.06 64.28 14.06 63.76 Z" />
<path fill="#be82f3" opacity="1.00" d=" M 37.97 64.08 C 40.43 63.71 42.76 64.71 45.12 65.25 C 45.07 65.69 44.98 66.57 44.93 67.01 C 43.20 67.00 39.74 66.99 38.00 66.99 C 38.00 66.26 37.98 64.81 37.97 64.08 Z" />
<path fill="#451620" opacity="1.00" d=" M 69.99 65.77 C 70.58 65.09 71.19 64.43 71.83 63.79 C 72.85 64.29 73.87 64.81 74.87 65.36 C 74.60 65.62 74.07 66.15 73.81 66.41 C 72.53 66.23 71.26 66.02 69.99 65.77 Z" />
<path fill="#563baf" opacity="1.00" d=" M 45.12 65.25 C 46.98 64.25 45.62 68.00 45.98 68.99 C 44.29 69.00 42.61 69.01 40.92 69.03 C 39.23 69.44 38.26 69.11 38.00 68.04 C 41.49 69.02 43.80 68.68 44.93 67.01 C 44.98 66.57 45.07 65.69 45.12 65.25 Z" />
<path fill="#cabf52" opacity="1.00" d=" M 62.10 66.13 C 63.06 65.92 64.02 65.69 64.98 65.45 C 65.53 65.67 66.65 66.11 67.21 66.33 C 64.48 67.11 61.76 67.88 59.06 68.74 C 57.99 68.25 56.89 67.81 55.88 67.22 C 57.43 66.95 60.55 66.40 62.10 66.13 Z" />
<path fill="#112158" opacity="1.00" d=" M 87.80 69.74 C 90.53 66.60 94.97 66.32 98.69 65.12 C 100.07 65.57 101.48 65.91 102.87 66.32 C 104.07 70.36 98.09 68.41 96.71 71.65 C 93.02 73.32 97.17 73.00 99.12 73.10 C 98.77 73.35 98.07 73.85 97.72 74.10 C 95.63 74.90 96.05 77.21 95.89 79.03 L 95.32 78.78 C 93.34 77.94 91.33 76.92 89.13 76.99 C 86.70 76.35 85.04 77.80 83.57 79.50 C 77.76 78.05 79.13 84.04 76.90 86.89 C 75.11 85.63 73.54 84.10 71.84 82.73 C 73.57 81.78 75.33 80.89 77.05 79.91 C 78.08 79.34 79.06 78.67 80.03 78.00 C 82.06 76.58 83.91 74.93 85.80 73.34 C 88.01 73.18 89.52 70.34 92.23 70.24 C 90.75 70.07 89.27 69.91 87.80 69.74 Z" />
<path fill="#191540" opacity="1.00" d=" M 67.21 66.33 C 67.91 66.19 69.30 65.91 69.99 65.77 C 71.26 66.02 72.53 66.23 73.81 66.41 C 76.23 66.75 78.67 66.95 81.13 67.03 C 82.06 72.93 74.50 72.55 70.78 74.76 C 68.99 75.47 67.15 76.08 65.23 76.34 C 61.17 76.46 56.35 76.59 53.64 73.00 L 53.80 72.05 C 54.55 71.40 55.30 70.75 56.06 70.11 C 57.05 69.62 58.05 69.16 59.06 68.74 C 61.76 67.88 64.48 67.11 67.21 66.33 Z" />
<path fill="#8864d8" opacity="1.00" d=" M 35.99 67.00 C 36.49 67.00 37.50 66.99 38.00 66.99 C 39.74 66.99 43.20 67.00 44.93 67.01 C 43.80 68.68 41.49 69.02 38.00 68.04 C 37.50 67.78 36.49 67.26 35.99 67.00 Z" />
<path fill="#2d1960" opacity="1.00" d=" M 81.13 67.03 C 81.63 66.99 82.63 66.91 83.12 66.87 C 84.56 67.64 87.54 67.43 86.97 69.78 C 84.08 70.68 81.67 72.59 79.03 73.98 C 77.04 74.58 75.14 75.44 73.26 76.31 C 72.64 75.92 71.40 75.15 70.78 74.76 C 74.50 72.55 82.06 72.93 81.13 67.03 Z" />
<path fill="#2f2990" opacity="1.00" d=" M 40.92 69.03 C 42.61 69.01 44.29 69.00 45.98 68.99 C 47.22 72.57 41.73 70.80 40.92 69.03 Z" />
<path fill="#396470" opacity="1.00" d=" M 11.93 70.49 C 13.09 69.96 14.34 70.30 15.50 70.66 C 15.38 71.50 15.22 72.33 15.00 73.16 C 13.96 74.00 12.26 74.57 12.08 76.08 C 11.98 76.53 11.79 77.43 11.69 77.89 C 10.07 77.51 8.44 77.14 6.79 76.91 C 8.46 74.83 10.61 73.25 12.80 71.77 C 12.58 71.45 12.14 70.81 11.93 70.49 Z" />
<path fill="#171445" opacity="1.00" d=" M 22.17 69.89 C 26.15 71.14 30.02 72.76 34.02 73.94 C 39.69 74.33 45.36 73.46 51.02 73.72 L 51.03 74.60 C 49.58 75.62 48.09 76.61 46.88 77.93 C 44.77 74.19 40.38 77.50 37.12 77.18 C 36.38 77.10 34.90 76.96 34.17 76.88 C 33.68 76.75 32.71 76.48 32.23 76.34 C 31.79 76.22 30.92 75.98 30.48 75.86 C 27.71 74.45 24.91 73.12 22.03 71.96 C 22.07 71.45 22.14 70.41 22.17 69.89 Z" />
<path fill="#5b1ea8" opacity="1.00" d=" M 79.03 73.98 C 81.67 72.59 84.08 70.68 86.97 69.78 C 86.79 71.03 86.40 72.22 85.80 73.34 C 83.91 74.93 82.06 76.58 80.03 78.00 C 79.75 77.47 79.19 76.41 78.90 75.88 C 78.93 75.40 79.00 74.45 79.03 73.98 Z" />
<path fill="#d0dba5" opacity="1.00" d=" M 6.98 72.00 C 8.63 71.49 10.27 70.96 11.93 70.49 C 12.14 70.81 12.58 71.45 12.80 71.77 C 10.61 73.25 8.46 74.83 6.79 76.91 C 3.80 77.59 5.82 74.49 5.93 72.95 C 6.20 72.71 6.72 72.24 6.98 72.00 Z" />
<path fill="#1d3764" opacity="1.00" d=" M 15.50 70.66 C 17.66 71.15 19.82 71.69 22.03 71.96 C 24.91 73.12 27.71 74.45 30.48 75.86 C 29.24 76.59 27.96 77.26 26.72 77.99 C 24.99 77.77 21.42 79.03 22.56 76.13 C 21.00 75.44 18.18 76.35 17.90 74.09 C 17.76 72.76 16.15 73.93 15.36 73.75 L 15.00 73.16 C 15.22 72.33 15.38 71.50 15.50 70.66 Z" />
<path fill="#0b1b35" opacity="1.00" d=" M 99.12 73.10 C 97.17 73.00 93.02 73.32 96.71 71.65 C 98.47 71.69 102.00 71.77 103.77 71.81 C 104.90 72.07 106.04 72.34 107.16 72.64 L 106.18 72.77 C 104.41 72.86 100.88 73.02 99.12 73.10 Z" />
<path fill="#2c6779" opacity="1.00" d=" M 107.89 72.59 C 109.20 72.30 110.52 72.05 111.84 71.83 C 113.68 71.96 115.52 72.13 117.35 72.32 C 117.03 72.68 116.40 73.40 116.08 73.76 C 114.69 72.42 112.66 72.91 110.97 73.17 C 110.20 73.03 108.66 72.74 107.89 72.59 Z" />
<path fill="#10130d" opacity="0.91" d=" M 2.08 80.09 C 2.94 77.53 3.55 74.57 5.93 72.95 C 5.82 74.49 3.80 77.59 6.79 76.91 C 8.44 77.14 10.07 77.51 11.69 77.89 C 11.58 78.46 11.37 79.61 11.26 80.18 L 11.14 80.96 C 11.63 81.04 12.61 81.19 13.10 81.26 C 9.83 84.79 5.90 87.86 3.59 92.18 C 2.85 93.75 1.67 95.68 2.85 97.34 C 2.09 98.28 1.06 98.90 0.00 99.45 L 0.00 96.40 C 2.05 91.02 5.58 86.44 9.02 81.92 C 9.40 77.54 4.50 80.11 2.08 80.09 Z" />
<path fill="#88ab71" opacity="1.00" d=" M 12.08 76.08 C 12.26 74.57 13.96 74.00 15.00 73.16 L 15.36 73.75 C 16.70 75.13 16.82 76.81 15.31 78.13 C 14.13 77.61 13.02 76.97 12.08 76.08 Z" />
<path fill="#40626a" opacity="1.00" d=" M 15.36 73.75 C 16.15 73.93 17.76 72.76 17.90 74.09 C 18.18 76.35 21.00 75.44 22.56 76.13 C 21.42 79.03 24.99 77.77 26.72 77.99 L 27.06 78.93 C 26.59 78.99 25.66 79.09 25.19 79.15 C 23.21 78.84 19.00 80.11 20.67 76.80 C 18.91 77.44 17.18 78.29 15.92 79.70 C 15.64 79.96 15.09 80.48 14.82 80.75 C 14.39 80.87 13.53 81.13 13.10 81.26 C 12.61 81.19 11.63 81.04 11.14 80.96 L 11.26 80.18 C 12.86 80.02 14.39 79.55 15.31 78.13 C 16.82 76.81 16.70 75.13 15.36 73.75 Z" />
<path fill="#261954" opacity="1.00" d=" M 51.02 73.72 C 51.89 73.48 52.76 73.24 53.64 73.00 C 56.35 76.59 61.17 76.46 65.23 76.34 C 61.92 76.93 58.54 77.15 55.19 76.80 C 53.82 76.03 52.44 75.28 51.03 74.60 L 51.02 73.72 Z" />
<path fill="#488b82" opacity="1.00" d=" M 99.12 73.10 C 100.88 73.02 104.41 72.86 106.18 72.77 L 106.01 73.81 C 102.44 72.76 100.30 73.57 99.57 76.23 C 98.63 75.81 98.02 75.09 97.72 74.10 C 98.07 73.85 98.77 73.35 99.12 73.10 Z" />
<path fill="#416946" opacity="1.00" d=" M 106.18 72.77 L 107.16 72.64 L 107.89 72.59 C 108.66 72.74 110.20 73.03 110.97 73.17 C 111.96 73.95 112.97 74.72 114.08 75.34 L 113.85 76.14 C 111.34 75.06 108.79 73.93 106.01 73.81 L 106.18 72.77 Z" />
<path fill="#5ea97e" opacity="1.00" d=" M 110.97 73.17 C 112.66 72.91 114.69 72.42 116.08 73.76 C 115.58 74.15 114.58 74.94 114.08 75.34 C 112.97 74.72 111.96 73.95 110.97 73.17 Z" />
<path fill="#f5cbf1" opacity="1.00" d=" M 73.26 76.31 C 75.14 75.44 77.04 74.58 79.03 73.98 C 79.00 74.45 78.93 75.40 78.90 75.88 C 77.85 76.54 76.78 77.19 75.73 77.86 C 71.98 79.26 68.18 80.60 64.23 81.32 C 61.09 81.08 57.75 81.57 54.81 80.22 C 60.99 79.35 67.64 79.37 73.26 76.31 Z" />
<path fill="#255d82" opacity="1.00" d=" M 95.89 79.03 C 96.05 77.21 95.63 74.90 97.72 74.10 C 98.02 75.09 98.63 75.81 99.57 76.23 C 102.18 77.81 105.03 79.39 108.21 78.93 C 110.77 79.39 113.18 79.10 115.43 78.09 C 115.96 78.87 116.14 79.75 115.97 80.75 C 111.31 81.91 106.51 82.35 101.71 82.30 C 99.86 81.42 97.99 80.57 96.07 79.85 L 95.89 79.03 Z" />
<path fill="#71b987" opacity="1.00" d=" M 99.57 76.23 C 100.30 73.57 102.44 72.76 106.01 73.81 C 104.88 76.40 104.99 78.56 108.21 78.93 C 105.03 79.39 102.18 77.81 99.57 76.23 Z" />
<path fill="#a0d679" opacity="1.00" d=" M 106.01 73.81 C 108.79 73.93 111.34 75.06 113.85 76.14 C 114.25 76.63 115.04 77.60 115.43 78.09 C 113.18 79.10 110.77 79.39 108.21 78.93 C 104.99 78.56 104.88 76.40 106.01 73.81 Z" />
<path fill="#3c1b6a" opacity="1.00" d=" M 46.88 77.93 C 48.09 76.61 49.58 75.62 51.03 74.60 C 52.44 75.28 53.82 76.03 55.19 76.80 C 53.31 77.00 51.00 76.67 49.94 78.62 C 51.31 79.02 52.70 79.34 54.01 79.91 L 53.08 79.94 C 51.74 79.97 50.40 79.99 49.06 80.01 C 48.24 79.96 46.61 79.87 45.79 79.82 C 46.06 79.35 46.61 78.40 46.88 77.93 Z" />
<path fill="#592d70" opacity="1.00" d=" M 65.23 76.34 C 67.15 76.08 68.99 75.47 70.78 74.76 C 71.40 75.15 72.64 75.92 73.26 76.31 C 67.64 79.37 60.99 79.35 54.81 80.22 L 54.01 79.91 C 52.70 79.34 51.31 79.02 49.94 78.62 C 51.00 76.67 53.31 77.00 55.19 76.80 C 58.54 77.15 61.92 76.93 65.23 76.34 Z" />
<path fill="#c5df92" opacity="1.00" d=" M 12.08 76.08 C 13.02 76.97 14.13 77.61 15.31 78.13 C 14.39 79.55 12.86 80.02 11.26 80.18 C 11.37 79.61 11.58 78.46 11.69 77.89 C 11.79 77.43 11.98 76.53 12.08 76.08 Z" />
<path fill="#758f89" opacity="1.00" d=" M 30.48 75.86 C 30.92 75.98 31.79 76.22 32.23 76.34 C 31.51 77.78 29.92 78.27 28.66 79.09 L 27.94 79.03 L 27.06 78.93 L 26.72 77.99 C 27.96 77.26 29.24 76.59 30.48 75.86 Z" />
<path fill="#34597e" opacity="1.00" d=" M 32.23 76.34 C 32.71 76.48 33.68 76.75 34.17 76.88 C 35.05 78.89 34.37 81.00 33.98 83.03 C 32.39 83.71 30.72 84.17 29.05 84.57 C 27.35 82.62 31.30 82.00 32.05 80.36 C 30.92 79.95 29.79 79.52 28.66 79.09 C 29.92 78.27 31.51 77.78 32.23 76.34 Z" />
<path fill="#122258" opacity="1.00" d=" M 37.12 77.18 C 40.38 77.50 44.77 74.19 46.88 77.93 C 46.61 78.40 46.06 79.35 45.79 79.82 C 43.91 81.89 43.94 83.58 47.01 83.89 C 48.22 84.31 49.42 84.76 50.64 85.12 C 54.00 85.99 57.52 86.05 60.97 86.07 C 64.60 86.50 68.18 86.37 71.07 84.06 C 72.49 84.61 73.33 86.04 74.43 87.04 C 70.93 90.76 65.32 84.49 62.76 89.34 C 59.72 88.82 56.84 87.69 53.83 87.04 C 54.88 88.58 56.63 89.19 58.29 89.85 C 56.26 90.63 54.16 91.17 52.08 91.76 C 51.40 91.03 50.72 90.30 50.02 89.59 C 47.85 88.09 45.84 88.12 43.99 89.66 C 36.74 90.72 29.05 88.74 22.12 91.47 C 20.79 91.37 19.45 91.39 18.13 91.50 C 17.55 91.32 16.39 90.96 15.81 90.78 C 18.78 90.55 22.81 90.72 23.12 86.98 C 26.45 86.74 29.76 86.39 33.08 86.04 C 34.11 86.07 35.77 85.61 35.48 84.28 C 34.76 81.74 36.26 79.46 37.12 77.18 Z" />
<path fill="#be41de" opacity="1.00" d=" M 75.73 77.86 C 76.78 77.19 77.85 76.54 78.90 75.88 C 79.19 76.41 79.75 77.47 80.03 78.00 C 79.06 78.67 78.08 79.34 77.05 79.91 C 76.72 79.40 76.06 78.37 75.73 77.86 Z" />
<path fill="#729794" opacity="1.00" d=" M 15.92 79.70 C 17.18 78.29 18.91 77.44 20.67 76.80 C 19.00 80.11 23.21 78.84 25.19 79.15 C 24.10 79.64 22.98 80.08 21.92 80.66 C 21.43 81.01 20.44 81.71 19.95 82.06 C 18.28 82.41 18.32 81.33 18.59 80.08 C 17.92 79.99 16.59 79.80 15.92 79.70 Z" />
<path fill="#5f858f" opacity="1.00" d=" M 34.17 76.88 C 34.90 76.96 36.38 77.10 37.12 77.18 C 36.26 79.46 34.76 81.74 35.48 84.28 C 35.77 85.61 34.11 86.07 33.08 86.04 C 33.44 85.05 33.74 84.05 33.98 83.03 C 34.37 81.00 35.05 78.89 34.17 76.88 Z" />
<path fill="#133a76" opacity="1.00" d=" M 83.57 79.50 C 85.04 77.80 86.70 76.35 89.13 76.99 C 87.65 77.66 86.89 78.59 88.13 79.97 C 88.31 81.25 88.27 82.54 88.31 83.82 C 89.46 83.95 90.60 84.04 91.76 84.10 C 93.16 84.47 94.57 84.81 95.99 85.06 C 97.52 86.63 96.39 87.89 95.02 89.02 C 96.71 89.03 98.39 88.98 100.08 88.95 L 100.01 89.91 C 99.23 89.94 97.65 89.99 96.87 90.02 C 91.16 89.67 85.34 89.60 79.77 88.19 C 79.35 88.07 78.49 87.85 78.06 87.74 C 77.77 87.53 77.19 87.10 76.90 86.89 C 79.13 84.04 77.76 78.05 83.57 79.50 Z" />
<path fill="#85b7ac" opacity="1.00" d=" M 89.13 76.99 C 91.33 76.92 93.34 77.94 95.32 78.78 C 95.08 80.11 94.32 80.94 93.03 81.29 C 91.38 80.90 89.76 80.44 88.13 79.97 C 86.89 78.59 87.65 77.66 89.13 76.99 Z" />
<path fill="#eb5be4" opacity="1.00" d=" M 64.23 81.32 C 68.18 80.60 71.98 79.26 75.73 77.86 C 76.06 78.37 76.72 79.40 77.05 79.91 C 75.33 80.89 73.57 81.78 71.84 82.73 C 68.27 83.60 64.70 84.48 61.07 85.10 C 57.59 85.06 54.12 85.03 50.64 85.12 C 50.97 83.18 51.85 81.46 53.08 79.94 L 54.01 79.91 C 53.43 85.11 61.83 80.44 64.23 81.32 Z" />
<path fill="#d3eac6" opacity="1.00" d=" M 25.19 79.15 C 25.66 79.09 26.59 78.99 27.06 78.93 L 27.94 79.03 C 27.23 80.45 26.52 81.87 25.82 83.29 L 25.32 82.85 C 24.34 81.89 23.24 81.08 21.92 80.66 C 22.98 80.08 24.10 79.64 25.19 79.15 Z" />
<path fill="#3f7f81" opacity="1.00" d=" M 27.94 79.03 L 28.66 79.09 C 29.79 79.52 30.92 79.95 32.05 80.36 C 31.30 82.00 27.35 82.62 29.05 84.57 C 27.71 85.28 26.66 84.21 25.82 83.29 C 26.52 81.87 27.23 80.45 27.94 79.03 Z" />
<path fill="#4b8a85" opacity="1.00" d=" M 95.32 78.78 L 95.89 79.03 L 96.07 79.85 C 96.17 81.98 97.88 83.40 98.98 85.05 L 97.87 85.09 C 97.40 85.09 96.46 85.07 95.99 85.06 C 94.57 84.81 93.16 84.47 91.76 84.10 C 92.15 83.15 92.58 82.22 93.03 81.29 C 94.32 80.94 95.08 80.11 95.32 78.78 Z" />
<path fill="#b7c4aa" opacity="1.00" d=" M 14.82 80.75 C 15.09 80.48 15.64 79.96 15.92 79.70 C 16.59 79.80 17.92 79.99 18.59 80.08 C 18.32 81.33 18.28 82.41 19.95 82.06 C 19.15 83.16 18.16 84.06 16.77 84.31 C 15.13 84.72 13.61 85.45 12.03 86.01 L 10.93 85.90 C 12.98 84.30 15.30 83.04 17.14 81.18 C 16.56 81.07 15.40 80.85 14.82 80.75 Z" />
<path fill="#9f24c7" opacity="1.00" d=" M 47.01 83.89 C 43.94 83.58 43.91 81.89 45.79 79.82 C 46.61 79.87 48.24 79.96 49.06 80.01 C 48.36 81.30 47.69 82.60 47.01 83.89 Z" />
<path fill="#c436d1" opacity="1.00" d=" M 49.06 80.01 C 50.40 79.99 51.74 79.97 53.08 79.94 C 51.85 81.46 50.97 83.18 50.64 85.12 C 49.42 84.76 48.22 84.31 47.01 83.89 C 47.69 82.60 48.36 81.30 49.06 80.01 Z" />
<path fill="#fc98ed" opacity="1.00" d=" M 54.01 79.91 L 54.81 80.22 C 57.75 81.57 61.09 81.08 64.23 81.32 C 61.83 80.44 53.43 85.11 54.01 79.91 Z" />
<path fill="#306b8a" opacity="1.00" d=" M 88.13 79.97 C 89.76 80.44 91.38 80.90 93.03 81.29 C 92.58 82.22 92.15 83.15 91.76 84.10 C 90.60 84.04 89.46 83.95 88.31 83.82 C 88.27 82.54 88.31 81.25 88.13 79.97 Z" />
<path fill="#9ecaa9" opacity="1.00" d=" M 96.07 79.85 C 97.99 80.57 99.86 81.42 101.71 82.30 C 102.92 83.52 104.51 84.08 106.19 84.25 C 105.60 84.48 104.43 84.92 103.84 85.15 C 102.22 85.09 100.60 85.06 98.98 85.05 C 97.88 83.40 96.17 81.98 96.07 79.85 Z" />
<path fill="#eaf1c6" opacity="1.00" d=" M 13.10 81.26 C 13.53 81.13 14.39 80.87 14.82 80.75 C 15.40 80.85 16.56 81.07 17.14 81.18 C 15.30 83.04 12.98 84.30 10.93 85.90 C 8.62 87.36 7.06 89.64 5.94 92.08 C 5.17 92.40 4.39 92.44 3.59 92.18 C 5.90 87.86 9.83 84.79 13.10 81.26 Z" />
<path fill="#9bd69b" opacity="1.00" d=" M 19.95 82.06 C 20.44 81.71 21.43 81.01 21.92 80.66 C 23.24 81.08 24.34 81.89 25.32 82.85 C 25.22 83.99 24.86 84.99 24.23 85.85 C 21.74 85.34 19.23 84.97 16.77 84.31 C 18.16 84.06 19.15 83.16 19.95 82.06 Z" />
<path fill="#629477" opacity="1.00" d=" M 25.32 82.85 L 25.82 83.29 C 26.66 84.21 27.71 85.28 29.05 84.57 C 30.72 84.17 32.39 83.71 33.98 83.03 C 33.74 84.05 33.44 85.05 33.08 86.04 C 29.76 86.39 26.45 86.74 23.12 86.98 C 23.40 86.70 23.95 86.14 24.23 85.85 C 24.86 84.99 25.22 83.99 25.32 82.85 Z" />
<path fill="#171135" opacity="1.00" d=" M 61.07 85.10 C 64.70 84.48 68.27 83.60 71.84 82.73 C 73.54 84.10 75.11 85.63 76.90 86.89 C 77.19 87.10 77.77 87.53 78.06 87.74 C 77.81 88.09 77.30 88.80 77.05 89.15 C 76.16 88.46 75.30 87.75 74.43 87.04 C 73.33 86.04 72.49 84.61 71.07 84.06 C 68.18 86.37 64.60 86.50 60.97 86.07 L 61.07 85.10 Z" />
<path fill="#c3ec8f" opacity="1.00" d=" M 12.03 86.01 C 13.61 85.45 15.13 84.72 16.77 84.31 C 19.23 84.97 21.74 85.34 24.23 85.85 C 23.95 86.14 23.40 86.70 23.12 86.98 C 19.21 86.99 15.60 88.60 12.02 89.95 C 11.52 90.10 10.54 90.41 10.04 90.56 C 8.43 88.78 11.28 87.50 12.03 86.01 Z" />
<path fill="#23566b" opacity="1.00" d=" M 106.19 84.25 C 110.32 83.78 114.41 85.26 118.24 86.62 C 115.84 86.96 113.46 87.37 111.09 87.84 C 110.55 85.36 108.53 84.75 105.04 85.99 C 104.74 85.78 104.14 85.36 103.84 85.15 C 104.43 84.92 105.60 84.48 106.19 84.25 Z" />
<path fill="#681e64" opacity="1.00" d=" M 50.64 85.12 C 54.12 85.03 57.59 85.06 61.07 85.10 L 60.97 86.07 C 57.52 86.05 54.00 85.99 50.64 85.12 Z" />
<path fill="#164d8b" opacity="1.00" d=" M 95.99 85.06 C 96.46 85.07 97.40 85.09 97.87 85.09 C 99.26 86.40 100.76 87.60 102.18 88.88 C 101.66 88.89 100.61 88.93 100.08 88.95 C 98.39 88.98 96.71 89.03 95.02 89.02 C 96.39 87.89 97.52 86.63 95.99 85.06 Z" />
<path fill="#2f7c9f" opacity="1.00" d=" M 97.87 85.09 L 98.98 85.05 C 100.60 85.06 102.22 85.09 103.84 85.15 C 104.14 85.36 104.74 85.78 105.04 85.99 C 105.43 87.01 105.80 88.04 106.15 89.08 C 104.83 89.01 103.50 88.95 102.18 88.88 C 100.76 87.60 99.26 86.40 97.87 85.09 Z" />
<path fill="#b2c889" opacity="1.00" d=" M 5.94 92.08 C 7.06 89.64 8.62 87.36 10.93 85.90 L 12.03 86.01 C 11.28 87.50 8.43 88.78 10.04 90.56 C 8.70 91.12 7.35 91.69 5.94 92.08 Z" />
<path fill="#050d10" opacity="1.00" d=" M 105.04 85.99 C 108.53 84.75 110.55 85.36 111.09 87.84 C 109.45 88.29 107.82 88.75 106.15 89.08 C 105.80 88.04 105.43 87.01 105.04 85.99 Z" />
<path fill="#2e6481" opacity="1.00" d=" M 12.02 89.95 C 15.60 88.60 19.21 86.99 23.12 86.98 C 22.81 90.72 18.78 90.55 15.81 90.78 C 14.16 91.07 12.55 91.54 10.94 91.99 C 11.21 91.48 11.75 90.46 12.02 89.95 Z" />
<path fill="#5d8596" opacity="1.00" d=" M 53.83 87.04 C 56.84 87.69 59.72 88.82 62.76 89.34 C 64.92 89.77 67.08 90.22 69.23 90.71 C 67.41 90.89 65.59 91.09 63.77 91.26 C 61.92 90.87 60.12 90.29 58.29 89.85 C 56.63 89.19 54.88 88.58 53.83 87.04 Z" />
<path fill="#193b78" opacity="1.00" d=" M 62.76 89.34 C 65.32 84.49 70.93 90.76 74.43 87.04 C 75.30 87.75 76.16 88.46 77.05 89.15 C 77.25 91.00 75.64 91.16 74.23 91.33 C 72.56 91.14 70.90 90.93 69.23 90.71 C 67.08 90.22 64.92 89.77 62.76 89.34 Z" />
<path fill="#3c7d7b" opacity="1.00" d=" M 111.09 87.84 C 113.46 87.37 115.84 86.96 118.24 86.62 C 119.63 87.19 120.93 87.94 122.17 88.78 C 118.02 89.36 113.88 89.90 109.71 90.30 C 110.68 91.21 111.80 91.93 113.12 92.25 C 112.77 92.52 112.08 93.06 111.74 93.34 C 109.44 93.01 107.20 92.39 105.01 91.64 C 105.37 90.78 105.75 89.92 106.15 89.08 C 107.82 88.75 109.45 88.29 111.09 87.84 Z" />
<path fill="#0a284f" opacity="1.00" d=" M 79.77 88.19 C 85.34 89.60 91.16 89.67 96.87 90.02 L 97.21 90.83 C 92.73 90.95 88.24 90.84 83.77 91.10 C 85.04 92.12 86.75 92.26 88.23 92.84 C 86.68 92.70 84.90 93.30 83.53 92.40 C 81.68 90.89 77.74 91.36 79.77 88.19 Z" />
<path fill="#101726" opacity="1.00" d=" M 43.99 89.66 C 45.84 88.12 47.85 88.09 50.02 89.59 C 49.07 90.04 48.12 90.47 47.16 90.90 C 46.11 90.46 45.06 90.05 43.99 89.66 Z" />
<path fill="#0b2333" opacity="1.00" d=" M 100.08 88.95 C 100.61 88.93 101.66 88.89 102.18 88.88 C 103.50 88.95 104.83 89.01 106.15 89.08 C 105.75 89.92 105.37 90.78 105.01 91.64 C 103.56 90.49 101.89 89.85 100.01 89.91 L 100.08 88.95 Z" />
<path fill="#569c82" opacity="1.00" d=" M 10.04 90.56 C 10.54 90.41 11.52 90.10 12.02 89.95 C 11.75 90.46 11.21 91.48 10.94 91.99 C 8.69 93.24 6.09 94.06 4.20 95.86 C 3.86 96.23 3.19 96.97 2.85 97.34 C 1.67 95.68 2.85 93.75 3.59 92.18 C 4.39 92.44 5.17 92.40 5.94 92.08 C 7.35 91.69 8.70 91.12 10.04 90.56 Z" />
<path fill="#619a84" opacity="1.00" d=" M 47.16 90.90 C 48.12 90.47 49.07 90.04 50.02 89.59 C 50.72 90.30 51.40 91.03 52.08 91.76 C 49.57 92.66 47.17 93.82 44.78 95.01 C 41.64 97.71 47.69 97.74 50.06 96.88 C 55.07 97.08 60.07 96.92 65.08 97.02 L 64.91 97.94 C 56.26 98.09 47.59 97.78 38.99 98.94 C 37.99 94.23 44.17 93.23 47.16 90.90 Z" />
<path fill="#060c0e" opacity="0.96" d=" M 10.94 91.99 C 12.55 91.54 14.16 91.07 15.81 90.78 C 16.39 90.96 17.55 91.32 18.13 91.50 C 15.27 93.95 8.49 93.88 8.17 98.17 L 8.13 98.98 C 6.71 98.07 5.59 96.79 4.20 95.86 C 6.09 94.06 8.69 93.24 10.94 91.99 Z" />
<path fill="#265470" opacity="1.00" d=" M 18.13 91.50 C 19.45 91.39 20.79 91.37 22.12 91.47 C 18.65 92.96 15.01 94.13 11.91 96.34 C 10.77 97.15 9.52 97.79 8.17 98.17 C 8.49 93.88 15.27 93.95 18.13 91.50 Z" />
<path fill="#18272d" opacity="1.00" d=" M 63.77 91.26 C 65.59 91.09 67.41 90.89 69.23 90.71 C 70.90 90.93 72.56 91.14 74.23 91.33 C 70.73 92.18 67.25 92.16 63.77 91.26 Z" />
<path fill="#165085" opacity="1.00" d=" M 83.77 91.10 C 88.24 90.84 92.73 90.95 97.21 90.83 C 99.33 91.61 101.42 92.54 103.22 93.92 C 98.21 93.77 93.25 92.90 88.23 92.84 C 86.75 92.26 85.04 92.12 83.77 91.10 Z" />
<path fill="#173d4a" opacity="1.00" d=" M 113.12 92.25 C 115.03 92.90 118.08 92.19 119.12 94.08 C 116.65 93.97 114.18 93.72 111.74 93.34 C 112.08 93.06 112.77 92.52 113.12 92.25 Z" />
<path fill="#000000" opacity="0.67" d=" M 21.79 93.79 C 27.08 91.43 33.52 93.73 39.13 93.07 L 38.98 94.00 C 33.25 94.03 27.52 93.93 21.79 93.79 Z" />
<path fill="#000000" opacity="0.35" d=" M 51.67 94.77 C 54.24 92.65 57.54 92.77 60.73 93.21 C 62.11 93.62 63.52 93.92 64.94 94.17 L 65.03 95.02 C 60.57 95.05 56.12 94.94 51.67 94.77 Z" />
<path fill="#000000" opacity="0.51" d=" M 60.73 93.21 C 64.58 92.92 68.43 93.07 72.28 93.28 C 69.84 93.68 67.40 93.97 64.94 94.17 C 63.52 93.92 62.11 93.62 60.73 93.21 Z" />
<path fill="#22321c" opacity="1.00" d=" M 50.06 96.88 C 47.69 97.74 41.64 97.71 44.78 95.01 C 46.10 95.47 48.74 96.41 50.06 96.88 Z" />
<path fill="#2c4c52" opacity="1.00" d=" M 8.17 98.17 C 9.52 97.79 10.77 97.15 11.91 96.34 C 14.29 97.36 19.31 97.32 18.91 100.81 C 17.08 101.69 15.08 102.07 13.07 102.18 C 13.81 101.18 14.63 100.22 15.26 99.14 C 13.74 99.18 10.68 99.27 9.15 99.32 L 8.13 98.98 L 8.17 98.17 Z" />
<path fill="#000000" opacity="0.30" d=" M 90.76 96.24 C 95.59 95.97 100.43 96.09 105.27 96.23 C 100.63 97.99 95.51 96.78 90.76 96.24 Z" />
<path fill="#000000" opacity="0.35" d=" M 112.77 96.19 C 117.93 95.89 123.10 96.13 128.27 96.24 C 123.17 97.45 117.87 97.14 112.77 96.19 Z" />
<path fill="#819d83" opacity="1.00" d=" M 74.89 97.94 C 79.38 97.87 83.93 98.33 88.05 100.23 C 87.17 101.35 86.11 102.33 85.02 103.25 C 84.79 102.99 84.32 102.49 84.09 102.24 C 84.28 101.95 84.66 101.39 84.85 101.11 C 81.84 99.33 77.16 100.20 74.89 97.94 Z" />
<path fill="#000000" opacity="0.22" d=" M 40.75 102.24 C 43.59 102.25 46.44 102.29 49.28 102.36 C 46.53 103.29 43.51 103.20 40.75 102.24 Z" />
<path fill="#14343d" opacity="1.00" d=" M 80.95 105.79 C 80.94 103.96 82.40 102.63 84.09 102.24 C 84.32 102.49 84.79 102.99 85.02 103.25 C 83.95 104.18 82.78 104.98 81.66 105.86 L 80.95 105.79 Z" />
<path fill="#000000" opacity="0.29" d=" M 5.06 104.03 C 6.81 104.06 10.32 104.13 12.07 104.16 C 10.70 105.80 4.89 106.96 5.06 104.03 Z" />
<path fill="#000000" opacity="0.63" d=" M 75.07 106.20 C 77.03 106.01 78.99 105.92 80.95 105.79 L 81.66 105.86 C 82.57 105.97 84.38 106.20 85.29 106.32 L 84.61 107.00 L 74.43 107.00 L 75.07 106.20 Z" />
</svg>
