<?xml version="1.0" encoding="UTF-8" ?>
<!DOCTYPE svg PUBLIC "-//W3C//DTD SVG 1.1//EN" "http://www.w3.org/Graphics/SVG/1.1/DTD/svg11.dtd">
<svg width="202pt" height="180pt" viewBox="0 0 202 180" version="1.1" xmlns="http://www.w3.org/2000/svg">
<path fill="#000000" opacity="1.00" d=" M 164.80 11.80 C 176.69 6.60 189.12 2.69 201.85 0.21 C 201.06 5.43 197.44 9.73 197.29 15.09 C 195.29 31.45 183.99 44.86 170.85 53.97 C 170.09 59.96 169.61 66.06 167.78 71.84 C 166.09 77.11 161.04 80.15 156.26 82.24 C 158.27 87.40 155.77 92.78 153.34 97.32 C 148.83 104.25 141.84 109.24 134.24 112.30 C 131.40 113.39 129.47 118.40 126.05 116.03 C 119.11 112.01 112.86 106.76 107.87 100.47 C 107.88 103.63 107.47 106.81 105.69 109.50 C 103.78 114.81 105.50 122.46 99.31 125.35 C 98.62 127.54 97.60 129.61 96.03 131.30 C 96.20 135.24 91.70 136.54 91.23 140.21 C 88.97 148.67 85.75 156.82 82.91 165.09 C 82.12 167.09 81.63 169.58 79.37 170.44 C 80.62 162.67 83.90 155.39 85.43 147.66 C 87.99 144.99 88.35 141.16 90.00 138.00 C 91.39 135.60 95.04 133.68 92.79 130.58 C 93.12 130.36 93.78 129.91 94.11 129.69 C 95.57 129.17 96.06 125.55 93.84 126.41 C 93.32 126.46 92.29 126.55 91.77 126.60 C 92.61 126.06 93.42 125.50 94.23 124.93 C 96.22 123.51 98.18 122.04 100.07 120.49 C 102.85 117.98 102.95 113.89 102.25 110.47 L 100.90 110.64 C 100.65 112.75 100.63 114.88 100.48 117.00 C 100.45 115.74 100.36 114.49 100.29 113.24 C 99.02 113.30 97.76 113.35 96.51 113.45 C 97.31 112.97 98.11 112.47 98.90 111.96 C 100.03 111.17 101.14 110.33 102.20 109.44 C 105.64 105.85 106.00 99.05 102.76 95.21 C 103.28 94.04 103.82 92.87 104.35 91.70 C 105.21 92.76 106.08 93.82 106.93 94.88 C 107.30 95.36 108.05 96.33 108.43 96.81 C 109.48 98.14 110.54 99.46 111.71 100.69 C 114.59 103.69 117.71 106.47 121.16 108.78 C 123.76 110.45 127.27 111.87 130.20 110.14 C 136.49 106.55 143.58 104.00 148.74 98.74 C 151.53 95.42 153.42 91.22 153.88 86.90 C 154.27 85.17 152.36 84.57 151.24 83.85 C 147.21 81.76 143.10 79.79 138.81 78.31 C 138.33 78.10 137.36 77.67 136.88 77.45 C 135.36 76.79 133.82 76.20 132.27 75.62 C 124.36 72.75 116.36 70.09 108.28 67.71 C 108.09 68.96 107.90 70.21 107.63 71.45 C 107.31 71.91 106.66 72.82 106.34 73.28 C 106.19 73.52 105.88 74.02 105.73 74.27 L 105.46 73.49 C 105.20 72.67 104.93 71.87 104.64 71.07 C 104.18 70.46 103.27 69.25 102.82 68.65 C 100.07 70.78 97.52 73.20 95.77 76.24 C 92.08 81.53 84.74 81.13 80.05 85.15 C 78.68 85.22 77.31 85.28 75.95 85.35 C 74.94 86.71 73.91 88.06 72.81 89.34 C 73.58 87.04 74.31 84.73 75.26 82.49 L 75.90 84.68 C 77.91 84.36 79.92 83.89 81.70 82.87 C 86.69 80.05 93.56 79.83 96.39 74.06 C 98.14 71.86 99.96 69.71 101.78 67.56 C 101.47 67.11 100.86 66.21 100.56 65.76 C 99.18 63.74 97.87 61.68 96.37 59.75 C 94.93 57.93 92.56 59.45 90.69 59.56 C 89.74 59.86 88.80 60.20 87.87 60.59 C 88.94 59.87 90.01 59.17 91.09 58.48 C 89.75 57.91 88.41 57.34 87.08 56.75 C 86.48 57.48 85.89 58.21 85.29 58.94 L 85.34 58.17 C 85.47 56.48 85.51 54.79 85.46 53.10 C 84.91 53.60 83.81 54.60 83.26 55.10 C 83.37 54.37 83.58 52.93 83.68 52.20 C 78.88 52.42 76.67 57.37 75.15 61.23 L 74.98 61.61 C 75.36 57.38 78.08 53.49 81.84 51.58 C 83.08 51.83 84.31 52.13 85.53 52.46 C 85.97 53.42 86.42 54.37 86.87 55.32 L 87.27 56.09 C 88.96 55.17 88.02 52.96 87.03 51.87 C 85.63 48.84 82.63 47.23 79.72 45.94 C 79.42 47.35 79.14 48.77 78.81 50.18 C 78.78 48.59 78.77 47.01 78.78 45.43 C 76.19 45.28 73.59 45.17 71.00 45.35 C 68.41 46.25 66.23 47.92 64.17 49.67 C 64.27 51.09 64.17 52.68 65.33 53.74 C 65.55 54.02 65.99 54.58 66.21 54.86 L 64.98 54.28 C 64.64 53.89 63.95 53.10 63.61 52.70 C 62.47 54.10 62.17 56.08 62.71 57.79 L 63.02 58.80 C 64.11 59.56 65.22 60.31 66.35 61.02 C 65.82 61.10 64.76 61.26 64.23 61.33 C 63.68 61.07 62.58 60.56 62.03 60.30 C 60.82 59.71 59.63 59.08 58.47 58.41 C 59.29 58.44 60.92 58.51 61.74 58.55 C 61.89 56.52 62.18 54.51 62.62 52.53 C 63.48 50.74 64.15 48.87 64.80 46.99 C 63.25 47.58 61.93 48.56 60.76 49.71 C 60.27 51.92 59.14 53.90 57.69 55.62 C 52.87 61.16 56.16 68.93 59.89 74.10 C 60.20 74.42 60.82 75.06 61.13 75.38 C 60.54 75.53 59.34 75.81 58.74 75.96 C 58.94 77.75 59.11 79.55 59.56 81.30 C 60.61 84.05 62.07 86.84 64.83 88.22 C 69.01 91.16 74.44 95.33 79.73 92.97 C 79.68 93.58 79.57 94.81 79.52 95.42 C 77.53 94.92 75.55 94.39 73.55 93.92 C 70.82 93.33 70.29 97.07 70.78 99.02 C 70.67 101.47 72.40 103.22 73.93 104.88 C 73.11 105.63 72.29 106.39 71.48 107.14 C 72.76 109.94 74.69 112.36 77.08 114.29 C 78.26 115.35 79.46 116.39 80.69 117.38 L 81.67 117.52 C 86.75 117.98 91.60 116.24 96.12 114.12 L 96.28 114.89 C 93.60 115.92 90.97 117.10 88.44 118.46 C 85.32 118.65 82.18 118.57 79.15 117.75 C 79.31 120.74 81.31 123.03 82.97 125.35 C 83.28 125.17 83.90 124.82 84.21 124.64 C 84.43 124.82 84.87 125.18 85.09 125.36 L 85.28 125.86 C 85.35 127.13 86.08 129.70 83.19 128.22 C 83.97 129.55 84.75 130.90 85.54 132.23 C 85.86 137.72 83.71 142.87 82.52 148.14 C 81.09 154.34 80.12 160.64 78.93 166.89 C 78.54 168.77 78.72 170.69 79.04 172.57 C 78.48 175.13 76.19 177.38 76.46 180.00 L 75.72 180.00 C 76.54 165.30 80.09 150.97 83.85 136.80 C 85.24 133.13 80.45 130.29 82.31 126.68 C 80.16 124.21 77.71 121.70 77.46 118.25 C 74.21 114.61 68.34 110.31 71.01 104.82 C 70.71 104.35 70.09 103.42 69.78 102.95 C 65.78 105.78 62.00 109.59 56.99 110.43 C 53.70 110.61 53.48 106.01 50.57 105.24 C 44.25 103.07 38.45 97.93 37.58 91.04 C 38.81 86.24 41.79 82.16 44.88 78.39 C 41.53 76.86 38.44 73.78 34.50 74.42 C 33.28 72.04 31.81 69.80 30.42 67.51 C 28.81 65.08 30.54 61.09 27.39 59.70 C 17.88 53.60 9.54 44.92 6.01 33.98 C 4.61 29.10 1.86 24.78 0.00 20.09 L 0.00 19.26 C 7.05 19.67 14.09 20.61 20.91 22.48 C 28.30 24.31 35.08 27.87 42.07 30.79 C 43.87 28.54 45.83 26.42 47.93 24.45 C 49.71 26.25 51.54 28.01 53.08 30.01 C 55.13 32.66 56.02 35.98 57.92 38.72 C 57.73 39.29 57.34 40.43 57.15 40.99 C 58.45 41.91 59.79 42.78 61.27 43.39 C 61.59 43.52 62.22 43.80 62.54 43.94 C 65.37 41.92 68.58 40.44 72.07 40.09 C 75.49 39.73 78.36 37.68 81.57 36.64 C 82.84 36.65 84.12 36.68 85.40 36.72 C 85.48 33.76 85.51 30.80 85.70 27.85 C 86.64 25.85 87.57 23.85 88.54 21.87 C 95.47 26.40 101.15 32.68 105.26 39.83 C 123.96 28.25 144.05 19.05 164.80 11.80 M 174.27 10.37 C 165.33 13.41 156.72 17.30 148.15 21.24 C 134.79 26.94 121.33 32.84 109.51 41.39 L 109.06 41.40 C 107.79 42.43 106.16 43.41 106.19 45.27 L 106.22 45.97 L 107.09 46.21 C 107.33 45.87 107.82 45.20 108.07 44.87 C 108.21 44.82 108.51 44.71 108.66 44.66 C 112.75 43.00 116.03 39.87 120.14 38.24 C 122.94 36.87 126.20 36.70 128.84 34.96 C 133.09 32.43 137.66 30.39 141.57 27.31 C 144.31 26.30 146.72 24.57 149.40 23.41 C 156.49 20.01 164.29 18.60 171.92 16.99 C 173.44 16.56 174.42 15.22 175.56 14.22 C 178.44 12.17 181.72 10.78 184.55 8.68 C 188.62 7.44 192.69 6.24 196.91 5.59 C 198.21 5.69 198.30 4.42 198.63 3.52 C 190.16 4.35 182.23 7.59 174.27 10.37 M 177.29 14.41 L 177.01 14.39 C 176.05 15.29 175.12 16.23 174.08 17.06 C 171.45 18.83 167.84 17.88 165.19 19.51 C 161.13 20.48 156.89 21.18 153.19 23.16 C 151.90 23.37 150.62 23.68 149.53 24.42 C 141.94 28.85 134.15 32.93 126.62 37.45 C 119.08 38.42 113.50 43.90 106.95 47.21 C 106.97 47.72 107.01 48.74 107.03 49.26 C 107.46 51.02 107.71 52.81 108.00 54.60 L 108.40 54.60 C 108.01 55.17 107.52 55.60 106.92 55.91 C 106.93 54.19 107.50 50.02 104.85 50.33 C 104.47 49.91 103.70 49.09 103.32 48.67 C 101.26 48.93 103.44 52.98 105.14 52.97 L 105.40 53.79 L 103.85 52.95 C 104.00 53.82 104.30 55.56 104.45 56.43 L 105.44 57.30 C 105.09 57.44 104.39 57.71 104.04 57.85 C 104.06 57.35 104.10 56.35 104.12 55.85 L 103.79 56.58 C 103.65 55.58 103.39 53.59 103.25 52.60 C 101.95 53.92 100.90 55.46 99.94 57.04 C 99.64 57.26 99.06 57.71 98.76 57.94 C 99.91 55.89 101.28 53.97 102.53 51.98 C 102.38 50.40 101.96 48.89 101.27 47.43 C 98.95 49.67 97.69 52.72 95.46 55.03 C 96.06 56.66 96.79 58.24 97.76 59.69 L 98.13 59.03 C 98.19 60.82 99.81 62.04 100.62 63.52 C 102.26 66.14 104.11 68.63 106.19 70.92 L 106.18 71.22 L 106.97 71.25 C 107.39 67.38 108.73 63.42 107.48 59.57 L 107.08 58.82 C 107.60 58.24 108.13 57.67 108.67 57.10 C 108.77 57.62 108.98 58.66 109.09 59.19 L 108.91 60.10 L 109.14 60.96 C 108.75 62.80 109.02 64.72 109.06 66.59 C 114.09 67.76 118.96 69.48 123.86 71.11 C 126.33 72.08 128.82 73.02 131.31 73.94 C 133.07 74.64 134.84 75.35 136.59 76.08 C 138.07 76.55 139.49 77.68 141.12 77.36 L 141.03 77.71 C 142.34 78.70 144.35 79.85 145.99 79.23 L 146.86 79.51 L 145.75 79.76 C 146.39 80.06 147.65 80.67 148.29 80.98 C 153.17 79.54 157.29 76.19 161.55 73.48 C 167.36 69.79 167.23 61.95 166.51 55.92 C 169.01 49.98 175.02 46.81 179.32 42.34 C 188.63 32.75 193.19 19.82 196.55 7.15 C 189.49 7.28 183.09 10.68 177.29 14.41 M 4.01 24.54 C 4.71 26.35 8.69 25.49 9.58 24.27 C 11.95 24.56 14.33 24.70 16.71 24.81 C 19.74 26.10 22.86 27.40 26.10 28.07 L 26.12 28.93 C 26.55 29.01 27.42 29.18 27.85 29.26 L 28.22 30.06 C 28.64 29.94 29.48 29.70 29.90 29.58 L 30.48 30.71 C 33.88 32.64 37.48 34.29 41.10 35.80 C 41.54 35.53 42.43 35.01 42.87 34.74 L 42.14 33.26 C 33.66 28.68 24.45 25.24 14.99 23.29 C 12.37 22.80 9.72 22.49 7.06 22.28 C 5.61 22.28 0.86 21.42 4.01 24.54 M 88.92 35.48 C 88.96 36.40 89.03 38.22 89.06 39.14 C 91.34 37.29 91.95 34.22 93.93 32.10 C 94.99 32.42 96.06 32.73 97.13 33.02 C 95.86 30.92 93.99 29.31 91.87 28.10 C 91.18 26.84 90.21 25.76 89.35 24.62 C 87.91 27.99 88.32 31.95 88.92 35.48 M 6.13 26.18 C 10.21 39.00 18.31 51.41 30.56 57.69 C 31.93 61.03 29.96 65.61 32.94 68.11 C 33.72 64.87 32.97 61.33 33.58 57.99 C 33.68 57.49 33.87 56.48 33.97 55.97 L 35.63 55.42 C 35.08 60.66 34.49 65.91 34.55 71.19 C 35.26 70.30 35.99 69.40 36.49 68.36 L 37.25 70.40 L 36.66 71.15 C 40.59 73.51 44.79 75.91 49.50 76.06 L 49.07 74.81 C 51.50 72.93 53.44 70.49 55.50 68.22 C 54.46 65.90 54.17 63.36 53.97 60.85 C 54.06 60.43 54.22 59.59 54.30 59.17 C 54.56 58.69 55.06 57.72 55.31 57.24 C 55.56 56.69 56.04 55.61 56.28 55.06 L 56.91 55.22 L 57.69 53.89 L 58.15 54.09 C 58.82 52.70 59.30 51.23 59.58 49.71 L 60.24 50.07 C 59.69 46.94 56.14 45.95 53.91 44.23 C 53.87 44.67 53.80 45.56 53.76 46.00 L 53.00 47.59 C 52.86 46.95 52.59 45.67 52.45 45.03 C 53.16 43.52 53.90 41.89 53.24 40.22 C 53.33 40.07 53.51 39.77 53.60 39.62 L 53.51 39.46 C 53.34 35.22 51.06 31.35 48.53 28.06 C 46.97 29.05 46.24 30.97 45.47 32.57 C 41.75 34.46 46.79 36.66 46.69 39.18 C 45.75 37.70 44.68 36.28 43.27 35.22 C 42.59 36.68 41.87 38.13 41.12 39.56 C 40.90 39.15 40.47 38.34 40.25 37.93 L 40.82 37.03 C 37.71 35.01 34.15 33.85 30.82 32.26 C 23.92 29.27 17.11 24.61 9.21 25.67 C 8.19 25.83 7.16 26.01 6.13 26.18 M 90.53 44.09 C 92.91 42.48 93.83 37.90 97.33 38.75 C 95.76 37.21 95.19 35.09 94.59 33.06 C 91.42 35.37 89.32 40.13 90.53 44.09 M 95.43 35.31 C 96.57 36.73 98.14 37.61 99.77 38.36 L 99.79 38.75 C 96.07 37.99 99.73 43.23 101.88 42.10 L 103.75 43.39 C 102.70 41.06 102.26 37.87 99.69 36.61 C 99.32 35.17 97.75 34.37 96.99 33.18 C 96.46 33.89 95.94 34.59 95.43 35.31 M 81.63 39.46 C 81.06 41.59 79.85 43.72 80.48 45.98 L 81.50 45.46 C 83.84 46.61 86.46 47.70 87.77 50.12 C 89.24 52.18 89.12 54.78 89.35 57.18 C 91.19 57.31 93.03 57.44 94.88 57.57 C 93.79 55.24 92.78 52.87 92.00 50.41 L 91.72 50.42 C 90.62 47.55 89.47 44.69 88.18 41.89 C 88.07 41.21 87.85 39.86 87.74 39.19 C 85.70 39.05 83.63 38.97 81.63 39.46 M 95.16 39.75 L 95.60 40.38 C 94.74 40.94 93.03 42.06 92.18 42.62 L 93.50 43.68 C 92.91 43.73 91.74 43.83 91.16 43.88 C 91.35 45.02 91.72 47.29 91.91 48.43 C 93.88 46.23 96.01 43.54 96.51 40.67 L 97.30 40.48 C 98.41 39.16 95.24 38.12 95.16 39.75 M 69.43 43.04 C 67.28 43.85 65.43 45.29 64.06 47.13 C 66.71 46.92 68.90 45.31 71.41 44.64 C 74.02 44.14 76.70 44.39 79.29 44.90 C 79.79 43.30 80.28 41.70 80.76 40.09 C 80.14 40.37 78.90 40.93 78.28 41.21 C 75.31 41.55 71.99 41.20 69.43 43.04 M 54.75 41.75 C 54.92 45.18 59.09 46.56 61.69 48.00 C 60.65 44.84 57.33 43.45 54.75 41.75 M 97.19 41.28 C 96.25 44.40 93.53 46.78 93.09 50.06 C 93.45 51.73 94.33 53.22 95.04 54.76 C 96.99 52.28 98.53 49.50 100.57 47.08 C 99.56 45.07 100.19 41.43 97.19 41.28 M 99.60 42.09 C 100.02 43.92 100.71 45.67 101.83 47.19 C 103.48 47.62 104.92 48.45 106.16 49.67 C 105.55 46.02 102.89 43.43 99.60 42.09 M 55.35 70.00 C 50.42 74.93 46.14 80.44 42.04 86.07 C 41.04 87.60 40.05 89.20 39.62 91.01 C 41.17 96.07 45.54 99.59 50.06 101.97 C 52.76 103.16 54.21 105.84 56.25 107.81 C 56.62 107.73 57.36 107.58 57.73 107.50 C 58.93 106.99 60.13 106.48 61.33 105.98 C 62.27 105.28 63.18 104.55 64.06 103.78 C 66.26 101.58 71.19 99.48 69.47 95.71 C 70.49 95.07 70.90 94.18 70.70 93.04 C 69.91 92.14 68.99 91.95 67.94 92.50 C 66.97 90.80 65.60 88.30 63.24 88.80 C 60.41 86.03 58.17 82.09 58.42 78.03 C 58.32 75.63 59.03 72.82 57.01 70.97 L 57.32 70.63 C 56.82 70.47 55.84 70.15 55.35 70.00 Z" />
<path fill="#ffffe3" opacity="1.00" d=" M 174.27 10.37 C 182.23 7.59 190.16 4.35 198.63 3.52 C 198.30 4.42 198.21 5.69 196.91 5.59 C 192.69 6.24 188.62 7.44 184.55 8.68 C 177.51 9.50 171.26 13.18 164.78 15.81 C 155.99 18.61 147.56 22.35 139.52 26.88 C 130.74 31.35 121.66 35.27 113.18 40.32 C 112.07 41.00 110.85 41.57 109.51 41.39 C 121.33 32.84 134.79 26.94 148.15 21.24 C 156.72 17.30 165.33 13.41 174.27 10.37 Z" />
<path fill="#fffffd" opacity="1.00" d=" M 177.29 14.41 C 183.09 10.68 189.49 7.28 196.55 7.15 C 193.19 19.82 188.63 32.75 179.32 42.34 C 175.02 46.81 169.01 49.98 166.51 55.92 C 167.23 61.95 167.36 69.79 161.55 73.48 C 157.29 76.19 153.17 79.54 148.29 80.98 C 147.65 80.67 146.39 80.06 145.75 79.76 L 146.86 79.51 L 147.48 79.36 C 152.92 77.44 158.52 74.72 162.13 70.07 C 165.07 64.84 164.65 58.56 164.97 52.77 C 165.96 51.64 166.93 50.50 167.97 49.41 C 178.12 42.23 186.87 32.40 190.33 20.22 C 191.50 16.57 192.62 12.91 193.61 9.21 C 188.46 10.28 183.81 12.76 178.91 14.54 C 178.50 14.51 177.69 14.44 177.29 14.41 Z" />
<path fill="#f6d472" opacity="1.00" d=" M 164.78 15.81 C 171.26 13.18 177.51 9.50 184.55 8.68 C 181.72 10.78 178.44 12.17 175.56 14.22 C 171.90 14.18 168.28 14.77 164.78 15.81 Z" />
<path fill="#d2b181" opacity="1.00" d=" M 178.91 14.54 C 183.81 12.76 188.46 10.28 193.61 9.21 C 192.62 12.91 191.50 16.57 190.33 20.22 C 189.89 19.73 189.00 18.74 188.56 18.24 C 178.84 24.43 172.43 34.25 167.43 44.37 C 167.02 46.05 167.71 47.76 167.97 49.41 C 166.93 50.50 165.96 51.64 164.97 52.77 C 162.71 53.74 160.11 54.40 158.53 56.44 C 156.00 59.59 153.01 62.48 151.28 66.19 C 150.23 68.70 148.23 70.58 146.31 72.42 C 147.03 72.98 147.76 73.55 148.49 74.11 C 148.06 75.84 147.69 77.59 147.48 79.36 L 146.86 79.51 L 145.99 79.23 C 144.90 77.58 143.03 76.90 141.12 77.36 C 139.49 77.68 138.07 76.55 136.59 76.08 C 137.97 75.24 139.35 74.41 140.74 73.60 C 139.18 72.68 136.15 71.81 137.38 69.38 C 138.29 65.93 142.56 66.47 145.15 65.11 L 144.81 64.25 C 142.14 63.73 139.44 63.40 136.73 63.19 C 138.09 62.33 139.46 61.48 140.82 60.62 C 139.66 59.93 138.49 59.25 137.31 58.59 C 142.15 57.85 147.02 57.26 151.87 56.49 C 153.83 56.24 155.53 55.19 157.03 53.96 C 158.46 53.46 159.86 52.90 161.27 52.35 C 160.65 52.28 159.43 52.14 158.82 52.07 C 159.71 51.63 160.61 51.17 161.50 50.71 C 161.45 49.36 161.41 48.02 161.38 46.68 C 159.92 46.31 158.47 45.93 157.02 45.56 C 158.23 43.55 159.93 41.93 161.88 40.66 C 164.49 38.79 167.42 36.47 167.51 32.95 C 167.98 29.25 164.44 26.32 160.97 26.34 C 158.60 26.12 156.56 27.51 154.59 28.60 C 151.14 28.93 147.86 31.49 144.38 29.94 C 148.17 27.86 151.98 25.79 155.95 24.05 C 159.08 22.65 162.53 21.80 165.19 19.51 C 167.84 17.88 171.45 18.83 174.08 17.06 C 175.12 16.23 176.05 15.29 177.01 14.39 L 177.29 14.41 C 177.69 14.44 178.50 14.51 178.91 14.54 Z" />
<path fill="#d1836d" opacity="1.00" d=" M 164.78 15.81 C 168.28 14.77 171.90 14.18 175.56 14.22 C 174.42 15.22 173.44 16.56 171.92 16.99 C 164.29 18.60 156.49 20.01 149.40 23.41 C 146.72 24.57 144.31 26.30 141.57 27.31 L 139.52 26.88 C 147.56 22.35 155.99 18.61 164.78 15.81 Z" />
<path fill="#dec188" opacity="1.00" d=" M 167.43 44.37 C 172.43 34.25 178.84 24.43 188.56 18.24 C 189.00 18.74 189.89 19.73 190.33 20.22 C 186.87 32.40 178.12 42.23 167.97 49.41 C 167.71 47.76 167.02 46.05 167.43 44.37 Z" />
<path fill="#fffff4" opacity="1.00" d=" M 153.19 23.16 C 156.89 21.18 161.13 20.48 165.19 19.51 C 162.53 21.80 159.08 22.65 155.95 24.05 C 151.98 25.79 148.17 27.86 144.38 29.94 C 139.79 32.27 135.10 34.40 130.50 36.71 C 128.65 37.60 126.78 38.45 124.92 39.32 C 118.67 42.10 112.75 45.53 107.03 49.26 C 107.01 48.74 106.97 47.72 106.95 47.21 C 113.50 43.90 119.08 38.42 126.62 37.45 C 134.15 32.93 141.94 28.85 149.53 24.42 C 150.62 23.68 151.90 23.37 153.19 23.16 Z" />
<path fill="#f6d472" opacity="1.00" d=" M 4.01 24.54 C 0.86 21.42 5.61 22.28 7.06 22.28 C 9.72 22.49 12.37 22.80 14.99 23.29 C 15.42 23.67 16.28 24.43 16.71 24.81 C 14.33 24.70 11.95 24.56 9.58 24.27 C 7.73 24.01 5.79 23.79 4.01 24.54 Z" />
<path fill="#ffffe3" opacity="1.00" d=" M 14.99 23.29 C 24.45 25.24 33.66 28.68 42.14 33.26 L 42.87 34.74 C 38.52 33.09 34.33 31.04 29.90 29.58 C 29.39 29.50 28.36 29.34 27.85 29.26 C 27.41 28.96 26.54 28.37 26.10 28.07 C 22.86 27.40 19.74 26.10 16.71 24.81 C 16.28 24.43 15.42 23.67 14.99 23.29 Z" />
<path fill="#b86a4b" opacity="1.00" d=" M 4.01 24.54 C 5.79 23.79 7.73 24.01 9.58 24.27 C 8.69 25.49 4.71 26.35 4.01 24.54 Z" />
<path fill="#f5c495" opacity="1.00" d=" M 88.92 35.48 C 88.32 31.95 87.91 27.99 89.35 24.62 C 90.21 25.76 91.18 26.84 91.87 28.10 C 91.88 28.56 91.89 29.49 91.90 29.95 C 91.37 29.32 90.32 28.08 89.80 27.45 C 89.69 30.15 89.40 32.83 88.92 35.48 Z" />
<path fill="#dbbd86" opacity="1.00" d=" M 6.13 26.18 C 7.16 26.01 8.19 25.83 9.21 25.67 C 14.88 28.64 21.28 29.77 27.08 32.48 C 26.52 32.78 25.41 33.37 24.86 33.67 C 22.69 32.91 19.76 31.73 18.32 34.33 C 16.47 36.65 18.89 39.04 19.99 41.05 L 19.14 41.35 C 21.05 43.02 22.90 44.78 24.55 46.73 C 23.68 47.47 22.80 48.22 21.93 48.96 C 14.78 42.82 10.80 34.15 6.13 26.18 Z" />
<path fill="#fffff5" opacity="1.00" d=" M 9.21 25.67 C 17.11 24.61 23.92 29.27 30.82 32.26 C 34.15 33.85 37.71 35.01 40.82 37.03 L 40.25 37.93 L 40.02 38.28 C 35.69 36.37 31.45 34.29 27.08 32.48 C 21.28 29.77 14.88 28.64 9.21 25.67 Z" />
<path fill="#fffeec" opacity="1.00" d=" M 154.59 28.60 C 156.56 27.51 158.60 26.12 160.97 26.34 C 164.44 26.32 167.98 29.25 167.51 32.95 C 167.42 36.47 164.49 38.79 161.88 40.66 C 159.72 40.62 157.56 40.56 155.42 40.23 C 151.20 37.61 152.28 32.15 154.59 28.60 Z" />
<path fill="#fffff4" opacity="1.00" d=" M 6.13 26.18 C 10.80 34.15 14.78 42.82 21.93 48.96 C 25.61 52.23 29.57 55.15 33.58 57.99 C 32.97 61.33 33.72 64.87 32.94 68.11 C 29.96 65.61 31.93 61.03 30.56 57.69 C 18.31 51.41 10.21 39.00 6.13 26.18 Z" />
<path fill="#ac4949" opacity="1.00" d=" M 113.18 40.32 C 121.66 35.27 130.74 31.35 139.52 26.88 L 141.57 27.31 C 137.66 30.39 133.09 32.43 128.84 34.96 C 126.20 36.70 122.94 36.87 120.14 38.24 C 116.03 39.87 112.75 43.00 108.66 44.66 C 108.51 44.71 108.21 44.82 108.07 44.87 C 107.60 44.97 106.66 45.17 106.19 45.27 C 106.16 43.41 107.79 42.43 109.06 41.40 L 109.51 41.39 C 110.85 41.57 112.07 41.00 113.18 40.32 Z" />
<path fill="#d1836d" opacity="1.00" d=" M 26.10 28.07 C 26.54 28.37 27.41 28.96 27.85 29.26 C 27.42 29.18 26.55 29.01 26.12 28.93 L 26.10 28.07 Z" />
<path fill="#fefce9" opacity="1.00" d=" M 45.47 32.57 C 46.24 30.97 46.97 29.05 48.53 28.06 C 51.06 31.35 53.34 35.22 53.51 39.46 C 52.45 37.75 51.46 35.98 50.36 34.30 C 49.50 33.13 48.58 32.02 47.68 30.89 C 46.85 31.88 46.01 32.86 45.15 33.82 L 45.47 32.57 Z" />
<path fill="#000000" opacity="0.11" d=" M 81.57 36.64 C 82.20 33.39 83.88 30.55 85.70 27.85 C 85.51 30.80 85.48 33.76 85.40 36.72 C 84.12 36.68 82.84 36.65 81.57 36.64 Z" />
<path fill="#ac4949" opacity="1.00" d=" M 89.80 27.45 C 90.32 28.08 91.37 29.32 91.90 29.95 C 91.89 29.49 91.88 28.56 91.87 28.10 C 93.99 29.31 95.86 30.92 97.13 33.02 C 96.06 32.73 94.99 32.42 93.93 32.10 C 91.95 34.22 91.34 37.29 89.06 39.14 C 89.03 38.22 88.96 36.40 88.92 35.48 C 89.40 32.83 89.69 30.15 89.80 27.45 Z" />
<path fill="#c49b72" opacity="1.00" d=" M 144.38 29.94 C 147.86 31.49 151.14 28.93 154.59 28.60 C 152.28 32.15 151.20 37.61 155.42 40.23 C 149.86 40.85 144.68 43.13 139.25 44.33 C 136.38 45.21 133.76 43.28 131.19 42.32 C 132.78 41.31 134.38 40.31 136.01 39.35 C 134.05 38.75 132.17 37.92 130.50 36.71 C 135.10 34.40 139.79 32.27 144.38 29.94 Z" />
<path fill="#96383e" opacity="1.00" d=" M 27.85 29.26 C 28.36 29.34 29.39 29.50 29.90 29.58 C 29.48 29.70 28.64 29.94 28.22 30.06 L 27.85 29.26 Z" />
<path fill="#ac4949" opacity="1.00" d=" M 29.90 29.58 C 34.33 31.04 38.52 33.09 42.87 34.74 C 42.43 35.01 41.54 35.53 41.10 35.80 C 37.48 34.29 33.88 32.64 30.48 30.71 L 29.90 29.58 Z" />
<path fill="#ac4949" opacity="1.00" d=" M 45.15 33.82 C 46.01 32.86 46.85 31.88 47.68 30.89 C 48.58 32.02 49.50 33.13 50.36 34.30 C 50.32 36.38 50.24 38.47 50.10 40.56 C 48.96 40.10 47.83 39.64 46.69 39.18 C 46.79 36.66 41.75 34.46 45.47 32.57 L 45.15 33.82 Z" />
<path fill="#fffeec" opacity="1.00" d=" M 18.32 34.33 C 19.76 31.73 22.69 32.91 24.86 33.67 C 25.01 35.56 25.12 37.45 25.19 39.34 C 23.46 39.92 21.72 40.48 19.99 41.05 C 18.89 39.04 16.47 36.65 18.32 34.33 Z" />
<path fill="#c69d72" opacity="1.00" d=" M 24.86 33.67 C 25.41 33.37 26.52 32.78 27.08 32.48 C 31.45 34.29 35.69 36.37 40.02 38.28 C 37.89 41.45 36.55 45.04 35.35 48.65 C 34.34 48.31 33.33 47.97 32.32 47.63 C 30.63 46.82 28.92 45.97 27.49 44.73 C 27.46 42.93 27.75 41.14 27.95 39.35 C 27.03 39.35 26.11 39.35 25.19 39.34 C 25.12 37.45 25.01 35.56 24.86 33.67 Z" />
<path fill="#f6f3de" opacity="1.00" d=" M 90.53 44.09 C 89.32 40.13 91.42 35.37 94.59 33.06 C 95.19 35.09 95.76 37.21 97.33 38.75 C 93.83 37.90 92.91 42.48 90.53 44.09 Z" />
<path fill="#fffffb" opacity="1.00" d=" M 95.43 35.31 C 95.94 34.59 96.46 33.89 96.99 33.18 C 97.75 34.37 99.32 35.17 99.69 36.61 L 99.77 38.36 C 98.14 37.61 96.57 36.73 95.43 35.31 Z" />
<path fill="#733531" opacity="1.00" d=" M 50.36 34.30 C 51.46 35.98 52.45 37.75 53.51 39.46 L 53.60 39.62 C 53.51 39.77 53.33 40.07 53.24 40.22 C 52.46 41.48 51.76 42.80 51.19 44.17 C 50.89 43.93 50.28 43.46 49.98 43.22 L 49.56 43.85 L 49.51 43.93 C 48.60 42.33 47.67 40.74 46.69 39.18 C 47.83 39.64 48.96 40.10 50.10 40.56 C 50.24 38.47 50.32 36.38 50.36 34.30 Z" />
<path fill="#fffeec" opacity="1.00" d=" M 43.27 35.22 C 44.68 36.28 45.75 37.70 46.69 39.18 C 47.67 40.74 48.60 42.33 49.51 43.93 C 48.62 45.39 47.76 46.87 46.90 48.35 C 45.03 45.38 42.85 42.61 41.12 39.56 C 41.87 38.13 42.59 36.68 43.27 35.22 Z" />
<path fill="#5c3462" opacity="1.00" d=" M 99.69 36.61 C 102.26 37.87 102.70 41.06 103.75 43.39 L 101.88 42.10 C 101.17 40.99 100.49 39.86 99.79 38.75 L 99.77 38.36 L 99.69 36.61 Z" />
<path fill="#b27a58" opacity="1.00" d=" M 124.92 39.32 C 126.78 38.45 128.65 37.60 130.50 36.71 C 132.17 37.92 134.05 38.75 136.01 39.35 C 134.38 40.31 132.78 41.31 131.19 42.32 C 133.76 43.28 136.38 45.21 139.25 44.33 C 144.68 43.13 149.86 40.85 155.42 40.23 C 151.40 44.13 145.09 43.31 140.53 46.38 C 137.20 47.04 133.86 47.68 130.55 48.38 C 127.46 46.72 123.85 46.92 120.49 46.36 C 122.33 44.87 124.20 43.40 126.08 41.95 C 125.79 41.29 125.21 39.98 124.92 39.32 Z" />
<path fill="#422e59" opacity="1.00" d=" M 40.02 38.28 L 40.25 37.93 C 40.47 38.34 40.90 39.15 41.12 39.56 C 42.85 42.61 45.03 45.38 46.90 48.35 C 47.61 49.44 48.32 50.53 49.05 51.61 C 49.72 50.44 50.40 49.26 51.00 48.05 C 51.50 47.05 51.99 46.04 52.45 45.03 C 52.59 45.67 52.86 46.95 53.00 47.59 C 52.52 48.80 52.04 50.01 51.51 51.20 C 50.97 51.93 50.40 52.64 49.84 53.37 C 48.59 54.98 47.41 56.65 46.18 58.29 C 45.82 58.74 45.46 59.19 45.09 59.63 C 43.40 61.59 41.82 63.64 40.49 65.86 C 39.50 67.43 38.43 68.96 37.25 70.40 L 36.49 68.36 C 36.45 68.06 36.39 67.44 36.36 67.13 C 37.30 66.47 38.23 65.80 39.16 65.13 C 38.20 63.62 37.20 62.13 36.28 60.59 L 36.18 59.66 C 37.41 61.14 38.64 62.61 39.88 64.08 C 40.54 63.10 41.21 62.11 41.88 61.13 C 40.40 59.17 38.87 57.26 37.32 55.35 C 37.06 55.02 36.55 54.35 36.29 54.02 C 36.13 54.37 35.80 55.07 35.63 55.42 L 33.97 55.97 C 34.12 54.64 34.25 53.30 34.36 51.97 C 34.65 50.85 34.98 49.74 35.35 48.65 C 36.55 45.04 37.89 41.45 40.02 38.28 M 38.26 47.84 C 39.97 50.05 41.87 52.11 43.65 54.27 C 44.05 55.29 44.81 55.94 45.94 56.21 C 46.32 53.88 47.55 51.18 46.12 48.97 C 44.44 46.19 42.56 43.55 40.87 40.79 C 39.67 42.97 38.10 45.25 38.26 47.84 M 36.39 52.98 C 37.76 54.91 39.38 56.64 40.91 58.44 C 41.26 58.98 41.96 60.05 42.31 60.59 C 43.90 59.15 45.59 56.80 42.85 55.44 L 43.00 55.20 C 41.25 52.81 39.47 50.44 37.60 48.13 C 36.93 49.69 36.52 51.31 36.39 52.98 Z" />
<path fill="#ceab7e" opacity="1.00" d=" M 19.99 41.05 C 21.72 40.48 23.46 39.92 25.19 39.34 C 26.11 39.35 27.03 39.35 27.95 39.35 C 27.75 41.14 27.46 42.93 27.49 44.73 C 28.92 45.97 30.63 46.82 32.32 47.63 C 32.02 47.89 31.44 48.42 31.14 48.68 C 32.22 49.14 33.30 49.61 34.37 50.09 C 34.37 50.56 34.36 51.50 34.36 51.97 C 34.25 53.30 34.12 54.64 33.97 55.97 C 33.87 56.48 33.68 57.49 33.58 57.99 C 29.57 55.15 25.61 52.23 21.93 48.96 C 22.80 48.22 23.68 47.47 24.55 46.73 C 22.90 44.78 21.05 43.02 19.14 41.35 L 19.99 41.05 Z" />
<path fill="#000000" opacity="0.49" d=" M 57.92 38.72 C 59.18 40.17 60.36 41.69 61.27 43.39 C 59.79 42.78 58.45 41.91 57.15 40.99 C 57.34 40.43 57.73 39.29 57.92 38.72 Z" />
<path fill="#b99775" opacity="1.00" d=" M 81.63 39.46 C 83.63 38.97 85.70 39.05 87.74 39.19 C 87.85 39.86 88.07 41.21 88.18 41.89 C 86.19 40.62 83.87 40.10 81.63 39.46 Z" />
<path fill="#ffe8c0" opacity="1.00" d=" M 95.16 39.75 C 95.24 38.12 98.41 39.16 97.30 40.48 L 96.51 40.67 L 95.60 40.38 L 95.16 39.75 Z" />
<path fill="#b95c5c" opacity="1.00" d=" M 101.88 42.10 C 99.73 43.23 96.07 37.99 99.79 38.75 C 100.49 39.86 101.17 40.99 101.88 42.10 Z" />
<path fill="#f7f2da" opacity="1.00" d=" M 81.63 39.46 C 83.87 40.10 86.19 40.62 88.18 41.89 C 89.47 44.69 90.62 47.55 91.72 50.42 C 91.34 50.44 90.56 50.47 90.17 50.48 C 88.80 48.29 88.34 45.28 86.04 43.82 C 84.39 43.89 82.96 44.80 81.50 45.46 L 80.48 45.98 C 79.85 43.72 81.06 41.59 81.63 39.46 Z" />
<path fill="#a45e44" opacity="1.00" d=" M 107.03 49.26 C 112.75 45.53 118.67 42.10 124.92 39.32 C 125.21 39.98 125.79 41.29 126.08 41.95 C 124.20 43.40 122.33 44.87 120.49 46.36 C 123.85 46.92 127.46 46.72 130.55 48.38 C 124.76 49.82 119.06 51.63 113.49 53.76 C 111.87 54.42 110.13 54.64 108.40 54.60 L 108.00 54.60 C 107.71 52.81 107.46 51.02 107.03 49.26 Z" />
<path fill="#cba97b" opacity="1.00" d=" M 155.42 40.23 C 157.56 40.56 159.72 40.62 161.88 40.66 C 159.93 41.93 158.23 43.55 157.02 45.56 C 158.47 45.93 159.92 46.31 161.38 46.68 C 161.41 48.02 161.45 49.36 161.50 50.71 C 160.61 51.17 159.71 51.63 158.82 52.07 C 157.36 52.06 155.91 52.05 154.46 52.01 C 151.85 50.86 149.02 50.57 146.20 50.64 C 146.60 50.36 147.42 49.81 147.83 49.54 C 146.95 48.77 146.08 48.00 145.21 47.23 C 145.31 46.99 145.52 46.52 145.63 46.28 C 143.93 46.31 142.22 46.33 140.53 46.38 C 145.09 43.31 151.40 44.13 155.42 40.23 Z" />
<path fill="#602482" opacity="1.00" d=" M 51.19 44.17 C 51.76 42.80 52.46 41.48 53.24 40.22 C 53.90 41.89 53.16 43.52 52.45 45.03 C 51.99 46.04 51.50 47.05 51.00 48.05 C 50.97 47.28 50.90 45.74 50.87 44.96 L 51.19 44.17 Z" />
<path fill="#9f8469" opacity="1.00" d=" M 69.43 43.04 C 71.99 41.20 75.31 41.55 78.28 41.21 C 75.56 42.67 72.42 42.66 69.43 43.04 Z" />
<path fill="#ffffe3" opacity="1.00" d=" M 78.28 41.21 C 78.90 40.93 80.14 40.37 80.76 40.09 C 80.28 41.70 79.79 43.30 79.29 44.90 C 76.70 44.39 74.02 44.14 71.41 44.64 C 68.90 45.31 66.71 46.92 64.06 47.13 C 65.43 45.29 67.28 43.85 69.43 43.04 C 72.42 42.66 75.56 42.67 78.28 41.21 Z" />
<path fill="#f1b48f" opacity="1.00" d=" M 92.18 42.62 C 93.03 42.06 94.74 40.94 95.60 40.38 L 96.51 40.67 C 96.01 43.54 93.88 46.23 91.91 48.43 C 91.72 47.29 91.35 45.02 91.16 43.88 C 91.74 43.83 92.91 43.73 93.50 43.68 L 92.18 42.62 Z" />
<path fill="#ffffe3" opacity="1.00" d=" M 38.26 47.84 C 38.10 45.25 39.67 42.97 40.87 40.79 C 40.66 43.27 39.27 46.08 40.77 48.41 C 41.77 50.34 42.82 52.25 43.65 54.27 C 41.87 52.11 39.97 50.05 38.26 47.84 Z" />
<path fill="#e3a17d" opacity="1.00" d=" M 40.87 40.79 C 42.56 43.55 44.44 46.19 46.12 48.97 C 47.55 51.18 46.32 53.88 45.94 56.21 C 44.81 55.94 44.05 55.29 43.65 54.27 C 42.82 52.25 41.77 50.34 40.77 48.41 C 39.27 46.08 40.66 43.27 40.87 40.79 Z" />
<path fill="#722554" opacity="1.00" d=" M 54.75 41.75 C 57.33 43.45 60.65 44.84 61.69 48.00 C 59.09 46.56 54.92 45.18 54.75 41.75 Z" />
<path fill="#faf6e1" opacity="1.00" d=" M 97.19 41.28 C 100.19 41.43 99.56 45.07 100.57 47.08 C 98.53 49.50 96.99 52.28 95.04 54.76 C 94.33 53.22 93.45 51.73 93.09 50.06 C 93.53 46.78 96.25 44.40 97.19 41.28 Z" />
<path fill="#482119" opacity="1.00" d=" M 49.98 43.22 C 50.28 43.46 50.89 43.93 51.19 44.17 L 50.87 44.96 C 50.54 44.69 49.89 44.13 49.56 43.85 L 49.98 43.22 Z" />
<path fill="#fefceb" opacity="1.00" d=" M 99.60 42.09 C 102.89 43.43 105.55 46.02 106.16 49.67 C 104.92 48.45 103.48 47.62 101.83 47.19 C 100.71 45.67 100.02 43.92 99.60 42.09 Z" />
<path fill="#cea878" opacity="1.00" d=" M 49.51 43.93 L 49.56 43.85 C 49.89 44.13 50.54 44.69 50.87 44.96 C 50.90 45.74 50.97 47.28 51.00 48.05 C 50.40 49.26 49.72 50.44 49.05 51.61 C 48.32 50.53 47.61 49.44 46.90 48.35 C 47.76 46.87 48.62 45.39 49.51 43.93 Z" />
<path fill="#e5d3b1" opacity="1.00" d=" M 81.50 45.46 C 82.96 44.80 84.39 43.89 86.04 43.82 C 88.34 45.28 88.80 48.29 90.17 50.48 C 90.56 50.47 91.34 50.44 91.72 50.42 L 92.00 50.41 C 92.78 52.87 93.79 55.24 94.88 57.57 C 93.03 57.44 91.19 57.31 89.35 57.18 C 89.12 54.78 89.24 52.18 87.77 50.12 C 86.46 47.70 83.84 46.61 81.50 45.46 Z" />
<path fill="#922fb1" opacity="1.00" d=" M 108.07 44.87 C 108.21 44.82 108.51 44.71 108.66 44.66 C 108.51 44.71 108.21 44.82 108.07 44.87 Z" />
<path fill="#fffff4" opacity="1.00" d=" M 53.91 44.23 C 56.14 45.95 59.69 46.94 60.24 50.07 L 59.58 49.71 C 57.56 48.61 55.62 47.36 53.76 46.00 C 53.80 45.56 53.87 44.67 53.91 44.23 Z" />
<path fill="#78209f" opacity="1.00" d=" M 106.19 45.27 C 106.66 45.17 107.60 44.97 108.07 44.87 C 107.82 45.20 107.33 45.87 107.09 46.21 L 106.22 45.97 L 106.19 45.27 Z" />
<path fill="#ffffe3" opacity="1.00" d=" M 64.17 49.67 C 66.23 47.92 68.41 46.25 71.00 45.35 C 70.62 47.50 70.35 49.69 69.66 51.78 C 68.41 52.78 66.78 53.14 65.33 53.74 C 64.17 52.68 64.27 51.09 64.17 49.67 Z" />
<path fill="#f5c495" opacity="1.00" d=" M 71.00 45.35 C 73.59 45.17 76.19 45.28 78.78 45.43 C 78.77 47.01 78.78 48.59 78.81 50.18 C 79.14 48.77 79.42 47.35 79.72 45.94 C 82.63 47.23 85.63 48.84 87.03 51.87 C 86.99 52.73 86.91 54.46 86.87 55.32 C 86.42 54.37 85.97 53.42 85.53 52.46 C 84.31 52.13 83.08 51.83 81.84 51.58 C 78.08 53.49 75.36 57.38 74.98 61.61 L 74.86 62.11 C 77.28 62.32 79.70 62.58 82.13 62.67 C 79.01 64.34 75.43 65.37 72.77 67.78 C 72.06 69.38 72.06 71.17 71.94 72.88 C 71.10 70.89 71.30 68.61 70.46 66.66 C 68.71 65.20 66.73 64.02 65.18 62.32 L 65.05 62.20 C 66.42 62.48 67.78 62.75 69.15 63.00 C 69.13 60.03 68.49 56.95 66.21 54.86 C 65.99 54.58 65.55 54.02 65.33 53.74 C 66.78 53.14 68.41 52.78 69.66 51.78 C 70.35 49.69 70.62 47.50 71.00 45.35 M 71.09 52.01 C 70.60 53.64 71.16 54.20 72.77 53.68 C 73.27 52.05 72.71 51.49 71.09 52.01 Z" />
<path fill="#fffff4" opacity="1.00" d=" M 130.55 48.38 C 133.86 47.68 137.20 47.04 140.53 46.38 C 142.22 46.33 143.93 46.31 145.63 46.28 C 145.52 46.52 145.31 46.99 145.21 47.23 C 142.09 47.84 138.99 48.51 135.91 49.28 C 131.92 50.28 127.90 51.15 123.96 52.33 C 118.84 53.47 114.13 56.60 108.80 56.56 L 108.67 57.10 C 108.13 57.67 107.60 58.24 107.08 58.82 C 106.54 58.30 105.99 57.80 105.44 57.30 L 104.45 56.43 C 104.30 55.56 104.00 53.82 103.85 52.95 L 105.40 53.79 C 105.78 54.32 106.54 55.38 106.92 55.91 C 107.52 55.60 108.01 55.17 108.40 54.60 C 110.13 54.64 111.87 54.42 113.49 53.76 C 119.06 51.63 124.76 49.82 130.55 48.38 Z" />
<path fill="#a45a43" opacity="1.00" d=" M 53.00 47.59 L 53.76 46.00 C 55.62 47.36 57.56 48.61 59.58 49.71 C 59.30 51.23 58.82 52.70 58.15 54.09 L 57.69 53.89 C 55.61 53.03 53.55 52.13 51.51 51.20 C 52.04 50.01 52.52 48.80 53.00 47.59 Z" />
<path fill="#faf6e1" opacity="1.00" d=" M 31.14 48.68 C 31.44 48.42 32.02 47.89 32.32 47.63 C 33.33 47.97 34.34 48.31 35.35 48.65 C 34.98 49.74 34.65 50.85 34.36 51.97 C 34.36 51.50 34.37 50.56 34.37 50.09 C 33.30 49.61 32.22 49.14 31.14 48.68 Z" />
<path fill="#f1e8cd" opacity="1.00" d=" M 60.76 49.71 C 61.93 48.56 63.25 47.58 64.80 46.99 C 64.15 48.87 63.48 50.74 62.62 52.53 C 62.18 54.51 61.89 56.52 61.74 58.55 C 60.92 58.51 59.29 58.44 58.47 58.41 L 57.39 57.80 C 57.47 57.25 57.62 56.17 57.69 55.62 C 59.14 53.90 60.27 51.92 60.76 49.71 Z" />
<path fill="#c2966d" opacity="1.00" d=" M 135.91 49.28 C 138.99 48.51 142.09 47.84 145.21 47.23 C 146.08 48.00 146.95 48.77 147.83 49.54 C 147.42 49.81 146.60 50.36 146.20 50.64 C 149.02 50.57 151.85 50.86 154.46 52.01 C 149.77 52.35 145.10 52.89 140.42 53.31 C 139.11 52.80 137.82 52.25 136.53 51.70 C 136.32 50.90 136.11 50.09 135.91 49.28 Z" />
<path fill="#f4c396" opacity="1.00" d=" M 95.46 55.03 C 97.69 52.72 98.95 49.67 101.27 47.43 C 101.96 48.89 102.38 50.40 102.53 51.98 C 101.28 53.97 99.91 55.89 98.76 57.94 C 98.61 58.21 98.29 58.76 98.13 59.03 L 97.76 59.69 C 96.79 58.24 96.06 56.66 95.46 55.03 Z" />
<path fill="#e3a17d" opacity="1.00" d=" M 105.14 52.97 C 103.44 52.98 101.26 48.93 103.32 48.67 C 103.70 49.09 104.47 49.91 104.85 50.33 C 104.98 51.19 105.42 52.08 105.14 52.97 Z" />
<path fill="#fbfaed" opacity="1.00" d=" M 36.39 52.98 C 36.52 51.31 36.93 49.69 37.60 48.13 C 39.47 50.44 41.25 52.81 43.00 55.20 L 42.85 55.44 C 42.20 56.44 41.55 57.44 40.91 58.44 C 39.38 56.64 37.76 54.91 36.39 52.98 Z" />
<path fill="#8e3d8f" opacity="1.00" d=" M 104.85 50.33 C 107.50 50.02 106.93 54.19 106.92 55.91 C 106.54 55.38 105.78 54.32 105.40 53.79 L 105.14 52.97 C 105.42 52.08 104.98 51.19 104.85 50.33 Z" />
<path fill="#b37b56" opacity="1.00" d=" M 123.96 52.33 C 127.90 51.15 131.92 50.28 135.91 49.28 C 136.11 50.09 136.32 50.90 136.53 51.70 C 137.82 52.25 139.11 52.80 140.42 53.31 C 136.36 53.75 132.34 54.46 128.32 55.11 C 126.87 54.18 125.42 53.25 123.96 52.33 Z" />
<path fill="#fffff4" opacity="1.00" d=" M 49.84 53.37 C 50.40 52.64 50.97 51.93 51.51 51.20 C 53.55 52.13 55.61 53.03 57.69 53.89 L 56.91 55.22 L 56.28 55.06 C 54.14 54.45 52.01 53.84 49.84 53.37 Z" />
<path fill="#fcebb7" opacity="1.00" d=" M 71.09 52.01 C 72.71 51.49 73.27 52.05 72.77 53.68 C 71.16 54.20 70.60 53.64 71.09 52.01 Z" />
<path fill="#7420a5" opacity="1.00" d=" M 87.03 51.87 C 88.02 52.96 88.96 55.17 87.27 56.09 L 86.87 55.32 C 86.91 54.46 86.99 52.73 87.03 51.87 Z" />
<path fill="#fffffb" opacity="1.00" d=" M 140.42 53.31 C 145.10 52.89 149.77 52.35 154.46 52.01 C 155.91 52.05 157.36 52.06 158.82 52.07 C 159.43 52.14 160.65 52.28 161.27 52.35 C 159.86 52.90 158.46 53.46 157.03 53.96 C 142.44 55.35 127.81 57.02 113.54 60.49 C 112.10 60.84 110.62 61.01 109.14 60.96 L 108.91 60.10 L 109.09 59.19 L 109.73 59.13 C 115.92 57.75 122.04 56.07 128.32 55.11 C 132.34 54.46 136.36 53.75 140.42 53.31 Z" />
<path fill="#f6dda4" opacity="1.00" d=" M 62.71 57.79 C 62.17 56.08 62.47 54.10 63.61 52.70 C 63.95 53.10 64.64 53.89 64.98 54.28 C 64.55 55.63 63.67 56.78 62.71 57.79 Z" />
<path fill="#d9b787" opacity="1.00" d=" M 75.15 61.23 C 76.67 57.37 78.88 52.42 83.68 52.20 C 83.58 52.93 83.37 54.37 83.26 55.10 C 82.34 56.57 81.32 57.99 80.02 59.16 C 79.33 59.67 78.63 60.15 77.91 60.62 C 77.22 60.77 75.84 61.08 75.15 61.23 Z" />
<path fill="#a35d40" opacity="1.00" d=" M 108.80 56.56 C 114.13 56.60 118.84 53.47 123.96 52.33 C 125.42 53.25 126.87 54.18 128.32 55.11 C 122.04 56.07 115.92 57.75 109.73 59.13 L 109.09 59.19 C 108.98 58.66 108.77 57.62 108.67 57.10 L 108.80 56.56 Z" />
<path fill="#e1c389" opacity="1.00" d=" M 158.53 56.44 C 160.11 54.40 162.71 53.74 164.97 52.77 C 164.65 58.56 165.07 64.84 162.13 70.07 C 158.52 74.72 152.92 77.44 147.48 79.36 C 147.69 77.59 148.06 75.84 148.49 74.11 C 147.76 73.55 147.03 72.98 146.31 72.42 C 148.23 70.58 150.23 68.70 151.28 66.19 C 153.01 62.48 156.00 59.59 158.53 56.44 Z" />
<path fill="#ba8b63" opacity="1.00" d=" M 46.18 58.29 C 47.41 56.65 48.59 54.98 49.84 53.37 C 51.54 54.83 53.39 56.09 55.31 57.24 C 55.06 57.72 54.56 58.69 54.30 59.17 C 51.60 58.86 48.89 58.61 46.18 58.29 Z" />
<path fill="#9f543d" opacity="1.00" d=" M 49.84 53.37 C 52.01 53.84 54.14 54.45 56.28 55.06 C 56.04 55.61 55.56 56.69 55.31 57.24 C 53.39 56.09 51.54 54.83 49.84 53.37 Z" />
<path fill="#71212c" opacity="1.00" d=" M 83.26 55.10 C 83.81 54.60 84.91 53.60 85.46 53.10 C 85.51 54.79 85.47 56.48 85.34 58.17 C 83.91 57.80 82.40 59.34 83.88 60.42 L 83.82 61.17 C 83.10 61.16 81.65 61.15 80.92 61.15 C 80.70 60.65 80.24 59.65 80.02 59.16 C 81.32 57.99 82.34 56.57 83.26 55.10 Z" />
<path fill="#fffeec" opacity="1.00" d=" M 99.94 57.04 C 100.90 55.46 101.95 53.92 103.25 52.60 C 103.39 53.59 103.65 55.58 103.79 56.58 C 102.73 58.89 101.56 61.15 100.62 63.52 C 99.81 62.04 98.19 60.82 98.13 59.03 C 98.29 58.76 98.61 58.21 98.76 57.94 C 99.06 57.71 99.64 57.26 99.94 57.04 Z" />
<path fill="#9f543d" opacity="1.00" d=" M 113.54 60.49 C 127.81 57.02 142.44 55.35 157.03 53.96 C 155.53 55.19 153.83 56.24 151.87 56.49 C 147.02 57.26 142.15 57.85 137.31 58.59 C 131.08 58.98 124.96 60.28 118.92 61.77 C 122.09 62.38 125.29 62.76 128.52 62.87 C 127.11 63.92 125.67 64.91 124.20 65.87 C 124.61 67.15 125.03 68.43 125.46 69.71 C 125.06 70.06 124.26 70.76 123.86 71.11 C 118.96 69.48 114.09 67.76 109.06 66.59 C 109.02 64.72 108.75 62.80 109.14 60.96 C 110.62 61.01 112.10 60.84 113.54 60.49 Z" />
<path fill="#fefce9" opacity="1.00" d=" M 35.63 55.42 C 35.80 55.07 36.13 54.37 36.29 54.02 C 36.55 54.35 37.06 55.02 37.32 55.35 C 36.95 56.79 36.53 58.21 36.18 59.66 L 36.28 60.59 C 37.20 62.13 38.20 63.62 39.16 65.13 C 38.23 65.80 37.30 66.47 36.36 67.13 C 36.39 67.44 36.45 68.06 36.49 68.36 C 35.99 69.40 35.26 70.30 34.55 71.19 C 34.49 65.91 35.08 60.66 35.63 55.42 Z" />
<path fill="#b86a4b" opacity="1.00" d=" M 64.98 54.28 L 66.21 54.86 C 68.49 56.95 69.13 60.03 69.15 63.00 C 67.78 62.75 66.42 62.48 65.05 62.20 C 64.85 61.98 64.44 61.55 64.23 61.33 C 64.76 61.26 65.82 61.10 66.35 61.02 C 65.22 60.31 64.11 59.56 63.02 58.80 L 62.71 57.79 C 63.67 56.78 64.55 55.63 64.98 54.28 Z" />
<path fill="#f4d273" opacity="1.00" d=" M 37.32 55.35 C 38.87 57.26 40.40 59.17 41.88 61.13 C 41.21 62.11 40.54 63.10 39.88 64.08 C 38.64 62.61 37.41 61.14 36.18 59.66 C 36.53 58.21 36.95 56.79 37.32 55.35 Z" />
<path fill="#dcb69f" opacity="1.00" d=" M 40.91 58.44 C 41.55 57.44 42.20 56.44 42.85 55.44 C 45.59 56.80 43.90 59.15 42.31 60.59 C 41.96 60.05 41.26 58.98 40.91 58.44 Z" />
<path fill="#d0a57d" opacity="1.00" d=" M 59.89 74.10 C 56.16 68.93 52.87 61.16 57.69 55.62 C 57.62 56.17 57.47 57.25 57.39 57.80 C 57.15 59.61 56.90 61.43 56.64 63.24 C 57.14 63.11 58.12 62.86 58.61 62.73 C 58.12 65.27 58.81 67.77 60.15 69.95 C 61.12 71.79 62.30 73.53 63.71 75.07 C 65.61 76.51 67.55 77.88 69.47 79.29 C 69.40 80.54 69.33 81.80 69.28 83.07 C 65.84 81.57 62.92 79.30 61.47 75.75 L 61.13 75.38 C 60.82 75.06 60.20 74.42 59.89 74.10 Z" />
<path fill="#906a4f" opacity="1.00" d=" M 103.79 56.58 L 104.12 55.85 C 104.10 56.35 104.06 57.35 104.04 57.85 C 104.39 57.71 105.09 57.44 105.44 57.30 C 105.99 57.80 106.54 58.30 107.08 58.82 C 105.97 59.60 105.66 60.66 106.15 62.01 C 106.48 61.40 107.15 60.18 107.48 59.57 C 108.73 63.42 107.39 67.38 106.97 71.25 L 106.18 71.22 L 106.19 70.92 C 106.56 66.82 105.45 62.83 104.69 58.85 C 103.42 60.49 102.11 62.08 100.62 63.52 C 101.56 61.15 102.73 58.89 103.79 56.58 Z" />
<path fill="#96383e" opacity="1.00" d=" M 87.08 56.75 C 88.41 57.34 89.75 57.91 91.09 58.48 C 90.01 59.17 88.94 59.87 87.87 60.59 L 87.50 60.85 L 87.21 59.84 C 85.51 60.78 83.88 61.83 82.13 62.67 C 79.70 62.58 77.28 62.32 74.86 62.11 L 74.98 61.61 L 75.15 61.23 C 75.84 61.08 77.22 60.77 77.91 60.62 C 78.63 60.15 79.33 59.67 80.02 59.16 C 80.24 59.65 80.70 60.65 80.92 61.15 C 81.65 61.15 83.10 61.16 83.82 61.17 L 83.88 60.42 C 84.24 60.05 84.94 59.31 85.29 58.94 C 85.89 58.21 86.48 57.48 87.08 56.75 Z" />
<path fill="#b17452" opacity="1.00" d=" M 45.09 59.63 C 45.46 59.19 45.82 58.74 46.18 58.29 C 48.53 59.78 51.25 60.46 53.97 60.85 C 54.17 63.36 54.46 65.90 55.50 68.22 C 53.44 70.49 51.50 72.93 49.07 74.81 C 47.26 73.85 45.42 72.96 43.57 72.10 C 44.58 68.28 46.70 64.56 50.82 63.56 C 48.91 62.25 47.01 60.93 45.09 59.63 Z" />
<path fill="#fdfbe8" opacity="1.00" d=" M 46.18 58.29 C 48.89 58.61 51.60 58.86 54.30 59.17 C 54.22 59.59 54.06 60.43 53.97 60.85 C 51.25 60.46 48.53 59.78 46.18 58.29 Z" />
<path fill="#e8d6b1" opacity="1.00" d=" M 56.64 63.24 C 56.90 61.43 57.15 59.61 57.39 57.80 L 58.47 58.41 C 59.63 59.08 60.82 59.71 62.03 60.30 C 62.13 61.95 61.39 63.92 62.66 65.30 C 64.55 67.37 67.43 67.97 69.88 69.11 C 70.00 69.58 70.23 70.51 70.35 70.98 C 67.84 70.21 65.36 69.35 62.91 68.40 C 63.09 70.63 63.34 72.86 63.71 75.07 C 62.30 73.53 61.12 71.79 60.15 69.95 C 61.58 67.49 60.91 64.80 59.99 62.31 C 59.65 62.41 58.96 62.62 58.61 62.73 C 58.12 62.86 57.14 63.11 56.64 63.24 Z" />
<path fill="#5c119a" opacity="1.00" d=" M 83.88 60.42 C 82.40 59.34 83.91 57.80 85.34 58.17 L 85.29 58.94 C 84.94 59.31 84.24 60.05 83.88 60.42 Z" />
<path fill="#fdfbe8" opacity="1.00" d=" M 90.69 59.56 C 92.56 59.45 94.93 57.93 96.37 59.75 C 96.77 61.14 97.13 62.54 97.48 63.94 C 95.87 67.62 94.37 71.35 92.69 75.00 C 92.33 74.34 91.62 73.03 91.26 72.37 C 89.26 75.21 86.67 77.73 83.18 78.54 C 82.44 79.34 81.71 80.14 80.99 80.94 C 80.04 80.39 79.09 79.83 78.14 79.29 C 76.27 80.39 74.20 81.01 72.09 81.44 C 72.14 78.94 72.23 76.45 72.36 73.96 C 72.46 73.27 72.66 71.91 72.77 71.22 C 74.77 71.34 77.00 72.01 78.79 70.73 C 82.53 68.19 87.89 68.74 90.62 64.64 C 92.31 63.32 90.95 61.20 90.69 59.56 Z" />
<path fill="#f6d472" opacity="1.00" d=" M 100.62 63.52 C 102.11 62.08 103.42 60.49 104.69 58.85 C 105.45 62.83 106.56 66.82 106.19 70.92 C 104.11 68.63 102.26 66.14 100.62 63.52 Z" />
<path fill="#f6d472" opacity="1.00" d=" M 106.15 62.01 C 105.66 60.66 105.97 59.60 107.08 58.82 L 107.48 59.57 C 107.15 60.18 106.48 61.40 106.15 62.01 Z" />
<path fill="#c39a6f" opacity="1.00" d=" M 118.92 61.77 C 124.96 60.28 131.08 58.98 137.31 58.59 C 138.49 59.25 139.66 59.93 140.82 60.62 C 139.46 61.48 138.09 62.33 136.73 63.19 C 134.00 62.99 131.26 62.95 128.52 62.87 C 125.29 62.76 122.09 62.38 118.92 61.77 Z" />
<path fill="#c1966a" opacity="1.00" d=" M 40.49 65.86 C 41.82 63.64 43.40 61.59 45.09 59.63 C 47.01 60.93 48.91 62.25 50.82 63.56 C 46.70 64.56 44.58 68.28 43.57 72.10 C 42.03 71.40 40.50 70.69 38.96 69.99 C 39.46 68.61 39.93 67.22 40.49 65.86 Z" />
<path fill="#461620" opacity="1.00" d=" M 82.13 62.67 C 83.88 61.83 85.51 60.78 87.21 59.84 L 87.50 60.85 C 84.06 64.52 78.88 65.38 74.65 67.78 C 73.46 68.49 73.32 70.07 72.77 71.22 C 72.66 71.91 72.46 73.27 72.36 73.96 L 71.94 72.88 C 72.06 71.17 72.06 69.38 72.77 67.78 C 75.43 65.37 79.01 64.34 82.13 62.67 Z" />
<path fill="#dfcca6" opacity="1.00" d=" M 87.87 60.59 C 88.80 60.20 89.74 59.86 90.69 59.56 C 90.95 61.20 92.31 63.32 90.62 64.64 C 87.89 68.74 82.53 68.19 78.79 70.73 C 77.00 72.01 74.77 71.34 72.77 71.22 C 73.32 70.07 73.46 68.49 74.65 67.78 C 78.88 65.38 84.06 64.52 87.50 60.85 L 87.87 60.59 Z" />
<path fill="#c79669" opacity="1.00" d=" M 96.37 59.75 C 97.87 61.68 99.18 63.74 100.56 65.76 C 98.96 68.41 96.69 70.83 96.39 74.06 C 93.56 79.83 86.69 80.05 81.70 82.87 C 79.92 83.89 77.91 84.36 75.90 84.68 L 75.26 82.49 C 74.99 82.10 74.46 81.33 74.19 80.94 C 73.47 82.05 72.76 83.16 72.04 84.27 C 72.06 83.56 72.08 82.15 72.09 81.44 C 74.20 81.01 76.27 80.39 78.14 79.29 C 79.09 79.83 80.04 80.39 80.99 80.94 C 81.71 80.14 82.44 79.34 83.18 78.54 C 86.67 77.73 89.26 75.21 91.26 72.37 C 91.62 73.03 92.33 74.34 92.69 75.00 C 94.37 71.35 95.87 67.62 97.48 63.94 C 97.13 62.54 96.77 61.14 96.37 59.75 Z" />
<path fill="#cfb184" opacity="1.00" d=" M 62.03 60.30 C 62.58 60.56 63.68 61.07 64.23 61.33 C 64.44 61.55 64.85 61.98 65.05 62.20 L 65.18 62.32 C 64.76 65.61 68.69 66.51 69.88 69.11 C 67.43 67.97 64.55 67.37 62.66 65.30 C 61.39 63.92 62.13 61.95 62.03 60.30 Z" />
<path fill="#f9f2d4" opacity="1.00" d=" M 58.61 62.73 C 58.96 62.62 59.65 62.41 59.99 62.31 C 60.91 64.80 61.58 67.49 60.15 69.95 C 58.81 67.77 58.12 65.27 58.61 62.73 Z" />
<path fill="#906a4f" opacity="1.00" d=" M 69.88 69.11 C 68.69 66.51 64.76 65.61 65.18 62.32 C 66.73 64.02 68.71 65.20 70.46 66.66 C 71.30 68.61 71.10 70.89 71.94 72.88 L 72.36 73.96 C 72.23 76.45 72.14 78.94 72.09 81.44 C 72.08 82.15 72.06 83.56 72.04 84.27 C 72.76 83.16 73.47 82.05 74.19 80.94 C 74.46 81.33 74.99 82.10 75.26 82.49 C 74.31 84.73 73.58 87.04 72.81 89.34 C 70.68 88.72 70.42 86.20 69.22 84.64 C 67.25 83.26 64.92 82.53 62.81 81.40 C 61.91 79.81 60.93 78.26 59.95 76.72 C 59.79 78.24 59.67 79.77 59.56 81.30 C 59.11 79.55 58.94 77.75 58.74 75.96 C 59.34 75.81 60.54 75.53 61.13 75.38 L 61.47 75.75 C 62.92 79.30 65.84 81.57 69.28 83.07 C 69.33 81.80 69.40 80.54 69.47 79.29 C 69.68 76.51 70.10 73.75 70.35 70.98 C 70.23 70.51 70.00 69.58 69.88 69.11 Z" />
<path fill="#b37a58" opacity="1.00" d=" M 128.52 62.87 C 131.26 62.95 134.00 62.99 136.73 63.19 C 139.44 63.40 142.14 63.73 144.81 64.25 L 145.15 65.11 C 141.39 64.67 137.60 64.81 133.84 65.04 C 133.71 67.50 133.94 69.97 134.50 72.37 C 133.44 72.89 132.37 73.42 131.31 73.94 C 128.82 73.02 126.33 72.08 123.86 71.11 C 124.26 70.76 125.06 70.06 125.46 69.71 C 125.03 68.43 124.61 67.15 124.20 65.87 C 125.67 64.91 127.11 63.92 128.52 62.87 Z" />
<path fill="#c4986f" opacity="1.00" d=" M 133.84 65.04 C 137.60 64.81 141.39 64.67 145.15 65.11 C 142.56 66.47 138.29 65.93 137.38 69.38 C 136.15 71.81 139.18 72.68 140.74 73.60 C 139.35 74.41 137.97 75.24 136.59 76.08 C 134.84 75.35 133.07 74.64 131.31 73.94 C 132.37 73.42 133.44 72.89 134.50 72.37 C 133.94 69.97 133.71 67.50 133.84 65.04 Z" />
<path fill="#fffeec" opacity="1.00" d=" M 40.49 65.86 C 39.93 67.22 39.46 68.61 38.96 69.99 C 40.50 70.69 42.03 71.40 43.57 72.10 C 45.42 72.96 47.26 73.85 49.07 74.81 L 49.50 76.06 C 44.79 75.91 40.59 73.51 36.66 71.15 L 37.25 70.40 C 38.43 68.96 39.50 67.43 40.49 65.86 Z" />
<path fill="#cb92b1" opacity="1.00" d=" M 100.56 65.76 C 100.86 66.21 101.47 67.11 101.78 67.56 C 99.96 69.71 98.14 71.86 96.39 74.06 C 96.69 70.83 98.96 68.41 100.56 65.76 Z" />
<path fill="#fefceb" opacity="1.00" d=" M 62.91 68.40 C 65.36 69.35 67.84 70.21 70.35 70.98 C 70.10 73.75 69.68 76.51 69.47 79.29 C 67.55 77.88 65.61 76.51 63.71 75.07 C 63.34 72.86 63.09 70.63 62.91 68.40 Z" />
<path fill="#ad714e" opacity="1.00" d=" M 107.63 71.45 C 107.90 70.21 108.09 68.96 108.28 67.71 C 112.67 70.75 118.77 70.34 122.66 74.34 C 126.91 78.05 122.95 83.72 121.27 87.77 C 118.55 87.16 115.78 87.46 113.16 88.33 C 114.05 86.30 114.91 84.21 115.25 82.00 C 115.37 79.80 113.34 78.38 111.99 76.97 C 115.02 75.94 118.07 77.11 121.03 77.76 C 117.54 73.97 112.42 72.73 107.63 71.45 Z" />
<path fill="#fffff5" opacity="1.00" d=" M 108.28 67.71 C 116.36 70.09 124.36 72.75 132.27 75.62 C 130.14 75.15 128.04 74.54 125.95 73.90 C 128.04 79.06 125.89 84.39 123.39 88.93 C 121.23 93.05 118.69 96.95 116.13 100.83 C 115.81 101.34 115.17 102.35 114.85 102.86 C 116.50 104.11 118.12 105.39 119.86 106.52 C 120.98 107.26 122.14 107.94 123.33 108.58 C 125.06 109.60 127.02 108.32 128.69 107.76 C 134.20 105.19 139.52 102.09 144.31 98.33 C 148.22 95.29 150.51 90.75 151.96 86.11 C 147.74 83.22 142.89 81.41 138.81 78.31 C 143.10 79.79 147.21 81.76 151.24 83.85 C 152.36 84.57 154.27 85.17 153.88 86.90 C 153.42 91.22 151.53 95.42 148.74 98.74 C 143.58 104.00 136.49 106.55 130.20 110.14 C 127.27 111.87 123.76 110.45 121.16 108.78 C 117.71 106.47 114.59 103.69 111.71 100.69 C 112.20 100.51 113.17 100.16 113.65 99.98 C 116.62 96.21 119.00 91.99 121.27 87.77 C 122.95 83.72 126.91 78.05 122.66 74.34 C 118.77 70.34 112.67 70.75 108.28 67.71 Z" />
<path fill="#cfa47f" opacity="1.00" d=" M 95.77 76.24 C 97.52 73.20 100.07 70.78 102.82 68.65 C 103.27 69.25 104.18 70.46 104.64 71.07 C 103.62 72.61 102.29 73.89 100.96 75.16 C 101.06 74.61 101.24 73.50 101.34 72.94 C 99.52 74.11 97.69 75.25 95.77 76.24 Z" />
<path fill="#fffff5" opacity="1.00" d=" M 55.35 70.00 C 55.84 70.15 56.82 70.47 57.32 70.63 L 57.01 70.97 C 55.55 72.65 53.31 74.46 53.97 77.01 C 55.05 83.03 58.65 88.19 61.67 93.38 C 63.45 95.95 64.83 99.32 68.10 100.27 C 67.06 96.22 64.97 92.57 63.24 88.80 C 65.60 88.30 66.97 90.80 67.94 92.50 C 68.43 93.58 68.96 94.64 69.47 95.71 C 71.19 99.48 66.26 101.58 64.06 103.78 C 64.28 103.33 64.71 102.43 64.93 101.98 C 63.68 100.06 62.28 98.24 60.93 96.38 C 57.10 90.11 53.12 83.69 51.79 76.35 C 50.45 77.93 49.10 79.51 47.79 81.12 C 47.47 81.52 46.84 82.31 46.53 82.71 C 45.88 83.52 45.23 84.34 44.60 85.17 C 43.26 87.20 42.05 89.43 41.85 91.90 C 42.92 94.27 44.97 95.98 46.87 97.66 C 50.73 100.67 55.02 103.30 57.73 107.50 C 57.36 107.58 56.62 107.73 56.25 107.81 C 54.21 105.84 52.76 103.16 50.06 101.97 C 45.54 99.59 41.17 96.07 39.62 91.01 C 40.05 89.20 41.04 87.60 42.04 86.07 C 46.14 80.44 50.42 74.93 55.35 70.00 Z" />
<path fill="#cb8fb3" opacity="1.00" d=" M 104.64 71.07 C 104.93 71.87 105.20 72.67 105.46 73.49 C 103.84 75.43 102.46 77.57 100.85 79.52 L 99.56 80.33 C 99.73 79.63 100.07 78.25 100.24 77.55 C 100.48 76.75 100.72 75.96 100.96 75.16 C 102.29 73.89 103.62 72.61 104.64 71.07 Z" />
<path fill="#ac6f4f" opacity="1.00" d=" M 53.97 77.01 C 53.31 74.46 55.55 72.65 57.01 70.97 C 59.03 72.82 58.32 75.63 58.42 78.03 C 58.17 82.09 60.41 86.03 63.24 88.80 C 64.97 92.57 67.06 96.22 68.10 100.27 C 64.83 99.32 63.45 95.95 61.67 93.38 C 58.65 88.19 55.05 83.03 53.97 77.01 Z" />
<path fill="#954232" opacity="1.00" d=" M 106.34 73.28 C 106.66 72.82 107.31 71.91 107.63 71.45 C 112.42 72.73 117.54 73.97 121.03 77.76 C 118.07 77.11 115.02 75.94 111.99 76.97 C 110.12 75.72 108.20 74.54 106.34 73.28 Z" />
<path fill="#f8f4dd" opacity="1.00" d=" M 95.77 76.24 C 97.69 75.25 99.52 74.11 101.34 72.94 C 101.24 73.50 101.06 74.61 100.96 75.16 C 100.72 75.96 100.48 76.75 100.24 77.55 C 97.44 80.42 94.41 83.24 90.59 84.67 C 87.53 85.79 84.71 87.52 82.48 89.90 L 82.17 90.22 C 81.61 90.05 80.50 89.70 79.94 89.53 C 76.55 91.70 72.50 90.33 69.08 88.99 C 65.91 87.61 63.42 84.87 62.81 81.40 C 64.92 82.53 67.25 83.26 69.22 84.64 C 70.42 86.20 70.68 88.72 72.81 89.34 C 73.91 88.06 74.94 86.71 75.95 85.35 C 77.31 85.28 78.68 85.22 80.05 85.15 C 84.74 81.13 92.08 81.53 95.77 76.24 Z" />
<path fill="#fffffb" opacity="1.00" d=" M 105.73 74.27 C 105.88 74.02 106.19 73.52 106.34 73.28 C 108.20 74.54 110.12 75.72 111.99 76.97 C 113.34 78.38 115.37 79.80 115.25 82.00 C 114.91 84.21 114.05 86.30 113.16 88.33 C 111.82 91.28 110.21 94.11 108.43 96.81 C 108.05 96.33 107.30 95.36 106.93 94.88 C 107.11 94.50 107.48 93.73 107.66 93.34 C 109.55 89.42 112.51 85.71 112.82 81.24 C 111.10 78.29 107.02 77.46 105.73 74.27 Z" />
<path fill="#461620" opacity="1.00" d=" M 100.85 79.52 C 102.46 77.57 103.84 75.43 105.46 73.49 C 104.62 76.38 103.19 79.04 101.76 81.68 C 101.34 81.58 100.50 81.36 100.08 81.25 C 98.92 82.98 97.80 84.74 96.65 86.48 L 96.20 86.78 C 96.47 86.96 97.02 87.32 97.29 87.50 C 93.75 89.98 90.17 92.41 86.58 94.82 C 85.47 95.29 84.37 95.77 83.29 96.30 C 82.03 96.01 80.77 95.71 79.52 95.42 C 79.57 94.81 79.68 93.58 79.73 92.97 C 80.53 92.04 81.34 91.12 82.17 90.22 L 82.48 89.90 C 82.73 90.41 83.22 91.43 83.47 91.94 C 87.88 91.23 90.45 86.78 94.82 85.90 C 96.46 84.09 97.98 82.19 99.56 80.33 L 100.85 79.52 Z" />
<path fill="#ac6f4f" opacity="1.00" d=" M 105.46 73.49 L 105.73 74.27 C 107.02 77.46 111.10 78.29 112.82 81.24 C 112.51 85.71 109.55 89.42 107.66 93.34 C 106.87 92.83 106.08 92.32 105.30 91.81 C 104.76 88.24 103.62 84.79 101.76 81.68 C 103.19 79.04 104.62 76.38 105.46 73.49 M 106.40 80.63 C 104.25 82.21 105.51 86.78 108.58 85.48 C 112.26 84.26 109.67 78.29 106.40 80.63 Z" />
<path fill="#b9845e" opacity="1.00" d=" M 125.95 73.90 C 128.04 74.54 130.14 75.15 132.27 75.62 C 133.14 76.67 134.02 77.72 134.90 78.78 C 132.49 80.37 129.87 81.72 127.79 83.75 C 126.46 85.49 125.80 87.62 124.93 89.61 C 124.55 89.44 123.77 89.10 123.39 88.93 C 125.89 84.39 128.04 79.06 125.95 73.90 Z" />
<path fill="#caa272" opacity="1.00" d=" M 132.27 75.62 C 133.82 76.20 135.36 76.79 136.88 77.45 C 136.33 79.83 136.57 82.88 134.04 84.15 C 130.34 86.24 129.28 90.90 125.41 92.76 C 125.86 93.78 126.32 94.80 126.78 95.82 C 125.48 96.17 124.15 96.45 122.89 96.94 C 121.73 98.49 120.89 100.37 120.69 102.30 C 121.66 104.36 122.77 106.36 123.33 108.58 C 122.14 107.94 120.98 107.26 119.86 106.52 L 121.50 106.17 C 120.00 104.11 118.11 102.41 116.13 100.83 C 118.69 96.95 121.23 93.05 123.39 88.93 C 123.77 89.10 124.55 89.44 124.93 89.61 C 125.80 87.62 126.46 85.49 127.79 83.75 C 129.87 81.72 132.49 80.37 134.90 78.78 C 134.02 77.72 133.14 76.67 132.27 75.62 Z" />
<path fill="#bf8e61" opacity="1.00" d=" M 47.79 81.12 C 49.10 79.51 50.45 77.93 51.79 76.35 C 53.12 83.69 57.10 90.11 60.93 96.38 C 56.42 96.07 54.09 91.66 51.85 88.34 C 51.31 85.54 49.64 83.21 47.79 81.12 Z" />
<path fill="#d3b08a" opacity="1.00" d=" M 59.95 76.72 C 60.93 78.26 61.91 79.81 62.81 81.40 C 63.42 84.87 65.91 87.61 69.08 88.99 C 72.50 90.33 76.55 91.70 79.94 89.53 C 80.50 89.70 81.61 90.05 82.17 90.22 C 81.34 91.12 80.53 92.04 79.73 92.97 C 74.44 95.33 69.01 91.16 64.83 88.22 C 62.07 86.84 60.61 84.05 59.56 81.30 C 59.67 79.77 59.79 78.24 59.95 76.72 Z" />
<path fill="#d9a5c6" opacity="1.00" d=" M 141.12 77.36 C 143.03 76.90 144.90 77.58 145.99 79.23 C 144.35 79.85 142.34 78.70 141.03 77.71 L 141.12 77.36 Z" />
<path fill="#c89a72" opacity="1.00" d=" M 90.59 84.67 C 94.41 83.24 97.44 80.42 100.24 77.55 C 100.07 78.25 99.73 79.63 99.56 80.33 C 97.98 82.19 96.46 84.09 94.82 85.90 C 90.45 86.78 87.88 91.23 83.47 91.94 C 83.22 91.43 82.73 90.41 82.48 89.90 C 84.71 87.52 87.53 85.79 90.59 84.67 Z" />
<path fill="#e2c68b" opacity="1.00" d=" M 134.04 84.15 C 136.57 82.88 136.33 79.83 136.88 77.45 C 137.36 77.67 138.33 78.10 138.81 78.31 C 142.89 81.41 147.74 83.22 151.96 86.11 C 150.51 90.75 148.22 95.29 144.31 98.33 C 139.52 102.09 134.20 105.19 128.69 107.76 C 127.02 108.32 125.06 109.60 123.33 108.58 C 122.77 106.36 121.66 104.36 120.69 102.30 C 120.89 100.37 121.73 98.49 122.89 96.94 C 124.15 96.45 125.48 96.17 126.78 95.82 C 126.32 94.80 125.86 93.78 125.41 92.76 C 129.28 90.90 130.34 86.24 134.04 84.15 M 138.15 91.30 C 135.70 91.28 137.23 95.77 139.39 94.44 C 141.50 93.91 139.94 90.65 138.15 91.30 Z" />
<path fill="#fffff4" opacity="1.00" d=" M 106.40 80.63 C 109.67 78.29 112.26 84.26 108.58 85.48 C 105.51 86.78 104.25 82.21 106.40 80.63 Z" />
<path fill="#6b2382" opacity="1.00" d=" M 100.08 81.25 C 100.50 81.36 101.34 81.58 101.76 81.68 C 103.62 84.79 104.76 88.24 105.30 91.81 C 106.08 92.32 106.87 92.83 107.66 93.34 C 107.48 93.73 107.11 94.50 106.93 94.88 C 106.08 93.82 105.21 92.76 104.35 91.70 C 103.82 92.87 103.28 94.04 102.76 95.21 C 106.00 99.05 105.64 105.85 102.20 109.44 C 102.69 106.30 103.16 103.15 103.56 99.99 C 102.22 100.44 100.88 100.88 99.55 101.31 L 100.06 100.18 C 101.05 99.06 102.04 97.96 103.04 96.86 C 101.84 97.22 100.65 97.60 99.46 98.00 C 99.69 97.59 100.15 96.78 100.37 96.38 C 101.36 94.31 102.98 92.37 103.07 90.00 C 102.76 87.63 101.67 85.46 100.83 83.25 C 99.58 84.50 98.20 85.62 96.65 86.48 C 97.80 84.74 98.92 82.98 100.08 81.25 Z" />
<path fill="#c9a170" opacity="1.00" d=" M 46.53 82.71 C 46.84 82.31 47.47 81.52 47.79 81.12 C 49.64 83.21 51.31 85.54 51.85 88.34 C 54.09 91.66 56.42 96.07 60.93 96.38 C 62.28 98.24 63.68 100.06 64.93 101.98 C 64.71 102.43 64.28 103.33 64.06 103.78 C 63.18 104.55 62.27 105.28 61.33 105.98 C 58.92 103.99 56.86 101.50 56.38 98.32 C 56.14 95.56 51.61 96.56 51.53 93.67 C 50.61 89.70 48.33 86.30 46.53 82.71 Z" />
<path fill="#dcbb81" opacity="1.00" d=" M 44.60 85.17 C 45.23 84.34 45.88 83.52 46.53 82.71 C 48.33 86.30 50.61 89.70 51.53 93.67 C 51.61 96.56 56.14 95.56 56.38 98.32 C 56.86 101.50 58.92 103.99 61.33 105.98 C 60.13 106.48 58.93 106.99 57.73 107.50 C 55.02 103.30 50.73 100.67 46.87 97.66 C 47.56 96.82 48.24 95.98 48.93 95.14 C 48.43 94.27 47.93 93.40 47.43 92.54 C 47.77 92.16 48.44 91.41 48.78 91.03 C 49.31 89.49 48.64 88.86 46.76 89.14 C 46.04 87.81 45.32 86.49 44.60 85.17 Z" />
<path fill="#5c1d2b" opacity="1.00" d=" M 96.65 86.48 C 98.20 85.62 99.58 84.50 100.83 83.25 C 101.67 85.46 102.76 87.63 103.07 90.00 C 102.98 92.37 101.36 94.31 100.37 96.38 C 100.28 93.19 100.99 88.94 97.29 87.50 C 97.02 87.32 96.47 86.96 96.20 86.78 L 96.65 86.48 Z" />
<path fill="#ead18f" opacity="1.00" d=" M 41.85 91.90 C 42.05 89.43 43.26 87.20 44.60 85.17 C 45.32 86.49 46.04 87.81 46.76 89.14 C 46.65 90.74 47.32 91.37 48.78 91.03 C 48.44 91.41 47.77 92.16 47.43 92.54 C 47.93 93.40 48.43 94.27 48.93 95.14 C 48.24 95.98 47.56 96.82 46.87 97.66 C 44.97 95.98 42.92 94.27 41.85 91.90 Z" />
<path fill="#b7835c" opacity="1.00" d=" M 113.16 88.33 C 115.78 87.46 118.55 87.16 121.27 87.77 C 119.00 91.99 116.62 96.21 113.65 99.98 C 113.17 100.16 112.20 100.51 111.71 100.69 C 110.54 99.46 109.48 98.14 108.43 96.81 C 110.21 94.11 111.82 91.28 113.16 88.33 Z" />
<path fill="#95383e" opacity="1.00" d=" M 86.58 94.82 C 90.17 92.41 93.75 89.98 97.29 87.50 C 100.99 88.94 100.28 93.19 100.37 96.38 C 100.15 96.78 99.69 97.59 99.46 98.00 C 98.58 98.80 97.71 99.61 96.86 100.44 C 96.42 99.20 95.99 97.97 95.59 96.72 C 95.07 95.09 94.60 93.45 94.14 91.80 C 91.68 92.97 89.16 93.98 86.58 94.82 Z" />
<path fill="#fbf7e3" opacity="1.00" d=" M 46.76 89.14 C 48.64 88.86 49.31 89.49 48.78 91.03 C 47.32 91.37 46.65 90.74 46.76 89.14 Z" />
<path fill="#fcf9e4" opacity="1.00" d=" M 138.15 91.30 C 139.94 90.65 141.50 93.91 139.39 94.44 C 137.23 95.77 135.70 91.28 138.15 91.30 Z" />
<path fill="#b86a4b" opacity="1.00" d=" M 67.94 92.50 C 68.99 91.95 69.91 92.14 70.70 93.04 C 70.90 94.18 70.49 95.07 69.47 95.71 C 68.96 94.64 68.43 93.58 67.94 92.50 Z" />
<path fill="#f4c394" opacity="1.00" d=" M 86.58 94.82 C 89.16 93.98 91.68 92.97 94.14 91.80 C 94.60 93.45 95.07 95.09 95.59 96.72 C 92.51 100.03 88.97 104.79 83.79 103.42 C 84.74 101.02 83.93 98.71 81.94 97.19 C 82.28 96.97 82.95 96.52 83.29 96.30 C 84.37 95.77 85.47 95.29 86.58 94.82 Z" />
<path fill="#ecc083" opacity="1.00" d=" M 70.78 99.02 C 70.29 97.07 70.82 93.33 73.55 93.92 C 73.04 97.20 73.16 100.54 74.13 103.73 C 74.82 102.16 75.28 100.51 75.79 98.88 C 76.14 98.65 76.82 98.20 77.16 97.98 C 76.99 100.01 76.94 102.09 77.48 104.08 C 78.86 104.42 80.25 104.72 81.64 105.04 C 82.09 105.43 82.99 106.20 83.44 106.58 C 80.37 106.72 77.30 106.47 74.23 106.60 L 73.61 106.59 C 75.23 108.92 76.59 111.46 77.08 114.29 C 74.69 112.36 72.76 109.94 71.48 107.14 C 72.29 106.39 73.11 105.63 73.93 104.88 C 72.40 103.22 70.67 101.47 70.78 99.02 Z" />
<path fill="#fce6a7" opacity="1.00" d=" M 74.13 103.73 C 73.16 100.54 73.04 97.20 73.55 93.92 C 74.66 95.59 76.44 96.47 78.18 97.29 C 77.93 97.46 77.41 97.80 77.16 97.98 C 76.82 98.20 76.14 98.65 75.79 98.88 C 75.28 100.51 74.82 102.16 74.13 103.73 Z" />
<path fill="#bc8363" opacity="1.00" d=" M 73.55 93.92 C 75.55 94.39 77.53 94.92 79.52 95.42 C 80.77 95.71 82.03 96.01 83.29 96.30 C 82.95 96.52 82.28 96.97 81.94 97.19 C 79.79 99.00 78.61 101.57 77.48 104.08 C 76.94 102.09 76.99 100.01 77.16 97.98 C 77.41 97.80 77.93 97.46 78.18 97.29 C 76.44 96.47 74.66 95.59 73.55 93.92 Z" />
<path fill="#e2a27e" opacity="1.00" d=" M 95.59 96.72 C 95.99 97.97 96.42 99.20 96.86 100.44 L 96.47 100.87 C 96.02 101.37 95.57 101.87 95.12 102.38 C 91.49 104.37 87.64 106.29 83.44 106.58 C 82.99 106.20 82.09 105.43 81.64 105.04 C 82.37 104.52 83.08 103.97 83.79 103.42 C 88.97 104.79 92.51 100.03 95.59 96.72 Z" />
<path fill="#531b25" opacity="1.00" d=" M 99.46 98.00 C 100.65 97.60 101.84 97.22 103.04 96.86 C 102.04 97.96 101.05 99.06 100.06 100.18 C 99.02 100.88 97.96 101.54 96.88 102.17 L 96.47 100.87 L 96.86 100.44 C 97.71 99.61 98.58 98.80 99.46 98.00 Z" />
<path fill="#984936" opacity="1.00" d=" M 77.48 104.08 C 78.61 101.57 79.79 99.00 81.94 97.19 C 83.93 98.71 84.74 101.02 83.79 103.42 C 83.08 103.97 82.37 104.52 81.64 105.04 C 80.25 104.72 78.86 104.42 77.48 104.08 Z" />
<path fill="#8a313a" opacity="1.00" d=" M 96.88 102.17 C 97.96 101.54 99.02 100.88 100.06 100.18 L 99.55 101.31 C 100.88 100.88 102.22 100.44 103.56 99.99 C 103.16 103.15 102.69 106.30 102.20 109.44 C 101.14 110.33 100.03 111.17 98.90 111.96 C 96.49 109.80 97.54 106.35 97.29 103.50 C 96.47 103.73 95.65 103.96 94.84 104.22 L 95.12 102.38 C 95.57 101.87 96.02 101.37 96.47 100.87 L 96.88 102.17 Z" />
<path fill="#b57854" opacity="1.00" d=" M 116.13 100.83 C 118.11 102.41 120.00 104.11 121.50 106.17 L 119.86 106.52 C 118.12 105.39 116.50 104.11 114.85 102.86 C 115.17 102.35 115.81 101.34 116.13 100.83 Z" />
<path fill="#733531" opacity="1.00" d=" M 83.44 106.58 C 87.64 106.29 91.49 104.37 95.12 102.38 L 94.84 104.22 C 92.27 105.68 89.59 106.94 86.78 107.88 C 85.39 108.18 84.00 108.49 82.61 108.83 C 79.74 108.41 76.96 107.56 74.23 106.60 C 77.30 106.47 80.37 106.72 83.44 106.58 Z" />
<path fill="#d1836d" opacity="1.00" d=" M 94.84 104.22 C 95.65 103.96 96.47 103.73 97.29 103.50 C 97.54 106.35 96.49 109.80 98.90 111.96 C 98.11 112.47 97.31 112.97 96.51 113.45 L 95.99 113.52 C 95.57 111.83 95.66 110.08 95.72 108.36 C 93.68 108.93 91.64 109.47 89.59 110.00 C 89.56 109.51 89.51 108.53 89.48 108.04 C 88.80 108.00 87.46 107.92 86.78 107.88 C 89.59 106.94 92.27 105.68 94.84 104.22 Z" />
<path fill="#fff1b3" opacity="1.00" d=" M 73.61 106.59 L 74.23 106.60 C 76.96 107.56 79.74 108.41 82.61 108.83 C 81.36 109.42 80.10 110.02 78.86 110.65 C 79.47 111.32 80.07 112.00 80.67 112.68 C 81.10 113.25 81.95 114.40 82.37 114.98 C 82.20 115.62 81.85 116.89 81.67 117.52 L 80.69 117.38 C 79.46 116.39 78.26 115.35 77.08 114.29 C 76.59 111.46 75.23 108.92 73.61 106.59 Z" />
<path fill="#f2be91" opacity="1.00" d=" M 82.61 108.83 C 84.00 108.49 85.39 108.18 86.78 107.88 C 87.46 107.92 88.80 108.00 89.48 108.04 C 89.51 108.53 89.56 109.51 89.59 110.00 C 91.64 109.47 93.68 108.93 95.72 108.36 C 95.66 110.08 95.57 111.83 95.99 113.52 L 96.12 114.12 C 91.60 116.24 86.75 117.98 81.67 117.52 C 81.85 116.89 82.20 115.62 82.37 114.98 C 84.31 116.38 87.21 115.41 87.67 113.04 C 88.01 111.01 85.76 110.47 84.23 110.31 C 83.87 111.40 84.53 113.15 83.13 113.65 C 82.29 113.37 81.47 113.05 80.67 112.68 C 80.07 112.00 79.47 111.32 78.86 110.65 C 80.10 110.02 81.36 109.42 82.61 108.83 Z" />
<path fill="#662e24" opacity="1.00" d=" M 84.23 110.31 C 85.76 110.47 88.01 111.01 87.67 113.04 C 87.21 115.41 84.31 116.38 82.37 114.98 C 81.95 114.40 81.10 113.25 80.67 112.68 C 81.47 113.05 82.29 113.37 83.13 113.65 C 84.53 113.15 83.87 111.40 84.23 110.31 Z" />
<path fill="#551681" opacity="1.00" d=" M 100.90 110.64 L 102.25 110.47 C 102.95 113.89 102.85 117.98 100.07 120.49 C 100.24 119.33 100.38 118.17 100.48 117.00 C 100.63 114.88 100.65 112.75 100.90 110.64 Z" />
<path fill="#96383e" opacity="1.00" d=" M 95.99 113.52 L 96.51 113.45 C 97.76 113.35 99.02 113.30 100.29 113.24 C 100.36 114.49 100.45 115.74 100.48 117.00 C 100.38 118.17 100.24 119.33 100.07 120.49 C 98.18 122.04 96.22 123.51 94.23 124.93 C 94.74 121.55 96.24 118.33 96.28 114.89 L 96.12 114.12 L 95.99 113.52 Z" />
<path fill="#e8ac85" opacity="1.00" d=" M 88.44 118.46 C 90.97 117.10 93.60 115.92 96.28 114.89 C 96.24 118.33 94.74 121.55 94.23 124.93 C 93.42 125.50 92.61 126.06 91.77 126.60 C 91.46 126.62 90.82 126.66 90.51 126.68 C 88.75 126.47 87.01 126.18 85.28 125.86 L 85.09 125.36 C 85.84 125.25 87.33 125.02 88.08 124.91 C 88.28 123.01 87.84 121.17 87.06 119.44 C 87.41 119.20 88.10 118.71 88.44 118.46 Z" />
<path fill="#f8e3b8" opacity="1.00" d=" M 79.15 117.75 C 82.18 118.57 85.32 118.65 88.44 118.46 C 88.10 118.71 87.41 119.20 87.06 119.44 C 85.87 120.15 84.65 120.79 83.43 121.43 C 83.68 122.50 83.94 123.57 84.21 124.64 C 83.90 124.82 83.28 125.17 82.97 125.35 C 81.31 123.03 79.31 120.74 79.15 117.75 Z" />
<path fill="#976643" opacity="1.00" d=" M 83.43 121.43 C 84.65 120.79 85.87 120.15 87.06 119.44 C 87.84 121.17 88.28 123.01 88.08 124.91 C 87.33 125.02 85.84 125.25 85.09 125.36 C 84.87 125.18 84.43 124.82 84.21 124.64 C 83.94 123.57 83.68 122.50 83.43 121.43 Z" />
<path fill="#eaca99" opacity="1.00" d=" M 85.28 125.86 C 87.01 126.18 88.75 126.47 90.51 126.68 L 90.19 127.27 C 89.26 127.43 87.41 127.76 86.48 127.92 C 86.74 128.50 87.26 129.65 87.51 130.22 C 87.24 130.66 86.70 131.53 86.43 131.96 C 87.08 132.07 88.38 132.28 89.03 132.39 C 89.33 130.93 89.65 129.48 90.01 128.04 C 90.25 129.35 90.48 130.66 90.69 131.98 C 90.68 132.25 90.66 132.78 90.64 133.04 C 89.89 133.94 89.14 134.85 88.41 135.78 C 88.08 139.89 85.96 143.58 85.43 147.66 C 83.90 155.39 80.62 162.67 79.37 170.44 C 79.29 170.97 79.12 172.04 79.04 172.57 C 78.72 170.69 78.54 168.77 78.93 166.89 C 80.12 160.64 81.09 154.34 82.52 148.14 C 83.71 142.87 85.86 137.72 85.54 132.23 C 84.75 130.90 83.97 129.55 83.19 128.22 C 86.08 129.70 85.35 127.13 85.28 125.86 Z" />
<path fill="#6b1e93" opacity="1.00" d=" M 93.84 126.41 C 96.06 125.55 95.57 129.17 94.11 129.69 C 94.04 128.87 93.91 127.23 93.84 126.41 Z" />
<path fill="#974345" opacity="1.00" d=" M 90.51 126.68 C 90.82 126.66 91.46 126.62 91.77 126.60 C 92.29 126.55 93.32 126.46 93.84 126.41 C 93.91 127.23 94.04 128.87 94.11 129.69 C 93.78 129.91 93.12 130.36 92.79 130.58 L 90.69 131.98 C 90.48 130.66 90.25 129.35 90.01 128.04 L 90.19 127.27 L 90.51 126.68 Z" />
<path fill="#6a4834" opacity="1.00" d=" M 86.48 127.92 C 87.41 127.76 89.26 127.43 90.19 127.27 L 90.01 128.04 C 89.65 129.48 89.33 130.93 89.03 132.39 C 88.38 132.28 87.08 132.07 86.43 131.96 C 86.70 131.53 87.24 130.66 87.51 130.22 C 87.26 129.65 86.74 128.50 86.48 127.92 Z" />
<path fill="#5f1e6c" opacity="1.00" d=" M 90.69 131.98 L 92.79 130.58 C 95.04 133.68 91.39 135.60 90.00 138.00 C 88.35 141.16 87.99 144.99 85.43 147.66 C 85.96 143.58 88.08 139.89 88.41 135.78 C 89.14 134.85 89.89 133.94 90.64 133.04 C 90.66 132.78 90.68 132.25 90.69 131.98 Z" />
</svg>
