<?xml version="1.0" encoding="UTF-8" ?>
<!DOCTYPE svg PUBLIC "-//W3C//DTD SVG 1.1//EN" "http://www.w3.org/Graphics/SVG/1.1/DTD/svg11.dtd">
<svg width="149pt" height="180pt" viewBox="0 0 149 180" version="1.1" xmlns="http://www.w3.org/2000/svg">
<path fill="#010001" opacity="1.00" d=" M 77.18 25.81 C 97.93 10.49 123.49 2.59 149.00 0.41 L 149.00 1.38 C 147.66 8.47 147.22 15.82 144.60 22.60 C 141.58 28.85 135.89 33.18 130.96 37.86 C 133.65 38.05 136.33 38.22 139.02 38.39 C 130.61 51.60 116.57 60.30 101.87 64.97 C 98.55 65.98 95.19 66.83 91.93 68.01 C 95.56 70.84 100.21 71.21 104.41 72.70 C 106.16 75.62 105.27 79.21 105.77 82.42 C 102.18 83.48 98.43 83.32 94.77 82.69 C 96.83 87.06 94.24 92.48 90.01 94.40 C 84.37 97.07 80.30 102.55 74.01 103.90 C 72.62 103.70 71.36 103.06 70.07 102.56 C 67.37 105.15 63.54 107.51 63.66 111.76 C 62.59 117.09 65.63 121.83 66.57 126.85 C 65.30 131.47 62.67 135.58 61.04 140.07 C 61.86 135.67 62.76 131.28 63.97 126.97 C 64.73 124.89 63.57 122.83 62.64 121.03 C 62.49 120.75 62.20 120.19 62.05 119.91 L 61.70 119.24 C 61.31 117.35 60.95 115.45 60.74 113.53 C 61.46 110.59 62.48 107.71 63.95 105.05 C 64.49 104.39 65.04 103.74 65.60 103.10 C 64.64 102.89 63.68 102.67 62.72 102.46 C 62.51 100.64 62.30 98.82 62.08 97.00 C 60.92 97.08 59.77 97.17 58.61 97.26 C 55.21 97.47 51.60 97.81 48.97 100.23 C 48.90 99.65 48.75 98.49 48.68 97.91 C 47.92 98.16 47.17 98.43 46.43 98.72 C 44.64 99.77 42.34 100.54 41.63 102.70 C 40.90 104.74 39.74 106.53 38.11 107.97 C 38.98 108.73 39.84 109.49 40.71 110.25 C 40.12 110.10 38.95 109.78 38.37 109.62 C 38.99 111.74 39.66 113.85 40.38 115.95 C 42.24 115.76 44.10 115.56 45.94 115.19 C 46.51 114.89 47.65 114.29 48.22 113.99 C 49.61 113.22 50.97 112.40 52.39 111.69 C 51.85 113.44 51.29 115.19 50.81 116.95 C 50.12 121.50 51.33 126.10 50.57 130.65 C 49.85 134.78 49.06 138.90 48.06 142.98 C 45.89 150.31 44.06 157.73 42.00 165.09 C 40.90 169.19 39.27 173.20 39.10 177.49 C 39.52 177.30 40.38 176.94 40.81 176.76 C 43.00 175.88 44.62 174.13 46.31 172.55 L 47.16 171.89 C 46.41 176.03 42.59 177.97 39.37 180.00 L 37.85 180.00 C 37.64 177.57 37.36 175.11 37.80 172.68 C 39.75 161.11 44.58 150.28 46.94 138.80 C 48.20 134.01 49.82 129.14 49.23 124.12 C 48.85 121.75 48.44 119.38 48.34 116.99 C 45.33 117.61 42.29 118.50 39.19 118.17 C 36.42 115.94 36.83 111.11 33.29 109.74 C 26.99 107.20 20.69 104.57 14.71 101.34 C 10.76 99.17 8.10 95.33 6.54 91.19 C 8.60 90.68 10.67 90.25 12.74 89.83 C 12.56 88.29 12.38 86.76 12.21 85.22 C 17.02 84.55 21.97 83.96 26.21 81.39 C 30.36 80.01 34.57 78.26 36.79 74.21 C 31.57 72.74 26.21 71.36 21.60 68.37 C 15.72 64.96 11.36 59.32 8.86 53.08 C 9.22 51.39 11.47 51.12 12.68 50.16 C 7.99 42.65 2.70 35.29 0.21 26.68 C 9.68 24.24 19.23 27.64 27.93 31.21 C 29.58 26.99 30.96 22.60 30.77 18.00 C 30.31 14.82 33.12 12.88 35.28 11.13 C 36.95 9.75 39.23 10.01 41.24 9.68 C 45.33 9.23 48.88 6.71 52.95 6.22 C 57.10 7.43 60.58 10.37 64.93 11.13 C 67.76 16.95 73.33 20.71 77.18 25.81 M 134.63 4.24 C 120.87 6.88 107.52 11.62 95.06 18.01 C 88.89 21.43 82.99 25.39 77.78 30.16 C 76.98 30.87 76.18 31.57 75.38 32.28 C 75.27 30.08 75.30 27.71 74.22 25.74 C 72.33 23.32 69.71 21.62 67.47 19.55 C 68.10 19.36 69.35 18.97 69.98 18.77 L 69.04 18.83 C 67.69 16.89 65.58 15.94 63.27 15.90 L 63.47 15.28 L 64.03 14.63 L 63.64 13.81 C 64.82 12.12 61.16 10.83 60.18 12.19 L 60.16 12.86 C 58.65 12.94 56.76 15.03 58.18 16.37 L 57.26 16.06 C 57.24 15.29 57.21 13.75 57.20 12.98 L 57.79 12.91 C 57.94 12.54 58.25 11.80 58.40 11.43 C 56.62 9.19 54.11 7.42 51.14 7.42 C 51.15 8.24 51.19 9.87 51.20 10.69 L 51.80 10.93 C 52.74 12.59 53.81 14.21 55.27 15.46 L 53.91 15.56 C 54.01 16.14 54.22 17.31 54.32 17.89 L 53.73 17.92 C 53.39 14.77 51.66 12.09 50.24 9.34 C 46.89 9.75 43.58 10.52 40.60 12.15 C 40.19 12.42 39.36 12.96 38.95 13.23 C 38.67 12.60 38.13 11.33 37.86 10.70 C 33.80 13.17 31.08 17.75 32.91 22.52 L 32.15 23.17 L 32.67 23.75 C 30.51 27.18 29.70 31.67 30.13 35.66 C 29.55 38.14 28.99 40.64 28.89 43.20 C 28.24 40.70 29.11 37.98 28.33 35.56 C 25.25 33.09 21.45 31.78 17.83 30.32 C 13.15 28.58 8.19 27.68 3.20 27.60 C 4.57 32.09 6.54 36.35 8.30 40.69 L 8.99 40.80 C 12.14 49.08 19.67 54.92 27.48 58.57 L 27.57 59.19 C 31.65 61.25 35.82 63.29 40.38 64.03 L 40.12 62.99 C 40.37 63.19 40.86 63.60 41.11 63.80 L 41.00 64.68 C 38.12 63.97 35.22 63.31 32.36 62.51 C 30.61 61.50 28.84 60.54 27.04 59.61 C 22.35 56.76 17.96 52.39 11.97 53.30 C 15.02 58.78 18.97 63.94 24.43 67.20 C 25.93 67.93 27.44 68.66 28.94 69.40 C 32.43 70.48 37.09 73.61 40.29 70.64 C 39.37 72.72 38.46 74.81 37.83 76.99 C 35.05 80.23 31.25 82.03 27.01 82.35 C 27.07 83.02 27.20 84.37 27.27 85.04 C 23.10 85.78 18.95 86.64 14.86 87.72 C 15.71 89.11 16.60 90.49 17.44 91.90 L 17.82 91.54 C 19.17 92.45 20.18 95.02 22.08 94.47 L 21.29 94.95 C 23.50 96.31 25.78 97.56 28.13 98.67 C 28.28 97.81 28.58 96.08 28.72 95.22 C 29.41 95.51 30.10 95.82 30.79 96.11 C 32.10 96.71 33.43 97.26 34.77 97.76 C 37.73 98.90 40.90 99.28 44.02 99.70 C 44.04 99.11 44.08 97.93 44.10 97.34 C 46.67 97.49 49.24 97.51 51.82 97.39 C 57.64 96.69 63.89 96.69 68.86 93.14 C 72.85 92.52 76.71 91.46 80.06 89.07 C 77.69 91.19 75.15 93.54 71.82 93.81 C 68.97 94.12 66.27 95.11 63.82 96.58 L 62.78 96.11 C 62.81 98.15 62.90 100.19 63.04 102.23 C 65.36 101.61 67.64 100.84 69.80 99.79 C 71.64 99.66 74.08 98.76 74.72 101.23 C 76.90 100.12 78.99 98.86 81.02 97.50 C 84.06 94.93 87.20 92.37 89.38 88.99 C 89.78 89.97 90.19 90.94 90.60 91.92 C 91.57 90.43 92.52 88.94 93.47 87.44 C 92.82 87.44 91.53 87.45 90.88 87.46 C 91.63 85.52 92.38 83.58 93.10 81.64 C 93.62 81.17 94.11 80.68 94.58 80.16 C 95.25 80.22 96.59 80.35 97.27 80.41 C 97.91 82.18 103.39 81.39 101.02 79.72 C 100.89 79.31 100.64 78.50 100.51 78.10 C 101.78 77.77 103.05 77.44 104.32 77.11 C 103.63 76.36 102.93 75.62 102.24 74.87 C 101.00 74.22 99.78 73.07 98.27 73.55 C 95.43 71.66 92.52 69.76 89.23 68.76 C 87.02 65.64 85.07 62.31 82.51 59.45 C 80.66 58.19 78.17 58.77 76.05 58.79 L 75.30 59.07 C 75.37 58.67 75.50 57.86 75.56 57.45 C 74.61 57.17 73.69 56.82 72.80 56.40 C 81.31 55.38 89.54 52.88 97.90 51.08 L 97.78 50.52 C 106.60 48.22 114.98 44.36 123.00 40.08 C 125.59 38.78 128.17 37.35 130.21 35.24 L 131.02 35.26 C 134.27 32.42 137.52 29.54 140.02 25.98 C 143.59 19.72 145.16 12.56 145.60 5.41 C 145.74 4.53 145.88 3.64 146.02 2.75 C 142.22 3.25 138.41 3.60 134.63 4.24 M 122.05 41.94 L 121.69 41.56 C 114.78 45.15 107.53 48.05 100.21 50.70 C 97.12 51.77 93.97 52.65 90.82 53.52 C 85.80 54.66 80.71 55.50 75.75 56.89 C 77.75 58.42 80.37 58.19 82.72 58.55 C 84.44 60.80 85.79 63.42 88.04 65.19 C 90.27 65.24 92.49 64.89 94.70 64.65 C 97.95 63.76 101.18 62.77 104.30 61.51 C 112.71 57.97 120.81 53.65 128.03 48.03 C 130.86 45.83 133.53 43.36 135.36 40.24 C 130.94 40.34 125.94 39.30 122.05 41.94 M 9.62 92.58 C 11.34 96.71 15.16 99.21 18.94 101.24 C 22.69 103.06 26.57 104.60 30.57 105.78 C 33.11 102.79 36.68 105.63 39.80 104.85 C 40.92 103.35 41.35 101.51 41.76 99.73 C 38.83 98.92 36.35 100.24 34.20 102.09 C 34.97 101.07 35.74 100.04 36.50 99.02 C 34.97 98.51 33.46 97.93 31.89 97.55 C 30.58 97.99 29.35 98.64 28.04 99.05 C 25.94 98.54 24.09 97.37 22.17 96.43 C 20.14 94.79 18.17 93.08 16.23 91.32 C 14.03 91.76 11.82 92.16 9.62 92.58 Z" />
<path fill="#ebc7df" opacity="1.00" d=" M 134.63 4.24 C 138.41 3.60 142.22 3.25 146.02 2.75 C 145.88 3.64 145.74 4.53 145.60 5.41 C 139.70 5.38 137.28 11.29 134.34 15.36 C 131.97 18.94 129.00 22.07 126.72 25.71 C 124.78 28.74 124.33 32.38 123.77 35.85 C 122.70 36.13 121.63 36.41 120.56 36.71 C 119.07 37.11 117.58 37.50 116.08 37.88 C 118.09 32.14 119.22 25.93 122.92 20.95 C 126.92 15.45 130.94 9.96 134.63 4.24 Z" />
<path fill="#eeecfb" opacity="1.00" d=" M 95.06 18.01 C 107.52 11.62 120.87 6.88 134.63 4.24 C 130.94 9.96 126.92 15.45 122.92 20.95 C 119.22 25.93 118.09 32.14 116.08 37.88 C 111.71 38.92 107.38 40.11 103.04 41.26 C 98.86 39.34 94.33 36.57 93.24 31.75 C 92.17 27.50 95.02 23.77 96.99 20.29 C 96.34 19.53 95.70 18.77 95.06 18.01 Z" />
<path fill="#e9a8c7" opacity="1.00" d=" M 134.34 15.36 C 137.28 11.29 139.70 5.38 145.60 5.41 C 145.16 12.56 143.59 19.72 140.02 25.98 C 139.25 24.83 138.48 23.68 137.71 22.53 C 132.90 25.49 129.51 30.11 127.13 35.16 C 126.00 35.35 124.88 35.58 123.77 35.85 C 124.33 32.38 124.78 28.74 126.72 25.71 C 129.00 22.07 131.97 18.94 134.34 15.36 Z" />
<path fill="#e7e8f7" opacity="1.00" d=" M 51.14 7.42 C 54.11 7.42 56.62 9.19 58.40 11.43 C 58.25 11.80 57.94 12.54 57.79 12.91 L 57.20 12.98 C 55.38 12.34 53.59 11.63 51.80 10.93 L 51.20 10.69 C 51.19 9.87 51.15 8.24 51.14 7.42 Z" />
<path fill="#e64669" opacity="1.00" d=" M 40.60 12.15 C 43.58 10.52 46.89 9.75 50.24 9.34 C 51.66 12.09 53.39 14.77 53.73 17.92 L 54.32 17.89 C 55.71 17.83 57.09 17.68 58.47 17.49 L 59.31 17.36 C 58.74 17.85 58.16 18.35 57.59 18.84 C 58.24 21.35 58.38 23.94 58.05 26.51 C 56.58 25.65 55.09 24.79 53.83 23.63 C 55.61 23.56 56.27 20.41 54.12 20.47 C 51.57 19.71 49.09 20.75 46.80 21.80 C 44.34 18.85 42.26 15.61 40.60 12.15 Z" />
<path fill="#df4368" opacity="1.00" d=" M 32.91 22.52 C 31.08 17.75 33.80 13.17 37.86 10.70 C 38.13 11.33 38.67 12.60 38.95 13.23 C 39.65 14.84 40.37 16.45 41.15 18.04 C 38.27 19.26 35.36 20.53 32.91 22.52 Z" />
<path fill="#5b57d6" opacity="1.00" d=" M 51.80 10.93 C 53.59 11.63 55.38 12.34 57.20 12.98 C 57.21 13.75 57.24 15.29 57.26 16.06 C 56.76 15.91 55.77 15.61 55.27 15.46 C 53.81 14.21 52.74 12.59 51.80 10.93 Z" />
<path fill="#591e4c" opacity="1.00" d=" M 38.95 13.23 C 39.36 12.96 40.19 12.42 40.60 12.15 C 42.26 15.61 44.34 18.85 46.80 21.80 C 49.09 20.75 51.57 19.71 54.12 20.47 C 53.10 21.54 53.00 22.59 53.83 23.63 C 55.09 24.79 56.58 25.65 58.05 26.51 C 58.38 23.94 58.24 21.35 57.59 18.84 C 58.16 18.35 58.74 17.85 59.31 17.36 C 60.54 17.16 61.76 16.93 62.98 16.68 C 62.72 17.33 62.20 18.64 61.94 19.30 C 61.39 19.34 60.31 19.44 59.76 19.48 C 60.69 21.75 61.47 24.11 62.81 26.18 C 64.42 28.28 66.98 29.37 68.74 31.32 C 70.24 34.80 69.96 38.74 70.55 42.43 C 73.40 38.71 74.87 33.54 72.79 29.12 C 70.48 25.44 66.97 22.74 63.83 19.82 C 65.04 19.74 66.26 19.66 67.47 19.55 C 69.71 21.62 72.33 23.32 74.22 25.74 C 75.30 27.71 75.27 30.08 75.38 32.28 C 75.19 33.80 74.91 35.31 74.57 36.81 C 73.86 38.81 72.95 40.74 72.03 42.64 C 69.19 44.09 66.45 45.74 63.98 47.76 L 63.38 47.60 C 62.19 47.35 60.99 47.11 59.80 46.89 C 60.34 44.22 61.73 41.90 63.75 40.10 C 64.89 39.24 64.35 37.72 64.46 36.52 C 64.79 36.30 65.45 35.86 65.78 35.64 C 66.13 37.78 66.65 39.87 67.25 41.95 C 67.82 39.49 68.08 36.95 67.44 34.47 C 67.12 33.18 66.81 31.88 66.26 30.67 C 64.91 30.19 63.51 29.93 62.13 29.60 C 61.88 31.05 61.62 32.50 61.45 33.96 C 60.59 33.77 59.73 33.58 58.86 33.38 C 57.77 34.74 56.80 36.27 55.31 37.24 C 53.80 37.32 52.30 37.07 50.80 36.92 L 51.87 36.82 C 54.80 37.14 56.97 35.80 57.73 32.90 C 56.54 29.66 53.43 30.97 50.91 31.54 C 50.86 31.01 50.76 29.94 50.71 29.41 C 48.21 30.32 45.66 31.05 43.12 31.81 C 42.98 30.70 42.91 29.59 42.83 28.48 C 40.54 29.24 38.32 30.23 36.35 31.62 C 33.79 38.70 36.42 46.13 40.84 51.81 C 37.34 51.83 33.98 50.81 30.89 49.23 C 30.14 47.25 29.25 45.30 28.89 43.20 C 28.99 40.64 29.55 38.14 30.13 35.66 C 31.14 39.90 32.83 43.98 35.39 47.52 C 33.44 39.73 32.68 31.76 32.67 23.75 C 34.03 25.24 35.37 26.76 36.72 28.25 C 37.05 26.53 37.39 24.81 37.70 23.09 C 39.74 24.65 41.83 26.15 44.00 27.54 C 42.73 25.44 41.39 23.38 40.03 21.33 C 41.04 21.46 42.04 21.58 43.05 21.71 C 42.55 20.74 42.04 19.78 41.55 18.82 L 41.15 18.04 C 40.37 16.45 39.65 14.84 38.95 13.23 M 49.65 22.17 C 48.87 23.72 51.51 25.21 52.74 24.30 C 53.65 22.70 50.89 20.99 49.65 22.17 M 49.54 27.55 C 51.96 29.58 55.08 29.88 58.11 29.82 C 56.97 28.61 55.97 27.18 54.49 26.35 C 52.75 25.64 51.12 27.01 49.54 27.55 Z" />
<path fill="#eeecfb" opacity="1.00" d=" M 60.18 12.19 C 61.16 10.83 64.82 12.12 63.64 13.81 C 63.26 13.93 62.49 14.18 62.10 14.31 L 61.35 14.07 C 61.05 13.77 60.46 13.17 60.16 12.86 L 60.18 12.19 Z" />
<path fill="#ebaf15" opacity="1.00" d=" M 58.18 16.37 C 56.76 15.03 58.65 12.94 60.16 12.86 C 60.46 13.17 61.05 13.77 61.35 14.07 C 60.38 14.96 59.32 15.74 58.18 16.37 Z" />
<path fill="#b2351d" opacity="1.00" d=" M 61.35 14.07 L 62.10 14.31 C 62.44 14.55 63.12 15.04 63.47 15.28 L 63.27 15.90 L 62.98 16.68 C 61.76 16.93 60.54 17.16 59.31 17.36 L 58.47 17.49 L 58.18 16.37 C 59.32 15.74 60.38 14.96 61.35 14.07 Z" />
<path fill="#636aec" opacity="1.00" d=" M 62.10 14.31 C 62.49 14.18 63.26 13.93 63.64 13.81 L 64.03 14.63 L 63.47 15.28 C 63.12 15.04 62.44 14.55 62.10 14.31 Z" />
<path fill="#b9c0f1" opacity="1.00" d=" M 53.91 15.56 L 55.27 15.46 C 55.77 15.61 56.76 15.91 57.26 16.06 L 58.18 16.37 L 58.47 17.49 C 57.09 17.68 55.71 17.83 54.32 17.89 C 54.22 17.31 54.01 16.14 53.91 15.56 Z" />
<path fill="#b7bcea" opacity="1.00" d=" M 63.27 15.90 C 65.58 15.94 67.69 16.89 69.04 18.83 C 66.68 19.01 64.31 19.16 61.94 19.30 C 62.20 18.64 62.72 17.33 62.98 16.68 L 63.27 15.90 Z" />
<path fill="#f2a497" opacity="1.00" d=" M 32.91 22.52 C 35.36 20.53 38.27 19.26 41.15 18.04 L 41.55 18.82 C 38.64 20.69 35.56 22.40 32.15 23.17 L 32.91 22.52 Z" />
<path fill="#e24572" opacity="1.00" d=" M 69.04 18.83 L 69.98 18.77 C 69.35 18.97 68.10 19.36 67.47 19.55 C 66.26 19.66 65.04 19.74 63.83 19.82 C 66.97 22.74 70.48 25.44 72.79 29.12 C 74.87 33.54 73.40 38.71 70.55 42.43 C 69.96 38.74 70.24 34.80 68.74 31.32 C 66.98 29.37 64.42 28.28 62.81 26.18 C 61.47 24.11 60.69 21.75 59.76 19.48 C 60.31 19.44 61.39 19.34 61.94 19.30 C 64.31 19.16 66.68 19.01 69.04 18.83 Z" />
<path fill="#d1d3f9" opacity="1.00" d=" M 77.78 30.16 C 82.99 25.39 88.89 21.43 95.06 18.01 C 95.70 18.77 96.34 19.53 96.99 20.29 C 95.02 23.77 92.17 27.50 93.24 31.75 C 94.33 36.57 98.86 39.34 103.04 41.26 C 100.38 41.92 97.71 42.52 95.09 43.30 C 88.62 39.92 82.89 35.34 77.78 30.16 Z" />
<path fill="#d14267" opacity="1.00" d=" M 41.55 18.82 C 42.04 19.78 42.55 20.74 43.05 21.71 C 42.04 21.58 41.04 21.46 40.03 21.33 C 41.39 23.38 42.73 25.44 44.00 27.54 C 41.83 26.15 39.74 24.65 37.70 23.09 C 37.39 24.81 37.05 26.53 36.72 28.25 C 35.37 26.76 34.03 25.24 32.67 23.75 L 32.15 23.17 C 35.56 22.40 38.64 20.69 41.55 18.82 Z" />
<path fill="#f78294" opacity="1.00" d=" M 53.83 23.63 C 53.00 22.59 53.10 21.54 54.12 20.47 C 56.27 20.41 55.61 23.56 53.83 23.63 Z" />
<path fill="#e2507b" opacity="1.00" d=" M 49.65 22.17 C 50.89 20.99 53.65 22.70 52.74 24.30 C 51.51 25.21 48.87 23.72 49.65 22.17 Z" />
<path fill="#dd91be" opacity="1.00" d=" M 127.13 35.16 C 129.51 30.11 132.90 25.49 137.71 22.53 C 138.48 23.68 139.25 24.83 140.02 25.98 C 137.52 29.54 134.27 32.42 131.02 35.26 L 130.21 35.24 C 129.44 35.22 127.90 35.18 127.13 35.16 Z" />
<path fill="#ee5c79" opacity="1.00" d=" M 30.13 35.66 C 29.70 31.67 30.51 27.18 32.67 23.75 C 32.68 31.76 33.44 39.73 35.39 47.52 C 32.83 43.98 31.14 39.90 30.13 35.66 Z" />
<path fill="#010001" opacity="1.00" d=" M 49.54 27.55 C 51.12 27.01 52.75 25.64 54.49 26.35 C 55.97 27.18 56.97 28.61 58.11 29.82 C 55.08 29.88 51.96 29.58 49.54 27.55 Z" />
<path fill="#d197cc" opacity="1.00" d=" M 3.20 27.60 C 8.19 27.68 13.15 28.58 17.83 30.32 C 16.40 34.03 15.41 37.89 14.90 41.84 C 12.95 41.40 10.97 41.11 8.99 40.80 L 8.30 40.69 C 6.54 36.35 4.57 32.09 3.20 27.60 Z" />
<path fill="#69353a" opacity="1.00" d=" M 36.35 31.62 C 38.32 30.23 40.54 29.24 42.83 28.48 C 42.91 29.59 42.98 30.70 43.12 31.81 C 43.19 32.20 43.33 32.98 43.41 33.37 C 42.42 33.03 41.01 33.35 40.77 34.51 C 40.59 34.93 40.24 35.79 40.07 36.21 C 39.34 35.41 38.61 34.60 37.87 33.81 C 37.49 33.27 36.73 32.17 36.35 31.62 Z" />
<path fill="#feeada" opacity="1.00" d=" M 43.12 31.81 C 45.66 31.05 48.21 30.32 50.71 29.41 C 50.76 29.94 50.86 31.01 50.91 31.54 C 51.02 32.23 51.23 33.61 51.34 34.30 C 51.47 34.93 51.73 36.19 51.87 36.82 L 50.80 36.92 C 52.30 37.07 53.80 37.32 55.31 37.24 C 56.80 36.27 57.77 34.74 58.86 33.38 C 59.73 33.58 60.59 33.77 61.45 33.96 C 61.37 35.45 61.37 36.95 61.36 38.44 C 56.06 43.38 48.08 46.27 41.00 44.01 C 39.52 40.77 38.79 37.24 37.87 33.81 C 38.61 34.60 39.34 35.41 40.07 36.21 C 40.60 37.57 41.14 38.91 41.69 40.26 C 42.38 39.03 43.08 37.80 43.67 36.52 C 43.83 35.47 43.74 34.42 43.41 33.37 C 43.33 32.98 43.19 32.20 43.12 31.81 Z" />
<path fill="#ee818a" opacity="1.00" d=" M 62.13 29.60 C 63.51 29.93 64.91 30.19 66.26 30.67 C 66.81 31.88 67.12 33.18 67.44 34.47 C 67.02 34.77 66.19 35.35 65.78 35.64 C 65.45 35.86 64.79 36.30 64.46 36.52 C 63.42 37.15 62.39 37.79 61.36 38.44 C 61.37 36.95 61.37 35.45 61.45 33.96 C 61.62 32.50 61.88 31.05 62.13 29.60 Z" />
<path fill="#babcf6" opacity="1.00" d=" M 75.38 32.28 C 76.18 31.57 76.98 30.87 77.78 30.16 C 82.89 35.34 88.62 39.92 95.09 43.30 C 93.34 43.84 91.63 44.48 89.90 45.07 L 89.02 45.30 C 83.27 44.39 78.85 40.43 74.57 36.81 C 74.91 35.31 75.19 33.80 75.38 32.28 Z" />
<path fill="#c5b7eb" opacity="1.00" d=" M 14.90 41.84 C 15.41 37.89 16.40 34.03 17.83 30.32 C 21.45 31.78 25.25 33.09 28.33 35.56 C 29.11 37.98 28.24 40.70 28.89 43.20 C 29.25 45.30 30.14 47.25 30.89 49.23 C 28.96 48.38 27.02 47.57 25.08 46.77 C 21.66 45.18 18.43 43.20 14.90 41.84 Z" />
<path fill="#2172ce" opacity="1.00" d=" M 50.91 31.54 C 53.43 30.97 56.54 29.66 57.73 32.90 C 55.60 33.37 53.47 33.81 51.34 34.30 C 51.23 33.61 51.02 32.23 50.91 31.54 Z" />
<path fill="#3b1436" opacity="1.00" d=" M 40.84 51.81 C 36.42 46.13 33.79 38.70 36.35 31.62 C 36.73 32.17 37.49 33.27 37.87 33.81 C 38.79 37.24 39.52 40.77 41.00 44.01 C 48.08 46.27 56.06 43.38 61.36 38.44 C 62.39 37.79 63.42 37.15 64.46 36.52 C 64.35 37.72 64.89 39.24 63.75 40.10 C 61.73 41.90 60.34 44.22 59.80 46.89 C 58.91 47.27 58.03 47.65 57.14 48.01 C 56.66 46.45 56.18 44.90 55.70 43.35 C 52.26 44.24 51.70 47.50 51.35 50.56 C 49.84 51.36 48.33 52.17 46.81 52.95 C 46.85 52.48 46.94 51.54 46.99 51.07 C 47.63 50.45 48.27 49.84 48.92 49.23 C 46.60 49.46 44.28 49.65 41.95 49.69 C 41.58 50.40 41.21 51.10 40.84 51.81 Z" />
<path fill="#010203" opacity="1.00" d=" M 40.77 34.51 C 41.01 33.35 42.42 33.03 43.41 33.37 C 43.74 34.42 43.83 35.47 43.67 36.52 C 42.68 35.89 41.70 35.22 40.77 34.51 Z" />
<path fill="#7ed5f3" opacity="1.00" d=" M 51.34 34.30 C 53.47 33.81 55.60 33.37 57.73 32.90 C 56.97 35.80 54.80 37.14 51.87 36.82 C 51.73 36.19 51.47 34.93 51.34 34.30 Z" />
<path fill="#65a2c6" opacity="1.00" d=" M 40.77 34.51 C 41.70 35.22 42.68 35.89 43.67 36.52 C 43.08 37.80 42.38 39.03 41.69 40.26 C 41.14 38.91 40.60 37.57 40.07 36.21 C 40.24 35.79 40.59 34.93 40.77 34.51 Z" />
<path fill="#b13770" opacity="1.00" d=" M 65.78 35.64 C 66.19 35.35 67.02 34.77 67.44 34.47 C 68.08 36.95 67.82 39.49 67.25 41.95 C 66.65 39.87 66.13 37.78 65.78 35.64 Z" />
<path fill="#a878ca" opacity="1.00" d=" M 123.77 35.85 C 124.88 35.58 126.00 35.35 127.13 35.16 C 127.90 35.18 129.44 35.22 130.21 35.24 C 128.17 37.35 125.59 38.78 123.00 40.08 C 122.27 39.58 121.55 39.09 120.82 38.60 C 120.76 38.12 120.63 37.18 120.56 36.71 C 121.63 36.41 122.70 36.13 123.77 35.85 Z" />
<path fill="#a2a5f2" opacity="1.00" d=" M 72.03 42.64 C 72.95 40.74 73.86 38.81 74.57 36.81 C 78.85 40.43 83.27 44.39 89.02 45.30 C 86.43 45.96 83.83 47.07 81.11 46.82 C 77.80 46.18 74.94 44.26 72.03 42.64 Z" />
<path fill="#a0a2f2" opacity="1.00" d=" M 116.08 37.88 C 117.58 37.50 119.07 37.11 120.56 36.71 C 120.63 37.18 120.76 38.12 120.82 38.60 C 121.55 39.09 122.27 39.58 123.00 40.08 C 114.98 44.36 106.60 48.22 97.78 50.52 C 97.39 48.73 97.01 46.94 96.62 45.15 C 94.38 45.08 92.14 45.00 89.90 45.07 C 91.63 44.48 93.34 43.84 95.09 43.30 C 97.71 42.52 100.38 41.92 103.04 41.26 C 107.38 40.11 111.71 38.92 116.08 37.88 Z" />
<path fill="#bd8fd8" opacity="1.00" d=" M 122.05 41.94 C 125.94 39.30 130.94 40.34 135.36 40.24 C 133.53 43.36 130.86 45.83 128.03 48.03 C 125.99 46.05 124.00 44.02 122.05 41.94 Z" />
<path fill="#8f6bd8" opacity="1.00" d=" M 8.99 40.80 C 10.97 41.11 12.95 41.40 14.90 41.84 C 18.43 43.20 21.66 45.18 25.08 46.77 C 22.66 46.52 20.20 46.31 17.77 46.66 C 17.67 46.93 17.45 47.47 17.35 47.74 C 20.79 51.29 27.71 52.56 27.48 58.57 C 19.67 54.92 12.14 49.08 8.99 40.80 Z" />
<path fill="#aeaef2" opacity="1.00" d=" M 100.21 50.70 C 107.53 48.05 114.78 45.15 121.69 41.56 L 122.05 41.94 C 124.00 44.02 125.99 46.05 128.03 48.03 C 120.81 53.65 112.71 57.97 104.30 61.51 C 103.61 57.68 102.21 54.03 100.21 50.70 Z" />
<path fill="#8b91f0" opacity="1.00" d=" M 63.98 47.76 C 66.45 45.74 69.19 44.09 72.03 42.64 C 74.94 44.26 77.80 46.18 81.11 46.82 C 83.83 47.07 86.43 45.96 89.02 45.30 L 89.90 45.07 C 92.14 45.00 94.38 45.08 96.62 45.15 C 97.01 46.94 97.39 48.73 97.78 50.52 L 97.90 51.08 C 89.54 52.88 81.31 55.38 72.80 56.40 C 72.46 56.21 71.76 55.85 71.42 55.66 C 71.24 55.36 70.89 54.75 70.71 54.44 C 69.30 51.49 66.94 49.13 63.98 47.76 Z" />
<path fill="#f38590" opacity="1.00" d=" M 51.35 50.56 C 51.70 47.50 52.26 44.24 55.70 43.35 C 56.18 44.90 56.66 46.45 57.14 48.01 C 54.32 49.92 52.04 52.53 49.08 54.24 C 48.46 54.44 47.22 54.82 46.60 55.01 C 46.18 54.83 45.34 54.47 44.91 54.29 C 45.17 53.72 45.69 52.59 45.95 52.02 C 46.21 51.78 46.73 51.31 46.99 51.07 C 46.94 51.54 46.85 52.48 46.81 52.95 C 48.33 52.17 49.84 51.36 51.35 50.56 Z" />
<path fill="#6a6eec" opacity="1.00" d=" M 17.77 46.66 C 20.20 46.31 22.66 46.52 25.08 46.77 C 27.02 47.57 28.96 48.38 30.89 49.23 C 33.98 50.81 37.34 51.83 40.84 51.81 C 41.21 51.10 41.58 50.40 41.95 49.69 C 44.28 49.65 46.60 49.46 48.92 49.23 C 48.27 49.84 47.63 50.45 46.99 51.07 C 46.73 51.31 46.21 51.78 45.95 52.02 C 44.69 51.93 43.71 52.36 43.02 53.31 C 42.73 53.73 42.15 54.58 41.86 55.00 C 40.72 55.17 39.58 55.33 38.44 55.48 C 39.01 57.98 39.48 60.51 40.12 62.99 L 40.38 64.03 C 35.82 63.29 31.65 61.25 27.57 59.19 L 27.48 58.57 C 27.71 52.56 20.79 51.29 17.35 47.74 C 17.45 47.47 17.67 46.93 17.77 46.66 Z" />
<path fill="#fee4d5" opacity="1.00" d=" M 57.14 48.01 C 58.03 47.65 58.91 47.27 59.80 46.89 C 60.99 47.11 62.19 47.35 63.38 47.60 C 65.83 51.06 62.90 54.61 60.55 57.17 C 60.17 56.69 59.40 55.73 59.02 55.24 C 57.33 55.35 55.46 55.97 53.95 54.91 C 54.80 52.52 56.06 50.30 57.14 48.01 Z" />
<path fill="#6e5f5e" opacity="1.00" d=" M 49.08 54.24 C 52.04 52.53 54.32 49.92 57.14 48.01 C 56.06 50.30 54.80 52.52 53.95 54.91 C 55.46 55.97 57.33 55.35 59.02 55.24 C 59.40 55.73 60.17 56.69 60.55 57.17 C 59.97 57.30 58.81 57.56 58.23 57.69 C 56.36 58.11 54.50 58.57 52.66 59.11 C 52.14 59.04 51.09 58.88 50.57 58.80 L 49.87 58.14 C 50.64 56.66 51.40 55.18 52.15 53.69 C 51.38 53.83 49.85 54.11 49.08 54.24 Z" />
<path fill="#67647f" opacity="1.00" d=" M 63.38 47.60 L 63.98 47.76 C 66.94 49.13 69.30 51.49 70.71 54.44 C 69.52 53.50 68.29 52.62 67.06 51.73 C 66.22 52.85 65.37 53.97 64.57 55.13 C 63.96 56.53 63.49 57.98 63.02 59.42 C 62.30 59.03 61.59 58.61 60.89 58.17 C 60.81 57.92 60.64 57.42 60.55 57.17 C 62.90 54.61 65.83 51.06 63.38 47.60 Z" />
<path fill="#8d92ef" opacity="1.00" d=" M 90.82 53.52 C 93.97 52.65 97.12 51.77 100.21 50.70 C 102.21 54.03 103.61 57.68 104.30 61.51 C 101.18 62.77 97.95 63.76 94.70 64.65 C 93.11 61.05 91.86 57.31 90.82 53.52 Z" />
<path fill="#eeecfb" opacity="1.00" d=" M 43.02 53.31 C 43.71 52.36 44.69 51.93 45.95 52.02 C 45.69 52.59 45.17 53.72 44.91 54.29 C 44.44 54.05 43.49 53.56 43.02 53.31 Z" />
<path fill="#acd16b" opacity="1.00" d=" M 67.06 51.73 C 68.29 52.62 69.52 53.50 70.71 54.44 C 70.89 54.75 71.24 55.36 71.42 55.66 C 71.47 56.25 71.57 57.42 71.62 58.01 C 69.13 57.42 66.72 56.52 64.57 55.13 C 65.37 53.97 66.22 52.85 67.06 51.73 Z" />
<path fill="#a397ea" opacity="1.00" d=" M 11.97 53.30 C 17.96 52.39 22.35 56.76 27.04 59.61 C 26.17 62.14 25.30 64.67 24.43 67.20 C 18.97 63.94 15.02 58.78 11.97 53.30 Z" />
<path fill="#815024" opacity="1.00" d=" M 41.86 55.00 C 42.15 54.58 42.73 53.73 43.02 53.31 C 43.49 53.56 44.44 54.05 44.91 54.29 C 45.34 54.47 46.18 54.83 46.60 55.01 C 47.71 56.02 48.79 57.08 49.87 58.14 L 50.57 58.80 C 47.45 58.36 44.37 57.72 41.26 57.24 C 41.41 56.68 41.71 55.56 41.86 55.00 M 43.24 55.21 C 43.79 55.75 43.79 55.75 43.24 55.21 Z" />
<path fill="#dfb425" opacity="1.00" d=" M 46.60 55.01 C 47.22 54.82 48.46 54.44 49.08 54.24 C 49.85 54.11 51.38 53.83 52.15 53.69 C 51.40 55.18 50.64 56.66 49.87 58.14 C 48.79 57.08 47.71 56.02 46.60 55.01 Z" />
<path fill="#767ced" opacity="1.00" d=" M 75.75 56.89 C 80.71 55.50 85.80 54.66 90.82 53.52 C 91.86 57.31 93.11 61.05 94.70 64.65 C 92.49 64.89 90.27 65.24 88.04 65.19 C 85.79 63.42 84.44 60.80 82.72 58.55 C 80.37 58.19 77.75 58.42 75.75 56.89 Z" />
<path fill="#134136" opacity="1.00" d=" M 38.44 55.48 C 39.58 55.33 40.72 55.17 41.86 55.00 C 41.71 55.56 41.41 56.68 41.26 57.24 C 40.85 58.64 40.42 60.04 40.01 61.44 C 44.37 61.72 48.76 61.17 52.66 59.11 C 54.50 58.57 56.36 58.11 58.23 57.69 C 56.40 61.78 54.70 66.00 54.43 70.53 C 54.22 72.31 54.05 74.10 53.88 75.89 C 55.46 75.44 57.04 74.98 58.62 74.55 C 63.78 73.20 69.10 72.03 74.46 72.80 C 73.81 74.60 73.15 76.39 72.53 78.19 C 71.42 78.83 70.32 79.48 69.26 80.20 C 68.70 81.07 68.16 81.95 67.64 82.85 C 67.13 83.73 66.62 84.63 66.13 85.52 C 65.59 86.47 65.04 87.42 64.49 88.37 C 64.66 87.22 64.84 86.08 65.01 84.94 C 62.45 83.87 59.86 82.88 57.23 81.99 C 56.94 82.84 56.66 83.70 56.38 84.55 C 55.86 86.12 55.40 87.71 54.97 89.31 C 56.32 89.33 57.67 89.34 59.02 89.34 C 57.64 89.86 56.23 90.32 54.82 90.74 C 51.24 91.21 47.74 92.13 44.24 92.98 C 43.80 92.79 42.91 92.40 42.46 92.20 L 41.68 91.86 L 41.01 91.55 C 45.41 88.27 47.08 82.84 49.13 78.01 C 51.19 73.94 49.72 69.50 49.06 65.30 C 46.60 64.94 44.14 64.63 41.69 64.26 L 41.11 63.80 C 40.86 63.60 40.37 63.19 40.12 62.99 C 39.48 60.51 39.01 57.98 38.44 55.48 M 40.18 56.32 C 40.77 56.90 40.77 56.90 40.18 56.32 M 58.04 77.42 C 58.21 77.90 58.55 78.84 58.72 79.31 C 61.72 80.34 64.85 80.96 68.01 81.20 C 67.97 80.49 67.89 79.06 67.85 78.35 C 64.57 78.13 61.30 77.80 58.04 77.42 Z" />
<path fill="#ffe00d" opacity="1.00" d=" M 43.24 55.21 C 43.79 55.75 43.79 55.75 43.24 55.21 Z" />
<path fill="#194939" opacity="1.00" d=" M 63.02 59.42 C 63.49 57.98 63.96 56.53 64.57 55.13 C 66.72 56.52 69.13 57.42 71.62 58.01 C 71.57 57.42 71.47 56.25 71.42 55.66 C 71.76 55.85 72.46 56.21 72.80 56.40 C 73.69 56.82 74.61 57.17 75.56 57.45 C 75.50 57.86 75.37 58.67 75.30 59.07 C 75.12 60.37 75.05 61.86 76.17 62.78 C 78.76 65.68 81.98 67.91 85.02 70.31 C 86.42 69.80 87.83 69.29 89.23 68.76 C 89.22 70.30 89.20 71.84 89.25 73.37 C 90.43 77.35 94.80 77.14 98.19 77.22 C 97.69 77.53 96.68 78.14 96.17 78.45 C 93.96 78.39 91.65 78.45 89.55 77.65 C 87.26 76.55 86.19 74.08 84.74 72.14 C 83.18 70.55 81.14 69.60 79.07 68.89 C 78.57 68.71 77.58 68.35 77.08 68.16 C 72.97 64.40 68.02 61.80 63.02 59.42 Z" />
<path fill="#b3b7ff" opacity="1.00" d=" M 40.18 56.32 C 40.77 56.90 40.77 56.90 40.18 56.32 Z" />
<path fill="#bedf72" opacity="1.00" d=" M 41.26 57.24 C 44.37 57.72 47.45 58.36 50.57 58.80 C 51.09 58.88 52.14 59.04 52.66 59.11 C 48.76 61.17 44.37 61.72 40.01 61.44 C 40.42 60.04 40.85 58.64 41.26 57.24 Z" />
<path fill="#4739c8" opacity="1.00" d=" M 58.23 57.69 C 58.81 57.56 59.97 57.30 60.55 57.17 C 60.64 57.42 60.81 57.92 60.89 58.17 C 61.93 62.35 64.69 65.69 67.32 68.97 C 64.10 71.63 59.91 71.93 55.91 71.85 C 55.54 71.52 54.80 70.86 54.43 70.53 C 54.70 66.00 56.40 61.78 58.23 57.69 Z" />
<path fill="#010203" opacity="1.00" d=" M 60.89 58.17 C 61.59 58.61 62.30 59.03 63.02 59.42 C 68.02 61.80 72.97 64.40 77.08 68.16 C 72.73 66.78 68.68 64.67 64.88 62.17 C 66.65 64.63 68.36 67.25 70.83 69.06 C 73.69 70.21 76.83 70.46 79.82 71.16 C 79.63 70.59 79.25 69.46 79.07 68.89 C 81.14 69.60 83.18 70.55 84.74 72.14 C 81.34 72.66 77.90 73.09 74.46 72.80 C 69.10 72.03 63.78 73.20 58.62 74.55 C 57.73 73.64 56.82 72.74 55.91 71.85 C 59.91 71.93 64.10 71.63 67.32 68.97 C 64.69 65.69 61.93 62.35 60.89 58.17 Z" />
<path fill="#bedf6e" opacity="1.00" d=" M 75.30 59.07 L 76.05 58.79 C 78.17 58.77 80.66 58.19 82.51 59.45 C 85.07 62.31 87.02 65.64 89.23 68.76 C 87.83 69.29 86.42 69.80 85.02 70.31 C 81.98 67.91 78.76 65.68 76.17 62.78 C 75.05 61.86 75.12 60.37 75.30 59.07 Z" />
<path fill="#7b80ed" opacity="1.00" d=" M 27.04 59.61 C 28.84 60.54 30.61 61.50 32.36 62.51 C 31.22 64.81 30.08 67.10 28.94 69.40 C 27.44 68.66 25.93 67.93 24.43 67.20 C 25.30 64.67 26.17 62.14 27.04 59.61 Z" />
<path fill="#636aec" opacity="1.00" d=" M 32.36 62.51 C 35.22 63.31 38.12 63.97 41.00 64.68 C 40.75 66.66 40.49 68.65 40.29 70.64 C 37.09 73.61 32.43 70.48 28.94 69.40 C 30.08 67.10 31.22 64.81 32.36 62.51 Z" />
<path fill="#1f4d39" opacity="1.00" d=" M 41.11 63.80 L 41.69 64.26 C 42.19 69.28 42.97 74.31 44.95 79.00 C 43.93 83.31 41.28 86.88 38.15 89.91 C 38.66 90.22 39.69 90.84 40.20 91.15 C 38.04 91.26 35.89 91.53 33.74 91.70 C 33.14 90.81 32.53 89.94 31.91 89.08 C 35.18 86.98 38.35 84.69 41.15 82.00 C 37.02 82.80 32.91 84.15 29.53 86.74 C 28.79 86.15 28.03 85.60 27.27 85.04 C 27.20 84.37 27.07 83.02 27.01 82.35 C 31.25 82.03 35.05 80.23 37.83 76.99 C 38.96 76.01 40.10 75.03 41.24 74.05 C 40.91 72.92 40.59 71.78 40.29 70.64 C 40.49 68.65 40.75 66.66 41.00 64.68 L 41.11 63.80 Z" />
<path fill="#daf183" opacity="1.00" d=" M 41.69 64.26 C 44.14 64.63 46.60 64.94 49.06 65.30 C 49.72 69.50 51.19 73.94 49.13 78.01 C 47.73 78.33 46.34 78.66 44.95 79.00 C 42.97 74.31 42.19 69.28 41.69 64.26 Z" />
<path fill="#98c75c" opacity="1.00" d=" M 89.23 68.76 C 92.52 69.76 95.43 71.66 98.27 73.55 C 95.28 74.14 92.21 74.18 89.25 73.37 C 89.20 71.84 89.22 70.30 89.23 68.76 Z" />
<path fill="#acd16b" opacity="1.00" d=" M 40.29 70.64 C 40.59 71.78 40.91 72.92 41.24 74.05 C 40.10 75.03 38.96 76.01 37.83 76.99 C 38.46 74.81 39.37 72.72 40.29 70.64 Z" />
<path fill="#1a6281" opacity="1.00" d=" M 53.88 75.89 C 54.05 74.10 54.22 72.31 54.43 70.53 C 54.80 70.86 55.54 71.52 55.91 71.85 C 56.82 72.74 57.73 73.64 58.62 74.55 C 57.04 74.98 55.46 75.44 53.88 75.89 Z" />
<path fill="#3119b6" opacity="1.00" d=" M 74.46 72.80 C 77.90 73.09 81.34 72.66 84.74 72.14 C 85.00 74.38 85.25 76.62 85.52 78.86 C 81.25 78.84 76.27 81.02 72.53 78.19 C 73.15 76.39 73.81 74.60 74.46 72.80 Z" />
<path fill="#2d1475" opacity="1.00" d=" M 84.74 72.14 C 86.19 74.08 87.26 76.55 89.55 77.65 C 91.65 78.45 93.96 78.39 96.17 78.45 C 95.77 78.88 94.98 79.73 94.58 80.16 C 94.11 80.68 93.62 81.17 93.10 81.64 C 89.90 81.91 86.71 81.37 83.58 80.73 C 85.48 82.58 87.37 84.44 89.22 86.35 C 86.16 85.42 83.12 84.00 82.16 80.68 C 77.86 80.94 73.53 80.85 69.26 80.20 C 70.32 79.48 71.42 78.83 72.53 78.19 C 76.27 81.02 81.25 78.84 85.52 78.86 C 85.25 76.62 85.00 74.38 84.74 72.14 M 88.07 79.23 C 87.85 79.48 87.40 79.98 87.18 80.24 C 88.15 83.27 91.59 78.88 88.07 79.23 Z" />
<path fill="#639d4d" opacity="1.00" d=" M 89.25 73.37 C 92.21 74.18 95.28 74.14 98.27 73.55 C 99.78 73.07 101.00 74.22 102.24 74.87 C 100.90 75.66 99.55 76.45 98.19 77.22 C 94.80 77.14 90.43 77.35 89.25 73.37 Z" />
<path fill="#634d91" opacity="1.00" d=" M 98.19 77.22 C 99.55 76.45 100.90 75.66 102.24 74.87 C 102.93 75.62 103.63 76.36 104.32 77.11 C 103.05 77.44 101.78 77.77 100.51 78.10 C 100.64 78.50 100.89 79.31 101.02 79.72 C 99.75 79.84 98.51 80.15 97.27 80.41 C 96.59 80.35 95.25 80.22 94.58 80.16 C 94.98 79.73 95.77 78.88 96.17 78.45 C 96.68 78.14 97.69 77.53 98.19 77.22 Z" />
<path fill="#3b7143" opacity="1.00" d=" M 58.04 77.42 C 61.30 77.80 64.57 78.13 67.85 78.35 C 67.89 79.06 67.97 80.49 68.01 81.20 C 64.85 80.96 61.72 80.34 58.72 79.31 C 58.55 78.84 58.21 77.90 58.04 77.42 Z" />
<path fill="#9dc860" opacity="1.00" d=" M 44.95 79.00 C 46.34 78.66 47.73 78.33 49.13 78.01 C 47.08 82.84 45.41 88.27 41.01 91.55 L 40.20 91.15 C 39.69 90.84 38.66 90.22 38.15 89.91 C 41.28 86.88 43.93 83.31 44.95 79.00 Z" />
<path fill="#cb8078" opacity="1.00" d=" M 88.07 79.23 C 91.59 78.88 88.15 83.27 87.18 80.24 C 87.40 79.98 87.85 79.48 88.07 79.23 Z" />
<path fill="#2b12af" opacity="1.00" d=" M 69.26 80.20 C 73.53 80.85 77.86 80.94 82.16 80.68 C 83.12 84.00 86.16 85.42 89.22 86.35 C 87.37 84.44 85.48 82.58 83.58 80.73 C 86.71 81.37 89.90 81.91 93.10 81.64 C 92.38 83.58 91.63 85.52 90.88 87.46 C 91.53 87.45 92.82 87.44 93.47 87.44 C 92.52 88.94 91.57 90.43 90.60 91.92 C 90.19 90.94 89.78 89.97 89.38 88.99 C 88.85 88.75 87.77 88.27 87.24 88.03 C 84.19 91.35 80.35 93.76 76.44 95.95 C 77.97 96.47 79.49 96.98 81.02 97.50 C 78.99 98.86 76.90 100.12 74.72 101.23 C 74.08 98.76 71.64 99.66 69.80 99.79 C 67.88 98.59 65.89 97.50 63.82 96.58 C 66.27 95.11 68.97 94.12 71.82 93.81 C 75.15 93.54 77.69 91.19 80.06 89.07 C 76.71 91.46 72.85 92.52 68.86 93.14 C 63.89 96.69 57.64 96.69 51.82 97.39 C 53.55 95.19 55.31 93.01 57.01 90.79 C 56.46 90.78 55.37 90.75 54.82 90.74 C 56.23 90.32 57.64 89.86 59.02 89.34 L 59.68 89.22 C 61.28 88.93 62.89 88.65 64.49 88.37 C 65.04 87.42 65.59 86.47 66.13 85.52 C 68.97 86.25 71.86 87.21 74.83 86.95 C 77.21 86.58 78.66 84.42 80.32 82.91 C 76.10 82.65 71.87 82.78 67.64 82.85 C 68.16 81.95 68.70 81.07 69.26 80.20 Z" />
<path fill="#f5d3c4" opacity="1.00" d=" M 97.27 80.41 C 98.51 80.15 99.75 79.84 101.02 79.72 C 103.39 81.39 97.91 82.18 97.27 80.41 Z" />
<path fill="#cff071" opacity="1.00" d=" M 29.53 86.74 C 32.91 84.15 37.02 82.80 41.15 82.00 C 38.35 84.69 35.18 86.98 31.91 89.08 C 31.16 88.26 30.36 87.48 29.53 86.74 Z" />
<path fill="#386f43" opacity="1.00" d=" M 57.23 81.99 C 59.86 82.88 62.45 83.87 65.01 84.94 C 64.84 86.08 64.66 87.22 64.49 88.37 C 62.89 88.65 61.28 88.93 59.68 89.22 C 58.70 87.59 57.57 86.04 56.38 84.55 C 56.66 83.70 56.94 82.84 57.23 81.99 Z" />
<path fill="#5756e1" opacity="1.00" d=" M 67.64 82.85 C 71.87 82.78 76.10 82.65 80.32 82.91 C 78.66 84.42 77.21 86.58 74.83 86.95 C 71.86 87.21 68.97 86.25 66.13 85.52 C 66.62 84.63 67.13 83.73 67.64 82.85 Z" />
<path fill="#eeecfb" opacity="1.00" d=" M 14.86 87.72 C 18.95 86.64 23.10 85.78 27.27 85.04 C 27.17 85.46 26.98 86.29 26.89 86.70 C 23.54 87.64 20.13 88.78 17.82 91.54 L 17.44 91.90 C 16.60 90.49 15.71 89.11 14.86 87.72 Z" />
<path fill="#838af0" opacity="1.00" d=" M 27.27 85.04 C 28.03 85.60 28.79 86.15 29.53 86.74 C 30.36 87.48 31.16 88.26 31.91 89.08 C 32.53 89.94 33.14 90.81 33.74 91.70 C 35.89 91.53 38.04 91.26 40.20 91.15 L 41.01 91.55 L 41.68 91.86 C 37.80 92.41 33.73 93.33 30.79 96.11 C 30.10 95.82 29.41 95.51 28.72 95.22 C 28.58 96.08 28.28 97.81 28.13 98.67 C 25.78 97.56 23.50 96.31 21.29 94.95 L 22.08 94.47 C 23.43 93.70 24.74 92.88 26.06 92.07 C 26.32 90.28 26.57 88.48 26.89 86.70 C 26.98 86.29 27.17 85.46 27.27 85.04 Z" />
<path fill="#c1e46a" opacity="1.00" d=" M 56.38 84.55 C 57.57 86.04 58.70 87.59 59.68 89.22 L 59.02 89.34 C 57.67 89.34 56.32 89.33 54.97 89.31 C 55.40 87.71 55.86 86.12 56.38 84.55 Z" />
<path fill="#b9bcf5" opacity="1.00" d=" M 17.82 91.54 C 20.13 88.78 23.54 87.64 26.89 86.70 C 26.57 88.48 26.32 90.28 26.06 92.07 C 24.74 92.88 23.43 93.70 22.08 94.47 C 20.18 95.02 19.17 92.45 17.82 91.54 Z" />
<path fill="#402ec6" opacity="1.00" d=" M 76.44 95.95 C 80.35 93.76 84.19 91.35 87.24 88.03 C 87.77 88.27 88.85 88.75 89.38 88.99 C 87.20 92.37 84.06 94.93 81.02 97.50 C 79.49 96.98 77.97 96.47 76.44 95.95 Z" />
<path fill="#5e5fe7" opacity="1.00" d=" M 44.24 92.98 C 47.74 92.13 51.24 91.21 54.82 90.74 C 55.37 90.75 56.46 90.78 57.01 90.79 C 55.31 93.01 53.55 95.19 51.82 97.39 C 49.24 97.51 46.67 97.49 44.10 97.34 C 44.14 95.89 44.19 94.44 44.24 92.98 Z" />
<path fill="#b8bbf6" opacity="1.00" d=" M 9.62 92.58 C 11.82 92.16 14.03 91.76 16.23 91.32 C 18.17 93.08 20.14 94.79 22.17 96.43 C 21.09 98.03 20.02 99.64 18.94 101.24 C 15.16 99.21 11.34 96.71 9.62 92.58 Z" />
<path fill="#d3d5f9" opacity="1.00" d=" M 30.79 96.11 C 33.73 93.33 37.80 92.41 41.68 91.86 L 42.46 92.20 C 41.05 95.38 38.18 97.27 34.77 97.76 C 33.43 97.26 32.10 96.71 30.79 96.11 Z" />
<path fill="#6e76ef" opacity="1.00" d=" M 42.46 92.20 C 42.91 92.40 43.80 92.79 44.24 92.98 C 44.19 94.44 44.14 95.89 44.10 97.34 C 44.08 97.93 44.04 99.11 44.02 99.70 C 40.90 99.28 37.73 98.90 34.77 97.76 C 38.18 97.27 41.05 95.38 42.46 92.20 Z" />
<path fill="#777ef0" opacity="1.00" d=" M 18.94 101.24 C 20.02 99.64 21.09 98.03 22.17 96.43 C 24.09 97.37 25.94 98.54 28.04 99.05 C 29.35 98.64 30.58 97.99 31.89 97.55 C 33.46 97.93 34.97 98.51 36.50 99.02 C 35.74 100.04 34.97 101.07 34.20 102.09 C 36.35 100.24 38.83 98.92 41.76 99.73 C 41.35 101.51 40.92 103.35 39.80 104.85 C 36.68 105.63 33.11 102.79 30.57 105.78 C 26.57 104.60 22.69 103.06 18.94 101.24 Z" />
<path fill="#2a10ae" opacity="1.00" d=" M 58.61 97.26 C 59.77 97.17 60.92 97.08 62.08 97.00 C 62.30 98.82 62.51 100.64 62.72 102.46 C 63.68 102.67 64.64 102.89 65.60 103.10 C 65.04 103.74 64.49 104.39 63.95 105.05 C 63.54 105.06 62.71 105.09 62.30 105.10 C 59.84 105.14 57.37 105.13 54.91 105.25 C 56.08 102.56 57.33 99.91 58.61 97.26 Z" />
<path fill="#7a73e5" opacity="1.00" d=" M 62.78 96.11 L 63.82 96.58 C 65.89 97.50 67.88 98.59 69.80 99.79 C 67.64 100.84 65.36 101.61 63.04 102.23 C 62.90 100.19 62.81 98.15 62.78 96.11 Z" />
<path fill="#3f2ac2" opacity="1.00" d=" M 46.43 98.72 C 47.17 98.43 47.92 98.16 48.68 97.91 C 48.75 98.49 48.90 99.65 48.97 100.23 C 51.60 97.81 55.21 97.47 58.61 97.26 C 57.33 99.91 56.08 102.56 54.91 105.25 C 52.27 105.50 49.66 105.98 47.07 106.53 C 46.73 103.94 46.64 101.32 46.43 98.72 Z" />
<path fill="#6970ed" opacity="1.00" d=" M 46.43 98.72 C 46.64 101.32 46.73 103.94 47.07 106.53 C 47.22 107.26 47.51 108.72 47.66 109.45 C 45.35 109.78 43.03 110.02 40.71 110.25 C 39.84 109.49 38.98 108.73 38.11 107.97 C 39.74 106.53 40.90 104.74 41.63 102.70 C 42.34 100.54 44.64 99.77 46.43 98.72 Z" />
<path fill="#124036" opacity="1.00" d=" M 47.07 106.53 C 49.66 105.98 52.27 105.50 54.91 105.25 C 57.37 105.13 59.84 105.14 62.30 105.10 C 61.68 107.36 61.21 109.66 60.79 111.97 C 59.45 112.21 58.11 112.46 56.77 112.69 C 55.32 112.32 53.87 111.93 52.39 111.69 C 50.97 112.40 49.61 113.22 48.22 113.99 C 47.70 113.15 47.17 112.32 46.65 111.48 C 45.45 111.28 44.26 111.07 43.06 110.84 C 42.47 110.70 41.30 110.40 40.71 110.25 C 43.03 110.02 45.35 109.78 47.66 109.45 C 47.51 108.72 47.22 107.26 47.07 106.53 Z" />
<path fill="#8b91f0" opacity="1.00" d=" M 62.30 105.10 C 62.71 105.09 63.54 105.06 63.95 105.05 C 62.48 107.71 61.46 110.59 60.74 113.53 L 60.66 112.72 L 60.79 111.97 C 61.21 109.66 61.68 107.36 62.30 105.10 Z" />
<path fill="#c9e878" opacity="1.00" d=" M 38.37 109.62 C 38.95 109.78 40.12 110.10 40.71 110.25 C 41.30 110.40 42.47 110.70 43.06 110.84 C 44.00 112.31 44.96 113.76 45.94 115.19 C 44.10 115.56 42.24 115.76 40.38 115.95 C 39.66 113.85 38.99 111.74 38.37 109.62 Z" />
<path fill="#6da053" opacity="1.00" d=" M 43.06 110.84 C 44.26 111.07 45.45 111.28 46.65 111.48 C 47.17 112.32 47.70 113.15 48.22 113.99 C 47.65 114.29 46.51 114.89 45.94 115.19 C 44.96 113.76 44.00 112.31 43.06 110.84 Z" />
<path fill="#7cb255" opacity="1.00" d=" M 52.39 111.69 C 53.87 111.93 55.32 112.32 56.77 112.69 C 56.55 114.01 56.34 115.33 56.16 116.65 C 54.37 116.74 52.59 116.84 50.81 116.95 C 51.29 115.19 51.85 113.44 52.39 111.69 Z" />
<path fill="#64381e" opacity="1.00" d=" M 56.77 112.69 C 58.11 112.46 59.45 112.21 60.79 111.97 L 60.66 112.72 C 59.42 113.69 58.15 114.61 56.88 115.55 C 58.50 116.76 60.13 117.96 61.70 119.24 L 62.05 119.91 C 60.13 119.47 58.21 118.98 56.33 118.40 L 56.06 117.51 L 56.16 116.65 C 56.34 115.33 56.55 114.01 56.77 112.69 Z" />
<path fill="#134136" opacity="1.00" d=" M 60.66 112.72 L 60.74 113.53 C 60.95 115.45 61.31 117.35 61.70 119.24 C 60.13 117.96 58.50 116.76 56.88 115.55 C 58.15 114.61 59.42 113.69 60.66 112.72 Z" />
<path fill="#add16c" opacity="1.00" d=" M 50.81 116.95 C 52.59 116.84 54.37 116.74 56.16 116.65 L 56.06 117.51 C 54.72 126.20 54.63 135.05 52.51 143.62 C 51.48 144.10 50.45 144.58 49.43 145.08 C 48.97 144.38 48.51 143.68 48.06 142.98 C 49.06 138.90 49.85 134.78 50.57 130.65 C 51.33 126.10 50.12 121.50 50.81 116.95 Z" />
<path fill="#7db255" opacity="1.00" d=" M 56.06 117.51 L 56.33 118.40 C 59.97 129.28 56.65 140.82 53.23 151.29 C 53.18 150.84 53.10 149.94 53.05 149.49 C 52.85 147.53 52.61 145.58 52.51 143.62 C 54.63 135.05 54.72 126.20 56.06 117.51 Z" />
<path fill="#113f36" opacity="1.00" d=" M 56.33 118.40 C 58.21 118.98 60.13 119.47 62.05 119.91 C 62.20 120.19 62.49 120.75 62.64 121.03 C 61.65 123.06 62.15 125.58 63.97 126.97 C 62.76 131.28 61.86 135.67 61.04 140.07 L 60.80 140.87 C 60.61 141.44 60.24 142.58 60.05 143.15 C 56.45 153.03 52.36 162.73 47.16 171.89 L 46.31 172.55 C 47.06 165.03 51.39 158.54 53.23 151.29 C 56.65 140.82 59.97 129.28 56.33 118.40 Z" />
<path fill="#bd8fd8" opacity="1.00" d=" M 63.97 126.97 C 62.15 125.58 61.65 123.06 62.64 121.03 C 63.57 122.83 64.73 124.89 63.97 126.97 Z" />
<path fill="#000101" opacity="0.57" d=" M 60.05 143.15 C 60.24 142.58 60.61 141.44 60.80 140.87 C 60.61 141.44 60.24 142.58 60.05 143.15 Z" />
<path fill="#c8eb6c" opacity="1.00" d=" M 48.06 142.98 C 48.51 143.68 48.97 144.38 49.43 145.08 C 49.98 145.91 50.56 146.72 51.15 147.53 C 47.42 157.17 43.81 166.87 40.81 176.76 C 40.38 176.94 39.52 177.30 39.10 177.49 C 39.27 173.20 40.90 169.19 42.00 165.09 C 44.06 157.73 45.89 150.31 48.06 142.98 Z" />
<path fill="#695020" opacity="1.00" d=" M 49.43 145.08 C 50.45 144.58 51.48 144.10 52.51 143.62 C 52.61 145.58 52.85 147.53 53.05 149.49 C 52.58 149.00 51.62 148.02 51.15 147.53 C 50.56 146.72 49.98 145.91 49.43 145.08 Z" />
<path fill="#93c35a" opacity="1.00" d=" M 51.15 147.53 C 51.62 148.02 52.58 149.00 53.05 149.49 C 53.10 149.94 53.18 150.84 53.23 151.29 C 51.39 158.54 47.06 165.03 46.31 172.55 C 44.62 174.13 43.00 175.88 40.81 176.76 C 43.81 166.87 47.42 157.17 51.15 147.53 Z" />
</svg>
