<?xml version="1.0" encoding="UTF-8" ?>
<!DOCTYPE svg PUBLIC "-//W3C//DTD SVG 1.1//EN" "http://www.w3.org/Graphics/SVG/1.1/DTD/svg11.dtd">
<svg width="111pt" height="153pt" viewBox="0 0 111 153" version="1.1" xmlns="http://www.w3.org/2000/svg">
<path fill="#000000" opacity="1.00" d=" M 38.49 20.60 C 41.81 10.35 51.45 3.03 61.87 1.13 C 67.81 -0.54 73.88 1.10 79.86 1.57 C 84.26 1.67 87.95 4.29 91.47 6.63 C 95.28 9.32 99.03 12.76 100.27 17.43 C 101.62 23.14 99.65 28.98 96.99 34.01 C 92.75 42.02 87.10 49.20 80.98 55.85 C 87.45 54.26 96.24 51.84 101.13 57.95 C 107.00 65.32 109.99 74.73 110.64 84.05 C 110.95 93.18 108.52 103.15 101.52 109.48 C 95.54 114.63 87.94 117.39 80.45 119.54 C 76.74 120.48 72.70 121.39 68.96 120.08 C 66.50 119.31 64.55 117.57 62.66 115.91 C 63.86 121.47 62.07 126.97 60.35 132.20 C 65.84 129.87 72.49 126.86 78.27 129.87 C 79.79 132.20 77.04 134.12 75.33 135.23 C 70.31 138.05 64.22 139.94 58.51 138.13 C 57.32 141.09 56.07 144.02 54.69 146.89 C 66.08 145.78 77.57 144.22 89.03 145.00 C 91.08 144.76 91.27 146.82 91.86 148.25 C 88.15 150.12 83.97 150.47 79.92 151.01 C 67.34 152.28 54.69 153.42 42.04 152.65 C 40.54 152.46 38.49 152.80 38.11 150.86 C 37.99 149.17 39.79 148.79 41.08 148.56 C 44.43 148.01 47.80 147.67 51.16 147.19 C 54.82 137.66 59.63 128.15 60.28 117.82 C 58.47 122.88 56.62 128.84 51.16 131.06 C 42.88 134.48 33.47 133.88 24.86 132.17 C 19.02 130.94 12.66 127.37 11.65 120.94 C 10.08 114.23 14.33 107.79 19.83 104.32 C 14.61 104.18 9.28 102.31 6.01 98.07 C -0.50 89.96 -0.90 78.62 1.11 68.84 C 3.47 58.41 9.52 48.11 19.25 43.08 C 24.66 40.23 31.49 41.35 35.84 45.59 C 34.57 37.19 35.99 28.64 38.49 20.60 M 54.27 7.24 C 48.20 10.44 43.17 15.91 41.29 22.59 C 39.40 29.19 38.12 36.10 38.72 42.99 C 39.30 47.92 40.95 52.64 42.93 57.17 C 43.87 56.76 44.81 56.36 45.76 55.97 C 48.22 56.46 50.72 56.61 53.20 56.91 C 57.95 58.45 62.43 60.75 66.30 63.93 C 74.70 57.15 82.26 49.31 88.37 40.40 C 92.40 34.26 97.05 27.59 96.73 19.92 C 96.23 14.16 90.73 11.50 86.39 8.84 C 76.97 2.35 64.41 2.68 54.27 7.24 M 15.29 50.23 C 5.58 59.65 1.58 74.42 4.77 87.51 C 5.92 92.35 8.83 96.70 12.99 99.45 C 15.70 100.81 18.59 101.80 21.61 102.14 C 22.17 102.75 23.29 103.99 23.85 104.60 C 20.58 106.60 17.27 108.94 15.47 112.42 C 13.26 116.76 14.04 122.95 18.29 125.78 C 22.46 128.63 27.65 129.44 32.59 129.84 C 38.09 130.30 43.83 130.33 49.10 128.50 C 53.18 127.14 55.31 123.04 56.36 119.15 C 57.44 114.96 59.14 110.43 57.29 106.19 C 53.43 108.05 49.39 109.57 45.15 110.24 C 38.85 111.57 32.13 108.81 28.62 103.42 C 29.12 103.14 30.12 102.58 30.62 102.30 C 33.54 106.89 39.12 109.59 44.53 108.60 C 54.02 107.37 63.11 102.46 69.16 95.03 C 73.84 89.33 73.56 81.10 70.72 74.64 C 71.50 74.00 72.25 73.35 72.99 72.67 C 74.58 77.50 76.16 82.71 74.76 87.78 C 73.75 92.56 70.65 96.56 67.11 99.79 C 64.54 101.59 62.05 103.49 59.37 105.13 C 61.55 109.44 64.17 113.92 68.38 116.52 C 71.92 117.98 75.96 117.08 79.46 115.91 C 88.95 113.18 99.93 109.31 104.17 99.51 L 104.36 99.51 C 109.29 86.62 106.68 71.36 98.37 60.46 C 95.07 56.10 88.98 58.03 84.45 58.75 C 81.56 59.61 78.61 60.47 76.08 62.15 C 73.66 63.69 71.88 66.48 68.68 66.33 L 69.64 66.89 C 68.92 67.26 67.48 68.00 66.76 68.37 C 64.32 66.15 61.66 64.18 58.85 62.46 C 54.74 60.54 50.49 58.62 45.84 58.83 L 45.14 58.36 C 32.98 65.95 26.81 80.92 28.32 94.94 C 27.85 95.23 26.92 95.80 26.45 96.09 L 25.72 95.24 C 24.40 81.57 29.62 66.91 40.96 58.70 C 39.28 55.57 38.22 51.92 35.37 49.60 C 32.74 47.33 29.69 44.90 26.00 45.18 C 21.86 45.07 18.22 47.55 15.29 50.23 M 59.21 135.66 C 65.38 136.59 71.83 135.11 76.83 131.35 C 70.62 130.35 64.51 132.58 59.21 135.66 Z" />
<path fill="#fffde5" opacity="1.00" d=" M 54.27 7.24 C 64.41 2.68 76.97 2.35 86.39 8.84 C 79.60 27.36 67.91 43.84 53.20 56.91 C 50.72 56.61 48.22 56.46 45.76 55.97 C 44.81 56.36 43.87 56.76 42.93 57.17 C 40.95 52.64 39.30 47.92 38.72 42.99 C 38.12 36.10 39.40 29.19 41.29 22.59 C 43.17 15.91 48.20 10.44 54.27 7.24 Z" />
<path fill="#dc8fa1" opacity="1.00" d=" M 86.39 8.84 C 90.73 11.50 96.23 14.16 96.73 19.92 C 97.05 27.59 92.40 34.26 88.37 40.40 C 82.26 49.31 74.70 57.15 66.30 63.93 C 62.43 60.75 57.95 58.45 53.20 56.91 C 67.91 43.84 79.60 27.36 86.39 8.84 Z" />
<path fill="#fffde5" opacity="1.00" d=" M 15.29 50.23 C 18.22 47.55 21.86 45.07 26.00 45.18 C 29.69 44.90 32.74 47.33 35.37 49.60 C 38.22 51.92 39.28 55.57 40.96 58.70 C 29.62 66.91 24.40 81.57 25.72 95.24 C 25.33 94.80 24.56 93.92 24.18 93.48 C 20.22 95.01 16.47 97.01 12.99 99.45 C 8.83 96.70 5.92 92.35 4.77 87.51 C 1.58 74.42 5.58 59.65 15.29 50.23 Z" />
<path fill="#fffde5" opacity="1.00" d=" M 84.45 58.75 C 88.98 58.03 95.07 56.10 98.37 60.46 C 106.68 71.36 109.29 86.62 104.36 99.51 L 104.17 99.51 C 97.83 99.60 91.48 99.61 85.14 99.31 C 79.20 99.48 72.54 96.34 67.11 99.79 C 70.65 96.56 73.75 92.56 74.76 87.78 C 76.16 82.71 74.58 77.50 72.99 72.67 L 73.55 72.18 C 78.88 70.08 84.34 68.28 89.70 66.22 C 87.87 63.78 86.13 61.29 84.45 58.75 Z" />
<path fill="#ffe05c" opacity="1.00" d=" M 28.32 94.94 C 26.81 80.92 32.98 65.95 45.14 58.36 L 45.84 58.83 C 49.91 61.18 52.86 64.93 55.32 68.87 C 57.18 72.07 58.62 75.51 59.61 79.08 C 60.87 83.92 60.35 89.26 57.46 93.43 C 53.85 99.03 49.08 103.77 44.53 108.60 C 39.12 109.59 33.54 106.89 30.62 102.30 C 32.61 100.44 34.42 98.14 34.66 95.33 C 33.19 92.88 30.35 93.99 28.32 94.94 M 48.05 72.42 C 46.99 73.28 45.95 74.17 44.93 75.08 C 44.37 77.49 44.86 80.42 47.45 81.40 C 51.90 83.54 55.80 76.51 52.42 73.41 C 51.33 72.09 49.54 72.45 48.05 72.42 M 45.86 94.70 C 44.74 95.37 43.64 96.08 42.51 96.72 C 43.90 96.52 45.61 96.91 46.76 95.84 C 48.41 94.79 48.10 92.59 48.43 90.92 C 46.89 91.64 46.38 93.23 45.86 94.70 Z" />
<path fill="#dc9650" opacity="1.00" d=" M 45.84 58.83 C 50.49 58.62 54.74 60.54 58.85 62.46 C 57.70 64.61 56.52 66.74 55.32 68.87 C 52.86 64.93 49.91 61.18 45.84 58.83 Z" />
<path fill="#f5ddd2" opacity="1.00" d=" M 76.08 62.15 C 78.61 60.47 81.56 59.61 84.45 58.75 C 86.13 61.29 87.87 63.78 89.70 66.22 C 84.34 68.28 78.88 70.08 73.55 72.18 C 73.49 69.63 71.86 67.87 69.64 66.89 L 68.68 66.33 C 71.88 66.48 73.66 63.69 76.08 62.15 Z" />
<path fill="#d07c4c" opacity="1.00" d=" M 58.85 62.46 C 61.66 64.18 64.32 66.15 66.76 68.37 C 63.70 69.77 61.72 72.60 60.75 75.75 C 60.35 76.85 59.97 77.96 59.61 79.08 C 58.62 75.51 57.18 72.07 55.32 68.87 C 56.52 66.74 57.70 64.61 58.85 62.46 Z" />
<path fill="#ff3d83" opacity="1.00" d=" M 69.64 66.89 C 71.86 67.87 73.49 69.63 73.55 72.18 L 72.99 72.67 C 72.25 73.35 71.50 74.00 70.72 74.64 C 67.89 77.18 64.10 76.94 60.75 75.75 C 61.72 72.60 63.70 69.77 66.76 68.37 C 67.48 68.00 68.92 67.26 69.64 66.89 Z" />
<path fill="#000000" opacity="1.00" d=" M 48.05 72.42 C 49.54 72.45 51.33 72.09 52.42 73.41 C 55.80 76.51 51.90 83.54 47.45 81.40 C 44.86 80.42 44.37 77.49 44.93 75.08 C 46.13 76.08 47.15 77.73 48.96 77.39 C 49.35 76.80 50.13 75.62 50.53 75.04 C 49.69 74.17 48.87 73.29 48.05 72.42 Z" />
<path fill="#fefbe4" opacity="1.00" d=" M 44.93 75.08 C 45.95 74.17 46.99 73.28 48.05 72.42 C 48.87 73.29 49.69 74.17 50.53 75.04 C 50.13 75.62 49.35 76.80 48.96 77.39 C 47.15 77.73 46.13 76.08 44.93 75.08 Z" />
<path fill="#c56347" opacity="1.00" d=" M 60.75 75.75 C 64.10 76.94 67.89 77.18 70.72 74.64 C 73.56 81.10 73.84 89.33 69.16 95.03 C 63.11 102.46 54.02 107.37 44.53 108.60 C 49.08 103.77 53.85 99.03 57.46 93.43 C 60.35 89.26 60.87 83.92 59.61 79.08 C 59.97 77.96 60.35 76.85 60.75 75.75 Z" />
<path fill="#000000" opacity="1.00" d=" M 45.86 94.70 C 46.38 93.23 46.89 91.64 48.43 90.92 C 48.10 92.59 48.41 94.79 46.76 95.84 C 45.61 96.91 43.90 96.52 42.51 96.72 C 43.64 96.08 44.74 95.37 45.86 94.70 Z" />
<path fill="#f2d4cb" opacity="1.00" d=" M 12.99 99.45 C 16.47 97.01 20.22 95.01 24.18 93.48 C 24.56 93.92 25.33 94.80 25.72 95.24 L 26.45 96.09 C 24.35 97.67 22.91 99.89 21.61 102.14 C 18.59 101.80 15.70 100.81 12.99 99.45 Z" />
<path fill="#ff3d83" opacity="1.00" d=" M 28.32 94.94 C 30.35 93.99 33.19 92.88 34.66 95.33 C 34.42 98.14 32.61 100.44 30.62 102.30 C 30.12 102.58 29.12 103.14 28.62 103.42 C 27.05 103.89 25.45 104.24 23.85 104.60 C 23.29 103.99 22.17 102.75 21.61 102.14 C 22.91 99.89 24.35 97.67 26.45 96.09 C 26.92 95.80 27.85 95.23 28.32 94.94 Z" />
<path fill="#ebbdbd" opacity="1.00" d=" M 67.11 99.79 C 72.54 96.34 79.20 99.48 85.14 99.31 C 82.16 100.32 79.16 101.73 77.20 104.28 C 74.93 106.94 74.58 110.54 73.89 113.82 C 75.73 114.54 77.58 115.28 79.46 115.91 C 75.96 117.08 71.92 117.98 68.38 116.52 C 64.17 113.92 61.55 109.44 59.37 105.13 C 62.05 103.49 64.54 101.59 67.11 99.79 Z" />
<path fill="#e8b4b8" opacity="1.00" d=" M 77.20 104.28 C 79.16 101.73 82.16 100.32 85.14 99.31 C 91.48 99.61 97.83 99.60 104.17 99.51 C 99.93 109.31 88.95 113.18 79.46 115.91 C 77.58 115.28 75.73 114.54 73.89 113.82 C 74.58 110.54 74.93 106.94 77.20 104.28 Z" />
<path fill="#fefbe4" opacity="1.00" d=" M 23.85 104.60 C 25.45 104.24 27.05 103.89 28.62 103.42 C 32.13 108.81 38.85 111.57 45.15 110.24 C 43.07 110.86 40.02 110.64 39.17 113.10 C 36.71 118.57 34.76 124.25 32.59 129.84 C 27.65 129.44 22.46 128.63 18.29 125.78 C 14.04 122.95 13.26 116.76 15.47 112.42 C 17.27 108.94 20.58 106.60 23.85 104.60 Z" />
<path fill="#e8b4b8" opacity="1.00" d=" M 45.15 110.24 C 49.39 109.57 53.43 108.05 57.29 106.19 C 59.14 110.43 57.44 114.96 56.36 119.15 C 55.31 123.04 53.18 127.14 49.10 128.50 C 43.83 130.33 38.09 130.30 32.59 129.84 C 34.76 124.25 36.71 118.57 39.17 113.10 C 40.02 110.64 43.07 110.86 45.15 110.24 Z" />
<path fill="#e2f2a1" opacity="1.00" d=" M 59.21 135.66 C 64.51 132.58 70.62 130.35 76.83 131.35 C 71.83 135.11 65.38 136.59 59.21 135.66 Z" />
</svg>
