<?xml version="1.0" encoding="UTF-8" ?>
<!DOCTYPE svg PUBLIC "-//W3C//DTD SVG 1.1//EN" "http://www.w3.org/Graphics/SVG/1.1/DTD/svg11.dtd">
<svg width="219pt" height="306pt" viewBox="0 0 219 306" version="1.1" xmlns="http://www.w3.org/2000/svg">
<path fill="#000000" opacity="1.00" d=" M 104.23 0.00 L 104.59 0.00 C 104.59 0.14 104.59 0.43 104.58 0.58 C 116.76 4.72 123.07 16.61 132.57 24.35 C 135.86 27.26 137.66 31.35 140.01 34.98 C 142.70 39.21 145.07 43.64 146.90 48.31 C 145.15 49.46 143.80 51.04 142.99 52.97 C 144.15 54.00 145.31 55.03 146.45 56.08 C 149.69 43.12 149.68 29.41 154.15 16.71 C 154.65 23.17 156.14 29.53 156.27 36.03 C 156.54 44.72 157.83 53.43 156.69 62.12 C 156.37 64.29 156.23 66.86 154.42 68.38 C 152.30 69.04 150.05 69.07 147.86 69.32 C 148.86 73.71 149.85 78.16 151.95 82.18 C 147.42 83.49 142.83 84.61 138.34 86.06 C 137.80 87.90 137.62 89.94 136.46 91.53 C 134.12 92.97 131.36 93.52 128.81 94.49 C 127.38 99.59 121.43 96.62 118.02 99.04 C 110.29 103.09 102.51 107.11 95.23 111.95 C 98.52 118.59 102.86 124.73 108.16 129.92 C 110.82 132.57 114.06 134.58 116.61 137.36 C 120.50 141.90 125.84 144.77 130.62 148.25 C 134.05 150.47 136.60 153.78 140.07 155.94 C 149.79 161.82 159.13 168.29 168.86 174.15 C 174.63 178.17 181.56 179.88 187.68 183.27 C 190.15 181.74 192.92 180.14 195.96 180.79 C 201.08 181.38 204.96 185.61 206.30 190.42 C 208.14 197.06 213.34 202.05 219.00 205.64 L 219.00 206.69 C 212.37 212.23 202.29 215.53 194.25 211.02 C 193.50 213.93 192.51 216.77 191.30 219.52 C 194.78 223.80 198.31 228.07 201.29 232.72 C 202.31 234.32 203.21 236.09 203.28 238.03 C 203.88 245.56 201.54 252.86 199.72 260.07 C 198.39 265.00 197.77 270.08 196.33 274.98 C 198.74 274.92 201.15 274.90 203.57 274.92 C 200.70 278.64 197.41 282.19 193.01 284.06 C 189.51 285.32 188.04 289.22 184.63 290.55 C 176.65 294.01 167.95 295.08 159.50 296.77 C 146.03 300.50 132.13 303.42 118.08 303.13 C 113.40 306.77 106.42 306.70 101.54 303.55 C 99.22 294.11 104.38 285.01 107.19 276.24 C 109.89 266.00 112.13 255.63 114.02 245.21 C 112.14 242.15 110.78 238.82 109.58 235.45 C 106.48 227.57 103.18 219.73 101.33 211.44 C 97.77 208.50 94.05 205.62 91.21 201.93 C 89.16 198.48 88.90 194.33 88.21 190.46 C 87.50 184.95 86.48 179.38 87.28 173.81 C 84.01 169.79 85.35 164.62 84.93 159.92 C 82.57 153.86 77.99 149.03 75.04 143.27 C 68.57 144.21 60.75 146.54 55.32 141.56 C 52.09 139.44 53.25 135.27 53.52 132.08 C 51.88 130.56 50.05 129.19 48.74 127.35 C 47.91 125.00 48.18 122.40 48.42 119.97 C 48.63 117.18 50.24 114.20 48.47 111.62 C 45.88 105.67 39.09 104.09 34.06 100.95 C 31.65 99.50 33.40 96.84 33.93 94.84 C 30.40 93.76 26.74 93.10 23.32 91.72 C 21.28 91.09 21.31 88.60 20.56 86.97 C 14.26 83.47 8.48 78.85 4.20 73.01 C 1.58 69.36 0.81 64.81 0.05 60.48 C 5.48 65.41 10.65 72.42 18.77 72.31 C 17.32 70.48 15.37 69.24 13.17 68.51 C 15.21 53.37 16.50 38.10 19.46 23.09 C 21.53 16.88 24.71 10.64 29.85 6.41 C 27.03 21.21 25.19 36.41 27.39 51.42 C 28.25 54.88 29.97 58.03 31.64 61.16 C 29.94 62.88 28.10 64.45 26.16 65.89 C 26.99 68.82 28.05 71.71 29.67 74.30 C 32.49 71.77 35.25 69.15 37.43 66.03 C 36.26 65.06 34.29 64.56 34.02 62.85 C 33.18 58.04 33.46 52.93 35.83 48.57 C 38.25 55.92 44.90 60.21 49.58 65.95 C 46.65 72.81 41.70 78.41 36.85 83.97 C 38.43 84.74 40.00 85.52 41.58 86.29 C 42.69 84.02 42.96 77.81 46.75 79.88 C 48.76 84.25 48.88 89.16 48.89 93.89 C 51.18 95.06 53.46 96.24 55.74 97.43 C 57.20 96.59 58.67 95.77 60.15 94.98 C 61.51 97.63 62.60 100.41 63.45 103.27 C 65.61 102.18 67.70 100.81 70.10 100.36 C 73.23 100.10 76.38 100.22 79.50 99.80 C 83.43 92.33 90.03 85.89 98.19 83.34 C 97.89 88.00 97.52 92.66 97.66 97.34 C 107.64 91.27 118.28 86.23 127.69 79.26 C 127.45 77.22 126.37 75.09 127.02 73.06 C 129.85 70.27 134.18 69.38 136.52 66.01 C 136.37 62.73 135.17 59.62 134.45 56.44 C 128.11 54.83 121.53 54.37 115.00 54.46 C 111.32 54.33 107.30 54.00 104.21 51.79 C 101.74 48.22 100.91 43.85 100.09 39.67 C 103.68 42.41 107.40 45.25 111.95 46.11 C 117.75 47.76 123.69 46.45 129.28 44.72 C 128.56 33.96 120.91 25.51 114.38 17.57 C 110.57 12.00 106.57 6.39 104.23 0.00 M 108.15 5.57 C 113.80 13.45 120.99 20.12 126.12 28.38 L 126.59 28.54 C 128.97 33.35 131.57 38.18 132.14 43.61 C 131.67 45.13 130.94 46.53 130.10 47.87 C 128.43 47.55 126.72 47.54 125.14 48.25 C 117.77 50.84 109.22 49.03 103.15 44.21 C 103.09 47.51 105.61 50.78 108.98 51.18 C 117.94 53.16 127.39 50.74 136.18 53.80 C 136.50 54.35 137.15 55.46 137.48 56.02 C 138.37 59.58 140.31 63.18 139.45 66.92 C 137.90 70.98 133.44 72.32 129.88 74.00 C 129.53 75.51 129.84 77.50 131.18 78.45 C 130.52 79.75 129.71 80.97 128.76 82.08 C 120.09 87.84 110.98 92.88 101.83 97.84 C 100.72 98.29 99.61 98.74 98.49 99.18 C 99.23 102.39 97.23 105.22 96.08 108.06 C 98.81 106.33 101.55 104.62 104.41 103.13 C 109.39 100.55 114.18 97.57 119.37 95.41 C 121.24 94.57 123.33 94.91 125.28 95.26 C 125.46 90.53 131.62 91.80 134.24 89.21 C 134.81 87.79 134.95 86.25 135.27 84.78 C 135.85 84.25 136.42 83.73 136.99 83.21 C 140.58 81.96 144.27 81.09 147.93 80.10 C 146.20 76.16 145.32 71.93 144.50 67.72 L 144.56 66.92 C 147.28 66.23 150.07 65.92 152.87 65.80 C 154.07 57.26 153.20 48.62 153.94 40.05 C 154.06 36.33 153.67 32.62 153.53 28.91 C 152.65 38.14 152.09 47.43 150.38 56.57 C 149.98 57.85 149.88 60.06 148.01 59.88 C 144.65 57.86 140.00 55.66 140.17 51.05 C 140.87 49.73 142.10 48.80 143.13 47.74 C 141.77 44.42 140.16 41.21 138.28 38.15 C 136.10 34.68 134.16 31.06 131.93 27.63 C 123.04 20.82 116.90 11.19 108.26 4.14 C 108.23 4.49 108.18 5.21 108.15 5.57 M 17.68 62.03 C 16.50 63.54 15.79 65.31 15.31 67.15 C 17.44 67.96 19.49 68.96 21.47 70.07 C 22.08 73.86 17.88 75.63 14.79 74.54 C 10.46 74.11 7.88 70.33 4.25 68.49 C 7.16 74.00 11.39 78.79 16.41 82.47 C 19.27 84.65 22.99 85.05 26.01 86.93 C 25.50 87.41 24.48 88.35 23.97 88.82 C 24.51 88.97 25.58 89.28 26.12 89.43 C 28.20 89.98 30.29 90.50 32.39 90.98 C 34.47 91.74 36.85 92.34 37.94 94.50 C 37.28 95.81 36.68 97.14 36.10 98.49 C 39.61 99.83 42.96 101.58 45.97 103.84 C 46.10 102.13 45.20 99.63 46.90 98.52 C 51.80 99.58 56.31 101.92 60.94 103.76 C 60.44 101.77 59.79 99.83 59.04 97.92 C 58.02 98.47 57.00 99.01 55.98 99.56 C 52.88 98.09 49.27 97.47 46.59 95.24 C 46.04 91.15 46.43 86.94 45.34 82.91 C 44.46 85.23 43.90 87.65 42.97 89.96 C 39.95 89.50 37.37 87.80 34.87 86.14 L 34.05 87.24 C 33.44 87.04 32.21 86.64 31.59 86.44 C 34.81 81.88 38.41 77.61 41.99 73.33 C 43.39 70.96 44.95 68.69 46.29 66.28 C 42.52 62.93 39.41 58.97 36.44 54.92 C 36.43 57.28 36.44 59.64 36.19 61.99 C 37.68 62.41 39.21 62.84 40.46 63.79 C 41.65 67.62 38.35 70.52 35.99 72.97 C 35.25 73.42 34.68 74.17 34.04 74.77 C 31.81 76.58 29.49 78.68 26.35 77.83 C 26.41 77.14 26.54 75.77 26.60 75.08 C 24.98 73.09 24.68 70.51 24.19 68.08 C 22.92 64.99 24.01 61.99 26.87 60.35 C 26.54 59.21 26.10 58.10 25.48 57.09 C 23.94 53.97 23.44 50.47 23.15 47.04 C 22.46 35.93 24.90 24.97 25.73 13.95 C 18.32 28.80 18.80 45.87 17.68 62.03 M 82.15 99.99 C 82.22 100.85 82.36 102.57 82.43 103.43 C 78.69 102.81 74.92 102.12 71.12 102.53 C 69.36 103.04 67.51 103.52 66.04 104.67 C 64.28 105.75 62.65 107.00 60.99 108.22 L 61.28 108.79 C 60.71 109.17 59.55 109.93 58.97 110.32 C 57.67 110.79 56.37 111.26 55.07 111.73 C 56.63 110.13 59.02 108.84 58.96 106.30 C 55.11 104.86 51.52 102.86 47.91 100.94 C 48.89 105.74 50.34 110.45 52.24 114.97 C 51.68 118.26 50.54 121.59 50.99 124.95 C 52.90 127.89 56.71 130.06 56.33 134.03 C 56.55 135.91 55.69 139.86 58.89 138.85 C 58.95 139.42 59.08 140.56 59.14 141.14 C 61.44 141.25 61.30 139.18 60.40 137.67 C 62.71 137.70 65.80 137.77 67.03 140.11 C 65.59 140.86 64.18 141.68 62.91 142.70 C 66.68 142.60 70.31 141.46 74.02 140.96 C 77.68 140.77 79.74 137.40 82.28 135.25 C 84.35 133.02 87.26 131.10 88.02 128.01 C 89.02 127.63 90.01 127.26 91.01 126.89 C 88.44 133.69 83.04 138.74 77.30 142.95 C 78.03 144.03 78.77 145.11 79.51 146.18 C 82.10 149.81 84.47 153.60 86.46 157.58 C 88.62 161.79 85.95 167.09 89.00 170.99 C 91.28 174.40 89.49 179.08 91.17 182.51 C 91.47 188.24 91.45 194.50 94.30 199.63 C 99.07 204.03 103.84 209.10 110.18 211.15 C 108.10 208.39 104.75 205.96 105.42 202.04 C 106.40 194.86 110.77 188.52 111.08 181.14 C 111.62 180.13 112.17 179.12 112.73 178.11 C 112.16 186.19 109.28 193.85 108.55 201.90 C 108.64 203.34 108.79 204.96 110.08 205.88 C 115.44 210.87 122.59 214.20 126.36 220.72 C 124.88 220.47 123.40 220.32 121.91 220.18 C 122.30 221.78 122.78 223.36 123.11 224.99 C 122.09 229.10 120.02 232.92 119.61 237.20 C 118.43 240.59 117.87 244.15 116.98 247.62 C 115.88 253.72 114.17 259.69 112.99 265.78 C 111.33 277.86 103.98 288.67 104.45 301.12 C 105.88 302.36 108.11 301.72 109.87 302.10 C 112.37 301.88 114.85 301.53 117.30 301.05 C 117.12 294.66 119.78 287.86 116.59 281.86 C 117.25 278.10 117.42 274.26 118.54 270.59 L 118.72 270.76 C 120.61 264.99 122.91 259.34 124.53 253.48 L 124.77 252.30 C 127.76 247.59 129.10 241.95 132.88 237.71 C 134.58 237.63 136.31 237.60 137.94 237.06 C 136.58 234.83 134.79 232.70 134.30 230.09 C 135.52 226.63 138.43 224.26 141.05 221.87 C 145.84 218.09 153.25 215.00 152.68 207.68 L 153.14 209.56 C 155.14 214.09 149.96 217.39 148.04 221.02 C 152.73 221.24 157.40 220.67 162.08 220.91 C 162.89 218.35 163.56 215.76 164.20 213.16 C 165.59 208.96 167.36 204.77 170.53 201.57 C 171.29 207.24 167.13 211.96 166.65 217.47 L 166.19 216.93 C 165.25 220.25 166.52 223.74 169.44 225.60 C 174.51 228.76 181.08 230.13 184.47 235.49 C 187.40 240.52 188.85 246.19 189.62 251.92 C 189.72 253.58 189.99 255.23 190.24 256.89 C 190.46 260.59 190.78 264.33 190.30 268.03 C 189.11 269.59 187.11 270.34 186.00 271.99 C 185.11 274.40 185.91 277.25 188.02 278.76 C 189.88 277.72 191.93 277.12 194.02 276.74 C 194.13 271.01 194.80 265.31 196.43 259.80 C 197.53 256.68 198.36 253.48 199.31 250.32 C 200.95 245.43 202.46 238.74 198.24 234.74 C 195.28 230.12 192.48 225.06 188.09 221.67 C 188.02 220.98 187.87 219.59 187.79 218.90 C 189.01 215.61 189.93 212.19 190.33 208.70 C 191.51 205.48 192.50 201.92 192.13 198.49 C 192.87 196.00 192.97 193.40 193.13 190.83 C 191.52 189.60 189.78 188.54 187.91 187.78 C 186.27 186.29 184.17 185.48 182.19 184.57 C 173.49 182.06 166.65 175.85 158.57 172.15 L 158.35 171.43 C 153.68 168.58 149.15 165.49 144.45 162.67 C 143.06 161.58 141.54 160.69 140.03 159.78 C 134.56 155.27 128.56 151.40 123.33 146.60 C 119.31 142.73 114.24 140.26 109.97 136.70 C 106.48 133.70 103.23 130.46 100.18 127.03 C 96.87 122.19 94.38 116.89 91.50 111.81 C 92.62 109.20 93.50 106.48 94.78 103.94 C 96.64 100.76 95.41 97.03 95.17 93.63 C 95.83 91.50 95.75 89.24 95.89 87.04 C 90.52 90.38 85.62 94.66 82.15 99.99 M 191.18 184.87 C 192.50 186.58 194.51 187.50 196.04 188.99 C 196.93 191.09 196.60 193.49 196.80 195.73 C 196.29 199.73 195.72 203.74 195.15 207.74 C 201.58 211.24 209.07 208.99 215.09 205.76 C 213.60 204.87 212.27 203.47 210.50 203.24 C 208.18 200.27 205.50 197.47 204.13 193.89 C 202.72 190.86 201.89 187.06 198.70 185.35 C 196.44 183.87 193.63 184.12 191.18 184.87 M 105.15 214.08 C 108.12 223.20 111.55 232.17 114.36 241.34 C 116.06 238.90 116.21 235.84 116.74 233.01 C 117.30 228.21 119.37 223.78 120.19 219.04 C 114.69 218.79 110.59 214.48 105.15 214.08 M 137.16 229.95 C 138.33 232.83 140.49 235.20 141.55 238.12 C 140.55 241.01 136.50 240.35 134.06 240.93 C 133.48 241.95 132.90 242.97 132.33 244.00 C 134.06 247.47 135.16 251.22 135.97 255.00 C 136.82 257.80 134.34 259.85 132.77 261.77 C 130.78 263.77 129.53 266.31 128.57 268.93 C 130.37 271.79 130.44 275.28 132.00 278.24 C 139.49 275.33 147.52 274.45 155.24 272.34 C 158.91 271.41 162.71 271.20 166.42 270.49 C 169.66 269.68 172.83 268.58 176.14 268.09 C 174.46 269.14 172.86 270.34 171.57 271.87 C 172.57 272.60 173.44 273.50 174.20 274.49 C 170.71 275.38 167.18 276.14 163.85 277.56 C 170.52 277.20 177.06 275.59 183.76 275.51 C 183.66 273.97 183.56 272.44 183.45 270.91 C 184.82 269.96 186.22 269.05 187.63 268.17 C 187.42 258.37 186.61 248.15 182.49 239.12 C 184.19 246.30 184.11 253.84 182.34 260.99 C 181.77 262.77 181.82 264.63 182.17 266.45 C 179.38 267.41 178.59 264.23 177.56 262.37 C 173.69 253.56 170.04 244.63 165.86 235.97 C 162.97 234.52 159.42 234.88 156.51 233.38 C 155.10 230.60 154.75 227.43 153.69 224.52 C 150.69 224.60 147.72 224.23 144.76 223.84 C 141.61 224.87 139.16 227.39 137.16 229.95 M 157.17 228.97 C 157.64 228.70 158.59 228.15 159.07 227.87 C 158.67 226.65 158.29 225.43 157.78 224.27 C 155.00 224.24 156.52 227.52 157.17 228.97 M 123.28 267.22 C 121.62 272.21 118.89 277.76 121.01 283.00 C 122.27 286.30 121.82 289.90 121.59 293.33 C 124.22 294.70 127.14 293.83 129.83 293.18 C 130.18 287.46 130.08 281.65 128.89 276.02 C 128.23 272.75 125.52 269.83 126.43 266.35 C 127.22 262.40 130.22 259.51 132.74 256.59 C 132.19 253.94 131.54 251.30 130.65 248.75 C 127.24 254.47 125.98 261.16 123.28 267.22 Z" />
<path fill="#c96b81" opacity="1.00" d=" M 108.15 5.57 C 108.18 5.21 108.23 4.49 108.26 4.14 C 116.90 11.19 123.04 20.82 131.93 27.63 C 131.38 28.36 130.83 29.10 130.29 29.83 C 129.05 29.40 127.83 28.97 126.59 28.54 L 126.12 28.38 C 120.99 20.12 113.80 13.45 108.15 5.57 Z" />
<path fill="#fff6e3" opacity="1.00" d=" M 17.68 62.03 C 18.80 45.87 18.32 28.80 25.73 13.95 C 24.90 24.97 22.46 35.93 23.15 47.04 C 23.44 50.47 23.94 53.97 25.48 57.09 C 23.05 59.42 20.42 61.52 17.66 63.45 C 17.66 63.09 17.68 62.39 17.68 62.03 Z" />
<path fill="#ce798b" opacity="1.00" d=" M 126.59 28.54 C 127.83 28.97 129.05 29.40 130.29 29.83 C 130.83 29.10 131.38 28.36 131.93 27.63 C 134.16 31.06 136.10 34.68 138.28 38.15 C 134.82 39.80 137.32 44.06 136.32 46.99 C 136.25 46.15 136.10 44.45 136.02 43.60 C 134.73 43.60 133.43 43.61 132.14 43.61 C 131.57 38.18 128.97 33.35 126.59 28.54 Z" />
<path fill="#c25975" opacity="1.00" d=" M 153.53 28.91 C 153.67 32.62 154.06 36.33 153.94 40.05 C 153.20 48.62 154.07 57.26 152.87 65.80 C 150.07 65.92 147.28 66.23 144.56 66.92 C 144.60 64.69 144.53 62.45 144.52 60.22 C 142.50 58.32 140.06 56.99 137.48 56.02 C 137.15 55.46 136.50 54.35 136.18 53.80 C 127.39 50.74 117.94 53.16 108.98 51.18 C 114.98 52.10 121.06 51.55 127.09 51.35 C 130.65 51.28 133.73 49.25 136.32 46.99 C 137.32 44.06 134.82 39.80 138.28 38.15 C 140.16 41.21 141.77 44.42 143.13 47.74 C 142.10 48.80 140.87 49.73 140.17 51.05 C 140.00 55.66 144.65 57.86 148.01 59.88 C 149.88 60.06 149.98 57.85 150.38 56.57 C 152.09 47.43 152.65 38.14 153.53 28.91 Z" />
<path fill="#f6dbd0" opacity="1.00" d=" M 108.98 51.18 C 105.61 50.78 103.09 47.51 103.15 44.21 C 109.22 49.03 117.77 50.84 125.14 48.25 C 126.72 47.54 128.43 47.55 130.10 47.87 C 130.94 46.53 131.67 45.13 132.14 43.61 C 133.43 43.61 134.73 43.60 136.02 43.60 C 136.10 44.45 136.25 46.15 136.32 46.99 C 133.73 49.25 130.65 51.28 127.09 51.35 C 121.06 51.55 114.98 52.10 108.98 51.18 Z" />
<path fill="#fff3e1" opacity="1.00" d=" M 36.44 54.92 C 39.41 58.97 42.52 62.93 46.29 66.28 C 44.95 68.69 43.39 70.96 41.99 73.33 C 40.00 73.16 38.00 73.01 35.99 72.97 C 38.35 70.52 41.65 67.62 40.46 63.79 C 39.21 62.84 37.68 62.41 36.19 61.99 C 36.44 59.64 36.43 57.28 36.44 54.92 Z" />
<path fill="#f8e0d4" opacity="1.00" d=" M 137.48 56.02 C 140.06 56.99 142.50 58.32 144.52 60.22 C 144.53 62.45 144.60 64.69 144.56 66.92 L 144.50 67.72 C 143.85 71.04 144.00 74.56 142.89 77.76 C 139.99 79.85 136.20 79.83 132.79 79.58 C 132.39 79.30 131.58 78.73 131.18 78.45 C 129.84 77.50 129.53 75.51 129.88 74.00 C 133.44 72.32 137.90 70.98 139.45 66.92 C 140.31 63.18 138.37 59.58 137.48 56.02 Z" />
<path fill="#c96c82" opacity="1.00" d=" M 25.48 57.09 C 26.10 58.10 26.54 59.21 26.87 60.35 C 24.01 61.99 22.92 64.99 24.19 68.08 C 23.28 68.74 22.37 69.41 21.47 70.07 C 19.49 68.96 17.44 67.96 15.31 67.15 C 15.79 65.31 16.50 63.54 17.68 62.03 C 17.68 62.39 17.66 63.09 17.66 63.45 C 20.42 61.52 23.05 59.42 25.48 57.09 Z" />
<path fill="#fff3e1" opacity="1.00" d=" M 4.25 68.49 C 7.88 70.33 10.46 74.11 14.79 74.54 C 17.88 75.63 22.08 73.86 21.47 70.07 C 22.37 69.41 23.28 68.74 24.19 68.08 C 24.68 70.51 24.98 73.09 26.60 75.08 C 26.54 75.77 26.41 77.14 26.35 77.83 C 29.49 78.68 31.81 76.58 34.04 74.77 L 35.26 74.80 C 33.79 79.68 28.63 83.17 29.28 88.59 C 28.25 88.98 27.20 89.26 26.12 89.43 C 25.58 89.28 24.51 88.97 23.97 88.82 C 24.48 88.35 25.50 87.41 26.01 86.93 C 22.99 85.05 19.27 84.65 16.41 82.47 C 11.39 78.79 7.16 74.00 4.25 68.49 Z" />
<path fill="#c45674" opacity="1.00" d=" M 142.89 77.76 C 144.00 74.56 143.85 71.04 144.50 67.72 C 145.32 71.93 146.20 76.16 147.93 80.10 C 144.27 81.09 140.58 81.96 136.99 83.21 C 135.58 82.02 134.20 80.78 132.79 79.58 C 136.20 79.83 139.99 79.85 142.89 77.76 Z" />
<path fill="#f1d1c9" opacity="1.00" d=" M 34.04 74.77 C 34.68 74.17 35.25 73.42 35.99 72.97 C 38.00 73.01 40.00 73.16 41.99 73.33 C 38.41 77.61 34.81 81.88 31.59 86.44 C 30.86 87.20 30.07 87.89 29.28 88.59 C 28.63 83.17 33.79 79.68 35.26 74.80 L 34.04 74.77 Z" />
<path fill="#cd7689" opacity="1.00" d=" M 131.18 78.45 C 131.58 78.73 132.39 79.30 132.79 79.58 C 134.20 80.78 135.58 82.02 136.99 83.21 C 136.42 83.73 135.85 84.25 135.27 84.78 C 134.62 84.84 133.30 84.96 132.65 85.03 C 131.35 84.04 130.06 83.06 128.76 82.08 C 129.71 80.97 130.52 79.75 131.18 78.45 Z" />
<path fill="#fdefde" opacity="1.00" d=" M 101.83 97.84 C 110.98 92.88 120.09 87.84 128.76 82.08 C 130.06 83.06 131.35 84.04 132.65 85.03 C 122.89 90.19 113.15 95.42 103.59 100.94 C 103.05 99.89 102.43 98.87 101.83 97.84 Z" />
<path fill="#c25774" opacity="1.00" d=" M 42.97 89.96 C 43.90 87.65 44.46 85.23 45.34 82.91 C 46.43 86.94 46.04 91.15 46.59 95.24 C 49.27 97.47 52.88 98.09 55.98 99.56 C 57.00 99.01 58.02 98.47 59.04 97.92 C 59.79 99.83 60.44 101.77 60.94 103.76 C 56.31 101.92 51.80 99.58 46.90 98.52 C 45.20 99.63 46.10 102.13 45.97 103.84 C 42.96 101.58 39.61 99.83 36.10 98.49 C 36.68 97.14 37.28 95.81 37.94 94.50 C 39.91 94.15 41.87 93.77 43.83 93.38 C 43.54 92.24 43.26 91.10 42.97 89.96 Z" />
<path fill="#bf5270" opacity="1.00" d=" M 132.65 85.03 C 133.30 84.96 134.62 84.84 135.27 84.78 C 134.95 86.25 134.81 87.79 134.24 89.21 C 131.62 91.80 125.46 90.53 125.28 95.26 C 123.33 94.91 121.24 94.57 119.37 95.41 C 114.18 97.57 109.39 100.55 104.41 103.13 C 104.20 102.58 103.80 101.49 103.59 100.94 C 113.15 95.42 122.89 90.19 132.65 85.03 Z" />
<path fill="#db8898" opacity="1.00" d=" M 29.28 88.59 C 30.07 87.89 30.86 87.20 31.59 86.44 C 32.21 86.64 33.44 87.04 34.05 87.24 C 33.43 88.46 32.91 89.72 32.39 90.98 C 30.29 90.50 28.20 89.98 26.12 89.43 C 27.20 89.26 28.25 88.98 29.28 88.59 Z" />
<path fill="#eec8c2" opacity="1.00" d=" M 34.05 87.24 L 34.87 86.14 C 37.37 87.80 39.95 89.50 42.97 89.96 C 43.26 91.10 43.54 92.24 43.83 93.38 C 41.87 93.77 39.91 94.15 37.94 94.50 C 36.85 92.34 34.47 91.74 32.39 90.98 C 32.91 89.72 33.43 88.46 34.05 87.24 Z" />
<path fill="#6c4355" opacity="1.00" d=" M 82.15 99.99 C 85.62 94.66 90.52 90.38 95.89 87.04 C 95.75 89.24 95.83 91.50 95.17 93.63 C 93.85 97.28 92.18 100.81 89.93 103.99 C 87.10 107.36 88.40 112.06 86.98 115.96 C 85.26 120.76 83.35 125.93 79.07 129.05 C 76.04 131.38 73.59 134.31 71.17 137.23 C 70.95 133.87 70.92 130.42 72.37 127.30 C 75.87 126.28 79.49 124.78 81.95 121.98 C 83.67 119.02 83.40 115.41 83.69 112.11 C 79.79 112.79 76.37 115.02 74.04 118.20 C 72.18 115.34 71.77 112.00 72.63 108.73 C 72.23 108.54 71.83 108.36 71.43 108.17 C 71.36 106.29 71.26 104.41 71.12 102.53 C 74.92 102.12 78.69 102.81 82.43 103.43 C 82.36 102.57 82.22 100.85 82.15 99.99 M 75.37 109.69 C 75.83 111.03 78.12 110.95 78.69 109.71 C 79.68 108.12 77.98 107.12 76.98 106.22 C 76.12 107.06 74.23 108.26 75.37 109.69 Z" />
<path fill="#4e2b46" opacity="1.00" d=" M 89.93 103.99 C 92.18 100.81 93.85 97.28 95.17 93.63 C 95.41 97.03 96.64 100.76 94.78 103.94 C 93.50 106.48 92.62 109.20 91.50 111.81 C 89.79 114.77 87.72 117.65 87.22 121.12 C 86.71 123.45 87.64 125.73 88.02 128.01 C 87.26 131.10 84.35 133.02 82.28 135.25 C 79.74 137.40 77.68 140.77 74.02 140.96 C 70.31 141.46 66.68 142.60 62.91 142.70 C 64.18 141.68 65.59 140.86 67.03 140.11 L 67.64 141.10 C 68.82 139.82 70.02 138.55 71.17 137.23 C 73.59 134.31 76.04 131.38 79.07 129.05 C 83.35 125.93 85.26 120.76 86.98 115.96 C 88.40 112.06 87.10 107.36 89.93 103.99 Z" />
<path fill="#d0788b" opacity="1.00" d=" M 98.49 99.18 C 99.61 98.74 100.72 98.29 101.83 97.84 C 102.43 98.87 103.05 99.89 103.59 100.94 C 103.80 101.49 104.20 102.58 104.41 103.13 C 101.55 104.62 98.81 106.33 96.08 108.06 C 97.23 105.22 99.23 102.39 98.49 99.18 Z" />
<path fill="#7e515e" opacity="1.00" d=" M 47.91 100.94 C 51.52 102.86 55.11 104.86 58.96 106.30 C 59.02 108.84 56.63 110.13 55.07 111.73 C 56.37 111.26 57.67 110.79 58.97 110.32 C 59.55 111.85 61.50 113.54 62.33 111.08 C 62.07 110.51 61.55 109.36 61.28 108.79 L 60.99 108.22 C 62.65 107.00 64.28 105.75 66.04 104.67 C 65.52 105.26 64.48 106.45 63.96 107.05 C 65.76 109.80 68.86 109.87 71.43 108.17 C 71.83 108.36 72.23 108.54 72.63 108.73 C 71.77 112.00 72.18 115.34 74.04 118.20 C 72.00 121.06 70.35 124.27 70.03 127.82 C 70.61 127.69 71.78 127.43 72.37 127.30 C 70.92 130.42 70.95 133.87 71.17 137.23 C 70.02 138.55 68.82 139.82 67.64 141.10 L 67.03 140.11 C 65.80 137.77 62.71 137.70 60.40 137.67 C 61.30 139.18 61.44 141.25 59.14 141.14 C 59.08 140.56 58.95 139.42 58.89 138.85 C 55.69 139.86 56.55 135.91 56.33 134.03 C 56.71 130.06 52.90 127.89 50.99 124.95 C 50.54 121.59 51.68 118.26 52.24 114.97 C 50.34 110.45 48.89 105.74 47.91 100.94 M 59.17 114.21 C 56.13 115.29 58.54 119.89 61.13 118.23 C 63.44 116.81 61.62 113.39 59.17 114.21 Z" />
<path fill="#fff3e1" opacity="1.00" d=" M 66.04 104.67 C 67.51 103.52 69.36 103.04 71.12 102.53 C 71.26 104.41 71.36 106.29 71.43 108.17 C 68.86 109.87 65.76 109.80 63.96 107.05 C 64.48 106.45 65.52 105.26 66.04 104.67 Z" />
<path fill="#fff6e3" opacity="1.00" d=" M 75.37 109.69 C 74.23 108.26 76.12 107.06 76.98 106.22 C 77.98 107.12 79.68 108.12 78.69 109.71 C 78.12 110.95 75.83 111.03 75.37 109.69 Z" />
<path fill="#fff6e3" opacity="1.00" d=" M 58.97 110.32 C 59.55 109.93 60.71 109.17 61.28 108.79 C 61.55 109.36 62.07 110.51 62.33 111.08 C 61.50 113.54 59.55 111.85 58.97 110.32 Z" />
<path fill="#000000" opacity="1.00" d=" M 74.04 118.20 C 76.37 115.02 79.79 112.79 83.69 112.11 C 83.40 115.41 83.67 119.02 81.95 121.98 C 79.49 124.78 75.87 126.28 72.37 127.30 C 71.78 127.43 70.61 127.69 70.03 127.82 C 70.35 124.27 72.00 121.06 74.04 118.20 M 77.81 116.45 C 74.96 118.94 73.15 122.32 71.53 125.67 C 73.52 125.37 75.45 124.76 77.36 124.14 C 78.67 123.18 80.25 122.44 81.09 120.99 C 81.67 118.61 81.32 116.15 81.31 113.74 C 80.14 114.65 78.98 115.55 77.81 116.45 Z" />
<path fill="#3c233b" opacity="1.00" d=" M 87.22 121.12 C 87.72 117.65 89.79 114.77 91.50 111.81 C 94.38 116.89 96.87 122.19 100.18 127.03 C 97.91 127.59 95.63 128.10 93.34 128.57 C 94.89 129.32 96.44 130.08 97.99 130.84 C 96.38 134.05 93.59 136.36 90.48 138.05 C 86.53 140.34 83.02 143.27 79.51 146.18 C 78.77 145.11 78.03 144.03 77.30 142.95 C 83.04 138.74 88.44 133.69 91.01 126.89 C 90.01 127.26 89.02 127.63 88.02 128.01 C 87.64 125.73 86.71 123.45 87.22 121.12 Z" />
<path fill="#fff6e3" opacity="1.00" d=" M 59.17 114.21 C 61.62 113.39 63.44 116.81 61.13 118.23 C 58.54 119.89 56.13 115.29 59.17 114.21 Z" />
<path fill="#990a69" opacity="1.00" d=" M 77.81 116.45 C 78.98 115.55 80.14 114.65 81.31 113.74 C 81.32 116.15 81.67 118.61 81.09 120.99 C 80.25 122.44 78.67 123.18 77.36 124.14 C 77.67 121.59 77.81 119.02 77.81 116.45 Z" />
<path fill="#ff3e84" opacity="1.00" d=" M 71.53 125.67 C 73.15 122.32 74.96 118.94 77.81 116.45 C 77.81 119.02 77.67 121.59 77.36 124.14 C 75.45 124.76 73.52 125.37 71.53 125.67 Z" />
<path fill="#724857" opacity="1.00" d=" M 93.34 128.57 C 95.63 128.10 97.91 127.59 100.18 127.03 C 103.23 130.46 106.48 133.70 109.97 136.70 C 108.24 138.38 106.15 139.85 105.08 142.08 C 105.76 144.91 107.45 147.63 106.65 150.64 C 106.14 153.04 106.85 155.41 107.61 157.68 C 105.86 157.49 104.10 157.47 102.35 157.67 C 98.55 151.03 94.31 144.66 90.48 138.05 C 93.59 136.36 96.38 134.05 97.99 130.84 C 96.44 130.08 94.89 129.32 93.34 128.57 Z" />
<path fill="#7a4e5b" opacity="1.00" d=" M 105.08 142.08 C 106.15 139.85 108.24 138.38 109.97 136.70 C 114.24 140.26 119.31 142.73 123.33 146.60 C 128.56 151.40 134.56 155.27 140.03 159.78 C 139.35 161.29 137.71 163.14 139.30 164.68 C 140.88 166.85 144.77 165.38 144.45 162.67 C 149.15 165.49 153.68 168.58 158.35 171.43 C 156.66 171.97 154.34 173.18 155.53 175.32 C 157.65 177.73 160.20 174.28 158.57 172.15 C 166.65 175.85 173.49 182.06 182.19 184.57 C 181.87 185.21 181.23 186.49 180.91 187.13 C 179.79 186.04 178.73 184.47 176.98 184.50 C 174.62 184.18 172.47 186.67 173.09 188.98 C 173.26 191.02 175.56 191.54 176.98 192.49 C 176.64 193.32 176.29 194.15 175.94 194.99 C 174.33 197.34 172.37 199.41 170.53 201.57 C 167.36 204.77 165.59 208.96 164.20 213.16 C 162.64 212.53 161.09 211.90 159.54 211.26 C 159.59 208.78 159.60 206.29 159.53 203.81 C 157.05 205.31 155.07 207.43 153.14 209.56 L 152.68 207.68 C 153.20 200.07 151.62 192.43 148.14 185.64 C 147.62 192.02 147.34 198.50 145.53 204.69 C 144.11 208.32 140.23 211.56 136.15 210.73 C 133.07 209.43 130.69 206.96 128.00 205.05 C 125.24 202.86 121.84 201.12 120.20 197.84 C 118.58 194.65 117.11 191.35 116.17 187.89 C 114.57 180.29 116.22 172.58 116.65 164.96 C 115.38 167.86 114.15 170.78 112.99 173.73 C 109.32 168.46 105.55 163.24 102.35 157.67 C 104.10 157.47 105.86 157.49 107.61 157.68 C 106.85 155.41 106.14 153.04 106.65 150.64 C 107.45 147.63 105.76 144.91 105.08 142.08 M 127.31 155.52 C 125.43 156.88 127.81 159.87 129.57 158.42 C 131.79 157.20 129.15 153.67 127.31 155.52 M 155.17 181.09 C 151.91 183.15 155.89 188.44 158.69 185.56 C 161.46 183.47 157.88 178.89 155.17 181.09 Z" />
<path fill="#492843" opacity="1.00" d=" M 79.51 146.18 C 83.02 143.27 86.53 140.34 90.48 138.05 C 94.31 144.66 98.55 151.03 102.35 157.67 C 105.55 163.24 109.32 168.46 112.99 173.73 C 114.15 170.78 115.38 167.86 116.65 164.96 C 116.22 172.58 114.57 180.29 116.17 187.89 C 117.11 191.35 118.58 194.65 120.20 197.84 C 121.84 201.12 125.24 202.86 128.00 205.05 C 130.69 206.96 133.07 209.43 136.15 210.73 C 140.23 211.56 144.11 208.32 145.53 204.69 C 147.34 198.50 147.62 192.02 148.14 185.64 C 151.62 192.43 153.20 200.07 152.68 207.68 C 153.25 215.00 145.84 218.09 141.05 221.87 C 137.73 221.81 133.10 222.41 131.54 218.64 C 131.13 215.61 131.17 212.54 130.80 209.51 C 122.90 208.37 116.34 203.38 108.55 201.90 C 109.28 193.85 112.16 186.19 112.73 178.11 C 112.17 179.12 111.62 180.13 111.08 181.14 C 109.49 180.79 107.89 180.44 106.30 180.09 C 104.55 182.27 102.96 185.26 99.88 185.61 C 96.61 186.28 93.75 184.17 91.17 182.51 C 89.49 179.08 91.28 174.40 89.00 170.99 C 85.95 167.09 88.62 161.79 86.46 157.58 C 84.47 153.60 82.10 149.81 79.51 146.18 Z" />
<path fill="#fff6e3" opacity="1.00" d=" M 127.31 155.52 C 129.15 153.67 131.79 157.20 129.57 158.42 C 127.81 159.87 125.43 156.88 127.31 155.52 Z" />
<path fill="#fff3e1" opacity="1.00" d=" M 140.03 159.78 C 141.54 160.69 143.06 161.58 144.45 162.67 C 144.77 165.38 140.88 166.85 139.30 164.68 C 137.71 163.14 139.35 161.29 140.03 159.78 Z" />
<path fill="#fff6e3" opacity="1.00" d=" M 155.53 175.32 C 154.34 173.18 156.66 171.97 158.35 171.43 L 158.57 172.15 C 160.20 174.28 157.65 177.73 155.53 175.32 Z" />
<path fill="#2f1b34" opacity="1.00" d=" M 106.30 180.09 C 107.89 180.44 109.49 180.79 111.08 181.14 C 110.77 188.52 106.40 194.86 105.42 202.04 C 104.75 205.96 108.10 208.39 110.18 211.15 C 103.84 209.10 99.07 204.03 94.30 199.63 C 91.45 194.50 91.47 188.24 91.17 182.51 C 93.75 184.17 96.61 186.28 99.88 185.61 C 102.96 185.26 104.55 182.27 106.30 180.09 Z" />
<path fill="#fff3e1" opacity="1.00" d=" M 155.17 181.09 C 157.88 178.89 161.46 183.47 158.69 185.56 C 155.89 188.44 151.91 183.15 155.17 181.09 Z" />
<path fill="#673650" opacity="1.00" d=" M 191.18 184.87 C 193.63 184.12 196.44 183.87 198.70 185.35 C 201.89 187.06 202.72 190.86 204.13 193.89 C 205.50 197.47 208.18 200.27 210.50 203.24 C 207.77 202.96 204.81 203.14 202.40 201.61 C 200.19 200.01 198.57 197.77 196.80 195.73 C 196.60 193.49 196.93 191.09 196.04 188.99 C 194.51 187.50 192.50 186.58 191.18 184.87 Z" />
<path fill="#fff3e1" opacity="1.00" d=" M 173.09 188.98 C 172.47 186.67 174.62 184.18 176.98 184.50 C 178.73 184.47 179.79 186.04 180.91 187.13 C 180.69 189.60 179.08 191.35 176.98 192.49 C 175.56 191.54 173.26 191.02 173.09 188.98 Z" />
<path fill="#633c4f" opacity="1.00" d=" M 182.19 184.57 C 184.17 185.48 186.27 186.29 187.91 187.78 C 189.16 191.41 190.50 195.01 192.13 198.49 C 192.50 201.92 191.51 205.48 190.33 208.70 C 187.68 212.18 184.93 215.96 180.86 217.85 C 177.53 218.68 173.27 216.64 172.81 212.97 C 171.47 206.14 175.66 200.02 178.97 194.44 C 177.96 194.62 176.95 194.80 175.94 194.99 C 176.29 194.15 176.64 193.32 176.98 192.49 C 179.08 191.35 180.69 189.60 180.91 187.13 C 181.23 186.49 181.87 185.21 182.19 184.57 Z" />
<path fill="#442541" opacity="1.00" d=" M 187.91 187.78 C 189.78 188.54 191.52 189.60 193.13 190.83 C 192.97 193.40 192.87 196.00 192.13 198.49 C 190.50 195.01 189.16 191.41 187.91 187.78 Z" />
<path fill="#3f243e" opacity="1.00" d=" M 175.94 194.99 C 176.95 194.80 177.96 194.62 178.97 194.44 C 175.66 200.02 171.47 206.14 172.81 212.97 C 173.27 216.64 177.53 218.68 180.86 217.85 C 184.93 215.96 187.68 212.18 190.33 208.70 C 189.93 212.19 189.01 215.61 187.79 218.90 C 186.19 222.77 181.60 223.88 177.97 224.97 C 172.70 225.89 169.59 220.89 166.65 217.47 C 167.13 211.96 171.29 207.24 170.53 201.57 C 172.37 199.41 174.33 197.34 175.94 194.99 Z" />
<path fill="#371f38" opacity="1.00" d=" M 196.80 195.73 C 198.57 197.77 200.19 200.01 202.40 201.61 C 204.81 203.14 207.77 202.96 210.50 203.24 C 212.27 203.47 213.60 204.87 215.09 205.76 C 209.07 208.99 201.58 211.24 195.15 207.74 C 195.72 203.74 196.29 199.73 196.80 195.73 Z" />
<path fill="#2e1b33" opacity="1.00" d=" M 108.55 201.90 C 116.34 203.38 122.90 208.37 130.80 209.51 C 131.17 212.54 131.13 215.61 131.54 218.64 C 133.10 222.41 137.73 221.81 141.05 221.87 C 138.43 224.26 135.52 226.63 134.30 230.09 C 134.79 232.70 136.58 234.83 137.94 237.06 C 136.31 237.60 134.58 237.63 132.88 237.71 C 131.14 234.32 131.65 230.59 132.08 226.97 C 132.50 223.59 129.30 221.34 126.36 220.72 C 122.59 214.20 115.44 210.87 110.08 205.88 C 108.79 204.96 108.64 203.34 108.55 201.90 Z" />
<path fill="#351f37" opacity="1.00" d=" M 153.14 209.56 C 155.07 207.43 157.05 205.31 159.53 203.81 C 159.60 206.29 159.59 208.78 159.54 211.26 C 161.09 211.90 162.64 212.53 164.20 213.16 C 163.56 215.76 162.89 218.35 162.08 220.91 C 157.40 220.67 152.73 221.24 148.04 221.02 C 149.96 217.39 155.14 214.09 153.14 209.56 Z" />
<path fill="#2f1b33" opacity="1.00" d=" M 105.15 214.08 C 110.59 214.48 114.69 218.79 120.19 219.04 C 119.37 223.78 117.30 228.21 116.74 233.01 C 116.21 235.84 116.06 238.90 114.36 241.34 C 111.55 232.17 108.12 223.20 105.15 214.08 Z" />
<path fill="#331d36" opacity="1.00" d=" M 166.19 216.93 L 166.65 217.47 C 169.59 220.89 172.70 225.89 177.97 224.97 C 181.60 223.88 186.19 222.77 187.79 218.90 C 187.87 219.59 188.02 220.98 188.09 221.67 C 192.48 225.06 195.28 230.12 198.24 234.74 C 195.90 233.77 193.52 232.75 191.00 232.45 C 188.45 232.36 186.33 233.96 184.47 235.49 C 181.08 230.13 174.51 228.76 169.44 225.60 C 166.52 223.74 165.25 220.25 166.19 216.93 Z" />
<path fill="#3c213b" opacity="1.00" d=" M 121.91 220.18 C 123.40 220.32 124.88 220.47 126.36 220.72 C 129.30 221.34 132.50 223.59 132.08 226.97 C 131.65 230.59 131.14 234.32 132.88 237.71 C 129.10 241.95 127.76 247.59 124.77 252.30 C 125.52 247.67 125.93 242.99 126.65 238.36 C 124.32 237.90 121.98 237.44 119.61 237.20 C 120.02 232.92 122.09 229.10 123.11 224.99 C 122.78 223.36 122.30 221.78 121.91 220.18 Z" />
<path fill="#29182b" opacity="1.00" d=" M 157.17 228.97 C 156.52 227.52 155.00 224.24 157.78 224.27 C 158.29 225.43 158.67 226.65 159.07 227.87 C 158.59 228.15 157.64 228.70 157.17 228.97 Z" />
<path fill="#41233f" opacity="1.00" d=" M 184.47 235.49 C 186.33 233.96 188.45 232.36 191.00 232.45 C 193.52 232.75 195.90 233.77 198.24 234.74 C 202.46 238.74 200.95 245.43 199.31 250.32 C 197.71 248.49 196.16 246.61 194.72 244.64 C 191.31 245.36 189.86 248.76 189.62 251.92 C 188.85 246.19 187.40 240.52 184.47 235.49 Z" />
<path fill="#563349" opacity="1.00" d=" M 116.98 247.62 C 117.87 244.15 118.43 240.59 119.61 237.20 C 121.98 237.44 124.32 237.90 126.65 238.36 C 125.93 242.99 125.52 247.67 124.77 252.30 L 124.53 253.48 C 124.18 251.71 123.76 249.95 123.38 248.18 C 121.31 247.48 119.14 247.18 116.98 247.62 Z" />
<path fill="#543049" opacity="1.00" d=" M 189.62 251.92 C 189.86 248.76 191.31 245.36 194.72 244.64 C 196.16 246.61 197.71 248.49 199.31 250.32 C 198.36 253.48 197.53 256.68 196.43 259.80 C 196.23 259.52 195.82 258.95 195.62 258.67 C 194.71 258.73 193.81 258.81 192.91 258.91 C 192.47 258.09 192.02 257.28 191.58 256.48 C 191.25 256.58 190.58 256.79 190.24 256.89 C 189.99 255.23 189.72 253.58 189.62 251.92 Z" />
<path fill="#663c51" opacity="1.00" d=" M 116.98 247.62 C 119.14 247.18 121.31 247.48 123.38 248.18 C 123.76 249.95 124.18 251.71 124.53 253.48 C 122.91 259.34 120.61 264.99 118.72 270.76 L 118.54 270.59 C 116.73 268.94 114.87 267.34 112.99 265.78 C 114.17 259.69 115.88 253.72 116.98 247.62 Z" />
<path fill="#4b2745" opacity="1.00" d=" M 123.28 267.22 C 125.98 261.16 127.24 254.47 130.65 248.75 C 131.54 251.30 132.19 253.94 132.74 256.59 C 130.22 259.51 127.22 262.40 126.43 266.35 C 125.52 269.83 128.23 272.75 128.89 276.02 C 130.08 281.65 130.18 287.46 129.83 293.18 C 127.14 293.83 124.22 294.70 121.59 293.33 C 121.82 289.90 122.27 286.30 121.01 283.00 C 118.89 277.76 121.62 272.21 123.28 267.22 Z" />
<path fill="#663951" opacity="1.00" d=" M 190.24 256.89 C 190.58 256.79 191.25 256.58 191.58 256.48 C 192.02 257.28 192.47 258.09 192.91 258.91 C 193.81 258.81 194.71 258.73 195.62 258.67 C 195.82 258.95 196.23 259.52 196.43 259.80 C 194.80 265.31 194.13 271.01 194.02 276.74 C 191.93 277.12 189.88 277.72 188.02 278.76 C 185.91 277.25 185.11 274.40 186.00 271.99 C 187.11 270.34 189.11 269.59 190.30 268.03 C 190.78 264.33 190.46 260.59 190.24 256.89 Z" />
<path fill="#81475c" opacity="1.00" d=" M 112.99 265.78 C 114.87 267.34 116.73 268.94 118.54 270.59 C 117.42 274.26 117.25 278.10 116.59 281.86 C 114.30 288.59 111.92 295.29 109.87 302.10 C 108.11 301.72 105.88 302.36 104.45 301.12 C 103.98 288.67 111.33 277.86 112.99 265.78 Z" />
<path fill="#522b48" opacity="1.00" d=" M 109.87 302.10 C 111.92 295.29 114.30 288.59 116.59 281.86 C 119.78 287.86 117.12 294.66 117.30 301.05 C 114.85 301.53 112.37 301.88 109.87 302.10 Z" />
</svg>
