<?xml version="1.0" encoding="UTF-8" ?>
<!DOCTYPE svg PUBLIC "-//W3C//DTD SVG 1.1//EN" "http://www.w3.org/Graphics/SVG/1.1/DTD/svg11.dtd">
<svg width="154pt" height="149pt" viewBox="0 0 154 149" version="1.1" xmlns="http://www.w3.org/2000/svg">
<path fill="#000000" opacity="1.00" d=" M 74.78 17.45 C 76.29 11.51 78.78 5.88 81.13 0.24 C 82.68 7.67 84.05 15.21 83.44 22.84 C 88.08 19.11 93.11 15.67 99.01 14.31 C 97.13 21.67 90.91 28.05 83.24 29.06 C 83.30 31.38 83.28 33.71 83.74 35.99 C 86.03 37.87 90.93 38.82 89.75 42.79 C 87.80 45.60 85.03 47.71 82.36 49.80 C 84.53 50.97 87.27 51.67 88.56 53.96 C 88.49 55.17 88.38 56.37 88.22 57.58 C 91.95 60.21 97.54 62.06 98.57 67.01 C 98.35 74.77 96.56 82.72 92.60 89.47 C 94.60 90.86 96.47 92.46 97.86 94.48 C 99.67 94.54 101.48 94.48 103.27 94.74 C 104.06 95.75 104.40 97.01 104.93 98.17 C 108.99 100.58 112.65 103.59 116.70 106.02 C 115.45 108.55 112.97 109.95 110.66 111.37 C 110.87 112.03 111.29 113.35 111.50 114.01 C 109.66 119.64 106.94 124.90 104.12 130.09 C 102.83 129.20 101.55 128.32 100.26 127.44 C 100.07 128.16 99.70 129.60 99.51 130.32 C 113.72 132.38 127.87 134.85 141.91 137.83 C 146.07 138.90 150.70 139.32 154.00 142.37 L 154.00 143.25 C 151.77 146.47 147.41 146.23 143.98 146.94 C 112.75 150.75 81.20 148.30 50.00 145.45 C 41.55 143.67 33.10 141.69 25.12 138.31 C 23.91 138.79 21.66 140.97 20.74 139.06 C 20.37 134.60 23.69 131.24 26.22 128.01 C 28.51 125.19 28.12 121.39 28.14 118.00 C 28.01 114.58 28.57 111.05 27.40 107.75 C 26.42 109.07 26.05 110.57 26.29 112.24 C 25.30 112.89 24.32 113.54 23.33 114.18 C 24.18 115.64 26.30 116.95 25.68 118.86 C 24.36 121.50 22.76 124.00 20.98 126.37 C 21.46 123.52 22.09 120.71 22.99 117.97 C 22.02 116.85 21.01 115.76 20.15 114.56 C 20.44 112.72 22.52 112.03 23.74 110.87 C 23.65 110.10 23.48 108.58 23.39 107.81 C 24.97 107.09 26.41 106.12 27.82 105.14 C 27.73 102.80 27.66 100.47 27.63 98.14 C 22.83 102.69 16.71 105.69 10.28 107.14 C 8.22 107.50 6.16 107.78 4.09 108.08 C 4.12 109.69 4.15 111.30 4.16 112.92 C 3.45 113.71 2.73 114.49 1.99 115.25 C 2.53 118.75 2.83 122.38 4.36 125.63 C 6.71 129.77 5.44 134.65 5.90 139.16 C 6.85 135.83 7.58 132.44 8.57 129.12 C 11.37 128.31 12.32 125.86 12.67 123.21 L 13.33 123.00 C 13.66 123.01 14.32 123.04 14.65 123.06 C 13.05 124.53 13.23 126.66 12.79 128.58 C 11.91 129.22 10.99 129.82 10.05 130.39 C 8.33 134.95 7.60 139.86 5.37 144.24 C 4.55 139.26 4.64 134.18 3.87 129.21 C 1.52 124.83 1.01 119.88 0.13 115.07 C 0.66 114.55 1.73 113.52 2.26 113.00 C 2.34 110.75 2.42 108.50 2.50 106.25 C 11.91 105.79 21.83 102.65 27.90 95.04 C 27.56 92.76 29.08 90.94 29.65 88.86 C 30.36 85.38 30.01 81.81 29.62 78.32 C 28.69 77.56 27.77 76.80 26.85 76.04 C 28.12 72.44 29.97 68.92 30.19 65.04 C 29.50 62.37 27.65 60.20 26.33 57.83 C 24.62 55.18 23.29 52.11 20.74 50.15 C 18.04 50.14 15.54 52.51 12.77 51.34 C 8.86 49.39 5.97 45.95 3.05 42.79 C 7.02 42.79 10.99 42.98 14.96 43.16 C 12.81 40.18 10.79 37.10 8.98 33.88 C 17.35 36.57 25.55 39.79 33.57 43.38 C 33.91 43.85 34.58 44.78 34.92 45.25 C 39.20 43.31 43.59 41.58 48.15 40.45 C 46.19 44.24 42.85 46.95 39.88 49.91 C 38.56 51.64 36.21 50.97 34.35 51.15 C 34.28 51.85 34.16 53.24 34.09 53.94 C 36.55 55.03 39.03 56.04 41.55 56.96 C 49.98 50.21 59.74 43.86 70.93 43.78 C 69.24 42.27 67.15 41.40 65.11 40.47 C 65.72 37.71 69.91 37.36 70.51 34.44 C 72.19 28.85 73.35 23.11 74.78 17.45 M 79.21 9.99 L 79.34 10.38 C 75.80 19.18 75.03 28.84 71.31 37.57 C 70.74 38.57 69.67 39.15 68.86 39.93 L 69.62 39.90 C 70.59 41.04 71.59 42.16 72.66 43.21 C 71.48 43.89 70.74 44.81 70.44 46.00 C 63.01 46.33 56.11 49.79 49.99 53.79 C 47.19 55.69 43.94 56.98 41.51 59.39 C 39.83 58.99 38.28 58.22 36.75 57.45 L 36.57 57.77 C 35.18 57.11 33.87 55.57 32.19 55.99 C 32.13 53.01 32.08 50.04 32.21 47.06 C 32.15 45.66 32.18 43.76 30.33 43.65 C 24.07 42.09 18.31 39.19 12.33 36.88 C 16.20 41.58 20.19 46.20 23.91 51.04 C 25.60 53.30 27.38 55.50 28.86 57.91 C 29.79 60.06 31.00 62.08 32.34 64.00 C 32.32 65.46 32.31 66.93 32.30 68.39 C 31.17 71.26 27.98 74.79 30.82 77.65 C 32.68 75.62 34.45 71.66 37.73 72.57 C 37.97 77.99 38.08 83.67 35.16 88.50 L 36.55 88.67 C 36.01 91.35 35.73 94.26 33.73 96.33 L 33.80 97.04 C 33.20 97.29 32.02 97.79 31.42 98.03 C 33.24 95.25 34.85 92.31 35.68 89.07 C 30.65 93.27 29.97 100.49 30.57 106.69 C 30.21 112.48 30.73 118.31 30.01 124.08 C 29.58 127.94 26.59 130.71 24.43 133.70 C 23.72 135.02 23.02 136.35 22.34 137.70 C 24.50 136.74 26.64 135.51 29.07 135.51 C 31.16 135.22 33.57 135.76 35.31 134.25 C 36.76 134.72 38.23 135.11 39.74 135.32 C 47.21 137.16 55.00 136.15 62.62 136.57 C 64.09 136.89 65.59 137.13 67.09 137.30 C 72.78 137.64 77.44 141.41 82.88 142.72 C 85.31 143.67 87.71 144.74 90.20 145.54 C 89.54 139.87 86.21 134.91 84.32 129.58 C 83.27 130.80 82.30 132.12 81.65 133.61 C 78.85 131.39 77.40 128.00 76.76 124.57 C 76.23 122.12 72.98 122.12 72.27 119.67 C 73.64 117.25 73.83 114.39 74.51 111.74 C 73.57 110.19 72.75 108.57 72.18 106.85 C 73.27 106.26 74.37 105.70 75.49 105.16 C 78.49 104.57 81.27 103.30 83.92 101.81 C 81.84 101.20 79.21 100.12 80.15 97.38 C 83.08 100.52 87.59 100.15 91.24 101.90 C 89.29 102.66 87.03 102.85 85.44 104.33 C 82.15 105.43 79.09 107.21 75.70 108.06 C 78.62 111.82 75.36 116.06 74.88 120.07 C 76.02 120.44 77.15 120.81 78.29 121.19 C 78.41 122.53 78.61 123.86 79.06 125.14 C 79.10 127.34 79.28 129.67 81.16 131.14 C 82.20 129.68 83.31 128.26 84.48 126.91 C 87.52 131.98 89.38 137.65 92.35 142.75 C 92.69 142.79 93.37 142.87 93.71 142.91 C 95.49 136.50 97.81 130.27 99.77 123.93 C 101.12 124.65 102.47 125.37 103.81 126.09 C 106.35 122.48 107.21 118.06 108.91 114.05 C 108.27 112.94 106.26 111.73 107.38 110.30 C 108.81 108.96 110.60 108.09 112.23 107.04 C 109.83 105.38 107.98 103.12 105.87 101.14 C 103.56 100.92 101.31 101.88 99.00 101.90 C 96.93 99.16 104.23 99.66 102.10 96.91 C 100.40 96.77 98.68 96.79 96.97 96.78 C 96.10 96.21 95.24 95.64 94.37 95.08 C 91.33 92.65 87.87 89.85 87.06 85.84 C 88.16 86.52 89.55 88.43 90.91 87.11 C 93.60 80.74 95.19 73.83 95.53 66.93 C 92.86 63.27 88.34 61.67 84.97 58.78 C 85.26 57.59 85.54 56.40 85.83 55.22 C 85.47 54.89 84.74 54.23 84.38 53.90 C 81.95 53.83 80.01 52.49 78.29 50.92 C 78.39 50.37 78.60 49.28 78.70 48.73 C 81.46 46.34 84.72 44.37 86.62 41.15 C 84.12 39.95 81.58 38.33 81.47 35.24 C 80.68 26.20 81.69 17.12 80.89 8.08 C 80.47 8.55 79.63 9.51 79.21 9.99 M 92.21 18.23 L 92.28 18.33 C 89.66 19.91 87.08 21.67 85.23 24.15 L 84.86 24.11 C 84.28 24.90 84.03 25.78 84.12 26.75 C 86.06 26.06 87.97 25.28 89.88 24.51 C 91.41 23.52 92.83 22.37 94.27 21.25 C 95.64 19.62 96.81 17.85 97.84 15.99 C 95.92 16.62 94.04 17.38 92.21 18.23 M 6.94 44.07 C 8.43 45.89 10.28 47.33 12.02 48.90 C 13.81 49.48 15.68 49.26 17.50 48.97 C 17.08 48.12 16.69 47.25 16.33 46.37 L 16.24 46.44 C 13.22 45.38 10.15 44.35 6.94 44.07 M 35.91 46.52 C 35.46 46.74 34.56 47.18 34.11 47.40 C 35.77 48.89 38.07 48.68 39.95 47.77 C 41.48 46.25 42.96 44.66 44.28 42.95 C 41.37 43.84 38.58 45.06 35.91 46.52 M 31.54 80.74 C 31.67 84.16 31.57 87.58 31.29 90.99 C 34.19 86.81 35.99 81.67 35.25 76.55 C 33.82 77.63 31.41 78.59 31.54 80.74 Z" />
<path fill="#994848" opacity="1.00" d=" M 79.21 9.99 C 79.63 9.51 80.47 8.55 80.89 8.08 C 81.69 17.12 80.68 26.20 81.47 35.24 C 81.13 36.69 80.30 37.90 78.89 38.50 C 77.78 30.29 77.54 21.68 79.76 13.62 C 79.99 12.51 79.85 11.43 79.34 10.38 L 79.21 9.99 Z" />
<path fill="#c16466" opacity="1.00" d=" M 79.34 10.38 C 79.85 11.43 79.99 12.51 79.76 13.62 C 77.54 21.68 77.78 30.29 78.89 38.50 C 76.00 39.88 72.74 39.75 69.62 39.90 L 68.86 39.93 C 69.67 39.15 70.74 38.57 71.31 37.57 C 75.03 28.84 75.80 19.18 79.34 10.38 Z" />
<path fill="#94c5ac" opacity="1.00" d=" M 92.21 18.23 C 94.04 17.38 95.92 16.62 97.84 15.99 C 96.81 17.85 95.64 19.62 94.27 21.25 C 93.61 20.28 92.94 19.30 92.28 18.33 L 92.21 18.23 Z" />
<path fill="#c6e1a3" opacity="1.00" d=" M 85.23 24.15 C 87.08 21.67 89.66 19.91 92.28 18.33 C 92.94 19.30 93.61 20.28 94.27 21.25 C 92.83 22.37 91.41 23.52 89.88 24.51 C 88.32 24.51 86.77 24.39 85.23 24.15 Z" />
<path fill="#426f83" opacity="1.00" d=" M 84.86 24.11 L 85.23 24.15 C 86.77 24.39 88.32 24.51 89.88 24.51 C 87.97 25.28 86.06 26.06 84.12 26.75 C 84.03 25.78 84.28 24.90 84.86 24.11 Z" />
<path fill="#842c3a" opacity="1.00" d=" M 81.47 35.24 C 81.58 38.33 84.12 39.95 86.62 41.15 C 84.72 44.37 81.46 46.34 78.70 48.73 C 78.60 49.28 78.39 50.37 78.29 50.92 C 77.11 51.83 76.27 53.80 74.53 53.51 C 73.97 51.01 74.83 48.51 74.99 46.01 C 74.55 44.85 73.44 44.13 72.66 43.21 C 71.59 42.16 70.59 41.04 69.62 39.90 C 72.74 39.75 76.00 39.88 78.89 38.50 C 80.30 37.90 81.13 36.69 81.47 35.24 Z" />
<path fill="#d3566e" opacity="1.00" d=" M 12.33 36.88 C 18.31 39.19 24.07 42.09 30.33 43.65 C 32.18 43.76 32.15 45.66 32.21 47.06 C 29.52 48.53 26.75 49.86 23.91 51.04 C 20.19 46.20 16.20 41.58 12.33 36.88 Z" />
<path fill="#c6e1a3" opacity="1.00" d=" M 6.94 44.07 C 10.15 44.35 13.22 45.38 16.24 46.44 C 15.04 47.59 13.51 48.24 12.02 48.90 C 10.28 47.33 8.43 45.89 6.94 44.07 Z" />
<path fill="#9acdb5" opacity="1.00" d=" M 35.91 46.52 C 38.58 45.06 41.37 43.84 44.28 42.95 C 42.96 44.66 41.48 46.25 39.95 47.77 C 38.59 47.39 37.25 46.97 35.91 46.52 Z" />
<path fill="#a35251" opacity="1.00" d=" M 70.44 46.00 C 70.74 44.81 71.48 43.89 72.66 43.21 C 73.44 44.13 74.55 44.85 74.99 46.01 C 74.83 48.51 73.97 51.01 74.53 53.51 C 76.27 53.80 77.11 51.83 78.29 50.92 C 80.01 52.49 81.95 53.83 84.38 53.90 C 83.01 61.20 82.70 68.68 80.75 75.87 C 78.95 83.87 77.15 91.87 75.60 99.92 C 75.22 101.64 75.36 103.42 75.49 105.16 C 74.37 105.70 73.27 106.26 72.18 106.85 C 72.75 108.57 73.57 110.19 74.51 111.74 C 73.83 114.39 73.64 117.25 72.27 119.67 L 71.87 120.39 C 72.02 117.40 73.92 111.76 69.27 111.63 C 70.03 110.98 70.92 110.59 71.95 110.46 C 71.72 105.94 70.27 101.54 67.33 98.06 C 67.96 95.86 68.48 93.63 68.98 91.40 C 71.91 87.73 75.99 83.21 73.40 78.22 C 73.92 77.01 74.44 75.81 74.97 74.60 C 73.98 74.70 72.99 74.81 72.00 74.91 C 70.14 70.84 70.81 66.30 70.52 61.98 C 70.28 57.85 69.77 53.71 68.66 49.71 C 69.21 49.06 69.79 48.42 70.35 47.77 C 70.37 47.33 70.42 46.44 70.44 46.00 Z" />
<path fill="#4a7686" opacity="1.00" d=" M 16.24 46.44 L 16.33 46.37 C 16.69 47.25 17.08 48.12 17.50 48.97 C 15.68 49.26 13.81 49.48 12.02 48.90 C 13.51 48.24 15.04 47.59 16.24 46.44 Z" />
<path fill="#2f5e7c" opacity="1.00" d=" M 34.11 47.40 C 34.56 47.18 35.46 46.74 35.91 46.52 C 37.25 46.97 38.59 47.39 39.95 47.77 C 38.07 48.68 35.77 48.89 34.11 47.40 Z" />
<path fill="#ce7671" opacity="1.00" d=" M 49.99 53.79 C 56.11 49.79 63.01 46.33 70.44 46.00 C 70.42 46.44 70.37 47.33 70.35 47.77 C 69.79 48.42 69.21 49.06 68.66 49.71 C 69.77 53.71 70.28 57.85 70.52 61.98 C 70.81 66.30 70.14 70.84 72.00 74.91 C 72.99 74.81 73.98 74.70 74.97 74.60 C 74.44 75.81 73.92 77.01 73.40 78.22 C 69.55 73.62 63.65 71.61 58.10 69.93 C 54.79 68.86 51.29 68.97 47.86 69.13 C 46.81 73.32 46.48 77.64 46.11 81.93 C 45.68 85.04 47.55 87.75 48.73 90.47 C 50.28 90.78 51.84 91.14 53.27 91.86 C 52.88 92.01 52.09 92.33 51.70 92.49 L 51.07 92.74 C 51.26 93.42 51.63 94.76 51.82 95.44 C 51.82 96.47 51.83 97.50 51.84 98.53 C 54.92 98.80 57.87 99.70 60.86 100.43 C 61.86 100.08 62.05 99.45 61.44 98.54 C 59.07 97.03 56.47 95.86 54.37 93.95 L 56.07 93.58 C 60.11 97.35 65.70 94.88 68.98 91.40 C 68.48 93.63 67.96 95.86 67.33 98.06 C 70.27 101.54 71.72 105.94 71.95 110.46 C 70.92 110.59 70.03 110.98 69.27 111.63 C 68.93 111.61 68.24 111.56 67.90 111.54 C 67.53 111.06 66.78 110.08 66.41 109.59 C 65.15 109.24 63.89 108.89 62.63 108.55 C 61.89 106.92 61.13 105.30 60.37 103.68 C 58.86 103.61 57.04 102.55 55.75 103.77 C 51.63 107.31 46.77 109.81 42.38 112.97 C 39.95 109.82 38.30 106.19 36.39 102.73 C 34.35 106.52 35.42 110.93 35.38 115.02 C 35.77 120.55 35.04 126.21 36.49 131.62 C 40.85 135.31 47.20 133.33 52.42 134.21 C 48.20 134.65 43.96 134.92 39.74 135.32 C 38.23 135.11 36.76 134.72 35.31 134.25 C 33.63 133.65 31.97 133.02 30.31 132.41 C 28.44 133.20 26.50 133.91 24.43 133.70 C 26.59 130.71 29.58 127.94 30.01 124.08 C 30.73 118.31 30.21 112.48 30.57 106.69 C 34.52 105.16 34.26 100.49 33.80 97.04 L 33.73 96.33 C 35.73 94.26 36.01 91.35 36.55 88.67 L 35.16 88.50 C 38.08 83.67 37.97 77.99 37.73 72.57 C 38.53 69.78 39.41 67.01 39.94 64.15 C 40.26 62.50 40.67 60.86 41.51 59.39 C 43.94 56.98 47.19 55.69 49.99 53.79 Z" />
<path fill="#ae4a56" opacity="1.00" d=" M 23.91 51.04 C 26.75 49.86 29.52 48.53 32.21 47.06 C 32.08 50.04 32.13 53.01 32.19 55.99 C 31.06 56.60 29.96 57.26 28.86 57.91 C 27.38 55.50 25.60 53.30 23.91 51.04 Z" />
<path fill="#7d2435" opacity="1.00" d=" M 84.38 53.90 C 84.74 54.23 85.47 54.89 85.83 55.22 C 85.54 56.40 85.26 57.59 84.97 58.78 C 88.34 61.67 92.86 63.27 95.53 66.93 C 95.19 73.83 93.60 80.74 90.91 87.11 C 89.55 88.43 88.16 86.52 87.06 85.84 C 86.66 83.62 86.04 81.46 85.07 79.42 C 84.23 80.72 83.41 82.02 82.58 83.33 C 81.77 80.89 81.01 78.43 80.75 75.87 C 82.70 68.68 83.01 61.20 84.38 53.90 Z" />
<path fill="#872d3b" opacity="1.00" d=" M 32.19 55.99 C 33.87 55.57 35.18 57.11 36.57 57.77 C 34.77 60.62 33.88 63.87 32.98 67.08 C 32.81 67.41 32.47 68.06 32.30 68.39 C 32.31 66.93 32.32 65.46 32.34 64.00 C 31.00 62.08 29.79 60.06 28.86 57.91 C 29.96 57.26 31.06 56.60 32.19 55.99 Z" />
<path fill="#9a454a" opacity="1.00" d=" M 36.57 57.77 L 36.75 57.45 C 38.28 58.22 39.83 58.99 41.51 59.39 C 40.67 60.86 40.26 62.50 39.94 64.15 C 39.58 63.70 38.86 62.81 38.50 62.37 C 36.71 63.99 34.84 65.53 32.98 67.08 C 33.88 63.87 34.77 60.62 36.57 57.77 Z" />
<path fill="#bc6764" opacity="1.00" d=" M 32.98 67.08 C 34.84 65.53 36.71 63.99 38.50 62.37 C 38.86 62.81 39.58 63.70 39.94 64.15 C 39.41 67.01 38.53 69.78 37.73 72.57 C 34.45 71.66 32.68 75.62 30.82 77.65 C 27.98 74.79 31.17 71.26 32.30 68.39 C 32.47 68.06 32.81 67.41 32.98 67.08 Z" />
<path fill="#0d0d17" opacity="1.00" d=" M 47.86 69.13 C 51.29 68.97 54.79 68.86 58.10 69.93 C 63.65 71.61 69.55 73.62 73.40 78.22 C 75.99 83.21 71.91 87.73 68.98 91.40 C 65.70 94.88 60.11 97.35 56.07 93.58 C 55.14 93.00 54.24 92.37 53.27 91.86 C 51.84 91.14 50.28 90.78 48.73 90.47 C 47.55 87.75 45.68 85.04 46.11 81.93 C 46.48 77.64 46.81 73.32 47.86 69.13 M 48.57 78.50 C 48.43 79.77 48.29 81.03 48.17 82.31 L 48.57 82.41 C 49.02 85.43 50.10 88.71 53.01 90.22 C 56.22 91.84 59.51 95.06 63.29 93.09 C 64.60 92.14 65.88 91.16 67.12 90.13 C 69.77 88.27 71.02 84.62 69.34 81.69 C 67.50 77.45 62.41 77.06 58.68 75.35 C 55.08 73.55 50.68 75.26 48.57 78.50 Z" />
<path fill="#2e2432" opacity="1.00" d=" M 48.57 78.50 C 50.68 75.26 55.08 73.55 58.68 75.35 C 62.41 77.06 67.50 77.45 69.34 81.69 C 71.02 84.62 69.77 88.27 67.12 90.13 C 64.99 86.69 63.09 82.59 59.14 80.92 C 55.75 79.61 52.09 79.30 48.57 78.50 Z" />
<path fill="#8a373e" opacity="1.00" d=" M 75.60 99.92 C 77.15 91.87 78.95 83.87 80.75 75.87 C 81.01 78.43 81.77 80.89 82.58 83.33 C 83.95 87.40 84.97 91.62 85.11 95.93 C 83.70 95.43 82.29 94.93 80.88 94.42 C 80.62 95.40 80.35 96.38 80.15 97.38 C 79.21 100.12 81.84 101.20 83.92 101.81 C 81.27 103.30 78.49 104.57 75.49 105.16 C 75.36 103.42 75.22 101.64 75.60 99.92 Z" />
<path fill="#1e1221" opacity="1.00" d=" M 31.54 80.74 C 31.41 78.59 33.82 77.63 35.25 76.55 C 35.99 81.67 34.19 86.81 31.29 90.99 C 31.57 87.58 31.67 84.16 31.54 80.74 Z" />
<path fill="#5f243c" opacity="1.00" d=" M 48.17 82.31 C 48.29 81.03 48.43 79.77 48.57 78.50 C 52.09 79.30 55.75 79.61 59.14 80.92 C 63.09 82.59 64.99 86.69 67.12 90.13 C 65.88 91.16 64.60 92.14 63.29 93.09 C 61.58 90.72 60.11 88.08 57.80 86.24 C 55.04 84.32 51.81 83.22 48.57 82.41 L 48.17 82.31 Z" />
<path fill="#9e484d" opacity="1.00" d=" M 82.58 83.33 C 83.41 82.02 84.23 80.72 85.07 79.42 C 86.04 81.46 86.66 83.62 87.06 85.84 C 87.87 89.85 91.33 92.65 94.37 95.08 C 94.24 96.49 94.12 97.90 93.99 99.30 C 91.05 98.14 88.10 96.98 85.11 95.93 C 84.97 91.62 83.95 87.40 82.58 83.33 Z" />
<path fill="#951e42" opacity="1.00" d=" M 48.57 82.41 C 51.81 83.22 55.04 84.32 57.80 86.24 C 60.11 88.08 61.58 90.72 63.29 93.09 C 59.51 95.06 56.22 91.84 53.01 90.22 C 50.10 88.71 49.02 85.43 48.57 82.41 Z" />
<path fill="#b96360" opacity="1.00" d=" M 30.57 106.69 C 29.97 100.49 30.65 93.27 35.68 89.07 C 34.85 92.31 33.24 95.25 31.42 98.03 C 32.02 97.79 33.20 97.29 33.80 97.04 C 34.26 100.49 34.52 105.16 30.57 106.69 Z" />
<path fill="#b65b5f" opacity="1.00" d=" M 51.70 92.49 C 52.09 92.33 52.88 92.01 53.27 91.86 C 54.24 92.37 55.14 93.00 56.07 93.58 L 54.37 93.95 C 56.47 95.86 59.07 97.03 61.44 98.54 C 62.05 99.45 61.86 100.08 60.86 100.43 C 57.87 99.70 54.92 98.80 51.84 98.53 C 51.83 97.50 51.82 96.47 51.82 95.44 C 52.89 94.42 52.85 93.44 51.70 92.49 Z" />
<path fill="#4b2126" opacity="1.00" d=" M 51.07 92.74 L 51.70 92.49 C 52.85 93.44 52.89 94.42 51.82 95.44 C 51.63 94.76 51.26 93.42 51.07 92.74 Z" />
<path fill="#812a38" opacity="1.00" d=" M 80.88 94.42 C 82.29 94.93 83.70 95.43 85.11 95.93 C 88.10 96.98 91.05 98.14 93.99 99.30 C 94.12 97.90 94.24 96.49 94.37 95.08 C 95.24 95.64 96.10 96.21 96.97 96.78 C 98.68 96.79 100.40 96.77 102.10 96.91 C 104.23 99.66 96.93 99.16 99.00 101.90 C 101.31 101.88 103.56 100.92 105.87 101.14 C 107.98 103.12 109.83 105.38 112.23 107.04 C 110.60 108.09 108.81 108.96 107.38 110.30 C 106.26 111.73 108.27 112.94 108.91 114.05 C 107.21 118.06 106.35 122.48 103.81 126.09 C 102.47 125.37 101.12 124.65 99.77 123.93 C 97.81 130.27 95.49 136.50 93.71 142.91 C 93.37 142.87 92.69 142.79 92.35 142.75 C 89.38 137.65 87.52 131.98 84.48 126.91 C 83.31 128.26 82.20 129.68 81.16 131.14 C 79.28 129.67 79.10 127.34 79.06 125.14 C 80.09 124.81 81.12 124.48 82.16 124.15 C 83.21 121.48 84.28 118.81 85.36 116.15 C 85.68 117.33 86.00 118.51 86.32 119.70 C 87.45 120.04 88.58 120.38 89.71 120.72 C 89.90 124.22 88.97 128.21 91.33 131.17 C 93.03 127.35 94.34 123.33 94.56 119.13 C 94.38 115.24 100.33 115.38 100.79 111.96 C 99.39 108.68 98.64 104.85 95.87 102.38 C 95.74 101.63 95.61 100.88 95.48 100.13 C 94.94 100.16 93.87 100.22 93.33 100.25 C 91.66 103.04 88.83 105.10 85.44 104.33 C 87.03 102.85 89.29 102.66 91.24 101.90 C 87.59 100.15 83.08 100.52 80.15 97.38 C 80.35 96.38 80.62 95.40 80.88 94.42 Z" />
<path fill="#c16967" opacity="1.00" d=" M 10.28 107.14 C 16.71 105.69 22.83 102.69 27.63 98.14 C 27.66 100.47 27.73 102.80 27.82 105.14 C 26.41 106.12 24.97 107.09 23.39 107.81 C 19.05 109.21 14.15 110.34 10.28 107.14 Z" />
<path fill="#a34e51" opacity="1.00" d=" M 93.33 100.25 C 93.87 100.22 94.94 100.16 95.48 100.13 C 95.61 100.88 95.74 101.63 95.87 102.38 C 98.64 104.85 99.39 108.68 100.79 111.96 C 100.33 115.38 94.38 115.24 94.56 119.13 C 94.34 123.33 93.03 127.35 91.33 131.17 C 88.97 128.21 89.90 124.22 89.71 120.72 C 88.58 120.38 87.45 120.04 86.32 119.70 C 86.00 118.51 85.68 117.33 85.36 116.15 C 84.28 118.81 83.21 121.48 82.16 124.15 C 81.12 124.48 80.09 124.81 79.06 125.14 C 78.61 123.86 78.41 122.53 78.29 121.19 C 77.15 120.81 76.02 120.44 74.88 120.07 C 75.36 116.06 78.62 111.82 75.70 108.06 C 79.09 107.21 82.15 105.43 85.44 104.33 C 88.83 105.10 91.66 103.04 93.33 100.25 Z" />
<path fill="#000000" opacity="1.00" d=" M 35.38 115.02 C 35.42 110.93 34.35 106.52 36.39 102.73 C 38.30 106.19 39.95 109.82 42.38 112.97 C 46.77 109.81 51.63 107.31 55.75 103.77 C 57.04 102.55 58.86 103.61 60.37 103.68 C 61.13 105.30 61.89 106.92 62.63 108.55 C 63.89 108.89 65.15 109.24 66.41 109.59 C 66.78 110.08 67.53 111.06 67.90 111.54 C 68.24 111.56 68.93 111.61 69.27 111.63 C 73.92 111.76 72.02 117.40 71.87 120.39 C 70.39 123.01 69.23 125.79 67.54 128.29 C 67.53 128.95 67.51 130.26 67.51 130.92 C 62.68 132.77 57.64 134.27 52.42 134.21 C 47.20 133.33 40.85 135.31 36.49 131.62 C 35.04 126.21 35.77 120.55 35.38 115.02 Z" />
<path fill="#88333d" opacity="1.00" d=" M 4.09 108.08 C 6.16 107.78 8.22 107.50 10.28 107.14 C 14.15 110.34 19.05 109.21 23.39 107.81 C 23.48 108.58 23.65 110.10 23.74 110.87 C 22.52 112.03 20.44 112.72 20.15 114.56 C 21.01 115.76 22.02 116.85 22.99 117.97 C 22.09 120.71 21.46 123.52 20.98 126.37 C 20.92 126.45 20.80 126.61 20.74 126.69 C 20.09 126.97 18.78 127.52 18.12 127.80 C 18.15 125.89 18.14 123.99 17.96 122.09 C 17.32 122.19 16.04 122.39 15.40 122.50 C 14.71 122.63 14.02 122.80 13.33 123.00 L 12.67 123.21 C 12.32 125.86 11.37 128.31 8.57 129.12 C 8.13 127.52 7.69 125.92 7.24 124.32 C 9.27 122.76 12.17 121.64 12.71 118.85 C 13.28 116.94 13.64 114.97 14.05 113.02 C 11.66 110.82 8.61 109.31 5.27 109.70 C 4.92 110.78 4.55 111.85 4.16 112.92 C 4.15 111.30 4.12 109.69 4.09 108.08 Z" />
<path fill="#a84d53" opacity="1.00" d=" M 5.27 109.70 C 8.61 109.31 11.66 110.82 14.05 113.02 C 13.64 114.97 13.28 116.94 12.71 118.85 C 12.17 121.64 9.27 122.76 7.24 124.32 C 7.69 125.92 8.13 127.52 8.57 129.12 C 7.58 132.44 6.85 135.83 5.90 139.16 C 5.44 134.65 6.71 129.77 4.36 125.63 C 2.83 122.38 2.53 118.75 1.99 115.25 C 2.73 114.49 3.45 113.71 4.16 112.92 C 4.55 111.85 4.92 110.78 5.27 109.70 Z" />
<path fill="#ab5057" opacity="1.00" d=" M 71.87 120.39 L 72.27 119.67 C 72.98 122.12 76.23 122.12 76.76 124.57 C 76.20 124.63 75.09 124.74 74.53 124.79 C 72.43 128.22 70.05 131.48 67.32 134.43 C 66.27 134.51 65.22 134.60 64.17 134.69 C 63.79 135.16 63.01 136.10 62.62 136.57 C 55.00 136.15 47.21 137.16 39.74 135.32 C 43.96 134.92 48.20 134.65 52.42 134.21 C 57.64 134.27 62.68 132.77 67.51 130.92 C 67.51 130.26 67.53 128.95 67.54 128.29 C 69.23 125.79 70.39 123.01 71.87 120.39 Z" />
<path fill="#060203" opacity="0.95" d=" M 15.40 122.50 C 16.04 122.39 17.32 122.19 17.96 122.09 C 18.14 123.99 18.15 125.89 18.12 127.80 C 18.78 127.52 20.09 126.97 20.74 126.69 C 19.40 128.51 18.06 130.33 16.67 132.12 C 14.94 129.27 15.93 125.66 15.40 122.50 Z" />
<path fill="#822939" opacity="1.00" d=" M 74.53 124.79 C 75.09 124.74 76.20 124.63 76.76 124.57 C 77.40 128.00 78.85 131.39 81.65 133.61 C 80.54 136.70 81.94 139.79 82.88 142.72 C 77.44 141.41 72.78 137.64 67.09 137.30 C 65.59 137.13 64.09 136.89 62.62 136.57 C 63.01 136.10 63.79 135.16 64.17 134.69 C 65.22 134.60 66.27 134.51 67.32 134.43 C 70.05 131.48 72.43 128.22 74.53 124.79 Z" />
<path fill="#8f3841" opacity="1.00" d=" M 81.65 133.61 C 82.30 132.12 83.27 130.80 84.32 129.58 C 86.21 134.91 89.54 139.87 90.20 145.54 C 87.71 144.74 85.31 143.67 82.88 142.72 C 81.94 139.79 80.54 136.70 81.65 133.61 Z" />
<path fill="#a35251" opacity="1.00" d=" M 30.31 132.41 C 31.97 133.02 33.63 133.65 35.31 134.25 C 33.57 135.76 31.16 135.22 29.07 135.51 C 26.64 135.51 24.50 136.74 22.34 137.70 C 23.02 136.35 23.72 135.02 24.43 133.70 C 26.50 133.91 28.44 133.20 30.31 132.41 Z" />
</svg>
