<?xml version="1.0" encoding="UTF-8" ?>
<!DOCTYPE svg PUBLIC "-//W3C//DTD SVG 1.1//EN" "http://www.w3.org/Graphics/SVG/1.1/DTD/svg11.dtd">
<svg width="72pt" height="84pt" viewBox="0 0 72 84" version="1.1" xmlns="http://www.w3.org/2000/svg">
<path fill="#000000" opacity="1.00" d=" M 37.42 0.00 L 37.90 0.00 C 35.53 5.34 32.24 10.31 31.11 16.14 C 34.70 15.29 38.31 14.50 41.99 14.19 C 41.62 16.78 40.76 19.26 39.57 21.58 C 47.04 23.69 54.39 28.08 57.60 35.48 C 62.54 36.07 68.40 37.40 70.72 42.36 C 72.33 45.72 70.31 49.17 68.86 52.16 C 71.13 55.81 73.06 60.53 70.56 64.58 C 68.60 68.44 64.06 69.21 60.24 70.00 C 59.43 72.61 58.82 75.61 56.47 77.32 C 54.05 79.40 50.71 79.38 47.71 79.55 C 41.31 83.71 31.77 86.05 25.97 79.64 C 22.15 79.98 17.76 81.20 14.39 78.73 C 11.03 76.45 10.43 72.18 9.83 68.49 C 6.40 67.53 1.97 66.83 0.59 62.99 C -0.87 58.45 1.35 53.81 4.60 50.68 C 4.37 47.97 3.89 44.94 5.76 42.66 C 7.17 40.14 10.03 39.21 12.51 38.15 C 16.06 29.01 24.59 21.96 34.38 20.70 C 30.55 20.13 26.76 18.94 23.85 16.27 C 27.17 9.90 32.53 5.11 37.42 0.00 M 31.59 8.00 C 28.92 10.05 27.19 12.95 25.86 15.98 C 27.08 16.56 28.32 17.13 29.55 17.70 C 29.98 14.42 30.71 11.19 31.59 8.00 M 32.76 17.66 C 34.76 18.45 36.78 19.21 38.78 20.01 C 38.68 18.68 38.83 17.38 39.23 16.12 C 37.08 16.65 34.91 17.13 32.76 17.66 M 28.80 24.39 C 23.86 27.11 19.47 30.77 16.54 35.65 C 15.69 37.17 14.82 38.67 14.09 40.25 C 13.00 40.32 11.90 40.43 10.81 40.57 C 7.39 42.82 4.70 46.99 7.10 50.99 C 3.77 53.81 0.97 58.45 3.21 62.81 C 5.09 65.83 9.11 65.04 12.08 64.70 C 12.10 68.79 12.04 73.67 15.49 76.53 C 18.75 78.82 23.00 77.25 26.51 76.49 C 26.73 76.80 27.18 77.43 27.40 77.75 C 28.72 79.12 30.13 80.61 32.11 80.89 C 37.79 82.40 43.04 79.11 48.36 77.71 C 53.13 78.13 58.47 74.38 57.27 69.12 L 57.24 69.24 C 57.28 68.82 57.36 67.98 57.39 67.56 C 58.83 67.46 60.26 67.37 61.68 67.13 C 64.70 66.58 68.02 65.25 69.22 62.18 C 70.39 58.85 69.09 55.02 66.54 52.68 C 67.55 49.62 70.21 46.60 68.87 43.20 C 67.57 40.58 64.66 39.58 62.15 38.52 C 60.27 38.27 58.39 38.01 56.50 37.81 C 54.44 35.38 53.28 32.26 50.85 30.12 C 46.88 26.20 41.44 24.31 36.09 23.19 C 33.59 22.49 31.13 23.61 28.80 24.39 Z" />
<path fill="#9760b0" opacity="1.00" d=" M 31.59 8.00 C 30.71 11.19 29.98 14.42 29.55 17.70 C 28.32 17.13 27.08 16.56 25.86 15.98 C 27.19 12.95 28.92 10.05 31.59 8.00 Z" />
<path fill="#3a2246" opacity="1.00" d=" M 32.76 17.66 C 34.91 17.13 37.08 16.65 39.23 16.12 C 38.83 17.38 38.68 18.68 38.78 20.01 C 36.78 19.21 34.76 18.45 32.76 17.66 Z" />
<path fill="#a5df81" opacity="1.00" d=" M 28.80 24.39 C 31.13 23.61 33.59 22.49 36.09 23.19 C 41.44 24.31 46.88 26.20 50.85 30.12 C 53.28 32.26 54.44 35.38 56.50 37.81 C 56.65 41.37 56.88 44.97 56.24 48.49 C 55.63 50.66 53.95 52.31 52.68 54.11 C 51.29 52.57 50.11 50.75 48.31 49.64 C 45.79 48.57 42.86 50.44 41.90 52.81 C 41.21 54.70 42.45 56.53 43.19 58.18 C 41.90 58.57 40.60 58.96 39.30 59.34 C 36.68 59.06 34.09 58.66 31.48 58.27 C 31.89 55.42 32.07 51.54 28.94 50.12 C 26.24 48.50 23.43 50.52 21.34 52.18 C 18.70 48.64 16.10 45.07 13.62 41.42 C 13.74 41.13 13.98 40.55 14.09 40.25 C 14.82 38.67 15.69 37.17 16.54 35.65 C 18.67 38.61 20.60 41.71 22.41 44.88 C 25.17 43.33 27.21 40.91 28.95 38.32 C 29.82 37.18 30.73 36.08 31.68 35.00 C 33.72 32.81 35.93 30.80 38.07 28.71 C 35.20 26.84 32.09 25.37 28.80 24.39 Z" />
<path fill="#ccf492" opacity="1.00" d=" M 16.54 35.65 C 19.47 30.77 23.86 27.11 28.80 24.39 C 32.09 25.37 35.20 26.84 38.07 28.71 C 35.93 30.80 33.72 32.81 31.68 35.00 C 30.86 33.19 30.54 29.66 27.71 30.63 C 24.45 31.30 24.16 34.68 24.20 37.40 C 25.78 37.70 27.37 38.01 28.95 38.32 C 27.21 40.91 25.17 43.33 22.41 44.88 C 20.60 41.71 18.67 38.61 16.54 35.65 Z" />
<path fill="#fffff2" opacity="1.00" d=" M 27.71 30.63 C 30.54 29.66 30.86 33.19 31.68 35.00 C 30.73 36.08 29.82 37.18 28.95 38.32 C 27.37 38.01 25.78 37.70 24.20 37.40 C 24.16 34.68 24.45 31.30 27.71 30.63 Z" />
<path fill="#7ac779" opacity="1.00" d=" M 56.50 37.81 C 58.39 38.01 60.27 38.27 62.15 38.52 C 63.29 40.87 65.04 43.21 64.79 45.97 C 64.68 48.11 63.13 49.76 62.02 51.46 C 60.49 53.45 58.98 55.46 57.25 57.28 C 55.30 59.36 52.39 59.97 49.85 61.02 C 48.30 63.36 47.00 66.00 44.75 67.77 C 42.57 69.24 40.02 70.05 37.48 70.64 C 33.40 71.54 28.96 70.12 25.12 72.21 C 22.38 71.72 20.22 70.04 18.65 67.79 C 17.26 67.31 15.84 66.95 14.43 66.54 C 14.72 61.91 12.09 58.02 10.41 53.92 C 10.75 50.19 11.49 46.52 12.15 42.84 C 11.82 42.27 11.15 41.14 10.81 40.57 C 11.90 40.43 13.00 40.32 14.09 40.25 C 13.98 40.55 13.74 41.13 13.62 41.42 C 12.75 46.60 16.29 51.01 16.98 55.99 C 17.63 60.11 19.67 64.40 23.58 66.32 C 27.23 67.89 31.73 68.40 35.28 66.28 C 37.43 65.06 36.54 62.16 36.90 60.10 C 37.70 59.84 38.50 59.59 39.30 59.34 C 40.60 58.96 41.90 58.57 43.19 58.18 C 45.05 58.74 47.06 59.82 49.01 59.07 C 51.15 58.34 51.64 55.85 52.68 54.11 C 53.95 52.31 55.63 50.66 56.24 48.49 C 56.88 44.97 56.65 41.37 56.50 37.81 Z" />
<path fill="#246f66" opacity="1.00" d=" M 62.15 38.52 C 64.66 39.58 67.57 40.58 68.87 43.20 C 70.21 46.60 67.55 49.62 66.54 52.68 C 66.83 55.45 67.56 58.17 67.67 60.96 C 66.38 63.58 63.89 65.33 61.68 67.13 C 60.26 67.37 58.83 67.46 57.39 67.56 C 57.36 67.98 57.28 68.82 57.24 69.24 C 57.07 69.98 56.89 70.72 56.70 71.45 C 52.70 73.56 48.49 75.23 44.10 76.32 C 44.73 75.12 45.36 73.92 46.00 72.72 C 49.81 71.42 52.15 68.06 53.45 64.41 C 56.04 63.59 59.21 63.37 60.95 60.99 C 63.32 58.34 62.23 54.62 62.02 51.46 C 63.13 49.76 64.68 48.11 64.79 45.97 C 65.04 43.21 63.29 40.87 62.15 38.52 Z" />
<path fill="#267066" opacity="1.00" d=" M 7.10 50.99 C 4.70 46.99 7.39 42.82 10.81 40.57 C 11.15 41.14 11.82 42.27 12.15 42.84 C 11.49 46.52 10.75 50.19 10.41 53.92 C 10.34 57.33 9.04 61.52 11.83 64.21 C 12.61 65.08 13.48 65.85 14.43 66.54 C 15.84 66.95 17.26 67.31 18.65 67.79 C 20.22 70.04 22.38 71.72 25.12 72.21 C 26.65 72.86 28.14 73.61 29.62 74.37 C 28.88 75.49 28.14 76.62 27.40 77.75 C 27.18 77.43 26.73 76.80 26.51 76.49 C 23.00 77.25 18.75 78.82 15.49 76.53 C 12.04 73.67 12.10 68.79 12.08 64.70 C 9.11 65.04 5.09 65.83 3.21 62.81 C 0.97 58.45 3.77 53.81 7.10 50.99 Z" />
<path fill="#9ad67f" opacity="1.00" d=" M 13.62 41.42 C 16.10 45.07 18.70 48.64 21.34 52.18 C 20.59 54.82 20.52 58.15 23.08 59.86 C 25.81 61.93 29.29 60.35 31.48 58.27 C 34.09 58.66 36.68 59.06 39.30 59.34 C 38.50 59.59 37.70 59.84 36.90 60.10 C 36.54 62.16 37.43 65.06 35.28 66.28 C 31.73 68.40 27.23 67.89 23.58 66.32 C 19.67 64.40 17.63 60.11 16.98 55.99 C 16.29 51.01 12.75 46.60 13.62 41.42 Z" />
<path fill="#000000" opacity="1.00" d=" M 21.34 52.18 C 23.43 50.52 26.24 48.50 28.94 50.12 C 32.07 51.54 31.89 55.42 31.48 58.27 C 29.29 60.35 25.81 61.93 23.08 59.86 C 20.52 58.15 20.59 54.82 21.34 52.18 M 21.77 53.52 L 21.57 53.42 C 21.81 55.23 21.72 57.40 23.39 58.58 C 25.66 60.54 29.15 59.31 30.73 57.05 C 30.48 54.73 30.05 52.13 27.98 50.69 C 25.41 49.56 23.20 51.63 21.77 53.52 Z" />
<path fill="#000000" opacity="1.00" d=" M 41.90 52.81 C 42.86 50.44 45.79 48.57 48.31 49.64 C 50.11 50.75 51.29 52.57 52.68 54.11 C 51.64 55.85 51.15 58.34 49.01 59.07 C 47.06 59.82 45.05 58.74 43.19 58.18 C 42.45 56.53 41.21 54.70 41.90 52.81 M 42.18 54.59 C 44.02 59.17 51.77 58.98 51.67 53.32 L 50.84 53.38 C 49.39 52.08 48.19 49.94 45.93 50.30 C 44.01 51.04 43.03 52.85 42.18 54.59 Z" />
<path fill="#faf2c9" opacity="1.00" d=" M 21.77 53.52 C 23.20 51.63 25.41 49.56 27.98 50.69 C 30.05 52.13 30.48 54.73 30.73 57.05 C 27.60 56.26 24.61 55.05 21.77 53.52 Z" />
<path fill="#faf2c9" opacity="1.00" d=" M 42.18 54.59 C 43.03 52.85 44.01 51.04 45.93 50.30 C 48.19 49.94 49.39 52.08 50.84 53.38 C 47.92 53.58 45.04 54.01 42.18 54.59 Z" />
<path fill="#52a976" opacity="1.00" d=" M 57.25 57.28 C 58.98 55.46 60.49 53.45 62.02 51.46 C 62.23 54.62 63.32 58.34 60.95 60.99 C 59.21 63.37 56.04 63.59 53.45 64.41 C 52.15 68.06 49.81 71.42 46.00 72.72 C 41.87 73.70 37.73 74.64 33.53 75.23 C 32.14 75.56 30.83 74.97 29.62 74.37 C 28.14 73.61 26.65 72.86 25.12 72.21 C 28.96 70.12 33.40 71.54 37.48 70.64 C 40.02 70.05 42.57 69.24 44.75 67.77 C 47.00 66.00 48.30 63.36 49.85 61.02 C 52.39 59.97 55.30 59.36 57.25 57.28 Z" />
<path fill="#f2dd77" opacity="1.00" d=" M 21.57 53.42 L 21.77 53.52 C 24.61 55.05 27.60 56.26 30.73 57.05 C 29.15 59.31 25.66 60.54 23.39 58.58 C 21.72 57.40 21.81 55.23 21.57 53.42 Z" />
<path fill="#409874" opacity="1.00" d=" M 11.83 64.21 C 9.04 61.52 10.34 57.33 10.41 53.92 C 12.09 58.02 14.72 61.91 14.43 66.54 C 13.48 65.85 12.61 65.08 11.83 64.21 Z" />
<path fill="#f3e077" opacity="1.00" d=" M 42.18 54.59 C 45.04 54.01 47.92 53.58 50.84 53.38 L 51.67 53.32 C 51.77 58.98 44.02 59.17 42.18 54.59 Z" />
<path fill="#b06ec9" opacity="1.00" d=" M 66.54 52.68 C 69.09 55.02 70.39 58.85 69.22 62.18 C 68.02 65.25 64.70 66.58 61.68 67.13 C 63.89 65.33 66.38 63.58 67.67 60.96 C 67.56 58.17 66.83 55.45 66.54 52.68 Z" />
<path fill="#fffff2" opacity="1.00" d=" M 57.24 69.24 L 57.27 69.12 C 58.47 74.38 53.13 78.13 48.36 77.71 C 51.41 76.75 54.36 75.29 56.39 72.74 L 56.70 71.45 C 56.89 70.72 57.07 69.98 57.24 69.24 Z" />
<path fill="#2c7a8d" opacity="1.00" d=" M 44.10 76.32 C 48.49 75.23 52.70 73.56 56.70 71.45 L 56.39 72.74 C 54.36 75.29 51.41 76.75 48.36 77.71 C 43.04 79.11 37.79 82.40 32.11 80.89 C 30.13 80.61 28.72 79.12 27.40 77.75 C 28.14 76.62 28.88 75.49 29.62 74.37 C 30.83 74.97 32.14 75.56 33.53 75.23 C 37.73 74.64 41.87 73.70 46.00 72.72 C 45.36 73.92 44.73 75.12 44.10 76.32 Z" />
</svg>
