<?xml version="1.0" encoding="UTF-8" ?>
<!DOCTYPE svg PUBLIC "-//W3C//DTD SVG 1.1//EN" "http://www.w3.org/Graphics/SVG/1.1/DTD/svg11.dtd">
<svg width="269pt" height="258pt" viewBox="0 0 269 258" version="1.1" xmlns="http://www.w3.org/2000/svg">
<path fill="#000000" opacity="1.00" d=" M 212.08 0.90 C 214.51 3.55 216.56 6.51 218.74 9.36 C 230.40 25.65 241.23 42.56 250.84 60.15 C 256.82 70.63 263.12 80.98 267.80 92.13 C 268.19 93.58 269.64 95.61 268.03 96.83 C 263.39 101.39 261.17 107.63 258.32 113.33 C 252.02 125.93 244.05 137.65 238.31 150.54 C 236.86 153.07 238.54 156.09 237.59 158.70 C 236.61 160.40 234.37 158.90 232.91 158.90 C 231.38 161.36 229.12 163.74 226.05 161.90 C 224.52 162.68 223.02 163.52 221.54 164.39 C 219.47 183.13 214.65 201.62 206.65 218.72 C 206.01 220.12 205.03 221.32 204.07 222.52 C 201.08 221.60 198.19 219.84 194.95 220.26 C 191.53 220.46 188.13 220.07 184.75 219.59 C 179.08 227.69 173.85 236.12 167.62 243.82 C 155.60 238.94 143.95 233.19 132.53 227.06 C 132.16 234.36 131.82 241.67 131.66 248.98 C 129.40 252.48 125.68 254.72 123.21 258.00 L 123.22 258.00 C 120.33 254.76 116.71 252.36 113.38 249.64 C 104.58 241.39 97.35 231.60 91.03 221.37 C 89.85 225.13 86.68 227.83 82.77 228.37 C 84.17 234.89 87.85 240.90 87.94 247.64 C 85.76 246.57 84.77 244.29 83.64 242.30 C 81.79 238.89 79.72 235.60 77.71 232.29 C 72.42 233.16 66.48 230.75 64.69 225.39 C 61.90 224.68 60.19 222.32 59.71 219.57 C 56.99 223.43 54.50 227.52 51.02 230.77 C 47.61 227.47 44.47 223.88 41.79 219.97 C 38.57 220.84 35.56 222.82 32.17 222.87 C 29.48 220.30 28.32 216.56 26.71 213.27 C 18.86 195.00 11.86 176.35 5.38 157.55 C 4.06 156.35 2.68 155.24 1.39 154.02 C 1.96 152.75 2.53 151.49 3.08 150.22 C 2.11 149.17 0.87 148.30 0.25 146.97 C -0.19 144.82 1.45 143.16 2.56 141.54 C 8.20 134.32 14.22 127.40 20.76 120.99 C 17.47 109.51 14.60 97.85 13.22 85.97 C 13.08 84.09 11.59 82.69 11.09 80.92 C 10.54 79.33 12.55 78.69 13.36 77.77 C 13.52 75.99 13.43 74.05 14.60 72.57 C 20.25 64.08 27.32 56.69 33.95 48.98 C 44.41 37.08 55.56 25.38 69.16 17.07 C 65.08 21.86 62.29 27.55 58.18 32.31 C 47.49 47.68 36.38 62.86 27.50 79.39 C 27.24 82.27 27.33 85.25 28.04 88.08 C 30.11 95.02 32.80 101.81 36.46 108.08 C 41.98 104.06 46.35 97.44 53.22 95.76 C 51.57 97.25 49.79 98.57 48.05 99.94 C 43.55 103.27 39.99 107.57 36.33 111.74 C 35.87 111.31 34.94 110.46 34.48 110.03 C 30.32 107.10 29.62 101.83 27.41 97.60 C 25.02 92.68 24.10 87.23 22.00 82.20 C 24.31 74.47 30.00 68.42 33.48 61.25 C 34.51 59.88 35.63 58.53 36.32 56.94 C 36.41 56.59 36.58 55.88 36.67 55.53 C 39.47 52.61 41.55 49.13 44.06 45.98 C 48.42 40.20 53.63 35.12 58.01 29.35 C 54.61 31.76 51.70 34.77 48.88 37.81 C 44.58 42.54 39.96 47.03 36.40 52.38 C 35.79 53.32 35.07 54.18 34.21 54.91 C 28.72 60.16 25.00 66.98 19.47 72.23 C 18.59 73.18 17.72 74.15 16.86 75.11 C 16.82 75.72 16.74 76.93 16.69 77.54 C 16.13 78.31 15.58 79.08 15.02 79.85 C 15.24 80.46 15.70 81.68 15.93 82.28 C 18.65 95.60 21.57 108.96 26.36 121.70 C 22.76 125.20 19.28 128.82 15.82 132.44 C 12.61 134.91 10.71 138.63 8.09 141.66 C 6.95 143.44 4.50 144.91 5.08 147.34 C 4.95 150.81 7.75 153.18 8.66 156.33 C 10.04 160.76 12.19 164.91 13.51 169.36 C 16.02 179.32 20.69 188.55 25.24 197.70 C 28.09 204.56 31.71 211.06 34.53 217.92 C 38.50 217.38 41.97 215.16 45.63 213.68 C 49.25 212.42 52.82 210.98 56.25 209.25 C 56.42 208.88 56.77 208.15 56.94 207.78 C 57.17 207.26 57.64 206.21 57.87 205.68 C 58.30 207.50 58.79 209.31 59.30 211.12 C 59.46 211.70 59.78 212.87 59.95 213.46 L 59.01 213.89 C 58.77 212.90 58.29 210.92 58.06 209.93 C 53.02 211.98 47.98 214.00 42.96 216.08 C 44.19 218.30 45.57 220.47 47.29 222.33 C 48.52 223.67 49.81 224.95 51.09 226.23 C 54.23 222.47 56.34 218.00 59.33 214.14 C 59.93 214.28 61.14 214.58 61.74 214.73 C 62.07 215.07 62.73 215.75 63.06 216.09 C 63.50 217.34 63.68 218.67 63.19 219.93 C 62.81 221.41 63.41 222.19 64.99 222.26 C 68.59 223.21 72.24 224.12 76.00 223.79 C 77.86 223.80 79.89 223.43 81.51 224.59 C 83.70 226.46 86.49 224.14 86.69 221.76 C 86.79 221.43 86.99 220.77 87.09 220.43 C 88.41 218.22 91.14 216.69 91.00 213.82 C 89.61 214.54 89.54 216.31 88.64 217.46 C 88.50 215.92 88.34 214.38 88.17 212.85 C 85.66 213.19 84.41 215.47 82.63 216.97 C 83.31 215.61 84.10 214.17 83.77 212.60 C 86.08 213.15 87.92 211.64 89.63 210.34 C 94.99 216.78 97.13 225.18 101.88 232.01 C 107.54 239.30 112.64 247.33 120.38 252.64 C 120.79 252.78 121.60 253.04 122.01 253.18 C 123.87 251.96 125.57 250.52 127.25 249.08 C 127.24 246.35 127.25 243.63 127.31 240.91 C 129.26 233.42 129.10 225.62 130.21 218.00 C 131.22 211.16 131.37 204.26 131.53 197.36 C 132.10 194.95 132.28 192.47 132.32 190.01 C 131.46 188.23 130.33 186.61 129.32 184.93 C 128.61 183.62 127.94 182.29 127.25 180.98 C 124.54 175.50 121.71 170.08 119.60 164.34 C 116.70 157.84 113.22 151.61 109.53 145.53 C 107.41 141.66 105.00 137.96 102.74 134.17 C 102.09 133.16 101.44 132.17 100.82 131.17 C 97.37 125.36 93.48 119.85 89.70 114.27 C 88.39 112.47 87.12 110.54 85.14 109.41 C 87.63 117.17 92.85 123.66 95.82 131.22 C 96.44 132.64 97.06 134.06 97.69 135.48 C 100.37 141.91 103.64 148.04 107.04 154.12 C 110.44 160.42 114.07 166.61 117.74 172.76 C 118.99 176.72 121.59 180.12 122.62 184.16 C 122.65 185.81 121.67 187.27 121.16 188.81 C 121.64 189.65 122.11 190.50 122.57 191.36 C 122.97 196.48 122.62 201.65 121.41 206.64 C 119.58 217.10 117.76 227.58 116.42 238.12 C 116.07 236.38 115.82 234.62 115.83 232.85 C 115.86 232.41 115.92 231.53 115.95 231.08 C 110.48 225.36 104.55 220.05 100.00 213.51 C 98.50 211.62 96.97 209.73 95.90 207.56 C 95.51 206.68 95.17 205.79 94.78 204.92 L 94.05 203.93 C 93.55 203.89 92.56 203.80 92.06 203.76 C 91.82 203.74 91.33 203.71 91.09 203.70 C 92.83 203.49 93.66 202.53 93.57 200.81 C 92.32 201.12 91.06 201.42 89.81 201.71 C 92.09 200.25 94.76 199.42 96.88 197.71 C 98.28 194.41 98.16 190.44 101.25 188.03 C 100.22 185.21 98.70 182.60 96.79 180.29 C 95.61 178.63 94.19 177.20 92.53 176.03 C 91.59 174.78 90.43 174.33 89.07 174.69 C 89.49 174.36 90.34 173.70 90.77 173.37 C 92.20 174.44 93.60 175.55 94.99 176.68 C 97.14 179.10 99.25 181.61 100.82 184.46 C 101.73 185.97 101.40 189.68 103.94 189.00 C 109.84 187.43 116.29 187.20 121.73 184.36 C 121.41 183.65 120.77 182.23 120.45 181.52 C 117.51 175.14 113.85 169.12 110.84 162.76 C 104.34 165.34 97.67 167.67 91.58 171.17 C 90.97 171.27 89.77 171.48 89.16 171.58 C 85.85 165.25 83.87 158.20 83.31 151.09 C 86.76 145.65 92.18 141.45 97.66 138.09 C 97.51 137.06 97.19 136.07 96.72 135.13 C 94.79 131.54 93.94 127.30 91.26 124.18 C 90.08 125.37 88.89 126.55 87.69 127.71 C 85.18 130.08 82.94 132.72 80.89 135.50 C 77.52 139.66 75.24 144.59 73.40 149.59 C 73.26 149.95 72.96 150.66 72.82 151.02 C 69.87 157.13 69.02 164.17 70.11 170.84 C 72.25 174.38 77.32 176.20 77.62 180.67 L 77.32 180.24 C 76.27 178.51 74.74 177.18 73.31 175.79 C 68.55 170.69 63.07 166.35 58.03 161.55 C 55.98 159.64 54.59 157.17 54.34 154.35 C 53.52 153.55 52.73 152.74 51.95 151.91 C 49.93 148.30 48.40 144.24 45.20 141.48 C 43.05 145.66 40.69 149.76 38.88 154.10 C 39.47 155.98 40.61 157.68 40.75 159.70 C 43.70 161.63 43.11 166.09 46.50 167.48 C 54.94 172.19 63.12 177.42 71.85 181.57 C 72.43 181.89 73.57 182.52 74.14 182.84 C 75.23 182.71 76.29 182.45 77.32 182.07 C 77.29 182.31 77.24 182.79 77.22 183.03 C 75.44 184.70 73.55 186.25 71.85 188.01 L 70.59 187.28 C 71.80 186.29 72.92 185.21 74.02 184.11 C 73.27 183.80 72.52 183.48 71.79 183.15 C 65.57 179.26 58.78 176.36 52.64 172.33 C 49.46 170.07 45.28 169.06 42.91 165.80 C 42.49 164.48 42.42 162.95 41.36 161.94 C 40.72 161.56 39.43 160.80 38.79 160.42 C 38.86 158.27 38.42 156.16 38.11 154.05 C 39.00 150.87 40.89 148.10 42.29 145.14 C 44.72 140.58 46.32 135.58 49.21 131.26 C 50.40 129.49 51.45 127.62 52.04 125.56 C 54.67 124.16 57.42 122.87 59.53 120.70 C 62.03 119.49 64.21 117.42 67.04 117.05 C 64.58 120.38 59.63 120.99 57.80 124.90 C 55.08 129.79 51.80 134.52 50.12 139.88 C 52.65 143.97 54.02 149.07 58.02 152.01 C 58.48 153.66 57.80 155.36 57.68 157.02 C 60.33 159.36 62.69 162.01 65.44 164.24 C 66.08 154.50 69.71 145.19 74.93 137.02 C 78.16 131.35 82.43 126.33 87.42 122.14 C 85.38 115.69 83.53 109.19 81.48 102.76 C 86.12 106.96 90.09 111.84 94.24 116.51 C 103.73 110.23 114.22 105.11 125.58 103.51 C 128.26 100.92 131.84 99.93 135.44 99.44 C 138.96 94.97 140.97 89.45 144.66 85.16 C 148.68 89.20 152.46 93.51 155.88 98.08 C 159.73 103.79 162.56 110.12 165.76 116.20 C 174.29 123.30 184.18 128.95 191.39 137.55 C 196.01 142.48 200.03 148.10 204.82 152.76 C 207.07 143.03 208.67 133.14 208.52 123.12 C 207.33 121.61 206.01 120.21 204.57 118.95 C 204.57 118.36 204.58 117.17 204.59 116.57 C 203.12 115.90 201.74 115.08 200.45 114.10 C 200.67 113.27 201.11 111.60 201.33 110.76 C 196.54 105.22 190.93 100.40 186.71 94.38 C 175.58 80.24 162.00 68.30 149.91 55.02 C 153.37 55.29 156.39 57.16 159.44 58.64 C 165.86 62.09 172.21 65.69 178.32 69.67 C 190.50 78.27 202.91 86.90 212.81 98.17 C 216.31 102.00 220.96 105.31 222.83 110.25 C 224.79 111.97 227.02 113.38 228.76 115.34 C 228.64 118.35 228.23 121.76 226.49 124.33 C 227.12 125.85 228.24 127.39 227.71 129.13 C 226.87 133.21 225.25 137.07 224.02 141.04 C 224.57 140.80 225.68 140.30 226.24 140.06 C 226.29 138.70 226.04 137.20 227.02 136.09 C 234.86 124.00 242.64 111.73 247.61 98.14 C 246.77 95.64 247.37 93.19 248.89 91.11 C 244.94 80.35 240.86 69.60 235.69 59.34 C 230.98 49.98 225.74 40.84 222.09 30.99 C 220.27 26.04 217.49 21.49 215.86 16.48 C 214.76 11.25 213.34 6.09 212.08 0.90 M 217.35 12.99 C 220.59 19.97 223.07 27.26 226.68 34.07 C 228.19 38.08 230.35 41.80 232.18 45.67 C 235.02 51.37 238.01 57.02 241.14 62.57 C 243.93 67.94 246.63 73.42 248.90 79.06 C 250.19 82.65 252.71 85.91 252.71 89.86 C 253.16 90.25 254.05 91.03 254.50 91.42 C 253.46 92.45 252.16 93.53 251.92 95.04 C 251.69 99.27 249.57 103.04 247.58 106.66 C 242.71 116.82 237.14 126.63 231.19 136.18 C 230.29 138.22 229.16 140.15 227.28 141.44 C 227.39 142.70 227.46 143.96 227.79 145.18 C 226.90 144.62 225.97 144.15 225.00 143.76 C 224.18 144.37 223.43 145.06 222.77 145.84 C 222.17 146.40 221.56 146.94 220.94 147.46 C 220.42 149.22 220.30 151.07 220.27 152.89 C 218.02 154.61 218.54 158.53 218.10 161.20 L 218.11 161.98 C 220.40 160.77 222.70 159.57 225.12 158.63 C 226.37 158.64 227.62 158.64 228.87 158.63 L 228.22 158.39 C 229.81 156.40 232.71 156.99 234.82 155.87 C 234.64 153.96 233.90 152.08 234.22 150.15 C 234.95 148.16 236.08 146.34 237.06 144.47 C 237.26 144.37 237.66 144.17 237.86 144.07 C 240.36 138.60 242.83 133.12 245.96 127.98 C 249.12 120.91 253.11 114.23 256.40 107.26 C 258.96 103.19 260.12 97.87 264.19 94.98 C 263.11 90.22 260.37 86.01 258.37 81.59 C 253.69 72.65 248.40 64.00 243.83 54.98 C 242.88 53.57 242.47 51.41 240.57 50.99 C 240.46 49.05 239.45 46.83 237.54 46.08 C 237.53 45.14 237.35 44.22 237.02 43.32 L 236.64 43.18 C 235.14 40.03 233.45 36.96 231.44 34.11 C 228.28 28.42 224.34 23.21 221.28 17.47 C 220.08 15.91 219.41 13.60 217.35 12.99 M 161.20 63.04 C 164.34 66.51 167.58 69.93 171.22 72.89 C 175.58 77.51 179.78 82.34 184.31 86.83 L 184.27 87.01 C 188.98 91.18 192.57 96.37 197.01 100.79 C 199.09 104.33 203.26 106.02 205.34 109.54 C 205.62 111.66 206.40 113.61 208.07 115.03 C 208.09 116.34 208.10 117.65 208.11 118.96 C 209.35 119.70 210.60 120.44 211.85 121.17 C 211.71 122.01 211.58 122.84 211.44 123.67 C 211.91 124.47 212.37 125.26 212.83 126.06 C 212.34 128.06 212.51 130.14 213.85 131.78 C 212.17 138.91 209.93 145.88 208.34 153.03 C 207.53 156.38 206.91 159.81 205.58 163.02 C 205.97 164.01 206.40 164.99 206.87 165.95 C 206.59 166.19 206.04 166.67 205.77 166.91 C 205.76 167.33 205.75 168.15 205.75 168.57 C 203.53 171.81 201.89 175.62 200.41 179.31 C 199.85 174.06 205.39 170.18 205.45 164.99 C 205.09 164.12 204.51 163.45 203.70 162.95 C 200.19 157.84 196.92 152.50 192.66 147.97 L 191.49 147.60 C 186.26 141.15 181.42 134.42 175.90 128.13 C 171.06 123.76 166.66 118.89 161.49 114.89 C 161.30 113.77 159.38 112.03 158.35 113.55 C 157.38 112.64 156.45 111.69 155.57 110.71 C 155.95 108.17 154.06 106.31 152.69 104.42 L 152.16 104.45 C 150.02 100.71 148.37 96.56 145.29 93.48 C 144.84 92.63 144.17 92.05 143.27 91.72 C 141.61 95.21 139.31 98.39 136.57 101.11 C 135.26 103.58 131.26 103.34 131.03 106.60 C 123.55 108.30 116.14 110.44 109.04 113.37 C 106.65 114.39 104.16 115.26 102.01 116.75 C 99.75 118.01 97.60 119.47 95.54 121.03 C 96.21 122.18 96.82 123.37 97.35 124.60 L 97.66 124.15 C 98.98 126.48 100.14 129.13 102.17 130.88 C 103.31 132.99 104.16 135.24 105.70 137.13 C 107.92 141.23 110.71 144.99 112.96 149.07 C 117.94 157.15 121.78 165.81 125.91 174.33 C 126.53 176.25 127.45 178.07 128.81 179.58 C 128.04 180.56 129.45 182.60 130.78 181.79 C 135.43 180.40 140.12 178.88 144.44 176.61 L 144.66 176.13 C 146.19 176.72 147.68 175.75 149.12 175.34 C 155.53 172.99 161.89 170.36 168.59 168.92 C 168.98 168.71 169.77 168.31 170.17 168.10 C 172.86 162.10 172.54 155.27 171.51 148.91 C 170.85 142.11 168.88 135.53 166.59 129.12 C 165.50 124.43 161.48 120.48 161.40 115.65 C 164.75 119.92 168.79 123.56 172.49 127.51 C 173.40 128.30 174.09 129.53 175.40 129.72 C 175.14 131.13 176.41 131.41 177.27 132.03 L 176.93 133.74 C 182.95 144.07 190.86 153.16 196.66 163.63 C 196.13 164.12 195.56 164.54 194.94 164.90 C 195.54 163.40 194.53 162.05 193.95 160.76 C 191.19 160.22 188.61 161.90 186.70 163.72 C 181.68 166.57 175.87 167.31 170.50 169.26 C 156.72 173.00 143.59 178.71 129.99 183.05 C 130.31 184.10 130.65 185.14 131.03 186.17 C 131.95 187.22 132.94 188.19 134.01 189.08 C 141.58 186.58 149.04 183.68 156.78 181.71 C 164.14 179.56 171.65 177.95 178.96 175.66 C 183.57 173.48 188.83 172.88 193.15 170.02 C 190.42 177.78 185.24 184.29 181.57 191.57 C 176.09 200.89 170.84 210.33 165.59 219.77 C 164.07 220.61 161.07 221.78 162.47 224.02 C 161.88 224.40 160.68 225.15 160.09 225.53 C 154.37 222.97 148.35 221.09 142.77 218.19 C 138.96 216.80 135.63 213.97 131.57 213.44 C 131.34 214.97 131.18 216.51 131.05 218.05 C 130.92 219.99 129.68 222.98 132.33 223.73 C 143.10 228.49 153.85 233.34 164.69 237.95 C 168.74 234.21 171.77 229.33 174.41 224.50 L 174.68 224.47 C 176.79 221.18 178.64 217.72 180.35 214.20 C 186.45 216.97 193.32 216.14 199.82 216.56 C 201.28 217.03 202.52 216.54 202.80 214.96 C 205.02 207.60 208.33 200.56 209.75 192.98 L 210.60 192.73 C 213.09 184.69 213.89 176.23 215.76 168.03 C 217.56 154.84 220.50 141.83 223.96 128.98 C 225.06 126.76 224.54 124.42 223.45 122.32 C 224.86 120.14 224.80 117.52 224.93 115.03 C 224.62 114.83 224.02 114.44 223.71 114.24 C 222.61 113.14 221.36 112.21 219.94 111.57 L 220.10 111.40 C 218.03 110.74 217.24 108.59 215.69 107.28 C 208.20 100.80 201.02 93.98 193.65 87.36 C 192.90 86.63 192.01 86.15 190.98 85.95 C 188.46 83.19 185.72 80.60 182.81 78.26 L 182.50 78.34 C 179.93 76.36 177.60 74.10 175.06 72.10 L 174.95 72.43 C 170.65 68.93 166.13 65.59 161.20 63.04 M 173.25 135.24 C 174.45 139.56 176.56 143.58 177.48 147.99 C 178.92 153.64 178.91 159.52 178.48 165.30 C 180.00 164.79 181.55 164.36 183.11 163.99 C 183.37 162.65 183.32 161.21 183.99 159.98 C 185.64 159.01 187.64 158.94 189.32 158.03 C 184.34 150.20 179.40 142.17 173.25 135.24 M 96.02 140.05 C 93.95 141.63 91.64 143.00 90.04 145.09 C 88.05 146.15 86.52 148.16 85.15 149.96 L 84.72 150.00 C 84.50 150.58 84.07 151.75 83.85 152.33 L 84.44 152.24 C 84.86 158.60 86.83 164.82 89.52 170.58 C 89.82 170.70 90.41 170.94 90.71 171.05 L 90.75 170.53 C 97.00 167.08 103.71 164.59 110.32 161.94 C 109.11 159.65 107.86 157.38 106.59 155.12 C 104.56 151.12 102.28 147.25 100.30 143.22 C 99.78 142.08 99.31 140.91 98.92 139.72 C 98.20 138.45 96.78 139.37 96.02 140.05 M 201.69 156.99 C 202.51 158.73 203.48 160.40 204.52 162.02 C 205.57 159.88 205.49 157.47 205.66 155.16 C 204.28 155.63 202.87 156.10 201.69 156.99 M 173.89 179.88 C 170.82 185.29 167.32 190.50 162.85 194.86 C 162.22 195.60 161.18 196.16 161.16 197.25 C 165.44 197.46 169.69 198.09 173.97 198.23 C 177.58 191.15 181.61 184.29 185.02 177.11 C 181.30 178.00 177.70 179.39 173.89 179.88 M 165.87 181.25 C 163.55 180.87 161.31 181.69 159.11 182.26 C 150.43 184.56 141.91 187.41 133.53 190.58 C 132.43 192.98 132.51 195.75 132.75 198.34 C 137.15 198.55 141.62 197.99 145.98 198.93 C 147.62 199.19 149.39 199.69 151.02 199.06 C 156.08 196.75 159.72 192.30 162.99 187.95 C 164.64 185.47 166.56 182.94 166.87 179.88 C 166.62 180.22 166.12 180.90 165.87 181.25 M 100.42 190.43 C 99.26 191.23 99.29 192.70 99.00 193.92 C 99.36 193.90 100.07 193.85 100.42 193.83 L 101.08 194.67 C 107.82 195.70 114.63 195.61 121.28 194.09 C 121.59 192.70 121.40 191.37 120.70 190.09 L 120.22 190.29 C 120.25 189.36 120.32 187.50 120.35 186.57 C 113.83 188.45 107.10 189.36 100.42 190.43 M 100.41 197.93 C 101.39 200.44 104.39 200.83 106.67 201.49 C 108.38 202.30 110.20 202.84 112.10 202.96 C 111.78 203.32 111.13 204.05 110.80 204.41 C 109.15 203.69 107.46 203.04 105.79 202.37 C 103.04 201.53 100.47 200.26 97.99 198.83 C 94.15 198.73 93.28 203.76 96.31 205.64 C 104.04 208.71 111.02 213.38 118.55 216.90 C 118.70 215.64 118.87 214.39 119.06 213.14 C 119.53 211.39 120.49 209.15 119.61 207.47 C 118.91 207.26 117.52 206.84 116.82 206.63 C 117.92 206.56 119.02 206.43 120.12 206.26 C 120.31 205.75 120.69 204.72 120.88 204.21 C 121.28 202.10 121.73 199.97 121.50 197.81 C 117.67 197.63 113.88 197.04 110.07 196.66 C 106.89 196.70 102.34 194.43 100.41 197.93 M 132.62 199.11 L 132.63 199.88 C 131.71 202.55 131.41 205.75 132.61 208.32 C 135.29 209.25 138.10 210.00 140.94 209.39 C 149.90 210.81 158.83 212.84 167.79 214.02 C 168.56 212.44 169.34 210.86 170.10 209.27 C 171.73 207.12 173.21 204.81 174.15 202.27 C 168.07 202.04 162.07 200.82 155.99 200.46 C 148.19 200.14 140.40 199.61 132.62 199.11 M 104.93 212.97 C 105.13 216.16 108.36 217.68 110.30 219.78 C 112.57 221.47 114.22 224.09 116.94 225.07 C 117.14 223.71 117.31 222.34 117.44 220.97 C 113.14 218.50 109.03 215.75 104.93 212.97 M 146.17 214.43 C 149.65 215.66 153.08 217.07 156.43 218.64 C 156.48 218.13 156.58 217.10 156.63 216.58 C 153.13 215.90 149.72 214.78 146.17 214.43 M 66.93 223.82 C 67.23 225.45 68.29 226.66 69.50 227.71 C 71.09 228.85 73.08 228.55 74.90 228.46 C 75.79 227.36 78.46 226.60 77.31 224.75 C 76.62 224.78 75.26 224.84 74.58 224.87 C 73.72 224.82 71.99 224.73 71.13 224.68 C 69.75 224.34 68.38 223.74 66.93 223.82 M 78.21 224.93 C 78.22 225.59 78.24 226.92 78.26 227.58 L 79.19 227.70 C 79.30 230.71 81.12 233.36 82.70 235.83 C 81.77 233.66 81.43 231.30 80.56 229.11 C 80.40 227.52 80.51 224.88 78.21 224.93 Z" />
<path fill="#decfb0" opacity="1.00" d=" M 217.35 12.99 C 219.41 13.60 220.08 15.91 221.28 17.47 C 224.34 23.21 228.28 28.42 231.44 34.11 L 231.26 35.64 C 229.71 33.82 228.60 31.55 226.55 30.21 C 226.58 31.18 226.64 33.11 226.68 34.07 C 223.07 27.26 220.59 19.97 217.35 12.99 Z" />
<path fill="#decfb0" opacity="1.00" d=" M 48.88 37.81 C 51.70 34.77 54.61 31.76 58.01 29.35 C 53.63 35.12 48.42 40.20 44.06 45.98 C 41.55 49.13 39.47 52.61 36.67 55.53 C 36.58 55.88 36.41 56.59 36.32 56.94 C 35.51 56.37 34.81 55.69 34.21 54.91 C 35.07 54.18 35.79 53.32 36.40 52.38 C 39.96 47.03 44.58 42.54 48.88 37.81 Z" />
<path fill="#a6998a" opacity="1.00" d=" M 226.55 30.21 C 228.60 31.55 229.71 33.82 231.26 35.64 L 231.44 34.11 C 233.45 36.96 235.14 40.03 236.64 43.18 C 233.21 42.31 232.53 38.20 230.11 36.00 C 230.92 38.77 232.35 41.31 233.30 44.03 C 233.02 44.44 232.46 45.26 232.18 45.67 C 230.35 41.80 228.19 38.08 226.68 34.07 C 226.64 33.11 226.58 31.18 226.55 30.21 Z" />
<path fill="#000000" opacity="1.00" d=" M 99.59 52.50 C 114.01 45.34 128.97 38.85 144.82 35.65 C 143.89 36.45 142.90 37.18 141.83 37.76 C 131.98 43.33 122.71 49.90 113.99 57.10 C 103.57 64.85 93.04 72.58 83.96 81.92 C 82.62 83.43 80.22 84.89 81.61 87.18 C 80.57 87.66 79.55 88.18 78.54 88.72 C 78.68 90.33 79.92 92.23 78.75 93.73 C 74.23 100.90 68.98 107.59 64.42 114.74 L 64.19 115.90 L 66.89 115.00 L 66.79 116.63 C 63.96 115.92 61.45 118.07 58.81 118.76 L 58.13 117.81 C 62.10 108.61 68.81 100.84 75.40 93.38 C 78.42 90.69 76.50 86.20 77.90 82.84 C 78.77 81.45 79.85 80.22 80.93 79.00 C 83.60 76.23 86.62 73.85 89.50 71.32 C 95.15 66.73 100.60 61.88 106.67 57.83 C 108.55 56.40 110.81 55.34 112.21 53.37 L 112.73 52.75 C 118.65 48.80 125.04 45.56 131.27 42.10 C 120.56 43.88 111.55 50.47 102.19 55.54 C 92.24 61.81 82.66 68.70 73.52 76.11 C 72.56 77.05 72.16 78.33 71.66 79.54 C 70.10 81.82 68.99 84.39 67.20 86.51 C 64.02 90.54 61.42 95.00 58.14 98.96 C 52.51 107.57 45.97 115.71 41.65 125.09 C 42.83 124.57 44.01 124.04 45.19 123.52 C 49.27 122.11 52.84 118.90 57.39 119.27 C 55.70 119.94 54.03 120.63 52.36 121.34 C 50.38 122.18 48.53 123.30 46.56 124.18 C 44.29 125.08 42.04 126.01 39.95 127.30 C 39.72 127.07 39.27 126.63 39.04 126.40 C 38.88 123.23 37.79 120.20 36.53 117.32 C 35.50 117.01 34.79 117.46 34.41 118.67 C 32.19 121.37 29.37 123.51 27.25 126.29 C 26.54 128.13 27.88 130.07 28.22 131.89 C 31.47 131.16 34.11 127.95 37.58 128.60 C 34.00 130.42 30.64 132.72 26.83 134.05 C 23.01 135.48 19.64 137.89 16.47 140.39 C 14.45 141.81 13.88 144.29 13.11 146.48 C 12.98 143.87 13.82 141.40 15.56 139.46 C 21.54 132.10 27.04 124.34 33.76 117.63 C 33.78 116.99 33.83 115.73 33.86 115.09 C 35.92 114.38 36.25 111.87 38.21 111.06 C 41.21 109.66 42.58 106.11 45.70 104.99 L 45.64 106.58 C 43.69 108.69 41.76 110.82 39.92 113.04 C 38.52 113.48 38.42 114.17 39.62 115.11 C 39.86 115.58 40.34 116.52 40.57 116.99 C 41.19 115.85 41.82 114.72 42.44 113.59 C 42.47 113.54 42.52 113.45 42.55 113.40 C 44.29 110.28 46.31 107.32 48.29 104.35 C 48.92 103.22 50.02 101.97 49.41 100.61 C 51.41 98.66 53.42 96.70 55.03 94.40 C 59.53 89.38 63.28 83.74 67.75 78.69 C 67.88 77.27 67.26 75.55 68.33 74.38 C 71.63 70.62 76.25 68.41 80.01 65.18 C 85.96 60.13 92.58 55.90 99.59 52.50 Z" />
<path fill="#716d70" opacity="1.00" d=" M 230.11 36.00 C 232.53 38.20 233.21 42.31 236.64 43.18 L 237.02 43.32 C 237.35 44.22 237.53 45.14 237.54 46.08 C 236.64 51.50 240.08 56.04 242.03 60.78 C 241.81 61.23 241.37 62.13 241.14 62.57 C 238.01 57.02 235.02 51.37 232.18 45.67 C 232.46 45.26 233.02 44.44 233.30 44.03 C 232.35 41.31 230.92 38.77 230.11 36.00 Z" />
<path fill="#fffbc6" opacity="1.00" d=" M 102.19 55.54 C 111.55 50.47 120.56 43.88 131.27 42.10 C 125.04 45.56 118.65 48.80 112.73 52.75 L 112.21 53.37 C 108.43 52.05 105.85 56.46 102.19 55.54 Z" />
<path fill="#585a5b" opacity="1.00" d=" M 237.54 46.08 C 239.45 46.83 240.46 49.05 240.57 50.99 C 241.57 59.95 247.47 67.34 252.08 74.77 C 253.80 79.00 254.31 83.59 255.66 87.94 C 255.78 88.46 256.01 89.49 256.13 90.01 C 255.72 90.36 254.90 91.07 254.50 91.42 C 254.05 91.03 253.16 90.25 252.71 89.86 C 252.71 85.91 250.19 82.65 248.90 79.06 C 246.63 73.42 243.93 67.94 241.14 62.57 C 241.37 62.13 241.81 61.23 242.03 60.78 C 240.08 56.04 236.64 51.50 237.54 46.08 Z" />
<path fill="#3f3c4b" opacity="1.00" d=" M 240.57 50.99 C 242.47 51.41 242.88 53.57 243.83 54.98 C 248.40 64.00 253.69 72.65 258.37 81.59 C 258.80 84.80 260.94 87.40 261.93 90.43 C 261.55 91.31 260.78 93.06 260.39 93.94 C 259.03 91.81 257.87 89.56 256.79 87.27 C 256.51 87.44 255.94 87.77 255.66 87.94 C 254.31 83.59 253.80 79.00 252.08 74.77 C 247.47 67.34 241.57 59.95 240.57 50.99 Z" />
<path fill="#5a5961" opacity="1.00" d=" M 102.19 55.54 C 105.85 56.46 108.43 52.05 112.21 53.37 C 110.81 55.34 108.55 56.40 106.67 57.83 C 100.60 61.88 95.15 66.73 89.50 71.32 C 88.89 71.02 87.66 70.43 87.05 70.13 C 84.00 71.67 81.05 73.43 78.36 75.54 C 77.76 75.95 76.56 76.75 75.96 77.15 C 75.35 76.89 74.13 76.37 73.52 76.11 C 82.66 68.70 92.24 61.81 102.19 55.54 Z" />
<path fill="#515157" opacity="1.00" d=" M 19.47 72.23 C 25.00 66.98 28.72 60.16 34.21 54.91 C 34.81 55.69 35.51 56.37 36.32 56.94 C 35.63 58.53 34.51 59.88 33.48 61.25 C 29.13 64.55 25.56 68.76 21.72 72.62 C 21.16 72.52 20.03 72.32 19.47 72.23 Z" />
<path fill="#241b37" opacity="1.00" d=" M 21.72 72.62 C 25.56 68.76 29.13 64.55 33.48 61.25 C 30.00 68.42 24.31 74.47 22.00 82.20 C 21.14 84.31 19.86 86.46 20.35 88.84 C 21.86 96.19 25.87 102.68 28.50 109.64 C 29.13 110.90 29.43 112.71 31.02 113.11 C 32.87 113.42 33.78 111.36 34.48 110.03 C 34.94 110.46 35.87 111.31 36.33 111.74 C 36.12 112.18 35.70 113.06 35.49 113.49 C 31.94 115.63 29.40 118.97 26.36 121.70 C 21.57 108.96 18.65 95.60 15.93 82.28 C 17.64 81.95 20.57 83.09 21.31 80.94 C 20.64 78.91 18.36 78.43 16.69 77.54 C 16.74 76.93 16.82 75.72 16.86 75.11 C 17.72 74.15 18.59 73.18 19.47 72.23 C 20.03 72.32 21.16 72.52 21.72 72.62 Z" />
<path fill="#fffbc6" opacity="1.00" d=" M 161.20 63.04 C 166.13 65.59 170.65 68.93 174.95 72.43 L 174.52 73.81 C 173.69 73.58 172.04 73.12 171.22 72.89 C 167.58 69.93 164.34 66.51 161.20 63.04 Z" />
<path fill="#403b4c" opacity="1.00" d=" M 78.36 75.54 C 81.05 73.43 84.00 71.67 87.05 70.13 C 87.66 70.43 88.89 71.02 89.50 71.32 C 86.62 73.85 83.60 76.23 80.93 79.00 C 80.36 78.94 79.20 78.82 78.62 78.76 C 78.64 77.68 78.49 76.61 78.36 75.54 Z" />
<path fill="#887672" opacity="1.00" d=" M 174.95 72.43 L 175.06 72.10 C 177.60 74.10 179.93 76.36 182.50 78.34 C 181.37 78.65 180.24 78.95 179.12 79.25 C 180.84 81.35 182.77 83.26 184.59 85.26 C 184.52 85.66 184.38 86.44 184.31 86.83 C 179.78 82.34 175.58 77.51 171.22 72.89 C 172.04 73.12 173.69 73.58 174.52 73.81 L 174.95 72.43 Z" />
<path fill="#251c38" opacity="1.00" d=" M 71.66 79.54 C 72.16 78.33 72.56 77.05 73.52 76.11 C 74.13 76.37 75.35 76.89 75.96 77.15 C 76.56 76.75 77.76 75.95 78.36 75.54 C 78.49 76.61 78.64 77.68 78.62 78.76 C 79.20 78.82 80.36 78.94 80.93 79.00 C 79.85 80.22 78.77 81.45 77.90 82.84 C 76.50 86.20 78.42 90.69 75.40 93.38 C 68.81 100.84 62.10 108.61 58.13 117.81 L 58.81 118.76 C 58.46 118.89 57.75 119.14 57.39 119.27 C 52.84 118.90 49.27 122.11 45.19 123.52 C 45.99 121.12 47.19 118.84 49.16 117.20 C 53.51 113.48 56.15 108.31 59.74 103.93 C 63.80 101.34 66.00 96.88 69.45 93.63 C 69.57 91.71 69.64 89.79 69.68 87.87 C 71.03 87.12 72.35 86.31 73.78 85.71 C 73.43 83.54 72.65 81.48 71.66 79.54 Z" />
<path fill="#3b3746" opacity="1.00" d=" M 15.02 79.85 C 15.58 79.08 16.13 78.31 16.69 77.54 C 18.36 78.43 20.64 78.91 21.31 80.94 C 20.57 83.09 17.64 81.95 15.93 82.28 C 15.70 81.68 15.24 80.46 15.02 79.85 Z" />
<path fill="#413e4c" opacity="1.00" d=" M 182.50 78.34 L 182.81 78.26 C 185.72 80.60 188.46 83.19 190.98 85.95 C 195.69 93.39 203.48 98.33 207.85 106.00 C 207.60 106.50 207.11 107.49 206.87 107.98 C 203.61 105.96 201.56 102.55 198.45 100.37 C 198.09 100.47 197.37 100.68 197.01 100.79 C 192.57 96.37 188.98 91.18 184.27 87.01 L 184.31 86.83 C 184.38 86.44 184.52 85.66 184.59 85.26 C 182.77 83.26 180.84 81.35 179.12 79.25 C 180.24 78.95 181.37 78.65 182.50 78.34 Z" />
<path fill="#403c4b" opacity="1.00" d=" M 67.20 86.51 C 68.99 84.39 70.10 81.82 71.66 79.54 C 72.65 81.48 73.43 83.54 73.78 85.71 C 72.35 86.31 71.03 87.12 69.68 87.87 C 69.64 89.79 69.57 91.71 69.45 93.63 C 66.00 96.88 63.80 101.34 59.74 103.93 C 62.05 98.83 65.64 94.48 68.48 89.70 C 68.43 88.54 67.59 87.57 67.20 86.51 Z" />
<path fill="#ff494a" opacity="1.00" d=" M 261.93 90.43 C 260.94 87.40 258.80 84.80 258.37 81.59 C 260.37 86.01 263.11 90.22 264.19 94.98 C 260.12 97.87 258.96 103.19 256.40 107.26 C 257.53 102.81 259.85 98.77 262.04 94.77 C 263.18 93.46 262.32 91.84 261.93 90.43 Z" />
<path fill="#46444f" opacity="1.00" d=" M 20.35 88.84 C 19.86 86.46 21.14 84.31 22.00 82.20 C 24.10 87.23 25.02 92.68 27.41 97.60 C 29.62 101.83 30.32 107.10 34.48 110.03 C 33.78 111.36 32.87 113.42 31.02 113.11 C 29.43 112.71 29.13 110.90 28.50 109.64 C 25.87 102.68 21.86 96.19 20.35 88.84 Z" />
<path fill="#211835" opacity="1.00" d=" M 190.98 85.95 C 192.01 86.15 192.90 86.63 193.65 87.36 C 201.02 93.98 208.20 100.80 215.69 107.28 C 217.24 108.59 218.03 110.74 220.10 111.40 L 219.94 111.57 C 218.33 113.82 215.66 114.51 213.21 115.41 C 212.62 117.16 214.87 117.17 216.03 117.32 C 218.72 116.78 221.65 116.23 223.71 114.24 C 224.02 114.44 224.62 114.83 224.93 115.03 C 224.80 117.52 224.86 120.14 223.45 122.32 C 224.54 124.42 225.06 126.76 223.96 128.98 C 220.50 141.83 217.56 154.84 215.76 168.03 C 213.89 176.23 213.09 184.69 210.60 192.73 L 209.75 192.98 C 209.56 192.45 209.18 191.38 208.99 190.84 C 207.32 197.93 204.90 204.82 202.84 211.80 C 202.38 213.68 201.05 215.13 199.82 216.56 C 193.32 216.14 186.45 216.97 180.35 214.20 C 178.64 217.72 176.79 221.18 174.68 224.47 L 174.41 224.50 C 174.14 224.53 173.62 224.59 173.35 224.63 C 170.71 229.23 166.70 232.98 164.69 237.95 C 153.85 233.34 143.10 228.49 132.33 223.73 C 129.68 222.98 130.92 219.99 131.05 218.05 C 139.51 221.50 147.58 225.97 156.42 228.41 C 158.37 228.84 161.50 229.34 161.80 226.62 C 161.37 226.34 160.51 225.80 160.09 225.53 C 160.68 225.15 161.88 224.40 162.47 224.02 C 163.37 226.04 164.41 227.99 165.48 229.92 C 168.01 227.16 165.77 223.03 165.59 219.77 C 170.84 210.33 176.09 200.89 181.57 191.57 C 185.24 184.29 190.42 177.78 193.15 170.02 C 188.83 172.88 183.57 173.48 178.96 175.66 C 171.65 177.95 164.14 179.56 156.78 181.71 C 149.04 183.68 141.58 186.58 134.01 189.08 C 132.94 188.19 131.95 187.22 131.03 186.17 C 140.10 183.56 149.04 180.50 158.21 178.26 C 163.75 177.43 168.82 174.97 174.10 173.24 C 179.44 171.24 185.51 169.52 188.71 164.38 C 189.88 164.93 191.04 165.50 192.22 166.07 C 193.13 165.69 194.04 165.30 194.94 164.90 C 195.56 164.54 196.13 164.12 196.66 163.63 C 190.86 153.16 182.95 144.07 176.93 133.74 L 177.27 132.03 C 182.02 136.95 186.61 142.03 190.59 147.58 C 190.70 147.94 190.92 148.65 191.03 149.00 C 193.12 154.48 198.00 158.33 200.50 163.64 C 201.26 165.50 203.31 164.57 203.70 162.95 C 204.51 163.45 205.09 164.12 205.45 164.99 C 205.39 170.18 199.85 174.06 200.41 179.31 C 200.09 180.21 199.74 181.11 199.40 182.00 L 198.81 180.82 C 195.54 186.32 192.75 192.10 189.55 197.65 C 188.41 200.20 186.34 202.50 186.30 205.41 C 185.89 207.02 185.36 208.59 184.86 210.18 C 186.42 209.87 188.60 210.29 189.57 208.67 C 190.38 206.93 190.67 205.00 191.18 203.16 C 192.93 201.99 193.82 200.08 194.40 198.12 C 197.03 197.40 197.61 194.61 198.37 192.38 C 200.01 187.10 201.79 181.87 203.70 176.70 C 204.65 174.06 206.03 171.45 205.75 168.57 C 205.75 168.15 205.76 167.33 205.77 166.91 C 206.04 166.67 206.59 166.19 206.87 165.95 C 208.22 164.24 208.09 161.88 208.80 159.89 C 211.32 151.98 214.35 144.21 216.24 136.10 C 216.65 134.62 216.58 133.09 216.50 131.58 C 215.62 131.64 214.73 131.71 213.85 131.78 C 212.51 130.14 212.34 128.06 212.83 126.06 C 212.37 125.26 211.91 124.47 211.44 123.67 C 211.58 122.84 211.71 122.01 211.85 121.17 C 210.60 120.44 209.35 119.70 208.11 118.96 C 208.10 117.65 208.09 116.34 208.07 115.03 C 206.40 113.61 205.62 111.66 205.34 109.54 C 203.26 106.02 199.09 104.33 197.01 100.79 C 197.37 100.68 198.09 100.47 198.45 100.37 C 201.56 102.55 203.61 105.96 206.87 107.98 C 207.11 107.49 207.60 106.50 207.85 106.00 C 203.48 98.33 195.69 93.39 190.98 85.95 M 194.82 167.05 C 195.68 169.40 198.45 168.16 200.27 168.11 C 199.88 166.77 198.70 165.99 197.75 165.09 C 196.64 165.48 195.08 165.61 194.82 167.05 Z" />
<path fill="#55575b" opacity="1.00" d=" M 58.14 98.96 C 61.42 95.00 64.02 90.54 67.20 86.51 C 67.59 87.57 68.43 88.54 68.48 89.70 C 65.64 94.48 62.05 98.83 59.74 103.93 C 56.15 108.31 53.51 113.48 49.16 117.20 C 47.19 118.84 45.99 121.12 45.19 123.52 C 44.01 124.04 42.83 124.57 41.65 125.09 C 45.97 115.71 52.51 107.57 58.14 98.96 Z" />
<path fill="#231b37" opacity="1.00" d=" M 255.66 87.94 C 255.94 87.77 256.51 87.44 256.79 87.27 C 257.87 89.56 259.03 91.81 260.39 93.94 C 260.78 93.06 261.55 91.31 261.93 90.43 C 262.32 91.84 263.18 93.46 262.04 94.77 C 259.85 98.77 257.53 102.81 256.40 107.26 C 253.11 114.23 249.12 120.91 245.96 127.98 C 242.83 133.12 240.36 138.60 237.86 144.07 C 237.66 144.17 237.26 144.37 237.06 144.47 C 236.90 144.56 236.56 144.75 236.39 144.84 C 234.50 148.11 232.30 151.76 233.70 155.66 C 232.28 156.42 230.59 156.05 229.06 156.17 C 228.33 156.75 227.61 157.33 226.89 157.92 C 227.22 158.04 227.89 158.27 228.22 158.39 L 228.87 158.63 C 227.62 158.64 226.37 158.64 225.12 158.63 C 222.59 158.79 220.37 160.19 218.10 161.20 C 218.54 158.53 218.02 154.61 220.27 152.89 C 220.27 153.67 220.26 155.24 220.25 156.02 C 222.48 156.25 224.43 154.95 226.42 154.15 C 224.85 151.72 223.21 149.29 220.94 147.46 C 221.56 146.94 222.17 146.40 222.77 145.84 C 224.51 148.30 226.20 150.82 228.36 152.95 C 231.26 150.94 229.04 147.50 227.79 145.18 C 227.46 143.96 227.39 142.70 227.28 141.44 C 229.16 140.15 230.29 138.22 231.19 136.18 C 237.14 126.63 242.71 116.82 247.58 106.66 C 249.57 103.04 251.69 99.27 251.92 95.04 C 252.16 93.53 253.46 92.45 254.50 91.42 C 254.90 91.07 255.72 90.36 256.13 90.01 C 256.01 89.49 255.78 88.46 255.66 87.94 Z" />
<path fill="#887d76" opacity="1.00" d=" M 143.27 91.72 C 144.17 92.05 144.84 92.63 145.29 93.48 C 142.60 95.62 140.59 98.66 140.70 102.22 C 139.92 102.57 139.13 102.91 138.35 103.26 C 137.90 102.72 137.01 101.65 136.57 101.11 C 139.31 98.39 141.61 95.21 143.27 91.72 Z" />
<path fill="#fffbc6" opacity="1.00" d=" M 53.22 95.76 C 53.83 95.31 54.43 94.86 55.03 94.40 C 53.42 96.70 51.41 98.66 49.41 100.61 C 49.18 100.89 48.72 101.47 48.49 101.76 C 48.38 101.31 48.16 100.40 48.05 99.94 C 49.79 98.57 51.57 97.25 53.22 95.76 Z" />
<path fill="#4a4954" opacity="1.00" d=" M 140.70 102.22 C 140.59 98.66 142.60 95.62 145.29 93.48 C 148.37 96.56 150.02 100.71 152.16 104.45 C 149.05 104.98 145.84 102.75 143.01 104.88 C 142.09 104.13 141.35 103.20 140.70 102.22 Z" />
<path fill="#decfb0" opacity="1.00" d=" M 36.33 111.74 C 39.99 107.57 43.55 103.27 48.05 99.94 C 48.16 100.40 48.38 101.31 48.49 101.76 C 47.45 102.48 46.50 103.31 45.64 104.24 L 45.70 104.81 C 45.70 104.85 45.70 104.94 45.70 104.99 C 42.58 106.11 41.21 109.66 38.21 111.06 C 36.25 111.87 35.92 114.38 33.86 115.09 C 27.47 120.47 22.22 127.10 15.82 132.44 C 19.28 128.82 22.76 125.20 26.36 121.70 C 29.40 118.97 31.94 115.63 35.49 113.49 C 35.70 113.06 36.12 112.18 36.33 111.74 Z" />
<path fill="#4e4e55" opacity="1.00" d=" M 131.03 106.60 C 131.26 103.34 135.26 103.58 136.57 101.11 C 137.01 101.65 137.90 102.72 138.35 103.26 C 138.41 103.79 138.54 104.86 138.60 105.39 C 140.77 105.70 143.12 106.81 145.23 105.66 C 146.14 105.57 147.03 105.67 147.92 105.95 C 147.41 107.17 146.91 108.39 146.41 109.61 C 149.23 113.00 151.39 116.94 152.84 121.09 C 154.36 128.76 151.50 136.27 150.83 143.85 C 149.74 148.42 146.87 152.40 144.20 156.19 C 139.93 160.21 135.03 163.66 131.42 168.34 C 131.16 170.56 132.32 172.73 131.97 174.95 C 131.26 176.70 129.92 178.09 128.81 179.58 C 127.45 178.07 126.53 176.25 125.91 174.33 C 130.28 165.62 137.27 158.35 140.01 148.81 C 143.92 149.79 147.57 144.61 144.42 141.71 C 143.86 141.89 142.76 142.24 142.21 142.42 C 141.82 137.32 142.38 132.18 141.68 127.10 C 140.90 120.99 138.52 115.26 137.15 109.28 C 138.44 109.42 139.73 109.56 141.02 109.68 C 139.28 106.10 134.49 105.76 131.03 106.60 Z" />
<path fill="#000000" opacity="1.00" d=" M 45.64 104.24 C 46.50 103.31 47.45 102.48 48.49 101.76 C 48.63 103.28 47.42 105.25 45.70 104.81 L 45.64 104.24 Z" />
<path fill="#fffbc6" opacity="1.00" d=" M 138.35 103.26 C 139.13 102.91 139.92 102.57 140.70 102.22 C 141.35 103.20 142.09 104.13 143.01 104.88 L 143.36 105.77 L 145.23 105.66 C 143.12 106.81 140.77 105.70 138.60 105.39 C 138.54 104.86 138.41 103.79 138.35 103.26 Z" />
<path fill="#221937" opacity="1.00" d=" M 143.01 104.88 C 145.84 102.75 149.05 104.98 152.16 104.45 L 152.69 104.42 C 154.06 106.31 155.95 108.17 155.57 110.71 C 156.45 111.69 157.38 112.64 158.35 113.55 C 159.38 112.03 161.30 113.77 161.49 114.89 C 161.47 115.08 161.42 115.46 161.40 115.65 C 161.48 120.48 165.50 124.43 166.59 129.12 C 165.77 132.19 167.54 135.07 168.10 138.02 C 170.54 148.05 172.24 158.97 168.59 168.92 C 161.89 170.36 155.53 172.99 149.12 175.34 C 147.68 175.75 146.19 176.72 144.66 176.13 C 149.89 166.86 155.77 157.56 157.61 146.87 C 159.47 137.53 158.63 127.87 156.42 118.67 C 155.75 115.17 152.53 113.17 150.38 110.60 C 150.38 109.45 150.37 108.31 150.36 107.17 C 149.55 106.75 148.73 106.35 147.92 105.95 C 147.03 105.67 146.14 105.57 145.23 105.66 L 143.36 105.77 L 143.01 104.88 Z" />
<path fill="#585a5b" opacity="1.00" d=" M 131.03 106.60 C 134.49 105.76 139.28 106.10 141.02 109.68 C 139.73 109.56 138.44 109.42 137.15 109.28 C 138.52 115.26 140.90 120.99 141.68 127.10 C 142.38 132.18 141.82 137.32 142.21 142.42 C 142.00 142.57 141.57 142.88 141.36 143.04 C 139.05 144.12 139.45 146.80 140.01 148.81 C 137.27 158.35 130.28 165.62 125.91 174.33 C 121.78 165.81 117.94 157.15 112.96 149.07 C 110.71 144.99 107.92 141.23 105.70 137.13 C 108.48 135.17 111.36 133.36 114.19 131.46 C 120.51 129.95 127.09 130.35 133.51 129.53 C 134.89 122.90 135.63 116.08 134.39 109.36 C 134.16 109.28 133.70 109.13 133.47 109.05 L 132.44 109.16 C 125.07 110.06 118.19 113.24 111.42 116.11 C 110.62 115.20 109.83 114.29 109.04 113.37 C 116.14 110.44 123.55 108.30 131.03 106.60 M 109.99 136.96 C 108.67 138.38 109.92 141.00 111.97 140.31 C 114.66 139.26 112.24 135.21 109.99 136.96 Z" />
<path fill="#3e3b51" opacity="1.00" d=" M 147.92 105.95 C 148.73 106.35 149.55 106.75 150.36 107.17 C 150.37 108.31 150.38 109.45 150.38 110.60 C 152.53 113.17 155.75 115.17 156.42 118.67 C 158.63 127.87 159.47 137.53 157.61 146.87 C 155.77 157.56 149.89 166.86 144.66 176.13 L 144.44 176.61 C 140.12 178.88 135.43 180.40 130.78 181.79 C 129.45 182.60 128.04 180.56 128.81 179.58 C 129.92 178.09 131.26 176.70 131.97 174.95 C 132.32 172.73 131.16 170.56 131.42 168.34 C 135.03 163.66 139.93 160.21 144.20 156.19 C 146.87 152.40 149.74 148.42 150.83 143.85 C 151.50 136.27 154.36 128.76 152.84 121.09 C 151.39 116.94 149.23 113.00 146.41 109.61 C 146.91 108.39 147.41 107.17 147.92 105.95 Z" />
<path fill="#000000" opacity="1.00" d=" M 111.42 116.11 C 118.19 113.24 125.07 110.06 132.44 109.16 C 126.65 111.23 120.74 112.97 115.09 115.41 C 114.56 115.65 113.50 116.12 112.97 116.36 C 112.48 116.59 111.52 117.05 111.03 117.28 C 110.57 117.53 109.66 118.01 109.20 118.25 C 109.42 117.13 110.16 116.41 111.42 116.11 Z" />
<path fill="#fb3e45" opacity="1.00" d=" M 132.44 109.16 L 133.47 109.05 C 134.08 112.18 134.44 115.37 134.36 118.57 C 129.34 118.88 125.40 124.38 125.72 129.24 C 122.45 129.30 119.19 129.64 115.96 130.12 C 118.04 125.38 118.04 119.80 115.09 115.41 C 120.74 112.97 126.65 111.23 132.44 109.16 Z" />
<path fill="#000000" opacity="1.00" d=" M 133.47 109.05 C 133.70 109.13 134.16 109.28 134.39 109.36 C 135.63 116.08 134.89 122.90 133.51 129.53 C 127.09 130.35 120.51 129.95 114.19 131.46 C 111.87 131.74 109.45 131.95 107.24 131.03 C 108.54 130.96 109.83 130.86 111.12 130.74 C 111.81 130.66 113.19 130.49 113.88 130.41 C 114.40 130.34 115.44 130.20 115.96 130.12 C 119.19 129.64 122.45 129.30 125.72 129.24 C 128.20 129.28 130.67 129.36 133.15 129.25 C 133.71 125.71 134.23 122.15 134.36 118.57 C 134.44 115.37 134.08 112.18 133.47 109.05 Z" />
<path fill="#b8af78" opacity="1.00" d=" M 85.14 109.41 C 87.12 110.54 88.39 112.47 89.70 114.27 C 93.48 119.85 97.37 125.36 100.82 131.17 C 99.16 131.35 97.48 131.32 95.82 131.22 C 92.85 123.66 87.63 117.17 85.14 109.41 Z" />
<path fill="#45444f" opacity="1.00" d=" M 213.21 115.41 C 215.66 114.51 218.33 113.82 219.94 111.57 C 221.36 112.21 222.61 113.14 223.71 114.24 C 221.65 116.23 218.72 116.78 216.03 117.32 C 214.87 117.17 212.62 117.16 213.21 115.41 Z" />
<path fill="#000000" opacity="0.48" d=" M 39.62 115.11 C 38.42 114.17 38.52 113.48 39.92 113.04 C 39.85 113.55 39.70 114.59 39.62 115.11 Z" />
<path fill="#000000" opacity="0.52" d=" M 42.44 113.59 C 42.47 113.54 42.52 113.45 42.55 113.40 C 42.52 113.45 42.47 113.54 42.44 113.59 Z" />
<path fill="#000000" opacity="1.00" d=" M 67.07 114.94 C 68.70 114.39 70.40 114.06 72.12 114.00 C 70.71 115.17 69.18 116.21 67.44 116.84 C 67.35 116.37 67.17 115.42 67.07 114.94 Z" />
<path fill="#767663" opacity="1.00" d=" M 102.01 116.75 C 104.16 115.26 106.65 114.39 109.04 113.37 C 109.83 114.29 110.62 115.20 111.42 116.11 C 110.16 116.41 109.42 117.13 109.20 118.25 L 109.11 118.60 C 108.78 118.81 108.12 119.22 107.78 119.43 C 106.06 120.46 104.47 121.69 102.96 123.00 C 102.95 125.47 103.03 127.94 103.44 130.38 L 103.58 131.43 C 104.36 131.33 105.93 131.13 106.72 131.03 L 107.24 131.03 C 109.45 131.95 111.87 131.74 114.19 131.46 C 111.36 133.36 108.48 135.17 105.70 137.13 C 104.16 135.24 103.31 132.99 102.17 130.88 C 102.04 128.01 100.76 124.93 102.03 122.16 C 103.81 120.07 106.39 118.91 108.32 116.99 C 107.04 117.10 105.76 117.22 104.48 117.34 C 103.86 117.20 102.63 116.90 102.01 116.75 Z" />
<path fill="#fffbc6" opacity="1.00" d=" M 66.89 115.00 L 67.07 114.94 C 67.17 115.42 67.35 116.37 67.44 116.84 L 67.04 117.05 C 64.21 117.42 62.03 119.49 59.53 120.70 C 57.16 121.08 54.77 121.85 52.36 121.34 C 54.03 120.63 55.70 119.94 57.39 119.27 C 57.75 119.14 58.46 118.89 58.81 118.76 C 61.45 118.07 63.96 115.92 66.79 116.63 L 66.89 115.00 Z" />
<path fill="#decfb0" opacity="1.00" d=" M 161.40 115.65 C 161.42 115.46 161.47 115.08 161.49 114.89 C 166.66 118.89 171.06 123.76 175.90 128.13 C 181.42 134.42 186.26 141.15 191.49 147.60 C 191.37 147.95 191.14 148.65 191.03 149.00 C 190.92 148.65 190.70 147.94 190.59 147.58 C 186.61 142.03 182.02 136.95 177.27 132.03 C 176.41 131.41 175.14 131.13 175.40 129.72 C 174.09 129.53 173.40 128.30 172.49 127.51 C 168.79 123.56 164.75 119.92 161.40 115.65 Z" />
<path fill="#251d39" opacity="1.00" d=" M 15.82 132.44 C 22.22 127.10 27.47 120.47 33.86 115.09 C 33.83 115.73 33.78 116.99 33.76 117.63 C 27.04 124.34 21.54 132.10 15.56 139.46 C 13.82 141.40 12.98 143.87 13.11 146.48 C 13.07 146.77 12.99 147.35 12.95 147.63 C 12.17 150.23 14.55 152.37 13.97 155.03 C 13.31 154.39 12.64 153.75 11.96 153.13 C 11.52 154.13 11.21 155.22 11.57 156.31 C 12.70 161.72 15.22 166.69 17.18 171.83 C 19.70 177.98 21.87 184.28 24.74 190.27 C 25.80 192.01 26.58 194.49 28.84 194.93 C 27.63 188.63 23.62 183.10 23.28 176.61 C 28.46 186.10 32.21 196.35 38.46 205.26 C 39.08 205.40 39.70 205.54 40.33 205.69 C 41.26 206.72 42.25 207.70 43.48 208.37 C 47.58 211.29 52.53 208.28 56.94 207.78 C 56.77 208.15 56.42 208.88 56.25 209.25 C 52.82 210.98 49.25 212.42 45.63 213.68 C 43.88 212.55 42.16 213.91 40.57 214.62 C 38.52 215.65 36.41 216.60 34.53 217.92 C 31.71 211.06 28.09 204.56 25.24 197.70 C 20.69 188.55 16.02 179.32 13.51 169.36 C 12.19 164.91 10.04 160.76 8.66 156.33 C 7.75 153.18 4.95 150.81 5.08 147.34 C 7.21 146.74 9.38 146.21 11.40 145.29 C 12.46 143.20 9.31 142.54 8.09 141.66 C 10.71 138.63 12.61 134.91 15.82 132.44 Z" />
<path fill="#fd7552" opacity="1.00" d=" M 112.97 116.36 C 113.50 116.12 114.56 115.65 115.09 115.41 C 118.04 119.80 118.04 125.38 115.96 130.12 C 115.44 130.20 114.40 130.34 113.88 130.41 C 115.87 125.96 116.77 120.15 112.97 116.36 Z" />
<path fill="#383443" opacity="1.00" d=" M 34.41 118.67 C 34.79 117.46 35.50 117.01 36.53 117.32 C 37.79 120.20 38.88 123.23 39.04 126.40 C 36.50 124.54 35.65 121.40 34.41 118.67 Z" />
<path fill="#b3ad72" opacity="1.00" d=" M 95.54 121.03 C 97.60 119.47 99.75 118.01 102.01 116.75 C 102.63 116.90 103.86 117.20 104.48 117.34 C 101.11 118.30 98.73 120.88 97.66 124.15 L 97.35 124.60 C 96.82 123.37 96.21 122.18 95.54 121.03 Z" />
<path fill="#fffffd" opacity="1.00" d=" M 104.48 117.34 C 105.76 117.22 107.04 117.10 108.32 116.99 C 106.39 118.91 103.81 120.07 102.03 122.16 C 100.76 124.93 102.04 128.01 102.17 130.88 C 100.14 129.13 98.98 126.48 97.66 124.15 C 98.73 120.88 101.11 118.30 104.48 117.34 Z" />
<path fill="#ffb768" opacity="1.00" d=" M 111.03 117.28 C 111.52 117.05 112.48 116.59 112.97 116.36 C 116.77 120.15 115.87 125.96 113.88 130.41 C 113.19 130.49 111.81 130.66 111.12 130.74 C 113.45 126.56 114.70 121.14 111.03 117.28 Z" />
<path fill="#fbf287" opacity="1.00" d=" M 109.20 118.25 C 109.66 118.01 110.57 117.53 111.03 117.28 C 114.70 121.14 113.45 126.56 111.12 130.74 C 109.83 130.86 108.54 130.96 107.24 131.03 L 106.72 131.03 C 108.43 129.70 110.40 128.44 111.27 126.35 C 112.36 123.70 112.13 119.85 109.11 118.60 L 109.20 118.25 Z" />
<path fill="#211835" opacity="1.00" d=" M 27.25 126.29 C 29.37 123.51 32.19 121.37 34.41 118.67 C 35.65 121.40 36.50 124.54 39.04 126.40 C 39.27 126.63 39.72 127.07 39.95 127.30 C 39.17 127.74 38.38 128.18 37.58 128.60 C 34.11 127.95 31.47 131.16 28.22 131.89 C 27.88 130.07 26.54 128.13 27.25 126.29 Z" />
<path fill="#ffffc0" opacity="1.00" d=" M 107.78 119.43 C 108.12 119.22 108.78 118.81 109.11 118.60 C 112.13 119.85 112.36 123.70 111.27 126.35 C 110.40 128.44 108.43 129.70 106.72 131.03 C 105.93 131.13 104.36 131.33 103.58 131.43 L 103.44 130.38 C 105.21 128.88 107.38 127.69 108.57 125.63 C 109.37 123.55 108.52 121.38 107.78 119.43 Z" />
<path fill="#e22c58" opacity="1.00" d=" M 125.72 129.24 C 125.40 124.38 129.34 118.88 134.36 118.57 C 134.23 122.15 133.71 125.71 133.15 129.25 C 130.67 129.36 128.20 129.28 125.72 129.24 Z" />
<path fill="#ffffe2" opacity="1.00" d=" M 102.96 123.00 C 104.47 121.69 106.06 120.46 107.78 119.43 C 108.52 121.38 109.37 123.55 108.57 125.63 C 107.38 127.69 105.21 128.88 103.44 130.38 C 103.03 127.94 102.95 125.47 102.96 123.00 Z" />
<path fill="#887d76" opacity="1.00" d=" M 46.56 124.18 C 48.53 123.30 50.38 122.18 52.36 121.34 C 54.77 121.85 57.16 121.08 59.53 120.70 C 57.42 122.87 54.67 124.16 52.04 125.56 C 51.53 125.79 50.53 126.25 50.03 126.49 C 48.48 126.40 47.21 125.60 46.56 124.18 Z" />
<path fill="#504d57" opacity="1.00" d=" M 39.95 127.30 C 42.04 126.01 44.29 125.08 46.56 124.18 C 47.21 125.60 48.48 126.40 50.03 126.49 C 42.77 129.35 35.69 132.63 28.39 135.42 C 28.00 135.07 27.22 134.39 26.83 134.05 C 30.64 132.72 34.00 130.42 37.58 128.60 C 38.38 128.18 39.17 127.74 39.95 127.30 Z" />
<path fill="#6d6c63" opacity="1.00" d=" M 87.69 127.71 C 88.89 126.55 90.08 125.37 91.26 124.18 C 93.94 127.30 94.79 131.54 96.72 135.13 C 96.33 135.21 95.54 135.37 95.15 135.45 C 92.29 133.27 90.29 130.18 87.69 127.71 Z" />
<path fill="#231a36" opacity="1.00" d=" M 50.03 126.49 C 50.53 126.25 51.53 125.79 52.04 125.56 C 51.45 127.62 50.40 129.49 49.21 131.26 C 46.32 135.58 44.72 140.58 42.29 145.14 C 40.89 148.10 39.00 150.87 38.11 154.05 C 38.42 156.16 38.86 158.27 38.79 160.42 C 36.48 161.36 33.20 162.50 33.36 165.56 C 36.57 166.35 39.20 163.96 41.36 161.94 C 42.42 162.95 42.49 164.48 42.91 165.80 C 41.15 166.53 38.94 166.91 38.02 168.80 C 42.05 171.33 46.44 173.19 50.70 175.30 C 56.66 178.15 62.44 181.47 68.82 183.33 C 68.36 184.95 67.82 186.55 67.17 188.11 C 55.50 181.20 42.93 175.79 31.65 168.25 C 28.95 163.80 27.74 158.52 26.31 153.53 C 25.61 151.88 26.72 150.40 27.50 149.03 C 27.11 147.93 26.72 146.84 26.32 145.76 C 29.29 142.18 34.19 140.84 36.90 136.98 C 32.82 139.43 29.22 142.62 25.01 144.88 C 22.46 145.33 17.42 144.81 18.07 148.78 C 20.57 148.54 23.05 148.06 25.51 147.58 C 25.71 147.95 26.11 148.69 26.31 149.06 C 25.79 150.00 25.25 150.92 24.68 151.83 C 23.22 152.57 21.08 153.15 20.88 155.08 C 21.18 157.20 22.01 159.19 22.80 161.16 C 25.81 168.44 28.66 175.79 31.73 183.05 C 34.19 190.41 38.18 197.12 41.01 204.34 C 38.34 203.85 36.83 201.34 35.65 199.13 C 28.40 185.08 22.22 170.50 15.73 156.09 C 14.81 154.60 15.42 152.85 15.31 151.22 C 14.76 149.89 13.76 148.81 12.95 147.63 C 12.99 147.35 13.07 146.77 13.11 146.48 C 13.88 144.29 14.45 141.81 16.47 140.39 C 19.64 137.89 23.01 135.48 26.83 134.05 C 27.22 134.39 28.00 135.07 28.39 135.42 C 35.69 132.63 42.77 129.35 50.03 126.49 Z" />
<path fill="#56595b" opacity="1.00" d=" M 80.89 135.50 C 82.94 132.72 85.18 130.08 87.69 127.71 C 90.29 130.18 92.29 133.27 95.15 135.45 C 95.54 135.37 96.33 135.21 96.72 135.13 C 97.19 136.07 97.51 137.06 97.66 138.09 C 92.18 141.45 86.76 145.65 83.31 151.09 C 83.87 158.20 85.85 165.25 89.16 171.58 C 88.92 171.90 88.45 172.54 88.21 172.85 C 87.48 173.59 86.72 174.30 85.95 175.00 C 86.17 173.42 86.70 171.86 86.61 170.25 C 84.93 168.01 82.29 166.41 81.46 163.60 C 80.04 159.61 78.73 155.59 77.68 151.49 C 77.23 151.54 76.34 151.62 75.89 151.66 C 77.88 146.77 80.52 142.19 82.59 137.34 C 82.16 136.88 81.31 135.96 80.89 135.50 M 85.44 132.08 C 84.38 132.47 82.97 134.82 84.81 135.11 C 86.89 135.45 88.22 130.97 85.44 132.08 Z" />
<path fill="#ff494a" opacity="1.00" d=" M 168.10 138.02 C 167.54 135.07 165.77 132.19 166.59 129.12 C 168.88 135.53 170.85 142.11 171.51 148.91 C 172.54 155.27 172.86 162.10 170.17 168.10 C 169.77 168.31 168.98 168.71 168.59 168.92 C 172.24 158.97 170.54 148.05 168.10 138.02 Z" />
<path fill="#878467" opacity="1.00" d=" M 95.82 131.22 C 97.48 131.32 99.16 131.35 100.82 131.17 C 101.44 132.17 102.09 133.16 102.74 134.17 C 101.21 135.10 99.44 135.32 97.69 135.48 C 97.06 134.06 96.44 132.64 95.82 131.22 Z" />
<path fill="#3d3949" opacity="1.00" d=" M 213.85 131.78 C 214.73 131.71 215.62 131.64 216.50 131.58 C 216.58 133.09 216.65 134.62 216.24 136.10 C 214.35 144.21 211.32 151.98 208.80 159.89 C 208.09 161.88 208.22 164.24 206.87 165.95 C 206.40 164.99 205.97 164.01 205.58 163.02 C 206.91 159.81 207.53 156.38 208.34 153.03 C 209.93 145.88 212.17 138.91 213.85 131.78 Z" />
<path fill="#712122" opacity="1.00" d=" M 85.44 132.08 C 88.22 130.97 86.89 135.45 84.81 135.11 C 82.97 134.82 84.38 132.47 85.44 132.08 Z" />
<path fill="#56595a" opacity="1.00" d=" M 102.74 134.17 C 105.00 137.96 107.41 141.66 109.53 145.53 C 108.94 148.26 109.96 150.88 110.74 153.45 C 109.51 153.67 108.27 153.89 107.04 154.12 C 103.64 148.04 100.37 141.91 97.69 135.48 C 99.44 135.32 101.21 135.10 102.74 134.17 Z" />
<path fill="#6f6c69" opacity="1.00" d=" M 73.40 149.59 C 75.24 144.59 77.52 139.66 80.89 135.50 C 81.31 135.96 82.16 136.88 82.59 137.34 C 80.52 142.19 77.88 146.77 75.89 151.66 C 75.38 153.07 74.92 154.50 74.46 155.94 C 74.15 153.81 73.77 151.70 73.40 149.59 Z" />
<path fill="#000000" opacity="1.00" d=" M 25.01 144.88 C 29.22 142.62 32.82 139.43 36.90 136.98 C 34.19 140.84 29.29 142.18 26.32 145.76 C 26.72 146.84 27.11 147.93 27.50 149.03 C 26.72 150.40 25.61 151.88 26.31 153.53 C 27.74 158.52 28.95 163.80 31.65 168.25 C 42.93 175.79 55.50 181.20 67.17 188.11 C 68.20 188.62 69.25 189.11 70.30 189.58 C 69.78 190.13 69.26 190.68 68.74 191.24 C 68.46 191.66 67.88 192.50 67.59 192.92 C 64.66 196.03 66.35 199.96 67.61 203.39 L 66.73 204.46 C 66.19 202.98 65.66 201.52 65.09 200.06 C 57.74 202.41 50.47 205.10 43.48 208.37 C 42.25 207.70 41.26 206.72 40.33 205.69 C 39.70 205.54 39.08 205.40 38.46 205.26 C 32.21 196.35 28.46 186.10 23.28 176.61 C 20.13 169.44 17.26 162.14 13.97 155.03 C 14.55 152.37 12.17 150.23 12.95 147.63 C 13.76 148.81 14.76 149.89 15.31 151.22 C 15.42 152.85 14.81 154.60 15.73 156.09 C 22.22 170.50 28.40 185.08 35.65 199.13 C 36.83 201.34 38.34 203.85 41.01 204.34 C 41.51 205.21 42.02 206.08 42.54 206.95 C 44.35 206.76 45.96 205.94 47.49 205.00 C 43.88 197.57 39.72 190.40 36.37 182.83 C 32.02 172.68 27.32 162.59 24.68 151.83 C 25.25 150.92 25.79 150.00 26.31 149.06 C 26.11 148.69 25.71 147.95 25.51 147.58 C 25.39 146.91 25.13 145.56 25.01 144.88 M 34.89 172.89 C 39.79 182.43 45.07 191.77 50.05 201.26 C 51.54 200.67 53.30 200.61 54.59 199.60 C 56.62 196.44 58.46 193.16 60.57 190.05 C 52.10 184.20 43.71 178.20 34.89 172.89 M 64.11 191.10 C 62.46 194.17 60.21 197.08 59.52 200.54 C 61.39 200.41 62.94 199.32 64.55 198.48 C 64.81 195.14 66.84 192.59 68.41 189.79 C 66.88 189.54 64.82 189.32 64.11 191.10 Z" />
<path fill="#a0967e" opacity="1.00" d=" M 109.99 136.96 C 112.24 135.21 114.66 139.26 111.97 140.31 C 109.92 141.00 108.67 138.38 109.99 136.96 Z" />
<path fill="#ecd672" opacity="1.00" d=" M 96.02 140.05 C 96.78 139.37 98.20 138.45 98.92 139.72 C 97.23 141.06 95.60 142.48 93.98 143.91 C 92.81 144.76 91.49 145.16 90.04 145.09 C 91.64 143.00 93.95 141.63 96.02 140.05 Z" />
<path fill="#ff785b" opacity="1.00" d=" M 93.98 143.91 C 95.60 142.48 97.23 141.06 98.92 139.72 C 99.31 140.91 99.78 142.08 100.30 143.22 C 99.07 146.41 97.87 150.11 94.48 151.63 C 91.38 153.75 87.76 151.12 84.44 152.24 L 83.85 152.33 C 84.07 151.75 84.50 150.58 84.72 150.00 L 85.15 149.96 C 88.59 149.36 93.30 149.83 95.09 146.11 C 94.81 145.56 94.26 144.46 93.98 143.91 Z" />
<path fill="#423f4c" opacity="1.00" d=" M 8.09 141.66 C 9.31 142.54 12.46 143.20 11.40 145.29 C 9.38 146.21 7.21 146.74 5.08 147.34 C 4.50 144.91 6.95 143.44 8.09 141.66 Z" />
<path fill="#221936" opacity="1.00" d=" M 45.20 141.48 C 48.40 144.24 49.93 148.30 51.95 151.91 C 49.81 152.97 47.68 154.11 45.92 155.77 C 48.51 157.84 53.74 158.88 54.34 154.35 C 54.59 157.17 55.98 159.64 58.03 161.55 C 56.62 161.83 55.12 162.04 54.04 163.08 C 56.21 170.48 63.17 174.92 69.73 178.08 C 71.14 178.75 71.86 180.01 71.85 181.57 C 63.12 177.42 54.94 172.19 46.50 167.48 C 43.11 166.09 43.70 161.63 40.75 159.70 C 40.61 157.68 39.47 155.98 38.88 154.10 C 40.69 149.76 43.05 145.66 45.20 141.48 Z" />
<path fill="#f03e3e" opacity="1.00" d=" M 142.21 142.42 C 142.76 142.24 143.86 141.89 144.42 141.71 C 145.65 144.73 144.12 148.34 140.56 148.38 C 139.81 146.54 140.17 144.60 141.36 143.04 C 141.57 142.88 142.00 142.57 142.21 142.42 Z" />
<path fill="#000000" opacity="1.00" d=" M 144.42 141.71 C 147.57 144.61 143.92 149.79 140.01 148.81 C 139.45 146.80 139.05 144.12 141.36 143.04 C 140.17 144.60 139.81 146.54 140.56 148.38 C 144.12 148.34 145.65 144.73 144.42 141.71 Z" />
<path fill="#ff9e67" opacity="1.00" d=" M 90.04 145.09 C 91.49 145.16 92.81 144.76 93.98 143.91 C 94.26 144.46 94.81 145.56 95.09 146.11 C 93.30 149.83 88.59 149.36 85.15 149.96 C 86.52 148.16 88.05 146.15 90.04 145.09 Z" />
<path fill="#ff494a" opacity="1.00" d=" M 94.48 151.63 C 97.87 150.11 99.07 146.41 100.30 143.22 C 102.28 147.25 104.56 151.12 106.59 155.12 C 101.19 155.66 96.86 159.49 93.16 163.16 C 91.10 165.04 90.86 167.92 90.75 170.53 L 90.71 171.05 C 90.41 170.94 89.82 170.70 89.52 170.58 C 86.83 164.82 84.86 158.60 84.44 152.24 C 87.76 151.12 91.38 153.75 94.48 151.63 Z" />
<path fill="#42404f" opacity="1.00" d=" M 222.77 145.84 C 223.43 145.06 224.18 144.37 225.00 143.76 C 225.97 144.15 226.90 144.62 227.79 145.18 C 229.04 147.50 231.26 150.94 228.36 152.95 C 226.20 150.82 224.51 148.30 222.77 145.84 Z" />
<path fill="#ff494a" opacity="1.00" d=" M 236.39 144.84 C 236.56 144.75 236.90 144.56 237.06 144.47 C 236.08 146.34 234.95 148.16 234.22 150.15 C 233.90 152.08 234.64 153.96 234.82 155.87 C 232.71 156.99 229.81 156.40 228.22 158.39 C 227.89 158.27 227.22 158.04 226.89 157.92 C 227.61 157.33 228.33 156.75 229.06 156.17 C 230.59 156.05 232.28 156.42 233.70 155.66 C 232.30 151.76 234.50 148.11 236.39 144.84 Z" />
<path fill="#383345" opacity="1.00" d=" M 18.07 148.78 C 17.42 144.81 22.46 145.33 25.01 144.88 C 25.13 145.56 25.39 146.91 25.51 147.58 C 23.05 148.06 20.57 148.54 18.07 148.78 Z" />
<path fill="#4c4c53" opacity="1.00" d=" M 109.53 145.53 C 113.22 151.61 116.70 157.84 119.60 164.34 C 121.71 170.08 124.54 175.50 127.25 180.98 C 127.04 181.43 126.62 182.34 126.41 182.79 C 122.75 180.19 121.38 175.44 117.74 172.76 C 114.07 166.61 110.44 160.42 107.04 154.12 C 108.27 153.89 109.51 153.67 110.74 153.45 C 109.96 150.88 108.94 148.26 109.53 145.53 Z" />
<path fill="#3b3747" opacity="1.00" d=" M 191.49 147.60 L 192.66 147.97 C 196.92 152.50 200.19 157.84 203.70 162.95 C 203.31 164.57 201.26 165.50 200.50 163.64 C 198.00 158.33 193.12 154.48 191.03 149.00 C 191.14 148.65 191.37 147.95 191.49 147.60 Z" />
<path fill="#4e4f5a" opacity="1.00" d=" M 220.94 147.46 C 223.21 149.29 224.85 151.72 226.42 154.15 C 224.43 154.95 222.48 156.25 220.25 156.02 C 220.26 155.24 220.27 153.67 220.27 152.89 C 220.30 151.07 220.42 149.22 220.94 147.46 Z" />
<path fill="#4b4b58" opacity="1.00" d=" M 72.82 151.02 C 72.96 150.66 73.26 149.95 73.40 149.59 C 73.77 151.70 74.15 153.81 74.46 155.94 C 74.92 154.50 75.38 153.07 75.89 151.66 C 76.34 151.62 77.23 151.54 77.68 151.49 C 78.73 155.59 80.04 159.61 81.46 163.60 C 82.29 166.41 84.93 168.01 86.61 170.25 C 86.70 171.86 86.17 173.42 85.95 175.00 C 86.72 174.30 87.48 173.59 88.21 172.85 C 89.07 173.01 89.92 173.18 90.77 173.37 C 90.34 173.70 89.49 174.36 89.07 174.69 C 88.78 174.93 88.22 175.40 87.93 175.64 L 87.41 175.92 C 86.26 176.54 85.06 177.07 83.81 177.48 C 81.18 177.26 79.50 174.86 78.03 172.93 C 75.05 169.15 74.42 164.25 73.28 159.72 C 72.55 156.88 72.52 153.92 72.82 151.02 Z" />
<path fill="#241c38" opacity="1.00" d=" M 70.11 170.84 C 69.02 164.17 69.87 157.13 72.82 151.02 C 72.52 153.92 72.55 156.88 73.28 159.72 C 74.42 164.25 75.05 169.15 78.03 172.93 C 79.50 174.86 81.18 177.26 83.81 177.48 C 85.06 177.07 86.26 176.54 87.41 175.92 C 88.20 178.14 85.80 178.51 84.33 179.24 C 82.41 180.01 80.49 180.88 79.06 182.44 C 78.52 181.89 78.04 181.31 77.62 180.67 C 77.32 176.20 72.25 174.38 70.11 170.84 Z" />
<path fill="#4e4e57" opacity="1.00" d=" M 20.88 155.08 C 21.08 153.15 23.22 152.57 24.68 151.83 C 27.32 162.59 32.02 172.68 36.37 182.83 C 36.18 183.31 35.79 184.28 35.59 184.77 C 34.45 183.75 33.46 181.54 31.73 183.05 C 28.66 175.79 25.81 168.44 22.80 161.16 C 22.01 159.19 21.18 157.20 20.88 155.08 Z" />
<path fill="#3e3b4d" opacity="1.00" d=" M 45.92 155.77 C 47.68 154.11 49.81 152.97 51.95 151.91 C 52.73 152.74 53.52 153.55 54.34 154.35 C 53.74 158.88 48.51 157.84 45.92 155.77 Z" />
<path fill="#3b3749" opacity="1.00" d=" M 11.96 153.13 C 12.64 153.75 13.31 154.39 13.97 155.03 C 17.26 162.14 20.13 169.44 23.28 176.61 C 23.62 183.10 27.63 188.63 28.84 194.93 C 26.58 194.49 25.80 192.01 24.74 190.27 C 21.87 184.28 19.70 177.98 17.18 171.83 C 15.22 166.69 12.70 161.72 11.57 156.31 C 11.21 155.22 11.52 154.13 11.96 153.13 Z" />
<path fill="#dc295a" opacity="1.00" d=" M 93.16 163.16 C 96.86 159.49 101.19 155.66 106.59 155.12 C 107.86 157.38 109.11 159.65 110.32 161.94 C 103.71 164.59 97.00 167.08 90.75 170.53 C 90.86 167.92 91.10 165.04 93.16 163.16 Z" />
<path fill="#5a5961" opacity="1.00" d=" M 201.69 156.99 C 202.87 156.10 204.28 155.63 205.66 155.16 C 205.49 157.47 205.57 159.88 204.52 162.02 C 203.48 160.40 202.51 158.73 201.69 156.99 Z" />
<path fill="#ff494a" opacity="1.00" d=" M 218.10 161.20 C 220.37 160.19 222.59 158.79 225.12 158.63 C 222.70 159.57 220.40 160.77 218.11 161.98 L 218.10 161.20 Z" />
<path fill="#403e4f" opacity="1.00" d=" M 33.36 165.56 C 33.20 162.50 36.48 161.36 38.79 160.42 C 39.43 160.80 40.72 161.56 41.36 161.94 C 39.20 163.96 36.57 166.35 33.36 165.56 Z" />
<path fill="#3f3d50" opacity="1.00" d=" M 186.70 163.72 C 188.61 161.90 191.19 160.22 193.95 160.76 C 194.53 162.05 195.54 163.40 194.94 164.90 C 194.04 165.30 193.13 165.69 192.22 166.07 C 191.04 165.50 189.88 164.93 188.71 164.38 C 185.51 169.52 179.44 171.24 174.10 173.24 C 168.82 174.97 163.75 177.43 158.21 178.26 C 149.04 180.50 140.10 183.56 131.03 186.17 C 130.65 185.14 130.31 184.10 129.99 183.05 C 143.59 178.71 156.72 173.00 170.50 169.26 C 175.87 167.31 181.68 166.57 186.70 163.72 Z" />
<path fill="#3b3850" opacity="1.00" d=" M 54.04 163.08 C 55.12 162.04 56.62 161.83 58.03 161.55 C 63.07 166.35 68.55 170.69 73.31 175.79 C 72.12 176.55 70.92 177.31 69.73 178.08 C 63.17 174.92 56.21 170.48 54.04 163.08 Z" />
<path fill="#545659" opacity="1.00" d=" M 91.58 171.17 C 97.67 167.67 104.34 165.34 110.84 162.76 C 113.85 169.12 117.51 175.14 120.45 181.52 C 115.57 184.19 110.32 186.78 104.57 185.83 C 104.61 184.99 104.66 184.16 104.71 183.33 C 103.41 183.71 102.11 184.08 100.82 184.46 C 99.25 181.61 97.14 179.10 94.99 176.68 C 95.40 174.10 93.18 172.70 91.58 171.17 Z" />
<path fill="#3e3a4a" opacity="1.00" d=" M 194.82 167.05 C 195.08 165.61 196.64 165.48 197.75 165.09 C 198.70 165.99 199.88 166.77 200.27 168.11 C 198.45 168.16 195.68 169.40 194.82 167.05 Z" />
<path fill="#454452" opacity="1.00" d=" M 38.02 168.80 C 38.94 166.91 41.15 166.53 42.91 165.80 C 45.28 169.06 49.46 170.07 52.64 172.33 C 58.78 176.36 65.57 179.26 71.79 183.15 C 71.07 184.44 70.34 185.72 69.56 186.97 C 71.39 187.47 71.64 188.34 70.30 189.58 C 69.25 189.11 68.20 188.62 67.17 188.11 C 67.82 186.55 68.36 184.95 68.82 183.33 C 62.44 181.47 56.66 178.15 50.70 175.30 C 46.44 173.19 42.05 171.33 38.02 168.80 Z" />
<path fill="#393647" opacity="1.00" d=" M 200.41 179.31 C 201.89 175.62 203.53 171.81 205.75 168.57 C 206.03 171.45 204.65 174.06 203.70 176.70 C 201.79 181.87 200.01 187.10 198.37 192.38 C 197.61 194.61 197.03 197.40 194.40 198.12 C 195.40 192.56 197.44 187.27 199.40 182.00 C 199.74 181.11 200.09 180.21 200.41 179.31 Z" />
<path fill="#716b69" opacity="1.00" d=" M 88.21 172.85 C 88.45 172.54 88.92 171.90 89.16 171.58 C 89.77 171.48 90.97 171.27 91.58 171.17 C 93.18 172.70 95.40 174.10 94.99 176.68 C 93.60 175.55 92.20 174.44 90.77 173.37 C 89.92 173.18 89.07 173.01 88.21 172.85 Z" />
<path fill="#312b43" opacity="1.00" d=" M 117.74 172.76 C 121.38 175.44 122.75 180.19 126.41 182.79 C 126.62 182.34 127.04 181.43 127.25 180.98 C 127.94 182.29 128.61 183.62 129.32 184.93 C 128.71 185.74 128.11 186.56 127.51 187.38 C 127.96 188.44 128.42 189.51 128.87 190.58 C 126.77 190.83 124.67 191.09 122.57 191.36 C 122.11 190.50 121.64 189.65 121.16 188.81 C 121.67 187.27 122.65 185.81 122.62 184.16 C 121.59 180.12 118.99 176.72 117.74 172.76 Z" />
<path fill="#fffbc6" opacity="1.00" d=" M 87.93 175.64 C 88.22 175.40 88.78 174.93 89.07 174.69 C 90.43 174.33 91.59 174.78 92.53 176.03 C 91.99 176.18 90.91 176.47 90.37 176.62 C 89.76 176.37 88.54 175.88 87.93 175.64 Z" />
<path fill="#5a545c" opacity="1.00" d=" M 69.73 178.08 C 70.92 177.31 72.12 176.55 73.31 175.79 C 74.74 177.18 76.27 178.51 77.32 180.24 C 76.29 181.15 75.25 182.03 74.14 182.84 C 73.57 182.52 72.43 181.89 71.85 181.57 C 71.86 180.01 71.14 178.75 69.73 178.08 Z" />
<path fill="#757162" opacity="1.00" d=" M 87.41 175.92 L 87.93 175.64 C 88.54 175.88 89.76 176.37 90.37 176.62 L 88.78 176.72 C 89.23 177.93 90.18 178.84 91.01 179.81 C 90.38 180.15 89.14 180.84 88.52 181.18 C 89.56 182.92 91.90 184.35 91.50 186.63 C 90.71 191.65 88.25 197.03 83.28 199.09 C 79.78 200.41 76.08 202.17 72.24 201.63 C 69.22 200.00 67.57 196.29 67.59 192.92 C 67.88 192.50 68.46 191.66 68.74 191.24 C 72.11 191.62 71.56 194.99 71.61 197.45 C 74.34 197.48 77.10 197.75 79.81 197.34 C 80.18 196.99 80.90 196.30 81.27 195.96 C 83.49 193.87 86.22 191.51 85.79 188.11 C 86.09 184.70 82.89 179.34 79.06 182.44 C 80.49 180.88 82.41 180.01 84.33 179.24 C 85.80 178.51 88.20 178.14 87.41 175.92 Z" />
<path fill="#464451" opacity="1.00" d=" M 92.53 176.03 C 94.19 177.20 95.61 178.63 96.79 180.29 C 94.91 180.83 93.32 179.49 91.68 178.82 C 93.36 181.44 96.10 183.78 96.32 187.05 C 95.41 191.74 93.37 196.45 89.82 199.72 C 86.86 201.49 83.60 204.26 79.93 203.05 L 79.55 203.85 C 79.23 203.61 78.59 203.13 78.27 202.90 C 78.17 203.42 77.97 204.47 77.87 205.00 C 76.19 205.62 74.69 206.61 73.21 207.59 C 72.27 207.14 71.35 206.69 70.42 206.22 C 70.18 206.00 69.69 205.56 69.45 205.35 C 69.24 205.90 68.82 207.00 68.61 207.55 C 68.49 207.06 68.26 206.07 68.14 205.58 C 68.01 205.03 67.74 203.94 67.61 203.39 C 66.35 199.96 64.66 196.03 67.59 192.92 C 67.57 196.29 69.22 200.00 72.24 201.63 C 76.08 202.17 79.78 200.41 83.28 199.09 C 88.25 197.03 90.71 191.65 91.50 186.63 C 91.90 184.35 89.56 182.92 88.52 181.18 C 89.14 180.84 90.38 180.15 91.01 179.81 C 90.18 178.84 89.23 177.93 88.78 176.72 L 90.37 176.62 C 90.91 176.47 91.99 176.18 92.53 176.03 Z" />
<path fill="#221936" opacity="1.00" d=" M 91.68 178.82 C 93.32 179.49 94.91 180.83 96.79 180.29 C 98.70 182.60 100.22 185.21 101.25 188.03 C 98.16 190.44 98.28 194.41 96.88 197.71 C 94.76 199.42 92.09 200.25 89.81 201.71 C 91.06 201.42 92.32 201.12 93.57 200.81 C 93.66 202.53 92.83 203.49 91.09 203.70 C 91.33 203.71 91.82 203.74 92.06 203.76 C 91.00 204.47 89.94 205.20 88.88 205.92 C 89.06 206.60 89.40 207.97 89.58 208.65 C 91.98 208.71 93.65 206.83 94.78 204.92 C 95.17 205.79 95.51 206.68 95.90 207.56 C 94.87 208.36 93.51 208.89 92.88 210.11 C 92.82 213.82 95.77 216.54 98.03 219.12 C 102.68 224.44 107.14 229.93 111.75 235.29 C 112.47 236.25 113.61 236.67 114.68 237.09 C 115.09 235.68 115.51 234.28 115.83 232.85 C 115.82 234.62 116.07 236.38 116.42 238.12 C 117.76 227.58 119.58 217.10 121.41 206.64 C 122.62 201.65 122.97 196.48 122.57 191.36 C 124.67 191.09 126.77 190.83 128.87 190.58 C 128.42 189.51 127.96 188.44 127.51 187.38 C 128.11 186.56 128.71 185.74 129.32 184.93 C 130.33 186.61 131.46 188.23 132.32 190.01 C 131.84 190.33 130.86 190.97 130.37 191.29 C 130.72 191.64 131.42 192.34 131.77 192.69 C 131.67 194.24 131.59 195.80 131.53 197.36 C 131.37 204.26 131.22 211.16 130.21 218.00 C 129.10 225.62 129.26 233.42 127.31 240.91 C 125.56 243.19 126.72 246.25 125.84 248.82 C 124.66 250.36 123.26 251.71 122.01 253.18 C 121.60 253.04 120.79 252.78 120.38 252.64 C 112.64 247.33 107.54 239.30 101.88 232.01 C 97.13 225.18 94.99 216.78 89.63 210.34 C 87.92 211.64 86.08 213.15 83.77 212.60 C 83.05 210.95 82.20 209.35 81.38 207.75 C 80.78 206.45 80.18 205.14 79.55 203.85 L 79.93 203.05 C 83.60 204.26 86.86 201.49 89.82 199.72 C 93.37 196.45 95.41 191.74 96.32 187.05 C 96.10 183.78 93.36 181.44 91.68 178.82 Z" />
<path fill="#b9b17a" opacity="1.00" d=" M 74.14 182.84 C 75.25 182.03 76.29 181.15 77.32 180.24 L 77.62 180.67 C 78.04 181.31 78.52 181.89 79.06 182.44 C 82.89 179.34 86.09 184.70 85.79 188.11 C 86.22 191.51 83.49 193.87 81.27 195.96 C 81.32 191.97 75.42 193.45 77.99 196.88 C 78.45 196.99 79.36 197.22 79.81 197.34 C 77.10 197.75 74.34 197.48 71.61 197.45 C 71.56 194.99 72.11 191.62 68.74 191.24 C 69.26 190.68 69.78 190.13 70.30 189.58 C 71.64 188.34 71.39 187.47 69.56 186.97 C 70.34 185.72 71.07 184.44 71.79 183.15 C 72.52 183.48 73.27 183.80 74.02 184.11 C 72.92 185.21 71.80 186.29 70.59 187.28 L 71.85 188.01 C 72.61 189.17 73.28 190.38 73.95 191.60 C 77.95 191.50 82.58 188.77 83.80 184.85 C 83.64 181.32 79.43 182.69 77.22 183.03 C 77.24 182.79 77.29 182.31 77.32 182.07 C 76.29 182.45 75.23 182.71 74.14 182.84 Z" />
<path fill="#ff494a" opacity="1.00" d=" M 165.87 181.25 C 166.12 180.90 166.62 180.22 166.87 179.88 C 166.56 182.94 164.64 185.47 162.99 187.95 C 159.72 192.30 156.08 196.75 151.02 199.06 C 156.67 193.82 162.86 188.52 165.87 181.25 Z" />
<path fill="#231a37" opacity="1.00" d=" M 159.11 182.26 C 161.31 181.69 163.55 180.87 165.87 181.25 C 162.86 188.52 156.67 193.82 151.02 199.06 C 149.39 199.69 147.62 199.19 145.98 198.93 C 141.62 197.99 137.15 198.55 132.75 198.34 C 132.51 195.75 132.43 192.98 133.53 190.58 C 141.91 187.41 150.43 184.56 159.11 182.26 Z" />
<path fill="#060509" opacity="1.00" d=" M 189.55 197.65 C 192.75 192.10 195.54 186.32 198.81 180.82 L 199.40 182.00 C 197.44 187.27 195.40 192.56 194.40 198.12 C 193.82 200.08 192.93 201.99 191.18 203.16 C 189.15 202.85 187.18 203.36 186.30 205.41 C 186.34 202.50 188.41 200.20 189.55 197.65 M 191.27 199.77 C 193.15 198.66 193.14 196.05 193.63 194.14 C 192.32 195.56 189.90 197.76 191.27 199.77 Z" />
<path fill="#424156" opacity="1.00" d=" M 31.73 183.05 C 33.46 181.54 34.45 183.75 35.59 184.77 C 35.79 184.28 36.18 183.31 36.37 182.83 C 39.72 190.40 43.88 197.57 47.49 205.00 C 45.96 205.94 44.35 206.76 42.54 206.95 C 42.02 206.08 41.51 205.21 41.01 204.34 C 38.18 197.12 34.19 190.41 31.73 183.05 Z" />
<path fill="#322c42" opacity="1.00" d=" M 104.57 185.83 C 110.32 186.78 115.57 184.19 120.45 181.52 C 120.77 182.23 121.41 183.65 121.73 184.36 C 116.29 187.20 109.84 187.43 103.94 189.00 C 101.40 189.68 101.73 185.97 100.82 184.46 C 102.11 184.08 103.41 183.71 104.71 183.33 C 104.66 184.16 104.61 184.99 104.57 185.83 Z" />
<path fill="#fffff0" opacity="1.00" d=" M 77.22 183.03 C 79.43 182.69 83.64 181.32 83.80 184.85 C 82.58 188.77 77.95 191.50 73.95 191.60 C 73.28 190.38 72.61 189.17 71.85 188.01 C 73.55 186.25 75.44 184.70 77.22 183.03 Z" />
<path fill="#424150" opacity="1.00" d=" M 100.42 190.43 C 107.10 189.36 113.83 188.45 120.35 186.57 C 120.32 187.50 120.25 189.36 120.22 190.29 C 115.16 192.56 109.69 193.89 104.12 193.81 C 103.44 193.35 102.77 192.89 102.10 192.44 C 101.68 192.79 100.84 193.48 100.42 193.83 C 100.07 193.85 99.36 193.90 99.00 193.92 C 99.29 192.70 99.26 191.23 100.42 190.43 Z" />
<path fill="#312a43" opacity="1.00" d=" M 64.11 191.10 C 64.82 189.32 66.88 189.54 68.41 189.79 C 66.84 192.59 64.81 195.14 64.55 198.48 C 62.94 199.32 61.39 200.41 59.52 200.54 C 60.21 197.08 62.46 194.17 64.11 191.10 Z" />
<path fill="#251d39" opacity="1.00" d=" M 120.22 190.29 L 120.70 190.09 C 121.40 191.37 121.59 192.70 121.28 194.09 C 114.63 195.61 107.82 195.70 101.08 194.67 L 100.42 193.83 C 100.84 193.48 101.68 192.79 102.10 192.44 C 102.77 192.89 103.44 193.35 104.12 193.81 C 109.69 193.89 115.16 192.56 120.22 190.29 Z" />
<path fill="#ff494a" opacity="1.00" d=" M 130.37 191.29 C 130.86 190.97 131.84 190.33 132.32 190.01 C 132.28 192.47 132.10 194.95 131.53 197.36 C 131.59 195.80 131.67 194.24 131.77 192.69 C 131.42 192.34 130.72 191.64 130.37 191.29 Z" />
<path fill="#ff494a" opacity="1.00" d=" M 202.84 211.80 C 204.90 204.82 207.32 197.93 208.99 190.84 C 209.18 191.38 209.56 192.45 209.75 192.98 C 208.33 200.56 205.02 207.60 202.80 214.96 C 202.52 216.54 201.28 217.03 199.82 216.56 C 201.05 215.13 202.38 213.68 202.84 211.80 Z" />
<path fill="#f3ecad" opacity="1.00" d=" M 77.99 196.88 C 75.42 193.45 81.32 191.97 81.27 195.96 C 80.90 196.30 80.18 196.99 79.81 197.34 C 79.36 197.22 78.45 196.99 77.99 196.88 Z" />
<path fill="#28203b" opacity="1.00" d=" M 100.41 197.93 C 102.34 194.43 106.89 196.70 110.07 196.66 C 109.06 198.36 107.89 199.94 106.67 201.49 C 104.39 200.83 101.39 200.44 100.41 197.93 Z" />
<path fill="#3c394b" opacity="1.00" d=" M 110.07 196.66 C 113.88 197.04 117.67 197.63 121.50 197.81 C 121.73 199.97 121.28 202.10 120.88 204.21 C 117.98 203.65 115.05 203.22 112.10 202.96 C 110.20 202.84 108.38 202.30 106.67 201.49 C 107.89 199.94 109.06 198.36 110.07 196.66 Z" />
<path fill="#2b233e" opacity="1.00" d=" M 96.31 205.64 C 93.28 203.76 94.15 198.73 97.99 198.83 C 100.47 200.26 103.04 201.53 105.79 202.37 C 104.90 203.14 104.11 204.00 103.42 204.94 C 107.62 209.28 113.79 210.57 119.06 213.14 C 118.87 214.39 118.70 215.64 118.55 216.90 C 111.02 213.38 104.04 208.71 96.31 205.64 Z" />
<path fill="#4c4b55" opacity="1.00" d=" M 132.62 199.11 C 140.40 199.61 148.19 200.14 155.99 200.46 C 162.07 200.82 168.07 202.04 174.15 202.27 C 173.21 204.81 171.73 207.12 170.10 209.27 C 161.42 207.93 152.67 207.12 143.97 205.96 C 140.20 205.29 136.23 206.76 132.61 205.26 C 132.62 203.46 132.60 201.67 132.63 199.88 L 132.62 199.11 Z" />
<path fill="#3c3a51" opacity="1.00" d=" M 43.48 208.37 C 50.47 205.10 57.74 202.41 65.09 200.06 C 65.66 201.52 66.19 202.98 66.73 204.46 C 66.44 204.79 65.87 205.44 65.58 205.77 C 63.97 204.02 61.38 206.32 59.46 206.48 C 59.13 206.12 58.45 205.41 58.12 205.05 L 57.87 205.68 C 57.64 206.21 57.17 207.26 56.94 207.78 C 52.53 208.28 47.58 211.29 43.48 208.37 Z" />
<path fill="#201734" opacity="1.00" d=" M 132.61 208.32 C 131.41 205.75 131.71 202.55 132.63 199.88 C 132.60 201.67 132.62 203.46 132.61 205.26 C 136.23 206.76 140.20 205.29 143.97 205.96 C 152.67 207.12 161.42 207.93 170.10 209.27 C 169.34 210.86 168.56 212.44 167.79 214.02 C 158.83 212.84 149.90 210.81 140.94 209.39 C 138.10 210.00 135.29 209.25 132.61 208.32 Z" />
<path fill="#ffffc0" opacity="1.00" d=" M 78.27 202.90 C 78.59 203.13 79.23 203.61 79.55 203.85 C 80.18 205.14 80.78 206.45 81.38 207.75 C 78.80 208.07 79.14 211.03 79.43 212.89 C 78.79 213.70 78.15 214.52 77.53 215.34 C 77.13 211.89 77.14 208.39 77.87 205.00 C 77.97 204.47 78.17 203.42 78.27 202.90 Z" />
<path fill="#4c4b53" opacity="1.00" d=" M 103.42 204.94 C 104.11 204.00 104.90 203.14 105.79 202.37 C 107.46 203.04 109.15 203.69 110.80 204.41 C 112.76 205.27 114.74 206.10 116.82 206.63 C 117.52 206.84 118.91 207.26 119.61 207.47 C 120.49 209.15 119.53 211.39 119.06 213.14 C 113.79 210.57 107.62 209.28 103.42 204.94 Z" />
<path fill="#201a2e" opacity="1.00" d=" M 112.10 202.96 C 115.05 203.22 117.98 203.65 120.88 204.21 C 120.69 204.72 120.31 205.75 120.12 206.26 C 119.02 206.43 117.92 206.56 116.82 206.63 C 114.74 206.10 112.76 205.27 110.80 204.41 C 111.13 204.05 111.78 203.32 112.10 202.96 Z" />
<path fill="#3a364b" opacity="1.00" d=" M 186.30 205.41 C 187.18 203.36 189.15 202.85 191.18 203.16 C 190.67 205.00 190.38 206.93 189.57 208.67 C 188.60 210.29 186.42 209.87 184.86 210.18 C 185.36 208.59 185.89 207.02 186.30 205.41 Z" />
<path fill="#ffffc0" opacity="1.00" d=" M 66.73 204.46 L 67.61 203.39 C 67.74 203.94 68.01 205.03 68.14 205.58 C 67.16 206.97 66.40 208.49 65.74 210.05 C 65.43 209.71 64.82 209.03 64.52 208.69 C 64.07 209.00 63.19 209.64 62.74 209.96 C 63.56 208.48 64.45 207.03 65.58 205.77 C 65.87 205.44 66.44 204.79 66.73 204.46 Z" />
<path fill="#312c46" opacity="1.00" d=" M 92.06 203.76 C 92.56 203.80 93.55 203.89 94.05 203.93 L 94.78 204.92 C 93.65 206.83 91.98 208.71 89.58 208.65 C 89.40 207.97 89.06 206.60 88.88 205.92 C 89.94 205.20 91.00 204.47 92.06 203.76 Z" />
<path fill="#ffffc0" opacity="1.00" d=" M 58.12 205.05 C 58.45 205.41 59.13 206.12 59.46 206.48 C 60.82 208.25 61.89 210.23 63.38 211.91 C 63.41 212.02 63.45 212.24 63.47 212.35 L 62.10 212.34 C 62.34 213.27 62.82 215.15 63.06 216.09 C 62.73 215.75 62.07 215.07 61.74 214.73 L 61.66 213.51 C 60.88 212.70 60.08 211.92 59.30 211.12 C 58.79 209.31 58.30 207.50 57.87 205.68 L 58.12 205.05 Z" />
<path fill="#412e1b" opacity="1.00" d=" M 59.46 206.48 C 61.38 206.32 63.97 204.02 65.58 205.77 C 64.45 207.03 63.56 208.48 62.74 209.96 C 63.19 209.64 64.07 209.00 64.52 208.69 C 64.82 209.03 65.43 209.71 65.74 210.05 C 66.40 208.49 67.16 206.97 68.14 205.58 C 68.26 206.07 68.49 207.06 68.61 207.55 L 68.84 208.43 C 69.12 209.45 69.71 210.80 70.89 210.99 C 71.23 209.73 71.16 208.47 70.67 207.23 L 70.42 206.22 C 71.35 206.69 72.27 207.14 73.21 207.59 C 74.69 206.61 76.19 205.62 77.87 205.00 C 77.14 208.39 77.13 211.89 77.53 215.34 C 77.74 216.84 78.02 218.34 78.28 219.85 L 77.28 219.87 C 77.08 219.53 76.69 218.85 76.49 218.51 C 75.47 218.57 74.46 218.66 73.45 218.77 C 73.86 218.34 74.67 217.46 75.08 217.02 C 74.91 216.33 74.55 214.94 74.37 214.24 C 73.77 212.51 73.73 210.34 72.22 209.11 C 71.51 211.75 70.78 214.43 70.91 217.19 C 70.93 217.65 70.98 218.57 71.00 219.03 C 68.77 217.26 65.87 216.73 63.56 215.10 C 63.54 214.41 63.49 213.04 63.47 212.35 C 63.45 212.24 63.41 212.02 63.38 211.91 C 61.89 210.23 60.82 208.25 59.46 206.48 M 66.87 209.05 C 66.83 210.77 66.87 212.49 66.87 214.21 C 65.98 216.68 71.07 217.20 70.16 214.42 C 69.60 212.51 69.72 208.67 66.87 209.05 M 74.87 210.04 C 74.49 211.28 74.64 212.51 75.30 213.72 C 76.59 213.49 76.47 209.95 74.87 210.04 Z" />
<path fill="#ffffe2" opacity="1.00" d=" M 68.61 207.55 C 68.82 207.00 69.24 205.90 69.45 205.35 C 69.69 205.56 70.18 206.00 70.42 206.22 L 70.67 207.23 C 70.21 207.53 69.29 208.13 68.84 208.43 L 68.61 207.55 Z" />
<path fill="#ffb768" opacity="1.00" d=" M 68.84 208.43 C 69.29 208.13 70.21 207.53 70.67 207.23 C 71.16 208.47 71.23 209.73 70.89 210.99 C 69.71 210.80 69.12 209.45 68.84 208.43 Z" />
<path fill="#ffb768" opacity="1.00" d=" M 79.43 212.89 C 79.14 211.03 78.80 208.07 81.38 207.75 C 81.86 209.73 80.73 211.52 79.43 212.89 Z" />
<path fill="#c4663a" opacity="1.00" d=" M 81.38 207.75 C 82.20 209.35 83.05 210.95 83.77 212.60 C 84.10 214.17 83.31 215.61 82.63 216.97 C 81.28 218.05 80.10 219.61 78.28 219.85 C 78.02 218.34 77.74 216.84 77.53 215.34 C 78.15 214.52 78.79 213.70 79.43 212.89 C 80.73 211.52 81.86 209.73 81.38 207.75 Z" />
<path fill="#373249" opacity="1.00" d=" M 92.88 210.11 C 93.51 208.89 94.87 208.36 95.90 207.56 C 96.97 209.73 98.50 211.62 100.00 213.51 C 99.34 215.38 98.68 217.25 98.03 219.12 C 95.77 216.54 92.82 213.82 92.88 210.11 Z" />
<path fill="#f1d97d" opacity="1.00" d=" M 66.87 209.05 C 69.72 208.67 69.60 212.51 70.16 214.42 C 69.34 214.37 67.70 214.26 66.87 214.21 C 66.87 212.49 66.83 210.77 66.87 209.05 Z" />
<path fill="#221835" opacity="1.00" d=" M 42.96 216.08 C 47.98 214.00 53.02 211.98 58.06 209.93 C 58.29 210.92 58.77 212.90 59.01 213.89 C 55.73 216.64 54.30 220.92 51.87 224.37 C 50.41 223.71 49.01 221.59 47.29 222.33 C 45.57 220.47 44.19 218.30 42.96 216.08 Z" />
<path fill="#e5bb6b" opacity="1.00" d=" M 72.22 209.11 C 73.73 210.34 73.77 212.51 74.37 214.24 C 73.20 215.20 72.03 216.17 70.91 217.19 C 70.78 214.43 71.51 211.75 72.22 209.11 Z" />
<path fill="#c36a3b" opacity="1.00" d=" M 74.87 210.04 C 76.47 209.95 76.59 213.49 75.30 213.72 C 74.64 212.51 74.49 211.28 74.87 210.04 Z" />
<path fill="#ff494a" opacity="1.00" d=" M 59.30 211.12 C 60.08 211.92 60.88 212.70 61.66 213.51 L 61.74 214.73 C 61.14 214.58 59.93 214.28 59.33 214.14 C 56.34 218.00 54.23 222.47 51.09 226.23 C 49.81 224.95 48.52 223.67 47.29 222.33 C 49.01 221.59 50.41 223.71 51.87 224.37 C 54.30 220.92 55.73 216.64 59.01 213.89 L 59.95 213.46 C 59.78 212.87 59.46 211.70 59.30 211.12 Z" />
<path fill="#ff494a" opacity="1.00" d=" M 40.57 214.62 C 42.16 213.91 43.88 212.55 45.63 213.68 C 41.97 215.16 38.50 217.38 34.53 217.92 C 36.41 216.60 38.52 215.65 40.57 214.62 Z" />
<path fill="#3d394a" opacity="1.00" d=" M 62.10 212.34 L 63.47 212.35 C 63.49 213.04 63.54 214.41 63.56 215.10 C 65.87 216.73 68.77 217.26 71.00 219.03 C 71.61 218.97 72.83 218.84 73.45 218.77 C 74.46 218.66 75.47 218.57 76.49 218.51 C 76.69 218.85 77.08 219.53 77.28 219.87 C 77.35 220.73 77.42 221.60 77.48 222.47 C 77.11 222.80 76.37 223.46 76.00 223.79 C 72.24 224.12 68.59 223.21 64.99 222.26 C 64.98 221.00 64.38 220.22 63.19 219.93 C 63.68 218.67 63.50 217.34 63.06 216.09 C 62.82 215.15 62.34 213.27 62.10 212.34 Z" />
<path fill="#241d3b" opacity="1.00" d=" M 82.63 216.97 C 84.41 215.47 85.66 213.19 88.17 212.85 C 88.34 214.38 88.50 215.92 88.64 217.46 C 87.85 218.31 87.33 219.30 87.09 220.43 C 86.99 220.77 86.79 221.43 86.69 221.76 C 85.14 223.00 83.37 223.91 81.51 224.59 C 79.89 223.43 77.86 223.80 76.00 223.79 C 76.37 223.46 77.11 222.80 77.48 222.47 C 77.42 221.60 77.35 220.73 77.28 219.87 L 78.28 219.85 C 80.10 219.61 81.28 218.05 82.63 216.97 Z" />
<path fill="#d98649" opacity="1.00" d=" M 66.87 214.21 C 67.70 214.26 69.34 214.37 70.16 214.42 C 71.07 217.20 65.98 216.68 66.87 214.21 Z" />
<path fill="#ff494a" opacity="1.00" d=" M 88.64 217.46 C 89.54 216.31 89.61 214.54 91.00 213.82 C 91.14 216.69 88.41 218.22 87.09 220.43 C 87.33 219.30 87.85 218.31 88.64 217.46 Z" />
<path fill="#484653" opacity="1.00" d=" M 98.03 219.12 C 98.68 217.25 99.34 215.38 100.00 213.51 C 104.55 220.05 110.48 225.36 115.95 231.08 C 115.92 231.53 115.86 232.41 115.83 232.85 C 115.51 234.28 115.09 235.68 114.68 237.09 C 113.61 236.67 112.47 236.25 111.75 235.29 C 107.14 229.93 102.68 224.44 98.03 219.12 Z" />
<path fill="#413f52" opacity="1.00" d=" M 131.57 213.44 C 135.63 213.97 138.96 216.80 142.77 218.19 C 148.35 221.09 154.37 222.97 160.09 225.53 C 160.51 225.80 161.37 226.34 161.80 226.62 C 161.50 229.34 158.37 228.84 156.42 228.41 C 147.58 225.97 139.51 221.50 131.05 218.05 C 131.18 216.51 131.34 214.97 131.57 213.44 Z" />
<path fill="#d98045" opacity="1.00" d=" M 70.91 217.19 C 72.03 216.17 73.20 215.20 74.37 214.24 C 74.55 214.94 74.91 216.33 75.08 217.02 C 74.67 217.46 73.86 218.34 73.45 218.77 C 72.83 218.84 71.61 218.97 71.00 219.03 C 70.98 218.57 70.93 217.65 70.91 217.19 Z" />
<path fill="#995433" opacity="1.00" d=" M 63.19 219.93 C 64.38 220.22 64.98 221.00 64.99 222.26 C 63.41 222.19 62.81 221.41 63.19 219.93 Z" />
<path fill="#434152" opacity="1.00" d=" M 162.47 224.02 C 161.07 221.78 164.07 220.61 165.59 219.77 C 165.77 223.03 168.01 227.16 165.48 229.92 C 164.41 227.99 163.37 226.04 162.47 224.02 Z" />
<path fill="#ff494a" opacity="1.00" d=" M 81.51 224.59 C 83.37 223.91 85.14 223.00 86.69 221.76 C 86.49 224.14 83.70 226.46 81.51 224.59 Z" />
<path fill="#ffb768" opacity="1.00" d=" M 66.93 223.82 C 68.38 223.74 69.75 224.34 71.13 224.68 C 70.59 225.69 70.05 226.70 69.50 227.71 C 68.29 226.66 67.23 225.45 66.93 223.82 Z" />
<path fill="#ff494a" opacity="1.00" d=" M 173.35 224.63 C 173.62 224.59 174.14 224.53 174.41 224.50 C 171.77 229.33 168.74 234.21 164.69 237.95 C 166.70 232.98 170.71 229.23 173.35 224.63 Z" />
<path fill="#e22c58" opacity="1.00" d=" M 71.13 224.68 C 71.99 224.73 73.72 224.82 74.58 224.87 C 73.82 225.93 73.05 227.01 72.29 228.08 C 72.94 228.18 74.25 228.36 74.90 228.46 C 73.08 228.55 71.09 228.85 69.50 227.71 C 70.05 226.70 70.59 225.69 71.13 224.68 Z" />
<path fill="#a71151" opacity="1.00" d=" M 74.58 224.87 C 75.26 224.84 76.62 224.78 77.31 224.75 C 78.46 226.60 75.79 227.36 74.90 228.46 C 74.25 228.36 72.94 228.18 72.29 228.08 C 73.05 227.01 73.82 225.93 74.58 224.87 Z" />
<path fill="#ff785b" opacity="1.00" d=" M 78.21 224.93 C 80.51 224.88 80.40 227.52 80.56 229.11 C 80.09 228.64 79.68 228.14 79.19 227.70 L 78.26 227.58 C 78.24 226.92 78.22 225.59 78.21 224.93 Z" />
<path fill="#ffffc0" opacity="1.00" d=" M 79.19 227.70 C 79.68 228.14 80.09 228.64 80.56 229.11 C 81.43 231.30 81.77 233.66 82.70 235.83 C 81.12 233.36 79.30 230.71 79.19 227.70 Z" />
<path fill="#ff494a" opacity="1.00" d=" M 125.84 248.82 C 126.72 246.25 125.56 243.19 127.31 240.91 C 127.25 243.63 127.24 246.35 127.25 249.08 C 125.57 250.52 123.87 251.96 122.01 253.18 C 123.26 251.71 124.66 250.36 125.84 248.82 Z" />
</svg>
