<?xml version="1.0" encoding="UTF-8" ?>
<!DOCTYPE svg PUBLIC "-//W3C//DTD SVG 1.1//EN" "http://www.w3.org/Graphics/SVG/1.1/DTD/svg11.dtd">
<svg width="142pt" height="108pt" viewBox="0 0 142 108" version="1.1" xmlns="http://www.w3.org/2000/svg">
<path fill="#000000" opacity="1.00" d=" M 77.69 3.72 C 81.05 1.90 84.71 0.70 88.55 0.47 C 88.44 3.27 88.30 6.08 88.19 8.88 C 92.52 12.05 97.45 15.06 99.81 20.10 C 101.26 23.26 102.52 26.55 103.10 29.99 C 103.87 35.52 102.38 41.03 100.74 46.28 C 110.22 58.97 120.04 71.51 131.30 82.69 C 134.93 86.50 139.75 89.35 142.00 94.29 L 142.00 94.94 C 139.10 93.94 136.02 93.29 133.39 91.65 C 123.36 85.25 114.27 77.47 105.89 69.06 C 111.63 78.42 118.41 87.11 126.08 94.98 C 128.66 97.46 130.24 100.72 131.52 104.02 C 125.71 103.45 120.98 99.82 116.24 96.77 C 113.49 94.99 111.01 92.86 108.59 90.67 C 111.46 96.40 114.68 101.99 116.93 108.00 L 116.42 108.00 C 112.72 106.04 108.40 104.88 105.62 101.54 C 96.10 90.55 87.55 78.59 81.77 65.19 C 77.12 67.26 71.34 64.98 67.42 68.70 C 69.65 75.13 72.14 81.48 75.42 87.45 C 78.74 93.93 82.69 100.15 85.04 107.08 C 78.31 103.84 72.27 99.08 68.08 92.86 C 65.26 94.35 62.31 95.77 59.09 96.01 C 51.92 96.76 44.67 96.79 37.49 96.25 C 35.39 95.86 32.22 95.83 31.95 93.06 C 33.19 90.78 35.90 90.13 38.14 89.27 C 46.33 86.65 54.69 84.41 63.22 83.23 C 60.72 78.09 58.82 72.65 58.23 66.93 C 57.12 70.87 56.10 75.14 52.97 78.03 C 47.59 83.11 41.02 87.01 33.89 89.04 C 34.52 83.64 36.89 78.66 39.71 74.08 C 37.77 74.33 35.82 74.52 33.87 74.71 C 33.38 79.96 31.01 84.81 27.87 88.98 C 25.90 86.60 26.36 83.41 26.17 80.56 C 24.24 82.45 22.58 86.17 19.44 85.66 C 18.36 84.17 17.70 82.44 16.95 80.78 C 12.02 85.61 6.68 90.61 0.00 92.80 L 0.00 92.15 C 1.68 88.31 4.46 85.14 6.67 81.62 C 6.96 83.17 7.24 84.72 7.52 86.27 C 10.50 84.04 13.81 82.03 15.96 78.92 C 16.29 76.55 15.86 74.16 15.75 71.79 C 16.37 68.53 16.57 64.70 19.30 62.39 C 21.48 60.33 24.03 58.16 24.55 55.02 C 24.15 52.49 22.82 50.22 21.77 47.92 C 20.19 50.82 19.14 53.97 18.35 57.17 C 16.50 64.58 13.43 71.63 9.72 78.29 L 8.46 78.45 C 11.64 71.12 15.13 63.87 17.21 56.13 C 18.37 52.38 18.57 48.08 21.47 45.14 C 21.34 41.73 20.97 38.31 21.22 34.90 C 21.10 33.72 21.62 33.03 22.78 32.83 C 24.24 34.23 25.46 35.85 26.73 37.41 C 26.25 32.38 25.96 27.32 26.35 22.27 C 30.97 21.69 34.07 25.79 36.96 28.71 C 38.41 22.73 41.45 17.08 46.06 12.94 C 52.13 7.13 60.75 4.79 68.97 4.66 C 71.88 4.51 75.04 5.30 77.69 3.72 M 79.16 5.84 C 80.56 6.25 81.98 6.56 83.40 6.93 C 84.04 7.19 85.32 7.71 85.97 7.97 C 86.07 6.15 86.13 4.34 86.13 2.52 L 85.57 3.41 C 83.36 4.03 81.23 4.86 79.16 5.84 M 55.00 10.09 C 51.80 13.18 50.01 17.54 48.62 21.71 C 56.50 17.04 64.50 12.52 72.92 8.88 C 72.45 8.57 71.52 7.93 71.06 7.61 C 65.64 7.37 60.04 8.02 55.00 10.09 M 74.58 7.74 C 74.82 8.24 75.29 9.24 75.53 9.74 C 71.32 13.04 66.01 14.23 61.41 16.81 C 58.17 18.30 54.91 19.82 51.97 21.85 C 50.68 22.42 50.40 23.73 50.15 24.96 C 48.66 25.32 47.25 25.88 45.92 26.65 C 34.94 29.04 26.95 40.60 28.46 51.80 C 30.75 50.77 33.11 49.91 35.52 49.21 L 35.25 50.84 C 33.59 51.55 31.98 52.42 30.58 53.57 C 25.71 55.46 23.69 60.98 22.88 65.76 C 25.80 72.61 34.95 73.31 41.31 71.39 C 41.89 70.55 42.47 69.70 43.05 68.86 C 41.28 69.35 39.52 69.87 37.77 70.40 C 36.65 69.47 35.57 68.52 34.44 67.62 C 35.01 64.14 37.85 62.02 40.15 59.67 C 41.69 59.78 43.29 59.69 44.76 60.22 C 46.97 62.04 44.94 65.06 44.71 67.31 C 47.14 65.07 51.40 63.02 50.27 59.02 C 50.29 56.15 47.72 54.77 45.40 53.89 C 42.53 52.86 39.63 51.87 36.62 51.38 L 37.18 50.98 L 35.41 50.76 C 35.78 50.43 36.53 49.76 36.90 49.43 C 40.14 49.87 43.14 51.36 46.36 51.82 C 47.91 52.90 49.56 53.87 50.92 55.20 C 52.31 56.95 51.76 59.62 53.37 61.27 C 53.99 59.91 54.45 58.46 55.26 57.19 C 57.35 55.90 59.77 55.24 61.94 54.11 C 62.57 54.80 63.20 55.48 63.84 56.16 C 64.96 55.53 66.07 54.88 67.22 54.30 C 69.04 56.22 72.68 52.94 70.23 51.19 C 71.22 50.19 72.24 49.23 73.16 48.16 C 75.43 45.69 74.61 42.02 75.30 38.97 C 75.68 40.34 76.07 41.71 76.45 43.08 C 79.19 39.35 80.73 34.96 82.26 30.64 C 83.76 31.22 84.70 32.58 85.77 33.71 C 87.33 32.52 88.47 30.06 90.68 30.28 C 92.21 32.58 93.41 35.09 94.97 37.39 C 96.64 34.66 98.58 32.03 99.67 29.00 C 98.80 25.08 97.39 21.10 94.74 18.00 C 89.36 12.42 82.29 8.76 74.58 7.74 M 39.67 26.81 C 42.21 25.56 44.94 24.78 47.69 24.15 C 47.64 19.86 49.14 15.85 50.84 11.98 C 45.30 15.25 42.00 21.01 39.67 26.81 M 28.01 23.75 C 28.06 28.21 28.00 32.74 29.21 37.07 C 30.87 34.60 32.62 32.18 34.60 29.95 C 32.48 27.83 31.05 24.69 28.01 23.75 M 87.08 36.12 C 89.70 41.64 92.79 46.92 95.58 52.36 C 98.15 56.67 100.59 61.27 104.70 64.33 C 108.52 67.27 110.92 71.92 115.42 73.96 C 119.42 79.18 124.85 83.03 130.08 86.92 C 132.70 88.83 135.17 91.03 138.21 92.26 C 136.08 89.25 132.90 87.27 130.29 84.74 C 121.03 76.11 113.08 66.18 105.40 56.17 L 105.55 55.75 C 100.55 48.17 93.97 41.70 89.83 33.53 C 88.91 34.39 88.01 35.27 87.08 36.12 M 80.49 38.56 C 78.54 43.20 75.42 47.27 73.89 52.10 C 75.08 51.30 76.53 50.70 77.21 49.36 C 79.87 47.45 82.12 45.05 84.69 43.02 C 87.61 50.30 91.60 57.07 94.72 64.26 C 97.92 70.37 100.66 76.77 104.52 82.50 C 109.50 88.20 114.78 94.32 122.06 97.03 C 123.96 98.73 126.13 100.09 128.36 101.30 C 128.24 99.02 126.07 97.78 124.70 96.24 C 116.56 88.56 110.24 79.27 103.78 70.20 C 100.70 65.87 98.41 61.05 95.38 56.69 C 94.11 53.47 91.85 50.77 90.38 47.65 C 88.22 43.23 86.06 38.81 83.50 34.61 C 81.65 35.10 81.27 37.11 80.49 38.56 M 23.37 35.85 C 23.66 41.68 23.26 48.28 26.80 53.25 C 25.92 50.20 25.45 47.05 26.47 43.97 C 27.74 40.78 25.41 38.02 23.37 35.85 M 82.87 46.68 L 82.63 47.34 C 76.98 51.54 71.48 55.93 65.29 59.34 L 64.58 59.22 C 65.22 61.16 65.82 63.11 66.41 65.06 C 71.51 62.74 74.54 57.56 79.52 55.01 C 82.18 60.76 85.46 66.21 88.09 71.98 C 90.98 78.27 95.04 83.95 99.47 89.24 C 103.76 94.53 107.58 100.37 113.07 104.51 C 113.16 100.60 110.06 97.90 108.26 94.76 C 107.33 93.41 106.72 91.81 105.50 90.69 C 102.61 83.32 97.50 77.05 94.61 69.67 C 92.93 63.81 90.09 58.34 86.68 53.31 C 86.36 50.71 84.52 48.60 82.87 46.68 M 60.59 56.64 C 60.23 61.67 60.22 66.93 62.16 71.67 C 62.28 76.34 64.70 80.45 66.42 84.66 C 69.14 91.67 73.82 97.94 80.15 102.07 C 79.92 97.86 76.74 94.67 75.10 90.96 C 73.70 88.64 73.25 85.64 71.16 83.80 C 67.25 75.52 65.21 66.56 62.21 57.96 C 61.81 57.63 61.00 56.97 60.59 56.64 M 36.46 68.42 C 40.09 68.39 44.13 66.26 43.91 62.15 C 39.82 60.38 35.33 64.03 36.46 68.42 M 18.66 79.88 C 18.84 81.39 19.70 82.66 20.37 83.99 C 22.77 80.35 25.59 76.58 25.87 72.07 C 25.49 71.24 25.05 70.45 24.55 69.69 C 23.48 69.14 22.42 68.59 21.36 68.02 C 21.38 66.24 21.37 64.45 21.31 62.67 C 16.84 67.00 17.50 74.29 18.66 79.88 M 46.00 68.98 C 43.00 72.38 40.05 76.03 38.58 80.39 L 37.91 80.75 C 37.24 82.81 36.46 84.83 35.62 86.83 C 37.32 86.00 39.14 85.31 40.56 84.03 C 44.55 82.55 47.88 79.77 51.04 76.99 C 55.26 73.19 55.84 67.16 57.01 61.94 C 56.47 62.10 55.38 62.41 54.84 62.57 C 51.16 63.47 48.55 66.38 46.00 68.98 M 27.94 73.17 C 27.51 76.88 27.66 80.62 28.19 84.31 C 29.97 81.44 31.47 78.35 32.16 75.03 C 31.40 73.60 29.30 73.81 27.94 73.17 Z" />
<path fill="#ffe35d" opacity="1.00" d=" M 79.16 5.84 C 81.23 4.86 83.36 4.03 85.57 3.41 C 84.83 4.57 84.12 5.75 83.40 6.93 C 81.98 6.56 80.56 6.25 79.16 5.84 Z" />
<path fill="#a9243f" opacity="1.00" d=" M 85.57 3.41 L 86.13 2.52 C 86.13 4.34 86.07 6.15 85.97 7.97 C 85.32 7.71 84.04 7.19 83.40 6.93 C 84.12 5.75 84.83 4.57 85.57 3.41 Z" />
<path fill="#ff2c63" opacity="1.00" d=" M 55.00 10.09 C 60.04 8.02 65.64 7.37 71.06 7.61 C 71.52 7.93 72.45 8.57 72.92 8.88 C 64.50 12.52 56.50 17.04 48.62 21.71 C 50.01 17.54 51.80 13.18 55.00 10.09 Z" />
<path fill="#1f1c29" opacity="1.00" d=" M 74.58 7.74 C 82.29 8.76 89.36 12.42 94.74 18.00 C 93.48 19.58 92.73 21.93 90.62 22.58 C 87.07 23.75 83.32 24.04 79.62 24.36 C 78.25 22.72 76.54 21.38 74.46 20.78 C 77.38 19.80 80.33 18.94 83.28 18.07 C 81.72 14.44 78.72 11.91 75.53 9.74 C 75.29 9.24 74.82 8.24 74.58 7.74 Z" />
<path fill="#3a3341" opacity="1.00" d=" M 75.53 9.74 C 78.72 11.91 81.72 14.44 83.28 18.07 C 80.33 18.94 77.38 19.80 74.46 20.78 C 69.95 20.08 65.45 19.02 61.41 16.81 C 66.01 14.23 71.32 13.04 75.53 9.74 Z" />
<path fill="#403946" opacity="1.00" d=" M 39.67 26.81 C 42.00 21.01 45.30 15.25 50.84 11.98 C 49.14 15.85 47.64 19.86 47.69 24.15 C 44.94 24.78 42.21 25.56 39.67 26.81 Z" />
<path fill="#463e4c" opacity="1.00" d=" M 51.97 21.85 C 54.91 19.82 58.17 18.30 61.41 16.81 C 65.45 19.02 69.95 20.08 74.46 20.78 C 76.54 21.38 78.25 22.72 79.62 24.36 C 78.79 25.19 77.98 26.03 77.18 26.88 C 73.79 26.40 70.37 26.54 66.96 26.67 C 62.35 25.75 57.86 22.73 53.03 24.33 C 52.06 24.49 51.10 24.74 50.15 24.96 C 50.40 23.73 50.68 22.42 51.97 21.85 Z" />
<path fill="#110f1a" opacity="1.00" d=" M 94.74 18.00 C 97.39 21.10 98.80 25.08 99.67 29.00 C 98.58 32.03 96.64 34.66 94.97 37.39 C 93.41 35.09 92.21 32.58 90.68 30.28 C 88.47 30.06 87.33 32.52 85.77 33.71 C 84.70 32.58 83.76 31.22 82.26 30.64 C 80.40 30.28 78.33 29.61 76.55 30.60 C 74.92 31.44 74.25 33.30 73.23 34.71 C 72.59 33.86 71.95 33.01 71.32 32.16 L 71.62 31.69 C 73.64 30.29 75.58 28.77 77.18 26.88 C 77.98 26.03 78.79 25.19 79.62 24.36 C 83.32 24.04 87.07 23.75 90.62 22.58 C 92.73 21.93 93.48 19.58 94.74 18.00 Z" />
<path fill="#2b2633" opacity="1.00" d=" M 28.01 23.75 C 31.05 24.69 32.48 27.83 34.60 29.95 C 32.62 32.18 30.87 34.60 29.21 37.07 C 28.00 32.74 28.06 28.21 28.01 23.75 M 29.28 26.41 C 28.53 27.80 28.26 30.68 29.64 31.56 C 30.37 30.17 30.78 27.22 29.28 26.41 Z" />
<path fill="#c3b992" opacity="1.00" d=" M 50.15 24.96 C 51.10 24.74 52.06 24.49 53.03 24.33 C 53.77 24.79 55.24 25.72 55.97 26.18 C 52.76 27.49 49.24 27.47 45.92 26.65 C 47.25 25.88 48.66 25.32 50.15 24.96 Z" />
<path fill="#100e14" opacity="1.00" d=" M 53.03 24.33 C 57.86 22.73 62.35 25.75 66.96 26.67 C 67.21 27.29 67.69 28.53 67.93 29.15 C 64.16 27.44 60.24 25.62 55.98 26.18 L 55.97 26.18 C 55.24 25.72 53.77 24.79 53.03 24.33 Z" />
<path fill="#473f4c" opacity="1.00" d=" M 29.28 26.41 C 30.78 27.22 30.37 30.17 29.64 31.56 C 28.26 30.68 28.53 27.80 29.28 26.41 Z" />
<path fill="#504754" opacity="1.00" d=" M 28.46 51.80 C 26.95 40.60 34.94 29.04 45.92 26.65 C 49.24 27.47 52.76 27.49 55.97 26.18 L 55.98 26.18 C 58.92 28.49 62.23 31.18 62.69 35.16 C 63.30 38.83 60.52 41.79 57.94 43.96 C 54.32 46.91 50.28 49.29 46.36 51.82 C 43.14 51.36 40.14 49.87 36.90 49.43 C 36.53 49.76 35.78 50.43 35.41 50.76 L 35.25 50.84 L 35.52 49.21 C 33.11 49.91 30.75 50.77 28.46 51.80 M 40.29 33.35 C 37.47 34.55 35.15 38.60 37.73 41.15 C 41.45 44.51 48.42 39.19 46.42 34.65 C 45.35 32.31 42.26 31.98 40.29 33.35 Z" />
<path fill="#292333" opacity="1.00" d=" M 55.98 26.18 C 60.24 25.62 64.16 27.44 67.93 29.15 C 67.69 28.53 67.21 27.29 66.96 26.67 C 70.37 26.54 73.79 26.40 77.18 26.88 C 75.58 28.77 73.64 30.29 71.62 31.69 L 71.32 32.16 C 68.29 38.79 61.85 42.95 58.27 49.21 C 59.22 51.03 60.60 52.57 61.94 54.11 C 59.77 55.24 57.35 55.90 55.26 57.19 C 54.45 58.46 53.99 59.91 53.37 61.27 C 51.76 59.62 52.31 56.95 50.92 55.20 C 49.56 53.87 47.91 52.90 46.36 51.82 C 50.28 49.29 54.32 46.91 57.94 43.96 C 60.52 41.79 63.30 38.83 62.69 35.16 C 62.23 31.18 58.92 28.49 55.98 26.18 Z" />
<path fill="#1a1623" opacity="1.00" d=" M 76.55 30.60 C 78.33 29.61 80.40 30.28 82.26 30.64 C 80.73 34.96 79.19 39.35 76.45 43.08 C 76.07 41.71 75.68 40.34 75.30 38.97 C 74.61 42.02 75.43 45.69 73.16 48.16 C 72.24 49.23 71.22 50.19 70.23 51.19 C 69.23 52.23 68.20 53.24 67.22 54.30 C 66.07 54.88 64.96 55.53 63.84 56.16 C 63.20 55.48 62.57 54.80 61.94 54.11 C 60.60 52.57 59.22 51.03 58.27 49.21 C 61.85 42.95 68.29 38.79 71.32 32.16 C 71.95 33.01 72.59 33.86 73.23 34.71 C 74.25 33.30 74.92 31.44 76.55 30.60 Z" />
<path fill="#000000" opacity="1.00" d=" M 40.29 33.35 C 42.26 31.98 45.35 32.31 46.42 34.65 C 48.42 39.19 41.45 44.51 37.73 41.15 C 35.15 38.60 37.47 34.55 40.29 33.35 M 38.74 40.37 C 42.48 42.14 46.60 36.23 43.06 33.60 C 40.48 34.61 35.72 37.19 38.74 40.37 Z" />
<path fill="#ff2c63" opacity="1.00" d=" M 38.74 40.37 C 35.72 37.19 40.48 34.61 43.06 33.60 C 46.60 36.23 42.48 42.14 38.74 40.37 Z" />
<path fill="#181621" opacity="1.00" d=" M 87.08 36.12 C 88.01 35.27 88.91 34.39 89.83 33.53 C 93.97 41.70 100.55 48.17 105.55 55.75 L 105.40 56.17 C 105.24 56.60 104.91 57.48 104.75 57.92 C 107.98 63.48 112.10 68.46 115.42 73.96 C 110.92 71.92 108.52 67.27 104.70 64.33 C 100.59 61.27 98.15 56.67 95.58 52.36 C 92.79 46.92 89.70 41.64 87.08 36.12 Z" />
<path fill="#3a333f" opacity="1.00" d=" M 80.49 38.56 C 81.27 37.11 81.65 35.10 83.50 34.61 C 82.46 39.92 79.70 44.63 77.21 49.36 C 76.53 50.70 75.08 51.30 73.89 52.10 C 75.42 47.27 78.54 43.20 80.49 38.56 Z" />
<path fill="#211d2b" opacity="1.00" d=" M 83.50 34.61 C 86.06 38.81 88.22 43.23 90.38 47.65 C 91.85 50.77 94.11 53.47 95.38 56.69 C 98.67 66.19 103.45 75.32 110.07 82.94 C 113.67 87.96 117.37 92.95 122.06 97.03 C 114.78 94.32 109.50 88.20 104.52 82.50 C 100.66 76.77 97.92 70.37 94.72 64.26 C 91.60 57.07 87.61 50.30 84.69 43.02 C 82.12 45.05 79.87 47.45 77.21 49.36 C 79.70 44.63 82.46 39.92 83.50 34.61 Z" />
<path fill="#473f4d" opacity="1.00" d=" M 23.37 35.85 C 25.41 38.02 27.74 40.78 26.47 43.97 C 25.45 47.05 25.92 50.20 26.80 53.25 C 23.26 48.28 23.66 41.68 23.37 35.85 Z" />
<path fill="#231f2d" opacity="1.00" d=" M 82.87 46.68 C 84.52 48.60 86.36 50.71 86.68 53.31 C 86.39 56.39 86.31 59.55 87.48 62.47 C 90.26 70.67 94.31 78.51 99.60 85.36 C 99.56 86.66 99.51 87.95 99.47 89.24 C 95.04 83.95 90.98 78.27 88.09 71.98 C 85.46 66.21 82.18 60.76 79.52 55.01 C 74.54 57.56 71.51 62.74 66.41 65.06 C 65.82 63.11 65.22 61.16 64.58 59.22 L 65.29 59.34 C 68.90 60.52 71.86 57.43 74.69 55.69 C 77.63 53.29 81.54 51.26 82.63 47.34 L 82.87 46.68 Z" />
<path fill="#3d3642" opacity="1.00" d=" M 65.29 59.34 C 71.48 55.93 76.98 51.54 82.63 47.34 C 81.54 51.26 77.63 53.29 74.69 55.69 C 71.86 57.43 68.90 60.52 65.29 59.34 Z" />
<path fill="#322c3a" opacity="1.00" d=" M 18.35 57.17 C 19.14 53.97 20.19 50.82 21.77 47.92 C 22.82 50.22 24.15 52.49 24.55 55.02 C 24.03 58.16 21.48 60.33 19.30 62.39 C 16.57 64.70 16.37 68.53 15.75 71.79 C 13.96 74.00 12.75 77.66 9.72 78.29 C 13.43 71.63 16.50 64.58 18.35 57.17 Z" />
<path fill="#ffe35d" opacity="1.00" d=" M 30.58 53.57 C 31.98 52.42 33.59 51.55 35.25 50.84 L 35.41 50.76 L 37.18 50.98 L 36.62 51.38 C 34.94 52.90 32.74 53.33 30.58 53.57 Z" />
<path fill="#4b4451" opacity="1.00" d=" M 30.58 53.57 C 32.74 53.33 34.94 52.90 36.62 51.38 C 39.63 51.87 42.53 52.86 45.40 53.89 C 45.23 55.49 45.06 57.09 44.89 58.69 C 43.31 59.04 41.73 59.33 40.15 59.67 C 37.85 62.02 35.01 64.14 34.44 67.62 C 30.50 67.71 26.65 66.82 22.88 65.76 C 23.69 60.98 25.71 55.46 30.58 53.57 M 26.08 61.08 C 25.75 63.75 29.04 64.56 31.02 63.74 C 34.49 62.05 36.15 56.45 32.15 54.36 C 29.12 55.41 26.81 57.95 26.08 61.08 Z" />
<path fill="#ff2c63" opacity="1.00" d=" M 67.22 54.30 C 68.20 53.24 69.23 52.23 70.23 51.19 C 72.68 52.94 69.04 56.22 67.22 54.30 Z" />
<path fill="#272231" opacity="1.00" d=" M 45.40 53.89 C 47.72 54.77 50.29 56.15 50.27 59.02 C 51.40 63.02 47.14 65.07 44.71 67.31 C 44.94 65.06 46.97 62.04 44.76 60.22 C 43.29 59.69 41.69 59.78 40.15 59.67 C 41.73 59.33 43.31 59.04 44.89 58.69 C 45.06 57.09 45.23 55.49 45.40 53.89 Z" />
<path fill="#423b49" opacity="1.00" d=" M 87.48 62.47 C 86.31 59.55 86.39 56.39 86.68 53.31 C 90.09 58.34 92.93 63.81 94.61 69.67 C 97.50 77.05 102.61 83.32 105.50 90.69 C 103.34 89.14 101.32 87.40 99.60 85.36 C 94.31 78.51 90.26 70.67 87.48 62.47 Z" />
<path fill="#000000" opacity="1.00" d=" M 26.08 61.08 C 26.81 57.95 29.12 55.41 32.15 54.36 C 36.15 56.45 34.49 62.05 31.02 63.74 C 29.04 64.56 25.75 63.75 26.08 61.08 M 27.59 62.64 C 31.33 63.66 35.36 57.79 30.82 56.06 C 28.95 57.79 27.34 59.93 27.59 62.64 Z" />
<path fill="#ff2c63" opacity="1.00" d=" M 27.59 62.64 C 27.34 59.93 28.95 57.79 30.82 56.06 C 35.36 57.79 31.33 63.66 27.59 62.64 Z" />
<path fill="#36303d" opacity="1.00" d=" M 60.59 56.64 C 61.00 56.97 61.81 57.63 62.21 57.96 C 65.21 66.56 67.25 75.52 71.16 83.80 C 66.89 80.89 64.56 76.08 62.16 71.67 C 60.22 66.93 60.23 61.67 60.59 56.64 Z" />
<path fill="#553148" opacity="1.00" d=" M 110.07 82.94 C 103.45 75.32 98.67 66.19 95.38 56.69 C 98.41 61.05 100.70 65.87 103.78 70.20 C 110.24 79.27 116.56 88.56 124.70 96.24 C 126.07 97.78 128.24 99.02 128.36 101.30 C 126.13 100.09 123.96 98.73 122.06 97.03 C 117.37 92.95 113.67 87.96 110.07 82.94 Z" />
<path fill="#5a4153" opacity="1.00" d=" M 104.75 57.92 C 104.91 57.48 105.24 56.60 105.40 56.17 C 113.08 66.18 121.03 76.11 130.29 84.74 C 132.90 87.27 136.08 89.25 138.21 92.26 C 135.17 91.03 132.70 88.83 130.08 86.92 C 124.85 83.03 119.42 79.18 115.42 73.96 C 112.10 68.46 107.98 63.48 104.75 57.92 Z" />
<path fill="#ff2c63" opacity="1.00" d=" M 36.46 68.42 C 35.33 64.03 39.82 60.38 43.91 62.15 C 44.13 66.26 40.09 68.39 36.46 68.42 Z" />
<path fill="#ffe35d" opacity="1.00" d=" M 18.66 79.88 C 17.50 74.29 16.84 67.00 21.31 62.67 C 21.37 64.45 21.38 66.24 21.36 68.02 C 22.42 68.59 23.48 69.14 24.55 69.69 C 22.35 72.92 19.83 76.08 18.66 79.88 Z" />
<path fill="#ffe05c" opacity="1.00" d=" M 46.00 68.98 C 48.55 66.38 51.16 63.47 54.84 62.57 C 54.14 67.29 51.98 71.59 48.40 74.76 C 45.09 76.58 41.90 78.60 38.58 80.39 C 40.05 76.03 43.00 72.38 46.00 68.98 Z" />
<path fill="#a9243f" opacity="1.00" d=" M 54.84 62.57 C 55.38 62.41 56.47 62.10 57.01 61.94 C 55.84 67.16 55.26 73.19 51.04 76.99 C 47.88 79.77 44.55 82.55 40.56 84.03 C 43.21 80.98 45.93 77.97 48.40 74.76 C 51.98 71.59 54.14 67.29 54.84 62.57 Z" />
<path fill="#25202e" opacity="1.00" d=" M 22.88 65.76 C 26.65 66.82 30.50 67.71 34.44 67.62 C 35.57 68.52 36.65 69.47 37.77 70.40 C 39.52 69.87 41.28 69.35 43.05 68.86 C 42.47 69.70 41.89 70.55 41.31 71.39 C 34.95 73.31 25.80 72.61 22.88 65.76 Z" />
<path fill="#ba4448" opacity="1.00" d=" M 24.55 69.69 C 25.05 70.45 25.49 71.24 25.87 72.07 C 25.59 76.58 22.77 80.35 20.37 83.99 C 19.70 82.66 18.84 81.39 18.66 79.88 C 19.83 76.08 22.35 72.92 24.55 69.69 Z" />
<path fill="#191521" opacity="1.00" d=" M 9.72 78.29 C 12.75 77.66 13.96 74.00 15.75 71.79 C 15.86 74.16 16.29 76.55 15.96 78.92 C 13.81 82.03 10.50 84.04 7.52 86.27 C 7.24 84.72 6.96 83.17 6.67 81.62 C 7.30 80.58 7.89 79.52 8.46 78.45 L 9.72 78.29 Z" />
<path fill="#13101c" opacity="1.00" d=" M 62.16 71.67 C 64.56 76.08 66.89 80.89 71.16 83.80 C 73.25 85.64 73.70 88.64 75.10 90.96 C 76.74 94.67 79.92 97.86 80.15 102.07 C 73.82 97.94 69.14 91.67 66.42 84.66 C 64.70 80.45 62.28 76.34 62.16 71.67 Z" />
<path fill="#15131e" opacity="1.00" d=" M 27.94 73.17 C 29.30 73.81 31.40 73.60 32.16 75.03 C 31.47 78.35 29.97 81.44 28.19 84.31 C 27.66 80.62 27.51 76.88 27.94 73.17 Z" />
<path fill="#db8e55" opacity="1.00" d=" M 38.58 80.39 C 41.90 78.60 45.09 76.58 48.40 74.76 C 45.93 77.97 43.21 80.98 40.56 84.03 C 39.14 85.31 37.32 86.00 35.62 86.83 C 36.46 84.83 37.24 82.81 37.91 80.75 L 38.58 80.39 Z" />
<path fill="#553148" opacity="1.00" d=" M 99.47 89.24 C 99.51 87.95 99.56 86.66 99.60 85.36 C 101.32 87.40 103.34 89.14 105.50 90.69 C 106.72 91.81 107.33 93.41 108.26 94.76 C 110.06 97.90 113.16 100.60 113.07 104.51 C 107.58 100.37 103.76 94.53 99.47 89.24 Z" />
</svg>
