<?xml version="1.0" encoding="UTF-8" ?>
<!DOCTYPE svg PUBLIC "-//W3C//DTD SVG 1.1//EN" "http://www.w3.org/Graphics/SVG/1.1/DTD/svg11.dtd">
<svg width="139pt" height="100pt" viewBox="0 0 139 100" version="1.1" xmlns="http://www.w3.org/2000/svg">
<path fill="#000000" opacity="1.00" d=" M 64.20 0.00 L 64.81 0.00 C 67.54 2.90 68.95 6.69 71.26 9.87 C 79.27 11.81 87.34 14.09 94.27 18.73 C 103.29 24.85 112.14 31.47 119.20 39.86 C 121.12 41.78 122.68 44.69 125.74 44.75 C 130.15 45.33 134.52 46.47 139.00 46.40 L 139.00 46.40 C 136.73 50.64 134.20 54.79 132.62 59.36 C 131.66 63.47 133.06 67.76 132.10 71.88 C 126.29 76.70 118.65 78.31 111.72 80.86 C 105.05 83.39 98.01 84.65 91.01 85.85 C 97.14 86.43 103.54 87.10 109.03 90.07 C 111.68 92.54 108.10 95.12 105.71 95.63 C 95.78 98.67 85.29 99.20 74.99 99.80 C 56.12 99.93 36.00 101.06 18.73 92.18 C 20.96 90.62 23.36 89.34 25.89 88.35 C 20.16 85.72 14.29 82.79 9.98 78.06 C 7.71 75.78 8.98 72.19 7.34 69.62 C 4.71 65.44 2.42 61.07 0.00 56.77 L 0.00 56.46 C 3.66 56.61 7.32 56.91 10.96 57.32 C 14.01 48.04 18.87 39.44 24.76 31.67 C 31.16 23.34 39.43 16.15 49.44 12.56 C 55.90 10.46 58.71 3.56 64.20 0.00 M 64.48 1.74 L 64.45 2.21 C 61.32 4.43 58.70 7.28 56.38 10.32 C 58.96 10.09 61.49 9.50 64.06 9.14 C 65.52 9.13 66.99 9.13 68.46 9.11 C 67.58 6.46 66.92 3.44 64.48 1.74 M 34.92 23.83 C 28.65 29.74 22.55 36.26 19.00 44.20 C 17.90 50.48 14.20 55.91 13.05 62.20 C 14.15 62.90 15.94 63.02 16.39 64.45 C 17.28 66.68 16.16 68.96 15.38 71.04 C 14.08 72.03 12.78 73.01 11.48 74.00 C 11.53 74.77 11.62 76.30 11.67 77.07 C 17.63 82.89 25.70 85.54 33.58 87.56 C 32.60 85.58 31.58 83.53 29.74 82.21 C 25.89 79.23 23.34 74.99 21.42 70.59 C 19.78 65.26 18.63 59.50 20.10 53.99 C 23.22 44.73 29.82 36.61 38.80 32.48 C 40.27 31.64 41.72 30.78 43.19 29.92 C 45.94 28.75 48.80 27.03 51.91 27.74 C 62.25 29.88 72.32 34.09 80.11 41.39 C 82.47 43.55 84.75 45.79 87.10 47.96 C 91.82 53.02 96.03 58.62 99.05 64.87 C 100.52 68.01 100.77 71.91 98.93 74.95 C 97.13 78.13 93.88 80.01 90.88 81.89 C 97.79 80.98 104.47 78.94 111.22 77.28 C 116.93 75.55 122.85 74.04 127.98 70.90 C 129.89 70.07 129.48 67.79 129.32 66.12 C 128.01 55.02 121.84 45.02 114.01 37.27 C 112.91 35.60 111.19 34.47 109.61 33.30 C 103.42 27.68 96.64 22.55 89.08 18.91 C 80.48 14.40 70.81 11.07 60.97 11.95 C 51.52 13.60 41.81 16.85 34.92 23.83 M 51.15 30.07 C 50.41 32.63 49.56 35.16 48.72 37.69 C 54.51 37.95 59.93 40.12 65.24 42.26 C 66.43 39.86 68.29 35.55 64.90 34.12 C 60.59 32.06 56.03 30.01 51.15 30.07 M 31.20 41.24 C 29.02 43.22 29.04 46.63 30.70 48.93 C 34.27 44.98 38.28 41.35 43.01 38.84 C 46.26 37.39 46.92 33.57 48.14 30.60 C 42.50 34.15 36.05 36.54 31.20 41.24 M 67.70 43.17 C 72.97 46.11 79.51 48.30 81.98 54.35 C 83.70 54.06 85.54 53.99 87.07 53.06 C 82.21 46.85 75.95 41.79 69.57 37.18 C 69.00 39.19 68.40 41.20 67.70 43.17 M 46.80 40.20 L 47.46 40.42 C 43.55 40.58 39.86 42.53 36.84 44.91 C 31.45 50.40 29.66 58.53 30.28 66.02 C 30.45 73.32 33.68 79.99 36.45 86.58 C 39.84 88.34 43.33 90.00 47.10 90.78 C 54.56 90.83 63.39 93.28 69.55 87.73 C 75.23 83.52 77.16 76.35 77.63 69.64 C 79.10 64.59 79.00 59.21 78.52 54.02 C 78.46 51.69 76.22 50.51 74.56 49.32 C 70.90 47.02 67.04 44.82 62.72 44.10 C 57.59 42.34 52.41 39.15 46.80 40.20 M 124.98 46.46 C 125.61 48.25 126.36 50.00 127.07 51.76 C 128.02 54.18 128.88 56.64 129.74 59.09 C 131.67 55.23 133.95 51.56 135.83 47.68 C 135.10 47.59 133.63 47.41 132.90 47.32 L 131.19 47.86 C 130.41 46.47 129.39 46.36 128.12 47.56 C 127.08 47.16 126.04 46.79 124.98 46.46 M 23.20 65.06 C 24.30 64.48 25.40 63.89 26.50 63.29 C 26.52 59.09 27.33 54.92 29.14 51.11 C 28.36 49.71 27.58 48.32 26.79 46.93 C 23.19 52.23 21.63 58.78 23.20 65.06 M 81.49 57.44 C 81.88 60.07 80.69 63.80 83.52 65.39 C 87.64 67.59 92.36 68.35 96.96 68.86 C 95.20 63.94 92.37 59.54 89.51 55.22 C 87.04 56.57 84.36 57.63 81.49 57.44 M 3.15 58.32 C 4.03 59.77 4.95 61.18 5.86 62.61 C 6.90 63.92 7.95 65.22 8.99 66.53 C 9.33 64.49 9.65 62.44 9.97 60.40 L 11.04 59.80 C 8.65 58.40 5.81 58.60 3.15 58.32 M 10.11 68.13 C 10.35 69.70 9.53 72.54 11.98 72.55 C 13.09 71.56 13.58 70.13 14.21 68.85 C 14.51 67.12 15.67 64.23 13.14 63.74 C 11.49 64.66 10.62 66.38 10.11 68.13 M 23.82 67.93 C 25.05 70.74 25.93 73.87 28.35 75.95 C 27.81 72.91 27.17 69.89 26.65 66.86 C 25.71 67.21 24.76 67.57 23.82 67.93 M 81.10 67.83 C 80.76 70.05 80.41 72.26 80.10 74.47 C 83.41 75.82 86.71 77.20 90.06 78.45 C 92.66 76.86 95.01 74.88 96.70 72.32 C 91.24 71.90 85.89 70.50 81.10 67.83 M 78.69 80.00 C 80.76 80.01 82.83 80.00 84.89 79.95 C 83.22 78.76 81.49 77.65 79.73 76.59 C 79.38 77.72 79.04 78.86 78.69 80.00 Z" />
<path fill="#c61074" opacity="1.00" d=" M 64.48 1.74 C 66.92 3.44 67.58 6.46 68.46 9.11 C 66.99 9.13 65.52 9.13 64.06 9.14 C 64.19 6.83 64.31 4.52 64.45 2.21 L 64.48 1.74 Z" />
<path fill="#ffe15c" opacity="1.00" d=" M 56.38 10.32 C 58.70 7.28 61.32 4.43 64.45 2.21 C 64.31 4.52 64.19 6.83 64.06 9.14 C 61.49 9.50 58.96 10.09 56.38 10.32 Z" />
<path fill="#f23b85" opacity="1.00" d=" M 34.92 23.83 C 41.81 16.85 51.52 13.60 60.97 11.95 C 70.81 11.07 80.48 14.40 89.08 18.91 C 96.64 22.55 103.42 27.68 109.61 33.30 C 110.92 35.65 112.05 38.11 113.16 40.57 C 108.33 39.89 103.36 40.28 99.30 43.26 C 92.88 42.91 86.83 40.65 80.68 38.97 C 80.49 39.77 80.30 40.58 80.11 41.39 C 72.32 34.09 62.25 29.88 51.91 27.74 C 48.80 27.03 45.94 28.75 43.19 29.92 C 42.16 28.57 41.13 27.23 40.09 25.90 C 39.12 26.68 38.19 27.51 37.30 28.39 C 36.81 29.97 38.13 31.20 38.80 32.48 C 29.82 36.61 23.22 44.73 20.10 53.99 C 18.63 59.50 19.78 65.26 21.42 70.59 C 19.41 70.74 17.39 70.88 15.38 71.04 C 16.16 68.96 17.28 66.68 16.39 64.45 C 15.94 63.02 14.15 62.90 13.05 62.20 C 14.20 55.91 17.90 50.48 19.00 44.20 C 22.55 36.26 28.65 29.74 34.92 23.83 M 55.30 16.36 C 51.86 18.03 48.56 22.18 50.00 26.08 C 54.32 27.73 59.95 24.38 61.27 20.07 C 62.14 16.62 58.04 14.07 55.30 16.36 M 35.52 26.11 C 40.60 24.60 44.93 21.32 49.03 18.08 C 44.10 19.68 38.66 21.80 35.52 26.11 Z" />
<path fill="#000000" opacity="1.00" d=" M 55.30 16.36 C 58.04 14.07 62.14 16.62 61.27 20.07 C 59.95 24.38 54.32 27.73 50.00 26.08 C 48.56 22.18 51.86 18.03 55.30 16.36 M 50.73 23.02 C 50.83 23.57 51.04 24.68 51.14 25.24 C 53.97 25.60 56.46 23.96 58.43 22.12 C 59.58 20.83 59.03 19.20 58.40 17.82 C 57.54 17.79 55.82 17.71 54.95 17.68 C 53.13 19.10 51.79 20.98 50.73 23.02 Z" />
<path fill="#fffca3" opacity="1.00" d=" M 35.52 26.11 C 38.66 21.80 44.10 19.68 49.03 18.08 C 44.93 21.32 40.60 24.60 35.52 26.11 Z" />
<path fill="#ffe35c" opacity="1.00" d=" M 50.73 23.02 C 51.79 20.98 53.13 19.10 54.95 17.68 C 55.82 17.71 57.54 17.79 58.40 17.82 C 59.03 19.20 59.58 20.83 58.43 22.12 C 55.87 22.49 53.30 22.76 50.73 23.02 Z" />
<path fill="#c61074" opacity="1.00" d=" M 50.73 23.02 C 53.30 22.76 55.87 22.49 58.43 22.12 C 56.46 23.96 53.97 25.60 51.14 25.24 C 51.04 24.68 50.83 23.57 50.73 23.02 Z" />
<path fill="#fffca3" opacity="1.00" d=" M 37.30 28.39 C 38.19 27.51 39.12 26.68 40.09 25.90 C 41.13 27.23 42.16 28.57 43.19 29.92 C 41.72 30.78 40.27 31.64 38.80 32.48 C 38.13 31.20 36.81 29.97 37.30 28.39 Z" />
<path fill="#a96488" opacity="1.00" d=" M 51.15 30.07 C 56.03 30.01 60.59 32.06 64.90 34.12 C 68.29 35.55 66.43 39.86 65.24 42.26 C 59.93 40.12 54.51 37.95 48.72 37.69 C 49.56 35.16 50.41 32.63 51.15 30.07 Z" />
<path fill="#995784" opacity="1.00" d=" M 31.20 41.24 C 36.05 36.54 42.50 34.15 48.14 30.60 C 46.92 33.57 46.26 37.39 43.01 38.84 C 38.28 41.35 34.27 44.98 30.70 48.93 C 29.04 46.63 29.02 43.22 31.20 41.24 Z" />
<path fill="#cd358a" opacity="1.00" d=" M 109.61 33.30 C 111.19 34.47 112.91 35.60 114.01 37.27 C 114.81 39.69 115.46 42.14 116.11 44.60 C 114.78 44.11 113.45 43.61 112.13 43.11 C 113.06 45.67 115.40 49.27 112.33 51.29 C 103.65 54.86 95.78 47.29 87.10 47.96 C 91.50 47.39 95.86 46.20 99.30 43.26 C 103.36 40.28 108.33 39.89 113.16 40.57 C 112.05 38.11 110.92 35.65 109.61 33.30 Z" />
<path fill="#a96588" opacity="1.00" d=" M 67.70 43.17 C 68.40 41.20 69.00 39.19 69.57 37.18 C 75.95 41.79 82.21 46.85 87.07 53.06 C 85.54 53.99 83.70 54.06 81.98 54.35 C 79.51 48.30 72.97 46.11 67.70 43.17 Z" />
<path fill="#b6318c" opacity="1.00" d=" M 114.01 37.27 C 121.84 45.02 128.01 55.02 129.32 66.12 C 129.48 67.79 129.89 70.07 127.98 70.90 C 122.85 74.04 116.93 75.55 111.22 77.28 C 104.47 78.94 97.79 80.98 90.88 81.89 C 93.88 80.01 97.13 78.13 98.93 74.95 C 100.77 71.91 100.52 68.01 99.05 64.87 C 96.03 58.62 91.82 53.02 87.10 47.96 C 95.78 47.29 103.65 54.86 112.33 51.29 C 115.40 49.27 113.06 45.67 112.13 43.11 C 113.45 43.61 114.78 44.11 116.11 44.60 C 115.46 42.14 114.81 39.69 114.01 37.27 M 112.33 58.41 C 108.13 59.31 104.48 63.54 105.57 67.98 C 106.34 71.70 110.70 73.32 114.12 72.81 C 118.60 72.33 121.12 67.21 120.44 63.10 C 120.03 59.43 115.66 57.24 112.33 58.41 Z" />
<path fill="#e03887" opacity="1.00" d=" M 80.68 38.97 C 86.83 40.65 92.88 42.91 99.30 43.26 C 95.86 46.20 91.50 47.39 87.10 47.96 C 84.75 45.79 82.47 43.55 80.11 41.39 C 80.30 40.58 80.49 39.77 80.68 38.97 Z" />
<path fill="#f5c3b4" opacity="1.00" d=" M 46.80 40.20 C 52.41 39.15 57.59 42.34 62.72 44.10 C 66.34 45.40 69.58 47.64 71.31 51.16 C 68.99 51.26 66.66 51.37 64.39 51.91 C 62.35 48.92 60.34 45.62 56.97 43.98 C 53.92 42.51 50.65 41.54 47.46 40.42 L 46.80 40.20 Z" />
<path fill="#feeecc" opacity="1.00" d=" M 36.84 44.91 C 39.86 42.53 43.55 40.58 47.46 40.42 C 50.65 41.54 53.92 42.51 56.97 43.98 C 60.34 45.62 62.35 48.92 64.39 51.91 C 59.34 53.46 54.80 56.34 51.34 60.34 C 54.57 63.72 59.21 64.94 63.62 65.90 L 63.39 64.91 C 63.60 65.75 64.03 67.44 64.24 68.28 C 62.05 69.81 59.95 71.50 57.56 72.72 C 55.09 74.05 52.19 74.82 50.40 77.14 C 54.41 76.74 58.08 74.94 61.44 72.82 C 59.21 78.69 55.68 83.97 51.76 88.84 C 50.74 90.40 48.74 90.43 47.10 90.78 C 43.33 90.00 39.84 88.34 36.45 86.58 C 33.68 79.99 30.45 73.32 30.28 66.02 C 29.66 58.53 31.45 50.40 36.84 44.91 M 37.75 73.86 C 38.21 76.99 41.43 78.09 44.21 77.80 C 43.14 75.23 40.00 74.89 37.75 73.86 Z" />
<path fill="#e15d7c" opacity="1.00" d=" M 62.72 44.10 C 67.04 44.82 70.90 47.02 74.56 49.32 C 76.22 50.51 78.46 51.69 78.52 54.02 C 79.00 59.21 79.10 64.59 77.63 69.64 C 76.03 66.56 74.03 63.69 71.54 61.26 C 74.08 59.31 75.31 56.26 76.70 53.47 C 74.96 52.59 73.19 51.73 71.31 51.16 C 69.58 47.64 66.34 45.40 62.72 44.10 Z" />
<path fill="#ffec61" opacity="1.00" d=" M 124.98 46.46 C 126.04 46.79 127.08 47.16 128.12 47.56 C 129.10 48.20 130.13 48.30 131.19 47.86 L 132.90 47.32 C 131.00 48.85 129.03 50.31 127.07 51.76 C 126.36 50.00 125.61 48.25 124.98 46.46 Z" />
<path fill="#feeecc" opacity="1.00" d=" M 128.12 47.56 C 129.39 46.36 130.41 46.47 131.19 47.86 C 130.13 48.30 129.10 48.20 128.12 47.56 Z" />
<path fill="#7d417f" opacity="1.00" d=" M 23.20 65.06 C 21.63 58.78 23.19 52.23 26.79 46.93 C 27.58 48.32 28.36 49.71 29.14 51.11 C 27.33 54.92 26.52 59.09 26.50 63.29 C 25.40 63.89 24.30 64.48 23.20 65.06 Z" />
<path fill="#c61772" opacity="1.00" d=" M 132.90 47.32 C 133.63 47.41 135.10 47.59 135.83 47.68 C 133.95 51.56 131.67 55.23 129.74 59.09 C 128.88 56.64 128.02 54.18 127.07 51.76 C 129.03 50.31 131.00 48.85 132.90 47.32 Z" />
<path fill="#000000" opacity="1.00" d=" M 64.39 51.91 C 66.66 51.37 68.99 51.26 71.31 51.16 C 73.19 51.73 74.96 52.59 76.70 53.47 C 75.31 56.26 74.08 59.31 71.54 61.26 C 69.01 62.84 66.21 63.93 63.35 64.74 L 63.39 64.91 L 63.62 65.90 C 59.21 64.94 54.57 63.72 51.34 60.34 C 54.80 56.34 59.34 53.46 64.39 51.91 M 52.79 60.19 C 55.47 62.05 58.57 63.66 61.91 63.65 C 65.40 63.57 68.39 61.61 71.30 59.93 L 71.26 59.89 C 72.84 57.95 74.09 55.79 75.17 53.56 C 71.85 52.75 68.43 52.55 65.03 52.84 C 60.62 54.68 56.42 57.05 52.79 60.19 Z" />
<path fill="#ff2c63" opacity="1.00" d=" M 52.79 60.19 C 56.42 57.05 60.62 54.68 65.03 52.84 C 67.26 55.05 69.35 57.39 71.26 59.89 L 71.30 59.93 C 68.39 61.61 65.40 63.57 61.91 63.65 C 58.57 63.66 55.47 62.05 52.79 60.19 Z" />
<path fill="#a7178a" opacity="1.00" d=" M 65.03 52.84 C 68.43 52.55 71.85 52.75 75.17 53.56 C 74.09 55.79 72.84 57.95 71.26 59.89 C 69.35 57.39 67.26 55.05 65.03 52.84 Z" />
<path fill="#81447f" opacity="1.00" d=" M 81.49 57.44 C 84.36 57.63 87.04 56.57 89.51 55.22 C 92.37 59.54 95.20 63.94 96.96 68.86 C 92.36 68.35 87.64 67.59 83.52 65.39 C 80.69 63.80 81.88 60.07 81.49 57.44 Z" />
<path fill="#000000" opacity="1.00" d=" M 112.33 58.41 C 115.66 57.24 120.03 59.43 120.44 63.10 C 121.12 67.21 118.60 72.33 114.12 72.81 C 110.70 73.32 106.34 71.70 105.57 67.98 C 104.48 63.54 108.13 59.31 112.33 58.41 M 108.01 63.24 L 108.61 63.62 L 107.80 64.00 C 107.29 65.56 107.21 67.20 107.22 68.83 L 107.39 68.82 C 108.02 70.36 109.31 71.54 111.07 71.44 C 116.16 72.41 119.86 66.25 117.98 61.84 C 116.40 60.37 114.25 59.15 112.02 59.70 C 110.31 60.37 109.28 62.01 108.01 63.24 Z" />
<path fill="#ffec61" opacity="1.00" d=" M 3.15 58.32 C 5.81 58.60 8.65 58.40 11.04 59.80 L 9.97 60.40 C 8.61 61.15 7.24 61.88 5.86 62.61 C 4.95 61.18 4.03 59.77 3.15 58.32 Z" />
<path fill="#ffe05c" opacity="1.00" d=" M 108.01 63.24 C 109.28 62.01 110.31 60.37 112.02 59.70 C 114.25 59.15 116.40 60.37 117.98 61.84 C 117.24 66.97 112.03 69.12 107.39 68.82 L 107.22 68.83 C 107.21 67.20 107.29 65.56 107.80 64.00 C 107.06 67.80 112.17 65.21 108.61 63.62 L 108.01 63.24 M 112.06 60.94 C 110.70 61.62 110.68 62.30 111.97 62.96 C 113.32 62.28 113.35 61.61 112.06 60.94 Z" />
<path fill="#c61074" opacity="1.00" d=" M 5.86 62.61 C 7.24 61.88 8.61 61.15 9.97 60.40 C 9.65 62.44 9.33 64.49 8.99 66.53 C 7.95 65.22 6.90 63.92 5.86 62.61 Z" />
<path fill="#fffdf6" opacity="1.00" d=" M 112.06 60.94 C 113.35 61.61 113.32 62.28 111.97 62.96 C 110.68 62.30 110.70 61.62 112.06 60.94 Z" />
<path fill="#f1aca7" opacity="1.00" d=" M 63.35 64.74 C 66.21 63.93 69.01 62.84 71.54 61.26 C 74.03 63.69 76.03 66.56 77.63 69.64 C 77.16 76.35 75.23 83.52 69.55 87.73 C 63.39 93.28 54.56 90.83 47.10 90.78 C 48.74 90.43 50.74 90.40 51.76 88.84 C 55.68 83.97 59.21 78.69 61.44 72.82 C 63.15 71.47 64.65 69.90 66.14 68.32 C 65.67 68.31 64.72 68.29 64.24 68.28 C 64.03 67.44 63.60 65.75 63.39 64.91 L 63.35 64.74 Z" />
<path fill="#c61074" opacity="1.00" d=" M 117.98 61.84 C 119.86 66.25 116.16 72.41 111.07 71.44 C 109.31 71.54 108.02 70.36 107.39 68.82 C 112.03 69.12 117.24 66.97 117.98 61.84 Z" />
<path fill="#ffec61" opacity="1.00" d=" M 10.11 68.13 C 10.62 66.38 11.49 64.66 13.14 63.74 C 15.67 64.23 14.51 67.12 14.21 68.85 C 12.69 69.56 11.32 69.32 10.11 68.13 Z" />
<path fill="#fff1a3" opacity="1.00" d=" M 107.80 64.00 L 108.61 63.62 C 112.17 65.21 107.06 67.80 107.80 64.00 Z" />
<path fill="#512266" opacity="1.00" d=" M 23.82 67.93 C 24.76 67.57 25.71 67.21 26.65 66.86 C 27.17 69.89 27.81 72.91 28.35 75.95 C 25.93 73.87 25.05 70.74 23.82 67.93 Z" />
<path fill="#bd2867" opacity="1.00" d=" M 11.98 72.55 C 9.53 72.54 10.35 69.70 10.11 68.13 C 11.32 69.32 12.69 69.56 14.21 68.85 C 13.58 70.13 13.09 71.56 11.98 72.55 Z" />
<path fill="#000000" opacity="1.00" d=" M 64.24 68.28 C 64.72 68.29 65.67 68.31 66.14 68.32 C 64.65 69.90 63.15 71.47 61.44 72.82 C 58.08 74.94 54.41 76.74 50.40 77.14 C 52.19 74.82 55.09 74.05 57.56 72.72 C 59.95 71.50 62.05 69.81 64.24 68.28 Z" />
<path fill="#693178" opacity="1.00" d=" M 81.10 67.83 C 85.89 70.50 91.24 71.90 96.70 72.32 C 95.01 74.88 92.66 76.86 90.06 78.45 C 86.71 77.20 83.41 75.82 80.10 74.47 C 80.41 72.26 80.76 70.05 81.10 67.83 Z" />
<path fill="#b2308d" opacity="1.00" d=" M 15.38 71.04 C 17.39 70.88 19.41 70.74 21.42 70.59 C 23.34 74.99 25.89 79.23 29.74 82.21 C 31.58 83.53 32.60 85.58 33.58 87.56 C 25.70 85.54 17.63 82.89 11.67 77.07 C 11.62 76.30 11.53 74.77 11.48 74.00 C 12.78 73.01 14.08 72.03 15.38 71.04 Z" />
<path fill="#000000" opacity="1.00" d=" M 37.75 73.86 C 40.00 74.89 43.14 75.23 44.21 77.80 C 41.43 78.09 38.21 76.99 37.75 73.86 Z" />
<path fill="#5f2f66" opacity="1.00" d=" M 78.69 80.00 C 79.04 78.86 79.38 77.72 79.73 76.59 C 81.49 77.65 83.22 78.76 84.89 79.95 C 82.83 80.00 80.76 80.01 78.69 80.00 Z" />
</svg>
