<?xml version="1.0" encoding="UTF-8" ?>
<!DOCTYPE svg PUBLIC "-//W3C//DTD SVG 1.1//EN" "http://www.w3.org/Graphics/SVG/1.1/DTD/svg11.dtd">
<svg width="382pt" height="263pt" viewBox="0 0 382 263" version="1.1" xmlns="http://www.w3.org/2000/svg">
<path fill="#000000" opacity="1.00" d=" M 227.62 14.66 C 236.76 10.03 245.96 5.40 255.65 1.99 C 255.64 4.66 256.27 7.51 255.09 10.03 C 252.46 16.01 249.70 21.93 246.73 27.75 C 246.06 29.14 245.29 30.57 245.31 32.16 C 246.98 33.75 248.90 35.05 250.72 36.47 C 247.50 38.29 243.80 38.97 240.53 40.64 C 240.22 41.42 239.62 42.98 239.32 43.76 C 245.36 41.86 251.35 39.19 257.80 39.17 C 256.33 41.96 255.05 44.87 253.34 47.53 C 250.94 50.86 247.87 53.64 245.02 56.57 C 247.61 56.34 250.20 56.12 252.79 55.89 C 252.14 59.73 250.91 63.43 249.47 67.03 C 251.26 67.42 253.04 67.89 254.80 68.42 C 256.93 65.11 257.98 60.20 261.99 58.74 C 268.40 59.13 274.01 62.80 279.15 66.35 C 283.46 64.52 287.75 62.67 292.01 60.73 C 294.56 62.20 297.53 61.71 299.73 59.82 C 301.28 51.74 302.98 43.03 308.71 36.73 C 312.21 32.44 315.42 27.82 319.80 24.37 C 328.85 37.08 336.13 51.04 341.27 65.77 C 342.72 69.93 343.51 74.37 345.69 78.26 C 347.33 81.20 348.88 84.20 350.17 87.32 C 361.20 87.22 371.54 91.63 381.81 95.10 C 379.55 105.24 374.41 114.41 369.24 123.32 C 363.55 132.90 357.79 142.63 349.82 150.53 C 347.34 146.30 344.45 142.31 342.14 137.99 C 339.66 131.80 338.50 125.14 337.97 118.52 C 333.67 122.87 328.87 127.81 322.34 128.09 C 326.45 135.87 329.52 144.62 328.56 153.55 C 314.98 151.87 302.47 146.10 289.91 141.05 C 285.07 138.64 279.60 137.90 274.88 135.22 C 283.64 148.19 291.51 161.77 298.20 175.92 C 301.03 184.72 306.22 192.46 310.08 200.80 C 307.97 202.99 305.16 204.57 303.30 206.93 C 304.68 211.21 306.30 215.43 306.99 219.90 C 302.97 219.64 299.19 218.19 295.31 217.26 C 297.06 228.06 299.36 238.86 298.90 249.87 C 292.94 254.50 286.30 258.22 279.03 260.37 C 272.75 263.20 265.75 262.65 259.05 262.45 C 251.56 262.10 243.75 262.31 236.72 259.34 C 228.84 255.28 222.01 249.13 217.06 241.79 C 202.62 242.89 188.12 241.44 173.83 239.44 C 170.97 248.18 165.19 256.55 156.79 260.68 C 151.70 261.55 146.33 260.62 141.30 259.56 C 137.90 257.50 134.23 255.50 131.69 252.38 C 127.08 243.70 123.04 234.73 119.37 225.62 C 118.29 222.14 117.52 218.57 116.58 215.05 C 112.86 214.35 109.38 212.58 106.73 209.87 C 104.53 210.39 101.79 212.33 99.93 210.09 C 98.81 208.16 98.47 205.91 97.89 203.79 C 95.15 206.38 92.51 209.44 88.79 210.61 C 83.90 211.79 78.45 209.58 75.42 205.65 C 73.23 202.12 75.05 197.94 76.58 194.55 C 76.17 191.88 77.57 189.57 78.93 187.42 C 74.27 184.58 71.61 179.68 68.74 175.25 C 64.53 171.21 59.15 168.17 53.17 168.09 C 48.65 171.47 43.01 174.56 41.20 180.28 C 37.50 189.52 32.16 199.18 22.67 203.46 C 21.59 203.97 18.97 205.14 19.13 202.91 C 18.86 196.36 22.78 190.62 26.80 185.81 C 30.54 181.66 34.79 177.27 40.55 176.25 C 43.17 171.85 47.37 168.67 51.99 166.58 C 51.99 164.29 51.47 161.95 49.50 160.53 C 43.05 155.09 36.19 150.00 28.66 146.14 C 26.42 144.61 23.39 146.54 21.21 144.80 C 19.23 143.63 19.72 141.12 19.53 139.20 C 13.74 135.21 7.87 131.31 2.17 127.18 C 4.50 119.49 10.04 113.22 16.19 108.27 C 17.49 107.43 18.87 105.90 20.57 106.38 C 27.20 110.02 32.51 115.72 39.43 118.88 C 40.30 113.58 39.16 108.13 40.34 102.84 C 41.11 99.75 40.84 96.06 43.16 93.63 C 44.92 94.31 44.83 96.41 45.27 97.94 C 46.19 104.21 46.72 110.57 46.22 116.90 C 45.83 119.71 47.15 122.35 47.14 125.14 C 51.89 130.78 58.42 134.52 64.41 138.68 C 66.47 140.41 69.19 140.07 71.67 140.36 C 73.72 141.61 74.46 144.30 76.55 145.57 C 82.25 149.08 88.14 152.41 93.06 157.00 C 97.71 155.24 102.33 153.17 107.24 152.27 C 108.51 152.22 109.93 152.29 110.98 151.42 C 117.82 146.21 124.09 140.22 129.60 133.63 C 134.73 130.17 138.60 125.29 143.03 121.04 C 146.61 117.76 148.12 112.95 151.31 109.36 C 152.76 107.37 155.00 105.69 155.17 103.06 C 155.75 97.93 157.93 93.08 160.81 88.85 C 162.87 86.12 166.23 88.66 168.60 89.50 C 168.06 87.68 167.36 85.90 167.14 84.00 C 168.93 81.18 172.61 80.51 175.25 78.67 C 162.07 76.88 148.98 74.45 136.15 70.98 C 133.23 69.20 131.31 66.18 129.05 63.67 C 132.08 63.81 135.09 64.24 138.03 64.97 C 148.14 67.44 158.33 69.57 168.59 71.27 C 164.25 68.05 159.30 65.66 155.45 61.78 C 159.99 62.12 164.28 60.46 168.75 60.22 C 167.97 59.12 167.18 58.02 166.40 56.93 C 167.36 55.25 168.32 53.57 169.29 51.90 C 164.33 46.69 162.52 39.59 160.70 32.84 C 163.45 33.91 166.00 35.84 169.02 35.96 C 170.69 32.99 170.28 29.24 171.21 25.97 C 171.67 25.06 171.26 23.28 172.63 23.05 C 175.55 25.33 178.00 28.14 180.68 30.69 C 182.93 29.34 185.18 27.70 187.86 27.37 C 193.89 26.70 199.97 27.21 205.97 27.89 C 212.65 22.66 220.14 18.61 227.62 14.66 M 222.21 21.26 C 217.97 23.67 212.83 25.26 209.84 29.31 C 211.76 30.00 213.73 30.76 214.84 32.61 C 212.20 32.16 209.58 31.61 206.90 31.41 C 206.51 31.84 205.72 32.69 205.33 33.12 C 205.73 32.57 206.54 31.48 206.94 30.93 C 197.19 30.53 186.45 29.55 178.01 35.50 C 177.88 34.74 177.63 33.23 177.50 32.47 C 175.86 30.91 174.19 29.39 172.48 27.91 C 172.10 31.82 173.39 36.36 170.49 39.56 C 170.92 40.05 171.77 41.02 172.20 41.50 C 169.65 41.45 167.58 39.87 165.34 38.88 C 167.06 44.05 170.20 48.50 173.41 52.83 C 172.10 53.78 170.80 54.73 169.53 55.71 C 170.38 57.64 172.09 59.88 170.93 62.05 C 168.66 63.71 165.68 63.16 163.05 63.34 C 165.93 65.17 168.89 66.85 171.81 68.59 C 171.48 69.36 170.81 70.91 170.47 71.68 C 175.59 73.90 181.41 74.44 186.20 77.50 C 191.13 77.65 196.05 77.00 200.89 76.08 C 203.13 75.68 205.41 75.52 207.69 75.43 C 207.50 72.55 207.84 69.69 208.69 66.94 C 209.94 67.46 211.11 68.12 212.28 68.81 C 212.56 67.18 212.95 65.57 213.39 63.98 C 213.91 63.13 214.40 62.25 214.85 61.36 C 215.40 61.72 215.95 62.07 216.49 62.44 C 217.48 64.00 219.13 64.60 220.86 64.90 C 219.10 69.14 216.24 72.96 212.19 75.23 L 212.43 75.65 C 205.23 77.76 197.64 77.95 190.26 79.16 C 186.52 79.29 182.77 79.27 179.03 79.39 C 176.28 81.57 173.11 83.07 170.05 84.72 C 171.17 86.32 172.23 87.96 172.98 89.78 C 173.96 89.18 175.01 88.67 176.03 88.12 C 174.85 89.70 173.55 91.20 172.57 92.91 C 170.44 94.29 169.09 96.48 168.29 98.84 C 165.97 100.57 163.78 102.53 162.18 104.95 C 158.02 106.64 155.00 110.64 153.97 114.93 C 153.76 122.57 156.34 129.89 158.69 137.05 C 160.08 141.51 162.85 145.31 164.99 149.41 C 169.83 147.06 174.67 144.69 179.61 142.55 C 191.12 137.47 201.72 130.49 211.45 122.54 C 213.49 120.83 215.64 119.24 217.86 117.76 C 221.33 119.32 224.78 120.91 228.30 122.35 C 229.36 118.35 227.07 114.66 225.99 110.94 C 229.04 113.18 230.54 116.67 231.38 120.25 C 231.36 122.31 231.44 124.37 231.52 126.43 C 228.25 125.44 224.96 124.48 221.82 123.12 C 221.06 122.46 220.29 121.82 219.53 121.18 C 218.21 122.40 216.89 123.62 215.56 124.83 C 210.91 128.65 206.06 132.23 201.00 135.48 C 189.46 142.52 177.11 148.47 164.11 152.24 C 157.35 146.39 154.03 137.61 151.68 129.22 C 145.41 138.49 140.07 148.41 133.65 157.60 C 131.07 161.10 129.43 165.22 126.54 168.50 C 118.50 177.33 114.28 190.06 116.89 201.85 C 116.05 203.08 115.21 204.30 114.36 205.53 C 113.43 206.69 112.49 207.85 111.56 209.01 C 115.71 210.53 119.16 213.34 122.22 216.47 C 123.16 223.07 126.01 229.27 128.81 235.27 C 130.20 238.35 131.54 241.47 133.14 244.46 C 139.43 245.78 139.85 254.44 146.12 255.55 C 147.25 252.83 147.49 249.24 150.08 247.46 C 153.57 248.69 153.14 253.31 154.13 256.27 C 160.15 253.65 164.08 248.10 167.49 242.75 C 168.01 241.45 168.54 240.15 169.07 238.85 C 162.28 237.02 154.92 236.77 148.68 233.29 C 146.86 232.53 147.50 230.60 147.82 229.14 C 148.47 229.34 149.77 229.74 150.42 229.94 L 150.42 230.16 C 156.93 231.80 163.50 233.22 169.99 234.94 C 178.84 236.26 187.76 237.60 196.72 237.53 C 198.73 238.22 200.91 238.06 203.01 238.15 C 215.91 238.32 228.82 237.56 241.67 236.47 C 236.83 238.71 231.52 239.45 226.48 241.04 C 225.21 240.87 223.93 240.90 222.63 241.14 C 226.00 246.12 230.99 249.65 235.25 253.82 C 237.72 256.44 241.55 256.84 244.96 256.97 C 246.59 254.74 247.91 252.31 249.48 250.04 C 252.62 253.09 254.85 258.65 259.95 258.30 C 262.18 253.67 264.46 248.93 267.95 245.11 C 271.74 248.42 276.21 251.11 278.98 255.44 C 281.48 254.50 283.95 253.49 286.39 252.41 C 286.66 249.24 287.31 246.10 288.89 243.30 C 290.98 244.29 292.99 245.45 294.91 246.74 C 294.71 244.42 294.52 242.11 294.32 239.80 C 293.36 232.50 292.27 225.19 290.61 218.01 C 291.26 215.92 293.06 214.67 294.71 213.41 C 297.20 213.54 299.64 214.08 302.01 214.82 C 300.70 211.70 299.34 208.59 297.60 205.67 C 298.92 203.00 300.28 200.34 301.88 197.82 C 300.30 193.80 298.56 189.84 296.93 185.83 C 293.31 177.47 289.20 169.32 284.74 161.37 C 280.50 153.56 275.82 145.97 270.85 138.60 C 269.49 136.69 268.13 134.77 266.79 132.84 L 266.70 132.83 C 265.34 130.69 263.18 129.20 261.95 126.98 C 261.23 126.16 261.12 124.48 260.03 124.19 C 258.27 125.41 256.65 126.80 254.88 128.00 C 254.03 126.38 253.18 124.77 252.32 123.16 C 249.07 115.33 242.18 109.68 238.77 101.90 C 246.76 105.91 250.72 114.49 254.97 121.87 C 256.36 120.10 258.79 118.59 258.71 116.08 C 258.69 111.66 258.82 107.24 258.92 102.82 C 260.26 100.70 261.04 98.29 261.83 95.94 C 265.91 93.74 270.57 91.70 275.30 92.62 C 277.91 93.12 280.69 95.71 283.17 93.43 C 287.57 93.26 292.00 95.01 295.18 98.07 C 295.63 97.85 296.55 97.42 297.00 97.20 C 298.98 98.61 301.03 99.93 303.19 101.05 C 301.38 97.38 298.08 94.70 296.47 90.91 C 298.30 86.17 296.04 81.33 295.92 76.52 C 297.71 79.24 298.55 82.71 301.28 84.71 C 304.19 87.01 307.77 88.20 311.32 89.12 C 309.21 86.73 306.53 85.00 304.14 82.93 C 301.35 80.57 301.16 76.64 300.37 73.33 C 300.22 70.18 299.93 67.03 299.77 63.88 C 298.07 64.83 296.40 65.84 294.78 66.92 C 294.32 66.85 293.38 66.72 292.92 66.65 C 292.74 66.12 292.38 65.07 292.21 64.54 C 286.75 66.92 280.65 67.97 275.78 71.57 C 275.52 71.10 275.01 70.18 274.76 69.71 C 275.14 69.26 275.88 68.35 276.26 67.90 C 272.51 63.80 267.55 61.00 262.13 59.81 C 258.91 64.68 255.65 69.65 253.74 75.22 C 253.41 74.14 253.07 73.05 252.75 71.97 C 250.20 71.27 248.06 72.81 246.06 74.14 C 245.98 73.59 245.83 72.50 245.76 71.96 C 244.06 72.68 242.36 73.54 240.48 73.55 C 243.24 68.78 247.46 64.83 249.08 59.46 L 250.11 58.60 C 243.36 58.05 237.95 62.92 233.30 67.14 C 233.29 66.58 233.28 65.45 233.27 64.89 L 233.65 64.95 C 234.22 63.96 234.79 62.97 235.38 61.99 C 240.81 55.25 248.67 50.66 253.16 43.19 L 251.86 43.89 C 246.42 43.64 241.31 46.15 236.79 48.91 L 235.80 49.64 C 234.98 46.69 236.21 43.84 237.00 41.06 L 238.19 41.74 C 237.76 41.23 236.89 40.20 236.45 39.68 C 238.67 35.43 244.45 38.20 248.09 36.18 C 246.11 34.33 243.16 33.63 241.37 31.71 C 241.71 27.75 244.35 24.43 244.89 20.50 C 247.80 17.05 248.92 12.43 250.13 8.16 C 240.53 11.88 231.31 16.47 222.21 21.26 M 303.18 67.05 C 303.60 71.98 303.83 77.71 307.59 81.39 C 316.09 88.80 326.94 92.45 337.23 96.60 C 339.00 97.42 340.97 97.35 342.87 97.27 C 342.27 92.91 342.49 88.33 340.89 84.17 C 340.80 82.71 340.71 81.25 340.62 79.80 L 340.20 79.65 C 337.07 65.42 331.35 51.79 323.33 39.62 C 323.40 38.99 323.53 37.74 323.60 37.12 C 321.91 33.81 320.68 30.32 319.97 26.67 C 308.18 36.31 302.96 52.16 303.18 67.05 M 214.94 63.29 C 214.33 65.83 213.90 68.41 213.61 71.01 C 215.09 69.71 216.73 68.48 217.69 66.72 C 217.57 65.17 215.83 64.39 214.94 63.29 M 133.97 66.15 C 135.13 67.27 136.29 68.39 137.40 69.57 C 144.58 69.68 151.08 73.58 158.24 73.61 C 165.52 75.18 173.06 75.18 180.19 77.52 C 174.92 74.25 168.44 73.65 162.53 72.02 C 152.93 70.51 143.39 68.56 133.97 66.15 M 209.49 68.92 C 209.35 70.88 209.27 72.84 209.20 74.81 C 210.10 74.34 210.99 73.88 211.89 73.42 C 212.04 71.43 211.47 69.67 209.49 68.92 M 352.95 92.10 C 352.72 94.67 352.50 97.34 353.78 99.71 C 353.05 100.20 352.33 100.70 351.61 101.20 C 351.95 102.02 352.29 102.84 352.63 103.66 C 352.26 103.92 351.51 104.44 351.14 104.70 C 347.77 106.39 343.71 108.20 342.34 112.00 C 341.61 118.33 342.92 124.68 344.30 130.83 C 345.99 135.47 347.36 140.29 350.14 144.44 C 353.73 140.80 356.10 136.21 359.05 132.08 L 358.90 131.88 C 360.30 129.89 361.55 127.81 362.70 125.66 L 362.87 125.83 C 364.29 123.88 365.66 121.87 366.62 119.64 C 369.42 113.21 373.36 107.34 376.25 100.95 C 377.00 99.35 375.81 97.76 374.32 97.22 C 369.84 96.07 365.44 94.24 360.75 94.16 C 358.57 92.41 355.56 92.56 352.95 92.10 M 161.67 99.52 C 164.35 98.47 166.48 96.54 168.10 94.18 C 166.99 93.59 165.88 93.00 164.77 92.41 C 163.38 94.61 162.31 97.00 161.67 99.52 M 266.11 100.10 C 263.44 105.25 263.49 111.36 263.97 117.01 C 264.23 121.29 266.54 125.65 270.57 127.45 C 275.41 129.74 280.14 132.27 285.09 134.33 C 288.72 136.33 292.54 137.95 296.29 139.69 C 297.95 140.37 299.71 141.29 301.57 140.95 C 309.16 144.60 317.27 147.00 325.18 149.85 C 325.02 148.04 324.86 146.24 324.70 144.43 L 324.30 144.28 C 322.53 136.36 318.62 129.10 313.26 123.04 C 311.31 120.85 309.24 118.77 307.19 116.67 C 306.52 116.10 305.82 115.56 305.11 115.04 C 302.41 111.98 298.94 109.76 295.51 107.60 C 291.21 104.93 286.79 102.29 281.86 100.96 L 281.59 100.27 C 279.89 99.77 278.18 99.28 276.48 98.83 C 276.36 98.61 276.12 98.17 276.01 97.95 C 272.76 96.95 268.65 97.86 266.11 100.10 M 41.62 112.63 L 41.19 112.89 C 41.54 114.86 41.46 117.26 43.50 118.31 C 43.72 115.93 43.86 113.54 43.99 111.16 C 44.41 106.71 44.13 102.22 43.95 97.76 C 40.62 101.79 42.09 107.74 41.62 112.63 M 12.43 115.90 C 11.25 117.08 10.07 118.28 8.88 119.46 L 9.26 119.99 L 8.84 119.41 C 7.36 121.47 5.67 123.49 4.88 125.95 C 7.10 128.79 10.81 130.32 13.83 132.29 C 17.16 135.41 23.25 136.62 23.84 141.80 C 26.81 142.26 29.95 142.65 32.41 144.56 C 39.21 149.37 45.89 154.38 52.57 159.37 C 54.42 160.56 55.09 162.68 55.69 164.68 C 61.67 162.78 65.90 168.10 70.53 170.76 C 75.05 167.18 79.93 164.12 84.87 161.16 C 86.71 160.24 88.55 159.31 90.39 158.36 C 84.58 154.55 78.31 151.36 73.22 146.55 C 72.39 145.39 71.55 144.22 70.73 143.06 C 70.15 143.34 69.00 143.88 68.42 144.16 C 66.83 143.66 65.19 143.20 63.84 142.19 C 56.58 137.20 49.39 132.06 42.72 126.28 C 44.24 125.24 43.08 123.34 42.97 121.93 C 40.47 122.17 37.66 122.95 35.74 120.82 C 31.49 116.58 25.84 114.13 21.05 110.58 C 17.38 110.05 15.19 114.07 12.43 115.90 M 138.18 131.42 C 131.77 138.25 124.71 144.43 117.90 150.85 C 117.97 151.60 118.13 153.12 118.20 153.87 C 116.30 157.15 113.35 159.64 110.91 162.50 C 113.82 163.43 113.44 166.25 113.33 168.67 C 115.31 169.76 118.67 172.17 120.04 169.09 C 126.82 159.22 134.57 149.92 140.00 139.19 C 143.51 134.99 145.74 129.89 149.45 125.83 C 149.09 123.38 149.38 120.91 149.93 118.51 C 146.98 123.70 142.09 127.09 138.18 131.42 M 80.54 169.55 L 80.08 169.40 C 77.69 170.91 75.46 172.68 73.50 174.73 C 75.69 178.23 77.90 181.79 80.99 184.59 C 87.42 178.46 93.90 172.30 101.41 167.49 C 103.27 166.42 104.39 164.57 105.34 162.72 C 107.38 160.62 109.36 158.47 111.08 156.10 C 99.83 157.46 89.86 163.51 80.54 169.55 M 88.46 183.36 C 86.06 185.67 83.61 188.00 81.83 190.83 C 80.57 193.56 80.32 196.62 79.70 199.53 L 79.03 199.58 C 77.93 205.43 86.02 208.28 90.08 205.05 C 93.83 202.19 96.43 198.15 99.11 194.34 C 101.87 189.80 104.54 184.96 105.16 179.60 L 105.48 179.38 C 106.73 175.93 107.69 172.39 108.24 168.76 C 101.00 172.67 94.59 177.92 88.46 183.36 M 110.31 179.03 C 112.32 177.74 114.30 176.40 116.24 175.02 C 114.78 174.18 113.31 173.34 111.85 172.50 C 111.33 174.67 110.81 176.85 110.31 179.03 M 31.18 185.62 C 27.06 190.05 23.49 195.17 21.98 201.11 C 26.36 198.77 30.17 195.32 32.84 191.12 C 35.87 187.55 37.64 183.16 39.65 178.98 C 36.53 180.79 33.75 183.10 31.18 185.62 M 104.15 194.91 C 102.95 196.49 101.47 198.09 101.27 200.16 C 101.39 202.26 102.30 204.20 102.96 206.18 C 105.84 204.97 108.84 203.99 111.56 202.42 C 113.09 201.34 112.18 199.25 111.20 198.12 C 111.06 192.89 112.01 187.77 113.07 182.67 C 108.15 185.01 105.96 190.11 104.15 194.91 M 138.60 253.96 C 136.84 251.94 135.77 249.50 134.89 247.01 C 134.57 249.77 136.87 252.07 138.60 253.96 M 265.34 256.01 C 265.03 256.49 264.42 257.46 264.12 257.94 C 265.95 257.83 267.79 257.74 269.63 257.64 L 269.69 257.34 C 271.35 256.86 274.04 257.64 275.05 256.05 C 274.12 254.05 272.43 252.57 270.99 250.95 C 270.19 250.23 269.39 249.50 268.60 248.78 C 268.65 248.36 268.77 247.52 268.83 247.09 C 266.18 248.89 263.15 252.87 265.34 256.01 M 291.54 249.64 C 292.19 248.48 291.19 246.73 289.90 246.55 C 287.38 246.96 289.75 250.82 291.54 249.64 M 149.97 255.34 C 150.29 254.79 150.93 253.69 151.25 253.14 C 149.99 250.27 146.99 255.10 149.97 255.34 M 250.08 256.13 C 249.64 256.47 248.77 257.14 248.33 257.47 C 248.99 257.63 249.65 257.77 250.32 257.91 C 250.21 256.56 250.20 255.20 250.04 253.87 C 248.28 252.26 246.11 257.26 250.08 256.13 Z" />
<path fill="#453a47" opacity="1.00" d=" M 222.21 21.26 C 231.31 16.47 240.53 11.88 250.13 8.16 C 248.92 12.43 247.80 17.05 244.89 20.50 C 241.19 23.62 237.24 26.46 233.67 29.74 C 232.12 30.98 231.55 33.06 231.86 34.97 C 232.88 36.97 234.88 38.16 236.45 39.68 C 236.89 40.20 237.76 41.23 238.19 41.74 L 237.00 41.06 C 236.75 40.92 236.25 40.63 236.00 40.49 C 235.27 40.50 233.81 40.52 233.08 40.53 C 231.39 36.96 231.48 33.00 231.83 29.16 C 229.47 30.44 227.21 31.89 225.06 33.50 C 225.17 32.50 225.40 30.50 225.51 29.50 C 224.02 29.81 222.54 30.12 221.09 30.52 C 219.00 31.20 216.99 32.11 214.84 32.61 C 213.73 30.76 211.76 30.00 209.84 29.31 C 212.83 25.26 217.97 23.67 222.21 21.26 Z" />
<path fill="#2c1c27" opacity="1.00" d=" M 233.67 29.74 C 237.24 26.46 241.19 23.62 244.89 20.50 C 244.35 24.43 241.71 27.75 241.37 31.71 C 243.16 33.63 246.11 34.33 248.09 36.18 C 244.45 38.20 238.67 35.43 236.45 39.68 C 234.88 38.16 232.88 36.97 231.86 34.97 C 231.55 33.06 232.12 30.98 233.67 29.74 Z" />
<path fill="#201a20" opacity="1.00" d=" M 303.18 67.05 C 302.96 52.16 308.18 36.31 319.97 26.67 C 320.68 30.32 321.91 33.81 323.60 37.12 C 323.53 37.74 323.40 38.99 323.33 39.62 C 321.60 37.58 319.69 35.69 317.68 33.93 C 318.22 35.83 318.78 37.72 319.48 39.57 C 317.53 48.20 314.75 58.36 320.40 66.22 C 322.09 67.84 323.86 69.37 325.61 70.91 C 330.60 75.46 336.03 79.49 340.89 84.17 C 342.49 88.33 342.27 92.91 342.87 97.27 C 340.97 97.35 339.00 97.42 337.23 96.60 C 326.94 92.45 316.09 88.80 307.59 81.39 C 303.83 77.71 303.60 71.98 303.18 67.05 Z" />
<path fill="#382a36" opacity="1.00" d=" M 172.48 27.91 C 174.19 29.39 175.86 30.91 177.50 32.47 C 177.63 33.23 177.88 34.74 178.01 35.50 C 175.64 37.11 173.41 39.05 170.49 39.56 C 173.39 36.36 172.10 31.82 172.48 27.91 Z" />
<path fill="#d99f99" opacity="1.00" d=" M 221.09 30.52 C 222.54 30.12 224.02 29.81 225.51 29.50 C 225.40 30.50 225.17 32.50 225.06 33.50 C 227.21 31.89 229.47 30.44 231.83 29.16 C 231.48 33.00 231.39 36.96 233.08 40.53 C 233.81 40.52 235.27 40.50 236.00 40.49 C 236.25 40.63 236.75 40.92 237.00 41.06 C 236.21 43.84 234.98 46.69 235.80 49.64 C 234.90 50.26 233.93 51.22 232.92 50.21 C 232.27 45.96 230.45 42.03 228.92 38.05 C 227.99 35.51 225.26 34.47 223.32 32.85 C 222.58 32.07 221.83 31.30 221.09 30.52 Z" />
<path fill="#fdeedd" opacity="1.00" d=" M 178.01 35.50 C 186.45 29.55 197.19 30.53 206.94 30.93 C 206.54 31.48 205.73 32.57 205.33 33.12 C 205.72 32.69 206.51 31.84 206.90 31.41 C 209.58 31.61 212.20 32.16 214.84 32.61 C 216.99 32.11 219.00 31.20 221.09 30.52 C 221.83 31.30 222.58 32.07 223.32 32.85 C 223.02 36.54 221.73 40.03 220.02 43.29 C 219.02 43.41 217.02 43.66 216.01 43.78 C 216.19 43.13 216.53 41.83 216.70 41.18 C 212.54 44.12 209.02 47.81 205.24 51.20 C 202.69 53.54 200.14 56.37 199.79 59.98 C 199.80 61.83 200.97 63.38 201.87 64.90 C 199.08 68.14 199.59 72.32 200.89 76.08 C 196.05 77.00 191.13 77.65 186.20 77.50 C 181.41 74.44 175.59 73.90 170.47 71.68 C 170.81 70.91 171.48 69.36 171.81 68.59 C 168.89 66.85 165.93 65.17 163.05 63.34 C 165.68 63.16 168.66 63.71 170.93 62.05 C 172.09 59.88 170.38 57.64 169.53 55.71 C 170.80 54.73 172.10 53.78 173.41 52.83 C 170.20 48.50 167.06 44.05 165.34 38.88 C 167.58 39.87 169.65 41.45 172.20 41.50 C 171.77 41.02 170.92 40.05 170.49 39.56 C 173.41 39.05 175.64 37.11 178.01 35.50 M 185.05 62.85 C 185.38 63.98 185.71 65.12 186.04 66.26 C 184.17 66.77 182.68 66.12 183.15 63.70 C 181.98 65.36 180.38 67.87 182.26 69.66 C 184.25 72.42 188.03 71.69 190.94 71.41 C 193.91 70.93 196.02 66.82 193.44 64.60 C 190.91 63.14 187.95 62.58 185.05 62.85 Z" />
<path fill="#eecfc3" opacity="1.00" d=" M 223.32 32.85 C 225.26 34.47 227.99 35.51 228.92 38.05 C 230.45 42.03 232.27 45.96 232.92 50.21 C 230.58 52.11 229.00 55.96 225.56 55.72 C 225.29 55.31 224.76 54.49 224.49 54.08 C 225.55 52.09 226.54 50.06 227.52 48.03 C 226.74 46.94 225.97 45.84 225.21 44.74 C 225.37 44.26 225.69 43.29 225.85 42.81 C 223.90 42.96 221.96 43.11 220.02 43.29 C 221.73 40.03 223.02 36.54 223.32 32.85 Z" />
<path fill="#feffc8" opacity="1.00" d=" M 317.68 33.93 C 319.69 35.69 321.60 37.58 323.33 39.62 C 331.35 51.79 337.07 65.42 340.20 79.65 C 339.90 79.54 339.31 79.33 339.02 79.22 C 337.27 75.62 336.08 71.79 334.43 68.14 C 333.19 65.45 331.86 62.80 330.48 60.18 C 326.84 53.30 322.67 46.68 319.48 39.57 C 318.78 37.72 318.22 35.83 317.68 33.93 Z" />
<path fill="#58474c" opacity="1.00" d=" M 319.48 39.57 C 322.67 46.68 326.84 53.30 330.48 60.18 C 326.03 59.77 323.06 63.20 320.40 66.22 C 314.75 58.36 317.53 48.20 319.48 39.57 Z" />
<path fill="#514855" opacity="1.00" d=" M 216.70 41.18 C 216.53 41.83 216.19 43.13 216.01 43.78 C 217.02 43.66 219.02 43.41 220.02 43.29 C 221.96 43.11 223.90 42.96 225.85 42.81 C 225.69 43.29 225.37 44.26 225.21 44.74 C 225.97 45.84 226.74 46.94 227.52 48.03 C 226.54 50.06 225.55 52.09 224.49 54.08 C 222.22 57.22 219.35 59.85 216.49 62.44 C 215.95 62.07 215.40 61.72 214.85 61.36 C 214.40 62.25 213.91 63.13 213.39 63.98 C 209.89 65.92 205.61 66.59 201.87 64.90 C 200.97 63.38 199.80 61.83 199.79 59.98 C 200.14 56.37 202.69 53.54 205.24 51.20 C 209.02 47.81 212.54 44.12 216.70 41.18 M 206.75 54.81 C 204.68 57.21 202.06 59.73 201.79 63.05 C 203.09 64.31 205.04 63.78 206.61 63.47 C 212.97 61.65 217.84 56.84 221.93 51.87 C 222.79 49.79 222.54 47.46 222.75 45.26 C 216.18 45.54 211.06 50.32 206.75 54.81 Z" />
<path fill="#e7c0ba" opacity="1.00" d=" M 236.79 48.91 C 241.31 46.15 246.42 43.64 251.86 43.89 C 244.69 48.16 236.88 51.30 229.97 56.03 C 227.77 57.89 226.34 60.43 225.03 62.96 C 227.72 63.83 230.47 64.50 233.27 64.89 C 233.28 65.45 233.29 66.58 233.30 67.14 C 237.95 62.92 243.36 58.05 250.11 58.60 L 249.08 59.46 C 246.36 61.46 243.48 63.30 241.22 65.85 C 237.40 68.79 232.96 71.02 229.83 74.78 C 227.50 77.63 224.89 80.23 221.97 82.48 C 223.89 78.44 226.22 74.32 226.33 69.73 C 225.29 67.45 223.02 66.00 220.86 64.90 C 219.13 64.60 217.48 64.00 216.49 62.44 C 219.35 59.85 222.22 57.22 224.49 54.08 C 224.76 54.49 225.29 55.31 225.56 55.72 C 229.00 55.96 230.58 52.11 232.92 50.21 C 233.93 51.22 234.90 50.26 235.80 49.64 L 236.79 48.91 Z" />
<path fill="#b65c70" opacity="1.00" d=" M 251.86 43.89 L 253.16 43.19 C 248.67 50.66 240.81 55.25 235.38 61.99 C 233.78 59.82 231.98 57.81 229.97 56.03 C 236.88 51.30 244.69 48.16 251.86 43.89 Z" />
<path fill="#000000" opacity="1.00" d=" M 206.75 54.81 C 211.06 50.32 216.18 45.54 222.75 45.26 C 222.54 47.46 222.79 49.79 221.93 51.87 C 217.84 56.84 212.97 61.65 206.61 63.47 C 205.04 63.78 203.09 64.31 201.79 63.05 C 202.06 59.73 204.68 57.21 206.75 54.81 M 203.85 63.03 C 208.49 61.32 213.39 59.54 216.81 55.80 C 219.40 53.14 222.30 49.88 221.72 45.86 C 214.06 49.19 206.81 55.01 203.85 63.03 Z" />
<path fill="#ff2c63" opacity="1.00" d=" M 203.85 63.03 C 206.81 55.01 214.06 49.19 221.72 45.86 C 222.30 49.88 219.40 53.14 216.81 55.80 C 213.39 59.54 208.49 61.32 203.85 63.03 Z" />
<path fill="#ce8b8e" opacity="1.00" d=" M 225.03 62.96 C 226.34 60.43 227.77 57.89 229.97 56.03 C 231.98 57.81 233.78 59.82 235.38 61.99 C 234.79 62.97 234.22 63.96 233.65 64.95 L 233.27 64.89 C 230.47 64.50 227.72 63.83 225.03 62.96 Z" />
<path fill="#aa4563" opacity="1.00" d=" M 241.22 65.85 C 243.48 63.30 246.36 61.46 249.08 59.46 C 247.46 64.83 243.24 68.78 240.48 73.55 C 239.31 75.19 238.02 76.74 236.70 78.27 C 236.31 77.63 235.52 76.36 235.12 75.73 C 237.97 73.01 240.27 69.72 241.22 65.85 Z" />
<path fill="#463a47" opacity="1.00" d=" M 262.13 59.81 C 267.55 61.00 272.51 63.80 276.26 67.90 C 275.88 68.35 275.14 69.26 274.76 69.71 C 268.92 77.55 264.91 86.69 261.83 95.94 C 261.04 98.29 260.26 100.70 258.92 102.82 C 256.54 105.34 253.59 107.33 250.17 108.11 C 247.87 102.65 248.51 96.64 247.45 90.92 C 246.38 85.22 249.45 79.99 251.54 74.92 C 251.75 76.41 251.97 77.91 252.20 79.40 C 252.71 78.01 253.23 76.62 253.74 75.22 C 255.65 69.65 258.91 64.68 262.13 59.81 Z" />
<path fill="#6d444f" opacity="1.00" d=" M 320.40 66.22 C 323.06 63.20 326.03 59.77 330.48 60.18 C 331.86 62.80 333.19 65.45 334.43 68.14 C 331.32 68.43 328.37 69.48 325.61 70.91 C 323.86 69.37 322.09 67.84 320.40 66.22 Z" />
<path fill="#000000" opacity="1.00" d=" M 185.05 62.85 C 187.95 62.58 190.91 63.14 193.44 64.60 C 196.02 66.82 193.91 70.93 190.94 71.41 C 188.03 71.69 184.25 72.42 182.26 69.66 C 180.38 67.87 181.98 65.36 183.15 63.70 C 182.68 66.12 184.17 66.77 186.04 66.26 C 185.71 65.12 185.38 63.98 185.05 62.85 Z" />
<path fill="#f5ddcf" opacity="1.00" d=" M 201.87 64.90 C 205.61 66.59 209.89 65.92 213.39 63.98 C 212.95 65.57 212.56 67.18 212.28 68.81 C 211.11 68.12 209.94 67.46 208.69 66.94 C 207.84 69.69 207.50 72.55 207.69 75.43 C 205.41 75.52 203.13 75.68 200.89 76.08 C 199.59 72.32 199.08 68.14 201.87 64.90 Z" />
<path fill="#8383a4" opacity="1.00" d=" M 214.94 63.29 C 215.83 64.39 217.57 65.17 217.69 66.72 C 216.73 68.48 215.09 69.71 213.61 71.01 C 213.90 68.41 214.33 65.83 214.94 63.29 Z" />
<path fill="#edcec5" opacity="1.00" d=" M 220.86 64.90 C 223.02 66.00 225.29 67.45 226.33 69.73 C 226.22 74.32 223.89 78.44 221.97 82.48 C 220.81 83.46 219.71 84.51 218.63 85.56 C 219.22 85.49 220.42 85.34 221.02 85.26 C 219.05 86.24 217.12 87.29 215.17 88.31 C 215.76 83.87 215.14 79.32 212.43 75.65 L 212.19 75.23 C 216.24 72.96 219.10 69.14 220.86 64.90 Z" />
<path fill="#362834" opacity="1.00" d=" M 294.78 66.92 C 296.40 65.84 298.07 64.83 299.77 63.88 C 299.93 67.03 300.22 70.18 300.37 73.33 C 299.47 74.50 298.48 75.58 297.49 76.66 C 296.74 75.84 295.99 75.02 295.24 74.21 C 295.07 76.83 294.69 79.60 292.40 81.26 C 288.54 84.50 285.46 89.77 279.97 90.14 C 275.44 90.76 271.92 86.21 271.92 82.02 C 271.53 78.49 273.03 75.16 275.16 72.44 C 278.08 71.92 281.19 69.77 283.94 71.99 C 282.48 74.07 281.08 76.20 279.84 78.41 C 285.30 74.76 289.90 69.88 295.96 67.10 L 294.78 66.92 Z" />
<path fill="#463b48" opacity="1.00" d=" M 275.78 71.57 C 280.65 67.97 286.75 66.92 292.21 64.54 C 292.38 65.07 292.74 66.12 292.92 66.65 C 293.38 66.72 294.32 66.85 294.78 66.92 L 295.96 67.10 C 289.90 69.88 285.30 74.76 279.84 78.41 C 281.08 76.20 282.48 74.07 283.94 71.99 C 281.19 69.77 278.08 71.92 275.16 72.44 L 275.78 71.57 Z" />
<path fill="#feffc8" opacity="1.00" d=" M 133.97 66.15 C 143.39 68.56 152.93 70.51 162.53 72.02 C 161.11 72.57 159.68 73.12 158.24 73.61 C 151.08 73.58 144.58 69.68 137.40 69.57 C 136.29 68.39 135.13 67.27 133.97 66.15 Z" />
<path fill="#c1717c" opacity="1.00" d=" M 229.83 74.78 C 232.96 71.02 237.40 68.79 241.22 65.85 C 240.27 69.72 237.97 73.01 235.12 75.73 C 234.90 75.96 234.46 76.43 234.24 76.67 C 232.08 78.72 230.45 81.23 228.95 83.79 C 228.12 83.62 227.28 83.46 226.45 83.30 C 225.92 84.60 225.39 85.91 224.86 87.22 C 224.75 86.01 224.64 84.80 224.54 83.59 C 223.37 84.15 222.20 84.71 221.02 85.26 C 220.42 85.34 219.22 85.49 218.63 85.56 C 219.71 84.51 220.81 83.46 221.97 82.48 C 224.89 80.23 227.50 77.63 229.83 74.78 Z" />
<path fill="#844052" opacity="1.00" d=" M 325.61 70.91 C 328.37 69.48 331.32 68.43 334.43 68.14 C 336.08 71.79 337.27 75.62 339.02 79.22 C 339.31 79.33 339.90 79.54 340.20 79.65 L 340.62 79.80 C 340.71 81.25 340.80 82.71 340.89 84.17 C 336.03 79.49 330.60 75.46 325.61 70.91 Z" />
<path fill="#a6cbb0" opacity="1.00" d=" M 209.49 68.92 C 211.47 69.67 212.04 71.43 211.89 73.42 C 210.99 73.88 210.10 74.34 209.20 74.81 C 209.27 72.84 209.35 70.88 209.49 68.92 Z" />
<path fill="#291824" opacity="1.00" d=" M 261.83 95.94 C 264.91 86.69 268.92 77.55 274.76 69.71 C 275.01 70.18 275.52 71.10 275.78 71.57 L 275.16 72.44 C 273.03 75.16 271.53 78.49 271.92 82.02 C 271.92 86.21 275.44 90.76 279.97 90.14 C 285.46 89.77 288.54 84.50 292.40 81.26 C 294.69 79.60 295.07 76.83 295.24 74.21 C 295.99 75.02 296.74 75.84 297.49 76.66 C 298.48 75.58 299.47 74.50 300.37 73.33 C 301.16 76.64 301.35 80.57 304.14 82.93 C 306.53 85.00 309.21 86.73 311.32 89.12 C 307.77 88.20 304.19 87.01 301.28 84.71 C 298.55 82.71 297.71 79.24 295.92 76.52 C 296.04 81.33 298.30 86.17 296.47 90.91 C 298.08 94.70 301.38 97.38 303.19 101.05 C 301.03 99.93 298.98 98.61 297.00 97.20 C 296.55 97.42 295.63 97.85 295.18 98.07 C 292.00 95.01 287.57 93.26 283.17 93.43 C 280.69 95.71 277.91 93.12 275.30 92.62 C 270.57 91.70 265.91 93.74 261.83 95.94 Z" />
<path fill="#5095ac" opacity="1.00" d=" M 162.53 72.02 C 168.44 73.65 174.92 74.25 180.19 77.52 C 173.06 75.18 165.52 75.18 158.24 73.61 C 159.68 73.12 161.11 72.57 162.53 72.02 Z" />
<path fill="#261621" opacity="1.00" d=" M 240.48 73.55 C 242.36 73.54 244.06 72.68 245.76 71.96 C 245.83 72.50 245.98 73.59 246.06 74.14 C 248.06 72.81 250.20 71.27 252.75 71.97 C 253.07 73.05 253.41 74.14 253.74 75.22 C 253.23 76.62 252.71 78.01 252.20 79.40 C 251.97 77.91 251.75 76.41 251.54 74.92 C 249.45 79.99 246.38 85.22 247.45 90.92 C 248.51 96.64 247.87 102.65 250.17 108.11 C 253.59 107.33 256.54 105.34 258.92 102.82 C 258.82 107.24 258.69 111.66 258.71 116.08 C 258.79 118.59 256.36 120.10 254.97 121.87 C 250.72 114.49 246.76 105.91 238.77 101.90 C 242.18 109.68 249.07 115.33 252.32 123.16 C 250.25 122.46 248.29 121.49 246.41 120.39 C 246.01 121.56 245.61 122.73 245.21 123.90 C 242.98 122.98 240.77 122.03 238.54 121.10 C 237.75 122.64 236.95 124.18 236.16 125.72 C 234.48 123.96 232.80 122.21 231.38 120.25 C 230.54 116.67 229.04 113.18 225.99 110.94 C 227.07 114.66 229.36 118.35 228.30 122.35 C 224.78 120.91 221.33 119.32 217.86 117.76 C 215.64 119.24 213.49 120.83 211.45 122.54 C 201.72 130.49 191.12 137.47 179.61 142.55 C 174.67 144.69 169.83 147.06 164.99 149.41 C 162.85 145.31 160.08 141.51 158.69 137.05 C 156.34 129.89 153.76 122.57 153.97 114.93 C 155.00 110.64 158.02 106.64 162.18 104.95 C 158.92 110.80 155.13 117.04 155.96 124.04 C 155.92 126.29 158.41 127.00 159.84 128.23 C 160.34 131.66 161.84 134.90 164.88 136.79 C 168.34 134.44 171.70 131.95 174.89 129.23 C 180.19 127.20 184.96 124.09 190.09 121.70 C 189.53 123.18 188.97 124.65 188.41 126.13 C 196.17 121.29 203.74 116.11 211.85 111.85 C 217.71 108.99 220.16 102.62 223.33 97.36 C 225.19 94.02 228.58 91.81 230.24 88.33 C 232.11 84.65 233.13 80.63 234.24 76.67 C 234.46 76.43 234.90 75.96 235.12 75.73 C 235.52 76.36 236.31 77.63 236.70 78.27 C 238.02 76.74 239.31 75.19 240.48 73.55 Z" />
<path fill="#f2dacd" opacity="1.00" d=" M 190.26 79.16 C 197.64 77.95 205.23 77.76 212.43 75.65 C 215.14 79.32 215.76 83.87 215.17 88.31 C 213.25 89.30 211.28 90.21 209.32 91.12 C 209.51 92.59 209.70 94.07 209.89 95.55 C 209.03 94.40 208.20 93.24 207.38 92.06 C 206.12 92.27 204.86 92.48 203.60 92.67 C 202.40 92.83 201.21 92.97 200.02 93.12 C 196.90 89.83 192.36 89.22 188.05 89.49 C 190.62 86.88 193.33 84.43 196.10 82.04 C 191.29 81.76 186.32 83.41 181.66 81.64 C 184.60 81.08 187.59 80.88 190.58 80.77 C 190.50 80.37 190.34 79.56 190.26 79.16 Z" />
<path fill="#3e323e" opacity="1.00" d=" M 228.95 83.79 C 230.45 81.23 232.08 78.72 234.24 76.67 C 233.13 80.63 232.11 84.65 230.24 88.33 C 228.58 91.81 225.19 94.02 223.33 97.36 C 220.16 102.62 217.71 108.99 211.85 111.85 C 203.74 116.11 196.17 121.29 188.41 126.13 C 188.97 124.65 189.53 123.18 190.09 121.70 C 184.96 124.09 180.19 127.20 174.89 129.23 C 181.65 120.52 189.36 112.43 194.63 102.66 C 195.45 100.93 195.74 99.02 196.15 97.17 C 192.23 97.71 188.21 98.50 184.32 97.34 C 188.64 95.41 193.62 96.06 198.14 94.70 C 199.60 95.49 201.06 96.28 202.52 97.07 C 202.88 95.60 203.23 94.13 203.60 92.67 C 204.86 92.48 206.12 92.27 207.38 92.06 C 208.20 93.24 209.03 94.40 209.89 95.55 C 209.70 94.07 209.51 92.59 209.32 91.12 C 211.28 90.21 213.25 89.30 215.17 88.31 C 217.12 87.29 219.05 86.24 221.02 85.26 C 222.20 84.71 223.37 84.15 224.54 83.59 C 224.64 84.80 224.75 86.01 224.86 87.22 C 225.39 85.91 225.92 84.60 226.45 83.30 C 227.28 83.46 228.12 83.62 228.95 83.79 Z" />
<path fill="#f8e5d7" opacity="1.00" d=" M 170.05 84.72 C 173.11 83.07 176.28 81.57 179.03 79.39 C 182.77 79.27 186.52 79.29 190.26 79.16 C 190.34 79.56 190.50 80.37 190.58 80.77 C 187.59 80.88 184.60 81.08 181.66 81.64 C 186.32 83.41 191.29 81.76 196.10 82.04 C 193.33 84.43 190.62 86.88 188.05 89.49 C 192.36 89.22 196.90 89.83 200.02 93.12 C 201.21 92.97 202.40 92.83 203.60 92.67 C 203.23 94.13 202.88 95.60 202.52 97.07 C 201.06 96.28 199.60 95.49 198.14 94.70 C 193.62 96.06 188.64 95.41 184.32 97.34 C 182.02 98.90 179.84 100.61 177.59 102.23 C 176.79 99.03 176.29 95.75 176.00 92.46 C 174.56 93.37 173.13 94.27 171.68 95.15 C 171.90 94.59 172.35 93.47 172.57 92.91 C 173.55 91.20 174.85 89.70 176.03 88.12 C 175.01 88.67 173.96 89.18 172.98 89.78 C 172.23 87.96 171.17 86.32 170.05 84.72 Z" />
<path fill="#524147" opacity="1.00" d=" M 352.95 92.10 C 355.56 92.56 358.57 92.41 360.75 94.16 C 364.41 97.64 369.62 98.18 374.30 99.36 C 374.31 98.83 374.32 97.76 374.32 97.22 C 375.81 97.76 377.00 99.35 376.25 100.95 C 373.36 107.34 369.42 113.21 366.62 119.64 C 365.66 121.87 364.29 123.88 362.87 125.83 L 362.70 125.66 C 360.20 123.27 357.63 120.42 353.91 120.33 C 354.02 114.99 353.76 109.49 351.14 104.70 C 351.51 104.44 352.26 103.92 352.63 103.66 C 352.29 102.84 351.95 102.02 351.61 101.20 C 352.33 100.70 353.05 100.20 353.78 99.71 C 352.50 97.34 352.72 94.67 352.95 92.10 Z" />
<path fill="#2a1c27" opacity="1.00" d=" M 161.67 99.52 C 162.31 97.00 163.38 94.61 164.77 92.41 C 165.88 93.00 166.99 93.59 168.10 94.18 C 166.48 96.54 164.35 98.47 161.67 99.52 Z" />
<path fill="#463b48" opacity="1.00" d=" M 168.29 98.84 C 169.09 96.48 170.44 94.29 172.57 92.91 C 172.35 93.47 171.90 94.59 171.68 95.15 C 173.13 94.27 174.56 93.37 176.00 92.46 C 176.29 95.75 176.79 99.03 177.59 102.23 C 179.84 100.61 182.02 98.90 184.32 97.34 C 188.21 98.50 192.23 97.71 196.15 97.17 C 195.74 99.02 195.45 100.93 194.63 102.66 C 189.36 112.43 181.65 120.52 174.89 129.23 C 171.70 131.95 168.34 134.44 164.88 136.79 C 161.84 134.90 160.34 131.66 159.84 128.23 C 159.95 117.85 165.16 108.52 168.29 98.84 Z" />
<path fill="#ffffd7" opacity="1.00" d=" M 360.75 94.16 C 365.44 94.24 369.84 96.07 374.32 97.22 C 374.32 97.76 374.31 98.83 374.30 99.36 C 369.62 98.18 364.41 97.64 360.75 94.16 Z" />
<path fill="#19181d" opacity="1.00" d=" M 266.11 100.10 C 268.65 97.86 272.76 96.95 276.01 97.95 C 276.12 98.17 276.36 98.61 276.48 98.83 C 278.00 104.24 279.54 109.77 282.54 114.58 C 284.76 117.79 287.53 120.57 290.28 123.33 C 288.32 123.77 286.37 124.20 284.42 124.63 C 285.52 127.75 285.91 131.09 285.09 134.33 C 280.14 132.27 275.41 129.74 270.57 127.45 C 266.54 125.65 264.23 121.29 263.97 117.01 C 263.49 111.36 263.44 105.25 266.11 100.10 Z" />
<path fill="#e0efb6" opacity="1.00" d=" M 41.62 112.63 C 42.09 107.74 40.62 101.79 43.95 97.76 C 44.13 102.22 44.41 106.71 43.99 111.16 C 43.40 111.53 42.22 112.26 41.62 112.63 Z" />
<path fill="#392c38" opacity="1.00" d=" M 162.18 104.95 C 163.78 102.53 165.97 100.57 168.29 98.84 C 165.16 108.52 159.95 117.85 159.84 128.23 C 158.41 127.00 155.92 126.29 155.96 124.04 C 155.13 117.04 158.92 110.80 162.18 104.95 Z" />
<path fill="#56474b" opacity="1.00" d=" M 276.48 98.83 C 278.18 99.28 279.89 99.77 281.59 100.27 L 281.86 100.96 C 282.02 101.36 282.35 102.16 282.51 102.56 C 289.40 106.47 296.55 109.90 303.29 114.07 C 297.55 115.36 295.63 121.27 293.76 126.08 C 292.57 125.20 291.39 124.31 290.28 123.33 C 287.53 120.57 284.76 117.79 282.54 114.58 C 279.54 109.77 278.00 104.24 276.48 98.83 Z" />
<path fill="#feffc8" opacity="1.00" d=" M 281.86 100.96 C 286.79 102.29 291.21 104.93 295.51 107.60 C 298.94 109.76 302.41 111.98 305.11 115.04 C 304.66 114.80 303.75 114.31 303.29 114.07 C 296.55 109.90 289.40 106.47 282.51 102.56 C 282.35 102.16 282.02 101.36 281.86 100.96 Z" />
<path fill="#1f1b20" opacity="1.00" d=" M 342.34 112.00 C 343.71 108.20 347.77 106.39 351.14 104.70 C 353.76 109.49 354.02 114.99 353.91 120.33 C 353.90 121.85 353.89 123.37 353.89 124.89 C 353.87 126.45 353.88 128.02 353.89 129.59 C 352.28 128.14 350.57 125.98 348.11 126.96 C 345.99 127.16 345.19 129.24 344.30 130.83 C 342.92 124.68 341.61 118.33 342.34 112.00 Z" />
<path fill="#dfeeb4" opacity="1.00" d=" M 12.43 115.90 C 15.19 114.07 17.38 110.05 21.05 110.58 C 25.84 114.13 31.49 116.58 35.74 120.82 C 35.23 122.19 34.71 123.57 34.37 125.00 C 33.47 125.79 32.55 126.58 31.65 127.38 L 31.51 127.50 L 31.38 127.65 C 30.48 128.68 29.62 129.77 28.61 130.70 C 24.99 129.95 22.17 127.26 19.03 125.46 C 17.40 121.91 15.02 118.80 12.43 115.90 Z" />
<path fill="#2d80a7" opacity="1.00" d=" M 41.62 112.63 C 42.22 112.26 43.40 111.53 43.99 111.16 C 43.86 113.54 43.72 115.93 43.50 118.31 C 41.46 117.26 41.54 114.86 41.19 112.89 L 41.62 112.63 Z" />
<path fill="#71434f" opacity="1.00" d=" M 293.76 126.08 C 295.63 121.27 297.55 115.36 303.29 114.07 C 303.75 114.31 304.66 114.80 305.11 115.04 C 305.82 115.56 306.52 116.10 307.19 116.67 C 305.24 118.19 303.17 119.59 301.51 121.45 C 299.66 123.68 298.93 126.56 298.00 129.25 C 296.61 128.16 295.19 127.12 293.76 126.08 Z" />
<path fill="#b2d3b1" opacity="1.00" d=" M 8.88 119.46 C 10.07 118.28 11.25 117.08 12.43 115.90 C 15.02 118.80 17.40 121.91 19.03 125.46 C 16.18 123.68 13.18 122.11 9.99 121.01 C 9.80 120.76 9.44 120.24 9.26 119.99 L 8.88 119.46 Z" />
<path fill="#854052" opacity="1.00" d=" M 301.51 121.45 C 303.17 119.59 305.24 118.19 307.19 116.67 C 309.24 118.77 311.31 120.85 313.26 123.04 C 311.12 123.59 308.89 123.96 306.88 124.90 C 305.10 126.48 304.75 128.96 304.07 131.12 C 307.75 132.98 311.27 135.15 314.67 137.50 C 314.18 137.89 313.19 138.66 312.69 139.05 C 309.99 137.61 307.35 136.06 304.75 134.45 C 302.39 132.85 300.21 131.03 298.00 129.25 C 298.93 126.56 299.66 123.68 301.51 121.45 Z" />
<path fill="#2d1d28" opacity="1.00" d=" M 138.18 131.42 C 142.09 127.09 146.98 123.70 149.93 118.51 C 149.38 120.91 149.09 123.38 149.45 125.83 C 145.74 129.89 143.51 134.99 140.00 139.19 C 140.75 136.39 140.96 133.19 138.18 131.42 Z" />
<path fill="#3a88a8" opacity="1.00" d=" M 8.84 119.41 L 9.26 119.99 C 9.44 120.24 9.80 120.76 9.99 121.01 C 11.20 122.85 12.87 124.30 14.56 125.69 C 12.51 125.69 12.29 127.65 11.95 129.19 C 13.41 129.97 14.85 130.78 16.28 131.62 C 15.67 131.79 14.45 132.12 13.83 132.29 C 10.81 130.32 7.10 128.79 4.88 125.95 C 5.67 123.49 7.36 121.47 8.84 119.41 Z" />
<path fill="#703e4c" opacity="1.00" d=" M 353.91 120.33 C 357.63 120.42 360.20 123.27 362.70 125.66 C 361.55 127.81 360.30 129.89 358.90 131.88 C 357.21 129.56 355.54 127.23 353.89 124.89 C 353.89 123.37 353.90 121.85 353.91 120.33 Z" />
<path fill="#569aaa" opacity="1.00" d=" M 9.99 121.01 C 13.18 122.11 16.18 123.68 19.03 125.46 C 22.17 127.26 24.99 129.95 28.61 130.70 C 29.62 129.77 30.48 128.68 31.38 127.65 L 31.51 127.51 L 31.65 127.38 C 32.55 126.58 33.47 125.79 34.37 125.00 C 34.50 125.54 34.76 126.63 34.89 127.17 C 37.70 125.61 40.39 123.84 42.97 121.93 C 43.08 123.34 44.24 125.24 42.72 126.28 C 39.37 128.64 35.86 130.78 32.77 133.50 C 34.01 134.30 35.24 135.12 36.50 135.89 C 33.54 134.92 30.61 133.85 27.82 132.46 C 27.49 132.30 26.84 131.99 26.52 131.83 C 22.47 129.91 18.54 127.73 14.56 125.69 C 12.87 124.30 11.20 122.85 9.99 121.01 Z" />
<path fill="#a6cbb0" opacity="1.00" d=" M 35.74 120.82 C 37.66 122.95 40.47 122.17 42.97 121.93 C 40.39 123.84 37.70 125.61 34.89 127.17 C 34.76 126.63 34.50 125.54 34.37 125.00 C 34.71 123.57 35.23 122.19 35.74 120.82 Z" />
<path fill="#dca7a2" opacity="1.00" d=" M 219.53 121.18 C 220.29 121.82 221.06 122.46 221.82 123.12 C 224.66 125.64 227.52 128.14 230.43 130.59 C 229.91 131.27 229.41 131.96 228.92 132.66 C 227.74 134.72 226.79 136.90 225.82 139.07 C 222.32 134.38 219.03 129.54 215.56 124.83 C 216.89 123.62 218.21 122.40 219.53 121.18 Z" />
<path fill="#a74060" opacity="1.00" d=" M 231.38 120.25 C 232.80 122.21 234.48 123.96 236.16 125.72 C 236.95 124.18 237.75 122.64 238.54 121.10 C 240.77 122.03 242.98 122.98 245.21 123.90 C 245.61 122.73 246.01 121.56 246.41 120.39 C 248.29 121.49 250.25 122.46 252.32 123.16 C 253.18 124.77 254.03 126.38 254.88 128.00 C 256.65 126.80 258.27 125.41 260.03 124.19 C 261.12 124.48 261.23 126.16 261.95 126.98 C 263.18 129.20 265.34 130.69 266.70 132.83 C 255.08 131.15 243.25 130.05 231.54 131.59 C 231.27 131.34 230.71 130.84 230.43 130.59 C 227.52 128.14 224.66 125.64 221.82 123.12 C 224.96 124.48 228.25 125.44 231.52 126.43 C 231.44 124.37 231.36 122.31 231.38 120.25 Z" />
<path fill="#272128" opacity="1.00" d=" M 290.28 123.33 C 291.39 124.31 292.57 125.20 293.76 126.08 C 295.19 127.12 296.61 128.16 298.00 129.25 C 300.21 131.03 302.39 132.85 304.75 134.45 C 304.92 136.34 305.30 138.20 305.75 140.04 C 304.36 140.37 302.97 140.69 301.57 140.95 C 299.71 141.29 297.95 140.37 296.29 139.69 C 292.54 137.95 288.72 136.33 285.09 134.33 C 285.91 131.09 285.52 127.75 284.42 124.63 C 286.37 124.20 288.32 123.77 290.28 123.33 Z" />
<path fill="#a23b56" opacity="1.00" d=" M 306.88 124.90 C 308.89 123.96 311.12 123.59 313.26 123.04 C 318.62 129.10 322.53 136.36 324.30 144.28 C 320.31 142.81 316.44 141.04 312.69 139.05 C 313.19 138.66 314.18 137.89 314.67 137.50 C 311.27 135.15 307.75 132.98 304.07 131.12 C 304.75 128.96 305.10 126.48 306.88 124.90 Z" />
<path fill="#f7e3d4" opacity="1.00" d=" M 201.00 135.48 C 206.06 132.23 210.91 128.65 215.56 124.83 C 219.03 129.54 222.32 134.38 225.82 139.07 C 226.79 136.90 227.74 134.72 228.92 132.66 C 233.70 139.86 239.70 146.12 245.31 152.66 C 248.48 156.33 251.94 159.75 255.60 162.94 C 255.98 162.38 256.74 161.26 257.13 160.69 C 257.80 162.54 259.19 163.92 260.83 164.94 C 262.92 167.49 264.66 170.50 264.66 173.90 C 265.41 185.48 266.37 197.23 264.69 208.76 C 254.12 212.38 243.93 217.03 233.29 220.46 C 233.83 214.32 235.03 208.22 234.93 202.03 C 234.79 191.16 235.11 180.22 233.42 169.44 C 232.98 167.36 231.59 165.38 229.64 164.50 C 225.91 163.73 221.74 164.78 218.34 162.69 C 211.15 158.46 206.62 151.08 203.12 143.74 C 201.82 141.17 201.30 138.32 201.00 135.48 Z" />
<path fill="#2e232d" opacity="1.00" d=" M 353.89 124.89 C 355.54 127.23 357.21 129.56 358.90 131.88 L 359.05 132.08 C 356.10 136.21 353.73 140.80 350.14 144.44 C 347.36 140.29 345.99 135.47 344.30 130.83 C 345.19 129.24 345.99 127.16 348.11 126.96 C 350.57 125.98 352.28 128.14 353.89 129.59 C 353.88 128.02 353.87 126.45 353.89 124.89 Z" />
<path fill="#2d80a7" opacity="1.00" d=" M 11.95 129.19 C 12.29 127.65 12.51 125.69 14.56 125.69 C 18.54 127.73 22.47 129.91 26.52 131.83 C 25.36 133.66 24.29 135.54 23.41 137.52 C 25.04 135.97 26.44 134.23 27.82 132.46 C 30.61 133.85 33.54 134.92 36.50 135.89 C 44.55 140.18 52.32 144.99 60.55 148.96 C 58.92 151.75 56.32 155.01 58.82 158.13 C 59.86 155.54 60.74 152.86 62.14 150.44 C 62.42 150.16 62.96 149.62 63.23 149.34 C 67.10 152.56 70.97 156.30 76.21 156.95 C 79.19 158.16 82.07 159.59 84.87 161.16 C 79.93 164.12 75.05 167.18 70.53 170.76 C 65.90 168.10 61.67 162.78 55.69 164.68 C 55.09 162.68 54.42 160.56 52.57 159.37 C 45.89 154.38 39.21 149.37 32.41 144.56 C 29.95 142.65 26.81 142.26 23.84 141.80 C 23.25 136.62 17.16 135.41 13.83 132.29 C 14.45 132.12 15.67 131.79 16.28 131.62 C 14.85 130.78 13.41 129.97 11.95 129.19 Z" />
<path fill="#384236" opacity="1.00" d=" M 31.51 127.50 L 31.65 127.38 L 31.51 127.51 L 31.38 127.65 L 31.51 127.50 Z" />
<path fill="#dfeeb4" opacity="1.00" d=" M 32.77 133.50 C 35.86 130.78 39.37 128.64 42.72 126.28 C 49.39 132.06 56.58 137.20 63.84 142.19 C 65.19 143.20 66.83 143.66 68.42 144.16 C 66.64 145.84 64.99 147.65 63.23 149.34 C 62.96 149.62 62.42 150.16 62.14 150.44 C 63.02 148.83 63.84 147.18 64.59 145.51 C 63.16 146.56 61.76 147.66 60.55 148.96 C 52.32 144.99 44.55 140.18 36.50 135.89 C 35.24 135.12 34.01 134.30 32.77 133.50 Z" />
<path fill="#fff3e1" opacity="1.00" d=" M 133.65 157.60 C 140.07 148.41 145.41 138.49 151.68 129.22 C 154.03 137.61 157.35 146.39 164.11 152.24 C 177.11 148.47 189.46 142.52 201.00 135.48 C 201.30 138.32 201.82 141.17 203.12 143.74 C 206.62 151.08 211.15 158.46 218.34 162.69 C 221.74 164.78 225.91 163.73 229.64 164.50 C 231.59 165.38 232.98 167.36 233.42 169.44 C 235.11 180.22 234.79 191.16 234.93 202.03 C 235.03 208.22 233.83 214.32 233.29 220.46 C 227.62 222.38 222.02 224.50 216.25 226.12 C 194.17 226.38 171.98 225.37 150.19 221.58 C 141.24 219.75 131.92 218.29 124.00 213.45 C 120.71 210.90 117.74 207.97 114.36 205.53 C 115.21 204.30 116.05 203.08 116.89 201.85 C 114.28 190.06 118.50 177.33 126.54 168.50 C 129.43 165.22 131.07 161.10 133.65 157.60 Z" />
<path fill="#eac7c0" opacity="1.00" d=" M 228.92 132.66 C 229.41 131.96 229.91 131.27 230.43 130.59 C 230.71 130.84 231.27 131.34 231.54 131.59 C 239.38 139.16 247.53 146.47 254.18 155.15 C 255.30 156.92 256.22 158.80 257.13 160.69 C 256.74 161.26 255.98 162.38 255.60 162.94 C 251.94 159.75 248.48 156.33 245.31 152.66 C 239.70 146.12 233.70 139.86 228.92 132.66 Z" />
<path fill="#a2375a" opacity="1.00" d=" M 231.54 131.59 C 243.25 130.05 255.08 131.15 266.70 132.83 L 266.79 132.84 C 268.13 134.77 269.49 136.69 270.85 138.60 C 268.31 139.80 264.17 140.41 264.18 143.98 C 263.10 151.26 268.76 156.81 272.86 162.03 C 272.90 162.47 272.97 163.35 273.00 163.78 C 266.85 160.69 261.08 156.40 254.18 155.15 C 247.53 146.47 239.38 139.16 231.54 131.59 Z" />
<path fill="#000000" opacity="1.00" d=" M 26.52 131.83 C 26.84 131.99 27.49 132.30 27.82 132.46 C 26.44 134.23 25.04 135.97 23.41 137.52 C 24.29 135.54 25.36 133.66 26.52 131.83 Z" />
<path fill="#413541" opacity="1.00" d=" M 117.90 150.85 C 124.71 144.43 131.77 138.25 138.18 131.42 C 140.96 133.19 140.75 136.39 140.00 139.19 C 134.57 149.92 126.82 159.22 120.04 169.09 C 118.67 172.17 115.31 169.76 113.33 168.67 C 113.44 166.25 113.82 163.43 110.91 162.50 C 113.35 159.64 116.30 157.15 118.20 153.87 C 118.13 153.12 117.97 151.60 117.90 150.85 Z" />
<path fill="#3a2733" opacity="1.00" d=" M 304.75 134.45 C 307.35 136.06 309.99 137.61 312.69 139.05 C 316.44 141.04 320.31 142.81 324.30 144.28 L 324.70 144.43 C 324.86 146.24 325.02 148.04 325.18 149.85 C 317.27 147.00 309.16 144.60 301.57 140.95 C 302.97 140.69 304.36 140.37 305.75 140.04 C 305.30 138.20 304.92 136.34 304.75 134.45 Z" />
<path fill="#b1536a" opacity="1.00" d=" M 264.18 143.98 C 264.17 140.41 268.31 139.80 270.85 138.60 C 275.82 145.97 280.50 153.56 284.74 161.37 C 282.73 164.87 281.49 168.79 282.39 172.83 C 281.78 172.90 280.54 173.04 279.93 173.10 C 278.58 172.84 277.23 172.58 275.91 172.23 C 277.23 171.95 278.57 171.68 279.89 171.40 C 277.66 168.20 275.38 165.02 272.86 162.03 C 268.76 156.81 263.10 151.26 264.18 143.98 Z" />
<path fill="#64a2ab" opacity="1.00" d=" M 68.42 144.16 C 69.00 143.88 70.15 143.34 70.73 143.06 C 71.55 144.22 72.39 145.39 73.22 146.55 C 71.98 148.73 70.73 150.91 69.47 153.08 C 71.73 154.35 73.95 155.68 76.21 156.95 C 70.97 156.30 67.10 152.56 63.23 149.34 C 64.99 147.65 66.64 145.84 68.42 144.16 Z" />
<path fill="#000000" opacity="1.00" d=" M 60.55 148.96 C 61.76 147.66 63.16 146.56 64.59 145.51 C 63.84 147.18 63.02 148.83 62.14 150.44 C 60.74 152.86 59.86 155.54 58.82 158.13 C 56.32 155.01 58.92 151.75 60.55 148.96 Z" />
<path fill="#dfeeb4" opacity="1.00" d=" M 73.22 146.55 C 78.31 151.36 84.58 154.55 90.39 158.36 C 88.55 159.31 86.71 160.24 84.87 161.16 C 82.07 159.59 79.19 158.16 76.21 156.95 C 73.95 155.68 71.73 154.35 69.47 153.08 C 70.73 150.91 71.98 148.73 73.22 146.55 Z" />
<path fill="#321921" opacity="0.67" d=" M 107.24 152.27 C 107.10 150.51 110.08 150.24 110.98 151.42 C 109.93 152.29 108.51 152.22 107.24 152.27 Z" />
<path fill="#ac4a65" opacity="1.00" d=" M 254.18 155.15 C 261.08 156.40 266.85 160.69 273.00 163.78 C 272.97 163.35 272.90 162.47 272.86 162.03 C 275.38 165.02 277.66 168.20 279.89 171.40 C 278.57 171.68 277.23 171.95 275.91 172.23 C 270.73 170.12 266.05 166.98 260.83 164.94 C 259.19 163.92 257.80 162.54 257.13 160.69 C 256.22 158.80 255.30 156.92 254.18 155.15 Z" />
<path fill="#362830" opacity="1.00" d=" M 80.54 169.55 C 89.86 163.51 99.83 157.46 111.08 156.10 C 109.36 158.47 107.38 160.62 105.34 162.72 C 98.13 161.08 93.21 167.81 86.91 169.87 C 84.85 171.01 82.58 170.32 80.54 169.55 Z" />
<path fill="#1b191e" opacity="1.00" d=" M 86.91 169.87 C 93.21 167.81 98.13 161.08 105.34 162.72 C 104.39 164.57 103.27 166.42 101.41 167.49 C 93.90 172.30 87.42 178.46 80.99 184.59 C 77.90 181.79 75.69 178.23 73.50 174.73 C 75.46 172.68 77.69 170.91 80.08 169.40 L 80.54 169.55 C 82.58 170.32 84.85 171.01 86.91 169.87 Z" />
<path fill="#c06e7a" opacity="1.00" d=" M 282.39 172.83 C 281.49 168.79 282.73 164.87 284.74 161.37 C 289.20 169.32 293.31 177.47 296.93 185.83 C 296.60 186.32 295.94 187.31 295.61 187.80 C 289.85 183.46 286.65 176.14 279.93 173.10 C 280.54 173.04 281.78 172.90 282.39 172.83 Z" />
<path fill="#d08c8a" opacity="1.00" d=" M 260.83 164.94 C 266.05 166.98 270.73 170.12 275.91 172.23 C 277.23 172.58 278.58 172.84 279.93 173.10 C 286.65 176.14 289.85 183.46 295.61 187.80 C 295.94 187.31 296.60 186.32 296.93 185.83 C 298.56 189.84 300.30 193.80 301.88 197.82 C 300.28 200.34 298.92 203.00 297.60 205.67 C 299.34 208.59 300.70 211.70 302.01 214.82 C 299.64 214.08 297.20 213.54 294.71 213.41 C 293.06 214.67 291.26 215.92 290.61 218.01 C 282.89 221.32 275.03 224.28 267.39 227.78 C 259.10 231.48 250.34 233.88 241.67 236.47 C 243.24 231.78 247.85 229.46 251.33 226.39 C 255.24 222.97 260.17 220.50 262.99 215.98 C 264.42 213.85 264.53 211.23 264.69 208.76 C 266.37 197.23 265.41 185.48 264.66 173.90 C 264.66 170.50 262.92 167.49 260.83 164.94 Z" />
<path fill="#40353c" opacity="1.00" d=" M 88.46 183.36 C 94.59 177.92 101.00 172.67 108.24 168.76 C 107.69 172.39 106.73 175.93 105.48 179.38 L 105.16 179.60 C 101.77 181.67 98.89 184.54 95.29 186.27 C 92.58 187.30 90.21 185.16 88.46 183.36 Z" />
<path fill="#3a88a8" opacity="1.00" d=" M 110.31 179.03 C 110.81 176.85 111.33 174.67 111.85 172.50 C 113.31 173.34 114.78 174.18 116.24 175.02 C 114.30 176.40 112.32 177.74 110.31 179.03 Z" />
<path fill="#5095ac" opacity="1.00" d=" M 31.18 185.62 C 33.75 183.10 36.53 180.79 39.65 178.98 C 37.64 183.16 35.87 187.55 32.84 191.12 C 33.30 189.76 33.72 188.40 34.13 187.03 C 33.15 186.56 32.16 186.09 31.18 185.62 Z" />
<path fill="#2b252c" opacity="1.00" d=" M 95.29 186.27 C 98.89 184.54 101.77 181.67 105.16 179.60 C 104.54 184.96 101.87 189.80 99.11 194.34 C 98.35 193.54 97.60 192.74 96.85 191.94 C 91.83 195.82 86.38 199.79 79.70 199.53 C 80.32 196.62 80.57 193.56 81.83 190.83 C 83.61 188.00 86.06 185.67 88.46 183.36 C 90.21 185.16 92.58 187.30 95.29 186.27 Z" />
<path fill="#2a242b" opacity="1.00" d=" M 104.15 194.91 C 105.96 190.11 108.15 185.01 113.07 182.67 C 112.01 187.77 111.06 192.89 111.20 198.12 C 110.97 198.27 110.50 198.56 110.27 198.71 C 109.95 197.43 109.63 196.16 109.29 194.89 C 107.61 195.58 105.93 196.27 104.25 196.95 C 104.22 196.44 104.18 195.42 104.15 194.91 Z" />
<path fill="#dfeeb4" opacity="1.00" d=" M 21.98 201.11 C 23.49 195.17 27.06 190.05 31.18 185.62 C 32.16 186.09 33.15 186.56 34.13 187.03 C 33.72 188.40 33.30 189.76 32.84 191.12 C 30.17 195.32 26.36 198.77 21.98 201.11 Z" />
<path fill="#19181d" opacity="1.00" d=" M 79.70 199.53 C 86.38 199.79 91.83 195.82 96.85 191.94 C 97.60 192.74 98.35 193.54 99.11 194.34 C 96.43 198.15 93.83 202.19 90.08 205.05 C 86.02 208.28 77.93 205.43 79.03 199.58 L 79.70 199.53 Z" />
<path fill="#1e1b21" opacity="1.00" d=" M 101.27 200.16 C 101.47 198.09 102.95 196.49 104.15 194.91 C 104.18 195.42 104.22 196.44 104.25 196.95 C 105.93 196.27 107.61 195.58 109.29 194.89 C 109.63 196.16 109.95 197.43 110.27 198.71 C 110.50 198.56 110.97 198.27 111.20 198.12 C 112.18 199.25 113.09 201.34 111.56 202.42 C 108.84 203.99 105.84 204.97 102.96 206.18 C 102.30 204.20 101.39 202.26 101.27 200.16 Z" />
<path fill="#edcdc0" opacity="1.00" d=" M 114.36 205.53 C 117.74 207.97 120.71 210.90 124.00 213.45 C 123.60 214.65 123.20 215.85 122.81 217.05 L 122.22 216.47 C 119.16 213.34 115.71 210.53 111.56 209.01 C 112.49 207.85 113.43 206.69 114.36 205.53 Z" />
<path fill="#d69a96" opacity="1.00" d=" M 233.29 220.46 C 243.93 217.03 254.12 212.38 264.69 208.76 C 264.53 211.23 264.42 213.85 262.99 215.98 C 260.17 220.50 255.24 222.97 251.33 226.39 C 247.85 229.46 243.24 231.78 241.67 236.47 C 228.82 237.56 215.91 238.32 203.01 238.15 C 200.91 238.06 198.73 238.22 196.72 237.53 C 194.54 236.65 192.29 235.96 190.02 235.40 C 198.74 232.26 207.39 228.87 216.25 226.12 C 222.02 224.50 227.62 222.38 233.29 220.46 Z" />
<path fill="#e6bdb3" opacity="1.00" d=" M 122.81 217.05 C 123.20 215.85 123.60 214.65 124.00 213.45 C 131.92 218.29 141.24 219.75 150.19 221.58 C 146.97 221.61 144.00 222.85 142.02 225.42 C 144.82 226.38 147.63 227.32 150.44 228.26 C 150.44 228.68 150.43 229.52 150.42 229.94 C 149.77 229.74 148.47 229.34 147.82 229.14 C 139.18 225.94 129.44 223.91 122.81 217.05 Z" />
<path fill="#22151f" opacity="0.89" d=" M 116.58 215.05 C 117.52 218.57 118.29 222.14 119.37 225.62 C 117.28 223.91 115.38 221.71 114.89 218.97 C 115.21 217.57 115.95 216.33 116.58 215.05 Z" />
<path fill="#291824" opacity="1.00" d=" M 122.22 216.47 L 122.81 217.05 C 129.44 223.91 139.18 225.94 147.82 229.14 C 147.50 230.60 146.86 232.53 148.68 233.29 C 154.92 236.77 162.28 237.02 169.07 238.85 C 168.54 240.15 168.01 241.45 167.49 242.75 C 155.63 236.77 142.11 233.63 128.81 235.27 C 126.01 229.27 123.16 223.07 122.22 216.47 Z" />
<path fill="#261520" opacity="1.00" d=" M 267.39 227.78 C 275.03 224.28 282.89 221.32 290.61 218.01 C 292.27 225.19 293.36 232.50 294.32 239.80 C 286.99 240.47 279.63 240.81 272.28 241.40 C 270.51 241.18 268.75 240.91 266.99 240.64 C 267.44 236.37 267.81 232.07 267.39 227.78 Z" />
<path fill="#e2b4ab" opacity="1.00" d=" M 142.02 225.42 C 144.00 222.85 146.97 221.61 150.19 221.58 C 171.98 225.37 194.17 226.38 216.25 226.12 C 207.39 228.87 198.74 232.26 190.02 235.40 C 192.29 235.96 194.54 236.65 196.72 237.53 C 187.76 237.60 178.84 236.26 169.99 234.94 C 163.50 233.22 156.93 231.80 150.42 230.16 L 150.42 229.94 C 150.43 229.52 150.44 228.68 150.44 228.26 C 147.63 227.32 144.82 226.38 142.02 225.42 Z" />
<path fill="#31222e" opacity="1.00" d=" M 241.67 236.47 C 250.34 233.88 259.10 231.48 267.39 227.78 C 267.81 232.07 267.44 236.37 266.99 240.64 C 268.75 240.91 270.51 241.18 272.28 241.40 C 257.67 242.21 243.01 241.82 228.38 242.32 C 227.90 242.00 226.95 241.36 226.48 241.04 C 231.52 239.45 236.83 238.71 241.67 236.47 Z" />
<path fill="#3b2d39" opacity="1.00" d=" M 128.81 235.27 C 142.11 233.63 155.63 236.77 167.49 242.75 C 164.08 248.10 160.15 253.65 154.13 256.27 C 153.14 253.31 153.57 248.69 150.08 247.46 C 147.49 249.24 147.25 252.83 146.12 255.55 C 139.85 254.44 139.43 245.78 133.14 244.46 C 131.54 241.47 130.20 238.35 128.81 235.27 Z" />
<path fill="#403340" opacity="1.00" d=" M 272.28 241.40 C 279.63 240.81 286.99 240.47 294.32 239.80 C 294.52 242.11 294.71 244.42 294.91 246.74 C 292.99 245.45 290.98 244.29 288.89 243.30 C 287.31 246.10 286.66 249.24 286.39 252.41 C 283.95 253.49 281.48 254.50 278.98 255.44 C 276.21 251.11 271.74 248.42 267.95 245.11 C 264.46 248.93 262.18 253.67 259.95 258.30 C 254.85 258.65 252.62 253.09 249.48 250.04 C 247.91 252.31 246.59 254.74 244.96 256.97 C 241.55 256.84 237.72 256.44 235.25 253.82 C 230.99 249.65 226.00 246.12 222.63 241.14 C 223.93 240.90 225.21 240.87 226.48 241.04 C 226.95 241.36 227.90 242.00 228.38 242.32 C 243.01 241.82 257.67 242.21 272.28 241.40 Z" />
<path fill="#f2dacd" opacity="1.00" d=" M 138.60 253.96 C 136.87 252.07 134.57 249.77 134.89 247.01 C 135.77 249.50 136.84 251.94 138.60 253.96 Z" />
<path fill="#feffc8" opacity="1.00" d=" M 265.34 256.01 C 263.15 252.87 266.18 248.89 268.83 247.09 C 268.77 247.52 268.65 248.36 268.60 248.78 C 267.94 251.36 266.77 253.78 265.34 256.01 Z" />
<path fill="#f7e3d4" opacity="1.00" d=" M 291.54 249.64 C 289.75 250.82 287.38 246.96 289.90 246.55 C 291.19 246.73 292.19 248.48 291.54 249.64 Z" />
<path fill="#51464a" opacity="1.00" d=" M 268.60 248.78 C 269.39 249.50 270.19 250.23 270.99 250.95 C 270.54 253.08 270.11 255.20 269.69 257.34 L 269.63 257.64 C 267.79 257.74 265.95 257.83 264.12 257.94 C 264.42 257.46 265.03 256.49 265.34 256.01 C 266.77 253.78 267.94 251.36 268.60 248.78 Z" />
<path fill="#312a33" opacity="1.00" d=" M 270.99 250.95 C 272.43 252.57 274.12 254.05 275.05 256.05 C 274.04 257.64 271.35 256.86 269.69 257.34 C 270.11 255.20 270.54 253.08 270.99 250.95 Z" />
<path fill="#feffc8" opacity="1.00" d=" M 149.97 255.34 C 146.99 255.10 149.99 250.27 151.25 253.14 C 150.93 253.69 150.29 254.79 149.97 255.34 Z" />
<path fill="#ffffd7" opacity="1.00" d=" M 250.08 256.13 C 246.11 257.26 248.28 252.26 250.04 253.87 C 250.20 255.20 250.21 256.56 250.32 257.91 C 249.65 257.77 248.99 257.63 248.33 257.47 C 248.77 257.14 249.64 256.47 250.08 256.13 Z" />
</svg>
