<?xml version="1.0" encoding="UTF-8" ?>
<!DOCTYPE svg PUBLIC "-//W3C//DTD SVG 1.1//EN" "http://www.w3.org/Graphics/SVG/1.1/DTD/svg11.dtd">
<svg width="145pt" height="110pt" viewBox="0 0 145 110" version="1.1" xmlns="http://www.w3.org/2000/svg">
<path fill="#000000" opacity="1.00" d=" M 76.93 4.68 C 81.26 3.00 85.43 0.66 90.22 0.52 C 90.06 3.34 89.84 6.16 89.67 8.98 C 94.08 12.23 99.15 15.26 101.59 20.38 C 103.43 24.35 105.04 28.57 105.16 33.00 C 105.27 37.85 103.98 42.57 102.59 47.17 C 114.13 62.20 125.71 77.41 140.05 89.92 C 142.16 92.01 145.36 94.13 144.55 97.58 C 141.24 96.44 138.10 94.83 135.25 92.80 C 124.48 85.48 113.93 77.45 105.89 67.08 C 111.60 76.47 117.95 85.50 125.52 93.48 C 128.77 97.26 133.07 100.45 134.64 105.38 C 129.19 105.79 124.73 102.31 120.37 99.62 C 116.65 97.36 113.25 94.64 110.21 91.54 C 113.50 97.65 117.16 103.59 119.86 109.99 C 116.95 109.86 113.83 109.56 111.68 107.35 C 104.42 100.47 98.73 92.16 92.90 84.07 C 88.92 78.58 86.38 72.26 83.29 66.26 C 78.47 67.63 73.33 67.54 68.64 69.44 C 72.62 83.41 81.25 95.30 86.72 108.63 C 79.74 105.62 73.64 100.59 69.38 94.29 C 66.75 95.63 64.07 97.08 61.08 97.38 C 53.03 98.30 44.83 98.64 36.78 97.51 C 34.90 97.33 33.44 96.08 31.97 95.03 C 34.61 91.64 38.92 90.65 42.81 89.44 C 49.92 87.38 57.12 85.56 64.45 84.44 C 61.84 79.31 60.07 73.80 59.27 68.11 C 58.27 72.04 57.21 76.25 54.12 79.12 C 48.63 84.39 41.85 88.37 34.53 90.46 C 35.25 85.08 37.60 80.13 40.33 75.50 C 38.44 75.62 36.55 75.72 34.65 75.83 C 34.17 79.74 32.87 83.52 30.86 86.91 C 30.07 88.08 29.42 89.70 27.80 89.86 C 26.60 87.24 26.87 84.30 26.79 81.51 C 25.12 83.67 23.60 86.22 20.94 87.28 C 18.72 86.75 18.47 83.75 17.36 82.04 C 12.31 86.95 6.91 92.21 0.00 94.27 L 0.00 92.65 C 2.89 88.31 6.52 84.44 8.71 79.66 C 12.40 71.64 16.09 63.55 18.22 54.95 C 18.96 51.70 19.71 48.34 21.94 45.75 C 21.93 41.42 20.69 36.81 22.77 32.75 C 24.37 34.51 25.90 36.34 27.41 38.17 C 27.36 33.05 25.31 27.17 27.84 22.46 C 32.04 22.70 34.81 26.36 37.69 29.00 C 39.94 20.44 45.46 12.59 53.51 8.64 C 60.71 4.86 69.00 4.67 76.93 4.68 M 85.43 4.09 C 83.81 4.62 82.21 5.24 80.63 5.89 C 81.69 6.22 82.75 6.53 83.82 6.84 C 85.11 7.33 86.40 7.81 87.69 8.29 C 87.80 6.49 87.91 4.70 88.00 2.90 C 87.12 3.26 86.27 3.65 85.43 4.09 M 55.55 10.67 C 52.83 13.74 51.31 17.67 50.14 21.55 C 57.31 15.94 66.02 13.03 74.15 9.16 C 72.76 7.06 70.07 7.68 67.94 7.79 C 63.75 8.32 59.32 8.58 55.55 10.67 M 76.67 8.01 C 76.69 10.44 74.76 11.66 72.87 12.66 C 65.53 15.70 57.87 18.52 51.58 23.49 C 50.60 23.88 49.61 24.24 48.61 24.56 C 48.75 20.10 50.09 15.85 52.10 11.91 C 51.57 12.36 50.52 13.25 49.99 13.70 C 47.24 15.51 45.27 18.18 43.38 20.82 C 42.34 22.86 41.37 24.94 40.43 27.03 C 42.84 25.89 45.40 25.17 48.02 24.71 L 48.93 25.91 C 47.21 25.68 45.37 26.69 44.29 27.98 L 44.38 28.33 C 41.30 28.48 39.24 31.17 36.72 32.63 L 36.69 32.84 C 32.26 36.08 29.80 41.46 29.09 46.80 C 28.56 48.69 28.97 50.75 28.91 52.70 C 30.83 51.98 32.71 51.18 34.59 50.37 C 35.30 50.90 36.00 51.44 36.70 51.98 C 33.25 52.66 29.91 54.45 27.65 57.16 C 26.75 57.77 25.85 58.38 24.96 58.99 C 24.93 58.35 24.89 57.07 24.87 56.43 C 25.49 53.51 23.87 50.99 22.09 48.86 C 20.31 53.82 19.05 58.93 17.23 63.87 C 19.63 63.30 22.21 62.73 23.95 60.84 C 23.75 62.76 23.62 64.68 23.55 66.60 L 23.32 67.02 C 25.83 70.59 29.78 73.59 34.33 73.69 C 36.85 73.63 39.36 73.49 41.87 73.19 C 44.46 69.35 48.07 66.43 51.25 63.13 C 52.03 59.84 50.77 56.32 47.44 55.14 C 44.08 54.10 40.85 52.37 37.25 52.41 C 37.04 51.83 36.64 50.69 36.44 50.11 C 39.63 50.58 42.78 51.33 45.76 52.58 C 46.38 52.80 47.62 53.23 48.24 53.44 C 52.22 54.77 53.41 58.78 53.71 62.57 C 55.08 61.25 55.96 59.54 56.43 57.71 C 58.83 57.27 61.15 56.49 63.14 55.04 C 63.85 56.02 64.56 57.01 65.27 57.99 C 66.43 56.71 67.49 55.35 68.45 53.92 C 69.00 55.34 69.76 56.64 71.27 55.36 C 73.52 53.70 71.80 52.03 69.47 52.53 C 71.25 51.77 73.12 50.95 74.35 49.37 C 77.16 46.49 76.29 42.09 76.41 38.43 C 76.72 40.00 77.07 41.56 77.46 43.11 C 81.49 41.04 81.67 35.66 84.31 32.31 C 85.44 33.30 86.57 34.30 87.71 35.29 C 88.64 33.84 89.58 32.40 90.52 30.95 C 92.88 33.23 95.09 35.67 96.86 38.43 C 98.25 35.43 99.86 32.53 101.74 29.80 C 100.35 25.91 99.42 21.63 96.59 18.47 C 92.26 13.97 86.91 10.09 80.62 9.04 C 79.30 8.71 77.99 8.36 76.67 8.01 M 28.91 24.77 C 28.76 28.28 28.86 31.80 29.30 35.29 L 29.01 35.43 C 29.17 36.07 29.50 37.35 29.67 37.99 C 31.32 35.14 33.39 32.58 35.67 30.22 C 34.80 29.55 33.93 28.87 33.05 28.21 C 32.22 26.54 30.70 25.29 28.91 24.77 M 89.11 37.02 C 93.88 45.79 97.45 55.38 103.92 63.11 C 109.81 67.42 113.90 73.64 119.70 78.08 C 126.50 84.00 133.81 89.34 141.30 94.35 C 138.26 90.83 134.43 88.15 131.12 84.91 C 128.01 81.95 125.18 78.72 122.25 75.59 C 113.48 65.03 104.61 54.50 96.80 43.19 C 94.56 40.03 93.84 35.96 91.02 33.19 C 90.36 34.46 89.73 35.74 89.11 37.02 M 85.23 34.92 C 83.70 39.57 81.21 43.80 79.28 48.29 C 78.22 50.09 76.58 51.46 75.25 53.06 C 79.19 50.01 82.66 46.40 86.13 42.85 C 91.53 55.51 97.64 67.85 104.00 80.06 C 106.06 84.34 109.74 87.45 112.86 90.93 C 118.27 96.20 124.97 100.17 131.84 103.23 C 127.56 98.48 122.76 94.19 118.77 89.17 C 109.27 77.69 102.28 64.43 93.93 52.15 C 90.45 46.70 88.80 40.28 85.23 34.92 M 23.40 37.73 C 23.76 43.59 24.03 50.25 27.85 55.02 C 26.88 50.68 25.70 46.03 27.69 41.77 C 26.21 39.94 25.28 37.77 24.42 35.60 C 24.16 36.13 23.66 37.20 23.40 37.73 M 83.50 48.86 C 80.84 51.52 78.16 54.20 75.12 56.44 C 71.95 57.15 69.12 59.21 65.96 60.14 C 66.46 62.01 66.91 63.91 67.63 65.71 C 68.70 66.34 69.63 64.92 70.46 64.44 C 73.15 62.11 75.79 59.71 78.34 57.21 C 79.15 56.77 79.97 56.33 80.79 55.89 C 83.75 61.99 87.15 67.86 90.05 73.99 C 93.42 81.04 98.59 86.99 103.05 93.35 C 106.96 98.16 110.62 103.39 115.80 106.93 C 115.04 104.36 113.94 101.88 112.32 99.73 C 109.52 95.98 107.48 91.75 105.15 87.71 C 104.38 86.44 103.82 84.97 102.70 83.96 C 100.88 77.66 96.51 72.51 94.82 66.16 C 91.97 59.65 88.01 53.69 84.93 47.29 C 84.58 47.68 83.86 48.46 83.50 48.86 M 61.88 57.42 C 61.48 59.32 61.65 61.26 62.34 63.07 C 61.84 63.53 60.84 64.45 60.34 64.91 C 61.26 72.51 64.13 79.77 67.75 86.48 C 70.78 94.01 76.11 100.56 83.19 104.64 C 80.68 99.41 77.94 94.33 75.06 89.30 C 74.89 89.17 74.54 88.92 74.37 88.79 C 71.06 81.36 67.60 73.96 65.81 65.98 C 64.60 63.12 65.05 58.98 61.88 57.42 M 53.68 64.15 L 53.65 64.42 C 52.17 65.56 49.97 66.27 49.41 68.26 C 47.69 67.95 45.65 70.37 45.89 72.02 C 41.40 75.40 39.27 81.20 37.28 86.30 C 37.02 86.76 36.51 87.66 36.25 88.11 C 42.03 85.64 47.56 82.37 52.18 78.07 C 56.38 74.25 56.97 68.27 58.07 63.03 C 56.60 63.40 55.14 63.77 53.68 64.15 M 20.60 65.19 C 18.81 65.50 18.39 66.41 19.36 67.94 C 17.68 71.97 18.39 76.55 19.16 80.73 C 19.67 82.30 20.18 83.87 20.70 85.43 C 23.34 81.67 26.22 77.67 26.56 72.93 C 25.94 72.12 25.29 71.35 24.61 70.60 C 23.58 69.91 22.29 69.48 21.55 68.44 C 21.34 66.71 21.66 64.97 21.67 63.24 C 21.40 63.73 20.87 64.71 20.60 65.19 M 2.44 91.29 C 7.54 87.95 12.71 84.53 16.78 79.93 C 15.88 74.56 16.53 69.11 17.80 63.85 C 13.08 73.20 9.10 83.07 2.44 91.29 M 28.35 74.33 C 28.32 78.49 28.43 82.64 28.60 86.80 C 30.33 83.22 31.84 79.54 33.25 75.82 C 31.62 75.32 29.98 74.83 28.35 74.33 Z" />
<path fill="#9c311b" opacity="1.00" d=" M 85.43 4.09 C 86.27 3.65 87.12 3.26 88.00 2.90 C 87.91 4.70 87.80 6.49 87.69 8.29 C 86.40 7.81 85.11 7.33 83.82 6.84 C 84.34 5.92 84.88 5.00 85.43 4.09 Z" />
<path fill="#ffe05c" opacity="1.00" d=" M 80.63 5.89 C 82.21 5.24 83.81 4.62 85.43 4.09 C 84.88 5.00 84.34 5.92 83.82 6.84 C 82.75 6.53 81.69 6.22 80.63 5.89 Z" />
<path fill="#ffe05c" opacity="1.00" d=" M 55.55 10.67 C 59.32 8.58 63.75 8.32 67.94 7.79 C 70.07 7.68 72.76 7.06 74.15 9.16 C 66.02 13.03 57.31 15.94 50.14 21.55 C 51.31 17.67 52.83 13.74 55.55 10.67 Z" />
<path fill="#e5326e" opacity="1.00" d=" M 76.67 8.01 C 77.99 8.36 79.30 8.71 80.62 9.04 C 82.95 14.10 85.00 19.32 85.81 24.86 C 83.50 23.62 81.21 22.36 78.89 21.15 C 78.86 21.65 78.81 22.64 78.78 23.14 C 76.88 19.61 74.75 16.20 72.87 12.66 C 74.76 11.66 76.69 10.44 76.67 8.01 Z" />
<path fill="#640437" opacity="1.00" d=" M 80.62 9.04 C 86.91 10.09 92.26 13.97 96.59 18.47 C 99.42 21.63 100.35 25.91 101.74 29.80 C 99.86 32.53 98.25 35.43 96.86 38.43 C 95.09 35.67 92.88 33.23 90.52 30.95 C 89.58 32.40 88.64 33.84 87.71 35.29 C 86.57 34.30 85.44 33.30 84.31 32.31 C 85.04 30.98 85.76 29.64 86.38 28.25 C 86.21 27.12 86.02 25.99 85.81 24.86 C 85.00 19.32 82.95 14.10 80.62 9.04 Z" />
<path fill="#fe3d82" opacity="1.00" d=" M 49.99 13.70 C 50.52 13.25 51.57 12.36 52.10 11.91 C 50.09 15.85 48.75 20.10 48.61 24.56 C 48.46 24.60 48.17 24.67 48.02 24.71 C 45.40 25.17 42.84 25.89 40.43 27.03 C 41.37 24.94 42.34 22.86 43.38 20.82 C 44.02 20.78 45.29 20.72 45.93 20.69 C 47.43 18.45 48.74 16.09 49.99 13.70 Z" />
<path fill="#f6397c" opacity="1.00" d=" M 51.58 23.49 C 57.87 18.52 65.53 15.70 72.87 12.66 C 74.75 16.20 76.88 19.61 78.78 23.14 C 78.93 25.47 79.14 27.79 79.43 30.11 C 78.12 31.57 76.59 32.80 74.93 33.83 C 70.80 28.79 64.66 25.36 58.18 24.54 C 55.98 24.20 53.78 23.85 51.58 23.49 Z" />
<path fill="#ffe05c" opacity="1.00" d=" M 43.38 20.82 C 45.27 18.18 47.24 15.51 49.99 13.70 C 48.74 16.09 47.43 18.45 45.93 20.69 C 45.29 20.72 44.02 20.78 43.38 20.82 Z" />
<path fill="#cc285a" opacity="1.00" d=" M 78.89 21.15 C 81.21 22.36 83.50 23.62 85.81 24.86 C 86.02 25.99 86.21 27.12 86.38 28.25 C 84.06 28.86 81.73 29.43 79.43 30.11 C 79.14 27.79 78.93 25.47 78.78 23.14 C 78.81 22.64 78.86 21.65 78.89 21.15 Z" />
<path fill="#9a1f3c" opacity="1.00" d=" M 48.61 24.56 C 49.61 24.24 50.60 23.88 51.58 23.49 C 53.78 23.85 55.98 24.20 58.18 24.54 C 56.30 24.73 54.46 25.21 52.66 25.78 L 53.97 25.88 C 52.51 26.13 51.05 26.44 49.62 26.83 C 49.44 26.60 49.10 26.14 48.93 25.91 L 48.02 24.71 C 48.17 24.67 48.46 24.60 48.61 24.56 Z" />
<path fill="#000000" opacity="1.00" d=" M 58.18 24.54 C 64.66 25.36 70.80 28.79 74.93 33.83 C 75.33 34.53 75.70 35.24 76.09 35.95 C 75.61 35.49 74.67 34.55 74.20 34.08 C 71.26 30.27 66.95 28.11 62.44 26.71 C 59.67 26.07 56.81 26.01 53.97 25.88 L 52.66 25.78 C 54.46 25.21 56.30 24.73 58.18 24.54 Z" />
<path fill="#f33a7c" opacity="1.00" d=" M 28.91 24.77 C 30.70 25.29 32.22 26.54 33.05 28.21 C 33.36 28.83 33.99 30.07 34.30 30.69 C 33.49 30.53 31.87 30.21 31.06 30.05 C 31.02 31.52 30.96 33.00 30.88 34.48 C 30.48 34.68 29.69 35.09 29.30 35.29 C 28.86 31.80 28.76 28.28 28.91 24.77 Z" />
<path fill="#ffe05c" opacity="1.00" d=" M 44.29 27.98 C 45.37 26.69 47.21 25.68 48.93 25.91 C 49.10 26.14 49.44 26.60 49.62 26.83 C 47.98 27.67 46.23 28.27 44.38 28.33 L 44.29 27.98 Z" />
<path fill="#f93a7e" opacity="1.00" d=" M 53.97 25.88 C 56.81 26.01 59.67 26.07 62.44 26.71 C 60.49 27.45 58.53 28.20 56.58 28.94 C 56.71 30.98 57.19 33.06 56.85 35.10 C 55.04 38.40 52.04 41.09 51.47 45.00 C 54.28 45.59 57.11 46.13 59.93 46.68 C 55.56 49.41 50.67 51.09 45.76 52.58 C 42.78 51.33 39.63 50.58 36.44 50.11 C 36.64 50.69 37.04 51.83 37.25 52.41 C 40.85 52.37 44.08 54.10 47.44 55.14 C 46.40 58.30 44.72 61.33 41.13 61.91 C 37.54 62.89 34.17 66.75 36.44 70.52 C 35.73 71.58 35.03 72.64 34.33 73.69 C 29.78 73.59 25.83 70.59 23.32 67.02 L 23.55 66.60 C 25.53 63.74 26.36 60.34 27.65 57.16 C 29.91 54.45 33.25 52.66 36.70 51.98 C 36.00 51.44 35.30 50.90 34.59 50.37 C 32.71 51.18 30.83 51.98 28.91 52.70 C 28.97 50.75 28.56 48.69 29.09 46.80 C 32.20 42.55 36.55 38.46 36.69 32.84 L 36.72 32.63 C 39.24 31.17 41.30 28.48 44.38 28.33 C 46.23 28.27 47.98 27.67 49.62 26.83 C 51.05 26.44 52.51 26.13 53.97 25.88 M 37.93 41.08 C 38.91 43.00 41.19 42.93 43.03 42.91 C 43.17 43.52 43.47 44.75 43.62 45.36 C 43.54 44.65 43.39 43.24 43.31 42.54 C 46.12 41.34 49.04 37.96 47.11 34.86 C 43.59 30.34 35.33 36.14 37.93 41.08 M 27.52 64.35 C 32.72 67.75 38.41 58.58 33.13 55.50 C 29.89 57.05 26.29 60.45 27.52 64.35 Z" />
<path fill="#ee3779" opacity="1.00" d=" M 62.44 26.71 C 66.95 28.11 71.26 30.27 74.20 34.08 C 72.41 34.87 69.92 35.14 68.95 37.06 C 67.90 40.12 67.61 43.50 65.71 46.23 C 62.68 48.24 59.56 50.14 56.26 51.69 C 53.69 52.66 50.99 53.29 48.24 53.44 C 47.62 53.23 46.38 52.80 45.76 52.58 C 50.67 51.09 55.56 49.41 59.93 46.68 C 57.11 46.13 54.28 45.59 51.47 45.00 C 52.04 41.09 55.04 38.40 56.85 35.10 C 57.19 33.06 56.71 30.98 56.58 28.94 C 58.53 28.20 60.49 27.45 62.44 26.71 Z" />
<path fill="#8b122f" opacity="1.00" d=" M 33.05 28.21 C 33.93 28.87 34.80 29.55 35.67 30.22 C 33.39 32.58 31.32 35.14 29.67 37.99 C 29.50 37.35 29.17 36.07 29.01 35.43 L 29.30 35.29 C 29.69 35.09 30.48 34.68 30.88 34.48 C 30.96 33.00 31.02 31.52 31.06 30.05 C 31.87 30.21 33.49 30.53 34.30 30.69 C 33.99 30.07 33.36 28.83 33.05 28.21 Z" />
<path fill="#9d1853" opacity="1.00" d=" M 79.43 30.11 C 81.73 29.43 84.06 28.86 86.38 28.25 C 85.76 29.64 85.04 30.98 84.31 32.31 C 81.67 35.66 81.49 41.04 77.46 43.11 C 77.07 41.56 76.72 40.00 76.41 38.43 L 76.27 37.49 C 75.19 40.57 74.71 44.01 72.63 46.62 C 70.74 48.91 67.81 47.15 65.71 46.23 C 67.61 43.50 67.90 40.12 68.95 37.06 C 69.92 35.14 72.41 34.87 74.20 34.08 C 74.67 34.55 75.61 35.49 76.09 35.95 C 75.70 35.24 75.33 34.53 74.93 33.83 C 76.59 32.80 78.12 31.57 79.43 30.11 Z" />
<path fill="#000000" opacity="1.00" d=" M 37.93 41.08 C 35.33 36.14 43.59 30.34 47.11 34.86 C 49.04 37.96 46.12 41.34 43.31 42.54 C 43.39 43.24 43.54 44.65 43.62 45.36 C 43.47 44.75 43.17 43.52 43.03 42.91 C 41.19 42.93 38.91 43.00 37.93 41.08 M 40.32 35.30 C 39.14 36.55 38.30 38.23 38.63 39.98 C 40.62 43.09 46.47 40.70 45.72 37.09 C 45.75 34.55 41.81 33.26 40.32 35.30 Z" />
<path fill="#e3cf2f" opacity="1.00" d=" M 29.09 46.80 C 29.80 41.46 32.26 36.08 36.69 32.84 C 36.55 38.46 32.20 42.55 29.09 46.80 Z" />
<path fill="#e73371" opacity="1.00" d=" M 89.11 37.02 C 89.73 35.74 90.36 34.46 91.02 33.19 C 93.84 35.96 94.56 40.03 96.80 43.19 C 104.61 54.50 113.48 65.03 122.25 75.59 C 121.40 76.42 120.55 77.25 119.70 78.08 C 113.90 73.64 109.81 67.42 103.92 63.11 C 97.45 55.38 93.88 45.79 89.11 37.02 Z" />
<path fill="#ffe05c" opacity="1.00" d=" M 40.32 35.30 C 41.81 33.26 45.75 34.55 45.72 37.09 C 46.47 40.70 40.62 43.09 38.63 39.98 C 38.30 38.23 39.14 36.55 40.32 35.30 Z" />
<path fill="#de306a" opacity="1.00" d=" M 85.23 34.92 C 88.80 40.28 90.45 46.70 93.93 52.15 C 102.28 64.43 109.27 77.69 118.77 89.17 C 116.80 89.76 114.82 90.34 112.86 90.93 C 109.74 87.45 106.06 84.34 104.00 80.06 C 97.64 67.85 91.53 55.51 86.13 42.85 C 82.66 46.40 79.19 50.01 75.25 53.06 C 76.58 51.46 78.22 50.09 79.28 48.29 C 81.21 43.80 83.70 39.57 85.23 34.92 Z" />
<path fill="#c32351" opacity="1.00" d=" M 23.40 37.73 C 23.66 37.20 24.16 36.13 24.42 35.60 C 25.28 37.77 26.21 39.94 27.69 41.77 C 25.70 46.03 26.88 50.68 27.85 55.02 C 24.03 50.25 23.76 43.59 23.40 37.73 Z" />
<path fill="#790835" opacity="1.00" d=" M 72.63 46.62 C 74.71 44.01 75.19 40.57 76.27 37.49 L 76.41 38.43 C 76.29 42.09 77.16 46.49 74.35 49.37 C 73.12 50.95 71.25 51.77 69.47 52.53 C 71.80 52.03 73.52 53.70 71.27 55.36 C 69.76 56.64 69.00 55.34 68.45 53.92 C 67.49 55.35 66.43 56.71 65.27 57.99 C 64.56 57.01 63.85 56.02 63.14 55.04 C 61.15 56.49 58.83 57.27 56.43 57.71 C 56.46 55.70 56.35 53.69 56.26 51.69 C 59.56 50.14 62.68 48.24 65.71 46.23 C 67.81 47.15 70.74 48.91 72.63 46.62 Z" />
<path fill="#e63273" opacity="1.00" d=" M 83.50 48.86 C 83.86 48.46 84.58 47.68 84.93 47.29 C 88.01 53.69 91.97 59.65 94.82 66.16 C 96.51 72.51 100.88 77.66 102.70 83.96 C 99.09 81.93 97.46 77.99 95.46 74.58 C 93.57 71.16 91.38 67.92 89.29 64.61 C 86.24 59.85 84.78 54.31 83.50 48.86 Z" />
<path fill="#c92860" opacity="1.00" d=" M 22.09 48.86 C 23.87 50.99 25.49 53.51 24.87 56.43 C 24.89 57.07 24.93 58.35 24.96 58.99 C 24.70 59.45 24.20 60.38 23.95 60.84 C 22.21 62.73 19.63 63.30 17.23 63.87 C 19.05 58.93 20.31 53.82 22.09 48.86 Z" />
<path fill="#b8204e" opacity="1.00" d=" M 75.12 56.44 C 78.16 54.20 80.84 51.52 83.50 48.86 C 84.78 54.31 86.24 59.85 89.29 64.61 C 91.38 67.92 93.57 71.16 95.46 74.58 C 97.46 77.99 99.09 81.93 102.70 83.96 C 103.82 84.97 104.38 86.44 105.15 87.71 C 104.44 89.59 103.74 91.47 103.05 93.35 C 98.59 86.99 93.42 81.04 90.05 73.99 C 87.15 67.86 83.75 61.99 80.79 55.89 C 79.97 56.33 79.15 56.77 78.34 57.21 C 77.54 57.02 75.92 56.63 75.12 56.44 Z" />
<path fill="#b81e49" opacity="1.00" d=" M 48.24 53.44 C 50.99 53.29 53.69 52.66 56.26 51.69 C 56.35 53.69 56.46 55.70 56.43 57.71 C 55.96 59.54 55.08 61.25 53.71 62.57 C 53.41 58.78 52.22 54.77 48.24 53.44 Z" />
<path fill="#b81f4a" opacity="1.00" d=" M 47.44 55.14 C 50.77 56.32 52.03 59.84 51.25 63.13 C 48.07 66.43 44.46 69.35 41.87 73.19 C 39.36 73.49 36.85 73.63 34.33 73.69 C 35.03 72.64 35.73 71.58 36.44 70.52 C 40.64 71.80 45.51 69.25 46.70 64.98 C 46.33 62.27 43.54 61.16 41.13 61.91 C 44.72 61.33 46.40 58.30 47.44 55.14 Z" />
<path fill="#000000" opacity="1.00" d=" M 27.52 64.35 C 26.29 60.45 29.89 57.05 33.13 55.50 C 38.41 58.58 32.72 67.75 27.52 64.35 M 28.18 63.56 C 31.52 64.24 33.53 61.39 33.82 58.46 C 33.12 58.14 31.74 57.49 31.04 57.16 C 29.47 58.98 28.11 61.04 28.18 63.56 Z" />
<path fill="#8c0d2c" opacity="1.00" d=" M 65.96 60.14 C 69.12 59.21 71.95 57.15 75.12 56.44 C 75.92 56.63 77.54 57.02 78.34 57.21 C 75.79 59.71 73.15 62.11 70.46 64.44 C 69.63 64.92 68.70 66.34 67.63 65.71 C 66.91 63.91 66.46 62.01 65.96 60.14 Z" />
<path fill="#ffe05c" opacity="1.00" d=" M 24.96 58.99 C 25.85 58.38 26.75 57.77 27.65 57.16 C 26.36 60.34 25.53 63.74 23.55 66.60 C 23.62 64.68 23.75 62.76 23.95 60.84 C 24.20 60.38 24.70 59.45 24.96 58.99 Z" />
<path fill="#ffe05c" opacity="1.00" d=" M 28.18 63.56 C 28.11 61.04 29.47 58.98 31.04 57.16 C 31.74 57.49 33.12 58.14 33.82 58.46 C 33.53 61.39 31.52 64.24 28.18 63.56 Z" />
<path fill="#fe3d82" opacity="1.00" d=" M 61.88 57.42 C 65.05 58.98 64.60 63.12 65.81 65.98 C 67.60 73.96 71.06 81.36 74.37 88.79 C 72.36 87.58 71.41 85.37 70.38 83.39 C 66.95 76.93 64.46 70.06 62.34 63.07 C 61.65 61.26 61.48 59.32 61.88 57.42 Z" />
<path fill="#000000" opacity="1.00" d=" M 36.44 70.52 C 34.17 66.75 37.54 62.89 41.13 61.91 C 43.54 61.16 46.33 62.27 46.70 64.98 C 45.51 69.25 40.64 71.80 36.44 70.52 M 39.32 69.86 L 39.60 69.16 C 42.52 68.50 44.97 66.30 44.61 63.08 C 43.93 62.98 42.57 62.78 41.89 62.68 C 38.42 62.63 34.75 68.72 39.32 69.86 Z" />
<path fill="#ffe05c" opacity="1.00" d=" M 39.32 69.86 C 34.75 68.72 38.42 62.63 41.89 62.68 C 41.19 64.86 40.45 67.03 39.60 69.16 L 39.32 69.86 Z" />
<path fill="#c24e27" opacity="1.00" d=" M 41.89 62.68 C 42.57 62.78 43.93 62.98 44.61 63.08 C 44.97 66.30 42.52 68.50 39.60 69.16 C 40.45 67.03 41.19 64.86 41.89 62.68 Z" />
<path fill="#770c6a" opacity="1.00" d=" M 53.68 64.15 C 55.14 63.77 56.60 63.40 58.07 63.03 C 56.97 68.27 56.38 74.25 52.18 78.07 C 47.56 82.37 42.03 85.64 36.25 88.11 C 36.51 87.66 37.02 86.76 37.28 86.30 C 42.09 83.88 44.83 79.12 48.19 75.16 C 50.65 71.98 53.88 68.77 53.65 64.42 L 53.68 64.15 Z" />
<path fill="#ba3c6a" opacity="1.00" d=" M 20.60 65.19 C 20.87 64.71 21.40 63.73 21.67 63.24 C 21.66 64.97 21.34 66.71 21.55 68.44 C 22.29 69.48 23.58 69.91 24.61 70.60 C 23.32 74.23 22.04 78.01 19.16 80.73 C 18.39 76.55 17.68 71.97 19.36 67.94 C 20.09 67.16 20.50 66.25 20.60 65.19 Z" />
<path fill="#961133" opacity="1.00" d=" M 60.34 64.91 C 60.84 64.45 61.84 63.53 62.34 63.07 C 64.46 70.06 66.95 76.93 70.38 83.39 C 69.50 84.42 68.62 85.45 67.75 86.48 C 64.13 79.77 61.26 72.51 60.34 64.91 Z" />
<path fill="#ffe05c" opacity="1.00" d=" M 19.36 67.94 C 18.39 66.41 18.81 65.50 20.60 65.19 C 20.50 66.25 20.09 67.16 19.36 67.94 Z" />
<path fill="#b93c6a" opacity="1.00" d=" M 49.41 68.26 C 49.97 66.27 52.17 65.56 53.65 64.42 C 53.88 68.77 50.65 71.98 48.19 75.16 C 44.83 79.12 42.09 83.88 37.28 86.30 C 39.27 81.20 41.40 75.40 45.89 72.02 C 47.62 71.40 48.95 70.07 49.41 68.26 Z" />
<path fill="#ffe05c" opacity="1.00" d=" M 45.89 72.02 C 45.65 70.37 47.69 67.95 49.41 68.26 C 48.95 70.07 47.62 71.40 45.89 72.02 Z" />
<path fill="#800c3d" opacity="1.00" d=" M 2.44 91.29 C 9.10 83.07 13.08 73.20 17.80 63.85 C 16.53 69.11 15.88 74.56 16.78 79.93 C 12.71 84.53 7.54 87.95 2.44 91.29 Z" />
<path fill="#770c6a" opacity="1.00" d=" M 24.61 70.60 C 25.29 71.35 25.94 72.12 26.56 72.93 C 26.22 77.67 23.34 81.67 20.70 85.43 C 20.18 83.87 19.67 82.30 19.16 80.73 C 22.04 78.01 23.32 74.23 24.61 70.60 Z" />
<path fill="#8f0c27" opacity="1.00" d=" M 28.35 74.33 C 29.98 74.83 31.62 75.32 33.25 75.82 C 31.84 79.54 30.33 83.22 28.60 86.80 C 28.43 82.64 28.32 78.49 28.35 74.33 Z" />
<path fill="#c32351" opacity="1.00" d=" M 122.25 75.59 C 125.18 78.72 128.01 81.95 131.12 84.91 C 134.43 88.15 138.26 90.83 141.30 94.35 C 133.81 89.34 126.50 84.00 119.70 78.08 C 120.55 77.25 121.40 76.42 122.25 75.59 Z" />
<path fill="#af1b43" opacity="1.00" d=" M 67.75 86.48 C 68.62 85.45 69.50 84.42 70.38 83.39 C 71.41 85.37 72.36 87.58 74.37 88.79 C 74.54 88.92 74.89 89.17 75.06 89.30 C 77.94 94.33 80.68 99.41 83.19 104.64 C 76.11 100.56 70.78 94.01 67.75 86.48 Z" />
<path fill="#991131" opacity="1.00" d=" M 105.15 87.71 C 107.48 91.75 109.52 95.98 112.32 99.73 C 113.94 101.88 115.04 104.36 115.80 106.93 C 110.62 103.39 106.96 98.16 103.05 93.35 C 103.74 91.47 104.44 89.59 105.15 87.71 Z" />
<path fill="#b01c44" opacity="1.00" d=" M 118.77 89.17 C 122.76 94.19 127.56 98.48 131.84 103.23 C 124.97 100.17 118.27 96.20 112.86 90.93 C 114.82 90.34 116.80 89.76 118.77 89.17 Z" />
</svg>
