<?xml version="1.0" encoding="UTF-8" ?>
<!DOCTYPE svg PUBLIC "-//W3C//DTD SVG 1.1//EN" "http://www.w3.org/Graphics/SVG/1.1/DTD/svg11.dtd">
<svg width="52pt" height="120pt" viewBox="0 0 52 120" version="1.1" xmlns="http://www.w3.org/2000/svg">
<path fill="#000000" opacity="1.00" d=" M 22.40 0.00 L 23.88 0.00 C 23.14 5.31 23.96 10.67 23.43 16.00 C 23.05 20.02 23.28 24.07 24.08 28.02 C 24.97 25.02 25.94 22.04 27.34 19.24 C 27.98 25.61 27.43 32.46 30.96 38.14 C 37.16 49.09 41.61 60.95 44.54 73.17 C 45.37 77.95 49.02 81.35 52.00 84.90 L 52.00 91.28 C 51.23 92.17 50.45 93.04 49.66 93.91 C 51.61 103.25 48.89 113.36 41.91 119.99 C 38.41 118.36 35.19 116.20 32.25 113.69 C 30.11 115.17 28.01 116.84 25.50 117.65 C 22.05 117.63 18.64 116.97 15.19 116.85 C 13.34 115.62 11.48 114.39 9.64 113.13 C 8.74 113.98 7.84 114.83 6.93 115.68 C 2.50 110.88 1.02 104.29 0.32 97.99 C -0.12 92.71 2.94 87.20 0.00 82.25 L 0.00 81.03 C 0.96 78.60 1.88 76.16 2.51 73.63 C 4.20 66.70 7.20 60.12 8.07 52.99 C 8.94 45.91 12.68 39.56 17.34 34.31 C 19.63 31.77 20.49 28.30 20.45 24.95 C 20.51 16.62 19.74 8.05 22.40 0.00 M 21.76 22.47 C 22.68 17.26 23.50 11.92 22.76 6.63 C 20.49 11.47 20.35 17.37 21.76 22.47 M 22.22 29.84 C 22.24 30.88 22.27 32.96 22.29 34.01 C 21.55 33.03 20.83 32.04 20.11 31.05 C 20.30 32.40 20.46 33.75 20.62 35.10 C 15.07 39.38 13.34 46.68 10.26 52.67 C 9.93 54.20 9.59 55.73 9.26 57.26 L 9.13 58.68 C 11.85 59.63 14.56 60.63 17.34 61.39 C 15.35 61.42 13.46 60.85 11.68 60.00 C 10.68 59.92 9.68 59.85 8.67 59.79 C 8.09 68.26 4.44 76.25 4.07 84.78 C 2.72 90.07 2.12 95.57 2.37 101.02 C 3.53 104.84 5.47 109.02 9.37 110.68 C 14.43 113.18 20.54 114.56 26.03 113.26 C 26.79 113.20 28.30 113.08 29.05 113.02 L 30.03 112.32 C 31.75 113.28 34.42 112.16 35.24 110.43 L 35.06 110.01 C 35.36 109.93 35.96 109.75 36.26 109.67 C 39.79 108.85 43.87 106.54 44.37 102.62 L 44.58 102.84 C 45.64 101.63 46.81 100.43 47.38 98.90 C 47.85 96.53 46.61 94.34 46.16 92.08 C 45.94 91.30 45.49 89.75 45.27 88.97 C 45.26 88.30 45.24 86.95 45.23 86.28 L 44.50 86.24 C 44.74 82.29 43.06 78.29 41.60 74.65 C 40.63 69.79 38.78 65.16 37.42 60.40 C 34.67 52.73 32.49 44.67 27.94 37.81 C 27.46 37.44 26.49 36.68 26.01 36.31 C 26.21 35.92 26.60 35.14 26.79 34.75 C 25.09 33.29 23.49 31.70 22.22 29.84 M 2.24 80.14 C 0.86 80.58 0.89 83.01 2.18 83.56 C 3.54 83.25 3.58 80.51 2.24 80.14 M 45.18 79.87 C 45.83 82.40 45.86 85.29 47.55 87.40 C 46.37 88.54 46.49 89.48 47.93 90.22 C 48.87 89.51 50.34 89.16 50.71 87.89 C 50.42 86.85 49.98 85.86 49.55 84.87 C 48.38 82.97 46.79 81.39 45.18 79.87 M 45.84 102.05 L 45.80 103.40 C 43.14 107.30 39.26 109.94 34.90 111.61 C 36.55 114.03 38.66 116.07 40.97 117.87 C 42.95 115.68 45.07 113.32 45.47 110.26 C 46.54 107.72 47.12 105.03 47.60 102.33 L 45.84 102.05 M 13.24 113.47 C 13.76 113.99 14.79 115.03 15.31 115.56 C 16.36 115.60 17.42 115.64 18.48 115.67 C 20.50 116.02 22.53 116.27 24.56 116.60 C 26.12 115.86 27.59 114.95 28.94 113.87 C 27.35 113.80 25.80 114.00 24.29 114.47 C 20.58 114.75 16.80 114.75 13.24 113.47 Z" />
<path fill="#5b1514" opacity="1.00" d=" M 21.76 22.47 C 20.35 17.37 20.49 11.47 22.76 6.63 C 23.50 11.92 22.68 17.26 21.76 22.47 Z" />
<path fill="#ff8348" opacity="1.00" d=" M 22.22 29.84 C 23.49 31.70 25.09 33.29 26.79 34.75 C 26.60 35.14 26.21 35.92 26.01 36.31 C 26.49 36.68 27.46 37.44 27.94 37.81 C 29.45 41.32 31.26 44.69 32.60 48.26 C 32.93 51.88 32.83 55.55 31.91 59.08 C 31.97 59.79 33.04 60.60 32.34 61.26 C 28.95 63.35 24.78 63.09 20.97 63.62 C 25.72 63.97 30.50 63.74 35.15 62.71 C 35.07 65.04 35.26 67.44 34.66 69.72 C 33.72 71.20 32.07 72.00 30.61 72.86 C 28.17 73.58 25.87 74.67 23.65 75.89 C 26.00 75.80 28.35 75.68 30.71 75.56 C 27.23 78.65 23.15 81.91 22.02 86.64 C 23.07 87.18 24.15 87.60 25.28 87.91 C 22.63 89.05 19.97 90.17 17.30 91.27 C 17.78 92.03 18.28 92.79 18.78 93.55 C 16.67 93.70 14.56 93.64 12.45 93.54 C 11.35 92.62 10.20 91.75 8.99 90.97 L 8.21 91.58 C 7.07 92.49 5.94 93.43 4.81 94.35 C 4.42 91.18 4.10 87.98 4.07 84.78 C 4.44 76.25 8.09 68.26 8.67 59.79 C 9.68 59.85 10.68 59.92 11.68 60.00 C 13.46 60.85 15.35 61.42 17.34 61.39 C 21.10 61.94 24.92 62.50 28.69 61.76 C 24.64 59.80 19.43 61.20 15.93 58.09 C 15.46 56.51 16.39 53.42 13.95 53.32 C 13.03 53.15 11.18 52.83 10.26 52.67 C 13.34 46.68 15.07 39.38 20.62 35.10 C 20.46 33.75 20.30 32.40 20.11 31.05 C 20.83 32.04 21.55 33.03 22.29 34.01 C 22.27 32.96 22.24 30.88 22.22 29.84 M 15.00 45.67 C 14.68 46.02 14.05 46.71 13.73 47.06 C 13.87 49.40 17.15 47.30 15.66 45.86 C 16.83 45.38 17.54 43.65 16.88 42.54 C 15.61 42.51 14.51 44.53 15.00 45.67 M 7.43 69.39 L 8.11 71.42 L 6.92 70.93 C 10.44 75.79 16.73 77.53 22.38 75.68 C 19.96 74.34 17.27 73.72 14.56 73.31 C 12.45 71.57 10.01 70.29 7.43 69.39 M 6.23 80.02 C 7.88 83.46 10.16 87.48 14.27 88.19 C 13.12 84.78 10.43 82.21 7.80 79.90 C 7.41 79.93 6.63 79.99 6.23 80.02 Z" />
<path fill="#efe7ea" opacity="1.00" d=" M 27.94 37.81 C 32.49 44.67 34.67 52.73 37.42 60.40 C 38.78 65.16 40.63 69.79 41.60 74.65 L 40.92 73.41 C 40.68 72.79 40.22 71.54 39.99 70.92 C 39.38 71.41 38.18 72.39 37.57 72.88 C 37.50 72.60 37.34 72.05 37.27 71.78 C 37.85 71.56 39.03 71.13 39.61 70.91 C 38.97 68.28 38.15 65.69 37.09 63.20 C 35.05 58.39 34.53 53.11 32.60 48.26 C 31.26 44.69 29.45 41.32 27.94 37.81 Z" />
<path fill="#dbe869" opacity="1.00" d=" M 15.00 45.67 C 14.51 44.53 15.61 42.51 16.88 42.54 C 17.54 43.65 16.83 45.38 15.66 45.86 L 15.00 45.67 Z" />
<path fill="#6ca062" opacity="1.00" d=" M 13.73 47.06 C 14.05 46.71 14.68 46.02 15.00 45.67 L 15.66 45.86 C 17.15 47.30 13.87 49.40 13.73 47.06 Z" />
<path fill="#ef272f" opacity="1.00" d=" M 32.60 48.26 C 34.53 53.11 35.05 58.39 37.09 63.20 C 38.15 65.69 38.97 68.28 39.61 70.91 C 39.03 71.13 37.85 71.56 37.27 71.78 C 35.78 72.31 34.28 72.79 32.75 73.19 C 32.22 73.11 31.14 72.94 30.61 72.86 C 32.07 72.00 33.72 71.20 34.66 69.72 C 35.26 67.44 35.07 65.04 35.15 62.71 C 30.50 63.74 25.72 63.97 20.97 63.62 C 24.78 63.09 28.95 63.35 32.34 61.26 C 33.04 60.60 31.97 59.79 31.91 59.08 C 32.83 55.55 32.93 51.88 32.60 48.26 Z" />
<path fill="#ffa149" opacity="1.00" d=" M 10.26 52.67 C 11.18 52.83 13.03 53.15 13.95 53.32 C 16.39 53.42 15.46 56.51 15.93 58.09 C 13.76 57.51 11.49 57.46 9.26 57.26 C 9.59 55.73 9.93 54.20 10.26 52.67 Z" />
<path fill="#fcc247" opacity="1.00" d=" M 9.26 57.26 C 11.49 57.46 13.76 57.51 15.93 58.09 C 19.43 61.20 24.64 59.80 28.69 61.76 C 24.92 62.50 21.10 61.94 17.34 61.39 C 14.56 60.63 11.85 59.63 9.13 58.68 L 9.26 57.26 Z" />
<path fill="#9e5324" opacity="1.00" d=" M 7.43 69.39 C 10.01 70.29 12.45 71.57 14.56 73.31 C 12.35 72.93 10.17 72.34 8.11 71.42 L 7.43 69.39 Z" />
<path fill="#f8c245" opacity="1.00" d=" M 6.92 70.93 L 8.11 71.42 C 10.17 72.34 12.35 72.93 14.56 73.31 C 17.27 73.72 19.96 74.34 22.38 75.68 C 16.73 77.53 10.44 75.79 6.92 70.93 Z" />
<path fill="#fa5c38" opacity="1.00" d=" M 32.75 73.19 C 34.28 72.79 35.78 72.31 37.27 71.78 C 37.34 72.05 37.50 72.60 37.57 72.88 C 38.00 74.45 38.49 75.99 38.97 77.54 C 37.70 76.52 36.39 75.58 35.05 74.66 C 34.29 74.16 33.53 73.67 32.75 73.19 Z" />
<path fill="#e73a39" opacity="1.00" d=" M 37.57 72.88 C 38.18 72.39 39.38 71.41 39.99 70.92 C 40.22 71.54 40.68 72.79 40.92 73.41 C 41.88 80.53 44.84 87.25 45.26 94.47 C 44.07 97.21 43.29 100.16 41.73 102.72 C 40.48 104.69 37.98 104.76 35.95 105.28 C 41.57 99.56 42.29 91.10 41.41 83.54 C 41.25 81.33 40.29 79.29 38.97 77.54 C 38.49 75.99 38.00 74.45 37.57 72.88 Z" />
<path fill="#c34e2e" opacity="1.00" d=" M 23.65 75.89 C 25.87 74.67 28.17 73.58 30.61 72.86 C 31.14 72.94 32.22 73.11 32.75 73.19 C 33.53 73.67 34.29 74.16 35.05 74.66 C 33.60 74.94 32.14 75.20 30.71 75.56 C 28.35 75.68 26.00 75.80 23.65 75.89 Z" />
<path fill="#ff8348" opacity="1.00" d=" M 40.92 73.41 L 41.60 74.65 C 43.06 78.29 44.74 82.29 44.50 86.24 C 44.15 87.31 44.40 88.22 45.27 88.97 C 45.49 89.75 45.94 91.30 46.16 92.08 C 46.06 94.82 47.09 97.76 45.91 100.37 C 45.68 98.40 45.46 96.44 45.26 94.47 C 44.84 87.25 41.88 80.53 40.92 73.41 Z" />
<path fill="#000000" opacity="1.00" d=" M 30.71 75.56 C 32.14 75.20 33.60 74.94 35.05 74.66 C 36.39 75.58 37.70 76.52 38.97 77.54 C 40.29 79.29 41.25 81.33 41.41 83.54 C 40.36 84.42 39.33 85.32 38.26 86.17 C 34.55 89.08 29.63 88.44 25.28 87.91 C 24.15 87.60 23.07 87.18 22.02 86.64 C 23.15 81.91 27.23 78.65 30.71 75.56 M 24.06 84.15 C 23.30 84.81 22.78 85.67 22.52 86.73 L 24.05 86.61 C 29.64 88.18 36.57 88.14 40.42 83.11 C 41.05 80.43 37.91 78.56 36.55 76.50 C 35.40 76.06 34.22 75.81 33.00 75.75 C 29.03 77.01 26.34 80.84 24.06 84.15 Z" />
<path fill="#ffff0a" opacity="1.00" d=" M 24.06 84.15 C 26.34 80.84 29.03 77.01 33.00 75.75 C 34.22 75.81 35.40 76.06 36.55 76.50 C 36.30 77.38 35.81 79.13 35.57 80.01 C 35.32 80.11 34.84 80.30 34.60 80.40 C 30.81 80.74 27.50 82.73 24.06 84.15 Z" />
<path fill="#38b766" opacity="1.00" d=" M 36.55 76.50 C 37.91 78.56 41.05 80.43 40.42 83.11 C 36.57 88.14 29.64 88.18 24.05 86.61 C 28.12 85.69 32.25 84.07 34.60 80.40 C 34.84 80.30 35.32 80.11 35.57 80.01 C 35.81 79.13 36.30 77.38 36.55 76.50 Z" />
<path fill="#6b1420" opacity="1.00" d=" M 2.24 80.14 C 3.58 80.51 3.54 83.25 2.18 83.56 C 0.89 83.01 0.86 80.58 2.24 80.14 Z" />
<path fill="#6a581b" opacity="1.00" d=" M 6.23 80.02 C 6.63 79.99 7.41 79.93 7.80 79.90 C 10.43 82.21 13.12 84.78 14.27 88.19 C 10.16 87.48 7.88 83.46 6.23 80.02 Z" />
<path fill="#b6e806" opacity="1.00" d=" M 24.06 84.15 C 27.50 82.73 30.81 80.74 34.60 80.40 C 32.25 84.07 28.12 85.69 24.05 86.61 L 22.52 86.73 C 22.78 85.67 23.30 84.81 24.06 84.15 Z" />
<path fill="#ef272f" opacity="1.00" d=" M 45.18 79.87 C 46.79 81.39 48.38 82.97 49.55 84.87 C 49.49 85.55 49.37 86.90 49.31 87.57 C 48.87 87.53 47.99 87.44 47.55 87.40 C 45.86 85.29 45.83 82.40 45.18 79.87 Z" />
<path fill="#f6483c" opacity="1.00" d=" M 38.26 86.17 C 39.33 85.32 40.36 84.42 41.41 83.54 C 42.29 91.10 41.57 99.56 35.95 105.28 C 32.79 108.12 28.83 109.98 26.03 113.26 C 20.54 114.56 14.43 113.18 9.37 110.68 C 5.47 109.02 3.53 104.84 2.37 101.02 C 2.12 95.57 2.72 90.07 4.07 84.78 C 4.10 87.98 4.42 91.18 4.81 94.35 C 5.94 93.43 7.07 92.49 8.21 91.58 C 8.44 96.47 8.13 101.55 9.95 106.20 C 10.48 106.87 10.47 108.63 11.64 108.38 C 13.14 106.62 13.53 104.25 14.17 102.11 C 14.64 102.51 15.58 103.31 16.05 103.71 C 16.29 103.28 16.76 102.42 17.00 101.99 C 17.96 102.30 18.92 102.61 19.89 102.93 C 20.86 102.11 21.85 101.31 22.83 100.49 C 23.39 101.23 23.96 101.95 24.56 102.65 C 25.89 102.19 27.23 101.54 28.68 101.76 C 29.57 103.62 30.29 105.55 31.03 107.46 C 33.06 102.83 34.07 97.79 33.18 92.75 C 35.26 91.06 40.09 89.60 38.26 86.17 Z" />
<path fill="#efe7ea" opacity="1.00" d=" M 49.55 84.87 C 49.98 85.86 50.42 86.85 50.71 87.89 C 50.34 89.16 48.87 89.51 47.93 90.22 C 48.73 89.50 49.19 88.62 49.31 87.57 C 49.37 86.90 49.49 85.55 49.55 84.87 Z" />
<path fill="#efe7ea" opacity="1.00" d=" M 44.50 86.24 L 45.23 86.28 C 45.24 86.95 45.26 88.30 45.27 88.97 C 44.40 88.22 44.15 87.31 44.50 86.24 Z" />
<path fill="#ff6b3f" opacity="1.00" d=" M 25.28 87.91 C 29.63 88.44 34.55 89.08 38.26 86.17 C 40.09 89.60 35.26 91.06 33.18 92.75 C 31.75 93.62 30.33 94.54 28.92 95.45 C 27.78 94.38 26.39 94.49 25.01 94.89 C 24.69 94.48 24.04 93.65 23.72 93.24 C 22.73 94.02 21.73 94.80 20.74 95.58 C 20.07 94.92 19.41 94.24 18.78 93.55 C 18.28 92.79 17.78 92.03 17.30 91.27 C 19.97 90.17 22.63 89.05 25.28 87.91 Z" />
<path fill="#ff6b3f" opacity="1.00" d=" M 47.55 87.40 C 47.99 87.44 48.87 87.53 49.31 87.57 C 49.19 88.62 48.73 89.50 47.93 90.22 C 46.49 89.48 46.37 88.54 47.55 87.40 Z" />
<path fill="#000000" opacity="1.00" d=" M 8.99 90.97 C 10.20 91.75 11.35 92.62 12.45 93.54 C 14.56 93.64 16.67 93.70 18.78 93.55 C 19.41 94.24 20.07 94.92 20.74 95.58 C 21.73 94.80 22.73 94.02 23.72 93.24 C 24.04 93.65 24.69 94.48 25.01 94.89 C 26.39 94.49 27.78 94.38 28.92 95.45 C 30.33 94.54 31.75 93.62 33.18 92.75 C 34.07 97.79 33.06 102.83 31.03 107.46 C 30.29 105.55 29.57 103.62 28.68 101.76 C 27.23 101.54 25.89 102.19 24.56 102.65 C 23.96 101.95 23.39 101.23 22.83 100.49 C 21.85 101.31 20.86 102.11 19.89 102.93 C 18.92 102.61 17.96 102.30 17.00 101.99 C 16.76 102.42 16.29 103.28 16.05 103.71 C 15.58 103.31 14.64 102.51 14.17 102.11 C 13.53 104.25 13.14 106.62 11.64 108.38 C 10.47 108.63 10.48 106.87 9.95 106.20 C 8.13 101.55 8.44 96.47 8.21 91.58 L 8.99 90.97 M 8.93 91.67 C 9.16 96.97 9.21 102.37 11.11 107.41 C 11.42 106.84 12.03 105.71 12.34 105.14 C 12.74 103.42 13.13 101.70 13.50 99.98 C 14.05 100.64 15.15 101.97 15.70 102.63 C 16.37 101.93 17.01 101.21 17.64 100.47 C 16.34 98.68 16.21 96.47 15.64 94.41 C 14.50 93.46 13.07 94.60 11.81 94.69 C 11.58 93.20 9.92 92.59 8.93 91.67 M 16.39 94.15 C 17.16 95.86 16.77 100.10 19.53 99.70 C 22.14 97.23 19.24 94.17 16.39 94.15 M 21.45 95.92 C 21.20 97.98 23.01 98.71 24.60 99.33 C 24.44 99.80 24.13 100.73 23.97 101.19 L 25.39 101.73 C 25.46 101.21 25.60 100.15 25.67 99.63 C 23.55 98.66 24.52 96.12 24.14 94.33 C 23.46 94.72 22.12 95.52 21.45 95.92 M 28.43 97.06 C 29.05 99.97 30.02 102.77 31.15 105.51 C 31.37 104.62 31.79 102.84 32.01 101.95 C 32.52 99.23 32.52 96.46 32.54 93.71 C 31.17 94.82 29.81 95.96 28.43 97.06 M 26.25 96.14 C 24.48 99.13 29.64 96.40 26.25 96.14 M 20.64 100.35 C 21.37 99.67 21.37 99.67 20.64 100.35 M 19.91 100.92 C 19.06 101.41 19.06 101.41 19.91 100.92 C 20.09 100.78 20.46 100.49 20.64 100.35 C 20.46 100.49 20.09 100.78 19.91 100.92 M 27.25 99.95 C 27.73 100.55 27.73 100.55 27.25 99.95 Z" />
<path fill="#fbf8f9" opacity="1.00" d=" M 8.93 91.67 C 9.92 92.59 11.58 93.20 11.81 94.69 C 12.19 98.16 12.44 101.65 12.34 105.14 C 12.03 105.71 11.42 106.84 11.11 107.41 C 9.21 102.37 9.16 96.97 8.93 91.67 Z" />
<path fill="#efe7ea" opacity="1.00" d=" M 46.16 92.08 C 46.61 94.34 47.85 96.53 47.38 98.90 C 46.81 100.43 45.64 101.63 44.58 102.84 L 44.37 102.62 C 44.88 101.87 45.39 101.12 45.91 100.37 C 47.09 97.76 46.06 94.82 46.16 92.08 Z" />
<path fill="#a19199" opacity="1.00" d=" M 11.81 94.69 C 13.07 94.60 14.50 93.46 15.64 94.41 C 16.21 96.47 16.34 98.68 17.64 100.47 C 17.01 101.21 16.37 101.93 15.70 102.63 C 15.15 101.97 14.05 100.64 13.50 99.98 C 13.13 101.70 12.74 103.42 12.34 105.14 C 12.44 101.65 12.19 98.16 11.81 94.69 M 14.23 95.89 C 13.64 96.86 13.37 99.39 14.72 99.67 C 15.26 98.68 15.62 96.14 14.23 95.89 Z" />
<path fill="#fbf8f9" opacity="1.00" d=" M 16.39 94.15 C 19.24 94.17 22.14 97.23 19.53 99.70 C 16.77 100.10 17.16 95.86 16.39 94.15 Z" />
<path fill="#fbf8f9" opacity="1.00" d=" M 21.45 95.92 C 22.12 95.52 23.46 94.72 24.14 94.33 C 24.52 96.12 23.55 98.66 25.67 99.63 C 25.60 100.15 25.46 101.21 25.39 101.73 L 23.97 101.19 C 24.13 100.73 24.44 99.80 24.60 99.33 C 23.01 98.71 21.20 97.98 21.45 95.92 Z" />
<path fill="#efe7ea" opacity="1.00" d=" M 28.43 97.06 C 29.81 95.96 31.17 94.82 32.54 93.71 C 32.52 96.46 32.52 99.23 32.01 101.95 C 31.79 102.84 31.37 104.62 31.15 105.51 C 30.02 102.77 29.05 99.97 28.43 97.06 Z" />
<path fill="#be173e" opacity="1.00" d=" M 41.73 102.72 C 43.29 100.16 44.07 97.21 45.26 94.47 C 45.46 96.44 45.68 98.40 45.91 100.37 C 45.39 101.12 44.88 101.87 44.37 102.62 C 41.32 104.56 38.92 107.27 36.26 109.67 C 35.96 109.75 35.36 109.93 35.06 110.01 C 33.15 110.17 31.44 111.04 30.03 112.32 L 29.05 113.02 C 28.30 113.08 26.79 113.20 26.03 113.26 C 28.83 109.98 32.79 108.12 35.95 105.28 C 37.98 104.76 40.48 104.69 41.73 102.72 Z" />
<path fill="#fffcfd" opacity="1.00" d=" M 14.23 95.89 C 15.62 96.14 15.26 98.68 14.72 99.67 C 13.37 99.39 13.64 96.86 14.23 95.89 Z" />
<path fill="#efe7ea" opacity="1.00" d=" M 26.25 96.14 C 29.64 96.40 24.48 99.13 26.25 96.14 Z" />
<path fill="#efe7ea" opacity="1.00" d=" M 20.64 100.35 C 21.37 99.67 21.37 99.67 20.64 100.35 Z" />
<path fill="#b88a9e" opacity="1.00" d=" M 19.91 100.92 C 20.09 100.78 20.46 100.49 20.64 100.35 C 20.46 100.49 20.09 100.78 19.91 100.92 Z" />
<path fill="#efe7ea" opacity="1.00" d=" M 27.25 99.95 C 27.73 100.55 27.73 100.55 27.25 99.95 Z" />
<path fill="#efe7ea" opacity="1.00" d=" M 19.91 100.92 C 19.06 101.41 19.06 101.41 19.91 100.92 Z" />
<path fill="#7b43d6" opacity="1.00" d=" M 36.26 109.67 C 38.92 107.27 41.32 104.56 44.37 102.62 C 43.87 106.54 39.79 108.85 36.26 109.67 Z" />
<path fill="#a32c7c" opacity="1.00" d=" M 45.84 102.05 L 47.60 102.33 C 47.12 105.03 46.54 107.72 45.47 110.26 C 45.65 107.98 45.73 105.69 45.80 103.40 L 45.84 102.05 Z" />
<path fill="#df1935" opacity="1.00" d=" M 34.90 111.61 C 39.26 109.94 43.14 107.30 45.80 103.40 C 45.73 105.69 45.65 107.98 45.47 110.26 C 45.07 113.32 42.95 115.68 40.97 117.87 C 38.66 116.07 36.55 114.03 34.90 111.61 Z" />
<path fill="#852c7b" opacity="1.00" d=" M 30.03 112.32 C 31.44 111.04 33.15 110.17 35.06 110.01 L 35.24 110.43 C 34.42 112.16 31.75 113.28 30.03 112.32 Z" />
<path fill="#ffff0a" opacity="1.00" d=" M 13.24 113.47 C 16.80 114.75 20.58 114.75 24.29 114.47 C 22.41 115.12 20.49 115.71 18.48 115.67 C 17.42 115.64 16.36 115.60 15.31 115.56 C 14.79 115.03 13.76 113.99 13.24 113.47 Z" />
<path fill="#38b766" opacity="1.00" d=" M 24.29 114.47 C 25.80 114.00 27.35 113.80 28.94 113.87 C 27.59 114.95 26.12 115.86 24.56 116.60 C 22.53 116.27 20.50 116.02 18.48 115.67 C 20.49 115.71 22.41 115.12 24.29 114.47 Z" />
</svg>
