<?xml version="1.0" encoding="UTF-8" ?>
<!DOCTYPE svg PUBLIC "-//W3C//DTD SVG 1.1//EN" "http://www.w3.org/Graphics/SVG/1.1/DTD/svg11.dtd">
<svg width="111pt" height="153pt" viewBox="0 0 111 153" version="1.1" xmlns="http://www.w3.org/2000/svg">
<path fill="#000000" opacity="1.00" d=" M 38.74 19.84 C 42.31 10.04 51.68 2.89 61.86 1.21 C 68.81 -0.92 75.93 1.70 82.95 1.87 C 88.67 4.44 94.32 7.83 98.12 12.92 C 101.97 18.06 101.02 25.16 98.56 30.69 C 94.39 40.13 87.81 48.23 81.03 55.91 C 86.90 54.36 94.30 52.32 99.59 56.37 C 106.04 62.92 109.07 72.13 110.39 81.04 C 111.56 91.53 109.00 103.49 100.44 110.41 C 93.35 115.71 84.75 118.77 76.13 120.45 C 71.13 121.69 65.99 119.48 62.57 115.86 C 64.02 121.36 62.05 126.98 60.31 132.17 C 65.82 129.90 72.43 126.87 78.22 129.84 C 79.98 132.45 76.55 134.44 74.68 135.62 C 69.84 137.88 63.82 140.38 58.66 137.84 C 57.33 140.85 56.24 143.96 54.65 146.85 C 65.74 145.79 76.85 144.46 88.01 144.83 C 89.88 144.67 92.23 145.83 91.37 148.09 C 89.24 150.34 85.83 149.87 83.06 150.56 C 69.11 152.30 54.99 153.46 40.93 152.57 C 39.28 152.95 37.92 151.67 38.15 150.02 C 38.84 149.07 39.95 148.54 41.12 148.51 C 44.47 148.23 47.78 147.57 51.12 147.18 C 54.57 139.35 57.51 131.30 59.79 123.06 C 60.26 121.46 60.28 119.78 60.30 118.13 C 58.31 122.47 57.13 127.96 52.42 130.41 C 44.36 134.55 34.79 133.80 26.10 132.49 C 20.27 131.26 13.47 128.40 11.93 122.00 C 9.68 115.05 13.99 107.74 19.98 104.29 C 14.93 104.28 9.77 102.52 6.45 98.57 C 0.16 91.40 -0.59 81.21 0.45 72.12 C 2.23 60.96 7.97 49.79 17.85 43.80 C 23.43 40.28 31.27 40.80 35.88 45.69 C 34.46 37.00 36.10 28.14 38.74 19.84 M 57.07 6.05 C 47.73 9.29 41.13 18.28 39.96 28.00 C 37.40 37.71 38.40 48.23 43.03 57.16 C 43.95 56.70 44.89 56.27 45.84 55.86 C 48.45 57.18 51.50 55.89 54.10 57.37 C 58.59 58.58 62.70 60.98 66.24 63.97 C 75.25 56.72 83.29 48.23 89.62 38.53 C 92.72 33.81 95.70 28.78 96.66 23.14 C 97.54 18.50 94.86 13.24 90.46 11.49 C 87.23 9.39 84.04 7.11 80.38 5.82 C 72.98 2.63 64.57 3.76 57.07 6.05 M 13.76 51.80 C 4.98 61.45 1.76 75.56 4.85 88.16 C 6.89 96.07 14.74 102.89 23.05 101.79 C 22.51 103.12 22.37 104.52 22.64 105.99 L 21.92 105.83 C 16.93 108.73 12.78 114.54 14.68 120.53 C 16.34 127.14 24.13 128.76 29.92 129.61 C 35.46 130.43 41.07 130.18 46.58 129.35 C 48.89 128.64 51.31 127.81 52.98 125.97 C 55.21 123.47 56.06 120.17 56.97 117.03 C 57.61 113.50 59.31 109.60 57.12 106.27 C 53.45 108.10 49.58 109.47 45.54 110.19 C 39.93 111.30 33.91 109.60 30.00 105.38 C 30.63 104.87 31.25 104.36 31.88 103.85 C 34.27 107.06 38.39 108.87 42.34 108.63 C 51.43 108.50 60.26 103.88 66.68 97.61 C 72.93 92.57 74.57 82.92 70.96 75.96 C 71.10 74.28 70.12 72.99 69.07 71.80 C 68.04 69.55 66.15 67.81 64.29 66.22 C 58.77 61.89 52.00 58.49 44.82 58.81 C 32.18 66.41 26.19 82.63 28.75 96.86 C 28.19 97.30 27.08 98.18 26.52 98.62 C 25.95 95.75 25.60 92.84 25.52 89.91 C 25.81 77.97 31.09 65.80 40.98 58.75 C 39.52 56.24 38.73 53.32 36.87 51.08 C 33.90 48.19 30.38 44.88 25.92 45.17 C 21.06 45.14 16.92 48.41 13.76 51.80 M 75.52 62.48 C 73.21 63.76 71.87 67.12 68.77 66.27 C 72.73 70.94 74.97 76.92 75.29 83.01 C 75.43 88.46 73.02 93.72 69.29 97.63 C 66.38 100.57 62.95 102.90 59.45 105.06 C 60.81 108.82 63.39 111.99 66.10 114.88 C 68.97 117.99 73.66 117.55 77.38 116.57 C 85.47 114.13 94.26 111.67 100.26 105.37 C 103.41 102.39 104.91 98.13 106.06 94.05 C 108.33 82.67 105.66 70.47 98.88 61.06 C 97.69 59.52 96.11 57.97 94.07 57.81 C 87.63 57.47 81.01 59.11 75.52 62.48 M 59.42 135.63 C 65.33 136.54 71.89 135.23 76.55 131.40 C 70.56 130.34 64.47 132.55 59.42 135.63 Z" />
<path fill="#b83b6a" opacity="1.00" d=" M 57.07 6.05 C 64.57 3.76 72.98 2.63 80.38 5.82 C 79.54 17.51 74.92 28.48 69.93 38.93 C 65.75 45.92 59.76 51.59 54.10 57.37 C 51.50 55.89 48.45 57.18 45.84 55.86 C 44.89 56.27 43.95 56.70 43.03 57.16 C 38.40 48.23 37.40 37.71 39.96 28.00 C 41.13 18.28 47.73 9.29 57.07 6.05 Z" />
<path fill="#86165d" opacity="1.00" d=" M 80.38 5.82 C 84.04 7.11 87.23 9.39 90.46 11.49 C 94.86 13.24 97.54 18.50 96.66 23.14 C 95.70 28.78 92.72 33.81 89.62 38.53 C 83.29 48.23 75.25 56.72 66.24 63.97 C 62.70 60.98 58.59 58.58 54.10 57.37 C 59.76 51.59 65.75 45.92 69.93 38.93 C 74.92 28.48 79.54 17.51 80.38 5.82 Z" />
<path fill="#b83b6a" opacity="1.00" d=" M 13.76 51.80 C 16.92 48.41 21.06 45.14 25.92 45.17 C 30.38 44.88 33.90 48.19 36.87 51.08 C 38.73 53.32 39.52 56.24 40.98 58.75 C 31.09 65.80 25.81 77.97 25.52 89.91 C 18.63 90.50 11.21 91.66 4.85 88.16 C 1.76 75.56 4.98 61.45 13.76 51.80 Z" />
<path fill="#b93c6a" opacity="1.00" d=" M 75.52 62.48 C 81.01 59.11 87.63 57.47 94.07 57.81 C 96.11 57.97 97.69 59.52 98.88 61.06 C 105.66 70.47 108.33 82.67 106.06 94.05 C 104.91 98.13 103.41 102.39 100.26 105.37 C 89.77 104.26 78.10 104.20 69.29 97.63 C 73.02 93.72 75.43 88.46 75.29 83.01 C 74.97 76.92 72.73 70.94 68.77 66.27 C 71.87 67.12 73.21 63.76 75.52 62.48 Z" />
<path fill="#fedd5c" opacity="1.00" d=" M 28.75 96.86 C 26.19 82.63 32.18 66.41 44.82 58.81 C 52.00 58.49 58.77 61.89 64.29 66.22 C 64.63 68.37 64.75 70.55 64.75 72.73 C 62.58 74.79 57.13 77.73 60.15 81.13 C 60.97 81.25 62.60 81.50 63.41 81.62 C 62.95 82.74 62.49 83.86 62.03 84.98 C 59.06 92.21 53.62 97.92 48.95 104.03 C 47.21 106.14 44.61 107.22 42.34 108.63 C 38.39 108.87 34.27 107.06 31.88 103.85 C 33.52 102.07 36.05 99.25 34.16 96.83 C 32.79 94.81 30.36 95.75 28.75 96.86 M 48.46 72.52 C 46.29 73.34 44.37 75.53 44.62 77.97 C 45.20 80.82 48.64 82.80 51.27 81.20 C 53.31 79.63 54.59 76.36 52.95 74.06 C 52.04 72.59 50.09 71.86 48.46 72.52 M 46.08 94.98 C 45.18 95.69 42.83 94.97 43.14 96.72 C 46.25 97.43 48.80 94.51 48.36 91.52 C 46.33 90.70 46.46 93.80 46.08 94.98 Z" />
<path fill="#c76848" opacity="1.00" d=" M 64.29 66.22 C 66.15 67.81 68.04 69.55 69.07 71.80 C 67.62 72.07 66.17 72.36 64.75 72.73 C 64.75 70.55 64.63 68.37 64.29 66.22 Z" />
<path fill="#000000" opacity="1.00" d=" M 48.46 72.52 C 50.09 71.86 52.04 72.59 52.95 74.06 C 54.59 76.36 53.31 79.63 51.27 81.20 C 48.64 82.80 45.20 80.82 44.62 77.97 C 44.37 75.53 46.29 73.34 48.46 72.52 M 45.87 74.91 C 43.68 77.02 47.33 80.55 49.28 78.17 C 51.05 75.99 48.05 73.24 45.87 74.91 Z" />
<path fill="#ff3d83" opacity="1.00" d=" M 64.75 72.73 C 66.17 72.36 67.62 72.07 69.07 71.80 C 70.12 72.99 71.10 74.28 70.96 75.96 C 69.15 78.66 66.46 80.56 63.41 81.62 C 62.60 81.50 60.97 81.25 60.15 81.13 C 57.13 77.73 62.58 74.79 64.75 72.73 Z" />
<path fill="#d7d4c7" opacity="1.00" d=" M 45.87 74.91 C 48.05 73.24 51.05 75.99 49.28 78.17 C 47.33 80.55 43.68 77.02 45.87 74.91 Z" />
<path fill="#bd5244" opacity="1.00" d=" M 63.41 81.62 C 66.46 80.56 69.15 78.66 70.96 75.96 C 74.57 82.92 72.93 92.57 66.68 97.61 C 66.94 95.90 67.83 94.20 67.59 92.47 C 65.58 90.09 62.93 88.12 62.03 84.98 C 62.49 83.86 62.95 82.74 63.41 81.62 Z" />
<path fill="#b64242" opacity="1.00" d=" M 62.03 84.98 C 62.93 88.12 65.58 90.09 67.59 92.47 C 67.83 94.20 66.94 95.90 66.68 97.61 C 60.26 103.88 51.43 108.50 42.34 108.63 C 44.61 107.22 47.21 106.14 48.95 104.03 C 53.62 97.92 59.06 92.21 62.03 84.98 Z" />
<path fill="#9c2662" opacity="1.00" d=" M 4.85 88.16 C 11.21 91.66 18.63 90.50 25.52 89.91 C 25.60 92.84 25.95 95.75 26.52 98.62 C 25.31 99.61 24.16 100.68 23.05 101.79 C 14.74 102.89 6.89 96.07 4.85 88.16 Z" />
<path fill="#000000" opacity="1.00" d=" M 46.08 94.98 C 46.46 93.80 46.33 90.70 48.36 91.52 C 48.80 94.51 46.25 97.43 43.14 96.72 C 42.83 94.97 45.18 95.69 46.08 94.98 Z" />
<path fill="#ff3d83" opacity="1.00" d=" M 28.75 96.86 C 30.36 95.75 32.79 94.81 34.16 96.83 C 36.05 99.25 33.52 102.07 31.88 103.85 C 31.25 104.36 30.63 104.87 30.00 105.38 C 27.72 106.64 25.09 106.95 22.64 105.99 C 22.37 104.52 22.51 103.12 23.05 101.79 C 24.16 100.68 25.31 99.61 26.52 98.62 C 27.08 98.18 28.19 97.30 28.75 96.86 Z" />
<path fill="#8a185e" opacity="1.00" d=" M 59.45 105.06 C 62.95 102.90 66.38 100.57 69.29 97.63 C 78.10 104.20 89.77 104.26 100.26 105.37 C 94.26 111.67 85.47 114.13 77.38 116.57 C 73.66 117.55 68.97 117.99 66.10 114.88 C 63.39 111.99 60.81 108.82 59.45 105.06 Z" />
<path fill="#b33768" opacity="1.00" d=" M 14.68 120.53 C 12.78 114.54 16.93 108.73 21.92 105.83 L 22.64 105.99 C 25.09 106.95 27.72 106.64 30.00 105.38 C 33.91 109.60 39.93 111.30 45.54 110.19 C 45.69 116.98 41.09 122.92 36.41 127.43 C 34.78 129.30 32.27 129.66 29.92 129.61 C 24.13 128.76 16.34 127.14 14.68 120.53 Z" />
<path fill="#962261" opacity="1.00" d=" M 45.54 110.19 C 49.58 109.47 53.45 108.10 57.12 106.27 C 59.31 109.60 57.61 113.50 56.97 117.03 C 56.06 120.17 55.21 123.47 52.98 125.97 C 51.31 127.81 48.89 128.64 46.58 129.35 C 41.07 130.18 35.46 130.43 29.92 129.61 C 32.27 129.66 34.78 129.30 36.41 127.43 C 41.09 122.92 45.69 116.98 45.54 110.19 Z" />
<path fill="#e2f2a1" opacity="1.00" d=" M 59.42 135.63 C 64.47 132.55 70.56 130.34 76.55 131.40 C 71.89 135.23 65.33 136.54 59.42 135.63 Z" />
</svg>
