<?xml version="1.0" encoding="UTF-8" ?>
<!DOCTYPE svg PUBLIC "-//W3C//DTD SVG 1.1//EN" "http://www.w3.org/Graphics/SVG/1.1/DTD/svg11.dtd">
<svg width="144pt" height="72pt" viewBox="0 0 144 72" version="1.1" xmlns="http://www.w3.org/2000/svg">
<path fill="#000000" opacity="1.00" d=" M 91.10 12.60 C 96.70 7.46 102.85 2.56 110.10 0.01 C 116.95 11.61 120.58 24.86 121.64 38.25 C 128.32 40.23 135.75 41.16 141.22 45.88 C 144.03 48.37 139.83 52.22 141.70 55.09 C 142.40 56.35 143.23 57.54 144.00 58.75 L 144.00 59.60 C 141.96 61.87 139.75 64.17 136.92 65.43 C 124.78 69.39 111.45 70.67 99.14 66.69 C 97.53 67.07 95.88 67.32 94.22 67.39 C 91.17 68.55 88.23 70.17 84.96 70.65 C 81.82 70.81 78.88 69.49 75.84 68.91 C 72.85 68.97 70.01 70.59 66.99 70.23 C 65.35 69.74 63.82 68.97 62.27 68.27 C 61.20 68.98 60.18 69.81 58.97 70.28 C 56.15 69.83 53.60 68.48 51.04 67.33 C 45.03 70.02 38.43 70.84 31.93 71.42 C 25.59 71.85 19.17 71.97 12.89 70.87 C 8.63 70.25 5.17 67.50 1.76 65.10 C 2.17 63.37 2.57 61.63 2.99 59.90 C 2.02 58.05 0.99 56.23 0.00 54.39 L 0.00 53.03 C 6.72 48.25 14.75 45.94 22.57 43.70 C 24.64 36.00 27.43 28.52 30.34 21.11 C 32.19 16.64 33.89 12.01 36.85 8.11 L 37.11 9.72 C 32.87 20.85 27.78 31.77 25.13 43.43 C 30.46 42.26 35.71 40.78 40.99 39.37 C 42.40 32.69 43.00 25.87 44.51 19.20 C 44.77 18.27 45.03 17.34 45.30 16.41 C 46.73 16.98 48.16 17.55 49.59 18.12 C 49.69 17.59 49.90 16.53 50.00 16.00 C 51.32 16.46 52.63 16.96 53.85 17.66 L 53.06 17.99 C 51.47 19.76 55.74 20.41 54.60 18.07 C 55.99 19.00 57.65 19.24 59.27 19.45 C 57.58 19.96 55.69 20.24 54.39 21.56 C 54.04 21.42 53.32 21.13 52.97 20.99 C 51.31 22.68 49.50 24.49 49.10 26.93 C 49.57 27.14 50.51 27.57 50.98 27.78 C 49.74 29.00 48.55 30.27 47.47 31.63 C 47.52 32.79 47.22 33.84 46.58 34.77 L 46.59 35.59 L 45.35 35.38 C 45.36 36.33 45.37 38.23 45.38 39.18 C 46.75 38.49 48.12 37.79 49.49 37.10 C 49.42 37.50 49.27 38.31 49.20 38.72 C 51.25 38.72 53.30 38.74 55.36 38.81 C 54.37 40.52 52.31 41.80 52.14 43.87 C 54.96 44.87 57.63 42.24 59.38 40.25 C 56.77 37.71 53.28 36.79 49.71 37.01 C 53.23 35.41 57.70 36.83 59.79 40.05 C 59.90 43.32 55.63 44.02 53.32 45.14 C 55.80 47.46 58.17 49.93 59.91 52.87 C 58.94 53.51 57.98 54.17 57.00 54.79 C 56.33 55.17 55.65 55.53 54.97 55.87 L 53.90 56.37 C 51.99 57.17 50.08 57.95 48.18 58.77 C 50.18 62.56 52.20 67.05 56.71 68.32 C 58.73 69.45 60.36 67.28 61.90 66.30 C 63.58 67.11 65.24 68.00 67.04 68.52 C 70.22 68.36 73.28 67.33 76.42 66.82 C 78.67 67.88 81.09 68.63 83.58 68.83 C 88.50 69.03 92.68 65.95 97.08 64.19 C 97.59 64.65 98.63 65.56 99.14 66.01 C 99.27 65.19 99.51 63.56 99.64 62.74 C 97.63 60.83 95.57 58.97 93.61 57.02 C 92.96 56.37 92.33 55.70 91.72 55.01 C 90.72 53.44 88.02 50.98 90.19 49.29 C 93.19 46.31 96.99 44.25 100.91 42.74 C 100.67 42.25 100.18 41.29 99.94 40.80 C 96.73 39.86 93.08 41.52 90.07 39.65 C 88.35 39.01 87.70 36.40 89.31 35.28 C 92.72 32.43 97.57 33.75 101.45 34.71 C 103.09 36.33 102.66 38.07 101.22 39.69 C 102.33 39.65 103.45 39.56 104.56 39.43 C 105.80 39.30 107.05 39.16 108.30 39.02 C 107.71 37.83 107.12 36.66 106.52 35.48 C 106.89 35.20 107.62 34.63 107.99 34.35 C 106.00 32.20 103.83 30.20 101.99 27.91 L 102.61 26.68 L 103.58 26.14 C 101.36 22.86 99.05 19.59 96.01 17.00 C 97.28 15.70 98.57 14.42 99.92 13.21 C 100.57 12.94 101.87 12.40 102.52 12.13 C 102.46 10.68 102.42 9.23 102.40 7.78 C 106.02 17.90 108.74 28.31 112.50 38.39 C 114.89 38.36 117.29 38.42 119.68 38.60 C 119.03 33.21 118.47 27.78 117.20 22.48 C 115.31 15.23 111.75 8.58 109.02 1.63 C 103.22 5.33 97.57 9.26 92.22 13.58 C 95.13 13.99 97.44 11.69 99.90 10.51 L 99.91 11.86 C 98.39 13.56 96.52 14.88 94.50 15.91 C 94.52 16.54 94.54 17.79 94.55 18.41 C 93.62 17.56 92.66 16.74 91.67 15.97 C 91.54 15.24 91.87 14.25 91.10 13.78 C 87.38 13.22 83.65 12.67 79.89 12.51 C 79.03 13.25 78.17 13.99 77.31 14.74 C 78.49 13.53 78.87 12.06 78.46 10.33 C 75.64 12.29 72.18 11.28 69.02 11.84 C 66.35 12.27 63.66 12.90 61.30 14.24 C 59.28 15.04 57.45 17.51 55.11 16.28 C 50.57 14.57 46.36 12.13 42.09 9.85 C 41.49 9.54 40.29 8.92 39.69 8.61 C 38.67 8.10 37.64 7.59 36.64 7.05 C 38.20 6.85 39.81 6.94 41.22 7.71 C 45.88 9.99 50.48 12.41 55.02 14.93 C 58.93 14.52 61.94 11.66 65.74 10.86 C 68.48 10.14 71.33 10.36 74.13 10.55 C 75.59 9.75 77.06 8.95 78.54 8.16 C 79.06 9.14 79.58 10.13 80.11 11.11 C 83.82 11.15 87.57 11.36 91.10 12.60 M 98.47 17.67 C 101.62 19.95 104.16 23.18 105.22 26.95 C 104.93 27.35 104.34 28.13 104.04 28.52 C 105.32 29.85 106.65 31.15 108.05 32.36 C 106.61 26.15 104.48 20.12 102.86 13.95 C 100.74 14.25 99.24 15.73 98.47 17.67 M 45.77 18.42 C 45.91 22.89 44.32 27.15 44.04 31.59 C 44.72 31.08 46.07 30.07 46.75 29.57 C 48.72 28.44 45.84 27.54 46.31 26.30 C 47.35 23.82 50.16 22.50 50.83 19.82 C 49.14 19.34 47.46 18.88 45.77 18.42 M 90.03 38.92 C 93.17 40.54 96.87 39.59 100.23 39.42 C 100.73 38.80 101.74 37.55 102.24 36.92 C 99.64 34.02 95.51 33.94 91.94 34.50 C 90.04 34.79 87.81 37.44 90.03 38.92 M 40.12 40.71 C 29.02 43.37 18.03 46.63 7.45 50.94 C 6.43 51.38 5.42 51.82 4.41 52.27 L 4.93 52.66 C 4.36 52.84 3.22 53.20 2.65 53.38 L 1.90 52.92 C 2.49 55.51 4.49 57.45 5.29 59.93 C 4.86 61.72 4.19 63.43 3.55 65.15 C 5.97 67.16 8.94 68.20 12.00 68.75 L 12.36 68.43 C 15.02 69.03 17.79 69.86 20.53 69.34 C 26.70 70.06 32.84 68.90 38.95 68.24 C 42.65 67.69 46.63 67.45 49.82 65.30 C 48.60 63.14 47.43 60.95 46.33 58.72 C 50.21 56.43 54.68 55.35 58.52 52.96 C 58.45 52.47 58.30 51.48 58.23 50.99 L 57.70 51.31 C 55.81 48.92 53.39 47.01 51.45 44.68 C 50.25 42.38 52.81 41.07 54.12 39.66 C 49.44 39.63 44.71 39.64 40.12 40.71 M 101.50 40.69 C 101.48 41.15 101.44 42.08 101.42 42.55 C 97.65 45.50 92.85 47.26 89.99 51.28 L 90.99 51.58 C 91.90 53.31 92.93 55.19 94.67 56.21 C 96.69 58.88 99.31 61.02 101.32 63.69 C 104.53 64.70 108.07 64.91 111.42 64.54 L 112.12 65.30 C 108.03 65.05 103.90 64.42 99.82 65.19 C 101.05 66.04 102.39 66.58 103.85 66.81 C 113.95 67.86 124.20 66.97 134.04 64.55 C 137.22 63.89 139.57 61.52 142.15 59.73 C 141.11 57.59 139.95 55.51 138.67 53.51 C 138.72 53.21 138.81 52.62 138.86 52.33 L 139.75 52.05 C 140.03 50.35 140.66 48.61 140.18 46.88 C 139.83 46.73 139.14 46.43 138.79 46.29 C 133.17 42.60 126.50 41.19 120.03 39.81 C 113.85 38.64 107.64 39.91 101.50 40.69 Z" />
<path fill="#fdfdfe" opacity="1.00" d=" M 92.22 13.58 C 97.57 9.26 103.22 5.33 109.02 1.63 C 111.75 8.58 115.31 15.23 117.20 22.48 C 118.47 27.78 119.03 33.21 119.68 38.60 C 117.29 38.42 114.89 38.36 112.50 38.39 C 108.74 28.31 106.02 17.90 102.40 7.78 C 102.42 9.23 102.46 10.68 102.52 12.13 C 101.87 12.40 100.57 12.94 99.92 13.21 L 99.91 11.86 L 99.90 10.51 C 97.44 11.69 95.13 13.99 92.22 13.58 Z" />
<path fill="#fefefe" opacity="1.00" d=" M 37.55 8.44 C 38.09 8.48 39.16 8.57 39.69 8.61 C 40.29 8.92 41.49 9.54 42.09 9.85 C 42.61 13.04 43.58 16.12 44.51 19.20 C 43.00 25.87 42.40 32.69 40.99 39.37 C 35.71 40.78 30.46 42.26 25.13 43.43 C 27.78 31.77 32.87 20.85 37.11 9.72 L 37.55 8.44 Z" />
<path fill="#9c84b1" opacity="1.00" d=" M 42.09 9.85 C 46.36 12.13 50.57 14.57 55.11 16.28 C 57.45 17.51 59.28 15.04 61.30 14.24 C 59.83 15.47 58.38 16.72 56.91 17.94 C 57.50 18.32 58.68 19.07 59.27 19.45 C 57.65 19.24 55.99 19.00 54.60 18.07 L 53.85 17.66 C 52.63 16.96 51.32 16.46 50.00 16.00 C 49.90 16.53 49.69 17.59 49.59 18.12 C 48.16 17.55 46.73 16.98 45.30 16.41 C 45.03 17.34 44.77 18.27 44.51 19.20 C 43.58 16.12 42.61 13.04 42.09 9.85 Z" />
<path fill="#fffeff" opacity="1.00" d=" M 69.02 11.84 C 72.18 11.28 75.64 12.29 78.46 10.33 C 78.87 12.06 78.49 13.53 77.31 14.74 C 78.17 13.99 79.03 13.25 79.89 12.51 C 83.65 12.67 87.38 13.22 91.10 13.78 C 91.87 14.25 91.54 15.24 91.67 15.97 C 92.66 16.74 93.62 17.56 94.55 18.41 C 95.92 19.68 97.42 20.80 98.75 22.11 C 99.21 24.07 97.98 25.87 97.67 27.76 C 98.54 30.26 100.82 32.07 101.45 34.71 C 97.57 33.75 92.72 32.43 89.31 35.28 C 87.70 36.40 88.35 39.01 90.07 39.65 C 93.08 41.52 96.73 39.86 99.94 40.80 C 100.18 41.29 100.67 42.25 100.91 42.74 C 96.99 44.25 93.19 46.31 90.19 49.29 C 88.02 50.98 90.72 53.44 91.72 55.01 C 89.61 58.11 85.88 59.11 82.66 60.61 C 79.84 61.94 76.65 61.87 73.61 62.14 C 73.20 61.41 72.79 60.68 72.37 59.96 C 71.34 60.81 70.32 61.66 69.28 62.50 C 66.50 61.25 63.76 59.92 61.08 58.47 C 60.03 58.91 58.99 59.34 57.94 59.78 C 57.62 58.12 57.31 56.45 57.00 54.79 C 57.98 54.17 58.94 53.51 59.91 52.87 C 58.17 49.93 55.80 47.46 53.32 45.14 C 55.63 44.02 59.90 43.32 59.79 40.05 C 57.70 36.83 53.23 35.41 49.71 37.01 L 49.49 37.10 C 48.12 37.79 46.75 38.49 45.38 39.18 C 45.37 38.23 45.36 36.33 45.35 35.38 L 46.59 35.59 L 46.58 34.77 C 47.22 33.84 47.52 32.79 47.47 31.63 C 48.55 30.27 49.74 29.00 50.98 27.78 C 50.51 27.57 49.57 27.14 49.10 26.93 C 49.50 24.49 51.31 22.68 52.97 20.99 C 53.32 21.13 54.04 21.42 54.39 21.56 C 55.69 20.24 57.58 19.96 59.27 19.45 C 58.68 19.07 57.50 18.32 56.91 17.94 C 58.38 16.72 59.83 15.47 61.30 14.24 C 63.66 12.90 66.35 12.27 69.02 11.84 M 78.31 28.35 C 78.30 28.59 78.27 29.06 78.26 29.29 C 81.99 28.87 85.39 30.82 89.08 30.75 C 85.76 29.02 82.06 28.10 78.31 28.35 M 56.90 34.12 C 59.31 32.39 61.79 30.79 64.21 29.08 C 61.23 29.49 58.00 31.16 56.90 34.12 M 70.01 33.70 C 70.85 35.56 73.69 34.78 74.99 33.70 C 73.33 33.68 71.67 33.70 70.01 33.70 Z" />
<path fill="#edecf3" opacity="1.00" d=" M 94.50 15.91 C 96.52 14.88 98.39 13.56 99.91 11.86 L 99.92 13.21 C 98.57 14.42 97.28 15.70 96.01 17.00 C 99.05 19.59 101.36 22.86 103.58 26.14 L 102.61 26.68 C 102.21 26.90 101.42 27.34 101.02 27.56 C 102.17 31.53 104.12 35.26 104.56 39.43 C 103.45 39.56 102.33 39.65 101.22 39.69 C 102.66 38.07 103.09 36.33 101.45 34.71 C 100.82 32.07 98.54 30.26 97.67 27.76 C 97.98 25.87 99.21 24.07 98.75 22.11 C 97.42 20.80 95.92 19.68 94.55 18.41 C 94.54 17.79 94.52 16.54 94.50 15.91 Z" />
<path fill="#c86356" opacity="1.00" d=" M 53.06 17.99 L 53.85 17.66 L 54.60 18.07 C 55.74 20.41 51.47 19.76 53.06 17.99 Z" />
<path fill="#9c97bd" opacity="1.00" d=" M 101.02 27.56 C 101.42 27.34 102.21 26.90 102.61 26.68 L 101.99 27.91 C 103.83 30.20 106.00 32.20 107.99 34.35 C 107.62 34.63 106.89 35.20 106.52 35.48 C 107.12 36.66 107.71 37.83 108.30 39.02 C 107.05 39.16 105.80 39.30 104.56 39.43 C 104.12 35.26 102.17 31.53 101.02 27.56 Z" />
<path fill="#000000" opacity="1.00" d=" M 78.31 28.35 C 82.06 28.10 85.76 29.02 89.08 30.75 C 85.39 30.82 81.99 28.87 78.26 29.29 C 78.27 29.06 78.30 28.59 78.31 28.35 Z" />
<path fill="#000000" opacity="1.00" d=" M 56.90 34.12 C 58.00 31.16 61.23 29.49 64.21 29.08 C 61.79 30.79 59.31 32.39 56.90 34.12 Z" />
<path fill="#000000" opacity="1.00" d=" M 70.01 33.70 C 71.67 33.70 73.33 33.68 74.99 33.70 C 73.69 34.78 70.85 35.56 70.01 33.70 Z" />
<path fill="#ff7c70" opacity="1.00" d=" M 90.03 38.92 C 87.81 37.44 90.04 34.79 91.94 34.50 C 95.51 33.94 99.64 34.02 102.24 36.92 C 101.74 37.55 100.73 38.80 100.23 39.42 C 96.87 39.59 93.17 40.54 90.03 38.92 Z" />
<path fill="#ff7c70" opacity="1.00" d=" M 49.49 37.10 L 49.71 37.01 C 53.28 36.79 56.77 37.71 59.38 40.25 C 57.63 42.24 54.96 44.87 52.14 43.87 C 52.31 41.80 54.37 40.52 55.36 38.81 C 53.30 38.74 51.25 38.72 49.20 38.72 C 49.27 38.31 49.42 37.50 49.49 37.10 Z" />
<path fill="#fdfdfe" opacity="1.00" d=" M 40.12 40.71 C 44.71 39.64 49.44 39.63 54.12 39.66 C 52.81 41.07 50.25 42.38 51.45 44.68 C 53.39 47.01 55.81 48.92 57.70 51.31 C 53.13 54.06 48.47 56.86 43.24 58.15 C 39.30 59.10 35.27 59.68 31.31 60.57 C 22.55 60.00 14.72 55.49 7.45 50.94 C 18.03 46.63 29.02 43.37 40.12 40.71 Z" />
<path fill="#fefefe" opacity="1.00" d=" M 101.50 40.69 C 107.64 39.91 113.85 38.64 120.03 39.81 C 126.50 41.19 133.17 42.60 138.79 46.29 C 135.97 51.53 130.50 55.04 124.47 54.85 C 113.25 54.73 101.83 54.90 90.99 51.58 L 89.99 51.28 C 92.85 47.26 97.65 45.50 101.42 42.55 C 101.44 42.08 101.48 41.15 101.50 40.69 Z" />
<path fill="#8d73a6" opacity="1.00" d=" M 138.79 46.29 C 139.14 46.43 139.83 46.73 140.18 46.88 C 138.54 48.98 137.01 51.17 135.49 53.35 C 136.61 53.01 137.74 52.67 138.86 52.33 C 138.81 52.62 138.72 53.21 138.67 53.51 C 138.57 54.06 138.39 55.18 138.30 55.74 C 129.86 60.03 120.85 63.35 111.42 64.54 C 108.07 64.91 104.53 64.70 101.32 63.69 C 99.31 61.02 96.69 58.88 94.67 56.21 C 98.68 56.00 102.39 58.15 106.39 57.60 C 112.42 56.86 119.07 58.32 124.47 54.85 C 130.50 55.04 135.97 51.53 138.79 46.29 Z" />
<path fill="#799ccc" opacity="1.00" d=" M 140.18 46.88 C 140.66 48.61 140.03 50.35 139.75 52.05 L 138.86 52.33 C 137.74 52.67 136.61 53.01 135.49 53.35 C 137.01 51.17 138.54 48.98 140.18 46.88 Z" />
<path fill="#ebe7ee" opacity="1.00" d=" M 4.41 52.27 C 5.42 51.82 6.43 51.38 7.45 50.94 C 14.72 55.49 22.55 60.00 31.31 60.57 C 29.64 60.92 27.97 61.30 26.29 61.62 C 22.33 61.20 18.29 61.31 14.41 60.38 C 11.07 58.05 8.29 54.99 4.93 52.66 L 4.41 52.27 Z" />
<path fill="#896ea3" opacity="1.00" d=" M 57.70 51.31 L 58.23 50.99 C 58.30 51.48 58.45 52.47 58.52 52.96 C 54.68 55.35 50.21 56.43 46.33 58.72 C 47.43 60.95 48.60 63.14 49.82 65.30 C 46.63 67.45 42.65 67.69 38.95 68.24 C 32.84 68.90 26.70 70.06 20.53 69.34 C 22.49 68.67 24.43 67.93 26.35 67.16 C 22.95 65.19 18.99 65.80 15.25 65.85 C 12.03 64.98 9.08 63.42 6.18 61.81 C 6.16 60.97 6.11 59.29 6.08 58.44 C 8.01 59.79 9.76 61.58 12.01 62.35 C 16.76 62.85 21.63 62.78 26.29 61.62 C 27.97 61.30 29.64 60.92 31.31 60.57 C 35.27 59.68 39.30 59.10 43.24 58.15 C 48.47 56.86 53.13 54.06 57.70 51.31 Z" />
<path fill="#a691b9" opacity="1.00" d=" M 90.99 51.58 C 101.83 54.90 113.25 54.73 124.47 54.85 C 119.07 58.32 112.42 56.86 106.39 57.60 C 102.39 58.15 98.68 56.00 94.67 56.21 C 92.93 55.19 91.90 53.31 90.99 51.58 Z" />
<path fill="#53497c" opacity="1.00" d=" M 1.90 52.92 L 2.65 53.38 C 3.88 55.01 4.87 56.80 6.08 58.44 C 6.11 59.29 6.16 60.97 6.18 61.81 C 9.08 63.42 12.03 64.98 15.25 65.85 C 14.29 66.71 13.33 67.57 12.36 68.43 L 12.00 68.75 C 8.94 68.20 5.97 67.16 3.55 65.15 C 4.19 63.43 4.86 61.72 5.29 59.93 C 4.49 57.45 2.49 55.51 1.90 52.92 Z" />
<path fill="#d9d0e0" opacity="1.00" d=" M 2.65 53.38 C 3.22 53.20 4.36 52.84 4.93 52.66 C 8.29 54.99 11.07 58.05 14.41 60.38 C 18.29 61.31 22.33 61.20 26.29 61.62 C 21.63 62.78 16.76 62.85 12.01 62.35 C 9.76 61.58 8.01 59.79 6.08 58.44 C 4.87 56.80 3.88 55.01 2.65 53.38 Z" />
<path fill="#4c75ca" opacity="1.00" d=" M 138.30 55.74 C 138.39 55.18 138.57 54.06 138.67 53.51 C 139.95 55.51 141.11 57.59 142.15 59.73 C 139.57 61.52 137.22 63.89 134.04 64.55 C 124.20 66.97 113.95 67.86 103.85 66.81 C 102.39 66.58 101.05 66.04 99.82 65.19 C 103.90 64.42 108.03 65.05 112.12 65.30 C 121.71 65.60 131.51 64.06 140.24 59.95 C 139.59 58.54 138.94 57.14 138.30 55.74 Z" />
<path fill="#edeaf0" opacity="1.00" d=" M 54.97 55.87 C 55.65 55.53 56.33 55.17 57.00 54.79 C 57.31 56.45 57.62 58.12 57.94 59.78 C 58.99 59.34 60.03 58.91 61.08 58.47 C 63.76 59.92 66.50 61.25 69.28 62.50 C 67.09 64.68 63.94 65.02 61.04 64.31 C 60.77 63.27 60.21 62.62 59.33 62.36 C 58.60 62.22 57.12 61.95 56.39 61.82 C 55.92 59.84 55.45 57.85 54.97 55.87 Z" />
<path fill="#f0edf3" opacity="1.00" d=" M 91.72 55.01 C 92.33 55.70 92.96 56.37 93.61 57.02 C 90.47 58.66 88.00 61.24 85.05 63.14 C 82.02 65.11 78.31 64.46 74.90 64.51 C 74.58 63.92 73.93 62.73 73.61 62.14 C 76.65 61.87 79.84 61.94 82.66 60.61 C 85.88 59.11 89.61 58.11 91.72 55.01 Z" />
<path fill="#4c4375" opacity="1.00" d=" M 111.42 64.54 C 120.85 63.35 129.86 60.03 138.30 55.74 C 138.94 57.14 139.59 58.54 140.24 59.95 C 131.51 64.06 121.71 65.60 112.12 65.30 L 111.42 64.54 Z" />
<path fill="#756295" opacity="1.00" d=" M 48.18 58.77 C 50.08 57.95 51.99 57.17 53.90 56.37 C 52.74 58.08 52.26 60.08 52.35 62.13 C 54.20 62.53 55.99 63.14 57.75 63.84 C 58.15 63.47 58.94 62.73 59.33 62.36 C 60.21 62.62 60.77 63.27 61.04 64.31 C 61.25 64.81 61.68 65.80 61.90 66.30 C 60.36 67.28 58.73 69.45 56.71 68.32 C 52.20 67.05 50.18 62.56 48.18 58.77 Z" />
<path fill="#c4b9d0" opacity="1.00" d=" M 53.90 56.37 L 54.97 55.87 C 55.45 57.85 55.92 59.84 56.39 61.82 C 57.12 61.95 58.60 62.22 59.33 62.36 C 58.94 62.73 58.15 63.47 57.75 63.84 C 55.99 63.14 54.20 62.53 52.35 62.13 C 52.26 60.08 52.74 58.08 53.90 56.37 Z" />
<path fill="#8d75a5" opacity="1.00" d=" M 93.61 57.02 C 95.57 58.97 97.63 60.83 99.64 62.74 C 93.73 62.69 88.79 66.53 83.58 68.83 C 81.09 68.63 78.67 67.88 76.42 66.82 C 77.97 66.35 79.49 65.81 81.02 65.28 C 78.98 65.02 76.94 64.77 74.90 64.51 C 78.31 64.46 82.02 65.11 85.05 63.14 C 88.00 61.24 90.47 58.66 93.61 57.02 Z" />
<path fill="#9783af" opacity="1.00" d=" M 72.37 59.96 C 72.79 60.68 73.20 61.41 73.61 62.14 C 73.93 62.73 74.58 63.92 74.90 64.51 C 76.94 64.77 78.98 65.02 81.02 65.28 C 79.49 65.81 77.97 66.35 76.42 66.82 C 73.28 67.33 70.22 68.36 67.04 68.52 C 65.24 68.00 63.58 67.11 61.90 66.30 C 61.68 65.80 61.25 64.81 61.04 64.31 C 63.94 65.02 67.09 64.68 69.28 62.50 C 70.32 61.66 71.34 60.81 72.37 59.96 Z" />
<path fill="#7a9edc" opacity="1.00" d=" M 83.58 68.83 C 88.79 66.53 93.73 62.69 99.64 62.74 C 99.51 63.56 99.27 65.19 99.14 66.01 C 98.63 65.56 97.59 64.65 97.08 64.19 C 92.68 65.95 88.50 69.03 83.58 68.83 Z" />
<path fill="#69578d" opacity="1.00" d=" M 15.25 65.85 C 18.99 65.80 22.95 65.19 26.35 67.16 C 24.43 67.93 22.49 68.67 20.53 69.34 C 17.79 69.86 15.02 69.03 12.36 68.43 C 13.33 67.57 14.29 66.71 15.25 65.85 Z" />
</svg>
