<?xml version="1.0" encoding="UTF-8" ?>
<!DOCTYPE svg PUBLIC "-//W3C//DTD SVG 1.1//EN" "http://www.w3.org/Graphics/SVG/1.1/DTD/svg11.dtd">
<svg width="111pt" height="153pt" viewBox="0 0 111 153" version="1.1" xmlns="http://www.w3.org/2000/svg">
<path fill="#000000" opacity="1.00" d=" M 39.04 19.10 C 44.59 4.98 61.50 -2.05 75.84 1.15 C 84.27 0.93 91.79 5.82 97.29 11.83 C 101.75 16.75 101.33 24.15 98.89 29.90 C 94.75 39.65 88.05 48.06 80.99 55.85 C 87.44 54.25 96.21 51.86 101.11 57.92 C 106.98 65.27 109.97 74.67 110.64 83.97 C 110.94 92.48 108.90 101.59 103.01 108.02 C 98.19 113.04 91.61 115.87 85.14 118.11 C 80.88 119.47 76.50 120.91 71.96 120.71 C 68.35 120.51 65.27 118.35 62.69 115.99 C 63.84 121.48 62.07 126.94 60.37 132.11 C 65.89 129.93 72.48 126.83 78.22 129.87 C 79.87 132.13 77.06 134.09 75.38 135.20 C 70.35 137.98 64.20 140.06 58.53 138.05 C 57.36 141.04 56.09 144.00 54.66 146.88 C 65.40 145.76 76.18 144.59 86.99 144.78 C 88.65 145.02 91.28 144.65 91.50 146.95 C 91.87 148.50 90.07 149.14 88.95 149.52 C 80.71 151.37 72.25 151.61 63.88 152.46 C 55.64 152.84 47.29 153.32 39.08 152.27 C 38.73 151.69 38.04 150.53 37.69 149.96 C 41.76 147.61 46.67 148.10 51.15 147.19 C 54.50 139.33 57.58 131.32 59.77 123.05 C 60.25 121.40 60.25 119.69 60.16 118.00 C 58.50 123.09 56.47 128.94 51.05 131.11 C 42.77 134.48 33.39 133.87 24.78 132.15 C 18.99 130.91 12.68 127.37 11.66 120.99 C 10.05 114.26 14.33 107.77 19.85 104.29 C 15.10 104.15 10.19 102.74 6.93 99.08 C 0.24 91.96 -0.67 81.41 0.48 72.13 C 2.23 60.74 8.23 49.25 18.53 43.44 C 24.02 40.23 31.35 41.09 35.85 45.62 C 34.53 36.69 36.08 27.55 39.04 19.10 M 56.23 6.35 C 49.03 9.33 43.09 15.59 41.10 23.20 C 39.29 29.92 37.97 36.95 38.84 43.93 C 39.52 48.52 41.05 52.94 42.94 57.16 C 43.88 56.76 44.83 56.36 45.78 55.98 C 48.70 56.54 51.71 56.55 54.57 57.43 L 54.32 57.61 C 58.84 58.50 62.70 61.13 66.27 63.90 C 76.78 55.52 85.89 45.32 92.63 33.67 C 94.63 30.06 96.42 26.19 96.79 22.03 C 97.22 17.35 94.12 12.84 89.85 11.09 C 85.62 8.32 81.22 5.47 76.18 4.49 C 69.52 2.98 62.61 4.27 56.23 6.35 M 19.94 46.82 C 13.60 50.41 9.32 56.79 6.57 63.38 C 2.93 73.03 2.23 84.46 7.32 93.72 C 11.10 99.47 18.49 103.47 25.38 101.45 C 24.86 102.58 24.37 103.72 23.91 104.88 C 21.24 105.57 19.13 108.09 17.15 110.04 C 12.69 114.65 13.41 123.54 19.41 126.51 C 25.99 129.98 33.71 130.16 40.98 130.03 C 46.28 129.79 52.71 128.46 54.94 122.95 C 56.84 117.71 59.21 111.81 57.30 106.27 C 53.46 108.16 49.38 109.50 45.18 110.35 C 39.53 111.08 33.64 109.50 29.79 105.14 C 30.50 104.52 31.17 103.86 31.80 103.16 C 32.09 103.87 32.43 104.55 32.83 105.21 C 38.13 109.84 45.73 109.30 51.90 106.94 C 60.50 103.73 69.08 98.03 72.39 89.08 C 73.27 83.55 72.50 77.89 70.01 72.87 C 69.61 72.30 68.82 71.16 68.43 70.59 C 64.81 65.99 59.88 62.57 54.43 60.51 C 51.21 59.26 47.52 58.26 44.13 59.21 C 31.98 67.02 26.36 82.74 28.65 96.72 C 28.20 97.29 27.30 98.42 26.85 98.98 C 26.51 97.74 26.17 96.49 25.81 95.25 C 24.27 81.60 29.66 66.89 40.96 58.71 C 39.08 54.63 37.21 50.26 33.19 47.83 C 29.58 44.62 24.01 44.33 19.94 46.82 M 76.74 61.76 C 73.98 63.15 72.26 66.53 68.83 66.40 C 76.01 74.58 77.92 88.01 70.34 96.58 C 67.13 99.96 63.35 102.71 59.38 105.11 C 61.15 108.92 63.50 112.52 66.64 115.34 C 69.54 118.05 73.89 117.37 77.42 116.58 C 85.08 114.42 92.86 111.78 99.14 106.72 C 103.90 102.13 106.35 95.59 106.72 89.07 C 107.54 79.20 104.65 69.12 98.88 61.10 C 97.56 59.18 95.45 57.66 93.03 57.81 C 87.42 57.84 81.70 59.07 76.74 61.76 M 59.27 135.73 C 65.37 136.48 71.86 135.21 76.75 131.34 C 70.59 130.40 64.45 132.52 59.27 135.73 Z" />
<path fill="#75a5fa" opacity="1.00" d=" M 56.23 6.35 C 62.61 4.27 69.52 2.98 76.18 4.49 C 81.22 5.47 85.62 8.32 89.85 11.09 C 87.75 17.74 85.04 24.26 81.03 30.00 C 75.33 38.49 67.80 45.49 60.52 52.59 C 58.69 54.38 56.70 56.00 54.57 57.43 C 51.71 56.55 48.70 56.54 45.78 55.98 C 44.83 56.36 43.88 56.76 42.94 57.16 C 41.05 52.94 39.52 48.52 38.84 43.93 C 37.97 36.95 39.29 29.92 41.10 23.20 C 43.09 15.59 49.03 9.33 56.23 6.35 Z" />
<path fill="#6057a9" opacity="1.00" d=" M 89.85 11.09 C 94.12 12.84 97.22 17.35 96.79 22.03 C 96.42 26.19 94.63 30.06 92.63 33.67 C 85.89 45.32 76.78 55.52 66.27 63.90 C 62.70 61.13 58.84 58.50 54.32 57.61 L 54.57 57.43 C 56.70 56.00 58.69 54.38 60.52 52.59 C 67.80 45.49 75.33 38.49 81.03 30.00 C 85.04 24.26 87.75 17.74 89.85 11.09 Z" />
<path fill="#75a6fb" opacity="1.00" d=" M 19.94 46.82 C 24.01 44.33 29.58 44.62 33.19 47.83 C 37.21 50.26 39.08 54.63 40.96 58.71 C 29.66 66.89 24.27 81.60 25.81 95.25 C 25.50 94.20 25.18 93.15 24.86 92.10 C 19.05 92.93 13.20 93.54 7.32 93.72 C 2.23 84.46 2.93 73.03 6.57 63.38 C 9.32 56.79 13.60 50.41 19.94 46.82 Z" />
<path fill="#74a1f5" opacity="1.00" d=" M 76.74 61.76 C 81.70 59.07 87.42 57.84 93.03 57.81 C 95.45 57.66 97.56 59.18 98.88 61.10 C 104.65 69.12 107.54 79.20 106.72 89.07 C 106.35 95.59 103.90 102.13 99.14 106.72 C 89.39 103.82 79.60 100.84 70.34 96.58 C 77.92 88.01 76.01 74.58 68.83 66.40 C 72.26 66.53 73.98 63.15 76.74 61.76 Z" />
<path fill="#ffe05c" opacity="1.00" d=" M 44.13 59.21 C 47.52 58.26 51.21 59.26 54.43 60.51 C 59.88 62.57 64.81 65.99 68.43 70.59 C 64.11 69.30 60.53 74.10 59.91 77.90 C 61.10 78.32 62.31 78.65 63.55 78.88 C 62.05 81.51 60.52 84.13 58.73 86.58 C 54.69 91.54 50.29 96.33 44.97 99.94 C 41.30 102.47 37.00 103.78 32.83 105.21 C 32.43 104.55 32.09 103.87 31.80 103.16 C 33.01 100.93 35.49 98.09 33.23 95.70 C 31.61 94.64 29.99 95.82 28.65 96.72 C 26.36 82.74 31.98 67.02 44.13 59.21 M 48.40 72.55 C 45.42 73.48 43.22 77.67 45.79 80.16 C 47.69 82.73 52.07 82.03 53.06 78.97 C 55.16 75.95 52.08 71.00 48.40 72.55 M 45.92 94.80 C 44.80 95.37 43.50 95.72 42.70 96.78 C 46.28 97.46 48.76 94.45 48.46 91.08 C 46.69 91.52 46.40 93.31 45.92 94.80 Z" />
<path fill="#ff3d83" opacity="1.00" d=" M 59.91 77.90 C 60.53 74.10 64.11 69.30 68.43 70.59 C 68.82 71.16 69.61 72.30 70.01 72.87 C 68.23 75.24 66.13 77.39 63.55 78.88 C 62.31 78.65 61.10 78.32 59.91 77.90 Z" />
<path fill="#000000" opacity="1.00" d=" M 48.40 72.55 C 52.08 71.00 55.16 75.95 53.06 78.97 C 52.07 82.03 47.69 82.73 45.79 80.16 C 43.22 77.67 45.42 73.48 48.40 72.55 M 46.01 74.89 C 44.36 77.30 47.94 80.01 49.69 77.75 C 51.76 75.49 47.83 72.39 46.01 74.89 Z" />
<path fill="#cd754a" opacity="1.00" d=" M 70.01 72.87 C 72.50 77.89 73.27 83.55 72.39 89.08 C 68.11 86.91 63.27 87.59 58.73 86.58 C 60.52 84.13 62.05 81.51 63.55 78.88 C 66.13 77.39 68.23 75.24 70.01 72.87 Z" />
<path fill="#dfdacc" opacity="1.00" d=" M 46.01 74.89 C 47.83 72.39 51.76 75.49 49.69 77.75 C 47.94 80.01 44.36 77.30 46.01 74.89 Z" />
<path fill="#c66648" opacity="1.00" d=" M 58.73 86.58 C 63.27 87.59 68.11 86.91 72.39 89.08 C 69.08 98.03 60.50 103.73 51.90 106.94 C 45.73 109.30 38.13 109.84 32.83 105.21 C 37.00 103.78 41.30 102.47 44.97 99.94 C 50.29 96.33 54.69 91.54 58.73 86.58 Z" />
<path fill="#000000" opacity="1.00" d=" M 45.92 94.80 C 46.40 93.31 46.69 91.52 48.46 91.08 C 48.76 94.45 46.28 97.46 42.70 96.78 C 43.50 95.72 44.80 95.37 45.92 94.80 Z" />
<path fill="#666dbf" opacity="1.00" d=" M 7.32 93.72 C 13.20 93.54 19.05 92.93 24.86 92.10 C 25.18 93.15 25.50 94.20 25.81 95.25 C 26.17 96.49 26.51 97.74 26.85 98.98 C 26.32 99.78 25.82 100.60 25.38 101.45 C 18.49 103.47 11.10 99.47 7.32 93.72 Z" />
<path fill="#ff3d83" opacity="1.00" d=" M 28.65 96.72 C 29.99 95.82 31.61 94.64 33.23 95.70 C 35.49 98.09 33.01 100.93 31.80 103.16 C 31.17 103.86 30.50 104.52 29.79 105.14 C 27.88 106.13 25.82 105.47 23.91 104.88 C 24.37 103.72 24.86 102.58 25.38 101.45 C 25.82 100.60 26.32 99.78 26.85 98.98 C 27.30 98.42 28.20 97.29 28.65 96.72 Z" />
<path fill="#5e50a2" opacity="1.00" d=" M 59.38 105.11 C 63.35 102.71 67.13 99.96 70.34 96.58 C 79.60 100.84 89.39 103.82 99.14 106.72 C 92.86 111.78 85.08 114.42 77.42 116.58 C 73.89 117.37 69.54 118.05 66.64 115.34 C 63.50 112.52 61.15 108.92 59.38 105.11 Z" />
<path fill="#75a5fa" opacity="1.00" d=" M 17.15 110.04 C 19.13 108.09 21.24 105.57 23.91 104.88 C 25.82 105.47 27.88 106.13 29.79 105.14 C 33.64 109.50 39.53 111.08 45.18 110.35 C 45.48 110.52 46.08 110.84 46.38 111.00 C 45.58 117.59 43.26 123.84 40.98 130.03 C 33.71 130.16 25.99 129.98 19.41 126.51 C 13.41 123.54 12.69 114.65 17.15 110.04 Z" />
<path fill="#6363b6" opacity="1.00" d=" M 45.18 110.35 C 49.38 109.50 53.46 108.16 57.30 106.27 C 59.21 111.81 56.84 117.71 54.94 122.95 C 52.71 128.46 46.28 129.79 40.98 130.03 C 43.26 123.84 45.58 117.59 46.38 111.00 C 46.08 110.84 45.48 110.52 45.18 110.35 Z" />
<path fill="#e2f2a1" opacity="1.00" d=" M 59.27 135.73 C 64.45 132.52 70.59 130.40 76.75 131.34 C 71.86 135.21 65.37 136.48 59.27 135.73 Z" />
</svg>
