<?xml version="1.0" encoding="UTF-8" ?>
<!DOCTYPE svg PUBLIC "-//W3C//DTD SVG 1.1//EN" "http://www.w3.org/Graphics/SVG/1.1/DTD/svg11.dtd">
<svg width="111pt" height="153pt" viewBox="0 0 111 153" version="1.1" xmlns="http://www.w3.org/2000/svg">
<path fill="#000000" opacity="1.00" d=" M 38.49 20.61 C 41.80 10.36 51.44 3.03 61.86 1.14 C 67.83 -0.55 73.94 1.12 79.95 1.58 C 84.35 1.68 88.01 4.36 91.54 6.68 C 95.33 9.37 99.06 12.80 100.27 17.46 C 101.61 23.16 99.65 28.97 97.00 33.98 C 92.76 42.00 87.10 49.20 80.97 55.86 C 87.40 54.27 96.13 51.86 101.05 57.86 C 106.99 65.23 109.99 74.71 110.64 84.07 C 110.91 92.31 108.99 101.07 103.51 107.46 C 98.86 112.65 92.29 115.57 85.85 117.87 C 81.34 119.34 76.69 120.92 71.88 120.70 C 68.25 120.48 65.17 118.30 62.63 115.87 C 63.90 121.40 62.06 126.91 60.38 132.13 C 65.89 129.91 72.48 126.85 78.24 129.86 C 79.86 132.19 77.03 134.10 75.32 135.23 C 70.30 138.04 64.21 139.97 58.52 138.11 C 57.34 141.08 56.07 144.02 54.67 146.89 C 66.08 145.78 77.56 144.23 89.03 144.99 C 91.05 144.77 91.28 146.78 91.85 148.20 C 87.55 150.45 82.59 150.59 77.89 151.24 C 65.01 152.34 51.98 153.80 39.10 152.24 C 38.73 151.66 37.99 150.51 37.61 149.93 C 41.78 147.75 46.61 148.01 51.13 147.21 C 54.85 137.73 59.51 128.23 60.32 117.96 C 58.40 122.72 56.84 128.42 51.74 130.77 C 43.55 134.52 34.05 133.87 25.40 132.30 C 19.39 131.11 12.70 127.59 11.65 120.95 C 10.08 114.23 14.33 107.74 19.87 104.31 C 15.12 104.13 10.19 102.75 6.93 99.08 C 0.24 91.95 -0.68 81.40 0.48 72.12 C 2.24 60.71 8.26 49.19 18.59 43.41 C 24.09 40.22 31.32 41.14 35.85 45.59 C 34.56 37.19 35.99 28.65 38.49 20.61 M 47.90 11.84 C 41.38 17.70 39.87 26.81 38.77 35.06 C 37.81 42.67 39.79 50.27 42.93 57.16 C 43.87 56.76 44.81 56.36 45.75 55.97 C 49.68 56.51 53.64 56.95 57.39 58.32 C 60.51 59.94 63.53 61.74 66.26 63.95 C 71.99 59.36 77.47 54.38 81.92 48.52 C 85.45 45.12 88.02 40.83 90.75 36.80 C 94.03 31.33 97.80 25.08 96.44 18.46 C 95.29 13.59 90.52 11.47 86.70 9.04 C 81.47 5.66 75.34 3.56 69.07 3.83 C 61.46 4.33 53.40 6.17 47.90 11.84 M 15.77 49.80 C 9.48 55.63 5.44 63.75 4.23 72.22 C 2.84 80.41 3.86 89.49 9.07 96.24 C 13.23 100.15 19.15 103.23 24.96 101.47 C 26.54 101.05 28.14 100.70 29.68 100.13 C 31.32 103.87 34.23 106.98 38.19 108.23 C 42.04 109.14 45.97 108.67 49.73 107.64 C 57.58 105.14 65.18 100.73 69.96 93.88 C 73.97 88.11 73.28 80.38 70.56 74.22 C 70.14 73.54 69.30 72.17 68.88 71.49 C 67.17 68.75 64.85 66.47 62.24 64.59 C 56.87 61.33 50.60 57.83 44.14 59.20 C 32.50 66.62 27.04 81.30 28.27 94.72 C 27.68 94.91 26.49 95.29 25.90 95.48 C 24.11 81.75 29.67 66.97 40.95 58.69 C 38.79 52.96 34.93 47.56 28.93 45.50 C 24.09 44.19 19.26 46.57 15.77 49.80 M 78.03 61.03 C 74.65 62.38 72.64 66.12 68.78 66.39 C 75.03 73.69 77.65 84.87 72.57 93.50 C 69.24 98.46 64.43 102.10 59.36 105.13 C 61.22 108.90 63.49 112.56 66.67 115.35 C 69.75 118.20 74.35 117.31 78.05 116.43 C 84.91 114.38 91.93 112.09 97.74 107.77 C 101.12 105.34 103.28 101.68 104.96 97.95 C 108.88 85.87 106.54 72.12 99.36 61.72 C 98.08 59.93 96.42 58.00 94.07 57.84 C 88.57 57.37 83.03 58.80 78.03 61.03 M 18.54 108.51 C 14.12 112.10 12.82 119.06 16.17 123.78 C 19.56 127.79 25.10 128.94 30.06 129.62 C 36.17 130.24 42.54 130.55 48.49 128.74 C 52.51 127.59 55.01 123.88 56.08 120.03 C 57.33 115.58 59.09 110.79 57.37 106.22 C 51.75 108.70 45.55 111.52 39.29 109.86 C 39.31 109.97 39.37 110.20 39.39 110.32 L 38.49 110.02 C 34.10 109.59 30.71 106.45 28.40 102.92 C 24.39 103.09 21.47 106.14 18.54 108.51 M 65.46 133.00 C 63.11 133.21 61.13 134.58 59.20 135.81 C 62.30 135.74 65.99 136.80 68.78 135.29 C 71.60 134.50 74.40 133.29 76.56 131.25 C 72.82 131.07 68.76 130.93 65.46 133.00 Z" />
<path fill="#ff3d83" opacity="1.00" d=" M 47.90 11.84 C 53.40 6.17 61.46 4.33 69.07 3.83 C 75.34 3.56 81.47 5.66 86.70 9.04 C 84.14 20.19 78.28 30.25 72.00 39.69 C 67.67 46.31 62.47 52.28 57.39 58.32 C 53.64 56.95 49.68 56.51 45.75 55.97 C 44.81 56.36 43.87 56.76 42.93 57.16 C 39.79 50.27 37.81 42.67 38.77 35.06 C 39.87 26.81 41.38 17.70 47.90 11.84 Z" />
<path fill="#a61971" opacity="1.00" d=" M 86.70 9.04 C 90.52 11.47 95.29 13.59 96.44 18.46 C 97.80 25.08 94.03 31.33 90.75 36.80 C 88.02 40.83 85.45 45.12 81.92 48.52 C 80.21 49.30 78.46 49.98 76.73 50.69 C 73.97 47.53 73.95 43.28 73.84 39.32 C 73.38 39.41 72.46 39.60 72.00 39.69 C 78.28 30.25 84.14 20.19 86.70 9.04 Z" />
<path fill="#b31d74" opacity="1.00" d=" M 72.00 39.69 C 72.46 39.60 73.38 39.41 73.84 39.32 C 73.95 43.28 73.97 47.53 76.73 50.69 C 78.46 49.98 80.21 49.30 81.92 48.52 C 77.47 54.38 71.99 59.36 66.26 63.95 C 63.53 61.74 60.51 59.94 57.39 58.32 C 62.47 52.28 67.67 46.31 72.00 39.69 Z" />
<path fill="#ff3d83" opacity="1.00" d=" M 15.77 49.80 C 19.26 46.57 24.09 44.19 28.93 45.50 C 34.93 47.56 38.79 52.96 40.95 58.69 C 29.67 66.97 24.11 81.75 25.90 95.48 C 25.57 94.10 25.23 92.72 24.89 91.34 C 19.55 92.75 14.24 94.29 9.07 96.24 C 3.86 89.49 2.84 80.41 4.23 72.22 C 5.44 63.75 9.48 55.63 15.77 49.80 Z" />
<path fill="#f83a82" opacity="1.00" d=" M 78.03 61.03 C 83.03 58.80 88.57 57.37 94.07 57.84 C 96.42 58.00 98.08 59.93 99.36 61.72 C 106.54 72.12 108.88 85.87 104.96 97.95 C 94.00 97.89 83.25 95.75 72.57 93.50 C 77.65 84.87 75.03 73.69 68.78 66.39 C 72.64 66.12 74.65 62.38 78.03 61.03 Z" />
<path fill="#ffdf5c" opacity="1.00" d=" M 44.14 59.20 C 50.60 57.83 56.87 61.33 62.24 64.59 C 62.30 67.21 62.36 69.84 62.41 72.46 C 60.02 74.63 56.30 76.97 57.16 80.74 C 58.38 82.01 60.15 82.40 61.76 82.94 C 58.54 91.54 54.60 99.84 49.73 107.64 C 45.97 108.67 42.04 109.14 38.19 108.23 C 41.69 107.30 45.48 107.27 48.76 105.68 C 51.20 103.54 49.41 100.06 49.07 97.40 C 47.12 97.57 45.18 97.73 43.23 97.90 L 43.31 97.47 C 44.67 96.76 46.11 96.17 47.38 95.29 C 48.50 93.96 48.06 92.02 48.22 90.42 C 47.32 91.85 46.49 93.32 45.68 94.80 C 45.14 95.07 44.04 95.62 43.49 95.89 C 43.49 95.14 43.50 93.64 43.50 92.89 C 41.80 92.60 40.09 92.17 38.36 92.24 C 36.26 92.80 36.30 95.45 35.30 97.02 C 35.25 97.08 35.15 97.22 35.10 97.29 C 34.79 96.10 34.43 94.93 34.01 93.79 C 32.08 92.73 30.03 93.85 28.27 94.72 C 27.04 81.30 32.50 66.62 44.14 59.20 M 48.44 72.53 C 45.47 73.49 43.20 77.69 45.80 80.19 C 47.73 82.74 52.11 82.01 53.08 78.93 C 55.13 75.93 52.09 71.04 48.44 72.53 Z" />
<path fill="#ca7149" opacity="1.00" d=" M 62.24 64.59 C 64.85 66.47 67.17 68.75 68.88 71.49 C 66.72 71.78 64.55 72.03 62.41 72.46 C 62.36 69.84 62.30 67.21 62.24 64.59 Z" />
<path fill="#000000" opacity="1.00" d=" M 48.44 72.53 C 52.09 71.04 55.13 75.93 53.08 78.93 C 52.11 82.01 47.73 82.74 45.80 80.19 C 43.20 77.69 45.47 73.49 48.44 72.53 M 47.17 74.25 C 44.59 74.90 45.98 79.39 48.54 78.46 C 51.74 78.03 50.15 72.73 47.17 74.25 Z" />
<path fill="#ff3d83" opacity="1.00" d=" M 62.41 72.46 C 64.55 72.03 66.72 71.78 68.88 71.49 C 69.30 72.17 70.14 73.54 70.56 74.22 C 69.83 78.86 66.02 81.68 61.76 82.94 C 60.15 82.40 58.38 82.01 57.16 80.74 C 56.30 76.97 60.02 74.63 62.41 72.46 Z" />
<path fill="#fff5e3" opacity="1.00" d=" M 47.17 74.25 C 50.15 72.73 51.74 78.03 48.54 78.46 C 45.98 79.39 44.59 74.90 47.17 74.25 Z" />
<path fill="#ad313f" opacity="1.00" d=" M 70.56 74.22 C 73.28 80.38 73.97 88.11 69.96 93.88 C 65.18 100.73 57.58 105.14 49.73 107.64 C 54.60 99.84 58.54 91.54 61.76 82.94 C 66.02 81.68 69.83 78.86 70.56 74.22 Z" />
<path fill="#a31771" opacity="1.00" d=" M 9.07 96.24 C 14.24 94.29 19.55 92.75 24.89 91.34 C 25.23 92.72 25.57 94.10 25.90 95.48 C 26.49 95.29 27.68 94.91 28.27 94.72 C 26.56 95.69 24.89 96.75 23.22 97.80 C 23.80 99.02 24.38 100.24 24.96 101.47 C 19.15 103.23 13.23 100.15 9.07 96.24 Z" />
<path fill="#000000" opacity="1.00" d=" M 45.68 94.80 C 46.49 93.32 47.32 91.85 48.22 90.42 C 48.06 92.02 48.50 93.96 47.38 95.29 C 46.11 96.17 44.67 96.76 43.31 97.47 C 43.35 97.07 43.44 96.28 43.49 95.89 C 44.04 95.62 45.14 95.07 45.68 94.80 Z" />
<path fill="#f7d059" opacity="1.00" d=" M 38.36 92.24 C 40.09 92.17 41.80 92.60 43.50 92.89 C 43.50 93.64 43.49 95.14 43.49 95.89 C 43.44 96.28 43.35 97.07 43.31 97.47 L 43.23 97.90 C 45.18 97.73 47.12 97.57 49.07 97.40 C 49.41 100.06 51.20 103.54 48.76 105.68 C 45.48 107.27 41.69 107.30 38.19 108.23 C 34.23 106.98 31.32 103.87 29.68 100.13 C 31.56 99.33 33.38 98.39 35.10 97.29 C 35.15 97.22 35.25 97.08 35.30 97.02 C 36.30 95.45 36.26 92.80 38.36 92.24 Z" />
<path fill="#ff3d83" opacity="1.00" d=" M 28.27 94.72 C 30.03 93.85 32.08 92.73 34.01 93.79 C 34.43 94.93 34.79 96.10 35.10 97.29 C 33.38 98.39 31.56 99.33 29.68 100.13 C 28.14 100.70 26.54 101.05 24.96 101.47 C 24.38 100.24 23.80 99.02 23.22 97.80 C 24.89 96.75 26.56 95.69 28.27 94.72 Z" />
<path fill="#9a146f" opacity="1.00" d=" M 59.36 105.13 C 64.43 102.10 69.24 98.46 72.57 93.50 C 83.25 95.75 94.00 97.89 104.96 97.95 C 103.28 101.68 101.12 105.34 97.74 107.77 C 91.93 112.09 84.91 114.38 78.05 116.43 C 74.35 117.31 69.75 118.20 66.67 115.35 C 63.49 112.56 61.22 108.90 59.36 105.13 Z" />
<path fill="#fb3b82" opacity="1.00" d=" M 18.54 108.51 C 21.47 106.14 24.39 103.09 28.40 102.92 C 30.71 106.45 34.10 109.59 38.49 110.02 L 39.39 110.32 C 40.11 111.94 40.03 113.76 39.38 115.40 C 37.58 120.40 35.08 125.17 32.03 129.53 C 31.53 129.55 30.55 129.60 30.06 129.62 C 25.10 128.94 19.56 127.79 16.17 123.78 C 12.82 119.06 14.12 112.10 18.54 108.51 Z" />
<path fill="#9e156f" opacity="1.00" d=" M 39.29 109.86 C 45.55 111.52 51.75 108.70 57.37 106.22 C 59.09 110.79 57.33 115.58 56.08 120.03 C 55.01 123.88 52.51 127.59 48.49 128.74 C 42.54 130.55 36.17 130.24 30.06 129.62 C 30.55 129.60 31.53 129.55 32.03 129.53 C 35.08 125.17 37.58 120.40 39.38 115.40 C 40.03 113.76 40.11 111.94 39.39 110.32 C 39.37 110.20 39.31 109.97 39.29 109.86 Z" />
<path fill="#e2f3a1" opacity="1.00" d=" M 65.46 133.00 C 68.76 130.93 72.82 131.07 76.56 131.25 C 74.40 133.29 71.60 134.50 68.78 135.29 C 68.17 135.14 66.95 134.84 66.33 134.69 C 66.12 134.27 65.68 133.42 65.46 133.00 Z" />
<path fill="#95676e" opacity="1.00" d=" M 59.20 135.81 C 61.13 134.58 63.11 133.21 65.46 133.00 C 65.68 133.42 66.12 134.27 66.33 134.69 C 66.95 134.84 68.17 135.14 68.78 135.29 C 65.99 136.80 62.30 135.74 59.20 135.81 Z" />
</svg>
