<?xml version="1.0" encoding="UTF-8" ?>
<!DOCTYPE svg PUBLIC "-//W3C//DTD SVG 1.1//EN" "http://www.w3.org/Graphics/SVG/1.1/DTD/svg11.dtd">
<svg width="78pt" height="84pt" viewBox="0 0 78 84" version="1.1" xmlns="http://www.w3.org/2000/svg">
<path fill="#000000" opacity="1.00" d=" M 13.91 9.05 C 13.00 5.13 16.50 -0.56 20.92 0.49 C 25.01 3.12 30.22 4.76 32.66 9.30 C 35.95 14.84 37.28 21.40 36.68 27.80 C 37.79 26.41 38.92 25.03 40.04 23.65 C 43.31 25.05 46.37 26.88 49.24 28.98 C 50.51 27.08 51.78 25.19 53.07 23.30 C 54.69 24.26 56.16 25.45 57.40 26.88 C 61.14 27.44 64.59 29.10 67.03 32.04 C 70.16 33.14 73.51 33.99 76.15 36.11 C 76.51 40.15 74.58 44.00 73.36 47.79 C 74.27 49.50 75.18 51.20 76.10 52.91 C 75.34 53.33 74.58 53.75 73.82 54.17 C 75.42 56.44 76.91 58.80 78.00 61.37 L 78.00 62.00 C 76.65 62.92 75.03 63.62 74.17 65.09 C 71.11 69.93 67.92 75.16 62.81 78.07 C 62.35 76.64 61.76 76.64 61.06 78.09 C 59.70 79.30 58.25 80.41 56.82 81.54 C 56.33 81.09 55.36 80.19 54.87 79.74 C 50.05 82.21 44.77 83.56 39.38 83.97 C 39.99 83.07 41.22 81.26 41.84 80.36 C 40.94 81.19 40.05 82.01 39.15 82.84 C 35.15 82.58 31.14 82.57 27.14 82.27 C 23.08 81.99 19.51 79.30 15.33 79.97 C 8.94 77.04 5.71 70.07 3.77 63.69 C 2.87 63.95 1.07 64.48 0.17 64.74 C 0.08 61.04 1.91 57.82 3.85 54.83 C 2.63 51.32 1.04 47.70 1.47 43.91 C 3.17 41.30 6.29 40.22 8.95 38.86 C 10.64 39.08 12.79 39.73 14.18 38.39 L 14.40 38.16 C 14.72 37.84 15.35 37.18 15.66 36.86 C 15.99 35.75 16.34 34.65 16.70 33.55 C 18.16 33.00 19.78 33.30 21.30 33.15 L 22.04 32.48 C 23.24 31.29 24.38 30.03 25.57 28.82 C 27.83 26.82 30.52 25.40 33.20 24.05 C 34.06 25.14 34.93 26.23 35.81 27.31 C 35.83 18.87 33.53 9.62 26.39 4.37 C 26.34 6.21 26.91 8.13 26.29 9.91 C 23.78 14.55 15.48 14.40 13.91 9.05 M 18.23 3.58 L 18.55 3.76 C 18.20 4.31 17.48 5.41 17.13 5.96 C 17.14 6.61 17.17 7.90 17.19 8.55 C 18.22 9.24 19.21 9.99 20.15 10.81 L 20.62 10.12 C 21.31 9.87 22.70 9.37 23.39 9.12 C 23.29 7.89 23.85 5.41 21.97 5.40 C 21.79 3.67 19.51 3.73 18.23 3.58 M 40.11 26.51 C 38.80 27.99 37.46 29.45 36.07 30.86 C 34.81 29.85 33.66 28.71 32.78 27.35 C 29.64 29.55 26.46 31.74 23.68 34.39 C 22.72 35.21 21.76 36.02 20.79 36.82 C 20.45 36.31 19.77 35.30 19.43 34.79 C 20.00 37.58 17.08 38.70 15.16 39.85 C 13.03 41.51 11.04 43.33 9.01 45.11 C 10.27 45.70 11.52 46.29 12.78 46.89 C 11.99 48.14 11.21 49.39 10.41 50.63 C 9.91 51.24 9.43 51.87 8.97 52.52 C 7.06 54.74 5.44 57.19 4.01 59.75 C 6.89 62.52 6.65 67.26 9.37 70.36 C 10.95 73.17 13.12 75.80 16.08 77.24 L 16.64 76.24 C 17.97 76.54 19.23 76.99 20.43 77.61 C 25.41 80.52 31.43 80.29 37.01 80.43 C 38.88 78.95 40.86 77.44 43.35 77.32 C 43.44 78.20 43.64 79.95 43.74 80.82 C 48.83 79.72 53.44 76.81 58.69 76.48 L 58.03 77.76 C 59.83 76.50 61.39 74.94 62.91 73.36 L 64.04 74.64 C 67.93 70.57 71.75 65.99 73.35 60.51 L 74.11 61.90 C 75.26 58.19 70.55 55.72 71.16 52.25 C 71.54 51.95 72.31 51.35 72.69 51.05 C 71.56 46.14 68.43 42.21 65.49 38.26 C 66.13 37.99 67.40 37.44 68.04 37.16 C 65.87 35.00 63.56 32.93 60.84 31.48 C 59.57 30.84 58.29 30.19 57.01 29.54 C 56.27 29.66 54.80 29.90 54.06 30.01 C 53.72 29.61 53.04 28.80 52.71 28.40 C 51.54 30.14 50.54 32.44 48.28 32.96 L 49.14 32.29 C 46.19 30.27 43.19 28.33 40.11 26.51 M 68.22 34.37 C 68.59 36.19 71.30 38.46 68.56 39.91 C 69.52 41.06 70.77 41.19 72.30 40.29 C 71.73 40.54 70.59 41.05 70.03 41.30 C 70.58 42.24 71.70 44.11 72.25 45.05 C 72.85 43.34 73.34 41.59 73.65 39.81 C 75.05 38.80 73.71 35.71 72.04 36.54 C 70.79 35.78 69.51 35.06 68.22 34.37 M 3.79 45.07 C 4.52 47.86 5.18 50.66 6.09 53.39 C 7.67 51.56 9.22 49.70 10.72 47.80 C 9.27 46.89 7.68 45.96 7.52 44.06 C 8.90 43.23 10.19 42.24 11.22 41.00 C 8.46 41.76 6.00 43.29 3.79 45.07 Z" />
<path fill="#f6eb7d" opacity="1.00" d=" M 18.23 3.58 C 19.51 3.73 21.79 3.67 21.97 5.40 L 21.99 5.93 C 20.34 6.70 18.75 7.60 17.19 8.55 C 17.17 7.90 17.14 6.61 17.13 5.96 C 18.75 8.47 21.46 4.38 18.55 3.76 L 18.23 3.58 Z" />
<path fill="#fffffe" opacity="1.00" d=" M 18.55 3.76 C 21.46 4.38 18.75 8.47 17.13 5.96 C 17.48 5.41 18.20 4.31 18.55 3.76 Z" />
<path fill="#fffffe" opacity="1.00" d=" M 21.97 5.40 C 23.85 5.41 23.29 7.89 23.39 9.12 C 22.70 9.37 21.31 9.87 20.62 10.12 C 21.43 8.87 22.60 7.52 21.99 5.93 L 21.97 5.40 Z" />
<path fill="#da2659" opacity="1.00" d=" M 17.19 8.55 C 18.75 7.60 20.34 6.70 21.99 5.93 C 22.60 7.52 21.43 8.87 20.62 10.12 L 20.15 10.81 C 19.21 9.99 18.22 9.24 17.19 8.55 Z" />
<path fill="#ffffbe" opacity="1.00" d=" M 40.11 26.51 C 43.19 28.33 46.19 30.27 49.14 32.29 L 48.28 32.96 C 45.09 34.25 41.89 35.53 38.85 37.15 C 37.64 36.06 36.54 34.58 34.83 34.33 C 31.89 36.74 31.70 40.86 31.59 44.37 C 27.79 46.37 24.41 49.16 22.33 52.98 C 19.90 53.62 17.46 54.22 15.00 54.74 C 13.35 53.50 11.89 52.04 10.41 50.63 C 11.21 49.39 11.99 48.14 12.78 46.89 C 11.52 46.29 10.27 45.70 9.01 45.11 C 11.04 43.33 13.03 41.51 15.16 39.85 C 15.39 42.35 15.60 44.85 15.80 47.35 C 20.37 48.59 24.76 45.62 26.43 41.44 C 26.84 39.34 26.70 37.19 26.70 35.06 C 25.94 34.90 24.44 34.56 23.68 34.39 C 26.46 31.74 29.64 29.55 32.78 27.35 C 33.66 28.71 34.81 29.85 36.07 30.86 C 37.46 29.45 38.80 27.99 40.11 26.51 Z" />
<path fill="#131313" opacity="0.07" d=" M 10.12 36.63 C 13.22 31.44 19.12 26.13 25.57 28.82 C 24.38 30.03 23.24 31.29 22.04 32.48 C 20.03 32.60 18.02 32.67 16.00 32.71 C 15.49 34.53 14.99 36.36 14.40 38.16 L 14.18 38.39 C 13.75 38.20 12.89 37.81 12.46 37.61 C 11.88 37.37 10.71 36.87 10.12 36.63 Z" />
<path fill="#ffffa9" opacity="1.00" d=" M 52.71 28.40 C 53.04 28.80 53.72 29.61 54.06 30.01 C 54.80 29.90 56.27 29.66 57.01 29.54 C 58.29 30.19 59.57 30.84 60.84 31.48 C 60.91 35.07 62.71 38.25 63.37 41.71 C 63.57 44.85 62.49 47.88 61.79 50.90 C 61.37 49.49 60.95 48.08 60.55 46.66 C 60.43 47.29 60.20 48.55 60.08 49.18 C 59.64 49.43 58.75 49.94 58.31 50.19 C 58.79 49.49 59.74 48.09 60.22 47.39 C 56.62 47.77 53.04 48.39 49.43 48.73 C 48.24 48.37 47.05 48.01 45.86 47.63 C 45.65 46.48 45.44 45.33 45.23 44.19 C 44.48 44.62 43.74 45.05 42.99 45.48 C 42.75 45.06 42.26 44.22 42.01 43.81 C 41.10 41.52 40.19 39.22 38.85 37.15 C 41.89 35.53 45.09 34.25 48.28 32.96 C 50.54 32.44 51.54 30.14 52.71 28.40 Z" />
<path fill="#252525" opacity="0.35" d=" M 16.00 32.71 C 18.02 32.67 20.03 32.60 22.04 32.48 L 21.30 33.15 C 19.78 33.30 18.16 33.00 16.70 33.55 C 16.34 34.65 15.99 35.75 15.66 36.86 C 15.35 37.18 14.72 37.84 14.40 38.16 C 14.99 36.36 15.49 34.53 16.00 32.71 Z" />
<path fill="#f6eb7d" opacity="1.00" d=" M 60.84 31.48 C 63.56 32.93 65.87 35.00 68.04 37.16 C 67.40 37.44 66.13 37.99 65.49 38.26 L 64.97 38.51 C 65.81 40.43 66.80 42.30 67.88 44.09 C 67.75 46.19 67.59 48.28 67.45 50.38 C 68.11 51.08 68.75 51.81 69.37 52.57 C 70.66 55.23 71.90 57.92 73.35 60.51 C 72.64 61.20 71.94 61.92 71.27 62.65 C 71.07 62.17 70.67 61.20 70.47 60.72 C 69.16 61.09 67.86 61.49 66.57 61.90 C 66.78 61.40 67.21 60.40 67.42 59.90 C 64.14 56.37 58.70 56.72 54.47 58.03 L 52.88 58.72 C 52.71 58.80 52.35 58.95 52.18 59.03 C 53.98 62.37 57.58 63.83 61.25 63.74 C 60.41 64.85 59.57 65.97 58.70 67.06 C 54.94 70.87 49.26 70.98 44.39 72.34 C 38.95 73.80 33.30 73.67 27.72 73.54 C 26.92 72.55 26.60 70.97 25.36 70.44 C 23.05 71.85 20.81 73.48 18.06 73.86 C 16.72 70.61 14.26 68.11 11.23 66.39 C 16.30 66.97 21.50 64.78 24.79 60.90 C 23.65 60.00 22.59 58.28 20.91 59.06 C 16.77 59.90 10.13 59.21 9.46 64.92 L 9.46 64.95 C 10.60 60.68 7.45 56.67 8.97 52.52 C 9.43 51.87 9.91 51.24 10.41 50.63 C 11.89 52.04 13.35 53.50 15.00 54.74 C 16.42 55.63 17.88 56.47 19.26 57.42 C 22.92 56.26 27.53 56.11 29.92 52.69 L 29.88 51.38 C 29.85 50.68 29.82 49.97 29.79 49.27 C 30.40 48.38 31.00 47.48 31.59 46.58 C 32.38 49.20 33.66 53.04 37.10 52.68 C 41.18 52.04 42.17 47.27 42.01 43.81 C 42.26 44.22 42.75 45.06 42.99 45.48 C 43.74 45.05 44.48 44.62 45.23 44.19 C 45.44 45.33 45.65 46.48 45.86 47.63 C 47.05 48.01 48.24 48.37 49.43 48.73 C 47.71 48.93 45.99 49.19 44.27 49.43 C 48.66 52.60 54.63 51.33 59.70 51.12 L 60.08 49.18 C 60.20 48.55 60.43 47.29 60.55 46.66 C 60.95 48.08 61.37 49.49 61.79 50.90 C 62.49 47.88 63.57 44.85 63.37 41.71 C 62.71 38.25 60.91 35.07 60.84 31.48 M 37.28 57.43 C 35.47 58.82 33.19 59.73 31.22 58.07 C 31.65 59.05 31.85 60.38 33.12 60.60 C 35.34 60.55 37.24 58.78 39.53 59.33 C 41.47 59.80 43.22 58.85 44.06 57.08 C 41.83 57.58 39.55 57.90 37.28 57.43 Z" />
<path fill="#fffffe" opacity="1.00" d=" M 19.43 34.79 C 19.77 35.30 20.45 36.31 20.79 36.82 C 21.76 36.02 22.72 35.21 23.68 34.39 C 24.44 34.56 25.94 34.90 26.70 35.06 C 26.70 37.19 26.84 39.34 26.43 41.44 C 24.76 45.62 20.37 48.59 15.80 47.35 C 15.60 44.85 15.39 42.35 15.16 39.85 C 17.08 38.70 20.00 37.58 19.43 34.79 Z" />
<path fill="#000000" opacity="1.00" d=" M 31.59 44.37 C 31.70 40.86 31.89 36.74 34.83 34.33 C 36.54 34.58 37.64 36.06 38.85 37.15 C 40.19 39.22 41.10 41.52 42.01 43.81 C 42.17 47.27 41.18 52.04 37.10 52.68 C 33.66 53.04 32.38 49.20 31.59 46.58 C 31.59 46.02 31.59 44.92 31.59 44.37 M 33.10 45.28 C 33.25 46.34 33.42 47.39 33.61 48.44 C 34.62 50.48 36.42 51.65 38.68 50.66 C 40.18 47.23 40.00 43.23 38.39 39.87 C 37.62 38.73 36.77 37.64 35.98 36.51 L 34.81 36.26 C 32.76 38.65 33.29 42.30 33.10 45.28 Z" />
<path fill="#8eb0a5" opacity="1.00" d=" M 68.22 34.37 C 69.51 35.06 70.79 35.78 72.04 36.54 C 71.73 37.82 71.81 39.07 72.30 40.29 C 70.77 41.19 69.52 41.06 68.56 39.91 C 71.30 38.46 68.59 36.19 68.22 34.37 Z" />
<path fill="#72bfc0" opacity="1.00" d=" M 72.04 36.54 C 73.71 35.71 75.05 38.80 73.65 39.81 C 73.31 39.93 72.64 40.17 72.30 40.29 C 71.81 39.07 71.73 37.82 72.04 36.54 Z" />
<path fill="#f6eb7d" opacity="1.00" d=" M 33.10 45.28 C 33.29 42.30 32.76 38.65 34.81 36.26 L 35.98 36.51 C 34.20 39.11 32.88 42.06 33.10 45.28 Z" />
<path fill="#da2659" opacity="1.00" d=" M 35.98 36.51 C 36.77 37.64 37.62 38.73 38.39 39.87 C 38.64 41.45 38.84 43.04 38.93 44.64 C 37.16 45.91 35.39 47.18 33.61 48.44 C 33.42 47.39 33.25 46.34 33.10 45.28 C 32.88 42.06 34.20 39.11 35.98 36.51 Z" />
<path fill="#2b2b2b" opacity="0.59" d=" M 8.95 38.86 C 10.04 38.21 11.21 37.79 12.46 37.61 C 12.89 37.81 13.75 38.20 14.18 38.39 C 12.79 39.73 10.64 39.08 8.95 38.86 Z" />
<path fill="#fffffe" opacity="1.00" d=" M 64.97 38.51 L 65.49 38.26 C 68.43 42.21 71.56 46.14 72.69 51.05 C 72.31 51.35 71.54 51.95 71.16 52.25 C 70.55 55.72 75.26 58.19 74.11 61.90 L 73.35 60.51 C 71.90 57.92 70.66 55.23 69.37 52.57 C 69.91 51.89 71.00 50.54 71.55 49.86 C 70.43 47.88 69.04 46.06 67.88 44.09 C 66.80 42.30 65.81 40.43 64.97 38.51 Z" />
<path fill="#fffffe" opacity="1.00" d=" M 38.39 39.87 C 40.00 43.23 40.18 47.23 38.68 50.66 C 38.77 48.65 38.88 46.65 38.93 44.64 C 38.84 43.04 38.64 41.45 38.39 39.87 Z" />
<path fill="#27a4bd" opacity="1.00" d=" M 72.30 40.29 C 72.64 40.17 73.31 39.93 73.65 39.81 C 73.34 41.59 72.85 43.34 72.25 45.05 C 71.70 44.11 70.58 42.24 70.03 41.30 C 70.59 41.05 71.73 40.54 72.30 40.29 Z" />
<path fill="#fffffe" opacity="1.00" d=" M 3.79 45.07 C 6.00 43.29 8.46 41.76 11.22 41.00 C 10.19 42.24 8.90 43.23 7.52 44.06 C 7.34 44.44 6.99 45.21 6.81 45.59 C 6.05 45.46 4.54 45.20 3.79 45.07 Z" />
<path fill="#347d76" opacity="1.00" d=" M 6.81 45.59 C 6.99 45.21 7.34 44.44 7.52 44.06 C 7.68 45.96 9.27 46.89 10.72 47.80 C 9.22 49.70 7.67 51.56 6.09 53.39 C 5.18 50.66 4.52 47.86 3.79 45.07 C 4.54 45.20 6.05 45.46 6.81 45.59 Z" />
<path fill="#ffff99" opacity="1.00" d=" M 22.33 52.98 C 24.41 49.16 27.79 46.37 31.59 44.37 C 31.59 44.92 31.59 46.02 31.59 46.58 C 31.00 47.48 30.40 48.38 29.79 49.27 C 29.82 49.97 29.85 50.68 29.88 51.38 C 27.35 51.83 24.83 52.35 22.33 52.98 Z" />
<path fill="#a01759" opacity="1.00" d=" M 33.61 48.44 C 35.39 47.18 37.16 45.91 38.93 44.64 C 38.88 46.65 38.77 48.65 38.68 50.66 C 36.42 51.65 34.62 50.48 33.61 48.44 Z" />
<path fill="#ce8367" opacity="1.00" d=" M 67.88 44.09 C 69.04 46.06 70.43 47.88 71.55 49.86 C 71.00 50.54 69.91 51.89 69.37 52.57 C 68.75 51.81 68.11 51.08 67.45 50.38 C 67.59 48.28 67.75 46.19 67.88 44.09 Z" />
<path fill="#000000" opacity="1.00" d=" M 49.43 48.73 C 53.04 48.39 56.62 47.77 60.22 47.39 C 59.74 48.09 58.79 49.49 58.31 50.19 C 58.75 49.94 59.64 49.43 60.08 49.18 L 59.70 51.12 C 54.63 51.33 48.66 52.60 44.27 49.43 C 45.99 49.19 47.71 48.93 49.43 48.73 Z" />
<path fill="#000000" opacity="1.00" d=" M 22.33 52.98 C 24.83 52.35 27.35 51.83 29.88 51.38 L 29.92 52.69 C 27.53 56.11 22.92 56.26 19.26 57.42 C 17.88 56.47 16.42 55.63 15.00 54.74 C 17.46 54.22 19.90 53.62 22.33 52.98 Z" />
<path fill="#ce8367" opacity="1.00" d=" M 4.01 59.75 C 5.44 57.19 7.06 54.74 8.97 52.52 C 7.45 56.67 10.60 60.68 9.46 64.95 C 9.31 66.75 9.27 68.56 9.37 70.36 C 6.65 67.26 6.89 62.52 4.01 59.75 Z" />
<path fill="#000000" opacity="1.00" d=" M 37.28 57.43 C 39.55 57.90 41.83 57.58 44.06 57.08 C 43.22 58.85 41.47 59.80 39.53 59.33 C 37.24 58.78 35.34 60.55 33.12 60.60 C 31.85 60.38 31.65 59.05 31.22 58.07 C 33.19 59.73 35.47 58.82 37.28 57.43 Z" />
<path fill="#000000" opacity="1.00" d=" M 54.47 58.03 C 58.70 56.72 64.14 56.37 67.42 59.90 C 67.21 60.40 66.78 61.40 66.57 61.90 C 64.81 62.56 63.05 63.21 61.25 63.74 C 57.58 63.83 53.98 62.37 52.18 59.03 C 52.35 58.95 52.71 58.80 52.88 58.72 C 54.82 61.26 57.73 62.72 60.97 62.26 C 62.64 61.82 64.29 61.31 65.95 60.82 C 65.02 60.16 64.12 59.48 63.25 58.76 C 60.36 58.20 57.41 57.99 54.47 58.03 Z" />
<path fill="#000000" opacity="1.00" d=" M 20.91 59.06 C 22.59 58.28 23.65 60.00 24.79 60.90 C 21.50 64.78 16.30 66.97 11.23 66.39 C 10.79 66.02 9.90 65.29 9.46 64.92 C 10.13 59.21 16.77 59.90 20.91 59.06 M 13.24 60.88 C 12.21 61.94 11.17 63.00 10.13 64.05 C 11.97 66.19 14.93 65.23 17.23 64.61 C 19.66 64.12 21.56 62.43 23.47 60.97 C 20.39 58.69 16.61 60.61 13.24 60.88 Z" />
<path fill="#ce8367" opacity="1.00" d=" M 52.88 58.72 L 54.47 58.03 C 57.41 57.99 60.36 58.20 63.25 58.76 C 62.50 59.93 61.73 61.09 60.97 62.26 C 57.73 62.72 54.82 61.26 52.88 58.72 Z" />
<path fill="#da2659" opacity="1.00" d=" M 63.25 58.76 C 64.12 59.48 65.02 60.16 65.95 60.82 C 64.29 61.31 62.64 61.82 60.97 62.26 C 61.73 61.09 62.50 59.93 63.25 58.76 Z" />
<path fill="#ce8367" opacity="1.00" d=" M 13.24 60.88 C 16.61 60.61 20.39 58.69 23.47 60.97 C 21.56 62.43 19.66 64.12 17.23 64.61 C 15.86 63.41 14.56 62.13 13.24 60.88 Z" />
<path fill="#da2659" opacity="1.00" d=" M 10.13 64.05 C 11.17 63.00 12.21 61.94 13.24 60.88 C 14.56 62.13 15.86 63.41 17.23 64.61 C 14.93 65.23 11.97 66.19 10.13 64.05 Z" />
<path fill="#ddb166" opacity="1.00" d=" M 66.57 61.90 C 67.86 61.49 69.16 61.09 70.47 60.72 C 70.67 61.20 71.07 62.17 71.27 62.65 C 69.28 65.28 67.36 67.96 65.16 70.42 C 65.10 69.73 64.99 68.36 64.94 67.67 L 64.23 67.67 C 62.38 67.52 60.54 67.29 58.70 67.06 C 59.57 65.97 60.41 64.85 61.25 63.74 C 63.05 63.21 64.81 62.56 66.57 61.90 Z" />
<path fill="#a9aece" opacity="1.00" d=" M 71.27 62.65 C 71.94 61.92 72.64 61.20 73.35 60.51 C 71.75 65.99 67.93 70.57 64.04 74.64 L 62.91 73.36 C 61.39 74.94 59.83 76.50 58.03 77.76 L 58.69 76.48 C 59.29 75.46 59.93 74.48 60.59 73.50 C 61.92 71.63 63.04 69.63 64.23 67.67 L 64.94 67.67 C 64.99 68.36 65.10 69.73 65.16 70.42 C 67.36 67.96 69.28 65.28 71.27 62.65 Z" />
<path fill="#e2c264" opacity="1.00" d=" M 9.46 64.95 L 9.46 64.92 C 9.90 65.29 10.79 66.02 11.23 66.39 C 14.26 68.11 16.72 70.61 18.06 73.86 C 17.58 74.65 17.11 75.44 16.64 76.24 L 16.08 77.24 C 13.12 75.80 10.95 73.17 9.37 70.36 C 9.27 68.56 9.31 66.75 9.46 64.95 Z" />
<path fill="#d4a45a" opacity="1.00" d=" M 44.39 72.34 C 49.26 70.98 54.94 70.87 58.70 67.06 C 58.69 69.41 58.67 71.75 58.66 74.10 C 59.14 73.95 60.11 73.65 60.59 73.50 C 59.93 74.48 59.29 75.46 58.69 76.48 C 53.44 76.81 48.83 79.72 43.74 80.82 C 43.64 79.95 43.44 78.20 43.35 77.32 C 40.86 77.44 38.88 78.95 37.01 80.43 C 31.43 80.29 25.41 80.52 20.43 77.61 C 19.23 76.99 17.97 76.54 16.64 76.24 C 17.11 75.44 17.58 74.65 18.06 73.86 C 20.81 73.48 23.05 71.85 25.36 70.44 C 26.60 70.97 26.92 72.55 27.72 73.54 C 33.30 73.67 38.95 73.80 44.39 72.34 Z" />
<path fill="#c07c4e" opacity="1.00" d=" M 58.70 67.06 C 60.54 67.29 62.38 67.52 64.23 67.67 C 63.04 69.63 61.92 71.63 60.59 73.50 C 60.11 73.65 59.14 73.95 58.66 74.10 C 58.67 71.75 58.69 69.41 58.70 67.06 Z" />
<path fill="#00163d" opacity="0.93" d=" M 61.06 78.09 C 61.76 76.64 62.35 76.64 62.81 78.07 C 62.38 78.08 61.50 78.09 61.06 78.09 Z" />
</svg>
