<?xml version="1.0" encoding="UTF-8" ?>
<!DOCTYPE svg PUBLIC "-//W3C//DTD SVG 1.1//EN" "http://www.w3.org/Graphics/SVG/1.1/DTD/svg11.dtd">
<svg width="413pt" height="303pt" viewBox="0 0 413 303" version="1.1" xmlns="http://www.w3.org/2000/svg">
<path fill="#000000" opacity="1.00" d=" M 180.15 0.00 L 181.15 0.00 C 181.44 0.47 182.03 1.40 182.32 1.87 C 177.74 20.30 179.14 40.03 171.60 57.75 C 180.93 54.89 190.68 53.58 200.43 53.78 C 203.93 42.03 211.16 31.97 217.84 21.86 C 220.09 18.20 223.91 16.02 227.29 13.55 C 225.29 23.71 223.40 33.90 221.19 44.02 C 220.37 48.14 218.52 51.95 216.67 55.69 C 230.72 58.58 243.39 65.79 254.69 74.40 C 261.23 67.15 268.68 60.18 278.11 56.97 C 279.94 55.80 280.91 58.65 280.25 59.97 C 277.60 69.88 271.32 78.20 265.01 86.09 C 267.89 90.09 269.80 94.64 271.65 99.18 C 281.18 82.12 291.61 65.60 302.10 49.12 C 305.64 43.60 309.31 38.05 314.27 33.68 C 313.84 38.67 311.05 42.97 309.54 47.65 C 305.22 60.34 298.63 72.07 293.26 84.31 C 289.14 93.13 286.19 102.43 282.09 111.25 C 280.60 117.22 278.08 122.85 276.11 128.66 C 278.10 130.02 280.47 131.17 281.63 133.41 C 284.03 137.88 283.93 143.11 283.80 148.03 C 283.64 152.29 282.75 156.72 280.28 160.26 C 276.46 164.70 271.20 167.50 266.23 170.43 C 270.58 172.18 274.37 174.96 278.45 177.22 C 284.72 151.24 294.16 126.02 306.07 102.14 C 309.56 97.37 311.90 91.43 317.06 88.14 C 323.23 83.93 329.24 79.47 335.63 75.60 C 349.94 67.45 365.54 61.51 381.70 58.31 C 384.35 45.81 387.20 33.19 392.37 21.43 C 398.20 18.88 404.14 16.60 410.24 14.74 C 411.15 15.76 412.07 16.77 413.00 17.79 L 413.00 18.76 C 409.84 24.88 407.27 31.27 404.51 37.56 C 400.81 45.76 399.06 54.65 395.69 62.97 C 399.19 69.75 401.64 77.00 405.22 83.73 C 411.37 96.56 410.95 111.15 410.70 125.03 C 410.18 135.06 409.71 145.20 407.12 154.96 C 404.86 163.80 401.29 172.24 397.56 180.55 C 393.73 188.97 390.28 197.59 385.66 205.62 C 381.50 212.97 376.30 219.64 371.17 226.33 C 360.80 239.85 350.02 253.08 338.34 265.51 C 330.34 274.33 320.78 281.50 310.92 288.11 C 321.25 286.63 331.69 287.22 342.07 287.42 C 348.40 287.86 354.80 287.97 361.04 289.26 C 354.87 291.78 348.97 296.04 342.03 295.66 C 326.33 296.68 310.62 297.65 294.90 298.20 C 292.58 298.54 290.47 299.64 288.25 300.30 C 284.94 301.45 281.26 301.26 278.15 303.00 L 277.85 303.00 C 276.12 298.18 275.61 293.06 274.65 288.06 C 270.94 287.86 267.22 287.78 263.51 287.58 C 262.96 288.55 262.41 289.53 261.87 290.51 C 261.14 289.67 260.41 288.84 259.68 288.00 C 247.81 289.32 235.90 290.75 223.93 290.22 C 213.56 289.64 202.82 290.14 192.90 286.62 C 191.60 287.22 190.31 287.84 189.03 288.48 C 189.71 283.94 188.81 279.40 188.11 274.93 C 187.47 271.24 186.70 267.35 184.15 264.45 C 181.71 265.71 179.26 266.95 176.90 268.34 C 174.32 267.10 170.54 265.63 171.81 262.00 C 174.05 252.86 180.88 245.63 187.83 239.66 C 184.13 236.51 180.28 232.88 179.28 227.92 C 178.93 226.44 180.73 225.69 181.92 225.89 C 186.62 226.12 191.25 227.33 195.38 229.60 C 195.14 227.83 194.09 225.93 194.92 224.17 C 197.08 222.17 200.23 223.02 202.89 222.84 C 202.33 217.75 202.60 212.57 204.70 207.83 C 203.98 206.34 202.38 205.41 201.21 204.25 C 187.24 208.59 172.04 208.99 157.97 204.88 C 154.99 204.07 152.40 202.31 150.00 200.43 C 145.12 201.78 140.51 204.27 135.38 204.53 C 136.54 202.22 137.89 200.00 139.44 197.93 C 137.75 197.53 136.06 197.13 134.37 196.73 C 134.07 198.00 133.74 199.26 133.36 200.51 C 132.38 200.65 131.39 200.37 130.42 200.28 C 129.81 202.02 129.08 203.73 128.19 205.35 C 127.65 205.08 126.58 204.53 126.04 204.25 C 124.17 213.45 120.76 222.27 116.72 230.72 C 106.25 251.93 91.46 271.07 72.99 285.90 C 69.73 288.37 65.99 290.65 61.74 290.44 C 61.76 290.13 61.80 289.53 61.82 289.23 C 68.85 284.90 75.45 279.85 81.19 273.89 C 88.99 266.35 96.25 258.18 102.11 249.02 C 110.27 236.65 117.39 223.42 121.42 209.10 C 122.65 204.31 124.52 199.38 123.17 194.40 C 121.56 195.04 119.96 195.68 118.36 196.33 C 116.60 204.69 110.43 211.17 102.98 214.93 C 92.30 219.56 85.31 229.37 78.36 238.25 C 85.15 234.05 91.75 229.53 98.67 225.55 C 96.43 230.02 91.78 232.29 87.69 234.76 C 84.84 236.47 81.99 238.20 79.08 239.83 C 80.35 242.52 81.06 245.43 80.76 248.42 C 79.67 249.10 78.55 249.75 77.56 250.56 C 76.23 253.30 76.55 256.55 75.25 259.30 C 74.38 260.69 72.54 260.53 71.17 260.99 C 67.60 258.99 63.99 257.06 60.60 254.75 C 60.73 258.16 60.70 261.59 60.44 265.00 C 59.84 272.38 60.91 279.76 60.68 287.15 C 60.40 288.38 60.19 289.64 59.96 290.89 C 57.07 289.37 54.65 287.13 52.68 284.54 C 48.61 279.13 44.50 273.75 40.87 268.03 C 35.36 259.58 28.65 251.88 24.25 242.74 C 17.51 229.80 12.65 216.00 8.35 202.09 C 4.66 187.96 -0.58 173.85 0.09 159.02 C -0.74 139.41 5.44 120.25 13.66 102.69 C 24.55 79.24 42.31 59.24 63.78 44.92 C 69.89 41.40 75.90 37.61 82.53 35.10 C 81.65 29.10 81.78 23.02 81.94 16.97 C 82.12 15.32 82.02 13.49 82.93 12.03 C 86.30 8.94 90.94 6.15 95.67 7.48 C 98.69 8.97 100.45 12.06 102.12 14.85 C 103.53 16.65 102.20 18.81 101.57 20.63 C 99.18 26.15 96.63 31.61 93.85 36.94 C 103.32 44.51 110.78 54.53 115.37 65.74 C 115.83 67.27 117.63 67.40 118.84 68.06 C 126.08 70.84 130.94 77.22 136.03 82.76 C 139.88 79.20 143.88 75.79 148.07 72.63 C 148.72 52.62 157.05 33.88 166.63 16.65 C 170.26 10.47 173.98 3.98 180.15 0.00 M 165.42 25.34 C 159.09 37.56 153.65 50.44 151.39 64.10 L 151.12 64.43 C 150.77 66.62 150.48 68.82 150.19 71.02 C 152.74 69.28 155.29 67.54 157.95 65.97 C 160.68 64.32 163.67 63.13 166.37 61.43 C 167.71 59.00 168.80 56.46 169.80 53.88 L 169.86 53.88 C 173.76 42.63 175.54 30.62 175.82 18.74 C 177.60 14.46 177.55 9.69 178.48 5.18 C 172.87 10.96 169.19 18.30 165.42 25.34 M 84.83 12.97 C 84.91 13.70 85.07 15.15 85.15 15.88 C 85.11 22.04 85.60 28.24 84.71 34.36 C 86.95 33.05 89.23 33.67 91.39 34.77 C 93.36 28.02 97.03 21.95 99.08 15.23 C 97.66 13.45 96.12 11.78 94.58 10.11 C 91.07 9.13 87.55 10.87 84.83 12.97 M 400.67 21.59 C 400.19 21.78 399.23 22.17 398.75 22.36 L 398.67 22.50 C 397.04 23.43 394.64 23.93 394.21 26.09 C 392.87 30.25 390.70 34.30 390.37 38.71 C 388.92 44.10 387.98 49.62 386.81 55.08 C 386.47 55.99 386.15 56.91 385.84 57.83 C 388.20 57.80 390.55 57.79 392.92 57.78 C 396.58 49.79 398.33 41.13 401.50 32.96 C 403.08 28.07 405.54 23.55 407.47 18.81 C 405.13 19.55 402.86 20.51 400.67 21.59 M 218.72 25.59 C 212.50 34.48 206.57 43.66 202.20 53.62 C 204.30 53.93 206.40 54.33 208.50 54.64 C 210.72 54.84 212.93 55.11 215.14 55.36 C 219.18 43.86 220.94 31.71 222.95 19.74 C 221.39 21.56 219.64 23.34 218.72 25.59 M 71.33 44.31 C 62.96 49.74 55.29 56.14 47.78 62.68 C 33.23 77.61 20.87 94.95 13.34 114.49 C 11.19 118.76 10.18 123.54 8.55 128.03 L 8.64 128.26 C 7.59 130.99 6.41 133.77 6.22 136.72 C 3.87 146.03 4.04 155.66 4.11 165.19 C 4.11 171.78 6.27 178.18 7.61 184.59 C 10.71 194.95 13.04 205.57 17.23 215.57 C 19.00 222.42 22.12 228.86 25.00 235.31 C 27.14 239.88 29.46 244.38 32.08 248.69 C 34.45 252.11 36.86 255.50 39.35 258.83 C 45.87 268.05 51.77 277.76 58.94 286.48 C 58.61 281.30 57.78 276.18 57.45 271.00 C 57.05 263.98 58.66 256.98 58.09 249.96 C 57.03 247.38 55.90 244.83 54.65 242.34 C 50.51 238.73 46.71 234.74 42.51 231.19 C 39.18 228.42 36.16 225.33 33.21 222.17 C 31.82 220.61 30.42 219.04 29.15 217.38 C 30.08 217.49 30.97 217.72 31.84 218.08 L 31.78 218.68 C 35.03 221.76 38.42 224.68 41.85 227.55 C 42.71 228.15 43.58 228.76 44.45 229.37 C 47.89 232.65 51.63 235.65 54.94 239.10 C 55.90 237.93 56.79 236.71 57.62 235.46 C 58.22 235.29 59.43 234.94 60.03 234.76 C 60.73 220.81 61.49 206.85 62.74 192.93 C 59.35 191.03 56.40 188.48 53.53 185.87 C 50.85 183.21 48.25 180.47 45.59 177.79 C 43.64 175.49 41.81 173.09 39.98 170.70 C 39.33 169.23 37.94 167.86 38.25 166.15 C 38.59 166.47 39.26 167.12 39.59 167.44 L 39.51 167.88 C 41.48 170.48 43.32 173.20 45.74 175.42 C 46.90 176.49 48.02 177.61 49.13 178.74 L 49.10 178.86 C 50.80 180.37 52.56 181.82 54.35 183.23 L 54.29 183.52 C 57.19 185.85 60.01 188.29 62.99 190.53 C 64.04 178.37 66.22 166.35 68.62 154.40 C 66.92 153.03 65.34 151.52 63.92 149.86 C 62.51 147.86 60.96 145.95 59.43 144.04 C 58.09 142.12 56.65 140.28 55.11 138.53 L 55.27 138.11 C 53.08 134.54 51.17 130.82 49.30 127.08 C 48.43 124.77 47.33 122.55 46.33 120.30 C 45.53 118.14 44.52 115.97 44.75 113.60 C 45.19 114.01 46.07 114.81 46.51 115.21 L 46.28 115.72 C 47.36 117.80 48.40 119.89 49.40 122.01 C 51.05 125.40 52.83 128.72 54.64 132.02 C 56.48 135.05 58.19 138.16 60.32 140.99 C 63.15 144.62 65.94 148.30 69.11 151.64 C 70.20 147.27 71.19 142.87 72.46 138.54 L 73.33 139.06 C 74.12 143.68 72.03 148.18 72.37 152.76 C 76.12 151.64 79.88 150.55 83.60 149.30 C 83.14 146.94 82.69 144.55 81.61 142.38 C 78.67 136.29 76.63 129.83 74.49 123.43 C 72.42 118.42 71.11 113.16 69.63 107.96 C 69.02 103.74 68.44 99.50 68.18 95.24 C 70.16 94.79 70.84 96.88 71.77 98.16 C 74.71 103.01 77.74 107.80 80.38 112.82 C 82.50 116.67 84.42 120.64 86.93 124.26 C 89.22 129.60 92.17 134.63 94.44 139.98 C 96.99 139.46 99.41 138.51 101.86 137.69 C 102.93 132.97 104.42 128.38 106.20 123.89 C 108.09 119.27 110.81 115.08 112.98 110.62 C 117.00 105.14 120.37 99.18 124.86 94.05 C 122.29 90.47 119.37 87.17 116.48 83.85 C 113.38 80.19 110.25 76.55 107.19 72.86 C 105.75 71.21 106.17 68.93 106.20 66.94 C 108.72 66.26 111.33 65.95 113.94 66.26 C 109.89 61.16 106.48 55.60 102.38 50.55 C 98.66 46.48 94.73 42.60 90.54 39.01 C 89.52 38.22 88.51 37.43 87.49 36.64 L 87.84 36.38 C 81.79 37.52 76.34 40.83 71.33 44.31 M 305.34 49.44 C 298.75 60.73 291.40 71.55 284.76 82.81 C 279.32 91.77 274.25 100.95 268.91 109.97 C 267.37 112.55 266.65 115.52 265.20 118.15 C 262.36 123.24 259.08 128.08 256.41 133.27 C 254.61 137.83 252.37 142.27 251.46 147.14 C 250.95 150.37 253.11 152.95 256.05 153.96 C 258.04 153.34 260.14 152.99 261.99 151.99 C 263.95 150.86 264.71 148.56 265.68 146.65 C 268.92 139.18 272.05 131.65 274.70 123.95 C 275.70 120.87 277.12 117.86 277.26 114.57 C 278.89 111.02 280.89 107.62 282.15 103.90 C 286.72 91.58 292.01 79.53 297.88 67.76 C 301.28 60.49 305.01 53.35 307.86 45.84 C 306.92 46.97 306.07 48.17 305.34 49.44 M 181.81 59.48 C 179.56 59.64 177.26 60.06 175.27 61.17 C 168.37 64.94 161.10 68.10 154.65 72.65 C 149.09 76.50 144.04 81.01 138.91 85.39 C 145.49 93.59 151.08 102.81 154.09 112.95 C 157.51 123.54 161.58 134.28 160.77 145.62 C 163.73 143.23 167.30 143.96 170.73 144.51 C 177.40 145.66 184.31 147.11 189.89 151.16 C 192.83 153.24 194.76 156.33 196.62 159.33 C 198.84 163.53 200.37 168.09 199.79 172.91 C 202.70 171.69 205.82 171.78 208.80 172.71 C 209.03 170.20 209.07 167.56 210.41 165.33 C 211.86 161.92 215.30 159.58 215.71 155.72 C 216.18 151.45 219.88 148.68 221.11 144.74 C 223.45 143.33 225.20 141.15 227.03 139.16 C 227.90 138.68 228.74 138.17 229.56 137.61 C 237.89 131.10 247.82 126.97 257.85 123.87 C 261.58 116.69 265.66 109.69 269.59 102.63 C 269.29 100.36 267.43 98.48 266.56 96.36 C 263.99 90.65 259.90 85.85 255.80 81.19 C 253.92 79.06 251.76 77.17 249.29 75.76 C 247.11 73.62 244.37 72.16 241.85 70.47 L 241.51 70.45 C 224.20 58.78 202.10 55.68 181.81 59.48 M 256.00 75.77 C 257.78 77.48 259.52 79.24 261.06 81.18 C 261.83 82.28 262.69 83.34 263.77 84.17 C 267.03 77.65 272.06 71.93 274.03 64.82 C 274.86 64.08 275.26 63.13 275.23 61.99 C 268.49 66.09 261.88 70.48 256.00 75.77 M 382.56 64.02 L 382.59 64.11 C 381.69 64.36 379.90 64.87 379.00 65.12 C 366.91 68.06 354.95 72.05 344.05 78.08 C 336.86 81.19 330.19 85.40 323.66 89.70 C 320.66 91.91 317.23 93.81 315.10 96.97 C 304.65 113.42 297.39 131.63 291.06 149.99 C 290.03 153.13 288.85 156.24 288.28 159.50 C 281.67 177.95 278.22 197.41 276.11 216.87 C 274.97 227.31 274.23 237.96 275.19 248.40 C 274.53 265.59 278.46 282.63 279.44 299.77 C 281.39 299.25 283.05 298.13 284.42 296.67 C 301.35 283.76 314.00 266.26 325.50 248.56 C 324.17 248.64 322.84 248.73 321.51 248.82 C 311.57 248.79 301.43 249.91 291.65 247.67 C 292.40 245.93 294.46 246.60 295.93 246.43 C 305.92 246.59 315.91 246.33 325.90 246.83 C 325.85 246.44 325.75 245.67 325.71 245.28 C 328.19 246.72 328.05 244.23 327.80 242.47 C 330.25 243.27 330.00 241.21 329.78 239.46 C 332.39 240.27 331.87 237.95 331.75 236.19 C 333.55 236.78 334.28 235.91 333.93 233.60 C 335.66 233.36 335.95 232.00 335.94 230.47 C 336.31 230.30 337.07 229.96 337.45 229.79 C 337.65 229.27 338.05 228.24 338.25 227.73 C 342.98 220.90 346.38 213.23 350.88 206.24 C 348.02 206.83 345.20 207.54 342.39 208.30 L 342.25 208.52 C 331.09 210.78 320.16 214.04 309.02 216.35 C 308.56 216.44 307.66 216.63 307.21 216.73 C 306.38 216.72 304.71 216.72 303.88 216.72 C 304.74 215.36 306.40 215.10 307.81 214.63 C 320.01 211.01 332.45 208.28 344.81 205.29 C 347.35 204.72 349.89 204.14 352.43 203.57 C 358.27 193.67 363.61 183.48 368.60 173.13 L 368.37 172.56 L 368.56 172.76 C 369.66 169.01 371.78 165.69 372.92 161.97 C 372.50 162.31 371.67 163.00 371.25 163.34 C 367.91 163.67 365.33 166.12 362.22 167.18 C 352.96 170.85 343.85 175.49 333.88 176.85 C 334.27 174.69 336.88 174.63 338.48 173.73 L 338.51 173.55 C 349.45 169.73 360.37 165.59 370.55 160.02 C 371.95 159.56 373.35 159.11 374.75 158.67 C 379.97 144.13 383.05 128.93 386.69 113.95 C 386.36 129.67 381.55 144.89 376.96 159.80 C 379.36 162.26 381.08 165.29 383.51 167.73 C 384.83 168.91 387.01 169.78 386.94 171.87 C 384.75 171.69 382.75 170.83 380.93 169.64 C 379.12 167.42 377.84 164.82 375.96 162.64 C 373.31 168.43 370.85 174.30 367.88 179.93 C 365.99 184.02 363.35 187.76 361.89 192.05 C 358.84 196.46 356.54 201.38 353.62 205.89 C 354.90 207.65 356.17 209.42 357.43 211.20 C 358.93 213.95 360.78 216.57 361.52 219.67 C 356.97 217.70 355.18 212.68 352.71 208.75 C 351.12 209.53 350.56 211.32 349.69 212.74 C 343.13 224.74 336.03 236.44 328.52 247.88 C 329.85 252.18 328.54 256.65 328.37 261.02 C 327.40 257.56 327.55 253.94 327.15 250.40 C 324.33 253.56 322.33 257.35 319.78 260.72 C 311.96 272.04 303.34 282.88 292.99 292.00 C 291.82 292.98 290.70 294.04 289.85 295.31 C 294.14 293.29 297.91 290.35 301.90 287.81 C 311.17 281.17 320.97 275.12 329.02 266.97 C 342.96 253.09 355.27 237.70 367.24 222.12 C 374.58 212.60 381.90 202.77 386.23 191.46 C 387.98 188.94 389.07 186.06 390.35 183.29 C 394.62 174.11 398.78 164.83 401.54 155.06 C 404.36 144.96 404.80 134.42 405.38 124.01 C 405.64 114.51 405.62 104.90 403.69 95.56 C 402.45 89.33 399.50 83.65 397.52 77.65 C 395.90 72.69 393.33 68.09 390.59 63.67 C 388.50 61.29 385.20 63.95 382.56 64.02 M 108.26 67.55 C 108.94 72.14 113.23 74.70 115.68 78.30 C 122.22 85.54 128.16 93.27 133.97 101.09 C 137.06 105.34 140.14 109.60 142.95 114.05 C 144.60 116.90 146.35 119.70 147.94 122.60 C 151.47 130.04 154.93 137.53 157.73 145.28 C 159.11 134.78 154.69 124.80 151.51 115.04 C 150.84 113.13 150.19 111.22 149.55 109.31 C 147.76 104.91 145.12 100.95 142.66 96.91 C 135.52 88.88 128.81 80.38 120.43 73.56 C 116.96 70.51 112.56 68.99 108.26 67.55 M 107.50 131.41 C 106.35 135.09 105.10 138.89 105.40 142.79 C 104.18 150.82 105.02 159.06 106.63 166.98 C 107.04 168.25 107.00 169.80 107.91 170.85 C 109.03 175.51 110.15 180.32 112.41 184.57 C 115.91 187.01 119.78 189.31 124.09 189.88 C 120.87 186.38 116.53 184.17 113.25 180.74 C 111.96 179.10 113.08 176.96 113.26 175.14 C 116.41 160.64 127.83 149.06 141.09 143.12 C 144.98 141.19 149.44 141.33 153.67 141.47 C 147.64 126.96 140.04 113.00 129.89 100.95 C 129.63 99.78 128.27 98.64 127.61 97.53 C 119.26 107.69 111.88 118.93 107.50 131.41 M 72.43 105.28 C 75.41 115.88 79.11 126.25 82.60 136.68 C 83.91 140.51 85.74 144.18 86.24 148.24 C 88.28 145.70 90.19 143.00 92.85 141.06 C 92.11 139.67 91.36 138.28 90.59 136.90 C 85.05 126.24 79.14 115.77 73.23 105.31 C 73.03 105.30 72.63 105.29 72.43 105.28 M 224.15 148.86 C 221.26 151.01 218.97 154.46 218.77 158.09 C 220.63 165.39 224.83 171.76 228.01 178.51 C 232.31 178.61 236.50 177.59 240.64 176.56 C 240.40 171.64 240.63 166.51 242.97 162.06 C 244.83 158.71 248.01 156.45 250.91 154.06 C 250.15 152.69 249.41 151.31 248.73 149.90 C 249.43 147.17 248.98 144.27 249.66 141.58 C 252.18 137.59 253.41 132.98 255.39 128.73 C 243.72 133.07 232.05 138.92 224.15 148.86 M 267.24 149.80 C 269.63 150.91 272.34 151.81 273.99 154.00 C 275.46 155.66 274.41 158.03 274.52 159.97 C 279.01 156.97 279.65 150.94 279.68 145.99 C 279.78 141.37 279.47 135.53 274.87 133.04 C 272.28 138.60 270.15 144.38 267.24 149.80 M 91.92 146.83 C 89.62 149.79 87.04 152.63 85.48 156.07 C 85.30 159.36 83.58 163.12 85.83 166.05 C 88.11 169.34 90.21 172.87 93.33 175.46 C 93.38 173.12 93.16 170.76 93.53 168.44 C 94.48 166.92 96.28 166.19 97.67 165.13 C 99.50 165.74 101.54 165.38 103.45 165.52 C 101.51 157.68 101.50 149.60 101.43 141.59 C 98.04 142.86 94.19 143.76 91.92 146.83 M 135.74 148.77 C 130.79 152.36 125.93 156.33 122.65 161.57 C 118.76 165.76 116.96 171.27 115.47 176.66 L 114.89 176.56 C 115.23 177.65 114.90 179.17 115.91 179.94 C 121.18 183.97 126.26 188.26 131.94 191.70 C 132.17 191.47 132.63 191.01 132.86 190.78 C 132.82 191.22 132.74 192.11 132.69 192.55 C 134.75 192.73 135.57 195.39 137.68 195.85 C 137.83 194.00 137.37 192.20 136.56 190.55 C 135.58 190.14 134.63 189.70 133.69 189.23 L 134.25 188.67 C 135.58 186.45 137.01 188.39 138.29 189.51 C 138.24 189.91 138.13 190.70 138.07 191.10 C 139.15 190.55 140.12 189.82 141.04 189.06 C 141.46 189.17 142.30 189.39 142.71 189.50 C 143.47 188.96 144.22 188.42 144.98 187.88 C 145.83 188.09 146.68 188.30 147.54 188.51 C 150.75 185.46 154.45 182.90 158.79 181.78 C 165.69 176.53 174.13 171.03 176.09 162.01 C 173.16 159.63 171.26 156.21 168.08 154.11 C 165.22 152.21 163.30 149.13 160.21 147.57 C 159.70 150.00 159.23 152.49 159.56 154.99 C 158.96 154.93 157.77 154.81 157.17 154.75 C 156.84 152.09 156.77 149.38 155.82 146.85 C 152.47 146.01 149.04 145.47 145.59 145.25 C 142.03 145.39 138.72 146.93 135.74 148.77 M 164.95 147.24 C 167.46 149.00 169.88 150.89 172.31 152.76 C 175.17 154.66 175.96 158.21 177.78 160.94 C 178.02 161.50 178.49 162.61 178.73 163.16 C 179.18 166.37 181.03 169.63 180.06 172.88 C 178.96 174.67 178.07 176.56 177.51 178.60 C 176.84 180.90 174.21 181.42 172.37 182.43 C 169.22 182.54 166.10 183.03 163.00 183.59 C 163.38 184.38 163.75 185.16 164.11 185.96 C 163.80 187.31 163.60 188.67 163.51 190.06 C 165.26 189.82 167.02 189.59 168.78 189.37 C 176.62 188.23 184.22 185.32 190.45 180.37 C 193.50 177.91 197.49 175.25 197.54 170.89 C 197.98 166.62 195.65 162.83 193.60 159.30 C 192.29 157.39 190.82 155.61 189.22 153.95 C 182.24 148.87 173.34 147.69 164.95 147.24 M 71.50 154.42 C 69.45 165.95 67.00 177.43 66.09 189.13 C 72.70 186.49 78.85 182.75 85.57 180.40 C 81.32 186.95 72.78 188.38 65.91 190.91 C 64.32 205.64 63.45 220.45 61.46 235.14 C 62.62 235.49 63.79 235.85 64.95 236.22 C 64.51 234.81 63.51 233.48 63.75 231.95 C 64.33 230.15 66.39 230.19 67.87 229.64 C 69.87 219.70 72.43 208.55 81.01 202.13 C 84.88 199.07 90.05 200.06 94.15 202.04 C 94.79 202.96 95.42 203.88 96.05 204.81 C 99.31 200.44 103.83 197.28 107.15 193.00 C 103.42 189.89 99.66 186.78 96.29 183.27 C 94.29 181.32 92.38 179.29 90.46 177.27 L 90.47 177.09 C 87.18 173.05 83.49 169.01 81.80 164.00 C 81.76 159.83 82.47 155.61 83.94 151.69 C 79.97 153.29 75.78 154.20 71.50 154.42 M 266.37 152.19 C 262.50 155.45 256.71 157.86 252.06 154.75 C 250.33 156.53 248.39 158.15 247.11 160.31 C 242.87 164.22 242.86 170.66 243.27 176.01 C 247.89 174.64 252.32 172.64 256.60 170.44 L 256.78 170.03 C 259.86 169.45 262.48 167.63 265.23 166.25 C 267.22 165.03 269.95 164.25 270.51 161.67 C 270.99 159.65 272.72 157.40 271.46 155.38 C 269.95 154.04 268.10 153.17 266.37 152.19 M 210.33 173.12 C 215.39 176.15 218.26 181.51 220.34 186.83 C 222.29 184.80 224.38 182.89 226.75 181.35 C 226.09 179.45 225.10 177.71 223.89 176.12 C 220.46 171.44 218.08 166.11 215.84 160.79 C 212.66 164.10 210.67 168.53 210.33 173.12 M 171.16 174.12 C 169.34 175.76 167.37 177.24 165.70 179.05 C 169.71 178.02 173.64 176.35 176.95 173.85 C 179.53 171.93 177.71 168.55 177.40 166.00 C 175.13 168.57 173.78 171.85 171.16 174.12 M 95.70 168.83 C 94.91 172.47 95.59 176.38 97.06 179.77 C 99.39 182.51 102.10 184.91 104.89 187.19 C 108.09 189.92 111.37 193.74 115.99 193.38 C 118.04 193.18 120.62 194.14 122.24 192.48 C 117.64 191.22 113.64 188.60 110.15 185.41 C 108.62 179.38 105.51 173.87 104.08 167.79 C 101.29 167.34 98.06 166.90 95.70 168.83 M 257.66 174.78 C 256.60 175.21 255.54 175.65 254.49 176.08 C 255.90 179.26 258.65 181.54 261.07 183.93 C 261.15 184.05 261.30 184.28 261.37 184.39 C 265.39 188.55 270.02 192.07 274.64 195.53 C 275.20 192.48 275.75 189.42 276.35 186.38 C 276.61 184.34 277.95 182.13 277.11 180.15 C 273.11 176.77 268.47 174.23 264.03 171.49 C 261.87 172.51 259.74 173.60 257.66 174.78 M 199.35 174.44 C 192.29 184.19 180.63 189.94 168.83 191.35 C 166.71 191.29 164.60 191.37 162.49 191.38 C 159.37 194.50 155.86 197.23 152.04 199.45 C 155.36 201.46 159.09 202.68 162.89 203.39 C 174.93 206.08 187.42 204.83 199.31 202.02 C 203.17 200.98 206.93 199.41 210.32 197.27 C 213.65 194.62 215.55 190.59 219.01 188.03 L 218.02 187.15 C 217.19 183.44 215.16 180.10 212.83 177.14 C 209.21 173.96 203.92 172.40 199.35 174.44 M 166.78 180.81 C 170.13 181.33 174.88 180.86 176.19 177.14 C 173.00 178.22 169.80 179.31 166.78 180.81 M 228.90 181.73 C 227.30 183.07 224.94 183.99 224.16 186.02 C 225.51 188.20 227.69 189.75 228.93 192.03 C 230.91 195.31 230.98 199.25 231.34 202.95 C 235.59 201.40 239.75 199.22 242.92 195.94 C 247.07 191.45 246.72 184.85 247.15 179.17 C 241.22 180.71 235.09 183.01 228.90 181.73 M 250.93 178.85 C 250.96 182.63 251.42 186.45 250.57 190.19 C 249.68 195.65 246.00 200.25 241.37 203.11 C 243.98 209.65 240.79 216.86 235.53 221.03 C 235.51 222.70 235.51 224.37 235.51 226.04 C 241.74 223.26 247.96 218.87 255.11 219.68 C 255.62 221.72 255.93 223.87 254.05 225.37 C 258.40 225.62 261.90 229.64 261.68 233.96 C 261.41 239.22 258.51 243.86 255.40 247.94 C 264.44 255.76 266.25 268.88 265.32 280.19 C 268.12 280.05 270.95 279.98 273.69 280.70 C 269.59 254.26 269.64 227.18 273.81 200.74 C 274.28 199.32 272.38 198.98 271.59 198.30 C 263.36 193.48 256.24 186.78 250.93 178.85 M 155.07 185.50 C 149.82 188.77 145.39 193.26 141.79 198.27 C 140.93 199.30 140.15 200.40 139.42 201.53 C 143.90 200.87 147.92 198.71 151.96 196.80 C 156.15 194.77 160.18 191.59 161.50 186.93 C 161.14 183.82 157.12 184.81 155.07 185.50 M 215.61 193.57 C 213.94 196.07 212.18 198.53 209.97 200.59 C 208.50 201.56 205.56 201.65 205.18 203.60 C 210.56 206.42 216.85 206.22 222.69 205.39 C 224.73 205.03 226.77 204.61 228.63 203.67 C 229.69 197.46 227.03 191.52 222.85 187.06 C 220.30 189.05 217.41 190.79 215.61 193.57 M 125.54 190.31 C 124.51 194.29 126.01 198.16 127.43 201.83 C 129.14 202.13 129.70 199.70 129.49 198.42 C 127.83 196.29 126.57 193.88 126.69 191.09 C 126.40 190.89 125.83 190.50 125.54 190.31 M 144.23 189.98 C 142.78 190.31 142.86 193.16 144.59 191.92 C 145.96 191.56 145.96 188.91 144.23 189.98 M 139.59 197.23 C 142.37 196.16 141.87 192.78 142.05 190.42 C 138.91 191.06 139.79 194.88 139.59 197.23 M 128.30 192.63 C 129.25 194.37 130.24 196.86 132.56 196.91 C 132.55 196.29 132.54 195.04 132.54 194.41 C 131.87 193.78 131.21 193.14 130.55 192.51 C 129.99 192.54 128.86 192.60 128.30 192.63 M 109.11 194.82 C 107.20 198.19 104.40 200.88 101.83 203.73 C 99.49 206.32 96.86 208.80 95.49 212.07 C 95.67 214.27 98.08 213.78 99.57 213.35 C 102.69 211.90 105.43 209.77 108.24 207.82 C 111.81 204.86 114.10 200.73 115.81 196.49 C 113.51 196.23 111.26 195.66 109.11 194.82 M 85.02 203.70 C 80.83 206.01 78.34 210.36 76.23 214.49 L 75.98 214.45 C 74.08 219.84 72.50 225.37 71.70 231.04 C 73.15 232.74 74.61 234.44 76.07 236.15 C 81.29 228.77 86.39 220.55 94.85 216.51 C 91.18 213.62 92.68 208.68 95.36 205.68 C 94.46 205.20 93.55 204.29 92.47 204.44 C 90.13 203.69 87.42 202.42 85.02 203.70 M 230.36 208.18 C 231.65 211.75 232.01 215.53 231.91 219.30 C 236.35 216.26 239.96 210.55 238.09 205.07 C 235.50 206.07 232.92 207.11 230.36 208.18 M 206.95 208.90 C 205.00 214.66 205.16 221.72 209.38 226.47 C 212.18 227.05 215.30 226.98 218.02 226.05 C 221.61 225.64 225.09 224.19 228.00 222.09 C 230.52 218.31 230.01 213.33 228.80 209.18 C 227.08 208.56 225.25 209.48 223.51 209.67 C 218.04 210.91 212.33 210.30 206.95 208.90 M 234.97 228.91 C 232.63 230.64 229.46 231.65 228.06 234.36 C 230.81 235.01 234.06 236.61 236.67 234.72 C 242.25 230.62 248.79 227.43 253.23 222.05 C 246.71 222.82 240.65 225.79 234.97 228.91 M 223.39 228.48 C 219.10 230.94 213.96 229.25 209.30 229.98 C 210.14 230.90 210.99 231.82 211.86 232.73 C 211.29 232.85 210.16 233.09 209.59 233.21 C 206.73 231.16 204.63 228.29 203.96 224.80 C 202.13 225.65 198.27 224.34 197.87 226.85 C 199.64 230.57 201.86 234.24 205.08 236.89 C 207.33 238.83 210.10 240.17 212.97 240.93 C 217.20 240.34 221.11 238.36 224.56 235.91 C 224.45 235.39 224.22 234.36 224.10 233.84 C 227.64 231.18 231.54 228.36 233.10 224.02 C 229.72 225.17 226.59 226.92 223.39 228.48 M 182.06 228.51 C 183.23 232.06 186.04 234.73 188.98 236.88 C 193.14 239.48 198.16 242.23 203.18 240.73 C 201.42 238.22 199.37 235.94 197.53 233.49 C 193.03 230.32 187.44 229.15 182.06 228.51 M 251.35 229.38 C 249.18 230.78 247.26 232.56 244.99 233.80 C 243.79 234.64 242.00 235.08 241.64 236.71 C 239.58 244.19 237.90 251.97 238.66 259.78 C 238.61 260.31 238.51 261.36 238.46 261.89 C 245.32 256.88 249.99 249.74 255.26 243.23 C 257.57 239.34 260.55 234.07 257.39 229.83 C 255.48 229.22 253.25 228.19 251.35 229.38 M 66.73 234.00 C 68.91 235.78 70.87 238.36 74.01 238.07 C 73.86 235.38 72.10 233.36 69.80 232.16 C 68.45 230.77 66.74 232.54 66.73 234.00 M 206.88 242.32 C 205.55 242.76 204.15 243.15 203.11 244.14 C 199.93 246.84 196.44 249.13 193.18 251.74 C 195.68 251.03 198.41 250.00 200.95 251.14 C 201.94 252.09 202.47 253.48 202.67 254.83 C 203.25 262.68 200.86 270.38 198.52 277.77 C 206.36 277.21 214.11 275.41 222.00 275.73 C 233.41 276.04 244.78 277.30 256.08 278.85 C 253.06 272.03 249.84 265.21 245.34 259.22 C 243.08 261.38 240.63 263.40 237.85 264.86 C 235.77 265.18 235.37 262.59 235.02 261.10 C 234.01 253.32 235.59 245.47 237.72 238.01 C 234.52 239.08 231.14 238.85 228.03 237.62 C 223.10 243.85 213.96 244.60 206.88 242.32 M 58.06 239.40 C 57.71 243.05 59.23 246.43 61.19 249.40 C 62.59 253.87 67.32 256.46 71.56 257.78 C 72.24 255.87 73.20 254.02 73.46 251.99 C 74.41 246.22 68.90 241.98 64.32 239.65 C 62.25 239.32 60.15 239.27 58.06 239.40 M 71.66 240.49 C 73.31 242.89 74.37 246.23 77.34 247.31 C 77.95 245.11 76.75 243.07 76.14 241.03 C 74.65 240.85 73.15 240.67 71.66 240.49 M 174.06 264.27 C 177.66 259.86 182.18 256.38 186.15 252.34 C 190.36 249.87 194.23 246.85 198.24 244.08 C 195.44 242.96 192.57 241.95 189.99 240.37 C 183.96 247.68 175.16 254.18 174.06 264.27 M 252.28 251.75 C 250.61 253.65 248.89 255.53 247.63 257.74 C 252.36 262.43 255.17 268.55 257.96 274.49 C 259.53 278.22 259.97 282.35 261.84 285.95 C 262.78 280.86 262.06 275.70 262.33 270.57 C 261.11 263.59 258.58 255.70 252.28 251.75 M 187.19 258.91 C 187.42 257.58 187.65 256.26 187.88 254.94 C 186.72 255.72 185.57 256.49 184.41 257.27 L 184.41 257.44 C 181.75 259.88 177.29 261.48 176.64 265.34 C 179.27 264.31 181.62 262.67 184.37 261.96 L 184.36 262.64 C 185.02 262.73 186.33 262.93 186.99 263.02 C 190.37 269.84 191.52 277.58 191.17 285.12 C 196.23 280.35 197.97 273.53 199.28 266.97 C 199.91 262.65 201.41 257.05 198.74 253.36 C 194.48 254.20 190.87 256.75 187.19 258.91 Z" />
<path fill="#8999a6" opacity="1.00" d=" M 165.42 25.34 C 169.19 18.30 172.87 10.96 178.48 5.18 C 177.55 9.69 177.60 14.46 175.82 18.74 C 170.90 27.72 166.53 36.99 161.64 45.98 C 160.78 47.57 159.93 49.16 159.12 50.77 C 155.85 54.82 154.66 60.10 151.39 64.10 C 153.65 50.44 159.09 37.56 165.42 25.34 Z" />
<path fill="#fffad5" opacity="1.00" d=" M 84.83 12.97 C 87.55 10.87 91.07 9.13 94.58 10.11 C 93.02 13.03 90.85 15.63 89.73 18.75 C 88.76 21.89 89.48 26.45 85.56 27.69 C 85.37 23.76 85.46 19.81 85.15 15.88 C 85.07 15.15 84.91 13.70 84.83 12.97 Z" />
<path fill="#80b59a" opacity="1.00" d=" M 94.58 10.11 C 96.12 11.78 97.66 13.45 99.08 15.23 C 97.03 21.95 93.36 28.02 91.39 34.77 C 89.23 33.67 86.95 33.05 84.71 34.36 C 85.60 28.24 85.11 22.04 85.15 15.88 C 85.46 19.81 85.37 23.76 85.56 27.69 C 89.48 26.45 88.76 21.89 89.73 18.75 C 90.85 15.63 93.02 13.03 94.58 10.11 Z" />
<path fill="#4b5573" opacity="1.00" d=" M 161.64 45.98 C 166.53 36.99 170.90 27.72 175.82 18.74 C 175.54 30.62 173.76 42.63 169.86 53.88 L 169.80 53.88 C 168.67 53.74 167.55 53.61 166.43 53.49 C 164.62 51.13 163.02 48.62 161.64 45.98 Z" />
<path fill="#214b6e" opacity="1.00" d=" M 400.67 21.59 C 402.86 20.51 405.13 19.55 407.47 18.81 C 405.54 23.55 403.08 28.07 401.50 32.96 C 398.33 41.13 396.58 49.79 392.92 57.78 C 390.55 57.79 388.20 57.80 385.84 57.83 C 386.15 56.91 386.47 55.99 386.81 55.08 C 386.79 55.72 386.75 57.00 386.73 57.64 C 387.29 57.52 388.42 57.27 388.98 57.15 C 395.90 46.59 400.01 34.22 400.67 21.59 Z" />
<path fill="#394063" opacity="1.00" d=" M 218.72 25.59 C 219.64 23.34 221.39 21.56 222.95 19.74 C 220.94 31.71 219.18 43.86 215.14 55.36 C 212.93 55.11 210.72 54.84 208.50 54.64 C 210.84 51.85 211.45 48.15 212.76 44.85 C 215.16 38.57 217.36 32.19 218.72 25.59 Z" />
<path fill="#408991" opacity="1.00" d=" M 398.75 22.36 C 399.23 22.17 400.19 21.78 400.67 21.59 C 400.01 34.22 395.90 46.59 388.98 57.15 C 388.42 57.27 387.29 57.52 386.73 57.64 C 386.75 57.00 386.79 55.72 386.81 55.08 C 387.98 49.62 388.92 44.10 390.37 38.71 C 392.83 33.15 395.53 27.71 398.67 22.50 L 398.75 22.36 Z" />
<path fill="#fffad5" opacity="1.00" d=" M 394.21 26.09 C 394.64 23.93 397.04 23.43 398.67 22.50 C 395.53 27.71 392.83 33.15 390.37 38.71 C 390.70 34.30 392.87 30.25 394.21 26.09 Z" />
<path fill="#8494a2" opacity="1.00" d=" M 218.72 25.59 C 217.36 32.19 215.16 38.57 212.76 44.85 C 211.45 48.15 210.84 51.85 208.50 54.64 C 206.40 54.33 204.30 53.93 202.20 53.62 C 206.57 43.66 212.50 34.48 218.72 25.59 Z" />
<path fill="#fffad5" opacity="1.00" d=" M 71.33 44.31 C 76.34 40.83 81.79 37.52 87.84 36.38 L 87.49 36.64 C 80.32 41.70 72.54 45.92 65.90 51.74 C 61.37 55.49 56.84 59.29 52.85 63.62 C 53.79 64.32 54.73 65.03 55.67 65.73 C 52.18 69.97 48.57 74.10 44.85 78.14 C 44.25 76.80 43.62 75.47 42.99 74.15 C 33.26 85.59 24.50 97.83 16.37 110.45 C 15.42 111.84 14.36 113.15 13.34 114.49 C 20.87 94.95 33.23 77.61 47.78 62.68 C 55.29 56.14 62.96 49.74 71.33 44.31 Z" />
<path fill="#75aa96" opacity="1.00" d=" M 65.90 51.74 C 72.54 45.92 80.32 41.70 87.49 36.64 C 88.51 37.43 89.52 38.22 90.54 39.01 C 83.03 48.62 76.90 59.19 70.54 69.57 C 69.20 71.71 68.07 73.98 67.03 76.27 C 65.48 79.13 63.89 81.95 62.52 84.90 C 62.20 84.39 61.54 83.38 61.21 82.88 C 61.39 81.58 61.54 80.29 61.68 79.00 C 57.59 91.83 53.03 104.64 51.22 118.04 C 51.15 119.57 50.24 120.80 49.40 122.01 C 48.40 119.89 47.36 117.80 46.28 115.72 L 46.51 115.21 C 52.32 101.46 57.09 87.30 62.16 73.27 C 63.99 66.22 65.80 59.06 65.90 51.74 Z" />
<path fill="#64968c" opacity="1.00" d=" M 90.54 39.01 C 94.73 42.60 98.66 46.48 102.38 50.55 C 106.48 55.60 109.89 61.16 113.94 66.26 C 111.33 65.95 108.72 66.26 106.20 66.94 C 106.17 68.93 105.75 71.21 107.19 72.86 C 110.25 76.55 113.38 80.19 116.48 83.85 C 115.65 89.04 114.91 94.25 114.01 99.43 C 113.54 97.66 113.00 95.90 112.47 94.15 C 108.78 93.34 105.33 94.66 101.95 95.97 C 98.08 95.81 95.84 92.20 93.60 89.53 C 88.65 93.10 81.98 95.73 76.08 92.83 C 69.38 90.45 66.86 82.80 67.03 76.27 C 68.07 73.98 69.20 71.71 70.54 69.57 C 76.90 59.19 83.03 48.62 90.54 39.01 Z" />
<path fill="#535e79" opacity="1.00" d=" M 159.12 50.77 C 159.93 49.16 160.78 47.57 161.64 45.98 C 163.02 48.62 164.62 51.13 166.43 53.49 C 167.55 53.61 168.67 53.74 169.80 53.88 C 168.80 56.46 167.71 59.00 166.37 61.43 C 163.67 63.13 160.68 64.32 157.95 65.97 C 153.32 61.66 158.45 55.68 159.12 50.77 Z" />
<path fill="#7f8e9e" opacity="1.00" d=" M 305.34 49.44 C 306.07 48.17 306.92 46.97 307.86 45.84 C 305.01 53.35 301.28 60.49 297.88 67.76 C 292.01 79.53 286.72 91.58 282.15 103.90 C 280.89 107.62 278.89 111.02 277.26 114.57 C 272.97 120.46 269.36 126.88 266.13 133.39 C 262.90 133.81 259.62 133.80 256.41 133.27 C 259.08 128.08 262.36 123.24 265.20 118.15 C 266.65 115.52 267.37 112.55 268.91 109.97 C 274.25 100.95 279.32 91.77 284.76 82.81 C 291.40 71.55 298.75 60.73 305.34 49.44 Z" />
<path fill="#606b84" opacity="1.00" d=" M 151.39 64.10 C 154.66 60.10 155.85 54.82 159.12 50.77 C 158.45 55.68 153.32 61.66 157.95 65.97 C 155.29 67.54 152.74 69.28 150.19 71.02 C 150.48 68.82 150.77 66.62 151.12 64.43 L 151.39 64.10 Z" />
<path fill="#8bbd9b" opacity="1.00" d=" M 52.85 63.62 C 56.84 59.29 61.37 55.49 65.90 51.74 C 65.80 59.06 63.99 66.22 62.16 73.27 C 57.09 87.30 52.32 101.46 46.51 115.21 C 46.07 114.81 45.19 114.01 44.75 113.60 C 44.52 115.97 45.53 118.14 46.33 120.30 C 42.98 123.43 42.72 128.25 41.36 132.36 C 37.21 148.90 34.97 165.86 33.14 182.79 C 29.09 186.22 24.74 190.30 19.03 190.06 C 16.47 190.43 14.24 188.50 13.94 186.01 C 12.04 175.77 11.38 165.24 12.76 154.89 C 13.69 150.32 8.59 147.44 8.68 142.89 C 9.23 138.09 11.01 132.84 8.64 128.26 L 8.55 128.03 C 10.18 123.54 11.19 118.76 13.34 114.49 C 14.36 113.15 15.42 111.84 16.37 110.45 C 24.50 97.83 33.26 85.59 42.99 74.15 C 43.62 75.47 44.25 76.80 44.85 78.14 C 48.57 74.10 52.18 69.97 55.67 65.73 C 54.73 65.03 53.79 64.32 52.85 63.62 Z" />
<path fill="#52536d" opacity="1.00" d=" M 181.81 59.48 C 202.10 55.68 224.20 58.78 241.51 70.45 C 239.76 70.45 238.04 70.12 236.35 69.72 C 233.78 75.17 227.97 78.09 222.41 79.59 C 217.60 80.94 212.97 78.40 208.35 77.45 C 208.21 77.82 207.93 78.55 207.79 78.92 C 206.02 76.25 204.48 73.10 201.57 71.50 C 197.14 69.57 192.22 69.12 187.78 67.24 C 185.01 66.02 182.79 63.92 180.58 61.92 C 182.36 61.31 184.18 60.80 186.02 60.34 C 184.61 60.04 183.21 59.76 181.81 59.48 Z" />
<path fill="#565971" opacity="1.00" d=" M 175.27 61.17 C 177.26 60.06 179.56 59.64 181.81 59.48 C 183.21 59.76 184.61 60.04 186.02 60.34 C 184.18 60.80 182.36 61.31 180.58 61.92 C 182.79 63.92 185.01 66.02 187.78 67.24 C 192.22 69.12 197.14 69.57 201.57 71.50 C 204.48 73.10 206.02 76.25 207.79 78.92 C 210.48 84.23 211.94 90.70 209.48 96.37 C 205.27 107.51 196.36 115.89 188.38 124.38 C 183.61 128.94 178.63 133.31 174.24 138.24 C 172.58 140.02 171.59 142.27 170.73 144.51 C 167.30 143.96 163.73 143.23 160.77 145.62 C 161.58 134.28 157.51 123.54 154.09 112.95 C 151.08 102.81 145.49 93.59 138.91 85.39 C 144.04 81.01 149.09 76.50 154.65 72.65 C 161.10 68.10 168.37 64.94 175.27 61.17 M 163.19 69.28 C 156.37 70.57 152.71 77.03 149.56 82.55 C 148.03 85.80 145.96 89.19 146.42 92.93 C 146.85 95.43 149.90 96.06 151.96 95.22 C 157.02 93.31 160.50 88.85 163.53 84.58 C 165.77 81.35 167.67 77.79 168.42 73.90 C 168.95 70.96 166.04 68.38 163.19 69.28 Z" />
<path fill="#8999a6" opacity="1.00" d=" M 256.00 75.77 C 261.88 70.48 268.49 66.09 275.23 61.99 C 275.26 63.13 274.86 64.08 274.03 64.82 C 268.56 69.24 264.59 75.17 261.06 81.18 C 259.52 79.24 257.78 77.48 256.00 75.77 Z" />
<path fill="#449094" opacity="1.00" d=" M 382.56 64.02 C 385.20 63.95 388.50 61.29 390.59 63.67 C 390.24 71.45 390.16 79.30 388.85 86.99 C 385.25 103.30 381.43 119.63 375.95 135.43 C 376.46 123.89 378.68 112.52 379.64 101.03 C 380.44 91.57 381.60 82.16 382.65 72.73 C 382.90 69.88 383.90 66.85 382.59 64.11 L 382.56 64.02 Z" />
<path fill="#20486c" opacity="1.00" d=" M 390.59 63.67 C 393.33 68.09 395.90 72.69 397.52 77.65 C 399.50 83.65 402.45 89.33 403.69 95.56 C 405.62 104.90 405.64 114.51 405.38 124.01 C 404.80 134.42 404.36 144.96 401.54 155.06 C 398.78 164.83 394.62 174.11 390.35 183.29 C 389.07 186.06 387.98 188.94 386.23 191.46 C 386.30 190.61 386.44 188.89 386.51 188.04 C 387.55 180.26 389.70 172.64 390.03 164.77 C 387.80 165.63 385.62 166.61 383.51 167.73 C 381.08 165.29 379.36 162.26 376.96 159.80 C 381.55 144.89 386.36 129.67 386.69 113.95 C 383.05 128.93 379.97 144.13 374.75 158.67 C 373.35 159.11 371.95 159.56 370.55 160.02 C 370.69 156.44 370.95 152.83 371.95 149.38 C 373.37 144.75 374.92 140.16 375.95 135.43 C 381.43 119.63 385.25 103.30 388.85 86.99 C 390.16 79.30 390.24 71.45 390.59 63.67 Z" />
<path fill="#59637e" opacity="1.00" d=" M 261.06 81.18 C 264.59 75.17 268.56 69.24 274.03 64.82 C 272.06 71.93 267.03 77.65 263.77 84.17 C 262.69 83.34 261.83 82.28 261.06 81.18 Z" />
<path fill="#fffad5" opacity="1.00" d=" M 344.05 78.08 C 354.95 72.05 366.91 68.06 379.00 65.12 C 370.86 69.49 362.30 73.00 354.10 77.21 C 357.90 78.90 361.09 82.54 360.53 86.95 C 360.27 95.63 350.16 101.47 342.33 98.63 C 339.14 97.40 338.07 94.00 337.50 90.95 C 328.25 100.02 320.80 110.65 313.10 121.00 C 310.85 123.99 309.42 127.51 306.99 130.36 C 306.95 128.89 306.94 127.42 306.98 125.96 C 307.66 123.78 308.55 121.66 309.62 119.64 C 318.38 103.80 330.10 89.63 344.05 78.08 Z" />
<path fill="#7eb69c" opacity="1.00" d=" M 379.00 65.12 C 379.90 64.87 381.69 64.36 382.59 64.11 C 383.90 66.85 382.90 69.88 382.65 72.73 C 381.60 82.16 380.44 91.57 379.64 101.03 C 378.68 112.52 376.46 123.89 375.95 135.43 C 374.92 140.16 373.37 144.75 371.95 149.38 C 369.79 144.17 368.40 137.68 362.89 134.95 C 357.73 134.33 351.88 136.57 348.95 141.01 C 346.08 145.08 341.82 147.93 339.16 152.17 C 337.23 155.17 335.17 158.08 333.16 161.03 C 326.96 162.37 320.16 162.74 314.40 159.62 C 306.81 155.70 302.30 147.19 302.75 138.73 C 302.06 138.43 301.37 138.13 300.69 137.84 C 303.11 134.06 305.76 130.34 306.98 125.96 C 306.94 127.42 306.95 128.89 306.99 130.36 C 309.42 127.51 310.85 123.99 313.10 121.00 C 320.80 110.65 328.25 100.02 337.50 90.95 C 338.07 94.00 339.14 97.40 342.33 98.63 C 350.16 101.47 360.27 95.63 360.53 86.95 C 361.09 82.54 357.90 78.90 354.10 77.21 C 362.30 73.00 370.86 69.49 379.00 65.12 Z" />
<path fill="#7a8899" opacity="1.00" d=" M 108.26 67.55 C 112.56 68.99 116.96 70.51 120.43 73.56 C 128.81 80.38 135.52 88.88 142.66 96.91 C 139.29 97.13 136.49 99.01 133.97 101.09 C 128.16 93.27 122.22 85.54 115.68 78.30 C 113.23 74.70 108.94 72.14 108.26 67.55 Z" />
<path fill="#000000" opacity="1.00" d=" M 163.19 69.28 C 166.04 68.38 168.95 70.96 168.42 73.90 C 167.67 77.79 165.77 81.35 163.53 84.58 C 160.50 88.85 157.02 93.31 151.96 95.22 C 149.90 96.06 146.85 95.43 146.42 92.93 C 145.96 89.19 148.03 85.80 149.56 82.55 C 152.71 77.03 156.37 70.57 163.19 69.28 M 160.22 72.05 L 160.68 73.67 C 160.00 73.68 158.65 73.71 157.98 73.72 C 153.71 77.87 150.75 83.20 148.65 88.73 C 147.95 90.37 148.17 92.16 148.66 93.83 C 155.73 93.35 159.74 86.59 163.31 81.31 C 164.85 78.32 167.54 74.56 165.43 71.25 C 163.68 71.43 161.94 71.69 160.22 72.05 Z" />
<path fill="#4a4a66" opacity="1.00" d=" M 236.35 69.72 C 238.04 70.12 239.76 70.45 241.51 70.45 L 241.85 70.47 C 244.37 72.16 247.11 73.62 249.29 75.76 C 250.52 83.10 250.95 90.61 250.11 98.02 C 248.50 108.65 243.62 118.59 237.19 127.12 C 234.13 131.40 230.29 135.04 227.03 139.16 C 225.20 141.15 223.45 143.33 221.11 144.74 C 216.64 147.05 212.97 150.61 208.54 152.99 C 204.24 151.39 199.19 152.32 195.35 149.48 C 192.13 147.08 189.12 144.05 187.65 140.25 C 186.25 135.01 187.42 129.59 188.38 124.38 C 196.36 115.89 205.27 107.51 209.48 96.37 C 211.94 90.70 210.48 84.23 207.79 78.92 C 207.93 78.55 208.21 77.82 208.35 77.45 C 212.97 78.40 217.60 80.94 222.41 79.59 C 227.97 78.09 233.78 75.17 236.35 69.72 Z" />
<path fill="#8494a2" opacity="1.00" d=" M 160.22 72.05 C 161.94 71.69 163.68 71.43 165.43 71.25 C 167.54 74.56 164.85 78.32 163.31 81.31 C 159.74 86.59 155.73 93.35 148.66 93.83 C 148.17 92.16 147.95 90.37 148.65 88.73 C 150.75 83.20 153.71 77.87 157.98 73.72 C 158.65 73.71 160.00 73.68 160.68 73.67 L 160.22 72.05 Z" />
<path fill="#2e264d" opacity="1.00" d=" M 249.29 75.76 C 251.76 77.17 253.92 79.06 255.80 81.19 C 259.90 85.85 263.99 90.65 266.56 96.36 C 267.43 98.48 269.29 100.36 269.59 102.63 C 265.66 109.69 261.58 116.69 257.85 123.87 C 247.82 126.97 237.89 131.10 229.56 137.61 C 228.74 138.17 227.90 138.68 227.03 139.16 C 230.29 135.04 234.13 131.40 237.19 127.12 C 243.62 118.59 248.50 108.65 250.11 98.02 C 250.95 90.61 250.52 83.10 249.29 75.76 Z" />
<path fill="#5d8e89" opacity="1.00" d=" M 62.52 84.90 C 63.89 81.95 65.48 79.13 67.03 76.27 C 66.86 82.80 69.38 90.45 76.08 92.83 C 81.98 95.73 88.65 93.10 93.60 89.53 C 95.84 92.20 98.08 95.81 101.95 95.97 C 105.33 94.66 108.78 93.34 112.47 94.15 C 113.00 95.90 113.54 97.66 114.01 99.43 C 113.59 103.15 113.32 106.89 112.98 110.62 C 110.81 115.08 108.09 119.27 106.20 123.89 C 102.86 123.16 99.33 122.59 96.53 120.46 C 92.43 117.51 89.28 113.50 85.72 109.96 C 85.63 107.97 85.57 105.97 85.49 103.98 C 83.77 106.92 82.14 109.90 80.38 112.82 C 77.74 107.80 74.71 103.01 71.77 98.16 C 70.84 96.88 70.16 94.79 68.18 95.24 C 68.44 99.50 69.02 103.74 69.63 107.96 C 69.44 108.41 69.05 109.30 68.85 109.74 C 67.11 106.67 64.24 104.62 61.58 102.43 C 59.81 101.17 60.02 98.75 59.65 96.85 C 60.75 92.26 60.32 87.50 61.21 82.88 C 61.54 83.38 62.20 84.39 62.52 84.90 Z" />
<path fill="#418e94" opacity="1.00" d=" M 323.66 89.70 C 330.19 85.40 336.86 81.19 344.05 78.08 C 330.10 89.63 318.38 103.80 309.62 119.64 C 308.55 121.66 307.66 123.78 306.98 125.96 C 305.76 130.34 303.11 134.06 300.69 137.84 C 296.11 144.81 292.78 152.49 288.28 159.50 C 288.85 156.24 290.03 153.13 291.06 149.99 C 297.39 131.63 304.65 113.42 315.10 96.97 C 317.23 93.81 320.66 91.91 323.66 89.70 Z" />
<path fill="#377283" opacity="1.00" d=" M 61.68 79.00 C 61.54 80.29 61.39 81.58 61.21 82.88 C 60.32 87.50 60.75 92.26 59.65 96.85 C 58.39 104.18 57.86 111.61 57.08 118.99 C 56.59 123.40 55.00 127.60 54.64 132.02 C 52.83 128.72 51.05 125.40 49.40 122.01 C 50.24 120.80 51.15 119.57 51.22 118.04 C 53.03 104.64 57.59 91.83 61.68 79.00 Z" />
<path fill="#2f7185" opacity="1.00" d=" M 116.48 83.85 C 119.37 87.17 122.29 90.47 124.86 94.05 C 120.37 99.18 117.00 105.14 112.98 110.62 C 113.32 106.89 113.59 103.15 114.01 99.43 C 114.91 94.25 115.65 89.04 116.48 83.85 Z" />
<path fill="#538385" opacity="1.00" d=" M 57.08 118.99 C 57.86 111.61 58.39 104.18 59.65 96.85 C 60.02 98.75 59.81 101.17 61.58 102.43 C 64.24 104.62 67.11 106.67 68.85 109.74 C 69.05 109.30 69.44 108.41 69.63 107.96 C 71.11 113.16 72.42 118.42 74.49 123.43 C 72.50 126.47 68.75 127.02 65.91 128.88 C 63.71 132.75 62.61 137.15 60.32 140.99 C 58.19 138.16 56.48 135.05 54.64 132.02 C 55.00 127.60 56.59 123.40 57.08 118.99 Z" />
<path fill="#6b788e" opacity="1.00" d=" M 133.97 101.09 C 136.49 99.01 139.29 97.13 142.66 96.91 C 145.12 100.95 147.76 104.91 149.55 109.31 C 147.46 111.04 145.27 112.65 142.95 114.05 C 140.14 109.60 137.06 105.34 133.97 101.09 Z" />
<path fill="#fffad5" opacity="1.00" d=" M 107.50 131.41 C 111.88 118.93 119.26 107.69 127.61 97.53 C 128.27 98.64 129.63 99.78 129.89 100.95 C 126.94 104.29 123.78 107.43 120.95 110.88 C 122.78 112.03 124.92 113.07 125.78 115.19 C 129.25 122.89 118.81 132.72 111.72 126.93 C 109.53 132.72 108.73 138.87 107.16 144.82 C 106.72 144.32 105.84 143.30 105.40 142.79 C 105.10 138.89 106.35 135.09 107.50 131.41 Z" />
<path fill="#555871" opacity="1.00" d=" M 120.95 110.88 C 123.78 107.43 126.94 104.29 129.89 100.95 C 140.04 113.00 147.64 126.96 153.67 141.47 C 149.44 141.33 144.98 141.19 141.09 143.12 C 127.83 149.06 116.41 160.64 113.26 175.14 C 111.49 173.69 109.67 172.31 107.91 170.85 C 107.00 169.80 107.04 168.25 106.63 166.98 C 105.02 159.06 104.18 150.82 105.40 142.79 C 105.84 143.30 106.72 144.32 107.16 144.82 C 108.73 138.87 109.53 132.72 111.72 126.93 C 118.81 132.72 129.25 122.89 125.78 115.19 C 124.92 113.07 122.78 112.03 120.95 110.88 Z" />
<path fill="#24496b" opacity="1.00" d=" M 80.38 112.82 C 82.14 109.90 83.77 106.92 85.49 103.98 C 85.57 105.97 85.63 107.97 85.72 109.96 C 86.00 114.74 86.52 119.49 86.93 124.26 C 84.42 120.64 82.50 116.67 80.38 112.82 Z" />
<path fill="#81909f" opacity="1.00" d=" M 72.43 105.28 C 72.63 105.29 73.03 105.30 73.23 105.31 C 79.14 115.77 85.05 126.24 90.59 136.90 C 87.93 136.72 85.26 136.61 82.60 136.68 C 79.11 126.25 75.41 115.88 72.43 105.28 Z" />
<path fill="#59647e" opacity="1.00" d=" M 149.55 109.31 C 150.19 111.22 150.84 113.13 151.51 115.04 C 150.51 117.65 149.32 120.17 147.94 122.60 C 146.35 119.70 144.60 116.90 142.95 114.05 C 145.27 112.65 147.46 111.04 149.55 109.31 Z" />
<path fill="#558586" opacity="1.00" d=" M 85.72 109.96 C 89.28 113.50 92.43 117.51 96.53 120.46 C 99.33 122.59 102.86 123.16 106.20 123.89 C 104.42 128.38 102.93 132.97 101.86 137.69 C 99.41 138.51 96.99 139.46 94.44 139.98 C 92.17 134.63 89.22 129.60 86.93 124.26 C 86.52 119.49 86.00 114.74 85.72 109.96 Z" />
<path fill="#464f6f" opacity="1.00" d=" M 151.51 115.04 C 154.69 124.80 159.11 134.78 157.73 145.28 C 154.93 137.53 151.47 130.04 147.94 122.60 C 149.32 120.17 150.51 117.65 151.51 115.04 Z" />
<path fill="#444d6c" opacity="1.00" d=" M 266.13 133.39 C 269.36 126.88 272.97 120.46 277.26 114.57 C 277.12 117.86 275.70 120.87 274.70 123.95 C 272.05 131.65 268.92 139.18 265.68 146.65 C 264.71 148.56 263.95 150.86 261.99 151.99 C 260.14 152.99 258.04 153.34 256.05 153.96 C 253.11 152.95 250.95 150.37 251.46 147.14 C 254.71 145.51 258.08 144.07 261.13 142.07 C 264.08 140.11 264.79 136.42 266.13 133.39 Z" />
<path fill="#75ad98" opacity="1.00" d=" M 41.36 132.36 C 42.72 128.25 42.98 123.43 46.33 120.30 C 47.33 122.55 48.43 124.77 49.30 127.08 C 49.33 128.23 49.32 129.39 49.28 130.55 C 48.39 132.32 47.40 134.07 46.90 136.00 C 44.28 146.44 41.39 156.82 39.59 167.44 C 39.26 167.12 38.59 166.47 38.25 166.15 C 37.94 167.86 39.33 169.23 39.98 170.70 C 37.29 175.08 39.12 180.24 38.28 185.01 C 37.45 190.25 37.35 195.71 35.15 200.63 C 34.51 199.47 33.87 198.32 33.24 197.16 C 33.41 201.61 33.97 206.21 32.35 210.47 C 30.63 201.24 33.54 192.06 33.14 182.79 C 34.97 165.86 37.21 148.90 41.36 132.36 Z" />
<path fill="#24486a" opacity="1.00" d=" M 74.49 123.43 C 76.63 129.83 78.67 136.29 81.61 142.38 C 82.69 144.55 83.14 146.94 83.60 149.30 C 79.88 150.55 76.12 151.64 72.37 152.76 C 72.03 148.18 74.12 143.68 73.33 139.06 L 72.46 138.54 C 71.19 142.87 70.20 147.27 69.11 151.64 C 65.94 148.30 63.15 144.62 60.32 140.99 C 62.61 137.15 63.71 132.75 65.91 128.88 C 68.75 127.02 72.50 126.47 74.49 123.43 Z" />
<path fill="#434160" opacity="1.00" d=" M 174.24 138.24 C 178.63 133.31 183.61 128.94 188.38 124.38 C 187.42 129.59 186.25 135.01 187.65 140.25 C 189.12 144.05 192.13 147.08 195.35 149.48 C 199.19 152.32 204.24 151.39 208.54 152.99 C 204.74 155.43 200.65 157.32 196.62 159.33 C 194.76 156.33 192.83 153.24 189.89 151.16 C 184.31 147.11 177.40 145.66 170.73 144.51 C 171.59 142.27 172.58 140.02 174.24 138.24 Z" />
<path fill="#397987" opacity="1.00" d=" M 49.30 127.08 C 51.17 130.82 53.08 134.54 55.27 138.11 L 55.11 138.53 C 52.22 145.28 52.06 152.82 49.06 159.51 C 49.29 149.86 49.15 140.20 49.28 130.55 C 49.32 129.39 49.33 128.23 49.30 127.08 Z" />
<path fill="#559c98" opacity="1.00" d=" M 6.22 136.72 C 6.41 133.77 7.59 130.99 8.64 128.26 C 11.01 132.84 9.23 138.09 8.68 142.89 C 7.71 147.63 7.22 152.45 6.33 157.20 C 5.85 154.36 5.51 151.49 5.30 148.62 C 5.44 144.64 6.26 140.71 6.22 136.72 Z" />
<path fill="#4f4f69" opacity="1.00" d=" M 224.15 148.86 C 232.05 138.92 243.72 133.07 255.39 128.73 C 253.41 132.98 252.18 137.59 249.66 141.58 C 248.98 144.27 249.43 147.17 248.73 149.90 C 243.47 151.96 238.64 154.96 233.83 157.90 C 230.98 159.54 228.68 162.92 225.07 162.64 C 222.73 162.62 220.38 160.43 220.81 157.99 C 221.49 154.81 222.93 151.86 224.15 148.86 Z" />
<path fill="#63978e" opacity="1.00" d=" M 46.90 136.00 C 47.40 134.07 48.39 132.32 49.28 130.55 C 49.15 140.20 49.29 149.86 49.06 159.51 C 47.64 164.74 46.64 170.08 45.74 175.42 C 43.32 173.20 41.48 170.48 39.51 167.88 L 39.59 167.44 C 41.39 156.82 44.28 146.44 46.90 136.00 Z" />
<path fill="#69768b" opacity="1.00" d=" M 251.46 147.14 C 252.37 142.27 254.61 137.83 256.41 133.27 C 259.62 133.80 262.90 133.81 266.13 133.39 C 264.79 136.42 264.08 140.11 261.13 142.07 C 258.08 144.07 254.71 145.51 251.46 147.14 Z" />
<path fill="#2f274e" opacity="1.00" d=" M 267.24 149.80 C 270.15 144.38 272.28 138.60 274.87 133.04 C 279.47 135.53 279.78 141.37 279.68 145.99 C 279.65 150.94 279.01 156.97 274.52 159.97 C 274.41 158.03 275.46 155.66 273.99 154.00 C 272.34 151.81 269.63 150.91 267.24 149.80 Z" />
<path fill="#6ea897" opacity="1.00" d=" M 348.95 141.01 C 351.88 136.57 357.73 134.33 362.89 134.95 C 368.40 137.68 369.79 144.17 371.95 149.38 C 370.95 152.83 370.69 156.44 370.55 160.02 C 360.37 165.59 349.45 169.73 338.51 173.55 C 338.57 173.20 338.69 172.51 338.75 172.16 C 340.96 170.92 343.32 170.00 345.69 169.11 C 343.94 165.57 340.67 162.51 340.42 158.42 C 341.92 155.22 344.42 152.48 344.99 148.89 C 341.23 152.67 338.82 157.50 336.08 162.02 C 332.92 167.90 329.03 173.39 326.29 179.50 C 322.59 185.93 319.28 192.58 315.42 198.92 C 315.19 197.76 314.96 196.61 314.74 195.45 C 313.35 195.87 311.96 196.27 310.58 196.68 C 317.52 184.44 326.63 173.53 333.16 161.03 C 335.17 158.08 337.23 155.17 339.16 152.17 C 341.82 147.93 346.08 145.08 348.95 141.01 Z" />
<path fill="#5e6982" opacity="1.00" d=" M 82.60 136.68 C 85.26 136.61 87.93 136.72 90.59 136.90 C 91.36 138.28 92.11 139.67 92.85 141.06 C 90.19 143.00 88.28 145.70 86.24 148.24 C 85.74 144.18 83.91 140.51 82.60 136.68 Z" />
<path fill="#fffad5" opacity="1.00" d=" M 6.22 136.72 C 6.26 140.71 5.44 144.64 5.30 148.62 C 4.05 154.07 4.92 159.69 4.11 165.19 C 4.04 155.66 3.87 146.03 6.22 136.72 Z" />
<path fill="#75b19b" opacity="1.00" d=" M 288.28 159.50 C 292.78 152.49 296.11 144.81 300.69 137.84 C 301.37 138.13 302.06 138.43 302.75 138.73 C 302.30 147.19 306.81 155.70 314.40 159.62 C 320.16 162.74 326.96 162.37 333.16 161.03 C 326.63 173.53 317.52 184.44 310.58 196.68 C 306.30 204.01 302.00 211.33 297.66 218.62 C 296.98 219.59 296.43 220.99 295.04 221.02 C 288.97 221.79 282.99 219.24 278.42 215.36 C 278.16 216.47 277.89 217.59 277.63 218.71 C 277.12 218.09 276.62 217.48 276.11 216.87 C 278.22 197.41 281.67 177.95 288.28 159.50 Z" />
<path fill="#4b7b82" opacity="1.00" d=" M 49.06 159.51 C 52.06 152.82 52.22 145.28 55.11 138.53 C 56.65 140.28 58.09 142.12 59.43 144.04 C 55.24 155.38 52.33 167.10 49.13 178.74 C 48.02 177.61 46.90 176.49 45.74 175.42 C 46.64 170.08 47.64 164.74 49.06 159.51 Z" />
<path fill="#565971" opacity="1.00" d=" M 91.92 146.83 C 94.19 143.76 98.04 142.86 101.43 141.59 C 101.50 149.60 101.51 157.68 103.45 165.52 C 101.54 165.38 99.50 165.74 97.67 165.13 C 94.35 163.15 90.81 161.58 87.53 159.56 C 86.16 158.88 85.54 157.53 85.48 156.07 C 87.04 152.63 89.62 149.79 91.92 146.83 Z" />
<path fill="#82b69a" opacity="1.00" d=" M 6.33 157.20 C 7.22 152.45 7.71 147.63 8.68 142.89 C 8.59 147.44 13.69 150.32 12.76 154.89 C 11.38 165.24 12.04 175.77 13.94 186.01 C 14.24 188.50 16.47 190.43 19.03 190.06 C 24.74 190.30 29.09 186.22 33.14 182.79 C 33.54 192.06 30.63 201.24 32.35 210.47 L 32.31 211.36 C 27.34 213.21 22.71 209.14 17.77 211.18 C 17.55 212.64 17.34 214.10 17.23 215.57 C 13.04 205.57 10.71 194.95 7.61 184.59 C 6.27 178.18 4.11 171.78 4.11 165.19 C 4.92 159.69 4.05 154.07 5.30 148.62 C 5.51 151.49 5.85 154.36 6.33 157.20 Z" />
<path fill="#2b516f" opacity="1.00" d=" M 59.43 144.04 C 60.96 145.95 62.51 147.86 63.92 149.86 C 62.62 152.09 61.50 154.44 60.90 156.97 C 58.58 165.68 56.25 174.41 54.35 183.23 C 52.56 181.82 50.80 180.37 49.10 178.86 L 49.13 178.74 C 52.33 167.10 55.24 155.38 59.43 144.04 Z" />
<path fill="#fffad5" opacity="1.00" d=" M 135.74 148.77 C 138.72 146.93 142.03 145.39 145.59 145.25 C 142.88 147.75 139.44 149.36 137.01 152.16 C 142.64 155.93 138.09 165.05 132.04 164.92 C 129.98 165.31 128.11 164.35 126.45 163.27 C 122.27 167.09 118.95 171.71 116.61 176.86 C 116.33 176.81 115.75 176.71 115.47 176.66 C 116.96 171.27 118.76 165.76 122.65 161.57 C 125.93 156.33 130.79 152.36 135.74 148.77 Z" />
<path fill="#54566f" opacity="1.00" d=" M 145.59 145.25 C 149.04 145.47 152.47 146.01 155.82 146.85 C 156.77 149.38 156.84 152.09 157.17 154.75 C 157.77 154.81 158.96 154.93 159.56 154.99 C 160.59 159.97 157.75 164.39 156.66 169.08 C 151.57 171.75 146.66 174.78 141.96 178.09 C 139.73 179.47 139.07 182.12 138.58 184.52 C 140.12 184.36 141.65 184.20 143.19 184.04 C 141.49 185.80 139.78 187.56 138.29 189.51 C 137.01 188.39 135.58 186.45 134.25 188.67 L 133.69 189.23 L 133.24 189.35 C 133.14 189.71 132.95 190.42 132.86 190.78 C 132.63 191.01 132.17 191.47 131.94 191.70 C 126.26 188.26 121.18 183.97 115.91 179.94 C 114.90 179.17 115.23 177.65 114.89 176.56 L 115.47 176.66 C 115.75 176.71 116.33 176.81 116.61 176.86 C 118.95 171.71 122.27 167.09 126.45 163.27 C 128.11 164.35 129.98 165.31 132.04 164.92 C 138.09 165.05 142.64 155.93 137.01 152.16 C 139.44 149.36 142.88 147.75 145.59 145.25 Z" />
<path fill="#2e274d" opacity="1.00" d=" M 208.54 152.99 C 212.97 150.61 216.64 147.05 221.11 144.74 C 219.88 148.68 216.18 151.45 215.71 155.72 C 215.30 159.58 211.86 161.92 210.41 165.33 C 209.07 167.56 209.03 170.20 208.80 172.71 C 205.82 171.78 202.70 171.69 199.79 172.91 C 200.37 168.09 198.84 163.53 196.62 159.33 C 200.65 157.32 204.74 155.43 208.54 152.99 Z" />
<path fill="#8292a0" opacity="1.00" d=" M 164.95 147.24 C 173.34 147.69 182.24 148.87 189.22 153.95 C 186.29 157.55 182.11 159.56 177.78 160.94 C 175.96 158.21 175.17 154.66 172.31 152.76 C 169.88 150.89 167.46 149.00 164.95 147.24 Z" />
<path fill="#342e52" opacity="1.00" d=" M 160.21 147.57 C 163.30 149.13 165.22 152.21 168.08 154.11 C 171.26 156.21 173.16 159.63 176.09 162.01 C 174.13 171.03 165.69 176.53 158.79 181.78 C 154.45 182.90 150.75 185.46 147.54 188.51 C 146.68 188.30 145.83 188.09 144.98 187.88 C 144.22 188.42 143.47 188.96 142.71 189.50 C 142.30 189.39 141.46 189.17 141.04 189.06 C 140.12 189.82 139.15 190.55 138.07 191.10 C 138.13 190.70 138.24 189.91 138.29 189.51 C 139.78 187.56 141.49 185.80 143.19 184.04 C 151.81 183.65 160.84 178.26 162.97 169.51 C 163.08 169.05 163.31 168.13 163.42 167.67 C 163.70 167.77 164.27 167.98 164.56 168.09 C 165.33 167.41 166.10 166.74 166.87 166.07 C 163.37 166.67 159.88 167.53 156.66 169.08 C 157.75 164.39 160.59 159.97 159.56 154.99 C 159.23 152.49 159.70 150.00 160.21 147.57 Z" />
<path fill="#2b2248" opacity="1.00" d=" M 218.77 158.09 C 218.97 154.46 221.26 151.01 224.15 148.86 C 222.93 151.86 221.49 154.81 220.81 157.99 C 220.38 160.43 222.73 162.62 225.07 162.64 C 228.68 162.92 230.98 159.54 233.83 157.90 C 238.64 154.96 243.47 151.96 248.73 149.90 C 249.41 151.31 250.15 152.69 250.91 154.06 C 248.01 156.45 244.83 158.71 242.97 162.06 C 240.63 166.51 240.40 171.64 240.64 176.56 C 236.50 177.59 232.31 178.61 228.01 178.51 C 224.83 171.76 220.63 165.39 218.77 158.09 Z" />
<path fill="#67a295" opacity="1.00" d=" M 336.08 162.02 C 338.82 157.50 341.23 152.67 344.99 148.89 C 344.42 152.48 341.92 155.22 340.42 158.42 C 340.67 162.51 343.94 165.57 345.69 169.11 C 343.32 170.00 340.96 170.92 338.75 172.16 C 338.69 172.51 338.57 173.20 338.51 173.55 L 338.48 173.73 C 336.88 174.63 334.27 174.69 333.88 176.85 C 343.85 175.49 352.96 170.85 362.22 167.18 C 365.33 166.12 367.91 163.67 371.25 163.34 C 371.67 163.00 372.50 162.31 372.92 161.97 C 371.78 165.69 369.66 169.01 368.56 172.76 L 368.37 172.56 C 368.03 171.75 367.69 170.94 367.37 170.13 C 361.55 179.17 355.44 188.01 349.44 196.93 C 344.30 195.82 338.50 198.68 333.97 194.97 C 328.21 191.95 327.24 185.26 326.29 179.50 C 329.03 173.39 332.92 167.90 336.08 162.02 Z" />
<path fill="#224669" opacity="1.00" d=" M 63.92 149.86 C 65.34 151.52 66.92 153.03 68.62 154.40 C 66.22 166.35 64.04 178.37 62.99 190.53 C 60.01 188.29 57.19 185.85 54.29 183.52 L 54.35 183.23 C 56.25 174.41 58.58 165.68 60.90 156.97 C 61.50 154.44 62.62 152.09 63.92 149.86 Z" />
<path fill="#1e4167" opacity="1.00" d=" M 71.50 154.42 C 75.78 154.20 79.97 153.29 83.94 151.69 C 82.47 155.61 81.76 159.83 81.80 164.00 C 83.49 169.01 87.18 173.05 90.47 177.09 L 90.46 177.27 C 89.73 181.47 91.73 185.49 94.85 188.21 C 95.56 189.10 96.63 189.83 96.91 191.01 C 96.17 194.72 94.91 198.32 94.15 202.04 C 90.05 200.06 84.88 199.07 81.01 202.13 C 72.43 208.55 69.87 219.70 67.87 229.64 C 66.39 230.19 64.33 230.15 63.75 231.95 C 63.51 233.48 64.51 234.81 64.95 236.22 C 63.79 235.85 62.62 235.49 61.46 235.14 C 63.45 220.45 64.32 205.64 65.91 190.91 C 72.78 188.38 81.32 186.95 85.57 180.40 C 78.85 182.75 72.70 186.49 66.09 189.13 C 67.00 177.43 69.45 165.95 71.50 154.42 Z" />
<path fill="#475170" opacity="1.00" d=" M 266.37 152.19 C 268.10 153.17 269.95 154.04 271.46 155.38 C 272.72 157.40 270.99 159.65 270.51 161.67 C 269.95 164.25 267.22 165.03 265.23 166.25 C 262.48 167.63 259.86 169.45 256.78 170.03 C 258.22 167.00 259.81 163.24 257.90 160.05 C 257.00 159.01 255.96 157.01 254.31 157.65 C 251.87 158.42 249.51 159.41 247.11 160.31 C 248.39 158.15 250.33 156.53 252.06 154.75 C 256.71 157.86 262.50 155.45 266.37 152.19 Z" />
<path fill="#748294" opacity="1.00" d=" M 189.22 153.95 C 190.82 155.61 192.29 157.39 193.60 159.30 C 189.84 161.27 185.87 162.78 181.93 164.34 C 180.86 163.95 179.79 163.56 178.73 163.16 C 178.49 162.61 178.02 161.50 177.78 160.94 C 182.11 159.56 186.29 157.55 189.22 153.95 Z" />
<path fill="#373155" opacity="1.00" d=" M 85.83 166.05 C 83.58 163.12 85.30 159.36 85.48 156.07 C 85.54 157.53 86.16 158.88 87.53 159.56 C 90.81 161.58 94.35 163.15 97.67 165.13 C 96.28 166.19 94.48 166.92 93.53 168.44 C 93.16 170.76 93.38 173.12 93.33 175.46 C 90.21 172.87 88.11 169.34 85.83 166.05 Z" />
<path fill="#7e8d9d" opacity="1.00" d=" M 254.31 157.65 C 255.96 157.01 257.00 159.01 257.90 160.05 C 259.81 163.24 258.22 167.00 256.78 170.03 L 256.60 170.44 C 252.32 172.64 247.89 174.64 243.27 176.01 C 242.86 170.66 242.87 164.22 247.11 160.31 C 249.51 159.41 251.87 158.42 254.31 157.65 Z" />
<path fill="#343b5f" opacity="1.00" d=" M 193.60 159.30 C 195.65 162.83 197.98 166.62 197.54 170.89 C 197.49 175.25 193.50 177.91 190.45 180.37 C 184.22 185.32 176.62 188.23 168.78 189.37 C 168.42 188.22 168.07 187.08 167.71 185.94 C 169.23 184.73 170.73 183.48 172.37 182.43 C 174.21 181.42 176.84 180.90 177.51 178.60 C 178.07 176.56 178.96 174.67 180.06 172.88 C 181.03 169.63 179.18 166.37 178.73 163.16 C 179.79 163.56 180.86 163.95 181.93 164.34 C 185.87 162.78 189.84 161.27 193.60 159.30 Z" />
<path fill="#2a2146" opacity="1.00" d=" M 210.33 173.12 C 210.67 168.53 212.66 164.10 215.84 160.79 C 218.08 166.11 220.46 171.44 223.89 176.12 C 225.10 177.71 226.09 179.45 226.75 181.35 C 224.38 182.89 222.29 184.80 220.34 186.83 C 218.26 181.51 215.39 176.15 210.33 173.12 Z" />
<path fill="#1f486c" opacity="1.00" d=" M 375.96 162.64 C 377.84 164.82 379.12 167.42 380.93 169.64 C 374.48 177.02 368.23 184.58 361.89 192.05 C 363.35 187.76 365.99 184.02 367.88 179.93 C 370.85 174.30 373.31 168.43 375.96 162.64 Z" />
<path fill="#2f6b80" opacity="1.00" d=" M 383.51 167.73 C 385.62 166.61 387.80 165.63 390.03 164.77 C 389.70 172.64 387.55 180.26 386.51 188.04 C 386.12 187.57 385.34 186.64 384.95 186.17 C 380.43 187.83 377.10 191.48 373.34 194.32 C 367.08 198.98 362.70 205.55 357.43 211.20 C 356.17 209.42 354.90 207.65 353.62 205.89 C 356.54 201.38 358.84 196.46 361.89 192.05 C 368.23 184.58 374.48 177.02 380.93 169.64 C 382.75 170.83 384.75 171.69 386.94 171.87 C 387.01 169.78 384.83 168.91 383.51 167.73 Z" />
<path fill="#000000" opacity="1.00" d=" M 156.66 169.08 C 159.88 167.53 163.37 166.67 166.87 166.07 C 166.10 166.74 165.33 167.41 164.56 168.09 C 164.27 167.98 163.70 167.77 163.42 167.67 C 160.59 168.45 158.12 170.06 155.53 171.37 C 151.08 173.45 146.98 176.17 142.95 178.95 C 141.37 179.93 140.73 181.73 139.96 183.31 C 144.15 182.49 148.23 181.18 152.25 179.74 C 157.19 178.16 159.86 173.29 162.97 169.51 C 160.84 178.26 151.81 183.65 143.19 184.04 C 141.65 184.20 140.12 184.36 138.58 184.52 C 139.07 182.12 139.73 179.47 141.96 178.09 C 146.66 174.78 151.57 171.75 156.66 169.08 Z" />
<path fill="#353c60" opacity="1.00" d=" M 171.16 174.12 C 173.78 171.85 175.13 168.57 177.40 166.00 C 177.71 168.55 179.53 171.93 176.95 173.85 C 173.64 176.35 169.71 178.02 165.70 179.05 C 167.37 177.24 169.34 175.76 171.16 174.12 Z" />
<path fill="#7d8c9c" opacity="1.00" d=" M 95.70 168.83 C 98.06 166.90 101.29 167.34 104.08 167.79 C 105.51 173.87 108.62 179.38 110.15 185.41 C 108.39 185.99 106.64 186.58 104.89 187.19 C 102.10 184.91 99.39 182.51 97.06 179.77 C 95.59 176.38 94.91 172.47 95.70 168.83 Z" />
<path fill="#822f79" opacity="1.00" d=" M 155.53 171.37 C 158.12 170.06 160.59 168.45 163.42 167.67 C 163.31 168.13 163.08 169.05 162.97 169.51 C 159.86 173.29 157.19 178.16 152.25 179.74 C 153.60 177.07 155.66 174.53 155.53 171.37 Z" />
<path fill="#3c8590" opacity="1.00" d=" M 367.37 170.13 C 367.69 170.94 368.03 171.75 368.37 172.56 L 368.60 173.13 C 363.61 183.48 358.27 193.67 352.43 203.57 C 349.89 204.14 347.35 204.72 344.81 205.29 C 346.26 202.45 347.76 199.64 349.44 196.93 C 355.44 188.01 361.55 179.17 367.37 170.13 Z" />
<path fill="#639c92" opacity="1.00" d=" M 39.98 170.70 C 41.81 173.09 43.64 175.49 45.59 177.79 C 43.14 194.26 42.24 210.93 41.85 227.55 C 38.42 224.68 35.03 221.76 31.78 218.68 L 31.84 218.08 C 32.04 215.84 32.20 213.60 32.31 211.36 L 32.35 210.47 C 33.97 206.21 33.41 201.61 33.24 197.16 C 33.87 198.32 34.51 199.47 35.15 200.63 C 37.35 195.71 37.45 190.25 38.28 185.01 C 39.12 180.24 37.29 175.08 39.98 170.70 Z" />
<path fill="#362f54" opacity="1.00" d=" M 107.91 170.85 C 109.67 172.31 111.49 173.69 113.26 175.14 C 113.08 176.96 111.96 179.10 113.25 180.74 C 116.53 184.17 120.87 186.38 124.09 189.88 C 119.78 189.31 115.91 187.01 112.41 184.57 C 110.15 180.32 109.03 175.51 107.91 170.85 Z" />
<path fill="#f46096" opacity="1.00" d=" M 142.95 178.95 C 146.98 176.17 151.08 173.45 155.53 171.37 C 155.66 174.53 153.60 177.07 152.25 179.74 C 148.23 181.18 144.15 182.49 139.96 183.31 C 140.73 181.73 141.37 179.93 142.95 178.95 Z" />
<path fill="#3b3759" opacity="1.00" d=" M 257.66 174.78 C 259.74 173.60 261.87 172.51 264.03 171.49 C 268.47 174.23 273.11 176.77 277.11 180.15 C 277.95 182.13 276.61 184.34 276.35 186.38 C 271.30 186.09 266.45 184.09 261.37 184.39 C 261.30 184.28 261.15 184.05 261.07 183.93 C 260.59 180.67 259.40 177.57 257.66 174.78 Z" />
<path fill="#353c60" opacity="1.00" d=" M 199.35 174.44 C 203.92 172.40 209.21 173.96 212.83 177.14 C 215.16 180.10 217.19 183.44 218.02 187.15 C 216.20 185.83 214.30 184.46 212.07 183.96 C 209.24 184.61 206.62 185.88 203.91 186.86 C 199.28 188.68 194.38 189.77 189.97 192.12 C 190.68 194.21 191.17 196.56 192.94 198.05 C 194.90 199.62 197.17 200.73 199.31 202.02 C 187.42 204.83 174.93 206.08 162.89 203.39 C 164.34 203.19 165.79 202.97 167.25 202.73 C 166.78 200.40 165.65 198.31 164.33 196.37 C 167.21 195.99 170.07 195.32 172.65 193.94 C 171.64 192.71 170.37 191.76 168.83 191.35 C 180.63 189.94 192.29 184.19 199.35 174.44 Z" />
<path fill="#251b39" opacity="1.00" d=" M 254.49 176.08 C 255.54 175.65 256.60 175.21 257.66 174.78 C 259.40 177.57 260.59 180.67 261.07 183.93 C 258.65 181.54 255.90 179.26 254.49 176.08 Z" />
<path fill="#2b3148" opacity="1.00" d=" M 166.78 180.81 C 169.80 179.31 173.00 178.22 176.19 177.14 C 174.88 180.86 170.13 181.33 166.78 180.81 Z" />
<path fill="#29506f" opacity="1.00" d=" M 45.59 177.79 C 48.25 180.47 50.85 183.21 53.53 185.87 C 50.60 200.39 46.93 214.76 44.45 229.37 C 43.58 228.76 42.71 228.15 41.85 227.55 C 42.24 210.93 43.14 194.26 45.59 177.79 Z" />
<path fill="#4a7a82" opacity="1.00" d=" M 94.85 188.21 C 91.73 185.49 89.73 181.47 90.46 177.27 C 92.38 179.29 94.29 181.32 96.29 183.27 C 95.81 184.92 95.33 186.56 94.85 188.21 Z" />
<path fill="#201532" opacity="1.00" d=" M 228.90 181.73 C 235.09 183.01 241.22 180.71 247.15 179.17 C 246.72 184.85 247.07 191.45 242.92 195.94 C 239.75 199.22 235.59 201.40 231.34 202.95 C 230.98 199.25 230.91 195.31 228.93 192.03 C 227.69 189.75 225.51 188.20 224.16 186.02 C 224.94 183.99 227.30 183.07 228.90 181.73 Z" />
<path fill="#619e94" opacity="1.00" d=" M 326.29 179.50 C 327.24 185.26 328.21 191.95 333.97 194.97 C 338.50 198.68 344.30 195.82 349.44 196.93 C 347.76 199.64 346.26 202.45 344.81 205.29 C 332.45 208.28 320.01 211.01 307.81 214.63 C 306.40 215.10 304.74 215.36 303.88 216.72 C 304.71 216.72 306.38 216.72 307.21 216.73 C 302.39 224.02 298.73 232.22 292.45 238.45 C 288.27 242.28 283.90 245.99 278.84 248.62 C 276.08 249.51 276.77 252.69 276.51 254.94 C 276.48 252.69 276.16 250.44 275.19 248.40 C 274.23 237.96 274.97 227.31 276.11 216.87 C 276.62 217.48 277.12 218.09 277.63 218.71 C 277.89 217.59 278.16 216.47 278.42 215.36 C 282.99 219.24 288.97 221.79 295.04 221.02 C 296.43 220.99 296.98 219.59 297.66 218.62 C 302.00 211.33 306.30 204.01 310.58 196.68 C 311.96 196.27 313.35 195.87 314.74 195.45 C 314.96 196.61 315.19 197.76 315.42 198.92 C 319.28 192.58 322.59 185.93 326.29 179.50 Z" />
<path fill="#4a5472" opacity="1.00" d=" M 163.00 183.59 C 166.10 183.03 169.22 182.54 172.37 182.43 C 170.73 183.48 169.23 184.73 167.71 185.94 C 168.07 187.08 168.42 188.22 168.78 189.37 C 167.02 189.59 165.26 189.82 163.51 190.06 C 163.60 188.67 163.80 187.31 164.11 185.96 C 163.75 185.16 163.38 184.38 163.00 183.59 Z" />
<path fill="#29627c" opacity="1.00" d=" M 96.29 183.27 C 99.66 186.78 103.42 189.89 107.15 193.00 C 103.83 197.28 99.31 200.44 96.05 204.81 C 95.42 203.88 94.79 202.96 94.15 202.04 C 94.91 198.32 96.17 194.72 96.91 191.01 C 96.63 189.83 95.56 189.10 94.85 188.21 C 95.33 186.56 95.81 184.92 96.29 183.27 Z" />
<path fill="#4e5875" opacity="1.00" d=" M 203.91 186.86 C 206.62 185.88 209.24 184.61 212.07 183.96 C 214.30 184.46 216.20 185.83 218.02 187.15 L 219.01 188.03 C 215.55 190.59 213.65 194.62 210.32 197.27 C 206.93 199.41 203.17 200.98 199.31 202.02 C 197.17 200.73 194.90 199.62 192.94 198.05 C 191.17 196.56 190.68 194.21 189.97 192.12 C 194.38 189.77 199.28 188.68 203.91 186.86 Z" />
<path fill="#565971" opacity="1.00" d=" M 261.37 184.39 C 266.45 184.09 271.30 186.09 276.35 186.38 C 275.75 189.42 275.20 192.48 274.64 195.53 C 270.02 192.07 265.39 188.55 261.37 184.39 Z" />
<path fill="#495371" opacity="1.00" d=" M 155.07 185.50 C 157.12 184.81 161.14 183.82 161.50 186.93 C 160.18 191.59 156.15 194.77 151.96 196.80 C 147.92 198.71 143.90 200.87 139.42 201.53 C 140.15 200.40 140.93 199.30 141.79 198.27 L 141.67 199.66 C 148.04 196.89 155.73 193.32 157.15 185.74 C 156.63 185.68 155.59 185.56 155.07 185.50 Z" />
<path fill="#204469" opacity="1.00" d=" M 53.53 185.87 C 56.40 188.48 59.35 191.03 62.74 192.93 C 61.49 206.85 60.73 220.81 60.03 234.76 C 59.43 234.94 58.22 235.29 57.62 235.46 C 56.79 236.71 55.90 237.93 54.94 239.10 C 51.63 235.65 47.89 232.65 44.45 229.37 C 46.93 214.76 50.60 200.39 53.53 185.87 Z" />
<path fill="#505a77" opacity="1.00" d=" M 104.89 187.19 C 106.64 186.58 108.39 185.99 110.15 185.41 C 113.64 188.60 117.64 191.22 122.24 192.48 C 120.62 194.14 118.04 193.18 115.99 193.38 C 111.37 193.74 108.09 189.92 104.89 187.19 Z" />
<path fill="#8191a0" opacity="1.00" d=" M 141.79 198.27 C 145.39 193.26 149.82 188.77 155.07 185.50 C 155.59 185.56 156.63 185.68 157.15 185.74 C 155.73 193.32 148.04 196.89 141.67 199.66 L 141.79 198.27 Z" />
<path fill="#387b89" opacity="1.00" d=" M 373.34 194.32 C 377.10 191.48 380.43 187.83 384.95 186.17 C 385.34 186.64 386.12 187.57 386.51 188.04 C 386.44 188.89 386.30 190.61 386.23 191.46 C 381.90 202.77 374.58 212.60 367.24 222.12 C 355.27 237.70 342.96 253.09 329.02 266.97 C 320.97 275.12 311.17 281.17 301.90 287.81 C 297.91 290.35 294.14 293.29 289.85 295.31 C 290.70 294.04 291.82 292.98 292.99 292.00 C 303.34 282.88 311.96 272.04 319.78 260.72 C 322.33 257.35 324.33 253.56 327.15 250.40 C 327.55 253.94 327.40 257.56 328.37 261.02 C 328.54 256.65 329.85 252.18 328.52 247.88 C 336.03 236.44 343.13 224.74 349.69 212.74 C 350.56 211.32 351.12 209.53 352.71 208.75 C 355.18 212.68 356.97 217.70 361.52 219.67 C 360.78 216.57 358.93 213.95 357.43 211.20 C 362.70 205.55 367.08 198.98 373.34 194.32 Z" />
<path fill="#3d4566" opacity="1.00" d=" M 215.61 193.57 C 217.41 190.79 220.30 189.05 222.85 187.06 C 227.03 191.52 229.69 197.46 228.63 203.67 C 226.77 204.61 224.73 205.03 222.69 205.39 C 221.93 204.09 221.18 202.80 220.43 201.51 C 216.98 200.89 213.48 200.30 209.97 200.59 C 212.18 198.53 213.94 196.07 215.61 193.57 Z" />
<path fill="#657288" opacity="1.00" d=" M 133.24 189.35 L 133.69 189.23 C 134.63 189.70 135.58 190.14 136.56 190.55 C 137.37 192.20 137.83 194.00 137.68 195.85 C 135.57 195.39 134.75 192.73 132.69 192.55 C 132.74 192.11 132.82 191.22 132.86 190.78 C 132.95 190.42 133.14 189.71 133.24 189.35 Z" />
<path fill="#69768b" opacity="1.00" d=" M 125.54 190.31 C 125.83 190.50 126.40 190.89 126.69 191.09 C 126.57 193.88 127.83 196.29 129.49 198.42 C 129.70 199.70 129.14 202.13 127.43 201.83 C 126.01 198.16 124.51 194.29 125.54 190.31 Z" />
<path fill="#545e6b" opacity="1.00" d=" M 144.23 189.98 C 145.96 188.91 145.96 191.56 144.59 191.92 C 142.86 193.16 142.78 190.31 144.23 189.98 Z" />
<path fill="#454e66" opacity="1.00" d=" M 139.59 197.23 C 139.79 194.88 138.91 191.06 142.05 190.42 C 141.87 192.78 142.37 196.16 139.59 197.23 Z" />
<path fill="#3f4869" opacity="1.00" d=" M 162.49 191.38 C 164.60 191.37 166.71 191.29 168.83 191.35 C 170.37 191.76 171.64 192.71 172.65 193.94 C 170.07 195.32 167.21 195.99 164.33 196.37 C 165.65 198.31 166.78 200.40 167.25 202.73 C 165.79 202.97 164.34 203.19 162.89 203.39 C 159.09 202.68 155.36 201.46 152.04 199.45 C 155.86 197.23 159.37 194.50 162.49 191.38 Z" />
<path fill="#6b788e" opacity="1.00" d=" M 128.30 192.63 C 128.86 192.60 129.99 192.54 130.55 192.51 C 131.21 193.14 131.87 193.78 132.54 194.41 C 132.54 195.04 132.55 196.29 132.56 196.91 C 130.24 196.86 129.25 194.37 128.30 192.63 Z" />
<path fill="#2a2240" opacity="1.00" d=" M 109.11 194.82 C 111.26 195.66 113.51 196.23 115.81 196.49 C 114.10 200.73 111.81 204.86 108.24 207.82 C 106.11 206.45 103.97 205.08 101.83 203.73 C 104.40 200.88 107.20 198.19 109.11 194.82 Z" />
<path fill="#2b647c" opacity="1.00" d=" M 118.36 196.33 C 119.96 195.68 121.56 195.04 123.17 194.40 C 124.52 199.38 122.65 204.31 121.42 209.10 C 117.39 223.42 110.27 236.65 102.11 249.02 C 101.74 248.69 100.99 248.04 100.61 247.71 C 98.48 247.75 96.35 247.78 94.22 247.81 C 94.09 245.35 94.25 242.83 93.61 240.43 C 92.41 237.87 89.92 236.33 87.69 234.76 C 91.78 232.29 96.43 230.02 98.67 225.55 C 91.75 229.53 85.15 234.05 78.36 238.25 C 85.31 229.37 92.30 219.56 102.98 214.93 C 110.43 211.17 116.60 204.69 118.36 196.33 Z" />
<path fill="#758396" opacity="1.00" d=" M 205.18 203.60 C 205.56 201.65 208.50 201.56 209.97 200.59 C 213.48 200.30 216.98 200.89 220.43 201.51 C 221.18 202.80 221.93 204.09 222.69 205.39 C 216.85 206.22 210.56 206.42 205.18 203.60 Z" />
<path fill="#575a72" opacity="1.00" d=" M 85.02 203.70 C 87.42 202.42 90.13 203.69 92.47 204.44 C 88.13 206.12 83.82 208.21 80.76 211.83 C 79.38 212.83 78.25 215.32 76.23 214.49 C 78.34 210.36 80.83 206.01 85.02 203.70 Z" />
<path fill="#383356" opacity="1.00" d=" M 92.47 204.44 C 93.55 204.29 94.46 205.20 95.36 205.68 C 92.68 208.68 91.18 213.62 94.85 216.51 C 86.39 220.55 81.29 228.77 76.07 236.15 C 74.61 234.44 73.15 232.74 71.70 231.04 C 72.50 225.37 74.08 219.84 75.98 214.45 L 76.23 214.49 C 78.25 215.32 79.38 212.83 80.76 211.83 C 83.82 208.21 88.13 206.12 92.47 204.44 Z" />
<path fill="#3c3855" opacity="1.00" d=" M 95.49 212.07 C 96.86 208.80 99.49 206.32 101.83 203.73 C 103.97 205.08 106.11 206.45 108.24 207.82 C 105.43 209.77 102.69 211.90 99.57 213.35 C 98.08 213.78 95.67 214.27 95.49 212.07 Z" />
<path fill="#241a3a" opacity="1.00" d=" M 230.36 208.18 C 232.92 207.11 235.50 206.07 238.09 205.07 C 239.96 210.55 236.35 216.26 231.91 219.30 C 232.01 215.53 231.65 211.75 230.36 208.18 Z" />
<path fill="#38818d" opacity="1.00" d=" M 342.39 208.30 C 345.20 207.54 348.02 206.83 350.88 206.24 C 346.38 213.23 342.98 220.90 338.25 227.73 C 338.05 228.24 337.65 229.27 337.45 229.79 C 337.07 229.96 336.31 230.30 335.94 230.47 C 335.95 232.00 335.66 233.36 333.93 233.60 C 334.28 235.91 333.55 236.78 331.75 236.19 C 331.87 237.95 332.39 240.27 329.78 239.46 C 330.00 241.21 330.25 243.27 327.80 242.47 C 328.05 244.23 328.19 246.72 325.71 245.28 C 325.75 245.67 325.85 246.44 325.90 246.83 C 315.91 246.33 305.92 246.59 295.93 246.43 C 294.46 246.60 292.40 245.93 291.65 247.67 C 301.43 249.91 311.57 248.79 321.51 248.82 C 318.78 253.19 315.24 256.96 312.04 260.97 C 305.49 268.76 299.54 277.07 292.40 284.34 C 288.59 288.35 284.24 291.83 280.92 296.28 C 282.08 296.42 283.25 296.57 284.42 296.67 C 283.05 298.13 281.39 299.25 279.44 299.77 C 278.46 282.63 274.53 265.59 275.19 248.40 C 276.16 250.44 276.48 252.69 276.51 254.94 C 276.77 252.69 276.08 249.51 278.84 248.62 C 283.90 245.99 288.27 242.28 292.45 238.45 C 298.73 232.22 302.39 224.02 307.21 216.73 C 307.66 216.63 308.56 216.44 309.02 216.35 C 307.79 220.81 306.87 225.38 306.89 230.03 C 306.17 236.52 314.33 240.62 319.83 238.93 C 324.61 235.73 328.28 231.01 331.01 225.99 C 334.40 219.94 338.62 214.42 342.25 208.52 L 342.39 208.30 Z" />
<path fill="#758395" opacity="1.00" d=" M 206.95 208.90 C 212.33 210.30 218.04 210.91 223.51 209.67 C 224.95 212.16 225.78 215.12 224.93 217.96 C 224.20 221.69 220.96 224.04 218.02 226.05 C 215.30 226.98 212.18 227.05 209.38 226.47 C 205.16 221.72 205.00 214.66 206.95 208.90 Z" />
<path fill="#3b4365" opacity="1.00" d=" M 223.51 209.67 C 225.25 209.48 227.08 208.56 228.80 209.18 C 230.01 213.33 230.52 218.31 228.00 222.09 C 225.09 224.19 221.61 225.64 218.02 226.05 C 220.96 224.04 224.20 221.69 224.93 217.96 C 225.78 215.12 224.95 212.16 223.51 209.67 Z" />
<path fill="#579692" opacity="1.00" d=" M 309.02 216.35 C 320.16 214.04 331.09 210.78 342.25 208.52 C 338.62 214.42 334.40 219.94 331.01 225.99 C 328.28 231.01 324.61 235.73 319.83 238.93 C 314.33 240.62 306.17 236.52 306.89 230.03 C 306.87 225.38 307.79 220.81 309.02 216.35 Z" />
<path fill="#77ae98" opacity="1.00" d=" M 17.77 211.18 C 22.71 209.14 27.34 213.21 32.31 211.36 C 32.20 213.60 32.04 215.84 31.84 218.08 C 30.97 217.72 30.08 217.49 29.15 217.38 C 30.42 219.04 31.82 220.61 33.21 222.17 C 31.44 227.10 28.52 231.47 25.00 235.31 C 22.12 228.86 19.00 222.42 17.23 215.57 C 17.34 214.10 17.55 212.64 17.77 211.18 Z" />
<path fill="#494865" opacity="1.00" d=" M 234.97 228.91 C 240.65 225.79 246.71 222.82 253.23 222.05 C 248.79 227.43 242.25 230.62 236.67 234.72 C 234.06 236.61 230.81 235.01 228.06 234.36 C 229.46 231.65 232.63 230.64 234.97 228.91 Z" />
<path fill="#619f95" opacity="1.00" d=" M 25.00 235.31 C 28.52 231.47 31.44 227.10 33.21 222.17 C 36.16 225.33 39.18 228.42 42.51 231.19 C 43.15 236.02 41.35 240.59 38.30 244.26 C 39.10 247.29 39.91 250.31 40.37 253.41 C 37.18 250.58 35.40 246.65 33.44 242.96 C 32.99 244.87 32.53 246.78 32.08 248.69 C 29.46 244.38 27.14 239.88 25.00 235.31 Z" />
<path fill="#30294b" opacity="1.00" d=" M 223.39 228.48 C 226.59 226.92 229.72 225.17 233.10 224.02 C 231.54 228.36 227.64 231.18 224.10 233.84 C 224.22 234.36 224.45 235.39 224.56 235.91 C 221.11 238.36 217.20 240.34 212.97 240.93 C 210.10 240.17 207.33 238.83 205.08 236.89 C 206.25 236.25 207.45 235.65 208.66 235.08 C 208.89 234.61 209.36 233.68 209.59 233.21 C 210.16 233.09 211.29 232.85 211.86 232.73 C 210.99 231.82 210.14 230.90 209.30 229.98 C 213.96 229.25 219.10 230.94 223.39 228.48 Z" />
<path fill="#4b4c67" opacity="1.00" d=" M 197.87 226.85 C 198.27 224.34 202.13 225.65 203.96 224.80 C 204.63 228.29 206.73 231.16 209.59 233.21 C 209.36 233.68 208.89 234.61 208.66 235.08 C 207.45 235.65 206.25 236.25 205.08 236.89 C 201.86 234.24 199.64 230.57 197.87 226.85 Z" />
<path fill="#555870" opacity="1.00" d=" M 182.06 228.51 C 187.44 229.15 193.03 230.32 197.53 233.49 C 199.37 235.94 201.42 238.22 203.18 240.73 C 198.16 242.23 193.14 239.48 188.98 236.88 C 186.04 234.73 183.23 232.06 182.06 228.51 Z" />
<path fill="#565971" opacity="1.00" d=" M 251.35 229.38 C 253.25 228.19 255.48 229.22 257.39 229.83 C 254.75 232.42 252.48 235.37 250.74 238.64 C 248.34 243.19 244.64 247.00 242.94 251.91 C 241.96 254.76 240.49 257.39 238.66 259.78 C 237.90 251.97 239.58 244.19 241.64 236.71 C 242.00 235.08 243.79 234.64 244.99 233.80 C 247.26 232.56 249.18 230.78 251.35 229.38 Z" />
<path fill="#363054" opacity="1.00" d=" M 257.39 229.83 C 260.55 234.07 257.57 239.34 255.26 243.23 C 249.99 249.74 245.32 256.88 238.46 261.89 C 238.51 261.36 238.61 260.31 238.66 259.78 C 240.49 257.39 241.96 254.76 242.94 251.91 C 244.64 247.00 248.34 243.19 250.74 238.64 C 252.48 235.37 254.75 232.42 257.39 229.83 Z" />
<path fill="#1f4369" opacity="1.00" d=" M 42.51 231.19 C 46.71 234.74 50.51 238.73 54.65 242.34 C 55.90 244.83 57.03 247.38 58.09 249.96 C 58.66 256.98 57.05 263.98 57.45 271.00 C 57.78 276.18 58.61 281.30 58.94 286.48 C 51.77 277.76 45.87 268.05 39.35 258.83 C 39.76 257.04 40.16 255.24 40.37 253.41 C 39.91 250.31 39.10 247.29 38.30 244.26 C 41.35 240.59 43.15 236.02 42.51 231.19 Z" />
<path fill="#3a3558" opacity="1.00" d=" M 66.73 234.00 C 66.74 232.54 68.45 230.77 69.80 232.16 C 72.10 233.36 73.86 235.38 74.01 238.07 C 70.87 238.36 68.91 235.78 66.73 234.00 Z" />
<path fill="#245674" opacity="1.00" d=" M 79.08 239.83 C 81.99 238.20 84.84 236.47 87.69 234.76 C 89.92 236.33 92.41 237.87 93.61 240.43 C 94.25 242.83 94.09 245.35 94.22 247.81 C 96.35 247.78 98.48 247.75 100.61 247.71 C 100.99 248.04 101.74 248.69 102.11 249.02 C 96.25 258.18 88.99 266.35 81.19 273.89 C 78.73 272.00 75.91 270.54 73.76 268.29 C 72.31 266.11 71.87 263.47 71.17 260.99 C 72.54 260.53 74.38 260.69 75.25 259.30 C 76.55 256.55 76.23 253.30 77.56 250.56 C 78.55 249.75 79.67 249.10 80.76 248.42 C 81.06 245.43 80.35 242.52 79.08 239.83 Z" />
<path fill="#575a72" opacity="1.00" d=" M 58.06 239.40 C 60.15 239.27 62.25 239.32 64.32 239.65 C 63.24 242.88 62.07 246.10 61.19 249.40 C 59.23 246.43 57.71 243.05 58.06 239.40 Z" />
<path fill="#3e3a5b" opacity="1.00" d=" M 64.32 239.65 C 68.90 241.98 74.41 246.22 73.46 251.99 C 73.20 254.02 72.24 255.87 71.56 257.78 C 67.32 256.46 62.59 253.87 61.19 249.40 C 62.07 246.10 63.24 242.88 64.32 239.65 Z" />
<path fill="#1b4165" opacity="1.00" d=" M 71.66 240.49 C 73.15 240.67 74.65 240.85 76.14 241.03 C 76.75 243.07 77.95 245.11 77.34 247.31 C 74.37 246.23 73.31 242.89 71.66 240.49 Z" />
<path fill="#4f506a" opacity="1.00" d=" M 174.06 264.27 C 175.16 254.18 183.96 247.68 189.99 240.37 C 190.53 244.79 188.92 248.96 186.15 252.34 C 182.18 256.38 177.66 259.86 174.06 264.27 Z" />
<path fill="#3a3658" opacity="1.00" d=" M 189.99 240.37 C 192.57 241.95 195.44 242.96 198.24 244.08 C 194.23 246.85 190.36 249.87 186.15 252.34 C 188.92 248.96 190.53 244.79 189.99 240.37 Z" />
<path fill="#459194" opacity="1.00" d=" M 32.08 248.69 C 32.53 246.78 32.99 244.87 33.44 242.96 C 35.40 246.65 37.18 250.58 40.37 253.41 C 40.16 255.24 39.76 257.04 39.35 258.83 C 36.86 255.50 34.45 252.11 32.08 248.69 Z" />
<path fill="#2d677e" opacity="1.00" d=" M 321.51 248.82 C 322.84 248.73 324.17 248.64 325.50 248.56 C 314.00 266.26 301.35 283.76 284.42 296.67 C 283.25 296.57 282.08 296.42 280.92 296.28 C 284.24 291.83 288.59 288.35 292.40 284.34 C 299.54 277.07 305.49 268.76 312.04 260.97 C 315.24 256.96 318.78 253.19 321.51 248.82 Z" />
<path fill="#31294f" opacity="1.00" d=" M 252.28 251.75 C 258.58 255.70 261.11 263.59 262.33 270.57 C 260.87 271.87 259.42 273.18 257.96 274.49 C 255.17 268.55 252.36 262.43 247.63 257.74 C 248.89 255.53 250.61 253.65 252.28 251.75 Z" />
<path fill="#2b2342" opacity="1.00" d=" M 187.19 258.91 C 190.87 256.75 194.48 254.20 198.74 253.36 C 201.41 257.05 199.91 262.65 199.28 266.97 C 198.84 265.26 198.84 262.96 196.96 262.11 C 193.77 260.40 190.06 261.67 186.99 263.02 C 186.33 262.93 185.02 262.73 184.36 262.64 L 184.37 261.96 C 184.40 260.45 184.41 258.94 184.41 257.44 L 184.41 257.27 C 185.57 256.49 186.72 255.72 187.88 254.94 C 187.65 256.26 187.42 257.58 187.19 258.91 Z" />
<path fill="#1c4168" opacity="1.00" d=" M 60.60 254.75 C 63.99 257.06 67.60 258.99 71.17 260.99 C 71.87 263.47 72.31 266.11 73.76 268.29 C 75.91 270.54 78.73 272.00 81.19 273.89 C 75.45 279.85 68.85 284.90 61.82 289.23 C 61.54 288.71 60.97 287.67 60.68 287.15 C 60.91 279.76 59.84 272.38 60.44 265.00 C 60.70 261.59 60.73 258.16 60.60 254.75 Z" />
<path fill="#393553" opacity="1.00" d=" M 176.64 265.34 C 177.29 261.48 181.75 259.88 184.41 257.44 C 184.41 258.94 184.40 260.45 184.37 261.96 C 181.62 262.67 179.27 264.31 176.64 265.34 Z" />
<path fill="#403e5a" opacity="1.00" d=" M 186.99 263.02 C 190.06 261.67 193.77 260.40 196.96 262.11 C 198.84 262.96 198.84 265.26 199.28 266.97 C 197.97 273.53 196.23 280.35 191.17 285.12 C 191.52 277.58 190.37 269.84 186.99 263.02 Z" />
<path fill="#565972" opacity="1.00" d=" M 257.96 274.49 C 259.42 273.18 260.87 271.87 262.33 270.57 C 262.06 275.70 262.78 280.86 261.84 285.95 C 259.97 282.35 259.53 278.22 257.96 274.49 Z" />
</svg>
