<?xml version="1.0" encoding="UTF-8" ?>
<!DOCTYPE svg PUBLIC "-//W3C//DTD SVG 1.1//EN" "http://www.w3.org/Graphics/SVG/1.1/DTD/svg11.dtd">
<svg width="275pt" height="154pt" viewBox="0 0 275 154" version="1.1" xmlns="http://www.w3.org/2000/svg">
<path fill="#000000" opacity="1.00" d=" M 185.98 12.05 C 188.68 8.17 191.15 4.11 194.04 0.38 C 200.07 -0.47 205.36 2.85 210.48 5.53 C 219.69 11.22 229.91 15.55 237.75 23.23 C 244.20 29.55 250.10 36.52 254.68 44.32 C 261.50 54.38 267.53 65.22 270.56 77.08 C 273.80 88.53 276.19 100.62 273.76 112.48 C 272.44 121.01 267.67 128.67 261.32 134.39 C 258.61 136.76 256.05 139.50 252.57 140.74 C 255.78 136.06 256.31 130.29 257.33 124.87 C 258.96 116.11 258.36 107.15 257.37 98.35 C 255.38 99.72 252.24 101.30 250.17 99.19 C 253.43 92.95 251.56 85.63 249.57 79.29 C 248.20 81.84 246.15 83.87 243.93 85.67 C 242.15 83.05 244.12 79.86 244.10 76.98 C 245.32 71.73 243.10 66.65 241.48 61.76 C 240.12 62.62 237.73 64.44 236.42 62.71 C 235.84 60.43 236.11 58.01 237.14 55.91 C 235.02 51.93 232.39 48.25 229.30 44.97 C 221.40 34.80 211.55 26.20 200.63 19.39 C 198.74 26.03 195.16 32.49 189.55 36.68 C 190.03 39.88 187.19 41.64 184.61 42.58 C 171.71 47.89 159.48 54.72 146.45 59.70 C 146.36 61.45 146.80 63.30 146.05 64.94 C 144.86 66.74 142.64 67.20 140.70 67.72 C 143.54 72.71 144.45 78.57 143.68 84.23 C 144.17 84.53 145.15 85.12 145.63 85.42 C 147.73 83.53 150.15 81.95 153.05 81.71 C 153.55 85.20 156.90 87.26 158.03 90.53 C 159.70 88.95 162.17 86.55 164.44 88.67 C 165.06 92.71 164.73 96.83 164.49 100.90 C 165.12 101.56 165.76 102.23 166.40 102.90 C 170.66 96.09 177.38 91.47 183.54 86.55 C 190.81 80.61 198.40 74.93 206.96 70.97 C 214.37 67.17 221.91 63.45 229.97 61.29 C 233.82 60.29 235.11 65.24 234.09 68.04 C 231.53 77.73 225.85 86.67 218.00 92.94 C 214.22 95.90 210.64 99.29 206.11 101.10 C 199.99 103.51 194.13 106.52 188.06 109.06 C 185.13 109.78 185.56 113.49 185.54 115.85 C 188.34 125.86 195.49 134.64 204.97 139.03 C 206.69 139.74 209.98 141.64 207.55 143.62 C 203.37 145.81 198.60 142.91 194.58 141.44 C 193.01 143.73 190.35 144.52 187.94 145.59 C 188.05 149.43 183.93 148.02 181.51 148.52 C 172.86 150.78 163.86 150.77 155.05 152.03 C 138.74 153.21 122.31 154.75 105.98 153.15 C 103.28 152.58 99.54 153.10 98.23 150.03 C 99.14 149.13 99.98 148.17 100.89 147.27 C 98.33 147.89 95.74 148.79 93.07 148.27 C 98.57 141.60 105.38 136.09 110.42 129.02 C 114.32 123.34 118.57 117.90 122.38 112.16 C 120.04 110.09 117.81 107.88 115.57 105.70 C 116.96 103.42 119.69 102.48 122.22 102.15 C 123.66 102.11 124.97 101.50 126.20 100.79 C 127.76 100.19 129.51 100.67 131.14 100.59 C 130.49 95.29 137.12 91.49 134.12 86.24 C 129.75 82.16 126.52 77.05 125.10 71.21 C 123.57 73.14 122.59 76.18 119.64 76.18 C 119.63 74.87 119.67 73.57 119.67 72.27 C 118.21 73.28 116.72 74.37 116.24 76.20 C 114.01 74.38 113.30 71.33 111.20 69.34 C 111.65 69.50 112.55 69.82 113.00 69.98 C 114.23 70.61 115.47 71.22 116.71 71.83 C 118.53 69.95 120.38 68.09 122.34 66.35 C 120.44 67.56 118.38 68.49 116.14 68.84 C 116.05 65.14 115.18 61.18 116.76 57.66 C 117.71 55.43 120.17 54.56 122.03 53.28 C 122.89 54.12 123.75 54.97 124.61 55.82 C 124.84 58.61 124.78 61.42 124.40 64.20 C 125.14 63.15 125.91 62.10 126.66 61.05 C 126.03 58.89 125.62 56.68 125.41 54.45 C 124.79 53.73 124.17 53.01 123.57 52.29 C 120.03 52.52 116.60 53.85 114.35 56.69 C 111.56 59.51 109.35 63.69 111.85 67.43 L 111.97 68.18 L 112.08 69.06 C 110.28 67.99 109.12 66.29 108.07 64.56 C 105.51 64.55 103.02 63.94 100.61 63.09 C 100.17 63.73 99.29 65.02 98.85 65.67 C 98.49 64.47 98.22 63.26 98.04 62.02 C 91.44 58.75 84.80 55.47 78.76 51.21 C 73.15 47.13 66.96 43.84 61.59 39.44 C 60.02 36.82 57.99 34.55 55.73 32.50 C 53.84 33.62 51.97 34.83 50.46 36.45 C 47.22 39.88 43.08 42.32 40.02 45.92 C 37.09 49.08 34.85 52.80 33.21 56.77 C 34.25 59.33 35.87 61.79 35.87 64.64 C 34.12 64.93 32.36 65.08 30.60 65.19 C 31.16 67.15 31.81 69.09 32.34 71.06 C 31.65 73.69 28.94 71.31 27.73 70.47 C 26.77 69.17 24.72 69.69 24.89 71.44 C 23.89 76.59 20.37 80.88 19.47 86.11 C 20.91 90.55 22.56 95.12 23.11 99.70 C 20.96 100.70 18.53 99.81 16.28 99.74 C 14.52 107.01 13.65 114.62 15.08 122.03 C 16.00 128.78 18.38 135.20 19.58 141.89 C 17.35 141.09 15.03 140.33 13.26 138.69 C 6.07 131.93 2.27 122.42 0.49 112.89 C -1.02 99.39 1.34 85.53 7.17 73.27 C 10.59 66.29 15.61 60.33 20.05 54.02 C 24.61 47.66 30.02 41.98 35.91 36.85 C 40.30 32.30 45.35 28.32 51.01 25.48 C 50.54 23.32 49.09 20.38 50.97 18.59 C 53.87 17.88 56.52 19.78 59.02 20.97 C 64.58 23.70 70.12 26.99 73.92 32.01 C 80.70 40.28 89.60 46.32 97.88 52.94 C 97.10 49.15 94.39 46.03 94.48 42.02 C 99.28 47.06 105.14 51.03 109.63 56.39 C 111.26 54.67 113.19 53.30 115.23 52.11 C 114.09 45.39 113.44 38.58 111.80 31.95 C 110.26 24.83 107.37 17.65 108.90 10.25 C 110.60 10.58 110.38 12.64 110.85 13.89 C 112.40 22.61 115.27 31.07 116.25 39.90 C 116.70 43.63 116.78 47.38 117.12 51.12 C 118.96 49.93 120.65 48.32 122.84 47.82 C 125.64 48.95 127.61 51.40 129.35 53.76 C 130.27 55.76 129.80 58.30 131.46 59.98 C 133.77 57.18 137.19 55.75 140.73 55.28 C 141.91 55.13 142.83 54.52 143.47 53.47 C 144.23 52.53 145.27 51.90 146.26 51.24 C 155.17 45.46 163.87 39.32 173.29 34.37 C 176.54 32.70 179.73 30.78 183.33 29.93 C 181.94 23.91 182.43 17.26 185.98 12.05 M 198.76 1.96 C 200.82 6.94 201.64 12.35 201.01 17.72 C 203.13 18.58 205.18 19.63 207.37 20.31 C 214.92 26.09 222.40 32.17 228.41 39.59 C 232.58 45.12 238.87 50.02 239.79 57.25 C 239.08 58.19 238.60 59.23 238.35 60.40 C 240.17 60.84 242.00 61.26 243.84 61.65 C 245.40 65.94 246.87 70.34 246.97 74.95 C 245.89 76.48 246.67 78.48 246.64 80.20 C 247.41 77.59 249.08 75.43 250.26 73.02 C 250.73 74.91 251.30 76.77 251.94 78.61 L 252.15 78.67 C 253.61 84.15 254.72 89.76 254.38 95.46 C 254.08 96.04 253.48 97.20 253.18 97.78 C 254.97 97.35 256.76 96.88 258.57 96.49 C 259.00 97.55 259.44 98.61 259.88 99.67 C 262.88 110.92 260.76 122.93 257.54 133.92 C 259.88 131.62 262.18 129.21 263.86 126.37 C 271.02 116.84 271.94 104.01 270.18 92.59 C 269.64 88.29 268.38 84.13 267.47 79.91 C 267.08 78.77 266.76 77.61 266.26 76.52 C 265.85 73.16 264.59 70.00 263.25 66.92 C 260.16 60.20 256.73 53.62 252.42 47.60 C 246.46 37.62 238.99 28.38 229.75 21.26 L 229.77 21.04 C 219.64 14.34 209.03 8.42 198.76 1.96 M 195.56 3.80 C 194.31 5.64 192.92 7.41 191.89 9.39 C 189.19 12.76 186.83 16.48 185.74 20.70 L 185.63 20.78 C 185.35 23.60 185.08 26.43 184.84 29.25 L 184.40 29.66 C 184.88 30.12 185.35 30.58 185.83 31.05 C 185.31 32.12 184.81 33.19 184.31 34.27 C 186.58 35.27 188.34 33.12 189.81 31.71 C 194.98 25.97 198.95 18.18 197.54 10.27 C 197.38 7.99 196.88 5.69 195.56 3.80 M 52.62 20.98 C 53.51 28.22 59.90 32.24 64.54 37.03 C 66.09 36.46 66.56 34.98 66.88 33.50 C 66.82 31.40 66.78 29.30 66.72 27.20 C 64.12 25.77 61.43 24.52 58.64 23.50 L 58.51 23.29 C 56.57 22.46 54.61 21.68 52.62 20.98 M 38.02 39.96 C 34.55 43.13 30.95 46.20 27.95 49.83 C 23.44 55.10 19.49 60.82 15.37 66.39 C 12.19 71.40 8.62 76.48 7.54 82.43 C 7.35 82.81 6.97 83.56 6.78 83.94 C 3.19 93.53 2.93 103.94 3.82 114.03 C 5.56 123.74 9.89 133.46 17.71 139.75 C 17.09 138.00 16.57 136.21 15.77 134.52 C 14.80 129.36 12.96 124.38 12.45 119.13 C 11.78 114.36 12.29 109.57 12.78 104.82 C 13.38 103.28 13.55 101.58 13.92 99.97 C 14.27 99.55 14.97 98.72 15.32 98.31 C 16.97 98.09 18.62 97.87 20.27 97.66 C 20.02 96.73 19.80 95.79 19.59 94.85 C 19.40 90.97 15.86 87.46 17.58 83.60 L 17.77 83.69 C 18.80 78.78 21.53 74.51 23.38 69.91 C 25.03 68.37 27.29 68.53 29.36 68.81 C 28.52 66.78 27.75 64.72 27.34 62.56 C 28.89 62.53 30.44 62.51 31.99 62.49 C 31.90 60.60 31.64 58.72 30.57 57.10 C 31.12 55.77 31.56 54.40 32.04 53.04 C 34.31 49.08 36.85 45.27 40.02 41.97 C 44.81 38.67 48.71 34.30 53.27 30.72 C 53.28 30.60 53.30 30.35 53.31 30.23 L 53.39 28.57 C 47.35 30.65 42.25 35.21 38.02 39.96 M 68.69 30.99 C 68.81 32.59 68.99 34.19 69.24 35.77 C 68.58 36.87 67.91 37.96 67.24 39.04 C 77.57 45.71 87.39 53.22 98.42 58.75 C 98.44 57.26 97.83 56.16 96.59 55.44 C 91.69 52.20 87.54 47.88 82.42 44.99 C 77.54 40.62 72.91 35.99 68.69 30.99 M 179.56 34.37 C 173.51 38.19 167.33 41.84 161.28 45.68 C 154.96 49.12 149.01 53.33 142.78 56.98 C 145.35 58.94 147.88 56.30 150.25 55.28 C 161.48 49.53 172.39 43.05 184.21 38.54 C 183.09 37.08 181.79 35.78 180.75 34.26 L 180.66 34.38 L 179.56 34.37 M 100.34 50.88 C 99.72 56.10 104.95 58.36 108.90 60.04 C 109.24 59.49 109.93 58.40 110.27 57.85 C 106.68 55.95 103.41 53.52 100.34 50.88 M 119.11 57.72 C 117.68 60.28 117.86 63.22 117.86 66.03 C 119.36 65.16 120.77 64.13 122.08 62.99 C 122.22 61.00 122.85 58.87 122.02 56.94 C 120.90 55.99 120.10 57.49 119.11 57.72 M 100.51 58.49 C 101.29 62.04 105.63 62.11 108.37 63.41 C 108.34 62.88 108.28 61.82 108.25 61.29 C 105.70 60.27 103.16 59.20 100.51 58.49 M 136.47 59.49 C 133.18 60.03 133.09 65.01 136.03 66.14 C 139.01 68.04 142.11 63.15 140.35 60.69 C 139.16 60.08 137.85 59.36 136.47 59.49 M 226.91 65.83 C 213.56 70.90 200.46 77.23 189.30 86.25 C 182.52 91.52 175.44 96.42 169.18 102.33 C 169.67 102.65 170.66 103.28 171.16 103.60 C 173.63 101.19 176.02 98.66 179.01 96.86 C 182.47 94.77 185.81 91.79 190.09 91.81 C 190.32 92.40 190.79 93.59 191.03 94.18 C 188.70 97.64 187.72 101.83 186.90 105.86 C 191.35 103.86 195.77 101.78 200.22 99.76 L 200.33 99.59 C 205.88 98.06 210.53 94.51 214.92 90.93 C 223.05 84.46 229.55 75.16 231.03 64.73 C 229.57 64.80 228.19 65.14 226.91 65.83 M 125.79 70.21 C 128.49 69.85 130.79 68.36 132.05 65.93 C 129.94 67.23 125.93 67.13 125.79 70.21 M 130.71 69.57 C 131.72 73.88 135.16 77.15 136.32 81.47 C 136.31 83.10 137.24 84.57 137.73 86.10 C 138.74 85.08 140.19 84.35 140.77 82.96 C 141.41 78.14 140.20 73.16 137.74 68.99 C 136.23 68.47 134.63 68.38 133.06 68.19 C 132.28 68.66 131.50 69.12 130.71 69.57 M 121.21 73.04 C 122.84 72.42 123.11 70.53 123.75 69.13 C 121.79 69.19 121.84 71.67 121.21 73.04 M 127.96 71.58 C 128.68 74.44 130.15 77.12 132.43 79.03 C 130.93 76.60 130.67 73.01 127.96 71.58 M 146.95 87.12 L 147.05 87.50 C 143.69 89.13 141.10 92.46 136.99 92.26 C 136.45 93.16 135.91 94.07 135.39 94.98 L 135.41 95.18 C 133.56 98.01 133.73 101.41 133.95 104.63 C 137.27 108.70 142.10 111.18 147.11 112.49 C 148.13 112.80 149.21 114.03 150.31 113.32 C 151.47 112.04 152.43 110.58 153.44 109.18 C 152.68 108.09 151.91 107.01 151.15 105.92 C 151.41 101.32 152.66 96.78 155.29 92.95 C 154.49 90.03 152.81 87.45 150.80 85.22 C 149.36 85.09 148.22 86.55 146.95 87.12 M 136.90 89.86 C 139.45 89.49 142.29 88.51 143.33 85.90 C 141.18 87.18 138.55 87.89 136.90 89.86 M 159.35 92.83 C 156.96 94.37 155.43 96.82 154.59 99.49 L 154.36 99.57 C 154.28 100.24 154.10 101.57 154.01 102.24 C 154.25 105.22 154.79 108.18 155.76 111.02 C 159.72 107.50 162.25 102.19 161.88 96.85 C 161.95 94.61 162.11 92.37 162.16 90.13 C 161.24 91.04 160.02 91.72 159.35 92.83 M 172.20 105.87 L 172.83 105.60 C 175.40 109.61 179.94 107.98 183.61 106.91 C 184.14 104.80 184.62 102.68 184.99 100.54 L 185.33 100.41 C 185.90 98.63 186.48 96.86 187.02 95.07 C 181.82 98.26 176.05 100.98 172.20 105.87 M 126.43 102.76 C 124.20 103.16 122.10 104.02 120.10 105.06 L 119.27 104.85 C 120.35 107.46 123.54 108.63 125.11 111.05 C 127.76 108.56 130.44 105.72 130.70 101.87 C 129.29 102.19 127.75 102.14 126.43 102.76 M 163.77 103.88 C 163.18 107.14 159.32 109.56 160.09 112.88 C 162.64 112.38 164.81 110.82 167.12 109.72 C 166.16 107.69 165.02 105.75 163.77 103.88 M 169.03 106.48 C 168.42 107.89 170.15 110.57 171.79 109.70 C 172.61 108.21 170.49 106.22 169.03 106.48 M 126.70 113.91 C 126.05 117.12 127.12 120.62 125.63 123.70 C 122.33 130.84 116.83 136.63 110.79 141.53 C 118.46 138.33 126.92 139.26 134.96 138.06 C 137.48 135.26 138.08 131.42 139.18 127.96 C 140.45 123.37 143.52 119.15 142.86 114.18 C 138.98 112.65 135.41 110.33 132.59 107.24 C 130.91 109.71 128.72 111.73 126.70 113.91 M 182.63 110.97 C 181.66 113.98 180.00 116.80 179.68 119.99 C 179.59 122.56 180.54 125.01 181.39 127.40 C 185.95 135.69 195.25 139.78 204.05 141.82 C 197.38 137.97 191.11 133.12 187.18 126.36 C 185.17 123.07 184.68 118.99 182.20 116.00 C 182.29 114.32 182.45 112.64 182.63 110.97 M 162.09 115.67 C 166.16 122.99 171.87 129.17 177.11 135.64 C 179.25 135.17 181.42 134.85 183.61 134.79 C 177.77 129.12 174.74 119.91 178.85 112.37 C 173.10 111.97 167.01 112.33 162.09 115.67 M 153.16 114.42 C 153.25 116.28 153.31 118.14 153.46 119.99 C 153.81 120.95 154.16 121.91 154.51 122.86 C 156.29 127.48 159.88 130.91 163.62 133.97 C 169.10 139.34 175.47 144.26 183.21 145.71 C 177.68 140.38 172.52 134.68 167.90 128.54 C 166.10 126.14 164.13 123.87 162.47 121.37 C 161.73 119.91 160.97 118.48 160.17 117.05 C 159.52 115.62 158.88 114.18 158.23 112.75 C 156.55 113.34 154.86 113.90 153.16 114.42 M 117.45 123.70 C 114.50 128.28 110.50 132.04 107.37 136.49 C 105.06 139.78 101.84 142.22 98.87 144.86 C 106.60 142.82 112.58 136.68 117.79 130.89 L 117.76 130.42 C 122.21 126.48 124.53 120.41 123.72 114.49 C 121.23 117.27 119.78 120.79 117.45 123.70 M 146.14 115.32 C 145.79 118.27 145.06 121.16 143.91 123.90 C 141.85 128.42 140.80 133.33 138.39 137.70 C 142.91 135.24 145.09 130.34 147.66 126.15 C 148.86 122.74 149.15 119.12 149.56 115.56 C 148.42 115.48 147.28 115.40 146.14 115.32 M 151.39 122.75 C 150.28 128.29 147.10 133.10 143.54 137.37 C 148.67 136.30 153.94 136.48 159.11 137.16 C 159.92 136.97 161.54 136.59 162.35 136.40 C 157.69 132.74 153.35 128.50 151.39 122.75 Z" />
<path fill="#40224f" opacity="1.00" d=" M 198.76 1.96 C 209.03 8.42 219.64 14.34 229.77 21.04 L 229.75 21.26 C 228.31 27.85 236.95 31.63 236.25 38.00 L 235.17 37.02 C 226.71 30.30 217.74 23.67 207.37 20.31 C 205.18 19.63 203.13 18.58 201.01 17.72 C 201.64 12.35 200.82 6.94 198.76 1.96 Z" />
<path fill="#923451" opacity="1.00" d=" M 195.56 3.80 C 196.88 5.69 197.38 7.99 197.54 10.27 C 195.58 11.98 193.53 13.56 191.46 15.13 C 191.62 13.22 191.71 11.30 191.89 9.39 C 192.92 7.41 194.31 5.64 195.56 3.80 Z" />
<path fill="#f04f53" opacity="1.00" d=" M 185.74 20.70 C 186.83 16.48 189.19 12.76 191.89 9.39 C 191.71 11.30 191.62 13.22 191.46 15.13 C 191.41 15.57 191.32 16.43 191.27 16.86 C 189.43 18.15 187.61 19.46 185.74 20.70 Z" />
<path fill="#5e2551" opacity="1.00" d=" M 191.46 15.13 C 193.53 13.56 195.58 11.98 197.54 10.27 C 198.95 18.18 194.98 25.97 189.81 31.71 C 188.34 33.12 186.58 35.27 184.31 34.27 C 184.81 33.19 185.31 32.12 185.83 31.05 C 185.35 30.58 184.88 30.12 184.40 29.66 L 184.84 29.25 C 188.58 26.20 191.05 21.73 191.27 16.86 C 191.32 16.43 191.41 15.57 191.46 15.13 Z" />
<path fill="#a03851" opacity="1.00" d=" M 185.74 20.70 C 187.61 19.46 189.43 18.15 191.27 16.86 C 191.05 21.73 188.58 26.20 184.84 29.25 C 185.08 26.43 185.35 23.60 185.63 20.78 L 185.74 20.70 Z" />
<path fill="#a15aab" opacity="1.00" d=" M 207.37 20.31 C 217.74 23.67 226.71 30.30 235.17 37.02 C 232.72 37.26 229.86 37.18 228.41 39.59 C 222.40 32.17 214.92 26.09 207.37 20.31 Z" />
<path fill="#5d2551" opacity="1.00" d=" M 52.62 20.98 C 54.61 21.68 56.57 22.46 58.51 23.29 L 58.64 23.50 C 60.86 27.24 63.79 30.47 66.88 33.50 C 66.56 34.98 66.09 36.46 64.54 37.03 C 59.90 32.24 53.51 28.22 52.62 20.98 Z" />
<path fill="#582f62" opacity="1.00" d=" M 236.25 38.00 C 236.95 31.63 228.31 27.85 229.75 21.26 C 238.99 28.38 246.46 37.62 252.42 47.60 C 256.73 53.62 260.16 60.20 263.25 66.92 C 264.59 70.00 265.85 73.16 266.26 76.52 C 265.09 74.69 263.87 72.91 262.65 71.12 C 260.37 67.55 257.89 64.12 255.37 60.72 C 253.71 58.46 251.92 56.32 250.25 54.07 C 246.41 48.05 241.00 43.27 236.25 38.00 Z" />
<path fill="#ef4f54" opacity="1.00" d=" M 58.64 23.50 C 61.43 24.52 64.12 25.77 66.72 27.20 C 66.78 29.30 66.82 31.40 66.88 33.50 C 63.79 30.47 60.86 27.24 58.64 23.50 Z" />
<path fill="#311a44" opacity="1.00" d=" M 38.02 39.96 C 42.25 35.21 47.35 30.65 53.39 28.57 L 53.31 30.23 L 53.27 30.72 C 48.71 34.30 44.81 38.67 40.02 41.97 C 39.35 41.30 38.69 40.63 38.02 39.96 Z" />
<path fill="#312d1b" opacity="0.69" d=" M 53.31 30.23 C 53.30 30.35 53.28 30.60 53.27 30.72 L 53.31 30.23 Z" />
<path fill="#c5577b" opacity="1.00" d=" M 68.69 30.99 C 72.91 35.99 77.54 40.62 82.42 44.99 C 77.19 43.24 74.01 38.34 69.24 35.77 C 68.99 34.19 68.81 32.59 68.69 30.99 Z" />
<path fill="#c05379" opacity="1.00" d=" M 179.56 34.37 L 180.66 34.38 C 178.65 37.56 175.05 39.03 171.94 40.88 C 168.49 42.68 165.23 45.12 161.28 45.68 C 167.33 41.84 173.51 38.19 179.56 34.37 Z" />
<path fill="#6f2a49" opacity="1.00" d=" M 180.66 34.38 L 180.75 34.26 C 181.79 35.78 183.09 37.08 184.21 38.54 C 172.39 43.05 161.48 49.53 150.25 55.28 C 147.88 56.30 145.35 58.94 142.78 56.98 C 149.01 53.33 154.96 49.12 161.28 45.68 C 165.23 45.12 168.49 42.68 171.94 40.88 C 175.05 39.03 178.65 37.56 180.66 34.38 Z" />
<path fill="#7e344c" opacity="1.00" d=" M 69.24 35.77 C 74.01 38.34 77.19 43.24 82.42 44.99 C 87.54 47.88 91.69 52.20 96.59 55.44 C 97.83 56.16 98.44 57.26 98.42 58.75 C 87.39 53.22 77.57 45.71 67.24 39.04 C 67.91 37.96 68.58 36.87 69.24 35.77 Z" />
<path fill="#ad68b0" opacity="1.00" d=" M 228.41 39.59 C 229.86 37.18 232.72 37.26 235.17 37.02 L 236.25 38.00 C 241.00 43.27 246.41 48.05 250.25 54.07 C 249.53 54.56 248.81 55.05 248.05 55.48 L 247.65 54.22 C 247.17 55.07 246.70 55.94 246.25 56.81 C 246.09 56.19 245.77 54.94 245.61 54.32 C 245.80 53.83 246.16 52.87 246.35 52.39 C 243.92 53.66 241.65 55.24 239.79 57.25 C 238.87 50.02 232.58 45.12 228.41 39.59 Z" />
<path fill="#4c2959" opacity="1.00" d=" M 27.95 49.83 C 30.95 46.20 34.55 43.13 38.02 39.96 C 38.69 40.63 39.35 41.30 40.02 41.97 C 36.85 45.27 34.31 49.08 32.04 53.04 C 30.67 51.97 29.31 50.90 27.95 49.83 Z" />
<path fill="#66376d" opacity="1.00" d=" M 15.37 66.39 C 19.49 60.82 23.44 55.10 27.95 49.83 C 29.31 50.90 30.67 51.97 32.04 53.04 C 31.56 54.40 31.12 55.77 30.57 57.10 C 28.09 60.61 24.72 63.34 21.93 66.57 C 19.41 69.46 17.18 72.59 15.15 75.83 C 12.78 78.22 10.15 80.32 7.54 82.43 C 8.62 76.48 12.19 71.40 15.37 66.39 Z" />
<path fill="#000000" opacity="0.06" d=" M 100.34 50.88 C 103.41 53.52 106.68 55.95 110.27 57.85 C 109.93 58.40 109.24 59.49 108.90 60.04 C 104.95 58.36 99.72 56.10 100.34 50.88 Z" />
<path fill="#bd5277" opacity="1.00" d=" M 114.35 56.69 C 116.60 53.85 120.03 52.52 123.57 52.29 C 124.17 53.01 124.79 53.73 125.41 54.45 C 125.62 56.68 126.03 58.89 126.66 61.05 C 125.91 62.10 125.14 63.15 124.40 64.20 C 124.78 61.42 124.84 58.61 124.61 55.82 C 123.75 54.97 122.89 54.12 122.03 53.28 C 120.17 54.56 117.71 55.43 116.76 57.66 C 115.18 61.18 116.05 65.14 116.14 68.84 C 118.38 68.49 120.44 67.56 122.34 66.35 C 120.38 68.09 118.53 69.95 116.71 71.83 C 115.47 71.22 114.23 70.61 113.00 69.98 C 112.74 69.53 112.23 68.63 111.97 68.18 L 111.85 67.43 C 112.39 63.79 112.63 60.02 114.35 56.69 Z" />
<path fill="#552251" opacity="1.00" d=" M 140.73 55.28 C 140.88 53.71 141.79 53.11 143.47 53.47 C 142.83 54.52 141.91 55.13 140.73 55.28 Z" />
<path fill="#e1c6a0" opacity="1.00" d=" M 239.79 57.25 C 241.65 55.24 243.92 53.66 246.35 52.39 C 246.16 52.87 245.80 53.83 245.61 54.32 C 243.34 56.52 240.84 58.46 238.35 60.40 C 238.60 59.23 239.08 58.19 239.79 57.25 Z" />
<path fill="#bb7faf" opacity="1.00" d=" M 246.25 56.81 C 246.70 55.94 247.17 55.07 247.65 54.22 L 248.05 55.48 C 248.81 55.05 249.53 54.56 250.25 54.07 C 251.92 56.32 253.71 58.46 255.37 60.72 C 254.91 61.19 254.00 62.14 253.55 62.61 C 250.41 62.32 247.57 60.97 245.02 59.17 C 245.33 58.58 245.95 57.40 246.25 56.81 Z" />
<path fill="#754577" opacity="1.00" d=" M 238.35 60.40 C 240.84 58.46 243.34 56.52 245.61 54.32 C 245.77 54.94 246.09 56.19 246.25 56.81 C 245.95 57.40 245.33 58.58 245.02 59.17 C 244.62 60.00 244.23 60.82 243.84 61.65 C 242.00 61.26 240.17 60.84 238.35 60.40 Z" />
<path fill="#ffff95" opacity="1.00" d=" M 111.85 67.43 C 109.35 63.69 111.56 59.51 114.35 56.69 C 112.63 60.02 112.39 63.79 111.85 67.43 Z" />
<path fill="#887c1f" opacity="1.00" d=" M 119.11 57.72 C 120.10 57.49 120.90 55.99 122.02 56.94 C 122.85 58.87 122.22 61.00 122.08 62.99 C 121.31 61.12 120.30 59.36 119.11 57.72 Z" />
<path fill="#aa63af" opacity="1.00" d=" M 21.93 66.57 C 24.72 63.34 28.09 60.61 30.57 57.10 C 31.64 58.72 31.90 60.60 31.99 62.49 C 30.44 62.51 28.89 62.53 27.34 62.56 C 27.75 64.72 28.52 66.78 29.36 68.81 C 27.29 68.53 25.03 68.37 23.38 69.91 C 22.90 68.80 22.41 67.68 21.93 66.57 Z" />
<path fill="#5e2241" opacity="1.00" d=" M 100.51 58.49 C 103.16 59.20 105.70 60.27 108.25 61.29 C 108.28 61.82 108.34 62.88 108.37 63.41 C 105.63 62.11 101.29 62.04 100.51 58.49 Z" />
<path fill="#d2d348" opacity="1.00" d=" M 117.86 66.03 C 117.86 63.22 117.68 60.28 119.11 57.72 C 120.30 59.36 121.31 61.12 122.08 62.99 C 120.77 64.13 119.36 65.16 117.86 66.03 Z" />
<path fill="#762a55" opacity="1.00" d=" M 136.47 59.49 C 137.85 59.36 139.16 60.08 140.35 60.69 C 142.11 63.15 139.01 68.04 136.03 66.14 C 133.09 65.01 133.18 60.03 136.47 59.49 Z" />
<path fill="#cc93b2" opacity="1.00" d=" M 245.02 59.17 C 247.57 60.97 250.41 62.32 253.55 62.61 C 254.00 62.14 254.91 61.19 255.37 60.72 C 257.89 64.12 260.37 67.55 262.65 71.12 C 259.09 71.95 255.85 69.77 252.31 69.84 C 253.07 68.60 253.64 67.26 254.13 65.89 C 251.47 68.68 249.36 71.94 246.97 74.95 C 246.87 70.34 245.40 65.94 243.84 61.65 C 244.23 60.82 244.62 60.00 245.02 59.17 Z" />
<path fill="#782f4d" opacity="1.00" d=" M 226.91 65.83 C 228.19 65.14 229.57 64.80 231.03 64.73 C 229.55 75.16 223.05 84.46 214.92 90.93 C 210.53 94.51 205.88 98.06 200.33 99.59 C 201.20 98.06 202.69 97.09 204.08 96.09 C 203.73 92.30 206.69 89.66 207.41 86.18 C 216.43 81.25 224.06 73.98 229.76 65.46 C 229.05 65.56 227.62 65.74 226.91 65.83 Z" />
<path fill="#351226" opacity="1.00" d=" M 125.79 70.21 C 125.93 67.13 129.94 67.23 132.05 65.93 C 130.79 68.36 128.49 69.85 125.79 70.21 Z" />
<path fill="#c05379" opacity="1.00" d=" M 189.30 86.25 C 200.46 77.23 213.56 70.90 226.91 65.83 C 227.62 65.74 229.05 65.56 229.76 65.46 C 224.06 73.98 216.43 81.25 207.41 86.18 C 202.01 88.97 196.56 91.66 191.03 94.18 C 190.79 93.59 190.32 92.40 190.09 91.81 C 185.81 91.79 182.47 94.77 179.01 96.86 C 176.02 98.66 173.63 101.19 171.16 103.60 C 170.66 103.28 169.67 102.65 169.18 102.33 C 175.44 96.42 182.52 91.52 189.30 86.25 Z" />
<path fill="#ffff95" opacity="1.00" d=" M 246.97 74.95 C 249.36 71.94 251.47 68.68 254.13 65.89 C 253.64 67.26 253.07 68.60 252.31 69.84 C 251.62 70.90 250.89 71.93 250.26 73.02 C 249.08 75.43 247.41 77.59 246.64 80.20 C 246.67 78.48 245.89 76.48 246.97 74.95 Z" />
<path fill="#b975b4" opacity="1.00" d=" M 15.15 75.83 C 17.18 72.59 19.41 69.46 21.93 66.57 C 22.41 67.68 22.90 68.80 23.38 69.91 C 21.53 74.51 18.80 78.78 17.77 83.69 L 17.58 83.60 C 15.98 82.78 14.37 81.96 12.78 81.13 C 13.59 79.37 14.34 77.59 15.15 75.83 Z" />
<path fill="#7c324a" opacity="1.00" d=" M 130.71 69.57 C 131.50 69.12 132.28 68.66 133.06 68.19 C 134.63 68.38 136.23 68.47 137.74 68.99 C 140.20 73.16 141.41 78.14 140.77 82.96 C 140.19 84.35 138.74 85.08 137.73 86.10 C 137.24 84.57 136.31 83.10 136.32 81.47 C 136.88 80.55 137.45 79.65 138.04 78.75 C 137.49 76.25 137.20 73.49 135.46 71.48 C 134.30 70.06 132.32 70.06 130.71 69.57 Z" />
<path fill="#ffff95" opacity="1.00" d=" M 121.21 73.04 C 121.84 71.67 121.79 69.19 123.75 69.13 C 123.11 70.53 122.84 72.42 121.21 73.04 Z" />
<path fill="#dcacb2" opacity="1.00" d=" M 252.31 69.84 C 255.85 69.77 259.09 71.95 262.65 71.12 C 263.87 72.91 265.09 74.69 266.26 76.52 C 266.76 77.61 267.08 78.77 267.47 79.91 C 266.80 80.77 266.13 81.63 265.47 82.49 C 260.98 81.40 256.62 79.84 252.15 78.67 L 251.94 78.61 C 251.30 76.77 250.73 74.91 250.26 73.02 C 250.89 71.93 251.62 70.90 252.31 69.84 Z" />
<path fill="#313210" opacity="0.65" d=" M 24.89 71.44 C 24.72 69.69 26.77 69.17 27.73 70.47 C 27.04 71.63 26.09 71.95 24.89 71.44 Z" />
<path fill="#b24c6f" opacity="1.00" d=" M 130.71 69.57 C 132.32 70.06 134.30 70.06 135.46 71.48 C 137.20 73.49 137.49 76.25 138.04 78.75 C 137.45 79.65 136.88 80.55 136.32 81.47 C 135.16 77.15 131.72 73.88 130.71 69.57 Z" />
<path fill="#b24c6f" opacity="1.00" d=" M 127.96 71.58 C 130.67 73.01 130.93 76.60 132.43 79.03 C 130.15 77.12 128.68 74.44 127.96 71.58 Z" />
<path fill="#8b5888" opacity="1.00" d=" M 7.54 82.43 C 10.15 80.32 12.78 78.22 15.15 75.83 C 14.34 77.59 13.59 79.37 12.78 81.13 C 10.57 85.37 9.03 89.94 6.44 93.98 C 6.46 90.63 6.55 87.28 6.78 83.94 C 6.97 83.56 7.35 82.81 7.54 82.43 Z" />
<path fill="#e7c1ae" opacity="1.00" d=" M 252.15 78.67 C 256.62 79.84 260.98 81.40 265.47 82.49 C 266.13 81.63 266.80 80.77 267.47 79.91 C 268.38 84.13 269.64 88.29 270.18 92.59 C 269.65 93.89 269.08 95.17 268.51 96.45 C 267.65 96.05 266.79 95.64 265.94 95.23 C 264.57 96.02 263.22 96.84 261.91 97.73 C 261.22 98.36 260.54 99.01 259.88 99.67 C 259.44 98.61 259.00 97.55 258.57 96.49 C 259.07 95.02 259.57 93.54 260.06 92.06 C 258.13 93.13 256.19 94.19 254.38 95.46 C 254.72 89.76 253.61 84.15 252.15 78.67 Z" />
<path fill="#ca93b0" opacity="1.00" d=" M 12.78 81.13 C 14.37 81.96 15.98 82.78 17.58 83.60 C 15.86 87.46 19.40 90.97 19.59 94.85 C 16.18 95.16 12.80 95.86 9.67 97.28 C 9.38 97.11 8.80 96.76 8.51 96.59 C 7.88 97.44 7.26 98.30 6.64 99.17 C 6.52 97.44 6.44 95.71 6.44 93.98 C 9.03 89.94 10.57 85.37 12.78 81.13 Z" />
<path fill="#ffff95" opacity="1.00" d=" M 3.82 114.03 C 2.93 103.94 3.19 93.53 6.78 83.94 C 6.55 87.28 6.46 90.63 6.44 93.98 C 6.44 95.71 6.52 97.44 6.64 99.17 C 6.95 102.84 7.38 106.49 7.88 110.14 C 9.22 118.60 11.51 127.04 15.77 134.52 C 16.57 136.21 17.09 138.00 17.71 139.75 C 9.89 133.46 5.56 123.74 3.82 114.03 Z" />
<path fill="#64204c" opacity="1.00" d=" M 146.95 87.12 C 148.22 86.55 149.36 85.09 150.80 85.22 C 152.81 87.45 154.49 90.03 155.29 92.95 C 152.66 96.78 151.41 101.32 151.15 105.92 C 151.91 107.01 152.68 108.09 153.44 109.18 C 152.43 110.58 151.47 112.04 150.31 113.32 C 149.21 114.03 148.13 112.80 147.11 112.49 C 147.34 108.66 146.91 104.80 145.22 101.32 C 148.72 97.54 148.82 92.10 147.05 87.50 L 146.95 87.12 Z" />
<path fill="#b24c6f" opacity="1.00" d=" M 136.90 89.86 C 138.55 87.89 141.18 87.18 143.33 85.90 C 142.29 88.51 139.45 89.49 136.90 89.86 Z" />
<path fill="#6c274b" opacity="1.00" d=" M 191.03 94.18 C 196.56 91.66 202.01 88.97 207.41 86.18 C 206.69 89.66 203.73 92.30 204.08 96.09 C 202.69 97.09 201.20 98.06 200.33 99.59 L 200.22 99.76 C 195.77 101.78 191.35 103.86 186.90 105.86 C 187.72 101.83 188.70 97.64 191.03 94.18 Z" />
<path fill="#c5577b" opacity="1.00" d=" M 136.99 92.26 C 141.10 92.46 143.69 89.13 147.05 87.50 C 148.82 92.10 148.72 97.54 145.22 101.32 C 141.93 101.59 138.64 101.86 135.35 102.01 C 135.80 99.75 135.75 97.44 135.41 95.18 L 135.39 94.98 C 135.91 94.07 136.45 93.16 136.99 92.26 Z" />
<path fill="#f04f53" opacity="1.00" d=" M 159.35 92.83 C 160.02 91.72 161.24 91.04 162.16 90.13 C 162.11 92.37 161.95 94.61 161.88 96.85 C 159.43 98.89 156.84 100.76 154.01 102.24 C 154.10 101.57 154.28 100.24 154.36 99.57 L 154.59 99.49 C 155.13 99.31 156.21 98.94 156.75 98.75 C 157.78 96.85 158.54 94.83 159.35 92.83 Z" />
<path fill="#916b7d" opacity="1.00" d=" M 254.38 95.46 C 256.19 94.19 258.13 93.13 260.06 92.06 C 259.57 93.54 259.07 95.02 258.57 96.49 C 256.76 96.88 254.97 97.35 253.18 97.78 C 253.48 97.20 254.08 96.04 254.38 95.46 Z" />
<path fill="#ffff95" opacity="1.00" d=" M 154.59 99.49 C 155.43 96.82 156.96 94.37 159.35 92.83 C 158.54 94.83 157.78 96.85 156.75 98.75 C 156.21 98.94 155.13 99.31 154.59 99.49 Z" />
<path fill="#f2d4ab" opacity="1.00" d=" M 268.51 96.45 C 269.08 95.17 269.65 93.89 270.18 92.59 C 271.94 104.01 271.02 116.84 263.86 126.37 C 264.42 116.83 266.36 106.69 261.91 97.73 C 263.22 96.84 264.57 96.02 265.94 95.23 C 266.79 95.64 267.65 96.05 268.51 96.45 Z" />
<path fill="#875880" opacity="1.00" d=" M 9.67 97.28 C 12.80 95.86 16.18 95.16 19.59 94.85 C 19.80 95.79 20.02 96.73 20.27 97.66 C 18.62 97.87 16.97 98.09 15.32 98.31 C 14.97 98.72 14.27 99.55 13.92 99.97 C 12.51 99.05 11.10 98.15 9.67 97.28 Z" />
<path fill="#ee4f53" opacity="1.00" d=" M 172.20 105.87 C 176.05 100.98 181.82 98.26 187.02 95.07 C 186.48 96.86 185.90 98.63 185.33 100.41 L 184.99 100.54 C 180.91 102.14 176.82 103.76 172.83 105.60 L 172.20 105.87 Z" />
<path fill="#d8acac" opacity="1.00" d=" M 6.64 99.17 C 7.26 98.30 7.88 97.44 8.51 96.59 C 8.80 96.76 9.38 97.11 9.67 97.28 C 11.10 98.15 12.51 99.05 13.92 99.97 C 13.55 101.58 13.38 103.28 12.78 104.82 C 11.13 106.58 9.46 108.31 7.88 110.14 C 7.38 106.49 6.95 102.84 6.64 99.17 Z" />
<path fill="#ffff94" opacity="1.00" d=" M 133.95 104.63 C 133.73 101.41 133.56 98.01 135.41 95.18 C 135.75 97.44 135.80 99.75 135.35 102.01 C 134.90 102.89 134.43 103.76 133.95 104.63 Z" />
<path fill="#552351" opacity="1.00" d=" M 154.01 102.24 C 156.84 100.76 159.43 98.89 161.88 96.85 C 162.25 102.19 159.72 107.50 155.76 111.02 C 154.79 108.18 154.25 105.22 154.01 102.24 Z" />
<path fill="#ffff94" opacity="1.00" d=" M 259.88 99.67 C 260.54 99.01 261.22 98.36 261.91 97.73 C 266.36 106.69 264.42 116.83 263.86 126.37 C 262.18 129.21 259.88 131.62 257.54 133.92 C 260.76 122.93 262.88 110.92 259.88 99.67 Z" />
<path fill="#1d1d11" opacity="0.52" d=" M 122.22 102.15 C 121.62 100.25 125.16 99.43 126.20 100.79 C 124.97 101.50 123.66 102.11 122.22 102.15 Z" />
<path fill="#732b4d" opacity="1.00" d=" M 135.35 102.01 C 138.64 101.86 141.93 101.59 145.22 101.32 C 146.91 104.80 147.34 108.66 147.11 112.49 C 142.10 111.18 137.27 108.70 133.95 104.63 C 134.43 103.76 134.90 102.89 135.35 102.01 Z" />
<path fill="#642651" opacity="1.00" d=" M 172.83 105.60 C 176.82 103.76 180.91 102.14 184.99 100.54 C 184.62 102.68 184.14 104.80 183.61 106.91 C 179.94 107.98 175.40 109.61 172.83 105.60 Z" />
<path fill="#df4b52" opacity="1.00" d=" M 126.43 102.76 C 127.75 102.14 129.29 102.19 130.70 101.87 C 130.44 105.72 127.76 108.56 125.11 111.05 C 123.54 108.63 120.35 107.46 119.27 104.85 L 120.10 105.06 C 120.55 105.17 121.45 105.40 121.90 105.51 C 123.63 105.01 125.07 103.91 126.43 102.76 Z" />
<path fill="#ffff95" opacity="1.00" d=" M 120.10 105.06 C 122.10 104.02 124.20 103.16 126.43 102.76 C 125.07 103.91 123.63 105.01 121.90 105.51 C 121.45 105.40 120.55 105.17 120.10 105.06 Z" />
<path fill="#552251" opacity="1.00" d=" M 163.77 103.88 C 165.02 105.75 166.16 107.69 167.12 109.72 C 164.81 110.82 162.64 112.38 160.09 112.88 C 159.32 109.56 163.18 107.14 163.77 103.88 Z" />
<path fill="#ebc6ad" opacity="1.00" d=" M 7.88 110.14 C 9.46 108.31 11.13 106.58 12.78 104.82 C 12.29 109.57 11.78 114.36 12.45 119.13 C 12.96 124.38 14.80 129.36 15.77 134.52 C 11.51 127.04 9.22 118.60 7.88 110.14 Z" />
<path fill="#3f1925" opacity="1.00" d=" M 169.03 106.48 C 170.49 106.22 172.61 108.21 171.79 109.70 C 170.15 110.57 168.42 107.89 169.03 106.48 Z" />
<path fill="#843051" opacity="1.00" d=" M 182.63 110.97 C 182.45 112.64 182.29 114.32 182.20 116.00 C 184.68 118.99 185.17 123.07 187.18 126.36 C 185.23 126.49 182.94 125.91 181.39 127.40 C 180.54 125.01 179.59 122.56 179.68 119.99 C 180.00 116.80 181.66 113.98 182.63 110.97 Z" />
<path fill="#522152" opacity="1.00" d=" M 153.16 114.42 C 154.86 113.90 156.55 113.34 158.23 112.75 C 158.88 114.18 159.52 115.62 160.17 117.05 C 158.29 117.19 156.40 117.33 154.52 117.46 C 154.25 118.09 153.73 119.36 153.46 119.99 C 153.31 118.14 153.25 116.28 153.16 114.42 Z" />
<path fill="#722a51" opacity="1.00" d=" M 117.45 123.70 C 119.78 120.79 121.23 117.27 123.72 114.49 C 124.53 120.41 122.21 126.48 117.76 130.42 C 117.60 128.18 117.51 125.94 117.45 123.70 Z" />
<path fill="#552252" opacity="1.00" d=" M 146.14 115.32 C 147.28 115.40 148.42 115.48 149.56 115.56 C 149.15 119.12 148.86 122.74 147.66 126.15 C 146.41 125.40 145.16 124.65 143.91 123.90 C 145.06 121.16 145.79 118.27 146.14 115.32 Z" />
<path fill="#6f2a51" opacity="1.00" d=" M 154.52 117.46 C 156.40 117.33 158.29 117.19 160.17 117.05 C 160.97 118.48 161.73 119.91 162.47 121.37 C 159.92 122.33 157.22 122.73 154.51 122.86 C 154.16 121.91 153.81 120.95 153.46 119.99 C 153.73 119.36 154.25 118.09 154.52 117.46 Z" />
<path fill="#a53a52" opacity="1.00" d=" M 154.51 122.86 C 157.22 122.73 159.92 122.33 162.47 121.37 C 164.13 123.87 166.10 126.14 167.90 128.54 C 166.45 130.33 165.03 132.14 163.62 133.97 C 159.88 130.91 156.29 127.48 154.51 122.86 Z" />
<path fill="#dd4a52" opacity="1.00" d=" M 107.37 136.49 C 110.50 132.04 114.50 128.28 117.45 123.70 C 117.51 125.94 117.60 128.18 117.76 130.42 L 117.79 130.89 C 112.58 136.68 106.60 142.82 98.87 144.86 C 101.84 142.22 105.06 139.78 107.37 136.49 Z" />
<path fill="#7d2e51" opacity="1.00" d=" M 143.91 123.90 C 145.16 124.65 146.41 125.40 147.66 126.15 C 145.09 130.34 142.91 135.24 138.39 137.70 C 140.80 133.33 141.85 128.42 143.91 123.90 Z" />
<path fill="#ce4652" opacity="1.00" d=" M 181.39 127.40 C 182.94 125.91 185.23 126.49 187.18 126.36 C 191.11 133.12 197.38 137.97 204.05 141.82 C 195.25 139.78 185.95 135.69 181.39 127.40 Z" />
<path fill="#d84952" opacity="1.00" d=" M 163.62 133.97 C 165.03 132.14 166.45 130.33 167.90 128.54 C 172.52 134.68 177.68 140.38 183.21 145.71 C 175.47 144.26 169.10 139.34 163.62 133.97 Z" />
</svg>
