<?xml version="1.0" encoding="UTF-8" ?>
<!DOCTYPE svg PUBLIC "-//W3C//DTD SVG 1.1//EN" "http://www.w3.org/Graphics/SVG/1.1/DTD/svg11.dtd">
<svg width="239pt" height="138pt" viewBox="0 0 239 138" version="1.1" xmlns="http://www.w3.org/2000/svg">
<path fill="#000000" opacity="1.00" d=" M 35.09 0.00 L 36.52 0.00 C 38.22 4.10 38.87 8.51 39.60 12.85 C 41.58 23.53 42.63 34.37 44.97 44.99 C 45.97 49.33 46.65 53.74 47.25 58.16 C 46.54 58.55 45.11 59.34 44.40 59.73 C 41.40 52.64 41.29 44.76 38.57 37.58 C 34.89 28.15 35.07 17.88 34.57 7.93 C 34.41 5.27 34.59 2.61 35.09 0.00 Z" />
<path fill="#000000" opacity="1.00" d=" M 13.71 22.93 C 14.20 23.47 15.20 24.54 15.70 25.08 C 20.56 33.30 24.63 42.01 30.15 49.83 C 33.49 54.48 36.25 59.50 39.31 64.32 L 38.59 64.77 C 37.83 65.78 37.95 66.72 38.96 67.57 C 40.15 67.03 40.52 65.72 40.99 64.62 C 42.26 63.36 43.55 62.12 44.82 60.86 C 45.76 60.89 46.71 60.84 47.64 60.67 C 50.48 60.25 53.20 59.30 55.98 58.63 C 58.37 58.19 60.56 59.44 62.66 60.38 C 64.58 56.04 67.47 52.04 71.63 49.63 C 73.03 48.98 74.74 47.21 76.20 48.69 C 77.84 52.42 77.28 56.63 77.37 60.59 C 78.03 60.75 79.34 61.09 80.00 61.26 C 81.99 56.50 83.04 51.08 86.65 47.20 C 86.91 41.22 85.66 34.40 89.35 29.20 C 92.32 37.79 93.57 46.83 95.71 55.64 C 97.86 50.31 99.19 44.62 102.30 39.71 C 103.24 41.32 103.65 43.14 103.61 44.99 C 103.71 51.71 103.56 58.48 102.39 65.12 C 102.98 65.34 104.17 65.77 104.76 65.98 C 116.23 57.77 129.07 51.85 141.71 45.72 C 150.75 41.74 159.34 36.86 168.20 32.51 C 170.18 33.56 172.04 34.95 173.05 37.02 C 176.80 44.14 179.20 51.90 183.01 59.00 C 186.31 65.02 189.57 71.07 193.07 76.98 C 198.92 86.83 207.99 94.08 215.40 102.66 C 224.29 111.92 233.45 121.34 239.00 133.09 L 239.00 134.89 C 226.80 127.05 216.99 116.15 205.60 107.27 C 196.30 100.85 190.74 90.72 184.63 81.52 C 180.14 74.91 177.13 67.48 173.98 60.19 C 171.55 54.31 168.74 48.57 167.05 42.42 C 153.15 53.01 137.39 60.95 120.83 66.47 C 117.09 67.71 113.41 69.11 109.70 70.42 C 115.43 76.92 123.95 82.46 124.90 91.78 C 123.03 94.02 119.86 94.23 117.18 94.70 C 111.35 95.54 105.43 95.20 99.61 94.40 C 100.84 102.43 101.57 110.54 101.98 118.66 C 108.32 118.00 114.66 117.27 121.05 117.52 C 129.97 116.41 138.94 114.86 147.97 115.54 C 153.98 115.99 160.01 115.55 166.01 115.93 C 167.80 116.16 170.26 116.02 171.02 118.08 C 170.65 120.75 167.48 121.40 165.44 122.46 C 155.99 125.64 145.87 125.84 136.01 126.43 C 124.49 126.03 113.82 131.24 102.50 132.52 C 102.25 134.35 101.95 136.17 101.72 138.00 L 101.36 138.00 C 100.83 136.25 100.62 134.11 99.07 132.91 C 95.72 132.55 92.35 132.91 89.00 133.12 C 75.71 134.13 62.37 133.36 49.11 132.29 C 46.57 131.97 43.70 131.90 41.73 130.03 C 41.20 127.25 44.34 125.68 46.43 124.65 C 55.82 120.85 65.94 119.41 75.88 117.76 L 77.28 117.32 C 77.24 117.77 77.14 118.67 77.09 119.13 C 75.76 119.18 75.11 119.84 75.15 121.11 C 75.71 122.98 77.71 121.23 77.61 119.98 C 78.21 118.44 78.74 116.88 79.14 115.28 C 80.56 109.22 83.36 103.62 84.84 97.59 C 82.08 101.02 80.87 105.33 79.41 109.41 C 79.32 108.51 79.13 106.72 79.03 105.82 C 80.08 101.16 81.38 96.54 83.39 92.19 C 80.46 91.60 77.60 90.70 74.85 89.53 C 73.92 94.69 72.78 99.86 70.75 104.72 C 68.95 108.90 67.45 113.55 63.60 116.35 C 62.07 110.45 60.79 104.48 59.36 98.55 C 56.16 103.31 53.25 108.27 49.73 112.81 C 45.59 118.71 41.88 124.98 36.76 130.11 C 36.21 128.16 35.31 126.08 36.13 124.06 C 38.31 116.63 42.02 109.74 46.66 103.57 C 50.68 97.70 53.52 91.03 58.56 85.90 C 55.71 84.88 53.07 83.39 50.71 81.50 C 48.75 82.13 46.73 82.55 44.69 82.77 C 44.26 81.62 43.83 80.47 43.40 79.32 C 40.57 79.61 37.73 79.69 34.90 79.64 C 36.68 88.38 37.03 97.38 36.32 106.26 C 36.17 108.69 35.17 110.93 33.98 113.01 C 24.45 102.24 19.34 87.28 21.24 72.92 C 21.45 69.94 23.81 67.08 27.01 67.35 C 31.00 68.08 34.60 70.14 38.50 71.24 C 38.12 69.30 37.37 67.46 36.31 65.79 C 30.84 56.60 24.40 48.00 19.64 38.40 C 17.40 33.37 13.35 28.75 13.71 22.93 M 169.16 35.88 C 169.41 39.57 169.60 43.36 171.13 46.79 C 174.07 54.13 177.34 61.34 180.50 68.58 C 183.98 76.66 189.18 83.80 193.57 91.37 C 194.30 92.40 194.86 93.89 196.37 93.93 C 198.23 98.84 202.42 102.40 206.54 105.42 C 210.69 108.46 214.24 112.21 218.34 115.32 L 218.38 115.61 C 223.66 120.06 228.48 125.06 234.09 129.10 C 229.66 121.63 224.04 114.91 217.97 108.72 C 211.72 101.73 205.39 94.80 198.99 87.95 C 192.15 80.64 187.94 71.46 183.01 62.87 C 180.91 59.27 179.17 55.49 177.50 51.68 C 176.79 48.42 174.91 45.57 173.86 42.42 C 172.88 39.89 172.45 36.33 169.16 35.88 M 89.98 59.36 C 90.51 67.65 91.67 75.91 92.60 84.18 C 92.97 86.88 93.44 89.58 93.43 92.31 L 93.81 92.50 C 94.55 101.50 96.24 110.39 97.44 119.34 C 98.14 122.13 97.87 125.43 99.92 127.68 C 100.24 116.49 98.72 105.36 97.52 94.25 C 96.82 89.42 96.69 84.51 95.76 79.72 C 95.49 70.28 94.55 60.77 92.45 51.54 L 92.55 51.24 C 91.13 46.51 90.63 41.56 89.17 36.84 C 88.29 44.31 89.24 51.90 89.98 59.36 M 149.80 44.77 C 133.06 52.45 116.39 60.46 101.11 70.82 L 101.12 68.92 L 100.77 68.36 C 100.07 68.42 98.65 68.52 97.95 68.58 L 97.11 67.70 C 96.96 69.62 96.94 71.72 99.05 72.55 C 98.58 72.82 97.64 73.35 97.16 73.62 C 97.42 74.50 97.69 75.38 97.95 76.26 C 98.09 78.05 98.25 79.85 98.42 81.65 C 98.70 84.90 99.04 88.14 99.57 91.36 C 106.85 91.64 114.41 92.82 121.53 90.83 L 122.60 91.26 C 121.03 83.66 114.64 78.83 109.58 73.52 C 107.59 71.06 104.30 73.03 101.85 73.48 C 101.47 73.15 100.70 72.48 100.32 72.15 C 104.31 70.67 107.94 68.40 111.88 66.79 C 113.35 66.21 114.85 65.73 116.40 65.42 L 116.51 64.65 C 117.84 64.85 118.96 64.54 119.86 63.71 C 120.98 63.70 122.00 63.40 122.91 62.81 C 124.39 62.29 125.90 61.83 127.42 61.44 L 127.47 60.63 C 131.17 60.23 134.42 58.14 137.82 56.76 C 139.21 56.20 140.58 55.58 141.90 54.86 C 142.39 54.60 143.37 54.08 143.86 53.82 C 144.34 53.55 145.31 53.01 145.80 52.74 C 152.93 49.44 159.17 44.61 165.65 40.22 C 165.67 38.88 165.69 37.53 165.70 36.18 C 160.18 38.65 155.35 42.37 149.80 44.77 M 96.55 59.11 C 96.66 61.58 95.70 65.95 99.45 65.68 C 101.01 59.19 101.27 52.47 101.62 45.82 C 98.79 49.69 98.11 54.66 96.55 59.11 M 70.68 53.36 C 67.57 56.44 64.85 60.03 63.18 64.10 C 60.44 71.79 61.43 80.14 61.48 88.15 C 61.64 90.56 61.87 92.97 61.99 95.39 C 62.86 100.44 63.57 105.53 64.78 110.52 C 68.31 105.79 69.68 99.80 71.26 94.20 C 71.93 90.50 72.63 86.81 73.27 83.11 C 73.63 76.03 75.51 68.88 74.41 61.82 C 74.75 58.28 74.68 54.72 74.44 51.18 C 73.17 51.89 71.92 52.62 70.68 53.36 M 82.40 60.58 C 82.28 60.86 82.03 61.43 81.91 61.72 C 83.91 62.21 85.89 62.73 87.87 63.29 C 87.71 60.80 87.52 58.32 87.16 55.85 C 86.90 54.52 86.65 53.19 86.40 51.86 C 84.56 54.51 84.04 57.81 82.40 60.58 M 53.88 61.40 C 55.84 62.27 58.85 63.16 58.47 65.94 C 58.46 69.07 55.43 70.48 52.88 71.25 C 51.43 73.31 50.29 75.71 48.08 77.09 C 46.92 78.16 44.95 78.77 45.07 80.73 C 50.09 79.90 55.01 76.91 57.48 72.35 C 58.65 68.60 60.66 65.10 61.75 61.40 C 59.29 60.38 56.14 59.43 53.88 61.40 M 39.88 73.49 C 40.47 75.07 40.93 77.41 43.04 77.52 C 46.03 76.79 48.36 74.51 50.25 72.19 C 51.57 71.47 50.25 69.70 49.30 70.63 C 48.70 69.45 47.24 68.35 47.83 66.86 C 48.62 64.78 50.56 63.46 51.90 61.76 C 45.19 60.84 39.32 66.88 39.88 73.49 M 50.91 64.03 C 49.38 64.98 47.95 66.97 49.22 68.70 C 51.10 69.74 53.46 69.35 55.24 68.29 C 56.08 67.42 57.54 65.35 55.77 64.63 C 54.30 63.80 52.53 63.53 50.91 64.03 M 77.55 63.49 C 77.62 66.60 77.56 69.71 77.18 72.81 C 76.53 77.21 76.08 81.65 75.60 86.07 C 77.18 88.34 80.61 88.52 83.03 89.64 C 85.82 90.25 88.55 91.07 91.26 91.95 C 90.46 87.55 90.53 82.98 89.41 78.66 C 88.84 74.19 88.49 69.70 88.10 65.21 C 84.62 64.42 81.09 63.93 77.55 63.49 M 24.01 72.05 C 23.11 76.57 23.34 81.31 24.31 85.81 C 24.59 88.20 25.31 90.57 26.21 92.80 C 26.42 95.73 27.71 98.40 29.15 100.90 C 29.73 103.59 31.41 106.39 33.57 108.24 C 34.19 102.20 35.30 96.09 34.32 90.03 C 33.46 84.98 33.19 79.77 31.38 74.92 C 31.06 72.75 29.84 70.87 28.17 69.49 C 26.63 70.00 24.34 70.03 24.01 72.05 M 32.22 72.16 C 33.01 74.03 33.83 75.89 34.62 77.77 C 36.09 77.77 37.56 77.77 39.03 77.79 C 38.73 76.31 38.45 74.84 38.18 73.36 C 36.21 72.86 34.23 72.43 32.22 72.16 M 52.10 80.17 C 54.25 81.58 56.57 82.69 59.03 83.47 C 59.06 80.04 59.13 76.59 59.60 73.19 C 57.81 76.19 55.10 78.43 52.10 80.17 M 51.99 98.79 C 50.91 100.64 49.67 102.41 48.78 104.36 C 45.83 107.27 43.88 110.96 41.91 114.56 C 40.26 118.59 38.61 122.64 37.36 126.82 C 40.18 123.90 42.38 120.47 44.55 117.05 C 45.77 115.15 47.01 113.27 48.31 111.42 C 50.40 108.53 52.38 105.56 54.28 102.54 C 56.99 98.15 60.36 93.64 59.05 88.14 C 56.06 91.22 54.07 95.08 51.99 98.79 M 85.21 110.07 C 84.20 112.82 83.19 115.57 82.00 118.24 C 86.45 118.35 90.92 118.58 95.35 117.95 C 93.57 109.42 93.16 100.62 90.99 92.20 C 90.73 98.61 87.36 104.19 85.21 110.07 Z" />
<path fill="#a28b54" opacity="1.00" d=" M 169.16 35.88 C 172.45 36.33 172.88 39.89 173.86 42.42 C 174.91 45.57 176.79 48.42 177.50 51.68 C 180.38 65.84 188.44 78.20 195.22 90.76 C 195.66 91.79 196.05 92.85 196.37 93.93 C 194.86 93.89 194.30 92.40 193.57 91.37 C 189.18 83.80 183.98 76.66 180.50 68.58 C 177.34 61.34 174.07 54.13 171.13 46.79 C 169.60 43.36 169.41 39.57 169.16 35.88 Z" />
<path fill="#fff996" opacity="1.00" d=" M 89.98 59.36 C 89.24 51.90 88.29 44.31 89.17 36.84 C 90.63 41.56 91.13 46.51 92.55 51.24 L 92.45 51.54 C 91.53 54.12 90.63 56.70 89.98 59.36 Z" />
<path fill="#fddd91" opacity="1.00" d=" M 149.80 44.77 C 155.35 42.37 160.18 38.65 165.70 36.18 C 165.69 37.53 165.67 38.88 165.65 40.22 C 159.17 44.61 152.93 49.44 145.80 52.74 C 145.31 53.01 144.34 53.55 143.86 53.82 C 143.37 54.08 142.39 54.60 141.90 54.86 C 140.58 55.58 139.21 56.20 137.82 56.76 C 134.42 58.14 131.17 60.23 127.47 60.63 L 127.42 61.44 C 125.90 61.83 124.39 62.29 122.91 62.81 C 122.00 63.40 120.98 63.70 119.86 63.71 C 118.96 64.54 117.84 64.85 116.51 64.65 L 116.40 65.42 C 114.85 65.73 113.35 66.21 111.88 66.79 C 107.94 68.40 104.31 70.67 100.32 72.15 C 100.52 71.82 100.91 71.15 101.11 70.82 C 116.39 60.46 133.06 52.45 149.80 44.77 Z" />
<path fill="#a28b53" opacity="1.00" d=" M 96.55 59.11 C 98.11 54.66 98.79 49.69 101.62 45.82 C 101.27 52.47 101.01 59.19 99.45 65.68 C 95.70 65.95 96.66 61.58 96.55 59.11 Z" />
<path fill="#bea466" opacity="1.00" d=" M 70.68 53.36 C 71.92 52.62 73.17 51.89 74.44 51.18 C 74.68 54.72 74.75 58.28 74.41 61.82 C 73.62 60.23 72.81 58.66 72.02 57.07 C 71.34 58.10 70.66 59.12 70.02 60.18 C 70.29 57.91 70.49 55.64 70.68 53.36 Z" />
<path fill="#fff996" opacity="1.00" d=" M 82.40 60.58 C 84.04 57.81 84.56 54.51 86.40 51.86 C 86.65 53.19 86.90 54.52 87.16 55.85 C 85.73 57.48 84.96 60.47 82.40 60.58 Z" />
<path fill="#e4c780" opacity="1.00" d=" M 92.45 51.54 C 94.55 60.77 95.49 70.28 95.76 79.72 C 94.76 81.24 93.68 82.70 92.60 84.18 C 91.67 75.91 90.51 67.65 89.98 59.36 C 90.63 56.70 91.53 54.12 92.45 51.54 Z" />
<path fill="#f5d68c" opacity="1.00" d=" M 195.22 90.76 C 188.44 78.20 180.38 65.84 177.50 51.68 C 179.17 55.49 180.91 59.27 183.01 62.87 C 187.94 71.46 192.15 80.64 198.99 87.95 C 205.39 94.80 211.72 101.73 217.97 108.72 C 217.86 110.93 217.97 113.14 218.34 115.32 C 214.24 112.21 210.69 108.46 206.54 105.42 C 202.42 102.40 198.23 98.84 196.37 93.93 C 196.05 92.85 195.66 91.79 195.22 90.76 Z" />
<path fill="#efd38a" opacity="1.00" d=" M 63.18 64.10 C 64.85 60.03 67.57 56.44 70.68 53.36 C 70.49 55.64 70.29 57.91 70.02 60.18 C 69.03 67.31 68.10 74.45 66.79 81.53 C 66.66 82.14 66.41 83.37 66.28 83.98 C 64.30 84.86 61.97 85.73 61.48 88.15 C 61.43 80.14 60.44 71.79 63.18 64.10 Z" />
<path fill="#baa062" opacity="1.00" d=" M 87.16 55.85 C 87.52 58.32 87.71 60.80 87.87 63.29 C 85.89 62.73 83.91 62.21 81.91 61.72 C 82.03 61.43 82.28 60.86 82.40 60.58 C 84.96 60.47 85.73 57.48 87.16 55.85 Z" />
<path fill="#9b8752" opacity="1.00" d=" M 70.02 60.18 C 70.66 59.12 71.34 58.10 72.02 57.07 C 72.81 58.66 73.62 60.23 74.41 61.82 C 75.51 68.88 73.63 76.03 73.27 83.11 C 72.45 82.35 71.64 81.59 70.83 80.84 C 69.48 81.07 68.13 81.30 66.79 81.53 C 68.10 74.45 69.03 67.31 70.02 60.18 Z" />
<path fill="#66623b" opacity="1.00" d=" M 47.25 58.16 C 47.40 58.99 47.53 59.83 47.64 60.67 C 46.71 60.84 45.76 60.89 44.82 60.86 C 44.72 60.58 44.50 60.01 44.40 59.73 C 45.11 59.34 46.54 58.55 47.25 58.16 Z" />
<path fill="#e36c47" opacity="1.00" d=" M 53.88 61.40 C 56.14 59.43 59.29 60.38 61.75 61.40 C 60.66 65.10 58.65 68.60 57.48 72.35 C 55.88 72.55 54.28 72.75 52.68 72.96 C 52.73 72.53 52.83 71.68 52.88 71.25 C 55.43 70.48 58.46 69.07 58.47 65.94 C 58.85 63.16 55.84 62.27 53.88 61.40 Z" />
<path fill="#f9d98d" opacity="1.00" d=" M 39.88 73.49 C 39.32 66.88 45.19 60.84 51.90 61.76 C 50.56 63.46 48.62 64.78 47.83 66.86 C 47.24 68.35 48.70 69.45 49.30 70.63 C 46.57 72.72 43.41 74.27 39.88 73.49 Z" />
<path fill="#e4c780" opacity="1.00" d=" M 39.31 64.32 C 39.73 64.40 40.57 64.54 40.99 64.62 C 40.52 65.72 40.15 67.03 38.96 67.57 C 37.95 66.72 37.83 65.78 38.59 64.77 L 39.31 64.32 Z" />
<path fill="#c25674" opacity="1.00" d=" M 50.91 64.03 C 52.53 63.53 54.30 63.80 55.77 64.63 C 57.54 65.35 56.08 67.42 55.24 68.29 C 53.46 69.35 51.10 69.74 49.22 68.70 C 47.95 66.97 49.38 64.98 50.91 64.03 Z" />
<path fill="#fddd90" opacity="1.00" d=" M 77.55 63.49 C 81.09 63.93 84.62 64.42 88.10 65.21 C 88.49 69.70 88.84 74.19 89.41 78.66 C 86.91 77.60 84.34 76.68 81.89 75.49 C 80.29 74.64 78.74 73.71 77.18 72.81 C 77.56 69.71 77.62 66.60 77.55 63.49 Z" />
<path fill="#352e1e" opacity="0.87" d=" M 97.11 67.70 L 97.95 68.58 C 97.98 69.13 98.04 70.23 98.07 70.78 C 99.31 70.64 100.34 69.86 101.12 68.92 L 101.11 70.82 C 100.91 71.15 100.52 71.82 100.32 72.15 C 100.70 72.48 101.47 73.15 101.85 73.48 C 100.49 73.65 99.11 73.70 97.75 73.75 C 97.80 74.38 97.90 75.63 97.95 76.26 C 97.69 75.38 97.42 74.50 97.16 73.62 C 97.64 73.35 98.58 72.82 99.05 72.55 C 96.94 71.72 96.96 69.62 97.11 67.70 Z" />
<path fill="#fddd90" opacity="1.00" d=" M 97.95 68.58 C 98.65 68.52 100.07 68.42 100.77 68.36 L 101.12 68.92 C 100.34 69.86 99.31 70.64 98.07 70.78 C 98.04 70.23 97.98 69.13 97.95 68.58 Z" />
<path fill="#f7f494" opacity="1.00" d=" M 24.01 72.05 C 24.34 70.03 26.63 70.00 28.17 69.49 C 25.64 74.60 25.75 80.40 24.31 85.81 C 23.34 81.31 23.11 76.57 24.01 72.05 Z" />
<path fill="#d5c888" opacity="1.00" d=" M 28.17 69.49 C 29.84 70.87 31.06 72.75 31.38 74.92 C 31.58 79.47 31.31 84.02 30.82 88.54 C 29.72 90.66 28.55 92.75 27.42 94.85 C 27.01 94.17 26.61 93.49 26.21 92.80 C 25.31 90.57 24.59 88.20 24.31 85.81 C 25.75 80.40 25.64 74.60 28.17 69.49 Z" />
<path fill="#816d3e" opacity="1.00" d=" M 49.30 70.63 C 50.25 69.70 51.57 71.47 50.25 72.19 C 48.36 74.51 46.03 76.79 43.04 77.52 C 40.93 77.41 40.47 75.07 39.88 73.49 C 43.41 74.27 46.57 72.72 49.30 70.63 Z" />
<path fill="#733837" opacity="1.00" d=" M 48.08 77.09 C 50.29 75.71 51.43 73.31 52.88 71.25 C 52.83 71.68 52.73 72.53 52.68 72.96 C 54.28 72.75 55.88 72.55 57.48 72.35 C 55.01 76.91 50.09 79.90 45.07 80.73 C 44.95 78.77 46.92 78.16 48.08 77.09 Z" />
<path fill="#897544" opacity="1.00" d=" M 32.22 72.16 C 34.23 72.43 36.21 72.86 38.18 73.36 C 38.45 74.84 38.73 76.31 39.03 77.79 C 37.56 77.77 36.09 77.77 34.62 77.77 C 33.83 75.89 33.01 74.03 32.22 72.16 Z" />
<path fill="#fadb8f" opacity="1.00" d=" M 101.85 73.48 C 104.30 73.03 107.59 71.06 109.58 73.52 C 114.64 78.83 121.03 83.66 122.60 91.26 L 121.53 90.83 C 113.97 87.39 105.83 85.47 98.42 81.65 C 98.25 79.85 98.09 78.05 97.95 76.26 C 97.90 75.63 97.80 74.38 97.75 73.75 C 99.11 73.70 100.49 73.65 101.85 73.48 Z" />
<path fill="#736136" opacity="1.00" d=" M 52.10 80.17 C 55.10 78.43 57.81 76.19 59.60 73.19 C 59.13 76.59 59.06 80.04 59.03 83.47 C 56.57 82.69 54.25 81.58 52.10 80.17 Z" />
<path fill="#726035" opacity="1.00" d=" M 75.60 86.07 C 76.08 81.65 76.53 77.21 77.18 72.81 C 78.74 73.71 80.29 74.64 81.89 75.49 C 82.30 78.85 83.65 81.95 84.63 85.16 C 85.37 86.88 83.71 88.24 83.03 89.64 C 80.61 88.52 77.18 88.34 75.60 86.07 Z" />
<path fill="#66623b" opacity="1.00" d=" M 31.38 74.92 C 33.19 79.77 33.46 84.98 34.32 90.03 C 35.30 96.09 34.19 102.20 33.57 108.24 C 31.41 106.39 29.73 103.59 29.15 100.90 C 31.27 97.12 30.58 92.69 30.82 88.54 C 31.31 84.02 31.58 79.47 31.38 74.92 Z" />
<path fill="#836f3f" opacity="1.00" d=" M 81.89 75.49 C 84.34 76.68 86.91 77.60 89.41 78.66 C 90.53 82.98 90.46 87.55 91.26 91.95 C 88.55 91.07 85.82 90.25 83.03 89.64 C 83.71 88.24 85.37 86.88 84.63 85.16 C 83.65 81.95 82.30 78.85 81.89 75.49 Z" />
<path fill="#ad955c" opacity="1.00" d=" M 92.60 84.18 C 93.68 82.70 94.76 81.24 95.76 79.72 C 96.69 84.51 96.82 89.42 97.52 94.25 C 96.28 93.67 95.04 93.09 93.81 92.50 L 93.43 92.31 C 93.44 89.58 92.97 86.88 92.60 84.18 Z" />
<path fill="#848154" opacity="1.00" d=" M 66.79 81.53 C 68.13 81.30 69.48 81.07 70.83 80.84 C 71.64 81.59 72.45 82.35 73.27 83.11 C 72.63 86.81 71.93 90.50 71.26 94.20 C 68.79 93.32 66.32 92.45 63.86 91.57 C 64.96 89.14 65.71 86.58 66.28 83.98 C 66.41 83.37 66.66 82.14 66.79 81.53 Z" />
<path fill="#847040" opacity="1.00" d=" M 98.42 81.65 C 105.83 85.47 113.97 87.39 121.53 90.83 C 114.41 92.82 106.85 91.64 99.57 91.36 C 99.04 88.14 98.70 84.90 98.42 81.65 Z" />
<path fill="#c5cd92" opacity="1.00" d=" M 61.48 88.15 C 61.97 85.73 64.30 84.86 66.28 83.98 C 65.71 86.58 64.96 89.14 63.86 91.57 C 63.26 92.85 62.62 94.12 61.99 95.39 C 61.87 92.97 61.64 90.56 61.48 88.15 Z" />
<path fill="#6bb193" opacity="1.00" d=" M 27.42 94.85 C 28.55 92.75 29.72 90.66 30.82 88.54 C 30.58 92.69 31.27 97.12 29.15 100.90 C 27.71 98.40 26.42 95.73 26.21 92.80 C 26.61 93.49 27.01 94.17 27.42 94.85 Z" />
<path fill="#827040" opacity="1.00" d=" M 51.99 98.79 C 54.07 95.08 56.06 91.22 59.05 88.14 C 60.36 93.64 56.99 98.15 54.28 102.54 C 53.52 101.29 52.76 100.04 51.99 98.79 Z" />
<path fill="#69815d" opacity="1.00" d=" M 63.86 91.57 C 66.32 92.45 68.79 93.32 71.26 94.20 C 69.68 99.80 68.31 105.79 64.78 110.52 C 63.57 105.53 62.86 100.44 61.99 95.39 C 62.62 94.12 63.26 92.85 63.86 91.57 Z" />
<path fill="#817042" opacity="1.00" d=" M 93.81 92.50 C 95.04 93.09 96.28 93.67 97.52 94.25 C 98.72 105.36 100.24 116.49 99.92 127.68 C 97.87 125.43 98.14 122.13 97.44 119.34 C 96.24 110.39 94.55 101.50 93.81 92.50 Z" />
<path fill="#a28b53" opacity="1.00" d=" M 79.41 109.41 C 80.87 105.33 82.08 101.02 84.84 97.59 C 83.36 103.62 80.56 109.22 79.14 115.28 C 79.14 114.65 79.14 113.39 79.15 112.76 C 79.24 111.64 79.33 110.52 79.41 109.41 Z" />
<path fill="#b69e62" opacity="1.00" d=" M 48.78 104.36 C 49.67 102.41 50.91 100.64 51.99 98.79 C 52.76 100.04 53.52 101.29 54.28 102.54 C 52.38 105.56 50.40 108.53 48.31 111.42 C 48.12 110.87 47.75 109.76 47.56 109.21 C 47.96 107.59 48.35 105.97 48.78 104.36 Z" />
<path fill="#ccc786" opacity="1.00" d=" M 41.91 114.56 C 43.88 110.96 45.83 107.27 48.78 104.36 C 48.35 105.97 47.96 107.59 47.56 109.21 C 47.75 109.76 48.12 110.87 48.31 111.42 C 47.01 113.27 45.77 115.15 44.55 117.05 C 43.67 116.22 42.79 115.39 41.91 114.56 Z" />
<path fill="#070604" opacity="0.59" d=" M 75.88 117.76 C 76.44 113.66 77.75 109.74 79.03 105.82 C 79.13 106.72 79.32 108.51 79.41 109.41 C 79.33 110.52 79.24 111.64 79.15 112.76 C 78.56 114.29 77.92 115.81 77.28 117.32 L 75.88 117.76 Z" />
<path fill="#e1dd9c" opacity="1.00" d=" M 217.97 108.72 C 224.04 114.91 229.66 121.63 234.09 129.10 C 228.48 125.06 223.66 120.06 218.38 115.61 L 218.34 115.32 C 217.97 113.14 217.86 110.93 217.97 108.72 Z" />
<path fill="#c5cd92" opacity="1.00" d=" M 77.28 117.32 C 77.92 115.81 78.56 114.29 79.15 112.76 C 79.14 113.39 79.14 114.65 79.14 115.28 C 78.74 116.88 78.21 118.44 77.61 119.98 L 77.09 119.13 C 77.14 118.67 77.24 117.77 77.28 117.32 Z" />
<path fill="#e1dd9c" opacity="1.00" d=" M 37.36 126.82 C 38.61 122.64 40.26 118.59 41.91 114.56 C 42.79 115.39 43.67 116.22 44.55 117.05 C 42.38 120.47 40.18 123.90 37.36 126.82 Z" />
</svg>
