<?xml version="1.0" encoding="UTF-8" ?>
<!DOCTYPE svg PUBLIC "-//W3C//DTD SVG 1.1//EN" "http://www.w3.org/Graphics/SVG/1.1/DTD/svg11.dtd">
<svg width="274pt" height="233pt" viewBox="0 0 274 233" version="1.1" xmlns="http://www.w3.org/2000/svg">
<path fill="#000000" opacity="1.00" d=" M 106.30 0.00 L 106.79 0.00 C 106.73 0.51 106.62 1.54 106.56 2.05 C 104.90 5.29 103.18 8.51 101.60 11.80 C 111.07 11.30 120.45 9.35 129.97 9.68 C 137.03 9.43 143.81 11.59 150.63 13.03 C 150.80 13.68 151.13 14.98 151.30 15.63 C 155.33 17.36 159.30 19.23 163.24 21.15 C 162.57 26.17 161.62 31.46 163.71 36.30 C 165.34 42.45 171.35 45.83 176.73 48.29 C 180.58 49.75 186.52 48.37 188.48 52.93 C 188.10 56.28 185.70 58.85 183.52 61.21 C 190.09 62.27 196.71 63.22 203.13 64.95 C 206.13 65.46 204.62 69.00 204.21 70.94 C 201.43 80.56 191.56 85.26 186.05 93.05 C 182.54 98.44 178.63 103.75 176.93 110.05 C 179.42 110.50 183.68 110.56 183.72 114.02 C 181.82 116.60 178.55 117.61 175.99 119.37 C 178.25 121.09 180.97 121.90 183.74 122.33 C 184.81 123.24 185.98 123.40 187.25 122.82 C 187.67 122.90 188.49 123.05 188.91 123.13 C 190.76 124.33 193.00 124.55 195.09 123.88 C 203.82 125.25 212.81 125.29 221.32 127.81 C 221.33 128.65 221.37 130.34 221.38 131.19 C 222.53 131.18 223.68 131.20 224.84 131.27 C 225.14 133.79 224.37 136.25 223.90 138.70 L 224.19 139.48 C 224.42 139.91 224.89 140.78 225.13 141.22 C 227.25 140.48 229.32 139.60 231.31 138.56 C 233.33 137.32 235.09 135.71 236.73 134.01 C 234.81 134.62 232.89 135.28 230.96 135.84 L 229.43 135.88 C 232.56 133.78 235.93 131.94 239.67 131.22 C 237.44 138.44 229.75 142.01 223.01 143.89 C 220.51 144.93 218.31 143.44 216.39 142.00 C 217.47 140.56 218.62 139.17 219.77 137.79 C 220.30 136.58 220.84 135.38 221.39 134.18 C 220.94 133.61 220.49 133.04 220.04 132.48 C 214.75 137.24 208.48 140.64 202.62 144.60 C 199.52 146.70 196.21 148.47 192.92 150.27 C 192.64 151.45 192.58 152.72 192.05 153.83 C 188.69 155.40 185.39 157.15 182.67 159.74 C 186.70 160.19 190.74 160.47 194.78 160.72 C 198.32 156.02 202.28 151.15 208.07 149.21 C 211.78 147.55 215.78 149.03 219.52 149.72 C 225.70 150.89 231.81 152.46 237.76 154.53 C 238.80 155.24 239.77 156.49 241.20 156.23 C 242.86 155.83 242.26 153.83 241.12 153.25 C 240.94 150.13 241.30 146.04 245.03 145.25 C 249.18 146.73 251.88 150.62 253.86 154.37 C 260.59 157.23 265.67 165.45 262.44 172.60 C 260.35 177.58 254.91 179.53 250.16 181.01 C 248.62 180.44 246.91 180.76 245.88 182.08 L 245.18 182.04 C 243.65 181.49 241.93 181.76 240.86 183.06 C 234.37 182.85 228.11 184.75 221.75 185.75 C 212.33 187.63 202.21 191.19 196.92 199.82 C 202.86 198.14 207.76 193.78 213.93 192.87 C 216.09 192.22 217.57 194.08 219.09 195.24 C 220.48 195.12 221.86 195.00 223.25 194.85 C 226.72 194.93 230.20 194.91 233.67 194.74 L 234.04 194.78 C 235.12 195.87 236.38 197.03 238.03 197.05 L 237.93 197.95 C 237.50 199.27 238.19 201.22 239.83 201.09 C 251.11 202.67 263.01 202.86 273.42 207.99 C 273.53 208.47 273.74 209.45 273.85 209.94 C 267.39 216.52 257.68 217.07 249.04 217.70 C 244.51 218.20 239.74 216.35 235.41 218.31 C 224.97 222.60 213.97 225.34 202.92 227.51 C 189.33 229.51 175.61 230.40 161.93 231.53 C 132.00 234.08 101.96 232.29 71.98 232.08 C 60.42 231.54 48.53 231.47 37.53 227.49 C 34.51 226.38 29.85 223.77 31.84 219.89 C 34.76 215.49 40.31 214.11 44.73 211.72 C 42.50 211.12 39.29 211.44 38.16 208.91 C 37.29 205.55 41.15 204.02 43.17 202.19 C 43.99 196.74 50.02 195.68 54.45 194.63 C 55.53 193.19 56.19 191.19 57.92 190.41 C 60.57 190.19 62.67 192.08 64.79 193.36 C 68.46 192.23 72.15 191.15 75.82 190.02 C 76.38 189.77 77.51 189.26 78.07 189.01 C 81.08 187.71 84.18 186.57 86.98 184.85 C 89.75 183.07 91.85 180.16 95.13 179.26 C 97.37 178.95 99.44 180.16 101.49 180.86 C 100.75 179.55 100.00 178.23 99.30 176.90 C 101.01 176.70 102.72 176.50 104.43 176.31 C 104.00 172.97 103.93 169.61 104.19 166.26 C 105.03 165.71 105.87 165.17 106.71 164.63 C 109.26 166.50 111.89 168.25 114.49 170.04 C 114.25 168.58 112.77 166.70 114.21 165.42 C 118.55 160.69 125.50 160.60 130.94 157.82 C 133.81 156.15 136.36 153.98 138.75 151.69 C 140.22 150.13 142.10 148.33 141.62 145.96 C 140.00 142.67 135.29 143.49 133.26 140.68 C 132.88 137.86 134.78 135.37 136.03 133.00 C 140.25 125.78 149.46 123.59 153.43 116.20 C 151.72 117.05 150.03 117.96 148.36 118.89 C 146.60 118.92 144.94 119.64 143.80 120.99 L 143.05 120.98 C 142.48 121.21 141.33 121.67 140.76 121.89 C 137.42 123.11 133.99 124.09 130.45 124.53 C 130.32 121.66 130.54 118.79 131.03 115.96 C 132.35 115.47 132.80 113.09 130.93 113.14 C 128.14 112.51 125.07 112.05 122.91 109.98 C 119.16 106.69 118.15 100.82 120.45 96.40 C 123.29 90.77 128.27 86.63 133.00 82.63 C 133.64 82.96 134.90 83.62 135.53 83.95 C 134.96 88.01 134.79 92.12 134.84 96.22 C 139.77 93.55 145.55 91.19 151.22 92.70 C 151.21 95.50 151.22 98.30 151.25 101.11 C 152.04 101.13 153.62 101.19 154.40 101.21 C 155.98 96.59 151.47 93.77 149.85 90.00 C 149.22 87.71 151.32 86.15 152.53 84.55 C 152.27 79.61 147.86 76.54 146.57 72.03 C 147.57 69.72 149.69 67.75 149.54 65.05 C 149.52 60.50 150.07 55.76 148.58 51.37 C 147.27 47.40 143.23 45.54 140.06 43.28 C 135.86 43.45 131.59 44.17 127.41 43.43 C 125.11 42.64 126.20 39.73 125.87 37.93 C 126.11 35.50 124.30 33.68 123.09 31.79 C 117.49 33.00 111.90 34.41 106.62 36.69 C 104.70 37.44 102.39 38.67 100.43 37.35 C 98.55 35.80 98.26 33.16 97.43 31.01 C 91.86 32.72 86.03 33.95 80.98 36.98 C 77.80 38.87 74.68 40.84 71.58 42.85 C 70.51 43.54 69.43 44.24 68.36 44.93 C 66.60 45.15 65.15 46.29 64.59 47.98 C 62.22 50.30 59.94 52.70 57.79 55.21 C 56.22 57.14 54.21 59.26 54.42 61.93 C 54.96 64.87 56.84 67.33 57.70 70.16 C 58.46 72.34 56.19 73.65 55.00 75.05 C 55.55 76.76 57.42 78.47 56.51 80.34 C 52.67 81.96 48.46 82.19 44.42 83.00 C 40.62 82.80 35.55 87.36 39.03 90.87 C 40.74 93.29 42.97 95.28 45.17 97.24 C 48.05 100.73 49.76 106.56 46.16 110.14 C 44.55 112.43 41.58 112.32 39.09 112.22 C 38.17 110.71 36.34 110.40 34.80 111.11 C 31.07 110.34 27.14 109.49 24.22 106.87 C 23.74 105.91 23.00 105.43 22.01 105.40 C 22.01 106.03 22.00 107.29 22.00 107.92 C 20.54 112.77 15.27 114.62 10.83 115.69 C 7.73 116.12 7.54 112.18 7.16 110.02 C 6.49 101.61 1.45 94.34 0.69 85.94 C 0.29 81.38 -0.57 76.60 0.64 72.13 C 4.83 67.80 11.15 65.56 17.12 66.50 C 20.64 67.00 24.16 67.58 27.72 67.40 C 27.58 65.93 27.50 64.46 27.49 62.99 C 29.04 60.86 31.27 59.39 33.29 57.75 C 36.42 47.14 44.98 39.30 52.77 31.90 C 55.61 29.48 58.61 27.23 61.57 24.96 C 62.96 24.96 63.92 24.31 64.43 23.02 C 65.56 22.33 66.69 21.64 67.82 20.95 C 72.87 18.01 77.75 14.77 82.82 11.86 C 90.35 7.34 98.44 3.89 106.30 0.00 M 81.96 15.96 C 78.50 18.30 74.67 20.08 71.47 22.79 C 69.91 23.85 68.34 24.89 66.79 25.97 C 64.92 27.31 63.07 28.67 61.25 30.07 L 61.27 30.27 C 59.10 31.72 57.17 33.48 55.33 35.32 C 52.63 37.40 50.20 39.79 47.72 42.11 C 43.12 47.52 36.98 52.72 36.25 60.22 C 35.20 61.09 33.99 61.73 32.84 62.44 C 29.87 62.71 30.68 67.49 29.75 69.69 C 26.61 70.05 23.44 70.29 20.28 70.01 C 17.14 68.84 13.77 69.03 10.49 69.20 L 10.39 69.47 C 7.68 70.58 4.63 71.58 2.85 74.07 C 1.26 87.57 10.03 99.22 11.97 112.20 C 15.33 111.25 19.18 109.05 18.71 104.97 C 20.07 104.00 21.44 103.05 22.82 102.11 C 26.25 104.70 30.26 106.32 34.38 107.44 C 37.31 107.60 41.80 110.06 43.61 106.67 C 44.14 103.23 42.14 100.06 40.18 97.41 C 39.28 96.36 38.41 95.31 37.51 94.26 C 35.29 91.49 33.45 88.00 35.03 84.44 L 35.71 84.60 C 36.57 83.81 37.42 83.02 38.28 82.23 C 39.52 82.46 40.52 81.29 41.62 80.90 C 45.71 80.77 49.69 79.71 53.69 78.91 C 53.11 77.67 52.07 76.54 52.02 75.13 C 52.73 73.31 53.91 71.73 54.96 70.11 C 52.91 66.19 50.30 61.63 51.98 57.11 C 52.69 54.93 55.03 53.35 55.37 51.18 C 57.41 49.21 59.35 47.12 61.27 45.03 C 62.32 44.23 63.42 43.47 64.49 42.69 C 65.03 42.12 66.11 40.98 66.65 40.42 C 68.85 39.02 71.06 37.34 73.38 36.00 C 77.35 34.55 80.97 32.21 85.11 31.20 C 89.57 30.11 94.12 29.48 98.59 28.48 L 99.11 27.77 C 100.90 27.78 102.70 27.80 104.49 27.87 C 103.68 29.05 102.56 29.93 101.41 30.75 C 101.66 31.47 101.92 32.20 102.19 32.92 C 105.04 32.29 107.99 31.61 110.43 29.91 C 115.99 30.80 122.60 26.45 127.40 30.70 C 130.65 33.20 130.12 37.51 129.94 41.11 C 133.95 40.84 138.01 40.70 141.91 39.62 C 144.76 41.86 146.84 44.92 149.54 47.33 C 153.68 53.71 151.02 61.59 152.27 68.64 C 151.28 69.80 150.31 70.97 149.34 72.14 C 152.05 75.56 155.05 78.89 156.24 83.20 C 156.26 85.68 154.85 87.63 153.19 89.31 C 154.27 91.03 155.46 92.68 156.83 94.19 C 158.66 97.58 157.64 101.35 156.50 104.78 C 154.18 104.25 151.83 103.95 149.47 103.84 C 148.96 103.55 147.96 102.98 147.46 102.69 C 147.44 100.45 147.36 98.21 147.22 95.97 C 146.61 96.04 145.39 96.18 144.78 96.25 L 144.67 96.47 C 141.66 97.30 137.58 97.44 135.90 100.51 C 134.76 100.01 132.65 100.36 132.37 98.77 C 131.97 95.18 132.27 91.55 131.98 87.95 C 128.14 91.98 123.49 96.14 122.86 102.01 C 123.43 107.74 129.54 111.35 134.88 111.46 C 135.30 114.58 135.25 117.73 134.95 120.86 C 136.94 120.18 138.94 119.47 140.92 118.74 C 143.85 118.52 146.53 117.26 149.06 115.85 C 151.83 114.65 156.30 111.95 157.99 116.02 C 157.71 119.16 154.49 120.74 153.06 123.33 C 149.62 125.81 146.10 128.17 142.56 130.51 C 139.40 132.48 138.15 136.16 136.46 139.27 C 137.67 139.72 138.90 140.12 140.15 140.47 C 141.84 141.15 144.01 141.31 145.05 143.00 C 145.03 145.13 145.50 147.43 144.56 149.43 C 143.27 151.58 141.49 153.38 139.97 155.38 C 133.13 159.36 126.97 165.49 118.53 165.85 C 117.95 166.71 116.91 167.57 117.33 168.74 C 117.79 170.76 120.26 171.14 121.69 172.26 C 120.66 173.21 119.57 174.38 118.02 174.26 C 113.48 174.42 110.35 170.74 106.88 168.44 C 106.82 170.58 106.90 172.74 107.20 174.87 C 107.44 176.27 107.73 177.66 107.95 179.06 C 106.71 179.26 105.47 179.46 104.23 179.67 C 104.03 180.69 103.83 181.72 103.64 182.75 C 100.31 184.93 96.94 180.86 93.57 182.59 C 91.41 184.20 89.54 186.19 87.31 187.72 C 82.62 190.27 77.24 191.31 72.70 194.10 C 67.81 194.92 62.63 197.08 57.98 194.15 C 57.61 195.23 57.23 196.31 56.86 197.39 C 53.61 197.99 50.46 199.00 47.32 200.02 C 47.10 201.50 47.21 203.08 46.59 204.48 C 44.87 205.61 43.08 206.64 41.48 207.95 C 49.43 210.11 57.82 208.39 65.69 210.88 C 66.32 211.12 67.59 211.60 68.22 211.84 C 68.62 213.20 68.98 214.57 69.38 215.94 C 71.12 216.43 72.87 216.90 74.62 217.36 C 80.00 217.28 85.55 218.34 90.75 216.47 C 92.80 217.47 94.86 218.95 97.26 218.63 C 99.64 218.21 101.54 216.31 104.00 216.17 C 107.17 215.92 110.36 216.05 113.54 216.09 C 115.98 216.59 118.47 216.61 120.95 216.42 C 129.30 215.88 137.67 216.55 146.02 216.17 C 152.37 215.61 158.71 214.87 164.97 213.67 C 167.48 213.07 169.80 214.44 172.06 215.29 C 174.86 212.65 177.88 209.53 182.01 209.43 C 186.32 209.95 189.86 212.95 194.11 213.72 C 196.78 213.56 199.35 212.28 202.05 212.67 C 204.89 212.77 208.18 214.17 210.56 211.93 C 211.89 212.84 213.34 213.55 214.77 214.30 C 216.70 214.58 218.63 214.86 220.56 215.16 C 222.58 214.93 224.60 214.67 226.61 214.30 C 227.76 213.58 228.94 212.90 230.04 212.11 C 232.94 211.51 236.00 210.98 238.85 212.07 C 245.05 214.15 251.66 213.35 258.05 213.04 C 261.33 212.87 264.54 211.81 267.16 209.82 C 262.89 208.19 258.68 206.06 254.01 205.94 C 248.00 205.08 241.48 205.39 236.12 202.12 C 236.20 200.56 235.66 199.07 235.31 197.58 C 231.29 197.38 227.25 197.03 223.27 197.70 C 220.23 197.78 216.59 198.48 214.86 195.28 C 208.16 196.38 202.79 201.02 196.33 202.90 C 195.41 202.25 194.45 201.68 193.48 201.12 C 192.02 202.47 190.52 203.77 188.95 204.98 C 191.59 198.83 197.00 194.61 202.03 190.49 C 206.27 187.56 210.86 185.03 215.89 183.77 C 221.24 182.19 226.84 181.80 232.25 180.47 C 234.31 180.08 236.52 179.97 238.32 178.78 C 242.15 178.56 245.98 178.03 249.75 177.34 C 250.14 177.09 250.94 176.61 251.33 176.37 C 254.72 175.70 258.20 173.47 259.08 169.97 C 259.20 167.50 258.04 165.16 257.10 162.93 C 255.86 160.01 252.19 159.14 250.95 156.20 C 249.68 153.76 249.01 150.55 246.02 149.66 C 244.51 152.73 246.17 155.53 248.07 157.92 C 245.01 158.29 241.94 157.97 238.89 157.69 C 234.46 157.03 230.06 155.33 225.59 155.38 C 220.52 154.16 215.32 152.62 210.05 153.19 C 205.98 153.58 203.48 157.11 200.98 159.91 C 198.95 162.47 196.00 163.98 193.50 166.01 C 193.01 165.95 192.04 165.85 191.55 165.80 C 191.12 165.34 190.28 164.41 189.86 163.95 C 186.27 163.23 182.60 162.71 179.37 160.86 C 180.08 159.13 180.77 157.36 182.04 155.94 C 186.57 153.10 188.58 147.76 193.00 144.72 C 194.08 144.26 195.11 143.67 196.16 143.14 C 198.36 142.04 200.53 140.88 202.62 139.57 C 207.70 136.34 213.65 134.33 217.81 129.80 C 213.12 128.49 208.18 128.19 203.33 128.09 C 199.51 127.58 195.68 127.10 191.84 126.74 C 189.07 126.40 186.32 125.94 183.58 125.45 C 179.95 124.82 175.01 124.57 173.74 120.32 C 171.63 117.43 175.45 115.87 177.26 114.26 C 176.31 114.18 174.41 114.02 173.46 113.94 C 173.77 107.86 176.42 102.29 179.19 96.98 C 179.92 95.56 180.60 94.11 181.26 92.65 L 181.66 92.60 C 182.86 90.93 184.10 89.28 185.39 87.67 C 186.60 86.29 187.81 84.90 189.02 83.51 L 189.45 83.90 C 194.25 79.04 200.15 74.16 201.04 66.94 C 198.05 66.15 194.97 65.77 191.88 65.70 C 188.21 64.66 183.88 64.78 180.86 62.23 C 177.88 59.17 181.98 55.88 183.37 53.12 C 178.27 54.69 173.10 53.08 168.63 50.54 C 158.79 44.96 156.46 32.36 157.81 22.01 C 156.66 21.41 155.51 20.81 154.36 20.22 C 151.08 18.74 148.01 16.64 144.44 15.88 C 142.21 12.97 138.25 13.10 134.97 12.68 C 129.42 12.37 123.77 12.12 118.29 13.14 C 111.39 12.89 104.59 14.70 97.71 14.27 C 98.33 11.80 99.03 9.34 99.76 6.90 C 93.20 8.43 87.45 12.20 81.96 15.96 M 222.30 138.39 C 220.80 138.35 220.89 140.78 222.34 140.75 C 223.86 140.81 223.77 138.32 222.30 138.39 Z" />
<path fill="#1b1323" opacity="1.00" d=" M 81.96 15.96 C 87.45 12.20 93.20 8.43 99.76 6.90 C 99.03 9.34 98.33 11.80 97.71 14.27 C 104.59 14.70 111.39 12.89 118.29 13.14 C 111.21 17.00 103.36 20.50 99.11 27.77 L 98.59 28.48 C 94.12 29.48 89.57 30.11 85.11 31.20 C 80.97 32.21 77.35 34.55 73.38 36.00 C 72.92 31.58 72.36 27.16 71.47 22.79 C 74.67 20.08 78.50 18.30 81.96 15.96 Z" />
<path fill="#352e3f" opacity="1.00" d=" M 118.29 13.14 C 123.77 12.12 129.42 12.37 134.97 12.68 C 138.25 13.10 142.21 12.97 144.44 15.88 C 135.07 18.79 125.70 21.81 116.73 25.82 C 114.42 26.83 112.42 28.39 110.43 29.91 C 107.99 31.61 105.04 32.29 102.19 32.92 C 101.92 32.20 101.66 31.47 101.41 30.75 C 102.56 29.93 103.68 29.05 104.49 27.87 C 102.70 27.80 100.90 27.78 99.11 27.77 C 103.36 20.50 111.21 17.00 118.29 13.14 Z" />
<path fill="#1b1322" opacity="1.00" d=" M 116.73 25.82 C 125.70 21.81 135.07 18.79 144.44 15.88 C 148.01 16.64 151.08 18.74 154.36 20.22 C 150.49 26.88 144.75 32.38 141.91 39.62 C 138.01 40.70 133.95 40.84 129.94 41.11 C 130.12 37.51 130.65 33.20 127.40 30.70 C 122.60 26.45 115.99 30.80 110.43 29.91 C 112.42 28.39 114.42 26.83 116.73 25.82 Z" />
<path fill="#12090b" opacity="0.08" d=" M 56.26 24.21 C 59.09 20.99 63.71 19.68 67.82 20.95 C 66.69 21.64 65.56 22.33 64.43 23.02 C 62.94 22.89 61.99 23.53 61.57 24.96 C 58.61 27.23 55.61 29.48 52.77 31.90 C 53.89 29.33 54.55 26.49 56.26 24.21 Z" />
<path fill="#140c1a" opacity="1.00" d=" M 154.36 20.22 C 155.51 20.81 156.66 21.41 157.81 22.01 C 156.46 32.36 158.79 44.96 168.63 50.54 C 163.43 52.12 158.98 55.35 154.69 58.59 C 151.41 60.63 153.07 64.98 152.69 68.15 L 152.27 68.64 C 151.02 61.59 153.68 53.71 149.54 47.33 C 146.84 44.92 144.76 41.86 141.91 39.62 C 144.75 32.38 150.49 26.88 154.36 20.22 Z" />
<path fill="#2c151b" opacity="0.33" d=" M 61.57 24.96 C 61.99 23.53 62.94 22.89 64.43 23.02 C 63.92 24.31 62.96 24.96 61.57 24.96 Z" />
<path fill="#5f334c" opacity="1.00" d=" M 66.79 25.97 C 68.34 24.89 69.91 23.85 71.47 22.79 C 72.36 27.16 72.92 31.58 73.38 36.00 C 71.06 37.34 68.85 39.02 66.65 40.42 C 65.52 39.79 64.45 38.93 63.07 38.99 C 62.22 40.51 62.62 42.34 64.49 42.69 C 63.42 43.47 62.32 44.23 61.27 45.03 C 61.42 43.51 60.68 42.76 59.05 42.77 C 58.44 42.58 57.23 42.20 56.62 42.01 C 57.19 41.10 57.74 40.18 58.28 39.25 C 59.33 37.46 60.47 35.73 61.67 34.04 C 62.78 34.77 63.87 35.54 65.07 36.12 C 68.07 37.20 71.48 34.09 70.91 30.99 C 70.76 28.61 68.28 27.48 66.79 25.97 Z" />
<path fill="#ff709c" opacity="1.00" d=" M 61.25 30.07 C 63.07 28.67 64.92 27.31 66.79 25.97 C 68.28 27.48 70.76 28.61 70.91 30.99 C 71.48 34.09 68.07 37.20 65.07 36.12 C 63.87 35.54 62.78 34.77 61.67 34.04 C 61.55 32.78 61.41 31.52 61.27 30.27 L 61.25 30.07 Z" />
<path fill="#836178" opacity="1.00" d=" M 55.33 35.32 C 57.17 33.48 59.10 31.72 61.27 30.27 C 61.41 31.52 61.55 32.78 61.67 34.04 C 60.47 35.73 59.33 37.46 58.28 39.25 C 57.43 39.11 55.72 38.84 54.87 38.70 C 55.00 37.57 55.17 36.44 55.33 35.32 Z" />
<path fill="#615063" opacity="1.00" d=" M 47.72 42.11 C 50.20 39.79 52.63 37.40 55.33 35.32 C 55.17 36.44 55.00 37.57 54.87 38.70 C 54.67 40.05 54.98 41.38 55.39 42.66 L 55.79 43.16 C 55.55 43.70 55.07 44.80 54.83 45.35 C 54.62 45.40 54.20 45.51 53.99 45.57 C 53.10 45.80 51.33 46.27 50.45 46.51 C 49.53 45.05 48.63 43.57 47.72 42.11 Z" />
<path fill="#db587a" opacity="1.00" d=" M 54.87 38.70 C 55.72 38.84 57.43 39.11 58.28 39.25 C 57.74 40.18 57.19 41.10 56.62 42.01 L 55.39 42.66 C 54.98 41.38 54.67 40.05 54.87 38.70 Z" />
<path fill="#e05b80" opacity="1.00" d=" M 63.07 38.99 C 64.45 38.93 65.52 39.79 66.65 40.42 C 66.11 40.98 65.03 42.12 64.49 42.69 C 62.62 42.34 62.22 40.51 63.07 38.99 Z" />
<path fill="#484051" opacity="1.00" d=" M 36.25 60.22 C 36.98 52.72 43.12 47.52 47.72 42.11 C 48.63 43.57 49.53 45.05 50.45 46.51 C 51.07 47.50 51.69 48.50 52.32 49.49 C 47.76 54.85 45.45 61.64 41.43 67.36 C 38.69 65.52 36.01 63.48 32.84 62.44 C 33.99 61.73 35.20 61.09 36.25 60.22 Z" />
<path fill="#4c283d" opacity="1.00" d=" M 55.39 42.66 L 56.62 42.01 C 57.23 42.20 58.44 42.58 59.05 42.77 C 58.93 44.50 59.67 45.26 61.27 45.03 C 59.35 47.12 57.41 49.21 55.37 51.18 C 55.08 50.10 54.78 49.03 54.48 47.95 C 54.36 47.36 54.11 46.16 53.99 45.57 C 54.20 45.51 54.62 45.40 54.83 45.35 C 55.39 45.64 56.50 46.22 57.06 46.51 C 57.26 45.20 56.83 44.08 55.79 43.16 L 55.39 42.66 Z" />
<path fill="#ff5b81" opacity="1.00" d=" M 54.83 45.35 C 55.07 44.80 55.55 43.70 55.79 43.16 C 56.83 44.08 57.26 45.20 57.06 46.51 C 56.50 46.22 55.39 45.64 54.83 45.35 Z" />
<path fill="#b84a6b" opacity="1.00" d=" M 59.05 42.77 C 60.68 42.76 61.42 43.51 61.27 45.03 C 59.67 45.26 58.93 44.50 59.05 42.77 Z" />
<path fill="#12090b" opacity="0.08" d=" M 68.36 44.93 C 69.43 44.24 70.51 43.54 71.58 42.85 C 70.79 45.39 70.58 48.53 68.21 50.19 C 65.04 52.43 61.24 53.51 57.79 55.21 C 59.94 52.70 62.22 50.30 64.59 47.98 C 66.43 47.95 67.95 46.73 68.36 44.93 Z" />
<path fill="#231116" opacity="0.51" d=" M 64.59 47.98 C 65.15 46.29 66.60 45.15 68.36 44.93 C 67.95 46.73 66.43 47.95 64.59 47.98 Z" />
<path fill="#e04d6d" opacity="1.00" d=" M 50.45 46.51 C 51.33 46.27 53.10 45.80 53.99 45.57 C 54.11 46.16 54.36 47.36 54.48 47.95 C 53.94 48.34 52.86 49.11 52.32 49.49 C 51.69 48.50 51.07 47.50 50.45 46.51 Z" />
<path fill="#160e1d" opacity="1.00" d=" M 52.32 49.49 C 52.86 49.11 53.94 48.34 54.48 47.95 C 54.78 49.03 55.08 50.10 55.37 51.18 C 55.03 53.35 52.69 54.93 51.98 57.11 C 50.30 61.63 52.91 66.19 54.96 70.11 C 53.91 71.73 52.73 73.31 52.02 75.13 C 52.07 76.54 53.11 77.67 53.69 78.91 C 49.69 79.71 45.71 80.77 41.62 80.90 C 38.00 78.09 33.69 76.59 29.10 76.52 C 29.40 76.24 29.99 75.67 30.29 75.39 C 32.71 74.96 35.61 75.45 37.56 73.66 C 39.82 71.67 41.98 69.56 44.36 67.71 C 43.38 67.59 42.40 67.51 41.43 67.36 C 45.45 61.64 47.76 54.85 52.32 49.49 Z" />
<path fill="#2a2133" opacity="1.00" d=" M 154.69 58.59 C 158.98 55.35 163.43 52.12 168.63 50.54 C 173.10 53.08 178.27 54.69 183.37 53.12 C 181.98 55.88 177.88 59.17 180.86 62.23 C 183.88 64.78 188.21 64.66 191.88 65.70 C 191.31 67.86 190.95 70.10 189.97 72.13 C 187.98 73.99 185.43 75.14 183.43 77.00 C 184.40 79.80 186.96 81.55 189.02 83.51 C 187.81 84.90 186.60 86.29 185.39 87.67 C 184.79 85.46 183.86 83.30 181.97 81.88 C 179.65 80.18 177.08 77.98 173.97 78.66 C 168.28 79.46 162.22 84.70 163.40 90.91 C 160.94 91.41 158.69 92.51 156.83 94.19 C 155.46 92.68 154.27 91.03 153.19 89.31 C 154.85 87.63 156.26 85.68 156.24 83.20 C 159.83 80.17 164.36 77.70 166.08 73.05 C 168.54 66.69 171.52 60.38 172.23 53.52 C 164.95 57.32 159.27 63.36 152.69 68.15 C 153.07 64.98 151.41 60.63 154.69 58.59 Z" />
<path fill="#080710" opacity="1.00" d=" M 138.60 56.99 C 139.63 54.54 141.16 52.35 143.29 50.73 C 144.80 54.44 143.65 59.23 139.80 60.94 C 137.74 61.79 136.56 63.68 135.25 65.36 C 134.04 66.72 132.64 65.18 131.41 64.69 C 128.65 65.54 125.29 66.03 122.89 64.02 C 121.56 62.20 123.49 61.13 125.08 61.09 C 127.22 60.72 129.40 60.89 131.56 60.86 C 131.59 60.04 131.65 58.39 131.68 57.57 L 132.75 58.04 C 132.65 58.87 132.45 60.55 132.36 61.38 C 133.45 60.82 134.89 60.35 134.44 58.82 L 134.45 57.65 C 135.83 57.45 137.22 57.23 138.60 56.99 M 137.81 58.25 C 137.26 59.87 137.80 60.44 139.42 59.97 C 139.96 58.35 139.42 57.77 137.81 58.25 Z" />
<path fill="#423c4c" opacity="1.00" d=" M 152.69 68.15 C 159.27 63.36 164.95 57.32 172.23 53.52 C 171.52 60.38 168.54 66.69 166.08 73.05 C 164.36 77.70 159.83 80.17 156.24 83.20 C 155.05 78.89 152.05 75.56 149.34 72.14 C 150.31 70.97 151.28 69.80 152.27 68.64 L 152.69 68.15 Z" />
<path fill="#ff4564" opacity="1.00" d=" M 132.75 58.04 L 134.01 57.60 L 134.44 58.82 C 134.89 60.35 133.45 60.82 132.36 61.38 C 132.45 60.55 132.65 58.87 132.75 58.04 Z" />
<path fill="#ff4463" opacity="1.00" d=" M 137.81 58.25 C 139.42 57.77 139.96 58.35 139.42 59.97 C 137.80 60.44 137.26 59.87 137.81 58.25 Z" />
<path fill="#201525" opacity="1.00" d=" M 29.75 69.69 C 30.68 67.49 29.87 62.71 32.84 62.44 C 36.01 63.48 38.69 65.52 41.43 67.36 C 42.40 67.51 43.38 67.59 44.36 67.71 C 41.98 69.56 39.82 71.67 37.56 73.66 C 35.61 75.45 32.71 74.96 30.29 75.39 C 29.99 75.67 29.40 76.24 29.10 76.52 C 33.69 76.59 38.00 78.09 41.62 80.90 C 40.52 81.29 39.52 82.46 38.28 82.23 C 34.03 81.28 29.65 80.99 25.46 79.73 C 23.50 79.09 21.43 79.38 19.42 79.55 C 19.82 76.38 20.07 73.20 20.28 70.01 C 23.44 70.29 26.61 70.05 29.75 69.69 Z" />
<path fill="#070509" opacity="1.00" d=" M 66.53 69.15 C 67.27 67.17 67.30 64.69 68.99 63.22 C 71.62 63.89 69.81 67.24 69.54 69.06 C 69.70 69.57 70.03 70.58 70.19 71.09 C 68.64 72.70 67.00 74.31 64.83 75.05 C 64.60 73.81 64.38 72.57 64.18 71.32 C 61.80 69.58 58.88 67.86 58.76 64.54 C 62.46 63.46 64.68 66.52 66.53 69.15 Z" />
<path fill="#180f1e" opacity="1.00" d=" M 191.88 65.70 C 194.97 65.77 198.05 66.15 201.04 66.94 C 200.15 74.16 194.25 79.04 189.45 83.90 L 189.02 83.51 C 186.96 81.55 184.40 79.80 183.43 77.00 C 185.43 75.14 187.98 73.99 189.97 72.13 C 190.95 70.10 191.31 67.86 191.88 65.70 Z" />
<path fill="#322335" opacity="1.00" d=" M 10.49 69.20 C 13.77 69.03 17.14 68.84 20.28 70.01 C 20.07 73.20 19.82 76.38 19.42 79.55 C 21.43 79.38 23.50 79.09 25.46 79.73 C 29.65 80.99 34.03 81.28 38.28 82.23 C 37.42 83.02 36.57 83.81 35.71 84.60 L 35.03 84.44 C 30.80 83.15 26.37 83.20 22.10 84.21 C 19.42 85.25 18.42 81.82 16.99 80.29 C 15.53 81.33 14.08 82.38 12.63 83.42 C 11.05 81.13 9.09 78.86 8.78 75.98 C 8.75 73.71 9.71 71.59 10.39 69.47 L 10.49 69.20 Z" />
<path fill="#482c42" opacity="1.00" d=" M 2.85 74.07 C 4.63 71.58 7.68 70.58 10.39 69.47 C 9.71 71.59 8.75 73.71 8.78 75.98 C 9.09 78.86 11.05 81.13 12.63 83.42 C 14.08 82.38 15.53 81.33 16.99 80.29 C 18.42 81.82 19.42 85.25 22.10 84.21 C 26.37 83.20 30.80 83.15 35.03 84.44 C 33.45 88.00 35.29 91.49 37.51 94.26 C 34.99 96.28 32.38 98.53 29.05 98.97 C 25.95 99.67 22.92 98.49 20.02 97.54 C 19.46 99.99 19.00 102.47 18.71 104.97 C 19.18 109.05 15.33 111.25 11.97 112.20 C 10.03 99.22 1.26 87.57 2.85 74.07 M 17.35 84.19 C 16.88 85.81 17.45 86.35 19.07 85.80 C 19.55 84.17 18.98 83.63 17.35 84.19 M 17.39 91.98 C 18.60 93.84 20.29 96.13 22.85 95.59 C 26.84 95.07 27.69 88.63 23.61 87.50 C 20.40 86.34 18.41 89.48 17.39 91.98 M 13.28 90.22 C 12.82 91.86 13.40 92.39 15.01 91.81 C 15.46 90.17 14.89 89.64 13.28 90.22 M 28.52 91.19 C 27.19 92.52 29.20 94.68 30.61 93.40 C 32.29 92.19 29.83 89.62 28.52 91.19 Z" />
<path fill="#4f3048" opacity="1.00" d=" M 163.40 90.91 C 162.22 84.70 168.28 79.46 173.97 78.66 C 177.08 77.98 179.65 80.18 181.97 81.88 C 180.64 81.83 179.30 81.78 177.97 81.73 C 173.39 81.15 167.91 82.70 166.71 87.74 C 165.71 89.60 164.72 91.52 164.68 93.68 C 164.22 92.77 163.80 91.85 163.40 90.91 Z" />
<path fill="#7a405e" opacity="1.00" d=" M 166.71 87.74 C 167.91 82.70 173.39 81.15 177.97 81.73 C 176.29 83.78 173.98 86.08 174.79 89.00 C 175.55 90.58 176.87 91.77 178.03 93.06 C 176.46 93.24 174.90 93.39 173.34 93.56 C 172.65 92.00 172.72 89.85 171.19 88.80 C 169.75 88.24 168.20 88.06 166.71 87.74 Z" />
<path fill="#ff6f9b" opacity="1.00" d=" M 177.97 81.73 C 179.30 81.78 180.64 81.83 181.97 81.88 C 183.86 83.30 184.79 85.46 185.39 87.67 C 184.10 89.28 182.86 90.93 181.66 92.60 L 181.26 92.65 C 180.45 92.75 178.83 92.96 178.03 93.06 C 176.87 91.77 175.55 90.58 174.79 89.00 C 173.98 86.08 176.29 83.78 177.97 81.73 Z" />
<path fill="#1a0c10" opacity="0.11" d=" M 39.03 90.87 C 35.55 87.36 40.62 82.80 44.42 83.00 C 43.86 83.35 42.75 84.06 42.20 84.41 C 42.75 87.33 42.83 90.33 42.00 93.22 C 41.01 92.43 40.02 91.64 39.03 90.87 Z" />
<path fill="#d74868" opacity="1.00" d=" M 17.35 84.19 C 18.98 83.63 19.55 84.17 19.07 85.80 C 17.45 86.35 16.88 85.81 17.35 84.19 Z" />
<path fill="#ff638b" opacity="1.00" d=" M 17.39 91.98 C 18.41 89.48 20.40 86.34 23.61 87.50 C 27.69 88.63 26.84 95.07 22.85 95.59 C 20.29 96.13 18.60 93.84 17.39 91.98 Z" />
<path fill="#000000" opacity="1.00" d=" M 70.41 89.44 C 71.72 88.74 73.14 87.19 74.65 88.31 C 74.83 90.13 74.59 92.03 73.48 93.53 C 70.83 97.46 67.91 101.51 63.54 103.67 C 64.39 105.42 66.19 108.86 63.10 109.37 C 60.71 110.02 60.17 107.73 59.82 105.95 C 58.42 105.46 57.07 104.85 55.78 104.12 C 55.78 103.46 55.77 102.15 55.77 101.50 C 53.35 98.34 50.86 95.19 48.90 91.71 C 48.68 89.89 50.31 90.16 51.55 90.48 C 54.76 92.57 56.65 96.09 58.27 99.46 C 59.53 99.54 60.79 99.62 62.06 99.69 C 64.15 95.80 66.53 91.81 70.41 89.44 M 63.17 101.19 C 67.22 98.70 70.61 95.09 72.58 90.74 C 68.10 92.75 65.53 97.13 63.17 101.19 M 59.49 102.08 C 58.64 101.02 56.55 102.36 57.46 103.53 C 58.50 104.22 59.22 103.98 59.62 102.81 C 60.59 103.97 61.53 103.95 62.43 102.75 C 63.07 100.87 59.91 100.35 59.49 102.08 Z" />
<path fill="#2c2234" opacity="1.00" d=" M 122.86 102.01 C 123.49 96.14 128.14 91.98 131.98 87.95 C 132.27 91.55 131.97 95.18 132.37 98.77 C 132.65 100.36 134.76 100.01 135.90 100.51 C 134.89 103.27 134.71 106.22 134.65 109.12 C 135.06 108.71 135.87 107.88 136.28 107.46 C 136.85 108.26 137.39 109.07 137.91 109.89 C 138.45 110.76 139.02 111.62 139.60 112.47 C 139.91 114.59 140.36 116.68 140.92 118.74 C 138.94 119.47 136.94 120.18 134.95 120.86 C 135.25 117.73 135.30 114.58 134.88 111.46 C 129.54 111.35 123.43 107.74 122.86 102.01 Z" />
<path fill="#ff6d98" opacity="1.00" d=" M 166.71 87.74 C 168.20 88.06 169.75 88.24 171.19 88.80 C 172.72 89.85 172.65 92.00 173.34 93.56 C 171.65 95.15 169.61 96.22 167.25 96.33 C 166.33 95.51 165.47 94.63 164.68 93.68 C 164.72 91.52 165.71 89.60 166.71 87.74 Z" />
<path fill="#8f3853" opacity="1.00" d=" M 13.28 90.22 C 14.89 89.64 15.46 90.17 15.01 91.81 C 13.40 92.39 12.82 91.86 13.28 90.22 Z" />
<path fill="#ff6d98" opacity="1.00" d=" M 28.52 91.19 C 29.83 89.62 32.29 92.19 30.61 93.40 C 29.20 94.68 27.19 92.52 28.52 91.19 Z" />
<path fill="#1c0d12" opacity="0.37" d=" M 39.03 90.87 C 40.02 91.64 41.01 92.43 42.00 93.22 C 43.15 94.48 44.15 95.87 45.17 97.24 C 42.97 95.28 40.74 93.29 39.03 90.87 Z" />
<path fill="#615063" opacity="1.00" d=" M 63.17 101.19 C 65.53 97.13 68.10 92.75 72.58 90.74 C 70.61 95.09 67.22 98.70 63.17 101.19 Z" />
<path fill="#181120" opacity="1.00" d=" M 156.83 94.19 C 158.69 92.51 160.94 91.41 163.40 90.91 C 163.80 91.85 164.22 92.77 164.68 93.68 C 165.47 94.63 166.33 95.51 167.25 96.33 C 168.53 96.94 169.83 97.48 171.10 98.12 C 172.36 98.81 173.81 99.99 175.23 98.86 C 176.56 98.26 177.87 97.62 179.19 96.98 C 176.42 102.29 173.77 107.86 173.46 113.94 C 166.31 116.24 159.64 119.77 153.06 123.33 C 154.49 120.74 157.71 119.16 157.99 116.02 C 156.30 111.95 151.83 114.65 149.06 115.85 C 148.54 114.16 148.00 112.48 147.48 110.79 C 149.08 108.79 149.56 106.34 149.47 103.84 C 151.83 103.95 154.18 104.25 156.50 104.78 C 157.64 101.35 158.66 97.58 156.83 94.19 M 169.52 102.51 C 167.54 104.37 171.40 107.01 172.38 104.59 C 173.70 102.74 170.80 100.95 169.52 102.51 M 164.41 103.25 C 163.08 104.39 165.09 106.79 166.32 105.40 C 167.99 104.60 165.85 101.22 164.41 103.25 M 165.10 110.15 C 164.64 111.56 165.11 112.04 166.51 111.59 C 166.97 110.18 166.50 109.70 165.10 110.15 Z" />
<path fill="#562b44" opacity="1.00" d=" M 173.34 93.56 C 174.90 93.39 176.46 93.24 178.03 93.06 C 178.83 92.96 180.45 92.75 181.26 92.65 C 180.60 94.11 179.92 95.56 179.19 96.98 C 177.87 97.62 176.56 98.26 175.23 98.86 C 175.19 98.02 175.12 96.35 175.09 95.51 C 173.58 96.09 172.19 96.91 171.10 98.12 C 169.83 97.48 168.53 96.94 167.25 96.33 C 169.61 96.22 171.65 95.15 173.34 93.56 Z" />
<path fill="#301b2e" opacity="1.00" d=" M 37.51 94.26 C 38.41 95.31 39.28 96.36 40.18 97.41 C 38.36 98.82 36.25 99.99 34.91 101.92 C 34.14 103.64 34.50 105.61 34.38 107.44 C 30.26 106.32 26.25 104.70 22.82 102.11 C 21.44 103.05 20.07 104.00 18.71 104.97 C 19.00 102.47 19.46 99.99 20.02 97.54 C 22.92 98.49 25.95 99.67 29.05 98.97 C 32.38 98.53 34.99 96.28 37.51 94.26 M 27.16 101.14 C 26.62 102.76 27.16 103.33 28.79 102.84 C 29.34 101.21 28.79 100.65 27.16 101.14 Z" />
<path fill="#442b40" opacity="1.00" d=" M 144.78 96.25 C 145.39 96.18 146.61 96.04 147.22 95.97 C 147.36 98.21 147.44 100.45 147.46 102.69 C 147.96 102.98 148.96 103.55 149.47 103.84 C 149.56 106.34 149.08 108.79 147.48 110.79 C 145.52 110.63 143.56 110.56 141.60 110.52 C 141.22 110.04 140.47 109.09 140.09 108.62 C 139.54 108.94 138.45 109.57 137.91 109.89 C 137.39 109.07 136.85 108.26 136.28 107.46 C 137.06 106.64 137.82 105.80 138.55 104.95 C 139.37 107.79 142.66 104.38 139.82 103.60 C 141.86 101.54 143.41 99.06 144.67 96.47 L 144.78 96.25 Z" />
<path fill="#ff5b81" opacity="1.00" d=" M 171.10 98.12 C 172.19 96.91 173.58 96.09 175.09 95.51 C 175.12 96.35 175.19 98.02 175.23 98.86 C 173.81 99.99 172.36 98.81 171.10 98.12 Z" />
<path fill="#573f54" opacity="1.00" d=" M 135.90 100.51 C 137.58 97.44 141.66 97.30 144.67 96.47 C 143.41 99.06 141.86 101.54 139.82 103.60 C 139.50 103.93 138.87 104.61 138.55 104.95 C 137.82 105.80 137.06 106.64 136.28 107.46 C 135.87 107.88 135.06 108.71 134.65 109.12 C 134.71 106.22 134.89 103.27 135.90 100.51 Z" />
<path fill="#1c1221" opacity="1.00" d=" M 34.91 101.92 C 36.25 99.99 38.36 98.82 40.18 97.41 C 42.14 100.06 44.14 103.23 43.61 106.67 C 41.80 110.06 37.31 107.60 34.38 107.44 C 34.50 105.61 34.14 103.64 34.91 101.92 Z" />
<path fill="#a73a55" opacity="1.00" d=" M 27.16 101.14 C 28.79 100.65 29.34 101.21 28.79 102.84 C 27.16 103.33 26.62 102.76 27.16 101.14 Z" />
<path fill="#ff4b6c" opacity="1.00" d=" M 59.49 102.08 C 59.91 100.35 63.07 100.87 62.43 102.75 C 61.53 103.95 60.59 103.97 59.62 102.81 L 59.49 102.08 Z" />
<path fill="#423c4c" opacity="1.00" d=" M 57.46 103.53 C 56.55 102.36 58.64 101.02 59.49 102.08 L 59.62 102.81 C 59.22 103.98 58.50 104.22 57.46 103.53 Z" />
<path fill="#ff4b6c" opacity="1.00" d=" M 169.52 102.51 C 170.80 100.95 173.70 102.74 172.38 104.59 C 171.40 107.01 167.54 104.37 169.52 102.51 Z" />
<path fill="#15111a" opacity="1.00" d=" M 209.64 108.78 C 213.25 106.59 216.31 103.57 220.01 101.57 L 221.60 101.54 C 219.21 106.43 214.75 109.82 210.15 112.49 C 210.45 113.34 210.76 114.18 211.08 115.02 C 209.18 117.26 205.12 117.49 203.65 114.66 C 199.47 112.29 197.15 107.53 198.08 102.76 C 200.72 103.43 200.95 106.38 201.81 108.49 C 204.42 108.45 207.04 108.49 209.64 108.78 M 206.20 110.08 C 205.62 111.72 206.15 112.26 207.78 111.71 C 208.37 110.08 207.84 109.53 206.20 110.08 Z" />
<path fill="#ff4564" opacity="1.00" d=" M 164.41 103.25 C 165.85 101.22 167.99 104.60 166.32 105.40 C 165.09 106.79 163.08 104.39 164.41 103.25 Z" />
<path fill="#943c56" opacity="1.00" d=" M 138.55 104.95 C 138.87 104.61 139.50 103.93 139.82 103.60 C 142.66 104.38 139.37 107.79 138.55 104.95 Z" />
<path fill="#2a141b" opacity="0.36" d=" M 22.01 105.40 C 23.00 105.43 23.74 105.91 24.22 106.87 C 23.66 107.13 22.55 107.65 22.00 107.92 C 22.00 107.29 22.01 106.03 22.01 105.40 Z" />
<path fill="#ff577c" opacity="1.00" d=" M 137.91 109.89 C 138.45 109.57 139.54 108.94 140.09 108.62 C 140.47 109.09 141.22 110.04 141.60 110.52 C 143.56 110.56 145.52 110.63 147.48 110.79 C 148.00 112.48 148.54 114.16 149.06 115.85 C 146.53 117.26 143.85 118.52 140.92 118.74 C 140.36 116.68 139.91 114.59 139.60 112.47 C 139.02 111.62 138.45 110.76 137.91 109.89 Z" />
<path fill="#672236" opacity="1.00" d=" M 165.10 110.15 C 166.50 109.70 166.97 110.18 166.51 111.59 C 165.11 112.04 164.64 111.56 165.10 110.15 Z" />
<path fill="#c5354d" opacity="1.00" d=" M 206.20 110.08 C 207.84 109.53 208.37 110.08 207.78 111.71 C 206.15 112.26 205.62 111.72 206.20 110.08 Z" />
<path fill="#271318" opacity="0.55" d=" M 34.80 111.11 C 36.34 110.40 38.17 110.71 39.09 112.22 C 37.56 112.48 35.97 112.18 34.80 111.11 Z" />
<path fill="#281319" opacity="0.63" d=" M 130.93 113.14 C 132.80 113.09 132.35 115.47 131.03 115.96 C 131.00 115.26 130.96 113.85 130.93 113.14 Z" />
<path fill="#413a4a" opacity="1.00" d=" M 153.06 123.33 C 159.64 119.77 166.31 116.24 173.46 113.94 C 174.41 114.02 176.31 114.18 177.26 114.26 C 175.45 115.87 171.63 117.43 173.74 120.32 C 175.01 124.57 179.95 124.82 183.58 125.45 C 181.01 127.03 179.57 129.67 178.80 132.51 C 178.26 132.72 177.20 133.15 176.66 133.37 C 176.37 133.12 175.77 132.60 175.48 132.35 C 175.95 130.16 176.92 128.11 177.44 125.94 C 176.79 125.17 175.82 125.76 175.05 125.93 C 170.92 127.35 167.00 129.32 162.91 130.85 C 157.92 132.86 152.64 134.26 147.95 136.97 C 145.48 138.41 142.97 139.85 140.15 140.47 C 138.90 140.12 137.67 139.72 136.46 139.27 C 138.15 136.16 139.40 132.48 142.56 130.51 C 146.10 128.17 149.62 125.81 153.06 123.33 Z" />
<path fill="#231116" opacity="0.36" d=" M 143.80 120.99 C 144.94 119.64 146.60 118.92 148.36 118.89 C 147.63 120.74 145.65 121.46 143.80 120.99 Z" />
<path fill="#31181e" opacity="0.41" d=" M 140.76 121.89 C 141.33 121.67 142.48 121.21 143.05 120.98 C 142.48 121.21 141.33 121.67 140.76 121.89 Z" />
<path fill="#31181e" opacity="0.43" d=" M 183.74 122.33 C 185.05 121.57 186.22 121.73 187.25 122.82 C 185.98 123.40 184.81 123.24 183.74 122.33 Z" />
<path fill="#2b141a" opacity="0.52" d=" M 188.91 123.13 C 190.99 122.41 193.28 122.54 195.09 123.88 C 193.00 124.55 190.76 124.33 188.91 123.13 Z" />
<path fill="#342c3d" opacity="1.00" d=" M 175.05 125.93 C 175.82 125.76 176.79 125.17 177.44 125.94 C 176.92 128.11 175.95 130.16 175.48 132.35 C 175.77 132.60 176.37 133.12 176.66 133.37 C 174.00 134.48 171.47 135.86 168.97 137.30 C 169.55 137.57 170.73 138.11 171.31 138.38 C 171.03 139.48 170.75 140.59 170.48 141.70 C 165.60 140.92 160.71 143.25 158.24 147.51 C 156.76 145.79 155.27 144.07 153.79 142.35 C 151.43 143.60 149.05 144.79 146.64 145.91 C 146.13 144.93 145.60 143.96 145.05 143.00 C 144.01 141.31 141.84 141.15 140.15 140.47 C 142.97 139.85 145.48 138.41 147.95 136.97 C 152.64 134.26 157.92 132.86 162.91 130.85 C 167.00 129.32 170.92 127.35 175.05 125.93 Z" />
<path fill="#553249" opacity="1.00" d=" M 178.80 132.51 C 179.57 129.67 181.01 127.03 183.58 125.45 C 186.32 125.94 189.07 126.40 191.84 126.74 C 193.28 130.45 194.89 134.90 192.70 138.66 C 191.37 141.19 187.96 141.31 185.61 140.34 C 182.53 138.57 180.77 135.33 178.80 132.51 M 182.34 132.91 C 183.12 135.61 185.37 138.67 188.60 137.54 C 192.74 136.42 192.44 129.44 188.02 129.12 C 185.20 128.39 183.42 130.70 182.34 132.91 Z" />
<path fill="#371d31" opacity="1.00" d=" M 191.84 126.74 C 195.68 127.10 199.51 127.58 203.33 128.09 C 201.44 128.91 198.89 129.35 197.72 131.11 C 197.48 135.15 197.65 139.28 196.16 143.14 C 195.11 143.67 194.08 144.26 193.00 144.72 C 189.97 144.86 186.83 145.05 183.92 144.11 C 180.46 142.77 178.59 139.38 176.73 136.42 C 175.49 137.38 174.26 138.34 173.03 139.29 C 175.18 140.95 177.70 142.39 179.04 144.86 C 180.90 148.26 181.48 152.16 182.04 155.94 C 180.77 157.36 180.08 159.13 179.37 160.86 C 177.68 164.40 174.20 166.47 170.97 168.42 C 169.24 168.89 166.46 168.77 166.12 171.08 C 165.52 173.08 167.05 174.97 168.97 175.39 C 170.50 175.04 171.65 173.88 172.94 173.07 C 176.60 176.19 180.06 179.69 182.08 184.13 C 182.73 185.95 184.55 186.69 186.11 187.56 C 185.37 189.98 184.55 192.58 182.32 194.05 C 181.98 193.37 181.31 192.01 180.97 191.33 C 180.45 191.78 179.41 192.68 178.89 193.14 C 179.23 193.60 179.92 194.51 180.26 194.97 C 177.15 200.07 170.88 202.87 165.03 202.14 C 161.08 200.98 160.49 195.09 164.58 193.65 C 165.25 196.03 166.87 197.77 169.08 198.83 C 170.66 197.30 173.40 195.65 172.20 193.04 C 171.61 190.67 168.89 190.94 167.01 190.75 C 163.91 186.05 162.04 180.73 160.28 175.43 C 159.77 173.24 157.46 172.72 155.68 171.98 C 155.27 171.68 154.45 171.10 154.04 170.80 C 155.58 171.00 157.28 171.58 158.72 170.69 C 161.12 169.57 161.21 166.63 161.62 164.38 C 161.66 163.95 161.74 163.10 161.78 162.67 C 167.47 166.41 175.87 164.00 178.51 157.68 C 181.72 151.28 177.26 143.24 170.48 141.70 C 170.75 140.59 171.03 139.48 171.31 138.38 C 170.73 138.11 169.55 137.57 168.97 137.30 C 171.47 135.86 174.00 134.48 176.66 133.37 C 177.20 133.15 178.26 132.72 178.80 132.51 C 180.77 135.33 182.53 138.57 185.61 140.34 C 187.96 141.31 191.37 141.19 192.70 138.66 C 194.89 134.90 193.28 130.45 191.84 126.74 M 165.34 176.28 C 163.97 176.79 163.27 178.52 164.41 179.67 C 165.39 181.50 169.03 180.05 168.31 177.98 C 168.61 176.52 166.42 175.73 165.34 176.28 M 173.31 180.16 C 172.23 181.56 174.55 183.51 175.57 181.89 C 176.63 180.50 174.31 178.55 173.31 180.16 M 178.24 180.19 C 178.66 180.62 178.66 180.62 178.24 180.19 M 170.03 181.43 C 169.60 182.84 170.08 183.31 171.48 182.86 C 171.91 181.45 171.42 180.97 170.03 181.43 M 168.14 185.39 C 167.68 186.79 168.16 187.28 169.57 186.85 C 170.01 185.44 169.54 184.96 168.14 185.39 M 175.40 185.29 C 174.27 186.68 176.57 188.67 177.60 187.03 C 178.67 185.65 176.40 183.63 175.40 185.29 Z" />
<path fill="#120a19" opacity="1.00" d=" M 203.33 128.09 C 208.18 128.19 213.12 128.49 217.81 129.80 C 213.65 134.33 207.70 136.34 202.62 139.57 C 200.53 140.88 198.36 142.04 196.16 143.14 C 197.65 139.28 197.48 135.15 197.72 131.11 C 198.89 129.35 201.44 128.91 203.33 128.09 Z" />
<path fill="#ff6f9b" opacity="1.00" d=" M 182.34 132.91 C 183.42 130.70 185.20 128.39 188.02 129.12 C 192.44 129.44 192.74 136.42 188.60 137.54 C 185.37 138.67 183.12 135.61 182.34 132.91 Z" />
<path fill="#3d3140" opacity="1.00" d=" M 230.96 135.84 C 232.89 135.28 234.81 134.62 236.73 134.01 C 235.09 135.71 233.33 137.32 231.31 138.56 C 231.22 137.88 231.04 136.52 230.96 135.84 Z" />
<path fill="#18131d" opacity="0.93" d=" M 224.19 139.48 C 225.91 138.25 227.62 136.99 229.43 135.88 L 230.96 135.84 C 231.04 136.52 231.22 137.88 231.31 138.56 C 229.32 139.60 227.25 140.48 225.13 141.22 C 224.89 140.78 224.42 139.91 224.19 139.48 Z" />
<path fill="#170c1c" opacity="1.00" d=" M 173.03 139.29 C 174.26 138.34 175.49 137.38 176.73 136.42 C 178.59 139.38 180.46 142.77 183.92 144.11 C 186.83 145.05 189.97 144.86 193.00 144.72 C 188.58 147.76 186.57 153.10 182.04 155.94 C 181.48 152.16 180.90 148.26 179.04 144.86 C 177.70 142.39 175.18 140.95 173.03 139.29 Z" />
<path fill="#bd3851" opacity="1.00" d=" M 222.30 138.39 C 223.77 138.32 223.86 140.81 222.34 140.75 C 220.89 140.78 220.80 138.35 222.30 138.39 Z" />
<path fill="#241928" opacity="1.00" d=" M 146.64 145.91 C 149.05 144.79 151.43 143.60 153.79 142.35 C 155.27 144.07 156.76 145.79 158.24 147.51 C 157.69 148.57 157.18 149.65 156.69 150.74 C 156.10 152.12 155.53 153.51 155.04 154.93 L 154.27 155.18 C 154.06 155.26 153.62 155.41 153.41 155.48 C 152.94 155.64 152.00 155.96 151.54 156.13 C 150.54 154.99 149.99 152.78 148.13 152.88 C 146.97 153.22 145.83 153.60 144.70 154.01 C 143.14 154.53 141.55 154.92 139.97 155.38 C 141.49 153.38 143.27 151.58 144.56 149.43 C 145.50 147.43 145.03 145.13 145.05 143.00 C 145.60 143.96 146.13 144.93 146.64 145.91 M 149.33 146.21 C 147.99 147.54 150.16 149.85 151.49 148.41 C 152.85 147.11 150.64 144.64 149.33 146.21 Z" />
<path fill="#ff77a4" opacity="1.00" d=" M 158.24 147.51 C 160.71 143.25 165.60 140.92 170.48 141.70 C 177.26 143.24 181.72 151.28 178.51 157.68 C 175.87 164.00 167.47 166.41 161.78 162.67 C 158.31 159.62 156.68 155.31 156.69 150.74 C 157.18 149.65 157.69 148.57 158.24 147.51 M 165.33 146.28 C 160.78 147.59 157.97 153.13 160.53 157.38 C 162.87 162.92 171.91 162.28 173.75 156.67 C 176.57 151.53 171.15 143.90 165.33 146.28 Z" />
<path fill="#ff4564" opacity="1.00" d=" M 149.33 146.21 C 150.64 144.64 152.85 147.11 151.49 148.41 C 150.16 149.85 147.99 147.54 149.33 146.21 Z" />
<path fill="#ffa1dc" opacity="1.00" d=" M 165.33 146.28 C 171.15 143.90 176.57 151.53 173.75 156.67 C 171.91 162.28 162.87 162.92 160.53 157.38 C 157.97 153.13 160.78 147.59 165.33 146.28 Z" />
<path fill="#271728" opacity="1.00" d=" M 246.02 149.66 C 249.01 150.55 249.68 153.76 250.95 156.20 C 252.19 159.14 255.86 160.01 257.10 162.93 C 258.04 165.16 259.20 167.50 259.08 169.97 C 258.20 173.47 254.72 175.70 251.33 176.37 C 251.99 173.89 250.98 171.83 248.82 170.58 C 248.30 170.34 247.27 169.86 246.76 169.62 C 246.54 168.77 246.32 167.91 246.11 167.05 C 245.59 166.69 244.55 165.97 244.03 165.61 C 242.90 166.02 241.77 166.43 240.64 166.83 C 240.39 166.68 239.87 166.38 239.61 166.22 C 239.00 165.88 237.79 165.20 237.18 164.86 C 236.19 165.50 235.20 166.15 234.22 166.81 C 233.78 167.03 232.90 167.48 232.46 167.70 C 232.64 168.47 232.82 169.26 232.98 170.04 C 232.47 170.29 231.45 170.79 230.95 171.03 C 231.28 171.48 231.96 172.36 232.30 172.80 C 232.42 174.06 232.79 175.27 233.56 176.30 C 233.94 175.75 234.68 174.66 235.05 174.11 C 235.72 174.31 237.07 174.72 237.74 174.92 C 237.61 175.26 237.36 175.93 237.24 176.27 C 237.01 176.88 236.57 178.10 236.34 178.71 C 236.84 178.73 237.83 178.76 238.32 178.78 C 236.52 179.97 234.31 180.08 232.25 180.47 C 231.00 179.01 229.75 177.56 228.50 176.10 C 228.55 174.13 228.59 172.15 228.48 170.19 C 232.01 171.94 230.93 165.39 228.14 168.39 C 228.07 168.06 227.92 167.39 227.85 167.05 C 228.61 166.80 229.38 166.56 230.15 166.34 C 231.71 166.40 232.42 165.70 232.25 164.25 C 232.20 163.67 232.14 163.10 232.09 162.53 C 232.32 161.90 232.79 160.64 233.03 160.01 C 233.30 160.04 233.83 160.10 234.10 160.13 C 235.71 159.35 237.27 158.46 238.89 157.69 C 241.94 157.97 245.01 158.29 248.07 157.92 C 246.17 155.53 244.51 152.73 246.02 149.66 Z" />
<path fill="#834662" opacity="1.00" d=" M 155.04 154.93 C 155.53 153.51 156.10 152.12 156.69 150.74 C 156.68 155.31 158.31 159.62 161.78 162.67 C 161.74 163.10 161.66 163.95 161.62 164.38 C 159.79 163.37 157.94 162.39 156.07 161.47 C 156.52 161.17 157.42 160.57 157.87 160.26 C 156.72 159.58 155.56 158.91 154.38 158.29 C 153.73 158.32 152.42 158.38 151.76 158.41 C 152.31 157.43 152.86 156.46 153.41 155.48 C 153.62 155.41 154.06 155.26 154.27 155.18 C 152.70 158.16 157.26 157.37 155.04 154.93 Z" />
<path fill="#ff4463" opacity="1.00" d=" M 144.70 154.01 C 145.83 153.60 146.97 153.22 148.13 152.88 C 149.99 152.78 150.54 154.99 151.54 156.13 C 150.45 157.48 149.47 158.93 148.50 160.37 L 150.43 160.94 C 149.50 161.98 148.60 163.26 147.00 163.03 C 145.79 161.74 146.98 160.04 147.11 158.57 C 145.67 157.43 145.08 155.74 144.70 154.01 Z" />
<path fill="#241d2c" opacity="1.00" d=" M 200.98 159.91 C 203.48 157.11 205.98 153.58 210.05 153.19 C 215.32 152.62 220.52 154.16 225.59 155.38 C 223.25 157.37 221.36 159.95 218.64 161.46 C 214.78 162.95 210.58 163.25 206.64 164.51 C 202.40 165.85 197.95 166.67 193.50 166.01 C 196.00 163.98 198.95 162.47 200.98 159.91 Z" />
<path fill="#1e0e12" opacity="0.67" d=" M 241.12 153.25 C 242.26 153.83 242.86 155.83 241.20 156.23 C 239.77 156.49 238.80 155.24 237.76 154.53 C 238.77 154.40 239.78 154.25 240.78 154.06 C 240.87 153.86 241.04 153.45 241.12 153.25 Z" />
<path fill="#3a3344" opacity="1.00" d=" M 139.97 155.38 C 141.55 154.92 143.14 154.53 144.70 154.01 C 145.08 155.74 145.67 157.43 147.11 158.57 C 146.98 160.04 145.79 161.74 147.00 163.03 C 148.60 163.26 149.50 161.98 150.43 160.94 L 148.50 160.37 C 149.47 158.93 150.45 157.48 151.54 156.13 C 152.00 155.96 152.94 155.64 153.41 155.48 C 152.86 156.46 152.31 157.43 151.76 158.41 C 151.46 158.93 150.85 159.96 150.55 160.48 C 151.50 161.13 152.42 162.68 153.76 161.83 C 155.16 161.10 154.38 159.47 154.38 158.29 C 155.56 158.91 156.72 159.58 157.87 160.26 C 157.42 160.57 156.52 161.17 156.07 161.47 C 153.63 162.84 151.47 164.76 151.64 167.82 C 149.66 165.13 145.76 166.14 143.14 167.27 C 138.67 170.48 133.27 174.04 132.72 180.06 C 130.23 179.65 127.74 179.25 125.25 178.87 C 124.65 177.73 124.06 176.59 123.46 175.44 C 123.99 175.20 125.06 174.73 125.59 174.49 C 122.80 171.99 120.50 169.02 118.53 165.85 C 126.97 165.49 133.13 159.36 139.97 155.38 Z" />
<path fill="#000000" opacity="1.00" d=" M 99.72 157.27 C 101.14 155.91 102.67 154.64 104.58 154.01 C 105.40 158.57 99.40 161.01 100.65 165.27 C 97.32 166.27 93.52 169.25 90.12 166.87 C 89.53 163.25 94.69 164.01 96.89 162.95 C 99.09 162.28 100.48 160.43 101.90 158.75 C 101.36 158.38 100.26 157.64 99.72 157.27 M 94.37 164.23 C 93.35 164.05 91.16 165.68 92.93 166.34 C 94.79 167.45 97.53 164.02 94.37 164.23 Z" />
<path fill="#e5577b" opacity="1.00" d=" M 154.27 155.18 L 155.04 154.93 C 157.26 157.37 152.70 158.16 154.27 155.18 Z" />
<path fill="#1a1120" opacity="1.00" d=" M 225.59 155.38 C 230.06 155.33 234.46 157.03 238.89 157.69 C 237.27 158.46 235.71 159.35 234.10 160.13 C 233.83 160.10 233.30 160.04 233.03 160.01 C 231.08 159.08 230.26 161.81 232.09 162.53 C 232.14 163.10 232.20 163.67 232.25 164.25 C 230.55 163.89 229.85 164.59 230.15 166.34 C 229.38 166.56 228.61 166.80 227.85 167.05 C 227.92 167.39 228.07 168.06 228.14 168.39 C 228.23 168.84 228.39 169.74 228.48 170.19 C 228.59 172.15 228.55 174.13 228.50 176.10 C 229.75 177.56 231.00 179.01 232.25 180.47 C 226.84 181.80 221.24 182.19 215.89 183.77 C 210.86 185.03 206.27 187.56 202.03 190.49 C 199.33 188.77 196.08 185.49 192.74 187.74 C 190.37 190.12 189.25 193.46 186.86 195.85 C 182.65 200.22 177.07 202.83 171.99 205.99 C 166.29 209.74 160.06 204.66 154.39 203.38 C 155.92 199.15 156.92 194.61 159.81 191.03 C 159.98 190.60 160.32 189.74 160.49 189.31 C 160.75 184.23 158.16 178.97 154.22 175.81 C 152.20 174.15 150.22 176.43 148.61 177.54 C 145.77 180.02 142.41 181.86 139.65 184.42 C 138.48 187.97 139.31 191.70 139.28 195.32 C 138.72 197.71 136.76 199.43 135.36 201.35 C 132.46 204.71 130.04 208.96 125.70 210.62 C 122.93 211.03 120.15 209.96 117.39 210.38 C 115.32 211.58 114.68 214.14 113.54 216.09 C 110.36 216.05 107.17 215.92 104.00 216.17 C 101.54 216.31 99.64 218.21 97.26 218.63 C 94.86 218.95 92.80 217.47 90.75 216.47 C 85.55 218.34 80.00 217.28 74.62 217.36 C 79.56 213.13 86.07 211.98 92.21 210.54 C 100.04 208.86 107.90 207.30 115.76 205.76 C 119.58 206.18 123.78 207.48 127.37 205.38 C 130.20 203.73 133.07 201.62 134.53 198.60 C 136.08 192.99 136.64 187.00 135.44 181.26 C 139.67 178.00 143.65 174.38 148.17 171.49 C 149.52 172.35 150.68 174.75 152.53 173.62 C 153.61 173.14 154.66 172.59 155.68 171.98 C 157.46 172.72 159.77 173.24 160.28 175.43 C 162.04 180.73 163.91 186.05 167.01 190.75 C 166.22 191.73 165.41 192.70 164.58 193.65 C 160.49 195.09 161.08 200.98 165.03 202.14 C 170.88 202.87 177.15 200.07 180.26 194.97 C 180.77 194.74 181.80 194.28 182.32 194.05 C 184.55 192.58 185.37 189.98 186.11 187.56 C 187.49 184.69 188.61 181.70 189.72 178.72 C 189.28 178.64 188.41 178.47 187.97 178.39 C 187.32 181.73 183.01 181.08 182.08 184.13 C 180.06 179.69 176.60 176.19 172.94 173.07 C 172.28 171.52 171.63 169.97 170.97 168.42 C 174.20 166.47 177.68 164.40 179.37 160.86 C 182.60 162.71 186.27 163.23 189.86 163.95 C 190.28 164.41 191.12 165.34 191.55 165.80 C 192.04 165.85 193.01 165.95 193.50 166.01 C 197.95 166.67 202.40 165.85 206.64 164.51 C 210.58 163.25 214.78 162.95 218.64 161.46 C 221.36 159.95 223.25 157.37 225.59 155.38 M 227.13 162.26 C 225.61 165.25 230.46 162.37 227.13 162.26 M 208.36 167.39 C 206.57 168.81 208.74 171.34 210.48 170.22 C 212.68 169.07 210.11 165.39 208.36 167.39 M 224.43 170.52 C 222.63 170.82 221.81 173.56 223.34 174.69 C 224.61 176.41 227.86 175.05 227.53 172.96 C 227.85 171.32 225.90 170.07 224.43 170.52 M 195.45 175.10 C 194.67 178.42 198.82 181.55 201.73 179.67 C 203.15 178.91 203.69 177.25 204.56 176.00 C 203.81 174.61 203.39 172.89 202.00 171.95 C 199.56 170.28 195.45 171.97 195.45 175.10 M 181.10 174.27 C 179.77 175.44 181.42 178.39 182.96 176.83 C 184.95 175.81 182.91 172.98 181.10 174.27 Z" />
<path fill="#1b151e" opacity="0.95" d=" M 96.89 162.95 C 97.44 160.88 98.61 159.07 99.72 157.27 C 100.26 157.64 101.36 158.38 101.90 158.75 C 100.48 160.43 99.09 162.28 96.89 162.95 Z" />
<path fill="#e04b6b" opacity="1.00" d=" M 150.55 160.48 C 150.85 159.96 151.46 158.93 151.76 158.41 C 152.42 158.38 153.73 158.32 154.38 158.29 C 154.38 159.47 155.16 161.10 153.76 161.83 C 152.42 162.68 151.50 161.13 150.55 160.48 Z" />
<path fill="#c63a56" opacity="1.00" d=" M 232.09 162.53 C 230.26 161.81 231.08 159.08 233.03 160.01 C 232.79 160.64 232.32 161.90 232.09 162.53 Z" />
<path fill="#ff5b81" opacity="1.00" d=" M 151.64 167.82 C 151.47 164.76 153.63 162.84 156.07 161.47 C 157.94 162.39 159.79 163.37 161.62 164.38 C 161.21 166.63 161.12 169.57 158.72 170.69 C 157.28 171.58 155.58 171.00 154.04 170.80 C 153.15 169.88 152.41 168.83 151.64 167.82 Z" />
<path fill="#762439" opacity="1.00" d=" M 227.13 162.26 C 230.46 162.37 225.61 165.25 227.13 162.26 Z" />
<path fill="#382838" opacity="1.00" d=" M 94.37 164.23 C 97.53 164.02 94.79 167.45 92.93 166.34 C 91.16 165.68 93.35 164.05 94.37 164.23 Z" />
<path fill="#d2405e" opacity="1.00" d=" M 230.15 166.34 C 229.85 164.59 230.55 163.89 232.25 164.25 C 232.42 165.70 231.71 166.40 230.15 166.34 Z" />
<path fill="#e75073" opacity="1.00" d=" M 234.22 166.81 C 235.20 166.15 236.19 165.50 237.18 164.86 C 237.79 165.20 239.00 165.88 239.61 166.22 C 238.95 167.39 238.59 168.98 237.05 169.23 C 236.08 168.45 235.13 167.64 234.22 166.81 Z" />
<path fill="#2c1e31" opacity="1.00" d=" M 117.33 168.74 C 116.91 167.57 117.95 166.71 118.53 165.85 C 120.50 169.02 122.80 171.99 125.59 174.49 C 125.06 174.73 123.99 175.20 123.46 175.44 C 124.06 176.59 124.65 177.73 125.25 178.87 C 123.66 180.39 122.05 181.89 120.44 183.38 C 120.26 184.04 119.90 185.37 119.71 186.03 C 118.36 187.93 116.77 189.66 115.03 191.22 L 114.26 191.91 C 112.81 187.13 116.74 183.20 119.19 179.57 C 115.80 176.72 111.41 175.79 107.20 174.87 C 106.90 172.74 106.82 170.58 106.88 168.44 C 110.35 170.74 113.48 174.42 118.02 174.26 C 119.57 174.38 120.66 173.21 121.69 172.26 C 120.26 171.14 117.79 170.76 117.33 168.74 Z" />
<path fill="#261c2d" opacity="1.00" d=" M 143.14 167.27 C 145.76 166.14 149.66 165.13 151.64 167.82 C 152.41 168.83 153.15 169.88 154.04 170.80 C 154.45 171.10 155.27 171.68 155.68 171.98 C 154.66 172.59 153.61 173.14 152.53 173.62 C 150.68 174.75 149.52 172.35 148.17 171.49 C 143.65 174.38 139.67 178.00 135.44 181.26 C 136.64 187.00 136.08 192.99 134.53 198.60 C 133.07 201.62 130.20 203.73 127.37 205.38 C 123.78 207.48 119.58 206.18 115.76 205.76 C 118.26 205.28 120.75 204.78 123.23 204.20 C 125.60 203.67 127.99 202.74 129.76 201.01 C 134.86 195.23 133.76 187.05 132.72 180.06 C 133.27 174.04 138.67 170.48 143.14 167.27 Z" />
<path fill="#40253a" opacity="1.00" d=" M 239.61 166.22 C 239.87 166.38 240.39 166.68 240.64 166.83 C 240.80 168.65 240.88 170.83 242.90 171.61 C 244.41 171.52 245.51 170.34 246.76 169.62 C 247.27 169.86 248.30 170.34 248.82 170.58 C 247.21 171.55 244.56 172.64 245.45 175.05 C 246.00 176.98 248.05 177.23 249.75 177.34 C 245.98 178.03 242.15 178.56 238.32 178.78 C 237.83 178.76 236.84 178.73 236.34 178.71 C 236.57 178.10 237.01 176.88 237.24 176.27 C 237.72 176.78 238.69 177.78 239.17 178.29 C 240.13 177.49 241.10 176.69 242.06 175.88 C 240.80 174.67 239.37 173.73 237.74 174.92 C 237.07 174.72 235.72 174.31 235.05 174.11 C 234.62 173.91 233.76 173.50 233.33 173.30 C 233.24 172.21 233.15 171.12 232.98 170.04 C 232.82 169.26 232.64 168.47 232.46 167.70 C 232.90 167.48 233.78 167.03 234.22 166.81 C 235.13 167.64 236.08 168.45 237.05 169.23 C 238.59 168.98 238.95 167.39 239.61 166.22 Z" />
<path fill="#ff597f" opacity="1.00" d=" M 240.64 166.83 C 241.77 166.43 242.90 166.02 244.03 165.61 C 244.55 165.97 245.59 166.69 246.11 167.05 C 246.32 167.91 246.54 168.77 246.76 169.62 C 245.51 170.34 244.41 171.52 242.90 171.61 C 240.88 170.83 240.80 168.65 240.64 166.83 Z" />
<path fill="#ff4564" opacity="1.00" d=" M 208.36 167.39 C 210.11 165.39 212.68 169.07 210.48 170.22 C 208.74 171.34 206.57 168.81 208.36 167.39 Z" />
<path fill="#ff4d6f" opacity="1.00" d=" M 228.14 168.39 C 230.93 165.39 232.01 171.94 228.48 170.19 C 228.39 169.74 228.23 168.84 228.14 168.39 Z" />
<path fill="#ff5478" opacity="1.00" d=" M 166.12 171.08 C 166.46 168.77 169.24 168.89 170.97 168.42 C 171.63 169.97 172.28 171.52 172.94 173.07 C 171.65 173.88 170.50 175.04 168.97 175.39 C 167.05 174.97 165.52 173.08 166.12 171.08 Z" />
<path fill="#ff4564" opacity="1.00" d=" M 224.43 170.52 C 225.90 170.07 227.85 171.32 227.53 172.96 C 227.86 175.05 224.61 176.41 223.34 174.69 C 221.81 173.56 222.63 170.82 224.43 170.52 Z" />
<path fill="#ff5377" opacity="1.00" d=" M 230.95 171.03 C 231.45 170.79 232.47 170.29 232.98 170.04 C 233.15 171.12 233.24 172.21 233.33 173.30 C 233.76 173.50 234.62 173.91 235.05 174.11 C 234.68 174.66 233.94 175.75 233.56 176.30 C 232.79 175.27 232.42 174.06 232.30 172.80 C 231.96 172.36 231.28 171.48 230.95 171.03 Z" />
<path fill="#ff4f71" opacity="1.00" d=" M 195.45 175.10 C 195.45 171.97 199.56 170.28 202.00 171.95 C 203.39 172.89 203.81 174.61 204.56 176.00 C 203.69 177.25 203.15 178.91 201.73 179.67 C 198.82 181.55 194.67 178.42 195.45 175.10 Z" />
<path fill="#ff4b6c" opacity="1.00" d=" M 245.45 175.05 C 244.56 172.64 247.21 171.55 248.82 170.58 C 250.98 171.83 251.99 173.89 251.33 176.37 C 250.94 176.61 250.14 177.09 249.75 177.34 C 248.05 177.23 246.00 176.98 245.45 175.05 Z" />
<path fill="#ff4564" opacity="1.00" d=" M 181.10 174.27 C 182.91 172.98 184.95 175.81 182.96 176.83 C 181.42 178.39 179.77 175.44 181.10 174.27 Z" />
<path fill="#ff5377" opacity="1.00" d=" M 237.74 174.92 C 239.37 173.73 240.80 174.67 242.06 175.88 C 241.10 176.69 240.13 177.49 239.17 178.29 C 238.69 177.78 237.72 176.78 237.24 176.27 C 237.36 175.93 237.61 175.26 237.74 174.92 Z" />
<path fill="#160e1c" opacity="1.00" d=" M 107.20 174.87 C 111.41 175.79 115.80 176.72 119.19 179.57 C 116.74 183.20 112.81 187.13 114.26 191.91 C 114.32 192.31 114.45 193.11 114.52 193.52 C 111.16 195.74 107.20 196.67 103.34 197.64 C 97.56 195.07 92.15 191.80 87.31 187.72 C 89.54 186.19 91.41 184.20 93.57 182.59 C 96.94 180.86 100.31 184.93 103.64 182.75 C 103.83 181.72 104.03 180.69 104.23 179.67 C 105.47 179.46 106.71 179.26 107.95 179.06 C 107.73 177.66 107.44 176.27 107.20 174.87 Z" />
<path fill="#120a19" opacity="1.00" d=" M 148.61 177.54 C 150.22 176.43 152.20 174.15 154.22 175.81 C 158.16 178.97 160.75 184.23 160.49 189.31 C 158.35 186.03 156.01 191.84 159.81 191.03 C 156.92 194.61 155.92 199.15 154.39 203.38 C 160.06 204.66 166.29 209.74 171.99 205.99 C 177.07 202.83 182.65 200.22 186.86 195.85 C 189.25 193.46 190.37 190.12 192.74 187.74 C 196.08 185.49 199.33 188.77 202.03 190.49 C 197.00 194.61 191.59 198.83 188.95 204.98 C 190.52 203.77 192.02 202.47 193.48 201.12 C 194.45 201.68 195.41 202.25 196.33 202.90 C 196.57 203.07 197.05 203.40 197.28 203.57 C 201.45 206.76 206.55 208.48 210.56 211.93 C 208.18 214.17 204.89 212.77 202.05 212.67 C 199.35 212.28 196.78 213.56 194.11 213.72 C 189.86 212.95 186.32 209.95 182.01 209.43 C 177.88 209.53 174.86 212.65 172.06 215.29 C 169.80 214.44 167.48 213.07 164.97 213.67 C 158.71 214.87 152.37 215.61 146.02 216.17 C 137.67 216.55 129.30 215.88 120.95 216.42 C 118.47 216.61 115.98 216.59 113.54 216.09 C 114.68 214.14 115.32 211.58 117.39 210.38 C 120.15 209.96 122.93 211.03 125.70 210.62 C 130.04 208.96 132.46 204.71 135.36 201.35 C 136.76 199.43 138.72 197.71 139.28 195.32 C 139.31 191.70 138.48 187.97 139.65 184.42 C 142.41 181.86 145.77 180.02 148.61 177.54 Z" />
<path fill="#ea597e" opacity="1.00" d=" M 165.34 176.28 C 166.42 175.73 168.61 176.52 168.31 177.98 C 169.03 180.05 165.39 181.50 164.41 179.67 C 163.27 178.52 163.97 176.79 165.34 176.28 Z" />
<path fill="#ff4d6f" opacity="1.00" d=" M 187.97 178.39 C 188.41 178.47 189.28 178.64 189.72 178.72 C 188.61 181.70 187.49 184.69 186.11 187.56 C 184.55 186.69 182.73 185.95 182.08 184.13 C 183.01 181.08 187.32 181.73 187.97 178.39 Z" />
<path fill="#49283e" opacity="1.00" d=" M 125.25 178.87 C 127.74 179.25 130.23 179.65 132.72 180.06 C 133.76 187.05 134.86 195.23 129.76 201.01 L 130.05 200.07 C 129.81 199.42 129.35 198.13 129.11 197.48 C 129.41 196.05 129.71 194.61 130.03 193.18 C 130.77 191.42 130.57 189.70 128.97 188.53 C 128.26 187.78 127.54 187.03 126.82 186.29 C 126.42 186.35 125.62 186.46 125.22 186.52 C 123.76 184.33 121.70 184.75 119.71 186.03 C 119.90 185.37 120.26 184.04 120.44 183.38 C 122.05 181.89 123.66 180.39 125.25 178.87 Z" />
<path fill="#ff597f" opacity="1.00" d=" M 173.31 180.16 C 174.31 178.55 176.63 180.50 175.57 181.89 C 174.55 183.51 172.23 181.56 173.31 180.16 Z" />
<path fill="#d24361" opacity="1.00" d=" M 178.24 180.19 C 178.66 180.62 178.66 180.62 178.24 180.19 Z" />
<path fill="#ae4362" opacity="1.00" d=" M 170.03 181.43 C 171.42 180.97 171.91 181.45 171.48 182.86 C 170.08 183.31 169.60 182.84 170.03 181.43 Z" />
<path fill="#261218" opacity="0.51" d=" M 245.88 182.08 C 246.91 180.76 248.62 180.44 250.16 181.01 C 249.06 182.24 247.41 182.55 245.88 182.08 Z" />
<path fill="#291419" opacity="0.55" d=" M 240.86 183.06 C 241.93 181.76 243.65 181.49 245.18 182.04 C 244.08 183.27 242.39 183.54 240.86 183.06 Z" />
<path fill="#ff6d98" opacity="1.00" d=" M 119.71 186.03 C 121.70 184.75 123.76 184.33 125.22 186.52 C 124.45 187.69 123.67 188.85 122.88 189.99 C 121.63 188.83 120.56 187.50 119.71 186.03 Z" />
<path fill="#742d45" opacity="1.00" d=" M 168.14 185.39 C 169.54 184.96 170.01 185.44 169.57 186.85 C 168.16 187.28 167.68 186.79 168.14 185.39 Z" />
<path fill="#ff5b81" opacity="1.00" d=" M 175.40 185.29 C 176.40 183.63 178.67 185.65 177.60 187.03 C 176.57 188.67 174.27 186.68 175.40 185.29 Z" />
<path fill="#62354e" opacity="1.00" d=" M 115.03 191.22 C 116.77 189.66 118.36 187.93 119.71 186.03 C 120.56 187.50 121.63 188.83 122.88 189.99 C 123.67 188.85 124.45 187.69 125.22 186.52 C 125.62 186.46 126.42 186.35 126.82 186.29 C 127.54 187.03 128.26 187.78 128.97 188.53 C 128.49 189.19 127.52 190.52 127.04 191.19 C 128.02 191.88 129.02 192.54 130.03 193.18 C 129.71 194.61 129.41 196.05 129.11 197.48 C 127.50 198.21 128.18 200.96 130.05 200.07 L 129.76 201.01 C 127.99 202.74 125.60 203.67 123.23 204.20 C 121.76 204.05 120.30 203.86 118.85 203.67 C 118.37 200.90 118.03 197.54 114.80 196.65 C 114.76 196.41 114.66 195.93 114.61 195.69 C 115.11 195.39 116.11 194.77 116.61 194.46 L 116.79 193.54 C 116.88 192.87 117.07 191.54 117.16 190.87 C 116.63 190.96 115.56 191.13 115.03 191.22 M 121.39 191.81 C 123.86 192.29 123.81 194.19 123.08 196.04 C 124.19 195.28 125.23 194.43 126.34 193.70 C 124.97 192.30 122.91 188.28 121.39 191.81 M 118.99 192.16 C 119.23 195.50 121.92 190.53 118.99 192.16 M 119.15 199.49 C 118.70 200.90 119.18 201.37 120.59 200.91 C 121.03 199.50 120.55 199.03 119.15 199.49 Z" />
<path fill="#271c2d" opacity="1.00" d=" M 72.70 194.10 C 77.24 191.31 82.62 190.27 87.31 187.72 C 92.15 191.80 97.56 195.07 103.34 197.64 C 107.20 196.67 111.16 195.74 114.52 193.52 C 115.27 193.52 116.03 193.53 116.79 193.54 L 116.61 194.46 C 116.11 194.77 115.11 195.39 114.61 195.69 C 114.66 195.93 114.76 196.41 114.80 196.65 C 115.05 198.85 115.45 201.26 114.36 203.32 C 109.79 204.70 104.63 202.86 100.30 205.29 C 97.49 206.81 94.13 207.82 92.21 210.54 C 86.07 211.98 79.56 213.13 74.62 217.36 C 72.87 216.90 71.12 216.43 69.38 215.94 C 68.98 214.57 68.62 213.20 68.22 211.84 C 67.59 211.60 66.32 211.12 65.69 210.88 C 66.06 209.42 66.43 207.96 66.80 206.50 C 67.57 205.90 68.34 205.31 69.11 204.72 L 69.87 205.86 C 70.13 206.24 70.65 206.98 70.91 207.36 C 71.33 207.43 72.17 207.59 72.58 207.67 C 72.66 207.01 72.80 205.68 72.87 205.02 C 75.21 204.37 77.59 203.79 80.02 203.58 C 78.72 204.57 78.74 205.49 80.08 206.33 C 78.98 207.37 78.12 208.63 77.27 209.89 C 79.96 209.11 82.60 208.18 85.27 207.34 C 85.69 207.69 86.54 208.40 86.96 208.76 C 87.69 209.09 88.43 209.41 89.18 209.69 C 89.27 208.72 89.36 207.74 89.44 206.77 C 89.48 206.35 89.55 205.51 89.59 205.09 C 86.85 205.34 84.12 205.60 81.38 205.82 C 81.51 205.30 81.77 204.26 81.89 203.74 C 84.53 202.32 87.55 201.94 90.41 201.20 C 91.55 199.53 92.37 197.48 91.57 195.49 C 85.82 192.10 78.96 193.94 72.70 194.10 Z" />
<path fill="#ff4564" opacity="1.00" d=" M 159.81 191.03 C 156.01 191.84 158.35 186.03 160.49 189.31 C 160.32 189.74 159.98 190.60 159.81 191.03 Z" />
<path fill="#2d151c" opacity="0.51" d=" M 75.82 190.02 C 76.38 189.77 77.51 189.26 78.07 189.01 C 77.51 189.26 76.38 189.77 75.82 190.02 Z" />
<path fill="#ff638b" opacity="1.00" d=" M 128.97 188.53 C 130.57 189.70 130.77 191.42 130.03 193.18 C 129.02 192.54 128.02 191.88 127.04 191.19 C 127.52 190.52 128.49 189.19 128.97 188.53 Z" />
<path fill="#ff709c" opacity="1.00" d=" M 121.39 191.81 C 122.91 188.28 124.97 192.30 126.34 193.70 C 125.23 194.43 124.19 195.28 123.08 196.04 C 123.81 194.19 123.86 192.29 121.39 191.81 Z" />
<path fill="#ff597f" opacity="1.00" d=" M 114.26 191.91 L 115.03 191.22 C 115.56 191.13 116.63 190.96 117.16 190.87 C 117.07 191.54 116.88 192.87 116.79 193.54 C 116.03 193.53 115.27 193.52 114.52 193.52 C 114.45 193.11 114.32 192.31 114.26 191.91 Z" />
<path fill="#ff577c" opacity="1.00" d=" M 164.58 193.65 C 165.41 192.70 166.22 191.73 167.01 190.75 C 168.89 190.94 171.61 190.67 172.20 193.04 C 173.40 195.65 170.66 197.30 169.08 198.83 C 166.87 197.77 165.25 196.03 164.58 193.65 Z" />
<path fill="#d55f86" opacity="1.00" d=" M 118.99 192.16 C 121.92 190.53 119.23 195.50 118.99 192.16 Z" />
<path fill="#ff5478" opacity="1.00" d=" M 178.89 193.14 C 179.41 192.68 180.45 191.78 180.97 191.33 C 181.31 192.01 181.98 193.37 182.32 194.05 C 181.80 194.28 180.77 194.74 180.26 194.97 C 179.92 194.51 179.23 193.60 178.89 193.14 Z" />
<path fill="#342a3a" opacity="1.00" d=" M 72.70 194.10 C 78.96 193.94 85.82 192.10 91.57 195.49 C 92.37 197.48 91.55 199.53 90.41 201.20 C 89.95 200.08 89.49 198.98 89.02 197.87 C 88.38 198.13 87.09 198.64 86.44 198.90 C 85.85 197.61 85.27 196.32 84.69 195.03 C 81.35 195.27 78.04 195.81 74.85 196.82 C 74.10 196.64 72.61 196.29 71.86 196.12 C 71.29 196.66 70.14 197.75 69.57 198.30 C 68.81 199.46 68.12 200.68 67.38 201.86 C 64.81 201.96 64.05 203.77 64.06 206.11 C 60.90 205.83 56.32 206.14 55.51 202.08 C 56.41 200.30 57.59 198.68 58.71 197.05 C 58.25 197.13 57.32 197.30 56.86 197.39 C 57.23 196.31 57.61 195.23 57.98 194.15 C 62.63 197.08 67.81 194.92 72.70 194.10 M 60.32 202.02 C 60.39 205.36 63.33 200.55 60.32 202.02 Z" />
<path fill="#341920" opacity="0.37" d=" M 223.25 194.85 C 226.66 193.74 230.23 193.78 233.67 194.74 C 230.20 194.91 226.72 194.93 223.25 194.85 Z" />
<path fill="#473043" opacity="1.00" d=" M 74.85 196.82 C 78.04 195.81 81.35 195.27 84.69 195.03 C 85.27 196.32 85.85 197.61 86.44 198.90 C 86.69 199.42 87.19 200.44 87.44 200.96 C 88.18 201.02 89.67 201.14 90.41 201.20 C 87.55 201.94 84.53 202.32 81.89 203.74 C 81.77 204.26 81.51 205.30 81.38 205.82 C 84.12 205.60 86.85 205.34 89.59 205.09 C 89.55 205.51 89.48 206.35 89.44 206.77 C 88.71 206.76 87.25 206.75 86.53 206.75 C 86.64 207.25 86.85 208.25 86.96 208.76 C 86.54 208.40 85.69 207.69 85.27 207.34 C 82.60 208.18 79.96 209.11 77.27 209.89 C 78.12 208.63 78.98 207.37 80.08 206.33 C 81.48 205.18 81.45 204.27 80.02 203.58 C 77.59 203.79 75.21 204.37 72.87 205.02 C 72.12 205.23 70.62 205.65 69.87 205.86 L 69.11 204.72 C 68.51 203.78 67.93 202.82 67.38 201.86 C 68.12 200.68 68.81 199.46 69.57 198.30 C 70.13 199.90 70.60 202.34 72.88 201.84 C 75.48 201.65 75.07 198.62 74.85 196.82 M 81.92 198.22 C 80.38 201.20 85.26 198.36 81.92 198.22 Z" />
<path fill="#1f0e13" opacity="0.51" d=" M 234.04 194.78 C 235.58 194.57 238.41 194.85 238.03 197.05 C 236.38 197.03 235.12 195.87 234.04 194.78 Z" />
<path fill="#423c4c" opacity="1.00" d=" M 196.33 202.90 C 202.79 201.02 208.16 196.38 214.86 195.28 C 216.59 198.48 220.23 197.78 223.27 197.70 C 221.99 198.98 220.71 200.25 219.42 201.50 C 221.59 201.88 223.75 202.29 225.90 202.77 L 224.47 203.56 C 224.09 203.77 223.33 204.19 222.95 204.40 C 222.16 204.49 221.37 204.57 220.58 204.63 C 217.91 203.25 214.83 203.44 211.92 203.33 C 210.40 202.79 208.74 204.39 209.97 205.80 C 209.61 205.45 208.90 204.75 208.54 204.40 C 204.79 204.04 201.03 203.93 197.28 203.57 C 197.05 203.40 196.57 203.07 196.33 202.90 Z" />
<path fill="#1d1423" opacity="1.00" d=" M 47.32 200.02 C 50.46 199.00 53.61 197.99 56.86 197.39 C 57.32 197.30 58.25 197.13 58.71 197.05 C 57.59 198.68 56.41 200.30 55.51 202.08 C 56.32 206.14 60.90 205.83 64.06 206.11 C 64.98 206.22 65.89 206.35 66.80 206.50 C 66.43 207.96 66.06 209.42 65.69 210.88 C 57.82 208.39 49.43 210.11 41.48 207.95 C 43.08 206.64 44.87 205.61 46.59 204.48 C 47.21 203.08 47.10 201.50 47.32 200.02 Z" />
<path fill="#ff4c6d" opacity="1.00" d=" M 69.57 198.30 C 70.14 197.75 71.29 196.66 71.86 196.12 C 72.61 196.29 74.10 196.64 74.85 196.82 C 75.07 198.62 75.48 201.65 72.88 201.84 C 70.60 202.34 70.13 199.90 69.57 198.30 Z" />
<path fill="#362f3e" opacity="1.00" d=" M 114.80 196.65 C 118.03 197.54 118.37 200.90 118.85 203.67 C 120.30 203.86 121.76 204.05 123.23 204.20 C 120.75 204.78 118.26 205.28 115.76 205.76 C 107.90 207.30 100.04 208.86 92.21 210.54 C 94.13 207.82 97.49 206.81 100.30 205.29 C 104.63 202.86 109.79 204.70 114.36 203.32 C 115.45 201.26 115.05 198.85 114.80 196.65 Z" />
<path fill="#ab415b" opacity="1.00" d=" M 81.92 198.22 C 85.26 198.36 80.38 201.20 81.92 198.22 Z" />
<path fill="#d94564" opacity="1.00" d=" M 86.44 198.90 C 87.09 198.64 88.38 198.13 89.02 197.87 C 89.49 198.98 89.95 200.08 90.41 201.20 C 89.67 201.14 88.18 201.02 87.44 200.96 C 87.19 200.44 86.69 199.42 86.44 198.90 Z" />
<path fill="#c04969" opacity="1.00" d=" M 130.05 200.07 C 128.18 200.96 127.50 198.21 129.11 197.48 C 129.35 198.13 129.81 199.42 130.05 200.07 Z" />
<path fill="#64465d" opacity="1.00" d=" M 223.27 197.70 C 227.25 197.03 231.29 197.38 235.31 197.58 C 233.65 199.33 232.11 201.17 230.73 203.14 C 229.81 202.67 228.88 202.20 227.96 201.75 C 227.27 202.08 226.58 202.42 225.90 202.77 C 223.75 202.29 221.59 201.88 219.42 201.50 C 220.71 200.25 221.99 198.98 223.27 197.70 Z" />
<path fill="#3c273c" opacity="1.00" d=" M 235.31 197.58 C 235.66 199.07 236.20 200.56 236.12 202.12 C 235.68 206.20 233.35 209.76 230.04 212.11 C 228.94 212.90 227.76 213.58 226.61 214.30 C 226.13 212.62 226.64 210.15 224.71 209.27 C 222.80 207.67 219.80 209.71 219.75 211.96 C 219.98 213.03 220.25 214.10 220.56 215.16 C 218.63 214.86 216.70 214.58 214.77 214.30 C 214.36 212.86 213.94 211.43 213.53 210.00 C 215.74 208.86 217.99 207.81 220.30 206.88 C 220.86 206.82 221.99 206.68 222.56 206.61 C 222.66 206.06 222.85 204.95 222.95 204.40 C 223.33 204.19 224.09 203.77 224.47 203.56 C 224.12 205.92 225.12 209.11 228.03 208.90 C 231.04 208.98 232.27 205.43 230.73 203.14 C 232.11 201.17 233.65 199.33 235.31 197.58 Z" />
<path fill="#281318" opacity="0.52" d=" M 237.93 197.95 C 239.27 198.30 239.98 199.78 239.83 201.09 C 238.19 201.22 237.50 199.27 237.93 197.95 Z" />
<path fill="#c34b6b" opacity="1.00" d=" M 119.15 199.49 C 120.55 199.03 121.03 199.50 120.59 200.91 C 119.18 201.37 118.70 200.90 119.15 199.49 Z" />
<path fill="#85354b" opacity="1.00" d=" M 60.32 202.02 C 63.33 200.55 60.39 205.36 60.32 202.02 Z" />
<path fill="#ff4c6e" opacity="1.00" d=" M 64.06 206.11 C 64.05 203.77 64.81 201.96 67.38 201.86 C 67.93 202.82 68.51 203.78 69.11 204.72 C 68.34 205.31 67.57 205.90 66.80 206.50 C 65.89 206.35 64.98 206.22 64.06 206.11 Z" />
<path fill="#ff5f86" opacity="1.00" d=" M 225.90 202.77 C 226.58 202.42 227.27 202.08 227.96 201.75 C 228.88 202.20 229.81 202.67 230.73 203.14 C 232.27 205.43 231.04 208.98 228.03 208.90 C 225.12 209.11 224.12 205.92 224.47 203.56 L 225.90 202.77 Z" />
<path fill="#1e1626" opacity="1.00" d=" M 236.12 202.12 C 241.48 205.39 248.00 205.08 254.01 205.94 C 258.68 206.06 262.89 208.19 267.16 209.82 C 264.54 211.81 261.33 212.87 258.05 213.04 C 251.66 213.35 245.05 214.15 238.85 212.07 C 236.00 210.98 232.94 211.51 230.04 212.11 C 233.35 209.76 235.68 206.20 236.12 202.12 Z" />
<path fill="#ff4564" opacity="1.00" d=" M 209.97 205.80 C 208.74 204.39 210.40 202.79 211.92 203.33 C 212.53 204.75 212.11 205.75 210.67 206.33 L 209.97 205.80 Z" />
<path fill="#1e1525" opacity="1.00" d=" M 211.92 203.33 C 214.83 203.44 217.91 203.25 220.58 204.63 C 220.51 205.20 220.37 206.32 220.30 206.88 C 217.99 207.81 215.74 208.86 213.53 210.00 C 213.94 211.43 214.36 212.86 214.77 214.30 C 213.34 213.55 211.89 212.84 210.56 211.93 C 206.55 208.48 201.45 206.76 197.28 203.57 C 201.03 203.93 204.79 204.04 208.54 204.40 C 208.90 204.75 209.61 205.45 209.97 205.80 L 210.67 206.33 C 212.11 205.75 212.53 204.75 211.92 203.33 M 214.06 204.29 C 213.54 205.91 214.10 206.48 215.73 205.99 C 216.25 204.37 215.69 203.81 214.06 204.29 Z" />
<path fill="#d84665" opacity="1.00" d=" M 80.08 206.33 C 78.74 205.49 78.72 204.57 80.02 203.58 C 81.45 204.27 81.48 205.18 80.08 206.33 Z" />
<path fill="#ae3954" opacity="1.00" d=" M 214.06 204.29 C 215.69 203.81 216.25 204.37 215.73 205.99 C 214.10 206.48 213.54 205.91 214.06 204.29 Z" />
<path fill="#ff577c" opacity="1.00" d=" M 220.58 204.63 C 221.37 204.57 222.16 204.49 222.95 204.40 C 222.85 204.95 222.66 206.06 222.56 206.61 C 221.99 206.68 220.86 206.82 220.30 206.88 C 220.37 206.32 220.51 205.20 220.58 204.63 Z" />
<path fill="#ff577c" opacity="1.00" d=" M 69.87 205.86 C 70.62 205.65 72.12 205.23 72.87 205.02 C 72.80 205.68 72.66 207.01 72.58 207.67 C 72.17 207.59 71.33 207.43 70.91 207.36 C 70.65 206.98 70.13 206.24 69.87 205.86 Z" />
<path fill="#ff4564" opacity="1.00" d=" M 86.53 206.75 C 87.25 206.75 88.71 206.76 89.44 206.77 C 89.36 207.74 89.27 208.72 89.18 209.69 C 88.43 209.41 87.69 209.09 86.96 208.76 C 86.85 208.25 86.64 207.25 86.53 206.75 Z" />
<path fill="#ff5377" opacity="1.00" d=" M 219.75 211.96 C 219.80 209.71 222.80 207.67 224.71 209.27 C 226.64 210.15 226.13 212.62 226.61 214.30 C 224.60 214.67 222.58 214.93 220.56 215.16 C 220.25 214.10 219.98 213.03 219.75 211.96 Z" />
</svg>
