<?xml version="1.0" encoding="UTF-8" ?>
<!DOCTYPE svg PUBLIC "-//W3C//DTD SVG 1.1//EN" "http://www.w3.org/Graphics/SVG/1.1/DTD/svg11.dtd">
<svg width="230pt" height="160pt" viewBox="0 0 230 160" version="1.1" xmlns="http://www.w3.org/2000/svg">
<path fill="#000000" opacity="1.00" d=" M 179.45 11.64 C 192.49 5.53 206.45 0.46 221.01 0.18 C 223.85 -0.36 225.78 2.91 224.15 5.20 C 220.24 12.31 214.06 17.85 207.71 22.77 C 200.49 28.35 193.30 34.15 185.03 38.14 C 172.08 44.60 158.18 48.86 144.90 54.57 C 162.49 52.13 180.27 52.14 197.96 51.20 C 206.51 50.98 215.36 51.53 223.39 54.68 C 226.24 56.13 230.62 58.04 229.77 61.99 C 227.99 66.50 223.23 68.94 218.87 70.43 C 209.49 73.31 199.67 74.39 189.92 75.17 C 175.96 76.38 161.96 75.15 147.97 75.31 C 139.18 74.91 130.31 73.48 122.07 70.30 C 121.61 72.31 121.15 74.31 120.70 76.32 C 135.84 77.57 149.01 86.00 162.25 92.70 C 168.77 96.18 175.64 100.78 178.22 108.06 C 179.47 110.48 177.62 113.37 174.96 113.42 C 166.22 113.47 158.09 109.81 149.85 107.39 C 140.32 104.09 130.37 101.02 122.56 94.38 C 121.95 94.32 120.75 94.19 120.14 94.13 C 116.57 84.40 118.74 73.97 121.98 64.51 C 119.00 68.76 116.33 73.68 116.50 79.02 C 116.59 84.25 116.10 89.92 119.07 94.54 L 119.34 94.94 L 119.54 95.34 C 119.98 95.36 120.87 95.40 121.31 95.43 L 121.78 95.52 C 122.49 97.15 123.03 98.85 123.58 100.54 C 120.99 100.84 119.50 98.81 118.01 97.10 C 118.83 99.86 119.51 102.66 120.12 105.47 C 119.55 105.49 118.42 105.53 117.86 105.55 C 115.62 98.84 113.57 91.98 113.39 84.84 C 113.28 82.02 113.25 79.19 113.26 76.37 C 113.33 72.06 114.11 67.82 114.77 63.58 C 109.88 67.48 109.45 74.13 108.06 79.78 C 107.66 82.33 107.75 84.94 108.11 87.49 C 109.30 94.48 111.89 101.52 117.53 106.16 C 118.41 107.30 119.53 108.19 120.34 109.41 C 113.21 108.63 109.68 101.11 107.26 95.21 C 101.15 98.08 94.30 98.87 87.75 97.19 C 86.55 101.81 83.69 107.32 78.13 107.09 C 79.16 103.09 80.53 99.18 81.47 95.16 C 79.60 93.21 77.94 91.06 76.58 88.72 C 77.41 92.61 77.94 97.05 75.26 100.39 C 71.03 106.21 65.23 111.95 57.78 112.91 C 61.35 105.76 67.34 99.93 69.89 92.22 C 67.12 94.36 64.45 96.65 61.46 98.49 C 50.19 104.87 38.49 110.92 25.76 113.76 C 23.71 114.03 20.89 114.27 19.84 112.04 C 22.24 108.05 26.37 105.61 30.07 102.98 C 40.85 96.07 52.88 91.48 64.63 86.54 C 60.63 85.72 56.62 84.77 52.93 82.98 C 55.77 79.56 60.45 79.31 64.45 78.22 C 64.50 77.80 64.61 76.94 64.67 76.52 C 55.75 75.64 46.73 75.49 37.95 73.51 C 29.37 71.88 21.20 68.53 13.61 64.25 C 8.18 61.11 3.29 56.87 0.00 51.48 L 0.00 48.68 C 2.22 47.85 4.53 47.15 6.93 47.35 C 17.44 47.67 27.77 49.81 38.12 51.51 C 50.52 53.68 62.18 58.53 73.85 63.06 C 70.86 59.50 66.52 57.72 62.71 55.25 C 59.26 53.05 55.78 50.90 52.13 49.06 C 50.57 49.29 49.00 49.75 47.41 49.54 C 45.54 48.78 44.27 46.95 43.84 45.03 C 44.05 42.24 47.54 40.64 49.86 42.08 C 52.07 43.07 52.70 45.57 53.58 47.59 C 60.76 51.74 67.85 56.12 74.24 61.43 C 76.79 60.59 79.35 59.77 81.93 59.00 C 78.84 52.31 76.49 45.31 73.59 38.54 C 71.80 37.92 69.21 38.21 68.46 36.05 C 67.68 33.02 70.95 28.99 74.07 30.88 C 77.47 32.64 74.65 36.93 76.21 39.70 C 78.76 46.10 81.34 52.50 83.68 58.99 C 88.22 58.03 92.25 55.07 97.04 55.24 C 100.31 55.13 103.49 56.06 106.61 56.94 C 115.06 47.67 125.42 40.42 136.32 34.33 C 150.34 26.12 164.52 18.09 179.45 11.64 M 194.94 8.10 C 172.33 16.63 151.23 28.54 130.42 40.71 C 128.44 41.98 126.44 43.22 124.42 44.42 C 118.41 48.39 112.94 53.08 107.26 57.50 C 107.98 57.98 108.69 58.46 109.41 58.94 C 111.53 57.20 113.52 55.27 115.85 53.79 C 116.92 52.79 118.30 53.46 119.14 54.40 C 118.66 57.27 118.06 60.12 117.53 62.97 C 121.26 61.26 124.89 59.32 128.63 57.61 C 134.14 55.03 140.07 53.51 145.56 50.88 C 149.15 49.98 152.44 48.19 155.90 46.89 C 165.82 42.96 175.93 39.43 185.42 34.52 C 193.09 30.48 199.83 25.01 206.70 19.78 C 212.83 14.93 218.83 9.51 222.66 2.59 C 220.61 2.50 218.56 2.47 216.51 2.48 C 209.04 3.17 201.95 5.58 194.94 8.10 M 72.61 32.65 C 70.05 32.33 68.94 37.35 72.05 36.88 C 75.23 37.85 75.83 32.15 72.61 32.65 M 46.42 47.59 C 47.69 48.16 49.11 47.45 50.42 47.40 C 50.17 45.86 50.58 43.87 49.03 42.89 C 46.57 42.21 44.69 45.89 46.42 47.59 M 2.78 50.47 C 4.74 53.26 6.70 56.34 9.75 58.05 C 20.07 66.32 33.22 70.23 46.11 72.23 L 46.55 72.13 C 52.47 72.82 58.43 73.35 64.27 74.59 C 64.93 72.27 65.83 70.03 66.81 67.83 L 67.03 67.86 C 68.31 66.50 69.92 65.38 70.87 63.74 C 68.02 62.57 65.05 61.72 62.15 60.70 C 52.33 57.63 42.34 55.05 32.17 53.40 C 22.47 51.69 12.67 50.08 2.78 50.47 M 156.07 55.22 C 151.87 55.65 147.68 56.10 143.53 56.91 C 137.67 57.52 131.77 58.54 126.41 61.11 C 125.95 61.06 125.04 60.98 124.59 60.94 C 124.36 63.75 123.49 66.43 122.56 69.07 C 127.54 70.39 132.68 71.84 137.86 71.53 L 137.49 71.91 C 145.51 72.76 153.60 72.68 161.65 72.54 C 173.26 73.21 184.96 73.22 196.51 71.93 L 197.02 72.06 C 205.62 71.05 214.48 69.99 222.42 66.34 C 224.65 64.93 228.06 63.16 227.58 60.06 C 226.56 58.69 225.01 57.83 223.47 57.19 C 213.36 52.65 201.85 53.03 191.01 53.58 C 179.36 54.02 167.69 54.29 156.07 55.22 M 107.49 63.23 L 107.15 63.37 C 104.04 66.52 100.86 69.62 97.98 72.99 C 104.53 69.78 111.59 66.24 114.93 59.33 C 116.08 58.47 116.67 57.12 117.18 55.82 C 113.46 57.55 110.17 60.13 107.49 63.23 M 91.41 59.52 L 90.65 59.47 C 93.69 60.52 96.67 61.88 98.81 64.38 C 98.63 66.27 98.41 68.16 98.19 70.04 C 100.98 66.47 104.51 63.61 107.66 60.39 C 105.98 59.63 104.31 58.88 102.65 58.11 L 101.71 58.39 C 98.27 57.15 94.51 57.62 91.41 59.52 M 74.91 64.43 C 69.99 66.97 65.95 71.85 66.70 77.71 L 66.51 78.09 C 67.14 79.53 67.71 81.00 68.41 82.41 C 70.04 84.78 72.72 85.83 75.48 86.24 L 75.28 86.49 C 78.83 86.55 82.34 85.93 85.59 84.48 C 87.53 83.19 89.96 82.18 90.97 79.91 C 91.49 78.38 91.77 76.79 92.11 75.21 C 89.61 75.62 87.08 75.71 84.55 75.64 C 83.22 74.22 81.32 73.05 80.83 71.03 C 80.19 67.72 81.81 64.62 83.05 61.67 C 80.17 62.04 77.35 62.82 74.91 64.43 M 84.06 63.55 C 82.98 66.59 81.89 70.19 84.54 72.80 L 84.24 72.95 C 87.98 73.31 91.92 72.43 94.11 69.12 C 96.21 67.38 93.62 65.42 92.64 63.89 C 91.02 63.44 89.40 63.00 87.79 62.56 C 86.54 62.88 85.30 63.21 84.06 63.55 M 117.22 65.48 C 118.59 66.09 120.87 64.41 120.60 62.91 C 119.18 62.01 116.51 63.81 117.22 65.48 M 95.18 76.28 C 95.30 75.08 95.41 73.89 95.51 72.70 C 91.65 74.85 94.48 79.98 91.92 82.96 C 90.68 84.46 89.17 85.72 87.75 87.05 C 84.75 87.72 81.83 88.69 78.82 89.33 C 83.57 94.27 90.73 95.20 97.24 95.18 C 100.48 94.42 103.73 93.70 106.94 92.81 C 104.53 85.14 106.45 77.27 108.35 69.74 C 104.18 72.33 99.91 74.85 95.18 76.28 M 120.88 88.21 C 120.35 90.26 122.52 91.51 123.94 92.44 C 126.74 92.56 128.66 90.12 130.67 88.54 C 131.25 86.05 131.97 83.03 130.04 80.92 C 126.98 79.52 123.68 78.72 120.52 77.56 C 120.46 81.11 120.54 84.67 120.88 88.21 M 55.82 82.56 C 59.40 83.52 63.06 84.10 66.73 84.58 C 65.89 82.86 65.07 81.12 64.26 79.39 C 61.39 80.30 58.56 81.32 55.82 82.56 M 133.34 82.02 C 133.15 84.20 132.90 86.38 132.73 88.57 C 130.95 90.70 128.89 92.57 126.60 94.15 C 130.19 96.45 133.77 99.01 137.98 100.02 C 141.17 99.74 143.55 97.37 145.49 95.03 L 146.08 95.33 C 146.48 92.32 146.26 89.05 144.32 86.58 C 140.96 84.44 137.00 83.53 133.34 82.02 M 50.38 94.19 L 50.37 94.26 C 43.04 97.53 35.55 100.81 29.16 105.75 C 26.19 107.26 23.86 109.75 21.64 112.19 C 23.65 112.17 25.68 112.06 27.61 111.45 C 33.71 109.50 39.76 107.36 45.48 104.47 C 52.90 100.14 61.63 97.34 67.42 90.72 C 68.70 90.07 69.07 88.53 69.78 87.39 C 62.87 88.00 56.74 91.71 50.38 94.19 M 71.34 87.75 C 71.24 90.03 71.14 92.30 70.99 94.57 C 70.34 96.01 69.68 97.45 69.04 98.89 C 66.58 102.70 63.92 106.37 61.62 110.29 C 65.58 108.62 68.68 105.61 71.49 102.45 C 72.58 101.02 73.65 99.58 74.75 98.16 C 76.19 94.52 76.48 88.26 71.34 87.75 M 147.27 87.86 C 148.06 90.32 148.43 92.87 147.55 95.37 C 145.49 97.61 143.20 99.61 140.69 101.32 C 143.78 102.40 146.78 103.78 150.01 104.41 C 152.66 103.61 154.36 101.29 156.13 99.33 C 156.24 97.05 157.02 94.42 155.54 92.40 C 153.03 90.49 150.04 89.33 147.27 87.86 M 157.90 99.91 C 156.44 101.81 153.91 103.29 153.19 105.52 C 156.02 106.82 159.00 107.82 162.07 108.37 C 164.92 107.86 166.80 105.49 168.68 103.50 C 168.33 101.94 169.00 99.76 167.41 98.72 C 164.73 96.58 161.59 95.12 158.59 93.49 C 158.37 95.63 158.14 97.77 157.90 99.91 M 83.31 95.22 C 83.28 95.92 83.24 97.33 83.22 98.03 C 82.15 100.33 81.18 102.68 80.34 105.07 C 83.55 103.46 84.70 99.98 85.77 96.81 C 84.94 96.28 84.12 95.75 83.31 95.22 M 170.20 104.08 C 168.72 106.17 166.78 107.85 164.76 109.39 C 168.49 110.10 172.26 110.73 176.08 110.85 C 175.83 108.43 174.78 106.22 173.25 104.35 C 172.96 102.96 172.14 102.15 170.77 101.92 C 170.63 102.46 170.34 103.54 170.20 104.08 Z" />
<path fill="#fbfec1" opacity="1.00" d=" M 194.94 8.10 C 201.95 5.58 209.04 3.17 216.51 2.48 C 202.38 14.42 186.04 23.28 169.63 31.67 C 160.82 36.24 152.09 40.98 143.16 45.31 C 138.84 43.97 134.68 42.21 130.42 40.71 C 151.23 28.54 172.33 16.63 194.94 8.10 Z" />
<path fill="#b2929f" opacity="1.00" d=" M 216.51 2.48 C 218.56 2.47 220.61 2.50 222.66 2.59 C 218.83 9.51 212.83 14.93 206.70 19.78 C 199.83 25.01 193.09 30.48 185.42 34.52 C 175.93 39.43 165.82 42.96 155.90 46.89 C 152.44 48.19 149.15 49.98 145.56 50.88 C 142.14 50.88 138.78 50.14 135.50 49.25 C 138.06 47.96 140.59 46.60 143.16 45.31 C 152.09 40.98 160.82 36.24 169.63 31.67 C 186.04 23.28 202.38 14.42 216.51 2.48 Z" />
<path fill="#86e1f7" opacity="1.00" d=" M 72.61 32.65 C 75.83 32.15 75.23 37.85 72.05 36.88 C 68.94 37.35 70.05 32.33 72.61 32.65 Z" />
<path fill="#ecfdca" opacity="1.00" d=" M 124.42 44.42 C 126.44 43.22 128.44 41.98 130.42 40.71 C 134.68 42.21 138.84 43.97 143.16 45.31 C 140.59 46.60 138.06 47.96 135.50 49.25 C 134.63 49.66 133.76 50.06 132.89 50.46 C 129.91 48.67 127.09 46.64 124.42 44.42 Z" />
<path fill="#94fbff" opacity="1.00" d=" M 46.42 47.59 C 44.69 45.89 46.57 42.21 49.03 42.89 C 50.58 43.87 50.17 45.86 50.42 47.40 C 49.11 47.45 47.69 48.16 46.42 47.59 Z" />
<path fill="#d8fcd6" opacity="1.00" d=" M 107.26 57.50 C 112.94 53.08 118.41 48.39 124.42 44.42 C 127.09 46.64 129.91 48.67 132.89 50.46 C 128.86 52.20 124.88 54.05 120.89 55.90 C 120.31 55.40 119.73 54.90 119.14 54.40 C 118.30 53.46 116.92 52.79 115.85 53.79 C 113.52 55.27 111.53 57.20 109.41 58.94 C 108.69 58.46 107.98 57.98 107.26 57.50 Z" />
<path fill="#a796aa" opacity="1.00" d=" M 132.89 50.46 C 133.76 50.06 134.63 49.66 135.50 49.25 C 138.78 50.14 142.14 50.88 145.56 50.88 C 140.07 53.51 134.14 55.03 128.63 57.61 C 124.89 59.32 121.26 61.26 117.53 62.97 C 118.06 60.12 118.66 57.27 119.14 54.40 C 119.73 54.90 120.31 55.40 120.89 55.90 C 124.88 54.05 128.86 52.20 132.89 50.46 Z" />
<path fill="#fbfec1" opacity="1.00" d=" M 2.78 50.47 C 12.67 50.08 22.47 51.69 32.17 53.40 C 42.34 55.05 52.33 57.63 62.15 60.70 C 59.63 62.07 57.40 63.95 56.36 66.70 L 56.31 66.70 C 40.65 64.64 25.11 61.75 9.75 58.05 C 6.70 56.34 4.74 53.26 2.78 50.47 Z" />
<path fill="#fbfec1" opacity="1.00" d=" M 156.07 55.22 C 167.69 54.29 179.36 54.02 191.01 53.58 C 201.85 53.03 213.36 52.65 223.47 57.19 C 209.17 59.24 194.76 60.35 180.33 60.91 C 173.44 60.67 166.56 61.30 159.67 61.22 C 159.00 58.93 157.77 56.89 156.07 55.22 Z" />
<path fill="#ffff95" opacity="1.00" d=" M 107.49 63.23 C 110.17 60.13 113.46 57.55 117.18 55.82 C 116.67 57.12 116.08 58.47 114.93 59.33 C 112.60 60.90 110.12 62.23 107.49 63.23 Z" />
<path fill="#e7fdcd" opacity="1.00" d=" M 143.53 56.91 C 147.68 56.10 151.87 55.65 156.07 55.22 C 157.77 56.89 159.00 58.93 159.67 61.22 C 156.01 61.26 152.36 61.39 148.70 61.54 C 148.61 60.59 148.51 59.65 148.40 58.70 C 146.78 58.09 145.17 57.46 143.53 56.91 Z" />
<path fill="#ffff95" opacity="1.00" d=" M 91.41 59.52 C 94.51 57.62 98.27 57.15 101.71 58.39 C 98.43 59.66 94.88 59.90 91.41 59.52 Z" />
<path fill="#d7ffd9" opacity="1.00" d=" M 126.41 61.11 C 131.77 58.54 137.67 57.52 143.53 56.91 C 145.17 57.46 146.78 58.09 148.40 58.70 C 148.51 59.65 148.61 60.59 148.70 61.54 L 147.70 61.57 C 144.62 61.56 141.55 61.68 138.47 61.75 C 134.44 61.83 130.41 61.53 126.41 61.11 Z" />
<path fill="#aa849b" opacity="1.00" d=" M 223.47 57.19 C 225.01 57.83 226.56 58.69 227.58 60.06 C 228.06 63.16 224.65 64.93 222.42 66.34 C 214.48 69.99 205.62 71.05 197.02 72.06 L 196.51 71.93 C 193.36 70.93 190.05 70.67 186.76 70.59 C 187.07 67.75 187.68 64.94 188.80 62.30 C 185.94 62.10 183.11 61.62 180.33 60.91 C 194.76 60.35 209.17 59.24 223.47 57.19 Z" />
<path fill="#ba9da3" opacity="1.00" d=" M 9.75 58.05 C 25.11 61.75 40.65 64.64 56.31 66.70 C 54.54 70.62 50.35 71.39 46.55 72.13 L 46.11 72.23 C 33.22 70.23 20.07 66.32 9.75 58.05 Z" />
<path fill="#73a7fe" opacity="1.00" d=" M 101.71 58.39 L 102.65 58.11 C 101.42 60.23 100.13 62.32 98.81 64.38 C 96.67 61.88 93.69 60.52 90.65 59.47 L 91.41 59.52 C 94.88 59.90 98.43 59.66 101.71 58.39 Z" />
<path fill="#5969c2" opacity="1.00" d=" M 102.65 58.11 C 104.31 58.88 105.98 59.63 107.66 60.39 C 104.51 63.61 100.98 66.47 98.19 70.04 C 98.41 68.16 98.63 66.27 98.81 64.38 C 100.13 62.32 101.42 60.23 102.65 58.11 Z" />
<path fill="#5d4f74" opacity="1.00" d=" M 107.49 63.23 C 110.12 62.23 112.60 60.90 114.93 59.33 C 111.59 66.24 104.53 69.78 97.98 72.99 C 100.86 69.62 104.04 66.52 107.15 63.37 L 107.49 63.23 Z" />
<path fill="#e6fdcf" opacity="1.00" d=" M 62.15 60.70 C 65.05 61.72 68.02 62.57 70.87 63.74 C 69.92 65.38 68.31 66.50 67.03 67.86 L 66.81 67.83 C 63.33 67.43 59.84 67.09 56.36 66.70 C 57.40 63.95 59.63 62.07 62.15 60.70 Z" />
<path fill="#aaa7b4" opacity="1.00" d=" M 124.59 60.94 C 125.04 60.98 125.95 61.06 126.41 61.11 C 130.41 61.53 134.44 61.83 138.47 61.75 C 137.49 64.44 136.44 67.11 135.33 69.75 C 136.56 69.95 137.79 70.16 139.02 70.37 C 138.73 70.66 138.15 71.24 137.86 71.53 C 132.68 71.84 127.54 70.39 122.56 69.07 C 123.49 66.43 124.36 63.75 124.59 60.94 Z" />
<path fill="#b1909f" opacity="1.00" d=" M 148.70 61.54 C 152.36 61.39 156.01 61.26 159.67 61.22 C 166.56 61.30 173.44 60.67 180.33 60.91 C 183.11 61.62 185.94 62.10 188.80 62.30 C 187.68 64.94 187.07 67.75 186.76 70.59 C 190.05 70.67 193.36 70.93 196.51 71.93 C 184.96 73.22 173.26 73.21 161.65 72.54 C 163.12 72.19 164.57 71.77 166.03 71.35 C 161.19 70.98 156.33 70.89 151.47 70.88 C 152.52 68.37 153.58 65.85 154.64 63.33 C 152.33 62.72 150.03 62.08 147.70 61.57 L 148.70 61.54 Z" />
<path fill="#73a7fe" opacity="1.00" d=" M 74.91 64.43 C 77.35 62.82 80.17 62.04 83.05 61.67 C 81.81 64.62 80.19 67.72 80.83 71.03 C 81.32 73.05 83.22 74.22 84.55 75.64 C 82.85 76.79 81.15 77.94 79.38 78.99 C 77.92 79.76 76.40 80.39 74.84 80.93 C 72.72 81.52 70.57 81.99 68.41 82.41 C 67.71 81.00 67.14 79.53 66.51 78.09 L 66.70 77.71 C 67.90 74.74 69.72 72.11 72.64 70.63 C 75.08 69.52 74.67 66.62 74.91 64.43 Z" />
<path fill="#ab99aa" opacity="1.00" d=" M 138.47 61.75 C 141.55 61.68 144.62 61.56 147.70 61.57 C 150.03 62.08 152.33 62.72 154.64 63.33 C 153.58 65.85 152.52 68.37 151.47 70.88 C 156.33 70.89 161.19 70.98 166.03 71.35 C 164.57 71.77 163.12 72.19 161.65 72.54 C 153.60 72.68 145.51 72.76 137.49 71.91 L 137.86 71.53 C 138.15 71.24 138.73 70.66 139.02 70.37 C 137.79 70.16 136.56 69.95 135.33 69.75 C 136.44 67.11 137.49 64.44 138.47 61.75 Z" />
<path fill="#ffff95" opacity="1.00" d=" M 84.06 63.55 C 85.30 63.21 86.54 62.88 87.79 62.56 C 87.76 63.37 87.72 65.01 87.69 65.82 C 87.13 65.79 86.01 65.71 85.44 65.67 C 85.10 65.14 84.40 64.08 84.06 63.55 Z" />
<path fill="#92f7ff" opacity="1.00" d=" M 87.79 62.56 C 89.40 63.00 91.02 63.44 92.64 63.89 C 91.09 67.75 88.79 71.55 84.54 72.80 C 81.89 70.19 82.98 66.59 84.06 63.55 C 84.40 64.08 85.10 65.14 85.44 65.67 C 86.01 65.71 87.13 65.79 87.69 65.82 C 87.72 65.01 87.76 63.37 87.79 62.56 Z" />
<path fill="#5891cd" opacity="1.00" d=" M 92.64 63.89 C 93.62 65.42 96.21 67.38 94.11 69.12 C 91.92 72.43 87.98 73.31 84.24 72.95 L 84.54 72.80 C 88.79 71.55 91.09 67.75 92.64 63.89 Z" />
<path fill="#4f4da8" opacity="1.00" d=" M 108.06 79.78 C 109.45 74.13 109.88 67.48 114.77 63.58 C 114.11 67.82 113.33 72.06 113.26 76.37 C 111.43 77.35 109.60 78.37 108.06 79.78 Z" />
<path fill="#ffff95" opacity="1.00" d=" M 66.70 77.71 C 65.95 71.85 69.99 66.97 74.91 64.43 C 74.67 66.62 75.08 69.52 72.64 70.63 C 69.72 72.11 67.90 74.74 66.70 77.71 Z" />
<path fill="#7fbaff" opacity="1.00" d=" M 116.50 79.02 C 116.33 73.68 119.00 68.76 121.98 64.51 C 118.74 73.97 116.57 84.40 120.14 94.13 C 119.94 94.33 119.54 94.74 119.34 94.94 L 119.07 94.54 C 116.10 89.92 116.59 84.25 116.50 79.02 Z" />
<path fill="#b4a6ae" opacity="1.00" d=" M 56.31 66.70 L 56.36 66.70 C 59.84 67.09 63.33 67.43 66.81 67.83 C 65.83 70.03 64.93 72.27 64.27 74.59 C 58.43 73.35 52.47 72.82 46.55 72.13 C 50.35 71.39 54.54 70.62 56.31 66.70 Z" />
<path fill="#361c39" opacity="1.00" d=" M 95.18 76.28 C 99.91 74.85 104.18 72.33 108.35 69.74 C 106.45 77.27 104.53 85.14 106.94 92.81 C 103.73 93.70 100.48 94.42 97.24 95.18 C 98.02 92.56 100.40 88.68 97.05 86.89 C 94.01 86.07 90.81 86.61 87.75 87.05 C 89.17 85.72 90.68 84.46 91.92 82.96 C 94.48 79.98 91.65 74.85 95.51 72.70 C 95.41 73.89 95.30 75.08 95.18 76.28 Z" />
<path fill="#3f2878" opacity="1.00" d=" M 84.55 75.64 C 87.08 75.71 89.61 75.62 92.11 75.21 C 91.77 76.79 91.49 78.38 90.97 79.91 C 89.96 82.18 87.53 83.19 85.59 84.48 C 85.03 83.03 84.64 81.53 83.92 80.15 C 82.47 79.55 80.90 79.33 79.38 78.99 C 81.15 77.94 82.85 76.79 84.55 75.64 Z" />
<path fill="#6484dc" opacity="1.00" d=" M 108.06 79.78 C 109.60 78.37 111.43 77.35 113.26 76.37 C 113.25 79.19 113.28 82.02 113.39 84.84 C 112.52 85.70 111.65 86.56 110.79 87.42 C 110.12 87.44 108.78 87.47 108.11 87.49 C 107.75 84.94 107.66 82.33 108.06 79.78 Z" />
<path fill="#70a1f8" opacity="1.00" d=" M 120.88 88.21 C 120.54 84.67 120.46 81.11 120.52 77.56 C 123.68 78.72 126.98 79.52 130.04 80.92 C 131.97 83.03 131.25 86.05 130.67 88.54 C 127.94 86.42 124.99 84.61 121.87 83.13 C 121.52 84.82 121.16 86.51 120.88 88.21 Z" />
<path fill="#4e4ba0" opacity="1.00" d=" M 74.84 80.93 C 76.40 80.39 77.92 79.76 79.38 78.99 C 80.90 79.33 82.47 79.55 83.92 80.15 C 84.64 81.53 85.03 83.03 85.59 84.48 C 82.34 85.93 78.83 86.55 75.28 86.49 L 75.48 86.24 C 76.23 85.23 76.99 84.21 77.75 83.20 C 76.78 82.45 75.81 81.69 74.84 80.93 Z" />
<path fill="#63577b" opacity="1.00" d=" M 55.82 82.56 C 58.56 81.32 61.39 80.30 64.26 79.39 C 65.07 81.12 65.89 82.86 66.73 84.58 C 63.06 84.10 59.40 83.52 55.82 82.56 Z" />
<path fill="#5c70c6" opacity="1.00" d=" M 68.41 82.41 C 70.57 81.99 72.72 81.52 74.84 80.93 C 75.81 81.69 76.78 82.45 77.75 83.20 C 76.99 84.21 76.23 85.23 75.48 86.24 C 72.72 85.83 70.04 84.78 68.41 82.41 Z" />
<path fill="#615579" opacity="1.00" d=" M 133.34 82.02 C 137.00 83.53 140.96 84.44 144.32 86.58 C 146.26 89.05 146.48 92.32 146.08 95.33 L 145.49 95.03 C 141.45 92.47 136.25 91.92 132.73 88.57 C 132.90 86.38 133.15 84.20 133.34 82.02 Z" />
<path fill="#5051aa" opacity="1.00" d=" M 121.87 83.13 C 124.99 84.61 127.94 86.42 130.67 88.54 C 128.66 90.12 126.74 92.56 123.94 92.44 C 122.52 91.51 120.35 90.26 120.88 88.21 C 121.16 86.51 121.52 84.82 121.87 83.13 Z" />
<path fill="#70a2f9" opacity="1.00" d=" M 110.79 87.42 C 111.65 86.56 112.52 85.70 113.39 84.84 C 113.57 91.98 115.62 98.84 117.86 105.55 C 117.78 105.70 117.61 106.01 117.53 106.16 C 111.89 101.52 109.30 94.48 108.11 87.49 C 108.78 87.47 110.12 87.44 110.79 87.42 Z" />
<path fill="#483455" opacity="1.00" d=" M 87.75 87.05 C 90.81 86.61 94.01 86.07 97.05 86.89 C 100.40 88.68 98.02 92.56 97.24 95.18 C 90.73 95.20 83.57 94.27 78.82 89.33 C 81.83 88.69 84.75 87.72 87.75 87.05 Z" />
<path fill="#cdfedf" opacity="1.00" d=" M 50.38 94.19 C 56.74 91.71 62.87 88.00 69.78 87.39 C 69.07 88.53 68.70 90.07 67.42 90.72 C 61.58 92.97 55.91 95.61 50.13 97.99 C 50.21 96.75 50.29 95.50 50.37 94.26 L 50.38 94.19 Z" />
<path fill="#422a7e" opacity="1.00" d=" M 71.34 87.75 C 76.48 88.26 76.19 94.52 74.75 98.16 C 74.48 97.46 73.95 96.06 73.68 95.35 C 73.01 95.16 71.66 94.77 70.99 94.57 C 71.14 92.30 71.24 90.03 71.34 87.75 Z" />
<path fill="#3d2445" opacity="1.00" d=" M 126.60 94.15 C 128.89 92.57 130.95 90.70 132.73 88.57 C 136.25 91.92 141.45 92.47 145.49 95.03 C 143.55 97.37 141.17 99.74 137.98 100.02 C 133.77 99.01 130.19 96.45 126.60 94.15 Z" />
<path fill="#6d98f0" opacity="1.00" d=" M 147.27 87.86 C 150.04 89.33 153.03 90.49 155.54 92.40 C 157.02 94.42 156.24 97.05 156.13 99.33 C 153.25 98.05 150.39 96.73 147.55 95.37 C 148.43 92.87 148.06 90.32 147.27 87.86 Z" />
<path fill="#a899ac" opacity="1.00" d=" M 50.13 97.99 C 55.91 95.61 61.58 92.97 67.42 90.72 C 61.63 97.34 52.90 100.14 45.48 104.47 C 45.90 102.82 46.32 101.16 46.73 99.51 C 47.87 99.00 48.99 98.49 50.13 97.99 Z" />
<path fill="#615579" opacity="1.00" d=" M 157.90 99.91 C 158.14 97.77 158.37 95.63 158.59 93.49 C 161.59 95.12 164.73 96.58 167.41 98.72 C 169.00 99.76 168.33 101.94 168.68 103.50 C 165.10 102.26 161.52 101.03 157.90 99.91 Z" />
<path fill="#eeffcc" opacity="1.00" d=" M 29.16 105.75 C 35.55 100.81 43.04 97.53 50.37 94.26 C 50.29 95.50 50.21 96.75 50.13 97.99 C 48.99 98.49 47.87 99.00 46.73 99.51 C 40.95 101.79 35.34 104.73 29.16 105.75 Z" />
<path fill="#555db4" opacity="1.00" d=" M 70.99 94.57 C 71.66 94.77 73.01 95.16 73.68 95.35 C 73.95 96.06 74.48 97.46 74.75 98.16 C 73.65 99.58 72.58 101.02 71.49 102.45 C 70.67 101.26 69.86 100.08 69.04 98.89 C 69.68 97.45 70.34 96.01 70.99 94.57 Z" />
<path fill="#6484dc" opacity="1.00" d=" M 83.31 95.22 C 84.12 95.75 84.94 96.28 85.77 96.81 C 84.70 99.98 83.55 103.46 80.34 105.07 C 81.18 102.68 82.15 100.33 83.22 98.03 C 83.24 97.33 83.28 95.92 83.31 95.22 Z" />
<path fill="#4a439b" opacity="1.00" d=" M 140.69 101.32 C 143.20 99.61 145.49 97.61 147.55 95.37 C 150.39 96.73 153.25 98.05 156.13 99.33 C 154.36 101.29 152.66 103.61 150.01 104.41 C 146.78 103.78 143.78 102.40 140.69 101.32 Z" />
<path fill="#70a1f8" opacity="1.00" d=" M 69.04 98.89 C 69.86 100.08 70.67 101.26 71.49 102.45 C 68.68 105.61 65.58 108.62 61.62 110.29 C 63.92 106.37 66.58 102.70 69.04 98.89 Z" />
<path fill="#b395a2" opacity="1.00" d=" M 29.16 105.75 C 35.34 104.73 40.95 101.79 46.73 99.51 C 46.32 101.16 45.90 102.82 45.48 104.47 C 39.76 107.36 33.71 109.50 27.61 111.45 C 25.68 112.06 23.65 112.17 21.64 112.19 C 23.86 109.75 26.19 107.26 29.16 105.75 Z" />
<path fill="#3c2443" opacity="1.00" d=" M 153.19 105.52 C 153.91 103.29 156.44 101.81 157.90 99.91 C 161.52 101.03 165.10 102.26 168.68 103.50 C 166.80 105.49 164.92 107.86 162.07 108.37 C 159.00 107.82 156.02 106.82 153.19 105.52 Z" />
<path fill="#73a7fe" opacity="1.00" d=" M 170.20 104.08 C 170.34 103.54 170.63 102.46 170.77 101.92 C 172.14 102.15 172.96 102.96 173.25 104.35 C 172.44 105.44 170.90 105.06 170.20 104.08 Z" />
<path fill="#473d97" opacity="1.00" d=" M 170.20 104.08 C 170.90 105.06 172.44 105.44 173.25 104.35 C 174.78 106.22 175.83 108.43 176.08 110.85 C 172.26 110.73 168.49 110.10 164.76 109.39 C 166.78 107.85 168.72 106.17 170.20 104.08 Z" />
<path fill="#000000" opacity="1.00" d=" M 97.48 146.80 C 104.61 145.90 111.79 145.28 118.98 145.58 C 126.35 145.84 133.88 145.78 141.02 147.86 C 143.06 148.54 145.79 149.45 146.02 151.98 C 146.09 154.31 143.73 155.43 141.90 156.15 C 136.13 158.21 129.94 158.58 123.90 159.17 C 109.98 160.11 96.01 160.02 82.07 159.68 C 78.28 159.27 73.91 159.56 70.77 157.05 C 69.48 154.75 72.17 153.36 73.86 152.57 C 81.32 149.26 89.47 147.99 97.48 146.80 Z" />
</svg>
