<?xml version="1.0" encoding="UTF-8" ?>
<!DOCTYPE svg PUBLIC "-//W3C//DTD SVG 1.1//EN" "http://www.w3.org/Graphics/SVG/1.1/DTD/svg11.dtd">
<svg width="136pt" height="207pt" viewBox="0 0 136 207" version="1.1" xmlns="http://www.w3.org/2000/svg">
<path fill="#000000" opacity="1.00" d=" M 61.80 0.00 L 63.06 0.00 C 63.77 1.62 63.99 3.39 63.70 5.13 C 62.44 14.52 60.99 23.89 59.00 33.16 C 62.51 33.72 66.09 33.80 69.58 34.51 C 71.30 35.06 73.73 35.94 73.70 38.12 C 74.08 43.56 71.79 48.65 69.87 53.61 C 71.30 54.27 73.82 53.97 73.95 56.08 C 73.45 57.13 72.92 58.16 72.33 59.16 C 74.66 59.32 77.42 58.98 79.20 60.85 C 81.43 62.82 80.67 66.81 78.21 68.25 C 76.70 68.84 75.09 69.08 73.53 69.47 C 76.41 73.97 79.39 78.41 82.21 82.96 C 83.76 82.06 85.46 80.62 87.25 81.91 C 94.33 85.71 100.23 91.47 105.23 97.70 C 109.46 93.08 110.69 86.67 114.67 81.92 C 115.09 88.41 116.25 94.94 115.18 101.44 C 114.86 106.72 111.06 111.11 106.61 113.61 C 105.03 115.97 103.53 118.61 100.95 120.01 C 99.16 120.70 97.22 120.82 95.40 121.36 C 90.83 125.34 88.00 131.15 88.26 137.27 C 84.18 140.04 80.08 142.79 76.31 145.99 C 86.07 156.78 94.37 168.85 101.10 181.74 C 102.22 183.91 103.13 186.21 104.55 188.21 C 114.15 190.08 124.42 188.62 133.60 192.44 C 135.95 192.95 136.47 196.05 135.05 197.73 C 133.88 199.06 132.15 199.69 130.57 200.38 C 125.22 202.47 119.72 204.39 113.99 205.09 C 95.72 207.22 77.30 206.87 58.95 206.89 C 43.14 206.88 27.26 207.05 11.53 205.14 C 8.16 204.62 4.58 204.17 1.67 202.25 C -0.07 200.95 0.08 198.08 1.75 196.80 C 4.71 194.50 8.57 194.04 12.06 193.02 C 19.81 190.85 27.86 190.34 35.73 188.80 C 37.39 181.26 38.92 173.67 39.90 166.01 C 34.24 167.73 28.78 169.98 23.27 172.10 C 15.71 174.99 8.26 178.80 0.00 179.05 L 0.00 178.65 C 3.66 175.31 8.12 173.06 12.02 170.05 C 20.92 163.04 31.04 157.75 40.02 150.92 C 41.34 137.92 32.74 127.08 29.80 114.96 C 32.00 113.95 34.31 113.21 36.70 112.81 C 34.98 109.39 31.72 104.49 35.54 101.29 C 36.12 101.73 37.30 102.61 37.89 103.05 C 39.10 102.60 40.34 102.28 41.61 102.10 C 42.47 99.66 44.49 98.27 47.08 98.37 C 52.41 93.83 56.07 87.45 57.12 80.51 C 54.58 80.73 52.03 80.95 49.48 81.17 C 48.28 84.45 47.23 88.16 44.18 90.24 C 40.32 92.95 37.08 96.48 32.92 98.75 C 29.69 100.61 26.44 102.43 23.15 104.18 C 23.05 104.84 22.85 106.15 22.76 106.81 C 21.22 107.67 19.65 108.49 18.07 109.27 C 21.01 110.52 23.98 113.45 22.86 116.91 C 21.16 120.27 17.79 122.35 14.81 124.47 C 15.04 122.18 15.33 119.89 15.64 117.61 C 14.99 117.64 13.69 117.70 13.04 117.73 C 13.20 116.79 13.53 114.90 13.69 113.96 C 11.31 117.30 9.55 121.03 7.28 124.44 L 6.45 123.94 C 5.81 118.28 6.44 112.52 8.14 107.10 C 9.24 105.95 10.40 104.50 10.02 102.79 C 12.40 102.01 14.39 103.17 15.87 104.98 C 17.47 101.98 19.36 99.14 21.59 96.57 C 26.97 90.26 31.87 83.26 38.92 78.65 C 38.68 82.26 37.95 85.80 37.33 89.36 C 41.93 85.70 44.93 80.54 47.16 75.20 C 44.39 73.49 44.23 70.24 46.36 67.91 C 43.33 64.63 42.77 59.44 45.52 55.81 C 44.69 53.90 43.37 52.10 43.24 49.96 C 43.36 47.50 44.60 45.30 45.48 43.05 C 39.67 43.21 34.60 40.25 29.97 37.10 C 30.87 45.73 28.89 56.23 20.65 60.78 C 25.30 51.25 28.58 39.18 22.57 29.49 C 30.37 30.49 37.27 34.84 43.76 39.02 C 43.74 39.36 43.70 40.04 43.69 40.38 C 39.21 38.00 34.70 35.61 29.89 33.97 C 33.75 37.46 38.46 40.42 43.75 40.95 C 44.46 41.33 45.28 41.18 46.04 41.12 C 49.32 38.18 52.88 35.48 56.89 33.62 C 58.24 26.16 57.70 18.49 59.38 11.09 C 60.15 7.38 60.91 3.68 61.80 0.00 M 26.18 33.75 C 27.95 40.50 26.61 47.42 25.22 54.10 C 27.75 51.71 27.85 47.95 28.64 44.78 C 29.43 41.02 29.25 36.47 26.18 33.75 M 58.85 34.76 C 58.39 37.25 57.90 39.72 57.32 42.18 C 56.00 40.48 56.50 38.18 56.27 36.19 C 50.46 39.08 45.17 44.75 45.59 51.63 C 46.53 53.19 47.32 54.94 48.95 55.92 C 48.77 56.26 48.41 56.92 48.23 57.26 L 47.44 57.06 C 44.17 56.73 45.22 60.76 45.38 62.71 C 45.34 62.99 45.27 63.53 45.23 63.80 C 47.65 63.22 48.64 60.26 50.80 59.04 C 49.21 58.45 50.25 56.81 51.37 56.93 C 53.96 57.31 56.56 57.70 59.18 57.85 C 59.80 56.69 60.41 55.53 61.04 54.37 C 62.92 54.40 64.80 54.47 66.68 54.56 C 68.58 49.23 71.77 43.87 71.05 38.05 C 69.61 36.37 66.83 36.59 64.82 35.89 C 62.83 35.55 60.83 35.17 58.85 34.76 M 68.92 54.59 C 68.45 56.17 68.08 57.77 67.82 59.40 C 69.72 59.04 70.87 57.52 72.04 56.14 C 70.97 55.67 69.93 55.15 68.92 54.59 M 61.23 56.23 C 60.18 58.19 59.28 60.23 58.51 62.32 L 58.20 62.49 C 57.38 63.75 56.58 65.03 55.79 66.32 C 59.08 64.58 62.49 62.78 65.08 60.05 C 66.37 58.94 67.16 56.83 64.76 56.40 C 63.58 56.35 62.40 56.29 61.23 56.23 M 48.41 68.00 C 49.43 66.13 50.18 64.10 51.40 62.34 C 53.48 61.02 55.96 60.55 58.17 59.47 C 52.80 57.81 48.61 63.15 48.41 68.00 M 62.78 64.50 C 59.55 65.94 56.59 67.97 53.17 68.97 C 52.43 68.12 51.70 67.28 50.94 66.45 C 50.04 70.26 48.99 74.07 48.82 78.00 C 50.81 80.12 54.00 78.08 56.44 77.92 C 61.77 77.16 65.80 73.20 69.42 69.53 C 69.49 66.86 69.93 64.21 70.86 61.70 C 67.97 61.95 64.96 62.40 62.78 64.50 M 71.68 62.81 C 71.04 63.98 71.47 65.39 71.39 66.65 C 73.65 66.57 77.06 66.87 77.67 63.97 C 76.94 61.49 73.44 61.57 71.68 62.81 M 51.55 65.31 C 52.22 65.97 52.88 66.64 53.53 67.32 C 54.63 65.64 55.73 63.96 56.76 62.24 C 54.83 62.90 52.95 63.79 51.55 65.31 M 47.25 69.27 C 45.87 69.64 45.65 72.29 47.08 72.72 C 48.75 72.60 48.98 69.46 47.25 69.27 M 72.08 69.86 C 71.87 72.29 72.43 74.66 73.15 76.96 L 73.41 76.84 C 74.92 79.60 77.23 81.78 79.99 83.26 C 78.73 80.70 77.13 78.33 75.63 75.90 C 74.63 73.79 73.48 71.74 72.08 69.86 M 63.57 77.85 C 64.72 80.89 65.14 84.27 64.31 87.45 C 63.07 90.87 60.20 93.28 57.91 95.99 C 60.35 95.19 62.78 93.98 65.43 94.37 C 65.83 98.91 63.90 103.11 62.09 107.14 C 62.84 107.15 64.35 107.17 65.11 107.18 C 66.52 114.83 66.35 122.70 68.25 130.29 C 76.08 124.05 82.94 116.38 86.98 107.12 C 87.40 107.50 88.24 108.26 88.65 108.64 C 87.69 109.77 86.92 111.02 86.33 112.38 L 86.28 112.39 C 85.12 114.45 83.88 116.47 82.64 118.48 C 75.91 126.43 68.27 133.71 59.56 139.45 C 53.48 143.63 47.76 148.32 41.50 152.23 C 35.79 155.91 30.15 159.69 24.43 163.37 C 21.55 165.39 18.25 166.95 15.98 169.73 C 26.39 165.29 36.80 160.84 47.07 156.10 C 50.73 154.30 54.60 152.64 57.49 149.68 C 60.38 149.01 62.44 146.59 65.03 145.27 C 63.98 144.60 62.91 143.97 61.82 143.37 C 69.17 144.33 73.74 137.74 79.20 134.14 C 76.74 134.01 73.92 135.11 71.75 133.57 C 74.43 133.14 77.12 132.75 79.77 132.12 C 80.37 131.85 81.58 131.31 82.18 131.04 C 83.03 125.64 88.60 122.97 92.66 120.11 C 89.88 118.33 88.26 115.45 89.08 112.11 C 89.43 111.68 90.11 110.81 90.45 110.37 C 92.29 107.15 92.98 103.50 93.93 99.97 C 96.13 97.61 97.90 101.81 99.22 103.19 C 100.06 102.43 100.90 101.66 101.74 100.89 C 97.27 97.21 91.56 95.57 86.91 92.16 C 83.11 90.09 80.53 86.56 77.08 84.08 C 72.80 81.92 70.64 77.33 69.68 72.85 C 67.71 74.60 65.65 76.24 63.57 77.85 M 58.27 80.10 C 58.27 82.04 58.27 83.99 58.29 85.93 C 57.26 89.84 54.73 93.02 52.82 96.50 C 57.00 93.80 60.88 89.96 62.20 85.03 C 61.94 83.24 62.31 81.24 61.32 79.63 C 60.32 79.19 59.27 79.98 58.27 80.10 M 40.07 90.11 C 44.29 88.27 46.05 83.77 47.68 79.80 C 44.71 82.85 42.90 86.89 40.07 90.11 M 21.38 100.31 L 20.90 100.41 C 20.14 101.70 19.44 103.01 18.77 104.35 C 22.60 102.89 25.92 100.45 29.45 98.41 C 32.49 96.62 35.73 94.98 38.03 92.20 C 35.99 90.67 35.38 88.33 35.77 85.89 C 35.89 85.30 36.13 84.13 36.25 83.54 C 30.35 88.19 26.17 94.60 21.38 100.31 M 84.35 87.63 C 86.42 89.57 88.92 90.98 91.26 92.56 C 95.22 94.60 99.28 96.47 102.94 99.05 C 100.02 94.62 96.43 90.48 91.83 87.76 L 91.88 87.29 C 89.64 85.67 87.27 84.25 84.83 82.98 C 84.46 84.39 82.76 86.39 84.35 87.63 M 108.74 95.61 C 105.89 99.06 102.67 102.23 99.02 104.84 C 100.23 106.59 101.45 108.34 102.73 110.04 C 105.43 108.36 107.16 105.93 106.91 102.67 C 107.21 103.33 107.80 104.64 108.10 105.30 C 111.45 102.42 109.41 98.24 110.16 94.55 C 110.58 96.09 110.88 97.67 111.22 99.24 C 113.22 95.45 113.10 91.01 113.60 86.86 C 111.65 89.59 110.91 93.02 108.74 95.61 M 54.18 98.07 C 52.77 98.73 52.70 99.39 53.97 100.05 C 55.37 99.38 55.44 98.72 54.18 98.07 M 50.32 107.44 C 48.65 109.52 49.49 112.29 49.51 114.72 C 50.49 114.40 51.47 114.07 52.46 113.75 C 52.52 111.41 51.83 108.52 53.89 106.81 C 55.51 105.73 57.56 105.80 59.42 105.50 C 60.73 102.85 61.88 100.12 62.69 97.27 C 57.50 99.01 53.39 103.03 50.32 107.44 M 112.72 99.79 C 111.04 104.53 107.54 108.30 102.90 110.29 C 105.33 113.42 108.20 109.72 110.10 107.99 C 111.97 105.88 114.08 102.59 112.72 99.79 M 43.22 104.05 C 43.09 105.87 43.49 107.66 44.07 109.39 C 47.10 107.14 49.09 103.79 50.80 100.50 C 50.28 100.56 49.26 100.68 48.75 100.74 C 45.81 99.01 43.59 101.21 43.22 104.05 M 92.17 112.19 C 90.58 114.05 91.54 116.30 93.20 117.73 C 95.38 117.86 97.76 118.87 99.82 117.70 C 101.35 116.66 102.50 115.18 103.79 113.88 C 101.28 112.61 99.91 110.16 98.45 107.90 C 97.86 105.81 97.11 103.78 96.39 101.75 C 94.47 104.97 94.50 109.08 92.17 112.19 M 9.28 109.73 C 9.14 110.44 8.86 111.86 8.72 112.57 L 8.67 112.00 C 8.15 114.18 7.97 116.42 8.08 118.66 C 10.57 115.58 12.83 112.29 15.01 108.98 C 14.78 108.32 14.34 106.98 14.11 106.32 C 13.97 105.98 13.69 105.30 13.55 104.97 L 13.11 103.55 C 10.54 104.55 9.93 107.36 9.28 109.73 M 35.85 103.99 C 36.63 108.24 39.24 111.90 41.87 115.22 C 41.74 112.17 41.66 108.83 39.81 106.25 C 38.62 105.28 37.20 104.67 35.85 103.99 M 17.40 106.39 C 15.84 107.96 18.77 108.69 19.51 107.33 C 21.14 105.77 18.13 105.00 17.40 106.39 M 56.25 108.49 L 55.00 108.69 C 55.40 113.93 55.97 119.54 59.83 123.53 C 61.51 126.78 63.87 129.69 66.55 132.18 C 63.40 124.98 63.51 116.91 63.55 109.20 C 61.16 108.63 58.71 108.33 56.25 108.49 M 15.14 112.43 C 15.10 113.08 15.03 114.40 15.00 115.06 C 15.81 114.03 16.63 113.02 17.47 112.03 C 17.21 115.14 16.87 118.25 16.72 121.37 C 17.50 120.67 18.27 119.96 19.04 119.24 C 21.67 117.63 22.22 113.90 19.57 111.96 L 19.82 111.46 C 18.28 111.86 16.69 112.04 15.14 112.43 M 44.68 111.77 C 44.36 114.89 45.09 118.32 42.78 120.86 C 43.13 127.05 43.30 133.27 42.53 139.44 C 44.25 139.38 45.96 139.33 47.68 139.27 C 48.05 141.29 48.28 143.34 48.33 145.40 C 53.15 142.20 57.68 138.58 62.49 135.36 C 63.23 134.64 64.55 134.25 64.79 133.15 C 59.92 128.61 55.76 123.23 53.19 117.04 C 51.48 117.38 49.48 118.41 47.86 117.23 C 46.44 115.46 46.32 113.14 46.25 110.98 C 45.86 111.18 45.07 111.58 44.68 111.77 M 31.95 115.64 C 33.53 119.16 35.24 122.63 36.92 126.10 C 38.06 128.80 39.22 131.50 40.54 134.11 C 40.24 129.41 41.46 124.39 39.57 119.93 C 39.36 117.96 39.14 115.31 37.21 114.27 C 35.41 114.53 33.69 115.12 31.95 115.64 M 83.75 128.95 C 83.52 131.42 83.22 133.89 83.05 136.37 C 82.65 135.80 81.87 134.65 81.47 134.08 C 77.16 137.30 73.11 140.85 68.85 144.15 C 68.73 144.84 68.49 146.23 68.37 146.93 C 68.04 146.57 67.39 145.86 67.06 145.50 C 61.35 149.42 55.60 153.32 49.38 156.40 C 37.76 161.99 25.70 166.61 13.95 171.90 C 10.44 173.52 6.95 175.26 3.91 177.68 C 13.81 175.12 22.78 169.91 32.39 166.46 C 41.88 163.09 51.24 159.26 59.80 153.88 C 69.31 149.02 77.41 141.99 86.41 136.35 C 86.48 131.49 88.49 127.02 91.00 122.96 C 88.04 124.24 85.97 126.73 83.75 128.95 M 42.25 141.17 C 42.53 143.86 42.74 146.57 42.74 149.28 C 43.68 148.71 44.61 148.12 45.51 147.49 C 45.94 145.48 45.76 143.40 45.79 141.35 C 44.61 141.29 43.43 141.23 42.25 141.17 M 71.95 148.56 C 70.80 149.63 70.77 151.10 71.56 152.40 C 75.31 159.36 80.46 165.42 85.55 171.43 C 88.84 174.99 91.31 179.21 94.57 182.79 C 94.76 184.18 96.05 185.12 96.82 186.23 C 99.89 189.58 101.84 193.77 104.95 197.10 C 102.33 185.92 95.80 176.17 90.00 166.42 L 89.74 166.40 C 85.75 159.37 80.35 153.32 75.60 146.83 C 74.40 147.44 73.19 148.04 71.95 148.56 M 68.52 151.03 C 61.75 155.37 54.71 159.31 47.48 162.83 C 47.59 165.43 47.38 168.05 46.38 170.49 C 44.10 176.57 42.21 182.82 39.38 188.69 C 45.93 188.29 52.50 188.29 59.02 187.53 C 71.08 186.88 83.18 187.44 95.25 187.13 C 86.88 174.69 75.11 164.66 68.52 151.03 M 41.32 165.13 C 41.74 171.24 39.59 177.11 39.29 183.17 C 42.04 177.08 44.20 170.68 45.69 164.16 C 44.22 164.44 42.77 164.77 41.32 165.13 Z" />
<path fill="#96583f" opacity="1.00" d=" M 26.18 33.75 C 29.25 36.47 29.43 41.02 28.64 44.78 C 27.85 47.95 27.75 51.71 25.22 54.10 C 26.61 47.42 27.95 40.50 26.18 33.75 Z" />
<path fill="#eabe4f" opacity="1.00" d=" M 29.89 33.97 C 34.70 35.61 39.21 38.00 43.69 40.38 L 43.75 40.95 C 38.46 40.42 33.75 37.46 29.89 33.97 Z" />
<path fill="#e24a5d" opacity="1.00" d=" M 58.85 34.76 C 60.83 35.17 62.83 35.55 64.82 35.89 C 64.89 36.25 65.01 36.96 65.07 37.32 C 61.71 40.67 57.72 43.91 56.76 48.84 C 56.31 49.91 55.93 51.07 55.09 51.91 C 51.92 51.83 48.76 51.54 45.59 51.63 C 45.17 44.75 50.46 39.08 56.27 36.19 C 56.50 38.18 56.00 40.48 57.32 42.18 C 57.90 39.72 58.39 37.25 58.85 34.76 Z" />
<path fill="#9a3164" opacity="1.00" d=" M 64.82 35.89 C 66.83 36.59 69.61 36.37 71.05 38.05 C 71.77 43.87 68.58 49.23 66.68 54.56 C 64.80 54.47 62.92 54.40 61.04 54.37 C 60.41 55.53 59.80 56.69 59.18 57.85 C 56.56 57.70 53.96 57.31 51.37 56.93 C 50.25 56.81 49.21 58.45 50.80 59.04 C 48.64 60.26 47.65 63.22 45.23 63.80 C 45.27 63.53 45.34 62.99 45.38 62.71 C 46.44 60.96 47.82 59.32 48.23 57.26 C 48.41 56.92 48.77 56.26 48.95 55.92 C 47.32 54.94 46.53 53.19 45.59 51.63 C 48.76 51.54 51.92 51.83 55.09 51.91 C 55.93 51.07 56.31 49.91 56.76 48.84 C 56.84 50.54 56.98 52.24 57.12 53.94 C 63.43 54.71 69.28 49.18 69.50 42.99 C 69.58 40.24 67.79 37.85 65.07 37.32 C 65.01 36.96 64.89 36.25 64.82 35.89 Z" />
<path fill="#000000" opacity="1.00" d=" M 56.76 48.84 C 57.72 43.91 61.71 40.67 65.07 37.32 C 67.79 37.85 69.58 40.24 69.50 42.99 C 69.28 49.18 63.43 54.71 57.12 53.94 C 56.98 52.24 56.84 50.54 56.76 48.84 M 64.22 40.64 C 61.23 42.80 58.99 46.09 58.44 49.78 C 58.38 50.29 58.27 51.31 58.21 51.82 C 60.46 51.60 62.60 50.93 64.38 49.51 C 67.45 46.92 68.79 42.65 66.63 39.03 C 65.83 39.51 64.50 39.61 64.22 40.64 Z" />
<path fill="#9c3d74" opacity="1.00" d=" M 64.22 40.64 C 64.50 39.61 65.83 39.51 66.63 39.03 C 68.79 42.65 67.45 46.92 64.38 49.51 C 64.15 47.29 63.90 45.08 63.77 42.86 C 63.88 42.30 64.11 41.20 64.22 40.64 Z" />
<path fill="#d2cdb0" opacity="1.00" d=" M 58.44 49.78 C 58.99 46.09 61.23 42.80 64.22 40.64 C 64.11 41.20 63.88 42.30 63.77 42.86 C 62.30 45.39 60.29 47.54 58.44 49.78 Z" />
<path fill="#eabe4f" opacity="1.00" d=" M 58.44 49.78 C 60.29 47.54 62.30 45.39 63.77 42.86 C 63.90 45.08 64.15 47.29 64.38 49.51 C 62.60 50.93 60.46 51.60 58.21 51.82 C 58.27 51.31 58.38 50.29 58.44 49.78 Z" />
<path fill="#4b1946" opacity="1.00" d=" M 68.92 54.59 C 69.93 55.15 70.97 55.67 72.04 56.14 C 70.87 57.52 69.72 59.04 67.82 59.40 C 68.08 57.77 68.45 56.17 68.92 54.59 Z" />
<path fill="#cda670" opacity="1.00" d=" M 61.23 56.23 C 62.40 56.29 63.58 56.35 64.76 56.40 C 62.81 58.51 61.25 61.13 58.51 62.32 C 59.28 60.23 60.18 58.19 61.23 56.23 Z" />
<path fill="#c59869" opacity="1.00" d=" M 45.38 62.71 C 45.22 60.76 44.17 56.73 47.44 57.06 L 48.23 57.26 C 47.82 59.32 46.44 60.96 45.38 62.71 Z" />
<path fill="#c27164" opacity="1.00" d=" M 58.51 62.32 C 61.25 61.13 62.81 58.51 64.76 56.40 C 67.16 56.83 66.37 58.94 65.08 60.05 C 62.49 62.78 59.08 64.58 55.79 66.32 C 56.58 65.03 57.38 63.75 58.20 62.49 L 58.51 62.32 Z" />
<path fill="#8e2b6c" opacity="1.00" d=" M 48.41 68.00 C 48.61 63.15 52.80 57.81 58.17 59.47 C 55.96 60.55 53.48 61.02 51.40 62.34 C 50.18 64.10 49.43 66.13 48.41 68.00 Z" />
<path fill="#a53468" opacity="1.00" d=" M 62.78 64.50 C 64.96 62.40 67.97 61.95 70.86 61.70 C 69.93 64.21 69.49 66.86 69.42 69.53 C 65.80 73.20 61.77 77.16 56.44 77.92 C 59.10 73.53 62.41 69.56 64.86 65.04 C 64.34 64.91 63.30 64.64 62.78 64.50 Z" />
<path fill="#a5365e" opacity="1.00" d=" M 71.68 62.81 C 73.44 61.57 76.94 61.49 77.67 63.97 C 77.06 66.87 73.65 66.57 71.39 66.65 C 71.47 65.39 71.04 63.98 71.68 62.81 Z" />
<path fill="#a1317c" opacity="1.00" d=" M 51.55 65.31 C 52.95 63.79 54.83 62.90 56.76 62.24 C 55.73 63.96 54.63 65.64 53.53 67.32 C 52.88 66.64 52.22 65.97 51.55 65.31 Z" />
<path fill="#dc4767" opacity="1.00" d=" M 53.17 68.97 C 56.59 67.97 59.55 65.94 62.78 64.50 C 63.30 64.64 64.34 64.91 64.86 65.04 C 62.41 69.56 59.10 73.53 56.44 77.92 C 54.00 78.08 50.81 80.12 48.82 78.00 C 48.99 74.07 50.04 70.26 50.94 66.45 C 51.70 67.28 52.43 68.12 53.17 68.97 Z" />
<path fill="#da485c" opacity="1.00" d=" M 47.25 69.27 C 48.98 69.46 48.75 72.60 47.08 72.72 C 45.65 72.29 45.87 69.64 47.25 69.27 Z" />
<path fill="#682052" opacity="1.00" d=" M 72.08 69.86 C 73.48 71.74 74.63 73.79 75.63 75.90 C 75.08 76.13 73.97 76.61 73.41 76.84 L 73.15 76.96 C 72.43 74.66 71.87 72.29 72.08 69.86 Z" />
<path fill="#e34b5f" opacity="1.00" d=" M 73.41 76.84 C 73.97 76.61 75.08 76.13 75.63 75.90 C 77.13 78.33 78.73 80.70 79.99 83.26 C 77.23 81.78 74.92 79.60 73.41 76.84 Z" />
<path fill="#4f1b53" opacity="1.00" d=" M 58.27 80.10 C 59.27 79.98 60.32 79.19 61.32 79.63 C 62.31 81.24 61.94 83.24 62.20 85.03 C 60.89 85.33 59.59 85.63 58.29 85.93 C 58.27 83.99 58.27 82.04 58.27 80.10 Z" />
<path fill="#912c6a" opacity="1.00" d=" M 40.07 90.11 C 42.90 86.89 44.71 82.85 47.68 79.80 C 46.05 83.77 44.29 88.27 40.07 90.11 Z" />
<path fill="#e44b5a" opacity="1.00" d=" M 21.38 100.31 C 26.17 94.60 30.35 88.19 36.25 83.54 C 36.13 84.13 35.89 85.30 35.77 85.89 C 35.27 90.51 30.98 92.98 27.98 95.97 C 25.95 97.61 24.15 100.02 21.38 100.31 Z" />
<path fill="#d1436e" opacity="1.00" d=" M 84.35 87.63 C 82.76 86.39 84.46 84.39 84.83 82.98 C 87.27 84.25 89.64 85.67 91.88 87.29 L 91.83 87.76 C 91.63 89.35 91.45 90.96 91.26 92.56 C 88.92 90.98 86.42 89.57 84.35 87.63 Z" />
<path fill="#8e2b6c" opacity="1.00" d=" M 58.29 85.93 C 59.59 85.63 60.89 85.33 62.20 85.03 C 60.88 89.96 57.00 93.80 52.82 96.50 C 54.73 93.02 57.26 89.84 58.29 85.93 Z" />
<path fill="#912c6a" opacity="1.00" d=" M 27.98 95.97 C 30.98 92.98 35.27 90.51 35.77 85.89 C 35.38 88.33 35.99 90.67 38.03 92.20 C 35.73 94.98 32.49 96.62 29.45 98.41 C 25.92 100.45 22.60 102.89 18.77 104.35 C 19.44 103.01 20.14 101.70 20.90 100.41 L 21.38 100.31 C 24.15 100.02 25.95 97.61 27.98 95.97 Z" />
<path fill="#79c27b" opacity="1.00" d=" M 108.74 95.61 C 110.91 93.02 111.65 89.59 113.60 86.86 C 113.10 91.01 113.22 95.45 111.22 99.24 C 110.88 97.67 110.58 96.09 110.16 94.55 C 109.41 98.24 111.45 102.42 108.10 105.30 C 107.80 104.64 107.21 103.33 106.91 102.67 C 107.16 105.93 105.43 108.36 102.73 110.04 C 101.45 108.34 100.23 106.59 99.02 104.84 C 102.67 102.23 105.89 99.06 108.74 95.61 Z" />
<path fill="#a1317c" opacity="1.00" d=" M 91.83 87.76 C 96.43 90.48 100.02 94.62 102.94 99.05 C 99.28 96.47 95.22 94.60 91.26 92.56 C 91.45 90.96 91.63 89.35 91.83 87.76 Z" />
<path fill="#341029" opacity="1.00" d=" M 54.18 98.07 C 55.44 98.72 55.37 99.38 53.97 100.05 C 52.70 99.39 52.77 98.73 54.18 98.07 Z" />
<path fill="#c63f6f" opacity="1.00" d=" M 50.32 107.44 C 53.39 103.03 57.50 99.01 62.69 97.27 C 61.88 100.12 60.73 102.85 59.42 105.50 C 57.56 105.80 55.51 105.73 53.89 106.81 C 51.83 108.52 52.52 111.41 52.46 113.75 C 51.47 114.07 50.49 114.40 49.51 114.72 C 49.49 112.29 48.65 109.52 50.32 107.44 Z" />
<path fill="#3f8377" opacity="1.00" d=" M 112.72 99.79 C 114.08 102.59 111.97 105.88 110.10 107.99 C 108.20 109.72 105.33 113.42 102.90 110.29 C 107.54 108.30 111.04 104.53 112.72 99.79 Z" />
<path fill="#cc4260" opacity="1.00" d=" M 43.22 104.05 C 43.59 101.21 45.81 99.01 48.75 100.74 C 47.24 102.33 45.77 103.95 44.12 105.41 C 43.90 105.07 43.44 104.39 43.22 104.05 Z" />
<path fill="#932e65" opacity="1.00" d=" M 48.75 100.74 C 49.26 100.68 50.28 100.56 50.80 100.50 C 49.09 103.79 47.10 107.14 44.07 109.39 C 43.49 107.66 43.09 105.87 43.22 104.05 C 43.44 104.39 43.90 105.07 44.12 105.41 C 45.77 103.95 47.24 102.33 48.75 100.74 Z" />
<path fill="#6eb46f" opacity="1.00" d=" M 92.17 112.19 C 94.50 109.08 94.47 104.97 96.39 101.75 C 97.11 103.78 97.86 105.81 98.45 107.90 C 98.00 111.69 97.09 116.03 93.20 117.73 C 91.54 116.30 90.58 114.05 92.17 112.19 Z" />
<path fill="#362813" opacity="0.39" d=" M 8.14 107.10 C 7.98 105.57 7.92 102.89 10.02 102.79 C 10.40 104.50 9.24 105.95 8.14 107.10 Z" />
<path fill="#c6c3aa" opacity="1.00" d=" M 9.28 109.73 C 9.93 107.36 10.54 104.55 13.11 103.55 L 13.55 104.97 C 12.49 106.85 10.94 108.37 9.28 109.73 Z" />
<path fill="#e94d55" opacity="1.00" d=" M 35.85 103.99 C 37.20 104.67 38.62 105.28 39.81 106.25 C 41.66 108.83 41.74 112.17 41.87 115.22 C 39.24 111.90 36.63 108.24 35.85 103.99 Z" />
<path fill="#df9660" opacity="1.00" d=" M 13.55 104.97 C 13.69 105.30 13.97 105.98 14.11 106.32 C 12.64 109.46 10.80 112.41 8.95 115.34 C 8.89 114.65 8.78 113.26 8.72 112.57 C 8.86 111.86 9.14 110.44 9.28 109.73 C 10.94 108.37 12.49 106.85 13.55 104.97 Z" />
<path fill="#5a1c48" opacity="1.00" d=" M 17.40 106.39 C 18.13 105.00 21.14 105.77 19.51 107.33 C 18.77 108.69 15.84 107.96 17.40 106.39 Z" />
<path fill="#913e61" opacity="1.00" d=" M 8.95 115.34 C 10.80 112.41 12.64 109.46 14.11 106.32 C 14.34 106.98 14.78 108.32 15.01 108.98 C 12.83 112.29 10.57 115.58 8.08 118.66 C 7.97 116.42 8.15 114.18 8.67 112.00 L 8.72 112.57 C 8.78 113.26 8.89 114.65 8.95 115.34 Z" />
<path fill="#8e2b6c" opacity="1.00" d=" M 56.25 108.49 C 58.71 108.33 61.16 108.63 63.55 109.20 C 63.51 116.91 63.40 124.98 66.55 132.18 C 63.87 129.69 61.51 126.78 59.83 123.53 C 60.22 118.77 61.22 113.86 59.88 109.17 C 58.68 108.87 57.48 108.64 56.25 108.49 Z" />
<path fill="#3b8279" opacity="1.00" d=" M 98.45 107.90 C 99.91 110.16 101.28 112.61 103.79 113.88 C 102.50 115.18 101.35 116.66 99.82 117.70 C 97.76 118.87 95.38 117.86 93.20 117.73 C 97.09 116.03 98.00 111.69 98.45 107.90 Z" />
<path fill="#da485c" opacity="1.00" d=" M 55.00 108.69 L 56.25 108.49 C 57.48 108.64 58.68 108.87 59.88 109.17 C 61.22 113.86 60.22 118.77 59.83 123.53 C 55.97 119.54 55.40 113.93 55.00 108.69 Z" />
<path fill="#8bd068" opacity="1.00" d=" M 86.33 112.38 C 86.92 111.02 87.69 109.77 88.65 108.64 C 89.10 109.07 90.00 109.94 90.45 110.37 C 90.11 110.81 89.43 111.68 89.08 112.11 C 88.40 112.18 87.02 112.31 86.33 112.38 Z" />
<path fill="#8d4350" opacity="1.00" d=" M 15.14 112.43 C 16.69 112.04 18.28 111.86 19.82 111.46 L 19.57 111.96 C 18.12 114.34 17.61 117.10 17.16 119.81 L 19.04 119.24 C 18.27 119.96 17.50 120.67 16.72 121.37 C 16.87 118.25 17.21 115.14 17.47 112.03 C 16.63 113.02 15.81 114.03 15.00 115.06 C 15.03 114.40 15.10 113.08 15.14 112.43 Z" />
<path fill="#458c76" opacity="1.00" d=" M 86.28 112.39 L 86.33 112.38 C 87.02 112.31 88.40 112.18 89.08 112.11 C 88.26 115.45 89.88 118.33 92.66 120.11 C 88.60 122.97 83.03 125.64 82.18 131.04 C 81.58 131.31 80.37 131.85 79.77 132.12 C 81.03 127.65 83.05 123.23 82.64 118.48 C 83.88 116.47 85.12 114.45 86.28 112.39 Z" />
<path fill="#f09463" opacity="1.00" d=" M 17.16 119.81 C 17.61 117.10 18.12 114.34 19.57 111.96 C 22.22 113.90 21.67 117.63 19.04 119.24 L 17.16 119.81 Z" />
<path fill="#e94d55" opacity="1.00" d=" M 31.95 115.64 C 33.69 115.12 35.41 114.53 37.21 114.27 C 39.14 115.31 39.36 117.96 39.57 119.93 C 38.71 122.00 37.79 124.04 36.92 126.10 C 35.24 122.63 33.53 119.16 31.95 115.64 Z" />
<path fill="#8bd068" opacity="1.00" d=" M 82.64 118.48 C 83.05 123.23 81.03 127.65 79.77 132.12 C 77.12 132.75 74.43 133.14 71.75 133.57 C 73.92 135.11 76.74 134.01 79.20 134.14 C 73.74 137.74 69.17 144.33 61.82 143.37 C 62.91 143.97 63.98 144.60 65.03 145.27 C 62.44 146.59 60.38 149.01 57.49 149.68 C 53.55 149.89 50.32 152.27 46.70 153.52 C 44.89 153.52 43.21 152.71 41.50 152.23 C 47.76 148.32 53.48 143.63 59.56 139.45 C 68.27 133.71 75.91 126.43 82.64 118.48 Z" />
<path fill="#972e6f" opacity="1.00" d=" M 36.92 126.10 C 37.79 124.04 38.71 122.00 39.57 119.93 C 41.46 124.39 40.24 129.41 40.54 134.11 C 39.22 131.50 38.06 128.80 36.92 126.10 Z" />
<path fill="#3d8578" opacity="1.00" d=" M 83.75 128.95 C 85.97 126.73 88.04 124.24 91.00 122.96 C 88.49 127.02 86.48 131.49 86.41 136.35 C 77.41 141.99 69.31 149.02 59.80 153.88 C 51.24 159.26 41.88 163.09 32.39 166.46 C 22.78 169.91 13.81 175.12 3.91 177.68 C 6.95 175.26 10.44 173.52 13.95 171.90 C 25.70 166.61 37.76 161.99 49.38 156.40 C 55.60 153.32 61.35 149.42 67.06 145.50 C 67.39 145.86 68.04 146.57 68.37 146.93 C 68.49 146.23 68.73 144.84 68.85 144.15 C 73.11 140.85 77.16 137.30 81.47 134.08 C 81.87 134.65 82.65 135.80 83.05 136.37 C 83.22 133.89 83.52 131.42 83.75 128.95 Z" />
<path fill="#a2326b" opacity="1.00" d=" M 42.25 141.17 C 43.43 141.23 44.61 141.29 45.79 141.35 C 45.76 143.40 45.94 145.48 45.51 147.49 C 44.61 148.12 43.68 148.71 42.74 149.28 C 42.74 146.57 42.53 143.86 42.25 141.17 Z" />
<path fill="#a23367" opacity="1.00" d=" M 71.95 148.56 C 73.19 148.04 74.40 147.44 75.60 146.83 C 80.35 153.32 85.75 159.37 89.74 166.40 C 87.45 166.46 85.35 165.43 83.40 164.35 C 79.51 159.15 75.45 154.05 71.95 148.56 Z" />
<path fill="#e34b5f" opacity="1.00" d=" M 71.56 152.40 C 70.77 151.10 70.80 149.63 71.95 148.56 C 75.45 154.05 79.51 159.15 83.40 164.35 C 86.70 169.42 90.54 174.11 93.81 179.19 C 94.62 180.22 94.53 181.55 94.57 182.79 C 91.31 179.21 88.84 174.99 85.55 171.43 C 80.46 165.42 75.31 159.36 71.56 152.40 Z" />
<path fill="#6bb968" opacity="1.00" d=" M 46.70 153.52 C 50.32 152.27 53.55 149.89 57.49 149.68 C 54.60 152.64 50.73 154.30 47.07 156.10 C 36.80 160.84 26.39 165.29 15.98 169.73 C 18.25 166.95 21.55 165.39 24.43 163.37 C 30.15 159.69 35.79 155.91 41.50 152.23 C 43.21 152.71 44.89 153.52 46.70 153.52 Z" />
<path fill="#932c73" opacity="1.00" d=" M 41.32 165.13 C 42.77 164.77 44.22 164.44 45.69 164.16 C 44.20 170.68 42.04 177.08 39.29 183.17 C 39.59 177.11 41.74 171.24 41.32 165.13 Z" />
<path fill="#962e6f" opacity="1.00" d=" M 83.40 164.35 C 85.35 165.43 87.45 166.46 89.74 166.40 L 90.00 166.42 C 95.80 176.17 102.33 185.92 104.95 197.10 C 101.84 193.77 99.89 189.58 96.82 186.23 C 96.05 185.12 94.76 184.18 94.57 182.79 C 94.53 181.55 94.62 180.22 93.81 179.19 C 90.54 174.11 86.70 169.42 83.40 164.35 Z" />
</svg>
