<?xml version="1.0" encoding="UTF-8" ?>
<!DOCTYPE svg PUBLIC "-//W3C//DTD SVG 1.1//EN" "http://www.w3.org/Graphics/SVG/1.1/DTD/svg11.dtd">
<svg width="171pt" height="250pt" viewBox="0 0 171 250" version="1.1" xmlns="http://www.w3.org/2000/svg">
<path fill="#000000" opacity="1.00" d=" M 134.04 20.27 C 145.55 12.40 157.33 4.40 170.92 0.60 C 170.56 2.89 170.28 5.21 169.49 7.40 C 163.92 22.20 156.04 36.13 146.23 48.53 C 137.97 58.58 127.11 65.94 117.08 74.06 C 109.03 80.61 100.51 86.65 91.22 91.33 C 96.46 97.78 94.16 107.12 89.72 113.34 C 93.23 121.21 93.09 130.89 87.97 138.03 C 85.60 140.85 81.54 141.27 79.04 143.94 C 76.08 146.97 72.34 149.00 68.59 150.87 C 70.56 161.17 69.66 171.78 67.98 182.05 C 66.71 189.77 63.51 197.01 59.35 203.59 C 58.67 204.89 57.11 205.13 55.92 205.77 C 55.36 201.89 54.38 198.01 54.73 194.08 C 56.12 181.83 56.85 169.22 61.75 157.74 C 62.67 155.59 64.13 153.74 65.56 151.91 C 63.30 144.78 69.05 138.11 75.67 136.32 C 69.17 135.55 64.55 130.55 61.67 125.04 C 60.65 124.66 58.58 124.73 59.35 123.07 C 60.07 120.73 61.54 118.73 62.89 116.72 C 58.87 118.26 54.43 116.98 50.51 118.93 C 51.13 121.62 51.87 124.29 52.15 127.04 C 51.14 131.38 47.92 134.92 44.54 137.67 C 42.59 139.05 39.07 140.85 37.46 138.08 C 41.21 133.65 46.38 130.13 48.12 124.31 C 43.88 122.21 38.16 121.58 35.58 117.18 C 37.47 116.65 39.36 116.17 41.26 115.71 C 40.02 113.66 38.17 111.56 38.76 108.97 C 39.37 105.33 42.14 102.67 44.48 100.02 C 28.79 91.18 18.07 75.95 9.32 60.63 C 3.13 49.58 -1.93 36.52 1.24 23.76 C 7.82 27.62 13.68 32.60 18.55 38.47 C 28.88 49.08 37.84 61.03 44.97 74.01 C 47.90 79.71 50.76 85.65 51.42 92.12 C 53.85 91.32 56.34 90.78 58.86 90.36 C 61.85 86.31 66.49 82.60 71.87 84.04 C 80.94 69.48 92.31 56.51 104.86 44.87 C 113.82 35.80 123.65 27.65 134.04 20.27 M 140.37 21.26 C 127.11 30.39 115.06 41.12 103.72 52.50 C 91.61 64.01 81.04 77.21 72.43 91.52 C 71.34 92.63 70.36 93.84 69.37 95.04 C 75.73 95.33 80.84 91.16 86.28 88.56 C 88.33 87.41 90.39 86.27 92.46 85.17 L 92.66 84.78 C 96.45 82.68 100.22 80.45 103.54 77.65 C 108.62 74.12 113.31 70.08 118.20 66.30 C 127.04 59.27 136.43 52.60 143.33 43.52 C 152.07 32.16 159.59 19.87 165.97 7.04 C 166.37 6.46 167.16 5.29 167.56 4.70 C 157.74 8.88 149.12 15.27 140.37 21.26 M 2.63 30.05 C 3.86 39.81 6.83 49.43 11.99 57.83 C 17.09 67.73 23.54 76.95 31.01 85.21 C 32.97 87.16 34.96 89.10 36.92 91.06 C 39.94 93.76 43.10 96.30 46.29 98.81 C 47.25 97.19 48.22 95.58 49.21 93.98 C 48.46 92.42 47.72 90.85 46.98 89.28 L 46.82 89.18 C 45.63 85.83 44.23 82.55 42.67 79.35 C 41.00 76.10 39.28 72.88 37.38 69.76 C 32.13 62.10 27.09 54.22 20.62 47.51 C 14.85 41.47 9.79 34.58 2.63 30.05 M 61.97 90.09 C 62.65 90.39 63.32 90.69 63.99 90.99 C 65.06 92.02 66.12 93.06 67.19 94.09 C 67.87 92.18 68.56 90.28 69.16 88.34 C 69.48 88.07 70.11 87.52 70.43 87.25 C 67.36 87.26 64.61 88.67 61.97 90.09 M 48.70 97.53 C 49.33 97.32 50.60 96.89 51.23 96.68 C 55.44 96.42 58.34 99.41 61.30 101.88 C 62.01 104.15 63.09 106.54 62.49 108.97 C 61.48 111.15 60.16 113.18 59.34 115.46 C 62.86 113.95 66.70 111.70 67.67 107.69 C 68.80 104.40 67.45 101.04 66.51 97.89 C 65.03 96.16 63.54 94.43 62.05 92.70 C 59.95 92.78 57.84 92.75 55.77 93.12 C 52.86 93.46 50.42 95.24 48.70 97.53 M 81.16 96.06 L 81.03 96.46 C 77.21 97.66 73.11 99.24 69.21 97.34 C 70.16 99.82 70.88 102.39 71.48 104.98 C 71.24 105.59 70.75 106.80 70.51 107.41 C 74.12 105.47 78.05 104.14 82.21 104.68 C 83.22 106.44 85.13 108.59 83.64 110.65 C 80.89 114.23 76.19 115.33 72.53 117.71 C 83.92 119.40 94.15 106.47 90.31 95.80 C 89.72 94.73 89.00 93.75 88.31 92.76 C 85.94 93.90 83.55 94.98 81.16 96.06 M 45.70 102.20 C 43.82 104.46 42.15 106.89 40.83 109.52 C 41.64 111.33 42.59 113.07 43.69 114.72 C 45.11 115.50 46.41 116.63 48.03 116.92 C 50.83 117.06 53.42 115.80 56.03 114.99 C 53.50 114.34 51.57 112.47 51.37 109.80 C 52.25 105.97 52.74 101.84 55.64 98.89 C 51.94 98.46 47.82 98.68 45.70 102.20 M 54.68 102.28 C 54.58 102.65 54.40 103.38 54.30 103.75 C 54.02 106.82 51.84 111.77 56.06 113.14 C 59.75 111.84 61.58 107.72 59.66 104.20 C 58.95 101.98 56.52 102.23 54.68 102.28 M 74.48 107.07 L 74.17 107.57 C 71.28 109.46 68.75 111.92 67.13 114.99 C 65.93 116.18 64.97 117.57 63.95 118.91 C 67.81 117.21 71.43 115.03 75.24 113.23 C 77.53 112.09 80.00 111.03 81.63 108.96 C 81.06 108.30 80.50 107.63 79.96 106.95 C 78.13 106.69 76.30 106.77 74.48 107.07 M 81.41 119.84 L 81.63 120.28 C 81.25 120.81 80.50 121.87 80.12 122.40 C 79.30 125.52 78.86 128.73 78.60 131.95 C 79.81 132.31 81.02 132.66 82.23 133.01 C 82.93 133.68 83.62 134.36 84.32 135.03 C 81.87 136.29 79.18 136.89 76.46 137.20 C 77.95 138.48 79.79 140.47 81.94 139.29 C 87.82 137.34 88.98 130.51 89.76 125.20 C 89.33 121.92 88.80 118.65 88.01 115.44 C 85.80 116.90 83.61 118.37 81.41 119.84 M 38.76 118.28 C 41.99 119.40 45.29 120.32 48.64 121.02 C 46.62 117.60 42.26 116.30 38.76 118.28 M 65.24 121.29 C 68.08 125.24 72.10 128.02 76.12 130.63 C 76.41 127.12 77.08 123.62 78.71 120.47 C 75.71 120.69 72.68 120.35 70.09 118.70 C 68.47 119.55 66.85 120.42 65.24 121.29 M 62.97 122.48 C 63.94 124.83 64.50 127.96 66.98 129.17 C 66.59 130.47 68.59 132.53 69.86 131.95 L 70.06 132.71 C 73.71 134.30 77.58 135.75 81.64 135.02 C 78.10 133.58 74.86 131.47 71.27 130.17 C 68.63 127.48 66.01 124.73 62.97 122.48 M 44.00 133.55 L 44.24 134.20 C 42.56 134.10 40.36 136.08 40.31 137.72 C 42.02 137.69 43.81 136.22 44.40 134.63 L 44.65 135.30 C 46.91 132.47 48.75 129.33 50.10 125.98 C 48.24 128.63 46.29 131.24 44.00 133.55 M 71.76 141.51 C 69.70 140.90 67.41 144.23 68.59 146.03 C 68.21 146.77 67.46 148.25 67.08 148.99 C 71.24 147.30 74.86 144.60 78.27 141.74 C 77.25 140.57 76.22 139.40 75.19 138.25 C 74.02 139.29 72.49 140.06 71.76 141.51 M 62.50 166.02 C 59.38 173.83 58.99 182.35 58.07 190.61 L 57.82 190.87 C 57.29 194.38 56.93 197.92 56.83 201.47 C 59.94 196.17 63.09 190.60 63.92 184.42 C 64.74 181.35 65.46 178.25 65.67 175.08 C 66.72 168.66 66.75 162.13 66.47 155.65 C 64.64 158.84 62.60 162.24 62.50 166.02 Z" />
<path fill="#fbfec1" opacity="1.00" d=" M 140.37 21.26 C 149.12 15.27 157.74 8.88 167.56 4.70 C 167.16 5.29 166.37 6.46 165.97 7.04 C 159.67 15.61 152.79 23.77 145.31 31.33 C 135.27 41.00 124.29 49.62 113.46 58.38 C 110.74 56.45 108.01 54.51 105.01 53.05 L 103.72 52.50 C 115.06 41.12 127.11 30.39 140.37 21.26 Z" />
<path fill="#92b2aa" opacity="1.00" d=" M 145.31 31.33 C 152.79 23.77 159.67 15.61 165.97 7.04 C 159.59 19.87 152.07 32.16 143.33 43.52 C 136.43 52.60 127.04 59.27 118.20 66.30 C 113.31 70.08 108.62 74.12 103.54 77.65 C 105.27 74.08 106.35 69.66 103.50 66.33 L 103.22 66.14 C 104.65 65.09 106.08 64.05 107.50 62.99 C 109.51 61.48 111.49 59.94 113.46 58.38 C 124.29 49.62 135.27 41.00 145.31 31.33 Z" />
<path fill="#fbfec1" opacity="1.00" d=" M 2.63 30.05 C 9.79 34.58 14.85 41.47 20.62 47.51 C 27.09 54.22 32.13 62.10 37.38 69.76 C 35.14 71.78 32.97 73.87 30.85 76.01 C 24.36 70.17 17.95 64.22 11.99 57.83 C 6.83 49.43 3.86 39.81 2.63 30.05 Z" />
<path fill="#fffe95" opacity="1.00" d=" M 72.43 91.52 C 81.04 77.21 91.61 64.01 103.72 52.50 L 105.01 53.05 C 103.69 54.77 102.39 56.50 100.98 58.14 C 99.64 59.65 98.24 61.10 96.83 62.55 C 95.22 64.20 93.62 65.86 92.04 67.54 C 89.84 69.89 87.66 72.26 85.55 74.69 C 82.88 77.71 80.49 80.96 78.36 84.37 C 76.62 86.94 74.74 89.43 72.43 91.52 Z" />
<path fill="#eafab5" opacity="1.00" d=" M 105.01 53.05 C 108.01 54.51 110.74 56.45 113.46 58.38 C 111.49 59.94 109.51 61.48 107.50 62.99 C 105.37 61.31 103.19 59.70 100.98 58.14 C 102.39 56.50 103.69 54.77 105.01 53.05 Z" />
<path fill="#94b5a9" opacity="1.00" d=" M 11.99 57.83 C 17.95 64.22 24.36 70.17 30.85 76.01 C 32.13 77.16 33.43 78.29 34.73 79.42 C 33.50 81.36 32.26 83.28 31.01 85.21 C 23.54 76.95 17.09 67.73 11.99 57.83 Z" />
<path fill="#d7f5a7" opacity="1.00" d=" M 96.83 62.55 C 98.24 61.10 99.64 59.65 100.98 58.14 C 103.19 59.70 105.37 61.31 107.50 62.99 C 106.08 64.05 104.65 65.09 103.22 66.14 C 101.13 64.87 98.97 63.72 96.83 62.55 Z" />
<path fill="#c2f098" opacity="1.00" d=" M 92.04 67.54 C 93.62 65.86 95.22 64.20 96.83 62.55 C 98.97 63.72 101.13 64.87 103.22 66.14 L 103.50 66.33 C 101.76 67.55 100.02 68.78 98.33 70.07 C 96.23 69.22 94.14 68.38 92.04 67.54 Z" />
<path fill="#7cae99" opacity="1.00" d=" M 98.33 70.07 C 100.02 68.78 101.76 67.55 103.50 66.33 C 106.35 69.66 105.27 74.08 103.54 77.65 C 100.22 80.45 96.45 82.68 92.66 84.78 C 94.78 80.96 96.56 76.75 95.44 72.30 C 96.40 71.56 97.36 70.81 98.33 70.07 Z" />
<path fill="#aeea89" opacity="1.00" d=" M 85.55 74.69 C 87.66 72.26 89.84 69.89 92.04 67.54 C 94.14 68.38 96.23 69.22 98.33 70.07 C 97.36 70.81 96.40 71.56 95.44 72.30 C 93.64 73.67 91.82 75.00 90.02 76.37 C 88.53 75.81 87.04 75.25 85.55 74.69 Z" />
<path fill="#e2f8af" opacity="1.00" d=" M 37.38 69.76 C 39.28 72.88 41.00 76.10 42.67 79.35 C 40.67 79.93 38.66 80.52 36.66 81.10 C 36.18 80.68 35.21 79.84 34.73 79.42 C 33.43 78.29 32.13 77.16 30.85 76.01 C 32.97 73.87 35.14 71.78 37.38 69.76 Z" />
<path fill="#71ac8f" opacity="1.00" d=" M 90.02 76.37 C 91.82 75.00 93.64 73.67 95.44 72.30 C 96.56 76.75 94.78 80.96 92.66 84.78 L 92.46 85.17 C 90.39 86.27 88.33 87.41 86.28 88.56 C 85.62 86.07 84.58 83.72 83.21 81.55 C 85.57 79.94 87.74 78.08 90.02 76.37 Z" />
<path fill="#93e178" opacity="1.00" d=" M 78.36 84.37 C 80.49 80.96 82.88 77.71 85.55 74.69 C 87.04 75.25 88.53 75.81 90.02 76.37 C 87.74 78.08 85.57 79.94 83.21 81.55 C 81.61 82.52 79.97 83.42 78.36 84.37 Z" />
<path fill="#80b398" opacity="1.00" d=" M 31.01 85.21 C 32.26 83.28 33.50 81.36 34.73 79.42 C 35.21 79.84 36.18 80.68 36.66 81.10 C 38.28 82.52 39.88 83.96 41.54 85.32 C 39.67 86.95 38.16 88.91 36.92 91.06 C 34.96 89.10 32.97 87.16 31.01 85.21 Z" />
<path fill="#adeb89" opacity="1.00" d=" M 36.66 81.10 C 38.66 80.52 40.67 79.93 42.67 79.35 C 44.23 82.55 45.63 85.83 46.82 89.18 C 45.02 87.95 43.25 86.68 41.54 85.32 C 39.88 83.96 38.28 82.52 36.66 81.10 Z" />
<path fill="#65ae82" opacity="1.00" d=" M 78.36 84.37 C 79.97 83.42 81.61 82.52 83.21 81.55 C 84.58 83.72 85.62 86.07 86.28 88.56 C 80.84 91.16 75.73 95.33 69.37 95.04 C 70.36 93.84 71.34 92.63 72.43 91.52 C 74.74 89.43 76.62 86.94 78.36 84.37 Z" />
<path fill="#6cb481" opacity="1.00" d=" M 36.92 91.06 C 38.16 88.91 39.67 86.95 41.54 85.32 C 43.25 86.68 45.02 87.95 46.82 89.18 L 46.98 89.28 C 47.72 90.85 48.46 92.42 49.21 93.98 C 48.22 95.58 47.25 97.19 46.29 98.81 C 43.10 96.30 39.94 93.76 36.92 91.06 Z" />
<path fill="#fffe95" opacity="1.00" d=" M 61.97 90.09 C 64.61 88.67 67.36 87.26 70.43 87.25 C 70.11 87.52 69.48 88.07 69.16 88.34 C 67.47 89.29 65.73 90.14 63.99 90.99 C 63.32 90.69 62.65 90.39 61.97 90.09 Z" />
<path fill="#90c785" opacity="1.00" d=" M 63.99 90.99 C 65.73 90.14 67.47 89.29 69.16 88.34 C 68.56 90.28 67.87 92.18 67.19 94.09 C 66.12 93.06 65.06 92.02 63.99 90.99 Z" />
<path fill="#fffe95" opacity="1.00" d=" M 48.70 97.53 C 50.42 95.24 52.86 93.46 55.77 93.12 C 54.25 94.30 52.78 95.54 51.23 96.68 C 50.60 96.89 49.33 97.32 48.70 97.53 Z" />
<path fill="#873fc0" opacity="1.00" d=" M 55.77 93.12 C 57.84 92.75 59.95 92.78 62.05 92.70 C 63.54 94.43 65.03 96.16 66.51 97.89 C 64.77 99.21 63.04 100.54 61.30 101.88 C 58.34 99.41 55.44 96.42 51.23 96.68 C 52.78 95.54 54.25 94.30 55.77 93.12 Z" />
<path fill="#176483" opacity="1.00" d=" M 81.16 96.06 C 83.55 94.98 85.94 93.90 88.31 92.76 C 89.00 93.75 89.72 94.73 90.31 95.80 C 90.33 96.25 90.38 97.16 90.41 97.61 C 89.63 97.24 88.85 96.87 88.07 96.50 C 85.97 98.91 84.07 101.58 81.46 103.47 C 79.64 104.37 77.47 104.04 75.52 104.36 C 78.31 102.51 80.23 99.70 81.03 96.46 L 81.16 96.06 Z" />
<path fill="#153e6f" opacity="1.00" d=" M 88.07 96.50 C 88.85 96.87 89.63 97.24 90.41 97.61 C 90.38 97.16 90.33 96.25 90.31 95.80 C 94.15 106.47 83.92 119.40 72.53 117.71 C 76.19 115.33 80.89 114.23 83.64 110.65 C 85.13 108.59 83.22 106.44 82.21 104.68 C 78.05 104.14 74.12 105.47 70.51 107.41 C 70.75 106.80 71.24 105.59 71.48 104.98 C 72.82 104.73 74.17 104.54 75.52 104.36 C 77.47 104.04 79.64 104.37 81.46 103.47 C 84.07 101.58 85.97 98.91 88.07 96.50 Z" />
<path fill="#90c785" opacity="1.00" d=" M 69.21 97.34 C 73.11 99.24 77.21 97.66 81.03 96.46 C 80.23 99.70 78.31 102.51 75.52 104.36 C 74.17 104.54 72.82 104.73 71.48 104.98 C 70.88 102.39 70.16 99.82 69.21 97.34 Z" />
<path fill="#241d62" opacity="1.00" d=" M 66.51 97.89 C 67.45 101.04 68.80 104.40 67.67 107.69 C 66.70 111.70 62.86 113.95 59.34 115.46 C 60.16 113.18 61.48 111.15 62.49 108.97 C 63.09 106.54 62.01 104.15 61.30 101.88 C 63.04 100.54 64.77 99.21 66.51 97.89 Z" />
<path fill="#a2d283" opacity="1.00" d=" M 45.70 102.20 C 47.82 98.68 51.94 98.46 55.64 98.89 C 52.74 101.84 52.25 105.97 51.37 109.80 C 48.77 111.38 46.22 113.03 43.69 114.72 C 42.59 113.07 41.64 111.33 40.83 109.52 C 43.82 108.96 46.86 108.08 48.72 105.46 C 47.71 104.38 46.71 103.29 45.70 102.20 Z" />
<path fill="#ffda6b" opacity="1.00" d=" M 54.68 102.28 C 56.52 102.23 58.95 101.98 59.66 104.20 C 61.58 107.72 59.75 111.84 56.06 113.14 C 56.62 109.86 57.08 106.21 54.30 103.75 C 54.40 103.38 54.58 102.65 54.68 102.28 Z" />
<path fill="#fffe95" opacity="1.00" d=" M 40.83 109.52 C 42.15 106.89 43.82 104.46 45.70 102.20 C 46.71 103.29 47.71 104.38 48.72 105.46 C 46.86 108.08 43.82 108.96 40.83 109.52 Z" />
<path fill="#fefc95" opacity="1.00" d=" M 54.30 103.75 C 57.08 106.21 56.62 109.86 56.06 113.14 C 51.84 111.77 54.02 106.82 54.30 103.75 Z" />
<path fill="#1b8772" opacity="1.00" d=" M 74.48 107.07 C 76.30 106.77 78.13 106.69 79.96 106.95 C 77.51 108.95 74.65 110.29 71.70 111.36 C 72.58 110.13 73.39 108.86 74.17 107.57 L 74.48 107.07 Z" />
<path fill="#0d4f60" opacity="1.00" d=" M 79.96 106.95 C 80.50 107.63 81.06 108.30 81.63 108.96 C 80.00 111.03 77.53 112.09 75.24 113.23 C 71.43 115.03 67.81 117.21 63.95 118.91 C 64.97 117.57 65.93 116.18 67.13 114.99 C 68.60 113.72 70.15 112.53 71.70 111.36 C 74.65 110.29 77.51 108.95 79.96 106.95 Z" />
<path fill="#fffe95" opacity="1.00" d=" M 67.13 114.99 C 68.75 111.92 71.28 109.46 74.17 107.57 C 73.39 108.86 72.58 110.13 71.70 111.36 C 70.15 112.53 68.60 113.72 67.13 114.99 Z" />
<path fill="#5a8b7b" opacity="1.00" d=" M 43.69 114.72 C 46.22 113.03 48.77 111.38 51.37 109.80 C 51.57 112.47 53.50 114.34 56.03 114.99 C 53.42 115.80 50.83 117.06 48.03 116.92 C 46.41 116.63 45.11 115.50 43.69 114.72 Z" />
<path fill="#1c2f63" opacity="1.00" d=" M 81.41 119.84 C 83.61 118.37 85.80 116.90 88.01 115.44 C 88.80 118.65 89.33 121.92 89.76 125.20 C 87.93 125.58 86.09 125.94 84.25 126.28 C 83.46 124.24 82.60 122.24 81.63 120.28 L 81.41 119.84 Z" />
<path fill="#21718a" opacity="1.00" d=" M 38.76 118.28 C 42.26 116.30 46.62 117.60 48.64 121.02 C 45.29 120.32 41.99 119.40 38.76 118.28 Z" />
<path fill="#265b77" opacity="1.00" d=" M 81.63 120.28 C 82.60 122.24 83.46 124.24 84.25 126.28 C 86.09 125.94 87.93 125.58 89.76 125.20 C 88.98 130.51 87.82 137.34 81.94 139.29 C 79.79 140.47 77.95 138.48 76.46 137.20 C 79.18 136.89 81.87 136.29 84.32 135.03 C 83.62 134.36 82.93 133.68 82.23 133.01 C 82.71 130.29 83.14 127.56 83.54 124.83 C 82.40 124.01 81.26 123.21 80.12 122.40 C 80.50 121.87 81.25 120.81 81.63 120.28 Z" />
<path fill="#0c4e5c" opacity="1.00" d=" M 62.97 122.48 C 66.01 124.73 68.63 127.48 71.27 130.17 C 70.71 130.05 69.59 129.80 69.03 129.67 C 68.52 129.55 67.49 129.30 66.98 129.17 C 64.50 127.96 63.94 124.83 62.97 122.48 Z" />
<path fill="#8cc184" opacity="1.00" d=" M 80.12 122.40 C 81.26 123.21 82.40 124.01 83.54 124.83 C 83.14 127.56 82.71 130.29 82.23 133.01 C 81.02 132.66 79.81 132.31 78.60 131.95 C 78.86 128.73 79.30 125.52 80.12 122.40 Z" />
<path fill="#21718a" opacity="1.00" d=" M 44.00 133.55 C 46.29 131.24 48.24 128.63 50.10 125.98 C 48.75 129.33 46.91 132.47 44.65 135.30 L 44.40 134.63 L 44.24 134.20 L 44.00 133.55 Z" />
<path fill="#fffe95" opacity="1.00" d=" M 66.98 129.17 C 67.49 129.30 68.52 129.55 69.03 129.67 C 69.23 130.24 69.65 131.38 69.86 131.95 C 68.59 132.53 66.59 130.47 66.98 129.17 Z" />
<path fill="#1ea779" opacity="1.00" d=" M 69.03 129.67 C 69.59 129.80 70.71 130.05 71.27 130.17 C 74.86 131.47 78.10 133.58 81.64 135.02 C 77.58 135.75 73.71 134.30 70.06 132.71 L 69.86 131.95 C 69.65 131.38 69.23 130.24 69.03 129.67 Z" />
<path fill="#6cb481" opacity="1.00" d=" M 40.31 137.72 C 40.36 136.08 42.56 134.10 44.24 134.20 L 44.40 134.63 C 43.81 136.22 42.02 137.69 40.31 137.72 Z" />
<path fill="#226a81" opacity="1.00" d=" M 71.76 141.51 C 72.49 140.06 74.02 139.29 75.19 138.25 C 76.22 139.40 77.25 140.57 78.27 141.74 C 74.86 144.60 71.24 147.30 67.08 148.99 C 67.46 148.25 68.21 146.77 68.59 146.03 C 69.88 144.69 70.96 143.19 71.76 141.51 Z" />
<path fill="#fffe95" opacity="1.00" d=" M 68.59 146.03 C 67.41 144.23 69.70 140.90 71.76 141.51 C 70.96 143.19 69.88 144.69 68.59 146.03 Z" />
<path fill="#21718a" opacity="1.00" d=" M 62.50 166.02 C 62.60 162.24 64.64 158.84 66.47 155.65 C 66.75 162.13 66.72 168.66 65.67 175.08 C 64.84 173.03 63.84 171.05 62.77 169.12 C 62.69 168.09 62.61 167.05 62.50 166.02 Z" />
<path fill="#fffe95" opacity="1.00" d=" M 62.50 166.02 C 62.61 167.05 62.69 168.09 62.77 169.12 C 62.22 172.03 61.41 174.87 60.79 177.76 C 59.98 181.52 59.92 185.38 59.39 189.19 C 59.06 189.54 58.40 190.25 58.07 190.61 C 58.99 182.35 59.38 173.83 62.50 166.02 Z" />
<path fill="#569784" opacity="1.00" d=" M 60.79 177.76 C 61.41 174.87 62.22 172.03 62.77 169.12 C 63.84 171.05 64.84 173.03 65.67 175.08 C 65.46 178.25 64.74 181.35 63.92 184.42 C 63.81 182.71 63.66 181.02 63.50 179.33 C 62.60 178.80 61.69 178.28 60.79 177.76 Z" />
<path fill="#8dc585" opacity="1.00" d=" M 60.79 177.76 C 61.69 178.28 62.60 178.80 63.50 179.33 C 63.66 181.02 63.81 182.71 63.92 184.42 C 63.09 190.60 59.94 196.17 56.83 201.47 C 56.93 197.92 57.29 194.38 57.82 190.87 L 58.07 190.61 C 58.40 190.25 59.06 189.54 59.39 189.19 C 59.92 185.38 59.98 181.52 60.79 177.76 Z" />
<path fill="#000000" opacity="1.00" d=" M 33.33 246.05 C 37.68 242.22 43.64 241.55 49.13 240.66 C 60.83 239.38 72.79 239.08 84.37 241.43 C 86.56 242.09 89.61 242.37 90.47 244.90 C 90.75 247.27 87.85 247.98 86.09 248.45 C 77.54 250.30 68.72 249.81 60.02 249.91 C 52.30 249.72 44.49 250.21 36.86 248.75 C 35.18 248.68 34.22 247.26 33.33 246.05 Z" />
</svg>
