<?xml version="1.0" encoding="UTF-8" ?>
<!DOCTYPE svg PUBLIC "-//W3C//DTD SVG 1.1//EN" "http://www.w3.org/Graphics/SVG/1.1/DTD/svg11.dtd">
<svg width="313pt" height="317pt" viewBox="0 0 313 317" version="1.1" xmlns="http://www.w3.org/2000/svg">
<path fill="#000000" opacity="1.00" d=" M 81.22 0.00 L 82.55 0.00 C 90.70 7.21 95.31 17.22 100.08 26.76 C 106.49 40.30 109.61 55.32 109.94 70.24 C 106.27 61.57 106.37 51.91 103.54 42.97 C 103.24 41.91 102.92 40.85 102.57 39.81 C 101.30 36.18 99.98 32.56 98.39 29.06 C 94.12 20.69 90.14 11.95 83.99 4.75 C 86.71 14.15 88.89 23.69 91.63 33.09 C 92.83 36.75 94.27 40.34 95.82 43.88 C 96.49 45.42 97.20 46.95 97.91 48.47 C 101.37 55.57 105.28 62.43 108.40 69.69 C 108.80 69.90 109.59 70.32 109.98 70.54 C 111.66 71.03 113.38 71.37 115.11 71.67 C 117.66 73.87 118.88 77.04 119.76 80.20 C 123.01 77.25 126.15 74.06 130.20 72.21 C 133.76 65.72 137.88 59.55 140.74 52.70 C 141.61 51.61 142.26 48.37 144.16 49.98 C 144.08 56.16 142.22 62.15 141.20 68.21 C 145.64 61.33 149.93 54.25 152.60 46.46 C 156.75 35.52 158.30 23.12 166.17 13.96 C 169.28 10.54 172.40 6.64 176.91 5.07 C 180.14 4.80 182.40 8.08 182.74 10.98 C 182.37 15.02 178.49 17.22 176.18 20.14 C 170.99 26.40 166.65 33.44 163.83 41.08 C 161.96 46.65 159.72 52.11 156.75 57.20 C 173.65 42.72 194.70 34.53 215.06 26.21 C 227.85 21.49 240.57 16.39 253.88 13.28 C 261.73 11.18 269.88 10.94 277.94 10.38 C 286.21 10.11 294.70 9.83 302.69 12.35 C 306.85 13.73 308.79 18.06 310.02 21.93 C 315.48 38.57 312.80 57.12 304.53 72.38 C 295.18 89.96 281.41 106.39 262.64 114.18 C 266.23 125.64 270.57 137.01 271.98 149.01 C 272.45 152.85 271.94 158.12 267.65 159.58 C 261.30 161.88 254.77 157.98 250.80 153.16 C 245.00 146.35 237.91 138.84 238.71 129.17 C 235.60 132.31 231.53 134.33 227.20 135.15 C 214.85 137.62 201.81 137.00 189.82 133.10 C 180.52 129.58 171.89 124.54 163.08 119.99 C 150.97 113.95 138.79 107.86 127.78 99.95 C 125.94 105.17 122.63 109.83 118.37 113.36 C 117.22 114.31 115.67 114.44 114.29 114.84 C 111.81 118.42 109.14 121.87 106.03 124.92 C 106.68 131.70 102.65 137.50 98.12 142.08 C 104.84 138.08 112.03 134.95 119.45 132.50 C 120.76 132.16 123.10 131.57 123.23 133.57 C 119.90 138.61 116.24 143.47 111.82 147.62 C 114.30 149.46 116.35 151.78 118.08 154.33 C 124.16 153.99 130.05 156.05 135.52 158.52 C 141.59 161.95 145.95 167.62 150.14 173.06 C 153.42 173.11 156.72 173.42 159.87 174.41 C 169.68 177.22 179.24 180.83 188.86 184.21 C 197.27 186.80 205.38 190.22 213.61 193.32 C 219.47 195.48 224.72 198.94 230.40 201.50 C 235.75 203.86 240.68 207.11 245.17 210.85 C 248.32 213.09 248.24 218.91 244.60 220.64 C 240.48 223.01 235.49 223.15 230.91 222.45 C 220.53 220.47 211.25 215.14 201.43 211.50 C 195.35 209.28 189.73 206.07 184.01 203.08 C 171.22 197.14 158.99 190.10 146.70 183.22 C 143.75 181.49 141.10 179.23 137.84 178.08 C 131.88 175.82 126.24 172.69 121.31 168.65 C 118.70 166.57 117.08 163.57 114.64 161.34 C 112.33 159.76 109.82 158.51 107.49 156.96 C 107.25 164.50 105.39 172.41 100.47 178.33 C 103.55 179.18 108.10 179.27 109.12 183.00 C 109.77 186.97 106.83 190.23 106.02 193.93 C 106.65 203.29 105.12 212.62 105.28 221.99 C 105.33 227.02 105.10 232.11 103.97 237.02 C 103.78 238.26 102.37 238.54 101.51 239.16 C 99.33 234.41 99.21 229.14 98.13 224.12 C 97.43 220.77 97.21 217.36 96.89 213.97 C 91.63 225.41 89.52 237.94 85.84 249.92 C 85.07 252.10 82.85 253.24 81.23 254.73 C 81.83 247.52 80.92 240.26 81.94 233.08 C 84.85 215.24 87.47 197.04 95.13 180.48 C 95.30 180.04 95.64 179.16 95.82 178.72 C 94.01 172.81 92.07 166.93 91.29 160.78 C 89.05 159.11 87.31 156.93 85.78 154.62 C 85.78 156.38 85.35 158.20 85.84 159.92 C 88.76 166.48 93.72 172.39 94.71 179.65 C 90.17 174.50 87.25 168.21 83.69 162.39 C 81.86 159.94 82.51 156.88 83.01 154.12 C 80.92 152.94 78.35 151.06 80.76 148.64 C 78.61 146.58 74.31 143.73 76.45 140.39 C 79.47 137.22 84.41 137.96 88.15 139.32 C 90.34 136.38 90.52 132.49 92.63 129.51 C 93.73 127.92 95.05 126.51 96.33 125.07 C 93.75 124.05 92.69 121.69 92.58 119.05 C 91.32 117.96 90.09 116.84 88.88 115.69 C 83.05 125.89 75.28 134.91 66.28 142.44 C 66.36 149.17 67.35 156.54 63.70 162.59 C 62.27 165.13 58.25 166.31 56.41 163.57 C 53.97 159.30 54.74 154.09 54.88 149.39 C 48.53 150.50 42.44 147.98 36.99 144.98 C 27.19 139.66 17.32 133.27 11.50 123.46 C 5.89 116.75 3.06 108.31 0.82 99.99 C -0.68 94.03 0.79 87.89 2.23 82.07 C 3.25 78.00 6.79 75.21 10.32 73.32 C 15.44 70.48 21.49 71.25 27.09 71.12 C 35.74 71.04 44.28 72.56 52.82 73.70 C 50.04 71.61 46.95 69.72 44.91 66.83 C 44.26 65.57 44.13 63.34 45.68 62.66 C 47.92 61.69 50.33 62.73 52.32 63.81 C 56.51 66.09 61.00 68.15 64.22 71.80 C 66.50 74.13 68.40 77.40 71.93 77.89 C 79.40 79.64 86.73 81.93 93.87 84.72 C 94.36 83.03 94.86 81.35 95.38 79.67 C 79.91 75.31 66.25 66.49 52.43 58.57 C 44.90 53.55 36.98 48.30 32.34 40.28 C 43.16 42.12 52.82 47.60 62.39 52.67 C 74.59 59.68 86.62 67.54 96.03 78.14 C 99.00 74.37 103.03 71.67 107.65 70.35 C 100.30 60.82 94.46 50.15 90.23 38.88 C 86.79 30.06 85.23 20.66 82.50 11.62 C 81.29 7.87 81.02 3.91 81.22 0.00 M 160.52 29.38 L 160.31 28.97 C 156.79 41.11 153.64 53.74 146.14 64.16 C 144.32 67.27 140.87 69.24 139.78 72.78 C 139.46 73.97 138.43 76.42 140.66 75.90 C 147.03 69.56 151.52 61.66 156.09 53.99 C 160.39 46.76 161.90 38.30 166.10 31.02 C 168.14 27.04 171.12 23.65 173.15 19.67 C 176.09 17.24 178.25 14.03 180.58 11.05 C 179.67 9.55 178.36 5.86 176.08 7.73 C 168.81 13.04 163.02 20.66 160.52 29.38 M 270.97 14.39 C 259.43 14.60 248.29 18.10 237.40 21.62 C 226.92 25.38 216.42 29.12 206.16 33.48 C 202.90 35.08 199.23 35.90 196.19 37.93 C 181.38 43.74 167.01 51.40 155.11 62.10 C 152.01 64.51 149.59 67.66 147.84 71.16 C 145.56 73.24 143.36 75.44 141.35 77.78 L 142.06 79.12 C 148.36 80.12 154.90 78.80 161.19 80.30 C 161.25 78.92 161.31 77.55 161.38 76.18 C 163.52 76.64 165.73 77.01 167.90 76.48 C 173.07 74.78 177.80 72.09 182.81 70.01 C 182.86 70.80 182.94 72.37 182.98 73.16 C 185.79 70.33 187.95 66.92 190.91 64.22 C 190.99 65.28 191.14 67.40 191.22 68.46 C 195.80 66.45 200.87 64.68 203.44 60.00 C 202.63 55.41 199.91 51.48 198.17 47.23 C 200.58 48.12 202.58 49.74 204.54 51.35 C 205.63 53.91 206.71 56.48 207.24 59.23 C 210.29 54.40 212.71 49.13 216.65 44.87 C 217.20 50.26 214.92 55.23 213.48 60.28 C 212.52 63.35 211.68 67.07 208.40 68.48 C 206.60 70.39 205.23 72.64 203.97 74.93 C 202.56 74.86 201.15 74.78 199.75 74.70 C 197.78 76.62 197.11 79.34 195.67 81.58 C 193.75 81.50 191.89 80.79 189.98 80.92 C 187.25 82.09 184.34 86.38 181.42 83.23 C 176.96 84.48 172.48 85.67 167.98 86.78 C 166.80 88.77 165.42 90.65 163.81 92.32 C 162.46 91.92 160.63 92.17 159.84 90.71 C 158.81 91.20 157.78 91.70 156.76 92.20 C 152.14 91.30 147.27 91.86 142.91 89.71 C 139.97 95.12 133.67 96.94 127.87 96.38 C 131.98 99.76 136.97 101.78 141.55 104.41 C 152.14 110.36 163.13 115.55 173.89 121.14 C 183.19 126.41 193.17 131.12 203.97 131.95 C 215.83 133.06 228.48 132.90 239.31 127.35 C 242.04 131.76 242.41 137.48 246.19 141.22 C 246.26 141.49 246.39 142.03 246.46 142.31 C 247.35 144.20 248.66 145.85 250.05 147.40 C 252.95 152.01 257.27 156.57 262.99 157.17 C 265.25 157.52 268.44 156.69 268.73 154.00 C 269.59 146.55 267.00 139.33 265.25 132.20 C 264.60 129.79 263.91 127.40 263.20 125.02 C 262.81 123.67 262.42 122.32 262.03 120.97 C 261.53 118.67 261.07 116.36 260.64 114.06 C 270.55 104.85 281.69 96.80 289.94 85.94 C 297.27 76.26 303.49 65.50 306.51 53.67 C 309.00 43.97 308.53 33.69 306.24 24.00 C 305.23 20.81 304.50 16.45 300.70 15.51 C 295.59 14.27 290.33 13.67 285.08 13.74 C 280.36 13.59 275.67 14.04 270.97 14.39 M 39.83 44.89 C 45.15 49.52 50.67 54.14 57.09 57.16 C 61.62 60.80 67.03 63.16 71.90 66.32 C 77.75 69.78 84.04 72.40 90.14 75.37 C 86.76 71.07 81.89 68.15 77.34 65.23 C 70.33 60.56 63.15 56.05 55.53 52.41 L 55.43 52.07 C 50.12 49.92 45.23 46.82 39.83 44.89 M 206.39 65.20 C 207.24 65.07 208.94 64.82 209.79 64.70 C 211.06 61.11 212.40 57.51 212.88 53.72 C 211.17 57.79 209.04 61.66 206.39 65.20 M 133.14 72.42 C 134.61 72.93 136.08 73.44 137.56 73.95 C 138.09 69.76 139.54 65.74 140.02 61.54 C 137.43 64.98 135.54 68.86 133.14 72.42 M 46.14 65.16 C 48.74 68.99 52.79 71.58 56.51 74.20 C 59.24 76.87 62.06 79.53 65.39 81.46 C 70.32 84.04 73.63 88.70 77.90 92.15 C 79.97 93.78 81.47 95.95 82.97 98.09 C 82.66 96.81 82.56 95.40 81.68 94.34 C 76.78 87.39 69.85 82.31 64.08 76.16 C 60.83 71.49 55.54 69.14 51.08 65.88 C 49.68 64.91 47.56 63.32 46.14 65.16 M 195.93 68.79 C 193.59 69.68 191.15 71.50 188.62 70.11 C 187.24 72.00 185.88 73.90 184.55 75.82 C 183.39 76.02 182.22 76.09 181.06 76.21 L 180.29 75.64 C 175.69 77.84 170.79 79.31 165.86 80.55 C 166.54 81.34 167.22 82.13 167.91 82.92 C 167.88 83.47 167.82 84.58 167.80 85.13 C 173.40 83.83 178.92 80.12 184.80 81.68 C 187.68 79.12 191.11 77.34 195.08 78.25 C 195.94 76.75 196.70 75.19 197.78 73.83 C 199.21 72.51 201.30 72.60 203.09 72.28 C 204.51 70.52 205.78 68.63 206.55 66.50 L 205.33 66.95 C 205.17 66.46 204.85 65.50 204.70 65.01 C 201.88 66.51 198.87 67.57 195.93 68.79 M 107.01 75.03 C 105.19 76.33 105.71 78.88 105.34 80.79 C 105.96 80.42 107.19 79.70 107.81 79.33 C 109.75 78.35 112.47 76.86 111.79 74.21 L 111.82 74.19 C 110.23 74.46 108.36 73.99 107.01 75.03 M 8.49 78.39 C 4.83 83.07 3.80 89.22 3.90 95.01 C 4.12 102.46 9.17 108.32 12.36 114.69 C 15.51 121.10 20.30 126.48 25.14 131.67 L 25.45 131.62 C 33.73 139.55 44.44 145.83 56.11 146.42 C 56.11 147.04 56.12 148.29 56.13 148.91 C 56.42 153.21 56.61 157.70 58.54 161.64 C 59.88 162.53 60.56 161.03 61.16 160.08 C 62.20 157.89 62.77 155.49 63.05 153.09 C 63.89 149.11 63.58 145.04 63.39 141.01 C 72.98 132.58 81.14 122.66 87.87 111.81 C 87.71 110.70 87.54 109.59 87.38 108.47 C 84.12 110.11 80.97 111.97 77.63 113.44 C 74.82 113.88 71.54 112.86 69.48 115.43 L 69.40 115.43 C 68.31 116.44 67.21 117.43 66.11 118.43 C 63.44 116.89 60.81 115.24 58.72 112.94 C 56.67 113.68 54.70 114.62 52.81 115.70 C 51.31 114.40 50.40 112.64 49.70 110.82 C 47.12 111.35 44.52 111.74 41.90 111.97 C 42.22 110.64 42.55 109.32 42.89 107.99 C 41.38 107.13 39.90 105.99 38.08 105.93 C 35.13 105.60 31.58 106.69 29.68 103.72 L 29.38 103.76 C 25.41 99.95 23.98 94.60 22.05 89.64 C 22.55 89.54 23.55 89.32 24.05 89.22 C 26.96 93.29 31.28 95.88 35.04 99.06 C 33.82 94.97 31.75 90.17 34.15 86.12 C 35.23 84.83 36.93 82.22 38.58 84.27 C 38.92 87.76 38.83 91.34 40.08 94.68 C 40.17 95.94 40.40 97.19 40.58 98.45 C 42.72 98.62 44.85 98.90 46.97 99.23 C 47.85 98.36 48.75 97.50 49.65 96.66 C 51.06 98.00 52.50 99.31 53.94 100.62 C 57.96 103.58 62.96 104.26 67.64 105.54 C 67.99 104.51 68.33 103.48 68.68 102.46 C 70.18 102.41 71.67 102.37 73.17 102.34 L 73.38 101.96 C 76.85 104.82 80.25 100.51 80.53 97.15 C 79.52 96.15 78.53 95.15 77.53 94.14 C 76.15 92.92 74.78 91.69 73.43 90.44 C 69.05 86.16 64.38 82.13 59.31 78.68 C 57.16 77.21 54.45 77.17 51.97 76.74 L 51.56 76.91 C 45.60 75.84 39.53 74.95 33.48 74.92 C 28.04 74.24 22.51 74.31 17.05 74.73 C 13.84 74.91 11.14 76.76 8.49 78.39 M 104.74 75.19 C 102.61 76.87 100.24 78.44 98.81 80.82 C 98.00 82.64 98.42 84.73 98.35 86.67 L 98.13 87.15 C 100.29 86.00 102.44 84.75 104.19 83.02 C 104.54 81.21 103.77 79.46 103.43 77.72 C 103.92 76.90 104.34 76.05 104.74 75.19 M 110.59 80.39 C 112.24 80.27 113.90 80.14 115.56 80.00 C 115.08 78.71 114.59 77.42 114.10 76.13 C 112.85 77.49 111.66 78.90 110.59 80.39 M 128.12 78.34 C 127.07 79.93 127.40 81.94 127.26 83.74 C 131.33 84.36 134.37 81.56 136.85 78.74 C 134.03 78.14 130.87 76.79 128.12 78.34 M 122.39 84.90 C 122.74 86.86 122.99 89.03 124.55 90.46 C 127.18 92.96 131.22 93.11 134.59 92.47 C 137.18 91.89 138.09 89.20 139.14 87.11 C 139.61 84.70 139.10 82.34 138.21 80.10 C 134.94 82.14 132.23 86.13 127.84 85.20 C 124.92 84.67 125.85 81.08 125.71 78.97 C 124.17 80.68 123.04 82.69 122.39 84.90 M 73.19 81.15 C 75.05 83.32 76.99 85.42 79.10 87.34 C 78.89 86.13 78.62 84.94 78.29 83.76 C 77.90 81.39 74.91 81.87 73.19 81.15 M 108.03 85.03 C 106.04 87.93 105.52 93.05 108.63 95.40 C 113.09 96.80 116.81 92.83 119.75 90.04 C 119.71 87.35 119.87 84.67 120.08 81.99 C 116.04 82.82 111.74 83.10 108.03 85.03 M 143.38 82.26 C 143.22 83.94 143.04 85.62 142.86 87.29 C 149.06 88.31 155.48 89.19 161.73 88.09 C 161.94 88.82 162.34 90.26 162.55 90.99 C 164.08 89.02 167.46 85.27 164.75 83.27 C 163.11 81.54 160.99 82.84 159.09 83.19 C 153.85 83.59 148.48 83.79 143.38 82.26 M 82.33 83.53 C 85.14 87.20 87.42 92.67 92.91 92.38 C 93.83 91.47 94.75 90.57 95.67 89.67 C 95.32 88.95 94.96 88.24 94.61 87.52 C 90.52 86.19 86.50 84.61 82.33 83.53 M 100.54 89.67 C 96.54 92.29 97.63 97.76 97.35 101.84 C 97.56 102.91 97.78 103.99 97.99 105.07 C 99.81 105.13 101.95 104.31 103.53 105.54 C 106.83 108.34 111.59 108.72 114.26 112.40 C 119.24 108.23 124.31 102.89 124.82 96.07 C 123.99 94.50 122.38 93.54 121.12 92.34 C 118.04 95.19 114.57 97.79 110.30 98.43 C 105.70 97.88 103.42 93.13 104.51 88.92 C 104.86 88.05 105.21 87.17 105.55 86.30 C 103.82 87.32 102.13 88.42 100.54 89.67 M 81.89 86.74 C 82.62 89.26 83.69 91.67 84.97 93.95 C 85.50 93.65 86.57 93.03 87.11 92.72 C 86.14 90.16 84.11 88.25 81.89 86.74 M 35.58 92.99 C 36.18 95.38 36.76 98.20 39.12 99.48 C 38.02 95.64 36.75 91.83 36.35 87.83 C 34.90 89.14 35.36 91.27 35.58 92.99 M 87.24 104.96 C 87.56 100.88 90.15 97.58 91.40 93.80 C 85.40 92.77 82.60 102.12 87.24 104.96 M 93.64 94.91 L 93.99 96.14 C 93.64 96.32 92.93 96.69 92.58 96.87 C 90.80 100.37 90.01 104.27 89.97 108.18 C 90.29 111.30 91.17 114.34 92.43 117.20 C 94.64 114.13 93.49 109.86 96.06 106.97 C 97.34 105.53 95.76 103.72 95.47 102.17 C 95.32 99.62 95.24 97.06 95.40 94.51 L 93.64 94.91 M 27.62 96.49 C 28.74 99.22 30.92 101.25 33.04 103.21 C 33.72 102.91 35.09 102.30 35.78 102.00 C 33.12 100.07 30.39 98.25 27.62 96.49 M 47.69 102.24 C 45.63 101.19 43.13 100.69 41.02 101.91 C 39.63 102.28 39.24 104.64 41.05 104.74 C 43.56 105.21 44.81 107.34 45.59 109.56 C 47.41 109.15 49.24 108.75 51.07 108.39 C 51.81 109.86 52.60 111.29 53.48 112.68 C 55.19 111.75 57.02 111.10 58.91 110.64 C 60.05 112.03 61.35 113.29 62.82 114.34 C 63.88 114.86 64.94 115.41 66.01 115.95 C 67.39 114.65 68.76 113.34 70.13 112.02 C 69.53 110.87 68.92 109.73 68.30 108.59 C 61.52 108.01 55.14 105.26 50.10 100.67 C 49.08 99.48 48.29 101.76 47.69 102.24 M 76.81 105.37 C 74.89 104.98 72.97 104.63 71.04 104.33 C 71.10 106.61 72.64 108.52 72.61 110.81 L 72.64 110.73 C 76.93 111.24 80.73 109.18 84.23 107.01 C 83.26 105.04 82.46 102.95 82.41 100.73 C 80.69 102.45 78.79 103.97 76.81 105.37 M 98.73 108.05 L 98.83 108.45 C 95.71 112.11 95.17 117.62 95.79 122.28 C 99.80 121.49 101.73 117.56 103.36 114.23 C 103.40 111.88 103.40 109.47 102.26 107.34 C 101.38 107.51 99.61 107.87 98.73 108.05 M 106.33 109.18 C 107.05 114.71 103.77 119.13 100.68 123.29 C 105.50 121.77 110.96 117.96 110.74 112.35 C 109.39 111.13 107.83 110.19 106.33 109.18 M 97.67 126.62 C 94.41 129.61 92.81 133.86 91.87 138.07 C 93.71 139.16 96.52 139.96 98.16 138.14 C 101.29 134.75 103.46 130.32 103.48 125.64 C 101.57 125.92 99.32 125.39 97.67 126.62 M 105.45 141.45 C 104.06 141.74 102.72 142.25 101.36 142.65 C 101.35 143.26 101.33 144.49 101.33 145.11 C 99.96 146.54 99.18 148.38 98.38 150.16 C 100.58 150.13 103.01 150.51 104.95 149.21 C 110.19 145.95 114.97 141.69 118.05 136.28 C 113.76 137.70 109.02 138.48 105.45 141.45 M 78.24 141.30 C 77.71 144.48 81.60 145.91 83.79 147.36 C 83.50 145.88 83.19 144.39 82.89 142.91 C 83.40 142.31 84.43 141.09 84.95 140.48 C 82.68 139.87 80.33 140.34 78.24 141.30 M 85.06 143.25 C 85.72 146.25 86.67 149.18 87.82 152.03 C 88.69 154.07 89.56 156.11 90.50 158.13 C 92.72 155.43 93.87 152.08 95.24 148.92 C 96.99 147.74 98.26 146.01 99.25 144.18 C 96.15 142.94 93.08 141.65 90.03 140.32 C 88.17 140.89 86.67 142.21 85.06 143.25 M 81.20 151.04 C 81.82 151.44 83.06 152.24 83.68 152.63 C 85.41 152.94 85.48 150.40 84.71 149.36 C 83.18 148.36 82.29 150.32 81.20 151.04 M 106.24 152.62 C 109.01 155.83 113.25 157.01 117.19 158.05 C 115.95 154.25 112.89 151.57 110.05 148.95 C 108.83 150.07 105.94 150.61 106.24 152.62 M 96.44 152.24 C 95.47 154.06 94.32 155.83 93.75 157.84 C 93.82 160.01 94.28 162.14 94.67 164.27 C 95.77 168.51 96.77 172.77 97.92 176.99 C 102.58 171.82 104.38 164.43 104.63 157.63 C 103.93 156.20 103.26 154.75 102.62 153.30 C 100.56 152.92 98.50 152.57 96.44 152.24 M 120.28 156.72 C 119.91 158.43 119.52 160.13 119.09 161.83 C 122.74 166.62 127.89 169.90 132.99 172.95 C 138.12 175.63 143.45 178.25 149.23 179.12 L 150.45 180.02 C 150.82 178.73 150.57 177.43 149.71 176.42 C 144.46 168.96 138.28 160.89 128.85 158.84 L 128.70 158.41 C 125.94 157.61 123.14 156.97 120.28 156.72 M 151.82 175.36 C 152.47 177.02 153.01 178.77 152.68 180.57 C 151.08 180.71 149.47 180.86 147.87 181.03 C 158.54 186.86 169.20 192.70 179.99 198.32 C 181.92 199.28 183.85 200.23 185.76 201.22 C 191.35 203.68 197.01 205.99 202.68 208.24 C 213.15 211.85 222.85 218.12 234.03 219.32 C 237.85 219.40 243.45 219.47 244.91 215.07 C 236.09 207.53 225.47 202.67 215.25 197.39 C 208.89 194.54 202.26 192.36 195.92 189.48 C 193.16 188.44 190.39 187.48 187.59 186.57 C 175.80 182.49 164.19 177.39 151.82 175.36 M 95.66 183.59 C 93.63 190.19 91.74 196.85 89.95 203.52 C 89.08 208.70 87.73 213.78 86.98 218.98 C 85.66 227.98 82.97 237.00 84.24 246.18 C 87.56 234.07 89.88 221.64 94.96 210.08 C 97.84 205.62 99.37 200.47 101.46 195.62 C 102.93 191.50 105.68 187.76 105.93 183.27 C 102.65 182.00 98.75 181.68 95.66 183.59 M 99.45 216.49 C 100.38 222.10 101.20 227.74 102.52 233.27 C 103.35 228.51 103.14 223.67 103.02 218.87 C 103.00 213.03 104.37 207.16 103.12 201.36 C 99.79 205.68 98.27 211.10 99.45 216.49 Z" />
<path fill="#78869a" opacity="1.00" d=" M 83.99 4.75 C 90.14 11.95 94.12 20.69 98.39 29.06 C 98.14 29.36 97.63 29.97 97.38 30.27 C 95.24 30.70 93.28 31.65 91.63 33.09 C 88.89 23.69 86.71 14.15 83.99 4.75 Z" />
<path fill="#8392a1" opacity="1.00" d=" M 160.52 29.38 C 163.02 20.66 168.81 13.04 176.08 7.73 C 178.36 5.86 179.67 9.55 180.58 11.05 C 178.25 14.03 176.09 17.24 173.15 19.67 C 168.51 22.51 164.84 26.56 161.03 30.38 L 160.52 29.38 Z" />
<path fill="#525c78" opacity="1.00" d=" M 270.97 14.39 C 275.67 14.04 280.36 13.59 285.08 13.74 C 283.33 22.14 282.88 31.02 278.70 38.72 C 272.20 52.93 263.01 65.90 251.73 76.72 C 245.99 83.06 238.01 87.03 229.72 88.80 C 225.95 86.02 221.44 84.28 218.17 80.83 C 214.23 77.28 211.85 72.45 208.40 68.48 C 211.68 67.07 212.52 63.35 213.48 60.28 C 214.92 55.23 217.20 50.26 216.65 44.87 C 212.71 49.13 210.29 54.40 207.24 59.23 C 206.71 56.48 205.63 53.91 204.54 51.35 C 203.99 45.67 204.17 39.38 207.43 34.47 C 207.11 34.22 206.48 33.73 206.16 33.48 C 216.42 29.12 226.92 25.38 237.40 21.62 C 248.29 18.10 259.43 14.60 270.97 14.39 Z" />
<path fill="#31385d" opacity="1.00" d=" M 285.08 13.74 C 290.33 13.67 295.59 14.27 300.70 15.51 C 304.50 16.45 305.23 20.81 306.24 24.00 C 308.53 33.69 309.00 43.97 306.51 53.67 C 303.49 65.50 297.27 76.26 289.94 85.94 C 281.69 96.80 270.55 104.85 260.64 114.06 C 261.07 116.36 261.53 118.67 262.03 120.97 C 257.82 118.99 252.39 116.76 248.47 120.62 C 243.11 126.04 245.33 134.49 246.19 141.22 C 242.41 137.48 242.04 131.76 239.31 127.35 C 228.48 132.90 215.83 133.06 203.97 131.95 C 193.17 131.12 183.19 126.41 173.89 121.14 C 174.38 121.10 175.36 121.00 175.84 120.96 C 172.94 115.97 172.19 109.98 173.49 104.39 C 174.81 100.60 177.73 97.69 180.71 95.13 C 177.77 95.08 174.83 94.90 171.91 94.61 C 175.76 94.41 179.62 94.17 183.40 93.38 C 191.11 92.52 198.88 92.93 206.61 92.44 C 214.38 91.76 222.13 90.65 229.72 88.80 C 238.01 87.03 245.99 83.06 251.73 76.72 C 263.01 65.90 272.20 52.93 278.70 38.72 C 282.88 31.02 283.33 22.14 285.08 13.74 Z" />
<path fill="#4b5472" opacity="1.00" d=" M 161.03 30.38 C 164.84 26.56 168.51 22.51 173.15 19.67 C 171.12 23.65 168.14 27.04 166.10 31.02 C 161.90 38.30 160.39 46.76 156.09 53.99 C 151.52 61.66 147.03 69.56 140.66 75.90 C 138.43 76.42 139.46 73.97 139.78 72.78 C 140.87 69.24 144.32 67.27 146.14 64.16 C 153.64 53.74 156.79 41.11 160.31 28.97 L 160.52 29.38 L 161.03 30.38 Z" />
<path fill="#647087" opacity="1.00" d=" M 98.39 29.06 C 99.98 32.56 101.30 36.18 102.57 39.81 C 100.26 41.07 98.01 42.42 95.82 43.88 C 94.27 40.34 92.83 36.75 91.63 33.09 C 93.28 31.65 95.24 30.70 97.38 30.27 C 97.63 29.97 98.14 29.36 98.39 29.06 Z" />
<path fill="#59647e" opacity="1.00" d=" M 196.19 37.93 C 199.23 35.90 202.90 35.08 206.16 33.48 C 206.48 33.73 207.11 34.22 207.43 34.47 C 204.17 39.38 203.99 45.67 204.54 51.35 C 202.58 49.74 200.58 48.12 198.17 47.23 C 199.91 51.48 202.63 55.41 203.44 60.00 C 200.87 64.68 195.80 66.45 191.22 68.46 C 191.14 67.40 190.99 65.28 190.91 64.22 C 187.95 66.92 185.79 70.33 182.98 73.16 C 182.94 72.37 182.86 70.80 182.81 70.01 C 177.80 72.09 173.07 74.78 167.90 76.48 C 164.31 71.79 167.17 65.58 165.28 60.31 C 169.38 57.40 173.51 54.53 177.61 51.61 C 183.88 47.16 190.76 43.47 196.19 37.93 Z" />
<path fill="#404969" opacity="1.00" d=" M 155.11 62.10 C 167.01 51.40 181.38 43.74 196.19 37.93 C 190.76 43.47 183.88 47.16 177.61 51.61 C 173.51 54.53 169.38 57.40 165.28 60.31 C 159.62 64.17 153.94 68.02 147.84 71.16 C 149.59 67.66 152.01 64.51 155.11 62.10 Z" />
<path fill="#535d79" opacity="1.00" d=" M 102.57 39.81 C 102.92 40.85 103.24 41.91 103.54 42.97 C 103.61 46.28 100.28 47.18 97.91 48.47 C 97.20 46.95 96.49 45.42 95.82 43.88 C 98.01 42.42 100.26 41.07 102.57 39.81 Z" />
<path fill="#3f4768" opacity="1.00" d=" M 103.54 42.97 C 106.37 51.91 106.27 61.57 109.94 70.24 L 109.98 70.54 C 109.59 70.32 108.80 69.90 108.40 69.69 C 105.28 62.43 101.37 55.57 97.91 48.47 C 100.28 47.18 103.61 46.28 103.54 42.97 Z" />
<path fill="#636f86" opacity="1.00" d=" M 39.83 44.89 C 45.23 46.82 50.12 49.92 55.43 52.07 L 55.53 52.41 C 56.02 54.00 56.52 55.59 57.09 57.16 C 50.67 54.14 45.15 49.52 39.83 44.89 Z" />
<path fill="#798799" opacity="1.00" d=" M 57.09 57.16 C 56.52 55.59 56.02 54.00 55.53 52.41 C 63.15 56.05 70.33 60.56 77.34 65.23 C 75.52 65.52 73.71 65.93 71.90 66.32 C 67.03 63.16 61.62 60.80 57.09 57.16 Z" />
<path fill="#5b6780" opacity="1.00" d=" M 206.39 65.20 C 209.04 61.66 211.17 57.79 212.88 53.72 C 212.40 57.51 211.06 61.11 209.79 64.70 C 208.94 64.82 207.24 65.07 206.39 65.20 Z" />
<path fill="#606c84" opacity="1.00" d=" M 147.84 71.16 C 153.94 68.02 159.62 64.17 165.28 60.31 C 167.17 65.58 164.31 71.79 167.90 76.48 C 165.73 77.01 163.52 76.64 161.38 76.18 C 161.31 77.55 161.25 78.92 161.19 80.30 C 154.90 78.80 148.36 80.12 142.06 79.12 L 141.35 77.78 C 143.36 75.44 145.56 73.24 147.84 71.16 Z" />
<path fill="#667389" opacity="1.00" d=" M 133.14 72.42 C 135.54 68.86 137.43 64.98 140.02 61.54 C 139.54 65.74 138.09 69.76 137.56 73.95 C 136.08 73.44 134.61 72.93 133.14 72.42 Z" />
<path fill="#2c3359" opacity="1.00" d=" M 46.14 65.16 C 47.56 63.32 49.68 64.91 51.08 65.88 C 55.54 69.14 60.83 71.49 64.08 76.16 C 61.58 75.41 59.02 74.90 56.51 74.20 C 52.79 71.58 48.74 68.99 46.14 65.16 Z" />
<path fill="#495371" opacity="1.00" d=" M 77.34 65.23 C 81.89 68.15 86.76 71.07 90.14 75.37 C 84.04 72.40 77.75 69.78 71.90 66.32 C 73.71 65.93 75.52 65.52 77.34 65.23 Z" />
<path fill="#575a72" opacity="1.00" d=" M 195.93 68.79 C 198.87 67.57 201.88 66.51 204.70 65.01 C 204.85 65.50 205.17 66.46 205.33 66.95 C 198.12 69.25 191.83 73.83 184.55 75.82 C 185.88 73.90 187.24 72.00 188.62 70.11 C 191.15 71.50 193.59 69.68 195.93 68.79 Z" />
<path fill="#42405f" opacity="1.00" d=" M 184.55 75.82 C 191.83 73.83 198.12 69.25 205.33 66.95 L 206.55 66.50 C 205.78 68.63 204.51 70.52 203.09 72.28 C 201.30 72.60 199.21 72.51 197.78 73.83 C 196.70 75.19 195.94 76.75 195.08 78.25 C 191.11 77.34 187.68 79.12 184.80 81.68 C 178.92 80.12 173.40 83.83 167.80 85.13 C 167.82 84.58 167.88 83.47 167.91 82.92 C 172.68 80.59 177.98 79.65 182.83 77.51 C 182.24 77.07 181.65 76.64 181.06 76.21 C 182.22 76.09 183.39 76.02 184.55 75.82 Z" />
<path fill="#59647e" opacity="1.00" d=" M 203.97 74.93 C 205.23 72.64 206.60 70.39 208.40 68.48 C 211.85 72.45 214.23 77.28 218.17 80.83 C 221.44 84.28 225.95 86.02 229.72 88.80 C 222.13 90.65 214.38 91.76 206.61 92.44 C 198.88 92.93 191.11 92.52 183.40 93.38 C 174.53 93.01 165.51 94.12 156.76 92.20 C 157.78 91.70 158.81 91.20 159.84 90.71 C 160.63 92.17 162.46 91.92 163.81 92.32 C 165.42 90.65 166.80 88.77 167.98 86.78 C 172.48 85.67 176.96 84.48 181.42 83.23 C 184.34 86.38 187.25 82.09 189.98 80.92 C 191.89 80.79 193.75 81.50 195.67 81.58 C 197.11 79.34 197.78 76.62 199.75 74.70 C 201.15 74.78 202.56 74.86 203.97 74.93 Z" />
<path fill="#56617b" opacity="1.00" d=" M 56.51 74.20 C 59.02 74.90 61.58 75.41 64.08 76.16 C 69.85 82.31 76.78 87.39 81.68 94.34 C 82.56 95.40 82.66 96.81 82.97 98.09 C 81.47 95.95 79.97 93.78 77.90 92.15 C 73.63 88.70 70.32 84.04 65.39 81.46 C 62.06 79.53 59.24 76.87 56.51 74.20 Z" />
<path fill="#bf4a7c" opacity="1.00" d=" M 107.01 75.03 C 108.36 73.99 110.23 74.46 111.82 74.19 L 111.79 74.21 C 109.31 74.83 108.50 77.15 107.81 79.33 C 107.19 79.70 105.96 80.42 105.34 80.79 C 105.71 78.88 105.19 76.33 107.01 75.03 Z" />
<path fill="#748194" opacity="1.00" d=" M 8.49 78.39 C 11.14 76.76 13.84 74.91 17.05 74.73 C 22.51 74.31 28.04 74.24 33.48 74.92 C 31.45 75.36 29.42 75.84 27.38 76.27 C 28.99 77.79 31.52 79.30 30.84 81.93 C 29.75 85.28 25.74 85.82 22.86 86.83 C 19.78 87.52 17.08 89.18 14.76 91.28 C 12.59 87.02 10.25 82.84 8.49 78.39 Z" />
<path fill="#667289" opacity="1.00" d=" M 33.48 74.92 C 39.53 74.95 45.60 75.84 51.56 76.91 C 48.94 78.37 45.94 77.87 43.11 77.57 C 44.90 83.56 41.40 89.02 40.08 94.68 C 38.83 91.34 38.92 87.76 38.58 84.27 C 36.93 82.22 35.23 84.83 34.15 86.12 C 31.75 90.17 33.82 94.97 35.04 99.06 C 31.28 95.88 26.96 93.29 24.05 89.22 C 23.55 89.32 22.55 89.54 22.05 89.64 C 23.98 94.60 25.41 99.95 29.38 103.76 C 28.98 103.81 28.18 103.91 27.78 103.96 C 21.84 101.82 17.73 96.62 14.76 91.28 C 17.08 89.18 19.78 87.52 22.86 86.83 C 25.74 85.82 29.75 85.28 30.84 81.93 C 31.52 79.30 28.99 77.79 27.38 76.27 C 29.42 75.84 31.45 75.36 33.48 74.92 Z" />
<path fill="#ffffdb" opacity="1.00" d=" M 104.74 75.19 C 104.34 76.05 103.92 76.90 103.43 77.72 C 101.51 80.57 99.71 83.50 98.35 86.67 C 98.42 84.73 98.00 82.64 98.81 80.82 C 100.24 78.44 102.61 76.87 104.74 75.19 Z" />
<path fill="#902e7d" opacity="1.00" d=" M 107.81 79.33 C 108.50 77.15 109.31 74.83 111.79 74.21 C 112.47 76.86 109.75 78.35 107.81 79.33 Z" />
<path fill="#575a72" opacity="1.00" d=" M 165.86 80.55 C 170.79 79.31 175.69 77.84 180.29 75.64 L 181.06 76.21 C 181.65 76.64 182.24 77.07 182.83 77.51 C 177.98 79.65 172.68 80.59 167.91 82.92 C 167.22 82.13 166.54 81.34 165.86 80.55 Z" />
<path fill="#5b6780" opacity="1.00" d=" M 43.11 77.57 C 45.94 77.87 48.94 78.37 51.56 76.91 L 51.97 76.74 C 54.45 77.17 57.16 77.21 59.31 78.68 C 64.38 82.13 69.05 86.16 73.43 90.44 C 72.40 90.48 71.36 90.52 70.33 90.56 C 68.98 92.43 67.82 94.52 65.99 95.97 C 62.31 97.14 58.37 97.18 54.61 98.08 C 54.39 98.93 54.16 99.77 53.94 100.62 C 52.50 99.31 51.06 98.00 49.65 96.66 C 48.75 97.50 47.85 98.36 46.97 99.23 C 44.85 98.90 42.72 98.62 40.58 98.45 C 40.40 97.19 40.17 95.94 40.08 94.68 C 41.40 89.02 44.90 83.56 43.11 77.57 Z" />
<path fill="#34304e" opacity="1.00" d=" M 110.59 80.39 C 111.66 78.90 112.85 77.49 114.10 76.13 C 114.59 77.42 115.08 78.71 115.56 80.00 C 113.90 80.14 112.24 80.27 110.59 80.39 Z" />
<path fill="#2d3459" opacity="1.00" d=" M 3.90 95.01 C 3.80 89.22 4.83 83.07 8.49 78.39 C 10.25 82.84 12.59 87.02 14.76 91.28 C 17.73 96.62 21.84 101.82 27.78 103.96 C 28.18 103.91 28.98 103.81 29.38 103.76 L 29.68 103.72 C 31.58 106.69 35.13 105.60 38.08 105.93 C 39.90 105.99 41.38 107.13 42.89 107.99 C 42.55 109.32 42.22 110.64 41.90 111.97 C 44.52 111.74 47.12 111.35 49.70 110.82 C 50.40 112.64 51.31 114.40 52.81 115.70 C 54.70 114.62 56.67 113.68 58.72 112.94 C 60.81 115.24 63.44 116.89 66.11 118.43 C 67.21 117.43 68.31 116.44 69.40 115.43 L 69.48 115.43 C 71.02 115.44 72.55 115.43 74.08 115.42 C 74.19 119.63 70.61 122.38 67.36 124.36 C 61.02 127.92 53.79 129.57 46.65 130.59 C 39.61 131.58 32.46 130.36 25.45 131.62 L 25.14 131.67 C 20.30 126.48 15.51 121.10 12.36 114.69 C 9.17 108.32 4.12 102.46 3.90 95.01 Z" />
<path fill="#4e506c" opacity="1.00" d=" M 98.35 86.67 C 99.71 83.50 101.51 80.57 103.43 77.72 C 103.77 79.46 104.54 81.21 104.19 83.02 C 102.44 84.75 100.29 86.00 98.13 87.15 L 98.35 86.67 Z" />
<path fill="#69758b" opacity="1.00" d=" M 128.12 78.34 C 130.87 76.79 134.03 78.14 136.85 78.74 C 134.37 81.56 131.33 84.36 127.26 83.74 C 127.40 81.94 127.07 79.93 128.12 78.34 Z" />
<path fill="#52546e" opacity="1.00" d=" M 122.39 84.90 C 123.04 82.69 124.17 80.68 125.71 78.97 C 125.85 81.08 124.92 84.67 127.84 85.20 C 132.23 86.13 134.94 82.14 138.21 80.10 C 139.10 82.34 139.61 84.70 139.14 87.11 C 136.46 87.89 133.78 89.03 130.94 88.90 C 127.68 88.73 125.04 86.57 122.39 84.90 Z" />
<path fill="#555770" opacity="1.00" d=" M 73.19 81.15 C 74.91 81.87 77.90 81.39 78.29 83.76 C 78.62 84.94 78.89 86.13 79.10 87.34 C 76.99 85.42 75.05 83.32 73.19 81.15 Z" />
<path fill="#4f5976" opacity="1.00" d=" M 108.03 85.03 C 111.74 83.10 116.04 82.82 120.08 81.99 C 119.87 84.67 119.71 87.35 119.75 90.04 C 116.81 92.83 113.09 96.80 108.63 95.40 C 105.52 93.05 106.04 87.93 108.03 85.03 Z" />
<path fill="#423f5f" opacity="1.00" d=" M 143.38 82.26 C 148.48 83.79 153.85 83.59 159.09 83.19 C 157.42 83.56 155.73 83.83 154.05 84.12 C 153.79 84.61 153.28 85.58 153.02 86.07 C 157.06 85.81 160.96 84.65 164.75 83.27 C 167.46 85.27 164.08 89.02 162.55 90.99 C 162.34 90.26 161.94 88.82 161.73 88.09 C 155.48 89.19 149.06 88.31 142.86 87.29 C 143.04 85.62 143.22 83.94 143.38 82.26 Z" />
<path fill="#50526a" opacity="1.00" d=" M 159.09 83.19 C 160.99 82.84 163.11 81.54 164.75 83.27 C 160.96 84.65 157.06 85.81 153.02 86.07 C 153.28 85.58 153.79 84.61 154.05 84.12 C 155.73 83.83 157.42 83.56 159.09 83.19 Z" />
<path fill="#3e3a5b" opacity="1.00" d=" M 82.33 83.53 C 86.50 84.61 90.52 86.19 94.61 87.52 C 94.96 88.24 95.32 88.95 95.67 89.67 C 94.75 90.57 93.83 91.47 92.91 92.38 C 87.42 92.67 85.14 87.20 82.33 83.53 Z" />
<path fill="#3d395a" opacity="1.00" d=" M 122.39 84.90 C 125.04 86.57 127.68 88.73 130.94 88.90 C 133.78 89.03 136.46 87.89 139.14 87.11 C 138.09 89.20 137.18 91.89 134.59 92.47 C 131.22 93.11 127.18 92.96 124.55 90.46 C 122.99 89.03 122.74 86.86 122.39 84.90 Z" />
<path fill="#ffffdb" opacity="1.00" d=" M 100.54 89.67 C 102.13 88.42 103.82 87.32 105.55 86.30 C 105.21 87.17 104.86 88.05 104.51 88.92 C 103.79 89.37 103.08 89.83 102.36 90.28 C 103.00 90.94 103.65 91.59 104.29 92.25 C 103.04 94.11 101.05 94.81 98.88 94.83 C 98.54 97.10 98.34 99.39 98.29 101.69 C 98.06 101.73 97.59 101.80 97.35 101.84 C 97.63 97.76 96.54 92.29 100.54 89.67 Z" />
<path fill="#242947" opacity="1.00" d=" M 81.89 86.74 C 84.11 88.25 86.14 90.16 87.11 92.72 C 86.57 93.03 85.50 93.65 84.97 93.95 C 83.69 91.67 82.62 89.26 81.89 86.74 Z" />
<path fill="#667289" opacity="1.00" d=" M 35.58 92.99 C 35.36 91.27 34.90 89.14 36.35 87.83 C 36.75 91.83 38.02 95.64 39.12 99.48 C 36.76 98.20 36.18 95.38 35.58 92.99 Z" />
<path fill="#53566f" opacity="1.00" d=" M 102.36 90.28 C 103.08 89.83 103.79 89.37 104.51 88.92 C 103.42 93.13 105.70 97.88 110.30 98.43 C 110.43 98.83 110.68 99.64 110.81 100.04 C 106.64 100.62 102.45 101.00 98.29 101.69 C 98.34 99.39 98.54 97.10 98.88 94.83 C 101.05 94.81 103.04 94.11 104.29 92.25 C 103.65 91.59 103.00 90.94 102.36 90.28 Z" />
<path fill="#4a5472" opacity="1.00" d=" M 70.33 90.56 C 71.36 90.52 72.40 90.48 73.43 90.44 C 74.78 91.69 76.15 92.92 77.53 94.14 C 76.20 96.78 74.83 99.39 73.38 101.96 L 73.17 102.34 C 71.67 102.37 70.18 102.41 68.68 102.46 C 68.33 103.48 67.99 104.51 67.64 105.54 C 62.96 104.26 57.96 103.58 53.94 100.62 C 54.16 99.77 54.39 98.93 54.61 98.08 C 58.37 97.18 62.31 97.14 65.99 95.97 C 67.82 94.52 68.98 92.43 70.33 90.56 Z" />
<path fill="#384063" opacity="1.00" d=" M 127.87 96.38 C 133.67 96.94 139.97 95.12 142.91 89.71 C 147.27 91.86 152.14 91.30 156.76 92.20 C 165.51 94.12 174.53 93.01 183.40 93.38 C 179.62 94.17 175.76 94.41 171.91 94.61 C 174.83 94.90 177.77 95.08 180.71 95.13 C 177.73 97.69 174.81 100.60 173.49 104.39 C 172.19 109.98 172.94 115.97 175.84 120.96 C 175.36 121.00 174.38 121.10 173.89 121.14 C 163.13 115.55 152.14 110.36 141.55 104.41 C 136.97 101.78 131.98 99.76 127.87 96.38 Z" />
<path fill="#2d244b" opacity="1.00" d=" M 110.30 98.43 C 114.57 97.79 118.04 95.19 121.12 92.34 C 122.38 93.54 123.99 94.50 124.82 96.07 C 124.31 102.89 119.24 108.23 114.26 112.40 C 111.59 108.72 106.83 108.34 103.53 105.54 C 101.95 104.31 99.81 105.13 97.99 105.07 C 97.78 103.99 97.56 102.91 97.35 101.84 C 97.59 101.80 98.06 101.73 98.29 101.69 C 102.45 101.00 106.64 100.62 110.81 100.04 C 110.68 99.64 110.43 98.83 110.30 98.43 Z" />
<path fill="#2d3459" opacity="1.00" d=" M 77.53 94.14 C 78.53 95.15 79.52 96.15 80.53 97.15 C 80.25 100.51 76.85 104.82 73.38 101.96 C 74.83 99.39 76.20 96.78 77.53 94.14 Z" />
<path fill="#4e506c" opacity="1.00" d=" M 87.24 104.96 C 82.60 102.12 85.40 92.77 91.40 93.80 C 90.15 97.58 87.56 100.88 87.24 104.96 Z" />
<path fill="#53556e" opacity="1.00" d=" M 93.64 94.91 L 95.40 94.51 C 95.24 97.06 95.32 99.62 95.47 102.17 C 94.51 104.85 92.05 106.44 89.97 108.18 C 90.01 104.27 90.80 100.37 92.58 96.87 C 93.71 97.99 94.18 97.75 93.99 96.14 L 93.64 94.91 Z" />
<path fill="#a19f95" opacity="1.00" d=" M 92.58 96.87 C 92.93 96.69 93.64 96.32 93.99 96.14 C 94.18 97.75 93.71 97.99 92.58 96.87 Z" />
<path fill="#636f86" opacity="1.00" d=" M 27.62 96.49 C 30.39 98.25 33.12 100.07 35.78 102.00 C 35.09 102.30 33.72 102.91 33.04 103.21 C 30.92 101.25 28.74 99.22 27.62 96.49 Z" />
<path fill="#565971" opacity="1.00" d=" M 47.69 102.24 C 48.29 101.76 49.08 99.48 50.10 100.67 C 55.14 105.26 61.52 108.01 68.30 108.59 C 66.40 110.44 64.58 112.36 62.82 114.34 C 61.35 113.29 60.05 112.03 58.91 110.64 C 57.02 111.10 55.19 111.75 53.48 112.68 C 52.60 111.29 51.81 109.86 51.07 108.39 C 49.24 108.75 47.41 109.15 45.59 109.56 C 44.81 107.34 43.56 105.21 41.05 104.74 C 39.24 104.64 39.63 102.28 41.02 101.91 C 43.13 100.69 45.63 101.19 47.69 102.24 Z" />
<path fill="#342d52" opacity="1.00" d=" M 76.81 105.37 C 78.79 103.97 80.69 102.45 82.41 100.73 C 82.46 102.95 83.26 105.04 84.23 107.01 C 80.73 109.18 76.93 111.24 72.64 110.73 C 73.48 108.57 74.86 106.66 76.81 105.37 Z" />
<path fill="#2e264c" opacity="1.00" d=" M 95.47 102.17 C 95.76 103.72 97.34 105.53 96.06 106.97 C 93.49 109.86 94.64 114.13 92.43 117.20 C 91.17 114.34 90.29 111.30 89.97 108.18 C 92.05 106.44 94.51 104.85 95.47 102.17 Z" />
<path fill="#555770" opacity="1.00" d=" M 71.04 104.33 C 72.97 104.63 74.89 104.98 76.81 105.37 C 74.86 106.66 73.48 108.57 72.64 110.73 L 72.61 110.81 C 72.64 108.52 71.10 106.61 71.04 104.33 Z" />
<path fill="#788698" opacity="1.00" d=" M 98.73 108.05 C 99.61 107.87 101.38 107.51 102.26 107.34 C 103.40 109.47 103.40 111.88 103.36 114.23 C 102.35 114.37 101.34 114.50 100.34 114.64 C 99.84 112.57 99.35 110.51 98.83 108.45 L 98.73 108.05 Z" />
<path fill="#403c5d" opacity="1.00" d=" M 68.30 108.59 C 68.92 109.73 69.53 110.87 70.13 112.02 C 68.76 113.34 67.39 114.65 66.01 115.95 C 64.94 115.41 63.88 114.86 62.82 114.34 C 64.58 112.36 66.40 110.44 68.30 108.59 Z" />
<path fill="#343b5f" opacity="1.00" d=" M 77.63 113.44 C 80.97 111.97 84.12 110.11 87.38 108.47 C 87.54 109.59 87.71 110.70 87.87 111.81 C 81.14 122.66 72.98 132.58 63.39 141.01 C 63.58 145.04 63.89 149.11 63.05 153.09 C 63.13 150.93 63.11 148.76 63.11 146.60 C 61.37 146.60 59.63 146.61 57.90 146.61 C 57.31 147.38 56.72 148.14 56.13 148.91 C 56.12 148.29 56.11 147.04 56.11 146.42 C 44.44 145.83 33.73 139.55 25.45 131.62 C 32.46 130.36 39.61 131.58 46.65 130.59 C 53.79 129.57 61.02 127.92 67.36 124.36 C 70.61 122.38 74.19 119.63 74.08 115.42 C 72.55 115.43 71.02 115.44 69.48 115.43 C 71.54 112.86 74.82 113.88 77.63 113.44 Z" />
<path fill="#535d79" opacity="1.00" d=" M 95.79 122.28 C 95.17 117.62 95.71 112.11 98.83 108.45 C 99.35 110.51 99.84 112.57 100.34 114.64 C 101.34 114.50 102.35 114.37 103.36 114.23 C 101.73 117.56 99.80 121.49 95.79 122.28 Z" />
<path fill="#3a3658" opacity="1.00" d=" M 106.33 109.18 C 107.83 110.19 109.39 111.13 110.74 112.35 C 110.96 117.96 105.50 121.77 100.68 123.29 C 103.77 119.13 107.05 114.71 106.33 109.18 Z" />
<path fill="#464f6e" opacity="1.00" d=" M 248.47 120.62 C 252.39 116.76 257.82 118.99 262.03 120.97 C 262.42 122.32 262.81 123.67 263.20 125.02 C 258.69 125.88 253.78 126.94 250.69 130.66 C 247.53 133.69 246.83 138.15 246.46 142.31 C 246.39 142.03 246.26 141.49 246.19 141.22 C 245.33 134.49 243.11 126.04 248.47 120.62 Z" />
<path fill="#56617c" opacity="1.00" d=" M 250.69 130.66 C 253.78 126.94 258.69 125.88 263.20 125.02 C 263.91 127.40 264.60 129.79 265.25 132.20 C 261.61 135.18 256.25 131.47 252.94 134.95 C 249.83 138.28 250.29 143.20 250.05 147.40 C 248.66 145.85 247.35 144.20 246.46 142.31 C 246.83 138.15 247.53 133.69 250.69 130.66 Z" />
<path fill="#555770" opacity="1.00" d=" M 97.67 126.62 C 99.32 125.39 101.57 125.92 103.48 125.64 C 103.46 130.32 101.29 134.75 98.16 138.14 C 96.52 139.96 93.71 139.16 91.87 138.07 C 92.81 133.86 94.41 129.61 97.67 126.62 Z" />
<path fill="#707e91" opacity="1.00" d=" M 252.94 134.95 C 256.25 131.47 261.61 135.18 265.25 132.20 C 267.00 139.33 269.59 146.55 268.73 154.00 C 268.44 156.69 265.25 157.52 262.99 157.17 C 257.27 156.57 252.95 152.01 250.05 147.40 C 250.29 143.20 249.83 138.28 252.94 134.95 Z" />
<path fill="#403c5d" opacity="1.00" d=" M 105.45 141.45 C 109.02 138.48 113.76 137.70 118.05 136.28 C 114.97 141.69 110.19 145.95 104.95 149.21 C 103.01 150.51 100.58 150.13 98.38 150.16 C 99.18 148.38 99.96 146.54 101.33 145.11 C 102.77 143.86 104.34 142.76 105.90 141.66 C 106.67 142.05 108.21 142.82 108.98 143.21 L 109.02 142.15 C 107.83 141.90 106.64 141.66 105.45 141.45 Z" />
<path fill="#575a72" opacity="1.00" d=" M 78.24 141.30 C 80.33 140.34 82.68 139.87 84.95 140.48 C 84.43 141.09 83.40 142.31 82.89 142.91 C 83.19 144.39 83.50 145.88 83.79 147.36 C 81.60 145.91 77.71 144.48 78.24 141.30 Z" />
<path fill="#53566f" opacity="1.00" d=" M 85.06 143.25 C 86.67 142.21 88.17 140.89 90.03 140.32 C 93.08 141.65 96.15 142.94 99.25 144.18 C 98.26 146.01 96.99 147.74 95.24 148.92 C 92.83 150.10 90.31 151.04 87.82 152.03 C 86.67 149.18 85.72 146.25 85.06 143.25 Z" />
<path fill="#8392a1" opacity="1.00" d=" M 101.36 142.65 C 102.72 142.25 104.06 141.74 105.45 141.45 C 106.64 141.66 107.83 141.90 109.02 142.15 L 108.98 143.21 C 108.21 142.82 106.67 142.05 105.90 141.66 C 104.34 142.76 102.77 143.86 101.33 145.11 C 101.33 144.49 101.35 143.26 101.36 142.65 Z" />
<path fill="#6f7c90" opacity="1.00" d=" M 56.13 148.91 C 56.72 148.14 57.31 147.38 57.90 146.61 C 59.63 146.61 61.37 146.60 63.11 146.60 C 63.11 148.76 63.13 150.93 63.05 153.09 C 62.77 155.49 62.20 157.89 61.16 160.08 C 60.56 161.03 59.88 162.53 58.54 161.64 C 56.61 157.70 56.42 153.21 56.13 148.91 Z" />
<path fill="#45475a" opacity="1.00" d=" M 81.20 151.04 C 82.29 150.32 83.18 148.36 84.71 149.36 C 85.48 150.40 85.41 152.94 83.68 152.63 C 83.06 152.24 81.82 151.44 81.20 151.04 Z" />
<path fill="#373255" opacity="1.00" d=" M 87.82 152.03 C 90.31 151.04 92.83 150.10 95.24 148.92 C 93.87 152.08 92.72 155.43 90.50 158.13 C 89.56 156.11 88.69 154.07 87.82 152.03 Z" />
<path fill="#444260" opacity="1.00" d=" M 106.24 152.62 C 105.94 150.61 108.83 150.07 110.05 148.95 C 112.89 151.57 115.95 154.25 117.19 158.05 C 113.25 157.01 109.01 155.83 106.24 152.62 Z" />
<path fill="#474664" opacity="1.00" d=" M 96.44 152.24 C 98.50 152.57 100.56 152.92 102.62 153.30 C 103.26 154.75 103.93 156.20 104.63 157.63 C 101.85 160.58 99.20 164.33 94.67 164.27 C 94.28 162.14 93.82 160.01 93.75 157.84 C 94.32 155.83 95.47 154.06 96.44 152.24 Z" />
<path fill="#373157" opacity="1.00" d=" M 85.78 154.62 C 87.31 156.93 89.05 159.11 91.29 160.78 C 92.07 166.93 94.01 172.81 95.82 178.72 C 95.64 179.16 95.30 180.04 95.13 180.48 C 95.02 180.28 94.82 179.86 94.71 179.65 C 93.72 172.39 88.76 166.48 85.84 159.92 C 85.35 158.20 85.78 156.38 85.78 154.62 Z" />
<path fill="#363154" opacity="1.00" d=" M 120.28 156.72 C 123.14 156.97 125.94 157.61 128.70 158.41 L 128.85 158.84 C 131.58 168.85 141.78 173.18 149.23 179.12 C 143.45 178.25 138.12 175.63 132.99 172.95 C 127.89 169.90 122.74 166.62 119.09 161.83 C 119.52 160.13 119.91 158.43 120.28 156.72 Z" />
<path fill="#383356" opacity="1.00" d=" M 94.67 164.27 C 99.20 164.33 101.85 160.58 104.63 157.63 C 104.38 164.43 102.58 171.82 97.92 176.99 C 96.77 172.77 95.77 168.51 94.67 164.27 Z" />
<path fill="#464563" opacity="1.00" d=" M 128.85 158.84 C 138.28 160.89 144.46 168.96 149.71 176.42 C 150.57 177.43 150.82 178.73 150.45 180.02 L 149.23 179.12 C 141.78 173.18 131.58 168.85 128.85 158.84 Z" />
<path fill="#4f5975" opacity="1.00" d=" M 151.82 175.36 C 164.19 177.39 175.80 182.49 187.59 186.57 C 185.03 190.47 182.56 194.43 179.99 198.32 C 169.20 192.70 158.54 186.86 147.87 181.03 C 149.47 180.86 151.08 180.71 152.68 180.57 C 153.01 178.77 152.47 177.02 151.82 175.36 Z" />
<path fill="#312a50" opacity="1.00" d=" M 95.66 183.59 C 98.75 181.68 102.65 182.00 105.93 183.27 C 105.68 187.76 102.93 191.50 101.46 195.62 C 99.37 200.47 97.84 205.62 94.96 210.08 C 94.81 208.63 94.73 207.15 94.28 205.75 C 93.21 204.47 91.37 204.25 89.95 203.52 C 91.74 196.85 93.63 190.19 95.66 183.59 Z" />
<path fill="#636f86" opacity="1.00" d=" M 187.59 186.57 C 190.39 187.48 193.16 188.44 195.92 189.48 C 193.60 190.93 191.17 192.28 189.21 194.23 C 187.34 196.13 186.72 198.82 185.76 201.22 C 183.85 200.23 181.92 199.28 179.99 198.32 C 182.56 194.43 185.03 190.47 187.59 186.57 Z" />
<path fill="#758395" opacity="1.00" d=" M 189.21 194.23 C 191.17 192.28 193.60 190.93 195.92 189.48 C 202.26 192.36 208.89 194.54 215.25 197.39 C 212.45 198.88 209.46 200.04 206.85 201.87 C 204.90 203.55 203.95 206.06 202.68 208.24 C 197.01 205.99 191.35 203.68 185.76 201.22 C 186.72 198.82 187.34 196.13 189.21 194.23 Z" />
<path fill="#808f9e" opacity="1.00" d=" M 206.85 201.87 C 209.46 200.04 212.45 198.88 215.25 197.39 C 225.47 202.67 236.09 207.53 244.91 215.07 C 243.45 219.47 237.85 219.40 234.03 219.32 C 222.85 218.12 213.15 211.85 202.68 208.24 C 203.95 206.06 204.90 203.55 206.85 201.87 Z" />
<path fill="#373155" opacity="1.00" d=" M 99.45 216.49 C 98.27 211.10 99.79 205.68 103.12 201.36 C 104.37 207.16 103.00 213.03 103.02 218.87 C 101.83 218.07 100.64 217.28 99.45 216.49 Z" />
<path fill="#4d4d69" opacity="1.00" d=" M 89.95 203.52 C 91.37 204.25 93.21 204.47 94.28 205.75 C 94.73 207.15 94.81 208.63 94.96 210.08 C 89.88 221.64 87.56 234.07 84.24 246.18 C 82.97 237.00 85.66 227.98 86.98 218.98 C 87.73 213.78 89.08 208.70 89.95 203.52 Z" />
<path fill="#4f5269" opacity="1.00" d=" M 99.45 216.49 C 100.64 217.28 101.83 218.07 103.02 218.87 C 103.14 223.67 103.35 228.51 102.52 233.27 C 101.20 227.74 100.38 222.10 99.45 216.49 Z" />
<path fill="#000000" opacity="1.00" d=" M 103.11 300.17 C 106.41 299.87 109.72 299.62 113.03 299.62 C 128.58 299.72 144.37 299.00 159.63 302.59 C 162.34 303.40 166.01 304.65 166.25 307.98 C 166.63 310.90 163.64 312.61 161.27 313.33 C 156.29 314.68 151.12 315.16 145.99 315.60 C 128.71 317.22 111.33 316.76 94.00 316.79 C 78.99 316.52 63.92 316.27 49.05 314.12 C 46.60 314.13 43.04 311.79 45.01 309.09 C 47.27 307.28 50.33 307.11 53.05 306.48 C 69.64 303.71 86.33 301.37 103.11 300.17 Z" />
</svg>
