<?xml version="1.0" encoding="UTF-8" ?>
<!DOCTYPE svg PUBLIC "-//W3C//DTD SVG 1.1//EN" "http://www.w3.org/Graphics/SVG/1.1/DTD/svg11.dtd">
<svg width="433pt" height="353pt" viewBox="0 0 433 353" version="1.1" xmlns="http://www.w3.org/2000/svg">
<path fill="#000000" opacity="1.00" d=" M 252.92 13.94 C 258.79 8.96 264.62 3.51 271.97 0.81 C 273.59 1.85 275.97 2.19 276.71 4.22 C 278.19 7.58 277.93 11.38 278.22 14.97 C 279.15 30.24 275.95 45.43 271.27 59.88 C 267.13 71.70 261.52 83.26 253.33 92.82 C 256.44 96.34 256.62 101.00 255.72 105.40 C 268.32 102.83 283.08 103.99 293.13 112.81 C 301.21 103.82 313.18 100.28 324.41 97.02 C 329.61 95.55 335.08 96.39 339.95 98.57 C 346.01 93.55 352.83 89.58 359.39 85.28 C 364.86 81.88 370.19 78.22 376.03 75.46 C 371.64 82.54 365.96 88.74 361.90 96.03 C 358.93 101.28 355.66 106.36 352.55 111.52 C 352.66 113.72 353.48 115.80 353.87 117.96 C 354.93 122.63 354.33 127.51 353.12 132.09 C 351.87 136.93 348.32 140.62 345.73 144.76 C 342.95 149.05 338.44 151.73 334.09 154.19 C 341.23 160.90 350.37 165.08 359.40 168.62 C 362.76 160.59 367.28 152.76 374.01 147.08 C 380.43 150.22 385.86 155.07 391.00 159.97 C 397.83 166.45 403.35 174.24 407.29 182.78 C 412.36 193.68 416.80 204.93 419.84 216.57 C 422.41 216.96 425.93 215.86 427.65 218.36 C 430.65 224.09 429.60 230.77 429.41 236.97 C 430.06 241.78 430.58 246.76 432.82 251.16 C 427.44 256.28 419.94 257.26 413.29 259.86 C 410.95 257.32 408.90 254.54 407.07 251.62 C 404.90 252.18 402.68 252.53 400.44 252.34 C 400.92 249.49 402.20 246.89 403.04 244.15 C 403.61 241.35 403.71 238.47 404.24 235.67 C 400.49 233.67 398.24 229.90 397.11 225.92 C 389.05 218.73 378.72 214.98 368.74 211.30 C 365.49 209.81 361.34 208.84 359.75 205.25 C 356.28 197.29 355.08 188.30 356.59 179.72 C 350.23 179.90 344.56 176.68 339.00 174.04 C 331.88 170.48 327.32 163.76 322.82 157.48 C 317.01 157.63 310.93 158.07 305.56 155.41 C 301.29 162.91 296.96 170.59 290.75 176.69 C 285.61 181.95 277.85 182.40 271.26 184.74 C 266.45 189.00 259.99 190.37 254.07 192.40 C 248.02 194.52 241.60 195.69 235.18 195.29 C 236.63 197.27 238.45 199.36 238.21 201.99 C 238.08 205.41 235.38 207.83 233.31 210.26 C 233.67 211.81 234.02 213.37 234.36 214.94 C 239.44 211.02 244.99 207.71 250.86 205.12 C 257.94 201.73 266.06 202.01 273.70 202.55 C 268.78 211.32 261.94 218.93 253.85 224.89 C 258.11 231.02 263.35 236.46 266.81 243.13 C 271.94 252.23 276.78 261.93 277.88 272.45 C 279.00 271.44 280.18 269.73 281.92 270.72 C 287.95 276.27 292.08 283.48 296.77 290.13 C 304.93 303.39 314.62 315.81 320.71 330.25 C 321.49 332.11 322.13 334.05 323.11 335.83 C 327.41 336.53 331.82 336.08 336.10 337.03 C 347.35 339.06 358.66 340.84 369.88 343.06 C 376.12 344.54 382.59 345.22 388.61 347.53 C 390.51 348.11 391.78 349.68 392.98 351.17 C 388.51 353.12 383.65 351.72 378.99 351.75 C 367.60 351.96 356.29 350.41 344.90 350.59 C 337.87 350.78 331.00 347.82 324.01 348.77 C 321.70 347.58 319.53 346.17 317.42 344.67 C 307.91 344.38 298.49 342.82 288.98 342.62 C 268.72 341.98 248.80 337.88 228.80 334.96 C 218.81 334.44 208.83 333.40 198.99 331.55 C 194.48 331.25 189.95 331.55 185.43 331.46 C 185.59 320.22 190.17 309.81 192.40 298.93 C 194.76 288.55 195.94 277.92 198.26 267.55 C 197.13 259.58 193.91 252.06 189.85 245.18 C 188.68 243.41 190.19 241.60 190.89 240.01 C 184.68 236.19 178.32 231.61 175.29 224.72 C 174.08 222.35 173.88 219.58 174.60 217.04 C 176.03 215.48 178.19 215.70 180.06 216.10 C 185.66 217.01 190.74 219.66 195.85 222.01 C 196.82 215.90 203.19 212.95 208.87 213.40 C 207.92 210.71 206.80 207.97 206.82 205.08 C 207.08 202.57 208.11 200.24 208.95 197.89 C 203.42 196.30 197.51 199.23 192.10 196.87 C 189.82 196.16 188.38 194.23 187.18 192.29 C 185.52 194.30 183.32 195.71 180.91 196.64 C 178.15 194.88 176.29 192.17 174.88 189.27 C 173.00 191.10 171.11 192.93 169.21 194.74 C 172.39 200.57 174.86 207.12 174.47 213.87 C 172.99 217.89 169.14 220.30 166.06 223.02 C 157.98 229.49 147.95 235.19 137.21 233.74 C 138.01 238.59 141.43 242.38 142.75 247.07 C 151.21 271.27 160.35 295.24 168.69 319.49 C 169.74 321.39 168.87 323.08 167.56 324.53 C 164.95 324.40 161.57 325.76 159.73 323.25 C 150.39 310.41 146.32 294.77 139.55 280.61 C 139.44 271.97 134.91 264.27 131.30 256.66 C 129.38 253.80 129.14 250.33 129.02 246.99 C 127.90 247.99 126.79 248.99 125.68 250.00 C 120.62 246.40 118.45 240.09 115.49 234.84 C 117.21 232.59 119.51 230.94 121.83 229.37 C 114.66 215.01 107.98 200.34 102.91 185.09 C 98.57 175.07 94.44 164.95 90.33 154.83 C 87.04 146.57 80.94 139.80 77.72 131.51 C 76.72 128.96 76.48 126.18 75.42 123.67 C 72.59 122.24 68.97 119.35 65.97 121.93 C 61.87 124.52 59.56 129.19 59.84 134.03 C 60.29 142.94 61.89 152.02 66.02 160.02 C 70.29 168.32 73.41 177.36 79.59 184.52 C 86.40 192.55 93.99 199.90 101.84 206.90 C 96.07 206.34 90.25 206.07 84.51 205.16 C 65.47 201.39 49.61 189.13 35.46 176.48 C 27.12 168.89 18.69 161.06 12.93 151.25 C 4.22 136.50 -0.50 119.11 1.39 101.95 C 1.99 92.86 5.13 84.17 9.18 76.08 C 13.73 67.61 18.51 59.14 24.96 51.95 C 28.80 47.94 32.50 43.53 37.74 41.29 C 35.28 49.04 34.34 57.24 34.89 65.34 C 36.98 75.87 47.39 83.10 57.50 84.90 C 56.45 77.55 53.74 70.42 53.78 62.95 C 54.13 62.62 54.84 61.98 55.19 61.65 C 58.49 63.76 59.89 67.70 62.65 70.39 C 67.69 75.79 71.33 82.24 74.25 88.98 C 75.02 87.76 75.90 86.56 76.26 85.14 C 77.05 82.32 77.47 79.42 78.01 76.55 C 79.11 72.52 76.63 68.84 74.97 65.37 C 74.80 65.00 74.47 64.26 74.30 63.88 C 75.48 62.97 76.67 62.08 77.93 61.29 L 78.86 60.96 C 80.09 60.66 81.22 60.07 82.25 59.35 C 89.42 56.12 97.38 54.91 105.16 54.20 C 116.20 53.20 127.02 56.62 136.94 61.16 C 143.22 64.16 149.27 67.90 154.01 73.08 C 150.02 73.57 145.99 73.36 142.00 73.79 C 131.80 74.81 121.98 78.25 112.84 82.79 C 107.77 85.51 102.61 89.21 100.64 94.85 C 99.01 99.55 97.39 105.16 100.72 109.55 C 94.76 109.57 88.86 108.56 82.91 108.37 C 86.51 117.02 93.71 123.84 96.13 133.00 C 96.41 137.92 99.61 141.79 101.76 145.99 C 109.79 160.08 115.32 175.41 120.01 190.88 C 122.05 196.92 125.69 202.27 127.58 208.38 C 129.31 212.18 129.75 216.51 131.97 220.07 C 133.69 206.03 141.99 193.50 152.70 184.58 C 156.65 184.42 160.31 185.96 163.63 187.96 C 165.78 184.19 167.72 180.28 168.82 176.07 C 161.36 174.85 157.51 167.34 154.93 161.02 C 152.32 155.24 153.46 148.66 155.89 143.03 C 154.08 140.94 152.02 138.94 150.93 136.36 C 150.20 131.96 150.65 127.47 150.22 123.04 C 149.64 116.94 149.38 110.69 151.01 104.72 C 152.72 107.55 153.21 110.85 154.01 114.00 C 155.72 120.86 158.83 127.33 162.84 133.13 C 165.27 131.31 167.77 128.73 171.10 129.18 C 176.83 129.60 181.34 133.76 185.02 137.80 C 192.13 130.08 201.24 124.55 210.73 120.24 C 209.22 118.79 207.10 117.36 207.48 114.97 C 208.63 112.74 211.32 112.33 213.41 111.40 C 213.48 106.56 217.26 103.14 220.35 99.89 C 216.38 88.85 211.50 78.11 204.53 68.62 C 199.72 61.79 195.75 54.25 189.55 48.51 C 183.73 43.07 178.58 36.86 172.06 32.22 C 169.20 37.43 166.39 42.88 161.94 46.94 C 161.15 45.40 160.08 43.82 160.44 41.99 C 161.18 34.92 163.55 28.07 166.78 21.77 C 171.75 24.15 176.77 26.59 180.98 30.21 C 191.81 39.27 202.12 49.18 210.09 60.90 C 217.33 71.25 222.80 82.86 226.06 95.06 C 232.60 91.06 240.39 88.01 248.12 90.19 C 252.88 80.43 256.07 70.04 259.85 59.89 C 263.60 48.71 267.52 37.26 266.96 25.28 C 262.63 28.83 258.18 32.25 253.56 35.42 C 249.64 38.05 244.50 39.92 239.86 38.20 C 238.65 36.84 239.41 35.03 239.81 33.51 C 242.19 25.89 247.42 19.55 252.92 13.94 M 260.41 11.30 C 254.80 15.52 249.94 20.71 246.27 26.71 L 245.99 26.81 C 244.02 30.24 242.37 33.85 241.14 37.62 C 253.23 35.33 261.41 25.32 270.97 18.49 C 271.09 19.06 271.32 20.21 271.44 20.79 C 270.92 21.26 269.89 22.21 269.38 22.68 C 268.58 27.82 268.75 33.07 268.54 38.26 L 268.43 37.92 C 267.69 43.35 265.93 48.56 264.94 53.93 C 262.89 59.01 261.18 64.23 259.50 69.45 C 256.33 76.72 253.89 84.36 249.71 91.18 C 250.69 91.44 251.66 91.70 252.64 91.97 C 257.34 84.19 262.28 76.38 265.22 67.74 L 265.77 67.59 C 267.49 63.07 269.29 58.56 270.45 53.85 C 271.46 50.03 272.52 46.22 273.36 42.35 C 274.19 37.91 274.92 33.45 275.43 28.96 C 275.41 20.49 276.86 11.64 273.98 3.47 C 268.54 4.05 264.57 8.18 260.41 11.30 M 167.22 23.29 C 166.10 26.72 164.99 30.16 164.05 33.64 L 163.81 33.70 C 163.18 36.95 162.68 40.22 162.45 43.52 C 165.22 39.95 167.68 36.12 169.59 32.01 C 170.00 31.57 170.83 30.68 171.25 30.23 C 178.68 32.99 183.58 39.58 189.36 44.66 C 195.75 50.21 200.18 57.46 204.91 64.37 L 204.62 64.80 C 212.03 74.42 218.00 85.20 221.28 96.94 C 221.52 99.15 223.79 96.93 224.72 96.45 C 219.88 84.26 215.12 71.79 207.00 61.33 C 195.97 46.57 182.34 33.78 167.22 23.29 M 31.72 49.78 C 30.72 52.14 29.53 54.46 29.01 56.98 C 26.73 60.66 25.22 64.73 23.87 68.81 C 26.82 71.08 30.69 72.53 32.44 76.03 C 30.79 75.28 29.19 74.43 27.59 73.57 C 26.31 72.35 25.01 71.14 23.71 69.93 C 22.13 75.41 20.84 80.98 20.16 86.65 C 25.15 89.72 30.08 92.90 34.95 96.15 C 28.81 95.91 24.50 91.23 19.77 87.97 C 19.33 96.71 20.51 105.40 21.95 113.99 C 23.28 120.68 25.92 127.01 28.42 133.33 C 30.12 134.09 31.81 134.88 33.49 135.68 L 33.49 136.01 C 35.12 137.18 36.76 138.35 38.39 139.51 C 39.01 140.08 39.64 140.66 40.26 141.23 C 40.25 141.47 40.22 141.94 40.21 142.18 C 36.13 140.44 32.64 137.67 29.11 135.05 C 32.70 145.05 35.82 155.41 41.64 164.40 C 42.28 165.67 43.38 166.46 44.85 166.29 C 49.32 165.45 53.87 165.97 58.33 166.58 C 57.45 167.50 56.28 167.94 55.01 167.87 C 51.33 168.02 47.65 167.65 43.96 167.57 C 49.64 174.65 55.79 181.58 63.46 186.55 C 67.23 188.83 70.76 191.60 74.93 193.18 C 77.39 194.36 80.42 194.82 82.20 197.08 L 81.33 197.53 C 75.29 196.20 69.83 193.12 64.68 189.79 C 55.29 184.05 47.83 175.76 41.10 167.19 C 40.59 168.56 40.33 170.13 39.23 171.20 C 39.40 169.39 39.74 167.60 40.18 165.83 C 36.80 160.34 34.02 154.50 31.79 148.45 C 30.05 144.95 30.01 140.35 26.99 137.65 C 25.71 142.83 26.75 148.94 23.44 153.40 C 23.14 146.66 24.90 140.09 25.77 133.47 C 25.65 130.48 23.92 127.84 23.07 125.02 C 18.94 114.72 18.49 103.50 17.60 92.57 C 15.77 97.11 14.28 101.94 11.15 105.79 C 11.24 104.22 11.23 102.57 11.95 101.13 C 14.13 96.30 16.30 91.45 18.13 86.47 C 19.15 81.33 19.89 76.12 21.47 71.11 C 19.56 72.75 17.53 74.25 15.55 75.81 C 16.48 74.14 17.62 72.61 18.73 71.07 C 19.85 70.38 20.96 69.68 22.07 68.99 C 22.35 67.62 22.62 66.25 22.89 64.88 C 25.16 60.71 26.80 56.22 28.63 51.84 C 21.76 59.28 16.98 68.35 12.31 77.26 C 9.81 82.88 7.13 88.57 6.25 94.71 L 5.92 94.94 C 5.14 101.37 4.33 107.86 4.90 114.35 C 6.33 130.41 12.70 146.07 23.01 158.47 C 34.77 171.45 48.22 183.00 63.05 192.33 C 73.03 198.11 84.05 201.88 95.36 203.98 C 87.87 196.66 79.84 189.71 73.88 181.00 C 69.06 174.09 66.59 165.89 62.10 158.78 C 60.45 153.67 58.59 148.60 57.99 143.23 C 56.24 136.49 56.42 129.09 60.06 122.99 C 61.86 121.55 63.56 119.95 65.54 118.75 C 67.65 117.55 70.11 118.52 72.35 118.75 C 70.44 113.96 69.08 108.94 66.63 104.37 C 63.59 98.48 61.23 92.26 58.09 86.43 C 57.43 86.48 56.10 86.60 55.44 86.66 C 49.40 85.82 43.98 82.74 39.36 78.87 C 37.50 76.69 35.64 74.51 33.85 72.26 L 33.67 72.01 C 30.81 64.91 31.65 57.21 32.67 49.83 C 33.03 48.82 33.37 47.80 33.69 46.78 C 33.00 47.76 32.38 48.78 31.72 49.78 M 77.27 64.41 C 77.31 66.14 78.75 67.41 79.29 69.00 C 81.75 74.50 79.11 80.37 78.18 85.92 C 77.36 87.72 76.27 89.38 75.20 91.05 C 76.81 94.05 78.49 97.03 79.73 100.21 C 80.41 102.34 81.14 104.45 81.89 106.56 C 86.96 106.07 92.06 106.15 97.13 106.55 C 95.55 99.73 97.83 92.43 102.34 87.19 C 105.05 84.91 107.74 82.55 110.91 80.93 C 122.42 75.03 135.11 70.84 148.16 71.00 C 145.47 69.36 142.74 67.76 140.00 66.21 C 135.20 64.04 130.48 61.50 125.34 60.25 C 119.52 58.05 113.26 56.96 107.04 57.35 C 96.81 57.96 86.67 60.34 77.27 64.41 M 55.97 66.76 C 56.71 70.58 58.12 74.22 59.25 77.94 C 59.36 85.36 64.31 91.40 66.88 98.10 C 67.35 99.04 67.76 100.02 68.34 100.91 C 69.86 104.59 71.57 108.20 72.68 112.04 C 73.61 115.26 74.98 118.53 77.61 120.74 C 78.89 125.74 79.77 130.96 82.49 135.45 C 85.28 140.18 88.25 144.79 91.09 149.49 C 94.69 158.00 98.17 166.58 101.76 175.10 C 106.90 186.17 109.88 198.11 115.26 209.08 C 118.25 215.74 121.15 222.43 123.48 229.35 C 124.64 229.83 125.81 230.29 126.97 230.78 C 126.38 228.59 125.34 226.39 125.61 224.07 C 126.96 222.88 128.48 221.91 129.97 220.91 C 126.53 210.09 121.43 199.97 116.85 189.62 C 116.31 184.91 114.32 180.53 112.76 176.10 C 109.52 167.39 106.19 158.67 101.64 150.53 C 99.55 146.93 97.82 143.03 94.79 140.07 C 94.73 139.75 94.61 139.10 94.56 138.78 C 93.41 131.45 89.93 124.79 85.47 118.94 C 82.89 114.97 80.79 110.71 78.85 106.41 L 78.63 106.35 C 76.64 97.70 71.71 90.14 68.04 82.14 C 64.69 76.54 60.69 71.28 55.97 66.76 M 343.31 100.67 C 344.62 101.59 345.93 102.50 347.25 103.42 C 348.64 104.96 349.98 106.54 351.32 108.13 C 354.21 102.53 358.07 97.44 360.48 91.59 C 362.45 89.71 363.91 87.38 365.24 85.01 C 357.50 89.62 350.45 95.22 343.31 100.67 M 226.33 99.23 C 222.65 102.27 218.41 105.32 216.87 110.06 L 216.14 110.55 C 217.23 112.47 218.28 114.42 219.28 116.39 C 222.96 114.67 226.78 113.27 230.76 112.43 C 233.74 109.64 236.83 106.89 240.59 105.18 C 240.02 104.65 239.46 104.12 238.89 103.60 C 237.23 105.26 234.86 105.32 232.71 105.70 C 232.55 104.90 232.23 103.29 232.07 102.49 C 234.08 98.24 238.31 95.63 242.66 94.26 C 246.27 96.08 245.01 101.59 241.30 102.45 C 241.14 103.03 240.82 104.19 240.66 104.77 C 244.47 102.33 248.93 101.45 253.32 100.76 C 253.15 98.30 252.66 95.08 249.93 94.20 C 241.88 90.78 232.81 94.07 226.33 99.23 M 237.01 98.46 C 234.86 99.55 233.91 101.77 233.09 103.89 C 235.64 103.53 238.15 102.89 240.57 101.99 C 242.52 100.37 243.95 98.36 243.36 95.69 C 241.09 96.24 238.99 97.25 237.01 98.46 M 319.95 101.97 C 311.97 104.68 303.52 107.28 297.33 113.32 C 294.34 116.05 292.84 119.91 291.45 123.60 C 289.70 127.89 290.97 132.55 291.82 136.89 C 293.60 140.20 295.72 143.32 298.07 146.26 C 306.96 141.39 315.74 136.30 324.80 131.77 C 327.74 130.18 329.97 134.06 332.94 133.84 C 335.67 133.81 339.53 133.92 340.90 131.01 C 340.83 124.61 336.24 119.52 331.45 115.82 C 331.92 111.42 335.47 108.68 338.19 105.59 C 339.22 105.12 340.24 104.62 341.26 104.11 C 338.80 102.28 336.11 100.59 333.02 100.11 C 328.59 99.13 324.15 100.68 319.95 101.97 M 242.48 106.07 C 241.61 106.42 240.74 106.78 239.88 107.14 L 239.72 107.59 C 236.35 109.75 233.22 112.33 230.90 115.63 C 231.53 115.57 232.78 115.46 233.41 115.41 L 233.77 115.01 C 238.89 114.40 243.65 112.37 248.29 110.21 C 250.63 108.10 252.64 105.64 254.22 102.90 C 250.15 103.25 246.10 104.12 242.48 106.07 M 333.19 114.92 C 334.51 116.73 336.43 117.97 338.17 119.34 C 340.49 122.77 342.68 126.62 342.63 130.89 C 342.40 132.82 340.54 134.01 338.90 134.71 C 334.88 136.38 330.20 135.49 326.77 132.93 C 320.49 136.47 314.17 139.95 307.73 143.18 C 305.07 144.56 302.41 145.94 299.76 147.33 C 302.39 151.01 306.53 153.34 311.09 153.40 C 317.61 153.26 324.63 154.67 330.67 151.51 C 335.29 149.13 339.97 146.30 342.87 141.85 C 345.21 138.40 348.06 135.14 349.24 131.05 C 351.79 123.38 350.06 114.86 346.33 107.88 C 345.20 106.95 344.08 106.01 342.97 105.08 C 339.28 107.85 335.42 110.76 333.19 114.92 M 254.14 108.37 C 251.55 110.48 249.21 112.96 246.22 114.55 C 240.43 116.88 234.24 118.32 227.96 117.89 C 228.29 116.78 228.62 115.67 228.95 114.57 C 225.86 115.50 222.80 116.57 219.86 117.91 C 219.56 120.03 219.09 122.13 218.29 124.13 C 216.41 123.20 214.57 122.22 212.75 121.20 C 212.10 121.84 211.47 122.48 210.84 123.13 C 206.41 126.35 202.62 131.65 202.90 137.35 L 202.69 137.72 C 203.47 138.47 204.24 139.23 205.02 139.98 C 212.38 140.73 218.44 145.27 224.48 149.11 C 230.09 138.97 240.91 132.66 251.77 129.55 C 253.34 129.44 254.92 129.32 256.49 129.16 C 261.48 129.10 266.74 129.81 270.59 133.29 C 270.93 136.05 271.26 138.82 271.32 141.60 C 277.46 140.73 284.02 137.80 287.31 132.37 C 287.87 126.72 289.18 121.20 291.39 115.95 C 286.60 109.97 278.65 108.34 271.46 107.39 C 269.94 107.36 268.41 107.33 266.89 107.30 C 262.64 107.51 258.30 107.31 254.14 108.37 M 209.44 115.89 C 210.06 116.80 210.79 117.64 211.48 118.51 C 213.34 119.65 215.32 120.61 217.41 121.25 C 217.13 119.06 217.00 116.82 216.28 114.73 C 215.75 112.52 212.91 113.78 211.38 113.54 C 210.72 114.31 210.01 115.05 209.44 115.89 M 153.49 122.11 C 153.42 126.71 153.96 131.27 154.48 135.83 C 155.47 137.21 156.48 138.58 157.50 139.94 C 158.65 138.31 159.84 136.71 161.05 135.13 C 157.80 131.24 155.79 126.57 153.49 122.11 M 200.46 128.77 C 192.83 133.20 187.00 139.95 181.55 146.76 L 181.30 146.85 C 180.65 148.25 180.01 149.66 179.38 151.07 C 184.70 151.76 189.39 154.56 192.67 158.79 C 194.34 157.21 194.56 154.35 195.56 152.27 C 197.58 148.28 200.16 144.56 203.63 141.70 C 200.35 138.39 201.13 133.73 201.83 129.58 L 202.13 129.32 C 203.01 128.08 204.00 126.93 204.99 125.78 C 203.56 126.88 202.06 127.91 200.46 128.77 M 250.88 131.81 C 242.72 134.43 234.72 138.53 229.03 145.08 C 227.58 146.91 225.76 148.95 226.44 151.49 C 231.85 156.06 235.41 164.18 231.28 170.75 C 230.05 172.57 230.56 174.70 231.12 176.65 L 231.69 176.72 C 232.15 180.27 233.07 183.73 234.30 187.09 C 239.45 184.96 243.97 181.59 248.15 177.95 C 252.25 176.82 253.77 172.28 256.32 169.31 C 262.50 161.41 266.35 152.08 270.15 142.89 C 270.40 140.53 269.91 138.17 269.78 135.81 C 267.59 132.02 262.80 130.98 258.76 131.54 C 256.13 131.07 253.49 131.51 250.88 131.81 M 161.24 141.85 C 163.09 143.96 164.47 146.41 166.05 148.71 C 164.97 152.15 163.52 155.49 162.74 159.02 C 162.18 160.64 164.16 163.64 165.90 162.02 C 169.15 159.66 172.14 156.88 174.90 153.97 C 176.41 148.27 180.23 143.71 183.71 139.10 C 179.57 136.23 175.42 132.17 170.03 132.40 C 165.77 133.81 163.17 138.03 161.24 141.85 M 270.90 142.83 C 269.43 148.11 267.46 153.25 265.09 158.19 C 261.93 164.64 257.44 170.28 253.42 176.20 C 259.62 177.22 266.01 178.21 271.52 181.45 C 277.40 178.86 284.46 178.03 288.90 172.94 C 293.99 167.36 298.00 160.86 301.60 154.25 C 294.70 149.91 289.17 143.15 287.86 134.93 C 282.97 138.89 277.47 142.80 270.90 142.83 M 193.60 166.54 L 193.39 166.77 C 193.04 168.12 192.63 169.46 192.53 170.86 C 191.89 175.43 191.28 181.35 195.51 184.46 C 199.21 187.03 203.65 188.45 208.05 189.28 C 210.58 189.78 212.58 187.82 214.60 186.66 L 214.94 186.67 C 220.45 181.59 225.73 175.91 228.66 168.90 C 230.50 165.55 229.83 161.65 228.31 158.33 C 226.30 155.82 224.60 152.97 221.92 151.09 C 219.32 149.26 216.51 147.76 213.79 146.12 L 213.55 146.18 C 211.09 144.56 208.37 143.43 205.63 142.41 C 198.97 148.72 195.26 157.65 193.60 166.54 M 159.92 142.94 C 158.97 145.45 158.16 148.00 157.39 150.56 C 156.61 158.46 160.55 166.42 166.42 171.54 C 167.78 173.09 169.60 171.79 170.90 170.87 C 171.63 166.55 172.20 162.20 172.65 157.85 C 170.30 159.81 168.20 162.30 165.25 163.37 C 163.97 163.98 162.83 162.67 162.18 161.74 C 160.73 159.57 161.92 156.95 162.54 154.72 L 162.41 154.62 C 163.15 152.80 163.84 150.97 164.51 149.12 C 163.08 146.99 161.56 144.91 159.92 142.94 M 368.87 157.44 C 364.10 165.20 361.06 173.99 359.87 183.01 C 358.74 190.84 361.52 198.44 362.16 206.18 C 371.47 207.56 380.13 211.52 388.57 215.50 L 388.60 215.69 C 391.28 217.39 393.90 219.20 396.39 221.19 C 397.24 218.74 398.83 215.52 402.03 216.33 C 409.57 216.79 414.16 223.32 420.01 227.15 C 419.47 224.16 418.76 221.19 417.59 218.38 C 415.48 213.33 414.38 207.91 412.07 202.93 C 407.31 191.78 403.18 180.07 395.57 170.45 C 389.44 162.45 381.37 156.30 374.02 149.50 C 372.20 152.08 370.47 154.72 368.87 157.44 M 177.97 153.58 C 176.63 157.00 175.21 160.42 174.56 164.05 C 173.90 171.72 174.04 179.73 176.87 187.00 C 178.10 189.27 178.69 193.86 182.05 193.38 C 185.66 190.64 187.64 186.35 190.60 182.99 C 189.82 179.30 189.68 175.53 189.80 171.78 C 190.74 168.20 191.13 164.49 192.29 160.97 C 189.00 156.43 183.74 153.12 177.97 153.58 M 326.10 157.53 C 328.91 161.14 331.83 164.74 335.55 167.47 C 342.19 171.36 349.17 175.72 357.05 176.19 C 357.77 174.74 358.28 173.19 358.87 171.69 C 352.15 170.20 345.91 167.23 339.93 163.89 C 336.56 161.60 333.29 159.10 330.69 155.92 C 329.15 156.45 327.62 156.98 326.10 157.53 M 165.63 190.11 C 166.05 190.67 166.89 191.78 167.31 192.34 C 169.66 190.60 171.76 188.57 173.62 186.32 C 172.54 182.98 171.96 179.52 171.59 176.04 C 170.47 181.05 168.48 185.83 165.63 190.11 M 215.68 189.61 C 212.97 191.33 209.71 191.55 206.61 191.82 C 207.30 193.84 208.30 195.73 209.63 197.41 C 212.20 195.30 214.86 193.12 218.10 192.13 C 221.83 190.74 225.83 191.75 229.68 191.56 C 230.46 191.06 231.10 190.43 231.62 189.66 C 230.23 185.40 228.72 181.16 228.34 176.66 C 224.33 181.16 220.99 186.48 215.68 189.61 M 236.59 189.58 C 235.57 190.35 233.38 190.39 233.59 192.12 C 238.66 193.53 243.97 192.18 248.91 190.87 C 255.55 188.81 262.20 186.67 268.49 183.67 C 263.36 181.10 257.60 180.15 252.05 178.86 C 247.33 182.99 242.41 187.08 236.59 189.58 M 192.18 185.13 C 190.96 186.82 189.72 188.51 188.48 190.18 C 189.73 191.68 190.78 193.56 192.70 194.30 C 196.52 196.08 200.77 194.89 204.69 194.13 C 204.59 193.02 204.49 191.92 204.40 190.82 C 200.05 189.58 195.92 187.69 192.18 185.13 M 141.34 202.38 C 137.65 208.19 135.73 214.83 133.20 221.17 C 134.55 222.43 135.91 223.68 137.29 224.90 C 137.57 227.45 137.28 229.99 136.58 232.45 C 151.23 231.67 163.69 222.60 173.20 212.08 C 169.97 204.24 167.57 195.67 161.13 189.73 C 159.06 188.56 157.02 187.35 154.95 186.19 C 149.85 191.07 144.84 196.19 141.34 202.38 M 217.37 195.36 C 215.15 196.18 212.43 196.90 211.63 199.44 L 211.17 199.46 C 209.25 202.93 209.38 206.88 210.41 210.61 C 211.41 212.18 212.52 213.67 213.72 215.10 C 216.11 214.04 218.53 213.03 220.94 212.01 C 223.03 212.04 225.13 212.13 227.22 212.30 C 230.56 209.98 233.67 207.10 235.47 203.40 C 236.42 201.03 235.16 198.32 233.12 196.99 C 228.52 193.95 222.51 193.70 217.37 195.36 M 258.90 205.71 C 251.85 207.00 245.65 210.97 239.60 214.62 C 235.75 217.12 231.74 219.72 229.28 223.72 C 229.76 225.04 230.23 226.36 230.69 227.69 C 232.06 229.90 233.92 233.16 237.06 232.09 C 242.19 230.48 245.98 226.32 250.38 223.39 C 257.83 218.26 263.96 211.50 269.55 204.45 C 265.95 204.32 262.35 204.70 258.90 205.71 M 217.30 217.81 C 212.14 215.54 205.53 214.99 200.97 218.82 C 197.22 221.90 200.66 226.79 202.02 230.26 C 202.68 231.20 203.32 232.14 203.97 233.09 C 205.58 234.53 207.16 236.05 209.07 237.10 C 211.70 236.87 213.54 234.45 215.59 232.98 C 221.90 227.57 227.92 221.14 230.43 213.03 C 226.38 215.40 222.20 218.03 217.30 217.81 M 216.18 215.36 C 219.14 217.24 223.21 216.09 225.55 213.71 C 222.37 213.84 219.20 214.32 216.18 215.36 M 176.91 219.37 C 178.06 222.55 179.22 225.85 181.54 228.38 C 184.02 231.11 187.06 233.24 189.66 235.86 C 191.71 237.20 193.85 238.42 196.03 239.57 C 197.48 237.74 199.13 236.02 200.11 233.87 C 200.06 232.63 199.33 231.56 198.90 230.43 C 197.53 228.13 196.84 224.88 193.88 224.13 C 188.38 222.16 182.91 219.14 176.91 219.37 M 399.73 220.09 C 399.04 223.64 400.60 227.08 401.62 230.41 C 403.72 231.40 405.81 232.43 407.86 233.53 C 412.39 235.88 416.95 238.53 422.03 239.47 C 424.08 239.83 425.18 237.42 425.79 235.83 C 427.07 230.77 427.03 225.29 425.68 220.26 C 425.03 218.16 422.29 218.99 420.67 218.40 C 421.98 222.11 422.96 225.95 422.84 229.91 C 418.97 230.12 416.30 227.08 413.39 225.06 C 410.87 223.13 408.93 220.33 405.99 219.03 C 404.00 218.76 400.85 217.77 399.73 220.09 M 127.70 224.95 C 127.91 228.42 130.74 230.88 133.77 232.09 C 134.15 229.55 136.18 225.57 132.82 224.25 C 131.35 223.62 128.12 222.71 127.70 224.95 M 213.61 238.59 C 211.68 239.90 209.31 239.67 207.13 239.38 C 208.64 242.31 210.04 245.51 209.40 248.89 C 208.48 254.99 206.63 261.06 203.50 266.40 C 207.68 266.90 211.75 268.08 215.66 269.61 C 217.72 270.45 218.80 272.86 218.29 275.00 C 217.47 281.36 215.38 287.48 213.35 293.54 C 208.82 303.79 202.43 313.21 194.91 321.50 C 206.53 323.53 218.38 321.73 230.06 323.22 C 254.07 324.87 278.01 327.37 301.87 330.47 C 288.94 318.89 278.15 304.67 271.70 288.47 C 270.64 285.39 269.84 282.19 269.61 278.94 C 270.09 278.50 271.04 277.62 271.52 277.19 C 262.75 272.18 257.13 263.49 251.64 255.31 C 247.06 248.66 242.85 241.72 239.38 234.42 C 237.55 234.76 235.73 235.11 233.91 235.52 C 230.52 233.69 228.35 230.46 227.09 226.90 C 222.96 231.18 218.68 235.42 213.61 238.59 M 243.33 233.26 C 243.61 237.66 246.32 241.39 248.49 245.06 C 253.91 253.46 259.03 262.17 265.85 269.53 C 268.54 272.16 271.27 274.75 274.04 277.30 C 274.95 276.86 275.86 276.41 276.78 275.97 C 273.71 268.05 271.92 259.56 267.53 252.22 C 265.61 246.20 261.72 240.93 258.21 235.73 C 256.12 232.69 253.97 229.70 251.75 226.76 C 248.90 228.80 245.27 230.28 243.33 233.26 M 118.54 234.01 C 119.10 236.82 121.53 238.85 122.99 241.25 C 123.94 242.83 124.89 244.40 125.86 245.98 C 127.52 244.44 129.35 243.00 130.59 241.06 C 130.14 238.64 128.74 236.56 127.56 234.45 C 124.97 232.38 120.71 230.16 118.54 234.01 M 130.94 234.47 C 132.97 238.07 133.84 242.79 130.45 245.90 C 130.89 249.06 131.35 252.30 132.94 255.13 C 136.12 261.13 138.65 267.45 141.10 273.78 L 141.26 273.82 C 141.37 274.27 141.59 275.16 141.70 275.61 C 140.42 280.34 144.05 284.14 145.46 288.35 C 149.49 299.50 154.10 310.53 160.36 320.62 C 161.75 323.66 165.35 322.64 167.96 322.44 C 166.65 317.95 164.15 313.96 162.50 309.60 C 159.71 302.39 157.18 295.08 154.37 287.88 C 153.02 284.14 151.57 280.43 150.27 276.67 C 146.77 266.25 143.09 255.90 139.33 245.59 C 138.01 242.16 135.70 239.17 134.87 235.55 C 133.56 235.19 132.25 234.83 130.94 234.47 M 197.37 242.39 C 195.67 242.56 194.01 241.88 192.34 241.64 C 192.49 243.50 193.13 245.26 194.12 246.84 C 196.61 250.98 197.88 255.67 199.88 260.05 C 199.72 262.43 200.27 264.78 200.61 267.13 C 202.07 264.22 203.55 261.27 204.28 258.07 C 205.78 254.01 207.18 249.66 206.54 245.28 C 205.68 241.99 204.11 238.92 202.37 236.00 C 200.21 237.70 199.76 240.91 197.37 242.39 M 406.85 237.81 C 406.58 241.92 405.68 245.94 404.07 249.73 C 406.29 248.74 408.14 247.17 409.67 245.30 C 408.87 242.77 408.55 239.95 406.85 237.81 M 415.03 249.35 C 419.47 248.17 423.68 246.35 427.88 244.54 C 427.67 243.37 427.46 242.19 427.27 241.02 C 422.54 244.59 416.87 241.45 412.27 239.37 C 412.28 242.89 413.61 246.19 415.03 249.35 M 427.43 248.50 C 423.25 250.54 418.75 251.72 414.45 253.43 C 412.77 251.63 411.52 247.09 408.56 249.70 C 410.20 252.29 411.94 254.82 413.77 257.28 C 418.97 253.98 425.51 253.72 430.49 250.01 C 430.50 248.08 428.92 247.66 427.43 248.50 M 200.55 270.18 C 200.50 276.36 198.47 282.26 197.78 288.37 C 195.59 300.97 191.40 313.13 187.95 325.42 C 196.35 315.43 203.45 304.41 209.71 292.98 C 212.89 286.79 216.79 279.02 212.58 272.36 C 209.59 269.33 204.46 268.54 200.55 270.18 M 280.64 273.98 C 280.11 275.00 279.57 276.00 279.01 276.99 C 277.99 279.32 275.08 279.38 273.04 280.29 C 273.69 285.84 276.06 290.93 278.55 295.86 C 279.80 298.49 281.10 301.10 282.53 303.63 C 286.61 309.72 291.06 315.59 296.02 321.00 C 304.92 329.73 313.71 338.64 323.43 346.46 C 321.46 338.67 318.82 331.01 314.80 324.03 C 309.54 314.23 302.60 305.49 296.88 295.97 L 296.63 295.99 L 295.80 295.39 C 294.79 291.78 292.20 289.00 290.16 285.97 C 287.20 281.81 284.57 277.32 280.64 273.98 Z" />
<path fill="#8797a4" opacity="1.00" d=" M 260.41 11.30 C 264.57 8.18 268.54 4.05 273.98 3.47 C 276.86 11.64 275.41 20.49 275.43 28.96 C 274.64 28.42 273.86 27.87 273.08 27.33 C 272.11 27.43 271.16 27.53 270.20 27.63 C 269.93 25.98 269.65 24.33 269.38 22.68 C 269.89 22.21 270.92 21.26 271.44 20.79 C 271.56 19.13 271.41 17.47 271.28 15.81 C 261.49 15.35 255.12 24.22 246.27 26.71 C 249.94 20.71 254.80 15.52 260.41 11.30 Z" />
<path fill="#636f87" opacity="1.00" d=" M 246.27 26.71 C 255.12 24.22 261.49 15.35 271.28 15.81 C 271.41 17.47 271.56 19.13 271.44 20.79 C 271.32 20.21 271.09 19.06 270.97 18.49 C 261.41 25.32 253.23 35.33 241.14 37.62 C 242.37 33.85 244.02 30.24 245.99 26.81 L 246.27 26.71 Z" />
<path fill="#758396" opacity="1.00" d=" M 268.54 38.26 C 268.75 33.07 268.58 27.82 269.38 22.68 C 269.65 24.33 269.93 25.98 270.20 27.63 C 271.16 27.53 272.11 27.43 273.08 27.33 C 273.86 27.87 274.64 28.42 275.43 28.96 C 274.92 33.45 274.19 37.91 273.36 42.35 C 272.78 41.41 272.21 40.47 271.64 39.54 C 270.85 39.91 270.07 40.28 269.29 40.65 C 269.03 39.85 268.78 39.06 268.54 38.26 Z" />
<path fill="#8999a7" opacity="1.00" d=" M 167.22 23.29 C 182.34 33.78 195.97 46.57 207.00 61.33 C 206.30 62.34 205.61 63.36 204.91 64.37 C 200.18 57.46 195.75 50.21 189.36 44.66 C 183.58 39.58 178.68 32.99 171.25 30.23 C 170.83 30.68 170.00 31.57 169.59 32.01 C 167.79 32.71 165.93 33.23 164.05 33.64 C 164.99 30.16 166.10 26.72 167.22 23.29 Z" />
<path fill="#6a778a" opacity="1.00" d=" M 164.05 33.64 C 165.93 33.23 167.79 32.71 169.59 32.01 C 167.68 36.12 165.22 39.95 162.45 43.52 C 162.68 40.22 163.18 36.95 163.81 33.70 L 164.05 33.64 Z" />
<path fill="#647088" opacity="1.00" d=" M 268.43 37.92 L 268.54 38.26 C 268.78 39.06 269.03 39.85 269.29 40.65 C 270.07 40.28 270.85 39.91 271.64 39.54 C 272.21 40.47 272.78 41.41 273.36 42.35 C 272.52 46.22 271.46 50.03 270.45 53.85 C 268.59 54.49 266.73 55.13 264.87 55.75 C 264.89 55.29 264.92 54.38 264.94 53.93 C 265.93 48.56 267.69 43.35 268.43 37.92 Z" />
<path fill="#ffffe1" opacity="1.00" d=" M 31.72 49.78 C 32.38 48.78 33.00 47.76 33.69 46.78 C 33.37 47.80 33.03 48.82 32.67 49.83 C 31.65 57.21 30.81 64.91 33.67 72.01 C 30.02 67.87 29.37 62.26 29.01 56.98 C 29.53 54.46 30.72 52.14 31.72 49.78 Z" />
<path fill="#ffffda" opacity="1.00" d=" M 12.31 77.26 C 16.98 68.35 21.76 59.28 28.63 51.84 C 26.80 56.22 25.16 60.71 22.89 64.88 C 21.56 66.98 20.15 69.03 18.73 71.07 C 17.62 72.61 16.48 74.14 15.55 75.81 C 12.59 81.82 9.10 87.67 7.12 94.10 C 6.90 94.25 6.47 94.55 6.25 94.71 C 7.13 88.57 9.81 82.88 12.31 77.26 Z" />
<path fill="#4b5573" opacity="1.00" d=" M 259.50 69.45 C 261.18 64.23 262.89 59.01 264.94 53.93 C 264.92 54.38 264.89 55.29 264.87 55.75 C 266.73 55.13 268.59 54.49 270.45 53.85 C 269.29 58.56 267.49 63.07 265.77 67.59 L 265.22 67.74 C 263.30 68.26 261.37 68.76 259.50 69.45 Z" />
<path fill="#599e97" opacity="1.00" d=" M 29.01 56.98 C 29.37 62.26 30.02 67.87 33.67 72.01 L 33.85 72.26 C 32.22 78.55 30.96 84.92 29.30 91.19 C 27.81 85.44 27.18 79.50 27.59 73.57 C 29.19 74.43 30.79 75.28 32.44 76.03 C 30.69 72.53 26.82 71.08 23.87 68.81 C 25.22 64.73 26.73 60.66 29.01 56.98 Z" />
<path fill="#ffffda" opacity="1.00" d=" M 77.27 64.41 C 86.67 60.34 96.81 57.96 107.04 57.35 C 113.26 56.96 119.52 58.05 125.34 60.25 C 120.21 60.25 115.13 59.51 110.02 59.23 C 105.69 59.77 101.39 60.49 97.16 61.56 C 96.00 61.86 94.85 62.18 93.69 62.49 C 89.74 63.50 85.83 64.65 81.95 65.92 C 83.70 69.20 84.89 72.78 84.20 76.54 C 83.66 76.48 82.59 76.38 82.05 76.32 C 80.81 79.54 79.57 82.76 78.18 85.92 C 79.11 80.37 81.75 74.50 79.29 69.00 C 78.75 67.41 77.31 66.14 77.27 64.41 Z" />
<path fill="#4a4a3f" opacity="0.48" d=" M 78.86 60.96 C 78.23 59.22 81.18 58.07 82.25 59.35 C 81.22 60.07 80.09 60.66 78.86 60.96 Z" />
<path fill="#5d9590" opacity="1.00" d=" M 97.16 61.56 C 101.39 60.49 105.69 59.77 110.02 59.23 C 109.03 60.26 107.99 61.25 107.14 62.40 C 106.70 65.86 108.89 70.41 112.90 70.21 C 117.50 70.25 122.09 69.10 126.68 69.95 C 120.83 72.94 115.24 76.46 109.27 79.22 C 108.03 78.02 106.79 76.83 105.54 75.64 C 104.23 75.73 102.59 76.77 101.52 75.54 C 98.02 71.81 97.74 66.38 97.16 61.56 Z" />
<path fill="#6fa594" opacity="1.00" d=" M 110.02 59.23 C 115.13 59.51 120.21 60.25 125.34 60.25 C 130.48 61.50 135.20 64.04 140.00 66.21 C 135.55 67.43 131.00 68.30 126.68 69.95 C 122.09 69.10 117.50 70.25 112.90 70.21 C 108.89 70.41 106.70 65.86 107.14 62.40 C 107.99 61.25 109.03 60.26 110.02 59.23 Z" />
<path fill="#fffad5" opacity="1.00" d=" M 72.29 64.03 C 74.15 63.06 76.02 62.14 77.93 61.29 C 76.67 62.08 75.48 62.97 74.30 63.88 C 74.47 64.26 74.80 65.00 74.97 65.37 C 74.08 64.91 73.19 64.47 72.29 64.03 Z" />
<path fill="#45838a" opacity="1.00" d=" M 93.69 62.49 C 94.85 62.18 96.00 61.86 97.16 61.56 C 97.74 66.38 98.02 71.81 101.52 75.54 C 102.59 76.77 104.23 75.73 105.54 75.64 C 106.79 76.83 108.03 78.02 109.27 79.22 C 106.09 80.57 102.73 81.86 100.50 84.64 C 99.66 85.55 98.84 86.49 98.02 87.42 C 95.74 87.15 93.47 86.87 91.19 86.64 C 90.71 85.31 90.17 83.99 89.70 82.66 C 89.76 75.70 92.79 69.30 93.69 62.49 Z" />
<path fill="#424b6d" opacity="1.00" d=" M 207.00 61.33 C 215.12 71.79 219.88 84.26 224.72 96.45 C 223.79 96.93 221.52 99.15 221.28 96.94 C 218.00 85.20 212.03 74.42 204.62 64.80 L 204.91 64.37 C 205.61 63.36 206.30 62.34 207.00 61.33 Z" />
<path fill="#559b96" opacity="1.00" d=" M 81.95 65.92 C 85.83 64.65 89.74 63.50 93.69 62.49 C 92.79 69.30 89.76 75.70 89.70 82.66 C 87.15 82.76 84.59 82.90 82.04 83.05 C 82.08 88.11 82.25 93.17 82.79 98.21 C 81.75 98.84 80.74 99.53 79.73 100.21 C 78.49 97.03 76.81 94.05 75.20 91.05 C 76.27 89.38 77.36 87.72 78.18 85.92 C 79.57 82.76 80.81 79.54 82.05 76.32 C 82.59 76.38 83.66 76.48 84.20 76.54 C 84.89 72.78 83.70 69.20 81.95 65.92 Z" />
<path fill="#71ae9a" opacity="1.00" d=" M 18.73 71.07 C 20.15 69.03 21.56 66.98 22.89 64.88 C 22.62 66.25 22.35 67.62 22.07 68.99 C 20.96 69.68 19.85 70.38 18.73 71.07 Z" />
<path fill="#355e75" opacity="1.00" d=" M 140.00 66.21 C 142.74 67.76 145.47 69.36 148.16 71.00 C 135.11 70.84 122.42 75.03 110.91 80.93 C 107.74 82.55 105.05 84.91 102.34 87.19 C 101.88 86.55 100.96 85.27 100.50 84.64 C 102.73 81.86 106.09 80.57 109.27 79.22 C 115.24 76.46 120.83 72.94 126.68 69.95 C 131.00 68.30 135.55 67.43 140.00 66.21 Z" />
<path fill="#6ba394" opacity="1.00" d=" M 55.97 66.76 C 60.69 71.28 64.69 76.54 68.04 82.14 C 65.53 87.54 67.57 93.35 68.83 98.77 C 68.34 98.60 67.37 98.27 66.88 98.10 C 64.31 91.40 59.36 85.36 59.25 77.94 C 58.12 74.22 56.71 70.58 55.97 66.76 Z" />
<path fill="#384064" opacity="1.00" d=" M 259.50 69.45 C 261.37 68.76 263.30 68.26 265.22 67.74 C 262.28 76.38 257.34 84.19 252.64 91.97 C 251.66 91.70 250.69 91.44 249.71 91.18 C 253.89 84.36 256.33 76.72 259.50 69.45 Z" />
<path fill="#70ad9a" opacity="1.00" d=" M 20.16 86.65 C 20.84 80.98 22.13 75.41 23.71 69.93 C 25.01 71.14 26.31 72.35 27.59 73.57 C 27.18 79.50 27.81 85.44 29.30 91.19 C 30.96 84.92 32.22 78.55 33.85 72.26 C 35.64 74.51 37.50 76.69 39.36 78.87 C 37.93 83.45 36.78 88.26 37.67 93.07 C 39.49 104.12 43.04 115.42 40.00 126.61 C 39.55 128.67 39.06 130.73 38.59 132.79 C 36.87 131.25 35.15 129.72 33.44 128.18 C 33.48 130.67 33.51 133.17 33.49 135.68 C 31.81 134.88 30.12 134.09 28.42 133.33 C 25.92 127.01 23.28 120.68 21.95 113.99 C 20.51 105.40 19.33 96.71 19.77 87.97 C 24.50 91.23 28.81 95.91 34.95 96.15 C 30.08 92.90 25.15 89.72 20.16 86.65 Z" />
<path fill="#71ae9a" opacity="1.00" d=" M 15.55 75.81 C 17.53 74.25 19.56 72.75 21.47 71.11 C 19.89 76.12 19.15 81.33 18.13 86.47 C 16.30 91.45 14.13 96.30 11.95 101.13 C 11.23 102.57 11.24 104.22 11.15 105.79 C 14.28 101.94 15.77 97.11 17.60 92.57 C 18.49 103.50 18.94 114.72 23.07 125.02 C 23.92 127.84 25.65 130.48 25.77 133.47 C 24.90 140.09 23.14 146.66 23.44 153.40 C 26.75 148.94 25.71 142.83 26.99 137.65 C 30.01 140.35 30.05 144.95 31.79 148.45 C 29.00 151.91 26.09 155.26 23.01 158.47 C 12.70 146.07 6.33 130.41 4.90 114.35 C 4.33 107.86 5.14 101.37 5.92 94.94 L 6.25 94.71 C 6.47 94.55 6.90 94.25 7.12 94.10 C 9.10 87.67 12.59 81.82 15.55 75.81 Z" />
<path fill="#fffad5" opacity="1.00" d=" M 76.26 85.14 C 76.17 82.17 76.97 79.30 78.01 76.55 C 77.47 79.42 77.05 82.32 76.26 85.14 Z" />
<path fill="#558a8a" opacity="1.00" d=" M 39.36 78.87 C 43.98 82.74 49.40 85.82 55.44 86.66 C 57.38 93.64 59.39 100.69 59.65 107.98 C 59.79 112.98 60.17 117.98 60.06 122.99 C 56.42 129.09 56.24 136.49 57.99 143.23 C 57.59 143.28 56.80 143.38 56.41 143.43 C 56.11 142.39 55.81 141.36 55.51 140.34 C 49.88 140.24 44.61 138.25 39.40 136.34 C 40.42 133.19 40.17 129.86 40.00 126.61 C 43.04 115.42 39.49 104.12 37.67 93.07 C 36.78 88.26 37.93 83.45 39.36 78.87 Z" />
<path fill="#4b8c8f" opacity="1.00" d=" M 82.04 83.05 C 84.59 82.90 87.15 82.76 89.70 82.66 C 90.17 83.99 90.71 85.31 91.19 86.64 C 93.93 92.24 87.11 96.26 82.79 98.21 C 82.25 93.17 82.08 88.11 82.04 83.05 Z" />
<path fill="#40858e" opacity="1.00" d=" M 68.04 82.14 C 71.71 90.14 76.64 97.70 78.63 106.35 C 74.68 105.76 70.91 104.05 68.34 100.91 C 67.76 100.02 67.35 99.04 66.88 98.10 C 67.37 98.27 68.34 98.60 68.83 98.77 C 67.57 93.35 65.53 87.54 68.04 82.14 Z" />
<path fill="#386e7f" opacity="1.00" d=" M 98.02 87.42 C 98.84 86.49 99.66 85.55 100.50 84.64 C 100.96 85.27 101.88 86.55 102.34 87.19 C 97.83 92.43 95.55 99.73 97.13 106.55 C 92.06 106.15 86.96 106.07 81.89 106.56 C 81.14 104.45 80.41 102.34 79.73 100.21 C 80.74 99.53 81.75 98.84 82.79 98.21 C 87.11 96.26 93.93 92.24 91.19 86.64 C 93.47 86.87 95.74 87.15 98.02 87.42 Z" />
<path fill="#8898a5" opacity="1.00" d=" M 343.31 100.67 C 350.45 95.22 357.50 89.62 365.24 85.01 C 363.91 87.38 362.45 89.71 360.48 91.59 C 355.97 95.42 351.59 99.39 347.25 103.42 C 345.93 102.50 344.62 101.59 343.31 100.67 Z" />
<path fill="#2c5370" opacity="1.00" d=" M 55.44 86.66 C 56.10 86.60 57.43 86.48 58.09 86.43 C 61.23 92.26 63.59 98.48 66.63 104.37 C 69.08 108.94 70.44 113.96 72.35 118.75 C 70.11 118.52 67.65 117.55 65.54 118.75 C 63.56 119.95 61.86 121.55 60.06 122.99 C 60.17 117.98 59.79 112.98 59.65 107.98 C 59.39 100.69 57.38 93.64 55.44 86.66 Z" />
<path fill="#535c79" opacity="1.00" d=" M 347.25 103.42 C 351.59 99.39 355.97 95.42 360.48 91.59 C 358.07 97.44 354.21 102.53 351.32 108.13 C 349.98 106.54 348.64 104.96 347.25 103.42 Z" />
<path fill="#322a51" opacity="1.00" d=" M 226.33 99.23 C 232.81 94.07 241.88 90.78 249.93 94.20 C 252.66 95.08 253.15 98.30 253.32 100.76 C 248.93 101.45 244.47 102.33 240.66 104.77 C 240.82 104.19 241.14 103.03 241.30 102.45 C 245.01 101.59 246.27 96.08 242.66 94.26 C 238.31 95.63 234.08 98.24 232.07 102.49 C 226.82 104.63 221.53 106.79 216.87 110.06 C 218.41 105.32 222.65 102.27 226.33 99.23 Z" />
<path fill="#ae4282" opacity="1.00" d=" M 237.01 98.46 C 238.99 97.25 241.09 96.24 243.36 95.69 C 243.95 98.36 242.52 100.37 240.57 101.99 C 239.98 100.97 239.38 99.97 238.76 98.98 C 238.32 98.85 237.45 98.59 237.01 98.46 Z" />
<path fill="#fd649b" opacity="1.00" d=" M 233.09 103.89 C 233.91 101.77 234.86 99.55 237.01 98.46 C 237.45 98.59 238.32 98.85 238.76 98.98 C 239.38 99.97 239.98 100.97 240.57 101.99 C 238.15 102.89 235.64 103.53 233.09 103.89 Z" />
<path fill="#8999a6" opacity="1.00" d=" M 319.95 101.97 C 324.15 100.68 328.59 99.13 333.02 100.11 C 336.11 100.59 338.80 102.28 341.26 104.11 C 340.24 104.62 339.22 105.12 338.19 105.59 C 332.51 107.67 327.94 111.71 322.99 115.04 C 312.57 122.28 302.56 130.13 291.82 136.89 C 290.97 132.55 289.70 127.89 291.45 123.60 C 292.84 119.91 294.34 116.05 297.33 113.32 C 303.52 107.28 311.97 104.68 319.95 101.97 Z" />
<path fill="#397987" opacity="1.00" d=" M 68.34 100.91 C 70.91 104.05 74.68 105.76 78.63 106.35 L 78.85 106.41 C 80.79 110.71 82.89 114.97 85.47 118.94 C 83.10 120.39 80.38 121.16 77.61 120.74 C 74.98 118.53 73.61 115.26 72.68 112.04 C 71.57 108.20 69.86 104.59 68.34 100.91 Z" />
<path fill="#3f3b5c" opacity="1.00" d=" M 216.87 110.06 C 221.53 106.79 226.82 104.63 232.07 102.49 C 232.23 103.29 232.55 104.90 232.71 105.70 C 234.86 105.32 237.23 105.26 238.89 103.60 C 239.46 104.12 240.02 104.65 240.59 105.18 C 236.83 106.89 233.74 109.64 230.76 112.43 C 226.78 113.27 222.96 114.67 219.28 116.39 C 218.28 114.42 217.23 112.47 216.14 110.55 L 216.87 110.06 Z" />
<path fill="#393457" opacity="1.00" d=" M 242.48 106.07 C 246.10 104.12 250.15 103.25 254.22 102.90 C 252.64 105.64 250.63 108.10 248.29 110.21 C 246.34 108.84 244.40 107.47 242.48 106.07 Z" />
<path fill="#474664" opacity="1.00" d=" M 239.88 107.14 C 240.74 106.78 241.61 106.42 242.48 106.07 C 244.40 107.47 246.34 108.84 248.29 110.21 C 243.65 112.37 238.89 114.40 233.77 115.01 C 235.56 112.98 237.50 111.07 239.23 108.98 C 239.35 108.63 239.60 107.94 239.72 107.59 L 239.88 107.14 Z" />
<path fill="#545e7a" opacity="1.00" d=" M 322.99 115.04 C 327.94 111.71 332.51 107.67 338.19 105.59 C 335.47 108.68 331.92 111.42 331.45 115.82 C 336.24 119.52 340.83 124.61 340.90 131.01 C 339.53 133.92 335.67 133.81 332.94 133.84 C 329.97 134.06 327.74 130.18 324.80 131.77 C 315.74 136.30 306.96 141.39 298.07 146.26 C 295.72 143.32 293.60 140.20 291.82 136.89 C 302.56 130.13 312.57 122.28 322.99 115.04 Z" />
<path fill="#565971" opacity="1.00" d=" M 333.19 114.92 C 335.42 110.76 339.28 107.85 342.97 105.08 C 344.08 106.01 345.20 106.95 346.33 107.88 C 343.99 111.96 341.27 115.81 338.17 119.34 C 336.43 117.97 334.51 116.73 333.19 114.92 Z" />
<path fill="#ffffda" opacity="1.00" d=" M 230.90 115.63 C 233.22 112.33 236.35 109.75 239.72 107.59 C 239.60 107.94 239.35 108.63 239.23 108.98 C 237.50 111.07 235.56 112.98 233.77 115.01 L 233.41 115.41 C 232.78 115.46 231.53 115.57 230.90 115.63 Z" />
<path fill="#474663" opacity="1.00" d=" M 254.14 108.37 C 258.30 107.31 262.64 107.51 266.89 107.30 C 266.53 108.06 266.18 108.83 265.83 109.59 C 266.19 111.92 266.71 114.41 265.67 116.65 C 263.73 121.73 256.82 123.20 256.49 129.16 C 254.92 129.32 253.34 129.44 251.77 129.55 C 251.99 126.63 252.64 123.66 252.16 120.73 C 251.50 117.70 248.63 116.09 246.22 114.55 C 249.21 112.96 251.55 110.48 254.14 108.37 Z" />
<path fill="#383255" opacity="1.00" d=" M 266.89 107.30 C 268.41 107.33 269.94 107.36 271.46 107.39 C 271.37 111.18 270.41 114.86 269.81 118.59 C 269.71 123.49 270.27 128.40 270.59 133.29 C 266.74 129.81 261.48 129.10 256.49 129.16 C 256.82 123.20 263.73 121.73 265.67 116.65 C 266.71 114.41 266.19 111.92 265.83 109.59 C 266.18 108.83 266.53 108.06 266.89 107.30 Z" />
<path fill="#2d254c" opacity="1.00" d=" M 271.46 107.39 C 278.65 108.34 286.60 109.97 291.39 115.95 C 289.18 121.20 287.87 126.72 287.31 132.37 C 284.02 137.80 277.46 140.73 271.32 141.60 C 271.26 138.82 270.93 136.05 270.59 133.29 C 270.27 128.40 269.71 123.49 269.81 118.59 C 270.41 114.86 271.37 111.18 271.46 107.39 Z" />
<path fill="#3d3a5b" opacity="1.00" d=" M 346.33 107.88 C 350.06 114.86 351.79 123.38 349.24 131.05 C 348.06 135.14 345.21 138.40 342.87 141.85 C 339.97 146.30 335.29 149.13 330.67 151.51 C 324.63 154.67 317.61 153.26 311.09 153.40 C 310.02 149.98 308.89 146.57 307.73 143.18 C 314.17 139.95 320.49 136.47 326.77 132.93 C 330.20 135.49 334.88 136.38 338.90 134.71 C 340.54 134.01 342.40 132.82 342.63 130.89 C 342.68 126.62 340.49 122.77 338.17 119.34 C 341.27 115.81 343.99 111.96 346.33 107.88 Z" />
<path fill="#ffffda" opacity="1.00" d=" M 209.44 115.89 C 210.01 115.05 210.72 114.31 211.38 113.54 C 211.43 115.19 211.47 116.85 211.48 118.51 C 210.79 117.64 210.06 116.80 209.44 115.89 Z" />
<path fill="#4a4a67" opacity="1.00" d=" M 211.38 113.54 C 212.91 113.78 215.75 112.52 216.28 114.73 C 217.00 116.82 217.13 119.06 217.41 121.25 C 215.32 120.61 213.34 119.65 211.48 118.51 C 211.47 116.85 211.43 115.19 211.38 113.54 Z" />
<path fill="#51526c" opacity="1.00" d=" M 219.86 117.91 C 222.80 116.57 225.86 115.50 228.95 114.57 C 228.62 115.67 228.29 116.78 227.96 117.89 C 234.24 118.32 240.43 116.88 246.22 114.55 C 248.63 116.09 251.50 117.70 252.16 120.73 C 252.64 123.66 251.99 126.63 251.77 129.55 C 240.91 132.66 230.09 138.97 224.48 149.11 C 218.44 145.27 212.38 140.73 205.02 139.98 C 204.24 139.23 203.47 138.47 202.69 137.72 L 202.90 137.35 C 204.03 135.45 204.88 133.31 206.45 131.73 C 209.24 131.01 212.11 130.21 213.44 127.37 C 213.57 125.57 213.73 123.76 213.95 121.97 C 213.18 122.26 211.62 122.84 210.84 123.13 C 211.47 122.48 212.10 121.84 212.75 121.20 C 214.57 122.22 216.41 123.20 218.29 124.13 C 219.09 122.13 219.56 120.03 219.86 117.91 Z" />
<path fill="#408d94" opacity="1.00" d=" M 77.61 120.74 C 80.38 121.16 83.10 120.39 85.47 118.94 C 89.93 124.79 93.41 131.45 94.56 138.78 C 92.79 137.69 91.00 136.65 89.18 135.65 C 89.35 140.31 89.86 144.98 91.09 149.49 C 88.25 144.79 85.28 140.18 82.49 135.45 C 79.77 130.96 78.89 125.74 77.61 120.74 Z" />
<path fill="#fffcd6" opacity="1.00" d=" M 202.90 137.35 C 202.62 131.65 206.41 126.35 210.84 123.13 C 211.62 122.84 213.18 122.26 213.95 121.97 C 213.73 123.76 213.57 125.57 213.44 127.37 C 212.11 130.21 209.24 131.01 206.45 131.73 C 204.88 133.31 204.03 135.45 202.90 137.35 Z" />
<path fill="#738194" opacity="1.00" d=" M 153.49 122.11 C 155.79 126.57 157.80 131.24 161.05 135.13 C 159.84 136.71 158.65 138.31 157.50 139.94 C 156.48 138.58 155.47 137.21 154.48 135.83 C 153.96 131.27 153.42 126.71 153.49 122.11 Z" />
<path fill="#ffffda" opacity="1.00" d=" M 200.46 128.77 C 202.06 127.91 203.56 126.88 204.99 125.78 C 204.00 126.93 203.01 128.08 202.13 129.32 L 201.83 129.58 C 196.21 134.84 189.06 138.35 184.44 144.67 C 183.94 145.22 183.42 145.76 182.89 146.28 C 182.56 146.40 181.89 146.64 181.55 146.76 C 187.00 139.95 192.83 133.20 200.46 128.77 Z" />
<path fill="#569c97" opacity="1.00" d=" M 38.59 132.79 C 39.06 130.73 39.55 128.67 40.00 126.61 C 40.17 129.86 40.42 133.19 39.40 136.34 C 39.15 137.13 38.65 138.72 38.39 139.51 C 36.76 138.35 35.12 137.18 33.49 136.01 L 33.49 135.68 C 33.51 133.17 33.48 130.67 33.44 128.18 C 35.15 129.72 36.87 131.25 38.59 132.79 Z" />
<path fill="#54576f" opacity="1.00" d=" M 184.44 144.67 C 189.06 138.35 196.21 134.84 201.83 129.58 C 201.13 133.73 200.35 138.39 203.63 141.70 C 200.16 144.56 197.58 148.28 195.56 152.27 C 191.69 149.97 187.97 147.45 184.44 144.67 Z" />
<path fill="#fffad5" opacity="1.00" d=" M 250.88 131.81 C 253.49 131.51 256.13 131.07 258.76 131.54 C 255.78 132.46 252.74 133.17 249.67 133.66 C 253.19 137.33 249.09 142.72 245.04 143.58 C 241.85 144.19 240.06 141.27 238.81 138.88 C 233.96 142.32 230.08 146.84 226.44 151.49 C 225.76 148.95 227.58 146.91 229.03 145.08 C 234.72 138.53 242.72 134.43 250.88 131.81 Z" />
<path fill="#50526c" opacity="1.00" d=" M 258.76 131.54 C 262.80 130.98 267.59 132.02 269.78 135.81 C 268.81 143.73 262.67 149.13 257.87 154.91 C 253.94 159.58 248.21 162.01 243.12 165.13 C 239.34 167.31 235.80 170.33 231.28 170.75 C 235.41 164.18 231.85 156.06 226.44 151.49 C 230.08 146.84 233.96 142.32 238.81 138.88 C 240.06 141.27 241.85 144.19 245.04 143.58 C 249.09 142.72 253.19 137.33 249.67 133.66 C 252.74 133.17 255.78 132.46 258.76 131.54 Z" />
<path fill="#81909f" opacity="1.00" d=" M 161.24 141.85 C 163.17 138.03 165.77 133.81 170.03 132.40 C 175.42 132.17 179.57 136.23 183.71 139.10 C 180.23 143.71 176.41 148.27 174.90 153.97 C 171.50 153.10 168.37 151.37 166.05 148.71 C 164.47 146.41 163.09 143.96 161.24 141.85 Z" />
<path fill="#2a2148" opacity="1.00" d=" M 270.90 142.83 C 277.47 142.80 282.97 138.89 287.86 134.93 C 289.17 143.15 294.70 149.91 301.60 154.25 C 298.00 160.86 293.99 167.36 288.90 172.94 C 284.46 178.03 277.40 178.86 271.52 181.45 C 266.01 178.21 259.62 177.22 253.42 176.20 C 257.44 170.28 261.93 164.64 265.09 158.19 C 267.46 153.25 269.43 148.11 270.90 142.83 Z" />
<path fill="#569c97" opacity="1.00" d=" M 29.11 135.05 C 32.64 137.67 36.13 140.44 40.21 142.18 C 39.95 150.36 40.76 159.05 44.85 166.29 C 43.38 166.46 42.28 165.67 41.64 164.40 C 35.82 155.41 32.70 145.05 29.11 135.05 Z" />
<path fill="#4c8c8e" opacity="1.00" d=" M 39.40 136.34 C 44.61 138.25 49.88 140.24 55.51 140.34 C 55.81 141.36 56.11 142.39 56.41 143.43 C 56.80 143.38 57.59 143.28 57.99 143.23 C 58.59 148.60 60.45 153.67 62.10 158.78 C 62.75 168.01 64.76 177.30 63.46 186.55 C 55.79 181.58 49.64 174.65 43.96 167.57 C 47.65 167.65 51.33 168.02 55.01 167.87 C 56.28 167.94 57.45 167.50 58.33 166.58 C 53.87 165.97 49.32 165.45 44.85 166.29 C 40.76 159.05 39.95 150.36 40.21 142.18 C 40.22 141.94 40.25 141.47 40.26 141.23 C 39.64 140.66 39.01 140.08 38.39 139.51 C 38.65 138.72 39.15 137.13 39.40 136.34 Z" />
<path fill="#68a194" opacity="1.00" d=" M 89.18 135.65 C 91.00 136.65 92.79 137.69 94.56 138.78 C 94.61 139.10 94.73 139.75 94.79 140.07 C 95.35 145.11 97.68 149.64 99.92 154.10 C 106.25 167.87 113.08 181.53 116.94 196.25 C 117.46 200.60 117.14 205.07 115.26 209.08 C 109.88 198.11 106.90 186.17 101.76 175.10 C 98.17 166.58 94.69 158.00 91.09 149.49 C 89.86 144.98 89.35 140.31 89.18 135.65 Z" />
<path fill="#2c244a" opacity="1.00" d=" M 269.78 135.81 C 269.91 138.17 270.40 140.53 270.15 142.89 C 266.35 152.08 262.50 161.41 256.32 169.31 C 253.77 172.28 252.25 176.82 248.15 177.95 C 242.64 178.06 237.16 177.34 231.69 176.72 L 231.12 176.65 C 230.56 174.70 230.05 172.57 231.28 170.75 C 235.80 170.33 239.34 167.31 243.12 165.13 C 248.21 162.01 253.94 159.58 257.87 154.91 C 262.67 149.13 268.81 143.73 269.78 135.81 Z" />
<path fill="#3d8690" opacity="1.00" d=" M 94.79 140.07 C 97.82 143.03 99.55 146.93 101.64 150.53 C 106.19 158.67 109.52 167.39 112.76 176.10 C 114.32 180.53 116.31 184.91 116.85 189.62 C 116.92 191.82 116.88 194.04 116.94 196.25 C 113.08 181.53 106.25 167.87 99.92 154.10 C 97.68 149.64 95.35 145.11 94.79 140.07 Z" />
<path fill="#fffad5" opacity="1.00" d=" M 193.60 166.54 C 195.26 157.65 198.97 148.72 205.63 142.41 C 208.37 143.43 211.09 144.56 213.55 146.18 C 212.97 146.32 211.81 146.60 211.23 146.74 C 209.91 146.12 208.59 145.49 207.28 144.86 C 208.21 146.94 210.92 149.51 208.89 151.82 C 207.35 154.53 204.10 153.67 201.64 153.14 C 198.57 157.38 197.40 162.82 193.60 166.54 Z" />
<path fill="#322b4b" opacity="1.00" d=" M 299.76 147.33 C 302.41 145.94 305.07 144.56 307.73 143.18 C 308.89 146.57 310.02 149.98 311.09 153.40 C 306.53 153.34 302.39 151.01 299.76 147.33 Z" />
<path fill="#565971" opacity="1.00" d=" M 159.92 142.94 C 161.56 144.91 163.08 146.99 164.51 149.12 C 163.84 150.97 163.15 152.80 162.41 154.62 C 160.74 153.25 159.07 151.90 157.39 150.56 C 158.16 148.00 158.97 145.45 159.92 142.94 Z" />
<path fill="#494865" opacity="1.00" d=" M 182.89 146.28 C 183.42 145.76 183.94 145.22 184.44 144.67 C 187.97 147.45 191.69 149.97 195.56 152.27 C 194.56 154.35 194.34 157.21 192.67 158.79 C 189.39 154.56 184.70 151.76 179.38 151.07 C 180.01 149.66 180.65 148.25 181.30 146.85 L 181.55 146.76 C 181.89 146.64 182.56 146.40 182.89 146.28 Z" />
<path fill="#8999a6" opacity="1.00" d=" M 207.28 144.86 C 208.59 145.49 209.91 146.12 211.23 146.74 C 211.81 146.60 212.97 146.32 213.55 146.18 L 213.79 146.12 C 216.51 147.76 219.32 149.26 221.92 151.09 C 224.60 152.97 226.30 155.82 228.31 158.33 C 221.56 162.90 214.18 166.39 207.02 170.28 C 202.25 171.88 197.59 173.81 192.76 175.26 C 192.66 173.79 192.58 172.33 192.53 170.86 C 192.63 169.46 193.04 168.12 193.39 166.77 L 193.60 166.54 C 197.40 162.82 198.57 157.38 201.64 153.14 C 204.10 153.67 207.35 154.53 208.89 151.82 C 210.92 149.51 208.21 146.94 207.28 144.86 Z" />
<path fill="#569c96" opacity="1.00" d=" M 23.01 158.47 C 26.09 155.26 29.00 151.91 31.79 148.45 C 34.02 154.50 36.80 160.34 40.18 165.83 C 39.74 167.60 39.40 169.39 39.23 171.20 C 40.33 170.13 40.59 168.56 41.10 167.19 C 47.83 175.76 55.29 184.05 64.68 189.79 C 64.27 190.43 63.46 191.70 63.05 192.33 C 48.22 183.00 34.77 171.45 23.01 158.47 Z" />
<path fill="#4c5573" opacity="1.00" d=" M 166.05 148.71 C 168.37 151.37 171.50 153.10 174.90 153.97 C 172.14 156.88 169.15 159.66 165.90 162.02 C 164.16 163.64 162.18 160.64 162.74 159.02 C 163.52 155.49 164.97 152.15 166.05 148.71 Z" />
<path fill="#3a3558" opacity="1.00" d=" M 368.87 157.44 C 370.47 154.72 372.20 152.08 374.02 149.50 C 381.37 156.30 389.44 162.45 395.57 170.45 C 403.18 180.07 407.31 191.78 412.07 202.93 C 414.38 207.91 415.48 213.33 417.59 218.38 C 418.76 221.19 419.47 224.16 420.01 227.15 C 414.16 223.32 409.57 216.79 402.03 216.33 C 398.83 215.52 397.24 218.74 396.39 221.19 C 393.90 219.20 391.28 217.39 388.60 215.69 L 388.57 215.50 C 387.38 206.55 384.78 197.88 383.01 189.04 C 380.61 177.65 375.89 166.75 368.87 157.44 Z" />
<path fill="#454362" opacity="1.00" d=" M 157.39 150.56 C 159.07 151.90 160.74 153.25 162.41 154.62 L 162.54 154.72 C 161.92 156.95 160.73 159.57 162.18 161.74 C 162.83 162.67 163.97 163.98 165.25 163.37 C 168.20 162.30 170.30 159.81 172.65 157.85 C 172.20 162.20 171.63 166.55 170.90 170.87 C 169.60 171.79 167.78 173.09 166.42 171.54 C 160.55 166.42 156.61 158.46 157.39 150.56 Z" />
<path fill="#53556e" opacity="1.00" d=" M 177.97 153.58 C 183.74 153.12 189.00 156.43 192.29 160.97 C 191.13 164.49 190.74 168.20 189.80 171.78 C 189.63 172.33 189.28 173.44 189.11 173.99 C 184.75 172.00 180.11 170.53 176.02 168.00 C 174.53 167.26 174.84 165.41 174.56 164.05 C 175.21 160.42 176.63 157.00 177.97 153.58 Z" />
<path fill="#312a50" opacity="1.00" d=" M 326.10 157.53 C 327.62 156.98 329.15 156.45 330.69 155.92 C 333.29 159.10 336.56 161.60 339.93 163.89 C 338.47 165.08 337.01 166.28 335.55 167.47 C 331.83 164.74 328.91 161.14 326.10 157.53 Z" />
<path fill="#555870" opacity="1.00" d=" M 359.87 183.01 C 361.06 173.99 364.10 165.20 368.87 157.44 C 375.89 166.75 380.61 177.65 383.01 189.04 C 384.78 197.88 387.38 206.55 388.57 215.50 C 380.13 211.52 371.47 207.56 362.16 206.18 C 361.52 198.44 358.74 190.84 359.87 183.01 Z" />
<path fill="#32637a" opacity="1.00" d=" M 62.10 158.78 C 66.59 165.89 69.06 174.09 73.88 181.00 C 79.84 189.71 87.87 196.66 95.36 203.98 C 84.05 201.88 73.03 198.11 63.05 192.33 C 63.46 191.70 64.27 190.43 64.68 189.79 C 69.83 193.12 75.29 196.20 81.33 197.53 L 82.20 197.08 C 80.42 194.82 77.39 194.36 74.93 193.18 C 70.76 191.60 67.23 188.83 63.46 186.55 C 64.76 177.30 62.75 168.01 62.10 158.78 Z" />
<path fill="#57627c" opacity="1.00" d=" M 207.02 170.28 C 214.18 166.39 221.56 162.90 228.31 158.33 C 229.83 161.65 230.50 165.55 228.66 168.90 C 225.73 175.91 220.45 181.59 214.94 186.67 L 214.60 186.66 C 212.39 186.62 210.18 186.60 207.97 186.58 C 208.20 180.67 208.08 173.82 212.95 169.58 C 210.98 169.90 209.00 170.11 207.02 170.28 Z" />
<path fill="#383255" opacity="1.00" d=" M 176.87 187.00 C 174.04 179.73 173.90 171.72 174.56 164.05 C 174.84 165.41 174.53 167.26 176.02 168.00 C 180.11 170.53 184.75 172.00 189.11 173.99 C 189.28 173.44 189.63 172.33 189.80 171.78 C 189.68 175.53 189.82 179.30 190.60 182.99 C 187.64 186.35 185.66 190.64 182.05 193.38 C 178.69 193.86 178.10 189.27 176.87 187.00 Z" />
<path fill="#494966" opacity="1.00" d=" M 335.55 167.47 C 337.01 166.28 338.47 165.08 339.93 163.89 C 345.91 167.23 352.15 170.20 358.87 171.69 C 358.28 173.19 357.77 174.74 357.05 176.19 C 349.17 175.72 342.19 171.36 335.55 167.47 Z" />
<path fill="#5e6982" opacity="1.00" d=" M 207.02 170.28 C 209.00 170.11 210.98 169.90 212.95 169.58 C 208.08 173.82 208.20 180.67 207.97 186.58 C 210.18 186.60 212.39 186.62 214.60 186.66 C 212.58 187.82 210.58 189.78 208.05 189.28 C 203.65 188.45 199.21 187.03 195.51 184.46 C 191.28 181.35 191.89 175.43 192.53 170.86 C 192.58 172.33 192.66 173.79 192.76 175.26 C 197.59 173.81 202.25 171.88 207.02 170.28 Z" />
<path fill="#3d385a" opacity="1.00" d=" M 165.63 190.11 C 168.48 185.83 170.47 181.05 171.59 176.04 C 171.96 179.52 172.54 182.98 173.62 186.32 C 171.76 188.57 169.66 190.60 167.31 192.34 C 166.89 191.78 166.05 190.67 165.63 190.11 Z" />
<path fill="#201633" opacity="1.00" d=" M 215.68 189.61 C 220.99 186.48 224.33 181.16 228.34 176.66 C 228.72 181.16 230.23 185.40 231.62 189.66 C 231.10 190.43 230.46 191.06 229.68 191.56 C 225.83 191.75 221.83 190.74 218.10 192.13 C 214.86 193.12 212.20 195.30 209.63 197.41 C 208.30 195.73 207.30 193.84 206.61 191.82 C 209.71 191.55 212.97 191.33 215.68 189.61 Z" />
<path fill="#221836" opacity="1.00" d=" M 231.69 176.72 C 237.16 177.34 242.64 178.06 248.15 177.95 C 243.97 181.59 239.45 184.96 234.30 187.09 C 233.07 183.73 232.15 180.27 231.69 176.72 Z" />
<path fill="#241a3a" opacity="1.00" d=" M 236.59 189.58 C 242.41 187.08 247.33 182.99 252.05 178.86 C 257.60 180.15 263.36 181.10 268.49 183.67 C 262.20 186.67 255.55 188.81 248.91 190.87 C 243.97 192.18 238.66 193.53 233.59 192.12 C 233.38 190.39 235.57 190.35 236.59 189.58 Z" />
<path fill="#271e3d" opacity="1.00" d=" M 192.18 185.13 C 195.92 187.69 200.05 189.58 204.40 190.82 C 204.49 191.92 204.59 193.02 204.69 194.13 C 200.77 194.89 196.52 196.08 192.70 194.30 C 190.78 193.56 189.73 191.68 188.48 190.18 C 189.72 188.51 190.96 186.82 192.18 185.13 Z" />
<path fill="#565971" opacity="1.00" d=" M 141.34 202.38 C 144.84 196.19 149.85 191.07 154.95 186.19 C 157.02 187.35 159.06 188.56 161.13 189.73 C 155.59 192.63 156.03 199.52 153.26 204.35 C 148.80 211.83 142.81 218.22 137.29 224.90 C 135.91 223.68 134.55 222.43 133.20 221.17 C 135.73 214.83 137.65 208.19 141.34 202.38 Z" />
<path fill="#265875" opacity="1.00" d=" M 116.85 189.62 C 121.43 199.97 126.53 210.09 129.97 220.91 C 128.48 221.91 126.96 222.88 125.61 224.07 C 125.34 226.39 126.38 228.59 126.97 230.78 C 125.81 230.29 124.64 229.83 123.48 229.35 C 121.15 222.43 118.25 215.74 115.26 209.08 C 117.14 205.07 117.46 200.60 116.94 196.25 C 116.88 194.04 116.92 191.82 116.85 189.62 Z" />
<path fill="#444261" opacity="1.00" d=" M 161.13 189.73 C 167.57 195.67 169.97 204.24 173.20 212.08 C 163.69 222.60 151.23 231.67 136.58 232.45 C 137.28 229.99 137.57 227.45 137.29 224.90 C 142.81 218.22 148.80 211.83 153.26 204.35 C 156.03 199.52 155.59 192.63 161.13 189.73 Z" />
<path fill="#2e264d" opacity="1.00" d=" M 217.37 195.36 C 222.51 193.70 228.52 193.95 233.12 196.99 C 235.16 198.32 236.42 201.03 235.47 203.40 C 233.67 207.10 230.56 209.98 227.22 212.30 C 225.13 212.13 223.03 212.04 220.94 212.01 C 220.60 211.06 220.27 210.12 219.94 209.18 C 221.35 205.67 222.34 202.01 223.04 198.29 C 219.27 198.92 215.46 199.36 211.63 199.44 C 212.43 196.90 215.15 196.18 217.37 195.36 Z" />
<path fill="#4f506b" opacity="1.00" d=" M 211.63 199.44 C 215.46 199.36 219.27 198.92 223.04 198.29 C 222.34 202.01 221.35 205.67 219.94 209.18 C 216.76 209.62 213.58 210.10 210.41 210.61 C 209.38 206.88 209.25 202.93 211.17 199.46 L 211.63 199.44 Z" />
<path fill="#2e254c" opacity="1.00" d=" M 258.90 205.71 C 262.35 204.70 265.95 204.32 269.55 204.45 C 263.96 211.50 257.83 218.26 250.38 223.39 C 245.98 226.32 242.19 230.48 237.06 232.09 C 233.92 233.16 232.06 229.90 230.69 227.69 C 233.65 227.67 236.62 226.95 238.83 224.87 C 246.34 218.50 254.27 212.63 261.44 205.87 C 260.81 205.83 259.54 205.75 258.90 205.71 Z" />
<path fill="#4c4c67" opacity="1.00" d=" M 239.60 214.62 C 245.65 210.97 251.85 207.00 258.90 205.71 C 259.54 205.75 260.81 205.83 261.44 205.87 C 254.27 212.63 246.34 218.50 238.83 224.87 C 236.62 226.95 233.65 227.67 230.69 227.69 C 230.23 226.36 229.76 225.04 229.28 223.72 C 231.74 219.72 235.75 217.12 239.60 214.62 Z" />
<path fill="#3b3659" opacity="1.00" d=" M 210.41 210.61 C 213.58 210.10 216.76 209.62 219.94 209.18 C 220.27 210.12 220.60 211.06 220.94 212.01 C 218.53 213.03 216.11 214.04 213.72 215.10 C 212.52 213.67 211.41 212.18 210.41 210.61 Z" />
<path fill="#312a50" opacity="1.00" d=" M 217.30 217.81 C 222.20 218.03 226.38 215.40 230.43 213.03 C 227.92 221.14 221.90 227.57 215.59 232.98 C 211.98 230.45 207.77 231.96 203.97 233.09 C 203.32 232.14 202.68 231.20 202.02 230.26 C 204.97 230.29 207.91 230.32 210.85 230.33 C 212.85 226.08 215.00 221.91 217.30 217.81 Z" />
<path fill="#26213e" opacity="1.00" d=" M 216.18 215.36 C 219.20 214.32 222.37 213.84 225.55 213.71 C 223.21 216.09 219.14 217.24 216.18 215.36 Z" />
<path fill="#555770" opacity="1.00" d=" M 200.97 218.82 C 205.53 214.99 212.14 215.54 217.30 217.81 C 215.00 221.91 212.85 226.08 210.85 230.33 C 207.91 230.32 204.97 230.29 202.02 230.26 C 200.66 226.79 197.22 221.90 200.97 218.82 Z" />
<path fill="#565971" opacity="1.00" d=" M 176.91 219.37 C 182.91 219.14 188.38 222.16 193.88 224.13 C 196.84 224.88 197.53 228.13 198.90 230.43 C 195.77 232.15 192.66 233.92 189.66 235.86 C 187.06 233.24 184.02 231.11 181.54 228.38 C 179.22 225.85 178.06 222.55 176.91 219.37 Z" />
<path fill="#484865" opacity="1.00" d=" M 399.73 220.09 C 400.85 217.77 404.00 218.76 405.99 219.03 C 408.93 220.33 410.87 223.13 413.39 225.06 C 413.21 227.23 413.52 229.54 412.69 231.60 C 411.20 232.52 409.48 232.95 407.86 233.53 C 405.81 232.43 403.72 231.40 401.62 230.41 C 400.60 227.08 399.04 223.64 399.73 220.09 Z" />
<path fill="#2f274e" opacity="1.00" d=" M 420.67 218.40 C 422.29 218.99 425.03 218.16 425.68 220.26 C 427.03 225.29 427.07 230.77 425.79 235.83 C 425.18 237.42 424.08 239.83 422.03 239.47 C 416.95 238.53 412.39 235.88 407.86 233.53 C 409.48 232.95 411.20 232.52 412.69 231.60 C 413.52 229.54 413.21 227.23 413.39 225.06 C 416.30 227.08 418.97 230.12 422.84 229.91 C 422.96 225.95 421.98 222.11 420.67 218.40 Z" />
<path fill="#565a72" opacity="1.00" d=" M 127.70 224.95 C 128.12 222.71 131.35 223.62 132.82 224.25 C 136.18 225.57 134.15 229.55 133.77 232.09 C 130.74 230.88 127.91 228.42 127.70 224.95 Z" />
<path fill="#231836" opacity="1.00" d=" M 243.33 233.26 C 245.27 230.28 248.90 228.80 251.75 226.76 C 253.97 229.70 256.12 232.69 258.21 235.73 C 256.07 236.72 253.78 237.49 251.92 238.98 C 250.37 240.74 249.55 242.99 248.49 245.06 C 246.32 241.39 243.61 237.66 243.33 233.26 Z" />
<path fill="#271e3a" opacity="1.00" d=" M 198.90 230.43 C 199.33 231.56 200.06 232.63 200.11 233.87 C 199.13 236.02 197.48 237.74 196.03 239.57 C 193.85 238.42 191.71 237.20 189.66 235.86 C 192.66 233.92 195.77 232.15 198.90 230.43 Z" />
<path fill="#241a38" opacity="1.00" d=" M 203.97 233.09 C 207.77 231.96 211.98 230.45 215.59 232.98 C 213.54 234.45 211.70 236.87 209.07 237.10 C 207.16 236.05 205.58 234.53 203.97 233.09 Z" />
<path fill="#565971" opacity="1.00" d=" M 118.54 234.01 C 120.71 230.16 124.97 232.38 127.56 234.45 C 126.02 236.71 124.50 238.98 122.99 241.25 C 121.53 238.85 119.10 236.82 118.54 234.01 Z" />
<path fill="#1e466b" opacity="1.00" d=" M 130.94 234.47 C 132.25 234.83 133.56 235.19 134.87 235.55 C 135.70 239.17 138.01 242.16 139.33 245.59 C 143.09 255.90 146.77 266.25 150.27 276.67 C 147.36 275.43 144.35 274.49 141.26 273.82 L 141.10 273.78 C 138.65 267.45 136.12 261.13 132.94 255.13 C 131.35 252.30 130.89 249.06 130.45 245.90 C 133.84 242.79 132.97 238.07 130.94 234.47 Z" />
<path fill="#413e5e" opacity="1.00" d=" M 127.56 234.45 C 128.74 236.56 130.14 238.64 130.59 241.06 C 129.35 243.00 127.52 244.44 125.86 245.98 C 124.89 244.40 123.94 242.83 122.99 241.25 C 124.50 238.98 126.02 236.71 127.56 234.45 Z" />
<path fill="#211734" opacity="1.00" d=" M 197.37 242.39 C 199.76 240.91 200.21 237.70 202.37 236.00 C 204.11 238.92 205.68 241.99 206.54 245.28 C 207.18 249.66 205.78 254.01 204.28 258.07 C 204.14 257.67 203.87 256.87 203.73 256.46 C 202.57 256.76 201.42 257.10 200.28 257.43 C 200.18 258.08 199.98 259.39 199.88 260.05 C 197.88 255.67 196.61 250.98 194.12 246.84 C 193.13 245.26 192.49 243.50 192.34 241.64 C 194.01 241.88 195.67 242.56 197.37 242.39 Z" />
<path fill="#2d2649" opacity="1.00" d=" M 251.92 238.98 C 253.78 237.49 256.07 236.72 258.21 235.73 C 261.72 240.93 265.61 246.20 267.53 252.22 C 267.73 256.21 268.92 260.06 269.26 264.02 C 269.35 266.40 267.15 267.85 265.85 269.53 C 259.03 262.17 253.91 253.46 248.49 245.06 C 249.55 242.99 250.37 240.74 251.92 238.98 Z" />
<path fill="#474664" opacity="1.00" d=" M 406.85 237.81 C 408.55 239.95 408.87 242.77 409.67 245.30 C 408.14 247.17 406.29 248.74 404.07 249.73 C 405.68 245.94 406.58 241.92 406.85 237.81 Z" />
<path fill="#322a51" opacity="1.00" d=" M 415.03 249.35 C 413.61 246.19 412.28 242.89 412.27 239.37 C 416.87 241.45 422.54 244.59 427.27 241.02 C 427.46 242.19 427.67 243.37 427.88 244.54 C 423.68 246.35 419.47 248.17 415.03 249.35 Z" />
<path fill="#312952" opacity="1.00" d=" M 427.43 248.50 C 428.92 247.66 430.50 248.08 430.49 250.01 C 425.51 253.72 418.97 253.98 413.77 257.28 C 411.94 254.82 410.20 252.29 408.56 249.70 C 411.52 247.09 412.77 251.63 414.45 253.43 C 418.75 251.72 423.25 250.54 427.43 248.50 Z" />
<path fill="#393555" opacity="1.00" d=" M 269.26 264.02 C 268.92 260.06 267.73 256.21 267.53 252.22 C 271.92 259.56 273.71 268.05 276.78 275.97 C 275.86 276.41 274.95 276.86 274.04 277.30 C 271.27 274.75 268.54 272.16 265.85 269.53 C 267.15 267.85 269.35 266.40 269.26 264.02 Z" />
<path fill="#302748" opacity="1.00" d=" M 200.28 257.43 C 201.42 257.10 202.57 256.76 203.73 256.46 C 203.87 256.87 204.14 257.67 204.28 258.07 C 203.55 261.27 202.07 264.22 200.61 267.13 C 200.27 264.78 199.72 262.43 199.88 260.05 C 199.98 259.39 200.18 258.08 200.28 257.43 Z" />
<path fill="#312a4e" opacity="1.00" d=" M 200.55 270.18 C 204.46 268.54 209.59 269.33 212.58 272.36 C 216.79 279.02 212.89 286.79 209.71 292.98 C 208.01 291.47 206.31 289.96 204.61 288.45 C 202.33 288.42 200.06 288.40 197.78 288.37 C 198.47 282.26 200.50 276.36 200.55 270.18 Z" />
<path fill="#2b677e" opacity="1.00" d=" M 141.26 273.82 C 144.35 274.49 147.36 275.43 150.27 276.67 C 151.57 280.43 153.02 284.14 154.37 287.88 C 152.36 288.78 150.36 289.69 148.36 290.60 C 146.29 285.53 143.78 280.66 141.70 275.61 C 141.59 275.16 141.37 274.27 141.26 273.82 Z" />
<path fill="#30284e" opacity="1.00" d=" M 280.64 273.98 C 284.57 277.32 287.20 281.81 290.16 285.97 C 292.20 289.00 294.79 291.78 295.80 295.39 C 292.04 292.82 287.65 289.92 282.87 290.94 C 280.33 291.17 279.76 294.09 278.55 295.86 C 276.06 290.93 273.69 285.84 273.04 280.29 C 275.08 279.38 277.99 279.32 279.01 276.99 C 279.57 276.00 280.11 275.00 280.64 273.98 Z" />
<path fill="#36808e" opacity="1.00" d=" M 141.70 275.61 C 143.78 280.66 146.29 285.53 148.36 290.60 C 150.36 289.69 152.36 288.78 154.37 287.88 C 157.18 295.08 159.71 302.39 162.50 309.60 C 164.15 313.96 166.65 317.95 167.96 322.44 C 165.35 322.64 161.75 323.66 160.36 320.62 C 154.10 310.53 149.49 299.50 145.46 288.35 C 144.05 284.14 140.42 280.34 141.70 275.61 Z" />
<path fill="#494864" opacity="1.00" d=" M 197.78 288.37 C 200.06 288.40 202.33 288.42 204.61 288.45 C 206.31 289.96 208.01 291.47 209.71 292.98 C 203.45 304.41 196.35 315.43 187.95 325.42 C 191.40 313.13 195.59 300.97 197.78 288.37 Z" />
<path fill="#474664" opacity="1.00" d=" M 278.55 295.86 C 279.76 294.09 280.33 291.17 282.87 290.94 C 287.65 289.92 292.04 292.82 295.80 295.39 L 296.63 295.99 C 296.06 296.04 294.93 296.12 294.36 296.16 C 294.94 296.93 295.52 297.71 296.10 298.49 C 293.22 298.33 290.26 297.81 287.41 298.48 C 285.28 299.62 284.03 301.82 282.53 303.63 C 281.10 301.10 279.80 298.49 278.55 295.86 Z" />
<path fill="#51526c" opacity="1.00" d=" M 294.36 296.16 C 294.93 296.12 296.06 296.04 296.63 295.99 L 296.88 295.97 C 302.60 305.49 309.54 314.23 314.80 324.03 C 318.82 331.01 321.46 338.67 323.43 346.46 C 313.71 338.64 304.92 329.73 296.02 321.00 C 291.06 315.59 286.61 309.72 282.53 303.63 C 284.03 301.82 285.28 299.62 287.41 298.48 C 290.26 297.81 293.22 298.33 296.10 298.49 C 295.52 297.71 294.94 296.93 294.36 296.16 Z" />
</svg>
