<?xml version="1.0" encoding="UTF-8" ?>
<!DOCTYPE svg PUBLIC "-//W3C//DTD SVG 1.1//EN" "http://www.w3.org/Graphics/SVG/1.1/DTD/svg11.dtd">
<svg width="194pt" height="254pt" viewBox="0 0 194 254" version="1.1" xmlns="http://www.w3.org/2000/svg">
<path fill="#000000" opacity="1.00" d=" M 75.45 9.36 C 81.60 5.34 88.75 3.30 95.61 0.86 C 85.39 8.53 74.40 15.19 64.82 23.69 C 51.81 33.19 40.51 44.95 31.14 58.02 C 23.32 68.61 17.79 80.88 15.37 93.83 C 18.75 95.84 21.98 98.31 24.44 101.40 C 25.42 105.57 22.15 108.95 20.08 112.18 C 22.65 114.96 25.58 117.37 28.30 119.99 C 28.33 121.56 28.28 123.13 28.16 124.70 C 29.04 123.44 30.01 122.24 30.91 121.00 C 32.63 121.73 33.79 123.19 34.87 124.65 C 44.13 122.61 52.56 118.20 61.15 114.36 C 65.55 112.02 70.20 110.09 74.43 107.45 C 76.84 105.00 78.45 101.87 80.95 99.48 C 75.06 100.72 69.12 99.34 63.20 99.10 C 59.89 98.80 56.40 99.06 53.31 97.61 C 56.60 95.72 60.09 93.82 63.99 93.79 C 70.94 93.70 78.16 93.32 84.77 95.83 C 87.29 91.53 91.43 88.64 95.65 86.19 C 91.86 82.43 89.05 77.73 87.70 72.56 C 86.11 66.35 83.23 60.47 82.53 54.05 C 82.19 50.01 82.04 45.95 82.02 41.89 C 84.86 44.63 86.21 48.39 88.04 51.79 C 93.39 62.02 97.85 73.14 98.04 84.84 C 100.65 84.84 103.78 84.18 105.84 86.22 C 107.86 88.10 108.45 90.88 108.43 93.53 C 110.44 93.25 112.66 91.69 114.59 93.03 C 114.57 93.78 114.53 95.27 114.51 96.02 C 122.26 94.58 130.17 94.52 138.02 93.98 C 140.32 93.78 142.64 93.95 144.84 94.70 C 143.71 97.20 141.17 98.57 139.84 100.92 C 137.53 104.73 134.33 108.10 130.22 109.96 C 126.79 111.11 125.67 115.21 122.10 116.11 C 119.07 116.93 118.74 120.42 117.59 122.83 C 115.89 127.43 112.29 131.01 108.11 133.43 C 107.42 133.38 106.02 133.28 105.32 133.23 C 103.74 137.71 98.59 137.60 95.55 140.45 C 94.86 142.26 93.66 143.79 92.33 145.18 C 92.33 147.28 92.15 149.40 90.95 151.20 C 89.91 151.64 88.88 152.11 87.86 152.60 C 90.20 152.69 92.09 151.11 94.17 150.31 C 100.68 147.24 108.02 146.45 115.13 146.91 C 115.68 147.15 116.79 147.64 117.34 147.88 C 112.84 150.44 108.46 153.20 104.07 155.95 C 104.19 157.02 104.30 158.09 104.42 159.17 C 106.07 159.76 108.57 159.49 109.39 161.37 C 113.59 171.16 116.37 181.45 120.00 191.45 C 126.85 188.30 136.50 186.67 142.19 192.82 C 147.81 199.59 151.67 207.59 155.69 215.36 C 160.14 223.57 162.31 232.73 164.56 241.72 C 173.36 240.96 182.29 241.35 190.88 243.45 C 191.96 243.64 192.62 244.54 193.30 245.31 C 184.95 247.65 176.45 249.48 167.94 251.09 C 153.28 251.64 138.67 253.41 124.00 253.24 C 113.35 253.80 102.72 252.40 92.08 252.52 C 81.13 254.13 70.04 253.88 59.00 253.89 C 45.11 253.71 31.11 253.67 17.39 251.30 C 15.29 251.11 12.26 248.57 14.60 246.68 C 17.73 245.29 21.22 245.18 24.56 244.71 C 25.10 235.75 26.62 226.64 30.90 218.64 C 30.19 218.74 28.78 218.94 28.07 219.04 C 24.70 215.93 21.86 212.20 20.22 207.89 C 17.22 200.38 14.61 192.71 12.25 184.98 C 11.55 181.94 10.03 178.15 12.43 175.49 C 16.46 170.80 19.76 165.49 22.28 159.85 C 23.61 157.29 22.01 154.61 21.70 152.02 C 21.70 146.49 21.09 140.97 20.17 135.54 C 13.71 138.35 7.63 142.13 0.78 143.96 C 6.17 139.78 12.44 136.83 18.57 133.89 C 17.97 131.52 17.36 129.15 16.80 126.76 C 18.77 123.57 16.13 120.17 14.84 117.24 C 11.55 110.51 5.95 105.42 1.73 99.32 C -0.14 97.03 -0.11 93.86 0.59 91.12 C 2.39 83.08 6.87 76.05 11.00 69.04 C 14.88 62.46 19.86 56.63 24.86 50.88 C 38.85 33.94 56.70 20.61 75.45 9.36 M 46.69 32.69 C 41.08 37.77 35.24 42.65 30.40 48.50 C 23.42 56.64 15.93 64.60 11.21 74.33 L 10.89 74.23 C 7.21 80.90 3.35 87.76 2.62 95.49 C 4.78 99.18 7.29 102.72 10.45 105.63 C 13.01 109.43 15.89 113.03 17.90 117.19 C 18.94 119.43 19.72 121.80 19.78 124.30 C 21.85 124.09 23.92 123.88 25.99 123.67 C 25.71 120.03 22.67 117.75 20.17 115.51 C 19.19 114.01 17.40 112.32 18.42 110.38 C 19.64 107.69 21.61 105.33 22.04 102.32 C 18.98 99.62 15.62 97.10 13.14 93.86 C 13.51 90.69 14.72 87.67 14.97 84.47 L 15.55 83.34 C 16.33 81.00 17.26 78.72 18.23 76.45 C 26.42 57.96 40.07 42.44 55.03 29.09 C 62.54 23.27 69.86 17.20 77.37 11.36 C 66.35 17.25 56.39 24.87 46.69 32.69 M 83.43 46.86 C 84.00 55.48 86.95 63.63 89.82 71.69 C 90.50 77.05 94.55 81.32 96.94 86.06 C 95.62 79.70 94.97 73.15 92.64 67.04 C 89.90 60.17 86.65 53.52 83.43 46.86 M 93.54 90.76 C 90.96 92.36 88.47 94.45 87.22 97.29 C 86.07 99.63 88.09 101.83 88.98 103.89 C 91.43 102.04 93.99 100.33 96.45 98.50 C 94.56 98.94 92.68 99.35 90.79 99.81 C 91.30 96.56 93.41 93.99 95.40 91.51 C 97.21 91.36 98.93 90.63 100.70 90.21 C 101.11 93.24 99.71 95.85 97.77 98.08 C 100.50 97.01 103.14 95.72 105.70 94.27 C 105.15 91.89 105.06 88.33 102.09 87.68 C 98.87 86.65 96.07 89.16 93.54 90.76 M 96.14 92.84 L 96.15 93.17 C 94.55 94.51 93.47 96.30 92.44 98.09 C 93.73 97.77 95.02 97.45 96.32 97.13 C 98.28 95.52 100.24 93.64 100.27 90.91 C 98.89 91.54 97.52 92.19 96.14 92.84 M 103.35 98.14 C 106.79 97.78 110.42 97.60 113.44 95.70 C 109.96 94.07 106.41 96.67 103.35 98.14 M 56.46 97.50 C 62.35 97.75 68.22 98.53 74.12 98.35 C 77.54 97.61 81.04 97.61 84.52 97.35 C 75.35 96.08 65.30 93.58 56.46 97.50 M 89.96 104.84 C 92.36 104.73 94.87 105.04 97.18 104.25 C 104.48 104.75 111.77 103.58 119.07 103.42 C 124.94 103.02 131.39 103.08 136.26 99.27 C 138.50 98.86 140.34 97.42 141.84 95.77 C 136.54 96.06 131.24 96.44 125.94 96.66 C 113.63 97.58 101.50 100.52 89.96 104.84 M 81.48 99.19 C 81.40 101.31 81.02 103.41 80.57 105.49 C 82.30 104.79 84.04 104.11 85.79 103.45 C 84.97 101.38 84.35 98.68 81.48 99.19 M 122.23 105.22 C 121.58 106.55 120.94 107.88 120.29 109.21 C 121.66 110.08 123.31 110.82 124.88 109.91 C 129.45 108.10 133.91 105.53 136.93 101.55 C 132.33 103.79 127.30 104.78 122.23 105.22 M 115.40 105.34 C 114.19 107.55 113.91 110.03 114.55 112.46 C 115.57 112.49 117.61 112.55 118.64 112.58 C 118.35 109.92 118.70 107.27 120.64 105.26 C 118.89 105.27 117.14 105.34 115.40 105.34 M 75.85 109.75 C 77.29 110.75 78.61 111.99 80.27 112.63 C 83.12 113.09 85.85 111.20 87.52 109.04 C 88.40 107.22 86.06 106.36 85.15 105.25 C 81.94 106.53 78.73 107.84 75.85 109.75 M 89.76 106.47 L 90.78 106.77 C 90.15 110.54 86.76 112.75 85.62 116.27 L 86.73 116.21 C 90.53 117.08 93.97 119.01 96.21 122.28 C 98.10 121.18 100.43 120.26 101.19 118.00 C 102.67 114.18 101.43 110.05 100.57 106.24 C 96.97 106.12 93.34 105.97 89.76 106.47 M 102.17 106.21 C 103.11 109.53 103.24 112.99 103.37 116.41 C 107.50 118.07 111.43 120.16 115.24 122.44 C 115.90 120.59 116.51 118.73 117.08 116.85 C 113.64 116.58 109.17 117.30 106.90 114.04 C 105.01 111.20 107.62 108.22 108.86 105.74 C 106.63 105.90 104.40 106.06 102.17 106.21 M 107.73 111.04 C 107.80 114.11 111.48 114.36 113.71 115.07 C 111.29 112.29 112.49 108.55 113.20 105.36 C 109.94 105.28 108.39 108.30 107.73 111.04 M 55.41 119.71 C 57.44 119.68 59.48 119.65 61.52 119.69 C 61.06 121.19 60.43 122.64 59.66 124.02 C 64.10 121.63 68.99 120.26 73.77 118.72 C 76.38 117.81 79.46 118.01 81.55 115.93 C 78.42 114.72 75.80 112.57 74.19 109.60 C 68.27 113.56 62.02 117.04 55.41 119.71 M 83.48 114.76 C 79.51 118.86 77.54 124.43 76.98 130.02 C 77.42 129.78 78.31 129.29 78.76 129.04 C 78.43 124.14 82.44 120.96 85.46 117.75 C 84.77 116.77 84.16 115.75 83.48 114.76 M 81.49 124.44 C 79.81 126.54 80.62 129.42 81.55 131.65 C 82.94 133.04 84.22 134.52 85.47 136.04 C 89.69 133.35 93.08 129.04 93.62 123.95 C 93.89 121.84 91.67 120.77 90.42 119.48 C 89.24 118.98 88.07 118.46 86.90 117.94 C 85.13 120.14 83.16 122.17 81.49 124.44 M 103.02 117.96 C 102.22 119.12 101.40 120.26 100.58 121.42 C 99.05 122.09 97.54 122.82 96.03 123.54 C 99.98 125.65 103.44 128.53 107.24 130.88 C 109.40 130.32 110.84 128.40 112.48 127.01 C 113.05 126.03 113.62 125.05 114.20 124.08 C 110.61 121.78 106.85 119.80 103.02 117.96 M 59.75 126.54 C 64.19 126.50 68.50 125.25 72.54 123.49 C 74.77 122.47 77.29 121.53 78.45 119.18 C 72.07 121.09 65.10 122.32 59.75 126.54 M 51.22 122.76 C 48.11 123.19 45.10 124.12 42.28 125.49 C 38.16 127.01 34.43 129.30 30.87 131.86 C 34.76 132.49 38.80 133.73 42.71 132.80 C 45.09 132.74 47.54 132.80 49.83 132.05 C 52.31 131.41 55.34 131.08 56.88 128.75 C 57.62 126.41 57.85 123.96 58.25 121.55 C 55.89 121.88 53.55 122.28 51.22 122.76 M 31.30 122.66 C 29.99 124.06 28.53 125.75 29.33 127.82 C 30.80 128.25 32.17 127.40 33.53 126.98 C 32.86 125.50 32.13 124.05 31.30 122.66 M 59.92 128.73 C 58.36 130.85 56.48 132.82 53.85 133.52 C 45.84 136.14 37.06 135.67 29.06 133.21 C 28.90 137.05 27.55 140.65 25.75 144.00 C 29.09 145.56 33.10 147.82 33.41 151.94 C 33.83 155.76 30.50 158.28 28.28 160.87 C 29.29 163.31 30.38 165.73 31.52 168.12 C 26.90 173.71 22.74 180.41 23.30 187.98 C 23.99 196.79 25.80 205.49 28.09 214.01 C 28.42 215.90 29.75 217.28 31.04 218.60 C 32.73 212.24 37.52 207.40 40.96 201.95 C 44.97 197.59 49.47 193.21 55.11 191.09 C 55.90 191.35 56.68 191.61 57.46 191.88 C 59.90 183.74 60.22 175.17 60.88 166.76 C 60.97 165.43 62.53 165.06 63.38 164.32 C 64.11 162.65 65.19 161.21 66.91 160.47 C 65.60 157.74 63.87 155.07 63.54 152.00 C 63.30 150.36 65.03 148.74 66.63 149.46 C 69.02 150.49 70.91 152.35 72.90 153.98 C 74.32 153.66 75.74 153.35 77.16 153.03 C 77.27 146.68 81.61 141.92 83.84 136.28 C 81.83 136.30 79.82 136.32 77.80 136.29 C 77.45 135.26 77.09 134.22 76.74 133.19 C 76.24 132.92 75.23 132.38 74.73 132.11 C 74.87 129.16 75.43 126.24 76.40 123.45 C 71.40 126.49 65.64 127.84 59.92 128.73 M 93.62 131.21 C 95.47 132.72 97.32 134.21 99.17 135.73 C 100.33 134.99 101.51 134.26 102.69 133.55 C 102.84 133.08 103.15 132.15 103.31 131.68 C 101.06 129.18 98.43 126.94 95.37 125.53 C 94.93 127.46 94.31 129.35 93.62 131.21 M 19.42 126.87 C 19.88 128.77 20.38 130.66 20.91 132.55 C 23.75 131.46 26.76 130.07 27.38 126.74 C 24.73 126.58 22.07 126.65 19.42 126.87 M 79.01 130.56 C 77.16 132.68 78.57 135.08 81.20 135.24 C 80.82 133.53 80.01 131.98 79.01 130.56 M 92.28 133.43 C 91.30 133.65 89.88 134.68 90.36 135.82 C 91.99 137.14 95.29 133.52 92.28 133.43 M 22.32 138.00 C 22.53 140.22 22.78 142.44 23.09 144.65 C 25.24 141.39 26.75 137.72 27.22 133.82 C 25.57 135.19 23.95 136.60 22.32 138.00 M 94.16 136.33 C 93.13 137.65 95.45 139.13 96.40 137.91 C 97.42 136.59 95.11 135.13 94.16 136.33 M 84.88 138.54 C 84.40 139.73 83.91 140.91 83.43 142.10 C 85.11 142.04 86.79 141.97 88.48 141.90 L 88.59 142.55 C 89.76 142.80 90.92 143.05 92.09 143.30 C 93.45 141.53 93.09 139.50 92.15 137.64 C 89.72 137.93 87.30 138.22 84.88 138.54 M 81.95 143.80 C 81.26 145.39 80.57 146.97 79.89 148.57 C 81.51 148.79 83.13 149.04 84.75 149.30 C 86.07 149.99 87.58 151.55 89.12 150.43 C 90.76 149.05 90.33 146.79 90.40 144.92 C 89.29 144.51 88.18 144.09 87.07 143.68 C 85.36 143.72 83.65 143.75 81.95 143.80 M 24.69 153.81 C 25.79 159.92 22.11 165.10 19.09 170.01 C 17.80 172.00 16.43 173.94 14.85 175.71 C 11.85 178.83 14.19 183.09 15.10 186.60 C 18.49 195.25 20.53 204.54 25.56 212.45 C 23.76 203.42 21.31 194.43 21.05 185.18 C 21.29 183.81 21.54 182.44 21.77 181.07 C 23.26 177.56 24.25 173.79 26.59 170.69 L 27.15 170.66 C 30.36 168.08 27.18 164.95 26.38 161.99 C 26.70 160.33 27.89 159.06 28.80 157.71 C 30.01 155.75 32.10 153.58 31.02 151.11 C 29.80 148.60 27.06 147.47 24.78 146.16 C 23.90 148.46 22.65 151.82 24.69 153.81 M 89.75 154.72 C 88.93 157.29 88.00 159.81 86.94 162.29 C 95.65 158.20 104.97 154.74 112.34 148.41 C 104.32 148.21 96.90 151.50 89.75 154.72 M 79.20 150.29 C 79.09 150.89 78.86 152.08 78.75 152.68 C 81.53 152.38 84.33 152.36 87.11 152.61 C 84.57 151.56 82.03 150.21 79.20 150.29 M 65.20 151.06 C 66.04 154.57 67.81 157.71 69.47 160.87 C 70.05 158.85 70.64 156.83 71.29 154.83 C 69.42 153.33 67.44 151.96 65.20 151.06 M 73.26 156.33 C 71.63 158.24 72.71 160.89 72.97 163.09 C 73.40 164.69 73.81 166.29 74.20 167.90 C 80.64 166.86 85.98 161.69 87.13 155.27 C 86.46 155.09 85.10 154.74 84.43 154.56 C 80.67 154.76 76.80 154.92 73.26 156.33 M 95.14 161.51 C 97.78 160.79 101.38 160.58 102.45 157.52 C 99.67 158.08 96.91 159.18 95.14 161.51 M 85.97 164.58 C 83.26 165.20 81.62 167.92 78.87 168.46 C 75.99 168.95 73.00 168.86 70.22 169.92 C 70.67 171.93 71.33 173.96 71.13 176.04 C 69.94 183.30 66.62 191.28 59.13 193.94 C 59.92 195.99 60.56 198.10 61.44 200.13 C 53.95 208.36 45.44 215.75 39.09 224.97 C 34.58 231.17 31.49 238.22 28.37 245.17 C 35.90 244.54 43.48 245.03 50.98 244.00 C 61.98 242.72 73.06 243.58 84.08 242.65 C 93.06 242.03 102.07 242.29 111.06 242.04 C 119.68 241.15 128.35 240.49 137.03 240.64 C 144.71 240.51 152.32 241.82 160.00 241.77 C 155.50 236.05 151.96 229.56 146.70 224.46 C 138.56 216.54 131.52 207.55 123.03 199.97 C 121.07 197.87 118.02 196.54 117.26 193.55 C 112.01 192.45 107.58 188.99 103.64 185.52 C 97.70 179.09 92.12 170.84 92.84 161.71 C 90.68 162.95 88.39 163.97 85.97 164.58 M 101.08 162.49 C 99.12 162.90 97.15 163.25 95.17 163.55 C 95.90 173.27 102.19 182.01 109.96 187.55 C 112.49 189.21 115.08 190.91 118.13 191.41 C 112.80 182.37 111.40 171.72 106.54 162.47 C 104.76 161.88 102.89 162.31 101.08 162.49 M 65.85 163.10 C 65.08 165.83 68.50 166.95 70.03 168.59 C 70.72 167.81 71.42 167.03 72.13 166.26 C 70.50 164.42 68.59 162.36 65.85 163.10 M 62.74 166.40 C 62.45 172.19 61.65 177.94 61.12 183.71 C 60.36 186.20 59.72 188.73 59.18 191.28 C 61.06 190.21 62.91 188.95 64.05 187.06 C 67.02 182.26 69.34 176.44 67.68 170.77 C 66.66 168.67 65.16 166.83 62.74 166.40 M 120.61 194.18 C 125.99 199.11 131.55 203.87 136.39 209.36 C 138.95 212.12 141.36 215.02 144.04 217.69 C 147.32 221.17 150.83 224.47 153.64 228.36 C 156.87 232.82 159.66 237.58 162.83 242.08 C 161.65 237.42 159.83 232.97 158.48 228.37 C 156.13 220.53 151.96 213.44 148.07 206.30 C 147.17 204.76 146.29 203.21 145.42 201.65 C 142.87 197.64 140.07 192.84 135.03 191.78 C 130.15 191.14 124.89 191.54 120.61 194.18 M 43.12 202.94 C 39.32 208.67 34.70 214.00 32.39 220.58 C 29.28 227.30 27.69 234.64 27.50 242.03 C 29.63 236.78 31.63 231.44 34.65 226.63 C 37.36 221.95 40.88 217.84 44.00 213.44 C 48.79 209.25 52.65 204.09 57.66 200.10 C 57.62 197.50 56.57 195.14 55.06 193.07 C 50.50 195.56 46.64 199.17 43.12 202.94 Z" />
<path fill="#a2cea4" opacity="1.00" d=" M 46.69 32.69 C 56.39 24.87 66.35 17.25 77.37 11.36 C 69.86 17.20 62.54 23.27 55.03 29.09 C 40.07 42.44 26.42 57.96 18.23 76.45 C 15.88 75.78 13.54 75.09 11.21 74.33 C 15.93 64.60 23.42 56.64 30.40 48.50 C 35.24 42.65 41.08 37.77 46.69 32.69 Z" />
<path fill="#6d7b90" opacity="1.00" d=" M 83.43 46.86 C 86.65 53.52 89.90 60.17 92.64 67.04 C 91.67 68.57 90.70 70.11 89.82 71.69 C 86.95 63.63 84.00 55.48 83.43 46.86 Z" />
<path fill="#515a77" opacity="1.00" d=" M 92.64 67.04 C 94.97 73.15 95.62 79.70 96.94 86.06 C 94.55 81.32 90.50 77.05 89.82 71.69 C 90.70 70.11 91.67 68.57 92.64 67.04 Z" />
<path fill="#94c5a0" opacity="1.00" d=" M 10.89 74.23 L 11.21 74.33 C 13.54 75.09 15.88 75.78 18.23 76.45 C 17.26 78.72 16.33 81.00 15.55 83.34 C 14.02 83.70 12.10 83.65 11.29 85.29 C 8.84 89.05 6.12 92.64 2.62 95.49 C 3.35 87.76 7.21 80.90 10.89 74.23 Z" />
<path fill="#74b09b" opacity="1.00" d=" M 11.29 85.29 C 12.10 83.65 14.02 83.70 15.55 83.34 L 14.97 84.47 C 12.70 88.61 9.61 92.28 7.65 96.58 C 8.06 99.70 9.61 102.60 10.45 105.63 C 7.29 102.72 4.78 99.18 2.62 95.49 C 6.12 92.64 8.84 89.05 11.29 85.29 Z" />
<path fill="#3b808c" opacity="1.00" d=" M 7.65 96.58 C 9.61 92.28 12.70 88.61 14.97 84.47 C 14.72 87.67 13.51 90.69 13.14 93.86 C 15.62 97.10 18.98 99.62 22.04 102.32 C 21.61 105.33 19.64 107.69 18.42 110.38 C 17.40 112.32 19.19 114.01 20.17 115.51 C 19.60 115.93 18.47 116.77 17.90 117.19 C 15.89 113.03 13.01 109.43 10.45 105.63 C 9.61 102.60 8.06 99.70 7.65 96.58 Z" />
<path fill="#352f53" opacity="1.00" d=" M 93.54 90.76 C 96.07 89.16 98.87 86.65 102.09 87.68 C 105.06 88.33 105.15 91.89 105.70 94.27 C 103.14 95.72 100.50 97.01 97.77 98.08 C 99.71 95.85 101.11 93.24 100.70 90.21 C 98.93 90.63 97.21 91.36 95.40 91.51 C 94.94 91.32 94.01 90.95 93.54 90.76 Z" />
<path fill="#50526c" opacity="1.00" d=" M 87.22 97.29 C 88.47 94.45 90.96 92.36 93.54 90.76 C 94.01 90.95 94.94 91.32 95.40 91.51 C 93.41 93.99 91.30 96.56 90.79 99.81 C 92.68 99.35 94.56 98.94 96.45 98.50 C 93.99 100.33 91.43 102.04 88.98 103.89 C 88.09 101.83 86.07 99.63 87.22 97.29 Z" />
<path fill="#863174" opacity="1.00" d=" M 96.14 92.84 C 97.52 92.19 98.89 91.54 100.27 90.91 C 100.24 93.64 98.28 95.52 96.32 97.13 C 96.27 96.14 96.19 94.16 96.15 93.17 L 96.14 92.84 Z" />
<path fill="#cb5180" opacity="1.00" d=" M 92.44 98.09 C 93.47 96.30 94.55 94.51 96.15 93.17 C 96.19 94.16 96.27 96.14 96.32 97.13 C 95.02 97.45 93.73 97.77 92.44 98.09 Z" />
<path fill="#2a263f" opacity="1.00" d=" M 103.35 98.14 C 106.41 96.67 109.96 94.07 113.44 95.70 C 110.42 97.60 106.79 97.78 103.35 98.14 Z" />
<path fill="#7c8b9e" opacity="1.00" d=" M 56.46 97.50 C 65.30 93.58 75.35 96.08 84.52 97.35 C 81.04 97.61 77.54 97.61 74.12 98.35 C 68.22 98.53 62.35 97.75 56.46 97.50 Z" />
<path fill="#575a72" opacity="1.00" d=" M 89.96 104.84 C 101.50 100.52 113.63 97.58 125.94 96.66 C 131.24 96.44 136.54 96.06 141.84 95.77 C 140.34 97.42 138.50 98.86 136.26 99.27 C 129.25 99.65 122.30 100.69 115.30 101.14 C 109.19 101.65 102.78 101.36 97.18 104.25 C 94.87 105.04 92.36 104.73 89.96 104.84 Z" />
<path fill="#362e55" opacity="1.00" d=" M 115.30 101.14 C 122.30 100.69 129.25 99.65 136.26 99.27 C 131.39 103.08 124.94 103.02 119.07 103.42 C 111.77 103.58 104.48 104.75 97.18 104.25 C 102.78 101.36 109.19 101.65 115.30 101.14 Z" />
<path fill="#312950" opacity="1.00" d=" M 122.23 105.22 C 127.30 104.78 132.33 103.79 136.93 101.55 C 133.91 105.53 129.45 108.10 124.88 109.91 C 123.31 110.82 121.66 110.08 120.29 109.21 C 120.94 107.88 121.58 106.55 122.23 105.22 Z" />
<path fill="#7c8b9e" opacity="1.00" d=" M 115.40 105.34 C 117.14 105.34 118.89 105.27 120.64 105.26 C 118.70 107.27 118.35 109.92 118.64 112.58 C 117.61 112.55 115.57 112.49 114.55 112.46 C 113.91 110.03 114.19 107.55 115.40 105.34 Z" />
<path fill="#565971" opacity="1.00" d=" M 75.85 109.75 C 78.73 107.84 81.94 106.53 85.15 105.25 C 86.06 106.36 88.40 107.22 87.52 109.04 C 85.85 111.20 83.12 113.09 80.27 112.63 C 78.61 111.99 77.29 110.75 75.85 109.75 Z" />
<path fill="#322c50" opacity="1.00" d=" M 89.76 106.47 C 93.34 105.97 96.97 106.12 100.57 106.24 C 101.43 110.05 102.67 114.18 101.19 118.00 C 100.43 120.26 98.10 121.18 96.21 122.28 C 93.97 119.01 90.53 117.08 86.73 116.21 C 89.84 116.02 92.95 115.84 96.07 115.69 C 96.28 113.00 96.24 110.29 95.80 107.62 C 94.11 107.39 92.43 107.15 90.78 106.77 L 89.76 106.47 Z" />
<path fill="#352f4f" opacity="1.00" d=" M 102.17 106.21 C 104.40 106.06 106.63 105.90 108.86 105.74 C 107.62 108.22 105.01 111.20 106.90 114.04 C 109.17 117.30 113.64 116.58 117.08 116.85 C 116.51 118.73 115.90 120.59 115.24 122.44 C 111.43 120.16 107.50 118.07 103.37 116.41 C 103.24 112.99 103.11 109.53 102.17 106.21 Z" />
<path fill="#444261" opacity="1.00" d=" M 107.73 111.04 C 108.39 108.30 109.94 105.28 113.20 105.36 C 112.49 108.55 111.29 112.29 113.71 115.07 C 111.48 114.36 107.80 114.11 107.73 111.04 Z" />
<path fill="#54566e" opacity="1.00" d=" M 90.78 106.77 C 92.43 107.15 94.11 107.39 95.80 107.62 C 96.24 110.29 96.28 113.00 96.07 115.69 C 92.95 115.84 89.84 116.02 86.73 116.21 L 85.62 116.27 C 86.76 112.75 90.15 110.54 90.78 106.77 Z" />
<path fill="#2d2848" opacity="1.00" d=" M 83.48 114.76 C 84.16 115.75 84.77 116.77 85.46 117.75 C 82.44 120.96 78.43 124.14 78.76 129.04 C 78.31 129.29 77.42 129.78 76.98 130.02 C 77.54 124.43 79.51 118.86 83.48 114.76 Z" />
<path fill="#275876" opacity="1.00" d=" M 17.90 117.19 C 18.47 116.77 19.60 115.93 20.17 115.51 C 22.67 117.75 25.71 120.03 25.99 123.67 C 23.92 123.88 21.85 124.09 19.78 124.30 C 19.72 121.80 18.94 119.43 17.90 117.19 Z" />
<path fill="#8999a6" opacity="1.00" d=" M 81.49 124.44 C 83.16 122.17 85.13 120.14 86.90 117.94 C 88.07 118.46 89.24 118.98 90.42 119.48 C 87.61 123.63 85.68 128.56 81.55 131.65 C 80.62 129.42 79.81 126.54 81.49 124.44 Z" />
<path fill="#444260" opacity="1.00" d=" M 103.02 117.96 C 106.85 119.80 110.61 121.78 114.20 124.08 C 113.62 125.05 113.05 126.03 112.48 127.01 C 108.83 124.50 104.48 123.44 100.58 121.42 C 101.40 120.26 102.22 119.12 103.02 117.96 Z" />
<path fill="#3d385c" opacity="1.00" d=" M 59.75 126.54 C 65.10 122.32 72.07 121.09 78.45 119.18 C 77.29 121.53 74.77 122.47 72.54 123.49 C 68.50 125.25 64.19 126.50 59.75 126.54 Z" />
<path fill="#495271" opacity="1.00" d=" M 90.42 119.48 C 91.67 120.77 93.89 121.84 93.62 123.95 C 93.08 129.04 89.69 133.35 85.47 136.04 C 84.22 134.52 82.94 133.04 81.55 131.65 C 85.68 128.56 87.61 123.63 90.42 119.48 Z" />
<path fill="#30294f" opacity="1.00" d=" M 96.03 123.54 C 97.54 122.82 99.05 122.09 100.58 121.42 C 104.48 123.44 108.83 124.50 112.48 127.01 C 110.84 128.40 109.40 130.32 107.24 130.88 C 103.44 128.53 99.98 125.65 96.03 123.54 Z" />
<path fill="#221733" opacity="1.00" d=" M 51.22 122.76 C 53.55 122.28 55.89 121.88 58.25 121.55 C 57.85 123.96 57.62 126.41 56.88 128.75 C 55.34 131.08 52.31 131.41 49.83 132.05 C 51.64 129.26 51.82 125.94 51.22 122.76 Z" />
<path fill="#3d3c56" opacity="1.00" d=" M 31.30 122.66 C 32.13 124.05 32.86 125.50 33.53 126.98 C 32.17 127.40 30.80 128.25 29.33 127.82 C 28.53 125.75 29.99 124.06 31.30 122.66 Z" />
<path fill="#2e2747" opacity="1.00" d=" M 42.28 125.49 C 45.10 124.12 48.11 123.19 51.22 122.76 C 51.82 125.94 51.64 129.26 49.83 132.05 C 47.54 132.80 45.09 132.74 42.71 132.80 C 43.90 132.21 45.07 131.57 46.23 130.93 C 45.38 128.81 44.12 126.89 42.28 125.49 Z" />
<path fill="#3c3857" opacity="1.00" d=" M 30.87 131.86 C 34.43 129.30 38.16 127.01 42.28 125.49 C 44.12 126.89 45.38 128.81 46.23 130.93 C 45.07 131.57 43.90 132.21 42.71 132.80 C 38.80 133.73 34.76 132.49 30.87 131.86 Z" />
<path fill="#221837" opacity="1.00" d=" M 93.62 131.21 C 94.31 129.35 94.93 127.46 95.37 125.53 C 96.68 129.09 100.00 131.13 102.69 133.55 C 101.51 134.26 100.33 134.99 99.17 135.73 C 97.32 134.21 95.47 132.72 93.62 131.21 Z" />
<path fill="#332d4d" opacity="1.00" d=" M 95.37 125.53 C 98.43 126.94 101.06 129.18 103.31 131.68 C 103.15 132.15 102.84 133.08 102.69 133.55 C 100.00 131.13 96.68 129.09 95.37 125.53 Z" />
<path fill="#474563" opacity="1.00" d=" M 19.42 126.87 C 22.07 126.65 24.73 126.58 27.38 126.74 C 26.76 130.07 23.75 131.46 20.91 132.55 C 20.38 130.66 19.88 128.77 19.42 126.87 Z" />
<path fill="#241e3b" opacity="1.00" d=" M 79.01 130.56 C 80.01 131.98 80.82 133.53 81.20 135.24 C 78.57 135.08 77.16 132.68 79.01 130.56 Z" />
<path fill="#241d3a" opacity="1.00" d=" M 92.28 133.43 C 95.29 133.52 91.99 137.14 90.36 135.82 C 89.88 134.68 91.30 133.65 92.28 133.43 Z" />
<path fill="#1a3b5e" opacity="1.00" d=" M 22.32 138.00 C 23.95 136.60 25.57 135.19 27.22 133.82 C 26.75 137.72 25.24 141.39 23.09 144.65 C 22.78 142.44 22.53 140.22 22.32 138.00 Z" />
<path fill="#271e40" opacity="1.00" d=" M 94.16 136.33 C 95.11 135.13 97.42 136.59 96.40 137.91 C 95.45 139.13 93.13 137.65 94.16 136.33 Z" />
<path fill="#2d2549" opacity="1.00" d=" M 84.88 138.54 C 87.30 138.22 89.72 137.93 92.15 137.64 C 93.09 139.50 93.45 141.53 92.09 143.30 C 90.92 143.05 89.76 142.80 88.59 142.55 L 88.48 141.90 C 88.34 141.19 88.08 139.75 87.95 139.03 C 87.18 138.90 85.65 138.66 84.88 138.54 Z" />
<path fill="#423f5c" opacity="1.00" d=" M 84.88 138.54 C 85.65 138.66 87.18 138.90 87.95 139.03 C 88.08 139.75 88.34 141.19 88.48 141.90 C 86.79 141.97 85.11 142.04 83.43 142.10 C 83.91 140.91 84.40 139.73 84.88 138.54 Z" />
<path fill="#484762" opacity="1.00" d=" M 81.95 143.80 C 83.65 143.75 85.36 143.72 87.07 143.68 C 86.31 145.56 85.54 147.43 84.75 149.30 C 83.13 149.04 81.51 148.79 79.89 148.57 C 80.57 146.97 81.26 145.39 81.95 143.80 Z" />
<path fill="#2f274c" opacity="1.00" d=" M 87.07 143.68 C 88.18 144.09 89.29 144.51 90.40 144.92 C 90.33 146.79 90.76 149.05 89.12 150.43 C 87.58 151.55 86.07 149.99 84.75 149.30 C 85.54 147.43 86.31 145.56 87.07 143.68 Z" />
<path fill="#1e446a" opacity="1.00" d=" M 24.69 153.81 C 22.65 151.82 23.90 148.46 24.78 146.16 C 27.06 147.47 29.80 148.60 31.02 151.11 C 32.10 153.58 30.01 155.75 28.80 157.71 C 27.44 156.40 26.05 155.12 24.69 153.81 Z" />
<path fill="#30294f" opacity="1.00" d=" M 89.75 154.72 C 96.90 151.50 104.32 148.21 112.34 148.41 C 104.97 154.74 95.65 158.20 86.94 162.29 C 88.00 159.81 88.93 157.29 89.75 154.72 Z" />
<path fill="#4e4e69" opacity="1.00" d=" M 79.20 150.29 C 82.03 150.21 84.57 151.56 87.11 152.61 C 84.33 152.36 81.53 152.38 78.75 152.68 C 78.86 152.08 79.09 150.89 79.20 150.29 Z" />
<path fill="#565972" opacity="1.00" d=" M 65.20 151.06 C 67.44 151.96 69.42 153.33 71.29 154.83 C 70.64 156.83 70.05 158.85 69.47 160.87 C 67.81 157.71 66.04 154.57 65.20 151.06 Z" />
<path fill="#2f6b82" opacity="1.00" d=" M 24.69 153.81 C 26.05 155.12 27.44 156.40 28.80 157.71 C 27.89 159.06 26.70 160.33 26.38 161.99 C 27.18 164.95 30.36 168.08 27.15 170.66 L 26.59 170.69 C 26.22 170.72 25.48 170.77 25.11 170.80 C 24.21 171.49 23.35 172.23 22.48 172.96 C 21.35 171.97 20.21 171.00 19.09 170.01 C 22.11 165.10 25.79 159.92 24.69 153.81 Z" />
<path fill="#4c4d67" opacity="1.00" d=" M 73.26 156.33 C 76.80 154.92 80.67 154.76 84.43 154.56 C 81.47 158.43 77.31 161.02 72.97 163.09 C 72.71 160.89 71.63 158.24 73.26 156.33 Z" />
<path fill="#30294d" opacity="1.00" d=" M 84.43 154.56 C 85.10 154.74 86.46 155.09 87.13 155.27 C 85.98 161.69 80.64 166.86 74.20 167.90 C 73.81 166.29 73.40 164.69 72.97 163.09 C 77.31 161.02 81.47 158.43 84.43 154.56 Z" />
<path fill="#312d49" opacity="1.00" d=" M 95.14 161.51 C 96.91 159.18 99.67 158.08 102.45 157.52 C 101.38 160.58 97.78 160.79 95.14 161.51 Z" />
<path fill="#3d3a5b" opacity="1.00" d=" M 101.08 162.49 C 102.89 162.31 104.76 161.88 106.54 162.47 C 111.40 171.72 112.80 182.37 118.13 191.41 C 115.08 190.91 112.49 189.21 109.96 187.55 C 108.16 178.84 105.11 170.41 101.08 162.49 Z" />
<path fill="#332e4f" opacity="1.00" d=" M 65.85 163.10 C 68.59 162.36 70.50 164.42 72.13 166.26 C 71.42 167.03 70.72 167.81 70.03 168.59 C 68.50 166.95 65.08 165.83 65.85 163.10 Z" />
<path fill="#565971" opacity="1.00" d=" M 95.17 163.55 C 97.15 163.25 99.12 162.90 101.08 162.49 C 105.11 170.41 108.16 178.84 109.96 187.55 C 102.19 182.01 95.90 173.27 95.17 163.55 Z" />
<path fill="#4f516b" opacity="1.00" d=" M 62.74 166.40 C 65.16 166.83 66.66 168.67 67.68 170.77 C 66.38 175.44 65.66 180.94 61.12 183.71 C 61.65 177.94 62.45 172.19 62.74 166.40 Z" />
<path fill="#568f8f" opacity="1.00" d=" M 19.09 170.01 C 20.21 171.00 21.35 171.97 22.48 172.96 C 23.35 172.23 24.21 171.49 25.11 170.80 C 25.48 170.77 26.22 170.72 26.59 170.69 C 24.25 173.79 23.26 177.56 21.77 181.07 C 20.55 181.63 19.32 182.17 18.08 182.71 C 18.22 180.77 18.38 178.83 18.53 176.89 C 17.30 176.50 16.07 176.10 14.85 175.71 C 16.43 173.94 17.80 172.00 19.09 170.01 Z" />
<path fill="#30294e" opacity="1.00" d=" M 67.68 170.77 C 69.34 176.44 67.02 182.26 64.05 187.06 C 62.91 188.95 61.06 190.21 59.18 191.28 C 59.72 188.73 60.36 186.20 61.12 183.71 C 65.66 180.94 66.38 175.44 67.68 170.77 Z" />
<path fill="#71ad9c" opacity="1.00" d=" M 14.85 175.71 C 16.07 176.10 17.30 176.50 18.53 176.89 C 18.38 178.83 18.22 180.77 18.08 182.71 C 19.32 182.17 20.55 181.63 21.77 181.07 C 21.54 182.44 21.29 183.81 21.05 185.18 C 19.88 185.95 18.69 186.68 17.53 187.46 C 16.72 187.15 15.92 186.87 15.10 186.60 C 14.19 183.09 11.85 178.83 14.85 175.71 Z" />
<path fill="#94bfa7" opacity="1.00" d=" M 17.53 187.46 C 18.69 186.68 19.88 185.95 21.05 185.18 C 21.31 194.43 23.76 203.42 25.56 212.45 C 20.53 204.54 18.49 195.25 15.10 186.60 C 15.92 186.87 16.72 187.15 17.53 187.46 Z" />
<path fill="#2a2243" opacity="1.00" d=" M 120.61 194.18 C 124.89 191.54 130.15 191.14 135.03 191.78 C 140.07 192.84 142.87 197.64 145.42 201.65 C 141.93 203.60 138.51 205.86 136.39 209.36 C 131.55 203.87 125.99 199.11 120.61 194.18 Z" />
<path fill="#332c51" opacity="1.00" d=" M 43.12 202.94 C 46.64 199.17 50.50 195.56 55.06 193.07 C 56.57 195.14 57.62 197.50 57.66 200.10 C 52.65 204.09 48.79 209.25 44.00 213.44 C 44.65 209.93 44.98 206.16 43.12 202.94 Z" />
<path fill="#403d5b" opacity="1.00" d=" M 136.39 209.36 C 138.51 205.86 141.93 203.60 145.42 201.65 C 146.29 203.21 147.17 204.76 148.07 206.30 C 146.96 207.05 145.85 207.81 144.75 208.57 C 144.97 211.62 144.75 214.70 144.04 217.69 C 141.36 215.02 138.95 212.12 136.39 209.36 Z" />
<path fill="#4e4e69" opacity="1.00" d=" M 32.39 220.58 C 34.70 214.00 39.32 208.67 43.12 202.94 C 44.98 206.16 44.65 209.93 44.00 213.44 C 40.88 217.84 37.36 221.95 34.65 226.63 C 31.63 231.44 29.63 236.78 27.50 242.03 C 27.69 234.64 29.28 227.30 32.39 220.58 Z" />
<path fill="#4a4a65" opacity="1.00" d=" M 144.75 208.57 C 145.85 207.81 146.96 207.05 148.07 206.30 C 151.96 213.44 156.13 220.53 158.48 228.37 C 159.83 232.97 161.65 237.42 162.83 242.08 C 159.66 237.58 156.87 232.82 153.64 228.36 C 150.83 224.47 147.32 221.17 144.04 217.69 C 144.75 214.70 144.97 211.62 144.75 208.57 Z" />
</svg>
