<?xml version="1.0" encoding="UTF-8" ?>
<!DOCTYPE svg PUBLIC "-//W3C//DTD SVG 1.1//EN" "http://www.w3.org/Graphics/SVG/1.1/DTD/svg11.dtd">
<svg width="106pt" height="148pt" viewBox="0 0 106 148" version="1.1" xmlns="http://www.w3.org/2000/svg">
<path fill="#000000" opacity="1.00" d=" M 52.74 33.68 C 65.89 17.18 84.30 4.29 105.25 0.29 C 105.44 3.13 106.03 6.04 105.33 8.87 C 102.35 20.92 97.36 33.21 87.51 41.30 C 78.80 48.40 68.87 54.54 57.81 57.07 C 59.98 59.24 62.60 61.63 62.50 64.98 C 62.48 70.72 64.79 76.74 62.14 82.22 C 60.83 85.95 56.78 87.43 54.56 90.47 C 52.40 93.45 50.10 96.41 46.94 98.39 C 46.72 95.85 46.70 93.30 46.72 90.75 C 45.64 90.63 43.49 90.40 42.41 90.29 C 43.41 92.63 44.11 95.09 44.49 97.61 C 39.72 96.53 35.85 92.17 35.57 87.24 C 33.97 87.06 32.36 86.86 30.77 86.63 C 31.33 84.89 30.45 83.62 29.10 82.60 C 30.85 82.68 32.32 82.10 33.52 80.85 C 31.89 80.73 30.26 80.61 28.64 80.48 C 28.24 79.98 27.44 78.97 27.04 78.46 C 27.50 76.24 27.97 73.98 29.13 72.00 C 30.53 70.87 32.00 69.83 33.45 68.78 C 31.58 66.96 29.43 65.44 26.91 64.67 C 26.95 65.36 27.02 66.75 27.06 67.44 C 27.07 68.27 27.09 69.92 27.10 70.74 C 24.10 69.56 21.95 67.11 20.21 64.49 C 19.80 64.55 18.98 64.67 18.57 64.73 L 18.57 63.25 C 18.14 63.26 17.28 63.27 16.85 63.28 C 17.42 64.08 18.01 64.88 18.61 65.67 L 17.99 66.84 C 18.79 67.52 19.59 68.20 20.38 68.90 C 18.50 71.84 16.87 75.46 17.92 78.99 C 18.76 81.87 21.59 83.41 23.96 84.89 L 24.61 84.91 C 26.00 84.76 27.39 84.55 28.77 84.31 C 29.16 85.63 29.59 86.94 30.08 88.23 C 29.70 88.47 28.94 88.96 28.57 89.20 C 28.54 88.49 28.49 87.06 28.47 86.34 C 27.51 86.29 25.60 86.17 24.65 86.12 C 24.58 86.88 24.45 88.40 24.38 89.17 C 23.86 88.68 22.83 87.71 22.31 87.23 C 22.03 89.53 21.60 92.01 19.56 93.45 C 18.12 94.64 15.55 96.69 13.84 95.00 C 16.29 91.91 19.15 89.04 20.36 85.17 C 18.83 83.46 17.01 81.81 16.39 79.51 C 15.34 76.43 16.65 73.28 17.38 70.30 C 11.22 67.53 4.59 64.93 0.00 59.77 L 0.00 58.30 C 5.96 60.11 11.44 63.23 16.27 67.15 C 15.46 64.02 15.68 60.34 13.29 57.86 C 10.00 54.17 7.27 50.05 4.76 45.81 C 6.51 45.17 8.50 44.63 10.24 45.66 C 15.21 48.29 19.33 52.25 23.27 56.21 C 23.51 52.99 22.84 48.96 25.90 46.81 C 26.86 47.95 27.82 49.08 28.78 50.22 C 27.05 42.88 27.88 35.19 30.34 28.12 C 32.07 23.23 33.70 18.06 37.06 14.02 C 38.73 12.57 40.76 14.25 41.03 16.04 C 42.89 25.30 40.87 34.73 38.90 43.81 C 41.56 43.24 44.33 42.98 46.82 41.87 C 49.16 39.44 50.59 36.28 52.74 33.68 M 90.49 8.14 L 90.35 8.38 C 83.02 11.54 76.08 15.64 70.01 20.85 C 60.67 28.62 51.96 37.70 47.12 49.02 C 47.94 50.50 49.97 50.84 51.26 51.83 L 50.86 52.10 C 51.33 52.15 52.26 52.25 52.73 52.29 C 54.44 53.27 56.20 54.14 57.96 55.01 C 65.62 51.68 72.86 47.43 79.74 42.71 C 88.86 36.55 96.26 27.35 99.12 16.63 L 99.48 16.43 C 101.05 12.24 102.37 7.96 103.19 3.56 C 98.89 4.91 94.73 6.66 90.49 8.14 M 35.90 21.93 C 33.06 29.15 30.54 36.71 30.76 44.57 C 30.53 45.97 30.41 47.39 30.42 48.82 C 32.20 47.52 34.11 46.36 35.75 44.87 C 37.00 38.92 38.09 32.91 38.57 26.84 C 38.83 23.85 38.45 20.85 38.31 17.86 C 37.26 19.05 36.49 20.45 35.90 21.93 M 28.14 53.46 C 27.61 53.03 26.55 52.17 26.02 51.74 C 25.63 53.88 25.00 55.96 24.29 58.02 C 26.84 59.32 30.11 58.47 32.85 59.62 C 34.43 60.32 36.03 61.01 37.62 61.70 C 38.85 62.89 40.05 64.11 41.23 65.35 C 44.15 70.06 44.49 76.16 42.32 81.23 C 45.65 78.10 46.28 73.23 48.58 69.43 C 49.31 69.25 50.77 68.91 51.50 68.74 C 51.15 67.68 50.83 66.61 50.53 65.53 C 49.40 62.69 51.89 60.26 53.03 57.87 C 53.50 57.57 54.43 56.98 54.89 56.68 C 51.83 54.78 48.52 53.32 45.43 51.46 C 45.16 50.35 44.88 49.23 44.64 48.12 C 44.81 47.48 45.17 46.20 45.34 45.56 C 39.31 47.36 33.15 49.54 28.14 53.46 M 7.95 46.95 C 11.23 51.92 15.88 55.78 19.43 60.56 C 21.34 62.73 23.05 65.07 24.96 67.24 C 24.32 64.10 23.17 61.08 21.57 58.30 C 17.48 54.05 13.26 49.65 7.95 46.95 M 25.91 60.66 C 26.06 61.31 26.37 62.62 26.52 63.27 C 29.61 63.56 32.80 64.85 34.43 67.65 C 35.12 67.80 36.49 68.11 37.18 68.26 C 37.84 69.49 38.49 70.74 39.19 71.95 C 38.97 73.38 39.33 75.07 38.31 76.26 C 36.30 78.94 35.10 82.22 32.13 84.08 C 32.60 84.43 33.53 85.11 33.99 85.45 C 37.13 82.68 41.54 80.30 41.44 75.50 C 41.62 72.63 41.36 69.63 39.86 67.10 C 36.73 62.57 31.15 60.94 25.91 60.66 M 52.46 63.18 C 53.36 65.77 54.63 68.29 54.68 71.09 C 53.04 71.67 51.31 71.75 49.59 71.81 C 49.22 73.11 48.87 74.41 48.54 75.72 C 47.93 77.11 47.34 78.50 46.73 79.89 L 45.81 79.11 C 44.60 80.42 44.16 82.16 43.64 83.81 C 42.38 83.41 41.13 82.98 39.88 82.54 C 40.08 83.17 40.49 84.44 40.70 85.07 C 41.73 85.63 43.67 86.41 42.47 87.88 C 46.67 87.20 51.43 88.81 55.15 86.19 C 57.01 84.87 59.79 83.41 59.80 80.87 C 61.09 80.33 61.49 79.44 61.00 78.21 C 59.79 78.10 59.17 78.69 59.16 79.97 C 54.46 82.95 49.83 86.83 43.97 86.87 C 44.04 86.31 44.20 85.20 44.27 84.64 C 46.24 84.31 48.03 83.43 49.76 82.48 C 50.71 81.94 51.68 81.41 52.64 80.88 L 52.62 80.69 C 55.50 79.20 59.34 77.15 59.14 73.36 C 59.93 68.57 59.63 62.91 55.13 60.00 C 54.24 61.06 53.35 62.13 52.46 63.18 M 32.24 71.42 C 29.54 73.17 28.97 76.52 28.50 79.44 C 29.65 79.13 30.81 78.84 31.97 78.56 C 33.92 77.77 35.88 76.77 37.10 74.97 C 38.03 73.07 36.92 71.12 36.12 69.42 C 34.83 70.08 33.53 70.75 32.24 71.42 M 37.72 86.08 C 37.94 88.30 38.22 90.71 39.74 92.47 C 40.16 92.91 41.02 94.36 41.70 93.41 C 40.27 91.02 39.55 88.22 37.72 86.08 M 48.57 91.53 C 48.50 92.08 48.35 93.20 48.28 93.76 C 48.80 93.68 49.84 93.53 50.36 93.46 C 50.44 92.90 50.61 91.78 50.69 91.23 C 50.16 91.30 49.10 91.45 48.57 91.53 Z" />
<path fill="#b0848b" opacity="1.00" d=" M 90.49 8.14 C 94.73 6.66 98.89 4.91 103.19 3.56 C 102.37 7.96 101.05 12.24 99.48 16.43 L 99.12 16.63 C 94.44 18.87 91.66 23.47 87.80 26.76 C 81.72 32.04 75.70 37.42 69.18 42.17 C 63.89 45.84 58.91 50.17 52.73 52.29 C 52.26 52.25 51.33 52.15 50.86 52.10 L 51.26 51.83 C 63.62 44.55 71.34 32.15 80.25 21.35 C 83.48 16.91 87.74 13.26 90.35 8.38 L 90.49 8.14 Z" />
<path fill="#fbfec1" opacity="1.00" d=" M 70.01 20.85 C 76.08 15.64 83.02 11.54 90.35 8.38 C 87.74 13.26 83.48 16.91 80.25 21.35 C 71.34 32.15 63.62 44.55 51.26 51.83 C 49.97 50.84 47.94 50.50 47.12 49.02 C 51.96 37.70 60.67 28.62 70.01 20.85 Z" />
<path fill="#a86b7f" opacity="1.00" d=" M 87.80 26.76 C 91.66 23.47 94.44 18.87 99.12 16.63 C 96.26 27.35 88.86 36.55 79.74 42.71 C 72.86 47.43 65.62 51.68 57.96 55.01 C 56.20 54.14 54.44 53.27 52.73 52.29 C 58.91 50.17 63.89 45.84 69.18 42.17 C 75.70 37.42 81.72 32.04 87.80 26.76 Z" />
<path fill="#fbfdc1" opacity="1.00" d=" M 35.90 21.93 C 36.49 20.45 37.26 19.05 38.31 17.86 C 38.45 20.85 38.83 23.85 38.57 26.84 C 37.24 33.24 34.52 39.24 30.76 44.57 C 30.54 36.71 33.06 29.15 35.90 21.93 Z" />
<path fill="#be878a" opacity="1.00" d=" M 30.76 44.57 C 34.52 39.24 37.24 33.24 38.57 26.84 C 38.09 32.91 37.00 38.92 35.75 44.87 C 34.11 46.36 32.20 47.52 30.42 48.82 C 30.41 47.39 30.53 45.97 30.76 44.57 Z" />
<path fill="#f6eeb9" opacity="1.00" d=" M 28.14 53.46 C 33.15 49.54 39.31 47.36 45.34 45.56 C 45.17 46.20 44.81 47.48 44.64 48.12 C 41.00 52.26 36.02 55.03 32.85 59.62 C 30.11 58.47 26.84 59.32 24.29 58.02 C 25.00 55.96 25.63 53.88 26.02 51.74 C 26.55 52.17 27.61 53.03 28.14 53.46 Z" />
<path fill="#fafa56" opacity="1.00" d=" M 7.95 46.95 C 13.26 49.65 17.48 54.05 21.57 58.30 C 20.86 59.05 20.14 59.81 19.43 60.56 C 15.88 55.78 11.23 51.92 7.95 46.95 Z" />
<path fill="#d59e92" opacity="1.00" d=" M 32.85 59.62 C 36.02 55.03 41.00 52.26 44.64 48.12 C 44.88 49.23 45.16 50.35 45.43 51.46 C 45.37 51.94 45.25 52.90 45.19 53.38 C 42.44 55.94 39.93 58.74 37.62 61.70 C 36.03 61.01 34.43 60.32 32.85 59.62 Z" />
<path fill="#e6d9b1" opacity="1.00" d=" M 45.19 53.38 C 45.25 52.90 45.37 51.94 45.43 51.46 C 48.52 53.32 51.83 54.78 54.89 56.68 C 54.43 56.98 53.50 57.57 53.03 57.87 C 51.12 59.06 49.17 60.19 47.27 61.40 C 45.95 58.93 44.92 56.23 45.19 53.38 Z" />
<path fill="#f5efba" opacity="1.00" d=" M 37.62 61.70 C 39.93 58.74 42.44 55.94 45.19 53.38 C 44.92 56.23 45.95 58.93 47.27 61.40 C 45.25 62.70 43.25 64.05 41.23 65.35 C 40.05 64.11 38.85 62.89 37.62 61.70 Z" />
<path fill="#fdc057" opacity="1.00" d=" M 21.57 58.30 C 23.17 61.08 24.32 64.10 24.96 67.24 C 23.05 65.07 21.34 62.73 19.43 60.56 C 20.14 59.81 20.86 59.05 21.57 58.30 Z" />
<path fill="#b87f88" opacity="1.00" d=" M 47.27 61.40 C 49.17 60.19 51.12 59.06 53.03 57.87 C 51.89 60.26 49.40 62.69 50.53 65.53 C 50.83 66.61 51.15 67.68 51.50 68.74 C 50.77 68.91 49.31 69.25 48.58 69.43 C 46.28 73.23 45.65 78.10 42.32 81.23 C 44.49 76.16 44.15 70.06 41.23 65.35 C 43.25 64.05 45.25 62.70 47.27 61.40 Z" />
<path fill="#fdc057" opacity="1.00" d=" M 25.91 60.66 C 31.15 60.94 36.73 62.57 39.86 67.10 C 39.19 67.39 37.85 67.97 37.18 68.26 C 36.49 68.11 35.12 67.80 34.43 67.65 C 32.80 64.85 29.61 63.56 26.52 63.27 C 26.37 62.62 26.06 61.31 25.91 60.66 Z" />
<path fill="#fec556" opacity="1.00" d=" M 52.46 63.18 C 53.35 62.13 54.24 61.06 55.13 60.00 C 59.63 62.91 59.93 68.57 59.14 73.36 C 58.75 72.26 58.33 71.17 57.91 70.09 C 56.83 70.43 55.76 70.76 54.68 71.09 C 54.63 68.29 53.36 65.77 52.46 63.18 Z" />
<path fill="#fafa56" opacity="1.00" d=" M 16.85 63.28 C 17.28 63.27 18.14 63.26 18.57 63.25 L 18.57 64.73 C 18.98 64.67 19.80 64.55 20.21 64.49 C 21.95 67.11 24.10 69.56 27.10 70.74 C 27.09 69.92 27.07 68.27 27.06 67.44 C 28.45 68.58 28.77 70.34 29.13 72.00 C 27.97 73.98 27.50 76.24 27.04 78.46 C 25.81 80.43 25.06 82.64 24.61 84.91 L 23.96 84.89 C 21.59 83.41 18.76 81.87 17.92 78.99 C 16.87 75.46 18.50 71.84 20.38 68.90 C 19.59 68.20 18.79 67.52 17.99 66.84 L 18.61 65.67 C 18.01 64.88 17.42 64.08 16.85 63.28 Z" />
<path fill="#b4904d" opacity="1.00" d=" M 26.91 64.67 C 29.43 65.44 31.58 66.96 33.45 68.78 C 32.00 69.83 30.53 70.87 29.13 72.00 C 28.77 70.34 28.45 68.58 27.06 67.44 C 27.02 66.75 26.95 65.36 26.91 64.67 Z" />
<path fill="#c67455" opacity="1.00" d=" M 39.86 67.10 C 41.36 69.63 41.62 72.63 41.44 75.50 C 40.66 74.33 39.89 73.16 39.19 71.95 C 38.49 70.74 37.84 69.49 37.18 68.26 C 37.85 67.97 39.19 67.39 39.86 67.10 Z" />
<path fill="#9c4795" opacity="1.00" d=" M 32.24 71.42 C 33.53 70.75 34.83 70.08 36.12 69.42 C 36.92 71.12 38.03 73.07 37.10 74.97 C 35.88 76.77 33.92 77.77 31.97 78.56 C 32.65 76.29 33.23 73.99 33.63 71.66 L 32.24 71.42 Z" />
<path fill="#e09557" opacity="1.00" d=" M 54.68 71.09 C 55.76 70.76 56.83 70.43 57.91 70.09 C 58.33 71.17 58.75 72.26 59.14 73.36 C 59.34 77.15 55.50 79.20 52.62 80.69 C 52.35 78.62 52.10 76.55 51.87 74.47 C 50.80 74.97 49.78 75.71 48.54 75.72 C 48.87 74.41 49.22 73.11 49.59 71.81 C 51.31 71.75 53.04 71.67 54.68 71.09 Z" />
<path fill="#e66f91" opacity="1.00" d=" M 28.50 79.44 C 28.97 76.52 29.54 73.17 32.24 71.42 L 33.63 71.66 C 33.23 73.99 32.65 76.29 31.97 78.56 C 30.81 78.84 29.65 79.13 28.50 79.44 Z" />
<path fill="#ad455b" opacity="1.00" d=" M 39.19 71.95 C 39.89 73.16 40.66 74.33 41.44 75.50 C 41.54 80.30 37.13 82.68 33.99 85.45 C 33.53 85.11 32.60 84.43 32.13 84.08 C 35.10 82.22 36.30 78.94 38.31 76.26 C 39.33 75.07 38.97 73.38 39.19 71.95 Z" />
<path fill="#cd7758" opacity="1.00" d=" M 48.54 75.72 C 49.78 75.71 50.80 74.97 51.87 74.47 C 52.10 76.55 52.35 78.62 52.62 80.69 L 52.64 80.88 C 51.68 81.41 50.71 81.94 49.76 82.48 C 48.75 81.62 47.74 80.76 46.73 79.89 C 47.34 78.50 47.93 77.11 48.54 75.72 Z" />
<path fill="#a56147" opacity="1.00" d=" M 59.16 79.97 C 59.17 78.69 59.79 78.10 61.00 78.21 C 61.49 79.44 61.09 80.33 59.80 80.87 C 59.64 80.64 59.32 80.20 59.16 79.97 Z" />
<path fill="#e0ce55" opacity="1.00" d=" M 24.61 84.91 C 25.06 82.64 25.81 80.43 27.04 78.46 C 27.44 78.97 28.24 79.98 28.64 80.48 C 30.26 80.61 31.89 80.73 33.52 80.85 C 32.32 82.10 30.85 82.68 29.10 82.60 C 30.45 83.62 31.33 84.89 30.77 86.63 C 30.60 87.03 30.25 87.83 30.08 88.23 C 29.59 86.94 29.16 85.63 28.77 84.31 C 27.39 84.55 26.00 84.76 24.61 84.91 Z" />
<path fill="#a83b5c" opacity="1.00" d=" M 43.64 83.81 C 44.16 82.16 44.60 80.42 45.81 79.11 L 46.73 79.89 C 47.74 80.76 48.75 81.62 49.76 82.48 C 48.03 83.43 46.24 84.31 44.27 84.64 C 44.20 85.20 44.04 86.31 43.97 86.87 C 49.83 86.83 54.46 82.95 59.16 79.97 C 59.32 80.20 59.64 80.64 59.80 80.87 C 59.79 83.41 57.01 84.87 55.15 86.19 C 51.43 88.81 46.67 87.20 42.47 87.88 C 43.67 86.41 41.73 85.63 40.70 85.07 C 40.49 84.44 40.08 83.17 39.88 82.54 C 41.13 82.98 42.38 83.41 43.64 83.81 Z" />
<path fill="#e0ce55" opacity="1.00" d=" M 37.72 86.08 C 39.55 88.22 40.27 91.02 41.70 93.41 C 41.02 94.36 40.16 92.91 39.74 92.47 C 38.22 90.71 37.94 88.30 37.72 86.08 Z" />
<path fill="#e6d9b1" opacity="1.00" d=" M 48.57 91.53 C 49.10 91.45 50.16 91.30 50.69 91.23 C 50.61 91.78 50.44 92.90 50.36 93.46 C 49.84 93.53 48.80 93.68 48.28 93.76 C 48.35 93.20 48.50 92.08 48.57 91.53 Z" />
<path fill="#000000" opacity="1.00" d=" M 29.49 134.80 C 46.98 133.36 64.85 132.95 82.07 136.80 C 84.82 137.67 88.65 137.96 89.87 141.03 C 90.01 143.88 86.60 144.33 84.49 144.69 C 79.30 145.22 74.17 146.13 69.03 146.94 C 51.07 147.43 33.08 148.48 15.10 147.62 C 12.56 147.29 9.48 147.19 7.78 144.96 C 6.60 142.69 8.95 140.77 10.72 139.80 C 16.55 136.86 23.08 135.69 29.49 134.80 Z" />
</svg>
