<?xml version="1.0" encoding="UTF-8" ?>
<!DOCTYPE svg PUBLIC "-//W3C//DTD SVG 1.1//EN" "http://www.w3.org/Graphics/SVG/1.1/DTD/svg11.dtd">
<svg width="103pt" height="95pt" viewBox="0 0 103 95" version="1.1" xmlns="http://www.w3.org/2000/svg">
<path fill="#000000" opacity="1.00" d=" M 76.26 0.00 L 76.87 0.00 C 80.25 6.38 80.80 13.89 79.44 20.90 C 83.95 17.40 87.66 12.61 93.16 10.59 C 94.16 18.76 94.65 27.18 92.35 35.18 C 90.16 42.36 86.63 49.12 82.00 55.03 C 82.57 56.29 83.14 57.55 83.71 58.82 C 85.75 56.62 87.90 54.53 90.14 52.54 C 93.05 55.91 90.70 59.84 89.68 63.42 C 88.57 66.93 88.03 70.58 87.48 74.21 C 92.13 79.11 97.60 83.08 103.00 87.08 L 103.00 88.44 C 96.63 89.11 90.77 85.77 85.99 81.91 C 82.76 79.15 82.31 74.64 81.49 70.74 C 77.79 72.35 74.01 73.75 70.27 75.24 C 69.25 78.22 67.57 81.09 64.76 82.70 C 63.48 83.46 61.48 84.49 60.25 83.07 C 61.11 81.03 62.31 79.17 63.47 77.29 C 59.10 78.51 54.66 79.47 50.16 80.09 C 52.11 82.42 53.99 84.83 56.34 86.78 C 59.37 89.38 63.32 90.92 65.68 94.28 C 59.98 94.97 53.88 93.24 49.60 89.36 C 46.60 86.68 47.01 81.41 43.11 79.70 C 41.77 83.79 37.98 86.98 33.50 86.48 C 35.08 83.35 36.89 80.35 38.46 77.22 C 34.71 78.57 31.54 81.03 28.06 82.91 C 26.22 81.27 24.36 79.65 22.46 78.08 C 22.49 80.32 23.41 82.62 22.83 84.82 C 20.28 89.70 15.57 93.56 10.13 94.69 C 8.74 94.99 7.41 94.80 6.13 94.14 C 6.26 92.52 8.11 92.03 9.14 91.08 C 12.48 89.08 14.77 85.90 16.94 82.75 C 14.40 80.10 10.49 78.22 9.79 74.30 C 12.90 73.82 16.05 73.58 19.19 73.93 C 18.29 72.05 17.58 70.07 17.48 67.98 C 12.35 62.72 8.78 56.26 5.29 49.88 C 3.01 45.61 0.98 41.16 0.00 36.40 L 0.00 34.83 C 1.39 35.73 2.76 36.68 4.09 37.67 C 2.34 31.09 2.44 24.15 3.53 17.47 C 3.82 15.28 4.99 13.37 6.21 11.58 C 8.29 15.25 8.25 19.54 9.13 23.56 C 10.52 30.72 13.11 37.58 16.11 44.21 C 16.65 41.27 17.38 38.32 19.00 35.77 C 22.42 43.05 23.26 51.25 25.05 59.04 C 28.86 49.16 38.32 43.31 46.81 37.84 C 52.09 35.36 55.26 30.34 58.83 25.99 C 65.52 17.95 71.07 9.06 76.26 0.00 M 76.35 1.88 C 71.41 14.93 63.43 26.71 53.57 36.53 C 50.00 40.05 46.87 44.05 44.34 48.39 C 40.64 52.35 37.53 56.94 33.78 60.93 C 31.56 63.45 29.09 65.75 26.44 67.82 C 27.70 68.94 29.14 67.73 30.37 67.26 C 32.87 65.96 35.49 64.91 38.23 64.22 C 42.03 58.73 45.68 53.07 50.25 48.18 C 54.03 44.94 56.99 40.91 60.11 37.06 C 62.11 35.54 63.97 33.83 65.67 31.99 C 69.63 29.71 72.64 26.17 76.24 23.40 C 76.45 20.82 76.66 18.23 76.79 15.64 C 77.88 11.15 76.85 6.41 76.35 1.88 M 67.48 35.55 C 63.89 39.24 59.67 42.43 56.56 46.53 C 53.73 48.88 51.21 51.60 49.09 54.60 C 46.40 57.35 43.78 60.18 41.30 63.11 C 42.74 62.63 44.70 62.64 45.43 61.00 L 45.47 62.20 L 46.75 60.66 C 50.17 61.69 46.13 64.01 45.56 65.66 C 44.50 66.31 44.51 67.78 43.97 68.80 C 46.68 68.38 49.35 67.71 52.09 67.55 C 54.95 67.49 53.17 71.08 53.50 72.69 C 63.00 68.63 72.18 63.07 78.70 54.90 L 78.76 54.49 C 82.91 50.08 85.82 44.66 88.16 39.11 C 89.88 34.80 91.37 30.22 91.02 25.51 C 91.96 21.69 91.31 17.64 91.65 13.73 C 84.66 22.11 75.26 27.97 67.48 35.55 M 5.59 33.03 C 5.98 36.60 6.20 40.45 8.38 43.46 C 11.24 47.76 14.75 51.59 17.46 55.98 C 16.58 53.59 16.80 50.99 16.15 48.57 C 11.21 38.98 7.33 28.75 6.01 17.98 C 5.28 22.96 5.02 28.02 5.59 33.03 M 3.00 40.02 C 5.34 47.90 10.14 54.82 14.72 61.56 L 14.81 61.55 C 16.65 65.14 19.97 67.67 21.84 71.25 L 20.21 71.31 C 21.34 72.68 22.33 74.15 23.18 75.71 C 24.03 74.09 25.03 72.51 25.48 70.71 C 25.51 70.62 25.56 70.43 25.58 70.33 C 24.30 63.53 22.61 56.62 20.88 49.85 C 20.50 46.48 19.85 43.12 18.72 39.91 C 17.99 45.59 18.45 51.53 20.33 56.97 C 20.91 61.73 23.47 66.00 24.14 70.75 C 23.71 70.55 22.85 70.16 22.42 69.97 C 20.77 67.02 19.38 63.92 17.38 61.17 L 17.13 61.21 C 13.18 53.68 8.08 46.81 3.00 40.02 M 37.19 48.96 L 37.06 49.34 C 33.21 52.02 30.03 55.60 28.05 59.88 C 26.96 61.52 26.22 63.36 25.91 65.31 C 28.64 63.66 30.24 60.82 32.26 58.45 C 35.78 53.94 39.53 49.61 42.86 44.96 C 40.82 46.07 38.91 47.40 37.19 48.96 M 83.19 67.00 C 85.47 63.73 88.16 60.61 89.21 56.67 C 85.97 59.20 83.63 62.87 83.19 67.00 M 57.22 73.56 L 57.48 73.75 C 55.13 74.33 51.30 73.91 51.46 77.40 C 53.26 77.00 55.17 76.86 56.83 75.99 C 61.20 75.30 65.39 73.81 69.67 72.72 C 71.83 72.05 74.26 71.60 75.87 69.88 C 77.50 66.99 78.58 63.81 80.47 61.06 C 80.34 60.22 80.09 58.54 79.96 57.70 C 73.53 64.43 65.96 70.21 57.22 73.56 M 37.32 67.40 L 37.22 67.66 C 33.69 68.64 30.23 69.86 26.61 70.45 C 28.14 72.01 29.61 74.02 28.47 76.25 C 27.37 76.75 26.29 77.27 25.22 77.83 C 25.86 78.26 27.15 79.14 27.79 79.57 C 28.14 79.71 28.85 80.00 29.20 80.14 C 32.16 79.14 34.76 77.20 37.05 75.11 C 39.44 72.35 40.97 68.97 43.07 66.00 C 41.15 66.45 39.23 66.92 37.32 67.40 M 83.74 68.98 C 83.66 70.81 83.59 72.71 84.53 74.36 C 84.98 72.32 85.34 70.27 85.67 68.22 C 85.19 68.41 84.22 68.79 83.74 68.98 M 47.91 70.64 C 47.66 71.38 47.14 72.85 46.89 73.59 L 46.40 73.83 C 46.78 75.27 47.00 76.83 47.97 78.03 C 50.51 77.36 49.56 73.78 50.24 71.82 C 50.50 71.43 51.04 70.65 51.30 70.26 C 50.17 70.37 49.04 70.50 47.91 70.64 M 25.41 73.07 C 24.94 74.75 25.49 75.40 27.07 75.03 C 27.54 73.36 26.99 72.71 25.41 73.07 M 12.97 76.21 C 15.35 78.88 18.67 80.73 20.21 84.08 C 19.78 84.26 18.93 84.62 18.50 84.80 C 16.27 87.64 13.60 90.06 11.04 92.60 C 15.49 90.66 19.60 86.87 21.01 82.15 C 18.82 79.58 16.39 77.02 12.97 76.21 M 64.31 77.09 C 63.85 78.58 63.38 80.07 62.93 81.57 C 64.81 79.99 67.17 78.42 67.43 75.74 C 66.39 76.18 65.35 76.63 64.31 77.09 M 87.45 79.62 C 90.20 81.60 93.03 83.52 96.11 84.97 C 93.52 82.19 90.53 79.82 87.89 77.08 C 87.74 77.92 87.59 78.77 87.45 79.62 M 39.34 78.92 C 38.46 79.84 37.82 81.45 38.33 82.68 C 40.28 83.17 42.07 78.23 39.34 78.92 M 49.07 81.78 C 48.79 88.34 55.67 91.18 60.92 92.69 C 56.40 89.68 52.50 85.97 49.07 81.78 Z" />
<path fill="#f8ef90" opacity="1.00" d=" M 76.35 1.88 C 76.85 6.41 77.88 11.15 76.79 15.64 C 73.30 21.23 69.60 26.70 65.67 31.99 C 63.97 33.83 62.11 35.54 60.11 37.06 C 54.66 40.58 50.17 45.47 44.34 48.39 C 46.87 44.05 50.00 40.05 53.57 36.53 C 63.43 26.71 71.41 14.93 76.35 1.88 Z" />
<path fill="#ee7395" opacity="1.00" d=" M 67.48 35.55 C 75.26 27.97 84.66 22.11 91.65 13.73 C 91.31 17.64 91.96 21.69 91.02 25.51 C 86.96 31.83 82.52 37.94 77.37 43.43 C 68.02 52.49 56.61 58.93 45.56 65.66 C 46.13 64.01 50.17 61.69 46.75 60.66 C 50.16 56.06 54.18 51.80 56.56 46.53 C 59.67 42.43 63.89 39.24 67.48 35.55 Z" />
<path fill="#b75c66" opacity="1.00" d=" M 65.67 31.99 C 69.60 26.70 73.30 21.23 76.79 15.64 C 76.66 18.23 76.45 20.82 76.24 23.40 C 72.64 26.17 69.63 29.71 65.67 31.99 Z" />
<path fill="#fcf693" opacity="1.00" d=" M 5.59 33.03 C 5.02 28.02 5.28 22.96 6.01 17.98 C 7.33 28.75 11.21 38.98 16.15 48.57 C 16.80 50.99 16.58 53.59 17.46 55.98 C 14.75 51.59 11.24 47.76 8.38 43.46 C 6.20 40.45 5.98 36.60 5.59 33.03 Z" />
<path fill="#682d6e" opacity="1.00" d=" M 77.37 43.43 C 82.52 37.94 86.96 31.83 91.02 25.51 C 91.37 30.22 89.88 34.80 88.16 39.11 C 85.82 44.66 82.91 50.08 78.76 54.49 C 78.93 53.29 79.10 52.09 79.27 50.89 C 77.37 48.84 77.22 46.07 77.37 43.43 Z" />
<path fill="#c17d6d" opacity="1.00" d=" M 44.34 48.39 C 50.17 45.47 54.66 40.58 60.11 37.06 C 56.99 40.91 54.03 44.94 50.25 48.18 C 45.68 53.07 42.03 58.73 38.23 64.22 C 36.74 63.13 35.26 62.03 33.78 60.93 C 37.53 56.94 40.64 52.35 44.34 48.39 Z" />
<path fill="#ee7395" opacity="1.00" d=" M 3.00 40.02 C 8.08 46.81 13.18 53.68 17.13 61.21 C 16.55 61.29 15.39 61.47 14.81 61.55 L 14.72 61.56 C 10.14 54.82 5.34 47.90 3.00 40.02 Z" />
<path fill="#ffffa6" opacity="1.00" d=" M 18.72 39.91 C 19.85 43.12 20.50 46.48 20.88 49.85 C 20.80 52.23 20.53 54.60 20.33 56.97 C 18.45 51.53 17.99 45.59 18.72 39.91 Z" />
<path fill="#502766" opacity="1.00" d=" M 45.56 65.66 C 56.61 58.93 68.02 52.49 77.37 43.43 C 77.22 46.07 77.37 48.84 79.27 50.89 C 79.10 52.09 78.93 53.29 78.76 54.49 L 78.70 54.90 C 72.18 63.07 63.00 68.63 53.50 72.69 C 53.17 71.08 54.95 67.49 52.09 67.55 C 49.35 67.71 46.68 68.38 43.97 68.80 C 44.51 67.78 44.50 66.31 45.56 65.66 Z" />
<path fill="#86528f" opacity="1.00" d=" M 37.19 48.96 C 38.91 47.40 40.82 46.07 42.86 44.96 C 39.53 49.61 35.78 53.94 32.26 58.45 C 30.24 60.82 28.64 63.66 25.91 65.31 C 26.22 63.36 26.96 61.52 28.05 59.88 C 30.23 59.33 31.49 57.37 32.92 55.81 C 34.57 53.85 36.49 51.94 37.06 49.34 L 37.19 48.96 Z" />
<path fill="#ffffa6" opacity="1.00" d=" M 49.09 54.60 C 51.21 51.60 53.73 48.88 56.56 46.53 C 54.18 51.80 50.16 56.06 46.75 60.66 L 45.47 62.20 L 45.43 61.00 C 46.56 58.82 47.78 56.68 49.09 54.60 Z" />
<path fill="#ee7395" opacity="1.00" d=" M 20.88 49.85 C 22.61 56.62 24.30 63.53 25.58 70.33 C 25.56 70.43 25.51 70.62 25.48 70.71 C 25.03 72.51 24.03 74.09 23.18 75.71 C 22.33 74.15 21.34 72.68 20.21 71.31 L 21.84 71.25 C 22.34 71.22 23.33 71.16 23.82 71.14 L 24.14 70.75 C 23.47 66.00 20.91 61.73 20.33 56.97 C 20.53 54.60 20.80 52.23 20.88 49.85 Z" />
<path fill="#ffffa6" opacity="1.00" d=" M 28.05 59.88 C 30.03 55.60 33.21 52.02 37.06 49.34 C 36.49 51.94 34.57 53.85 32.92 55.81 C 31.49 57.37 30.23 59.33 28.05 59.88 Z" />
<path fill="#ee7395" opacity="1.00" d=" M 41.30 63.11 C 43.78 60.18 46.40 57.35 49.09 54.60 C 47.78 56.68 46.56 58.82 45.43 61.00 C 44.70 62.64 42.74 62.63 41.30 63.11 Z" />
<path fill="#e66d92" opacity="1.00" d=" M 83.19 67.00 C 83.63 62.87 85.97 59.20 89.21 56.67 C 88.16 60.61 85.47 63.73 83.19 67.00 Z" />
<path fill="#231f58" opacity="1.00" d=" M 57.22 73.56 C 65.96 70.21 73.53 64.43 79.96 57.70 C 80.09 58.54 80.34 60.22 80.47 61.06 C 78.58 63.81 77.50 66.99 75.87 69.88 C 74.26 71.60 71.83 72.05 69.67 72.72 C 65.39 73.81 61.20 75.30 56.83 75.99 C 57.34 75.68 58.38 75.05 58.89 74.74 C 58.54 74.49 57.83 74.00 57.48 73.75 L 57.22 73.56 Z" />
<path fill="#682d6e" opacity="1.00" d=" M 17.13 61.21 L 17.38 61.17 C 19.38 63.92 20.77 67.02 22.42 69.97 C 22.85 70.16 23.71 70.55 24.14 70.75 L 23.82 71.14 C 23.33 71.16 22.34 71.22 21.84 71.25 C 19.97 67.67 16.65 65.14 14.81 61.55 C 15.39 61.47 16.55 61.29 17.13 61.21 Z" />
<path fill="#b88969" opacity="1.00" d=" M 26.44 67.82 C 29.09 65.75 31.56 63.45 33.78 60.93 C 35.26 62.03 36.74 63.13 38.23 64.22 C 35.49 64.91 32.87 65.96 30.37 67.26 C 29.14 67.73 27.70 68.94 26.44 67.82 Z" />
<path fill="#7a3076" opacity="1.00" d=" M 37.32 67.40 C 39.23 66.92 41.15 66.45 43.07 66.00 C 40.97 68.97 39.44 72.35 37.05 75.11 C 34.76 77.20 32.16 79.14 29.20 80.14 C 28.85 80.00 28.14 79.71 27.79 79.57 C 31.92 76.50 36.00 72.90 37.22 67.66 L 37.32 67.40 Z" />
<path fill="#e66d92" opacity="1.00" d=" M 26.61 70.45 C 30.23 69.86 33.69 68.64 37.22 67.66 C 36.00 72.90 31.92 76.50 27.79 79.57 C 27.15 79.14 25.86 78.26 25.22 77.83 C 26.29 77.27 27.37 76.75 28.47 76.25 C 29.61 74.02 28.14 72.01 26.61 70.45 Z" />
<path fill="#7a3076" opacity="1.00" d=" M 83.74 68.98 C 84.22 68.79 85.19 68.41 85.67 68.22 C 85.34 70.27 84.98 72.32 84.53 74.36 C 83.59 72.71 83.66 70.81 83.74 68.98 Z" />
<path fill="#fffb9e" opacity="1.00" d=" M 25.48 70.71 C 25.51 70.62 25.56 70.43 25.58 70.33 C 25.56 70.43 25.51 70.62 25.48 70.71 Z" />
<path fill="#ffffa6" opacity="1.00" d=" M 47.91 70.64 C 49.04 70.50 50.17 70.37 51.30 70.26 C 51.04 70.65 50.50 71.43 50.24 71.82 C 49.14 72.44 48.02 73.03 46.89 73.59 C 47.14 72.85 47.66 71.38 47.91 70.64 Z" />
<path fill="#b75c66" opacity="1.00" d=" M 46.89 73.59 C 48.02 73.03 49.14 72.44 50.24 71.82 C 49.56 73.78 50.51 77.36 47.97 78.03 C 47.00 76.83 46.78 75.27 46.40 73.83 L 46.89 73.59 Z" />
<path fill="#f3f597" opacity="1.00" d=" M 25.41 73.07 C 26.99 72.71 27.54 73.36 27.07 75.03 C 25.49 75.40 24.94 74.75 25.41 73.07 Z" />
<path fill="#342365" opacity="1.00" d=" M 51.46 77.40 C 51.30 73.91 55.13 74.33 57.48 73.75 C 57.83 74.00 58.54 74.49 58.89 74.74 C 58.38 75.05 57.34 75.68 56.83 75.99 C 55.17 76.86 53.26 77.00 51.46 77.40 Z" />
<path fill="#ee7395" opacity="1.00" d=" M 12.97 76.21 C 16.39 77.02 18.82 79.58 21.01 82.15 C 19.60 86.87 15.49 90.66 11.04 92.60 C 13.60 90.06 16.27 87.64 18.50 84.80 C 18.93 84.62 19.78 84.26 20.21 84.08 C 18.67 80.73 15.35 78.88 12.97 76.21 Z" />
<path fill="#6f295d" opacity="1.00" d=" M 64.31 77.09 C 65.35 76.63 66.39 76.18 67.43 75.74 C 67.17 78.42 64.81 79.99 62.93 81.57 C 63.38 80.07 63.85 78.58 64.31 77.09 Z" />
<path fill="#ee7395" opacity="1.00" d=" M 87.45 79.62 C 87.59 78.77 87.74 77.92 87.89 77.08 C 90.53 79.82 93.52 82.19 96.11 84.97 C 93.03 83.52 90.20 81.60 87.45 79.62 Z" />
<path fill="#ee7395" opacity="1.00" d=" M 39.34 78.92 C 42.07 78.23 40.28 83.17 38.33 82.68 C 37.82 81.45 38.46 79.84 39.34 78.92 Z" />
<path fill="#ee7395" opacity="1.00" d=" M 49.07 81.78 C 52.50 85.97 56.40 89.68 60.92 92.69 C 55.67 91.18 48.79 88.34 49.07 81.78 Z" />
</svg>
