<?xml version="1.0" encoding="UTF-8" ?>
<!DOCTYPE svg PUBLIC "-//W3C//DTD SVG 1.1//EN" "http://www.w3.org/Graphics/SVG/1.1/DTD/svg11.dtd">
<svg width="134pt" height="116pt" viewBox="0 0 134 116" version="1.1" xmlns="http://www.w3.org/2000/svg">
<path fill="#000000" opacity="1.00" d=" M 7.82 12.73 C 12.92 7.22 19.23 2.00 26.93 1.01 C 34.69 -0.54 42.35 2.56 49.27 5.75 C 54.64 8.28 57.93 13.59 60.08 18.91 C 63.03 25.41 62.57 32.86 61.05 39.67 C 63.10 40.19 65.61 40.08 67.10 41.85 C 70.59 45.45 70.85 50.96 69.84 55.61 C 78.87 56.11 87.45 60.76 93.02 67.84 C 98.55 66.78 103.99 68.96 108.90 71.28 C 118.11 76.69 121.85 89.81 116.04 99.01 C 116.20 99.61 116.54 100.81 116.71 101.41 C 121.80 101.84 127.10 102.61 131.37 105.64 C 132.33 106.25 133.63 107.53 132.84 108.74 C 131.08 110.68 128.31 111.06 125.90 111.71 C 121.54 112.47 117.25 113.65 112.85 114.19 C 97.75 115.40 82.54 115.25 67.46 113.79 C 52.71 112.10 37.78 112.17 23.14 109.52 C 16.94 108.39 9.23 108.66 5.17 102.98 C 6.46 101.94 7.82 100.90 9.50 100.63 C 14.39 99.61 19.36 99.08 24.27 98.22 C 21.80 95.26 19.65 91.91 19.41 87.94 C 17.71 89.37 15.46 91.94 13.22 89.86 C 11.56 87.69 12.82 84.92 13.85 82.79 C 16.00 78.76 18.39 73.97 23.39 73.14 C 20.60 69.49 20.72 64.81 21.86 60.57 C 17.96 59.29 15.19 56.25 13.23 52.77 C 11.67 56.44 8.52 61.06 3.91 60.04 C 0.10 56.65 4.09 51.83 6.97 49.39 C 3.21 43.31 0.52 36.22 1.20 28.96 C 1.52 25.19 3.10 21.71 4.77 18.37 C 2.36 16.89 -0.12 13.00 2.96 10.92 C 4.85 9.43 6.62 11.42 7.82 12.73 M 9.70 14.87 C 12.92 12.80 16.34 10.98 20.16 10.34 C 23.62 10.39 27.46 10.35 30.27 12.72 C 34.89 16.32 35.83 22.53 37.41 27.81 C 37.45 32.71 35.91 37.49 33.08 41.47 L 32.90 42.24 L 32.47 42.12 C 28.57 48.20 22.26 52.29 15.12 53.41 C 16.73 54.97 18.18 56.83 20.30 57.73 C 24.59 59.19 29.13 58.14 33.49 57.61 C 34.41 53.65 34.91 49.32 37.68 46.13 C 39.59 45.23 41.53 44.28 43.11 42.84 C 42.94 43.44 42.61 44.62 42.44 45.22 C 45.51 48.06 46.59 52.04 46.27 56.13 C 46.03 61.62 40.72 67.72 34.96 64.68 C 33.92 62.67 33.50 60.45 33.51 58.20 C 30.78 60.43 27.23 60.92 23.87 61.44 C 23.52 64.25 23.54 67.09 24.21 69.86 L 24.61 69.01 C 24.79 72.40 29.46 73.70 32.39 74.44 C 37.30 75.16 43.20 76.14 47.49 73.04 C 50.31 72.56 53.12 71.98 55.84 71.08 L 54.87 72.09 C 51.60 74.05 48.34 76.09 44.68 77.24 L 44.58 77.48 C 37.66 78.38 30.34 77.91 24.31 74.05 C 23.14 76.92 21.94 79.86 21.89 83.00 C 21.22 87.58 22.31 92.63 26.05 95.66 C 26.89 96.75 28.06 97.57 29.00 98.59 C 32.91 101.14 37.23 103.21 41.93 103.68 C 47.02 104.54 52.09 103.32 57.04 102.27 C 59.85 101.43 62.70 100.34 64.82 98.22 C 69.31 93.97 69.09 87.59 68.37 81.95 C 68.02 81.49 67.32 80.57 66.97 80.11 C 66.52 76.25 65.07 72.63 63.43 69.14 C 63.24 68.61 62.86 67.53 62.68 66.99 L 64.11 66.42 C 67.03 72.56 69.86 78.89 70.83 85.68 C 71.14 89.16 69.48 92.89 70.73 96.20 C 71.33 97.96 71.92 99.73 72.49 101.51 C 77.54 102.07 82.67 102.46 87.68 101.33 C 89.05 102.64 90.42 103.97 91.76 105.32 C 96.52 105.30 94.74 99.20 94.58 96.21 L 93.63 96.48 C 94.22 93.23 94.86 89.98 95.56 86.74 C 95.48 84.48 95.30 82.22 95.10 79.97 C 93.50 74.88 91.97 69.53 88.19 65.57 C 82.94 61.02 76.60 57.49 69.52 57.18 C 68.52 58.47 67.05 59.29 66.10 60.62 L 66.32 60.96 L 65.79 61.42 C 65.29 62.09 64.29 63.42 63.78 64.08 C 63.51 63.57 62.95 62.54 62.68 62.02 L 63.23 60.52 C 67.52 56.19 68.97 48.85 65.22 43.76 C 63.98 41.81 61.44 41.99 59.45 41.60 C 59.72 41.91 60.26 42.52 60.53 42.82 L 59.26 44.27 C 59.23 43.48 59.16 41.92 59.13 41.14 C 59.85 38.50 60.16 35.78 60.39 33.06 C 60.75 27.04 59.56 20.99 56.18 15.93 C 54.77 12.66 51.94 10.32 49.07 8.36 C 47.60 7.71 46.14 7.05 44.67 6.40 C 40.31 4.70 35.74 3.27 31.01 3.22 C 22.42 3.33 15.04 8.54 9.70 14.87 M 3.53 12.48 C 2.55 14.56 4.80 15.80 6.01 17.05 C 7.21 15.21 6.06 11.52 3.53 12.48 M 7.53 20.66 L 6.95 20.70 C 4.61 23.81 3.12 27.42 1.96 31.11 C 4.08 28.88 6.12 26.37 9.08 25.24 C 13.67 22.94 18.85 25.74 22.23 28.90 C 25.17 31.60 25.04 35.80 24.84 39.45 C 22.53 41.68 20.88 44.76 17.87 46.14 C 14.10 46.66 10.29 45.98 6.54 45.56 C 9.15 49.54 14.36 52.13 18.93 49.88 C 26.80 47.58 32.07 40.66 35.13 33.40 C 35.59 25.74 33.71 16.01 26.02 12.44 L 25.78 12.53 C 18.64 11.15 11.44 14.68 7.53 20.66 M 3.84 34.97 C 3.07 39.27 7.01 41.90 9.74 44.42 C 8.41 42.08 8.18 39.39 8.21 36.75 C 8.43 36.51 8.88 36.02 9.10 35.77 C 9.43 37.76 9.84 39.72 10.30 41.68 C 11.28 42.69 12.04 44.01 13.35 44.62 C 20.13 45.85 25.99 36.65 21.60 31.10 C 20.20 29.25 18.03 28.28 16.10 27.12 L 16.26 26.90 C 10.76 25.01 3.97 28.90 3.84 34.97 M 37.43 47.89 C 37.10 49.31 36.76 50.73 36.41 52.15 C 36.18 53.18 35.72 55.24 35.49 56.27 C 35.14 58.58 34.98 60.96 36.20 63.08 C 36.93 63.38 37.65 63.69 38.37 64.00 C 44.97 61.64 46.75 51.11 40.97 47.03 C 39.77 47.23 38.60 47.57 37.43 47.89 M 4.10 57.89 C 7.05 59.13 8.58 55.49 9.93 53.56 L 10.82 53.29 C 10.72 52.96 10.54 52.31 10.44 51.99 C 9.80 51.53 8.51 50.61 7.87 50.15 C 5.92 52.29 3.87 54.79 4.10 57.89 M 93.63 69.01 C 93.82 69.61 94.21 70.82 94.40 71.42 L 94.85 71.56 C 96.58 76.38 98.25 81.32 98.24 86.50 C 97.80 88.61 97.41 90.73 97.04 92.86 C 96.71 93.42 96.04 94.55 95.71 95.12 C 96.27 97.43 96.79 99.74 97.26 102.07 C 100.85 102.81 104.53 102.61 108.11 101.89 L 108.38 101.65 C 108.35 101.82 108.29 102.18 108.26 102.35 L 109.27 101.12 C 110.92 102.28 112.60 103.42 114.27 104.55 C 114.49 103.39 114.72 102.23 114.94 101.08 C 114.35 101.19 113.18 101.43 112.59 101.54 L 112.42 100.32 C 115.74 95.07 117.70 88.62 115.24 82.58 C 114.02 78.49 111.08 75.05 107.45 72.85 C 107.55 73.58 107.76 75.04 107.86 75.77 C 105.87 77.63 103.01 78.85 100.31 77.90 C 98.98 76.03 101.08 74.80 102.09 73.46 C 102.89 73.07 104.50 72.30 105.30 71.92 C 101.58 70.33 97.61 69.53 93.63 69.01 M 103.38 74.25 C 100.21 75.92 104.41 77.46 105.63 75.36 C 107.11 73.77 104.25 73.19 103.38 74.25 M 15.09 83.86 L 14.83 83.97 C 14.45 85.52 14.10 87.08 13.79 88.65 C 16.02 88.14 17.68 86.53 19.33 85.08 C 19.51 83.60 19.70 82.12 19.87 80.64 C 20.45 78.51 21.24 76.45 21.94 74.36 C 18.88 76.90 16.86 80.36 15.09 83.86 M 67.51 99.32 L 66.54 98.81 L 67.04 100.11 C 65.71 100.90 64.39 101.71 63.07 102.51 C 65.29 103.97 67.63 105.26 70.19 106.02 C 70.36 104.91 70.54 103.79 70.70 102.68 C 70.36 101.61 70.04 100.54 69.73 99.47 C 69.46 98.97 68.92 97.98 68.65 97.49 C 68.36 97.95 67.79 98.86 67.51 99.32 M 25.49 99.02 C 25.47 100.82 25.46 102.61 25.44 104.41 C 26.75 103.67 28.05 102.92 29.34 102.15 C 28.06 101.11 26.78 100.06 25.49 99.02 Z" />
<path fill="#fffe95" opacity="1.00" d=" M 9.70 14.87 C 15.04 8.54 22.42 3.33 31.01 3.22 C 27.60 5.90 23.87 8.11 20.16 10.34 C 16.34 10.98 12.92 12.80 9.70 14.87 Z" />
<path fill="#fafdc0" opacity="1.00" d=" M 31.01 3.22 C 35.74 3.27 40.31 4.70 44.67 6.40 C 45.91 10.38 47.20 14.34 48.49 18.30 C 45.13 20.16 40.82 23.17 41.47 27.54 C 40.33 28.31 39.19 29.06 38.04 29.81 C 37.88 29.31 37.57 28.31 37.41 27.81 C 35.83 22.53 34.89 16.32 30.27 12.72 C 27.46 10.35 23.62 10.39 20.16 10.34 C 23.87 8.11 27.60 5.90 31.01 3.22 Z" />
<path fill="#9f9371" opacity="1.00" d=" M 44.67 6.40 C 46.14 7.05 47.60 7.71 49.07 8.36 C 49.14 11.51 49.26 14.66 49.39 17.80 L 48.49 18.30 C 47.20 14.34 45.91 10.38 44.67 6.40 Z" />
<path fill="#5c3c2e" opacity="1.00" d=" M 49.07 8.36 C 51.94 10.32 54.77 12.66 56.18 15.93 C 56.50 17.86 56.72 19.81 56.81 21.77 C 55.72 21.19 54.63 20.60 53.54 20.02 C 52.15 19.29 50.77 18.55 49.39 17.80 C 49.26 14.66 49.14 11.51 49.07 8.36 Z" />
<path fill="#f7e78a" opacity="1.00" d=" M 3.53 12.48 C 6.06 11.52 7.21 15.21 6.01 17.05 C 4.80 15.80 2.55 14.56 3.53 12.48 Z" />
<path fill="#fffe95" opacity="1.00" d=" M 7.53 20.66 C 11.44 14.68 18.64 11.15 25.78 12.53 C 24.13 13.18 22.46 13.77 20.78 14.35 C 19.75 16.86 18.60 19.77 15.79 20.73 C 14.02 21.79 12.08 20.83 10.26 20.47 C 9.35 20.53 8.44 20.60 7.53 20.66 Z" />
<path fill="#534d5d" opacity="1.00" d=" M 25.78 12.53 L 26.02 12.44 C 33.71 16.01 35.59 25.74 35.13 33.40 C 34.51 32.23 33.89 31.05 33.28 29.87 C 30.69 33.25 27.85 36.44 24.84 39.45 C 25.04 35.80 25.17 31.60 22.23 28.90 C 18.85 25.74 13.67 22.94 9.08 25.24 C 6.12 26.37 4.08 28.88 1.96 31.11 C 3.12 27.42 4.61 23.81 6.95 20.70 L 7.53 20.66 C 8.44 20.60 9.35 20.53 10.26 20.47 C 12.08 20.83 14.02 21.79 15.79 20.73 C 18.60 19.77 19.75 16.86 20.78 14.35 C 22.46 13.77 24.13 13.18 25.78 12.53 Z" />
<path fill="#30243d" opacity="1.00" d=" M 56.18 15.93 C 59.56 20.99 60.75 27.04 60.39 33.06 C 59.72 32.68 58.36 31.91 57.68 31.53 C 57.38 31.36 56.78 31.02 56.47 30.85 C 56.65 27.83 56.83 24.80 56.81 21.77 C 56.72 19.81 56.50 17.86 56.18 15.93 Z" />
<path fill="#000000" opacity="1.00" d=" M 48.49 18.30 L 49.39 17.80 C 50.77 18.55 52.15 19.29 53.54 20.02 C 53.08 21.73 52.82 23.52 52.01 25.10 C 50.81 26.36 49.16 27.04 47.64 27.82 C 45.58 27.90 43.51 27.82 41.47 27.54 C 40.82 23.17 45.13 20.16 48.49 18.30 M 44.13 23.06 L 44.03 23.07 C 43.45 24.10 42.87 25.13 42.29 26.16 C 45.79 26.37 50.34 26.17 51.65 22.17 C 51.28 21.36 50.94 20.54 50.64 19.71 C 48.04 19.82 45.99 21.42 44.13 23.06 Z" />
<path fill="#f7e78a" opacity="1.00" d=" M 44.13 23.06 C 45.99 21.42 48.04 19.82 50.64 19.71 C 50.94 20.54 51.28 21.36 51.65 22.17 C 49.13 22.37 46.63 22.70 44.13 23.06 Z" />
<path fill="#6d5240" opacity="1.00" d=" M 53.54 20.02 C 54.63 20.60 55.72 21.19 56.81 21.77 C 56.83 24.80 56.65 27.83 56.47 30.85 C 56.78 31.02 57.38 31.36 57.68 31.53 C 56.18 32.32 54.69 33.11 53.20 33.90 C 51.21 34.39 49.22 34.88 47.24 35.37 C 47.85 32.91 48.46 30.44 49.07 27.97 C 48.72 27.94 48.00 27.86 47.64 27.82 C 49.16 27.04 50.81 26.36 52.01 25.10 C 52.82 23.52 53.08 21.73 53.54 20.02 Z" />
<path fill="#bf6054" opacity="1.00" d=" M 44.13 23.06 C 46.63 22.70 49.13 22.37 51.65 22.17 C 50.34 26.17 45.79 26.37 42.29 26.16 C 42.87 25.13 43.45 24.10 44.03 23.07 L 44.13 23.06 Z" />
<path fill="#f4f6bb" opacity="1.00" d=" M 3.84 34.97 C 3.97 28.90 10.76 25.01 16.26 26.90 L 16.10 27.12 C 13.88 30.09 11.60 33.03 9.10 35.77 C 8.88 36.02 8.43 36.51 8.21 36.75 C 8.18 39.39 8.41 42.08 9.74 44.42 C 7.01 41.90 3.07 39.27 3.84 34.97 Z" />
<path fill="#e4e2ac" opacity="1.00" d=" M 41.47 27.54 C 43.51 27.82 45.58 27.90 47.64 27.82 C 46.69 30.43 45.75 33.10 44.23 35.44 C 41.70 37.26 39.10 38.97 36.55 40.76 C 35.40 41.56 34.26 42.38 33.13 43.20 C 33.07 42.96 32.95 42.48 32.90 42.24 L 33.08 41.47 C 35.91 37.49 37.45 32.71 37.41 27.81 C 37.57 28.31 37.88 29.31 38.04 29.81 C 39.19 29.06 40.33 28.31 41.47 27.54 Z" />
<path fill="#ebebb3" opacity="1.00" d=" M 9.10 35.77 C 11.60 33.03 13.88 30.09 16.10 27.12 C 18.03 28.28 20.20 29.25 21.60 31.10 C 21.22 34.81 20.52 39.32 16.81 41.19 C 14.69 41.78 12.47 41.60 10.30 41.68 C 9.84 39.72 9.43 37.76 9.10 35.77 Z" />
<path fill="#7e6a51" opacity="1.00" d=" M 47.64 27.82 C 48.00 27.86 48.72 27.94 49.07 27.97 C 48.46 30.44 47.85 32.91 47.24 35.37 C 49.22 34.88 51.21 34.39 53.20 33.90 C 53.89 36.31 54.60 38.71 55.32 41.12 C 55.15 41.12 54.81 41.14 54.64 41.15 C 54.11 43.10 53.68 45.08 53.20 47.04 C 53.03 46.58 52.70 45.65 52.53 45.18 C 50.65 47.46 48.75 49.73 46.86 52.00 C 46.76 52.76 46.55 54.28 46.45 55.05 C 46.41 55.32 46.32 55.86 46.27 56.13 C 46.59 52.04 45.51 48.06 42.44 45.22 C 42.61 44.62 42.94 43.44 43.11 42.84 C 43.83 40.44 44.07 37.93 44.23 35.44 C 45.75 33.10 46.69 30.43 47.64 27.82 Z" />
<path fill="#41384c" opacity="1.00" d=" M 24.84 39.45 C 27.85 36.44 30.69 33.25 33.28 29.87 C 33.89 31.05 34.51 32.23 35.13 33.40 C 32.07 40.66 26.80 47.58 18.93 49.88 C 14.36 52.13 9.15 49.54 6.54 45.56 C 10.29 45.98 14.10 46.66 17.87 46.14 C 20.88 44.76 22.53 41.68 24.84 39.45 Z" />
<path fill="#928264" opacity="1.00" d=" M 21.60 31.10 C 25.99 36.65 20.13 45.85 13.35 44.62 C 12.04 44.01 11.28 42.69 10.30 41.68 C 12.47 41.60 14.69 41.78 16.81 41.19 C 20.52 39.32 21.22 34.81 21.60 31.10 Z" />
<path fill="#bc5a54" opacity="1.00" d=" M 53.20 33.90 C 54.69 33.11 56.18 32.32 57.68 31.53 C 58.36 31.91 59.72 32.68 60.39 33.06 C 60.16 35.78 59.85 38.50 59.13 41.14 C 58.18 41.13 56.27 41.12 55.32 41.12 C 54.60 38.71 53.89 36.31 53.20 33.90 Z" />
<path fill="#908163" opacity="1.00" d=" M 36.55 40.76 C 39.10 38.97 41.70 37.26 44.23 35.44 C 44.07 37.93 43.83 40.44 43.11 42.84 C 41.53 44.28 39.59 45.23 37.68 46.13 C 37.32 44.34 36.94 42.55 36.55 40.76 Z" />
<path fill="#a18c6d" opacity="1.00" d=" M 33.13 43.20 C 34.26 42.38 35.40 41.56 36.55 40.76 C 36.94 42.55 37.32 44.34 37.68 46.13 C 34.91 49.32 34.41 53.65 33.49 57.61 C 29.13 58.14 24.59 59.19 20.30 57.73 C 18.18 56.83 16.73 54.97 15.12 53.41 C 22.26 52.29 28.57 48.20 32.47 42.12 L 32.90 42.24 C 32.95 42.48 33.07 42.96 33.13 43.20 Z" />
<path fill="#31253d" opacity="1.00" d=" M 54.64 41.15 C 54.81 41.14 55.15 41.12 55.32 41.12 C 56.27 41.12 58.18 41.13 59.13 41.14 C 59.16 41.92 59.23 43.48 59.26 44.27 C 55.68 48.24 54.02 53.62 49.89 57.16 C 50.77 55.14 51.53 53.06 52.17 50.94 C 52.54 49.65 52.87 48.34 53.20 47.04 C 53.68 45.08 54.11 43.10 54.64 41.15 Z" />
<path fill="#32263e" opacity="1.00" d=" M 59.45 41.60 C 61.44 41.99 63.98 41.81 65.22 43.76 C 68.97 48.85 67.52 56.19 63.23 60.52 C 62.31 59.41 61.31 58.37 60.32 57.33 C 63.44 53.92 63.30 49.23 62.49 44.98 C 62.00 44.44 61.02 43.36 60.53 42.82 C 60.26 42.52 59.72 41.91 59.45 41.60 Z" />
<path fill="#948566" opacity="1.00" d=" M 59.26 44.27 L 60.53 42.82 C 61.02 43.36 62.00 44.44 62.49 44.98 C 63.30 49.23 63.44 53.92 60.32 57.33 C 59.08 59.14 57.89 61.00 56.79 62.91 C 56.74 62.89 56.64 62.86 56.59 62.85 C 53.03 62.02 50.00 64.49 47.01 65.99 C 46.63 65.42 45.88 64.29 45.50 63.72 C 46.82 61.44 48.24 59.22 49.89 57.16 C 54.02 53.62 55.68 48.24 59.26 44.27 Z" />
<path fill="#e4e2ac" opacity="1.00" d=" M 52.53 45.18 C 52.70 45.65 53.03 46.58 53.20 47.04 C 52.87 48.34 52.54 49.65 52.17 50.94 C 50.26 52.30 48.36 53.68 46.45 55.05 C 46.55 54.28 46.76 52.76 46.86 52.00 C 48.75 49.73 50.65 47.46 52.53 45.18 Z" />
<path fill="#bc5a54" opacity="1.00" d=" M 37.43 47.89 C 38.60 47.57 39.77 47.23 40.97 47.03 C 46.75 51.11 44.97 61.64 38.37 64.00 C 37.65 63.69 36.93 63.38 36.20 63.08 C 37.55 60.77 38.66 58.32 39.24 55.70 C 39.35 55.29 39.55 54.47 39.65 54.07 C 38.58 53.41 37.50 52.77 36.41 52.15 C 36.76 50.73 37.10 49.31 37.43 47.89 Z" />
<path fill="#f7e78a" opacity="1.00" d=" M 4.10 57.89 C 3.87 54.79 5.92 52.29 7.87 50.15 C 8.51 50.61 9.80 51.53 10.44 51.99 C 10.54 52.31 10.72 52.96 10.82 53.29 L 9.93 53.56 C 8.58 55.49 7.05 59.13 4.10 57.89 Z" />
<path fill="#ac9c79" opacity="1.00" d=" M 46.45 55.05 C 48.36 53.68 50.26 52.30 52.17 50.94 C 51.53 53.06 50.77 55.14 49.89 57.16 C 48.24 59.22 46.82 61.44 45.50 63.72 C 45.88 64.29 46.63 65.42 47.01 65.99 C 50.00 64.49 53.03 62.02 56.59 62.85 C 53.67 66.34 50.60 69.71 47.49 73.04 C 43.20 76.14 37.30 75.16 32.39 74.44 C 29.46 73.70 24.79 72.40 24.61 69.01 C 24.88 68.44 25.41 67.29 25.67 66.72 C 28.77 66.04 31.86 65.35 34.96 64.68 C 40.72 67.72 46.03 61.62 46.27 56.13 C 46.32 55.86 46.41 55.32 46.45 55.05 Z" />
<path fill="#fbee89" opacity="1.00" d=" M 36.41 52.15 C 37.50 52.77 38.58 53.41 39.65 54.07 C 39.55 54.47 39.35 55.29 39.24 55.70 C 38.46 56.56 37.67 57.41 36.86 58.25 C 36.52 57.76 35.83 56.76 35.49 56.27 C 35.72 55.24 36.18 53.18 36.41 52.15 Z" />
<path fill="#f8b956" opacity="1.00" d=" M 36.20 63.08 C 34.98 60.96 35.14 58.58 35.49 56.27 C 35.83 56.76 36.52 57.76 36.86 58.25 C 37.67 57.41 38.46 56.56 39.24 55.70 C 38.66 58.32 37.55 60.77 36.20 63.08 Z" />
<path fill="#504a5a" opacity="1.00" d=" M 69.52 57.18 C 76.60 57.49 82.94 61.02 88.19 65.57 C 87.85 66.73 87.50 67.89 87.16 69.06 C 86.89 68.92 86.35 68.66 86.08 68.53 C 79.74 65.43 73.39 62.02 66.32 60.96 L 66.10 60.62 C 67.05 59.29 68.52 58.47 69.52 57.18 Z" />
<path fill="#c86d54" opacity="1.00" d=" M 56.79 62.91 C 57.89 61.00 59.08 59.14 60.32 57.33 C 61.31 58.37 62.31 59.41 63.23 60.52 L 62.68 62.02 C 62.24 63.15 61.83 64.29 61.42 65.43 C 59.84 64.65 58.36 63.71 56.79 62.91 Z" />
<path fill="#d1b591" opacity="1.00" d=" M 23.87 61.44 C 27.23 60.92 30.78 60.43 33.51 58.20 C 33.50 60.45 33.92 62.67 34.96 64.68 C 31.86 65.35 28.77 66.04 25.67 66.72 C 25.41 67.29 24.88 68.44 24.61 69.01 L 24.21 69.86 C 23.54 67.09 23.52 64.25 23.87 61.44 Z" />
<path fill="#f1f1b8" opacity="1.00" d=" M 66.32 60.96 C 73.39 62.02 79.74 65.43 86.08 68.53 C 83.15 69.77 80.33 71.46 78.42 74.08 C 78.80 75.31 79.61 75.90 80.85 75.85 C 83.87 75.77 86.60 74.28 89.15 72.79 C 89.42 74.04 89.61 75.30 89.80 76.56 C 88.93 81.04 87.93 85.72 84.71 89.17 C 80.45 90.85 75.86 91.18 71.35 90.55 C 71.19 88.92 71.03 87.30 70.83 85.68 C 69.86 78.89 67.03 72.56 64.11 66.42 L 62.68 66.99 C 62.61 66.80 62.47 66.42 62.41 66.23 C 62.86 65.51 63.32 64.80 63.78 64.08 C 64.29 63.42 65.29 62.09 65.79 61.42 L 66.32 60.96 Z" />
<path fill="#514a5b" opacity="1.00" d=" M 61.42 65.43 C 61.83 64.29 62.24 63.15 62.68 62.02 C 62.95 62.54 63.51 63.57 63.78 64.08 C 63.32 64.80 62.86 65.51 62.41 66.23 C 62.47 66.42 62.61 66.80 62.68 66.99 C 62.86 67.53 63.24 68.61 63.43 69.14 C 62.26 71.12 61.08 73.08 59.88 75.03 C 59.10 73.41 58.34 71.78 57.60 70.14 C 59.78 69.43 60.90 67.55 61.42 65.43 Z" />
<path fill="#2f223b" opacity="1.00" d=" M 56.59 62.85 C 56.64 62.86 56.74 62.89 56.79 62.91 C 58.36 63.71 59.84 64.65 61.42 65.43 C 60.90 67.55 59.78 69.43 57.60 70.14 C 57.01 70.45 56.43 70.77 55.84 71.08 C 53.12 71.98 50.31 72.56 47.49 73.04 C 50.60 69.71 53.67 66.34 56.59 62.85 Z" />
<path fill="#30243d" opacity="1.00" d=" M 88.19 65.57 C 91.97 69.53 93.50 74.88 95.10 79.97 L 93.85 79.62 C 92.39 78.76 91.06 77.70 89.80 76.56 C 89.61 75.30 89.42 74.04 89.15 72.79 C 88.59 71.50 87.92 70.25 87.16 69.06 C 87.50 67.89 87.85 66.73 88.19 65.57 Z" />
<path fill="#2d213a" opacity="1.00" d=" M 63.43 69.14 C 65.07 72.63 66.52 76.25 66.97 80.11 C 66.03 79.81 65.07 79.54 64.12 79.29 C 62.81 78.25 61.58 77.11 60.36 75.97 C 60.24 75.73 60.00 75.26 59.88 75.03 C 61.08 73.08 62.26 71.12 63.43 69.14 Z" />
<path fill="#000000" opacity="1.00" d=" M 78.42 74.08 C 80.33 71.46 83.15 69.77 86.08 68.53 C 86.35 68.66 86.89 68.92 87.16 69.06 C 87.92 70.25 88.59 71.50 89.15 72.79 C 86.60 74.28 83.87 75.77 80.85 75.85 C 79.61 75.90 78.80 75.31 78.42 74.08 M 80.36 74.00 C 82.95 73.61 85.74 73.07 87.51 70.94 C 84.64 70.23 82.23 72.09 80.36 74.00 Z" />
<path fill="#544d5c" opacity="1.00" d=" M 93.63 69.01 C 97.61 69.53 101.58 70.33 105.30 71.92 C 104.50 72.30 102.89 73.07 102.09 73.46 C 99.63 73.03 97.23 72.31 94.85 71.56 L 94.40 71.42 C 94.21 70.82 93.82 69.61 93.63 69.01 Z" />
<path fill="#a49977" opacity="1.00" d=" M 55.84 71.08 C 56.43 70.77 57.01 70.45 57.60 70.14 C 58.34 71.78 59.10 73.41 59.88 75.03 C 60.00 75.26 60.24 75.73 60.36 75.97 C 59.77 75.93 58.58 75.84 57.99 75.80 C 57.55 75.78 56.66 75.74 56.22 75.72 C 56.77 74.12 57.30 72.51 57.82 70.91 C 57.08 71.20 55.61 71.80 54.87 72.09 L 55.84 71.08 Z" />
<path fill="#f7e78a" opacity="1.00" d=" M 80.36 74.00 C 82.23 72.09 84.64 70.23 87.51 70.94 C 85.74 73.07 82.95 73.61 80.36 74.00 Z" />
<path fill="#f2eeb6" opacity="1.00" d=" M 44.68 77.24 C 48.34 76.09 51.60 74.05 54.87 72.09 C 55.61 71.80 57.08 71.20 57.82 70.91 C 57.30 72.51 56.77 74.12 56.22 75.72 C 51.87 76.85 50.54 81.59 48.85 85.18 C 46.29 85.53 43.73 85.93 41.16 86.17 C 34.71 86.31 28.27 85.62 21.83 85.38 L 21.85 84.72 C 22.46 84.36 23.67 83.65 24.27 83.30 C 24.82 82.18 25.37 81.06 25.91 79.94 C 31.63 82.13 37.95 82.37 43.62 79.88 C 43.86 79.28 44.34 78.08 44.58 77.48 L 44.68 77.24 Z" />
<path fill="#fbfdc1" opacity="1.00" d=" M 94.85 71.56 C 97.23 72.31 99.63 73.03 102.09 73.46 C 101.08 74.80 98.98 76.03 100.31 77.90 C 103.01 78.85 105.87 77.63 107.86 75.77 C 108.47 77.48 109.25 79.12 110.02 80.76 C 107.72 82.59 106.00 85.00 106.19 88.09 C 105.12 88.69 104.06 89.29 103.00 89.89 C 101.41 88.76 99.83 87.63 98.24 86.50 C 98.25 81.32 96.58 76.38 94.85 71.56 Z" />
<path fill="#fffe95" opacity="1.00" d=" M 24.31 74.05 C 30.34 77.91 37.66 78.38 44.58 77.48 C 44.34 78.08 43.86 79.28 43.62 79.88 C 37.95 82.37 31.63 82.13 25.91 79.94 C 25.37 81.06 24.82 82.18 24.27 83.30 C 23.67 83.65 22.46 84.36 21.85 84.72 L 21.89 83.00 C 21.94 79.86 23.14 76.92 24.31 74.05 Z" />
<path fill="#fffe95" opacity="1.00" d=" M 103.38 74.25 C 104.25 73.19 107.11 73.77 105.63 75.36 C 104.41 77.46 100.21 75.92 103.38 74.25 Z" />
<path fill="#534d5d" opacity="1.00" d=" M 107.45 72.85 C 111.08 75.05 114.02 78.49 115.24 82.58 L 115.30 84.26 C 114.71 83.70 114.12 83.16 113.52 82.63 C 112.36 81.99 111.20 81.36 110.02 80.76 C 109.25 79.12 108.47 77.48 107.86 75.77 C 107.76 75.04 107.55 73.58 107.45 72.85 Z" />
<path fill="#fffe95" opacity="1.00" d=" M 15.09 83.86 C 16.86 80.36 18.88 76.90 21.94 74.36 C 21.24 76.45 20.45 78.51 19.87 80.64 C 18.81 81.50 17.75 82.37 16.62 83.15 C 16.24 83.32 15.48 83.68 15.09 83.86 Z" />
<path fill="#000000" opacity="1.00" d=" M 48.85 85.18 C 50.54 81.59 51.87 76.85 56.22 75.72 C 56.66 75.74 57.55 75.78 57.99 75.80 C 64.94 81.57 58.06 93.58 49.96 93.37 C 46.84 93.14 48.41 89.10 48.21 87.02 C 48.37 86.56 48.69 85.64 48.85 85.18 M 53.20 78.86 C 51.50 82.55 49.87 86.40 50.07 90.57 L 49.33 91.75 C 54.99 90.77 59.63 84.96 57.82 79.18 C 57.39 79.04 56.53 78.75 56.10 78.60 C 55.37 78.67 53.93 78.80 53.20 78.86 Z" />
<path fill="#735643" opacity="1.00" d=" M 57.99 75.80 C 58.58 75.84 59.77 75.93 60.36 75.97 C 61.58 77.11 62.81 78.25 64.12 79.29 C 63.23 79.79 62.34 80.29 61.46 80.82 C 62.19 81.97 62.93 83.13 63.63 84.30 C 60.91 90.10 60.14 96.61 57.04 102.27 C 52.09 103.32 47.02 104.54 41.93 103.68 C 37.23 103.21 32.91 101.14 29.00 98.59 C 29.86 98.01 30.71 97.44 31.57 96.86 C 31.16 94.53 30.75 92.20 30.35 89.86 C 36.31 88.96 42.24 87.88 48.21 87.02 C 48.41 89.10 46.84 93.14 49.96 93.37 C 58.06 93.58 64.94 81.57 57.99 75.80 Z" />
<path fill="#614133" opacity="1.00" d=" M 84.71 89.17 C 87.93 85.72 88.93 81.04 89.80 76.56 C 91.06 77.70 92.39 78.76 93.85 79.62 C 92.53 79.31 91.32 79.51 90.23 80.23 C 87.97 82.43 90.35 85.22 92.39 86.47 C 91.64 90.02 91.28 93.64 91.15 97.27 C 90.51 97.63 89.24 98.35 88.61 98.71 C 89.54 100.96 90.49 103.23 91.76 105.32 C 90.42 103.97 89.05 102.64 87.68 101.33 C 82.67 102.46 77.54 102.07 72.49 101.51 C 71.92 99.73 71.33 97.96 70.73 96.20 C 73.48 95.82 76.22 95.34 78.86 94.48 C 81.53 93.72 83.04 91.17 84.71 89.17 Z" />
<path fill="#fffe95" opacity="1.00" d=" M 53.20 78.86 C 53.93 78.80 55.37 78.67 56.10 78.60 C 54.51 82.80 52.45 86.77 50.07 90.57 C 49.87 86.40 51.50 82.55 53.20 78.86 Z" />
<path fill="#bb5954" opacity="1.00" d=" M 56.10 78.60 C 56.53 78.75 57.39 79.04 57.82 79.18 C 59.63 84.96 54.99 90.77 49.33 91.75 L 50.07 90.57 C 52.45 86.77 54.51 82.80 56.10 78.60 Z" />
<path fill="#c06254" opacity="1.00" d=" M 64.12 79.29 C 65.07 79.54 66.03 79.81 66.97 80.11 C 67.32 80.57 68.02 81.49 68.37 81.95 C 68.11 83.17 67.85 84.40 67.59 85.62 C 66.81 85.67 65.26 85.77 64.48 85.82 C 64.27 85.44 63.84 84.68 63.63 84.30 C 62.93 83.13 62.19 81.97 61.46 80.82 C 62.34 80.29 63.23 79.79 64.12 79.29 Z" />
<path fill="#bc5a54" opacity="1.00" d=" M 90.23 80.23 C 91.32 79.51 92.53 79.31 93.85 79.62 L 95.10 79.97 C 95.30 82.22 95.48 84.48 95.56 86.74 C 94.77 86.67 93.19 86.54 92.39 86.47 C 90.35 85.22 87.97 82.43 90.23 80.23 Z" />
<path fill="#b3694a" opacity="1.00" d=" M 16.62 83.15 C 17.75 82.37 18.81 81.50 19.87 80.64 C 19.70 82.12 19.51 83.60 19.33 85.08 C 17.68 86.53 16.02 88.14 13.79 88.65 C 14.10 87.08 14.45 85.52 14.83 83.97 L 15.09 83.86 C 15.48 83.68 16.24 83.32 16.62 83.15 Z" />
<path fill="#eca855" opacity="1.00" d=" M 110.02 80.76 C 111.20 81.36 112.36 81.99 113.52 82.63 C 111.65 84.78 109.69 86.84 107.66 88.83 C 107.29 88.64 106.56 88.27 106.19 88.09 C 106.00 85.00 107.72 82.59 110.02 80.76 Z" />
<path fill="#33283f" opacity="1.00" d=" M 68.37 81.95 C 69.09 87.59 69.31 93.97 64.82 98.22 C 64.92 94.09 64.97 89.93 64.48 85.82 C 65.26 85.77 66.81 85.67 67.59 85.62 C 67.85 84.40 68.11 83.17 68.37 81.95 Z" />
<path fill="#bc5b54" opacity="1.00" d=" M 113.52 82.63 C 114.12 83.16 114.71 83.70 115.30 84.26 C 115.85 87.13 114.05 89.37 112.07 91.17 C 111.54 90.88 110.48 90.30 109.95 90.00 C 109.38 89.71 108.23 89.12 107.66 88.83 C 109.69 86.84 111.65 84.78 113.52 82.63 Z" />
<path fill="#ad9b79" opacity="1.00" d=" M 26.05 95.66 C 22.31 92.63 21.22 87.58 21.89 83.00 L 21.85 84.72 L 21.83 85.38 C 28.27 85.62 34.71 86.31 41.16 86.17 C 36.62 86.90 31.16 85.96 27.63 89.53 C 25.90 91.05 26.19 93.58 26.05 95.66 Z" />
<path fill="#2b1e37" opacity="1.00" d=" M 115.24 82.58 C 117.70 88.62 115.74 95.07 112.42 100.32 L 112.26 99.06 C 112.01 96.43 112.04 93.80 112.07 91.17 C 114.05 89.37 115.85 87.13 115.30 84.26 L 115.24 82.58 Z" />
<path fill="#93795e" opacity="1.00" d=" M 41.16 86.17 C 43.73 85.93 46.29 85.53 48.85 85.18 C 48.69 85.64 48.37 86.56 48.21 87.02 C 42.24 87.88 36.31 88.96 30.35 89.86 C 30.75 92.20 31.16 94.53 31.57 96.86 C 30.71 97.44 29.86 98.01 29.00 98.59 C 28.06 97.57 26.89 96.75 26.05 95.66 C 26.19 93.58 25.90 91.05 27.63 89.53 C 31.16 85.96 36.62 86.90 41.16 86.17 Z" />
<path fill="#664838" opacity="1.00" d=" M 57.04 102.27 C 60.14 96.61 60.91 90.10 63.63 84.30 C 63.84 84.68 64.27 85.44 64.48 85.82 C 64.97 89.93 64.92 94.09 64.82 98.22 C 62.70 100.34 59.85 101.43 57.04 102.27 Z" />
<path fill="#745946" opacity="1.00" d=" M 70.83 85.68 C 71.03 87.30 71.19 88.92 71.35 90.55 C 75.86 91.18 80.45 90.85 84.71 89.17 C 83.04 91.17 81.53 93.72 78.86 94.48 C 76.22 95.34 73.48 95.82 70.73 96.20 C 69.48 92.89 71.14 89.16 70.83 85.68 Z" />
<path fill="#31253d" opacity="1.00" d=" M 91.15 97.27 C 91.28 93.64 91.64 90.02 92.39 86.47 C 93.19 86.54 94.77 86.67 95.56 86.74 C 94.86 89.98 94.22 93.23 93.63 96.48 C 93.01 96.68 91.77 97.07 91.15 97.27 Z" />
<path fill="#b6a581" opacity="1.00" d=" M 98.24 86.50 C 99.83 87.63 101.41 88.76 103.00 89.89 C 104.06 89.29 105.12 88.69 106.19 88.09 C 106.56 88.27 107.29 88.64 107.66 88.83 C 108.23 89.12 109.38 89.71 109.95 90.00 C 106.07 92.42 101.54 93.11 97.04 92.86 C 97.41 90.73 97.80 88.61 98.24 86.50 Z" />
<path fill="#7e624d" opacity="1.00" d=" M 109.95 90.00 C 110.48 90.30 111.54 90.88 112.07 91.17 C 112.04 93.80 112.01 96.43 112.26 99.06 C 110.95 99.89 109.54 100.60 108.38 101.65 L 108.11 101.89 C 104.53 102.61 100.85 102.81 97.26 102.07 C 96.79 99.74 96.27 97.43 95.71 95.12 C 96.04 94.55 96.71 93.42 97.04 92.86 C 101.54 93.11 106.07 92.42 109.95 90.00 Z" />
<path fill="#fffe95" opacity="1.00" d=" M 67.51 99.32 C 67.79 98.86 68.36 97.95 68.65 97.49 C 68.92 97.98 69.46 98.97 69.73 99.47 C 68.96 99.90 68.22 99.85 67.51 99.32 Z" />
<path fill="#f8b956" opacity="1.00" d=" M 91.15 97.27 C 91.77 97.07 93.01 96.68 93.63 96.48 L 94.58 96.21 C 94.74 99.20 96.52 105.30 91.76 105.32 C 90.49 103.23 89.54 100.96 88.61 98.71 C 89.24 98.35 90.51 97.63 91.15 97.27 Z" />
<path fill="#eca855" opacity="1.00" d=" M 25.49 99.02 C 26.78 100.06 28.06 101.11 29.34 102.15 C 28.05 102.92 26.75 103.67 25.44 104.41 C 25.46 102.61 25.47 100.82 25.49 99.02 Z" />
<path fill="#eca855" opacity="1.00" d=" M 66.54 98.81 L 67.51 99.32 C 68.22 99.85 68.96 99.90 69.73 99.47 C 70.04 100.54 70.36 101.61 70.70 102.68 C 70.54 103.79 70.36 104.91 70.19 106.02 C 69.07 104.09 67.90 102.17 67.04 100.11 L 66.54 98.81 Z" />
<path fill="#bc5b54" opacity="1.00" d=" M 63.07 102.51 C 64.39 101.71 65.71 100.90 67.04 100.11 C 67.90 102.17 69.07 104.09 70.19 106.02 C 67.63 105.26 65.29 103.97 63.07 102.51 Z" />
<path fill="#eca855" opacity="1.00" d=" M 108.38 101.65 C 109.54 100.60 110.95 99.89 112.26 99.06 L 112.42 100.32 L 112.59 101.54 C 113.18 101.43 114.35 101.19 114.94 101.08 C 114.72 102.23 114.49 103.39 114.27 104.55 C 112.60 103.42 110.92 102.28 109.27 101.12 L 108.26 102.35 C 108.29 102.18 108.35 101.82 108.38 101.65 Z" />
</svg>
