<?xml version="1.0" encoding="UTF-8" ?>
<!DOCTYPE svg PUBLIC "-//W3C//DTD SVG 1.1//EN" "http://www.w3.org/Graphics/SVG/1.1/DTD/svg11.dtd">
<svg width="166pt" height="214pt" viewBox="0 0 166 214" version="1.1" xmlns="http://www.w3.org/2000/svg">
<path fill="#000000" opacity="1.00" d=" M 50.76 0.00 L 51.72 0.00 C 55.68 3.62 58.91 8.08 60.88 13.08 C 64.85 23.37 66.98 34.37 67.04 45.41 C 71.54 48.77 71.98 54.55 71.97 59.70 C 72.75 59.84 74.30 60.10 75.07 60.23 C 75.20 61.52 75.32 62.81 75.45 64.11 C 82.53 66.35 87.56 59.44 93.21 56.52 C 92.37 59.47 91.40 62.38 90.35 65.26 C 92.28 67.66 93.38 70.53 93.37 73.63 C 98.66 75.64 103.86 77.85 109.09 79.99 C 108.03 76.86 106.99 73.73 105.94 70.60 C 105.18 70.06 103.65 68.96 102.89 68.42 C 110.59 68.72 118.03 71.01 125.08 73.98 C 135.04 78.65 144.77 84.02 153.05 91.33 C 156.27 86.58 159.29 80.72 165.42 79.36 C 165.23 84.83 162.24 89.54 159.37 93.99 C 160.25 94.76 161.13 95.52 162.02 96.29 C 162.06 97.39 162.09 98.49 162.13 99.59 C 162.53 100.20 163.32 101.42 163.72 102.03 C 162.90 102.77 162.09 103.50 161.28 104.24 C 161.30 104.80 161.33 105.91 161.35 106.47 C 158.77 109.23 156.32 112.14 153.30 114.44 C 151.89 119.42 151.04 124.72 148.13 129.12 C 137.34 144.26 124.08 158.23 107.26 166.64 C 115.15 178.00 122.42 190.18 126.03 203.62 C 135.54 205.27 145.13 206.50 154.57 208.59 C 158.43 209.46 162.60 209.68 165.99 211.92 C 164.07 212.43 162.10 212.96 160.09 212.75 C 150.38 211.96 140.67 211.09 130.94 210.82 C 128.98 210.37 127.83 211.71 127.02 213.30 C 125.90 212.20 124.78 211.10 123.67 210.00 C 116.35 212.44 108.57 211.67 100.99 211.54 C 92.94 211.38 85.00 209.71 76.93 209.76 C 66.41 209.13 55.81 208.16 45.65 205.21 C 41.13 203.87 36.24 203.18 32.48 200.11 C 31.21 200.60 29.94 201.11 28.67 201.62 C 31.85 194.32 34.96 187.00 37.53 179.47 C 39.79 172.68 43.79 166.30 44.00 158.98 C 44.53 152.07 45.48 144.87 43.13 138.17 C 42.29 135.41 40.52 132.97 39.98 130.11 C 41.79 127.57 44.88 126.59 47.59 125.33 C 45.62 123.26 43.77 121.08 42.01 118.83 C 41.03 122.00 40.25 125.22 39.36 128.41 C 37.92 126.95 36.27 125.05 33.96 125.90 C 31.78 127.15 30.13 129.12 28.16 130.65 C 28.48 128.22 28.70 125.73 29.53 123.41 C 30.91 120.06 33.77 117.68 35.64 114.64 C 39.26 108.84 42.31 102.64 46.72 97.37 C 48.28 98.05 49.84 98.74 51.39 99.43 C 51.87 97.94 52.35 96.45 52.82 94.96 C 51.05 92.78 48.96 90.63 48.31 87.80 C 47.71 84.60 48.73 81.41 48.83 78.22 C 46.33 75.26 42.80 73.40 40.23 70.49 C 43.37 70.39 46.93 72.65 49.81 71.11 C 46.98 67.42 44.07 63.40 44.79 58.45 C 35.51 55.76 26.42 52.37 17.80 48.01 C 11.78 44.99 5.53 42.29 0.14 38.18 C 2.30 37.21 4.67 36.66 7.02 37.25 C 21.50 40.13 36.45 45.26 46.42 56.75 C 49.74 52.35 53.84 48.45 59.03 46.38 C 55.87 39.29 52.94 32.00 51.82 24.28 C 50.68 16.26 49.32 8.08 50.76 0.00 M 52.42 2.72 C 52.14 10.39 52.97 18.07 54.43 25.60 L 54.19 25.76 C 55.53 29.76 56.15 34.04 58.08 37.81 C 59.35 42.20 60.63 47.09 64.38 50.05 C 64.68 40.56 64.51 30.87 61.28 21.83 C 59.61 14.96 56.33 8.58 52.42 2.72 M 6.71 39.97 C 13.72 44.03 21.14 47.35 28.53 50.65 L 28.59 50.91 C 33.79 52.49 38.70 54.81 43.82 56.59 C 39.21 51.80 33.22 48.66 27.29 45.82 C 20.47 43.75 13.84 40.80 6.71 39.97 M 54.93 52.54 C 52.00 54.78 49.37 57.56 47.79 60.93 C 47.94 63.25 49.30 65.25 50.64 67.06 C 51.80 68.37 53.09 69.56 54.34 70.78 C 55.58 70.58 56.83 70.38 58.08 70.19 C 59.10 68.80 60.14 67.41 61.17 66.02 C 59.65 66.37 58.12 66.73 56.60 67.07 C 56.07 61.17 59.71 56.22 63.88 52.50 C 62.91 51.32 61.98 50.11 60.88 49.05 C 58.54 49.31 56.44 50.80 54.93 52.54 M 66.55 49.42 C 64.14 53.46 66.48 58.48 64.38 62.73 C 66.00 61.84 67.63 60.96 69.26 60.09 C 68.94 56.41 68.92 52.61 67.59 49.11 C 67.33 49.19 66.81 49.34 66.55 49.42 M 57.67 66.13 C 62.31 63.96 65.55 59.06 64.42 53.83 C 60.60 56.75 57.41 61.09 57.67 66.13 M 85.66 63.75 C 86.45 63.90 88.05 64.19 88.84 64.33 C 89.35 62.67 89.85 61.00 90.32 59.33 C 88.70 60.74 87.14 62.21 85.66 63.75 M 58.64 77.52 C 62.42 74.36 66.61 71.53 69.65 67.59 C 71.00 66.03 70.48 63.81 70.69 61.93 C 64.05 63.96 59.00 70.58 58.64 77.52 M 82.03 65.21 L 82.60 65.71 C 78.65 66.56 75.02 70.01 75.21 74.33 C 75.84 80.12 83.80 80.28 87.69 77.69 C 91.33 75.55 90.31 70.81 88.82 67.63 C 86.78 66.31 84.64 64.59 82.03 65.21 M 67.51 74.22 C 66.72 78.97 66.82 84.03 64.50 88.39 C 63.00 91.48 60.11 93.49 57.72 95.83 C 58.99 95.78 60.26 95.65 61.51 95.45 C 68.12 92.19 72.25 85.98 77.04 80.68 C 75.13 78.50 73.98 75.85 73.49 73.00 C 74.26 70.39 75.39 67.94 76.84 65.65 C 72.71 67.20 71.40 72.16 67.51 74.22 M 51.13 74.46 C 52.43 75.36 53.94 73.09 52.81 72.11 C 51.45 71.14 50.05 73.45 51.13 74.46 M 109.90 71.57 C 110.57 73.70 111.12 75.87 111.99 77.93 C 112.76 82.34 114.43 86.56 116.65 90.44 C 117.28 91.94 119.21 91.71 120.45 92.31 C 127.08 93.38 133.65 95.03 140.39 95.19 L 140.64 95.39 C 142.74 95.56 144.84 95.68 146.95 95.80 C 147.54 94.08 148.14 92.36 148.76 90.65 C 146.31 88.70 143.88 86.57 140.94 85.38 C 138.85 86.13 136.69 87.51 134.42 86.47 C 130.40 85.04 125.02 82.20 126.12 77.07 C 120.87 74.81 115.50 72.79 109.90 71.57 M 46.37 72.97 C 45.44 74.32 47.89 75.55 48.82 74.51 C 49.79 73.11 47.33 71.88 46.37 72.97 M 50.17 81.98 C 49.32 85.53 50.98 88.98 53.12 91.71 C 54.11 92.44 55.09 93.17 56.08 93.91 C 63.15 90.81 65.53 82.69 66.19 75.63 C 64.66 76.64 62.73 77.36 61.57 78.79 C 59.96 78.90 58.35 79.02 56.74 79.14 C 56.66 76.85 56.61 74.55 56.65 72.25 C 53.64 74.82 51.28 78.16 50.17 81.98 M 90.89 78.67 C 97.27 81.27 103.88 83.25 110.50 85.17 C 109.70 83.87 109.58 81.82 107.90 81.30 C 102.85 79.39 97.68 77.75 92.73 75.58 C 92.11 76.61 91.50 77.64 90.89 78.67 M 126.50 78.53 C 128.99 82.94 134.39 87.20 139.66 85.13 C 135.90 82.02 131.49 78.87 126.50 78.53 M 78.03 81.10 C 75.81 85.71 72.97 90.08 69.00 93.37 C 71.92 97.17 71.14 102.65 67.21 105.43 C 68.27 108.19 68.37 111.13 67.62 114.00 C 72.52 111.42 77.57 108.77 83.11 107.95 C 81.03 114.07 75.78 118.20 71.02 122.21 C 72.42 122.70 74.44 122.32 75.41 123.71 C 78.13 127.24 79.51 131.55 81.60 135.44 C 83.78 139.53 85.56 143.82 87.15 148.17 C 94.26 143.10 100.89 137.41 107.57 131.80 C 119.88 122.40 130.75 111.17 143.69 102.59 C 145.23 101.67 143.84 99.63 143.99 98.22 C 135.61 98.68 127.12 97.40 119.13 94.87 C 115.27 93.79 113.33 90.12 110.79 87.38 C 103.78 84.79 96.27 83.65 89.58 80.19 C 85.78 80.57 81.94 81.88 78.03 81.10 M 154.90 91.82 C 156.14 92.20 157.39 92.59 158.63 92.97 C 160.43 88.87 162.40 84.83 163.77 80.55 C 159.92 83.53 157.70 87.95 154.90 91.82 M 150.30 97.97 C 153.52 99.25 156.79 100.38 159.96 101.80 C 160.83 100.04 160.15 98.01 160.15 96.14 C 157.40 94.57 154.59 93.11 151.76 91.71 C 149.96 93.34 149.59 95.69 150.30 97.97 M 54.27 95.72 C 53.11 98.95 51.97 102.19 50.97 105.48 C 53.86 104.19 56.42 101.56 56.65 98.30 C 55.92 97.38 55.08 96.56 54.27 95.72 M 60.58 98.92 C 60.69 99.74 60.90 101.36 61.01 102.17 C 63.20 102.20 66.54 103.46 67.64 100.71 C 68.73 98.67 67.42 96.72 66.29 95.08 C 64.38 96.36 62.48 97.65 60.58 98.92 M 146.27 98.44 C 145.87 99.85 146.36 100.33 147.76 99.91 C 148.16 98.50 147.66 98.01 146.27 98.44 M 47.11 99.54 C 46.01 101.17 44.87 102.78 43.77 104.41 L 43.63 104.49 C 42.66 106.51 41.59 108.48 40.43 110.40 C 41.61 110.70 42.78 111.01 43.95 111.32 C 45.37 112.14 46.79 112.96 48.22 113.77 C 50.89 111.24 55.02 109.45 55.43 105.36 C 53.59 105.68 51.76 106.02 49.92 106.36 C 49.94 105.47 49.97 103.69 49.98 102.79 C 50.18 102.19 50.57 100.99 50.76 100.39 C 49.54 100.13 48.32 99.84 47.11 99.54 M 55.68 103.60 C 56.29 104.94 56.89 106.28 57.47 107.63 C 58.59 106.63 59.73 105.63 60.86 104.64 C 60.21 104.11 59.56 103.59 58.91 103.06 C 58.77 101.73 58.64 100.40 58.51 99.07 C 57.58 100.59 56.63 102.09 55.68 103.60 M 148.98 100.86 C 151.73 103.85 153.77 107.39 154.87 111.31 C 156.93 108.92 158.20 106.05 157.25 102.87 C 154.48 102.22 151.73 101.54 148.98 100.86 M 145.65 102.64 C 143.88 104.58 141.92 106.31 139.82 107.89 L 139.80 108.19 C 130.66 114.97 122.42 122.86 113.55 129.97 L 113.47 130.36 C 107.79 134.41 102.41 138.90 97.22 143.54 C 89.63 149.47 82.05 155.44 74.67 161.65 C 65.32 168.47 56.79 176.32 47.68 183.44 C 47.53 183.17 47.22 182.63 47.07 182.36 C 50.25 179.11 53.92 176.39 57.18 173.22 C 65.56 165.25 75.12 158.71 83.94 151.26 C 79.97 148.20 76.57 144.48 73.61 140.45 C 70.26 135.93 66.90 131.26 65.18 125.84 C 61.72 128.23 57.34 128.66 53.88 130.95 C 53.32 135.03 53.46 139.25 52.13 143.21 C 51.17 146.45 49.21 149.26 47.39 152.07 C 50.15 153.37 55.12 153.88 54.85 157.94 C 54.23 166.65 49.77 174.41 45.99 182.08 C 45.43 182.87 45.84 183.76 46.10 184.57 C 44.91 185.35 43.71 186.11 42.54 186.91 C 52.46 185.78 62.04 182.81 71.47 179.65 C 81.16 175.42 90.95 171.45 100.77 167.54 C 101.22 167.24 101.67 166.94 102.11 166.63 C 106.69 164.69 111.67 163.11 115.17 159.37 C 121.95 154.49 128.44 149.07 133.88 142.70 C 136.54 140.37 138.40 137.30 140.66 134.60 C 143.86 130.57 147.26 126.49 148.76 121.45 L 148.87 121.46 C 149.41 119.10 150.10 116.76 150.46 114.36 C 151.11 111.99 151.87 109.51 151.34 107.04 C 150.47 105.11 149.04 103.53 147.77 101.87 C 147.24 102.06 146.18 102.45 145.65 102.64 M 60.43 107.13 L 60.55 107.49 C 58.27 109.90 56.33 112.69 55.70 116.01 C 58.14 116.87 60.72 117.23 63.26 116.57 C 66.26 113.46 66.40 108.56 63.99 105.07 C 62.80 105.75 61.62 106.44 60.43 107.13 M 49.05 114.43 C 50.62 115.21 52.21 115.96 53.80 116.70 C 54.05 113.70 55.17 110.92 56.81 108.42 C 54.48 110.74 51.77 112.61 49.05 114.43 M 37.65 118.50 C 39.01 118.49 40.32 118.16 41.65 117.91 C 41.09 115.72 40.55 113.53 39.98 111.35 C 38.69 113.47 36.16 115.83 37.65 118.50 M 63.61 118.48 C 61.66 119.52 59.51 120.77 58.71 122.97 C 58.37 124.28 57.50 126.49 59.75 126.20 C 66.86 122.66 73.67 118.03 78.61 111.72 C 73.25 113.08 68.51 116.01 63.61 118.48 M 42.70 113.47 C 43.76 117.64 46.72 120.80 49.60 123.82 C 49.56 121.55 49.60 119.29 49.74 117.03 C 47.44 115.74 45.11 114.53 42.70 113.47 M 31.29 124.36 C 33.89 124.29 36.48 124.40 39.06 124.65 C 38.88 123.84 38.51 122.23 38.33 121.42 C 37.27 120.29 36.24 119.12 35.25 117.94 C 33.93 120.08 32.60 122.21 31.29 124.36 M 51.56 118.54 C 51.74 121.84 52.81 124.97 54.38 127.84 C 55.13 127.51 55.88 127.17 56.63 126.84 C 56.32 126.37 55.70 125.42 55.39 124.95 C 56.47 122.89 57.60 120.85 58.76 118.84 C 56.37 118.58 53.97 118.50 51.56 118.54 M 69.79 126.75 C 69.31 126.65 68.36 126.46 67.89 126.36 C 71.61 134.97 77.77 142.48 84.65 148.80 C 81.22 140.49 77.66 132.15 73.09 124.40 C 71.99 125.18 70.89 125.97 69.79 126.75 M 48.01 126.69 L 48.43 127.20 C 46.23 128.15 44.06 129.15 41.90 130.20 C 42.73 132.06 43.58 133.91 44.43 135.77 C 46.16 140.69 46.95 145.91 46.37 151.12 C 50.62 144.39 52.92 136.23 51.65 128.29 C 51.41 126.68 49.13 127.20 48.01 126.69 M 45.60 165.10 C 41.43 174.59 37.61 184.25 34.12 194.01 C 39.47 187.12 45.15 180.18 48.02 171.83 C 50.45 167.28 52.22 162.19 52.14 156.99 C 50.91 155.76 49.19 155.20 47.70 154.35 C 47.10 157.94 45.67 161.46 45.60 165.10 M 99.08 170.47 C 100.72 172.78 102.43 175.04 104.24 177.23 L 104.68 177.35 C 112.03 187.24 118.76 197.59 124.99 208.22 C 122.25 198.54 118.63 188.91 112.97 180.55 C 110.87 176.07 108.32 171.74 105.00 168.07 C 102.94 168.64 101.03 169.61 99.08 170.47 M 76.91 179.95 C 65.47 184.52 53.47 188.20 41.08 188.73 C 39.47 191.08 37.82 193.39 36.14 195.69 C 49.99 193.27 64.11 194.51 78.06 195.19 C 91.60 196.56 105.43 197.08 118.53 201.08 C 111.58 191.06 104.73 180.98 96.83 171.67 C 90.21 174.46 83.44 176.91 76.91 179.95 Z" />
<path fill="#778597" opacity="1.00" d=" M 52.42 2.72 C 56.33 8.58 59.61 14.96 61.28 21.83 L 61.32 22.15 C 58.84 22.89 56.54 24.11 54.43 25.60 C 52.97 18.07 52.14 10.39 52.42 2.72 Z" />
<path fill="#616d85" opacity="1.00" d=" M 54.43 25.60 C 56.54 24.11 58.84 22.89 61.32 22.15 C 61.49 27.98 60.50 33.75 59.24 39.41 C 58.95 39.01 58.37 38.21 58.08 37.81 C 56.15 34.04 55.53 29.76 54.19 25.76 L 54.43 25.60 Z" />
<path fill="#31385d" opacity="1.00" d=" M 61.28 21.83 C 64.51 30.87 64.68 40.56 64.38 50.05 C 60.63 47.09 59.35 42.20 58.08 37.81 C 58.37 38.21 58.95 39.01 59.24 39.41 C 60.50 33.75 61.49 27.98 61.32 22.15 L 61.28 21.83 Z" />
<path fill="#6c798e" opacity="1.00" d=" M 6.71 39.97 C 13.84 40.80 20.47 43.75 27.29 45.82 C 27.70 47.43 28.12 49.04 28.53 50.65 C 21.14 47.35 13.72 44.03 6.71 39.97 Z" />
<path fill="#3c4466" opacity="1.00" d=" M 27.29 45.82 C 33.22 48.66 39.21 51.80 43.82 56.59 C 38.70 54.81 33.79 52.49 28.59 50.91 L 28.53 50.65 C 28.12 49.04 27.70 47.43 27.29 45.82 Z" />
<path fill="#4f506b" opacity="1.00" d=" M 54.93 52.54 C 56.44 50.80 58.54 49.31 60.88 49.05 C 61.98 50.11 62.91 51.32 63.88 52.50 C 59.71 56.22 56.07 61.17 56.60 67.07 C 58.12 66.73 59.65 66.37 61.17 66.02 C 60.14 67.41 59.10 68.80 58.08 70.19 C 56.83 70.38 55.58 70.58 54.34 70.78 C 53.09 69.56 51.80 68.37 50.64 67.06 C 50.21 65.32 49.89 63.55 49.57 61.78 C 51.04 61.22 52.60 60.81 53.94 59.94 C 53.91 58.40 53.80 56.87 53.61 55.34 C 54.03 54.40 54.47 53.46 54.93 52.54 Z" />
<path fill="#393457" opacity="1.00" d=" M 66.55 49.42 C 66.81 49.34 67.33 49.19 67.59 49.11 C 68.92 52.61 68.94 56.41 69.26 60.09 C 67.63 60.96 66.00 61.84 64.38 62.73 C 66.48 58.48 64.14 53.46 66.55 49.42 Z" />
<path fill="#fffad5" opacity="1.00" d=" M 47.79 60.93 C 49.37 57.56 52.00 54.78 54.93 52.54 C 54.47 53.46 54.03 54.40 53.61 55.34 C 53.80 56.87 53.91 58.40 53.94 59.94 C 52.60 60.81 51.04 61.22 49.57 61.78 C 49.89 63.55 50.21 65.32 50.64 67.06 C 49.30 65.25 47.94 63.25 47.79 60.93 Z" />
<path fill="#f46096" opacity="1.00" d=" M 57.67 66.13 C 57.41 61.09 60.60 56.75 64.42 53.83 C 65.55 59.06 62.31 63.96 57.67 66.13 Z" />
<path fill="#5a657a" opacity="1.00" d=" M 85.66 63.75 C 87.14 62.21 88.70 60.74 90.32 59.33 C 89.85 61.00 89.35 62.67 88.84 64.33 C 88.05 64.19 86.45 63.90 85.66 63.75 Z" />
<path fill="#728093" opacity="1.00" d=" M 58.64 77.52 C 59.00 70.58 64.05 63.96 70.69 61.93 C 70.48 63.81 71.00 66.03 69.65 67.59 C 66.61 71.53 62.42 74.36 58.64 77.52 Z" />
<path fill="#53556e" opacity="1.00" d=" M 82.03 65.21 C 84.64 64.59 86.78 66.31 88.82 67.63 C 86.80 70.29 85.17 73.41 82.39 75.37 C 80.03 76.75 77.49 75.02 75.26 74.22 C 75.84 73.24 76.43 72.26 77.04 71.29 C 78.11 71.34 79.19 71.47 80.27 71.39 C 81.37 69.76 82.92 68.14 83.07 66.09 L 82.60 65.71 L 82.03 65.21 Z" />
<path fill="#4f5169" opacity="1.00" d=" M 67.51 74.22 C 71.40 72.16 72.71 67.20 76.84 65.65 C 75.39 67.94 74.26 70.39 73.49 73.00 C 71.90 75.12 69.86 76.84 67.86 78.56 C 67.74 77.11 67.62 75.66 67.51 74.22 Z" />
<path fill="#fffad5" opacity="1.00" d=" M 75.21 74.33 C 75.02 70.01 78.65 66.56 82.60 65.71 L 83.07 66.09 C 82.92 68.14 81.37 69.76 80.27 71.39 C 79.19 71.47 78.11 71.34 77.04 71.29 C 76.43 72.26 75.84 73.24 75.26 74.22 L 75.21 74.33 Z" />
<path fill="#322b50" opacity="1.00" d=" M 88.82 67.63 C 90.31 70.81 91.33 75.55 87.69 77.69 C 83.80 80.28 75.84 80.12 75.21 74.33 L 75.26 74.22 C 77.49 75.02 80.03 76.75 82.39 75.37 C 85.17 73.41 86.80 70.29 88.82 67.63 Z" />
<path fill="#687481" opacity="1.00" d=" M 51.13 74.46 C 50.05 73.45 51.45 71.14 52.81 72.11 C 53.94 73.09 52.43 75.36 51.13 74.46 Z" />
<path fill="#565971" opacity="1.00" d=" M 109.90 71.57 C 115.50 72.79 120.87 74.81 126.12 77.07 C 125.02 82.20 130.40 85.04 134.42 86.47 C 136.69 87.51 138.85 86.13 140.94 85.38 C 143.88 86.57 146.31 88.70 148.76 90.65 C 148.14 92.36 147.54 94.08 146.95 95.80 C 144.84 95.68 142.74 95.56 140.64 95.39 L 140.39 95.19 C 134.38 90.37 127.18 87.37 120.35 83.90 C 117.26 82.39 114.45 80.34 111.99 77.93 C 111.12 75.87 110.57 73.70 109.90 71.57 Z" />
<path fill="#8494a2" opacity="1.00" d=" M 50.17 81.98 C 51.28 78.16 53.64 74.82 56.65 72.25 C 56.61 74.55 56.66 76.85 56.74 79.14 C 58.35 79.02 59.96 78.90 61.57 78.79 C 60.79 81.44 60.80 84.58 58.72 86.66 C 57.03 88.53 55.04 90.10 53.12 91.71 C 50.98 88.98 49.32 85.53 50.17 81.98 Z" />
<path fill="#2d2448" opacity="1.00" d=" M 67.86 78.56 C 69.86 76.84 71.90 75.12 73.49 73.00 C 73.98 75.85 75.13 78.50 77.04 80.68 C 72.25 85.98 68.12 92.19 61.51 95.45 C 60.26 95.65 58.99 95.78 57.72 95.83 C 60.11 93.49 63.00 91.48 64.50 88.39 C 66.82 84.03 66.72 78.97 67.51 74.22 C 67.62 75.66 67.74 77.11 67.86 78.56 Z" />
<path fill="#384063" opacity="1.00" d=" M 61.57 78.79 C 62.73 77.36 64.66 76.64 66.19 75.63 C 65.53 82.69 63.15 90.81 56.08 93.91 C 55.09 93.17 54.11 92.44 53.12 91.71 C 55.04 90.10 57.03 88.53 58.72 86.66 C 60.80 84.58 60.79 81.44 61.57 78.79 Z" />
<path fill="#3f3c5d" opacity="1.00" d=" M 90.89 78.67 C 91.50 77.64 92.11 76.61 92.73 75.58 C 97.68 77.75 102.85 79.39 107.90 81.30 C 109.58 81.82 109.70 83.87 110.50 85.17 C 103.88 83.25 97.27 81.27 90.89 78.67 Z" />
<path fill="#322b50" opacity="1.00" d=" M 111.99 77.93 C 114.45 80.34 117.26 82.39 120.35 83.90 C 120.70 86.69 120.72 89.51 120.45 92.31 C 119.21 91.71 117.28 91.94 116.65 90.44 C 114.43 86.56 112.76 82.34 111.99 77.93 Z" />
<path fill="#f46096" opacity="1.00" d=" M 126.50 78.53 C 131.49 78.87 135.90 82.02 139.66 85.13 C 134.39 87.20 128.99 82.94 126.50 78.53 Z" />
<path fill="#214c67" opacity="1.00" d=" M 154.90 91.82 C 157.70 87.95 159.92 83.53 163.77 80.55 C 162.40 84.83 160.43 88.87 158.63 92.97 C 157.39 92.59 156.14 92.20 154.90 91.82 Z" />
<path fill="#3e3a5b" opacity="1.00" d=" M 120.35 83.90 C 127.18 87.37 134.38 90.37 140.39 95.19 C 133.65 95.03 127.08 93.38 120.45 92.31 C 120.72 89.51 120.70 86.69 120.35 83.90 Z" />
<path fill="#565971" opacity="1.00" d=" M 150.30 97.97 C 149.59 95.69 149.96 93.34 151.76 91.71 C 154.59 93.11 157.40 94.57 160.15 96.14 C 160.15 98.01 160.83 100.04 159.96 101.80 C 156.79 100.38 153.52 99.25 150.30 97.97 Z" />
<path fill="#363152" opacity="1.00" d=" M 54.27 95.72 C 55.08 96.56 55.92 97.38 56.65 98.30 C 56.42 101.56 53.86 104.19 50.97 105.48 C 51.97 102.19 53.11 98.95 54.27 95.72 Z" />
<path fill="#201531" opacity="1.00" d=" M 60.58 98.92 C 62.48 97.65 64.38 96.36 66.29 95.08 C 67.42 96.72 68.73 98.67 67.64 100.71 C 66.54 103.46 63.20 102.20 61.01 102.17 C 60.90 101.36 60.69 99.74 60.58 98.92 Z" />
<path fill="#212336" opacity="1.00" d=" M 146.27 98.44 C 147.66 98.01 148.16 98.50 147.76 99.91 C 146.36 100.33 145.87 99.85 146.27 98.44 Z" />
<path fill="#fffad5" opacity="1.00" d=" M 47.11 99.54 C 48.32 99.84 49.54 100.13 50.76 100.39 C 48.35 101.59 46.05 102.98 43.77 104.41 C 44.87 102.78 46.01 101.17 47.11 99.54 Z" />
<path fill="#555770" opacity="1.00" d=" M 43.77 104.41 C 46.05 102.98 48.35 101.59 50.76 100.39 C 50.57 100.99 50.18 102.19 49.98 102.79 C 48.67 106.08 46.31 108.75 43.95 111.32 C 42.78 111.01 41.61 110.70 40.43 110.40 C 41.59 108.48 42.66 106.51 43.63 104.49 L 43.77 104.41 Z" />
<path fill="#234f70" opacity="1.00" d=" M 148.98 100.86 C 151.73 101.54 154.48 102.22 157.25 102.87 C 158.20 106.05 156.93 108.92 154.87 111.31 C 153.77 107.39 151.73 103.85 148.98 100.86 Z" />
<path fill="#234d6f" opacity="1.00" d=" M 145.65 102.64 C 146.18 102.45 147.24 102.06 147.77 101.87 C 149.04 103.53 150.47 105.11 151.34 107.04 C 151.87 109.51 151.11 111.99 150.46 114.36 C 150.31 113.51 150.00 111.80 149.85 110.95 C 144.74 113.24 140.98 117.44 138.03 122.08 C 135.82 125.23 133.13 127.99 130.66 130.92 C 130.53 131.07 130.28 131.36 130.16 131.51 C 126.49 134.07 122.50 136.13 118.73 138.53 C 121.96 135.09 124.25 130.89 127.63 127.59 C 131.67 123.58 135.42 119.23 138.29 114.30 C 139.46 112.48 139.63 110.29 139.80 108.19 L 139.82 107.89 C 141.92 106.31 143.88 104.58 145.65 102.64 Z" />
<path fill="#393457" opacity="1.00" d=" M 43.95 111.32 C 46.31 108.75 48.67 106.08 49.98 102.79 C 49.97 103.69 49.94 105.47 49.92 106.36 C 51.76 106.02 53.59 105.68 55.43 105.36 C 55.02 109.45 50.89 111.24 48.22 113.77 C 46.79 112.96 45.37 112.14 43.95 111.32 Z" />
<path fill="#322c4c" opacity="1.00" d=" M 60.43 107.13 C 61.62 106.44 62.80 105.75 63.99 105.07 C 66.40 108.56 66.26 113.46 63.26 116.57 C 62.37 113.53 61.51 110.50 60.55 107.49 L 60.43 107.13 Z" />
<path fill="#423f5c" opacity="1.00" d=" M 60.55 107.49 C 61.51 110.50 62.37 113.53 63.26 116.57 C 60.72 117.23 58.14 116.87 55.70 116.01 C 56.33 112.69 58.27 109.90 60.55 107.49 Z" />
<path fill="#95c19b" opacity="1.00" d=" M 113.55 129.97 C 122.42 122.86 130.66 114.97 139.80 108.19 C 139.63 110.29 139.46 112.48 138.29 114.30 C 135.42 119.23 131.67 123.58 127.63 127.59 C 124.25 130.89 121.96 135.09 118.73 138.53 C 114.82 141.21 110.79 143.70 106.80 146.27 C 108.15 140.59 112.45 136.12 113.47 130.36 L 113.55 129.97 Z" />
<path fill="#31677d" opacity="1.00" d=" M 138.03 122.08 C 140.98 117.44 144.74 113.24 149.85 110.95 C 150.00 111.80 150.31 113.51 150.46 114.36 C 150.10 116.76 149.41 119.10 148.87 121.46 L 148.76 121.45 C 145.17 121.21 141.57 121.43 138.03 122.08 Z" />
<path fill="#565970" opacity="1.00" d=" M 37.65 118.50 C 36.16 115.83 38.69 113.47 39.98 111.35 C 40.55 113.53 41.09 115.72 41.65 117.91 C 40.32 118.16 39.01 118.49 37.65 118.50 Z" />
<path fill="#312a50" opacity="1.00" d=" M 63.61 118.48 C 68.51 116.01 73.25 113.08 78.61 111.72 C 73.67 118.03 66.86 122.66 59.75 126.20 C 57.50 126.49 58.37 124.28 58.71 122.97 C 59.51 120.77 61.66 119.52 63.61 118.48 Z" />
<path fill="#4b4a67" opacity="1.00" d=" M 42.70 113.47 C 45.11 114.53 47.44 115.74 49.74 117.03 C 49.60 119.29 49.56 121.55 49.60 123.82 C 46.72 120.80 43.76 117.64 42.70 113.47 Z" />
<path fill="#403c5d" opacity="1.00" d=" M 31.29 124.36 C 32.60 122.21 33.93 120.08 35.25 117.94 C 36.24 119.12 37.27 120.29 38.33 121.42 C 38.51 122.23 38.88 123.84 39.06 124.65 C 36.48 124.40 33.89 124.29 31.29 124.36 Z" />
<path fill="#51536d" opacity="1.00" d=" M 51.56 118.54 C 53.97 118.50 56.37 118.58 58.76 118.84 C 57.60 120.85 56.47 122.89 55.39 124.95 C 55.70 125.42 56.32 126.37 56.63 126.84 C 55.88 127.17 55.13 127.51 54.38 127.84 C 52.81 124.97 51.74 121.84 51.56 118.54 Z" />
<path fill="#44838b" opacity="1.00" d=" M 138.03 122.08 C 141.57 121.43 145.17 121.21 148.76 121.45 C 147.26 126.49 143.86 130.57 140.66 134.60 C 137.68 132.54 134.16 131.62 130.66 130.92 C 133.13 127.99 135.82 125.23 138.03 122.08 Z" />
<path fill="#565971" opacity="1.00" d=" M 69.79 126.75 C 70.89 125.97 71.99 125.18 73.09 124.40 C 77.66 132.15 81.22 140.49 84.65 148.80 C 77.77 142.48 71.61 134.97 67.89 126.36 C 68.36 126.46 69.31 126.65 69.79 126.75 Z" />
<path fill="#342e52" opacity="1.00" d=" M 48.01 126.69 C 49.13 127.20 51.41 126.68 51.65 128.29 C 52.92 136.23 50.62 144.39 46.37 151.12 C 46.95 145.91 46.16 140.69 44.43 135.77 C 47.11 134.32 49.03 131.99 50.05 129.13 C 49.65 128.65 48.84 127.68 48.43 127.20 L 48.01 126.69 Z" />
<path fill="#50526c" opacity="1.00" d=" M 41.90 130.20 C 44.06 129.15 46.23 128.15 48.43 127.20 C 48.84 127.68 49.65 128.65 50.05 129.13 C 49.03 131.99 47.11 134.32 44.43 135.77 C 43.58 133.91 42.73 132.06 41.90 130.20 Z" />
<path fill="#a8d3a1" opacity="1.00" d=" M 97.22 143.54 C 102.41 138.90 107.79 134.41 113.47 130.36 C 112.45 136.12 108.15 140.59 106.80 146.27 C 99.00 151.91 91.37 157.78 84.00 163.98 C 78.44 168.56 72.71 173.01 67.94 178.45 C 64.21 179.91 60.31 180.89 56.35 181.52 C 65.30 173.39 74.54 165.58 83.27 157.19 C 87.86 152.58 93.35 148.84 97.22 143.54 Z" />
<path fill="#529392" opacity="1.00" d=" M 130.16 131.51 C 130.28 131.36 130.53 131.07 130.66 130.92 C 134.16 131.62 137.68 132.54 140.66 134.60 C 138.40 137.30 136.54 140.37 133.88 142.70 C 125.41 148.07 118.25 155.19 109.92 160.77 C 111.58 156.50 115.11 153.46 117.95 149.98 C 122.60 144.25 127.66 138.59 130.16 131.51 Z" />
<path fill="#81b69b" opacity="1.00" d=" M 118.73 138.53 C 122.50 136.13 126.49 134.07 130.16 131.51 C 127.66 138.59 122.60 144.25 117.95 149.98 C 115.11 153.46 111.58 156.50 109.92 160.77 C 107.30 162.71 104.68 164.63 102.11 166.63 C 101.67 166.94 101.22 167.24 100.77 167.54 C 95.84 167.95 91.37 170.23 86.77 171.85 C 80.55 174.22 74.18 176.13 67.94 178.45 C 72.71 173.01 78.44 168.56 84.00 163.98 C 91.37 157.78 99.00 151.91 106.80 146.27 C 110.79 143.70 114.82 141.21 118.73 138.53 Z" />
<path fill="#fffad5" opacity="1.00" d=" M 109.92 160.77 C 118.25 155.19 125.41 148.07 133.88 142.70 C 128.44 149.07 121.95 154.49 115.17 159.37 C 111.67 163.11 106.69 164.69 102.11 166.63 C 104.68 164.63 107.30 162.71 109.92 160.77 Z" />
<path fill="#fffad5" opacity="1.00" d=" M 74.67 161.65 C 82.05 155.44 89.63 149.47 97.22 143.54 C 93.35 148.84 87.86 152.58 83.27 157.19 C 74.54 165.58 65.30 173.39 56.35 181.52 C 60.31 180.89 64.21 179.91 67.94 178.45 C 74.18 176.13 80.55 174.22 86.77 171.85 C 91.37 170.23 95.84 167.95 100.77 167.54 C 90.95 171.45 81.16 175.42 71.47 179.65 C 62.04 182.81 52.46 185.78 42.54 186.91 C 43.71 186.11 44.91 185.35 46.10 184.57 C 46.65 184.22 47.18 183.84 47.68 183.44 C 56.79 176.32 65.32 168.47 74.67 161.65 Z" />
<path fill="#3b3658" opacity="1.00" d=" M 45.60 165.10 C 45.67 161.46 47.10 157.94 47.70 154.35 C 49.19 155.20 50.91 155.76 52.14 156.99 C 52.22 162.19 50.45 167.28 48.02 171.83 C 47.27 169.56 46.36 167.36 45.60 165.10 Z" />
<path fill="#4d4d69" opacity="1.00" d=" M 45.60 165.10 C 46.36 167.36 47.27 169.56 48.02 171.83 C 45.15 180.18 39.47 187.12 34.12 194.01 C 37.61 184.25 41.43 174.59 45.60 165.10 Z" />
<path fill="#3a3558" opacity="1.00" d=" M 99.08 170.47 C 101.03 169.61 102.94 168.64 105.00 168.07 C 108.32 171.74 110.87 176.07 112.97 180.55 C 110.35 179.14 107.54 178.13 104.68 177.35 L 104.24 177.23 C 102.43 175.04 100.72 172.78 99.08 170.47 Z" />
<path fill="#4e4f6a" opacity="1.00" d=" M 104.68 177.35 C 107.54 178.13 110.35 179.14 112.97 180.55 C 118.63 188.91 122.25 198.54 124.99 208.22 C 118.76 197.59 112.03 187.24 104.68 177.35 Z" />
</svg>
