<?xml version="1.0" encoding="UTF-8" ?>
<!DOCTYPE svg PUBLIC "-//W3C//DTD SVG 1.1//EN" "http://www.w3.org/Graphics/SVG/1.1/DTD/svg11.dtd">
<svg width="263pt" height="222pt" viewBox="0 0 263 222" version="1.1" xmlns="http://www.w3.org/2000/svg">
<path fill="#000000" opacity="1.00" d=" M 122.15 37.31 C 127.36 25.70 135.50 15.12 146.33 8.28 C 150.16 10.93 150.37 15.86 151.49 19.96 C 152.64 25.72 154.39 31.41 154.63 37.31 L 153.52 35.89 C 153.23 35.28 152.65 34.07 152.37 33.46 C 150.12 25.97 149.47 18.02 146.41 10.77 C 136.65 16.83 131.14 27.08 124.46 36.01 C 127.75 35.29 131.35 33.91 134.62 35.49 C 137.39 36.63 138.29 39.72 139.32 42.25 C 139.98 42.54 141.28 43.11 141.93 43.39 C 142.05 45.16 142.05 46.93 141.89 48.70 C 141.42 50.22 140.96 51.74 140.49 53.26 C 143.14 52.14 145.51 50.52 147.84 48.86 C 150.10 50.11 151.97 51.90 153.82 53.67 C 156.15 51.73 158.55 49.88 161.00 48.08 C 161.61 49.33 162.22 50.57 162.83 51.82 C 163.34 51.55 164.36 51.02 164.87 50.76 C 169.45 49.06 174.30 48.25 179.12 47.61 C 175.57 52.07 171.49 56.08 167.31 59.95 L 168.41 61.48 C 169.72 63.50 171.04 65.60 171.59 67.98 C 170.34 71.33 168.04 74.13 166.06 77.06 C 167.21 78.81 168.36 80.56 169.56 82.28 C 169.84 82.68 170.41 83.48 170.70 83.88 C 172.49 83.70 174.32 83.30 176.12 83.66 C 177.00 85.59 177.55 87.64 178.18 89.65 C 180.61 89.59 183.03 89.53 185.46 89.48 C 185.56 90.72 185.66 91.97 185.76 93.22 C 187.82 92.17 189.88 91.11 191.93 90.04 C 189.96 86.23 187.84 82.50 185.40 78.97 C 190.15 71.40 195.12 63.90 198.78 55.71 C 200.01 52.65 201.44 49.42 201.08 46.04 C 200.44 42.83 197.00 41.66 194.27 40.77 C 188.07 39.34 181.70 38.76 175.36 38.50 C 168.63 38.11 161.88 38.25 155.20 39.18 L 154.41 37.69 C 161.09 35.83 168.11 35.62 174.98 36.13 C 182.10 36.48 189.35 36.73 196.20 38.87 C 199.24 39.79 202.43 41.67 203.31 44.95 C 204.17 49.15 202.40 53.27 200.82 57.08 C 197.37 64.63 192.93 71.75 187.62 78.14 C 189.73 82.03 192.72 85.59 193.85 89.91 C 192.86 93.41 188.26 94.07 185.41 95.65 C 184.75 102.48 184.08 109.30 183.38 116.11 C 182.92 118.99 185.30 123.37 181.02 124.04 C 183.37 127.34 186.00 130.53 189.52 132.65 C 208.01 144.48 228.63 152.39 249.19 159.82 C 252.18 161.21 256.10 161.86 257.79 165.01 C 257.33 166.42 255.50 166.76 254.38 167.54 C 244.53 172.15 233.49 174.83 225.13 182.13 C 223.52 183.32 221.66 185.68 219.44 184.37 C 214.86 181.88 210.55 177.95 205.00 178.19 C 202.00 177.97 199.38 179.59 196.74 180.72 C 194.63 181.94 192.22 180.58 189.99 181.06 C 189.04 181.90 188.21 182.86 187.35 183.79 C 188.56 184.84 189.95 185.74 190.89 187.06 C 190.74 188.65 190.41 190.23 190.45 191.83 C 193.16 197.17 196.55 202.14 199.34 207.44 C 209.05 207.52 218.74 208.30 228.42 208.93 C 232.17 209.54 236.35 209.08 239.66 211.25 C 239.64 214.70 235.29 216.27 232.33 216.15 C 224.86 216.31 217.40 216.63 209.93 216.50 C 203.50 216.19 197.08 215.81 190.65 215.87 C 169.76 215.40 148.90 214.30 128.00 214.24 C 122.30 214.14 116.59 213.73 110.94 212.96 C 108.44 212.49 105.60 212.29 103.63 210.50 C 103.07 208.25 103.06 205.80 103.60 203.56 C 105.69 200.15 108.64 197.08 109.06 192.91 C 104.05 191.92 104.36 185.45 103.70 181.49 C 100.83 180.81 98.06 179.42 95.07 179.40 C 91.28 180.27 89.41 184.09 87.23 186.93 C 87.29 189.38 87.41 191.83 87.60 194.27 C 81.61 193.64 80.28 186.81 79.62 181.93 C 77.47 164.29 85.81 147.83 93.95 132.79 C 91.86 134.16 89.84 135.61 87.79 137.02 C 86.61 139.47 86.42 143.65 83.02 143.92 C 77.93 144.49 73.59 147.99 71.42 152.54 C 70.49 154.03 71.21 155.72 71.39 157.31 C 64.96 165.09 56.47 170.75 47.93 175.95 C 40.19 180.63 32.40 185.28 24.06 188.80 C 19.85 190.43 15.18 192.31 10.70 190.55 C 16.46 185.01 23.02 180.37 28.69 174.72 C 37.83 165.80 47.96 157.22 53.46 145.43 C 54.58 143.53 54.43 141.26 54.73 139.16 C 58.27 137.92 61.63 136.07 63.95 133.05 C 61.85 130.82 59.36 129.02 56.74 127.47 C 60.79 122.03 67.68 120.07 74.07 119.03 C 76.27 117.41 77.91 115.15 79.91 113.30 C 80.40 113.73 81.39 114.57 81.88 114.99 C 83.60 113.11 85.82 111.77 88.48 112.08 C 91.69 107.49 95.56 103.43 98.80 98.86 C 100.84 96.05 103.03 92.68 106.91 92.57 C 108.32 91.44 109.70 90.28 111.10 89.13 C 111.25 87.71 111.41 86.30 111.59 84.88 C 110.28 83.26 108.99 81.63 107.71 80.00 C 106.31 78.95 103.75 78.27 104.14 76.04 C 104.27 74.17 104.99 72.42 105.57 70.66 C 102.44 68.84 99.34 66.78 97.36 63.67 C 100.93 63.64 104.42 64.39 107.91 65.07 C 110.38 63.62 112.98 64.49 115.35 65.70 C 115.40 64.04 115.16 62.33 115.61 60.71 C 116.81 60.10 118.09 59.66 119.35 59.18 C 119.36 58.40 119.39 56.85 119.40 56.08 C 117.47 53.71 115.21 51.24 114.97 48.05 C 115.07 46.05 115.50 44.09 115.60 42.09 C 113.97 36.22 110.85 30.77 110.17 24.63 C 114.73 28.29 118.19 33.05 122.15 37.31 M 117.63 41.01 C 118.67 39.99 119.73 38.99 120.80 38.00 C 119.65 36.85 118.50 35.70 117.36 34.54 C 116.01 33.06 114.64 31.59 113.24 30.15 C 114.70 33.77 116.00 37.46 117.63 41.01 M 125.50 37.76 C 121.76 39.73 117.29 42.29 116.73 46.94 C 116.76 50.22 119.16 52.72 121.00 55.18 C 123.28 55.73 125.59 55.51 127.90 55.62 C 128.58 55.13 129.27 54.66 129.98 54.21 C 131.28 52.98 132.70 51.76 133.48 50.12 C 134.15 46.67 132.55 43.37 131.20 40.31 C 129.62 39.01 127.79 36.29 125.50 37.76 M 131.47 36.76 C 130.73 38.08 132.25 39.89 133.61 39.99 C 133.67 40.48 133.78 41.45 133.84 41.94 C 134.34 43.52 134.72 45.13 135.10 46.75 C 135.94 45.91 136.77 45.07 137.61 44.22 C 137.22 42.77 136.83 41.31 136.47 39.85 C 135.41 38.69 134.22 37.66 132.88 36.85 C 132.53 36.83 131.82 36.78 131.47 36.76 M 137.81 46.89 C 135.90 45.99 134.77 49.96 137.17 49.58 L 136.71 51.17 C 137.81 50.47 139.11 49.98 140.02 49.00 C 140.37 47.61 140.38 46.17 140.54 44.76 C 139.65 45.44 137.93 45.56 137.81 46.89 M 163.59 53.05 C 164.51 54.79 165.47 56.52 166.43 58.24 C 169.26 55.79 171.85 53.08 174.33 50.28 C 170.74 51.16 167.17 52.11 163.59 53.05 M 128.14 57.67 C 127.36 57.59 125.80 57.43 125.02 57.35 C 123.70 56.67 122.54 56.81 121.52 57.77 C 121.74 59.05 122.54 59.69 123.91 59.72 C 128.92 60.90 132.31 56.37 135.55 53.39 C 135.60 52.79 135.71 51.59 135.77 50.98 C 133.35 53.35 130.85 55.64 128.14 57.67 M 147.10 51.07 C 145.94 51.86 144.92 52.84 143.88 53.78 C 141.93 54.31 139.80 54.83 138.50 56.51 C 137.58 57.96 137.63 59.76 137.29 61.39 C 133.35 63.58 133.10 68.42 133.21 72.40 C 133.27 75.18 134.07 77.87 136.52 79.44 C 139.85 78.37 143.36 77.58 146.21 75.41 C 145.67 74.29 145.16 73.16 144.71 72.01 C 146.41 70.49 148.42 69.36 150.12 67.83 C 150.54 63.44 149.38 58.74 151.82 54.71 C 151.37 54.15 150.91 53.60 150.46 53.05 C 149.50 52.20 148.52 50.99 147.10 51.07 M 158.71 51.62 C 155.60 54.08 151.21 56.66 152.38 61.34 C 152.41 63.70 152.44 66.05 152.56 68.40 C 156.88 70.22 160.98 72.52 164.81 75.23 C 166.35 72.77 167.94 70.35 169.59 67.97 C 168.25 65.31 166.82 62.69 165.17 60.21 C 164.39 58.64 163.43 57.18 162.48 55.71 C 162.17 55.02 161.55 53.62 161.24 52.92 C 160.61 52.27 159.79 50.35 158.71 51.62 M 137.37 53.11 C 136.53 53.42 135.14 55.39 136.61 55.72 C 138.27 55.97 139.88 52.22 137.37 53.11 M 127.89 61.78 C 127.44 61.65 126.54 61.37 126.09 61.23 L 125.21 61.80 L 125.15 62.57 L 123.81 62.33 C 127.73 65.53 132.29 61.20 136.04 59.68 C 135.82 59.13 135.37 58.03 135.14 57.48 C 132.62 58.72 130.20 60.18 127.89 61.78 M 117.48 61.89 C 117.57 63.17 117.67 64.45 117.77 65.73 C 114.82 67.51 112.50 70.09 110.52 72.87 L 110.42 72.86 C 110.10 74.55 109.78 76.25 109.51 77.95 C 112.44 78.39 112.73 75.25 113.70 73.26 C 116.55 71.04 119.29 68.62 122.67 67.21 C 124.05 65.14 122.76 63.10 121.89 61.14 C 120.42 61.38 118.95 61.64 117.48 61.89 M 132.66 63.29 C 131.30 63.84 129.93 64.38 128.56 64.91 C 128.46 65.31 128.26 66.13 128.16 66.53 C 126.30 66.19 124.61 70.60 126.74 71.11 L 126.30 72.23 C 127.91 72.29 129.53 72.31 131.14 72.30 C 131.24 69.24 131.07 66.02 132.66 63.29 M 101.15 65.54 C 102.70 66.80 104.25 68.07 106.01 69.04 C 106.64 68.37 107.23 67.65 107.81 66.93 C 105.59 66.48 103.37 66.00 101.15 65.54 M 110.66 66.10 C 110.38 66.53 109.81 67.38 109.52 67.81 C 108.13 70.63 106.98 73.57 106.14 76.59 C 106.46 76.67 107.10 76.83 107.42 76.91 C 107.90 74.01 108.73 71.09 110.94 69.01 C 111.51 68.58 112.65 67.72 113.22 67.29 C 112.37 66.88 111.52 66.48 110.66 66.10 M 121.18 76.95 C 121.04 77.25 120.75 77.86 120.60 78.16 C 120.67 78.93 120.82 80.45 120.89 81.21 C 121.53 81.99 122.18 82.76 122.85 83.52 C 124.43 89.71 125.86 96.16 124.96 102.58 C 124.39 106.95 122.14 110.81 120.39 114.78 L 120.03 114.99 C 119.44 116.05 118.86 117.11 118.30 118.18 C 125.27 113.77 132.07 109.05 138.31 103.66 C 140.46 102.04 143.08 100.61 143.87 97.83 C 142.38 96.63 140.94 95.37 139.53 94.08 C 139.15 93.48 138.38 92.28 138.00 91.68 C 138.61 88.92 139.60 86.27 140.73 83.69 C 134.79 81.86 128.27 83.36 122.51 81.07 L 123.23 80.66 C 127.03 79.97 130.96 80.41 134.80 80.46 C 133.63 78.76 132.50 77.03 131.58 75.19 L 131.43 75.42 L 132.00 74.43 C 129.14 74.43 125.92 74.27 124.23 71.60 C 124.25 70.53 124.29 68.39 124.31 67.32 C 122.72 70.32 121.60 73.57 121.18 76.95 M 117.97 76.75 C 117.46 76.14 116.95 75.53 116.43 74.92 C 116.84 74.37 117.65 73.26 118.06 72.70 C 116.76 73.75 115.56 74.90 114.37 76.05 C 115.10 76.64 115.83 77.24 116.55 77.85 C 115.84 78.32 114.42 79.26 113.71 79.73 C 113.26 82.11 113.16 85.27 116.03 86.13 C 117.87 84.84 119.28 83.06 120.70 81.35 L 119.17 80.54 C 119.32 76.77 120.47 73.15 120.76 69.41 C 119.70 71.81 118.95 74.32 117.97 76.75 M 150.12 69.71 C 151.23 71.51 152.41 73.28 153.61 75.03 C 154.25 74.14 155.86 73.73 155.81 72.51 C 154.12 71.21 152.12 70.41 150.12 69.71 M 147.31 76.10 C 145.38 79.52 141.06 79.64 137.70 80.47 C 139.55 81.25 141.45 81.89 143.31 82.64 C 145.95 80.57 148.81 78.32 149.81 74.97 C 149.44 73.49 148.72 72.12 148.12 70.73 C 146.29 72.19 147.11 74.22 147.31 76.10 M 151.80 78.82 C 157.30 78.55 159.84 84.03 162.82 87.65 C 164.52 86.72 166.23 85.80 167.96 84.92 C 166.97 83.28 165.93 81.67 164.92 80.04 C 164.16 78.52 163.33 77.03 162.02 75.92 C 161.67 75.51 160.98 74.70 160.63 74.30 C 157.22 74.51 154.35 76.75 151.80 78.82 M 110.24 80.25 C 109.85 81.66 110.36 82.15 111.74 81.72 C 112.12 80.31 111.62 79.82 110.24 80.25 M 140.37 92.38 C 142.48 94.20 144.78 95.79 147.20 97.16 C 147.29 98.97 147.25 100.87 148.21 102.49 C 149.29 104.02 150.57 105.41 151.56 107.00 C 151.15 108.27 150.02 109.07 149.19 110.05 C 154.20 115.94 159.18 121.88 163.80 128.07 C 163.08 128.44 161.64 129.19 160.92 129.56 C 171.53 139.05 183.99 146.11 195.25 154.75 C 197.37 156.52 199.87 158.28 200.74 161.02 C 201.54 165.05 198.34 168.23 196.32 171.33 C 194.54 173.78 192.80 176.25 191.05 178.73 C 192.55 179.06 194.05 179.39 195.55 179.73 C 196.92 178.74 198.30 177.76 199.67 176.78 C 202.44 176.26 205.29 175.44 208.10 176.20 C 212.90 177.26 216.84 180.38 220.97 182.88 C 225.12 179.09 229.78 175.90 234.87 173.50 C 241.41 170.41 248.37 168.38 255.07 165.71 C 250.44 161.68 244.27 160.51 238.73 158.28 C 226.63 154.03 214.94 148.76 203.35 143.32 L 203.25 143.12 C 198.22 140.40 193.22 137.60 188.33 134.64 L 188.35 134.38 C 184.36 132.08 181.40 128.52 179.14 124.57 C 177.33 125.29 175.52 125.99 173.71 126.69 C 173.40 125.37 173.10 124.06 172.80 122.75 C 173.08 121.61 172.98 120.52 172.48 119.47 C 170.60 119.41 168.73 119.66 166.86 119.80 C 167.50 117.57 168.43 115.39 168.68 113.07 C 166.79 108.74 164.60 104.37 161.61 100.72 C 161.01 99.43 160.42 98.14 159.82 96.86 C 160.53 95.90 161.24 94.94 161.96 93.98 C 161.22 93.00 160.49 92.02 159.76 91.04 C 160.10 90.48 160.78 89.36 161.13 88.79 C 159.70 86.94 158.31 85.05 156.71 83.35 C 155.00 81.03 151.76 81.57 149.49 80.12 C 146.27 84.15 140.91 86.68 140.37 92.38 M 119.52 85.64 C 120.52 88.29 121.10 91.15 120.56 93.97 C 118.95 99.68 115.04 104.40 113.00 109.91 C 113.79 112.31 115.77 114.07 117.20 116.09 C 119.18 112.70 121.24 109.28 122.36 105.49 C 124.16 98.48 122.96 91.09 120.80 84.30 C 120.37 84.75 119.95 85.20 119.52 85.64 M 169.54 86.55 C 167.74 87.30 165.94 88.04 164.12 88.73 L 164.22 88.85 C 162.75 88.91 162.08 89.65 162.23 91.06 C 162.41 91.55 162.77 92.53 162.96 93.03 C 166.23 91.48 169.75 90.66 173.30 90.05 C 173.96 89.95 175.26 89.77 175.92 89.68 C 175.57 88.14 175.22 86.61 174.87 85.08 C 173.08 85.54 171.31 86.04 169.54 86.55 M 113.80 87.20 C 113.51 88.82 113.20 90.43 112.80 92.03 C 113.65 93.23 114.49 94.43 115.33 95.64 C 115.69 96.56 116.06 97.48 116.43 98.40 C 118.27 95.78 119.69 92.32 117.86 89.31 C 116.49 88.63 115.15 87.92 113.80 87.20 M 170.04 92.67 C 168.93 93.05 167.84 93.46 166.76 93.89 L 166.38 94.66 C 164.95 94.13 162.53 95.74 162.86 97.33 C 163.36 98.14 163.87 98.94 164.38 99.75 C 167.03 98.12 169.91 96.92 172.90 96.06 C 176.19 95.70 179.51 95.57 182.82 95.68 C 182.83 94.58 182.84 93.48 182.86 92.38 C 178.60 91.83 174.22 91.43 170.04 92.67 M 107.77 95.13 C 108.62 96.85 109.47 98.57 110.31 100.31 C 110.78 101.84 111.23 103.37 111.80 104.88 C 113.37 104.65 113.93 102.76 114.98 101.75 C 114.57 100.18 114.17 98.60 113.75 97.03 C 112.60 95.43 111.41 93.86 110.19 92.31 C 109.38 93.25 108.57 94.19 107.77 95.13 M 95.82 106.92 C 95.59 107.10 95.14 107.44 94.92 107.62 C 96.16 108.64 97.40 109.66 98.62 110.71 C 98.91 111.47 99.21 112.24 99.52 113.00 C 98.25 114.39 96.99 115.81 95.82 117.29 C 100.26 115.54 103.28 111.61 107.19 108.99 L 107.33 108.52 C 108.14 108.27 109.76 107.77 110.57 107.52 C 110.00 106.12 109.45 104.72 108.94 103.30 C 108.34 101.68 107.72 100.08 107.08 98.47 L 107.39 98.00 C 107.21 97.76 106.85 97.27 106.67 97.03 C 106.21 96.56 105.28 95.62 104.82 95.15 C 101.34 98.65 98.33 102.67 95.82 106.92 M 170.05 98.75 C 168.21 99.36 166.46 100.20 164.69 100.99 C 168.85 106.92 171.46 113.73 175.24 119.89 L 176.36 118.92 C 177.83 118.56 179.32 118.22 180.71 117.59 C 182.07 111.01 182.30 104.20 182.57 97.48 C 178.37 97.59 174.12 97.63 170.05 98.75 M 138.39 106.00 C 141.52 106.67 144.74 107.03 147.92 106.46 C 146.55 104.92 145.15 103.41 143.74 101.91 C 141.93 103.23 140.13 104.59 138.39 106.00 M 135.18 107.93 C 139.48 113.50 145.71 117.13 151.15 121.46 C 153.87 124.44 157.41 126.66 161.30 127.75 C 158.46 123.99 155.26 120.53 152.38 116.80 C 150.23 114.22 148.21 111.49 145.70 109.25 C 142.66 107.93 139.14 108.59 135.91 108.44 C 135.73 108.31 135.36 108.06 135.18 107.93 M 108.59 110.66 C 106.59 113.90 105.34 117.53 104.19 121.15 C 106.83 118.34 109.39 115.46 112.07 112.69 C 110.94 112.04 110.09 110.13 108.59 110.66 M 126.07 115.95 C 123.52 117.62 120.83 119.06 118.06 120.31 C 116.14 118.29 114.29 116.21 112.59 114.01 C 111.65 115.27 110.60 116.47 109.90 117.89 C 109.15 123.90 109.61 129.98 110.33 135.96 C 110.64 137.40 110.18 138.74 109.41 139.94 C 108.92 138.66 108.45 137.37 108.01 136.08 C 104.55 143.73 98.55 149.76 94.32 156.92 C 98.58 162.55 102.98 168.10 107.62 173.42 C 107.58 176.01 108.22 178.54 108.76 181.05 C 114.69 178.89 122.81 178.92 126.11 172.65 C 130.34 168.26 135.39 164.65 139.21 159.89 C 139.50 157.37 138.98 154.84 138.78 152.34 C 136.16 150.27 133.34 148.29 131.55 145.41 C 130.37 143.15 132.05 140.68 132.12 138.34 C 133.26 134.25 136.20 130.49 135.74 126.09 C 133.51 125.28 131.29 124.46 129.05 123.69 C 127.25 122.78 125.54 121.70 124.07 120.31 C 125.75 120.48 127.42 120.72 129.08 120.97 L 129.45 121.59 C 132.15 122.62 134.85 123.72 137.11 125.56 L 137.46 125.64 C 138.00 127.52 138.51 129.42 138.95 131.33 L 139.08 131.39 C 140.86 138.86 142.48 146.36 144.01 153.88 C 145.74 162.23 146.72 170.75 149.15 178.93 C 149.48 180.44 151.14 180.92 152.32 181.58 C 158.82 184.18 165.83 185.07 172.40 187.47 C 175.83 188.32 179.29 189.24 182.86 189.11 C 183.22 187.50 183.25 185.73 184.28 184.37 C 188.32 178.11 192.77 172.14 197.00 166.02 C 197.72 164.57 199.26 162.79 198.19 161.16 C 196.30 158.29 193.35 156.37 190.66 154.32 C 180.98 147.34 170.78 141.04 161.63 133.36 C 158.66 131.02 156.76 127.54 153.55 125.50 C 147.67 121.86 142.39 117.36 136.91 113.17 C 135.86 112.08 134.80 111.00 133.74 109.92 C 131.23 111.99 128.64 113.96 126.07 115.95 M 88.47 114.79 C 87.75 116.86 87.19 118.98 86.82 121.14 C 87.83 120.04 88.82 118.92 89.80 117.79 L 89.70 117.57 C 90.69 115.41 94.91 112.92 92.93 110.52 C 91.19 111.66 89.86 113.27 88.47 114.79 M 96.03 111.08 C 95.48 112.70 94.84 114.28 94.21 115.87 C 95.34 114.58 96.52 113.33 97.69 112.08 C 97.28 111.83 96.45 111.33 96.03 111.08 M 83.57 117.48 C 85.90 118.27 86.79 115.49 87.03 113.75 C 85.05 113.90 82.95 115.24 83.57 117.48 M 98.64 118.16 C 98.43 122.48 95.37 125.70 92.95 128.98 C 93.28 129.72 93.94 131.21 94.27 131.95 C 97.31 126.32 101.11 121.04 103.26 114.98 C 101.69 116.00 100.16 117.07 98.64 118.16 M 76.57 119.41 L 77.62 120.72 C 78.54 121.63 79.45 122.56 80.38 123.47 C 80.75 124.02 81.48 125.13 81.84 125.68 C 84.07 128.52 86.06 131.54 88.14 134.49 C 89.35 133.59 90.57 132.69 91.79 131.79 C 90.81 130.05 89.82 128.33 88.79 126.62 C 87.61 124.95 86.47 123.26 85.30 121.58 C 84.75 121.01 83.63 119.88 83.08 119.31 C 82.47 118.50 81.86 117.68 81.27 116.85 C 79.16 115.57 78.05 118.48 76.57 119.41 M 169.33 115.90 C 168.82 117.56 169.35 118.10 170.94 117.52 C 171.45 115.86 170.92 115.32 169.33 115.90 M 91.35 118.47 C 90.20 119.75 90.04 121.62 89.35 123.16 C 90.15 124.35 90.95 125.54 91.76 126.73 C 93.54 124.44 95.19 122.05 96.60 119.51 C 95.06 118.52 93.19 117.47 91.35 118.47 M 180.42 120.30 C 178.64 120.56 176.90 120.97 175.17 121.43 C 175.20 122.07 175.26 123.35 175.30 123.99 C 177.43 123.05 179.52 122.02 181.63 121.04 C 181.56 120.56 181.43 119.61 181.36 119.14 C 181.12 119.43 180.66 120.01 180.42 120.30 M 59.60 126.49 C 61.11 127.76 62.66 128.98 64.26 130.13 C 66.38 132.51 64.89 135.33 63.30 137.53 C 60.87 138.31 58.65 139.68 56.46 140.96 C 56.37 141.77 56.18 143.38 56.08 144.18 C 55.09 146.24 54.16 148.33 53.36 150.48 C 51.63 153.00 49.77 155.46 48.19 158.08 C 37.70 169.55 26.47 180.42 13.99 189.72 C 15.21 189.47 16.47 189.28 17.64 188.83 C 26.40 186.38 34.40 181.73 42.08 176.97 C 45.49 175.27 48.77 173.31 51.84 171.06 C 54.47 169.50 56.97 167.73 59.47 165.98 C 62.60 163.33 65.91 160.80 68.51 157.61 C 69.10 155.92 68.98 154.08 69.17 152.32 C 71.97 146.54 77.37 141.92 84.00 141.62 C 84.89 139.32 85.66 136.96 86.19 134.55 C 81.47 137.92 75.97 139.64 70.49 141.29 C 70.04 141.05 69.14 140.58 68.69 140.34 L 68.97 140.46 C 70.14 139.69 71.36 139.01 72.59 138.35 C 77.04 137.63 80.98 135.40 84.86 133.25 C 83.43 131.14 81.99 129.04 80.54 126.95 C 80.05 126.37 79.06 125.19 78.57 124.61 C 78.43 124.35 78.15 123.85 78.01 123.59 C 72.95 126.09 71.31 132.38 68.79 137.08 C 68.24 137.95 67.71 138.83 67.18 139.71 L 68.34 140.33 C 68.22 140.90 67.97 142.03 67.85 142.60 L 66.53 141.93 L 66.29 142.47 C 65.71 142.47 64.56 142.47 63.98 142.48 C 64.48 141.28 64.99 140.08 65.50 138.89 C 67.41 135.59 69.08 132.14 70.71 128.69 L 70.86 128.66 C 72.36 126.27 73.97 123.96 75.55 121.62 C 69.78 121.14 64.54 123.91 59.60 126.49 M 103.82 125.50 C 103.39 124.84 102.52 123.52 102.08 122.85 C 101.07 124.56 100.06 126.28 99.05 127.99 C 98.81 128.51 98.32 129.54 98.08 130.05 C 95.91 133.72 93.93 137.49 91.99 141.28 C 85.37 154.44 79.21 169.29 82.44 184.28 C 82.61 186.92 83.95 189.29 85.35 191.47 C 85.45 187.90 85.44 184.33 85.86 180.78 C 87.49 173.95 88.30 165.87 94.25 161.23 C 93.61 163.45 92.64 165.56 91.71 167.67 L 91.26 168.08 C 89.46 172.78 88.50 177.73 87.66 182.68 C 90.06 180.51 92.37 177.18 96.00 177.41 C 99.27 177.88 102.37 179.15 105.60 179.87 C 105.49 177.74 105.93 175.31 104.32 173.62 C 101.38 169.79 98.29 166.07 95.24 162.33 C 93.81 160.30 91.41 158.06 92.43 155.32 C 93.38 153.14 94.96 151.31 96.40 149.44 C 98.41 146.88 100.29 144.22 102.14 141.54 C 103.32 139.64 104.49 137.75 105.71 135.88 C 107.38 131.31 107.44 126.43 107.09 121.63 C 105.99 122.91 104.91 124.21 103.82 125.50 M 136.60 132.46 C 135.32 136.20 133.79 139.94 133.35 143.89 C 135.24 146.93 138.19 149.10 140.88 151.39 C 139.70 145.03 138.52 138.64 136.60 132.46 M 141.61 154.87 C 141.53 157.61 142.14 160.85 139.88 162.94 C 135.44 167.65 130.02 171.39 125.87 176.40 C 127.21 176.28 128.56 176.16 129.90 176.04 C 130.00 176.86 130.18 178.50 130.27 179.31 C 132.37 177.88 134.33 175.90 136.95 175.55 C 140.21 176.01 143.18 177.56 146.37 178.31 C 144.50 170.56 143.25 162.68 141.61 154.87 M 129.40 182.21 C 126.46 189.24 124.16 196.56 120.39 203.23 C 139.71 202.40 159.04 203.78 178.35 204.69 C 175.94 202.10 173.93 199.13 171.29 196.77 C 169.23 195.07 165.70 194.27 165.63 191.05 C 165.87 190.22 166.35 188.57 166.59 187.74 C 159.76 185.75 151.77 185.27 146.44 180.09 C 143.13 179.86 140.01 178.76 136.96 177.53 C 134.47 179.14 131.87 180.56 129.40 182.21 M 120.84 179.67 C 117.15 180.34 113.64 181.73 109.94 182.29 C 108.45 182.60 106.73 182.53 105.70 183.87 C 106.58 185.96 107.32 188.11 108.03 190.26 C 114.90 187.20 121.99 184.04 127.47 178.74 C 125.25 178.88 122.90 178.69 120.84 179.67 M 111.68 191.17 C 111.33 193.04 110.98 194.92 110.65 196.80 C 110.52 197.24 110.25 198.13 110.12 198.57 C 108.62 201.58 107.05 204.55 105.42 207.48 C 109.13 207.50 112.76 206.80 116.39 206.11 C 116.55 205.45 116.89 204.13 117.06 203.47 L 116.92 204.00 C 117.82 202.29 118.70 200.58 119.60 198.88 C 121.68 193.65 124.29 188.64 126.09 183.30 C 121.45 186.21 116.70 188.95 111.68 191.17 M 185.31 185.68 C 185.39 186.56 185.55 188.33 185.62 189.22 C 185.26 189.56 184.52 190.25 184.15 190.59 C 178.91 191.62 173.80 190.28 168.74 189.06 C 169.42 192.44 172.52 194.19 175.57 195.08 C 177.26 195.22 178.96 195.39 180.65 195.56 C 182.10 195.47 183.55 195.37 185.01 195.31 C 187.93 193.88 187.88 190.34 188.44 187.57 C 187.41 186.91 186.35 186.30 185.31 185.68 M 186.00 197.31 C 184.09 197.47 182.18 197.59 180.28 197.70 C 179.01 197.58 176.49 197.34 175.23 197.22 C 178.45 201.17 181.76 205.05 184.92 209.05 C 185.69 210.16 186.83 210.85 188.07 211.34 C 190.23 211.24 192.40 211.23 194.57 211.23 C 195.20 211.11 196.47 210.88 197.11 210.76 C 194.71 205.46 192.12 200.26 189.39 195.13 C 188.25 195.85 187.12 196.58 186.00 197.31 Z" />
<path fill="#ffffed" opacity="1.00" d=" M 124.46 36.01 C 131.14 27.08 136.65 16.83 146.41 10.77 C 149.47 18.02 150.12 25.97 152.37 33.46 C 148.74 36.61 145.21 39.88 141.93 43.39 C 141.28 43.11 139.98 42.54 139.32 42.25 C 138.29 39.72 137.39 36.63 134.62 35.49 C 131.35 33.91 127.75 35.29 124.46 36.01 Z" />
<path fill="#ffffff" opacity="1.00" d=" M 117.63 41.01 C 116.00 37.46 114.70 33.77 113.24 30.15 C 114.64 31.59 116.01 33.06 117.36 34.54 C 117.49 36.70 117.59 38.85 117.63 41.01 Z" />
<path fill="#818fb1" opacity="1.00" d=" M 141.93 43.39 C 145.21 39.88 148.74 36.61 152.37 33.46 C 152.65 34.07 153.23 35.28 153.52 35.89 C 153.65 36.17 153.92 36.72 154.05 36.99 C 154.14 37.16 154.32 37.51 154.41 37.69 L 155.20 39.18 C 161.88 38.25 168.63 38.11 175.36 38.50 C 172.80 43.28 169.58 47.88 164.87 50.76 C 164.36 51.02 163.34 51.55 162.83 51.82 C 162.22 50.57 161.61 49.33 161.00 48.08 C 158.55 49.88 156.15 51.73 153.82 53.67 C 151.97 51.90 150.10 50.11 147.84 48.86 C 147.51 48.65 146.85 48.23 146.51 48.03 C 147.09 47.10 147.69 46.19 148.31 45.28 C 146.67 44.70 145.06 44.03 143.46 43.35 C 142.95 45.14 142.43 46.92 141.89 48.70 C 142.05 46.93 142.05 45.16 141.93 43.39 Z" />
<path fill="#fee24b" opacity="1.00" d=" M 117.36 34.54 C 118.50 35.70 119.65 36.85 120.80 38.00 C 119.73 38.99 118.67 39.99 117.63 41.01 C 117.59 38.85 117.49 36.70 117.36 34.54 Z" />
<path fill="#ffffed" opacity="1.00" d=" M 125.50 37.76 C 127.79 36.29 129.62 39.01 131.20 40.31 C 128.78 44.60 129.05 49.54 129.98 54.21 C 129.27 54.66 128.58 55.13 127.90 55.62 C 125.59 55.51 123.28 55.73 121.00 55.18 C 119.16 52.72 116.76 50.22 116.73 46.94 C 117.29 42.29 121.76 39.73 125.50 37.76 M 118.45 46.45 C 118.29 49.13 119.82 51.52 120.88 53.88 C 121.14 53.87 121.66 53.84 121.92 53.83 C 122.00 53.49 122.17 52.81 122.25 52.47 C 121.05 50.63 120.92 46.77 118.45 46.45 M 123.12 46.75 C 123.25 49.14 123.86 51.53 125.64 53.22 C 125.40 50.93 125.44 48.01 123.12 46.75 Z" />
<path fill="#ffffed" opacity="1.00" d=" M 131.47 36.76 C 131.82 36.78 132.53 36.83 132.88 36.85 C 133.18 37.38 133.77 38.45 134.07 38.98 C 133.96 39.23 133.72 39.74 133.61 39.99 C 132.25 39.89 130.73 38.08 131.47 36.76 Z" />
<path fill="#fff350" opacity="1.00" d=" M 132.88 36.85 C 134.22 37.66 135.41 38.69 136.47 39.85 C 135.81 40.37 134.50 41.42 133.84 41.94 C 133.78 41.45 133.67 40.48 133.61 39.99 C 133.72 39.74 133.96 39.23 134.07 38.98 C 133.77 38.45 133.18 37.38 132.88 36.85 Z" />
<path fill="#ffffed" opacity="1.00" d=" M 175.36 38.50 C 181.70 38.76 188.07 39.34 194.27 40.77 C 190.78 44.03 187.27 47.28 183.69 50.44 C 178.94 54.55 173.98 58.52 168.41 61.48 L 167.31 59.95 C 171.49 56.08 175.57 52.07 179.12 47.61 C 174.30 48.25 169.45 49.06 164.87 50.76 C 169.58 47.88 172.80 43.28 175.36 38.50 Z" />
<path fill="#c99130" opacity="1.00" d=" M 136.47 39.85 C 136.83 41.31 137.22 42.77 137.61 44.22 C 136.77 45.07 135.94 45.91 135.10 46.75 C 134.72 45.13 134.34 43.52 133.84 41.94 C 134.50 41.42 135.81 40.37 136.47 39.85 Z" />
<path fill="#b0bac8" opacity="1.00" d=" M 131.20 40.31 C 132.55 43.37 134.15 46.67 133.48 50.12 C 132.70 51.76 131.28 52.98 129.98 54.21 C 129.05 49.54 128.78 44.60 131.20 40.31 Z" />
<path fill="#7283aa" opacity="1.00" d=" M 194.27 40.77 C 197.00 41.66 200.44 42.83 201.08 46.04 C 201.44 49.42 200.01 52.65 198.78 55.71 C 195.12 63.90 190.15 71.40 185.40 78.97 C 187.84 82.50 189.96 86.23 191.93 90.04 C 189.88 91.11 187.82 92.17 185.76 93.22 C 185.66 91.97 185.56 90.72 185.46 89.48 C 183.03 89.53 180.61 89.59 178.18 89.65 C 177.55 87.64 177.00 85.59 176.12 83.66 C 174.32 83.30 172.49 83.70 170.70 83.88 C 170.41 83.48 169.84 82.68 169.56 82.28 C 174.56 81.03 179.52 79.42 184.08 77.00 C 186.72 74.54 188.20 71.13 190.20 68.17 C 191.72 65.43 194.15 62.44 193.08 59.11 C 192.36 55.10 187.85 54.22 184.84 52.51 C 184.45 51.82 184.07 51.13 183.69 50.44 C 187.27 47.28 190.78 44.03 194.27 40.77 Z" />
<path fill="#94a1ba" opacity="1.00" d=" M 143.46 43.35 C 145.06 44.03 146.67 44.70 148.31 45.28 C 147.69 46.19 147.09 47.10 146.51 48.03 C 146.85 48.23 147.51 48.65 147.84 48.86 C 145.51 50.52 143.14 52.14 140.49 53.26 C 140.96 51.74 141.42 50.22 141.89 48.70 C 142.43 46.92 142.95 45.14 143.46 43.35 Z" />
<path fill="#e2a839" opacity="1.00" d=" M 137.81 46.89 C 137.93 45.56 139.65 45.44 140.54 44.76 C 140.38 46.17 140.37 47.61 140.02 49.00 C 139.11 49.98 137.81 50.47 136.71 51.17 L 137.17 49.58 C 137.44 48.69 137.65 47.80 137.81 46.89 Z" />
<path fill="#000000" opacity="1.00" d=" M 118.45 46.45 C 120.92 46.77 121.05 50.63 122.25 52.47 C 122.17 52.81 122.00 53.49 121.92 53.83 C 121.66 53.84 121.14 53.87 120.88 53.88 C 119.82 51.52 118.29 49.13 118.45 46.45 Z" />
<path fill="#000000" opacity="1.00" d=" M 123.12 46.75 C 125.44 48.01 125.40 50.93 125.64 53.22 C 123.86 51.53 123.25 49.14 123.12 46.75 Z" />
<path fill="#ffffed" opacity="1.00" d=" M 137.17 49.58 C 134.77 49.96 135.90 45.99 137.81 46.89 C 137.65 47.80 137.44 48.69 137.17 49.58 Z" />
<path fill="#fff350" opacity="1.00" d=" M 163.59 53.05 C 167.17 52.11 170.74 51.16 174.33 50.28 C 171.85 53.08 169.26 55.79 166.43 58.24 C 165.47 56.52 164.51 54.79 163.59 53.05 Z" />
<path fill="#fee24b" opacity="1.00" d=" M 128.14 57.67 C 130.85 55.64 133.35 53.35 135.77 50.98 C 135.71 51.59 135.60 52.79 135.55 53.39 C 132.31 56.37 128.92 60.90 123.91 59.72 C 124.55 59.05 124.92 58.26 125.02 57.35 C 125.80 57.43 127.36 57.59 128.14 57.67 Z" />
<path fill="#f9faea" opacity="1.00" d=" M 147.10 51.07 C 148.52 50.99 149.50 52.20 150.46 53.05 C 150.50 53.55 150.57 54.56 150.60 55.06 C 149.98 55.91 149.35 56.74 148.71 57.56 C 149.15 58.42 149.58 59.29 150.02 60.15 C 149.01 60.76 147.99 61.37 146.98 61.98 C 147.69 63.50 148.40 65.03 149.10 66.57 C 147.11 67.61 145.10 68.63 143.07 69.59 C 142.24 70.64 141.42 71.70 140.60 72.76 C 138.13 72.65 135.67 72.56 133.21 72.40 C 133.10 68.42 133.35 63.58 137.29 61.39 C 137.63 59.76 137.58 57.96 138.50 56.51 C 139.80 54.83 141.93 54.31 143.88 53.78 C 144.92 52.84 145.94 51.86 147.10 51.07 Z" />
<path fill="#ffffff" opacity="1.00" d=" M 158.71 51.62 C 159.79 50.35 160.61 52.27 161.24 52.92 C 158.65 55.28 156.18 57.80 154.16 60.67 C 153.71 60.84 152.82 61.17 152.38 61.34 C 151.21 56.66 155.60 54.08 158.71 51.62 Z" />
<path fill="#697ba6" opacity="1.00" d=" M 168.41 61.48 C 173.98 58.52 178.94 54.55 183.69 50.44 C 184.07 51.13 184.45 51.82 184.84 52.51 C 187.85 54.22 192.36 55.10 193.08 59.11 C 194.15 62.44 191.72 65.43 190.20 68.17 C 188.20 71.13 186.72 74.54 184.08 77.00 C 179.52 79.42 174.56 81.03 169.56 82.28 C 168.36 80.56 167.21 78.81 166.06 77.06 C 168.04 74.13 170.34 71.33 171.59 67.98 C 171.04 65.60 169.72 63.50 168.41 61.48 Z" />
<path fill="#684b18" opacity="1.00" d=" M 137.37 53.11 C 139.88 52.22 138.27 55.97 136.61 55.72 C 135.14 55.39 136.53 53.42 137.37 53.11 Z" />
<path fill="#7787ad" opacity="1.00" d=" M 150.46 53.05 C 150.91 53.60 151.37 54.15 151.82 54.71 C 149.38 58.74 150.54 63.44 150.12 67.83 C 148.42 69.36 146.41 70.49 144.71 72.01 C 145.16 73.16 145.67 74.29 146.21 75.41 C 143.36 77.58 139.85 78.37 136.52 79.44 C 134.07 77.87 133.27 75.18 133.21 72.40 C 135.67 72.56 138.13 72.65 140.60 72.76 C 141.42 71.70 142.24 70.64 143.07 69.59 C 145.10 68.63 147.11 67.61 149.10 66.57 C 148.40 65.03 147.69 63.50 146.98 61.98 C 147.99 61.37 149.01 60.76 150.02 60.15 C 149.58 59.29 149.15 58.42 148.71 57.56 C 149.35 56.74 149.98 55.91 150.60 55.06 C 150.57 54.56 150.50 53.55 150.46 53.05 Z" />
<path fill="#ffff62" opacity="1.00" d=" M 154.16 60.67 C 156.18 57.80 158.65 55.28 161.24 52.92 C 161.55 53.62 162.17 55.02 162.48 55.71 C 159.96 58.90 158.02 62.51 156.90 66.42 C 155.46 67.10 154.01 67.75 152.56 68.40 C 152.44 66.05 152.41 63.70 152.38 61.34 C 152.82 61.17 153.71 60.84 154.16 60.67 Z" />
<path fill="#fed747" opacity="1.00" d=" M 162.48 55.71 C 163.43 57.18 164.39 58.64 165.17 60.21 C 165.21 60.45 165.30 60.92 165.34 61.16 C 162.88 63.41 159.91 65.01 156.90 66.42 C 158.02 62.51 159.96 58.90 162.48 55.71 Z" />
<path fill="#ffffed" opacity="1.00" d=" M 121.52 57.77 C 122.54 56.81 123.70 56.67 125.02 57.35 C 124.92 58.26 124.55 59.05 123.91 59.72 C 122.54 59.69 121.74 59.05 121.52 57.77 Z" />
<path fill="#fed747" opacity="1.00" d=" M 127.89 61.78 C 130.20 60.18 132.62 58.72 135.14 57.48 C 135.37 58.03 135.82 59.13 136.04 59.68 C 132.29 61.20 127.73 65.53 123.81 62.33 L 125.15 62.57 C 126.20 62.87 127.12 62.61 127.89 61.78 Z" />
<path fill="#a86222" opacity="1.00" d=" M 165.17 60.21 C 166.82 62.69 168.25 65.31 169.59 67.97 C 167.94 70.35 166.35 72.77 164.81 75.23 C 160.98 72.52 156.88 70.22 152.56 68.40 C 154.01 67.75 155.46 67.10 156.90 66.42 C 159.91 65.01 162.88 63.41 165.34 61.16 C 165.30 60.92 165.21 60.45 165.17 60.21 Z" />
<path fill="#fbfcea" opacity="1.00" d=" M 117.48 61.89 C 118.95 61.64 120.42 61.38 121.89 61.14 C 122.76 63.10 124.05 65.14 122.67 67.21 C 119.29 68.62 116.55 71.04 113.70 73.26 C 112.64 73.16 111.58 73.03 110.52 72.87 C 112.50 70.09 114.82 67.51 117.77 65.73 C 117.67 64.45 117.57 63.17 117.48 61.89 Z" />
<path fill="#ffffff" opacity="1.00" d=" M 125.21 61.80 L 126.09 61.23 C 126.54 61.37 127.44 61.65 127.89 61.78 C 127.12 62.61 126.20 62.87 125.15 62.57 L 125.21 61.80 Z" />
<path fill="#f2d847" opacity="1.00" d=" M 132.66 63.29 C 131.07 66.02 131.24 69.24 131.14 72.30 C 129.53 72.31 127.91 72.29 126.30 72.23 L 126.74 71.11 C 127.34 69.62 127.78 68.09 128.16 66.53 C 128.26 66.13 128.46 65.31 128.56 64.91 C 129.93 64.38 131.30 63.84 132.66 63.29 Z" />
<path fill="#fee24b" opacity="1.00" d=" M 101.15 65.54 C 103.37 66.00 105.59 66.48 107.81 66.93 C 107.23 67.65 106.64 68.37 106.01 69.04 C 104.25 68.07 102.70 66.80 101.15 65.54 Z" />
<path fill="#ffffed" opacity="1.00" d=" M 110.66 66.10 C 111.52 66.48 112.37 66.88 113.22 67.29 C 112.65 67.72 111.51 68.58 110.94 69.01 C 110.59 68.71 109.88 68.11 109.52 67.81 C 109.81 67.38 110.38 66.53 110.66 66.10 Z" />
<path fill="#ffffff" opacity="1.00" d=" M 126.74 71.11 C 124.61 70.60 126.30 66.19 128.16 66.53 C 127.78 68.09 127.34 69.62 126.74 71.11 Z" />
<path fill="#ffbb41" opacity="1.00" d=" M 109.52 67.81 C 109.88 68.11 110.59 68.71 110.94 69.01 C 108.73 71.09 107.90 74.01 107.42 76.91 C 107.10 76.83 106.46 76.67 106.14 76.59 C 106.98 73.57 108.13 70.63 109.52 67.81 Z" />
<path fill="#ffffff" opacity="1.00" d=" M 121.18 76.95 C 121.60 73.57 122.72 70.32 124.31 67.32 C 124.29 68.39 124.25 70.53 124.23 71.60 C 123.17 73.35 122.13 75.13 121.18 76.95 Z" />
<path fill="#fff197" opacity="1.00" d=" M 117.97 76.75 C 118.95 74.32 119.70 71.81 120.76 69.41 C 120.47 73.15 119.32 76.77 119.17 80.54 C 117.05 80.17 115.45 82.08 113.79 83.08 C 113.77 82.24 113.73 80.57 113.71 79.73 C 114.42 79.26 115.84 78.32 116.55 77.85 C 115.83 77.24 115.10 76.64 114.37 76.05 C 115.56 74.90 116.76 73.75 118.06 72.70 C 117.65 73.26 116.84 74.37 116.43 74.92 C 116.95 75.53 117.46 76.14 117.97 76.75 Z" />
<path fill="#b76b26" opacity="1.00" d=" M 150.12 69.71 C 152.12 70.41 154.12 71.21 155.81 72.51 C 155.86 73.73 154.25 74.14 153.61 75.03 C 152.41 73.28 151.23 71.51 150.12 69.71 Z" />
<path fill="#8697bd" opacity="1.00" d=" M 110.42 72.86 L 110.52 72.87 C 111.58 73.03 112.64 73.16 113.70 73.26 C 112.73 75.25 112.44 78.39 109.51 77.95 C 109.78 76.25 110.10 74.55 110.42 72.86 Z" />
<path fill="#f5e28e" opacity="1.00" d=" M 124.23 71.60 C 125.92 74.27 129.14 74.43 132.00 74.43 L 131.43 75.42 C 129.29 79.03 124.11 77.50 120.60 78.16 C 120.75 77.86 121.04 77.25 121.18 76.95 C 122.13 75.13 123.17 73.35 124.23 71.60 Z" />
<path fill="#b06424" opacity="1.00" d=" M 147.31 76.10 C 147.11 74.22 146.29 72.19 148.12 70.73 C 148.72 72.12 149.44 73.49 149.81 74.97 C 148.81 78.32 145.95 80.57 143.31 82.64 C 141.45 81.89 139.55 81.25 137.70 80.47 C 141.06 79.64 145.38 79.52 147.31 76.10 Z" />
<path fill="#ced4d6" opacity="1.00" d=" M 151.80 78.82 C 154.35 76.75 157.22 74.51 160.63 74.30 C 160.98 74.70 161.67 75.51 162.02 75.92 C 163.33 77.03 164.16 78.52 164.92 80.04 C 165.93 81.67 166.97 83.28 167.96 84.92 C 166.23 85.80 164.52 86.72 162.82 87.65 C 159.84 84.03 157.30 78.55 151.80 78.82 Z" />
<path fill="#bd9a4d" opacity="1.00" d=" M 131.43 75.42 L 131.58 75.19 C 132.50 77.03 133.63 78.76 134.80 80.46 C 130.96 80.41 127.03 79.97 123.23 80.66 L 122.51 81.07 C 122.10 81.10 121.30 81.18 120.89 81.21 C 120.82 80.45 120.67 78.93 120.60 78.16 C 124.11 77.50 129.29 79.03 131.43 75.42 Z" />
<path fill="#664817" opacity="1.00" d=" M 110.24 80.25 C 111.62 79.82 112.12 80.31 111.74 81.72 C 110.36 82.15 109.85 81.66 110.24 80.25 Z" />
<path fill="#a38745" opacity="1.00" d=" M 116.03 86.13 C 113.16 85.27 113.26 82.11 113.71 79.73 C 113.73 80.57 113.77 82.24 113.79 83.08 C 115.45 82.08 117.05 80.17 119.17 80.54 L 120.70 81.35 C 119.28 83.06 117.87 84.84 116.03 86.13 Z" />
<path fill="#474293" opacity="1.00" d=" M 140.37 92.38 C 140.91 86.68 146.27 84.15 149.49 80.12 C 151.76 81.57 155.00 81.03 156.71 83.35 C 158.31 85.05 159.70 86.94 161.13 88.79 C 160.78 89.36 160.10 90.48 159.76 91.04 C 160.49 92.02 161.22 93.00 161.96 93.98 C 161.24 94.94 160.53 95.90 159.82 96.86 C 160.42 98.14 161.01 99.43 161.61 100.72 C 157.77 98.75 153.63 97.44 149.38 96.68 C 148.97 98.61 148.55 100.54 148.21 102.49 C 147.25 100.87 147.29 98.97 147.20 97.16 C 144.78 95.79 142.48 94.20 140.37 92.38 Z" />
<path fill="#a45920" opacity="1.00" d=" M 120.89 81.21 C 121.30 81.18 122.10 81.10 122.51 81.07 C 128.27 83.36 134.79 81.86 140.73 83.69 C 139.60 86.27 138.61 88.92 138.00 91.68 C 135.38 87.04 130.52 83.21 125.03 83.21 C 124.48 83.29 123.39 83.44 122.85 83.52 C 122.18 82.76 121.53 81.99 120.89 81.21 Z" />
<path fill="#ffffff" opacity="1.00" d=" M 122.85 83.52 C 123.39 83.44 124.48 83.29 125.03 83.21 C 125.20 84.14 125.37 85.06 125.56 85.98 L 125.67 86.51 C 126.50 91.23 127.07 95.98 127.69 100.73 C 127.70 101.30 127.73 102.45 127.75 103.02 C 126.59 107.49 124.80 112.59 120.39 114.78 C 122.14 110.81 124.39 106.95 124.96 102.58 C 125.86 96.16 124.43 89.71 122.85 83.52 Z" />
<path fill="#c2892c" opacity="1.00" d=" M 125.03 83.21 C 130.52 83.21 135.38 87.04 138.00 91.68 C 138.38 92.28 139.15 93.48 139.53 94.08 C 139.02 96.06 138.50 98.04 137.93 100.00 C 133.02 96.51 133.30 89.67 129.42 85.32 C 128.46 85.49 126.53 85.82 125.56 85.98 C 125.37 85.06 125.20 84.14 125.03 83.21 Z" />
<path fill="#ffff66" opacity="1.00" d=" M 119.52 85.64 C 119.95 85.20 120.37 84.75 120.80 84.30 C 122.96 91.09 124.16 98.48 122.36 105.49 C 121.24 109.28 119.18 112.70 117.20 116.09 C 115.77 114.07 113.79 112.31 113.00 109.91 C 115.04 104.40 118.95 99.68 120.56 93.97 C 121.10 91.15 120.52 88.29 119.52 85.64 Z" />
<path fill="#ae6225" opacity="1.00" d=" M 169.54 86.55 C 171.31 86.04 173.08 85.54 174.87 85.08 C 175.22 86.61 175.57 88.14 175.92 89.68 C 175.26 89.77 173.96 89.95 173.30 90.05 C 172.05 88.87 170.80 87.70 169.54 86.55 Z" />
<path fill="#eecd44" opacity="1.00" d=" M 125.56 85.98 C 126.53 85.82 128.46 85.49 129.42 85.32 C 133.30 89.67 133.02 96.51 137.93 100.00 C 137.76 100.58 137.43 101.74 137.26 102.31 C 139.42 100.76 141.59 99.21 143.87 97.83 C 143.08 100.61 140.46 102.04 138.31 103.66 C 137.72 103.50 136.54 103.17 135.95 103.01 C 136.25 101.96 136.55 100.91 136.85 99.86 C 135.77 101.19 134.70 102.53 133.63 103.86 C 131.67 103.58 129.71 103.30 127.75 103.02 C 127.73 102.45 127.70 101.30 127.69 100.73 C 129.71 97.35 132.03 93.36 130.87 89.29 C 129.30 88.09 127.41 87.41 125.67 86.51 L 125.56 85.98 Z" />
<path fill="#ffffff" opacity="1.00" d=" M 113.80 87.20 C 115.15 87.92 116.49 88.63 117.86 89.31 C 117.02 91.42 116.18 93.53 115.33 95.64 C 114.49 94.43 113.65 93.23 112.80 92.03 C 113.20 90.43 113.51 88.82 113.80 87.20 Z" />
<path fill="#ffff56" opacity="1.00" d=" M 125.67 86.51 C 127.41 87.41 129.30 88.09 130.87 89.29 C 132.03 93.36 129.71 97.35 127.69 100.73 C 127.07 95.98 126.50 91.23 125.67 86.51 Z" />
<path fill="#fee24b" opacity="1.00" d=" M 164.12 88.73 C 165.94 88.04 167.74 87.30 169.54 86.55 C 170.80 87.70 172.05 88.87 173.30 90.05 C 169.75 90.66 166.23 91.48 162.96 93.03 C 162.77 92.53 162.41 91.55 162.23 91.06 C 163.28 90.99 164.20 90.59 164.98 89.86 C 164.79 89.60 164.41 89.10 164.22 88.85 L 164.12 88.73 Z" />
<path fill="#657597" opacity="1.00" d=" M 117.86 89.31 C 119.69 92.32 118.27 95.78 116.43 98.40 C 116.06 97.48 115.69 96.56 115.33 95.64 C 116.18 93.53 117.02 91.42 117.86 89.31 Z" />
<path fill="#e6e3a5" opacity="1.00" d=" M 162.23 91.06 C 162.08 89.65 162.75 88.91 164.22 88.85 C 164.41 89.10 164.79 89.60 164.98 89.86 C 164.20 90.59 163.28 90.99 162.23 91.06 Z" />
<path fill="#a8562d" opacity="1.00" d=" M 170.04 92.67 C 174.22 91.43 178.60 91.83 182.86 92.38 C 182.84 93.48 182.83 94.58 182.82 95.68 C 179.51 95.57 176.19 95.70 172.90 96.06 C 172.71 95.19 172.32 93.44 172.12 92.57 C 171.60 92.60 170.56 92.65 170.04 92.67 Z" />
<path fill="#deb263" opacity="1.00" d=" M 107.77 95.13 C 108.57 94.19 109.38 93.25 110.19 92.31 C 111.41 93.86 112.60 95.43 113.75 97.03 C 112.61 98.12 111.46 99.22 110.31 100.31 C 109.47 98.57 108.62 96.85 107.77 95.13 Z" />
<path fill="#ddb162" opacity="1.00" d=" M 166.76 93.89 C 167.84 93.46 168.93 93.05 170.04 92.67 C 170.56 92.65 171.60 92.60 172.12 92.57 C 172.32 93.44 172.71 95.19 172.90 96.06 C 169.91 96.92 167.03 98.12 164.38 99.75 C 163.87 98.94 163.36 98.14 162.86 97.33 C 164.39 97.09 165.84 96.16 166.38 94.66 L 166.76 93.89 Z" />
<path fill="#9b541e" opacity="1.00" d=" M 139.53 94.08 C 140.94 95.37 142.38 96.63 143.87 97.83 C 141.59 99.21 139.42 100.76 137.26 102.31 C 137.43 101.74 137.76 100.58 137.93 100.00 C 138.50 98.04 139.02 96.06 139.53 94.08 Z" />
<path fill="#ffffed" opacity="1.00" d=" M 162.86 97.33 C 162.53 95.74 164.95 94.13 166.38 94.66 C 165.84 96.16 164.39 97.09 162.86 97.33 Z" />
<path fill="#ffffef" opacity="1.00" d=" M 95.82 106.92 C 98.33 102.67 101.34 98.65 104.82 95.15 C 105.28 95.62 106.21 96.56 106.67 97.03 C 103.32 100.60 99.88 104.15 95.82 106.92 Z" />
<path fill="#ebc842" opacity="1.00" d=" M 106.67 97.03 C 106.85 97.27 107.21 97.76 107.39 98.00 L 107.08 98.47 C 104.40 102.65 101.86 106.93 98.62 110.71 C 97.40 109.66 96.16 108.64 94.92 107.62 C 95.14 107.44 95.59 107.10 95.82 106.92 C 99.88 104.15 103.32 100.60 106.67 97.03 Z" />
<path fill="#ad582f" opacity="1.00" d=" M 110.31 100.31 C 111.46 99.22 112.61 98.12 113.75 97.03 C 114.17 98.60 114.57 100.18 114.98 101.75 C 113.93 102.76 113.37 104.65 111.80 104.88 C 111.23 103.37 110.78 101.84 110.31 100.31 Z" />
<path fill="#433c8d" opacity="1.00" d=" M 149.38 96.68 C 153.63 97.44 157.77 98.75 161.61 100.72 C 164.60 104.37 166.79 108.74 168.68 113.07 C 168.43 115.39 167.50 117.57 166.86 119.80 C 168.73 119.66 170.60 119.41 172.48 119.47 C 172.98 120.52 173.08 121.61 172.80 122.75 C 172.47 125.50 171.83 128.42 172.99 131.08 C 175.53 137.81 182.01 141.63 187.16 146.17 C 192.90 151.22 199.42 155.28 206.32 158.55 C 215.87 163.46 225.03 169.14 234.87 173.50 C 229.78 175.90 225.12 179.09 220.97 182.88 C 216.84 180.38 212.90 177.26 208.10 176.20 C 205.29 175.44 202.44 176.26 199.67 176.78 C 198.55 174.97 197.43 173.15 196.32 171.33 C 198.34 168.23 201.54 165.05 200.74 161.02 C 199.87 158.28 197.37 156.52 195.25 154.75 C 183.99 146.11 171.53 139.05 160.92 129.56 C 161.64 129.19 163.08 128.44 163.80 128.07 C 159.18 121.88 154.20 115.94 149.19 110.05 C 150.02 109.07 151.15 108.27 151.56 107.00 C 150.57 105.41 149.29 104.02 148.21 102.49 C 148.55 100.54 148.97 98.61 149.38 96.68 Z" />
<path fill="#a86725" opacity="1.00" d=" M 170.05 98.75 C 174.12 97.63 178.37 97.59 182.57 97.48 C 182.30 104.20 182.07 111.01 180.71 117.59 C 179.32 118.22 177.83 118.56 176.36 118.92 C 175.97 112.10 175.18 105.30 174.73 98.48 C 173.17 98.55 171.60 98.62 170.05 98.75 Z" />
<path fill="#90441a" opacity="1.00" d=" M 98.62 110.71 C 101.86 106.93 104.40 102.65 107.08 98.47 C 107.72 100.08 108.34 101.68 108.94 103.30 C 108.40 105.04 107.84 106.77 107.33 108.52 L 107.19 108.99 C 103.28 111.61 100.26 115.54 95.82 117.29 C 96.99 115.81 98.25 114.39 99.52 113.00 C 99.21 112.24 98.91 111.47 98.62 110.71 Z" />
<path fill="#f7da48" opacity="1.00" d=" M 164.69 100.99 C 166.46 100.20 168.21 99.36 170.05 98.75 C 171.60 98.62 173.17 98.55 174.73 98.48 C 175.18 105.30 175.97 112.10 176.36 118.92 L 175.24 119.89 C 171.46 113.73 168.85 106.92 164.69 100.99 Z" />
<path fill="#ffee4e" opacity="1.00" d=" M 133.63 103.86 C 134.70 102.53 135.77 101.19 136.85 99.86 C 136.55 100.91 136.25 101.96 135.95 103.01 C 136.54 103.17 137.72 103.50 138.31 103.66 C 132.07 109.05 125.27 113.77 118.30 118.18 C 118.86 117.11 119.44 116.05 120.03 114.99 L 120.39 114.78 C 124.80 112.59 126.59 107.49 127.75 103.02 C 129.71 103.30 131.67 103.58 133.63 103.86 Z" />
<path fill="#ac6323" opacity="1.00" d=" M 138.39 106.00 C 140.13 104.59 141.93 103.23 143.74 101.91 C 145.15 103.41 146.55 104.92 147.92 106.46 C 144.74 107.03 141.52 106.67 138.39 106.00 Z" />
<path fill="#ffbb41" opacity="1.00" d=" M 107.33 108.52 C 107.84 106.77 108.40 105.04 108.94 103.30 C 109.45 104.72 110.00 106.12 110.57 107.52 C 109.76 107.77 108.14 108.27 107.33 108.52 Z" />
<path fill="#ffffed" opacity="1.00" d=" M 135.18 107.93 C 135.36 108.06 135.73 108.31 135.91 108.44 C 138.46 110.24 140.96 112.11 143.49 113.94 C 146.30 116.17 148.86 118.70 151.15 121.46 C 145.71 117.13 139.48 113.50 135.18 107.93 Z" />
<path fill="#c38b2d" opacity="1.00" d=" M 135.91 108.44 C 139.14 108.59 142.66 107.93 145.70 109.25 C 148.21 111.49 150.23 114.22 152.38 116.80 C 149.40 115.90 146.41 115.02 143.49 113.94 C 140.96 112.11 138.46 110.24 135.91 108.44 Z" />
<path fill="#ffbb41" opacity="1.00" d=" M 108.59 110.66 C 110.09 110.13 110.94 112.04 112.07 112.69 C 109.39 115.46 106.83 118.34 104.19 121.15 C 105.34 117.53 106.59 113.90 108.59 110.66 Z" />
<path fill="#c4cbd1" opacity="1.00" d=" M 126.07 115.95 C 128.64 113.96 131.23 111.99 133.74 109.92 C 134.80 111.00 135.86 112.08 136.91 113.17 C 136.07 113.10 134.39 112.96 133.55 112.90 C 136.44 115.68 139.33 118.49 142.17 121.33 C 141.88 123.08 141.80 124.86 141.58 126.62 C 140.20 126.29 138.83 125.97 137.46 125.64 L 137.11 125.56 C 134.85 123.72 132.15 122.62 129.45 121.59 L 129.08 120.97 C 128.08 119.29 127.07 117.62 126.07 115.95 Z" />
<path fill="#fee24b" opacity="1.00" d=" M 88.47 114.79 C 89.86 113.27 91.19 111.66 92.93 110.52 C 94.91 112.92 90.69 115.41 89.70 117.57 C 89.39 116.87 88.78 115.48 88.47 114.79 Z" />
<path fill="#e2a839" opacity="1.00" d=" M 96.03 111.08 C 96.45 111.33 97.28 111.83 97.69 112.08 C 96.52 113.33 95.34 114.58 94.21 115.87 C 94.84 114.28 95.48 112.70 96.03 111.08 Z" />
<path fill="#8b99b6" opacity="1.00" d=" M 133.55 112.90 C 134.39 112.96 136.07 113.10 136.91 113.17 C 142.39 117.36 147.67 121.86 153.55 125.50 C 156.76 127.54 158.66 131.02 161.63 133.36 C 170.78 141.04 180.98 147.34 190.66 154.32 C 193.35 156.37 196.30 158.29 198.19 161.16 C 199.26 162.79 197.72 164.57 197.00 166.02 C 192.77 172.14 188.32 178.11 184.28 184.37 C 183.25 185.73 183.22 187.50 182.86 189.11 C 179.29 189.24 175.83 188.32 172.40 187.47 C 174.54 178.17 173.71 167.34 166.96 160.04 C 163.92 156.96 161.32 153.43 159.98 149.26 C 159.50 148.07 159.00 146.89 158.49 145.72 C 159.58 145.96 160.66 146.21 161.75 146.47 C 163.09 144.41 164.43 142.36 165.78 140.31 C 161.87 138.16 157.79 136.38 153.66 134.74 C 152.05 132.81 150.50 130.82 148.96 128.84 C 146.85 126.20 144.54 123.73 142.17 121.33 C 139.33 118.49 136.44 115.68 133.55 112.90 Z" />
<path fill="#ffffff" opacity="1.00" d=" M 83.57 117.48 C 82.95 115.24 85.05 113.90 87.03 113.75 C 86.79 115.49 85.90 118.27 83.57 117.48 Z" />
<path fill="#e9d151" opacity="1.00" d=" M 143.49 113.94 C 146.41 115.02 149.40 115.90 152.38 116.80 C 155.26 120.53 158.46 123.99 161.30 127.75 C 157.41 126.66 153.87 124.44 151.15 121.46 C 148.86 118.70 146.30 116.17 143.49 113.94 Z" />
<path fill="#90441a" opacity="1.00" d=" M 86.82 121.14 C 87.19 118.98 87.75 116.86 88.47 114.79 C 88.78 115.48 89.39 116.87 89.70 117.57 L 89.80 117.79 C 88.82 118.92 87.83 120.04 86.82 121.14 Z" />
<path fill="#fefeed" opacity="1.00" d=" M 109.90 117.89 C 110.60 116.47 111.65 115.27 112.59 114.01 C 114.29 116.21 116.14 118.29 118.06 120.31 C 118.30 120.59 118.78 121.15 119.02 121.43 C 118.89 125.37 118.37 129.29 117.85 133.21 C 117.15 139.39 115.04 145.28 113.81 151.36 C 112.52 158.92 109.69 166.07 107.62 173.42 C 102.98 168.10 98.58 162.55 94.32 156.92 C 98.55 149.76 104.55 143.73 108.01 136.08 C 108.45 137.37 108.92 138.66 109.41 139.94 C 110.18 138.74 110.64 137.40 110.33 135.96 C 109.61 129.98 109.15 123.90 109.90 117.89 Z" />
<path fill="#fed747" opacity="1.00" d=" M 76.57 119.41 C 78.05 118.48 79.16 115.57 81.27 116.85 C 80.07 118.16 78.85 119.45 77.62 120.72 L 76.57 119.41 Z" />
<path fill="#bdc5ce" opacity="1.00" d=" M 118.06 120.31 C 120.83 119.06 123.52 117.62 126.07 115.95 C 127.07 117.62 128.08 119.29 129.08 120.97 C 127.42 120.72 125.75 120.48 124.07 120.31 C 125.54 121.70 127.25 122.78 129.05 123.69 C 129.35 126.10 129.61 128.51 130.00 130.90 C 125.87 131.18 121.78 131.89 117.85 133.21 C 118.37 129.29 118.89 125.37 119.02 121.43 C 118.78 121.15 118.30 120.59 118.06 120.31 Z" />
<path fill="#e0e3de" opacity="1.00" d=" M 169.33 115.90 C 170.92 115.32 171.45 115.86 170.94 117.52 C 169.35 118.10 168.82 117.56 169.33 115.90 Z" />
<path fill="#ffffff" opacity="1.00" d=" M 81.27 116.85 C 81.86 117.68 82.47 118.50 83.08 119.31 C 82.14 120.67 81.21 122.04 80.38 123.47 C 79.45 122.56 78.54 121.63 77.62 120.72 C 78.85 119.45 80.07 118.16 81.27 116.85 Z" />
<path fill="#ffffef" opacity="1.00" d=" M 91.35 118.47 C 93.19 117.47 95.06 118.52 96.60 119.51 C 95.19 122.05 93.54 124.44 91.76 126.73 C 90.95 125.54 90.15 124.35 89.35 123.16 C 90.04 121.62 90.20 119.75 91.35 118.47 Z" />
<path fill="#ffffff" opacity="1.00" d=" M 180.42 120.30 C 180.66 120.01 181.12 119.43 181.36 119.14 C 181.43 119.61 181.56 120.56 181.63 121.04 C 179.52 122.02 177.43 123.05 175.30 123.99 C 175.26 123.35 175.20 122.07 175.17 121.43 C 176.90 120.97 178.64 120.56 180.42 120.30 Z" />
<path fill="#f7da48" opacity="1.00" d=" M 80.38 123.47 C 81.21 122.04 82.14 120.67 83.08 119.31 C 83.63 119.88 84.75 121.01 85.30 121.58 C 84.90 122.07 84.09 123.04 83.69 123.52 C 83.07 124.24 82.46 124.96 81.84 125.68 C 81.48 125.13 80.75 124.02 80.38 123.47 Z" />
<path fill="#cea965" opacity="1.00" d=" M 59.60 126.49 C 64.54 123.91 69.78 121.14 75.55 121.62 C 73.97 123.96 72.36 126.27 70.86 128.66 L 70.71 128.69 C 68.56 129.16 66.41 129.63 64.26 130.13 C 62.66 128.98 61.11 127.76 59.60 126.49 Z" />
<path fill="#924c1c" opacity="1.00" d=" M 85.30 121.58 C 86.47 123.26 87.61 124.95 88.79 126.62 C 88.44 127.94 88.08 129.26 87.73 130.58 C 85.89 128.54 84.19 126.29 83.69 123.52 C 84.09 123.04 84.90 122.07 85.30 121.58 Z" />
<path fill="#4f4e9e" opacity="1.00" d=" M 103.82 125.50 C 104.91 124.21 105.99 122.91 107.09 121.63 C 107.44 126.43 107.38 131.31 105.71 135.88 C 105.18 132.05 102.38 129.56 99.05 127.99 C 100.06 126.28 101.07 124.56 102.08 122.85 C 102.52 123.52 103.39 124.84 103.82 125.50 Z" />
<path fill="#e0e3de" opacity="1.00" d=" M 141.58 126.62 C 141.80 124.86 141.88 123.08 142.17 121.33 C 144.54 123.73 146.85 126.20 148.96 128.84 C 148.49 130.55 148.92 133.22 146.71 133.75 C 143.98 134.32 141.53 132.30 139.08 131.39 L 138.95 131.33 C 138.51 129.42 138.00 127.52 137.46 125.64 C 138.83 125.97 140.20 126.29 141.58 126.62 Z" />
<path fill="#c68d2d" opacity="1.00" d=" M 81.84 125.68 C 82.46 124.96 83.07 124.24 83.69 123.52 C 84.19 126.29 85.89 128.54 87.73 130.58 C 88.08 129.26 88.44 127.94 88.79 126.62 C 89.82 128.33 90.81 130.05 91.79 131.79 C 90.57 132.69 89.35 133.59 88.14 134.49 C 86.06 131.54 84.07 128.52 81.84 125.68 Z" />
<path fill="#5d62b1" opacity="1.00" d=" M 172.99 131.08 C 171.83 128.42 172.47 125.50 172.80 122.75 C 173.10 124.06 173.40 125.37 173.71 126.69 C 175.52 125.99 177.33 125.29 179.14 124.57 C 181.40 128.52 184.36 132.08 188.35 134.38 L 188.33 134.64 C 188.06 138.49 187.68 142.34 187.16 146.17 C 182.01 141.63 175.53 137.81 172.99 131.08 Z" />
<path fill="#ffffff" opacity="1.00" d=" M 68.79 137.08 C 71.31 132.38 72.95 126.09 78.01 123.59 C 78.15 123.85 78.43 124.35 78.57 124.61 C 74.80 129.24 72.12 134.57 69.46 139.88 C 69.29 139.18 68.95 137.78 68.79 137.08 Z" />
<path fill="#f3f4e7" opacity="1.00" d=" M 129.05 123.69 C 131.29 124.46 133.51 125.28 135.74 126.09 C 136.20 130.49 133.26 134.25 132.12 138.34 C 131.35 135.88 130.50 133.44 130.00 130.90 C 129.61 128.51 129.35 126.10 129.05 123.69 Z" />
<path fill="#f2d847" opacity="1.00" d=" M 69.46 139.88 C 72.12 134.57 74.80 129.24 78.57 124.61 C 79.06 125.19 80.05 126.37 80.54 126.95 C 77.70 130.62 75.02 134.40 72.59 138.35 C 71.36 139.01 70.14 139.69 68.97 140.46 L 68.69 140.34 C 68.31 140.18 67.56 139.87 67.18 139.71 C 67.71 138.83 68.24 137.95 68.79 137.08 C 68.95 137.78 69.29 139.18 69.46 139.88 Z" />
<path fill="#c58d2e" opacity="1.00" d=" M 80.54 126.95 C 81.99 129.04 83.43 131.14 84.86 133.25 C 80.98 135.40 77.04 137.63 72.59 138.35 C 75.02 134.40 77.70 130.62 80.54 126.95 Z" />
<path fill="#c18441" opacity="1.00" d=" M 64.26 130.13 C 66.41 129.63 68.56 129.16 70.71 128.69 C 69.08 132.14 67.41 135.59 65.50 138.89 L 63.61 138.93 C 64.01 138.51 64.82 137.67 65.23 137.25 C 64.75 137.32 63.78 137.46 63.30 137.53 C 64.89 135.33 66.38 132.51 64.26 130.13 Z" />
<path fill="#656dbb" opacity="1.00" d=" M 98.08 130.05 C 98.32 129.54 98.81 128.51 99.05 127.99 C 102.38 129.56 105.18 132.05 105.71 135.88 C 104.49 137.75 103.32 139.64 102.14 141.54 C 101.31 137.55 100.34 133.51 98.08 130.05 Z" />
<path fill="#f5f6e8" opacity="1.00" d=" M 146.71 133.75 C 148.92 133.22 148.49 130.55 148.96 128.84 C 150.50 130.82 152.05 132.81 153.66 134.74 C 155.31 138.38 156.81 142.09 158.49 145.72 C 159.00 146.89 159.50 148.07 159.98 149.26 C 159.19 152.68 159.03 156.76 155.93 159.02 C 153.79 160.75 150.52 163.49 147.84 161.23 C 146.74 158.74 146.34 156.02 145.74 153.38 C 145.31 153.50 144.44 153.76 144.01 153.88 C 142.48 146.36 140.86 138.86 139.08 131.39 C 141.53 132.30 143.98 134.32 146.71 133.75 Z" />
<path fill="#7785d2" opacity="1.00" d=" M 91.99 141.28 C 93.93 137.49 95.91 133.72 98.08 130.05 C 100.34 133.51 101.31 137.55 102.14 141.54 C 100.29 144.22 98.41 146.88 96.40 149.44 C 92.73 148.33 92.25 144.56 91.99 141.28 Z" />
<path fill="#a7b1c3" opacity="1.00" d=" M 117.85 133.21 C 121.78 131.89 125.87 131.18 130.00 130.90 C 130.50 133.44 131.35 135.88 132.12 138.34 C 132.05 140.68 130.37 143.15 131.55 145.41 C 133.34 148.29 136.16 150.27 138.78 152.34 C 138.98 154.84 139.50 157.37 139.21 159.89 C 135.39 164.65 130.34 168.26 126.11 172.65 C 127.96 168.36 130.52 163.95 130.00 159.10 C 127.61 157.30 124.80 155.86 121.80 155.46 C 119.69 155.55 117.69 156.32 115.67 156.89 C 115.05 155.04 114.43 153.20 113.81 151.36 C 115.04 145.28 117.15 139.39 117.85 133.21 Z" />
<path fill="#423a8d" opacity="1.00" d=" M 136.60 132.46 C 138.52 138.64 139.70 145.03 140.88 151.39 C 138.19 149.10 135.24 146.93 133.35 143.89 C 133.79 139.94 135.32 136.20 136.60 132.46 Z" />
<path fill="#a65c2a" opacity="1.00" d=" M 70.49 141.29 C 75.97 139.64 81.47 137.92 86.19 134.55 C 85.66 136.96 84.89 139.32 84.00 141.62 C 77.37 141.92 71.97 146.54 69.17 152.32 C 67.68 150.03 66.32 147.67 65.05 145.26 C 65.46 144.32 65.88 143.40 66.29 142.47 L 66.53 141.93 L 67.85 142.60 C 67.97 142.03 68.22 140.90 68.34 140.33 L 67.18 139.71 C 67.56 139.87 68.31 140.18 68.69 140.34 C 69.14 140.58 70.04 141.05 70.49 141.29 Z" />
<path fill="#9da9bf" opacity="1.00" d=" M 153.66 134.74 C 157.79 136.38 161.87 138.16 165.78 140.31 C 164.43 142.36 163.09 144.41 161.75 146.47 C 160.66 146.21 159.58 145.96 158.49 145.72 C 156.81 142.09 155.31 138.38 153.66 134.74 Z" />
<path fill="#6870be" opacity="1.00" d=" M 188.33 134.64 C 193.22 137.60 198.22 140.40 203.25 143.12 L 203.35 143.32 C 203.52 143.65 203.87 144.32 204.04 144.66 C 204.54 145.57 205.08 146.45 205.62 147.34 C 206.00 151.06 206.21 154.80 206.32 158.55 C 199.42 155.28 192.90 151.22 187.16 146.17 C 187.68 142.34 188.06 138.49 188.33 134.64 Z" />
<path fill="#ffffff" opacity="1.00" d=" M 56.46 140.96 C 58.65 139.68 60.87 138.31 63.30 137.53 C 63.78 137.46 64.75 137.32 65.23 137.25 C 64.82 137.67 64.01 138.51 63.61 138.93 C 62.62 139.91 61.66 140.91 60.73 141.95 C 58.28 144.79 55.89 147.70 53.36 150.48 C 54.16 148.33 55.09 146.24 56.08 144.18 C 56.18 143.38 56.37 141.77 56.46 140.96 Z" />
<path fill="#d06c2f" opacity="1.00" d=" M 60.73 141.95 C 61.66 140.91 62.62 139.91 63.61 138.93 L 65.50 138.89 C 64.99 140.08 64.48 141.28 63.98 142.48 C 64.56 142.47 65.71 142.47 66.29 142.47 C 65.88 143.40 65.46 144.32 65.05 145.26 C 66.32 147.67 67.68 150.03 69.17 152.32 C 68.98 154.08 69.10 155.92 68.51 157.61 C 65.91 160.80 62.60 163.33 59.47 165.98 C 59.02 165.60 58.11 164.83 57.65 164.45 C 58.19 162.49 58.72 160.53 59.34 158.59 C 62.75 154.36 61.95 148.74 61.02 143.80 C 60.94 143.33 60.80 142.41 60.73 141.95 Z" />
<path fill="#ffffa7" opacity="1.00" d=" M 53.36 150.48 C 55.89 147.70 58.28 144.79 60.73 141.95 C 60.80 142.41 60.94 143.33 61.02 143.80 C 61.38 147.58 60.71 151.45 58.70 154.70 C 55.73 159.67 53.41 165.13 49.37 169.37 C 46.98 171.94 44.61 174.53 42.08 176.97 C 34.40 181.73 26.40 186.38 17.64 188.83 C 24.36 183.88 31.46 179.25 37.08 173.00 C 41.20 168.35 46.71 164.48 48.19 158.08 C 49.77 155.46 51.63 153.00 53.36 150.48 Z" />
<path fill="#8194e0" opacity="1.00" d=" M 91.99 141.28 C 92.25 144.56 92.73 148.33 96.40 149.44 C 94.96 151.31 93.38 153.14 92.43 155.32 C 91.41 158.06 93.81 160.30 95.24 162.33 C 94.34 164.27 93.39 166.27 91.71 167.67 C 92.64 165.56 93.61 163.45 94.25 161.23 C 88.30 165.87 87.49 173.95 85.86 180.78 C 85.05 180.65 84.24 180.53 83.43 180.40 C 83.09 181.69 82.74 182.98 82.44 184.28 C 79.21 169.29 85.37 154.44 91.99 141.28 Z" />
<path fill="#eda352" opacity="1.00" d=" M 61.02 143.80 C 61.95 148.74 62.75 154.36 59.34 158.59 C 55.42 161.80 54.21 166.82 51.84 171.06 C 48.77 173.31 45.49 175.27 42.08 176.97 C 44.61 174.53 46.98 171.94 49.37 169.37 C 53.41 165.13 55.73 159.67 58.70 154.70 C 60.71 151.45 61.38 147.58 61.02 143.80 Z" />
<path fill="#6f7ac8" opacity="1.00" d=" M 204.04 144.66 C 203.87 144.32 203.52 143.65 203.35 143.32 C 214.94 148.76 226.63 154.03 238.73 158.28 C 244.27 160.51 250.44 161.68 255.07 165.71 C 248.37 168.38 241.41 170.41 234.87 173.50 C 225.03 169.14 215.87 163.46 206.32 158.55 C 206.21 154.80 206.00 151.06 205.62 147.34 C 205.08 146.45 204.54 145.57 204.04 144.66 Z" />
<path fill="#ffffed" opacity="1.00" d=" M 155.93 159.02 C 159.03 156.76 159.19 152.68 159.98 149.26 C 161.32 153.43 163.92 156.96 166.96 160.04 C 173.71 167.34 174.54 178.17 172.40 187.47 C 165.83 185.07 158.82 184.18 152.32 181.58 C 151.14 180.92 149.48 180.44 149.15 178.93 C 146.72 170.75 145.74 162.23 144.01 153.88 C 144.44 153.76 145.31 153.50 145.74 153.38 C 146.34 156.02 146.74 158.74 147.84 161.23 C 150.52 163.49 153.79 160.75 155.93 159.02 Z" />
<path fill="#9aa6bd" opacity="1.00" d=" M 107.62 173.42 C 109.69 166.07 112.52 158.92 113.81 151.36 C 114.43 153.20 115.05 155.04 115.67 156.89 C 117.69 156.32 119.69 155.55 121.80 155.46 C 124.80 155.86 127.61 157.30 130.00 159.10 C 130.52 163.95 127.96 168.36 126.11 172.65 C 122.81 178.92 114.69 178.89 108.76 181.05 C 108.22 178.54 107.58 176.01 107.62 173.42 Z" />
<path fill="#464091" opacity="1.00" d=" M 141.61 154.87 C 143.25 162.68 144.50 170.56 146.37 178.31 C 143.18 177.56 140.21 176.01 136.95 175.55 C 134.33 175.90 132.37 177.88 130.27 179.31 C 130.18 178.50 130.00 176.86 129.90 176.04 C 128.56 176.16 127.21 176.28 125.87 176.40 C 130.02 171.39 135.44 167.65 139.88 162.94 C 142.14 160.85 141.53 157.61 141.61 154.87 Z" />
<path fill="#ffffff" opacity="1.00" d=" M 13.99 189.72 C 26.47 180.42 37.70 169.55 48.19 158.08 C 46.71 164.48 41.20 168.35 37.08 173.00 C 31.46 179.25 24.36 183.88 17.64 188.83 C 16.47 189.28 15.21 189.47 13.99 189.72 Z" />
<path fill="#ea823a" opacity="1.00" d=" M 51.84 171.06 C 54.21 166.82 55.42 161.80 59.34 158.59 C 58.72 160.53 58.19 162.49 57.65 164.45 C 58.11 164.83 59.02 165.60 59.47 165.98 C 56.97 167.73 54.47 169.50 51.84 171.06 Z" />
<path fill="#433c8d" opacity="1.00" d=" M 95.24 162.33 C 98.29 166.07 101.38 169.79 104.32 173.62 C 105.93 175.31 105.49 177.74 105.60 179.87 C 102.37 179.15 99.27 177.88 96.00 177.41 C 92.37 177.18 90.06 180.51 87.66 182.68 C 88.50 177.73 89.46 172.78 91.26 168.08 L 91.71 167.67 C 93.39 166.27 94.34 164.27 95.24 162.33 Z" />
<path fill="#595cab" opacity="1.00" d=" M 191.05 178.73 C 192.80 176.25 194.54 173.78 196.32 171.33 C 197.43 173.15 198.55 174.97 199.67 176.78 C 198.30 177.76 196.92 178.74 195.55 179.73 C 194.05 179.39 192.55 179.06 191.05 178.73 Z" />
<path fill="#b06424" opacity="1.00" d=" M 120.84 179.67 C 122.90 178.69 125.25 178.88 127.47 178.74 C 121.99 184.04 114.90 187.20 108.03 190.26 C 107.32 188.11 106.58 185.96 105.70 183.87 C 111.02 183.86 116.35 182.60 120.84 179.67 Z" />
<path fill="#95afff" opacity="1.00" d=" M 83.43 180.40 C 84.24 180.53 85.05 180.65 85.86 180.78 C 85.44 184.33 85.45 187.90 85.35 191.47 C 83.95 189.29 82.61 186.92 82.44 184.28 C 82.74 182.98 83.09 181.69 83.43 180.40 Z" />
<path fill="#ffff58" opacity="1.00" d=" M 109.94 182.29 C 113.64 181.73 117.15 180.34 120.84 179.67 C 116.35 182.60 111.02 183.86 105.70 183.87 C 106.73 182.53 108.45 182.60 109.94 182.29 Z" />
<path fill="#c57b2b" opacity="1.00" d=" M 111.68 191.17 C 116.70 188.95 121.45 186.21 126.09 183.30 C 124.29 188.64 121.68 193.65 119.60 198.88 C 116.56 198.45 113.58 197.70 110.65 196.80 C 110.98 194.92 111.33 193.04 111.68 191.17 Z" />
<path fill="#b76b26" opacity="1.00" d=" M 185.31 185.68 C 186.35 186.30 187.41 186.91 188.44 187.57 C 187.88 190.34 187.93 193.88 185.01 195.31 C 184.71 193.74 184.43 192.16 184.15 190.59 C 184.52 190.25 185.26 189.56 185.62 189.22 C 185.55 188.33 185.39 186.56 185.31 185.68 Z" />
<path fill="#e2a839" opacity="1.00" d=" M 168.74 189.06 C 173.80 190.28 178.91 191.62 184.15 190.59 C 184.43 192.16 184.71 193.74 185.01 195.31 C 183.55 195.37 182.10 195.47 180.65 195.56 C 180.65 194.72 180.66 193.05 180.66 192.21 C 178.74 192.00 176.82 191.78 174.90 191.58 C 175.12 192.74 175.35 193.91 175.57 195.08 C 172.52 194.19 169.42 192.44 168.74 189.06 Z" />
<path fill="#ffffff" opacity="1.00" d=" M 174.90 191.58 C 176.82 191.78 178.74 192.00 180.66 192.21 C 180.66 193.05 180.65 194.72 180.65 195.56 C 178.96 195.39 177.26 195.22 175.57 195.08 C 175.35 193.91 175.12 192.74 174.90 191.58 Z" />
<path fill="#c99130" opacity="1.00" d=" M 186.00 197.31 C 187.12 196.58 188.25 195.85 189.39 195.13 C 192.12 200.26 194.71 205.46 197.11 210.76 C 196.47 210.88 195.20 211.11 194.57 211.23 C 193.61 208.47 193.20 205.22 190.90 203.18 C 188.83 201.36 186.42 199.99 184.10 198.52 C 184.58 198.22 185.52 197.61 186.00 197.31 Z" />
<path fill="#ffd045" opacity="1.00" d=" M 110.65 196.80 C 113.58 197.70 116.56 198.45 119.60 198.88 C 118.70 200.58 117.82 202.29 116.92 204.00 L 117.06 203.47 C 117.12 203.22 117.24 202.74 117.30 202.49 C 116.13 202.74 114.97 203.09 113.77 203.14 C 112.02 202.15 111.25 200.13 110.12 198.57 C 110.25 198.13 110.52 197.24 110.65 196.80 Z" />
<path fill="#eac241" opacity="1.00" d=" M 180.28 197.70 C 182.18 197.59 184.09 197.47 186.00 197.31 C 185.52 197.61 184.58 198.22 184.10 198.52 C 186.42 199.99 188.83 201.36 190.90 203.18 C 193.20 205.22 193.61 208.47 194.57 211.23 C 192.40 211.23 190.23 211.24 188.07 211.34 C 186.07 206.48 183.43 201.90 180.28 197.70 Z" />
<path fill="#ffffef" opacity="1.00" d=" M 175.23 197.22 C 176.49 197.34 179.01 197.58 180.28 197.70 C 183.43 201.90 186.07 206.48 188.07 211.34 C 186.83 210.85 185.69 210.16 184.92 209.05 C 181.76 205.05 178.45 201.17 175.23 197.22 Z" />
<path fill="#ffff58" opacity="1.00" d=" M 110.12 198.57 C 111.25 200.13 112.02 202.15 113.77 203.14 C 114.97 203.09 116.13 202.74 117.30 202.49 C 117.24 202.74 117.12 203.22 117.06 203.47 C 116.89 204.13 116.55 205.45 116.39 206.11 C 112.76 206.80 109.13 207.50 105.42 207.48 C 107.05 204.55 108.62 201.58 110.12 198.57 Z" />
<path fill="#000000" opacity="0.28" d=" M 190.65 215.87 C 197.08 215.81 203.50 216.19 209.93 216.50 C 209.51 216.73 208.66 217.18 208.24 217.40 C 206.61 218.25 204.71 217.67 202.99 217.56 C 198.88 216.93 194.71 216.77 190.65 215.87 Z" />
<path fill="#000000" opacity="0.57" d=" M 209.93 216.50 C 217.40 216.63 224.86 216.31 232.33 216.15 C 229.51 217.84 226.14 217.75 222.98 217.89 C 218.06 218.00 213.13 217.99 208.24 217.40 C 208.66 217.18 209.51 216.73 209.93 216.50 Z" />
</svg>
