<?xml version="1.0" encoding="UTF-8" ?>
<!DOCTYPE svg PUBLIC "-//W3C//DTD SVG 1.1//EN" "http://www.w3.org/Graphics/SVG/1.1/DTD/svg11.dtd">
<svg width="221pt" height="161pt" viewBox="0 0 221 161" version="1.1" xmlns="http://www.w3.org/2000/svg">
<path fill="#000000" opacity="1.00" d=" M 129.39 19.73 C 134.24 12.30 140.50 5.78 147.88 0.83 C 146.31 3.70 144.65 6.52 143.27 9.49 C 139.13 18.42 132.74 26.03 127.91 34.56 C 136.98 25.82 146.89 18.03 157.17 10.76 C 151.35 21.82 142.16 30.46 134.20 39.93 C 153.50 33.59 174.86 33.44 194.09 40.15 C 204.51 43.74 214.95 49.42 221.00 58.98 L 221.00 61.01 C 218.00 58.97 215.06 55.48 211.04 56.33 C 205.09 57.23 200.04 60.84 195.47 64.53 C 194.32 65.60 192.67 65.65 191.25 66.07 C 191.47 66.79 191.91 68.23 192.13 68.94 C 186.67 71.84 180.77 73.98 175.78 77.70 C 168.56 82.82 163.38 90.22 159.96 98.29 C 164.85 97.32 170.04 96.81 174.87 98.35 C 181.39 100.28 186.61 105.18 190.26 110.78 C 192.83 114.53 192.55 119.34 192.14 123.65 C 189.10 120.42 188.51 115.69 185.46 112.48 C 182.61 109.27 178.29 107.24 173.97 107.84 C 168.01 108.34 163.68 112.87 158.88 115.89 C 153.11 119.84 146.48 122.25 139.73 123.88 C 145.96 128.37 153.05 132.06 157.68 138.39 C 159.57 140.79 160.71 143.75 162.90 145.91 C 171.90 146.72 180.98 147.00 189.94 148.34 C 194.93 149.21 200.52 149.31 204.53 152.82 C 199.40 155.43 193.64 156.16 188.00 156.86 C 173.75 158.54 159.41 159.35 145.07 159.69 C 119.71 160.72 94.33 160.24 68.99 159.14 C 56.64 158.33 44.22 157.73 32.05 155.37 C 29.40 154.97 26.91 153.89 24.91 152.09 C 32.77 148.33 41.65 148.23 50.12 147.17 C 51.89 146.93 53.53 146.18 55.18 145.54 C 55.86 145.82 57.23 146.37 57.91 146.64 C 62.60 144.14 67.63 141.33 69.76 136.15 C 66.11 136.14 60.65 139.14 58.38 135.06 C 58.63 130.34 62.20 126.73 65.07 123.29 C 64.03 123.36 61.97 123.49 60.94 123.55 C 64.47 118.30 70.93 116.35 76.14 113.20 C 76.61 110.01 77.79 106.86 81.13 105.79 C 79.74 104.63 78.35 103.45 76.97 102.27 C 73.47 105.41 68.73 105.94 64.42 104.30 C 62.81 105.70 61.18 107.09 59.51 108.42 C 55.95 106.90 52.59 109.61 50.20 111.97 C 50.51 116.45 52.29 120.82 51.48 125.36 C 47.93 122.73 45.19 119.23 42.90 115.49 C 37.54 117.48 32.89 120.87 27.68 123.16 C 29.63 119.25 33.37 116.77 35.90 113.29 C 37.84 112.66 39.50 111.46 40.51 109.65 C 38.82 110.46 37.08 111.39 36.08 113.05 C 28.40 116.56 23.83 124.40 20.77 131.93 C 21.19 133.62 21.64 135.32 21.85 137.05 C 19.39 138.03 16.99 136.41 15.05 135.05 C 9.41 130.60 5.49 124.23 3.38 117.42 C -0.07 105.82 0.87 93.13 4.86 81.78 C 10.53 66.57 22.69 55.00 35.25 45.26 C 42.22 40.06 49.37 34.89 57.41 31.47 C 59.37 30.85 62.24 29.43 63.46 31.94 C 63.76 36.98 61.97 42.04 63.14 47.06 C 63.94 49.69 65.86 51.78 67.33 54.06 C 71.61 51.32 75.73 48.22 80.59 46.57 C 80.09 49.66 79.24 52.68 78.19 55.62 C 85.98 51.96 93.79 48.27 101.87 45.27 C 100.51 51.15 96.07 55.46 91.95 59.55 C 93.03 60.02 94.12 60.49 95.20 60.96 C 97.86 57.94 100.08 54.47 103.42 52.13 C 106.35 45.89 108.99 39.51 112.46 33.55 C 116.06 26.67 121.24 20.82 125.12 14.12 C 126.23 12.73 126.82 10.49 128.78 10.10 C 129.57 13.25 129.37 16.52 129.39 19.73 M 131.94 21.02 C 123.88 32.87 115.26 44.32 107.02 56.03 C 107.45 55.96 108.31 55.82 108.75 55.75 C 116.09 44.60 124.44 34.12 132.24 23.27 C 135.42 18.68 138.74 14.12 141.00 8.98 C 137.32 12.45 134.93 16.98 131.94 21.02 M 119.25 29.15 C 115.92 33.72 113.55 38.89 111.14 43.99 C 115.55 37.83 119.96 31.68 124.30 25.46 C 124.52 22.93 124.95 20.43 125.60 17.97 C 123.87 21.91 121.76 25.66 119.25 29.15 M 122.70 44.77 C 118.57 49.49 113.50 53.45 110.22 58.86 C 115.73 54.95 120.14 49.69 124.93 44.97 C 131.41 37.11 139.00 30.30 145.91 22.85 C 137.62 29.54 130.65 37.69 122.70 44.77 M 50.06 39.16 C 46.53 41.44 43.08 43.84 39.85 46.53 C 30.14 53.61 21.02 61.79 14.50 71.99 C 13.43 73.76 12.39 75.55 11.37 77.36 C 9.43 81.13 7.91 85.13 7.19 89.33 C 4.85 98.50 5.02 108.41 7.88 117.45 C 9.66 123.17 13.14 128.11 16.76 132.80 C 15.08 127.97 13.39 123.09 12.86 117.98 C 11.40 105.18 15.05 92.45 20.33 80.91 C 23.10 76.38 26.02 71.94 29.07 67.59 C 35.00 61.96 40.64 55.30 48.89 53.11 C 48.51 54.49 48.01 55.83 47.62 57.21 C 45.68 62.04 43.54 66.81 42.26 71.88 C 40.71 77.26 39.36 82.83 39.87 88.47 C 39.69 89.91 42.45 90.60 42.54 89.12 C 43.87 88.59 45.19 88.03 46.51 87.48 C 46.99 84.86 47.55 82.25 48.52 79.77 C 47.77 78.90 47.01 78.03 46.26 77.16 C 45.74 76.41 45.20 75.67 44.65 74.94 C 44.48 72.65 43.63 70.09 45.43 68.20 C 47.66 67.91 49.99 67.88 52.12 67.09 C 54.58 65.26 56.18 62.39 59.15 61.23 C 59.89 58.37 62.49 57.14 64.95 56.02 C 63.42 54.16 61.67 52.39 60.68 50.16 C 59.39 46.99 59.57 43.51 59.51 40.16 C 59.85 38.09 60.18 36.01 60.49 33.93 C 56.80 35.22 53.35 37.08 50.06 39.16 M 133.18 43.50 C 132.15 43.95 131.15 44.44 130.17 44.98 C 130.47 48.81 131.32 52.59 131.20 56.45 C 132.95 55.48 134.73 54.53 136.51 53.61 C 141.89 50.91 146.79 47.23 152.55 45.31 C 156.76 43.87 161.02 42.53 165.38 41.63 C 166.80 43.34 163.92 43.81 162.97 44.77 C 174.01 44.18 185.27 43.89 196.08 46.62 C 200.24 47.62 204.16 49.39 208.21 50.75 C 201.74 45.73 193.74 43.30 185.97 41.10 C 168.65 36.50 150.08 37.78 133.18 43.50 M 141.38 53.38 C 136.71 56.18 131.87 58.68 127.09 61.29 C 125.93 61.76 125.23 62.76 124.82 63.90 C 135.27 58.36 145.60 52.54 156.20 47.26 C 150.65 47.43 146.00 50.70 141.38 53.38 M 154.58 50.78 C 153.44 51.47 152.30 52.14 151.16 52.81 C 154.08 60.29 155.45 68.22 157.11 76.04 C 158.36 81.99 158.64 88.07 158.71 94.13 C 160.77 90.55 162.68 86.84 165.41 83.70 L 165.38 83.48 C 167.51 81.34 169.66 79.21 171.85 77.12 C 174.08 75.53 176.35 73.99 178.64 72.49 C 182.17 70.62 185.85 69.04 189.55 67.54 C 189.29 66.59 188.78 64.69 188.53 63.75 C 189.91 63.20 191.42 63.59 192.87 63.55 C 197.24 58.91 202.90 55.48 209.16 54.11 C 201.11 50.89 192.64 48.50 183.98 47.70 C 174.18 47.11 163.75 46.73 154.58 50.78 M 116.25 58.15 C 118.23 58.93 120.05 60.03 121.98 60.93 C 123.91 60.28 125.66 59.22 127.46 58.28 C 128.26 54.79 128.07 51.22 127.41 47.72 C 123.44 50.93 120.26 54.99 116.25 58.15 M 72.96 53.45 C 74.18 53.55 75.40 53.64 76.63 53.73 C 77.02 52.61 77.40 51.48 77.79 50.36 C 76.18 51.39 74.56 52.41 72.96 53.45 M 88.96 54.07 L 88.85 54.26 C 85.21 55.68 81.60 57.17 77.89 58.42 C 76.68 57.46 75.47 56.49 74.27 55.51 C 70.22 56.68 66.04 57.93 62.80 60.76 C 62.55 62.26 62.27 63.76 62.00 65.26 C 65.72 62.30 68.91 58.30 73.75 57.16 C 73.77 60.88 72.83 64.62 70.49 67.57 C 65.36 70.53 59.31 67.49 54.02 69.64 C 52.06 70.16 50.05 70.45 48.09 70.98 C 48.15 72.67 48.39 74.37 48.96 75.96 C 50.13 76.05 51.04 75.63 51.67 74.69 C 53.72 75.80 55.72 77.06 57.92 77.87 C 60.09 76.39 61.04 73.82 62.23 71.60 C 65.83 70.70 69.57 70.78 73.25 70.55 C 73.58 67.92 74.19 65.33 74.91 62.78 C 76.03 62.67 77.16 62.55 78.28 62.43 C 79.22 61.93 80.19 61.48 81.18 61.09 C 81.32 61.93 81.60 63.61 81.74 64.45 C 79.93 64.61 78.11 64.71 76.29 64.77 C 77.79 66.16 79.67 67.33 80.60 69.23 C 81.88 73.14 78.28 77.97 73.95 76.51 C 74.00 79.01 76.67 79.53 78.20 80.86 C 81.65 74.42 85.74 68.26 91.14 63.28 C 89.71 62.79 88.26 62.33 86.82 61.83 C 88.70 57.35 93.35 54.98 95.96 50.98 C 93.58 51.90 91.24 52.92 88.96 54.07 M 129.89 64.46 C 131.69 64.91 133.51 65.35 135.33 65.72 C 137.07 66.54 139.36 66.79 140.48 68.55 C 142.17 71.03 142.90 74.00 144.33 76.62 C 148.58 84.01 151.13 92.37 151.92 100.85 C 152.52 100.84 153.71 100.80 154.31 100.78 C 156.08 96.42 155.47 91.61 155.33 87.03 C 154.30 75.96 151.27 65.21 148.88 54.38 C 142.36 57.38 136.34 61.33 129.89 64.46 M 102.28 57.02 C 101.47 58.28 100.66 59.55 99.84 60.81 C 102.23 60.14 104.66 59.63 107.11 59.21 C 105.55 58.38 103.94 57.62 102.28 57.02 M 35.51 66.20 C 29.98 71.84 25.57 78.49 22.22 85.63 C 24.12 84.91 26.01 84.18 27.91 83.46 C 29.37 84.97 30.85 86.46 32.33 87.94 L 32.30 88.16 C 33.69 88.66 35.08 89.15 36.47 89.65 C 36.23 79.25 39.28 69.26 43.07 59.70 C 40.34 61.60 37.85 63.83 35.51 66.20 M 62.41 67.36 C 64.71 67.23 67.02 67.00 69.26 66.42 C 69.52 66.06 70.04 65.34 70.30 64.98 L 70.55 65.19 C 70.86 63.48 71.16 61.77 71.45 60.06 C 68.05 61.97 64.87 64.31 62.41 67.36 M 114.48 63.95 C 113.91 64.10 112.79 64.39 112.22 64.53 C 111.21 65.38 110.21 66.23 109.20 67.07 C 110.00 67.14 111.60 67.29 112.40 67.36 C 114.08 68.75 115.80 70.11 117.16 71.83 C 120.02 75.63 124.35 77.94 127.28 81.69 C 129.17 84.26 133.22 85.40 135.50 82.66 C 136.80 82.10 138.11 81.54 139.43 81.01 C 139.60 78.06 139.25 75.12 138.21 72.35 L 138.01 72.35 C 135.10 67.99 128.92 68.77 124.40 67.36 L 124.45 66.78 C 124.12 66.73 123.47 66.62 123.14 66.57 C 121.25 65.03 119.20 63.72 117.12 62.46 C 116.24 62.96 115.36 63.46 114.48 63.95 M 89.29 69.35 C 85.06 74.18 81.92 79.94 79.97 86.05 C 84.48 83.44 87.41 79.03 90.35 74.87 L 90.21 74.14 C 92.57 70.25 97.11 67.16 97.39 62.38 C 94.29 64.21 91.79 66.81 89.29 69.35 M 102.85 64.86 C 98.74 68.90 95.21 73.51 91.81 78.16 C 97.02 75.81 101.49 72.09 106.86 70.04 C 105.93 68.65 104.87 67.37 103.14 67.12 C 104.02 66.88 104.89 66.63 105.77 66.38 C 106.31 65.60 107.39 64.05 107.93 63.27 C 106.20 63.62 104.11 63.33 102.85 64.86 M 76.28 68.52 C 75.51 69.88 77.07 72.56 78.69 71.91 C 79.45 70.55 77.87 67.92 76.28 68.52 M 105.93 72.88 C 99.88 76.91 93.53 80.47 87.34 84.28 C 79.52 88.25 72.73 93.90 65.02 98.06 C 56.33 102.76 48.06 108.17 39.99 113.86 C 43.66 112.92 46.77 110.69 49.94 108.72 C 56.74 104.61 63.11 99.80 70.29 96.34 C 76.93 93.19 82.74 88.66 88.97 84.81 C 95.80 80.56 103.07 77.07 109.93 72.88 C 111.11 72.36 111.79 71.33 112.04 70.09 C 109.91 70.79 107.81 71.64 105.93 72.88 M 74.14 72.34 C 72.70 73.68 75.28 75.80 76.57 74.65 C 77.78 73.25 75.51 71.20 74.14 72.34 M 68.74 73.27 C 68.24 73.93 67.23 75.25 66.73 75.91 C 66.12 75.52 64.90 74.73 64.30 74.33 C 63.67 75.94 63.02 77.53 62.32 79.11 C 60.50 79.35 58.69 79.64 56.90 79.99 C 59.96 82.59 63.78 84.62 67.86 83.18 C 67.74 81.17 65.82 76.85 69.57 77.70 C 70.51 78.27 71.53 78.65 72.63 78.83 C 71.90 76.57 71.77 73.40 68.74 73.27 M 111.19 75.30 C 105.60 78.34 100.65 82.37 95.13 85.52 C 93.92 86.17 92.72 86.83 91.53 87.51 C 90.63 89.49 89.39 91.28 87.84 92.81 C 86.48 93.32 85.24 94.12 83.98 94.84 C 84.56 95.22 85.73 95.99 86.31 96.37 C 87.14 97.33 87.98 98.27 88.82 99.22 C 91.27 97.48 93.88 95.87 96.90 95.38 C 96.52 95.89 95.75 96.89 95.37 97.40 C 92.97 98.48 90.73 99.88 88.80 101.68 C 89.89 101.61 92.06 101.48 93.14 101.41 C 91.25 103.13 88.74 104.36 88.10 107.06 C 88.77 107.38 90.11 108.00 90.78 108.31 C 93.35 107.68 95.93 107.09 98.50 106.47 L 98.69 106.76 C 100.37 106.09 102.05 105.43 103.74 104.77 C 103.64 101.39 102.49 98.23 101.49 95.05 C 101.80 92.83 102.61 90.71 103.32 88.59 C 101.67 88.84 100.07 88.74 98.51 88.29 C 100.14 84.93 103.84 83.61 107.01 82.18 C 108.90 83.68 110.87 85.08 112.91 86.37 C 114.26 85.46 115.59 84.49 117.07 83.78 C 119.81 83.42 122.57 84.05 125.32 84.21 C 123.69 82.52 121.95 80.94 120.10 79.51 L 119.80 79.51 C 117.91 77.45 115.98 75.43 113.97 73.49 C 113.27 73.94 111.88 74.85 111.19 75.30 M 73.95 79.67 C 72.66 80.19 71.34 80.62 69.99 80.95 C 70.29 81.53 70.88 82.70 71.17 83.28 C 69.12 84.49 67.00 85.60 64.83 86.59 C 66.69 87.63 68.27 89.78 70.53 89.72 C 72.21 86.85 72.49 83.02 75.39 80.99 C 74.92 80.55 74.44 80.11 73.95 79.67 M 49.47 85.28 C 53.78 84.58 57.94 85.88 62.07 86.92 C 58.57 84.75 55.07 82.59 51.71 80.21 C 50.91 81.87 50.16 83.56 49.47 85.28 M 74.57 89.13 C 75.79 86.79 76.83 84.38 77.84 81.95 C 76.12 84.03 74.20 86.22 74.57 89.13 M 138.45 85.55 C 136.63 86.62 134.89 87.85 132.93 88.64 C 130.12 86.97 127.05 86.05 123.92 87.52 C 121.99 87.50 120.05 87.44 118.12 87.41 C 116.51 88.43 114.98 89.99 112.93 89.92 C 111.18 89.54 109.60 88.65 107.93 88.04 C 106.99 89.71 106.90 91.72 106.39 93.54 C 112.42 91.59 118.77 91.56 124.97 92.57 C 130.64 93.55 136.35 94.52 141.72 96.65 C 144.87 98.37 147.36 100.99 149.14 104.09 C 149.84 102.67 149.87 101.14 149.36 99.68 C 147.53 93.44 146.02 87.08 143.40 81.10 C 141.82 82.66 140.17 84.16 138.45 85.55 M 22.37 88.73 C 22.51 89.75 22.64 90.78 22.78 91.81 C 24.60 90.38 27.35 87.50 29.13 91.11 C 28.32 91.17 26.68 91.28 25.86 91.34 C 25.74 92.35 25.65 93.38 25.98 94.37 L 25.97 95.08 C 25.04 94.80 24.11 94.53 23.18 94.26 C 22.35 94.88 21.51 95.51 20.68 96.14 C 22.31 96.78 23.93 97.41 25.57 98.03 C 25.90 97.17 26.57 95.45 26.91 94.58 C 27.37 97.05 28.16 99.46 29.97 101.28 C 30.45 102.27 30.91 103.27 31.37 104.27 C 31.07 103.12 30.78 101.97 30.50 100.82 C 31.55 101.10 32.61 101.38 33.66 101.65 C 39.72 99.81 46.26 100.54 52.22 102.45 C 57.82 99.36 63.28 96.00 68.99 93.07 C 67.89 92.11 66.82 91.14 65.74 90.16 C 61.36 90.01 57.04 89.36 52.97 87.54 C 46.96 89.77 41.35 92.94 37.13 97.85 C 36.68 97.83 35.79 97.81 35.35 97.79 C 35.28 95.79 35.23 93.80 35.19 91.80 C 31.31 92.39 29.10 89.17 27.08 86.44 C 25.51 87.20 23.94 87.97 22.37 88.73 M 37.48 90.95 C 36.89 92.61 37.41 93.14 39.03 92.52 C 39.62 90.85 39.10 90.33 37.48 90.95 M 79.18 94.39 C 77.89 96.03 80.94 96.97 81.79 95.65 C 83.05 94.01 80.02 93.04 79.18 94.39 M 105.57 97.59 C 105.94 99.12 106.30 100.66 106.69 102.19 C 107.77 102.40 108.84 102.64 109.91 102.91 C 111.44 104.46 111.57 106.79 112.19 108.77 C 116.23 109.25 122.14 106.92 124.39 111.54 C 132.01 111.66 138.99 108.23 145.72 105.06 C 145.46 103.99 145.21 102.92 144.97 101.84 C 144.38 101.69 143.21 101.38 142.63 101.22 C 135.65 97.02 127.23 95.47 119.15 95.93 C 114.60 96.28 109.88 95.78 105.57 97.59 M 68.82 101.78 C 71.70 101.72 74.62 100.10 75.12 97.05 C 72.71 98.16 70.43 99.63 68.82 101.78 M 81.56 96.84 C 82.00 97.94 82.45 99.04 82.91 100.14 C 84.08 100.19 86.43 100.31 87.60 100.36 C 85.93 98.64 84.03 97.11 81.56 96.84 M 18.00 97.91 C 16.84 102.70 16.14 107.59 16.23 112.53 C 16.31 117.75 17.13 122.96 18.84 127.91 C 20.98 124.34 22.76 120.53 25.51 117.35 C 28.32 114.37 31.40 111.63 34.91 109.48 C 36.38 109.07 37.85 108.65 39.32 108.23 C 38.66 106.61 38.00 104.99 37.34 103.37 C 35.89 103.55 34.45 103.73 33.00 103.90 L 33.26 104.67 C 31.83 105.33 30.39 105.97 28.96 106.62 C 28.83 105.81 28.57 104.20 28.43 103.39 C 27.83 103.85 26.63 104.76 26.03 105.21 C 24.51 104.09 22.98 103.00 21.43 101.91 C 21.86 101.41 22.70 100.41 23.12 99.91 C 21.41 99.24 19.71 98.57 18.00 97.91 M 25.46 100.58 C 24.99 102.18 25.58 102.73 27.22 102.24 C 27.68 100.64 27.09 100.08 25.46 100.58 M 160.03 101.86 C 153.26 104.08 147.36 108.22 140.86 111.06 C 137.91 112.17 134.96 113.32 131.90 114.10 C 129.39 114.40 126.86 114.55 124.33 114.64 C 124.06 116.45 123.80 118.26 123.53 120.08 C 124.59 122.12 126.34 124.21 125.49 126.67 C 122.13 123.05 119.18 118.84 114.83 116.33 C 110.62 114.79 106.02 115.66 101.64 115.63 C 101.03 118.22 100.24 120.85 100.37 123.55 C 104.47 129.16 109.63 134.35 116.26 136.84 C 118.60 137.62 121.13 139.13 123.63 138.57 C 125.65 135.97 126.91 132.88 128.43 129.98 C 129.01 129.01 129.60 128.05 130.19 127.09 C 134.15 127.86 137.20 130.48 140.09 133.11 C 141.16 135.16 142.48 137.07 143.57 139.12 C 144.99 144.22 145.11 149.54 144.47 154.77 C 148.08 153.84 149.42 150.52 151.03 147.58 C 153.86 146.76 154.02 150.66 154.89 152.43 C 155.92 152.57 156.94 152.71 157.97 152.85 C 158.39 150.87 158.85 148.91 159.39 146.97 C 157.02 142.70 154.16 138.71 150.53 135.43 C 147.02 132.50 143.20 129.96 139.35 127.51 L 139.33 127.37 C 136.15 125.74 134.23 122.80 134.44 119.16 C 131.48 120.68 128.43 122.07 125.15 122.74 C 125.51 120.13 127.93 119.14 129.91 117.97 C 132.02 117.17 134.11 116.30 136.20 115.42 C 136.60 115.81 137.41 116.60 137.81 116.99 C 137.76 118.38 137.72 119.78 137.68 121.19 C 144.33 119.70 150.82 117.25 156.50 113.43 C 160.99 110.63 164.91 106.72 170.09 105.19 C 173.35 104.11 176.81 104.49 180.18 104.58 C 174.30 100.75 166.69 99.14 160.03 101.86 M 84.25 101.77 C 84.03 103.34 83.81 104.92 83.58 106.50 C 84.63 106.87 85.68 107.25 86.73 107.64 C 86.60 105.47 86.00 103.09 88.11 101.60 C 87.15 101.64 85.22 101.73 84.25 101.77 M 40.05 103.33 C 40.68 105.26 41.35 107.17 41.99 109.09 C 43.51 108.17 45.02 107.22 46.52 106.27 C 46.57 105.75 46.69 104.69 46.74 104.17 C 44.53 103.76 42.29 103.51 40.05 103.33 M 99.97 109.20 C 97.27 109.51 94.59 109.97 91.91 110.44 C 92.05 110.98 92.34 112.06 92.48 112.61 C 93.85 112.29 95.22 111.99 96.55 111.54 C 100.93 112.51 105.08 110.69 108.93 108.83 C 108.69 107.49 108.45 106.16 108.22 104.83 C 105.46 106.25 102.57 107.47 99.97 109.20 M 79.89 108.80 C 79.50 109.96 79.31 111.18 79.11 112.40 C 79.77 112.47 81.08 112.62 81.74 112.70 C 82.12 111.47 82.50 110.24 82.87 109.01 C 82.13 108.95 80.64 108.85 79.89 108.80 M 84.62 110.42 C 84.46 111.19 84.15 112.73 83.99 113.49 L 84.37 113.28 C 85.27 114.05 86.17 114.82 87.08 115.58 C 89.82 115.07 90.12 112.71 89.37 110.44 C 87.82 110.07 85.76 108.57 84.62 110.42 M 104.63 113.69 C 110.41 113.46 116.30 114.17 121.31 117.26 C 121.25 115.41 121.18 113.56 121.12 111.71 C 115.65 111.67 109.39 110.24 104.63 113.69 M 45.40 114.55 C 46.52 116.05 47.64 117.56 48.79 119.04 C 48.54 117.03 48.19 115.04 47.73 113.07 C 46.96 113.56 46.18 114.05 45.40 114.55 M 74.02 116.25 C 72.39 117.33 70.81 118.47 69.31 119.73 C 72.68 119.31 76.37 120.02 79.49 118.45 C 80.04 117.28 80.60 116.13 81.16 114.97 C 78.65 114.37 76.27 115.22 74.02 116.25 M 97.42 115.21 C 96.48 116.18 96.68 118.34 98.11 118.74 C 100.13 118.51 99.49 114.06 97.42 115.21 M 82.48 118.18 C 80.04 121.84 76.65 124.89 74.88 128.97 C 75.44 128.58 76.55 127.78 77.10 127.38 C 79.53 131.49 80.53 136.20 81.77 140.76 C 84.29 138.18 86.77 135.56 89.20 132.90 C 90.10 131.98 90.94 131.02 91.84 130.11 C 93.40 130.99 94.97 131.86 96.54 132.72 C 96.27 126.87 95.42 121.05 94.40 115.28 C 91.25 116.42 87.99 117.37 84.60 117.30 L 84.85 115.81 C 83.96 116.44 82.55 116.87 82.48 118.18 M 69.26 122.44 L 69.04 122.96 C 65.76 126.39 62.86 130.28 61.11 134.73 C 61.58 134.61 62.50 134.38 62.96 134.26 C 65.36 134.02 67.74 133.63 70.10 133.14 C 70.96 133.03 72.66 132.81 73.52 132.71 C 73.08 133.29 72.20 134.46 71.76 135.04 C 71.75 137.29 71.02 139.39 70.24 141.46 C 68.23 143.02 66.28 144.64 64.25 146.18 C 64.39 147.91 64.53 149.64 64.64 151.38 C 66.39 149.33 67.77 146.60 70.64 146.00 L 71.52 148.04 C 73.34 144.41 74.90 140.46 78.30 137.97 C 77.50 135.49 76.73 133.01 76.02 130.51 C 75.21 130.75 73.58 131.22 72.76 131.46 C 72.32 131.18 71.45 130.62 71.01 130.34 C 72.02 126.84 74.79 124.31 76.88 121.46 C 74.33 121.70 71.79 122.05 69.26 122.44 M 99.81 127.93 C 99.66 130.47 99.48 133.02 99.22 135.55 C 96.60 135.94 94.26 134.82 92.07 133.55 C 88.50 137.37 85.35 142.24 80.17 143.95 C 79.57 142.73 78.97 141.52 78.36 140.31 C 77.42 142.05 76.47 143.78 75.52 145.52 C 97.58 144.71 119.66 144.29 141.72 145.20 C 141.09 138.84 136.67 133.94 131.67 130.40 C 130.11 133.85 128.65 137.40 126.32 140.42 C 125.58 141.44 124.43 142.62 123.02 142.12 C 113.80 140.71 105.32 135.45 99.81 127.93 M 50.05 151.59 C 50.46 151.41 51.28 151.06 51.69 150.89 C 53.31 149.92 54.75 148.68 55.73 147.06 C 53.48 148.07 51.55 149.64 50.05 151.59 M 59.94 148.74 C 58.60 150.32 57.28 151.94 56.04 153.60 C 57.83 153.20 59.60 152.73 61.37 152.27 C 61.79 151.03 62.21 149.79 62.61 148.55 C 61.72 148.61 60.83 148.67 59.94 148.74 M 67.01 153.59 C 67.64 153.63 68.91 153.72 69.54 153.77 C 69.66 152.07 69.77 150.37 69.80 148.67 C 68.47 150.06 67.28 151.63 67.01 153.59 M 141.16 151.96 C 140.17 153.18 139.19 154.39 138.23 155.63 C 139.54 155.58 140.84 155.54 142.15 155.47 C 142.27 153.73 142.43 151.99 142.63 150.27 C 142.13 150.82 141.64 151.39 141.16 151.96 M 150.32 154.70 C 151.15 155.17 152.00 155.61 152.88 156.02 C 152.74 154.01 152.51 152.01 152.15 150.03 C 151.41 151.53 150.48 152.99 150.32 154.70 M 160.84 149.98 C 160.75 151.04 160.67 152.11 160.60 153.18 C 161.65 153.71 162.71 154.23 163.77 154.76 C 162.80 153.16 161.84 151.55 160.84 149.98 Z" />
<path fill="#4f4b49" opacity="1.00" d=" M 131.94 21.02 C 134.93 16.98 137.32 12.45 141.00 8.98 C 138.74 14.12 135.42 18.68 132.24 23.27 C 124.44 34.12 116.09 44.60 108.75 55.75 C 108.31 55.82 107.45 55.96 107.02 56.03 C 115.26 44.32 123.88 32.87 131.94 21.02 Z" />
<path fill="#a6ae91" opacity="1.00" d=" M 119.25 29.15 C 121.76 25.66 123.87 21.91 125.60 17.97 C 124.95 20.43 124.52 22.93 124.30 25.46 C 119.96 31.68 115.55 37.83 111.14 43.99 C 113.55 38.89 115.92 33.72 119.25 29.15 Z" />
<path fill="#a6ae91" opacity="1.00" d=" M 122.70 44.77 C 130.65 37.69 137.62 29.54 145.91 22.85 C 139.00 30.30 131.41 37.11 124.93 44.97 C 120.14 49.69 115.73 54.95 110.22 58.86 C 113.50 53.45 118.57 49.49 122.70 44.77 Z" />
<path fill="#99aa95" opacity="1.00" d=" M 50.06 39.16 C 53.35 37.08 56.80 35.22 60.49 33.93 C 60.18 36.01 59.85 38.09 59.51 40.16 C 56.35 39.93 53.19 39.64 50.06 39.16 Z" />
<path fill="#99a690" opacity="1.00" d=" M 133.18 43.50 C 150.08 37.78 168.65 36.50 185.97 41.10 C 193.74 43.30 201.74 45.73 208.21 50.75 C 204.16 49.39 200.24 47.62 196.08 46.62 C 185.27 43.89 174.01 44.18 162.97 44.77 C 163.92 43.81 166.80 43.34 165.38 41.63 C 161.02 42.53 156.76 43.87 152.55 45.31 C 146.79 47.23 141.89 50.91 136.51 53.61 C 134.62 50.56 135.00 46.63 133.18 43.50 Z" />
<path fill="#84b08d" opacity="1.00" d=" M 39.85 46.53 C 43.08 43.84 46.53 41.44 50.06 39.16 C 53.19 39.64 56.35 39.93 59.51 40.16 C 59.57 43.51 59.39 46.99 60.68 50.16 C 61.67 52.39 63.42 54.16 64.95 56.02 C 62.49 57.14 59.89 58.37 59.15 61.23 C 56.18 62.39 54.58 65.26 52.12 67.09 C 49.99 67.88 47.66 67.91 45.43 68.20 C 47.44 64.47 48.56 60.36 49.90 56.37 C 49.33 56.58 48.19 57.00 47.62 57.21 C 48.01 55.83 48.51 54.49 48.89 53.11 C 40.64 55.30 35.00 61.96 29.07 67.59 C 23.55 70.04 21.06 77.65 14.32 77.26 C 13.34 77.31 12.36 77.34 11.37 77.36 C 12.39 75.55 13.43 73.76 14.50 71.99 C 15.17 72.44 16.53 73.35 17.20 73.81 C 21.32 69.72 24.94 65.17 29.16 61.18 C 33.58 56.94 38.02 52.68 41.79 47.84 C 41.31 47.51 40.33 46.85 39.85 46.53 Z" />
<path fill="#697e80" opacity="1.00" d=" M 130.17 44.98 C 131.15 44.44 132.15 43.95 133.18 43.50 C 135.00 46.63 134.62 50.56 136.51 53.61 C 134.73 54.53 132.95 55.48 131.20 56.45 C 131.32 52.59 130.47 48.81 130.17 44.98 Z" />
<path fill="#f5dea7" opacity="1.00" d=" M 14.50 71.99 C 21.02 61.79 30.14 53.61 39.85 46.53 C 40.33 46.85 41.31 47.51 41.79 47.84 C 38.02 52.68 33.58 56.94 29.16 61.18 C 24.94 65.17 21.32 69.72 17.20 73.81 C 16.53 73.35 15.17 72.44 14.50 71.99 Z" />
<path fill="#7b7772" opacity="1.00" d=" M 141.38 53.38 C 146.00 50.70 150.65 47.43 156.20 47.26 C 145.60 52.54 135.27 58.36 124.82 63.90 C 125.23 62.76 125.93 61.76 127.09 61.29 C 131.87 58.68 136.71 56.18 141.38 53.38 Z" />
<path fill="#533274" opacity="1.00" d=" M 154.58 50.78 C 163.75 46.73 174.18 47.11 183.98 47.70 C 179.11 47.76 174.67 49.99 169.95 50.86 C 166.20 51.55 162.47 52.37 158.84 53.57 C 157.42 52.65 155.99 51.72 154.58 50.78 Z" />
<path fill="#984f8c" opacity="1.00" d=" M 169.95 50.86 C 174.67 49.99 179.11 47.76 183.98 47.70 C 192.64 48.50 201.11 50.89 209.16 54.11 C 202.90 55.48 197.24 58.91 192.87 63.55 C 191.42 63.59 189.91 63.20 188.53 63.75 C 188.78 64.69 189.29 66.59 189.55 67.54 C 185.85 69.04 182.17 70.62 178.64 72.49 C 175.83 66.96 173.83 60.06 167.74 57.23 C 165.88 55.86 163.76 57.01 161.85 57.59 C 161.41 57.51 160.53 57.35 160.09 57.28 C 159.68 56.04 159.26 54.80 158.84 53.57 C 162.47 52.37 166.20 51.55 169.95 50.86 Z" />
<path fill="#9bb286" opacity="1.00" d=" M 72.96 53.45 C 74.56 52.41 76.18 51.39 77.79 50.36 C 77.40 51.48 77.02 52.61 76.63 53.73 C 75.40 53.64 74.18 53.55 72.96 53.45 Z" />
<path fill="#62677c" opacity="1.00" d=" M 88.96 54.07 C 91.24 52.92 93.58 51.90 95.96 50.98 C 93.35 54.98 88.70 57.35 86.82 61.83 C 88.26 62.33 89.71 62.79 91.14 63.28 C 85.74 68.26 81.65 74.42 78.20 80.86 C 76.67 79.53 74.00 79.01 73.95 76.51 C 78.28 77.97 81.88 73.14 80.60 69.23 C 79.67 67.33 77.79 66.16 76.29 64.77 C 78.11 64.71 79.93 64.61 81.74 64.45 C 81.60 63.61 81.32 61.93 81.18 61.09 C 84.68 60.14 87.40 57.55 88.85 54.26 L 88.96 54.07 Z" />
<path fill="#412b63" opacity="1.00" d=" M 151.16 52.81 C 152.30 52.14 153.44 51.47 154.58 50.78 C 155.99 51.72 157.42 52.65 158.84 53.57 C 159.26 54.80 159.68 56.04 160.09 57.28 C 162.37 63.84 163.20 70.77 164.56 77.56 C 164.79 79.54 165.08 81.51 165.38 83.48 L 165.41 83.70 C 162.68 86.84 160.77 90.55 158.71 94.13 C 158.64 88.07 158.36 81.99 157.11 76.04 C 155.45 68.22 154.08 60.29 151.16 52.81 Z" />
<path fill="#9db58e" opacity="1.00" d=" M 77.89 58.42 C 81.60 57.17 85.21 55.68 88.85 54.26 C 87.40 57.55 84.68 60.14 81.18 61.09 C 80.19 61.48 79.22 61.93 78.28 62.43 C 77.16 62.55 76.03 62.67 74.91 62.78 C 74.19 65.33 73.58 67.92 73.25 70.55 C 69.57 70.78 65.83 70.70 62.23 71.60 C 59.26 72.53 56.19 73.13 53.05 72.93 C 52.71 73.37 52.02 74.25 51.67 74.69 C 51.04 75.63 50.13 76.05 48.96 75.96 C 48.39 74.37 48.15 72.67 48.09 70.98 C 50.05 70.45 52.06 70.16 54.02 69.64 C 59.31 67.49 65.36 70.53 70.49 67.57 C 72.83 64.62 73.77 60.88 73.75 57.16 C 68.91 58.30 65.72 62.30 62.00 65.26 C 62.27 63.76 62.55 62.26 62.80 60.76 C 66.04 57.93 70.22 56.68 74.27 55.51 C 75.47 56.49 76.68 57.46 77.89 58.42 M 49.96 72.19 C 50.48 72.81 50.48 72.81 49.96 72.19 Z" />
<path fill="#6f797b" opacity="1.00" d=" M 129.89 64.46 C 136.34 61.33 142.36 57.38 148.88 54.38 C 151.27 65.21 154.30 75.96 155.33 87.03 C 155.47 91.61 156.08 96.42 154.31 100.78 C 153.33 98.19 152.52 95.53 152.18 92.79 C 150.88 81.62 150.04 70.25 146.41 59.53 C 142.65 61.46 138.93 63.49 135.33 65.72 C 133.51 65.35 131.69 64.91 129.89 64.46 Z" />
<path fill="#feffb3" opacity="1.00" d=" M 47.62 57.21 C 48.19 57.00 49.33 56.58 49.90 56.37 C 48.56 60.36 47.44 64.47 45.43 68.20 C 43.63 70.09 44.48 72.65 44.65 74.94 C 43.87 73.91 43.07 72.89 42.26 71.88 C 43.54 66.81 45.68 62.04 47.62 57.21 Z" />
<path fill="#7a4999" opacity="1.00" d=" M 161.85 57.59 C 163.76 57.01 165.88 55.86 167.74 57.23 C 173.83 60.06 175.83 66.96 178.64 72.49 C 176.35 73.99 174.08 75.53 171.85 77.12 C 171.08 74.25 170.59 71.25 169.27 68.56 C 167.85 66.52 165.83 65.00 164.03 63.32 C 164.53 68.05 165.06 72.80 164.56 77.56 C 163.20 70.77 162.37 63.84 160.09 57.28 C 160.53 57.35 161.41 57.51 161.85 57.59 Z" />
<path fill="#706a60" opacity="1.00" d=" M 102.28 57.02 C 103.94 57.62 105.55 58.38 107.11 59.21 C 104.66 59.63 102.23 60.14 99.84 60.81 C 100.66 59.55 101.47 58.28 102.28 57.02 Z" />
<path fill="#4a356b" opacity="1.00" d=" M 35.51 66.20 C 37.85 63.83 40.34 61.60 43.07 59.70 C 39.28 69.26 36.23 79.25 36.47 89.65 C 35.08 89.15 33.69 88.66 32.30 88.16 L 32.33 87.94 C 33.15 80.66 35.39 73.54 35.51 66.20 Z" />
<path fill="#93af99" opacity="1.00" d=" M 135.33 65.72 C 138.93 63.49 142.65 61.46 146.41 59.53 C 150.04 70.25 150.88 81.62 152.18 92.79 C 152.52 95.53 153.33 98.19 154.31 100.78 C 153.71 100.80 152.52 100.84 151.92 100.85 C 151.13 92.37 148.58 84.01 144.33 76.62 C 142.90 74.00 142.17 71.03 140.48 68.55 C 139.36 66.79 137.07 66.54 135.33 65.72 Z" />
<path fill="#852b6e" opacity="1.00" d=" M 62.41 67.36 C 64.87 64.31 68.05 61.97 71.45 60.06 C 71.16 61.77 70.86 63.48 70.55 65.19 L 70.30 64.98 C 69.11 63.45 67.05 64.53 66.35 65.96 C 67.08 66.07 68.53 66.30 69.26 66.42 C 67.02 67.00 64.71 67.23 62.41 67.36 Z" />
<path fill="#feffb3" opacity="1.00" d=" M 114.48 63.95 C 115.36 63.46 116.24 62.96 117.12 62.46 C 119.20 63.72 121.25 65.03 123.14 66.57 C 120.13 66.18 117.27 65.10 114.48 63.95 Z" />
<path fill="#706a60" opacity="1.00" d=" M 89.29 69.35 C 91.79 66.81 94.29 64.21 97.39 62.38 C 97.11 67.16 92.57 70.25 90.21 74.14 C 89.91 72.54 89.60 70.95 89.29 69.35 Z" />
<path fill="#964590" opacity="1.00" d=" M 164.56 77.56 C 165.06 72.80 164.53 68.05 164.03 63.32 C 165.83 65.00 167.85 66.52 169.27 68.56 C 170.59 71.25 171.08 74.25 171.85 77.12 C 169.66 79.21 167.51 81.34 165.38 83.48 C 165.08 81.51 164.79 79.54 164.56 77.56 Z" />
<path fill="#e14290" opacity="1.00" d=" M 66.35 65.96 C 67.05 64.53 69.11 63.45 70.30 64.98 C 70.04 65.34 69.52 66.06 69.26 66.42 C 68.53 66.30 67.08 66.07 66.35 65.96 Z" />
<path fill="#97ac9a" opacity="1.00" d=" M 102.85 64.86 C 104.11 63.33 106.20 63.62 107.93 63.27 C 107.39 64.05 106.31 65.60 105.77 66.38 C 104.89 66.63 104.02 66.88 103.14 67.12 C 104.87 67.37 105.93 68.65 106.86 70.04 C 101.49 72.09 97.02 75.81 91.81 78.16 C 95.21 73.51 98.74 68.90 102.85 64.86 Z" />
<path fill="#a2b192" opacity="1.00" d=" M 112.22 64.53 C 112.79 64.39 113.91 64.10 114.48 63.95 C 117.27 65.10 120.13 66.18 123.14 66.57 C 123.47 66.62 124.12 66.73 124.45 66.78 L 124.40 67.36 C 124.37 67.79 124.31 68.65 124.28 69.08 C 128.47 71.38 133.23 72.56 138.01 72.35 L 138.21 72.35 C 139.25 75.12 139.60 78.06 139.43 81.01 C 138.11 81.54 136.80 82.10 135.50 82.66 C 127.94 76.39 121.37 68.55 112.22 64.53 Z" />
<path fill="#6a747c" opacity="1.00" d=" M 109.20 67.07 C 110.21 66.23 111.21 65.38 112.22 64.53 C 121.37 68.55 127.94 76.39 135.50 82.66 C 133.22 85.40 129.17 84.26 127.28 81.69 C 124.35 77.94 120.02 75.63 117.16 71.83 C 115.80 70.11 114.08 68.75 112.40 67.36 C 111.60 67.29 110.00 67.14 109.20 67.07 Z" />
<path fill="#86449b" opacity="1.00" d=" M 22.22 85.63 C 25.57 78.49 29.98 71.84 35.51 66.20 C 35.39 73.54 33.15 80.66 32.33 87.94 C 30.85 86.46 29.37 84.97 27.91 83.46 C 26.01 84.18 24.12 84.91 22.22 85.63 Z" />
<path fill="#8ba78f" opacity="1.00" d=" M 14.32 77.26 C 21.06 77.65 23.55 70.04 29.07 67.59 C 26.02 71.94 23.10 76.38 20.33 80.91 C 16.40 84.35 12.11 87.45 7.19 89.33 C 7.91 85.13 9.43 81.13 11.37 77.36 C 12.36 77.34 13.34 77.31 14.32 77.26 Z" />
<path fill="#63364c" opacity="1.00" d=" M 76.28 68.52 C 77.87 67.92 79.45 70.55 78.69 71.91 C 77.07 72.56 75.51 69.88 76.28 68.52 Z" />
<path fill="#b5cd9a" opacity="1.00" d=" M 124.28 69.08 C 124.31 68.65 124.37 67.79 124.40 67.36 C 128.92 68.77 135.10 67.99 138.01 72.35 C 133.23 72.56 128.47 71.38 124.28 69.08 Z" />
<path fill="#7b7772" opacity="1.00" d=" M 89.29 69.35 C 89.60 70.95 89.91 72.54 90.21 74.14 L 90.35 74.87 C 87.41 79.03 84.48 83.44 79.97 86.05 C 81.92 79.94 85.06 74.18 89.29 69.35 Z" />
<path fill="#7b7772" opacity="1.00" d=" M 105.93 72.88 C 107.81 71.64 109.91 70.79 112.04 70.09 C 111.79 71.33 111.11 72.36 109.93 72.88 C 103.07 77.07 95.80 80.56 88.97 84.81 C 82.74 88.66 76.93 93.19 70.29 96.34 C 63.11 99.80 56.74 104.61 49.94 108.72 C 46.77 110.69 43.66 112.92 39.99 113.86 C 48.06 108.17 56.33 102.76 65.02 98.06 C 72.73 93.90 79.52 88.25 87.34 84.28 C 93.53 80.47 99.88 76.91 105.93 72.88 Z" />
<path fill="#5a6378" opacity="1.00" d=" M 53.05 72.93 C 56.19 73.13 59.26 72.53 62.23 71.60 C 61.04 73.82 60.09 76.39 57.92 77.87 C 55.72 77.06 53.72 75.80 51.67 74.69 C 52.02 74.25 52.71 73.37 53.05 72.93 Z" />
<path fill="#96b195" opacity="1.00" d=" M 42.26 71.88 C 43.07 72.89 43.87 73.91 44.65 74.94 C 45.20 75.67 45.74 76.41 46.26 77.16 C 43.18 80.41 42.38 84.81 42.54 89.12 C 42.45 90.60 39.69 89.91 39.87 88.47 C 39.36 82.83 40.71 77.26 42.26 71.88 Z" />
<path fill="#13150f" opacity="1.00" d=" M 49.96 72.19 C 50.48 72.81 50.48 72.81 49.96 72.19 Z" />
<path fill="#984f8c" opacity="1.00" d=" M 74.14 72.34 C 75.51 71.20 77.78 73.25 76.57 74.65 C 75.28 75.80 72.70 73.68 74.14 72.34 Z" />
<path fill="#a1b890" opacity="1.00" d=" M 68.74 73.27 C 71.77 73.40 71.90 76.57 72.63 78.83 C 71.53 78.65 70.51 78.27 69.57 77.70 C 68.60 77.13 67.66 76.52 66.73 75.91 C 67.23 75.25 68.24 73.93 68.74 73.27 Z" />
<path fill="#84b08d" opacity="1.00" d=" M 111.19 75.30 C 111.88 74.85 113.27 73.94 113.97 73.49 C 115.98 75.43 117.91 77.45 119.80 79.51 C 116.16 80.40 113.59 77.52 111.19 75.30 Z" />
<path fill="#4f7376" opacity="1.00" d=" M 64.30 74.33 C 64.90 74.73 66.12 75.52 66.73 75.91 C 67.66 76.52 68.60 77.13 69.57 77.70 C 65.82 76.85 67.74 81.17 67.86 83.18 C 63.78 84.62 59.96 82.59 56.90 79.99 C 58.69 79.64 60.50 79.35 62.32 79.11 C 63.02 77.53 63.67 75.94 64.30 74.33 Z" />
<path fill="#5b6576" opacity="1.00" d=" M 95.13 85.52 C 100.65 82.37 105.60 78.34 111.19 75.30 C 113.59 77.52 116.16 80.40 119.80 79.51 L 120.10 79.51 C 121.95 80.94 123.69 82.52 125.32 84.21 C 122.57 84.05 119.81 83.42 117.07 83.78 C 115.59 84.49 114.26 85.46 112.91 86.37 C 110.87 85.08 108.90 83.68 107.01 82.18 C 103.84 83.61 100.14 84.93 98.51 88.29 C 97.35 87.41 96.25 86.45 95.13 85.52 Z" />
<path fill="#6a797e" opacity="1.00" d=" M 42.54 89.12 C 42.38 84.81 43.18 80.41 46.26 77.16 C 47.01 78.03 47.77 78.90 48.52 79.77 C 47.55 82.25 46.99 84.86 46.51 87.48 C 45.19 88.03 43.87 88.59 42.54 89.12 Z" />
<path fill="#6a7b81" opacity="1.00" d=" M 73.95 79.67 C 74.44 80.11 74.92 80.55 75.39 80.99 C 72.49 83.02 72.21 86.85 70.53 89.72 C 68.27 89.78 66.69 87.63 64.83 86.59 C 67.00 85.60 69.12 84.49 71.17 83.28 C 70.88 82.70 70.29 81.53 69.99 80.95 C 71.34 80.62 72.66 80.19 73.95 79.67 Z" />
<path fill="#83ad85" opacity="1.00" d=" M 7.19 89.33 C 12.11 87.45 16.40 84.35 20.33 80.91 C 15.05 92.45 11.40 105.18 12.86 117.98 C 13.39 123.09 15.08 127.97 16.76 132.80 C 13.14 128.11 9.66 123.17 7.88 117.45 C 5.02 108.41 4.85 98.50 7.19 89.33 Z" />
<path fill="#26294b" opacity="1.00" d=" M 49.47 85.28 C 50.16 83.56 50.91 81.87 51.71 80.21 C 55.07 82.59 58.57 84.75 62.07 86.92 C 57.94 85.88 53.78 84.58 49.47 85.28 Z" />
<path fill="#5b5c57" opacity="1.00" d=" M 74.57 89.13 C 74.20 86.22 76.12 84.03 77.84 81.95 C 76.83 84.38 75.79 86.79 74.57 89.13 Z" />
<path fill="#463471" opacity="1.00" d=" M 138.45 85.55 C 140.17 84.16 141.82 82.66 143.40 81.10 C 146.02 87.08 147.53 93.44 149.36 99.68 C 149.87 101.14 149.84 102.67 149.14 104.09 C 147.36 100.99 144.87 98.37 141.72 96.65 C 141.18 92.81 139.98 89.11 138.45 85.55 Z" />
<path fill="#99b18f" opacity="1.00" d=" M 22.37 88.73 C 23.94 87.97 25.51 87.20 27.08 86.44 C 29.10 89.17 31.31 92.39 35.19 91.80 C 35.23 93.80 35.28 95.79 35.35 97.79 C 32.64 96.95 31.47 94.11 29.90 92.01 C 28.63 91.96 27.35 91.91 26.08 91.86 C 26.06 92.49 26.01 93.74 25.98 94.37 C 25.65 93.38 25.74 92.35 25.86 91.34 C 26.68 91.28 28.32 91.17 29.13 91.11 C 27.35 87.50 24.60 90.38 22.78 91.81 C 22.64 90.78 22.51 89.75 22.37 88.73 Z" />
<path fill="#5c7277" opacity="1.00" d=" M 91.53 87.51 C 92.72 86.83 93.92 86.17 95.13 85.52 C 96.25 86.45 97.35 87.41 98.51 88.29 C 100.07 88.74 101.67 88.84 103.32 88.59 C 102.61 90.71 101.80 92.83 101.49 95.05 C 102.49 98.23 103.64 101.39 103.74 104.77 C 102.05 105.43 100.37 106.09 98.69 106.76 L 98.50 106.47 C 96.32 103.92 95.63 100.65 95.37 97.40 C 95.75 96.89 96.52 95.89 96.90 95.38 C 93.88 95.87 91.27 97.48 88.82 99.22 C 87.98 98.27 87.14 97.33 86.31 96.37 C 89.59 95.71 92.80 94.31 94.66 91.39 C 92.36 91.73 90.07 92.13 87.84 92.81 C 89.39 91.28 90.63 89.49 91.53 87.51 Z" />
<path fill="#914198" opacity="1.00" d=" M 132.93 88.64 C 134.89 87.85 136.63 86.62 138.45 85.55 C 139.98 89.11 141.18 92.81 141.72 96.65 C 136.35 94.52 130.64 93.55 124.97 92.57 C 124.62 90.88 124.27 89.20 123.92 87.52 C 127.05 86.05 130.12 86.97 132.93 88.64 Z" />
<path fill="#94ac8b" opacity="1.00" d=" M 37.13 97.85 C 41.35 92.94 46.96 89.77 52.97 87.54 C 57.04 89.36 61.36 90.01 65.74 90.16 C 62.07 92.81 57.42 93.03 53.19 94.23 C 47.85 95.49 42.72 97.99 37.13 97.85 Z" />
<path fill="#493965" opacity="1.00" d=" M 106.39 93.54 C 106.90 91.72 106.99 89.71 107.93 88.04 C 109.60 88.65 111.18 89.54 112.93 89.92 C 114.98 89.99 116.51 88.43 118.12 87.41 C 120.05 87.44 121.99 87.50 123.92 87.52 C 124.27 89.20 124.62 90.88 124.97 92.57 C 118.77 91.56 112.42 91.59 106.39 93.54 Z" />
<path fill="#5b6174" opacity="1.00" d=" M 65.74 90.16 C 66.82 91.14 67.89 92.11 68.99 93.07 C 63.28 96.00 57.82 99.36 52.22 102.45 C 46.26 100.54 39.72 99.81 33.66 101.65 C 32.61 101.38 31.55 101.10 30.50 100.82 C 30.78 101.97 31.07 103.12 31.37 104.27 C 30.91 103.27 30.45 102.27 29.97 101.28 C 28.16 99.46 27.37 97.05 26.91 94.58 C 26.57 95.45 25.90 97.17 25.57 98.03 C 23.93 97.41 22.31 96.78 20.68 96.14 C 21.51 95.51 22.35 94.88 23.18 94.26 C 24.11 94.53 25.04 94.80 25.97 95.08 L 25.98 94.37 C 26.01 93.74 26.06 92.49 26.08 91.86 C 27.35 91.91 28.63 91.96 29.90 92.01 C 31.47 94.11 32.64 96.95 35.35 97.79 C 35.79 97.81 36.68 97.83 37.13 97.85 C 42.72 97.99 47.85 95.49 53.19 94.23 C 57.42 93.03 62.07 92.81 65.74 90.16 Z" />
<path fill="#94ac8b" opacity="1.00" d=" M 37.48 90.95 C 39.10 90.33 39.62 90.85 39.03 92.52 C 37.41 93.14 36.89 92.61 37.48 90.95 Z" />
<path fill="#768b80" opacity="1.00" d=" M 87.84 92.81 C 90.07 92.13 92.36 91.73 94.66 91.39 C 92.80 94.31 89.59 95.71 86.31 96.37 C 85.73 95.99 84.56 95.22 83.98 94.84 C 85.24 94.12 86.48 93.32 87.84 92.81 Z" />
<path fill="#3f484d" opacity="1.00" d=" M 79.18 94.39 C 80.02 93.04 83.05 94.01 81.79 95.65 C 80.94 96.97 77.89 96.03 79.18 94.39 Z" />
<path fill="#5b5c57" opacity="1.00" d=" M 68.82 101.78 C 70.43 99.63 72.71 98.16 75.12 97.05 C 74.62 100.10 71.70 101.72 68.82 101.78 Z" />
<path fill="#5a6c6f" opacity="1.00" d=" M 81.56 96.84 C 84.03 97.11 85.93 98.64 87.60 100.36 C 86.43 100.31 84.08 100.19 82.91 100.14 C 82.45 99.04 82.00 97.94 81.56 96.84 Z" />
<path fill="#83559f" opacity="1.00" d=" M 18.00 97.91 C 19.71 98.57 21.41 99.24 23.12 99.91 C 22.70 100.41 21.86 101.41 21.43 101.91 C 22.98 103.00 24.51 104.09 26.03 105.21 C 26.63 104.76 27.83 103.85 28.43 103.39 C 28.57 104.20 28.83 105.81 28.96 106.62 C 30.39 105.97 31.83 105.33 33.26 104.67 C 33.81 106.27 34.36 107.88 34.91 109.48 C 31.40 111.63 28.32 114.37 25.51 117.35 C 24.03 114.14 22.55 110.93 21.07 107.73 C 19.47 109.34 17.86 110.94 16.23 112.53 C 16.14 107.59 16.84 102.70 18.00 97.91 Z" />
<path fill="#a1b69e" opacity="1.00" d=" M 88.80 101.68 C 90.73 99.88 92.97 98.48 95.37 97.40 C 95.63 100.65 96.32 103.92 98.50 106.47 C 95.93 107.09 93.35 107.68 90.78 108.31 C 90.11 108.00 88.77 107.38 88.10 107.06 C 88.74 104.36 91.25 103.13 93.14 101.41 C 92.06 101.48 89.89 101.61 88.80 101.68 Z" />
<path fill="#99ae90" opacity="1.00" d=" M 25.46 100.58 C 27.09 100.08 27.68 100.64 27.22 102.24 C 25.58 102.73 24.99 102.18 25.46 100.58 Z" />
<path fill="#5a667d" opacity="1.00" d=" M 160.03 101.86 C 166.69 99.14 174.30 100.75 180.18 104.58 C 176.81 104.49 173.35 104.11 170.09 105.19 C 164.91 106.72 160.99 110.63 156.50 113.43 C 150.82 117.25 144.33 119.70 137.68 121.19 C 137.72 119.78 137.76 118.38 137.81 116.99 C 139.17 116.47 140.54 115.97 141.88 115.41 C 149.98 111.94 157.13 106.69 164.24 101.58 C 163.19 101.65 161.08 101.79 160.03 101.86 Z" />
<path fill="#99b09e" opacity="1.00" d=" M 84.25 101.77 C 85.22 101.73 87.15 101.64 88.11 101.60 C 86.00 103.09 86.60 105.47 86.73 107.64 C 85.68 107.25 84.63 106.87 83.58 106.50 C 83.81 104.92 84.03 103.34 84.25 101.77 Z" />
<path fill="#98b49a" opacity="1.00" d=" M 140.86 111.06 C 147.36 108.22 153.26 104.08 160.03 101.86 C 161.08 101.79 163.19 101.65 164.24 101.58 C 157.13 106.69 149.98 111.94 141.88 115.41 C 141.54 113.96 141.20 112.51 140.86 111.06 Z" />
<path fill="#96a794" opacity="1.00" d=" M 40.05 103.33 C 42.29 103.51 44.53 103.76 46.74 104.17 C 46.69 104.69 46.57 105.75 46.52 106.27 C 45.02 107.22 43.51 108.17 41.99 109.09 C 41.35 107.17 40.68 105.26 40.05 103.33 Z" />
<path fill="#5b336a" opacity="1.00" d=" M 33.00 103.90 C 34.45 103.73 35.89 103.55 37.34 103.37 C 38.00 104.99 38.66 106.61 39.32 108.23 C 37.85 108.65 36.38 109.07 34.91 109.48 C 34.36 107.88 33.81 106.27 33.26 104.67 L 33.00 103.90 Z" />
<path fill="#3b3231" opacity="1.00" d=" M 99.97 109.20 C 102.57 107.47 105.46 106.25 108.22 104.83 C 108.45 106.16 108.69 107.49 108.93 108.83 C 105.08 110.69 100.93 112.51 96.55 111.54 C 97.71 110.79 98.84 109.99 99.97 109.20 Z" />
<path fill="#944f8a" opacity="1.00" d=" M 16.23 112.53 C 17.86 110.94 19.47 109.34 21.07 107.73 C 22.55 110.93 24.03 114.14 25.51 117.35 C 22.76 120.53 20.98 124.34 18.84 127.91 C 17.13 122.96 16.31 117.75 16.23 112.53 Z" />
<path fill="#706a60" opacity="1.00" d=" M 79.89 108.80 C 80.64 108.85 82.13 108.95 82.87 109.01 C 82.50 110.24 82.12 111.47 81.74 112.70 C 81.08 112.62 79.77 112.47 79.11 112.40 C 79.31 111.18 79.50 109.96 79.89 108.80 Z" />
<path fill="#a6ae91" opacity="1.00" d=" M 91.91 110.44 C 94.59 109.97 97.27 109.51 99.97 109.20 C 98.84 109.99 97.71 110.79 96.55 111.54 C 95.22 111.99 93.85 112.29 92.48 112.61 C 92.34 112.06 92.05 110.98 91.91 110.44 Z" />
<path fill="#3b3231" opacity="1.00" d=" M 36.08 113.05 C 37.08 111.39 38.82 110.46 40.51 109.65 C 39.50 111.46 37.84 112.66 35.90 113.29 L 36.08 113.05 Z" />
<path fill="#dadad0" opacity="1.00" d=" M 84.62 110.42 C 85.76 108.57 87.82 110.07 89.37 110.44 C 87.70 111.38 86.05 112.35 84.37 113.28 L 83.99 113.49 C 84.15 112.73 84.46 111.19 84.62 110.42 Z" />
<path fill="#feffb3" opacity="1.00" d=" M 84.37 113.28 C 86.05 112.35 87.70 111.38 89.37 110.44 C 90.12 112.71 89.82 115.07 87.08 115.58 C 86.17 114.82 85.27 114.05 84.37 113.28 Z" />
<path fill="#9bb286" opacity="1.00" d=" M 131.90 114.10 C 134.96 113.32 137.91 112.17 140.86 111.06 C 141.20 112.51 141.54 113.96 141.88 115.41 C 140.54 115.97 139.17 116.47 137.81 116.99 C 137.41 116.60 136.60 115.81 136.20 115.42 C 134.11 116.30 132.02 117.17 129.91 117.97 C 128.57 117.08 127.24 116.19 125.90 115.30 C 127.90 114.91 129.91 114.55 131.90 114.10 Z" />
<path fill="#4f4b49" opacity="1.00" d=" M 104.63 113.69 C 109.39 110.24 115.65 111.67 121.12 111.71 C 121.18 113.56 121.25 115.41 121.31 117.26 C 116.30 114.17 110.41 113.46 104.63 113.69 Z" />
<path fill="#99ae90" opacity="1.00" d=" M 45.40 114.55 C 46.18 114.05 46.96 113.56 47.73 113.07 C 48.19 115.04 48.54 117.03 48.79 119.04 C 47.64 117.56 46.52 116.05 45.40 114.55 Z" />
<path fill="#61677c" opacity="1.00" d=" M 124.33 114.64 C 126.86 114.55 129.39 114.40 131.90 114.10 C 129.91 114.55 127.90 114.91 125.90 115.30 C 127.24 116.19 128.57 117.08 129.91 117.97 C 127.93 119.14 125.51 120.13 125.15 122.74 C 128.43 122.07 131.48 120.68 134.44 119.16 C 134.23 122.80 136.15 125.74 139.33 127.37 L 139.35 127.51 C 139.54 129.38 139.76 131.25 140.09 133.11 C 137.20 130.48 134.15 127.86 130.19 127.09 C 129.60 128.05 129.01 129.01 128.43 129.98 C 127.45 128.88 126.47 127.77 125.49 126.67 C 126.34 124.21 124.59 122.12 123.53 120.08 C 123.80 118.26 124.06 116.45 124.33 114.64 Z" />
<path fill="#36312e" opacity="1.00" d=" M 74.02 116.25 C 76.27 115.22 78.65 114.37 81.16 114.97 C 80.60 116.13 80.04 117.28 79.49 118.45 C 77.68 117.69 75.85 116.97 74.02 116.25 Z" />
<path fill="#1e1d19" opacity="1.00" d=" M 97.42 115.21 C 99.49 114.06 100.13 118.51 98.11 118.74 C 96.68 118.34 96.48 116.18 97.42 115.21 Z" />
<path fill="#5b5b56" opacity="1.00" d=" M 82.48 118.18 C 82.55 116.87 83.96 116.44 84.85 115.81 L 84.60 117.30 C 84.47 118.04 84.33 118.78 84.20 119.52 C 85.61 119.75 87.03 119.99 88.45 120.23 C 88.55 121.80 88.65 123.38 88.76 124.96 C 90.58 124.57 92.41 124.18 94.24 123.81 C 92.71 125.72 91.12 127.57 89.46 129.38 C 89.38 130.55 89.29 131.72 89.20 132.90 C 86.77 135.56 84.29 138.18 81.77 140.76 C 80.53 136.20 79.53 131.49 77.10 127.38 C 78.78 126.14 80.52 124.98 82.28 123.84 C 82.31 121.95 82.34 120.06 82.48 118.18 Z" />
<path fill="#2f2927" opacity="1.00" d=" M 84.60 117.30 C 87.99 117.37 91.25 116.42 94.40 115.28 C 95.42 121.05 96.27 126.87 96.54 132.72 C 94.97 131.86 93.40 130.99 91.84 130.11 C 90.94 131.02 90.10 131.98 89.20 132.90 C 89.29 131.72 89.38 130.55 89.46 129.38 C 91.12 127.57 92.71 125.72 94.24 123.81 C 92.41 124.18 90.58 124.57 88.76 124.96 C 88.65 123.38 88.55 121.80 88.45 120.23 C 87.03 119.99 85.61 119.75 84.20 119.52 C 84.33 118.78 84.47 118.04 84.60 117.30 Z" />
<path fill="#95ae89" opacity="1.00" d=" M 100.37 123.55 C 100.24 120.85 101.03 118.22 101.64 115.63 C 106.02 115.66 110.62 114.79 114.83 116.33 C 119.18 118.84 122.13 123.05 125.49 126.67 C 126.47 127.77 127.45 128.88 128.43 129.98 C 126.91 132.88 125.65 135.97 123.63 138.57 C 121.13 139.13 118.60 137.62 116.26 136.84 C 109.63 134.35 104.47 129.16 100.37 123.55 M 105.72 120.95 C 107.04 123.97 109.42 126.37 112.14 128.17 C 112.48 125.35 111.20 122.69 109.32 120.67 C 108.63 119.09 105.92 119.10 105.72 120.95 Z" />
<path fill="#5b5c57" opacity="1.00" d=" M 69.31 119.73 C 70.81 118.47 72.39 117.33 74.02 116.25 C 75.85 116.97 77.68 117.69 79.49 118.45 C 76.37 120.02 72.68 119.31 69.31 119.73 Z" />
<path fill="#a6ae91" opacity="1.00" d=" M 74.88 128.97 C 76.65 124.89 80.04 121.84 82.48 118.18 C 82.34 120.06 82.31 121.95 82.28 123.84 C 80.52 124.98 78.78 126.14 77.10 127.38 C 76.55 127.78 75.44 128.58 74.88 128.97 Z" />
<path fill="#ced39d" opacity="1.00" d=" M 105.72 120.95 C 105.92 119.10 108.63 119.09 109.32 120.67 C 111.20 122.69 112.48 125.35 112.14 128.17 C 109.42 126.37 107.04 123.97 105.72 120.95 Z" />
<path fill="#99ae90" opacity="1.00" d=" M 69.26 122.44 C 71.79 122.05 74.33 121.70 76.88 121.46 C 74.79 124.31 72.02 126.84 71.01 130.34 C 70.70 131.27 70.40 132.20 70.10 133.14 C 67.74 133.63 65.36 134.02 62.96 134.26 C 65.26 130.65 67.49 126.96 69.04 122.96 L 69.26 122.44 Z" />
<path fill="#feffb3" opacity="1.00" d=" M 61.11 134.73 C 62.86 130.28 65.76 126.39 69.04 122.96 C 67.49 126.96 65.26 130.65 62.96 134.26 C 62.50 134.38 61.58 134.61 61.11 134.73 Z" />
<path fill="#85ae85" opacity="1.00" d=" M 140.09 133.11 C 139.76 131.25 139.54 129.38 139.35 127.51 C 143.20 129.96 147.02 132.50 150.53 135.43 C 148.54 137.23 146.25 138.68 143.57 139.12 C 142.48 137.07 141.16 135.16 140.09 133.11 Z" />
<path fill="#5a6671" opacity="1.00" d=" M 71.01 130.34 C 71.45 130.62 72.32 131.18 72.76 131.46 C 73.58 131.22 75.21 130.75 76.02 130.51 C 76.73 133.01 77.50 135.49 78.30 137.97 C 74.90 140.46 73.34 144.41 71.52 148.04 L 70.64 146.00 C 70.40 144.50 70.27 142.98 70.24 141.46 C 71.02 139.39 71.75 137.29 71.76 135.04 C 72.20 134.46 73.08 133.29 73.52 132.71 C 72.66 132.81 70.96 133.03 70.10 133.14 C 70.40 132.20 70.70 131.27 71.01 130.34 Z" />
<path fill="#96ac81" opacity="1.00" d=" M 143.57 139.12 C 146.25 138.68 148.54 137.23 150.53 135.43 C 154.16 138.71 157.02 142.70 159.39 146.97 C 158.85 148.91 158.39 150.87 157.97 152.85 C 156.94 152.71 155.92 152.57 154.89 152.43 C 154.02 150.66 153.86 146.76 151.03 147.58 C 149.42 150.52 148.08 153.84 144.47 154.77 C 145.11 149.54 144.99 144.22 143.57 139.12 Z" />
<path fill="#a6ae91" opacity="1.00" d=" M 64.25 146.18 C 66.28 144.64 68.23 143.02 70.24 141.46 C 70.27 142.98 70.40 144.50 70.64 146.00 C 67.77 146.60 66.39 149.33 64.64 151.38 C 64.53 149.64 64.39 147.91 64.25 146.18 Z" />
<path fill="#feffb3" opacity="1.00" d=" M 50.05 151.59 C 51.55 149.64 53.48 148.07 55.73 147.06 C 54.75 148.68 53.31 149.92 51.69 150.89 C 51.28 151.06 50.46 151.41 50.05 151.59 Z" />
<path fill="#feffb3" opacity="1.00" d=" M 59.94 148.74 C 60.83 148.67 61.72 148.61 62.61 148.55 C 62.21 149.79 61.79 151.03 61.37 152.27 C 59.60 152.73 57.83 153.20 56.04 153.60 C 57.28 151.94 58.60 150.32 59.94 148.74 Z" />
<path fill="#f5dea7" opacity="1.00" d=" M 67.01 153.59 C 67.28 151.63 68.47 150.06 69.80 148.67 C 69.77 150.37 69.66 152.07 69.54 153.77 C 68.91 153.72 67.64 153.63 67.01 153.59 Z" />
<path fill="#f5dea7" opacity="1.00" d=" M 141.16 151.96 C 141.64 151.39 142.13 150.82 142.63 150.27 C 142.43 151.99 142.27 153.73 142.15 155.47 C 140.84 155.54 139.54 155.58 138.23 155.63 C 139.19 154.39 140.17 153.18 141.16 151.96 Z" />
<path fill="#feffb3" opacity="1.00" d=" M 150.32 154.70 C 150.48 152.99 151.41 151.53 152.15 150.03 C 152.51 152.01 152.74 154.01 152.88 156.02 C 152.00 155.61 151.15 155.17 150.32 154.70 Z" />
<path fill="#feffb3" opacity="1.00" d=" M 160.84 149.98 C 161.84 151.55 162.80 153.16 163.77 154.76 C 162.71 154.23 161.65 153.71 160.60 153.18 C 160.67 152.11 160.75 151.04 160.84 149.98 Z" />
</svg>
