<?xml version="1.0" encoding="UTF-8" ?>
<!DOCTYPE svg PUBLIC "-//W3C//DTD SVG 1.1//EN" "http://www.w3.org/Graphics/SVG/1.1/DTD/svg11.dtd">
<svg width="198pt" height="160pt" viewBox="0 0 198 160" version="1.1" xmlns="http://www.w3.org/2000/svg">
<path fill="#000000" opacity="1.00" d=" M 60.06 2.51 C 63.56 1.03 67.49 -0.41 71.31 0.77 C 72.38 2.66 70.19 4.07 69.25 5.43 C 63.84 10.83 63.44 19.08 63.09 26.27 C 66.29 21.93 68.29 15.95 73.86 14.06 C 72.85 20.61 70.10 26.84 70.16 33.59 C 74.26 32.05 78.66 32.09 82.97 32.26 C 89.20 26.01 96.11 19.58 104.89 17.34 C 104.93 20.16 103.15 22.39 101.68 24.62 C 99.05 28.52 96.65 32.56 94.27 36.62 C 96.13 35.96 97.98 35.28 99.86 34.70 C 100.54 35.48 101.24 36.24 101.96 36.99 C 107.16 34.22 110.86 28.81 111.43 22.94 C 111.43 20.51 107.76 17.44 110.67 15.76 C 125.96 5.63 144.81 1.69 162.97 2.80 C 172.50 3.39 181.67 6.98 189.26 12.73 C 191.80 14.90 195.68 15.60 197.17 18.84 C 191.06 18.10 185.07 16.67 179.00 15.71 C 172.09 21.80 166.74 29.89 164.81 38.97 C 163.62 44.54 163.65 50.27 163.83 55.93 C 163.97 61.33 166.05 66.61 165.16 72.04 C 164.33 77.54 163.45 83.47 159.75 87.87 C 157.29 84.84 158.91 80.59 158.48 77.03 C 152.32 69.78 143.88 63.87 134.17 63.04 C 135.95 68.92 136.27 75.08 137.55 81.06 C 138.31 84.99 138.42 89.04 138.09 93.02 C 135.40 94.92 132.23 95.95 129.26 97.29 C 130.43 101.17 131.24 105.56 129.42 109.38 C 127.34 113.74 122.95 116.36 118.51 117.78 C 118.50 122.62 118.76 127.54 117.44 132.26 C 115.33 133.95 113.20 135.63 110.82 136.94 C 110.73 135.94 110.56 133.95 110.48 132.96 C 109.30 133.67 108.17 134.44 106.99 135.15 C 106.40 133.77 105.81 132.39 105.23 131.01 C 104.58 131.66 103.27 132.95 102.62 133.59 C 99.68 129.17 101.33 123.36 104.74 119.70 C 96.66 119.90 88.98 117.08 81.29 115.03 C 80.11 117.94 79.61 121.81 76.30 123.10 C 75.69 120.18 75.16 117.24 74.46 114.33 C 70.40 114.83 65.80 114.90 62.65 117.88 C 61.81 117.67 60.97 117.45 60.13 117.24 C 59.79 117.70 59.10 118.62 58.75 119.08 C 58.02 118.42 57.29 117.75 56.56 117.09 C 47.93 120.96 39.84 126.53 34.63 134.58 C 31.92 137.90 31.03 142.37 27.98 145.41 C 26.16 140.21 27.92 134.69 29.98 129.85 C 32.49 124.16 35.98 118.86 40.44 114.51 C 44.26 110.72 49.24 108.49 54.00 106.16 C 54.86 104.56 55.63 102.89 56.80 101.49 C 58.70 99.83 61.18 101.56 63.26 101.86 C 65.45 99.38 67.28 96.59 68.68 93.59 C 64.73 95.49 60.76 97.32 56.65 98.85 C 56.20 98.25 55.29 97.04 54.84 96.43 C 52.47 96.42 49.68 98.70 47.70 96.62 L 48.86 96.04 C 50.97 95.08 52.95 93.82 54.59 92.17 C 53.03 92.61 51.48 93.10 49.98 93.69 C 49.81 94.04 49.47 94.73 49.30 95.08 L 48.91 95.89 C 47.84 95.67 45.70 95.22 44.63 94.99 C 44.64 94.26 44.64 92.78 44.65 92.04 C 37.87 89.42 31.16 86.60 24.69 83.28 C 23.65 85.56 22.67 87.86 21.66 90.15 C 18.35 88.34 18.78 83.82 17.35 80.74 C 13.49 83.17 7.93 83.87 4.48 80.36 C -0.23 76.06 0.45 68.12 4.94 63.93 C 7.53 61.11 11.81 59.87 15.31 61.76 C 19.20 63.18 20.13 67.56 21.82 70.85 C 23.88 69.96 26.00 69.19 28.25 68.92 C 27.69 71.16 26.54 73.16 25.32 75.10 C 30.05 77.13 34.66 79.43 39.48 81.24 C 37.50 76.72 36.46 71.92 35.66 67.08 C 32.91 59.67 30.45 51.08 22.84 47.19 C 20.48 49.12 20.57 53.60 17.21 54.11 C 17.63 41.68 24.13 30.21 32.17 21.04 C 39.75 12.66 49.76 6.91 60.06 2.51 M 58.67 6.90 C 53.56 9.25 48.64 12.02 43.94 15.11 C 41.80 16.69 39.68 18.30 37.75 20.14 C 32.08 25.09 27.33 31.18 24.01 37.95 C 27.14 34.72 29.82 31.02 33.43 28.28 C 37.98 24.34 43.55 21.94 48.42 18.47 C 49.02 18.96 49.63 19.55 49.54 20.40 C 42.73 29.06 40.03 40.34 39.27 51.15 C 38.45 54.68 38.69 58.33 38.73 61.92 C 40.75 52.17 44.23 42.63 50.38 34.69 C 51.60 34.49 53.32 33.46 53.91 35.18 C 55.52 38.28 56.75 41.60 59.01 44.32 C 59.50 42.37 59.80 40.37 59.36 38.38 C 59.88 35.89 60.60 33.45 61.39 31.03 C 60.55 29.07 59.45 27.11 59.42 24.91 C 59.31 17.67 61.20 10.40 65.07 4.26 C 62.93 5.12 60.81 6.02 58.67 6.90 M 117.45 16.36 C 116.55 16.90 115.66 17.44 114.76 17.98 C 117.02 24.59 114.13 31.90 109.30 36.59 C 110.10 36.84 111.68 37.32 112.47 37.56 C 111.82 38.71 111.36 39.96 110.88 41.19 C 115.75 41.46 117.30 35.80 119.34 32.41 L 119.69 32.69 C 119.55 32.43 119.27 31.91 119.13 31.64 C 119.60 30.94 120.52 29.54 120.98 28.84 C 121.84 29.26 122.71 29.67 123.59 30.08 L 124.17 29.89 C 133.40 34.91 142.48 40.58 149.68 48.33 C 156.28 55.31 160.83 64.45 161.83 74.02 C 162.94 68.96 160.91 64.06 160.33 59.08 C 159.26 54.60 157.31 50.31 154.78 46.47 C 153.62 42.87 151.32 39.84 149.28 36.71 C 146.79 32.97 144.12 29.31 140.76 26.30 C 137.62 23.31 133.80 21.13 130.84 17.95 C 132.94 15.89 135.65 14.72 138.33 13.64 C 147.38 11.66 156.66 10.30 165.96 10.61 C 171.14 10.53 176.23 11.75 181.40 11.79 C 176.31 8.90 170.26 7.37 164.46 7.04 C 148.41 5.61 131.59 8.39 117.45 16.36 M 136.02 17.91 C 136.97 18.79 137.90 19.68 138.87 20.55 C 148.59 27.80 154.46 38.68 160.27 49.03 C 160.05 38.59 163.68 28.54 169.59 20.03 C 171.12 18.47 172.59 16.86 174.04 15.23 C 161.35 13.85 148.40 14.79 136.02 17.91 M 97.91 24.27 C 95.82 25.79 93.75 27.35 91.75 28.98 L 91.60 29.32 C 88.97 30.83 87.10 33.30 84.60 34.97 C 80.91 34.82 77.14 34.52 73.54 35.57 C 71.37 36.00 69.51 37.38 67.31 37.74 C 65.52 34.03 67.23 29.98 67.53 26.14 C 62.53 34.18 61.52 43.74 61.62 53.01 C 62.34 53.99 63.08 54.96 63.82 55.93 C 63.47 57.99 62.39 59.78 61.14 61.41 C 60.55 61.92 59.96 62.43 59.38 62.94 C 61.05 64.51 62.71 66.08 64.36 67.67 C 65.72 66.31 67.46 65.86 69.23 66.80 C 69.72 65.94 70.20 65.09 70.69 64.23 C 71.93 64.60 73.17 64.95 74.40 65.35 C 75.65 66.36 76.88 67.40 78.15 68.40 C 78.43 65.18 78.33 61.94 78.09 58.72 C 78.36 58.55 78.89 58.21 79.16 58.04 C 81.18 57.74 83.18 57.39 85.19 57.03 C 84.56 53.83 86.45 51.67 88.93 50.06 C 88.57 49.51 87.86 48.41 87.50 47.87 C 87.77 46.66 88.05 45.46 88.34 44.25 C 90.17 36.99 93.91 30.53 97.91 24.27 M 23.44 44.78 C 25.02 45.34 26.58 45.99 28.12 46.64 L 28.04 47.53 L 28.91 47.22 C 31.82 50.30 34.19 53.85 35.57 57.88 C 35.53 50.00 37.24 42.30 38.50 34.58 C 40.31 31.68 41.08 28.27 42.68 25.25 C 34.72 29.97 27.79 36.54 23.44 44.78 M 122.76 33.34 C 122.50 34.09 121.97 35.58 121.71 36.33 C 120.14 39.35 118.09 42.08 115.89 44.66 C 118.65 45.72 124.36 44.23 124.73 48.09 C 122.23 50.50 118.93 52.03 116.90 54.94 C 115.99 55.83 114.49 58.55 116.93 58.54 C 120.00 56.69 122.61 54.05 126.00 52.76 C 128.12 52.33 129.24 54.45 130.32 55.83 C 130.93 56.79 131.55 57.73 132.18 58.68 C 134.13 58.64 136.07 58.62 138.02 58.64 C 144.70 61.35 151.43 64.15 156.95 68.94 C 154.68 61.18 150.43 54.01 144.54 48.45 C 138.12 42.33 130.52 37.58 122.76 33.34 M 51.33 37.39 L 51.54 38.26 C 44.54 47.92 40.96 59.98 41.27 71.89 C 42.75 69.91 44.44 68.07 45.89 66.06 C 49.00 64.59 51.43 62.12 52.43 58.79 C 51.16 58.23 49.90 57.67 48.64 57.10 L 49.14 55.91 L 49.19 55.49 C 52.05 52.82 54.51 49.75 57.59 47.32 C 54.25 44.83 53.59 40.61 51.33 37.39 M 95.16 40.17 L 95.24 40.58 C 93.90 41.73 92.19 42.62 91.33 44.23 C 90.30 46.45 92.83 47.67 94.14 48.94 C 93.78 49.59 93.04 50.90 92.68 51.55 L 91.85 51.54 C 89.94 52.22 87.63 53.51 88.81 55.93 C 90.53 58.83 91.87 62.07 94.48 64.31 C 94.39 65.34 94.30 66.38 94.22 67.42 C 96.18 65.15 98.01 62.51 97.45 59.34 C 100.25 57.76 100.81 54.16 103.32 52.40 C 107.17 51.92 110.98 53.45 114.80 52.97 C 116.16 51.47 118.49 49.86 118.40 47.70 C 116.45 47.21 114.45 46.96 112.48 46.61 C 111.36 43.95 108.66 42.47 107.57 39.81 C 104.59 41.11 101.57 42.34 98.39 43.01 C 98.24 42.31 97.94 40.90 97.80 40.20 C 97.14 40.19 95.82 40.18 95.16 40.17 M 53.42 54.78 C 54.51 55.55 55.60 56.33 56.69 57.10 C 55.87 58.37 55.05 59.64 54.25 60.92 C 56.96 60.65 59.19 59.20 60.87 57.11 C 59.16 55.27 58.20 52.97 57.70 50.53 C 56.12 51.78 54.69 53.21 53.42 54.78 M 103.67 54.57 C 103.93 56.61 104.17 58.66 104.35 60.72 C 105.22 61.71 106.08 62.70 106.95 63.69 L 106.75 64.10 C 110.86 64.77 115.14 65.23 118.89 67.16 C 125.85 70.85 129.27 78.81 130.82 86.16 C 128.94 84.43 126.84 83.03 124.18 83.26 C 124.47 84.15 124.76 85.03 125.06 85.92 C 125.85 85.72 127.43 85.33 128.22 85.13 C 129.08 87.48 130.25 90.20 127.83 92.02 C 127.81 91.09 127.76 89.23 127.74 88.30 C 127.10 89.22 125.83 91.05 125.20 91.97 C 126.48 92.89 127.75 93.85 129.01 94.82 C 131.37 93.80 133.68 92.66 135.89 91.35 C 135.20 84.32 133.72 77.41 132.23 70.52 C 131.22 65.50 129.13 60.72 126.33 56.45 C 122.54 57.08 119.63 60.75 115.72 61.64 C 114.69 60.22 113.78 58.71 113.00 57.14 C 111.29 53.46 106.93 54.90 103.67 54.57 M 81.31 64.01 C 83.18 62.68 85.21 61.31 86.14 59.11 C 83.70 59.55 78.92 60.51 81.31 64.01 M 99.03 62.79 C 97.90 66.15 96.66 69.56 94.58 72.46 C 94.05 72.61 92.97 72.89 92.43 73.04 C 92.19 72.32 91.70 70.88 91.46 70.16 C 89.94 70.67 88.43 71.19 86.93 71.74 C 84.12 72.60 83.19 76.18 82.68 78.79 C 83.94 78.68 85.21 78.58 86.47 78.48 L 87.13 77.97 C 90.38 77.82 93.43 76.66 96.39 75.38 C 96.53 73.34 96.40 71.23 97.03 69.26 C 98.78 66.89 101.30 65.05 102.26 62.15 C 101.18 62.36 100.10 62.57 99.03 62.79 M 10.18 64.41 C 8.37 65.57 6.79 67.09 5.62 68.90 C 3.88 72.22 5.00 75.90 7.94 78.06 C 10.38 78.87 12.89 78.54 15.09 77.25 C 15.21 76.58 15.46 75.25 15.58 74.58 C 16.12 73.45 16.65 72.31 17.19 71.19 C 19.08 67.07 13.76 64.04 10.18 64.41 M 84.65 70.62 C 86.81 69.50 89.53 69.06 91.21 67.20 C 91.21 66.27 91.20 64.40 91.20 63.47 C 90.27 64.62 89.46 65.86 88.71 67.13 C 86.29 67.00 85.92 64.24 84.76 62.65 C 83.84 65.25 84.20 67.97 84.65 70.62 M 41.53 82.28 C 44.07 83.50 46.62 84.70 49.20 85.81 C 49.80 80.13 50.97 74.44 53.26 69.19 C 53.79 67.08 56.24 67.01 57.90 66.28 C 56.60 65.65 55.32 65.00 54.04 64.36 C 47.86 68.32 40.73 74.12 41.53 82.28 M 103.27 65.01 L 103.08 65.78 C 102.14 66.94 101.18 68.09 100.20 69.22 C 103.24 68.75 104.24 71.18 104.50 73.70 C 112.34 77.51 118.72 83.83 123.72 90.88 C 123.90 88.02 122.09 85.69 121.54 83.03 C 122.05 80.72 125.08 81.62 126.72 81.14 C 124.83 78.15 123.03 75.04 120.46 72.58 C 117.91 70.23 114.61 68.98 111.57 67.41 C 109.15 67.56 106.78 67.15 104.49 66.42 C 104.40 66.03 104.21 65.25 104.12 64.86 L 103.27 65.01 M 71.04 67.29 C 71.81 68.87 73.15 69.86 74.92 70.06 C 74.73 67.93 72.89 67.32 71.04 67.29 M 66.70 67.87 C 66.51 68.45 66.14 69.61 65.95 70.19 C 64.29 71.80 62.47 69.29 61.17 68.38 C 60.77 68.60 59.98 69.02 59.58 69.23 C 58.78 69.55 57.16 70.19 56.36 70.51 C 54.17 74.55 53.28 79.21 52.66 83.72 C 55.02 85.46 56.81 87.90 56.45 91.00 C 57.82 88.76 59.26 86.56 60.78 84.42 C 60.13 84.08 58.83 83.40 58.18 83.06 C 59.10 81.71 60.09 80.41 61.14 79.16 C 64.60 76.49 68.13 73.89 72.03 71.90 C 70.53 70.22 68.71 68.89 66.70 67.87 M 80.85 68.83 C 80.61 70.48 79.73 71.74 78.20 72.41 C 77.77 71.79 76.90 70.54 76.47 69.92 C 73.85 73.18 77.70 76.46 81.06 76.16 C 81.88 74.66 82.73 73.17 83.62 71.71 C 82.78 70.67 81.86 69.70 80.85 68.83 M 19.07 71.25 C 18.70 73.39 18.27 75.54 17.47 77.57 C 17.67 77.65 18.08 77.81 18.28 77.89 C 18.91 76.17 19.65 74.48 20.45 72.82 C 19.99 72.30 19.53 71.78 19.07 71.25 M 23.07 72.28 C 21.68 75.33 26.42 72.25 23.07 72.28 M 72.41 74.10 C 71.53 75.33 73.26 77.59 74.64 76.74 C 75.60 75.51 73.80 73.17 72.41 74.10 M 88.19 80.41 C 86.41 80.55 84.62 80.75 82.91 81.31 C 84.64 81.38 86.37 81.35 88.10 81.28 C 89.12 80.78 90.13 80.29 91.15 79.79 C 95.29 80.52 97.89 77.25 100.04 74.30 C 97.19 78.09 92.42 78.99 88.19 80.41 M 21.25 75.88 C 21.25 76.59 21.25 78.00 21.25 78.71 C 30.82 82.04 39.36 88.30 49.44 90.07 C 48.88 88.84 47.89 87.93 46.60 87.53 C 37.97 84.05 29.69 79.78 21.25 75.88 M 66.29 77.12 C 65.34 77.35 64.13 79.37 65.65 79.64 C 67.36 79.96 68.74 76.30 66.29 77.12 M 76.50 82.51 C 77.93 82.39 79.89 83.43 80.86 81.92 C 82.59 80.04 80.70 76.41 78.07 77.19 C 75.55 77.68 76.19 80.69 76.50 82.51 M 97.94 79.87 C 99.78 81.22 101.77 82.37 103.90 83.23 C 103.08 80.98 102.13 78.79 101.13 76.62 C 100.06 77.70 99.00 78.78 97.94 79.87 M 68.75 80.74 C 64.86 84.85 60.98 89.26 59.17 94.74 C 62.28 93.46 65.22 91.51 68.66 91.29 C 69.74 86.95 70.95 82.64 72.03 78.30 C 70.77 78.87 69.66 79.70 68.75 80.74 M 106.34 78.12 C 106.85 83.12 106.29 88.21 107.73 93.09 C 109.24 91.85 110.68 90.51 112.07 89.13 C 115.82 91.77 116.23 96.49 116.56 100.68 C 116.85 105.60 117.63 110.46 118.24 115.34 C 123.73 112.81 129.15 107.15 126.59 100.64 C 126.36 99.35 125.46 98.32 124.78 97.25 C 119.51 90.11 113.55 83.37 106.34 78.12 M 97.37 81.25 C 94.91 83.85 92.25 86.27 90.11 89.14 C 92.91 95.45 98.18 100.03 103.10 104.64 C 104.86 104.80 106.09 102.55 107.53 101.68 C 108.42 99.97 109.43 98.31 110.73 96.88 C 111.10 99.42 110.03 101.63 108.29 103.40 C 109.86 107.79 110.12 112.52 109.09 117.07 C 108.15 119.43 106.40 121.41 105.85 123.93 C 106.91 123.19 107.95 122.39 108.98 121.60 C 111.20 121.47 113.41 121.36 115.63 121.38 C 114.57 119.42 114.23 117.21 113.96 115.03 C 113.36 107.72 113.68 100.32 112.03 93.12 C 110.19 94.76 108.81 96.99 106.51 98.04 C 104.45 92.10 103.62 84.38 97.37 81.25 M 19.65 82.97 C 19.50 84.28 19.99 85.19 21.12 85.70 C 24.01 85.38 21.04 80.34 19.65 82.97 M 74.88 83.23 C 73.49 86.74 73.49 90.64 72.13 94.17 C 70.63 98.24 70.13 102.56 69.67 106.84 C 70.70 106.55 71.72 106.26 72.75 105.98 C 73.22 106.51 74.15 107.57 74.62 108.10 C 74.97 110.63 76.66 112.83 77.63 115.18 C 79.63 110.72 80.07 105.80 80.94 101.04 C 81.49 97.27 82.53 93.43 81.69 89.62 C 81.96 88.12 82.21 86.61 82.48 85.11 C 79.73 85.53 77.20 84.62 74.88 83.23 M 84.41 84.26 C 85.42 87.43 85.49 90.75 85.41 94.04 C 87.15 91.02 87.59 87.53 88.72 84.28 C 88.30 84.56 87.46 85.11 87.04 85.38 C 86.16 85.01 85.28 84.63 84.41 84.26 M 52.11 85.90 C 51.76 86.81 51.46 87.74 51.20 88.68 C 52.08 89.16 52.99 89.60 53.91 90.00 C 53.71 88.47 53.18 87.03 52.11 85.90 M 47.26 92.11 C 47.29 95.47 50.28 90.63 47.26 92.11 M 88.50 93.64 C 87.11 96.85 85.60 99.99 84.00 103.10 C 88.32 103.12 92.65 103.15 96.95 103.56 C 93.88 100.47 91.11 97.12 88.50 93.64 M 55.26 111.06 C 57.01 108.22 58.82 105.31 59.73 102.08 C 56.52 103.79 55.31 107.63 55.26 111.06 M 66.28 102.31 C 64.92 102.37 64.76 104.76 66.18 104.86 C 67.55 104.82 67.70 102.39 66.28 102.31 M 58.76 114.91 C 61.21 111.76 61.06 107.51 62.70 103.96 C 58.30 105.63 58.28 111.00 58.76 114.91 M 62.51 115.02 C 65.24 112.74 66.34 109.45 65.74 105.95 C 62.26 107.33 63.03 112.00 62.51 115.02 M 83.08 106.18 C 82.73 108.02 82.40 109.87 82.09 111.72 C 90.07 114.00 98.15 116.34 106.51 116.55 C 106.78 113.44 106.87 110.31 106.80 107.18 C 104.25 107.54 101.66 107.79 99.10 107.33 C 93.81 106.44 88.43 106.39 83.08 106.18 M 69.85 111.51 C 69.24 111.56 68.03 111.64 67.43 111.69 C 67.43 111.91 67.44 112.36 67.44 112.58 C 69.28 112.23 71.12 111.86 72.96 111.50 C 72.61 110.66 72.25 109.82 71.90 108.98 C 71.21 109.82 70.53 110.66 69.85 111.51 M 39.14 120.19 C 35.72 124.68 32.50 129.55 31.07 135.08 C 37.07 125.62 46.07 118.14 56.73 114.53 C 56.66 114.07 56.52 113.14 56.45 112.67 C 55.14 113.11 53.84 113.66 52.44 113.64 C 52.52 112.72 52.68 110.88 52.76 109.96 C 47.75 112.65 42.63 115.57 39.14 120.19 M 107.70 132.16 C 110.39 130.23 109.26 126.55 109.48 123.75 C 106.41 125.58 107.39 129.19 107.70 132.16 M 111.79 123.76 C 112.38 126.73 110.21 131.27 113.31 133.07 L 113.30 132.48 C 115.93 130.35 116.82 125.52 113.93 123.30 C 113.39 123.42 112.32 123.65 111.79 123.76 M 103.24 130.20 C 104.86 128.66 105.15 126.48 105.24 124.35 C 101.66 124.09 103.35 128.02 103.24 130.20 Z" />
<path fill="#8ec8d6" opacity="1.00" d=" M 58.67 6.90 C 60.81 6.02 62.93 5.12 65.07 4.26 C 61.20 10.40 59.31 17.67 59.42 24.91 C 59.45 27.11 60.55 29.07 61.39 31.03 C 60.60 33.45 59.88 35.89 59.36 38.38 C 55.16 35.35 54.47 29.90 53.77 25.16 C 53.66 21.55 53.29 17.90 53.73 14.30 C 56.13 12.37 58.82 10.79 60.95 8.53 C 60.38 8.12 59.24 7.31 58.67 6.90 Z" />
<path fill="#8398cf" opacity="1.00" d=" M 43.94 15.11 C 48.64 12.02 53.56 9.25 58.67 6.90 C 59.24 7.31 60.38 8.12 60.95 8.53 C 58.82 10.79 56.13 12.37 53.73 14.30 C 53.29 17.90 53.66 21.55 53.77 25.16 C 53.39 22.12 53.21 19.06 53.00 16.00 C 52.75 16.12 52.25 16.38 52.00 16.50 C 49.84 15.90 47.81 16.81 45.98 17.86 C 45.30 16.94 44.62 16.03 43.94 15.11 Z" />
<path fill="#91bed6" opacity="1.00" d=" M 117.45 16.36 C 131.59 8.39 148.41 5.61 164.46 7.04 C 154.59 9.11 144.42 9.61 134.74 12.67 C 129.90 14.27 124.15 15.27 121.09 19.79 C 119.89 18.63 118.65 17.51 117.45 16.36 Z" />
<path fill="#4a829a" opacity="1.00" d=" M 164.46 7.04 C 170.26 7.37 176.31 8.90 181.40 11.79 C 176.23 11.75 171.14 10.53 165.96 10.61 C 156.66 10.30 147.38 11.66 138.33 13.64 C 137.13 13.34 135.93 13.02 134.74 12.67 C 144.42 9.61 154.59 9.11 164.46 7.04 Z" />
<path fill="#4c769a" opacity="1.00" d=" M 121.09 19.79 C 124.15 15.27 129.90 14.27 134.74 12.67 C 135.93 13.02 137.13 13.34 138.33 13.64 C 135.65 14.72 132.94 15.89 130.84 17.95 C 129.47 18.11 128.11 18.28 126.75 18.46 C 128.65 23.49 133.78 26.04 137.15 29.98 C 132.88 29.36 128.29 27.88 124.17 29.89 L 123.59 30.08 C 122.71 29.67 121.84 29.26 120.98 28.84 C 120.52 29.54 119.60 30.94 119.13 31.64 C 117.04 27.76 120.09 23.58 121.09 19.79 Z" />
<path fill="#d2c66b" opacity="1.00" d=" M 136.02 17.91 C 148.40 14.79 161.35 13.85 174.04 15.23 C 172.59 16.86 171.12 18.47 169.59 20.03 C 166.84 19.58 164.47 20.55 163.08 22.96 C 163.14 22.50 163.27 21.57 163.33 21.11 C 162.37 21.28 161.41 21.45 160.45 21.62 C 160.09 21.21 159.37 20.38 159.01 19.97 C 156.95 21.70 154.71 23.20 152.24 24.28 C 152.98 22.84 153.74 21.41 154.50 19.99 C 149.30 20.37 144.09 20.62 138.87 20.55 C 137.90 19.68 136.97 18.79 136.02 17.91 Z" />
<path fill="#94b4d8" opacity="1.00" d=" M 37.75 20.14 C 39.68 18.30 41.80 16.69 43.94 15.11 C 44.62 16.03 45.30 16.94 45.98 17.86 C 44.31 18.81 42.66 19.80 41.00 20.77 C 39.92 20.54 38.84 20.33 37.75 20.14 Z" />
<path fill="#79bbd2" opacity="1.00" d=" M 45.98 17.86 C 47.81 16.81 49.84 15.90 52.00 16.50 C 50.79 17.15 49.59 17.77 48.42 18.47 C 43.55 21.94 37.98 24.34 33.43 28.28 C 29.82 31.02 27.14 34.72 24.01 37.95 C 27.33 31.18 32.08 25.09 37.75 20.14 C 38.84 20.33 39.92 20.54 41.00 20.77 C 42.66 19.80 44.31 18.81 45.98 17.86 Z" />
<path fill="#535c94" opacity="1.00" d=" M 52.00 16.50 C 52.25 16.38 52.75 16.12 53.00 16.00 C 53.21 19.06 53.39 22.12 53.77 25.16 C 54.47 29.90 55.16 35.35 59.36 38.38 C 59.80 40.37 59.50 42.37 59.01 44.32 C 56.75 41.60 55.52 38.28 53.91 35.18 C 53.32 33.46 51.60 34.49 50.38 34.69 C 49.98 33.53 49.60 32.37 49.24 31.21 C 49.23 27.60 49.62 24.01 49.54 20.40 C 49.63 19.55 49.02 18.96 48.42 18.47 C 49.59 17.77 50.79 17.15 52.00 16.50 Z" />
<path fill="#9fd8d1" opacity="1.00" d=" M 114.76 17.98 C 115.66 17.44 116.55 16.90 117.45 16.36 C 118.65 17.51 119.89 18.63 121.09 19.79 C 120.09 23.58 117.04 27.76 119.13 31.64 C 119.27 31.91 119.55 32.43 119.69 32.69 L 119.34 32.41 C 118.62 31.85 117.90 31.29 117.17 30.74 C 115.59 33.00 113.93 35.21 112.47 37.56 C 111.68 37.32 110.10 36.84 109.30 36.59 C 114.13 31.90 117.02 24.59 114.76 17.98 Z" />
<path fill="#4e539b" opacity="1.00" d=" M 126.75 18.46 C 128.11 18.28 129.47 18.11 130.84 17.95 C 133.80 21.13 137.62 23.31 140.76 26.30 C 144.12 29.31 146.79 32.97 149.28 36.71 C 151.32 39.84 153.62 42.87 154.78 46.47 C 149.10 40.77 143.43 35.02 137.15 29.98 C 133.78 26.04 128.65 23.49 126.75 18.46 Z" />
<path fill="#817a49" opacity="1.00" d=" M 138.87 20.55 C 144.09 20.62 149.30 20.37 154.50 19.99 C 153.74 21.41 152.98 22.84 152.24 24.28 C 154.71 23.20 156.95 21.70 159.01 19.97 C 159.37 20.38 160.09 21.21 160.45 21.62 C 161.41 21.45 162.37 21.28 163.33 21.11 C 163.27 21.57 163.14 22.50 163.08 22.96 C 164.47 20.55 166.84 19.58 169.59 20.03 C 163.68 28.54 160.05 38.59 160.27 49.03 C 154.46 38.68 148.59 27.80 138.87 20.55 Z" />
<path fill="#77bbc7" opacity="1.00" d=" M 39.27 51.15 C 40.03 40.34 42.73 29.06 49.54 20.40 C 49.62 24.01 49.23 27.60 49.24 31.21 C 44.32 36.89 41.25 43.97 39.27 51.15 Z" />
<path fill="#4f8a99" opacity="1.00" d=" M 97.91 24.27 C 93.91 30.53 90.17 36.99 88.34 44.25 C 87.92 43.67 87.09 42.51 86.67 41.93 C 87.46 39.28 88.20 36.60 89.21 34.02 C 90.12 32.52 90.98 30.97 91.60 29.32 L 91.75 28.98 C 93.75 27.35 95.82 25.79 97.91 24.27 Z" />
<path fill="#ccd56b" opacity="1.00" d=" M 23.44 44.78 C 27.79 36.54 34.72 29.97 42.68 25.25 C 41.08 28.27 40.31 31.68 38.50 34.58 C 37.81 35.39 37.12 36.21 36.42 37.02 C 34.14 37.72 31.59 38.02 29.65 39.53 C 28.50 41.71 28.39 44.23 28.12 46.64 C 26.58 45.99 25.02 45.34 23.44 44.78 Z" />
<path fill="#71c4ab" opacity="1.00" d=" M 61.62 53.01 C 61.52 43.74 62.53 34.18 67.53 26.14 C 67.23 29.98 65.52 34.03 67.31 37.74 C 67.60 38.45 67.89 39.15 68.18 39.85 C 70.78 38.52 73.43 37.30 76.11 36.13 C 75.46 35.99 74.18 35.71 73.54 35.57 C 77.14 34.52 80.91 34.82 84.60 34.97 C 80.28 36.44 78.52 40.71 77.82 44.87 C 77.09 46.82 76.20 48.71 75.26 50.56 C 71.32 53.53 66.26 53.10 61.62 53.01 Z" />
<path fill="#74c6d0" opacity="1.00" d=" M 124.17 29.89 C 128.29 27.88 132.88 29.36 137.15 29.98 C 143.43 35.02 149.10 40.77 154.78 46.47 C 157.31 50.31 159.26 54.60 160.33 59.08 C 160.91 64.06 162.94 68.96 161.83 74.02 C 160.83 64.45 156.28 55.31 149.68 48.33 C 142.48 40.58 133.40 34.91 124.17 29.89 Z" />
<path fill="#7ec8bb" opacity="1.00" d=" M 84.60 34.97 C 87.10 33.30 88.97 30.83 91.60 29.32 C 90.98 30.97 90.12 32.52 89.21 34.02 C 85.31 37.55 83.00 42.95 77.82 44.87 C 78.52 40.71 80.28 36.44 84.60 34.97 Z" />
<path fill="#4c669e" opacity="1.00" d=" M 117.17 30.74 C 117.90 31.29 118.62 31.85 119.34 32.41 C 117.30 35.80 115.75 41.46 110.88 41.19 C 111.36 39.96 111.82 38.71 112.47 37.56 C 113.93 35.21 115.59 33.00 117.17 30.74 Z" />
<path fill="#597697" opacity="1.00" d=" M 39.27 51.15 C 41.25 43.97 44.32 36.89 49.24 31.21 C 49.60 32.37 49.98 33.53 50.38 34.69 C 44.23 42.63 40.75 52.17 38.73 61.92 C 38.69 58.33 38.45 54.68 39.27 51.15 Z" />
<path fill="#6c7baf" opacity="1.00" d=" M 77.82 44.87 C 83.00 42.95 85.31 37.55 89.21 34.02 C 88.20 36.60 87.46 39.28 86.67 41.93 C 87.09 42.51 87.92 43.67 88.34 44.25 C 88.05 45.46 87.77 46.66 87.50 47.87 C 87.86 48.41 88.57 49.51 88.93 50.06 C 86.45 51.67 84.56 53.83 85.19 57.03 C 83.18 57.39 81.18 57.74 79.16 58.04 C 76.17 58.08 73.53 59.37 71.53 61.55 C 69.68 61.77 67.84 62.00 65.99 62.17 C 67.24 60.88 68.40 59.52 69.58 58.16 C 69.22 57.55 68.51 56.31 68.15 55.70 C 69.29 55.70 70.42 55.73 71.55 55.78 C 74.91 56.06 80.23 58.13 81.98 53.97 C 83.72 49.73 84.19 45.09 85.83 40.81 C 83.44 43.41 81.34 46.26 79.12 49.01 C 77.83 49.53 76.53 50.01 75.26 50.56 C 76.20 48.71 77.09 46.82 77.82 44.87 Z" />
<path fill="#dabf6a" opacity="1.00" d=" M 122.76 33.34 C 130.52 37.58 138.12 42.33 144.54 48.45 C 150.43 54.01 154.68 61.18 156.95 68.94 C 151.43 64.15 144.70 61.35 138.02 58.64 C 136.07 58.62 134.13 58.64 132.18 58.68 C 131.55 57.73 130.93 56.79 130.32 55.83 C 131.82 55.23 133.32 54.64 134.82 54.05 C 134.12 53.07 133.42 52.09 132.71 51.11 C 130.84 51.36 128.96 51.62 127.09 51.87 C 128.18 50.97 129.27 50.08 130.36 49.19 C 127.15 45.20 122.18 41.81 121.71 36.33 C 121.97 35.58 122.50 34.09 122.76 33.34 Z" />
<path fill="#828050" opacity="1.00" d=" M 36.42 37.02 C 37.12 36.21 37.81 35.39 38.50 34.58 C 37.24 42.30 35.53 50.00 35.57 57.88 C 34.19 53.85 31.82 50.30 28.91 47.22 C 30.38 46.69 31.85 46.15 33.33 45.61 C 32.90 42.35 34.12 39.32 36.42 37.02 Z" />
<path fill="#ffffd0" opacity="1.00" d=" M 67.31 37.74 C 69.51 37.38 71.37 36.00 73.54 35.57 C 74.18 35.71 75.46 35.99 76.11 36.13 C 73.43 37.30 70.78 38.52 68.18 39.85 C 67.89 39.15 67.60 38.45 67.31 37.74 Z" />
<path fill="#758b56" opacity="1.00" d=" M 115.89 44.66 C 118.09 42.08 120.14 39.35 121.71 36.33 C 122.18 41.81 127.15 45.20 130.36 49.19 C 129.27 50.08 128.18 50.97 127.09 51.87 C 128.96 51.62 130.84 51.36 132.71 51.11 C 133.42 52.09 134.12 53.07 134.82 54.05 C 133.32 54.64 131.82 55.23 130.32 55.83 C 129.24 54.45 128.12 52.33 126.00 52.76 C 122.61 54.05 120.00 56.69 116.93 58.54 C 114.49 58.55 115.99 55.83 116.90 54.94 C 118.93 52.03 122.23 50.50 124.73 48.09 C 124.36 44.23 118.65 45.72 115.89 44.66 Z" />
<path fill="#d7b683" opacity="1.00" d=" M 29.65 39.53 C 31.59 38.02 34.14 37.72 36.42 37.02 C 34.12 39.32 32.90 42.35 33.33 45.61 C 31.85 46.15 30.38 46.69 28.91 47.22 L 28.04 47.53 L 28.12 46.64 C 28.39 44.23 28.50 41.71 29.65 39.53 Z" />
<path fill="#6a8a45" opacity="1.00" d=" M 51.33 37.39 C 53.59 40.61 54.25 44.83 57.59 47.32 C 54.51 49.75 52.05 52.82 49.19 55.49 C 49.33 52.43 50.50 49.61 51.77 46.88 C 53.00 44.11 52.28 41.05 51.54 38.26 L 51.33 37.39 Z" />
<path fill="#c7d25d" opacity="1.00" d=" M 51.54 38.26 C 52.28 41.05 53.00 44.11 51.77 46.88 C 50.50 49.61 49.33 52.43 49.19 55.49 L 49.14 55.91 L 48.64 57.10 C 47.43 59.99 46.79 63.07 45.89 66.06 C 44.44 68.07 42.75 69.91 41.27 71.89 C 40.96 59.98 44.54 47.92 51.54 38.26 Z" />
<path fill="#2b2b2b" opacity="1.00" d=" M 95.16 40.17 C 95.82 40.18 97.14 40.19 97.80 40.20 C 97.94 40.90 98.24 42.31 98.39 43.01 C 101.57 42.34 104.59 41.11 107.57 39.81 C 108.66 42.47 111.36 43.95 112.48 46.61 C 114.45 46.96 116.45 47.21 118.40 47.70 C 118.49 49.86 116.16 51.47 114.80 52.97 C 110.98 53.45 107.17 51.92 103.32 52.40 C 100.81 54.16 100.25 57.76 97.45 59.34 C 98.01 62.51 96.18 65.15 94.22 67.42 C 94.30 66.38 94.39 65.34 94.48 64.31 C 91.87 62.07 90.53 58.83 88.81 55.93 C 87.63 53.51 89.94 52.22 91.85 51.54 L 92.68 51.55 C 95.98 51.75 98.87 49.80 101.81 48.59 C 103.44 48.03 104.13 46.36 105.08 45.07 C 103.15 45.38 101.22 45.72 99.29 46.08 C 99.42 45.52 99.67 44.41 99.80 43.85 C 98.57 44.09 97.34 44.34 96.11 44.58 C 95.82 43.25 95.53 41.91 95.24 40.58 L 95.16 40.17 Z" />
<path fill="#171807" opacity="1.00" d=" M 85.83 40.81 C 84.19 45.09 83.72 49.73 81.98 53.97 C 80.23 58.13 74.91 56.06 71.55 55.78 C 74.76 54.40 77.11 51.78 79.12 49.01 C 81.34 46.26 83.44 43.41 85.83 40.81 M 76.96 54.68 C 77.70 54.65 79.17 54.60 79.91 54.57 C 80.43 53.02 80.76 51.41 81.00 49.79 C 79.64 51.41 78.31 53.05 76.96 54.68 Z" />
<path fill="#3a3a3a" opacity="1.00" d=" M 91.33 44.23 C 92.19 42.62 93.90 41.73 95.24 40.58 C 95.53 41.91 95.82 43.25 96.11 44.58 C 97.34 44.34 98.57 44.09 99.80 43.85 C 99.67 44.41 99.42 45.52 99.29 46.08 C 101.22 45.72 103.15 45.38 105.08 45.07 C 104.13 46.36 103.44 48.03 101.81 48.59 C 98.87 49.80 95.98 51.75 92.68 51.55 C 93.04 50.90 93.78 49.59 94.14 48.94 C 92.83 47.67 90.30 46.45 91.33 44.23 Z" />
<path fill="#516ea3" opacity="1.00" d=" M 75.26 50.56 C 76.53 50.01 77.83 49.53 79.12 49.01 C 77.11 51.78 74.76 54.40 71.55 55.78 C 70.42 55.73 69.29 55.70 68.15 55.70 C 66.70 55.74 65.26 55.83 63.82 55.93 C 63.08 54.96 62.34 53.99 61.62 53.01 C 66.26 53.10 71.32 53.53 75.26 50.56 Z" />
<path fill="#f1ffba" opacity="1.00" d=" M 76.96 54.68 C 78.31 53.05 79.64 51.41 81.00 49.79 C 80.76 51.41 80.43 53.02 79.91 54.57 C 79.17 54.60 77.70 54.65 76.96 54.68 Z" />
<path fill="#363636" opacity="1.00" d=" M 53.42 54.78 C 54.69 53.21 56.12 51.78 57.70 50.53 C 58.20 52.97 59.16 55.27 60.87 57.11 C 59.19 59.20 56.96 60.65 54.25 60.92 C 55.05 59.64 55.87 58.37 56.69 57.10 C 55.60 56.33 54.51 55.55 53.42 54.78 Z" />
<path fill="#5e679e" opacity="1.00" d=" M 103.67 54.57 C 106.93 54.90 111.29 53.46 113.00 57.14 C 110.29 58.62 107.95 60.68 106.95 63.69 C 106.08 62.70 105.22 61.71 104.35 60.72 C 104.17 58.66 103.93 56.61 103.67 54.57 Z" />
<path fill="#89cfc5" opacity="1.00" d=" M 63.82 55.93 C 65.26 55.83 66.70 55.74 68.15 55.70 C 68.51 56.31 69.22 57.55 69.58 58.16 C 68.40 59.52 67.24 60.88 65.99 62.17 C 64.32 62.49 62.72 61.84 61.14 61.41 C 62.39 59.78 63.47 57.99 63.82 55.93 Z" />
<path fill="#7da9d0" opacity="1.00" d=" M 115.72 61.64 C 119.63 60.75 122.54 57.08 126.33 56.45 C 129.13 60.72 131.22 65.50 132.23 70.52 C 133.72 77.41 135.20 84.32 135.89 91.35 C 133.68 92.66 131.37 93.80 129.01 94.82 C 127.75 93.85 126.48 92.89 125.20 91.97 C 125.83 91.05 127.10 89.22 127.74 88.30 C 127.76 89.23 127.81 91.09 127.83 92.02 C 130.25 90.20 129.08 87.48 128.22 85.13 C 127.43 85.33 125.85 85.72 125.06 85.92 C 124.76 85.03 124.47 84.15 124.18 83.26 C 126.84 83.03 128.94 84.43 130.82 86.16 C 129.27 78.81 125.85 70.85 118.89 67.16 C 115.14 65.23 110.86 64.77 106.75 64.10 L 106.95 63.69 C 107.95 60.68 110.29 58.62 113.00 57.14 C 113.78 58.71 114.69 60.22 115.72 61.64 Z" />
<path fill="#688448" opacity="1.00" d=" M 45.89 66.06 C 46.79 63.07 47.43 59.99 48.64 57.10 C 49.90 57.67 51.16 58.23 52.43 58.79 C 51.43 62.12 49.00 64.59 45.89 66.06 Z" />
<path fill="#47539e" opacity="1.00" d=" M 71.53 61.55 C 73.53 59.37 76.17 58.08 79.16 58.04 C 78.89 58.21 78.36 58.55 78.09 58.72 C 75.24 59.83 73.83 62.33 74.40 65.35 C 73.17 64.95 71.93 64.60 70.69 64.23 C 70.20 65.09 69.72 65.94 69.23 66.80 C 67.46 65.86 65.72 66.31 64.36 67.67 C 62.71 66.08 61.05 64.51 59.38 62.94 C 59.96 62.43 60.55 61.92 61.14 61.41 C 62.72 61.84 64.32 62.49 65.99 62.17 C 67.84 62.00 69.68 61.77 71.53 61.55 Z" />
<path fill="#487d9d" opacity="1.00" d=" M 74.40 65.35 C 73.83 62.33 75.24 59.83 78.09 58.72 C 78.33 61.94 78.43 65.18 78.15 68.40 C 76.88 67.40 75.65 66.36 74.40 65.35 Z" />
<path fill="#6c7baf" opacity="1.00" d=" M 81.31 64.01 C 78.92 60.51 83.70 59.55 86.14 59.11 C 85.21 61.31 83.18 62.68 81.31 64.01 Z" />
<path fill="#55748f" opacity="1.00" d=" M 99.03 62.79 C 100.10 62.57 101.18 62.36 102.26 62.15 C 101.30 65.05 98.78 66.89 97.03 69.26 C 96.40 71.23 96.53 73.34 96.39 75.38 C 93.43 76.66 90.38 77.82 87.13 77.97 C 89.47 76.82 89.92 74.40 90.04 72.01 C 89.26 71.94 87.71 71.81 86.93 71.74 C 88.43 71.19 89.94 70.67 91.46 70.16 C 91.70 70.88 92.19 72.32 92.43 73.04 C 92.97 72.89 94.05 72.61 94.58 72.46 C 96.66 69.56 97.90 66.15 99.03 62.79 Z" />
<path fill="#b26084" opacity="1.00" d=" M 10.18 64.41 C 13.76 64.04 19.08 67.07 17.19 71.19 C 16.32 70.07 15.45 68.94 14.58 67.81 C 13.73 68.23 12.88 68.64 12.03 69.05 C 11.59 67.43 11.05 65.85 10.18 64.41 Z" />
<path fill="#568d9b" opacity="1.00" d=" M 84.65 70.62 C 84.20 67.97 83.84 65.25 84.76 62.65 C 85.92 64.24 86.29 67.00 88.71 67.13 C 89.46 65.86 90.27 64.62 91.20 63.47 C 91.20 64.40 91.21 66.27 91.21 67.20 C 89.53 69.06 86.81 69.50 84.65 70.62 Z" />
<path fill="#f1ffba" opacity="1.00" d=" M 5.62 68.90 C 6.79 67.09 8.37 65.57 10.18 64.41 C 11.05 65.85 11.59 67.43 12.03 69.05 C 10.31 69.94 8.47 70.57 6.54 70.76 C 6.31 70.30 5.85 69.37 5.62 68.90 Z" />
<path fill="#2b3022" opacity="0.76" d=" M 103.27 65.01 L 104.12 64.86 C 104.21 65.25 104.40 66.03 104.49 66.42 C 104.14 66.26 103.43 65.94 103.08 65.78 L 103.27 65.01 Z" />
<path fill="#7da9d0" opacity="1.00" d=" M 71.04 67.29 C 72.89 67.32 74.73 67.93 74.92 70.06 C 73.15 69.86 71.81 68.87 71.04 67.29 Z" />
<path fill="#8b2989" opacity="1.00" d=" M 12.03 69.05 C 12.88 68.64 13.73 68.23 14.58 67.81 C 15.45 68.94 16.32 70.07 17.19 71.19 C 16.65 72.31 16.12 73.45 15.58 74.58 C 12.50 74.20 9.93 75.86 7.94 78.06 C 5.00 75.90 3.88 72.22 5.62 68.90 C 5.85 69.37 6.31 70.30 6.54 70.76 C 8.47 70.57 10.31 69.94 12.03 69.05 Z" />
<path fill="#487197" opacity="1.00" d=" M 66.70 67.87 C 68.71 68.89 70.53 70.22 72.03 71.90 C 68.13 73.89 64.60 76.49 61.14 79.16 C 61.17 75.57 61.25 71.98 61.17 68.38 C 62.47 69.29 64.29 71.80 65.95 70.19 C 66.14 69.61 66.51 68.45 66.70 67.87 Z" />
<path fill="#7893ca" opacity="1.00" d=" M 59.58 69.23 C 59.98 69.02 60.77 68.60 61.17 68.38 C 61.25 71.98 61.17 75.57 61.14 79.16 C 60.09 80.41 59.10 81.71 58.18 83.06 C 58.83 83.40 60.13 84.08 60.78 84.42 C 59.26 86.56 57.82 88.76 56.45 91.00 C 56.81 87.90 55.02 85.46 52.66 83.72 C 56.62 79.81 56.66 73.79 59.58 69.23 Z" />
<path fill="#90d7dc" opacity="1.00" d=" M 80.85 68.83 C 81.86 69.70 82.78 70.67 83.62 71.71 C 82.73 73.17 81.88 74.66 81.06 76.16 C 77.70 76.46 73.85 73.18 76.47 69.92 C 76.90 70.54 77.77 71.79 78.20 72.41 C 79.73 71.74 80.61 70.48 80.85 68.83 Z" />
<path fill="#a8c2e8" opacity="1.00" d=" M 56.36 70.51 C 57.16 70.19 58.78 69.55 59.58 69.23 C 56.66 73.79 56.62 79.81 52.66 83.72 C 53.28 79.21 54.17 74.55 56.36 70.51 Z" />
<path fill="#fff6c6" opacity="1.00" d=" M 19.07 71.25 C 19.53 71.78 19.99 72.30 20.45 72.82 C 19.65 74.48 18.91 76.17 18.28 77.89 C 18.08 77.81 17.67 77.65 17.47 77.57 C 18.27 75.54 18.70 73.39 19.07 71.25 Z" />
<path fill="#2f2f27" opacity="1.00" d=" M 23.07 72.28 C 26.42 72.25 21.68 75.33 23.07 72.28 Z" />
<path fill="#8ed7ce" opacity="1.00" d=" M 82.68 78.79 C 83.19 76.18 84.12 72.60 86.93 71.74 C 87.71 71.81 89.26 71.94 90.04 72.01 C 89.92 74.40 89.47 76.82 87.13 77.97 L 86.47 78.48 C 85.21 78.58 83.94 78.68 82.68 78.79 Z" />
<path fill="#ffffd0" opacity="1.00" d=" M 7.94 78.06 C 9.93 75.86 12.50 74.20 15.58 74.58 C 15.46 75.25 15.21 76.58 15.09 77.25 C 12.89 78.54 10.38 78.87 7.94 78.06 Z" />
<path fill="#2f2a28" opacity="1.00" d=" M 72.41 74.10 C 73.80 73.17 75.60 75.51 74.64 76.74 C 73.26 77.59 71.53 75.33 72.41 74.10 Z" />
<path fill="#ffffd0" opacity="1.00" d=" M 88.19 80.41 C 92.42 78.99 97.19 78.09 100.04 74.30 C 97.89 77.25 95.29 80.52 91.15 79.79 C 90.13 80.29 89.12 80.78 88.10 81.28 C 86.37 81.35 84.64 81.38 82.91 81.31 C 84.62 80.75 86.41 80.55 88.19 80.41 Z" />
<path fill="#514d4c" opacity="1.00" d=" M 21.25 75.88 C 29.69 79.78 37.97 84.05 46.60 87.53 C 47.89 87.93 48.88 88.84 49.44 90.07 C 39.36 88.30 30.82 82.04 21.25 78.71 C 21.25 78.00 21.25 76.59 21.25 75.88 Z" />
<path fill="#1c2024" opacity="1.00" d=" M 66.29 77.12 C 68.74 76.30 67.36 79.96 65.65 79.64 C 64.13 79.37 65.34 77.35 66.29 77.12 Z" />
<path fill="#fff6c6" opacity="1.00" d=" M 76.50 82.51 C 76.19 80.69 75.55 77.68 78.07 77.19 C 80.70 76.41 82.59 80.04 80.86 81.92 C 79.89 83.43 77.93 82.39 76.50 82.51 Z" />
<path fill="#1d1c1c" opacity="1.00" d=" M 97.94 79.87 C 99.00 78.78 100.06 77.70 101.13 76.62 C 102.13 78.79 103.08 80.98 103.90 83.23 C 101.77 82.37 99.78 81.22 97.94 79.87 Z" />
<path fill="#71c0a7" opacity="1.00" d=" M 68.75 80.74 C 69.66 79.70 70.77 78.87 72.03 78.30 C 70.95 82.64 69.74 86.95 68.66 91.29 C 65.22 91.51 62.28 93.46 59.17 94.74 C 60.98 89.26 64.86 84.85 68.75 80.74 Z" />
<path fill="#547096" opacity="1.00" d=" M 106.34 78.12 C 113.55 83.37 119.51 90.11 124.78 97.25 C 125.46 98.32 126.36 99.35 126.59 100.64 C 126.19 101.10 125.40 102.04 125.00 102.50 C 122.30 101.45 119.44 100.93 116.56 100.68 C 116.23 96.49 115.82 91.77 112.07 89.13 C 110.68 90.51 109.24 91.85 107.73 93.09 C 106.29 88.21 106.85 83.12 106.34 78.12 Z" />
<path fill="#4f8a99" opacity="1.00" d=" M 97.37 81.25 C 103.62 84.38 104.45 92.10 106.51 98.04 C 108.81 96.99 110.19 94.76 112.03 93.12 C 113.68 100.32 113.36 107.72 113.96 115.03 C 112.75 114.34 111.55 113.65 110.35 112.97 C 109.94 114.33 109.55 115.71 109.09 117.07 C 110.12 112.52 109.86 107.79 108.29 103.40 C 110.03 101.63 111.10 99.42 110.73 96.88 C 109.43 98.31 108.42 99.97 107.53 101.68 C 105.81 100.80 103.62 100.13 103.22 97.94 C 101.97 93.68 99.65 89.85 96.30 86.91 C 94.25 87.69 92.19 88.44 90.11 89.14 C 92.25 86.27 94.91 83.85 97.37 81.25 Z" />
<path fill="#fff0af" opacity="1.00" d=" M 19.65 82.97 C 21.04 80.34 24.01 85.38 21.12 85.70 C 19.99 85.19 19.50 84.28 19.65 82.97 Z" />
<path fill="#353535" opacity="1.00" d=" M 74.88 83.23 C 77.20 84.62 79.73 85.53 82.48 85.11 C 82.21 86.61 81.96 88.12 81.69 89.62 C 81.30 91.77 80.90 93.93 80.53 96.08 C 79.69 94.64 78.85 93.20 77.99 91.78 C 75.59 96.89 75.58 102.63 74.62 108.10 C 74.15 107.57 73.22 106.51 72.75 105.98 C 71.72 106.26 70.70 106.55 69.67 106.84 C 70.13 102.56 70.63 98.24 72.13 94.17 C 73.49 90.64 73.49 86.74 74.88 83.23 Z" />
<path fill="#514d4c" opacity="1.00" d=" M 84.41 84.26 C 85.28 84.63 86.16 85.01 87.04 85.38 C 87.46 85.11 88.30 84.56 88.72 84.28 C 87.59 87.53 87.15 91.02 85.41 94.04 C 85.49 90.75 85.42 87.43 84.41 84.26 Z" />
<path fill="#8398cf" opacity="1.00" d=" M 52.11 85.90 C 53.18 87.03 53.71 88.47 53.91 90.00 C 52.99 89.60 52.08 89.16 51.20 88.68 C 51.46 87.74 51.76 86.81 52.11 85.90 Z" />
<path fill="#7cbbd3" opacity="1.00" d=" M 90.11 89.14 C 92.19 88.44 94.25 87.69 96.30 86.91 C 99.65 89.85 101.97 93.68 103.22 97.94 C 103.62 100.13 105.81 100.80 107.53 101.68 C 106.09 102.55 104.86 104.80 103.10 104.64 C 98.18 100.03 92.91 95.45 90.11 89.14 Z" />
<path fill="#242424" opacity="1.00" d=" M 80.53 96.08 C 80.90 93.93 81.30 91.77 81.69 89.62 C 82.53 93.43 81.49 97.27 80.94 101.04 C 80.07 105.80 79.63 110.72 77.63 115.18 C 76.66 112.83 74.97 110.63 74.62 108.10 C 75.58 102.63 75.59 96.89 77.99 91.78 C 78.85 93.20 79.69 94.64 80.53 96.08 Z" />
<path fill="#535c58" opacity="1.00" d=" M 47.26 92.11 C 50.28 90.63 47.29 95.47 47.26 92.11 Z" />
<path fill="#89cfc5" opacity="1.00" d=" M 49.98 93.69 C 51.48 93.10 53.03 92.61 54.59 92.17 C 52.95 93.82 50.97 95.08 48.86 96.04 L 49.30 95.08 C 49.47 94.73 49.81 94.04 49.98 93.69 Z" />
<path fill="#568d9b" opacity="1.00" d=" M 116.56 100.68 C 119.44 100.93 122.30 101.45 125.00 102.50 C 125.40 102.04 126.19 101.10 126.59 100.64 C 129.15 107.15 123.73 112.81 118.24 115.34 C 117.63 110.46 116.85 105.60 116.56 100.68 Z" />
<path fill="#d2c66b" opacity="1.00" d=" M 55.26 111.06 C 55.31 107.63 56.52 103.79 59.73 102.08 C 58.82 105.31 57.01 108.22 55.26 111.06 Z" />
<path fill="#292927" opacity="1.00" d=" M 66.28 102.31 C 67.70 102.39 67.55 104.82 66.18 104.86 C 64.76 104.76 64.92 102.37 66.28 102.31 Z" />
<path fill="#bdbb66" opacity="1.00" d=" M 58.76 114.91 C 58.28 111.00 58.30 105.63 62.70 103.96 C 61.06 107.51 61.21 111.76 58.76 114.91 Z" />
<path fill="#d2c66b" opacity="1.00" d=" M 62.51 115.02 C 63.03 112.00 62.26 107.33 65.74 105.95 C 66.34 109.45 65.24 112.74 62.51 115.02 Z" />
<path fill="#507795" opacity="1.00" d=" M 83.08 106.18 C 88.43 106.39 93.81 106.44 99.10 107.33 C 101.66 107.79 104.25 107.54 106.80 107.18 C 106.87 110.31 106.78 113.44 106.51 116.55 C 98.15 116.34 90.07 114.00 82.09 111.72 C 82.40 109.87 82.73 108.02 83.08 106.18 Z" />
<path fill="#7ebed6" opacity="1.00" d=" M 69.85 111.51 C 70.53 110.66 71.21 109.82 71.90 108.98 C 72.25 109.82 72.61 110.66 72.96 111.50 C 71.12 111.86 69.28 112.23 67.44 112.58 C 67.44 112.36 67.43 111.91 67.43 111.69 C 68.03 111.64 69.24 111.56 69.85 111.51 Z" />
<path fill="#7dbfce" opacity="1.00" d=" M 39.14 120.19 C 42.63 115.57 47.75 112.65 52.76 109.96 C 52.68 110.88 52.52 112.72 52.44 113.64 C 53.84 113.66 55.14 113.11 56.45 112.67 C 56.52 113.14 56.66 114.07 56.73 114.53 C 46.07 118.14 37.07 125.62 31.07 135.08 C 32.50 129.55 35.72 124.68 39.14 120.19 Z" />
<path fill="#7ebed6" opacity="1.00" d=" M 110.35 112.97 C 111.55 113.65 112.75 114.34 113.96 115.03 C 114.23 117.21 114.57 119.42 115.63 121.38 C 113.41 121.36 111.20 121.47 108.98 121.60 C 107.95 122.39 106.91 123.19 105.85 123.93 C 106.40 121.41 108.15 119.43 109.09 117.07 C 109.55 115.71 109.94 114.33 110.35 112.97 Z" />
<path fill="#fff0af" opacity="1.00" d=" M 107.70 132.16 C 107.39 129.19 106.41 125.58 109.48 123.75 C 109.26 126.55 110.39 130.23 107.70 132.16 Z" />
<path fill="#fff0af" opacity="1.00" d=" M 111.79 123.76 C 112.32 123.65 113.39 123.42 113.93 123.30 C 113.36 126.33 113.24 129.41 113.30 132.48 L 113.31 133.07 C 110.21 131.27 112.38 126.73 111.79 123.76 Z" />
<path fill="#caa074" opacity="1.00" d=" M 113.93 123.30 C 116.82 125.52 115.93 130.35 113.30 132.48 C 113.24 129.41 113.36 126.33 113.93 123.30 Z" />
<path fill="#675f40" opacity="1.00" d=" M 103.24 130.20 C 103.35 128.02 101.66 124.09 105.24 124.35 C 105.15 126.48 104.86 128.66 103.24 130.20 Z" />
<path fill="#000000" opacity="1.00" d=" M 20.08 151.20 C 29.52 148.88 39.31 148.69 48.95 147.84 C 72.95 146.78 96.99 146.16 121.00 147.24 C 133.77 147.51 146.54 148.21 159.22 149.81 C 162.90 150.46 166.93 150.59 169.95 153.07 C 165.07 155.66 159.42 155.90 154.04 156.56 C 134.75 158.63 115.33 158.64 95.95 159.07 C 73.28 158.70 50.53 158.79 27.98 156.06 C 24.38 155.48 20.64 155.15 17.32 153.53 C 16.68 151.75 18.96 151.69 20.08 151.20 Z" />
</svg>
