<?xml version="1.0" encoding="UTF-8" ?>
<!DOCTYPE svg PUBLIC "-//W3C//DTD SVG 1.1//EN" "http://www.w3.org/Graphics/SVG/1.1/DTD/svg11.dtd">
<svg width="251pt" height="199pt" viewBox="0 0 251 199" version="1.1" xmlns="http://www.w3.org/2000/svg">
<path fill="#060404" opacity="0.31" d=" M 210.11 0.00 L 222.92 0.00 L 223.06 0.93 C 218.68 0.95 214.30 0.96 209.93 0.93 L 210.11 0.00 Z" />
<path fill="#0e0a09" opacity="0.98" d=" M 160.90 26.90 C 173.32 12.78 191.31 3.58 209.93 0.93 C 214.30 0.96 218.68 0.95 223.06 0.93 C 229.96 1.63 237.03 3.19 242.83 7.17 C 246.31 10.29 248.37 14.54 251.00 18.33 L 251.00 19.17 C 248.66 20.74 246.75 18.20 244.64 17.42 C 240.64 15.75 236.37 14.57 232.10 14.04 C 214.79 20.42 206.13 39.48 204.77 56.77 C 204.21 59.90 203.54 63.19 204.62 66.28 C 205.08 68.46 205.73 70.58 206.31 72.72 C 206.11 76.55 205.93 80.41 206.24 84.24 C 204.80 91.41 203.76 98.88 199.86 105.22 C 194.72 99.99 198.90 89.92 194.14 84.93 C 195.42 101.51 187.01 120.13 170.11 125.17 C 165.90 127.10 161.22 125.38 156.99 124.30 C 155.05 124.86 153.23 125.80 151.27 126.31 C 148.45 126.15 145.63 126.08 142.81 126.09 C 143.31 126.94 144.00 127.51 144.86 127.81 C 148.75 129.03 154.79 127.92 152.23 134.79 C 157.73 137.33 163.12 140.27 167.71 144.31 C 171.41 150.10 176.94 157.93 173.78 165.10 C 170.10 161.46 169.22 154.77 163.25 153.77 C 159.50 152.57 155.52 152.95 151.73 153.62 C 141.65 154.93 131.94 158.04 121.99 159.95 C 112.25 160.26 100.99 159.50 93.39 152.56 C 88.28 147.73 85.78 140.94 84.81 134.12 C 84.84 132.31 84.88 128.70 84.91 126.89 C 84.91 126.15 84.91 124.68 84.91 123.94 C 82.25 125.90 80.11 128.84 76.94 129.99 C 74.83 130.42 74.28 127.93 72.90 126.92 C 68.16 128.81 63.29 130.33 58.28 131.37 C 55.44 131.30 52.59 131.26 49.75 131.25 C 46.50 130.38 42.71 129.19 40.90 126.13 C 48.97 123.29 56.23 118.75 63.73 114.71 C 64.10 112.75 61.34 111.38 62.09 109.22 C 67.76 106.37 73.80 104.45 79.92 102.85 C 79.95 102.38 79.99 101.45 80.02 100.99 C 66.04 102.20 51.14 104.95 39.78 113.78 C 35.91 116.47 35.57 122.48 32.07 125.06 C 30.71 122.58 29.48 120.00 28.65 117.29 C 28.62 112.13 29.81 106.79 28.37 101.73 C 27.24 90.71 22.65 79.10 12.62 73.33 C 8.52 72.53 4.99 75.23 0.98 75.05 C 0.69 72.56 1.40 69.98 3.23 68.21 C 15.04 56.89 30.63 49.98 46.76 47.73 C 51.92 47.86 57.09 48.16 62.25 47.73 C 65.18 48.10 68.08 48.93 70.72 50.29 C 73.07 55.42 73.52 61.21 73.89 66.76 C 70.69 70.30 66.62 64.52 63.06 63.86 C 63.06 67.51 62.43 71.48 64.21 74.82 C 67.57 77.71 71.45 80.09 75.77 81.17 C 78.84 81.93 82.25 82.58 85.29 81.33 C 88.45 80.27 91.54 79.00 94.60 77.66 C 94.17 73.29 98.58 73.84 101.57 72.84 C 101.36 71.26 101.07 69.69 100.98 68.10 C 102.69 68.39 104.37 68.83 106.10 69.01 C 105.76 67.27 104.97 65.65 103.97 64.19 C 102.25 65.30 100.38 66.01 98.31 65.61 C 96.30 72.05 88.45 71.10 83.40 72.59 C 81.26 68.64 77.35 65.07 78.03 60.17 C 81.23 57.77 85.84 59.06 89.33 57.34 C 93.91 56.04 92.08 49.07 96.66 47.64 C 102.49 45.17 107.21 40.97 112.13 37.15 C 116.65 35.64 112.13 43.48 112.96 45.95 C 120.31 42.61 127.53 38.90 135.01 35.89 C 135.69 42.31 128.58 45.57 126.00 50.63 C 128.81 51.48 131.53 52.59 134.19 53.84 C 137.34 55.69 141.36 53.61 144.72 54.33 C 146.41 55.19 147.48 56.81 148.87 58.04 C 151.71 54.61 151.17 49.95 150.94 45.83 C 148.24 46.57 145.97 48.49 143.20 48.95 C 140.41 46.67 143.07 42.54 143.48 39.63 C 144.59 31.31 155.03 30.68 160.90 26.90 M 207.99 4.98 L 208.02 5.93 C 202.28 5.56 195.30 9.01 191.17 10.72 C 188.58 12.07 184.62 12.49 182.99 14.93 C 179.84 16.65 176.14 18.16 173.83 20.88 C 171.19 21.30 169.82 24.00 167.77 25.47 C 165.58 25.63 164.27 30.10 161.66 31.19 C 160.46 31.09 158.20 31.60 158.08 33.00 C 154.48 33.75 150.86 35.68 148.93 38.91 C 146.89 39.75 145.52 41.79 145.98 44.04 C 148.44 43.46 150.80 42.53 153.29 42.08 C 154.95 45.61 155.69 49.31 155.38 53.30 C 154.44 57.16 152.07 60.33 149.63 63.35 C 147.31 64.15 153.11 66.56 154.71 66.83 C 156.91 61.24 161.40 56.03 160.86 49.79 C 162.88 47.51 162.02 41.79 167.67 45.36 C 173.49 48.14 179.66 51.00 183.66 56.28 C 184.96 57.20 185.23 59.92 187.13 59.98 C 188.92 63.90 190.62 67.86 192.16 71.90 C 195.78 78.15 199.41 84.79 200.19 92.10 C 201.97 90.73 202.08 88.10 202.03 86.01 L 202.99 85.98 C 202.99 83.24 202.99 77.75 202.99 75.01 L 202.01 74.98 C 200.87 63.69 195.75 51.58 186.32 45.38 C 184.70 42.66 182.29 40.88 179.11 40.05 C 177.67 38.58 175.91 37.01 173.73 36.97 C 173.45 36.49 172.88 35.52 172.60 35.04 C 187.74 14.48 216.67 5.41 241.11 11.99 C 239.19 8.32 234.71 7.72 231.09 6.78 C 223.64 4.19 215.72 5.05 207.99 4.98 M 215.05 14.96 C 201.13 16.39 187.32 23.39 178.02 33.87 C 180.38 34.80 182.38 37.29 184.90 37.57 C 187.11 39.05 188.62 42.53 191.39 42.74 C 191.95 44.62 193.41 45.92 194.75 47.25 C 197.49 49.01 198.16 54.23 201.85 54.02 C 202.34 44.10 206.44 35.02 211.21 26.54 C 214.31 23.28 217.64 18.73 221.31 15.69 C 222.27 15.84 225.65 13.88 223.06 14.00 C 220.97 14.74 214.32 11.57 215.05 14.96 M 110.65 48.89 C 110.79 47.27 108.31 45.25 106.67 46.55 C 102.63 48.43 95.70 49.22 95.90 54.94 C 94.00 55.40 95.61 58.62 97.04 57.58 C 98.60 58.22 102.00 58.91 102.80 57.23 C 103.13 56.89 103.80 56.21 104.13 55.87 C 104.40 56.19 104.95 56.83 105.22 57.15 C 103.29 60.99 97.58 58.97 94.32 59.38 C 90.76 59.14 87.30 60.53 83.86 61.16 C 82.07 59.65 79.64 62.21 81.21 63.93 C 81.14 67.80 84.60 67.18 87.11 65.79 C 88.82 66.92 90.64 68.43 92.85 67.97 C 93.92 65.72 95.21 63.64 96.71 61.75 C 99.54 62.13 102.43 62.10 105.26 61.71 C 108.15 62.53 107.98 57.84 108.09 55.91 C 108.34 55.45 108.83 54.52 109.07 54.06 C 108.59 51.58 114.07 54.42 112.79 51.72 C 115.12 51.46 115.00 53.39 115.09 55.11 C 113.70 55.77 112.27 55.80 110.86 55.20 C 110.99 57.46 114.08 57.43 114.42 59.65 C 116.20 62.71 113.02 65.61 110.86 67.43 C 107.70 65.50 107.70 68.72 107.99 71.07 C 106.96 71.41 103.41 69.98 104.21 71.94 C 105.84 75.15 101.45 76.45 98.97 76.16 C 99.22 78.64 102.32 79.31 103.87 80.98 C 105.60 78.21 107.31 75.21 108.01 72.04 C 109.03 71.70 110.13 69.58 111.23 70.74 C 112.69 72.63 115.19 71.94 117.21 71.74 C 119.90 72.09 122.48 72.93 125.00 73.90 L 125.10 74.77 C 120.06 75.75 114.98 74.52 109.97 73.98 C 110.02 74.41 110.12 75.27 110.17 75.70 C 108.49 76.24 108.36 78.51 107.80 79.95 C 105.93 81.81 102.39 85.02 105.41 87.46 C 103.36 88.80 100.78 89.22 99.16 91.19 C 98.90 92.84 98.92 94.52 98.94 96.19 C 96.99 95.93 95.13 94.82 93.14 95.16 C 90.66 92.55 86.05 96.01 85.83 98.93 C 83.42 102.16 81.07 106.27 83.28 110.28 C 81.13 113.26 86.91 114.22 87.77 112.27 C 92.60 109.07 95.48 103.35 100.94 100.92 C 102.16 99.79 104.19 99.49 105.06 97.99 C 105.30 97.49 105.79 96.48 106.03 95.98 L 106.93 95.96 C 103.98 88.58 112.87 90.33 115.28 86.77 C 116.45 86.21 117.53 85.48 118.68 84.87 C 118.70 85.49 118.74 86.73 118.76 87.34 C 117.58 86.92 117.04 88.69 116.20 89.23 C 116.74 91.44 115.18 97.67 118.70 95.64 C 122.40 96.37 125.98 98.09 129.80 97.97 C 130.07 95.96 130.50 93.97 131.00 92.01 C 131.95 91.19 132.47 90.01 133.06 88.93 C 131.71 89.10 130.48 89.67 129.28 90.27 C 126.93 89.21 119.00 92.28 121.89 88.11 C 125.65 88.18 129.09 86.02 132.97 86.86 C 132.96 85.35 132.94 82.33 132.93 80.82 C 133.99 76.82 131.07 74.47 127.51 73.98 C 128.85 72.73 131.83 73.78 132.27 71.81 C 132.74 71.91 133.67 72.12 134.13 72.22 L 134.19 73.28 C 134.95 76.50 135.68 80.00 137.12 82.98 C 140.10 80.94 143.59 77.84 143.98 74.06 C 142.29 70.27 140.23 66.62 137.86 63.21 C 136.50 62.78 136.18 65.70 136.42 66.72 C 135.60 67.71 135.06 68.83 134.77 70.07 C 129.60 68.83 139.19 59.42 132.72 58.03 C 130.10 56.16 127.00 54.77 123.94 53.89 L 123.97 53.09 C 120.52 53.89 120.64 51.30 121.87 48.94 C 124.52 47.84 126.39 45.17 128.09 42.96 C 122.08 44.33 116.82 48.07 110.65 48.89 M 165.13 48.95 C 166.08 53.84 162.69 57.75 162.22 62.27 C 160.24 65.89 155.91 68.65 155.98 73.05 C 160.80 71.76 163.18 65.93 168.03 64.05 C 171.28 60.26 179.71 64.31 179.98 58.14 C 177.71 56.25 175.36 54.49 172.93 52.87 L 172.84 52.17 C 169.80 52.25 167.89 49.55 165.13 48.95 M 45.00 50.99 L 45.01 51.94 C 40.52 52.14 35.68 52.80 31.80 55.15 C 26.48 56.50 21.25 59.19 16.81 62.54 C 13.17 63.93 9.29 67.09 6.94 70.04 C 20.89 65.76 35.27 61.61 50.06 63.04 C 50.31 65.20 48.81 66.90 48.26 68.87 C 46.91 72.28 43.51 75.07 43.29 78.75 C 42.49 79.67 42.07 80.73 42.03 81.94 C 40.31 83.25 39.41 85.78 39.09 87.93 C 36.19 91.00 34.80 96.06 34.33 100.32 C 33.41 101.70 32.87 103.27 32.93 104.94 C 32.93 105.45 32.95 106.48 32.96 106.99 C 32.73 109.53 32.26 114.61 32.03 117.15 C 33.26 116.87 33.46 115.21 33.45 114.17 C 38.36 103.81 43.88 93.18 53.09 86.11 C 55.87 85.07 58.56 83.81 61.26 82.56 C 61.48 84.69 63.75 87.03 66.02 87.03 C 68.40 89.56 72.34 89.75 75.01 91.98 C 75.76 92.38 78.49 94.17 78.01 92.09 C 83.39 91.36 88.07 88.00 93.08 86.08 C 95.87 84.72 104.89 91.03 101.11 82.08 L 100.34 82.19 C 97.95 78.19 92.09 81.63 90.01 83.88 C 87.94 83.97 86.02 84.77 84.06 85.34 C 81.90 84.57 79.21 84.43 77.07 85.30 C 76.29 85.18 74.71 84.92 73.93 84.79 C 72.48 83.14 69.04 83.23 66.82 82.22 C 64.21 79.14 59.98 76.40 58.49 72.03 C 59.65 69.98 59.59 67.13 58.56 65.04 C 58.71 64.56 59.02 63.60 59.18 63.12 C 60.94 60.29 62.34 56.82 66.02 55.99 C 65.83 57.54 64.67 59.09 65.23 60.67 C 66.80 61.53 68.16 62.91 70.03 63.07 C 69.63 59.56 68.31 56.00 67.26 52.73 C 60.41 49.88 52.36 51.31 45.00 50.99 M 138.05 59.67 C 140.81 60.33 141.57 63.46 143.51 65.19 C 143.73 66.59 144.42 69.49 145.83 69.60 C 148.46 72.95 144.70 77.37 147.27 80.72 C 148.26 82.22 150.21 82.20 151.76 82.74 C 152.51 80.23 154.93 77.85 154.70 75.31 C 152.36 73.69 151.93 70.30 149.83 68.87 C 150.46 67.13 147.15 68.40 146.16 67.83 C 144.53 66.08 147.09 60.50 144.06 61.05 C 145.75 56.85 139.30 56.29 138.05 59.67 M 162.17 72.17 C 154.72 82.57 149.41 95.67 151.39 108.67 C 152.73 113.82 155.70 119.20 161.05 120.92 C 163.16 120.38 169.47 123.43 168.98 120.13 C 176.99 118.02 183.56 111.52 186.38 103.80 C 187.33 103.25 187.45 102.40 186.74 101.24 C 187.93 100.10 188.18 98.48 188.13 96.91 C 188.34 94.43 188.76 89.47 188.97 86.99 C 188.36 80.93 187.60 73.50 183.88 68.67 C 183.61 67.71 183.01 67.11 182.06 66.86 C 175.93 61.61 166.96 67.40 162.17 72.17 M 37.27 67.23 C 30.01 66.67 22.91 69.77 15.85 71.09 C 17.02 72.64 18.92 74.03 20.72 74.60 C 20.95 74.84 21.40 75.32 21.62 75.56 C 25.16 79.19 26.67 84.07 29.40 88.25 C 29.20 90.21 30.09 92.14 30.22 94.10 C 32.60 91.87 33.49 88.13 34.16 85.01 C 36.69 82.29 37.67 78.13 39.27 74.75 C 41.91 73.08 43.09 68.77 45.03 66.01 C 42.46 66.32 38.68 64.42 37.27 67.23 M 137.31 86.71 C 134.50 88.17 134.06 92.04 132.56 94.67 C 131.09 96.23 134.54 98.09 135.11 96.09 C 136.71 93.98 137.21 91.38 137.95 88.90 C 139.92 88.12 140.38 84.90 141.05 82.91 C 139.79 83.98 137.41 85.03 137.31 86.71 M 148.38 86.30 C 146.10 89.95 143.04 93.01 140.29 96.31 C 138.74 100.05 144.64 99.54 146.85 101.08 C 146.88 95.86 148.65 90.92 150.03 85.95 C 149.62 86.04 148.79 86.21 148.38 86.30 M 56.25 88.70 C 49.59 93.66 44.98 100.94 40.97 108.09 C 49.82 104.43 58.50 99.92 68.21 98.69 C 70.05 98.95 71.85 97.95 73.62 97.54 C 76.01 97.65 81.23 99.27 81.94 96.95 C 83.55 97.22 83.24 94.84 83.95 93.91 C 82.68 94.25 81.46 94.76 80.22 95.19 C 74.19 95.53 68.71 93.49 63.32 91.13 C 61.16 89.74 58.06 84.29 56.25 88.70 M 112.27 91.32 C 109.81 92.29 107.10 94.15 108.63 97.70 C 108.24 99.88 105.63 100.21 104.94 102.08 C 110.15 101.07 115.62 97.04 113.97 90.89 C 113.54 91.00 112.70 91.21 112.27 91.32 M 113.88 98.07 C 114.62 99.46 116.21 100.67 117.81 100.51 C 120.89 101.24 123.77 102.92 126.98 103.05 C 128.30 98.83 124.31 99.45 120.94 99.95 C 121.59 96.85 115.79 99.03 113.88 98.07 M 136.26 99.09 C 135.09 99.51 134.17 101.80 135.93 102.06 C 138.12 102.44 138.99 98.09 136.26 99.09 M 96.17 109.28 C 96.12 109.69 96.02 110.52 95.97 110.93 C 100.29 111.90 106.40 109.29 109.65 113.27 C 110.06 114.55 110.35 115.88 111.11 117.02 C 114.45 114.42 117.46 111.35 120.89 108.83 C 121.82 109.22 122.77 109.45 123.75 109.52 C 124.32 114.74 125.14 119.92 126.18 125.06 C 128.36 123.27 129.65 120.54 131.35 118.28 C 132.69 117.78 133.33 118.37 133.26 120.05 C 136.75 117.61 135.95 112.30 138.06 108.84 C 141.02 109.25 144.00 109.74 146.99 110.02 C 150.01 104.27 144.25 104.32 141.31 102.63 C 139.76 101.19 137.38 103.18 137.40 104.74 C 134.98 105.94 132.56 107.15 130.25 108.55 C 128.82 108.01 127.67 107.05 126.62 105.97 C 125.90 103.90 121.81 104.89 120.02 105.46 C 117.27 104.50 114.63 103.24 111.94 102.13 C 106.65 104.42 101.73 107.61 96.17 109.28 M 74.24 108.18 C 71.05 108.57 67.85 109.61 65.01 111.12 C 66.41 115.21 70.02 109.46 72.80 109.60 C 73.80 110.44 74.73 111.38 75.85 112.06 C 76.35 113.36 76.39 115.56 77.89 116.03 C 77.97 116.46 78.11 117.33 78.18 117.77 C 77.74 120.91 79.70 126.11 74.91 125.18 C 77.30 130.01 81.13 123.19 79.89 120.26 C 81.73 119.14 81.69 112.87 79.97 111.90 C 80.44 110.19 80.10 109.18 78.96 108.87 C 80.02 105.51 75.80 107.41 74.24 108.18 M 139.10 113.05 C 137.93 117.01 136.94 121.07 134.71 124.61 C 131.87 124.93 133.16 129.10 134.73 129.91 C 135.06 131.30 135.66 132.60 136.21 133.91 C 138.01 133.98 139.29 132.25 140.98 131.76 C 141.84 132.71 143.15 133.34 143.86 131.85 C 142.08 129.84 140.93 127.04 138.62 125.60 C 138.66 123.43 139.95 122.71 142.02 122.92 C 144.76 122.94 150.24 122.97 152.98 122.99 L 153.08 121.99 C 152.25 118.99 149.54 116.74 148.16 113.93 L 148.10 112.99 L 147.96 112.04 C 145.66 112.73 138.67 109.79 139.10 113.05 M 70.67 113.64 C 64.29 118.06 57.38 121.92 50.91 126.01 C 46.90 124.57 49.43 133.64 54.01 127.99 C 61.49 128.45 67.89 124.49 74.87 122.76 C 75.01 121.51 75.08 120.26 75.08 119.01 C 75.04 117.82 74.64 116.76 73.89 115.83 C 73.24 114.75 72.14 112.29 70.67 113.64 M 91.15 113.29 C 90.49 115.40 89.98 117.55 90.45 119.76 C 88.48 124.94 86.67 130.90 89.31 136.22 C 89.07 138.06 89.35 141.00 90.86 142.02 C 91.45 144.89 93.38 147.50 95.38 149.58 C 98.02 151.11 100.28 154.58 103.68 153.84 C 103.76 155.97 106.81 154.69 108.18 155.19 C 108.19 156.12 109.15 156.39 111.06 155.99 L 110.98 157.01 C 113.48 157.00 118.49 157.00 120.99 157.00 L 121.01 156.03 C 131.03 154.69 140.67 151.12 150.69 149.58 C 154.87 150.05 159.06 150.11 163.26 149.77 C 164.53 150.22 165.77 150.76 167.09 151.05 C 163.21 145.57 157.57 141.63 151.79 138.35 C 149.76 138.19 148.79 140.48 147.78 141.89 C 146.52 142.17 145.34 141.55 144.16 141.24 C 144.03 142.92 143.52 145.71 141.18 144.90 C 139.07 142.88 137.48 140.46 135.79 138.11 C 131.23 138.12 126.89 141.61 122.23 140.39 C 121.26 142.86 119.85 145.12 117.75 146.79 C 116.00 147.74 114.99 144.24 113.26 145.23 C 112.25 146.41 110.37 147.34 110.26 149.00 C 109.01 148.22 108.01 147.16 107.16 145.97 C 107.04 144.41 105.09 144.22 103.91 143.96 C 102.33 141.26 103.75 137.88 102.48 135.16 C 104.24 131.99 108.71 133.62 110.73 130.73 C 111.31 129.57 111.83 128.37 112.18 127.12 C 108.74 128.79 105.88 132.05 101.84 132.12 C 101.30 132.04 100.23 131.88 99.69 131.80 C 98.71 128.65 98.99 125.33 99.01 122.08 C 100.54 121.27 99.90 119.10 100.29 117.71 L 101.03 117.77 C 102.22 113.98 98.10 115.06 95.70 114.80 C 96.32 113.41 92.40 114.00 91.15 113.29 M 119.16 113.14 C 117.54 115.80 114.81 117.95 113.02 120.11 C 109.96 122.39 106.34 119.46 106.94 115.99 C 107.37 114.07 104.51 115.08 104.31 116.25 C 103.73 120.22 101.92 123.99 101.98 128.04 C 106.87 127.85 110.63 123.70 114.09 120.58 C 114.59 120.49 115.59 120.32 116.10 120.23 C 115.62 122.85 114.61 125.41 115.10 128.12 C 114.03 129.88 112.75 131.71 112.39 133.74 C 113.44 134.90 113.79 137.40 115.83 136.92 C 118.06 133.74 117.50 129.30 118.66 125.63 C 120.23 124.28 122.97 122.78 121.60 120.32 C 120.13 118.04 123.23 111.62 119.16 113.14 M 122.21 126.99 C 121.39 130.26 120.27 133.51 120.99 136.99 C 124.96 136.99 129.40 137.26 132.80 134.93 C 131.72 132.34 130.62 129.77 129.72 127.12 C 127.36 126.30 128.01 130.26 125.98 129.99 C 123.63 130.69 123.97 127.43 122.21 126.99 M 110.31 136.16 C 109.17 138.68 106.05 141.04 108.16 143.92 C 112.64 145.72 114.35 137.23 110.31 136.16 Z" />
<path fill="#8a3364" opacity="1.00" d=" M 207.99 4.98 C 215.72 5.05 223.64 4.19 231.09 6.78 C 234.71 7.72 239.19 8.32 241.11 11.99 C 216.67 5.41 187.74 14.48 172.60 35.04 C 170.80 34.25 167.07 34.57 168.72 31.72 C 169.87 30.60 171.01 29.47 172.14 28.31 C 173.51 27.00 174.83 25.62 176.15 24.25 C 179.12 22.13 182.04 19.93 185.26 18.19 C 188.01 16.54 190.76 14.88 193.46 13.14 C 199.02 9.91 205.20 8.14 211.25 6.20 C 210.44 6.13 208.82 6.00 208.02 5.93 L 207.99 4.98 Z" />
<path fill="#c2665a" opacity="1.00" d=" M 191.17 10.72 C 195.30 9.01 202.28 5.56 208.02 5.93 C 208.82 6.00 210.44 6.13 211.25 6.20 C 205.20 8.14 199.02 9.91 193.46 13.14 C 193.07 11.96 192.31 11.16 191.17 10.72 Z" />
<path fill="#c7a35b" opacity="1.00" d=" M 182.99 14.93 C 184.62 12.49 188.58 12.07 191.17 10.72 C 192.31 11.16 193.07 11.96 193.46 13.14 C 190.76 14.88 188.01 16.54 185.26 18.19 C 186.41 15.79 185.90 14.34 182.99 14.93 Z" />
<path fill="#4e3e44" opacity="1.00" d=" M 215.05 14.96 C 214.32 11.57 220.97 14.74 223.06 14.00 C 225.65 13.88 222.27 15.84 221.31 15.69 C 219.75 15.51 216.62 15.14 215.05 14.96 Z" />
<path fill="#cfea9b" opacity="1.00" d=" M 173.83 20.88 C 176.14 18.16 179.84 16.65 182.99 14.93 C 185.90 14.34 186.41 15.79 185.26 18.19 C 182.04 19.93 179.12 22.13 176.15 24.25 C 173.25 24.63 172.48 23.32 173.83 20.88 Z" />
<path fill="#6d585e" opacity="1.00" d=" M 178.02 33.87 C 187.32 23.39 201.13 16.39 215.05 14.96 C 216.62 15.14 219.75 15.51 221.31 15.69 C 217.64 18.73 214.31 23.28 211.21 26.54 C 209.48 26.24 207.83 26.95 206.18 27.32 C 203.61 27.68 204.68 25.55 204.88 24.01 C 202.03 23.12 203.31 26.50 203.02 28.12 C 201.99 28.56 200.96 28.98 199.92 29.41 C 199.00 27.66 199.93 25.73 199.93 23.89 C 198.06 24.37 195.95 24.96 195.04 26.85 C 193.84 28.53 192.88 30.36 192.12 32.28 C 190.48 33.68 188.68 34.88 186.92 36.13 C 186.24 36.60 185.56 37.08 184.90 37.57 C 182.38 37.29 180.38 34.80 178.02 33.87 Z" />
<path fill="#cdaa5b" opacity="1.00" d=" M 167.77 25.47 C 169.82 24.00 171.19 21.30 173.83 20.88 C 172.48 23.32 173.25 24.63 176.15 24.25 C 174.83 25.62 173.51 27.00 172.14 28.31 C 170.06 28.36 168.48 27.44 167.77 25.47 Z" />
<path fill="#988278" opacity="1.00" d=" M 195.04 26.85 C 195.95 24.96 198.06 24.37 199.93 23.89 C 199.93 25.73 199.00 27.66 199.92 29.41 C 199.48 29.60 198.59 29.97 198.15 30.16 C 198.08 28.74 198.00 27.33 197.91 25.91 C 197.31 26.61 196.72 27.32 196.14 28.04 C 195.87 27.74 195.32 27.15 195.04 26.85 Z" />
<path fill="#a69886" opacity="1.00" d=" M 203.02 28.12 C 203.31 26.50 202.03 23.12 204.88 24.01 C 204.68 25.55 203.61 27.68 206.18 27.32 C 205.13 27.61 204.08 27.88 203.02 28.12 Z" />
<path fill="#cb6b58" opacity="1.00" d=" M 161.66 31.19 C 164.27 30.10 165.58 25.63 167.77 25.47 C 168.48 27.44 170.06 28.36 172.14 28.31 C 171.01 29.47 169.87 30.60 168.72 31.72 C 166.85 32.13 165.11 32.94 163.56 34.06 C 162.89 33.13 162.25 32.17 161.66 31.19 Z" />
<path fill="#7a6465" opacity="1.00" d=" M 196.14 28.04 C 196.72 27.32 197.31 26.61 197.91 25.91 C 198.00 27.33 198.08 28.74 198.15 30.16 C 197.63 30.42 196.60 30.94 196.08 31.20 C 192.65 31.67 195.17 29.43 196.14 28.04 Z" />
<path fill="#f3f3ab" opacity="1.00" d=" M 206.18 27.32 C 207.83 26.95 209.48 26.24 211.21 26.54 C 206.44 35.02 202.34 44.10 201.85 54.02 C 198.16 54.23 197.49 49.01 194.75 47.25 C 193.41 45.92 191.95 44.62 191.39 42.74 C 190.88 39.97 188.65 38.17 186.92 36.13 C 188.68 34.88 190.48 33.68 192.12 32.28 C 193.45 31.97 194.85 31.85 196.08 31.20 C 196.60 30.94 197.63 30.42 198.15 30.16 C 198.59 29.97 199.48 29.60 199.92 29.41 C 200.96 28.98 201.99 28.56 203.02 28.12 C 204.08 27.88 205.13 27.61 206.18 27.32 Z" />
<path fill="#bda891" opacity="1.00" d=" M 195.04 26.85 C 195.32 27.15 195.87 27.74 196.14 28.04 C 195.17 29.43 192.65 31.67 196.08 31.20 C 194.85 31.85 193.45 31.97 192.12 32.28 C 192.88 30.36 193.84 28.53 195.04 26.85 Z" />
<path fill="#cc5358" opacity="1.00" d=" M 158.08 33.00 C 158.20 31.60 160.46 31.09 161.66 31.19 C 162.25 32.17 162.89 33.13 163.56 34.06 C 163.68 34.70 163.91 35.97 164.03 36.60 C 163.20 37.54 162.41 38.51 161.66 39.50 C 159.31 40.35 158.65 42.31 159.18 44.64 C 153.95 44.10 156.91 50.15 155.38 53.30 C 155.69 49.31 154.95 45.61 153.29 42.08 C 153.59 41.09 153.85 40.09 154.07 39.09 C 154.44 39.52 155.17 40.38 155.54 40.81 C 157.79 38.99 157.28 35.57 158.08 33.00 Z" />
<path fill="#cb5b6b" opacity="1.00" d=" M 163.56 34.06 C 165.11 32.94 166.85 32.13 168.72 31.72 C 167.07 34.57 170.80 34.25 172.60 35.04 C 172.88 35.52 173.45 36.49 173.73 36.97 C 172.23 37.86 170.86 39.06 169.21 39.65 C 167.42 38.73 165.78 37.57 164.03 36.60 C 163.91 35.97 163.68 34.70 163.56 34.06 Z" />
<path fill="#ca6861" opacity="1.00" d=" M 148.93 38.91 C 150.86 35.68 154.48 33.75 158.08 33.00 C 157.28 35.57 157.79 38.99 155.54 40.81 C 155.17 40.38 154.44 39.52 154.07 39.09 C 152.36 38.94 150.64 38.93 148.93 38.91 Z" />
<path fill="#93897b" opacity="1.00" d=" M 184.90 37.57 C 185.56 37.08 186.24 36.60 186.92 36.13 C 188.65 38.17 190.88 39.97 191.39 42.74 C 188.62 42.53 187.11 39.05 184.90 37.57 Z" />
<path fill="#cd6a6e" opacity="1.00" d=" M 161.66 39.50 C 162.41 38.51 163.20 37.54 164.03 36.60 C 165.78 37.57 167.42 38.73 169.21 39.65 C 170.86 39.06 172.23 37.86 173.73 36.97 C 174.15 39.91 176.53 40.37 179.11 40.05 C 182.29 40.88 184.70 42.66 186.32 45.38 C 184.55 46.06 182.71 45.41 180.94 45.13 C 183.44 48.13 187.25 50.79 187.10 55.13 C 179.87 48.27 171.57 41.78 161.66 39.50 Z" />
<path fill="#af5a69" opacity="1.00" d=" M 173.73 36.97 C 175.91 37.01 177.67 38.58 179.11 40.05 C 176.53 40.37 174.15 39.91 173.73 36.97 Z" />
<path fill="#883951" opacity="1.00" d=" M 145.98 44.04 C 145.52 41.79 146.89 39.75 148.93 38.91 C 150.64 38.93 152.36 38.94 154.07 39.09 C 153.85 40.09 153.59 41.09 153.29 42.08 C 150.80 42.53 148.44 43.46 145.98 44.04 Z" />
<path fill="#903e7c" opacity="1.00" d=" M 159.18 44.64 C 158.65 42.31 159.31 40.35 161.66 39.50 C 171.57 41.78 179.87 48.27 187.10 55.13 C 187.43 56.74 187.37 58.37 187.13 59.98 C 185.23 59.92 184.96 57.20 183.66 56.28 C 179.66 51.00 173.49 48.14 167.67 45.36 C 162.02 41.79 162.88 47.51 160.86 49.79 C 160.42 50.14 159.53 50.83 159.09 51.17 C 159.10 48.99 159.32 46.81 159.18 44.64 Z" />
<path fill="#cb8967" opacity="1.00" d=" M 110.65 48.89 C 116.82 48.07 122.08 44.33 128.09 42.96 C 126.39 45.17 124.52 47.84 121.87 48.94 C 118.85 49.89 115.83 50.83 112.79 51.72 C 109.96 52.68 109.52 51.24 110.65 48.89 Z" />
<path fill="#d08b60" opacity="1.00" d=" M 155.38 53.30 C 156.91 50.15 153.95 44.10 159.18 44.64 C 159.32 46.81 159.10 48.99 159.09 51.17 C 157.54 55.36 156.99 60.33 153.29 63.30 C 152.37 64.57 150.78 63.67 149.63 63.35 C 152.07 60.33 154.44 57.16 155.38 53.30 Z" />
<path fill="#c96a62" opacity="1.00" d=" M 180.94 45.13 C 182.71 45.41 184.55 46.06 186.32 45.38 C 195.75 51.58 200.87 63.69 202.01 74.98 C 202.00 78.65 201.98 82.34 202.03 86.01 C 202.08 88.10 201.97 90.73 200.19 92.10 C 199.41 84.79 195.78 78.15 192.16 71.90 C 190.62 67.86 188.92 63.90 187.13 59.98 C 187.37 58.37 187.43 56.74 187.10 55.13 C 187.25 50.79 183.44 48.13 180.94 45.13 Z" />
<path fill="#bf664a" opacity="1.00" d=" M 106.67 46.55 C 108.31 45.25 110.79 47.27 110.65 48.89 C 109.52 51.24 109.96 52.68 112.79 51.72 C 114.07 54.42 108.59 51.58 109.07 54.06 C 108.83 54.52 108.34 55.45 108.09 55.91 C 107.84 54.84 107.57 53.78 107.27 52.73 C 107.54 51.14 107.87 49.56 108.01 47.94 C 103.04 47.93 100.10 52.88 95.90 54.94 C 95.70 49.22 102.63 48.43 106.67 46.55 Z" />
<path fill="#0a0605" opacity="0.41" d=" M 46.76 47.73 C 51.87 46.72 57.14 46.73 62.25 47.73 C 57.09 48.16 51.92 47.86 46.76 47.73 Z" />
<path fill="#311e1b" opacity="1.00" d=" M 95.90 54.94 C 100.10 52.88 103.04 47.93 108.01 47.94 C 107.87 49.56 107.54 51.14 107.27 52.73 C 106.59 54.20 106.02 55.73 105.22 57.15 C 104.95 56.83 104.40 56.19 104.13 55.87 C 104.39 54.54 104.72 53.22 104.93 51.88 C 102.36 52.42 100.87 54.84 98.79 56.24 C 98.20 56.68 97.62 57.13 97.04 57.58 C 95.61 58.62 94.00 55.40 95.90 54.94 Z" />
<path fill="#c3595a" opacity="1.00" d=" M 112.79 51.72 C 115.83 50.83 118.85 49.89 121.87 48.94 C 120.64 51.30 120.52 53.89 123.97 53.09 L 123.94 53.89 C 122.19 54.57 118.98 54.08 118.21 55.85 C 118.09 56.68 117.85 58.35 117.72 59.18 C 116.88 57.80 115.97 56.46 115.09 55.11 C 115.00 53.39 115.12 51.46 112.79 51.72 Z" />
<path fill="#706768" opacity="1.00" d=" M 165.13 48.95 C 167.89 49.55 169.80 52.25 172.84 52.17 L 172.93 52.87 C 167.64 52.95 166.00 59.36 162.22 62.27 C 162.69 57.75 166.08 53.84 165.13 48.95 Z" />
<path fill="#843c6d" opacity="1.00" d=" M 159.09 51.17 C 159.53 50.83 160.42 50.14 160.86 49.79 C 161.40 56.03 156.91 61.24 154.71 66.83 C 153.11 66.56 147.31 64.15 149.63 63.35 C 150.78 63.67 152.37 64.57 153.29 63.30 C 156.99 60.33 157.54 55.36 159.09 51.17 Z" />
<path fill="#c85651" opacity="1.00" d=" M 45.00 50.99 C 52.36 51.31 60.41 49.88 67.26 52.73 C 68.31 56.00 69.63 59.56 70.03 63.07 C 68.16 62.91 66.80 61.53 65.23 60.67 C 64.67 59.09 65.83 57.54 66.02 55.99 C 62.34 56.82 60.94 60.29 59.18 63.12 C 60.00 59.57 53.22 59.66 53.02 61.98 C 52.89 63.40 52.79 64.83 52.70 66.25 C 52.64 62.03 49.29 59.58 45.24 59.72 C 42.41 59.17 39.49 58.63 36.73 59.65 C 29.93 59.47 23.49 62.60 16.81 62.54 C 21.25 59.19 26.48 56.50 31.80 55.15 C 31.56 57.67 34.07 57.02 35.66 56.59 C 40.44 54.86 45.87 54.93 50.25 52.21 C 48.50 52.06 46.76 51.99 45.01 51.94 L 45.00 50.99 Z" />
<path fill="#e0c887" opacity="1.00" d=" M 31.80 55.15 C 35.68 52.80 40.52 52.14 45.01 51.94 C 46.76 51.99 48.50 52.06 50.25 52.21 C 45.87 54.93 40.44 54.86 35.66 56.59 C 34.07 57.02 31.56 57.67 31.80 55.15 Z" />
<path fill="#d8d19c" opacity="1.00" d=" M 98.79 56.24 C 100.87 54.84 102.36 52.42 104.93 51.88 C 104.72 53.22 104.39 54.54 104.13 55.87 C 103.80 56.21 103.13 56.89 102.80 57.23 C 101.45 56.96 100.09 56.70 98.79 56.24 Z" />
<path fill="#d27464" opacity="1.00" d=" M 107.27 52.73 C 107.57 53.78 107.84 54.84 108.09 55.91 C 107.98 57.84 108.15 62.53 105.26 61.71 C 102.52 61.74 99.20 59.95 96.71 61.75 C 95.21 63.64 93.92 65.72 92.85 67.97 C 90.64 68.43 88.82 66.92 87.11 65.79 C 85.84 64.90 84.56 64.03 83.29 63.16 C 83.43 62.66 83.71 61.66 83.86 61.16 C 87.30 60.53 90.76 59.14 94.32 59.38 C 97.58 58.97 103.29 60.99 105.22 57.15 C 106.02 55.73 106.59 54.20 107.27 52.73 Z" />
<path fill="#eaeab4" opacity="1.00" d=" M 162.22 62.27 C 166.00 59.36 167.64 52.95 172.93 52.87 C 175.36 54.49 177.71 56.25 179.98 58.14 C 179.71 64.31 171.28 60.26 168.03 64.05 C 163.18 65.93 160.80 71.76 155.98 73.05 C 155.91 68.65 160.24 65.89 162.22 62.27 Z" />
<path fill="#ce715a" opacity="1.00" d=" M 118.21 55.85 C 118.98 54.08 122.19 54.57 123.94 53.89 C 127.00 54.77 130.10 56.16 132.72 58.03 C 132.35 59.90 132.74 61.79 132.77 63.67 C 131.56 64.25 130.33 64.77 129.13 65.34 C 129.32 67.80 131.27 69.65 132.27 71.81 C 131.83 73.78 128.85 72.73 127.51 73.98 C 126.71 74.26 125.91 74.52 125.10 74.77 L 125.00 73.90 C 125.14 71.34 123.29 69.45 122.01 67.44 C 122.44 67.02 123.30 66.20 123.72 65.79 C 123.01 61.97 120.76 58.69 118.21 55.85 M 124.98 57.95 C 124.53 60.15 125.87 62.42 128.01 62.99 C 132.15 62.24 127.21 57.70 124.98 57.95 Z" />
<path fill="#8a387c" opacity="1.00" d=" M 110.86 55.20 C 112.27 55.80 113.70 55.77 115.09 55.11 C 115.97 56.46 116.88 57.80 117.72 59.18 C 117.92 62.25 119.24 65.08 121.12 67.49 C 119.42 67.65 117.76 67.15 116.09 67.00 C 117.17 68.54 118.52 70.22 115.88 70.90 C 114.15 69.83 112.48 68.65 110.86 67.43 C 113.02 65.61 116.20 62.71 114.42 59.65 C 114.08 57.43 110.99 57.46 110.86 55.20 Z" />
<path fill="#6b534b" opacity="1.00" d=" M 97.04 57.58 C 97.62 57.13 98.20 56.68 98.79 56.24 C 100.09 56.70 101.45 56.96 102.80 57.23 C 102.00 58.91 98.60 58.22 97.04 57.58 Z" />
<path fill="#c7815d" opacity="1.00" d=" M 118.21 55.85 C 120.76 58.69 123.01 61.97 123.72 65.79 C 123.30 66.20 122.44 67.02 122.01 67.44 L 121.12 67.49 C 119.24 65.08 117.92 62.25 117.72 59.18 C 117.85 58.35 118.09 56.68 118.21 55.85 Z" />
<path fill="#030403" opacity="0.60" d=" M 204.62 66.28 C 203.54 63.19 204.21 59.90 204.77 56.77 C 204.88 59.94 204.70 63.11 204.62 66.28 Z" />
<path fill="#d35c7a" opacity="1.00" d=" M 124.98 57.95 C 127.21 57.70 132.15 62.24 128.01 62.99 C 125.87 62.42 124.53 60.15 124.98 57.95 Z" />
<path fill="#c4556a" opacity="1.00" d=" M 132.72 58.03 C 139.19 59.42 129.60 68.83 134.77 70.07 C 134.61 70.61 134.29 71.68 134.13 72.22 C 133.67 72.12 132.74 71.91 132.27 71.81 C 131.27 69.65 129.32 67.80 129.13 65.34 C 130.33 64.77 131.56 64.25 132.77 63.67 C 132.74 61.79 132.35 59.90 132.72 58.03 Z" />
<path fill="#bd645c" opacity="1.00" d=" M 138.05 59.67 C 139.30 56.29 145.75 56.85 144.06 61.05 C 143.91 62.43 143.74 63.82 143.51 65.19 C 141.57 63.46 140.81 60.33 138.05 59.67 Z" />
<path fill="#b2445c" opacity="1.00" d=" M 36.73 59.65 C 39.49 58.63 42.41 59.17 45.24 59.72 C 42.40 59.73 39.56 59.70 36.73 59.65 Z" />
<path fill="#882a68" opacity="1.00" d=" M 16.81 62.54 C 23.49 62.60 29.93 59.47 36.73 59.65 C 39.56 59.70 42.40 59.73 45.24 59.72 C 49.29 59.58 52.64 62.03 52.70 66.25 C 54.63 73.73 60.13 79.69 66.93 83.11 C 68.57 84.34 70.15 85.65 71.62 87.09 C 73.15 89.24 75.36 90.39 78.03 90.24 C 78.02 90.70 78.01 91.63 78.01 92.09 C 78.49 94.17 75.76 92.38 75.01 91.98 C 72.34 89.75 68.40 89.56 66.02 87.03 C 64.85 85.14 63.19 83.64 61.26 82.56 C 59.78 81.29 58.11 79.12 56.16 80.93 C 53.08 77.22 50.76 72.97 48.26 68.87 C 48.81 66.90 50.31 65.20 50.06 63.04 C 35.27 61.61 20.89 65.76 6.94 70.04 C 9.29 67.09 13.17 63.93 16.81 62.54 Z" />
<path fill="#cf6760" opacity="1.00" d=" M 53.02 61.98 C 53.22 59.66 60.00 59.57 59.18 63.12 C 59.02 63.60 58.71 64.56 58.56 65.04 C 57.70 67.24 57.10 69.96 58.49 72.03 C 59.98 76.40 64.21 79.14 66.82 82.22 L 66.93 83.11 C 60.13 79.69 54.63 73.73 52.70 66.25 C 52.79 64.83 52.89 63.40 53.02 61.98 Z" />
<path fill="#b69a72" opacity="1.00" d=" M 81.21 63.93 C 79.64 62.21 82.07 59.65 83.86 61.16 C 83.71 61.66 83.43 62.66 83.29 63.16 C 82.77 63.35 81.73 63.74 81.21 63.93 Z" />
<path fill="#835347" opacity="1.00" d=" M 96.71 61.75 C 99.20 59.95 102.52 61.74 105.26 61.71 C 102.43 62.10 99.54 62.13 96.71 61.75 Z" />
<path fill="#7e3d42" opacity="1.00" d=" M 144.06 61.05 C 147.09 60.50 144.53 66.08 146.16 67.83 C 147.15 68.40 150.46 67.13 149.83 68.87 C 148.49 69.06 147.15 69.27 145.83 69.60 C 144.42 69.49 143.73 66.59 143.51 65.19 C 143.74 63.82 143.91 62.43 144.06 61.05 Z" />
<path fill="#8a5039" opacity="1.00" d=" M 83.29 63.16 C 84.56 64.03 85.84 64.90 87.11 65.79 C 84.60 67.18 81.14 67.80 81.21 63.93 C 81.73 63.74 82.77 63.35 83.29 63.16 Z" />
<path fill="#c36257" opacity="1.00" d=" M 136.42 66.72 C 136.18 65.70 136.50 62.78 137.86 63.21 C 140.23 66.62 142.29 70.27 143.98 74.06 C 143.59 77.84 140.10 80.94 137.12 82.98 C 135.68 80.00 134.95 76.50 134.19 73.28 C 135.78 71.49 137.78 69.25 136.42 66.72 Z" />
<path fill="#934b44" opacity="1.00" d=" M 58.49 72.03 C 57.10 69.96 57.70 67.24 58.56 65.04 C 59.59 67.13 59.65 69.98 58.49 72.03 Z" />
<path fill="#464850" opacity="1.00" d=" M 162.17 72.17 C 166.96 67.40 175.93 61.61 182.06 66.86 C 180.27 66.99 178.46 67.09 176.74 67.62 C 174.82 68.14 172.89 68.70 171.13 69.62 C 167.39 71.54 164.39 75.02 162.71 78.83 C 161.77 81.82 160.63 84.74 159.64 87.72 C 158.19 93.71 156.37 100.10 157.55 106.25 C 158.59 112.19 161.89 120.47 168.98 120.13 C 169.47 123.43 163.16 120.38 161.05 120.92 C 155.70 119.20 152.73 113.82 151.39 108.67 C 149.41 95.67 154.72 82.57 162.17 72.17 Z" />
<path fill="#6c5359" opacity="1.00" d=" M 37.27 67.23 C 38.68 64.42 42.46 66.32 45.03 66.01 C 43.09 68.77 41.91 73.08 39.27 74.75 C 37.82 74.63 36.16 75.05 35.07 73.82 C 34.37 71.29 36.10 69.26 37.27 67.23 Z" />
<path fill="#7c6561" opacity="1.00" d=" M 15.85 71.09 C 22.91 69.77 30.01 66.67 37.27 67.23 C 36.10 69.26 34.37 71.29 35.07 73.82 C 36.16 75.05 37.82 74.63 39.27 74.75 C 37.67 78.13 36.69 82.29 34.16 85.01 C 33.30 83.04 32.13 81.17 31.82 79.00 C 32.16 78.52 32.86 77.54 33.21 77.05 C 34.28 76.01 34.01 74.47 34.01 73.13 C 29.58 73.55 25.14 74.03 20.72 74.60 C 18.92 74.03 17.02 72.64 15.85 71.09 Z" />
<path fill="#8f3e4b" opacity="1.00" d=" M 107.99 71.07 C 107.70 68.72 107.70 65.50 110.86 67.43 C 112.48 68.65 114.15 69.83 115.88 70.90 C 116.21 71.11 116.88 71.53 117.21 71.74 C 115.19 71.94 112.69 72.63 111.23 70.74 C 110.13 69.58 109.03 71.70 108.01 72.04 L 107.99 71.07 Z" />
<path fill="#b55968" opacity="1.00" d=" M 116.09 67.00 C 117.76 67.15 119.42 67.65 121.12 67.49 L 122.01 67.44 C 123.29 69.45 125.14 71.34 125.00 73.90 C 122.48 72.93 119.90 72.09 117.21 71.74 C 116.88 71.53 116.21 71.11 115.88 70.90 C 118.52 70.22 117.17 68.54 116.09 67.00 Z" />
<path fill="#dab181" opacity="1.00" d=" M 136.42 66.72 C 137.78 69.25 135.78 71.49 134.19 73.28 L 134.13 72.22 C 134.29 71.68 134.61 70.61 134.77 70.07 C 135.06 68.83 135.60 67.71 136.42 66.72 Z" />
<path fill="#52535c" opacity="1.00" d=" M 176.74 67.62 C 178.46 67.09 180.27 66.99 182.06 66.86 C 183.01 67.11 183.61 67.71 183.88 68.67 C 182.05 69.46 180.49 70.74 179.19 72.24 C 179.24 75.11 180.62 79.37 184.20 77.32 C 183.31 81.57 177.62 78.87 177.01 75.93 C 176.45 72.68 179.36 70.48 181.02 68.10 C 179.59 67.92 178.16 67.76 176.74 67.62 Z" />
<path fill="#71737e" opacity="1.00" d=" M 171.13 69.62 C 172.89 68.70 174.82 68.14 176.74 67.62 C 178.16 67.76 179.59 67.92 181.02 68.10 C 179.36 70.48 176.45 72.68 177.01 75.93 C 177.62 78.87 183.31 81.57 184.20 77.32 C 180.62 79.37 179.24 75.11 179.19 72.24 C 180.49 70.74 182.05 69.46 183.88 68.67 C 187.60 73.50 188.36 80.93 188.97 86.99 C 188.76 89.47 188.34 94.43 188.13 96.91 C 188.49 93.03 182.29 97.53 183.33 100.10 C 182.79 102.21 185.77 102.12 186.38 103.80 C 183.56 111.52 176.99 118.02 168.98 120.13 C 161.89 120.47 158.59 112.19 157.55 106.25 C 157.87 103.84 156.84 98.79 160.31 99.58 C 162.80 100.80 161.75 97.79 161.89 96.36 C 163.47 95.18 167.93 93.41 163.92 92.32 C 167.74 92.03 167.73 88.07 164.05 87.46 C 162.56 86.26 161.46 88.06 160.63 89.09 C 160.38 88.74 159.89 88.06 159.64 87.72 C 160.63 84.74 161.77 81.82 162.71 78.83 C 162.81 79.40 163.02 80.53 163.12 81.10 C 165.82 77.57 168.44 73.98 171.56 70.80 C 171.45 70.51 171.24 69.91 171.13 69.62 M 166.07 112.12 C 166.37 109.91 163.57 111.99 164.01 113.04 C 163.26 115.90 166.10 118.73 168.96 118.00 C 169.93 118.50 172.23 115.29 169.94 116.03 C 170.71 114.49 172.01 113.01 171.92 111.21 C 169.84 109.69 167.57 110.03 166.07 112.12 Z" />
<path fill="#ca545a" opacity="1.00" d=" M 48.26 68.87 C 50.76 72.97 53.08 77.22 56.16 80.93 C 52.19 83.39 48.52 86.40 45.94 90.33 C 42.40 87.67 44.69 82.37 43.29 78.75 C 43.51 75.07 46.91 72.28 48.26 68.87 Z" />
<path fill="#c94987" opacity="1.00" d=" M 145.83 69.60 C 147.15 69.27 148.49 69.06 149.83 68.87 C 151.93 70.30 152.36 73.69 154.70 75.31 C 154.93 77.85 152.51 80.23 151.76 82.74 C 150.21 82.20 148.26 82.22 147.27 80.72 C 144.70 77.37 148.46 72.95 145.83 69.60 Z" />
<path fill="#a8ab8b" opacity="1.00" d=" M 162.71 78.83 C 164.39 75.02 167.39 71.54 171.13 69.62 C 171.24 69.91 171.45 70.51 171.56 70.80 C 168.44 73.98 165.82 77.57 163.12 81.10 C 163.02 80.53 162.81 79.40 162.71 78.83 Z" />
<path fill="#c06351" opacity="1.00" d=" M 104.21 71.94 C 103.41 69.98 106.96 71.41 107.99 71.07 L 108.01 72.04 C 107.31 75.21 105.60 78.21 103.87 80.98 C 102.32 79.31 99.22 78.64 98.97 76.16 C 101.45 76.45 105.84 75.15 104.21 71.94 Z" />
<path fill="#ae9e7b" opacity="1.00" d=" M 20.72 74.60 C 25.14 74.03 29.58 73.55 34.01 73.13 C 34.01 74.47 34.28 76.01 33.21 77.05 C 32.79 72.21 24.82 76.01 21.62 75.56 C 21.40 75.32 20.95 74.84 20.72 74.60 Z" />
<path fill="#040404" opacity="0.31" d=" M 206.31 72.72 C 207.50 76.44 206.91 80.48 206.24 84.24 C 205.93 80.41 206.11 76.55 206.31 72.72 Z" />
<path fill="#d28050" opacity="1.00" d=" M 109.97 73.98 C 114.98 74.52 120.06 75.75 125.10 74.77 C 125.91 74.52 126.71 74.26 127.51 73.98 C 131.07 74.47 133.99 76.82 132.93 80.82 C 132.70 81.11 132.25 81.70 132.03 82.00 C 128.15 82.31 124.28 82.89 120.38 82.88 C 116.52 81.59 111.76 80.94 109.67 85.08 C 108.36 86.07 106.93 86.87 105.41 87.46 C 102.39 85.02 105.93 81.81 107.80 79.95 C 107.71 84.23 111.88 80.48 112.39 78.36 C 113.95 76.71 111.20 76.41 110.17 75.70 C 110.12 75.27 110.02 74.41 109.97 73.98 M 122.23 76.20 C 120.61 77.35 119.57 78.96 119.98 81.02 C 123.34 81.69 122.54 77.04 125.10 75.95 C 124.38 76.01 122.95 76.14 122.23 76.20 Z" />
<path fill="#eee49b" opacity="1.00" d=" M 21.62 75.56 C 24.82 76.01 32.79 72.21 33.21 77.05 C 32.86 77.54 32.16 78.52 31.82 79.00 C 30.51 81.89 30.31 85.21 29.40 88.25 C 26.67 84.07 25.16 79.19 21.62 75.56 Z" />
<path fill="#2d1815" opacity="1.00" d=" M 202.01 74.98 L 202.99 75.01 C 202.99 77.75 202.99 83.24 202.99 85.98 L 202.03 86.01 C 201.98 82.34 202.00 78.65 202.01 74.98 Z" />
<path fill="#cca767" opacity="1.00" d=" M 107.80 79.95 C 108.36 78.51 108.49 76.24 110.17 75.70 C 111.20 76.41 113.95 76.71 112.39 78.36 C 111.88 80.48 107.71 84.23 107.80 79.95 Z" />
<path fill="#d7c97e" opacity="1.00" d=" M 122.23 76.20 C 122.95 76.14 124.38 76.01 125.10 75.95 C 122.54 77.04 123.34 81.69 119.98 81.02 C 119.57 78.96 120.61 77.35 122.23 76.20 Z" />
<path fill="#907b6a" opacity="1.00" d=" M 29.40 88.25 C 30.31 85.21 30.51 81.89 31.82 79.00 C 32.13 81.17 33.30 83.04 34.16 85.01 C 33.49 88.13 32.60 91.87 30.22 94.10 C 30.09 92.14 29.20 90.21 29.40 88.25 Z" />
<path fill="#d24e7a" opacity="1.00" d=" M 43.29 78.75 C 44.69 82.37 42.40 87.67 45.94 90.33 C 44.73 91.99 43.52 93.66 42.18 95.22 C 38.25 91.19 42.13 86.58 42.03 81.94 C 42.07 80.73 42.49 79.67 43.29 78.75 Z" />
<path fill="#461b51" opacity="1.00" d=" M 56.16 80.93 C 58.11 79.12 59.78 81.29 61.26 82.56 C 58.56 83.81 55.87 85.07 53.09 86.11 C 54.20 84.44 55.40 82.81 56.16 80.93 Z" />
<path fill="#bb534f" opacity="1.00" d=" M 90.01 83.88 C 92.09 81.63 97.95 78.19 100.34 82.19 C 97.12 82.59 93.68 82.70 91.11 84.88 C 90.83 84.63 90.28 84.13 90.01 83.88 Z" />
<path fill="#892974" opacity="1.00" d=" M 45.94 90.33 C 48.52 86.40 52.19 83.39 56.16 80.93 C 55.40 82.81 54.20 84.44 53.09 86.11 C 43.88 93.18 38.36 103.81 33.45 114.17 C 33.27 112.86 33.16 111.54 33.12 110.23 C 33.92 108.90 34.70 107.56 35.43 106.21 C 37.80 102.61 39.97 98.90 42.18 95.22 C 43.52 93.66 44.73 91.99 45.94 90.33 Z" />
<path fill="#130c0b" opacity="0.57" d=" M 75.77 81.17 C 78.95 81.14 82.11 81.25 85.29 81.33 C 82.25 82.58 78.84 81.93 75.77 81.17 Z" />
<path fill="#94457b" opacity="1.00" d=" M 132.03 82.00 C 132.25 81.70 132.70 81.11 132.93 80.82 C 132.94 82.33 132.96 85.35 132.97 86.86 C 129.09 86.02 125.65 88.18 121.89 88.11 C 120.83 87.89 119.79 87.63 118.76 87.34 C 118.74 86.73 118.70 85.49 118.68 84.87 C 122.52 86.75 126.72 83.74 130.65 83.71 C 131.00 83.28 131.68 82.43 132.03 82.00 Z" />
<path fill="#cf5d6e" opacity="1.00" d=" M 39.09 87.93 C 39.41 85.78 40.31 83.25 42.03 81.94 C 42.13 86.58 38.25 91.19 42.18 95.22 C 39.97 98.90 37.80 102.61 35.43 106.21 C 35.53 104.10 34.46 104.00 32.93 104.94 C 32.87 103.27 33.41 101.70 34.33 100.32 C 36.76 96.61 39.11 92.50 39.09 87.93 Z" />
<path fill="#b34f4e" opacity="1.00" d=" M 66.82 82.22 C 69.04 83.23 72.48 83.14 73.93 84.79 C 72.67 85.05 71.90 85.82 71.62 87.09 C 70.15 85.65 68.57 84.34 66.93 83.11 L 66.82 82.22 Z" />
<path fill="#853852" opacity="1.00" d=" M 100.34 82.19 L 101.11 82.08 C 104.89 91.03 95.87 84.72 93.08 86.08 C 88.07 88.00 83.39 91.36 78.01 92.09 C 78.01 91.63 78.02 90.70 78.03 90.24 C 78.57 90.00 79.66 89.54 80.21 89.30 C 81.13 88.91 82.06 88.50 82.98 88.09 C 86.10 88.31 88.77 86.77 91.11 84.88 C 93.68 82.70 97.12 82.59 100.34 82.19 Z" />
<path fill="#d0494f" opacity="1.00" d=" M 109.67 85.08 C 111.76 80.94 116.52 81.59 120.38 82.88 C 119.96 83.38 119.11 84.38 118.68 84.87 C 117.53 85.48 116.45 86.21 115.28 86.77 C 113.88 86.35 111.07 85.51 109.67 85.08 Z" />
<path fill="#ce8065" opacity="1.00" d=" M 120.38 82.88 C 124.28 82.89 128.15 82.31 132.03 82.00 C 131.68 82.43 131.00 83.28 130.65 83.71 C 126.72 83.74 122.52 86.75 118.68 84.87 C 119.11 84.38 119.96 83.38 120.38 82.88 Z" />
<path fill="#4f1b56" opacity="1.00" d=" M 61.26 82.56 C 63.19 83.64 64.85 85.14 66.02 87.03 C 63.75 87.03 61.48 84.69 61.26 82.56 Z" />
<path fill="#762c55" opacity="1.00" d=" M 137.31 86.71 C 137.41 85.03 139.79 83.98 141.05 82.91 C 140.38 84.90 139.92 88.12 137.95 88.90 C 137.79 88.35 137.47 87.26 137.31 86.71 Z" />
<path fill="#c4976f" opacity="1.00" d=" M 84.06 85.34 C 86.02 84.77 87.94 83.97 90.01 83.88 C 90.28 84.13 90.83 84.63 91.11 84.88 C 88.77 86.77 86.10 88.31 82.98 88.09 C 83.59 87.41 84.98 86.91 84.20 85.82 L 84.06 85.34 Z" />
<path fill="#c4916d" opacity="1.00" d=" M 71.62 87.09 C 71.90 85.82 72.67 85.05 73.93 84.79 C 74.71 84.92 76.29 85.18 77.07 85.30 L 77.06 85.90 C 75.38 85.68 74.74 86.33 75.12 87.83 C 76.36 89.34 78.48 88.96 80.21 89.30 C 79.66 89.54 78.57 90.00 78.03 90.24 C 75.36 90.39 73.15 89.24 71.62 87.09 Z" />
<path fill="#818663" opacity="1.00" d=" M 77.07 85.30 C 79.21 84.43 81.90 84.57 84.06 85.34 L 84.20 85.82 C 82.41 85.84 78.85 85.88 77.06 85.90 L 77.07 85.30 Z" />
<path fill="#c3725e" opacity="1.00" d=" M 105.41 87.46 C 106.93 86.87 108.36 86.07 109.67 85.08 C 111.07 85.51 113.88 86.35 115.28 86.77 C 112.87 90.33 103.98 88.58 106.93 95.96 L 106.03 95.98 C 105.99 95.21 105.92 93.66 105.88 92.89 C 105.30 93.64 104.74 94.41 104.19 95.19 C 102.50 95.79 100.77 97.03 98.94 96.19 C 98.92 94.52 98.90 92.84 99.16 91.19 C 100.78 89.22 103.36 88.80 105.41 87.46 Z" />
<path fill="#ebecaf" opacity="1.00" d=" M 75.12 87.83 C 74.74 86.33 75.38 85.68 77.06 85.90 C 78.85 85.88 82.41 85.84 84.20 85.82 C 84.98 86.91 83.59 87.41 82.98 88.09 C 82.06 88.50 81.13 88.91 80.21 89.30 C 78.48 88.96 76.36 89.34 75.12 87.83 Z" />
<path fill="#010101" opacity="0.08" d=" M 148.38 86.30 C 148.79 86.21 149.62 86.04 150.03 85.95 C 148.65 90.92 146.88 95.86 146.85 101.08 C 144.64 99.54 138.74 100.05 140.29 96.31 C 143.04 93.01 146.10 89.95 148.38 86.30 Z" />
<path fill="#796a63" opacity="1.00" d=" M 56.25 88.70 C 58.06 84.29 61.16 89.74 63.32 91.13 C 62.62 92.44 61.82 93.70 61.00 94.95 C 58.52 93.55 55.31 92.09 56.25 88.70 Z" />
<path fill="#7d2e52" opacity="1.00" d=" M 116.20 89.23 C 117.04 88.69 117.58 86.92 118.76 87.34 C 119.79 87.63 120.83 87.89 121.89 88.11 C 119.00 92.28 126.93 89.21 129.28 90.27 C 128.14 90.87 126.99 91.46 125.83 92.03 C 122.65 91.43 119.80 92.43 118.70 95.64 C 115.18 97.67 116.74 91.44 116.20 89.23 Z" />
<path fill="#ad5267" opacity="1.00" d=" M 132.56 94.67 C 134.06 92.04 134.50 88.17 137.31 86.71 C 137.47 87.26 137.79 88.35 137.95 88.90 C 137.21 91.38 136.71 93.98 135.11 96.09 C 134.54 98.09 131.09 96.23 132.56 94.67 Z" />
<path fill="#53565a" opacity="1.00" d=" M 160.63 89.09 C 161.46 88.06 162.56 86.26 164.05 87.46 C 163.05 88.68 162.14 91.46 163.92 92.32 C 167.93 93.41 163.47 95.18 161.89 96.36 C 161.47 93.93 161.05 91.51 160.63 89.09 Z" />
<path fill="#c2627e" opacity="1.00" d=" M 34.33 100.32 C 34.80 96.06 36.19 91.00 39.09 87.93 C 39.11 92.50 36.76 96.61 34.33 100.32 Z" />
<path fill="#656771" opacity="1.00" d=" M 157.55 106.25 C 156.37 100.10 158.19 93.71 159.64 87.72 C 159.89 88.06 160.38 88.74 160.63 89.09 C 161.05 91.51 161.47 93.93 161.89 96.36 C 161.75 97.79 162.80 100.80 160.31 99.58 C 156.84 98.79 157.87 103.84 157.55 106.25 Z" />
<path fill="#8c8b88" opacity="1.00" d=" M 163.92 92.32 C 162.14 91.46 163.05 88.68 164.05 87.46 C 167.73 88.07 167.74 92.03 163.92 92.32 Z" />
<path fill="#e6eb9e" opacity="1.00" d=" M 40.97 108.09 C 44.98 100.94 49.59 93.66 56.25 88.70 C 55.31 92.09 58.52 93.55 61.00 94.95 C 63.37 96.25 65.82 97.43 68.21 98.69 C 58.50 99.92 49.82 104.43 40.97 108.09 Z" />
<path fill="#d46f6a" opacity="1.00" d=" M 129.28 90.27 C 130.48 89.67 131.71 89.10 133.06 88.93 C 132.47 90.01 131.95 91.19 131.00 92.01 C 129.60 93.26 128.55 94.85 127.11 96.07 C 126.24 94.89 126.06 93.43 125.83 92.03 C 126.99 91.46 128.14 90.87 129.28 90.27 Z" />
<path fill="#655357" opacity="1.00" d=" M 63.32 91.13 C 68.71 93.49 74.19 95.53 80.22 95.19 C 78.90 95.64 76.27 96.54 74.96 96.99 C 74.62 97.13 73.96 97.40 73.62 97.54 C 71.85 97.95 70.05 98.95 68.21 98.69 C 65.82 97.43 63.37 96.25 61.00 94.95 C 61.82 93.70 62.62 92.44 63.32 91.13 Z" />
<path fill="#cbbc98" opacity="1.00" d=" M 112.27 91.32 C 112.70 91.21 113.54 91.00 113.97 90.89 C 115.62 97.04 110.15 101.07 104.94 102.08 C 105.63 100.21 108.24 99.88 108.63 97.70 C 107.10 94.15 109.81 92.29 112.27 91.32 Z" />
<path fill="#c35c83" opacity="1.00" d=" M 118.70 95.64 C 119.80 92.43 122.65 91.43 125.83 92.03 C 126.06 93.43 126.24 94.89 127.11 96.07 C 128.55 94.85 129.60 93.26 131.00 92.01 C 130.50 93.97 130.07 95.96 129.80 97.97 C 125.98 98.09 122.40 96.37 118.70 95.64 Z" />
<path fill="#d270a0" opacity="1.00" d=" M 104.19 95.19 C 104.74 94.41 105.30 93.64 105.88 92.89 C 105.92 93.66 105.99 95.21 106.03 95.98 C 105.79 96.48 105.30 97.49 105.06 97.99 C 104.54 97.98 103.49 97.95 102.97 97.94 C 103.38 97.02 103.79 96.11 104.19 95.19 Z" />
<path fill="#7e736b" opacity="1.00" d=" M 80.22 95.19 C 81.46 94.76 82.68 94.25 83.95 93.91 C 83.24 94.84 83.55 97.22 81.94 96.95 C 80.19 96.96 76.70 96.98 74.96 96.99 C 76.27 96.54 78.90 95.64 80.22 95.19 Z" />
<path fill="#cfae6f" opacity="1.00" d=" M 85.83 98.93 C 86.05 96.01 90.66 92.55 93.14 95.16 C 92.78 96.09 92.40 97.02 92.02 97.95 C 90.26 99.05 85.67 103.25 85.83 98.93 Z" />
<path fill="#ce6666" opacity="1.00" d=" M 93.14 95.16 C 95.13 94.82 96.99 95.93 98.94 96.19 C 100.77 97.03 102.50 95.79 104.19 95.19 C 103.79 96.11 103.38 97.02 102.97 97.94 C 99.25 97.31 96.34 99.66 93.10 100.91 C 92.75 99.92 92.39 98.93 92.02 97.95 C 92.40 97.02 92.78 96.09 93.14 95.16 Z" />
<path fill="#858585" opacity="1.00" d=" M 183.33 100.10 C 182.29 97.53 188.49 93.03 188.13 96.91 C 188.18 98.48 187.93 100.10 186.74 101.24 C 185.59 100.91 184.45 100.53 183.33 100.10 Z" />
<path fill="#4d4144" opacity="1.00" d=" M 73.62 97.54 C 73.96 97.40 74.62 97.13 74.96 96.99 C 76.70 96.98 80.19 96.96 81.94 96.95 C 81.23 99.27 76.01 97.65 73.62 97.54 Z" />
<path fill="#d08e65" opacity="1.00" d=" M 85.83 98.93 C 85.67 103.25 90.26 99.05 92.02 97.95 C 92.39 98.93 92.75 99.92 93.10 100.91 C 89.22 102.88 87.57 107.79 83.87 110.32 L 83.28 110.28 C 81.07 106.27 83.42 102.16 85.83 98.93 Z" />
<path fill="#d05b76" opacity="1.00" d=" M 93.10 100.91 C 96.34 99.66 99.25 97.31 102.97 97.94 C 103.49 97.95 104.54 97.98 105.06 97.99 C 104.19 99.49 102.16 99.79 100.94 100.92 C 95.48 103.35 92.60 109.07 87.77 112.27 C 86.33 111.99 84.21 112.19 83.87 110.32 C 87.57 107.79 89.22 102.88 93.10 100.91 Z" />
<path fill="#3b2c38" opacity="1.00" d=" M 113.88 98.07 C 115.79 99.03 121.59 96.85 120.94 99.95 C 119.89 100.12 118.85 100.31 117.81 100.51 C 116.21 100.67 114.62 99.46 113.88 98.07 Z" />
<path fill="#3d3238" opacity="1.00" d=" M 136.26 99.09 C 138.99 98.09 138.12 102.44 135.93 102.06 C 134.17 101.80 135.09 99.51 136.26 99.09 Z" />
<path fill="#5b4656" opacity="1.00" d=" M 117.81 100.51 C 118.85 100.31 119.89 100.12 120.94 99.95 C 124.31 99.45 128.30 98.83 126.98 103.05 C 123.77 102.92 120.89 101.24 117.81 100.51 Z" />
<path fill="#5f6169" opacity="1.00" d=" M 186.38 103.80 C 185.77 102.12 182.79 102.21 183.33 100.10 C 184.45 100.53 185.59 100.91 186.74 101.24 C 187.45 102.40 187.33 103.25 186.38 103.80 Z" />
<path fill="#070506" opacity="0.58" d=" M 28.37 101.73 C 29.81 106.79 28.62 112.13 28.65 117.29 C 27.02 112.28 28.50 106.86 28.37 101.73 Z" />
<path fill="#615856" opacity="1.00" d=" M 96.17 109.28 C 101.73 107.61 106.65 104.42 111.94 102.13 C 114.63 103.24 117.27 104.50 120.02 105.46 C 121.34 106.01 122.79 106.11 124.19 106.33 C 123.09 107.17 121.98 107.98 120.89 108.83 C 117.46 111.35 114.45 114.42 111.11 117.02 C 110.35 115.88 110.06 114.55 109.65 113.27 C 106.40 109.29 100.29 111.90 95.97 110.93 C 96.02 110.52 96.12 109.69 96.17 109.28 Z" />
<path fill="#4c4643" opacity="1.00" d=" M 137.40 104.74 C 137.38 103.18 139.76 101.19 141.31 102.63 C 144.25 104.32 150.01 104.27 146.99 110.02 C 144.00 109.74 141.02 109.25 138.06 108.84 C 137.90 107.46 137.70 106.09 137.40 104.74 Z" />
<path fill="#d1608d" opacity="1.00" d=" M 32.93 104.94 C 34.46 104.00 35.53 104.10 35.43 106.21 C 34.70 107.56 33.92 108.90 33.12 110.23 C 33.08 109.42 33.00 107.80 32.96 106.99 C 32.95 106.48 32.93 105.45 32.93 104.94 Z" />
<path fill="#2d2729" opacity="1.00" d=" M 120.02 105.46 C 121.81 104.89 125.90 103.90 126.62 105.97 C 126.01 106.06 124.80 106.24 124.19 106.33 C 122.79 106.11 121.34 106.01 120.02 105.46 Z" />
<path fill="#625959" opacity="1.00" d=" M 130.25 108.55 C 132.56 107.15 134.98 105.94 137.40 104.74 C 137.70 106.09 137.90 107.46 138.06 108.84 C 135.95 112.30 136.75 117.61 133.26 120.05 C 133.33 118.37 132.69 117.78 131.35 118.28 C 129.65 120.54 128.36 123.27 126.18 125.06 C 125.14 119.92 124.32 114.74 123.75 109.52 C 125.93 109.12 128.45 110.26 130.25 108.55 Z" />
<path fill="#4d4946" opacity="1.00" d=" M 124.19 106.33 C 124.80 106.24 126.01 106.06 126.62 105.97 C 127.67 107.05 128.82 108.01 130.25 108.55 C 128.45 110.26 125.93 109.12 123.75 109.52 C 122.77 109.45 121.82 109.22 120.89 108.83 C 121.98 107.98 123.09 107.17 124.19 106.33 Z" />
<path fill="#61254d" opacity="1.00" d=" M 32.03 117.15 C 32.26 114.61 32.73 109.53 32.96 106.99 C 33.00 107.80 33.08 109.42 33.12 110.23 C 33.16 111.54 33.27 112.86 33.45 114.17 C 33.46 115.21 33.26 116.87 32.03 117.15 Z" />
<path fill="#7f8584" opacity="1.00" d=" M 74.24 108.18 C 75.80 107.41 80.02 105.51 78.96 108.87 C 77.95 109.95 76.91 111.01 75.85 112.06 C 74.73 111.38 73.80 110.44 72.80 109.60 C 73.16 109.25 73.88 108.54 74.24 108.18 Z" />
<path fill="#70746d" opacity="1.00" d=" M 65.01 111.12 C 67.85 109.61 71.05 108.57 74.24 108.18 C 73.88 108.54 73.16 109.25 72.80 109.60 C 70.02 109.46 66.41 115.21 65.01 111.12 Z" />
<path fill="#959c88" opacity="1.00" d=" M 75.85 112.06 C 76.91 111.01 77.95 109.95 78.96 108.87 C 80.10 109.18 80.44 110.19 79.97 111.90 L 79.89 112.80 C 79.21 113.87 78.55 114.94 77.89 116.03 C 76.39 115.56 76.35 113.36 75.85 112.06 Z" />
<path fill="#7a373f" opacity="1.00" d=" M 83.28 110.28 L 83.87 110.32 C 84.21 112.19 86.33 111.99 87.77 112.27 C 86.91 114.22 81.13 113.26 83.28 110.28 Z" />
<path fill="#7f8282" opacity="1.00" d=" M 166.07 112.12 C 167.57 110.03 169.84 109.69 171.92 111.21 C 172.01 113.01 170.71 114.49 169.94 116.03 C 167.12 116.77 166.36 114.41 166.07 112.12 Z" />
<path fill="#5b5b60" opacity="1.00" d=" M 164.01 113.04 C 163.57 111.99 166.37 109.91 166.07 112.12 C 166.36 114.41 167.12 116.77 169.94 116.03 C 172.23 115.29 169.93 118.50 168.96 118.00 C 166.10 118.73 163.26 115.90 164.01 113.04 Z" />
<path fill="#424330" opacity="1.00" d=" M 79.97 111.90 C 81.69 112.87 81.73 119.14 79.89 120.26 C 79.95 117.77 79.94 115.28 79.89 112.80 L 79.97 111.90 Z" />
<path fill="#7b4743" opacity="1.00" d=" M 139.10 113.05 C 138.67 109.79 145.66 112.73 147.96 112.04 L 148.10 112.99 C 145.37 113.00 142.65 113.02 139.93 113.06 L 139.10 113.05 Z" />
<path fill="#40454c" opacity="1.00" d=" M 70.67 113.64 C 72.14 112.29 73.24 114.75 73.89 115.83 C 68.41 116.73 64.49 121.25 59.82 123.95 C 56.91 124.86 54.03 126.13 50.91 126.01 C 57.38 121.92 64.29 118.06 70.67 113.64 Z" />
<path fill="#cad09a" opacity="1.00" d=" M 77.89 116.03 C 78.55 114.94 79.21 113.87 79.89 112.80 C 79.94 115.28 79.95 117.77 79.89 120.26 C 79.32 119.43 78.75 118.60 78.18 117.77 C 78.11 117.33 77.97 116.46 77.89 116.03 Z" />
<path fill="#231f4c" opacity="1.00" d=" M 91.15 113.29 C 92.40 114.00 96.32 113.41 95.70 114.80 C 94.52 116.06 93.01 117.23 92.96 119.12 C 92.26 122.08 91.57 125.05 91.14 128.06 C 91.09 128.47 90.99 129.30 90.94 129.71 C 90.38 131.87 89.84 134.04 89.31 136.22 C 86.67 130.90 88.48 124.94 90.45 119.76 C 89.98 117.55 90.49 115.40 91.15 113.29 Z" />
<path fill="#892d6e" opacity="1.00" d=" M 119.16 113.14 C 123.23 111.62 120.13 118.04 121.60 120.32 C 122.97 122.78 120.23 124.28 118.66 125.63 C 117.45 126.42 116.26 127.25 115.10 128.12 C 114.61 125.41 115.62 122.85 116.10 120.23 C 115.59 120.32 114.59 120.49 114.09 120.58 C 113.82 120.46 113.29 120.23 113.02 120.11 C 114.81 117.95 117.54 115.80 119.16 113.14 Z" />
<path fill="#953e6b" opacity="1.00" d=" M 139.10 113.05 L 139.93 113.06 C 140.08 114.43 139.87 116.19 141.75 116.20 L 142.20 116.66 C 139.78 117.32 138.54 122.51 141.92 122.07 L 142.02 122.92 C 139.95 122.71 138.66 123.43 138.62 125.60 L 137.86 126.09 C 136.31 126.86 135.26 128.28 134.73 129.91 C 133.16 129.10 131.87 124.93 134.71 124.61 C 136.94 121.07 137.93 117.01 139.10 113.05 Z" />
<path fill="#d79b72" opacity="1.00" d=" M 139.93 113.06 C 142.65 113.02 145.37 113.00 148.10 112.99 L 148.16 113.93 C 147.75 116.70 145.61 117.46 141.75 116.20 C 139.87 116.19 140.08 114.43 139.93 113.06 Z" />
<path fill="#d4735f" opacity="1.00" d=" M 148.16 113.93 C 149.54 116.74 152.25 118.99 153.08 121.99 C 151.35 121.98 147.88 121.96 146.15 121.95 C 145.04 120.04 143.81 118.19 142.20 116.66 L 141.75 116.20 C 145.61 117.46 147.75 116.70 148.16 113.93 Z" />
<path fill="#3c1955" opacity="1.00" d=" M 92.96 119.12 C 93.01 117.23 94.52 116.06 95.70 114.80 C 98.10 115.06 102.22 113.98 101.03 117.77 L 100.29 117.71 C 97.78 117.46 95.42 118.79 92.96 119.12 Z" />
<path fill="#c06a51" opacity="1.00" d=" M 104.31 116.25 C 104.51 115.08 107.37 114.07 106.94 115.99 C 106.34 119.46 109.96 122.39 113.02 120.11 C 113.29 120.23 113.82 120.46 114.09 120.58 C 110.63 123.70 106.87 127.85 101.98 128.04 C 101.92 123.99 103.73 120.22 104.31 116.25 Z" />
<path fill="#788187" opacity="1.00" d=" M 59.82 123.95 C 64.49 121.25 68.41 116.73 73.89 115.83 C 74.64 116.76 75.04 117.82 75.08 119.01 C 69.84 120.21 65.17 123.27 59.82 123.95 Z" />
<path fill="#582869" opacity="1.00" d=" M 92.96 119.12 C 95.42 118.79 97.78 117.46 100.29 117.71 C 99.90 119.10 100.54 121.27 99.01 122.08 C 96.30 123.96 93.71 126.00 91.14 128.06 C 91.57 125.05 92.26 122.08 92.96 119.12 Z" />
<path fill="#d66074" opacity="1.00" d=" M 141.92 122.07 C 138.54 122.51 139.78 117.32 142.20 116.66 C 143.81 118.19 145.04 120.04 146.15 121.95 C 144.74 121.99 143.33 122.03 141.92 122.07 Z" />
<path fill="#51474b" opacity="1.00" d=" M 78.18 117.77 C 78.75 118.60 79.32 119.43 79.89 120.26 C 81.13 123.19 77.30 130.01 74.91 125.18 C 79.70 126.11 77.74 120.91 78.18 117.77 Z" />
<path fill="#d9d6a6" opacity="1.00" d=" M 59.82 123.95 C 65.17 123.27 69.84 120.21 75.08 119.01 C 75.08 120.26 75.01 121.51 74.87 122.76 C 67.89 124.49 61.49 128.45 54.01 127.99 C 49.43 133.64 46.90 124.57 50.91 126.01 C 54.03 126.13 56.91 124.86 59.82 123.95 Z" />
<path fill="#8a4588" opacity="1.00" d=" M 91.14 128.06 C 93.71 126.00 96.30 123.96 99.01 122.08 C 98.99 125.33 98.71 128.65 99.69 131.80 C 98.62 133.57 98.79 137.92 95.82 136.30 C 94.45 133.92 93.24 131.36 90.94 129.71 C 90.99 129.30 91.09 128.47 91.14 128.06 Z" />
<path fill="#673338" opacity="1.00" d=" M 141.92 122.07 C 143.33 122.03 144.74 121.99 146.15 121.95 C 147.88 121.96 151.35 121.98 153.08 121.99 L 152.98 122.99 C 150.24 122.97 144.76 122.94 142.02 122.92 L 141.92 122.07 Z" />
<path fill="#ca4f61" opacity="1.00" d=" M 115.10 128.12 C 116.26 127.25 117.45 126.42 118.66 125.63 C 117.50 129.30 118.06 133.74 115.83 136.92 C 113.79 137.40 113.44 134.90 112.39 133.74 C 112.75 131.71 114.03 129.88 115.10 128.12 Z" />
<path fill="#c9657a" opacity="1.00" d=" M 134.73 129.91 C 135.26 128.28 136.31 126.86 137.86 126.09 C 137.88 128.39 139.01 130.53 140.98 131.76 C 139.29 132.25 138.01 133.98 136.21 133.91 C 135.66 132.60 135.06 131.30 134.73 129.91 Z" />
<path fill="#d29771" opacity="1.00" d=" M 137.86 126.09 L 138.62 125.60 C 140.93 127.04 142.08 129.84 143.86 131.85 C 143.15 133.34 141.84 132.71 140.98 131.76 C 139.01 130.53 137.88 128.39 137.86 126.09 Z" />
<path fill="#040404" opacity="0.35" d=" M 142.81 126.09 C 145.63 126.08 148.45 126.15 151.27 126.31 C 149.16 126.92 147.02 127.42 144.86 127.81 C 144.00 127.51 143.31 126.94 142.81 126.09 Z" />
<path fill="#100a0b" opacity="0.43" d=" M 84.81 134.12 C 82.72 132.44 82.90 128.65 84.91 126.89 C 84.88 128.70 84.84 132.31 84.81 134.12 Z" />
<path fill="#b66a4f" opacity="1.00" d=" M 112.18 127.12 C 111.83 128.37 111.31 129.57 110.73 130.73 C 108.71 133.62 104.24 131.99 102.48 135.16 C 101.58 134.30 101.26 133.27 101.84 132.12 C 105.88 132.05 108.74 128.79 112.18 127.12 Z" />
<path fill="#010101" opacity="0.07" d=" M 122.21 126.99 C 123.97 127.43 123.63 130.69 125.98 129.99 C 128.01 130.26 127.36 126.30 129.72 127.12 C 130.62 129.77 131.72 132.34 132.80 134.93 C 129.40 137.26 124.96 136.99 120.99 136.99 C 120.27 133.51 121.39 130.26 122.21 126.99 Z" />
<path fill="#c68065" opacity="1.00" d=" M 90.94 129.71 C 93.24 131.36 94.45 133.92 95.82 136.30 C 97.27 138.77 99.25 140.86 101.03 143.10 C 98.29 141.73 91.27 136.78 90.86 142.02 C 89.35 141.00 89.07 138.06 89.31 136.22 C 89.84 134.04 90.38 131.87 90.94 129.71 Z" />
<path fill="#070707" opacity="0.23" d=" M 49.75 131.25 C 52.59 131.26 55.44 131.30 58.28 131.37 C 55.51 132.37 52.56 131.95 49.75 131.25 Z" />
<path fill="#954e79" opacity="1.00" d=" M 95.82 136.30 C 98.79 137.92 98.62 133.57 99.69 131.80 C 100.23 131.88 101.30 132.04 101.84 132.12 C 101.26 133.27 101.58 134.30 102.48 135.16 C 103.75 137.88 102.33 141.26 103.91 143.96 C 102.92 143.76 101.96 143.47 101.03 143.10 C 99.25 140.86 97.27 138.77 95.82 136.30 Z" />
<path fill="#afa685" opacity="1.00" d=" M 110.31 136.16 C 114.35 137.23 112.64 145.72 108.16 143.92 C 106.05 141.04 109.17 138.68 110.31 136.16 Z" />
<path fill="#d36a53" opacity="1.00" d=" M 122.23 140.39 C 126.89 141.61 131.23 138.12 135.79 138.11 C 137.48 140.46 139.07 142.88 141.18 144.90 C 143.52 145.71 144.03 142.92 144.16 141.24 C 145.34 141.55 146.52 142.17 147.78 141.89 C 148.79 140.48 149.76 138.19 151.79 138.35 C 157.57 141.63 163.21 145.57 167.09 151.05 C 165.77 150.76 164.53 150.22 163.26 149.77 C 159.20 148.78 154.78 148.53 150.69 149.58 C 140.67 151.12 131.03 154.69 121.01 156.03 C 118.42 156.00 115.83 155.96 113.25 155.90 C 112.84 154.29 111.60 153.12 110.06 152.57 C 110.14 151.38 110.26 150.19 110.26 149.00 C 110.37 147.34 112.25 146.41 113.26 145.23 C 114.99 144.24 116.00 147.74 117.75 146.79 C 119.85 145.12 121.26 142.86 122.23 140.39 Z" />
<path fill="#d5955f" opacity="1.00" d=" M 90.86 142.02 C 91.27 136.78 98.29 141.73 101.03 143.10 C 101.96 143.47 102.92 143.76 103.91 143.96 C 105.09 144.22 107.04 144.41 107.16 145.97 C 107.53 149.16 105.18 151.34 103.68 153.84 C 100.28 154.58 98.02 151.11 95.38 149.58 C 93.38 147.50 91.45 144.89 90.86 142.02 Z" />
<path fill="#d47a63" opacity="1.00" d=" M 107.16 145.97 C 108.01 147.16 109.01 148.22 110.26 149.00 C 110.26 150.19 110.14 151.38 110.06 152.57 C 109.43 153.44 108.80 154.31 108.18 155.19 C 106.81 154.69 103.76 155.97 103.68 153.84 C 105.18 151.34 107.53 149.16 107.16 145.97 Z" />
<path fill="#824031" opacity="1.00" d=" M 150.69 149.58 C 154.78 148.53 159.20 148.78 163.26 149.77 C 159.06 150.11 154.87 150.05 150.69 149.58 Z" />
<path fill="#c7606b" opacity="1.00" d=" M 108.18 155.19 C 108.80 154.31 109.43 153.44 110.06 152.57 C 111.60 153.12 112.84 154.29 113.25 155.90 C 112.70 155.92 111.61 155.97 111.06 155.99 C 109.15 156.39 108.19 156.12 108.18 155.19 Z" />
<path fill="#0d0a09" opacity="0.51" d=" M 151.73 153.62 C 155.52 152.95 159.50 152.57 163.25 153.77 C 159.41 154.08 155.55 153.85 151.73 153.62 Z" />
<path fill="#482720" opacity="1.00" d=" M 111.06 155.99 C 111.61 155.97 112.70 155.92 113.25 155.90 C 115.83 155.96 118.42 156.00 121.01 156.03 L 120.99 157.00 C 118.49 157.00 113.48 157.00 110.98 157.01 L 111.06 155.99 Z" />
<path fill="#000000" opacity="0.25" d=" M 91.74 176.65 C 94.41 175.86 97.21 176.01 99.98 175.98 L 100.01 176.99 C 97.25 176.93 94.49 176.81 91.74 176.65 Z" />
<path fill="#000000" opacity="0.47" d=" M 99.98 175.98 C 102.65 175.95 105.32 175.96 108.00 176.00 L 108.00 177.00 C 105.34 177.02 102.67 177.02 100.01 176.99 L 99.98 175.98 Z" />
<path fill="#000000" opacity="0.64" d=" M 108.00 176.00 C 117.00 175.98 126.00 175.98 135.00 176.00 L 135.00 177.00 C 126.00 177.02 117.00 177.01 108.00 177.00 L 108.00 176.00 Z" />
<path fill="#000000" opacity="0.48" d=" M 135.00 176.00 C 137.66 175.96 140.33 175.95 143.00 175.97 L 143.00 176.99 C 140.33 177.02 137.66 177.02 135.00 177.00 L 135.00 176.00 Z" />
<path fill="#000000" opacity="0.25" d=" M 143.00 175.97 C 146.10 175.92 149.16 176.31 152.22 176.76 C 149.13 176.82 146.07 176.99 143.00 176.99 L 143.00 175.97 Z" />
<path fill="#000000" opacity="1.00" d=" M 45.12 182.19 C 60.38 178.47 76.15 177.97 91.74 176.65 C 94.49 176.81 97.25 176.93 100.01 176.99 C 102.67 177.02 105.34 177.02 108.00 177.00 C 117.00 177.01 126.00 177.02 135.00 177.00 C 137.66 177.02 140.33 177.02 143.00 176.99 C 146.07 176.99 149.13 176.82 152.22 176.76 C 153.40 176.90 154.59 177.04 155.77 177.19 C 158.88 177.75 162.06 178.05 165.23 177.79 C 178.00 179.09 191.00 179.84 203.36 183.56 C 205.88 184.49 210.06 185.28 209.02 188.90 C 196.97 195.65 182.62 195.59 169.27 197.33 C 166.39 197.25 163.47 196.70 160.73 197.72 C 159.50 197.84 158.27 197.95 157.03 198.03 C 154.35 198.00 151.67 198.00 149.00 198.01 C 146.33 197.98 143.66 197.97 141.00 197.99 C 136.59 198.58 131.59 196.72 127.50 199.00 L 119.41 199.00 C 113.70 197.63 107.82 198.00 102.00 197.99 C 98.98 197.99 95.98 198.03 92.97 198.18 C 91.23 198.18 87.76 198.20 86.02 198.20 C 85.32 198.11 83.92 197.94 83.22 197.85 C 80.42 197.39 77.61 197.08 74.78 197.20 C 62.74 195.75 50.47 195.03 38.87 191.22 C 36.62 190.61 34.24 188.79 35.06 186.18 C 38.01 184.02 41.69 183.28 45.12 182.19 Z" />
<path fill="#000000" opacity="0.51" d=" M 155.77 177.19 C 158.94 176.97 162.09 177.25 165.23 177.79 C 162.06 178.05 158.88 177.75 155.77 177.19 Z" />
<path fill="#000000" opacity="0.54" d=" M 74.78 197.20 C 77.61 197.08 80.42 197.39 83.22 197.85 C 80.39 197.88 77.57 197.54 74.78 197.20 Z" />
<path fill="#000000" opacity="0.51" d=" M 160.73 197.72 C 163.47 196.70 166.39 197.25 169.27 197.33 C 166.50 198.20 163.58 197.73 160.73 197.72 Z" />
<path fill="#000000" opacity="0.26" d=" M 86.02 198.20 C 87.76 198.20 91.23 198.18 92.97 198.18 L 92.87 199.00 L 86.15 199.00 L 86.02 198.20 Z" />
<path fill="#000000" opacity="0.55" d=" M 92.97 198.18 C 95.98 198.03 98.98 197.99 102.00 197.99 L 101.99 199.00 L 92.87 199.00 L 92.97 198.18 Z" />
<path fill="#000000" opacity="0.81" d=" M 102.00 197.99 C 107.82 198.00 113.70 197.63 119.41 199.00 L 101.99 199.00 L 102.00 197.99 Z" />
<path fill="#000000" opacity="0.80" d=" M 127.50 199.00 C 131.59 196.72 136.59 198.58 141.00 197.99 L 141.00 199.00 L 127.50 199.00 Z" />
<path fill="#000000" opacity="0.58" d=" M 141.00 197.99 C 143.66 197.97 146.33 197.98 149.00 198.01 L 149.01 199.00 L 141.00 199.00 L 141.00 197.99 Z" />
<path fill="#000000" opacity="0.30" d=" M 149.00 198.01 C 151.67 198.00 154.35 198.00 157.03 198.03 L 156.96 199.00 L 149.01 199.00 L 149.00 198.01 Z" />
</svg>
