<?xml version="1.0" encoding="UTF-8" ?>
<!DOCTYPE svg PUBLIC "-//W3C//DTD SVG 1.1//EN" "http://www.w3.org/Graphics/SVG/1.1/DTD/svg11.dtd">
<svg width="314pt" height="251pt" viewBox="0 0 314 251" version="1.1" xmlns="http://www.w3.org/2000/svg">
<path fill="#000000" opacity="1.00" d=" M 145.18 39.80 C 147.00 38.83 148.67 37.18 150.86 37.20 C 152.18 37.60 152.54 39.12 153.31 40.10 C 155.35 39.64 157.42 39.35 159.52 39.30 C 159.85 41.02 160.19 42.74 160.55 44.46 C 161.52 44.81 162.48 45.21 163.42 45.64 C 164.46 47.73 163.72 50.14 163.69 52.35 C 167.15 51.34 171.39 51.17 174.29 53.63 C 175.74 55.88 174.54 58.76 174.40 61.22 C 176.75 62.91 177.63 65.53 177.61 68.35 C 181.22 65.79 184.18 62.16 188.41 60.57 C 193.24 59.33 199.25 62.53 200.11 67.63 C 200.39 69.23 200.41 70.85 200.52 72.47 C 196.29 73.65 191.32 71.20 187.76 74.38 C 191.72 74.33 196.19 74.92 198.61 78.47 C 202.79 84.68 204.94 93.13 201.25 100.09 C 198.61 98.73 195.76 97.04 194.81 94.02 C 193.30 89.79 193.72 84.23 189.36 81.60 C 185.35 78.61 181.18 83.90 176.91 82.24 C 179.73 81.10 182.63 80.19 185.44 79.04 C 187.74 79.53 189.93 80.43 191.95 81.64 C 193.54 83.73 194.66 86.13 195.13 88.72 C 195.37 90.69 195.65 92.68 196.38 94.55 C 197.78 96.00 199.31 97.32 200.88 98.59 C 202.31 94.70 202.43 90.47 200.74 86.64 C 200.21 85.38 199.65 84.13 199.06 82.91 C 198.11 80.81 196.78 78.91 195.22 77.22 C 192.37 76.35 189.36 76.06 186.43 76.67 C 182.00 77.49 177.49 77.65 173.00 77.33 C 173.12 77.86 173.34 78.91 173.45 79.44 C 174.90 80.69 176.38 81.91 177.81 83.20 C 175.99 82.54 174.17 81.90 172.34 81.28 C 173.99 86.85 178.92 90.37 181.83 95.19 C 184.94 99.52 186.79 104.55 189.53 109.09 C 182.53 114.27 174.24 117.30 166.90 121.95 C 167.00 123.11 167.12 124.27 167.24 125.43 C 167.07 123.83 166.33 123.12 165.04 123.31 C 164.35 124.60 164.65 125.65 165.94 126.47 L 166.43 126.87 C 165.82 130.66 168.83 134.14 167.51 137.94 C 164.66 146.53 160.80 154.76 156.75 162.84 C 152.07 170.94 148.30 179.57 145.76 188.58 C 145.23 190.64 145.23 192.79 145.15 194.92 C 158.18 190.29 171.58 186.25 185.39 184.96 C 192.16 184.40 199.64 184.51 205.36 188.68 C 212.69 193.80 217.54 202.89 216.23 211.93 C 215.87 216.64 213.29 220.70 212.05 225.17 C 227.11 225.29 242.10 226.98 257.00 229.03 C 260.55 229.66 264.31 229.87 267.54 231.64 C 268.57 234.88 263.76 234.28 261.73 234.53 C 225.83 234.57 189.94 234.74 154.04 234.83 C 146.39 235.28 138.71 235.40 131.05 235.12 C 123.94 233.96 116.76 232.78 109.94 230.37 C 106.48 229.10 102.79 227.47 100.81 224.17 C 98.66 221.04 99.32 217.06 98.52 213.54 C 96.47 211.52 93.71 210.52 91.06 209.54 C 79.94 217.15 66.66 221.95 53.08 221.50 C 47.02 221.29 41.85 217.04 39.08 211.87 C 36.66 207.35 34.64 202.51 34.03 197.38 C 33.97 195.58 33.99 193.78 34.09 191.99 C 34.96 185.31 37.40 178.69 41.09 173.08 C 43.16 172.92 42.36 175.22 42.25 176.48 C 40.52 183.02 38.89 189.91 40.62 196.64 C 42.08 202.82 46.18 208.96 52.55 210.80 C 57.83 212.37 63.25 210.39 68.13 208.42 C 75.55 205.21 83.24 201.54 88.30 194.98 C 90.97 191.67 94.47 188.31 99.02 188.28 C 102.23 187.90 105.03 189.75 107.30 191.80 C 111.38 184.18 116.40 176.94 118.79 168.55 C 119.78 164.94 120.91 161.14 119.90 157.40 C 118.75 152.30 118.15 147.11 117.51 141.92 C 113.21 144.64 111.48 149.62 108.39 153.43 C 105.68 156.78 103.46 160.61 100.07 163.36 C 102.97 152.54 108.17 142.49 112.58 132.24 C 115.01 124.69 119.50 118.01 123.29 111.09 C 122.10 109.88 120.37 108.82 120.26 106.93 C 119.65 104.25 121.86 102.08 122.76 99.81 C 120.16 101.83 117.04 103.75 115.80 106.98 C 116.08 109.02 116.55 111.02 116.86 113.06 C 112.80 112.87 108.70 108.55 110.57 104.42 C 112.51 100.20 116.64 97.65 120.37 95.18 C 115.91 93.83 112.83 89.59 112.61 84.98 C 112.52 83.33 112.83 80.94 114.96 80.94 C 116.62 83.33 117.95 85.97 120.10 87.99 C 120.03 86.00 122.24 84.05 122.27 86.99 C 122.25 89.42 122.30 91.85 122.47 94.28 C 124.44 93.58 125.83 92.15 125.74 89.95 C 125.77 86.25 128.67 83.77 131.64 82.13 C 135.86 79.50 139.58 76.19 143.50 73.16 C 141.65 72.76 139.81 72.36 137.96 71.98 C 137.30 73.56 137.19 75.64 135.60 76.63 C 133.94 77.52 132.11 78.02 130.36 78.68 C 129.97 78.84 129.18 79.15 128.79 79.30 C 126.79 80.35 125.25 81.99 124.03 83.86 C 123.96 83.94 123.83 84.11 123.76 84.19 C 122.14 82.59 122.49 79.90 121.58 77.89 C 121.27 76.11 119.51 73.85 121.43 72.41 C 123.42 71.70 125.51 72.55 127.49 72.89 C 126.82 71.62 126.13 70.36 125.63 69.01 C 126.45 68.25 127.25 67.48 128.04 66.70 C 125.14 63.27 124.71 58.38 127.52 54.75 C 126.80 52.87 125.71 51.04 125.63 48.99 C 126.47 45.67 130.41 45.38 133.21 45.05 C 135.43 42.30 138.10 39.68 141.56 38.60 C 142.90 38.21 144.01 39.39 145.18 39.80 M 147.79 39.05 L 148.25 39.80 C 147.71 40.18 146.62 40.95 146.08 41.33 L 145.30 40.74 C 144.45 41.85 143.57 42.94 142.74 44.06 L 144.04 44.03 C 144.15 46.14 144.29 48.25 144.44 50.36 C 145.85 48.47 146.93 46.37 146.95 43.96 L 146.85 42.01 C 147.25 42.84 148.06 44.48 148.47 45.30 C 149.70 44.77 150.94 44.28 152.18 43.76 C 151.87 42.11 151.57 40.45 151.26 38.80 C 150.39 38.86 148.65 38.99 147.79 39.05 M 137.01 43.06 C 136.43 43.92 135.75 44.70 135.13 45.53 C 137.95 44.22 142.22 43.60 143.05 40.06 C 140.91 40.76 138.86 41.76 137.01 43.06 M 152.90 43.44 C 154.96 44.10 156.94 44.98 158.84 46.01 C 158.19 44.18 159.34 39.78 156.03 40.88 C 154.37 40.96 153.25 41.83 152.90 43.44 M 139.10 47.00 C 138.06 49.23 135.77 51.46 136.78 54.10 C 137.68 54.37 138.58 54.65 139.48 54.95 C 140.10 54.13 140.72 53.31 141.35 52.50 C 141.46 51.91 141.66 50.73 141.76 50.14 C 142.34 48.29 143.15 46.36 142.59 44.40 C 140.77 43.45 139.87 45.81 139.10 47.00 M 148.97 45.98 L 150.16 46.97 C 147.42 47.59 148.37 50.33 149.90 51.66 C 151.27 54.07 152.15 56.70 152.79 59.38 C 152.28 61.94 152.66 64.51 153.39 66.98 C 153.78 68.81 154.33 70.60 154.88 72.39 C 153.67 73.85 152.44 75.29 151.32 76.81 C 148.78 77.70 146.62 79.36 145.15 81.62 L 144.94 81.62 C 144.74 83.13 144.76 84.65 144.56 86.16 C 145.63 91.36 148.86 98.38 155.26 97.46 C 154.55 93.76 152.47 90.62 150.45 87.52 C 149.15 85.84 149.73 83.68 149.89 81.76 C 151.60 79.87 153.69 78.38 155.72 76.88 L 155.71 76.78 C 157.62 75.57 159.42 74.10 160.46 72.05 C 158.78 69.10 155.58 67.11 154.85 63.56 C 155.85 60.88 158.18 58.02 156.38 55.16 C 155.46 53.51 154.53 51.85 153.56 50.24 C 155.06 51.08 156.44 52.11 157.82 53.14 C 157.14 50.69 157.51 47.41 155.09 45.84 C 153.19 44.69 150.94 45.71 148.97 45.98 M 158.21 47.13 C 158.50 48.03 158.79 48.93 159.09 49.83 C 159.14 51.17 159.19 52.51 159.24 53.86 C 159.95 53.95 161.37 54.13 162.08 54.22 C 162.20 52.49 162.31 50.76 162.45 49.03 C 162.44 48.09 162.43 47.16 162.43 46.23 C 161.03 46.56 159.62 46.86 158.21 47.13 M 127.95 48.11 C 126.91 49.58 128.07 51.17 128.47 52.63 C 128.94 52.63 129.89 52.64 130.36 52.64 C 130.90 50.18 132.42 48.19 134.03 46.32 C 132.00 46.86 129.82 47.09 127.95 48.11 M 133.40 49.37 C 133.34 52.01 132.63 56.17 136.02 56.97 C 135.56 56.52 134.65 55.62 134.19 55.16 C 134.68 51.96 136.58 49.28 138.07 46.48 C 136.49 47.38 134.60 47.94 133.40 49.37 M 145.38 50.98 C 144.81 52.56 145.36 53.12 147.04 52.65 C 147.60 51.06 147.05 50.51 145.38 50.98 M 143.10 53.15 C 142.95 53.57 142.67 54.42 142.53 54.85 C 140.27 56.67 137.38 57.33 134.94 58.83 C 134.30 58.38 133.02 57.50 132.39 57.06 C 132.91 61.00 134.06 65.12 137.00 67.97 C 139.04 70.23 142.14 70.88 144.95 71.61 L 146.02 72.54 C 145.39 72.61 144.13 72.76 143.50 72.84 C 143.94 73.91 144.44 74.96 144.98 75.98 C 145.39 76.00 146.20 76.02 146.61 76.03 C 147.27 76.04 148.58 76.05 149.23 76.06 C 151.44 74.69 152.97 72.60 153.15 69.94 C 151.91 70.68 150.67 71.41 149.46 72.18 L 148.43 72.29 C 148.20 70.73 149.30 68.12 146.90 67.96 C 147.21 67.83 147.82 67.57 148.13 67.44 C 148.63 67.54 149.64 67.74 150.14 67.83 C 150.83 64.59 150.61 61.27 150.48 57.99 C 149.87 60.91 148.10 63.95 144.93 64.47 C 143.03 64.40 140.32 65.62 139.26 63.41 C 140.23 63.39 141.19 63.41 142.16 63.46 C 143.44 61.59 144.86 59.83 146.27 58.06 C 147.41 57.31 148.60 56.59 149.95 56.28 C 149.52 55.30 149.09 54.31 148.66 53.33 C 147.78 53.71 146.91 54.08 146.03 54.46 C 145.05 54.02 144.08 53.58 143.10 53.15 M 162.68 53.44 C 163.46 54.60 164.95 56.14 166.42 55.36 C 167.50 56.58 168.99 57.54 169.70 59.04 C 169.43 60.63 168.43 61.96 167.77 63.39 C 169.36 62.74 170.97 62.12 172.59 61.50 C 172.95 59.54 173.66 57.59 173.49 55.57 C 172.74 54.10 170.93 53.43 169.37 53.49 C 167.14 53.35 164.91 53.34 162.68 53.44 M 128.29 64.51 L 128.81 64.54 C 130.81 67.37 133.63 69.90 134.00 73.55 L 132.57 74.58 C 133.19 71.88 129.83 66.06 127.00 69.33 L 128.40 69.49 C 128.73 71.03 129.07 72.58 129.41 74.12 C 128.76 74.13 127.45 74.15 126.79 74.16 C 125.40 74.05 123.05 72.53 122.23 74.27 C 122.50 76.31 123.40 78.20 124.05 80.14 C 124.90 79.62 125.76 79.10 126.62 78.58 L 126.65 77.98 C 129.37 77.25 132.07 76.44 134.76 75.56 C 135.91 71.43 134.08 67.06 130.62 64.66 C 130.56 61.38 130.68 58.10 130.69 54.82 C 126.82 56.57 126.56 61.09 128.29 64.51 M 159.55 55.22 C 158.72 57.91 157.83 60.59 156.95 63.27 L 156.32 63.74 C 157.47 67.20 160.38 69.69 164.06 70.02 C 163.52 68.69 162.92 67.39 162.36 66.07 C 164.29 63.77 166.27 61.50 168.26 59.25 C 167.33 58.53 166.41 57.81 165.48 57.09 L 165.07 57.37 C 163.25 56.62 161.41 55.89 159.55 55.22 M 147.47 59.37 C 146.09 59.96 144.37 61.37 144.39 62.96 C 145.95 63.56 149.15 60.46 147.47 59.37 M 187.77 62.88 L 186.90 62.66 C 184.47 65.15 181.79 67.37 179.19 69.67 C 176.59 70.80 175.74 73.51 174.88 75.96 C 177.96 75.36 180.99 74.57 183.95 73.56 C 185.55 72.99 187.16 72.46 188.77 71.93 C 188.77 71.34 188.76 70.16 188.76 69.57 C 187.86 68.98 186.96 68.39 186.06 67.81 C 186.10 66.32 186.64 65.05 188.01 64.32 C 188.80 65.37 189.70 66.32 190.60 67.27 C 190.48 68.48 190.36 69.68 190.23 70.89 C 192.70 71.23 195.21 71.44 197.71 71.10 L 198.79 71.84 C 198.78 69.53 198.60 67.22 198.37 64.91 C 197.82 64.70 196.73 64.27 196.18 64.06 C 193.77 62.06 190.63 61.65 187.77 62.88 M 163.76 66.43 C 165.07 68.87 167.62 69.83 170.29 69.66 C 171.19 71.34 172.57 72.68 173.92 74.00 C 175.73 70.56 176.63 66.35 174.68 62.77 C 170.91 63.58 167.27 64.86 163.76 66.43 M 187.23 66.27 C 186.75 67.55 188.58 69.28 189.82 68.67 C 190.37 67.37 188.47 65.57 187.23 66.27 M 151.01 69.06 C 150.51 69.63 150.51 69.63 151.01 69.06 C 151.55 68.53 151.55 68.53 151.01 69.06 M 159.54 75.09 C 161.74 74.20 163.76 72.91 165.34 71.13 C 162.08 69.65 160.81 72.77 159.54 75.09 M 159.54 77.99 C 159.51 80.52 159.67 83.04 159.95 85.56 C 165.95 84.38 169.62 78.29 169.34 72.43 C 165.80 73.48 161.59 74.67 159.54 77.99 M 170.18 72.40 C 169.87 75.78 169.40 79.19 167.84 82.25 C 166.29 83.07 165.08 84.39 163.52 85.18 C 161.88 85.93 158.93 85.56 159.72 88.26 C 163.09 88.56 166.59 88.08 169.65 86.61 C 171.01 85.02 170.98 82.78 171.46 80.85 C 171.33 77.99 171.38 75.06 170.18 72.40 M 139.70 79.46 C 139.51 80.06 139.14 81.26 138.96 81.86 C 136.19 83.95 133.16 85.84 131.36 88.92 C 132.12 89.86 132.88 90.79 133.65 91.72 C 134.89 92.61 136.15 93.47 137.41 94.33 C 139.13 103.03 136.27 111.96 130.66 118.67 L 129.45 118.48 L 129.46 119.65 C 125.65 122.95 122.37 127.04 120.82 131.90 C 119.77 134.85 119.45 138.01 119.85 141.11 C 120.44 145.51 120.36 150.03 121.63 154.32 C 123.27 159.16 122.10 164.32 120.90 169.12 C 118.23 179.35 111.67 187.87 107.23 197.33 C 103.92 204.02 101.17 211.19 101.30 218.77 C 102.11 221.27 103.11 223.97 105.48 225.41 C 110.01 228.20 115.26 229.58 120.43 230.68 L 120.12 231.03 C 122.96 231.64 125.78 232.47 128.70 232.53 C 133.76 233.51 138.94 233.31 144.06 233.00 C 149.88 232.60 155.75 232.90 161.54 232.05 C 164.72 232.24 167.87 231.60 171.03 231.42 C 182.17 230.79 193.13 228.55 203.96 225.98 C 205.62 225.51 207.57 225.15 208.56 223.56 C 212.78 217.59 214.86 209.68 212.51 202.57 C 211.09 198.09 207.98 194.45 204.64 191.27 C 199.48 187.11 192.64 186.76 186.31 187.34 C 179.42 187.36 172.70 189.09 166.03 190.66 C 161.46 191.90 156.77 192.81 152.40 194.70 L 152.24 194.23 C 149.85 195.03 147.45 195.82 145.08 196.66 C 145.72 199.99 146.76 203.23 147.75 206.48 C 144.63 204.59 144.40 200.70 143.10 197.65 C 143.09 184.31 149.25 172.01 155.62 160.64 C 159.81 151.59 165.82 142.80 165.65 132.40 C 164.98 132.45 163.65 132.53 162.99 132.57 C 159.77 129.46 157.75 125.32 157.95 120.77 C 157.02 120.45 156.09 120.13 155.16 119.81 L 154.97 118.02 L 154.12 119.22 C 154.89 116.18 154.54 113.05 153.89 110.03 C 153.14 106.46 154.10 102.88 154.82 99.40 C 153.62 99.18 152.43 98.96 151.24 98.74 C 148.73 97.04 146.59 94.87 144.83 92.40 L 143.92 92.61 C 142.50 91.26 141.29 89.72 140.27 88.05 C 140.53 85.84 140.48 83.50 141.68 81.52 C 141.80 84.79 140.79 88.67 143.89 90.93 C 143.10 86.99 142.83 82.94 144.02 79.06 C 142.59 79.27 141.13 79.26 139.70 79.46 M 151.08 86.26 C 152.04 87.47 152.91 88.76 153.88 89.97 C 155.14 88.94 156.85 88.29 157.74 86.87 C 158.23 84.47 157.96 82.01 157.76 79.59 C 153.53 78.49 150.94 82.52 151.08 86.26 M 114.32 82.83 C 114.34 84.68 114.50 86.53 114.70 88.38 C 116.25 90.72 118.11 92.96 120.96 93.70 C 120.84 92.27 120.71 90.84 120.58 89.41 C 119.04 88.49 117.53 87.51 116.25 86.24 C 115.61 85.10 114.97 83.96 114.32 82.83 M 126.89 91.22 C 130.03 88.75 132.15 85.31 134.70 82.29 C 130.62 83.44 126.75 86.63 126.89 91.22 M 168.32 89.95 C 169.13 90.55 169.14 92.11 170.23 92.36 C 171.72 95.00 173.35 97.59 175.36 99.87 C 174.50 100.96 173.34 101.85 172.73 103.11 C 172.32 103.16 171.50 103.27 171.09 103.32 C 170.72 102.92 169.99 102.13 169.62 101.74 C 171.20 101.86 172.62 101.42 173.87 100.41 C 171.41 97.73 169.41 94.69 167.21 91.81 C 166.08 89.77 163.56 90.77 161.70 90.54 C 157.60 97.70 153.63 107.01 158.23 114.84 C 161.34 110.23 165.60 106.63 169.79 103.05 L 170.55 103.86 C 166.85 107.32 162.73 110.38 159.81 114.58 L 159.31 114.60 C 159.92 115.74 160.44 116.93 160.92 118.14 C 162.30 119.19 163.68 120.25 165.02 121.36 C 167.21 120.03 169.35 118.61 171.41 117.09 C 170.74 115.99 170.06 114.90 169.37 113.81 C 170.52 114.87 171.77 115.82 173.00 116.78 C 177.50 114.10 182.16 111.69 186.86 109.39 C 185.98 108.78 185.09 108.17 184.22 107.57 C 184.40 107.32 184.77 106.83 184.96 106.58 L 185.59 105.08 C 184.46 100.76 180.98 97.65 178.89 93.82 L 178.81 93.83 C 177.12 91.03 174.99 88.53 172.93 86.01 C 171.58 87.54 169.99 88.80 168.32 89.95 M 154.78 91.29 L 154.84 91.50 C 155.33 92.75 155.82 93.99 156.32 95.24 C 157.85 93.22 159.28 91.02 158.78 88.34 C 157.35 89.19 155.84 89.98 154.78 91.29 M 124.41 95.12 L 124.38 95.53 C 121.71 96.47 119.19 97.77 116.86 99.37 C 114.31 101.40 112.18 103.95 111.33 107.17 C 112.43 108.96 113.85 110.53 115.49 111.84 C 115.20 110.88 114.64 108.96 114.35 108.00 C 113.92 104.80 116.81 102.67 118.76 100.64 C 120.68 100.09 122.39 99.00 124.20 98.20 C 127.07 97.24 129.89 96.16 132.69 95.04 C 131.69 93.57 130.69 92.11 129.70 90.64 C 128.08 92.29 126.34 93.83 124.41 95.12 M 130.21 97.84 C 126.33 98.46 123.19 101.47 121.57 104.92 C 120.98 107.01 122.77 108.47 123.80 110.01 C 124.24 109.38 125.11 108.10 125.55 107.47 C 127.14 108.79 128.00 110.66 128.67 112.57 C 132.30 107.48 133.94 101.31 135.15 95.26 C 133.44 95.93 131.36 96.26 130.21 97.84 M 128.04 115.05 C 126.80 115.78 127.48 117.03 128.13 117.93 C 132.81 113.91 135.81 107.77 135.75 101.57 C 134.04 106.49 131.94 111.43 128.04 115.05 M 121.68 116.02 C 122.06 116.54 122.48 117.03 122.93 117.50 C 124.16 114.91 125.89 112.59 127.04 109.95 C 124.20 110.75 123.47 114.03 121.68 116.02 M 154.81 117.59 C 156.36 118.66 157.97 119.65 159.54 120.69 C 159.24 124.40 160.51 128.12 163.28 130.66 C 163.50 127.78 163.35 124.89 163.27 122.01 C 161.52 120.55 159.87 118.97 158.36 117.27 C 157.17 117.36 155.99 117.46 154.81 117.59 M 120.14 118.00 C 119.23 121.47 117.62 124.69 116.39 128.05 C 120.26 126.17 122.15 121.76 123.15 117.81 C 122.40 117.86 120.89 117.95 120.14 118.00 M 126.17 118.28 C 124.62 121.32 129.51 118.37 126.17 118.28 M 116.23 139.12 C 119.20 137.56 117.77 133.24 118.41 130.51 C 117.31 133.27 116.52 136.16 116.23 139.12 M 111.10 139.20 C 108.72 144.82 106.20 150.39 104.05 156.10 C 108.03 152.39 110.64 147.53 113.64 143.06 C 115.01 139.07 116.50 134.82 115.36 130.58 C 113.83 133.35 111.79 136.17 111.10 139.20 M 116.08 140.03 C 116.23 143.37 119.06 138.46 116.08 140.03 M 37.36 183.90 C 35.91 188.39 34.60 193.22 35.76 197.93 C 35.94 202.82 38.66 207.17 40.69 211.51 C 43.14 215.10 46.59 218.40 51.02 219.20 C 56.42 220.29 61.78 218.38 67.18 218.39 C 70.25 217.49 73.26 216.42 76.25 215.29 C 77.90 214.56 79.55 213.85 81.21 213.15 C 84.22 211.62 86.92 209.50 90.06 208.24 C 93.55 207.45 96.44 210.06 99.24 211.68 C 100.38 206.73 102.14 201.94 104.48 197.43 C 105.04 195.88 106.51 194.14 105.49 192.47 C 102.47 189.57 97.33 189.52 94.07 192.06 C 91.26 194.25 89.28 197.28 86.73 199.74 C 83.46 203.02 79.33 205.22 75.30 207.41 C 73.14 208.48 70.98 209.54 68.85 210.68 C 67.34 210.97 65.89 211.50 64.42 211.97 L 64.28 212.37 C 57.43 214.70 49.48 213.40 44.42 208.02 C 41.41 204.23 38.99 199.82 38.46 194.94 C 37.49 188.70 39.41 182.61 40.55 176.55 C 39.24 178.84 37.59 181.20 37.36 183.90 Z" />
<path fill="#3e534e" opacity="1.00" d=" M 147.79 39.05 C 148.65 38.99 150.39 38.86 151.26 38.80 C 151.57 40.45 151.87 42.11 152.18 43.76 C 150.94 44.28 149.70 44.77 148.47 45.30 C 148.06 44.48 147.25 42.84 146.85 42.01 L 146.95 43.96 C 146.22 43.98 144.77 44.01 144.04 44.03 L 142.74 44.06 C 143.57 42.94 144.45 41.85 145.30 40.74 L 146.08 41.33 C 147.15 42.90 149.79 41.32 148.25 39.80 L 147.79 39.05 Z" />
<path fill="#ffffcb" opacity="1.00" d=" M 137.01 43.06 C 138.86 41.76 140.91 40.76 143.05 40.06 C 142.22 43.60 137.95 44.22 135.13 45.53 C 135.75 44.70 136.43 43.92 137.01 43.06 Z" />
<path fill="#a1ac7a" opacity="1.00" d=" M 146.08 41.33 C 146.62 40.95 147.71 40.18 148.25 39.80 C 149.79 41.32 147.15 42.90 146.08 41.33 Z" />
<path fill="#8c9e77" opacity="1.00" d=" M 152.90 43.44 C 153.25 41.83 154.37 40.96 156.03 40.88 C 159.34 39.78 158.19 44.18 158.84 46.01 C 156.94 44.98 154.96 44.10 152.90 43.44 Z" />
<path fill="#8e9e72" opacity="1.00" d=" M 139.10 47.00 C 139.87 45.81 140.77 43.45 142.59 44.40 C 143.15 46.36 142.34 48.29 141.76 50.14 C 141.66 50.73 141.46 51.91 141.35 52.50 C 140.72 53.31 140.10 54.13 139.48 54.95 C 138.58 54.65 137.68 54.37 136.78 54.10 C 135.77 51.46 138.06 49.23 139.10 47.00 Z" />
<path fill="#8c9e77" opacity="1.00" d=" M 144.04 44.03 C 144.77 44.01 146.22 43.98 146.95 43.96 C 146.93 46.37 145.85 48.47 144.44 50.36 C 144.29 48.25 144.15 46.14 144.04 44.03 Z" />
<path fill="#365960" opacity="1.00" d=" M 148.97 45.98 C 150.94 45.71 153.19 44.69 155.09 45.84 C 157.51 47.41 157.14 50.69 157.82 53.14 C 156.44 52.11 155.06 51.08 153.56 50.24 C 152.72 49.36 151.85 48.52 150.98 47.68 C 150.78 47.51 150.37 47.15 150.16 46.97 L 148.97 45.98 Z" />
<path fill="#9dab7a" opacity="1.00" d=" M 158.21 47.13 C 159.62 46.86 161.03 46.56 162.43 46.23 C 162.43 47.16 162.44 48.09 162.45 49.03 C 161.32 49.29 160.21 49.56 159.09 49.83 C 158.79 48.93 158.50 48.03 158.21 47.13 Z" />
<path fill="#c1c998" opacity="1.00" d=" M 127.95 48.11 C 129.82 47.09 132.00 46.86 134.03 46.32 C 132.42 48.19 130.90 50.18 130.36 52.64 C 129.89 52.64 128.94 52.63 128.47 52.63 C 128.07 51.17 126.91 49.58 127.95 48.11 Z" />
<path fill="#cbd7a2" opacity="1.00" d=" M 133.40 49.37 C 134.60 47.94 136.49 47.38 138.07 46.48 C 136.58 49.28 134.68 51.96 134.19 55.16 C 134.65 55.62 135.56 56.52 136.02 56.97 C 132.63 56.17 133.34 52.01 133.40 49.37 Z" />
<path fill="#ffffcb" opacity="1.00" d=" M 149.90 51.66 C 148.37 50.33 147.42 47.59 150.16 46.97 C 150.37 47.15 150.78 47.51 150.98 47.68 C 150.62 49.01 150.26 50.33 149.90 51.66 Z" />
<path fill="#919f76" opacity="1.00" d=" M 150.98 47.68 C 151.85 48.52 152.72 49.36 153.56 50.24 C 154.53 51.85 155.46 53.51 156.38 55.16 C 155.23 56.60 154.02 58.00 152.79 59.38 C 152.15 56.70 151.27 54.07 149.90 51.66 C 150.26 50.33 150.62 49.01 150.98 47.68 Z" />
<path fill="#2c4c57" opacity="1.00" d=" M 159.09 49.83 C 160.21 49.56 161.32 49.29 162.45 49.03 C 162.31 50.76 162.20 52.49 162.08 54.22 C 161.37 54.13 159.95 53.95 159.24 53.86 C 159.19 52.51 159.14 51.17 159.09 49.83 Z" />
<path fill="#3f6961" opacity="1.00" d=" M 145.38 50.98 C 147.05 50.51 147.60 51.06 147.04 52.65 C 145.36 53.12 144.81 52.56 145.38 50.98 Z" />
<path fill="#ebc29f" opacity="1.00" d=" M 143.10 53.15 C 144.08 53.58 145.05 54.02 146.03 54.46 C 146.91 54.08 147.78 53.71 148.66 53.33 C 149.09 54.31 149.52 55.30 149.95 56.28 C 148.60 56.59 147.41 57.31 146.27 58.06 C 145.03 56.98 143.79 55.91 142.53 54.85 C 142.67 54.42 142.95 53.57 143.10 53.15 Z" />
<path fill="#aebe92" opacity="1.00" d=" M 162.68 53.44 C 164.91 53.34 167.14 53.35 169.37 53.49 C 168.37 54.10 167.39 54.72 166.42 55.36 C 164.95 56.14 163.46 54.60 162.68 53.44 Z" />
<path fill="#294d5a" opacity="1.00" d=" M 169.37 53.49 C 170.93 53.43 172.74 54.10 173.49 55.57 C 173.66 57.59 172.95 59.54 172.59 61.50 C 170.97 62.12 169.36 62.74 167.77 63.39 C 168.43 61.96 169.43 60.63 169.70 59.04 C 168.99 57.54 167.50 56.58 166.42 55.36 C 167.39 54.72 168.37 54.10 169.37 53.49 Z" />
<path fill="#aebe92" opacity="1.00" d=" M 128.29 64.51 C 126.56 61.09 126.82 56.57 130.69 54.82 C 130.68 58.10 130.56 61.38 130.62 64.66 C 130.16 64.63 129.26 64.57 128.81 64.54 L 128.29 64.51 Z" />
<path fill="#fce6bb" opacity="1.00" d=" M 142.53 54.85 C 143.79 55.91 145.03 56.98 146.27 58.06 C 144.86 59.83 143.44 61.59 142.16 63.46 C 141.19 63.41 140.23 63.39 139.26 63.41 C 140.32 65.62 143.03 64.40 144.93 64.47 C 148.10 63.95 149.87 60.91 150.48 57.99 C 150.61 61.27 150.83 64.59 150.14 67.83 C 149.64 67.74 148.63 67.54 148.13 67.44 C 147.82 67.57 147.21 67.83 146.90 67.96 C 145.53 68.51 144.17 69.10 142.82 69.70 C 143.35 70.18 144.42 71.13 144.95 71.61 C 142.14 70.88 139.04 70.23 137.00 67.97 C 134.06 65.12 132.91 61.00 132.39 57.06 C 133.02 57.50 134.30 58.38 134.94 58.83 C 137.38 57.33 140.27 56.67 142.53 54.85 Z" />
<path fill="#2c4d58" opacity="1.00" d=" M 156.38 55.16 C 158.18 58.02 155.85 60.88 154.85 63.56 C 154.36 64.70 153.87 65.84 153.39 66.98 C 152.66 64.51 152.28 61.94 152.79 59.38 C 154.02 58.00 155.23 56.60 156.38 55.16 Z" />
<path fill="#d1d7a7" opacity="1.00" d=" M 159.55 55.22 C 161.41 55.89 163.25 56.62 165.07 57.37 C 162.29 59.24 159.59 61.22 156.95 63.27 C 157.83 60.59 158.72 57.91 159.55 55.22 Z" />
<path fill="#264759" opacity="1.00" d=" M 165.07 57.37 L 165.48 57.09 C 166.41 57.81 167.33 58.53 168.26 59.25 C 166.27 61.50 164.29 63.77 162.36 66.07 C 162.92 67.39 163.52 68.69 164.06 70.02 C 160.38 69.69 157.47 67.20 156.32 63.74 L 156.95 63.27 C 159.59 61.22 162.29 59.24 165.07 57.37 Z" />
<path fill="#e54566" opacity="1.00" d=" M 147.47 59.37 C 149.15 60.46 145.95 63.56 144.39 62.96 C 144.37 61.37 146.09 59.96 147.47 59.37 Z" />
<path fill="#ffffcb" opacity="1.00" d=" M 187.77 62.88 C 190.63 61.65 193.77 62.06 196.18 64.06 C 195.06 64.34 193.95 64.63 192.82 64.86 C 191.19 64.07 189.53 63.34 187.77 62.88 Z" />
<path fill="#829974" opacity="1.00" d=" M 163.76 66.43 C 167.27 64.86 170.91 63.58 174.68 62.77 C 172.86 64.35 171.03 65.91 169.17 67.44 C 169.53 68.18 169.91 68.92 170.29 69.66 C 167.62 69.83 165.07 68.87 163.76 66.43 Z" />
<path fill="#4d776a" opacity="1.00" d=" M 174.68 62.77 C 176.63 66.35 175.73 70.56 173.92 74.00 C 172.57 72.68 171.19 71.34 170.29 69.66 C 169.91 68.92 169.53 68.18 169.17 67.44 C 171.03 65.91 172.86 64.35 174.68 62.77 Z" />
<path fill="#466864" opacity="1.00" d=" M 179.19 69.67 C 181.79 67.37 184.47 65.15 186.90 62.66 C 187.18 63.07 187.74 63.91 188.01 64.32 C 186.64 65.05 186.10 66.32 186.06 67.81 C 186.96 68.39 187.86 68.98 188.76 69.57 C 188.76 70.16 188.77 71.34 188.77 71.93 C 187.16 72.46 185.55 72.99 183.95 73.56 C 182.36 72.26 180.77 70.97 179.19 69.67 Z" />
<path fill="#799272" opacity="1.00" d=" M 186.90 62.66 L 187.77 62.88 C 189.53 63.34 191.19 64.07 192.82 64.86 C 194.49 66.91 195.99 69.09 197.71 71.10 C 195.21 71.44 192.70 71.23 190.23 70.89 C 190.36 69.68 190.48 68.48 190.60 67.27 C 189.70 66.32 188.80 65.37 188.01 64.32 C 187.74 63.91 187.18 63.07 186.90 62.66 Z" />
<path fill="#436b66" opacity="1.00" d=" M 153.39 66.98 C 153.87 65.84 154.36 64.70 154.85 63.56 C 155.58 67.11 158.78 69.10 160.46 72.05 C 159.42 74.10 157.62 75.57 155.71 76.78 C 155.61 76.09 155.42 74.72 155.32 74.03 C 155.21 73.62 154.99 72.80 154.88 72.39 C 154.33 70.60 153.78 68.81 153.39 66.98 Z" />
<path fill="#96a678" opacity="1.00" d=" M 192.82 64.86 C 193.95 64.63 195.06 64.34 196.18 64.06 C 196.73 64.27 197.82 64.70 198.37 64.91 C 198.60 67.22 198.78 69.53 198.79 71.84 L 197.71 71.10 C 195.99 69.09 194.49 66.91 192.82 64.86 Z" />
<path fill="#365960" opacity="1.00" d=" M 128.81 64.54 C 129.26 64.57 130.16 64.63 130.62 64.66 C 134.08 67.06 135.91 71.43 134.76 75.56 C 132.07 76.44 129.37 77.25 126.65 77.98 C 126.68 77.16 126.76 75.52 126.79 74.70 C 128.15 75.03 129.50 75.39 130.84 75.76 C 131.31 75.20 131.88 74.81 132.57 74.58 L 134.00 73.55 C 133.63 69.90 130.81 67.37 128.81 64.54 Z" />
<path fill="#af2f50" opacity="1.00" d=" M 187.23 66.27 C 188.47 65.57 190.37 67.37 189.82 68.67 C 188.58 69.28 186.75 67.55 187.23 66.27 Z" />
<path fill="#8c9e77" opacity="1.00" d=" M 127.00 69.33 C 129.83 66.06 133.19 71.88 132.57 74.58 C 131.88 74.81 131.31 75.20 130.84 75.76 C 130.67 73.75 130.60 71.72 130.26 69.72 C 129.79 69.66 128.86 69.55 128.40 69.49 L 127.00 69.33 Z" />
<path fill="#141310" opacity="0.83" d=" M 142.82 69.70 C 144.17 69.10 145.53 68.51 146.90 67.96 C 149.30 68.12 148.20 70.73 148.43 72.29 C 147.83 72.35 146.62 72.48 146.02 72.54 L 144.95 71.61 C 144.42 71.13 143.35 70.18 142.82 69.70 Z" />
<path fill="#6d7e72" opacity="1.00" d=" M 151.01 69.06 C 151.55 68.53 151.55 68.53 151.01 69.06 Z" />
<path fill="#6d786b" opacity="1.00" d=" M 151.01 69.06 C 150.51 69.63 150.51 69.63 151.01 69.06 Z" />
<path fill="#221e37" opacity="1.00" d=" M 128.40 69.49 C 128.86 69.55 129.79 69.66 130.26 69.72 C 130.60 71.72 130.67 73.75 130.84 75.76 C 129.50 75.39 128.15 75.03 126.79 74.70 L 126.79 74.16 C 127.45 74.15 128.76 74.13 129.41 74.12 C 129.07 72.58 128.73 71.03 128.40 69.49 Z" />
<path fill="#93422f" opacity="1.00" d=" M 149.46 72.18 C 150.67 71.41 151.91 70.68 153.15 69.94 C 152.97 72.60 151.44 74.69 149.23 76.06 C 149.32 74.76 149.40 73.47 149.46 72.18 Z" />
<path fill="#2b4e5e" opacity="1.00" d=" M 174.88 75.96 C 175.74 73.51 176.59 70.80 179.19 69.67 C 180.77 70.97 182.36 72.26 183.95 73.56 C 180.99 74.57 177.96 75.36 174.88 75.96 Z" />
<path fill="#b7374a" opacity="1.00" d=" M 159.54 75.09 C 160.81 72.77 162.08 69.65 165.34 71.13 C 163.76 72.91 161.74 74.20 159.54 75.09 Z" />
<path fill="#28495a" opacity="1.00" d=" M 137.96 71.98 C 139.81 72.36 141.65 72.76 143.50 73.16 C 139.58 76.19 135.86 79.50 131.64 82.13 C 131.21 80.98 130.78 79.83 130.36 78.68 C 132.11 78.02 133.94 77.52 135.60 76.63 C 137.19 75.64 137.30 73.56 137.96 71.98 Z" />
<path fill="#aba344" opacity="1.00" d=" M 143.50 72.84 C 144.13 72.76 145.39 72.61 146.02 72.54 C 146.62 72.48 147.83 72.35 148.43 72.29 L 149.46 72.18 C 149.40 73.47 149.32 74.76 149.23 76.06 C 148.58 76.05 147.27 76.04 146.61 76.03 C 147.50 74.70 147.36 73.67 146.19 72.93 C 144.94 73.51 144.53 74.53 144.98 75.98 C 144.44 74.96 143.94 73.91 143.50 72.84 Z" />
<path fill="#829974" opacity="1.00" d=" M 122.23 74.27 C 123.05 72.53 125.40 74.05 126.79 74.16 L 126.79 74.70 C 126.76 75.52 126.68 77.16 126.65 77.98 L 126.62 78.58 C 125.76 79.10 124.90 79.62 124.05 80.14 C 123.40 78.20 122.50 76.31 122.23 74.27 Z" />
<path fill="#f3f2d4" opacity="1.00" d=" M 144.98 75.98 C 144.53 74.53 144.94 73.51 146.19 72.93 C 147.36 73.67 147.50 74.70 146.61 76.03 C 146.20 76.02 145.39 76.00 144.98 75.98 Z" />
<path fill="#9dab7a" opacity="1.00" d=" M 154.88 72.39 C 154.99 72.80 155.21 73.62 155.32 74.03 C 155.42 74.72 155.61 76.09 155.71 76.78 L 155.72 76.88 C 153.69 78.38 151.60 79.87 149.89 81.76 C 148.93 82.91 148.06 84.12 147.17 85.32 C 146.52 85.53 145.21 85.95 144.56 86.16 C 144.76 84.65 144.74 83.13 144.94 81.62 L 145.15 81.62 C 145.66 81.63 146.69 81.63 147.20 81.64 C 148.79 80.23 150.11 78.55 151.32 76.81 C 152.44 75.29 153.67 73.85 154.88 72.39 Z" />
<path fill="#e2465f" opacity="1.00" d=" M 159.54 77.99 C 161.59 74.67 165.80 73.48 169.34 72.43 C 166.79 76.00 163.41 78.83 159.80 81.27 C 159.73 80.45 159.60 78.81 159.54 77.99 Z" />
<path fill="#90285e" opacity="1.00" d=" M 169.34 72.43 C 169.62 78.29 165.95 84.38 159.95 85.56 C 159.67 83.04 159.51 80.52 159.54 77.99 C 159.60 78.81 159.73 80.45 159.80 81.27 C 163.41 78.83 166.79 76.00 169.34 72.43 Z" />
<path fill="#3b3548" opacity="1.00" d=" M 170.18 72.40 C 171.38 75.06 171.33 77.99 171.46 80.85 C 170.24 81.29 169.03 81.76 167.84 82.25 C 169.40 79.19 169.87 75.78 170.18 72.40 Z" />
<path fill="#ffffcb" opacity="1.00" d=" M 145.15 81.62 C 146.62 79.36 148.78 77.70 151.32 76.81 C 150.11 78.55 148.79 80.23 147.20 81.64 C 146.69 81.63 145.66 81.63 145.15 81.62 Z" />
<path fill="#264759" opacity="1.00" d=" M 173.00 77.33 C 177.49 77.65 182.00 77.49 186.43 76.67 C 186.18 77.26 185.69 78.45 185.44 79.04 C 182.63 80.19 179.73 81.10 176.91 82.24 L 177.81 83.20 C 176.38 81.91 174.90 80.69 173.45 79.44 C 173.34 78.91 173.12 77.86 173.00 77.33 Z" />
<path fill="#436663" opacity="1.00" d=" M 186.43 76.67 C 189.36 76.06 192.37 76.35 195.22 77.22 C 194.56 77.59 193.22 78.35 192.56 78.72 C 192.36 79.70 192.16 80.67 191.95 81.64 C 189.93 80.43 187.74 79.53 185.44 79.04 C 185.69 78.45 186.18 77.26 186.43 76.67 Z" />
<path fill="#67836c" opacity="1.00" d=" M 192.56 78.72 C 193.22 78.35 194.56 77.59 195.22 77.22 C 196.78 78.91 198.11 80.81 199.06 82.91 C 198.54 82.82 197.51 82.66 197.00 82.57 C 196.55 83.22 195.67 84.52 195.22 85.17 C 195.67 85.28 196.56 85.50 197.00 85.61 C 196.68 86.12 196.05 87.16 195.74 87.68 L 195.13 88.72 C 194.66 86.13 193.54 83.73 191.95 81.64 C 192.16 80.67 192.36 79.70 192.56 78.72 Z" />
<path fill="#4f796f" opacity="1.00" d=" M 128.79 79.30 C 129.18 79.15 129.97 78.84 130.36 78.68 C 130.78 79.83 131.21 80.98 131.64 82.13 C 128.67 83.77 125.77 86.25 125.74 89.95 C 125.83 92.15 124.44 93.58 122.47 94.28 C 122.30 91.85 122.25 89.42 122.27 86.99 C 122.76 86.05 123.21 85.09 123.76 84.19 C 123.83 84.11 123.96 83.94 124.03 83.86 C 126.73 83.72 128.05 81.71 128.79 79.30 Z" />
<path fill="#edddb4" opacity="1.00" d=" M 139.70 79.46 C 141.13 79.26 142.59 79.27 144.02 79.06 C 142.83 82.94 143.10 86.99 143.89 90.93 C 140.79 88.67 141.80 84.79 141.68 81.52 C 140.48 83.50 140.53 85.84 140.27 88.05 C 140.18 88.47 139.99 89.29 139.90 89.70 C 137.84 90.44 135.74 91.07 133.65 91.72 C 132.88 90.79 132.12 89.86 131.36 88.92 C 133.16 85.84 136.19 83.95 138.96 81.86 C 139.14 81.26 139.51 80.06 139.70 79.46 Z" />
<path fill="#ffffcb" opacity="1.00" d=" M 124.03 83.86 C 125.25 81.99 126.79 80.35 128.79 79.30 C 128.05 81.71 126.73 83.72 124.03 83.86 Z" />
<path fill="#ebddb5" opacity="1.00" d=" M 151.08 86.26 C 150.94 82.52 153.53 78.49 157.76 79.59 C 157.49 81.35 157.19 83.12 156.93 84.88 C 154.98 85.36 153.03 85.81 151.08 86.26 Z" />
<path fill="#c7b496" opacity="1.00" d=" M 157.76 79.59 C 157.96 82.01 158.23 84.47 157.74 86.87 C 156.85 88.29 155.14 88.94 153.88 89.97 C 152.91 88.76 152.04 87.47 151.08 86.26 C 153.03 85.81 154.98 85.36 156.93 84.88 C 157.19 83.12 157.49 81.35 157.76 79.59 Z" />
<path fill="#221e37" opacity="1.00" d=" M 167.84 82.25 C 169.03 81.76 170.24 81.29 171.46 80.85 C 170.98 82.78 171.01 85.02 169.65 86.61 C 166.59 88.08 163.09 88.56 159.72 88.26 C 158.93 85.56 161.88 85.93 163.52 85.18 C 165.08 84.39 166.29 83.07 167.84 82.25 Z" />
<path fill="#416f67" opacity="1.00" d=" M 147.17 85.32 C 148.06 84.12 148.93 82.91 149.89 81.76 C 149.73 83.68 149.15 85.84 150.45 87.52 C 152.47 90.62 154.55 93.76 155.26 97.46 C 148.86 98.38 145.63 91.36 144.56 86.16 C 145.21 85.95 146.52 85.53 147.17 85.32 Z" />
<path fill="#ffffcb" opacity="1.00" d=" M 114.32 82.83 C 114.97 83.96 115.61 85.10 116.25 86.24 C 115.86 86.78 115.08 87.84 114.70 88.38 C 114.50 86.53 114.34 84.68 114.32 82.83 Z" />
<path fill="#244450" opacity="1.00" d=" M 126.89 91.22 C 126.75 86.63 130.62 83.44 134.70 82.29 C 132.15 85.31 130.03 88.75 126.89 91.22 Z" />
<path fill="#ffffcb" opacity="1.00" d=" M 195.22 85.17 C 195.67 84.52 196.55 83.22 197.00 82.57 C 197.51 82.66 198.54 82.82 199.06 82.91 C 199.65 84.13 200.21 85.38 200.74 86.64 C 199.49 86.29 198.25 85.92 197.00 85.61 C 196.56 85.50 195.67 85.28 195.22 85.17 Z" />
<path fill="#568172" opacity="1.00" d=" M 116.25 86.24 C 117.53 87.51 119.04 88.49 120.58 89.41 C 120.71 90.84 120.84 92.27 120.96 93.70 C 118.11 92.96 116.25 90.72 114.70 88.38 C 115.08 87.84 115.86 86.78 116.25 86.24 Z" />
<path fill="#97a679" opacity="1.00" d=" M 197.00 85.61 C 198.25 85.92 199.49 86.29 200.74 86.64 C 202.43 90.47 202.31 94.70 200.88 98.59 C 199.31 97.32 197.78 96.00 196.38 94.55 C 197.03 94.46 198.33 94.28 198.99 94.19 C 198.95 92.98 198.90 91.76 198.85 90.55 C 198.12 90.43 196.65 90.18 195.91 90.05 C 195.87 89.46 195.78 88.28 195.74 87.68 C 196.05 87.16 196.68 86.12 197.00 85.61 Z" />
<path fill="#d9ae8f" opacity="1.00" d=" M 168.32 89.95 C 169.99 88.80 171.58 87.54 172.93 86.01 C 174.99 88.53 177.12 91.03 178.81 93.83 C 175.99 93.11 173.11 92.71 170.23 92.36 C 169.14 92.11 169.13 90.55 168.32 89.95 Z" />
<path fill="#d0ae90" opacity="1.00" d=" M 140.27 88.05 C 141.29 89.72 142.50 91.26 143.92 92.61 C 141.75 93.21 139.57 93.72 137.41 94.33 C 136.15 93.47 134.89 92.61 133.65 91.72 C 135.74 91.07 137.84 90.44 139.90 89.70 C 139.99 89.29 140.18 88.47 140.27 88.05 Z" />
<path fill="#5a5242" opacity="1.00" d=" M 195.13 88.72 L 195.74 87.68 C 195.78 88.28 195.87 89.46 195.91 90.05 C 196.65 90.18 198.12 90.43 198.85 90.55 C 198.90 91.76 198.95 92.98 198.99 94.19 C 198.33 94.28 197.03 94.46 196.38 94.55 C 195.65 92.68 195.37 90.69 195.13 88.72 Z" />
<path fill="#937d67" opacity="0.82" d=" M 154.78 91.29 C 155.84 89.98 157.35 89.19 158.78 88.34 C 159.28 91.02 157.85 93.22 156.32 95.24 C 155.82 93.99 155.33 92.75 154.84 91.50 L 155.05 91.45 C 154.98 91.41 154.84 91.33 154.78 91.29 Z" />
<path fill="#3d6e67" opacity="1.00" d=" M 124.41 95.12 C 126.34 93.83 128.08 92.29 129.70 90.64 C 130.69 92.11 131.69 93.57 132.69 95.04 C 129.89 96.16 127.07 97.24 124.20 98.20 C 124.26 97.31 124.32 96.42 124.38 95.53 L 124.41 95.12 Z" />
<path fill="#e2c2a0" opacity="0.94" d=" M 154.78 91.29 C 154.84 91.33 154.98 91.41 155.05 91.45 L 154.84 91.50 L 154.78 91.29 Z" />
<path fill="#f7e0b7" opacity="1.00" d=" M 170.23 92.36 C 173.11 92.71 175.99 93.11 178.81 93.83 L 178.89 93.82 C 180.98 97.65 184.46 100.76 185.59 105.08 L 184.96 106.58 C 181.56 104.66 178.08 102.72 175.36 99.87 C 173.35 97.59 171.72 95.00 170.23 92.36 Z" />
<path fill="#efe2b7" opacity="1.00" d=" M 137.41 94.33 C 139.57 93.72 141.75 93.21 143.92 92.61 L 144.83 92.40 C 146.59 94.87 148.73 97.04 151.24 98.74 C 153.72 105.33 151.05 112.03 149.04 118.34 C 146.54 121.56 143.64 124.43 140.62 127.16 C 138.36 128.18 135.96 127.15 133.93 126.09 C 133.54 124.65 133.15 123.21 132.72 121.79 C 132.37 120.56 131.49 119.60 130.66 118.67 C 136.27 111.96 139.13 103.03 137.41 94.33 Z" />
<path fill="#597d6a" opacity="1.00" d=" M 116.86 99.37 C 119.19 97.77 121.71 96.47 124.38 95.53 C 124.32 96.42 124.26 97.31 124.20 98.20 C 122.39 99.00 120.68 100.09 118.76 100.64 C 118.28 100.32 117.34 99.69 116.86 99.37 Z" />
<path fill="#365e62" opacity="1.00" d=" M 130.21 97.84 C 131.36 96.26 133.44 95.93 135.15 95.26 C 133.94 101.31 132.30 107.48 128.67 112.57 C 128.00 110.66 127.14 108.79 125.55 107.47 C 127.56 104.50 128.89 101.16 130.21 97.84 Z" />
<path fill="#96a678" opacity="1.00" d=" M 121.57 104.92 C 123.19 101.47 126.33 98.46 130.21 97.84 C 128.89 101.16 127.56 104.50 125.55 107.47 C 125.11 108.10 124.24 109.38 123.80 110.01 C 122.77 108.47 120.98 107.01 121.57 104.92 Z" />
<path fill="#6d8b71" opacity="1.00" d=" M 151.24 98.74 C 152.43 98.96 153.62 99.18 154.82 99.40 C 154.10 102.88 153.14 106.46 153.89 110.03 C 154.54 113.05 154.89 116.18 154.12 119.22 C 153.93 119.49 153.54 120.02 153.35 120.29 C 152.77 119.91 151.61 119.14 151.04 118.76 C 151.33 117.75 151.60 116.74 151.84 115.73 C 151.14 116.38 149.74 117.68 149.04 118.34 C 151.05 112.03 153.72 105.33 151.24 98.74 Z" />
<path fill="#cbd7a2" opacity="1.00" d=" M 111.33 107.17 C 112.18 103.95 114.31 101.40 116.86 99.37 C 117.34 99.69 118.28 100.32 118.76 100.64 C 116.81 102.67 113.92 104.80 114.35 108.00 C 114.64 108.96 115.20 110.88 115.49 111.84 C 113.85 110.53 112.43 108.96 111.33 107.17 Z" />
<path fill="#231f39" opacity="1.00" d=" M 175.36 99.87 C 178.08 102.72 181.56 104.66 184.96 106.58 C 184.77 106.83 184.40 107.32 184.22 107.57 C 185.09 108.17 185.98 108.78 186.86 109.39 C 182.16 111.69 177.50 114.10 173.00 116.78 C 171.77 115.82 170.52 114.87 169.37 113.81 C 169.02 113.28 168.68 112.74 168.36 112.20 C 168.19 111.62 167.86 110.46 167.69 109.88 C 168.84 107.37 170.71 105.31 173.00 103.79 C 172.93 103.62 172.80 103.28 172.73 103.11 C 173.34 101.85 174.50 100.96 175.36 99.87 M 175.37 102.99 C 174.00 103.74 173.99 104.37 175.34 104.88 C 176.74 104.15 176.75 103.52 175.37 102.99 M 175.27 110.08 L 174.39 110.81 C 175.88 110.95 177.71 112.33 179.10 111.21 C 180.95 109.99 178.98 108.04 178.69 106.55 L 178.00 107.37 C 176.44 105.94 173.78 108.52 175.27 110.08 Z" />
<path fill="#fdedc1" opacity="1.00" d=" M 128.04 115.05 C 131.94 111.43 134.04 106.49 135.75 101.57 C 135.81 107.77 132.81 113.91 128.13 117.93 C 127.48 117.03 126.80 115.78 128.04 115.05 Z" />
<path fill="#ffffcb" opacity="1.00" d=" M 171.09 103.32 C 171.50 103.27 172.32 103.16 172.73 103.11 C 172.80 103.28 172.93 103.62 173.00 103.79 C 170.71 105.31 168.84 107.37 167.69 109.88 C 166.07 112.74 163.43 115.37 159.81 114.58 C 162.73 110.38 166.85 107.32 170.55 103.86 C 170.69 103.73 170.96 103.45 171.09 103.32 Z" />
<path fill="#ffffcb" opacity="1.00" d=" M 175.37 102.99 C 176.75 103.52 176.74 104.15 175.34 104.88 C 173.99 104.37 174.00 103.74 175.37 102.99 Z" />
<path fill="#ec4964" opacity="1.00" d=" M 175.27 110.08 C 173.78 108.52 176.44 105.94 178.00 107.37 C 177.19 108.37 176.29 109.30 175.27 110.08 Z" />
<path fill="#882655" opacity="1.00" d=" M 178.00 107.37 L 178.69 106.55 C 178.98 108.04 180.95 109.99 179.10 111.21 C 177.71 112.33 175.88 110.95 174.39 110.81 L 175.27 110.08 C 176.29 109.30 177.19 108.37 178.00 107.37 Z" />
<path fill="#ffffcb" opacity="1.00" d=" M 121.68 116.02 C 123.47 114.03 124.20 110.75 127.04 109.95 C 125.89 112.59 124.16 114.91 122.93 117.50 C 122.48 117.03 122.06 116.54 121.68 116.02 Z" />
<path fill="#f4e368" opacity="1.00" d=" M 159.81 114.58 C 163.43 115.37 166.07 112.74 167.69 109.88 C 167.86 110.46 168.19 111.62 168.36 112.20 C 166.03 114.36 163.47 116.25 160.92 118.14 C 160.44 116.93 159.92 115.74 159.31 114.60 L 159.81 114.58 Z" />
<path fill="#a54e36" opacity="1.00" d=" M 168.36 112.20 C 168.68 112.74 169.02 113.28 169.37 113.81 C 170.06 114.90 170.74 115.99 171.41 117.09 C 169.35 118.61 167.21 120.03 165.02 121.36 C 163.68 120.25 162.30 119.19 160.92 118.14 C 163.47 116.25 166.03 114.36 168.36 112.20 Z" />
<path fill="#000000" opacity="1.00" d=" M 149.04 118.34 C 149.74 117.68 151.14 116.38 151.84 115.73 C 151.60 116.74 151.33 117.75 151.04 118.76 C 149.45 120.68 147.71 122.47 145.93 124.22 C 144.30 125.43 142.51 126.42 140.62 127.16 C 143.64 124.43 146.54 121.56 149.04 118.34 Z" />
<path fill="#fdedc1" opacity="1.00" d=" M 154.81 117.59 C 155.99 117.46 157.17 117.36 158.36 117.27 C 159.87 118.97 161.52 120.55 163.27 122.01 C 163.35 124.89 163.50 127.78 163.28 130.66 C 160.51 128.12 159.24 124.40 159.54 120.69 C 157.97 119.65 156.36 118.66 154.81 117.59 Z" />
<path fill="#3f374c" opacity="1.00" d=" M 120.14 118.00 C 120.89 117.95 122.40 117.86 123.15 117.81 C 122.15 121.76 120.26 126.17 116.39 128.05 C 117.62 124.69 119.23 121.47 120.14 118.00 Z" />
<path fill="#bcb145" opacity="1.00" d=" M 126.17 118.28 C 129.51 118.37 124.62 121.32 126.17 118.28 Z" />
<path fill="#a5af7b" opacity="1.00" d=" M 129.45 118.48 L 130.66 118.67 C 131.49 119.60 132.37 120.56 132.72 121.79 C 132.37 122.10 131.66 122.74 131.31 123.06 C 132.18 124.06 133.01 125.12 133.93 126.09 C 135.96 127.15 138.36 128.18 140.62 127.16 C 142.51 126.42 144.30 125.43 145.93 124.22 C 147.48 124.02 149.52 125.21 150.65 123.64 C 151.65 122.61 152.48 121.43 153.35 120.29 C 153.54 120.02 153.93 119.49 154.12 119.22 L 154.97 118.02 L 155.16 119.81 C 156.01 128.81 157.75 138.13 155.01 146.99 C 152.21 155.54 147.67 163.38 142.97 171.01 C 137.99 179.05 139.06 189.44 143.10 197.65 C 144.40 200.70 144.63 204.59 147.75 206.48 C 146.76 203.23 145.72 199.99 145.08 196.66 C 147.45 195.82 149.85 195.03 152.24 194.23 L 152.40 194.70 C 152.70 195.53 153.29 197.20 153.59 198.03 C 157.42 197.10 161.17 195.87 164.87 194.53 C 166.81 195.32 168.72 197.01 170.94 196.38 C 173.45 195.92 174.49 193.36 175.83 191.52 C 179.45 190.50 183.42 189.99 186.31 187.34 C 192.64 186.76 199.48 187.11 204.64 191.27 C 202.36 194.34 199.81 197.21 197.06 199.87 C 201.85 205.16 203.92 212.15 204.74 219.10 C 202.54 212.63 200.89 205.73 196.20 200.49 C 193.18 202.40 190.11 204.22 186.99 205.96 C 189.90 212.32 191.56 219.28 190.65 226.30 C 190.05 219.50 188.71 212.77 186.04 206.47 C 181.52 208.29 176.93 209.94 172.34 211.56 C 173.98 216.97 175.00 222.58 174.61 228.26 C 173.56 222.72 173.01 217.07 171.28 211.67 C 167.29 212.66 163.33 213.79 159.28 214.52 C 158.56 214.64 157.13 214.86 156.41 214.98 C 156.68 219.66 157.79 224.43 156.58 229.07 C 156.38 224.43 155.94 219.81 155.17 215.23 C 149.09 216.00 143.00 216.55 136.89 216.98 C 136.95 218.15 137.01 219.32 137.08 220.50 C 136.92 223.69 136.69 226.87 136.46 230.06 C 136.18 225.70 136.04 221.34 135.90 216.98 C 134.03 217.10 132.17 217.22 130.30 217.34 C 122.88 217.26 115.45 217.39 108.03 217.30 C 105.69 217.21 103.45 217.93 101.30 218.77 C 101.17 211.19 103.92 204.02 107.23 197.33 C 111.67 187.87 118.23 179.35 120.90 169.12 C 122.10 164.32 123.27 159.16 121.63 154.32 C 120.36 150.03 120.44 145.51 119.85 141.11 C 119.45 138.01 119.77 134.85 120.82 131.90 C 120.85 132.58 120.90 133.94 120.93 134.62 C 122.97 129.77 125.51 125.06 129.49 121.51 C 129.48 121.04 129.47 120.12 129.46 119.65 L 129.45 118.48 Z" />
<path fill="#829974" opacity="1.00" d=" M 145.93 124.22 C 147.71 122.47 149.45 120.68 151.04 118.76 C 151.61 119.14 152.77 119.91 153.35 120.29 C 152.48 121.43 151.65 122.61 150.65 123.64 C 149.52 125.21 147.48 124.02 145.93 124.22 Z" />
<path fill="#ffffcb" opacity="1.00" d=" M 129.46 119.65 C 129.47 120.12 129.48 121.04 129.49 121.51 C 125.51 125.06 122.97 129.77 120.93 134.62 C 120.90 133.94 120.85 132.58 120.82 131.90 C 122.37 127.04 125.65 122.95 129.46 119.65 Z" />
<path fill="#62846e" opacity="1.00" d=" M 155.16 119.81 C 156.09 120.13 157.02 120.45 157.95 120.77 C 157.75 125.32 159.77 129.46 162.99 132.57 C 163.65 132.53 164.98 132.45 165.65 132.40 C 165.82 142.80 159.81 151.59 155.62 160.64 C 149.25 172.01 143.09 184.31 143.10 197.65 C 139.06 189.44 137.99 179.05 142.97 171.01 C 147.67 163.38 152.21 155.54 155.01 146.99 C 157.75 138.13 156.01 128.81 155.16 119.81 Z" />
<path fill="#000000" opacity="1.00" d=" M 131.31 123.06 C 131.66 122.74 132.37 122.10 132.72 121.79 C 133.15 123.21 133.54 124.65 133.93 126.09 C 133.01 125.12 132.18 124.06 131.31 123.06 Z" />
<path fill="#d9ae8f" opacity="1.00" d=" M 165.04 123.31 C 166.33 123.12 167.07 123.83 167.24 125.43 L 166.76 126.24 L 165.94 126.47 C 164.65 125.65 164.35 124.60 165.04 123.31 Z" />
<path fill="#d9ae8f" opacity="1.00" d=" M 116.23 139.12 C 116.52 136.16 117.31 133.27 118.41 130.51 C 117.77 133.24 119.20 137.56 116.23 139.12 Z" />
<path fill="#962a5c" opacity="1.00" d=" M 111.10 139.20 C 111.79 136.17 113.83 133.35 115.36 130.58 C 116.50 134.82 115.01 139.07 113.64 143.06 C 112.79 141.77 111.91 140.51 111.10 139.20 Z" />
<path fill="#bb3857" opacity="1.00" d=" M 111.10 139.20 C 111.91 140.51 112.79 141.77 113.64 143.06 C 110.64 147.53 108.03 152.39 104.05 156.10 C 106.20 150.39 108.72 144.82 111.10 139.20 Z" />
<path fill="#756252" opacity="1.00" d=" M 116.08 140.03 C 119.06 138.46 116.23 143.37 116.08 140.03 Z" />
<path fill="#9dab7a" opacity="1.00" d=" M 37.36 183.90 C 37.59 181.20 39.24 178.84 40.55 176.55 C 39.41 182.61 37.49 188.70 38.46 194.94 C 38.99 199.82 41.41 204.23 44.42 208.02 C 43.18 209.18 41.93 210.34 40.69 211.51 C 38.66 207.17 35.94 202.82 35.76 197.93 C 38.80 193.84 38.28 188.61 37.36 183.90 Z" />
<path fill="#f3f4cc" opacity="1.00" d=" M 37.36 183.90 C 38.28 188.61 38.80 193.84 35.76 197.93 C 34.60 193.22 35.91 188.39 37.36 183.90 Z" />
<path fill="#ffffcb" opacity="1.00" d=" M 166.03 190.66 C 172.70 189.09 179.42 187.36 186.31 187.34 C 183.42 189.99 179.45 190.50 175.83 191.52 C 174.49 193.36 173.45 195.92 170.94 196.38 C 168.72 197.01 166.81 195.32 164.87 194.53 C 161.17 195.87 157.42 197.10 153.59 198.03 C 153.29 197.20 152.70 195.53 152.40 194.70 C 156.77 192.81 161.46 191.90 166.03 190.66 Z" />
<path fill="#2a4b5a" opacity="1.00" d=" M 94.07 192.06 C 97.33 189.52 102.47 189.57 105.49 192.47 C 106.51 194.14 105.04 195.88 104.48 197.43 C 102.14 201.94 100.38 206.73 99.24 211.68 C 96.44 210.06 93.55 207.45 90.06 208.24 C 86.92 209.50 84.22 211.62 81.21 213.15 C 79.28 211.19 77.31 209.28 75.30 207.41 C 79.33 205.22 83.46 203.02 86.73 199.74 C 89.28 197.28 91.26 194.25 94.07 192.06 Z" />
<path fill="#3b5c60" opacity="1.00" d=" M 204.64 191.27 C 207.98 194.45 211.09 198.09 212.51 202.57 C 214.86 209.68 212.78 217.59 208.56 223.56 C 207.57 225.15 205.62 225.51 203.96 225.98 C 193.13 228.55 182.17 230.79 171.03 231.42 C 170.56 230.71 170.08 230.01 169.61 229.30 C 170.58 227.28 171.94 225.32 172.14 223.04 C 170.49 217.38 163.64 217.11 159.28 214.52 C 163.33 213.79 167.29 212.66 171.28 211.67 C 173.01 217.07 173.56 222.72 174.61 228.26 C 175.00 222.58 173.98 216.97 172.34 211.56 C 176.93 209.94 181.52 208.29 186.04 206.47 C 188.71 212.77 190.05 219.50 190.65 226.30 C 191.56 219.28 189.90 212.32 186.99 205.96 C 190.11 204.22 193.18 202.40 196.20 200.49 C 200.89 205.73 202.54 212.63 204.74 219.10 C 203.92 212.15 201.85 205.16 197.06 199.87 C 199.81 197.21 202.36 194.34 204.64 191.27 Z" />
<path fill="#000000" opacity="0.35" d=" M 31.82 192.91 C 32.39 192.68 33.52 192.22 34.09 191.99 C 33.99 193.78 33.97 195.58 34.03 197.38 C 32.03 196.65 31.92 194.73 31.82 192.91 Z" />
<path fill="#899a74" opacity="1.00" d=" M 44.42 208.02 C 49.48 213.40 57.43 214.70 64.28 212.37 C 63.88 213.47 63.50 214.58 63.09 215.69 C 64.47 216.56 65.80 217.51 67.18 218.39 C 61.78 218.38 56.42 220.29 51.02 219.20 C 46.59 218.40 43.14 215.10 40.69 211.51 C 41.93 210.34 43.18 209.18 44.42 208.02 Z" />
<path fill="#466362" opacity="1.00" d=" M 68.85 210.68 C 70.98 209.54 73.14 208.48 75.30 207.41 C 77.31 209.28 79.28 211.19 81.21 213.15 C 79.55 213.85 77.90 214.56 76.25 215.29 C 75.64 214.02 75.04 212.74 74.45 211.47 C 72.58 211.19 70.73 210.87 68.85 210.68 Z" />
<path fill="#607869" opacity="1.00" d=" M 64.42 211.97 C 65.89 211.50 67.34 210.97 68.85 210.68 C 70.73 210.87 72.58 211.19 74.45 211.47 C 75.04 212.74 75.64 214.02 76.25 215.29 C 73.26 216.42 70.25 217.49 67.18 218.39 C 65.80 217.51 64.47 216.56 63.09 215.69 C 63.50 214.58 63.88 213.47 64.28 212.37 L 64.42 211.97 Z" />
<path fill="#597a6a" opacity="1.00" d=" M 136.89 216.98 C 143.00 216.55 149.09 216.00 155.17 215.23 C 155.94 219.81 156.38 224.43 156.58 229.07 C 156.33 229.44 155.81 230.19 155.56 230.56 C 157.54 231.08 159.53 231.60 161.54 232.05 C 155.75 232.90 149.88 232.60 144.06 233.00 C 138.94 233.31 133.76 233.51 128.70 232.53 C 133.14 232.33 137.57 231.98 142.01 231.81 C 140.78 231.37 139.55 230.92 138.32 230.48 C 138.15 227.12 137.67 223.80 137.08 220.50 C 137.01 219.32 136.95 218.15 136.89 216.98 Z" />
<path fill="#4c6e66" opacity="1.00" d=" M 156.41 214.98 C 157.13 214.86 158.56 214.64 159.28 214.52 C 163.64 217.11 170.49 217.38 172.14 223.04 C 171.94 225.32 170.58 227.28 169.61 229.30 C 170.08 230.01 170.56 230.71 171.03 231.42 C 167.87 231.60 164.72 232.24 161.54 232.05 C 159.53 231.60 157.54 231.08 155.56 230.56 C 155.81 230.19 156.33 229.44 156.58 229.07 C 157.79 224.43 156.68 219.66 156.41 214.98 Z" />
<path fill="#769071" opacity="1.00" d=" M 101.30 218.77 C 103.45 217.93 105.69 217.21 108.03 217.30 C 115.45 217.39 122.88 217.26 130.30 217.34 C 127.52 217.63 124.75 218.04 121.98 218.41 C 120.49 221.72 119.16 225.09 117.78 228.45 C 119.09 228.71 120.41 228.98 121.73 229.24 C 121.40 229.60 120.75 230.32 120.43 230.68 C 115.26 229.58 110.01 228.20 105.48 225.41 C 103.11 223.97 102.11 221.27 101.30 218.77 Z" />
<path fill="#66856e" opacity="1.00" d=" M 130.30 217.34 C 132.17 217.22 134.03 217.10 135.90 216.98 C 136.04 221.34 136.18 225.70 136.46 230.06 C 136.69 226.87 136.92 223.69 137.08 220.50 C 137.67 223.80 138.15 227.12 138.32 230.48 C 139.55 230.92 140.78 231.37 142.01 231.81 C 137.57 231.98 133.14 232.33 128.70 232.53 C 125.78 232.47 122.96 231.64 120.12 231.03 L 120.43 230.68 C 120.75 230.32 121.40 229.60 121.73 229.24 C 120.41 228.98 119.09 228.71 117.78 228.45 C 119.16 225.09 120.49 221.72 121.98 218.41 C 124.75 218.04 127.52 217.63 130.30 217.34 Z" />
</svg>
