<?xml version="1.0" encoding="UTF-8" ?>
<!DOCTYPE svg PUBLIC "-//W3C//DTD SVG 1.1//EN" "http://www.w3.org/Graphics/SVG/1.1/DTD/svg11.dtd">
<svg width="165pt" height="117pt" viewBox="0 0 165 117" version="1.1" xmlns="http://www.w3.org/2000/svg">
<path fill="#000000" opacity="1.00" d=" M 62.06 13.17 C 74.66 4.91 89.73 -0.50 104.94 0.30 C 116.75 0.99 126.49 8.46 135.22 15.74 C 146.51 26.09 156.49 39.29 158.30 54.94 C 159.54 67.89 156.37 80.89 151.79 92.93 C 150.09 96.50 148.85 101.24 144.64 102.57 C 136.68 105.09 128.16 104.17 120.02 103.20 C 117.13 102.93 114.46 101.77 112.13 100.09 C 112.13 100.81 112.14 102.26 112.14 102.99 C 111.19 104.05 110.24 105.12 109.29 106.19 C 119.52 106.34 129.77 106.30 139.96 107.23 C 148.35 107.93 156.99 108.03 165.00 110.91 L 165.00 112.12 C 153.37 115.72 141.02 115.40 129.00 116.37 C 101.00 117.09 72.91 117.41 44.98 114.99 C 39.61 114.07 33.62 114.49 28.99 111.17 C 38.01 107.71 47.89 107.81 57.40 107.12 C 55.07 104.48 52.30 102.15 50.54 99.07 C 51.66 95.56 54.84 93.07 56.80 89.97 C 48.01 76.63 43.62 60.82 42.27 45.02 C 42.00 40.42 41.88 35.45 44.42 31.40 C 48.76 24.04 55.05 17.97 62.06 13.17 M 77.47 8.82 C 72.98 10.51 68.73 12.82 64.75 15.51 C 56.69 20.48 50.14 27.73 45.76 36.10 C 44.95 38.58 45.59 41.29 45.51 43.86 C 46.79 59.18 51.29 74.12 57.93 87.95 C 59.52 85.01 61.28 82.12 62.33 78.93 C 60.79 68.45 51.50 59.92 53.49 48.73 L 51.45 50.52 C 51.37 48.84 52.34 47.50 53.85 46.86 C 61.84 43.01 70.94 43.07 79.62 43.13 L 78.99 43.17 C 81.71 43.55 84.44 43.90 87.16 44.23 C 92.36 45.41 97.42 47.19 102.17 49.61 C 107.99 52.40 112.25 57.42 116.47 62.14 C 117.56 63.40 118.68 64.65 119.83 65.86 C 121.73 68.28 122.70 71.39 124.86 73.58 C 125.55 76.39 126.84 79.00 128.14 81.57 C 129.27 85.82 131.38 91.21 128.04 94.98 C 125.25 97.98 120.86 96.52 117.37 95.98 C 116.01 95.58 114.65 95.19 113.29 94.81 C 113.49 96.03 113.68 97.26 113.88 98.49 C 119.85 100.12 126.04 100.46 132.20 100.36 C 137.02 99.32 143.51 100.46 146.48 95.56 C 149.11 91.33 150.31 86.42 151.84 81.73 C 152.70 78.61 153.47 75.45 153.78 72.22 C 156.14 61.47 155.14 49.85 149.87 40.05 C 143.70 27.55 133.19 17.84 121.62 10.36 C 115.21 6.74 108.40 2.96 100.74 3.70 C 92.72 3.89 84.96 6.08 77.47 8.82 M 66.23 46.41 C 64.86 47.92 67.57 48.99 68.32 47.50 C 69.66 46.00 66.98 44.98 66.23 46.41 M 68.06 50.01 C 63.72 55.01 62.03 62.51 64.37 68.78 C 65.17 70.58 65.93 72.40 66.67 74.22 C 65.21 74.77 62.27 76.41 65.33 77.31 C 65.27 77.92 65.15 79.14 65.09 79.75 C 62.36 86.69 58.45 93.17 53.59 98.83 C 58.10 103.42 62.31 108.80 68.48 111.20 C 74.87 112.96 81.51 111.62 88.01 111.52 C 94.35 111.37 100.31 108.68 105.56 105.30 C 106.84 104.45 108.12 103.61 109.42 102.79 C 109.81 92.88 109.90 82.96 109.39 73.06 C 109.45 66.52 105.31 61.08 102.02 55.78 C 100.82 53.78 99.35 51.89 97.60 50.35 C 94.20 48.56 90.41 47.72 86.71 46.79 C 83.82 46.44 80.93 46.04 78.03 45.78 C 74.22 45.17 70.72 47.53 68.06 50.01 M 60.81 47.84 C 59.31 50.67 59.51 53.99 62.10 56.13 C 63.96 53.47 64.08 50.32 63.43 47.24 C 62.55 47.44 61.68 47.64 60.81 47.84 M 60.60 63.14 C 60.72 61.41 60.81 59.68 60.89 57.95 C 59.84 56.98 58.75 56.03 57.83 54.92 C 57.09 53.03 57.42 50.90 57.20 48.90 C 55.38 53.80 57.36 59.31 60.60 63.14 M 107.15 56.94 C 109.19 60.25 109.62 64.58 112.54 67.29 C 112.93 65.78 113.30 64.28 113.67 62.77 C 111.70 60.61 109.61 58.54 107.15 56.94 M 59.28 65.13 C 58.24 66.14 59.69 68.38 61.02 67.60 C 62.08 66.58 60.62 64.32 59.28 65.13 M 111.98 70.97 C 112.07 71.68 112.27 73.12 112.37 73.83 C 114.90 73.65 117.40 73.18 119.79 72.33 C 119.28 69.81 117.50 67.88 115.98 65.91 C 114.59 67.55 113.26 69.24 111.98 70.97 M 61.97 70.53 C 61.52 71.94 61.99 72.45 63.39 72.08 C 63.83 70.67 63.36 70.16 61.97 70.53 M 114.88 75.87 C 114.27 75.78 113.03 75.60 112.42 75.51 C 112.23 77.92 113.56 79.91 114.88 81.80 C 117.71 85.15 122.76 86.12 126.10 82.92 C 125.13 79.74 123.72 76.73 121.97 73.91 C 119.59 74.51 117.22 75.13 114.88 75.87 M 112.45 82.72 C 112.94 85.85 115.67 87.74 118.14 89.33 L 118.17 89.87 C 121.02 91.32 124.07 92.48 127.32 92.31 C 127.53 89.89 127.34 87.48 126.89 85.10 C 124.09 86.48 121.01 87.03 117.94 86.38 C 116.20 85.03 114.38 83.79 112.45 82.72 Z" />
<path fill="#ff89a5" opacity="1.00" d=" M 77.47 8.82 C 84.96 6.08 92.72 3.89 100.74 3.70 C 98.82 6.45 95.42 6.78 92.42 7.45 C 91.12 9.00 89.67 10.50 87.54 10.75 C 87.13 9.30 86.72 7.84 86.31 6.39 C 83.73 7.44 81.15 8.51 78.50 9.40 L 77.47 8.82 Z" />
<path fill="#eb4351" opacity="1.00" d=" M 100.74 3.70 C 108.40 2.96 115.21 6.74 121.62 10.36 C 133.19 17.84 143.70 27.55 149.87 40.05 C 155.14 49.85 156.14 61.47 153.78 72.22 C 153.42 72.45 152.72 72.92 152.37 73.15 C 157.06 60.12 153.69 44.93 144.71 34.46 C 143.32 38.65 143.91 43.05 144.69 47.30 C 144.03 48.02 142.70 49.46 142.04 50.18 C 143.01 51.38 144.00 52.58 144.99 53.78 C 144.07 62.61 142.73 73.73 133.83 78.18 C 131.58 70.90 129.58 63.29 124.85 57.14 C 116.94 46.63 104.76 40.32 92.38 36.68 C 85.59 35.06 78.50 35.52 71.63 36.39 C 63.42 37.24 54.84 37.89 47.52 42.08 C 46.84 42.66 46.17 43.25 45.51 43.86 C 45.59 41.29 44.95 38.58 45.76 36.10 C 50.14 27.73 56.69 20.48 64.75 15.51 C 65.20 15.54 66.11 15.60 66.56 15.63 C 68.12 23.57 80.35 20.88 81.26 14.00 C 81.15 12.10 79.68 10.73 78.50 9.40 C 81.15 8.51 83.73 7.44 86.31 6.39 C 86.72 7.84 87.13 9.30 87.54 10.75 C 89.67 10.50 91.12 9.00 92.42 7.45 C 95.42 6.78 98.82 6.45 100.74 3.70 M 123.39 23.38 C 116.63 26.21 119.66 38.17 126.99 37.41 C 133.00 36.66 134.79 28.11 131.02 24.02 C 129.07 21.93 125.77 22.27 123.39 23.38 M 60.39 24.40 C 58.27 24.82 57.34 27.56 58.76 29.18 C 60.85 31.15 64.65 28.17 63.40 25.65 C 63.07 24.43 61.46 24.08 60.39 24.40 Z" />
<path fill="#d9ac6e" opacity="1.00" d=" M 64.75 15.51 C 68.73 12.82 72.98 10.51 77.47 8.82 L 78.50 9.40 C 79.68 10.73 81.15 12.10 81.26 14.00 C 80.35 20.88 68.12 23.57 66.56 15.63 C 66.11 15.60 65.20 15.54 64.75 15.51 Z" />
<path fill="#d9ac6e" opacity="1.00" d=" M 123.39 23.38 C 125.77 22.27 129.07 21.93 131.02 24.02 C 134.79 28.11 133.00 36.66 126.99 37.41 C 119.66 38.17 116.63 26.21 123.39 23.38 Z" />
<path fill="#cfa46d" opacity="1.00" d=" M 60.39 24.40 C 61.46 24.08 63.07 24.43 63.40 25.65 C 64.65 28.17 60.85 31.15 58.76 29.18 C 57.34 27.56 58.27 24.82 60.39 24.40 Z" />
<path fill="#86375b" opacity="1.00" d=" M 71.63 36.39 C 78.50 35.52 85.59 35.06 92.38 36.68 C 104.76 40.32 116.94 46.63 124.85 57.14 C 129.58 63.29 131.58 70.90 133.83 78.18 C 133.20 78.14 131.94 78.06 131.31 78.02 C 129.19 76.50 127.06 74.99 124.86 73.58 C 122.70 71.39 121.73 68.28 119.83 65.86 C 120.78 64.59 122.08 63.48 122.63 61.97 C 122.54 60.55 121.00 59.81 120.20 58.78 C 118.96 59.90 117.72 61.02 116.47 62.14 C 112.25 57.42 107.99 52.40 102.17 49.61 C 97.42 47.19 92.36 45.41 87.16 44.23 C 87.27 42.90 87.37 41.56 87.47 40.23 C 85.50 39.95 84.30 41.35 83.25 42.79 C 82.04 42.92 80.83 43.05 79.62 43.13 C 77.92 42.70 76.25 42.19 74.57 41.69 C 74.91 40.60 75.25 39.50 75.59 38.41 C 78.41 38.04 81.23 37.67 84.06 37.36 C 79.90 37.30 75.76 36.90 71.63 36.39 Z" />
<path fill="#71355e" opacity="1.00" d=" M 144.71 34.46 C 153.69 44.93 157.06 60.12 152.37 73.15 C 150.93 74.20 148.90 74.98 148.66 76.99 C 147.92 79.34 150.52 80.38 151.84 81.73 C 150.31 86.42 149.11 91.33 146.48 95.56 C 143.51 100.46 137.02 99.32 132.20 100.36 C 135.47 94.08 137.15 86.41 134.29 79.66 C 133.29 79.13 132.29 78.61 131.31 78.02 C 131.94 78.06 133.20 78.14 133.83 78.18 C 142.73 73.73 144.07 62.61 144.99 53.78 C 145.12 51.61 145.02 49.44 144.69 47.30 C 143.91 43.05 143.32 38.65 144.71 34.46 M 139.19 88.12 C 137.41 89.30 137.82 92.78 140.09 93.16 C 141.41 93.05 142.78 92.39 142.92 90.92 C 143.83 88.95 140.92 86.38 139.19 88.12 Z" />
<path fill="#6a345e" opacity="1.00" d=" M 47.52 42.08 C 54.84 37.89 63.42 37.24 71.63 36.39 C 75.76 36.90 79.90 37.30 84.06 37.36 C 81.23 37.67 78.41 38.04 75.59 38.41 C 75.25 39.50 74.91 40.60 74.57 41.69 C 76.25 42.19 77.92 42.70 79.62 43.13 C 70.94 43.07 61.84 43.01 53.85 46.86 C 52.34 47.50 51.37 48.84 51.45 50.52 C 50.52 51.40 49.55 52.25 48.60 53.11 C 47.74 49.49 47.37 45.79 47.52 42.08 Z" />
<path fill="#5c2937" opacity="1.00" d=" M 83.25 42.79 C 84.30 41.35 85.50 39.95 87.47 40.23 C 87.37 41.56 87.27 42.90 87.16 44.23 C 84.44 43.90 81.71 43.55 78.99 43.17 L 79.62 43.13 C 80.83 43.05 82.04 42.92 83.25 42.79 Z" />
<path fill="#af3c58" opacity="1.00" d=" M 45.51 43.86 C 46.17 43.25 46.84 42.66 47.52 42.08 C 47.37 45.79 47.74 49.49 48.60 53.11 C 49.55 52.25 50.52 51.40 51.45 50.52 L 53.49 48.73 C 51.50 59.92 60.79 68.45 62.33 78.93 C 61.28 82.12 59.52 85.01 57.93 87.95 C 51.29 74.12 46.79 59.18 45.51 43.86 Z" />
<path fill="#2d172a" opacity="1.00" d=" M 66.23 46.41 C 66.98 44.98 69.66 46.00 68.32 47.50 C 67.57 48.99 64.86 47.92 66.23 46.41 Z" />
<path fill="#c9aaa2" opacity="1.00" d=" M 68.06 50.01 C 70.72 47.53 74.22 45.17 78.03 45.78 C 80.93 46.04 83.82 46.44 86.71 46.79 C 85.48 47.31 84.25 47.85 82.98 48.30 C 74.98 49.50 70.55 57.17 68.27 64.20 C 67.14 64.58 66.02 64.97 64.91 65.38 C 69.22 66.31 73.53 65.42 77.60 63.94 L 79.64 64.19 C 77.71 65.65 75.80 67.14 73.98 68.74 C 70.78 68.66 67.57 68.69 64.37 68.78 C 62.03 62.51 63.72 55.01 68.06 50.01 Z" />
<path fill="#45233f" opacity="1.00" d=" M 60.81 47.84 C 61.68 47.64 62.55 47.44 63.43 47.24 C 64.08 50.32 63.96 53.47 62.10 56.13 C 59.51 53.99 59.31 50.67 60.81 47.84 Z" />
<path fill="#bd9e9b" opacity="1.00" d=" M 86.71 46.79 C 90.41 47.72 94.20 48.56 97.60 50.35 C 99.35 51.89 100.82 53.78 102.02 55.78 L 102.21 57.62 C 101.62 57.14 100.45 56.17 99.86 55.69 C 98.03 54.56 95.87 55.03 94.00 55.81 C 91.03 57.57 88.79 60.27 86.37 62.68 C 83.92 60.74 81.74 62.99 79.64 64.19 L 77.60 63.94 C 80.54 62.72 83.35 61.18 85.77 59.09 C 84.91 59.38 83.18 59.95 82.32 60.23 C 84.19 56.47 84.17 52.25 82.98 48.30 C 84.25 47.85 85.48 47.31 86.71 46.79 Z" />
<path fill="#000000" opacity="1.00" d=" M 68.27 64.20 C 70.55 57.17 74.98 49.50 82.98 48.30 C 84.17 52.25 84.19 56.47 82.32 60.23 C 83.18 59.95 84.91 59.38 85.77 59.09 C 83.35 61.18 80.54 62.72 77.60 63.94 C 73.53 65.42 69.22 66.31 64.91 65.38 C 66.02 64.97 67.14 64.58 68.27 64.20 M 73.31 57.27 C 71.73 59.24 70.87 61.67 69.93 63.99 C 75.30 63.54 81.99 61.35 82.39 54.97 C 82.51 53.29 82.21 51.62 81.77 50.01 C 78.18 51.30 75.05 53.83 73.31 57.27 Z" />
<path fill="#d29f6c" opacity="1.00" d=" M 142.04 50.18 C 142.70 49.46 144.03 48.02 144.69 47.30 C 145.02 49.44 145.12 51.61 144.99 53.78 C 144.00 52.58 143.01 51.38 142.04 50.18 Z" />
<path fill="#45233f" opacity="1.00" d=" M 60.60 63.14 C 57.36 59.31 55.38 53.80 57.20 48.90 C 57.42 50.90 57.09 53.03 57.83 54.92 C 58.75 56.03 59.84 56.98 60.89 57.95 C 60.81 59.68 60.72 61.41 60.60 63.14 Z" />
<path fill="#cfa46d" opacity="1.00" d=" M 73.31 57.27 C 75.05 53.83 78.18 51.30 81.77 50.01 C 82.21 51.62 82.51 53.29 82.39 54.97 C 82.34 54.39 82.23 53.24 82.18 52.66 C 79.22 54.20 76.24 55.68 73.31 57.27 Z" />
<path fill="#ffd56c" opacity="1.00" d=" M 73.31 57.27 C 76.24 55.68 79.22 54.20 82.18 52.66 C 82.23 53.24 82.34 54.39 82.39 54.97 C 81.99 61.35 75.30 63.54 69.93 63.99 C 70.87 61.67 71.73 59.24 73.31 57.27 Z" />
<path fill="#474047" opacity="1.00" d=" M 94.00 55.81 C 95.87 55.03 98.03 54.56 99.86 55.69 C 99.22 55.62 97.95 55.48 97.32 55.41 C 98.47 56.98 100.02 58.34 100.69 60.21 C 100.86 61.78 100.79 64.18 98.91 64.68 C 94.60 66.46 89.99 67.34 85.41 68.11 C 88.78 65.81 92.12 63.45 95.50 61.15 C 95.21 59.88 94.92 58.60 94.63 57.32 C 95.24 56.82 95.86 56.33 96.49 55.83 C 95.87 55.83 94.62 55.82 94.00 55.81 Z" />
<path fill="#000000" opacity="1.00" d=" M 1.78 56.71 C 3.54 56.03 3.72 59.75 4.75 60.82 C 10.79 57.91 17.64 59.85 24.06 58.88 C 26.02 58.31 26.57 60.38 26.71 61.81 C 28.05 60.85 29.40 59.84 31.08 59.57 C 30.88 60.49 30.49 62.33 30.29 63.25 C 31.64 63.98 33.11 64.57 34.25 65.63 C 35.78 66.98 34.73 68.98 34.63 70.66 C 36.43 69.75 38.25 68.87 40.06 68.00 C 42.46 69.63 46.00 70.16 47.09 73.19 C 48.21 76.07 49.62 79.74 47.45 82.48 C 45.74 85.05 43.95 87.63 41.67 89.72 C 39.60 90.18 37.77 88.78 35.93 88.08 C 33.25 90.12 29.88 90.05 27.02 88.47 C 23.86 88.39 22.20 85.69 20.51 83.45 C 18.74 80.96 16.14 79.28 14.19 76.96 C 15.59 75.43 17.17 74.07 18.82 72.83 C 17.90 71.90 16.77 71.39 15.42 71.29 C 12.03 68.99 8.12 67.22 3.95 67.36 C 2.72 67.19 0.87 67.53 0.37 66.01 C -0.29 62.86 0.64 59.63 1.78 56.71 M 1.93 59.52 C 0.51 62.57 5.27 59.52 1.93 59.52 M 9.29 66.37 C 11.67 67.02 14.09 67.75 15.84 69.60 C 17.88 68.99 23.45 70.66 22.47 67.26 C 21.02 66.98 18.11 66.41 16.66 66.13 L 18.17 68.69 C 17.58 66.99 13.76 64.65 16.68 63.42 C 17.56 64.45 18.28 65.60 19.24 66.56 C 20.81 66.44 22.41 66.44 23.75 67.39 C 24.35 67.01 25.56 66.26 26.17 65.88 C 25.38 64.36 24.73 62.78 24.18 61.16 C 18.98 61.61 13.81 60.37 8.59 60.85 C 8.69 62.71 8.94 64.55 9.29 66.37 M 2.08 62.66 C 2.27 63.51 2.46 64.37 2.65 65.23 C 3.93 65.29 5.22 65.35 6.51 65.43 C 6.68 64.46 6.86 63.50 7.03 62.53 C 5.38 62.57 3.73 62.61 2.08 62.66 M 27.07 63.05 C 27.30 66.37 30.02 61.41 27.07 63.05 M 30.41 70.68 C 30.89 70.54 31.86 70.26 32.35 70.12 C 32.52 69.08 32.69 68.05 32.87 67.01 C 32.29 66.64 31.13 65.91 30.55 65.55 C 29.39 67.11 30.06 68.97 30.41 70.68 M 23.86 70.03 C 24.48 70.13 25.72 70.34 26.35 70.45 C 27.40 72.78 28.72 75.09 28.49 77.76 C 28.89 76.78 29.30 75.81 29.71 74.84 C 30.63 74.38 31.54 73.93 32.46 73.47 C 30.93 73.23 27.87 74.63 27.52 72.24 C 27.33 70.49 27.38 68.72 27.37 66.96 C 26.19 67.96 25.01 68.99 23.86 70.03 M 20.29 71.31 C 20.85 71.80 20.85 71.80 20.29 71.31 M 26.76 80.17 C 27.92 80.85 29.06 81.59 30.30 82.12 C 33.87 83.72 37.14 85.90 40.76 87.40 C 42.45 85.15 44.32 83.03 46.43 81.16 C 46.20 79.69 45.87 78.24 45.44 76.81 C 45.27 74.00 42.89 72.02 41.03 70.18 C 35.63 72.61 31.76 77.23 26.76 80.17 M 17.06 76.37 C 16.70 78.24 19.19 78.10 20.33 78.72 C 22.08 81.09 23.89 83.43 25.75 85.72 C 26.60 84.95 27.44 84.18 28.29 83.41 C 26.91 82.61 25.52 81.85 24.23 80.91 C 23.94 79.33 25.87 78.53 25.89 77.01 C 25.96 75.35 24.91 73.94 24.36 72.43 C 21.61 73.07 19.09 74.41 17.06 76.37 M 31.09 84.03 C 30.20 85.08 29.30 86.14 28.42 87.21 C 30.33 88.45 32.41 88.02 34.39 87.20 C 33.30 86.13 32.20 85.08 31.09 84.03 Z" />
<path fill="#0d0d0f" opacity="1.00" d=" M 86.37 62.68 C 88.79 60.27 91.03 57.57 94.00 55.81 C 94.62 55.82 95.87 55.83 96.49 55.83 C 95.86 56.33 95.24 56.82 94.63 57.32 C 90.66 60.62 86.69 64.08 83.81 68.41 L 85.41 68.11 C 89.99 67.34 94.60 66.46 98.91 64.68 C 100.79 64.18 100.86 61.78 100.69 60.21 C 100.02 58.34 98.47 56.98 97.32 55.41 C 97.95 55.48 99.22 55.62 99.86 55.69 C 100.45 56.17 101.62 57.14 102.21 57.62 C 102.63 60.06 103.24 62.70 101.95 65.00 C 100.44 66.06 98.69 66.69 96.97 67.30 C 93.89 68.29 90.73 69.03 87.58 69.77 C 87.31 71.19 87.04 72.61 86.73 74.03 C 83.03 78.20 76.92 75.69 72.41 74.36 C 72.79 72.45 73.25 70.55 73.98 68.74 C 75.80 67.14 77.71 65.65 79.64 64.19 C 81.74 62.99 83.92 60.74 86.37 62.68 M 73.89 71.09 C 75.43 71.07 76.96 71.04 78.49 70.99 C 78.96 69.47 80.19 68.77 81.68 68.51 C 83.28 67.03 84.61 65.28 85.02 63.09 C 80.84 64.98 76.97 67.68 73.89 71.09 M 82.24 71.95 C 81.78 71.72 80.85 71.27 80.39 71.04 C 78.12 72.02 75.67 71.84 73.29 71.45 C 73.60 72.01 74.21 73.12 74.52 73.67 C 77.58 74.50 80.79 74.53 83.94 74.74 C 84.88 73.37 85.56 71.84 85.90 70.20 C 84.26 69.89 82.93 70.35 82.24 71.95 Z" />
<path fill="#ad8a90" opacity="1.00" d=" M 102.02 55.78 C 105.31 61.08 109.45 66.52 109.39 73.06 C 109.90 82.96 109.81 92.88 109.42 102.79 C 108.12 103.61 106.84 104.45 105.56 105.30 C 104.19 94.30 102.52 83.24 98.90 72.72 C 98.27 70.91 97.62 69.10 96.97 67.30 C 98.69 66.69 100.44 66.06 101.95 65.00 C 103.24 62.70 102.63 60.06 102.21 57.62 L 102.02 55.78 Z" />
<path fill="#492543" opacity="1.00" d=" M 107.15 56.94 C 109.61 58.54 111.70 60.61 113.67 62.77 C 113.30 64.28 112.93 65.78 112.54 67.29 C 109.62 64.58 109.19 60.25 107.15 56.94 Z" />
<path fill="#6c6064" opacity="1.00" d=" M 83.81 68.41 C 86.69 64.08 90.66 60.62 94.63 57.32 C 94.92 58.60 95.21 59.88 95.50 61.15 C 92.12 63.45 88.78 65.81 85.41 68.11 L 83.81 68.41 Z" />
<path fill="#424447" opacity="1.00" d=" M 1.93 59.52 C 5.27 59.52 0.51 62.57 1.93 59.52 Z" />
<path fill="#6b3332" opacity="1.00" d=" M 116.47 62.14 C 117.72 61.02 118.96 59.90 120.20 58.78 C 121.00 59.81 122.54 60.55 122.63 61.97 C 122.08 63.48 120.78 64.59 119.83 65.86 C 118.68 64.65 117.56 63.40 116.47 62.14 Z" />
<path fill="#82868f" opacity="1.00" d=" M 9.29 66.37 C 8.94 64.55 8.69 62.71 8.59 60.85 C 13.81 60.37 18.98 61.61 24.18 61.16 C 24.73 62.78 25.38 64.36 26.17 65.88 C 25.56 66.26 24.35 67.01 23.75 67.39 C 22.41 66.44 20.81 66.44 19.24 66.56 C 18.28 65.60 17.56 64.45 16.68 63.42 C 13.76 64.65 17.58 66.99 18.17 68.69 L 16.66 66.13 C 18.11 66.41 21.02 66.98 22.47 67.26 C 23.45 70.66 17.88 68.99 15.84 69.60 C 14.09 67.75 11.67 67.02 9.29 66.37 Z" />
<path fill="#8a8d96" opacity="1.00" d=" M 2.08 62.66 C 3.73 62.61 5.38 62.57 7.03 62.53 C 6.86 63.50 6.68 64.46 6.51 65.43 C 5.22 65.35 3.93 65.29 2.65 65.23 C 2.46 64.37 2.27 63.51 2.08 62.66 Z" />
<path fill="#46474b" opacity="1.00" d=" M 27.07 63.05 C 30.02 61.41 27.30 66.37 27.07 63.05 Z" />
<path fill="#d6d4de" opacity="1.00" d=" M 73.89 71.09 C 76.97 67.68 80.84 64.98 85.02 63.09 C 84.61 65.28 83.28 67.03 81.68 68.51 C 80.19 68.77 78.96 69.47 78.49 70.99 C 76.96 71.04 75.43 71.07 73.89 71.09 Z" />
<path fill="#2e1729" opacity="1.00" d=" M 59.28 65.13 C 60.62 64.32 62.08 66.58 61.02 67.60 C 59.69 68.38 58.24 66.14 59.28 65.13 Z" />
<path fill="#ffeec6" opacity="1.00" d=" M 30.41 70.68 C 30.06 68.97 29.39 67.11 30.55 65.55 C 31.13 65.91 32.29 66.64 32.87 67.01 C 32.69 68.05 32.52 69.08 32.35 70.12 C 31.86 70.26 30.89 70.54 30.41 70.68 Z" />
<path fill="#4a2544" opacity="1.00" d=" M 111.98 70.97 C 113.26 69.24 114.59 67.55 115.98 65.91 C 117.50 67.88 119.28 69.81 119.79 72.33 C 117.40 73.18 114.90 73.65 112.37 73.83 C 112.27 73.12 112.07 71.68 111.98 70.97 Z" />
<path fill="#82868f" opacity="1.00" d=" M 23.86 70.03 C 25.01 68.99 26.19 67.96 27.37 66.96 C 27.38 68.72 27.33 70.49 27.52 72.24 C 27.87 74.63 30.93 73.23 32.46 73.47 C 31.54 73.93 30.63 74.38 29.71 74.84 C 29.30 75.81 28.89 76.78 28.49 77.76 C 28.72 75.09 27.40 72.78 26.35 70.45 C 25.72 70.34 24.48 70.13 23.86 70.03 Z" />
<path fill="#c3a49e" opacity="1.00" d=" M 87.58 69.77 C 90.73 69.03 93.89 68.29 96.97 67.30 C 97.62 69.10 98.27 70.91 98.90 72.72 C 97.72 73.56 96.67 74.56 95.69 75.62 C 92.65 75.43 89.65 74.85 86.73 74.03 C 87.04 72.61 87.31 71.19 87.58 69.77 Z" />
<path fill="#ffebc4" opacity="1.00" d=" M 64.37 68.78 C 67.57 68.69 70.78 68.66 73.98 68.74 C 73.25 70.55 72.79 72.45 72.41 74.36 C 76.92 75.69 83.03 78.20 86.73 74.03 C 89.65 74.85 92.65 75.43 95.69 75.62 C 96.67 74.56 97.72 73.56 98.90 72.72 C 102.52 83.24 104.19 94.30 105.56 105.30 C 100.31 108.68 94.35 111.37 88.01 111.52 C 81.51 111.62 74.87 112.96 68.48 111.20 C 62.31 108.80 58.10 103.42 53.59 98.83 C 58.45 93.17 62.36 86.69 65.09 79.75 C 68.07 81.31 71.26 83.10 74.74 82.17 C 72.75 78.84 68.67 78.43 65.33 77.31 C 62.27 76.41 65.21 74.77 66.67 74.22 C 65.93 72.40 65.17 70.58 64.37 68.78 Z" />
<path fill="#421e37" opacity="1.00" d=" M 61.97 70.53 C 63.36 70.16 63.83 70.67 63.39 72.08 C 61.99 72.45 61.52 71.94 61.97 70.53 Z" />
<path fill="#dad9e2" opacity="1.00" d=" M 82.24 71.95 C 82.93 70.35 84.26 69.89 85.90 70.20 C 85.56 71.84 84.88 73.37 83.94 74.74 C 80.79 74.53 77.58 74.50 74.52 73.67 C 74.21 73.12 73.60 72.01 73.29 71.45 C 75.67 71.84 78.12 72.02 80.39 71.04 C 80.85 71.27 81.78 71.72 82.24 71.95 Z" />
<path fill="#000000" opacity="0.46" d=" M 20.29 71.31 C 20.85 71.80 20.85 71.80 20.29 71.31 Z" />
<path fill="#f6e0be" opacity="1.00" d=" M 26.76 80.17 C 31.76 77.23 35.63 72.61 41.03 70.18 C 42.89 72.02 45.27 74.00 45.44 76.81 C 43.32 80.95 39.02 82.86 34.85 84.30 C 35.33 83.36 36.31 81.50 36.79 80.57 C 35.88 81.31 34.97 82.06 34.06 82.82 C 32.80 82.60 31.55 82.37 30.30 82.12 C 29.06 81.59 27.92 80.85 26.76 80.17 Z" />
<path fill="#d8b6af" opacity="1.00" d=" M 17.06 76.37 C 19.09 74.41 21.61 73.07 24.36 72.43 C 24.91 73.94 25.96 75.35 25.89 77.01 C 25.87 78.53 23.94 79.33 24.23 80.91 C 25.52 81.85 26.91 82.61 28.29 83.41 C 27.44 84.18 26.60 84.95 25.75 85.72 C 23.89 83.43 22.08 81.09 20.33 78.72 C 19.19 78.10 16.70 78.24 17.06 76.37 Z" />
<path fill="#602329" opacity="1.00" d=" M 148.66 76.99 C 148.90 74.98 150.93 74.20 152.37 73.15 C 152.72 72.92 153.42 72.45 153.78 72.22 C 153.47 75.45 152.70 78.61 151.84 81.73 C 150.52 80.38 147.92 79.34 148.66 76.99 Z" />
<path fill="#1d111f" opacity="1.00" d=" M 114.88 75.87 C 117.22 75.13 119.59 74.51 121.97 73.91 C 123.72 76.73 125.13 79.74 126.10 82.92 C 122.76 86.12 117.71 85.15 114.88 81.80 C 116.10 80.97 117.32 80.15 118.54 79.33 C 118.57 78.40 118.60 77.47 118.63 76.55 C 117.38 76.31 116.13 76.09 114.88 75.87 Z" />
<path fill="#46233e" opacity="1.00" d=" M 124.86 73.58 C 127.06 74.99 129.19 76.50 131.31 78.02 C 132.29 78.61 133.29 79.13 134.29 79.66 C 132.23 80.27 130.18 80.92 128.14 81.57 C 126.84 79.00 125.55 76.39 124.86 73.58 Z" />
<path fill="#51284a" opacity="1.00" d=" M 112.42 75.51 C 113.03 75.60 114.27 75.78 114.88 75.87 C 116.13 76.09 117.38 76.31 118.63 76.55 C 118.60 77.47 118.57 78.40 118.54 79.33 C 117.32 80.15 116.10 80.97 114.88 81.80 C 113.56 79.91 112.23 77.92 112.42 75.51 Z" />
<path fill="#caada2" opacity="1.00" d=" M 65.33 77.31 C 68.67 78.43 72.75 78.84 74.74 82.17 C 71.26 83.10 68.07 81.31 65.09 79.75 C 65.15 79.14 65.27 77.92 65.33 77.31 Z" />
<path fill="#9d7886" opacity="1.00" d=" M 34.85 84.30 C 39.02 82.86 43.32 80.95 45.44 76.81 C 45.87 78.24 46.20 79.69 46.43 81.16 C 44.32 83.03 42.45 85.15 40.76 87.40 C 37.14 85.90 33.87 83.72 30.30 82.12 C 31.55 82.37 32.80 82.60 34.06 82.82 C 34.97 82.06 35.88 81.31 36.79 80.57 C 36.31 81.50 35.33 83.36 34.85 84.30 Z" />
<path fill="#2d192e" opacity="1.00" d=" M 128.14 81.57 C 130.18 80.92 132.23 80.27 134.29 79.66 C 137.15 86.41 135.47 94.08 132.20 100.36 C 126.04 100.46 119.85 100.12 113.88 98.49 C 115.14 98.35 116.40 98.21 117.66 98.08 C 117.59 97.55 117.44 96.51 117.37 95.98 C 120.86 96.52 125.25 97.98 128.04 94.98 C 131.38 91.21 129.27 85.82 128.14 81.57 Z" />
<path fill="#4a2545" opacity="1.00" d=" M 112.45 82.72 C 114.38 83.79 116.20 85.03 117.94 86.38 C 117.99 87.12 118.09 88.59 118.14 89.33 C 115.67 87.74 112.94 85.85 112.45 82.72 Z" />
<path fill="#3a343a" opacity="1.00" d=" M 31.09 84.03 C 32.20 85.08 33.30 86.13 34.39 87.20 C 32.41 88.02 30.33 88.45 28.42 87.21 C 29.30 86.14 30.20 85.08 31.09 84.03 Z" />
<path fill="#2d182d" opacity="1.00" d=" M 117.94 86.38 C 121.01 87.03 124.09 86.48 126.89 85.10 C 127.34 87.48 127.53 89.89 127.32 92.31 C 124.07 92.48 121.02 91.32 118.17 89.87 L 118.14 89.33 C 118.09 88.59 117.99 87.12 117.94 86.38 Z" />
<path fill="#5b1f25" opacity="1.00" d=" M 139.19 88.12 C 140.92 86.38 143.83 88.95 142.92 90.92 C 142.78 92.39 141.41 93.05 140.09 93.16 C 137.82 92.78 137.41 89.30 139.19 88.12 Z" />
<path fill="#482442" opacity="1.00" d=" M 113.29 94.81 C 114.65 95.19 116.01 95.58 117.37 95.98 C 117.44 96.51 117.59 97.55 117.66 98.08 C 116.40 98.21 115.14 98.35 113.88 98.49 C 113.68 97.26 113.49 96.03 113.29 94.81 Z" />
</svg>
