<?xml version="1.0" encoding="UTF-8" ?>
<!DOCTYPE svg PUBLIC "-//W3C//DTD SVG 1.1//EN" "http://www.w3.org/Graphics/SVG/1.1/DTD/svg11.dtd">
<svg width="153pt" height="211pt" viewBox="0 0 153 211" version="1.1" xmlns="http://www.w3.org/2000/svg">
<path fill="#000000" opacity="1.00" d=" M 106.35 0.00 L 106.93 0.00 C 112.74 10.40 110.02 22.96 106.84 33.76 C 100.44 52.69 89.45 70.49 73.76 83.09 C 75.07 82.69 76.40 82.31 77.61 81.64 C 87.33 75.95 97.67 71.36 108.15 67.26 C 122.44 61.96 137.61 57.49 153.00 58.58 L 153.00 59.32 C 144.51 70.84 132.90 79.67 120.39 86.43 C 110.59 91.71 100.25 96.39 89.23 98.37 C 88.96 100.01 88.69 101.66 88.41 103.31 C 91.57 107.24 96.81 107.14 101.34 107.92 C 101.43 109.20 101.39 110.49 101.23 111.77 C 101.92 111.62 103.30 111.32 104.00 111.17 C 106.02 113.14 110.23 114.48 109.76 117.87 C 107.70 120.58 105.04 122.77 103.05 125.55 C 104.68 127.32 106.50 128.98 107.64 131.12 C 106.97 134.79 104.59 137.98 104.23 141.77 C 98.60 138.31 90.59 141.09 88.11 147.14 C 84.61 155.33 86.28 164.48 87.20 173.02 C 82.97 169.43 81.07 163.96 79.43 158.83 C 76.84 149.21 75.45 138.83 78.22 129.09 C 79.49 124.60 83.21 121.50 86.57 118.53 C 88.20 116.95 90.80 115.69 90.46 113.01 C 86.30 112.18 81.38 111.01 79.76 106.52 C 78.01 107.18 76.26 107.81 74.51 108.44 C 75.14 109.22 75.77 110.01 76.41 110.80 C 73.15 114.17 78.82 117.14 77.16 120.80 C 76.49 123.04 76.59 125.80 74.41 127.21 C 76.03 131.28 75.90 135.68 74.72 139.84 C 73.83 142.15 76.48 144.11 75.60 146.41 C 74.05 151.84 72.69 157.33 71.12 162.76 C 73.91 167.34 79.33 171.08 78.66 177.05 C 78.75 180.71 75.98 183.43 72.99 185.06 C 71.60 187.60 70.08 190.57 66.98 191.29 C 62.61 192.23 58.72 188.57 57.63 184.59 C 56.39 180.32 52.57 176.73 53.24 172.02 C 54.21 168.91 57.62 167.69 60.21 166.26 C 61.90 163.27 64.44 160.71 65.20 157.27 C 64.62 156.96 63.47 156.34 62.89 156.04 C 61.41 152.03 60.54 147.83 60.48 143.55 C 57.25 139.67 53.27 135.37 53.20 130.06 C 55.31 126.58 59.39 125.03 62.76 123.06 C 62.51 122.05 62.31 121.04 62.15 120.02 C 62.67 118.22 64.80 117.79 66.18 116.86 C 66.30 115.50 66.42 114.15 66.53 112.79 C 65.08 112.80 63.63 112.82 62.18 112.83 C 61.90 112.31 61.33 111.28 61.05 110.76 C 57.33 113.91 54.52 117.86 51.97 121.98 C 54.02 121.77 56.07 121.62 58.12 121.51 C 55.58 125.96 51.33 129.10 47.09 131.81 C 44.67 128.70 38.04 125.76 36.32 130.99 C 37.18 131.77 38.04 132.55 38.90 133.32 C 38.11 135.95 37.47 138.68 36.01 141.04 C 34.37 143.57 31.72 145.14 29.27 146.79 C 27.97 144.82 26.67 142.58 24.28 141.80 C 18.67 139.92 12.02 143.65 10.57 149.37 C 8.43 158.10 7.79 167.19 8.63 176.14 C 2.78 167.71 0.21 157.17 0.20 147.00 C 0.11 138.35 5.05 130.79 10.62 124.60 C 17.28 117.49 26.98 114.30 33.52 107.06 C 33.30 111.39 33.24 116.30 36.80 119.41 C 37.54 118.66 38.32 117.94 39.14 117.27 C 41.47 117.04 42.59 120.54 44.89 120.20 C 47.65 117.87 49.93 114.98 51.58 111.76 C 47.82 112.64 43.36 112.46 40.75 109.22 C 38.22 106.53 37.94 102.75 38.15 99.26 C 29.31 103.07 20.43 107.03 12.60 112.71 C 11.14 113.80 9.52 114.64 7.80 115.25 C 8.26 113.69 9.03 112.23 10.40 111.31 C 16.73 106.28 24.04 102.63 31.42 99.42 C 34.53 97.96 38.43 97.91 40.69 95.04 C 33.26 90.76 25.21 87.66 16.95 85.42 C 13.58 84.38 9.92 83.95 7.00 81.80 C 19.49 81.90 31.34 86.94 42.09 92.90 C 43.86 91.68 44.76 89.58 46.02 87.89 C 40.36 77.28 34.77 66.49 31.53 54.85 C 28.48 43.43 29.11 31.37 31.37 19.87 C 31.72 17.79 32.60 15.87 33.68 14.08 C 41.87 21.72 47.05 31.91 51.01 42.23 C 52.85 35.96 54.79 29.66 58.00 23.93 C 61.03 28.77 63.04 34.25 63.39 39.98 C 64.61 54.42 63.08 69.22 58.05 82.85 C 58.68 82.79 59.94 82.66 60.57 82.60 C 61.57 74.36 62.53 66.08 64.74 58.06 C 69.74 37.95 82.26 20.38 97.52 6.68 C 100.14 4.03 103.73 2.64 106.35 0.00 M 102.55 6.20 C 79.65 24.73 66.31 53.24 63.51 82.26 C 65.46 82.39 67.42 82.48 69.37 82.26 C 80.38 75.08 88.32 64.14 94.91 52.96 C 102.96 38.17 109.95 20.96 105.90 3.91 C 104.70 4.55 103.56 5.29 102.55 6.20 M 34.52 19.94 C 33.81 25.96 32.14 31.97 32.80 38.08 C 33.52 46.93 35.11 55.75 37.90 64.19 C 40.57 70.77 43.52 77.29 47.27 83.35 L 47.27 83.74 C 47.95 84.81 48.64 85.88 49.32 86.95 C 50.40 86.45 51.47 85.94 52.54 85.44 C 53.42 72.91 53.23 60.14 49.62 48.01 C 47.12 40.52 44.40 32.79 39.68 26.44 C 37.98 24.29 37.00 21.35 34.52 19.94 M 56.12 35.11 C 54.77 38.98 53.19 42.83 52.50 46.88 C 53.44 50.73 54.29 54.60 55.14 58.48 L 54.98 58.93 C 55.94 65.72 57.02 72.71 55.61 79.51 C 55.77 79.54 56.09 79.59 56.25 79.62 C 60.45 65.88 62.37 51.03 59.97 36.80 C 59.69 34.38 59.25 31.98 58.75 29.60 C 57.27 31.09 56.63 33.12 56.12 35.11 M 77.37 85.57 C 78.11 86.35 78.84 87.14 79.56 87.93 C 80.55 89.16 81.70 90.24 82.97 91.18 C 85.93 89.73 88.36 92.37 89.51 94.82 C 94.72 93.58 99.69 91.52 104.75 89.80 C 120.90 84.11 136.32 74.85 147.06 61.32 C 146.27 61.35 144.67 61.41 143.88 61.44 C 120.26 64.34 97.71 73.44 77.37 85.57 M 56.12 86.62 C 56.20 88.14 57.91 88.57 58.90 89.40 C 60.26 88.09 61.60 86.77 62.95 85.46 C 60.73 86.14 58.42 86.41 56.12 86.62 M 65.14 87.31 L 65.52 87.36 C 63.14 89.16 60.88 91.13 58.72 93.20 C 59.99 96.62 61.08 100.11 61.76 103.69 L 61.97 103.67 C 62.37 106.04 62.93 108.38 63.69 110.66 C 66.43 109.52 69.20 108.30 71.58 106.50 C 72.50 105.31 70.48 104.73 69.93 103.93 C 68.24 102.42 68.75 99.95 68.92 97.96 C 69.88 96.91 70.90 95.91 71.85 94.85 C 75.02 95.04 74.23 90.47 76.92 89.38 C 75.94 87.70 74.53 86.13 72.67 85.45 C 70.02 85.12 67.61 86.60 65.14 87.31 M 48.10 90.28 C 50.66 90.21 53.45 90.90 54.78 93.30 C 57.74 96.81 56.31 101.60 56.50 105.75 C 56.94 105.59 57.82 105.25 58.27 105.09 C 59.05 99.95 55.29 95.27 56.75 90.14 C 54.11 89.36 49.98 87.47 48.10 90.28 M 76.59 93.50 C 76.61 94.09 76.63 95.25 76.65 95.83 C 77.28 94.93 77.17 92.94 78.89 93.50 C 80.43 94.11 80.06 91.10 79.06 91.48 C 77.91 91.56 77.39 92.84 76.59 93.50 M 44.39 93.86 C 43.97 95.08 45.81 96.19 45.26 97.58 C 44.17 97.02 43.08 96.45 42.00 95.86 C 40.76 97.78 39.18 99.75 39.51 102.20 C 39.54 102.62 39.59 103.45 39.62 103.87 C 40.03 108.46 44.79 110.56 48.77 111.16 C 44.94 107.05 44.67 100.62 47.50 95.90 C 48.24 94.30 50.28 93.90 51.05 92.33 C 48.80 92.49 46.23 92.32 44.39 93.86 M 84.33 93.12 C 84.02 94.46 84.58 94.97 86.02 94.64 C 86.32 93.30 85.76 92.79 84.33 93.12 M 49.97 96.04 C 47.00 99.25 47.40 104.07 48.30 108.03 C 53.82 106.69 55.97 100.12 53.54 95.32 C 52.30 95.31 50.82 94.82 49.97 96.04 M 77.78 97.94 C 76.50 100.42 76.03 103.22 75.20 105.87 C 76.60 105.42 78.11 105.01 79.09 103.83 C 79.62 102.36 79.47 100.71 80.14 99.28 C 81.07 97.93 82.51 96.89 82.93 95.24 C 81.03 95.71 78.81 96.04 77.78 97.94 M 71.18 100.44 L 72.74 100.37 C 72.77 101.02 72.83 102.34 72.86 103.00 C 73.38 101.89 73.27 100.63 73.34 99.44 L 74.49 99.36 C 74.51 98.81 74.55 97.69 74.57 97.14 C 72.60 97.12 71.88 98.91 71.18 100.44 M 82.71 106.03 C 84.58 111.00 93.10 108.02 93.60 113.85 C 95.67 113.27 98.64 113.06 98.96 110.40 C 95.54 109.61 91.97 108.95 88.99 106.99 C 87.00 105.64 86.02 103.34 84.86 101.33 C 83.34 102.30 81.37 104.07 82.71 106.03 M 51.81 110.59 C 53.54 111.18 55.27 111.76 56.99 112.36 C 57.93 110.74 58.87 109.11 59.83 107.50 C 58.14 107.67 56.46 107.60 54.80 107.31 C 53.68 108.29 52.65 109.37 51.81 110.59 M 68.13 111.34 C 68.45 112.17 68.77 113.00 69.10 113.84 C 68.73 114.85 68.38 115.86 68.03 116.88 C 69.71 117.03 71.33 116.60 72.88 115.99 C 72.33 114.04 72.36 112.00 72.72 110.02 C 71.15 110.33 69.62 110.77 68.13 111.34 M 16.25 124.28 C 10.64 129.35 4.91 135.31 3.64 143.08 C 2.88 149.71 3.26 156.74 6.10 162.88 C 5.81 144.73 14.46 125.53 30.68 116.46 C 30.64 115.85 30.55 114.62 30.51 114.01 C 26.26 118.15 20.42 120.06 16.25 124.28 M 101.43 113.73 C 98.50 116.23 94.21 116.70 91.18 119.31 C 86.40 121.65 82.92 125.93 81.95 131.21 L 81.68 131.48 C 79.83 139.52 79.93 148.03 81.95 156.03 C 82.62 152.70 82.26 149.25 83.12 145.94 C 83.92 141.46 85.93 137.36 87.60 133.17 C 90.12 130.79 91.62 127.56 94.14 125.17 C 97.40 121.37 101.97 119.19 105.95 116.28 C 104.63 115.43 103.27 114.65 101.86 113.96 L 101.62 114.38 C 101.57 114.22 101.48 113.89 101.43 113.73 M 67.49 118.38 C 66.46 119.16 65.09 119.71 64.56 120.98 C 65.16 121.92 65.80 122.84 66.46 123.74 C 68.88 121.59 72.04 120.56 75.24 120.37 C 75.24 119.86 75.24 118.84 75.23 118.33 C 72.73 119.42 70.02 119.35 67.49 118.38 M 25.71 123.80 C 23.18 126.27 20.26 128.59 18.84 131.93 C 17.36 133.43 16.25 135.30 16.06 137.44 C 14.66 137.89 14.28 139.51 13.47 140.56 C 16.25 139.70 18.99 138.35 21.96 138.53 C 25.36 138.90 28.61 140.33 31.15 142.62 C 33.19 140.44 35.04 138.03 35.93 135.13 C 32.33 131.59 34.09 125.68 38.81 124.34 C 40.59 125.01 42.44 125.53 44.35 125.65 C 45.36 126.40 46.37 127.16 47.40 127.91 C 49.07 126.51 51.13 125.45 52.17 123.45 C 50.31 124.42 48.58 125.60 46.83 126.75 C 46.02 126.05 45.20 125.35 44.37 124.66 C 42.33 124.43 40.33 123.47 38.25 123.77 C 36.05 122.46 34.15 120.74 32.05 119.28 C 29.57 120.16 27.69 122.15 25.71 123.80 M 70.93 124.08 C 69.65 125.65 72.61 126.77 73.55 125.56 C 74.71 124.01 71.89 122.81 70.93 124.08 M 92.51 131.99 C 90.16 135.26 88.32 138.89 87.13 142.74 C 88.93 141.50 90.77 140.26 92.21 138.59 C 95.81 137.71 99.98 136.18 103.26 138.84 C 103.51 135.99 106.59 133.36 105.12 130.50 C 102.88 128.73 101.00 126.57 99.43 124.19 C 96.59 126.27 94.38 129.04 92.51 131.99 M 55.67 131.00 C 57.15 133.82 58.28 136.96 60.70 139.16 C 61.31 134.35 62.42 129.57 64.60 125.21 C 61.56 127.03 58.24 128.51 55.67 131.00 M 66.67 127.53 C 62.74 135.12 62.68 144.04 64.54 152.23 C 65.95 150.09 66.96 147.71 67.78 145.30 C 72.12 141.13 74.50 134.63 72.25 128.82 C 71.06 127.36 68.21 125.52 66.67 127.53 M 70.57 146.84 C 69.64 150.80 67.85 154.50 66.90 158.45 C 67.91 158.44 68.91 158.43 69.92 158.42 C 70.91 154.65 70.57 150.69 70.57 146.84 M 64.31 165.41 C 66.54 167.26 67.09 170.21 67.81 172.86 C 70.37 171.66 69.38 168.42 69.62 166.17 C 69.83 164.77 68.77 163.78 68.00 162.79 C 67.88 162.33 67.63 161.39 67.51 160.93 C 66.13 162.15 64.00 163.19 64.31 165.41 M 62.68 167.47 C 60.13 171.10 59.06 175.63 58.93 180.02 C 58.99 182.88 60.00 186.57 62.98 187.62 C 64.36 190.84 69.12 188.08 69.82 185.50 C 67.46 184.34 65.41 182.69 63.47 180.94 C 63.25 177.62 63.76 174.37 64.54 171.18 C 64.19 170.01 64.30 167.23 62.68 167.47 M 55.19 171.98 C 55.43 174.07 55.76 176.16 56.51 178.14 C 56.50 177.28 56.46 175.55 56.45 174.69 C 57.84 172.74 58.75 170.52 59.62 168.31 C 57.93 169.25 56.43 170.49 55.19 171.98 M 73.08 170.82 C 72.49 171.61 71.89 172.40 71.30 173.19 L 71.41 173.95 C 69.59 174.55 67.70 174.95 65.78 174.97 C 65.98 175.34 66.39 176.06 66.59 176.43 C 66.20 178.02 66.37 179.54 67.11 181.00 C 67.75 181.58 68.39 182.17 69.04 182.75 C 69.55 182.75 70.57 182.77 71.08 182.77 C 76.87 182.44 78.16 173.05 73.08 170.82 Z" />
<path fill="#a37e74" opacity="1.00" d=" M 102.55 6.20 C 103.56 5.29 104.70 4.55 105.90 3.91 C 109.95 20.96 102.96 38.17 94.91 52.96 C 88.32 64.14 80.38 75.08 69.37 82.26 C 68.67 81.98 67.26 81.42 66.56 81.14 C 80.97 60.76 92.81 38.44 100.48 14.64 C 101.36 11.89 102.54 9.15 102.55 6.20 Z" />
<path fill="#f1d3b1" opacity="1.00" d=" M 63.51 82.26 C 66.31 53.24 79.65 24.73 102.55 6.20 C 102.54 9.15 101.36 11.89 100.48 14.64 C 92.81 38.44 80.97 60.76 66.56 81.14 C 67.26 81.42 68.67 81.98 69.37 82.26 C 67.42 82.48 65.46 82.39 63.51 82.26 Z" />
<path fill="#f1d3b1" opacity="1.00" d=" M 34.52 19.94 C 37.00 21.35 37.98 24.29 39.68 26.44 C 38.29 25.80 36.96 25.04 35.66 24.24 C 32.05 29.95 37.14 35.78 39.45 40.90 C 46.30 53.94 46.84 68.96 47.27 83.35 C 43.52 77.29 40.57 70.77 37.90 64.19 C 35.11 55.75 33.52 46.93 32.80 38.08 C 32.14 31.97 33.81 25.96 34.52 19.94 Z" />
<path fill="#b18d7f" opacity="1.00" d=" M 35.66 24.24 C 36.96 25.04 38.29 25.80 39.68 26.44 C 44.40 32.79 47.12 40.52 49.62 48.01 C 49.29 48.47 48.64 49.39 48.32 49.86 C 46.97 45.31 45.67 40.67 42.99 36.70 C 41.61 37.92 40.41 39.32 39.45 40.90 C 37.14 35.78 32.05 29.95 35.66 24.24 Z" />
<path fill="#9b7067" opacity="1.00" d=" M 56.12 35.11 C 56.63 33.12 57.27 31.09 58.75 29.60 C 59.25 31.98 59.69 34.38 59.97 36.80 C 60.11 39.89 59.91 42.99 59.76 46.08 C 59.25 44.00 58.80 41.80 57.08 40.34 C 56.96 38.57 56.95 36.74 56.12 35.11 Z" />
<path fill="#ae8a7e" opacity="1.00" d=" M 52.50 46.88 C 53.19 42.83 54.77 38.98 56.12 35.11 C 56.95 36.74 56.96 38.57 57.08 40.34 C 56.16 46.36 57.59 52.73 55.14 58.48 C 54.29 54.60 53.44 50.73 52.50 46.88 Z" />
<path fill="#a68176" opacity="1.00" d=" M 39.45 40.90 C 40.41 39.32 41.61 37.92 42.99 36.70 C 45.67 40.67 46.97 45.31 48.32 49.86 C 48.64 49.39 49.29 48.47 49.62 48.01 C 53.23 60.14 53.42 72.91 52.54 85.44 C 51.47 85.94 50.40 86.45 49.32 86.95 C 48.64 85.88 47.95 84.81 47.27 83.74 L 47.27 83.35 C 46.84 68.96 46.30 53.94 39.45 40.90 Z" />
<path fill="#845855" opacity="1.00" d=" M 59.97 36.80 C 62.37 51.03 60.45 65.88 56.25 79.62 C 56.09 79.59 55.77 79.54 55.61 79.51 C 57.02 72.71 55.94 65.72 54.98 58.93 L 55.14 58.48 C 57.59 52.73 56.16 46.36 57.08 40.34 C 58.80 41.80 59.25 44.00 59.76 46.08 C 59.91 42.99 60.11 39.89 59.97 36.80 Z" />
<path fill="#f1d3b1" opacity="1.00" d=" M 77.37 85.57 C 97.71 73.44 120.26 64.34 143.88 61.44 C 142.89 62.29 141.85 63.09 140.76 63.81 C 124.28 72.95 106.75 80.20 88.63 85.37 C 85.57 86.10 82.52 86.88 79.56 87.93 C 78.84 87.14 78.11 86.35 77.37 85.57 Z" />
<path fill="#a47f75" opacity="1.00" d=" M 143.88 61.44 C 144.67 61.41 146.27 61.35 147.06 61.32 C 136.32 74.85 120.90 84.11 104.75 89.80 C 99.69 91.52 94.72 93.58 89.51 94.82 C 88.36 92.37 85.93 89.73 82.97 91.18 C 81.70 90.24 80.55 89.16 79.56 87.93 C 82.52 86.88 85.57 86.10 88.63 85.37 C 106.75 80.20 124.28 72.95 140.76 63.81 C 141.85 63.09 142.89 62.29 143.88 61.44 Z" />
<path fill="#ffd17a" opacity="1.00" d=" M 56.12 86.62 C 58.42 86.41 60.73 86.14 62.95 85.46 C 61.60 86.77 60.26 88.09 58.90 89.40 C 57.91 88.57 56.20 88.14 56.12 86.62 Z" />
<path fill="#a6512f" opacity="1.00" d=" M 65.14 87.31 C 67.61 86.60 70.02 85.12 72.67 85.45 C 74.53 86.13 75.94 87.70 76.92 89.38 C 74.23 90.47 75.02 95.04 71.85 94.85 C 72.85 93.50 73.50 91.94 74.04 90.36 C 71.27 89.19 68.58 87.61 65.52 87.36 L 65.14 87.31 Z" />
<path fill="#ffd17b" opacity="1.00" d=" M 58.72 93.20 C 60.88 91.13 63.14 89.16 65.52 87.36 C 68.58 87.61 71.27 89.19 74.04 90.36 C 73.50 91.94 72.85 93.50 71.85 94.85 C 70.90 95.91 69.88 96.91 68.92 97.96 C 66.93 99.71 66.08 102.10 66.42 104.72 C 66.21 105.06 65.79 105.73 65.58 106.07 C 65.56 105.36 65.53 103.95 65.51 103.24 C 64.63 103.35 62.86 103.56 61.97 103.67 L 61.76 103.69 C 61.08 100.11 59.99 96.62 58.72 93.20 Z" />
<path fill="#766e6d" opacity="1.00" d=" M 48.10 90.28 C 49.98 87.47 54.11 89.36 56.75 90.14 C 55.29 95.27 59.05 99.95 58.27 105.09 C 57.82 105.25 56.94 105.59 56.50 105.75 C 56.31 101.60 57.74 96.81 54.78 93.30 C 53.45 90.90 50.66 90.21 48.10 90.28 Z" />
<path fill="#e4d5d3" opacity="1.00" d=" M 76.59 93.50 C 77.39 92.84 77.91 91.56 79.06 91.48 C 80.06 91.10 80.43 94.11 78.89 93.50 C 77.17 92.94 77.28 94.93 76.65 95.83 C 76.63 95.25 76.61 94.09 76.59 93.50 Z" />
<path fill="#ffd17a" opacity="1.00" d=" M 44.39 93.86 C 46.23 92.32 48.80 92.49 51.05 92.33 C 50.28 93.90 48.24 94.30 47.50 95.90 C 44.67 100.62 44.94 107.05 48.77 111.16 C 44.79 110.56 40.03 108.46 39.62 103.87 C 42.37 105.23 42.12 100.80 39.51 102.20 C 39.18 99.75 40.76 97.78 42.00 95.86 C 43.08 96.45 44.17 97.02 45.26 97.58 C 45.81 96.19 43.97 95.08 44.39 93.86 M 43.18 100.11 C 43.41 103.43 46.14 98.51 43.18 100.11 Z" />
<path fill="#5a5252" opacity="1.00" d=" M 84.33 93.12 C 85.76 92.79 86.32 93.30 86.02 94.64 C 84.58 94.97 84.02 94.46 84.33 93.12 Z" />
<path fill="#464650" opacity="1.00" d=" M 49.97 96.04 C 50.82 94.82 52.30 95.31 53.54 95.32 C 55.97 100.12 53.82 106.69 48.30 108.03 C 47.40 104.07 47.00 99.25 49.97 96.04 Z" />
<path fill="#504344" opacity="1.00" d=" M 77.78 97.94 C 78.81 96.04 81.03 95.71 82.93 95.24 C 82.51 96.89 81.07 97.93 80.14 99.28 C 79.47 100.71 79.62 102.36 79.09 103.83 C 78.11 105.01 76.60 105.42 75.20 105.87 C 76.03 103.22 76.50 100.42 77.78 97.94 Z" />
<path fill="#e4d5d3" opacity="1.00" d=" M 71.18 100.44 C 71.88 98.91 72.60 97.12 74.57 97.14 C 74.55 97.69 74.51 98.81 74.49 99.36 L 73.34 99.44 C 73.27 100.63 73.38 101.89 72.86 103.00 C 72.83 102.34 72.77 101.02 72.74 100.37 L 71.18 100.44 Z" />
<path fill="#b7673c" opacity="1.00" d=" M 66.42 104.72 C 66.08 102.10 66.93 99.71 68.92 97.96 C 68.75 99.95 68.24 102.42 69.93 103.93 C 70.48 104.73 72.50 105.31 71.58 106.50 C 69.20 108.30 66.43 109.52 63.69 110.66 C 62.93 108.38 62.37 106.04 61.97 103.67 C 62.86 103.56 64.63 103.35 65.51 103.24 C 65.53 103.95 65.56 105.36 65.58 106.07 C 65.79 105.73 66.21 105.06 66.42 104.72 Z" />
<path fill="#fffac1" opacity="1.00" d=" M 43.18 100.11 C 46.14 98.51 43.41 103.43 43.18 100.11 Z" />
<path fill="#fff8e3" opacity="1.00" d=" M 39.51 102.20 C 42.12 100.80 42.37 105.23 39.62 103.87 C 39.59 103.45 39.54 102.62 39.51 102.20 Z" />
<path fill="#393a42" opacity="1.00" d=" M 82.71 106.03 C 81.37 104.07 83.34 102.30 84.86 101.33 C 86.02 103.34 87.00 105.64 88.99 106.99 C 91.97 108.95 95.54 109.61 98.96 110.40 C 98.64 113.06 95.67 113.27 93.60 113.85 C 93.10 108.02 84.58 111.00 82.71 106.03 Z" />
<path fill="#b46a3e" opacity="1.00" d=" M 51.81 110.59 C 52.65 109.37 53.68 108.29 54.80 107.31 C 56.46 107.60 58.14 107.67 59.83 107.50 C 58.87 109.11 57.93 110.74 56.99 112.36 C 55.27 111.76 53.54 111.18 51.81 110.59 Z" />
<path fill="#4e4745" opacity="1.00" d=" M 68.13 111.34 C 69.62 110.77 71.15 110.33 72.72 110.02 C 72.36 112.00 72.33 114.04 72.88 115.99 C 71.33 116.60 69.71 117.03 68.03 116.88 C 68.38 115.86 68.73 114.85 69.10 113.84 C 68.77 113.00 68.45 112.17 68.13 111.34 Z" />
<path fill="#ffd67e" opacity="1.00" d=" M 16.25 124.28 C 20.42 120.06 26.26 118.15 30.51 114.01 C 30.55 114.62 30.64 115.85 30.68 116.46 C 14.46 125.53 5.81 144.73 6.10 162.88 C 3.26 156.74 2.88 149.71 3.64 143.08 C 4.91 135.31 10.64 129.35 16.25 124.28 Z" />
<path fill="#ffd97f" opacity="1.00" d=" M 101.43 113.73 C 101.48 113.89 101.57 114.22 101.62 114.38 C 97.88 119.21 92.56 122.60 88.82 127.49 C 88.35 124.48 89.06 121.54 91.18 119.31 C 94.21 116.70 98.50 116.23 101.43 113.73 Z" />
<path fill="#b26a3e" opacity="1.00" d=" M 101.62 114.38 L 101.86 113.96 C 103.27 114.65 104.63 115.43 105.95 116.28 C 101.97 119.19 97.40 121.37 94.14 125.17 C 91.62 127.56 90.12 130.79 87.60 133.17 C 88.03 131.41 88.43 129.63 88.76 127.85 C 88.77 127.76 88.81 127.58 88.82 127.49 C 92.56 122.60 97.88 119.21 101.62 114.38 Z" />
<path fill="#f0b168" opacity="1.00" d=" M 67.49 118.38 C 70.02 119.35 72.73 119.42 75.23 118.33 C 75.24 118.84 75.24 119.86 75.24 120.37 C 72.04 120.56 68.88 121.59 66.46 123.74 C 65.80 122.84 65.16 121.92 64.56 120.98 C 65.09 119.71 66.46 119.16 67.49 118.38 Z" />
<path fill="#4d4243" opacity="1.00" d=" M 25.71 123.80 C 27.69 122.15 29.57 120.16 32.05 119.28 C 34.15 120.74 36.05 122.46 38.25 123.77 C 35.68 124.41 33.48 125.90 31.62 127.74 C 26.83 126.80 22.31 128.67 18.84 131.93 C 20.26 128.59 23.18 126.27 25.71 123.80 Z" />
<path fill="#ffffff" opacity="1.00" d=" M 81.95 131.21 C 82.92 125.93 86.40 121.65 91.18 119.31 C 89.06 121.54 88.35 124.48 88.82 127.49 C 88.81 127.58 88.77 127.76 88.76 127.85 C 85.93 124.74 84.04 129.73 81.95 131.21 Z" />
<path fill="#c9bcba" opacity="1.00" d=" M 31.62 127.74 C 33.48 125.90 35.68 124.41 38.25 123.77 C 40.33 123.47 42.33 124.43 44.37 124.66 C 45.20 125.35 46.02 126.05 46.83 126.75 C 48.58 125.60 50.31 124.42 52.17 123.45 C 51.13 125.45 49.07 126.51 47.40 127.91 C 46.37 127.16 45.36 126.40 44.35 125.65 C 42.44 125.53 40.59 125.01 38.81 124.34 C 34.09 125.68 32.33 131.59 35.93 135.13 C 35.04 138.03 33.19 140.44 31.15 142.62 C 28.61 140.33 25.36 138.90 21.96 138.53 C 18.99 138.35 16.25 139.70 13.47 140.56 C 14.28 139.51 14.66 137.89 16.06 137.44 C 19.00 136.95 22.01 136.38 24.98 136.86 C 27.56 137.29 29.64 138.97 31.83 140.25 C 34.73 136.35 31.37 132.01 31.62 127.74 Z" />
<path fill="#766e6d" opacity="1.00" d=" M 70.93 124.08 C 71.89 122.81 74.71 124.01 73.55 125.56 C 72.61 126.77 69.65 125.65 70.93 124.08 Z" />
<path fill="#564c4d" opacity="1.00" d=" M 92.51 131.99 C 94.38 129.04 96.59 126.27 99.43 124.19 C 101.00 126.57 102.88 128.73 105.12 130.50 C 104.53 131.42 103.96 132.35 103.40 133.29 C 99.81 132.24 95.94 133.71 92.51 131.99 Z" />
<path fill="#ffd27c" opacity="1.00" d=" M 55.67 131.00 C 58.24 128.51 61.56 127.03 64.60 125.21 C 62.42 129.57 61.31 134.35 60.70 139.16 C 58.28 136.96 57.15 133.82 55.67 131.00 Z" />
<path fill="#cd814c" opacity="1.00" d=" M 66.67 127.53 C 68.21 125.52 71.06 127.36 72.25 128.82 C 74.50 134.63 72.12 141.13 67.78 145.30 C 68.68 139.84 69.82 134.41 70.44 128.90 C 69.18 128.45 67.92 127.99 66.67 127.53 Z" />
<path fill="#fed07a" opacity="1.00" d=" M 81.95 131.21 C 84.04 129.73 85.93 124.74 88.76 127.85 C 88.43 129.63 88.03 131.41 87.60 133.17 C 85.93 137.36 83.92 141.46 83.12 145.94 C 82.26 149.25 82.62 152.70 81.95 156.03 C 79.93 148.03 79.83 139.52 81.68 131.48 L 81.95 131.21 Z" />
<path fill="#6c6564" opacity="1.00" d=" M 18.84 131.93 C 22.31 128.67 26.83 126.80 31.62 127.74 C 31.37 132.01 34.73 136.35 31.83 140.25 C 29.64 138.97 27.56 137.29 24.98 136.86 C 22.01 136.38 19.00 136.95 16.06 137.44 C 16.25 135.30 17.36 133.43 18.84 131.93 Z" />
<path fill="#ffd27b" opacity="1.00" d=" M 64.54 152.23 C 62.68 144.04 62.74 135.12 66.67 127.53 C 67.92 127.99 69.18 128.45 70.44 128.90 C 69.82 134.41 68.68 139.84 67.78 145.30 C 66.96 147.71 65.95 150.09 64.54 152.23 Z" />
<path fill="#e4d5d3" opacity="1.00" d=" M 103.40 133.29 C 103.96 132.35 104.53 131.42 105.12 130.50 C 106.59 133.36 103.51 135.99 103.26 138.84 C 99.98 136.18 95.81 137.71 92.21 138.59 L 90.83 138.76 C 94.09 136.40 98.01 135.21 102.05 135.67 C 102.39 135.08 103.06 133.89 103.40 133.29 Z" />
<path fill="#6d6766" opacity="1.00" d=" M 87.13 142.74 C 88.32 138.89 90.16 135.26 92.51 131.99 C 95.94 133.71 99.81 132.24 103.40 133.29 C 103.06 133.89 102.39 135.08 102.05 135.67 C 98.01 135.21 94.09 136.40 90.83 138.76 L 92.21 138.59 C 90.77 140.26 88.93 141.50 87.13 142.74 Z" />
<path fill="#766e6d" opacity="1.00" d=" M 70.57 146.84 C 70.57 150.69 70.91 154.65 69.92 158.42 C 68.91 158.43 67.91 158.44 66.90 158.45 C 67.85 154.50 69.64 150.80 70.57 146.84 Z" />
<path fill="#c9bcba" opacity="1.00" d=" M 64.31 165.41 C 64.00 163.19 66.13 162.15 67.51 160.93 C 67.63 161.39 67.88 162.33 68.00 162.79 C 66.95 163.90 65.67 164.73 64.31 165.41 Z" />
<path fill="#43434c" opacity="1.00" d=" M 64.31 165.41 C 65.67 164.73 66.95 163.90 68.00 162.79 C 68.77 163.78 69.83 164.77 69.62 166.17 C 69.38 168.42 70.37 171.66 67.81 172.86 C 67.09 170.21 66.54 167.26 64.31 165.41 Z" />
<path fill="#998f8e" opacity="1.00" d=" M 62.68 167.47 C 64.30 167.23 64.19 170.01 64.54 171.18 C 63.76 174.37 63.25 177.62 63.47 180.94 C 63.37 183.36 63.86 185.73 64.78 187.96 C 64.33 187.87 63.43 187.70 62.98 187.62 C 60.00 186.57 58.99 182.88 58.93 180.02 C 59.06 175.63 60.13 171.10 62.68 167.47 Z" />
<path fill="#c9bcba" opacity="1.00" d=" M 55.19 171.98 C 56.43 170.49 57.93 169.25 59.62 168.31 C 58.75 170.52 57.84 172.74 56.45 174.69 C 56.46 175.55 56.50 177.28 56.51 178.14 C 55.76 176.16 55.43 174.07 55.19 171.98 Z" />
<path fill="#504345" opacity="1.00" d=" M 73.08 170.82 C 78.16 173.05 76.87 182.44 71.08 182.77 L 71.33 181.94 C 72.16 179.34 71.83 176.60 71.41 173.95 L 71.30 173.19 C 71.89 172.40 72.49 171.61 73.08 170.82 Z" />
<path fill="#655e5d" opacity="1.00" d=" M 65.78 174.97 C 67.70 174.95 69.59 174.55 71.41 173.95 C 71.83 176.60 72.16 179.34 71.33 181.94 C 70.80 180.26 67.85 180.99 69.04 182.75 C 68.39 182.17 67.75 181.58 67.11 181.00 C 69.30 179.53 68.23 177.65 66.59 176.43 C 66.39 176.06 65.98 175.34 65.78 174.97 Z" />
<path fill="#e4d5d3" opacity="1.00" d=" M 66.59 176.43 C 68.23 177.65 69.30 179.53 67.11 181.00 C 66.37 179.54 66.20 178.02 66.59 176.43 Z" />
<path fill="#302728" opacity="1.00" d=" M 63.47 180.94 C 65.41 182.69 67.46 184.34 69.82 185.50 C 69.12 188.08 64.36 190.84 62.98 187.62 C 63.43 187.70 64.33 187.87 64.78 187.96 C 63.86 185.73 63.37 183.36 63.47 180.94 Z" />
<path fill="#ada19f" opacity="1.00" d=" M 69.04 182.75 C 67.85 180.99 70.80 180.26 71.33 181.94 L 71.08 182.77 C 70.57 182.77 69.55 182.75 69.04 182.75 Z" />
<path fill="#000000" opacity="1.00" d=" M 19.45 204.75 C 42.25 202.81 65.17 203.02 88.02 203.72 C 95.88 204.49 103.93 204.24 111.60 206.33 C 111.71 206.71 111.94 207.49 112.05 207.87 C 98.22 210.69 84.00 210.57 69.95 210.83 C 52.27 210.89 34.55 211.06 16.95 209.17 C 14.27 208.74 11.42 208.61 9.09 207.06 C 12.24 205.25 15.96 205.28 19.45 204.75 Z" />
</svg>
