<?xml version="1.0" encoding="UTF-8" ?>
<!DOCTYPE svg PUBLIC "-//W3C//DTD SVG 1.1//EN" "http://www.w3.org/Graphics/SVG/1.1/DTD/svg11.dtd">
<svg width="271pt" height="357pt" viewBox="0 0 271 357" version="1.1" xmlns="http://www.w3.org/2000/svg">
<path fill="#000000" opacity="1.00" d=" M 47.61 0.00 L 49.94 0.00 C 49.58 11.31 48.65 22.60 48.76 33.92 C 48.92 35.17 49.32 36.37 50.07 37.40 C 51.50 38.47 52.96 39.50 54.42 40.52 C 53.77 41.81 53.11 43.10 52.24 44.26 C 50.26 46.10 47.41 47.90 48.46 51.04 C 49.06 56.53 48.45 62.11 46.56 67.31 C 45.83 69.51 45.02 71.68 44.29 73.89 C 44.12 74.44 43.77 75.56 43.60 76.12 C 45.90 80.01 49.36 83.08 51.40 87.14 C 51.71 88.24 52.03 89.34 52.37 90.44 C 53.36 90.50 54.36 90.58 55.35 90.65 C 53.15 94.10 49.17 95.03 45.59 96.35 C 42.64 97.59 39.78 99.08 37.18 100.97 C 35.42 102.65 37.42 104.60 38.34 106.13 C 41.12 110.10 44.27 113.81 47.89 117.04 C 49.55 118.71 51.64 120.43 51.77 122.98 C 52.13 125.66 50.82 128.16 50.43 130.76 C 50.60 132.29 52.31 132.88 53.21 133.90 C 53.32 130.20 53.69 126.37 55.80 123.21 C 56.83 122.14 57.92 121.12 59.00 120.11 C 57.82 116.22 55.94 112.47 52.27 110.38 C 50.16 108.25 47.67 106.04 47.10 102.96 C 46.58 100.58 49.26 99.64 51.01 99.03 C 54.32 98.05 57.70 97.13 60.56 95.09 C 58.10 91.36 54.73 88.42 51.42 85.48 C 51.19 84.71 50.95 83.95 50.71 83.19 C 50.15 78.74 50.47 74.25 50.94 69.81 C 51.08 68.58 51.20 67.34 51.30 66.11 C 51.35 65.43 51.45 64.07 51.50 63.40 C 52.20 60.15 52.77 56.87 53.71 53.68 C 54.49 50.92 57.35 49.72 59.50 48.21 C 58.93 45.93 58.35 43.65 57.76 41.38 C 57.00 38.32 56.33 35.24 55.78 32.13 C 55.16 28.60 54.24 25.14 53.56 21.62 C 53.15 18.73 52.63 15.86 52.14 12.98 L 52.06 12.37 C 51.65 8.25 51.48 4.12 51.17 0.00 L 52.85 0.00 C 53.79 7.65 54.98 15.25 56.11 22.88 C 58.66 22.53 61.19 22.02 63.70 21.46 C 62.74 25.90 61.09 30.19 58.59 33.99 C 59.99 39.10 60.89 44.33 62.43 49.40 C 60.56 50.88 58.50 52.10 56.65 53.62 C 55.93 55.43 55.69 57.40 55.27 59.30 C 57.45 59.99 59.74 60.48 61.69 61.75 C 60.74 65.89 54.03 66.31 53.56 70.89 C 53.27 74.92 52.51 79.23 53.86 83.13 C 57.01 87.24 61.71 90.10 63.77 95.06 C 62.27 96.85 60.63 98.54 58.89 100.10 C 58.42 102.87 58.73 105.98 57.01 108.38 C 54.03 106.82 53.40 102.42 49.80 101.89 C 50.85 105.64 53.87 108.22 56.94 110.36 C 59.38 111.89 60.15 115.00 62.57 116.55 C 64.80 118.06 67.12 119.46 69.28 121.08 C 66.44 123.06 63.07 124.15 59.59 123.61 C 56.50 126.10 55.96 130.13 56.38 133.85 C 60.83 132.76 65.45 131.02 70.06 132.20 C 71.88 132.52 73.79 133.93 73.80 135.93 C 73.47 140.22 71.79 144.25 70.51 148.32 C 70.80 148.98 71.37 150.31 71.66 150.97 C 75.68 148.81 79.84 146.92 84.18 145.50 C 85.91 145.21 86.91 143.74 87.96 142.50 C 83.96 141.13 80.40 138.66 78.23 134.97 C 80.00 133.57 81.81 132.21 83.65 130.90 C 83.11 129.53 82.56 128.17 81.98 126.81 C 84.20 123.79 86.48 120.81 88.89 117.94 C 93.10 113.10 93.78 106.45 96.06 100.68 C 98.16 99.58 99.22 103.72 100.67 104.99 C 102.25 100.70 103.53 96.32 105.19 92.06 C 106.89 94.10 108.06 96.51 109.00 98.99 C 110.42 96.19 111.89 93.42 113.41 90.68 C 116.20 92.71 116.76 96.33 117.91 99.37 C 124.41 90.17 132.92 82.48 142.44 76.52 C 145.00 74.89 147.92 74.02 150.80 73.16 C 148.42 83.70 144.19 93.76 139.19 103.32 C 135.80 109.49 132.37 116.10 126.25 120.01 C 126.59 120.46 127.25 121.36 127.59 121.81 C 119.41 126.12 112.40 132.19 105.13 137.80 C 101.60 139.94 98.33 142.46 95.15 145.07 C 92.59 146.81 90.00 148.53 87.13 149.72 C 87.53 147.23 88.76 145.04 90.12 142.96 C 88.90 144.37 87.72 145.80 86.56 147.25 C 84.96 148.98 83.36 150.72 81.87 152.54 L 81.17 153.30 C 84.91 153.27 89.56 150.86 92.69 153.81 C 88.81 154.42 84.46 154.79 81.88 158.18 C 81.54 158.60 80.85 159.44 80.50 159.87 C 82.33 160.51 84.16 161.14 85.99 161.78 C 87.45 160.06 88.92 158.35 90.45 156.68 C 94.87 151.67 99.45 146.79 103.66 141.60 C 103.74 141.52 103.92 141.37 104.00 141.29 C 108.01 138.20 111.21 134.18 115.47 131.40 C 119.59 128.22 124.39 126.11 128.53 122.98 L 128.33 122.70 C 128.62 121.49 128.09 120.30 127.91 119.12 C 129.10 119.41 130.17 119.94 131.13 120.71 C 133.64 117.80 136.39 114.90 140.04 113.46 C 142.67 114.57 141.19 118.00 141.44 120.16 C 141.97 120.37 143.02 120.79 143.55 121.01 C 143.76 125.17 142.77 129.28 141.65 133.27 C 147.38 132.76 152.54 135.55 157.91 137.01 C 161.16 130.15 164.95 123.03 171.02 118.29 L 172.46 118.65 C 172.60 121.89 171.49 124.99 170.56 128.04 C 169.16 132.39 167.59 136.91 164.28 140.21 C 162.49 141.89 160.49 143.33 158.75 145.06 C 166.84 142.78 175.29 143.43 183.47 144.84 C 187.13 145.59 191.18 145.59 194.31 147.89 C 189.55 150.65 184.27 152.29 179.00 153.73 C 172.01 155.59 164.28 155.42 157.89 151.76 C 157.61 153.34 157.32 154.92 157.06 156.51 C 158.20 157.31 159.87 157.59 160.53 158.94 C 160.42 160.96 158.91 162.56 158.08 164.34 C 161.67 167.17 165.32 169.94 168.88 172.81 C 177.93 169.68 187.46 167.94 197.03 167.79 C 198.47 167.72 199.79 168.10 200.99 168.92 C 199.68 171.09 197.00 171.61 194.93 172.79 C 191.30 174.72 187.52 176.72 184.63 179.68 C 182.98 185.39 183.22 191.63 184.72 197.35 C 185.59 200.87 188.35 203.34 190.87 205.74 C 187.60 209.58 185.19 214.19 183.81 219.03 C 183.48 223.83 184.09 228.67 183.69 233.48 C 181.82 233.93 179.92 234.30 178.13 235.00 C 174.57 236.41 174.58 241.97 170.98 242.91 C 168.93 241.10 167.84 238.49 166.43 236.21 C 165.67 236.51 164.91 236.81 164.15 237.11 C 160.75 233.54 158.58 229.05 155.34 225.37 C 155.59 219.26 157.72 213.47 158.76 207.48 C 159.10 206.05 159.49 203.36 161.61 204.38 C 164.51 206.43 166.84 209.17 169.39 211.61 C 172.28 206.92 172.66 200.41 169.25 195.87 C 166.32 191.95 161.78 189.68 158.58 186.02 C 158.28 183.79 160.46 182.64 161.70 181.18 C 157.51 173.92 150.68 168.14 142.57 165.81 C 141.00 165.25 139.26 165.05 137.87 164.10 C 137.57 161.31 137.63 158.51 137.52 155.71 C 136.74 155.50 135.17 155.09 134.39 154.88 C 134.42 158.42 134.59 161.95 134.87 165.47 C 132.59 165.77 130.39 165.14 128.26 164.40 C 126.80 165.66 125.34 166.92 123.86 168.16 C 122.53 172.01 120.48 175.53 118.65 179.14 C 118.92 179.57 119.46 180.42 119.73 180.85 C 124.04 178.14 128.35 174.48 133.68 174.31 C 135.09 176.13 133.39 178.16 132.63 179.88 C 130.39 183.63 126.43 186.04 122.24 187.02 C 124.71 191.78 127.87 196.12 130.49 200.79 C 129.15 202.22 127.87 203.71 126.69 205.28 C 130.28 206.57 134.01 207.45 137.66 208.55 C 138.81 208.84 140.26 209.65 139.88 211.09 C 138.67 214.34 135.94 216.69 133.72 219.25 C 136.04 226.22 138.97 232.98 142.37 239.49 C 144.94 244.96 148.04 250.20 151.89 254.88 C 154.58 253.17 157.26 250.87 160.67 251.08 C 160.78 253.69 160.71 256.32 161.05 258.92 C 163.34 261.39 167.14 261.36 169.86 263.19 C 170.08 266.73 165.84 268.22 163.66 270.36 C 168.35 273.80 174.25 274.53 179.90 274.35 C 181.98 274.80 180.02 277.31 179.55 278.45 C 177.60 282.67 171.79 285.65 173.48 290.94 C 174.87 297.85 177.57 304.42 179.66 311.15 C 183.65 308.88 187.09 305.52 191.61 304.31 C 190.06 309.78 186.75 314.46 184.45 319.59 C 183.35 321.52 184.95 323.42 185.91 325.02 C 190.14 331.10 193.75 337.98 199.97 342.32 C 201.09 343.22 202.50 343.57 203.92 343.57 C 220.97 344.13 238.02 344.90 255.01 346.46 C 260.43 346.71 265.85 347.47 271.00 349.25 L 271.00 350.28 C 268.28 351.33 265.41 351.86 262.52 352.18 C 245.43 354.29 228.21 355.14 211.00 355.70 C 182.36 357.03 153.68 356.76 125.02 356.80 C 92.65 356.88 60.28 356.25 27.98 354.12 C 18.63 353.21 9.12 352.93 0.00 350.50 L 0.00 349.32 C 6.38 346.64 13.41 346.76 20.17 346.11 C 26.45 345.44 32.76 345.23 39.05 344.76 C 43.51 344.97 46.20 340.83 48.80 337.86 C 56.32 327.59 59.42 314.71 60.36 302.19 C 55.16 300.88 51.47 296.83 47.41 293.62 C 46.09 292.37 44.30 291.20 44.13 289.22 C 45.67 288.29 47.42 288.84 49.06 289.14 C 52.90 289.88 56.70 290.87 60.41 292.14 C 60.62 289.86 60.90 287.59 61.25 285.33 C 62.17 284.73 63.09 284.14 64.01 283.54 C 62.58 281.94 61.15 280.35 59.71 278.77 C 62.14 275.85 66.13 275.54 69.52 274.44 C 72.38 267.65 73.50 260.27 74.46 253.01 C 71.90 252.38 69.38 251.53 67.15 250.11 C 69.28 247.71 72.04 246.03 75.18 245.32 C 75.40 243.42 75.63 241.52 75.86 239.63 C 73.31 237.10 70.35 234.90 68.26 231.94 C 68.04 228.16 72.66 226.42 74.80 223.81 C 74.04 221.35 71.65 218.73 72.89 216.12 C 75.91 213.89 79.59 212.88 83.03 211.50 C 81.83 208.44 79.34 206.09 78.13 203.08 C 78.44 200.16 81.35 198.27 83.07 196.06 C 81.74 194.60 80.42 193.14 79.08 191.69 C 77.13 191.45 75.20 191.17 73.27 190.84 C 74.50 193.82 75.98 196.77 76.44 200.00 C 76.09 200.35 75.39 201.04 75.04 201.39 C 70.38 201.97 65.70 200.93 61.04 200.74 C 59.14 200.92 58.08 199.12 57.24 197.72 C 53.11 189.62 51.01 180.72 49.26 171.85 C 44.50 179.45 38.13 185.79 32.81 192.98 C 29.31 184.15 29.37 174.28 30.14 164.95 C 30.86 159.09 31.22 152.39 35.78 148.06 C 33.59 146.25 31.77 144.06 30.26 141.66 C 31.57 140.67 32.96 139.81 34.39 139.00 C 33.68 135.74 32.41 132.19 34.26 129.06 C 34.08 127.28 33.20 125.03 35.01 123.76 C 39.72 124.38 43.75 127.37 48.09 129.16 C 48.74 127.16 49.95 125.14 49.39 122.97 C 48.84 121.45 47.47 120.45 46.44 119.26 C 43.42 120.37 40.22 120.83 37.00 120.69 C 37.44 117.79 38.98 115.28 40.55 112.88 C 38.21 110.07 35.67 107.29 34.32 103.84 C 33.29 101.50 35.25 99.43 37.02 98.19 C 41.01 95.48 45.61 93.85 49.92 91.74 C 46.80 92.10 43.56 92.50 40.59 91.18 C 42.42 88.72 44.38 86.36 46.43 84.10 C 44.68 82.10 42.57 80.31 41.36 77.91 C 40.07 72.13 44.40 67.26 45.43 61.81 C 46.91 56.89 40.91 54.35 40.07 49.87 C 45.27 49.25 47.66 44.37 51.58 41.60 C 49.92 40.25 47.86 39.23 46.72 37.35 C 45.76 32.62 46.41 27.74 46.44 22.95 C 46.55 15.29 47.23 7.65 47.61 0.00 M 56.61 24.67 C 57.09 26.49 57.63 28.30 58.11 30.12 C 58.77 28.06 59.74 26.13 60.87 24.29 C 59.45 24.41 58.03 24.54 56.61 24.67 M 44.13 50.27 C 43.06 51.30 44.62 53.50 45.90 52.61 C 46.96 51.57 45.44 49.33 44.13 50.27 M 55.26 61.95 C 53.78 62.32 54.26 64.82 55.82 63.90 C 57.35 63.55 56.84 61.02 55.26 61.95 M 141.91 79.57 C 138.87 81.82 135.86 84.13 133.02 86.63 L 133.17 86.15 C 131.32 88.10 127.51 89.32 128.27 92.65 C 130.31 91.07 132.40 89.54 134.54 88.10 C 133.23 89.57 132.07 91.16 131.11 92.87 C 133.18 92.35 135.24 91.76 137.22 90.92 C 137.36 91.45 137.64 92.50 137.78 93.02 L 137.00 93.37 C 134.24 94.04 131.51 94.84 128.82 95.73 C 127.67 97.49 126.43 99.18 125.18 100.86 C 125.80 100.71 127.05 100.42 127.67 100.27 C 129.32 100.77 131.81 100.35 132.50 102.43 C 129.40 102.63 126.26 102.57 123.26 103.47 C 122.41 105.22 121.48 106.92 120.58 108.64 L 120.08 108.67 C 119.90 110.56 119.74 112.45 119.57 114.34 C 121.39 113.65 123.21 112.90 125.11 112.47 C 126.80 112.87 126.76 114.95 127.44 116.19 C 127.55 115.92 127.75 115.38 127.86 115.10 C 132.16 111.26 134.96 105.98 136.93 100.62 L 137.75 100.38 C 138.83 98.31 140.03 96.26 140.70 94.01 C 143.71 88.30 145.73 82.13 147.62 75.98 C 145.53 76.86 143.62 78.10 141.91 79.57 M 43.92 89.98 C 45.83 89.94 47.72 89.74 49.57 89.26 C 48.84 87.88 48.01 86.57 47.11 85.30 C 46.00 86.83 44.94 88.39 43.92 89.98 M 119.56 100.48 L 119.59 100.57 C 117.79 102.12 118.53 104.38 118.86 106.36 C 119.60 105.78 120.15 105.08 120.51 104.26 C 121.58 102.56 122.17 100.65 122.51 98.68 C 124.65 97.84 126.08 95.98 127.68 94.42 C 127.43 93.65 127.18 92.88 126.94 92.11 C 124.20 94.64 122.02 97.69 119.56 100.48 M 108.98 103.44 C 106.62 107.58 103.40 111.24 101.43 115.59 L 101.38 115.05 C 96.60 120.79 92.88 127.33 88.13 133.05 C 88.19 132.21 88.33 130.52 88.39 129.68 C 91.23 125.81 93.54 121.55 96.59 117.81 C 98.66 115.27 100.18 112.34 100.51 109.03 C 98.11 110.29 96.51 112.53 94.61 114.38 C 93.81 115.21 93.01 116.04 92.22 116.89 L 92.25 117.29 C 89.24 120.40 86.27 123.58 84.09 127.34 C 84.73 128.68 85.39 130.01 86.05 131.34 C 84.12 132.56 82.14 133.72 80.33 135.12 C 82.77 138.07 86.13 140.28 89.87 141.16 C 89.82 139.09 89.21 136.88 90.14 134.91 C 92.91 128.47 97.36 122.85 101.55 117.36 C 102.93 116.02 104.26 114.62 105.27 112.98 C 105.31 113.32 105.37 114.00 105.40 114.34 C 102.69 118.47 99.71 122.43 97.00 126.54 C 94.35 129.81 91.45 133.48 91.41 137.89 L 91.68 137.17 C 92.24 139.63 92.21 142.16 92.13 144.66 C 96.22 141.79 100.11 138.64 104.17 135.74 L 104.70 135.75 C 108.87 132.29 113.45 129.37 117.76 126.10 L 117.76 125.98 C 122.39 124.46 124.85 119.95 124.75 115.24 C 122.88 115.54 121.02 115.85 119.15 116.14 C 118.60 117.60 117.98 119.05 117.64 120.58 C 116.52 122.51 115.45 124.47 114.33 126.40 C 114.31 125.83 114.25 124.70 114.23 124.14 C 115.40 121.44 116.74 118.77 117.29 115.86 C 117.15 112.98 116.57 110.14 116.11 107.31 C 116.96 103.24 114.97 98.84 113.22 95.13 C 111.85 97.92 110.17 100.56 108.98 103.44 M 102.38 109.13 C 103.89 107.11 105.32 105.02 106.75 102.93 C 106.48 101.25 106.21 99.57 105.86 97.90 C 103.93 101.32 101.95 105.09 102.38 109.13 M 53.83 101.20 C 54.44 102.31 55.24 103.29 56.33 103.96 C 56.37 102.75 56.41 101.54 56.45 100.33 C 55.58 100.62 54.70 100.91 53.83 101.20 M 95.09 111.08 C 96.74 109.66 100.20 107.21 97.82 104.97 C 95.55 105.81 95.97 109.14 95.09 111.08 M 39.88 119.02 C 41.55 118.61 43.16 117.99 44.72 117.26 C 43.87 116.33 42.96 115.47 41.99 114.67 C 40.17 115.15 40.44 117.58 39.88 119.02 M 133.40 120.69 C 133.65 121.35 133.90 122.01 134.15 122.68 C 129.93 124.73 125.43 126.59 122.04 129.94 C 121.58 130.30 120.66 131.00 120.19 131.36 C 118.76 129.98 115.83 132.24 116.99 133.94 C 116.75 134.20 116.28 134.72 116.04 134.98 C 114.46 134.64 112.37 136.11 112.01 137.71 L 112.35 138.24 C 109.87 138.71 108.04 141.29 106.51 143.24 C 103.01 145.88 100.37 149.42 97.43 152.62 C 94.77 155.64 92.05 158.60 89.59 161.79 C 86.21 162.66 90.17 164.94 91.65 165.70 C 93.69 162.66 97.30 161.50 99.95 159.16 C 103.22 157.80 106.52 156.52 109.92 155.51 C 110.38 155.77 111.29 156.28 111.74 156.53 C 113.81 153.71 117.03 151.75 118.48 148.51 C 121.11 145.74 123.89 143.10 126.72 140.55 C 130.19 134.61 135.43 128.43 134.37 121.12 C 137.33 120.93 135.88 124.22 137.47 125.51 L 137.49 125.00 C 139.53 122.49 139.75 119.17 139.38 116.09 L 138.58 116.83 C 136.75 117.97 135.05 119.31 133.40 120.69 M 61.82 122.25 C 63.01 121.80 65.40 122.26 64.88 120.26 C 63.82 119.59 62.73 118.98 61.61 118.43 C 61.59 119.71 61.70 120.98 61.82 122.25 M 165.33 128.03 C 163.65 130.79 162.04 133.59 160.48 136.42 C 159.34 137.78 159.51 139.50 160.67 140.78 C 163.91 137.38 166.38 133.33 167.96 128.92 C 168.60 126.67 169.23 124.43 169.69 122.14 C 168.25 124.11 166.83 126.10 165.33 128.03 M 36.13 125.93 C 36.15 126.58 36.19 127.88 36.21 128.53 C 37.82 128.68 39.44 129.21 41.07 128.93 C 41.40 130.56 43.77 130.93 45.14 130.53 C 45.42 129.10 42.67 127.58 41.46 128.47 C 39.83 127.33 38.01 126.54 36.13 125.93 M 138.87 126.80 L 138.78 127.33 C 135.68 128.24 134.46 131.50 133.01 134.04 C 130.67 138.80 126.82 142.52 123.13 146.23 C 120.32 149.79 117.49 153.33 114.44 156.68 L 114.07 156.61 C 113.78 156.94 113.21 157.58 112.92 157.90 C 116.49 158.02 120.04 158.33 123.59 158.73 C 127.23 156.57 129.18 152.83 132.08 149.90 C 136.39 144.86 138.14 138.26 139.42 131.90 C 139.51 130.20 140.28 128.15 138.87 126.80 M 35.50 131.23 C 35.79 134.16 36.81 137.04 36.69 140.00 C 36.59 141.35 34.83 141.50 34.02 142.29 C 34.84 143.71 35.59 145.18 36.62 146.47 C 39.27 146.68 41.90 147.15 44.24 148.50 C 48.77 150.94 52.96 153.86 56.95 157.09 C 59.63 159.29 61.40 155.31 63.08 153.79 C 58.11 151.07 53.65 147.57 48.94 144.47 L 48.69 144.63 C 48.22 144.17 47.28 143.25 46.81 142.78 C 49.45 143.33 51.92 144.42 54.12 145.97 C 57.97 148.22 61.58 151.01 65.78 152.59 C 66.92 152.30 67.92 151.65 68.97 151.15 C 66.82 147.50 65.42 143.13 61.43 140.99 C 59.60 139.30 57.46 137.99 55.40 136.60 L 56.17 137.56 C 52.66 135.89 49.19 133.69 45.29 133.12 C 42.64 130.81 38.75 131.48 35.50 131.23 M 57.85 135.67 C 58.84 136.39 60.07 136.49 61.24 136.70 C 61.89 137.51 62.55 138.33 63.20 139.14 C 65.24 141.21 67.16 143.38 68.63 145.90 C 69.96 142.84 71.25 139.66 71.53 136.31 C 71.48 134.76 69.36 134.65 68.21 134.90 C 64.75 134.30 61.13 134.21 57.85 135.67 M 141.24 135.16 C 139.31 141.16 137.37 147.34 132.83 151.95 C 135.11 152.43 137.99 152.26 139.53 154.36 C 140.48 156.51 140.16 158.99 140.34 161.29 C 140.32 161.59 140.27 162.20 140.25 162.51 C 141.77 162.80 143.30 163.11 144.82 163.41 C 152.65 167.15 160.83 172.46 163.63 181.12 C 164.30 183.05 162.03 183.95 160.98 185.12 C 164.60 187.80 168.05 190.72 171.29 193.85 C 174.31 197.94 174.79 203.29 173.84 208.15 C 173.58 210.86 171.13 212.62 168.99 213.92 C 166.24 212.17 164.18 209.55 161.45 207.78 C 160.30 212.54 159.05 217.29 158.27 222.13 C 160.99 220.53 163.13 217.50 166.59 217.63 C 167.06 221.23 164.11 223.58 162.93 226.65 C 162.21 226.89 160.78 227.37 160.06 227.61 C 162.17 229.79 163.18 233.35 166.43 234.09 C 167.06 230.79 169.67 228.48 171.60 225.91 C 170.12 228.53 168.13 230.85 167.04 233.68 C 168.52 235.42 169.88 237.26 171.18 239.14 C 172.68 237.11 174.14 235.05 175.52 232.93 C 175.65 231.61 175.80 230.30 175.97 228.98 C 176.17 230.24 176.22 231.50 176.38 232.78 C 178.06 232.26 179.74 231.77 181.43 231.29 C 181.44 229.14 181.46 226.99 181.43 224.84 C 179.84 223.06 180.57 220.76 180.26 218.67 C 182.55 214.45 184.67 210.12 187.35 206.13 C 181.38 202.06 180.50 194.06 180.27 187.43 C 181.48 185.66 179.95 183.66 179.33 181.96 C 177.83 182.57 176.33 183.18 174.83 183.78 L 175.11 184.83 C 173.78 185.53 172.46 186.24 171.13 186.95 C 171.47 185.85 171.84 184.76 172.13 183.65 C 175.18 183.37 177.03 180.34 180.13 180.32 C 182.54 178.22 184.97 176.16 187.34 174.03 C 189.79 173.19 192.06 171.88 194.13 170.33 C 186.81 170.61 179.57 172.05 172.45 173.69 C 171.42 174.23 170.41 174.79 169.40 175.36 C 165.89 174.34 163.44 171.41 160.51 169.41 C 158.50 167.63 155.47 166.45 155.10 163.47 C 156.47 162.48 157.17 160.92 157.89 159.45 C 156.67 158.60 155.44 157.74 154.21 156.90 C 154.42 150.73 158.43 144.83 156.15 138.56 L 155.30 138.88 C 153.96 138.61 152.62 138.33 151.26 138.14 C 150.78 137.87 149.82 137.33 149.35 137.06 C 146.85 135.74 143.96 135.67 141.24 135.16 M 158.56 145.85 C 158.47 147.70 158.55 149.68 160.60 150.37 C 169.13 154.37 179.10 151.90 187.42 148.48 C 186.49 147.62 185.25 147.35 184.05 147.22 C 175.59 146.22 167.09 145.60 158.56 145.85 M 35.69 151.66 C 31.42 163.21 31.52 175.99 33.85 187.96 C 34.86 186.96 35.69 185.75 35.79 184.30 C 39.00 182.06 40.85 178.54 43.14 175.48 C 46.72 170.53 50.75 165.69 52.86 159.89 C 52.62 157.97 51.24 156.45 50.35 154.80 C 47.91 153.09 45.36 151.54 42.73 150.13 C 41.94 151.73 39.45 153.39 40.74 155.33 C 42.27 158.09 43.76 160.96 43.83 164.20 C 41.82 162.51 40.99 159.97 39.90 157.68 L 39.77 156.06 C 37.74 159.06 36.26 163.15 38.31 166.52 C 38.81 167.73 39.45 168.88 40.08 170.04 C 40.03 170.48 39.95 171.36 39.91 171.81 C 39.37 171.66 38.29 171.36 37.75 171.22 C 37.79 169.82 36.98 168.58 35.74 168.01 C 34.97 170.20 36.50 174.61 33.25 174.76 C 33.19 169.69 34.59 164.80 35.90 159.95 C 36.96 156.25 38.50 152.59 41.15 149.73 C 39.13 147.65 37.09 150.09 35.69 151.66 M 75.19 151.85 C 76.14 152.57 77.10 153.30 78.06 154.02 C 79.17 152.53 80.24 151.01 81.15 149.39 C 79.16 150.21 77.18 151.04 75.19 151.85 M 58.65 160.08 C 60.95 165.33 66.24 168.87 71.85 169.55 C 71.51 171.58 70.51 173.39 69.51 175.16 C 69.98 175.48 70.93 176.12 71.40 176.43 C 71.89 178.37 72.39 180.30 72.88 182.24 C 75.79 181.66 79.11 182.14 81.76 180.76 C 83.80 177.58 84.22 173.62 86.49 170.54 C 83.89 169.67 81.36 168.59 79.02 167.15 C 79.66 165.47 80.77 164.08 82.01 162.81 C 80.88 162.37 79.78 161.87 78.70 161.31 C 77.74 160.10 78.68 158.59 78.88 157.28 C 76.00 155.74 73.16 153.88 71.44 151.01 C 67.92 154.93 63.72 158.40 58.65 160.08 M 126.63 159.78 C 128.31 161.16 130.12 162.40 132.16 163.18 C 132.05 160.58 133.08 157.55 131.74 155.22 C 129.21 155.34 128.10 158.11 126.63 159.78 M 100.72 161.61 C 98.12 163.29 94.80 164.80 93.90 168.04 C 97.27 166.11 100.33 163.60 104.05 162.33 C 107.07 161.32 109.39 158.94 111.06 156.32 C 107.25 157.29 104.15 159.81 100.72 161.61 M 99.94 166.83 C 97.93 168.37 94.42 169.10 94.18 172.05 C 93.84 174.33 93.16 176.55 92.24 178.68 C 91.78 179.87 91.63 181.11 91.80 182.40 C 90.26 187.90 87.98 193.17 85.23 198.17 C 83.76 199.67 82.43 201.29 81.14 202.95 C 83.36 206.60 86.09 209.90 88.47 213.45 C 88.76 214.88 89.01 216.32 89.23 217.77 C 87.47 216.33 86.20 214.42 85.03 212.49 C 84.50 212.81 83.44 213.46 82.91 213.79 C 80.24 214.60 77.85 216.12 75.43 217.47 C 75.42 217.91 75.40 218.78 75.39 219.21 C 76.24 220.20 77.16 221.13 78.12 222.02 C 76.39 225.21 74.11 228.02 71.31 230.33 C 71.06 233.18 74.80 234.35 76.66 235.97 L 76.32 236.75 L 77.53 236.72 C 78.97 242.81 76.67 249.09 77.23 255.30 C 76.22 259.65 75.70 264.12 74.29 268.39 C 73.53 271.05 73.01 273.94 71.22 276.14 C 68.92 277.66 66.10 278.11 63.53 278.99 C 64.92 280.86 66.18 282.82 67.30 284.86 C 65.85 285.91 62.74 286.09 63.24 288.51 C 63.98 296.79 62.78 305.05 62.32 313.31 L 61.88 314.02 C 59.96 324.19 56.11 334.36 49.15 342.19 C 46.43 345.45 42.40 347.32 39.93 350.81 C 43.19 350.74 46.46 350.52 49.72 350.36 C 55.24 350.21 60.84 350.01 66.27 349.13 C 66.26 346.74 65.55 344.34 66.07 341.96 C 67.99 330.94 73.24 320.60 80.57 312.19 C 79.34 311.71 78.11 311.23 76.89 310.75 C 78.47 306.72 83.16 305.54 87.01 304.95 C 89.84 304.65 91.79 302.37 93.99 300.80 C 89.13 296.18 84.62 290.94 82.74 284.35 C 82.89 281.23 84.59 278.73 87.12 277.02 C 86.35 275.48 84.76 273.95 85.49 272.08 C 86.15 270.55 87.18 269.23 88.07 267.84 C 85.43 264.84 86.25 260.64 87.30 257.17 C 90.42 251.57 93.69 246.01 96.12 240.07 C 94.84 236.96 94.59 233.59 94.90 230.27 C 93.63 229.78 92.35 229.26 91.34 228.33 C 96.09 227.20 100.95 227.73 105.77 227.46 C 107.84 228.29 110.34 228.26 111.93 230.05 C 116.51 234.47 121.13 238.89 125.35 243.66 C 126.58 245.86 123.59 247.45 122.51 249.03 C 132.12 256.20 140.40 265.14 146.69 275.35 C 151.37 283.32 145.80 292.57 139.47 297.72 C 147.49 301.86 154.05 308.29 160.31 314.68 C 167.78 322.93 174.65 333.42 173.55 345.06 C 172.97 347.20 174.78 349.45 177.03 349.19 C 182.18 349.37 187.37 349.32 192.48 348.60 C 195.54 348.38 198.61 348.33 201.68 348.21 C 200.16 345.42 197.20 344.07 194.93 342.03 C 192.43 339.82 190.47 337.10 188.49 334.44 C 185.78 330.86 183.94 326.67 180.83 323.40 C 178.90 317.63 176.88 311.82 174.25 306.33 C 173.94 300.32 170.72 294.96 170.04 289.01 C 169.41 287.28 170.54 285.88 171.44 284.53 C 173.28 282.26 175.00 279.88 176.76 277.54 C 171.20 276.38 164.20 276.13 160.65 271.02 C 160.40 268.19 164.07 266.76 165.75 264.84 C 163.33 263.52 160.48 262.71 158.55 260.67 C 158.22 258.60 158.25 256.49 158.15 254.40 C 155.90 255.37 153.95 257.99 151.36 257.61 C 144.63 252.76 142.84 243.97 137.84 237.76 C 136.60 234.25 134.86 230.93 133.27 227.57 C 133.02 224.58 132.04 221.74 130.92 218.97 C 132.54 216.13 135.02 213.91 136.68 211.08 C 131.80 209.89 127.14 207.78 122.14 207.15 C 119.13 208.08 116.50 209.88 113.84 211.51 C 113.34 211.71 112.35 212.13 111.85 212.33 C 107.40 213.92 103.55 216.95 98.95 218.10 C 99.81 217.19 100.67 216.29 101.54 215.41 L 101.84 215.41 C 107.52 211.87 113.61 209.05 119.41 205.74 C 121.90 204.61 124.30 203.25 126.94 202.49 C 127.40 200.96 126.97 200.01 125.64 199.63 C 122.64 193.86 119.51 188.12 116.98 182.11 C 116.79 182.63 116.63 183.16 116.48 183.69 C 115.17 184.74 113.84 185.79 112.48 186.79 C 113.08 184.67 113.72 182.55 114.33 180.44 C 116.19 177.15 119.19 174.27 119.73 170.41 C 119.51 170.02 119.07 169.26 118.85 168.88 C 121.48 166.59 124.56 164.82 126.84 162.13 C 126.35 162.21 125.38 162.38 124.90 162.46 C 121.29 160.27 116.92 160.03 112.83 160.37 C 107.75 160.57 104.30 164.80 99.94 166.83 M 51.07 169.05 C 51.42 172.27 52.52 175.35 53.29 178.49 L 53.44 178.55 C 53.98 180.83 54.55 183.11 55.27 185.35 L 55.50 185.47 C 56.44 190.03 58.22 194.41 60.81 198.28 C 65.07 198.06 69.32 198.96 73.57 198.53 C 72.40 194.51 69.44 190.59 70.68 186.26 C 72.24 187.76 74.73 187.80 76.60 188.89 C 76.57 188.09 76.50 186.49 76.47 185.69 C 77.49 185.69 79.54 185.68 80.57 185.68 L 79.78 186.34 C 82.24 186.74 84.74 187.72 87.25 187.37 C 88.82 183.58 89.93 179.49 89.60 175.35 C 84.62 174.59 86.51 182.03 82.48 183.33 C 80.62 183.92 78.69 184.22 76.80 184.65 C 75.44 184.85 74.09 185.09 72.75 185.37 C 70.22 183.95 70.31 180.51 69.28 178.11 C 68.91 178.48 68.17 179.21 67.80 179.58 C 67.50 179.05 66.91 177.98 66.62 177.45 C 66.75 176.56 67.00 174.77 67.13 173.87 C 67.26 173.22 67.38 172.56 67.50 171.91 C 62.58 170.67 60.38 165.43 56.53 162.57 C 56.37 162.11 56.04 161.18 55.87 160.71 C 54.15 163.41 52.31 166.08 51.07 169.05 M 82.38 166.26 C 83.06 166.50 84.43 166.96 85.11 167.19 C 87.05 168.02 88.93 169.00 90.71 170.14 C 89.86 171.00 89.02 171.86 88.17 172.72 C 88.60 173.23 89.47 174.26 89.90 174.78 C 90.30 174.24 91.09 173.17 91.49 172.63 C 91.51 171.25 91.52 169.87 91.55 168.50 C 90.18 167.77 88.81 167.04 87.44 166.32 C 86.59 165.34 85.75 164.36 84.90 163.38 C 84.07 164.35 83.22 165.30 82.38 166.26 M 126.24 178.87 C 124.11 180.33 122.01 181.85 120.11 183.61 C 123.04 185.29 126.19 183.16 128.61 181.53 C 129.67 180.02 130.78 178.55 131.86 177.06 C 129.87 177.24 127.98 177.89 126.24 178.87 M 80.65 189.04 C 81.63 190.94 82.49 193.12 84.61 194.03 C 85.22 192.53 85.68 190.98 86.04 189.41 C 84.25 189.27 82.45 189.15 80.65 189.04 M 97.53 230.62 C 96.72 233.77 97.60 236.91 98.44 239.93 C 97.24 244.62 94.86 248.88 92.16 252.86 C 96.10 251.27 100.25 250.11 104.54 250.24 C 104.14 255.61 98.66 258.67 94.06 260.17 C 92.57 260.20 91.08 260.24 89.59 260.28 C 89.30 260.99 88.73 262.41 88.44 263.12 C 89.57 264.43 90.82 265.66 91.83 267.07 C 91.65 269.49 88.75 270.67 88.08 272.98 C 88.42 274.62 89.78 275.77 90.66 277.12 C 89.08 279.00 85.99 280.08 86.08 282.93 C 86.17 290.34 92.60 295.25 97.31 300.11 C 98.42 303.14 93.79 303.58 92.04 304.96 C 94.41 306.59 96.14 309.08 96.40 312.01 C 97.01 317.19 93.71 321.62 91.05 325.72 L 89.78 325.70 C 87.64 321.71 86.77 316.93 83.08 313.93 C 75.35 322.00 70.73 332.56 68.54 343.43 C 76.71 343.33 84.89 343.25 93.05 342.84 C 119.04 342.45 145.02 342.48 171.01 342.73 C 170.79 338.57 169.46 334.63 168.13 330.73 C 164.93 331.42 161.66 331.60 158.39 331.52 C 157.78 327.68 161.72 325.47 163.10 322.27 C 159.83 318.77 156.91 314.95 153.28 311.82 C 147.82 307.04 142.60 301.44 135.43 299.33 C 134.36 296.55 138.24 295.75 139.29 293.75 C 142.39 291.53 144.06 287.89 145.04 284.31 C 142.36 284.37 139.69 284.56 137.04 284.91 C 138.29 287.06 140.71 288.89 140.64 291.54 C 140.09 291.52 138.99 291.47 138.44 291.45 C 137.21 288.64 134.62 286.83 132.34 284.93 C 132.75 284.44 133.57 283.47 133.98 282.98 C 137.76 281.87 141.76 281.81 145.66 281.49 C 143.13 272.52 136.39 265.47 129.97 259.01 C 126.63 255.35 122.13 252.94 119.08 249.01 C 120.29 247.63 121.50 246.25 122.71 244.87 C 117.77 240.26 113.55 234.85 108.17 230.74 C 104.71 230.24 100.91 229.71 97.53 230.62 M 72.33 248.22 C 71.14 249.74 73.92 251.00 74.86 249.70 C 76.11 248.13 73.27 246.84 72.33 248.22 M 90.76 257.94 C 94.90 258.20 98.46 255.61 101.25 252.83 C 97.52 253.48 92.48 254.03 90.76 257.94 M 48.91 291.58 C 52.51 294.56 55.93 298.07 60.39 299.70 C 60.47 298.05 60.55 296.41 60.61 294.77 C 56.84 293.46 53.03 290.92 48.91 291.58 M 80.72 309.99 C 84.21 311.55 86.76 314.32 89.18 317.17 C 89.46 318.55 89.90 319.88 90.29 321.23 C 94.26 318.57 94.51 312.29 92.34 308.28 C 88.76 305.99 83.90 307.72 80.72 309.99 M 179.75 312.83 C 180.71 314.76 181.73 316.66 182.83 318.51 C 184.30 315.41 185.80 312.33 187.09 309.16 C 184.48 310.02 181.95 311.15 179.75 312.83 M 161.13 329.49 C 162.99 329.02 164.86 328.61 166.75 328.28 C 166.02 327.13 165.31 325.97 164.59 324.82 C 163.05 326.06 161.95 327.70 161.13 329.49 Z" />
<path fill="#96897a" opacity="1.00" d=" M 49.94 0.00 L 51.17 0.00 C 51.48 4.12 51.65 8.25 52.06 12.37 C 51.48 9.51 51.05 6.62 50.57 3.75 C 49.20 12.16 49.65 20.91 49.60 29.47 C 49.98 29.09 50.75 28.33 51.14 27.95 C 51.91 23.01 52.03 17.97 52.14 12.98 C 52.63 15.86 53.15 18.73 53.56 21.62 C 53.36 25.99 53.44 31.78 48.76 33.92 C 48.65 22.60 49.58 11.31 49.94 0.00 Z" />
<path fill="#faf4cf" opacity="1.00" d=" M 49.60 29.47 C 49.65 20.91 49.20 12.16 50.57 3.75 C 51.05 6.62 51.48 9.51 52.06 12.37 L 52.14 12.98 C 52.03 17.97 51.91 23.01 51.14 27.95 C 50.75 28.33 49.98 29.09 49.60 29.47 Z" />
<path fill="#7a6870" opacity="1.00" d=" M 48.76 33.92 C 53.44 31.78 53.36 25.99 53.56 21.62 C 54.24 25.14 55.16 28.60 55.78 32.13 C 53.27 33.25 50.83 34.48 50.07 37.40 C 49.32 36.37 48.92 35.17 48.76 33.92 Z" />
<path fill="#d89293" opacity="1.00" d=" M 56.61 24.67 C 58.03 24.54 59.45 24.41 60.87 24.29 C 59.74 26.13 58.77 28.06 58.11 30.12 C 57.63 28.30 57.09 26.49 56.61 24.67 Z" />
<path fill="#5d5864" opacity="1.00" d=" M 55.78 32.13 C 56.33 35.24 57.00 38.32 57.76 41.38 C 56.58 41.39 55.41 41.22 54.42 40.52 C 52.96 39.50 51.50 38.47 50.07 37.40 C 50.83 34.48 53.27 33.25 55.78 32.13 Z" />
<path fill="#3f4c55" opacity="1.00" d=" M 54.42 40.52 C 55.41 41.22 56.58 41.39 57.76 41.38 C 58.35 43.65 58.93 45.93 59.50 48.21 C 57.35 49.72 54.49 50.92 53.71 53.68 C 52.77 56.87 52.20 60.15 51.50 63.40 C 51.03 57.00 51.50 50.61 52.24 44.26 C 53.11 43.10 53.77 41.81 54.42 40.52 Z" />
<path fill="#5e7059" opacity="1.00" d=" M 48.46 51.04 C 47.41 47.90 50.26 46.10 52.24 44.26 C 51.50 50.61 51.03 57.00 51.50 63.40 C 51.45 64.07 51.35 65.43 51.30 66.11 C 50.84 65.71 49.93 64.92 49.48 64.53 C 49.89 60.13 52.32 54.50 48.46 51.04 Z" />
<path fill="#3e4840" opacity="1.00" d=" M 44.13 50.27 C 45.44 49.33 46.96 51.57 45.90 52.61 C 44.62 53.50 43.06 51.30 44.13 50.27 Z" />
<path fill="#90b889" opacity="1.00" d=" M 48.46 51.04 C 52.32 54.50 49.89 60.13 49.48 64.53 C 49.93 64.92 50.84 65.71 51.30 66.11 C 51.20 67.34 51.08 68.58 50.94 69.81 C 50.48 72.84 49.20 75.67 47.27 78.05 C 48.47 79.73 49.67 81.41 50.71 83.19 C 50.95 83.95 51.19 84.71 51.42 85.48 C 51.42 85.90 51.40 86.73 51.40 87.14 C 49.36 83.08 45.90 80.01 43.60 76.12 C 43.77 75.56 44.12 74.44 44.29 73.89 C 44.51 74.53 44.96 75.81 45.19 76.45 C 46.89 73.94 48.57 71.30 49.10 68.26 C 48.47 68.03 47.20 67.55 46.56 67.31 C 48.45 62.11 49.06 56.53 48.46 51.04 Z" />
<path fill="#1d2546" opacity="1.00" d=" M 55.26 61.95 C 56.84 61.02 57.35 63.55 55.82 63.90 C 54.26 64.82 53.78 62.32 55.26 61.95 Z" />
<path fill="#aab38f" opacity="1.00" d=" M 46.56 67.31 C 47.20 67.55 48.47 68.03 49.10 68.26 C 48.57 71.30 46.89 73.94 45.19 76.45 C 44.96 75.81 44.51 74.53 44.29 73.89 C 45.02 71.68 45.83 69.51 46.56 67.31 Z" />
<path fill="#485c49" opacity="1.00" d=" M 47.27 78.05 C 49.20 75.67 50.48 72.84 50.94 69.81 C 50.47 74.25 50.15 78.74 50.71 83.19 C 49.67 81.41 48.47 79.73 47.27 78.05 Z" />
<path fill="#516059" opacity="1.00" d=" M 141.91 79.57 C 143.62 78.10 145.53 76.86 147.62 75.98 C 145.73 82.13 143.71 88.30 140.70 94.01 C 140.20 92.71 139.66 91.43 139.13 90.15 C 138.65 90.34 137.70 90.73 137.22 90.92 C 135.24 91.76 133.18 92.35 131.11 92.87 C 132.07 91.16 133.23 89.57 134.54 88.10 C 132.40 89.54 130.31 91.07 128.27 92.65 C 127.51 89.32 131.32 88.10 133.17 86.15 L 133.02 86.63 L 132.46 88.42 C 136.72 87.58 141.88 84.40 141.91 79.57 Z" />
<path fill="#98cdae" opacity="1.00" d=" M 133.02 86.63 C 135.86 84.13 138.87 81.82 141.91 79.57 C 141.88 84.40 136.72 87.58 132.46 88.42 L 133.02 86.63 Z" />
<path fill="#333941" opacity="1.00" d=" M 43.92 89.98 C 44.94 88.39 46.00 86.83 47.11 85.30 C 48.01 86.57 48.84 87.88 49.57 89.26 C 47.72 89.74 45.83 89.94 43.92 89.98 Z" />
<path fill="#1f274a" opacity="1.00" d=" M 51.42 85.48 C 54.73 88.42 58.10 91.36 60.56 95.09 C 57.70 97.13 54.32 98.05 51.01 99.03 C 49.26 99.64 46.58 100.58 47.10 102.96 C 47.67 106.04 50.16 108.25 52.27 110.38 C 52.67 112.67 53.54 114.83 54.30 117.01 C 54.19 117.55 53.97 118.63 53.86 119.18 C 52.87 117.46 51.90 115.73 50.78 114.10 C 47.83 111.39 45.86 107.82 42.98 105.08 C 41.41 105.31 39.88 105.74 38.34 106.13 C 37.42 104.60 35.42 102.65 37.18 100.97 C 40.42 101.21 44.88 100.03 45.59 96.35 C 49.17 95.03 53.15 94.10 55.35 90.65 C 54.36 90.58 53.36 90.50 52.37 90.44 C 52.03 89.34 51.71 88.24 51.40 87.14 C 51.40 86.73 51.42 85.90 51.42 85.48 Z" />
<path fill="#444753" opacity="1.00" d=" M 137.22 90.92 C 137.70 90.73 138.65 90.34 139.13 90.15 C 139.66 91.43 140.20 92.71 140.70 94.01 C 140.03 96.26 138.83 98.31 137.75 100.38 L 136.93 100.62 C 135.21 101.26 134.68 103.26 133.75 104.66 C 132.00 108.27 129.19 111.29 127.86 115.10 C 127.75 115.38 127.55 115.92 127.44 116.19 C 126.76 114.95 126.80 112.87 125.11 112.47 C 123.21 112.90 121.39 113.65 119.57 114.34 C 119.74 112.45 119.90 110.56 120.08 108.67 L 120.58 108.64 C 120.88 108.61 121.49 108.56 121.80 108.54 C 122.91 106.95 123.89 105.27 124.90 103.62 C 127.44 103.31 129.98 102.91 132.50 102.43 C 131.81 100.35 129.32 100.77 127.67 100.27 C 129.22 96.26 133.39 94.94 137.00 93.37 L 137.78 93.02 C 137.64 92.50 137.36 91.45 137.22 90.92 Z" />
<path fill="#93ba73" opacity="1.00" d=" M 119.56 100.48 C 122.02 97.69 124.20 94.64 126.94 92.11 C 127.18 92.88 127.43 93.65 127.68 94.42 C 126.08 95.98 124.65 97.84 122.51 98.68 C 122.17 100.65 121.58 102.56 120.51 104.26 C 120.23 103.02 119.90 101.80 119.59 100.57 L 119.56 100.48 Z" />
<path fill="#fffc7b" opacity="1.00" d=" M 128.82 95.73 C 131.51 94.84 134.24 94.04 137.00 93.37 C 133.39 94.94 129.22 96.26 127.67 100.27 C 127.05 100.42 125.80 100.71 125.18 100.86 C 126.43 99.18 127.67 97.49 128.82 95.73 Z" />
<path fill="#3b294d" opacity="1.00" d=" M 108.98 103.44 C 110.17 100.56 111.85 97.92 113.22 95.13 C 114.97 98.84 116.96 103.24 116.11 107.31 C 112.13 110.45 113.38 116.99 108.72 119.29 C 108.79 115.34 108.76 111.39 108.88 107.44 C 109.64 105.93 110.36 104.41 111.09 102.89 L 108.98 103.44 Z" />
<path fill="#3d4d4d" opacity="1.00" d=" M 37.18 100.97 C 39.78 99.08 42.64 97.59 45.59 96.35 C 44.88 100.03 40.42 101.21 37.18 100.97 Z" />
<path fill="#fa5f79" opacity="1.00" d=" M 102.38 109.13 C 101.95 105.09 103.93 101.32 105.86 97.90 C 106.21 99.57 106.48 101.25 106.75 102.93 C 105.32 105.02 103.89 107.11 102.38 109.13 Z" />
<path fill="#51594b" opacity="1.00" d=" M 53.83 101.20 C 54.70 100.91 55.58 100.62 56.45 100.33 C 56.41 101.54 56.37 102.75 56.33 103.96 C 55.24 103.29 54.44 102.31 53.83 101.20 Z" />
<path fill="#90ffff" opacity="1.00" d=" M 133.75 104.66 C 134.68 103.26 135.21 101.26 136.93 100.62 C 134.96 105.98 132.16 111.26 127.86 115.10 C 129.19 111.29 132.00 108.27 133.75 104.66 Z" />
<path fill="#ac5c70" opacity="1.00" d=" M 119.59 100.57 C 119.90 101.80 120.23 103.02 120.51 104.26 C 120.15 105.08 119.60 105.78 118.86 106.36 C 118.53 104.38 117.79 102.12 119.59 100.57 Z" />
<path fill="#fffc7b" opacity="1.00" d=" M 123.26 103.47 C 126.26 102.57 129.40 102.63 132.50 102.43 C 129.98 102.91 127.44 103.31 124.90 103.62 C 123.89 105.27 122.91 106.95 121.80 108.54 C 121.49 108.56 120.88 108.61 120.58 108.64 C 121.48 106.92 122.41 105.22 123.26 103.47 Z" />
<path fill="#d2b8c4" opacity="1.00" d=" M 101.43 115.59 C 103.40 111.24 106.62 107.58 108.98 103.44 L 111.09 102.89 C 110.36 104.41 109.64 105.93 108.88 107.44 C 107.71 109.30 106.47 111.13 105.27 112.98 C 104.26 114.62 102.93 116.02 101.55 117.36 L 101.43 115.59 Z" />
<path fill="#505258" opacity="1.00" d=" M 38.34 106.13 C 39.88 105.74 41.41 105.31 42.98 105.08 C 45.86 107.82 47.83 111.39 50.78 114.10 C 49.81 115.08 48.85 116.06 47.89 117.04 C 44.27 113.81 41.12 110.10 38.34 106.13 Z" />
<path fill="#fa5f79" opacity="1.00" d=" M 95.09 111.08 C 95.97 109.14 95.55 105.81 97.82 104.97 C 100.20 107.21 96.74 109.66 95.09 111.08 Z" />
<path fill="#e2556d" opacity="1.00" d=" M 105.27 112.98 C 106.47 111.13 107.71 109.30 108.88 107.44 C 108.76 111.39 108.79 115.34 108.72 119.29 C 107.33 120.00 106.58 121.16 106.46 122.75 L 106.47 120.47 C 101.92 125.84 97.76 132.23 97.08 139.40 C 98.88 135.64 100.87 131.67 105.11 130.24 C 103.71 132.13 102.19 133.93 100.69 135.75 L 102.36 135.72 C 102.81 135.73 103.72 135.74 104.17 135.74 C 100.11 138.64 96.22 141.79 92.13 144.66 C 92.21 142.16 92.24 139.63 91.68 137.17 C 92.69 133.26 95.64 130.30 97.00 126.54 C 99.71 122.43 102.69 118.47 105.40 114.34 C 105.37 114.00 105.31 113.32 105.27 112.98 Z" />
<path fill="#503351" opacity="1.00" d=" M 108.72 119.29 C 113.38 116.99 112.13 110.45 116.11 107.31 C 116.57 110.14 117.15 112.98 117.29 115.86 C 116.74 118.77 115.40 121.44 114.23 124.14 C 114.20 123.62 114.15 122.58 114.12 122.06 C 112.59 123.04 111.06 124.03 109.53 125.02 C 109.63 123.45 109.38 121.92 109.05 120.40 C 108.20 121.19 107.33 121.97 106.46 122.75 C 106.58 121.16 107.33 120.00 108.72 119.29 Z" />
<path fill="#fa5f79" opacity="1.00" d=" M 94.61 114.38 C 96.51 112.53 98.11 110.29 100.51 109.03 C 100.18 112.34 98.66 115.27 96.59 117.81 C 96.22 116.51 95.44 115.42 94.61 114.38 Z" />
<path fill="#708c69" opacity="1.00" d=" M 54.30 117.01 C 53.54 114.83 52.67 112.67 52.27 110.38 C 55.94 112.47 57.82 116.22 59.00 120.11 C 57.92 121.12 56.83 122.14 55.80 123.21 C 55.40 121.12 55.02 119.01 54.30 117.01 Z" />
<path fill="#614f5a" opacity="1.00" d=" M 47.89 117.04 C 48.85 116.06 49.81 115.08 50.78 114.10 C 51.90 115.73 52.87 117.46 53.86 119.18 C 53.97 118.63 54.19 117.55 54.30 117.01 C 55.02 119.01 55.40 121.12 55.80 123.21 C 53.69 126.37 53.32 130.20 53.21 133.90 C 52.31 132.88 50.60 132.29 50.43 130.76 C 50.82 128.16 52.13 125.66 51.77 122.98 C 51.64 120.43 49.55 118.71 47.89 117.04 Z" />
<path fill="#2f3641" opacity="1.00" d=" M 39.88 119.02 C 40.44 117.58 40.17 115.15 41.99 114.67 C 42.96 115.47 43.87 116.33 44.72 117.26 C 43.16 117.99 41.55 118.61 39.88 119.02 Z" />
<path fill="#ff9798" opacity="1.00" d=" M 94.61 114.38 C 95.44 115.42 96.22 116.51 96.59 117.81 C 93.54 121.55 91.23 125.81 88.39 129.68 C 87.81 130.09 86.63 130.92 86.05 131.34 C 85.39 130.01 84.73 128.68 84.09 127.34 C 87.41 125.12 89.93 121.97 92.35 118.85 C 92.32 118.46 92.27 117.68 92.25 117.29 L 92.22 116.89 C 93.01 116.04 93.81 115.21 94.61 114.38 Z" />
<path fill="#e1556c" opacity="1.00" d=" M 101.38 115.05 L 101.43 115.59 L 101.55 117.36 C 97.36 122.85 92.91 128.47 90.14 134.91 C 89.21 136.88 89.82 139.09 89.87 141.16 C 86.13 140.28 82.77 138.07 80.33 135.12 C 82.14 133.72 84.12 132.56 86.05 131.34 C 86.63 130.92 87.81 130.09 88.39 129.68 C 88.33 130.52 88.19 132.21 88.13 133.05 C 92.88 127.33 96.60 120.79 101.38 115.05 Z" />
<path fill="#4f4c55" opacity="1.00" d=" M 119.15 116.14 C 121.02 115.85 122.88 115.54 124.75 115.24 C 124.85 119.95 122.39 124.46 117.76 125.98 C 117.67 124.18 117.61 122.38 117.64 120.58 C 117.98 119.05 118.60 117.60 119.15 116.14 Z" />
<path fill="#823f5b" opacity="1.00" d=" M 133.40 120.69 C 135.05 119.31 136.75 117.97 138.58 116.83 C 137.81 119.48 137.54 122.24 137.49 125.00 L 137.47 125.51 C 135.88 124.22 137.33 120.93 134.37 121.12 C 135.43 128.43 130.19 134.61 126.72 140.55 C 123.89 143.10 121.11 145.74 118.48 148.51 C 119.25 146.30 120.35 144.23 121.65 142.29 C 120.50 141.38 119.35 140.47 118.21 139.57 C 120.39 136.94 123.21 134.44 123.41 130.77 C 123.51 130.33 123.69 129.45 123.79 129.02 L 122.04 129.94 C 125.43 126.59 129.93 124.73 134.15 122.68 C 133.90 122.01 133.65 121.35 133.40 120.69 Z" />
<path fill="#90ffff" opacity="1.00" d=" M 138.58 116.83 L 139.38 116.09 C 139.75 119.17 139.53 122.49 137.49 125.00 C 137.54 122.24 137.81 119.48 138.58 116.83 Z" />
<path fill="#fffc7b" opacity="1.00" d=" M 84.09 127.34 C 86.27 123.58 89.24 120.40 92.25 117.29 C 92.27 117.68 92.32 118.46 92.35 118.85 C 89.93 121.97 87.41 125.12 84.09 127.34 Z" />
<path fill="#181e38" opacity="1.00" d=" M 61.82 122.25 C 61.70 120.98 61.59 119.71 61.61 118.43 C 62.73 118.98 63.82 119.59 64.88 120.26 C 65.40 122.26 63.01 121.80 61.82 122.25 Z" />
<path fill="#000000" opacity="1.00" d=" M 97.08 139.40 C 97.76 132.23 101.92 125.84 106.47 120.47 L 106.46 122.75 C 107.33 121.97 108.20 121.19 109.05 120.40 C 109.38 121.92 109.63 123.45 109.53 125.02 C 108.25 129.21 106.06 133.19 102.36 135.72 L 100.69 135.75 C 102.19 133.93 103.71 132.13 105.11 130.24 C 100.87 131.67 98.88 135.64 97.08 139.40 M 105.98 122.62 C 105.16 125.30 103.00 127.28 101.96 129.87 C 104.18 128.19 106.13 126.17 107.88 124.01 C 107.25 123.55 106.61 123.08 105.98 122.62 Z" />
<path fill="#803d5b" opacity="1.00" d=" M 114.33 126.40 C 115.45 124.47 116.52 122.51 117.64 120.58 C 117.61 122.38 117.67 124.18 117.76 125.98 L 117.76 126.10 C 113.45 129.37 108.87 132.29 104.70 135.75 L 104.17 135.74 C 103.72 135.74 102.81 135.73 102.36 135.72 C 106.06 133.19 108.25 129.21 109.53 125.02 C 111.06 124.03 112.59 123.04 114.12 122.06 C 114.15 122.58 114.20 123.62 114.23 124.14 C 114.25 124.70 114.31 125.83 114.33 126.40 Z" />
<path fill="#e2556d" opacity="1.00" d=" M 105.13 137.80 C 112.40 132.19 119.41 126.12 127.59 121.81 C 127.77 122.03 128.15 122.48 128.33 122.70 L 128.53 122.98 C 124.39 126.11 119.59 128.22 115.47 131.40 C 111.21 134.18 108.01 138.20 104.00 141.29 C 105.10 140.08 106.12 138.80 107.13 137.52 L 105.13 137.80 Z" />
<path fill="#93ba73" opacity="1.00" d=" M 165.33 128.03 C 166.83 126.10 168.25 124.11 169.69 122.14 C 169.23 124.43 168.60 126.67 167.96 128.92 C 167.30 128.70 165.98 128.25 165.33 128.03 Z" />
<path fill="#fffc7b" opacity="1.00" d=" M 105.98 122.62 C 106.61 123.08 107.25 123.55 107.88 124.01 C 106.13 126.17 104.18 128.19 101.96 129.87 C 103.00 127.28 105.16 125.30 105.98 122.62 Z" />
<path fill="#fa5f79" opacity="1.00" d=" M 36.13 125.93 C 38.01 126.54 39.83 127.33 41.46 128.47 L 41.07 128.93 C 39.44 129.21 37.82 128.68 36.21 128.53 C 36.19 127.88 36.15 126.58 36.13 125.93 Z" />
<path fill="#fffc7b" opacity="1.00" d=" M 91.41 137.89 C 91.45 133.48 94.35 129.81 97.00 126.54 C 95.64 130.30 92.69 133.26 91.68 137.17 L 91.41 137.89 Z" />
<path fill="#90ffff" opacity="1.00" d=" M 138.87 126.80 C 140.28 128.15 139.51 130.20 139.42 131.90 C 138.14 138.26 136.39 144.86 132.08 149.90 C 133.36 146.61 134.49 143.26 135.74 139.95 C 137.34 135.91 138.13 131.62 138.78 127.33 L 138.87 126.80 Z" />
<path fill="#694e46" opacity="1.00" d=" M 41.46 128.47 C 42.67 127.58 45.42 129.10 45.14 130.53 C 43.77 130.93 41.40 130.56 41.07 128.93 L 41.46 128.47 Z" />
<path fill="#5b3855" opacity="1.00" d=" M 133.01 134.04 C 134.46 131.50 135.68 128.24 138.78 127.33 C 138.13 131.62 137.34 135.91 135.74 139.95 C 132.17 142.45 131.02 146.96 128.05 150.02 C 124.87 154.15 120.19 158.96 114.44 156.68 C 117.49 153.33 120.32 149.79 123.13 146.23 C 126.82 142.52 130.67 138.80 133.01 134.04 Z" />
<path fill="#4f605e" opacity="1.00" d=" M 160.48 136.42 C 162.04 133.59 163.65 130.79 165.33 128.03 C 165.98 128.25 167.30 128.70 167.96 128.92 C 166.38 133.33 163.91 137.38 160.67 140.78 C 159.51 139.50 159.34 137.78 160.48 136.42 Z" />
<path fill="#f6ded8" opacity="1.00" d=" M 120.19 131.36 C 120.66 131.00 121.58 130.30 122.04 129.94 L 123.79 129.02 C 123.69 129.45 123.51 130.33 123.41 130.77 C 118.87 134.65 114.97 139.20 110.82 143.47 C 111.56 141.73 112.23 139.95 113.03 138.22 C 114.19 137.30 115.21 136.22 116.04 134.98 C 116.28 134.72 116.75 134.20 116.99 133.94 C 118.15 133.19 119.23 132.34 120.19 131.36 Z" />
<path fill="#6a3439" opacity="1.00" d=" M 116.99 133.94 C 115.83 132.24 118.76 129.98 120.19 131.36 C 119.23 132.34 118.15 133.19 116.99 133.94 Z" />
<path fill="#8c4863" opacity="1.00" d=" M 35.50 131.23 C 38.75 131.48 42.64 130.81 45.29 133.12 C 42.94 133.64 40.61 134.24 38.27 134.81 C 38.24 139.25 41.51 142.52 45.53 143.85 L 45.43 141.98 C 45.78 142.18 46.47 142.58 46.81 142.78 C 47.28 143.25 48.22 144.17 48.69 144.63 C 46.96 145.60 45.50 146.96 44.24 148.50 C 41.90 147.15 39.27 146.68 36.62 146.47 C 35.59 145.18 34.84 143.71 34.02 142.29 C 34.83 141.50 36.59 141.35 36.69 140.00 C 36.81 137.04 35.79 134.16 35.50 131.23 Z" />
<path fill="#e58e91" opacity="1.00" d=" M 110.82 143.47 C 114.97 139.20 118.87 134.65 123.41 130.77 C 123.21 134.44 120.39 136.94 118.21 139.57 C 114.06 144.20 109.50 148.44 104.87 152.58 C 101.37 155.21 97.54 157.33 94.01 159.90 C 92.72 160.91 91.20 161.52 89.59 161.79 C 92.05 158.60 94.77 155.64 97.43 152.62 C 97.62 153.06 98.01 153.92 98.21 154.36 C 98.35 154.64 98.62 155.22 98.76 155.51 C 102.51 151.21 107.25 147.92 110.82 143.47 Z" />
<path fill="#d89293" opacity="1.00" d=" M 38.27 134.81 C 40.61 134.24 42.94 133.64 45.29 133.12 C 49.19 133.69 52.66 135.89 56.17 137.56 C 53.53 139.39 50.90 136.86 48.40 136.08 C 47.37 138.00 45.64 139.23 43.68 140.07 C 44.12 140.55 45.00 141.50 45.43 141.98 L 45.53 143.85 C 41.51 142.52 38.24 139.25 38.27 134.81 Z" />
<path fill="#d89293" opacity="1.00" d=" M 57.85 135.67 C 61.13 134.21 64.75 134.30 68.21 134.90 C 66.11 135.12 64.03 135.43 61.94 135.74 C 62.33 136.88 62.72 138.04 63.20 139.14 C 62.55 138.33 61.89 137.51 61.24 136.70 C 60.07 136.49 58.84 136.39 57.85 135.67 Z" />
<path fill="#30254b" opacity="1.00" d=" M 68.21 134.90 C 69.36 134.65 71.48 134.76 71.53 136.31 C 71.25 139.66 69.96 142.84 68.63 145.90 C 67.16 143.38 65.24 141.21 63.20 139.14 C 62.72 138.04 62.33 136.88 61.94 135.74 C 64.03 135.43 66.11 135.12 68.21 134.90 Z" />
<path fill="#c78378" opacity="1.00" d=" M 112.01 137.71 C 112.37 136.11 114.46 134.64 116.04 134.98 C 115.21 136.22 114.19 137.30 113.03 138.22 L 112.35 138.24 L 112.01 137.71 Z" />
<path fill="#22284a" opacity="1.00" d=" M 141.24 135.16 C 143.96 135.67 146.85 135.74 149.35 137.06 C 148.73 137.04 147.50 136.99 146.89 136.97 C 146.40 136.96 145.43 136.95 144.95 136.95 C 141.76 137.21 142.02 140.86 142.96 143.04 C 144.03 145.43 142.76 147.84 142.04 150.12 C 140.74 153.69 140.65 157.53 140.34 161.29 C 140.16 158.99 140.48 156.51 139.53 154.36 C 137.99 152.26 135.11 152.43 132.83 151.95 C 137.37 147.34 139.31 141.16 141.24 135.16 Z" />
<path fill="#973f5d" opacity="1.00" d=" M 48.40 136.08 C 50.90 136.86 53.53 139.39 56.17 137.56 L 55.40 136.60 C 57.46 137.99 59.60 139.30 61.43 140.99 L 61.65 142.42 C 59.74 142.24 57.50 140.28 55.76 141.81 C 55.07 143.14 54.63 144.57 54.12 145.97 C 51.92 144.42 49.45 143.33 46.81 142.78 C 46.47 142.58 45.78 142.18 45.43 141.98 C 45.00 141.50 44.12 140.55 43.68 140.07 C 45.64 139.23 47.37 138.00 48.40 136.08 Z" />
<path fill="#3b4c53" opacity="1.00" d=" M 142.96 143.04 C 142.02 140.86 141.76 137.21 144.95 136.95 C 144.85 138.96 144.74 140.97 144.63 142.99 C 145.64 143.58 146.69 144.14 147.66 144.82 C 146.91 148.37 145.16 151.61 144.32 155.14 C 143.65 157.88 144.42 160.68 144.82 163.41 C 143.30 163.11 141.77 162.80 140.25 162.51 C 140.27 162.20 140.32 161.59 140.34 161.29 C 140.65 157.53 140.74 153.69 142.04 150.12 C 142.76 147.84 144.03 145.43 142.96 143.04 Z" />
<path fill="#4d6359" opacity="1.00" d=" M 144.95 136.95 C 145.43 136.95 146.40 136.96 146.89 136.97 C 146.69 138.58 146.49 140.19 146.29 141.80 C 148.89 143.78 152.05 144.06 155.16 143.36 C 154.49 146.78 153.38 150.09 152.54 153.47 C 151.70 155.98 153.65 158.12 154.71 160.23 C 154.52 161.16 154.33 162.11 154.14 163.05 C 154.38 163.16 154.86 163.37 155.10 163.47 C 155.47 166.45 158.50 167.63 160.51 169.41 C 163.44 171.41 165.89 174.34 169.40 175.36 C 168.57 175.80 167.74 176.25 166.91 176.69 C 167.40 177.95 167.62 179.41 168.66 180.37 C 170.11 180.49 171.54 180.11 172.95 179.80 C 172.69 181.08 172.42 182.37 172.13 183.65 C 171.84 184.76 171.47 185.85 171.13 186.95 C 172.46 186.24 173.78 185.53 175.11 184.83 C 175.43 186.46 176.23 188.15 175.78 189.82 C 174.51 191.39 172.83 192.57 171.29 193.85 C 168.05 190.72 164.60 187.80 160.98 185.12 C 162.03 183.95 164.30 183.05 163.63 181.12 C 160.83 172.46 152.65 167.15 144.82 163.41 C 144.42 160.68 143.65 157.88 144.32 155.14 C 145.16 151.61 146.91 148.37 147.66 144.82 C 146.69 144.14 145.64 143.58 144.63 142.99 C 144.74 140.97 144.85 138.96 144.95 136.95 Z" />
<path fill="#789a7c" opacity="1.00" d=" M 146.89 136.97 C 147.50 136.99 148.73 137.04 149.35 137.06 C 149.82 137.33 150.78 137.87 151.26 138.14 C 150.92 138.30 150.23 138.62 149.89 138.77 C 149.78 139.29 149.54 140.33 149.42 140.84 C 151.42 140.30 153.34 139.54 155.30 138.88 L 156.15 138.56 C 158.43 144.83 154.42 150.73 154.21 156.90 C 155.44 157.74 156.67 158.60 157.89 159.45 C 157.17 160.92 156.47 162.48 155.10 163.47 C 154.86 163.37 154.38 163.16 154.14 163.05 C 154.33 162.11 154.52 161.16 154.71 160.23 C 153.65 158.12 151.70 155.98 152.54 153.47 C 153.38 150.09 154.49 146.78 155.16 143.36 C 152.05 144.06 148.89 143.78 146.29 141.80 C 146.49 140.19 146.69 138.58 146.89 136.97 Z" />
<path fill="#fffc7b" opacity="1.00" d=" M 95.15 145.07 C 98.33 142.46 101.60 139.94 105.13 137.80 L 107.13 137.52 C 106.12 138.80 105.10 140.08 104.00 141.29 C 103.92 141.37 103.74 141.52 103.66 141.60 C 101.34 142.69 99.16 144.05 96.94 145.33 C 96.49 145.26 95.60 145.14 95.15 145.07 Z" />
<path fill="#fffc7b" opacity="1.00" d=" M 106.51 143.24 C 108.04 141.29 109.87 138.71 112.35 138.24 L 113.03 138.22 C 112.23 139.95 111.56 141.73 110.82 143.47 C 107.25 147.92 102.51 151.21 98.76 155.51 C 98.62 155.22 98.35 154.64 98.21 154.36 C 101.17 150.80 105.25 147.93 106.51 143.24 Z" />
<path fill="#fffc7b" opacity="1.00" d=" M 149.89 138.77 C 150.23 138.62 150.92 138.30 151.26 138.14 C 152.62 138.33 153.96 138.61 155.30 138.88 C 153.34 139.54 151.42 140.30 149.42 140.84 C 149.54 140.33 149.78 139.29 149.89 138.77 Z" />
<path fill="#6a3d57" opacity="1.00" d=" M 104.87 152.58 C 109.50 148.44 114.06 144.20 118.21 139.57 C 119.35 140.47 120.50 141.38 121.65 142.29 C 120.35 144.23 119.25 146.30 118.48 148.51 C 117.03 151.75 113.81 153.71 111.74 156.53 C 111.29 156.28 110.38 155.77 109.92 155.51 C 106.52 156.52 103.22 157.80 99.95 159.16 C 101.69 157.04 103.17 154.73 104.87 152.58 Z" />
<path fill="#373153" opacity="1.00" d=" M 128.05 150.02 C 131.02 146.96 132.17 142.45 135.74 139.95 C 134.49 143.26 133.36 146.61 132.08 149.90 C 129.18 152.83 127.23 156.57 123.59 158.73 C 120.04 158.33 116.49 158.02 112.92 157.90 C 113.21 157.58 113.78 156.94 114.07 156.61 L 114.44 156.68 C 120.19 158.96 124.87 154.15 128.05 150.02 Z" />
<path fill="#412f51" opacity="1.00" d=" M 55.76 141.81 C 57.50 140.28 59.74 142.24 61.65 142.42 L 61.43 140.99 C 65.42 143.13 66.82 147.50 68.97 151.15 C 67.92 151.65 66.92 152.30 65.78 152.59 C 61.58 151.01 57.97 148.22 54.12 145.97 C 54.63 144.57 55.07 143.14 55.76 141.81 Z" />
<path fill="#e4566d" opacity="1.00" d=" M 96.94 145.33 C 99.16 144.05 101.34 142.69 103.66 141.60 C 99.45 146.79 94.87 151.67 90.45 156.68 C 87.95 155.57 85.74 157.11 83.74 158.45 C 83.27 158.38 82.35 158.25 81.88 158.18 C 84.46 154.79 88.81 154.42 92.69 153.81 C 89.56 150.86 84.91 153.27 81.17 153.30 L 81.87 152.54 C 83.45 151.44 85.06 150.39 86.55 149.17 C 86.55 148.69 86.56 147.73 86.56 147.25 C 87.72 145.80 88.90 144.37 90.12 142.96 C 88.76 145.04 87.53 147.23 87.13 149.72 C 90.00 148.53 92.59 146.81 95.15 145.07 C 95.60 145.14 96.49 145.26 96.94 145.33 Z" />
<path fill="#ddbbb2" opacity="1.00" d=" M 97.43 152.62 C 100.37 149.42 103.01 145.88 106.51 143.24 C 105.25 147.93 101.17 150.80 98.21 154.36 C 98.01 153.92 97.62 153.06 97.43 152.62 Z" />
<path fill="#4d455b" opacity="1.00" d=" M 44.24 148.50 C 45.50 146.96 46.96 145.60 48.69 144.63 L 48.94 144.47 C 53.65 147.57 58.11 151.07 63.08 153.79 C 61.40 155.31 59.63 159.29 56.95 157.09 C 52.96 153.86 48.77 150.94 44.24 148.50 Z" />
<path fill="#52645a" opacity="1.00" d=" M 158.56 145.85 C 167.09 145.60 175.59 146.22 184.05 147.22 C 185.25 147.35 186.49 147.62 187.42 148.48 C 179.10 151.90 169.13 154.37 160.60 150.37 C 158.55 149.68 158.47 147.70 158.56 145.85 Z" />
<path fill="#fffc7b" opacity="1.00" d=" M 81.87 152.54 C 83.36 150.72 84.96 148.98 86.56 147.25 C 86.56 147.73 86.55 148.69 86.55 149.17 C 85.06 150.39 83.45 151.44 81.87 152.54 Z" />
<path fill="#93ba73" opacity="1.00" d=" M 35.69 151.66 C 37.09 150.09 39.13 147.65 41.15 149.73 C 38.50 152.59 36.96 156.25 35.90 159.95 C 34.59 164.80 33.19 169.69 33.25 174.76 C 36.50 174.61 34.97 170.20 35.74 168.01 C 36.98 168.58 37.79 169.82 37.75 171.22 C 37.05 175.57 36.23 179.91 35.79 184.30 C 35.69 185.75 34.86 186.96 33.85 187.96 C 31.52 175.99 31.42 163.21 35.69 151.66 Z" />
<path fill="#fa5f79" opacity="1.00" d=" M 75.19 151.85 C 77.18 151.04 79.16 150.21 81.15 149.39 C 80.24 151.01 79.17 152.53 78.06 154.02 C 77.10 153.30 76.14 152.57 75.19 151.85 Z" />
<path fill="#486167" opacity="1.00" d=" M 40.74 155.33 C 39.45 153.39 41.94 151.73 42.73 150.13 C 45.36 151.54 47.91 153.09 50.35 154.80 C 49.40 158.57 48.82 162.52 46.86 165.95 C 45.32 168.76 43.78 171.59 42.69 174.61 C 41.83 173.08 40.92 171.58 40.08 170.04 C 39.45 168.88 38.81 167.73 38.31 166.52 C 38.89 163.58 39.70 160.68 39.90 157.68 C 40.99 159.97 41.82 162.51 43.83 164.20 C 43.76 160.96 42.27 158.09 40.74 155.33 Z" />
<path fill="#ac5c70" opacity="1.00" d=" M 94.01 159.90 C 97.54 157.33 101.37 155.21 104.87 152.58 C 103.17 154.73 101.69 157.04 99.95 159.16 C 97.30 161.50 93.69 162.66 91.65 165.70 C 90.17 164.94 86.21 162.66 89.59 161.79 C 91.20 161.52 92.72 160.91 94.01 159.90 Z" />
<path fill="#2f3c55" opacity="1.00" d=" M 50.35 154.80 C 51.24 156.45 52.62 157.97 52.86 159.89 C 50.75 165.69 46.72 170.53 43.14 175.48 L 42.69 174.61 C 43.78 171.59 45.32 168.76 46.86 165.95 C 48.82 162.52 49.40 158.57 50.35 154.80 Z" />
<path fill="#292c4d" opacity="1.00" d=" M 126.63 159.78 C 128.10 158.11 129.21 155.34 131.74 155.22 C 133.08 157.55 132.05 160.58 132.16 163.18 C 130.12 162.40 128.31 161.16 126.63 159.78 Z" />
<path fill="#ab5066" opacity="1.00" d=" M 83.74 158.45 C 85.74 157.11 87.95 155.57 90.45 156.68 C 88.92 158.35 87.45 160.06 85.99 161.78 C 84.16 161.14 82.33 160.51 80.50 159.87 C 80.85 159.44 81.54 158.60 81.88 158.18 C 82.35 158.25 83.27 158.38 83.74 158.45 Z" />
<path fill="#93ba73" opacity="1.00" d=" M 38.31 166.52 C 36.26 163.15 37.74 159.06 39.77 156.06 L 39.90 157.68 C 39.70 160.68 38.89 163.58 38.31 166.52 Z" />
<path fill="#4d455b" opacity="1.00" d=" M 100.72 161.61 C 104.15 159.81 107.25 157.29 111.06 156.32 C 109.39 158.94 107.07 161.32 104.05 162.33 C 100.33 163.60 97.27 166.11 93.90 168.04 C 94.80 164.80 98.12 163.29 100.72 161.61 Z" />
<path fill="#343950" opacity="1.00" d=" M 99.94 166.83 C 104.30 164.80 107.75 160.57 112.83 160.37 C 116.92 160.03 121.29 160.27 124.90 162.46 C 122.70 164.27 120.51 166.07 118.18 167.69 C 118.34 167.99 118.68 168.58 118.85 168.88 C 119.07 169.26 119.51 170.02 119.73 170.41 C 117.03 173.39 114.93 176.86 113.00 180.38 C 112.64 180.36 111.93 180.32 111.57 180.30 C 110.64 179.08 109.65 177.89 108.74 176.66 C 108.21 175.64 107.68 174.62 107.14 173.62 C 103.37 174.23 99.54 174.45 95.72 174.16 C 95.66 173.45 95.54 172.04 95.48 171.34 C 95.16 171.51 94.51 171.87 94.18 172.05 C 94.42 169.10 97.93 168.37 99.94 166.83 M 114.40 162.08 C 115.63 163.54 118.81 163.39 120.63 162.81 C 119.39 161.36 116.22 161.45 114.40 162.08 Z" />
<path fill="#2d3950" opacity="1.00" d=" M 51.07 169.05 C 52.31 166.08 54.15 163.41 55.87 160.71 C 56.04 161.18 56.37 162.11 56.53 162.57 C 56.75 163.29 57.20 164.73 57.42 165.45 C 58.00 168.79 59.10 172.07 61.17 174.80 C 59.30 176.10 57.77 177.78 56.55 179.68 C 55.52 179.30 54.48 178.93 53.44 178.55 L 53.29 178.49 C 52.52 175.35 51.42 172.27 51.07 169.05 Z" />
<path fill="#040507" opacity="1.00" d=" M 114.40 162.08 C 116.22 161.45 119.39 161.36 120.63 162.81 C 118.81 163.39 115.63 163.54 114.40 162.08 Z" />
<path fill="#90ffff" opacity="1.00" d=" M 124.90 162.46 C 125.38 162.38 126.35 162.21 126.84 162.13 C 124.56 164.82 121.48 166.59 118.85 168.88 C 118.68 168.58 118.34 167.99 118.18 167.69 C 120.51 166.07 122.70 164.27 124.90 162.46 Z" />
<path fill="#90ffff" opacity="1.00" d=" M 56.53 162.57 C 60.38 165.43 62.58 170.67 67.50 171.91 C 67.38 172.56 67.26 173.22 67.13 173.87 C 67.19 173.44 67.30 172.56 67.36 172.13 C 62.51 173.63 60.23 168.30 57.42 165.45 C 57.20 164.73 56.75 163.29 56.53 162.57 Z" />
<path fill="#fa5f79" opacity="1.00" d=" M 82.38 166.26 C 83.22 165.30 84.07 164.35 84.90 163.38 C 85.75 164.36 86.59 165.34 87.44 166.32 C 86.86 166.54 85.70 166.97 85.11 167.19 C 84.43 166.96 83.06 166.50 82.38 166.26 Z" />
<path fill="#759685" opacity="1.00" d=" M 57.42 165.45 C 60.23 168.30 62.51 173.63 67.36 172.13 C 67.30 172.56 67.19 173.44 67.13 173.87 C 67.00 174.77 66.75 176.56 66.62 177.45 L 66.33 176.96 C 65.84 175.09 63.43 176.55 64.06 178.03 C 63.05 177.00 62.07 175.92 61.17 174.80 C 59.10 172.07 58.00 168.79 57.42 165.45 Z" />
<path fill="#505258" opacity="1.00" d=" M 87.44 166.32 C 88.81 167.04 90.18 167.77 91.55 168.50 C 91.52 169.87 91.51 171.25 91.49 172.63 C 91.09 173.17 90.30 174.24 89.90 174.78 C 89.47 174.26 88.60 173.23 88.17 172.72 C 89.02 171.86 89.86 171.00 90.71 170.14 C 88.93 169.00 87.05 168.02 85.11 167.19 C 85.70 166.97 86.86 166.54 87.44 166.32 Z" />
<path fill="#375068" opacity="1.00" d=" M 40.08 170.04 C 40.92 171.58 41.83 173.08 42.69 174.61 L 43.14 175.48 C 40.85 178.54 39.00 182.06 35.79 184.30 C 36.23 179.91 37.05 175.57 37.75 171.22 C 38.29 171.36 39.37 171.66 39.91 171.81 C 39.95 171.36 40.03 170.48 40.08 170.04 Z" />
<path fill="#538a89" opacity="1.00" d=" M 172.45 173.69 C 179.57 172.05 186.81 170.61 194.13 170.33 C 192.06 171.88 189.79 173.19 187.34 174.03 C 183.89 174.97 180.34 175.74 177.13 177.38 C 175.57 176.15 174.01 174.92 172.45 173.69 Z" />
<path fill="#5f7b61" opacity="1.00" d=" M 94.18 172.05 C 94.51 171.87 95.16 171.51 95.48 171.34 C 95.54 172.04 95.66 173.45 95.72 174.16 C 99.54 174.45 103.37 174.23 107.14 173.62 C 107.68 174.62 108.21 175.64 108.74 176.66 C 109.07 182.06 111.39 187.08 111.72 192.47 C 111.01 192.23 109.60 191.73 108.89 191.49 C 106.41 193.41 104.02 195.46 101.89 197.77 L 101.74 199.04 C 104.22 199.88 106.76 200.56 109.27 201.33 C 106.60 203.25 104.39 205.72 101.94 207.90 C 99.17 210.48 96.01 212.78 94.17 216.17 C 93.34 218.92 90.69 219.54 88.15 219.56 C 88.61 221.84 89.07 224.12 89.55 226.40 C 94.92 226.44 100.78 224.81 105.77 227.46 C 100.95 227.73 96.09 227.20 91.34 228.33 C 90.08 228.47 88.80 228.54 87.54 228.63 C 86.15 233.68 86.52 239.00 85.20 244.06 C 84.47 247.26 83.27 250.32 82.15 253.39 C 82.25 250.22 82.55 247.04 83.36 243.96 C 84.80 240.09 83.21 235.66 80.05 233.18 C 78.75 233.88 77.64 234.87 76.66 235.97 C 74.80 234.35 71.06 233.18 71.31 230.33 C 74.11 228.02 76.39 225.21 78.12 222.02 C 77.16 221.13 76.24 220.20 75.39 219.21 C 78.41 217.17 81.69 215.56 85.02 214.10 C 84.50 214.02 83.44 213.87 82.91 213.79 C 83.44 213.46 84.50 212.81 85.03 212.49 C 86.20 214.42 87.47 216.33 89.23 217.77 C 89.01 216.32 88.76 214.88 88.47 213.45 C 87.95 209.91 86.40 205.86 88.74 202.68 C 92.07 197.10 94.96 191.23 96.92 185.02 C 97.73 183.70 98.72 182.48 99.26 181.01 C 99.22 179.54 97.96 178.55 97.30 177.35 C 95.62 177.80 93.93 178.24 92.24 178.68 C 93.16 176.55 93.84 174.33 94.18 172.05 Z" />
<path fill="#90ffff" opacity="1.00" d=" M 113.00 180.38 C 114.93 176.86 117.03 173.39 119.73 170.41 C 119.19 174.27 116.19 177.15 114.33 180.44 C 114.00 180.42 113.33 180.39 113.00 180.38 Z" />
<path fill="#51766f" opacity="1.00" d=" M 169.40 175.36 C 170.41 174.79 171.42 174.23 172.45 173.69 C 174.01 174.92 175.57 176.15 177.13 177.38 C 175.72 178.15 174.35 179.01 172.95 179.80 C 171.54 180.11 170.11 180.49 168.66 180.37 C 167.62 179.41 167.40 177.95 166.91 176.69 C 167.74 176.25 168.57 175.80 169.40 175.36 Z" />
<path fill="#637f61" opacity="1.00" d=" M 177.13 177.38 C 180.34 175.74 183.89 174.97 187.34 174.03 C 184.97 176.16 182.54 178.22 180.13 180.32 C 177.03 180.34 175.18 183.37 172.13 183.65 C 172.42 182.37 172.69 181.08 172.95 179.80 C 174.35 179.01 175.72 178.15 177.13 177.38 Z" />
<path fill="#3b4b55" opacity="1.00" d=" M 61.17 174.80 C 62.07 175.92 63.05 177.00 64.06 178.03 C 64.43 178.31 65.17 178.86 65.54 179.13 C 65.19 183.54 61.84 186.92 60.47 191.02 C 59.18 189.34 57.94 187.62 56.57 186.00 C 56.30 185.87 55.77 185.60 55.50 185.47 L 55.27 185.35 C 54.55 183.11 53.98 180.83 53.44 178.55 C 54.48 178.93 55.52 179.30 56.55 179.68 C 57.77 177.78 59.30 176.10 61.17 174.80 Z" />
<path fill="#95bf94" opacity="1.00" d=" M 64.06 178.03 C 63.43 176.55 65.84 175.09 66.33 176.96 C 66.13 177.50 65.74 178.59 65.54 179.13 C 65.17 178.86 64.43 178.31 64.06 178.03 Z" />
<path fill="#475959" opacity="1.00" d=" M 82.48 183.33 C 86.51 182.03 84.62 174.59 89.60 175.35 C 89.93 179.49 88.82 183.58 87.25 187.37 C 84.74 187.72 82.24 186.74 79.78 186.34 L 80.57 185.68 C 80.94 185.64 81.69 185.56 82.07 185.52 C 80.31 185.21 78.56 184.88 76.80 184.65 C 78.69 184.22 80.62 183.92 82.48 183.33 Z" />
<path fill="#465a58" opacity="1.00" d=" M 66.33 176.96 L 66.62 177.45 C 66.91 177.98 67.50 179.05 67.80 179.58 C 67.55 179.88 67.06 180.47 66.82 180.77 C 68.18 182.54 69.49 184.36 70.68 186.26 C 69.44 190.59 72.40 194.51 73.57 198.53 C 69.32 198.96 65.07 198.06 60.81 198.28 C 58.22 194.41 56.44 190.03 55.50 185.47 C 55.77 185.60 56.30 185.87 56.57 186.00 C 57.94 187.62 59.18 189.34 60.47 191.02 C 61.84 186.92 65.19 183.54 65.54 179.13 C 65.74 178.59 66.13 177.50 66.33 176.96 Z" />
<path fill="#374455" opacity="1.00" d=" M 108.74 176.66 C 109.65 177.89 110.64 179.08 111.57 180.30 C 111.93 180.32 112.64 180.36 113.00 180.38 C 113.33 180.39 114.00 180.42 114.33 180.44 C 113.72 182.55 113.08 184.67 112.48 186.79 C 113.84 185.79 115.17 184.74 116.48 183.69 C 117.34 186.87 118.63 189.93 120.18 192.84 C 117.26 195.60 114.16 198.27 112.07 201.76 C 113.88 204.13 116.15 206.48 119.41 205.74 C 113.61 209.05 107.52 211.87 101.84 215.41 L 101.54 215.41 C 99.05 215.24 96.58 215.58 94.17 216.17 C 96.01 212.78 99.17 210.48 101.94 207.90 C 104.39 205.72 106.60 203.25 109.27 201.33 C 112.85 199.98 114.71 195.41 111.72 192.47 C 111.39 187.08 109.07 182.06 108.74 176.66 Z" />
<path fill="#93ba73" opacity="1.00" d=" M 126.24 178.87 C 127.98 177.89 129.87 177.24 131.86 177.06 C 130.78 178.55 129.67 180.02 128.61 181.53 C 128.01 180.86 126.83 179.53 126.24 178.87 Z" />
<path fill="#90b889" opacity="1.00" d=" M 67.80 179.58 C 68.17 179.21 68.91 178.48 69.28 178.11 C 70.31 180.51 70.22 183.95 72.75 185.37 C 74.09 185.09 75.44 184.85 76.80 184.65 C 78.56 184.88 80.31 185.21 82.07 185.52 C 81.69 185.56 80.94 185.64 80.57 185.68 C 79.54 185.68 77.49 185.69 76.47 185.69 C 76.50 186.49 76.57 188.09 76.60 188.89 C 74.73 187.80 72.24 187.76 70.68 186.26 C 69.49 184.36 68.18 182.54 66.82 180.77 C 67.06 180.47 67.55 179.88 67.80 179.58 Z" />
<path fill="#72a791" opacity="1.00" d=" M 92.24 178.68 C 93.93 178.24 95.62 177.80 97.30 177.35 C 97.96 178.55 99.22 179.54 99.26 181.01 C 98.72 182.48 97.73 183.70 96.92 185.02 C 97.84 183.38 94.84 181.80 94.81 184.08 C 95.12 184.41 95.76 185.09 96.08 185.43 C 95.10 185.91 94.13 186.42 93.17 186.92 C 94.01 184.65 94.40 182.24 94.75 179.85 C 94.01 180.49 92.54 181.76 91.80 182.40 C 91.63 181.11 91.78 179.87 92.24 178.68 Z" />
<path fill="#51766f" opacity="1.00" d=" M 120.11 183.61 C 122.01 181.85 124.11 180.33 126.24 178.87 C 126.83 179.53 128.01 180.86 128.61 181.53 C 126.19 183.16 123.04 185.29 120.11 183.61 Z" />
<path fill="#a9e5db" opacity="1.00" d=" M 91.80 182.40 C 92.54 181.76 94.01 180.49 94.75 179.85 C 94.40 182.24 94.01 184.65 93.17 186.92 C 91.00 192.31 89.02 198.23 84.42 202.08 C 84.63 201.11 85.03 199.15 85.23 198.17 C 87.98 193.17 90.26 187.90 91.80 182.40 Z" />
<path fill="#90ffff" opacity="1.00" d=" M 116.48 183.69 C 116.63 183.16 116.79 182.63 116.98 182.11 C 119.51 188.12 122.64 193.86 125.64 199.63 C 125.73 200.40 125.90 201.95 125.98 202.73 C 123.86 199.54 122.03 196.18 120.18 192.84 C 118.63 189.93 117.34 186.87 116.48 183.69 Z" />
<path fill="#60826a" opacity="1.00" d=" M 174.83 183.78 C 176.33 183.18 177.83 182.57 179.33 181.96 C 179.95 183.66 181.48 185.66 180.27 187.43 C 179.81 187.78 178.91 188.47 178.46 188.82 C 178.17 195.28 179.57 202.37 185.08 206.43 C 183.51 209.64 181.44 212.58 179.91 215.80 C 179.19 216.77 179.89 217.75 180.26 218.67 C 180.57 220.76 179.84 223.06 181.43 224.84 C 181.46 226.99 181.44 229.14 181.43 231.29 C 179.74 231.77 178.06 232.26 176.38 232.78 C 176.22 231.50 176.17 230.24 175.97 228.98 C 175.80 230.30 175.65 231.61 175.52 232.93 C 174.14 235.05 172.68 237.11 171.18 239.14 C 169.88 237.26 168.52 235.42 167.04 233.68 C 168.13 230.85 170.12 228.53 171.60 225.91 C 169.67 228.48 167.06 230.79 166.43 234.09 C 163.18 233.35 162.17 229.79 160.06 227.61 C 160.78 227.37 162.21 226.89 162.93 226.65 C 164.11 223.58 167.06 221.23 166.59 217.63 C 163.13 217.50 160.99 220.53 158.27 222.13 C 159.05 217.29 160.30 212.54 161.45 207.78 C 164.18 209.55 166.24 212.17 168.99 213.92 C 171.13 212.62 173.58 210.86 173.84 208.15 C 174.79 203.29 174.31 197.94 171.29 193.85 C 172.83 192.57 174.51 191.39 175.78 189.82 C 176.23 188.15 175.43 186.46 175.11 184.83 L 174.83 183.78 Z" />
<path fill="#affaf5" opacity="1.00" d=" M 94.81 184.08 C 94.84 181.80 97.84 183.38 96.92 185.02 L 96.08 185.43 C 95.76 185.09 95.12 184.41 94.81 184.08 Z" />
<path fill="#88af81" opacity="1.00" d=" M 96.08 185.43 L 96.92 185.02 C 94.96 191.23 92.07 197.10 88.74 202.68 C 86.40 205.86 87.95 209.91 88.47 213.45 C 86.09 209.90 83.36 206.60 81.14 202.95 C 82.43 201.29 83.76 199.67 85.23 198.17 C 85.03 199.15 84.63 201.11 84.42 202.08 C 89.02 198.23 91.00 192.31 93.17 186.92 C 94.13 186.42 95.10 185.91 96.08 185.43 Z" />
<path fill="#90b889" opacity="1.00" d=" M 178.46 188.82 C 178.91 188.47 179.81 187.78 180.27 187.43 C 180.50 194.06 181.38 202.06 187.35 206.13 C 184.67 210.12 182.55 214.45 180.26 218.67 C 179.89 217.75 179.19 216.77 179.91 215.80 C 181.44 212.58 183.51 209.64 185.08 206.43 C 179.57 202.37 178.17 195.28 178.46 188.82 Z" />
<path fill="#51594b" opacity="1.00" d=" M 80.65 189.04 C 82.45 189.15 84.25 189.27 86.04 189.41 C 85.68 190.98 85.22 192.53 84.61 194.03 C 82.49 193.12 81.63 190.94 80.65 189.04 Z" />
<path fill="#2f3d51" opacity="1.00" d=" M 101.89 197.77 C 104.02 195.46 106.41 193.41 108.89 191.49 L 109.39 192.51 C 107.77 194.11 106.09 195.66 104.47 197.28 C 106.75 196.63 109.00 195.91 111.25 195.17 C 112.05 196.49 111.80 198.82 109.86 198.79 C 107.16 198.83 104.52 198.21 101.89 197.77 Z" />
<path fill="#0f1316" opacity="1.00" d=" M 108.89 191.49 C 109.60 191.73 111.01 192.23 111.72 192.47 C 114.71 195.41 112.85 199.98 109.27 201.33 C 106.76 200.56 104.22 199.88 101.74 199.04 L 101.89 197.77 C 104.52 198.21 107.16 198.83 109.86 198.79 C 111.80 198.82 112.05 196.49 111.25 195.17 C 110.62 194.29 110.00 193.40 109.39 192.51 L 108.89 191.49 Z" />
<path fill="#54776b" opacity="1.00" d=" M 109.39 192.51 C 110.00 193.40 110.62 194.29 111.25 195.17 C 109.00 195.91 106.75 196.63 104.47 197.28 C 106.09 195.66 107.77 194.11 109.39 192.51 Z" />
<path fill="#252f4f" opacity="1.00" d=" M 112.07 201.76 C 114.16 198.27 117.26 195.60 120.18 192.84 C 122.03 196.18 123.86 199.54 125.98 202.73 C 125.90 201.95 125.73 200.40 125.64 199.63 C 126.97 200.01 127.40 200.96 126.94 202.49 C 124.30 203.25 121.90 204.61 119.41 205.74 C 116.15 206.48 113.88 204.13 112.07 201.76 Z" />
<path fill="#344f63" opacity="1.00" d=" M 113.84 211.51 C 116.50 209.88 119.13 208.08 122.14 207.15 C 127.14 207.78 131.80 209.89 136.68 211.08 C 135.02 213.91 132.54 216.13 130.92 218.97 C 132.04 221.74 133.02 224.58 133.27 227.57 C 130.57 222.89 127.77 218.11 126.99 212.66 C 126.18 212.65 125.37 212.65 124.56 212.64 C 124.56 215.05 124.80 217.46 125.51 219.78 C 125.40 220.25 125.20 221.19 125.09 221.66 C 123.19 220.41 121.15 219.29 119.55 217.66 C 118.92 216.17 118.56 214.59 117.93 213.10 C 116.67 212.34 115.23 211.95 113.84 211.51 Z" />
<path fill="#49615d" opacity="1.00" d=" M 111.85 212.33 C 112.35 212.13 113.34 211.71 113.84 211.51 C 115.23 211.95 116.67 212.34 117.93 213.10 C 118.56 214.59 118.92 216.17 119.55 217.66 C 121.15 219.29 123.19 220.41 125.09 221.66 C 125.20 221.19 125.40 220.25 125.51 219.78 C 129.13 229.65 133.27 239.32 137.74 248.84 C 137.91 249.57 138.24 251.03 138.41 251.76 C 138.26 252.31 137.96 253.40 137.82 253.94 C 136.79 252.42 136.00 250.68 134.61 249.46 C 132.07 248.45 129.32 248.22 126.64 247.77 C 126.75 246.27 126.96 244.76 126.82 243.26 C 122.67 238.01 116.44 233.79 115.11 226.81 C 114.06 223.72 116.89 221.15 116.88 218.20 C 116.06 215.65 113.67 214.11 111.85 212.33 Z" />
<path fill="#6ea4a2" opacity="1.00" d=" M 124.56 212.64 C 125.37 212.65 126.18 212.65 126.99 212.66 C 127.77 218.11 130.57 222.89 133.27 227.57 C 134.86 230.93 136.60 234.25 137.84 237.76 C 139.45 244.37 142.31 250.59 143.99 257.18 C 141.78 254.50 139.68 251.72 137.74 248.84 C 133.27 239.32 129.13 229.65 125.51 219.78 C 124.80 217.46 124.56 215.05 124.56 212.64 Z" />
<path fill="#546e5e" opacity="1.00" d=" M 98.95 218.10 C 103.55 216.95 107.40 213.92 111.85 212.33 C 113.67 214.11 116.06 215.65 116.88 218.20 C 116.89 221.15 114.06 223.72 115.11 226.81 C 116.44 233.79 122.67 238.01 126.82 243.26 C 126.96 244.76 126.75 246.27 126.64 247.77 C 129.32 248.22 132.07 248.45 134.61 249.46 C 136.00 250.68 136.79 252.42 137.82 253.94 C 137.96 253.40 138.26 252.31 138.41 251.76 C 141.94 259.73 145.06 267.96 149.78 275.33 C 150.39 276.57 151.56 277.21 152.93 277.22 C 152.34 275.05 151.70 272.89 150.92 270.78 C 154.18 274.76 157.31 278.85 159.82 283.36 C 161.59 286.41 162.67 290.17 165.88 292.09 C 168.22 293.19 168.41 295.88 168.99 298.08 C 167.78 296.64 166.48 295.27 165.16 293.92 C 165.96 306.04 176.12 314.46 180.22 325.38 C 182.35 333.95 187.44 341.47 192.48 348.60 C 187.37 349.32 182.18 349.37 177.03 349.19 C 174.78 349.45 172.97 347.20 173.55 345.06 C 174.65 333.42 167.78 322.93 160.31 314.68 C 154.05 308.29 147.49 301.86 139.47 297.72 C 145.80 292.57 151.37 283.32 146.69 275.35 C 140.40 265.14 132.12 256.20 122.51 249.03 C 123.59 247.45 126.58 245.86 125.35 243.66 C 121.13 238.89 116.51 234.47 111.93 230.05 C 110.34 228.26 107.84 228.29 105.77 227.46 C 100.78 224.81 94.92 226.44 89.55 226.40 C 89.07 224.12 88.61 221.84 88.15 219.56 C 90.69 219.54 93.34 218.92 94.17 216.17 C 96.58 215.58 99.05 215.24 101.54 215.41 C 100.67 216.29 99.81 217.19 98.95 218.10 Z" />
<path fill="#88af81" opacity="1.00" d=" M 75.43 217.47 C 77.85 216.12 80.24 214.60 82.91 213.79 C 83.44 213.87 84.50 214.02 85.02 214.10 C 81.69 215.56 78.41 217.17 75.39 219.21 C 75.40 218.78 75.42 217.91 75.43 217.47 Z" />
<path fill="#263d64" opacity="1.00" d=" M 87.54 228.63 C 88.80 228.54 90.08 228.47 91.34 228.33 C 92.35 229.26 93.63 229.78 94.90 230.27 C 94.59 233.59 94.84 236.96 96.12 240.07 C 93.69 246.01 90.42 251.57 87.30 257.17 C 86.25 260.64 85.43 264.84 88.07 267.84 C 87.18 269.23 86.15 270.55 85.49 272.08 C 84.76 273.95 86.35 275.48 87.12 277.02 C 84.59 278.73 82.89 281.23 82.74 284.35 C 79.48 287.36 77.81 291.57 75.03 294.95 C 75.99 290.27 78.83 285.87 77.93 280.94 C 77.13 276.15 78.54 271.43 78.89 266.67 C 79.01 266.03 79.26 264.77 79.38 264.13 C 80.18 260.52 81.31 256.99 82.15 253.39 C 83.27 250.32 84.47 247.26 85.20 244.06 C 86.52 239.00 86.15 233.68 87.54 228.63 Z" />
<path fill="#80a57c" opacity="1.00" d=" M 76.66 235.97 C 77.64 234.87 78.75 233.88 80.05 233.18 C 83.21 235.66 84.80 240.09 83.36 243.96 C 82.00 241.44 80.59 238.93 78.79 236.70 C 78.47 236.71 77.84 236.71 77.53 236.72 L 76.32 236.75 L 76.66 235.97 Z" />
<path fill="#90b889" opacity="1.00" d=" M 77.53 236.72 C 77.84 236.71 78.47 236.71 78.79 236.70 C 80.59 238.93 82.00 241.44 83.36 243.96 C 82.55 247.04 82.25 250.22 82.15 253.39 C 81.31 256.99 80.18 260.52 79.38 264.13 C 78.75 264.41 77.49 264.95 76.86 265.22 C 78.43 259.42 80.55 253.60 80.21 247.50 C 77.37 248.93 78.31 252.75 77.23 255.30 C 76.67 249.09 78.97 242.81 77.53 236.72 Z" />
<path fill="#2c3d55" opacity="1.00" d=" M 137.84 237.76 C 142.84 243.97 144.63 252.76 151.36 257.61 C 153.95 257.99 155.90 255.37 158.15 254.40 C 158.25 256.49 158.22 258.60 158.55 260.67 C 160.48 262.71 163.33 263.52 165.75 264.84 C 164.07 266.76 160.40 268.19 160.65 271.02 C 164.20 276.13 171.20 276.38 176.76 277.54 C 175.00 279.88 173.28 282.26 171.44 284.53 C 169.84 281.85 166.86 280.79 164.07 279.81 C 162.66 281.00 161.24 282.18 159.82 283.36 C 157.31 278.85 154.18 274.76 150.92 270.78 C 148.42 266.34 146.80 261.46 143.99 257.18 C 142.31 250.59 139.45 244.37 137.84 237.76 Z" />
<path fill="#4a5645" opacity="1.00" d=" M 72.33 248.22 C 73.27 246.84 76.11 248.13 74.86 249.70 C 73.92 251.00 71.14 249.74 72.33 248.22 Z" />
<path fill="#90ffff" opacity="1.00" d=" M 77.23 255.30 C 78.31 252.75 77.37 248.93 80.21 247.50 C 80.55 253.60 78.43 259.42 76.86 265.22 C 76.51 266.38 76.15 267.55 75.80 268.72 C 75.42 268.63 74.67 268.47 74.29 268.39 C 75.70 264.12 76.22 259.65 77.23 255.30 Z" />
<path fill="#82a784" opacity="1.00" d=" M 137.74 248.84 C 139.68 251.72 141.78 254.50 143.99 257.18 C 146.80 261.46 148.42 266.34 150.92 270.78 C 151.70 272.89 152.34 275.05 152.93 277.22 C 151.56 277.21 150.39 276.57 149.78 275.33 C 145.06 267.96 141.94 259.73 138.41 251.76 C 138.24 251.03 137.91 249.57 137.74 248.84 Z" />
<path fill="#51594b" opacity="1.00" d=" M 90.76 257.94 C 92.48 254.03 97.52 253.48 101.25 252.83 C 98.46 255.61 94.90 258.20 90.76 257.94 Z" />
<path fill="#252429" opacity="0.73" d=" M 89.59 260.28 C 91.08 260.24 92.57 260.20 94.06 260.17 C 92.10 260.97 90.27 262.05 88.44 263.12 C 88.73 262.41 89.30 260.99 89.59 260.28 Z" />
<path fill="#627e61" opacity="1.00" d=" M 76.86 265.22 C 77.49 264.95 78.75 264.41 79.38 264.13 C 79.26 264.77 79.01 266.03 78.89 266.67 C 76.43 273.54 75.05 280.79 74.48 288.07 C 74.45 295.59 70.14 302.04 67.60 308.87 C 63.86 315.99 61.03 323.52 57.66 330.81 C 55.03 337.34 51.42 343.47 49.72 350.36 C 46.46 350.52 43.19 350.74 39.93 350.81 C 42.40 347.32 46.43 345.45 49.15 342.19 C 56.11 334.36 59.96 324.19 61.88 314.02 L 62.32 313.31 C 63.13 312.06 63.79 310.69 64.05 309.21 C 65.36 302.29 65.19 295.21 65.19 288.20 C 64.54 288.29 63.89 288.40 63.24 288.51 C 62.74 286.09 65.85 285.91 67.30 284.86 C 66.18 282.82 64.92 280.86 63.53 278.99 C 66.10 278.11 68.92 277.66 71.22 276.14 C 73.01 273.94 73.53 271.05 74.29 268.39 C 74.67 268.47 75.42 268.63 75.80 268.72 C 76.15 267.55 76.51 266.38 76.86 265.22 Z" />
<path fill="#3b5362" opacity="1.00" d=" M 74.48 288.07 C 75.05 280.79 76.43 273.54 78.89 266.67 C 78.54 271.43 77.13 276.15 77.93 280.94 C 78.83 285.87 75.99 290.27 75.03 294.95 C 77.81 291.57 79.48 287.36 82.74 284.35 C 84.62 290.94 89.13 296.18 93.99 300.80 C 91.79 302.37 89.84 304.65 87.01 304.95 C 83.16 305.54 78.47 306.72 76.89 310.75 C 78.11 311.23 79.34 311.71 80.57 312.19 C 73.24 320.60 67.99 330.94 66.07 341.96 C 65.55 344.34 66.26 346.74 66.27 349.13 C 60.84 350.01 55.24 350.21 49.72 350.36 C 51.42 343.47 55.03 337.34 57.66 330.81 C 61.03 323.52 63.86 315.99 67.60 308.87 C 70.14 302.04 74.45 295.59 74.48 288.07 Z" />
<path fill="#364857" opacity="1.00" d=" M 159.82 283.36 C 161.24 282.18 162.66 281.00 164.07 279.81 C 166.86 280.79 169.84 281.85 171.44 284.53 C 170.54 285.88 169.41 287.28 170.04 289.01 C 170.72 294.96 173.94 300.32 174.25 306.33 C 172.16 303.81 170.22 301.14 168.99 298.08 C 168.41 295.88 168.22 293.19 165.88 292.09 C 162.67 290.17 161.59 286.41 159.82 283.36 Z" />
<path fill="#576d5e" opacity="1.00" d=" M 137.04 284.91 C 139.69 284.56 142.36 284.37 145.04 284.31 C 144.06 287.89 142.39 291.53 139.29 293.75 C 139.02 292.97 138.74 292.20 138.44 291.45 C 138.99 291.47 140.09 291.52 140.64 291.54 C 140.71 288.89 138.29 287.06 137.04 284.91 Z" />
<path fill="#90ffff" opacity="1.00" d=" M 63.24 288.51 C 63.89 288.40 64.54 288.29 65.19 288.20 C 65.19 295.21 65.36 302.29 64.05 309.21 C 63.79 310.69 63.13 312.06 62.32 313.31 C 62.78 305.05 63.98 296.79 63.24 288.51 Z" />
<path fill="#465451" opacity="1.00" d=" M 48.91 291.58 C 53.03 290.92 56.84 293.46 60.61 294.77 C 60.55 296.41 60.47 298.05 60.39 299.70 C 55.93 298.07 52.51 294.56 48.91 291.58 Z" />
<path fill="#719482" opacity="1.00" d=" M 165.16 293.92 C 166.48 295.27 167.78 296.64 168.99 298.08 C 170.22 301.14 172.16 303.81 174.25 306.33 C 176.88 311.82 178.90 317.63 180.83 323.40 C 183.94 326.67 185.78 330.86 188.49 334.44 C 187.94 334.99 186.63 336.37 186.05 335.07 C 184.07 331.86 182.49 328.41 180.22 325.38 C 176.12 314.46 165.96 306.04 165.16 293.92 Z" />
<path fill="#364a5b" opacity="1.00" d=" M 80.72 309.99 C 83.90 307.72 88.76 305.99 92.34 308.28 C 89.50 310.42 88.93 313.83 89.18 317.17 C 86.76 314.32 84.21 311.55 80.72 309.99 Z" />
<path fill="#6e8777" opacity="1.00" d=" M 89.18 317.17 C 88.93 313.83 89.50 310.42 92.34 308.28 C 94.51 312.29 94.26 318.57 90.29 321.23 C 89.90 319.88 89.46 318.55 89.18 317.17 Z" />
<path fill="#40575e" opacity="1.00" d=" M 179.75 312.83 C 181.95 311.15 184.48 310.02 187.09 309.16 C 185.80 312.33 184.30 315.41 182.83 318.51 C 181.73 316.66 180.71 314.76 179.75 312.83 Z" />
<path fill="#5f7b61" opacity="1.00" d=" M 161.13 329.49 C 161.95 327.70 163.05 326.06 164.59 324.82 C 165.31 325.97 166.02 327.13 166.75 328.28 C 164.86 328.61 162.99 329.02 161.13 329.49 Z" />
<path fill="#455c5d" opacity="1.00" d=" M 180.22 325.38 C 182.49 328.41 184.07 331.86 186.05 335.07 C 186.63 336.37 187.94 334.99 188.49 334.44 C 190.47 337.10 192.43 339.82 194.93 342.03 C 197.20 344.07 200.16 345.42 201.68 348.21 C 198.61 348.33 195.54 348.38 192.48 348.60 C 187.44 341.47 182.35 333.95 180.22 325.38 Z" />
</svg>
