<?xml version="1.0" encoding="UTF-8" ?>
<!DOCTYPE svg PUBLIC "-//W3C//DTD SVG 1.1//EN" "http://www.w3.org/Graphics/SVG/1.1/DTD/svg11.dtd">
<svg width="214pt" height="210pt" viewBox="0 0 214 210" version="1.1" xmlns="http://www.w3.org/2000/svg">
<path fill="#000000" opacity="1.00" d=" M 114.76 3.80 C 120.29 1.37 126.36 -0.33 132.44 0.57 C 129.99 5.29 126.57 9.42 124.15 14.16 C 121.05 20.03 117.53 25.64 114.06 31.29 C 116.90 29.52 119.58 27.39 122.86 26.50 C 122.73 31.37 121.05 35.97 119.75 40.60 C 136.41 28.60 156.25 20.21 176.98 19.56 C 183.46 19.50 190.24 19.46 196.29 22.12 C 194.80 22.34 193.30 22.51 191.81 22.68 C 189.87 26.34 187.78 29.94 185.22 33.22 C 175.52 46.11 164.46 58.32 150.88 67.21 C 157.36 67.92 163.49 70.30 169.51 72.67 C 177.62 76.07 185.70 80.32 191.62 86.97 C 188.51 92.94 182.67 96.78 176.91 99.88 C 170.01 103.31 162.68 106.05 155.07 107.33 C 149.61 107.73 144.15 108.06 138.71 108.62 L 138.35 108.65 L 138.21 108.95 C 135.17 117.03 131.00 124.58 126.45 131.91 C 122.47 131.15 119.05 128.82 115.19 127.67 C 112.88 126.68 109.90 126.31 108.47 124.02 C 108.90 120.22 110.31 116.61 111.13 112.88 C 108.35 111.38 105.59 109.83 102.87 108.23 C 101.23 109.96 99.05 110.72 96.72 110.87 C 96.99 112.61 97.22 114.36 97.48 116.11 C 94.27 119.18 91.04 122.33 88.64 126.10 C 87.52 130.07 92.03 132.63 94.28 135.26 C 93.37 137.44 91.25 138.58 89.38 139.81 C 91.06 144.01 93.42 147.93 96.55 151.22 C 98.04 151.54 99.28 152.34 100.21 153.55 C 104.29 150.66 107.52 145.47 112.82 145.08 C 113.00 147.83 111.80 150.35 111.16 152.96 C 116.23 163.24 125.60 173.58 138.00 173.37 C 138.54 171.81 138.98 170.19 139.84 168.76 C 141.65 167.54 144.01 168.24 145.67 169.37 C 150.23 172.37 153.90 176.47 157.50 180.51 C 161.83 185.55 165.67 191.29 166.98 197.91 C 173.09 198.59 179.27 198.38 185.39 198.97 C 194.96 199.83 204.74 199.92 214.00 202.75 L 214.00 203.48 C 211.00 205.32 207.42 205.54 204.03 206.06 C 187.11 208.09 170.05 208.45 153.04 209.21 C 122.37 209.89 91.68 209.89 61.00 209.21 C 43.65 208.43 26.25 208.11 9.00 205.93 C 5.93 205.59 2.91 204.86 0.00 203.81 L 0.00 202.91 C 5.70 200.62 11.92 200.60 17.92 199.71 C 17.83 199.17 17.65 198.09 17.56 197.55 C 19.62 197.52 19.54 195.50 19.94 194.05 C 21.47 186.48 27.07 180.55 32.99 175.99 C 36.11 173.71 39.32 171.23 43.13 170.29 C 45.73 170.41 48.18 171.61 50.81 171.77 C 51.92 170.14 52.95 168.47 53.94 166.77 C 51.35 165.38 46.63 165.54 46.03 162.04 C 47.05 157.48 49.44 153.34 50.87 148.89 C 50.50 148.12 49.78 146.58 49.41 145.81 C 50.93 143.32 53.84 142.69 56.41 141.88 C 56.18 141.10 55.72 139.53 55.49 138.75 C 59.95 136.38 65.10 135.23 69.07 132.02 C 72.84 127.95 74.58 122.44 75.99 117.18 C 71.98 120.58 68.89 124.86 65.57 128.90 C 65.20 130.45 64.69 131.97 64.12 133.47 C 56.72 133.11 49.29 132.99 41.91 132.27 C 41.29 130.61 40.65 128.96 40.00 127.31 C 38.95 128.19 37.89 129.08 36.84 129.96 C 36.33 129.37 35.29 128.20 34.77 127.61 C 32.42 128.99 30.01 132.69 27.05 131.08 C 24.67 127.86 24.15 123.75 24.19 119.86 C 22.53 118.43 20.50 117.18 19.66 115.05 C 19.33 112.78 19.91 110.51 20.27 108.28 C 22.17 98.04 23.59 87.52 28.06 78.00 C 28.32 78.48 28.84 79.42 29.11 79.89 C 29.93 86.80 29.16 93.81 29.37 100.76 C 30.31 99.89 31.27 99.02 32.22 98.16 C 32.92 102.68 32.57 107.33 33.72 111.78 C 34.06 112.92 34.38 114.07 34.67 115.23 C 34.61 116.85 34.49 118.47 34.36 120.09 C 33.66 119.78 32.96 119.48 32.25 119.18 C 31.16 113.79 31.68 108.25 30.99 102.81 C 27.06 106.36 27.61 111.85 26.81 116.61 C 25.95 120.90 26.76 125.27 28.76 129.12 L 29.85 128.30 C 32.30 127.32 34.24 122.90 37.06 124.92 L 36.91 126.91 C 38.00 125.98 39.10 125.05 40.19 124.13 C 41.70 125.98 43.06 127.96 44.20 130.07 C 50.26 130.45 56.34 130.45 62.41 130.79 C 64.53 127.17 66.95 123.73 69.18 120.17 C 70.12 119.06 71.13 117.99 72.35 117.17 C 73.83 116.42 75.34 115.73 76.83 115.01 C 74.94 113.68 73.05 112.34 71.14 111.03 C 71.22 111.98 71.32 112.92 71.45 113.87 C 69.62 116.03 67.84 118.24 66.06 120.45 C 64.25 121.87 62.02 122.46 59.82 122.99 C 58.41 122.67 56.99 122.36 55.59 121.95 C 52.29 120.80 48.95 119.71 45.50 119.10 C 44.99 119.80 44.49 120.50 43.97 121.19 C 42.80 120.54 41.66 119.83 40.56 119.07 C 40.54 118.38 40.50 117.00 40.48 116.32 C 40.38 114.06 40.66 111.69 39.64 109.59 C 37.52 105.22 40.83 100.05 38.57 95.81 C 37.55 101.34 36.99 106.94 37.03 112.57 C 36.38 112.49 35.07 112.33 34.42 112.25 C 35.99 103.88 36.16 95.30 37.91 86.97 C 38.13 85.94 38.75 85.23 39.78 84.82 C 40.63 91.52 40.62 98.28 40.81 105.02 C 40.63 107.30 42.27 109.02 43.10 111.00 C 43.19 113.69 42.81 116.38 42.70 119.07 C 43.82 118.43 44.93 117.73 46.12 117.22 C 50.59 117.36 54.65 119.52 58.76 121.07 C 61.20 119.69 64.33 119.42 66.17 117.12 C 67.18 116.03 68.07 114.83 68.99 113.67 C 68.40 113.44 67.22 112.97 66.63 112.74 C 66.08 111.35 65.54 109.95 64.99 108.56 C 62.23 110.07 59.69 113.01 56.34 112.74 C 53.49 110.56 51.11 107.84 48.77 105.13 C 47.08 102.92 44.76 100.58 45.39 97.53 C 49.18 97.35 53.11 97.11 56.47 95.16 C 53.86 94.26 51.06 93.79 48.70 92.30 C 47.07 91.06 48.00 88.88 47.87 87.17 C 43.80 82.17 40.93 76.34 38.32 70.49 C 35.96 65.02 37.60 58.91 39.42 53.55 C 40.92 49.53 42.35 45.14 45.86 42.40 C 47.52 45.22 48.55 48.35 50.15 51.21 C 51.58 41.05 55.37 30.95 62.19 23.18 C 66.58 19.17 71.54 14.94 77.62 14.05 C 77.75 21.30 77.71 28.58 76.61 35.77 C 86.52 22.27 99.39 10.69 114.76 3.80 M 117.03 5.70 C 111.65 7.82 106.78 10.98 101.96 14.12 L 102.04 14.22 C 98.48 16.60 95.23 19.38 91.99 22.16 L 92.05 22.26 C 90.37 23.78 88.75 25.38 87.25 27.08 C 83.75 31.01 80.35 35.03 77.38 39.38 C 74.39 43.60 71.90 48.23 70.60 53.26 C 69.37 57.76 68.04 62.29 67.65 66.95 C 67.45 70.02 66.49 72.96 65.72 75.92 C 65.63 75.19 65.44 73.73 65.34 73.01 C 64.99 69.37 65.44 65.73 65.52 62.09 C 66.99 55.83 68.86 49.65 71.76 43.88 C 74.08 40.69 74.11 36.62 74.56 32.86 C 75.04 27.54 75.80 22.17 75.18 16.84 C 71.58 18.77 68.22 21.15 65.39 24.10 L 65.39 24.34 C 62.11 27.52 60.45 31.85 57.67 35.40 C 53.28 40.89 52.35 48.30 51.67 55.09 C 50.87 59.24 50.62 63.55 51.67 67.68 C 51.74 70.54 52.28 73.41 53.39 76.05 C 53.39 77.19 53.82 78.18 54.69 79.03 C 54.62 79.41 54.48 80.16 54.40 80.54 C 52.39 80.65 51.48 78.51 50.93 76.95 C 48.73 70.20 49.27 62.98 49.31 55.99 C 47.84 52.67 47.32 48.84 45.09 45.90 C 43.32 51.63 40.19 57.40 40.36 63.42 C 39.91 65.25 40.14 67.19 41.03 68.85 C 42.77 74.28 45.49 79.49 48.86 84.08 C 49.10 83.77 49.57 83.14 49.81 82.83 L 50.27 81.31 C 50.77 81.11 51.77 80.72 52.28 80.52 C 52.37 83.93 50.32 87.16 50.51 90.45 C 53.71 91.70 57.03 92.79 59.70 95.06 C 57.46 99.09 52.35 99.70 48.21 99.88 C 49.30 101.78 50.64 103.51 52.01 105.20 C 53.30 107.34 54.81 109.36 56.86 110.84 C 59.37 109.36 61.92 107.90 64.14 105.99 C 63.75 105.12 63.37 104.26 62.98 103.40 C 63.93 102.56 65.27 102.03 65.84 100.84 C 65.66 99.49 65.22 98.20 64.88 96.89 C 63.99 95.96 62.99 95.15 61.91 94.45 C 62.37 93.71 62.82 92.96 63.28 92.22 C 63.42 88.82 65.17 85.84 67.83 83.77 C 67.65 82.22 67.57 80.66 67.63 79.11 C 68.11 80.34 68.32 81.65 68.47 82.96 C 71.10 81.96 73.85 81.35 76.62 80.84 C 77.69 77.89 78.33 74.59 80.46 72.17 C 80.07 75.22 78.98 78.11 78.03 81.02 C 79.96 83.57 82.56 85.48 85.92 84.59 C 87.11 83.10 88.42 81.69 90.14 80.84 C 89.06 82.41 88.09 84.04 87.09 85.66 C 90.72 85.75 92.50 81.57 95.79 80.48 C 95.09 82.90 92.10 83.31 91.00 85.48 C 92.81 85.54 94.74 84.89 96.49 85.54 C 97.90 87.27 98.55 89.49 99.66 91.42 C 100.46 91.34 102.05 91.20 102.84 91.13 C 103.15 91.47 103.78 92.15 104.09 92.48 C 103.53 94.01 102.98 95.55 102.43 97.09 C 104.99 99.73 107.92 101.95 110.85 104.15 C 112.42 105.25 112.97 107.34 114.67 108.29 C 116.44 109.40 118.27 110.41 120.03 111.53 C 121.94 110.33 125.04 109.73 125.06 106.93 C 124.35 104.18 120.97 102.65 121.30 99.52 C 121.91 99.14 123.14 98.39 123.75 98.01 C 121.20 93.76 117.68 90.22 114.07 86.86 C 112.52 85.52 111.55 83.70 110.80 81.82 C 111.57 81.84 113.10 81.87 113.87 81.89 C 117.65 83.99 121.66 85.65 125.48 87.70 C 125.03 81.29 123.19 75.05 122.38 68.67 L 122.04 67.15 C 121.71 63.74 121.10 60.36 120.91 56.93 C 124.09 58.24 125.49 61.67 127.44 64.25 C 128.95 66.83 130.28 69.50 131.61 72.18 C 132.20 71.27 132.60 70.27 132.80 69.19 C 133.76 70.37 134.76 71.52 135.77 72.65 C 144.33 68.29 152.60 63.29 159.87 56.97 L 159.85 56.77 C 171.07 46.73 181.16 35.26 189.13 22.47 C 188.23 22.45 186.42 22.41 185.52 22.39 C 176.51 21.89 167.53 23.01 158.73 24.87 L 158.64 25.28 C 155.49 25.78 152.52 27.00 149.49 27.95 C 146.77 28.91 144.09 29.99 141.48 31.21 C 130.92 36.09 121.04 42.45 112.27 50.10 L 112.68 49.88 C 110.18 51.63 108.01 53.82 105.85 55.98 C 103.51 57.87 101.95 60.62 99.39 62.21 C 101.75 54.03 109.63 49.30 115.42 43.65 C 117.56 39.15 119.06 34.38 120.42 29.60 C 113.23 35.05 106.22 40.91 100.88 48.26 C 96.07 53.45 90.63 58.10 85.38 62.87 C 84.87 61.00 86.50 59.80 87.56 58.55 C 89.68 56.33 91.40 53.77 93.47 51.51 C 96.27 48.32 98.85 44.93 102.02 42.09 C 107.14 37.06 110.89 30.86 114.76 24.87 C 117.25 21.00 119.40 16.92 121.69 12.93 C 123.83 9.44 125.71 5.80 127.77 2.27 C 124.07 2.97 120.45 4.13 117.03 5.70 M 123.19 61.87 C 124.58 69.45 126.08 77.01 127.58 84.57 C 127.55 88.12 128.77 91.53 128.93 95.07 C 126.16 94.68 126.52 90.96 124.53 89.46 C 121.45 87.01 117.68 85.64 114.09 84.12 C 115.37 85.50 116.91 86.60 118.48 87.64 C 121.20 89.49 122.71 92.49 124.75 94.98 C 124.72 97.00 124.49 99.03 123.59 100.87 C 125.54 103.49 127.98 106.26 127.25 109.81 C 125.94 110.68 124.64 111.55 123.32 112.39 L 123.44 112.91 C 122.77 113.21 121.43 113.83 120.75 114.13 C 119.36 113.80 118.03 113.28 116.75 112.66 C 114.86 111.54 112.58 110.24 112.28 107.84 C 109.54 106.11 107.53 103.41 104.74 101.80 C 104.21 100.38 102.56 97.97 100.91 97.85 L 100.39 96.43 C 100.50 95.91 100.73 94.88 100.85 94.36 C 100.18 94.34 98.85 94.28 98.18 94.26 C 97.13 92.27 96.01 90.30 94.66 88.49 L 95.12 87.81 C 93.34 87.76 91.57 87.99 89.81 88.29 C 89.69 88.99 89.45 90.38 89.33 91.08 C 88.50 89.90 87.66 88.71 86.82 87.54 L 86.77 86.81 C 83.17 86.92 79.15 86.25 77.20 82.85 C 77.18 83.61 77.14 85.12 77.11 85.87 C 76.24 86.85 75.43 87.89 74.80 89.04 C 77.07 89.78 79.03 87.80 81.10 87.15 C 83.90 89.08 85.02 92.42 87.40 94.74 C 85.65 95.18 83.85 95.45 82.04 95.32 C 81.63 95.54 80.82 95.99 80.41 96.21 C 80.61 95.95 81.01 95.45 81.21 95.19 C 81.86 94.95 83.14 94.48 83.79 94.24 C 83.41 92.12 82.47 90.10 80.96 88.55 C 79.13 87.67 77.75 89.58 76.35 90.42 C 75.72 90.09 74.46 89.43 73.83 89.10 C 71.91 90.60 69.93 92.12 68.66 94.25 C 68.18 96.04 67.80 97.85 67.61 99.69 C 71.26 99.59 73.71 95.25 77.40 96.62 L 77.10 97.20 C 77.89 96.99 79.48 96.56 80.27 96.35 C 79.53 97.32 78.42 97.83 77.41 98.46 C 76.68 98.02 75.95 97.59 75.21 97.16 C 71.91 99.63 67.69 100.85 65.02 104.11 C 65.59 104.36 66.71 104.85 67.28 105.09 C 66.91 105.97 66.55 106.86 66.19 107.75 C 66.52 108.22 67.19 109.15 67.53 109.62 C 70.82 109.48 74.13 109.41 77.37 108.69 C 77.57 109.10 77.97 109.92 78.17 110.34 C 77.36 110.49 75.73 110.80 74.92 110.96 C 75.70 111.61 76.48 112.27 77.27 112.92 C 77.75 111.89 78.23 110.87 78.71 109.84 C 82.68 109.30 86.35 107.64 90.00 106.11 C 91.30 103.11 94.88 100.06 98.19 102.02 C 99.86 103.18 101.60 104.22 103.39 105.17 L 103.38 105.48 C 106.76 107.68 110.30 109.68 113.43 112.25 C 112.80 115.99 111.75 119.67 111.44 123.46 C 116.45 124.71 121.18 126.79 125.81 129.05 C 127.17 125.93 128.85 122.96 130.27 119.87 C 132.30 116.20 134.33 112.53 136.25 108.81 C 135.80 106.15 137.07 104.21 139.25 102.83 C 139.85 102.59 141.04 102.10 141.63 101.86 C 142.51 98.73 141.16 95.57 140.90 92.45 C 141.85 90.97 142.77 89.46 143.51 87.86 C 140.86 83.78 137.91 79.90 135.17 75.89 C 135.10 79.19 136.42 82.21 137.99 85.02 C 138.71 86.73 140.29 88.52 139.26 90.47 C 135.26 87.16 134.52 81.41 131.19 77.49 C 129.87 73.47 127.62 69.87 125.75 66.10 C 124.97 64.66 124.64 62.84 123.19 61.87 M 147.49 69.35 C 144.22 71.50 140.60 72.97 137.11 74.69 C 138.98 76.98 140.73 79.35 142.55 81.68 C 143.82 83.52 144.97 85.43 146.17 87.32 C 145.34 90.47 142.71 93.51 144.12 96.87 C 144.55 98.84 145.24 101.15 144.00 102.96 C 142.81 104.09 141.35 104.88 139.99 105.78 C 142.50 105.65 145.07 105.76 147.49 105.00 C 154.08 105.05 160.43 103.26 166.59 101.09 L 166.66 100.83 C 174.71 98.09 183.07 94.18 188.21 87.14 C 186.99 86.14 185.77 85.16 184.55 84.18 C 180.48 81.05 175.99 78.51 171.29 76.46 C 163.69 73.16 155.79 70.20 147.49 69.35 M 66.74 86.91 C 65.83 88.72 65.72 90.79 65.43 92.76 C 65.02 93.34 64.19 94.49 63.78 95.07 C 66.09 92.71 68.40 90.22 71.73 89.36 C 71.10 88.24 71.17 86.03 69.26 86.44 C 70.70 85.32 72.10 84.15 73.40 82.87 C 70.75 83.32 68.64 85.14 66.74 86.91 M 71.33 86.01 C 71.96 86.56 72.59 87.10 73.23 87.64 C 74.35 86.65 76.17 85.92 75.78 84.11 C 74.28 84.70 72.81 85.37 71.33 86.01 M 25.48 93.82 C 24.51 100.21 23.19 106.55 22.33 112.95 C 21.94 114.74 23.26 116.12 24.51 117.17 C 25.10 114.17 25.42 111.14 25.54 108.09 C 25.64 106.21 27.38 104.86 27.46 102.96 C 27.84 97.63 28.14 92.23 27.33 86.92 C 26.09 89.00 25.96 91.49 25.48 93.82 M 93.29 105.25 C 91.78 107.51 89.58 108.92 87.03 109.77 C 84.77 110.58 82.45 111.13 80.11 111.61 C 80.49 112.51 80.88 113.40 81.26 114.30 L 81.08 115.75 C 80.65 115.32 79.81 114.47 79.38 114.05 C 78.96 115.74 78.32 117.41 78.18 119.15 C 76.49 123.38 75.11 127.83 72.47 131.60 C 69.98 134.75 66.16 136.31 62.73 138.19 L 62.78 138.34 C 61.34 138.80 59.92 139.28 58.49 139.77 C 58.78 140.65 59.37 142.40 59.66 143.27 C 57.20 143.97 54.75 144.75 52.43 145.85 C 53.27 147.47 53.98 149.16 54.23 150.98 C 50.53 153.32 50.22 158.10 49.10 161.94 C 49.62 162.10 50.67 162.40 51.19 162.56 L 51.18 162.61 C 52.84 163.39 54.40 164.35 56.02 165.21 C 56.10 168.02 55.10 170.73 52.80 172.45 C 52.13 172.87 50.81 173.71 50.15 174.13 C 47.57 174.15 45.13 173.03 42.55 173.21 C 35.60 176.66 29.63 181.99 25.23 188.35 L 25.05 188.36 C 23.56 191.31 22.15 194.53 22.31 197.90 C 22.86 199.44 21.91 202.52 24.25 202.65 C 24.59 200.37 24.72 197.98 25.98 195.98 C 27.11 194.04 26.73 191.33 28.72 189.93 C 28.46 194.08 29.63 198.06 31.23 201.85 C 31.37 202.87 32.02 203.51 33.17 203.77 C 32.59 197.81 36.89 191.59 42.68 190.05 C 45.81 190.59 48.94 188.96 52.00 189.75 C 54.29 191.23 54.00 194.28 54.43 196.65 C 55.82 198.51 56.44 201.38 58.93 202.10 C 58.74 200.66 58.18 199.32 57.57 198.02 C 58.24 196.54 59.87 194.66 57.73 193.50 C 56.07 191.31 53.46 188.76 54.71 185.75 C 56.20 183.14 59.42 183.37 61.97 183.83 C 63.04 182.72 63.94 181.47 64.56 180.07 C 62.21 179.68 59.24 179.15 58.48 176.47 C 57.28 174.01 58.81 171.58 60.43 169.80 C 59.91 168.37 59.38 166.94 58.82 165.52 L 58.18 165.46 C 57.57 163.71 56.11 161.87 57.00 159.95 C 59.03 153.75 63.72 148.66 69.27 145.36 C 71.57 144.92 73.92 145.33 76.24 145.48 C 76.54 146.11 77.15 147.39 77.46 148.02 C 79.84 152.42 82.52 156.66 85.54 160.64 L 85.53 160.75 C 87.69 163.54 90.21 166.01 92.77 168.43 C 92.72 167.48 92.62 165.58 92.57 164.63 C 93.15 166.85 94.25 168.84 96.02 170.34 C 97.54 168.37 99.12 165.36 102.06 165.75 C 108.27 167.81 113.55 172.83 115.87 178.96 C 117.31 182.71 116.88 187.90 113.15 190.14 C 110.11 191.96 107.88 195.16 107.97 198.81 C 112.35 194.73 116.26 189.98 121.86 187.47 C 122.72 187.42 124.44 187.32 125.30 187.27 L 126.30 188.70 C 126.59 189.19 127.18 190.15 127.48 190.63 C 127.84 194.04 125.91 197.07 125.63 200.39 C 127.75 199.73 128.75 197.25 131.07 196.99 C 135.02 196.20 138.44 198.84 141.95 200.16 C 142.88 196.01 137.19 196.14 136.59 192.77 C 135.74 193.39 134.89 194.01 134.03 194.62 C 133.27 191.87 133.18 189.00 133.54 186.19 C 134.90 184.37 136.39 182.11 138.95 182.17 C 142.58 181.53 145.45 184.10 148.03 186.21 C 149.36 188.69 147.54 192.33 150.41 193.88 C 150.99 192.02 151.75 190.22 153.12 188.79 C 158.07 187.97 160.58 193.02 162.89 196.45 C 162.64 194.95 162.76 193.31 161.98 191.96 C 157.67 184.26 152.15 177.08 145.06 171.75 C 143.96 171.22 142.86 170.69 141.76 170.16 C 140.97 171.83 140.75 173.89 139.57 175.32 C 135.17 177.40 130.28 174.94 125.82 174.15 L 125.46 173.24 C 124.22 172.31 122.94 171.44 121.65 170.58 C 115.38 165.85 111.10 159.15 107.63 152.22 C 108.00 151.49 108.74 150.03 109.11 149.30 C 105.60 151.44 103.21 155.21 99.20 156.54 C 96.04 154.57 93.04 152.34 90.88 149.26 C 89.01 146.03 86.65 142.70 86.69 138.82 C 87.18 137.10 89.11 136.75 90.44 135.91 C 88.26 133.87 87.11 129.59 83.43 130.43 C 84.29 127.39 86.04 124.72 87.55 121.99 C 90.27 120.29 92.06 117.54 94.64 115.66 C 94.63 113.38 94.68 111.10 94.79 108.82 C 96.35 108.21 100.41 108.99 99.79 106.38 C 97.92 105.05 95.35 103.13 93.29 105.25 M 59.63 160.98 C 59.90 164.45 63.96 166.48 63.85 170.03 C 62.77 171.41 61.40 172.54 60.42 174.00 C 60.50 178.09 66.38 176.30 67.92 179.11 C 67.36 181.94 64.65 183.90 63.17 186.34 C 61.15 186.30 59.11 186.34 57.11 186.67 C 57.13 190.85 63.95 193.27 60.73 197.53 C 75.51 197.31 90.29 196.95 105.07 196.85 C 105.73 194.53 106.47 192.10 108.32 190.42 C 110.20 188.40 113.63 187.28 113.66 184.06 C 113.86 177.02 107.94 171.39 101.95 168.66 C 98.93 168.96 99.15 173.79 96.05 173.93 C 94.26 173.16 93.81 170.70 91.84 170.16 C 87.89 168.73 85.35 165.17 82.88 161.98 C 79.67 157.40 76.60 152.70 73.97 147.77 C 73.15 147.66 71.52 147.46 70.71 147.36 C 65.98 150.87 61.53 155.26 59.63 160.98 M 135.43 190.30 C 137.66 190.16 138.19 192.56 139.88 193.39 C 141.80 194.35 143.43 195.74 144.88 197.31 C 149.93 197.54 154.98 197.63 160.03 197.66 C 158.29 195.52 157.07 191.08 153.76 191.72 C 153.61 192.87 153.36 194.02 153.02 195.14 C 151.02 196.54 148.46 195.48 146.70 194.20 C 145.59 192.63 146.75 190.72 146.74 189.00 C 145.31 186.23 142.06 184.11 138.86 184.65 C 136.39 185.39 135.76 188.06 135.43 190.30 M 113.87 196.81 C 117.36 196.85 120.85 196.91 124.34 197.08 C 124.71 195.01 124.87 192.91 124.92 190.81 C 120.42 189.77 117.10 194.33 113.87 196.81 M 36.71 198.27 C 41.76 198.61 46.81 198.03 51.84 197.74 C 51.74 196.07 51.63 194.41 51.45 192.75 C 48.61 192.74 45.76 192.53 42.92 192.81 C 40.05 193.45 38.18 195.91 36.71 198.27 Z" />
<path fill="#487179" opacity="1.00" d=" M 117.03 5.70 C 120.45 4.13 124.07 2.97 127.77 2.27 C 125.71 5.80 123.83 9.44 121.69 12.93 C 119.69 12.66 117.70 12.39 115.70 12.10 C 116.70 10.15 117.61 8.16 118.57 6.19 C 118.19 6.07 117.41 5.83 117.03 5.70 Z" />
<path fill="#5a7869" opacity="1.00" d=" M 101.96 14.12 C 106.78 10.98 111.65 7.82 117.03 5.70 C 117.41 5.83 118.19 6.07 118.57 6.19 C 117.61 8.16 116.70 10.15 115.70 12.10 C 113.44 15.73 110.94 19.22 108.99 23.04 C 107.37 26.02 105.47 28.84 103.61 31.67 C 103.16 27.84 106.38 25.06 107.93 21.87 C 105.91 19.36 103.92 16.83 102.04 14.22 L 101.96 14.12 Z" />
<path fill="#518b8e" opacity="1.00" d=" M 115.70 12.10 C 117.70 12.39 119.69 12.66 121.69 12.93 C 119.40 16.92 117.25 21.00 114.76 24.87 C 112.84 24.25 110.92 23.64 108.99 23.04 C 110.94 19.22 113.44 15.73 115.70 12.10 Z" />
<path fill="#68886a" opacity="1.00" d=" M 91.99 22.16 C 95.23 19.38 98.48 16.60 102.04 14.22 C 103.92 16.83 105.91 19.36 107.93 21.87 C 106.38 25.06 103.16 27.84 103.61 31.67 C 101.98 34.86 99.89 37.78 97.98 40.80 C 95.94 37.24 99.32 34.04 100.79 30.99 C 97.07 28.99 94.20 25.86 92.05 22.26 L 91.99 22.16 Z" />
<path fill="#3f6273" opacity="1.00" d=" M 65.39 24.10 C 68.22 21.15 71.58 18.77 75.18 16.84 C 75.80 22.17 75.04 27.54 74.56 32.86 C 74.11 36.62 74.08 40.69 71.76 43.88 C 70.28 43.80 68.80 43.72 67.32 43.65 C 66.71 41.68 66.11 39.71 65.51 37.73 C 64.83 37.41 64.14 37.09 63.46 36.78 L 63.59 36.33 C 65.61 32.67 65.26 28.37 65.39 24.34 L 65.39 24.10 Z" />
<path fill="#74966b" opacity="1.00" d=" M 87.25 27.08 C 88.75 25.38 90.37 23.78 92.05 22.26 C 94.20 25.86 97.07 28.99 100.79 30.99 C 99.32 34.04 95.94 37.24 97.98 40.80 C 96.21 43.90 94.27 46.91 91.98 49.66 C 89.22 46.30 91.82 42.50 93.61 39.42 C 91.00 37.78 88.35 36.20 85.60 34.81 C 87.07 32.54 90.13 29.58 87.25 27.08 Z" />
<path fill="#5aa09c" opacity="1.00" d=" M 108.99 23.04 C 110.92 23.64 112.84 24.25 114.76 24.87 C 110.89 30.86 107.14 37.06 102.02 42.09 C 98.85 44.93 96.27 48.32 93.47 51.51 C 92.97 50.90 92.47 50.29 91.98 49.66 C 94.27 46.91 96.21 43.90 97.98 40.80 C 99.89 37.78 101.98 34.86 103.61 31.67 C 105.47 28.84 107.37 26.02 108.99 23.04 Z" />
<path fill="#88ad6c" opacity="1.00" d=" M 158.73 24.87 C 167.53 23.01 176.51 21.89 185.52 22.39 C 184.89 23.01 184.25 23.61 183.60 24.20 C 180.43 25.77 177.19 27.18 174.03 28.75 C 168.83 30.57 164.03 33.26 159.17 35.82 C 152.85 38.21 147.49 42.54 142.27 46.73 C 143.70 49.15 145.83 50.98 148.37 52.18 C 141.48 56.35 134.55 60.47 127.44 64.25 C 125.49 61.67 124.09 58.24 120.91 56.93 C 121.10 60.36 121.71 63.74 122.04 67.15 C 117.17 67.91 112.68 70.05 108.38 72.36 C 105.40 73.96 103.45 76.84 100.85 78.93 L 100.06 79.23 C 100.86 78.00 101.70 76.79 102.53 75.58 C 97.60 74.61 94.16 78.83 90.14 80.84 C 88.42 81.69 87.11 83.10 85.92 84.59 C 82.56 85.48 79.96 83.57 78.03 81.02 C 78.98 78.11 80.07 75.22 80.46 72.17 C 78.33 74.59 77.69 77.89 76.62 80.84 C 73.85 81.35 71.10 81.96 68.47 82.96 C 68.32 81.65 68.11 80.34 67.63 79.11 C 67.57 80.66 67.65 82.22 67.83 83.77 C 65.17 85.84 63.42 88.82 63.28 92.22 C 62.82 92.96 62.37 93.71 61.91 94.45 C 62.99 95.15 63.99 95.96 64.88 96.89 C 64.55 98.36 63.79 99.70 62.35 100.32 C 59.04 102.21 55.45 103.56 52.01 105.20 C 50.64 103.51 49.30 101.78 48.21 99.88 C 52.35 99.70 57.46 99.09 59.70 95.06 C 57.03 92.79 53.71 91.70 50.51 90.45 C 50.32 87.16 52.37 83.93 52.28 80.52 C 51.77 80.72 50.77 81.11 50.27 81.31 C 48.30 77.25 45.80 73.49 43.77 69.46 C 44.77 67.10 46.91 65.63 48.53 63.73 C 49.20 61.22 49.22 58.58 49.31 55.99 C 49.27 62.98 48.73 70.20 50.93 76.95 C 51.48 78.51 52.39 80.65 54.40 80.54 C 54.48 80.16 54.62 79.41 54.69 79.03 C 55.82 75.75 55.50 72.31 54.88 68.97 C 53.49 61.97 57.32 55.44 57.41 48.50 C 56.49 49.32 55.58 50.15 54.67 50.97 C 55.30 47.74 55.85 44.50 56.47 41.27 L 57.20 41.63 C 57.69 41.90 58.67 42.43 59.16 42.70 C 60.64 39.75 61.96 36.71 63.71 33.91 C 63.68 34.52 63.62 35.73 63.59 36.33 L 63.46 36.78 C 62.11 41.67 61.82 46.78 60.83 51.75 C 59.60 57.60 58.76 63.67 59.57 69.64 C 59.74 70.97 61.04 71.67 61.88 72.58 C 62.30 72.30 63.16 71.74 63.59 71.46 C 64.17 71.98 64.75 72.50 65.34 73.01 C 65.44 73.73 65.63 75.19 65.72 75.92 C 66.49 72.96 67.45 70.02 67.65 66.95 C 67.72 68.53 67.84 70.11 67.99 71.68 C 70.76 71.80 70.35 68.84 70.88 66.96 C 71.79 62.04 73.56 57.32 75.61 52.76 C 78.38 51.96 81.13 50.74 82.66 48.14 C 81.56 46.66 80.48 45.13 80.14 43.29 C 81.92 40.44 83.67 37.56 85.60 34.81 C 88.35 36.20 91.00 37.78 93.61 39.42 C 91.82 42.50 89.22 46.30 91.98 49.66 C 92.47 50.29 92.97 50.90 93.47 51.51 C 91.40 53.77 89.68 56.33 87.56 58.55 C 86.50 59.80 84.87 61.00 85.38 62.87 C 84.13 64.61 82.72 66.33 82.51 68.55 C 86.58 66.94 89.37 63.44 92.52 60.56 C 96.21 57.16 99.41 53.28 102.79 49.58 C 102.31 49.25 101.36 48.59 100.88 48.26 C 106.22 40.91 113.23 35.05 120.42 29.60 C 119.06 34.38 117.56 39.15 115.42 43.65 C 109.63 49.30 101.75 54.03 99.39 62.21 C 101.95 60.62 103.51 57.87 105.85 55.98 C 103.78 58.20 102.09 60.74 100.11 63.04 C 98.55 64.75 97.06 66.54 95.93 68.57 C 100.48 67.64 103.80 64.07 106.96 60.93 C 117.45 50.36 130.28 42.55 141.44 32.78 C 141.45 32.39 141.47 31.60 141.48 31.21 C 144.09 29.99 146.77 28.91 149.49 27.95 C 151.65 31.63 155.66 27.79 158.18 26.57 C 158.30 26.25 158.53 25.60 158.64 25.28 L 158.73 24.87 Z" />
<path fill="#518b8e" opacity="1.00" d=" M 185.52 22.39 C 186.42 22.41 188.23 22.45 189.13 22.47 C 181.16 35.26 171.07 46.73 159.85 56.77 C 159.79 56.16 159.67 54.94 159.60 54.33 C 165.37 48.70 170.83 42.73 175.56 36.20 C 178.26 32.31 183.47 29.29 183.60 24.20 C 184.25 23.61 184.89 23.01 185.52 22.39 Z" />
<path fill="#557369" opacity="1.00" d=" M 57.67 35.40 C 60.45 31.85 62.11 27.52 65.39 24.34 C 65.26 28.37 65.61 32.67 63.59 36.33 C 63.62 35.73 63.68 34.52 63.71 33.91 C 61.96 36.71 60.64 39.75 59.16 42.70 C 58.67 42.43 57.69 41.90 57.20 41.63 C 57.34 39.55 57.55 37.48 57.67 35.40 Z" />
<path fill="#bdf29d" opacity="1.00" d=" M 149.49 27.95 C 152.52 27.00 155.49 25.78 158.64 25.28 C 158.53 25.60 158.30 26.25 158.18 26.57 C 155.66 27.79 151.65 31.63 149.49 27.95 Z" />
<path fill="#354f67" opacity="1.00" d=" M 174.03 28.75 C 177.19 27.18 180.43 25.77 183.60 24.20 C 183.47 29.29 178.26 32.31 175.56 36.20 C 171.04 36.87 168.05 41.10 163.47 41.52 C 167.32 37.55 170.88 33.30 174.03 28.75 Z" />
<path fill="#bdf29d" opacity="1.00" d=" M 77.38 39.38 C 80.35 35.03 83.75 31.01 87.25 27.08 C 90.13 29.58 87.07 32.54 85.60 34.81 C 83.67 37.56 81.92 40.44 80.14 43.29 C 79.79 42.19 78.89 41.53 77.97 40.96 C 77.82 40.56 77.53 39.77 77.38 39.38 Z" />
<path fill="#68896a" opacity="1.00" d=" M 159.17 35.82 C 164.03 33.26 168.83 30.57 174.03 28.75 C 170.88 33.30 167.32 37.55 163.47 41.52 C 162.44 42.43 161.38 43.31 160.32 44.18 C 158.43 42.79 156.68 41.23 155.13 39.47 C 156.47 38.25 157.80 37.01 159.17 35.82 Z" />
<path fill="#c5fb9e" opacity="1.00" d=" M 112.27 50.10 C 121.04 42.45 130.92 36.09 141.48 31.21 C 141.47 31.60 141.45 32.39 141.44 32.78 C 130.28 42.55 117.45 50.36 106.96 60.93 C 103.80 64.07 100.48 67.64 95.93 68.57 C 97.06 66.54 98.55 64.75 100.11 63.04 C 100.18 63.72 100.32 65.08 100.39 65.76 C 104.25 61.23 108.34 56.85 113.11 53.26 C 115.30 51.40 118.08 49.91 119.11 47.06 C 116.92 47.89 114.74 48.75 112.68 49.88 L 112.27 50.10 Z" />
<path fill="#4397a0" opacity="1.00" d=" M 57.67 35.40 C 57.55 37.48 57.34 39.55 57.20 41.63 L 56.47 41.27 L 55.28 41.53 C 53.67 45.89 52.83 50.50 52.22 55.10 C 51.81 59.28 51.98 63.49 51.67 67.68 C 50.62 63.55 50.87 59.24 51.67 55.09 C 52.35 48.30 53.28 40.89 57.67 35.40 Z" />
<path fill="#77996b" opacity="1.00" d=" M 142.27 46.73 C 147.49 42.54 152.85 38.21 159.17 35.82 C 157.80 37.01 156.47 38.25 155.13 39.47 C 156.68 41.23 158.43 42.79 160.32 44.18 C 156.58 47.19 152.52 49.78 148.37 52.18 C 145.83 50.98 143.70 49.15 142.27 46.73 Z" />
<path fill="#4a6769" opacity="1.00" d=" M 163.47 41.52 C 168.05 41.10 171.04 36.87 175.56 36.20 C 170.83 42.73 165.37 48.70 159.60 54.33 C 159.67 54.94 159.79 56.16 159.85 56.77 L 159.87 56.97 C 152.60 63.29 144.33 68.29 135.77 72.65 C 134.76 71.52 133.76 70.37 132.80 69.19 C 132.60 70.27 132.20 71.27 131.61 72.18 C 130.28 69.50 128.95 66.83 127.44 64.25 C 134.55 60.47 141.48 56.35 148.37 52.18 C 152.52 49.78 156.58 47.19 160.32 44.18 C 161.38 43.31 162.44 42.43 163.47 41.52 Z" />
<path fill="#537069" opacity="1.00" d=" M 60.83 51.75 C 61.82 46.78 62.11 41.67 63.46 36.78 C 64.14 37.09 64.83 37.41 65.51 37.73 C 66.11 39.71 66.71 41.68 67.32 43.65 C 68.80 43.72 70.28 43.80 71.76 43.88 C 68.86 49.65 66.99 55.83 65.52 62.09 C 65.40 61.68 65.15 60.86 65.02 60.45 C 63.95 60.82 62.90 62.00 61.72 61.31 C 61.00 58.18 61.00 54.94 60.83 51.75 Z" />
<path fill="#d2efe6" opacity="1.00" d=" M 77.38 39.38 C 77.53 39.77 77.82 40.56 77.97 40.96 C 75.84 45.54 74.05 50.26 72.31 55.00 C 71.74 54.42 71.17 53.84 70.60 53.26 C 71.90 48.23 74.39 43.60 77.38 39.38 Z" />
<path fill="#d4ffac" opacity="1.00" d=" M 77.97 40.96 C 78.89 41.53 79.79 42.19 80.14 43.29 C 80.48 45.13 81.56 46.66 82.66 48.14 C 81.13 50.74 78.38 51.96 75.61 52.76 C 73.56 57.32 71.79 62.04 70.88 66.96 C 70.35 68.84 70.76 71.80 67.99 71.68 C 67.84 70.11 67.72 68.53 67.65 66.95 C 68.04 62.29 69.37 57.76 70.60 53.26 C 71.17 53.84 71.74 54.42 72.31 55.00 C 74.05 50.26 75.84 45.54 77.97 40.96 Z" />
<path fill="#a9f2e9" opacity="1.00" d=" M 55.28 41.53 L 56.47 41.27 C 55.85 44.50 55.30 47.74 54.67 50.97 C 54.43 52.15 54.16 53.32 53.89 54.50 L 52.22 55.10 C 52.83 50.50 53.67 45.89 55.28 41.53 Z" />
<path fill="#628a70" opacity="1.00" d=" M 45.09 45.90 C 47.32 48.84 47.84 52.67 49.31 55.99 C 49.22 58.58 49.20 61.22 48.53 63.73 C 46.91 65.63 44.77 67.10 43.77 69.46 C 42.76 67.38 41.61 65.37 40.36 63.42 C 40.19 57.40 43.32 51.63 45.09 45.90 Z" />
<path fill="#e2f3e6" opacity="1.00" d=" M 112.68 49.88 C 114.74 48.75 116.92 47.89 119.11 47.06 C 118.08 49.91 115.30 51.40 113.11 53.26 C 108.34 56.85 104.25 61.23 100.39 65.76 C 100.32 65.08 100.18 63.72 100.11 63.04 C 102.09 60.74 103.78 58.20 105.85 55.98 C 108.01 53.82 110.18 51.63 112.68 49.88 Z" />
<path fill="#c5fb9e" opacity="1.00" d=" M 54.67 50.97 C 55.58 50.15 56.49 49.32 57.41 48.50 C 57.32 55.44 53.49 61.97 54.88 68.97 C 55.50 72.31 55.82 75.75 54.69 79.03 C 53.82 78.18 53.39 77.19 53.39 76.05 C 54.70 68.95 52.95 61.68 53.89 54.50 C 54.16 53.32 54.43 52.15 54.67 50.97 Z" />
<path fill="#cff5e6" opacity="1.00" d=" M 85.38 62.87 C 90.63 58.10 96.07 53.45 100.88 48.26 C 101.36 48.59 102.31 49.25 102.79 49.58 C 99.41 53.28 96.21 57.16 92.52 60.56 C 89.37 63.44 86.58 66.94 82.51 68.55 C 82.72 66.33 84.13 64.61 85.38 62.87 Z" />
<path fill="#73956b" opacity="1.00" d=" M 59.57 69.64 C 58.76 63.67 59.60 57.60 60.83 51.75 C 61.00 54.94 61.00 58.18 61.72 61.31 C 62.90 62.00 63.95 60.82 65.02 60.45 C 65.15 60.86 65.40 61.68 65.52 62.09 C 65.44 65.73 64.99 69.37 65.34 73.01 C 64.75 72.50 64.17 71.98 63.59 71.46 C 63.16 71.74 62.30 72.30 61.88 72.58 C 61.04 71.67 59.74 70.97 59.57 69.64 Z" />
<path fill="#c8e5d3" opacity="1.00" d=" M 52.22 55.10 L 53.89 54.50 C 52.95 61.68 54.70 68.95 53.39 76.05 C 52.28 73.41 51.74 70.54 51.67 67.68 C 51.98 63.49 51.81 59.28 52.22 55.10 Z" />
<path fill="#adbf9b" opacity="1.00" d=" M 123.19 61.87 C 124.64 62.84 124.97 64.66 125.75 66.10 C 127.62 69.87 129.87 73.47 131.19 77.49 C 131.09 81.25 132.52 85.19 131.11 88.82 C 129.84 87.47 128.65 86.07 127.58 84.57 C 126.08 77.01 124.58 69.45 123.19 61.87 Z" />
<path fill="#adf3e8" opacity="1.00" d=" M 40.36 63.42 C 41.61 65.37 42.76 67.38 43.77 69.46 C 45.80 73.49 48.30 77.25 50.27 81.31 L 49.81 82.83 C 48.20 82.23 47.48 80.64 46.65 79.28 C 44.70 75.84 42.88 72.34 41.03 68.85 C 40.14 67.19 39.91 65.25 40.36 63.42 Z" />
<path fill="#3c4a53" opacity="1.00" d=" M 108.38 72.36 C 112.68 70.05 117.17 67.91 122.04 67.15 L 122.38 68.67 C 121.14 71.03 118.99 72.57 116.69 73.76 C 113.94 75.05 113.05 78.18 111.63 80.62 C 112.37 81.05 113.12 81.47 113.87 81.89 C 113.10 81.87 111.57 81.84 110.80 81.82 C 111.55 83.70 112.52 85.52 114.07 86.86 C 117.68 90.22 121.20 93.76 123.75 98.01 C 123.14 98.39 121.91 99.14 121.30 99.52 C 119.65 100.12 117.64 101.42 116.03 100.05 C 112.07 97.48 108.23 94.74 104.09 92.48 C 103.78 92.15 103.15 91.47 102.84 91.13 C 102.05 91.20 100.46 91.34 99.66 91.42 C 98.55 89.49 97.90 87.27 96.49 85.54 C 94.74 84.89 92.81 85.54 91.00 85.48 C 92.10 83.31 95.09 82.90 95.79 80.48 C 96.82 80.41 97.86 80.54 98.89 80.61 C 99.55 80.05 100.20 79.49 100.85 78.93 C 103.45 76.84 105.40 73.96 108.38 72.36 Z" />
<path fill="#58744e" opacity="1.00" d=" M 41.03 68.85 C 42.88 72.34 44.70 75.84 46.65 79.28 C 47.48 80.64 48.20 82.23 49.81 82.83 C 49.57 83.14 49.10 83.77 48.86 84.08 C 45.49 79.49 42.77 74.28 41.03 68.85 Z" />
<path fill="#4b595b" opacity="1.00" d=" M 116.69 73.76 C 118.99 72.57 121.14 71.03 122.38 68.67 C 123.19 75.05 125.03 81.29 125.48 87.70 C 121.66 85.65 117.65 83.99 113.87 81.89 C 113.12 81.47 112.37 81.05 111.63 80.62 C 113.05 78.18 113.94 75.05 116.69 73.76 Z" />
<path fill="#617762" opacity="1.00" d=" M 147.49 69.35 C 155.79 70.20 163.69 73.16 171.29 76.46 C 167.61 77.56 163.84 78.42 159.98 78.57 C 154.05 78.79 148.25 80.12 142.55 81.68 C 140.73 79.35 138.98 76.98 137.11 74.69 C 140.60 72.97 144.22 71.50 147.49 69.35 Z" />
<path fill="#515b5b" opacity="1.00" d=" M 90.14 80.84 C 94.16 78.83 97.60 74.61 102.53 75.58 C 101.70 76.79 100.86 78.00 100.06 79.23 L 100.85 78.93 C 100.20 79.49 99.55 80.05 98.89 80.61 C 97.86 80.54 96.82 80.41 95.79 80.48 C 92.50 81.57 90.72 85.75 87.09 85.66 C 88.09 84.04 89.06 82.41 90.14 80.84 Z" />
<path fill="#9d8f7c" opacity="1.00" d=" M 135.17 75.89 C 137.91 79.90 140.86 83.78 143.51 87.86 C 142.77 89.46 141.85 90.97 140.90 92.45 C 140.60 92.96 140.01 93.99 139.71 94.50 C 137.80 93.55 138.51 91.91 139.26 90.47 C 140.29 88.52 138.71 86.73 137.99 85.02 C 136.42 82.21 135.10 79.19 135.17 75.89 Z" />
<path fill="#81a36a" opacity="1.00" d=" M 159.98 78.57 C 163.84 78.42 167.61 77.56 171.29 76.46 C 175.99 78.51 180.48 81.05 184.55 84.18 C 182.61 85.16 180.63 86.06 178.63 86.88 C 168.73 87.57 158.91 89.82 148.95 89.23 C 147.63 89.36 146.86 88.22 146.17 87.32 C 144.97 85.43 143.82 83.52 142.55 81.68 C 148.25 80.12 154.05 78.79 159.98 78.57 Z" />
<path fill="#79766c" opacity="1.00" d=" M 131.19 77.49 C 134.52 81.41 135.26 87.16 139.26 90.47 C 138.51 91.91 137.80 93.55 139.71 94.50 C 138.61 96.71 136.82 98.40 134.93 99.92 C 131.16 99.22 127.08 98.35 124.75 94.98 C 122.71 92.49 121.20 89.49 118.48 87.64 C 116.91 86.60 115.37 85.50 114.09 84.12 C 117.68 85.64 121.45 87.01 124.53 89.46 C 126.52 90.96 126.16 94.68 128.93 95.07 C 128.77 91.53 127.55 88.12 127.58 84.57 C 128.65 86.07 129.84 87.47 131.11 88.82 C 132.52 85.19 131.09 81.25 131.19 77.49 Z" />
<path fill="#a19380" opacity="1.00" d=" M 66.74 86.91 C 68.64 85.14 70.75 83.32 73.40 82.87 C 72.10 84.15 70.70 85.32 69.26 86.44 C 71.17 86.03 71.10 88.24 71.73 89.36 C 68.40 90.22 66.09 92.71 63.78 95.07 C 64.19 94.49 65.02 93.34 65.43 92.76 C 65.72 90.79 65.83 88.72 66.74 86.91 Z" />
<path fill="#79766c" opacity="1.00" d=" M 77.20 82.85 C 79.15 86.25 83.17 86.92 86.77 86.81 L 86.82 87.54 C 86.93 89.95 87.18 92.34 87.40 94.74 C 85.02 92.42 83.90 89.08 81.10 87.15 C 79.03 87.80 77.07 89.78 74.80 89.04 C 75.43 87.89 76.24 86.85 77.11 85.87 C 77.14 85.12 77.18 83.61 77.20 82.85 Z" />
<path fill="#d4ffac" opacity="1.00" d=" M 71.33 86.01 C 72.81 85.37 74.28 84.70 75.78 84.11 C 76.17 85.92 74.35 86.65 73.23 87.64 C 72.59 87.10 71.96 86.56 71.33 86.01 Z" />
<path fill="#539096" opacity="1.00" d=" M 184.55 84.18 C 185.77 85.16 186.99 86.14 188.21 87.14 C 183.07 94.18 174.71 98.09 166.66 100.83 C 167.48 97.77 168.26 94.70 168.81 91.58 C 172.24 90.36 175.48 88.70 178.63 86.88 C 180.63 86.06 182.61 85.16 184.55 84.18 Z" />
<path fill="#a89c86" opacity="1.00" d=" M 25.48 93.82 C 25.96 91.49 26.09 89.00 27.33 86.92 C 28.14 92.23 27.84 97.63 27.46 102.96 C 27.38 104.86 25.64 106.21 25.54 108.09 C 25.42 111.14 25.10 114.17 24.51 117.17 C 23.26 116.12 21.94 114.74 22.33 112.95 C 23.19 106.55 24.51 100.21 25.48 93.82 Z" />
<path fill="#52665d" opacity="1.00" d=" M 146.17 87.32 C 146.86 88.22 147.63 89.36 148.95 89.23 C 158.91 89.82 168.73 87.57 178.63 86.88 C 175.48 88.70 172.24 90.36 168.81 91.58 C 163.42 93.51 158.02 95.47 152.81 97.87 C 149.98 99.14 147.54 101.76 147.49 105.00 C 145.07 105.76 142.50 105.65 139.99 105.78 C 141.35 104.88 142.81 104.09 144.00 102.96 C 145.24 101.15 144.55 98.84 144.12 96.87 C 142.71 93.51 145.34 90.47 146.17 87.32 Z" />
<path fill="#9c8e7a" opacity="1.00" d=" M 87.40 94.74 C 87.18 92.34 86.93 89.95 86.82 87.54 C 87.66 88.71 88.50 89.90 89.33 91.08 C 89.45 90.38 89.69 88.99 89.81 88.29 C 91.57 87.99 93.34 87.76 95.12 87.81 L 94.66 88.49 C 92.31 90.65 90.93 94.39 87.40 94.74 Z" />
<path fill="#510959" opacity="1.00" d=" M 76.35 90.42 C 77.75 89.58 79.13 87.67 80.96 88.55 C 82.47 90.10 83.41 92.12 83.79 94.24 C 83.14 94.48 81.86 94.95 81.21 95.19 C 81.01 95.45 80.61 95.95 80.41 96.21 L 80.27 96.35 C 79.48 96.56 77.89 96.99 77.10 97.20 L 77.40 96.62 C 78.34 95.08 79.02 93.39 78.40 91.60 C 75.17 92.54 71.94 93.48 68.66 94.25 C 69.93 92.12 71.91 90.60 73.83 89.10 C 74.46 89.43 75.72 90.09 76.35 90.42 Z" />
<path fill="#4b4c5b" opacity="1.00" d=" M 87.40 94.74 C 90.93 94.39 92.31 90.65 94.66 88.49 C 96.01 90.30 97.13 92.27 98.18 94.26 C 98.85 94.28 100.18 94.34 100.85 94.36 C 100.73 94.88 100.50 95.91 100.39 96.43 C 99.67 98.30 98.88 100.14 98.19 102.02 C 94.88 100.06 91.30 103.11 90.00 106.11 C 86.35 107.64 82.68 109.30 78.71 109.84 C 78.23 110.87 77.75 111.89 77.27 112.92 C 76.48 112.27 75.70 111.61 74.92 110.96 C 75.73 110.80 77.36 110.49 78.17 110.34 C 77.97 109.92 77.57 109.10 77.37 108.69 C 78.93 108.63 80.49 108.84 82.05 109.01 C 81.81 108.63 81.34 107.87 81.10 107.50 C 82.61 106.58 84.12 105.62 85.27 104.26 C 85.11 103.92 84.78 103.24 84.62 102.90 C 83.35 100.53 82.68 97.92 82.04 95.32 C 83.85 95.45 85.65 95.18 87.40 94.74 M 89.20 97.13 C 87.97 97.70 87.58 99.58 88.30 100.69 C 90.07 101.50 90.98 97.46 89.20 97.13 Z" />
<path fill="#b43774" opacity="1.00" d=" M 68.66 94.25 C 71.94 93.48 75.17 92.54 78.40 91.60 C 79.02 93.39 78.34 95.08 77.40 96.62 C 73.71 95.25 71.26 99.59 67.61 99.69 C 67.80 97.85 68.18 96.04 68.66 94.25 Z" />
<path fill="#484759" opacity="1.00" d=" M 139.71 94.50 C 140.01 93.99 140.60 92.96 140.90 92.45 C 141.16 95.57 142.51 98.73 141.63 101.86 C 141.34 101.06 141.06 100.26 140.77 99.46 C 140.44 99.61 139.78 99.91 139.44 100.06 C 136.59 99.12 134.34 101.87 132.24 103.33 C 134.57 103.12 136.90 102.54 139.25 102.83 C 137.07 104.21 135.80 106.15 136.25 108.81 C 134.33 112.53 132.30 116.20 130.27 119.87 C 130.17 119.41 129.96 118.50 129.85 118.04 C 128.74 119.17 127.63 120.31 126.52 121.45 C 126.09 121.53 125.21 121.70 124.78 121.79 C 128.00 117.08 131.43 112.42 133.29 106.97 C 132.19 107.11 131.10 107.26 130.00 107.42 C 129.32 107.04 128.64 106.67 127.97 106.30 C 127.72 107.47 127.48 108.64 127.25 109.81 C 127.98 106.26 125.54 103.49 123.59 100.87 C 124.49 99.03 124.72 97.00 124.75 94.98 C 127.08 98.35 131.16 99.22 134.93 99.92 C 136.82 98.40 138.61 96.71 139.71 94.50 Z" />
<path fill="#598681" opacity="1.00" d=" M 152.81 97.87 C 158.02 95.47 163.42 93.51 168.81 91.58 C 168.26 94.70 167.48 97.77 166.66 100.83 L 166.59 101.09 C 160.43 103.26 154.08 105.05 147.49 105.00 C 147.54 101.76 149.98 99.14 152.81 97.87 Z" />
<path fill="#4b5e65" opacity="1.00" d=" M 104.09 92.48 C 108.23 94.74 112.07 97.48 116.03 100.05 C 117.64 101.42 119.65 100.12 121.30 99.52 C 120.97 102.65 124.35 104.18 125.06 106.93 C 125.04 109.73 121.94 110.33 120.03 111.53 C 118.27 110.41 116.44 109.40 114.67 108.29 C 112.97 107.34 112.42 105.25 110.85 104.15 C 107.92 101.95 104.99 99.73 102.43 97.09 C 102.98 95.55 103.53 94.01 104.09 92.48 Z" />
<path fill="#978a78" opacity="1.00" d=" M 80.41 96.21 C 80.82 95.99 81.63 95.54 82.04 95.32 C 82.68 97.92 83.35 100.53 84.62 102.90 C 83.21 104.03 81.79 105.15 80.44 106.36 C 80.61 106.64 80.94 107.21 81.10 107.50 C 81.34 107.87 81.81 108.63 82.05 109.01 C 80.49 108.84 78.93 108.63 77.37 108.69 C 74.13 109.41 70.82 109.48 67.53 109.62 C 67.19 109.15 66.52 108.22 66.19 107.75 C 66.55 106.86 66.91 105.97 67.28 105.09 C 66.71 104.85 65.59 104.36 65.02 104.11 C 67.69 100.85 71.91 99.63 75.21 97.16 C 75.95 97.59 76.68 98.02 77.41 98.46 C 78.42 97.83 79.53 97.32 80.27 96.35 L 80.41 96.21 Z" />
<path fill="#5d5962" opacity="1.00" d=" M 38.57 95.81 C 40.83 100.05 37.52 105.22 39.64 109.59 C 40.66 111.69 40.38 114.06 40.48 116.32 C 38.54 115.96 36.60 115.60 34.67 115.23 C 34.38 114.07 34.06 112.92 33.72 111.78 L 34.42 112.25 C 35.07 112.33 36.38 112.49 37.03 112.57 C 36.99 106.94 37.55 101.34 38.57 95.81 Z" />
<path fill="#62826a" opacity="1.00" d=" M 64.88 96.89 C 65.22 98.20 65.66 99.49 65.84 100.84 C 65.27 102.03 63.93 102.56 62.98 103.40 C 63.37 104.26 63.75 105.12 64.14 105.99 C 61.92 107.90 59.37 109.36 56.86 110.84 C 54.81 109.36 53.30 107.34 52.01 105.20 C 55.45 103.56 59.04 102.21 62.35 100.32 C 63.79 99.70 64.55 98.36 64.88 96.89 Z" />
<path fill="#303137" opacity="1.00" d=" M 89.20 97.13 C 90.98 97.46 90.07 101.50 88.30 100.69 C 87.58 99.58 87.97 97.70 89.20 97.13 Z" />
<path fill="#616c73" opacity="1.00" d=" M 98.19 102.02 C 98.88 100.14 99.67 98.30 100.39 96.43 L 100.91 97.85 C 101.32 99.44 101.87 101.22 103.53 101.93 C 103.50 102.74 103.43 104.36 103.39 105.17 C 101.60 104.22 99.86 103.18 98.19 102.02 Z" />
<path fill="#80ced6" opacity="1.00" d=" M 100.91 97.85 C 102.56 97.97 104.21 100.38 104.74 101.80 C 104.44 101.83 103.83 101.90 103.53 101.93 C 101.87 101.22 101.32 99.44 100.91 97.85 Z" />
<path fill="#605e63" opacity="1.00" d=" M 132.24 103.33 C 134.34 101.87 136.59 99.12 139.44 100.06 C 139.78 99.91 140.44 99.61 140.77 99.46 C 141.06 100.26 141.34 101.06 141.63 101.86 C 141.04 102.10 139.85 102.59 139.25 102.83 C 136.90 102.54 134.57 103.12 132.24 103.33 Z" />
<path fill="#cdd1ac" opacity="1.00" d=" M 103.53 101.93 C 103.83 101.90 104.44 101.83 104.74 101.80 C 107.53 103.41 109.54 106.11 112.28 107.84 C 112.58 110.24 114.86 111.54 116.75 112.66 C 116.18 113.13 115.62 113.60 115.05 114.06 C 114.86 113.80 114.48 113.27 114.29 113.01 L 113.43 112.25 C 110.30 109.68 106.76 107.68 103.38 105.48 L 103.39 105.17 C 103.43 104.36 103.50 102.74 103.53 101.93 Z" />
<path fill="#a19380" opacity="1.00" d=" M 26.81 116.61 C 27.61 111.85 27.06 106.36 30.99 102.81 C 31.68 108.25 31.16 113.79 32.25 119.18 C 31.81 120.19 31.38 121.21 30.97 122.24 C 29.58 120.36 28.20 118.48 26.81 116.61 Z" />
<path fill="#000000" opacity="1.00" d=" M 84.62 102.90 C 84.78 103.24 85.11 103.92 85.27 104.26 C 84.12 105.62 82.61 106.58 81.10 107.50 C 80.94 107.21 80.61 106.64 80.44 106.36 C 81.79 105.15 83.21 104.03 84.62 102.90 Z" />
<path fill="#2c2f50" opacity="1.00" d=" M 93.29 105.25 C 95.35 103.13 97.92 105.05 99.79 106.38 C 100.41 108.99 96.35 108.21 94.79 108.82 C 94.68 111.10 94.63 113.38 94.64 115.66 C 94.63 111.36 90.17 110.93 87.03 109.77 C 89.58 108.92 91.78 107.51 93.29 105.25 Z" />
<path fill="#6f6c68" opacity="1.00" d=" M 127.97 106.30 C 128.64 106.67 129.32 107.04 130.00 107.42 C 131.10 107.26 132.19 107.11 133.29 106.97 C 131.43 112.42 128.00 117.08 124.78 121.79 C 123.20 122.09 121.64 122.51 120.04 122.66 C 118.11 122.27 116.53 120.96 114.84 120.02 C 113.74 121.20 112.57 122.32 111.44 123.46 C 111.75 119.67 112.80 115.99 113.43 112.25 L 114.29 113.01 C 114.48 113.27 114.86 113.80 115.05 114.06 C 115.62 113.60 116.18 113.13 116.75 112.66 C 118.03 113.28 119.36 113.80 120.75 114.13 C 120.44 114.55 118.76 115.60 120.09 115.92 C 121.71 116.22 124.23 114.79 123.44 112.91 L 123.32 112.39 C 124.64 111.55 125.94 110.68 127.25 109.81 C 127.48 108.64 127.72 107.47 127.97 106.30 Z" />
<path fill="#363543" opacity="0.86" d=" M 138.35 108.65 L 138.71 108.62 C 138.58 108.70 138.33 108.86 138.21 108.95 L 138.35 108.65 Z" />
<path fill="#484759" opacity="1.00" d=" M 80.11 111.61 C 82.45 111.13 84.77 110.58 87.03 109.77 C 90.17 110.93 94.63 111.36 94.64 115.66 C 92.06 117.54 90.27 120.29 87.55 121.99 C 87.11 121.36 86.22 120.09 85.77 119.46 C 83.85 121.15 82.01 122.94 80.36 124.90 C 80.78 121.86 80.78 118.79 81.08 115.75 L 81.26 114.30 C 80.88 113.40 80.49 112.51 80.11 111.61 Z" />
<path fill="#5c575b" opacity="1.00" d=" M 71.14 111.03 C 73.05 112.34 74.94 113.68 76.83 115.01 C 75.34 115.73 73.83 116.42 72.35 117.17 C 72.12 116.35 71.67 114.69 71.45 113.87 C 71.32 112.92 71.22 111.98 71.14 111.03 Z" />
<path fill="#8c9180" opacity="1.00" d=" M 120.75 114.13 C 121.43 113.83 122.77 113.21 123.44 112.91 C 124.23 114.79 121.71 116.22 120.09 115.92 C 118.76 115.60 120.44 114.55 120.75 114.13 Z" />
<path fill="#877c72" opacity="1.00" d=" M 79.38 114.05 C 79.81 114.47 80.65 115.32 81.08 115.75 C 80.78 118.79 80.78 121.86 80.36 124.90 C 82.01 122.94 83.85 121.15 85.77 119.46 C 86.22 120.09 87.11 121.36 87.55 121.99 C 86.04 124.72 84.29 127.39 83.43 130.43 C 82.73 132.63 82.32 134.91 82.17 137.22 C 80.33 138.88 78.62 140.67 77.19 142.70 C 77.97 143.75 78.75 144.81 79.50 145.89 C 78.82 146.60 78.14 147.31 77.46 148.02 C 77.15 147.39 76.54 146.11 76.24 145.48 C 73.92 145.33 71.57 144.92 69.27 145.36 C 63.72 148.66 59.03 153.75 57.00 159.95 C 56.11 161.87 57.57 163.71 58.18 165.46 C 57.46 165.40 56.74 165.31 56.02 165.21 C 54.40 164.35 52.84 163.39 51.18 162.61 L 51.19 162.56 C 51.91 157.65 55.27 153.81 57.48 149.53 C 59.00 146.52 61.30 144.03 63.80 141.80 C 63.46 140.64 63.12 139.49 62.78 138.34 L 62.73 138.19 C 67.76 139.85 71.34 135.40 75.28 133.20 C 76.21 128.52 79.55 124.05 78.18 119.15 C 78.32 117.41 78.96 115.74 79.38 114.05 Z" />
<path fill="#484759" opacity="1.00" d=" M 34.67 115.23 C 36.60 115.60 38.54 115.96 40.48 116.32 C 40.50 117.00 40.54 118.38 40.56 119.07 C 39.49 121.08 38.26 122.99 37.06 124.92 C 34.24 122.90 32.30 127.32 29.85 128.30 C 30.23 126.28 30.51 124.24 30.97 122.24 C 31.38 121.21 31.81 120.19 32.25 119.18 C 32.96 119.48 33.66 119.78 34.36 120.09 C 34.49 118.47 34.61 116.85 34.67 115.23 Z" />
<path fill="#61949c" opacity="1.00" d=" M 66.06 120.45 C 67.84 118.24 69.62 116.03 71.45 113.87 C 71.67 114.69 72.12 116.35 72.35 117.17 C 71.13 117.99 70.12 119.06 69.18 120.17 C 68.40 120.24 66.84 120.38 66.06 120.45 Z" />
<path fill="#686266" opacity="1.00" d=" M 26.81 116.61 C 28.20 118.48 29.58 120.36 30.97 122.24 C 30.51 124.24 30.23 126.28 29.85 128.30 L 28.76 129.12 C 26.76 125.27 25.95 120.90 26.81 116.61 Z" />
<path fill="#5d5961" opacity="1.00" d=" M 126.52 121.45 C 127.63 120.31 128.74 119.17 129.85 118.04 C 129.96 118.50 130.17 119.41 130.27 119.87 C 128.85 122.96 127.17 125.93 125.81 129.05 C 121.18 126.79 116.45 124.71 111.44 123.46 C 112.57 122.32 113.74 121.20 114.84 120.02 C 116.53 120.96 118.11 122.27 120.04 122.66 C 121.64 122.51 123.20 122.09 124.78 121.79 C 125.21 121.70 126.09 121.53 126.52 121.45 Z" />
<path fill="#605a63" opacity="1.00" d=" M 40.56 119.07 C 41.66 119.83 42.80 120.54 43.97 121.19 C 44.49 120.50 44.99 119.80 45.50 119.10 C 46.54 120.84 47.84 122.40 49.08 124.00 C 49.83 124.63 50.06 126.37 51.34 125.99 C 54.23 125.38 59.12 127.06 59.82 122.99 C 62.02 122.46 64.25 121.87 66.06 120.45 C 66.84 120.38 68.40 120.24 69.18 120.17 C 66.95 123.73 64.53 127.17 62.41 130.79 C 56.34 130.45 50.26 130.45 44.20 130.07 C 43.06 127.96 41.70 125.98 40.19 124.13 C 39.10 125.05 38.00 125.98 36.91 126.91 L 37.06 124.92 C 38.26 122.99 39.49 121.08 40.56 119.07 Z" />
<path fill="#cecda5" opacity="1.00" d=" M 45.50 119.10 C 48.95 119.71 52.29 120.80 55.59 121.95 C 53.65 123.26 51.38 123.79 49.08 124.00 C 47.84 122.40 46.54 120.84 45.50 119.10 Z" />
<path fill="#d2ddb2" opacity="1.00" d=" M 78.18 119.15 C 79.55 124.05 76.21 128.52 75.28 133.20 C 71.34 135.40 67.76 139.85 62.73 138.19 C 66.16 136.31 69.98 134.75 72.47 131.60 C 75.11 127.83 76.49 123.38 78.18 119.15 Z" />
<path fill="#a5ae97" opacity="1.00" d=" M 55.59 121.95 C 56.99 122.36 58.41 122.67 59.82 122.99 C 59.12 127.06 54.23 125.38 51.34 125.99 C 50.06 126.37 49.83 124.63 49.08 124.00 C 51.38 123.79 53.65 123.26 55.59 121.95 Z" />
<path fill="#5e5962" opacity="1.00" d=" M 82.17 137.22 C 82.32 134.91 82.73 132.63 83.43 130.43 C 87.11 129.59 88.26 133.87 90.44 135.91 C 89.11 136.75 87.18 137.10 86.69 138.82 C 86.65 142.70 89.01 146.03 90.88 149.26 C 89.67 149.27 88.46 149.30 87.25 149.36 C 86.42 148.35 85.60 147.34 84.77 146.33 C 83.36 146.70 81.96 147.06 80.55 147.43 C 80.29 147.04 79.77 146.28 79.50 145.89 C 78.75 144.81 77.97 143.75 77.19 142.70 C 78.62 140.67 80.33 138.88 82.17 137.22 Z" />
<path fill="#9e907d" opacity="1.00" d=" M 58.49 139.77 C 59.92 139.28 61.34 138.80 62.78 138.34 C 63.12 139.49 63.46 140.64 63.80 141.80 C 61.30 144.03 59.00 146.52 57.48 149.53 C 55.27 153.81 51.91 157.65 51.19 162.56 C 50.67 162.40 49.62 162.10 49.10 161.94 C 50.22 158.10 50.53 153.32 54.23 150.98 C 53.98 149.16 53.27 147.47 52.43 145.85 C 54.75 144.75 57.20 143.97 59.66 143.27 C 59.37 142.40 58.78 140.65 58.49 139.77 Z" />
<path fill="#d2ddb2" opacity="1.00" d=" M 77.46 148.02 C 78.14 147.31 78.82 146.60 79.50 145.89 C 79.77 146.28 80.29 147.04 80.55 147.43 C 81.34 148.60 82.11 149.78 82.83 150.99 C 84.30 153.99 86.41 157.15 85.54 160.64 C 82.52 156.66 79.84 152.42 77.46 148.02 Z" />
<path fill="#797774" opacity="1.00" d=" M 80.55 147.43 C 81.96 147.06 83.36 146.70 84.77 146.33 C 85.60 147.34 86.42 148.35 87.25 149.36 C 85.75 149.84 84.29 150.42 82.83 150.99 C 82.11 149.78 81.34 148.60 80.55 147.43 Z" />
<path fill="#978a78" opacity="1.00" d=" M 87.25 149.36 C 88.46 149.30 89.67 149.27 90.88 149.26 C 93.04 152.34 96.04 154.57 99.20 156.54 L 99.07 156.60 C 98.71 158.06 98.42 159.54 98.16 161.03 C 100.26 161.03 101.96 159.91 103.28 158.36 C 104.11 158.81 104.94 159.28 105.78 159.72 C 111.23 161.89 115.78 165.94 117.82 171.51 C 119.10 171.20 120.38 170.89 121.65 170.58 C 122.94 171.44 124.22 172.31 125.46 173.24 L 125.82 174.15 C 127.53 177.50 131.36 179.82 131.02 184.10 C 129.58 183.60 128.21 182.94 126.88 182.19 C 126.72 184.36 126.49 186.53 126.30 188.70 L 125.30 187.27 C 124.63 185.22 124.33 183.07 123.89 180.97 C 124.99 180.32 125.97 179.47 127.07 178.82 C 126.83 178.30 126.35 177.26 126.11 176.74 C 123.64 176.44 121.27 175.66 118.92 174.85 C 119.61 179.13 121.47 183.13 121.86 187.47 C 116.26 189.98 112.35 194.73 107.97 198.81 C 107.88 195.16 110.11 191.96 113.15 190.14 C 116.88 187.90 117.31 182.71 115.87 178.96 C 113.55 172.83 108.27 167.81 102.06 165.75 C 99.12 165.36 97.54 168.37 96.02 170.34 C 94.25 168.84 93.15 166.85 92.57 164.63 C 92.62 165.58 92.72 167.48 92.77 168.43 C 90.21 166.01 87.69 163.54 85.53 160.75 L 85.54 160.64 C 86.41 157.15 84.30 153.99 82.83 150.99 C 84.29 150.42 85.75 149.84 87.25 149.36 Z" />
<path fill="#6b7a7d" opacity="1.00" d=" M 99.20 156.54 C 103.21 155.21 105.60 151.44 109.11 149.30 C 108.74 150.03 108.00 151.49 107.63 152.22 C 106.58 154.19 105.71 156.24 104.89 158.31 C 105.11 158.67 105.56 159.37 105.78 159.72 C 104.94 159.28 104.11 158.81 103.28 158.36 C 101.92 157.66 100.50 157.10 99.07 156.60 L 99.20 156.54 Z" />
<path fill="#3c3c55" opacity="1.00" d=" M 104.89 158.31 C 105.71 156.24 106.58 154.19 107.63 152.22 C 111.10 159.15 115.38 165.85 121.65 170.58 C 120.38 170.89 119.10 171.20 117.82 171.51 C 115.78 165.94 111.23 161.89 105.78 159.72 C 105.56 159.37 105.11 158.67 104.89 158.31 Z" />
<path fill="#b3af91" opacity="1.00" d=" M 99.07 156.60 C 100.50 157.10 101.92 157.66 103.28 158.36 C 101.96 159.91 100.26 161.03 98.16 161.03 C 98.42 159.54 98.71 158.06 99.07 156.60 Z" />
<path fill="#4d4b5b" opacity="1.00" d=" M 56.02 165.21 C 56.74 165.31 57.46 165.40 58.18 165.46 L 58.82 165.52 C 59.38 166.94 59.91 168.37 60.43 169.80 C 58.81 171.58 57.28 174.01 58.48 176.47 C 59.24 179.15 62.21 179.68 64.56 180.07 C 63.94 181.47 63.04 182.72 61.97 183.83 C 59.42 183.37 56.20 183.14 54.71 185.75 C 53.46 188.76 56.07 191.31 57.73 193.50 C 56.40 194.30 55.30 195.37 54.43 196.65 C 54.00 194.28 54.29 191.23 52.00 189.75 C 48.94 188.96 45.81 190.59 42.68 190.05 C 43.62 189.61 44.57 189.17 45.50 188.71 C 45.65 188.15 45.94 187.04 46.09 186.49 C 47.85 185.21 49.67 184.03 51.52 182.89 C 51.16 182.18 50.79 181.47 50.43 180.76 C 50.64 180.01 50.84 179.27 51.05 178.53 C 51.82 176.56 52.52 174.55 52.80 172.45 C 55.10 170.73 56.10 168.02 56.02 165.21 Z" />
<path fill="#786f6c" opacity="1.00" d=" M 139.57 175.32 C 140.75 173.89 140.97 171.83 141.76 170.16 C 142.86 170.69 143.96 171.22 145.06 171.75 C 143.21 173.81 141.81 176.35 139.37 177.82 C 142.54 179.69 145.67 181.73 148.11 184.53 L 148.03 186.21 C 145.45 184.10 142.58 181.53 138.95 182.17 C 136.39 182.11 134.90 184.37 133.54 186.19 C 132.98 185.99 131.85 185.60 131.29 185.41 C 130.21 187.28 128.97 189.06 127.48 190.63 C 127.18 190.15 126.59 189.19 126.30 188.70 C 126.49 186.53 126.72 184.36 126.88 182.19 C 128.21 182.94 129.58 183.60 131.02 184.10 C 131.36 179.82 127.53 177.50 125.82 174.15 C 130.28 174.94 135.17 177.40 139.57 175.32 Z" />
<path fill="#56535f" opacity="1.00" d=" M 145.06 171.75 C 152.15 177.08 157.67 184.26 161.98 191.96 C 162.76 193.31 162.64 194.95 162.89 196.45 C 160.58 193.02 158.07 187.97 153.12 188.79 C 151.37 187.46 149.67 186.07 148.11 184.53 C 145.67 181.73 142.54 179.69 139.37 177.82 C 141.81 176.35 143.21 173.81 145.06 171.75 Z" />
<path fill="#978a78" opacity="1.00" d=" M 42.55 173.21 C 45.13 173.03 47.57 174.15 50.15 174.13 C 50.47 175.59 50.78 177.06 51.05 178.53 C 50.84 179.27 50.64 180.01 50.43 180.76 C 50.79 181.47 51.16 182.18 51.52 182.89 C 49.67 184.03 47.85 185.21 46.09 186.49 C 43.15 186.28 39.98 184.55 37.23 186.29 C 34.86 187.55 33.06 189.58 31.21 191.47 C 31.93 191.61 33.35 191.91 34.07 192.06 C 33.05 193.33 32.05 194.62 31.06 195.91 C 31.63 197.85 32.38 199.94 31.23 201.85 C 29.63 198.06 28.46 194.08 28.72 189.93 C 26.73 191.33 27.11 194.04 25.98 195.98 C 24.72 197.98 24.59 200.37 24.25 202.65 C 21.91 202.52 22.86 199.44 22.31 197.90 C 22.15 194.53 23.56 191.31 25.05 188.36 L 25.23 188.35 C 25.58 188.33 26.29 188.29 26.64 188.26 C 28.89 185.73 30.57 181.64 34.61 182.15 C 36.10 181.16 37.38 179.29 39.38 179.51 C 42.21 179.45 45.01 180.84 47.82 180.04 C 47.73 179.43 47.55 178.20 47.46 177.59 C 45.96 177.54 44.46 177.49 42.96 177.45 C 42.86 176.39 42.65 174.27 42.55 173.21 Z" />
<path fill="#cecda5" opacity="1.00" d=" M 50.15 174.13 C 50.81 173.71 52.13 172.87 52.80 172.45 C 52.52 174.55 51.82 176.56 51.05 178.53 C 50.78 177.06 50.47 175.59 50.15 174.13 Z" />
<path fill="#d1d5a8" opacity="1.00" d=" M 25.23 188.35 C 29.63 181.99 35.60 176.66 42.55 173.21 C 42.65 174.27 42.86 176.39 42.96 177.45 C 44.46 177.49 45.96 177.54 47.46 177.59 C 47.55 178.20 47.73 179.43 47.82 180.04 C 45.01 180.84 42.21 179.45 39.38 179.51 C 37.38 179.29 36.10 181.16 34.61 182.15 C 30.57 181.64 28.89 185.73 26.64 188.26 C 26.29 188.29 25.58 188.33 25.23 188.35 Z" />
<path fill="#c2c19c" opacity="1.00" d=" M 118.92 174.85 C 121.27 175.66 123.64 176.44 126.11 176.74 C 126.35 177.26 126.83 178.30 127.07 178.82 C 125.97 179.47 124.99 180.32 123.89 180.97 C 124.33 183.07 124.63 185.22 125.30 187.27 C 124.44 187.32 122.72 187.42 121.86 187.47 C 121.47 183.13 119.61 179.13 118.92 174.85 Z" />
<path fill="#746c6b" opacity="1.00" d=" M 37.23 186.29 C 39.98 184.55 43.15 186.28 46.09 186.49 C 45.94 187.04 45.65 188.15 45.50 188.71 C 44.57 189.17 43.62 189.61 42.68 190.05 C 36.89 191.59 32.59 197.81 33.17 203.77 C 32.02 203.51 31.37 202.87 31.23 201.85 C 32.38 199.94 31.63 197.85 31.06 195.91 C 32.05 194.62 33.05 193.33 34.07 192.06 C 33.35 191.91 31.93 191.61 31.21 191.47 C 33.06 189.58 34.86 187.55 37.23 186.29 Z" />
<path fill="#918478" opacity="1.00" d=" M 131.29 185.41 C 131.85 185.60 132.98 185.99 133.54 186.19 C 133.18 189.00 133.27 191.87 134.03 194.62 C 134.89 194.01 135.74 193.39 136.59 192.77 C 137.19 196.14 142.88 196.01 141.95 200.16 C 138.44 198.84 135.02 196.20 131.07 196.99 C 128.75 197.25 127.75 199.73 125.63 200.39 C 125.91 197.07 127.84 194.04 127.48 190.63 C 128.97 189.06 130.21 187.28 131.29 185.41 Z" />
<path fill="#978a78" opacity="1.00" d=" M 148.11 184.53 C 149.67 186.07 151.37 187.46 153.12 188.79 C 151.75 190.22 150.99 192.02 150.41 193.88 C 147.54 192.33 149.36 188.69 148.03 186.21 L 148.11 184.53 Z" />
<path fill="#877c72" opacity="1.00" d=" M 54.43 196.65 C 55.30 195.37 56.40 194.30 57.73 193.50 C 59.87 194.66 58.24 196.54 57.57 198.02 C 58.18 199.32 58.74 200.66 58.93 202.10 C 56.44 201.38 55.82 198.51 54.43 196.65 Z" />
</svg>
