<?xml version="1.0" encoding="UTF-8" ?>
<!DOCTYPE svg PUBLIC "-//W3C//DTD SVG 1.1//EN" "http://www.w3.org/Graphics/SVG/1.1/DTD/svg11.dtd">
<svg width="218pt" height="190pt" viewBox="0 0 218 190" version="1.1" xmlns="http://www.w3.org/2000/svg">
<path fill="#000000" opacity="1.00" d=" M 62.87 2.94 C 63.52 1.92 64.23 0.94 65.00 0.01 C 65.29 2.83 65.07 5.87 66.71 8.35 C 75.23 23.60 85.96 37.46 96.55 51.31 C 96.28 49.57 95.99 47.84 95.70 46.10 C 97.74 44.76 100.08 43.66 101.60 41.69 C 102.70 37.32 102.88 32.71 104.63 28.49 C 105.34 28.99 106.74 30.00 107.44 30.50 C 108.47 27.37 109.36 24.17 110.71 21.16 C 112.05 20.79 112.26 22.55 113.01 23.23 C 114.14 22.62 115.28 22.02 116.42 21.43 C 116.33 23.79 116.18 26.15 115.98 28.51 C 117.83 28.63 119.68 28.75 121.52 28.91 C 119.46 32.64 116.28 35.53 113.53 38.73 C 114.80 39.10 116.06 39.46 117.33 39.82 C 116.65 41.72 115.94 43.61 115.18 45.48 C 116.29 45.39 117.41 45.29 118.53 45.32 C 119.61 47.11 120.29 49.11 121.06 51.05 C 122.30 50.00 123.50 48.87 124.90 48.04 C 126.05 48.47 127.12 49.09 128.23 49.63 C 127.12 46.40 125.73 43.25 124.93 39.92 C 127.63 38.89 130.47 40.80 133.26 40.63 C 133.06 41.55 132.86 42.48 132.66 43.41 C 130.73 42.53 128.81 41.62 126.87 40.77 C 127.53 42.89 128.27 44.98 128.88 47.11 C 129.16 48.87 129.28 50.65 129.39 52.43 C 127.86 51.47 126.36 50.48 124.86 49.48 C 124.66 49.76 124.25 50.33 124.04 50.62 C 123.27 51.34 122.50 52.06 121.72 52.78 C 120.94 52.17 120.17 51.57 119.39 50.96 C 118.79 49.48 118.16 48.01 117.54 46.53 C 115.75 47.60 113.95 48.66 112.12 49.67 C 112.92 47.24 113.76 44.81 114.44 42.35 C 114.51 42.07 114.63 41.53 114.70 41.26 C 113.53 40.26 111.50 39.94 111.12 38.28 C 113.49 35.41 116.37 33.02 118.92 30.32 C 117.18 30.28 115.43 30.24 113.69 30.16 C 111.74 28.86 111.57 26.45 111.09 24.37 C 109.96 27.62 109.13 30.96 108.16 34.25 C 107.20 33.09 106.23 31.94 105.27 30.79 C 104.19 34.46 103.98 38.33 102.92 42.01 C 101.27 44.15 99.02 45.75 97.18 47.73 C 98.13 50.21 99.25 52.64 99.95 55.21 C 97.81 55.97 95.78 53.83 93.76 53.19 C 94.26 57.21 96.09 60.88 96.93 64.81 C 95.72 65.51 94.41 66.03 93.14 66.62 C 93.46 67.46 93.77 68.30 94.08 69.15 C 92.87 68.40 91.59 67.61 91.08 66.21 C 92.57 65.44 94.15 64.84 95.70 64.21 C 94.23 60.02 90.57 54.86 94.32 50.89 C 83.35 37.87 73.33 24.05 64.74 9.34 C 63.10 20.16 63.51 31.13 62.80 42.01 C 63.99 52.33 66.44 62.52 69.78 72.35 C 72.03 72.88 74.50 72.99 76.50 74.23 C 77.40 78.27 78.65 82.22 79.48 86.28 C 82.42 86.56 85.73 88.06 88.45 86.27 C 89.68 85.03 90.58 83.51 91.62 82.12 C 90.61 80.25 89.66 78.36 88.81 76.42 C 90.07 76.09 91.33 75.76 92.60 75.44 C 92.52 74.78 92.36 73.48 92.28 72.83 C 93.16 72.59 94.93 72.10 95.82 71.86 C 95.63 71.34 95.24 70.31 95.05 69.79 C 95.92 70.36 96.78 70.94 97.63 71.54 C 96.01 73.00 94.52 74.62 93.80 76.72 C 93.05 76.94 91.54 77.39 90.78 77.62 C 91.70 78.85 92.58 80.11 93.53 81.32 C 93.37 82.21 90.91 83.53 92.22 84.19 C 95.35 84.37 98.28 83.07 101.26 82.32 C 100.10 83.47 98.91 84.58 97.68 85.65 C 95.89 85.35 94.07 85.10 92.26 85.27 C 92.18 85.51 92.01 85.99 91.92 86.24 C 92.56 86.60 93.83 87.32 94.47 87.68 L 94.38 87.78 C 94.06 88.14 93.44 88.84 93.12 89.20 C 92.14 88.19 91.11 87.22 90.08 86.26 C 89.13 88.04 88.18 89.81 87.22 91.57 C 87.95 91.76 89.42 92.15 90.16 92.34 C 89.73 92.84 88.87 93.83 88.44 94.32 C 86.84 96.20 85.36 98.17 83.95 100.19 C 87.34 99.10 90.60 97.68 93.88 96.30 C 93.22 97.02 91.88 98.45 91.22 99.17 C 90.34 100.08 89.43 100.97 88.54 101.87 C 89.49 103.29 90.44 104.71 91.29 106.20 L 91.17 107.00 C 90.74 109.57 90.73 112.19 91.01 114.79 C 92.05 112.91 92.78 110.90 93.48 108.88 C 94.72 107.67 96.19 106.74 97.62 105.80 C 99.21 112.70 98.43 120.31 101.78 126.68 C 102.79 120.20 102.59 113.54 104.25 107.17 C 106.50 107.41 106.56 110.39 107.76 111.87 C 108.91 110.57 109.58 108.88 110.60 107.47 C 113.31 107.52 115.95 108.18 118.65 108.32 C 119.81 107.52 120.93 106.66 122.06 105.81 C 123.17 106.90 124.27 107.99 125.37 109.08 C 126.01 107.20 125.50 104.44 127.19 103.17 C 129.97 103.50 132.43 104.97 134.96 106.07 C 134.69 104.24 134.43 102.41 134.16 100.58 C 134.96 100.72 135.77 100.86 136.56 101.05 C 137.93 101.95 139.24 102.91 140.58 103.86 C 140.45 101.86 140.26 99.87 140.11 97.88 C 140.13 96.27 140.35 94.67 140.62 93.09 C 142.85 92.68 145.97 92.37 146.97 90.00 C 146.36 87.69 144.18 85.61 144.90 83.11 C 147.33 81.12 150.16 79.69 152.78 77.96 C 151.42 76.39 149.93 74.93 148.41 73.52 C 147.66 72.58 146.64 71.55 146.93 70.23 C 148.51 69.92 150.11 69.77 151.72 69.59 L 152.07 69.54 C 151.52 67.74 150.86 65.97 150.19 64.21 C 150.85 64.10 152.15 63.88 152.81 63.77 C 152.73 62.53 152.66 61.30 152.60 60.06 C 155.26 59.29 158.75 59.65 160.23 56.77 C 159.50 56.64 158.04 56.39 157.31 56.27 C 159.80 50.95 165.58 48.98 170.16 45.94 C 169.33 44.84 168.50 43.74 167.68 42.64 C 171.18 39.94 176.41 39.79 179.21 36.34 C 178.06 35.22 176.80 34.22 175.56 33.21 C 174.71 34.14 173.85 35.07 172.99 35.99 C 174.50 29.87 178.10 24.58 180.42 18.76 C 181.54 16.65 182.39 14.41 182.90 12.07 C 176.50 14.47 172.18 20.01 167.69 24.87 C 167.19 24.47 166.19 23.69 165.69 23.30 C 163.51 25.87 162.45 29.98 159.03 31.11 C 157.03 28.67 157.35 25.24 156.47 22.36 C 155.54 24.48 155.01 26.76 153.91 28.80 C 152.49 30.32 150.77 31.51 149.21 32.86 C 146.58 35.12 143.83 37.25 141.19 39.50 C 140.18 38.35 139.17 37.20 138.16 36.05 C 137.74 37.27 137.31 38.48 136.90 39.70 C 135.30 39.33 133.67 39.09 132.06 38.79 C 132.98 38.61 134.83 38.26 135.75 38.09 C 136.58 36.46 137.50 34.88 138.57 33.39 C 139.48 34.68 140.37 35.97 141.26 37.26 C 144.87 34.22 148.47 31.16 152.04 28.07 C 154.34 25.91 153.38 20.89 156.85 20.03 C 159.11 22.39 158.77 26.21 159.72 29.21 C 162.13 26.03 163.78 20.67 168.73 21.41 C 173.11 16.96 177.48 11.28 184.23 10.83 C 184.29 14.14 183.47 17.37 182.30 20.44 C 186.40 19.49 190.69 16.89 194.93 18.04 C 194.67 20.31 192.77 21.79 191.34 23.38 C 187.48 27.14 184.31 31.72 179.49 34.36 C 180.06 35.33 180.64 36.31 181.22 37.28 C 177.58 39.76 173.43 41.28 169.35 42.85 C 170.01 43.49 171.32 44.78 171.98 45.42 C 168.71 49.00 164.13 50.83 160.28 53.64 C 160.90 55.83 161.41 58.06 161.65 60.32 C 159.25 60.59 156.84 60.81 154.44 61.05 C 154.64 62.97 154.57 64.94 152.66 65.99 C 153.07 67.49 153.67 68.97 153.62 70.54 C 151.86 70.97 150.05 71.18 148.26 71.41 C 150.79 73.38 153.02 75.70 155.01 78.21 C 152.08 80.45 148.93 82.37 145.99 84.59 C 147.30 86.69 148.54 88.83 149.68 91.02 C 147.08 92.54 144.41 93.94 141.65 95.16 C 142.02 98.16 142.94 101.25 142.26 104.27 C 140.97 107.50 138.02 103.93 136.21 102.93 C 136.46 104.59 136.67 106.27 136.85 107.94 C 133.59 107.84 130.66 106.39 127.90 104.78 C 127.67 107.16 127.60 109.59 126.95 111.91 C 124.90 112.17 123.53 110.47 122.04 109.39 C 121.22 109.68 119.57 110.27 118.75 110.56 C 121.72 112.85 125.09 114.56 128.06 116.85 C 125.55 119.12 121.58 118.01 118.42 118.68 C 119.58 120.02 120.65 121.93 122.72 121.80 C 125.40 121.14 127.30 118.76 129.99 118.11 C 131.38 118.31 132.66 118.97 133.95 119.49 C 134.77 117.37 135.24 114.72 137.47 113.60 C 140.19 111.84 143.32 113.39 146.08 114.13 C 147.02 111.49 147.90 107.97 151.10 107.34 C 154.60 106.33 157.54 109.11 159.72 111.44 C 160.02 113.08 159.97 114.76 160.05 116.42 C 165.69 114.99 171.32 118.46 173.34 123.72 C 175.59 129.69 178.11 136.35 175.80 142.70 C 182.23 143.14 189.63 148.47 188.54 155.61 C 190.67 155.39 192.86 154.50 195.00 155.03 C 197.03 155.51 196.93 157.97 197.68 159.52 C 199.66 159.70 201.98 159.11 203.64 160.52 C 205.60 161.98 206.47 164.65 205.89 167.01 C 204.89 172.59 202.77 177.88 200.63 183.10 C 206.44 183.43 212.29 183.76 218.00 185.00 L 218.00 186.06 C 211.38 187.30 204.65 187.64 197.95 188.11 C 176.32 189.28 154.66 189.70 133.00 189.81 C 95.18 189.95 57.33 190.09 19.56 188.10 C 13.02 187.61 6.44 187.31 0.00 186.00 L 0.00 185.12 C 6.70 183.13 13.81 183.96 20.58 182.48 C 20.65 182.13 20.79 181.44 20.85 181.09 C 19.09 175.24 17.03 168.64 19.76 162.73 C 21.19 159.68 24.60 158.65 27.55 157.73 C 28.56 153.56 32.04 150.79 34.58 147.54 C 36.22 145.39 38.95 145.21 41.39 145.84 C 42.74 140.84 44.22 134.75 49.49 132.51 C 54.74 131.14 59.73 134.29 64.72 135.45 C 65.78 133.53 66.86 131.62 67.91 129.70 C 68.98 129.39 70.05 129.08 71.13 128.77 C 69.25 127.36 66.78 126.37 65.83 124.07 C 66.54 121.71 69.58 121.63 71.49 120.71 C 71.76 117.91 71.97 115.08 72.74 112.36 C 73.75 108.96 76.00 106.13 77.42 102.92 C 76.39 99.54 74.89 96.18 75.71 92.55 C 70.37 94.54 64.79 95.78 59.16 96.55 C 52.14 90.37 44.89 84.41 38.69 77.37 C 36.98 76.11 38.81 73.93 40.41 73.72 C 47.33 72.21 54.46 72.41 61.49 72.34 C 58.90 66.63 56.92 60.66 55.72 54.50 C 54.31 47.09 51.98 39.60 53.19 31.98 C 53.99 21.67 58.05 11.97 62.87 2.94 M 61.33 9.27 C 58.35 16.21 55.60 23.37 54.95 30.96 C 53.57 38.56 55.71 46.09 57.18 53.49 C 58.20 58.83 59.74 64.05 61.68 69.13 C 62.21 70.48 62.71 72.01 64.20 72.61 C 65.03 72.50 66.70 72.29 67.53 72.18 C 64.83 61.91 61.73 51.64 60.74 41.03 C 61.52 34.31 61.65 27.54 61.83 20.77 C 62.37 15.79 62.75 10.80 63.55 5.85 C 62.72 6.93 61.86 8.01 61.33 9.27 M 181.04 22.11 C 179.52 24.94 177.84 27.71 176.64 30.70 C 175.83 32.03 177.57 32.87 178.15 33.87 C 183.31 29.66 187.74 24.66 192.21 19.76 C 188.38 19.97 184.73 21.17 181.04 22.11 M 52.42 74.45 C 57.73 76.38 63.60 75.82 69.07 77.24 C 70.97 77.30 71.72 79.28 72.87 80.49 C 72.20 80.45 71.54 80.41 70.88 80.37 C 70.30 78.53 68.35 78.56 66.85 78.18 C 61.19 77.20 55.47 76.42 49.71 76.47 C 49.49 76.33 49.05 76.04 48.83 75.90 C 45.71 75.77 42.59 75.67 39.47 75.63 C 41.73 77.89 44.02 80.24 46.88 81.76 C 48.61 84.91 51.53 87.08 54.17 89.42 C 55.93 91.21 57.64 93.04 59.31 94.92 C 65.07 93.82 70.94 92.69 76.33 90.32 C 76.60 89.81 77.14 88.78 77.41 88.26 C 77.40 86.97 77.41 85.67 77.45 84.38 C 76.68 81.22 75.06 78.35 74.42 75.15 C 67.15 74.18 59.75 74.19 52.42 74.45 M 77.37 93.39 C 76.22 96.30 77.40 99.67 80.07 101.28 C 82.50 98.97 85.07 96.71 86.82 93.81 C 86.69 92.05 85.42 90.60 84.71 89.03 C 82.08 90.06 78.99 90.87 77.37 93.39 M 74.08 124.01 C 75.25 132.18 76.92 140.35 79.65 148.14 C 78.57 133.92 73.49 119.14 78.69 105.15 C 75.48 110.79 72.75 117.41 74.08 124.01 M 87.39 105.35 C 86.38 106.03 86.06 108.54 87.65 108.61 C 89.61 108.28 89.91 103.94 87.39 105.35 M 80.02 111.77 C 81.90 111.41 83.78 111.03 85.67 110.65 C 85.66 109.25 85.71 107.85 85.58 106.46 C 82.19 103.68 80.57 109.37 80.02 111.77 M 95.22 109.01 C 94.40 110.74 93.91 112.61 93.39 114.45 L 93.24 114.45 C 92.54 116.01 91.83 117.57 91.12 119.13 C 90.18 118.38 89.20 117.70 88.21 117.02 C 88.08 117.75 87.81 119.21 87.67 119.94 C 86.58 122.95 85.78 126.08 85.63 129.29 C 85.39 129.65 84.92 130.36 84.68 130.72 C 84.39 133.15 84.03 135.58 83.75 138.01 C 84.23 137.71 85.19 137.11 85.67 136.81 L 86.10 135.77 C 87.72 135.57 89.38 135.38 90.95 136.03 C 89.26 136.70 87.59 137.42 85.92 138.16 C 86.07 138.47 86.36 139.08 86.51 139.39 L 86.45 139.61 C 85.66 139.64 84.07 139.68 83.28 139.70 C 82.12 144.43 80.75 149.46 82.52 154.23 C 82.44 154.70 82.28 155.66 82.20 156.14 C 80.42 154.48 79.38 152.25 78.21 150.16 L 78.46 149.99 C 77.66 147.91 76.91 145.80 76.25 143.68 L 75.66 143.25 C 74.62 138.84 73.30 134.49 72.50 130.03 C 69.50 129.86 67.98 132.18 66.72 134.50 C 66.64 135.25 66.49 136.76 66.41 137.51 C 63.64 136.84 60.90 136.06 58.27 134.98 C 54.22 133.05 48.86 132.67 46.25 137.07 C 45.51 138.41 44.83 139.77 44.19 141.17 C 42.99 144.80 43.39 148.65 42.78 152.38 C 41.61 152.76 40.43 153.14 39.26 153.51 C 39.68 153.90 40.52 154.68 40.94 155.08 C 39.86 155.66 38.78 156.24 37.69 156.83 C 37.18 158.71 36.65 160.59 36.05 162.45 C 33.28 161.05 30.53 159.39 27.36 159.14 C 25.46 160.30 23.40 161.25 21.68 162.69 C 18.84 166.46 20.21 171.45 20.89 175.70 C 21.52 177.13 22.29 178.54 22.62 180.08 C 22.24 181.99 21.54 183.83 21.02 185.70 C 21.85 185.76 23.50 185.88 24.33 185.94 C 27.66 186.04 31.00 186.10 34.33 186.25 C 47.32 186.08 60.31 185.38 73.29 186.20 C 73.93 186.12 75.21 185.95 75.84 185.87 C 79.09 185.73 82.34 185.72 85.59 185.66 C 97.60 186.92 109.74 185.48 121.79 185.75 C 126.28 186.01 130.77 185.50 135.26 185.77 C 137.41 185.83 139.55 185.84 141.69 185.78 C 146.78 186.61 151.92 186.10 157.04 186.12 C 169.02 186.60 181.01 185.40 192.97 186.32 C 195.52 186.59 197.76 184.78 198.51 182.43 C 200.90 176.14 202.68 169.59 203.82 162.96 L 203.36 163.21 C 201.17 161.46 198.34 161.60 195.70 161.52 C 194.91 159.96 195.06 157.27 193.03 156.79 C 190.44 156.87 187.86 157.70 185.29 157.03 C 185.96 155.09 187.09 153.16 186.87 151.03 C 186.22 150.03 185.10 149.48 184.23 148.71 L 183.22 148.84 C 182.31 146.48 180.32 144.76 178.01 143.85 C 174.98 143.12 172.70 145.53 169.90 146.00 C 173.71 142.78 176.34 138.22 175.93 133.10 L 175.25 133.28 C 173.29 129.77 172.70 125.70 170.77 122.19 C 169.41 119.65 166.73 118.31 164.15 117.33 C 162.19 117.82 160.23 118.30 158.28 118.80 C 158.47 116.60 158.63 114.40 158.77 112.19 C 157.68 111.46 156.63 110.69 155.51 110.02 C 154.17 109.17 152.60 108.05 150.99 109.03 C 148.25 110.18 148.17 113.59 147.08 115.96 C 144.79 115.34 142.48 114.75 140.18 114.18 C 138.52 114.79 137.06 115.80 135.87 117.10 C 135.76 118.64 135.54 120.19 135.61 121.74 C 135.73 123.91 135.83 126.08 135.89 128.26 C 132.97 128.92 130.19 130.07 127.27 130.75 C 124.95 131.45 122.61 132.26 120.57 133.61 C 121.25 135.57 122.53 137.71 120.79 139.53 C 120.15 139.54 118.87 139.57 118.23 139.58 C 116.14 140.05 114.19 141.06 112.84 142.77 C 112.67 142.29 112.32 141.33 112.15 140.86 C 113.54 137.82 117.14 138.02 119.93 137.63 C 119.33 136.22 118.57 134.84 118.34 133.31 C 119.15 131.29 121.66 131.29 123.35 130.48 C 121.02 129.26 118.46 128.55 116.27 127.07 L 116.14 126.23 C 114.36 124.63 112.04 123.16 111.96 120.50 C 112.65 120.33 114.02 119.98 114.71 119.80 C 113.46 116.12 115.52 112.96 117.45 110.00 C 115.30 109.91 113.16 109.85 111.01 109.80 C 110.20 111.75 109.68 113.94 108.12 115.46 C 107.09 113.77 106.10 112.06 105.00 110.42 C 104.14 117.87 104.24 125.45 102.83 132.80 C 101.76 132.47 100.70 132.14 99.64 131.81 L 99.84 131.17 C 99.55 130.84 98.97 130.17 98.68 129.83 C 98.80 128.45 98.90 127.06 98.99 125.68 C 98.92 124.99 98.77 123.63 98.69 122.94 L 98.27 122.97 C 98.18 120.08 97.76 117.22 97.21 114.39 C 96.60 112.67 97.63 109.44 95.22 109.01 M 79.30 113.23 C 79.30 113.76 79.32 114.84 79.33 115.38 C 80.74 115.95 82.19 116.62 81.49 118.38 C 77.80 120.38 77.77 124.48 78.60 128.07 C 79.14 132.80 79.76 137.52 80.54 142.21 C 81.48 140.27 81.88 138.15 82.20 136.04 C 83.47 127.94 85.55 120.01 87.22 111.98 C 84.57 112.33 81.92 112.73 79.30 113.23 M 117.16 112.93 C 116.95 114.47 116.69 116.02 116.79 117.59 C 118.97 116.99 121.11 116.31 123.30 115.77 C 121.50 114.34 119.48 113.21 117.16 112.93 M 78.28 117.21 C 77.79 118.62 78.25 119.07 79.67 118.56 C 80.17 117.14 79.71 116.69 78.28 117.21 M 120.21 127.06 C 121.96 127.84 123.73 128.58 125.49 129.34 C 128.52 129.32 131.45 128.27 134.19 127.03 C 135.04 123.96 132.81 118.20 128.64 119.79 C 125.63 121.98 122.46 124.03 120.21 127.06 M 114.77 122.09 C 115.94 123.58 117.16 125.10 118.85 126.04 C 120.35 124.62 119.01 122.55 118.90 120.86 C 117.52 121.26 116.14 121.67 114.77 122.09 M 68.13 123.62 C 68.09 125.64 70.78 125.94 72.09 126.97 C 72.13 125.36 72.03 123.75 71.57 122.20 C 70.71 122.56 68.99 123.26 68.13 123.62 M 29.69 155.29 C 29.60 155.92 29.41 157.19 29.32 157.82 C 31.23 158.35 33.12 158.97 34.99 159.64 C 35.27 158.46 35.56 157.27 35.84 156.10 C 36.22 155.70 36.99 154.92 37.37 154.53 C 37.48 153.87 37.70 152.56 37.81 151.90 C 38.99 151.61 40.17 151.31 41.35 151.02 C 41.38 149.44 41.40 147.85 41.43 146.26 C 35.46 145.86 33.54 152.14 29.69 155.29 Z" />
<path fill="#92846d" opacity="1.00" d=" M 61.33 9.27 C 61.86 8.01 62.72 6.93 63.55 5.85 C 62.75 10.80 62.37 15.79 61.83 20.77 C 60.06 31.09 59.79 41.61 60.48 52.04 C 61.14 58.99 63.12 65.72 64.20 72.61 C 62.71 72.01 62.21 70.48 61.68 69.13 C 59.74 64.05 58.20 58.83 57.18 53.49 C 55.71 46.09 53.57 38.56 54.95 30.96 C 55.60 23.37 58.35 16.21 61.33 9.27 Z" />
<path fill="#abbb77" opacity="1.00" d=" M 167.69 24.87 C 172.18 20.01 176.50 14.47 182.90 12.07 C 182.39 14.41 181.54 16.65 180.42 18.76 C 178.14 20.63 175.79 22.48 173.08 23.69 C 169.52 24.60 167.93 27.96 166.44 30.97 C 166.58 31.48 166.85 32.50 166.99 33.01 C 166.17 34.15 165.35 35.29 164.54 36.43 C 163.42 36.34 162.29 36.25 161.17 36.16 C 161.74 37.13 162.30 38.10 162.88 39.07 C 160.15 43.95 154.02 39.40 150.43 42.96 C 150.60 45.04 152.65 44.89 154.18 45.22 C 154.69 46.98 155.50 48.69 155.58 50.54 C 153.68 52.56 150.69 52.61 148.22 53.46 C 148.20 53.81 148.16 54.51 148.14 54.86 C 148.24 56.07 148.39 57.28 148.54 58.48 C 146.58 58.77 144.61 59.05 142.65 59.35 C 142.01 58.79 141.37 58.23 140.74 57.68 C 136.22 63.68 129.68 67.39 124.35 72.54 C 122.40 72.93 121.05 74.28 120.16 75.99 C 121.13 76.04 123.07 76.15 124.03 76.20 C 124.94 77.37 125.85 78.54 126.76 79.72 C 126.63 80.62 126.50 81.52 126.38 82.42 C 123.76 83.56 120.97 84.53 118.11 83.62 C 116.69 83.49 115.17 83.07 113.79 83.65 C 111.87 84.27 111.54 86.52 110.63 88.04 C 107.70 88.58 104.81 89.32 101.86 89.75 C 102.28 87.98 102.69 86.22 103.10 84.45 C 101.71 85.06 100.27 85.56 98.89 86.18 C 98.59 86.05 97.98 85.78 97.68 85.65 C 98.91 84.58 100.10 83.47 101.26 82.32 C 98.28 83.07 95.35 84.37 92.22 84.19 C 90.91 83.53 93.37 82.21 93.53 81.32 C 92.58 80.11 91.70 78.85 90.78 77.62 C 91.54 77.39 93.05 76.94 93.80 76.72 C 94.52 74.62 96.01 73.00 97.63 71.54 C 96.78 70.94 95.92 70.36 95.05 69.79 C 94.81 69.63 94.32 69.31 94.08 69.15 C 93.77 68.30 93.46 67.46 93.14 66.62 C 94.41 66.03 95.72 65.51 96.93 64.81 C 96.09 60.88 94.26 57.21 93.76 53.19 C 95.78 53.83 97.81 55.97 99.95 55.21 C 99.25 52.64 98.13 50.21 97.18 47.73 C 99.02 45.75 101.27 44.15 102.92 42.01 C 103.98 38.33 104.19 34.46 105.27 30.79 C 106.23 31.94 107.20 33.09 108.16 34.25 C 109.13 30.96 109.96 27.62 111.09 24.37 C 111.57 26.45 111.74 28.86 113.69 30.16 C 114.01 30.48 114.65 31.11 114.96 31.42 C 113.35 32.77 111.46 33.72 109.55 34.55 C 108.05 38.62 105.31 42.77 106.84 47.27 C 108.41 47.86 110.00 48.37 111.58 48.95 C 108.64 50.06 105.87 51.64 103.84 54.09 C 105.25 54.95 106.66 55.80 108.07 56.65 C 107.36 58.01 106.65 59.36 105.94 60.72 C 107.10 61.22 108.27 61.69 109.46 62.12 C 112.14 62.66 114.85 63.32 117.60 63.32 C 120.31 62.61 122.79 61.23 125.41 60.26 C 126.40 58.63 127.38 57.01 128.35 55.37 C 129.53 55.50 130.71 55.62 131.89 55.75 C 133.55 53.51 134.96 51.09 136.04 48.51 C 134.35 47.59 132.66 46.67 130.98 45.74 C 130.45 46.09 129.41 46.77 128.88 47.11 C 128.27 44.98 127.53 42.89 126.87 40.77 C 128.81 41.62 130.73 42.53 132.66 43.41 C 132.82 43.49 133.15 43.64 133.31 43.72 C 133.45 41.71 134.18 39.42 136.60 40.66 L 136.90 39.70 C 137.31 38.48 137.74 37.27 138.16 36.05 C 139.17 37.20 140.18 38.35 141.19 39.50 C 140.41 40.32 139.67 41.18 138.93 42.05 C 143.63 39.79 147.99 36.86 151.94 33.46 C 151.25 33.31 149.89 33.01 149.21 32.86 C 150.77 31.51 152.49 30.32 153.91 28.80 C 155.01 26.76 155.54 24.48 156.47 22.36 C 157.35 25.24 157.03 28.67 159.03 31.11 C 162.45 29.98 163.51 25.87 165.69 23.30 C 166.19 23.69 167.19 24.47 167.69 24.87 M 98.19 73.24 C 100.13 72.27 102.24 71.32 103.48 69.45 C 103.91 67.92 102.88 66.38 102.64 64.89 C 100.06 66.97 99.26 70.27 98.19 73.24 Z" />
<path fill="#627750" opacity="1.00" d=" M 173.08 23.69 C 175.79 22.48 178.14 20.63 180.42 18.76 C 178.10 24.58 174.50 29.87 172.99 35.99 C 173.85 35.07 174.71 34.14 175.56 33.21 C 176.80 34.22 178.06 35.22 179.21 36.34 C 176.41 39.79 171.18 39.94 167.68 42.64 C 168.50 43.74 169.33 44.84 170.16 45.94 C 165.58 48.98 159.80 50.95 157.31 56.27 C 158.04 56.39 159.50 56.64 160.23 56.77 C 158.75 59.65 155.26 59.29 152.60 60.06 C 150.13 61.14 147.75 62.40 145.19 63.26 C 145.53 62.20 145.88 61.14 146.22 60.08 C 147.48 59.93 148.74 59.78 150.00 59.64 C 150.19 58.30 150.39 56.97 150.58 55.64 C 149.97 55.44 148.75 55.05 148.14 54.86 C 148.16 54.51 148.20 53.81 148.22 53.46 C 150.69 52.61 153.68 52.56 155.58 50.54 C 155.50 48.69 154.69 46.98 154.18 45.22 C 154.24 44.68 154.35 43.61 154.40 43.08 C 156.64 42.99 158.91 43.61 161.13 43.20 C 163.76 40.40 165.23 36.48 168.73 34.53 C 168.56 33.42 168.39 32.31 168.23 31.21 C 170.04 29.45 171.84 27.68 173.64 25.90 C 173.50 25.34 173.22 24.24 173.08 23.69 Z" />
<path fill="#1b1e23" opacity="1.00" d=" M 181.04 22.11 C 184.73 21.17 188.38 19.97 192.21 19.76 C 187.74 24.66 183.31 29.66 178.15 33.87 C 177.57 32.87 175.83 32.03 176.64 30.70 C 177.84 27.71 179.52 24.94 181.04 22.11 Z" />
<path fill="#544847" opacity="1.00" d=" M 60.48 52.04 C 59.79 41.61 60.06 31.09 61.83 20.77 C 61.65 27.54 61.52 34.31 60.74 41.03 C 61.73 51.64 64.83 61.91 67.53 72.18 C 66.70 72.29 65.03 72.50 64.20 72.61 C 63.12 65.72 61.14 58.99 60.48 52.04 Z" />
<path fill="#819460" opacity="1.00" d=" M 166.44 30.97 C 167.93 27.96 169.52 24.60 173.08 23.69 C 173.22 24.24 173.50 25.34 173.64 25.90 C 171.84 27.68 170.04 29.45 168.23 31.21 C 168.39 32.31 168.56 33.42 168.73 34.53 C 165.23 36.48 163.76 40.40 161.13 43.20 C 158.91 43.61 156.64 42.99 154.40 43.08 C 154.35 43.61 154.24 44.68 154.18 45.22 C 152.65 44.89 150.60 45.04 150.43 42.96 C 154.02 39.40 160.15 43.95 162.88 39.07 C 162.30 38.10 161.74 37.13 161.17 36.16 C 162.29 36.25 163.42 36.34 164.54 36.43 C 165.35 35.29 166.17 34.15 166.99 33.01 C 166.85 32.50 166.58 31.48 166.44 30.97 Z" />
<path fill="#6c8156" opacity="1.00" d=" M 113.69 30.16 C 115.43 30.24 117.18 30.28 118.92 30.32 C 116.37 33.02 113.49 35.41 111.12 38.28 C 111.50 39.94 113.53 40.26 114.70 41.26 C 114.63 41.53 114.51 42.07 114.44 42.35 C 112.49 42.35 110.53 42.35 108.58 42.36 C 108.01 44.00 107.44 45.64 106.84 47.27 C 105.31 42.77 108.05 38.62 109.55 34.55 C 111.46 33.72 113.35 32.77 114.96 31.42 C 114.65 31.11 114.01 30.48 113.69 30.16 Z" />
<path fill="#f8faba" opacity="1.00" d=" M 149.21 32.86 C 149.89 33.01 151.25 33.31 151.94 33.46 C 147.99 36.86 143.63 39.79 138.93 42.05 C 139.67 41.18 140.41 40.32 141.19 39.50 C 143.83 37.25 146.58 35.12 149.21 32.86 Z" />
<path fill="#40553b" opacity="1.00" d=" M 108.58 42.36 C 110.53 42.35 112.49 42.35 114.44 42.35 C 113.76 44.81 112.92 47.24 112.12 49.67 L 111.58 48.95 C 110.00 48.37 108.41 47.86 106.84 47.27 C 107.44 45.64 108.01 44.00 108.58 42.36 Z" />
<path fill="#75895a" opacity="1.00" d=" M 128.88 47.11 C 129.41 46.77 130.45 46.09 130.98 45.74 C 132.66 46.67 134.35 47.59 136.04 48.51 C 134.96 51.09 133.55 53.51 131.89 55.75 C 130.71 55.62 129.53 55.50 128.35 55.37 C 127.38 57.01 126.40 58.63 125.41 60.26 C 122.79 61.23 120.31 62.61 117.60 63.32 C 114.85 63.32 112.14 62.66 109.46 62.12 C 111.06 60.81 112.54 58.57 114.92 58.96 C 118.16 59.10 121.88 60.50 124.33 57.53 C 123.17 57.43 122.01 57.35 120.85 57.29 L 121.53 56.55 C 122.56 54.66 123.28 52.62 124.04 50.62 C 124.25 50.33 124.66 49.76 124.86 49.48 C 126.36 50.48 127.86 51.47 129.39 52.43 C 129.28 50.65 129.16 48.87 128.88 47.11 Z" />
<path fill="#60764f" opacity="1.00" d=" M 112.12 49.67 C 113.95 48.66 115.75 47.60 117.54 46.53 C 118.16 48.01 118.79 49.48 119.39 50.96 C 118.28 52.61 117.16 54.25 116.06 55.89 C 117.88 56.11 119.71 56.33 121.53 56.55 L 120.85 57.29 C 119.05 57.09 117.09 57.31 115.45 56.48 C 113.29 54.88 113.08 51.98 112.12 49.67 Z" />
<path fill="#9bac6e" opacity="1.00" d=" M 111.58 48.95 L 112.12 49.67 C 113.08 51.98 113.29 54.88 115.45 56.48 C 117.09 57.31 119.05 57.09 120.85 57.29 C 122.01 57.35 123.17 57.43 124.33 57.53 C 121.88 60.50 118.16 59.10 114.92 58.96 C 112.54 58.57 111.06 60.81 109.46 62.12 C 108.27 61.69 107.10 61.22 105.94 60.72 C 106.65 59.36 107.36 58.01 108.07 56.65 C 106.66 55.80 105.25 54.95 103.84 54.09 C 105.87 51.64 108.64 50.06 111.58 48.95 Z" />
<path fill="#384c36" opacity="1.00" d=" M 119.39 50.96 C 120.17 51.57 120.94 52.17 121.72 52.78 C 122.50 52.06 123.27 51.34 124.04 50.62 C 123.28 52.62 122.56 54.66 121.53 56.55 C 119.71 56.33 117.88 56.11 116.06 55.89 C 117.16 54.25 118.28 52.61 119.39 50.96 Z" />
<path fill="#97a96d" opacity="1.00" d=" M 148.14 54.86 C 148.75 55.05 149.97 55.44 150.58 55.64 C 150.39 56.97 150.19 58.30 150.00 59.64 C 148.74 59.78 147.48 59.93 146.22 60.08 C 145.88 61.14 145.53 62.20 145.19 63.26 C 141.94 63.89 139.49 65.94 138.13 68.93 C 136.24 69.39 134.24 69.61 132.50 70.55 C 131.42 71.58 131.66 73.29 131.30 74.62 C 129.67 74.59 128.04 74.49 126.42 74.39 C 125.90 73.93 124.87 73.00 124.35 72.54 C 129.68 67.39 136.22 63.68 140.74 57.68 C 141.37 58.23 142.01 58.79 142.65 59.35 C 144.61 59.05 146.58 58.77 148.54 58.48 C 148.39 57.28 148.24 56.07 148.14 54.86 Z" />
<path fill="#304531" opacity="1.00" d=" M 145.19 63.26 C 147.75 62.40 150.13 61.14 152.60 60.06 C 152.66 61.30 152.73 62.53 152.81 63.77 C 152.15 63.88 150.85 64.10 150.19 64.21 C 150.86 65.97 151.52 67.74 152.07 69.54 C 148.89 69.20 148.16 65.87 146.88 63.52 C 145.29 64.68 143.27 65.57 142.44 67.47 C 141.42 70.46 144.63 74.33 141.72 76.72 C 138.80 78.46 134.65 78.28 132.89 81.69 C 134.00 82.80 135.11 83.91 136.23 85.02 C 133.08 85.59 129.81 86.08 127.15 87.99 C 124.06 88.43 120.96 88.79 117.84 88.76 C 118.23 87.58 118.62 86.40 119.01 85.23 C 120.19 85.36 121.36 85.48 122.54 85.60 C 124.87 83.94 127.65 83.96 130.34 84.53 C 131.47 82.29 132.60 80.06 133.62 77.77 C 130.60 75.96 126.90 76.08 123.75 74.57 C 124.41 74.52 125.75 74.44 126.42 74.39 C 128.04 74.49 129.67 74.59 131.30 74.62 C 134.19 74.85 136.90 73.81 139.38 72.42 C 138.96 71.26 138.54 70.09 138.13 68.93 C 139.49 65.94 141.94 63.89 145.19 63.26 Z" />
<path fill="#18281e" opacity="1.00" d=" M 142.44 67.47 C 143.27 65.57 145.29 64.68 146.88 63.52 C 148.16 65.87 148.89 69.20 152.07 69.54 L 151.72 69.59 C 150.11 69.77 148.51 69.92 146.93 70.23 C 146.64 71.55 147.66 72.58 148.41 73.52 C 148.09 75.42 148.30 77.50 147.41 79.25 C 144.70 80.64 141.72 81.53 139.33 83.49 C 140.87 85.47 142.37 87.49 143.82 89.55 C 142.10 90.60 140.40 91.66 138.72 92.76 C 139.19 92.85 140.14 93.01 140.62 93.09 C 140.35 94.67 140.13 96.27 140.11 97.88 C 138.93 98.94 137.74 100.00 136.56 101.05 C 135.77 100.86 134.96 100.72 134.16 100.58 C 131.04 100.28 127.68 99.66 126.28 96.47 C 126.06 96.58 125.61 96.81 125.39 96.92 C 124.86 96.58 123.80 95.90 123.27 95.56 C 123.38 95.44 123.60 95.20 123.72 95.08 C 125.58 94.61 127.46 94.24 129.34 93.85 C 128.25 92.99 127.15 92.12 126.06 91.25 C 126.47 90.18 126.80 89.08 127.15 87.99 C 129.81 86.08 133.08 85.59 136.23 85.02 C 135.11 83.91 134.00 82.80 132.89 81.69 C 134.65 78.28 138.80 78.46 141.72 76.72 C 144.63 74.33 141.42 70.46 142.44 67.47 Z" />
<path fill="#dae1a0" opacity="1.00" d=" M 98.19 73.24 C 99.26 70.27 100.06 66.97 102.64 64.89 C 102.88 66.38 103.91 67.92 103.48 69.45 C 102.24 71.32 100.13 72.27 98.19 73.24 Z" />
<path fill="#7d8f5d" opacity="1.00" d=" M 132.50 70.55 C 134.24 69.61 136.24 69.39 138.13 68.93 C 138.54 70.09 138.96 71.26 139.38 72.42 C 136.90 73.81 134.19 74.85 131.30 74.62 C 131.66 73.29 131.42 71.58 132.50 70.55 Z" />
<path fill="#819460" opacity="1.00" d=" M 120.16 75.99 C 121.05 74.28 122.40 72.93 124.35 72.54 C 124.87 73.00 125.90 73.93 126.42 74.39 C 125.75 74.44 124.41 74.52 123.75 74.57 C 126.90 76.08 130.60 75.96 133.62 77.77 C 131.36 78.51 129.06 79.13 126.76 79.72 C 125.85 78.54 124.94 77.37 124.03 76.20 C 123.07 76.15 121.13 76.04 120.16 75.99 Z" />
<path fill="#969696" opacity="1.00" d=" M 52.42 74.45 C 59.75 74.19 67.15 74.18 74.42 75.15 C 75.06 78.35 76.68 81.22 77.45 84.38 C 72.17 83.98 67.00 84.86 61.92 86.17 C 58.09 84.56 54.86 81.61 50.85 80.22 C 50.11 81.03 49.37 81.84 48.63 82.65 C 48.19 82.43 47.32 81.98 46.88 81.76 C 44.02 80.24 41.73 77.89 39.47 75.63 C 42.59 75.67 45.71 75.77 48.83 75.90 C 49.05 76.04 49.49 76.33 49.71 76.47 C 51.87 78.16 54.68 78.26 57.29 78.65 C 61.83 79.13 66.33 80.01 70.88 80.37 C 71.54 80.41 72.20 80.45 72.87 80.49 C 71.72 79.28 70.97 77.30 69.07 77.24 C 63.60 75.82 57.73 76.38 52.42 74.45 Z" />
<path fill="#324734" opacity="1.00" d=" M 148.41 73.52 C 149.93 74.93 151.42 76.39 152.78 77.96 C 150.16 79.69 147.33 81.12 144.90 83.11 C 144.18 85.61 146.36 87.69 146.97 90.00 C 145.97 92.37 142.85 92.68 140.62 93.09 C 140.14 93.01 139.19 92.85 138.72 92.76 C 140.40 91.66 142.10 90.60 143.82 89.55 C 142.37 87.49 140.87 85.47 139.33 83.49 C 141.72 81.53 144.70 80.64 147.41 79.25 C 148.30 77.50 148.09 75.42 148.41 73.52 Z" />
<path fill="#c3c3b6" opacity="1.00" d=" M 49.71 76.47 C 55.47 76.42 61.19 77.20 66.85 78.18 C 68.35 78.56 70.30 78.53 70.88 80.37 C 66.33 80.01 61.83 79.13 57.29 78.65 C 54.68 78.26 51.87 78.16 49.71 76.47 Z" />
<path fill="#647850" opacity="1.00" d=" M 126.76 79.72 C 129.06 79.13 131.36 78.51 133.62 77.77 C 132.60 80.06 131.47 82.29 130.34 84.53 C 127.65 83.96 124.87 83.94 122.54 85.60 C 121.36 85.48 120.19 85.36 119.01 85.23 C 118.62 86.40 118.23 87.58 117.84 88.76 C 116.87 88.65 115.90 88.54 114.93 88.40 C 116.02 86.83 117.05 85.22 118.11 83.62 C 120.97 84.53 123.76 83.56 126.38 82.42 C 126.50 81.52 126.63 80.62 126.76 79.72 Z" />
<path fill="#626a6e" opacity="1.00" d=" M 48.63 82.65 C 49.37 81.84 50.11 81.03 50.85 80.22 C 54.86 81.61 58.09 84.56 61.92 86.17 C 67.00 84.86 72.17 83.98 77.45 84.38 C 77.41 85.67 77.40 86.97 77.41 88.26 C 72.08 87.45 66.66 86.04 61.27 87.16 C 56.76 86.64 52.61 84.73 48.63 82.65 Z" />
<path fill="#40424e" opacity="1.00" d=" M 46.88 81.76 C 47.32 81.98 48.19 82.43 48.63 82.65 C 52.61 84.73 56.76 86.64 61.27 87.16 C 58.94 88.01 56.58 88.79 54.17 89.42 C 51.53 87.08 48.61 84.91 46.88 81.76 Z" />
<path fill="#879a64" opacity="1.00" d=" M 113.79 83.65 C 115.17 83.07 116.69 83.49 118.11 83.62 C 117.05 85.22 116.02 86.83 114.93 88.40 C 113.58 89.35 112.09 90.08 110.62 90.85 C 110.92 90.09 111.51 88.57 111.80 87.81 L 110.63 88.04 C 111.54 86.52 111.87 84.27 113.79 83.65 Z" />
<path fill="#1a261e" opacity="1.00" d=" M 92.26 85.27 C 94.07 85.10 95.89 85.35 97.68 85.65 C 97.98 85.78 98.59 86.05 98.89 86.18 C 100.27 85.56 101.71 85.06 103.10 84.45 C 102.69 86.22 102.28 87.98 101.86 89.75 C 101.04 89.78 99.40 89.84 98.59 89.87 C 99.43 88.88 100.33 87.94 101.28 87.05 C 99.20 87.98 97.08 88.86 95.09 89.99 C 95.01 90.24 94.86 90.73 94.79 90.98 C 94.23 90.38 93.68 89.79 93.12 89.20 C 93.44 88.84 94.06 88.14 94.38 87.78 C 94.40 87.76 94.45 87.70 94.47 87.68 L 94.47 87.68 C 93.83 87.32 92.56 86.60 91.92 86.24 C 92.01 85.99 92.18 85.51 92.26 85.27 Z" />
<path fill="#2b303b" opacity="1.00" d=" M 61.27 87.16 C 66.66 86.04 72.08 87.45 77.41 88.26 C 77.14 88.78 76.60 89.81 76.33 90.32 C 70.94 92.69 65.07 93.82 59.31 94.92 C 57.64 93.04 55.93 91.21 54.17 89.42 C 56.58 88.79 58.94 88.01 61.27 87.16 Z" />
<path fill="#acbd78" opacity="1.00" d=" M 87.22 91.57 C 88.18 89.81 89.13 88.04 90.08 86.26 C 91.11 87.22 92.14 88.19 93.12 89.20 C 93.68 89.79 94.23 90.38 94.79 90.98 C 95.05 91.26 95.59 91.83 95.86 92.11 C 97.23 92.49 98.61 92.83 99.97 93.26 C 99.55 94.77 99.12 96.27 98.76 97.78 L 99.67 98.99 C 98.49 100.08 97.31 101.17 96.12 102.25 C 96.22 101.69 96.40 100.57 96.50 100.01 C 97.16 98.12 97.97 96.29 98.72 94.44 C 96.26 94.29 93.93 95.01 91.74 96.06 C 90.64 95.48 89.54 94.91 88.44 94.32 C 88.87 93.83 89.73 92.84 90.16 92.34 C 89.42 92.15 87.95 91.76 87.22 91.57 Z" />
<path fill="#85925d" opacity="1.00" d=" M 94.47 87.68 L 94.47 87.68 C 94.45 87.70 94.40 87.76 94.38 87.78 L 94.47 87.68 Z" />
<path fill="#dde39c" opacity="1.00" d=" M 95.09 89.99 C 97.08 88.86 99.20 87.98 101.28 87.05 C 100.33 87.94 99.43 88.88 98.59 89.87 L 98.08 90.83 C 97.08 90.56 96.08 90.28 95.09 89.99 Z" />
<path fill="#000000" opacity="1.00" d=" M 101.86 89.75 C 104.81 89.32 107.70 88.58 110.63 88.04 L 111.80 87.81 C 111.51 88.57 110.92 90.09 110.62 90.85 C 112.09 90.08 113.58 89.35 114.93 88.40 C 115.90 88.54 116.87 88.65 117.84 88.76 C 120.96 88.79 124.06 88.43 127.15 87.99 C 126.80 89.08 126.47 90.18 126.06 91.25 C 125.34 92.56 124.56 93.84 123.72 95.08 C 123.60 95.20 123.38 95.44 123.27 95.56 C 123.80 95.90 124.86 96.58 125.39 96.92 C 124.78 97.23 123.56 97.85 122.96 98.16 C 123.94 99.10 124.93 100.04 125.86 101.03 C 125.86 101.45 125.84 102.29 125.84 102.72 C 125.12 102.13 123.70 100.97 122.98 100.39 C 121.66 100.54 120.34 100.67 119.01 100.77 C 115.94 100.26 112.61 99.87 110.12 97.82 C 107.19 95.43 103.47 94.48 99.97 93.26 C 98.61 92.83 97.23 92.49 95.86 92.11 C 95.59 91.83 95.05 91.26 94.79 90.98 C 94.86 90.73 95.01 90.24 95.09 89.99 C 96.08 90.28 97.08 90.56 98.08 90.83 L 98.59 89.87 C 99.40 89.84 101.04 89.78 101.86 89.75 M 110.16 92.29 C 107.56 92.66 104.97 92.14 102.42 91.72 C 103.19 92.67 104.18 93.31 105.37 93.65 C 110.32 95.26 114.44 99.09 119.93 98.99 C 120.21 97.62 120.49 96.26 120.77 94.89 C 117.80 94.43 114.70 94.31 111.92 93.03 C 116.14 93.21 120.40 92.31 124.17 90.38 C 119.49 90.41 114.33 89.68 110.16 92.29 Z" />
<path fill="#2c2d33" opacity="1.00" d=" M 77.37 93.39 C 78.99 90.87 82.08 90.06 84.71 89.03 C 85.42 90.60 86.69 92.05 86.82 93.81 C 85.07 96.71 82.50 98.97 80.07 101.28 C 77.40 99.67 76.22 96.30 77.37 93.39 Z" />
<path fill="#5a2b6e" opacity="1.00" d=" M 110.16 92.29 C 114.33 89.68 119.49 90.41 124.17 90.38 C 120.40 92.31 116.14 93.21 111.92 93.03 C 111.48 92.85 110.60 92.48 110.16 92.29 Z" />
<path fill="#22242a" opacity="1.00" d=" M 102.42 91.72 C 104.97 92.14 107.56 92.66 110.16 92.29 C 110.60 92.48 111.48 92.85 111.92 93.03 C 114.70 94.31 117.80 94.43 120.77 94.89 C 120.49 96.26 120.21 97.62 119.93 98.99 C 114.44 99.09 110.32 95.26 105.37 93.65 C 104.18 93.31 103.19 92.67 102.42 91.72 Z" />
<path fill="#2f4230" opacity="1.00" d=" M 123.72 95.08 C 124.56 93.84 125.34 92.56 126.06 91.25 C 127.15 92.12 128.25 92.99 129.34 93.85 C 127.46 94.24 125.58 94.61 123.72 95.08 Z" />
<path fill="#869a64" opacity="1.00" d=" M 83.95 100.19 C 85.36 98.17 86.84 96.20 88.44 94.32 C 89.54 94.91 90.64 95.48 91.74 96.06 C 93.93 95.01 96.26 94.29 98.72 94.44 C 97.97 96.29 97.16 98.12 96.50 100.01 C 94.75 99.67 92.98 99.43 91.22 99.17 C 91.88 98.45 93.22 97.02 93.88 96.30 C 90.60 97.68 87.34 99.10 83.95 100.19 Z" />
<path fill="#dde39c" opacity="1.00" d=" M 99.97 93.26 C 103.47 94.48 107.19 95.43 110.12 97.82 C 112.61 99.87 115.94 100.26 119.01 100.77 C 119.55 101.39 120.08 102.01 120.62 102.63 C 119.01 102.58 117.39 102.54 115.78 102.51 C 114.14 101.43 112.14 101.30 110.27 100.88 C 108.17 99.80 106.34 98.18 104.09 97.38 C 102.30 97.33 100.53 97.58 98.76 97.78 C 99.12 96.27 99.55 94.77 99.97 93.26 Z" />
<path fill="#465b3f" opacity="1.00" d=" M 125.39 96.92 C 125.61 96.81 126.06 96.58 126.28 96.47 C 127.68 99.66 131.04 100.28 134.16 100.58 C 134.43 102.41 134.69 104.24 134.96 106.07 C 132.43 104.97 129.97 103.50 127.19 103.17 C 125.50 104.44 126.01 107.20 125.37 109.08 C 124.27 107.99 123.17 106.90 122.06 105.81 C 120.93 106.66 119.81 107.52 118.65 108.32 C 117.35 105.83 114.40 105.53 111.97 104.90 C 107.98 103.82 104.18 107.96 100.26 106.03 C 98.42 104.58 96.62 103.05 94.47 102.07 C 93.41 103.45 92.32 104.80 91.29 106.20 C 90.44 104.71 89.49 103.29 88.54 101.87 C 89.43 100.97 90.34 100.08 91.22 99.17 C 92.98 99.43 94.75 99.67 96.50 100.01 C 96.40 100.57 96.22 101.69 96.12 102.25 C 97.31 101.17 98.49 100.08 99.67 98.99 C 102.57 101.76 106.58 102.55 110.27 100.88 C 112.14 101.30 114.14 101.43 115.78 102.51 L 117.01 103.30 C 119.74 105.12 123.61 105.52 125.84 102.72 C 125.84 102.29 125.86 101.45 125.86 101.03 C 124.93 100.04 123.94 99.10 122.96 98.16 C 123.56 97.85 124.78 97.23 125.39 96.92 Z" />
<path fill="#95a76b" opacity="1.00" d=" M 98.76 97.78 C 100.53 97.58 102.30 97.33 104.09 97.38 C 106.34 98.18 108.17 99.80 110.27 100.88 C 106.58 102.55 102.57 101.76 99.67 98.99 L 98.76 97.78 Z" />
<path fill="#6c8156" opacity="1.00" d=" M 136.56 101.05 C 137.74 100.00 138.93 98.94 140.11 97.88 C 140.26 99.87 140.45 101.86 140.58 103.86 C 139.24 102.91 137.93 101.95 136.56 101.05 Z" />
<path fill="#76895a" opacity="1.00" d=" M 119.01 100.77 C 120.34 100.67 121.66 100.54 122.98 100.39 C 123.70 100.97 125.12 102.13 125.84 102.72 C 123.61 105.52 119.74 105.12 117.01 103.30 L 115.78 102.51 C 117.39 102.54 119.01 102.58 120.62 102.63 C 120.08 102.01 119.55 101.39 119.01 100.77 Z" />
<path fill="#263728" opacity="1.00" d=" M 94.47 102.07 C 96.62 103.05 98.42 104.58 100.26 106.03 C 104.18 107.96 107.98 103.82 111.97 104.90 C 114.40 105.53 117.35 105.83 118.65 108.32 C 115.95 108.18 113.31 107.52 110.60 107.47 C 109.58 108.88 108.91 110.57 107.76 111.87 C 106.56 110.39 106.50 107.41 104.25 107.17 C 102.59 113.54 102.79 120.20 101.78 126.68 C 98.43 120.31 99.21 112.70 97.62 105.80 C 96.19 106.74 94.72 107.67 93.48 108.88 C 92.71 108.25 91.94 107.62 91.17 107.00 L 91.29 106.20 C 92.32 104.80 93.41 103.45 94.47 102.07 Z" />
<path fill="#9c8d75" opacity="1.00" d=" M 74.08 124.01 C 72.75 117.41 75.48 110.79 78.69 105.15 C 73.49 119.14 78.57 133.92 79.65 148.14 C 76.92 140.35 75.25 132.18 74.08 124.01 Z" />
<path fill="#94a66b" opacity="1.00" d=" M 87.39 105.35 C 89.91 103.94 89.61 108.28 87.65 108.61 C 86.06 108.54 86.38 106.03 87.39 105.35 Z" />
<path fill="#415339" opacity="1.00" d=" M 91.17 107.00 C 91.94 107.62 92.71 108.25 93.48 108.88 C 92.78 110.90 92.05 112.91 91.01 114.79 C 90.73 112.19 90.74 109.57 91.17 107.00 Z" />
<path fill="#3c4e37" opacity="1.00" d=" M 95.22 109.01 C 97.63 109.44 96.60 112.67 97.21 114.39 C 95.94 114.41 94.66 114.43 93.39 114.45 C 93.91 112.61 94.40 110.74 95.22 109.01 Z" />
<path fill="#6e8256" opacity="1.00" d=" M 147.08 115.96 C 148.17 113.59 148.25 110.18 150.99 109.03 C 152.60 108.05 154.17 109.17 155.51 110.02 C 153.87 110.52 152.20 111.00 150.70 111.86 C 148.62 113.94 149.89 117.06 150.42 119.52 C 148.85 119.88 147.08 119.79 145.69 120.68 C 145.07 123.39 148.29 125.11 150.08 126.59 C 151.04 129.03 152.14 131.50 152.22 134.17 C 150.05 133.82 147.89 133.46 145.74 133.10 C 146.50 134.13 147.27 135.16 148.04 136.20 C 146.86 137.14 145.67 138.07 144.52 139.05 C 144.55 137.64 144.59 136.23 144.62 134.81 C 144.17 134.53 143.27 133.96 142.82 133.67 C 143.16 133.28 143.84 132.50 144.18 132.11 C 144.54 131.97 145.24 131.69 145.60 131.56 C 145.77 130.99 146.11 129.86 146.29 129.29 C 147.15 129.35 148.01 129.40 148.88 129.46 C 148.88 129.02 148.88 128.13 148.88 127.69 C 145.90 126.94 142.79 126.82 139.82 126.06 C 138.05 125.04 136.88 123.28 135.61 121.74 C 135.54 120.19 135.76 118.64 135.87 117.10 C 137.56 118.34 139.49 119.16 141.52 119.64 C 141.08 117.82 140.68 115.99 140.18 114.18 C 142.48 114.75 144.79 115.34 147.08 115.96 Z" />
<path fill="#0c1512" opacity="1.00" d=" M 111.01 109.80 C 113.16 109.85 115.30 109.91 117.45 110.00 C 115.52 112.96 113.46 116.12 114.71 119.80 C 114.02 119.98 112.65 120.33 111.96 120.50 C 112.04 123.16 114.36 124.63 116.14 126.23 L 116.27 127.07 C 116.54 128.80 116.81 130.53 117.10 132.25 C 115.05 133.63 112.65 134.29 110.45 135.35 C 108.26 137.05 106.29 139.07 104.63 141.29 C 104.84 142.15 105.19 142.98 105.52 143.81 C 105.99 144.90 106.42 146.01 106.80 147.13 L 106.94 148.92 C 105.96 147.60 105.08 146.22 104.29 144.79 C 104.03 144.31 103.51 143.36 103.26 142.88 C 101.00 143.33 100.34 145.49 99.60 147.38 C 98.90 148.55 98.12 149.66 97.36 150.79 C 95.33 149.63 93.32 148.47 91.31 147.30 C 89.18 148.95 86.88 150.42 84.22 151.01 C 86.24 149.15 88.28 147.32 90.37 145.54 C 90.65 145.53 91.21 145.52 91.49 145.51 C 92.12 145.71 92.74 145.94 93.36 146.19 C 94.60 147.11 95.79 148.11 97.07 148.97 C 97.68 147.82 98.21 146.65 98.66 145.44 C 98.83 144.75 98.98 144.07 99.13 143.39 C 98.07 143.46 97.00 143.53 95.93 143.60 C 97.07 140.87 99.93 140.49 102.20 139.23 C 104.54 136.88 100.44 135.27 98.99 133.88 C 99.15 133.36 99.48 132.33 99.64 131.81 C 100.70 132.14 101.76 132.47 102.83 132.80 C 104.24 125.45 104.14 117.87 105.00 110.42 C 106.10 112.06 107.09 113.77 108.12 115.46 C 109.68 113.94 110.20 111.75 111.01 109.80 Z" />
<path fill="#41553b" opacity="1.00" d=" M 155.51 110.02 C 156.63 110.69 157.68 111.46 158.77 112.19 C 158.63 114.40 158.47 116.60 158.28 118.80 C 160.23 118.30 162.19 117.82 164.15 117.33 C 163.66 118.43 163.16 119.52 162.66 120.62 C 158.95 122.68 155.01 125.22 153.37 129.32 C 153.08 131.82 156.01 132.80 157.51 134.25 C 157.36 135.23 157.21 136.20 157.08 137.18 C 155.44 136.39 153.81 135.59 152.19 134.78 L 152.22 134.17 C 152.14 131.50 151.04 129.03 150.08 126.59 C 148.29 125.11 145.07 123.39 145.69 120.68 C 147.08 119.79 148.85 119.88 150.42 119.52 C 149.89 117.06 148.62 113.94 150.70 111.86 C 152.20 111.00 153.87 110.52 155.51 110.02 Z" />
<path fill="#6b8055" opacity="1.00" d=" M 79.30 113.23 C 81.92 112.73 84.57 112.33 87.22 111.98 C 85.55 120.01 83.47 127.94 82.20 136.04 C 81.88 138.15 81.48 140.27 80.54 142.21 C 79.76 137.52 79.14 132.80 78.60 128.07 C 78.83 124.59 80.92 121.93 84.19 120.77 C 83.28 119.98 82.38 119.18 81.49 118.38 C 82.19 116.62 80.74 115.95 79.33 115.38 C 79.32 114.84 79.30 113.76 79.30 113.23 Z" />
<path fill="#0f1814" opacity="1.00" d=" M 117.16 112.93 C 119.48 113.21 121.50 114.34 123.30 115.77 C 121.11 116.31 118.97 116.99 116.79 117.59 C 116.69 116.02 116.95 114.47 117.16 112.93 Z" />
<path fill="#212f24" opacity="1.00" d=" M 93.24 114.45 L 93.39 114.45 C 94.66 114.43 95.94 114.41 97.21 114.39 C 97.76 117.22 98.18 120.08 98.27 122.97 C 97.48 123.04 95.88 123.16 95.09 123.22 C 93.81 121.81 92.54 120.40 91.12 119.13 C 91.83 117.57 92.54 116.01 93.24 114.45 Z" />
<path fill="#a1b271" opacity="1.00" d=" M 135.87 117.10 C 137.06 115.80 138.52 114.79 140.18 114.18 C 140.68 115.99 141.08 117.82 141.52 119.64 C 139.49 119.16 137.56 118.34 135.87 117.10 Z" />
<path fill="#000000" opacity="0.38" d=" M 78.28 117.21 C 79.71 116.69 80.17 117.14 79.67 118.56 C 78.25 119.07 77.79 118.62 78.28 117.21 Z" />
<path fill="#43573c" opacity="1.00" d=" M 88.21 117.02 C 89.20 117.70 90.18 118.38 91.12 119.13 C 92.54 120.40 93.81 121.81 95.09 123.22 C 95.88 123.16 97.48 123.04 98.27 122.97 L 98.69 122.94 C 98.77 123.63 98.92 124.99 98.99 125.68 C 97.97 126.12 96.96 126.56 95.94 127.01 C 95.82 129.21 95.84 131.44 95.40 133.62 C 94.28 134.93 92.46 135.31 90.95 136.03 C 89.38 135.38 87.72 135.57 86.10 135.77 C 86.65 132.53 90.44 133.13 92.60 131.63 C 93.58 130.46 94.29 129.08 95.07 127.77 C 93.57 128.56 92.08 129.38 90.61 130.21 C 88.63 130.41 86.65 130.58 84.68 130.72 C 84.92 130.36 85.39 129.65 85.63 129.29 C 87.96 126.87 90.66 124.85 93.19 122.66 C 91.36 121.75 89.51 120.85 87.67 119.94 C 87.81 119.21 88.08 117.75 88.21 117.02 Z" />
<path fill="#5f744e" opacity="1.00" d=" M 164.15 117.33 C 166.73 118.31 169.41 119.65 170.77 122.19 C 172.70 125.70 173.29 129.77 175.25 133.28 C 174.04 133.59 172.84 133.91 171.65 134.23 C 170.99 135.33 170.40 136.46 169.62 137.48 C 165.90 138.35 162.01 138.11 158.25 137.70 C 157.95 137.57 157.37 137.31 157.08 137.18 C 157.21 136.20 157.36 135.23 157.51 134.25 C 156.01 132.80 153.08 131.82 153.37 129.32 C 155.01 125.22 158.95 122.68 162.66 120.62 C 163.16 119.52 163.66 118.43 164.15 117.33 Z" />
<path fill="#acbd78" opacity="1.00" d=" M 78.60 128.07 C 77.77 124.48 77.80 120.38 81.49 118.38 C 82.38 119.18 83.28 119.98 84.19 120.77 C 80.92 121.93 78.83 124.59 78.60 128.07 Z" />
<path fill="#62774f" opacity="1.00" d=" M 87.67 119.94 C 89.51 120.85 91.36 121.75 93.19 122.66 C 90.66 124.85 87.96 126.87 85.63 129.29 C 85.78 126.08 86.58 122.95 87.67 119.94 Z" />
<path fill="#43573c" opacity="1.00" d=" M 120.21 127.06 C 122.46 124.03 125.63 121.98 128.64 119.79 C 129.60 120.56 130.58 121.34 131.55 122.10 C 130.85 123.48 130.13 124.85 129.42 126.23 C 128.10 127.25 126.78 128.28 125.49 129.34 C 123.73 128.58 121.96 127.84 120.21 127.06 Z" />
<path fill="#647951" opacity="1.00" d=" M 128.64 119.79 C 132.81 118.20 135.04 123.96 134.19 127.03 C 131.45 128.27 128.52 129.32 125.49 129.34 C 126.78 128.28 128.10 127.25 129.42 126.23 C 130.13 124.85 130.85 123.48 131.55 122.10 C 130.58 121.34 129.60 120.56 128.64 119.79 Z" />
<path fill="#111b16" opacity="1.00" d=" M 114.77 122.09 C 116.14 121.67 117.52 121.26 118.90 120.86 C 119.01 122.55 120.35 124.62 118.85 126.04 C 117.16 125.10 115.94 123.58 114.77 122.09 Z" />
<path fill="#8a9d65" opacity="1.00" d=" M 135.61 121.74 C 136.88 123.28 138.05 125.04 139.82 126.06 C 142.79 126.82 145.90 126.94 148.88 127.69 C 148.88 128.13 148.88 129.02 148.88 129.46 C 148.01 129.40 147.15 129.35 146.29 129.29 C 146.11 129.86 145.77 130.99 145.60 131.56 C 145.24 131.69 144.54 131.97 144.18 132.11 C 142.32 131.17 140.64 129.93 139.08 128.55 C 138.02 128.43 136.95 128.32 135.89 128.26 C 135.83 126.08 135.73 123.91 135.61 121.74 Z" />
<path fill="#acbd78" opacity="1.00" d=" M 68.13 123.62 C 68.99 123.26 70.71 122.56 71.57 122.20 C 72.03 123.75 72.13 125.36 72.09 126.97 C 70.78 125.94 68.09 125.64 68.13 123.62 Z" />
<path fill="#1a261e" opacity="1.00" d=" M 95.94 127.01 C 96.96 126.56 97.97 126.12 98.99 125.68 C 98.90 127.06 98.80 128.45 98.68 129.83 C 98.97 130.17 99.55 130.84 99.84 131.17 L 99.64 131.81 C 99.48 132.33 99.15 133.36 98.99 133.88 C 100.44 135.27 104.54 136.88 102.20 139.23 C 99.93 140.49 97.07 140.87 95.93 143.60 C 97.00 143.53 98.07 143.46 99.13 143.39 C 98.98 144.07 98.83 144.75 98.66 145.44 C 96.84 145.21 95.04 145.46 93.36 146.19 C 92.74 145.94 92.12 145.71 91.49 145.51 C 91.21 145.52 90.65 145.53 90.37 145.54 C 89.49 145.14 88.62 144.72 87.76 144.29 C 86.89 144.84 86.03 145.40 85.17 145.96 C 85.52 143.83 85.93 141.71 86.45 139.61 L 86.51 139.39 C 86.36 139.08 86.07 138.47 85.92 138.16 C 87.59 137.42 89.26 136.70 90.95 136.03 C 92.46 135.31 94.28 134.93 95.40 133.62 C 95.84 131.44 95.82 129.21 95.94 127.01 Z" />
<path fill="#17231c" opacity="1.00" d=" M 117.10 132.25 C 116.81 130.53 116.54 128.80 116.27 127.07 C 118.46 128.55 121.02 129.26 123.35 130.48 C 121.66 131.29 119.15 131.29 118.34 133.31 C 118.57 134.84 119.33 136.22 119.93 137.63 C 117.14 138.02 113.54 137.82 112.15 140.86 C 112.32 141.33 112.67 142.29 112.84 142.77 C 111.15 145.36 109.90 148.19 108.68 151.03 C 108.07 150.35 107.47 149.66 106.94 148.92 L 106.80 147.13 C 107.28 147.28 108.22 147.57 108.69 147.72 C 109.54 145.52 110.39 143.32 111.19 141.11 C 109.29 141.99 107.40 142.89 105.52 143.81 C 105.19 142.98 104.84 142.15 104.63 141.29 C 106.29 139.07 108.26 137.05 110.45 135.35 C 112.65 134.29 115.05 133.63 117.10 132.25 Z" />
<path fill="#596d49" opacity="1.00" d=" M 90.61 130.21 C 92.08 129.38 93.57 128.56 95.07 127.77 C 94.29 129.08 93.58 130.46 92.60 131.63 C 90.44 133.13 86.65 132.53 86.10 135.77 L 85.67 136.81 C 85.19 137.11 84.23 137.71 83.75 138.01 C 84.03 135.58 84.39 133.15 84.68 130.72 C 86.65 130.58 88.63 130.41 90.61 130.21 Z" />
<path fill="#a6b674" opacity="1.00" d=" M 127.27 130.75 C 130.19 130.07 132.97 128.92 135.89 128.26 C 136.95 128.32 138.02 128.43 139.08 128.55 C 140.64 129.93 142.32 131.17 144.18 132.11 C 143.84 132.50 143.16 133.28 142.82 133.67 C 142.54 134.67 142.30 135.68 142.07 136.69 C 140.57 137.63 139.11 138.67 137.46 139.32 C 135.58 139.57 133.72 138.52 131.84 139.01 C 130.34 139.16 128.84 139.90 127.33 139.56 C 126.17 138.78 125.69 137.38 124.97 136.25 C 124.26 136.31 123.55 136.37 122.84 136.44 C 124.83 134.98 126.69 133.25 127.27 130.75 Z" />
<path fill="#94a66b" opacity="1.00" d=" M 66.72 134.50 C 67.98 132.18 69.50 129.86 72.50 130.03 C 73.30 134.49 74.62 138.84 75.66 143.25 C 74.36 142.32 73.06 141.39 71.77 140.46 C 71.36 139.09 70.96 137.71 70.46 136.37 C 68.16 136.68 67.17 139.26 65.67 140.74 C 67.56 142.77 70.05 144.89 69.38 148.00 C 68.80 148.30 67.66 148.89 67.09 149.19 C 67.81 150.35 68.53 151.51 69.25 152.67 C 68.08 153.40 66.90 154.12 65.74 154.87 C 64.06 155.77 62.96 157.31 62.13 158.97 C 62.97 159.75 63.79 160.56 64.58 161.40 C 63.86 162.93 62.82 164.28 61.85 165.67 C 61.06 165.73 59.47 165.86 58.68 165.92 C 59.26 164.65 59.83 163.38 60.39 162.11 C 58.99 162.10 57.59 162.08 56.19 162.07 C 56.05 157.22 57.00 152.05 60.30 148.30 C 62.47 145.88 63.38 142.73 63.98 139.61 C 61.16 139.05 58.36 138.47 55.56 137.84 C 56.56 137.37 57.56 136.90 58.56 136.44 C 58.48 136.07 58.34 135.34 58.27 134.98 C 60.90 136.06 63.64 136.84 66.41 137.51 C 66.49 136.76 66.64 135.25 66.72 134.50 Z" />
<path fill="#91a369" opacity="1.00" d=" M 120.57 133.61 C 122.61 132.26 124.95 131.45 127.27 130.75 C 126.69 133.25 124.83 134.98 122.84 136.44 C 123.55 136.37 124.26 136.31 124.97 136.25 C 125.69 137.38 126.17 138.78 127.33 139.56 C 128.84 139.90 130.34 139.16 131.84 139.01 C 133.72 138.52 135.58 139.57 137.46 139.32 C 139.11 138.67 140.57 137.63 142.07 136.69 C 142.30 135.68 142.54 134.67 142.82 133.67 C 143.27 133.96 144.17 134.53 144.62 134.81 C 144.59 136.23 144.55 137.64 144.52 139.05 C 143.18 140.36 142.06 141.87 141.00 143.40 C 142.03 144.75 143.04 146.13 144.06 147.50 C 143.51 148.00 142.41 149.02 141.86 149.53 C 140.64 150.67 139.45 151.85 138.26 153.02 C 139.07 153.57 139.88 154.13 140.70 154.68 C 140.91 154.38 141.34 153.78 141.56 153.48 C 143.09 154.80 144.65 156.10 146.24 157.35 C 143.48 156.95 140.69 156.83 137.90 156.92 C 139.23 157.77 140.58 158.60 141.92 159.43 C 140.83 159.89 139.74 160.37 138.65 160.86 C 136.62 161.40 136.01 163.58 135.10 165.21 C 134.07 165.33 133.03 165.46 131.99 165.60 C 132.87 163.56 133.58 161.40 133.51 159.15 C 133.69 158.86 134.05 158.27 134.22 157.98 C 133.44 157.68 132.66 157.38 131.88 157.08 C 131.60 156.53 131.05 155.44 130.78 154.89 C 133.06 153.45 135.21 151.81 137.14 149.94 C 136.29 149.49 135.44 149.04 134.59 148.59 C 134.47 147.06 134.56 145.46 134.04 143.99 C 132.25 142.80 130.18 142.17 128.19 141.43 C 124.63 143.49 120.48 144.71 117.52 147.66 C 116.15 148.83 116.38 150.72 116.25 152.32 C 113.62 153.01 110.93 152.57 108.68 151.03 C 109.90 148.19 111.15 145.36 112.84 142.77 C 114.19 141.06 116.14 140.05 118.23 139.58 C 115.40 142.34 112.44 145.27 111.56 149.28 C 115.55 147.02 118.95 143.79 120.79 139.53 C 122.53 137.71 121.25 135.57 120.57 133.61 Z" />
<path fill="#a9b976" opacity="1.00" d=" M 46.25 137.07 C 48.86 132.67 54.22 133.05 58.27 134.98 C 58.34 135.34 58.48 136.07 58.56 136.44 C 57.56 136.90 56.56 137.37 55.56 137.84 C 58.36 138.47 61.16 139.05 63.98 139.61 C 63.38 142.73 62.47 145.88 60.30 148.30 C 57.00 152.05 56.05 157.22 56.19 162.07 C 56.78 165.47 52.26 165.43 50.35 167.23 C 49.73 166.61 49.13 165.99 48.51 165.38 C 48.91 167.21 48.62 168.99 46.93 170.07 C 46.24 170.01 44.87 169.91 44.18 169.86 C 44.86 168.87 45.55 167.89 46.23 166.91 C 43.67 165.61 41.04 164.46 38.34 163.48 C 39.16 162.91 39.97 162.35 40.79 161.79 C 39.85 158.41 41.05 155.25 42.78 152.38 C 43.39 148.65 42.99 144.80 44.19 141.17 C 45.13 142.28 46.10 143.36 47.09 144.42 C 47.65 141.92 47.50 139.35 46.25 137.07 M 49.63 135.64 C 49.39 136.72 49.19 137.82 49.04 138.93 C 50.29 138.89 51.54 138.85 52.79 138.81 C 52.79 137.55 52.78 136.30 52.76 135.04 C 51.71 135.19 50.66 135.39 49.63 135.64 M 52.15 140.31 C 50.84 141.18 52.15 143.66 53.53 142.52 C 54.83 141.64 53.53 139.17 52.15 140.31 Z" />
<path fill="#586d49" opacity="1.00" d=" M 145.74 133.10 C 147.89 133.46 150.05 133.82 152.22 134.17 L 152.19 134.78 C 152.05 136.45 151.91 138.13 151.56 139.78 C 150.03 141.29 147.04 141.69 146.50 143.90 C 148.90 145.52 151.53 146.76 154.09 148.11 C 155.38 147.73 156.67 147.35 157.96 146.98 C 158.95 147.42 159.94 147.86 160.93 148.30 C 157.19 151.10 153.08 153.74 150.78 157.97 C 155.56 156.37 159.59 153.30 163.94 150.86 C 166.85 151.68 169.73 152.62 172.53 153.75 C 167.90 155.96 163.46 158.53 158.86 160.81 C 156.23 161.94 155.09 164.66 153.90 167.05 L 153.21 167.38 C 151.76 167.35 150.31 167.29 148.87 167.22 C 148.49 166.21 148.14 165.20 147.67 164.23 C 145.48 164.79 144.09 166.84 142.02 167.64 C 140.47 167.85 138.91 167.73 137.36 167.68 C 136.50 167.06 135.65 166.45 134.80 165.84 L 135.10 165.21 C 136.01 163.58 136.62 161.40 138.65 160.86 C 141.42 160.61 144.20 160.38 146.96 159.98 C 146.92 158.64 146.89 157.30 146.86 155.97 C 147.50 155.35 148.15 154.74 148.80 154.14 C 147.53 154.10 146.25 154.06 144.98 154.03 C 143.94 152.53 142.89 151.03 141.86 149.53 C 142.41 149.02 143.51 148.00 144.06 147.50 C 143.04 146.13 142.03 144.75 141.00 143.40 C 142.06 141.87 143.18 140.36 144.52 139.05 C 145.67 138.07 146.86 137.14 148.04 136.20 C 147.27 135.16 146.50 134.13 145.74 133.10 Z" />
<path fill="#4a5e42" opacity="1.00" d=" M 175.25 133.28 L 175.93 133.10 C 176.34 138.22 173.71 142.78 169.90 146.00 C 172.70 145.53 174.98 143.12 178.01 143.85 C 180.32 144.76 182.31 146.48 183.22 148.84 C 178.95 148.67 176.01 151.88 172.53 153.75 C 169.73 152.62 166.85 151.68 163.94 150.86 C 166.75 149.71 169.67 150.72 172.45 151.41 C 170.91 149.12 168.33 148.16 166.06 146.84 C 164.63 144.96 164.79 142.36 163.73 140.28 C 162.14 139.00 160.07 138.55 158.25 137.70 C 162.01 138.11 165.90 138.35 169.62 137.48 C 170.40 136.46 170.99 135.33 171.65 134.23 C 172.84 133.91 174.04 133.59 175.25 133.28 M 170.07 139.13 C 170.11 140.46 170.82 141.24 172.20 141.47 C 172.87 140.37 173.43 139.21 173.99 138.04 C 172.66 138.33 171.31 138.58 170.07 139.13 Z" />
<path fill="#f8faba" opacity="1.00" d=" M 49.63 135.64 C 50.66 135.39 51.71 135.19 52.76 135.04 C 52.78 136.30 52.79 137.55 52.79 138.81 C 51.54 138.85 50.29 138.89 49.04 138.93 C 49.19 137.82 49.39 136.72 49.63 135.64 Z" />
<path fill="#334632" opacity="1.00" d=" M 151.56 139.78 C 151.91 138.13 152.05 136.45 152.19 134.78 C 153.81 135.59 155.44 136.39 157.08 137.18 C 157.37 137.31 157.95 137.57 158.25 137.70 C 160.07 138.55 162.14 139.00 163.73 140.28 C 164.79 142.36 164.63 144.96 166.06 146.84 C 168.33 148.16 170.91 149.12 172.45 151.41 C 169.67 150.72 166.75 149.71 163.94 150.86 C 159.59 153.30 155.56 156.37 150.78 157.97 C 153.08 153.74 157.19 151.10 160.93 148.30 C 159.94 147.86 158.95 147.42 157.96 146.98 C 156.67 147.35 155.38 147.73 154.09 148.11 C 151.53 146.76 148.90 145.52 146.50 143.90 C 147.04 141.69 150.03 141.29 151.56 139.78 Z" />
<path fill="#6b7f54" opacity="1.00" d=" M 65.67 140.74 C 67.17 139.26 68.16 136.68 70.46 136.37 C 70.96 137.71 71.36 139.09 71.77 140.46 C 73.06 141.39 74.36 142.32 75.66 143.25 L 76.25 143.68 C 75.07 144.20 73.88 144.73 72.70 145.26 C 72.59 146.00 72.47 146.74 72.36 147.47 C 71.36 147.65 70.37 147.83 69.38 148.00 C 70.05 144.89 67.56 142.77 65.67 140.74 Z" />
<path fill="#bbc785" opacity="1.00" d=" M 44.19 141.17 C 44.83 139.77 45.51 138.41 46.25 137.07 C 47.50 139.35 47.65 141.92 47.09 144.42 C 46.10 143.36 45.13 142.28 44.19 141.17 Z" />
<path fill="#677951" opacity="1.00" d=" M 170.07 139.13 C 171.31 138.58 172.66 138.33 173.99 138.04 C 173.43 139.21 172.87 140.37 172.20 141.47 C 170.82 141.24 170.11 140.46 170.07 139.13 Z" />
<path fill="#d2db99" opacity="1.00" d=" M 52.15 140.31 C 53.53 139.17 54.83 141.64 53.53 142.52 C 52.15 143.66 50.84 141.18 52.15 140.31 Z" />
<path fill="#6e8358" opacity="1.00" d=" M 83.28 139.70 C 84.07 139.68 85.66 139.64 86.45 139.61 C 85.93 141.71 85.52 143.83 85.17 145.96 C 86.03 145.40 86.89 144.84 87.76 144.29 C 88.62 144.72 89.49 145.14 90.37 145.54 C 88.28 147.32 86.24 149.15 84.22 151.01 C 83.90 151.30 83.26 151.87 82.94 152.16 C 82.83 152.68 82.63 153.71 82.52 154.23 C 80.75 149.46 82.12 144.43 83.28 139.70 Z" />
<path fill="#ced794" opacity="1.00" d=" M 118.23 139.58 C 118.87 139.57 120.15 139.54 120.79 139.53 C 118.95 143.79 115.55 147.02 111.56 149.28 C 112.44 145.27 115.40 142.34 118.23 139.58 Z" />
<path fill="#687c52" opacity="1.00" d=" M 105.52 143.81 C 107.40 142.89 109.29 141.99 111.19 141.11 C 110.39 143.32 109.54 145.52 108.69 147.72 C 108.22 147.57 107.28 147.28 106.80 147.13 C 106.42 146.01 105.99 144.90 105.52 143.81 Z" />
<path fill="#aaba76" opacity="1.00" d=" M 117.52 147.66 C 120.48 144.71 124.63 143.49 128.19 141.43 C 130.18 142.17 132.25 142.80 134.04 143.99 C 134.56 145.46 134.47 147.06 134.59 148.59 C 135.44 149.04 136.29 149.49 137.14 149.94 C 135.21 151.81 133.06 153.45 130.78 154.89 C 131.05 155.44 131.60 156.53 131.88 157.08 C 132.66 157.38 133.44 157.68 134.22 157.98 C 134.05 158.27 133.69 158.86 133.51 159.15 C 132.69 160.39 131.88 161.65 131.04 162.88 C 128.48 162.20 125.92 161.55 123.35 160.94 C 123.44 160.04 123.54 159.14 123.64 158.25 C 122.36 157.08 121.06 155.92 119.74 154.81 C 119.01 157.69 121.57 159.84 121.78 162.57 C 119.43 164.24 116.57 164.87 113.85 165.66 C 112.91 165.28 111.98 164.89 111.05 164.51 C 109.80 164.78 108.55 165.05 107.31 165.31 C 107.35 164.76 107.44 163.64 107.48 163.08 C 106.91 163.14 105.78 163.24 105.21 163.30 C 105.33 165.12 105.54 166.96 105.43 168.79 C 102.96 170.60 99.75 170.28 96.86 170.50 C 94.19 170.59 91.70 171.62 89.23 172.52 C 84.86 170.19 79.85 169.56 75.42 167.45 C 75.14 166.86 74.59 165.67 74.32 165.08 C 76.64 165.62 78.95 166.22 81.29 166.71 C 79.55 165.14 77.45 164.08 75.37 163.03 C 74.36 162.26 73.37 161.46 72.40 160.63 C 73.13 158.00 71.98 154.37 74.64 152.67 C 75.78 151.76 77.01 150.97 78.21 150.16 C 79.38 152.25 80.42 154.48 82.20 156.14 C 82.28 155.66 82.44 154.70 82.52 154.23 C 82.63 153.71 82.83 152.68 82.94 152.16 C 83.26 151.87 83.90 151.30 84.22 151.01 C 86.88 150.42 89.18 148.95 91.31 147.30 C 93.32 148.47 95.33 149.63 97.36 150.79 C 98.12 149.66 98.90 148.55 99.60 147.38 C 101.27 146.74 102.87 145.89 104.29 144.79 C 105.08 146.22 105.96 147.60 106.94 148.92 C 107.47 149.66 108.07 150.35 108.68 151.03 C 110.93 152.57 113.62 153.01 116.25 152.32 C 116.38 150.72 116.15 148.83 117.52 147.66 Z" />
<path fill="#6a7c52" opacity="1.00" d=" M 99.60 147.38 C 100.34 145.49 101.00 143.33 103.26 142.88 C 103.51 143.36 104.03 144.31 104.29 144.79 C 102.87 145.89 101.27 146.74 99.60 147.38 Z" />
<path fill="#7c8f5d" opacity="1.00" d=" M 72.70 145.26 C 73.88 144.73 75.07 144.20 76.25 143.68 C 76.91 145.80 77.66 147.91 78.46 149.99 L 78.21 150.16 C 77.01 150.97 75.78 151.76 74.64 152.67 C 71.98 154.37 73.13 158.00 72.40 160.63 C 72.11 160.93 71.53 161.53 71.25 161.83 C 71.00 161.18 70.50 159.87 70.25 159.22 C 70.67 158.62 71.08 158.01 71.50 157.41 C 70.66 156.80 69.83 156.19 69.01 155.58 C 70.26 154.95 71.46 154.24 72.71 153.61 C 71.56 153.29 70.41 152.98 69.25 152.67 C 68.53 151.51 67.81 150.35 67.09 149.19 C 67.66 148.89 68.80 148.30 69.38 148.00 C 70.37 147.83 71.36 147.65 72.36 147.47 C 72.47 146.74 72.59 146.00 72.70 145.26 Z" />
<path fill="#45573b" opacity="1.00" d=" M 93.36 146.19 C 95.04 145.46 96.84 145.21 98.66 145.44 C 98.21 146.65 97.68 147.82 97.07 148.97 C 95.79 148.11 94.60 147.11 93.36 146.19 Z" />
<path fill="#5f744e" opacity="1.00" d=" M 29.69 155.29 C 33.54 152.14 35.46 145.86 41.43 146.26 C 41.40 147.85 41.38 149.44 41.35 151.02 C 40.17 151.31 38.99 151.61 37.81 151.90 C 37.70 152.56 37.48 153.87 37.37 154.53 C 36.99 154.92 36.22 155.70 35.84 156.10 C 35.56 157.27 35.27 158.46 34.99 159.64 C 33.12 158.97 31.23 158.35 29.32 157.82 C 29.41 157.19 29.60 155.92 29.69 155.29 Z" />
<path fill="#76895a" opacity="1.00" d=" M 138.26 153.02 C 139.45 151.85 140.64 150.67 141.86 149.53 C 142.89 151.03 143.94 152.53 144.98 154.03 C 146.25 154.06 147.53 154.10 148.80 154.14 C 148.15 154.74 147.50 155.35 146.86 155.97 C 146.89 157.30 146.92 158.64 146.96 159.98 C 144.20 160.38 141.42 160.61 138.65 160.86 C 139.74 160.37 140.83 159.89 141.92 159.43 C 140.58 158.60 139.23 157.77 137.90 156.92 C 140.69 156.83 143.48 156.95 146.24 157.35 C 144.65 156.10 143.09 154.80 141.56 153.48 C 141.34 153.78 140.91 154.38 140.70 154.68 C 139.88 154.13 139.07 153.57 138.26 153.02 Z" />
<path fill="#3a4935" opacity="1.00" d=" M 172.53 153.75 C 176.01 151.88 178.95 148.67 183.22 148.84 L 184.23 148.71 C 183.96 150.86 183.83 153.04 183.20 155.12 C 181.94 155.42 180.65 155.56 179.37 155.73 C 179.19 156.11 178.84 156.85 178.67 157.22 C 178.03 157.44 177.40 157.67 176.77 157.91 C 174.19 158.89 171.94 160.51 169.74 162.14 C 169.32 161.20 168.90 160.26 168.48 159.32 C 165.95 160.39 163.27 160.97 160.55 161.25 C 160.44 161.94 160.33 162.62 160.23 163.31 C 158.20 164.69 156.13 166.01 153.90 167.05 C 155.09 164.66 156.23 161.94 158.86 160.81 C 163.46 158.53 167.90 155.96 172.53 153.75 Z" />
<path fill="#1c2c21" opacity="1.00" d=" M 184.23 148.71 C 185.10 149.48 186.22 150.03 186.87 151.03 C 187.09 153.16 185.96 155.09 185.29 157.03 C 187.86 157.70 190.44 156.87 193.03 156.79 C 195.06 157.27 194.91 159.96 195.70 161.52 C 198.34 161.60 201.17 161.46 203.36 163.21 C 199.93 164.49 197.33 168.27 193.41 167.75 C 191.80 166.18 190.80 162.98 188.16 163.18 C 184.90 163.91 182.28 166.14 179.56 167.93 C 177.69 166.49 176.17 164.68 175.13 162.56 C 176.34 161.60 177.55 160.64 178.76 159.68 C 178.10 159.09 177.43 158.50 176.77 157.91 C 177.40 157.67 178.03 157.44 178.67 157.22 C 178.84 156.85 179.19 156.11 179.37 155.73 C 180.65 155.56 181.94 155.42 183.20 155.12 C 183.83 153.04 183.96 150.86 184.23 148.71 Z" />
<path fill="#95a76b" opacity="1.00" d=" M 39.26 153.51 C 40.43 153.14 41.61 152.76 42.78 152.38 C 41.05 155.25 39.85 158.41 40.79 161.79 C 39.97 162.35 39.16 162.91 38.34 163.48 C 41.04 164.46 43.67 165.61 46.23 166.91 C 45.55 167.89 44.86 168.87 44.18 169.86 C 44.87 169.91 46.24 170.01 46.93 170.07 C 45.26 171.67 43.60 173.28 41.99 174.94 C 38.82 174.38 35.61 174.70 32.42 174.48 C 30.75 173.55 29.83 171.70 28.53 170.35 C 25.55 168.02 23.20 171.84 21.74 174.00 C 22.09 172.60 22.34 171.17 22.78 169.79 C 24.59 168.99 26.59 168.77 28.51 168.36 C 32.14 168.21 35.36 166.16 36.05 162.45 C 36.65 160.59 37.18 158.71 37.69 156.83 C 38.78 156.24 39.86 155.66 40.94 155.08 C 40.52 154.68 39.68 153.90 39.26 153.51 Z" />
<path fill="#546847" opacity="1.00" d=" M 65.74 154.87 C 66.90 154.12 68.08 153.40 69.25 152.67 C 70.41 152.98 71.56 153.29 72.71 153.61 C 71.46 154.24 70.26 154.95 69.01 155.58 C 69.83 156.19 70.66 156.80 71.50 157.41 C 71.08 158.01 70.67 158.62 70.25 159.22 C 70.50 159.87 71.00 161.18 71.25 161.83 C 70.96 162.12 70.39 162.68 70.11 162.96 C 68.17 164.10 66.21 165.21 64.23 166.28 C 65.37 162.59 66.03 158.74 65.74 154.87 Z" />
<path fill="#687c52" opacity="1.00" d=" M 62.13 158.97 C 62.96 157.31 64.06 155.77 65.74 154.87 C 66.03 158.74 65.37 162.59 64.23 166.28 C 66.21 165.21 68.17 164.10 70.11 162.96 C 70.39 162.68 70.96 162.12 71.25 161.83 C 71.53 161.53 72.11 160.93 72.40 160.63 C 73.37 161.46 74.36 162.26 75.37 163.03 C 74.17 164.95 72.75 166.72 71.14 168.32 C 74.18 169.18 77.32 169.64 80.36 170.49 C 83.01 171.37 84.18 174.15 85.33 176.44 C 82.80 175.48 80.99 173.47 78.96 171.80 C 76.15 171.82 73.36 172.39 70.54 172.11 C 69.55 171.84 68.57 171.56 67.59 171.27 C 64.59 169.53 61.43 168.05 58.68 165.92 C 59.47 165.86 61.06 165.73 61.85 165.67 C 62.82 164.28 63.86 162.93 64.58 161.40 C 63.79 160.56 62.97 159.75 62.13 158.97 Z" />
<path fill="#7e915f" opacity="1.00" d=" M 119.74 154.81 C 121.06 155.92 122.36 157.08 123.64 158.25 C 123.54 159.14 123.44 160.04 123.35 160.94 C 125.92 161.55 128.48 162.20 131.04 162.88 C 130.04 165.59 127.45 165.53 125.05 165.04 C 125.87 165.96 126.88 166.76 127.45 167.86 C 127.45 169.87 126.21 171.57 125.35 173.31 C 123.88 172.84 122.41 172.39 120.96 171.86 C 117.54 171.18 117.05 166.47 113.12 166.71 C 113.75 167.92 114.39 169.13 115.05 170.34 C 114.22 171.12 113.41 171.94 112.52 172.65 C 110.66 172.44 109.30 170.85 107.76 169.92 C 106.78 170.87 105.80 171.82 104.82 172.78 C 105.93 173.87 107.08 174.94 108.06 176.15 C 107.69 178.16 106.15 179.62 104.98 181.20 C 104.81 179.18 104.69 177.16 104.56 175.15 C 100.92 175.53 97.88 177.60 95.18 179.92 C 94.54 179.46 93.90 179.01 93.26 178.56 C 91.15 179.12 89.00 179.66 86.80 179.52 C 86.31 178.48 85.83 177.46 85.33 176.44 C 84.18 174.15 83.01 171.37 80.36 170.49 C 77.32 169.64 74.18 169.18 71.14 168.32 C 72.75 166.72 74.17 164.95 75.37 163.03 C 77.45 164.08 79.55 165.14 81.29 166.71 C 78.95 166.22 76.64 165.62 74.32 165.08 C 74.59 165.67 75.14 166.86 75.42 167.45 C 79.85 169.56 84.86 170.19 89.23 172.52 C 91.70 171.62 94.19 170.59 96.86 170.50 C 99.75 170.28 102.96 170.60 105.43 168.79 C 105.54 166.96 105.33 165.12 105.21 163.30 C 105.78 163.24 106.91 163.14 107.48 163.08 C 107.44 163.64 107.35 164.76 107.31 165.31 C 108.55 165.05 109.80 164.78 111.05 164.51 C 111.98 164.89 112.91 165.28 113.85 165.66 C 116.57 164.87 119.43 164.24 121.78 162.57 C 121.57 159.84 119.01 157.69 119.74 154.81 Z" />
<path fill="#16211b" opacity="1.00" d=" M 169.74 162.14 C 171.94 160.51 174.19 158.89 176.77 157.91 C 177.43 158.50 178.10 159.09 178.76 159.68 C 177.55 160.64 176.34 161.60 175.13 162.56 C 176.17 164.68 177.69 166.49 179.56 167.93 C 182.28 166.14 184.90 163.91 188.16 163.18 C 190.80 162.98 191.80 166.18 193.41 167.75 C 191.30 167.46 189.20 166.94 187.06 167.04 C 185.10 168.30 183.81 170.43 181.77 171.55 C 179.74 170.68 178.04 169.21 176.06 168.26 C 165.88 172.82 156.00 178.05 146.11 183.22 C 147.81 179.60 148.69 175.41 151.77 172.63 C 153.44 171.55 152.18 169.55 152.12 168.02 C 152.39 167.86 152.94 167.54 153.21 167.38 L 153.90 167.05 C 156.13 166.01 158.20 164.69 160.23 163.31 C 160.33 162.62 160.44 161.94 160.55 161.25 C 163.27 160.97 165.95 160.39 168.48 159.32 C 168.90 160.26 169.32 161.20 169.74 162.14 Z" />
<path fill="#728658" opacity="1.00" d=" M 27.36 159.14 C 30.53 159.39 33.28 161.05 36.05 162.45 C 35.36 166.16 32.14 168.21 28.51 168.36 C 29.04 166.43 29.60 164.52 30.23 162.62 C 29.28 161.45 28.33 160.29 27.36 159.14 Z" />
<path fill="#a5b674" opacity="1.00" d=" M 21.68 162.69 C 23.40 161.25 25.46 160.30 27.36 159.14 C 28.33 160.29 29.28 161.45 30.23 162.62 C 29.60 164.52 29.04 166.43 28.51 168.36 C 26.59 168.77 24.59 168.99 22.78 169.79 C 22.34 171.17 22.09 172.60 21.74 174.00 C 21.53 174.43 21.10 175.27 20.89 175.70 C 20.21 171.45 18.84 166.46 21.68 162.69 Z" />
<path fill="#6e8256" opacity="1.00" d=" M 133.51 159.15 C 133.58 161.40 132.87 163.56 131.99 165.60 C 133.03 165.46 134.07 165.33 135.10 165.21 L 134.80 165.84 C 132.91 169.80 130.60 173.54 128.56 177.41 C 127.41 176.36 126.26 175.32 125.12 174.27 C 125.11 174.45 125.10 174.83 125.10 175.01 L 124.14 174.62 C 121.85 173.69 119.52 172.88 117.18 172.12 C 115.96 173.92 114.73 175.71 113.47 177.49 C 111.75 178.09 109.96 178.58 108.36 179.48 C 107.01 181.02 106.46 183.07 105.62 184.91 C 98.97 185.63 92.26 185.13 85.59 185.66 C 82.34 185.72 79.09 185.73 75.84 185.87 L 76.12 184.83 C 80.12 184.27 84.38 184.32 87.86 181.98 C 87.51 181.15 87.16 180.33 86.80 179.52 C 89.00 179.66 91.15 179.12 93.26 178.56 C 93.90 179.01 94.54 179.46 95.18 179.92 C 97.88 177.60 100.92 175.53 104.56 175.15 C 104.69 177.16 104.81 179.18 104.98 181.20 C 106.15 179.62 107.69 178.16 108.06 176.15 C 107.08 174.94 105.93 173.87 104.82 172.78 C 105.80 171.82 106.78 170.87 107.76 169.92 C 109.30 170.85 110.66 172.44 112.52 172.65 C 113.41 171.94 114.22 171.12 115.05 170.34 C 114.39 169.13 113.75 167.92 113.12 166.71 C 117.05 166.47 117.54 171.18 120.96 171.86 C 122.41 172.39 123.88 172.84 125.35 173.31 C 126.21 171.57 127.45 169.87 127.45 167.86 C 126.88 166.76 125.87 165.96 125.05 165.04 C 127.45 165.53 130.04 165.59 131.04 162.88 C 131.88 161.65 132.69 160.39 133.51 159.15 Z" />
<path fill="#496042" opacity="1.00" d=" M 56.19 162.07 C 57.59 162.08 58.99 162.10 60.39 162.11 C 59.83 163.38 59.26 164.65 58.68 165.92 C 57.35 166.42 54.94 166.21 54.85 168.14 C 54.66 170.61 54.30 173.11 52.20 174.73 C 49.41 174.37 46.63 174.82 43.87 175.15 L 41.99 174.94 C 43.60 173.28 45.26 171.67 46.93 170.07 C 48.62 168.99 48.91 167.21 48.51 165.38 C 49.13 165.99 49.73 166.61 50.35 167.23 C 52.26 165.43 56.78 165.47 56.19 162.07 Z" />
<path fill="#09100f" opacity="1.00" d=" M 203.36 163.21 L 203.82 162.96 C 202.68 169.59 200.90 176.14 198.51 182.43 C 197.76 184.78 195.52 186.59 192.97 186.32 C 181.01 185.40 169.02 186.60 157.04 186.12 C 151.92 186.10 146.78 186.61 141.69 185.78 C 142.51 185.24 143.34 184.71 144.19 184.20 C 144.67 183.96 145.63 183.47 146.11 183.22 C 156.00 178.05 165.88 172.82 176.06 168.26 C 178.04 169.21 179.74 170.68 181.77 171.55 C 183.81 170.43 185.10 168.30 187.06 167.04 C 189.20 166.94 191.30 167.46 193.41 167.75 C 197.33 168.27 199.93 164.49 203.36 163.21 Z" />
<path fill="#41553b" opacity="1.00" d=" M 142.02 167.64 C 144.09 166.84 145.48 164.79 147.67 164.23 C 148.14 165.20 148.49 166.21 148.87 167.22 C 150.31 167.29 151.76 167.35 153.21 167.38 C 152.94 167.54 152.39 167.86 152.12 168.02 C 151.30 169.10 150.55 170.24 149.80 171.37 C 146.87 171.33 143.80 170.89 140.99 171.95 C 138.66 173.37 137.69 176.14 136.28 178.34 C 137.47 178.83 138.64 179.38 139.89 179.71 C 141.39 179.02 142.73 178.03 144.11 177.12 C 143.56 178.86 143.02 180.61 142.49 182.37 C 143.06 182.98 143.62 183.59 144.19 184.20 C 143.34 184.71 142.51 185.24 141.69 185.78 C 139.55 185.84 137.41 185.83 135.26 185.77 C 134.88 184.87 134.50 183.97 134.12 183.07 C 132.80 183.31 131.48 183.55 130.17 183.79 C 131.96 181.19 133.73 178.57 135.30 175.83 C 131.90 176.42 128.77 178.07 125.32 178.37 C 125.26 177.53 125.15 175.85 125.10 175.01 C 125.10 174.83 125.11 174.45 125.12 174.27 C 126.26 175.32 127.41 176.36 128.56 177.41 C 130.60 173.54 132.91 169.80 134.80 165.84 C 135.65 166.45 136.50 167.06 137.36 167.68 C 138.91 167.73 140.47 167.85 142.02 167.64 Z" />
<path fill="#27392a" opacity="1.00" d=" M 54.85 168.14 C 54.94 166.21 57.35 166.42 58.68 165.92 C 61.43 168.05 64.59 169.53 67.59 171.27 C 68.57 171.56 69.55 171.84 70.54 172.11 C 72.31 173.77 74.27 175.29 75.74 177.24 C 77.29 179.49 76.51 182.35 76.12 184.83 L 75.84 185.87 C 75.21 185.95 73.93 186.12 73.29 186.20 C 73.72 182.56 73.08 178.93 72.03 175.44 C 68.76 176.68 65.33 176.59 62.03 175.59 C 60.14 174.81 58.62 176.16 57.32 177.35 C 55.62 176.45 53.93 175.54 52.20 174.73 C 54.30 173.11 54.66 170.61 54.85 168.14 Z" />
<path fill="#2a3c2b" opacity="1.00" d=" M 149.80 171.37 C 150.55 170.24 151.30 169.10 152.12 168.02 C 152.18 169.55 153.44 171.55 151.77 172.63 C 148.69 175.41 147.81 179.60 146.11 183.22 C 145.63 183.47 144.67 183.96 144.19 184.20 C 143.62 183.59 143.06 182.98 142.49 182.37 C 143.02 180.61 143.56 178.86 144.11 177.12 C 142.73 178.03 141.39 179.02 139.89 179.71 C 138.64 179.38 137.47 178.83 136.28 178.34 C 137.69 176.14 138.66 173.37 140.99 171.95 C 143.80 170.89 146.87 171.33 149.80 171.37 Z" />
<path fill="#596e4b" opacity="1.00" d=" M 21.74 174.00 C 23.20 171.84 25.55 168.02 28.53 170.35 C 27.65 172.06 27.38 173.89 28.28 175.64 C 26.92 176.09 25.55 176.53 24.19 176.99 C 24.31 179.97 24.35 182.95 24.33 185.94 C 23.50 185.88 21.85 185.76 21.02 185.70 C 21.54 183.83 22.24 181.99 22.62 180.08 C 22.29 178.54 21.52 177.13 20.89 175.70 C 21.10 175.27 21.53 174.43 21.74 174.00 Z" />
<path fill="#324632" opacity="1.00" d=" M 28.28 175.64 C 27.38 173.89 27.65 172.06 28.53 170.35 C 29.83 171.70 30.75 173.55 32.42 174.48 C 35.61 174.70 38.82 174.38 41.99 174.94 L 43.87 175.15 C 42.06 177.38 39.28 178.25 36.71 179.26 C 36.32 181.71 35.62 184.11 34.33 186.25 C 31.00 186.10 27.66 186.04 24.33 185.94 C 24.35 182.95 24.31 179.97 24.19 176.99 C 25.55 176.53 26.92 176.09 28.28 175.64 Z" />
<path fill="#3b4f38" opacity="1.00" d=" M 70.54 172.11 C 73.36 172.39 76.15 171.82 78.96 171.80 C 80.99 173.47 82.80 175.48 85.33 176.44 C 85.83 177.46 86.31 178.48 86.80 179.52 C 87.16 180.33 87.51 181.15 87.86 181.98 C 84.38 184.32 80.12 184.27 76.12 184.83 C 76.51 182.35 77.29 179.49 75.74 177.24 C 74.27 175.29 72.31 173.77 70.54 172.11 Z" />
<path fill="#4b5f41" opacity="1.00" d=" M 117.18 172.12 C 119.52 172.88 121.85 173.69 124.14 174.62 C 121.99 177.55 120.03 180.70 119.40 184.34 C 120.59 183.70 121.78 183.06 122.96 182.42 C 123.24 182.86 123.81 183.73 124.09 184.17 C 123.33 184.71 122.56 185.23 121.79 185.75 C 109.74 185.48 97.60 186.92 85.59 185.66 C 92.26 185.13 98.97 185.63 105.62 184.91 C 106.46 183.07 107.01 181.02 108.36 179.48 C 109.96 178.58 111.75 178.09 113.47 177.49 C 114.73 175.71 115.96 173.92 117.18 172.12 Z" />
<path fill="#17251d" opacity="1.00" d=" M 43.87 175.15 C 46.63 174.82 49.41 174.37 52.20 174.73 C 53.93 175.54 55.62 176.45 57.32 177.35 C 58.62 176.16 60.14 174.81 62.03 175.59 C 65.33 176.59 68.76 176.68 72.03 175.44 C 73.08 178.93 73.72 182.56 73.29 186.20 C 60.31 185.38 47.32 186.08 34.33 186.25 C 35.62 184.11 36.32 181.71 36.71 179.26 C 39.28 178.25 42.06 177.38 43.87 175.15 Z" />
<path fill="#30422f" opacity="1.00" d=" M 124.14 174.62 L 125.10 175.01 C 125.15 175.85 125.26 177.53 125.32 178.37 C 128.77 178.07 131.90 176.42 135.30 175.83 C 133.73 178.57 131.96 181.19 130.17 183.79 C 131.48 183.55 132.80 183.31 134.12 183.07 C 134.50 183.97 134.88 184.87 135.26 185.77 C 130.77 185.50 126.28 186.01 121.79 185.75 C 122.56 185.23 123.33 184.71 124.09 184.17 C 123.81 183.73 123.24 182.86 122.96 182.42 C 121.78 183.06 120.59 183.70 119.40 184.34 C 120.03 180.70 121.99 177.55 124.14 174.62 Z" />
</svg>
