<?xml version="1.0" encoding="UTF-8" ?>
<!DOCTYPE svg PUBLIC "-//W3C//DTD SVG 1.1//EN" "http://www.w3.org/Graphics/SVG/1.1/DTD/svg11.dtd">
<svg width="134pt" height="191pt" viewBox="0 0 134 191" version="1.1" xmlns="http://www.w3.org/2000/svg">
<path fill="#000000" opacity="1.00" d=" M 43.38 11.38 C 46.11 7.45 48.87 3.34 52.97 0.71 C 52.01 2.68 50.93 4.66 50.92 6.92 C 50.28 17.27 49.89 27.66 48.35 37.92 C 46.82 48.11 43.85 57.99 41.36 67.97 C 48.39 64.14 56.72 63.31 64.52 64.82 C 71.80 48.01 83.02 32.72 97.94 21.93 C 99.15 21.28 100.39 20.67 101.64 20.10 C 100.21 29.26 96.85 37.98 93.43 46.55 C 89.36 57.03 82.73 66.19 77.26 75.94 C 77.59 79.04 77.78 82.14 78.04 85.24 C 79.25 83.01 80.85 81.02 82.16 78.84 C 82.98 80.72 82.61 82.73 82.42 84.69 C 86.30 80.90 90.38 75.67 96.14 75.47 C 95.94 80.65 91.93 84.18 88.90 87.92 C 92.19 88.40 95.59 88.85 98.86 87.97 C 101.62 87.32 104.07 85.73 106.84 85.17 C 108.13 85.68 108.39 87.34 109.23 88.34 C 115.53 84.35 123.54 83.24 130.68 85.43 C 132.11 94.54 130.50 103.73 130.47 112.89 C 133.25 115.63 131.76 119.62 133.02 122.96 L 134.00 122.44 L 134.00 122.72 C 131.56 125.83 128.67 129.10 128.28 133.20 C 125.33 130.82 122.41 128.40 119.15 126.47 C 118.13 125.77 117.13 125.04 116.11 124.35 C 120.24 122.59 122.34 128.93 126.24 126.90 C 126.70 127.59 127.15 128.28 127.60 128.97 C 129.02 126.67 130.26 124.26 131.72 121.99 C 129.65 122.47 127.14 123.35 125.37 121.63 C 122.64 119.47 123.22 115.60 124.38 112.76 C 125.82 112.36 127.26 111.96 128.70 111.55 C 128.91 103.38 129.77 95.17 129.14 87.01 C 125.41 84.75 120.20 85.75 116.13 86.85 C 111.25 89.02 106.35 91.66 103.03 95.98 C 100.06 99.39 99.62 104.04 98.37 108.21 C 103.68 112.33 110.36 114.24 115.47 118.66 C 114.94 119.09 113.90 119.94 113.37 120.37 C 113.26 120.73 113.05 121.46 112.94 121.82 L 112.62 122.88 C 110.92 122.34 109.14 122.24 107.39 121.95 C 107.29 122.72 107.11 124.27 107.02 125.04 C 107.33 125.23 107.95 125.60 108.26 125.78 C 111.02 127.46 113.73 129.22 116.34 131.12 C 117.85 132.29 119.34 133.48 120.84 134.66 C 122.77 136.25 124.80 137.69 126.91 139.02 C 127.90 137.44 128.73 135.77 129.43 134.04 C 129.83 134.32 130.64 134.89 131.04 135.17 C 129.89 136.48 129.16 138.04 128.11 139.41 C 126.47 139.47 124.82 139.39 123.20 139.12 C 117.65 143.72 111.74 147.89 106.25 152.58 C 109.48 157.37 110.67 163.09 112.08 168.60 C 113.36 174.06 114.22 179.90 112.64 185.39 C 115.84 185.87 119.04 186.34 122.20 187.06 C 120.66 188.78 118.22 188.70 116.13 189.06 C 112.11 189.47 108.09 189.91 104.06 190.17 C 80.40 191.07 56.70 191.13 33.03 190.40 C 24.75 189.87 16.36 189.83 8.26 187.88 C 9.71 186.26 11.98 186.31 13.95 185.96 C 28.58 184.34 43.32 184.23 58.02 184.12 C 68.66 183.64 79.31 184.28 89.96 184.38 C 91.71 184.27 94.09 184.98 94.99 182.96 C 99.53 177.35 98.63 169.68 97.99 162.99 C 96.94 165.59 96.22 168.37 94.72 170.76 C 93.90 172.31 91.74 172.07 90.35 171.60 C 82.78 167.61 78.51 159.79 74.58 152.54 C 72.90 149.58 72.41 146.18 71.59 142.93 C 68.98 141.21 66.90 144.87 64.69 145.95 C 66.49 148.26 65.54 150.73 63.42 152.37 C 63.19 158.92 61.08 165.62 56.48 170.43 C 53.72 173.20 49.49 172.34 46.06 171.67 C 44.24 171.32 41.83 170.32 42.20 168.03 C 42.17 161.59 48.40 157.98 52.09 153.56 C 46.58 155.08 40.89 156.14 35.14 155.66 C 35.40 153.76 35.62 151.84 36.35 150.07 C 36.47 151.21 36.70 153.50 36.82 154.64 C 43.69 154.29 50.42 152.53 56.67 149.71 C 58.42 148.88 60.27 148.33 62.19 148.04 C 60.72 149.55 58.92 150.67 57.02 151.56 C 53.36 153.42 51.07 157.02 48.02 159.65 C 45.80 162.26 43.00 165.30 43.73 169.02 C 46.75 170.68 50.58 171.14 53.91 170.22 C 56.94 168.01 57.55 164.00 59.55 161.01 C 60.23 159.73 61.12 158.51 61.39 157.06 C 61.53 154.38 61.69 151.62 63.55 149.51 C 63.56 147.93 63.30 146.32 63.67 144.78 C 64.74 143.59 65.93 142.51 67.17 141.50 C 65.28 140.86 63.43 140.09 61.63 139.20 L 62.75 138.30 C 67.46 139.38 72.40 140.59 76.42 143.37 C 75.66 143.53 74.15 143.85 73.39 144.01 C 76.22 151.71 79.71 159.32 85.11 165.58 C 87.46 167.66 89.64 170.27 92.80 171.07 C 93.93 168.09 94.96 165.06 95.75 161.96 C 93.46 163.58 91.19 165.24 88.89 166.85 C 88.72 165.64 88.77 164.39 89.02 163.19 C 90.40 161.00 91.52 158.67 92.57 156.32 C 93.73 153.55 95.73 151.05 96.11 148.03 C 95.73 144.68 95.31 141.23 94.03 138.09 C 92.87 137.16 91.59 136.40 90.37 135.57 C 84.48 130.40 76.39 129.61 68.94 128.72 C 63.65 128.59 58.19 128.33 53.03 129.69 C 46.17 134.14 41.77 141.39 38.24 148.57 L 37.71 147.00 C 38.00 146.37 38.59 145.11 38.89 144.47 C 38.31 144.46 37.16 144.43 36.58 144.41 C 38.34 141.60 37.62 138.03 37.01 134.95 C 35.75 131.15 34.22 127.14 31.03 124.54 C 29.75 121.87 27.83 127.65 30.53 125.76 C 32.15 128.50 33.95 131.21 34.61 134.38 C 35.54 137.66 36.27 141.01 36.58 144.41 C 34.01 143.83 31.78 145.41 29.54 146.37 C 23.05 149.31 16.34 151.75 9.76 154.48 C 7.86 155.27 5.91 155.99 3.84 156.11 L 4.91 155.09 C 5.37 154.88 6.28 154.44 6.73 154.23 C 16.22 151.07 25.37 146.95 34.54 142.97 C 34.42 140.35 34.25 137.72 33.59 135.17 C 32.74 132.10 31.74 128.87 29.02 126.93 C 27.33 128.46 25.70 130.06 24.03 131.61 C 19.27 136.04 14.99 140.97 10.81 145.94 C 8.14 149.37 4.79 152.39 3.30 156.58 C 2.52 156.83 0.96 157.35 0.18 157.60 C 7.09 147.59 15.15 138.39 23.89 129.94 C 26.53 127.79 27.98 124.65 29.88 121.90 C 31.37 122.89 32.65 124.16 34.13 125.18 C 35.60 122.32 36.85 119.34 38.52 116.59 C 40.44 113.57 44.00 112.21 47.31 111.32 C 45.54 113.18 43.26 114.35 41.05 115.59 C 38.36 119.02 36.61 123.04 34.56 126.86 C 35.61 128.40 36.68 129.94 37.55 131.60 C 38.23 132.85 38.66 134.31 39.89 135.17 C 39.00 138.04 39.56 141.18 38.64 144.08 C 42.11 139.20 45.15 133.82 50.07 130.21 C 54.02 127.51 57.01 123.63 61.17 121.23 C 63.67 119.50 67.19 118.63 67.87 115.23 C 64.46 116.83 60.69 116.65 57.12 115.79 C 56.36 116.56 55.61 117.33 54.86 118.11 C 54.75 121.35 54.60 124.73 52.73 127.51 C 49.14 128.71 45.66 130.24 41.99 131.18 C 41.37 132.34 40.84 133.56 40.15 134.69 C 40.11 133.20 40.00 131.72 39.91 130.24 C 43.12 129.84 45.99 128.25 48.88 126.89 C 51.81 125.57 52.57 121.92 52.85 119.02 C 53.09 115.49 49.57 113.50 47.43 111.29 C 48.71 111.44 50.01 111.45 51.30 111.49 C 50.40 110.86 49.31 110.65 48.25 110.45 C 43.10 109.63 38.95 106.10 35.31 102.60 C 31.11 97.75 30.32 91.09 29.27 85.00 C 25.41 59.86 29.31 32.92 43.38 11.38 M 39.49 22.60 C 29.17 43.83 27.71 68.56 32.37 91.46 C 34.27 95.96 36.70 100.38 40.04 103.99 C 45.20 109.30 53.31 109.86 60.19 108.44 C 66.83 106.72 74.04 102.36 75.41 95.10 C 76.95 88.85 76.29 82.38 75.36 76.10 C 79.42 66.91 85.74 58.95 89.78 49.75 C 91.54 45.08 94.25 40.64 94.91 35.64 C 97.28 31.76 97.94 27.14 99.65 22.96 C 98.81 23.28 98.03 23.69 97.31 24.21 C 82.06 37.01 69.94 53.84 63.81 72.87 C 61.75 71.19 63.20 68.92 63.78 66.89 C 59.88 66.41 55.94 65.29 52.00 66.05 C 47.75 66.71 43.64 68.18 39.80 70.09 C 39.92 66.71 40.40 63.34 41.31 60.07 C 44.16 49.26 46.83 38.33 47.66 27.15 C 48.11 22.02 49.17 16.90 48.73 11.74 C 49.28 9.87 49.50 7.93 49.67 5.99 C 45.39 10.91 42.34 16.77 39.49 22.60 M 80.00 92.12 C 85.78 88.40 92.25 83.69 94.21 76.87 C 88.12 80.28 82.15 85.26 80.00 92.12 M 80.40 83.87 C 79.32 84.74 78.42 86.51 79.08 87.85 C 80.78 88.22 81.97 84.48 80.40 83.87 M 97.05 89.96 C 93.75 90.67 90.48 89.70 87.21 89.39 C 85.85 89.99 85.13 91.42 84.15 92.45 C 83.95 92.31 83.55 92.02 83.35 91.87 C 83.42 93.60 82.24 95.90 83.76 97.26 C 87.74 99.24 92.25 99.88 96.60 100.55 C 97.80 100.99 98.63 100.11 99.03 99.07 C 100.86 94.92 104.43 92.10 107.54 89.00 C 107.39 88.53 107.07 87.60 106.92 87.13 C 103.50 87.56 100.54 89.74 97.05 89.96 M 75.37 100.46 C 72.23 104.32 67.74 106.66 63.89 109.70 C 61.99 110.25 60.04 110.55 58.13 111.03 C 56.78 112.35 58.32 114.76 60.00 114.72 C 65.10 115.47 69.43 111.99 73.75 109.85 C 77.72 106.40 79.53 101.11 78.72 95.93 C 77.50 97.36 76.45 98.93 75.37 100.46 M 77.49 108.78 C 80.58 111.58 85.07 113.20 89.27 113.15 C 87.30 108.20 84.68 103.38 80.85 99.61 C 80.17 102.83 78.92 105.90 77.49 108.78 M 91.21 101.46 C 92.26 106.34 93.91 111.06 94.84 115.97 C 96.78 123.89 94.26 132.21 96.37 140.09 C 97.04 141.66 96.28 144.21 98.11 145.02 C 100.36 139.41 103.07 133.98 105.24 128.33 C 105.75 125.66 105.64 122.85 106.79 120.32 C 108.20 120.54 109.61 120.77 111.03 121.02 C 111.79 120.24 112.35 119.32 112.71 118.28 C 107.86 115.91 102.89 113.60 98.54 110.36 C 96.12 108.43 97.45 104.99 97.79 102.46 C 95.60 102.12 93.40 101.80 91.21 101.46 M 87.92 102.78 C 86.30 105.43 89.38 108.18 90.98 110.12 C 90.86 108.71 90.81 107.28 90.48 105.90 C 90.07 104.73 89.91 101.77 87.92 102.78 M 76.11 109.99 C 75.83 110.59 75.27 111.79 74.99 112.39 L 74.17 111.43 C 70.41 112.82 71.68 117.11 71.72 120.19 C 69.62 121.61 68.69 124.27 67.15 126.24 C 71.12 127.72 75.68 127.54 79.84 128.58 C 82.65 126.23 84.54 122.59 86.17 119.26 C 86.81 117.81 87.47 116.37 88.01 114.88 C 86.38 114.45 84.77 113.89 83.06 113.85 C 80.92 112.27 78.58 110.98 76.11 109.99 M 51.71 112.08 C 52.33 113.54 53.22 114.84 54.26 116.04 C 56.42 115.13 56.58 113.04 55.98 111.01 C 54.49 111.03 52.98 111.23 51.71 112.08 M 88.44 118.60 C 86.31 122.08 84.12 125.52 81.86 128.92 C 84.50 129.84 87.01 131.10 89.39 132.56 L 89.38 132.94 C 90.79 133.96 92.23 134.94 93.70 135.88 C 94.03 127.90 93.87 119.86 91.62 112.14 C 90.33 114.14 88.65 116.14 88.44 118.60 M 126.13 113.27 L 126.63 113.70 C 124.41 113.94 124.55 116.13 124.44 117.76 L 124.52 117.74 C 124.57 119.76 126.34 120.84 127.93 121.65 C 129.99 121.02 130.81 119.09 131.34 117.21 C 130.93 114.62 128.93 112.47 126.13 113.27 M 56.23 127.33 C 59.51 127.24 62.78 126.98 66.05 126.75 C 67.14 122.58 72.44 119.18 70.20 114.61 C 67.72 120.95 59.54 121.89 56.23 127.33 M 107.03 127.42 C 104.09 135.43 100.52 143.23 96.95 150.98 C 94.47 154.81 92.67 159.03 90.79 163.17 C 92.87 162.40 94.38 160.63 95.45 158.77 C 98.42 157.53 100.35 154.74 102.96 152.94 C 109.43 148.00 115.64 142.73 122.21 137.93 C 121.15 136.99 120.20 135.90 118.98 135.17 C 116.66 133.27 114.30 131.44 111.83 129.76 C 110.33 128.85 108.96 127.24 107.03 127.42 M 97.89 159.20 C 100.86 163.92 100.19 169.81 100.13 175.13 C 99.98 175.88 99.69 177.37 99.54 178.11 C 98.49 180.85 96.33 183.11 95.92 186.08 C 100.40 187.81 106.23 190.08 110.38 186.50 C 112.74 182.60 111.27 177.60 111.06 173.29 C 110.30 169.41 109.24 165.60 108.08 161.83 C 107.70 158.98 106.17 156.48 104.89 153.97 C 102.25 155.27 100.08 157.28 97.89 159.20 Z" />
<path fill="#90826c" opacity="1.00" d=" M 39.49 22.60 C 42.34 16.77 45.39 10.91 49.67 5.99 C 49.50 7.93 49.28 9.87 48.73 11.74 C 41.92 29.79 36.20 48.64 35.80 68.07 C 36.10 69.20 36.42 70.32 36.77 71.43 C 37.50 71.41 38.96 71.35 39.69 71.33 C 47.74 71.21 55.97 70.58 63.79 72.93 L 63.81 72.87 C 69.94 53.84 82.06 37.01 97.31 24.21 C 98.03 23.69 98.81 23.28 99.65 22.96 C 97.94 27.14 97.28 31.76 94.91 35.64 C 86.56 45.93 80.11 57.65 74.21 69.46 C 73.16 71.31 71.35 72.78 70.98 74.95 C 70.18 79.30 70.52 83.75 70.51 88.14 C 70.54 89.76 70.58 91.39 70.75 93.01 C 63.97 93.54 57.73 98.95 56.10 105.53 C 57.90 105.58 59.70 105.59 61.49 105.47 C 61.77 106.70 60.86 107.56 60.19 108.44 C 53.31 109.86 45.20 109.30 40.04 103.99 C 36.70 100.38 34.27 95.96 32.37 91.46 C 27.71 68.56 29.17 43.83 39.49 22.60 Z" />
<path fill="#3b3231" opacity="1.00" d=" M 35.80 68.07 C 36.20 48.64 41.92 29.79 48.73 11.74 C 49.17 16.90 48.11 22.02 47.66 27.15 C 46.83 38.33 44.16 49.26 41.31 60.07 C 40.40 63.34 39.92 66.71 39.80 70.09 L 39.69 71.33 C 38.96 71.35 37.50 71.41 36.77 71.43 C 36.42 70.32 36.10 69.20 35.80 68.07 Z" />
<path fill="#3e3534" opacity="1.00" d=" M 74.21 69.46 C 80.11 57.65 86.56 45.93 94.91 35.64 C 94.25 40.64 91.54 45.08 89.78 49.75 C 85.74 58.95 79.42 66.91 75.36 76.10 C 76.29 82.38 76.95 88.85 75.41 95.10 C 75.47 92.87 75.25 90.65 75.01 88.43 C 73.51 88.34 72.01 88.24 70.51 88.14 C 70.52 83.75 70.18 79.30 70.98 74.95 C 71.35 72.78 73.16 71.31 74.21 69.46 Z" />
<path fill="#594e4a" opacity="1.00" d=" M 39.80 70.09 C 43.64 68.18 47.75 66.71 52.00 66.05 C 55.94 65.29 59.88 66.41 63.78 66.89 C 63.20 68.92 61.75 71.19 63.81 72.87 L 63.79 72.93 C 55.97 70.58 47.74 71.21 39.69 71.33 L 39.80 70.09 Z" />
<path fill="#bd3758" opacity="1.00" d=" M 80.00 92.12 C 82.15 85.26 88.12 80.28 94.21 76.87 C 92.25 83.69 85.78 88.40 80.00 92.12 Z" />
<path fill="#54172b" opacity="1.00" d=" M 80.40 83.87 C 81.97 84.48 80.78 88.22 79.08 87.85 C 78.42 86.51 79.32 84.74 80.40 83.87 Z" />
<path fill="#452d29" opacity="1.00" d=" M 116.13 86.85 C 120.20 85.75 125.41 84.75 129.14 87.01 C 129.77 95.17 128.91 103.38 128.70 111.55 C 127.26 111.96 125.82 112.36 124.38 112.76 C 121.45 104.28 119.84 95.43 119.34 86.48 C 118.53 86.57 116.93 86.76 116.13 86.85 Z" />
<path fill="#2c2d33" opacity="1.00" d=" M 97.05 89.96 C 100.54 89.74 103.50 87.56 106.92 87.13 C 107.07 87.60 107.39 88.53 107.54 89.00 C 104.43 92.10 100.86 94.92 99.03 99.07 C 94.41 96.07 88.76 95.42 84.15 92.45 C 85.13 91.42 85.85 89.99 87.21 89.39 C 90.48 89.70 93.75 90.67 97.05 89.96 Z" />
<path fill="#7a5341" opacity="1.00" d=" M 116.13 86.85 C 116.93 86.76 118.53 86.57 119.34 86.48 C 119.84 95.43 121.45 104.28 124.38 112.76 C 123.22 115.60 122.64 119.47 125.37 121.63 C 127.14 123.35 129.65 122.47 131.72 121.99 C 130.26 124.26 129.02 126.67 127.60 128.97 C 127.15 128.28 126.70 127.59 126.24 126.90 C 124.12 123.65 120.67 121.33 116.94 120.35 C 115.41 119.71 114.15 121.14 112.94 121.82 C 113.05 121.46 113.26 120.73 113.37 120.37 C 113.90 119.94 114.94 119.09 115.47 118.66 C 110.36 114.24 103.68 112.33 98.37 108.21 C 99.62 104.04 100.06 99.39 103.03 95.98 C 106.35 91.66 111.25 89.02 116.13 86.85 Z" />
<path fill="#4f4542" opacity="1.00" d=" M 70.51 88.14 C 72.01 88.24 73.51 88.34 75.01 88.43 C 75.25 90.65 75.47 92.87 75.41 95.10 C 74.04 102.36 66.83 106.72 60.19 108.44 C 60.86 107.56 61.77 106.70 61.49 105.47 C 65.02 104.60 68.95 103.27 70.84 99.90 C 72.10 97.73 71.22 95.26 70.75 93.01 C 70.58 91.39 70.54 89.76 70.51 88.14 Z" />
<path fill="#191820" opacity="1.00" d=" M 83.35 91.87 C 83.55 92.02 83.95 92.31 84.15 92.45 C 88.76 95.42 94.41 96.07 99.03 99.07 C 98.63 100.11 97.80 100.99 96.60 100.55 C 92.25 99.88 87.74 99.24 83.76 97.26 C 82.24 95.90 83.42 93.60 83.35 91.87 Z" />
<path fill="#000000" opacity="1.00" d=" M 56.10 105.53 C 57.73 98.95 63.97 93.54 70.75 93.01 C 71.22 95.26 72.10 97.73 70.84 99.90 C 68.95 103.27 65.02 104.60 61.49 105.47 C 59.70 105.59 57.90 105.58 56.10 105.53 M 68.29 94.47 C 63.75 96.13 59.55 99.54 57.68 104.10 C 63.20 105.14 71.20 101.34 69.78 94.69 C 69.41 94.64 68.66 94.53 68.29 94.47 Z" />
<path fill="#d3a02e" opacity="1.00" d=" M 68.29 94.47 C 68.66 94.53 69.41 94.64 69.78 94.69 C 71.20 101.34 63.20 105.14 57.68 104.10 C 59.55 99.54 63.75 96.13 68.29 94.47 Z" />
<path fill="#972a4b" opacity="1.00" d=" M 75.37 100.46 C 76.45 98.93 77.50 97.36 78.72 95.93 C 79.53 101.11 77.72 106.40 73.75 109.85 C 72.46 109.15 71.18 108.43 69.92 107.69 C 67.93 108.42 65.93 109.14 63.89 109.70 C 67.74 106.66 72.23 104.32 75.37 100.46 Z" />
<path fill="#251516" opacity="1.00" d=" M 77.49 108.78 C 78.92 105.90 80.17 102.83 80.85 99.61 C 84.68 103.38 87.30 108.20 89.27 113.15 C 85.07 113.20 80.58 111.58 77.49 108.78 Z" />
<path fill="#221315" opacity="1.00" d=" M 87.92 102.78 C 89.91 101.77 90.07 104.73 90.48 105.90 C 90.81 107.28 90.86 108.71 90.98 110.12 C 89.38 108.18 86.30 105.43 87.92 102.78 Z" />
<path fill="#b83457" opacity="1.00" d=" M 63.89 109.70 C 65.93 109.14 67.93 108.42 69.92 107.69 C 71.18 108.43 72.46 109.15 73.75 109.85 C 69.43 111.99 65.10 115.47 60.00 114.72 C 58.32 114.76 56.78 112.35 58.13 111.03 C 60.04 110.55 61.99 110.25 63.89 109.70 Z" />
<path fill="#211413" opacity="1.00" d=" M 76.11 109.99 C 78.58 110.98 80.92 112.27 83.06 113.85 C 82.30 113.91 80.76 114.03 79.99 114.09 C 81.57 115.53 83.26 116.84 85.03 118.04 L 83.91 118.36 C 82.68 117.89 81.47 117.40 80.28 116.85 C 78.28 115.68 76.46 114.19 74.99 112.39 C 75.27 111.79 75.83 110.59 76.11 109.99 Z" />
<path fill="#191921" opacity="1.00" d=" M 51.71 112.08 C 52.98 111.23 54.49 111.03 55.98 111.01 C 56.58 113.04 56.42 115.13 54.26 116.04 C 53.22 114.84 52.33 113.54 51.71 112.08 Z" />
<path fill="#422a28" opacity="1.00" d=" M 47.31 111.32 L 47.43 111.29 C 49.57 113.50 53.09 115.49 52.85 119.02 C 52.57 121.92 51.81 125.57 48.88 126.89 C 45.99 128.25 43.12 129.84 39.91 130.24 C 40.00 131.72 40.11 133.20 40.15 134.69 L 39.89 135.17 C 38.66 134.31 38.23 132.85 37.55 131.60 C 40.37 128.39 43.48 125.45 46.35 122.30 C 47.46 121.26 47.62 119.72 47.90 118.32 C 45.62 117.41 43.34 116.48 41.05 115.59 C 43.26 114.35 45.54 113.18 47.31 111.32 Z" />
<path fill="#5a3c33" opacity="1.00" d=" M 71.72 120.19 C 71.68 117.11 70.41 112.82 74.17 111.43 L 74.99 112.39 C 76.46 114.19 78.28 115.68 80.28 116.85 C 77.48 118.08 74.60 119.13 71.72 120.19 Z" />
<path fill="#331d1e" opacity="1.00" d=" M 88.44 118.60 C 88.65 116.14 90.33 114.14 91.62 112.14 C 93.87 119.86 94.03 127.90 93.70 135.88 C 92.23 134.94 90.79 133.96 89.38 132.94 L 89.39 132.56 C 89.82 127.88 88.99 123.23 88.44 118.60 Z" />
<path fill="#a9304d" opacity="1.00" d=" M 126.13 113.27 C 128.93 112.47 130.93 114.62 131.34 117.21 C 130.84 117.17 129.84 117.11 129.34 117.08 C 129.06 116.58 128.50 115.59 128.22 115.10 C 127.82 114.75 127.03 114.05 126.63 113.70 L 126.13 113.27 Z" />
<path fill="#3b2321" opacity="1.00" d=" M 79.99 114.09 C 80.76 114.03 82.30 113.91 83.06 113.85 C 84.77 113.89 86.38 114.45 88.01 114.88 C 87.47 116.37 86.81 117.81 86.17 119.26 C 85.61 119.03 84.48 118.58 83.91 118.36 L 85.03 118.04 C 83.26 116.84 81.57 115.53 79.99 114.09 Z" />
<path fill="#ceafae" opacity="1.00" d=" M 124.44 117.76 C 124.55 116.13 124.41 113.94 126.63 113.70 C 127.03 114.05 127.82 114.75 128.22 115.10 C 127.86 115.61 127.13 116.65 126.77 117.16 C 126.20 117.31 125.08 117.59 124.52 117.74 L 124.44 117.76 Z" />
<path fill="#8d2445" opacity="1.00" d=" M 128.22 115.10 C 128.50 115.59 129.06 116.58 129.34 117.08 C 128.92 117.66 128.08 118.84 127.67 119.43 C 126.48 119.19 126.12 118.17 126.77 117.16 C 127.13 116.65 127.86 115.61 128.22 115.10 Z" />
<path fill="#7a5341" opacity="1.00" d=" M 34.56 126.86 C 36.61 123.04 38.36 119.02 41.05 115.59 C 43.34 116.48 45.62 117.41 47.90 118.32 C 47.62 119.72 47.46 121.26 46.35 122.30 C 43.48 125.45 40.37 128.39 37.55 131.60 C 36.68 129.94 35.61 128.40 34.56 126.86 M 36.95 127.23 C 35.56 130.22 40.30 127.43 36.95 127.23 Z" />
<path fill="#7b5441" opacity="1.00" d=" M 56.23 127.33 C 59.54 121.89 67.72 120.95 70.20 114.61 C 72.44 119.18 67.14 122.58 66.05 126.75 C 62.78 126.98 59.51 127.24 56.23 127.33 Z" />
<path fill="#7a5341" opacity="1.00" d=" M 71.72 120.19 C 74.60 119.13 77.48 118.08 80.28 116.85 C 81.47 117.40 82.68 117.89 83.91 118.36 C 84.48 118.58 85.61 119.03 86.17 119.26 C 84.54 122.59 82.65 126.23 79.84 128.58 C 75.68 127.54 71.12 127.72 67.15 126.24 C 68.69 124.27 69.62 121.61 71.72 120.19 Z" />
<path fill="#d05971" opacity="1.00" d=" M 124.52 117.74 C 125.08 117.59 126.20 117.31 126.77 117.16 C 126.12 118.17 126.48 119.19 127.67 119.43 C 127.73 119.98 127.86 121.09 127.93 121.65 C 126.34 120.84 124.57 119.76 124.52 117.74 Z" />
<path fill="#cbada8" opacity="1.00" d=" M 129.34 117.08 C 129.84 117.11 130.84 117.17 131.34 117.21 C 130.81 119.09 129.99 121.02 127.93 121.65 C 127.86 121.09 127.73 119.98 127.67 119.43 C 128.08 118.84 128.92 117.66 129.34 117.08 Z" />
<path fill="#5b372f" opacity="1.00" d=" M 88.44 118.60 C 88.99 123.23 89.82 127.88 89.39 132.56 C 87.01 131.10 84.50 129.84 81.86 128.92 C 84.12 125.52 86.31 122.08 88.44 118.60 Z" />
<path fill="#462b25" opacity="1.00" d=" M 112.94 121.82 C 114.15 121.14 115.41 119.71 116.94 120.35 C 120.67 121.33 124.12 123.65 126.24 126.90 C 122.34 128.93 120.24 122.59 116.11 124.35 C 114.94 123.87 113.79 123.35 112.62 122.88 L 112.94 121.82 Z" />
<path fill="#d7a32f" opacity="1.00" d=" M 107.39 121.95 C 109.14 122.24 110.92 122.34 112.62 122.88 C 113.79 123.35 114.94 123.87 116.11 124.35 C 117.13 125.04 118.13 125.77 119.15 126.47 C 119.55 129.23 120.37 131.91 120.84 134.66 C 119.34 133.48 117.85 132.29 116.34 131.12 C 115.74 128.52 113.58 126.89 111.36 125.69 C 110.34 124.92 109.31 124.95 108.26 125.78 C 107.95 125.60 107.33 125.23 107.02 125.04 C 107.11 124.27 107.29 122.72 107.39 121.95 Z" />
<path fill="#e2ad36" opacity="1.00" d=" M 30.53 125.76 C 27.83 127.65 29.75 121.87 31.03 124.54 L 30.53 125.76 Z" />
<path fill="#c7b160" opacity="1.00" d=" M 31.03 124.54 C 34.22 127.14 35.75 131.15 37.01 134.95 C 36.41 134.81 35.21 134.52 34.61 134.38 C 33.95 131.21 32.15 128.50 30.53 125.76 L 31.03 124.54 Z" />
<path fill="#dcc675" opacity="1.00" d=" M 108.26 125.78 C 109.31 124.95 110.34 124.92 111.36 125.69 C 113.58 126.89 115.74 128.52 116.34 131.12 C 113.73 129.22 111.02 127.46 108.26 125.78 Z" />
<path fill="#432e24" opacity="1.00" d=" M 36.95 127.23 C 40.30 127.43 35.56 130.22 36.95 127.23 Z" />
<path fill="#74531d" opacity="1.00" d=" M 119.15 126.47 C 122.41 128.40 125.33 130.82 128.28 133.20 C 128.57 133.41 129.14 133.83 129.43 134.04 C 128.73 135.77 127.90 137.44 126.91 139.02 C 124.80 137.69 122.77 136.25 120.84 134.66 C 120.37 131.91 119.55 129.23 119.15 126.47 Z" />
<path fill="#969696" opacity="1.00" d=" M 24.03 131.61 C 25.70 130.06 27.33 128.46 29.02 126.93 C 31.74 128.87 32.74 132.10 33.59 135.17 C 26.89 141.32 18.95 146.06 10.77 149.94 C 14.93 143.45 20.32 137.91 25.29 132.05 L 24.03 131.61 Z" />
<path fill="#d9d9d9" opacity="1.00" d=" M 107.03 127.42 C 108.96 127.24 110.33 128.85 111.83 129.76 C 110.49 130.74 108.71 131.34 107.99 132.96 C 105.30 138.00 103.14 143.31 100.51 148.38 C 99.37 150.52 98.35 152.86 96.29 154.30 C 96.46 153.47 96.79 151.81 96.95 150.98 C 100.52 143.23 104.09 135.43 107.03 127.42 Z" />
<path fill="#90826c" opacity="1.00" d=" M 53.03 129.69 C 58.19 128.33 63.65 128.59 68.94 128.72 C 76.39 129.61 84.48 130.40 90.37 135.57 C 90.66 142.48 90.23 149.72 92.57 156.32 C 91.52 158.67 90.40 161.00 89.02 163.19 C 87.75 164.03 86.43 164.80 85.11 165.58 C 79.71 159.32 76.22 151.71 73.39 144.01 C 74.15 143.85 75.66 143.53 76.42 143.37 C 72.40 140.59 67.46 139.38 62.75 138.30 L 61.63 139.20 C 54.91 145.13 45.95 147.38 38.02 151.23 C 38.08 150.57 38.18 149.24 38.24 148.57 C 41.77 141.39 46.17 134.14 53.03 129.69 Z" />
<path fill="#969696" opacity="1.00" d=" M 111.83 129.76 C 114.30 131.44 116.66 133.27 118.98 135.17 C 116.12 137.59 113.31 140.07 110.12 142.04 C 110.48 138.54 111.98 135.33 112.72 131.92 C 110.67 136.97 109.40 142.54 105.80 146.80 C 101.95 150.41 97.24 153.53 95.45 158.77 C 94.38 160.63 92.87 162.40 90.79 163.17 C 92.67 159.03 94.47 154.81 96.95 150.98 C 96.79 151.81 96.46 153.47 96.29 154.30 C 98.35 152.86 99.37 150.52 100.51 148.38 C 103.14 143.31 105.30 138.00 107.99 132.96 C 108.71 131.34 110.49 130.74 111.83 129.76 Z" />
<path fill="#c5c5c6" opacity="1.00" d=" M 10.81 145.94 C 14.99 140.97 19.27 136.04 24.03 131.61 L 25.29 132.05 C 20.32 137.91 14.93 143.45 10.77 149.94 C 9.25 151.19 7.89 152.64 6.73 154.23 C 6.28 154.44 5.37 154.88 4.91 155.09 L 3.84 156.11 C 3.70 156.22 3.43 156.46 3.30 156.58 C 4.79 152.39 8.14 149.37 10.81 145.94 Z" />
<path fill="#4d4958" opacity="1.00" d=" M 105.80 146.80 C 109.40 142.54 110.67 136.97 112.72 131.92 C 111.98 135.33 110.48 138.54 110.12 142.04 C 113.31 140.07 116.12 137.59 118.98 135.17 C 120.20 135.90 121.15 136.99 122.21 137.93 C 115.64 142.73 109.43 148.00 102.96 152.94 C 100.35 154.74 98.42 157.53 95.45 158.77 C 97.24 153.53 101.95 150.41 105.80 146.80 Z" />
<path fill="#d3a02e" opacity="1.00" d=" M 34.61 134.38 C 35.21 134.52 36.41 134.81 37.01 134.95 C 37.62 138.03 38.34 141.60 36.58 144.41 C 36.27 141.01 35.54 137.66 34.61 134.38 Z" />
<path fill="#575361" opacity="1.00" d=" M 33.59 135.17 C 34.25 137.72 34.42 140.35 34.54 142.97 C 25.37 146.95 16.22 151.07 6.73 154.23 C 7.89 152.64 9.25 151.19 10.77 149.94 C 18.95 146.06 26.89 141.32 33.59 135.17 Z" />
<path fill="#564a47" opacity="1.00" d=" M 90.37 135.57 C 91.59 136.40 92.87 137.16 94.03 138.09 C 95.31 141.23 95.73 144.68 96.11 148.03 C 95.73 151.05 93.73 153.55 92.57 156.32 C 90.23 149.72 90.66 142.48 90.37 135.57 Z" />
<path fill="#3b3234" opacity="1.00" d=" M 38.02 151.23 C 45.95 147.38 54.91 145.13 61.63 139.20 C 63.43 140.09 65.28 140.86 67.17 141.50 C 65.93 142.51 64.74 143.59 63.67 144.78 C 63.30 146.32 63.56 147.93 63.55 149.51 C 61.69 151.62 61.53 154.38 61.39 157.06 C 61.27 155.51 61.19 153.88 60.40 152.50 C 59.29 152.14 58.16 151.82 57.02 151.56 C 58.92 150.67 60.72 149.55 62.19 148.04 C 60.27 148.33 58.42 148.88 56.67 149.71 C 50.42 152.53 43.69 154.29 36.82 154.64 C 36.70 153.50 36.47 151.21 36.35 150.07 C 36.73 149.01 37.23 148.01 37.71 147.00 L 38.24 148.57 C 38.18 149.24 38.08 150.57 38.02 151.23 Z" />
<path fill="#675b52" opacity="1.00" d=" M 48.02 159.65 C 51.07 157.02 53.36 153.42 57.02 151.56 C 58.16 151.82 59.29 152.14 60.40 152.50 C 61.19 153.88 61.27 155.51 61.39 157.06 C 61.12 158.51 60.23 159.73 59.55 161.01 L 59.03 159.91 C 57.22 161.21 55.45 163.21 52.96 162.75 C 50.86 162.71 49.57 160.78 48.02 159.65 Z" />
<path fill="#322a2e" opacity="1.00" d=" M 97.89 159.20 C 100.08 157.28 102.25 155.27 104.89 153.97 C 106.17 156.48 107.70 158.98 108.08 161.83 C 106.66 164.54 104.07 166.22 101.45 167.61 C 101.04 170.12 100.57 172.62 100.13 175.13 C 100.19 169.81 100.86 163.92 97.89 159.20 Z" />
<path fill="#90826c" opacity="1.00" d=" M 43.73 169.02 C 43.00 165.30 45.80 162.26 48.02 159.65 C 49.57 160.78 50.86 162.71 52.96 162.75 C 55.45 163.21 57.22 161.21 59.03 159.91 L 59.55 161.01 C 57.55 164.00 56.94 168.01 53.91 170.22 C 50.58 171.14 46.75 170.68 43.73 169.02 Z" />
<path fill="#61554e" opacity="1.00" d=" M 101.45 167.61 C 104.07 166.22 106.66 164.54 108.08 161.83 C 109.24 165.60 110.30 169.41 111.06 173.29 C 109.15 174.96 107.45 176.90 105.34 178.34 C 103.45 179.09 101.44 178.38 99.54 178.11 C 99.69 177.37 99.98 175.88 100.13 175.13 C 100.57 172.62 101.04 170.12 101.45 167.61 Z" />
<path fill="#514644" opacity="1.00" d=" M 85.11 165.58 C 86.43 164.80 87.75 164.03 89.02 163.19 C 88.77 164.39 88.72 165.64 88.89 166.85 C 91.19 165.24 93.46 163.58 95.75 161.96 C 94.96 165.06 93.93 168.09 92.80 171.07 C 89.64 170.27 87.46 167.66 85.11 165.58 Z" />
<path fill="#90826c" opacity="1.00" d=" M 105.34 178.34 C 107.45 176.90 109.15 174.96 111.06 173.29 C 111.27 177.60 112.74 182.60 110.38 186.50 C 106.23 190.08 100.40 187.81 95.92 186.08 C 96.33 183.11 98.49 180.85 99.54 178.11 C 101.44 178.38 103.45 179.09 105.34 178.34 Z" />
</svg>
