<?xml version="1.0" encoding="UTF-8" ?>
<!DOCTYPE svg PUBLIC "-//W3C//DTD SVG 1.1//EN" "http://www.w3.org/Graphics/SVG/1.1/DTD/svg11.dtd">
<svg width="153pt" height="231pt" viewBox="0 0 153 231" version="1.1" xmlns="http://www.w3.org/2000/svg">
<path fill="#000000" opacity="1.00" d=" M 125.85 0.00 L 126.69 0.00 C 126.68 5.79 124.63 11.26 123.28 16.82 C 119.31 31.85 114.30 46.79 106.31 60.20 C 111.89 65.84 113.96 74.20 113.18 81.95 C 112.64 88.30 108.32 93.66 103.31 97.29 C 105.98 98.34 108.91 98.98 111.24 100.73 C 113.48 102.99 113.91 106.31 114.76 109.24 C 121.63 107.26 129.10 106.78 135.85 109.48 C 142.33 111.28 148.69 115.43 150.78 122.15 C 153.73 131.74 152.81 142.28 149.87 151.76 C 146.58 162.04 136.58 169.06 126.01 170.02 C 123.57 182.48 113.61 192.19 102.53 197.59 C 100.42 198.78 97.97 198.83 95.63 198.87 C 98.06 195.85 101.39 193.65 103.43 190.30 C 106.24 185.90 108.90 181.33 110.51 176.33 C 105.31 175.12 101.24 171.59 97.23 168.28 C 95.98 170.42 94.68 172.52 93.33 174.58 C 95.50 174.48 97.67 174.38 99.85 174.34 C 98.93 177.70 97.70 180.97 96.14 184.09 C 91.43 193.96 86.52 204.00 79.15 212.20 C 76.82 215.35 72.30 215.55 69.02 213.94 C 66.41 211.25 64.88 207.64 63.85 204.08 C 62.88 200.96 66.72 199.93 68.79 198.81 C 74.06 196.92 77.28 192.15 80.50 187.89 C 78.44 184.15 75.14 180.59 75.66 176.01 C 75.49 173.00 76.73 169.22 73.86 167.11 C 72.67 165.52 70.75 165.53 68.95 165.66 C 67.49 170.62 65.97 175.71 63.08 180.05 C 58.44 185.72 48.67 179.32 49.21 173.02 C 51.05 169.88 54.84 168.30 56.29 164.83 C 53.29 165.87 50.38 167.14 47.37 168.15 C 47.09 167.51 46.51 166.24 46.23 165.60 C 43.12 165.72 39.73 166.62 36.79 165.22 C 35.75 162.89 35.88 160.23 35.06 157.83 C 34.08 156.15 31.95 155.26 30.05 155.58 C 23.40 156.68 17.65 161.24 14.54 167.16 C 12.24 161.58 15.06 155.52 17.20 150.32 C 20.98 141.39 27.78 134.25 35.30 128.34 C 32.79 123.32 30.80 118.04 27.85 113.24 C 20.81 100.35 11.59 88.68 5.92 75.05 C 4.85 71.97 1.74 68.79 3.58 65.45 C 5.46 69.25 7.51 72.97 9.29 76.82 C 17.99 95.24 31.51 111.19 38.03 130.67 C 38.78 130.37 39.50 129.99 40.21 129.60 C 44.14 126.67 47.94 123.56 51.96 120.75 C 52.27 120.55 52.90 120.15 53.21 119.95 C 52.26 118.45 51.31 116.96 50.35 115.48 C 50.10 115.09 49.60 114.33 49.36 113.94 C 45.03 107.18 40.57 100.51 36.14 93.83 C 33.81 89.89 32.23 85.51 29.26 81.98 C 26.08 74.49 21.15 67.83 18.67 60.02 L 17.66 59.22 C 12.97 55.83 8.48 52.15 3.66 48.92 C 3.36 48.72 2.75 48.31 2.45 48.10 C 2.54 52.50 2.91 56.88 3.46 61.24 C 3.24 62.83 3.00 64.42 2.72 66.01 C 1.14 59.13 1.10 52.02 0.26 45.03 C 6.30 48.38 11.59 52.85 17.18 56.87 C 18.99 58.06 20.19 59.90 21.10 61.82 C 26.54 73.14 32.50 84.21 39.13 94.87 C 44.18 102.58 49.33 110.22 54.31 117.97 C 60.95 116.80 67.34 114.39 74.12 114.03 C 73.58 108.74 78.72 106.33 82.27 103.65 C 81.39 103.36 79.63 102.77 78.76 102.48 C 81.82 101.76 85.01 101.78 88.08 101.09 C 97.16 98.64 108.63 94.70 110.75 84.24 C 111.18 81.93 111.43 79.60 111.43 77.25 C 111.04 71.81 109.21 66.50 106.00 62.08 C 104.92 62.51 103.83 62.94 102.75 63.37 C 103.58 61.61 104.42 59.86 105.31 58.13 C 105.64 57.55 106.29 56.37 106.61 55.78 C 115.49 39.31 120.49 21.12 124.85 3.03 C 116.13 11.06 108.78 20.44 102.59 30.53 C 99.96 34.46 97.79 38.68 95.70 42.92 C 93.65 47.02 91.83 51.24 90.38 55.60 C 85.31 56.31 80.10 57.03 75.53 59.49 C 72.26 61.09 69.93 63.97 67.30 66.38 C 66.81 57.59 65.38 48.90 63.79 40.25 C 62.83 34.02 61.54 27.84 60.46 21.63 C 58.63 25.05 58.57 29.00 58.22 32.77 C 57.74 39.28 56.31 45.74 56.75 52.29 C 57.18 61.64 59.05 70.82 61.44 79.84 C 64.70 88.93 69.92 98.99 80.10 101.52 C 76.24 103.88 71.58 101.06 69.25 97.81 C 64.84 91.81 60.94 85.22 59.11 77.93 C 56.06 66.27 53.73 54.08 55.45 42.02 C 56.42 33.56 55.89 24.21 61.15 16.99 C 61.80 19.31 62.35 21.66 62.72 24.04 C 64.89 36.64 67.75 49.17 68.65 61.95 C 74.24 57.04 81.46 54.33 88.90 54.21 C 90.24 50.21 91.81 46.27 93.71 42.49 C 101.60 26.48 112.03 11.45 125.85 0.00 M 92.96 102.97 C 95.73 104.70 99.77 102.43 100.08 99.20 C 97.82 100.37 93.65 100.34 92.96 102.97 M 100.40 106.15 L 100.00 106.52 C 104.12 108.24 108.46 109.35 112.88 109.96 C 112.55 108.09 112.21 106.23 111.91 104.36 C 109.81 100.77 105.48 99.85 101.74 99.01 C 101.20 101.38 100.48 103.71 100.40 106.15 M 85.85 105.04 C 85.11 107.06 86.18 109.76 84.06 111.18 C 83.03 112.68 81.71 111.12 80.86 110.36 C 77.64 114.95 82.06 119.36 84.58 123.02 L 84.86 123.93 C 89.23 121.35 92.10 116.97 95.25 113.12 C 96.68 111.52 95.56 109.47 94.58 107.98 C 93.15 106.23 91.99 104.30 90.98 102.29 C 89.05 102.71 87.02 103.32 85.85 105.04 M 97.39 107.91 C 97.71 109.31 98.06 110.71 98.25 112.14 C 97.13 115.61 94.06 117.92 91.96 120.78 C 91.15 121.73 90.34 122.69 89.54 123.64 C 89.18 123.69 88.48 123.78 88.12 123.82 L 88.51 124.85 C 87.36 125.48 86.19 126.06 85.00 126.59 C 82.76 125.62 81.68 123.27 80.39 121.35 C 78.52 123.50 76.71 125.70 74.77 127.78 C 73.57 129.01 72.64 130.46 71.87 131.99 C 68.64 134.25 64.58 136.19 62.97 139.98 C 67.05 136.69 70.61 131.61 76.38 131.64 C 75.42 132.54 74.52 133.51 73.63 134.48 C 72.14 135.25 70.29 135.71 69.21 137.08 C 67.17 138.86 64.71 140.73 64.46 143.66 C 63.90 146.87 63.79 150.15 63.90 153.41 C 63.84 154.20 63.73 155.79 63.67 156.58 C 68.53 152.92 73.34 149.07 77.43 144.55 C 78.40 140.21 77.33 135.75 76.91 131.40 C 79.44 133.59 79.36 137.18 80.24 140.16 C 81.61 139.36 82.98 138.53 84.33 137.69 L 84.73 137.78 C 86.95 136.35 89.31 135.13 91.46 133.59 C 93.79 131.96 94.45 129.06 95.58 126.63 C 97.28 122.41 100.43 119.01 103.71 115.95 L 103.67 115.58 C 105.74 114.36 107.72 112.97 109.48 111.31 C 107.30 110.74 105.12 110.23 102.92 109.78 L 102.84 109.32 C 101.58 108.76 100.33 108.20 99.07 107.65 C 98.93 106.52 98.79 105.40 98.65 104.28 L 97.94 104.46 C 95.57 103.21 95.16 107.58 97.39 107.91 M 76.29 110.96 C 76.24 112.84 76.55 114.71 76.74 116.59 C 76.89 116.60 77.20 116.64 77.35 116.66 C 76.75 112.43 79.62 109.18 81.83 105.94 C 79.90 107.49 77.62 108.82 76.29 110.96 M 83.28 108.39 C 82.74 109.84 83.19 110.26 84.61 109.63 C 85.14 108.17 84.69 107.76 83.28 108.39 M 110.22 113.27 C 103.44 117.38 97.86 123.95 95.81 131.68 C 92.52 141.45 94.11 154.59 103.80 160.14 C 110.01 166.55 119.65 168.81 128.28 167.38 C 135.45 165.73 142.76 161.77 145.83 154.73 C 149.84 146.74 151.06 137.25 149.78 128.43 C 149.49 122.37 146.29 116.40 140.76 113.64 C 136.19 111.16 131.06 110.01 125.96 109.30 C 124.51 109.20 122.95 109.03 121.62 109.73 C 117.50 109.45 113.75 111.43 110.22 113.27 M 64.36 117.13 L 64.34 117.33 C 62.40 117.75 60.48 118.24 58.59 118.80 C 59.41 120.64 60.37 122.41 61.53 124.06 C 62.34 123.35 63.14 122.63 63.94 121.92 C 66.16 120.34 68.26 118.31 71.05 117.83 C 72.56 118.00 73.05 119.68 74.08 120.57 C 76.41 119.84 75.38 117.15 75.06 115.50 C 71.43 115.54 67.91 116.51 64.36 117.13 M 78.32 118.14 C 76.60 119.81 75.15 121.86 74.70 124.26 C 76.20 123.59 77.46 122.50 78.21 121.04 C 78.68 120.39 80.20 117.45 78.32 118.14 M 54.61 121.47 C 48.34 125.83 41.81 129.98 36.39 135.42 C 35.19 136.28 35.40 137.71 35.58 138.98 C 37.10 140.84 38.58 142.74 40.06 144.63 C 44.87 142.60 45.65 136.69 50.03 134.29 C 52.14 134.39 54.35 134.77 56.09 133.23 L 54.47 132.00 C 54.60 128.72 57.54 127.10 59.78 125.24 C 58.98 123.62 58.17 122.01 57.36 120.40 L 57.67 120.13 C 56.63 120.51 55.50 120.76 54.61 121.47 M 63.22 124.64 C 64.04 127.44 65.75 129.91 67.89 131.88 C 69.18 130.89 70.33 129.75 71.52 128.65 C 71.78 125.63 71.72 122.59 71.16 119.61 C 68.11 120.57 65.86 122.95 63.22 124.64 M 61.07 125.66 L 61.43 126.74 C 59.91 126.81 58.22 127.98 57.89 129.51 C 54.38 129.99 58.33 134.32 58.96 136.21 C 59.47 137.16 60.16 137.93 61.03 138.52 C 63.05 136.98 64.74 135.08 66.44 133.20 C 65.90 132.17 65.37 131.13 64.85 130.09 L 64.56 130.41 C 63.56 128.74 63.15 126.36 61.07 125.66 M 18.60 150.72 C 16.85 154.62 15.19 158.72 15.26 163.07 C 19.32 153.69 27.79 147.58 35.51 141.38 C 34.52 139.57 32.42 137.32 34.31 135.33 C 34.99 133.96 37.95 131.11 35.11 130.45 C 28.05 135.69 22.18 142.65 18.60 150.72 M 81.14 141.26 L 80.50 142.58 C 84.44 142.93 88.24 144.30 92.23 144.28 C 92.26 141.79 92.27 139.30 92.23 136.81 C 92.40 136.25 92.73 135.14 92.90 134.58 C 88.88 136.61 84.92 138.82 81.14 141.26 M 47.47 139.03 C 47.50 140.91 49.36 142.10 50.23 143.63 C 51.44 144.50 52.66 145.35 53.89 146.19 C 53.94 144.50 53.98 142.82 54.03 141.14 L 53.46 141.51 C 52.89 139.53 52.37 137.46 51.04 135.82 C 49.49 136.36 48.13 137.51 47.47 139.03 M 55.13 136.20 C 55.40 139.53 58.07 134.60 55.13 136.20 M 54.98 139.88 C 55.34 141.40 55.69 142.92 56.05 144.45 C 57.26 142.75 59.99 141.03 59.13 138.69 C 57.63 138.43 56.34 139.43 54.98 139.88 M 61.30 140.27 C 58.76 143.49 56.21 146.72 54.34 150.39 C 51.32 155.38 47.88 160.61 48.06 166.70 C 51.17 164.94 54.47 163.58 57.68 162.03 C 57.66 163.84 57.63 165.65 57.62 167.47 C 54.76 169.04 52.32 171.35 50.32 173.91 C 52.25 177.02 55.07 180.47 59.11 180.34 C 61.78 179.57 62.64 176.71 63.67 174.46 C 65.18 170.62 66.82 166.74 67.27 162.60 C 68.32 161.62 65.65 160.56 66.42 159.47 C 67.65 157.42 69.50 155.85 71.00 154.01 C 67.73 154.94 65.53 157.74 62.74 159.52 C 62.36 157.92 62.02 156.32 61.68 154.72 C 62.72 150.19 62.18 145.47 63.02 140.90 C 62.59 140.74 61.73 140.43 61.30 140.27 M 21.55 156.95 C 25.17 155.53 28.94 152.98 33.00 154.29 C 35.20 154.82 36.50 156.84 37.31 158.80 C 37.39 160.60 37.55 162.40 37.81 164.18 C 40.64 164.48 43.95 165.12 46.45 163.52 C 47.65 158.54 49.80 153.92 52.73 149.72 C 54.11 147.67 50.63 147.02 49.50 145.91 C 48.44 144.64 47.28 143.45 46.05 142.35 C 43.97 143.99 41.77 145.49 39.48 146.83 C 38.50 145.32 37.41 143.89 36.23 142.53 C 31.25 147.21 24.95 150.85 21.55 156.95 M 79.99 144.04 C 77.85 147.09 75.05 149.56 72.47 152.23 C 73.44 152.39 74.40 152.54 75.37 152.70 C 76.96 153.44 78.55 154.21 80.13 154.97 C 78.24 163.63 76.43 172.81 78.52 181.59 C 79.30 183.16 80.56 187.20 82.79 185.07 C 84.18 184.34 85.56 183.61 86.97 182.93 C 85.56 186.38 81.30 187.29 80.04 190.82 C 78.73 192.84 77.03 194.54 75.61 196.47 C 74.41 197.40 73.17 198.29 71.91 199.15 L 71.93 199.23 C 69.69 200.29 66.93 200.86 65.36 202.92 C 66.18 206.84 68.24 210.42 70.75 213.50 C 76.25 213.73 79.40 209.05 82.34 205.20 C 83.06 204.24 83.79 203.29 84.34 202.23 C 86.47 199.27 87.98 195.93 89.69 192.73 C 92.32 187.22 94.79 181.64 97.12 176.00 C 93.16 176.45 90.25 178.94 87.54 181.62 C 88.53 179.28 89.86 177.11 90.81 174.76 L 91.37 174.15 C 94.03 171.44 95.44 167.95 96.56 164.39 C 97.38 162.74 98.58 161.16 98.73 159.27 C 96.27 156.05 93.86 152.69 92.89 148.67 C 92.36 147.52 92.18 145.77 90.64 145.54 C 87.13 144.77 83.52 144.66 79.99 144.04 M 73.21 154.13 C 71.13 156.93 69.37 160.15 69.70 163.78 C 72.19 163.96 74.14 165.48 75.98 167.02 C 76.56 163.37 76.98 159.69 77.67 156.06 C 76.19 155.41 74.70 154.76 73.21 154.13 M 100.12 160.60 C 99.47 162.66 98.67 164.68 98.33 166.82 C 99.35 168.74 101.31 169.83 103.08 170.94 C 105.33 172.89 107.97 174.29 110.87 174.97 C 111.61 172.67 112.21 170.34 112.73 167.99 C 112.51 168.11 112.08 168.36 111.86 168.48 C 107.66 166.29 103.50 163.99 100.12 160.60 M 114.16 169.04 C 113.79 170.73 113.42 172.42 113.05 174.11 C 110.26 182.47 105.96 190.32 100.13 196.94 C 110.09 191.92 119.53 184.02 123.16 173.13 C 123.39 172.23 123.62 171.32 123.86 170.42 C 120.62 170.02 117.39 169.55 114.16 169.04 Z" />
<path fill="#867e90" opacity="1.00" d=" M 102.59 30.53 C 108.78 20.44 116.13 11.06 124.85 3.03 C 120.49 21.12 115.49 39.31 106.61 55.78 C 104.51 53.99 101.78 52.43 99.03 53.87 C 96.67 54.20 97.00 56.95 96.45 58.68 C 95.93 58.33 94.90 57.62 94.38 57.27 C 94.40 59.29 95.27 61.12 96.07 62.93 C 94.10 63.29 92.14 63.67 90.18 64.06 C 89.38 62.38 88.50 60.72 87.16 59.39 C 87.26 61.51 87.46 63.61 87.69 65.71 C 84.69 68.67 81.82 72.13 81.93 76.61 L 81.70 76.57 C 81.46 76.01 80.98 74.90 80.74 74.34 C 77.49 74.85 74.33 75.83 71.32 77.17 C 68.10 77.70 63.13 76.23 61.44 79.84 C 59.05 70.82 57.18 61.64 56.75 52.29 C 58.04 52.80 59.32 53.33 60.61 53.87 C 60.41 48.75 60.77 43.62 61.57 38.56 C 62.13 38.98 63.23 39.83 63.79 40.25 C 65.38 48.90 66.81 57.59 67.30 66.38 C 69.93 63.97 72.26 61.09 75.53 59.49 C 80.10 57.03 85.31 56.31 90.38 55.60 C 91.83 51.24 93.65 47.02 95.70 42.92 C 96.81 43.44 97.82 45.33 99.16 44.32 C 100.85 40.51 101.71 36.39 103.49 32.61 C 103.26 32.09 102.82 31.05 102.59 30.53 Z" />
<path fill="#898291" opacity="1.00" d=" M 58.22 32.77 C 58.57 29.00 58.63 25.05 60.46 21.63 C 61.54 27.84 62.83 34.02 63.79 40.25 C 63.23 39.83 62.13 38.98 61.57 38.56 C 59.67 37.18 58.65 35.03 58.22 32.77 Z" />
<path fill="#6e6679" opacity="1.00" d=" M 95.70 42.92 C 97.79 38.68 99.96 34.46 102.59 30.53 C 102.82 31.05 103.26 32.09 103.49 32.61 C 101.71 36.39 100.85 40.51 99.16 44.32 C 97.82 45.33 96.81 43.44 95.70 42.92 Z" />
<path fill="#766e81" opacity="1.00" d=" M 56.75 52.29 C 56.31 45.74 57.74 39.28 58.22 32.77 C 58.65 35.03 59.67 37.18 61.57 38.56 C 60.77 43.62 60.41 48.75 60.61 53.87 C 59.32 53.33 58.04 52.80 56.75 52.29 Z" />
<path fill="#e0e0e0" opacity="1.00" d=" M 2.45 48.10 C 2.75 48.31 3.36 48.72 3.66 48.92 C 3.52 52.46 3.47 56.08 4.73 59.45 C 4.65 60.97 4.63 62.49 4.66 64.02 C 11.96 73.33 16.64 84.31 22.37 94.61 C 28.77 106.04 34.50 117.82 40.21 129.60 C 39.50 129.99 38.78 130.37 38.03 130.67 C 31.51 111.19 17.99 95.24 9.29 76.82 C 7.51 72.97 5.46 69.25 3.58 65.45 C 3.64 64.04 3.61 62.64 3.46 61.24 C 2.91 56.88 2.54 52.50 2.45 48.10 Z" />
<path fill="#3c3847" opacity="1.00" d=" M 3.66 48.92 C 8.48 52.15 12.97 55.83 17.66 59.22 C 16.66 60.93 18.16 62.67 18.74 64.24 C 22.05 70.25 24.57 76.85 29.26 81.98 C 32.23 85.51 33.81 89.89 36.14 93.83 C 35.46 94.52 34.78 95.22 34.10 95.91 C 30.43 93.18 27.43 89.69 23.78 86.94 C 17.25 77.90 11.83 68.06 4.73 59.45 C 3.47 56.08 3.52 52.46 3.66 48.92 Z" />
<path fill="#f89dcc" opacity="1.00" d=" M 99.03 53.87 C 101.78 52.43 104.51 53.99 106.61 55.78 C 106.29 56.37 105.64 57.55 105.31 58.13 C 104.66 58.27 103.35 58.55 102.69 58.68 C 102.58 60.34 102.46 62.00 102.32 63.65 C 102.90 63.82 104.04 64.14 104.62 64.31 C 102.77 66.92 101.56 69.89 100.58 72.92 C 98.28 72.18 96.32 73.75 94.41 74.75 C 95.05 73.03 96.21 71.58 97.06 69.95 C 98.14 67.60 96.96 65.12 96.07 62.93 C 95.27 61.12 94.40 59.29 94.38 57.27 C 94.90 57.62 95.93 58.33 96.45 58.68 C 97.00 56.95 96.67 54.20 99.03 53.87 Z" />
<path fill="#857d90" opacity="1.00" d=" M 102.69 58.68 C 103.35 58.55 104.66 58.27 105.31 58.13 C 104.42 59.86 103.58 61.61 102.75 63.37 C 103.83 62.94 104.92 62.51 106.00 62.08 C 109.21 66.50 111.04 71.81 111.43 77.25 C 107.55 76.54 103.92 74.98 100.58 72.92 C 101.56 69.89 102.77 66.92 104.62 64.31 C 104.04 64.14 102.90 63.82 102.32 63.65 C 102.46 62.00 102.58 60.34 102.69 58.68 Z" />
<path fill="#969696" opacity="1.00" d=" M 4.73 59.45 C 11.83 68.06 17.25 77.90 23.78 86.94 C 27.27 93.55 31.80 99.53 35.84 105.80 C 37.79 109.28 39.88 112.69 41.92 116.12 C 43.10 117.80 43.89 120.27 46.07 120.87 C 48.03 120.82 49.99 120.56 51.96 120.75 C 47.94 123.56 44.14 126.67 40.21 129.60 C 34.50 117.82 28.77 106.04 22.37 94.61 C 16.64 84.31 11.96 73.33 4.66 64.02 C 4.63 62.49 4.65 60.97 4.73 59.45 Z" />
<path fill="#888191" opacity="1.00" d=" M 18.74 64.24 C 18.16 62.67 16.66 60.93 17.66 59.22 L 18.67 60.02 C 21.15 67.83 26.08 74.49 29.26 81.98 C 24.57 76.85 22.05 70.25 18.74 64.24 Z" />
<path fill="#000000" opacity="1.00" d=" M 87.16 59.39 C 88.50 60.72 89.38 62.38 90.18 64.06 C 92.14 63.67 94.10 63.29 96.07 62.93 C 96.96 65.12 98.14 67.60 97.06 69.95 C 96.21 71.58 95.05 73.03 94.41 74.75 C 94.52 77.70 94.44 80.64 94.31 83.58 C 94.25 85.29 94.15 87.00 93.99 88.71 L 93.16 87.65 C 92.46 83.55 91.77 79.44 91.36 75.30 C 88.37 76.54 85.15 77.14 81.93 76.61 C 81.82 72.13 84.69 68.67 87.69 65.71 C 87.46 63.61 87.26 61.51 87.16 59.39 M 90.22 65.82 C 86.61 67.60 84.58 71.20 83.04 74.74 C 85.77 75.77 88.52 74.80 91.12 73.89 L 90.93 73.54 C 93.51 71.98 96.39 69.43 95.64 66.05 C 95.37 63.25 91.28 64.17 90.22 65.82 Z" />
<path fill="#ff4787" opacity="1.00" d=" M 90.22 65.82 C 91.28 64.17 95.37 63.25 95.64 66.05 C 96.39 69.43 93.51 71.98 90.93 73.54 C 90.54 72.29 90.01 71.09 89.56 69.86 C 89.78 68.51 89.95 67.16 90.22 65.82 Z" />
<path fill="#cb396b" opacity="1.00" d=" M 83.04 74.74 C 84.58 71.20 86.61 67.60 90.22 65.82 C 89.95 67.16 89.78 68.51 89.56 69.86 C 90.01 71.09 90.54 72.29 90.93 73.54 L 91.12 73.89 C 88.52 74.80 85.77 75.77 83.04 74.74 Z" />
<path fill="#948d9c" opacity="1.00" d=" M 94.41 74.75 C 96.32 73.75 98.28 72.18 100.58 72.92 C 103.92 74.98 107.55 76.54 111.43 77.25 C 111.43 79.60 111.18 81.93 110.75 84.24 C 110.14 84.97 109.55 85.71 108.98 86.47 C 104.02 85.87 99.16 84.74 94.31 83.58 C 94.44 80.64 94.52 77.70 94.41 74.75 Z" />
<path fill="#9993a1" opacity="1.00" d=" M 71.32 77.17 C 74.33 75.83 77.49 74.85 80.74 74.34 C 80.98 74.90 81.46 76.01 81.70 76.57 L 81.93 76.61 C 85.15 77.14 88.37 76.54 91.36 75.30 C 91.77 79.44 92.46 83.55 93.16 87.65 C 92.05 86.37 92.29 84.54 91.95 83.00 C 85.26 80.42 78.15 79.30 71.32 77.17 Z" />
<path fill="#fffef0" opacity="1.00" d=" M 61.44 79.84 C 63.13 76.23 68.10 77.70 71.32 77.17 C 78.15 79.30 85.26 80.42 91.95 83.00 C 92.29 84.54 92.05 86.37 93.16 87.65 L 93.99 88.71 C 94.15 87.00 94.25 85.29 94.31 83.58 C 99.16 84.74 104.02 85.87 108.98 86.47 C 109.55 85.71 110.14 84.97 110.75 84.24 C 108.63 94.70 97.16 98.64 88.08 101.09 C 85.43 101.33 82.76 101.28 80.10 101.52 C 69.92 98.99 64.70 88.93 61.44 79.84 Z" />
<path fill="#504c5a" opacity="1.00" d=" M 23.78 86.94 C 27.43 89.69 30.43 93.18 34.10 95.91 C 34.78 95.22 35.46 94.52 36.14 93.83 C 40.57 100.51 45.03 107.18 49.36 113.94 C 45.22 114.44 43.52 110.37 41.14 107.88 C 39.94 106.17 37.66 106.26 35.84 105.80 C 31.80 99.53 27.27 93.55 23.78 86.94 Z" />
<path fill="#3e3b44" opacity="1.00" d=" M 92.96 102.97 C 93.65 100.34 97.82 100.37 100.08 99.20 C 99.77 102.43 95.73 104.70 92.96 102.97 Z" />
<path fill="#fffef0" opacity="1.00" d=" M 100.40 106.15 C 100.48 103.71 101.20 101.38 101.74 99.01 C 102.67 100.01 103.62 101.00 104.58 101.97 C 103.37 103.21 102.19 104.47 100.94 105.68 L 100.40 106.15 Z" />
<path fill="#939393" opacity="1.00" d=" M 101.74 99.01 C 105.48 99.85 109.81 100.77 111.91 104.36 C 108.42 105.79 104.61 105.35 100.94 105.68 C 102.19 104.47 103.37 103.21 104.58 101.97 C 103.62 101.00 102.67 100.01 101.74 99.01 Z" />
<path fill="#969696" opacity="1.00" d=" M 85.85 105.04 C 87.02 103.32 89.05 102.71 90.98 102.29 C 91.99 104.30 93.15 106.23 94.58 107.98 C 90.78 111.68 86.08 114.24 81.54 116.89 C 82.80 118.80 83.92 120.82 84.58 123.02 C 82.06 119.36 77.64 114.95 80.86 110.36 C 81.71 111.12 83.03 112.68 84.06 111.18 C 86.18 109.76 85.11 107.06 85.85 105.04 Z" />
<path fill="#6d6972" opacity="1.00" d=" M 97.39 107.91 C 95.16 107.58 95.57 103.21 97.94 104.46 C 98.27 105.63 98.01 106.88 97.39 107.91 Z" />
<path fill="#2f2b3c" opacity="1.00" d=" M 97.94 104.46 L 98.65 104.28 C 98.79 105.40 98.93 106.52 99.07 107.65 C 100.33 108.20 101.58 108.76 102.84 109.32 L 102.92 109.78 C 103.15 111.72 103.41 113.65 103.67 115.58 L 103.71 115.95 C 100.43 119.01 97.28 122.41 95.58 126.63 C 94.45 129.06 93.79 131.96 91.46 133.59 C 89.31 135.13 86.95 136.35 84.73 137.78 L 84.33 137.69 C 83.13 137.40 81.92 137.11 80.72 136.81 C 83.35 133.14 86.68 129.98 88.91 126.03 C 88.81 125.74 88.61 125.15 88.51 124.85 L 88.12 123.82 C 88.48 123.78 89.18 123.69 89.54 123.64 C 91.37 123.61 93.19 123.72 95.02 123.81 C 94.00 122.81 92.98 121.80 91.96 120.78 C 94.06 117.92 97.13 115.61 98.25 112.14 C 98.06 110.71 97.71 109.31 97.39 107.91 C 98.01 106.88 98.27 105.63 97.94 104.46 Z" />
<path fill="#514d5b" opacity="1.00" d=" M 111.91 104.36 C 112.21 106.23 112.55 108.09 112.88 109.96 C 108.46 109.35 104.12 108.24 100.00 106.52 L 100.40 106.15 L 100.94 105.68 C 104.61 105.35 108.42 105.79 111.91 104.36 Z" />
<path fill="#6e6c75" opacity="1.00" d=" M 35.84 105.80 C 37.66 106.26 39.94 106.17 41.14 107.88 C 43.52 110.37 45.22 114.44 49.36 113.94 C 49.60 114.33 50.10 115.09 50.35 115.48 C 47.53 115.60 44.72 115.82 41.92 116.12 C 39.88 112.69 37.79 109.28 35.84 105.80 Z" />
<path fill="#d7d4d1" opacity="1.00" d=" M 76.29 110.96 C 77.62 108.82 79.90 107.49 81.83 105.94 C 79.62 109.18 76.75 112.43 77.35 116.66 C 77.20 116.64 76.89 116.60 76.74 116.59 C 76.55 114.71 76.24 112.84 76.29 110.96 Z" />
<path fill="#838383" opacity="1.00" d=" M 83.28 108.39 C 84.69 107.76 85.14 108.17 84.61 109.63 C 83.19 110.26 82.74 109.84 83.28 108.39 Z" />
<path fill="#383444" opacity="1.00" d=" M 94.58 107.98 C 95.56 109.47 96.68 111.52 95.25 113.12 C 92.10 116.97 89.23 121.35 84.86 123.93 L 84.58 123.02 C 83.92 120.82 82.80 118.80 81.54 116.89 C 86.08 114.24 90.78 111.68 94.58 107.98 Z" />
<path fill="#464250" opacity="1.00" d=" M 102.92 109.78 C 105.12 110.23 107.30 110.74 109.48 111.31 C 107.72 112.97 105.74 114.36 103.67 115.58 C 103.41 113.65 103.15 111.72 102.92 109.78 Z" />
<path fill="#fffef0" opacity="1.00" d=" M 110.22 113.27 C 113.75 111.43 117.50 109.45 121.62 109.73 C 119.03 111.28 116.11 112.11 113.38 113.35 C 111.24 114.13 110.96 116.68 109.65 118.25 C 105.37 117.92 103.02 121.84 100.84 124.86 C 99.04 127.64 97.83 130.74 96.16 133.59 L 95.81 131.68 C 97.86 123.95 103.44 117.38 110.22 113.27 Z" />
<path fill="#969696" opacity="1.00" d=" M 121.62 109.73 C 122.95 109.03 124.51 109.20 125.96 109.30 C 131.06 110.01 136.19 111.16 140.76 113.64 C 140.33 119.78 141.57 126.00 140.12 132.07 C 138.22 136.35 134.71 139.56 131.64 142.98 C 131.15 141.22 130.68 139.45 130.08 137.72 C 128.64 134.93 126.09 131.46 122.48 132.47 C 119.69 133.36 117.50 135.66 116.07 138.15 C 114.66 141.20 116.05 144.51 117.02 147.47 C 114.07 147.67 110.86 148.45 108.18 146.77 C 105.48 145.15 102.50 144.04 99.30 144.39 C 98.86 144.06 97.98 143.40 97.54 143.07 C 96.89 139.94 96.68 136.74 96.16 133.59 C 97.83 130.74 99.04 127.64 100.84 124.86 C 103.02 121.84 105.37 117.92 109.65 118.25 C 110.96 116.68 111.24 114.13 113.38 113.35 C 116.11 112.11 119.03 111.28 121.62 109.73 Z" />
<path fill="#77757c" opacity="1.00" d=" M 140.76 113.64 C 146.29 116.40 149.49 122.37 149.78 128.43 C 146.19 128.39 143.12 130.37 140.12 132.07 C 141.57 126.00 140.33 119.78 140.76 113.64 Z" />
<path fill="#7e7d82" opacity="1.00" d=" M 41.92 116.12 C 44.72 115.82 47.53 115.60 50.35 115.48 C 51.31 116.96 52.26 118.45 53.21 119.95 C 52.90 120.15 52.27 120.55 51.96 120.75 C 49.99 120.56 48.03 120.82 46.07 120.87 C 43.89 120.27 43.10 117.80 41.92 116.12 Z" />
<path fill="#8a2946" opacity="1.00" d=" M 64.36 117.13 C 67.91 116.51 71.43 115.54 75.06 115.50 C 75.38 117.15 76.41 119.84 74.08 120.57 C 73.05 119.68 72.56 118.00 71.05 117.83 C 68.26 118.31 66.16 120.34 63.94 121.92 C 63.64 121.51 63.02 120.70 62.71 120.29 C 63.09 119.84 63.84 118.93 64.22 118.48 C 64.25 118.19 64.31 117.62 64.34 117.33 L 64.36 117.13 Z" />
<path fill="#c3385c" opacity="1.00" d=" M 58.59 118.80 C 60.48 118.24 62.40 117.75 64.34 117.33 C 64.31 117.62 64.25 118.19 64.22 118.48 C 63.84 118.93 63.09 119.84 62.71 120.29 C 63.02 120.70 63.64 121.51 63.94 121.92 C 63.14 122.63 62.34 123.35 61.53 124.06 C 60.37 122.41 59.41 120.64 58.59 118.80 Z" />
<path fill="#302e3c" opacity="1.00" d=" M 78.32 118.14 C 80.20 117.45 78.68 120.39 78.21 121.04 C 77.46 122.50 76.20 123.59 74.70 124.26 C 75.15 121.86 76.60 119.81 78.32 118.14 Z" />
<path fill="#fffef0" opacity="1.00" d=" M 54.61 121.47 C 55.50 120.76 56.63 120.51 57.67 120.13 L 57.36 120.40 C 54.38 123.05 51.58 125.92 48.22 128.09 C 43.71 131.35 39.35 134.87 35.58 138.98 C 35.40 137.71 35.19 136.28 36.39 135.42 C 41.81 129.98 48.34 125.83 54.61 121.47 Z" />
<path fill="#7a7980" opacity="1.00" d=" M 63.22 124.64 C 65.86 122.95 68.11 120.57 71.16 119.61 C 71.72 122.59 71.78 125.63 71.52 128.65 C 70.33 129.75 69.18 130.89 67.89 131.88 C 65.75 129.91 64.04 127.44 63.22 124.64 Z" />
<path fill="#9c7424" opacity="1.00" d=" M 48.22 128.09 C 51.58 125.92 54.38 123.05 57.36 120.40 C 58.17 122.01 58.98 123.62 59.78 125.24 C 57.54 127.10 54.60 128.72 54.47 132.00 C 52.19 131.00 49.56 130.41 48.22 128.09 Z" />
<path fill="#625f6b" opacity="1.00" d=" M 74.77 127.78 C 76.71 125.70 78.52 123.50 80.39 121.35 C 81.68 123.27 82.76 125.62 85.00 126.59 C 86.19 126.06 87.36 125.48 88.51 124.85 C 88.61 125.15 88.81 125.74 88.91 126.03 C 86.68 129.98 83.35 133.14 80.72 136.81 C 81.92 137.11 83.13 137.40 84.33 137.69 C 82.98 138.53 81.61 139.36 80.24 140.16 C 79.36 137.18 79.44 133.59 76.91 131.40 C 77.12 131.29 77.55 131.07 77.76 130.96 C 76.76 129.90 75.76 128.84 74.77 127.78 Z" />
<path fill="#948d9c" opacity="1.00" d=" M 89.54 123.64 C 90.34 122.69 91.15 121.73 91.96 120.78 C 92.98 121.80 94.00 122.81 95.02 123.81 C 93.19 123.72 91.37 123.61 89.54 123.64 Z" />
<path fill="#6d6d6d" opacity="1.00" d=" M 61.07 125.66 C 63.15 126.36 63.56 128.74 64.56 130.41 C 62.77 132.42 60.89 134.35 58.96 136.21 C 58.33 134.32 54.38 129.99 57.89 129.51 C 59.63 130.37 62.42 128.79 61.43 126.74 L 61.07 125.66 Z" />
<path fill="#b2acb3" opacity="1.00" d=" M 57.89 129.51 C 58.22 127.98 59.91 126.81 61.43 126.74 C 62.42 128.79 59.63 130.37 57.89 129.51 Z" />
<path fill="#d3a02e" opacity="1.00" d=" M 35.58 138.98 C 39.35 134.87 43.71 131.35 48.22 128.09 C 49.56 130.41 52.19 131.00 54.47 132.00 L 56.09 133.23 C 54.35 134.77 52.14 134.39 50.03 134.29 C 45.65 136.69 44.87 142.60 40.06 144.63 C 38.58 142.74 37.10 140.84 35.58 138.98 Z" />
<path fill="#b2acb3" opacity="1.00" d=" M 71.87 131.99 C 72.64 130.46 73.57 129.01 74.77 127.78 C 75.76 128.84 76.76 129.90 77.76 130.96 C 77.55 131.07 77.12 131.29 76.91 131.40 L 76.38 131.64 C 70.61 131.61 67.05 136.69 62.97 139.98 C 64.58 136.19 68.64 134.25 71.87 131.99 Z" />
<path fill="#66636d" opacity="1.00" d=" M 140.12 132.07 C 143.12 130.37 146.19 128.39 149.78 128.43 C 151.06 137.25 149.84 146.74 145.83 154.73 C 136.72 160.44 125.29 163.26 114.77 160.18 C 116.12 160.06 117.48 159.92 118.83 159.77 C 113.54 158.56 109.57 154.68 105.76 151.06 C 107.48 151.18 109.19 151.30 110.90 151.40 C 114.86 148.06 120.44 152.61 124.26 149.15 C 126.13 147.76 128.43 146.71 129.72 144.70 C 130.38 142.44 130.19 140.04 130.08 137.72 C 130.68 139.45 131.15 141.22 131.64 142.98 C 134.71 139.56 138.22 136.35 140.12 132.07 Z" />
<path fill="#424049" opacity="1.00" d=" M 64.56 130.41 L 64.85 130.09 C 65.37 131.13 65.90 132.17 66.44 133.20 C 64.74 135.08 63.05 136.98 61.03 138.52 C 60.16 137.93 59.47 137.16 58.96 136.21 C 60.89 134.35 62.77 132.42 64.56 130.41 Z" />
<path fill="#fa4970" opacity="1.00" d=" M 18.60 150.72 C 22.18 142.65 28.05 135.69 35.11 130.45 C 37.95 131.11 34.99 133.96 34.31 135.33 C 32.42 137.32 34.52 139.57 35.51 141.38 C 27.79 147.58 19.32 153.69 15.26 163.07 C 15.19 158.72 16.85 154.62 18.60 150.72 Z" />
<path fill="#5c5865" opacity="1.00" d=" M 76.38 131.64 L 76.91 131.40 C 77.33 135.75 78.40 140.21 77.43 144.55 C 73.34 149.07 68.53 152.92 63.67 156.58 C 63.73 155.79 63.84 154.20 63.90 153.41 C 65.92 151.31 68.70 149.63 69.59 146.70 C 70.53 144.02 69.65 141.12 70.22 138.40 C 71.35 137.10 73.00 136.17 73.63 134.48 C 74.52 133.51 75.42 132.54 76.38 131.64 Z" />
<path fill="#4a4755" opacity="1.00" d=" M 103.80 160.14 C 94.11 154.59 92.52 141.45 95.81 131.68 L 96.16 133.59 C 96.68 136.74 96.89 139.94 97.54 143.07 C 99.67 150.79 105.92 156.68 113.12 159.79 C 110.01 159.69 106.91 160.01 103.80 160.14 Z" />
<path fill="#3f3c4a" opacity="1.00" d=" M 122.48 132.47 C 126.09 131.46 128.64 134.93 130.08 137.72 C 130.19 140.04 130.38 142.44 129.72 144.70 C 128.43 146.71 126.13 147.76 124.26 149.15 C 121.80 148.79 119.39 148.18 117.02 147.47 C 116.05 144.51 114.66 141.20 116.07 138.15 C 117.50 135.66 119.69 133.36 122.48 132.47 M 120.73 134.20 L 121.55 134.90 C 119.43 135.30 118.38 137.32 117.36 138.98 C 116.29 142.40 119.30 146.16 122.94 145.54 C 127.93 145.87 130.29 139.17 127.27 135.71 C 125.61 133.86 122.96 134.13 120.73 134.20 Z" />
<path fill="#959595" opacity="1.00" d=" M 120.73 134.20 C 122.96 134.13 125.61 133.86 127.27 135.71 C 130.29 139.17 127.93 145.87 122.94 145.54 C 119.30 146.16 116.29 142.40 117.36 138.98 C 117.49 139.47 117.75 140.45 117.88 140.94 C 119.52 138.75 121.50 136.84 124.07 135.81 C 123.22 135.51 122.38 135.21 121.55 134.90 L 120.73 134.20 Z" />
<path fill="#979797" opacity="1.00" d=" M 69.21 137.08 C 70.29 135.71 72.14 135.25 73.63 134.48 C 73.00 136.17 71.35 137.10 70.22 138.40 C 69.65 141.12 70.53 144.02 69.59 146.70 C 68.70 149.63 65.92 151.31 63.90 153.41 C 63.79 150.15 63.90 146.87 64.46 143.66 C 64.62 145.21 64.85 146.76 65.08 148.31 C 66.59 144.62 67.82 140.82 69.21 137.08 Z" />
<path fill="#5a5762" opacity="1.00" d=" M 81.14 141.26 C 84.92 138.82 88.88 136.61 92.90 134.58 C 92.73 135.14 92.40 136.25 92.23 136.81 C 88.30 138.71 84.96 141.95 80.50 142.58 L 81.14 141.26 Z" />
<path fill="#fffef0" opacity="1.00" d=" M 117.36 138.98 C 118.38 137.32 119.43 135.30 121.55 134.90 C 122.38 135.21 123.22 135.51 124.07 135.81 C 121.50 136.84 119.52 138.75 117.88 140.94 C 117.75 140.45 117.49 139.47 117.36 138.98 Z" />
<path fill="#969696" opacity="1.00" d=" M 47.47 139.03 C 48.13 137.51 49.49 136.36 51.04 135.82 C 52.37 137.46 52.89 139.53 53.46 141.51 C 52.39 142.22 51.31 142.93 50.23 143.63 C 49.36 142.10 47.50 140.91 47.47 139.03 Z" />
<path fill="#4f4f4f" opacity="1.00" d=" M 55.13 136.20 C 58.07 134.60 55.40 139.53 55.13 136.20 Z" />
<path fill="#e0e0e0" opacity="1.00" d=" M 64.46 143.66 C 64.71 140.73 67.17 138.86 69.21 137.08 C 67.82 140.82 66.59 144.62 65.08 148.31 C 64.85 146.76 64.62 145.21 64.46 143.66 Z" />
<path fill="#3d3a45" opacity="1.00" d=" M 80.50 142.58 C 84.96 141.95 88.30 138.71 92.23 136.81 C 92.27 139.30 92.26 141.79 92.23 144.28 C 88.24 144.30 84.44 142.93 80.50 142.58 Z" />
<path fill="#575460" opacity="1.00" d=" M 54.98 139.88 C 56.34 139.43 57.63 138.43 59.13 138.69 C 59.99 141.03 57.26 142.75 56.05 144.45 C 55.69 142.92 55.34 141.40 54.98 139.88 Z" />
<path fill="#fffef0" opacity="1.00" d=" M 61.30 140.27 C 61.73 140.43 62.59 140.74 63.02 140.90 C 62.18 145.47 62.72 150.19 61.68 154.72 C 61.26 156.47 60.93 158.25 60.68 160.03 C 59.69 160.72 58.70 161.39 57.68 162.03 C 54.47 163.58 51.17 164.94 48.06 166.70 C 47.88 160.61 51.32 155.38 54.34 150.39 C 56.21 146.72 58.76 143.49 61.30 140.27 Z" />
<path fill="#58565f" opacity="1.00" d=" M 53.46 141.51 L 54.03 141.14 C 53.98 142.82 53.94 144.50 53.89 146.19 C 52.66 145.35 51.44 144.50 50.23 143.63 C 51.31 142.93 52.39 142.22 53.46 141.51 Z" />
<path fill="#5b1b33" opacity="1.00" d=" M 21.55 156.95 C 24.95 150.85 31.25 147.21 36.23 142.53 C 37.41 143.89 38.50 145.32 39.48 146.83 C 41.77 145.49 43.97 143.99 46.05 142.35 C 47.28 143.45 48.44 144.64 49.50 145.91 C 45.18 150.40 41.01 155.18 38.28 160.83 C 38.03 160.32 37.55 159.31 37.31 158.80 C 36.50 156.84 35.20 154.82 33.00 154.29 C 28.94 152.98 25.17 155.53 21.55 156.95 Z" />
<path fill="#79777e" opacity="1.00" d=" M 97.54 143.07 C 97.98 143.40 98.86 144.06 99.30 144.39 C 102.50 144.04 105.48 145.15 108.18 146.77 C 110.86 148.45 114.07 147.67 117.02 147.47 C 119.39 148.18 121.80 148.79 124.26 149.15 C 120.44 152.61 114.86 148.06 110.90 151.40 C 109.19 151.30 107.48 151.18 105.76 151.06 C 109.57 154.68 113.54 158.56 118.83 159.77 C 117.48 159.92 116.12 160.06 114.77 160.18 C 114.36 160.08 113.53 159.89 113.12 159.79 C 105.92 156.68 99.67 150.79 97.54 143.07 Z" />
<path fill="#9993a0" opacity="1.00" d=" M 79.99 144.04 C 83.52 144.66 87.13 144.77 90.64 145.54 C 92.18 145.77 92.36 147.52 92.89 148.67 C 91.34 149.82 89.88 151.14 89.27 153.04 C 88.88 150.51 88.49 147.98 88.14 145.44 C 82.76 144.83 79.31 149.88 75.37 152.70 C 74.40 152.54 73.44 152.39 72.47 152.23 C 75.05 149.56 77.85 147.09 79.99 144.04 Z" />
<path fill="#411428" opacity="1.00" d=" M 49.50 145.91 C 50.63 147.02 54.11 147.67 52.73 149.72 C 49.80 153.92 47.65 158.54 46.45 163.52 C 43.95 165.12 40.64 164.48 37.81 164.18 C 37.55 162.40 37.39 160.60 37.31 158.80 C 37.55 159.31 38.03 160.32 38.28 160.83 C 41.01 155.18 45.18 150.40 49.50 145.91 Z" />
<path fill="#fffef0" opacity="1.00" d=" M 75.37 152.70 C 79.31 149.88 82.76 144.83 88.14 145.44 C 88.49 147.98 88.88 150.51 89.27 153.04 C 89.54 154.99 89.86 156.92 90.10 158.87 C 90.67 163.95 90.34 169.12 91.37 174.15 L 90.81 174.76 C 87.70 177.85 85.09 181.35 82.79 185.07 C 80.56 187.20 79.30 183.16 78.52 181.59 C 76.43 172.81 78.24 163.63 80.13 154.97 C 78.55 154.21 76.96 153.44 75.37 152.70 Z" />
<path fill="#888191" opacity="1.00" d=" M 89.27 153.04 C 89.88 151.14 91.34 149.82 92.89 148.67 C 93.86 152.69 96.27 156.05 98.73 159.27 C 98.58 161.16 97.38 162.74 96.56 164.39 C 94.29 162.69 92.13 160.84 90.10 158.87 C 89.86 156.92 89.54 154.99 89.27 153.04 Z" />
<path fill="#9993a0" opacity="1.00" d=" M 62.74 159.52 C 65.53 157.74 67.73 154.94 71.00 154.01 C 69.50 155.85 67.65 157.42 66.42 159.47 C 65.65 160.56 68.32 161.62 67.27 162.60 C 64.23 164.56 60.95 166.09 57.62 167.47 C 57.63 165.65 57.66 163.84 57.68 162.03 C 58.70 161.39 59.69 160.72 60.68 160.03 C 60.93 158.25 61.26 156.47 61.68 154.72 C 62.02 156.32 62.36 157.92 62.74 159.52 Z" />
<path fill="#4d172d" opacity="1.00" d=" M 73.21 154.13 C 74.70 154.76 76.19 155.41 77.67 156.06 C 76.98 159.69 76.56 163.37 75.98 167.02 C 74.14 165.48 72.19 163.96 69.70 163.78 C 69.37 160.15 71.13 156.93 73.21 154.13 Z" />
<path fill="#373242" opacity="1.00" d=" M 114.77 160.18 C 125.29 163.26 136.72 160.44 145.83 154.73 C 142.76 161.77 135.45 165.73 128.28 167.38 C 119.65 168.81 110.01 166.55 103.80 160.14 C 106.91 160.01 110.01 159.69 113.12 159.79 C 113.53 159.89 114.36 160.08 114.77 160.18 Z" />
<path fill="#9b94a0" opacity="1.00" d=" M 90.10 158.87 C 92.13 160.84 94.29 162.69 96.56 164.39 C 95.44 167.95 94.03 171.44 91.37 174.15 C 90.34 169.12 90.67 163.95 90.10 158.87 Z" />
<path fill="#341022" opacity="1.00" d=" M 100.12 160.60 C 103.50 163.99 107.66 166.29 111.86 168.48 C 109.27 170.68 105.49 168.25 103.08 170.94 C 101.31 169.83 99.35 168.74 98.33 166.82 C 98.67 164.68 99.47 162.66 100.12 160.60 Z" />
<path fill="#fffef0" opacity="1.00" d=" M 57.62 167.47 C 60.95 166.09 64.23 164.56 67.27 162.60 C 66.82 166.74 65.18 170.62 63.67 174.46 C 62.64 176.71 61.78 179.57 59.11 180.34 C 55.07 180.47 52.25 177.02 50.32 173.91 C 52.32 171.35 54.76 169.04 57.62 167.47 Z" />
<path fill="#4e172d" opacity="1.00" d=" M 111.86 168.48 C 112.08 168.36 112.51 168.11 112.73 167.99 C 112.21 170.34 111.61 172.67 110.87 174.97 C 107.97 174.29 105.33 172.89 103.08 170.94 C 105.49 168.25 109.27 170.68 111.86 168.48 Z" />
<path fill="#77203e" opacity="1.00" d=" M 114.16 169.04 C 117.39 169.55 120.62 170.02 123.86 170.42 C 123.62 171.32 123.39 172.23 123.16 173.13 C 119.78 173.40 116.41 173.72 113.05 174.11 C 113.42 172.42 113.79 170.73 114.16 169.04 Z" />
<path fill="#fa4970" opacity="1.00" d=" M 113.05 174.11 C 116.41 173.72 119.78 173.40 123.16 173.13 C 119.53 184.02 110.09 191.92 100.13 196.94 C 105.96 190.32 110.26 182.47 113.05 174.11 Z" />
<path fill="#635c70" opacity="1.00" d=" M 82.79 185.07 C 85.09 181.35 87.70 177.85 90.81 174.76 C 89.86 177.11 88.53 179.28 87.54 181.62 C 90.25 178.94 93.16 176.45 97.12 176.00 C 94.79 181.64 92.32 187.22 89.69 192.73 C 88.00 188.79 83.91 191.06 81.32 192.54 C 81.00 192.11 80.36 191.25 80.04 190.82 C 81.30 187.29 85.56 186.38 86.97 182.93 C 85.56 183.61 84.18 184.34 82.79 185.07 Z" />
<path fill="#b2acb3" opacity="1.00" d=" M 81.32 192.54 C 83.91 191.06 88.00 188.79 89.69 192.73 C 87.98 195.93 86.47 199.27 84.34 202.23 L 84.47 200.76 C 82.45 201.74 80.04 203.91 77.77 202.25 C 75.60 201.13 75.17 198.66 75.61 196.47 C 77.03 194.54 78.73 192.84 80.04 190.82 C 80.36 191.25 81.00 192.11 81.32 192.54 Z" />
<path fill="#d7d4d1" opacity="1.00" d=" M 71.91 199.15 C 73.17 198.29 74.41 197.40 75.61 196.47 C 75.17 198.66 75.60 201.13 77.77 202.25 C 80.04 203.91 82.45 201.74 84.47 200.76 L 84.34 202.23 C 83.79 203.29 83.06 204.24 82.34 205.20 L 82.62 203.82 C 80.12 205.27 77.20 206.65 74.28 205.55 C 72.43 204.03 72.54 201.33 71.93 199.23 L 71.91 199.15 Z" />
<path fill="#fffef0" opacity="1.00" d=" M 65.36 202.92 C 66.93 200.86 69.69 200.29 71.93 199.23 C 72.54 201.33 72.43 204.03 74.28 205.55 C 77.20 206.65 80.12 205.27 82.62 203.82 L 82.34 205.20 C 79.40 209.05 76.25 213.73 70.75 213.50 C 68.24 210.42 66.18 206.84 65.36 202.92 Z" />
<path fill="#000000" opacity="1.00" d=" M 24.25 226.89 C 34.59 224.12 45.40 224.64 55.99 223.83 C 75.01 223.38 94.07 223.55 113.02 225.20 C 116.09 225.78 119.88 225.23 122.21 227.74 C 115.66 229.76 108.74 229.73 101.97 230.33 C 82.34 231.08 62.68 231.11 43.05 230.25 C 37.07 229.60 30.89 229.78 25.13 227.86 L 24.25 226.89 Z" />
</svg>
