<?xml version="1.0" encoding="UTF-8" ?>
<!DOCTYPE svg PUBLIC "-//W3C//DTD SVG 1.1//EN" "http://www.w3.org/Graphics/SVG/1.1/DTD/svg11.dtd">
<svg width="178pt" height="230pt" viewBox="0 0 178 230" version="1.1" xmlns="http://www.w3.org/2000/svg">
<path fill="#0f0b0b" opacity="0.93" d=" M 150.36 0.00 L 151.10 0.00 C 151.51 0.91 151.89 1.83 152.22 2.77 C 152.12 7.92 151.87 13.08 152.24 18.23 C 151.59 24.24 150.87 30.25 150.06 36.24 C 149.63 35.96 148.77 35.39 148.34 35.11 C 150.33 29.57 149.99 23.61 149.91 17.82 C 149.97 17.11 150.09 15.69 150.15 14.98 C 151.06 10.67 151.19 6.25 150.92 1.88 C 150.48 2.07 149.61 2.47 149.17 2.67 C 142.02 6.06 134.66 9.86 130.78 17.11 C 129.58 16.20 128.32 15.34 126.90 14.82 C 127.03 14.46 127.28 13.75 127.41 13.40 C 132.33 14.06 133.31 8.66 137.04 7.04 C 141.02 3.82 146.19 2.88 150.36 0.00 Z" />
<path fill="#8d4253" opacity="1.00" d=" M 149.17 2.67 C 149.61 2.47 150.48 2.07 150.92 1.88 C 151.19 6.25 151.06 10.67 150.15 14.98 C 150.08 11.58 150.17 8.17 149.72 4.79 C 149.58 4.26 149.31 3.20 149.17 2.67 Z" />
<path fill="#efdeb1" opacity="1.00" d=" M 130.78 17.11 C 134.66 9.86 142.02 6.06 149.17 2.67 C 149.31 3.20 149.58 4.26 149.72 4.79 C 147.95 8.94 147.65 14.06 144.13 17.23 C 143.89 16.85 143.41 16.09 143.17 15.71 C 142.63 14.18 142.17 12.63 141.68 11.08 C 137.77 11.95 135.40 16.00 132.06 18.03 C 131.74 17.80 131.10 17.34 130.78 17.11 Z" />
<path fill="#000000" opacity="0.76" d=" M 152.22 2.77 C 153.62 7.80 153.02 13.15 152.24 18.23 C 151.87 13.08 152.12 7.92 152.22 2.77 Z" />
<path fill="#bb5771" opacity="1.00" d=" M 144.13 17.23 C 147.65 14.06 147.95 8.94 149.72 4.79 C 150.17 8.17 150.08 11.58 150.15 14.98 C 148.39 16.38 145.81 21.27 144.13 17.23 Z" />
<path fill="#190e0f" opacity="0.92" d=" M 111.62 12.57 C 107.78 5.08 111.82 8.54 113.83 9.59 C 113.14 12.30 112.89 15.00 114.79 17.15 C 114.34 18.72 114.11 20.34 113.94 21.96 C 112.94 22.86 111.89 23.69 110.96 24.65 C 109.82 25.77 109.29 27.35 108.66 28.77 C 106.58 32.67 109.23 36.30 112.20 38.43 C 111.14 38.77 110.06 39.01 108.95 39.15 C 107.28 37.86 105.38 39.31 103.66 39.65 L 103.82 38.74 C 104.69 37.90 106.70 37.64 106.68 36.22 C 106.76 33.40 106.80 30.57 106.78 27.75 C 109.43 23.18 114.10 18.30 111.62 12.57 Z" />
<path fill="#e8dfb1" opacity="1.00" d=" M 114.79 17.15 C 112.89 15.00 113.14 12.30 113.83 9.59 C 114.69 10.98 115.78 12.20 117.09 13.18 C 116.85 14.50 116.47 15.78 115.91 17.00 L 114.79 17.15 Z" />
<path fill="#130c0f" opacity="0.93" d=" M 113.83 9.59 C 116.57 10.46 118.65 12.47 121.07 13.87 C 123.13 13.51 125.67 12.36 126.90 14.82 L 127.34 15.68 C 126.56 16.77 125.75 17.83 124.96 18.91 C 122.96 17.36 121.86 19.78 120.67 21.09 C 120.46 20.84 120.04 20.33 119.83 20.08 C 119.91 19.64 120.06 18.76 120.13 18.31 C 121.76 17.69 123.09 16.54 124.16 15.18 C 121.40 16.33 119.06 15.10 117.09 13.18 C 115.78 12.20 114.69 10.98 113.83 9.59 Z" />
<path fill="#b6596f" opacity="1.00" d=" M 132.06 18.03 C 135.40 16.00 137.77 11.95 141.68 11.08 C 142.17 12.63 142.63 14.18 143.17 15.71 C 141.70 15.07 140.70 15.82 139.95 17.07 C 137.22 14.59 134.57 18.71 132.89 20.65 C 128.91 18.53 131.44 24.64 131.22 27.09 C 130.27 28.25 129.15 27.62 128.12 26.98 C 127.82 26.50 127.23 25.55 126.93 25.07 C 126.61 24.76 125.96 24.14 125.63 23.83 L 125.98 23.33 C 129.21 21.71 129.62 18.35 127.34 15.68 L 126.90 14.82 C 128.32 15.34 129.58 16.20 130.78 17.11 C 131.10 17.34 131.74 17.80 132.06 18.03 Z" />
<path fill="#8e3f70" opacity="1.00" d=" M 117.09 13.18 C 119.06 15.10 121.40 16.33 124.16 15.18 C 123.09 16.54 121.76 17.69 120.13 18.31 C 118.73 17.85 117.34 17.37 115.91 17.00 C 116.47 15.78 116.85 14.50 117.09 13.18 Z" />
<path fill="#a13b64" opacity="1.00" d=" M 139.95 17.07 C 140.70 15.82 141.70 15.07 143.17 15.71 C 143.41 16.09 143.89 16.85 144.13 17.23 C 145.81 21.27 148.39 16.38 150.15 14.98 C 150.09 15.69 149.97 17.11 149.91 17.82 C 148.42 19.97 146.95 22.14 145.27 24.15 C 143.56 21.74 141.82 19.36 139.95 17.07 Z" />
<path fill="#efe1b5" opacity="1.00" d=" M 127.34 15.68 C 129.62 18.35 129.21 21.71 125.98 23.33 C 125.70 22.74 125.14 21.55 124.86 20.95 C 124.89 20.44 124.94 19.42 124.96 18.91 C 125.75 17.83 126.56 16.77 127.34 15.68 Z" />
<path fill="#070206" opacity="0.93" d=" M 132.89 20.65 C 134.57 18.71 137.22 14.59 139.95 17.07 C 141.82 19.36 143.56 21.74 145.27 24.15 C 146.80 27.64 147.38 31.44 148.34 35.11 C 148.77 35.39 149.63 35.96 150.06 36.24 C 150.03 37.77 149.72 39.25 148.32 40.07 C 146.30 32.66 144.27 24.92 138.65 19.31 C 137.55 18.25 136.65 19.79 136.12 20.57 C 137.07 21.11 138.02 21.67 138.95 22.25 C 138.81 24.44 137.03 26.02 136.20 27.96 C 138.29 31.25 137.39 35.30 138.09 38.97 C 135.14 35.89 136.53 31.15 133.84 28.10 L 133.75 27.28 C 134.58 25.62 135.73 24.05 136.05 22.18 C 135.02 21.61 133.97 21.10 132.89 20.65 Z" />
<path fill="#9d55c8" opacity="1.00" d=" M 114.79 17.15 L 115.91 17.00 C 117.34 17.37 118.73 17.85 120.13 18.31 C 120.06 18.76 119.91 19.64 119.83 20.08 C 118.17 20.68 116.47 21.15 114.79 21.70 L 113.94 21.96 C 114.11 20.34 114.34 18.72 114.79 17.15 Z" />
<path fill="#c0ac4e" opacity="1.00" d=" M 120.67 21.09 C 121.86 19.78 122.96 17.36 124.96 18.91 C 124.94 19.42 124.89 20.44 124.86 20.95 C 123.39 22.33 121.71 23.68 120.67 21.09 Z" />
<path fill="#891d71" opacity="1.00" d=" M 145.27 24.15 C 146.95 22.14 148.42 19.97 149.91 17.82 C 149.99 23.61 150.33 29.57 148.34 35.11 C 147.38 31.44 146.80 27.64 145.27 24.15 Z" />
<path fill="#672932" opacity="1.00" d=" M 114.79 21.70 C 116.47 21.15 118.17 20.68 119.83 20.08 C 120.04 20.33 120.46 20.84 120.67 21.09 C 121.71 23.68 123.39 22.33 124.86 20.95 C 125.14 21.55 125.70 22.74 125.98 23.33 L 125.63 23.83 C 124.83 24.85 124.17 25.98 123.70 27.19 C 123.45 26.82 122.94 26.09 122.69 25.72 C 122.22 24.95 121.67 24.26 121.03 23.64 C 119.36 22.09 116.94 21.96 114.79 21.70 Z" />
<path fill="#170912" opacity="1.00" d=" M 131.22 27.09 C 131.44 24.64 128.91 18.53 132.89 20.65 C 133.48 22.82 133.51 25.06 133.75 27.28 L 133.84 28.10 C 133.46 28.03 132.72 27.90 132.35 27.83 C 132.06 27.65 131.50 27.28 131.22 27.09 Z" />
<path fill="#7b2c6f" opacity="1.00" d=" M 132.89 20.65 C 133.97 21.10 135.02 21.61 136.05 22.18 C 135.73 24.05 134.58 25.62 133.75 27.28 C 133.51 25.06 133.48 22.82 132.89 20.65 Z" />
<path fill="#f04043" opacity="1.00" d=" M 113.94 21.96 L 114.79 21.70 C 116.94 21.96 119.36 22.09 121.03 23.64 C 119.74 25.88 119.42 29.42 116.10 29.20 C 111.95 30.15 113.14 35.18 112.20 38.43 C 109.23 36.30 106.58 32.67 108.66 28.77 C 110.75 31.18 114.16 28.90 114.01 26.16 C 113.03 25.59 112.01 25.08 110.96 24.65 C 111.89 23.69 112.94 22.86 113.94 21.96 Z" />
<path fill="#a0165d" opacity="1.00" d=" M 116.10 29.20 C 119.42 29.42 119.74 25.88 121.03 23.64 C 121.67 24.26 122.22 24.95 122.69 25.72 C 121.89 28.43 124.18 31.78 122.12 34.03 C 118.71 35.26 115.64 37.27 112.20 38.43 C 113.14 35.18 111.95 30.15 116.10 29.20 Z" />
<path fill="#ccab3b" opacity="1.00" d=" M 123.70 27.19 C 124.17 25.98 124.83 24.85 125.63 23.83 C 125.96 24.14 126.61 24.76 126.93 25.07 C 126.94 25.59 126.96 26.64 126.96 27.17 C 125.88 27.39 124.78 27.37 123.70 27.19 Z" />
<path fill="#f9e2ae" opacity="1.00" d=" M 108.66 28.77 C 109.29 27.35 109.82 25.77 110.96 24.65 C 112.01 25.08 113.03 25.59 114.01 26.16 C 114.16 28.90 110.75 31.18 108.66 28.77 Z" />
<path fill="#381829" opacity="1.00" d=" M 126.93 25.07 C 127.23 25.55 127.82 26.50 128.12 26.98 C 128.23 28.51 128.46 31.57 128.58 33.10 C 128.72 33.50 129.01 34.32 129.15 34.72 C 134.83 32.02 133.72 36.30 134.13 38.79 L 133.08 38.74 C 133.05 38.29 132.97 37.37 132.93 36.92 L 132.85 36.03 C 131.39 36.23 128.47 36.64 127.01 36.85 C 126.96 36.08 126.84 34.55 126.78 33.79 C 124.93 35.47 124.87 38.90 122.00 39.32 C 121.68 38.99 121.05 38.33 120.73 38.00 C 122.30 36.28 124.25 34.64 124.16 32.09 C 127.77 34.76 126.58 29.40 126.96 27.17 C 126.96 26.64 126.94 25.59 126.93 25.07 Z" />
<path fill="#be2cad" opacity="1.00" d=" M 122.12 34.03 C 124.18 31.78 121.89 28.43 122.69 25.72 C 122.94 26.09 123.45 26.82 123.70 27.19 C 123.90 28.82 124.03 30.46 124.16 32.09 C 124.25 34.64 122.30 36.28 120.73 38.00 C 120.28 37.98 119.38 37.95 118.94 37.94 C 119.99 36.63 121.09 35.36 122.12 34.03 Z" />
<path fill="#7c2636" opacity="1.00" d=" M 123.70 27.19 C 124.78 27.37 125.88 27.39 126.96 27.17 C 126.58 29.40 127.77 34.76 124.16 32.09 C 124.03 30.46 123.90 28.82 123.70 27.19 Z" />
<path fill="#973860" opacity="1.00" d=" M 128.12 26.98 C 129.15 27.62 130.27 28.25 131.22 27.09 C 131.50 27.28 132.06 27.65 132.35 27.83 C 133.62 30.59 129.92 31.34 128.58 33.10 C 128.46 31.57 128.23 28.51 128.12 26.98 Z" />
<path fill="#000000" opacity="0.57" d=" M 106.68 36.22 C 105.72 33.51 105.67 30.45 106.78 27.75 C 106.80 30.57 106.76 33.40 106.68 36.22 Z" />
<path fill="#6e1256" opacity="1.00" d=" M 132.35 27.83 C 132.72 27.90 133.46 28.03 133.84 28.10 C 136.53 31.15 135.14 35.89 138.09 38.97 C 138.05 40.37 137.97 41.77 137.87 43.17 C 136.51 41.81 135.37 40.25 134.13 38.79 C 133.72 36.30 134.83 32.02 129.15 34.72 C 129.01 34.32 128.72 33.50 128.58 33.10 C 129.92 31.34 133.62 30.59 132.35 27.83 Z" />
<path fill="#741e3e" opacity="1.00" d=" M 112.20 38.43 C 115.64 37.27 118.71 35.26 122.12 34.03 C 121.09 35.36 119.99 36.63 118.94 37.94 C 118.04 38.88 117.21 39.90 116.91 41.20 C 115.90 39.29 114.13 40.49 113.68 42.09 C 112.87 41.62 112.05 41.17 111.23 40.74 C 110.46 40.21 109.70 39.68 108.95 39.15 C 110.06 39.01 111.14 38.77 112.20 38.43 Z" />
<path fill="#b13c48" opacity="1.00" d=" M 122.00 39.32 C 124.87 38.90 124.93 35.47 126.78 33.79 C 126.84 34.55 126.96 36.08 127.01 36.85 L 126.99 37.84 C 126.00 39.24 124.85 40.55 123.34 41.41 L 122.23 40.97 C 122.17 40.56 122.05 39.73 122.00 39.32 Z" />
<path fill="#bb8e14" opacity="1.00" d=" M 127.01 36.85 C 128.47 36.64 131.39 36.23 132.85 36.03 L 132.93 36.92 C 130.88 37.82 128.81 38.70 127.01 40.07 C 127.01 39.52 127.00 38.40 126.99 37.84 L 127.01 36.85 Z" />
<path fill="#a14228" opacity="1.00" d=" M 127.01 40.07 C 128.81 38.70 130.88 37.82 132.93 36.92 C 132.97 37.37 133.05 38.29 133.08 38.74 C 132.07 39.03 131.08 39.41 130.14 39.88 C 129.12 40.38 128.08 40.78 127.00 41.10 L 127.01 40.07 Z" />
<path fill="#dbce54" opacity="1.00" d=" M 103.66 39.65 C 105.38 39.31 107.28 37.86 108.95 39.15 C 109.70 39.68 110.46 40.21 111.23 40.74 C 108.16 41.36 105.06 41.79 101.94 42.03 C 102.49 41.22 103.06 40.43 103.66 39.65 Z" />
<path fill="#421985" opacity="1.00" d=" M 118.94 37.94 C 119.38 37.95 120.28 37.98 120.73 38.00 C 121.05 38.33 121.68 38.99 122.00 39.32 C 122.05 39.73 122.17 40.56 122.23 40.97 C 121.62 41.23 120.38 41.76 119.76 42.02 C 118.89 42.34 117.97 42.35 117.06 42.28 L 116.91 41.20 C 117.21 39.90 118.04 38.88 118.94 37.94 Z" />
<path fill="#703144" opacity="1.00" d=" M 123.34 41.41 C 124.85 40.55 126.00 39.24 126.99 37.84 C 127.00 38.40 127.01 39.52 127.01 40.07 L 127.00 41.10 C 121.77 41.64 125.40 47.81 125.10 51.00 C 127.65 51.29 126.82 47.72 129.01 47.00 C 129.38 46.38 132.27 45.14 130.01 45.02 C 127.76 44.91 130.65 43.44 130.97 42.75 C 131.45 42.87 132.39 43.10 132.86 43.22 C 132.97 44.77 133.05 46.31 133.12 47.86 C 132.85 48.44 132.29 49.60 132.01 50.17 C 131.48 50.38 130.42 50.79 129.89 51.00 C 127.83 52.76 130.74 56.46 131.13 58.88 C 130.62 58.67 129.59 58.26 129.08 58.05 C 128.51 56.99 127.94 55.93 127.32 54.90 C 127.01 56.35 126.75 57.80 126.33 59.22 C 125.92 57.56 126.62 54.77 124.13 54.79 C 123.79 53.51 123.45 52.22 123.27 50.90 C 123.30 50.17 124.71 48.53 123.37 48.44 C 120.26 48.00 118.68 45.20 116.75 43.08 L 117.06 42.28 C 117.97 42.35 118.89 42.34 119.76 42.02 C 119.87 42.80 120.08 44.37 120.19 45.15 C 121.50 44.14 122.49 42.81 123.34 41.41 Z" />
<path fill="#0b0703" opacity="0.93" d=" M 100.29 43.79 C 97.20 42.26 102.17 39.60 103.82 38.74 L 103.66 39.65 C 103.06 40.43 102.49 41.22 101.94 42.03 C 105.06 41.79 108.16 41.36 111.23 40.74 C 112.05 41.17 112.87 41.62 113.68 42.09 C 114.54 42.87 115.56 43.20 116.75 43.08 C 118.68 45.20 120.26 48.00 123.37 48.44 C 124.71 48.53 123.30 50.17 123.27 50.90 C 122.06 50.28 120.79 49.79 119.59 49.17 C 117.69 46.01 114.10 44.66 110.92 43.20 C 107.41 43.78 103.88 44.56 100.29 43.79 Z" />
<path fill="#742c73" opacity="1.00" d=" M 130.14 39.88 C 131.08 39.41 132.07 39.03 133.08 38.74 L 134.13 38.79 C 134.29 40.76 136.50 45.16 132.86 43.22 C 132.39 43.10 131.45 42.87 130.97 42.75 C 132.16 41.51 131.49 40.57 130.14 39.88 Z" />
<path fill="#0b030c" opacity="0.93" d=" M 134.13 38.79 C 135.37 40.25 136.51 41.81 137.87 43.17 C 137.97 41.77 138.05 40.37 138.09 38.97 C 138.26 39.30 138.61 39.96 138.79 40.29 C 142.36 46.90 138.24 44.59 135.92 44.28 C 136.13 45.45 136.43 46.61 136.68 47.77 C 135.49 47.75 134.30 47.68 133.12 47.86 C 133.05 46.31 132.97 44.77 132.86 43.22 C 136.50 45.16 134.29 40.76 134.13 38.79 Z" />
<path fill="#be5c1b" opacity="1.00" d=" M 113.68 42.09 C 114.13 40.49 115.90 39.29 116.91 41.20 L 117.06 42.28 L 116.75 43.08 C 115.56 43.20 114.54 42.87 113.68 42.09 Z" />
<path fill="#caa38f" opacity="1.00" d=" M 130.14 39.88 C 131.49 40.57 132.16 41.51 130.97 42.75 C 130.65 43.44 127.76 44.91 130.01 45.02 C 132.27 45.14 129.38 46.38 129.01 47.00 C 126.82 47.72 127.65 51.29 125.10 51.00 C 125.40 47.81 121.77 41.64 127.00 41.10 C 128.08 40.78 129.12 40.38 130.14 39.88 Z" />
<path fill="#cbb290" opacity="1.00" d=" M 119.76 42.02 C 120.38 41.76 121.62 41.23 122.23 40.97 L 123.34 41.41 C 122.49 42.81 121.50 44.14 120.19 45.15 C 120.08 44.37 119.87 42.80 119.76 42.02 Z" />
<path fill="#050204" opacity="0.89" d=" M 129.89 51.00 C 130.42 50.79 131.48 50.38 132.01 50.17 C 133.09 57.62 137.56 64.09 138.48 71.61 C 141.00 82.82 147.26 92.68 150.28 103.71 L 149.19 103.91 C 147.12 99.93 145.63 95.67 143.41 91.79 C 143.32 91.36 143.14 90.50 143.05 90.08 C 141.88 84.76 139.85 79.60 137.31 74.78 C 137.26 74.35 137.14 73.50 137.08 73.07 C 136.97 69.52 135.31 66.31 134.41 62.94 C 133.00 58.92 131.44 54.96 129.89 51.00 Z" />
<path fill="#1e1214" opacity="0.90" d=" M 113.37 65.90 C 114.71 60.05 118.61 54.50 123.27 50.90 C 123.45 52.22 123.79 53.51 124.13 54.79 C 124.00 56.60 124.04 58.49 123.21 60.15 C 123.12 58.71 123.00 57.27 122.87 55.84 C 121.91 57.19 121.05 58.61 120.13 59.98 C 120.06 59.19 119.91 57.61 119.83 56.82 C 117.01 59.63 115.84 63.70 114.16 67.26 C 113.96 66.92 113.57 66.24 113.37 65.90 Z" />
<path fill="#7c2980" opacity="1.00" d=" M 131.13 58.88 C 130.74 56.46 127.83 52.76 129.89 51.00 C 131.44 54.96 133.00 58.92 134.41 62.94 C 133.28 64.50 132.64 62.77 131.90 61.87 C 131.86 60.82 131.61 59.82 131.13 58.88 Z" />
<path fill="#09030f" opacity="0.90" d=" M 63.97 71.96 C 76.77 63.78 90.05 55.10 105.11 51.95 C 104.78 53.40 104.06 54.72 103.35 56.02 C 103.48 52.50 99.89 55.05 98.05 55.55 C 86.83 60.33 76.02 66.06 65.81 72.73 C 64.38 73.67 62.94 74.64 61.81 75.95 C 63.29 75.82 64.75 75.56 66.22 75.34 C 63.60 80.43 59.36 84.55 57.09 89.84 C 58.35 90.29 59.62 90.70 60.91 91.05 L 61.04 91.96 C 59.21 91.76 55.23 91.86 56.08 89.06 C 57.58 85.15 60.14 81.75 62.00 78.01 C 60.67 78.30 59.36 78.69 58.03 78.98 C 59.94 76.62 61.17 73.45 63.97 71.96 Z" />
<path fill="#501d94" opacity="1.00" d=" M 98.05 55.55 C 99.89 55.05 103.48 52.50 103.35 56.02 C 99.13 58.22 97.95 63.51 95.00 66.95 C 88.88 72.43 98.10 69.43 100.91 70.00 L 101.40 70.74 C 95.16 69.89 89.48 72.33 83.74 74.20 C 88.90 68.60 94.27 63.13 98.54 56.79 C 98.42 56.48 98.17 55.86 98.05 55.55 Z" />
<path fill="#cc9d8d" opacity="1.00" d=" M 124.13 54.79 C 126.62 54.77 125.92 57.56 126.33 59.22 C 124.65 64.44 123.37 69.79 122.02 75.09 C 120.72 74.65 119.01 74.67 118.60 73.04 C 119.38 72.34 120.16 71.64 120.94 70.95 C 123.31 68.33 122.09 64.00 122.92 60.88 L 123.21 60.15 C 124.04 58.49 124.00 56.60 124.13 54.79 Z" />
<path fill="#11090c" opacity="0.91" d=" M 127.32 54.90 C 127.94 55.93 128.51 56.99 129.08 58.05 C 129.07 59.62 129.64 61.39 131.10 62.19 C 131.08 64.96 131.01 67.82 132.69 70.14 C 133.63 72.28 134.82 74.29 136.18 76.18 C 136.01 77.53 135.85 78.88 135.69 80.23 C 134.16 76.28 132.02 72.58 130.56 68.60 C 129.99 67.24 130.73 61.07 127.19 62.07 C 126.24 66.29 123.65 70.43 124.77 74.87 C 123.47 76.37 122.15 77.82 122.06 79.93 L 121.22 80.33 C 121.08 78.53 121.15 76.71 122.02 75.09 C 123.37 69.79 124.65 64.44 126.33 59.22 C 126.75 57.80 127.01 56.35 127.32 54.90 Z" />
<path fill="#9b2bcf" opacity="1.00" d=" M 65.81 72.73 C 76.02 66.06 86.83 60.33 98.05 55.55 C 98.17 55.86 98.42 56.48 98.54 56.79 C 94.27 63.13 88.90 68.60 83.74 74.20 C 77.91 75.83 71.80 72.36 65.81 72.73 Z" />
<path fill="#0a0311" opacity="0.95" d=" M 95.00 66.95 C 97.95 63.51 99.13 58.22 103.35 56.02 C 101.55 59.97 99.38 63.76 96.65 67.15 C 93.44 71.02 101.69 68.46 104.02 69.04 C 106.52 68.23 111.64 70.44 112.96 67.93 C 113.06 67.43 113.27 66.41 113.37 65.90 C 113.57 66.24 113.96 66.92 114.16 67.26 C 114.18 67.88 114.23 69.10 114.25 69.71 C 113.76 69.84 112.78 70.09 112.29 70.21 C 108.49 70.11 104.71 69.97 100.91 70.00 C 98.10 69.43 88.88 72.43 95.00 66.95 Z" />
<path fill="#000000" opacity="0.16" d=" M 120.13 59.98 C 121.05 58.61 121.91 57.19 122.87 55.84 C 123.00 57.27 123.12 58.71 123.21 60.15 L 122.92 60.88 C 121.77 63.41 121.03 66.14 120.92 68.92 C 119.95 69.67 118.99 70.42 117.98 71.10 C 118.01 67.26 119.33 63.68 120.13 59.98 Z" />
<path fill="#bdb198" opacity="1.00" d=" M 114.16 67.26 C 115.84 63.70 117.01 59.63 119.83 56.82 C 119.91 57.61 120.06 59.19 120.13 59.98 C 117.10 63.48 114.83 68.58 117.11 73.06 C 116.84 73.35 116.31 73.94 116.04 74.23 C 115.47 73.45 114.90 72.67 114.35 71.88 C 114.34 71.16 114.31 70.43 114.25 69.71 C 114.23 69.10 114.18 67.88 114.16 67.26 Z" />
<path fill="#8d5e51" opacity="1.00" d=" M 129.08 58.05 C 129.59 58.26 130.62 58.67 131.13 58.88 C 131.61 59.82 131.86 60.82 131.90 61.87 L 131.10 62.19 C 129.64 61.39 129.07 59.62 129.08 58.05 Z" />
<path fill="#0c0907" opacity="0.91" d=" M 117.11 73.06 C 114.83 68.58 117.10 63.48 120.13 59.98 C 119.33 63.68 118.01 67.26 117.98 71.10 C 118.99 70.42 119.95 69.67 120.92 68.92 C 120.92 69.43 120.93 70.44 120.94 70.95 C 120.16 71.64 119.38 72.34 118.60 73.04 C 118.23 73.04 117.48 73.05 117.11 73.06 Z" />
<path fill="#28241c" opacity="0.93" d=" M 120.92 68.92 C 121.03 66.14 121.77 63.41 122.92 60.88 C 122.09 64.00 123.31 68.33 120.94 70.95 C 120.93 70.44 120.92 69.43 120.92 68.92 Z" />
<path fill="#3e1632" opacity="1.00" d=" M 131.10 62.19 L 131.90 61.87 C 132.64 62.77 133.28 64.50 134.41 62.94 C 135.31 66.31 136.97 69.52 137.08 73.07 C 135.65 72.04 134.21 71.03 132.69 70.14 C 131.01 67.82 131.08 64.96 131.10 62.19 Z" />
<path fill="#000000" opacity="0.45" d=" M 104.02 69.04 C 101.69 68.46 93.44 71.02 96.65 67.15 C 98.99 67.96 101.43 68.26 103.98 68.05 L 104.02 69.04 Z" />
<path fill="#000000" opacity="0.73" d=" M 103.98 68.05 C 106.97 68.01 109.96 67.98 112.96 67.93 C 111.64 70.44 106.52 68.23 104.02 69.04 L 103.98 68.05 Z" />
<path fill="#8223c3" opacity="1.00" d=" M 100.91 70.00 C 104.71 69.97 108.49 70.11 112.29 70.21 C 105.78 73.28 99.70 77.58 92.67 79.40 L 91.60 79.15 L 92.25 78.41 C 95.88 76.76 99.03 74.16 101.83 71.36 L 101.40 70.74 L 100.91 70.00 Z" />
<path fill="#441890" opacity="1.00" d=" M 112.29 70.21 C 112.78 70.09 113.76 69.84 114.25 69.71 C 114.31 70.43 114.34 71.16 114.35 71.88 C 114.12 72.14 113.67 72.67 113.44 72.93 C 111.37 71.31 108.70 76.35 109.72 78.26 C 107.69 81.09 105.66 84.00 102.98 86.27 C 101.15 87.78 99.31 89.50 96.91 90.01 C 97.00 89.59 97.17 88.74 97.26 88.31 C 98.11 86.72 101.27 84.54 99.21 82.88 C 97.56 80.89 94.90 80.46 92.67 79.40 C 99.70 77.58 105.78 73.28 112.29 70.21 Z" />
<path fill="#8b5a52" opacity="1.00" d=" M 132.69 70.14 C 134.21 71.03 135.65 72.04 137.08 73.07 C 137.14 73.50 137.26 74.35 137.31 74.78 C 137.03 75.13 136.46 75.83 136.18 76.18 C 134.82 74.29 133.63 72.28 132.69 70.14 Z" />
<path fill="#9028cc" opacity="1.00" d=" M 83.74 74.20 C 89.48 72.33 95.16 69.89 101.40 70.74 L 101.83 71.36 C 99.03 74.16 95.88 76.76 92.25 78.41 C 91.75 78.26 90.75 77.98 90.25 77.83 C 88.13 76.58 84.77 76.73 83.74 74.20 Z" />
<path fill="#862db8" opacity="1.00" d=" M 109.72 78.26 C 108.70 76.35 111.37 71.31 113.44 72.93 C 112.20 74.70 110.99 76.50 109.72 78.26 Z" />
<path fill="#100b0e" opacity="1.00" d=" M 114.35 71.88 C 114.90 72.67 115.47 73.45 116.04 74.23 C 116.21 74.69 116.54 75.60 116.71 76.05 C 114.51 77.29 111.29 77.90 111.88 81.15 C 111.74 82.04 111.61 82.92 111.47 83.81 C 109.82 86.28 108.21 88.77 106.51 91.20 C 106.19 89.94 105.42 89.17 104.20 88.89 C 103.76 88.03 103.35 87.16 102.98 86.27 C 105.66 84.00 107.69 81.09 109.72 78.26 C 110.99 76.50 112.20 74.70 113.44 72.93 C 113.67 72.67 114.12 72.14 114.35 71.88 M 108.29 83.22 C 107.19 83.94 105.34 85.27 106.26 86.78 C 107.93 87.94 110.03 83.70 108.29 83.22 Z" />
<path fill="#49199c" opacity="1.00" d=" M 61.81 75.95 C 62.94 74.64 64.38 73.67 65.81 72.73 C 71.80 72.36 77.91 75.83 83.74 74.20 C 84.77 76.73 88.13 76.58 90.25 77.83 C 85.73 77.93 81.37 76.87 77.01 75.87 C 75.10 75.48 73.17 74.82 71.19 75.10 C 68.98 77.43 67.72 80.47 66.33 83.32 C 64.62 86.61 70.42 87.83 69.84 90.77 C 67.56 92.94 63.86 90.88 60.91 91.05 C 59.62 90.70 58.35 90.29 57.09 89.84 C 59.36 84.55 63.60 80.43 66.22 75.34 C 64.75 75.56 63.29 75.82 61.81 75.95 Z" />
<path fill="#852964" opacity="1.00" d=" M 117.11 73.06 C 117.48 73.05 118.23 73.04 118.60 73.04 C 119.01 74.67 120.72 74.65 122.02 75.09 C 121.15 76.71 121.08 78.53 121.22 80.33 C 119.90 81.34 118.48 82.22 117.06 83.08 C 117.00 82.33 116.89 80.81 116.83 80.06 C 116.72 78.72 116.75 77.39 116.71 76.05 C 116.54 75.60 116.21 74.69 116.04 74.23 C 116.31 73.94 116.84 73.35 117.11 73.06 Z" />
<path fill="#0a040f" opacity="0.95" d=" M 71.19 75.10 C 73.17 74.82 75.10 75.48 77.01 75.87 L 76.91 76.74 C 74.78 77.14 73.71 79.08 72.96 80.92 C 71.90 82.75 71.86 84.89 71.98 86.94 C 72.26 91.01 74.23 94.75 74.34 98.80 C 75.08 98.92 76.56 99.18 77.30 99.31 L 76.84 100.03 C 74.27 100.64 72.30 98.63 69.88 98.74 C 70.14 96.78 70.59 94.86 70.92 92.91 C 68.68 92.74 68.41 95.29 67.57 96.80 C 65.39 100.38 68.68 101.94 71.84 102.20 C 67.73 104.47 72.71 107.03 75.23 107.76 C 70.90 107.67 66.77 109.02 62.82 110.62 C 58.60 111.14 60.83 115.40 62.86 117.26 C 64.02 118.96 66.01 121.28 62.79 121.85 C 59.76 121.65 61.03 125.48 62.96 126.20 C 64.74 127.93 63.23 129.50 61.57 130.49 C 62.05 133.64 59.04 135.30 56.92 136.97 C 51.60 141.07 46.42 145.72 40.03 148.10 C 46.79 141.24 57.12 137.50 60.83 128.02 C 58.86 125.58 57.86 121.62 61.77 120.56 C 61.13 117.27 58.67 114.58 58.11 111.28 C 61.55 109.58 65.25 108.51 68.67 106.80 C 68.56 103.75 67.31 101.35 64.18 100.64 C 64.61 98.00 66.18 95.69 66.84 93.10 C 65.37 91.47 62.96 92.28 61.04 91.96 L 60.91 91.05 C 63.86 90.88 67.56 92.94 69.84 90.77 C 70.42 87.83 64.62 86.61 66.33 83.32 C 67.72 80.47 68.98 77.43 71.19 75.10 Z" />
<path fill="#3b2128" opacity="0.97" d=" M 137.31 74.78 C 139.85 79.60 141.88 84.76 143.05 90.08 C 142.12 88.97 141.20 87.86 140.16 86.86 C 140.38 88.62 140.66 90.37 140.81 92.14 C 138.50 88.46 136.99 84.36 135.69 80.23 C 135.85 78.88 136.01 77.53 136.18 76.18 C 136.46 75.83 137.03 75.13 137.31 74.78 Z" />
<path fill="#2f0b38" opacity="1.00" d=" M 77.01 75.87 C 81.37 76.87 85.73 77.93 90.25 77.83 C 90.75 77.98 91.75 78.26 92.25 78.41 L 91.60 79.15 C 86.55 79.57 81.61 78.47 76.91 76.74 L 77.01 75.87 Z" />
<path fill="#d7c19c" opacity="1.00" d=" M 111.88 81.15 C 111.29 77.90 114.51 77.29 116.71 76.05 C 116.75 77.39 116.72 78.72 116.83 80.06 C 115.28 80.89 113.67 82.04 111.88 81.15 Z" />
<path fill="#5d1346" opacity="1.00" d=" M 72.96 80.92 C 73.71 79.08 74.78 77.14 76.91 76.74 C 81.61 78.47 86.55 79.57 91.60 79.15 C 92.84 82.11 96.52 82.18 99.21 82.88 C 101.27 84.54 98.11 86.72 97.26 88.31 C 96.92 87.98 96.24 87.33 95.90 87.00 C 95.48 86.68 94.66 86.03 94.25 85.71 C 94.35 85.33 94.56 84.58 94.66 84.20 C 88.71 80.72 81.33 79.97 74.92 82.62 C 74.11 82.30 73.46 81.73 72.96 80.92 Z" />
<path fill="#330c47" opacity="1.00" d=" M 91.60 79.15 L 92.67 79.40 C 94.90 80.46 97.56 80.89 99.21 82.88 C 96.52 82.18 92.84 82.11 91.60 79.15 Z" />
<path fill="#b7556c" opacity="1.00" d=" M 111.88 81.15 C 113.67 82.04 115.28 80.89 116.83 80.06 C 116.89 80.81 117.00 82.33 117.06 83.08 C 116.26 84.32 115.50 85.58 114.88 86.92 C 111.74 91.02 109.04 95.45 106.61 100.00 C 106.10 100.97 105.67 101.98 105.19 102.96 C 104.31 106.36 100.19 108.97 97.85 105.28 C 99.29 105.36 100.42 104.95 101.23 104.06 C 102.03 102.71 102.83 101.35 103.94 100.24 C 107.15 95.35 112.34 90.08 111.47 83.81 C 111.61 82.92 111.74 82.04 111.88 81.15 Z" />
<path fill="#12050d" opacity="0.84" d=" M 121.22 80.33 L 122.06 79.93 C 121.42 83.41 117.24 84.63 114.88 86.92 C 115.50 85.58 116.26 84.32 117.06 83.08 C 118.48 82.22 119.90 81.34 121.22 80.33 Z" />
<path fill="#b15573" opacity="1.00" d=" M 72.96 80.92 C 73.46 81.73 74.11 82.30 74.92 82.62 C 79.80 83.87 84.87 83.78 89.87 84.12 L 89.97 85.04 C 88.58 85.03 87.20 85.03 85.81 85.04 C 81.08 84.45 76.38 85.24 71.98 86.94 C 71.86 84.89 71.90 82.75 72.96 80.92 Z" />
<path fill="#8e3554" opacity="1.00" d=" M 74.92 82.62 C 81.33 79.97 88.71 80.72 94.66 84.20 C 94.56 84.58 94.35 85.33 94.25 85.71 C 92.90 86.49 91.53 87.27 90.20 88.09 C 90.14 87.33 90.03 85.80 89.97 85.04 L 89.87 84.12 C 84.87 83.78 79.80 83.87 74.92 82.62 Z" />
<path fill="#000000" opacity="0.40" d=" M 108.29 83.22 C 110.03 83.70 107.93 87.94 106.26 86.78 C 105.34 85.27 107.19 83.94 108.29 83.22 Z" />
<path fill="#e7d1ad" opacity="1.00" d=" M 111.47 83.81 C 112.34 90.08 107.15 95.35 103.94 100.24 C 102.66 99.99 101.89 99.22 101.63 97.92 C 102.52 96.67 103.36 95.39 104.24 94.14 C 105.06 93.21 105.82 92.23 106.51 91.20 C 108.21 88.77 109.82 86.28 111.47 83.81 Z" />
<path fill="#e1d0aa" opacity="1.00" d=" M 71.98 86.94 C 76.38 85.24 81.08 84.45 85.81 85.04 C 86.76 86.41 87.77 87.73 88.94 88.92 C 87.72 89.86 86.57 90.88 85.56 92.04 C 84.22 93.61 87.43 95.13 86.17 96.99 C 84.70 97.34 83.26 97.77 81.80 98.13 C 80.28 98.46 78.79 98.89 77.30 99.31 C 76.56 99.18 75.08 98.92 74.34 98.80 C 74.23 94.75 72.26 91.01 71.98 86.94 Z" />
<path fill="#d1b090" opacity="1.00" d=" M 85.81 85.04 C 87.20 85.03 88.58 85.03 89.97 85.04 C 90.03 85.80 90.14 87.33 90.20 88.09 C 89.88 88.30 89.25 88.72 88.94 88.92 C 87.77 87.73 86.76 86.41 85.81 85.04 Z" />
<path fill="#11090b" opacity="1.00" d=" M 90.20 88.09 C 91.53 87.27 92.90 86.49 94.25 85.71 C 94.66 86.03 95.48 86.68 95.90 87.00 C 94.32 89.03 92.60 90.95 90.88 92.86 C 90.37 92.93 89.36 93.07 88.86 93.14 C 87.74 92.83 86.64 92.46 85.56 92.04 C 86.57 90.88 87.72 89.86 88.94 88.92 C 89.25 88.72 89.88 88.30 90.20 88.09 Z" />
<path fill="#6821b1" opacity="1.00" d=" M 96.91 90.01 C 99.31 89.50 101.15 87.78 102.98 86.27 C 103.35 87.16 103.76 88.03 104.20 88.89 C 102.03 90.64 100.02 92.70 97.41 93.78 C 96.98 91.29 95.07 93.70 93.56 93.16 C 94.61 92.05 95.71 90.97 96.91 90.01 Z" />
<path fill="#471736" opacity="1.00" d=" M 90.88 92.86 C 92.60 90.95 94.32 89.03 95.90 87.00 C 96.24 87.33 96.92 87.98 97.26 88.31 C 97.17 88.74 97.00 89.59 96.91 90.01 C 95.71 90.97 94.61 92.05 93.56 93.16 C 93.26 93.41 92.66 93.90 92.36 94.15 C 91.99 93.82 91.25 93.18 90.88 92.86 Z" />
<path fill="#0e0609" opacity="0.84" d=" M 106.61 100.00 C 109.04 95.45 111.74 91.02 114.88 86.92 C 114.20 92.06 109.24 95.65 109.23 100.88 C 108.57 100.66 107.26 100.22 106.61 100.00 Z" />
<path fill="#875851" opacity="1.00" d=" M 140.16 86.86 C 141.20 87.86 142.12 88.97 143.05 90.08 C 143.14 90.50 143.32 91.36 143.41 91.79 C 143.54 94.75 142.15 93.51 140.81 92.14 C 140.66 90.37 140.38 88.62 140.16 86.86 Z" />
<path fill="#41198e" opacity="1.00" d=" M 104.20 88.89 C 105.42 89.17 106.19 89.94 106.51 91.20 C 105.82 92.23 105.06 93.21 104.24 94.14 C 99.85 93.08 96.87 96.64 93.97 99.24 C 92.00 99.87 90.02 100.51 88.01 100.99 C 88.56 99.40 89.03 97.74 86.97 97.22 C 88.03 96.86 89.07 96.43 90.08 95.93 C 90.90 95.43 91.66 94.83 92.36 94.15 C 92.66 93.90 93.26 93.41 93.56 93.16 C 95.07 93.70 96.98 91.29 97.41 93.78 C 100.02 92.70 102.03 90.64 104.20 88.89 Z" />
<path fill="#aa6f6b" opacity="1.00" d=" M 86.17 96.99 C 87.43 95.13 84.22 93.61 85.56 92.04 C 86.64 92.46 87.74 92.83 88.86 93.14 C 87.96 94.50 88.83 95.31 90.08 95.93 C 89.07 96.43 88.03 96.86 86.97 97.22 L 86.17 96.99 Z" />
<path fill="#462530" opacity="1.00" d=" M 140.81 92.14 C 142.15 93.51 143.54 94.75 143.41 91.79 C 145.63 95.67 147.12 99.93 149.19 103.91 C 150.06 107.30 151.24 110.60 152.01 114.02 L 151.02 113.97 C 150.82 113.67 150.43 113.07 150.23 112.77 C 147.42 106.92 145.89 100.17 141.80 95.06 C 141.44 94.09 141.11 93.12 140.81 92.14 Z" />
<path fill="#7e24c4" opacity="1.00" d=" M 67.57 96.80 C 68.41 95.29 68.68 92.74 70.92 92.91 C 70.59 94.86 70.14 96.78 69.88 98.74 C 68.36 99.09 67.59 98.45 67.57 96.80 Z" />
<path fill="#813a50" opacity="1.00" d=" M 88.86 93.14 C 89.36 93.07 90.37 92.93 90.88 92.86 C 91.25 93.18 91.99 93.82 92.36 94.15 C 91.66 94.83 90.90 95.43 90.08 95.93 C 88.83 95.31 87.96 94.50 88.86 93.14 Z" />
<path fill="#351a61" opacity="1.00" d=" M 93.97 99.24 C 96.87 96.64 99.85 93.08 104.24 94.14 C 103.36 95.39 102.52 96.67 101.63 97.92 C 101.13 98.48 100.64 99.05 100.15 99.61 C 99.08 100.43 98.01 101.24 96.91 102.02 L 96.87 100.90 C 98.30 99.26 99.84 97.70 101.09 95.90 C 98.44 96.18 97.02 98.71 95.15 100.29 C 94.86 100.03 94.26 99.50 93.97 99.24 Z" />
<path fill="#050207" opacity="0.92" d=" M 141.80 95.06 C 145.89 100.17 147.42 106.92 150.23 112.77 C 144.47 112.97 138.72 113.03 132.97 113.04 C 131.20 113.10 127.67 113.22 125.90 113.28 C 120.46 112.66 114.98 111.83 109.90 109.71 C 106.23 108.05 109.32 103.76 109.23 100.88 C 110.41 103.38 108.77 107.03 111.32 108.72 C 115.93 110.45 120.95 110.50 125.77 111.25 C 132.53 112.32 139.42 112.12 146.24 111.83 C 146.70 111.82 147.63 111.81 148.09 111.81 C 147.06 105.90 142.92 100.99 141.80 95.06 Z" />
<path fill="#8224c7" opacity="1.00" d=" M 95.15 100.29 C 97.02 98.71 98.44 96.18 101.09 95.90 C 99.84 97.70 98.30 99.26 96.87 100.90 C 95.09 102.40 93.41 104.03 91.96 105.85 C 88.47 108.12 85.44 111.40 81.25 112.34 C 81.86 110.91 82.53 109.50 82.91 107.98 L 83.11 107.33 C 87.81 106.42 92.24 104.24 95.15 100.29 Z" />
<path fill="#501c91" opacity="1.00" d=" M 71.84 102.20 C 68.68 101.94 65.39 100.38 67.57 96.80 C 67.59 98.45 68.36 99.09 69.88 98.74 C 72.30 98.63 74.27 100.64 76.84 100.03 C 75.97 101.36 73.90 100.92 72.67 101.86 C 76.85 101.86 80.91 100.88 84.93 99.85 C 84.50 98.60 82.78 98.76 81.80 98.13 C 83.26 97.77 84.70 97.34 86.17 96.99 L 86.97 97.22 C 89.03 97.74 88.56 99.40 88.01 100.99 C 83.69 103.00 77.23 101.32 73.81 104.04 C 79.75 104.75 85.38 102.63 91.20 102.07 C 88.58 104.20 85.25 105.04 82.14 106.17 C 82.38 106.46 82.87 107.04 83.11 107.33 L 82.91 107.98 C 77.13 109.06 71.67 111.46 65.86 112.47 C 64.75 112.05 63.87 111.18 62.82 110.62 C 66.77 109.02 70.90 107.67 75.23 107.76 C 72.71 107.03 67.73 104.47 71.84 102.20 Z" />
<path fill="#822da9" opacity="1.00" d=" M 77.30 99.31 C 78.79 98.89 80.28 98.46 81.80 98.13 C 82.78 98.76 84.50 98.60 84.93 99.85 C 80.91 100.88 76.85 101.86 72.67 101.86 C 73.90 100.92 75.97 101.36 76.84 100.03 L 77.30 99.31 Z" />
<path fill="#dcb195" opacity="1.00" d=" M 100.15 99.61 C 100.64 99.05 101.13 98.48 101.63 97.92 C 101.89 99.22 102.66 99.99 103.94 100.24 C 102.83 101.35 102.03 102.71 101.23 104.06 C 101.01 102.54 100.72 101.03 100.15 99.61 Z" />
<path fill="#381477" opacity="1.00" d=" M 88.01 100.99 C 90.02 100.51 92.00 99.87 93.97 99.24 C 94.26 99.50 94.86 100.03 95.15 100.29 C 92.24 104.24 87.81 106.42 83.11 107.33 C 82.87 107.04 82.38 106.46 82.14 106.17 C 85.25 105.04 88.58 104.20 91.20 102.07 C 85.38 102.63 79.75 104.75 73.81 104.04 C 77.23 101.32 83.69 103.00 88.01 100.99 Z" />
<path fill="#eee6b0" opacity="1.00" d=" M 96.91 102.02 C 98.01 101.24 99.08 100.43 100.15 99.61 C 100.72 101.03 101.01 102.54 101.23 104.06 C 100.42 104.95 99.29 105.36 97.85 105.28 C 97.56 104.94 96.99 104.26 96.70 103.92 C 96.75 103.44 96.86 102.50 96.91 102.02 Z" />
<path fill="#3c168a" opacity="1.00" d=" M 105.19 102.96 C 105.67 101.98 106.10 100.97 106.61 100.00 C 107.26 100.22 108.57 100.66 109.23 100.88 C 109.32 103.76 106.23 108.05 109.90 109.71 C 109.74 110.00 109.41 110.60 109.24 110.90 C 115.51 116.77 124.96 117.17 132.84 119.38 C 139.57 120.62 146.13 123.21 152.91 123.87 C 153.29 123.66 154.06 123.25 154.44 123.05 C 154.62 123.43 154.98 124.19 155.16 124.57 C 151.28 128.47 147.23 132.54 146.29 138.17 C 145.89 136.54 146.48 134.10 144.40 133.51 C 136.79 129.65 129.34 124.54 120.83 122.98 C 129.01 128.25 136.81 134.18 145.03 139.34 C 141.90 141.70 138.81 144.23 136.62 147.53 C 136.25 147.42 135.50 147.19 135.13 147.08 C 134.75 145.55 133.91 144.20 132.80 143.10 C 130.21 143.02 127.27 145.05 125.03 142.96 C 114.78 134.91 106.62 124.38 100.84 112.72 L 101.31 112.00 C 101.83 111.20 102.35 110.41 102.86 109.61 C 105.49 111.61 107.39 114.32 109.06 117.12 C 111.70 122.19 116.43 125.64 120.23 129.77 C 122.68 131.73 124.41 135.55 128.08 135.07 C 123.84 127.22 116.37 122.11 110.22 115.92 C 108.28 113.68 106.60 111.18 105.64 108.35 C 104.83 108.54 104.03 108.75 103.23 109.00 C 104.17 107.09 106.14 105.23 105.19 102.96 Z" />
<path fill="#3a167d" opacity="1.00" d=" M 91.96 105.85 C 93.41 104.03 95.09 102.40 96.87 100.90 L 96.91 102.02 C 96.86 102.50 96.75 103.44 96.70 103.92 C 95.88 105.31 95.05 106.71 94.14 108.05 C 92.98 110.29 88.82 112.92 91.05 115.38 C 90.92 117.88 89.42 119.92 88.14 121.96 C 87.84 122.41 87.25 123.33 86.95 123.79 C 85.38 125.94 83.59 127.93 82.09 130.14 C 77.95 135.32 72.06 139.06 68.69 144.83 C 67.04 146.56 65.12 148.00 63.03 149.15 C 63.59 142.17 70.26 137.54 71.89 130.78 C 69.53 131.85 67.46 133.62 64.86 134.06 C 66.78 131.14 70.36 130.08 73.00 127.98 C 77.17 125.66 79.51 121.42 81.10 117.12 C 79.72 116.99 78.33 116.90 76.95 116.85 C 79.68 115.24 82.62 114.04 85.48 112.70 C 90.29 113.67 90.99 108.97 91.96 105.85 Z" />
<path fill="#4d1a3d" opacity="1.00" d=" M 97.85 105.28 C 100.19 108.97 104.31 106.36 105.19 102.96 C 106.14 105.23 104.17 107.09 103.23 109.00 L 102.86 109.61 C 102.35 110.41 101.83 111.20 101.31 112.00 C 100.10 110.27 98.09 109.69 96.16 109.19 C 95.44 111.57 93.84 113.49 92.06 115.18 C 92.72 112.79 93.59 110.47 94.14 108.05 C 95.05 106.71 95.88 105.31 96.70 103.92 C 96.99 104.26 97.56 104.94 97.85 105.28 Z" />
<path fill="#290e24" opacity="0.98" d=" M 149.19 103.91 L 150.28 103.71 C 150.93 105.39 151.51 107.11 152.05 108.84 C 152.43 110.41 153.05 111.91 153.78 113.35 C 153.98 113.78 154.37 114.65 154.57 115.08 C 155.56 117.21 156.65 119.30 157.91 121.28 C 157.61 121.77 156.99 122.74 156.68 123.23 C 155.08 120.18 153.58 117.08 152.01 114.02 C 151.24 110.60 150.06 107.30 149.19 103.91 Z" />
<path fill="#441991" opacity="1.00" d=" M 81.25 112.34 C 85.44 111.40 88.47 108.12 91.96 105.85 C 90.99 108.97 90.29 113.67 85.48 112.70 C 82.62 114.04 79.68 115.24 76.95 116.85 C 76.43 116.87 75.40 116.91 74.89 116.93 C 75.18 116.44 75.78 115.45 76.07 114.96 C 77.80 114.09 79.53 113.23 81.25 112.34 Z" />
<path fill="#9a2cc9" opacity="1.00" d=" M 65.86 112.47 C 71.67 111.46 77.13 109.06 82.91 107.98 C 82.53 109.50 81.86 110.91 81.25 112.34 C 79.53 113.23 77.80 114.09 76.07 114.96 C 71.65 115.64 67.34 116.96 62.86 117.26 C 60.83 115.40 58.60 111.14 62.82 110.62 C 63.87 111.18 64.75 112.05 65.86 112.47 Z" />
<path fill="#6821a8" opacity="1.00" d=" M 91.05 115.38 C 88.82 112.92 92.98 110.29 94.14 108.05 C 93.59 110.47 92.72 112.79 92.06 115.18 L 91.05 115.38 Z" />
<path fill="#221961" opacity="1.00" d=" M 103.23 109.00 C 104.03 108.75 104.83 108.54 105.64 108.35 C 106.60 111.18 108.28 113.68 110.22 115.92 C 109.93 116.22 109.35 116.82 109.06 117.12 C 107.39 114.32 105.49 111.61 102.86 109.61 L 103.23 109.00 Z" />
<path fill="#ac7571" opacity="1.00" d=" M 96.16 109.19 C 98.09 109.69 100.10 110.27 101.31 112.00 L 100.84 112.72 C 98.27 113.15 100.38 116.39 99.19 118.12 C 97.56 117.50 95.61 113.76 94.18 116.15 C 91.18 118.55 94.77 121.33 96.40 123.22 C 94.23 124.47 91.69 118.53 91.69 123.08 L 90.92 122.80 C 91.48 120.29 91.97 117.76 92.06 115.18 C 93.84 113.49 95.44 111.57 96.16 109.19 Z" />
<path fill="#070307" opacity="0.90" d=" M 152.05 108.84 C 154.97 114.36 162.10 109.74 166.78 110.67 C 169.95 110.85 173.27 110.58 176.29 111.77 C 170.38 114.94 164.11 117.60 159.16 122.26 C 159.54 127.81 163.48 132.64 165.12 137.91 C 168.84 145.55 170.01 153.99 171.76 162.21 C 169.16 161.70 168.97 158.41 168.14 156.33 C 169.71 151.71 166.11 146.93 164.27 142.75 C 161.84 136.20 159.78 129.50 156.68 123.23 C 156.99 122.74 157.61 121.77 157.91 121.28 C 161.05 118.50 164.45 116.02 168.06 113.87 C 170.80 113.64 175.71 110.17 167.14 112.00 C 166.86 112.15 166.29 112.45 166.01 112.60 C 164.01 112.88 162.01 113.06 160.01 113.26 C 157.95 112.88 155.81 112.71 153.78 113.35 C 153.05 111.91 152.43 110.41 152.05 108.84 Z" />
<path fill="#8323c5" opacity="1.00" d=" M 109.24 110.90 C 109.41 110.60 109.74 110.00 109.90 109.71 C 114.98 111.83 120.46 112.66 125.90 113.28 C 128.30 114.64 130.65 114.84 132.96 113.87 C 138.98 113.98 145.00 113.98 151.02 113.97 C 151.15 115.73 151.69 117.41 152.40 119.02 C 148.62 121.16 144.18 117.82 140.04 117.83 C 137.49 115.49 135.40 119.17 132.84 119.38 C 124.96 117.17 115.51 116.77 109.24 110.90 Z" />
<path fill="#000000" opacity="0.45" d=" M 166.78 110.67 C 168.10 111.30 180.08 107.56 176.29 111.77 C 173.27 110.58 169.95 110.85 166.78 110.67 Z" />
<path fill="#000000" opacity="0.47" d=" M 125.77 111.25 C 132.58 110.80 139.48 110.66 146.24 111.83 C 139.42 112.12 132.53 112.32 125.77 111.25 Z" />
<path fill="#632275" opacity="1.00" d=" M 166.01 112.60 C 166.29 112.45 166.86 112.15 167.14 112.00 C 175.71 110.17 170.80 113.64 168.06 113.87 C 167.54 113.55 166.52 112.92 166.01 112.60 Z" />
<path fill="#040205" opacity="1.00" d=" M 99.19 118.12 C 100.38 116.39 98.27 113.15 100.84 112.72 C 106.62 124.38 114.78 134.91 125.03 142.96 C 127.27 145.05 130.21 143.02 132.80 143.10 C 133.91 144.20 134.75 145.55 135.13 147.08 L 134.22 146.79 C 133.33 144.89 131.77 145.18 130.31 146.30 C 124.61 151.59 120.53 158.38 114.92 163.78 C 111.30 160.18 107.46 164.22 103.91 165.91 C 101.84 166.50 101.23 164.06 100.07 162.93 C 100.05 163.67 100.00 165.17 99.98 165.91 L 99.75 167.12 C 98.48 164.77 97.60 162.21 96.16 159.95 C 95.57 157.15 94.63 154.45 93.81 151.72 C 93.86 150.49 93.13 149.57 92.23 148.84 C 91.21 152.51 86.18 148.28 89.97 147.01 C 93.85 147.58 97.55 147.81 95.32 143.73 L 95.32 143.06 C 95.30 142.17 97.25 139.57 95.28 140.08 C 91.03 139.96 87.28 142.34 83.71 144.33 C 83.83 143.63 83.99 142.93 84.18 142.24 C 84.88 140.62 84.97 138.84 85.09 137.10 C 85.32 136.82 85.78 136.26 86.01 135.98 C 88.38 134.08 88.99 131.55 87.92 128.71 L 87.86 127.73 C 87.90 126.35 87.43 125.06 86.95 123.79 C 87.25 123.33 87.84 122.41 88.14 121.96 C 89.07 122.22 90.00 122.50 90.92 122.80 L 91.69 123.08 C 93.27 124.49 94.42 126.94 96.78 127.01 C 96.93 126.31 97.23 124.90 97.37 124.20 C 99.35 122.67 100.75 120.50 99.19 118.12 M 100.00 142.00 L 100.96 141.99 C 101.37 143.27 100.05 147.20 101.76 146.78 C 102.14 152.31 103.71 157.65 105.16 162.97 C 107.18 162.80 108.89 161.53 110.73 160.77 C 112.09 161.00 113.45 161.04 114.82 160.87 C 115.71 160.56 116.90 157.47 115.17 158.28 C 114.72 156.71 113.98 154.95 112.51 154.05 L 112.61 153.34 C 108.77 147.09 105.72 140.40 102.43 133.84 C 102.38 132.79 102.13 131.76 101.68 130.76 L 101.77 129.95 C 97.12 130.18 101.52 138.99 100.00 142.00 Z" />
<path fill="#4a136d" opacity="1.00" d=" M 125.90 113.28 C 127.67 113.22 131.20 113.10 132.97 113.04 L 132.96 113.87 C 130.65 114.84 128.30 114.64 125.90 113.28 Z" />
<path fill="#230a33" opacity="1.00" d=" M 132.97 113.04 C 138.72 113.03 144.47 112.97 150.23 112.77 C 150.43 113.07 150.82 113.67 151.02 113.97 C 145.00 113.98 138.98 113.98 132.96 113.87 L 132.97 113.04 Z" />
<path fill="#5d1e74" opacity="1.00" d=" M 153.78 113.35 C 155.81 112.71 157.95 112.88 160.01 113.26 C 158.65 113.72 155.93 114.63 154.57 115.08 C 154.37 114.65 153.98 113.78 153.78 113.35 Z" />
<path fill="#8a2da8" opacity="1.00" d=" M 160.01 113.26 C 162.01 113.06 164.01 112.88 166.01 112.60 C 166.52 112.92 167.54 113.55 168.06 113.87 C 164.45 116.02 161.05 118.50 157.91 121.28 C 156.65 119.30 155.56 117.21 154.57 115.08 C 155.93 114.63 158.65 113.72 160.01 113.26 Z" />
<path fill="#704646" opacity="1.00" d=" M 151.02 113.97 L 152.01 114.02 C 153.58 117.08 155.08 120.18 156.68 123.23 C 159.78 129.50 161.84 136.20 164.27 142.75 C 164.01 143.13 163.48 143.90 163.22 144.28 C 160.81 137.60 157.95 131.09 155.16 124.57 C 154.98 124.19 154.62 123.43 154.44 123.05 L 154.03 122.22 C 153.51 121.14 152.96 120.07 152.40 119.02 C 151.69 117.41 151.15 115.73 151.02 113.97 Z" />
<path fill="#562092" opacity="1.00" d=" M 62.86 117.26 C 67.34 116.96 71.65 115.64 76.07 114.96 C 75.78 115.45 75.18 116.44 74.89 116.93 C 73.13 117.44 71.31 117.86 69.75 118.84 C 71.11 118.91 72.47 118.94 73.84 118.92 C 75.31 118.98 76.77 119.07 78.24 119.21 C 77.57 119.70 76.88 120.13 76.15 120.51 C 71.67 120.73 67.30 122.13 62.79 121.85 C 66.01 121.28 64.02 118.96 62.86 117.26 Z" />
<path fill="#45123b" opacity="1.00" d=" M 91.05 115.38 L 92.06 115.18 C 91.97 117.76 91.48 120.29 90.92 122.80 C 90.00 122.50 89.07 122.22 88.14 121.96 C 89.42 119.92 90.92 117.88 91.05 115.38 Z" />
<path fill="#ead8a7" opacity="1.00" d=" M 94.18 116.15 C 95.61 113.76 97.56 117.50 99.19 118.12 C 100.75 120.50 99.35 122.67 97.37 124.20 C 97.13 123.95 96.65 123.46 96.40 123.22 C 94.77 121.33 91.18 118.55 94.18 116.15 Z" />
<path fill="#32177d" opacity="1.00" d=" M 110.22 115.92 C 116.37 122.11 123.84 127.22 128.08 135.07 C 124.41 135.55 122.68 131.73 120.23 129.77 C 116.43 125.64 111.70 122.19 109.06 117.12 C 109.35 116.82 109.93 116.22 110.22 115.92 Z" />
<path fill="#3b176a" opacity="1.00" d=" M 69.75 118.84 C 71.31 117.86 73.13 117.44 74.89 116.93 C 75.40 116.91 76.43 116.87 76.95 116.85 C 75.94 117.58 74.88 118.24 73.84 118.92 C 72.47 118.94 71.11 118.91 69.75 118.84 Z" />
<path fill="#491c8b" opacity="1.00" d=" M 76.95 116.85 C 78.33 116.90 79.72 116.99 81.10 117.12 C 79.51 121.42 77.17 125.66 73.00 127.98 C 70.36 130.08 66.78 131.14 64.86 134.06 C 67.46 133.62 69.53 131.85 71.89 130.78 C 70.26 137.54 63.59 142.17 63.03 149.15 C 61.69 150.18 60.36 151.22 59.06 152.29 C 57.37 152.49 55.80 153.24 54.82 154.68 C 45.33 160.49 36.98 168.36 30.22 177.18 C 29.60 177.32 28.34 177.60 27.71 177.74 C 31.09 171.90 36.65 167.84 40.33 162.27 C 48.64 153.86 57.35 145.75 64.06 135.94 C 61.65 136.06 59.29 136.59 56.92 136.97 C 59.04 135.30 62.05 133.64 61.57 130.49 C 63.23 129.50 64.74 127.93 62.96 126.20 C 68.87 128.17 71.76 122.81 76.15 120.51 C 76.88 120.13 77.57 119.70 78.24 119.21 C 76.77 119.07 75.31 118.98 73.84 118.92 C 74.88 118.24 75.94 117.58 76.95 116.85 Z" />
<path fill="#7720bb" opacity="1.00" d=" M 132.84 119.38 C 135.40 119.17 137.49 115.49 140.04 117.83 C 144.03 120.65 149.39 120.78 154.03 122.22 L 154.44 123.05 C 154.06 123.25 153.29 123.66 152.91 123.87 C 146.13 123.21 139.57 120.62 132.84 119.38 Z" />
<path fill="#561b9c" opacity="1.00" d=" M 140.04 117.83 C 144.18 117.82 148.62 121.16 152.40 119.02 C 152.96 120.07 153.51 121.14 154.03 122.22 C 149.39 120.78 144.03 120.65 140.04 117.83 Z" />
<path fill="#912bbf" opacity="1.00" d=" M 62.79 121.85 C 67.30 122.13 71.67 120.73 76.15 120.51 C 71.76 122.81 68.87 128.17 62.96 126.20 C 61.03 125.48 59.76 121.65 62.79 121.85 Z" />
<path fill="#d2b994" opacity="1.00" d=" M 91.69 123.08 C 91.69 118.53 94.23 124.47 96.40 123.22 C 96.65 123.46 97.13 123.95 97.37 124.20 C 97.23 124.90 96.93 126.31 96.78 127.01 C 94.42 126.94 93.27 124.49 91.69 123.08 Z" />
<path fill="#7820be" opacity="1.00" d=" M 120.83 122.98 C 129.34 124.54 136.79 129.65 144.40 133.51 C 146.48 134.10 145.89 136.54 146.29 138.17 C 145.97 138.47 145.34 139.05 145.03 139.34 C 136.81 134.18 129.01 128.25 120.83 122.98 Z" />
<path fill="#370f42" opacity="1.00" d=" M 82.09 130.14 C 83.59 127.93 85.38 125.94 86.95 123.79 C 87.43 125.06 87.90 126.35 87.86 127.73 C 86.09 128.07 84.52 128.91 83.07 129.96 L 82.09 130.14 Z" />
<path fill="#060308" opacity="0.91" d=" M 146.29 138.17 C 147.23 132.54 151.28 128.47 155.16 124.57 C 157.95 131.09 160.81 137.60 163.22 144.28 L 162.76 145.24 C 159.62 139.72 156.83 133.98 154.63 128.02 C 152.04 129.93 150.40 132.83 148.48 135.34 C 147.38 141.81 140.57 144.96 136.76 149.76 C 134.66 150.78 134.85 148.04 134.22 146.79 L 135.13 147.08 C 135.50 147.19 136.25 147.42 136.62 147.53 C 138.81 144.23 141.90 141.70 145.03 139.34 C 145.34 139.05 145.97 138.47 146.29 138.17 Z" />
<path fill="#8c4858" opacity="1.00" d=" M 83.07 129.96 C 84.52 128.91 86.09 128.07 87.86 127.73 L 87.92 128.71 C 87.25 130.10 86.63 131.52 85.97 132.91 C 84.40 134.06 81.41 134.50 81.99 137.04 C 81.39 139.20 84.16 137.07 85.09 137.10 C 84.97 138.84 84.88 140.62 84.18 142.24 C 84.49 139.76 83.67 138.24 81.01 139.02 C 80.27 141.60 81.75 142.46 84.18 142.24 C 83.99 142.93 83.83 143.63 83.71 144.33 C 82.80 144.92 81.85 145.45 80.91 145.99 C 80.51 144.96 80.13 143.92 79.77 142.88 C 79.75 138.31 81.94 134.26 83.07 129.96 Z" />
<path fill="#40292a" opacity="1.00" d=" M 85.97 132.91 C 86.63 131.52 87.25 130.10 87.92 128.71 C 88.99 131.55 88.38 134.08 86.01 135.98 C 86.00 135.22 85.98 133.68 85.97 132.91 Z" />
<path fill="#0e070c" opacity="1.00" d=" M 82.09 130.14 L 83.07 129.96 C 81.94 134.26 79.75 138.31 79.77 142.88 C 78.82 145.75 76.69 146.36 74.11 144.96 L 73.33 144.73 C 72.14 144.11 70.87 144.54 69.65 144.76 L 68.69 144.83 C 72.06 139.06 77.95 135.32 82.09 130.14 Z" />
<path fill="#200d4e" opacity="1.00" d=" M 100.00 142.00 C 101.52 138.99 97.12 130.18 101.77 129.95 L 101.68 130.76 C 101.22 134.48 100.98 138.23 100.96 141.99 L 100.00 142.00 Z" />
<path fill="#371584" opacity="1.00" d=" M 100.96 141.99 C 100.98 138.23 101.22 134.48 101.68 130.76 C 102.13 131.76 102.38 132.79 102.43 133.84 C 101.89 136.66 103.45 139.29 103.88 141.99 C 107.65 145.94 103.63 145.79 101.76 146.78 C 100.05 147.20 101.37 143.27 100.96 141.99 Z" />
<path fill="#d2b599" opacity="1.00" d=" M 81.99 137.04 C 81.41 134.50 84.40 134.06 85.97 132.91 C 85.98 133.68 86.00 135.22 86.01 135.98 C 85.78 136.26 85.32 136.82 85.09 137.10 C 84.16 137.07 81.39 139.20 81.99 137.04 Z" />
<path fill="#411891" opacity="1.00" d=" M 103.88 141.99 C 103.45 139.29 101.89 136.66 102.43 133.84 C 105.72 140.40 108.77 147.09 112.61 153.34 L 112.51 154.05 C 112.06 155.48 112.73 156.87 113.07 158.24 L 112.71 159.04 C 109.68 154.67 109.09 149.08 106.01 144.79 C 106.40 150.33 109.45 155.22 111.40 160.30 L 110.73 160.77 C 108.89 161.53 107.18 162.80 105.16 162.97 C 103.71 157.65 102.14 152.31 101.76 146.78 C 103.63 145.79 107.65 145.94 103.88 141.99 Z" />
<path fill="#932bc4" opacity="1.00" d=" M 56.92 136.97 C 59.29 136.59 61.65 136.06 64.06 135.94 C 57.35 145.75 48.64 153.86 40.33 162.27 C 35.38 164.48 29.57 164.67 25.23 168.23 C 20.81 172.24 17.28 177.40 11.91 180.26 C 11.93 176.74 12.47 173.12 11.38 169.71 C 11.27 166.09 7.74 164.81 4.77 164.17 C 7.04 162.61 9.42 161.24 11.82 159.90 C 18.23 159.51 23.96 156.13 29.85 153.82 C 33.33 152.14 37.44 151.16 40.03 148.10 C 46.42 145.72 51.60 141.07 56.92 136.97 Z" />
<path fill="#dbb3a5" opacity="1.00" d=" M 81.01 139.02 C 83.67 138.24 84.49 139.76 84.18 142.24 C 81.75 142.46 80.27 141.60 81.01 139.02 Z" />
<path fill="#ddc8a0" opacity="1.00" d=" M 83.71 144.33 C 87.28 142.34 91.03 139.96 95.28 140.08 C 93.72 143.30 89.22 143.31 86.82 145.81 C 85.14 146.88 83.49 147.99 81.88 149.16 C 80.24 150.25 78.77 151.69 76.81 152.17 L 75.83 151.78 C 76.90 149.35 78.97 147.70 80.91 145.99 C 81.85 145.45 82.80 144.92 83.71 144.33 Z" />
<path fill="#ad5769" opacity="1.00" d=" M 95.28 140.08 C 97.25 139.57 95.30 142.17 95.32 143.06 C 92.47 143.94 89.66 144.92 86.82 145.81 C 89.22 143.31 93.72 143.30 95.28 140.08 Z" />
<path fill="#2b151a" opacity="1.00" d=" M 74.11 144.96 C 76.69 146.36 78.82 145.75 79.77 142.88 C 80.13 143.92 80.51 144.96 80.91 145.99 C 78.97 147.70 76.90 149.35 75.83 151.78 C 75.37 152.13 74.46 152.83 74.00 153.18 L 73.89 152.28 C 73.94 150.45 74.05 146.79 74.11 144.96 Z" />
<path fill="#632445" opacity="1.00" d=" M 86.82 145.81 C 89.66 144.92 92.47 143.94 95.32 143.06 L 95.32 143.73 C 93.50 144.75 91.55 145.61 89.97 147.01 C 86.18 148.28 91.21 152.51 92.23 148.84 C 91.98 150.23 91.74 151.63 91.43 153.02 C 90.17 151.80 88.48 152.30 86.94 152.45 C 86.13 151.89 85.31 151.35 84.47 150.84 C 83.61 150.28 82.74 149.72 81.88 149.16 C 83.49 147.99 85.14 146.88 86.82 145.81 Z" />
<path fill="#29171c" opacity="0.96" d=" M 164.27 142.75 C 166.11 146.93 169.71 151.71 168.14 156.33 C 166.30 152.66 164.46 148.98 162.76 145.24 L 163.22 144.28 C 163.48 143.90 164.01 143.13 164.27 142.75 Z" />
<path fill="#2a1c1a" opacity="1.00" d=" M 69.65 144.76 C 70.87 144.54 72.14 144.11 73.33 144.73 C 72.51 145.98 71.69 147.24 70.83 148.47 C 70.34 147.26 69.95 146.03 69.65 144.76 Z" />
<path fill="#912f71" opacity="1.00" d=" M 89.97 147.01 C 91.55 145.61 93.50 144.75 95.32 143.73 C 97.55 147.81 93.85 147.58 89.97 147.01 Z" />
<path fill="#793f39" opacity="1.00" d=" M 63.03 149.15 C 65.12 148.00 67.04 146.56 68.69 144.83 L 69.65 144.76 C 69.95 146.03 70.34 147.26 70.83 148.47 C 71.31 150.10 72.77 151.10 73.89 152.28 L 74.00 153.18 C 74.05 153.62 74.13 154.50 74.17 154.95 C 73.36 154.96 71.74 154.99 70.93 155.01 L 70.17 154.95 C 69.53 154.21 68.87 153.49 68.18 152.79 C 67.90 155.83 68.31 159.07 67.47 162.07 C 67.12 161.62 66.41 160.71 66.05 160.26 C 65.72 158.77 65.59 157.25 65.29 155.75 C 65.91 153.88 66.56 152.02 67.07 150.12 C 64.45 151.03 61.93 152.17 59.31 153.08 L 59.06 152.29 C 60.36 151.22 61.69 150.18 63.03 149.15 Z" />
<path fill="#d7b3a3" opacity="1.00" d=" M 73.33 144.73 L 74.11 144.96 C 74.05 146.79 73.94 150.45 73.89 152.28 C 72.77 151.10 71.31 150.10 70.83 148.47 C 71.69 147.24 72.51 145.98 73.33 144.73 Z" />
<path fill="#7821bf" opacity="1.00" d=" M 106.01 144.79 C 109.09 149.08 109.68 154.67 112.71 159.04 C 112.38 159.35 111.73 159.98 111.40 160.30 C 109.45 155.22 106.40 150.33 106.01 144.79 Z" />
<path fill="#110516" opacity="0.89" d=" M 11.82 159.90 C 20.71 154.90 30.72 152.21 40.03 148.10 C 37.44 151.16 33.33 152.14 29.85 153.82 C 23.96 156.13 18.23 159.51 11.82 159.90 Z" />
<path fill="#813553" opacity="1.00" d=" M 76.81 152.17 C 78.77 151.69 80.24 150.25 81.88 149.16 C 82.74 149.72 83.61 150.28 84.47 150.84 C 83.37 152.86 81.95 156.11 79.24 155.89 C 78.35 154.70 77.61 153.42 76.81 152.17 Z" />
<path fill="#984473" opacity="1.00" d=" M 92.23 148.84 C 93.13 149.57 93.86 150.49 93.81 151.72 C 93.15 153.06 93.30 154.55 93.45 155.99 C 93.27 156.30 92.92 156.94 92.74 157.26 C 92.13 155.90 91.79 154.45 91.43 153.02 C 91.74 151.63 91.98 150.23 92.23 148.84 Z" />
<path fill="#caa142" opacity="1.00" d=" M 59.31 153.08 C 61.93 152.17 64.45 151.03 67.07 150.12 C 66.56 152.02 65.91 153.88 65.29 155.75 C 64.69 156.07 63.50 156.70 62.90 157.02 L 62.11 157.09 L 61.21 157.16 C 59.34 156.90 55.26 159.45 56.92 161.33 C 57.16 161.59 57.65 162.11 57.89 162.37 L 58.09 163.12 C 57.50 163.41 56.32 163.99 55.73 164.28 C 53.61 161.55 53.65 157.80 54.82 154.68 C 56.58 155.49 58.54 154.91 59.31 153.08 Z" />
<path fill="#050404" opacity="1.00" d=" M 84.47 150.84 C 85.31 151.35 86.13 151.89 86.94 152.45 C 85.81 153.93 85.82 155.45 87.00 157.01 C 90.75 164.77 95.39 172.07 98.93 179.95 C 98.27 183.28 101.22 184.86 103.14 186.93 C 102.97 187.39 102.61 188.32 102.44 188.79 C 105.49 192.73 108.71 196.58 111.15 200.95 L 110.79 202.11 C 107.67 198.32 104.71 194.39 101.58 190.61 C 102.18 187.63 100.17 186.20 98.63 184.44 C 97.43 180.81 96.48 177.04 94.36 173.81 C 94.19 174.63 93.85 176.27 93.68 177.09 C 92.77 176.59 92.12 175.64 91.12 175.37 C 90.77 176.81 91.02 178.32 91.04 179.80 C 86.15 183.29 81.11 186.57 76.77 190.77 C 75.67 192.30 73.80 191.24 72.29 191.26 C 69.92 201.22 65.75 210.69 62.19 220.24 C 63.36 210.29 69.08 201.29 70.28 191.23 C 70.90 187.42 71.08 183.58 70.81 179.73 C 71.16 178.35 70.89 177.33 70.00 176.65 C 69.11 176.28 68.20 175.96 67.27 175.70 C 69.25 172.73 70.45 169.38 71.87 166.14 C 74.02 162.74 75.60 159.04 74.17 154.95 C 74.13 154.50 74.05 153.62 74.00 153.18 C 74.46 152.83 75.37 152.13 75.83 151.78 L 76.81 152.17 C 77.61 153.42 78.35 154.70 79.24 155.89 C 81.95 156.11 83.37 152.86 84.47 150.84 Z" />
<path fill="#591825" opacity="1.00" d=" M 54.82 154.68 C 55.80 153.24 57.37 152.49 59.06 152.29 L 59.31 153.08 C 58.54 154.91 56.58 155.49 54.82 154.68 Z" />
<path fill="#eddeb6" opacity="1.00" d=" M 86.94 152.45 C 88.48 152.30 90.17 151.80 91.43 153.02 C 91.79 154.45 92.13 155.90 92.74 157.26 C 96.20 165.07 100.87 172.48 102.96 180.83 C 101.45 182.87 100.05 181.56 98.93 179.95 C 95.39 172.07 90.75 164.77 87.00 157.01 C 85.82 155.45 85.81 153.93 86.94 152.45 Z" />
<path fill="#b75c97" opacity="1.00" d=" M 93.45 155.99 C 93.30 154.55 93.15 153.06 93.81 151.72 C 94.63 154.45 95.57 157.15 96.16 159.95 C 95.11 158.74 94.19 157.41 93.45 155.99 Z" />
<path fill="#e9d7b0" opacity="1.00" d=" M 68.18 152.79 C 68.87 153.49 69.53 154.21 70.17 154.95 C 70.19 156.74 70.23 160.32 70.25 162.10 C 70.20 162.52 70.10 163.35 70.06 163.76 C 68.90 167.27 67.76 170.80 65.97 174.05 C 65.62 173.77 64.93 173.20 64.59 172.92 C 64.96 170.56 65.76 168.30 66.45 166.03 C 66.86 164.73 67.15 163.39 67.47 162.07 C 68.31 159.07 67.90 155.83 68.18 152.79 Z" />
<path fill="#7e30b9" opacity="1.00" d=" M 113.07 158.24 C 112.73 156.87 112.06 155.48 112.51 154.05 C 113.98 154.95 114.72 156.71 115.17 158.28 C 114.47 158.50 113.77 158.49 113.07 158.24 Z" />
<path fill="#030204" opacity="0.98" d=" M 30.22 177.18 C 36.98 168.36 45.33 160.49 54.82 154.68 C 53.65 157.80 53.61 161.55 55.73 164.28 C 56.04 164.79 56.66 165.80 56.98 166.31 C 56.74 166.76 56.28 167.65 56.04 168.09 C 51.20 176.54 45.21 184.36 41.39 193.37 C 41.30 195.06 41.11 198.45 41.01 200.15 C 42.76 198.87 44.52 197.39 45.32 195.32 C 49.18 185.98 54.25 177.19 57.81 167.72 C 60.59 167.09 63.77 164.18 66.45 166.03 C 65.76 168.30 64.96 170.56 64.59 172.92 C 64.31 174.52 64.32 176.14 64.18 177.75 C 62.52 187.73 61.42 197.81 60.08 207.83 C 59.99 209.15 59.90 210.46 59.81 211.78 C 59.35 214.91 59.02 218.08 58.90 221.24 L 58.15 221.10 L 58.02 220.16 C 57.96 218.35 57.84 214.71 57.77 212.89 C 58.33 204.14 59.88 195.50 60.95 186.82 C 59.18 187.83 59.02 189.83 58.54 191.60 C 52.93 194.96 47.10 197.96 41.65 201.61 C 39.90 202.94 39.25 200.48 38.67 199.28 C 38.72 196.44 38.77 193.61 38.81 190.78 C 40.41 186.82 40.33 181.03 36.01 178.93 C 31.05 183.14 28.07 189.72 23.61 194.57 C 21.18 195.86 21.90 191.36 20.78 190.02 C 18.06 190.53 15.87 192.50 13.15 193.03 C 12.33 191.90 11.99 190.55 11.63 189.24 C 11.76 188.64 12.02 187.43 12.15 186.83 C 12.54 187.84 12.93 188.85 13.33 189.86 C 16.16 190.23 18.45 188.04 20.94 187.05 C 23.34 187.24 25.44 186.69 26.13 184.17 C 27.55 181.87 28.97 179.57 30.22 177.18 Z" />
<path fill="#d1a099" opacity="1.00" d=" M 70.17 154.95 L 70.93 155.01 C 71.88 157.33 71.65 159.70 70.25 162.10 C 70.23 160.32 70.19 156.74 70.17 154.95 Z" />
<path fill="#8c2469" opacity="1.00" d=" M 70.93 155.01 C 71.74 154.99 73.36 154.96 74.17 154.95 C 75.60 159.04 74.02 162.74 71.87 166.14 C 71.27 165.34 70.66 164.55 70.06 163.76 C 70.10 163.35 70.20 162.52 70.25 162.10 C 71.65 159.70 71.88 157.33 70.93 155.01 Z" />
<path fill="#522931" opacity="0.98" d=" M 62.90 157.02 C 63.50 156.70 64.69 156.07 65.29 155.75 C 65.59 157.25 65.72 158.77 66.05 160.26 C 65.53 160.47 64.49 160.89 63.97 161.10 C 63.53 159.76 63.17 158.40 62.90 157.02 Z" />
<path fill="#883e5a" opacity="1.00" d=" M 92.74 157.26 C 92.92 156.94 93.27 156.30 93.45 155.99 C 94.19 157.41 95.11 158.74 96.16 159.95 C 97.60 162.21 98.48 164.77 99.75 167.12 C 100.11 172.86 106.44 177.13 104.34 182.96 C 105.04 183.02 106.44 183.14 107.13 183.20 C 106.39 184.03 105.66 184.88 104.92 185.72 C 104.48 186.02 103.59 186.62 103.14 186.93 C 101.22 184.86 98.27 183.28 98.93 179.95 C 100.05 181.56 101.45 182.87 102.96 180.83 C 100.87 172.48 96.20 165.07 92.74 157.26 Z" />
<path fill="#99845c" opacity="0.96" d=" M 56.92 161.33 C 55.26 159.45 59.34 156.90 61.21 157.16 C 59.84 158.61 58.42 160.02 56.92 161.33 Z" />
<path fill="#f2bb59" opacity="1.00" d=" M 61.21 157.16 L 62.11 157.09 C 62.60 160.00 59.93 161.10 57.89 162.37 C 57.65 162.11 57.16 161.59 56.92 161.33 C 58.42 160.02 59.84 158.61 61.21 157.16 Z" />
<path fill="#8f6e2b" opacity="0.98" d=" M 62.11 157.09 L 62.90 157.02 C 63.17 158.40 63.53 159.76 63.97 161.10 C 62.04 161.86 60.06 162.48 58.09 163.12 L 57.89 162.37 C 59.93 161.10 62.60 160.00 62.11 157.09 Z" />
<path fill="#391871" opacity="1.00" d=" M 113.07 158.24 C 113.77 158.49 114.47 158.50 115.17 158.28 C 116.90 157.47 115.71 160.56 114.82 160.87 C 113.45 161.04 112.09 161.00 110.73 160.77 L 111.40 160.30 C 111.73 159.98 112.38 159.35 112.71 159.04 L 113.07 158.24 Z" />
<path fill="#030302" opacity="0.35" d=" M 66.05 160.26 C 66.41 160.71 67.12 161.62 67.47 162.07 C 63.98 163.52 60.54 165.07 56.98 166.31 C 56.66 165.80 56.04 164.79 55.73 164.28 C 56.32 163.99 57.50 163.41 58.09 163.12 C 60.06 162.48 62.04 161.86 63.97 161.10 C 64.49 160.89 65.53 160.47 66.05 160.26 Z" />
<path fill="#8223c3" opacity="1.00" d=" M 25.23 168.23 C 29.57 164.67 35.38 164.48 40.33 162.27 C 36.65 167.84 31.09 171.90 27.71 177.74 C 27.48 178.02 27.02 178.56 26.79 178.84 C 24.55 181.36 22.86 184.29 20.94 187.05 C 18.45 188.04 16.16 190.23 13.33 189.86 C 12.93 188.85 12.54 187.84 12.15 186.83 C 12.03 184.97 11.92 183.11 11.78 181.25 L 11.91 180.26 C 17.28 177.40 20.81 172.24 25.23 168.23 Z" />
<path fill="#61404a" opacity="1.00" d=" M 56.98 166.31 C 60.54 165.07 63.98 163.52 67.47 162.07 C 67.15 163.39 66.86 164.73 66.45 166.03 C 63.77 164.18 60.59 167.09 57.81 167.72 C 57.37 167.81 56.48 168.00 56.04 168.09 C 56.28 167.65 56.74 166.76 56.98 166.31 Z" />
<path fill="#060207" opacity="0.86" d=" M 0.78 167.87 C 1.22 165.90 3.31 165.25 4.77 164.17 C 7.74 164.81 11.27 166.09 11.38 169.71 C 11.03 173.57 11.17 177.42 11.78 181.25 C 11.92 183.11 12.03 184.97 12.15 186.83 C 12.02 187.43 11.76 188.64 11.63 189.24 C 8.39 181.80 11.97 172.72 6.82 166.04 C 4.63 165.84 2.77 167.20 0.78 167.87 Z" />
<path fill="#782a58" opacity="1.00" d=" M 70.06 163.76 C 70.66 164.55 71.27 165.34 71.87 166.14 C 70.45 169.38 69.25 172.73 67.27 175.70 C 68.20 175.96 69.11 176.28 70.00 176.65 C 69.55 178.03 68.65 180.77 68.20 182.15 C 68.60 179.30 67.44 178.44 65.04 179.90 C 64.83 179.36 64.40 178.29 64.18 177.75 C 64.32 176.14 64.31 174.52 64.59 172.92 C 64.93 173.20 65.62 173.77 65.97 174.05 C 67.76 170.80 68.90 167.27 70.06 163.76 Z" />
<path fill="#100a0c" opacity="0.89" d=" M 99.98 165.91 C 102.15 171.01 105.48 175.54 107.40 180.73 C 110.34 181.27 114.05 180.19 115.69 183.30 C 118.64 189.23 122.11 195.10 123.40 201.67 C 124.95 210.90 128.98 219.70 129.08 229.13 L 128.16 228.95 C 125.57 215.65 122.75 201.91 116.25 189.86 C 114.80 187.40 114.19 184.21 111.88 182.37 C 110.29 182.60 108.72 182.94 107.13 183.20 C 106.44 183.14 105.04 183.02 104.34 182.96 C 106.44 177.13 100.11 172.86 99.75 167.12 L 99.98 165.91 Z" />
<path fill="#421893" opacity="1.00" d=" M 56.04 168.09 C 56.48 168.00 57.37 167.81 57.81 167.72 C 54.25 177.19 49.18 185.98 45.32 195.32 C 44.52 197.39 42.76 198.87 41.01 200.15 C 41.11 198.45 41.30 195.06 41.39 193.37 C 45.21 184.36 51.20 176.54 56.04 168.09 Z" />
<path fill="#371147" opacity="1.00" d=" M 11.38 169.71 C 12.47 173.12 11.93 176.74 11.91 180.26 L 11.78 181.25 C 11.17 177.42 11.03 173.57 11.38 169.71 Z" />
<path fill="#000000" opacity="0.24" d=" M 91.12 175.37 C 92.12 175.64 92.77 176.59 93.68 177.09 C 93.39 178.35 91.91 178.93 91.04 179.80 C 91.02 178.32 90.77 176.81 91.12 175.37 Z" />
<path fill="#1e1958" opacity="1.00" d=" M 27.71 177.74 C 28.34 177.60 29.60 177.32 30.22 177.18 C 28.97 179.57 27.55 181.87 26.13 184.17 C 26.28 182.38 26.53 180.61 26.79 178.84 C 27.02 178.56 27.48 178.02 27.71 177.74 Z" />
<path fill="#b2468f" opacity="1.00" d=" M 68.20 182.15 C 68.65 180.77 69.55 178.03 70.00 176.65 C 70.89 177.33 71.16 178.35 70.81 179.73 C 70.35 181.14 70.04 182.61 69.83 184.09 C 69.41 183.81 68.58 183.24 68.17 182.95 L 68.20 182.15 Z" />
<path fill="#ae7876" opacity="1.00" d=" M 64.18 177.75 C 64.40 178.29 64.83 179.36 65.04 179.90 C 65.05 181.31 65.05 182.72 65.04 184.14 C 64.38 186.31 63.91 188.53 63.67 190.79 C 62.76 196.92 62.73 203.20 61.34 209.26 C 61.02 208.90 60.39 208.19 60.08 207.83 C 61.42 197.81 62.52 187.73 64.18 177.75 Z" />
<path fill="#3b1788" opacity="1.00" d=" M 20.94 187.05 C 22.86 184.29 24.55 181.36 26.79 178.84 C 26.53 180.61 26.28 182.38 26.13 184.17 C 25.44 186.69 23.34 187.24 20.94 187.05 Z" />
<path fill="#2f1720" opacity="1.00" d=" M 65.04 179.90 C 67.44 178.44 68.60 179.30 68.20 182.15 L 68.17 182.95 C 68.10 184.25 68.04 185.55 68.00 186.86 L 67.11 187.01 C 67.05 185.30 67.00 183.59 66.90 181.88 C 66.26 182.62 65.64 183.37 65.04 184.14 C 65.05 182.72 65.05 181.31 65.04 179.90 Z" />
<path fill="#7f475d" opacity="1.00" d=" M 69.83 184.09 C 70.04 182.61 70.35 181.14 70.81 179.73 C 71.08 183.58 70.90 187.42 70.28 191.23 C 70.22 190.45 70.09 188.88 70.03 188.10 C 69.96 186.76 69.90 185.42 69.83 184.09 Z" />
<path fill="#0e0809" opacity="0.70" d=" M 65.04 184.14 C 65.64 183.37 66.26 182.62 66.90 181.88 C 67.00 183.59 67.05 185.30 67.11 187.01 C 67.11 190.60 66.13 194.06 65.09 197.47 C 64.74 195.80 64.03 192.46 63.67 190.79 C 63.91 188.53 64.38 186.31 65.04 184.14 Z" />
<path fill="#a5467d" opacity="1.00" d=" M 107.13 183.20 C 108.72 182.94 110.29 182.60 111.88 182.37 C 114.19 184.21 114.80 187.40 116.25 189.86 C 114.50 188.83 112.99 187.29 110.94 186.89 C 109.81 187.01 108.71 187.27 107.65 187.68 C 107.30 187.80 106.60 188.03 106.25 188.14 C 106.67 186.76 106.82 185.53 104.92 185.72 C 105.66 184.88 106.39 184.03 107.13 183.20 Z" />
<path fill="#d08398" opacity="1.00" d=" M 68.17 182.95 C 68.58 183.24 69.41 183.81 69.83 184.09 C 69.90 185.42 69.96 186.76 70.03 188.10 C 69.52 187.79 68.51 187.17 68.00 186.86 C 68.04 185.55 68.10 184.25 68.17 182.95 Z" />
<path fill="#d4c099" opacity="1.00" d=" M 103.14 186.93 C 103.59 186.62 104.48 186.02 104.92 185.72 C 106.82 185.53 106.67 186.76 106.25 188.14 C 106.26 188.54 106.28 189.32 106.28 189.72 C 109.68 195.31 114.48 200.03 117.17 206.09 C 118.35 208.17 119.56 210.24 120.99 212.17 C 120.84 210.46 120.46 208.79 120.03 207.14 C 118.34 199.87 114.09 193.57 110.94 186.89 C 112.99 187.29 114.50 188.83 116.25 189.86 C 122.75 201.91 125.57 215.65 128.16 228.95 L 127.30 228.74 C 122.06 222.05 119.34 213.74 114.21 206.95 C 113.40 204.84 112.44 202.80 111.15 200.95 C 108.71 196.58 105.49 192.73 102.44 188.79 C 102.61 188.32 102.97 187.39 103.14 186.93 Z" />
<path fill="#d7c29d" opacity="1.00" d=" M 67.11 187.01 L 68.00 186.86 C 68.51 187.17 69.52 187.79 70.03 188.10 C 70.09 188.88 70.22 190.45 70.28 191.23 C 69.08 201.29 63.36 210.29 62.19 220.24 C 61.37 222.25 60.49 224.23 59.68 226.25 C 59.29 224.60 59.14 222.91 58.90 221.24 C 59.73 218.13 60.11 214.98 59.81 211.78 C 59.90 210.46 59.99 209.15 60.08 207.83 C 60.39 208.19 61.02 208.90 61.34 209.26 C 61.19 210.58 61.11 211.90 61.09 213.24 C 64.20 208.74 63.97 202.70 65.09 197.47 C 66.13 194.06 67.11 190.60 67.11 187.01 Z" />
<path fill="#b25068" opacity="1.00" d=" M 107.65 187.68 C 108.71 187.27 109.81 187.01 110.94 186.89 C 114.09 193.57 118.34 199.87 120.03 207.14 C 119.46 206.35 118.90 205.57 118.35 204.78 C 115.16 198.86 111.23 193.37 107.65 187.68 Z" />
<path fill="#150e0e" opacity="0.59" d=" M 106.25 188.14 C 106.60 188.03 107.30 187.80 107.65 187.68 C 111.23 193.37 115.16 198.86 118.35 204.78 C 118.06 205.11 117.47 205.76 117.17 206.09 C 114.48 200.03 109.68 195.31 106.28 189.72 C 106.28 189.32 106.26 188.54 106.25 188.14 Z" />
<path fill="#000000" opacity="0.42" d=" M 38.67 199.28 C 37.28 196.63 38.29 193.52 38.81 190.78 C 38.77 193.61 38.72 196.44 38.67 199.28 Z" />
<path fill="#2b1a1c" opacity="1.00" d=" M 61.34 209.26 C 62.73 203.20 62.76 196.92 63.67 190.79 C 64.03 192.46 64.74 195.80 65.09 197.47 C 63.97 202.70 64.20 208.74 61.09 213.24 C 61.11 211.90 61.19 210.58 61.34 209.26 Z" />
<path fill="#201e17" opacity="0.88" d=" M 111.15 200.95 C 112.44 202.80 113.40 204.84 114.21 206.95 C 112.17 206.10 111.47 204.03 110.79 202.11 L 111.15 200.95 Z" />
<path fill="#402827" opacity="0.96" d=" M 118.35 204.78 C 118.90 205.57 119.46 206.35 120.03 207.14 C 120.46 208.79 120.84 210.46 120.99 212.17 C 119.56 210.24 118.35 208.17 117.17 206.09 C 117.47 205.76 118.06 205.11 118.35 204.78 Z" />
<path fill="#8e8165" opacity="1.00" d=" M 58.90 221.24 C 59.02 218.08 59.35 214.91 59.81 211.78 C 60.11 214.98 59.73 218.13 58.90 221.24 Z" />
<path fill="#000000" opacity="0.17" d=" M 58.02 220.16 C 55.46 218.66 56.39 215.01 57.77 212.89 C 57.84 214.71 57.96 218.35 58.02 220.16 Z" />
<path fill="#070605" opacity="0.70" d=" M 58.15 221.10 L 58.90 221.24 C 59.14 222.91 59.29 224.60 59.68 226.25 C 57.43 229.07 57.40 223.15 58.15 221.10 Z" />
</svg>
