<?xml version="1.0" encoding="UTF-8" ?>
<!DOCTYPE svg PUBLIC "-//W3C//DTD SVG 1.1//EN" "http://www.w3.org/Graphics/SVG/1.1/DTD/svg11.dtd">
<svg width="130pt" height="85pt" viewBox="0 0 130 85" version="1.1" xmlns="http://www.w3.org/2000/svg">
<path fill="#000000" opacity="1.00" d=" M 26.37 0.00 L 27.41 0.00 C 31.92 0.15 36.61 0.90 40.27 3.75 C 47.54 8.73 50.94 18.97 47.21 27.12 C 45.02 32.08 40.40 35.34 35.64 37.58 C 35.34 40.38 34.92 43.17 34.37 45.93 C 31.65 43.45 29.10 40.79 26.67 38.03 C 21.04 38.76 15.16 38.36 9.87 36.20 C 4.21 33.88 0.24 28.05 0.15 21.94 C 0.02 16.04 2.42 9.80 7.34 6.29 C 12.87 2.33 19.69 0.68 26.37 0.00 M 9.72 7.74 C 1.91 12.60 0.18 25.44 7.61 31.42 C 13.13 35.61 20.50 35.47 27.10 35.24 C 29.02 37.11 30.89 39.04 32.74 40.97 C 32.76 39.27 32.74 37.57 32.90 35.87 C 35.22 34.17 38.08 33.29 40.19 31.26 C 44.41 27.98 46.41 22.30 45.37 17.08 C 43.89 8.68 35.58 2.09 27.06 2.57 C 20.99 2.85 14.88 4.46 9.72 7.74 Z" />
<path fill="#fff9e1" opacity="1.00" d=" M 9.72 7.74 C 14.88 4.46 20.99 2.85 27.06 2.57 C 35.58 2.09 43.89 8.68 45.37 17.08 C 46.41 22.30 44.41 27.98 40.19 31.26 C 38.08 33.29 35.22 34.17 32.90 35.87 C 32.74 37.57 32.76 39.27 32.74 40.97 C 30.89 39.04 29.02 37.11 27.10 35.24 C 20.50 35.47 13.13 35.61 7.61 31.42 C 0.18 25.44 1.91 12.60 9.72 7.74 M 24.66 21.82 C 21.03 20.87 18.13 23.55 17.58 26.99 C 18.40 29.04 19.78 30.74 21.98 31.35 C 24.29 30.80 27.74 30.04 27.57 26.98 C 27.36 23.33 26.99 19.69 26.69 16.04 C 27.28 16.41 28.47 17.14 29.07 17.50 L 30.57 17.56 C 28.97 14.77 27.12 12.14 25.52 9.35 C 22.80 12.84 24.78 17.76 24.66 21.82 Z" />
<path fill="#000000" opacity="1.00" d=" M 24.66 21.82 C 24.78 17.76 22.80 12.84 25.52 9.35 C 27.12 12.14 28.97 14.77 30.57 17.56 L 29.07 17.50 C 28.47 17.14 27.28 16.41 26.69 16.04 C 26.99 19.69 27.36 23.33 27.57 26.98 C 27.74 30.04 24.29 30.80 21.98 31.35 C 19.78 30.74 18.40 29.04 17.58 26.99 C 18.13 23.55 21.03 20.87 24.66 21.82 Z" />
<path fill="#000000" opacity="1.00" d=" M 44.85 45.82 C 51.00 41.43 58.31 38.21 65.98 38.31 C 75.68 38.28 85.91 42.25 91.61 50.39 C 95.99 56.06 97.08 63.58 96.14 70.53 C 105.30 68.74 114.68 69.14 123.95 69.33 C 126.16 69.27 128.21 70.06 130.00 71.32 L 130.00 72.69 C 127.56 74.19 124.97 75.45 122.15 76.04 C 113.58 78.08 104.77 78.86 96.01 79.53 C 91.50 80.01 86.77 78.87 82.47 80.71 C 69.48 85.24 54.51 87.17 41.60 81.37 C 37.72 79.56 33.14 76.86 32.92 72.05 C 31.92 62.07 36.56 51.56 44.85 45.82 M 51.05 45.59 C 49.25 46.73 47.41 47.81 45.73 49.11 C 38.60 54.61 35.13 64.03 35.70 72.83 C 37.89 77.01 42.76 78.43 46.88 79.93 C 59.31 83.70 72.71 80.99 84.58 76.54 C 87.29 75.37 90.07 74.20 92.38 72.34 C 94.18 66.37 93.81 59.66 90.84 54.11 C 88.80 49.55 84.14 47.14 80.01 44.79 C 70.96 40.13 59.84 40.52 51.05 45.59 Z" />
<path fill="#5fb3ff" opacity="1.00" d=" M 51.05 45.59 C 59.84 40.52 70.96 40.13 80.01 44.79 C 84.14 47.14 88.80 49.55 90.84 54.11 C 93.81 59.66 94.18 66.37 92.38 72.34 C 90.07 74.20 87.29 75.37 84.58 76.54 C 72.71 80.99 59.31 83.70 46.88 79.93 C 42.76 78.43 37.89 77.01 35.70 72.83 C 35.13 64.03 38.60 54.61 45.73 49.11 C 45.52 50.71 45.52 52.32 45.55 53.93 C 39.94 57.30 37.26 63.77 36.68 70.04 C 37.13 73.88 41.20 75.49 44.48 76.28 C 50.12 78.08 55.99 79.59 61.97 79.17 C 70.33 78.38 79.11 77.86 86.44 73.30 C 88.65 72.11 91.29 70.70 91.72 67.95 C 92.42 60.49 88.83 52.54 82.25 48.71 C 78.60 46.23 74.10 45.81 69.87 45.09 C 65.10 44.30 59.77 44.51 55.67 47.32 C 54.22 46.52 52.63 46.04 51.05 45.59 Z" />
<path fill="#4476d5" opacity="1.00" d=" M 55.67 47.32 C 59.77 44.51 65.10 44.30 69.87 45.09 C 74.10 45.81 78.60 46.23 82.25 48.71 C 88.83 52.54 92.42 60.49 91.72 67.95 C 91.29 70.70 88.65 72.11 86.44 73.30 C 86.47 71.40 87.51 68.81 85.46 67.58 C 81.74 65.41 77.18 65.81 73.03 65.71 C 65.53 66.14 57.70 66.51 50.86 69.95 C 49.78 69.13 48.48 68.51 47.66 67.40 C 46.33 63.53 47.50 59.39 48.42 55.56 C 52.82 56.43 58.97 51.97 55.67 47.32 M 55.38 60.39 C 53.05 60.87 54.40 64.71 56.63 63.62 C 58.97 62.73 57.77 59.36 55.38 60.39 Z" />
<path fill="#f5f5ff" opacity="1.00" d=" M 45.73 49.11 C 47.41 47.81 49.25 46.73 51.05 45.59 C 52.63 46.04 54.22 46.52 55.67 47.32 C 58.97 51.97 52.82 56.43 48.42 55.56 C 47.45 55.03 46.50 54.48 45.55 53.93 C 45.52 52.32 45.52 50.71 45.73 49.11 Z" />
<path fill="#4a84df" opacity="1.00" d=" M 36.68 70.04 C 37.26 63.77 39.94 57.30 45.55 53.93 C 46.50 54.48 47.45 55.03 48.42 55.56 C 47.50 59.39 46.33 63.53 47.66 67.40 C 48.48 68.51 49.78 69.13 50.86 69.95 C 47.98 71.18 45.05 72.89 44.48 76.28 C 41.20 75.49 37.13 73.88 36.68 70.04 Z" />
<path fill="#f5f5ff" opacity="1.00" d=" M 55.38 60.39 C 57.77 59.36 58.97 62.73 56.63 63.62 C 54.40 64.71 53.05 60.87 55.38 60.39 Z" />
<path fill="#252fa0" opacity="1.00" d=" M 50.86 69.95 C 57.70 66.51 65.53 66.14 73.03 65.71 C 77.18 65.81 81.74 65.41 85.46 67.58 C 87.51 68.81 86.47 71.40 86.44 73.30 C 79.11 77.86 70.33 78.38 61.97 79.17 C 55.99 79.59 50.12 78.08 44.48 76.28 C 45.05 72.89 47.98 71.18 50.86 69.95 Z" />
</svg>
