<?xml version="1.0" encoding="UTF-8" ?>
<!DOCTYPE svg PUBLIC "-//W3C//DTD SVG 1.1//EN" "http://www.w3.org/Graphics/SVG/1.1/DTD/svg11.dtd">
<svg width="174pt" height="91pt" viewBox="0 0 174 91" version="1.1" xmlns="http://www.w3.org/2000/svg">
<path fill="#000000" opacity="1.00" d=" M 93.87 6.89 C 99.76 3.22 106.47 -0.74 113.70 0.54 C 113.33 3.53 113.05 6.58 113.44 9.60 C 116.38 12.61 120.99 13.20 125.00 13.43 C 137.30 13.77 146.79 3.43 159.03 3.47 C 164.32 3.22 169.52 5.50 174.00 7.57 L 174.00 7.91 C 171.77 10.85 168.28 12.33 165.22 14.20 C 154.46 20.04 147.10 30.20 139.40 39.34 C 139.94 43.29 138.94 48.56 134.17 49.11 C 134.56 54.57 132.86 60.21 129.44 64.49 C 123.15 71.84 112.88 73.14 103.89 74.48 C 96.10 74.46 87.77 72.51 81.92 67.06 C 79.15 64.74 78.41 60.92 77.99 57.51 C 73.89 58.96 73.11 53.19 71.18 50.80 C 65.86 45.37 59.55 40.94 53.02 37.04 C 50.46 35.09 46.92 34.06 45.40 31.01 C 46.57 29.71 48.50 30.25 50.03 29.91 C 57.08 29.29 63.60 26.07 69.74 22.75 C 78.28 18.25 86.02 12.45 93.87 6.89 M 102.05 5.31 C 98.25 6.82 94.97 9.35 91.61 11.63 C 81.89 18.78 71.69 25.53 60.41 29.94 C 57.43 31.15 54.28 31.85 51.09 32.22 L 51.19 32.90 C 57.03 36.38 62.85 39.96 68.10 44.33 C 67.93 41.69 65.29 36.72 68.87 35.52 C 73.16 36.35 76.61 39.69 79.47 42.84 C 80.91 43.15 80.75 41.12 81.42 40.34 C 86.46 33.24 94.22 28.41 102.26 25.37 C 106.10 23.04 110.74 23.78 114.89 24.69 C 121.03 26.66 126.73 30.37 130.29 35.85 L 130.97 35.84 C 132.13 32.23 133.74 28.66 136.09 25.66 C 136.59 25.64 137.59 25.60 138.09 25.58 C 139.46 28.78 138.87 32.43 139.33 35.83 C 142.81 30.28 147.33 25.49 151.89 20.81 C 156.96 15.54 163.34 11.80 169.86 8.60 C 169.83 8.32 169.77 7.75 169.74 7.46 C 166.29 7.11 162.91 6.09 159.40 6.17 C 152.58 6.04 146.53 9.53 140.51 12.25 C 132.49 16.26 122.44 17.58 114.26 13.26 C 114.37 14.08 114.58 15.70 114.69 16.51 C 110.27 13.52 110.59 6.96 111.32 2.27 C 108.12 2.66 104.85 3.81 102.05 5.31 M 91.51 34.37 C 84.31 38.86 79.91 47.39 80.69 55.87 C 81.42 59.22 81.41 63.29 84.52 65.47 C 93.08 72.44 105.26 72.48 115.36 69.18 C 122.84 67.90 129.82 62.24 130.89 54.45 C 132.17 48.97 130.48 42.92 127.94 37.96 C 125.59 32.77 120.42 29.60 115.25 27.72 C 106.85 24.50 98.27 29.74 91.51 34.37 M 133.63 35.45 C 133.33 37.29 131.27 38.79 132.11 40.70 C 133.75 42.35 132.65 45.58 134.83 46.59 C 135.19 46.17 135.93 45.31 136.30 44.89 C 137.05 39.98 136.33 35.00 136.64 30.06 C 134.72 31.06 134.75 33.74 133.63 35.45 M 69.52 38.30 C 70.29 43.24 72.68 47.76 75.11 52.08 C 75.77 53.21 75.92 55.18 77.65 54.98 C 77.55 51.64 78.44 48.41 78.97 45.16 C 78.43 44.83 77.36 44.17 76.83 43.84 C 74.87 41.53 72.33 39.50 69.52 38.30 Z" />
<path fill="#bbd5de" opacity="1.00" d=" M 102.05 5.31 C 104.85 3.81 108.12 2.66 111.32 2.27 C 110.59 6.96 110.27 13.52 114.69 16.51 C 114.45 19.24 114.62 21.97 114.89 24.69 C 110.74 23.78 106.10 23.04 102.26 25.37 C 100.46 18.84 101.32 11.93 102.05 5.31 Z" />
<path fill="#fff9e1" opacity="1.00" d=" M 91.61 11.63 C 94.97 9.35 98.25 6.82 102.05 5.31 C 101.32 11.93 100.46 18.84 102.26 25.37 C 94.22 28.41 86.46 33.24 81.42 40.34 C 74.49 36.73 67.52 33.20 60.41 29.94 C 71.69 25.53 81.89 18.78 91.61 11.63 Z" />
<path fill="#fff9e1" opacity="1.00" d=" M 140.51 12.25 C 146.53 9.53 152.58 6.04 159.40 6.17 C 157.12 9.07 153.61 10.57 150.92 13.03 C 146.16 16.70 142.12 21.16 138.09 25.58 C 137.59 25.60 136.59 25.64 136.09 25.66 C 133.74 28.66 132.13 32.23 130.97 35.84 L 130.29 35.85 C 126.73 30.37 121.03 26.66 114.89 24.69 C 114.62 21.97 114.45 19.24 114.69 16.51 C 114.58 15.70 114.37 14.08 114.26 13.26 C 122.44 17.58 132.49 16.26 140.51 12.25 Z" />
<path fill="#c0d8de" opacity="1.00" d=" M 159.40 6.17 C 162.91 6.09 166.29 7.11 169.74 7.46 C 169.77 7.75 169.83 8.32 169.86 8.60 C 163.34 11.80 156.96 15.54 151.89 20.81 C 147.33 25.49 142.81 30.28 139.33 35.83 C 138.87 32.43 139.46 28.78 138.09 25.58 C 142.12 21.16 146.16 16.70 150.92 13.03 C 153.61 10.57 157.12 9.07 159.40 6.17 Z" />
<path fill="#000000" opacity="1.00" d=" M 0.00 32.75 C 9.23 29.62 18.58 26.80 27.90 23.97 L 28.81 24.12 C 37.50 32.89 46.91 40.98 55.11 50.23 C 55.89 48.99 56.17 46.73 58.00 46.62 C 61.13 46.89 64.98 47.58 66.13 51.00 C 65.74 54.50 64.72 57.90 63.17 61.06 C 64.31 62.76 65.76 64.27 66.71 66.10 C 67.06 67.64 66.51 69.20 66.50 70.76 C 65.11 72.47 63.02 73.65 60.95 74.40 C 60.44 73.76 59.41 72.48 58.90 71.84 C 57.83 73.94 57.10 76.56 54.96 77.84 C 51.83 77.71 48.56 77.65 45.65 76.33 C 43.83 75.80 44.72 73.75 44.79 72.46 C 44.11 71.31 43.81 70.03 43.44 68.77 C 33.86 66.24 23.99 64.71 14.63 61.45 C 9.25 52.80 4.33 43.78 0.00 34.53 L 0.00 32.75 M 2.57 34.16 C 2.63 35.17 3.05 36.09 3.81 36.90 C 7.50 43.59 10.94 50.41 14.68 57.06 C 14.90 58.19 16.07 59.56 17.22 58.45 C 19.53 56.67 22.16 55.40 24.70 53.99 C 24.47 57.19 18.86 57.77 18.36 60.31 C 22.50 60.90 26.47 62.33 30.57 63.15 C 36.39 64.50 42.27 65.73 47.87 67.86 C 49.38 66.40 50.13 63.91 51.05 61.94 C 47.46 58.95 42.91 56.85 39.70 53.27 C 44.32 54.18 47.68 58.20 51.89 59.92 C 52.89 57.65 53.83 55.35 54.85 53.09 C 53.32 51.88 52.28 49.98 50.68 48.95 C 43.91 41.54 36.12 34.92 29.15 27.62 C 29.65 29.57 29.90 31.57 30.26 33.55 L 30.35 33.58 C 30.77 38.74 31.45 43.88 31.65 49.07 C 30.09 46.15 30.54 42.68 29.72 39.53 C 29.15 35.35 28.22 31.22 27.73 27.02 C 19.21 28.84 11.05 32.14 2.57 34.16 M 58.53 48.52 C 57.77 49.32 57.09 50.20 56.49 51.14 C 57.27 51.69 58.11 52.14 58.99 52.48 C 59.73 53.71 60.75 54.73 61.68 55.81 C 61.74 57.37 60.47 58.52 60.29 59.93 C 59.65 63.03 57.84 65.76 57.18 68.80 C 55.61 69.50 55.90 72.15 54.01 72.37 C 51.47 72.64 48.93 72.94 46.38 72.70 C 46.36 73.16 46.32 74.09 46.30 74.55 C 49.10 75.13 52.36 75.97 55.03 75.29 C 55.60 72.93 57.06 70.98 57.92 68.74 C 59.06 66.45 60.47 63.87 60.86 61.23 L 61.78 60.86 C 62.22 57.28 64.34 53.82 63.68 50.20 C 62.60 49.48 61.31 49.01 60.02 48.94 C 59.65 48.84 58.90 48.62 58.53 48.52 M 56.43 54.38 C 54.97 58.49 53.51 62.64 51.37 66.45 L 51.23 66.42 C 51.01 66.89 50.56 67.83 50.33 68.30 C 49.21 68.77 48.03 69.11 46.79 69.31 C 45.31 66.11 43.42 70.95 46.60 70.18 C 49.02 71.01 51.99 70.19 54.33 69.31 C 56.63 65.26 58.16 60.88 59.53 56.44 C 59.20 56.08 58.53 55.34 58.20 54.98 L 57.73 54.14 C 57.41 54.20 56.76 54.32 56.43 54.38 M 62.40 63.42 C 61.73 64.34 61.40 65.42 61.06 66.49 C 62.61 66.48 63.84 67.42 65.18 68.05 C 64.91 66.23 63.47 64.85 62.40 63.42 M 61.19 69.33 C 59.61 69.67 60.45 72.43 61.96 71.71 C 64.72 71.90 63.45 67.34 61.19 69.33 Z" />
<path fill="#fff4cd" opacity="1.00" d=" M 2.57 34.16 C 11.05 32.14 19.21 28.84 27.73 27.02 C 28.22 31.22 29.15 35.35 29.72 39.53 C 27.05 37.27 27.47 33.44 26.17 30.45 C 18.81 32.91 11.40 35.25 3.81 36.90 C 3.05 36.09 2.63 35.17 2.57 34.16 Z" />
<path fill="#ff4d65" opacity="1.00" d=" M 91.51 34.37 C 98.27 29.74 106.85 24.50 115.25 27.72 C 120.42 29.60 125.59 32.77 127.94 37.96 C 130.48 42.92 132.17 48.97 130.89 54.45 C 129.93 48.73 128.53 42.80 124.72 38.25 C 121.31 35.02 116.96 31.93 112.03 32.31 C 106.69 32.54 101.11 33.15 96.40 35.86 C 92.84 33.20 86.58 37.37 88.73 41.61 C 85.48 41.87 84.16 45.44 83.25 48.09 C 81.86 53.15 80.98 59.74 85.44 63.56 C 88.50 67.40 93.61 67.96 98.15 68.48 C 102.06 68.70 106.04 68.89 109.91 68.14 C 111.69 68.13 114.42 66.95 115.36 69.18 C 105.26 72.48 93.08 72.44 84.52 65.47 C 81.41 63.29 81.42 59.22 80.69 55.87 C 79.91 47.39 84.31 38.86 91.51 34.37 Z" />
<path fill="#fff4cd" opacity="1.00" d=" M 29.15 27.62 C 36.12 34.92 43.91 41.54 50.68 48.95 C 49.39 48.95 48.28 48.52 47.36 47.68 C 43.11 43.91 38.77 40.23 34.72 36.24 C 33.50 34.99 32.09 33.94 30.35 33.58 L 30.26 33.55 C 29.90 31.57 29.65 29.57 29.15 27.62 Z" />
<path fill="#c4dade" opacity="1.00" d=" M 51.09 32.22 C 54.28 31.85 57.43 31.15 60.41 29.94 C 67.52 33.20 74.49 36.73 81.42 40.34 C 80.75 41.12 80.91 43.15 79.47 42.84 C 76.61 39.69 73.16 36.35 68.87 35.52 C 65.29 36.72 67.93 41.69 68.10 44.33 C 62.85 39.96 57.03 36.38 51.19 32.90 L 51.09 32.22 Z" />
<path fill="#ffe275" opacity="1.00" d=" M 133.63 35.45 C 134.75 33.74 134.72 31.06 136.64 30.06 C 136.33 35.00 137.05 39.98 136.30 44.89 C 136.52 42.02 136.54 39.14 136.21 36.28 C 134.08 36.75 134.37 40.03 132.11 40.70 C 131.27 38.79 133.33 37.29 133.63 35.45 Z" />
<path fill="#c9d1e0" opacity="1.00" d=" M 3.81 36.90 C 11.40 35.25 18.81 32.91 26.17 30.45 C 27.47 33.44 27.05 37.27 29.72 39.53 C 30.54 42.68 30.09 46.15 31.65 49.07 C 31.45 43.88 30.77 38.74 30.35 33.58 C 32.09 33.94 33.50 34.99 34.72 36.24 C 38.77 40.23 43.11 43.91 47.36 47.68 C 48.28 48.52 49.39 48.95 50.68 48.95 C 52.28 49.98 53.32 51.88 54.85 53.09 C 53.83 55.35 52.89 57.65 51.89 59.92 C 47.68 58.20 44.32 54.18 39.70 53.27 C 39.30 53.20 38.51 53.06 38.11 52.99 C 30.14 49.69 22.19 46.36 14.34 42.79 C 12.57 42.02 10.82 41.08 8.86 40.90 C 11.61 46.76 14.32 52.66 17.22 58.45 C 16.07 59.56 14.90 58.19 14.68 57.06 C 10.94 50.41 7.50 43.59 3.81 36.90 Z" />
<path fill="#d1396b" opacity="1.00" d=" M 96.40 35.86 C 101.11 33.15 106.69 32.54 112.03 32.31 C 116.96 31.93 121.31 35.02 124.72 38.25 C 128.53 42.80 129.93 48.73 130.89 54.45 C 129.82 62.24 122.84 67.90 115.36 69.18 C 114.42 66.95 111.69 68.13 109.91 68.14 C 110.97 67.40 112.02 66.64 113.10 65.92 C 116.16 64.68 119.66 63.59 121.54 60.65 C 124.33 56.81 122.34 50.92 118.12 49.05 C 119.74 45.60 116.33 41.72 112.94 41.25 C 108.86 40.88 104.46 40.76 100.82 42.93 C 98.87 44.42 96.69 42.76 94.78 42.07 C 96.77 40.65 97.14 38.07 96.40 35.86 Z" />
<path fill="#fff2cb" opacity="1.00" d=" M 88.73 41.61 C 86.58 37.37 92.84 33.20 96.40 35.86 C 97.14 38.07 96.77 40.65 94.78 42.07 C 92.80 43.16 90.46 43.25 88.73 41.61 Z" />
<path fill="#9b6036" opacity="1.00" d=" M 132.11 40.70 C 134.37 40.03 134.08 36.75 136.21 36.28 C 136.54 39.14 136.52 42.02 136.30 44.89 C 135.93 45.31 135.19 46.17 134.83 46.59 C 132.65 45.58 133.75 42.35 132.11 40.70 Z" />
<path fill="#ffe275" opacity="1.00" d=" M 69.52 38.30 C 72.33 39.50 74.87 41.53 76.83 43.84 C 76.22 46.58 75.98 49.40 75.11 52.08 C 72.68 47.76 70.29 43.24 69.52 38.30 Z" />
<path fill="#8b8caf" opacity="1.00" d=" M 8.86 40.90 C 10.82 41.08 12.57 42.02 14.34 42.79 C 22.19 46.36 30.14 49.69 38.11 52.99 C 35.47 54.59 36.15 58.15 34.29 60.29 C 33.06 61.26 31.85 62.26 30.57 63.15 C 26.47 62.33 22.50 60.90 18.36 60.31 C 18.86 57.77 24.47 57.19 24.70 53.99 C 22.16 55.40 19.53 56.67 17.22 58.45 C 14.32 52.66 11.61 46.76 8.86 40.90 Z" />
<path fill="#ba2f6e" opacity="1.00" d=" M 100.82 42.93 C 104.46 40.76 108.86 40.88 112.94 41.25 C 116.33 41.72 119.74 45.60 118.12 49.05 C 110.21 47.22 101.64 47.51 94.37 51.39 C 91.15 53.23 89.35 57.30 89.99 60.90 C 91.38 63.14 93.93 64.57 96.35 65.49 C 101.88 66.44 107.52 66.00 113.10 65.92 C 112.02 66.64 110.97 67.40 109.91 68.14 C 106.04 68.89 102.06 68.70 98.15 68.48 C 93.61 67.96 88.50 67.40 85.44 63.56 C 80.98 59.74 81.86 53.15 83.25 48.09 C 84.16 45.44 85.48 41.87 88.73 41.61 C 90.46 43.25 92.80 43.16 94.78 42.07 C 96.69 42.76 98.87 44.42 100.82 42.93 M 94.99 46.24 C 94.42 47.94 95.01 48.51 96.76 47.93 C 97.20 46.30 96.60 45.74 94.99 46.24 Z" />
<path fill="#a77c43" opacity="1.00" d=" M 76.83 43.84 C 77.36 44.17 78.43 44.83 78.97 45.16 C 78.44 48.41 77.55 51.64 77.65 54.98 C 75.92 55.18 75.77 53.21 75.11 52.08 C 75.98 49.40 76.22 46.58 76.83 43.84 Z" />
<path fill="#f6d8bf" opacity="1.00" d=" M 94.99 46.24 C 96.60 45.74 97.20 46.30 96.76 47.93 C 95.01 48.51 94.42 47.94 94.99 46.24 Z" />
<path fill="#ffe275" opacity="1.00" d=" M 58.53 48.52 C 58.90 48.62 59.65 48.84 60.02 48.94 C 59.65 50.12 59.30 51.29 58.99 52.48 C 58.11 52.14 57.27 51.69 56.49 51.14 C 57.09 50.20 57.77 49.32 58.53 48.52 Z" />
<path fill="#9b2172" opacity="1.00" d=" M 94.37 51.39 C 101.64 47.51 110.21 47.22 118.12 49.05 C 122.34 50.92 124.33 56.81 121.54 60.65 C 119.66 63.59 116.16 64.68 113.10 65.92 C 107.52 66.00 101.88 66.44 96.35 65.49 C 93.93 64.57 91.38 63.14 89.99 60.90 C 89.35 57.30 91.15 53.23 94.37 51.39 Z" />
<path fill="#a87540" opacity="1.00" d=" M 60.02 48.94 C 61.31 49.01 62.60 49.48 63.68 50.20 C 64.34 53.82 62.22 57.28 61.78 60.86 L 60.86 61.23 C 60.71 60.91 60.43 60.25 60.29 59.93 C 60.47 58.52 61.74 57.37 61.68 55.81 C 60.75 54.73 59.73 53.71 58.99 52.48 C 59.30 51.29 59.65 50.12 60.02 48.94 Z" />
<path fill="#9294b5" opacity="1.00" d=" M 38.11 52.99 C 38.51 53.06 39.30 53.20 39.70 53.27 C 42.91 56.85 47.46 58.95 51.05 61.94 C 50.13 63.91 49.38 66.40 47.87 67.86 C 42.27 65.73 36.39 64.50 30.57 63.15 C 31.85 62.26 33.06 61.26 34.29 60.29 C 36.15 58.15 35.47 54.59 38.11 52.99 Z" />
<path fill="#ffe275" opacity="1.00" d=" M 56.43 54.38 C 56.76 54.32 57.41 54.20 57.73 54.14 L 58.20 54.98 C 58.44 56.52 58.41 58.15 57.33 59.39 C 55.57 61.70 54.91 64.88 52.74 66.79 C 52.40 66.71 51.71 66.54 51.37 66.45 C 53.51 62.64 54.97 58.49 56.43 54.38 Z" />
<path fill="#9b6036" opacity="1.00" d=" M 58.20 54.98 C 58.53 55.34 59.20 56.08 59.53 56.44 C 58.16 60.88 56.63 65.26 54.33 69.31 C 51.99 70.19 49.02 71.01 46.60 70.18 L 46.79 69.31 C 48.03 69.11 49.21 68.77 50.33 68.30 C 50.56 67.83 51.01 66.89 51.23 66.42 L 51.37 66.45 C 51.71 66.54 52.40 66.71 52.74 66.79 C 54.91 64.88 55.57 61.70 57.33 59.39 C 58.41 58.15 58.44 56.52 58.20 54.98 Z" />
<path fill="#ffe275" opacity="1.00" d=" M 60.29 59.93 C 60.43 60.25 60.71 60.91 60.86 61.23 C 60.47 63.87 59.06 66.45 57.92 68.74 L 57.18 68.80 C 57.84 65.76 59.65 63.03 60.29 59.93 Z" />
<path fill="#c9d1e0" opacity="1.00" d=" M 62.40 63.42 C 63.47 64.85 64.91 66.23 65.18 68.05 C 63.84 67.42 62.61 66.48 61.06 66.49 C 61.40 65.42 61.73 64.34 62.40 63.42 Z" />
<path fill="#b7994f" opacity="1.00" d=" M 46.60 70.18 C 43.42 70.95 45.31 66.11 46.79 69.31 L 46.60 70.18 Z" />
<path fill="#9f6438" opacity="1.00" d=" M 54.01 72.37 C 55.90 72.15 55.61 69.50 57.18 68.80 L 57.92 68.74 C 57.06 70.98 55.60 72.93 55.03 75.29 C 52.36 75.97 49.10 75.13 46.30 74.55 C 46.32 74.09 46.36 73.16 46.38 72.70 C 48.93 72.94 51.47 72.64 54.01 72.37 Z" />
<path fill="#ff4d65" opacity="1.00" d=" M 61.19 69.33 C 63.45 67.34 64.72 71.90 61.96 71.71 C 60.45 72.43 59.61 69.67 61.19 69.33 Z" />
<path fill="#000000" opacity="1.00" d=" M 94.56 85.80 C 104.35 84.07 114.27 85.53 124.02 86.70 C 126.25 87.01 126.51 90.07 124.12 90.34 C 116.78 91.19 109.37 90.83 102.00 90.72 C 98.26 90.29 94.24 90.77 90.76 89.10 C 89.25 86.65 92.99 86.18 94.56 85.80 Z" />
</svg>
