<?xml version="1.0" encoding="UTF-8" ?>
<!DOCTYPE svg PUBLIC "-//W3C//DTD SVG 1.1//EN" "http://www.w3.org/Graphics/SVG/1.1/DTD/svg11.dtd">
<svg width="110pt" height="97pt" viewBox="0 0 110 97" version="1.1" xmlns="http://www.w3.org/2000/svg">
<path fill="#020202" opacity="0.98" d=" M 64.52 10.58 C 72.59 5.99 82.48 5.45 91.37 7.67 C 97.20 9.02 101.31 14.01 103.78 19.18 C 104.65 22.72 104.31 26.44 104.21 30.06 C 104.03 34.24 100.39 36.99 97.51 39.51 C 93.36 42.93 87.88 43.51 82.88 44.83 C 80.29 47.31 79.29 51.10 76.23 53.15 C 75.27 50.98 74.36 48.78 73.42 46.59 C 70.24 45.52 66.96 44.61 64.00 42.98 C 58.62 39.65 55.59 33.25 55.60 27.01 C 55.79 20.55 59.24 14.29 64.52 10.58 M 59.63 32.59 C 61.66 39.44 68.82 42.89 75.42 43.78 C 75.99 45.53 76.71 47.23 77.58 48.85 C 78.82 46.67 79.71 44.17 81.52 42.39 C 85.87 40.62 90.82 40.37 94.85 37.73 C 99.98 35.05 103.29 28.99 102.19 23.23 C 101.08 18.58 98.51 13.99 94.19 11.65 C 88.62 8.59 82.02 9.08 75.90 9.38 C 64.94 9.89 55.86 21.99 59.63 32.59 Z" />
<path fill="#fff9e1" opacity="1.00" d=" M 59.63 32.59 C 55.86 21.99 64.94 9.89 75.90 9.38 C 82.02 9.08 88.62 8.59 94.19 11.65 C 98.51 13.99 101.08 18.58 102.19 23.23 C 103.29 28.99 99.98 35.05 94.85 37.73 C 90.82 40.37 85.87 40.62 81.52 42.39 C 79.71 44.17 78.82 46.67 77.58 48.85 C 76.71 47.23 75.99 45.53 75.42 43.78 C 68.82 42.89 61.66 39.44 59.63 32.59 M 79.15 15.84 C 78.99 19.84 80.07 23.72 81.75 27.31 C 79.45 28.55 76.01 29.75 76.33 33.00 C 75.93 34.90 77.50 36.21 78.48 37.60 C 81.01 37.88 83.80 37.61 85.50 35.47 C 86.68 30.94 83.50 26.88 83.03 22.47 C 83.83 22.39 85.42 22.25 86.21 22.18 C 84.21 19.74 82.13 17.13 79.15 15.84 Z" />
<path fill="#010101" opacity="1.00" d=" M 79.15 15.84 C 82.13 17.13 84.21 19.74 86.21 22.18 C 85.42 22.25 83.83 22.39 83.03 22.47 C 83.50 26.88 86.68 30.94 85.50 35.47 C 83.80 37.61 81.01 37.88 78.48 37.60 C 77.50 36.21 75.93 34.90 76.33 33.00 C 76.01 29.75 79.45 28.55 81.75 27.31 C 80.07 23.72 78.99 19.84 79.15 15.84 Z" />
<path fill="#000000" opacity="1.00" d=" M 18.34 55.32 C 26.46 47.53 38.66 45.94 49.34 47.91 C 57.82 50.46 65.71 56.02 70.30 63.67 C 73.98 69.57 72.14 76.84 74.59 83.11 C 75.32 85.79 72.75 87.50 70.79 88.67 C 64.74 91.98 57.79 93.15 51.05 94.11 C 35.45 94.73 19.00 95.16 4.57 88.29 C 1.82 87.03 0.97 84.22 1.32 81.41 C 3.64 79.74 5.93 78.04 8.43 76.64 C 8.63 68.56 12.26 60.65 18.34 55.32 M 24.61 54.58 C 18.61 57.10 14.66 62.81 12.67 68.82 C 10.44 72.36 11.78 76.77 11.42 80.71 C 15.76 84.55 21.32 86.49 26.68 88.41 L 27.48 88.01 C 32.09 90.27 37.30 90.35 42.29 90.90 C 48.01 91.74 53.85 90.74 59.34 89.11 C 63.41 87.66 67.86 85.80 70.10 81.86 C 71.22 74.62 69.92 66.30 64.42 61.04 C 62.50 59.16 60.55 57.28 58.16 56.00 C 48.71 48.43 34.88 48.86 24.61 54.58 Z" />
<path fill="#5aa8f7" opacity="1.00" d=" M 24.61 54.58 C 34.88 48.86 48.71 48.43 58.16 56.00 C 56.50 56.60 54.84 57.16 53.16 57.68 C 51.00 56.00 48.61 54.46 45.81 54.25 C 38.42 53.50 30.38 53.70 23.95 57.87 C 17.84 61.49 14.24 68.22 13.26 75.11 C 13.09 73.01 12.86 70.91 12.67 68.82 C 14.66 62.81 18.61 57.10 24.61 54.58 Z" />
<path fill="#4476d5" opacity="1.00" d=" M 23.95 57.87 C 30.38 53.70 38.42 53.50 45.81 54.25 C 48.61 54.46 51.00 56.00 53.16 57.68 C 52.81 59.27 52.07 60.88 52.36 62.54 C 53.51 63.82 54.87 64.86 56.13 66.02 C 59.99 69.07 57.83 73.80 57.67 77.82 C 58.73 80.20 60.66 82.23 60.81 84.95 C 59.19 83.01 57.70 80.80 55.35 79.66 C 48.23 75.77 39.94 75.00 31.99 74.63 C 28.20 74.61 24.26 74.34 20.62 75.59 C 18.35 76.27 16.63 79.38 18.56 81.30 C 21.48 84.64 26.15 85.52 30.25 86.60 C 29.56 86.95 28.18 87.65 27.48 88.01 L 26.68 88.41 C 21.32 86.49 15.76 84.55 11.42 80.71 C 11.78 76.77 10.44 72.36 12.67 68.82 C 12.86 70.91 13.09 73.01 13.26 75.11 C 14.24 68.22 17.84 61.49 23.95 57.87 M 48.26 70.16 C 48.28 70.85 48.30 72.22 48.32 72.91 C 50.10 72.81 51.77 72.25 51.96 70.23 C 50.73 70.19 49.49 70.16 48.26 70.16 Z" />
<path fill="#f4f5ff" opacity="1.00" d=" M 53.16 57.68 C 54.84 57.16 56.50 56.60 58.16 56.00 C 60.55 57.28 62.50 59.16 64.42 61.04 C 63.84 62.26 63.43 63.58 62.61 64.67 C 60.67 65.80 58.28 65.64 56.13 66.02 C 54.87 64.86 53.51 63.82 52.36 62.54 C 52.07 60.88 52.81 59.27 53.16 57.68 Z" />
<path fill="#4a85e0" opacity="1.00" d=" M 64.42 61.04 C 69.92 66.30 71.22 74.62 70.10 81.86 C 67.86 85.80 63.41 87.66 59.34 89.11 C 53.85 90.74 48.01 91.74 42.29 90.90 C 37.30 90.35 32.09 90.27 27.48 88.01 C 28.18 87.65 29.56 86.95 30.25 86.60 C 40.37 88.20 51.16 89.24 60.81 84.95 C 60.66 82.23 58.73 80.20 57.67 77.82 C 57.83 73.80 59.99 69.07 56.13 66.02 C 58.28 65.64 60.67 65.80 62.61 64.67 C 63.43 63.58 63.84 62.26 64.42 61.04 Z" />
<path fill="#f4f5ff" opacity="1.00" d=" M 48.26 70.16 C 49.49 70.16 50.73 70.19 51.96 70.23 C 51.77 72.25 50.10 72.81 48.32 72.91 C 48.30 72.22 48.28 70.85 48.26 70.16 Z" />
<path fill="#252fa0" opacity="1.00" d=" M 20.62 75.59 C 24.26 74.34 28.20 74.61 31.99 74.63 C 39.94 75.00 48.23 75.77 55.35 79.66 C 57.70 80.80 59.19 83.01 60.81 84.95 C 51.16 89.24 40.37 88.20 30.25 86.60 C 26.15 85.52 21.48 84.64 18.56 81.30 C 16.63 79.38 18.35 76.27 20.62 75.59 Z" />
</svg>
