<?xml version="1.0" encoding="UTF-8" ?>
<!DOCTYPE svg PUBLIC "-//W3C//DTD SVG 1.1//EN" "http://www.w3.org/Graphics/SVG/1.1/DTD/svg11.dtd">
<svg width="391pt" height="253pt" viewBox="0 0 391 253" version="1.1" xmlns="http://www.w3.org/2000/svg">
<path fill="#000000" opacity="1.00" d=" M 102.99 0.00 L 105.98 0.00 C 108.08 3.40 109.89 6.97 111.31 10.70 C 115.35 21.09 119.71 31.35 123.51 41.82 C 130.21 41.54 136.89 40.86 143.59 40.46 C 146.42 35.66 149.36 30.91 151.87 25.93 C 153.35 23.19 154.66 20.19 157.14 18.18 C 160.28 18.72 161.28 22.13 162.32 24.68 C 164.24 30.34 166.03 36.05 168.36 41.56 C 175.44 42.79 182.68 43.78 189.29 46.76 C 193.74 48.79 198.25 50.70 202.93 52.17 C 207.30 47.43 211.45 42.50 215.48 37.47 C 217.31 35.45 219.41 32.42 222.56 33.30 C 224.77 35.47 225.64 38.55 226.57 41.41 C 229.57 51.79 232.51 62.18 235.51 72.56 C 236.39 75.64 237.16 78.97 236.00 82.09 C 234.19 87.56 233.01 93.19 232.05 98.85 C 252.49 114.37 269.47 134.74 279.59 158.42 C 285.73 172.75 288.65 188.48 287.82 204.05 C 287.49 210.30 286.11 216.42 285.00 222.56 C 314.38 223.69 343.85 224.88 373.00 228.95 C 379.19 230.09 386.24 230.27 391.00 234.95 L 391.00 238.12 C 384.38 242.06 376.50 242.13 369.04 242.55 C 359.03 242.90 349.01 243.42 338.99 243.37 C 317.31 243.41 295.62 243.77 273.97 242.71 C 265.68 242.41 257.39 243.08 249.11 242.54 C 243.36 242.13 237.65 243.03 232.00 243.97 C 213.08 246.88 194.10 249.38 175.04 251.09 C 155.06 252.62 135.02 252.43 115.00 252.46 C 99.97 252.44 84.94 252.50 69.93 251.68 C 50.62 250.58 31.09 249.14 12.49 243.47 C 10.22 242.69 7.64 241.84 6.42 239.60 C 4.17 235.60 3.33 231.02 2.34 226.60 C -2.26 202.88 1.54 178.22 9.74 155.71 C 19.93 127.90 38.62 102.60 64.26 87.27 C 65.91 86.06 68.16 85.01 68.51 82.77 C 69.85 77.24 69.71 71.31 72.19 66.09 C 73.79 62.77 75.91 59.73 77.46 56.39 C 84.48 41.23 91.38 26.00 97.42 10.42 C 98.83 6.74 100.43 3.05 102.99 0.00 M 97.29 26.29 C 94.66 33.24 91.00 39.77 88.80 46.88 C 86.38 49.06 85.80 52.54 84.61 55.44 C 92.43 52.69 99.98 49.23 107.78 46.41 C 111.13 45.57 114.43 44.52 117.64 43.24 C 113.70 33.74 110.39 23.97 106.07 14.64 C 105.81 12.91 105.16 11.26 104.64 9.59 C 101.35 14.76 99.85 20.77 97.29 26.29 M 146.97 40.55 C 152.05 40.73 157.12 40.96 162.20 41.15 C 160.48 36.04 158.82 30.91 156.91 25.86 C 153.59 30.75 150.34 35.70 146.97 40.55 M 213.45 49.28 C 211.84 51.10 210.26 52.95 208.72 54.84 C 210.87 56.05 213.03 57.24 215.20 58.43 C 220.23 61.72 224.56 65.90 228.84 70.09 C 226.60 61.37 223.65 52.86 221.58 44.10 C 221.22 43.38 220.49 41.95 220.12 41.24 C 217.85 43.88 215.65 46.58 213.45 49.28 M 100.40 55.38 C 94.04 58.09 87.23 60.08 81.63 64.30 C 79.32 64.72 77.74 66.85 76.94 68.93 C 75.43 73.07 74.79 77.46 73.96 81.76 C 84.61 76.69 95.79 72.55 107.43 70.44 C 113.96 69.08 120.62 68.67 127.23 67.90 C 133.07 68.42 138.95 68.45 144.81 68.46 C 147.38 68.83 149.99 69.23 152.59 68.97 C 162.49 71.37 172.68 72.48 182.44 75.51 C 198.14 79.67 212.78 86.91 226.75 95.07 C 227.45 90.55 228.93 86.02 228.48 81.42 C 226.87 77.67 223.99 74.65 221.38 71.58 C 214.68 63.99 205.24 59.68 196.00 56.00 C 192.18 54.62 188.41 52.82 184.32 52.40 C 177.23 48.84 169.36 46.88 161.41 47.06 C 153.01 46.22 144.53 46.16 136.10 46.56 C 123.77 47.20 111.76 50.65 100.40 55.38 M 117.66 75.75 C 99.29 78.11 81.06 84.13 65.72 94.66 C 64.72 95.22 63.80 95.93 62.97 96.72 C 58.89 98.87 55.30 101.80 51.89 104.86 C 30.39 123.88 16.40 150.50 10.43 178.40 C 7.61 190.82 6.45 203.67 7.69 216.38 C 8.57 223.54 10.03 230.62 11.04 237.77 C 13.37 238.21 15.70 238.64 18.02 239.15 C 42.23 244.91 67.26 245.29 92.01 246.16 C 116.67 246.50 141.35 246.53 165.98 245.13 C 193.38 243.83 220.44 239.07 247.58 235.31 C 256.01 233.77 264.83 233.28 272.74 229.72 C 275.84 228.40 277.10 225.04 278.00 222.05 C 281.22 210.89 282.22 199.05 280.60 187.54 C 277.52 162.30 264.01 139.43 246.91 121.09 C 226.14 98.85 197.63 84.89 168.01 78.98 C 151.52 75.32 134.48 74.23 117.66 75.75 Z" />
<path fill="#fffefc" opacity="1.00" d=" M 97.29 26.29 C 99.85 20.77 101.35 14.76 104.64 9.59 C 105.16 11.26 105.81 12.91 106.07 14.64 C 105.76 15.59 105.43 16.53 105.07 17.45 C 101.13 25.17 97.48 33.02 93.92 40.91 C 92.91 43.43 90.93 45.30 88.80 46.88 C 91.00 39.77 94.66 33.24 97.29 26.29 Z" />
<path fill="#b48347" opacity="1.00" d=" M 106.07 14.64 C 110.39 23.97 113.70 33.74 117.64 43.24 C 114.43 44.52 111.13 45.57 107.78 46.41 C 105.45 36.88 108.06 26.88 105.07 17.45 C 105.43 16.53 105.76 15.59 106.07 14.64 Z" />
<path fill="#fde074" opacity="1.00" d=" M 93.92 40.91 C 97.48 33.02 101.13 25.17 105.07 17.45 C 108.06 26.88 105.45 36.88 107.78 46.41 C 99.98 49.23 92.43 52.69 84.61 55.44 C 85.80 52.54 86.38 49.06 88.80 46.88 C 90.93 45.30 92.91 43.43 93.92 40.91 Z" />
<path fill="#bf904d" opacity="1.00" d=" M 146.97 40.55 C 150.34 35.70 153.59 30.75 156.91 25.86 C 158.82 30.91 160.48 36.04 162.20 41.15 C 157.12 40.96 152.05 40.73 146.97 40.55 Z" />
<path fill="#fffffe" opacity="1.00" d=" M 213.45 49.28 C 215.65 46.58 217.85 43.88 220.12 41.24 C 220.49 41.95 221.22 43.38 221.58 44.10 C 220.01 46.85 218.34 49.56 216.97 52.42 C 215.79 51.38 214.61 50.33 213.45 49.28 Z" />
<path fill="#ca9f54" opacity="1.00" d=" M 221.58 44.10 C 223.65 52.86 226.60 61.37 228.84 70.09 C 224.56 65.90 220.23 61.72 215.20 58.43 C 215.76 56.42 216.29 54.40 216.97 52.42 C 218.34 49.56 220.01 46.85 221.58 44.10 Z" />
<path fill="#fffffe" opacity="1.00" d=" M 100.40 55.38 C 111.76 50.65 123.77 47.20 136.10 46.56 C 144.53 46.16 153.01 46.22 161.41 47.06 C 160.16 47.71 158.90 48.36 157.62 48.94 C 149.48 50.69 141.19 51.66 132.95 52.77 C 125.20 53.65 117.64 55.64 109.92 56.72 C 104.16 57.32 98.73 59.44 93.09 60.63 C 90.38 61.04 87.70 61.93 85.84 64.04 C 84.43 64.12 83.03 64.18 81.63 64.30 C 87.23 60.08 94.04 58.09 100.40 55.38 Z" />
<path fill="#d8b05d" opacity="1.00" d=" M 161.41 47.06 C 169.36 46.88 177.23 48.84 184.32 52.40 C 182.66 52.32 181.00 52.31 179.34 52.29 C 181.25 55.57 185.63 59.72 182.61 63.57 C 178.70 67.44 172.78 67.95 167.57 68.24 C 162.57 68.28 157.56 68.35 152.59 68.97 C 149.99 69.23 147.38 68.83 144.81 68.46 C 149.93 68.41 155.47 67.01 158.51 62.54 C 161.79 58.43 159.09 53.21 157.62 48.94 C 158.90 48.36 160.16 47.71 161.41 47.06 Z" />
<path fill="#e2be63" opacity="1.00" d=" M 132.95 52.77 C 141.19 51.66 149.48 50.69 157.62 48.94 C 159.09 53.21 161.79 58.43 158.51 62.54 C 155.47 67.01 149.93 68.41 144.81 68.46 C 138.95 68.45 133.07 68.42 127.23 67.90 C 130.01 64.35 134.34 62.48 137.10 58.95 C 136.09 56.66 134.48 54.72 132.95 52.77 Z" />
<path fill="#ffe476" opacity="1.00" d=" M 208.72 54.84 C 210.26 52.95 211.84 51.10 213.45 49.28 C 214.61 50.33 215.79 51.38 216.97 52.42 C 216.29 54.40 215.76 56.42 215.20 58.43 C 213.03 57.24 210.87 56.05 208.72 54.84 Z" />
<path fill="#bf904d" opacity="1.00" d=" M 179.34 52.29 C 181.00 52.31 182.66 52.32 184.32 52.40 C 188.41 52.82 192.18 54.62 196.00 56.00 C 205.24 59.68 214.68 63.99 221.38 71.58 C 223.99 74.65 226.87 77.67 228.48 81.42 C 228.93 86.02 227.45 90.55 226.75 95.07 C 212.78 86.91 198.14 79.67 182.44 75.51 C 172.68 72.48 162.49 71.37 152.59 68.97 C 157.56 68.35 162.57 68.28 167.57 68.24 C 172.78 67.95 178.70 67.44 182.61 63.57 C 185.63 59.72 181.25 55.57 179.34 52.29 M 214.98 76.09 C 214.40 79.93 214.40 86.71 219.83 86.54 C 224.33 84.86 224.01 78.04 220.71 75.27 C 218.78 75.33 216.88 75.77 214.98 76.09 Z" />
<path fill="#f8d971" opacity="1.00" d=" M 109.92 56.72 C 117.64 55.64 125.20 53.65 132.95 52.77 C 134.48 54.72 136.09 56.66 137.10 58.95 C 134.34 62.48 130.01 64.35 127.23 67.90 C 120.62 68.67 113.96 69.08 107.43 70.44 C 95.79 72.55 84.61 76.69 73.96 81.76 C 74.79 77.46 75.43 73.07 76.94 68.93 C 77.74 66.85 79.32 64.72 81.63 64.30 C 83.03 64.18 84.43 64.12 85.84 64.04 C 85.01 66.70 83.94 69.51 84.58 72.33 C 86.60 74.98 90.47 73.33 92.00 71.01 C 94.43 68.07 93.53 64.06 93.09 60.63 C 98.73 59.44 104.16 57.32 109.92 56.72 Z" />
<path fill="#010100" opacity="1.00" d=" M 85.84 64.04 C 87.70 61.93 90.38 61.04 93.09 60.63 C 93.53 64.06 94.43 68.07 92.00 71.01 C 90.47 73.33 86.60 74.98 84.58 72.33 C 83.94 69.51 85.01 66.70 85.84 64.04 M 87.03 70.49 C 90.36 69.27 91.32 65.75 90.00 62.66 C 88.35 64.98 87.41 67.68 87.03 70.49 Z" />
<path fill="#c13d50" opacity="1.00" d=" M 87.03 70.49 C 87.41 67.68 88.35 64.98 90.00 62.66 C 91.32 65.75 90.36 69.27 87.03 70.49 Z" />
<path fill="#9dceff" opacity="1.00" d=" M 117.66 75.75 C 134.48 74.23 151.52 75.32 168.01 78.98 C 197.63 84.89 226.14 98.85 246.91 121.09 C 264.01 139.43 277.52 162.30 280.60 187.54 C 282.22 199.05 281.22 210.89 278.00 222.05 C 277.10 225.04 275.84 228.40 272.74 229.72 C 264.83 233.28 256.01 233.77 247.58 235.31 C 220.44 239.07 193.38 243.83 165.98 245.13 C 141.35 246.53 116.67 246.50 92.01 246.16 C 67.26 245.29 42.23 244.91 18.02 239.15 C 15.70 238.64 13.37 238.21 11.04 237.77 C 10.03 230.62 8.57 223.54 7.69 216.38 C 6.45 203.67 7.61 190.82 10.43 178.40 C 16.40 150.50 30.39 123.88 51.89 104.86 C 55.30 101.80 58.89 98.87 62.97 96.72 C 59.16 100.96 53.09 105.23 54.35 111.72 C 54.80 116.44 59.27 118.90 63.29 120.24 C 60.09 121.58 57.24 123.64 54.81 126.10 C 53.31 124.73 52.39 121.82 49.96 122.17 C 47.07 122.29 44.34 124.75 44.32 127.71 C 45.10 129.22 46.19 130.53 47.18 131.89 C 45.56 132.99 44.08 134.30 42.72 135.71 C 35.12 143.76 28.06 152.66 24.18 163.15 C 20.43 173.39 16.88 183.81 15.58 194.69 C 14.77 201.42 13.25 208.34 14.89 215.07 C 17.52 226.30 27.45 234.55 38.07 237.97 C 47.39 240.00 57.03 239.85 66.52 240.15 C 69.27 240.91 72.00 241.80 74.83 242.23 C 110.61 246.23 146.86 243.77 182.22 237.38 C 181.13 237.12 180.04 236.88 178.95 236.66 C 187.75 236.23 196.60 236.01 205.28 234.28 C 218.86 231.72 232.75 230.40 245.93 226.05 C 251.67 224.10 258.64 223.82 262.71 218.73 C 266.91 214.34 268.95 208.43 269.58 202.48 C 271.90 188.65 268.00 174.58 261.75 162.29 C 257.38 153.85 253.62 144.92 247.29 137.69 C 242.66 132.36 238.28 126.69 232.62 122.38 C 228.27 119.03 223.76 115.90 219.16 112.89 C 209.10 106.47 198.85 99.92 187.25 96.66 C 163.84 89.69 138.89 92.16 115.41 97.40 C 104.75 100.01 94.68 104.45 84.33 108.03 C 83.62 104.97 83.53 101.28 80.82 99.19 C 76.75 95.45 71.04 94.61 65.72 94.66 C 81.06 84.13 99.29 78.11 117.66 75.75 Z" />
<path fill="#020101" opacity="1.00" d=" M 214.98 76.09 C 216.88 75.77 218.78 75.33 220.71 75.27 C 224.01 78.04 224.33 84.86 219.83 86.54 C 214.40 86.71 214.40 79.93 214.98 76.09 M 217.81 76.47 C 218.04 78.94 216.44 83.42 220.27 83.49 C 220.12 81.03 220.37 77.82 217.81 76.47 Z" />
<path fill="#f64d65" opacity="1.00" d=" M 217.81 76.47 C 220.37 77.82 220.12 81.03 220.27 83.49 C 216.44 83.42 218.04 78.94 217.81 76.47 Z" />
<path fill="#6c84d3" opacity="1.00" d=" M 115.41 97.40 C 138.89 92.16 163.84 89.69 187.25 96.66 C 198.85 99.92 209.10 106.47 219.16 112.89 C 223.76 115.90 228.27 119.03 232.62 122.38 C 238.28 126.69 242.66 132.36 247.29 137.69 C 253.62 144.92 257.38 153.85 261.75 162.29 C 268.00 174.58 271.90 188.65 269.58 202.48 C 268.95 208.43 266.91 214.34 262.71 218.73 C 258.64 223.82 251.67 224.10 245.93 226.05 C 232.75 230.40 218.86 231.72 205.28 234.28 C 196.60 236.01 187.75 236.23 178.95 236.66 C 151.65 238.13 124.37 241.49 96.99 239.98 C 86.85 239.63 76.60 238.25 66.52 240.15 C 57.03 239.85 47.39 240.00 38.07 237.97 C 27.45 234.55 17.52 226.30 14.89 215.07 C 13.25 208.34 14.77 201.42 15.58 194.69 C 16.88 183.81 20.43 173.39 24.18 163.15 C 28.06 152.66 35.12 143.76 42.72 135.71 C 44.08 134.30 45.56 132.99 47.18 131.89 C 49.94 130.26 52.60 128.45 54.81 126.10 C 57.24 123.64 60.09 121.58 63.29 120.24 C 71.79 119.50 79.09 114.53 84.33 108.03 C 94.68 104.45 104.75 100.01 115.41 97.40 M 228.41 133.41 C 224.98 134.64 224.20 138.81 224.23 142.03 C 224.42 148.77 227.27 155.33 231.43 160.57 C 233.64 163.46 237.96 165.39 241.31 163.29 C 244.58 160.72 244.21 156.00 243.59 152.33 C 242.49 147.32 240.84 142.32 238.00 138.01 C 235.93 134.97 232.31 132.08 228.41 133.41 M 250.31 173.25 C 248.37 173.66 248.02 175.95 248.27 177.60 C 249.95 180.45 255.59 179.61 255.28 175.99 C 255.04 173.53 252.46 172.52 250.31 173.25 M 159.41 202.50 C 143.60 203.41 127.79 204.19 111.98 205.00 C 93.15 206.97 74.13 208.64 55.87 213.90 C 52.03 215.29 46.96 217.13 46.68 221.94 C 45.91 224.75 47.39 227.64 49.80 229.13 C 54.89 232.34 61.12 232.73 66.95 233.31 C 84.27 234.66 101.65 234.40 119.00 234.81 C 136.68 234.80 154.35 235.85 172.03 234.86 C 183.40 234.08 194.84 233.99 206.12 232.17 C 213.74 230.87 221.55 230.44 228.93 228.00 C 234.55 226.30 239.18 222.21 242.52 217.49 C 244.83 212.55 239.77 208.11 235.53 206.58 C 227.24 204.16 218.61 202.86 209.96 202.84 C 193.15 201.59 176.24 201.58 159.41 202.50 Z" />
<path fill="#ffffff" opacity="1.00" d=" M 62.97 96.72 C 63.80 95.93 64.72 95.22 65.72 94.66 C 71.04 94.61 76.75 95.45 80.82 99.19 C 83.53 101.28 83.62 104.97 84.33 108.03 C 79.09 114.53 71.79 119.50 63.29 120.24 C 59.27 118.90 54.80 116.44 54.35 111.72 C 53.09 105.23 59.16 100.96 62.97 96.72 Z" />
<path fill="#feffff" opacity="1.00" d=" M 44.32 127.71 C 44.34 124.75 47.07 122.29 49.96 122.17 C 52.39 121.82 53.31 124.73 54.81 126.10 C 52.60 128.45 49.94 130.26 47.18 131.89 C 46.19 130.53 45.10 129.22 44.32 127.71 Z" />
<path fill="#ffffff" opacity="1.00" d=" M 228.41 133.41 C 232.31 132.08 235.93 134.97 238.00 138.01 C 240.84 142.32 242.49 147.32 243.59 152.33 C 244.21 156.00 244.58 160.72 241.31 163.29 C 237.96 165.39 233.64 163.46 231.43 160.57 C 227.27 155.33 224.42 148.77 224.23 142.03 C 224.20 138.81 224.98 134.64 228.41 133.41 Z" />
<path fill="#feffff" opacity="1.00" d=" M 250.31 173.25 C 252.46 172.52 255.04 173.53 255.28 175.99 C 255.59 179.61 249.95 180.45 248.27 177.60 C 248.02 175.95 248.37 173.66 250.31 173.25 Z" />
<path fill="#3d54a0" opacity="1.00" d=" M 159.41 202.50 C 176.24 201.58 193.15 201.59 209.96 202.84 C 218.61 202.86 227.24 204.16 235.53 206.58 C 239.77 208.11 244.83 212.55 242.52 217.49 C 239.18 222.21 234.55 226.30 228.93 228.00 C 221.55 230.44 213.74 230.87 206.12 232.17 C 194.84 233.99 183.40 234.08 172.03 234.86 C 154.35 235.85 136.68 234.80 119.00 234.81 C 101.65 234.40 84.27 234.66 66.95 233.31 C 61.12 232.73 54.89 232.34 49.80 229.13 C 47.39 227.64 45.91 224.75 46.68 221.94 C 46.96 217.13 52.03 215.29 55.87 213.90 C 74.13 208.64 93.15 206.97 111.98 205.00 C 127.79 204.19 143.60 203.41 159.41 202.50 Z" />
<path fill="#fefeff" opacity="1.00" d=" M 96.99 239.98 C 124.37 241.49 151.65 238.13 178.95 236.66 C 180.04 236.88 181.13 237.12 182.22 237.38 C 146.86 243.77 110.61 246.23 74.83 242.23 C 72.00 241.80 69.27 240.91 66.52 240.15 C 76.60 238.25 86.85 239.63 96.99 239.98 Z" />
</svg>
