<?xml version="1.0" encoding="UTF-8" ?>
<!DOCTYPE svg PUBLIC "-//W3C//DTD SVG 1.1//EN" "http://www.w3.org/Graphics/SVG/1.1/DTD/svg11.dtd">
<svg width="153pt" height="79pt" viewBox="0 0 153 79" version="1.1" xmlns="http://www.w3.org/2000/svg">
<path fill="#000000" opacity="1.00" d=" M 125.36 0.00 L 126.17 0.00 C 130.22 2.10 133.82 4.93 137.55 7.54 C 142.39 11.00 147.45 14.15 152.15 17.80 C 153.03 28.53 152.90 39.34 151.81 50.05 C 151.40 54.55 148.15 58.02 145.56 61.47 C 141.28 66.51 136.68 71.54 130.96 74.96 C 127.46 74.02 124.38 72.02 121.15 70.43 C 115.89 71.84 110.51 72.72 105.12 73.49 C 100.40 74.08 96.17 76.46 91.52 77.31 C 82.47 79.05 73.13 79.35 64.00 78.13 C 57.63 77.30 51.15 75.08 46.46 70.55 C 41.95 62.17 43.29 50.89 49.80 43.87 C 55.00 38.09 62.24 34.34 69.83 32.80 C 79.03 30.96 88.61 32.60 97.20 36.16 C 96.67 31.50 95.91 26.78 96.41 22.08 C 96.67 18.87 100.21 18.02 102.53 16.63 C 111.03 12.42 118.65 6.68 125.36 0.00 M 115.17 12.34 C 110.00 15.75 104.70 19.11 98.78 21.05 C 98.88 28.31 99.70 35.57 100.96 42.73 C 100.78 46.30 102.32 49.71 104.40 52.54 C 110.01 60.94 119.17 65.79 127.73 70.61 C 129.59 72.03 131.71 72.05 133.05 69.92 C 134.91 66.02 135.60 61.65 136.38 57.42 C 138.37 47.00 137.47 36.26 135.62 25.89 C 133.98 17.51 131.30 9.21 126.69 1.97 C 123.23 5.83 119.36 9.29 115.17 12.34 M 132.68 7.77 C 138.19 21.11 140.43 35.73 139.71 50.12 C 139.45 55.86 137.72 61.37 136.51 66.95 C 141.22 62.51 145.70 57.55 148.61 51.73 C 150.49 40.87 148.97 29.79 149.25 18.84 L 148.86 18.14 C 143.26 15.01 138.04 11.27 132.68 7.77 M 62.98 38.29 L 62.99 38.74 L 62.18 38.66 C 59.78 39.35 57.74 40.93 55.73 42.35 C 47.66 48.14 44.31 59.53 48.59 68.60 C 51.84 72.13 56.25 74.57 61.08 74.92 C 71.31 76.15 81.89 76.52 91.97 74.03 C 99.06 73.03 106.50 69.62 110.20 63.21 C 103.46 57.60 97.45 49.93 97.75 40.69 L 97.30 38.78 C 86.35 35.24 73.72 32.86 62.98 38.29 Z" />
<path fill="#c9d1e0" opacity="1.00" d=" M 115.17 12.34 C 119.36 9.29 123.23 5.83 126.69 1.97 C 131.30 9.21 133.98 17.51 135.62 25.89 C 137.47 36.26 138.37 47.00 136.38 57.42 C 132.82 61.35 130.43 66.10 127.73 70.61 C 119.17 65.79 110.01 60.94 104.40 52.54 C 102.32 49.71 100.78 46.30 100.96 42.73 C 102.78 36.96 102.43 30.89 103.15 24.96 C 103.39 21.75 107.41 21.24 109.64 19.75 C 110.22 20.90 110.81 22.05 111.39 23.20 C 115.15 22.43 118.65 20.33 119.38 16.28 C 118.05 15.79 116.72 15.31 115.39 14.83 C 115.31 14.00 115.24 13.17 115.17 12.34 M 120.29 26.09 C 120.42 29.44 123.27 24.56 120.29 26.09 Z" />
<path fill="#8585aa" opacity="1.00" d=" M 132.68 7.77 C 138.04 11.27 143.26 15.01 148.86 18.14 L 149.25 18.84 C 148.97 29.79 150.49 40.87 148.61 51.73 C 145.70 57.55 141.22 62.51 136.51 66.95 C 137.72 61.37 139.45 55.86 139.71 50.12 C 140.43 35.73 138.19 21.11 132.68 7.77 Z" />
<path fill="#fff3cb" opacity="1.00" d=" M 98.78 21.05 C 104.70 19.11 110.00 15.75 115.17 12.34 C 115.24 13.17 115.31 14.00 115.39 14.83 C 116.72 15.31 118.05 15.79 119.38 16.28 C 118.65 20.33 115.15 22.43 111.39 23.20 C 110.81 22.05 110.22 20.90 109.64 19.75 C 107.41 21.24 103.39 21.75 103.15 24.96 C 102.43 30.89 102.78 36.96 100.96 42.73 C 99.70 35.57 98.88 28.31 98.78 21.05 Z" />
<path fill="#fdf1cc" opacity="1.00" d=" M 120.29 26.09 C 123.27 24.56 120.42 29.44 120.29 26.09 Z" />
<path fill="#000000" opacity="1.00" d=" M 17.42 29.79 C 18.91 28.52 20.44 27.28 21.97 26.05 C 23.81 27.87 25.64 29.72 27.45 31.58 C 27.41 32.12 27.32 33.21 27.28 33.76 C 31.68 33.73 31.21 38.62 32.00 41.67 C 35.08 41.80 35.89 44.59 36.65 47.05 C 37.85 47.57 39.61 47.25 40.46 48.43 C 42.52 50.34 39.91 52.61 39.14 54.52 C 39.52 59.01 40.70 63.46 40.41 67.99 C 39.34 69.97 36.80 69.43 34.98 69.20 C 33.36 66.98 32.75 64.23 31.88 61.67 C 30.46 62.01 28.93 63.28 27.47 62.45 C 24.80 59.61 23.91 55.64 23.04 51.96 C 24.39 50.67 25.73 49.37 27.07 48.07 C 25.73 47.74 24.40 47.34 23.09 46.89 C 20.55 44.00 20.68 39.82 20.21 36.22 C 16.48 38.01 19.78 42.07 19.33 45.05 C 19.72 47.47 16.95 48.17 15.53 49.49 C 18.01 50.34 20.62 50.40 23.20 50.12 C 22.24 53.36 21.63 56.70 21.49 60.07 C 22.51 61.15 23.53 62.23 24.47 63.38 C 23.63 65.08 21.44 64.70 19.91 65.20 C 18.02 66.27 16.14 67.35 14.23 68.39 C 13.08 69.57 11.91 70.74 10.74 71.90 C 8.23 67.48 4.96 63.40 0.00 61.64 L 0.00 61.16 C 2.87 57.89 3.80 53.71 4.16 49.49 C 6.41 49.82 8.66 50.11 10.92 50.29 C 9.36 49.46 7.73 48.74 6.23 47.78 C 6.01 45.07 6.35 42.35 6.53 39.65 C 7.11 39.46 8.28 39.10 8.86 38.91 C 8.28 37.69 7.67 36.47 7.24 35.18 C 9.47 32.46 11.95 29.87 14.79 27.78 C 15.68 28.42 16.56 29.09 17.42 29.79 M 20.50 29.18 C 19.63 29.89 19.32 30.74 19.56 31.73 C 21.86 32.25 24.14 27.01 20.50 29.18 M 14.14 30.00 C 13.91 30.30 13.47 30.89 13.25 31.19 C 14.13 34.17 17.51 29.18 14.14 30.00 M 24.24 32.03 C 24.47 35.37 27.17 30.42 24.24 32.03 M 9.38 35.45 C 10.02 36.41 10.66 37.36 11.31 38.31 C 11.93 36.55 12.51 34.77 12.77 32.92 C 11.58 33.68 10.46 34.55 9.38 35.45 M 19.25 34.09 C 19.39 37.40 22.28 32.58 19.25 34.09 M 23.43 34.55 C 22.83 35.74 22.97 36.81 23.86 37.74 C 24.55 39.01 25.30 40.25 26.08 41.47 C 27.05 39.78 26.51 38.07 25.80 36.45 C 26.09 35.26 24.54 33.56 23.43 34.55 M 14.93 36.79 C 16.36 38.78 18.18 34.92 15.87 34.74 L 15.12 35.12 C 13.50 35.49 13.43 36.05 14.93 36.79 M 28.16 36.44 C 27.37 37.52 28.13 40.16 29.66 39.87 C 30.25 38.78 29.57 36.36 28.16 36.44 M 13.13 39.60 C 10.62 40.58 14.72 42.38 13.75 39.87 C 13.59 39.80 13.28 39.67 13.13 39.60 M 8.60 41.25 C 8.50 43.14 8.37 45.03 8.24 46.91 C 9.88 47.18 11.48 46.77 13.05 46.36 C 12.92 47.17 12.66 48.79 12.53 49.61 C 12.93 49.47 13.72 49.20 14.12 49.07 C 13.87 47.81 13.65 46.54 13.46 45.27 C 16.94 43.26 11.53 41.55 11.91 45.10 L 12.24 45.50 C 11.85 45.70 11.08 46.11 10.69 46.31 C 10.21 44.24 10.17 42.12 10.48 40.03 C 9.85 40.44 9.23 40.85 8.60 41.25 M 22.29 38.74 C 23.29 40.76 22.89 44.96 26.04 44.96 C 25.77 44.46 25.23 43.45 24.97 42.95 C 24.27 41.44 24.04 39.51 22.29 38.74 M 16.33 41.30 C 15.61 42.57 15.68 44.37 16.41 45.63 C 17.84 45.32 17.73 41.64 16.33 41.30 M 27.01 41.86 C 26.55 43.49 27.13 44.00 28.74 43.40 C 29.21 41.76 28.63 41.25 27.01 41.86 M 27.76 47.45 C 30.06 47.69 32.32 48.12 34.56 48.70 C 34.09 47.23 33.64 45.76 33.20 44.29 C 31.16 44.90 28.37 44.93 27.76 47.45 M 37.32 49.52 C 35.72 50.19 36.48 53.60 38.32 52.32 C 39.96 51.54 39.29 48.39 37.32 49.52 M 25.24 51.85 C 25.88 54.01 26.72 56.11 27.75 58.11 C 27.86 59.22 28.28 60.22 29.58 59.86 C 31.64 57.82 33.10 55.26 33.94 52.51 C 31.86 49.26 28.05 50.36 25.24 51.85 M 5.17 51.19 C 3.57 54.14 8.50 51.39 5.17 51.19 M 9.10 52.32 C 7.71 53.39 6.35 54.52 5.28 55.92 C 4.51 58.41 4.96 60.93 6.28 63.14 C 6.61 62.57 7.28 61.44 7.61 60.87 C 8.04 61.97 8.79 62.67 9.87 62.96 C 9.51 61.77 9.00 60.65 8.33 59.59 C 10.50 59.50 11.59 60.99 11.88 62.91 C 10.64 63.56 9.37 64.13 8.06 64.64 C 8.69 64.87 9.94 65.33 10.57 65.56 L 9.90 65.72 C 12.63 65.94 15.93 66.19 17.66 63.58 C 20.76 59.97 19.97 51.17 13.78 52.12 C 12.27 51.57 10.64 52.24 9.10 52.32 M 20.25 52.22 C 20.78 52.73 20.78 52.73 20.25 52.22 M 33.22 59.74 C 34.80 62.30 34.71 66.69 38.24 67.39 C 37.88 63.08 37.29 58.79 36.32 54.57 C 35.27 56.28 34.24 58.01 33.22 59.74 M 2.26 60.30 C 2.75 60.83 2.75 60.83 2.26 60.30 M 10.27 67.98 C 10.50 71.31 13.21 66.36 10.27 67.98 Z" />
<path fill="#c9d1e0" opacity="1.00" d=" M 20.50 29.18 C 24.14 27.01 21.86 32.25 19.56 31.73 C 19.32 30.74 19.63 29.89 20.50 29.18 Z" />
<path fill="#37393c" opacity="1.00" d=" M 14.14 30.00 C 17.51 29.18 14.13 34.17 13.25 31.19 C 13.47 30.89 13.91 30.30 14.14 30.00 Z" />
<path fill="#302e27" opacity="1.00" d=" M 24.24 32.03 C 27.17 30.42 24.47 35.37 24.24 32.03 Z" />
<path fill="#ffffff" opacity="1.00" d=" M 9.38 35.45 C 10.46 34.55 11.58 33.68 12.77 32.92 C 12.51 34.77 11.93 36.55 11.31 38.31 C 10.66 37.36 10.02 36.41 9.38 35.45 Z" />
<path fill="#818498" opacity="1.00" d=" M 19.25 34.09 C 22.28 32.58 19.39 37.40 19.25 34.09 Z" />
<path fill="#ffffff" opacity="1.00" d=" M 23.43 34.55 C 24.54 33.56 26.09 35.26 25.80 36.45 C 25.31 36.77 24.34 37.42 23.86 37.74 C 22.97 36.81 22.83 35.74 23.43 34.55 Z" />
<path fill="#070707" opacity="0.33" d=" M 14.93 36.79 C 13.43 36.05 13.50 35.49 15.12 35.12 C 15.07 35.54 14.98 36.37 14.93 36.79 Z" />
<path fill="#a1a5c0" opacity="1.00" d=" M 15.12 35.12 L 15.87 34.74 C 18.18 34.92 16.36 38.78 14.93 36.79 C 14.98 36.37 15.07 35.54 15.12 35.12 Z" />
<path fill="#99e5f1" opacity="1.00" d=" M 62.98 38.29 C 73.72 32.86 86.35 35.24 97.30 38.78 L 97.75 40.69 C 87.09 37.71 75.65 36.12 64.89 39.62 C 64.42 39.40 63.47 38.96 62.99 38.74 L 62.98 38.29 Z" />
<path fill="#8585aa" opacity="1.00" d=" M 23.86 37.74 C 24.34 37.42 25.31 36.77 25.80 36.45 C 26.51 38.07 27.05 39.78 26.08 41.47 C 25.30 40.25 24.55 39.01 23.86 37.74 Z" />
<path fill="#51516c" opacity="1.00" d=" M 28.16 36.44 C 29.57 36.36 30.25 38.78 29.66 39.87 C 28.13 40.16 27.37 37.52 28.16 36.44 Z" />
<path fill="#5a95bd" opacity="1.00" d=" M 64.89 39.62 C 75.65 36.12 87.09 37.71 97.75 40.69 C 97.45 49.93 103.46 57.60 110.20 63.21 C 106.50 69.62 99.06 73.03 91.97 74.03 C 95.52 72.81 99.32 71.40 101.32 67.98 C 95.32 70.03 89.40 72.63 83.00 73.13 C 75.60 73.74 68.12 73.52 60.75 72.58 C 69.22 72.49 77.67 71.57 86.03 70.21 C 90.32 69.34 95.02 68.43 98.29 65.28 C 100.15 63.43 98.96 60.28 96.74 59.35 C 92.17 57.18 86.93 57.50 82.01 57.64 C 73.98 58.15 65.67 58.82 58.28 62.27 C 55.25 63.49 53.63 66.42 52.23 69.17 C 47.34 62.93 49.18 53.17 55.47 48.61 C 58.33 47.67 62.03 47.51 63.79 44.67 C 64.45 43.07 64.61 41.32 64.89 39.62 M 62.20 49.26 C 61.05 50.71 63.58 52.40 64.60 50.96 C 65.71 49.52 63.23 47.85 62.20 49.26 Z" />
<path fill="#0f0f14" opacity="0.30" d=" M 13.13 39.60 C 13.28 39.67 13.59 39.80 13.75 39.87 L 13.13 39.60 Z" />
<path fill="#ffffff" opacity="1.00" d=" M 55.73 42.35 C 57.74 40.93 59.78 39.35 62.18 38.66 L 62.99 38.74 C 63.47 38.96 64.42 39.40 64.89 39.62 C 64.61 41.32 64.45 43.07 63.79 44.67 C 62.03 47.51 58.33 47.67 55.47 48.61 C 55.37 46.52 55.30 44.41 55.73 42.35 Z" />
<path fill="#c9d1e0" opacity="1.00" d=" M 8.60 41.25 C 9.23 40.85 9.85 40.44 10.48 40.03 C 10.17 42.12 10.21 44.24 10.69 46.31 C 11.08 46.11 11.85 45.70 12.24 45.50 C 12.55 45.44 13.15 45.33 13.46 45.27 C 13.65 46.54 13.87 47.81 14.12 49.07 C 13.72 49.20 12.93 49.47 12.53 49.61 C 12.66 48.79 12.92 47.17 13.05 46.36 C 11.48 46.77 9.88 47.18 8.24 46.91 C 8.37 45.03 8.50 43.14 8.60 41.25 Z" />
<path fill="#37374a" opacity="1.00" d=" M 13.75 39.87 C 14.72 42.38 10.62 40.58 13.13 39.60 L 13.75 39.87 Z" />
<path fill="#c9d1e0" opacity="1.00" d=" M 22.29 38.74 C 24.04 39.51 24.27 41.44 24.97 42.95 C 25.23 43.45 25.77 44.46 26.04 44.96 C 22.89 44.96 23.29 40.76 22.29 38.74 Z" />
<path fill="#494864" opacity="0.97" d=" M 16.33 41.30 C 17.73 41.64 17.84 45.32 16.41 45.63 C 15.68 44.37 15.61 42.57 16.33 41.30 Z" />
<path fill="#a2eff4" opacity="1.00" d=" M 48.59 68.60 C 44.31 59.53 47.66 48.14 55.73 42.35 C 55.30 44.41 55.37 46.52 55.47 48.61 C 49.18 53.17 47.34 62.93 52.23 69.17 C 54.70 71.07 57.65 72.25 60.75 72.58 C 68.12 73.52 75.60 73.74 83.00 73.13 C 89.40 72.63 95.32 70.03 101.32 67.98 C 99.32 71.40 95.52 72.81 91.97 74.03 C 81.89 76.52 71.31 76.15 61.08 74.92 C 56.25 74.57 51.84 72.13 48.59 68.60 Z" />
<path fill="#020203" opacity="0.29" d=" M 11.91 45.10 C 11.53 41.55 16.94 43.26 13.46 45.27 C 13.15 45.33 12.55 45.44 12.24 45.50 L 11.91 45.10 Z" />
<path fill="#b97472" opacity="1.00" d=" M 27.76 47.45 C 28.37 44.93 31.16 44.90 33.20 44.29 C 33.64 45.76 34.09 47.23 34.56 48.70 C 32.32 48.12 30.06 47.69 27.76 47.45 Z" />
<path fill="#9ae5ec" opacity="1.00" d=" M 37.32 49.52 C 39.29 48.39 39.96 51.54 38.32 52.32 C 36.48 53.60 35.72 50.19 37.32 49.52 Z" />
<path fill="#d9e7f0" opacity="1.00" d=" M 62.20 49.26 C 63.23 47.85 65.71 49.52 64.60 50.96 C 63.58 52.40 61.05 50.71 62.20 49.26 Z" />
<path fill="#9ae5ec" opacity="1.00" d=" M 25.24 51.85 C 28.05 50.36 31.86 49.26 33.94 52.51 C 30.57 52.59 28.95 55.41 27.75 58.11 C 26.72 56.11 25.88 54.01 25.24 51.85 Z" />
<path fill="#3c3e43" opacity="1.00" d=" M 5.17 51.19 C 8.50 51.39 3.57 54.14 5.17 51.19 Z" />
<path fill="#c9d1de" opacity="1.00" d=" M 9.10 52.32 C 10.64 52.24 12.27 51.57 13.78 52.12 C 14.22 52.27 15.09 52.59 15.52 52.75 C 15.21 53.17 14.57 54.02 14.26 54.44 C 13.88 55.08 13.12 56.37 12.74 57.02 C 11.41 55.54 10.27 53.91 9.10 52.32 Z" />
<path fill="#74739d" opacity="1.00" d=" M 13.78 52.12 C 19.97 51.17 20.76 59.97 17.66 63.58 C 15.93 66.19 12.63 65.94 9.90 65.72 L 10.57 65.56 C 14.31 65.73 15.01 62.11 15.84 59.27 C 15.55 59.14 14.95 58.88 14.65 58.75 L 14.25 58.44 C 15.65 58.13 17.25 57.89 17.44 56.15 C 16.95 55.48 15.97 54.14 15.49 53.47 C 15.59 54.50 15.80 56.57 15.90 57.60 C 15.35 56.55 14.80 55.49 14.26 54.44 C 14.57 54.02 15.21 53.17 15.52 52.75 C 15.09 52.59 14.22 52.27 13.78 52.12 Z" />
<path fill="#434259" opacity="1.00" d=" M 20.25 52.22 C 20.78 52.73 20.78 52.73 20.25 52.22 Z" />
<path fill="#fff4cb" opacity="1.00" d=" M 5.28 55.92 C 6.35 54.52 7.71 53.39 9.10 52.32 C 10.27 53.91 11.41 55.54 12.74 57.02 C 13.12 57.37 13.87 58.09 14.25 58.44 L 14.65 58.75 L 13.76 58.52 C 11.25 58.04 8.71 57.84 6.18 57.53 C 5.95 57.13 5.51 56.33 5.28 55.92 Z" />
<path fill="#68a5c2" opacity="1.00" d=" M 27.75 58.11 C 28.95 55.41 30.57 52.59 33.94 52.51 C 33.10 55.26 31.64 57.82 29.58 59.86 C 28.28 60.22 27.86 59.22 27.75 58.11 Z" />
<path fill="#000000" opacity="1.00" d=" M 12.74 57.02 C 13.12 56.37 13.88 55.08 14.26 54.44 C 14.80 55.49 15.35 56.55 15.90 57.60 C 15.80 56.57 15.59 54.50 15.49 53.47 C 15.97 54.14 16.95 55.48 17.44 56.15 C 17.25 57.89 15.65 58.13 14.25 58.44 C 13.87 58.09 13.12 57.37 12.74 57.02 Z" />
<path fill="#c9d1e0" opacity="1.00" d=" M 6.28 63.14 C 4.96 60.93 4.51 58.41 5.28 55.92 C 5.51 56.33 5.95 57.13 6.18 57.53 C 8.71 57.84 11.25 58.04 13.76 58.52 C 13.15 59.99 12.57 61.48 11.88 62.91 C 11.59 60.99 10.50 59.50 8.33 59.59 C 9.00 60.65 9.51 61.77 9.87 62.96 C 8.79 62.67 8.04 61.97 7.61 60.87 C 7.28 61.44 6.61 62.57 6.28 63.14 Z" />
<path fill="#b06e6c" opacity="1.00" d=" M 33.22 59.74 C 34.24 58.01 35.27 56.28 36.32 54.57 C 37.29 58.79 37.88 63.08 38.24 67.39 C 34.71 66.69 34.80 62.30 33.22 59.74 Z" />
<path fill="#30609f" opacity="1.00" d=" M 58.28 62.27 C 65.67 58.82 73.98 58.15 82.01 57.64 C 86.93 57.50 92.17 57.18 96.74 59.35 C 98.96 60.28 100.15 63.43 98.29 65.28 C 95.02 68.43 90.32 69.34 86.03 70.21 C 77.67 71.57 69.22 72.49 60.75 72.58 C 57.65 72.25 54.70 71.07 52.23 69.17 C 53.63 66.42 55.25 63.49 58.28 62.27 Z" />
<path fill="#a1a5c0" opacity="1.00" d=" M 127.73 70.61 C 130.43 66.10 132.82 61.35 136.38 57.42 C 135.60 61.65 134.91 66.02 133.05 69.92 C 131.71 72.05 129.59 72.03 127.73 70.61 Z" />
<path fill="#989bba" opacity="1.00" d=" M 13.76 58.52 L 14.65 58.75 C 14.95 58.88 15.55 59.14 15.84 59.27 C 15.01 62.11 14.31 65.73 10.57 65.56 C 9.94 65.33 8.69 64.87 8.06 64.64 C 9.37 64.13 10.64 63.56 11.88 62.91 C 12.57 61.48 13.15 59.99 13.76 58.52 Z" />
<path fill="#44464b" opacity="1.00" d=" M 2.26 60.30 C 2.75 60.83 2.75 60.83 2.26 60.30 Z" />
<path fill="#3e3e4f" opacity="1.00" d=" M 10.27 67.98 C 13.21 66.36 10.50 71.31 10.27 67.98 Z" />
</svg>
