<?xml version="1.0" encoding="UTF-8" ?>
<!DOCTYPE svg PUBLIC "-//W3C//DTD SVG 1.1//EN" "http://www.w3.org/Graphics/SVG/1.1/DTD/svg11.dtd">
<svg width="131pt" height="95pt" viewBox="0 0 131 95" version="1.1" xmlns="http://www.w3.org/2000/svg">
<path fill="#000000" opacity="1.00" d=" M 96.22 12.28 C 98.90 7.94 102.20 4.04 105.63 0.28 C 108.94 4.31 112.28 8.38 114.65 13.06 C 113.14 13.39 111.63 13.70 110.11 14.00 C 109.94 19.68 110.34 25.35 110.23 31.02 C 108.48 33.54 105.17 31.87 102.79 31.40 C 102.32 25.53 101.49 19.67 101.56 13.76 C 99.77 13.29 97.99 12.81 96.22 12.28 M 105.18 2.86 C 103.08 5.60 100.99 8.33 98.96 11.11 C 100.39 11.66 101.88 12.08 103.25 12.80 C 103.87 18.71 103.92 24.69 104.53 30.62 C 105.54 30.56 107.56 30.45 108.58 30.40 C 107.93 24.73 107.48 18.94 108.42 13.27 C 109.48 12.35 110.95 12.16 112.21 11.64 C 109.88 8.71 107.59 5.74 105.18 2.86 Z" />
<path fill="#beff4d" opacity="1.00" d=" M 105.18 2.86 C 107.59 5.74 109.88 8.71 112.21 11.64 C 110.95 12.16 109.48 12.35 108.42 13.27 C 107.48 18.94 107.93 24.73 108.58 30.40 C 107.56 30.45 105.54 30.56 104.53 30.62 C 103.92 24.69 103.87 18.71 103.25 12.80 C 101.88 12.08 100.39 11.66 98.96 11.11 C 100.99 8.33 103.08 5.60 105.18 2.86 Z" />
<path fill="#000000" opacity="1.00" d=" M 118.05 17.43 C 119.96 14.04 122.16 10.82 124.77 7.93 C 126.96 10.63 129.12 13.35 131.00 16.28 L 131.00 16.53 C 130.12 16.69 128.37 17.03 127.50 17.20 C 127.64 19.50 127.79 21.80 127.92 24.10 C 126.09 24.27 124.27 24.43 122.44 24.59 C 122.37 22.38 122.33 20.17 122.28 17.96 C 120.87 17.79 119.46 17.61 118.05 17.43 M 120.10 16.77 C 121.02 16.76 122.86 16.73 123.78 16.71 C 123.75 18.73 123.74 20.74 123.75 22.75 C 124.38 22.69 125.64 22.55 126.27 22.48 C 126.03 20.58 125.80 18.68 125.60 16.77 C 126.20 16.44 127.38 15.79 127.98 15.47 C 126.83 13.90 125.71 12.33 124.60 10.75 C 123.05 12.72 121.55 14.73 120.10 16.77 Z" />
<path fill="#beff4d" opacity="1.00" d=" M 120.10 16.77 C 121.55 14.73 123.05 12.72 124.60 10.75 C 125.71 12.33 126.83 13.90 127.98 15.47 C 127.38 15.79 126.20 16.44 125.60 16.77 C 125.80 18.68 126.03 20.58 126.27 22.48 C 125.64 22.55 124.38 22.69 123.75 22.75 C 123.74 20.74 123.75 18.73 123.78 16.71 C 122.86 16.73 121.02 16.76 120.10 16.77 Z" />
<path fill="#000000" opacity="1.00" d=" M 65.21 33.08 C 63.25 23.71 70.86 12.39 81.05 13.17 C 91.70 14.51 97.35 28.30 91.38 37.01 C 92.93 39.53 91.29 41.55 89.46 43.30 C 90.68 44.53 91.95 45.72 92.96 47.14 C 92.58 48.64 91.22 49.50 90.19 50.53 C 93.38 52.83 94.83 56.89 93.53 60.67 C 92.41 65.30 87.20 66.39 83.86 68.95 C 84.91 69.94 85.95 70.96 87.01 71.95 C 84.78 76.32 83.29 81.00 81.61 85.60 C 81.05 87.56 79.31 88.72 77.83 89.95 C 75.34 81.23 75.61 72.00 74.26 63.07 C 72.66 63.42 71.05 63.58 69.42 63.55 C 69.14 60.48 70.40 57.60 71.48 54.81 C 71.16 54.07 70.52 52.59 70.19 51.85 C 71.39 51.02 72.60 50.20 73.80 49.39 C 71.98 48.34 70.16 47.29 68.37 46.19 C 69.49 44.61 70.64 43.06 71.81 41.51 C 68.91 39.37 65.92 36.81 65.21 33.08 M 73.96 17.26 C 71.75 19.26 69.84 21.60 68.61 24.34 C 67.93 27.11 67.19 30.07 68.02 32.90 C 68.80 35.53 71.17 37.17 73.21 38.79 C 76.56 39.64 81.09 40.49 83.94 38.18 C 86.97 38.08 88.62 34.95 90.52 32.98 C 91.24 28.15 90.67 22.66 86.88 19.19 C 83.32 16.28 78.10 14.46 73.96 17.26 M 74.07 42.24 C 73.10 43.56 72.13 44.88 71.20 46.22 C 71.86 46.27 73.18 46.36 73.84 46.40 C 74.71 47.55 76.06 48.44 76.46 49.89 C 75.23 51.10 73.90 52.20 72.59 53.31 C 73.48 53.35 75.26 53.44 76.15 53.49 C 76.76 54.02 77.37 54.56 77.99 55.10 C 78.90 52.70 80.66 51.03 83.28 50.75 C 86.26 50.95 88.62 49.18 90.72 47.31 C 89.07 45.96 87.42 44.61 85.77 43.26 C 87.48 41.91 88.92 40.27 90.37 38.65 C 85.42 41.45 79.83 43.33 74.07 42.24 M 80.77 53.74 C 80.36 58.10 80.33 62.51 80.86 66.86 C 83.79 65.58 86.87 64.46 89.49 62.57 C 92.32 59.96 92.15 54.69 88.83 52.52 C 86.08 51.93 83.37 52.99 80.77 53.74 M 71.74 61.42 C 73.37 60.43 74.93 59.33 76.45 58.17 C 76.11 57.37 75.44 55.78 75.11 54.98 C 72.90 56.43 72.17 58.94 71.74 61.42 M 77.79 73.67 C 78.07 77.67 78.42 81.67 78.99 85.65 C 80.37 82.42 81.46 79.09 82.46 75.73 L 82.85 75.90 C 83.33 74.83 83.78 73.75 84.20 72.66 C 83.34 71.66 82.49 70.66 81.62 69.68 C 77.19 68.32 78.47 63.01 77.47 59.51 C 75.41 64.00 78.00 68.95 77.79 73.67 Z" />
<path fill="#beff4d" opacity="1.00" d=" M 73.96 17.26 C 78.10 14.46 83.32 16.28 86.88 19.19 C 90.67 22.66 91.24 28.15 90.52 32.98 C 89.45 29.30 88.84 24.85 85.40 22.55 C 83.35 21.70 81.04 21.92 78.87 21.64 C 77.32 20.09 75.67 18.63 73.96 17.26 Z" />
<path fill="#fff2cb" opacity="1.00" d=" M 68.61 24.34 C 69.84 21.60 71.75 19.26 73.96 17.26 C 75.67 18.63 77.32 20.09 78.87 21.64 L 79.40 22.14 C 78.59 24.61 77.41 26.93 75.97 29.08 C 75.59 29.17 74.84 29.34 74.46 29.42 C 73.59 29.61 71.86 30.00 70.99 30.19 C 69.83 28.40 68.75 26.51 68.61 24.34 Z" />
<path fill="#80cf59" opacity="1.00" d=" M 78.87 21.64 C 81.04 21.92 83.35 21.70 85.40 22.55 C 88.84 24.85 89.45 29.30 90.52 32.98 C 88.62 34.95 86.97 38.08 83.94 38.18 C 83.45 38.10 82.46 37.93 81.97 37.85 C 83.17 37.05 84.34 36.22 85.48 35.34 C 87.64 32.68 85.98 29.69 84.48 27.20 C 83.17 25.16 81.23 23.67 79.40 22.14 L 78.87 21.64 Z" />
<path fill="#64ba5e" opacity="1.00" d=" M 79.40 22.14 C 81.23 23.67 83.17 25.16 84.48 27.20 C 81.63 27.77 78.80 28.41 75.97 29.08 C 77.41 26.93 78.59 24.61 79.40 22.14 Z" />
<path fill="#b2f650" opacity="1.00" d=" M 68.02 32.90 C 67.19 30.07 67.93 27.11 68.61 24.34 C 68.75 26.51 69.83 28.40 70.99 30.19 C 71.24 33.16 71.72 36.17 73.21 38.79 C 71.17 37.17 68.80 35.53 68.02 32.90 Z" />
<path fill="#288b69" opacity="1.00" d=" M 75.97 29.08 C 78.80 28.41 81.63 27.77 84.48 27.20 C 85.98 29.69 87.64 32.68 85.48 35.34 C 83.05 33.04 81.04 35.19 80.13 37.57 C 78.29 37.27 76.41 37.04 74.65 36.37 C 73.72 34.19 74.46 31.71 74.46 29.42 C 74.84 29.34 75.59 29.17 75.97 29.08 Z" />
<path fill="#000000" opacity="1.00" d=" M 110.09 38.23 C 112.19 35.12 113.54 30.95 117.00 29.10 C 120.09 31.44 122.68 34.46 124.38 37.96 C 123.05 38.17 121.73 38.38 120.40 38.58 C 120.42 40.51 120.44 42.43 120.40 44.36 C 118.53 44.46 116.65 44.53 114.78 44.53 C 114.59 42.73 114.42 40.94 114.26 39.14 C 112.86 38.84 111.48 38.54 110.09 38.23 M 112.86 36.60 C 113.62 36.73 115.12 37.00 115.87 37.13 C 116.08 39.02 116.27 40.91 116.47 42.80 C 117.04 42.78 118.19 42.73 118.76 42.70 C 118.70 40.70 118.63 38.70 118.57 36.69 C 119.32 36.64 120.81 36.54 121.56 36.50 C 119.97 34.64 118.37 32.80 116.78 30.94 C 115.47 32.83 114.17 34.71 112.86 36.60 Z" />
<path fill="#5bb15e" opacity="1.00" d=" M 70.99 30.19 C 71.86 30.00 73.59 29.61 74.46 29.42 C 74.46 31.71 73.72 34.19 74.65 36.37 C 76.41 37.04 78.29 37.27 80.13 37.57 L 81.97 37.85 C 82.46 37.93 83.45 38.10 83.94 38.18 C 81.09 40.49 76.56 39.64 73.21 38.79 C 71.72 36.17 71.24 33.16 70.99 30.19 Z" />
<path fill="#c1ff4e" opacity="1.00" d=" M 112.86 36.60 C 114.17 34.71 115.47 32.83 116.78 30.94 C 118.37 32.80 119.97 34.64 121.56 36.50 C 120.81 36.54 119.32 36.64 118.57 36.69 C 118.63 38.70 118.70 40.70 118.76 42.70 C 118.19 42.73 117.04 42.78 116.47 42.80 C 116.27 40.91 116.08 39.02 115.87 37.13 C 115.12 37.00 113.62 36.73 112.86 36.60 Z" />
<path fill="#dde6c1" opacity="1.00" d=" M 80.13 37.57 C 81.04 35.19 83.05 33.04 85.48 35.34 C 84.34 36.22 83.17 37.05 81.97 37.85 L 80.13 37.57 Z" />
<path fill="#954f5d" opacity="1.00" d=" M 74.07 42.24 C 79.83 43.33 85.42 41.45 90.37 38.65 C 88.92 40.27 87.48 41.91 85.77 43.26 C 84.89 43.91 84.02 44.56 83.10 45.15 C 80.08 45.94 76.96 46.33 73.84 46.40 C 73.18 46.36 71.86 46.27 71.20 46.22 C 72.13 44.88 73.10 43.56 74.07 42.24 Z" />
<path fill="#7c384d" opacity="1.00" d=" M 83.10 45.15 C 84.02 44.56 84.89 43.91 85.77 43.26 C 87.42 44.61 89.07 45.96 90.72 47.31 C 88.62 49.18 86.26 50.95 83.28 50.75 C 83.24 48.89 83.17 47.02 83.10 45.15 Z" />
<path fill="#a66466" opacity="1.00" d=" M 73.84 46.40 C 76.96 46.33 80.08 45.94 83.10 45.15 C 83.17 47.02 83.24 48.89 83.28 50.75 C 80.66 51.03 78.90 52.70 77.99 55.10 C 77.37 54.56 76.76 54.02 76.15 53.49 C 75.26 53.44 73.48 53.35 72.59 53.31 C 73.90 52.20 75.23 51.10 76.46 49.89 C 76.06 48.44 74.71 47.55 73.84 46.40 Z" />
<path fill="#000000" opacity="1.00" d=" M 8.05 52.11 C 15.33 49.07 23.25 48.02 31.06 47.50 C 38.21 47.22 45.47 47.25 52.48 48.84 C 55.21 49.59 55.94 52.76 56.51 55.16 C 57.99 63.79 58.65 72.56 58.85 81.31 C 64.12 80.57 69.88 79.50 74.88 81.93 C 74.80 83.30 74.16 84.24 72.95 84.76 C 66.86 87.82 59.95 88.38 53.55 90.51 C 41.89 94.55 29.33 95.56 17.08 94.55 C 10.22 93.94 2.22 91.28 0.00 83.96 L 0.00 82.56 C 0.76 82.34 2.28 81.90 3.05 81.68 C 2.23 74.79 0.79 67.94 0.67 61.00 C 0.64 56.68 4.41 53.65 8.05 52.11 M 14.19 53.18 C 9.62 54.43 3.36 56.46 3.46 62.28 C 3.64 63.47 3.85 64.65 4.09 65.83 C 4.40 70.71 5.13 75.54 5.78 80.38 C 5.97 81.12 6.36 82.58 6.55 83.31 C 5.11 83.52 3.67 83.76 2.25 84.11 C 3.69 85.51 5.18 86.86 6.76 88.11 C 7.82 88.82 8.93 89.46 10.05 90.08 C 11.41 90.35 12.76 90.65 14.11 90.98 C 25.04 92.56 36.23 91.74 47.02 89.54 C 51.40 89.36 55.71 87.79 58.72 84.52 C 58.07 84.17 56.76 83.49 56.10 83.14 C 56.15 82.34 56.23 80.73 56.28 79.93 C 56.13 77.74 56.15 75.52 55.65 73.38 C 55.46 69.39 55.07 65.42 54.71 61.44 C 54.15 58.12 54.05 54.56 52.39 51.54 C 51.16 50.58 49.48 50.88 48.04 50.71 C 43.43 50.67 38.79 50.18 34.20 50.65 C 27.46 50.44 20.69 51.40 14.19 53.18 Z" />
<path fill="#ffffff" opacity="1.00" d=" M 14.19 53.18 C 20.69 51.40 27.46 50.44 34.20 50.65 C 25.96 54.32 16.78 54.79 8.50 58.35 C 10.01 56.25 11.77 54.23 14.19 53.18 Z" />
<path fill="#f9ff4d" opacity="1.00" d=" M 34.20 50.65 C 38.79 50.18 43.43 50.67 48.04 50.71 C 49.48 50.88 51.16 50.58 52.39 51.54 C 54.05 54.56 54.15 58.12 54.71 61.44 C 52.56 59.76 50.40 58.09 48.19 56.49 C 48.11 56.01 47.94 55.06 47.85 54.58 C 37.31 56.03 26.60 56.88 16.39 60.05 C 13.32 59.93 10.28 59.40 7.22 59.22 C 8.96 60.12 10.75 60.92 12.63 61.49 L 12.59 62.54 C 9.61 61.58 6.49 61.33 3.46 62.28 C 3.36 56.46 9.62 54.43 14.19 53.18 C 11.77 54.23 10.01 56.25 8.50 58.35 C 16.78 54.79 25.96 54.32 34.20 50.65 Z" />
<path fill="#f9ff4d" opacity="1.00" d=" M 80.77 53.74 C 83.37 52.99 86.08 51.93 88.83 52.52 C 92.15 54.69 92.32 59.96 89.49 62.57 C 86.87 64.46 83.79 65.58 80.86 66.86 C 80.33 62.51 80.36 58.10 80.77 53.74 Z" />
<path fill="#d5be3c" opacity="1.00" d=" M 16.39 60.05 C 26.60 56.88 37.31 56.03 47.85 54.58 C 47.94 55.06 48.11 56.01 48.19 56.49 C 50.40 58.09 52.56 59.76 54.71 61.44 C 55.07 65.42 55.46 69.39 55.65 73.38 C 54.29 70.05 53.42 65.72 49.68 64.27 C 42.50 61.28 34.52 62.21 27.00 63.01 C 22.31 63.63 17.13 64.09 13.40 67.34 C 10.46 69.96 10.78 74.24 10.56 77.82 C 8.97 78.68 7.37 79.53 5.78 80.38 C 5.13 75.54 4.40 70.71 4.09 65.83 C 5.24 67.61 6.99 69.58 9.31 68.35 C 12.10 67.74 12.83 65.04 12.59 62.54 L 12.63 61.49 C 24.46 62.90 36.29 60.23 47.58 56.92 C 46.97 56.52 46.36 56.13 45.75 55.75 C 36.19 58.29 26.35 60.61 16.39 60.05 M 6.36 73.14 C 5.14 74.06 6.19 77.03 7.78 75.81 C 9.01 74.88 7.95 71.90 6.36 73.14 Z" />
<path fill="#fdff4f" opacity="1.00" d=" M 71.74 61.42 C 72.17 58.94 72.90 56.43 75.11 54.98 C 75.44 55.78 76.11 57.37 76.45 58.17 C 74.93 59.33 73.37 60.43 71.74 61.42 Z" />
<path fill="#000000" opacity="1.00" d=" M 16.39 60.05 C 26.35 60.61 36.19 58.29 45.75 55.75 C 46.36 56.13 46.97 56.52 47.58 56.92 C 36.29 60.23 24.46 62.90 12.63 61.49 C 10.75 60.92 8.96 60.12 7.22 59.22 C 10.28 59.40 13.32 59.93 16.39 60.05 Z" />
<path fill="#8f4b58" opacity="1.00" d=" M 77.79 73.67 C 78.00 68.95 75.41 64.00 77.47 59.51 C 78.47 63.01 77.19 68.32 81.62 69.68 C 82.49 70.66 83.34 71.66 84.20 72.66 C 83.78 73.75 83.33 74.83 82.85 75.90 L 82.46 75.73 C 80.90 75.04 79.34 74.35 77.79 73.67 Z" />
<path fill="#ffffff" opacity="1.00" d=" M 3.46 62.28 C 6.49 61.33 9.61 61.58 12.59 62.54 C 12.83 65.04 12.10 67.74 9.31 68.35 C 6.99 69.58 5.24 67.61 4.09 65.83 C 3.85 64.65 3.64 63.47 3.46 62.28 Z" />
<path fill="#c7a334" opacity="1.00" d=" M 27.00 63.01 C 34.52 62.21 42.50 61.28 49.68 64.27 C 53.42 65.72 54.29 70.05 55.65 73.38 C 56.15 75.52 56.13 77.74 56.28 79.93 C 55.11 80.94 53.97 81.98 52.76 82.94 C 43.53 76.42 31.63 77.26 21.00 78.70 C 15.97 79.30 10.85 81.00 7.47 84.98 C 7.25 85.24 6.82 85.76 6.61 86.02 C 6.65 86.54 6.72 87.58 6.76 88.11 C 5.18 86.86 3.69 85.51 2.25 84.11 C 3.67 83.76 5.11 83.52 6.55 83.31 C 6.36 82.58 5.97 81.12 5.78 80.38 C 7.37 79.53 8.97 78.68 10.56 77.82 C 10.78 74.24 10.46 69.96 13.40 67.34 C 17.13 64.09 22.31 63.63 27.00 63.01 Z" />
<path fill="#fdfbe6" opacity="1.00" d=" M 6.36 73.14 C 7.95 71.90 9.01 74.88 7.78 75.81 C 6.19 77.03 5.14 74.06 6.36 73.14 Z" />
<path fill="#9c5b60" opacity="1.00" d=" M 77.79 73.67 C 79.34 74.35 80.90 75.04 82.46 75.73 C 81.46 79.09 80.37 82.42 78.99 85.65 C 78.42 81.67 78.07 77.67 77.79 73.67 Z" />
<path fill="#ab7227" opacity="1.00" d=" M 21.00 78.70 C 31.63 77.26 43.53 76.42 52.76 82.94 C 51.00 84.27 49.16 85.49 47.30 86.70 C 37.98 88.41 28.41 88.48 18.97 87.89 C 14.99 87.71 11.09 86.65 7.47 84.98 C 10.85 81.00 15.97 79.30 21.00 78.70 Z" />
<path fill="#d4bb3b" opacity="1.00" d=" M 52.76 82.94 C 53.97 81.98 55.11 80.94 56.28 79.93 C 56.23 80.73 56.15 82.34 56.10 83.14 C 56.76 83.49 58.07 84.17 58.72 84.52 C 55.71 87.79 51.40 89.36 47.02 89.54 C 47.10 88.59 47.19 87.64 47.30 86.70 C 49.16 85.49 51.00 84.27 52.76 82.94 Z" />
<path fill="#fdff4f" opacity="1.00" d=" M 6.61 86.02 C 6.82 85.76 7.25 85.24 7.47 84.98 C 11.09 86.65 14.99 87.71 18.97 87.89 C 28.41 88.48 37.98 88.41 47.30 86.70 C 47.19 87.64 47.10 88.59 47.02 89.54 C 36.23 91.74 25.04 92.56 14.11 90.98 C 12.76 90.65 11.41 90.35 10.05 90.08 C 8.93 89.46 7.82 88.82 6.76 88.11 C 6.72 87.58 6.65 86.54 6.61 86.02 Z" />
</svg>
