<?xml version="1.0" encoding="UTF-8" ?>
<!DOCTYPE svg PUBLIC "-//W3C//DTD SVG 1.1//EN" "http://www.w3.org/Graphics/SVG/1.1/DTD/svg11.dtd">
<svg width="128pt" height="86pt" viewBox="0 0 128 86" version="1.1" xmlns="http://www.w3.org/2000/svg">
<path fill="#000000" opacity="1.00" d=" M 108.55 0.00 L 109.92 0.00 C 110.29 0.37 111.03 1.12 111.40 1.49 C 111.45 4.04 111.52 6.60 111.62 9.16 C 113.43 10.32 115.22 11.54 116.91 12.88 C 113.76 16.71 109.76 19.68 105.86 22.69 C 103.17 19.51 100.12 16.50 98.26 12.72 C 97.78 10.37 101.23 10.75 102.59 10.04 C 102.49 7.46 102.21 4.87 102.43 2.29 C 104.00 0.65 106.46 0.51 108.55 0.00 M 104.51 3.04 C 104.67 5.92 104.73 8.80 104.65 11.68 C 103.44 12.08 102.22 12.46 101.01 12.83 C 102.84 15.13 104.70 17.40 106.62 19.61 C 108.88 17.20 111.45 15.12 113.87 12.87 C 112.48 12.33 110.95 12.05 109.69 11.20 C 109.16 8.34 109.24 5.40 109.11 2.50 C 107.58 2.69 106.04 2.86 104.51 3.04 Z" />
<path fill="#ff4d65" opacity="1.00" d=" M 104.51 3.04 C 106.04 2.86 107.58 2.69 109.11 2.50 C 109.24 5.40 109.16 8.34 109.69 11.20 C 110.95 12.05 112.48 12.33 113.87 12.87 C 111.45 15.12 108.88 17.20 106.62 19.61 C 104.70 17.40 102.84 15.13 101.01 12.83 C 102.22 12.46 103.44 12.08 104.65 11.68 C 104.73 8.80 104.67 5.92 104.51 3.04 Z" />
<path fill="#000000" opacity="1.00" d=" M 65.77 21.04 C 66.38 14.61 70.80 8.31 77.08 6.36 C 82.03 6.02 87.84 5.36 91.64 9.30 C 96.63 13.32 98.13 21.74 93.23 26.41 C 93.06 27.89 92.91 29.38 92.76 30.87 C 94.34 31.47 98.15 31.48 97.39 34.10 C 95.19 37.67 90.65 38.64 87.43 41.04 C 86.24 43.47 89.60 43.86 90.19 45.77 C 91.41 49.43 90.61 53.57 89.03 57.00 C 87.35 59.36 84.00 60.53 84.29 63.98 C 85.19 65.14 87.53 66.13 86.56 67.94 C 85.36 70.89 83.63 73.58 82.17 76.41 C 88.83 75.60 95.58 75.84 102.21 76.74 C 104.32 77.15 103.58 79.30 101.95 79.60 C 93.86 80.97 85.60 80.75 77.48 81.76 C 75.62 77.10 76.51 71.88 76.14 66.98 C 74.93 66.04 73.34 65.43 72.59 64.01 C 72.75 61.31 73.21 58.64 73.48 55.95 C 72.85 56.00 71.57 56.08 70.94 56.12 C 68.71 55.87 69.53 53.45 69.78 52.04 C 70.12 49.92 70.91 47.88 72.47 46.36 C 72.41 45.41 72.31 43.51 72.26 42.56 C 70.24 40.70 66.72 40.07 66.00 37.10 C 66.55 35.01 69.13 34.50 70.69 33.35 C 70.17 31.81 70.20 30.28 70.78 28.77 C 68.22 26.97 65.61 24.45 65.77 21.04 M 75.79 9.73 C 71.63 12.31 68.41 17.04 68.64 22.05 C 69.59 25.14 72.83 26.40 75.49 27.65 C 75.88 29.75 76.24 31.85 76.53 33.96 C 78.24 34.14 79.96 34.19 81.69 34.25 L 81.71 34.06 C 83.04 33.70 84.43 33.45 85.69 32.85 C 85.90 31.13 85.84 29.39 85.86 27.67 C 90.04 26.38 94.21 23.38 93.82 18.48 C 93.15 10.02 82.77 5.84 75.79 9.73 M 87.93 29.03 C 87.55 31.12 89.33 31.02 90.83 31.05 C 90.86 30.23 90.91 28.58 90.94 27.76 C 89.90 28.10 88.89 28.52 87.93 29.03 M 72.35 30.28 C 71.19 31.22 72.56 33.58 73.89 32.60 C 75.03 31.65 73.72 29.19 72.35 30.28 M 73.30 34.49 C 72.09 35.58 69.26 35.68 69.21 37.64 C 70.39 38.35 71.61 39.09 72.99 39.33 C 73.86 40.34 75.99 40.97 75.56 42.62 C 74.75 44.91 76.39 46.89 77.27 48.88 C 77.91 47.13 77.97 44.74 79.94 43.90 C 81.64 43.22 83.51 43.25 85.30 43.01 C 85.44 41.44 85.58 39.88 85.74 38.33 C 88.76 37.32 91.58 35.72 93.98 33.63 C 92.34 33.40 90.69 33.12 89.02 33.11 C 85.35 37.47 77.50 38.69 73.30 34.49 M 81.06 46.17 C 79.62 48.47 80.34 51.47 80.07 54.06 C 80.18 55.66 80.30 57.26 80.42 58.87 C 82.63 58.17 85.23 57.61 86.52 55.47 C 87.20 53.93 87.48 52.25 87.92 50.64 C 87.85 48.75 87.53 46.88 87.08 45.05 C 85.06 45.33 82.95 45.34 81.06 46.17 M 73.41 48.71 C 72.98 50.15 72.58 51.61 72.23 53.08 C 73.44 52.66 74.64 52.17 75.80 51.61 C 75.19 50.49 74.54 49.36 73.41 48.71 M 75.31 56.13 C 75.58 58.40 75.59 60.69 75.30 62.95 C 76.40 63.94 78.09 64.49 78.54 66.02 C 78.89 69.78 78.63 73.58 79.04 77.34 C 81.23 74.26 82.65 70.74 84.13 67.29 C 82.44 65.92 81.51 64.06 81.77 61.85 C 77.26 62.40 77.05 57.31 77.47 54.08 C 76.43 54.15 74.64 54.66 75.31 56.13 Z" />
<path fill="#fff9e1" opacity="1.00" d=" M 75.79 9.73 C 82.77 5.84 93.15 10.02 93.82 18.48 C 93.21 18.14 91.98 17.45 91.37 17.11 C 90.49 14.86 88.96 11.73 85.99 12.45 C 83.39 13.12 83.29 15.85 83.59 18.03 C 83.09 18.61 82.58 19.19 82.08 19.78 C 82.59 20.37 83.61 21.55 84.12 22.14 C 83.36 22.31 81.83 22.65 81.06 22.82 C 79.51 24.65 78.69 26.95 77.45 28.98 C 77.86 30.13 78.27 31.27 78.74 32.40 C 78.98 30.87 77.67 27.93 80.20 28.35 C 80.73 29.71 81.29 31.04 81.89 32.37 C 81.85 32.79 81.75 33.64 81.71 34.06 L 81.69 34.25 C 79.96 34.19 78.24 34.14 76.53 33.96 C 76.24 31.85 75.88 29.75 75.49 27.65 C 72.83 26.40 69.59 25.14 68.64 22.05 C 68.41 17.04 71.63 12.31 75.79 9.73 M 70.38 19.92 C 70.55 22.22 73.72 21.23 74.86 20.32 C 74.63 21.07 74.18 22.58 73.96 23.34 C 75.20 22.44 76.90 21.69 77.23 20.02 C 77.45 17.39 78.23 13.80 75.15 12.55 C 72.37 13.95 70.50 16.81 70.38 19.92 Z" />
<path fill="#000000" opacity="1.00" d=" M 119.67 10.66 C 121.42 9.97 123.31 9.78 125.15 9.46 C 125.26 11.84 125.36 14.21 125.45 16.59 C 126.30 17.18 127.15 17.77 128.00 18.36 L 128.00 18.95 C 126.50 21.13 124.82 23.18 123.08 25.18 C 121.23 23.25 119.51 21.20 117.96 19.02 C 118.39 18.58 119.26 17.71 119.70 17.27 C 119.59 15.08 119.26 12.85 119.67 10.66 M 121.42 11.25 C 121.73 14.29 121.61 17.34 121.76 20.38 C 122.26 20.92 122.78 21.43 123.33 21.92 C 123.80 21.07 124.27 20.22 124.74 19.37 C 122.86 17.27 123.27 14.41 122.93 11.82 L 121.42 11.25 Z" />
<path fill="#ff516a" opacity="1.00" d=" M 121.42 11.25 L 122.93 11.82 C 123.27 14.41 122.86 17.27 124.74 19.37 C 124.27 20.22 123.80 21.07 123.33 21.92 C 122.78 21.43 122.26 20.92 121.76 20.38 C 121.61 17.34 121.73 14.29 121.42 11.25 Z" />
<path fill="#000000" opacity="1.00" d=" M 70.38 19.92 C 70.50 16.81 72.37 13.95 75.15 12.55 C 78.23 13.80 77.45 17.39 77.23 20.02 C 76.90 21.69 75.20 22.44 73.96 23.34 C 74.18 22.58 74.63 21.07 74.86 20.32 C 73.72 21.23 70.55 22.22 70.38 19.92 Z" />
<path fill="#000000" opacity="1.00" d=" M 83.59 18.03 C 83.29 15.85 83.39 13.12 85.99 12.45 C 88.96 11.73 90.49 14.86 91.37 17.11 C 91.74 19.90 89.01 22.76 86.36 20.72 C 85.97 20.21 85.17 19.19 84.77 18.68 C 84.37 19.13 83.97 19.57 83.56 20.02 C 83.99 20.50 84.85 21.46 85.28 21.94 C 84.99 21.99 84.41 22.09 84.12 22.14 C 83.61 21.55 82.59 20.37 82.08 19.78 C 82.58 19.19 83.09 18.61 83.59 18.03 Z" />
<path fill="#bdd6de" opacity="1.00" d=" M 91.37 17.11 C 91.98 17.45 93.21 18.14 93.82 18.48 C 94.21 23.38 90.04 26.38 85.86 27.67 C 85.84 29.39 85.90 31.13 85.69 32.85 C 84.43 33.45 83.04 33.70 81.71 34.06 C 81.75 33.64 81.85 32.79 81.89 32.37 C 82.42 29.16 82.06 25.89 81.06 22.82 C 81.83 22.65 83.36 22.31 84.12 22.14 C 84.41 22.09 84.99 21.99 85.28 21.94 C 84.85 21.46 83.99 20.50 83.56 20.02 C 83.97 19.57 84.37 19.13 84.77 18.68 C 85.17 19.19 85.97 20.21 86.36 20.72 C 89.01 22.76 91.74 19.90 91.37 17.11 M 83.30 27.16 C 82.45 28.26 82.87 30.35 84.25 30.82 C 86.18 30.44 85.28 26.07 83.30 27.16 Z" />
<path fill="#000000" opacity="1.00" d=" M 109.44 23.32 C 111.31 22.70 113.84 21.64 115.47 23.34 C 116.01 25.22 115.79 27.21 115.88 29.15 C 116.85 29.76 117.81 30.37 118.77 30.99 C 116.91 32.98 115.52 35.88 112.94 36.94 C 110.53 36.28 109.23 33.50 107.40 31.87 C 108.18 31.00 108.96 30.14 109.75 29.29 C 109.62 27.30 109.53 25.31 109.44 23.32 M 111.87 23.87 C 111.65 26.87 111.84 29.91 111.18 32.87 C 112.91 34.82 114.53 32.95 116.02 31.75 C 115.38 31.23 114.74 30.71 114.10 30.19 C 113.73 28.02 115.31 23.86 111.87 23.87 Z" />
<path fill="#000000" opacity="1.00" d=" M 77.45 28.98 C 78.69 26.95 79.51 24.65 81.06 22.82 C 82.06 25.89 82.42 29.16 81.89 32.37 C 81.29 31.04 80.73 29.71 80.20 28.35 C 77.67 27.93 78.98 30.87 78.74 32.40 C 78.27 31.27 77.86 30.13 77.45 28.98 Z" />
<path fill="#ff516a" opacity="1.00" d=" M 111.87 23.87 C 115.31 23.86 113.73 28.02 114.10 30.19 C 114.74 30.71 115.38 31.23 116.02 31.75 C 114.53 32.95 112.91 34.82 111.18 32.87 C 111.84 29.91 111.65 26.87 111.87 23.87 Z" />
<path fill="#3b474d" opacity="1.00" d=" M 83.30 27.16 C 85.28 26.07 86.18 30.44 84.25 30.82 C 82.87 30.35 82.45 28.26 83.30 27.16 Z" />
<path fill="#aa9e53" opacity="1.00" d=" M 87.93 29.03 C 88.89 28.52 89.90 28.10 90.94 27.76 C 90.91 28.58 90.86 30.23 90.83 31.05 C 89.33 31.02 87.55 31.12 87.93 29.03 Z" />
<path fill="#796b37" opacity="1.00" d=" M 72.35 30.28 C 73.72 29.19 75.03 31.65 73.89 32.60 C 72.56 33.58 71.19 31.22 72.35 30.28 Z" />
<path fill="#b16f6d" opacity="1.00" d=" M 73.30 34.49 C 77.50 38.69 85.35 37.47 89.02 33.11 C 90.69 33.12 92.34 33.40 93.98 33.63 C 91.58 35.72 88.76 37.32 85.74 38.33 C 81.50 38.79 77.25 39.13 72.99 39.33 C 71.61 39.09 70.39 38.35 69.21 37.64 C 69.26 35.68 72.09 35.58 73.30 34.49 Z" />
<path fill="#8d4857" opacity="1.00" d=" M 72.99 39.33 C 77.25 39.13 81.50 38.79 85.74 38.33 C 85.58 39.88 85.44 41.44 85.30 43.01 C 83.51 43.25 81.64 43.22 79.94 43.90 C 77.97 44.74 77.91 47.13 77.27 48.88 C 76.39 46.89 74.75 44.91 75.56 42.62 C 75.99 40.97 73.86 40.34 72.99 39.33 Z" />
<path fill="#000000" opacity="1.00" d=" M 18.49 40.78 C 28.39 38.78 39.04 37.80 48.70 41.42 C 50.75 42.35 53.39 43.38 53.78 45.90 C 56.03 55.13 55.82 64.71 56.50 74.13 C 60.77 74.13 65.08 73.88 69.32 74.49 C 70.87 74.51 71.86 75.69 72.61 76.90 C 65.82 83.36 55.65 81.72 47.16 83.33 C 37.36 85.76 27.14 86.31 17.09 85.60 C 11.03 85.19 3.93 82.18 2.57 75.60 C 1.24 67.54 -0.04 59.31 0.38 51.13 C 4.54 45.25 11.80 42.62 18.49 40.78 M 7.98 48.47 C 7.21 48.67 6.46 48.92 5.73 49.23 L 6.12 49.64 C 5.76 49.91 5.06 50.45 4.71 50.72 C 4.37 51.02 3.68 51.62 3.34 51.92 C 3.08 60.48 4.82 68.90 5.76 77.36 C 8.16 80.00 11.47 81.70 14.99 82.26 C 26.19 83.42 37.84 83.00 48.66 79.66 C 50.38 78.78 54.72 77.45 53.27 75.06 C 54.30 67.38 52.41 59.70 52.08 52.03 C 51.69 49.74 52.28 46.56 49.94 45.16 C 43.49 42.57 36.43 41.81 29.54 42.54 C 29.39 42.54 29.09 42.54 28.94 42.54 C 21.64 42.57 14.07 44.33 7.98 48.47 Z" />
<path fill="#e9e0ff" opacity="1.00" d=" M 7.98 48.47 C 14.07 44.33 21.64 42.57 28.94 42.54 C 25.57 45.07 21.21 45.04 17.39 46.50 C 14.32 47.43 11.31 49.64 7.98 48.47 Z" />
<path fill="#a08db6" opacity="1.00" d=" M 28.94 42.54 C 29.09 42.54 29.39 42.54 29.54 42.54 C 31.09 43.36 32.65 44.17 34.30 44.78 C 28.95 46.63 23.39 47.75 18.02 49.56 C 19.05 49.89 20.08 50.20 21.11 50.51 C 16.99 50.69 12.87 50.70 8.75 51.00 C 8.58 51.94 8.45 52.88 8.35 53.83 C 7.88 54.47 6.94 55.74 6.47 56.38 C 5.41 54.91 4.35 53.43 3.34 51.92 C 3.68 51.62 4.37 51.02 4.71 50.72 C 5.44 52.85 8.04 50.80 6.12 49.64 L 5.73 49.23 C 6.46 48.92 7.21 48.67 7.98 48.47 C 11.31 49.64 14.32 47.43 17.39 46.50 C 21.21 45.04 25.57 45.07 28.94 42.54 Z" />
<path fill="#d5adff" opacity="1.00" d=" M 29.54 42.54 C 36.43 41.81 43.49 42.57 49.94 45.16 C 52.28 46.56 51.69 49.74 52.08 52.03 C 52.41 59.70 54.30 67.38 53.27 75.06 C 51.49 73.93 50.90 71.99 50.93 69.98 C 50.54 62.16 49.21 54.40 49.22 46.55 C 44.42 44.95 39.27 45.35 34.30 44.78 C 32.65 44.17 31.09 43.36 29.54 42.54 Z" />
<path fill="#806ba6" opacity="1.00" d=" M 18.02 49.56 C 23.39 47.75 28.95 46.63 34.30 44.78 C 39.27 45.35 44.42 44.95 49.22 46.55 C 49.21 54.40 50.54 62.16 50.93 69.98 C 50.90 71.99 51.49 73.93 53.27 75.06 C 54.72 77.45 50.38 78.78 48.66 79.66 C 37.84 83.00 26.19 83.42 14.99 82.26 C 15.71 82.11 17.16 81.82 17.89 81.67 C 17.21 81.11 16.54 80.56 15.85 80.03 C 25.34 80.55 34.91 80.12 44.26 78.38 C 46.64 77.77 49.94 76.82 50.29 73.94 C 50.62 71.61 48.12 70.37 46.34 69.60 C 39.80 67.05 32.63 67.02 25.71 67.11 C 25.25 64.24 24.93 61.35 24.72 58.46 C 23.37 57.93 22.02 57.40 20.65 56.93 C 23.19 56.65 25.70 56.18 28.22 55.71 C 27.91 55.41 27.29 54.81 26.98 54.51 C 32.63 53.59 39.05 54.07 43.76 50.28 C 42.90 50.24 41.17 50.17 40.31 50.13 C 34.02 48.07 27.51 50.48 21.11 50.51 C 20.08 50.20 19.05 49.89 18.02 49.56 Z" />
<path fill="#a18eb8" opacity="1.00" d=" M 81.06 46.17 C 82.95 45.34 85.06 45.33 87.08 45.05 C 87.53 46.88 87.85 48.75 87.92 50.64 C 85.24 51.62 82.62 52.77 80.07 54.06 C 80.34 51.47 79.62 48.47 81.06 46.17 Z" />
<path fill="#dbb2ff" opacity="1.00" d=" M 21.11 50.51 C 27.51 50.48 34.02 48.07 40.31 50.13 C 30.38 52.48 20.11 53.43 9.93 52.46 C 9.66 52.76 9.13 53.37 8.86 53.67 L 8.35 53.83 C 8.45 52.88 8.58 51.94 8.75 51.00 C 12.87 50.70 16.99 50.69 21.11 50.51 Z" />
<path fill="#a18eb8" opacity="1.00" d=" M 73.41 48.71 C 74.54 49.36 75.19 50.49 75.80 51.61 C 74.64 52.17 73.44 52.66 72.23 53.08 C 72.58 51.61 72.98 50.15 73.41 48.71 Z" />
<path fill="#c7a5ee" opacity="1.00" d=" M 4.71 50.72 C 5.06 50.45 5.76 49.91 6.12 49.64 C 8.04 50.80 5.44 52.85 4.71 50.72 Z" />
<path fill="#000000" opacity="1.00" d=" M 40.31 50.13 C 41.17 50.17 42.90 50.24 43.76 50.28 C 39.05 54.07 32.63 53.59 26.98 54.51 C 21.21 55.33 15.28 55.34 9.61 53.88 L 8.86 53.67 C 9.13 53.37 9.66 52.76 9.93 52.46 C 20.11 53.43 30.38 52.48 40.31 50.13 Z" />
<path fill="#67519a" opacity="1.00" d=" M 80.07 54.06 C 82.62 52.77 85.24 51.62 87.92 50.64 C 87.48 52.25 87.20 53.93 86.52 55.47 C 85.23 57.61 82.63 58.17 80.42 58.87 C 80.30 57.26 80.18 55.66 80.07 54.06 Z" />
<path fill="#ddb3ff" opacity="1.00" d=" M 5.76 77.36 C 4.82 68.90 3.08 60.48 3.34 51.92 C 4.35 53.43 5.41 54.91 6.47 56.38 C 6.37 56.85 6.17 57.80 6.07 58.27 C 5.88 64.63 8.55 71.28 5.76 77.36 Z" />
<path fill="#e9e0ff" opacity="1.00" d=" M 8.35 53.83 L 8.86 53.67 L 9.61 53.88 C 15.28 55.34 21.21 55.33 26.98 54.51 C 27.29 54.81 27.91 55.41 28.22 55.71 C 25.70 56.18 23.19 56.65 20.65 56.93 C 18.52 56.98 16.40 57.05 14.28 57.14 C 13.07 58.14 12.02 60.06 10.17 59.58 C 8.76 59.30 7.43 58.75 6.07 58.27 C 6.17 57.80 6.37 56.85 6.47 56.38 C 6.94 55.74 7.88 54.47 8.35 53.83 Z" />
<path fill="#904a59" opacity="1.00" d=" M 75.31 56.13 C 74.64 54.66 76.43 54.15 77.47 54.08 C 77.05 57.31 77.26 62.40 81.77 61.85 C 81.51 64.06 82.44 65.92 84.13 67.29 C 82.65 70.74 81.23 74.26 79.04 77.34 C 78.63 73.58 78.89 69.78 78.54 66.02 C 78.09 64.49 76.40 63.94 75.30 62.95 C 75.59 60.69 75.58 58.40 75.31 56.13 Z" />
<path fill="#8773aa" opacity="1.00" d=" M 14.28 57.14 C 16.40 57.05 18.52 56.98 20.65 56.93 C 22.02 57.40 23.37 57.93 24.72 58.46 C 24.93 61.35 25.25 64.24 25.71 67.11 C 20.96 67.54 16.43 69.20 12.07 71.06 C 10.35 71.93 8.14 72.87 7.72 74.98 C 8.56 78.73 12.79 79.14 15.85 80.03 C 16.54 80.56 17.21 81.11 17.89 81.67 C 17.16 81.82 15.71 82.11 14.99 82.26 C 11.47 81.70 8.16 80.00 5.76 77.36 C 8.55 71.28 5.88 64.63 6.07 58.27 C 7.43 58.75 8.76 59.30 10.17 59.58 C 12.02 60.06 13.07 58.14 14.28 57.14 Z" />
<path fill="#5b4493" opacity="1.00" d=" M 12.07 71.06 C 16.43 69.20 20.96 67.54 25.71 67.11 C 32.63 67.02 39.80 67.05 46.34 69.60 C 48.12 70.37 50.62 71.61 50.29 73.94 C 49.94 76.82 46.64 77.77 44.26 78.38 C 34.91 80.12 25.34 80.55 15.85 80.03 C 12.79 79.14 8.56 78.73 7.72 74.98 C 8.14 72.87 10.35 71.93 12.07 71.06 Z" />
</svg>
