<?xml version="1.0" encoding="UTF-8" ?>
<!DOCTYPE svg PUBLIC "-//W3C//DTD SVG 1.1//EN" "http://www.w3.org/Graphics/SVG/1.1/DTD/svg11.dtd">
<svg width="134pt" height="82pt" viewBox="0 0 134 82" version="1.1" xmlns="http://www.w3.org/2000/svg">
<path fill="#000000" opacity="1.00" d=" M 12.45 1.66 C 19.06 -1.02 26.59 0.38 33.01 2.98 C 37.81 4.90 41.43 9.17 42.75 14.15 C 46.25 25.10 40.07 39.44 28.03 41.47 C 27.61 42.31 27.21 43.15 26.81 44.00 C 30.42 46.42 30.37 51.71 26.72 54.07 C 27.00 55.52 26.44 56.83 25.88 58.13 C 24.83 63.45 24.71 68.91 23.30 74.16 C 22.29 77.16 20.89 80.35 18.01 82.00 L 16.92 82.00 C 15.30 80.02 15.65 77.38 15.29 75.02 C 14.87 69.02 12.89 63.28 11.89 57.38 C 10.19 58.24 7.76 59.80 6.21 57.81 C 4.14 54.58 3.03 50.69 2.42 46.92 C 1.95 44.50 3.64 42.54 5.55 41.36 C 5.53 38.09 4.87 34.90 2.81 32.29 C 0.74 26.17 -0.71 19.47 0.79 13.05 C 2.51 7.55 7.60 4.19 12.45 1.66 M 12.22 4.32 C 6.93 7.20 2.03 12.50 2.72 18.99 C 3.35 24.11 3.77 29.68 6.91 33.98 C 7.56 36.15 7.88 38.39 7.33 40.62 C 9.91 39.66 12.71 39.33 15.07 37.85 C 21.23 38.86 22.57 47.86 18.28 51.78 L 18.33 52.00 C 16.99 53.24 15.19 54.16 14.26 55.77 C 15.34 60.11 16.51 64.42 17.38 68.82 C 17.96 71.86 17.85 75.12 18.84 78.05 C 22.76 71.13 21.60 62.84 23.86 55.43 C 22.47 55.28 20.48 54.91 20.61 53.06 C 21.04 50.14 21.81 47.29 22.40 44.40 C 22.89 44.09 23.89 43.48 24.39 43.18 C 25.31 41.87 23.79 40.63 24.03 39.26 C 28.33 38.43 33.02 37.52 35.88 33.84 C 41.20 27.62 42.36 18.01 38.06 10.94 C 35.37 6.49 30.07 4.53 25.18 3.71 C 20.93 2.78 16.34 2.80 12.22 4.32 M 5.22 45.02 C 4.71 48.01 6.47 50.72 7.17 53.52 C 7.52 54.38 7.90 55.21 8.31 56.04 C 11.15 54.49 13.65 52.35 15.90 50.04 L 15.90 50.03 C 18.57 47.76 18.29 43.57 16.03 41.13 C 12.27 41.35 7.74 41.95 5.22 45.02 M 24.57 46.11 C 24.12 48.18 23.73 50.26 23.33 52.34 C 26.69 52.20 28.15 47.24 24.57 46.11 Z" />
<path fill="#b06e6c" opacity="1.00" d=" M 12.22 4.32 C 16.34 2.80 20.93 2.78 25.18 3.71 C 26.04 5.95 26.76 8.28 26.61 10.72 C 23.94 9.78 20.96 10.05 18.53 11.50 C 18.98 13.12 20.80 12.37 22.00 12.56 C 25.17 12.19 28.29 13.72 30.18 16.24 C 29.79 18.38 30.21 20.51 30.40 22.64 C 25.18 25.05 18.90 24.07 14.19 20.94 C 14.54 20.09 15.22 18.38 15.56 17.53 C 13.04 16.99 12.49 20.19 12.46 21.98 C 12.03 27.13 16.67 31.15 21.48 31.68 C 21.22 32.43 20.69 33.92 20.43 34.66 C 16.56 36.25 12.10 35.42 7.99 35.52 C 7.72 35.14 7.18 34.36 6.91 33.98 C 3.77 29.68 3.35 24.11 2.72 18.99 C 2.03 12.50 6.93 7.20 12.22 4.32 Z" />
<path fill="#7a354c" opacity="1.00" d=" M 25.18 3.71 C 30.07 4.53 35.37 6.49 38.06 10.94 C 42.36 18.01 41.20 27.62 35.88 33.84 C 33.02 37.52 28.33 38.43 24.03 39.26 C 23.79 40.63 25.31 41.87 24.39 43.18 C 23.89 43.48 22.89 44.09 22.40 44.40 C 21.81 47.29 21.04 50.14 20.61 53.06 C 20.48 54.91 22.47 55.28 23.86 55.43 C 21.60 62.84 22.76 71.13 18.84 78.05 C 17.85 75.12 17.96 71.86 17.38 68.82 C 19.31 65.54 18.74 61.63 19.07 58.00 C 19.26 55.96 18.98 53.93 18.33 52.00 L 18.28 51.78 C 22.57 47.86 21.23 38.86 15.07 37.85 C 12.71 39.33 9.91 39.66 7.33 40.62 C 7.88 38.39 7.56 36.15 6.91 33.98 C 7.18 34.36 7.72 35.14 7.99 35.52 C 12.10 35.42 16.56 36.25 20.43 34.66 C 20.69 33.92 21.22 32.43 21.48 31.68 C 26.28 31.37 32.21 30.28 34.31 25.32 C 36.21 19.36 32.36 12.76 26.61 10.72 C 26.76 8.28 26.04 5.95 25.18 3.71 Z" />
<path fill="#000000" opacity="1.00" d=" M 18.53 11.50 C 20.96 10.05 23.94 9.78 26.61 10.72 C 32.36 12.76 36.21 19.36 34.31 25.32 C 32.21 30.28 26.28 31.37 21.48 31.68 C 16.67 31.15 12.03 27.13 12.46 21.98 C 12.49 20.19 13.04 16.99 15.56 17.53 C 15.22 18.38 14.54 20.09 14.19 20.94 C 13.06 25.59 17.40 29.96 21.95 29.85 C 25.71 29.78 30.28 28.81 32.26 25.24 C 33.19 22.13 32.44 18.61 30.18 16.24 C 28.29 13.72 25.17 12.19 22.00 12.56 C 20.80 12.37 18.98 13.12 18.53 11.50 Z" />
<path fill="#8c4856" opacity="1.00" d=" M 30.18 16.24 C 32.44 18.61 33.19 22.13 32.26 25.24 C 30.28 28.81 25.71 29.78 21.95 29.85 C 17.40 29.96 13.06 25.59 14.19 20.94 C 18.90 24.07 25.18 25.05 30.40 22.64 C 30.21 20.51 29.79 18.38 30.18 16.24 Z" />
<path fill="#000000" opacity="1.00" d=" M 68.84 31.97 C 78.15 29.82 89.30 30.50 96.36 37.68 C 103.54 45.66 104.16 57.52 102.08 67.57 C 111.69 67.10 121.35 67.35 130.88 68.69 C 132.12 68.76 133.03 69.66 134.00 70.32 L 134.00 71.10 C 132.71 72.80 130.52 73.05 128.55 73.28 C 117.25 74.43 105.92 75.15 94.58 75.86 C 83.51 79.07 71.79 79.15 60.36 78.61 C 55.24 77.73 48.98 77.97 45.43 73.51 C 40.75 68.31 39.30 60.50 41.81 53.96 C 45.94 42.40 56.94 34.18 68.84 31.97 M 54.21 41.83 L 54.61 41.74 C 53.28 42.57 52.17 43.71 51.13 44.87 C 44.66 50.99 41.11 61.31 45.97 69.47 C 46.92 71.69 48.26 73.89 50.90 74.17 C 53.23 74.53 55.52 75.16 57.87 75.36 C 70.42 76.18 83.51 76.47 95.62 72.53 C 97.54 72.30 98.05 70.32 98.79 68.86 L 98.39 68.70 C 100.80 61.00 100.23 52.28 97.33 44.76 C 95.52 41.14 93.06 37.21 88.94 36.00 C 77.40 31.87 63.95 34.61 54.21 41.83 Z" />
<path fill="#ffab72" opacity="1.00" d=" M 54.21 41.83 C 63.95 34.61 77.40 31.87 88.94 36.00 C 93.06 37.21 95.52 41.14 97.33 44.76 C 100.23 52.28 100.80 61.00 98.39 68.70 C 98.05 68.57 97.36 68.30 97.02 68.17 C 97.92 60.54 97.99 52.50 94.95 45.31 C 94.19 43.25 92.88 41.44 91.56 39.70 C 91.48 40.56 91.32 42.27 91.24 43.13 C 88.76 41.42 86.21 39.37 83.08 39.17 C 75.42 38.57 67.42 38.43 60.21 41.49 C 58.34 41.25 56.43 41.15 54.61 41.74 L 54.21 41.83 Z" />
<path fill="#cc6c62" opacity="1.00" d=" M 60.21 41.49 C 67.42 38.43 75.42 38.57 83.08 39.17 C 86.21 39.37 88.76 41.42 91.24 43.13 C 90.30 49.60 88.38 55.96 85.05 61.62 C 77.97 60.89 70.87 61.92 63.83 62.59 C 60.16 62.82 56.63 64.03 53.62 66.13 C 52.06 66.35 50.51 66.57 48.96 66.80 C 48.14 63.60 46.82 60.40 47.17 57.03 C 47.51 53.56 49.31 50.47 51.19 47.62 C 54.04 53.70 65.82 46.70 60.21 41.49 M 66.43 46.37 C 64.75 48.16 67.67 51.15 69.41 49.41 C 72.01 47.67 68.35 43.80 66.43 46.37 Z" />
<path fill="#a6444b" opacity="1.00" d=" M 91.56 39.70 C 92.88 41.44 94.19 43.25 94.95 45.31 C 92.60 47.63 93.79 51.08 93.22 53.99 C 93.22 56.00 91.71 58.74 94.00 60.07 C 94.81 59.90 95.62 59.72 96.42 59.51 C 96.69 63.05 93.66 65.42 90.94 67.04 C 89.05 65.52 87.39 63.74 85.58 62.13 L 85.05 61.62 C 88.38 55.96 90.30 49.60 91.24 43.13 C 91.32 42.27 91.48 40.56 91.56 39.70 Z" />
<path fill="#ffab72" opacity="1.00" d=" M 5.22 45.02 C 7.74 41.95 12.27 41.35 16.03 41.13 C 18.29 43.57 18.57 47.76 15.90 50.03 C 15.71 49.34 15.34 47.96 15.16 47.27 C 12.23 48.99 9.71 51.30 7.17 53.52 C 6.47 50.72 4.71 48.01 5.22 45.02 Z" />
<path fill="#feffbf" opacity="1.00" d=" M 54.61 41.74 C 56.43 41.15 58.34 41.25 60.21 41.49 C 65.82 46.70 54.04 53.70 51.19 47.62 C 51.18 46.93 51.15 45.55 51.13 44.87 C 52.17 43.71 53.28 42.57 54.61 41.74 Z" />
<path fill="#ee946d" opacity="1.00" d=" M 45.97 69.47 C 41.11 61.31 44.66 50.99 51.13 44.87 C 51.15 45.55 51.18 46.93 51.19 47.62 C 49.31 50.47 47.51 53.56 47.17 57.03 C 46.82 60.40 48.14 63.60 48.96 66.80 C 47.96 67.68 46.96 68.58 45.97 69.47 Z" />
<path fill="#ffab72" opacity="1.00" d=" M 24.57 46.11 C 28.15 47.24 26.69 52.20 23.33 52.34 C 23.73 50.26 24.12 48.18 24.57 46.11 Z" />
<path fill="#f8ebb5" opacity="1.00" d=" M 66.43 46.37 C 68.35 43.80 72.01 47.67 69.41 49.41 C 67.67 51.15 64.75 48.16 66.43 46.37 Z" />
<path fill="#922b48" opacity="1.00" d=" M 93.22 53.99 C 93.79 51.08 92.60 47.63 94.95 45.31 C 97.99 52.50 97.92 60.54 97.02 68.17 C 97.36 68.30 98.05 68.57 98.39 68.70 L 98.79 68.86 C 98.05 70.32 97.54 72.30 95.62 72.53 C 83.51 76.47 70.42 76.18 57.87 75.36 C 66.57 75.24 75.34 75.32 83.93 73.74 C 88.24 73.01 92.70 72.34 96.58 70.20 L 96.53 69.05 C 91.86 68.98 87.34 70.30 82.71 70.73 C 75.05 71.91 67.25 72.03 59.54 71.34 C 60.54 70.10 61.02 67.92 62.99 67.99 C 70.71 67.24 79.11 67.00 85.58 62.13 C 87.39 63.74 89.05 65.52 90.94 67.04 C 93.66 65.42 96.69 63.05 96.42 59.51 C 95.62 59.72 94.81 59.90 94.00 60.07 C 91.71 58.74 93.22 56.00 93.22 53.99 Z" />
<path fill="#ce6e63" opacity="1.00" d=" M 7.17 53.52 C 9.71 51.30 12.23 48.99 15.16 47.27 C 15.34 47.96 15.71 49.34 15.90 50.03 L 15.90 50.04 C 13.65 52.35 11.15 54.49 8.31 56.04 C 7.90 55.21 7.52 54.38 7.17 53.52 Z" />
<path fill="#a15e63" opacity="1.00" d=" M 14.26 55.77 C 15.19 54.16 16.99 53.24 18.33 52.00 C 18.98 53.93 19.26 55.96 19.07 58.00 C 18.74 61.63 19.31 65.54 17.38 68.82 C 16.51 64.42 15.34 60.11 14.26 55.77 Z" />
<path fill="#a43955" opacity="1.00" d=" M 63.83 62.59 C 70.87 61.92 77.97 60.89 85.05 61.62 L 85.58 62.13 C 79.11 67.00 70.71 67.24 62.99 67.99 C 61.02 67.92 60.54 70.10 59.54 71.34 C 58.92 71.30 57.68 71.24 57.06 71.21 C 55.39 69.91 54.09 68.23 53.62 66.13 C 56.63 64.03 60.16 62.82 63.83 62.59 Z" />
<path fill="#bf5c5b" opacity="1.00" d=" M 48.96 66.80 C 50.51 66.57 52.06 66.35 53.62 66.13 C 54.09 68.23 55.39 69.91 57.06 71.21 C 54.67 71.12 52.28 71.00 49.88 71.05 C 50.19 72.10 50.52 73.14 50.90 74.17 C 48.26 73.89 46.92 71.69 45.97 69.47 C 46.96 68.58 47.96 67.68 48.96 66.80 Z" />
<path fill="#d97a65" opacity="1.00" d=" M 82.71 70.73 C 87.34 70.30 91.86 68.98 96.53 69.05 L 96.58 70.20 C 92.70 72.34 88.24 73.01 83.93 73.74 C 75.34 75.32 66.57 75.24 57.87 75.36 C 55.52 75.16 53.23 74.53 50.90 74.17 C 50.52 73.14 50.19 72.10 49.88 71.05 C 52.28 71.00 54.67 71.12 57.06 71.21 C 57.68 71.24 58.92 71.30 59.54 71.34 C 67.25 72.03 75.05 71.91 82.71 70.73 Z" />
</svg>
