<?xml version="1.0" encoding="UTF-8" ?>
<!DOCTYPE svg PUBLIC "-//W3C//DTD SVG 1.1//EN" "http://www.w3.org/Graphics/SVG/1.1/DTD/svg11.dtd">
<svg width="126pt" height="132pt" viewBox="0 0 126 132" version="1.1" xmlns="http://www.w3.org/2000/svg">
<path fill="#000000" opacity="1.00" d=" M 75.65 1.61 C 79.68 -2.42 86.05 3.30 85.01 7.95 C 84.59 9.49 83.33 10.97 81.62 10.99 C 79.82 10.97 78.03 10.94 76.23 10.93 C 71.78 10.05 72.95 3.85 75.65 1.61 M 76.24 4.07 L 75.83 4.15 C 75.59 5.66 75.51 7.18 75.63 8.70 C 77.86 9.31 80.66 10.12 82.37 7.97 C 83.42 5.87 81.21 3.93 79.68 2.82 C 79.54 0.57 75.33 2.25 76.24 4.07 Z" />
<path fill="#465b1b" opacity="0.80" d=" M 76.24 4.07 C 75.33 2.25 79.54 0.57 79.68 2.82 C 78.56 3.30 77.45 3.86 76.24 4.07 Z" />
<path fill="#bdff4c" opacity="1.00" d=" M 76.24 4.07 C 77.45 3.86 78.56 3.30 79.68 2.82 C 81.21 3.93 83.42 5.87 82.37 7.97 C 80.66 10.12 77.86 9.31 75.63 8.70 C 76.17 7.72 78.79 7.34 77.93 5.85 C 77.41 5.43 76.36 4.58 75.83 4.15 L 76.24 4.07 Z" />
<path fill="#fff2cb" opacity="1.00" d=" M 75.63 8.70 C 75.51 7.18 75.59 5.66 75.83 4.15 C 76.36 4.58 77.41 5.43 77.93 5.85 C 78.79 7.34 76.17 7.72 75.63 8.70 Z" />
<path fill="#000000" opacity="1.00" d=" M 116.50 7.62 C 120.20 6.03 124.80 7.99 125.59 12.09 C 127.36 17.28 120.92 22.44 116.21 19.66 C 111.18 17.64 111.87 9.68 116.50 7.62 M 117.03 9.44 C 115.40 11.02 113.98 13.56 115.20 15.80 C 115.88 17.34 117.69 17.72 119.00 18.55 C 120.38 17.77 122.19 17.38 122.98 15.85 C 124.38 13.86 122.76 11.68 121.91 9.84 C 120.33 9.26 118.68 9.32 117.03 9.44 Z" />
<path fill="#fff2cb" opacity="1.00" d=" M 117.03 9.44 C 118.68 9.32 120.33 9.26 121.91 9.84 C 120.93 10.89 119.94 11.93 118.96 12.97 C 118.32 11.79 117.68 10.62 117.03 9.44 Z" />
<path fill="#beff4d" opacity="1.00" d=" M 115.20 15.80 C 113.98 13.56 115.40 11.02 117.03 9.44 C 117.68 10.62 118.32 11.79 118.96 12.97 C 119.94 11.93 120.93 10.89 121.91 9.84 C 122.76 11.68 124.38 13.86 122.98 15.85 C 122.19 17.38 120.38 17.77 119.00 18.55 C 117.69 17.72 115.88 17.34 115.20 15.80 Z" />
<path fill="#2a3811" opacity="0.68" d=" M 76.23 10.93 C 78.03 10.94 79.82 10.97 81.62 10.99 C 81.17 12.89 76.52 12.93 76.23 10.93 Z" />
<path fill="#000000" opacity="1.00" d=" M 81.59 13.65 C 85.73 12.55 87.62 19.11 82.99 19.63 C 78.92 20.81 78.07 14.72 81.59 13.65 M 81.03 15.44 C 79.57 16.84 82.23 18.81 83.48 17.53 C 84.85 16.09 82.30 14.26 81.03 15.44 Z" />
<path fill="#c3ff4f" opacity="1.00" d=" M 81.03 15.44 C 82.30 14.26 84.85 16.09 83.48 17.53 C 82.23 18.81 79.57 16.84 81.03 15.44 Z" />
<path fill="#000000" opacity="1.00" d=" M 107.48 18.55 C 110.41 17.04 113.93 21.12 111.72 23.67 C 110.18 25.72 106.04 26.62 104.75 23.93 C 103.82 21.78 105.26 19.13 107.48 18.55 M 105.76 23.18 C 107.55 23.72 110.53 23.66 110.03 20.96 C 108.03 19.51 106.10 21.05 105.76 23.18 Z" />
<path fill="#c3ff4f" opacity="1.00" d=" M 105.76 23.18 C 106.10 21.05 108.03 19.51 110.03 20.96 C 110.53 23.66 107.55 23.72 105.76 23.18 Z" />
<path fill="#000000" opacity="1.00" d=" M 83.77 23.61 C 84.51 22.62 86.02 21.75 86.88 23.18 C 88.60 25.02 85.69 27.79 83.69 26.16 C 84.73 25.31 84.76 24.46 83.77 23.61 Z" />
<path fill="#80ab34" opacity="0.91" d=" M 83.69 26.16 C 82.48 25.28 82.51 24.43 83.77 23.61 C 84.76 24.46 84.73 25.31 83.69 26.16 Z" />
<path fill="#070903" opacity="0.78" d=" M 97.92 27.20 C 98.02 25.05 99.82 25.47 101.31 25.83 C 102.12 27.84 101.23 29.71 100.03 31.31 C 98.24 31.36 96.45 29.67 97.45 27.87 C 98.80 31.61 101.88 26.88 97.92 27.20 Z" />
<path fill="#2b3911" opacity="0.48" d=" M 101.31 25.83 C 101.72 26.73 102.61 27.48 102.64 28.52 C 102.27 29.82 100.91 30.41 100.03 31.31 C 101.23 29.71 102.12 27.84 101.31 25.83 Z" />
<path fill="#000000" opacity="1.00" d=" M 43.44 27.47 C 45.39 26.21 47.88 26.32 50.09 26.50 C 53.63 28.36 53.93 34.25 50.60 36.47 C 47.52 38.63 42.48 37.74 40.67 34.33 C 39.45 31.76 41.22 28.83 43.44 27.47 M 44.37 29.86 L 43.13 29.80 L 43.56 30.40 C 40.26 34.49 47.79 37.19 50.13 33.88 C 51.61 31.91 50.30 29.65 49.43 27.76 C 47.73 28.41 46.00 29.03 44.37 29.86 Z" />
<path fill="#bdff4c" opacity="1.00" d=" M 97.92 27.20 C 101.88 26.88 98.80 31.61 97.45 27.87 L 97.92 27.20 Z" />
<path fill="#000000" opacity="1.00" d=" M 75.49 38.10 C 76.64 32.20 82.31 28.07 88.12 27.57 C 92.28 26.60 95.81 30.05 97.73 33.34 C 100.01 37.75 101.39 43.32 99.11 48.00 C 98.27 50.11 96.10 51.05 94.31 52.19 C 94.87 59.20 94.44 66.24 94.57 73.27 C 97.91 74.64 101.15 77.15 101.41 81.05 C 101.64 85.72 100.55 91.04 96.73 94.11 C 96.25 102.49 97.75 110.83 97.09 119.19 C 101.68 118.78 106.38 118.37 110.92 119.43 C 112.35 119.59 113.73 121.34 112.50 122.61 C 110.52 124.46 107.44 123.93 104.95 124.32 C 98.33 124.36 91.73 124.44 85.13 124.40 C 77.64 125.57 70.05 125.94 62.54 126.92 C 53.71 130.13 44.28 131.33 34.93 131.80 C 26.13 131.94 17.06 132.27 8.63 129.29 C 6.77 128.49 4.12 128.90 3.12 126.78 C 0.10 122.20 -0.28 116.43 0.31 111.12 C 1.29 103.80 5.97 97.51 11.66 93.05 C 9.34 89.45 7.56 85.23 7.93 80.88 C 8.22 78.31 10.70 76.91 12.67 75.67 C 21.02 71.07 30.56 68.88 40.03 68.36 C 42.54 68.40 45.80 68.13 47.42 70.45 C 50.16 75.30 49.69 81.13 49.02 86.45 C 55.15 88.98 60.49 93.57 63.35 99.62 C 66.46 105.91 66.66 113.13 66.06 119.99 C 72.45 119.15 78.90 119.19 85.33 119.18 C 85.63 111.26 84.62 103.38 84.79 95.46 C 83.11 94.47 81.09 93.34 81.32 91.06 C 81.38 85.32 79.95 78.18 84.71 73.85 C 83.33 66.85 83.85 59.72 84.27 52.65 C 82.62 51.88 81.04 50.95 79.93 49.46 C 78.54 51.80 76.94 54.38 73.79 53.45 C 73.61 52.89 73.27 51.78 73.09 51.22 C 74.10 51.45 76.12 51.92 77.13 52.15 L 74.78 50.28 C 76.17 49.76 77.45 49.01 78.59 48.06 C 75.26 46.13 74.92 41.52 75.49 38.10 M 78.91 37.58 C 77.87 41.00 78.92 44.94 81.80 47.13 C 84.91 49.80 89.36 49.91 93.11 48.72 C 93.92 48.22 94.73 47.72 95.54 47.23 C 97.76 42.96 96.39 37.77 93.90 33.95 C 91.88 31.55 88.38 30.24 85.32 31.20 C 82.42 32.37 80.09 34.69 78.91 37.58 M 87.30 53.02 C 87.15 54.78 87.00 56.54 86.83 58.30 C 86.24 63.35 86.91 68.43 86.54 73.49 C 88.37 73.39 90.21 73.32 92.04 73.29 C 91.28 67.89 91.57 62.41 91.66 56.98 C 91.59 55.92 91.43 54.88 91.19 53.86 C 89.92 53.46 88.60 53.26 87.30 53.02 M 11.44 80.91 C 11.05 84.58 12.64 88.03 13.96 91.35 C 17.68 88.92 21.77 87.19 25.98 85.82 C 24.81 84.43 23.02 84.69 21.42 84.52 C 20.71 82.11 19.30 78.16 23.21 78.15 C 23.26 77.59 23.36 76.48 23.41 75.92 C 25.55 74.96 27.72 74.04 29.92 73.23 C 31.40 75.25 33.78 74.70 35.87 75.22 C 38.27 77.20 37.58 81.46 34.32 82.09 C 34.29 82.67 34.22 83.82 34.18 84.40 C 38.04 84.26 41.94 84.36 45.70 85.34 C 46.34 81.07 46.64 76.40 44.63 72.43 C 42.24 71.29 39.46 71.91 36.93 72.09 C 28.03 73.21 18.57 75.16 11.44 80.91 M 22.64 81.45 C 24.39 81.73 26.31 81.85 27.30 83.57 C 28.71 83.40 30.11 83.23 31.51 83.05 C 31.52 82.37 31.53 81.01 31.54 80.33 C 32.33 80.14 33.90 79.76 34.69 79.57 C 34.72 79.05 34.78 78.01 34.81 77.49 C 32.89 77.36 30.97 77.04 29.25 76.14 C 26.11 76.58 24.95 79.72 22.64 81.45 M 85.88 76.82 C 83.58 81.24 84.64 86.67 84.51 91.52 C 88.34 91.74 92.62 92.06 96.00 89.95 C 98.19 86.78 98.56 82.70 97.60 79.04 C 94.54 75.96 89.86 75.24 85.88 76.82 M 18.87 92.72 C 16.99 93.57 15.26 94.75 13.69 96.09 C 8.85 99.77 5.02 105.03 3.91 111.08 C 3.04 115.62 3.86 120.27 5.50 124.53 C 18.17 129.99 32.50 128.68 45.86 127.20 C 51.83 126.15 58.23 125.63 63.35 122.06 C 62.42 116.19 63.34 110.07 61.42 104.35 C 59.40 97.82 54.24 92.45 47.91 89.92 C 38.53 85.94 27.57 87.92 18.87 92.72 M 87.67 95.24 C 87.54 97.91 87.44 100.62 88.10 103.23 C 88.52 109.38 88.49 115.54 88.61 121.70 C 90.15 121.58 91.74 121.65 93.20 121.11 C 95.61 114.24 93.14 106.92 93.39 99.86 C 93.45 98.08 93.49 96.31 93.54 94.53 C 91.58 94.77 89.63 95.01 87.67 95.24 Z" />
<path fill="#bdff4b" opacity="1.00" d=" M 44.37 29.86 C 46.00 29.03 47.73 28.41 49.43 27.76 C 50.30 29.65 51.61 31.91 50.13 33.88 C 47.79 37.19 40.26 34.49 43.56 30.40 C 44.44 31.39 45.00 33.26 46.68 32.79 C 46.86 32.12 47.23 30.78 47.42 30.11 C 46.66 30.05 45.13 29.92 44.37 29.86 Z" />
<path fill="#ecf8a5" opacity="1.00" d=" M 43.13 29.80 L 44.37 29.86 C 45.13 29.92 46.66 30.05 47.42 30.11 C 47.23 30.78 46.86 32.12 46.68 32.79 C 45.00 33.26 44.44 31.39 43.56 30.40 L 43.13 29.80 Z" />
<path fill="#fff2cb" opacity="1.00" d=" M 78.91 37.58 C 80.09 34.69 82.42 32.37 85.32 31.20 C 87.79 32.62 89.44 34.96 90.81 37.38 C 89.06 41.03 85.20 42.01 81.47 41.31 C 80.75 39.99 79.82 38.79 78.91 37.58 Z" />
<path fill="#bfff4d" opacity="1.00" d=" M 85.32 31.20 C 88.38 30.24 91.88 31.55 93.90 33.95 C 96.39 37.77 97.76 42.96 95.54 47.23 C 94.85 46.10 94.17 44.97 93.51 43.83 C 93.17 41.48 92.09 39.35 90.81 37.38 C 89.44 34.96 87.79 32.62 85.32 31.20 Z" />
<path fill="#030402" opacity="0.92" d=" M 58.25 32.34 C 61.65 29.92 65.49 34.61 63.69 37.81 C 62.60 40.34 59.01 40.78 57.03 39.03 C 54.68 37.28 55.81 33.44 58.25 32.34 M 59.78 37.17 L 59.27 38.01 C 62.01 38.75 63.51 33.73 60.29 34.19 C 57.48 32.61 56.64 37.49 59.78 37.17 Z" />
<path fill="#fff2cb" opacity="1.00" d=" M 59.78 37.17 C 56.64 37.49 57.48 32.61 60.29 34.19 C 60.61 35.27 60.44 36.26 59.78 37.17 Z" />
<path fill="#bfff4d" opacity="1.00" d=" M 60.29 34.19 C 63.51 33.73 62.01 38.75 59.27 38.01 L 59.78 37.17 C 60.44 36.26 60.61 35.27 60.29 34.19 Z" />
<path fill="#000000" opacity="1.00" d=" M 66.61 41.20 C 66.15 38.80 67.57 35.96 70.36 36.54 C 70.65 37.00 71.24 37.91 71.54 38.37 C 70.80 38.37 69.31 38.37 68.57 38.37 C 67.15 41.50 70.97 40.75 72.23 39.17 C 72.07 42.40 68.85 42.51 66.61 41.20 Z" />
<path fill="#c3ff4f" opacity="1.00" d=" M 68.57 38.37 C 69.31 38.37 70.80 38.37 71.54 38.37 L 72.15 38.71 L 72.23 39.17 C 70.97 40.75 67.15 41.50 68.57 38.37 Z" />
<path fill="#54ad61" opacity="1.00" d=" M 90.81 37.38 C 92.09 39.35 93.17 41.48 93.51 43.83 C 92.44 44.79 91.39 45.76 90.34 46.75 C 88.08 46.62 85.47 46.98 83.65 45.31 C 82.60 44.19 82.18 42.65 81.47 41.31 C 85.20 42.01 89.06 41.03 90.81 37.38 Z" />
<path fill="#c3ff4f" opacity="1.00" d=" M 78.91 37.58 C 79.82 38.79 80.75 39.99 81.47 41.31 C 82.18 42.65 82.60 44.19 83.65 45.31 C 85.47 46.98 88.08 46.62 90.34 46.75 C 91.27 47.40 92.19 48.06 93.11 48.72 C 89.36 49.91 84.91 49.80 81.80 47.13 C 78.92 44.94 77.87 41.00 78.91 37.58 Z" />
<path fill="#fff2cb" opacity="1.00" d=" M 93.51 43.83 C 94.17 44.97 94.85 46.10 95.54 47.23 C 94.73 47.72 93.92 48.22 93.11 48.72 C 92.19 48.06 91.27 47.40 90.34 46.75 C 91.39 45.76 92.44 44.79 93.51 43.83 Z" />
<path fill="#000000" opacity="1.00" d=" M 102.07 48.46 C 103.37 46.22 106.54 48.06 106.48 50.18 C 106.80 52.05 105.05 53.83 103.18 53.44 C 101.24 53.29 100.90 50.78 101.50 49.29 C 101.76 50.58 103.08 52.81 104.54 51.44 C 105.29 50.11 103.54 49.31 102.72 48.64 L 102.07 48.46 Z" />
<path fill="#c3ff4f" opacity="1.00" d=" M 101.58 48.76 L 102.07 48.46 L 102.72 48.64 C 103.54 49.31 105.29 50.11 104.54 51.44 C 103.08 52.81 101.76 50.58 101.50 49.29 L 101.58 48.76 Z" />
<path fill="#000000" opacity="1.00" d=" M 69.57 53.54 C 71.84 52.89 74.03 54.90 74.57 56.99 C 74.66 60.55 69.26 61.22 67.62 58.47 C 66.87 56.65 67.80 54.38 69.57 53.54 M 68.40 55.80 C 68.85 58.23 70.91 57.96 72.78 57.61 C 71.88 55.70 70.50 54.61 68.40 55.80 Z" />
<path fill="#cc9d53" opacity="1.00" d=" M 87.30 53.02 C 88.60 53.26 89.92 53.46 91.19 53.86 C 91.43 54.88 91.59 55.92 91.66 56.98 C 90.05 57.42 88.44 57.86 86.83 58.30 C 87.00 56.54 87.15 54.78 87.30 53.02 Z" />
<path fill="#000000" opacity="1.00" d=" M 106.16 57.10 C 106.16 54.57 109.02 53.46 110.96 54.86 C 111.28 56.61 111.32 58.40 111.27 60.18 C 109.17 61.28 105.54 59.85 106.16 57.10 M 107.82 55.93 C 106.60 57.09 108.36 59.42 109.80 58.52 C 111.00 57.41 109.20 55.07 107.82 55.93 Z" />
<path fill="#fff2cb" opacity="1.00" d=" M 68.40 55.80 C 70.50 54.61 71.88 55.70 72.78 57.61 C 70.91 57.96 68.85 58.23 68.40 55.80 Z" />
<path fill="#bdff4b" opacity="1.00" d=" M 110.96 54.86 C 113.13 54.79 113.14 58.72 112.11 60.14 C 111.90 60.15 111.48 60.17 111.27 60.18 C 111.32 58.40 111.28 56.61 110.96 54.86 Z" />
<path fill="#c3ff4f" opacity="1.00" d=" M 107.82 55.93 C 109.20 55.07 111.00 57.41 109.80 58.52 C 108.36 59.42 106.60 57.09 107.82 55.93 Z" />
<path fill="#ffe275" opacity="1.00" d=" M 86.83 58.30 C 88.44 57.86 90.05 57.42 91.66 56.98 C 91.57 62.41 91.28 67.89 92.04 73.29 C 90.21 73.32 88.37 73.39 86.54 73.49 C 86.91 68.43 86.24 63.35 86.83 58.30 Z" />
<path fill="#000000" opacity="1.00" d=" M 118.53 60.39 C 122.10 60.65 125.31 64.40 125.27 67.98 C 125.09 72.25 118.74 73.94 116.26 70.60 C 113.93 67.34 115.70 62.75 118.53 60.39 M 117.75 63.93 C 116.75 66.46 117.06 69.41 119.92 70.46 C 120.88 69.95 121.77 69.36 122.60 68.68 C 123.39 66.53 121.46 64.92 120.33 63.37 C 119.17 62.05 118.31 62.24 117.75 63.93 Z" />
<path fill="#000000" opacity="1.00" d=" M 59.89 62.93 C 61.90 62.35 63.61 60.04 65.83 61.18 C 68.95 62.18 71.25 65.69 70.31 68.96 C 68.72 74.09 60.29 75.18 57.59 70.52 C 56.30 67.79 58.00 64.88 59.89 62.93 M 59.57 70.59 L 61.08 70.08 L 59.85 70.73 C 62.32 71.24 65.61 71.78 67.41 69.52 C 70.07 66.42 65.36 61.56 62.01 63.61 C 59.23 64.74 59.07 68.07 59.57 70.59 Z" />
<path fill="#faf9c5" opacity="1.00" d=" M 117.75 63.93 C 118.31 62.24 119.17 62.05 120.33 63.37 C 119.73 64.82 118.87 65.00 117.75 63.93 Z" />
<path fill="#beff4d" opacity="1.00" d=" M 59.57 70.59 C 59.07 68.07 59.23 64.74 62.01 63.61 C 65.36 61.56 70.07 66.42 67.41 69.52 C 65.61 71.78 62.32 71.24 59.85 70.73 L 61.08 70.08 C 61.80 69.78 63.22 69.18 63.94 68.88 C 62.98 67.80 61.98 66.77 60.94 65.78 C 60.47 67.38 60.02 68.98 59.57 70.59 Z" />
<path fill="#c3ff4f" opacity="1.00" d=" M 119.92 70.46 C 117.06 69.41 116.75 66.46 117.75 63.93 C 118.87 65.00 119.73 64.82 120.33 63.37 C 121.46 64.92 123.39 66.53 122.60 68.68 C 121.77 69.36 120.88 69.95 119.92 70.46 Z" />
<path fill="#f3f8b1" opacity="1.00" d=" M 59.57 70.59 C 60.02 68.98 60.47 67.38 60.94 65.78 C 61.98 66.77 62.98 67.80 63.94 68.88 C 63.22 69.18 61.80 69.78 61.08 70.08 L 59.57 70.59 Z" />
<path fill="#fff9e1" opacity="1.00" d=" M 11.44 80.91 C 18.57 75.16 28.03 73.21 36.93 72.09 C 39.46 71.91 42.24 71.29 44.63 72.43 C 46.64 76.40 46.34 81.07 45.70 85.34 C 41.94 84.36 38.04 84.26 34.18 84.40 C 34.22 83.82 34.29 82.67 34.32 82.09 C 37.58 81.46 38.27 77.20 35.87 75.22 C 33.78 74.70 31.40 75.25 29.92 73.23 C 27.72 74.04 25.55 74.96 23.41 75.92 C 23.36 76.48 23.26 77.59 23.21 78.15 C 19.30 78.16 20.71 82.11 21.42 84.52 C 23.02 84.69 24.81 84.43 25.98 85.82 C 21.77 87.19 17.68 88.92 13.96 91.35 C 12.64 88.03 11.05 84.58 11.44 80.91 Z" />
<path fill="#beff4d" opacity="1.00" d=" M 22.64 81.45 C 24.95 79.72 26.11 76.58 29.25 76.14 C 30.97 77.04 32.89 77.36 34.81 77.49 C 34.78 78.01 34.72 79.05 34.69 79.57 C 33.90 79.76 32.33 80.14 31.54 80.33 C 31.53 81.01 31.52 82.37 31.51 83.05 C 30.11 83.23 28.71 83.40 27.30 83.57 C 26.31 81.85 24.39 81.73 22.64 81.45 Z" />
<path fill="#beff4d" opacity="1.00" d=" M 85.88 76.82 C 89.86 75.24 94.54 75.96 97.60 79.04 C 94.63 84.58 88.97 87.42 84.51 91.52 C 84.64 86.67 83.58 81.24 85.88 76.82 Z" />
<path fill="#88d659" opacity="1.00" d=" M 84.51 91.52 C 88.97 87.42 94.63 84.58 97.60 79.04 C 98.56 82.70 98.19 86.78 96.00 89.95 C 92.62 92.06 88.34 91.74 84.51 91.52 Z" />
<path fill="#beff4e" opacity="1.00" d=" M 18.87 92.72 C 27.57 87.92 38.53 85.94 47.91 89.92 C 54.24 92.45 59.40 97.82 61.42 104.35 C 63.34 110.07 62.42 116.19 63.35 122.06 C 58.23 125.63 51.83 126.15 45.86 127.20 C 32.50 128.68 18.17 129.99 5.50 124.53 C 3.86 120.27 3.04 115.62 3.91 111.08 C 5.02 105.03 8.85 99.77 13.69 96.09 C 13.65 96.54 13.57 97.43 13.53 97.88 C 13.91 98.47 14.67 99.65 15.05 100.24 C 11.45 102.04 8.04 104.70 6.56 108.57 C 5.17 112.38 5.15 116.70 6.42 120.54 C 7.11 122.90 9.73 123.60 11.71 124.52 C 18.28 127.94 25.85 127.62 33.05 127.64 C 38.79 127.51 44.74 127.38 50.09 125.05 C 50.30 124.70 50.71 124.01 50.91 123.66 C 54.74 121.73 58.60 119.82 61.98 117.14 C 61.71 109.53 59.50 101.58 53.83 96.19 C 49.30 92.06 42.77 92.29 37.05 92.21 C 32.61 92.05 28.22 93.09 24.25 95.04 C 23.50 94.12 22.75 93.20 22.01 92.27 C 21.23 92.38 19.66 92.61 18.87 92.72 Z" />
<path fill="#6ec15c" opacity="1.00" d=" M 24.25 95.04 C 28.22 93.09 32.61 92.05 37.05 92.21 C 42.77 92.29 49.30 92.06 53.83 96.19 C 59.50 101.58 61.71 109.53 61.98 117.14 C 58.60 119.82 54.74 121.73 50.91 123.66 C 41.00 124.99 30.95 126.71 20.93 125.50 C 17.85 125.18 14.78 124.88 11.71 124.52 C 9.73 123.60 7.11 122.90 6.42 120.54 C 5.15 116.70 5.17 112.38 6.56 108.57 C 8.04 104.70 11.45 102.04 15.05 100.24 C 19.01 100.71 22.52 98.55 24.25 95.04 M 25.70 100.65 C 22.92 101.95 26.63 105.26 27.98 102.91 C 29.45 101.57 26.97 100.05 25.70 100.65 M 15.85 115.73 C 13.16 116.52 10.98 118.34 8.91 120.15 C 9.78 121.09 10.83 121.71 12.05 122.03 C 25.81 124.54 40.38 124.20 53.47 118.88 C 51.10 114.96 46.25 113.98 42.03 113.52 C 33.28 113.26 24.30 113.06 15.85 115.73 Z" />
<path fill="#fff2cb" opacity="1.00" d=" M 13.69 96.09 C 15.26 94.75 16.99 93.57 18.87 92.72 C 19.66 92.61 21.23 92.38 22.01 92.27 C 22.75 93.20 23.50 94.12 24.25 95.04 C 22.52 98.55 19.01 100.71 15.05 100.24 C 14.67 99.65 13.91 98.47 13.53 97.88 C 13.57 97.43 13.65 96.54 13.69 96.09 Z" />
<path fill="#a46c3c" opacity="1.00" d=" M 87.67 95.24 C 89.63 95.01 91.58 94.77 93.54 94.53 C 93.49 96.31 93.45 98.08 93.39 99.86 C 91.58 99.51 89.78 99.16 87.98 98.79 C 88.01 100.27 88.05 101.75 88.10 103.23 C 87.44 100.62 87.54 97.91 87.67 95.24 Z" />
<path fill="#e0ba62" opacity="1.00" d=" M 87.98 98.79 C 89.78 99.16 91.58 99.51 93.39 99.86 C 93.14 106.92 95.61 114.24 93.20 121.11 C 91.74 121.65 90.15 121.58 88.61 121.70 C 88.49 115.54 88.52 109.38 88.10 103.23 C 88.05 101.75 88.01 100.27 87.98 98.79 Z" />
<path fill="#fff2cb" opacity="1.00" d=" M 25.70 100.65 C 26.97 100.05 29.45 101.57 27.98 102.91 C 26.63 105.26 22.92 101.95 25.70 100.65 Z" />
<path fill="#2a8d69" opacity="1.00" d=" M 15.85 115.73 C 24.30 113.06 33.28 113.26 42.03 113.52 C 46.25 113.98 51.10 114.96 53.47 118.88 C 40.38 124.20 25.81 124.54 12.05 122.03 C 10.83 121.71 9.78 121.09 8.91 120.15 C 10.98 118.34 13.16 116.52 15.85 115.73 Z" />
<path fill="#fff2cb" opacity="1.00" d=" M 11.71 124.52 C 14.78 124.88 17.85 125.18 20.93 125.50 C 30.95 126.71 41.00 124.99 50.91 123.66 C 50.71 124.01 50.30 124.70 50.09 125.05 C 44.74 127.38 38.79 127.51 33.05 127.64 C 25.85 127.62 18.28 127.94 11.71 124.52 Z" />
</svg>
