<?xml version="1.0" encoding="UTF-8" ?>
<!DOCTYPE svg PUBLIC "-//W3C//DTD SVG 1.1//EN" "http://www.w3.org/Graphics/SVG/1.1/DTD/svg11.dtd">
<svg width="271pt" height="266pt" viewBox="0 0 271 266" version="1.1" xmlns="http://www.w3.org/2000/svg">
<path fill="#000000" opacity="1.00" d=" M 100.40 8.47 C 104.72 6.46 109.77 4.76 114.49 6.46 C 121.23 8.33 125.54 15.24 125.79 22.00 C 126.72 31.67 122.73 40.86 118.20 49.14 C 112.25 59.85 104.64 69.49 97.16 79.15 C 108.79 70.64 121.82 63.53 136.05 60.64 C 142.15 59.39 149.40 59.12 154.41 63.43 C 158.29 67.09 156.71 73.20 153.83 76.96 C 146.60 86.71 135.32 92.00 124.87 97.50 C 130.99 99.01 136.35 102.91 139.67 108.27 C 143.93 114.84 145.00 123.00 144.17 130.67 C 145.70 129.80 147.25 128.97 148.84 128.21 C 147.23 122.40 145.88 116.48 146.17 110.41 C 152.75 113.53 158.26 118.46 163.96 122.90 C 168.69 126.61 172.79 130.98 176.99 135.24 C 171.18 115.36 170.97 93.78 177.00 73.93 C 177.88 71.33 178.80 68.70 180.39 66.44 C 181.82 66.01 183.02 67.16 184.15 67.85 C 188.72 71.24 192.13 75.92 195.21 80.65 C 202.82 92.93 208.00 106.82 209.74 121.19 C 213.27 113.89 217.59 106.95 223.04 100.91 C 227.55 104.95 228.65 111.21 228.87 116.97 C 229.43 128.45 226.68 140.08 220.93 150.03 C 235.33 157.46 243.89 174.00 242.66 190.01 C 244.69 189.32 246.75 188.73 248.85 188.30 C 248.48 190.72 247.32 192.87 246.03 194.91 C 247.83 194.71 251.07 193.98 250.55 196.94 C 248.01 202.65 244.67 208.02 240.88 212.99 C 239.20 215.15 240.11 218.25 238.65 220.55 C 234.59 227.58 227.05 231.89 219.46 234.16 C 205.68 237.64 191.17 234.03 178.46 228.42 C 169.36 223.78 160.04 216.78 157.52 206.34 C 153.16 202.30 153.47 195.38 157.40 191.14 C 155.73 182.07 158.42 172.36 164.28 165.27 C 165.97 162.99 168.29 161.27 170.04 159.04 C 166.25 156.13 162.61 153.00 159.72 149.17 C 156.79 145.84 155.02 141.70 152.12 138.36 C 145.62 142.29 139.09 147.46 136.68 154.97 C 133.51 164.76 131.86 175.10 127.34 184.43 C 124.53 190.13 120.61 195.35 115.65 199.35 C 116.65 200.63 118.53 201.84 117.74 203.71 C 116.13 205.84 113.29 206.55 111.37 208.37 C 110.61 209.70 111.95 210.62 112.62 211.61 C 115.85 209.34 121.07 210.49 122.79 214.09 C 123.61 217.53 120.18 219.68 117.93 221.56 C 119.27 223.77 122.05 224.66 124.35 223.34 C 128.33 221.63 130.33 217.64 132.22 214.02 C 133.13 211.76 136.14 211.73 137.89 213.00 C 140.22 214.66 143.28 214.78 145.56 216.49 C 147.66 218.41 149.39 221.09 149.44 224.02 C 148.56 227.54 144.75 228.59 141.98 230.20 C 147.00 230.30 152.52 229.36 157.08 231.93 C 158.93 232.83 159.13 235.33 157.81 236.76 C 154.96 240.21 150.44 241.72 147.70 245.30 C 152.63 242.84 157.97 241.45 163.09 239.48 C 166.69 238.10 170.99 236.20 174.64 238.43 C 177.18 239.80 177.64 242.84 177.89 245.43 C 198.61 244.94 219.36 245.48 240.04 246.76 C 247.39 247.46 254.79 248.12 261.94 250.04 C 263.80 250.79 266.75 251.37 266.61 253.95 C 263.06 256.98 258.20 257.69 253.79 258.71 C 238.28 261.39 222.57 262.72 206.90 263.98 C 201.54 264.93 196.00 265.25 190.65 264.05 C 185.51 262.65 180.18 263.97 174.95 263.57 C 166.98 263.76 159.07 261.80 151.12 262.94 C 143.59 262.45 136.01 263.00 128.50 262.16 C 123.26 260.91 117.91 262.92 112.82 260.73 C 110.59 262.35 108.18 261.57 105.85 260.70 C 100.64 260.36 95.38 260.26 90.31 258.87 C 83.64 263.69 75.36 266.51 67.08 265.47 C 60.79 264.54 54.47 263.38 48.47 261.20 C 46.67 260.62 45.40 259.17 44.16 257.83 C 46.66 255.04 50.76 256.09 54.03 256.37 C 61.82 258.18 70.55 257.86 77.47 253.47 C 82.29 250.45 87.49 248.07 92.14 244.79 C 90.54 241.42 86.99 237.31 89.65 233.61 C 93.98 229.58 100.76 230.64 105.53 227.36 C 106.22 224.43 103.64 222.10 101.82 220.18 C 99.33 217.45 95.52 216.60 92.87 214.14 C 89.85 210.63 94.16 206.69 96.65 204.33 C 94.51 203.35 92.56 202.02 91.21 200.06 C 93.82 195.41 98.78 193.03 103.03 190.15 C 110.51 185.49 117.09 179.09 121.01 171.12 C 125.69 161.49 130.20 151.47 131.01 140.64 C 132.34 129.78 129.90 117.21 120.86 110.13 C 114.82 105.84 107.20 108.53 101.18 111.38 C 106.15 124.59 105.67 140.19 98.34 152.45 C 87.54 171.47 61.83 178.70 42.02 170.53 C 36.38 170.85 30.04 172.29 25.01 168.83 C 21.77 166.73 21.18 162.63 21.38 159.07 C 16.59 155.21 11.77 151.32 7.72 146.66 C 7.22 146.47 6.72 146.29 6.22 146.11 C 6.91 145.73 8.30 144.96 8.99 144.58 C 12.56 144.88 16.12 145.39 19.59 146.27 C 16.84 132.76 18.51 117.90 26.29 106.26 C 31.13 98.67 38.71 93.07 47.06 89.86 C 40.55 77.16 33.65 64.33 30.78 50.23 C 30.33 46.40 29.52 41.65 32.55 38.64 C 35.66 35.99 39.78 38.45 42.52 40.46 C 52.69 48.43 59.11 60.25 63.08 72.36 C 65.61 60.14 69.58 48.20 75.30 37.10 C 81.08 25.72 88.84 14.55 100.40 8.47 M 105.33 9.64 C 93.15 13.98 85.04 25.08 79.06 36.02 C 72.63 48.25 67.69 61.42 65.75 75.16 C 65.34 78.82 64.31 82.58 65.24 86.24 C 69.29 86.03 73.31 86.61 77.25 87.55 C 79.76 88.64 82.23 89.85 84.53 91.35 C 87.57 87.97 90.10 84.18 92.71 80.47 C 98.26 73.63 103.33 66.41 108.43 59.24 C 114.32 50.40 120.08 41.11 122.39 30.62 C 123.28 25.65 123.55 20.07 120.82 15.61 C 118.55 9.71 110.99 7.36 105.33 9.64 M 33.83 51.48 C 36.97 64.75 43.78 76.71 49.69 88.88 C 51.57 88.32 53.44 87.75 55.31 87.20 C 57.82 86.74 60.35 86.45 62.89 86.20 C 62.69 82.73 62.81 79.15 61.47 75.86 C 58.11 64.95 52.90 54.39 44.90 46.12 C 42.28 43.57 39.44 40.85 35.69 40.19 C 35.26 40.38 34.41 40.76 33.98 40.95 C 32.50 44.25 33.25 48.05 33.83 51.48 M 117.23 70.21 C 105.80 75.98 94.67 83.12 86.45 93.08 C 88.97 94.75 91.18 96.83 93.10 99.17 C 93.95 100.44 94.82 101.71 95.70 102.97 C 97.03 102.77 98.36 102.58 99.69 102.40 C 105.93 101.23 112.11 99.50 117.86 96.78 C 119.12 96.70 120.26 96.09 121.42 95.62 C 129.69 91.87 137.92 87.74 145.00 81.98 C 148.57 78.87 152.33 75.46 153.60 70.71 C 155.29 65.51 149.19 62.88 145.02 62.77 C 135.28 62.45 125.93 66.16 117.23 70.21 M 175.39 108.28 C 176.01 122.59 179.08 137.14 186.60 149.49 C 189.27 148.43 192.01 147.59 194.77 146.84 C 198.18 146.41 201.64 146.52 205.04 145.97 C 208.10 136.72 207.93 126.72 206.32 117.21 C 203.07 99.86 195.30 83.24 183.62 69.97 C 183.45 69.64 183.11 68.99 182.95 68.66 C 182.68 68.25 182.15 67.43 181.88 67.02 C 176.95 80.15 174.69 94.26 175.39 108.28 M 38.55 97.53 C 29.22 103.83 23.62 114.53 21.76 125.44 C 20.48 135.12 20.76 145.36 25.11 154.29 C 33.45 159.24 43.59 157.57 52.43 155.04 C 51.23 147.74 50.87 140.28 51.43 132.90 C 51.59 130.15 52.41 127.46 53.86 125.11 C 59.61 130.67 62.27 138.56 64.21 146.14 C 64.18 147.03 64.12 148.81 64.09 149.70 C 67.70 147.93 70.97 145.58 74.16 143.15 C 73.30 139.50 72.61 135.78 72.49 132.03 C 72.37 129.31 73.29 126.62 72.83 123.92 C 73.83 123.03 74.84 122.14 75.91 121.34 C 80.97 122.67 85.35 125.84 88.90 129.61 C 92.08 125.24 94.87 120.62 97.63 115.99 C 96.79 113.36 95.88 110.75 94.84 108.19 C 91.65 99.13 83.35 92.38 74.30 89.72 C 61.97 87.34 48.83 90.43 38.55 97.53 M 118.84 99.77 C 112.34 102.27 105.67 104.46 98.72 105.26 C 99.30 106.45 99.87 107.64 100.43 108.84 C 107.37 105.16 116.12 103.51 123.01 108.25 C 126.55 112.11 130.07 116.25 131.49 121.42 C 133.94 128.09 133.66 135.23 133.61 142.21 C 132.80 144.07 131.94 146.14 132.33 148.20 C 131.29 154.55 128.46 160.35 126.03 166.25 C 122.93 174.17 118.18 181.48 111.78 187.12 C 107.00 191.35 101.15 194.09 96.25 198.13 C 95.65 198.81 93.40 199.35 94.33 200.58 C 96.12 201.84 98.20 202.59 100.18 203.51 C 98.11 206.47 92.58 209.23 94.96 213.40 C 97.24 214.42 99.49 215.52 101.76 216.58 C 104.29 218.78 106.59 221.25 108.35 224.12 C 108.33 225.56 108.32 227.00 108.33 228.45 C 107.94 228.77 107.18 229.42 106.80 229.74 C 103.01 231.92 98.67 232.60 94.53 233.84 C 93.43 234.32 92.00 234.59 91.48 235.83 C 91.53 238.06 93.11 239.86 94.03 241.81 C 94.25 242.41 94.69 243.60 94.91 244.20 C 93.43 245.66 91.92 247.08 90.37 248.47 C 85.60 250.88 81.03 253.66 76.31 256.18 C 72.21 258.41 67.51 258.88 62.94 259.25 C 57.48 259.70 52.25 257.35 46.78 257.62 C 49.69 260.00 53.67 260.25 57.16 261.26 C 63.31 262.29 69.87 264.49 76.01 262.33 C 83.98 262.09 89.40 255.44 96.10 252.09 C 99.03 250.57 102.72 251.89 104.40 254.63 C 105.96 256.58 107.88 260.16 110.85 259.12 C 113.61 255.23 115.60 250.85 118.06 246.77 C 118.47 246.39 119.28 245.61 119.69 245.22 C 120.00 248.66 117.54 251.45 116.16 254.39 C 116.75 256.23 117.35 258.06 117.94 259.91 C 122.94 259.39 126.92 256.11 131.30 253.96 C 128.12 250.12 126.83 245.11 123.42 241.44 C 122.06 240.51 120.89 238.60 119.05 238.84 C 116.11 241.37 113.72 244.46 111.13 247.33 C 111.38 246.15 111.60 244.98 111.77 243.79 C 114.26 241.09 116.43 237.85 119.96 236.42 C 121.60 237.23 123.17 238.19 124.59 239.35 C 125.42 238.45 126.25 237.56 127.09 236.68 C 126.68 235.78 126.28 234.88 125.87 233.98 C 131.64 228.22 141.91 230.46 147.20 224.05 C 147.25 220.82 144.69 217.84 141.69 216.81 C 139.86 216.29 138.16 215.44 136.48 214.56 C 135.68 213.98 134.15 213.99 134.02 215.23 C 131.89 220.43 127.85 225.61 121.95 226.44 C 119.10 226.69 117.11 224.34 115.71 222.21 C 117.08 221.00 118.29 219.62 119.12 217.98 C 120.01 217.21 120.81 216.21 121.05 215.04 C 119.69 212.63 116.70 212.60 114.29 212.40 C 114.31 213.02 114.34 214.25 114.36 214.86 C 112.79 214.29 111.33 213.49 110.00 212.49 C 109.56 211.68 109.12 210.87 108.67 210.07 C 108.76 209.22 108.94 207.54 109.02 206.70 C 111.54 205.85 113.59 203.99 115.93 202.76 C 115.42 201.99 114.94 201.22 114.49 200.43 C 113.33 200.92 112.18 202.25 110.86 201.41 C 122.07 193.33 128.63 180.12 130.85 166.69 C 131.49 165.40 131.62 163.95 131.89 162.56 C 134.58 157.49 134.87 151.26 138.83 146.82 C 142.51 142.71 146.65 138.52 152.06 136.86 C 151.29 134.61 150.34 132.42 149.23 130.31 C 146.32 132.39 143.74 134.88 141.15 137.32 C 142.48 131.69 141.79 125.88 141.62 120.16 C 140.07 111.59 134.61 103.36 126.09 100.47 C 123.73 99.92 121.23 98.60 118.84 99.77 M 210.51 127.91 C 209.81 134.13 209.85 140.58 207.17 146.38 C 207.96 146.44 209.55 146.57 210.35 146.63 C 213.03 147.26 215.67 148.03 218.27 148.95 C 219.70 146.51 220.91 143.94 221.75 141.24 C 226.08 131.51 226.68 120.37 225.19 109.92 C 224.79 107.99 224.24 106.09 223.78 104.18 C 218.04 111.20 212.41 118.86 210.51 127.91 M 148.26 113.86 C 150.45 130.70 158.13 147.40 172.12 157.60 C 173.61 156.57 175.09 155.55 176.57 154.50 C 178.92 153.00 181.38 151.70 183.89 150.49 C 182.13 147.44 180.82 144.10 178.52 141.40 C 171.63 132.83 163.32 125.44 154.35 119.13 C 152.42 117.25 150.38 115.50 148.26 113.86 M 88.95 132.98 C 86.79 135.75 83.86 137.79 81.70 140.55 C 70.20 149.74 57.09 158.07 42.09 159.52 C 36.01 159.92 28.64 160.24 24.45 154.93 C 24.70 158.36 22.47 163.13 25.62 165.59 C 29.23 169.47 35.14 168.31 39.84 167.81 C 52.20 165.66 64.54 161.31 74.54 153.58 L 74.95 153.54 C 86.39 145.33 95.49 132.99 97.89 118.93 C 95.32 123.86 92.67 128.81 88.95 132.98 M 100.26 119.79 C 96.17 140.97 79.14 157.71 59.45 165.27 C 55.42 167.17 50.81 167.51 46.95 169.77 C 57.20 171.33 68.05 170.94 77.63 166.63 C 88.34 161.96 96.72 152.30 99.83 141.03 C 101.60 134.16 102.23 126.69 100.26 119.79 M 75.83 141.89 C 79.80 138.89 83.63 135.62 86.86 131.82 C 84.88 127.72 79.78 126.00 76.22 123.35 C 74.27 129.35 75.42 135.75 75.83 141.89 M 54.52 128.16 C 52.64 136.68 53.66 145.51 54.56 154.10 C 57.33 153.19 60.04 152.05 62.50 150.45 C 61.59 142.48 58.19 135.18 54.52 128.16 M 11.76 147.59 C 15.17 150.71 18.73 153.65 22.18 156.73 C 22.51 156.08 23.19 154.80 23.52 154.15 C 21.80 152.70 20.86 150.65 20.17 148.56 C 17.36 148.33 14.56 147.94 11.76 147.59 M 191.62 150.95 L 191.52 151.18 C 181.80 153.90 173.07 159.88 166.65 167.63 C 161.64 173.66 159.77 181.54 159.10 189.19 C 161.60 187.10 163.60 184.50 166.04 182.36 C 168.48 182.93 167.35 185.98 167.70 187.75 C 167.68 193.18 166.78 198.52 166.03 203.88 C 167.48 205.42 168.85 207.03 170.15 208.70 C 174.55 202.64 179.32 196.87 184.11 191.12 C 184.81 190.02 186.00 189.41 187.30 189.78 C 188.88 194.69 188.46 199.90 189.07 204.96 C 189.13 210.12 190.35 215.62 188.28 220.53 C 194.75 223.63 202.04 224.24 209.10 223.53 C 213.92 222.96 219.26 222.61 223.06 219.23 C 229.91 214.54 234.64 207.12 237.67 199.49 C 242.62 185.62 238.56 169.15 228.03 158.94 C 222.77 153.56 215.57 150.51 208.20 149.42 C 202.64 148.98 196.98 149.31 191.62 150.95 M 157.38 195.14 C 155.58 197.92 156.72 201.36 157.77 204.19 C 159.90 204.67 162.03 205.11 164.18 205.44 C 164.62 198.71 165.90 192.05 165.73 185.28 C 162.87 188.50 159.63 191.45 157.38 195.14 M 242.47 192.19 C 241.97 194.10 241.33 196.04 241.62 198.04 C 243.00 195.91 244.00 193.56 244.98 191.22 C 244.14 191.54 243.30 191.87 242.47 192.19 M 185.59 192.25 C 182.55 196.61 179.06 200.64 175.90 204.92 C 174.39 206.82 173.11 209.06 170.78 210.05 C 168.81 215.25 174.03 218.85 178.13 220.65 C 181.43 222.45 186.26 220.86 187.28 217.10 C 187.72 213.08 187.27 209.02 186.96 205.00 C 186.48 200.75 186.76 196.40 185.59 192.25 M 238.66 203.47 C 236.92 207.78 233.99 211.43 231.32 215.18 C 232.99 215.40 234.67 215.59 236.36 215.78 C 239.83 209.67 244.40 204.20 247.21 197.71 C 244.30 199.45 239.79 199.76 238.66 203.47 M 162.95 207.31 C 162.08 207.25 160.34 207.14 159.47 207.08 C 161.02 213.12 165.67 217.76 170.59 221.29 C 176.57 225.65 183.64 228.20 190.67 230.30 C 199.54 232.69 209.27 234.23 218.22 231.50 C 226.37 230.04 233.90 224.83 237.82 217.48 C 235.10 217.67 232.35 217.58 229.80 216.52 C 226.39 219.77 222.84 223.21 218.12 224.37 C 209.38 226.57 199.76 227.34 191.26 223.79 C 189.39 223.13 187.52 221.98 185.46 222.51 C 181.17 225.30 176.42 222.56 172.61 220.34 C 171.28 218.80 169.72 217.39 168.77 215.56 C 167.76 213.42 168.63 211.10 169.16 208.97 C 167.82 207.93 166.48 206.90 165.14 205.87 C 164.59 206.23 163.50 206.95 162.95 207.31 M 127.66 235.92 C 129.55 234.82 131.37 233.58 133.09 232.23 C 131.15 233.14 127.47 233.05 127.66 235.92 M 126.06 240.22 C 126.83 242.73 128.64 244.75 129.99 246.97 C 130.90 248.68 131.80 250.39 132.69 252.11 C 134.15 253.58 135.65 255.02 137.15 256.46 L 137.20 256.42 C 143.62 260.54 153.52 263.37 159.67 257.38 L 159.75 257.40 C 164.71 252.37 173.51 250.81 179.18 255.56 L 179.33 255.49 C 183.25 258.33 187.10 261.80 192.08 262.49 C 200.37 263.45 209.36 262.08 216.22 257.09 C 204.73 260.75 191.81 260.07 180.94 254.76 C 176.73 251.89 174.96 246.96 175.05 242.01 C 173.86 241.02 172.53 240.25 171.16 239.56 C 164.13 241.57 157.29 244.16 150.36 246.46 C 149.03 246.32 147.69 246.37 146.36 246.37 C 146.24 247.04 146.00 248.38 145.88 249.05 C 148.30 250.90 151.28 251.60 154.09 252.63 C 152.15 253.22 150.13 253.33 148.12 253.20 C 147.42 252.77 146.02 251.91 145.31 251.48 C 142.95 249.31 143.88 246.39 145.35 244.02 C 148.96 240.71 153.17 238.16 156.82 234.91 C 156.08 234.28 155.35 233.64 154.63 233.01 C 144.68 231.23 133.42 232.75 126.06 240.22 Z" />
<path fill="#bdff9c" opacity="1.00" d=" M 105.33 9.64 C 110.99 7.36 118.55 9.71 120.82 15.61 C 112.85 31.33 102.60 45.70 93.16 60.54 C 89.22 66.13 86.00 72.17 82.42 77.98 C 80.78 80.71 78.93 83.33 76.56 85.49 C 77.08 85.55 78.11 85.68 78.63 85.74 C 78.28 86.20 77.59 87.10 77.25 87.55 C 73.31 86.61 69.29 86.03 65.24 86.24 C 64.31 82.58 65.34 78.82 65.75 75.16 C 67.69 61.42 72.63 48.25 79.06 36.02 C 85.04 25.08 93.15 13.98 105.33 9.64 Z" />
<path fill="#388584" opacity="1.00" d=" M 93.16 60.54 C 102.60 45.70 112.85 31.33 120.82 15.61 C 123.55 20.07 123.28 25.65 122.39 30.62 C 120.08 41.11 114.32 50.40 108.43 59.24 C 106.27 57.60 104.23 54.72 101.14 55.36 C 97.59 55.60 96.85 60.65 93.16 60.54 Z" />
<path fill="#bdff9c" opacity="1.00" d=" M 33.83 51.48 C 33.25 48.05 32.50 44.25 33.98 40.95 C 34.41 40.76 35.26 40.38 35.69 40.19 C 39.67 45.28 45.81 48.34 49.01 54.10 C 55.04 64.02 54.41 76.06 55.31 87.20 C 53.44 87.75 51.57 88.32 49.69 88.88 C 43.78 76.71 36.97 64.75 33.83 51.48 Z" />
<path fill="#6fa38a" opacity="1.00" d=" M 35.69 40.19 C 39.44 40.85 42.28 43.57 44.90 46.12 C 52.90 54.39 58.11 64.95 61.47 75.86 C 62.81 79.15 62.69 82.73 62.89 86.20 C 60.35 86.45 57.82 86.74 55.31 87.20 C 54.41 76.06 55.04 64.02 49.01 54.10 C 45.81 48.34 39.67 45.28 35.69 40.19 Z" />
<path fill="#569788" opacity="1.00" d=" M 93.16 60.54 C 96.85 60.65 97.59 55.60 101.14 55.36 C 104.23 54.72 106.27 57.60 108.43 59.24 C 103.33 66.41 98.26 73.63 92.71 80.47 C 91.08 80.86 89.45 81.26 87.83 81.66 C 86.00 80.46 84.20 79.24 82.42 77.98 C 86.00 72.17 89.22 66.13 93.16 60.54 Z" />
<path fill="#bdff9c" opacity="1.00" d=" M 117.23 70.21 C 125.93 66.16 135.28 62.45 145.02 62.77 C 149.19 62.88 155.29 65.51 153.60 70.71 C 139.29 76.96 125.27 83.89 111.10 90.47 C 108.77 91.59 106.44 92.71 104.13 93.88 C 100.42 95.58 96.74 97.34 93.10 99.17 C 91.18 96.83 88.97 94.75 86.45 93.08 C 94.67 83.12 105.80 75.98 117.23 70.21 Z" />
<path fill="#2a7e82" opacity="1.00" d=" M 175.39 108.28 C 174.69 94.26 176.95 80.15 181.88 67.02 C 182.15 67.43 182.68 68.25 182.95 68.66 C 182.80 79.14 181.22 89.80 183.57 100.15 C 184.24 103.75 184.54 107.41 185.36 110.98 C 182.36 109.10 178.92 108.18 175.39 108.28 Z" />
<path fill="#629787" opacity="1.00" d=" M 182.95 68.66 C 183.11 68.99 183.45 69.64 183.62 69.97 C 184.39 77.94 184.46 85.95 184.67 93.94 C 184.87 101.65 186.91 109.13 188.16 116.71 C 189.57 126.95 193.28 136.68 197.01 146.26 C 199.69 146.12 202.36 146.05 205.04 145.97 C 201.64 146.52 198.18 146.41 194.77 146.84 C 192.32 142.03 191.33 136.68 189.50 131.63 C 186.93 124.99 187.58 117.70 185.36 110.98 C 184.54 107.41 184.24 103.75 183.57 100.15 C 181.22 89.80 182.80 79.14 182.95 68.66 Z" />
<path fill="#3e8985" opacity="1.00" d=" M 111.10 90.47 C 125.27 83.89 139.29 76.96 153.60 70.71 C 152.33 75.46 148.57 78.87 145.00 81.98 C 137.92 87.74 129.69 91.87 121.42 95.62 C 120.26 96.09 119.12 96.70 117.86 96.78 C 116.10 96.68 114.34 96.55 112.58 96.43 C 112.61 94.34 112.32 92.23 111.10 90.47 Z" />
<path fill="#bdff9c" opacity="1.00" d=" M 183.62 69.97 C 195.30 83.24 203.07 99.86 206.32 117.21 C 207.93 126.72 208.10 136.72 205.04 145.97 C 202.36 146.05 199.69 146.12 197.01 146.26 C 193.28 136.68 189.57 126.95 188.16 116.71 C 186.91 109.13 184.87 101.65 184.67 93.94 C 184.46 85.95 184.39 77.94 183.62 69.97 Z" />
<path fill="#74b18d" opacity="1.00" d=" M 76.56 85.49 C 78.93 83.33 80.78 80.71 82.42 77.98 C 84.20 79.24 86.00 80.46 87.83 81.66 C 89.45 81.26 91.08 80.86 92.71 80.47 C 90.10 84.18 87.57 87.97 84.53 91.35 C 82.23 89.85 79.76 88.64 77.25 87.55 C 77.59 87.10 78.28 86.20 78.63 85.74 C 78.11 85.68 77.08 85.55 76.56 85.49 Z" />
<path fill="#a681b5" opacity="1.00" d=" M 38.55 97.53 C 48.83 90.43 61.97 87.34 74.30 89.72 C 74.76 94.78 75.55 99.85 75.17 104.95 C 74.74 111.31 73.22 117.55 72.83 123.92 C 72.14 128.25 71.40 132.65 69.62 136.70 C 68.16 140.03 65.83 142.89 64.21 146.14 C 62.27 138.56 59.61 130.67 53.86 125.11 C 52.41 127.46 51.59 130.15 51.43 132.90 C 50.87 140.28 51.23 147.74 52.43 155.04 C 43.59 157.57 33.45 159.24 25.11 154.29 C 20.76 145.36 20.48 135.12 21.76 125.44 C 23.62 114.53 29.22 103.83 38.55 97.53 M 32.25 112.30 C 26.25 114.10 24.16 121.35 25.16 126.95 C 25.66 131.55 30.41 135.39 35.04 134.16 C 40.79 132.37 44.90 126.11 43.46 120.08 C 42.35 115.32 37.56 110.14 32.25 112.30 M 54.30 114.18 C 52.15 115.37 52.06 118.61 54.18 119.88 C 56.25 121.61 59.65 119.54 59.49 116.99 C 59.50 114.58 56.33 112.53 54.30 114.18 Z" />
<path fill="#523a7d" opacity="1.00" d=" M 74.30 89.72 C 83.35 92.38 91.65 99.13 94.84 108.19 C 95.88 110.75 96.79 113.36 97.63 115.99 C 94.87 120.62 92.08 125.24 88.90 129.61 C 85.35 125.84 80.97 122.67 75.91 121.34 C 74.84 122.14 73.83 123.03 72.83 123.92 C 73.22 117.55 74.74 111.31 75.17 104.95 C 75.55 99.85 74.76 94.78 74.30 89.72 Z" />
<path fill="#549888" opacity="1.00" d=" M 104.13 93.88 C 106.44 92.71 108.77 91.59 111.10 90.47 C 112.32 92.23 112.61 94.34 112.58 96.43 C 114.34 96.55 116.10 96.68 117.86 96.78 C 112.11 99.50 105.93 101.23 99.69 102.40 C 99.67 101.50 99.66 100.61 99.65 99.71 C 101.12 97.75 102.56 95.77 104.13 93.88 Z" />
<path fill="#7fb68d" opacity="1.00" d=" M 93.10 99.17 C 96.74 97.34 100.42 95.58 104.13 93.88 C 102.56 95.77 101.12 97.75 99.65 99.71 C 99.66 100.61 99.67 101.50 99.69 102.40 C 98.36 102.58 97.03 102.77 95.70 102.97 C 94.82 101.71 93.95 100.44 93.10 99.17 Z" />
<path fill="#213d54" opacity="1.00" d=" M 118.84 99.77 C 121.23 98.60 123.73 99.92 126.09 100.47 C 125.25 103.13 124.19 105.72 123.01 108.25 C 116.12 103.51 107.37 105.16 100.43 108.84 C 99.87 107.64 99.30 106.45 98.72 105.26 C 105.67 104.46 112.34 102.27 118.84 99.77 Z" />
<path fill="#284f5f" opacity="1.00" d=" M 123.01 108.25 C 124.19 105.72 125.25 103.13 126.09 100.47 C 134.61 103.36 140.07 111.59 141.62 120.16 C 140.51 123.59 137.44 125.72 135.66 128.73 C 133.76 133.00 136.09 138.09 133.61 142.21 C 133.66 135.23 133.94 128.09 131.49 121.42 C 130.07 116.25 126.55 112.11 123.01 108.25 Z" />
<path fill="#bdff9c" opacity="1.00" d=" M 210.51 127.91 C 212.41 118.86 218.04 111.20 223.78 104.18 C 224.24 106.09 224.79 107.99 225.19 109.92 C 225.99 114.99 223.97 119.84 222.51 124.58 C 220.88 129.69 218.39 134.47 215.62 139.05 C 214.07 141.71 212.48 144.39 210.35 146.63 C 209.55 146.57 207.96 146.44 207.17 146.38 C 209.85 140.58 209.81 134.13 210.51 127.91 Z" />
<path fill="#4d9086" opacity="1.00" d=" M 175.39 108.28 C 178.92 108.18 182.36 109.10 185.36 110.98 C 187.58 117.70 186.93 124.99 189.50 131.63 C 191.33 136.68 192.32 142.03 194.77 146.84 C 192.01 147.59 189.27 148.43 186.60 149.49 C 179.08 137.14 176.01 122.59 175.39 108.28 Z" />
<path fill="#7bb18d" opacity="1.00" d=" M 225.19 109.92 C 226.68 120.37 226.08 131.51 221.75 141.24 C 220.63 142.02 219.50 142.79 218.38 143.58 C 217.45 142.07 216.53 140.56 215.62 139.05 C 218.39 134.47 220.88 129.69 222.51 124.58 C 223.97 119.84 225.99 114.99 225.19 109.92 Z" />
<path fill="#ffbefe" opacity="1.00" d=" M 32.25 112.30 C 37.56 110.14 42.35 115.32 43.46 120.08 C 44.90 126.11 40.79 132.37 35.04 134.16 C 30.41 135.39 25.66 131.55 25.16 126.95 C 24.16 121.35 26.25 114.10 32.25 112.30 Z" />
<path fill="#ffbefe" opacity="1.00" d=" M 54.30 114.18 C 56.33 112.53 59.50 114.58 59.49 116.99 C 59.65 119.54 56.25 121.61 54.18 119.88 C 52.06 118.61 52.15 115.37 54.30 114.18 Z" />
<path fill="#378684" opacity="1.00" d=" M 148.26 113.86 C 150.38 115.50 152.42 117.25 154.35 119.13 L 153.71 118.74 C 156.10 124.34 157.95 130.25 161.71 135.14 C 166.68 141.59 170.23 149.18 176.57 154.50 C 175.09 155.55 173.61 156.57 172.12 157.60 C 158.13 147.40 150.45 130.70 148.26 113.86 Z" />
<path fill="#37315c" opacity="1.00" d=" M 88.95 132.98 C 92.67 128.81 95.32 123.86 97.89 118.93 C 95.49 132.99 86.39 145.33 74.95 153.54 L 74.54 153.58 C 69.70 153.51 66.11 158.55 61.11 157.19 C 68.43 152.30 77.00 148.39 81.70 140.55 C 83.86 137.79 86.79 135.75 88.95 132.98 Z" />
<path fill="#aff39a" opacity="1.00" d=" M 153.71 118.74 L 154.35 119.13 C 163.32 125.44 171.63 132.83 178.52 141.40 C 180.82 144.10 182.13 147.44 183.89 150.49 C 181.38 151.70 178.92 153.00 176.57 154.50 C 170.23 149.18 166.68 141.59 161.71 135.14 C 157.95 130.25 156.10 124.34 153.71 118.74 Z" />
<path fill="#4f377b" opacity="1.00" d=" M 100.26 119.79 C 102.23 126.69 101.60 134.16 99.83 141.03 C 96.72 152.30 88.34 161.96 77.63 166.63 C 68.05 170.94 57.20 171.33 46.95 169.77 C 50.81 167.51 55.42 167.17 59.45 165.27 C 79.14 157.71 96.17 140.97 100.26 119.79 Z" />
<path fill="#213d54" opacity="1.00" d=" M 141.62 120.16 C 141.79 125.88 142.48 131.69 141.15 137.32 C 143.74 134.88 146.32 132.39 149.23 130.31 C 150.34 132.42 151.29 134.61 152.06 136.86 C 146.65 138.52 142.51 142.71 138.83 146.82 C 134.87 151.26 134.58 157.49 131.89 162.56 C 132.43 157.79 134.42 152.87 132.33 148.20 C 131.94 146.14 132.80 144.07 133.61 142.21 C 136.09 138.09 133.76 133.00 135.66 128.73 C 137.44 125.72 140.51 123.59 141.62 120.16 Z" />
<path fill="#5c4187" opacity="1.00" d=" M 69.62 136.70 C 71.40 132.65 72.14 128.25 72.83 123.92 C 73.29 126.62 72.37 129.31 72.49 132.03 C 72.61 135.78 73.30 139.50 74.16 143.15 C 70.97 145.58 67.70 147.93 64.09 149.70 C 64.12 148.81 64.18 147.03 64.21 146.14 C 65.83 142.89 68.16 140.03 69.62 136.70 Z" />
<path fill="#f6ffc8" opacity="1.00" d=" M 75.83 141.89 C 75.42 135.75 74.27 129.35 76.22 123.35 C 79.78 126.00 84.88 127.72 86.86 131.82 C 83.63 135.62 79.80 138.89 75.83 141.89 Z" />
<path fill="#f6ffc8" opacity="1.00" d=" M 54.52 128.16 C 58.19 135.18 61.59 142.48 62.50 150.45 C 60.04 152.05 57.33 153.19 54.56 154.10 C 53.66 145.51 52.64 136.68 54.52 128.16 Z" />
<path fill="#87bf8f" opacity="1.00" d=" M 210.35 146.63 C 212.48 144.39 214.07 141.71 215.62 139.05 C 216.53 140.56 217.45 142.07 218.38 143.58 C 219.50 142.79 220.63 142.02 221.75 141.24 C 220.91 143.94 219.70 146.51 218.27 148.95 C 215.67 148.03 213.03 147.26 210.35 146.63 Z" />
<path fill="#6d5792" opacity="1.00" d=" M 42.09 159.52 C 57.09 158.07 70.20 149.74 81.70 140.55 C 77.00 148.39 68.43 152.30 61.11 157.19 C 53.77 160.76 45.92 163.39 37.82 164.53 C 33.76 164.90 29.66 164.92 25.62 165.59 C 22.47 163.13 24.70 158.36 24.45 154.93 C 28.64 160.24 36.01 159.92 42.09 159.52 Z" />
<path fill="#ffffd3" opacity="1.00" d=" M 11.76 147.59 C 14.56 147.94 17.36 148.33 20.17 148.56 C 20.86 150.65 21.80 152.70 23.52 154.15 C 23.19 154.80 22.51 156.08 22.18 156.73 C 18.73 153.65 15.17 150.71 11.76 147.59 Z" />
<path fill="#728779" opacity="1.00" d=" M 132.33 148.20 C 134.42 152.87 132.43 157.79 131.89 162.56 C 131.62 163.95 131.49 165.40 130.85 166.69 C 130.05 168.22 129.18 169.73 128.40 171.27 C 127.60 169.60 126.81 167.92 126.03 166.25 C 128.46 160.35 131.29 154.55 132.33 148.20 Z" />
<path fill="#523a7d" opacity="1.00" d=" M 191.62 150.95 C 196.98 149.31 202.64 148.98 208.20 149.42 C 204.51 154.49 200.01 158.95 196.59 164.23 C 194.00 168.22 191.83 172.45 189.86 176.77 C 189.35 174.30 189.01 171.79 188.41 169.35 C 188.24 167.69 186.04 166.50 184.73 167.72 C 183.31 169.24 182.41 171.15 181.33 172.91 C 180.84 171.44 179.59 169.99 180.36 168.40 C 182.58 161.74 188.95 157.62 191.52 151.18 L 191.62 150.95 Z" />
<path fill="#a782b6" opacity="1.00" d=" M 208.20 149.42 C 215.57 150.51 222.77 153.56 228.03 158.94 C 238.56 169.15 242.62 185.62 237.67 199.49 C 234.64 207.12 229.91 214.54 223.06 219.23 C 217.19 217.92 211.58 215.73 205.77 214.23 C 204.13 213.73 202.16 213.42 201.33 211.71 C 197.19 204.83 193.49 197.67 190.50 190.21 C 189.31 186.82 189.00 183.21 189.08 179.63 C 189.30 178.67 189.56 177.71 189.86 176.77 C 191.83 172.45 194.00 168.22 196.59 164.23 C 200.01 158.95 204.51 154.49 208.20 149.42 M 201.33 163.28 C 197.67 164.96 196.79 169.37 196.44 172.98 C 196.94 178.50 203.86 182.47 208.87 179.90 C 212.23 178.36 214.21 174.62 213.94 170.98 C 214.08 164.95 206.60 160.56 201.33 163.28 M 220.23 191.20 C 218.48 191.61 217.77 195.23 220.08 194.96 C 222.85 195.34 223.61 190.26 220.23 191.20 Z" />
<path fill="#5e4387" opacity="1.00" d=" M 166.65 167.63 C 173.07 159.88 181.80 153.90 191.52 151.18 C 188.95 157.62 182.58 161.74 180.36 168.40 C 179.59 169.99 180.84 171.44 181.33 172.91 C 182.41 171.15 183.31 169.24 184.73 167.72 C 186.04 166.50 188.24 167.69 188.41 169.35 C 189.01 171.79 189.35 174.30 189.86 176.77 C 189.56 177.71 189.30 178.67 189.08 179.63 C 186.41 180.70 183.47 181.43 181.24 183.33 C 180.42 184.97 179.99 186.77 179.44 188.51 C 176.42 188.60 173.40 189.02 170.69 190.41 C 169.69 189.53 168.69 188.64 167.70 187.75 C 167.35 185.98 168.48 182.93 166.04 182.36 C 163.60 184.50 161.60 187.10 159.10 189.19 C 159.77 181.54 161.64 173.66 166.65 167.63 Z" />
<path fill="#423868" opacity="1.00" d=" M 61.11 157.19 C 66.11 158.55 69.70 153.51 74.54 153.58 C 64.54 161.31 52.20 165.66 39.84 167.81 C 35.14 168.31 29.23 169.47 25.62 165.59 C 29.66 164.92 33.76 164.90 37.82 164.53 C 45.92 163.39 53.77 160.76 61.11 157.19 Z" />
<path fill="#ffbefe" opacity="1.00" d=" M 201.33 163.28 C 206.60 160.56 214.08 164.95 213.94 170.98 C 214.21 174.62 212.23 178.36 208.87 179.90 C 203.86 182.47 196.94 178.50 196.44 172.98 C 196.79 169.37 197.67 164.96 201.33 163.28 Z" />
<path fill="#9eb68f" opacity="1.00" d=" M 126.03 166.25 C 126.81 167.92 127.60 169.60 128.40 171.27 C 127.27 173.53 126.24 175.85 124.81 177.94 C 119.78 184.93 115.28 192.46 108.79 198.24 C 105.88 199.94 102.74 201.28 100.18 203.51 C 98.20 202.59 96.12 201.84 94.33 200.58 C 93.40 199.35 95.65 198.81 96.25 198.13 C 95.94 198.70 95.34 199.85 95.04 200.42 C 95.73 200.64 97.12 201.06 97.82 201.28 C 103.45 198.57 109.49 194.94 112.20 189.07 C 112.09 188.58 111.88 187.60 111.78 187.12 C 118.18 181.48 122.93 174.17 126.03 166.25 Z" />
<path fill="#4b7975" opacity="1.00" d=" M 128.40 171.27 C 129.18 169.73 130.05 168.22 130.85 166.69 C 128.63 180.12 122.07 193.33 110.86 201.41 C 110.50 201.28 109.78 201.04 109.42 200.91 C 109.26 200.24 108.95 198.91 108.79 198.24 C 115.28 192.46 119.78 184.93 124.81 177.94 C 126.24 175.85 127.27 173.53 128.40 171.27 Z" />
<path fill="#6d4f92" opacity="1.00" d=" M 181.24 183.33 C 183.47 181.43 186.41 180.70 189.08 179.63 C 189.00 183.21 189.31 186.82 190.50 190.21 C 189.43 190.06 188.36 189.90 187.30 189.78 C 186.00 189.41 184.81 190.02 184.11 191.12 C 179.32 196.87 174.55 202.64 170.15 208.70 C 168.85 207.03 167.48 205.42 166.03 203.88 C 166.78 198.52 167.68 193.18 167.70 187.75 C 168.69 188.64 169.69 189.53 170.69 190.41 C 173.40 189.02 176.42 188.60 179.44 188.51 C 179.99 186.77 180.42 184.97 181.24 183.33 Z" />
<path fill="#f6ffc8" opacity="1.00" d=" M 157.38 195.14 C 159.63 191.45 162.87 188.50 165.73 185.28 C 165.90 192.05 164.62 198.71 164.18 205.44 C 162.03 205.11 159.90 204.67 157.77 204.19 C 156.72 201.36 155.58 197.92 157.38 195.14 Z" />
<path fill="#ffffd0" opacity="1.00" d=" M 96.25 198.13 C 101.15 194.09 107.00 191.35 111.78 187.12 C 111.88 187.60 112.09 188.58 112.20 189.07 C 109.49 194.94 103.45 198.57 97.82 201.28 C 97.12 201.06 95.73 200.64 95.04 200.42 C 95.34 199.85 95.94 198.70 96.25 198.13 Z" />
<path fill="#8665a3" opacity="1.00" d=" M 187.30 189.78 C 188.36 189.90 189.43 190.06 190.50 190.21 C 193.49 197.67 197.19 204.83 201.33 211.71 C 202.16 213.42 204.13 213.73 205.77 214.23 C 211.58 215.73 217.19 217.92 223.06 219.23 C 219.26 222.61 213.92 222.96 209.10 223.53 C 202.04 224.24 194.75 223.63 188.28 220.53 C 190.35 215.62 189.13 210.12 189.07 204.96 C 188.46 199.90 188.88 194.69 187.30 189.78 Z" />
<path fill="#f0b8f2" opacity="1.00" d=" M 220.23 191.20 C 223.61 190.26 222.85 195.34 220.08 194.96 C 217.77 195.23 218.48 191.61 220.23 191.20 Z" />
<path fill="#ffffd3" opacity="1.00" d=" M 242.47 192.19 C 243.30 191.87 244.14 191.54 244.98 191.22 C 244.00 193.56 243.00 195.91 241.62 198.04 C 241.33 196.04 241.97 194.10 242.47 192.19 Z" />
<path fill="#f6ffc8" opacity="1.00" d=" M 185.59 192.25 C 186.76 196.40 186.48 200.75 186.96 205.00 C 187.27 209.02 187.72 213.08 187.28 217.10 C 186.26 220.86 181.43 222.45 178.13 220.65 C 174.03 218.85 168.81 215.25 170.78 210.05 C 173.11 209.06 174.39 206.82 175.90 204.92 C 179.06 200.64 182.55 196.61 185.59 192.25 Z" />
<path fill="#608d7f" opacity="1.00" d=" M 100.18 203.51 C 102.74 201.28 105.88 199.94 108.79 198.24 C 108.95 198.91 109.26 200.24 109.42 200.91 C 109.78 201.04 110.50 201.28 110.86 201.41 C 112.18 202.25 113.33 200.92 114.49 200.43 C 114.94 201.22 115.42 201.99 115.93 202.76 C 113.59 203.99 111.54 205.85 109.02 206.70 C 104.07 207.99 96.99 207.60 94.96 213.40 C 92.58 209.23 98.11 206.47 100.18 203.51 Z" />
<path fill="#f6ffc7" opacity="1.00" d=" M 238.66 203.47 C 239.79 199.76 244.30 199.45 247.21 197.71 C 244.40 204.20 239.83 209.67 236.36 215.78 C 234.67 215.59 232.99 215.40 231.32 215.18 C 233.99 211.43 236.92 207.78 238.66 203.47 Z" />
<path fill="#483c6d" opacity="1.00" d=" M 162.95 207.31 C 163.50 206.95 164.59 206.23 165.14 205.87 C 166.48 206.90 167.82 207.93 169.16 208.97 C 168.63 211.10 167.76 213.42 168.77 215.56 C 169.72 217.39 171.28 218.80 172.61 220.34 C 172.11 220.58 171.09 221.05 170.59 221.29 C 165.67 217.76 161.02 213.12 159.47 207.08 C 160.34 207.14 162.08 207.25 162.95 207.31 Z" />
<path fill="#387172" opacity="1.00" d=" M 94.96 213.40 C 96.99 207.60 104.07 207.99 109.02 206.70 C 108.94 207.54 108.76 209.22 108.67 210.07 C 109.12 210.87 109.56 211.68 110.00 212.49 C 106.94 213.14 103.92 214.20 101.76 216.58 C 99.49 215.52 97.24 214.42 94.96 213.40 Z" />
<path fill="#acc697" opacity="1.00" d=" M 114.29 212.40 C 116.70 212.60 119.69 212.63 121.05 215.04 C 120.81 216.21 120.01 217.21 119.12 217.98 C 115.62 220.18 112.11 222.37 108.35 224.12 C 106.59 221.25 104.29 218.78 101.76 216.58 C 103.92 214.20 106.94 213.14 110.00 212.49 C 111.33 213.49 112.79 214.29 114.36 214.86 C 114.34 214.25 114.31 213.02 114.29 212.40 Z" />
<path fill="#74a087" opacity="1.00" d=" M 134.02 215.23 C 134.15 213.99 135.68 213.98 136.48 214.56 C 138.16 215.44 139.86 216.29 141.69 216.81 C 139.72 219.96 136.44 221.73 133.15 223.20 C 133.95 221.51 134.74 219.82 135.53 218.12 C 135.15 217.40 134.40 215.95 134.02 215.23 Z" />
<path fill="#568b7e" opacity="1.00" d=" M 121.95 226.44 C 127.85 225.61 131.89 220.43 134.02 215.23 C 134.40 215.95 135.15 217.40 135.53 218.12 C 134.74 219.82 133.95 221.51 133.15 223.20 C 128.12 225.76 123.12 228.47 117.71 230.18 C 114.94 228.31 111.59 227.14 108.33 228.45 C 108.32 227.00 108.33 225.56 108.35 224.12 C 112.11 222.37 115.62 220.18 119.12 217.98 C 118.29 219.62 117.08 221.00 115.71 222.21 C 117.11 224.34 119.10 226.69 121.95 226.44 Z" />
<path fill="#bbd39e" opacity="1.00" d=" M 141.69 216.81 C 144.69 217.84 147.25 220.82 147.20 224.05 C 141.91 230.46 131.64 228.22 125.87 233.98 C 126.28 234.88 126.68 235.78 127.09 236.68 C 126.25 237.56 125.42 238.45 124.59 239.35 C 123.17 238.19 121.60 237.23 119.96 236.42 C 116.43 237.85 114.26 241.09 111.77 243.79 C 112.40 240.09 112.45 236.31 111.75 232.61 C 113.72 231.77 115.70 230.93 117.71 230.18 C 123.12 228.47 128.12 225.76 133.15 223.20 C 136.44 221.73 139.72 219.96 141.69 216.81 Z" />
<path fill="#66528b" opacity="1.00" d=" M 218.12 224.37 C 222.84 223.21 226.39 219.77 229.80 216.52 C 232.35 217.58 235.10 217.67 237.82 217.48 C 233.90 224.83 226.37 230.04 218.22 231.50 C 209.34 231.33 199.89 232.48 191.69 228.27 C 189.00 227.12 186.99 224.95 185.46 222.51 C 187.52 221.98 189.39 223.13 191.26 223.79 C 199.76 227.34 209.38 226.57 218.12 224.37 Z" />
<path fill="#38325d" opacity="1.00" d=" M 172.61 220.34 C 176.42 222.56 181.17 225.30 185.46 222.51 C 186.99 224.95 189.00 227.12 191.69 228.27 C 199.89 232.48 209.34 231.33 218.22 231.50 C 209.27 234.23 199.54 232.69 190.67 230.30 C 183.64 228.20 176.57 225.65 170.59 221.29 C 171.09 221.05 172.11 220.58 172.61 220.34 Z" />
<path fill="#477e79" opacity="1.00" d=" M 108.33 228.45 C 111.59 227.14 114.94 228.31 117.71 230.18 C 115.70 230.93 113.72 231.77 111.75 232.61 C 112.45 236.31 112.40 240.09 111.77 243.79 C 111.60 244.98 111.38 246.15 111.13 247.33 C 109.81 248.99 108.40 250.57 106.92 252.08 C 106.08 252.93 105.24 253.78 104.40 254.63 C 102.72 251.89 99.03 250.57 96.10 252.09 C 89.40 255.44 83.98 262.09 76.01 262.33 C 81.00 257.70 86.61 253.82 91.85 249.49 C 91.48 249.23 90.74 248.72 90.37 248.47 C 91.92 247.08 93.43 245.66 94.91 244.20 C 94.69 243.60 94.25 242.41 94.03 241.81 C 100.90 241.13 107.40 236.25 109.52 229.61 C 108.84 229.64 107.48 229.70 106.80 229.74 C 107.18 229.42 107.94 228.77 108.33 228.45 Z" />
<path fill="#bbd39e" opacity="1.00" d=" M 94.53 233.84 C 98.67 232.60 103.01 231.92 106.80 229.74 C 107.48 229.70 108.84 229.64 109.52 229.61 C 107.40 236.25 100.90 241.13 94.03 241.81 C 93.11 239.86 91.53 238.06 91.48 235.83 C 92.00 234.59 93.43 234.32 94.53 233.84 Z" />
<path fill="#bbd39e" opacity="1.00" d=" M 127.66 235.92 C 127.47 233.05 131.15 233.14 133.09 232.23 C 131.37 233.58 129.55 234.82 127.66 235.92 Z" />
<path fill="#bbd39e" opacity="1.00" d=" M 126.06 240.22 C 133.42 232.75 144.68 231.23 154.63 233.01 C 150.23 236.74 144.87 238.99 139.98 241.96 C 136.78 243.88 133.41 245.47 129.99 246.97 C 128.64 244.75 126.83 242.73 126.06 240.22 Z" />
<path fill="#5d8e80" opacity="1.00" d=" M 154.63 233.01 C 155.35 233.64 156.08 234.28 156.82 234.91 C 153.17 238.16 148.96 240.71 145.35 244.02 C 140.09 244.44 135.61 247.89 132.69 252.11 C 131.80 250.39 130.90 248.68 129.99 246.97 C 133.41 245.47 136.78 243.88 139.98 241.96 C 144.87 238.99 150.23 236.74 154.63 233.01 Z" />
<path fill="#bbd39e" opacity="1.00" d=" M 111.13 247.33 C 113.72 244.46 116.11 241.37 119.05 238.84 C 120.89 238.60 122.06 240.51 123.42 241.44 C 122.17 242.70 120.94 243.96 119.69 245.22 C 119.28 245.61 118.47 246.39 118.06 246.77 C 114.38 249.29 111.73 253.78 107.41 255.02 C 107.29 254.29 107.04 252.82 106.92 252.08 C 108.40 250.57 109.81 248.99 111.13 247.33 Z" />
<path fill="#b5cf9d" opacity="1.00" d=" M 150.36 246.46 C 157.29 244.16 164.13 241.57 171.16 239.56 C 172.53 240.25 173.86 241.02 175.05 242.01 C 167.63 246.21 158.83 248.81 150.36 246.46 Z" />
<path fill="#407a77" opacity="1.00" d=" M 119.69 245.22 C 120.94 243.96 122.17 242.70 123.42 241.44 C 126.83 245.11 128.12 250.12 131.30 253.96 C 126.92 256.11 122.94 259.39 117.94 259.91 C 117.35 258.06 116.75 256.23 116.16 254.39 C 117.54 251.45 120.00 248.66 119.69 245.22 Z" />
<path fill="#6e9b85" opacity="1.00" d=" M 175.05 242.01 C 174.96 246.96 176.73 251.89 180.94 254.76 C 180.54 254.94 179.73 255.31 179.33 255.49 L 179.18 255.56 C 173.51 250.81 164.71 252.37 159.75 257.40 L 159.67 257.38 C 155.65 256.54 151.54 255.61 148.12 253.20 C 150.13 253.33 152.15 253.22 154.09 252.63 C 151.28 251.60 148.30 250.90 145.88 249.05 C 146.00 248.38 146.24 247.04 146.36 246.37 C 147.69 246.37 149.03 246.32 150.36 246.46 C 158.83 248.81 167.63 246.21 175.05 242.01 Z" />
<path fill="#4d837b" opacity="1.00" d=" M 132.69 252.11 C 135.61 247.89 140.09 244.44 145.35 244.02 C 143.88 246.39 142.95 249.31 145.31 251.48 C 142.32 252.60 139.69 254.47 137.20 256.42 L 137.15 256.46 C 135.65 255.02 134.15 253.58 132.69 252.11 Z" />
<path fill="#699684" opacity="1.00" d=" M 107.41 255.02 C 111.73 253.78 114.38 249.29 118.06 246.77 C 115.60 250.85 113.61 255.23 110.85 259.12 C 107.88 260.16 105.96 256.58 104.40 254.63 C 105.24 253.78 106.08 252.93 106.92 252.08 C 107.04 252.82 107.29 254.29 107.41 255.02 Z" />
<path fill="#b9d39f" opacity="1.00" d=" M 76.31 256.18 C 81.03 253.66 85.60 250.88 90.37 248.47 C 90.74 248.72 91.48 249.23 91.85 249.49 C 86.61 253.82 81.00 257.70 76.01 262.33 C 69.87 264.49 63.31 262.29 57.16 261.26 C 53.67 260.25 49.69 260.00 46.78 257.62 C 52.25 257.35 57.48 259.70 62.94 259.25 C 67.51 258.88 72.21 258.41 76.31 256.18 Z" />
<path fill="#bbd39e" opacity="1.00" d=" M 137.20 256.42 C 139.69 254.47 142.32 252.60 145.31 251.48 C 146.02 251.91 147.42 252.77 148.12 253.20 C 151.54 255.61 155.65 256.54 159.67 257.38 C 153.52 263.37 143.62 260.54 137.20 256.42 Z" />
<path fill="#c4dda5" opacity="1.00" d=" M 179.33 255.49 C 179.73 255.31 180.54 254.94 180.94 254.76 C 191.81 260.07 204.73 260.75 216.22 257.09 C 209.36 262.08 200.37 263.45 192.08 262.49 C 187.10 261.80 183.25 258.33 179.33 255.49 Z" />
</svg>
