<?xml version="1.0" encoding="UTF-8" ?>
<!DOCTYPE svg PUBLIC "-//W3C//DTD SVG 1.1//EN" "http://www.w3.org/Graphics/SVG/1.1/DTD/svg11.dtd">
<svg width="265pt" height="265pt" viewBox="0 0 265 265" version="1.1" xmlns="http://www.w3.org/2000/svg">
<path fill="#000000" opacity="1.00" d=" M 91.60 6.72 C 94.94 4.33 99.66 1.85 103.51 4.71 C 108.76 8.49 110.81 15.11 112.56 21.05 C 116.55 35.77 112.49 51.31 105.63 64.51 C 114.63 57.13 124.87 49.69 136.98 49.35 C 141.81 48.99 147.17 51.25 148.94 56.03 C 151.15 62.60 148.86 69.74 145.31 75.39 C 139.58 84.44 131.28 91.57 122.42 97.43 C 128.15 103.19 133.97 109.46 136.21 117.49 C 138.32 124.34 137.06 131.54 136.10 138.47 C 134.55 147.00 132.25 155.50 128.23 163.23 C 124.60 169.95 119.68 175.92 114.16 181.17 C 109.67 184.65 105.87 188.88 102.07 193.08 C 112.60 187.77 124.07 183.33 136.02 183.44 C 141.73 183.19 147.49 187.20 148.56 192.93 C 149.68 199.55 146.65 205.92 143.56 211.58 C 139.38 219.13 133.36 225.43 126.81 230.97 C 131.41 229.61 136.12 227.90 141.00 228.57 C 143.01 228.70 145.24 230.86 144.10 232.96 C 142.47 236.99 139.01 239.91 137.19 243.84 C 142.99 240.76 146.69 234.72 152.76 231.96 C 156.23 230.38 160.80 228.18 164.31 230.68 C 167.54 234.56 166.74 240.08 167.73 244.75 C 172.57 244.46 176.33 241.32 179.95 238.46 C 183.47 239.29 181.12 244.20 180.92 246.72 C 202.46 246.77 223.91 249.63 245.09 253.38 C 248.83 254.29 253.13 254.25 256.05 257.10 C 255.48 258.08 255.13 259.39 253.86 259.68 C 247.54 261.85 240.80 262.42 234.18 263.03 C 229.77 262.98 225.38 263.53 220.97 263.43 C 215.89 263.49 210.82 262.60 205.73 263.11 C 202.50 262.86 199.25 262.72 196.00 262.77 C 182.45 262.97 168.90 262.65 155.34 262.44 C 149.55 262.46 143.82 261.34 138.03 261.39 C 129.34 261.47 120.64 261.63 111.96 261.14 C 100.61 260.19 89.03 260.42 77.96 257.41 C 66.09 258.25 54.21 260.68 42.28 259.31 L 42.56 257.93 C 58.04 251.74 75.33 251.47 90.71 244.87 C 92.15 244.25 93.16 243.02 94.27 241.97 C 93.58 240.98 92.89 239.99 92.20 239.00 C 92.87 237.77 93.66 236.53 94.99 235.94 C 99.85 233.31 105.35 232.08 110.10 229.25 C 115.41 225.56 118.98 220.04 123.24 215.29 C 126.87 211.01 130.69 206.10 130.75 200.22 C 126.89 200.01 123.07 200.85 119.21 200.95 C 110.12 204.20 101.41 208.65 92.01 211.01 C 87.52 212.33 81.89 210.95 79.69 206.52 C 78.58 203.42 80.02 200.16 81.45 197.42 C 89.00 184.03 100.83 173.71 108.57 160.46 C 113.85 151.71 117.66 142.06 119.37 131.98 C 120.38 125.13 120.04 117.73 116.21 111.74 C 114.46 109.00 111.77 105.68 108.10 106.41 C 103.52 107.98 99.27 110.65 94.32 110.98 C 96.71 120.83 98.88 131.68 94.23 141.23 C 87.37 155.01 73.13 164.49 58.02 166.70 C 49.51 168.20 40.41 166.62 33.02 162.10 C 31.78 161.42 30.56 160.42 29.05 160.59 C 23.28 160.39 16.82 160.61 11.98 156.96 C 9.95 155.66 10.33 153.13 10.49 151.08 C 7.82 146.66 4.45 142.42 3.22 137.33 C 6.81 136.77 9.87 139.07 12.99 140.43 C 10.78 133.86 10.03 126.82 11.24 119.97 C 13.03 105.23 22.81 92.14 35.72 85.10 C 33.41 80.41 32.82 75.13 32.46 69.99 C 31.97 59.56 31.87 48.88 34.99 38.80 C 36.14 35.42 37.37 31.63 40.48 29.54 C 43.78 27.97 46.61 31.09 48.37 33.50 C 54.39 42.48 55.76 53.63 55.74 64.20 C 59.77 51.89 65.13 39.96 72.17 29.06 C 77.62 20.83 83.67 12.73 91.60 6.72 M 91.98 10.04 C 84.14 16.61 78.06 25.00 72.70 33.64 C 64.22 47.82 57.91 63.39 54.77 79.63 C 59.64 79.46 64.57 79.33 69.38 80.35 C 75.46 81.37 80.97 85.17 83.55 90.86 C 83.79 90.85 84.27 90.83 84.51 90.81 C 88.02 83.18 94.27 77.39 98.68 70.37 C 106.12 59.04 111.28 45.67 111.13 31.96 C 110.55 25.46 109.74 18.43 106.04 12.95 L 106.30 12.51 C 104.97 10.24 103.52 7.82 101.06 6.62 C 97.64 5.75 94.55 8.09 91.98 10.04 M 40.44 32.43 C 36.58 37.78 35.69 44.64 34.75 51.01 C 34.02 62.16 33.99 73.58 37.01 84.43 C 39.75 83.24 42.53 82.14 45.40 81.31 C 47.74 80.68 50.13 80.28 52.53 80.05 C 53.29 73.59 53.39 67.07 53.35 60.57 C 53.29 57.78 52.85 55.03 52.52 52.27 C 51.83 47.53 50.68 42.75 48.31 38.54 C 47.59 36.51 46.44 34.48 44.72 33.13 C 44.17 31.34 41.45 30.50 40.44 32.43 M 131.31 53.00 C 118.14 56.44 107.73 66.00 98.88 75.90 C 94.13 81.62 89.32 87.30 84.70 93.14 C 86.23 95.70 87.23 98.52 87.99 101.40 C 91.13 102.66 92.17 106.08 93.66 108.80 C 97.75 107.39 101.82 105.89 105.61 103.78 C 109.19 102.29 112.41 100.06 115.78 98.16 C 119.05 96.09 122.22 93.87 125.30 91.53 C 132.35 86.28 138.92 80.07 143.36 72.41 C 146.18 67.47 148.03 61.14 145.47 55.70 C 142.16 51.36 136.03 52.03 131.31 53.00 M 28.78 93.71 C 27.78 94.80 25.99 95.64 26.05 97.33 L 25.31 97.35 C 21.33 101.48 18.15 106.47 16.51 112.00 C 12.84 121.25 12.75 132.08 16.69 141.30 C 17.84 143.77 18.74 146.40 20.38 148.61 C 27.70 152.25 36.14 150.16 43.62 148.16 C 43.40 146.47 43.37 144.73 42.85 143.10 C 42.04 135.10 43.46 127.15 43.26 119.15 C 43.60 119.19 44.29 119.28 44.64 119.32 C 48.15 123.31 50.57 128.10 53.36 132.60 C 55.26 135.99 57.76 139.14 58.59 143.03 C 61.04 141.82 63.34 140.34 65.67 138.90 C 64.04 133.04 65.21 126.86 64.78 120.86 C 65.44 118.85 64.47 114.23 67.95 115.38 C 71.60 118.41 75.07 121.66 78.63 124.80 C 82.14 120.62 84.09 115.43 86.79 110.73 C 85.80 102.58 84.22 93.69 78.08 87.68 C 73.59 83.28 66.90 82.67 60.94 82.55 C 49.35 82.18 37.48 85.90 28.78 93.71 M 111.89 104.04 C 117.10 106.72 119.82 112.17 121.60 117.48 C 123.64 124.60 122.21 132.05 120.56 139.09 C 119.65 142.68 118.30 146.15 116.95 149.60 C 115.58 153.17 113.70 156.52 111.91 159.89 C 109.67 163.79 107.11 167.49 104.50 171.15 C 99.80 177.25 94.49 182.88 90.15 189.25 L 89.96 189.21 C 86.79 193.82 82.89 198.28 81.78 203.92 C 82.04 208.57 87.94 209.55 91.57 208.39 C 104.21 204.64 115.96 198.13 128.97 195.50 C 128.47 196.05 127.46 197.17 126.96 197.72 C 129.02 197.38 132.35 197.26 132.66 200.02 C 132.81 205.18 129.81 209.84 126.93 213.90 C 121.93 219.57 117.78 226.09 111.75 230.77 C 106.57 234.44 100.02 235.38 94.73 238.85 C 96.34 240.08 97.96 241.31 99.66 242.41 C 101.44 244.26 102.23 246.66 101.95 249.22 C 101.64 249.40 101.03 249.77 100.72 249.96 C 100.26 246.87 98.37 244.41 96.00 242.51 C 95.00 244.58 93.46 246.38 91.24 247.19 C 84.27 250.05 76.91 251.99 69.45 253.07 L 69.49 253.42 C 62.26 255.07 54.85 255.80 47.60 257.37 C 53.72 257.89 59.91 257.29 65.91 256.21 C 70.34 256.13 75.31 256.81 79.21 254.22 C 83.79 251.59 90.05 250.01 94.43 253.86 C 96.01 254.70 97.72 255.25 99.50 255.39 C 103.16 256.78 107.10 256.59 110.90 256.06 C 110.70 253.65 109.60 251.06 110.59 248.72 C 112.51 246.67 115.55 246.66 118.15 246.82 C 119.09 248.54 118.73 250.54 118.83 252.42 C 118.24 253.87 118.93 256.26 120.87 256.02 C 124.79 255.54 127.87 252.85 131.42 251.36 C 131.69 251.08 132.23 250.51 132.51 250.23 C 132.20 249.62 131.58 248.39 131.27 247.78 C 133.23 248.21 135.03 249.10 136.76 250.12 L 136.88 250.00 C 138.25 250.81 139.63 251.62 141.01 252.43 C 143.89 254.06 146.93 255.54 150.26 255.95 C 151.09 252.53 149.24 248.87 150.63 245.57 C 151.69 243.54 154.26 244.19 156.05 244.52 C 156.14 243.86 156.33 242.55 156.42 241.89 C 159.82 244.17 160.19 248.88 162.99 251.78 L 162.89 252.01 C 165.28 254.28 168.85 255.66 172.08 254.48 C 176.86 252.29 178.85 246.80 179.62 241.96 C 175.74 244.09 170.43 249.16 166.19 245.13 C 165.86 244.82 165.19 244.20 164.86 243.89 C 164.31 240.24 164.66 236.36 162.96 232.96 C 161.75 231.50 159.72 232.55 158.13 232.59 C 156.84 233.03 155.55 233.49 154.27 233.95 L 154.20 234.15 C 149.21 236.89 145.37 241.28 141.12 244.99 C 138.90 245.53 135.55 247.14 134.46 244.08 C 135.04 242.66 135.61 241.25 136.15 239.82 C 138.40 237.36 140.65 234.63 141.77 231.44 C 137.58 230.74 133.37 231.61 129.24 232.32 L 129.54 232.52 C 125.49 233.01 121.49 233.76 118.37 236.62 C 119.00 233.36 122.63 231.84 124.67 229.47 C 133.30 222.67 140.38 213.63 144.50 203.41 C 146.35 198.81 147.64 192.64 143.51 188.87 C 141.68 187.28 139.47 186.10 136.99 186.17 C 122.89 185.34 109.95 192.07 97.40 197.54 C 97.67 196.77 98.23 195.23 98.51 194.46 C 100.61 191.66 102.82 188.93 105.42 186.59 C 109.42 182.13 114.03 178.23 117.69 173.49 L 117.85 173.45 C 120.08 171.06 121.94 168.38 123.82 165.72 C 126.96 160.77 129.30 155.31 130.78 149.64 L 131.06 149.67 C 132.78 143.29 134.32 136.80 134.63 130.18 C 137.02 117.90 129.21 106.85 120.68 98.92 C 117.63 100.41 114.86 102.40 111.89 104.04 M 89.13 105.83 C 88.78 108.25 89.64 110.55 89.87 112.92 C 89.91 118.18 88.03 123.23 85.89 127.95 C 82.02 136.42 74.91 142.78 67.61 148.29 C 57.98 154.93 46.63 158.78 35.10 160.39 C 42.00 164.45 51.00 165.74 58.63 163.65 C 71.75 162.01 83.72 153.63 90.64 142.45 C 95.47 134.45 94.99 124.67 92.84 115.91 C 91.91 112.49 91.62 108.55 89.13 105.83 M 85.06 117.16 C 82.84 122.30 79.82 127.06 76.81 131.77 C 74.33 135.69 70.14 137.87 66.65 140.74 C 63.84 142.97 60.43 144.17 57.20 145.63 C 53.12 147.86 48.74 149.58 44.06 149.89 C 35.40 152.76 25.40 154.01 16.95 149.83 C 15.20 150.91 12.88 151.79 12.42 154.05 C 14.89 156.60 18.51 157.34 21.92 157.56 C 28.10 157.97 34.47 158.24 40.44 156.30 L 41.96 156.40 C 57.29 153.34 71.70 144.63 80.81 131.82 C 84.27 126.25 87.02 119.84 87.39 113.27 C 86.28 114.34 85.69 115.78 85.06 117.16 M 67.50 117.64 C 67.23 124.27 67.51 130.90 67.23 137.54 C 71.18 134.82 75.34 131.66 77.12 127.06 C 73.82 124.01 70.71 120.77 67.50 117.64 M 45.31 125.12 C 44.69 132.70 46.28 140.34 45.31 147.86 C 49.37 146.83 53.20 145.15 56.98 143.38 C 53.31 137.51 49.57 131.68 46.11 125.68 C 45.91 125.54 45.51 125.26 45.31 125.12 M 7.09 140.14 C 8.14 143.71 10.48 146.84 12.67 149.81 C 13.84 148.88 15.15 148.27 16.61 147.98 C 15.77 146.32 14.93 144.66 14.07 143.02 C 11.67 142.24 9.40 141.15 7.09 140.14 Z" />
<path fill="#bdff9c" opacity="1.00" d=" M 91.98 10.04 C 94.55 8.09 97.64 5.75 101.06 6.62 C 103.52 7.82 104.97 10.24 106.30 12.51 L 106.04 12.95 C 103.48 17.33 101.02 21.78 98.37 26.11 C 92.95 37.17 86.46 47.65 80.42 58.36 C 76.18 65.39 72.26 72.65 69.38 80.35 C 64.57 79.33 59.64 79.46 54.77 79.63 C 57.91 63.39 64.22 47.82 72.70 33.64 C 78.06 25.00 84.14 16.61 91.98 10.04 Z" />
<path fill="#458f86" opacity="1.00" d=" M 98.37 26.11 C 101.02 21.78 103.48 17.33 106.04 12.95 C 109.74 18.43 110.55 25.46 111.13 31.96 C 111.28 45.67 106.12 59.04 98.68 70.37 C 96.38 70.17 95.25 72.41 93.83 73.78 C 90.29 71.52 86.79 69.13 83.72 66.25 C 82.07 63.90 81.56 60.96 80.42 58.36 C 86.46 47.65 92.95 37.17 98.37 26.11 Z" />
<path fill="#b7fb9b" opacity="1.00" d=" M 40.44 32.43 C 41.45 30.50 44.17 31.34 44.72 33.13 C 45.51 43.97 45.94 54.88 45.46 65.74 C 44.66 70.91 45.08 76.13 45.40 81.31 C 42.53 82.14 39.75 83.24 37.01 84.43 C 33.99 73.58 34.02 62.16 34.75 51.01 C 35.69 44.64 36.58 37.78 40.44 32.43 Z" />
<path fill="#70ae8c" opacity="1.00" d=" M 44.72 33.13 C 46.44 34.48 47.59 36.51 48.31 38.54 C 47.57 43.03 47.78 47.57 47.81 52.09 C 47.82 55.03 47.84 57.96 47.87 60.89 C 47.86 63.79 48.04 66.69 48.36 69.57 C 49.60 69.57 50.84 69.57 52.08 69.57 C 52.15 71.32 52.22 73.07 52.28 74.83 C 51.19 76.43 49.93 77.91 48.33 79.02 C 47.22 74.63 46.42 70.16 45.46 65.74 C 45.94 54.88 45.51 43.97 44.72 33.13 Z" />
<path fill="#2a7f83" opacity="1.00" d=" M 48.31 38.54 C 50.68 42.75 51.83 47.53 52.52 52.27 C 50.95 52.21 49.38 52.15 47.81 52.09 C 47.78 47.57 47.57 43.03 48.31 38.54 Z" />
<path fill="#479086" opacity="1.00" d=" M 47.81 52.09 C 49.38 52.15 50.95 52.21 52.52 52.27 C 52.85 55.03 53.29 57.78 53.35 60.57 C 51.52 60.66 49.69 60.77 47.87 60.89 C 47.84 57.96 47.82 55.03 47.81 52.09 Z" />
<path fill="#bafc9c" opacity="1.00" d=" M 131.31 53.00 C 136.03 52.03 142.16 51.36 145.47 55.70 C 142.78 58.29 139.97 60.76 136.86 62.83 C 130.14 67.78 123.74 73.16 117.14 78.27 C 112.79 81.19 109.77 85.60 105.51 88.63 C 104.24 89.60 102.96 90.55 101.66 91.47 C 96.88 94.46 92.53 98.07 87.99 101.40 C 87.23 98.52 86.23 95.70 84.70 93.14 C 89.32 87.30 94.13 81.62 98.88 75.90 C 107.73 66.00 118.14 56.44 131.31 53.00 Z" />
<path fill="#1f7881" opacity="1.00" d=" M 145.47 55.70 C 148.03 61.14 146.18 67.47 143.36 72.41 C 138.92 80.07 132.35 86.28 125.30 91.53 C 126.08 87.71 127.76 82.90 124.22 79.88 C 121.86 79.32 119.37 79.30 117.14 78.27 C 123.74 73.16 130.14 67.78 136.86 62.83 C 139.97 60.76 142.78 58.29 145.47 55.70 Z" />
<path fill="#5ca28a" opacity="1.00" d=" M 69.38 80.35 C 72.26 72.65 76.18 65.39 80.42 58.36 C 81.56 60.96 82.07 63.90 83.72 66.25 C 86.79 69.13 90.29 71.52 93.83 73.78 C 95.25 72.41 96.38 70.17 98.68 70.37 C 94.27 77.39 88.02 83.18 84.51 90.81 C 84.27 90.83 83.79 90.85 83.55 90.86 C 80.97 85.17 75.46 81.37 69.38 80.35 Z" />
<path fill="#599d89" opacity="1.00" d=" M 47.87 60.89 C 49.69 60.77 51.52 60.66 53.35 60.57 C 53.39 67.07 53.29 73.59 52.53 80.05 C 52.42 78.31 52.33 76.57 52.28 74.83 C 52.22 73.07 52.15 71.32 52.08 69.57 C 50.84 69.57 49.60 69.57 48.36 69.57 C 48.04 66.69 47.86 63.79 47.87 60.89 Z" />
<path fill="#89c693" opacity="1.00" d=" M 45.40 81.31 C 45.08 76.13 44.66 70.91 45.46 65.74 C 46.42 70.16 47.22 74.63 48.33 79.02 C 49.93 77.91 51.19 76.43 52.28 74.83 C 52.33 76.57 52.42 78.31 52.53 80.05 C 50.13 80.28 47.74 80.68 45.40 81.31 Z" />
<path fill="#408b85" opacity="1.00" d=" M 105.51 88.63 C 109.77 85.60 112.79 81.19 117.14 78.27 C 119.37 79.30 121.86 79.32 124.22 79.88 C 127.76 82.90 126.08 87.71 125.30 91.53 C 122.22 93.87 119.05 96.09 115.78 98.16 C 110.01 98.02 110.75 90.09 105.51 88.63 Z" />
<path fill="#a782b6" opacity="1.00" d=" M 28.78 93.71 C 37.48 85.90 49.35 82.18 60.94 82.55 C 66.90 82.67 73.59 83.28 78.08 87.68 C 75.58 90.94 74.99 95.09 73.93 98.94 C 72.51 104.61 70.64 110.19 67.95 115.38 C 64.47 114.23 65.44 118.85 64.78 120.86 C 61.90 125.56 57.93 129.54 53.36 132.60 C 50.57 128.10 48.15 123.31 44.64 119.32 C 44.29 119.28 43.60 119.19 43.26 119.15 C 43.46 127.15 42.04 135.10 42.85 143.10 C 42.54 142.18 42.22 141.27 41.88 140.36 C 33.50 141.10 25.07 140.69 16.69 141.30 C 12.75 132.08 12.84 121.25 16.51 112.00 C 18.67 115.17 20.59 119.68 25.03 119.92 C 30.03 120.73 32.84 115.93 35.96 112.97 C 39.62 109.54 40.54 103.01 36.52 99.50 C 33.74 96.73 29.61 97.29 26.05 97.33 C 25.99 95.64 27.78 94.80 28.78 93.71 M 55.28 106.34 C 52.65 107.42 54.30 111.81 57.04 110.87 C 60.53 110.25 58.47 104.43 55.28 106.34 Z" />
<path fill="#7c5c9d" opacity="1.00" d=" M 78.08 87.68 C 84.22 93.69 85.80 102.58 86.79 110.73 C 84.09 115.43 82.14 120.62 78.63 124.80 C 75.07 121.66 71.60 118.41 67.95 115.38 C 70.64 110.19 72.51 104.61 73.93 98.94 C 74.99 95.09 75.58 90.94 78.08 87.68 Z" />
<path fill="#519888" opacity="1.00" d=" M 101.66 91.47 C 102.96 90.55 104.24 89.60 105.51 88.63 C 110.75 90.09 110.01 98.02 115.78 98.16 C 112.41 100.06 109.19 102.29 105.61 103.78 C 104.27 103.70 102.94 103.56 101.61 103.42 C 100.63 101.23 99.55 99.10 98.35 97.03 C 99.67 95.32 101.30 93.69 101.66 91.47 Z" />
<path fill="#5fa38a" opacity="1.00" d=" M 87.99 101.40 C 92.53 98.07 96.88 94.46 101.66 91.47 C 101.30 93.69 99.67 95.32 98.35 97.03 C 99.55 99.10 100.63 101.23 101.61 103.42 C 102.94 103.56 104.27 103.70 105.61 103.78 C 101.82 105.89 97.75 107.39 93.66 108.80 C 92.17 106.08 91.13 102.66 87.99 101.40 Z" />
<path fill="#ffbefe" opacity="1.00" d=" M 25.31 97.35 L 26.05 97.33 C 29.61 97.29 33.74 96.73 36.52 99.50 C 40.54 103.01 39.62 109.54 35.96 112.97 C 32.84 115.93 30.03 120.73 25.03 119.92 C 20.59 119.68 18.67 115.17 16.51 112.00 C 18.15 106.47 21.33 101.48 25.31 97.35 Z" />
<path fill="#204f58" opacity="1.00" d=" M 111.89 104.04 C 114.86 102.40 117.63 100.41 120.68 98.92 C 129.21 106.85 137.02 117.90 134.63 130.18 C 134.49 128.04 134.21 125.91 133.88 123.80 C 131.64 127.53 130.20 131.64 128.56 135.65 C 128.30 136.63 127.63 137.34 126.69 137.72 C 128.38 131.39 127.88 124.67 126.57 118.32 C 124.97 117.75 123.30 117.47 121.60 117.48 C 119.82 112.17 117.10 106.72 111.89 104.04 Z" />
<path fill="#ffc1ff" opacity="1.00" d=" M 55.28 106.34 C 58.47 104.43 60.53 110.25 57.04 110.87 C 54.30 111.81 52.65 107.42 55.28 106.34 Z" />
<path fill="#715297" opacity="1.00" d=" M 89.13 105.83 C 91.62 108.55 91.91 112.49 92.84 115.91 C 94.99 124.67 95.47 134.45 90.64 142.45 C 83.72 153.63 71.75 162.01 58.63 163.65 C 61.53 158.54 67.62 154.64 67.61 148.29 C 74.91 142.78 82.02 136.42 85.89 127.95 C 88.03 123.23 89.91 118.18 89.87 112.92 C 89.64 110.55 88.78 108.25 89.13 105.83 Z" />
<path fill="#38315d" opacity="1.00" d=" M 85.06 117.16 C 85.69 115.78 86.28 114.34 87.39 113.27 C 87.02 119.84 84.27 126.25 80.81 131.82 C 71.70 144.63 57.29 153.34 41.96 156.40 L 40.44 156.30 C 46.44 152.22 54.32 151.23 59.43 145.84 C 58.87 145.79 57.76 145.68 57.20 145.63 C 60.43 144.17 63.84 142.97 66.65 140.74 C 70.14 137.87 74.33 135.69 76.81 131.77 C 79.82 127.06 82.84 122.30 85.06 117.16 Z" />
<path fill="#3a6764" opacity="1.00" d=" M 121.60 117.48 C 123.30 117.47 124.97 117.75 126.57 118.32 C 127.88 124.67 128.38 131.39 126.69 137.72 C 126.37 138.95 126.10 140.19 125.89 141.44 C 123.83 141.39 122.07 140.44 120.56 139.09 C 122.21 132.05 123.64 124.60 121.60 117.48 Z" />
<path fill="#f6ffc8" opacity="1.00" d=" M 67.50 117.64 C 70.71 120.77 73.82 124.01 77.12 127.06 C 75.34 131.66 71.18 134.82 67.23 137.54 C 67.51 130.90 67.23 124.27 67.50 117.64 Z" />
<path fill="#715297" opacity="1.00" d=" M 53.36 132.60 C 57.93 129.54 61.90 125.56 64.78 120.86 C 65.21 126.86 64.04 133.04 65.67 138.90 C 63.34 140.34 61.04 141.82 58.59 143.03 C 57.76 139.14 55.26 135.99 53.36 132.60 Z" />
<path fill="#2c6566" opacity="1.00" d=" M 128.56 135.65 C 130.20 131.64 131.64 127.53 133.88 123.80 C 134.21 125.91 134.49 128.04 134.63 130.18 C 134.32 136.80 132.78 143.29 131.06 149.67 L 130.78 149.64 C 128.45 149.41 126.11 149.31 123.78 149.29 C 125.19 146.91 125.58 144.14 125.89 141.44 C 126.10 140.19 126.37 138.95 126.69 137.72 C 127.63 137.34 128.30 136.63 128.56 135.65 Z" />
<path fill="#f6ffc8" opacity="1.00" d=" M 45.31 125.12 C 45.51 125.26 45.91 125.54 46.11 125.68 C 49.57 131.68 53.31 137.51 56.98 143.38 C 53.20 145.15 49.37 146.83 45.31 147.86 C 46.28 140.34 44.69 132.70 45.31 125.12 Z" />
<path fill="#648a77" opacity="1.00" d=" M 120.56 139.09 C 122.07 140.44 123.83 141.39 125.89 141.44 C 125.58 144.14 125.19 146.91 123.78 149.29 C 123.05 150.49 122.24 151.64 121.55 152.85 C 119.35 152.84 117.70 151.72 116.95 149.60 C 118.30 146.15 119.65 142.68 120.56 139.09 Z" />
<path fill="#f7ffc8" opacity="1.00" d=" M 7.09 140.14 C 9.40 141.15 11.67 142.24 14.07 143.02 C 14.93 144.66 15.77 146.32 16.61 147.98 C 15.15 148.27 13.84 148.88 12.67 149.81 C 10.48 146.84 8.14 143.71 7.09 140.14 Z" />
<path fill="#8765a3" opacity="1.00" d=" M 16.69 141.30 C 25.07 140.69 33.50 141.10 41.88 140.36 C 42.22 141.27 42.54 142.18 42.85 143.10 C 43.37 144.73 43.40 146.47 43.62 148.16 C 36.14 150.16 27.70 152.25 20.38 148.61 C 18.74 146.40 17.84 143.77 16.69 141.30 Z" />
<path fill="#6b5690" opacity="1.00" d=" M 44.06 149.89 C 48.74 149.58 53.12 147.86 57.20 145.63 C 57.76 145.68 58.87 145.79 59.43 145.84 C 54.32 151.23 46.44 152.22 40.44 156.30 C 34.47 158.24 28.10 157.97 21.92 157.56 C 18.51 157.34 14.89 156.60 12.42 154.05 C 12.88 151.79 15.20 150.91 16.95 149.83 C 25.40 154.01 35.40 152.76 44.06 149.89 Z" />
<path fill="#805f9f" opacity="1.00" d=" M 35.10 160.39 C 46.63 158.78 57.98 154.93 67.61 148.29 C 67.62 154.64 61.53 158.54 58.63 163.65 C 51.00 165.74 42.00 164.45 35.10 160.39 Z" />
<path fill="#417771" opacity="1.00" d=" M 121.55 152.85 C 122.24 151.64 123.05 150.49 123.78 149.29 C 126.11 149.31 128.45 149.41 130.78 149.64 C 129.30 155.31 126.96 160.77 123.82 165.72 C 121.15 165.51 117.96 165.85 116.37 163.17 C 116.74 162.57 117.48 161.36 117.85 160.75 C 119.46 158.32 120.47 155.55 121.55 152.85 Z" />
<path fill="#7fa083" opacity="1.00" d=" M 111.91 159.89 C 113.70 156.52 115.58 153.17 116.95 149.60 C 117.70 151.72 119.35 152.84 121.55 152.85 C 120.47 155.55 119.46 158.32 117.85 160.75 C 116.52 161.02 115.19 161.29 113.87 161.57 C 113.21 161.01 112.56 160.45 111.91 159.89 Z" />
<path fill="#91af8b" opacity="1.00" d=" M 111.91 159.89 C 112.56 160.45 113.21 161.01 113.87 161.57 C 115.19 161.29 116.52 161.02 117.85 160.75 C 117.48 161.36 116.74 162.57 116.37 163.17 C 114.33 166.65 111.87 169.84 109.45 173.06 C 106.62 177.34 102.01 181.10 101.66 186.51 C 102.91 186.53 104.17 186.56 105.42 186.59 C 102.82 188.93 100.61 191.66 98.51 194.46 C 98.17 193.84 97.49 192.60 97.15 191.99 C 98.35 188.88 99.80 185.88 100.96 182.76 C 102.84 179.33 107.99 175.09 104.50 171.15 C 107.11 167.49 109.67 163.79 111.91 159.89 Z" />
<path fill="#5d8b7c" opacity="1.00" d=" M 109.45 173.06 C 111.87 169.84 114.33 166.65 116.37 163.17 C 117.96 165.85 121.15 165.51 123.82 165.72 C 121.94 168.38 120.08 171.06 117.85 173.45 L 117.69 173.49 C 115.99 173.81 114.48 174.68 113.01 175.56 C 111.80 174.76 110.62 173.91 109.45 173.06 Z" />
<path fill="#eaf0c5" opacity="1.00" d=" M 104.50 171.15 C 107.99 175.09 102.84 179.33 100.96 182.76 C 97.89 184.92 94.74 186.98 92.04 189.61 C 91.57 189.52 90.62 189.34 90.15 189.25 C 94.49 182.88 99.80 177.25 104.50 171.15 Z" />
<path fill="#6a9581" opacity="1.00" d=" M 101.66 186.51 C 102.01 181.10 106.62 177.34 109.45 173.06 C 110.62 173.91 111.80 174.76 113.01 175.56 C 114.48 174.68 115.99 173.81 117.69 173.49 C 114.03 178.23 109.42 182.13 105.42 186.59 C 104.17 186.56 102.91 186.53 101.66 186.51 Z" />
<path fill="#afcb9a" opacity="1.00" d=" M 92.04 189.61 C 94.74 186.98 97.89 184.92 100.96 182.76 C 99.80 185.88 98.35 188.88 97.15 191.99 C 97.49 192.60 98.17 193.84 98.51 194.46 C 98.23 195.23 97.67 196.77 97.40 197.54 C 109.95 192.07 122.89 185.34 136.99 186.17 C 139.47 186.10 141.68 187.28 143.51 188.87 C 142.95 192.55 142.86 196.51 140.67 199.69 C 135.75 207.75 131.73 216.46 126.01 223.97 C 122.45 227.12 119.83 231.16 116.19 234.21 C 112.45 237.35 108.84 240.65 105.36 244.07 C 103.70 242.78 101.77 242.13 99.66 242.41 C 97.96 241.31 96.34 240.08 94.73 238.85 C 100.02 235.38 106.57 234.44 111.75 230.77 C 117.78 226.09 121.93 219.57 126.93 213.90 C 129.81 209.84 132.81 205.18 132.66 200.02 C 132.35 197.26 129.02 197.38 126.96 197.72 C 127.46 197.17 128.47 196.05 128.97 195.50 C 115.96 198.13 104.21 204.64 91.57 208.39 C 87.94 209.55 82.04 208.57 81.78 203.92 C 82.89 198.28 86.79 193.82 89.96 189.21 L 90.15 189.25 C 90.62 189.34 91.57 189.52 92.04 189.61 Z" />
<path fill="#296864" opacity="1.00" d=" M 143.51 188.87 C 147.64 192.64 146.35 198.81 144.50 203.41 C 140.38 213.63 133.30 222.67 124.67 229.47 C 124.63 227.54 125.12 225.67 126.01 223.97 C 131.73 216.46 135.75 207.75 140.67 199.69 C 142.86 196.51 142.95 192.55 143.51 188.87 Z" />
<path fill="#4c8170" opacity="1.00" d=" M 116.19 234.21 C 119.83 231.16 122.45 227.12 126.01 223.97 C 125.12 225.67 124.63 227.54 124.67 229.47 C 122.63 231.84 119.00 233.36 118.37 236.62 C 118.33 236.84 118.23 237.28 118.18 237.50 C 116.77 240.50 114.90 243.25 113.07 245.99 C 114.76 246.28 116.45 246.57 118.15 246.82 C 115.55 246.66 112.51 246.67 110.59 248.72 C 109.60 251.06 110.70 253.65 110.90 256.06 C 107.10 256.59 103.16 256.78 99.50 255.39 C 102.22 251.90 106.14 249.46 108.31 245.54 C 107.30 246.06 106.30 246.60 105.32 247.17 C 105.33 246.40 105.35 244.85 105.36 244.07 C 108.84 240.65 112.45 237.35 116.19 234.21 Z" />
<path fill="#5c8d7e" opacity="1.00" d=" M 129.24 232.32 C 133.37 231.61 137.58 230.74 141.77 231.44 C 140.65 234.63 138.40 237.36 136.15 239.82 C 134.81 240.37 133.45 240.87 132.12 241.44 C 131.37 238.92 130.95 236.32 130.61 233.73 L 130.51 233.20 C 130.27 233.03 129.78 232.69 129.54 232.52 L 129.24 232.32 Z" />
<path fill="#b4ce9c" opacity="1.00" d=" M 158.13 232.59 C 159.72 232.55 161.75 231.50 162.96 232.96 C 164.66 236.36 164.31 240.24 164.86 243.89 C 165.19 244.20 165.86 244.82 166.19 245.13 C 164.97 247.27 163.91 249.49 162.99 251.78 C 160.19 248.88 159.82 244.17 156.42 241.89 C 156.87 238.77 157.55 235.69 158.13 232.59 Z" />
<path fill="#8cb18c" opacity="1.00" d=" M 118.37 236.62 C 121.49 233.76 125.49 233.01 129.54 232.52 C 129.78 232.69 130.27 233.03 130.51 233.20 L 130.61 233.73 C 129.78 234.78 128.95 235.83 128.18 236.93 C 125.17 237.81 122.28 239.09 119.80 241.04 C 121.04 242.40 122.44 243.58 123.96 244.61 C 123.72 245.01 123.23 245.82 122.98 246.23 C 120.38 246.39 118.08 245.45 117.26 242.83 C 118.12 241.51 118.97 240.18 119.82 238.86 C 119.41 238.52 118.59 237.84 118.18 237.50 C 118.23 237.28 118.33 236.84 118.37 236.62 Z" />
<path fill="#6f9c86" opacity="1.00" d=" M 154.27 233.95 C 155.55 233.49 156.84 233.03 158.13 232.59 C 157.55 235.69 156.87 238.77 156.42 241.89 C 156.33 242.55 156.14 243.86 156.05 244.52 C 154.26 244.19 151.69 243.54 150.63 245.57 C 149.24 248.87 151.09 252.53 150.26 255.95 C 146.93 255.54 143.89 254.06 141.01 252.43 C 142.90 248.41 145.54 244.80 148.60 241.59 C 150.58 239.21 153.23 237.20 154.20 234.15 L 154.27 233.95 Z" />
<path fill="#6c9a82" opacity="1.00" d=" M 128.18 236.93 C 128.95 235.83 129.78 234.78 130.61 233.73 C 130.95 236.32 131.37 238.92 132.12 241.44 C 127.13 244.39 122.68 248.08 118.83 252.42 C 118.73 250.54 119.09 248.54 118.15 246.82 C 116.45 246.57 114.76 246.28 113.07 245.99 C 114.90 243.25 116.77 240.50 118.18 237.50 C 118.59 237.84 119.41 238.52 119.82 238.86 C 118.97 240.18 118.12 241.51 117.26 242.83 C 118.08 245.45 120.38 246.39 122.98 246.23 C 123.23 245.82 123.72 245.01 123.96 244.61 C 125.52 242.13 126.81 239.51 128.18 236.93 Z" />
<path fill="#b6cf9c" opacity="1.00" d=" M 141.12 244.99 C 145.37 241.28 149.21 236.89 154.20 234.15 C 153.23 237.20 150.58 239.21 148.60 241.59 C 145.54 244.80 142.90 248.41 141.01 252.43 C 139.63 251.62 138.25 250.81 136.88 250.00 C 138.59 248.59 140.16 247.00 141.12 244.99 Z" />
<path fill="#a2c193" opacity="1.00" d=" M 119.80 241.04 C 122.28 239.09 125.17 237.81 128.18 236.93 C 126.81 239.51 125.52 242.13 123.96 244.61 C 122.44 243.58 121.04 242.40 119.80 241.04 Z" />
<path fill="#3b756a" opacity="1.00" d=" M 132.12 241.44 C 133.45 240.87 134.81 240.37 136.15 239.82 C 135.61 241.25 135.04 242.66 134.46 244.08 C 135.55 247.14 138.90 245.53 141.12 244.99 C 140.16 247.00 138.59 248.59 136.88 250.00 L 136.76 250.12 C 135.03 249.10 133.23 248.21 131.27 247.78 C 131.58 248.39 132.20 249.62 132.51 250.23 C 130.75 249.87 130.39 250.24 131.42 251.36 C 127.87 252.85 124.79 255.54 120.87 256.02 C 118.93 256.26 118.24 253.87 118.83 252.42 C 122.68 248.08 127.13 244.39 132.12 241.44 Z" />
<path fill="#84a989" opacity="1.00" d=" M 99.66 242.41 C 101.77 242.13 103.70 242.78 105.36 244.07 C 105.35 244.85 105.33 246.40 105.32 247.17 C 104.19 247.84 103.08 248.53 101.95 249.22 C 102.23 246.66 101.44 244.26 99.66 242.41 Z" />
<path fill="#76a186" opacity="1.00" d=" M 96.00 242.51 C 98.37 244.41 100.26 246.87 100.72 249.96 C 98.60 251.22 96.51 252.53 94.43 253.86 C 90.05 250.01 83.79 251.59 79.21 254.22 C 75.31 256.81 70.34 256.13 65.91 256.21 C 67.04 255.37 68.27 254.72 69.59 254.25 C 69.57 254.04 69.52 253.62 69.49 253.42 L 69.45 253.07 C 76.91 251.99 84.27 250.05 91.24 247.19 C 93.46 246.38 95.00 244.58 96.00 242.51 Z" />
<path fill="#4e837b" opacity="1.00" d=" M 166.19 245.13 C 170.43 249.16 175.74 244.09 179.62 241.96 C 178.85 246.80 176.86 252.29 172.08 254.48 C 168.85 255.66 165.28 254.28 162.89 252.01 L 162.99 251.78 C 163.91 249.49 164.97 247.27 166.19 245.13 Z" />
<path fill="#a3c295" opacity="1.00" d=" M 105.32 247.17 C 106.30 246.60 107.30 246.06 108.31 245.54 C 106.14 249.46 102.22 251.90 99.50 255.39 C 97.72 255.25 96.01 254.70 94.43 253.86 C 96.51 252.53 98.60 251.22 100.72 249.96 C 101.03 249.77 101.64 249.40 101.95 249.22 C 103.08 248.53 104.19 247.84 105.32 247.17 Z" />
<path fill="#75a487" opacity="1.00" d=" M 131.42 251.36 C 130.39 250.24 130.75 249.87 132.51 250.23 C 132.23 250.51 131.69 251.08 131.42 251.36 Z" />
<path fill="#f6ffc8" opacity="1.00" d=" M 47.60 257.37 C 54.85 255.80 62.26 255.07 69.49 253.42 C 69.52 253.62 69.57 254.04 69.59 254.25 C 68.27 254.72 67.04 255.37 65.91 256.21 C 59.91 257.29 53.72 257.89 47.60 257.37 Z" />
<path fill="#000000" opacity="0.33" d=" M 205.73 263.11 C 210.82 262.60 215.89 263.49 220.97 263.43 C 225.38 263.53 229.77 262.98 234.18 263.03 C 232.93 263.68 231.71 264.36 230.46 265.00 L 211.70 265.00 C 209.70 264.39 207.73 263.70 205.73 263.11 Z" />
</svg>
