<?xml version="1.0" encoding="UTF-8" ?>
<!DOCTYPE svg PUBLIC "-//W3C//DTD SVG 1.1//EN" "http://www.w3.org/Graphics/SVG/1.1/DTD/svg11.dtd">
<svg width="235pt" height="171pt" viewBox="0 0 235 171" version="1.1" xmlns="http://www.w3.org/2000/svg">
<path fill="#000000" opacity="1.00" d=" M 186.31 0.00 L 187.70 0.00 C 188.26 3.49 185.85 6.30 184.09 9.02 C 178.44 16.73 171.78 23.67 164.71 30.08 C 164.83 31.42 165.04 32.76 165.31 34.08 C 178.64 22.68 193.08 11.90 209.73 5.87 C 211.52 5.32 214.84 4.14 215.35 6.89 C 216.02 11.54 215.43 16.25 215.18 20.92 C 213.85 34.39 213.64 48.70 206.68 60.74 C 199.91 72.23 188.24 79.51 176.88 85.81 C 189.20 81.70 201.97 79.02 214.82 77.26 C 217.63 77.04 220.74 76.12 223.31 77.73 C 224.88 79.76 222.81 81.90 221.40 83.27 C 213.48 90.63 204.86 97.48 194.97 102.00 C 191.09 103.45 187.38 105.30 183.44 106.59 C 182.94 112.19 183.10 118.11 180.49 123.26 C 183.43 125.52 185.03 128.94 186.87 132.06 C 191.42 140.16 195.12 149.11 195.03 158.56 C 204.36 158.28 213.64 159.70 222.90 160.73 C 226.97 161.39 231.17 161.86 235.00 163.48 L 235.00 164.50 C 232.20 165.84 229.04 165.18 226.06 165.29 C 206.69 164.72 187.33 163.55 167.96 163.67 C 165.73 164.82 163.29 164.03 160.96 163.77 C 140.99 163.43 120.93 164.40 101.02 162.35 C 93.68 162.10 86.34 161.97 79.00 161.65 C 64.74 160.45 50.42 160.44 36.12 159.63 C 36.10 159.15 36.04 158.21 36.01 157.74 C 43.39 157.30 50.80 157.93 58.19 157.94 C 58.46 149.88 61.75 142.08 66.86 135.90 C 68.37 134.34 68.45 132.05 68.87 130.04 C 68.18 130.41 66.80 131.15 66.11 131.52 C 64.47 129.81 62.15 130.33 60.05 130.40 C 56.78 130.55 53.43 131.00 50.49 132.55 C 49.50 133.97 50.42 136.59 48.36 137.18 C 44.81 138.48 41.09 139.32 37.61 140.84 C 37.98 142.31 38.33 143.79 38.68 145.26 C 33.85 148.79 36.22 156.02 33.00 160.61 C 30.36 159.62 28.54 157.35 26.84 155.22 C 25.28 153.10 23.33 151.09 22.91 148.39 C 14.72 153.90 6.89 160.54 1.75 169.08 C 0.86 167.55 0.98 165.76 0.95 164.07 C 3.90 151.68 11.77 141.14 21.47 133.14 C 20.07 115.96 25.93 99.12 34.58 84.51 C 37.83 79.25 42.58 75.18 46.41 70.36 C 48.22 70.03 50.08 69.49 51.93 69.83 C 54.28 70.72 53.46 74.53 56.48 74.48 C 52.78 64.42 48.55 53.92 49.69 43.00 C 49.41 41.44 51.42 39.51 52.47 41.42 C 57.34 49.36 61.43 58.16 61.63 67.64 C 64.48 66.07 67.41 64.68 70.38 63.36 C 73.55 61.65 77.19 62.80 80.58 62.79 C 81.02 62.34 81.90 61.43 82.34 60.98 C 74.48 48.90 69.16 35.17 66.74 20.96 C 66.41 18.03 65.51 14.48 67.94 12.17 C 71.25 13.02 73.66 15.70 75.76 18.23 C 80.70 24.51 84.45 31.61 88.02 38.72 C 90.08 42.96 92.11 47.28 93.07 51.92 C 93.75 51.84 95.12 51.68 95.81 51.59 C 98.32 53.96 100.68 56.48 102.96 59.08 C 104.94 44.34 111.59 30.75 117.20 17.12 C 118.27 15.17 119.52 10.61 122.50 12.58 C 127.53 16.50 128.70 23.36 129.35 29.33 C 134.25 19.53 141.25 10.79 149.61 3.71 C 151.30 2.53 153.35 0.45 155.57 1.47 C 157.62 4.38 158.53 7.90 159.49 11.29 C 167.69 7.24 176.16 3.71 184.99 1.28 C 185.32 0.96 185.98 0.32 186.31 0.00 M 152.14 5.18 C 144.49 11.72 137.86 19.58 132.97 28.39 C 138.26 24.75 143.54 20.87 148.79 17.21 C 151.61 15.94 154.18 14.21 156.93 12.81 C 156.62 9.71 155.36 6.77 154.09 3.95 C 153.60 4.26 152.62 4.88 152.14 5.18 M 115.65 50.64 C 111.99 54.77 108.01 58.95 105.09 63.71 L 106.64 63.64 C 114.23 58.80 123.00 56.24 130.77 51.70 L 130.65 51.60 C 134.04 49.82 137.32 47.83 140.57 45.81 L 140.60 45.63 C 149.20 40.45 157.13 34.21 164.49 27.41 C 165.33 26.56 166.39 25.84 166.88 24.70 C 173.80 18.76 179.93 11.66 184.97 4.03 C 157.21 10.72 134.20 29.63 115.65 50.64 M 208.61 8.63 C 197.78 13.35 187.61 19.64 178.33 26.90 C 163.89 38.00 150.72 51.28 141.56 67.13 C 142.26 69.25 144.11 71.03 145.09 73.13 C 145.67 77.63 147.49 81.83 148.32 86.28 C 147.95 89.16 147.71 92.05 147.19 94.90 C 155.31 91.19 164.25 89.58 172.04 85.10 C 178.58 81.42 185.71 78.22 191.10 72.93 C 198.39 67.92 204.37 60.55 207.05 52.05 C 208.36 48.20 209.36 44.26 210.21 40.29 C 211.54 29.31 212.83 18.30 213.26 7.24 C 211.58 7.09 210.10 8.03 208.61 8.63 M 121.06 13.42 C 120.19 16.17 119.14 18.86 118.00 21.51 C 113.22 33.44 108.12 45.35 105.38 57.97 C 105.62 57.88 106.11 57.71 106.35 57.62 C 109.85 51.89 114.19 46.75 118.57 41.68 L 118.58 41.09 C 121.12 39.87 122.78 37.42 124.87 35.59 C 125.22 35.18 125.92 34.34 126.27 33.92 C 127.71 26.84 125.31 19.76 121.79 13.68 L 121.06 13.42 M 68.35 14.00 C 69.52 28.25 74.38 42.07 81.12 54.62 C 82.10 56.31 83.02 58.05 83.88 59.81 C 86.24 57.68 88.78 55.79 91.36 53.95 C 90.98 50.85 89.48 47.98 88.48 45.03 C 84.97 37.31 81.06 29.74 76.33 22.69 C 74.06 19.49 71.71 16.13 68.35 14.00 M 155.79 37.78 C 151.34 41.54 146.20 44.41 141.80 48.21 C 140.00 49.37 138.30 50.71 136.27 51.47 L 136.40 51.69 C 134.17 53.37 131.24 54.20 129.18 55.98 C 129.61 59.32 128.87 62.72 127.56 65.79 L 127.43 65.84 C 126.79 67.62 126.04 69.35 125.19 71.03 C 130.15 69.59 134.26 63.94 139.96 65.96 C 140.80 64.07 141.88 62.28 142.64 60.35 C 144.16 58.36 145.62 56.33 147.00 54.24 C 151.35 48.26 156.61 43.02 161.74 37.72 C 162.47 35.92 162.80 33.98 162.95 32.05 C 160.28 33.58 158.29 36.01 155.79 37.78 M 51.75 44.61 C 51.44 51.60 53.52 58.35 55.45 64.97 C 56.60 67.58 56.60 70.85 58.50 73.02 C 58.03 70.88 59.77 69.14 59.33 67.01 C 59.47 64.94 58.10 62.89 59.29 60.90 C 59.03 60.75 58.50 60.45 58.24 60.30 L 58.39 60.01 C 56.78 54.66 54.84 49.30 51.75 44.61 M 93.17 55.45 C 89.42 58.50 85.26 61.12 81.99 64.73 C 78.57 65.52 74.89 63.68 71.56 65.06 L 71.58 65.17 C 68.17 66.73 64.57 68.17 61.76 70.73 C 61.75 72.53 61.26 74.26 60.56 75.90 C 60.69 79.27 60.45 82.65 60.15 86.02 C 61.50 88.19 63.60 89.94 63.96 92.61 C 64.48 92.21 65.52 91.42 66.04 91.02 C 67.98 91.41 68.91 93.19 68.38 95.10 C 69.59 94.06 70.83 93.04 72.09 92.06 C 71.68 91.64 70.86 90.81 70.45 90.39 C 70.44 89.26 71.99 89.20 72.65 88.58 C 72.64 87.95 72.62 86.69 72.61 86.06 C 74.99 84.97 77.35 83.81 79.83 82.92 C 80.38 83.27 81.49 83.97 82.04 84.32 C 82.71 82.92 83.38 81.51 84.01 80.10 C 83.32 79.28 82.58 78.47 82.23 77.44 C 84.31 76.37 85.13 79.23 86.04 80.53 C 85.85 80.56 85.48 80.64 85.29 80.67 C 84.61 82.49 84.03 84.39 82.87 85.99 C 81.71 85.78 80.66 85.30 79.72 84.56 C 78.65 85.73 79.99 87.67 79.90 89.10 C 84.66 89.44 89.45 90.39 93.29 93.39 C 92.85 92.08 92.32 90.80 91.71 89.56 C 88.64 89.17 84.79 86.52 85.86 82.99 C 87.55 78.56 91.87 74.31 97.01 75.45 C 101.04 76.07 102.92 80.67 101.62 84.29 C 102.55 85.90 104.27 86.92 105.77 87.98 C 106.58 85.07 107.96 82.20 107.54 79.10 C 106.41 69.69 102.53 60.24 95.09 54.07 C 94.61 54.42 93.65 55.11 93.17 55.45 M 117.94 61.11 C 114.07 62.66 110.43 64.88 106.29 65.68 C 108.21 70.15 109.51 74.93 109.93 79.79 C 109.70 80.97 109.60 82.16 109.64 83.37 C 113.31 81.04 116.13 77.58 119.88 75.32 C 121.33 74.35 121.67 72.58 122.25 71.06 C 124.58 66.63 126.92 61.98 126.99 56.85 C 123.85 58.00 120.90 59.58 117.94 61.11 M 133.10 70.30 C 130.43 71.37 128.07 73.04 125.65 74.57 L 125.61 74.67 C 120.22 78.02 115.08 81.76 109.98 85.53 C 108.13 85.89 108.12 88.12 107.29 89.42 C 109.21 91.03 111.07 92.72 112.84 94.49 C 115.46 93.89 120.93 93.62 119.05 97.94 C 120.02 98.93 120.94 100.02 122.16 100.72 C 122.82 101.94 123.28 103.26 123.46 104.64 C 128.40 102.30 133.23 105.79 137.84 107.24 C 139.50 104.40 140.67 101.28 142.58 98.59 C 145.99 91.72 146.18 83.47 143.23 76.40 C 141.96 73.61 140.67 70.64 138.23 68.67 C 136.35 67.71 134.68 69.54 133.10 70.30 M 45.17 75.14 C 40.35 79.54 36.10 84.70 33.41 90.69 L 33.32 90.70 C 26.53 103.21 24.23 117.39 22.64 131.35 L 23.08 131.97 C 25.10 130.24 27.19 128.61 29.26 126.94 C 32.39 124.54 35.79 122.46 38.84 119.96 C 38.67 113.94 39.30 107.89 40.38 101.98 C 41.40 97.22 42.66 92.52 44.07 87.87 C 45.18 86.04 45.69 83.84 47.17 82.26 C 48.07 82.51 48.97 82.74 49.88 82.96 C 50.67 82.08 51.15 80.83 52.26 80.29 C 54.39 80.12 56.23 81.82 58.37 81.49 C 58.37 80.61 58.37 78.85 58.37 77.96 C 56.81 77.52 55.20 76.25 53.58 76.48 C 52.57 75.03 51.86 73.42 51.18 71.80 C 48.42 71.11 46.24 72.68 45.17 75.14 M 88.95 81.01 C 86.45 82.48 87.18 86.40 89.91 87.33 C 91.21 87.58 92.51 87.85 93.82 88.13 C 96.67 92.62 98.50 97.78 102.01 101.82 C 103.54 101.70 105.59 100.11 106.76 101.62 C 101.25 105.47 94.21 106.56 88.77 110.29 C 88.05 110.23 86.61 110.11 85.90 110.05 C 85.75 111.06 85.45 112.02 85.01 112.94 C 81.68 112.69 78.89 109.76 75.46 110.48 C 73.23 111.46 72.04 113.84 70.43 115.56 C 69.18 112.86 71.85 111.02 73.07 108.94 C 70.78 108.49 68.24 108.60 66.09 109.59 C 62.28 110.87 58.14 111.66 54.70 113.75 C 45.64 117.58 36.99 122.68 29.63 129.22 L 29.13 129.14 C 20.74 135.73 12.34 142.91 7.37 152.56 L 7.18 152.61 C 5.77 155.86 4.20 159.09 3.48 162.58 L 4.66 162.04 C 15.58 148.86 31.04 139.99 47.43 135.48 C 47.97 133.81 48.54 132.15 49.16 130.51 C 50.37 130.84 51.52 129.89 52.70 129.68 C 57.48 127.93 62.61 128.44 67.58 128.64 C 69.39 127.38 70.46 124.84 72.96 124.79 C 75.75 124.91 78.45 125.72 81.16 126.32 C 82.67 124.15 82.20 121.05 84.06 119.06 C 86.16 117.67 88.40 116.53 90.55 115.23 C 93.26 114.70 95.65 113.15 98.24 112.22 C 105.23 109.11 112.56 106.72 119.18 102.83 C 118.88 100.95 116.99 99.95 115.66 98.83 C 116.04 98.22 116.80 96.99 117.18 96.38 C 115.14 96.09 113.08 96.33 111.03 96.42 C 110.23 95.65 109.45 94.87 108.65 94.10 C 106.37 91.79 103.66 89.90 101.70 87.28 C 99.25 84.36 101.19 79.06 96.83 77.51 L 96.09 77.83 C 93.27 77.12 90.69 78.98 88.95 81.01 M 186.84 85.66 C 184.71 86.97 182.28 87.62 179.91 88.30 C 171.46 90.65 162.93 92.71 154.58 95.40 C 151.76 95.83 148.91 96.28 146.25 97.36 C 145.20 98.34 144.64 99.73 143.74 100.84 C 142.63 102.36 141.94 104.11 141.20 105.82 C 147.51 102.76 154.45 101.32 161.44 101.16 C 165.91 101.25 170.38 101.14 174.84 101.56 C 177.93 102.11 181.19 102.18 183.98 103.81 C 195.36 99.50 206.22 93.44 215.07 85.03 C 217.22 83.55 219.14 81.73 220.82 79.74 C 209.32 80.36 198.04 83.12 186.84 85.66 M 52.88 82.43 C 52.27 83.67 51.94 85.16 50.85 86.10 C 49.51 86.55 48.75 84.75 47.37 85.02 C 42.80 95.49 41.17 107.02 40.68 118.36 L 41.73 118.33 C 50.75 112.97 60.47 108.20 71.00 106.91 C 72.78 106.41 74.22 108.07 75.98 107.88 C 78.76 107.71 81.10 109.41 83.69 109.97 C 83.99 109.38 84.61 108.19 84.91 107.60 C 85.64 107.63 87.08 107.69 87.81 107.72 C 88.27 106.04 88.83 104.38 89.48 102.75 C 88.45 101.23 86.25 100.03 86.62 97.92 C 87.47 96.48 89.18 96.23 90.61 95.69 L 90.53 94.88 C 86.86 92.80 82.68 91.96 78.55 91.37 C 76.67 90.42 77.32 87.94 77.03 86.27 C 73.81 85.44 75.34 89.22 73.12 90.17 C 73.36 90.66 73.85 91.64 74.10 92.13 C 73.47 94.38 70.94 94.98 69.26 96.25 C 67.72 96.96 66.94 98.89 65.08 98.88 C 65.53 96.69 67.18 94.90 67.25 92.62 C 65.85 93.38 64.37 94.01 62.81 94.39 C 62.71 94.95 62.52 96.08 62.42 96.64 C 60.95 96.21 59.89 95.10 58.96 93.95 C 58.99 93.75 59.04 93.35 59.07 93.15 C 61.71 94.70 62.69 89.63 59.50 91.75 L 60.47 90.00 C 58.83 88.41 57.78 86.42 57.81 84.10 C 56.17 83.54 54.57 82.85 52.88 82.43 M 89.17 98.45 C 90.07 99.61 91.25 100.49 92.37 101.42 C 92.47 103.06 91.77 104.56 91.22 106.06 C 93.00 106.47 94.53 104.63 96.27 104.25 C 97.24 103.79 99.89 103.36 98.32 101.80 C 96.62 99.80 95.90 96.96 94.01 95.26 L 92.34 95.84 C 91.56 97.02 90.39 97.80 89.17 98.45 M 141.17 108.77 C 143.13 110.36 145.71 111.97 148.17 112.70 C 152.65 116.65 158.13 119.71 162.12 124.33 C 166.87 123.93 171.95 126.79 176.40 124.39 C 179.48 121.41 179.94 116.80 180.47 112.76 C 180.51 110.17 181.17 106.88 179.29 104.82 C 166.57 103.27 152.94 102.96 141.17 108.77 M 102.11 113.55 C 99.27 114.60 96.50 115.84 93.67 116.92 C 90.94 118.07 88.16 119.14 85.45 120.35 C 85.13 121.96 84.81 123.57 84.53 125.19 L 84.59 125.28 C 84.44 126.85 83.94 128.28 83.08 129.57 C 81.60 129.37 80.16 129.01 78.75 128.56 C 78.11 128.46 76.81 128.27 76.16 128.17 C 75.44 126.20 71.66 126.90 72.29 129.14 C 70.95 130.32 71.20 132.31 71.25 133.91 C 71.24 134.54 71.24 135.80 71.24 136.43 C 76.18 132.33 82.76 132.58 88.80 132.25 L 88.68 132.05 C 92.32 132.00 95.73 129.99 97.59 126.86 C 96.41 123.76 92.76 121.23 93.60 117.61 C 94.45 118.45 95.32 119.27 96.20 120.09 C 98.26 123.19 100.86 125.94 103.93 128.06 C 105.08 128.81 106.44 129.75 107.79 128.76 C 114.20 125.48 120.65 122.19 126.64 118.18 C 124.26 115.03 123.00 111.24 122.04 107.47 C 121.99 106.85 121.89 105.63 121.84 105.01 C 115.26 107.76 108.57 110.61 102.11 113.55 M 126.47 106.73 C 125.98 106.99 125.00 107.53 124.51 107.79 C 124.77 108.52 125.29 109.98 125.55 110.71 L 125.91 110.74 C 127.65 115.82 130.96 120.40 134.42 124.46 L 134.34 124.71 C 136.73 127.38 139.39 129.87 142.62 131.51 C 150.81 135.89 159.86 138.29 168.74 140.81 C 168.02 134.89 164.19 129.97 160.41 125.59 C 152.55 118.04 143.26 112.08 133.29 107.73 C 131.08 107.17 128.70 105.35 126.47 106.73 M 109.40 131.36 C 108.10 131.98 106.67 132.18 105.26 132.31 C 103.42 135.96 100.41 138.80 97.67 141.76 C 96.78 142.83 95.48 143.31 94.11 143.36 C 93.17 146.62 91.66 149.68 90.62 152.91 C 101.42 152.60 112.22 152.66 123.02 152.84 C 136.01 153.50 149.12 153.23 161.97 155.53 C 158.15 149.79 154.36 143.92 150.99 137.97 C 141.95 134.98 133.64 129.46 128.57 121.25 L 127.96 121.10 C 121.90 124.74 115.73 128.21 109.40 131.36 M 164.16 126.43 C 167.11 130.94 172.02 136.17 170.05 141.92 C 168.09 141.80 166.12 141.72 164.16 141.61 C 167.86 146.76 170.42 152.81 171.10 159.14 C 178.17 158.54 185.39 158.94 192.53 158.86 C 186.73 148.37 181.81 137.24 173.90 128.09 C 170.61 127.80 167.27 127.65 164.16 126.43 M 176.02 127.76 C 179.56 130.69 182.01 134.63 184.63 138.35 C 187.19 142.75 189.58 147.24 191.65 151.90 C 191.48 145.76 188.10 140.20 185.60 134.72 C 183.62 131.48 182.15 127.86 179.35 125.19 C 178.29 126.12 177.18 126.97 176.02 127.76 M 99.39 128.26 C 97.38 132.16 93.29 134.01 89.19 134.88 C 90.99 136.98 92.75 139.19 95.01 140.83 C 97.96 137.85 101.25 134.89 103.15 131.13 C 101.90 130.16 100.66 129.20 99.39 128.26 M 81.44 135.36 C 79.48 136.75 77.39 137.99 75.57 139.59 C 71.45 144.77 67.14 149.81 63.22 155.16 C 75.77 156.59 88.43 156.52 101.04 156.61 C 96.76 155.72 92.40 154.96 88.02 154.86 C 87.04 149.29 86.36 143.12 88.98 137.89 C 88.60 136.92 88.22 135.96 87.85 134.99 C 85.74 134.68 83.56 135.17 81.44 135.36 M 65.38 141.24 L 65.40 141.31 C 62.79 145.81 60.84 150.77 60.33 155.98 C 62.61 153.45 64.13 150.23 66.37 147.59 C 68.35 145.37 70.10 142.95 71.90 140.58 C 71.16 140.15 70.42 139.72 69.70 139.29 C 69.53 138.71 69.19 137.57 69.03 137.00 C 67.06 137.23 66.59 139.89 65.38 141.24 M 153.15 138.89 C 155.04 141.35 156.88 143.84 158.57 146.44 C 161.19 151.09 164.52 155.26 167.44 159.71 C 167.77 159.77 168.42 159.88 168.74 159.93 C 168.71 154.88 166.68 150.16 164.72 145.60 C 164.00 144.21 163.27 142.82 162.53 141.44 C 159.41 140.57 156.33 139.51 153.15 138.89 M 90.07 139.59 C 89.31 142.56 88.95 145.61 88.49 148.63 C 88.76 148.70 89.29 148.83 89.56 148.90 C 90.35 146.63 91.32 144.44 92.50 142.35 C 92.59 141.02 90.81 140.47 90.07 139.59 M 25.61 146.90 C 25.92 148.22 26.22 149.55 26.47 150.89 C 27.70 152.90 28.77 155.27 30.91 156.47 L 31.00 157.13 C 31.41 157.35 32.22 157.78 32.63 157.99 C 33.54 153.31 33.20 147.93 36.44 144.07 C 36.10 143.51 35.42 142.38 35.08 141.82 C 31.82 143.30 28.41 144.64 25.61 146.90 Z" />
<path fill="#3c8793" opacity="1.00" d=" M 152.14 5.18 C 152.62 4.88 153.60 4.26 154.09 3.95 C 155.36 6.77 156.62 9.71 156.93 12.81 C 154.18 14.21 151.61 15.94 148.79 17.21 C 149.91 13.20 151.02 9.19 152.14 5.18 Z" />
<path fill="#ffffff" opacity="1.00" d=" M 115.65 50.64 C 134.20 29.63 157.21 10.72 184.97 4.03 C 179.93 11.66 173.80 18.76 166.88 24.70 C 156.91 29.39 147.03 34.30 137.29 39.46 C 134.62 40.79 131.83 41.89 129.19 43.30 C 124.43 45.30 120.21 48.28 115.65 50.64 Z" />
<path fill="#dfff9a" opacity="1.00" d=" M 132.97 28.39 C 137.86 19.58 144.49 11.72 152.14 5.18 C 151.02 9.19 149.91 13.20 148.79 17.21 C 143.54 20.87 138.26 24.75 132.97 28.39 Z" />
<path fill="#337788" opacity="1.00" d=" M 208.61 8.63 C 210.10 8.03 211.58 7.09 213.26 7.24 C 212.83 18.30 211.54 29.31 210.21 40.29 C 209.67 39.41 209.14 38.52 208.61 37.64 C 206.77 37.72 204.93 37.93 203.09 37.78 C 200.85 37.02 198.95 35.33 196.49 35.29 C 201.14 26.70 205.10 17.75 208.61 8.63 Z" />
<path fill="#dfff9a" opacity="1.00" d=" M 178.33 26.90 C 187.61 19.64 197.78 13.35 208.61 8.63 C 205.10 17.75 201.14 26.70 196.49 35.29 C 194.84 38.39 192.95 41.37 191.06 44.33 C 189.01 47.51 186.64 50.46 184.35 53.47 C 181.10 57.82 177.35 61.76 173.98 66.02 C 166.77 74.30 157.74 80.76 148.32 86.28 C 147.49 81.83 145.67 77.63 145.09 73.13 C 148.39 72.45 148.79 68.82 150.34 66.40 C 158.59 52.49 170.83 41.29 178.33 26.90 Z" />
<path fill="#276378" opacity="1.00" d=" M 121.06 13.42 L 121.79 13.68 C 125.31 19.76 127.71 26.84 126.27 33.92 C 125.92 34.34 125.22 35.18 124.87 35.59 C 123.93 34.80 122.49 34.30 122.24 32.94 C 121.14 29.18 121.08 25.20 119.83 21.48 C 119.52 21.48 118.89 21.48 118.57 21.48 L 118.00 21.51 C 119.14 18.86 120.19 16.17 121.06 13.42 Z" />
<path fill="#ffffff" opacity="1.00" d=" M 68.35 14.00 C 71.71 16.13 74.06 19.49 76.33 22.69 C 81.06 29.74 84.97 37.31 88.48 45.03 C 86.53 48.59 84.08 51.84 81.12 54.62 C 74.38 42.07 69.52 28.25 68.35 14.00 Z" />
<path fill="#114060" opacity="1.00" d=" M 118.57 21.48 C 118.89 21.48 119.52 21.48 119.83 21.48 C 121.08 25.20 121.14 29.18 122.24 32.94 C 122.49 34.30 123.93 34.80 124.87 35.59 C 122.78 37.42 121.12 39.87 118.58 41.09 C 119.28 34.58 119.72 27.97 118.57 21.48 Z" />
<path fill="#ddfd99" opacity="1.00" d=" M 105.38 57.97 C 108.12 45.35 113.22 33.44 118.00 21.51 L 118.57 21.48 C 119.72 27.97 119.28 34.58 118.58 41.09 L 118.57 41.68 C 114.19 46.75 109.85 51.89 106.35 57.62 C 106.11 57.71 105.62 57.88 105.38 57.97 Z" />
<path fill="#5089aa" opacity="1.00" d=" M 137.29 39.46 C 147.03 34.30 156.91 29.39 166.88 24.70 C 166.39 25.84 165.33 26.56 164.49 27.41 C 157.13 34.21 149.20 40.45 140.60 45.63 C 140.83 43.41 141.96 41.45 142.79 39.42 C 140.96 39.54 139.12 39.51 137.29 39.46 Z" />
<path fill="#ffffff" opacity="1.00" d=" M 141.56 67.13 C 150.72 51.28 163.89 38.00 178.33 26.90 C 170.83 41.29 158.59 52.49 150.34 66.40 C 148.79 68.82 148.39 72.45 145.09 73.13 C 144.11 71.03 142.26 69.25 141.56 67.13 Z" />
<path fill="#2e6e80" opacity="1.00" d=" M 155.79 37.78 C 158.29 36.01 160.28 33.58 162.95 32.05 C 162.80 33.98 162.47 35.92 161.74 37.72 C 156.61 43.02 151.35 48.26 147.00 54.24 C 146.05 51.63 143.91 49.87 141.80 48.21 C 146.20 44.41 151.34 41.54 155.79 37.78 Z" />
<path fill="#2c6b7e" opacity="1.00" d=" M 196.49 35.29 C 198.95 35.33 200.85 37.02 203.09 37.78 C 204.93 37.93 206.77 37.72 208.61 37.64 C 209.14 38.52 209.67 39.41 210.21 40.29 C 209.36 44.26 208.36 48.20 207.05 52.05 C 207.01 51.18 206.93 49.46 206.89 48.60 C 205.46 50.38 204.45 52.44 203.44 54.47 C 200.31 52.97 196.41 54.92 193.73 52.24 C 190.72 50.65 191.23 47.18 191.06 44.33 C 192.95 41.37 194.84 38.39 196.49 35.29 Z" />
<path fill="#3f6c97" opacity="1.00" d=" M 137.29 39.46 C 139.12 39.51 140.96 39.54 142.79 39.42 C 141.96 41.45 140.83 43.41 140.60 45.63 L 140.57 45.81 C 137.32 47.83 134.04 49.82 130.65 51.60 C 129.91 50.69 128.33 50.18 128.33 48.84 C 127.91 46.90 130.10 45.17 129.19 43.30 C 131.83 41.89 134.62 40.79 137.29 39.46 Z" />
<path fill="#253f7a" opacity="1.00" d=" M 115.65 50.64 C 120.21 48.28 124.43 45.30 129.19 43.30 C 130.10 45.17 127.91 46.90 128.33 48.84 C 128.33 50.18 129.91 50.69 130.65 51.60 L 130.77 51.70 C 123.00 56.24 114.23 58.80 106.64 63.64 L 105.09 63.71 C 108.01 58.95 111.99 54.77 115.65 50.64 Z" />
<path fill="#5d9fb8" opacity="1.00" d=" M 88.48 45.03 C 89.48 47.98 90.98 50.85 91.36 53.95 C 88.78 55.79 86.24 57.68 83.88 59.81 C 83.02 58.05 82.10 56.31 81.12 54.62 C 84.08 51.84 86.53 48.59 88.48 45.03 Z" />
<path fill="#266076" opacity="1.00" d=" M 184.35 53.47 C 186.64 50.46 189.01 47.51 191.06 44.33 C 191.23 47.18 190.72 50.65 193.73 52.24 C 196.41 54.92 200.31 52.97 203.44 54.47 C 204.45 52.44 205.46 50.38 206.89 48.60 C 206.93 49.46 207.01 51.18 207.05 52.05 C 204.37 60.55 198.39 67.92 191.10 72.93 C 188.62 73.79 186.19 74.83 183.65 75.48 C 181.45 76.23 179.29 74.08 179.30 71.93 C 178.46 66.19 182.09 61.31 184.27 56.33 C 184.78 55.40 184.81 54.44 184.35 53.47 Z" />
<path fill="#ffffff" opacity="1.00" d=" M 51.75 44.61 C 54.84 49.30 56.78 54.66 58.39 60.01 L 58.24 60.30 C 57.86 62.18 57.26 63.93 55.45 64.97 C 53.52 58.35 51.44 51.60 51.75 44.61 Z" />
<path fill="#20556d" opacity="1.00" d=" M 136.27 51.47 C 138.30 50.71 140.00 49.37 141.80 48.21 C 143.91 49.87 146.05 51.63 147.00 54.24 C 145.62 56.33 144.16 58.36 142.64 60.35 C 142.70 59.11 142.70 57.87 142.70 56.63 C 141.96 56.53 141.23 56.42 140.50 56.32 C 139.24 55.05 138.00 53.77 136.85 52.41 C 136.74 52.23 136.52 51.87 136.40 51.69 L 136.27 51.47 Z" />
<path fill="#dffe99" opacity="1.00" d=" M 129.18 55.98 C 131.24 54.20 134.17 53.37 136.40 51.69 C 136.52 51.87 136.74 52.23 136.85 52.41 C 134.38 57.18 132.34 62.88 127.56 65.79 C 128.87 62.72 129.61 59.32 129.18 55.98 Z" />
<path fill="#133e5d" opacity="1.00" d=" M 136.85 52.41 C 138.00 53.77 139.24 55.05 140.50 56.32 C 141.23 56.42 141.96 56.53 142.70 56.63 C 142.70 57.87 142.70 59.11 142.64 60.35 C 141.88 62.28 140.80 64.07 139.96 65.96 C 134.26 63.94 130.15 69.59 125.19 71.03 C 126.04 69.35 126.79 67.62 127.43 65.84 L 127.56 65.79 C 132.34 62.88 134.38 57.18 136.85 52.41 Z" />
<path fill="#123d5c" opacity="1.00" d=" M 184.35 53.47 C 184.81 54.44 184.78 55.40 184.27 56.33 C 182.09 61.31 178.46 66.19 179.30 71.93 C 179.29 74.08 181.45 76.23 183.65 75.48 C 186.19 74.83 188.62 73.79 191.10 72.93 C 185.71 78.22 178.58 81.42 172.04 85.10 C 164.25 89.58 155.31 91.19 147.19 94.90 C 147.71 92.05 147.95 89.16 148.32 86.28 C 157.74 80.76 166.77 74.30 173.98 66.02 C 177.35 61.76 181.10 57.82 184.35 53.47 Z" />
<path fill="#3c8793" opacity="1.00" d=" M 93.17 55.45 C 93.65 55.11 94.61 54.42 95.09 54.07 C 102.53 60.24 106.41 69.69 107.54 79.10 C 107.96 82.20 106.58 85.07 105.77 87.98 C 104.27 86.92 102.55 85.90 101.62 84.29 C 102.92 80.67 101.04 76.07 97.01 75.45 C 91.87 74.31 87.55 78.56 85.86 82.99 C 84.79 86.52 88.64 89.17 91.71 89.56 C 92.32 90.80 92.85 92.08 93.29 93.39 C 89.45 90.39 84.66 89.44 79.90 89.10 C 79.99 87.67 78.65 85.73 79.72 84.56 C 80.66 85.30 81.71 85.78 82.87 85.99 C 84.03 84.39 84.61 82.49 85.29 80.67 C 85.48 80.64 85.85 80.56 86.04 80.53 C 90.57 76.22 94.79 70.51 94.88 63.97 C 94.66 61.07 93.49 58.34 93.17 55.45 Z" />
<path fill="#dfff9a" opacity="1.00" d=" M 81.99 64.73 C 85.26 61.12 89.42 58.50 93.17 55.45 C 93.49 58.34 94.66 61.07 94.88 63.97 C 94.79 70.51 90.57 76.22 86.04 80.53 C 85.13 79.23 84.31 76.37 82.23 77.44 C 82.58 78.47 83.32 79.28 84.01 80.10 C 83.38 81.51 82.71 82.92 82.04 84.32 C 81.49 83.97 80.38 83.27 79.83 82.92 C 77.35 83.81 74.99 84.97 72.61 86.06 C 72.62 86.69 72.64 87.95 72.65 88.58 C 71.99 89.20 70.44 89.26 70.45 90.39 C 70.86 90.81 71.68 91.64 72.09 92.06 C 70.83 93.04 69.59 94.06 68.38 95.10 C 68.91 93.19 67.98 91.41 66.04 91.02 C 65.52 91.42 64.48 92.21 63.96 92.61 C 63.60 89.94 61.50 88.19 60.15 86.02 C 60.45 82.65 60.69 79.27 60.56 75.90 C 61.85 76.23 63.24 77.38 64.61 76.69 C 66.34 75.04 67.59 72.98 69.17 71.20 C 70.53 69.50 72.44 67.55 71.58 65.17 L 71.56 65.06 C 74.89 63.68 78.57 65.52 81.99 64.73 M 68.45 77.09 C 67.29 79.64 68.35 82.42 67.37 84.96 C 71.31 83.57 75.65 81.50 77.59 77.59 C 78.08 75.54 78.46 72.11 75.90 71.33 C 72.46 71.19 69.04 73.61 68.45 77.09 Z" />
<path fill="#38808e" opacity="1.00" d=" M 117.94 61.11 C 120.90 59.58 123.85 58.00 126.99 56.85 C 126.92 61.98 124.58 66.63 122.25 71.06 C 120.72 70.35 119.19 69.63 117.66 68.91 C 118.05 66.53 119.94 63.64 117.90 61.56 L 117.94 61.11 Z" />
<path fill="#5d9fb8" opacity="1.00" d=" M 58.24 60.30 C 58.50 60.45 59.03 60.75 59.29 60.90 C 58.10 62.89 59.47 64.94 59.33 67.01 C 59.77 69.14 58.03 70.88 58.50 73.02 C 56.60 70.85 56.60 67.58 55.45 64.97 C 57.26 63.93 57.86 62.18 58.24 60.30 Z" />
<path fill="#dfff9a" opacity="1.00" d=" M 106.29 65.68 C 110.43 64.88 114.07 62.66 117.94 61.11 L 117.90 61.56 C 116.66 68.18 113.89 74.35 109.93 79.79 C 109.51 74.93 108.21 70.15 106.29 65.68 Z" />
<path fill="#1a4a66" opacity="1.00" d=" M 117.90 61.56 C 119.94 63.64 118.05 66.53 117.66 68.91 C 117.16 70.59 116.85 72.32 116.70 74.07 C 117.63 74.79 118.69 75.21 119.88 75.32 C 116.13 77.58 113.31 81.04 109.64 83.37 C 109.60 82.16 109.70 80.97 109.93 79.79 C 113.89 74.35 116.66 68.18 117.90 61.56 Z" />
<path fill="#ffffff" opacity="1.00" d=" M 61.76 70.73 C 64.57 68.17 68.17 66.73 71.58 65.17 C 72.44 67.55 70.53 69.50 69.17 71.20 C 67.59 72.98 66.34 75.04 64.61 76.69 C 63.24 77.38 61.85 76.23 60.56 75.90 C 61.26 74.26 61.75 72.53 61.76 70.73 Z" />
<path fill="#defe9a" opacity="1.00" d=" M 133.10 70.30 C 134.68 69.54 136.35 67.71 138.23 68.67 C 140.67 70.64 141.96 73.61 143.23 76.40 C 140.57 79.78 138.59 83.63 135.95 87.03 C 131.74 91.96 127.00 96.41 122.16 100.72 C 120.94 100.02 120.02 98.93 119.05 97.94 C 120.93 93.62 115.46 93.89 112.84 94.49 C 111.07 92.72 109.21 91.03 107.29 89.42 C 108.12 88.12 108.13 85.89 109.98 85.53 C 112.41 86.22 114.51 84.54 116.56 83.51 C 120.18 81.36 124.35 79.00 125.61 74.67 L 125.65 74.57 C 128.07 73.04 130.43 71.37 133.10 70.30 Z" />
<path fill="#276177" opacity="1.00" d=" M 116.70 74.07 C 116.85 72.32 117.16 70.59 117.66 68.91 C 119.19 69.63 120.72 70.35 122.25 71.06 C 121.67 72.58 121.33 74.35 119.88 75.32 C 118.69 75.21 117.63 74.79 116.70 74.07 Z" />
<path fill="#000000" opacity="1.00" d=" M 68.45 77.09 C 69.04 73.61 72.46 71.19 75.90 71.33 C 78.46 72.11 78.08 75.54 77.59 77.59 C 75.65 81.50 71.31 83.57 67.37 84.96 C 68.35 82.42 67.29 79.64 68.45 77.09 M 70.54 75.43 C 69.46 77.72 69.14 80.25 68.64 82.70 C 71.32 82.33 73.57 80.43 75.47 78.60 C 76.71 76.98 76.93 74.81 76.19 72.93 C 74.07 72.32 71.65 73.59 70.54 75.43 Z" />
<path fill="#2d5c8b" opacity="1.00" d=" M 45.17 75.14 C 46.24 72.68 48.42 71.11 51.18 71.80 C 51.86 73.42 52.57 75.03 53.58 76.48 C 49.49 79.43 45.42 82.42 41.29 85.31 C 40.10 86.07 39.47 87.36 38.69 88.47 C 38.08 89.27 37.46 90.06 36.82 90.84 C 34.11 93.90 34.07 98.25 33.08 102.03 C 32.15 110.39 29.87 118.55 29.26 126.94 C 27.19 128.61 25.10 130.24 23.08 131.97 L 22.64 131.35 C 24.23 117.39 26.53 103.21 33.32 90.70 L 33.41 90.69 C 33.73 90.63 34.38 90.52 34.70 90.47 C 39.18 84.97 44.83 80.25 48.09 73.87 C 47.36 74.19 45.90 74.82 45.17 75.14 Z" />
<path fill="#23716e" opacity="1.00" d=" M 70.54 75.43 C 71.65 73.59 74.07 72.32 76.19 72.93 C 76.93 74.81 76.71 76.98 75.47 78.60 C 73.84 77.53 72.19 76.48 70.54 75.43 Z" />
<path fill="#abe1ec" opacity="1.00" d=" M 45.17 75.14 C 45.90 74.82 47.36 74.19 48.09 73.87 C 44.83 80.25 39.18 84.97 34.70 90.47 C 34.38 90.52 33.73 90.63 33.41 90.69 C 36.10 84.70 40.35 79.54 45.17 75.14 Z" />
<path fill="#ffffff" opacity="1.00" d=" M 109.98 85.53 C 115.08 81.76 120.22 78.02 125.61 74.67 C 124.35 79.00 120.18 81.36 116.56 83.51 C 114.51 84.54 112.41 86.22 109.98 85.53 Z" />
<path fill="#15205d" opacity="1.00" d=" M 53.58 76.48 C 55.20 76.25 56.81 77.52 58.37 77.96 C 58.37 78.85 58.37 80.61 58.37 81.49 C 56.23 81.82 54.39 80.12 52.26 80.29 C 51.15 80.83 50.67 82.08 49.88 82.96 C 48.97 82.74 48.07 82.51 47.17 82.26 C 45.69 83.84 45.18 86.04 44.07 87.87 C 42.27 88.04 40.48 88.25 38.69 88.47 C 39.47 87.36 40.10 86.07 41.29 85.31 C 45.42 82.42 49.49 79.43 53.58 76.48 Z" />
<path fill="#3dc97b" opacity="1.00" d=" M 68.64 82.70 C 69.14 80.25 69.46 77.72 70.54 75.43 C 72.19 76.48 73.84 77.53 75.47 78.60 C 73.57 80.43 71.32 82.33 68.64 82.70 Z" />
<path fill="#3c8793" opacity="1.00" d=" M 143.23 76.40 C 146.18 83.47 145.99 91.72 142.58 98.59 C 140.67 101.28 139.50 104.40 137.84 107.24 C 133.23 105.79 128.40 102.30 123.46 104.64 C 123.28 103.26 122.82 101.94 122.16 100.72 C 127.00 96.41 131.74 91.96 135.95 87.03 C 138.59 83.63 140.57 79.78 143.23 76.40 Z" />
<path fill="#ffffff" opacity="1.00" d=" M 88.95 81.01 C 90.69 78.98 93.27 77.12 96.09 77.83 C 93.83 79.39 91.71 81.15 89.68 82.99 C 89.50 82.49 89.14 81.51 88.95 81.01 Z" />
<path fill="#2d5c8b" opacity="1.00" d=" M 96.09 77.83 L 96.83 77.51 C 101.19 79.06 99.25 84.36 101.70 87.28 C 103.66 89.90 106.37 91.79 108.65 94.10 C 107.23 95.15 105.97 96.78 104.07 96.86 C 100.87 97.10 98.86 94.08 97.47 91.65 C 96.25 89.72 97.52 87.52 97.67 85.46 L 97.01 85.16 C 96.56 85.10 95.67 84.97 95.22 84.91 C 93.09 84.74 91.43 86.04 89.91 87.33 C 87.18 86.40 86.45 82.48 88.95 81.01 C 89.14 81.51 89.50 82.49 89.68 82.99 C 91.71 81.15 93.83 79.39 96.09 77.83 Z" />
<path fill="#dfff9a" opacity="1.00" d=" M 186.84 85.66 C 198.04 83.12 209.32 80.36 220.82 79.74 C 219.14 81.73 217.22 83.55 215.07 85.03 C 201.35 88.04 187.84 92.00 174.05 94.72 C 167.81 95.86 161.73 97.73 155.49 98.89 C 151.60 99.69 147.71 100.56 143.74 100.84 C 144.64 99.73 145.20 98.34 146.25 97.36 C 148.91 96.28 151.76 95.83 154.58 95.40 C 162.93 92.71 171.46 90.65 179.91 88.30 C 182.28 87.62 184.71 86.97 186.84 85.66 Z" />
<path fill="#15205c" opacity="1.00" d=" M 89.91 87.33 C 91.43 86.04 93.09 84.74 95.22 84.91 C 92.23 86.94 96.68 87.78 97.01 85.16 L 97.67 85.46 C 97.52 87.52 96.25 89.72 97.47 91.65 C 98.86 94.08 100.87 97.10 104.07 96.86 C 105.97 96.78 107.23 95.15 108.65 94.10 C 109.45 94.87 110.23 95.65 111.03 96.42 C 113.08 96.33 115.14 96.09 117.18 96.38 C 112.86 95.83 110.13 99.64 106.76 101.62 C 105.59 100.11 103.54 101.70 102.01 101.82 C 98.50 97.78 96.67 92.62 93.82 88.13 C 92.51 87.85 91.21 87.58 89.91 87.33 Z" />
<path fill="#0a0f28" opacity="1.00" d=" M 95.22 84.91 C 95.67 84.97 96.56 85.10 97.01 85.16 C 96.68 87.78 92.23 86.94 95.22 84.91 Z" />
<path fill="#164361" opacity="1.00" d=" M 174.05 94.72 C 187.84 92.00 201.35 88.04 215.07 85.03 C 206.22 93.44 195.36 99.50 183.98 103.81 C 181.19 102.18 177.93 102.11 174.84 101.56 C 176.61 101.07 179.21 101.52 180.16 99.56 C 177.79 99.37 174.70 100.84 172.84 98.98 C 173.71 98.15 174.59 97.32 175.47 96.49 C 175.00 95.90 174.52 95.31 174.05 94.72 Z" />
<path fill="#14133b" opacity="1.00" d=" M 38.69 88.47 C 40.48 88.25 42.27 88.04 44.07 87.87 C 42.66 92.52 41.40 97.22 40.38 101.98 C 40.17 101.54 39.75 100.66 39.54 100.22 C 38.01 100.65 36.51 101.18 35.00 101.70 C 34.45 97.92 37.01 94.62 36.82 90.84 C 37.46 90.06 38.08 89.27 38.69 88.47 Z" />
<path fill="#151c52" opacity="1.00" d=" M 33.08 102.03 C 34.07 98.25 34.11 93.90 36.82 90.84 C 37.01 94.62 34.45 97.92 35.00 101.70 C 36.51 101.18 38.01 100.65 39.54 100.22 C 39.75 100.66 40.17 101.54 40.38 101.98 C 39.30 107.89 38.67 113.94 38.84 119.96 C 35.79 122.46 32.39 124.54 29.26 126.94 C 29.87 118.55 32.15 110.39 33.08 102.03 Z" />
<path fill="#d0f195" opacity="1.00" d=" M 59.50 91.75 C 62.69 89.63 61.71 94.70 59.07 93.15 C 59.18 92.80 59.39 92.10 59.50 91.75 Z" />
<path fill="#1e546d" opacity="1.00" d=" M 155.49 98.89 C 161.73 97.73 167.81 95.86 174.05 94.72 C 174.52 95.31 175.00 95.90 175.47 96.49 C 174.59 97.32 173.71 98.15 172.84 98.98 C 174.70 100.84 177.79 99.37 180.16 99.56 C 179.21 101.52 176.61 101.07 174.84 101.56 C 170.38 101.14 165.91 101.25 161.44 101.16 C 159.41 100.54 157.44 99.72 155.49 98.89 Z" />
<path fill="#dfff9a" opacity="1.00" d=" M 89.17 98.45 C 90.39 97.80 91.56 97.02 92.34 95.84 C 93.30 97.40 94.26 98.97 95.16 100.57 C 94.46 100.78 93.07 101.21 92.37 101.42 C 91.25 100.49 90.07 99.61 89.17 98.45 Z" />
<path fill="#3d8a96" opacity="1.00" d=" M 92.34 95.84 L 94.01 95.26 C 95.90 96.96 96.62 99.80 98.32 101.80 C 99.89 103.36 97.24 103.79 96.27 104.25 C 94.53 104.63 93.00 106.47 91.22 106.06 C 91.77 104.56 92.47 103.06 92.37 101.42 C 93.07 101.21 94.46 100.78 95.16 100.57 C 94.26 98.97 93.30 97.40 92.34 95.84 Z" />
<path fill="#2d5c8b" opacity="1.00" d=" M 106.76 101.62 C 110.13 99.64 112.86 95.83 117.18 96.38 C 116.80 96.99 116.04 98.22 115.66 98.83 C 107.24 102.69 99.34 107.61 91.02 111.68 C 90.23 111.29 89.48 110.83 88.77 110.29 C 94.21 106.56 101.25 105.47 106.76 101.62 Z" />
<path fill="#15205c" opacity="1.00" d=" M 91.02 111.68 C 99.34 107.61 107.24 102.69 115.66 98.83 C 116.99 99.95 118.88 100.95 119.18 102.83 C 112.56 106.72 105.23 109.11 98.24 112.22 C 95.65 113.15 93.26 114.70 90.55 115.23 C 90.40 113.61 89.21 111.82 87.65 113.42 C 85.58 114.66 83.99 116.71 81.68 117.52 C 78.02 118.24 74.17 117.92 70.66 116.68 C 70.60 116.40 70.48 115.84 70.43 115.56 C 72.04 113.84 73.23 111.46 75.46 110.48 C 78.89 109.76 81.68 112.69 85.01 112.94 C 85.45 112.02 85.75 111.06 85.90 110.05 C 86.61 110.11 88.05 110.23 88.77 110.29 C 89.48 110.83 90.23 111.29 91.02 111.68 Z" />
<path fill="#2e7084" opacity="1.00" d=" M 143.74 100.84 C 147.71 100.56 151.60 99.69 155.49 98.89 C 157.44 99.72 159.41 100.54 161.44 101.16 C 154.45 101.32 147.51 102.76 141.20 105.82 C 141.94 104.11 142.63 102.36 143.74 100.84 Z" />
<path fill="#ddfd99" opacity="1.00" d=" M 141.17 108.77 C 152.94 102.96 166.57 103.27 179.29 104.82 C 181.17 106.88 180.51 110.17 180.47 112.76 C 169.70 112.71 158.93 112.52 148.17 112.70 C 145.71 111.97 143.13 110.36 141.17 108.77 Z" />
<path fill="#113a5a" opacity="1.00" d=" M 102.11 113.55 C 108.57 110.61 115.26 107.76 121.84 105.01 C 121.89 105.63 121.99 106.85 122.04 107.47 C 116.02 114.35 110.35 121.55 103.93 128.06 C 100.86 125.94 98.26 123.19 96.20 120.09 C 98.25 117.98 100.33 115.89 102.11 113.55 Z" />
<path fill="#d0f195" opacity="1.00" d=" M 126.47 106.73 C 128.70 105.35 131.08 107.17 133.29 107.73 C 143.26 112.08 152.55 118.04 160.41 125.59 C 156.59 125.34 152.87 126.50 149.06 126.24 C 147.85 125.58 146.56 124.10 145.13 125.09 C 142.84 122.99 139.71 122.09 137.36 120.02 C 134.28 117.34 131.10 114.62 128.98 111.08 C 128.12 109.64 127.29 108.19 126.47 106.73 Z" />
<path fill="#418388" opacity="1.00" d=" M 124.51 107.79 C 125.00 107.53 125.98 106.99 126.47 106.73 C 127.29 108.19 128.12 109.64 128.98 111.08 C 128.21 110.99 126.67 110.83 125.91 110.74 L 125.55 110.71 C 125.29 109.98 124.77 108.52 124.51 107.79 Z" />
<path fill="#3c8793" opacity="1.00" d=" M 103.93 128.06 C 110.35 121.55 116.02 114.35 122.04 107.47 C 123.00 111.24 124.26 115.03 126.64 118.18 C 120.65 122.19 114.20 125.48 107.79 128.76 C 106.44 129.75 105.08 128.81 103.93 128.06 Z" />
<path fill="#14143d" opacity="1.00" d=" M 66.09 109.59 C 68.24 108.60 70.78 108.49 73.07 108.94 C 71.85 111.02 69.18 112.86 70.43 115.56 C 70.48 115.84 70.60 116.40 70.66 116.68 C 74.17 117.92 78.02 118.24 81.68 117.52 C 83.99 116.71 85.58 114.66 87.65 113.42 C 89.21 111.82 90.40 113.61 90.55 115.23 C 88.40 116.53 86.16 117.67 84.06 119.06 C 82.20 121.05 82.67 124.15 81.16 126.32 C 78.45 125.72 75.75 124.91 72.96 124.79 C 70.46 124.84 69.39 127.38 67.58 128.64 C 62.61 128.44 57.48 127.93 52.70 129.68 C 51.52 129.89 50.37 130.84 49.16 130.51 C 47.69 129.68 46.25 128.79 44.77 127.96 C 51.35 124.87 57.87 121.63 64.31 118.26 C 67.51 116.86 67.70 113.09 67.82 110.07 C 67.39 109.95 66.53 109.71 66.09 109.59 Z" />
<path fill="#2d5c8b" opacity="1.00" d=" M 54.70 113.75 C 58.14 111.66 62.28 110.87 66.09 109.59 C 66.53 109.71 67.39 109.95 67.82 110.07 C 67.70 113.09 67.51 116.86 64.31 118.26 C 57.87 121.63 51.35 124.87 44.77 127.96 C 33.88 133.05 24.14 140.30 14.48 147.40 C 12.00 148.94 10.31 151.84 7.37 152.56 C 12.34 142.91 20.74 135.73 29.13 129.14 L 29.63 129.22 C 31.89 129.53 33.62 127.34 35.53 126.44 C 41.74 121.93 49.23 119.23 54.70 113.75 Z" />
<path fill="#266177" opacity="1.00" d=" M 125.91 110.74 C 126.67 110.83 128.21 110.99 128.98 111.08 C 131.10 114.62 134.28 117.34 137.36 120.02 C 136.44 120.18 135.52 120.35 134.61 120.52 C 134.90 121.85 135.14 123.21 134.42 124.46 C 130.96 120.40 127.65 115.82 125.91 110.74 Z" />
<path fill="#3c8793" opacity="1.00" d=" M 148.17 112.70 C 158.93 112.52 169.70 112.71 180.47 112.76 C 179.94 116.80 179.48 121.41 176.40 124.39 C 171.95 126.79 166.87 123.93 162.12 124.33 C 158.13 119.71 152.65 116.65 148.17 112.70 Z" />
<path fill="#ffffff" opacity="1.00" d=" M 29.63 129.22 C 36.99 122.68 45.64 117.58 54.70 113.75 C 49.23 119.23 41.74 121.93 35.53 126.44 C 33.62 127.34 31.89 129.53 29.63 129.22 Z" />
<path fill="#3e8c99" opacity="1.00" d=" M 93.67 116.92 C 96.50 115.84 99.27 114.60 102.11 113.55 C 100.33 115.89 98.25 117.98 96.20 120.09 C 95.32 119.27 94.45 118.45 93.60 117.61 L 93.67 116.92 Z" />
<path fill="#123d5c" opacity="1.00" d=" M 85.45 120.35 C 88.16 119.14 90.94 118.07 93.67 116.92 L 93.60 117.61 C 92.76 121.23 96.41 123.76 97.59 126.86 C 95.73 129.99 92.32 132.00 88.68 132.05 C 87.29 129.81 86.10 127.44 84.59 125.28 L 84.53 125.19 C 84.81 123.57 85.13 121.96 85.45 120.35 Z" />
<path fill="#184663" opacity="1.00" d=" M 134.61 120.52 C 135.52 120.35 136.44 120.18 137.36 120.02 C 139.71 122.09 142.84 122.99 145.13 125.09 C 146.56 124.10 147.85 125.58 149.06 126.24 C 152.87 126.50 156.59 125.34 160.41 125.59 C 164.19 129.97 168.02 134.89 168.74 140.81 C 159.86 138.29 150.81 135.89 142.62 131.51 C 139.39 129.87 136.73 127.38 134.34 124.71 L 134.42 124.46 C 135.14 123.21 134.90 121.85 134.61 120.52 Z" />
<path fill="#3e8c99" opacity="1.00" d=" M 84.59 125.28 C 86.10 127.44 87.29 129.81 88.68 132.05 L 88.80 132.25 C 82.76 132.58 76.18 132.33 71.24 136.43 C 71.24 135.80 71.24 134.54 71.25 133.91 C 73.66 132.00 76.26 130.36 78.75 128.56 C 80.16 129.01 81.60 129.37 83.08 129.57 C 83.94 128.28 84.44 126.85 84.59 125.28 Z" />
<path fill="#5d9fb7" opacity="1.00" d=" M 176.02 127.76 C 177.18 126.97 178.29 126.12 179.35 125.19 C 182.15 127.86 183.62 131.48 185.60 134.72 C 185.36 135.63 184.88 137.44 184.63 138.35 C 182.01 134.63 179.56 130.69 176.02 127.76 Z" />
<path fill="#568b7e" opacity="1.00" d=" M 72.29 129.14 C 71.66 126.90 75.44 126.20 76.16 128.17 C 74.97 128.76 73.67 129.46 72.29 129.14 Z" />
<path fill="#151c52" opacity="1.00" d=" M 14.48 147.40 C 24.14 140.30 33.88 133.05 44.77 127.96 C 46.25 128.79 47.69 129.68 49.16 130.51 C 48.54 132.15 47.97 133.81 47.43 135.48 C 31.04 139.99 15.58 148.86 4.66 162.04 L 3.48 162.58 C 4.20 159.09 5.77 155.86 7.18 152.61 L 7.37 152.56 C 10.31 151.84 12.00 148.94 14.48 147.40 Z" />
<path fill="#dfff9a" opacity="1.00" d=" M 76.16 128.17 C 76.81 128.27 78.11 128.46 78.75 128.56 C 76.26 130.36 73.66 132.00 71.25 133.91 C 71.20 132.31 70.95 130.32 72.29 129.14 C 73.67 129.46 74.97 128.76 76.16 128.17 Z" />
<path fill="#133e5d" opacity="1.00" d=" M 99.39 128.26 C 100.66 129.20 101.90 130.16 103.15 131.13 C 101.25 134.89 97.96 137.85 95.01 140.83 C 92.75 139.19 90.99 136.98 89.19 134.88 C 93.29 134.01 97.38 132.16 99.39 128.26 Z" />
<path fill="#ffffff" opacity="1.00" d=" M 185.60 134.72 C 188.10 140.20 191.48 145.76 191.65 151.90 C 189.58 147.24 187.19 142.75 184.63 138.35 C 184.88 137.44 185.36 135.63 185.60 134.72 Z" />
<path fill="#5d9fb8" opacity="1.00" d=" M 65.38 141.24 C 66.59 139.89 67.06 137.23 69.03 137.00 C 69.19 137.57 69.53 138.71 69.70 139.29 C 70.42 139.72 71.16 140.15 71.90 140.58 C 70.10 142.95 68.35 145.37 66.37 147.59 C 66.05 145.50 65.75 143.40 65.40 141.31 L 65.38 141.24 Z" />
<path fill="#5d9fb8" opacity="1.00" d=" M 153.15 138.89 C 156.33 139.51 159.41 140.57 162.53 141.44 C 163.27 142.82 164.00 144.21 164.72 145.60 C 162.73 146.20 160.67 146.78 158.57 146.44 C 156.88 143.84 155.04 141.35 153.15 138.89 Z" />
<path fill="#5d9fb8" opacity="1.00" d=" M 90.07 139.59 C 90.81 140.47 92.59 141.02 92.50 142.35 C 91.32 144.44 90.35 146.63 89.56 148.90 C 89.29 148.83 88.76 148.70 88.49 148.63 C 88.95 145.61 89.31 142.56 90.07 139.59 Z" />
<path fill="#151a4d" opacity="1.00" d=" M 25.61 146.90 C 28.41 144.64 31.82 143.30 35.08 141.82 C 35.42 142.38 36.10 143.51 36.44 144.07 C 33.20 147.93 33.54 153.31 32.63 157.99 C 32.22 157.78 31.41 157.35 31.00 157.13 L 30.91 156.47 C 30.57 153.63 30.31 150.77 29.97 147.93 C 28.41 148.39 27.12 149.35 26.47 150.89 C 26.22 149.55 25.92 148.22 25.61 146.90 Z" />
<path fill="#ffffff" opacity="1.00" d=" M 60.33 155.98 C 60.84 150.77 62.79 145.81 65.40 141.31 C 65.75 143.40 66.05 145.50 66.37 147.59 C 64.13 150.23 62.61 153.45 60.33 155.98 Z" />
<path fill="#ffffff" opacity="1.00" d=" M 158.57 146.44 C 160.67 146.78 162.73 146.20 164.72 145.60 C 166.68 150.16 168.71 154.88 168.74 159.93 C 168.42 159.88 167.77 159.77 167.44 159.71 C 164.52 155.26 161.19 151.09 158.57 146.44 Z" />
<path fill="#23416e" opacity="1.00" d=" M 26.47 150.89 C 27.12 149.35 28.41 148.39 29.97 147.93 C 30.31 150.77 30.57 153.63 30.91 156.47 C 28.77 155.27 27.70 152.90 26.47 150.89 Z" />
<path fill="#000000" opacity="0.53" d=" M 0.00 164.97 L 0.95 164.07 C 0.98 165.76 0.86 167.55 1.75 169.08 C 1.27 169.76 0.68 170.35 0.00 170.85 L 0.00 164.97 Z" />
</svg>
