<?xml version="1.0" encoding="UTF-8" ?>
<!DOCTYPE svg PUBLIC "-//W3C//DTD SVG 1.1//EN" "http://www.w3.org/Graphics/SVG/1.1/DTD/svg11.dtd">
<svg width="229pt" height="251pt" viewBox="0 0 229 251" version="1.1" xmlns="http://www.w3.org/2000/svg">
<path fill="#000000" opacity="1.00" d=" M 220.56 1.49 C 223.29 0.89 226.58 -0.77 228.99 1.51 C 225.97 8.51 219.61 13.16 214.00 17.98 C 198.73 30.23 182.09 40.66 166.59 52.60 C 159.09 59.90 152.32 67.93 145.45 75.82 C 159.45 71.17 174.28 69.61 188.97 69.27 C 191.93 69.35 195.04 69.03 197.88 70.04 C 199.34 70.60 199.19 72.37 198.33 73.38 C 191.57 81.22 182.89 87.30 173.34 91.25 C 160.14 96.97 146.28 101.01 132.33 104.42 C 144.82 105.64 157.39 105.74 169.91 106.51 C 171.69 106.39 173.21 108.00 172.48 109.77 C 171.06 114.45 166.04 116.48 161.81 117.88 C 153.37 120.20 144.52 121.10 135.78 120.59 C 137.19 122.94 139.10 125.14 139.68 127.89 C 139.87 129.41 138.33 130.19 137.02 130.14 C 134.28 129.91 131.69 128.92 129.07 128.15 C 134.02 135.50 138.68 143.30 140.89 151.95 C 141.55 153.91 140.97 155.89 140.41 157.78 C 128.98 155.33 118.44 149.55 109.44 142.19 C 110.26 148.07 111.03 154.04 110.41 159.98 C 110.42 161.57 109.19 162.67 108.26 163.80 C 96.08 154.78 84.97 144.03 76.67 131.28 C 76.07 134.32 78.38 139.38 74.96 141.15 C 67.33 139.98 63.02 132.50 59.16 126.57 C 57.68 130.21 55.85 133.96 56.30 138.02 C 56.37 144.97 60.25 151.63 58.43 158.61 C 56.95 164.05 54.29 169.09 51.30 173.84 C 54.43 173.13 57.64 171.33 60.91 172.24 C 60.92 173.32 60.67 174.33 60.17 175.28 C 56.23 183.30 51.26 191.12 50.09 200.15 C 50.77 201.08 51.45 202.02 52.11 202.97 C 50.34 204.33 48.71 205.86 47.40 207.67 C 48.91 209.21 51.26 210.49 51.31 212.95 C 50.39 213.91 49.37 214.76 48.38 215.65 C 48.87 217.33 50.50 219.33 49.10 221.02 C 47.07 223.34 44.34 224.88 41.89 226.72 C 41.21 226.63 39.86 226.46 39.18 226.37 C 37.71 227.85 36.31 229.42 34.60 230.63 C 32.40 230.52 30.25 229.68 28.36 228.59 C 26.82 226.41 26.07 223.70 24.09 221.81 C 22.02 219.32 19.00 216.06 20.61 212.60 C 22.96 209.21 27.20 208.05 30.67 206.17 C 30.63 204.83 30.70 203.49 30.90 202.17 C 33.08 202.00 35.06 202.99 37.00 203.80 C 40.94 198.22 43.38 191.75 44.56 185.04 C 41.70 185.91 38.95 187.33 35.96 187.64 C 34.27 187.27 32.56 186.99 30.92 186.41 C 28.83 178.75 32.07 171.00 33.17 163.43 C 30.74 166.34 28.43 169.36 26.00 172.28 C 26.67 173.15 27.34 174.03 28.00 174.90 C 27.44 177.48 28.99 179.72 29.75 182.06 C 29.22 186.17 25.03 188.28 21.57 189.62 C 17.66 190.44 13.89 191.86 9.96 192.52 C 6.43 189.47 4.29 184.85 2.51 180.57 C 1.45 178.53 3.14 177.06 4.54 175.88 C 4.82 174.35 5.12 172.83 5.44 171.31 C 7.95 171.17 10.46 171.16 12.97 171.14 C 17.73 167.67 22.05 163.51 24.79 158.23 C 17.99 158.59 10.89 159.52 4.29 157.40 C 3.22 155.30 2.50 152.36 4.60 150.64 C 12.76 142.37 23.46 137.05 34.47 133.69 C 37.92 132.95 39.29 129.40 40.80 126.64 C 34.57 130.78 27.37 132.89 20.11 134.32 C 14.98 135.29 10.17 137.40 5.12 138.60 C 3.07 139.10 2.86 136.51 3.36 135.13 C 5.54 128.02 10.33 122.07 15.36 116.74 C 11.22 116.38 6.54 116.99 3.12 114.12 C 7.52 108.87 14.11 106.24 20.29 103.71 C 12.97 99.41 5.53 94.87 0.00 88.30 L 0.00 87.40 C 6.09 85.68 12.31 88.57 18.24 89.82 C 15.79 86.16 13.56 82.32 12.02 78.17 C 10.69 74.51 9.14 70.49 10.65 66.63 C 15.76 68.68 19.72 72.61 23.61 76.36 C 20.78 69.24 19.35 61.60 19.37 53.94 C 19.35 40.02 21.15 26.11 24.44 12.59 C 24.82 10.79 25.92 9.30 27.06 7.90 C 28.91 11.66 28.04 15.91 28.49 19.91 C 29.20 28.77 32.17 37.23 33.71 45.93 C 33.28 56.63 34.10 67.80 39.01 77.51 C 39.42 73.69 39.52 69.82 40.22 66.03 C 40.30 64.80 40.87 63.87 41.94 63.26 C 45.40 67.47 44.70 73.34 45.25 78.42 C 50.32 76.14 56.59 75.42 61.44 78.63 C 67.73 82.39 69.49 90.94 67.32 97.55 C 66.24 99.23 64.47 100.39 62.94 101.64 C 69.31 100.42 75.71 98.00 80.58 93.59 C 84.49 89.64 87.65 84.57 88.37 78.99 C 88.98 75.03 85.64 72.22 83.67 69.23 C 86.16 59.82 87.27 49.78 92.32 41.28 C 93.33 39.31 95.09 37.93 97.25 37.41 C 97.84 43.34 97.01 49.26 96.32 55.14 C 101.42 45.54 106.64 35.84 113.70 27.51 C 115.06 26.37 116.73 23.83 118.65 25.31 C 119.73 27.27 118.66 29.49 118.27 31.50 C 115.47 40.74 111.08 49.42 105.99 57.59 C 111.79 53.47 117.63 49.42 123.72 45.73 C 134.51 39.45 144.97 32.53 156.27 27.14 C 177.03 17.04 198.52 8.37 220.56 1.49 M 221.96 4.26 C 198.57 11.69 175.86 21.17 153.76 31.80 C 143.56 38.13 132.25 42.49 122.27 49.20 C 116.43 53.11 110.31 56.60 104.54 60.64 C 102.70 61.95 100.77 63.13 98.75 64.16 C 98.79 63.97 98.86 63.59 98.90 63.40 C 100.36 61.91 101.83 60.38 102.74 58.48 L 103.26 58.42 C 103.72 57.40 104.20 56.40 104.70 55.41 L 105.24 55.28 C 109.33 46.02 115.64 37.42 117.05 27.14 C 113.68 30.16 111.19 33.98 108.71 37.72 C 104.08 44.93 99.85 52.38 95.88 59.96 C 94.87 61.72 93.91 63.52 92.53 65.02 C 93.82 56.76 95.80 48.54 95.62 40.12 C 89.28 48.48 88.61 59.37 85.62 69.10 C 89.00 71.54 91.41 75.60 90.52 79.88 C 89.00 87.95 83.72 95.38 76.43 99.25 C 77.62 102.66 73.91 105.06 72.44 107.68 C 75.14 107.03 78.02 106.76 80.48 105.37 C 80.20 107.28 79.92 109.18 79.62 111.09 C 82.93 107.84 86.04 104.38 89.05 100.86 C 89.32 101.22 89.87 101.94 90.14 102.30 L 89.30 102.64 L 89.26 103.40 C 85.35 106.59 82.90 111.68 78.07 113.59 C 78.10 112.56 78.16 110.49 78.19 109.45 C 73.70 112.55 69.12 115.50 64.52 118.43 C 62.40 119.59 61.60 121.95 60.53 123.96 C 63.53 129.77 67.44 135.50 73.33 138.69 L 74.50 138.56 C 74.77 134.77 74.09 130.70 75.80 127.16 C 77.56 130.24 79.84 132.98 82.25 135.57 C 89.78 144.65 98.27 152.96 107.64 160.14 C 107.66 159.42 107.70 158.71 107.74 157.99 C 107.93 151.85 107.65 145.60 106.32 139.59 C 104.67 137.61 102.67 135.94 100.97 134.01 C 98.06 131.14 96.35 127.37 93.76 124.28 C 94.19 124.28 95.05 124.29 95.49 124.30 C 99.45 128.43 102.94 133.02 107.36 136.70 C 115.28 144.75 125.38 150.48 136.03 154.11 C 136.75 154.32 138.18 154.76 138.90 154.98 C 138.07 149.04 135.51 143.55 132.75 138.29 C 129.63 132.59 126.22 126.95 121.87 122.09 C 119.95 119.39 117.69 116.98 115.34 114.67 C 115.61 114.43 116.14 113.94 116.41 113.70 C 120.49 116.89 123.67 121.04 126.92 125.02 C 130.25 125.86 133.56 126.75 136.90 127.53 C 135.00 124.43 133.78 121.00 132.01 117.84 C 141.01 118.56 150.08 117.76 158.92 116.05 C 163.47 114.98 168.96 113.56 170.79 108.69 C 156.20 107.71 141.58 107.52 126.99 106.70 C 125.06 106.69 123.06 106.29 121.17 106.87 C 120.10 106.91 117.98 106.99 116.91 107.04 C 119.94 104.98 123.49 103.99 126.97 103.02 C 142.08 98.89 157.32 94.93 171.71 88.65 C 180.64 84.82 189.38 79.63 195.45 71.90 C 195.12 72.01 194.47 72.24 194.15 72.36 C 182.68 71.72 171.18 72.99 159.87 74.85 C 152.15 76.35 143.68 77.60 138.04 83.66 C 138.25 81.28 139.96 79.49 141.11 77.53 L 141.58 77.38 C 145.74 71.91 150.65 67.02 154.87 61.64 C 157.83 63.09 156.24 57.51 154.87 60.90 C 152.41 62.77 149.88 64.58 147.13 66.01 C 148.34 64.03 150.02 62.43 151.66 60.82 C 171.00 44.52 192.79 31.42 212.59 15.71 C 217.17 11.83 222.05 8.07 225.50 3.08 C 224.29 3.40 223.11 3.79 221.96 4.26 M 26.02 16.07 C 24.19 25.11 22.76 34.33 22.65 43.57 C 21.75 51.45 21.92 59.52 23.64 67.29 C 24.49 71.30 26.07 75.13 26.60 79.21 C 26.19 79.34 25.39 79.61 24.99 79.74 C 20.38 76.67 16.70 72.36 11.87 69.57 L 12.62 71.16 C 13.51 77.78 17.13 83.66 20.86 89.05 C 22.45 91.04 23.69 93.45 25.82 94.89 C 26.05 95.66 26.51 97.20 26.74 97.96 C 24.97 96.82 23.26 95.57 21.63 94.22 L 21.53 94.23 C 18.23 90.53 12.43 91.16 7.94 90.04 C 7.09 89.87 5.39 89.53 4.53 89.36 C 10.41 95.83 18.78 99.11 25.35 104.70 C 24.98 104.85 24.24 105.16 23.86 105.31 L 23.18 104.36 C 22.60 104.69 21.43 105.34 20.84 105.67 C 16.86 107.38 12.93 109.25 9.30 111.62 C 8.37 112.23 7.48 112.89 6.62 113.59 C 12.63 114.12 18.78 113.81 24.66 115.41 L 24.47 116.38 C 22.34 116.53 20.08 116.42 18.04 117.09 C 14.67 120.27 11.88 124.05 9.52 128.04 C 9.43 128.07 9.23 128.13 9.13 128.16 C 8.04 130.56 6.94 132.95 5.96 135.40 C 14.99 132.44 24.32 130.60 33.48 128.10 C 36.13 126.53 38.97 125.24 41.38 123.28 C 37.31 122.14 33.74 117.64 35.51 113.38 C 37.25 109.81 42.45 110.71 43.97 107.03 C 42.13 105.75 40.31 104.42 38.37 103.29 C 37.72 101.45 37.21 99.54 36.25 97.83 C 36.23 96.89 36.19 95.00 36.17 94.06 C 35.07 93.59 33.95 93.18 32.82 92.82 C 29.93 91.41 26.94 90.21 24.07 88.78 C 24.36 88.17 24.95 86.95 25.24 86.34 L 25.81 86.97 C 29.53 86.86 33.25 86.77 36.97 86.71 C 38.52 84.86 40.10 83.04 41.72 81.26 C 42.87 80.53 43.35 79.48 43.18 78.13 C 43.05 74.35 42.63 70.58 41.92 66.87 C 40.97 71.51 40.62 76.27 40.72 81.00 C 40.37 81.04 39.68 81.11 39.33 81.14 C 35.65 77.18 34.10 71.99 32.83 66.87 C 32.10 61.97 31.27 57.04 31.56 52.07 C 31.63 49.44 32.24 46.75 31.38 44.18 C 29.03 34.93 26.24 25.68 26.02 16.07 M 41.85 83.96 C 40.62 85.92 41.01 88.35 40.91 90.54 L 41.25 90.43 L 41.69 92.39 C 42.11 93.49 42.55 94.59 43.00 95.69 C 43.83 97.34 44.68 98.99 45.49 100.66 C 47.14 99.06 48.65 96.71 51.29 97.07 C 51.20 96.61 51.02 95.68 50.93 95.21 C 50.72 93.49 50.48 91.77 50.37 90.04 C 51.60 91.24 51.97 92.96 52.48 94.54 C 52.55 96.87 52.58 99.19 52.58 101.52 L 52.07 101.61 C 51.91 103.08 51.76 104.56 51.61 106.03 C 55.66 103.50 59.06 99.95 60.59 95.34 C 60.49 94.38 60.31 92.44 60.21 91.48 C 62.07 93.16 62.42 95.58 62.47 97.97 C 63.52 97.48 64.57 96.98 65.62 96.49 C 65.86 93.33 65.88 90.16 65.57 87.01 C 64.41 84.79 63.22 82.43 61.09 80.98 C 55.25 76.57 46.30 78.45 41.85 83.96 M 28.81 88.75 C 32.29 91.31 36.56 92.44 40.56 93.92 C 40.15 91.85 39.68 89.79 39.26 87.73 C 35.81 88.44 32.31 88.60 28.81 88.75 M 37.70 94.83 C 38.15 97.29 38.41 99.96 40.06 101.98 C 41.93 104.33 44.98 105.15 47.55 106.46 C 47.50 105.38 47.38 103.21 47.32 102.13 C 46.59 102.30 45.85 102.47 45.12 102.64 C 43.21 99.49 42.03 95.15 37.70 94.83 M 47.16 100.99 C 48.27 101.30 49.38 101.59 50.51 101.86 C 50.71 101.09 51.10 99.55 51.30 98.78 C 49.37 98.06 48.41 100.05 47.16 100.99 M 62.35 103.67 L 62.61 104.43 C 61.18 104.44 59.76 104.45 58.33 104.47 L 58.82 105.75 L 57.88 105.43 C 56.95 106.45 56.35 108.49 54.70 108.42 C 54.62 107.77 54.47 106.47 54.40 105.82 C 52.76 106.67 51.00 108.22 49.23 106.75 C 47.95 107.33 46.60 107.59 45.17 107.51 C 45.46 108.27 45.74 109.04 46.00 109.81 C 42.84 110.64 39.81 111.97 37.24 114.03 C 36.45 117.80 39.32 120.92 42.79 121.83 C 42.52 123.78 41.76 125.77 42.32 127.75 L 42.11 127.96 C 40.49 131.30 38.43 134.48 37.71 138.19 C 38.27 138.49 39.39 139.07 39.96 139.37 C 41.02 137.77 42.12 136.16 43.68 134.99 C 44.16 136.82 44.58 138.66 44.97 140.50 C 46.10 139.70 47.22 138.89 48.34 138.06 C 50.19 136.89 52.07 135.77 53.98 134.69 C 55.49 129.23 57.33 123.57 61.17 119.27 C 65.90 114.88 71.65 111.79 76.78 107.92 C 74.49 108.51 72.24 109.18 69.97 109.83 C 69.51 109.60 68.58 109.14 68.12 108.91 C 71.67 107.31 73.43 103.50 75.76 100.60 C 71.13 100.93 66.93 103.15 62.35 103.67 M 28.96 138.63 L 28.01 138.35 C 26.85 139.22 25.50 139.76 24.14 140.23 C 16.80 142.66 10.39 147.39 5.10 152.95 C 5.20 153.72 5.41 155.25 5.51 156.01 C 9.06 156.20 12.62 156.74 16.17 156.36 C 21.70 156.63 27.13 155.38 32.52 154.37 C 32.39 153.66 32.14 152.24 32.01 151.53 C 34.18 152.95 36.39 154.30 38.39 155.96 C 36.12 158.82 35.95 162.65 35.00 166.05 C 33.90 172.11 32.28 178.15 32.23 184.35 C 35.30 184.16 37.63 181.82 40.03 180.14 C 48.90 175.13 54.11 165.59 56.32 155.94 C 56.85 149.49 53.81 143.39 53.30 136.99 C 51.36 137.95 49.48 139.06 47.75 140.36 C 46.62 140.92 45.49 141.45 44.34 141.96 C 43.75 140.46 43.26 138.93 42.89 137.37 C 41.97 138.67 41.03 139.96 40.09 141.25 C 38.88 140.67 37.67 140.10 36.45 139.56 C 36.54 138.10 36.61 136.64 36.66 135.18 C 33.99 136.09 31.33 137.07 28.96 138.63 M 26.45 158.24 C 25.50 159.87 24.83 161.64 24.13 163.38 C 23.22 164.46 22.33 165.55 21.45 166.66 C 20.82 167.18 20.21 167.74 19.62 168.32 C 17.57 170.06 15.52 171.80 13.46 173.53 C 12.50 174.20 11.54 174.87 10.58 175.55 C 9.01 176.92 7.14 177.84 5.23 178.63 C 5.30 179.73 5.38 180.82 5.47 181.91 C 6.91 184.74 8.57 187.44 10.26 190.12 C 13.24 189.64 16.16 188.83 18.81 187.36 C 16.80 185.88 14.95 184.20 13.19 182.44 C 14.29 180.99 15.77 179.92 17.37 179.10 C 20.32 178.59 23.01 177.22 25.39 175.44 C 24.76 174.29 24.13 173.12 23.51 171.96 C 26.48 168.44 29.08 164.59 32.56 161.54 C 34.45 160.06 34.94 157.64 35.71 155.51 C 32.67 156.57 29.33 156.82 26.45 158.24 M 7.24 173.36 C 5.41 174.70 7.77 176.63 8.95 174.87 C 10.89 173.57 8.47 171.75 7.24 173.36 M 46.61 178.61 C 43.82 181.01 40.66 182.91 37.65 185.02 C 40.70 184.38 43.62 183.26 46.53 182.14 C 46.62 183.65 46.66 185.16 46.76 186.68 C 46.08 189.30 45.39 191.91 44.63 194.51 C 45.59 194.53 47.50 194.57 48.46 194.60 C 49.42 192.39 50.33 190.16 51.19 187.91 C 53.38 183.42 55.61 178.94 57.78 174.45 C 53.96 175.45 49.68 175.84 46.61 178.61 M 22.72 179.28 C 20.44 180.29 18.14 181.26 15.84 182.21 C 16.90 183.07 17.42 185.12 19.03 184.96 C 19.45 185.98 19.89 187.00 20.34 188.01 C 22.92 186.71 25.91 185.62 27.45 183.00 C 27.84 181.14 26.53 179.58 25.81 177.99 C 24.77 178.41 23.74 178.83 22.72 179.28 M 44.35 195.33 C 43.40 197.38 42.47 199.46 41.65 201.57 C 41.48 201.73 41.13 202.05 40.96 202.21 C 39.49 204.80 37.35 206.89 35.27 208.99 C 34.92 208.69 34.22 208.08 33.87 207.77 C 34.71 206.67 35.57 205.58 36.42 204.49 C 35.30 204.41 34.17 204.36 33.05 204.34 C 33.12 206.03 33.20 207.73 33.29 209.43 C 37.17 210.36 37.41 214.58 38.16 217.78 C 41.87 216.10 45.58 214.42 49.24 212.62 C 47.99 211.16 46.34 209.88 45.67 208.05 C 44.97 205.62 47.19 204.02 48.51 202.35 C 48.35 201.86 48.04 200.88 47.88 200.39 C 47.81 198.67 47.76 196.95 47.69 195.23 C 46.58 195.25 45.47 195.28 44.35 195.33 M 24.64 211.84 L 23.92 211.49 C 23.31 212.60 22.17 213.52 22.07 214.86 C 22.58 216.45 23.63 217.77 24.48 219.19 C 24.94 216.92 25.72 214.73 27.47 213.14 C 28.94 212.38 30.42 211.63 31.88 210.85 C 31.73 210.16 31.43 208.77 31.28 208.07 C 29.01 209.22 26.78 210.46 24.64 211.84 M 32.68 211.53 L 33.29 212.87 C 31.93 213.49 30.61 214.22 29.22 214.77 C 25.78 216.14 27.70 220.21 28.05 222.82 C 28.64 224.29 29.19 225.77 29.76 227.25 C 31.25 227.69 32.74 228.14 34.23 228.59 C 35.16 227.54 36.08 226.49 37.00 225.43 C 36.20 223.38 35.82 221.23 35.57 219.06 C 35.75 218.63 36.12 217.78 36.31 217.35 C 35.41 215.22 35.54 212.02 32.68 211.53 M 37.85 220.10 C 38.08 222.05 39.02 223.70 40.81 224.59 C 42.83 222.61 49.15 220.47 45.91 217.07 C 43.02 217.43 40.44 218.87 37.85 220.10 Z" />
<path fill="#5a9ab5" opacity="1.00" d=" M 221.96 4.26 C 223.11 3.79 224.29 3.40 225.50 3.08 C 222.05 8.07 217.17 11.83 212.59 15.71 C 192.79 31.42 171.00 44.52 151.66 60.82 C 136.77 67.33 122.35 74.90 107.40 81.31 C 106.46 84.24 105.54 87.20 104.09 89.93 C 102.84 86.80 102.87 82.95 105.56 80.56 C 109.12 77.43 113.98 76.43 118.15 74.35 C 122.91 72.48 127.77 70.82 132.27 68.35 C 136.23 66.37 139.97 64.00 143.97 62.12 C 146.89 60.82 149.78 59.43 152.50 57.75 C 150.55 54.47 149.77 50.71 149.11 47.00 C 174.60 35.00 199.82 21.86 221.96 4.26 Z" />
<path fill="#ffffff" opacity="1.00" d=" M 153.76 31.80 C 175.86 21.17 198.57 11.69 221.96 4.26 C 199.82 21.86 174.60 35.00 149.11 47.00 C 145.52 48.69 141.87 50.21 138.29 51.91 C 134.81 53.57 131.25 55.07 127.81 56.81 C 124.40 58.62 120.86 60.16 117.47 62.00 C 113.97 64.15 109.92 65.51 106.93 68.40 C 105.93 65.88 105.11 63.29 104.54 60.64 C 110.31 56.60 116.43 53.11 122.27 49.20 C 132.25 42.49 143.56 38.13 153.76 31.80 Z" />
<path fill="#ffffff" opacity="1.00" d=" M 26.02 16.07 C 26.24 25.68 29.03 34.93 31.38 44.18 C 32.24 46.75 31.63 49.44 31.56 52.07 C 31.27 57.04 32.10 61.97 32.83 66.87 C 30.86 64.84 28.60 63.14 26.28 61.55 C 24.91 55.59 23.74 49.58 22.65 43.57 C 22.76 34.33 24.19 25.11 26.02 16.07 Z" />
<path fill="#ffffff" opacity="1.00" d=" M 108.71 37.72 C 111.19 33.98 113.68 30.16 117.05 27.14 C 115.64 37.42 109.33 46.02 105.24 55.28 L 104.70 55.41 C 104.20 56.40 103.72 57.40 103.26 58.42 L 102.74 58.48 C 101.83 60.38 100.36 61.91 98.90 63.40 C 98.86 63.59 98.79 63.97 98.75 64.16 C 98.42 67.28 96.60 69.87 94.63 72.20 C 94.51 77.21 94.97 82.20 95.15 87.20 C 93.73 91.75 90.66 95.53 87.85 99.29 C 85.83 101.79 83.25 103.77 80.48 105.37 C 78.02 106.76 75.14 107.03 72.44 107.68 C 73.91 105.06 77.62 102.66 76.43 99.25 C 83.72 95.38 89.00 87.95 90.52 79.88 C 91.41 75.60 89.00 71.54 85.62 69.10 C 88.61 59.37 89.28 48.48 95.62 40.12 C 95.80 48.54 93.82 56.76 92.53 65.02 C 93.91 63.52 94.87 61.72 95.88 59.96 C 99.85 52.38 104.08 44.93 108.71 37.72 Z" />
<path fill="#5796b2" opacity="1.00" d=" M 23.64 67.29 C 21.92 59.52 21.75 51.45 22.65 43.57 C 23.74 49.58 24.91 55.59 26.28 61.55 C 27.98 68.31 28.31 75.78 32.23 81.73 C 34.13 84.62 37.56 83.49 39.33 81.14 C 39.68 81.11 40.37 81.04 40.72 81.00 L 41.72 81.26 C 40.10 83.04 38.52 84.86 36.97 86.71 C 33.25 86.77 29.53 86.86 25.81 86.97 L 25.24 86.34 C 20.78 81.50 16.63 76.38 12.62 71.16 L 11.87 69.57 C 16.70 72.36 20.38 76.67 24.99 79.74 C 25.39 79.61 26.19 79.34 26.60 79.21 C 26.07 75.13 24.49 71.30 23.64 67.29 Z" />
<path fill="#5088a9" opacity="1.00" d=" M 138.29 51.91 C 141.87 50.21 145.52 48.69 149.11 47.00 C 149.77 50.71 150.55 54.47 152.50 57.75 C 149.78 59.43 146.89 60.82 143.97 62.12 C 140.39 59.83 139.91 55.48 138.29 51.91 Z" />
<path fill="#477aa0" opacity="1.00" d=" M 127.81 56.81 C 131.25 55.07 134.81 53.57 138.29 51.91 C 139.91 55.48 140.39 59.83 143.97 62.12 C 139.97 64.00 136.23 66.37 132.27 68.35 C 129.16 65.28 128.15 61.02 127.81 56.81 Z" />
<path fill="#3d6794" opacity="1.00" d=" M 117.47 62.00 C 120.86 60.16 124.40 58.62 127.81 56.81 C 128.15 61.02 129.16 65.28 132.27 68.35 C 127.77 70.82 122.91 72.48 118.15 74.35 C 116.82 72.83 114.66 71.59 114.46 69.40 C 115.36 66.89 117.09 64.71 117.47 62.00 Z" />
<path fill="#5a99b4" opacity="1.00" d=" M 98.75 64.16 C 100.77 63.13 102.70 61.95 104.54 60.64 C 105.11 63.29 105.93 65.88 106.93 68.40 C 106.46 68.93 106.00 69.47 105.55 70.02 C 103.02 70.29 100.19 70.39 98.33 72.38 C 96.89 77.23 96.63 82.35 95.15 87.20 C 94.97 82.20 94.51 77.21 94.63 72.20 C 96.60 69.87 98.42 67.28 98.75 64.16 Z" />
<path fill="#111111" opacity="0.76" d=" M 154.87 60.90 C 156.24 57.51 157.83 63.09 154.87 61.64 L 154.87 60.90 Z" />
<path fill="#f6f7fa" opacity="1.00" d=" M 107.40 81.31 C 122.35 74.90 136.77 67.33 151.66 60.82 C 150.02 62.43 148.34 64.03 147.13 66.01 C 149.88 64.58 152.41 62.77 154.87 60.90 L 154.87 61.64 C 150.65 67.02 145.74 71.91 141.58 77.38 L 141.11 77.53 C 132.82 80.21 124.84 83.74 116.66 86.74 C 111.93 88.39 107.43 90.84 102.43 91.61 C 102.85 91.19 103.68 90.35 104.09 89.93 C 105.54 87.20 106.46 84.24 107.40 81.31 Z" />
<path fill="#ebedf2" opacity="1.00" d=" M 26.28 61.55 C 28.60 63.14 30.86 64.84 32.83 66.87 C 34.10 71.99 35.65 77.18 39.33 81.14 C 37.56 83.49 34.13 84.62 32.23 81.73 C 28.31 75.78 27.98 68.31 26.28 61.55 Z" />
<path fill="#2b4980" opacity="1.00" d=" M 106.93 68.40 C 109.92 65.51 113.97 64.15 117.47 62.00 C 117.09 64.71 115.36 66.89 114.46 69.40 C 114.66 71.59 116.82 72.83 118.15 74.35 C 113.98 76.43 109.12 77.43 105.56 80.56 C 102.87 82.95 102.84 86.80 104.09 89.93 C 103.68 90.35 102.85 91.19 102.43 91.61 L 101.78 91.79 C 97.24 93.23 91.65 95.92 92.00 101.54 C 91.37 101.78 90.75 102.03 90.14 102.30 C 89.87 101.94 89.32 101.22 89.05 100.86 C 88.75 100.47 88.15 99.68 87.85 99.29 C 90.66 95.53 93.73 91.75 95.15 87.20 C 96.63 82.35 96.89 77.23 98.33 72.38 C 100.19 70.39 103.02 70.29 105.55 70.02 C 106.00 69.47 106.46 68.93 106.93 68.40 Z" />
<path fill="#f7f8fa" opacity="1.00" d=" M 41.92 66.87 C 42.63 70.58 43.05 74.35 43.18 78.13 C 43.35 79.48 42.87 80.53 41.72 81.26 L 40.72 81.00 C 40.62 76.27 40.97 71.51 41.92 66.87 Z" />
<path fill="#26417b" opacity="1.00" d=" M 12.62 71.16 C 16.63 76.38 20.78 81.50 25.24 86.34 C 24.95 86.95 24.36 88.17 24.07 88.78 C 26.94 90.21 29.93 91.41 32.82 92.82 L 31.52 92.98 C 33.09 94.60 34.72 96.17 36.25 97.83 C 37.21 99.54 37.72 101.45 38.37 103.29 L 37.31 102.65 C 34.49 101.08 32.30 98.67 29.65 96.87 C 28.38 96.19 27.09 95.57 25.82 94.89 C 23.69 93.45 22.45 91.04 20.86 89.05 C 17.13 83.66 13.51 77.78 12.62 71.16 Z" />
<path fill="#fefefe" opacity="1.00" d=" M 159.87 74.85 C 171.18 72.99 182.68 71.72 194.15 72.36 C 177.37 78.90 160.05 84.09 143.64 91.57 C 141.08 92.83 137.21 93.56 135.51 90.61 C 134.16 87.94 135.81 85.16 138.04 83.66 C 143.68 77.60 152.15 76.35 159.87 74.85 Z" />
<path fill="#5a99b4" opacity="1.00" d=" M 194.15 72.36 C 194.47 72.24 195.12 72.01 195.45 71.90 C 189.38 79.63 180.64 84.82 171.71 88.65 C 157.32 94.93 142.08 98.89 126.97 103.02 C 123.49 103.99 119.94 104.98 116.91 107.04 C 117.98 106.99 120.10 106.91 121.17 106.87 C 118.21 107.93 115.56 109.64 113.03 111.46 C 114.15 112.21 115.30 112.93 116.41 113.70 C 116.14 113.94 115.61 114.43 115.34 114.67 C 117.69 116.98 119.95 119.39 121.87 122.09 C 117.95 118.68 114.36 114.89 110.31 111.64 C 108.06 109.64 103.92 109.49 102.31 112.36 C 100.48 114.94 101.71 118.26 103.66 120.37 C 108.13 125.56 113.11 130.29 117.93 135.14 C 124.18 141.25 129.87 147.91 136.03 154.11 C 125.38 150.48 115.28 144.75 107.36 136.70 C 102.94 133.02 99.45 128.43 95.49 124.30 C 95.05 124.29 94.19 124.28 93.76 124.28 C 92.04 124.29 89.92 124.12 88.87 125.79 C 87.43 127.79 88.50 130.34 89.77 132.12 C 95.58 140.87 102.06 149.16 107.74 157.99 C 107.70 158.71 107.66 159.42 107.64 160.14 C 98.27 152.96 89.78 144.65 82.25 135.57 C 84.68 131.50 82.41 126.64 84.04 122.37 C 87.46 116.64 89.14 110.05 89.26 103.40 L 89.30 102.64 L 90.14 102.30 C 90.75 102.03 91.37 101.78 92.00 101.54 C 93.87 101.21 95.90 101.44 97.67 100.67 C 100.20 98.96 102.01 96.44 104.00 94.17 C 103.26 93.38 102.52 92.59 101.78 91.79 L 102.43 91.61 C 107.43 90.84 111.93 88.39 116.66 86.74 C 124.84 83.74 132.82 80.21 141.11 77.53 C 139.96 79.49 138.25 81.28 138.04 83.66 C 135.81 85.16 134.16 87.94 135.51 90.61 C 137.21 93.56 141.08 92.83 143.64 91.57 C 160.05 84.09 177.37 78.90 194.15 72.36 Z" />
<path fill="#dfff9a" opacity="1.00" d=" M 41.85 83.96 C 46.30 78.45 55.25 76.57 61.09 80.98 C 63.22 82.43 64.41 84.79 65.57 87.01 C 63.13 88.75 60.63 90.42 58.03 91.92 C 56.20 92.83 54.35 93.71 52.48 94.54 C 51.97 92.96 51.60 91.24 50.37 90.04 C 50.48 91.77 50.72 93.49 50.93 95.21 C 48.31 95.61 45.65 95.79 43.00 95.69 C 42.55 94.59 42.11 93.49 41.69 92.39 C 46.16 90.99 51.16 89.65 53.82 85.42 C 49.60 87.02 45.55 89.05 41.25 90.43 L 40.91 90.54 C 41.01 88.35 40.62 85.92 41.85 83.96 Z" />
<path fill="#fcfff1" opacity="1.00" d=" M 41.25 90.43 C 45.55 89.05 49.60 87.02 53.82 85.42 C 51.16 89.65 46.16 90.99 41.69 92.39 L 41.25 90.43 Z" />
<path fill="#225a71" opacity="1.00" d=" M 65.57 87.01 C 65.88 90.16 65.86 93.33 65.62 96.49 C 64.57 96.98 63.52 97.48 62.47 97.97 C 62.42 95.58 62.07 93.16 60.21 91.48 C 60.31 92.44 60.49 94.38 60.59 95.34 C 59.06 99.95 55.66 103.50 51.61 106.03 C 51.76 104.56 51.91 103.08 52.07 101.61 L 52.58 101.52 C 52.85 101.46 53.41 101.34 53.68 101.29 C 55.10 98.15 56.17 94.84 58.03 91.92 C 60.63 90.42 63.13 88.75 65.57 87.01 Z" />
<path fill="#2f5f90" opacity="1.00" d=" M 28.81 88.75 C 32.31 88.60 35.81 88.44 39.26 87.73 C 39.68 89.79 40.15 91.85 40.56 93.92 C 36.56 92.44 32.29 91.31 28.81 88.75 Z" />
<path fill="#416e99" opacity="1.00" d=" M 4.53 89.36 C 5.39 89.53 7.09 89.87 7.94 90.04 C 11.87 92.86 16.49 95.56 21.53 94.23 L 21.63 94.22 C 23.26 95.57 24.97 96.82 26.74 97.96 C 26.51 97.20 26.05 95.66 25.82 94.89 C 27.09 95.57 28.38 96.19 29.65 96.87 C 28.92 99.88 27.84 102.79 26.20 105.43 C 25.99 105.24 25.56 104.88 25.35 104.70 C 18.78 99.11 10.41 95.83 4.53 89.36 Z" />
<path fill="#c0c8dd" opacity="1.00" d=" M 7.94 90.04 C 12.43 91.16 18.23 90.53 21.53 94.23 C 16.49 95.56 11.87 92.86 7.94 90.04 Z" />
<path fill="#44749c" opacity="1.00" d=" M 92.00 101.54 C 91.65 95.92 97.24 93.23 101.78 91.79 C 102.52 92.59 103.26 93.38 104.00 94.17 C 102.01 96.44 100.20 98.96 97.67 100.67 C 95.90 101.44 93.87 101.21 92.00 101.54 Z" />
<path fill="#438a91" opacity="1.00" d=" M 52.48 94.54 C 54.35 93.71 56.20 92.83 58.03 91.92 C 56.17 94.84 55.10 98.15 53.68 101.29 C 53.41 101.34 52.85 101.46 52.58 101.52 C 52.58 99.19 52.55 96.87 52.48 94.54 Z" />
<path fill="#4d83a1" opacity="1.00" d=" M 31.52 92.98 L 32.82 92.82 C 33.95 93.18 35.07 93.59 36.17 94.06 C 36.19 95.00 36.23 96.89 36.25 97.83 C 34.72 96.17 33.09 94.60 31.52 92.98 Z" />
<path fill="#3c8894" opacity="1.00" d=" M 37.70 94.83 C 42.03 95.15 43.21 99.49 45.12 102.64 C 45.85 102.47 46.59 102.30 47.32 102.13 C 47.38 103.21 47.50 105.38 47.55 106.46 C 44.98 105.15 41.93 104.33 40.06 101.98 C 38.41 99.96 38.15 97.29 37.70 94.83 Z" />
<path fill="#428489" opacity="1.00" d=" M 43.00 95.69 C 45.65 95.79 48.31 95.61 50.93 95.21 C 51.02 95.68 51.20 96.61 51.29 97.07 C 48.65 96.71 47.14 99.06 45.49 100.66 C 44.68 98.99 43.83 97.34 43.00 95.69 Z" />
<path fill="#365c8d" opacity="1.00" d=" M 29.65 96.87 C 32.30 98.67 34.49 101.08 37.31 102.65 C 37.13 104.55 38.86 107.47 36.68 108.58 C 32.95 110.09 28.81 108.17 26.20 105.43 C 27.84 102.79 28.92 99.88 29.65 96.87 Z" />
<path fill="#f0ffc7" opacity="1.00" d=" M 47.16 100.99 C 48.41 100.05 49.37 98.06 51.30 98.78 C 51.10 99.55 50.71 101.09 50.51 101.86 C 49.38 101.59 48.27 101.30 47.16 100.99 Z" />
<path fill="#436c94" opacity="1.00" d=" M 80.48 105.37 C 83.25 103.77 85.83 101.79 87.85 99.29 C 88.15 99.68 88.75 100.47 89.05 100.86 C 86.04 104.38 82.93 107.84 79.62 111.09 C 79.92 109.18 80.20 107.28 80.48 105.37 Z" />
<path fill="#f0ffc7" opacity="1.00" d=" M 62.35 103.67 C 66.93 103.15 71.13 100.93 75.76 100.60 C 73.43 103.50 71.67 107.31 68.12 108.91 C 65.35 110.09 62.49 111.06 59.67 112.13 L 60.11 109.87 C 59.01 110.85 57.66 111.73 57.41 113.30 C 55.05 117.36 49.47 115.98 45.65 115.64 C 46.13 114.90 46.63 114.18 47.17 113.47 C 49.68 115.65 52.30 113.58 53.40 111.08 C 52.08 111.16 50.75 111.22 49.44 111.40 C 48.47 111.53 47.51 111.66 46.54 111.79 C 44.95 109.42 42.46 112.90 45.38 113.34 C 45.09 113.88 44.52 114.98 44.23 115.52 C 41.89 115.05 39.57 114.52 37.24 114.03 C 39.81 111.97 42.84 110.64 46.00 109.81 C 45.74 109.04 45.46 108.27 45.17 107.51 C 46.60 107.59 47.95 107.33 49.23 106.75 C 51.00 108.22 52.76 106.67 54.40 105.82 C 54.47 106.47 54.62 107.77 54.70 108.42 C 56.35 108.49 56.95 106.45 57.88 105.43 L 58.82 105.75 L 58.33 104.47 C 59.76 104.45 61.18 104.44 62.61 104.43 L 62.35 103.67 Z" />
<path fill="#2b4980" opacity="1.00" d=" M 37.31 102.65 L 38.37 103.29 C 40.31 104.42 42.13 105.75 43.97 107.03 C 42.45 110.71 37.25 109.81 35.51 113.38 C 33.74 117.64 37.31 122.14 41.38 123.28 C 38.97 125.24 36.13 126.53 33.48 128.10 C 31.04 125.76 28.07 124.10 24.86 123.08 C 27.63 121.43 29.56 118.81 31.30 116.16 C 28.63 112.68 26.38 108.90 23.86 105.31 C 24.24 105.16 24.98 104.85 25.35 104.70 C 25.56 104.88 25.99 105.24 26.20 105.43 C 28.81 108.17 32.95 110.09 36.68 108.58 C 38.86 107.47 37.13 104.55 37.31 102.65 Z" />
<path fill="#2e4e84" opacity="1.00" d=" M 78.07 113.59 C 82.90 111.68 85.35 106.59 89.26 103.40 C 89.14 110.05 87.46 116.64 84.04 122.37 C 83.08 121.69 82.12 121.02 81.15 120.37 C 78.88 118.86 76.09 117.35 73.33 118.49 C 70.99 120.15 70.66 123.36 70.95 125.99 C 71.48 130.27 72.72 134.42 73.33 138.69 C 67.44 135.50 63.53 129.77 60.53 123.96 C 61.60 121.95 62.40 119.59 64.52 118.43 C 69.12 115.50 73.70 112.55 78.19 109.45 C 78.16 110.49 78.10 112.56 78.07 113.59 Z" />
<path fill="#5d9fb8" opacity="1.00" d=" M 20.84 105.67 C 21.43 105.34 22.60 104.69 23.18 104.36 L 23.86 105.31 C 26.38 108.90 28.63 112.68 31.30 116.16 C 29.56 118.81 27.63 121.43 24.86 123.08 C 21.90 124.54 18.68 125.30 15.47 126.00 C 19.09 123.54 24.56 121.62 24.47 116.38 L 24.66 115.41 C 18.78 113.81 12.63 114.12 6.62 113.59 C 7.48 112.89 8.37 112.23 9.30 111.62 C 14.23 111.04 19.51 111.17 23.77 108.20 C 22.82 107.33 21.84 106.48 20.84 105.67 Z" />
<path fill="#ffffff" opacity="1.00" d=" M 9.30 111.62 C 12.93 109.25 16.86 107.38 20.84 105.67 C 21.84 106.48 22.82 107.33 23.77 108.20 C 19.51 111.17 14.23 111.04 9.30 111.62 Z" />
<path fill="#5d9eb7" opacity="1.00" d=" M 121.17 106.87 C 123.06 106.29 125.06 106.69 126.99 106.70 C 141.58 107.52 156.20 107.71 170.79 108.69 C 168.96 113.56 163.47 114.98 158.92 116.05 C 150.08 117.76 141.01 118.56 132.01 117.84 C 133.78 121.00 135.00 124.43 136.90 127.53 C 133.56 126.75 130.25 125.86 126.92 125.02 C 123.67 121.04 120.49 116.89 116.41 113.70 C 115.30 112.93 114.15 112.21 113.03 111.46 C 115.56 109.64 118.21 107.93 121.17 106.87 Z" />
<path fill="#5d9b8d" opacity="1.00" d=" M 59.67 112.13 C 62.49 111.06 65.35 110.09 68.12 108.91 C 68.58 109.14 69.51 109.60 69.97 109.83 C 72.24 109.18 74.49 108.51 76.78 107.92 C 71.65 111.79 65.90 114.88 61.17 119.27 C 57.33 123.57 55.49 129.23 53.98 134.69 C 52.07 135.77 50.19 136.89 48.34 138.06 C 48.94 133.84 52.62 128.68 48.98 124.97 C 47.57 123.16 44.97 123.66 42.98 123.13 C 42.43 124.54 43.92 126.74 42.32 127.75 C 41.76 125.77 42.52 123.78 42.79 121.83 C 39.32 120.92 36.45 117.80 37.24 114.03 C 39.57 114.52 41.89 115.05 44.23 115.52 C 42.67 122.24 51.66 126.65 56.55 122.47 C 59.72 119.97 59.08 115.67 59.67 112.13 Z" />
<path fill="#f7f8fa" opacity="1.00" d=" M 102.31 112.36 C 103.92 109.49 108.06 109.64 110.31 111.64 C 114.36 114.89 117.95 118.68 121.87 122.09 C 126.22 126.95 129.63 132.59 132.75 138.29 C 135.51 143.55 138.07 149.04 138.90 154.98 C 138.18 154.76 136.75 154.32 136.03 154.11 C 129.87 147.91 124.18 141.25 117.93 135.14 C 113.11 130.29 108.13 125.56 103.66 120.37 C 101.71 118.26 100.48 114.94 102.31 112.36 Z" />
<path fill="#f9faf7" opacity="1.00" d=" M 45.38 113.34 C 42.46 112.90 44.95 109.42 46.54 111.79 C 46.25 112.17 45.67 112.95 45.38 113.34 Z" />
<path fill="#000000" opacity="1.00" d=" M 46.54 111.79 C 47.51 111.66 48.47 111.53 49.44 111.40 C 48.87 111.92 47.73 112.96 47.17 113.47 C 46.63 114.18 46.13 114.90 45.65 115.64 C 45.09 119.12 47.44 122.42 51.08 122.50 C 56.08 123.51 59.49 117.51 57.41 113.30 C 57.66 111.73 59.01 110.85 60.11 109.87 L 59.67 112.13 C 59.08 115.67 59.72 119.97 56.55 122.47 C 51.66 126.65 42.67 122.24 44.23 115.52 C 44.52 114.98 45.09 113.88 45.38 113.34 C 45.67 112.95 46.25 112.17 46.54 111.79 Z" />
<path fill="#fcfff4" opacity="1.00" d=" M 49.44 111.40 C 50.75 111.22 52.08 111.16 53.40 111.08 C 52.30 113.58 49.68 115.65 47.17 113.47 C 47.73 112.96 48.87 111.92 49.44 111.40 Z" />
<path fill="#5d9b8d" opacity="1.00" d=" M 57.41 113.30 C 59.49 117.51 56.08 123.51 51.08 122.50 C 47.44 122.42 45.09 119.12 45.65 115.64 C 49.47 115.98 55.05 117.36 57.41 113.30 Z" />
<path fill="#ffffff" opacity="1.00" d=" M 9.52 128.04 C 11.88 124.05 14.67 120.27 18.04 117.09 C 20.08 116.42 22.34 116.53 24.47 116.38 C 24.56 121.62 19.09 123.54 15.47 126.00 C 13.49 126.68 11.51 127.38 9.52 128.04 Z" />
<path fill="#3b6492" opacity="1.00" d=" M 73.33 118.49 C 76.09 117.35 78.88 118.86 81.15 120.37 C 79.31 122.58 77.44 124.78 75.80 127.16 C 74.09 130.70 74.77 134.77 74.50 138.56 L 73.33 138.69 C 72.72 134.42 71.48 130.27 70.95 125.99 C 70.66 123.36 70.99 120.15 73.33 118.49 Z" />
<path fill="#43739b" opacity="1.00" d=" M 75.80 127.16 C 77.44 124.78 79.31 122.58 81.15 120.37 C 82.12 121.02 83.08 121.69 84.04 122.37 C 82.41 126.64 84.68 131.50 82.25 135.57 C 79.84 132.98 77.56 130.24 75.80 127.16 Z" />
<path fill="#34588a" opacity="1.00" d=" M 15.47 126.00 C 18.68 125.30 21.90 124.54 24.86 123.08 C 28.07 124.10 31.04 125.76 33.48 128.10 C 24.32 130.60 14.99 132.44 5.96 135.40 C 6.94 132.95 8.04 130.56 9.13 128.16 C 9.23 128.13 9.43 128.07 9.52 128.04 C 11.51 127.38 13.49 126.68 15.47 126.00 Z" />
<path fill="#f0ffc7" opacity="1.00" d=" M 42.98 123.13 C 44.97 123.66 47.57 123.16 48.98 124.97 C 52.62 128.68 48.94 133.84 48.34 138.06 C 47.22 138.89 46.10 139.70 44.97 140.50 C 44.58 138.66 44.16 136.82 43.68 134.99 C 42.12 136.16 41.02 137.77 39.96 139.37 C 39.39 139.07 38.27 138.49 37.71 138.19 C 38.43 134.48 40.49 131.30 42.11 127.96 L 42.32 127.75 C 43.92 126.74 42.43 124.54 42.98 123.13 Z" />
<path fill="#f4f5f8" opacity="1.00" d=" M 88.87 125.79 C 89.92 124.12 92.04 124.29 93.76 124.28 C 96.35 127.37 98.06 131.14 100.97 134.01 C 102.67 135.94 104.67 137.61 106.32 139.59 C 107.65 145.60 107.93 151.85 107.74 157.99 C 102.06 149.16 95.58 140.87 89.77 132.12 C 88.50 130.34 87.43 127.79 88.87 125.79 Z" />
<path fill="#ffffff" opacity="1.00" d=" M 28.96 138.63 C 31.33 137.07 33.99 136.09 36.66 135.18 C 36.61 136.64 36.54 138.10 36.45 139.56 C 37.67 140.10 38.88 140.67 40.09 141.25 C 41.03 139.96 41.97 138.67 42.89 137.37 C 43.26 138.93 43.75 140.46 44.34 141.96 C 45.49 141.45 46.62 140.92 47.75 140.36 C 51.80 153.93 48.57 168.97 40.03 180.14 C 37.63 181.82 35.30 184.16 32.23 184.35 C 32.28 178.15 33.90 172.11 35.00 166.05 C 35.95 162.65 36.12 158.82 38.39 155.96 C 36.39 154.30 34.18 152.95 32.01 151.53 C 28.95 151.45 25.85 151.39 22.83 151.96 C 20.35 152.96 18.39 154.90 16.17 156.36 C 12.62 156.74 9.06 156.20 5.51 156.01 C 5.41 155.25 5.20 153.72 5.10 152.95 C 10.39 147.39 16.80 142.66 24.14 140.23 C 25.50 139.76 26.85 139.22 28.01 138.35 L 28.96 138.63 Z" />
<path fill="#5d9fb8" opacity="1.00" d=" M 47.75 140.36 C 49.48 139.06 51.36 137.95 53.30 136.99 C 53.81 143.39 56.85 149.49 56.32 155.94 C 54.11 165.59 48.90 175.13 40.03 180.14 C 48.57 168.97 51.80 153.93 47.75 140.36 Z" />
<path fill="#5d9fb8" opacity="1.00" d=" M 16.17 156.36 C 18.39 154.90 20.35 152.96 22.83 151.96 C 25.85 151.39 28.95 151.45 32.01 151.53 C 32.14 152.24 32.39 153.66 32.52 154.37 C 27.13 155.38 21.70 156.63 16.17 156.36 Z" />
<path fill="#123351" opacity="1.00" d=" M 26.45 158.24 C 29.33 156.82 32.67 156.57 35.71 155.51 C 34.94 157.64 34.45 160.06 32.56 161.54 C 29.08 164.59 26.48 168.44 23.51 171.96 C 24.13 173.12 24.76 174.29 25.39 175.44 C 23.01 177.22 20.32 178.59 17.37 179.10 C 16.39 176.02 13.40 175.60 10.58 175.55 C 11.54 174.87 12.50 174.20 13.46 173.53 C 14.81 174.57 16.00 175.94 17.64 176.51 C 19.93 176.85 22.83 175.63 23.09 173.06 C 23.37 170.77 21.04 169.64 19.62 168.32 C 20.21 167.74 20.82 167.18 21.45 166.66 C 23.56 167.56 25.85 167.78 27.22 165.59 C 26.19 164.85 25.16 164.11 24.13 163.38 C 24.83 161.64 25.50 159.87 26.45 158.24 Z" />
<path fill="#2e6670" opacity="1.00" d=" M 21.45 166.66 C 22.33 165.55 23.22 164.46 24.13 163.38 C 25.16 164.11 26.19 164.85 27.22 165.59 C 25.85 167.78 23.56 167.56 21.45 166.66 Z" />
<path fill="#36757b" opacity="1.00" d=" M 13.46 173.53 C 15.52 171.80 17.57 170.06 19.62 168.32 C 21.04 169.64 23.37 170.77 23.09 173.06 C 22.83 175.63 19.93 176.85 17.64 176.51 C 16.00 175.94 14.81 174.57 13.46 173.53 Z" />
<path fill="#101844" opacity="1.00" d=" M 7.24 173.36 C 8.47 171.75 10.89 173.57 8.95 174.87 C 7.77 176.63 5.41 174.70 7.24 173.36 Z" />
<path fill="#123351" opacity="1.00" d=" M 46.61 178.61 C 49.68 175.84 53.96 175.45 57.78 174.45 C 55.61 178.94 53.38 183.42 51.19 187.91 C 49.71 187.50 48.24 187.08 46.76 186.68 C 46.66 185.16 46.62 183.65 46.53 182.14 C 43.62 183.26 40.70 184.38 37.65 185.02 C 40.66 182.91 43.82 181.01 46.61 178.61 Z" />
<path fill="#36757b" opacity="1.00" d=" M 10.58 175.55 C 13.40 175.60 16.39 176.02 17.37 179.10 C 15.77 179.92 14.29 180.99 13.19 182.44 C 10.61 182.36 8.03 182.18 5.47 181.91 C 5.38 180.82 5.30 179.73 5.23 178.63 C 7.14 177.84 9.01 176.92 10.58 175.55 Z" />
<path fill="#151e57" opacity="1.00" d=" M 22.72 179.28 C 23.74 178.83 24.77 178.41 25.81 177.99 C 26.53 179.58 27.84 181.14 27.45 183.00 C 25.91 185.62 22.92 186.71 20.34 188.01 C 19.89 187.00 19.45 185.98 19.03 184.96 C 20.67 183.47 23.77 181.97 22.72 179.28 Z" />
<path fill="#28507c" opacity="1.00" d=" M 15.84 182.21 C 18.14 181.26 20.44 180.29 22.72 179.28 C 23.77 181.97 20.67 183.47 19.03 184.96 C 17.42 185.12 16.90 183.07 15.84 182.21 Z" />
<path fill="#123351" opacity="1.00" d=" M 5.47 181.91 C 8.03 182.18 10.61 182.36 13.19 182.44 C 14.95 184.20 16.80 185.88 18.81 187.36 C 16.16 188.83 13.24 189.64 10.26 190.12 C 8.57 187.44 6.91 184.74 5.47 181.91 Z" />
<path fill="#37777c" opacity="1.00" d=" M 44.63 194.51 C 45.39 191.91 46.08 189.30 46.76 186.68 C 48.24 187.08 49.71 187.50 51.19 187.91 C 50.33 190.16 49.42 192.39 48.46 194.60 C 47.50 194.57 45.59 194.53 44.63 194.51 Z" />
<path fill="#37777d" opacity="1.00" d=" M 44.35 195.33 C 45.47 195.28 46.58 195.25 47.69 195.23 C 47.76 196.95 47.81 198.67 47.88 200.39 C 45.93 201.32 43.79 201.56 41.65 201.57 C 42.47 199.46 43.40 197.38 44.35 195.33 Z" />
<path fill="#123351" opacity="1.00" d=" M 41.65 201.57 C 43.79 201.56 45.93 201.32 47.88 200.39 C 48.04 200.88 48.35 201.86 48.51 202.35 C 47.19 204.02 44.97 205.62 45.67 208.05 C 46.34 209.88 47.99 211.16 49.24 212.62 C 45.58 214.42 41.87 216.10 38.16 217.78 C 37.41 214.58 37.17 210.36 33.29 209.43 C 33.20 207.73 33.12 206.03 33.05 204.34 C 34.17 204.36 35.30 204.41 36.42 204.49 C 35.57 205.58 34.71 206.67 33.87 207.77 C 34.22 208.08 34.92 208.69 35.27 208.99 C 37.68 212.59 44.52 211.46 44.65 206.87 C 45.11 204.38 42.56 203.42 40.96 202.21 C 41.13 202.05 41.48 201.73 41.65 201.57 Z" />
<path fill="#36757b" opacity="1.00" d=" M 35.27 208.99 C 37.35 206.89 39.49 204.80 40.96 202.21 C 42.56 203.42 45.11 204.38 44.65 206.87 C 44.52 211.46 37.68 212.59 35.27 208.99 Z" />
<path fill="#2f5f90" opacity="1.00" d=" M 24.64 211.84 C 26.78 210.46 29.01 209.22 31.28 208.07 C 31.43 208.77 31.73 210.16 31.88 210.85 C 30.42 211.63 28.94 212.38 27.47 213.14 C 26.52 212.71 25.58 212.28 24.64 211.84 Z" />
<path fill="#131c4f" opacity="1.00" d=" M 22.07 214.86 C 22.17 213.52 23.31 212.60 23.92 211.49 L 24.64 211.84 C 25.58 212.28 26.52 212.71 27.47 213.14 C 25.72 214.73 24.94 216.92 24.48 219.19 C 23.63 217.77 22.58 216.45 22.07 214.86 Z" />
<path fill="#27507b" opacity="1.00" d=" M 32.68 211.53 C 35.54 212.02 35.41 215.22 36.31 217.35 C 34.53 218.10 32.75 218.84 30.93 219.49 C 30.66 219.10 30.14 218.34 29.87 217.95 C 30.99 216.42 34.56 215.14 33.29 212.87 L 32.68 211.53 Z" />
<path fill="#ebedf2" opacity="1.00" d=" M 29.22 214.77 C 30.61 214.22 31.93 213.49 33.29 212.87 C 34.56 215.14 30.99 216.42 29.87 217.95 C 29.60 216.90 29.38 215.84 29.22 214.77 Z" />
<path fill="#162259" opacity="1.00" d=" M 28.05 222.82 C 27.70 220.21 25.78 216.14 29.22 214.77 C 29.38 215.84 29.60 216.90 29.87 217.95 C 30.14 218.34 30.66 219.10 30.93 219.49 C 32.75 218.84 34.53 218.10 36.31 217.35 C 36.12 217.78 35.75 218.63 35.57 219.06 C 33.52 221.08 30.80 222.15 28.05 222.82 Z" />
<path fill="#191f43" opacity="1.00" d=" M 37.85 220.10 C 40.44 218.87 43.02 217.43 45.91 217.07 C 49.15 220.47 42.83 222.61 40.81 224.59 C 39.02 223.70 38.08 222.05 37.85 220.10 Z" />
<path fill="#14143c" opacity="1.00" d=" M 28.05 222.82 C 30.80 222.15 33.52 221.08 35.57 219.06 C 35.82 221.23 36.20 223.38 37.00 225.43 C 36.08 226.49 35.16 227.54 34.23 228.59 C 32.74 228.14 31.25 227.69 29.76 227.25 C 29.19 225.77 28.64 224.29 28.05 222.82 Z" />
<path fill="#000000" opacity="1.00" d=" M 28.45 244.68 C 40.57 242.95 52.91 244.06 65.10 244.38 C 66.97 244.65 70.61 244.40 70.50 247.15 C 68.96 248.80 66.57 248.78 64.52 249.18 C 53.09 250.46 41.57 250.83 30.08 250.65 C 27.20 250.46 24.04 250.72 21.51 249.07 C 20.85 245.33 26.00 245.73 28.45 244.68 Z" />
</svg>
