<?xml version="1.0" encoding="UTF-8" ?>
<!DOCTYPE svg PUBLIC "-//W3C//DTD SVG 1.1//EN" "http://www.w3.org/Graphics/SVG/1.1/DTD/svg11.dtd">
<svg width="321pt" height="337pt" viewBox="0 0 321 337" version="1.1" xmlns="http://www.w3.org/2000/svg">
<path fill="#000000" opacity="1.00" d=" M 284.98 16.17 C 295.63 10.11 306.48 4.18 318.12 0.27 C 320.42 -0.78 321.50 2.34 320.23 3.89 C 313.96 18.08 303.84 30.08 293.21 41.20 C 281.48 53.78 269.72 66.37 256.95 77.92 C 270.37 74.00 284.09 71.02 297.98 69.44 C 299.69 69.08 301.68 69.94 300.87 71.98 C 293.28 81.61 281.60 86.48 270.87 91.69 C 252.56 99.95 234.28 108.49 215.06 114.46 C 214.75 114.70 214.12 115.20 213.81 115.45 C 221.34 117.89 228.90 120.45 235.95 124.09 C 237.83 125.27 240.59 126.40 240.72 128.97 C 239.85 131.86 236.32 131.59 233.96 132.02 C 223.55 132.82 213.16 131.38 202.77 131.04 C 204.30 134.92 206.46 138.80 206.25 143.10 C 205.74 146.11 202.30 146.05 199.97 145.76 C 189.69 144.50 179.59 141.98 169.86 138.47 C 172.52 145.96 172.15 154.09 171.21 161.86 C 170.50 166.44 169.42 171.06 167.16 175.14 C 165.86 177.80 162.86 178.79 160.83 180.77 C 158.21 183.21 155.23 185.18 152.34 187.27 C 151.31 191.43 152.37 195.91 151.46 200.15 C 149.79 209.80 143.41 217.96 136.08 224.14 C 126.70 231.56 115.87 236.83 105.10 241.91 C 99.58 257.23 100.32 274.46 106.60 289.45 C 99.38 288.21 94.30 282.26 90.77 276.28 C 85.27 267.07 84.58 255.76 86.61 245.42 C 85.03 245.42 83.46 245.29 81.94 244.89 C 73.24 253.39 70.04 266.15 70.29 278.00 C 70.21 284.52 71.92 290.87 73.85 297.04 C 72.20 296.58 70.70 295.70 69.60 294.37 C 63.55 287.41 60.25 278.18 60.33 268.97 C 60.44 260.89 60.98 252.52 64.53 245.11 C 53.88 241.73 44.78 234.76 36.60 227.34 C 34.90 225.94 33.63 224.11 32.96 222.02 C 44.97 228.00 57.56 233.43 71.10 234.58 C 74.38 230.39 78.22 226.70 82.30 223.30 C 88.15 217.97 94.52 213.12 101.65 209.63 C 104.02 208.43 106.66 207.51 108.42 205.41 C 115.34 197.97 124.15 192.55 133.39 188.49 C 136.97 186.77 141.09 186.95 144.75 185.68 C 146.91 183.40 146.82 179.88 147.15 176.94 C 147.65 173.04 143.80 170.64 141.03 168.83 C 138.70 170.56 135.79 172.14 134.89 175.09 C 133.46 179.22 130.54 182.70 129.70 187.05 C 124.12 186.59 118.36 183.43 112.86 185.81 C 107.83 185.00 102.42 183.53 99.27 179.17 C 97.17 181.46 95.29 184.02 92.80 185.92 C 92.49 185.84 91.87 185.68 91.56 185.60 C 90.73 181.75 93.16 176.91 89.87 173.94 C 90.06 173.23 90.46 171.81 90.66 171.10 C 88.92 169.13 87.30 167.06 85.81 164.90 C 86.11 164.11 86.41 163.31 86.71 162.52 C 83.80 159.32 82.91 154.93 81.54 150.95 C 80.71 147.54 79.17 144.19 79.48 140.61 C 82.69 141.14 85.08 143.49 87.81 145.07 C 87.91 143.21 87.94 141.36 87.89 139.51 C 85.42 139.09 82.92 138.59 80.80 137.17 C 75.30 140.42 69.38 143.45 63.00 144.37 C 62.67 144.04 62.01 143.37 61.67 143.04 C 62.82 137.89 66.96 133.87 69.93 129.61 C 54.89 120.16 39.49 110.65 27.70 97.14 C 21.99 90.85 18.49 83.02 14.53 75.60 C 9.58 66.35 5.04 56.86 1.44 47.00 C 0.67 44.76 -0.15 42.42 0.20 40.02 C 1.22 37.29 4.58 38.43 5.79 40.32 C 11.70 47.99 17.82 55.52 24.47 62.57 C 35.44 74.02 48.70 82.83 61.02 92.70 C 51.75 81.25 45.70 67.47 42.33 53.19 C 41.89 51.25 41.71 49.27 41.59 47.30 C 44.56 47.56 45.38 51.06 47.14 52.98 C 57.20 66.07 68.78 77.90 80.16 89.83 C 81.85 82.67 86.54 76.74 91.25 71.28 C 93.00 69.42 94.68 67.26 97.10 66.26 C 99.37 65.57 99.42 68.38 98.68 69.78 C 96.21 76.93 95.32 84.50 95.16 92.03 C 101.03 98.41 107.51 104.21 113.16 110.79 C 114.59 112.29 116.70 114.59 118.89 113.04 C 127.59 108.91 137.49 107.36 147.05 108.46 C 149.44 108.57 151.38 110.13 153.61 110.73 C 177.62 85.25 203.24 61.24 230.97 39.84 C 233.94 37.62 236.72 35.11 240.00 33.35 C 242.01 32.81 241.91 35.38 241.40 36.54 C 240.06 40.26 237.63 43.44 235.92 46.97 C 252.10 36.43 268.14 25.65 284.98 16.17 M 274.30 25.24 C 273.24 25.91 272.05 26.45 271.19 27.37 C 267.05 29.66 262.93 32.08 259.17 34.92 C 254.42 37.44 250.13 40.71 245.55 43.51 C 231.82 51.81 220.33 63.16 207.46 72.67 C 207.41 72.21 207.30 71.31 207.25 70.85 C 210.74 67.96 213.96 64.72 217.21 61.55 L 217.49 61.00 C 220.60 59.89 222.77 57.26 225.45 55.46 C 227.82 53.51 231.05 52.16 232.07 49.02 C 233.75 45.08 236.56 41.75 238.19 37.78 C 236.42 38.60 234.61 39.51 233.40 41.08 C 206.01 62.07 180.72 85.73 157.04 110.80 C 153.27 114.43 149.73 118.32 145.82 121.81 C 145.27 121.82 144.17 121.85 143.63 121.86 C 145.83 118.30 149.26 115.77 151.95 112.60 C 147.82 110.08 142.77 110.63 138.14 110.61 C 134.91 110.97 131.70 111.47 128.50 112.05 L 128.27 112.37 C 123.44 113.37 118.67 115.16 114.56 117.90 C 114.43 116.87 114.44 115.84 114.59 114.81 C 113.98 113.59 112.49 113.07 111.55 112.17 C 111.73 114.83 112.16 117.47 112.86 120.05 L 113.26 119.53 C 114.78 120.25 116.29 121.03 117.78 121.82 C 120.81 123.56 124.02 125.04 126.73 127.27 C 132.29 128.37 137.94 126.37 143.54 127.11 C 143.59 127.63 143.68 128.66 143.73 129.18 C 143.61 131.26 143.57 133.35 143.57 135.44 C 145.79 134.20 147.78 132.59 150.01 131.36 C 153.06 131.06 156.11 131.73 159.14 132.00 C 163.10 132.23 166.44 134.66 170.32 135.25 C 174.55 137.98 179.63 138.92 184.39 140.32 C 190.86 141.67 197.37 143.46 204.02 143.27 C 203.87 138.93 201.81 135.01 201.18 130.76 C 194.01 130.25 186.87 129.39 179.78 128.28 C 177.42 127.86 174.94 127.64 172.85 126.34 C 174.93 126.21 177.01 126.20 179.08 126.35 C 194.73 127.56 210.37 129.18 226.07 129.60 C 230.19 129.72 234.33 129.61 238.41 128.90 C 236.58 126.43 233.60 125.34 230.93 124.06 C 224.08 121.16 217.10 118.51 210.06 116.17 C 206.56 116.77 203.23 118.39 199.60 118.17 C 205.89 113.99 213.53 112.60 220.49 109.88 C 228.07 107.40 235.34 104.09 242.77 101.21 C 245.78 99.89 248.91 98.76 251.67 96.93 C 256.98 95.42 262.13 93.10 266.87 90.26 C 271.44 89.24 275.42 86.63 279.65 84.71 C 285.93 81.22 292.76 77.95 297.26 72.14 C 281.91 73.70 266.85 77.49 252.05 81.73 C 252.25 80.79 252.45 79.85 252.67 78.91 C 254.92 77.46 256.53 75.24 258.47 73.43 C 267.89 64.20 277.23 54.88 286.12 45.14 C 298.25 32.33 310.93 19.29 318.01 2.86 C 317.35 3.11 316.03 3.61 315.37 3.86 C 300.90 9.35 287.61 17.44 274.30 25.24 M 2.15 40.09 C 2.47 44.61 4.53 48.75 6.27 52.87 C 11.17 64.81 17.47 76.12 23.62 87.44 C 34.28 104.36 51.77 115.11 68.18 125.74 C 69.61 126.88 72.15 127.22 72.80 128.98 C 69.68 132.96 66.79 137.15 64.43 141.64 C 70.34 140.28 75.68 137.30 81.00 134.49 C 83.00 136.38 85.71 136.95 88.31 137.48 C 89.38 130.58 90.12 123.18 94.17 117.28 C 95.05 116.45 95.62 114.72 97.07 114.92 C 98.42 117.39 98.09 120.36 98.53 123.06 C 102.98 119.59 106.15 114.53 111.33 111.92 C 105.24 105.15 98.04 99.35 92.56 92.04 C 93.39 84.51 94.03 76.93 96.27 69.64 C 94.90 70.72 93.63 71.91 92.43 73.18 L 92.38 73.44 C 87.48 78.56 84.23 84.87 81.00 91.09 C 80.58 91.30 79.75 91.70 79.33 91.91 C 76.32 88.83 73.44 85.59 70.07 82.89 C 62.79 75.07 55.74 67.05 48.87 58.87 C 47.51 56.47 45.71 54.35 44.13 52.10 C 47.13 64.87 52.37 77.28 60.15 87.91 C 63.00 92.05 67.30 94.89 70.14 99.03 C 68.81 99.13 67.47 99.22 66.14 99.31 C 52.56 88.58 38.08 78.89 25.66 66.76 C 19.41 60.60 13.85 53.78 8.33 46.96 C 6.33 44.63 5.05 41.49 2.15 40.09 M 106.68 118.28 C 103.93 121.29 100.35 123.97 98.86 127.84 C 98.92 133.25 99.18 138.66 98.27 144.04 C 96.41 149.13 95.24 154.69 91.88 159.07 C 90.34 160.68 89.90 158.25 90.41 157.18 C 90.04 156.41 89.66 155.64 89.27 154.89 C 89.00 157.94 89.36 160.99 89.68 164.03 C 89.27 164.25 88.46 164.70 88.05 164.92 C 89.22 166.85 90.66 168.61 91.85 170.53 C 92.17 171.55 90.69 173.46 92.09 173.81 C 92.45 173.54 93.19 172.98 93.56 172.70 C 94.94 175.02 97.41 173.07 99.21 172.54 C 100.83 173.15 102.47 173.73 104.08 174.38 C 106.61 170.47 111.63 169.52 115.53 167.45 C 116.06 165.11 118.40 164.65 120.36 164.01 C 119.37 162.62 118.37 161.26 117.35 159.90 C 117.99 159.15 118.63 158.39 119.28 157.65 C 119.60 157.87 120.23 158.30 120.54 158.52 C 118.72 159.99 120.70 161.53 121.45 162.96 C 121.77 163.33 122.42 164.06 122.74 164.43 C 120.64 165.89 116.60 165.56 117.13 169.08 C 113.82 170.50 110.44 171.78 107.23 173.42 C 106.69 174.27 106.20 175.15 105.77 176.07 C 104.64 176.38 103.46 176.38 102.29 176.40 C 101.58 177.17 100.88 177.94 100.18 178.72 C 103.05 180.55 106.16 182.02 109.50 182.73 C 112.62 183.65 115.80 182.28 118.95 182.76 C 122.07 183.15 125.09 184.02 128.17 184.62 C 129.37 180.87 132.20 177.65 132.47 173.64 C 135.40 171.56 137.60 168.64 140.46 166.46 C 143.36 163.89 146.83 161.93 149.28 158.89 C 150.51 158.48 151.43 157.56 152.25 156.60 C 148.98 155.94 145.62 155.43 142.65 153.85 C 142.57 152.02 142.11 150.27 141.04 148.77 C 143.28 144.02 146.81 140.02 148.87 135.17 C 146.74 136.24 144.65 137.40 142.57 138.55 C 141.04 141.49 139.62 144.52 137.55 147.13 C 139.30 141.18 141.38 135.22 141.55 128.96 C 139.81 129.17 138.07 129.40 136.33 129.63 C 133.15 129.83 129.95 129.91 126.79 130.32 C 122.80 126.76 117.77 124.76 113.33 121.88 L 112.90 122.83 C 110.61 121.10 110.46 118.10 109.84 115.54 C 108.78 116.44 107.72 117.35 106.68 118.28 M 95.27 117.78 C 91.63 127.19 89.99 137.33 90.19 147.41 C 90.37 150.08 90.58 152.76 91.22 155.37 C 93.20 152.41 94.43 149.01 95.00 145.51 L 95.44 145.33 C 97.76 136.14 96.24 126.65 96.64 117.33 C 96.30 117.45 95.62 117.67 95.27 117.78 M 145.98 144.95 C 144.33 146.99 143.82 149.86 144.61 152.33 C 146.41 153.23 148.41 153.65 150.39 153.93 C 152.35 154.32 154.22 155.02 156.00 155.92 C 154.22 158.25 151.97 160.14 149.79 162.09 C 147.45 163.75 145.13 165.46 143.13 167.52 C 145.24 169.22 147.84 170.60 149.15 173.07 C 150.29 177.99 148.44 182.79 147.29 187.51 C 153.21 185.11 157.95 180.72 163.04 176.98 C 165.11 175.60 165.54 172.95 166.57 170.85 C 167.24 168.21 168.07 165.60 168.51 162.90 C 169.50 154.40 170.35 145.28 166.80 137.22 C 162.77 134.64 157.88 133.00 153.05 133.66 C 150.30 137.16 148.64 141.38 145.98 144.95 M 82.34 144.45 C 83.33 149.17 84.44 153.99 86.71 158.28 C 86.77 154.63 86.89 150.97 87.71 147.41 C 85.93 146.40 84.14 145.40 82.34 144.45 M 96.65 175.10 L 96.56 175.98 C 95.38 175.63 94.22 175.23 93.08 174.79 C 93.30 177.47 93.31 180.16 93.56 182.84 C 94.41 181.75 95.32 180.72 96.05 179.55 C 97.96 177.98 100.36 176.61 101.16 174.11 C 99.64 174.38 98.14 174.72 96.65 175.10 M 131.45 191.52 C 124.83 194.89 118.13 198.50 112.81 203.78 C 116.71 202.10 120.34 199.86 124.23 198.16 C 130.39 195.25 136.90 192.80 142.23 188.45 C 138.43 188.40 134.84 189.96 131.45 191.52 M 135.29 195.31 C 126.39 199.59 117.27 203.47 108.84 208.65 C 97.55 212.89 88.08 220.61 79.37 228.76 C 73.33 234.52 68.69 241.63 65.18 249.16 C 62.77 256.04 62.68 263.52 62.64 270.74 C 62.85 278.05 65.43 285.19 69.79 291.04 C 67.31 280.70 67.65 269.90 70.26 259.63 C 71.81 256.93 72.56 253.84 74.18 251.17 C 77.88 244.77 83.60 239.91 89.17 235.20 C 95.89 229.80 104.25 227.20 111.55 222.82 C 120.53 219.57 129.59 215.42 136.20 208.29 C 141.07 202.89 144.87 196.11 145.30 188.72 C 142.08 191.10 138.96 193.66 135.29 195.31 M 146.68 193.95 C 143.69 206.16 133.86 215.67 122.58 220.59 C 120.37 221.64 117.73 222.15 116.19 224.23 C 112.35 228.72 108.35 233.46 106.68 239.25 C 115.63 234.95 124.39 230.15 132.50 224.40 C 139.53 219.39 145.21 212.42 148.34 204.35 C 150.21 199.32 150.15 193.86 150.17 188.57 C 147.25 188.66 147.39 191.89 146.68 193.95 M 111.86 225.45 C 105.84 228.54 99.51 231.06 93.79 234.71 C 92.88 235.34 91.78 235.92 91.40 237.04 C 89.18 242.15 88.04 247.76 88.24 253.34 C 87.11 258.84 88.58 264.57 90.15 269.85 C 93.03 276.51 97.34 282.84 103.64 286.67 C 98.32 273.64 97.97 259.08 101.40 245.53 C 103.71 238.28 107.47 231.62 111.86 225.45 M 40.90 227.96 C 47.86 234.81 56.59 239.68 65.49 243.57 C 67.08 241.00 68.69 238.43 70.28 235.85 C 60.00 235.73 50.26 231.84 40.90 227.96 M 83.13 243.64 C 84.31 243.61 85.50 243.58 86.68 243.56 C 87.19 242.11 87.61 240.63 87.95 239.13 C 86.31 240.60 84.72 242.12 83.13 243.64 Z" />
<path fill="#defe9a" opacity="1.00" d=" M 274.30 25.24 C 287.61 17.44 300.90 9.35 315.37 3.86 C 307.86 10.58 299.65 16.46 291.87 22.86 C 280.82 31.91 269.38 40.46 257.79 48.80 C 245.96 58.25 233.55 66.93 221.15 75.61 C 205.82 85.50 190.73 95.76 175.05 105.09 C 168.13 109.58 160.83 113.45 153.99 118.05 C 151.43 119.60 148.92 121.60 145.82 121.81 C 149.73 118.32 153.27 114.43 157.04 110.80 C 158.96 112.05 160.66 110.19 162.14 109.20 C 174.84 98.92 187.54 88.63 199.54 77.54 C 201.97 75.16 204.36 72.69 207.25 70.85 C 207.30 71.31 207.41 72.21 207.46 72.67 C 220.33 63.16 231.82 51.81 245.55 43.51 C 250.13 40.71 254.42 37.44 259.17 34.92 C 255.62 39.68 251.03 43.49 247.20 48.00 C 254.21 43.19 260.72 37.69 267.10 32.09 C 268.69 30.73 269.96 29.06 271.19 27.37 C 272.05 26.45 273.24 25.91 274.30 25.24 Z" />
<path fill="#225971" opacity="1.00" d=" M 315.37 3.86 C 316.03 3.61 317.35 3.11 318.01 2.86 C 310.93 19.29 298.25 32.33 286.12 45.14 C 277.23 54.88 267.89 64.20 258.47 73.43 C 256.53 75.24 254.92 77.46 252.67 78.91 C 250.25 80.20 247.71 81.24 245.18 82.29 C 245.00 81.74 244.64 80.65 244.46 80.11 C 244.62 78.35 246.19 76.01 244.12 74.86 C 241.80 72.79 238.66 74.34 236.13 75.08 C 232.21 76.60 227.80 76.80 224.19 79.08 C 220.97 80.98 217.88 83.08 214.67 84.98 C 211.76 85.93 208.88 86.97 205.96 87.88 C 210.59 83.25 217.17 80.91 221.15 75.61 C 233.55 66.93 245.96 58.25 257.79 48.80 C 269.38 40.46 280.82 31.91 291.87 22.86 C 299.65 16.46 307.86 10.58 315.37 3.86 Z" />
<path fill="#ffffff" opacity="1.00" d=" M 259.17 34.92 C 262.93 32.08 267.05 29.66 271.19 27.37 C 269.96 29.06 268.69 30.73 267.10 32.09 C 260.72 37.69 254.21 43.19 247.20 48.00 C 251.03 43.49 255.62 39.68 259.17 34.92 Z" />
<path fill="#3c8793" opacity="1.00" d=" M 233.40 41.08 C 234.61 39.51 236.42 38.60 238.19 37.78 C 236.56 41.75 233.75 45.08 232.07 49.02 C 231.05 52.16 227.82 53.51 225.45 55.46 C 222.77 57.26 220.60 59.89 217.49 61.00 C 221.84 53.68 228.68 48.19 233.40 41.08 Z" />
<path fill="#ffffff" opacity="1.00" d=" M 2.15 40.09 C 5.05 41.49 6.33 44.63 8.33 46.96 C 13.85 53.78 19.41 60.60 25.66 66.76 C 24.99 67.12 23.64 67.84 22.96 68.20 C 23.25 69.87 23.55 71.53 23.85 73.19 C 22.03 71.24 20.12 69.38 18.18 67.55 C 14.23 62.65 9.77 58.13 6.27 52.87 C 4.53 48.75 2.47 44.61 2.15 40.09 Z" />
<path fill="#ffffff" opacity="1.00" d=" M 157.04 110.80 C 180.72 85.73 206.01 62.07 233.40 41.08 C 228.68 48.19 221.84 53.68 217.49 61.00 L 217.21 61.55 C 213.96 64.72 210.74 67.96 207.25 70.85 C 204.36 72.69 201.97 75.16 199.54 77.54 C 187.54 88.63 174.84 98.92 162.14 109.20 C 160.66 110.19 158.96 112.05 157.04 110.80 Z" />
<path fill="#3c8793" opacity="1.00" d=" M 44.13 52.10 C 45.71 54.35 47.51 56.47 48.87 58.87 C 51.68 66.72 54.90 74.52 59.47 81.52 C 63.83 87.12 69.25 91.79 74.48 96.54 C 77.71 99.14 80.98 102.48 85.42 102.53 C 84.83 100.62 84.29 98.62 82.93 97.09 C 78.87 92.15 74.16 87.80 70.07 82.89 C 73.44 85.59 76.32 88.83 79.33 91.91 C 79.75 91.70 80.58 91.30 81.00 91.09 C 83.71 95.32 86.80 99.28 89.41 103.57 C 91.30 106.64 93.44 109.83 96.95 111.18 C 95.63 105.33 90.78 100.95 89.78 94.96 C 88.87 87.67 91.02 80.53 92.38 73.44 L 92.43 73.18 C 93.63 71.91 94.90 70.72 96.27 69.64 C 94.03 76.93 93.39 84.51 92.56 92.04 C 98.04 99.35 105.24 105.15 111.33 111.92 C 106.15 114.53 102.98 119.59 98.53 123.06 C 98.09 120.36 98.42 117.39 97.07 114.92 C 95.62 114.72 95.05 116.45 94.17 117.28 C 90.12 123.18 89.38 130.58 88.31 137.48 C 85.71 136.95 83.00 136.38 81.00 134.49 C 75.68 137.30 70.34 140.28 64.43 141.64 C 66.79 137.15 69.68 132.96 72.80 128.98 C 72.15 127.22 69.61 126.88 68.18 125.74 C 51.77 115.11 34.28 104.36 23.62 87.44 C 17.47 76.12 11.17 64.81 6.27 52.87 C 9.77 58.13 14.23 62.65 18.18 67.55 C 23.14 76.74 30.08 84.66 37.20 92.23 C 38.88 93.96 40.70 95.53 42.58 97.05 C 49.00 102.84 56.34 107.63 64.27 111.08 C 64.90 111.39 66.18 112.00 66.82 112.31 C 70.33 113.72 73.76 116.35 77.73 115.70 C 79.45 115.46 81.15 115.06 82.78 114.44 C 83.68 113.37 82.04 112.37 81.47 111.60 C 76.64 107.17 71.32 103.31 66.14 99.31 C 67.47 99.22 68.81 99.13 70.14 99.03 C 67.30 94.89 63.00 92.05 60.15 87.91 C 52.37 77.28 47.13 64.87 44.13 52.10 Z" />
<path fill="#dfff9a" opacity="1.00" d=" M 48.87 58.87 C 55.74 67.05 62.79 75.07 70.07 82.89 C 74.16 87.80 78.87 92.15 82.93 97.09 C 84.29 98.62 84.83 100.62 85.42 102.53 C 80.98 102.48 77.71 99.14 74.48 96.54 C 69.25 91.79 63.83 87.12 59.47 81.52 C 54.90 74.52 51.68 66.72 48.87 58.87 Z" />
<path fill="#dfff9a" opacity="1.00" d=" M 22.96 68.20 C 23.64 67.84 24.99 67.12 25.66 66.76 C 38.08 78.89 52.56 88.58 66.14 99.31 C 71.32 103.31 76.64 107.17 81.47 111.60 C 82.04 112.37 83.68 113.37 82.78 114.44 C 81.15 115.06 79.45 115.46 77.73 115.70 C 73.76 116.35 70.33 113.72 66.82 112.31 C 68.49 112.27 70.32 112.34 71.62 111.07 C 69.20 110.37 66.60 109.79 64.27 111.08 C 56.34 107.63 49.00 102.84 42.58 97.05 C 51.16 100.09 59.94 102.94 69.05 103.80 C 61.88 98.39 53.93 94.17 46.02 89.98 C 44.19 89.21 42.29 87.94 40.24 88.30 C 38.34 88.65 38.03 90.83 37.20 92.23 C 30.08 84.66 23.14 76.74 18.18 67.55 C 20.12 69.38 22.03 71.24 23.85 73.19 C 23.55 71.53 23.25 69.87 22.96 68.20 M 34.15 84.36 C 33.66 85.94 36.16 87.57 37.53 86.78 C 37.68 85.34 35.47 83.99 34.15 84.36 Z" />
<path fill="#154360" opacity="1.00" d=" M 252.05 81.73 C 266.85 77.49 281.91 73.70 297.26 72.14 C 292.76 77.95 285.93 81.22 279.65 84.71 C 275.42 86.63 271.44 89.24 266.87 90.26 C 269.07 88.55 271.57 87.30 273.84 85.70 C 275.17 84.88 274.13 83.29 274.08 82.14 C 266.03 81.33 258.25 83.96 250.79 86.64 C 244.07 88.64 237.26 90.38 230.61 92.62 C 226.90 93.74 223.28 95.56 219.32 95.49 C 222.18 93.74 225.12 92.13 227.98 90.40 C 233.85 87.98 239.29 84.66 245.18 82.29 C 247.71 81.24 250.25 80.20 252.67 78.91 C 252.45 79.85 252.25 80.79 252.05 81.73 Z" />
<path fill="#dfff9a" opacity="1.00" d=" M 81.00 91.09 C 84.23 84.87 87.48 78.56 92.38 73.44 C 91.02 80.53 88.87 87.67 89.78 94.96 C 90.78 100.95 95.63 105.33 96.95 111.18 C 93.44 109.83 91.30 106.64 89.41 103.57 C 86.80 99.28 83.71 95.32 81.00 91.09 Z" />
<path fill="#307284" opacity="1.00" d=" M 236.13 75.08 C 238.66 74.34 241.80 72.79 244.12 74.86 C 246.19 76.01 244.62 78.35 244.46 80.11 C 244.64 80.65 245.00 81.74 245.18 82.29 C 239.29 84.66 233.85 87.98 227.98 90.40 C 229.81 88.04 231.65 85.69 233.29 83.20 C 226.99 82.51 220.96 85.02 214.67 84.98 C 217.88 83.08 220.97 80.98 224.19 79.08 C 227.80 76.80 232.21 76.60 236.13 75.08 Z" />
<path fill="#3c8793" opacity="1.00" d=" M 175.05 105.09 C 190.73 95.76 205.82 85.50 221.15 75.61 C 217.17 80.91 210.59 83.25 205.96 87.88 C 208.88 86.97 211.76 85.93 214.67 84.98 C 220.96 85.02 226.99 82.51 233.29 83.20 C 231.65 85.69 229.81 88.04 227.98 90.40 C 225.12 92.13 222.18 93.74 219.32 95.49 C 218.95 95.71 218.21 96.16 217.84 96.38 C 219.28 97.29 220.87 98.25 222.64 97.61 C 228.10 96.34 233.58 94.84 239.26 95.12 C 238.89 97.87 240.45 99.93 242.77 101.21 C 235.34 104.09 228.07 107.40 220.49 109.88 C 213.53 112.60 205.89 113.99 199.60 118.17 C 203.23 118.39 206.56 116.77 210.06 116.17 C 217.10 118.51 224.08 121.16 230.93 124.06 C 233.60 125.34 236.58 126.43 238.41 128.90 C 234.33 129.61 230.19 129.72 226.07 129.60 C 210.37 129.18 194.73 127.56 179.08 126.35 C 177.01 126.20 174.93 126.21 172.85 126.34 C 174.94 127.64 177.42 127.86 179.78 128.28 C 186.87 129.39 194.01 130.25 201.18 130.76 C 201.81 135.01 203.87 138.93 204.02 143.27 C 197.37 143.46 190.86 141.67 184.39 140.32 C 179.63 138.92 174.55 137.98 170.32 135.25 C 162.70 129.81 152.87 128.64 143.73 129.18 C 143.68 128.66 143.59 127.63 143.54 127.11 C 137.94 126.37 132.29 128.37 126.73 127.27 C 130.88 121.97 135.54 116.92 138.14 110.61 C 142.77 110.63 147.82 110.08 151.95 112.60 C 149.26 115.77 145.83 118.30 143.63 121.86 C 144.17 121.85 145.27 121.82 145.82 121.81 C 148.92 121.60 151.43 119.60 153.99 118.05 C 160.83 113.45 168.13 109.58 175.05 105.09 Z" />
<path fill="#255d74" opacity="1.00" d=" M 250.79 86.64 C 258.25 83.96 266.03 81.33 274.08 82.14 C 274.13 83.29 275.17 84.88 273.84 85.70 C 271.57 87.30 269.07 88.55 266.87 90.26 C 262.13 93.10 256.98 95.42 251.67 96.93 C 253.98 95.27 256.84 93.23 255.94 89.92 C 256.22 86.94 252.84 87.05 250.79 86.64 Z" />
<path fill="#f5ffd3" opacity="1.00" d=" M 34.15 84.36 C 35.47 83.99 37.68 85.34 37.53 86.78 C 36.16 87.57 33.66 85.94 34.15 84.36 Z" />
<path fill="#327686" opacity="1.00" d=" M 230.61 92.62 C 237.26 90.38 244.07 88.64 250.79 86.64 C 252.84 87.05 256.22 86.94 255.94 89.92 C 256.84 93.23 253.98 95.27 251.67 96.93 C 248.91 98.76 245.78 99.89 242.77 101.21 C 240.45 99.93 238.89 97.87 239.26 95.12 C 233.58 94.84 228.10 96.34 222.64 97.61 C 220.87 98.25 219.28 97.29 217.84 96.38 C 218.21 96.16 218.95 95.71 219.32 95.49 C 223.28 95.56 226.90 93.74 230.61 92.62 Z" />
<path fill="#ffffff" opacity="1.00" d=" M 40.24 88.30 C 42.29 87.94 44.19 89.21 46.02 89.98 C 53.93 94.17 61.88 98.39 69.05 103.80 C 59.94 102.94 51.16 100.09 42.58 97.05 C 40.70 95.53 38.88 93.96 37.20 92.23 C 38.03 90.83 38.34 88.65 40.24 88.30 Z" />
<path fill="#f0fbd0" opacity="1.00" d=" M 64.27 111.08 C 66.60 109.79 69.20 110.37 71.62 111.07 C 70.32 112.34 68.49 112.27 66.82 112.31 C 66.18 112.00 64.90 111.39 64.27 111.08 Z" />
<path fill="#dfff9a" opacity="1.00" d=" M 128.50 112.05 C 131.70 111.47 134.91 110.97 138.14 110.61 C 135.54 116.92 130.88 121.97 126.73 127.27 C 124.02 125.04 120.81 123.56 117.78 121.82 C 121.11 118.47 125.64 116.39 128.27 112.37 L 128.50 112.05 Z" />
<path fill="#3a757d" opacity="1.00" d=" M 111.55 112.17 C 112.49 113.07 113.98 113.59 114.59 114.81 C 114.44 115.84 114.43 116.87 114.56 117.90 C 114.12 118.43 113.68 118.98 113.26 119.53 L 112.86 120.05 C 112.16 117.47 111.73 114.83 111.55 112.17 Z" />
<path fill="#ffffff" opacity="1.00" d=" M 114.56 117.90 C 118.67 115.16 123.44 113.37 128.27 112.37 C 125.64 116.39 121.11 118.47 117.78 121.82 C 116.29 121.03 114.78 120.25 113.26 119.53 C 113.68 118.98 114.12 118.43 114.56 117.90 Z" />
<path fill="#5d9fb8" opacity="1.00" d=" M 106.68 118.28 C 107.72 117.35 108.78 116.44 109.84 115.54 C 110.46 118.10 110.61 121.10 112.90 122.83 C 110.12 128.50 108.72 135.25 104.08 139.75 C 104.39 132.53 106.64 125.52 106.68 118.28 Z" />
<path fill="#dfff9a" opacity="1.00" d=" M 95.27 117.78 C 95.62 117.67 96.30 117.45 96.64 117.33 C 96.24 126.65 97.76 136.14 95.44 145.33 L 95.00 145.51 C 93.40 146.15 91.80 146.78 90.19 147.41 C 89.99 137.33 91.63 127.19 95.27 117.78 Z" />
<path fill="#ffffff" opacity="1.00" d=" M 98.86 127.84 C 100.35 123.97 103.93 121.29 106.68 118.28 C 106.64 125.52 104.39 132.53 104.08 139.75 C 108.72 135.25 110.12 128.50 112.90 122.83 L 113.33 121.88 C 117.77 124.76 122.80 126.76 126.79 130.32 C 129.95 129.91 133.15 129.83 136.33 129.63 C 131.27 138.65 127.34 148.27 124.37 158.17 C 123.87 160.03 123.07 161.82 121.45 162.96 C 120.70 161.53 118.72 159.99 120.54 158.52 C 120.23 158.30 119.60 157.87 119.28 157.65 C 120.41 156.34 121.56 155.05 122.71 153.76 C 122.00 153.04 121.31 152.30 120.59 151.61 C 117.58 147.70 112.64 146.21 107.86 146.43 C 108.63 145.20 109.41 143.97 110.17 142.74 C 106.73 141.27 102.76 141.39 99.39 143.00 C 99.32 143.25 99.18 143.75 99.11 144.01 C 101.61 144.70 104.20 143.62 106.73 143.54 C 106.55 144.99 104.27 147.41 106.43 148.30 C 109.13 148.74 111.97 148.55 114.55 149.61 C 114.56 150.57 114.58 151.53 114.60 152.50 C 113.74 152.76 112.89 153.03 112.04 153.32 C 107.06 155.22 103.57 159.66 101.74 164.54 C 101.11 165.80 101.50 167.19 101.83 168.48 C 102.10 168.92 102.62 169.82 102.89 170.27 C 101.67 171.03 100.44 171.79 99.21 172.54 C 97.41 173.07 94.94 175.02 93.56 172.70 C 93.19 172.98 92.45 173.54 92.09 173.81 C 90.69 173.46 92.17 171.55 91.85 170.53 C 90.66 168.61 89.22 166.85 88.05 164.92 C 88.46 164.70 89.27 164.25 89.68 164.03 C 89.36 160.99 89.00 157.94 89.27 154.89 C 89.66 155.64 90.04 156.41 90.41 157.18 C 89.90 158.25 90.34 160.68 91.88 159.07 C 95.24 154.69 96.41 149.13 98.27 144.04 C 99.18 138.66 98.92 133.25 98.86 127.84 Z" />
<path fill="#5d9fb8" opacity="1.00" d=" M 136.33 129.63 C 138.07 129.40 139.81 129.17 141.55 128.96 C 141.38 135.22 139.30 141.18 137.55 147.13 C 139.62 144.52 141.04 141.49 142.57 138.55 C 144.65 137.40 146.74 136.24 148.87 135.17 C 146.81 140.02 143.28 144.02 141.04 148.77 C 142.11 150.27 142.57 152.02 142.65 153.85 C 137.16 155.71 133.55 160.43 130.06 164.77 C 130.57 164.78 131.60 164.82 132.11 164.84 C 130.76 165.72 129.35 165.26 128.04 164.62 C 125.53 165.47 122.89 166.14 120.67 167.63 C 119.52 169.74 119.46 172.82 116.92 173.85 C 113.94 174.86 110.70 174.76 107.68 175.64 C 107.20 175.75 106.25 175.96 105.77 176.07 C 106.20 175.15 106.69 174.27 107.23 173.42 C 110.44 171.78 113.82 170.50 117.13 169.08 C 116.60 165.56 120.64 165.89 122.74 164.43 C 122.42 164.06 121.77 163.33 121.45 162.96 C 123.07 161.82 123.87 160.03 124.37 158.17 C 127.34 148.27 131.27 138.65 136.33 129.63 Z" />
<path fill="#184864" opacity="1.00" d=" M 143.73 129.18 C 152.87 128.64 162.70 129.81 170.32 135.25 C 166.44 134.66 163.10 132.23 159.14 132.00 C 156.11 131.73 153.06 131.06 150.01 131.36 C 147.78 132.59 145.79 134.20 143.57 135.44 C 143.57 133.35 143.61 131.26 143.73 129.18 Z" />
<path fill="#174663" opacity="1.00" d=" M 145.98 144.95 C 148.64 141.38 150.30 137.16 153.05 133.66 C 157.88 133.00 162.77 134.64 166.80 137.22 C 170.35 145.28 169.50 154.40 168.51 162.90 C 167.75 157.70 164.31 152.37 158.88 151.22 C 155.77 150.26 152.15 151.01 150.39 153.93 C 148.41 153.65 146.41 153.23 144.61 152.33 C 143.82 149.86 144.33 146.99 145.98 144.95 Z" />
<path fill="#000000" opacity="1.00" d=" M 99.39 143.00 C 102.76 141.39 106.73 141.27 110.17 142.74 C 109.41 143.97 108.63 145.20 107.86 146.43 C 112.64 146.21 117.58 147.70 120.59 151.61 C 118.51 151.14 116.50 150.45 114.55 149.61 C 111.97 148.55 109.13 148.74 106.43 148.30 C 104.27 147.41 106.55 144.99 106.73 143.54 C 104.20 143.62 101.61 144.70 99.11 144.01 C 99.18 143.75 99.32 143.25 99.39 143.00 Z" />
<path fill="#3d8995" opacity="1.00" d=" M 82.34 144.45 C 84.14 145.40 85.93 146.40 87.71 147.41 C 86.89 150.97 86.77 154.63 86.71 158.28 C 84.44 153.99 83.33 149.17 82.34 144.45 Z" />
<path fill="#3f8e9b" opacity="1.00" d=" M 90.19 147.41 C 91.80 146.78 93.40 146.15 95.00 145.51 C 94.43 149.01 93.20 152.41 91.22 155.37 C 90.58 152.76 90.37 150.08 90.19 147.41 Z" />
<path fill="#5d9fb8" opacity="1.00" d=" M 114.60 152.50 C 114.58 151.53 114.56 150.57 114.55 149.61 C 116.50 150.45 118.51 151.14 120.59 151.61 C 121.31 152.30 122.00 153.04 122.71 153.76 C 121.56 155.05 120.41 156.34 119.28 157.65 C 118.63 158.39 117.99 159.15 117.35 159.90 C 118.37 161.26 119.37 162.62 120.36 164.01 C 118.40 164.65 116.06 165.11 115.53 167.45 C 111.63 169.52 106.61 170.47 104.08 174.38 C 102.47 173.73 100.83 173.15 99.21 172.54 C 100.44 171.79 101.67 171.03 102.89 170.27 C 102.62 169.82 102.10 168.92 101.83 168.48 C 104.85 168.17 108.10 167.62 110.22 165.21 C 113.36 162.33 115.80 156.71 112.04 153.32 C 112.89 153.03 113.74 152.76 114.60 152.50 Z" />
<path fill="#2b697c" opacity="1.00" d=" M 150.39 153.93 C 152.15 151.01 155.77 150.26 158.88 151.22 C 164.31 152.37 167.75 157.70 168.51 162.90 C 168.07 165.60 167.24 168.21 166.57 170.85 C 165.53 168.17 163.93 165.15 160.93 164.36 C 157.21 163.64 153.44 163.14 149.79 162.09 C 151.97 160.14 154.22 158.25 156.00 155.92 C 154.22 155.02 152.35 154.32 150.39 153.93 Z" />
<path fill="#000000" opacity="1.00" d=" M 101.74 164.54 C 103.57 159.66 107.06 155.22 112.04 153.32 C 115.80 156.71 113.36 162.33 110.22 165.21 C 108.10 167.62 104.85 168.17 101.83 168.48 C 101.50 167.19 101.11 165.80 101.74 164.54 M 107.13 158.31 C 105.09 161.05 103.08 163.97 102.53 167.43 C 105.59 166.16 108.83 164.81 110.80 161.98 C 111.87 159.79 112.71 157.43 111.89 155.00 C 110.22 155.98 108.64 157.10 107.13 158.31 Z" />
<path fill="#ffffff" opacity="1.00" d=" M 130.06 164.77 C 133.55 160.43 137.16 155.71 142.65 153.85 C 145.62 155.43 148.98 155.94 152.25 156.60 C 151.43 157.56 150.51 158.48 149.28 158.89 C 143.55 160.87 137.82 162.81 132.11 164.84 C 131.60 164.82 130.57 164.78 130.06 164.77 Z" />
<path fill="#2b697c" opacity="1.00" d=" M 107.13 158.31 C 108.64 157.10 110.22 155.98 111.89 155.00 C 112.71 157.43 111.87 159.79 110.80 161.98 C 110.49 159.92 109.06 158.78 107.13 158.31 Z" />
<path fill="#3dc97b" opacity="1.00" d=" M 102.53 167.43 C 103.08 163.97 105.09 161.05 107.13 158.31 C 109.06 158.78 110.49 159.92 110.80 161.98 C 108.83 164.81 105.59 166.16 102.53 167.43 Z" />
<path fill="#497ca2" opacity="1.00" d=" M 132.11 164.84 C 137.82 162.81 143.55 160.87 149.28 158.89 C 146.83 161.93 143.36 163.89 140.46 166.46 C 137.60 168.64 135.40 171.56 132.47 173.64 C 124.45 176.28 115.97 175.56 107.68 175.64 C 110.70 174.76 113.94 174.86 116.92 173.85 C 119.46 172.82 119.52 169.74 120.67 167.63 C 122.89 166.14 125.53 165.47 128.04 164.62 C 129.35 165.26 130.76 165.72 132.11 164.84 Z" />
<path fill="#357a8a" opacity="1.00" d=" M 143.13 167.52 C 145.13 165.46 147.45 163.75 149.79 162.09 C 153.44 163.14 157.21 163.64 160.93 164.36 C 163.93 165.15 165.53 168.17 166.57 170.85 C 165.54 172.95 165.11 175.60 163.04 176.98 C 157.95 180.72 153.21 185.11 147.29 187.51 C 148.44 182.79 150.29 177.99 149.15 173.07 C 147.84 170.60 145.24 169.22 143.13 167.52 Z" />
<path fill="#407d80" opacity="1.00" d=" M 96.65 175.10 C 98.14 174.72 99.64 174.38 101.16 174.11 C 100.36 176.61 97.96 177.98 96.05 179.55 C 96.25 178.36 96.43 177.17 96.56 175.98 L 96.65 175.10 Z" />
<path fill="#2f5085" opacity="1.00" d=" M 107.68 175.64 C 115.97 175.56 124.45 176.28 132.47 173.64 C 132.20 177.65 129.37 180.87 128.17 184.62 C 125.09 184.02 122.07 183.15 118.95 182.76 C 115.80 182.28 112.62 183.65 109.50 182.73 C 106.16 182.02 103.05 180.55 100.18 178.72 C 100.88 177.94 101.58 177.17 102.29 176.40 C 103.46 176.38 104.64 176.38 105.77 176.07 C 106.25 175.96 107.20 175.75 107.68 175.64 Z" />
<path fill="#edffa2" opacity="1.00" d=" M 93.08 174.79 C 94.22 175.23 95.38 175.63 96.56 175.98 C 96.43 177.17 96.25 178.36 96.05 179.55 C 95.32 180.72 94.41 181.75 93.56 182.84 C 93.31 180.16 93.30 177.47 93.08 174.79 Z" />
<path fill="#3f8e9b" opacity="1.00" d=" M 131.45 191.52 C 134.84 189.96 138.43 188.40 142.23 188.45 C 136.90 192.80 130.39 195.25 124.23 198.16 C 120.34 199.86 116.71 202.10 112.81 203.78 C 118.13 198.50 124.83 194.89 131.45 191.52 Z" />
<path fill="#3b8592" opacity="1.00" d=" M 135.29 195.31 C 138.96 193.66 142.08 191.10 145.30 188.72 C 144.87 196.11 141.07 202.89 136.20 208.29 C 129.59 215.42 120.53 219.57 111.55 222.82 C 114.53 220.22 118.28 218.40 120.42 214.95 C 114.94 217.05 109.78 220.48 103.70 220.50 C 103.75 218.66 103.81 216.82 103.88 214.99 C 106.40 213.13 108.95 211.29 111.29 209.20 C 110.67 209.06 109.45 208.79 108.84 208.65 C 117.27 203.47 126.39 199.59 135.29 195.31 Z" />
<path fill="#143f5e" opacity="1.00" d=" M 146.68 193.95 C 147.39 191.89 147.25 188.66 150.17 188.57 C 150.15 193.86 150.21 199.32 148.34 204.35 C 145.21 212.42 139.53 219.39 132.50 224.40 C 124.39 230.15 115.63 234.95 106.68 239.25 C 108.35 233.46 112.35 228.72 116.19 224.23 C 117.73 222.15 120.37 221.64 122.58 220.59 C 133.86 215.67 143.69 206.16 146.68 193.95 Z" />
<path fill="#ffffff" opacity="1.00" d=" M 79.37 228.76 C 88.08 220.61 97.55 212.89 108.84 208.65 C 109.45 208.79 110.67 209.06 111.29 209.20 C 108.95 211.29 106.40 213.13 103.88 214.99 C 101.07 217.49 96.78 219.45 96.40 223.64 C 96.33 225.99 93.85 226.94 92.32 228.29 C 86.80 232.15 82.10 236.99 76.91 241.23 C 78.10 237.81 79.62 234.52 81.03 231.19 C 80.62 230.58 79.78 229.37 79.37 228.76 Z" />
<path fill="#dfff9a" opacity="1.00" d=" M 96.40 223.64 C 96.78 219.45 101.07 217.49 103.88 214.99 C 103.81 216.82 103.75 218.66 103.70 220.50 C 109.78 220.48 114.94 217.05 120.42 214.95 C 118.28 218.40 114.53 220.22 111.55 222.82 C 104.25 227.20 95.89 229.80 89.17 235.20 C 83.60 239.91 77.88 244.77 74.18 251.17 C 72.56 253.84 71.81 256.93 70.26 259.63 C 67.40 263.12 65.10 266.99 62.64 270.74 C 62.68 263.52 62.77 256.04 65.18 249.16 C 68.69 241.63 73.33 234.52 79.37 228.76 C 79.78 229.37 80.62 230.58 81.03 231.19 C 79.62 234.52 78.10 237.81 76.91 241.23 C 82.10 236.99 86.80 232.15 92.32 228.29 C 93.85 226.94 96.33 225.99 96.40 223.64 Z" />
<path fill="#3c8793" opacity="1.00" d=" M 111.86 225.45 C 107.47 231.62 103.71 238.28 101.40 245.53 C 98.99 246.85 96.58 248.16 94.21 249.56 C 92.19 250.77 90.17 251.99 88.24 253.34 C 88.04 247.76 89.18 242.15 91.40 237.04 C 91.78 235.92 92.88 235.34 93.79 234.71 C 99.51 231.06 105.84 228.54 111.86 225.45 Z" />
<path fill="#dfff9a" opacity="1.00" d=" M 40.90 227.96 C 50.26 231.84 60.00 235.73 70.28 235.85 C 68.69 238.43 67.08 241.00 65.49 243.57 C 56.59 239.68 47.86 234.81 40.90 227.96 Z" />
<path fill="#3f8e9b" opacity="1.00" d=" M 83.13 243.64 C 84.72 242.12 86.31 240.60 87.95 239.13 C 87.61 240.63 87.19 242.11 86.68 243.56 C 85.50 243.58 84.31 243.61 83.13 243.64 Z" />
<path fill="#dfff9a" opacity="1.00" d=" M 94.21 249.56 C 96.58 248.16 98.99 246.85 101.40 245.53 C 97.97 259.08 98.32 273.64 103.64 286.67 C 97.34 282.84 93.03 276.51 90.15 269.85 C 90.59 267.75 90.87 265.59 91.58 263.56 C 92.23 261.95 94.76 262.00 95.34 263.57 C 96.13 266.11 96.41 268.82 97.57 271.25 C 97.08 263.94 96.94 256.48 94.21 249.56 Z" />
<path fill="#ffffff" opacity="1.00" d=" M 88.24 253.34 C 90.17 251.99 92.19 250.77 94.21 249.56 C 96.94 256.48 97.08 263.94 97.57 271.25 C 96.41 268.82 96.13 266.11 95.34 263.57 C 94.76 262.00 92.23 261.95 91.58 263.56 C 90.87 265.59 90.59 267.75 90.15 269.85 C 88.58 264.57 87.11 258.84 88.24 253.34 Z" />
<path fill="#3c8894" opacity="1.00" d=" M 62.64 270.74 C 65.10 266.99 67.40 263.12 70.26 259.63 C 67.65 269.90 67.31 280.70 69.79 291.04 C 65.43 285.19 62.85 278.05 62.64 270.74 Z" />
<path fill="#000000" opacity="1.00" d=" M 105.52 329.91 C 122.01 328.35 138.63 329.16 155.05 331.01 C 156.81 331.33 160.81 331.93 159.59 334.54 C 158.42 335.83 156.53 335.81 154.95 336.13 C 147.33 337.14 139.63 336.80 131.97 336.89 C 118.28 336.78 104.55 337.08 90.90 335.78 C 89.91 335.64 88.00 335.42 88.34 333.95 C 88.12 332.60 90.06 332.47 90.91 332.07 C 95.70 330.89 100.63 330.46 105.52 329.91 Z" />
</svg>
