<?xml version="1.0" encoding="UTF-8" ?>
<!DOCTYPE svg PUBLIC "-//W3C//DTD SVG 1.1//EN" "http://www.w3.org/Graphics/SVG/1.1/DTD/svg11.dtd">
<svg width="111pt" height="111pt" viewBox="0 0 111 111" version="1.1" xmlns="http://www.w3.org/2000/svg">
<path fill="#000000" opacity="1.00" d=" M 0.00 0.00 L 1.27 0.00 C 11.43 7.64 20.44 16.68 28.91 26.12 C 27.18 17.51 25.84 8.81 25.59 0.00 L 28.59 0.00 C 29.21 10.80 30.53 21.62 34.05 31.90 C 34.42 32.86 34.99 33.69 35.75 34.40 C 36.16 33.76 37.00 32.48 37.42 31.85 C 38.01 31.07 38.65 30.33 39.26 29.57 C 38.95 24.08 42.18 19.54 45.44 15.48 C 45.90 10.33 44.24 5.18 44.27 0.00 L 47.09 0.00 C 47.50 4.14 47.39 8.32 47.70 12.46 C 48.65 13.83 50.10 11.50 51.06 11.03 C 56.53 8.08 63.40 6.02 69.37 8.79 C 73.04 9.72 75.12 13.18 78.51 14.65 C 80.49 15.34 80.79 17.59 81.55 19.27 C 86.51 21.42 88.85 27.02 88.30 32.20 C 91.60 34.59 93.26 38.22 93.57 42.22 C 98.51 35.45 104.85 29.89 111.00 24.26 L 111.00 28.24 C 104.97 33.84 99.24 39.74 94.00 46.09 C 92.55 47.81 91.33 49.69 90.09 51.57 C 96.89 47.52 104.02 44.08 111.00 40.38 L 111.00 44.22 C 103.48 48.05 95.91 51.78 88.58 55.96 C 91.27 57.31 93.80 59.14 95.26 61.84 C 96.00 65.57 95.86 69.57 93.22 72.54 C 99.14 73.02 105.06 73.74 111.00 73.16 L 111.00 76.35 C 105.63 76.55 100.25 76.28 94.87 76.46 C 99.23 80.46 105.69 78.16 111.00 78.60 L 111.00 81.25 C 105.09 81.76 98.26 82.49 93.51 78.12 C 91.97 76.13 89.71 77.64 87.84 78.22 C 90.22 80.37 92.42 82.70 94.52 85.12 C 98.95 90.19 105.03 93.31 111.00 96.18 L 111.00 98.98 C 107.27 96.44 103.20 94.46 99.40 92.04 L 98.10 91.46 C 96.04 92.58 94.06 93.87 92.27 95.40 C 91.82 95.84 91.37 96.30 90.92 96.75 C 97.00 97.24 102.90 98.81 108.52 101.16 C 109.14 101.38 110.38 101.83 111.00 102.06 L 111.00 106.16 C 105.27 102.91 99.00 100.12 92.32 99.89 L 92.13 101.31 C 91.99 104.79 90.74 108.06 88.93 111.00 L 85.30 111.00 C 86.01 109.77 86.64 108.49 87.32 107.24 C 89.14 104.86 91.12 99.44 86.53 99.12 C 86.17 100.35 85.82 101.59 85.46 102.82 C 84.82 102.03 84.18 101.23 83.54 100.44 C 84.16 99.40 85.38 98.61 85.58 97.40 C 84.21 96.15 82.59 95.23 81.02 94.26 C 81.71 95.30 82.40 96.34 83.11 97.37 C 83.07 97.93 82.98 99.06 82.94 99.63 C 81.64 98.36 80.33 97.11 78.87 96.04 L 77.41 96.06 C 74.56 96.25 72.08 97.74 69.60 99.02 C 69.73 99.85 69.86 100.68 69.99 101.51 C 69.35 101.54 68.07 101.60 67.43 101.63 C 67.41 102.13 67.36 103.14 67.34 103.65 C 67.68 103.78 68.34 104.06 68.68 104.19 C 73.23 105.65 77.23 109.15 82.05 109.38 C 82.39 109.79 83.06 110.60 83.39 111.00 L 75.94 111.00 C 73.79 109.05 71.38 107.42 68.76 106.17 C 66.80 105.67 63.35 103.91 62.82 107.08 C 61.77 108.88 64.56 109.41 65.60 110.21 C 66.02 110.41 66.84 110.80 67.25 111.00 L 58.35 111.00 C 60.89 108.21 62.03 104.35 65.11 102.01 C 65.41 99.49 66.44 97.17 67.79 95.04 C 67.35 94.43 66.47 93.20 66.03 92.59 C 63.16 93.21 60.23 93.14 57.36 92.50 C 57.71 95.89 59.38 98.87 60.92 101.83 C 55.52 101.10 51.31 96.08 49.98 90.98 C 48.66 89.30 46.55 88.49 44.82 87.30 C 44.68 89.28 44.55 91.27 44.40 93.25 C 38.75 93.71 31.15 93.59 28.19 99.42 C 27.60 100.49 26.16 100.36 25.13 100.72 C 23.56 100.90 21.98 101.08 20.40 101.29 C 20.56 104.52 20.98 107.81 20.21 111.00 L 18.20 111.00 C 18.47 107.22 17.20 103.53 17.61 99.75 C 20.01 99.04 22.47 98.54 24.88 97.87 C 26.55 97.08 27.35 95.21 28.50 93.85 C 30.99 92.93 33.42 91.90 35.91 90.98 C 37.85 90.81 39.80 90.73 41.75 90.65 C 42.67 86.33 43.54 81.44 41.00 77.48 C 40.18 79.12 39.60 80.87 39.34 82.69 C 36.49 88.27 29.96 91.34 23.82 90.23 C 22.93 88.79 22.05 87.34 21.26 85.85 C 14.04 84.75 6.94 87.49 0.00 89.12 L 0.00 85.66 C 2.06 84.96 4.19 84.50 6.34 84.19 C 8.28 83.88 10.20 83.47 12.13 83.07 C 17.76 82.81 23.93 80.25 29.27 82.89 C 27.59 83.51 25.90 84.09 24.21 84.70 C 24.61 85.43 25.41 86.89 25.81 87.62 C 28.49 87.58 31.27 87.19 33.39 85.40 C 36.87 83.09 37.88 78.80 38.49 74.94 C 34.44 72.95 30.28 71.09 26.70 68.29 C 24.67 66.45 21.77 67.41 19.54 68.34 C 13.55 70.95 9.70 76.57 6.68 82.11 C 4.52 79.73 5.48 76.50 5.72 73.66 C 8.19 68.61 12.26 64.49 17.14 61.73 C 15.87 59.43 13.49 58.12 11.74 56.23 C 7.20 51.52 3.36 46.17 0.00 40.57 L 0.00 33.45 C 5.18 43.27 11.77 52.57 20.53 59.53 C 22.13 60.23 23.89 58.93 25.50 58.66 C 29.17 57.36 33.26 57.21 36.71 55.44 C 37.11 53.33 34.94 51.86 34.67 49.86 C 34.25 46.16 34.35 42.42 34.43 38.70 C 25.22 24.71 13.04 12.99 0.00 2.59 L 0.00 0.00 M 48.41 16.63 C 40.69 22.65 40.99 33.26 41.71 42.06 C 42.80 44.08 42.48 46.55 43.73 48.54 C 43.33 48.54 42.52 48.54 42.11 48.54 C 40.25 45.30 40.32 41.33 38.61 38.11 C 35.88 44.76 37.31 53.30 43.16 57.80 C 45.10 59.04 45.56 61.49 46.65 63.36 C 45.99 63.37 44.67 63.40 44.01 63.41 C 44.20 63.89 44.58 64.85 44.77 65.33 C 45.32 66.00 45.88 66.65 46.46 67.30 C 42.48 66.70 45.51 69.72 45.92 71.32 C 46.59 71.31 47.27 71.32 47.96 71.34 C 48.62 73.61 49.42 75.89 51.01 77.70 C 52.50 74.67 53.56 71.40 56.02 68.94 C 55.69 68.46 55.04 67.50 54.72 67.02 C 56.08 66.20 56.44 64.59 56.91 63.19 C 56.44 63.53 55.50 64.22 55.03 64.56 C 54.82 63.83 54.57 63.11 54.28 62.40 C 55.55 62.15 56.70 61.64 57.75 60.89 C 57.74 62.68 60.75 62.27 60.88 60.83 C 61.94 57.91 62.25 54.77 62.21 51.67 C 60.96 51.91 59.71 52.12 58.49 52.45 C 61.41 46.13 67.76 42.62 74.01 40.32 C 77.34 39.64 80.71 39.69 83.98 40.68 C 84.74 41.51 85.48 42.36 86.21 43.23 C 84.49 42.96 82.77 42.73 81.03 42.91 C 81.06 44.36 81.09 45.80 81.13 47.24 C 78.88 50.11 76.17 53.69 76.49 57.53 C 78.73 56.44 81.08 55.53 83.18 54.19 C 86.24 50.97 89.05 47.31 90.32 42.99 C 91.03 40.35 90.35 37.58 88.50 35.58 C 84.85 31.18 78.39 31.62 73.91 34.43 C 69.90 36.59 65.03 38.29 62.19 41.88 C 59.59 43.88 57.17 46.18 55.48 49.02 C 55.12 49.64 54.77 50.26 54.43 50.89 C 54.32 50.10 54.11 48.53 54.00 47.74 C 53.29 47.80 51.87 47.91 51.16 47.97 L 51.96 46.83 L 50.74 45.80 C 48.85 31.36 59.59 17.88 72.69 13.02 C 70.57 10.55 67.08 10.27 64.03 10.21 C 58.22 9.91 52.39 12.50 48.41 16.63 M 70.62 16.63 C 63.46 19.93 58.40 26.62 55.28 33.70 C 60.91 27.12 67.61 20.10 76.82 19.41 C 77.07 16.61 72.78 15.52 70.62 16.63 M 70.42 25.33 C 65.12 28.26 60.26 31.96 56.23 36.49 L 56.42 37.41 L 55.71 37.39 C 54.44 40.06 52.89 42.64 52.36 45.60 C 52.93 46.39 53.57 47.13 54.27 47.81 C 54.95 45.89 55.62 43.93 55.61 41.87 L 55.94 43.08 C 57.80 41.73 59.39 39.97 60.62 38.04 C 65.53 36.02 69.95 32.84 75.10 31.30 C 78.51 29.80 82.22 30.46 85.80 30.44 C 84.75 27.43 83.58 23.46 80.01 22.67 C 76.65 22.60 73.43 23.95 70.42 25.33 M 66.09 47.17 C 64.79 48.00 64.61 49.60 64.63 51.01 C 63.94 54.40 63.60 57.94 62.07 61.09 C 61.42 62.71 60.38 64.26 60.32 66.06 C 58.67 68.56 56.97 71.04 55.78 73.81 C 55.49 74.37 54.92 75.50 54.64 76.06 C 51.46 82.54 50.82 91.07 55.66 96.91 C 55.52 93.89 54.11 91.04 54.48 87.98 C 54.35 84.87 56.56 82.29 56.69 79.25 C 63.13 71.39 68.28 61.32 67.83 50.87 C 67.99 50.24 68.31 48.97 68.47 48.34 C 71.22 47.18 74.07 47.95 76.84 48.57 C 79.13 48.07 79.31 43.27 77.10 42.49 C 73.22 43.43 69.39 44.89 66.09 47.17 M 69.84 50.65 C 69.42 54.45 69.81 58.31 68.94 62.05 C 69.86 63.48 69.46 64.76 68.23 65.80 C 67.83 66.44 67.04 67.73 66.64 68.37 L 66.15 68.00 C 65.78 68.81 65.40 69.61 65.02 70.42 C 64.01 72.05 62.45 73.57 62.47 75.63 C 64.52 74.78 66.31 73.47 67.84 71.88 L 68.15 72.03 C 69.49 70.77 71.05 69.57 71.70 67.77 C 73.29 63.69 75.29 59.42 74.07 54.94 C 73.99 52.64 72.12 50.81 69.84 50.65 M 30.92 59.43 C 30.53 59.63 29.74 60.05 29.34 60.25 C 25.49 60.44 21.81 61.76 18.31 63.30 L 18.17 63.27 C 14.31 66.67 10.11 70.07 8.05 74.93 C 10.83 72.07 13.33 68.75 17.06 67.05 C 22.17 64.10 28.25 64.55 33.92 64.25 C 36.69 63.65 39.75 63.19 41.85 61.11 C 40.78 59.57 39.86 57.84 38.23 56.81 C 35.98 58.14 33.46 58.88 30.92 59.43 M 80.19 58.16 L 80.24 58.84 C 78.30 60.79 75.50 62.47 75.28 65.49 C 73.93 68.03 74.08 71.94 76.63 73.80 C 73.98 75.82 72.48 78.85 70.25 81.25 C 68.71 83.18 66.56 84.88 66.17 87.46 C 64.40 88.79 61.52 89.40 61.03 91.82 C 65.58 91.40 70.18 88.74 72.70 84.89 C 75.95 83.52 77.39 79.62 78.31 76.42 C 79.29 76.36 82.36 77.12 81.10 75.08 C 80.58 74.93 79.53 74.62 79.00 74.47 C 77.83 73.26 77.12 71.73 76.53 70.17 C 77.01 69.71 77.99 68.79 78.48 68.33 C 78.58 67.28 78.69 66.23 78.80 65.19 L 79.77 65.14 C 79.62 67.16 79.52 69.18 79.49 71.21 L 79.19 71.92 C 81.16 76.07 86.02 74.64 89.36 73.36 C 89.21 70.60 91.34 67.86 89.88 65.17 C 89.21 63.14 87.01 62.55 85.26 61.81 C 84.98 60.34 85.06 58.75 84.41 57.37 C 82.97 57.34 81.59 57.85 80.19 58.16 M 91.88 61.90 C 91.85 63.60 91.94 65.30 92.09 67.00 C 92.57 67.26 93.54 67.78 94.02 68.03 C 94.31 65.76 94.78 62.62 91.88 61.90 M 37.90 66.04 C 36.64 69.07 39.34 71.49 40.65 73.94 C 40.44 70.67 40.52 67.36 41.68 64.26 C 40.30 64.58 38.52 64.46 37.90 66.04 M 29.15 66.56 C 31.30 67.72 33.34 69.10 35.64 69.95 C 35.67 68.69 35.70 67.43 35.73 66.17 C 33.53 66.23 31.34 66.38 29.15 66.56 M 43.22 73.13 C 44.13 75.76 44.40 78.53 44.72 81.28 C 45.61 82.77 46.73 84.10 47.77 85.49 C 48.21 85.57 49.09 85.73 49.53 85.81 C 49.55 83.65 50.16 81.58 50.83 79.55 C 47.48 78.37 46.73 73.77 43.22 73.13 M 61.62 77.64 C 58.65 79.13 58.75 83.07 58.07 85.89 C 64.03 86.71 65.74 80.32 68.19 76.39 C 65.95 76.36 63.61 76.49 61.62 77.64 M 84.25 78.97 C 84.56 82.02 85.76 84.95 85.58 88.05 C 85.75 89.89 84.23 91.26 83.99 93.03 C 85.32 93.63 86.69 94.16 88.08 94.61 C 90.58 92.84 92.99 90.90 95.77 89.56 C 92.74 86.70 89.63 83.92 87.02 80.67 C 86.40 79.65 85.38 79.17 84.25 78.97 M 78.03 83.97 C 79.21 86.46 79.58 89.19 79.45 91.93 C 84.38 90.86 83.45 84.06 80.70 81.22 C 78.86 80.66 78.70 82.81 78.03 83.97 M 71.19 89.31 C 70.16 90.10 69.22 90.97 68.35 91.93 C 69.67 93.30 71.15 95.18 73.31 94.36 C 74.41 93.79 75.50 93.22 76.62 92.69 C 76.65 90.52 76.66 88.36 76.61 86.20 C 74.60 86.86 73.00 88.27 71.19 89.31 Z" />
<path fill="#ac9587" opacity="1.00" d=" M 28.59 0.00 L 33.88 0.00 C 33.89 10.70 36.34 21.23 37.42 31.85 C 37.00 32.48 36.16 33.76 35.75 34.40 C 34.99 33.69 34.42 32.86 34.05 31.90 C 30.53 21.62 29.21 10.80 28.59 0.00 Z" />
<path fill="#eef2d2" opacity="1.00" d=" M 33.88 0.00 L 44.27 0.00 C 44.24 5.18 45.90 10.33 45.44 15.48 C 42.18 19.54 38.95 24.08 39.26 29.57 C 38.65 30.33 38.01 31.07 37.42 31.85 C 36.34 21.23 33.89 10.70 33.88 0.00 Z" />
<path fill="#030303" opacity="0.49" d=" M 47.09 0.00 L 47.95 0.00 C 48.24 3.94 48.33 7.90 48.47 11.85 C 49.12 11.64 50.41 11.23 51.06 11.03 C 50.10 11.50 48.65 13.83 47.70 12.46 C 47.39 8.32 47.50 4.14 47.09 0.00 Z" />
<path fill="#eef2d2" opacity="1.00" d=" M 0.00 2.59 C 13.04 12.99 25.22 24.71 34.43 38.70 C 34.35 42.42 34.25 46.16 34.67 49.86 C 34.94 51.86 37.11 53.33 36.71 55.44 C 33.26 57.21 29.17 57.36 25.50 58.66 C 20.00 53.06 14.52 47.36 10.37 40.65 C 6.28 34.63 3.57 27.85 0.00 21.54 L 0.00 2.59 Z" />
<path fill="#3e3d49" opacity="1.00" d=" M 48.41 16.63 C 52.39 12.50 58.22 9.91 64.03 10.21 C 67.08 10.27 70.57 10.55 72.69 13.02 C 59.59 17.88 48.85 31.36 50.74 45.80 C 47.70 41.08 49.26 35.48 51.59 30.86 C 53.31 26.41 46.81 27.03 45.28 24.04 C 46.48 21.64 47.46 19.14 48.41 16.63 Z" />
<path fill="#41404d" opacity="1.00" d=" M 70.62 16.63 C 72.78 15.52 77.07 16.61 76.82 19.41 C 67.61 20.10 60.91 27.12 55.28 33.70 C 58.40 26.62 63.46 19.93 70.62 16.63 Z" />
<path fill="#b3b3a2" opacity="1.00" d=" M 41.71 42.06 C 40.99 33.26 40.69 22.65 48.41 16.63 C 47.46 19.14 46.48 21.64 45.28 24.04 C 44.14 27.42 44.26 31.07 43.22 34.49 C 41.58 39.20 43.61 44.01 44.88 48.54 C 44.59 48.54 44.02 48.54 43.73 48.54 C 42.48 46.55 42.80 44.08 41.71 42.06 Z" />
<path fill="#a8ab9d" opacity="1.00" d=" M 0.00 21.54 C 3.57 27.85 6.28 34.63 10.37 40.65 C 14.52 47.36 20.00 53.06 25.50 58.66 C 23.89 58.93 22.13 60.23 20.53 59.53 C 11.77 52.57 5.18 43.27 0.00 33.45 L 0.00 21.54 Z" />
<path fill="#363055" opacity="1.00" d=" M 70.42 25.33 C 73.43 23.95 76.65 22.60 80.01 22.67 C 83.58 23.46 84.75 27.43 85.80 30.44 C 82.22 30.46 78.51 29.80 75.10 31.30 C 69.95 32.84 65.53 36.02 60.62 38.04 C 62.04 33.59 66.49 31.60 69.70 28.66 C 70.85 27.91 70.35 26.44 70.42 25.33 Z" />
<path fill="#585665" opacity="1.00" d=" M 43.22 34.49 C 44.26 31.07 44.14 27.42 45.28 24.04 C 46.81 27.03 53.31 26.41 51.59 30.86 C 49.26 35.48 47.70 41.08 50.74 45.80 L 51.96 46.83 L 51.16 47.97 C 51.87 47.91 53.29 47.80 54.00 47.74 C 54.11 48.53 54.32 50.10 54.43 50.89 C 54.77 50.26 55.12 49.64 55.48 49.02 C 55.82 49.55 56.51 50.60 56.85 51.12 C 57.71 47.52 60.26 44.87 62.19 41.88 C 65.03 38.29 69.90 36.59 73.91 34.43 C 74.98 35.26 76.02 36.13 77.09 36.96 C 76.08 38.10 75.09 39.25 74.01 40.32 C 67.76 42.62 61.41 46.13 58.49 52.45 C 58.40 52.60 58.22 52.91 58.13 53.06 C 58.97 53.82 59.82 54.56 60.68 55.29 C 57.55 57.67 53.75 58.97 50.60 61.32 C 50.62 61.77 50.65 62.65 50.67 63.10 C 51.17 63.20 52.17 63.40 52.67 63.50 C 51.93 64.21 51.16 64.91 50.43 65.65 C 50.35 65.20 50.19 64.31 50.11 63.87 C 49.24 63.76 47.51 63.55 46.64 63.44 L 46.20 65.30 C 45.90 65.05 45.29 64.55 44.99 64.30 L 44.77 65.33 C 44.58 64.85 44.20 63.89 44.01 63.41 C 44.67 63.40 45.99 63.37 46.65 63.36 C 45.56 61.49 45.10 59.04 43.16 57.80 C 37.31 53.30 35.88 44.76 38.61 38.11 C 40.32 41.33 40.25 45.30 42.11 48.54 C 42.52 48.54 43.33 48.54 43.73 48.54 C 44.02 48.54 44.59 48.54 44.88 48.54 C 43.61 44.01 41.58 39.20 43.22 34.49 Z" />
<path fill="#575663" opacity="1.00" d=" M 56.23 36.49 C 60.26 31.96 65.12 28.26 70.42 25.33 C 70.35 26.44 70.85 27.91 69.70 28.66 C 66.49 31.60 62.04 33.59 60.62 38.04 C 59.39 39.97 57.80 41.73 55.94 43.08 L 55.61 41.87 C 55.42 40.18 56.17 38.69 57.24 37.44 C 57.03 37.43 56.62 37.42 56.42 37.41 L 56.23 36.49 Z" />
<path fill="#eff3d3" opacity="1.00" d=" M 94.00 46.09 C 99.24 39.74 104.97 33.84 111.00 28.24 L 111.00 37.19 C 106.66 39.75 102.14 42.04 98.12 45.09 C 96.89 45.82 95.45 47.62 94.00 46.09 Z" />
<path fill="#3e3d49" opacity="1.00" d=" M 73.91 34.43 C 78.39 31.62 84.85 31.18 88.50 35.58 C 86.91 37.20 85.40 38.90 83.98 40.68 C 80.71 39.69 77.34 39.64 74.01 40.32 C 75.09 39.25 76.08 38.10 77.09 36.96 C 76.02 36.13 74.98 35.26 73.91 34.43 Z" />
<path fill="#343d56" opacity="1.00" d=" M 88.50 35.58 C 90.35 37.58 91.03 40.35 90.32 42.99 C 89.05 47.31 86.24 50.97 83.18 54.19 C 81.08 55.53 78.73 56.44 76.49 57.53 C 76.17 53.69 78.88 50.11 81.13 47.24 C 82.99 46.12 84.78 44.88 86.21 43.23 C 85.48 42.36 84.74 41.51 83.98 40.68 C 85.40 38.90 86.91 37.20 88.50 35.58 Z" />
<path fill="#daddc9" opacity="1.00" d=" M 55.71 37.39 L 56.42 37.41 C 56.62 37.42 57.03 37.43 57.24 37.44 C 56.17 38.69 55.42 40.18 55.61 41.87 C 55.62 43.93 54.95 45.89 54.27 47.81 C 53.57 47.13 52.93 46.39 52.36 45.60 C 52.89 42.64 54.44 40.06 55.71 37.39 Z" />
<path fill="#c0c3a0" opacity="1.00" d=" M 98.12 45.09 C 102.14 42.04 106.66 39.75 111.00 37.19 L 111.00 40.38 C 104.02 44.08 96.89 47.52 90.09 51.57 C 91.33 49.69 92.55 47.81 94.00 46.09 C 95.45 47.62 96.89 45.82 98.12 45.09 Z" />
<path fill="#daddc9" opacity="1.00" d=" M 55.48 49.02 C 57.17 46.18 59.59 43.88 62.19 41.88 C 60.26 44.87 57.71 47.52 56.85 51.12 C 56.51 50.60 55.82 49.55 55.48 49.02 Z" />
<path fill="#25203d" opacity="1.00" d=" M 66.09 47.17 C 69.39 44.89 73.22 43.43 77.10 42.49 C 79.31 43.27 79.13 48.07 76.84 48.57 C 74.07 47.95 71.22 47.18 68.47 48.34 C 68.31 48.97 67.99 50.24 67.83 50.87 C 67.03 50.91 65.43 50.97 64.63 51.01 C 64.61 49.60 64.79 48.00 66.09 47.17 Z" />
<path fill="#1f1b33" opacity="1.00" d=" M 81.03 42.91 C 82.77 42.73 84.49 42.96 86.21 43.23 C 84.78 44.88 82.99 46.12 81.13 47.24 C 81.09 45.80 81.06 44.36 81.03 42.91 Z" />
<path fill="#eef2d2" opacity="1.00" d=" M 88.58 55.96 C 95.91 51.78 103.48 48.05 111.00 44.22 L 111.00 63.73 C 105.95 63.50 101.67 60.27 96.67 59.58 C 99.35 61.59 102.80 62.09 105.50 64.05 C 102.92 65.73 99.84 66.15 96.87 66.62 C 96.45 64.99 96.00 63.36 95.26 61.84 C 93.80 59.14 91.27 57.31 88.58 55.96 Z" />
<path fill="#423754" opacity="1.00" d=" M 64.63 51.01 C 65.43 50.97 67.03 50.91 67.83 50.87 C 68.28 61.32 63.13 71.39 56.69 79.25 L 56.75 77.81 C 57.87 73.87 60.34 70.27 60.32 66.06 C 60.38 64.26 61.42 62.71 62.07 61.09 C 63.60 57.94 63.94 54.40 64.63 51.01 Z" />
<path fill="#2b213d" opacity="1.00" d=" M 69.84 50.65 C 72.12 50.81 73.99 52.64 74.07 54.94 C 75.29 59.42 73.29 63.69 71.70 67.77 C 71.05 69.57 69.49 70.77 68.15 72.03 L 67.84 71.88 C 67.14 71.51 65.73 70.78 65.02 70.42 C 65.40 69.61 65.78 68.81 66.15 68.00 L 66.64 68.37 C 66.91 68.55 67.46 68.91 67.74 69.09 C 68.95 68.52 70.68 65.81 68.23 65.80 C 69.46 64.76 69.86 63.48 68.94 62.05 C 69.81 58.31 69.42 54.45 69.84 50.65 Z" />
<path fill="#201f29" opacity="1.00" d=" M 58.13 53.06 C 58.22 52.91 58.40 52.60 58.49 52.45 C 59.71 52.12 60.96 51.91 62.21 51.67 C 62.25 54.77 61.94 57.91 60.88 60.83 C 60.75 62.27 57.74 62.68 57.75 60.89 C 58.00 60.36 58.49 59.31 58.74 58.78 C 56.63 59.31 54.68 60.28 52.96 61.60 C 53.29 61.80 53.95 62.20 54.28 62.40 C 54.57 63.11 54.82 63.83 55.03 64.56 C 53.97 65.35 53.08 66.35 52.69 67.65 C 53.19 67.49 54.21 67.18 54.72 67.02 C 55.04 67.50 55.69 68.46 56.02 68.94 C 54.61 69.24 53.20 69.54 51.79 69.84 C 50.43 67.77 48.34 66.44 46.20 65.30 L 46.64 63.44 C 47.51 63.55 49.24 63.76 50.11 63.87 C 50.19 64.31 50.35 65.20 50.43 65.65 C 51.16 64.91 51.93 64.21 52.67 63.50 C 52.17 63.40 51.17 63.20 50.67 63.10 C 50.65 62.65 50.62 61.77 50.60 61.32 C 53.75 58.97 57.55 57.67 60.68 55.29 C 59.82 54.56 58.97 53.82 58.13 53.06 Z" />
<path fill="#3e3d4a" opacity="1.00" d=" M 30.92 59.43 C 33.46 58.88 35.98 58.14 38.23 56.81 C 39.86 57.84 40.78 59.57 41.85 61.11 C 39.75 63.19 36.69 63.65 33.92 64.25 C 34.59 63.56 35.26 62.89 35.93 62.21 C 34.58 60.76 32.94 59.66 30.92 59.43 Z" />
<path fill="#35375c" opacity="1.00" d=" M 80.19 58.16 C 81.59 57.85 82.97 57.34 84.41 57.37 C 85.06 58.75 84.98 60.34 85.26 61.81 C 87.01 62.55 89.21 63.14 89.88 65.17 C 91.34 67.86 89.21 70.60 89.36 73.36 C 86.02 74.64 81.16 76.07 79.19 71.92 L 79.49 71.21 C 80.01 70.10 80.23 68.89 80.49 67.71 C 81.48 66.73 82.50 65.76 83.51 64.80 C 83.17 64.35 82.49 63.43 82.15 62.97 C 82.24 62.56 82.42 61.73 82.51 61.31 C 81.99 61.42 80.97 61.64 80.45 61.75 C 80.40 61.02 80.30 59.57 80.24 58.84 L 80.19 58.16 Z" />
<path fill="#7b2c5e" opacity="1.00" d=" M 52.96 61.60 C 54.68 60.28 56.63 59.31 58.74 58.78 C 58.49 59.31 58.00 60.36 57.75 60.89 C 56.70 61.64 55.55 62.15 54.28 62.40 C 53.95 62.20 53.29 61.80 52.96 61.60 Z" />
<path fill="#daddc9" opacity="1.00" d=" M 75.28 65.49 C 75.50 62.47 78.30 60.79 80.24 58.84 C 80.30 59.57 80.40 61.02 80.45 61.75 C 80.97 61.64 81.99 61.42 82.51 61.31 C 82.42 61.73 82.24 62.56 82.15 62.97 C 82.49 63.43 83.17 64.35 83.51 64.80 C 82.50 65.76 81.48 66.73 80.49 67.71 C 80.23 68.89 80.01 70.10 79.49 71.21 C 79.52 69.18 79.62 67.16 79.77 65.14 L 78.80 65.19 C 77.62 65.25 76.45 65.33 75.28 65.49 Z" />
<path fill="#aba692" opacity="1.00" d=" M 96.67 59.58 C 101.67 60.27 105.95 63.50 111.00 63.73 L 111.00 73.16 C 105.06 73.74 99.14 73.02 93.22 72.54 C 95.86 69.57 96.00 65.57 95.26 61.84 C 96.00 63.36 96.45 64.99 96.87 66.62 C 99.84 66.15 102.92 65.73 105.50 64.05 C 102.80 62.09 99.35 61.59 96.67 59.58 Z" />
<path fill="#c7ceb0" opacity="1.00" d=" M 18.31 63.30 C 21.81 61.76 25.49 60.44 29.34 60.25 C 26.57 63.01 22.08 64.04 18.31 63.30 Z" />
<path fill="#595765" opacity="1.00" d=" M 29.34 60.25 C 29.74 60.05 30.53 59.63 30.92 59.43 C 32.94 59.66 34.58 60.76 35.93 62.21 C 35.26 62.89 34.59 63.56 33.92 64.25 C 28.25 64.55 22.17 64.10 17.06 67.05 C 13.33 68.75 10.83 72.07 8.05 74.93 C 10.11 70.07 14.31 66.67 18.17 63.27 L 18.31 63.30 C 22.08 64.04 26.57 63.01 29.34 60.25 Z" />
<path fill="#191a27" opacity="1.00" d=" M 91.88 61.90 C 94.78 62.62 94.31 65.76 94.02 68.03 C 93.54 67.78 92.57 67.26 92.09 67.00 C 91.94 65.30 91.85 63.60 91.88 61.90 Z" />
<path fill="#798294" opacity="1.00" d=" M 55.03 64.56 C 55.50 64.22 56.44 63.53 56.91 63.19 C 56.44 64.59 56.08 66.20 54.72 67.02 C 54.21 67.18 53.19 67.49 52.69 67.65 C 53.08 66.35 53.97 65.35 55.03 64.56 Z" />
<path fill="#444c65" opacity="1.00" d=" M 37.90 66.04 C 38.52 64.46 40.30 64.58 41.68 64.26 C 40.52 67.36 40.44 70.67 40.65 73.94 C 39.34 71.49 36.64 69.07 37.90 66.04 Z" />
<path fill="#686e7e" opacity="1.00" d=" M 44.99 64.30 C 45.29 64.55 45.90 65.05 46.20 65.30 C 48.34 66.44 50.43 67.77 51.79 69.84 C 53.20 69.54 54.61 69.24 56.02 68.94 C 53.56 71.40 52.50 74.67 51.01 77.70 C 49.42 75.89 48.62 73.61 47.96 71.34 C 47.27 71.32 46.59 71.31 45.92 71.32 C 45.51 69.72 42.48 66.70 46.46 67.30 C 45.88 66.65 45.32 66.00 44.77 65.33 L 44.99 64.30 Z" />
<path fill="#768092" opacity="1.00" d=" M 75.28 65.49 C 76.45 65.33 77.62 65.25 78.80 65.19 C 78.69 66.23 78.58 67.28 78.48 68.33 C 77.99 68.79 77.01 69.71 76.53 70.17 C 77.12 71.73 77.83 73.26 79.00 74.47 C 78.20 74.28 77.41 74.05 76.63 73.80 C 74.08 71.94 73.93 68.03 75.28 65.49 Z" />
<path fill="#a8ab9d" opacity="1.00" d=" M 29.15 66.56 C 31.34 66.38 33.53 66.23 35.73 66.17 C 35.70 67.43 35.67 68.69 35.64 69.95 C 33.34 69.10 31.30 67.72 29.15 66.56 Z" />
<path fill="#eef2d2" opacity="1.00" d=" M 60.32 66.06 C 60.34 70.27 57.87 73.87 56.75 77.81 C 56.44 78.13 55.83 78.77 55.53 79.09 C 55.22 78.08 54.92 77.07 54.64 76.06 C 54.92 75.50 55.49 74.37 55.78 73.81 C 56.97 71.04 58.67 68.56 60.32 66.06 Z" />
<path fill="#92386a" opacity="1.00" d=" M 68.23 65.80 C 70.68 65.81 68.95 68.52 67.74 69.09 C 67.46 68.91 66.91 68.55 66.64 68.37 C 67.04 67.73 67.83 66.44 68.23 65.80 Z" />
<path fill="#3f3f54" opacity="1.00" d=" M 62.47 75.63 C 62.45 73.57 64.01 72.05 65.02 70.42 C 65.73 70.78 67.14 71.51 67.84 71.88 C 66.31 73.47 64.52 74.78 62.47 75.63 Z" />
<path fill="#7e8698" opacity="1.00" d=" M 43.22 73.13 C 46.73 73.77 47.48 78.37 50.83 79.55 C 50.16 81.58 49.55 83.65 49.53 85.81 C 49.09 85.73 48.21 85.57 47.77 85.49 C 46.73 84.10 45.61 82.77 44.72 81.28 C 44.40 78.53 44.13 75.76 43.22 73.13 Z" />
<path fill="#000001" opacity="0.44" d=" M 6.34 84.19 C 3.85 81.26 3.68 76.87 5.72 73.66 C 5.48 76.50 4.52 79.73 6.68 82.11 C 6.72 82.42 6.81 83.02 6.85 83.33 C 8.61 83.26 10.37 83.21 12.13 83.07 C 10.20 83.47 8.28 83.88 6.34 84.19 Z" />
<path fill="#231f3a" opacity="1.00" d=" M 76.63 73.80 C 77.41 74.05 78.20 74.28 79.00 74.47 C 79.53 74.62 80.58 74.93 81.10 75.08 C 82.36 77.12 79.29 76.36 78.31 76.42 C 77.39 79.62 75.95 83.52 72.70 84.89 C 73.25 83.26 73.64 81.58 73.95 79.89 C 71.17 82.26 69.77 86.09 66.17 87.46 C 66.56 84.88 68.71 83.18 70.25 81.25 C 72.48 78.85 73.98 75.82 76.63 73.80 Z" />
<path fill="#6c6e80" opacity="1.00" d=" M 55.66 96.91 C 50.82 91.07 51.46 82.54 54.64 76.06 C 54.92 77.07 55.22 78.08 55.53 79.09 C 55.83 78.77 56.44 78.13 56.75 77.81 L 56.69 79.25 C 56.56 82.29 54.35 84.87 54.48 87.98 C 54.11 91.04 55.52 93.89 55.66 96.91 Z" />
<path fill="#8e959f" opacity="1.00" d=" M 61.62 77.64 C 63.61 76.49 65.95 76.36 68.19 76.39 C 65.74 80.32 64.03 86.71 58.07 85.89 C 58.75 83.07 58.65 79.13 61.62 77.64 Z" />
<path fill="#4d4b5a" opacity="1.00" d=" M 87.84 78.22 C 89.71 77.64 91.97 76.13 93.51 78.12 C 93.53 78.55 93.55 79.41 93.56 79.84 C 97.89 84.15 104.47 84.49 110.22 84.19 C 109.37 85.44 108.54 86.70 107.77 88.00 C 108.58 88.06 110.19 88.19 111.00 88.26 L 111.00 91.36 C 105.15 90.18 100.35 86.23 94.52 85.12 C 92.42 82.70 90.22 80.37 87.84 78.22 Z" />
<path fill="#34314f" opacity="1.00" d=" M 39.34 82.69 C 39.60 80.87 40.18 79.12 41.00 77.48 C 43.54 81.44 42.67 86.33 41.75 90.65 C 39.80 90.73 37.85 90.81 35.91 90.98 C 37.14 89.90 38.42 88.80 39.31 87.39 C 39.67 85.85 39.35 84.25 39.34 82.69 Z" />
<path fill="#c7ceb0" opacity="1.00" d=" M 93.56 79.84 C 93.55 79.41 93.53 78.55 93.51 78.12 C 98.26 82.49 105.09 81.76 111.00 81.25 L 111.00 82.96 C 110.80 83.27 110.41 83.89 110.22 84.19 C 104.47 84.49 97.89 84.15 93.56 79.84 Z" />
<path fill="#768092" opacity="1.00" d=" M 66.17 87.46 C 69.77 86.09 71.17 82.26 73.95 79.89 C 73.64 81.58 73.25 83.26 72.70 84.89 C 70.18 88.74 65.58 91.40 61.03 91.82 C 61.52 89.40 64.40 88.79 66.17 87.46 Z" />
<path fill="#25203d" opacity="1.00" d=" M 78.03 83.97 C 78.70 82.81 78.86 80.66 80.70 81.22 C 83.45 84.06 84.38 90.86 79.45 91.93 C 79.58 89.19 79.21 86.46 78.03 83.97 Z" />
<path fill="#656473" opacity="1.00" d=" M 39.34 82.69 C 39.35 84.25 39.67 85.85 39.31 87.39 C 38.42 88.80 37.14 89.90 35.91 90.98 C 33.42 91.90 30.99 92.93 28.50 93.85 C 26.90 93.71 25.29 93.60 23.73 93.20 C 22.98 92.28 23.60 91.21 23.82 90.23 C 29.96 91.34 36.49 88.27 39.34 82.69 Z" />
<path fill="#000000" opacity="1.00" d=" M 110.22 84.19 C 110.41 83.89 110.80 83.27 111.00 82.96 L 111.00 88.26 C 110.19 88.19 108.58 88.06 107.77 88.00 C 108.54 86.70 109.37 85.44 110.22 84.19 Z" />
<path fill="#342f4e" opacity="1.00" d=" M 94.52 85.12 C 100.35 86.23 105.15 90.18 111.00 91.36 L 111.00 96.18 C 105.03 93.31 98.95 90.19 94.52 85.12 Z" />
<path fill="#5f5e6d" opacity="1.00" d=" M 0.00 89.12 C 6.94 87.49 14.04 84.75 21.26 85.85 C 19.78 87.23 17.99 88.19 16.33 89.32 C 16.43 90.95 17.08 92.46 17.61 93.99 C 16.31 96.21 14.01 95.67 12.18 94.50 C 8.26 96.20 4.29 97.96 0.00 98.46 L 0.00 89.12 Z" />
<path fill="#37314f" opacity="1.00" d=" M 21.26 85.85 C 22.05 87.34 22.93 88.79 23.82 90.23 C 23.60 91.21 22.98 92.28 23.73 93.20 C 25.29 93.60 26.90 93.71 28.50 93.85 C 27.35 95.21 26.55 97.08 24.88 97.87 C 22.47 98.54 20.01 99.04 17.61 99.75 C 17.20 103.53 18.47 107.22 18.20 111.00 L 7.02 111.00 C 6.36 109.70 5.79 108.36 5.18 107.04 C 6.23 105.36 7.30 103.69 8.37 102.02 C 5.62 100.77 2.81 99.64 0.00 98.51 L 0.00 98.46 C 4.29 97.96 8.26 96.20 12.18 94.50 C 14.01 95.67 16.31 96.21 17.61 93.99 C 17.08 92.46 16.43 90.95 16.33 89.32 C 17.99 88.19 19.78 87.23 21.26 85.85 Z" />
<path fill="#343150" opacity="1.00" d=" M 71.19 89.31 C 73.00 88.27 74.60 86.86 76.61 86.20 C 76.66 88.36 76.65 90.52 76.62 92.69 C 75.50 93.22 74.41 93.79 73.31 94.36 C 73.55 93.71 74.04 92.40 74.28 91.75 C 73.31 90.85 72.29 90.03 71.19 89.31 Z" />
<path fill="#4e5268" opacity="1.00" d=" M 68.35 91.93 C 69.22 90.97 70.16 90.10 71.19 89.31 C 72.29 90.03 73.31 90.85 74.28 91.75 C 74.04 92.40 73.55 93.71 73.31 94.36 C 71.15 95.18 69.67 93.30 68.35 91.93 Z" />
<path fill="#3d3c4a" opacity="1.00" d=" M 92.27 95.40 C 94.06 93.87 96.04 92.58 98.10 91.46 L 99.40 92.04 C 97.65 93.90 95.06 97.25 92.27 95.40 Z" />
<path fill="#231e3a" opacity="1.00" d=" M 99.40 92.04 C 103.20 94.46 107.27 96.44 111.00 98.98 L 111.00 100.18 C 110.38 100.43 109.14 100.92 108.52 101.16 C 102.90 98.81 97.00 97.24 90.92 96.75 C 91.37 96.30 91.82 95.84 92.27 95.40 C 95.06 97.25 97.65 93.90 99.40 92.04 Z" />
<path fill="#44425d" opacity="1.00" d=" M 83.11 97.37 C 82.40 96.34 81.71 95.30 81.02 94.26 C 82.59 95.23 84.21 96.15 85.58 97.40 C 85.38 98.61 84.16 99.40 83.54 100.44 C 84.07 103.53 82.77 106.45 82.05 109.38 C 77.23 109.15 73.23 105.65 68.68 104.19 C 72.29 104.53 75.85 105.27 79.47 105.49 C 79.79 102.13 77.17 99.42 77.41 96.06 L 78.87 96.04 C 80.33 97.11 81.64 98.36 82.94 99.63 C 82.98 99.06 83.07 97.93 83.11 97.37 Z" />
<path fill="#798294" opacity="1.00" d=" M 69.60 99.02 C 72.08 97.74 74.56 96.25 77.41 96.06 C 77.17 99.42 79.79 102.13 79.47 105.49 C 75.85 105.27 72.29 104.53 68.68 104.19 C 68.34 104.06 67.68 103.78 67.34 103.65 C 67.36 103.14 67.41 102.13 67.43 101.63 C 68.07 101.60 69.35 101.54 69.99 101.51 C 69.86 100.68 69.73 99.85 69.60 99.02 Z" />
<path fill="#000000" opacity="1.00" d=" M 0.00 98.51 C 2.81 99.64 5.62 100.77 8.37 102.02 C 7.30 103.69 6.23 105.36 5.18 107.04 C 5.79 108.36 6.36 109.70 7.02 111.00 L 4.65 111.00 C 4.76 108.22 2.38 107.00 0.00 106.65 L 0.00 105.09 C 0.48 105.09 1.43 105.08 1.91 105.08 C 3.13 104.65 4.35 104.22 5.57 103.77 C 4.90 103.16 4.22 102.55 3.54 101.95 C 2.89 101.72 1.58 101.27 0.93 101.04 L 0.00 101.02 L 0.00 98.51 Z" />
<path fill="#232233" opacity="1.00" d=" M 86.53 99.12 C 91.12 99.44 89.14 104.86 87.32 107.24 C 87.29 106.34 87.22 104.53 87.18 103.62 C 85.01 105.50 84.54 108.46 83.53 111.00 L 83.39 111.00 C 83.06 110.60 82.39 109.79 82.05 109.38 C 82.77 106.45 84.07 103.53 83.54 100.44 C 84.18 101.23 84.82 102.03 85.46 102.82 C 85.82 101.59 86.17 100.35 86.53 99.12 Z" />
<path fill="#3d3d57" opacity="1.00" d=" M 92.32 99.89 C 99.00 100.12 105.27 102.91 111.00 106.16 L 111.00 111.00 L 99.54 111.00 C 101.17 109.19 104.28 108.06 104.67 105.49 C 100.84 103.21 96.40 102.40 92.13 101.31 L 92.32 99.89 Z" />
<path fill="#3e3b4d" opacity="1.00" d=" M 108.52 101.16 C 109.14 100.92 110.38 100.43 111.00 100.18 L 111.00 102.06 C 110.38 101.83 109.14 101.38 108.52 101.16 Z" />
<path fill="#4a2b47" opacity="1.00" d=" M 0.00 101.02 L 0.93 101.04 C -0.00 102.88 3.11 103.96 3.54 101.95 C 4.22 102.55 4.90 103.16 5.57 103.77 C 4.35 104.22 3.13 104.65 1.91 105.08 C 1.43 104.88 0.48 104.49 0.00 104.29 L 0.00 101.02 Z" />
<path fill="#815a70" opacity="1.00" d=" M 0.93 101.04 C 1.58 101.27 2.89 101.72 3.54 101.95 C 3.11 103.96 -0.00 102.88 0.93 101.04 Z" />
<path fill="#000001" opacity="0.48" d=" M 20.40 101.29 C 21.98 101.08 23.56 100.90 25.13 100.72 C 23.83 101.13 22.56 101.66 21.27 102.13 C 21.36 105.08 21.44 108.04 21.54 111.00 L 20.21 111.00 C 20.98 107.81 20.56 104.52 20.40 101.29 Z" />
<path fill="#241f3a" opacity="1.00" d=" M 92.13 101.31 C 96.40 102.40 100.84 103.21 104.67 105.49 C 104.28 108.06 101.17 109.19 99.54 111.00 L 88.93 111.00 C 90.74 108.06 91.99 104.79 92.13 101.31 Z" />
<path fill="#855a78" opacity="1.00" d=" M 0.00 104.29 C 0.48 104.49 1.43 104.88 1.91 105.08 C 1.43 105.08 0.48 105.09 0.00 105.09 L 0.00 104.29 Z" />
<path fill="#768092" opacity="1.00" d=" M 83.53 111.00 C 84.54 108.46 85.01 105.50 87.18 103.62 C 87.22 104.53 87.29 106.34 87.32 107.24 C 86.64 108.49 86.01 109.77 85.30 111.00 L 83.53 111.00 Z" />
<path fill="#47404e" opacity="1.00" d=" M 62.82 107.08 C 63.35 103.91 66.80 105.67 68.76 106.17 C 67.67 107.48 66.61 108.83 65.60 110.21 C 64.56 109.41 61.77 108.88 62.82 107.08 Z" />
<path fill="#383053" opacity="1.00" d=" M 0.00 106.65 C 2.38 107.00 4.76 108.22 4.65 111.00 L 0.00 111.00 L 0.00 106.65 Z" />
<path fill="#788195" opacity="1.00" d=" M 65.60 110.21 C 66.61 108.83 67.67 107.48 68.76 106.17 C 71.38 107.42 73.79 109.05 75.94 111.00 L 67.25 111.00 C 66.84 110.80 66.02 110.41 65.60 110.21 Z" />
</svg>
