<?xml version="1.0" encoding="UTF-8" ?>
<!DOCTYPE svg PUBLIC "-//W3C//DTD SVG 1.1//EN" "http://www.w3.org/Graphics/SVG/1.1/DTD/svg11.dtd">
<svg width="111pt" height="111pt" viewBox="0 0 111 111" version="1.1" xmlns="http://www.w3.org/2000/svg">
<path fill="#030102" opacity="1.00" d=" M 83.65 0.00 L 85.56 0.00 C 84.98 3.19 85.21 6.44 85.74 9.61 C 83.44 9.47 81.05 9.04 78.84 9.91 C 74.64 11.62 72.69 16.05 72.06 20.27 C 71.58 22.31 73.19 24.03 73.93 25.80 C 79.31 25.71 84.63 26.55 89.97 26.95 C 94.05 27.14 95.13 31.99 98.48 33.64 C 100.34 34.39 102.35 34.57 104.34 34.58 C 104.47 34.85 104.72 35.39 104.85 35.66 C 103.11 35.73 101.40 36.12 99.67 36.12 C 94.56 35.22 93.46 28.16 87.94 28.21 C 86.63 28.04 85.31 27.89 84.00 27.76 C 79.40 27.20 74.74 27.35 70.17 28.10 C 63.39 29.28 56.86 31.62 50.53 34.29 C 45.74 36.39 40.85 38.42 36.57 41.47 C 30.84 46.08 28.24 53.46 28.67 60.69 L 28.61 61.40 C 29.38 61.44 30.91 61.52 31.68 61.56 C 40.61 63.95 49.53 66.54 58.69 67.94 C 58.71 65.18 58.71 62.43 58.67 59.67 C 58.84 59.66 59.20 59.63 59.38 59.62 C 61.40 56.11 61.28 52.01 62.91 48.39 L 61.64 47.89 C 61.92 47.76 62.47 47.50 62.74 47.37 C 63.08 47.60 63.76 48.07 64.10 48.30 C 64.88 47.55 65.67 46.81 66.47 46.08 L 68.25 45.96 C 66.67 47.19 65.16 48.51 63.66 49.83 C 63.55 51.86 63.42 53.90 63.14 55.92 C 62.54 59.41 62.19 62.94 61.63 66.44 C 61.31 67.63 60.90 68.79 60.58 69.98 C 58.92 69.68 57.27 69.40 55.61 69.14 C 46.45 67.54 37.63 64.49 28.53 62.58 C 28.34 64.80 28.37 67.09 27.57 69.20 C 27.37 61.34 26.81 52.94 30.43 45.70 C 28.25 47.62 26.05 49.53 24.14 51.72 C 22.48 53.52 21.21 55.62 19.84 57.63 C 18.94 58.89 18.10 60.18 17.26 61.47 C 15.53 64.50 12.69 67.21 12.66 70.91 C 12.67 72.54 12.69 74.17 12.76 75.79 C 13.07 76.38 13.69 77.54 14.00 78.13 C 18.40 78.98 22.91 78.03 27.35 78.53 C 31.32 78.98 35.28 79.61 39.28 79.78 C 40.81 80.10 42.33 80.44 43.86 80.79 C 37.03 80.97 30.19 80.75 23.44 79.65 C 23.71 80.12 24.26 81.06 24.53 81.53 C 26.50 84.88 28.35 88.40 31.15 91.16 C 34.65 91.06 37.83 89.05 41.32 88.63 C 41.48 90.02 41.62 91.42 41.73 92.82 C 41.27 94.99 40.57 97.10 39.96 99.24 C 37.84 103.79 33.35 106.24 29.16 108.54 C 27.00 108.79 24.79 108.71 22.83 107.65 C 22.52 107.52 21.90 107.25 21.58 107.12 C 21.28 108.41 20.95 109.71 20.60 111.00 L 16.00 111.00 C 15.52 109.66 15.13 108.12 13.88 107.27 C 13.02 108.44 12.90 109.68 13.52 111.00 L 11.06 111.00 C 11.82 109.00 12.43 106.93 13.36 105.00 C 15.14 106.02 16.03 107.99 17.23 109.56 C 19.83 107.71 21.26 104.85 21.68 101.73 C 18.27 100.95 14.75 100.41 11.65 98.72 C 15.36 98.23 19.12 98.29 22.84 97.81 C 25.99 97.38 27.56 94.25 29.37 92.02 C 26.89 88.34 24.50 84.60 21.95 80.98 C 21.27 80.94 19.92 80.85 19.24 80.80 C 16.18 80.73 13.11 80.07 10.71 78.07 L 10.76 76.79 C 10.88 74.10 10.86 71.40 10.75 68.71 C 11.45 67.49 12.15 66.27 12.88 65.08 C 13.76 63.68 14.67 62.31 15.58 60.94 C 14.38 59.98 13.18 59.02 11.93 58.11 C 8.05 55.01 3.96 52.18 0.00 49.17 L 0.00 46.88 C 5.66 50.98 11.36 55.03 16.64 59.63 C 18.61 56.44 20.64 53.29 22.78 50.22 C 24.99 48.02 27.33 45.95 29.64 43.86 C 34.28 40.21 39.43 37.28 44.77 34.78 C 44.33 32.73 43.67 30.69 43.61 28.58 C 47.39 23.63 53.07 20.07 59.12 18.63 C 63.02 17.64 66.75 19.62 70.27 21.02 C 70.84 17.07 72.04 12.89 75.32 10.31 C 77.56 8.19 80.70 7.69 83.65 7.49 C 83.57 5.00 83.58 2.50 83.65 0.00 M 57.36 21.46 C 54.94 21.64 52.89 23.23 50.69 24.11 L 50.65 24.21 C 48.49 25.83 45.27 27.29 45.17 30.40 C 45.59 31.57 46.01 32.74 46.42 33.91 C 49.61 32.28 53.33 31.52 56.26 29.55 C 57.80 30.09 59.26 29.22 60.68 28.76 C 64.40 27.23 68.39 26.61 72.29 25.75 C 71.68 22.23 67.84 21.98 65.11 20.90 C 62.58 19.98 59.29 18.73 57.36 21.46 M 33.24 92.38 C 33.37 94.09 33.50 95.80 33.65 97.52 C 30.82 98.75 27.70 98.99 24.73 99.75 C 24.75 102.11 24.07 104.33 22.53 106.15 C 28.02 108.45 33.08 104.45 36.68 100.67 C 39.45 97.90 39.98 93.85 40.50 90.17 C 38.06 90.81 35.64 91.56 33.24 92.38 Z" />
<path fill="#aecb83" opacity="1.00" d=" M 85.56 0.00 L 95.55 0.00 C 94.73 0.42 92.92 2.50 94.56 2.91 C 95.93 2.59 96.35 1.07 96.99 0.00 L 106.68 0.00 C 106.03 4.18 106.14 8.44 105.39 12.59 C 104.47 14.49 103.12 16.13 102.05 17.94 C 99.79 22.00 98.02 26.52 94.29 29.53 C 94.62 27.59 94.98 25.65 95.37 23.72 C 94.02 24.37 92.86 26.41 91.17 25.79 C 91.22 25.03 91.30 24.27 91.42 23.51 C 90.95 23.61 90.01 23.80 89.54 23.90 C 89.45 22.54 89.36 21.17 89.27 19.80 C 88.04 21.77 87.50 24.77 85.22 25.73 C 84.77 23.65 85.96 21.68 86.54 19.74 C 84.19 21.70 82.27 24.73 79.17 25.41 C 79.17 23.07 80.12 20.83 80.46 18.52 C 78.46 20.92 77.49 24.37 74.43 25.69 C 73.84 21.86 74.48 17.97 76.25 14.53 C 78.07 12.47 80.78 11.59 83.43 11.18 C 83.45 10.66 83.45 10.14 83.45 9.61 C 82.30 9.69 79.99 9.83 78.84 9.91 C 81.05 9.04 83.44 9.47 85.74 9.61 C 85.21 6.44 84.98 3.19 85.56 0.00 Z" />
<path fill="#f4f0b9" opacity="1.00" d=" M 95.55 0.00 L 96.99 0.00 C 96.35 1.07 95.93 2.59 94.56 2.91 C 92.92 2.50 94.73 0.42 95.55 0.00 Z" />
<path fill="#649d7a" opacity="1.00" d=" M 106.68 0.00 L 107.61 0.00 C 107.90 1.21 108.21 2.41 108.54 3.60 L 109.21 4.90 C 109.45 7.54 109.42 10.19 109.50 12.83 C 107.33 15.04 105.30 17.38 103.34 19.78 C 103.02 19.32 102.38 18.40 102.05 17.94 C 103.12 16.13 104.47 14.49 105.39 12.59 C 106.14 8.44 106.03 4.18 106.68 0.00 Z" />
<path fill="#030102" opacity="1.00" d=" M 107.61 0.00 L 111.00 0.00 L 111.00 0.35 C 110.36 1.85 109.76 3.37 109.21 4.90 L 108.54 3.60 C 108.21 2.41 107.90 1.21 107.61 0.00 Z" />
<path fill="#fffff1" opacity="1.00" d=" M 109.21 4.90 C 109.76 3.37 110.36 1.85 111.00 0.35 L 111.00 16.58 C 110.51 15.56 110.01 14.53 109.52 13.51 L 109.50 12.83 C 109.42 10.19 109.45 7.54 109.21 4.90 Z" />
<path fill="#fffff1" opacity="1.00" d=" M 72.06 20.27 C 72.69 16.05 74.64 11.62 78.84 9.91 C 79.99 9.83 82.30 9.69 83.45 9.61 C 83.45 10.14 83.45 10.66 83.43 11.18 C 80.78 11.59 78.07 12.47 76.25 14.53 C 74.65 16.28 73.23 18.20 72.06 20.27 Z" />
<path fill="#4c8b78" opacity="1.00" d=" M 103.34 19.78 C 105.30 17.38 107.33 15.04 109.50 12.83 L 109.52 13.51 C 108.87 17.19 108.49 21.03 111.00 24.13 L 111.00 28.22 C 109.95 28.66 108.90 29.10 107.86 29.55 C 107.12 27.96 106.38 26.37 105.64 24.78 C 103.66 28.04 101.52 31.27 98.48 33.64 C 95.13 31.99 94.05 27.14 89.97 26.95 C 84.63 26.55 79.31 25.71 73.93 25.80 C 73.19 24.03 71.58 22.31 72.06 20.27 C 73.23 18.20 74.65 16.28 76.25 14.53 C 74.48 17.97 73.84 21.86 74.43 25.69 C 77.49 24.37 78.46 20.92 80.46 18.52 C 80.12 20.83 79.17 23.07 79.17 25.41 C 82.27 24.73 84.19 21.70 86.54 19.74 C 85.96 21.68 84.77 23.65 85.22 25.73 C 87.50 24.77 88.04 21.77 89.27 19.80 C 89.36 21.17 89.45 22.54 89.54 23.90 C 90.01 23.80 90.95 23.61 91.42 23.51 C 91.30 24.27 91.22 25.03 91.17 25.79 C 92.86 26.41 94.02 24.37 95.37 23.72 C 94.98 25.65 94.62 27.59 94.29 29.53 C 98.02 26.52 99.79 22.00 102.05 17.94 C 102.38 18.40 103.02 19.32 103.34 19.78 Z" />
<path fill="#aac982" opacity="1.00" d=" M 109.52 13.51 C 110.01 14.53 110.51 15.56 111.00 16.58 L 111.00 24.13 C 108.49 21.03 108.87 17.19 109.52 13.51 Z" />
<path fill="#5e344f" opacity="1.00" d=" M 57.36 21.46 C 59.29 18.73 62.58 19.98 65.11 20.90 C 67.84 21.98 71.68 22.23 72.29 25.75 C 68.39 26.61 64.40 27.23 60.68 28.76 C 59.26 29.22 57.80 30.09 56.26 29.55 L 56.97 28.63 C 57.14 28.41 57.49 27.98 57.66 27.77 L 57.74 27.74 C 60.91 27.55 63.61 25.36 63.06 21.91 C 61.77 21.78 60.49 21.67 59.20 21.57 C 58.74 21.54 57.82 21.48 57.36 21.46 Z" />
<path fill="#c3937e" opacity="1.00" d=" M 50.69 24.11 C 52.89 23.23 54.94 21.64 57.36 21.46 C 57.82 21.48 58.74 21.54 59.20 21.57 C 55.94 22.61 52.31 25.14 52.25 28.90 C 53.62 29.91 55.51 29.06 56.97 28.63 L 56.26 29.55 C 53.33 31.52 49.61 32.28 46.42 33.91 C 46.01 32.74 45.59 31.57 45.17 30.40 C 47.57 28.93 50.17 27.23 50.65 24.21 L 50.69 24.11 Z" />
<path fill="#000000" opacity="1.00" d=" M 52.25 28.90 C 52.31 25.14 55.94 22.61 59.20 21.57 C 60.49 21.67 61.77 21.78 63.06 21.91 C 63.61 25.36 60.91 27.55 57.74 27.74 C 59.47 26.67 60.71 25.11 61.35 23.19 C 57.86 23.64 54.41 25.24 53.09 28.77 C 54.62 28.45 56.14 28.12 57.66 27.77 C 57.49 27.98 57.14 28.41 56.97 28.63 C 55.51 29.06 53.62 29.91 52.25 28.90 Z" />
<path fill="#b11786" opacity="1.00" d=" M 53.09 28.77 C 54.41 25.24 57.86 23.64 61.35 23.19 C 60.71 25.11 59.47 26.67 57.74 27.74 L 57.66 27.77 C 56.14 28.12 54.62 28.45 53.09 28.77 Z" />
<path fill="#ecd5ad" opacity="1.00" d=" M 45.17 30.40 C 45.27 27.29 48.49 25.83 50.65 24.21 C 50.17 27.23 47.57 28.93 45.17 30.40 Z" />
<path fill="#6da27c" opacity="1.00" d=" M 98.48 33.64 C 101.52 31.27 103.66 28.04 105.64 24.78 C 106.38 26.37 107.12 27.96 107.86 29.55 C 108.90 29.10 109.95 28.66 111.00 28.22 L 111.00 32.16 C 109.50 33.49 107.90 34.71 106.23 35.82 L 104.85 35.66 C 104.72 35.39 104.47 34.85 104.34 34.58 C 102.35 34.57 100.34 34.39 98.48 33.64 Z" />
<path fill="#cd9c83" opacity="1.00" d=" M 50.53 34.29 C 56.86 31.62 63.39 29.28 70.17 28.10 C 70.27 28.47 70.47 29.21 70.57 29.58 C 68.78 30.18 66.98 30.77 65.18 31.37 C 65.20 33.20 65.21 35.03 65.23 36.86 C 66.97 37.26 68.71 37.65 70.45 38.05 C 67.52 40.83 64.98 44.00 62.74 47.37 C 62.47 47.50 61.92 47.76 61.64 47.89 L 62.91 48.39 C 61.28 52.01 61.40 56.11 59.38 59.62 C 59.20 59.63 58.84 59.66 58.67 59.67 C 49.67 60.40 40.61 60.07 31.68 61.56 C 30.91 61.52 29.38 61.44 28.61 61.40 L 28.67 60.69 C 30.14 55.06 31.13 48.78 35.34 44.43 C 39.76 40.59 45.42 38.67 50.46 35.83 C 50.48 35.45 50.51 34.67 50.53 34.29 M 49.03 42.53 C 43.16 43.15 39.02 48.07 35.90 52.66 C 38.58 50.60 40.68 47.71 43.90 46.45 C 45.42 45.78 46.60 44.59 47.85 43.55 C 50.59 42.74 52.87 40.94 54.96 39.06 C 52.80 39.88 51.02 41.39 49.03 42.53 Z" />
<path fill="#bc8d7b" opacity="1.00" d=" M 70.17 28.10 C 74.74 27.35 79.40 27.20 84.00 27.76 C 79.68 31.48 74.19 33.60 70.45 38.05 C 68.71 37.65 66.97 37.26 65.23 36.86 C 65.21 35.03 65.20 33.20 65.18 31.37 C 66.98 30.77 68.78 30.18 70.57 29.58 C 70.47 29.21 70.27 28.47 70.17 28.10 Z" />
<path fill="#5e364f" opacity="1.00" d=" M 84.00 27.76 C 85.31 27.89 86.63 28.04 87.94 28.21 C 84.78 31.31 81.41 34.20 78.06 37.08 C 74.17 40.05 69.85 42.48 66.47 46.08 C 65.67 46.81 64.88 47.55 64.10 48.30 C 63.76 48.07 63.08 47.60 62.74 47.37 C 64.98 44.00 67.52 40.83 70.45 38.05 C 74.19 33.60 79.68 31.48 84.00 27.76 Z" />
<path fill="#240d1e" opacity="1.00" d=" M 87.94 28.21 C 93.46 28.16 94.56 35.22 99.67 36.12 C 101.40 36.12 103.11 35.73 104.85 35.66 L 106.23 35.82 C 103.55 37.81 100.53 39.54 98.55 42.29 C 100.41 50.90 104.63 59.03 109.98 66.04 C 109.17 68.41 108.62 70.98 107.10 73.03 C 104.68 75.58 101.10 76.33 97.92 77.50 C 99.94 74.13 103.34 71.91 105.50 68.68 C 105.80 66.16 105.04 63.67 104.67 61.21 C 104.00 61.16 102.66 61.05 101.99 61.00 C 99.74 64.50 99.90 68.71 99.37 72.66 C 99.33 74.32 97.43 74.49 96.17 74.64 C 96.88 71.15 97.24 67.61 97.19 64.06 C 95.61 64.92 94.05 65.80 92.49 66.69 C 86.41 70.61 79.55 73.24 73.88 77.78 C 71.07 79.94 68.47 82.36 66.01 84.91 C 64.30 85.44 62.56 85.91 60.84 86.41 C 55.32 87.99 49.85 89.72 44.44 91.61 C 46.32 87.90 50.98 87.67 54.41 86.15 C 58.28 85.25 62.22 84.51 65.92 83.02 C 69.41 81.72 70.92 77.98 73.84 75.91 C 77.36 73.48 81.26 71.68 84.95 69.54 C 87.24 68.35 89.41 66.96 91.51 65.46 C 90.67 65.27 88.98 64.89 88.14 64.71 C 89.42 63.14 90.70 61.58 92.03 60.05 C 94.73 56.98 97.88 53.89 98.22 49.56 C 96.97 49.84 95.71 50.11 94.45 50.38 C 95.88 47.27 98.06 43.71 96.24 40.28 L 96.16 40.05 C 95.55 38.57 94.88 37.12 94.22 35.67 C 93.18 36.10 92.13 36.54 91.09 36.98 C 91.63 36.02 92.17 35.07 92.71 34.11 C 92.16 33.15 91.61 32.20 91.06 31.25 C 87.89 32.07 84.84 33.32 82.03 35.02 C 82.02 36.95 82.00 38.89 81.98 40.83 C 82.79 40.99 84.42 41.31 85.23 41.47 C 83.09 42.85 80.90 44.15 78.65 45.34 L 78.86 44.16 C 79.02 43.34 79.32 41.70 79.47 40.89 C 79.80 39.82 80.13 38.76 80.45 37.69 C 76.09 40.00 72.37 43.28 68.25 45.96 L 66.47 46.08 C 69.85 42.48 74.17 40.05 78.06 37.08 C 81.41 34.20 84.78 31.31 87.94 28.21 Z" />
<path fill="#572f4b" opacity="1.00" d=" M 82.03 35.02 C 84.84 33.32 87.89 32.07 91.06 31.25 C 91.61 32.20 92.16 33.15 92.71 34.11 C 92.17 35.07 91.63 36.02 91.09 36.98 C 92.13 36.54 93.18 36.10 94.22 35.67 C 94.88 37.12 95.55 38.57 96.16 40.05 C 94.97 41.09 93.78 42.12 92.58 43.16 C 92.65 41.42 92.71 39.67 92.77 37.93 C 89.62 40.03 86.36 42.34 84.85 45.96 C 82.37 51.49 78.38 56.92 79.42 63.33 C 84.80 58.01 85.71 49.37 91.87 44.72 C 89.73 51.53 84.12 56.82 83.14 64.08 C 86.93 55.85 91.30 47.88 96.24 40.28 C 98.06 43.71 95.88 47.27 94.45 50.38 C 92.75 52.77 91.05 55.17 89.69 57.78 C 90.47 58.53 91.25 59.29 92.03 60.05 C 90.70 61.58 89.42 63.14 88.14 64.71 C 88.98 64.89 90.67 65.27 91.51 65.46 C 89.41 66.96 87.24 68.35 84.95 69.54 C 79.01 68.94 74.78 74.40 69.77 76.61 C 66.69 76.76 63.70 75.76 60.69 75.24 C 60.59 73.49 60.48 71.73 60.58 69.98 C 60.90 68.79 61.31 67.63 61.63 66.44 C 66.11 63.74 69.62 59.79 72.91 55.79 C 75.61 52.35 78.39 48.66 78.86 44.16 L 78.65 45.34 C 80.90 44.15 83.09 42.85 85.23 41.47 C 84.42 41.31 82.79 40.99 81.98 40.83 C 82.00 38.89 82.02 36.95 82.03 35.02 M 80.52 46.14 C 79.71 46.41 78.10 48.38 79.58 48.73 C 81.19 48.95 83.21 45.17 80.52 46.14 Z" />
<path fill="#000000" opacity="1.00" d=" M 106.23 35.82 C 107.90 34.71 109.50 33.49 111.00 32.16 L 111.00 35.34 C 108.96 36.57 106.82 37.63 104.76 38.84 C 103.14 39.98 101.69 41.34 100.25 42.69 C 102.79 50.30 106.00 57.79 111.00 64.14 L 111.00 69.38 C 109.59 72.91 106.97 75.76 103.50 77.34 C 102.93 77.62 101.79 78.19 101.22 78.47 C 98.61 79.54 95.95 80.47 93.33 81.51 C 91.70 82.13 90.08 82.77 88.47 83.40 C 88.29 84.04 87.95 85.33 87.77 85.98 C 86.67 90.60 80.90 89.70 78.28 92.93 C 80.34 92.88 82.40 92.78 84.45 92.64 C 85.16 94.11 85.86 95.58 86.57 97.05 C 87.41 96.21 88.28 95.40 89.08 94.53 C 90.68 95.78 91.87 98.11 94.05 98.33 C 98.29 97.76 102.23 95.72 105.36 92.81 C 105.79 95.22 106.26 98.00 108.78 99.09 C 109.34 99.34 110.45 99.85 111.00 100.10 L 111.00 101.90 C 108.08 100.90 105.57 99.10 104.29 96.21 C 99.76 98.76 93.18 101.56 89.01 96.92 C 88.32 97.96 87.62 99.00 86.91 100.02 C 85.68 98.32 84.54 96.55 83.43 94.77 C 81.15 94.77 78.88 94.40 76.84 93.34 C 74.41 94.35 71.83 95.19 69.73 96.84 C 67.61 101.35 66.97 106.43 64.94 111.00 L 63.55 111.00 C 65.06 106.51 65.97 101.84 67.56 97.38 C 67.88 96.24 68.71 95.37 69.70 94.76 C 74.64 91.57 80.06 89.18 85.69 87.47 C 85.94 86.26 86.19 85.05 86.45 83.84 C 88.07 82.78 89.70 81.73 91.38 80.76 C 93.03 79.89 94.69 79.03 96.37 78.20 C 96.76 78.02 97.53 77.67 97.92 77.50 C 101.10 76.33 104.68 75.58 107.10 73.03 C 108.62 70.98 109.17 68.41 109.98 66.04 C 104.63 59.03 100.41 50.90 98.55 42.29 C 100.53 39.54 103.55 37.81 106.23 35.82 Z" />
<path fill="#fffff1" opacity="1.00" d=" M 36.57 41.47 C 40.85 38.42 45.74 36.39 50.53 34.29 C 50.51 34.67 50.48 35.45 50.46 35.83 C 45.42 38.67 39.76 40.59 35.34 44.43 C 31.13 48.78 30.14 55.06 28.67 60.69 C 28.24 53.46 30.84 46.08 36.57 41.47 Z" />
<path fill="#885c62" opacity="1.00" d=" M 104.76 38.84 C 106.82 37.63 108.96 36.57 111.00 35.34 L 111.00 48.61 C 109.00 45.30 106.83 42.10 104.76 38.84 Z" />
<path fill="#c3937f" opacity="1.00" d=" M 68.25 45.96 C 72.37 43.28 76.09 40.00 80.45 37.69 C 80.13 38.76 79.80 39.82 79.47 40.89 C 78.24 42.20 76.99 43.53 76.15 45.14 C 73.72 49.95 69.37 53.32 66.01 57.43 C 65.05 56.92 64.10 56.42 63.14 55.92 C 63.42 53.90 63.55 51.86 63.66 49.83 C 65.16 48.51 66.67 47.19 68.25 45.96 Z" />
<path fill="#926667" opacity="1.00" d=" M 84.85 45.96 C 86.36 42.34 89.62 40.03 92.77 37.93 C 92.71 39.67 92.65 41.42 92.58 43.16 C 93.78 42.12 94.97 41.09 96.16 40.05 L 96.24 40.28 C 91.30 47.88 86.93 55.85 83.14 64.08 C 84.12 56.82 89.73 51.53 91.87 44.72 C 85.71 49.37 84.80 58.01 79.42 63.33 C 78.38 56.92 82.37 51.49 84.85 45.96 Z" />
<path fill="#030102" opacity="1.00" d=" M 49.03 42.53 C 51.02 41.39 52.80 39.88 54.96 39.06 C 52.87 40.94 50.59 42.74 47.85 43.55 C 46.60 44.59 45.42 45.78 43.90 46.45 C 40.68 47.71 38.58 50.60 35.90 52.66 C 39.02 48.07 43.16 43.15 49.03 42.53 Z" />
<path fill="#653c51" opacity="1.00" d=" M 100.25 42.69 C 101.69 41.34 103.14 39.98 104.76 38.84 C 106.83 42.10 109.00 45.30 111.00 48.61 L 111.00 64.14 C 106.00 57.79 102.79 50.30 100.25 42.69 Z" />
<path fill="#8f6366" opacity="1.00" d=" M 76.15 45.14 C 76.99 43.53 78.24 42.20 79.47 40.89 C 79.32 41.70 79.02 43.34 78.86 44.16 C 78.39 48.66 75.61 52.35 72.91 55.79 C 69.62 59.79 66.11 63.74 61.63 66.44 C 62.19 62.94 62.54 59.41 63.14 55.92 C 64.10 56.42 65.05 56.92 66.01 57.43 C 69.37 53.32 73.72 49.95 76.15 45.14 Z" />
<path fill="#15221b" opacity="0.31" d=" M 22.78 50.22 C 24.35 47.41 26.73 45.23 29.64 43.86 C 27.33 45.95 24.99 48.02 22.78 50.22 Z" />
<path fill="#a67870" opacity="1.00" d=" M 24.14 51.72 C 26.05 49.53 28.25 47.62 30.43 45.70 C 26.81 52.94 27.37 61.34 27.57 69.20 C 27.18 70.35 26.69 71.47 26.23 72.59 C 23.52 72.69 20.82 72.55 18.15 72.09 C 19.52 70.90 20.88 69.70 22.23 68.48 C 23.40 68.67 24.56 68.86 25.73 69.05 C 25.08 68.13 24.44 67.21 23.79 66.29 C 21.20 68.30 18.56 70.26 16.24 72.60 C 15.05 72.04 13.86 71.47 12.66 70.91 C 12.69 67.21 15.53 64.50 17.26 61.47 C 19.94 61.75 22.64 61.66 25.31 61.42 C 25.30 58.37 25.25 55.32 25.32 52.27 L 25.37 51.05 L 24.14 51.72 Z" />
<path fill="#2c1925" opacity="1.00" d=" M 80.52 46.14 C 83.21 45.17 81.19 48.95 79.58 48.73 C 78.10 48.38 79.71 46.41 80.52 46.14 Z" />
<path fill="#fffff1" opacity="1.00" d=" M 0.00 49.17 C 3.96 52.18 8.05 55.01 11.93 58.11 C 11.42 58.17 10.40 58.27 9.89 58.32 C 7.65 56.44 5.43 54.53 2.94 52.97 C 1.95 52.09 0.96 51.20 0.00 50.28 L 0.00 49.17 Z" />
<path fill="#3d1d35" opacity="1.00" d=" M 94.45 50.38 C 95.71 50.11 96.97 49.84 98.22 49.56 C 97.88 53.89 94.73 56.98 92.03 60.05 C 91.25 59.29 90.47 58.53 89.69 57.78 C 91.05 55.17 92.75 52.77 94.45 50.38 Z" />
<path fill="#8f6366" opacity="1.00" d=" M 0.00 50.28 C 0.96 51.20 1.95 52.09 2.94 52.97 C 5.10 57.84 8.82 61.74 12.88 65.08 C 12.15 66.27 11.45 67.49 10.75 68.71 C 7.88 67.98 5.38 66.33 2.92 64.74 C 2.69 65.18 2.22 66.06 1.99 66.50 C 1.77 66.89 1.34 67.66 1.12 68.04 C 1.84 66.49 1.66 65.16 0.58 64.07 L 0.00 64.49 L 0.00 50.28 Z" />
<path fill="#fffff1" opacity="1.00" d=" M 19.84 57.63 C 21.21 55.62 22.48 53.52 24.14 51.72 L 25.37 51.05 L 25.32 52.27 C 23.79 54.34 21.87 56.07 19.84 57.63 Z" />
<path fill="#cd9c83" opacity="1.00" d=" M 19.84 57.63 C 21.87 56.07 23.79 54.34 25.32 52.27 C 25.25 55.32 25.30 58.37 25.31 61.42 C 22.64 61.66 19.94 61.75 17.26 61.47 C 18.10 60.18 18.94 58.89 19.84 57.63 Z" />
<path fill="#cd9c83" opacity="1.00" d=" M 2.94 52.97 C 5.43 54.53 7.65 56.44 9.89 58.32 C 10.40 58.27 11.42 58.17 11.93 58.11 C 13.18 59.02 14.38 59.98 15.58 60.94 C 14.67 62.31 13.76 63.68 12.88 65.08 C 8.82 61.74 5.10 57.84 2.94 52.97 Z" />
<path fill="#946868" opacity="1.00" d=" M 31.68 61.56 C 40.61 60.07 49.67 60.40 58.67 59.67 C 58.71 62.43 58.71 65.18 58.69 67.94 C 49.53 66.54 40.61 63.95 31.68 61.56 Z" />
<path fill="#3a1c31" opacity="1.00" d=" M 101.99 61.00 C 102.66 61.05 104.00 61.16 104.67 61.21 C 105.04 63.67 105.80 66.16 105.50 68.68 C 103.34 71.91 99.94 74.13 97.92 77.50 C 97.53 77.67 96.76 78.02 96.37 78.20 C 96.40 77.60 96.48 76.41 96.52 75.82 C 94.69 77.23 91.13 77.88 91.38 80.76 C 89.70 81.73 88.07 82.78 86.45 83.84 C 86.07 83.42 85.32 82.59 84.95 82.17 C 88.45 79.77 91.80 77.15 95.07 74.42 L 96.17 74.64 C 97.43 74.49 99.33 74.32 99.37 72.66 C 99.90 68.71 99.74 64.50 101.99 61.00 Z" />
<path fill="#9b6e6b" opacity="1.00" d=" M 28.53 62.58 C 37.63 64.49 46.45 67.54 55.61 69.14 C 48.12 71.47 40.20 72.03 32.80 74.70 C 26.30 76.60 19.43 75.60 12.76 75.79 C 12.69 74.17 12.67 72.54 12.66 70.91 C 13.86 71.47 15.05 72.04 16.24 72.60 C 15.58 73.43 14.94 74.27 14.32 75.13 C 15.62 74.15 16.91 73.14 18.15 72.09 C 20.82 72.55 23.52 72.69 26.23 72.59 C 26.69 71.47 27.18 70.35 27.57 69.20 C 28.37 67.09 28.34 64.80 28.53 62.58 Z" />
<path fill="#130e0d" opacity="0.70" d=" M 0.00 64.49 L 0.58 64.07 C 1.66 65.16 1.84 66.49 1.12 68.04 C 0.84 68.48 0.28 69.36 0.00 69.80 L 0.00 64.49 Z" />
<path fill="#5a314d" opacity="1.00" d=" M 92.49 66.69 C 94.05 65.80 95.61 64.92 97.19 64.06 C 97.24 67.61 96.88 71.15 96.17 74.64 L 95.07 74.42 C 94.03 71.91 93.25 69.30 92.49 66.69 Z" />
<path fill="#6e4257" opacity="1.00" d=" M 2.92 64.74 C 5.38 66.33 7.88 67.98 10.75 68.71 C 10.86 71.40 10.88 74.10 10.76 76.79 C 10.27 76.64 9.29 76.34 8.81 76.19 C 8.96 79.63 8.72 83.08 7.92 86.44 C 7.80 82.07 7.90 77.69 7.45 73.34 C 7.27 70.13 4.02 68.53 1.99 66.50 C 2.22 66.06 2.69 65.18 2.92 64.74 Z" />
<path fill="#030102" opacity="1.00" d=" M 16.24 72.60 C 18.56 70.26 21.20 68.30 23.79 66.29 C 24.44 67.21 25.08 68.13 25.73 69.05 C 24.56 68.86 23.40 68.67 22.23 68.48 C 20.88 69.70 19.52 70.90 18.15 72.09 C 16.91 73.14 15.62 74.15 14.32 75.13 C 14.94 74.27 15.58 73.43 16.24 72.60 Z" />
<path fill="#c0907c" opacity="1.00" d=" M 1.99 66.50 C 4.02 68.53 7.27 70.13 7.45 73.34 C 7.90 77.69 7.80 82.07 7.92 86.44 C 7.37 88.83 7.93 91.97 5.61 93.55 C 4.09 95.06 1.87 94.28 0.08 93.98 C 0.06 94.53 0.02 95.63 0.00 96.18 L 0.00 69.80 C 0.28 69.36 0.84 68.48 1.12 68.04 C 1.34 67.66 1.77 66.89 1.99 66.50 Z" />
<path fill="#885d62" opacity="1.00" d=" M 73.88 77.78 C 79.55 73.24 86.41 70.61 92.49 66.69 C 93.25 69.30 94.03 71.91 95.07 74.42 C 91.80 77.15 88.45 79.77 84.95 82.17 C 82.97 83.51 81.09 85.04 78.89 85.99 C 74.29 86.59 69.61 86.11 65.00 86.75 C 65.26 86.29 65.76 85.37 66.01 84.91 C 68.47 82.36 71.07 79.94 73.88 77.78 Z" />
<path fill="#673e53" opacity="1.00" d=" M 55.61 69.14 C 57.27 69.40 58.92 69.68 60.58 69.98 C 60.48 71.73 60.59 73.49 60.69 75.24 C 52.84 72.82 45.33 76.64 37.80 78.30 C 38.47 77.65 39.13 76.99 39.78 76.32 C 37.47 75.72 35.16 75.12 32.80 74.70 C 40.20 72.03 48.12 71.47 55.61 69.14 Z" />
<path fill="#8c6064" opacity="1.00" d=" M 69.77 76.61 C 74.78 74.40 79.01 68.94 84.95 69.54 C 81.26 71.68 77.36 73.48 73.84 75.91 C 70.92 77.98 69.41 81.72 65.92 83.02 C 62.22 84.51 58.28 85.25 54.41 86.15 C 52.02 85.99 49.64 85.77 47.26 85.58 C 48.17 84.83 49.07 84.08 49.98 83.33 C 45.58 83.41 41.17 83.21 36.81 82.56 C 39.16 81.97 41.51 81.39 43.86 80.79 C 42.33 80.44 40.81 80.10 39.28 79.78 C 38.17 79.48 37.07 79.18 35.97 78.86 C 36.42 78.72 37.34 78.44 37.80 78.30 C 45.33 76.64 52.84 72.82 60.69 75.24 C 63.70 75.76 66.69 76.76 69.77 76.61 Z" />
<path fill="#143245" opacity="1.00" d=" M 103.50 77.34 C 106.97 75.76 109.59 72.91 111.00 69.38 L 111.00 82.19 C 107.96 82.48 105.03 81.92 102.97 79.51 C 103.16 78.79 103.34 78.07 103.50 77.34 Z" />
<path fill="#562c4b" opacity="1.00" d=" M 12.76 75.79 C 19.43 75.60 26.30 76.60 32.80 74.70 C 35.16 75.12 37.47 75.72 39.78 76.32 C 39.13 76.99 38.47 77.65 37.80 78.30 C 37.34 78.44 36.42 78.72 35.97 78.86 C 37.07 79.18 38.17 79.48 39.28 79.78 C 35.28 79.61 31.32 78.98 27.35 78.53 C 22.91 78.03 18.40 78.98 14.00 78.13 C 13.69 77.54 13.07 76.38 12.76 75.79 Z" />
<path fill="#4d2646" opacity="1.00" d=" M 8.81 76.19 C 9.29 76.34 10.27 76.64 10.76 76.79 L 10.71 78.07 C 10.46 80.88 10.81 84.16 13.49 85.74 C 16.86 87.67 20.48 89.27 23.41 91.87 C 24.28 93.77 22.30 95.17 20.61 95.39 C 15.97 96.11 11.22 94.92 6.63 96.11 C 8.29 97.01 9.96 97.89 11.65 98.72 C 14.75 100.41 18.27 100.95 21.68 101.73 C 21.26 104.85 19.83 107.71 17.23 109.56 C 16.03 107.99 15.14 106.02 13.36 105.00 C 12.43 106.93 11.82 109.00 11.06 111.00 L 0.00 111.00 L 0.00 105.52 C 1.32 103.70 2.48 101.75 3.10 99.57 C 2.33 99.45 0.78 99.20 0.00 99.08 L 0.00 96.18 C 0.02 95.63 0.06 94.53 0.08 93.98 C 1.87 94.28 4.09 95.06 5.61 93.55 C 7.93 91.97 7.37 88.83 7.92 86.44 C 8.72 83.08 8.96 79.63 8.81 76.19 Z" />
<path fill="#502b43" opacity="1.00" d=" M 91.38 80.76 C 91.13 77.88 94.69 77.23 96.52 75.82 C 96.48 76.41 96.40 77.60 96.37 78.20 C 94.69 79.03 93.03 79.89 91.38 80.76 Z" />
<path fill="#361930" opacity="1.00" d=" M 10.71 78.07 C 13.11 80.07 16.18 80.73 19.24 80.80 C 19.31 81.97 19.38 83.14 19.45 84.31 C 17.46 84.79 15.48 85.26 13.49 85.74 C 10.81 84.16 10.46 80.88 10.71 78.07 Z" />
<path fill="#2b716f" opacity="1.00" d=" M 101.22 78.47 C 101.79 78.19 102.93 77.62 103.50 77.34 C 103.34 78.07 103.16 78.79 102.97 79.51 C 102.75 79.97 102.32 80.89 102.11 81.35 C 103.35 81.99 104.60 82.63 105.84 83.28 C 104.44 85.39 103.01 87.57 100.84 88.98 C 101.07 90.51 102.08 92.42 100.54 93.61 C 98.93 95.68 96.08 94.79 93.84 94.99 C 93.79 94.51 93.69 93.55 93.64 93.07 C 93.52 91.88 93.39 90.69 93.27 89.50 C 94.18 89.58 95.09 89.66 96.01 89.74 C 98.52 86.39 100.01 82.45 101.22 78.47 Z" />
<path fill="#143346" opacity="1.00" d=" M 93.33 81.51 C 95.95 80.47 98.61 79.54 101.22 78.47 C 100.01 82.45 98.52 86.39 96.01 89.74 C 95.09 89.66 94.18 89.58 93.27 89.50 C 93.39 90.69 93.52 91.88 93.64 93.07 C 92.52 92.85 91.39 92.63 90.27 92.41 C 89.88 93.12 89.50 93.83 89.08 94.53 C 88.28 95.40 87.41 96.21 86.57 97.05 C 85.86 95.58 85.16 94.11 84.45 92.64 C 82.40 92.78 80.34 92.88 78.28 92.93 C 80.90 89.70 86.67 90.60 87.77 85.98 C 87.79 86.49 87.83 87.52 87.85 88.03 C 89.91 86.06 91.75 83.88 93.33 81.51 Z" />
<path fill="#7a4f5c" opacity="1.00" d=" M 23.44 79.65 C 30.19 80.75 37.03 80.97 43.86 80.79 C 41.51 81.39 39.16 81.97 36.81 82.56 C 41.17 83.21 45.58 83.41 49.98 83.33 C 49.07 84.08 48.17 84.83 47.26 85.58 C 49.64 85.77 52.02 85.99 54.41 86.15 C 50.98 87.67 46.32 87.90 44.44 91.61 C 43.54 92.02 42.64 92.42 41.73 92.82 C 41.62 91.42 41.48 90.02 41.32 88.63 C 43.55 88.28 46.01 88.51 47.88 87.00 C 44.73 86.58 41.55 86.62 38.41 86.24 C 35.45 85.89 33.79 82.89 31.04 82.04 C 28.90 81.62 26.70 81.61 24.53 81.53 C 24.26 81.06 23.71 80.12 23.44 79.65 Z" />
<path fill="#20535b" opacity="1.00" d=" M 102.11 81.35 C 102.32 80.89 102.75 79.97 102.97 79.51 C 105.03 81.92 107.96 82.48 111.00 82.19 L 111.00 90.87 C 109.93 90.51 108.86 90.17 107.78 89.85 C 108.21 92.27 108.79 94.67 109.55 97.02 C 109.36 97.54 108.98 98.57 108.78 99.09 C 106.26 98.00 105.79 95.22 105.36 92.81 C 102.23 95.72 98.29 97.76 94.05 98.33 C 91.87 98.11 90.68 95.78 89.08 94.53 C 89.50 93.83 89.88 93.12 90.27 92.41 C 91.39 92.63 92.52 92.85 93.64 93.07 C 93.69 93.55 93.79 94.51 93.84 94.99 C 96.08 94.79 98.93 95.68 100.54 93.61 C 102.08 92.42 101.07 90.51 100.84 88.98 C 103.01 87.57 104.44 85.39 105.84 83.28 C 104.60 82.63 103.35 81.99 102.11 81.35 Z" />
<path fill="#200b1b" opacity="1.00" d=" M 19.24 80.80 C 19.92 80.85 21.27 80.94 21.95 80.98 C 24.50 84.60 26.89 88.34 29.37 92.02 C 27.56 94.25 25.99 97.38 22.84 97.81 C 19.12 98.29 15.36 98.23 11.65 98.72 C 9.96 97.89 8.29 97.01 6.63 96.11 C 11.22 94.92 15.97 96.11 20.61 95.39 C 22.30 95.17 24.28 93.77 23.41 91.87 C 20.48 89.27 16.86 87.67 13.49 85.74 C 15.48 85.26 17.46 84.79 19.45 84.31 C 19.38 83.14 19.31 81.97 19.24 80.80 Z" />
<path fill="#4b2544" opacity="1.00" d=" M 24.53 81.53 C 26.70 81.61 28.90 81.62 31.04 82.04 C 33.79 82.89 35.45 85.89 38.41 86.24 C 41.55 86.62 44.73 86.58 47.88 87.00 C 46.01 88.51 43.55 88.28 41.32 88.63 C 37.83 89.05 34.65 91.06 31.15 91.16 C 28.35 88.40 26.50 84.88 24.53 81.53 Z" />
<path fill="#59314c" opacity="1.00" d=" M 78.89 85.99 C 81.09 85.04 82.97 83.51 84.95 82.17 C 85.32 82.59 86.07 83.42 86.45 83.84 C 86.19 85.05 85.94 86.26 85.69 87.47 C 80.06 89.18 74.64 91.57 69.70 94.76 C 68.71 95.37 67.88 96.24 67.56 97.38 C 65.97 101.84 65.06 106.51 63.55 111.00 L 50.76 111.00 C 53.68 108.52 56.75 106.18 59.47 103.47 C 60.20 102.87 60.48 101.98 60.56 101.07 C 60.17 99.73 59.72 98.41 59.31 97.07 C 58.60 97.25 57.90 97.44 57.19 97.63 C 53.62 99.31 52.37 103.37 49.88 106.17 L 48.01 106.26 C 48.64 104.65 49.21 103.01 49.89 101.42 C 50.33 100.83 50.81 100.28 51.30 99.73 C 54.39 97.34 57.25 94.21 58.72 90.58 C 58.18 91.15 57.09 92.30 56.55 92.87 C 54.97 92.43 53.49 91.69 52.09 90.85 C 54.86 89.42 59.59 89.71 60.84 86.41 C 62.56 85.91 64.30 85.44 66.01 84.91 C 65.76 85.37 65.26 86.29 65.00 86.75 C 69.61 86.11 74.29 86.59 78.89 85.99 Z" />
<path fill="#356864" opacity="1.00" d=" M 88.47 83.40 C 90.08 82.77 91.70 82.13 93.33 81.51 C 91.75 83.88 89.91 86.06 87.85 88.03 C 87.83 87.52 87.79 86.49 87.77 85.98 C 87.95 85.33 88.29 84.04 88.47 83.40 Z" />
<path fill="#bc8d7b" opacity="1.00" d=" M 44.44 91.61 C 49.85 89.72 55.32 87.99 60.84 86.41 C 59.59 89.71 54.86 89.42 52.09 90.85 C 49.22 91.71 46.25 92.35 43.58 93.75 C 42.08 95.83 41.98 98.57 41.14 100.94 C 40.85 100.52 40.26 99.66 39.96 99.24 C 40.57 97.10 41.27 94.99 41.73 92.82 C 42.64 92.42 43.54 92.02 44.44 91.61 Z" />
<path fill="#2f7c77" opacity="1.00" d=" M 107.78 89.85 C 108.86 90.17 109.93 90.51 111.00 90.87 L 111.00 100.10 C 110.45 99.85 109.34 99.34 108.78 99.09 C 108.98 98.57 109.36 97.54 109.55 97.02 C 108.79 94.67 108.21 92.27 107.78 89.85 Z" />
<path fill="#6d4456" opacity="1.00" d=" M 43.58 93.75 C 46.25 92.35 49.22 91.71 52.09 90.85 C 53.49 91.69 54.97 92.43 56.55 92.87 C 55.11 94.56 53.79 96.35 52.47 98.14 C 49.54 98.93 46.65 99.85 43.77 100.80 C 43.67 101.09 43.47 101.65 43.37 101.94 C 41.43 104.21 39.37 106.38 37.46 108.67 C 37.51 107.41 37.57 106.15 37.64 104.89 C 38.93 103.69 40.13 102.38 41.14 100.94 C 41.98 98.57 42.08 95.83 43.58 93.75 Z" />
<path fill="#030102" opacity="1.00" d=" M 58.72 90.58 C 57.25 94.21 54.39 97.34 51.30 99.73 L 52.47 98.14 C 53.79 96.35 55.11 94.56 56.55 92.87 C 57.09 92.30 58.18 91.15 58.72 90.58 Z" />
<path fill="#6b4155" opacity="1.00" d=" M 57.19 97.63 C 57.90 97.44 58.60 97.25 59.31 97.07 C 59.72 98.41 60.17 99.73 60.56 101.07 C 56.66 104.41 52.69 107.64 48.82 111.00 L 47.16 111.00 C 50.88 106.84 54.39 102.46 57.19 97.63 Z" />
<path fill="#c89781" opacity="1.00" d=" M 43.77 100.80 C 46.65 99.85 49.54 98.93 52.47 98.14 L 51.30 99.73 C 50.81 100.28 50.33 100.83 49.89 101.42 C 47.98 103.84 46.24 106.40 44.53 108.97 C 43.94 109.64 43.37 110.34 42.76 111.00 L 37.51 111.00 C 39.59 108.72 41.64 106.40 43.38 103.85 C 43.38 103.37 43.37 102.41 43.37 101.94 C 43.47 101.65 43.67 101.09 43.77 100.80 Z" />
<path fill="#030102" opacity="1.00" d=" M 49.88 106.17 C 52.37 103.37 53.62 99.31 57.19 97.63 C 54.39 102.46 50.88 106.84 47.16 111.00 L 45.95 111.00 C 47.34 109.45 48.61 107.81 49.88 106.17 Z" />
<path fill="#a3756f" opacity="1.00" d=" M 0.00 99.08 C 0.78 99.20 2.33 99.45 3.10 99.57 C 2.48 101.75 1.32 103.70 0.00 105.52 L 0.00 99.08 Z" />
<path fill="#fffff1" opacity="1.00" d=" M 29.16 108.54 C 33.35 106.24 37.84 103.79 39.96 99.24 C 40.26 99.66 40.85 100.52 41.14 100.94 C 40.13 102.38 38.93 103.69 37.64 104.89 C 35.10 106.64 32.48 108.97 29.16 108.54 Z" />
<path fill="#030102" opacity="1.00" d=" M 60.56 101.07 C 60.48 101.98 60.20 102.87 59.47 103.47 C 56.75 106.18 53.68 108.52 50.76 111.00 L 48.82 111.00 C 52.69 107.64 56.66 104.41 60.56 101.07 Z" />
<path fill="#030102" opacity="1.00" d=" M 44.53 108.97 C 46.24 106.40 47.98 103.84 49.89 101.42 C 49.21 103.01 48.64 104.65 48.01 106.26 C 46.85 107.16 45.68 108.04 44.53 108.97 Z" />
<path fill="#fffff1" opacity="1.00" d=" M 37.46 108.67 C 39.37 106.38 41.43 104.21 43.37 101.94 C 43.37 102.41 43.38 103.37 43.38 103.85 C 41.64 106.40 39.59 108.72 37.51 111.00 L 35.48 111.00 C 36.15 110.23 36.81 109.45 37.46 108.67 Z" />
<path fill="#c99781" opacity="1.00" d=" M 29.16 108.54 C 32.48 108.97 35.10 106.64 37.64 104.89 C 37.57 106.15 37.51 107.41 37.46 108.67 C 36.81 109.45 36.15 110.23 35.48 111.00 L 22.78 111.00 C 22.79 110.16 22.82 108.49 22.83 107.65 C 24.79 108.71 27.00 108.79 29.16 108.54 Z" />
<path fill="#000000" opacity="1.00" d=" M 74.47 111.00 C 81.60 108.94 88.48 106.08 95.72 104.44 C 94.89 106.69 94.00 108.94 92.74 111.00 L 90.45 111.00 C 91.34 109.70 92.19 108.37 93.03 107.04 C 88.73 108.16 84.52 109.62 80.30 111.00 L 74.47 111.00 Z" />
<path fill="#7f545e" opacity="1.00" d=" M 48.01 106.26 L 49.88 106.17 C 48.61 107.81 47.34 109.45 45.95 111.00 L 42.76 111.00 C 43.37 110.34 43.94 109.64 44.53 108.97 C 45.68 108.04 46.85 107.16 48.01 106.26 Z" />
<path fill="#fffff1" opacity="1.00" d=" M 21.58 107.12 C 21.90 107.25 22.52 107.52 22.83 107.65 C 22.82 108.49 22.79 110.16 22.78 111.00 L 20.60 111.00 C 20.95 109.71 21.28 108.41 21.58 107.12 Z" />
<path fill="#98686d" opacity="1.00" d=" M 80.30 111.00 C 84.52 109.62 88.73 108.16 93.03 107.04 C 92.19 108.37 91.34 109.70 90.45 111.00 L 80.30 111.00 Z" />
<path fill="#fffff1" opacity="1.00" d=" M 13.52 111.00 C 12.90 109.68 13.02 108.44 13.88 107.27 C 15.13 108.12 15.52 109.66 16.00 111.00 L 13.52 111.00 Z" />
<path fill="#000000" opacity="0.69" d=" M 103.96 111.00 C 102.33 108.43 106.87 108.32 105.87 111.00 L 103.96 111.00 Z" />
</svg>
