<?xml version="1.0" encoding="UTF-8" ?>
<!DOCTYPE svg PUBLIC "-//W3C//DTD SVG 1.1//EN" "http://www.w3.org/Graphics/SVG/1.1/DTD/svg11.dtd">
<svg width="111pt" height="111pt" viewBox="0 0 111 111" version="1.1" xmlns="http://www.w3.org/2000/svg">
<path fill="#0e0b07" opacity="0.81" d=" M 100.15 0.00 L 100.82 0.00 C 104.10 3.56 107.52 6.99 111.00 10.36 L 111.00 12.31 C 110.54 11.93 109.61 11.16 109.14 10.77 C 106.13 7.78 103.43 4.41 100.00 1.87 C 94.39 6.45 89.10 11.41 83.83 16.37 C 82.74 16.97 81.65 17.56 80.57 18.17 L 79.79 17.95 C 86.30 11.67 93.29 5.89 100.15 0.00 Z" />
<path fill="#bb9763" opacity="1.00" d=" M 83.83 16.37 C 89.10 11.41 94.39 6.45 100.00 1.87 C 103.43 4.41 106.13 7.78 109.14 10.77 C 108.35 14.16 108.97 18.11 106.79 20.97 C 99.07 20.11 91.75 16.59 83.83 16.37 Z" />
<path fill="#926450" opacity="1.00" d=" M 109.14 10.77 C 109.61 11.16 110.54 11.93 111.00 12.31 L 111.00 28.34 C 103.18 25.80 95.93 21.31 87.57 20.59 C 85.73 19.33 81.50 21.12 80.57 18.17 C 81.65 17.56 82.74 16.97 83.83 16.37 C 91.75 16.59 99.07 20.11 106.79 20.97 C 108.97 18.11 108.35 14.16 109.14 10.77 Z" />
<path fill="#312522" opacity="1.00" d=" M 78.85 18.94 C 79.09 18.69 79.56 18.20 79.79 17.95 L 80.57 18.17 C 81.50 21.12 85.73 19.33 87.57 20.59 C 95.93 21.31 103.18 25.80 111.00 28.34 L 111.00 31.07 C 108.17 29.54 105.22 28.25 102.26 26.99 C 99.03 25.45 95.78 23.77 92.20 23.23 C 85.59 21.59 78.83 20.85 72.02 20.74 L 71.86 19.77 C 74.88 21.32 77.21 21.05 78.85 18.94 Z" />
<path fill="#000000" opacity="0.67" d=" M 71.86 19.77 C 73.81 18.25 76.14 17.98 78.85 18.94 C 77.21 21.05 74.88 21.32 71.86 19.77 Z" />
<path fill="#120f11" opacity="0.95" d=" M 63.72 31.64 C 61.28 25.39 65.89 21.29 71.86 19.77 L 72.02 20.74 C 71.49 21.05 70.41 21.67 69.87 21.98 C 68.34 22.83 66.78 23.67 65.45 24.83 C 64.21 28.57 64.46 31.30 68.11 29.45 C 69.11 29.17 70.10 28.87 71.09 28.54 C 73.37 27.93 75.64 27.29 77.93 26.69 C 79.84 27.75 82.08 27.39 84.01 26.56 C 89.65 27.26 95.43 27.55 100.86 29.35 C 104.27 30.57 107.65 31.83 111.00 33.20 L 111.00 36.01 C 92.18 26.12 64.16 24.31 51.70 44.86 C 47.85 48.50 50.03 50.55 52.96 46.03 C 58.96 41.38 65.46 37.15 72.70 34.73 C 73.08 34.93 73.83 35.34 74.21 35.54 C 69.43 36.44 67.15 40.80 71.04 44.48 C 74.17 49.06 76.70 54.17 77.28 59.75 C 77.22 63.24 77.14 66.74 77.18 70.24 C 74.53 79.61 71.74 90.33 62.98 95.95 C 61.59 98.09 55.02 99.47 57.97 103.00 C 58.18 103.39 58.59 104.16 58.79 104.55 C 59.90 106.74 61.15 108.84 62.32 111.00 L 60.21 111.00 C 55.96 104.54 52.86 97.07 47.00 91.86 C 46.37 91.22 45.74 90.59 45.10 89.96 C 43.53 75.92 30.38 66.15 25.94 53.00 C 25.92 51.43 27.30 50.34 28.05 49.08 C 35.27 47.10 29.95 38.74 30.22 33.67 L 30.21 32.65 L 30.23 31.73 C 33.35 35.11 31.60 40.44 33.47 44.47 C 35.52 48.77 27.78 49.11 28.10 52.90 C 33.84 64.56 41.90 75.02 47.32 86.79 C 49.79 83.71 52.64 80.95 55.22 77.97 C 50.58 72.59 41.60 71.46 39.04 64.05 C 45.61 52.16 51.37 38.67 63.72 31.64 M 66.70 39.08 C 64.30 40.96 59.23 42.17 58.32 44.73 C 55.16 46.24 51.74 48.71 50.24 51.66 C 46.10 55.05 41.13 59.82 42.17 65.71 C 45.87 69.54 50.35 72.71 55.16 74.98 C 57.62 79.43 63.51 72.13 64.68 70.35 C 68.23 68.44 70.23 64.89 69.67 60.67 C 69.50 57.26 74.03 56.27 74.00 53.07 C 71.94 48.21 66.74 44.76 66.70 39.08 M 72.03 59.99 C 72.09 66.27 66.43 72.53 61.41 76.65 C 57.07 78.20 53.70 81.92 50.70 85.29 C 48.33 86.63 48.00 92.74 51.76 91.83 C 55.12 87.84 58.39 83.88 62.69 80.80 C 72.54 79.41 79.25 69.14 74.83 60.04 C 76.86 55.93 71.32 56.40 72.03 59.99 M 71.32 79.35 C 69.50 79.58 66.00 82.88 69.96 81.99 C 72.13 83.26 74.28 77.25 71.32 79.35 M 64.92 82.14 C 60.16 85.54 48.81 92.30 55.18 98.95 C 61.53 95.94 67.90 90.94 70.93 84.20 C 68.96 83.41 66.97 82.68 64.92 82.14 Z" />
<path fill="#eeebd8" opacity="1.00" d=" M 69.87 21.98 C 70.41 21.67 71.49 21.05 72.02 20.74 C 78.83 20.85 85.59 21.59 92.20 23.23 C 88.08 25.06 77.81 19.50 77.99 25.93 L 77.93 26.69 C 75.64 27.29 73.37 27.93 71.09 28.54 C 70.78 26.90 70.18 23.62 69.87 21.98 Z" />
<path fill="#d2c168" opacity="1.00" d=" M 65.45 24.83 C 66.78 23.67 68.34 22.83 69.87 21.98 C 70.18 23.62 70.78 26.90 71.09 28.54 C 70.10 28.87 69.11 29.17 68.11 29.45 C 67.13 27.96 66.25 26.42 65.45 24.83 Z" />
<path fill="#d1b56c" opacity="1.00" d=" M 77.99 25.93 C 77.81 19.50 88.08 25.06 92.20 23.23 C 95.78 23.77 99.03 25.45 102.26 26.99 C 101.91 27.58 101.21 28.76 100.86 29.35 C 95.43 27.55 89.65 27.26 84.01 26.56 C 82.50 26.41 79.49 26.09 77.99 25.93 Z" />
<path fill="#000000" opacity="0.53" d=" M 10.72 25.73 C 13.71 24.31 17.13 25.12 20.19 25.86 C 17.03 25.78 13.88 25.80 10.72 25.73 Z" />
<path fill="#a06858" opacity="1.00" d=" M 68.11 29.45 C 64.46 31.30 64.21 28.57 65.45 24.83 C 66.25 26.42 67.13 27.96 68.11 29.45 Z" />
<path fill="#0d0b08" opacity="0.93" d=" M 0.00 34.29 C 2.38 30.25 6.52 27.59 10.72 25.73 C 13.88 25.80 17.03 25.78 20.19 25.86 C 22.92 27.02 25.82 27.98 28.20 29.80 C 24.64 28.55 23.40 29.00 25.96 32.26 L 25.22 32.40 C 23.47 30.91 21.82 29.31 20.07 27.82 C 18.09 25.78 14.44 25.66 12.72 27.87 L 11.82 28.18 C 11.36 28.36 10.42 28.73 9.96 28.91 C 8.48 29.67 7.03 30.51 5.82 31.65 C 3.27 33.81 2.16 37.11 0.58 39.96 L 0.00 40.22 L 0.00 34.29 Z" />
<path fill="#7f763e" opacity="1.00" d=" M 77.99 25.93 C 79.49 26.09 82.50 26.41 84.01 26.56 C 82.08 27.39 79.84 27.75 77.93 26.69 L 77.99 25.93 Z" />
<path fill="#813750" opacity="1.00" d=" M 12.72 27.87 C 14.44 25.66 18.09 25.78 20.07 27.82 C 18.23 27.83 14.56 27.86 12.72 27.87 Z" />
<path fill="#96465c" opacity="1.00" d=" M 102.26 26.99 C 105.22 28.25 108.17 29.54 111.00 31.07 L 111.00 33.20 C 107.65 31.83 104.27 30.57 100.86 29.35 C 101.21 28.76 101.91 27.58 102.26 26.99 Z" />
<path fill="#972a5c" opacity="1.00" d=" M 9.96 28.91 C 10.42 28.73 11.36 28.36 11.82 28.18 C 14.63 30.41 19.18 28.89 21.27 32.79 C 14.49 30.01 10.93 35.08 9.07 41.07 C 9.89 43.74 11.63 46.22 11.02 49.16 C 7.51 47.82 4.55 44.52 6.01 40.59 C 8.73 39.57 9.65 36.34 7.97 33.99 C 8.57 32.28 9.29 30.61 9.96 28.91 Z" />
<path fill="#e6578b" opacity="1.00" d=" M 11.82 28.18 L 12.72 27.87 C 14.56 27.86 18.23 27.83 20.07 27.82 C 21.82 29.31 23.47 30.91 25.22 32.40 C 23.93 32.69 22.60 32.95 21.27 32.79 C 19.18 28.89 14.63 30.41 11.82 28.18 Z" />
<path fill="#d3b567" opacity="1.00" d=" M 5.82 31.65 C 7.03 30.51 8.48 29.67 9.96 28.91 C 9.29 30.61 8.57 32.28 7.97 33.99 C 7.26 33.21 6.54 32.43 5.82 31.65 Z" />
<path fill="#5a452f" opacity="1.00" d=" M 25.96 32.26 C 23.40 29.00 24.64 28.55 28.20 29.80 C 28.95 30.37 29.63 31.01 30.23 31.73 L 30.21 32.65 C 28.91 33.73 27.61 34.80 26.33 35.89 L 26.19 35.04 C 26.24 34.11 26.50 33.11 25.96 32.26 Z" />
<path fill="#c1a063" opacity="1.00" d=" M 51.70 44.86 C 64.16 24.31 92.18 26.12 111.00 36.01 L 111.00 42.25 C 99.23 36.64 85.93 29.52 72.70 34.73 C 65.46 37.15 58.96 41.38 52.96 46.03 C 52.65 45.74 52.02 45.15 51.70 44.86 Z" />
<path fill="#f4e9b9" opacity="1.00" d=" M 0.58 39.96 C 2.16 37.11 3.27 33.81 5.82 31.65 C 6.54 32.43 7.26 33.21 7.97 33.99 C 9.65 36.34 8.73 39.57 6.01 40.59 C 3.08 39.16 2.85 42.89 2.95 44.90 C 2.75 46.03 2.52 47.14 2.26 48.26 C 1.85 47.69 1.04 46.56 0.63 45.99 C 1.46 44.07 1.43 41.88 0.58 39.96 Z" />
<path fill="#581c72" opacity="1.00" d=" M 9.07 41.07 C 10.93 35.08 14.49 30.01 21.27 32.79 C 22.60 32.95 23.93 32.69 25.22 32.40 L 25.96 32.26 C 26.50 33.11 26.24 34.11 26.19 35.04 C 25.85 37.74 25.61 40.47 25.20 43.16 C 24.10 42.48 22.99 41.81 21.90 41.11 C 22.63 38.00 21.41 32.97 17.25 34.16 C 14.03 35.78 17.07 38.46 17.09 40.95 C 16.99 45.71 22.32 42.68 25.10 44.00 C 23.45 51.10 13.83 56.48 6.86 53.40 C 8.18 53.40 9.21 52.99 9.97 52.17 C 10.51 51.23 10.86 50.23 11.02 49.16 C 11.63 46.22 9.89 43.74 9.07 41.07 Z" />
<path fill="#96604a" opacity="1.00" d=" M 26.33 35.89 C 27.61 34.80 28.91 33.73 30.21 32.65 L 30.22 33.67 C 29.58 38.81 29.27 44.02 28.05 49.08 C 27.30 50.34 25.92 51.43 25.94 53.00 C 30.38 66.15 43.53 75.92 45.10 89.96 C 43.35 88.28 41.90 86.32 40.13 84.65 C 37.00 80.00 33.43 75.53 31.32 70.27 C 33.41 65.47 28.45 60.20 23.81 59.47 C 22.39 58.34 20.66 57.88 18.86 57.91 C 22.19 57.81 25.75 51.44 21.94 50.69 C 27.85 48.22 27.62 41.23 26.33 35.89 Z" />
<path fill="#1e1922" opacity="1.00" d=" M 72.70 34.73 C 85.93 29.52 99.23 36.64 111.00 42.25 L 111.00 45.12 C 104.36 41.37 97.61 37.15 89.95 35.90 C 90.91 39.16 92.29 42.27 93.49 45.44 C 93.97 49.20 98.57 45.96 100.73 48.24 C 109.62 51.64 101.97 63.69 111.00 67.41 L 111.00 70.37 C 108.03 66.74 101.55 63.21 103.57 57.63 C 104.53 55.14 103.21 52.71 101.53 50.91 C 101.19 50.56 100.50 49.87 100.16 49.53 C 97.43 49.31 94.70 49.39 91.98 49.11 C 91.32 44.16 89.66 39.23 86.56 35.25 C 82.71 34.87 78.80 34.85 74.98 35.43 L 74.21 35.54 C 73.83 35.34 73.08 34.93 72.70 34.73 Z" />
<path fill="#6823ce" opacity="1.00" d=" M 17.25 34.16 C 21.41 32.97 22.63 38.00 21.90 41.11 C 20.30 41.04 18.69 41.01 17.09 40.95 C 17.07 38.46 14.03 35.78 17.25 34.16 Z" />
<path fill="#693550" opacity="1.00" d=" M 30.22 33.67 C 29.95 38.74 35.27 47.10 28.05 49.08 C 29.27 44.02 29.58 38.81 30.22 33.67 Z" />
<path fill="#110e0b" opacity="0.94" d=" M 25.20 43.16 C 25.61 40.47 25.85 37.74 26.19 35.04 L 26.33 35.89 C 27.62 41.23 27.85 48.22 21.94 50.69 C 19.04 53.93 17.17 57.86 11.71 55.39 C 12.72 58.32 16.37 57.94 18.86 57.91 C 20.66 57.88 22.39 58.34 23.81 59.47 C 25.99 63.29 28.83 66.66 31.32 70.27 C 33.43 75.53 37.00 80.00 40.13 84.65 C 43.38 94.42 51.51 101.89 56.22 111.00 L 53.32 111.00 C 52.49 109.06 51.87 106.77 49.75 105.85 C 46.92 107.42 44.24 109.23 41.53 111.00 L 38.50 111.00 C 41.61 107.98 46.72 106.68 48.92 103.09 C 40.21 89.48 30.82 76.41 23.02 62.09 C 14.82 60.54 4.88 57.44 0.00 49.70 L 0.00 45.75 L 0.63 45.99 C 1.04 46.56 1.85 47.69 2.26 48.26 C 3.57 50.15 5.10 51.91 6.86 53.40 C 13.83 56.48 23.45 51.10 25.10 44.00 L 25.20 43.16 Z" />
<path fill="#3b59ad" opacity="1.00" d=" M 74.98 35.43 C 78.80 34.85 82.71 34.87 86.56 35.25 C 89.66 39.23 91.32 44.16 91.98 49.11 C 91.63 52.02 91.16 54.97 91.60 57.89 C 89.54 59.12 85.26 62.38 84.15 59.07 C 87.82 54.43 91.36 46.63 86.54 41.82 C 86.73 34.93 80.78 35.86 75.96 37.69 L 75.59 36.84 C 75.44 36.49 75.13 35.78 74.98 35.43 Z" />
<path fill="#a0b9de" opacity="1.00" d=" M 71.04 44.48 C 67.15 40.80 69.43 36.44 74.21 35.54 L 74.98 35.43 C 75.13 35.78 75.44 36.49 75.59 36.84 C 73.17 38.86 73.37 42.48 71.04 44.48 Z" />
<path fill="#2b3492" opacity="1.00" d=" M 75.96 37.69 C 80.78 35.86 86.73 34.93 86.54 41.82 C 84.94 46.08 79.98 49.80 75.94 46.08 C 73.26 43.60 74.39 40.43 75.96 37.69 Z" />
<path fill="#573459" opacity="1.00" d=" M 89.95 35.90 C 97.61 37.15 104.36 41.37 111.00 45.12 L 111.00 67.41 C 101.97 63.69 109.62 51.64 100.73 48.24 C 98.57 45.96 93.97 49.20 93.49 45.44 C 92.29 42.27 90.91 39.16 89.95 35.90 Z" />
<path fill="#548ed2" opacity="1.00" d=" M 71.04 44.48 C 73.37 42.48 73.17 38.86 75.59 36.84 L 75.96 37.69 C 74.39 40.43 73.26 43.60 75.94 46.08 C 85.41 66.46 76.67 91.42 57.97 103.00 C 55.02 99.47 61.59 98.09 62.98 95.95 C 71.74 90.33 74.53 79.61 77.18 70.24 C 78.03 66.75 78.07 63.25 77.28 59.75 C 76.70 54.17 74.17 49.06 71.04 44.48 Z" />
<path fill="#633b54" opacity="1.00" d=" M 66.70 39.08 C 66.74 44.76 71.94 48.21 74.00 53.07 C 74.03 56.27 69.50 57.26 69.67 60.67 C 70.23 64.89 68.23 68.44 64.68 70.35 C 60.13 62.50 63.64 52.32 58.32 44.73 C 59.23 42.17 64.30 40.96 66.70 39.08 Z" />
<path fill="#665e48" opacity="1.00" d=" M 0.00 40.22 L 0.58 39.96 C 1.43 41.88 1.46 44.07 0.63 45.99 L 0.00 45.75 L 0.00 40.22 Z" />
<path fill="#cf4d59" opacity="1.00" d=" M 2.95 44.90 C 2.85 42.89 3.08 39.16 6.01 40.59 C 4.55 44.52 7.51 47.82 11.02 49.16 C 10.86 50.23 10.51 51.23 9.97 52.17 C 7.50 49.88 5.07 47.52 2.95 44.90 Z" />
<path fill="#8f98d9" opacity="1.00" d=" M 17.09 40.95 C 18.69 41.01 20.30 41.04 21.90 41.11 C 22.99 41.81 24.10 42.48 25.20 43.16 L 25.10 44.00 C 22.32 42.68 16.99 45.71 17.09 40.95 Z" />
<path fill="#4572c0" opacity="1.00" d=" M 86.54 41.82 C 91.36 46.63 87.82 54.43 84.15 59.07 C 85.26 62.38 89.54 59.12 91.60 57.89 L 92.17 58.54 C 91.54 60.91 90.95 63.31 90.75 65.76 C 90.19 70.56 89.95 75.39 89.76 80.22 C 86.94 77.83 87.85 72.43 87.02 71.07 C 82.20 84.72 70.89 96.26 58.79 104.55 C 58.59 104.16 58.18 103.39 57.97 103.00 C 76.67 91.42 85.41 66.46 75.94 46.08 C 79.98 49.80 84.94 46.08 86.54 41.82 Z" />
<path fill="#e969ad" opacity="1.00" d=" M 2.95 44.90 C 5.07 47.52 7.50 49.88 9.97 52.17 C 9.21 52.99 8.18 53.40 6.86 53.40 C 5.10 51.91 3.57 50.15 2.26 48.26 C 2.52 47.14 2.75 46.03 2.95 44.90 Z" />
<path fill="#6d4c33" opacity="1.00" d=" M 52.96 46.03 C 50.03 50.55 47.85 48.50 51.70 44.86 C 52.02 45.15 52.65 45.74 52.96 46.03 Z" />
<path fill="#7f4e4b" opacity="1.00" d=" M 50.24 51.66 C 51.74 48.71 55.16 46.24 58.32 44.73 C 63.64 52.32 60.13 62.50 64.68 70.35 C 63.51 72.13 57.62 79.43 55.16 74.98 C 52.93 67.33 50.42 59.75 50.24 51.66 Z" />
<path fill="#2e3b94" opacity="1.00" d=" M 91.98 49.11 C 94.70 49.39 97.43 49.31 100.16 49.53 C 97.75 49.35 97.36 52.11 99.09 53.31 C 101.84 55.85 101.81 60.55 99.03 63.09 C 101.11 68.26 106.02 71.36 111.00 73.33 L 111.00 80.21 C 107.20 76.61 101.80 74.54 99.04 70.00 C 98.12 65.54 96.26 60.97 92.17 58.54 L 91.60 57.89 C 91.16 54.97 91.63 52.02 91.98 49.11 Z" />
<path fill="#cfddf0" opacity="1.00" d=" M 99.09 53.31 C 97.36 52.11 97.75 49.35 100.16 49.53 C 100.50 49.87 101.19 50.56 101.53 50.91 C 100.88 51.87 100.07 52.67 99.09 53.31 Z" />
<path fill="#bc985f" opacity="1.00" d=" M 11.71 55.39 C 17.17 57.86 19.04 53.93 21.94 50.69 C 25.75 51.44 22.19 57.81 18.86 57.91 C 16.37 57.94 12.72 58.32 11.71 55.39 Z" />
<path fill="#5691d6" opacity="1.00" d=" M 101.53 50.91 C 103.21 52.71 104.53 55.14 103.57 57.63 C 101.55 63.21 108.03 66.74 111.00 70.37 L 111.00 73.33 C 106.02 71.36 101.11 68.26 99.03 63.09 C 101.81 60.55 101.84 55.85 99.09 53.31 C 100.07 52.67 100.88 51.87 101.53 50.91 Z" />
<path fill="#996346" opacity="1.00" d=" M 42.17 65.71 C 41.13 59.82 46.10 55.05 50.24 51.66 C 50.42 59.75 52.93 67.33 55.16 74.98 C 50.35 72.71 45.87 69.54 42.17 65.71 Z" />
<path fill="#9bc3df" opacity="1.00" d=" M 72.03 59.99 C 71.32 56.40 76.86 55.93 74.83 60.04 C 74.37 60.04 73.44 60.03 72.98 60.02 L 72.03 59.99 Z" />
<path fill="#bf9e60" opacity="1.00" d=" M 23.81 59.47 C 28.45 60.20 33.41 65.47 31.32 70.27 C 28.83 66.66 25.99 63.29 23.81 59.47 Z" />
<path fill="#0b0b14" opacity="0.98" d=" M 92.17 58.54 C 96.26 60.97 98.12 65.54 99.04 70.00 C 101.80 74.54 107.20 76.61 111.00 80.21 L 111.00 83.17 C 107.35 77.51 99.98 75.38 96.55 69.56 C 96.81 66.44 95.73 63.53 93.17 61.86 C 91.76 70.35 90.20 80.38 95.22 87.96 C 100.51 88.29 105.82 87.94 111.00 86.86 L 111.00 89.04 C 110.55 89.07 109.65 89.14 109.20 89.18 C 106.61 90.72 94.55 86.02 96.56 90.89 C 99.99 96.06 105.68 98.45 111.00 101.12 L 111.00 103.05 C 106.11 100.51 100.87 98.48 96.71 94.77 C 94.71 90.61 92.04 86.74 90.64 82.31 C 90.84 76.80 91.14 71.27 90.75 65.76 C 90.95 63.31 91.54 60.91 92.17 58.54 Z" />
<path fill="#436db8" opacity="1.00" d=" M 61.41 76.65 C 66.43 72.53 72.09 66.27 72.03 59.99 L 72.98 60.02 C 79.34 71.34 63.24 71.99 62.69 80.80 C 58.39 83.88 55.12 87.84 51.76 91.83 C 48.00 92.74 48.33 86.63 50.70 85.29 C 54.18 82.88 60.02 80.83 61.41 76.65 Z" />
<path fill="#2a3690" opacity="1.00" d=" M 72.98 60.02 C 73.44 60.03 74.37 60.04 74.83 60.04 C 79.25 69.14 72.54 79.41 62.69 80.80 C 63.24 71.99 79.34 71.34 72.98 60.02 Z" />
<path fill="#365d84" opacity="1.00" d=" M 77.28 59.75 C 78.07 63.25 78.03 66.75 77.18 70.24 C 77.14 66.74 77.22 63.24 77.28 59.75 Z" />
<path fill="#563356" opacity="1.00" d=" M 93.17 61.86 C 95.73 63.53 96.81 66.44 96.55 69.56 C 99.98 75.38 107.35 77.51 111.00 83.17 L 111.00 86.86 C 105.82 87.94 100.51 88.29 95.22 87.96 C 90.20 80.38 91.76 70.35 93.17 61.86 Z" />
<path fill="#233d60" opacity="1.00" d=" M 89.76 80.22 C 89.95 75.39 90.19 70.56 90.75 65.76 C 91.14 71.27 90.84 76.80 90.64 82.31 C 90.42 81.79 89.98 80.74 89.76 80.22 Z" />
<path fill="#3e62b4" opacity="1.00" d=" M 58.79 104.55 C 70.89 96.26 82.20 84.72 87.02 71.07 C 87.85 72.43 86.94 77.83 89.76 80.22 C 89.98 80.74 90.42 81.79 90.64 82.31 C 92.04 86.74 94.71 90.61 96.71 94.77 C 98.04 98.69 102.61 100.13 104.31 103.88 C 99.84 103.18 97.41 99.18 93.94 96.77 C 91.05 102.19 87.09 106.81 82.64 111.00 L 62.32 111.00 C 61.15 108.84 59.90 106.74 58.79 104.55 Z" />
<path fill="#81aed1" opacity="1.00" d=" M 50.70 85.29 C 53.70 81.92 57.07 78.20 61.41 76.65 C 60.02 80.83 54.18 82.88 50.70 85.29 Z" />
<path fill="#714442" opacity="1.00" d=" M 71.32 79.35 C 74.28 77.25 72.13 83.26 69.96 81.99 C 66.00 82.88 69.50 79.58 71.32 79.35 Z" />
<path fill="#000000" opacity="0.06" d=" M 64.92 82.14 C 66.97 82.68 68.96 83.41 70.93 84.20 C 67.90 90.94 61.53 95.94 55.18 98.95 C 48.81 92.30 60.16 85.54 64.92 82.14 Z" />
<path fill="#b8965a" opacity="1.00" d=" M 40.13 84.65 C 41.90 86.32 43.35 88.28 45.10 89.96 C 45.74 90.59 46.37 91.22 47.00 91.86 C 49.57 98.84 54.48 104.67 58.28 111.00 L 56.22 111.00 C 51.51 101.89 43.38 94.42 40.13 84.65 Z" />
<path fill="#000000" opacity="0.40" d=" M 96.56 90.89 C 94.55 86.02 106.61 90.72 109.20 89.18 C 105.00 89.84 100.63 89.59 96.56 90.89 Z" />
<path fill="#8d4943" opacity="1.00" d=" M 47.00 91.86 C 52.86 97.07 55.96 104.54 60.21 111.00 L 58.28 111.00 C 54.48 104.67 49.57 98.84 47.00 91.86 Z" />
<path fill="#5491d4" opacity="1.00" d=" M 104.31 103.88 C 102.61 100.13 98.04 98.69 96.71 94.77 C 100.87 98.48 106.11 100.51 111.00 103.05 L 111.00 108.11 C 108.86 106.56 106.57 105.24 104.31 103.88 Z" />
<path fill="#3449a3" opacity="1.00" d=" M 82.64 111.00 C 87.09 106.81 91.05 102.19 93.94 96.77 C 97.41 99.18 99.84 103.18 104.31 103.88 C 106.57 105.24 108.86 106.56 111.00 108.11 L 111.00 111.00 L 82.64 111.00 Z" />
<path fill="#d3e0ed" opacity="1.00" d=" M 41.53 111.00 C 44.24 109.23 46.92 107.42 49.75 105.85 C 50.04 107.79 50.89 109.54 52.20 111.00 L 41.53 111.00 Z" />
<path fill="#5f9ad3" opacity="1.00" d=" M 49.75 105.85 C 51.87 106.77 52.49 109.06 53.32 111.00 L 52.20 111.00 C 50.89 109.54 50.04 107.79 49.75 105.85 Z" />
</svg>
