<?xml version="1.0" encoding="UTF-8" ?>
<!DOCTYPE svg PUBLIC "-//W3C//DTD SVG 1.1//EN" "http://www.w3.org/Graphics/SVG/1.1/DTD/svg11.dtd">
<svg width="111pt" height="111pt" viewBox="0 0 111 111" version="1.1" xmlns="http://www.w3.org/2000/svg">
<path fill="#010101" opacity="1.00" d=" M 97.55 0.00 L 100.30 0.00 C 96.35 3.03 92.39 6.05 88.67 9.36 C 83.61 13.02 78.87 17.10 73.87 20.86 C 71.46 22.68 69.01 24.62 67.67 27.42 C 67.22 29.33 66.92 31.28 66.59 33.22 C 70.46 31.46 74.91 29.93 77.19 26.06 C 79.96 21.00 86.06 19.81 90.19 16.24 C 94.68 12.78 97.60 7.47 102.86 4.98 C 99.28 9.80 94.88 13.89 90.72 18.19 C 97.63 15.79 104.26 12.65 111.00 9.81 L 111.00 11.35 C 104.74 14.28 98.14 16.53 92.22 20.17 C 91.24 20.73 90.27 21.28 89.29 21.83 C 85.94 23.15 82.73 24.85 80.03 27.28 C 81.05 28.44 82.03 30.13 83.86 29.67 C 93.51 29.05 102.56 24.91 111.00 20.44 L 111.00 22.88 C 106.25 25.29 101.16 27.04 96.59 29.79 C 97.24 32.47 98.68 34.90 99.26 37.61 C 96.39 42.04 91.69 44.52 87.67 47.72 C 84.98 49.76 87.15 53.78 85.32 56.30 C 83.93 58.22 82.09 59.78 80.80 61.78 C 80.18 65.06 80.75 68.47 80.04 71.75 C 74.44 79.41 72.68 90.11 76.83 98.82 C 78.79 95.82 79.29 90.03 83.95 90.35 C 86.26 90.19 88.60 90.35 90.89 89.94 C 95.56 87.04 98.92 82.54 102.86 78.79 C 104.95 76.48 108.31 77.65 111.00 77.71 L 111.00 89.36 C 110.09 91.48 109.10 93.57 108.17 95.68 C 109.12 96.58 110.07 97.47 111.00 98.40 L 111.00 100.03 C 109.64 99.08 108.23 98.21 106.82 97.33 C 103.71 101.17 103.75 106.38 104.64 111.00 L 91.85 111.00 C 93.51 109.73 95.15 108.43 96.72 107.05 C 98.05 105.47 99.20 103.74 100.43 102.08 C 104.29 96.93 109.41 91.89 109.70 85.05 C 110.13 83.07 109.20 81.28 108.18 79.67 C 107.77 81.58 107.44 83.51 107.03 85.42 C 106.44 83.50 105.85 81.58 105.26 79.66 C 101.44 85.06 95.63 88.28 90.68 92.41 C 91.40 95.78 92.68 99.00 93.25 102.41 C 94.51 102.25 95.77 102.09 97.03 101.94 C 95.95 103.13 94.86 104.30 93.75 105.46 C 91.98 107.27 90.33 109.17 88.59 111.00 L 86.53 111.00 C 88.49 108.29 90.82 105.52 91.33 102.10 C 91.54 98.71 90.64 95.15 88.60 92.40 C 86.60 91.46 83.91 91.75 82.03 92.91 C 80.20 94.92 79.23 97.53 78.07 99.95 C 80.48 103.15 81.26 107.06 81.12 111.00 L 80.30 111.00 C 79.78 108.49 79.55 105.86 78.36 103.55 C 77.50 101.70 75.19 101.93 73.54 101.52 C 75.28 103.78 77.66 105.99 77.19 109.15 C 76.18 107.09 74.72 105.31 73.19 103.61 C 69.83 106.82 65.93 109.49 61.51 111.00 L 47.18 111.00 C 47.97 109.62 48.77 108.22 49.28 106.71 C 49.45 106.08 49.60 105.44 49.73 104.80 C 47.83 104.13 45.94 103.46 44.04 102.82 C 43.39 104.15 42.72 105.47 42.08 106.81 C 41.42 108.21 40.78 109.62 40.07 111.00 L 38.73 111.00 C 40.46 108.45 35.91 108.28 36.84 111.00 L 34.80 111.00 C 35.23 109.08 31.97 109.12 32.31 111.00 L 24.14 111.00 C 21.53 108.86 20.19 105.37 20.44 102.04 C 20.89 99.14 21.82 96.34 22.29 93.45 C 16.52 97.17 15.79 105.29 18.92 111.00 L 16.24 111.00 C 15.14 105.43 15.32 99.63 17.90 94.47 C 18.76 92.98 19.69 91.53 20.60 90.07 C 20.81 89.73 21.22 89.05 21.43 88.71 C 21.06 86.95 20.66 85.19 20.53 83.39 C 23.42 83.66 24.55 86.89 26.27 88.79 C 31.41 84.75 36.58 80.72 41.94 76.96 C 45.23 74.68 50.18 73.50 51.13 69.02 C 50.76 67.57 50.14 66.20 49.54 64.84 C 48.90 63.40 48.19 62.00 47.48 60.60 C 45.93 59.81 44.31 59.13 42.92 58.07 C 41.24 55.07 40.83 51.56 39.99 48.27 C 38.11 49.30 36.17 50.20 34.14 50.88 C 35.39 49.66 36.66 48.45 37.93 47.25 C 30.75 45.22 23.44 43.10 17.17 38.93 C 15.23 37.66 13.82 35.77 12.55 33.86 C 19.44 35.85 26.10 38.73 33.31 39.46 C 32.46 34.38 32.84 29.21 33.81 24.17 C 35.39 17.48 37.49 10.15 43.35 5.92 C 44.52 9.71 45.30 13.63 46.99 17.25 C 47.77 12.95 47.63 8.03 50.91 4.69 C 52.02 8.67 52.94 12.70 53.78 16.74 C 59.14 13.31 65.06 10.17 71.61 10.27 C 72.40 11.33 73.18 12.39 73.96 13.45 C 76.92 13.53 80.20 13.81 82.64 11.78 C 87.72 7.99 92.50 3.83 97.55 0.00 M 48.44 22.13 C 53.32 18.82 50.48 12.50 50.57 7.75 C 47.87 11.97 48.50 17.35 48.44 22.13 M 41.77 9.49 C 38.67 12.66 37.55 17.06 36.32 21.18 C 34.81 27.11 33.34 33.58 35.38 39.55 C 37.42 42.81 40.39 45.62 42.86 48.64 C 44.71 46.50 46.54 44.34 48.29 42.11 C 50.19 39.24 51.96 36.28 53.46 33.18 C 51.16 29.91 48.54 26.76 47.11 22.98 C 45.66 19.21 44.51 15.33 42.98 11.60 C 43.10 10.40 42.77 9.29 41.99 8.25 C 41.94 8.56 41.82 9.18 41.77 9.49 M 62.61 14.85 L 63.08 15.12 C 62.71 15.07 61.96 14.97 61.59 14.92 C 61.38 15.61 60.97 17.00 60.76 17.69 C 59.35 17.72 57.96 17.92 56.61 18.27 C 55.01 19.81 53.29 21.21 51.70 22.76 C 49.48 24.11 50.40 26.29 51.93 27.78 C 52.76 29.12 53.53 30.50 54.23 31.91 C 56.77 32.96 58.64 30.44 60.48 29.16 L 61.03 29.13 C 64.74 27.18 67.99 24.47 70.51 21.12 C 69.02 20.26 67.64 19.03 65.90 18.75 C 65.11 18.64 63.55 18.42 62.77 18.31 C 65.64 17.06 70.97 17.16 71.03 12.97 C 68.07 12.03 65.18 13.55 62.61 14.85 M 72.16 15.37 C 70.98 16.54 69.81 17.73 68.66 18.94 C 71.84 21.54 74.59 18.17 76.93 16.19 C 75.34 15.92 73.75 15.65 72.16 15.37 M 51.53 39.95 L 51.42 40.58 C 50.40 41.74 49.39 42.90 48.37 44.06 L 48.50 44.42 C 46.44 46.70 44.49 49.09 42.62 51.54 L 42.00 51.37 C 42.72 54.33 43.43 57.95 47.07 58.44 C 47.44 58.65 48.17 59.09 48.54 59.30 C 49.39 62.67 51.14 65.68 53.32 68.36 C 53.39 70.00 54.35 71.49 55.27 72.81 C 56.76 73.77 58.69 72.99 60.34 73.13 C 59.77 69.49 58.46 66.03 56.78 62.77 C 55.86 63.68 54.92 64.57 54.11 65.58 C 51.69 62.13 48.97 57.40 51.23 53.23 C 53.73 48.04 57.45 43.57 61.22 39.26 C 63.76 36.30 64.53 32.36 65.38 28.67 C 59.95 31.20 54.25 34.32 51.53 39.95 M 74.16 38.18 C 72.66 36.63 71.55 33.53 68.98 33.89 C 66.31 35.24 64.45 37.67 62.54 39.88 C 64.54 42.02 66.57 44.12 68.63 46.19 C 68.53 47.16 68.44 48.13 68.35 49.11 C 69.74 48.32 71.10 47.46 72.44 46.57 C 73.85 48.08 75.78 46.70 77.40 46.48 C 76.76 48.75 76.58 51.29 74.96 53.14 C 72.96 55.14 70.26 56.37 68.51 58.64 C 66.83 60.82 67.79 63.72 67.95 66.20 C 71.73 63.58 75.48 60.64 78.19 56.90 C 78.33 53.35 78.56 49.79 78.46 46.24 C 79.92 45.57 81.43 44.94 82.69 43.92 C 82.71 41.74 79.98 42.73 78.65 42.26 L 78.97 41.29 C 80.91 41.35 82.85 41.44 84.80 41.53 C 84.72 39.45 83.17 38.07 81.73 36.79 L 81.73 35.95 C 82.91 36.50 84.10 37.05 85.28 37.61 C 86.55 35.56 87.81 33.50 89.02 31.40 C 85.85 30.47 83.59 33.33 81.73 35.39 C 81.71 33.94 81.67 32.48 81.66 31.03 C 79.01 33.26 76.62 35.75 74.16 38.18 M 85.68 43.39 C 86.24 43.24 87.36 42.92 87.92 42.77 C 89.19 39.87 89.71 36.72 90.18 33.62 C 86.66 35.52 86.35 39.89 85.68 43.39 M 17.93 37.25 C 22.51 40.32 27.85 41.83 32.92 43.85 C 34.58 44.51 36.36 44.72 38.12 44.98 C 36.70 43.44 35.20 42.00 33.65 40.61 C 31.42 40.49 29.19 40.37 26.97 40.23 C 23.92 39.34 20.90 38.35 17.93 37.25 M 80.05 49.10 C 80.08 52.39 80.24 55.68 80.35 58.97 C 82.24 57.37 83.86 55.49 84.99 53.28 C 83.36 51.86 81.72 50.46 80.05 49.10 M 66.82 58.15 C 69.66 56.69 71.80 54.27 73.42 51.56 C 69.64 51.47 67.51 54.87 66.82 58.15 M 58.60 55.07 C 60.49 60.38 62.86 65.58 66.02 70.26 C 66.95 66.93 66.24 63.45 66.25 60.06 C 66.01 57.82 66.17 55.29 64.93 53.32 C 62.77 53.70 60.70 54.43 58.60 55.07 M 60.26 64.52 C 60.26 61.35 59.37 57.90 56.55 56.06 C 56.23 59.31 57.69 62.52 60.26 64.52 M 72.55 65.94 C 73.01 67.03 73.51 68.10 74.04 69.16 C 75.15 68.56 76.28 67.98 77.34 67.28 C 77.87 65.25 77.62 63.11 77.67 61.03 C 75.86 62.54 73.67 63.80 72.55 65.94 M 52.32 77.29 C 49.53 77.92 51.81 81.79 53.90 80.83 C 59.50 79.05 65.35 77.36 70.27 74.03 C 64.19 73.98 57.92 74.87 52.32 77.29 M 66.32 81.67 C 66.04 80.72 65.75 79.77 65.46 78.83 C 64.69 78.98 63.13 79.29 62.36 79.45 C 62.18 79.67 61.83 80.11 61.65 80.33 C 59.83 80.72 57.94 81.06 56.40 82.17 C 51.64 82.45 47.13 84.18 42.63 85.59 C 41.16 85.88 40.33 87.11 39.54 88.26 C 40.34 88.15 41.95 87.93 42.75 87.82 C 45.85 89.21 48.60 91.43 51.88 92.41 C 56.08 91.57 59.90 89.48 64.03 88.37 C 66.90 87.22 70.28 86.74 72.66 84.70 C 73.48 81.50 73.97 78.22 74.97 75.07 C 71.79 76.76 67.09 77.49 66.32 81.67 M 29.47 90.35 C 32.69 90.46 35.03 88.16 37.29 86.24 C 39.66 84.12 42.56 82.18 43.30 78.88 C 38.02 81.66 33.06 85.55 29.47 90.35 M 71.66 86.71 L 71.89 87.70 C 69.30 88.65 66.71 89.59 64.19 90.73 L 62.97 91.03 C 62.69 91.08 62.13 91.18 61.85 91.23 L 61.63 91.75 C 58.28 92.62 55.01 93.76 51.69 94.72 C 51.21 95.81 50.71 96.88 50.20 97.96 C 49.76 97.25 48.90 95.81 48.46 95.10 C 47.21 91.71 43.05 91.36 40.00 90.76 C 41.38 92.67 43.11 94.53 43.34 97.00 C 43.76 98.39 43.50 100.28 44.92 101.16 C 46.76 101.71 48.71 101.56 50.61 101.62 L 49.99 100.44 L 50.05 100.53 C 50.58 99.28 51.24 98.08 51.95 96.92 L 52.46 99.97 C 52.44 100.83 52.39 102.57 52.36 103.44 C 52.11 104.57 51.84 105.69 51.57 106.81 C 51.24 107.72 51.18 108.63 51.39 109.52 C 55.14 110.22 58.96 109.59 62.67 108.90 C 65.80 107.91 68.61 106.19 71.07 104.03 L 70.81 103.50 C 72.43 102.22 74.05 100.95 75.66 99.67 C 72.30 96.01 75.13 90.02 71.66 86.71 M 28.64 93.19 C 26.80 94.09 24.97 95.20 23.87 96.98 C 22.51 100.09 22.05 103.70 23.53 106.86 C 24.41 109.30 27.17 111.56 29.77 110.02 C 32.46 108.43 35.60 108.28 38.50 107.36 C 41.72 105.09 41.62 100.47 40.61 97.06 C 39.09 94.41 36.35 92.70 33.28 92.57 L 33.24 92.36 C 31.75 92.67 29.91 92.32 28.64 93.19 Z" />
<path fill="#202020" opacity="1.00" d=" M 100.30 0.00 L 106.97 0.00 C 105.58 1.64 104.27 3.35 102.86 4.98 C 97.60 7.47 94.68 12.78 90.19 16.24 C 86.06 19.81 79.96 21.00 77.19 26.06 C 74.91 29.93 70.46 31.46 66.59 33.22 C 66.92 31.28 67.22 29.33 67.67 27.42 C 72.51 24.90 76.53 21.18 80.85 17.90 C 83.86 15.49 87.39 13.22 88.67 9.36 C 92.39 6.05 96.35 3.03 100.30 0.00 Z" />
<path fill="#2c2c2c" opacity="1.00" d=" M 48.44 22.13 C 48.50 17.35 47.87 11.97 50.57 7.75 C 50.48 12.50 53.32 18.82 48.44 22.13 Z" />
<path fill="#353535" opacity="1.00" d=" M 41.77 9.49 C 41.82 9.18 41.94 8.56 41.99 8.25 C 42.77 9.29 43.10 10.40 42.98 11.60 C 40.98 17.85 43.46 24.30 46.04 29.98 C 47.89 33.76 47.56 38.07 48.29 42.11 C 46.54 44.34 44.71 46.50 42.86 48.64 C 40.39 45.62 37.42 42.81 35.38 39.55 C 36.54 35.06 37.09 30.47 37.78 25.90 C 38.61 20.31 41.02 15.10 41.77 9.49 Z" />
<path fill="#464646" opacity="1.00" d=" M 41.77 9.49 C 41.02 15.10 38.61 20.31 37.78 25.90 C 37.09 30.47 36.54 35.06 35.38 39.55 C 33.34 33.58 34.81 27.11 36.32 21.18 C 37.55 17.06 38.67 12.66 41.77 9.49 Z" />
<path fill="#353535" opacity="1.00" d=" M 73.87 20.86 C 78.87 17.10 83.61 13.02 88.67 9.36 C 87.39 13.22 83.86 15.49 80.85 17.90 C 76.53 21.18 72.51 24.90 67.67 27.42 C 69.01 24.62 71.46 22.68 73.87 20.86 Z" />
<path fill="#202020" opacity="1.00" d=" M 42.98 11.60 C 44.51 15.33 45.66 19.21 47.11 22.98 C 48.54 26.76 51.16 29.91 53.46 33.18 C 51.96 36.28 50.19 39.24 48.29 42.11 C 47.56 38.07 47.89 33.76 46.04 29.98 C 43.46 24.30 40.98 17.85 42.98 11.60 Z" />
<path fill="#a8f4f8" opacity="1.00" d=" M 92.22 20.17 C 98.14 16.53 104.74 14.28 111.00 11.35 L 111.00 14.46 C 108.01 15.61 104.96 16.60 102.03 17.89 C 98.91 19.14 95.72 21.11 92.22 20.17 Z" />
<path fill="#171717" opacity="1.00" d=" M 62.61 14.85 C 65.18 13.55 68.07 12.03 71.03 12.97 C 70.97 17.16 65.64 17.06 62.77 18.31 C 63.00 17.32 63.32 16.35 63.48 15.35 L 63.08 15.12 L 62.61 14.85 Z" />
<path fill="#4cb1ce" opacity="1.00" d=" M 61.59 14.92 C 61.96 14.97 62.71 15.07 63.08 15.12 L 63.48 15.35 C 63.32 16.35 63.00 17.32 62.77 18.31 C 63.55 18.42 65.11 18.64 65.90 18.75 C 63.10 20.08 60.42 21.65 57.94 23.51 C 58.50 22.36 59.05 21.21 59.59 20.06 C 58.60 19.47 57.60 18.87 56.61 18.27 C 57.96 17.92 59.35 17.72 60.76 17.69 C 60.97 17.00 61.38 15.61 61.59 14.92 Z" />
<path fill="#121212" opacity="1.00" d=" M 72.16 15.37 C 73.75 15.65 75.34 15.92 76.93 16.19 C 74.59 18.17 71.84 21.54 68.66 18.94 C 69.81 17.73 70.98 16.54 72.16 15.37 Z" />
<path fill="#61dce6" opacity="1.00" d=" M 102.03 17.89 C 104.96 16.60 108.01 15.61 111.00 14.46 L 111.00 15.40 C 103.89 19.71 96.09 22.74 88.94 26.99 C 86.95 27.97 84.21 29.90 82.27 27.82 C 82.24 27.53 82.19 26.94 82.16 26.65 C 84.51 25.00 86.97 23.52 89.29 21.83 C 90.27 21.28 91.24 20.73 92.22 20.17 C 95.72 21.11 98.91 19.14 102.03 17.89 Z" />
<path fill="#042560" opacity="1.00" d=" M 88.94 26.99 C 96.09 22.74 103.89 19.71 111.00 15.40 L 111.00 20.44 C 102.56 24.91 93.51 29.05 83.86 29.67 C 82.03 30.13 81.05 28.44 80.03 27.28 C 82.73 24.85 85.94 23.15 89.29 21.83 C 86.97 23.52 84.51 25.00 82.16 26.65 C 82.19 26.94 82.24 27.53 82.27 27.82 C 84.21 29.90 86.95 27.97 88.94 26.99 Z" />
<path fill="#a8f4f8" opacity="1.00" d=" M 51.70 22.76 C 53.29 21.21 55.01 19.81 56.61 18.27 C 57.60 18.87 58.60 19.47 59.59 20.06 C 59.05 21.21 58.50 22.36 57.94 23.51 C 57.77 23.67 57.42 23.99 57.25 24.15 C 55.43 25.21 53.38 25.75 51.28 25.72 C 51.39 24.98 51.60 23.50 51.70 22.76 Z" />
<path fill="#04215e" opacity="1.00" d=" M 65.90 18.75 C 67.64 19.03 69.02 20.26 70.51 21.12 C 67.99 24.47 64.74 27.18 61.03 29.13 L 60.48 29.16 C 57.95 28.82 55.87 30.11 54.23 31.91 C 53.53 30.50 52.76 29.12 51.93 27.78 C 53.84 26.79 55.74 25.72 57.25 24.15 C 57.42 23.99 57.77 23.67 57.94 23.51 C 60.42 21.65 63.10 20.08 65.90 18.75 Z" />
<path fill="#368099" opacity="1.00" d=" M 51.93 27.78 C 50.40 26.29 49.48 24.11 51.70 22.76 C 51.60 23.50 51.39 24.98 51.28 25.72 C 53.38 25.75 55.43 25.21 57.25 24.15 C 55.74 25.72 53.84 26.79 51.93 27.78 Z" />
<path fill="#151515" opacity="1.00" d=" M 96.59 29.79 C 101.16 27.04 106.25 25.29 111.00 22.88 L 111.00 32.76 C 107.78 35.38 104.32 37.69 100.97 40.14 C 100.39 39.30 99.82 38.45 99.26 37.61 C 98.68 34.90 97.24 32.47 96.59 29.79 Z" />
<path fill="#224f5d" opacity="1.00" d=" M 54.23 31.91 C 55.87 30.11 57.95 28.82 60.48 29.16 C 58.64 30.44 56.77 32.96 54.23 31.91 Z" />
<path fill="#202020" opacity="1.00" d=" M 51.53 39.95 C 54.25 34.32 59.95 31.20 65.38 28.67 C 64.53 32.36 63.76 36.30 61.22 39.26 C 57.45 43.57 53.73 48.04 51.23 53.23 C 48.97 57.40 51.69 62.13 54.11 65.58 C 53.81 66.50 53.55 67.42 53.32 68.36 C 51.14 65.68 49.39 62.67 48.54 59.30 C 48.17 59.09 47.44 58.65 47.07 58.44 C 49.92 52.88 50.36 46.62 51.42 40.58 L 51.53 39.95 Z" />
<path fill="#000000" opacity="1.00" d=" M 0.00 68.80 C 2.55 56.04 3.54 42.83 7.91 30.51 C 9.52 34.12 9.71 38.10 10.28 41.95 C 11.50 50.81 13.36 59.55 14.95 68.35 C 17.62 65.65 20.49 63.17 23.47 60.81 C 21.85 63.96 19.02 66.15 16.59 68.62 C 16.08 71.46 16.47 74.34 16.93 77.16 C 23.48 77.21 30.19 76.91 36.42 79.26 C 32.71 82.69 28.21 79.01 24.04 78.83 C 19.93 78.72 15.85 79.54 11.83 80.34 C 9.95 81.06 8.13 81.97 6.54 83.24 C 4.26 85.20 2.07 87.27 0.00 89.45 L 0.00 86.77 C 1.02 86.18 2.48 85.84 2.82 84.55 C 2.57 82.84 0.38 84.34 0.00 85.24 L 0.00 68.80 M 7.24 36.78 C 6.30 42.24 4.43 47.62 4.49 53.20 C 4.38 53.91 4.15 55.33 4.04 56.04 C 2.58 64.93 1.11 73.82 0.20 82.78 C 1.47 82.20 2.76 81.64 4.04 81.08 C 7.15 80.01 10.20 78.77 13.31 77.71 C 13.90 75.08 13.74 72.38 13.54 69.72 L 12.12 70.01 L 13.16 68.43 C 11.59 60.00 9.47 51.63 8.95 43.04 C 8.67 40.90 8.92 38.43 7.24 36.78 Z" />
<path fill="#101012" opacity="1.00" d=" M 74.16 38.18 C 76.62 35.75 79.01 33.26 81.66 31.03 C 81.67 32.48 81.71 33.94 81.73 35.39 L 81.73 35.95 L 81.73 36.79 C 80.63 38.17 79.53 39.59 78.97 41.29 L 78.65 42.26 C 78.53 42.66 78.28 43.48 78.16 43.88 C 77.89 44.74 77.64 45.61 77.40 46.48 C 75.78 46.70 73.85 48.08 72.44 46.57 C 71.10 47.46 69.74 48.32 68.35 49.11 C 68.44 48.13 68.53 47.16 68.63 46.19 C 66.57 44.12 64.54 42.02 62.54 39.88 C 64.45 37.67 66.31 35.24 68.98 33.89 C 71.55 33.53 72.66 36.63 74.16 38.18 Z" />
<path fill="#28688c" opacity="1.00" d=" M 81.73 35.39 C 83.59 33.33 85.85 30.47 89.02 31.40 C 87.81 33.50 86.55 35.56 85.28 37.61 C 84.10 37.05 82.91 36.50 81.73 35.95 L 81.73 35.39 Z" />
<path fill="#232323" opacity="1.00" d=" M 100.97 40.14 C 104.32 37.69 107.78 35.38 111.00 32.76 L 111.00 52.31 C 106.92 55.45 103.63 59.48 99.49 62.56 C 95.21 65.63 92.63 70.41 88.48 73.63 C 88.07 73.22 87.27 72.38 86.86 71.97 C 84.96 75.02 82.82 78.02 79.70 79.95 C 79.47 77.21 79.58 74.46 80.04 71.75 C 80.75 68.47 80.18 65.06 80.80 61.78 C 82.09 59.78 83.93 58.22 85.32 56.30 C 87.15 53.78 84.98 49.76 87.67 47.72 C 91.69 44.52 96.39 42.04 99.26 37.61 C 99.82 38.45 100.39 39.30 100.97 40.14 M 86.92 64.22 C 89.13 62.58 90.68 60.29 91.97 57.89 C 88.42 57.11 86.73 61.35 86.92 64.22 Z" />
<path fill="#2a2929" opacity="1.00" d=" M 85.68 43.39 C 86.35 39.89 86.66 35.52 90.18 33.62 C 89.71 36.72 89.19 39.87 87.92 42.77 C 87.36 42.92 86.24 43.24 85.68 43.39 Z" />
<path fill="#0c3a78" opacity="1.00" d=" M 7.24 36.78 C 8.92 38.43 8.67 40.90 8.95 43.04 C 9.47 51.63 11.59 60.00 13.16 68.43 C 11.53 68.99 9.93 69.62 8.32 70.25 C 8.31 69.80 8.27 68.91 8.26 68.46 C 7.83 68.12 6.97 67.44 6.54 67.10 C 6.65 63.00 6.60 58.91 6.77 54.81 C 7.63 49.60 7.36 44.30 7.65 39.05 C 7.40 43.93 6.35 48.69 4.49 53.20 C 4.43 47.62 6.30 42.24 7.24 36.78 Z" />
<path fill="#62d8ef" opacity="1.00" d=" M 17.93 37.25 C 20.90 38.35 23.92 39.34 26.97 40.23 C 29.19 40.37 31.42 40.49 33.65 40.61 C 35.20 42.00 36.70 43.44 38.12 44.98 C 36.36 44.72 34.58 44.51 32.92 43.85 C 27.85 41.83 22.51 40.32 17.93 37.25 Z" />
<path fill="#5ecfe1" opacity="1.00" d=" M 78.97 41.29 C 79.53 39.59 80.63 38.17 81.73 36.79 C 83.17 38.07 84.72 39.45 84.80 41.53 C 82.85 41.44 80.91 41.35 78.97 41.29 Z" />
<path fill="#70e8f7" opacity="1.00" d=" M 7.65 39.05 C 7.36 44.30 7.63 49.60 6.77 54.81 C 5.53 63.53 2.58 72.19 4.04 81.08 C 2.76 81.64 1.47 82.20 0.20 82.78 C 1.11 73.82 2.58 64.93 4.04 56.04 C 4.15 55.33 4.38 53.91 4.49 53.20 C 6.35 48.69 7.40 43.93 7.65 39.05 Z" />
<path fill="#353535" opacity="1.00" d=" M 51.42 40.58 C 50.36 46.62 49.92 52.88 47.07 58.44 C 43.43 57.95 42.72 54.33 42.00 51.37 L 42.62 51.54 C 43.04 51.65 43.88 51.86 44.30 51.97 C 46.28 50.40 47.93 48.45 49.15 46.23 C 48.99 45.78 48.66 44.87 48.50 44.42 L 48.37 44.06 C 49.39 42.90 50.40 41.74 51.42 40.58 Z" />
<path fill="#77dfe7" opacity="1.00" d=" M 78.65 42.26 C 79.98 42.73 82.71 41.74 82.69 43.92 C 81.43 44.94 79.92 45.57 78.46 46.24 C 78.39 45.65 78.23 44.47 78.16 43.88 C 78.28 43.48 78.53 42.66 78.65 42.26 Z" />
<path fill="#212121" opacity="1.00" d=" M 77.40 46.48 C 77.64 45.61 77.89 44.74 78.16 43.88 C 78.23 44.47 78.39 45.65 78.46 46.24 C 78.56 49.79 78.33 53.35 78.19 56.90 C 75.48 60.64 71.73 63.58 67.95 66.20 C 67.79 63.72 66.83 60.82 68.51 58.64 C 70.26 56.37 72.96 55.14 74.96 53.14 C 76.58 51.29 76.76 48.75 77.40 46.48 Z" />
<path fill="#484848" opacity="1.00" d=" M 48.50 44.42 C 48.66 44.87 48.99 45.78 49.15 46.23 C 47.93 48.45 46.28 50.40 44.30 51.97 C 43.88 51.86 43.04 51.65 42.62 51.54 C 44.49 49.09 46.44 46.70 48.50 44.42 Z" />
<path fill="#232323" opacity="1.00" d=" M 34.14 50.88 C 36.17 50.20 38.11 49.30 39.99 48.27 C 40.83 51.56 41.24 55.07 42.92 58.07 C 44.31 59.13 45.93 59.81 47.48 60.60 C 48.19 62.00 48.90 63.40 49.54 64.84 C 49.14 65.16 48.34 65.81 47.94 66.14 C 46.97 65.22 46.04 64.26 45.11 63.30 C 43.89 67.29 43.21 72.14 39.05 74.20 C 39.92 71.07 40.93 67.98 41.79 64.85 C 38.10 68.53 37.01 74.14 32.84 77.37 C 31.52 75.65 33.50 73.83 34.03 72.17 C 31.98 73.51 29.85 75.80 27.16 74.97 C 23.94 74.44 23.37 70.66 21.41 68.59 C 19.81 68.41 18.19 68.56 16.59 68.62 C 19.02 66.15 21.85 63.96 23.47 60.81 C 24.62 58.71 25.19 56.35 26.30 54.23 C 27.73 53.80 28.94 55.14 30.23 55.54 C 30.64 55.18 31.44 54.46 31.84 54.10 C 32.14 53.56 32.73 52.48 33.02 51.94 C 33.30 51.67 33.86 51.15 34.14 50.88 M 25.91 66.08 C 28.39 65.93 29.37 63.66 30.25 61.70 C 27.62 61.52 26.43 63.92 25.91 66.08 Z" />
<path fill="#151515" opacity="1.00" d=" M 80.05 49.10 C 81.72 50.46 83.36 51.86 84.99 53.28 C 83.86 55.49 82.24 57.37 80.35 58.97 C 80.24 55.68 80.08 52.39 80.05 49.10 Z" />
<path fill="#010101" opacity="0.65" d=" M 31.84 54.10 C 32.14 53.56 32.73 52.48 33.02 51.94 C 32.73 52.48 32.14 53.56 31.84 54.10 Z" />
<path fill="#2c2c2c" opacity="1.00" d=" M 66.82 58.15 C 67.51 54.87 69.64 51.47 73.42 51.56 C 71.80 54.27 69.66 56.69 66.82 58.15 Z" />
<path fill="#343434" opacity="1.00" d=" M 58.60 55.07 C 60.70 54.43 62.77 53.70 64.93 53.32 C 66.17 55.29 66.01 57.82 66.25 60.06 C 66.24 63.45 66.95 66.93 66.02 70.26 C 62.86 65.58 60.49 60.38 58.60 55.07 Z" />
<path fill="#121212" opacity="1.00" d=" M 99.49 62.56 C 103.63 59.48 106.92 55.45 111.00 52.31 L 111.00 77.71 C 108.31 77.65 104.95 76.48 102.86 78.79 C 98.92 82.54 95.56 87.04 90.89 89.94 C 88.60 90.35 86.26 90.19 83.95 90.35 C 79.29 90.03 78.79 95.82 76.83 98.82 C 72.68 90.11 74.44 79.41 80.04 71.75 C 79.58 74.46 79.47 77.21 79.70 79.95 C 82.82 78.02 84.96 75.02 86.86 71.97 C 87.27 72.38 88.07 73.22 88.48 73.63 C 92.63 70.41 95.21 65.63 99.49 62.56 Z" />
<path fill="#2a75ac" opacity="1.00" d=" M 4.04 81.08 C 2.58 72.19 5.53 63.53 6.77 54.81 C 6.60 58.91 6.65 63.00 6.54 67.10 C 6.97 67.44 7.83 68.12 8.26 68.46 C 8.27 68.91 8.31 69.80 8.32 70.25 C 9.93 69.62 11.53 68.99 13.16 68.43 L 12.12 70.01 C 11.08 71.27 10.04 72.53 8.99 73.79 C 10.42 75.11 11.85 76.43 13.31 77.71 C 10.20 78.77 7.15 80.01 4.04 81.08 Z" />
<path fill="#262626" opacity="1.00" d=" M 60.26 64.52 C 57.69 62.52 56.23 59.31 56.55 56.06 C 59.37 57.90 60.26 61.35 60.26 64.52 Z" />
<path fill="#3e3e3e" opacity="1.00" d=" M 86.92 64.22 C 86.73 61.35 88.42 57.11 91.97 57.89 C 90.68 60.29 89.13 62.58 86.92 64.22 Z" />
<path fill="#141414" opacity="1.00" d=" M 72.55 65.94 C 73.67 63.80 75.86 62.54 77.67 61.03 C 77.62 63.11 77.87 65.25 77.34 67.28 C 76.28 67.98 75.15 68.56 74.04 69.16 C 73.51 68.10 73.01 67.03 72.55 65.94 Z" />
<path fill="#3b3b3b" opacity="1.00" d=" M 25.91 66.08 C 26.43 63.92 27.62 61.52 30.25 61.70 C 29.37 63.66 28.39 65.93 25.91 66.08 Z" />
<path fill="#151515" opacity="1.00" d=" M 45.11 63.30 C 46.04 64.26 46.97 65.22 47.94 66.14 C 48.34 65.81 49.14 65.16 49.54 64.84 C 50.14 66.20 50.76 67.57 51.13 69.02 C 50.18 73.50 45.23 74.68 41.94 76.96 C 36.58 80.72 31.41 84.75 26.27 88.79 C 24.55 86.89 23.42 83.66 20.53 83.39 C 20.66 85.19 21.06 86.95 21.43 88.71 C 21.22 89.05 20.81 89.73 20.60 90.07 C 20.21 84.98 14.58 83.86 11.83 80.34 C 15.85 79.54 19.93 78.72 24.04 78.83 C 28.21 79.01 32.71 82.69 36.42 79.26 C 30.19 76.91 23.48 77.21 16.93 77.16 C 16.47 74.34 16.08 71.46 16.59 68.62 C 18.19 68.56 19.81 68.41 21.41 68.59 C 23.37 70.66 23.94 74.44 27.16 74.97 C 29.85 75.80 31.98 73.51 34.03 72.17 C 33.50 73.83 31.52 75.65 32.84 77.37 C 37.01 74.14 38.10 68.53 41.79 64.85 C 40.93 67.98 39.92 71.07 39.05 74.20 C 43.21 72.14 43.89 67.29 45.11 63.30 Z" />
<path fill="#101010" opacity="1.00" d=" M 54.11 65.58 C 54.92 64.57 55.86 63.68 56.78 62.77 C 58.46 66.03 59.77 69.49 60.34 73.13 C 58.69 72.99 56.76 73.77 55.27 72.81 C 54.35 71.49 53.39 70.00 53.32 68.36 C 53.55 67.42 53.81 66.50 54.11 65.58 Z" />
<path fill="#51adbc" opacity="1.00" d=" M 8.99 73.79 C 10.04 72.53 11.08 71.27 12.12 70.01 L 13.54 69.72 C 13.74 72.38 13.90 75.08 13.31 77.71 C 11.85 76.43 10.42 75.11 8.99 73.79 Z" />
<path fill="#171717" opacity="1.00" d=" M 52.32 77.29 C 57.92 74.87 64.19 73.98 70.27 74.03 C 65.35 77.36 59.50 79.05 53.90 80.83 C 51.81 81.79 49.53 77.92 52.32 77.29 Z" />
<path fill="#161616" opacity="1.00" d=" M 66.32 81.67 C 67.09 77.49 71.79 76.76 74.97 75.07 C 73.97 78.22 73.48 81.50 72.66 84.70 C 70.28 86.74 66.90 87.22 64.03 88.37 C 59.90 89.48 56.08 91.57 51.88 92.41 C 48.60 91.43 45.85 89.21 42.75 87.82 C 47.52 86.56 52.37 85.13 56.40 82.17 C 57.94 81.06 59.83 80.72 61.65 80.33 C 61.83 80.11 62.18 79.67 62.36 79.45 C 63.01 80.83 63.71 82.20 64.50 83.51 C 64.84 81.95 65.16 80.39 65.46 78.83 C 65.75 79.77 66.04 80.72 66.32 81.67 Z" />
<path fill="#151515" opacity="1.00" d=" M 29.47 90.35 C 33.06 85.55 38.02 81.66 43.30 78.88 C 42.56 82.18 39.66 84.12 37.29 86.24 C 35.03 88.16 32.69 90.46 29.47 90.35 Z" />
<path fill="#30676f" opacity="1.00" d=" M 62.36 79.45 C 63.13 79.29 64.69 78.98 65.46 78.83 C 65.16 80.39 64.84 81.95 64.50 83.51 C 63.71 82.20 63.01 80.83 62.36 79.45 Z" />
<path fill="#1a1a1b" opacity="1.00" d=" M 90.68 92.41 C 95.63 88.28 101.44 85.06 105.26 79.66 C 105.85 81.58 106.44 83.50 107.03 85.42 C 105.06 91.11 101.44 96.03 97.93 100.85 C 97.70 101.12 97.25 101.67 97.03 101.94 C 95.77 102.09 94.51 102.25 93.25 102.41 C 92.68 99.00 91.40 95.78 90.68 92.41 Z" />
<path fill="#2d7fa3" opacity="1.00" d=" M 108.18 79.67 C 109.20 81.28 110.13 83.07 109.70 85.05 C 109.41 91.89 104.29 96.93 100.43 102.08 C 99.80 101.77 98.55 101.16 97.93 100.85 C 101.44 96.03 105.06 91.11 107.03 85.42 C 107.44 83.51 107.77 81.58 108.18 79.67 Z" />
<path fill="#202020" opacity="1.00" d=" M 6.54 83.24 C 8.13 81.97 9.95 81.06 11.83 80.34 C 14.58 83.86 20.21 84.98 20.60 90.07 C 19.69 91.53 18.76 92.98 17.90 94.47 C 15.25 95.94 13.49 98.42 11.95 100.95 C 9.57 104.59 6.76 107.93 3.70 111.00 L 0.00 111.00 L 0.00 92.51 C 2.11 89.47 7.13 87.48 6.54 83.24 Z" />
<path fill="#323232" opacity="1.00" d=" M 42.63 85.59 C 47.13 84.18 51.64 82.45 56.40 82.17 C 52.37 85.13 47.52 86.56 42.75 87.82 C 41.95 87.93 40.34 88.15 39.54 88.26 C 40.33 87.11 41.16 85.88 42.63 85.59 Z" />
<path fill="#292929" opacity="1.00" d=" M 0.00 85.24 C 0.38 84.34 2.57 82.84 2.82 84.55 C 2.48 85.84 1.02 86.18 0.00 86.77 L 0.00 85.24 Z" />
<path fill="#363636" opacity="1.00" d=" M 0.00 89.45 C 2.07 87.27 4.26 85.20 6.54 83.24 C 7.13 87.48 2.11 89.47 0.00 92.51 L 0.00 89.45 Z" />
<path fill="#1d5788" opacity="1.00" d=" M 71.66 86.71 C 75.13 90.02 72.30 96.01 75.66 99.67 C 74.05 100.95 72.43 102.22 70.81 103.50 C 69.62 100.85 68.29 97.98 65.16 97.28 C 66.47 96.56 67.82 95.92 69.16 95.26 C 70.64 95.45 72.13 95.52 73.63 95.61 C 73.12 92.96 72.54 90.32 71.89 87.70 L 71.66 86.71 Z" />
<path fill="#66dfef" opacity="1.00" d=" M 71.89 87.70 C 72.54 90.32 73.12 92.96 73.63 95.61 C 72.13 95.52 70.64 95.45 69.16 95.26 C 67.55 93.69 66.04 92.01 64.19 90.73 C 66.71 89.59 69.30 88.65 71.89 87.70 Z" />
<path fill="#151515" opacity="1.00" d=" M 108.17 95.68 C 109.10 93.57 110.09 91.48 111.00 89.36 L 111.00 98.40 C 110.07 97.47 109.12 96.58 108.17 95.68 Z" />
<path fill="#5ecfe1" opacity="1.00" d=" M 40.00 90.76 C 43.05 91.36 47.21 91.71 48.46 95.10 C 48.38 95.89 48.29 96.68 48.19 97.47 C 48.81 98.45 49.43 99.42 49.99 100.44 L 50.61 101.62 C 48.71 101.56 46.76 101.71 44.92 101.16 C 43.50 100.28 43.76 98.39 43.34 97.00 C 43.11 94.53 41.38 92.67 40.00 90.76 Z" />
<path fill="#76dae5" opacity="1.00" d=" M 61.85 91.23 C 62.13 91.18 62.69 91.08 62.97 91.03 C 63.19 93.03 62.73 94.95 61.62 96.63 C 61.47 97.99 61.33 99.35 61.20 100.72 C 59.79 99.81 58.39 98.90 56.99 97.98 C 59.02 96.33 60.81 94.29 61.63 91.75 L 61.85 91.23 Z" />
<path fill="#2f8dba" opacity="1.00" d=" M 62.97 91.03 L 64.19 90.73 C 66.04 92.01 67.55 93.69 69.16 95.26 C 67.82 95.92 66.47 96.56 65.16 97.28 C 64.07 98.39 63.03 99.55 61.99 100.72 C 58.72 101.40 55.51 102.33 52.36 103.44 C 52.39 102.57 52.44 100.83 52.46 99.97 C 53.98 99.33 55.50 98.69 56.99 97.98 C 58.39 98.90 59.79 99.81 61.20 100.72 C 61.33 99.35 61.47 97.99 61.62 96.63 C 62.73 94.95 63.19 93.03 62.97 91.03 Z" />
<path fill="#c3c3c3" opacity="1.00" d=" M 28.64 93.19 C 29.91 92.32 31.75 92.67 33.24 92.36 L 33.28 92.57 C 33.63 94.43 34.02 96.29 34.40 98.14 C 33.99 99.32 33.60 100.51 33.21 101.69 C 30.50 104.01 27.57 106.05 24.57 107.97 C 24.29 105.92 24.02 103.87 23.90 101.80 C 27.21 100.17 27.51 96.28 28.64 93.19 M 30.10 93.11 C 29.60 94.75 30.15 95.29 31.77 94.72 C 32.28 93.08 31.73 92.54 30.10 93.11 Z" />
<path fill="#c7fdfe" opacity="1.00" d=" M 51.69 94.72 C 55.01 93.76 58.28 92.62 61.63 91.75 C 60.81 94.29 59.02 96.33 56.99 97.98 C 55.50 98.69 53.98 99.33 52.46 99.97 L 51.95 96.92 C 51.24 98.08 50.58 99.28 50.05 100.53 L 49.99 100.44 C 49.43 99.42 48.81 98.45 48.19 97.47 C 48.29 96.68 48.38 95.89 48.46 95.10 C 48.90 95.81 49.76 97.25 50.20 97.96 C 50.71 96.88 51.21 95.81 51.69 94.72 Z" />
<path fill="#141414" opacity="1.00" d=" M 82.03 92.91 C 83.91 91.75 86.60 91.46 88.60 92.40 C 90.64 95.15 91.54 98.71 91.33 102.10 C 90.82 105.52 88.49 108.29 86.53 111.00 L 81.12 111.00 C 81.26 107.06 80.48 103.15 78.07 99.95 C 79.23 97.53 80.20 94.92 82.03 92.91 Z" />
<path fill="#dedede" opacity="1.00" d=" M 30.10 93.11 C 31.73 92.54 32.28 93.08 31.77 94.72 C 30.15 95.29 29.60 94.75 30.10 93.11 Z" />
<path fill="#434b54" opacity="1.00" d=" M 33.28 92.57 C 36.35 92.70 39.09 94.41 40.61 97.06 C 40.35 98.85 38.58 99.29 37.24 100.08 C 35.43 101.14 34.00 102.71 32.52 104.17 C 32.69 103.55 33.04 102.31 33.21 101.69 C 33.60 100.51 33.99 99.32 34.40 98.14 C 34.02 96.29 33.63 94.43 33.28 92.57 Z" />
<path fill="#161616" opacity="1.00" d=" M 18.92 111.00 C 15.79 105.29 16.52 97.17 22.29 93.45 C 21.82 96.34 20.89 99.14 20.44 102.04 C 20.19 105.37 21.53 108.86 24.14 111.00 L 18.92 111.00 Z" />
<path fill="#d4d4d4" opacity="1.00" d=" M 23.87 96.98 C 24.97 95.20 26.80 94.09 28.64 93.19 C 27.51 96.28 27.21 100.17 23.90 101.80 C 23.84 100.19 23.83 98.59 23.87 96.98 Z" />
<path fill="#141414" opacity="1.00" d=" M 11.95 100.95 C 13.49 98.42 15.25 95.94 17.90 94.47 C 15.32 99.63 15.14 105.43 16.24 111.00 L 3.70 111.00 C 6.76 107.93 9.57 104.59 11.95 100.95 Z" />
<path fill="#7c7c7c" opacity="1.00" d=" M 23.53 106.86 C 22.05 103.70 22.51 100.09 23.87 96.98 C 23.83 98.59 23.84 100.19 23.90 101.80 C 24.02 103.87 24.29 105.92 24.57 107.97 C 27.57 106.05 30.50 104.01 33.21 101.69 C 33.04 102.31 32.69 103.55 32.52 104.17 C 32.37 104.65 32.07 105.60 31.92 106.08 C 34.90 105.63 39.73 107.11 40.25 102.85 C 41.73 100.65 39.27 98.65 37.24 100.08 C 38.58 99.29 40.35 98.85 40.61 97.06 C 41.62 100.47 41.72 105.09 38.50 107.36 C 35.60 108.28 32.46 108.43 29.77 110.02 C 27.17 111.56 24.41 109.30 23.53 106.86 Z" />
<path fill="#06285c" opacity="1.00" d=" M 61.99 100.72 C 63.03 99.55 64.07 98.39 65.16 97.28 C 68.29 97.98 69.62 100.85 70.81 103.50 L 71.07 104.03 C 68.61 106.19 65.80 107.91 62.67 108.90 C 61.96 107.73 61.28 106.54 60.47 105.44 C 57.48 105.78 54.60 106.79 51.57 106.81 C 51.84 105.69 52.11 104.57 52.36 103.44 C 55.51 102.33 58.72 101.40 61.99 100.72 Z" />
<path fill="#101010" opacity="1.00" d=" M 104.64 111.00 C 103.75 106.38 103.71 101.17 106.82 97.33 C 108.23 98.21 109.64 99.08 111.00 100.03 L 111.00 111.00 L 104.64 111.00 Z" />
<path fill="#000000" opacity="1.00" d=" M 32.52 104.17 C 34.00 102.71 35.43 101.14 37.24 100.08 C 39.27 98.65 41.73 100.65 40.25 102.85 C 39.73 107.11 34.90 105.63 31.92 106.08 C 32.07 105.60 32.37 104.65 32.52 104.17 Z" />
<path fill="#68bfc5" opacity="1.00" d=" M 97.03 101.94 C 97.25 101.67 97.70 101.12 97.93 100.85 C 98.55 101.16 99.80 101.77 100.43 102.08 C 99.20 103.74 98.05 105.47 96.72 107.05 C 95.98 106.65 94.49 105.86 93.75 105.46 C 94.86 104.30 95.95 103.13 97.03 101.94 Z" />
<path fill="#316369" opacity="1.00" d=" M 73.54 101.52 C 75.19 101.93 77.50 101.70 78.36 103.55 C 79.55 105.86 79.78 108.49 80.30 111.00 L 78.88 111.00 C 80.39 108.96 76.65 108.92 78.05 111.00 L 77.29 111.00 C 77.26 110.54 77.22 109.61 77.19 109.15 C 77.66 105.99 75.28 103.78 73.54 101.52 Z" />
<path fill="#7de0ff" opacity="1.00" d=" M 42.08 106.81 C 42.72 105.47 43.39 104.15 44.04 102.82 C 45.94 103.46 47.83 104.13 49.73 104.80 C 49.60 105.44 49.45 106.08 49.28 106.71 L 49.05 106.23 C 47.18 104.31 44.25 106.29 42.08 106.81 Z" />
<path fill="#1a1a1a" opacity="1.00" d=" M 61.51 111.00 C 65.93 109.49 69.83 106.82 73.19 103.61 C 74.72 105.31 76.18 107.09 77.19 109.15 C 77.22 109.61 77.26 110.54 77.29 111.00 L 61.51 111.00 Z" />
<path fill="#1b5489" opacity="1.00" d=" M 51.57 106.81 C 54.60 106.79 57.48 105.78 60.47 105.44 C 61.28 106.54 61.96 107.73 62.67 108.90 C 58.96 109.59 55.14 110.22 51.39 109.52 C 51.18 108.63 51.24 107.72 51.57 106.81 Z" />
<path fill="#194f80" opacity="1.00" d=" M 42.08 106.81 C 44.25 106.29 47.18 104.31 49.05 106.23 L 49.28 106.71 C 48.77 108.22 47.97 109.62 47.18 111.00 L 40.07 111.00 C 40.78 109.62 41.42 108.21 42.08 106.81 Z" />
<path fill="#77dfe7" opacity="1.00" d=" M 88.59 111.00 C 90.33 109.17 91.98 107.27 93.75 105.46 C 94.49 105.86 95.98 106.65 96.72 107.05 C 95.15 108.43 93.51 109.73 91.85 111.00 L 88.59 111.00 Z" />
<path fill="#3c424a" opacity="1.00" d=" M 36.84 111.00 C 35.91 108.28 40.46 108.45 38.73 111.00 L 36.84 111.00 Z" />
<path fill="#70c2c7" opacity="1.00" d=" M 78.05 111.00 C 76.65 108.92 80.39 108.96 78.88 111.00 L 78.05 111.00 Z" />
<path fill="#3a4249" opacity="1.00" d=" M 32.31 111.00 C 31.97 109.12 35.23 109.08 34.80 111.00 L 32.31 111.00 Z" />
</svg>
