<?xml version="1.0" encoding="UTF-8" ?>
<!DOCTYPE svg PUBLIC "-//W3C//DTD SVG 1.1//EN" "http://www.w3.org/Graphics/SVG/1.1/DTD/svg11.dtd">
<svg width="111pt" height="111pt" viewBox="0 0 111 111" version="1.1" xmlns="http://www.w3.org/2000/svg">
<path fill="#97ca9c" opacity="1.00" d=" M 0.00 0.00 L 7.25 0.00 C 7.70 2.39 8.69 5.60 6.23 7.24 C 4.19 8.70 1.83 6.93 0.00 5.97 L 0.00 0.00 Z" />
<path fill="#8275a1" opacity="1.00" d=" M 7.25 0.00 L 12.67 0.00 C 17.40 8.63 21.88 17.43 24.98 26.80 C 25.10 26.54 25.34 26.02 25.46 25.75 C 26.50 29.91 27.66 34.05 29.58 37.89 C 29.21 38.45 28.45 39.56 28.08 40.12 C 29.47 41.61 30.87 43.10 32.26 44.59 C 31.89 51.96 36.70 58.35 43.29 61.19 C 42.33 62.72 41.37 64.24 40.41 65.76 C 39.46 65.32 38.51 64.88 37.56 64.44 C 34.42 61.30 31.11 58.31 28.25 54.90 C 28.65 54.16 29.04 53.41 29.44 52.66 C 26.21 45.46 24.08 37.79 20.18 30.89 C 17.02 25.40 14.49 19.37 10.00 14.79 C 10.27 18.27 12.29 21.17 13.42 24.37 C 14.00 28.91 13.58 33.58 14.90 38.03 C 14.42 38.34 13.46 38.97 12.98 39.29 C 12.86 38.64 12.62 37.33 12.50 36.67 L 12.47 36.49 L 12.38 36.36 C 11.23 34.72 10.03 33.11 8.82 31.51 C 8.97 31.19 9.26 30.55 9.40 30.23 C 9.60 28.35 10.61 25.66 8.35 24.61 C 6.92 23.67 5.57 25.07 4.31 25.65 C 3.30 23.08 1.56 20.91 0.00 18.66 L 0.00 5.97 C 1.83 6.93 4.19 8.70 6.23 7.24 C 8.69 5.60 7.70 2.39 7.25 0.00 Z" />
<path fill="#dbd1ff" opacity="1.00" d=" M 12.67 0.00 L 13.83 0.00 C 18.63 8.10 23.23 16.53 25.46 25.75 C 25.34 26.02 25.10 26.54 24.98 26.80 C 21.88 17.43 17.40 8.63 12.67 0.00 Z" />
<path fill="#000000" opacity="1.00" d=" M 13.83 0.00 L 16.10 0.00 C 19.77 6.21 23.07 12.68 25.58 19.45 C 27.70 25.08 27.81 31.71 32.10 36.31 C 31.00 30.59 29.46 24.82 30.50 18.95 C 31.37 14.31 32.16 9.24 35.34 5.54 C 35.97 8.75 36.47 11.99 37.08 15.20 C 38.46 10.13 39.52 4.97 41.24 0.00 L 43.26 0.00 C 42.94 1.44 42.66 2.88 42.40 4.33 C 40.36 9.30 39.40 14.60 38.57 19.88 C 38.31 21.61 38.09 23.35 37.92 25.10 C 37.66 27.34 37.41 29.59 37.22 31.85 C 37.08 33.50 36.96 35.16 36.86 36.82 C 40.09 34.48 41.50 30.70 43.58 27.48 C 45.14 24.98 48.12 23.28 48.48 20.15 C 49.55 13.45 50.53 6.74 51.31 0.00 L 53.30 0.00 C 53.11 2.17 52.93 4.35 52.76 6.53 C 52.65 7.92 52.52 9.31 52.39 10.71 C 51.68 13.83 51.14 16.99 50.58 20.14 C 50.31 23.35 47.52 25.35 45.65 27.69 C 48.19 26.23 50.87 25.03 53.76 24.45 C 54.55 26.03 55.32 27.62 56.05 29.23 C 57.27 25.69 58.66 22.05 61.43 19.41 C 65.29 15.72 68.49 11.41 71.46 6.99 C 71.97 6.10 72.45 5.19 72.90 4.27 C 73.59 2.85 74.24 1.41 74.97 0.00 L 76.69 0.00 C 75.58 1.99 74.66 4.08 73.63 6.11 C 73.17 7.01 72.69 7.90 72.19 8.78 C 71.08 9.66 70.18 10.87 70.04 12.32 C 71.48 12.10 72.69 11.16 73.51 9.99 C 75.09 9.51 76.68 9.03 78.25 8.52 C 80.50 7.71 81.96 5.80 83.39 4.01 C 84.12 3.13 84.87 2.27 85.66 1.45 C 85.90 1.09 86.37 0.36 86.60 0.00 L 89.49 0.00 L 89.34 0.48 C 87.27 2.70 85.27 4.98 83.11 7.12 C 80.60 9.69 76.99 10.56 74.01 12.42 C 69.19 15.27 64.20 18.29 60.96 22.98 C 58.43 26.97 57.06 31.74 53.36 34.91 C 52.21 36.01 51.18 37.23 50.18 38.47 C 54.30 37.57 58.35 36.38 62.41 35.26 C 62.90 35.12 63.88 34.83 64.37 34.68 C 68.81 37.96 73.88 41.13 75.55 46.76 C 76.95 46.27 78.35 45.77 79.72 45.21 C 80.29 44.95 81.42 44.44 81.99 44.18 C 79.17 41.49 76.22 38.92 72.93 36.82 C 76.34 35.33 77.92 31.80 79.88 28.88 C 85.76 19.82 90.62 10.12 94.40 0.00 L 96.50 0.00 C 95.78 1.86 94.57 3.72 94.70 5.78 C 96.86 18.39 91.05 33.28 78.88 38.67 C 80.89 40.61 82.77 42.67 84.48 44.88 C 81.61 46.86 78.28 47.83 74.99 48.82 C 72.63 50.56 70.94 53.21 70.23 56.06 C 71.91 56.52 73.58 57.00 75.25 57.51 C 79.88 55.12 82.41 50.35 85.07 46.11 C 89.01 39.63 89.93 31.74 94.39 25.53 C 99.51 18.45 105.28 11.88 111.00 5.29 L 111.00 8.03 C 106.05 14.10 100.80 19.93 96.21 26.28 C 93.02 30.57 91.71 35.84 89.82 40.76 C 86.88 48.19 82.15 54.92 75.71 59.71 C 76.09 60.45 76.85 61.91 77.24 62.64 C 77.35 62.90 77.57 63.42 77.68 63.68 C 78.35 65.28 79.03 66.88 79.75 68.46 C 79.96 68.87 80.36 69.69 80.57 70.10 L 80.99 70.85 C 81.57 71.86 82.16 72.87 82.75 73.88 C 83.18 73.80 84.03 73.64 84.46 73.56 C 88.48 73.01 92.53 72.56 96.59 72.40 C 96.63 71.77 96.71 70.52 96.75 69.89 C 96.96 67.00 97.47 64.00 99.30 61.66 C 100.43 60.53 101.61 59.45 102.78 58.36 C 103.23 58.30 104.13 58.16 104.58 58.09 C 104.61 58.67 104.68 59.82 104.71 60.40 C 105.04 62.31 105.68 64.15 106.28 65.99 C 106.48 67.44 105.64 68.63 105.04 69.84 C 104.88 68.55 104.56 65.96 104.40 64.67 C 104.34 66.37 104.29 68.08 104.23 69.79 C 104.81 69.83 105.98 69.91 106.56 69.96 C 106.05 70.80 105.05 72.50 104.55 73.35 C 103.58 74.97 102.82 76.98 100.90 77.69 C 95.85 80.00 90.39 81.22 85.09 82.80 C 82.94 83.38 80.79 83.95 78.64 84.52 C 74.84 80.03 72.09 74.80 69.46 69.58 L 68.48 69.97 C 66.96 71.58 65.45 73.25 64.38 75.20 C 66.45 83.53 70.47 91.41 75.79 98.16 C 76.95 99.75 78.52 100.99 80.37 101.70 C 80.22 97.57 79.26 93.53 78.29 89.53 C 79.54 90.27 80.85 90.92 82.18 91.52 C 85.17 92.75 88.24 93.81 91.28 94.92 C 97.59 97.22 104.40 97.15 111.00 97.82 L 111.00 99.59 C 105.34 99.70 99.78 98.42 94.16 98.15 C 93.59 98.39 92.45 98.86 91.88 99.09 C 98.24 101.96 104.98 104.03 111.00 107.64 L 111.00 110.17 C 109.18 109.03 107.29 108.01 105.38 107.05 C 100.51 104.58 95.37 102.70 90.16 101.10 C 88.00 100.56 85.48 99.90 83.51 101.35 C 81.51 102.03 82.37 104.43 82.28 106.00 C 83.60 107.70 84.96 109.37 86.37 111.00 L 83.80 111.00 C 83.48 110.01 83.00 109.13 82.34 108.35 C 80.73 107.28 80.43 110.19 81.30 111.00 L 77.93 111.00 C 73.69 108.04 68.20 105.74 67.08 100.09 C 65.88 103.60 64.24 107.79 67.03 111.00 L 63.75 111.00 C 63.60 109.06 63.45 107.11 63.30 105.17 C 58.75 105.83 54.59 107.93 51.20 111.00 L 49.86 111.00 C 49.80 108.42 49.80 105.85 49.87 103.27 C 51.09 101.94 52.20 100.51 53.25 99.04 C 49.20 97.74 46.54 101.60 43.85 103.89 C 44.25 107.07 42.44 109.54 39.75 111.00 L 36.64 111.00 C 38.09 110.11 39.50 109.17 40.89 108.19 C 41.69 107.33 42.64 106.25 42.03 104.98 C 41.05 101.50 39.41 98.26 38.36 94.81 C 35.35 97.78 32.03 101.09 31.69 105.56 C 31.67 107.37 31.73 109.18 31.77 111.00 L 28.38 111.00 C 29.60 107.27 30.90 103.49 30.90 99.51 C 27.63 101.65 26.86 105.79 25.31 109.12 C 26.31 109.75 27.31 110.38 28.32 111.00 L 20.22 111.00 C 21.87 109.39 23.55 107.79 24.95 105.95 C 24.31 103.64 22.06 102.38 20.40 100.86 C 17.49 104.05 14.20 107.18 9.76 107.92 C 6.72 102.98 9.00 97.14 10.46 92.08 C 8.88 91.29 7.30 90.48 5.70 89.72 C 3.75 89.06 1.81 89.96 0.00 90.63 L 0.00 88.48 C 2.61 87.63 5.13 86.43 6.65 84.02 C 4.39 81.59 2.07 79.21 0.00 76.63 L 0.00 73.47 C 3.07 77.11 6.33 80.60 9.04 84.53 C 8.23 85.75 5.76 86.55 6.50 88.32 C 8.36 89.40 10.42 90.07 12.42 90.86 C 12.13 92.07 11.84 93.28 11.55 94.49 C 10.69 98.10 9.72 101.85 10.52 105.57 C 15.03 104.84 17.89 100.42 21.01 97.40 C 21.36 97.00 22.05 96.20 22.40 95.81 C 22.91 95.23 23.42 94.65 23.93 94.07 C 24.74 96.41 25.69 98.70 26.76 100.94 C 27.62 99.76 28.45 98.56 29.36 97.43 C 29.79 97.39 30.67 97.31 31.10 97.28 L 32.11 97.18 C 35.00 95.54 37.92 93.83 40.42 91.62 C 42.13 87.62 43.73 83.34 43.57 78.92 C 39.56 81.66 35.40 84.71 30.36 84.99 C 28.40 83.65 26.39 82.39 24.34 81.19 C 19.35 76.84 13.63 73.32 9.39 68.15 C 9.89 66.91 10.38 65.67 10.86 64.43 C 11.40 68.64 14.93 71.40 18.00 73.90 C 22.64 76.97 27.01 80.44 31.26 84.03 C 35.08 82.35 38.73 80.32 42.19 77.99 C 41.53 76.25 40.93 74.48 40.37 72.70 C 37.93 75.20 35.05 77.24 31.81 78.56 C 32.13 77.91 32.79 76.59 33.11 75.94 C 27.75 73.67 22.24 71.72 16.58 70.35 C 17.42 65.58 13.40 61.99 10.12 59.20 C 9.89 59.27 9.43 59.43 9.20 59.50 L 7.87 59.98 C 8.01 59.35 8.27 58.08 8.40 57.44 C 10.87 58.22 12.94 59.78 14.74 61.59 C 15.91 62.71 17.15 63.73 18.40 64.75 C 18.42 66.22 18.44 67.70 18.47 69.17 C 24.20 70.53 29.67 72.74 34.92 75.39 C 35.66 74.80 36.40 74.20 37.14 73.60 C 37.93 72.93 38.70 72.23 39.45 71.51 C 41.78 67.80 45.77 65.63 48.06 61.91 C 46.94 60.90 45.82 59.90 44.70 58.89 C 44.35 59.47 43.64 60.62 43.29 61.19 C 36.70 58.35 31.89 51.96 32.26 44.59 C 30.87 43.10 29.47 41.61 28.08 40.12 C 28.45 39.56 29.21 38.45 29.58 37.89 C 27.66 34.05 26.50 29.91 25.46 25.75 C 23.23 16.53 18.63 8.10 13.83 0.00 M 89.44 16.65 C 88.68 17.82 87.93 19.01 87.20 20.21 C 87.70 20.89 88.20 21.56 88.70 22.24 C 88.05 22.25 86.75 22.27 86.10 22.28 C 85.70 23.00 84.90 24.43 84.50 25.15 C 83.41 26.99 82.28 28.82 81.16 30.64 C 79.61 33.20 77.65 35.45 76.01 37.94 C 78.38 37.28 79.93 35.25 81.89 33.90 C 83.27 33.34 84.45 32.44 85.54 31.44 L 85.64 31.46 C 86.62 30.08 87.62 28.72 88.66 27.39 C 89.22 26.31 89.71 25.20 90.14 24.07 C 91.35 19.10 94.06 14.41 93.15 9.11 C 90.92 11.06 90.83 14.19 89.44 16.65 M 33.65 12.44 C 32.08 17.72 30.96 23.35 32.22 28.83 L 31.96 29.77 C 32.30 30.12 32.99 30.82 33.34 31.17 C 33.34 32.57 34.03 33.82 34.53 35.09 C 34.56 32.72 34.38 30.32 34.79 27.97 C 35.96 22.45 35.38 16.76 35.04 11.18 C 34.69 11.50 34.00 12.13 33.65 12.44 M 49.14 27.07 L 49.46 27.56 C 45.03 29.14 42.44 33.27 39.94 36.97 C 42.49 36.83 44.97 36.24 47.36 35.37 C 49.52 34.76 51.96 34.30 53.34 32.33 C 55.11 30.80 53.56 28.54 53.17 26.74 C 51.83 26.85 50.48 26.96 49.14 27.07 M 30.71 39.24 L 29.62 39.02 C 30.34 40.51 31.57 41.57 33.01 42.34 C 33.29 40.67 35.06 38.23 33.23 36.94 C 31.77 36.95 30.93 37.72 30.71 39.24 M 42.98 38.99 C 43.25 40.42 44.30 41.51 45.05 42.71 C 47.25 44.70 49.51 46.62 51.72 48.59 C 52.31 48.20 53.50 47.43 54.09 47.04 C 54.22 47.35 54.48 47.96 54.61 48.27 C 53.50 51.05 58.62 49.81 57.90 47.46 C 58.55 47.42 59.84 47.33 60.49 47.29 C 60.78 47.74 61.36 48.64 61.66 49.09 C 61.60 46.01 61.25 42.90 59.95 40.07 C 60.07 39.51 60.31 38.38 60.44 37.82 C 56.50 38.39 52.70 39.62 48.80 40.37 C 48.80 39.57 48.79 37.98 48.79 37.19 C 46.85 37.75 44.87 38.23 42.98 38.99 M 61.23 37.72 C 64.28 40.82 63.02 45.11 63.27 48.98 C 63.43 52.56 62.56 56.08 62.13 59.62 C 65.11 56.35 67.63 51.96 66.38 47.39 C 65.43 43.91 64.61 39.68 61.23 37.72 M 65.31 38.14 C 64.44 39.93 67.78 42.33 68.74 40.29 C 68.29 39.06 66.66 37.71 65.31 38.14 M 39.17 39.05 C 39.80 42.28 40.74 45.44 42.03 48.47 C 44.93 48.35 48.25 48.95 48.39 52.53 C 46.83 51.60 45.27 50.66 43.71 49.73 C 45.47 55.15 51.31 55.59 55.95 56.70 C 57.21 56.15 57.86 55.29 57.90 54.11 C 56.52 53.57 55.28 54.47 54.02 54.91 C 55.27 53.74 56.81 52.26 58.64 52.45 C 58.94 52.77 59.53 53.41 59.82 53.73 C 61.59 52.35 59.92 50.01 59.98 48.24 C 58.13 50.32 54.96 52.00 52.65 49.54 C 52.21 49.99 51.33 50.88 50.89 51.33 C 50.61 50.97 50.05 50.26 49.76 49.90 L 50.15 49.18 C 47.68 47.35 44.92 46.01 42.04 44.96 C 42.44 44.59 43.22 43.87 43.62 43.50 C 42.21 41.99 41.72 38.88 39.17 39.05 M 35.86 40.63 C 35.04 43.05 33.82 45.51 34.44 48.13 C 35.00 52.97 38.88 56.43 42.67 59.03 C 42.62 56.73 42.69 54.42 42.47 52.13 C 41.15 50.18 39.62 48.35 38.71 46.15 C 38.61 45.01 38.24 43.99 37.58 43.08 C 37.59 42.32 37.62 40.80 37.64 40.04 C 37.19 40.19 36.30 40.49 35.86 40.63 M 67.27 42.56 C 67.49 43.73 67.73 44.89 67.99 46.05 C 68.92 45.17 69.55 44.09 69.59 42.79 C 69.01 42.73 67.85 42.61 67.27 42.56 M 71.65 42.83 C 71.01 44.99 69.73 46.82 68.06 48.31 C 68.93 49.51 69.91 50.65 70.94 51.73 C 71.88 50.42 72.95 49.17 73.62 47.69 C 74.04 45.83 72.97 44.04 71.65 42.83 M 68.00 51.36 C 68.01 52.27 68.03 54.10 68.04 55.02 C 66.91 56.19 64.64 57.61 65.72 59.50 L 66.22 59.77 C 63.09 61.16 59.58 62.50 57.17 64.93 C 58.95 66.29 60.25 68.11 61.48 69.96 C 61.49 70.72 61.51 72.24 61.51 73.01 C 63.70 71.75 66.13 70.52 67.11 68.02 C 64.74 68.03 64.55 71.37 61.94 70.68 C 62.71 69.16 63.82 67.86 64.93 66.59 C 66.62 66.96 69.34 65.63 70.19 67.77 C 73.02 72.82 75.65 78.00 79.11 82.66 C 86.16 80.77 93.14 78.66 100.09 76.44 C 102.04 76.09 103.60 74.06 103.00 72.07 C 102.37 67.67 103.19 63.27 103.79 58.92 C 101.72 60.90 99.34 62.99 98.88 65.99 C 98.15 68.45 98.98 71.33 97.34 73.47 C 93.38 74.76 89.11 74.54 85.01 75.06 C 83.66 75.01 81.65 75.67 80.91 74.11 C 78.53 69.52 76.28 64.86 74.26 60.10 C 73.47 58.35 71.61 58.40 69.98 58.26 C 69.40 58.53 68.22 59.07 67.64 59.34 C 67.51 59.17 67.25 58.81 67.12 58.64 C 67.35 57.97 67.81 56.64 68.04 55.97 C 68.57 56.08 69.61 56.31 70.14 56.42 C 69.78 54.56 70.79 51.49 68.00 51.36 M 44.10 53.77 C 44.09 56.92 47.23 58.29 49.21 60.13 C 51.36 60.14 53.49 60.44 55.63 60.58 C 55.81 59.84 56.16 58.36 56.34 57.63 C 51.99 57.52 47.46 56.79 44.10 53.77 M 57.90 57.01 C 57.52 58.63 57.54 60.31 57.43 61.96 C 60.59 60.99 60.54 57.26 61.05 54.57 C 59.98 55.35 58.87 56.09 57.90 57.01 M 47.28 65.31 C 49.69 65.67 52.78 64.16 52.70 61.44 C 50.06 61.15 48.41 63.23 47.28 65.31 M 52.20 65.72 C 54.28 65.96 55.52 64.37 56.71 62.97 C 56.32 62.60 55.55 61.87 55.16 61.50 C 53.73 62.58 52.58 63.91 52.20 65.72 M 49.48 70.75 C 50.55 69.80 51.62 68.85 52.69 67.91 C 52.06 66.99 51.44 66.08 50.82 65.16 C 48.56 66.04 49.85 68.96 49.48 70.75 M 42.06 71.20 C 42.25 73.86 43.05 76.43 44.49 78.68 C 44.77 80.19 45.02 81.70 45.24 83.22 C 43.63 87.41 43.12 92.05 40.58 95.87 C 41.26 97.97 41.69 100.20 42.84 102.12 C 46.31 100.98 48.83 94.72 53.18 97.59 C 53.74 95.84 54.38 94.12 54.81 92.34 C 56.94 89.94 57.28 85.88 60.73 84.87 C 60.66 81.74 60.64 78.56 61.61 75.54 C 60.13 74.57 59.93 72.76 59.47 71.20 L 59.09 71.27 C 58.81 69.54 58.25 67.88 57.19 66.47 C 55.03 67.93 52.96 69.53 51.14 71.41 L 50.96 71.39 C 50.18 72.90 48.22 73.72 48.05 71.37 C 48.10 69.74 48.12 68.11 48.10 66.48 C 45.33 66.83 42.98 68.51 42.06 71.20 M 68.22 93.31 C 68.67 88.39 64.80 84.37 63.55 79.75 C 60.94 84.81 63.63 90.55 68.22 93.31 M 59.62 87.47 C 57.50 90.69 56.09 94.40 54.74 98.01 C 54.88 98.54 55.14 99.60 55.28 100.13 C 53.94 102.36 50.65 104.74 52.09 107.57 C 52.27 107.46 52.64 107.25 52.83 107.14 C 56.76 105.71 60.52 103.83 64.41 102.29 C 64.55 101.97 64.84 101.33 64.99 101.01 C 63.59 98.27 61.82 95.73 60.76 92.83 C 61.64 91.44 62.22 86.56 59.62 87.47 M 65.23 98.08 C 65.95 97.44 66.62 96.75 67.23 96.01 C 67.19 93.80 64.88 92.60 63.54 91.16 C 62.80 93.64 64.29 95.90 65.23 98.08 M 81.33 93.36 C 81.62 95.55 81.94 97.74 82.27 99.92 C 83.19 99.37 84.11 98.79 85.08 98.33 C 87.24 97.93 89.83 99.84 91.56 97.82 C 88.90 95.22 84.62 95.00 81.33 93.36 M 69.31 96.09 C 69.25 98.40 68.97 100.86 69.91 103.04 C 71.11 105.03 73.41 105.90 75.28 107.09 L 75.48 107.66 C 76.94 108.46 78.39 109.27 79.86 110.04 C 79.58 107.96 79.17 105.89 78.61 103.87 C 76.29 100.49 72.80 98.14 69.31 96.09 M 21.91 97.92 C 21.77 100.45 24.38 101.66 26.04 103.03 C 25.03 101.31 24.57 96.67 21.91 97.92 Z" />
<path fill="#483a4f" opacity="1.00" d=" M 43.26 0.00 L 47.36 0.00 C 45.60 5.58 44.05 11.23 43.06 17.00 C 42.35 21.09 41.74 25.25 40.03 29.07 C 40.05 27.40 39.25 26.05 37.92 25.10 C 38.09 23.35 38.31 21.61 38.57 19.88 C 38.56 21.54 38.78 23.22 39.50 24.73 C 40.73 19.92 40.90 14.92 42.16 10.12 C 42.71 8.23 42.70 6.26 42.40 4.33 C 42.66 2.88 42.94 1.44 43.26 0.00 Z" />
<path fill="#27202f" opacity="1.00" d=" M 47.36 0.00 L 51.31 0.00 C 50.53 6.74 49.55 13.45 48.48 20.15 C 48.12 23.28 45.14 24.98 43.58 27.48 C 41.50 30.70 40.09 34.48 36.86 36.82 C 36.96 35.16 37.08 33.50 37.22 31.85 C 37.70 31.69 38.65 31.37 39.12 31.21 C 39.35 30.67 39.80 29.60 40.03 29.07 C 41.74 25.25 42.35 21.09 43.06 17.00 C 44.05 11.23 45.60 5.58 47.36 0.00 Z" />
<path fill="#5a8862" opacity="1.00" d=" M 53.30 0.00 L 53.69 0.00 C 53.70 1.49 53.72 2.98 53.74 4.47 C 55.84 3.19 57.75 1.64 59.58 0.00 L 67.52 0.00 C 69.37 1.35 71.13 2.82 72.90 4.27 C 72.45 5.19 71.97 6.10 71.46 6.99 C 68.61 4.49 65.54 2.28 62.30 0.34 C 59.99 3.46 57.17 7.11 52.76 6.53 C 52.93 4.35 53.11 2.17 53.30 0.00 Z" />
<path fill="#93ff9e" opacity="1.00" d=" M 53.69 0.00 L 59.58 0.00 C 57.75 1.64 55.84 3.19 53.74 4.47 C 53.72 2.98 53.70 1.49 53.69 0.00 Z" />
<path fill="#fea3ba" opacity="1.00" d=" M 67.52 0.00 L 74.97 0.00 C 74.24 1.41 73.59 2.85 72.90 4.27 C 71.13 2.82 69.37 1.35 67.52 0.00 Z" />
<path fill="#ffa7bc" opacity="1.00" d=" M 76.69 0.00 L 81.40 0.00 C 81.58 0.34 81.94 1.01 82.12 1.35 C 80.37 1.73 77.87 1.03 77.00 3.10 C 75.93 4.93 77.77 6.79 78.25 8.52 C 76.20 8.90 74.87 7.51 73.63 6.11 C 74.66 4.08 75.58 1.99 76.69 0.00 Z" />
<path fill="#4e5b50" opacity="1.00" d=" M 81.40 0.00 L 84.94 0.00 C 85.12 0.36 85.48 1.09 85.66 1.45 C 84.87 2.27 84.12 3.13 83.39 4.01 C 83.08 3.34 82.44 2.01 82.12 1.35 C 81.94 1.01 81.58 0.34 81.40 0.00 Z" />
<path fill="#bd749d" opacity="1.00" d=" M 84.94 0.00 L 86.60 0.00 C 86.37 0.36 85.90 1.09 85.66 1.45 C 85.48 1.09 85.12 0.36 84.94 0.00 Z" />
<path fill="#292131" opacity="1.00" d=" M 89.49 0.00 L 94.40 0.00 C 90.62 10.12 85.76 19.82 79.88 28.88 C 77.92 31.80 76.34 35.33 72.93 36.82 L 71.73 37.46 C 74.39 40.06 77.81 41.89 79.72 45.21 C 78.35 45.77 76.95 46.27 75.55 46.76 C 73.88 41.13 68.81 37.96 64.37 34.68 C 68.53 31.84 71.93 28.05 75.95 25.02 C 74.30 26.03 72.66 27.07 71.01 28.09 C 71.70 24.36 74.60 21.73 76.39 18.53 C 78.99 13.56 84.47 11.09 87.16 6.21 C 88.30 4.47 88.84 2.46 89.34 0.48 L 89.49 0.00 M 77.23 26.31 C 75.99 26.31 75.16 28.75 76.77 28.81 C 77.99 28.79 78.79 26.39 77.23 26.31 Z" />
<path fill="#fca1ba" opacity="1.00" d=" M 52.76 6.53 C 57.17 7.11 59.99 3.46 62.30 0.34 C 65.54 2.28 68.61 4.49 71.46 6.99 C 68.49 11.41 65.29 15.72 61.43 19.41 C 58.66 22.05 57.27 25.69 56.05 29.23 C 55.32 27.62 54.55 26.03 53.76 24.45 C 53.22 19.88 52.45 15.32 52.39 10.71 C 52.52 9.31 52.65 7.92 52.76 6.53 Z" />
<path fill="#58475f" opacity="1.00" d=" M 83.11 7.12 C 85.27 4.98 87.27 2.70 89.34 0.48 C 88.84 2.46 88.30 4.47 87.16 6.21 C 84.47 11.09 78.99 13.56 76.39 18.53 C 72.03 18.70 69.46 22.99 65.67 24.67 C 60.64 27.03 59.16 33.85 53.36 34.91 C 57.06 31.74 58.43 26.97 60.96 22.98 L 60.81 24.21 C 64.84 19.84 70.39 17.19 74.01 12.42 C 76.99 10.56 80.60 9.69 83.11 7.12 Z" />
<path fill="#aa6db0" opacity="1.00" d=" M 77.00 3.10 C 77.87 1.03 80.37 1.73 82.12 1.35 C 82.44 2.01 83.08 3.34 83.39 4.01 C 81.96 5.80 80.50 7.71 78.25 8.52 C 77.77 6.79 75.93 4.93 77.00 3.10 Z" />
<path fill="#68567f" opacity="1.00" d=" M 42.40 4.33 C 42.70 6.26 42.71 8.23 42.16 10.12 C 40.90 14.92 40.73 19.92 39.50 24.73 C 38.78 23.22 38.56 21.54 38.57 19.88 C 39.40 14.60 40.36 9.30 42.40 4.33 Z" />
<path fill="#76836f" opacity="1.00" d=" M 72.19 8.78 C 72.69 7.90 73.17 7.01 73.63 6.11 C 74.87 7.51 76.20 8.90 78.25 8.52 C 76.68 9.03 75.09 9.51 73.51 9.99 C 73.18 9.69 72.52 9.08 72.19 8.78 Z" />
<path fill="#dbd1ff" opacity="1.00" d=" M 96.21 26.28 C 100.80 19.93 106.05 14.10 111.00 8.03 L 111.00 10.14 C 105.88 16.05 100.91 22.39 98.69 30.03 C 95.83 34.35 93.06 38.73 90.19 43.05 C 90.10 42.48 89.91 41.33 89.82 40.76 C 91.71 35.84 93.02 30.57 96.21 26.28 Z" />
<path fill="#ffa7bc" opacity="1.00" d=" M 70.04 12.32 C 70.18 10.87 71.08 9.66 72.19 8.78 C 72.52 9.08 73.18 9.69 73.51 9.99 C 72.69 11.16 71.48 12.10 70.04 12.32 Z" />
<path fill="#58475f" opacity="1.00" d=" M 89.44 16.65 C 90.83 14.19 90.92 11.06 93.15 9.11 C 94.06 14.41 91.35 19.10 90.14 24.07 C 90.05 21.58 89.74 19.11 89.44 16.65 Z" />
<path fill="#a85e82" opacity="1.00" d=" M 52.39 10.71 C 52.45 15.32 53.22 19.88 53.76 24.45 C 50.87 25.03 48.19 26.23 45.65 27.69 C 47.52 25.35 50.31 23.35 50.58 20.14 C 51.14 16.99 51.68 13.83 52.39 10.71 Z" />
<path fill="#97ca9c" opacity="1.00" d=" M 98.69 30.03 C 100.91 22.39 105.88 16.05 111.00 10.14 L 111.00 18.33 C 108.20 22.27 105.21 26.08 102.85 30.31 C 101.46 30.22 100.08 30.12 98.69 30.03 Z" />
<path fill="#45384d" opacity="1.00" d=" M 33.65 12.44 C 34.00 12.13 34.69 11.50 35.04 11.18 C 35.38 16.76 35.96 22.45 34.79 27.97 C 34.38 30.32 34.56 32.72 34.53 35.09 C 34.03 33.82 33.34 32.57 33.34 31.17 C 34.85 30.35 33.92 27.81 32.22 28.83 C 30.96 23.35 32.08 17.72 33.65 12.44 Z" />
<path fill="#8275a1" opacity="1.00" d=" M 60.96 22.98 C 64.20 18.29 69.19 15.27 74.01 12.42 C 70.39 17.19 64.84 19.84 60.81 24.21 L 60.96 22.98 Z" />
<path fill="#97ca9c" opacity="1.00" d=" M 10.00 14.79 C 14.49 19.37 17.02 25.40 20.18 30.89 C 24.08 37.79 26.21 45.46 29.44 52.66 C 29.04 53.41 28.65 54.16 28.25 54.90 C 31.11 58.31 34.42 61.30 37.56 64.44 C 36.09 63.94 34.61 63.49 33.13 63.04 C 33.82 64.08 34.51 65.12 35.23 66.13 C 33.83 65.68 32.40 65.28 30.98 64.90 C 29.80 64.15 28.65 63.35 27.51 62.54 C 25.44 58.99 22.58 55.97 20.60 52.36 C 18.09 47.86 16.20 43.01 14.90 38.03 C 13.58 33.58 14.00 28.91 13.42 24.37 C 12.29 21.17 10.27 18.27 10.00 14.79 Z" />
<path fill="#915073" opacity="1.00" d=" M 89.44 16.65 C 89.74 19.11 90.05 21.58 90.14 24.07 C 89.71 25.20 89.22 26.31 88.66 27.39 C 87.27 26.64 85.89 25.90 84.50 25.15 C 84.90 24.43 85.70 23.00 86.10 22.28 C 86.75 22.27 88.05 22.25 88.70 22.24 C 88.20 21.56 87.70 20.89 87.20 20.21 C 87.93 19.01 88.68 17.82 89.44 16.65 Z" />
<path fill="#48394f" opacity="1.00" d=" M 65.67 24.67 C 69.46 22.99 72.03 18.70 76.39 18.53 C 74.60 21.73 71.70 24.36 71.01 28.09 C 67.84 30.07 64.55 32.09 62.41 35.26 C 58.35 36.38 54.30 37.57 50.18 38.47 C 51.18 37.23 52.21 36.01 53.36 34.91 C 59.16 33.85 60.64 27.03 65.67 24.67 Z" />
<path fill="#585176" opacity="1.00" d=" M 0.00 18.66 C 1.56 20.91 3.30 23.08 4.31 25.65 C 3.88 27.24 2.83 29.24 4.59 30.42 C 6.14 31.01 7.82 30.32 9.40 30.23 C 9.26 30.55 8.97 31.19 8.82 31.51 C 8.45 31.94 7.71 32.80 7.35 33.24 C 8.43 34.32 9.51 35.40 10.58 36.50 L 10.05 37.28 C 10.36 37.63 10.98 38.31 11.29 38.66 C 11.71 38.82 12.56 39.13 12.98 39.29 C 12.59 39.54 11.80 40.05 11.41 40.30 C 12.06 41.31 12.72 42.33 13.37 43.35 C 13.21 44.73 13.06 46.11 12.96 47.50 C 12.43 48.74 11.80 49.96 11.48 51.29 C 12.79 54.09 15.99 56.41 15.30 59.83 L 14.74 61.59 C 12.94 59.78 10.87 58.22 8.40 57.44 C 8.27 58.08 8.01 59.35 7.87 59.98 C 7.76 60.03 7.53 60.11 7.41 60.15 C 7.21 59.94 6.82 59.53 6.63 59.32 C 5.03 57.43 3.39 55.57 1.83 53.66 C 3.06 50.73 7.00 49.59 7.46 46.39 C 7.51 46.15 7.60 45.65 7.65 45.41 C 5.54 45.08 3.45 44.73 1.36 44.31 C 2.58 41.79 3.76 39.25 4.83 36.67 C 3.22 36.83 1.61 37.03 -0.00 37.24 L 0.00 28.78 C 0.80 27.79 1.56 26.78 2.30 25.75 C 2.26 24.07 0.70 22.87 0.00 21.42 L 0.00 18.66 Z" />
<path fill="#20203f" opacity="1.00" d=" M 102.85 30.31 C 105.21 26.08 108.20 22.27 111.00 18.33 L 111.00 23.63 C 107.30 28.62 103.95 33.83 100.94 39.26 C 100.26 38.13 99.59 37.01 98.91 35.89 C 100.44 34.19 101.68 32.26 102.85 30.31 Z" />
<path fill="#0e0d13" opacity="1.00" d=" M 0.00 21.42 C 0.70 22.87 2.26 24.07 2.30 25.75 C 1.56 26.78 0.80 27.79 0.00 28.78 L 0.00 21.42 Z" />
<path fill="#97ca9c" opacity="1.00" d=" M 4.31 25.65 C 5.57 25.07 6.92 23.67 8.35 24.61 C 10.61 25.66 9.60 28.35 9.40 30.23 C 7.82 30.32 6.14 31.01 4.59 30.42 C 2.83 29.24 3.88 27.24 4.31 25.65 Z" />
<path fill="#96c99c" opacity="1.00" d=" M 100.94 39.26 C 103.95 33.83 107.30 28.62 111.00 23.63 L 111.00 33.77 C 107.58 36.18 104.18 38.71 100.32 40.38 L 100.94 39.26 Z" />
<path fill="#ff6ae1" opacity="1.00" d=" M 71.01 28.09 C 72.66 27.07 74.30 26.03 75.95 25.02 C 71.93 28.05 68.53 31.84 64.37 34.68 C 63.88 34.83 62.90 35.12 62.41 35.26 C 64.55 32.09 67.84 30.07 71.01 28.09 Z" />
<path fill="#3c1d53" opacity="1.00" d=" M 81.16 30.64 C 82.28 28.82 83.41 26.99 84.50 25.15 C 85.89 25.90 87.27 26.64 88.66 27.39 C 87.62 28.72 86.62 30.08 85.64 31.46 L 85.54 31.44 C 84.08 31.17 82.62 30.90 81.16 30.64 Z" />
<path fill="#ff6ae1" opacity="1.00" d=" M 37.22 31.85 C 37.41 29.59 37.66 27.34 37.92 25.10 C 39.25 26.05 40.05 27.40 40.03 29.07 C 39.80 29.60 39.35 30.67 39.12 31.21 C 38.65 31.37 37.70 31.69 37.22 31.85 Z" />
<path fill="#66306c" opacity="1.00" d=" M 77.23 26.31 C 78.79 26.39 77.99 28.79 76.77 28.81 C 75.16 28.75 75.99 26.31 77.23 26.31 Z" />
<path fill="#27202f" opacity="1.00" d=" M 49.14 27.07 C 50.48 26.96 51.83 26.85 53.17 26.74 C 53.56 28.54 55.11 30.80 53.34 32.33 C 51.96 34.30 49.52 34.76 47.36 35.37 C 47.39 33.83 47.42 32.29 47.45 30.76 C 48.39 30.10 49.31 29.43 50.23 28.75 C 50.04 28.45 49.65 27.85 49.46 27.56 L 49.14 27.07 Z" />
<path fill="#43364b" opacity="1.00" d=" M 39.94 36.97 C 42.44 33.27 45.03 29.14 49.46 27.56 C 49.65 27.85 50.04 28.45 50.23 28.75 C 49.31 29.43 48.39 30.10 47.45 30.76 C 47.42 32.29 47.39 33.83 47.36 35.37 C 44.97 36.24 42.49 36.83 39.94 36.97 Z" />
<path fill="#81376b" opacity="1.00" d=" M 32.22 28.83 C 33.92 27.81 34.85 30.35 33.34 31.17 C 32.99 30.82 32.30 30.12 31.96 29.77 L 32.22 28.83 Z" />
<path fill="#80739e" opacity="1.00" d=" M 90.19 43.05 C 93.06 38.73 95.83 34.35 98.69 30.03 C 100.08 30.12 101.46 30.22 102.85 30.31 C 101.68 32.26 100.44 34.19 98.91 35.89 C 97.12 37.49 95.22 39.01 93.76 40.94 C 91.07 44.16 90.45 48.56 87.73 51.77 C 85.19 54.89 82.62 58.48 78.44 59.41 C 78.02 60.48 77.62 61.56 77.24 62.64 C 76.85 61.91 76.09 60.45 75.71 59.71 C 82.15 54.92 86.88 48.19 89.82 40.76 C 89.91 41.33 90.10 42.48 90.19 43.05 Z" />
<path fill="#985985" opacity="1.00" d=" M 76.01 37.94 C 77.65 35.45 79.61 33.20 81.16 30.64 C 82.62 30.90 84.08 31.17 85.54 31.44 C 84.45 32.44 83.27 33.34 81.89 33.90 C 79.93 35.25 78.38 37.28 76.01 37.94 Z" />
<path fill="#93ff9e" opacity="1.00" d=" M 7.35 33.24 C 7.71 32.80 8.45 31.94 8.82 31.51 C 10.03 33.11 11.23 34.72 12.38 36.36 C 12.41 36.44 12.47 36.60 12.50 36.67 C 12.62 37.33 12.86 38.64 12.98 39.29 C 12.56 39.13 11.71 38.82 11.29 38.66 C 11.11 38.12 10.76 37.04 10.58 36.50 C 9.51 35.40 8.43 34.32 7.35 33.24 Z" />
<path fill="#616e76" opacity="1.00" d=" M 100.32 40.38 C 104.18 38.71 107.58 36.18 111.00 33.77 L 111.00 37.49 C 106.52 39.94 102.32 42.86 97.76 45.17 C 98.64 43.58 99.45 41.97 100.32 40.38 Z" />
<path fill="#343550" opacity="1.00" d=" M 12.38 36.36 L 12.47 36.49 L 12.50 36.67 C 12.47 36.60 12.41 36.44 12.38 36.36 Z" />
<path fill="#333150" opacity="1.00" d=" M 93.76 40.94 C 95.22 39.01 97.12 37.49 98.91 35.89 C 99.59 37.01 100.26 38.13 100.94 39.26 L 100.32 40.38 C 99.45 41.97 98.64 43.58 97.76 45.17 C 94.21 48.90 91.13 53.06 87.46 56.68 C 84.62 59.55 81.59 62.37 77.68 63.68 C 77.57 63.42 77.35 62.90 77.24 62.64 C 77.62 61.56 78.02 60.48 78.44 59.41 C 82.62 58.48 85.19 54.89 87.73 51.77 C 90.45 48.56 91.07 44.16 93.76 40.94 Z" />
<path fill="#000000" opacity="1.00" d=" M -0.00 37.24 C 1.61 37.03 3.22 36.83 4.83 36.67 C 3.76 39.25 2.58 41.79 1.36 44.31 C 3.45 44.73 5.54 45.08 7.65 45.41 C 7.60 45.65 7.51 46.15 7.46 46.39 C 5.49 47.45 3.36 48.25 1.58 49.63 C 0.57 50.87 1.48 52.36 1.83 53.66 C 3.39 55.57 5.03 57.43 6.63 59.32 C 5.31 60.24 3.98 61.16 2.58 61.97 C 1.72 62.34 0.86 62.71 0.00 63.08 L 0.00 61.02 C 1.35 60.32 2.73 59.69 4.10 59.06 C 2.64 57.33 1.21 55.57 0.00 53.65 L 0.00 48.81 C 1.00 48.10 2.00 47.39 3.00 46.68 C 2.27 46.30 0.80 45.53 0.06 45.14 C 0.40 43.06 1.05 41.06 2.01 39.18 C 1.51 39.16 0.50 39.11 0.00 39.09 L 0.00 37.24 Z" />
<path fill="#2f294d" opacity="1.00" d=" M 10.58 36.50 C 10.76 37.04 11.11 38.12 11.29 38.66 C 10.98 38.31 10.36 37.63 10.05 37.28 L 10.58 36.50 Z" />
<path fill="#66547b" opacity="1.00" d=" M 30.71 39.24 C 30.93 37.72 31.77 36.95 33.23 36.94 C 33.38 38.31 32.19 39.96 30.71 39.24 Z" />
<path fill="#2d2535" opacity="1.00" d=" M 33.23 36.94 C 35.06 38.23 33.29 40.67 33.01 42.34 C 31.57 41.57 30.34 40.51 29.62 39.02 L 30.71 39.24 C 32.19 39.96 33.38 38.31 33.23 36.94 Z" />
<path fill="#565991" opacity="1.00" d=" M 42.98 38.99 C 44.87 38.23 46.85 37.75 48.79 37.19 C 48.79 37.98 48.80 39.57 48.80 40.37 C 49.10 40.57 49.71 40.98 50.01 41.18 C 48.34 41.61 46.69 42.15 45.05 42.71 C 44.30 41.51 43.25 40.42 42.98 38.99 Z" />
<path fill="#473a53" opacity="1.00" d=" M 71.73 37.46 L 72.93 36.82 C 76.22 38.92 79.17 41.49 81.99 44.18 C 81.42 44.44 80.29 44.95 79.72 45.21 C 77.81 41.89 74.39 40.06 71.73 37.46 Z" />
<path fill="#20203f" opacity="1.00" d=" M 12.98 39.29 C 13.46 38.97 14.42 38.34 14.90 38.03 C 16.20 43.01 18.09 47.86 20.60 52.36 C 22.58 55.97 25.44 58.99 27.51 62.54 C 26.87 62.15 25.59 61.38 24.95 60.99 C 20.03 55.85 17.34 49.16 13.37 43.35 C 12.72 42.33 12.06 41.31 11.41 40.30 C 11.80 40.05 12.59 39.54 12.98 39.29 Z" />
<path fill="#1e213c" opacity="1.00" d=" M 48.80 40.37 C 52.70 39.62 56.50 38.39 60.44 37.82 C 60.31 38.38 60.07 39.51 59.95 40.07 C 58.98 42.45 59.57 45.01 60.49 47.29 C 59.84 47.33 58.55 47.42 57.90 47.46 C 56.76 47.48 55.61 47.71 54.61 48.27 C 54.48 47.96 54.22 47.35 54.09 47.04 C 55.00 46.44 55.91 45.83 56.82 45.23 C 56.72 44.14 56.51 41.95 56.41 40.86 C 53.80 42.33 51.24 43.88 48.59 45.26 C 49.83 43.63 51.19 42.08 52.58 40.57 C 51.94 40.72 50.66 41.03 50.01 41.18 C 49.71 40.98 49.10 40.57 48.80 40.37 Z" />
<path fill="#9a90db" opacity="1.00" d=" M 61.23 37.72 C 64.61 39.68 65.43 43.91 66.38 47.39 C 67.63 51.96 65.11 56.35 62.13 59.62 C 62.56 56.08 63.43 52.56 63.27 48.98 C 63.02 45.11 64.28 40.82 61.23 37.72 Z" />
<path fill="#272f59" opacity="1.00" d=" M 65.31 38.14 C 66.66 37.71 68.29 39.06 68.74 40.29 C 67.78 42.33 64.44 39.93 65.31 38.14 Z" />
<path fill="#96c99c" opacity="1.00" d=" M 97.76 45.17 C 102.32 42.86 106.52 39.94 111.00 37.49 L 111.00 43.44 C 107.05 46.23 103.70 49.71 100.55 53.35 C 96.00 53.77 92.06 56.63 87.46 56.68 C 91.13 53.06 94.21 48.90 97.76 45.17 Z" />
<path fill="#657679" opacity="1.00" d=" M 39.17 39.05 C 41.72 38.88 42.21 41.99 43.62 43.50 C 43.22 43.87 42.44 44.59 42.04 44.96 C 44.92 46.01 47.68 47.35 50.15 49.18 L 49.76 49.90 C 49.30 50.77 48.84 51.65 48.39 52.53 C 48.25 48.95 44.93 48.35 42.03 48.47 C 40.74 45.44 39.80 42.28 39.17 39.05 Z" />
<path fill="#9e93dc" opacity="1.00" d=" M 35.86 40.63 C 36.30 40.49 37.19 40.19 37.64 40.04 C 37.62 40.80 37.59 42.32 37.58 43.08 C 38.24 43.99 38.61 45.01 38.71 46.15 C 39.62 48.35 41.15 50.18 42.47 52.13 C 42.69 54.42 42.62 56.73 42.67 59.03 C 38.88 56.43 35.00 52.97 34.44 48.13 C 33.82 45.51 35.04 43.05 35.86 40.63 Z" />
<path fill="#9e93dc" opacity="1.00" d=" M 45.05 42.71 C 46.69 42.15 48.34 41.61 50.01 41.18 C 50.66 41.03 51.94 40.72 52.58 40.57 C 51.19 42.08 49.83 43.63 48.59 45.26 C 51.24 43.88 53.80 42.33 56.41 40.86 C 56.51 41.95 56.72 44.14 56.82 45.23 C 55.91 45.83 55.00 46.44 54.09 47.04 C 53.50 47.43 52.31 48.20 51.72 48.59 C 49.51 46.62 47.25 44.70 45.05 42.71 M 52.24 46.29 C 53.35 47.01 55.03 45.33 54.64 44.17 C 53.50 43.57 51.94 45.11 52.24 46.29 Z" />
<path fill="#565991" opacity="1.00" d=" M 60.49 47.29 C 59.57 45.01 58.98 42.45 59.95 40.07 C 61.25 42.90 61.60 46.01 61.66 49.09 C 61.36 48.64 60.78 47.74 60.49 47.29 Z" />
<path fill="#dedfc2" opacity="1.00" d=" M 67.27 42.56 C 67.85 42.61 69.01 42.73 69.59 42.79 C 69.55 44.09 68.92 45.17 67.99 46.05 C 67.73 44.89 67.49 43.73 67.27 42.56 Z" />
<path fill="#2d345e" opacity="1.00" d=" M 71.65 42.83 C 72.97 44.04 74.04 45.83 73.62 47.69 C 72.95 49.17 71.88 50.42 70.94 51.73 C 69.91 50.65 68.93 49.51 68.06 48.31 C 69.73 46.82 71.01 44.99 71.65 42.83 Z" />
<path fill="#ffeba6" opacity="1.00" d=" M 12.96 47.50 C 13.06 46.11 13.21 44.73 13.37 43.35 C 17.34 49.16 20.03 55.85 24.95 60.99 L 25.45 62.14 C 23.90 61.66 22.35 61.16 20.82 60.61 C 16.32 57.72 14.59 52.31 12.96 47.50 Z" />
<path fill="#27202f" opacity="1.00" d=" M 52.24 46.29 C 51.94 45.11 53.50 43.57 54.64 44.17 C 55.03 45.33 53.35 47.01 52.24 46.29 Z" />
<path fill="#f8e0a1" opacity="1.00" d=" M 100.55 53.35 C 103.70 49.71 107.05 46.23 111.00 43.44 L 111.00 47.70 C 108.70 49.19 106.22 50.40 104.03 52.05 C 101.29 54.17 99.46 57.17 97.53 59.99 C 97.11 60.28 96.28 60.85 95.87 61.14 L 96.10 60.16 C 97.26 57.70 98.81 55.44 100.55 53.35 Z" />
<path fill="#9e93dc" opacity="1.00" d=" M 1.58 49.63 C 3.36 48.25 5.49 47.45 7.46 46.39 C 7.00 49.59 3.06 50.73 1.83 53.66 C 1.48 52.36 0.57 50.87 1.58 49.63 Z" />
<path fill="#93ff9e" opacity="1.00" d=" M 54.61 48.27 C 55.61 47.71 56.76 47.48 57.90 47.46 C 58.62 49.81 53.50 51.05 54.61 48.27 Z" />
<path fill="#484265" opacity="1.00" d=" M 11.48 51.29 C 11.80 49.96 12.43 48.74 12.96 47.50 C 14.59 52.31 16.32 57.72 20.82 60.61 C 21.46 61.92 22.12 63.23 22.80 64.52 C 19.58 64.80 17.74 61.40 15.30 59.83 C 15.99 56.41 12.79 54.09 11.48 51.29 Z" />
<path fill="#817376" opacity="1.00" d=" M 104.03 52.05 C 106.22 50.40 108.70 49.19 111.00 47.70 L 111.00 49.77 C 108.73 51.83 106.32 53.78 104.49 56.27 C 103.92 56.97 103.35 57.67 102.78 58.36 C 101.61 59.45 100.43 60.53 99.30 61.66 C 98.86 61.24 97.97 60.40 97.53 59.99 C 99.46 57.17 101.29 54.17 104.03 52.05 Z" />
<path fill="#dedfc2" opacity="1.00" d=" M 52.65 49.54 C 54.96 52.00 58.13 50.32 59.98 48.24 C 59.92 50.01 61.59 52.35 59.82 53.73 C 59.53 53.41 58.94 52.77 58.64 52.45 C 56.81 52.26 55.27 53.74 54.02 54.91 C 55.28 54.47 56.52 53.57 57.90 54.11 C 57.86 55.29 57.21 56.15 55.95 56.70 C 51.31 55.59 45.47 55.15 43.71 49.73 C 45.27 50.66 46.83 51.60 48.39 52.53 C 48.84 51.65 49.30 50.77 49.76 49.90 C 50.05 50.26 50.61 50.97 50.89 51.33 C 51.33 50.88 52.21 49.99 52.65 49.54 Z" />
<path fill="#45415f" opacity="1.00" d=" M 104.49 56.27 C 106.32 53.78 108.73 51.83 111.00 49.77 L 111.00 51.66 C 109.28 53.74 107.24 55.70 104.49 56.27 Z" />
<path fill="#6c813c" opacity="1.00" d=" M 68.00 51.36 C 70.79 51.49 69.78 54.56 70.14 56.42 C 69.61 56.31 68.57 56.08 68.04 55.97 L 68.04 55.02 C 68.03 54.10 68.01 52.27 68.00 51.36 Z" />
<path fill="#606d75" opacity="1.00" d=" M 104.49 56.27 C 107.24 55.70 109.28 53.74 111.00 51.66 L 111.00 56.88 C 108.98 58.18 106.84 59.28 104.71 60.40 C 104.68 59.82 104.61 58.67 104.58 58.09 C 104.13 58.16 103.23 58.30 102.78 58.36 C 103.35 57.67 103.92 56.97 104.49 56.27 Z" />
<path fill="#657679" opacity="1.00" d=" M 87.46 56.68 C 92.06 56.63 96.00 53.77 100.55 53.35 C 98.81 55.44 97.26 57.70 96.10 60.16 C 92.54 65.48 85.85 67.74 79.75 68.46 C 79.03 66.88 78.35 65.28 77.68 63.68 C 81.59 62.37 84.62 59.55 87.46 56.68 Z" />
<path fill="#7a7696" opacity="1.00" d=" M 57.90 57.01 C 58.87 56.09 59.98 55.35 61.05 54.57 C 60.54 57.26 60.59 60.99 57.43 61.96 C 57.54 60.31 57.52 58.63 57.90 57.01 Z" />
<path fill="#887979" opacity="1.00" d=" M 104.71 60.40 C 106.84 59.28 108.98 58.18 111.00 56.88 L 111.00 63.21 C 109.45 64.17 107.86 65.07 106.28 65.99 C 105.68 64.15 105.04 62.31 104.71 60.40 Z" />
<path fill="#363454" opacity="1.00" d=" M 6.63 59.32 C 6.82 59.53 7.21 59.94 7.41 60.15 C 7.53 60.11 7.76 60.03 7.87 59.98 L 9.20 59.50 C 9.52 59.86 10.15 60.57 10.46 60.93 C 9.22 61.36 8.75 62.16 9.05 63.34 C 9.43 63.18 10.18 62.86 10.55 62.70 L 11.82 61.80 C 11.58 62.46 11.10 63.78 10.86 64.43 C 10.38 65.67 9.89 66.91 9.39 68.15 C 13.63 73.32 19.35 76.84 24.34 81.19 C 22.18 80.60 19.66 80.63 17.89 79.08 C 15.76 77.17 13.96 74.93 11.90 72.95 C 11.33 72.38 10.76 71.80 10.19 71.22 C 7.74 68.07 5.04 65.12 2.58 61.97 C 3.98 61.16 5.31 60.24 6.63 59.32 Z" />
<path fill="#dddec1" opacity="1.00" d=" M 9.20 59.50 C 9.43 59.43 9.89 59.27 10.12 59.20 C 13.40 61.99 17.42 65.58 16.58 70.35 C 22.24 71.72 27.75 73.67 33.11 75.94 C 32.79 76.59 32.13 77.91 31.81 78.56 C 35.05 77.24 37.93 75.20 40.37 72.70 C 40.93 74.48 41.53 76.25 42.19 77.99 C 38.73 80.32 35.08 82.35 31.26 84.03 C 27.01 80.44 22.64 76.97 18.00 73.90 C 14.93 71.40 11.40 68.64 10.86 64.43 C 11.10 63.78 11.58 62.46 11.82 61.80 L 10.55 62.70 C 10.53 62.26 10.48 61.37 10.46 60.93 C 10.15 60.57 9.52 59.86 9.20 59.50 Z" />
<path fill="#657579" opacity="1.00" d=" M 44.70 58.89 C 45.82 59.90 46.94 60.90 48.06 61.91 C 45.77 65.63 41.78 67.80 39.45 71.51 C 35.91 69.75 32.33 67.90 29.58 64.98 L 30.98 64.90 C 32.40 65.28 33.83 65.68 35.23 66.13 C 37.13 67.09 39.04 68.04 40.95 68.98 C 40.77 67.91 40.59 66.83 40.41 65.76 C 41.37 64.24 42.33 62.72 43.29 61.19 C 43.64 60.62 44.35 59.47 44.70 58.89 Z" />
<path fill="#dedfc2" opacity="1.00" d=" M 67.64 59.34 C 68.22 59.07 69.40 58.53 69.98 58.26 C 70.34 59.78 70.71 61.30 71.08 62.82 C 72.02 62.49 72.96 62.15 73.90 61.79 C 73.99 61.37 74.17 60.53 74.26 60.10 C 76.28 64.86 78.53 69.52 80.91 74.11 C 81.65 75.67 83.66 75.01 85.01 75.06 C 89.11 74.54 93.38 74.76 97.34 73.47 C 98.98 71.33 98.15 68.45 98.88 65.99 C 99.34 62.99 101.72 60.90 103.79 58.92 C 103.19 63.27 102.37 67.67 103.00 72.07 C 103.60 74.06 102.04 76.09 100.09 76.44 C 93.14 78.66 86.16 80.77 79.11 82.66 C 75.65 78.00 73.02 72.82 70.19 67.77 C 69.34 65.63 66.62 66.96 64.93 66.59 C 63.82 67.86 62.71 69.16 61.94 70.68 C 64.55 71.37 64.74 68.03 67.11 68.02 C 66.13 70.52 63.70 71.75 61.51 73.01 C 61.51 72.24 61.49 70.72 61.48 69.96 C 60.25 68.11 58.95 66.29 57.17 64.93 C 59.58 62.50 63.09 61.16 66.22 59.77 C 66.58 59.66 67.28 59.45 67.64 59.34 Z" />
<path fill="#f0f0e0" opacity="1.00" d=" M 69.98 58.26 C 71.61 58.40 73.47 58.35 74.26 60.10 C 74.17 60.53 73.99 61.37 73.90 61.79 C 72.96 62.15 72.02 62.49 71.08 62.82 C 70.71 61.30 70.34 59.78 69.98 58.26 Z" />
<path fill="#616f76" opacity="1.00" d=" M 15.30 59.83 C 17.74 61.40 19.58 64.80 22.80 64.52 C 27.07 68.28 31.58 71.97 37.14 73.60 C 36.40 74.20 35.66 74.80 34.92 75.39 C 29.67 72.74 24.20 70.53 18.47 69.17 C 18.44 67.70 18.42 66.22 18.40 64.75 C 17.15 63.73 15.91 62.71 14.74 61.59 L 15.30 59.83 Z" />
<path fill="#95847c" opacity="1.00" d=" M 79.75 68.46 C 85.85 67.74 92.54 65.48 96.10 60.16 L 95.87 61.14 C 96.28 60.85 97.11 60.28 97.53 59.99 C 97.97 60.40 98.86 61.24 99.30 61.66 C 97.47 64.00 96.96 67.00 96.75 69.89 C 92.41 70.22 88.39 71.84 84.46 73.56 C 84.03 73.64 83.18 73.80 82.75 73.88 C 82.16 72.87 81.57 71.86 80.99 70.85 C 83.40 70.95 81.31 67.67 80.57 70.10 C 80.36 69.69 79.96 68.87 79.75 68.46 M 86.04 68.02 C 85.58 69.43 86.06 69.91 87.45 69.45 C 87.90 68.04 87.43 67.56 86.04 68.02 Z" />
<path fill="#0d0d11" opacity="1.00" d=" M 9.05 63.34 C 8.75 62.16 9.22 61.36 10.46 60.93 C 10.48 61.37 10.53 62.26 10.55 62.70 C 10.18 62.86 9.43 63.18 9.05 63.34 Z" />
<path fill="#8e7e7b" opacity="1.00" d=" M 20.82 60.61 C 22.35 61.16 23.90 61.66 25.45 62.14 L 24.95 60.99 C 25.59 61.38 26.87 62.15 27.51 62.54 C 28.65 63.35 29.80 64.15 30.98 64.90 L 29.58 64.98 C 32.33 67.90 35.91 69.75 39.45 71.51 C 38.70 72.23 37.93 72.93 37.14 73.60 C 31.58 71.97 27.07 68.28 22.80 64.52 C 22.12 63.23 21.46 61.92 20.82 60.61 Z" />
<path fill="#dedfc2" opacity="1.00" d=" M 47.28 65.31 C 48.41 63.23 50.06 61.15 52.70 61.44 C 52.78 64.16 49.69 65.67 47.28 65.31 Z" />
<path fill="#9e93dc" opacity="1.00" d=" M 0.00 63.08 C 0.86 62.71 1.72 62.34 2.58 61.97 C 5.04 65.12 7.74 68.07 10.19 71.22 C 6.46 69.29 4.35 64.89 0.00 64.16 L 0.00 63.08 Z" />
<path fill="#ffa7bc" opacity="1.00" d=" M 52.20 65.72 C 52.58 63.91 53.73 62.58 55.16 61.50 C 55.55 61.87 56.32 62.60 56.71 62.97 C 55.52 64.37 54.28 65.96 52.20 65.72 Z" />
<path fill="#ffeba6" opacity="1.00" d=" M 33.13 63.04 C 34.61 63.49 36.09 63.94 37.56 64.44 C 38.51 64.88 39.46 65.32 40.41 65.76 C 40.59 66.83 40.77 67.91 40.95 68.98 C 39.04 68.04 37.13 67.09 35.23 66.13 C 34.51 65.12 33.82 64.08 33.13 63.04 Z" />
<path fill="#97ca9c" opacity="1.00" d=" M 106.28 65.99 C 107.86 65.07 109.45 64.17 111.00 63.21 L 111.00 73.83 C 108.87 73.97 106.35 74.98 104.55 73.35 C 105.05 72.50 106.05 70.80 106.56 69.96 C 105.98 69.91 104.81 69.83 104.23 69.79 C 104.29 68.08 104.34 66.37 104.40 64.67 C 104.56 65.96 104.88 68.55 105.04 69.84 C 105.64 68.63 106.48 67.44 106.28 65.99 Z" />
<path fill="#60587e" opacity="1.00" d=" M 0.00 64.16 C 4.35 64.89 6.46 69.29 10.19 71.22 C 10.76 71.80 11.33 72.38 11.90 72.95 C 11.45 72.99 10.55 73.06 10.10 73.10 C 10.73 74.59 11.37 76.07 12.04 77.54 C 11.29 78.38 10.53 79.21 9.77 80.05 C 6.68 77.28 3.33 74.86 0.00 72.40 L 0.00 64.16 Z" />
<path fill="#dedfc2" opacity="1.00" d=" M 49.48 70.75 C 49.85 68.96 48.56 66.04 50.82 65.16 C 51.44 66.08 52.06 66.99 52.69 67.91 C 51.62 68.85 50.55 69.80 49.48 70.75 Z" />
<path fill="#bd749d" opacity="1.00" d=" M 42.06 71.20 C 42.98 68.51 45.33 66.83 48.10 66.48 C 48.12 68.11 48.10 69.74 48.05 71.37 C 46.05 71.31 44.05 71.25 42.06 71.20 Z" />
<path fill="#b66f97" opacity="1.00" d=" M 51.14 71.41 C 52.96 69.53 55.03 67.93 57.19 66.47 C 58.25 67.88 58.81 69.54 59.09 71.27 C 56.47 71.81 53.78 71.90 51.14 71.41 Z" />
<path fill="#e0d09b" opacity="1.00" d=" M 86.04 68.02 C 87.43 67.56 87.90 68.04 87.45 69.45 C 86.06 69.91 85.58 69.43 86.04 68.02 Z" />
<path fill="#d7c195" opacity="1.00" d=" M 80.57 70.10 C 81.31 67.67 83.40 70.95 80.99 70.85 L 80.57 70.10 Z" />
<path fill="#272744" opacity="1.00" d=" M 64.38 75.20 C 65.45 73.25 66.96 71.58 68.48 69.97 C 69.24 73.79 69.72 77.82 71.78 81.21 C 73.61 84.22 75.87 86.97 78.29 89.53 C 79.26 93.53 80.22 97.57 80.37 101.70 C 78.52 100.99 76.95 99.75 75.79 98.16 C 70.47 91.41 66.45 83.53 64.38 75.20 Z" />
<path fill="#7a7696" opacity="1.00" d=" M 68.48 69.97 L 69.46 69.58 C 72.09 74.80 74.84 80.03 78.64 84.52 C 80.38 86.53 81.75 88.85 82.18 91.52 C 80.85 90.92 79.54 90.27 78.29 89.53 C 75.87 86.97 73.61 84.22 71.78 81.21 C 69.72 77.82 69.24 73.79 68.48 69.97 Z" />
<path fill="#a0d7a4" opacity="1.00" d=" M 84.46 73.56 C 88.39 71.84 92.41 70.22 96.75 69.89 C 96.71 70.52 96.63 71.77 96.59 72.40 C 92.53 72.56 88.48 73.01 84.46 73.56 Z" />
<path fill="#723e70" opacity="1.00" d=" M 42.06 71.20 C 44.05 71.25 46.05 71.31 48.05 71.37 C 48.22 73.72 50.18 72.90 50.96 71.39 L 51.14 71.41 C 53.78 71.90 56.47 71.81 59.09 71.27 L 59.47 71.20 C 59.93 72.76 60.13 74.57 61.61 75.54 C 60.64 78.56 60.66 81.74 60.73 84.87 C 57.28 85.88 56.94 89.94 54.81 92.34 C 55.44 89.26 56.01 86.18 56.63 83.11 C 56.95 81.44 57.32 79.78 57.70 78.12 C 59.07 74.97 54.09 76.91 56.95 78.44 C 56.20 78.75 55.44 79.05 54.68 79.33 C 51.98 77.67 48.58 77.10 45.53 78.07 C 45.27 78.22 44.75 78.53 44.49 78.68 C 43.05 76.43 42.25 73.86 42.06 71.20 Z" />
<path fill="#292846" opacity="1.00" d=" M 0.00 72.40 C 3.33 74.86 6.68 77.28 9.77 80.05 C 11.22 81.30 12.71 82.50 14.24 83.64 C 18.97 87.02 23.64 90.55 28.84 93.21 C 30.63 93.75 30.55 95.84 31.10 97.28 C 30.67 97.31 29.79 97.39 29.36 97.43 C 28.45 98.56 27.62 99.76 26.76 100.94 C 25.69 98.70 24.74 96.41 23.93 94.07 C 23.42 94.65 22.91 95.23 22.40 95.81 C 20.01 90.20 14.26 87.08 9.04 84.53 C 6.33 80.60 3.07 77.11 0.00 73.47 L 0.00 72.40 Z" />
<path fill="#606d75" opacity="1.00" d=" M 10.10 73.10 C 10.55 73.06 11.45 72.99 11.90 72.95 C 13.96 74.93 15.76 77.17 17.89 79.08 C 19.66 80.63 22.18 80.60 24.34 81.19 C 26.39 82.39 28.40 83.65 30.36 84.99 C 35.40 84.71 39.56 81.66 43.57 78.92 C 43.73 83.34 42.13 87.62 40.42 91.62 C 37.92 93.83 35.00 95.54 32.11 97.18 L 31.10 97.28 C 30.55 95.84 30.63 93.75 28.84 93.21 C 23.64 90.55 18.97 87.02 14.24 83.64 C 14.77 82.13 15.51 80.61 15.31 78.96 C 14.24 78.44 13.15 77.97 12.04 77.54 C 11.37 76.07 10.73 74.59 10.10 73.10 M 36.28 86.37 C 34.97 86.64 33.91 87.60 33.78 88.98 C 33.57 91.12 36.74 93.22 38.27 91.26 C 40.46 89.72 38.72 86.22 36.28 86.37 Z" />
<path fill="#616f77" opacity="1.00" d=" M 100.90 77.69 C 102.82 76.98 103.58 74.97 104.55 73.35 C 106.35 74.98 108.87 73.97 111.00 73.83 L 111.00 76.81 C 106.41 79.00 100.17 78.17 96.77 82.39 C 101.46 83.60 106.13 85.06 111.00 85.42 L 111.00 85.71 C 108.58 86.11 106.17 86.55 103.77 87.09 C 98.17 88.56 92.35 88.25 86.61 88.31 C 86.03 86.49 85.57 84.64 85.09 82.80 C 90.39 81.22 95.85 80.00 100.90 77.69 M 89.29 83.14 C 91.77 83.53 96.32 85.46 96.60 81.41 C 94.19 81.69 90.94 80.89 89.29 83.14 Z" />
<path fill="#291628" opacity="1.00" d=" M 56.95 78.44 C 54.09 76.91 59.07 74.97 57.70 78.12 L 56.95 78.44 Z" />
<path fill="#000000" opacity="1.00" d=" M 45.53 78.07 C 48.58 77.10 51.98 77.67 54.68 79.33 C 51.54 80.02 48.46 79.13 45.53 78.07 Z" />
<path fill="#97ca9c" opacity="1.00" d=" M 96.77 82.39 C 100.17 78.17 106.41 79.00 111.00 76.81 L 111.00 85.42 C 106.13 85.06 101.46 83.60 96.77 82.39 Z" />
<path fill="#9acf9e" opacity="1.00" d=" M 9.77 80.05 C 10.53 79.21 11.29 78.38 12.04 77.54 C 13.15 77.97 14.24 78.44 15.31 78.96 C 15.51 80.61 14.77 82.13 14.24 83.64 C 12.71 82.50 11.22 81.30 9.77 80.05 Z" />
<path fill="#985985" opacity="1.00" d=" M 44.49 78.68 C 44.75 78.53 45.27 78.22 45.53 78.07 C 48.46 79.13 51.54 80.02 54.68 79.33 C 55.44 79.05 56.20 78.75 56.95 78.44 L 57.70 78.12 C 57.32 79.78 56.95 81.44 56.63 83.11 C 53.01 83.89 48.78 84.71 46.24 81.27 C 45.90 81.92 45.57 82.57 45.24 83.22 C 45.02 81.70 44.77 80.19 44.49 78.68 Z" />
<path fill="#2a2830" opacity="1.00" d=" M 68.22 93.31 C 63.63 90.55 60.94 84.81 63.55 79.75 C 64.80 84.37 68.67 88.39 68.22 93.31 Z" />
<path fill="#b66f96" opacity="1.00" d=" M 45.24 83.22 C 45.57 82.57 45.90 81.92 46.24 81.27 C 48.78 84.71 53.01 83.89 56.63 83.11 C 56.01 86.18 55.44 89.26 54.81 92.34 C 54.38 94.12 53.74 95.84 53.18 97.59 C 48.83 94.72 46.31 100.98 42.84 102.12 C 41.69 100.20 41.26 97.97 40.58 95.87 C 43.12 92.05 43.63 87.41 45.24 83.22 Z" />
<path fill="#2e2d4b" opacity="1.00" d=" M 89.29 83.14 C 90.94 80.89 94.19 81.69 96.60 81.41 C 96.32 85.46 91.77 83.53 89.29 83.14 Z" />
<path fill="#262643" opacity="1.00" d=" M 78.64 84.52 C 80.79 83.95 82.94 83.38 85.09 82.80 C 85.57 84.64 86.03 86.49 86.61 88.31 C 91.03 88.49 95.43 89.01 99.66 90.37 C 102.34 91.23 105.01 90.08 107.27 88.68 C 106.10 88.14 104.94 87.61 103.77 87.09 C 106.17 86.55 108.58 86.11 111.00 85.71 L 111.00 97.82 C 104.40 97.15 97.59 97.22 91.28 94.92 C 88.24 93.81 85.17 92.75 82.18 91.52 C 81.75 88.85 80.38 86.53 78.64 84.52 Z" />
<path fill="#484265" opacity="1.00" d=" M 9.04 84.53 C 14.26 87.08 20.01 90.20 22.40 95.81 C 22.05 96.20 21.36 97.00 21.01 97.40 C 17.85 96.43 14.70 95.46 11.55 94.49 C 11.84 93.28 12.13 92.07 12.42 90.86 C 10.42 90.07 8.36 89.40 6.50 88.32 C 5.76 86.55 8.23 85.75 9.04 84.53 Z" />
<path fill="#897a79" opacity="1.00" d=" M 36.28 86.37 C 38.72 86.22 40.46 89.72 38.27 91.26 C 36.74 93.22 33.57 91.12 33.78 88.98 C 33.91 87.60 34.97 86.64 36.28 86.37 Z" />
<path fill="#4c3c53" opacity="1.00" d=" M 59.62 87.47 C 62.22 86.56 61.64 91.44 60.76 92.83 C 58.26 97.69 55.84 102.58 52.83 107.14 C 52.64 107.25 52.27 107.46 52.09 107.57 C 50.65 104.74 53.94 102.36 55.28 100.13 C 55.14 99.60 54.88 98.54 54.74 98.01 C 56.09 94.40 57.50 90.69 59.62 87.47 Z" />
<path fill="#494666" opacity="1.00" d=" M 86.61 88.31 C 92.35 88.25 98.17 88.56 103.77 87.09 C 104.94 87.61 106.10 88.14 107.27 88.68 C 105.01 90.08 102.34 91.23 99.66 90.37 C 95.43 89.01 91.03 88.49 86.61 88.31 Z" />
<path fill="#9e93dc" opacity="1.00" d=" M 0.00 90.63 C 1.81 89.96 3.75 89.06 5.70 89.72 C 5.65 91.46 5.60 93.21 5.55 94.96 C 4.80 93.71 4.05 92.45 3.30 91.20 C 2.47 91.33 0.82 91.60 0.00 91.74 L 0.00 90.63 Z" />
<path fill="#4c4751" opacity="1.00" d=" M 5.70 89.72 C 7.30 90.48 8.88 91.29 10.46 92.08 C 9.00 97.14 6.72 102.98 9.76 107.92 C 9.47 108.95 9.17 109.97 8.88 111.00 L 4.47 111.00 C 2.95 109.43 1.46 107.83 0.00 106.21 L 0.00 91.74 C 0.82 91.60 2.47 91.33 3.30 91.20 C 4.05 92.45 4.80 93.71 5.55 94.96 C 5.60 93.21 5.65 91.46 5.70 89.72 Z" />
<path fill="#2a2231" opacity="1.00" d=" M 65.23 98.08 C 64.29 95.90 62.80 93.64 63.54 91.16 C 64.88 92.60 67.19 93.80 67.23 96.01 C 66.62 96.75 65.95 97.44 65.23 98.08 Z" />
<path fill="#27202f" opacity="1.00" d=" M 52.83 107.14 C 55.84 102.58 58.26 97.69 60.76 92.83 C 61.82 95.73 63.59 98.27 64.99 101.01 C 64.84 101.33 64.55 101.97 64.41 102.29 C 60.52 103.83 56.76 105.71 52.83 107.14 Z" />
<path fill="#272744" opacity="1.00" d=" M 10.52 105.57 C 9.72 101.85 10.69 98.10 11.55 94.49 C 14.70 95.46 17.85 96.43 21.01 97.40 C 17.89 100.42 15.03 104.84 10.52 105.57 Z" />
<path fill="#a64299" opacity="1.00" d=" M 31.69 105.56 C 32.03 101.09 35.35 97.78 38.36 94.81 C 39.41 98.26 41.05 101.50 42.03 104.98 C 42.64 106.25 41.69 107.33 40.89 108.19 C 40.41 105.47 39.39 102.88 37.21 101.08 C 35.39 102.59 33.56 104.10 31.69 105.56 Z" />
<path fill="#fe61ca" opacity="1.00" d=" M 69.31 96.09 C 72.80 98.14 76.29 100.49 78.61 103.87 C 78.51 104.13 78.31 104.64 78.21 104.90 C 76.87 103.94 75.42 103.27 73.83 102.89 C 74.30 104.29 74.78 105.70 75.28 107.09 C 73.41 105.90 71.11 105.03 69.91 103.04 C 68.97 100.86 69.25 98.40 69.31 96.09 Z" />
<path fill="#322f35" opacity="1.00" d=" M 21.91 97.92 C 24.57 96.67 25.03 101.31 26.04 103.03 C 24.38 101.66 21.77 100.45 21.91 97.92 Z" />
<path fill="#56455d" opacity="1.00" d=" M 91.88 99.09 C 92.45 98.86 93.59 98.39 94.16 98.15 C 99.78 98.42 105.34 99.70 111.00 99.59 L 111.00 107.64 C 104.98 104.03 98.24 101.96 91.88 99.09 Z" />
<path fill="#3e3244" opacity="1.00" d=" M 43.85 103.89 C 46.54 101.60 49.20 97.74 53.25 99.04 C 52.20 100.51 51.09 101.94 49.87 103.27 C 47.55 105.50 45.37 107.91 44.27 111.00 L 39.75 111.00 C 42.44 109.54 44.25 107.07 43.85 103.89 Z" />
<path fill="#c44dab" opacity="1.00" d=" M 25.31 109.12 C 26.86 105.79 27.63 101.65 30.90 99.51 C 30.90 103.49 29.60 107.27 28.38 111.00 L 28.32 111.00 C 27.31 110.38 26.31 109.75 25.31 109.12 Z" />
<path fill="#4d3e55" opacity="1.00" d=" M 67.03 111.00 C 64.24 107.79 65.88 103.60 67.08 100.09 C 68.20 105.74 73.69 108.04 77.93 111.00 L 67.03 111.00 Z" />
<path fill="#2b2932" opacity="1.00" d=" M 20.40 100.86 C 22.06 102.38 24.31 103.64 24.95 105.95 C 23.55 107.79 21.87 109.39 20.22 111.00 L 8.88 111.00 C 9.17 109.97 9.47 108.95 9.76 107.92 C 14.20 107.18 17.49 104.05 20.40 100.86 Z" />
<path fill="#ff62ce" opacity="1.00" d=" M 83.51 101.35 C 85.48 99.90 88.00 100.56 90.16 101.10 C 89.77 105.11 85.73 106.31 82.28 106.00 C 82.37 104.43 81.51 102.03 83.51 101.35 Z" />
<path fill="#4f4057" opacity="1.00" d=" M 90.16 101.10 C 95.37 102.70 100.51 104.58 105.38 107.05 C 104.35 107.85 103.31 108.66 102.28 109.46 C 102.46 109.85 102.81 110.62 102.99 111.00 L 86.37 111.00 C 84.96 109.37 83.60 107.70 82.28 106.00 C 85.73 106.31 89.77 105.11 90.16 101.10 Z" />
<path fill="#612c74" opacity="1.00" d=" M 31.69 105.56 C 33.56 104.10 35.39 102.59 37.21 101.08 C 39.39 102.88 40.41 105.47 40.89 108.19 C 39.50 109.17 38.09 110.11 36.64 111.00 L 31.77 111.00 C 31.73 109.18 31.67 107.37 31.69 105.56 Z" />
<path fill="#292131" opacity="1.00" d=" M 44.27 111.00 C 45.37 107.91 47.55 105.50 49.87 103.27 C 49.80 105.85 49.80 108.42 49.86 111.00 L 44.27 111.00 Z" />
<path fill="#8a377d" opacity="1.00" d=" M 73.83 102.89 C 75.42 103.27 76.87 103.94 78.21 104.90 C 78.31 104.64 78.51 104.13 78.61 103.87 C 79.17 105.89 79.58 107.96 79.86 110.04 C 78.39 109.27 76.94 108.46 75.48 107.66 L 75.28 107.09 C 74.78 105.70 74.30 104.29 73.83 102.89 Z" />
<path fill="#48444d" opacity="1.00" d=" M 51.20 111.00 C 54.59 107.93 58.75 105.83 63.30 105.17 C 63.45 107.11 63.60 109.06 63.75 111.00 L 51.20 111.00 Z" />
<path fill="#0e0e10" opacity="1.00" d=" M 0.00 106.21 C 1.46 107.83 2.95 109.43 4.47 111.00 L 0.00 111.00 L 0.00 106.21 Z" />
<path fill="#312939" opacity="1.00" d=" M 105.38 107.05 C 107.29 108.01 109.18 109.03 111.00 110.17 L 111.00 111.00 L 102.99 111.00 C 102.81 110.62 102.46 109.85 102.28 109.46 C 103.31 108.66 104.35 107.85 105.38 107.05 Z" />
<path fill="#27202e" opacity="1.00" d=" M 81.30 111.00 C 80.43 110.19 80.73 107.28 82.34 108.35 C 83.00 109.13 83.48 110.01 83.80 111.00 L 81.30 111.00 Z" />
</svg>
