<?xml version="1.0" encoding="UTF-8" ?>
<!DOCTYPE svg PUBLIC "-//W3C//DTD SVG 1.1//EN" "http://www.w3.org/Graphics/SVG/1.1/DTD/svg11.dtd">
<svg width="111pt" height="111pt" viewBox="0 0 111 111" version="1.1" xmlns="http://www.w3.org/2000/svg">
<path fill="#000000" opacity="1.00" d=" M 73.75 2.80 C 74.97 2.18 76.33 1.22 77.68 2.11 C 77.18 6.87 75.12 11.26 73.70 15.79 C 75.75 18.28 77.56 20.94 79.06 23.79 C 82.23 20.90 85.58 18.14 89.53 16.38 C 89.52 19.87 89.56 23.35 89.57 26.84 C 90.35 26.97 91.12 27.11 91.90 27.26 C 93.47 22.54 94.26 17.43 97.30 13.35 C 100.41 8.42 105.55 5.34 111.00 3.61 L 111.00 6.82 C 104.84 8.79 99.58 13.33 97.35 19.49 C 96.12 22.41 94.83 25.62 95.66 28.83 C 97.30 34.25 100.76 39.01 105.36 42.31 C 105.62 40.71 105.91 39.12 106.19 37.53 C 106.42 36.30 106.64 35.07 106.86 33.85 C 107.59 33.34 108.32 32.84 109.05 32.33 C 109.54 32.77 110.51 33.63 111.00 34.06 L 111.00 36.64 C 110.19 36.10 109.37 35.57 108.53 35.05 C 108.30 37.44 108.11 39.83 108.02 42.23 C 108.77 42.55 110.26 43.17 111.00 43.49 L 111.00 45.24 C 108.77 43.74 108.70 47.37 111.00 46.96 L 111.00 49.99 C 110.34 49.50 109.66 49.03 108.99 48.56 C 103.33 44.66 98.53 39.70 93.22 35.37 C 94.67 38.59 96.24 41.79 98.50 44.52 C 101.14 49.00 105.96 51.45 111.00 52.07 L 111.00 54.62 C 107.57 54.38 104.22 53.34 101.51 51.18 C 98.82 49.16 96.58 46.60 94.73 43.81 C 93.67 42.04 92.81 40.16 92.07 38.24 C 91.45 36.65 90.83 35.05 90.15 33.48 C 88.91 37.22 87.91 41.09 87.80 45.05 C 88.05 49.84 89.50 54.56 91.86 58.74 C 92.83 59.82 93.82 60.94 95.11 61.65 C 97.04 61.78 98.97 61.51 100.87 61.17 C 104.37 60.31 107.81 59.15 111.00 57.44 L 111.00 61.03 C 108.27 61.98 105.47 62.71 102.68 63.47 C 104.45 66.42 107.04 69.86 111.00 68.60 L 111.00 72.62 C 105.97 72.78 102.44 69.11 99.57 65.48 C 98.17 65.31 96.77 65.16 95.38 64.95 C 93.06 64.05 90.84 62.90 88.62 61.78 C 90.90 59.86 87.36 57.14 87.00 55.07 C 86.31 56.22 85.63 57.37 84.99 58.53 C 83.74 60.37 82.44 62.17 81.10 63.94 C 83.14 60.75 84.67 57.29 86.26 53.87 C 85.87 51.22 85.51 48.57 85.24 45.91 C 82.74 48.42 79.86 51.33 75.96 50.85 C 72.91 51.08 70.82 48.54 68.51 46.99 C 68.30 47.52 67.88 48.59 67.67 49.12 C 66.28 50.09 64.80 50.92 63.39 51.85 C 62.55 52.55 61.72 53.27 60.91 54.01 C 60.12 54.29 59.34 54.58 58.55 54.87 C 56.95 55.88 55.26 56.74 53.54 57.54 C 52.91 63.47 46.66 69.74 40.59 66.30 C 40.31 65.96 40.04 65.62 39.80 65.26 C 37.50 62.43 39.20 58.96 39.68 55.85 L 39.03 54.45 C 38.75 53.91 38.21 52.82 37.94 52.27 C 36.79 52.90 35.60 53.46 34.47 54.13 C 31.56 56.02 29.52 58.89 27.69 61.76 C 25.17 65.83 22.83 70.15 21.75 74.84 C 22.50 77.77 24.37 80.26 25.99 82.77 C 27.42 84.84 28.94 86.84 30.27 88.97 L 29.56 90.03 C 34.46 93.18 36.82 99.42 36.62 105.05 C 35.77 107.07 34.86 109.06 33.84 111.00 L 24.69 111.00 L 25.78 110.86 C 27.19 110.68 28.59 110.51 30.00 110.35 C 31.62 108.37 33.20 106.36 34.68 104.28 C 33.10 100.22 32.25 95.50 28.62 92.68 C 26.54 90.97 24.53 88.87 21.84 88.18 C 20.03 88.49 18.48 89.57 16.94 90.51 C 14.62 92.17 12.18 93.96 10.76 96.49 C 9.85 99.28 9.24 102.19 8.90 105.11 C 9.40 107.22 10.57 109.09 11.57 111.00 L 6.16 111.00 C 5.46 109.96 4.81 108.88 4.16 107.80 C 3.47 106.63 2.80 105.46 2.13 104.28 C 1.60 104.45 0.53 104.79 0.00 104.96 L 0.00 101.42 C 8.47 93.10 13.54 82.00 16.73 70.71 C 18.46 65.32 18.92 59.65 19.67 54.07 C 20.88 45.98 19.95 37.28 15.68 30.16 C 11.93 23.01 5.77 17.67 0.00 12.20 L 0.00 6.91 C 5.31 10.93 10.25 15.44 14.57 20.52 C 21.89 28.88 26.44 40.03 25.26 51.25 C 27.57 51.70 29.88 52.14 32.19 52.58 C 33.85 49.95 35.21 46.77 38.19 45.37 C 40.87 43.89 44.21 42.36 44.99 39.08 C 41.03 34.32 35.90 30.48 33.01 24.86 C 36.52 26.04 39.52 28.24 42.65 30.15 C 42.76 27.41 42.87 24.66 43.21 21.94 C 41.88 17.80 41.15 13.48 41.49 9.12 C 44.38 10.03 47.21 11.10 49.98 12.33 C 53.94 10.11 58.42 9.17 62.94 9.65 C 66.45 7.22 70.01 4.85 73.75 2.80 M 70.03 8.01 C 68.34 8.96 66.74 10.06 65.07 11.04 C 65.72 11.88 66.38 12.71 67.05 13.53 C 65.48 13.61 63.90 13.52 62.35 13.29 C 58.40 12.99 54.17 13.13 51.05 15.89 C 49.91 17.08 48.78 18.27 47.65 19.47 C 45.59 23.61 46.33 28.36 46.58 32.80 C 51.35 30.93 56.18 29.16 61.25 28.29 C 62.60 25.36 64.04 22.48 65.55 19.64 C 66.12 19.37 66.68 19.10 67.24 18.83 C 68.67 22.07 68.34 26.48 71.73 28.48 C 71.72 28.68 71.69 29.10 71.68 29.31 C 62.94 29.34 54.06 31.40 46.34 35.52 C 46.29 35.81 46.19 36.38 46.15 36.67 C 48.26 38.08 50.56 39.15 52.73 40.48 C 50.85 40.70 48.96 40.64 47.08 40.65 L 47.15 41.39 C 46.23 43.40 44.86 45.12 43.08 46.42 C 44.68 46.37 46.28 46.32 47.88 46.27 C 48.04 46.92 48.37 48.22 48.53 48.86 C 47.49 48.81 45.40 48.71 44.36 48.65 C 44.45 49.13 44.62 50.10 44.71 50.58 C 47.12 50.68 49.55 50.52 51.78 49.50 C 51.61 50.24 51.27 51.71 51.10 52.45 C 52.44 51.03 54.08 50.08 56.09 50.17 C 56.94 49.38 57.78 48.59 58.64 47.82 C 59.34 47.74 60.75 47.58 61.46 47.50 C 63.99 44.94 66.67 42.55 69.26 40.05 C 69.87 41.35 70.44 42.66 70.95 44.00 C 70.99 44.77 71.05 46.31 71.08 47.08 C 73.47 48.08 76.04 49.32 78.70 48.61 C 81.75 47.41 84.32 44.39 83.70 40.92 C 83.98 38.12 81.28 36.77 79.23 35.60 C 75.61 35.26 71.71 36.93 70.88 40.84 C 70.38 40.01 69.91 39.16 69.38 38.35 C 64.46 42.01 58.46 43.81 53.23 46.96 C 53.45 43.65 56.67 42.55 59.10 41.12 C 63.68 39.07 68.00 36.52 72.54 34.40 C 74.05 31.54 75.70 28.76 77.53 26.11 C 75.68 22.18 71.28 19.33 71.28 14.70 C 72.40 11.76 73.30 8.73 74.03 5.67 C 72.59 6.26 71.22 7.00 70.03 8.01 M 44.33 12.75 C 44.47 14.17 44.62 15.59 44.77 17.01 C 45.78 16.35 46.80 15.69 47.77 14.96 C 47.22 13.54 45.50 13.41 44.33 12.75 M 85.29 20.96 L 85.32 21.50 C 83.90 22.62 82.47 23.73 81.08 24.89 L 81.74 24.83 C 83.85 25.62 86.07 25.97 88.29 26.27 C 88.16 24.18 88.02 22.09 87.87 20.00 C 87.01 20.32 86.15 20.64 85.29 20.96 M 65.67 23.17 C 65.00 24.62 64.36 26.08 63.72 27.54 C 64.40 27.46 65.75 27.28 66.43 27.19 C 66.66 25.87 66.70 24.52 66.80 23.18 C 66.52 23.18 65.95 23.18 65.67 23.17 M 79.52 27.55 C 77.96 29.02 76.97 30.97 75.82 32.76 C 78.68 33.00 81.50 33.60 84.02 35.00 C 85.49 32.91 86.88 30.77 88.10 28.53 C 85.34 27.83 82.37 26.68 79.52 27.55 M 40.34 31.36 C 40.04 32.81 42.37 34.94 43.78 34.20 C 44.20 32.50 41.90 30.75 40.34 31.36 M 66.93 44.06 C 67.22 47.39 69.90 42.39 66.93 44.06 M 37.03 50.75 C 37.89 50.67 39.63 50.52 40.50 50.44 C 40.58 51.70 40.69 52.95 40.83 54.21 C 41.00 53.85 41.33 53.14 41.49 52.78 C 42.35 52.30 42.98 51.53 43.81 51.02 C 41.76 50.68 40.77 49.03 40.05 47.27 C 38.37 47.74 37.30 49.02 37.03 50.75 M 63.15 47.34 C 63.22 47.97 63.35 49.21 63.42 49.83 C 64.29 49.13 65.16 48.42 66.01 47.69 C 65.29 47.60 63.86 47.43 63.15 47.34 M 58.06 50.02 C 58.14 50.64 58.30 51.88 58.38 52.50 C 58.93 52.47 60.02 52.42 60.57 52.39 C 60.59 51.88 60.64 50.87 60.67 50.37 C 60.02 50.28 58.71 50.11 58.06 50.02 M 53.44 52.40 C 53.37 53.00 53.23 54.20 53.16 54.80 C 53.82 54.76 55.15 54.69 55.81 54.65 C 55.77 54.09 55.70 52.96 55.66 52.40 C 55.11 52.40 54.00 52.40 53.44 52.40 M 41.77 64.29 C 44.30 65.86 46.90 63.14 49.11 62.11 C 49.58 61.07 50.08 60.03 50.58 59.01 C 50.43 56.32 49.43 52.25 45.89 52.77 C 41.93 54.59 39.31 60.43 41.77 64.29 M 24.73 55.93 C 24.17 58.00 24.59 60.19 24.57 62.30 C 24.97 61.19 25.34 60.06 25.73 58.94 C 27.32 57.70 28.74 56.15 28.90 54.03 C 27.36 54.31 25.56 54.34 24.73 55.93 M 19.58 78.34 C 19.00 80.13 18.39 81.92 17.84 83.72 C 19.40 83.67 20.97 83.55 22.53 83.52 C 21.48 81.83 20.47 80.11 19.58 78.34 Z" />
<path fill="#6e7970" opacity="1.00" d=" M 70.03 8.01 C 71.22 7.00 72.59 6.26 74.03 5.67 C 73.30 8.73 72.40 11.76 71.28 14.70 C 70.53 14.51 69.04 14.12 68.30 13.93 C 68.10 13.87 67.70 13.75 67.50 13.69 C 69.34 11.59 71.12 9.42 72.78 7.17 C 72.09 7.38 70.72 7.80 70.03 8.01 Z" />
<path fill="#f4f6cb" opacity="1.00" d=" M 97.35 19.49 C 99.58 13.33 104.84 8.79 111.00 6.82 L 111.00 16.30 C 109.82 16.22 108.65 16.11 107.47 16.05 C 103.81 15.73 101.77 19.06 100.04 21.70 C 99.33 22.62 98.60 23.52 97.86 24.40 C 97.66 22.77 97.49 21.13 97.35 19.49 Z" />
<path fill="#fdfed6" opacity="1.00" d=" M 65.07 11.04 C 66.74 10.06 68.34 8.96 70.03 8.01 C 70.72 7.80 72.09 7.38 72.78 7.17 C 71.12 9.42 69.34 11.59 67.50 13.69 L 67.05 13.53 C 66.38 12.71 65.72 11.88 65.07 11.04 Z" />
<path fill="#858b8f" opacity="1.00" d=" M 0.00 12.20 C 5.77 17.67 11.93 23.01 15.68 30.16 C 19.95 37.28 20.88 45.98 19.67 54.07 C 18.92 59.65 18.46 65.32 16.73 70.71 C 15.98 70.84 14.47 71.09 13.72 71.22 C 15.55 64.65 17.84 57.94 17.32 51.03 C 16.19 41.58 10.96 33.41 6.89 25.03 C 5.39 21.76 2.70 19.33 0.00 17.07 L 0.00 12.20 Z" />
<path fill="#cae6a9" opacity="1.00" d=" M 44.33 12.75 C 45.50 13.41 47.22 13.54 47.77 14.96 C 46.80 15.69 45.78 16.35 44.77 17.01 C 44.62 15.59 44.47 14.17 44.33 12.75 Z" />
<path fill="#9ac59d" opacity="1.00" d=" M 51.05 15.89 C 54.17 13.13 58.40 12.99 62.35 13.29 C 61.53 13.74 60.72 14.19 59.91 14.64 C 55.28 17.00 50.30 19.96 49.04 25.42 C 52.65 25.57 56.89 26.40 59.89 23.83 C 61.89 22.26 62.60 19.71 62.67 17.27 C 63.63 18.06 64.59 18.85 65.55 19.64 C 64.04 22.48 62.60 25.36 61.25 28.29 C 56.18 29.16 51.35 30.93 46.58 32.80 C 46.33 28.36 45.59 23.61 47.65 19.47 C 48.59 19.65 49.53 19.78 50.48 19.86 C 50.71 18.54 50.90 17.22 51.05 15.89 Z" />
<path fill="#36436c" opacity="1.00" d=" M 62.35 13.29 C 63.90 13.52 65.48 13.61 67.05 13.53 L 67.50 13.69 C 67.70 13.75 68.10 13.87 68.30 13.93 C 67.75 14.96 67.21 15.99 66.66 17.02 C 66.86 17.62 67.05 18.23 67.24 18.83 C 66.68 19.10 66.12 19.37 65.55 19.64 C 64.59 18.85 63.63 18.06 62.67 17.27 C 62.70 16.82 62.77 15.92 62.81 15.46 C 62.09 15.26 60.64 14.85 59.91 14.64 C 60.72 14.19 61.53 13.74 62.35 13.29 Z" />
<path fill="#485c85" opacity="1.00" d=" M 68.30 13.93 C 69.04 14.12 70.53 14.51 71.28 14.70 C 71.28 19.33 75.68 22.18 77.53 26.11 C 75.70 28.76 74.05 31.54 72.54 34.40 C 68.00 36.52 63.68 39.07 59.10 41.12 C 58.50 40.67 57.30 39.77 56.70 39.32 C 61.09 37.12 65.81 35.57 70.09 33.15 C 71.73 32.54 71.50 30.72 71.68 29.31 C 71.69 29.10 71.72 28.68 71.73 28.48 C 68.34 26.48 68.67 22.07 67.24 18.83 C 67.05 18.23 66.86 17.62 66.66 17.02 C 67.21 15.99 67.75 14.96 68.30 13.93 Z" />
<path fill="#000000" opacity="1.00" d=" M 49.04 25.42 C 50.30 19.96 55.28 17.00 59.91 14.64 C 60.64 14.85 62.09 15.26 62.81 15.46 C 62.77 15.92 62.70 16.82 62.67 17.27 C 62.60 19.71 61.89 22.26 59.89 23.83 C 56.89 26.40 52.65 25.57 49.04 25.42 M 51.08 24.35 C 54.33 24.40 58.36 24.53 60.43 21.49 C 62.12 20.03 61.25 17.82 60.70 16.04 C 57.11 18.30 53.17 20.47 51.08 24.35 Z" />
<path fill="#f4f5c9" opacity="1.00" d=" M 47.65 19.47 C 48.78 18.27 49.91 17.08 51.05 15.89 C 50.90 17.22 50.71 18.54 50.48 19.86 C 49.53 19.78 48.59 19.65 47.65 19.47 Z" />
<path fill="#000000" opacity="1.00" d=" M 100.04 21.70 C 101.77 19.06 103.81 15.73 107.47 16.05 C 104.26 18.72 100.52 21.83 101.13 26.51 C 101.12 27.04 101.10 28.09 101.10 28.62 C 104.54 29.49 108.21 29.39 111.00 26.95 L 111.00 29.06 C 109.70 29.82 108.37 30.53 106.96 31.05 C 104.22 31.04 100.71 31.39 98.83 28.96 C 98.59 26.49 99.54 24.09 100.04 21.70 Z" />
<path fill="#1e2239" opacity="1.00" d=" M 107.47 16.05 C 108.65 16.11 109.82 16.22 111.00 16.30 L 111.00 22.60 C 109.91 24.38 108.85 26.34 107.01 27.47 C 105.01 28.12 103.04 27.00 101.13 26.51 C 100.52 21.83 104.26 18.72 107.47 16.05 Z" />
<path fill="#cd5082" opacity="1.00" d=" M 51.08 24.35 C 53.17 20.47 57.11 18.30 60.70 16.04 C 61.25 17.82 62.12 20.03 60.43 21.49 C 58.36 24.53 54.33 24.40 51.08 24.35 Z" />
<path fill="#010101" opacity="0.53" d=" M 89.53 16.38 C 90.30 20.01 90.51 23.78 91.90 27.26 C 91.12 27.11 90.35 26.97 89.57 26.84 C 89.56 23.35 89.52 19.87 89.53 16.38 Z" />
<path fill="#b1b1b0" opacity="1.00" d=" M 0.00 17.07 C 2.70 19.33 5.39 21.76 6.89 25.03 C 10.96 33.41 16.19 41.58 17.32 51.03 C 17.84 57.94 15.55 64.65 13.72 71.22 C 10.58 80.00 7.60 89.51 0.00 95.54 L 0.00 17.07 Z" />
<path fill="#515b56" opacity="1.00" d=" M 85.29 20.96 C 86.15 20.64 87.01 20.32 87.87 20.00 C 88.02 22.09 88.16 24.18 88.29 26.27 C 86.07 25.97 83.85 25.62 81.74 24.83 C 82.99 24.74 84.23 24.65 85.47 24.55 C 85.42 23.54 85.37 22.52 85.32 21.50 L 85.29 20.96 Z" />
<path fill="#a8b29d" opacity="1.00" d=" M 95.66 28.83 C 94.83 25.62 96.12 22.41 97.35 19.49 C 97.49 21.13 97.66 22.77 97.86 24.40 C 98.60 23.52 99.33 22.62 100.04 21.70 C 99.54 24.09 98.59 26.49 98.83 28.96 C 100.71 31.39 104.22 31.04 106.96 31.05 C 105.28 31.45 103.57 31.73 101.87 32.04 C 103.29 33.88 104.73 35.72 106.19 37.53 C 105.91 39.12 105.62 40.71 105.36 42.31 C 100.76 39.01 97.30 34.25 95.66 28.83 Z" />
<path fill="#fdfed6" opacity="1.00" d=" M 81.08 24.89 C 82.47 23.73 83.90 22.62 85.32 21.50 C 85.37 22.52 85.42 23.54 85.47 24.55 C 84.23 24.65 82.99 24.74 81.74 24.83 L 81.08 24.89 Z" />
<path fill="#fdfed6" opacity="1.00" d=" M 65.67 23.17 C 65.95 23.18 66.52 23.18 66.80 23.18 C 66.70 24.52 66.66 25.87 66.43 27.19 C 65.75 27.28 64.40 27.46 63.72 27.54 C 64.36 26.08 65.00 24.62 65.67 23.17 Z" />
<path fill="#707a80" opacity="1.00" d=" M 107.01 27.47 C 108.85 26.34 109.91 24.38 111.00 22.60 L 111.00 26.95 C 108.21 29.39 104.54 29.49 101.10 28.62 C 101.10 28.09 101.12 27.04 101.13 26.51 C 103.04 27.00 105.01 28.12 107.01 27.47 Z" />
<path fill="#7f6d65" opacity="1.00" d=" M 79.52 27.55 C 82.37 26.68 85.34 27.83 88.10 28.53 C 86.88 30.77 85.49 32.91 84.02 35.00 C 81.50 33.60 78.68 33.00 75.82 32.76 C 76.97 30.97 77.96 29.02 79.52 27.55 Z" />
<path fill="#96c29a" opacity="1.00" d=" M 46.34 35.52 C 54.06 31.40 62.94 29.34 71.68 29.31 C 71.50 30.72 71.73 32.54 70.09 33.15 C 65.81 35.57 61.09 37.12 56.70 39.32 C 55.40 39.77 54.07 40.17 52.73 40.48 C 50.56 39.15 48.26 38.08 46.15 36.67 C 46.19 36.38 46.29 35.81 46.34 35.52 Z" />
<path fill="#fdfed4" opacity="1.00" d=" M 106.96 31.05 C 108.37 30.53 109.70 29.82 111.00 29.06 L 111.00 34.06 C 110.51 33.63 109.54 32.77 109.05 32.33 C 108.32 32.84 107.59 33.34 106.86 33.85 C 106.64 35.07 106.42 36.30 106.19 37.53 C 104.73 35.72 103.29 33.88 101.87 32.04 C 103.57 31.73 105.28 31.45 106.96 31.05 Z" />
<path fill="#a8b29d" opacity="1.00" d=" M 40.34 31.36 C 41.90 30.75 44.20 32.50 43.78 34.20 C 42.37 34.94 40.04 32.81 40.34 31.36 Z" />
<path fill="#b4b4b2" opacity="1.00" d=" M 90.15 33.48 C 90.83 35.05 91.45 36.65 92.07 38.24 C 88.96 39.85 88.80 43.33 88.55 46.40 C 90.61 45.55 92.67 44.68 94.73 43.81 C 96.58 46.60 98.82 49.16 101.51 51.18 C 100.41 52.26 99.31 53.33 98.19 54.37 C 96.16 55.94 93.99 57.32 91.86 58.74 C 89.50 54.56 88.05 49.84 87.80 45.05 C 87.91 41.09 88.91 37.22 90.15 33.48 Z" />
<path fill="#cae6a9" opacity="1.00" d=" M 70.88 40.84 C 71.71 36.93 75.61 35.26 79.23 35.60 C 76.37 38.29 73.43 40.93 70.95 44.00 C 70.44 42.66 69.87 41.35 69.26 40.05 C 66.67 42.55 63.99 44.94 61.46 47.50 C 60.75 47.58 59.34 47.74 58.64 47.82 C 57.78 48.59 56.94 49.38 56.09 50.17 C 54.08 50.08 52.44 51.03 51.10 52.45 C 51.27 51.71 51.61 50.24 51.78 49.50 C 49.55 50.52 47.12 50.68 44.71 50.58 C 44.62 50.10 44.45 49.13 44.36 48.65 C 45.40 48.71 47.49 48.81 48.53 48.86 C 48.37 48.22 48.04 46.92 47.88 46.27 C 46.28 46.32 44.68 46.37 43.08 46.42 C 44.86 45.12 46.23 43.40 47.15 41.39 C 47.31 42.69 47.42 44.00 47.57 45.31 C 48.34 46.81 48.94 48.38 49.59 49.94 C 50.82 48.96 52.04 47.98 53.23 46.96 C 58.46 43.81 64.46 42.01 69.38 38.35 C 69.91 39.16 70.38 40.01 70.88 40.84 Z" />
<path fill="#fdfed6" opacity="1.00" d=" M 93.22 35.37 C 98.53 39.70 103.33 44.66 108.99 48.56 C 105.03 49.56 101.98 45.80 98.50 44.52 C 96.24 41.79 94.67 38.59 93.22 35.37 Z" />
<path fill="#fdfed4" opacity="1.00" d=" M 108.53 35.05 C 109.37 35.57 110.19 36.10 111.00 36.64 L 111.00 42.38 C 108.53 40.67 108.69 37.71 108.53 35.05 Z" />
<path fill="#a46e5f" opacity="1.00" d=" M 70.95 44.00 C 73.43 40.93 76.37 38.29 79.23 35.60 C 81.28 36.77 83.98 38.12 83.70 40.92 C 84.32 44.39 81.75 47.41 78.70 48.61 C 76.04 49.32 73.47 48.08 71.08 47.08 C 75.03 44.92 78.39 41.83 81.01 38.17 C 76.68 39.64 72.64 42.63 71.08 47.08 C 71.05 46.31 70.99 44.77 70.95 44.00 Z" />
<path fill="#8f9682" opacity="1.00" d=" M 108.02 42.23 C 108.11 39.83 108.30 37.44 108.53 35.05 C 108.69 37.71 108.53 40.67 111.00 42.38 L 111.00 43.49 C 110.26 43.17 108.77 42.55 108.02 42.23 Z" />
<path fill="#e5d4c2" opacity="1.00" d=" M 71.08 47.08 C 72.64 42.63 76.68 39.64 81.01 38.17 C 78.39 41.83 75.03 44.92 71.08 47.08 Z" />
<path fill="#f4f5c9" opacity="1.00" d=" M 88.55 46.40 C 88.80 43.33 88.96 39.85 92.07 38.24 C 92.81 40.16 93.67 42.04 94.73 43.81 C 92.67 44.68 90.61 45.55 88.55 46.40 Z" />
<path fill="#303a60" opacity="1.00" d=" M 52.73 40.48 C 54.07 40.17 55.40 39.77 56.70 39.32 C 57.30 39.77 58.50 40.67 59.10 41.12 C 56.67 42.55 53.45 43.65 53.23 46.96 C 52.04 47.98 50.82 48.96 49.59 49.94 C 48.94 48.38 48.34 46.81 47.57 45.31 C 47.42 44.00 47.31 42.69 47.15 41.39 L 47.08 40.65 C 48.96 40.64 50.85 40.70 52.73 40.48 Z" />
<path fill="#a49e95" opacity="1.00" d=" M 66.93 44.06 C 69.90 42.39 67.22 47.39 66.93 44.06 Z" />
<path fill="#848c88" opacity="1.00" d=" M 98.50 44.52 C 101.98 45.80 105.03 49.56 108.99 48.56 C 109.66 49.03 110.34 49.50 111.00 49.99 L 111.00 52.07 C 105.96 51.45 101.14 49.00 98.50 44.52 Z" />
<path fill="#909078" opacity="1.00" d=" M 111.00 46.96 C 108.70 47.37 108.77 43.74 111.00 45.24 L 111.00 46.96 Z" />
<path fill="#98c49b" opacity="1.00" d=" M 75.96 50.85 C 79.86 51.33 82.74 48.42 85.24 45.91 C 85.51 48.57 85.87 51.22 86.26 53.87 C 84.67 57.29 83.14 60.75 81.10 63.94 C 82.44 62.17 83.74 60.37 84.99 58.53 C 85.63 57.37 86.31 56.22 87.00 55.07 C 87.36 57.14 90.90 59.86 88.62 61.78 C 83.71 66.13 78.54 70.28 72.67 73.29 C 61.46 72.66 50.36 70.04 39.08 70.87 C 39.58 69.34 40.07 67.82 40.59 66.30 C 46.66 69.74 52.91 63.47 53.54 57.54 C 55.26 56.74 56.95 55.88 58.55 54.87 C 59.34 54.58 60.12 54.29 60.91 54.01 C 61.72 53.27 62.55 52.55 63.39 51.85 C 63.94 53.73 64.50 55.62 65.04 57.51 C 62.80 59.26 61.20 61.63 59.79 64.07 C 62.48 62.85 65.08 61.46 67.67 60.03 C 68.17 61.11 68.68 62.19 69.19 63.27 C 69.29 61.42 69.38 59.58 69.46 57.73 C 70.96 56.58 72.46 55.43 73.96 54.28 C 72.31 54.47 70.66 54.67 69.01 54.88 C 68.56 54.86 67.64 54.81 67.18 54.79 C 67.27 52.90 67.43 51.00 67.67 49.12 C 67.88 48.59 68.30 47.52 68.51 46.99 C 70.82 48.54 72.91 51.08 75.96 50.85 Z" />
<path fill="#ffffea" opacity="1.00" d=" M 37.03 50.75 C 37.30 49.02 38.37 47.74 40.05 47.27 C 40.77 49.03 41.76 50.68 43.81 51.02 C 42.98 51.53 42.35 52.30 41.49 52.78 C 41.33 53.14 41.00 53.85 40.83 54.21 C 40.69 52.95 40.58 51.70 40.50 50.44 C 39.63 50.52 37.89 50.67 37.03 50.75 Z" />
<path fill="#fdfed6" opacity="1.00" d=" M 63.15 47.34 C 63.86 47.43 65.29 47.60 66.01 47.69 C 65.16 48.42 64.29 49.13 63.42 49.83 C 63.35 49.21 63.22 47.97 63.15 47.34 Z" />
<path fill="#7c7367" opacity="1.00" d=" M 63.39 51.85 C 64.80 50.92 66.28 50.09 67.67 49.12 C 67.43 51.00 67.27 52.90 67.18 54.79 C 67.64 54.81 68.56 54.86 69.01 54.88 C 67.65 55.70 66.32 56.57 65.04 57.51 C 64.50 55.62 63.94 53.73 63.39 51.85 Z" />
<path fill="#cae6a9" opacity="1.00" d=" M 58.06 50.02 C 58.71 50.11 60.02 50.28 60.67 50.37 C 60.64 50.87 60.59 51.88 60.57 52.39 C 60.02 52.42 58.93 52.47 58.38 52.50 C 58.30 51.88 58.14 50.64 58.06 50.02 Z" />
<path fill="#505b69" opacity="1.00" d=" M 101.51 51.18 C 104.22 53.34 107.57 54.38 111.00 54.62 L 111.00 57.44 C 107.81 59.15 104.37 60.31 100.87 61.17 C 100.96 60.50 101.13 59.17 101.22 58.51 C 102.54 57.59 103.84 56.66 105.17 55.75 C 102.83 55.35 100.49 54.92 98.19 54.37 C 99.31 53.33 100.41 52.26 101.51 51.18 Z" />
<path fill="#fdfed4" opacity="1.00" d=" M 53.44 52.40 C 54.00 52.40 55.11 52.40 55.66 52.40 C 55.70 52.96 55.77 54.09 55.81 54.65 C 55.15 54.69 53.82 54.76 53.16 54.80 C 53.23 54.20 53.37 53.00 53.44 52.40 Z" />
<path fill="#9ba387" opacity="1.00" d=" M 34.47 54.13 C 35.60 53.46 36.79 52.90 37.94 52.27 C 38.21 52.82 38.75 53.91 39.03 54.45 C 37.18 57.58 35.28 60.68 33.05 63.55 C 33.04 62.69 33.03 60.96 33.02 60.10 C 33.78 58.21 35.35 56.27 34.47 54.13 Z" />
<path fill="#bc8e6e" opacity="1.00" d=" M 41.77 64.29 C 39.31 60.43 41.93 54.59 45.89 52.77 C 49.43 52.25 50.43 56.32 50.58 59.01 C 50.08 60.03 49.58 61.07 49.11 62.11 C 46.90 63.14 44.30 65.86 41.77 64.29 Z" />
<path fill="#fdfed6" opacity="1.00" d=" M 24.73 55.93 C 25.56 54.34 27.36 54.31 28.90 54.03 C 28.74 56.15 27.32 57.70 25.73 58.94 C 25.34 60.06 24.97 61.19 24.57 62.30 C 24.59 60.19 24.17 58.00 24.73 55.93 Z" />
<path fill="#6c3a46" opacity="1.00" d=" M 69.01 54.88 C 70.66 54.67 72.31 54.47 73.96 54.28 C 72.46 55.43 70.96 56.58 69.46 57.73 C 69.38 59.58 69.29 61.42 69.19 63.27 C 68.68 62.19 68.17 61.11 67.67 60.03 C 65.08 61.46 62.48 62.85 59.79 64.07 C 61.20 61.63 62.80 59.26 65.04 57.51 C 66.32 56.57 67.65 55.70 69.01 54.88 Z" />
<path fill="#6f797f" opacity="1.00" d=" M 91.86 58.74 C 93.99 57.32 96.16 55.94 98.19 54.37 C 100.49 54.92 102.83 55.35 105.17 55.75 C 103.84 56.66 102.54 57.59 101.22 58.51 C 101.13 59.17 100.96 60.50 100.87 61.17 C 98.97 61.51 97.04 61.78 95.11 61.65 C 93.82 60.94 92.83 59.82 91.86 58.74 Z" />
<path fill="#cae2a2" opacity="1.00" d=" M 27.69 61.76 C 29.52 58.89 31.56 56.02 34.47 54.13 C 35.35 56.27 33.78 58.21 33.02 60.10 C 31.69 62.22 29.97 64.07 28.06 65.68 C 27.97 64.70 27.79 62.74 27.69 61.76 Z" />
<path fill="#98c49b" opacity="1.00" d=" M 33.05 63.55 C 35.28 60.68 37.18 57.58 39.03 54.45 L 39.68 55.85 C 39.20 58.96 37.50 62.43 39.80 65.26 C 38.98 69.78 35.11 72.37 32.05 75.35 C 29.87 77.69 27.98 80.27 25.99 82.77 C 24.37 80.26 22.50 77.77 21.75 74.84 C 22.83 70.15 25.17 65.83 27.69 61.76 C 27.79 62.74 27.97 64.70 28.06 65.68 C 29.97 64.07 31.69 62.22 33.02 60.10 C 33.03 60.96 33.04 62.69 33.05 63.55 Z" />
<path fill="#b1b1b0" opacity="1.00" d=" M 102.68 63.47 C 105.47 62.71 108.27 61.98 111.00 61.03 L 111.00 68.60 C 107.04 69.86 104.45 66.42 102.68 63.47 Z" />
<path fill="#293454" opacity="1.00" d=" M 72.67 73.29 C 78.54 70.28 83.71 66.13 88.62 61.78 C 90.84 62.90 93.06 64.05 95.38 64.95 C 94.27 65.53 93.16 66.10 92.07 66.71 C 87.23 69.33 85.98 75.49 81.40 78.49 C 79.06 80.74 75.68 79.60 72.85 79.31 C 74.96 79.20 77.06 79.00 79.16 78.78 C 78.55 75.54 75.46 74.23 72.67 73.29 Z" />
<path fill="#506584" opacity="1.00" d=" M 39.80 65.26 C 40.04 65.62 40.31 65.96 40.59 66.30 C 40.07 67.82 39.58 69.34 39.08 70.87 C 50.36 70.04 61.46 72.66 72.67 73.29 C 75.46 74.23 78.55 75.54 79.16 78.78 C 77.06 79.00 74.96 79.20 72.85 79.31 C 64.66 78.33 56.38 75.89 48.12 77.38 C 46.94 77.28 45.33 77.63 44.59 76.46 C 44.35 74.99 44.37 73.50 44.31 72.01 C 41.84 71.93 39.38 71.86 36.91 71.79 C 37.16 72.35 37.65 73.49 37.90 74.05 C 35.96 74.54 34.01 74.98 32.05 75.35 C 35.11 72.37 38.98 69.78 39.80 65.26 Z" />
<path fill="#222a4a" opacity="1.00" d=" M 95.38 64.95 C 96.77 65.16 98.17 65.31 99.57 65.48 C 102.44 69.11 105.97 72.78 111.00 72.62 L 111.00 74.72 C 105.85 80.12 100.11 84.95 94.61 89.99 C 95.92 87.57 96.95 85.02 97.99 82.48 C 97.24 82.35 95.74 82.09 94.99 81.95 C 95.66 80.95 96.33 79.94 96.98 78.92 C 96.85 79.47 96.59 80.58 96.46 81.13 C 99.39 79.26 102.21 77.23 105.00 75.18 C 103.54 75.23 102.10 75.34 100.65 75.40 C 100.86 73.04 101.05 70.68 101.12 68.32 C 99.06 69.92 98.56 72.43 98.25 74.86 C 96.39 75.29 94.53 75.70 92.69 76.21 C 94.61 73.58 96.29 70.78 97.42 67.71 C 95.74 68.41 94.05 69.10 92.45 69.97 C 92.35 69.16 92.16 67.53 92.07 66.71 C 93.16 66.10 94.27 65.53 95.38 64.95 Z" />
<path fill="#000000" opacity="1.00" d=" M 81.40 78.49 C 85.98 75.49 87.23 69.33 92.07 66.71 C 92.16 67.53 92.35 69.16 92.45 69.97 C 89.64 75.38 85.75 80.59 80.02 83.10 C 76.08 83.46 72.19 82.27 68.28 81.91 C 63.49 81.04 58.65 80.48 53.81 79.95 L 53.14 79.81 C 51.42 79.09 49.76 78.24 48.12 77.38 C 56.38 75.89 64.66 78.33 72.85 79.31 C 75.68 79.60 79.06 80.74 81.40 78.49 Z" />
<path fill="#495d81" opacity="1.00" d=" M 92.45 69.97 C 94.05 69.10 95.74 68.41 97.42 67.71 C 96.29 70.78 94.61 73.58 92.69 76.21 C 91.52 76.85 90.40 77.59 89.28 78.32 C 92.19 78.15 95.09 77.75 97.96 77.19 C 97.71 77.62 97.23 78.49 96.98 78.92 C 96.33 79.94 95.66 80.95 94.99 81.95 C 95.74 82.09 97.24 82.35 97.99 82.48 C 96.95 85.02 95.92 87.57 94.61 89.99 C 90.71 96.20 91.54 103.97 91.21 111.00 L 75.16 111.00 C 77.47 107.79 80.03 104.77 82.62 101.78 C 81.87 101.21 81.12 100.64 80.37 100.06 C 81.85 98.74 83.35 97.44 84.90 96.19 C 87.94 94.52 89.06 91.44 89.04 88.10 C 89.95 87.10 90.88 86.10 91.81 85.11 C 88.52 86.70 85.23 88.28 81.98 89.95 C 81.86 88.73 81.72 87.52 81.56 86.30 C 81.15 86.22 80.34 86.05 79.94 85.97 C 75.10 85.06 70.20 84.27 65.26 84.59 C 64.76 83.85 64.26 83.12 63.77 82.39 C 65.27 82.24 66.78 82.05 68.28 81.91 C 72.19 82.27 76.08 83.46 80.02 83.10 C 85.75 80.59 89.64 75.38 92.45 69.97 M 84.12 85.73 C 88.30 85.90 93.33 82.72 93.75 78.35 C 89.63 78.98 83.98 80.53 84.12 85.73 Z" />
<path fill="#0a0c14" opacity="1.00" d=" M 98.25 74.86 C 98.56 72.43 99.06 69.92 101.12 68.32 C 101.05 70.68 100.86 73.04 100.65 75.40 C 102.10 75.34 103.54 75.23 105.00 75.18 C 102.21 77.23 99.39 79.26 96.46 81.13 C 96.59 80.58 96.85 79.47 96.98 78.92 C 97.23 78.49 97.71 77.62 97.96 77.19 C 95.09 77.75 92.19 78.15 89.28 78.32 C 90.40 77.59 91.52 76.85 92.69 76.21 C 94.53 75.70 96.39 75.29 98.25 74.86 Z" />
<path fill="#707a80" opacity="1.00" d=" M 13.72 71.22 C 14.47 71.09 15.98 70.84 16.73 70.71 C 13.54 82.00 8.47 93.10 0.00 101.42 L 0.00 95.54 C 7.60 89.51 10.58 80.00 13.72 71.22 Z" />
<path fill="#333f62" opacity="1.00" d=" M 36.91 71.79 C 39.38 71.86 41.84 71.93 44.31 72.01 C 44.37 73.50 44.35 74.99 44.59 76.46 C 45.33 77.63 46.94 77.28 48.12 77.38 C 49.76 78.24 51.42 79.09 53.14 79.81 L 52.51 79.70 C 51.48 79.55 49.42 79.25 48.38 79.10 C 48.57 81.33 48.73 83.56 48.94 85.79 L 48.98 86.18 C 48.58 84.45 48.04 82.75 47.37 81.11 C 46.27 80.53 45.13 80.02 44.00 79.49 C 44.30 79.01 44.90 78.06 45.20 77.58 C 43.62 78.29 42.04 79.00 40.51 79.79 C 40.94 77.38 39.77 75.46 37.90 74.05 C 37.65 73.49 37.16 72.35 36.91 71.79 Z" />
<path fill="#67838e" opacity="1.00" d=" M 32.05 75.35 C 34.01 74.98 35.96 74.54 37.90 74.05 C 39.77 75.46 40.94 77.38 40.51 79.79 C 37.39 81.40 34.30 83.31 32.28 86.27 C 31.59 87.15 30.92 88.05 30.27 88.97 C 28.94 86.84 27.42 84.84 25.99 82.77 C 27.98 80.27 29.87 77.69 32.05 75.35 Z" />
<path fill="#000000" opacity="1.00" d=" M 94.61 89.99 C 100.11 84.95 105.85 80.12 111.00 74.72 L 111.00 79.85 C 106.79 84.03 101.96 87.59 98.10 92.12 C 96.25 94.29 96.05 97.28 95.42 99.94 C 94.85 103.59 93.31 107.68 95.72 111.00 L 91.21 111.00 C 91.54 103.97 90.71 96.20 94.61 89.99 Z" />
<path fill="#6c767d" opacity="1.00" d=" M 19.58 78.34 C 20.47 80.11 21.48 81.83 22.53 83.52 C 20.97 83.55 19.40 83.67 17.84 83.72 C 18.39 81.92 19.00 80.13 19.58 78.34 Z" />
<path fill="#1f1d19" opacity="1.00" d=" M 40.51 79.79 C 42.04 79.00 43.62 78.29 45.20 77.58 C 44.90 78.06 44.30 79.01 44.00 79.49 C 42.12 82.46 40.19 85.39 38.22 88.30 C 37.56 90.12 37.39 92.06 37.21 93.97 C 38.08 95.03 38.95 96.09 39.75 97.20 C 40.00 98.78 40.16 100.37 40.30 101.96 C 40.35 102.43 40.43 103.36 40.48 103.83 C 39.68 106.19 38.98 108.59 38.35 111.00 L 36.33 111.00 C 36.94 109.42 37.48 107.82 38.07 106.24 C 38.29 105.65 38.73 104.48 38.95 103.89 C 38.52 103.50 37.65 102.71 37.22 102.32 C 37.57 101.50 38.28 99.85 38.63 99.02 C 37.17 96.55 34.85 94.12 35.42 91.00 C 36.00 87.87 38.28 85.42 39.92 82.79 C 37.45 84.12 34.94 85.39 32.28 86.27 C 34.30 83.31 37.39 81.40 40.51 79.79 Z" />
<path fill="#769891" opacity="1.00" d=" M 84.12 85.73 C 83.98 80.53 89.63 78.98 93.75 78.35 C 93.33 82.72 88.30 85.90 84.12 85.73 Z" />
<path fill="#9bc69c" opacity="1.00" d=" M 38.22 88.30 C 40.19 85.39 42.12 82.46 44.00 79.49 C 45.13 80.02 46.27 80.53 47.37 81.11 C 46.22 84.95 47.09 88.87 48.47 92.51 C 47.25 92.37 46.04 92.28 44.82 92.24 C 43.15 92.25 41.48 92.33 39.81 92.42 C 40.55 91.09 41.28 89.76 42.02 88.42 C 40.75 88.38 39.49 88.34 38.22 88.30 Z" />
<path fill="#c0dba2" opacity="1.00" d=" M 48.38 79.10 C 49.42 79.25 51.48 79.55 52.51 79.70 C 51.54 81.85 50.37 83.91 48.94 85.79 C 48.73 83.56 48.57 81.33 48.38 79.10 Z" />
<path fill="#98c49b" opacity="1.00" d=" M 52.51 79.70 L 53.14 79.81 L 53.81 79.95 C 54.16 80.44 54.84 81.42 55.18 81.90 C 57.63 82.65 59.90 83.84 61.67 85.73 C 60.78 87.28 59.92 88.86 59.03 90.41 C 55.88 90.52 52.76 90.97 49.67 91.59 C 49.44 89.78 49.22 87.98 48.98 86.18 L 48.94 85.79 C 50.37 83.91 51.54 81.85 52.51 79.70 Z" />
<path fill="#4e6387" opacity="1.00" d=" M 53.81 79.95 C 58.65 80.48 63.49 81.04 68.28 81.91 C 66.78 82.05 65.27 82.24 63.77 82.39 C 63.24 82.43 62.20 82.53 61.67 82.58 C 63.63 85.90 65.85 89.10 67.35 92.67 C 68.41 94.85 67.16 97.12 66.56 99.23 C 67.03 100.11 67.51 100.98 67.98 101.86 C 67.48 102.56 66.99 103.26 66.50 103.96 C 66.60 106.84 65.30 109.34 62.97 111.00 L 59.05 111.00 C 60.52 108.49 61.81 105.83 62.42 102.97 C 61.40 102.20 60.30 101.51 59.09 101.08 C 55.99 99.63 52.60 100.38 49.36 100.69 C 49.20 100.39 48.89 99.78 48.73 99.48 C 53.17 99.34 57.66 98.07 60.54 94.47 C 60.34 93.93 59.93 92.86 59.73 92.32 C 59.55 91.85 59.20 90.89 59.03 90.41 C 59.92 88.86 60.78 87.28 61.67 85.73 C 59.90 83.84 57.63 82.65 55.18 81.90 C 54.84 81.42 54.16 80.44 53.81 79.95 Z" />
<path fill="#181010" opacity="1.00" d=" M 47.37 81.11 C 48.04 82.75 48.58 84.45 48.98 86.18 C 49.22 87.98 49.44 89.78 49.67 91.59 C 52.76 90.97 55.88 90.52 59.03 90.41 C 59.20 90.89 59.55 91.85 59.73 92.32 C 56.19 92.57 52.35 92.47 49.26 94.53 C 48.70 96.11 48.75 97.82 48.73 99.48 C 48.89 99.78 49.20 100.39 49.36 100.69 C 52.60 100.38 55.99 99.63 59.09 101.08 C 58.71 101.23 57.95 101.52 57.57 101.67 C 55.28 102.09 52.97 102.38 50.69 102.87 C 48.92 103.27 49.34 106.05 48.71 107.40 C 48.60 108.60 48.50 109.80 48.43 111.00 L 46.42 111.00 C 46.82 108.56 47.26 106.14 47.74 103.72 C 46.46 103.05 45.19 102.38 43.94 101.69 C 44.79 101.61 46.50 101.44 47.36 101.35 C 47.10 99.01 46.85 96.66 46.66 94.31 C 45.91 94.06 44.41 93.57 43.65 93.32 C 43.95 93.05 44.53 92.51 44.82 92.24 C 46.04 92.28 47.25 92.37 48.47 92.51 C 47.09 88.87 46.22 84.95 47.37 81.11 Z" />
<path fill="#000000" opacity="1.00" d=" M 61.67 82.58 C 62.20 82.53 63.24 82.43 63.77 82.39 C 64.26 83.12 64.76 83.85 65.26 84.59 C 67.09 87.49 69.05 90.50 69.61 93.94 C 69.55 96.69 68.15 99.29 68.80 102.08 C 68.56 104.10 68.32 106.11 68.12 108.14 C 67.11 109.11 66.11 110.07 65.07 111.00 L 62.97 111.00 C 65.30 109.34 66.60 106.84 66.50 103.96 C 66.99 103.26 67.48 102.56 67.98 101.86 C 67.51 100.98 67.03 100.11 66.56 99.23 C 67.16 97.12 68.41 94.85 67.35 92.67 C 65.85 89.10 63.63 85.90 61.67 82.58 Z" />
<path fill="#9cc99f" opacity="1.00" d=" M 32.28 86.27 C 34.94 85.39 37.45 84.12 39.92 82.79 C 38.28 85.42 36.00 87.87 35.42 91.00 C 34.85 94.12 37.17 96.55 38.63 99.02 C 38.28 99.85 37.57 101.50 37.22 102.32 C 37.65 102.71 38.52 103.50 38.95 103.89 C 38.73 104.48 38.29 105.65 38.07 106.24 C 37.70 105.94 36.98 105.35 36.62 105.05 C 36.82 99.42 34.46 93.18 29.56 90.03 L 30.27 88.97 C 30.92 88.05 31.59 87.15 32.28 86.27 Z" />
<path fill="#98c49b" opacity="1.00" d=" M 65.26 84.59 C 70.20 84.27 75.10 85.06 79.94 85.97 C 80.95 89.71 84.19 92.36 84.90 96.19 C 83.35 97.44 81.85 98.74 80.37 100.06 C 81.12 100.64 81.87 101.21 82.62 101.78 C 80.03 104.77 77.47 107.79 75.16 111.00 L 65.07 111.00 C 66.11 110.07 67.11 109.11 68.12 108.14 C 68.32 106.11 68.56 104.10 68.80 102.08 C 68.15 99.29 69.55 96.69 69.61 93.94 C 69.05 90.50 67.09 87.49 65.26 84.59 M 73.75 89.13 C 73.28 93.58 71.76 97.83 71.12 102.26 C 73.88 99.10 75.39 95.03 76.33 90.99 C 76.37 89.56 74.61 89.72 73.75 89.13 Z" />
<path fill="#7b9f94" opacity="1.00" d=" M 81.98 89.95 C 85.23 88.28 88.52 86.70 91.81 85.11 C 90.88 86.10 89.95 87.10 89.04 88.10 C 89.06 91.44 87.94 94.52 84.90 96.19 C 84.19 92.36 80.95 89.71 79.94 85.97 C 80.34 86.05 81.15 86.22 81.56 86.30 C 81.72 87.52 81.86 88.73 81.98 89.95 Z" />
<path fill="#44577f" opacity="1.00" d=" M 16.94 90.51 C 18.48 89.57 20.03 88.49 21.84 88.18 C 24.53 88.87 26.54 90.97 28.62 92.68 C 28.68 96.23 27.81 99.69 26.18 102.84 C 25.40 102.28 24.61 101.71 23.83 101.15 C 23.78 101.48 23.70 102.15 23.66 102.49 L 23.45 103.59 C 23.17 100.05 22.74 96.53 22.29 93.01 C 19.47 94.30 16.63 95.55 13.68 96.54 C 16.27 94.87 18.92 93.29 21.66 91.87 C 20.10 91.39 18.52 90.93 16.94 90.51 Z" />
<path fill="#828581" opacity="1.00" d=" M 37.21 93.97 C 37.39 92.06 37.56 90.12 38.22 88.30 C 39.49 88.34 40.75 88.38 42.02 88.42 C 41.28 89.76 40.55 91.09 39.81 92.42 C 41.48 92.33 43.15 92.25 44.82 92.24 C 44.53 92.51 43.95 93.05 43.65 93.32 C 42.34 94.60 41.05 95.91 39.75 97.20 C 38.95 96.09 38.08 95.03 37.21 93.97 Z" />
<path fill="#a09b83" opacity="1.00" d=" M 73.75 89.13 C 74.61 89.72 76.37 89.56 76.33 90.99 C 75.39 95.03 73.88 99.10 71.12 102.26 C 71.76 97.83 73.28 93.58 73.75 89.13 Z" />
<path fill="#98c49b" opacity="1.00" d=" M 10.76 96.49 C 12.18 93.96 14.62 92.17 16.94 90.51 C 18.52 90.93 20.10 91.39 21.66 91.87 C 18.92 93.29 16.27 94.87 13.68 96.54 C 16.63 95.55 19.47 94.30 22.29 93.01 C 22.74 96.53 23.17 100.05 23.45 103.59 C 23.29 104.15 22.97 105.27 22.82 105.83 C 19.59 107.98 15.89 109.28 12.44 111.00 L 11.57 111.00 C 10.57 109.09 9.40 107.22 8.90 105.11 C 9.24 102.19 9.85 99.28 10.76 96.49 Z" />
<path fill="#9dc99d" opacity="1.00" d=" M 49.26 94.53 C 52.35 92.47 56.19 92.57 59.73 92.32 C 59.93 92.86 60.34 93.93 60.54 94.47 C 57.66 98.07 53.17 99.34 48.73 99.48 C 48.75 97.82 48.70 96.11 49.26 94.53 Z" />
<path fill="#313c61" opacity="1.00" d=" M 28.62 92.68 C 32.25 95.50 33.10 100.22 34.68 104.28 C 33.20 106.36 31.62 108.37 30.00 110.35 C 28.59 110.51 27.19 110.68 25.78 110.86 C 25.14 108.05 24.33 105.29 23.66 102.49 C 23.70 102.15 23.78 101.48 23.83 101.15 C 24.61 101.71 25.40 102.28 26.18 102.84 C 27.81 99.69 28.68 96.23 28.62 92.68 Z" />
<path fill="#9bc89d" opacity="1.00" d=" M 39.75 97.20 C 41.05 95.91 42.34 94.60 43.65 93.32 C 44.41 93.57 45.91 94.06 46.66 94.31 C 46.85 96.66 47.10 99.01 47.36 101.35 C 46.50 101.44 44.79 101.61 43.94 101.69 C 42.73 101.85 41.52 101.91 40.30 101.96 C 40.16 100.37 40.00 98.78 39.75 97.20 Z" />
<path fill="#98c49b" opacity="1.00" d=" M 59.09 101.08 C 60.30 101.51 61.40 102.20 62.42 102.97 C 61.81 105.83 60.52 108.49 59.05 111.00 L 48.43 111.00 C 48.50 109.80 48.60 108.60 48.71 107.40 C 50.52 106.28 52.32 105.13 54.10 103.95 C 54.78 103.88 55.45 103.80 56.13 103.70 C 56.49 103.19 57.21 102.17 57.57 101.67 C 57.95 101.52 58.71 101.23 59.09 101.08 Z" />
<path fill="#98c39a" opacity="1.00" d=" M 40.30 101.96 C 41.52 101.91 42.73 101.85 43.94 101.69 C 45.19 102.38 46.46 103.05 47.74 103.72 C 47.26 106.14 46.82 108.56 46.42 111.00 L 38.35 111.00 C 38.98 108.59 39.68 106.19 40.48 103.83 C 40.43 103.36 40.35 102.43 40.30 101.96 Z" />
<path fill="#cae6a9" opacity="1.00" d=" M 50.69 102.87 C 52.97 102.38 55.28 102.09 57.57 101.67 C 57.21 102.17 56.49 103.19 56.13 103.70 C 55.45 103.80 54.78 103.88 54.10 103.95 C 53.25 103.68 51.54 103.14 50.69 102.87 Z" />
<path fill="#4f6687" opacity="1.00" d=" M 23.45 103.59 L 23.66 102.49 C 24.33 105.29 25.14 108.05 25.78 110.86 L 24.69 111.00 L 12.44 111.00 C 15.89 109.28 19.59 107.98 22.82 105.83 C 22.97 105.27 23.29 104.15 23.45 103.59 Z" />
<path fill="#989980" opacity="1.00" d=" M 48.71 107.40 C 49.34 106.05 48.92 103.27 50.69 102.87 C 51.54 103.14 53.25 103.68 54.10 103.95 C 52.32 105.13 50.52 106.28 48.71 107.40 Z" />
<path fill="#848c88" opacity="1.00" d=" M 0.00 104.96 C 0.53 104.79 1.60 104.45 2.13 104.28 C 2.80 105.46 3.47 106.63 4.16 107.80 C 3.66 107.51 2.66 106.93 2.15 106.64 C 1.42 107.73 0.71 108.83 0.00 109.94 L 0.00 104.96 Z" />
<path fill="#394a5e" opacity="1.00" d=" M 36.62 105.05 C 36.98 105.35 37.70 105.94 38.07 106.24 C 37.48 107.82 36.94 109.42 36.33 111.00 L 33.84 111.00 C 34.86 109.06 35.77 107.07 36.62 105.05 Z" />
<path fill="#f6f6ca" opacity="1.00" d=" M 2.15 106.64 C 2.66 106.93 3.66 107.51 4.16 107.80 C 4.81 108.88 5.46 109.96 6.16 111.00 L 0.00 111.00 L 0.00 109.94 C 0.71 108.83 1.42 107.73 2.15 106.64 Z" />
</svg>
