<?xml version="1.0" encoding="UTF-8" ?>
<!DOCTYPE svg PUBLIC "-//W3C//DTD SVG 1.1//EN" "http://www.w3.org/Graphics/SVG/1.1/DTD/svg11.dtd">
<svg width="111pt" height="111pt" viewBox="0 0 111 111" version="1.1" xmlns="http://www.w3.org/2000/svg">
<path fill="#010101" opacity="1.00" d=" M 45.25 0.00 L 48.61 0.00 C 46.05 2.68 43.65 5.51 41.39 8.45 C 38.20 12.48 36.39 17.39 33.12 21.37 C 32.68 19.19 32.27 17.00 31.83 14.82 C 30.36 19.68 30.23 24.80 31.18 29.77 C 31.19 31.66 31.13 33.56 31.09 35.46 C 29.92 32.54 28.45 29.70 26.06 27.59 C 27.02 32.21 28.63 36.65 29.87 41.19 C 31.52 41.45 33.16 41.70 34.81 41.96 C 35.48 43.37 36.16 44.79 36.83 46.22 C 35.85 43.21 35.05 40.14 34.45 37.04 C 36.82 40.21 38.96 43.60 41.93 46.27 C 40.78 41.61 37.90 37.63 36.79 32.95 C 38.32 34.87 39.28 37.54 41.57 38.65 C 44.07 39.95 45.03 36.28 46.40 34.89 C 44.69 32.84 42.96 30.82 41.16 28.85 C 41.30 27.70 41.43 26.55 41.54 25.39 C 43.92 29.22 47.10 32.45 49.76 36.08 C 49.28 34.06 48.87 32.02 48.55 29.96 C 50.34 31.93 51.52 34.31 52.69 36.66 C 52.19 38.36 51.72 40.06 51.24 41.76 C 51.05 41.49 50.66 40.95 50.47 40.68 L 50.40 40.59 C 49.29 38.97 48.18 37.36 47.03 35.76 C 46.15 37.48 45.22 39.19 44.58 41.02 C 45.45 42.68 47.09 43.73 48.38 45.03 L 48.37 46.34 C 45.65 44.93 43.40 42.83 41.69 40.31 C 41.66 40.55 41.60 41.02 41.58 41.26 C 42.18 41.92 42.79 42.59 43.40 43.26 C 43.43 43.76 43.48 44.75 43.51 45.25 C 44.85 46.55 46.24 47.78 47.58 49.09 C 45.72 50.95 43.01 49.71 40.73 49.61 C 40.53 48.80 40.13 47.18 39.94 46.38 C 38.59 47.62 37.56 49.13 36.71 50.75 C 40.07 50.68 43.59 50.12 46.65 51.91 C 47.43 51.04 48.24 50.17 48.91 49.21 C 51.01 48.74 53.24 48.42 54.85 46.86 C 55.37 47.07 56.41 47.48 56.93 47.69 C 58.23 46.76 59.54 45.84 60.84 44.91 C 59.30 44.33 57.75 43.76 56.24 43.10 L 55.62 42.33 C 56.42 41.19 57.21 40.05 58.01 38.91 C 58.78 40.27 59.55 41.63 60.32 43.00 C 63.15 39.60 65.72 35.98 68.83 32.82 C 68.13 32.48 66.74 31.82 66.05 31.48 C 67.70 27.98 69.33 24.46 70.87 20.90 C 68.44 22.28 66.00 23.66 63.55 25.01 C 63.34 24.24 62.90 22.70 62.69 21.92 C 65.56 18.38 66.75 13.90 67.55 9.51 C 64.99 11.05 63.00 13.62 60.20 14.66 C 60.09 13.98 59.85 12.62 59.73 11.94 C 60.80 8.61 61.96 5.30 62.96 1.94 C 56.82 7.49 52.53 14.74 46.37 20.24 C 46.34 13.40 48.34 6.80 48.73 0.00 L 51.79 0.00 C 51.04 3.40 50.59 6.85 50.36 10.33 C 51.08 9.64 51.82 8.97 52.50 8.25 C 54.92 5.38 57.26 2.41 60.15 0.00 L 67.12 0.00 C 65.86 3.39 64.66 6.81 63.39 10.20 C 64.85 8.83 66.27 7.43 67.71 6.04 C 69.69 11.12 66.79 16.29 66.12 21.36 C 66.81 20.78 67.50 20.20 68.19 19.61 C 69.85 18.12 71.68 16.83 73.60 15.70 C 73.84 21.18 71.65 26.30 68.67 30.77 C 69.81 30.76 72.09 30.74 73.23 30.73 C 69.86 35.17 65.32 38.72 62.97 43.89 C 66.56 42.39 69.72 40.11 73.07 38.18 C 76.70 37.74 80.26 41.08 83.74 38.93 C 92.78 34.75 101.90 30.73 111.00 26.69 L 111.00 28.33 C 104.36 35.70 97.30 42.78 88.94 48.20 C 95.66 53.06 103.61 55.71 111.00 59.32 L 111.00 62.46 C 109.30 61.82 107.57 61.28 105.83 60.74 C 106.93 63.38 108.70 65.61 111.00 67.30 L 111.00 70.16 C 110.65 70.32 109.95 70.66 109.60 70.82 L 109.67 71.79 C 110.00 72.05 110.67 72.57 111.00 72.82 L 111.00 77.79 C 110.11 75.91 109.15 74.07 108.22 72.22 C 108.17 77.48 110.57 82.28 111.00 87.45 L 111.00 100.31 C 108.34 100.84 108.45 104.53 111.00 105.16 L 111.00 109.07 C 109.43 107.65 108.81 110.48 110.34 111.00 L 102.50 111.00 C 102.58 109.47 103.06 107.89 102.64 106.38 C 101.56 105.32 100.24 104.55 98.99 103.72 C 99.47 106.17 100.02 108.61 100.77 111.00 L 98.35 111.00 C 97.58 108.29 97.34 105.39 96.10 102.84 C 94.14 100.78 91.71 99.21 89.31 97.70 C 85.80 95.22 82.18 99.33 78.47 99.56 C 78.39 96.79 79.88 94.37 81.19 92.05 C 84.05 87.29 85.15 81.76 87.45 76.74 C 84.56 76.04 81.42 75.91 78.77 74.48 C 78.11 73.18 77.63 71.81 77.11 70.46 C 76.65 70.38 75.73 70.23 75.26 70.16 C 73.30 72.58 71.49 75.13 69.39 77.43 C 66.94 80.13 63.30 81.28 60.69 83.78 C 59.27 84.86 60.47 86.79 61.88 87.15 C 64.00 87.93 66.25 88.28 68.45 88.76 C 69.15 92.10 69.50 95.53 70.43 98.82 C 71.38 100.94 73.23 102.48 74.36 104.49 C 74.77 106.64 74.40 108.84 74.30 111.00 L 72.36 111.00 L 72.35 110.03 C 72.29 108.43 72.40 106.81 72.11 105.24 C 69.58 101.92 66.24 99.30 62.89 96.85 C 62.31 97.76 61.75 98.68 61.20 99.61 C 57.98 103.10 59.39 107.81 62.24 111.00 L 48.52 111.00 C 51.29 109.41 54.15 107.98 57.08 106.70 C 53.17 106.31 48.79 107.02 46.77 110.84 C 46.19 109.95 45.62 109.07 45.05 108.19 C 43.67 109.14 42.29 110.10 40.88 111.00 L 31.25 111.00 C 35.61 106.71 39.10 101.67 42.95 96.95 C 42.82 92.87 42.17 88.78 40.43 85.06 C 40.00 85.46 39.59 85.89 39.20 86.33 C 35.96 92.18 31.90 97.55 29.02 103.61 L 28.45 104.69 C 28.66 106.81 29.02 108.90 29.38 111.00 L 23.26 111.00 C 24.39 110.22 25.50 109.40 26.62 108.59 C 26.56 107.07 26.51 105.56 26.47 104.05 C 27.39 102.32 28.27 100.58 29.12 98.83 C 23.86 101.02 21.79 106.56 18.90 111.00 L 16.17 111.00 C 18.90 106.65 20.96 101.60 25.16 98.40 C 27.93 96.83 30.56 94.97 32.37 92.30 C 31.07 91.13 29.76 89.95 28.52 88.71 L 28.36 87.30 C 29.58 87.82 30.80 88.33 32.04 88.83 L 33.02 89.19 C 35.60 86.75 37.88 83.95 39.30 80.66 C 37.08 81.72 35.05 83.22 33.82 85.40 C 33.59 84.83 33.11 83.70 32.88 83.14 C 33.88 82.04 34.94 81.01 36.00 79.96 C 34.98 79.44 33.97 78.92 32.96 78.40 C 31.35 79.63 29.72 80.86 28.07 82.03 C 27.75 82.26 27.13 82.70 26.82 82.92 C 27.27 84.38 27.73 85.83 28.18 87.29 L 27.12 87.54 C 25.82 85.42 24.64 83.23 23.39 81.08 C 23.02 81.77 22.29 83.14 21.92 83.83 C 21.76 84.13 21.44 84.73 21.28 85.03 C 19.92 87.50 18.54 89.95 17.21 92.44 C 13.61 98.00 11.67 104.47 10.85 111.00 L 9.06 111.00 C 8.24 109.74 7.48 108.44 6.71 107.14 C 7.57 103.99 8.32 100.80 8.92 97.59 C 5.74 99.88 2.64 102.34 0.00 105.25 L 0.00 101.38 C 3.57 97.66 7.98 94.76 11.00 90.51 C 7.07 92.10 3.41 94.27 0.00 96.78 L 0.00 93.44 C 3.63 90.48 8.10 88.69 11.56 85.53 C 13.57 82.12 13.99 78.07 14.79 74.27 L 16.38 74.28 C 16.49 77.26 16.39 80.34 17.43 83.18 C 17.41 81.94 17.28 80.71 17.32 79.48 C 17.94 80.14 18.53 80.83 19.12 81.51 C 22.06 79.21 25.30 77.34 28.61 75.62 C 28.67 75.12 28.79 74.11 28.85 73.60 C 28.20 73.27 26.89 72.60 26.23 72.26 C 26.80 71.70 27.95 70.56 28.53 69.99 C 26.69 67.98 24.88 65.95 23.06 63.93 C 25.02 61.16 27.58 58.93 29.83 56.42 C 26.11 51.85 21.49 47.88 19.09 42.36 C 23.99 44.32 28.74 46.64 33.58 48.76 C 33.44 47.44 33.31 46.12 33.18 44.80 C 31.35 44.41 29.52 44.00 27.69 43.58 C 26.31 35.27 23.04 27.52 20.07 19.70 C 23.34 21.73 26.03 24.49 28.57 27.35 C 28.11 20.42 28.23 13.32 31.08 6.84 C 33.83 7.77 33.41 11.00 33.96 13.30 C 34.23 13.39 34.76 13.57 35.02 13.66 C 37.73 8.63 41.24 4.06 45.25 0.00 M 89.12 38.14 L 88.88 38.56 C 86.17 39.50 83.66 40.88 81.35 42.55 C 79.17 43.94 78.90 47.01 77.95 49.25 C 82.92 49.57 87.30 47.03 90.81 43.75 C 95.04 40.06 99.38 36.47 103.24 32.38 C 98.53 34.29 93.68 35.89 89.12 38.14 M 72.39 41.44 C 69.59 46.35 69.72 52.19 69.56 57.66 C 75.99 59.19 82.65 57.78 89.05 56.79 C 88.41 54.51 87.60 52.29 86.67 50.11 C 83.13 51.07 79.47 52.14 75.79 51.24 C 76.44 48.08 77.46 45.02 78.25 41.89 C 76.39 41.13 74.34 40.90 72.39 41.44 M 60.82 56.40 C 64.45 53.07 64.87 47.67 67.10 43.44 C 62.91 46.13 60.62 51.52 60.82 56.40 M 26.04 48.15 C 27.61 49.71 29.21 51.35 31.42 51.97 C 31.47 52.66 31.56 54.03 31.61 54.72 C 32.27 53.55 33.43 53.23 34.71 53.20 C 34.69 53.14 34.63 53.00 34.60 52.93 C 34.12 52.77 33.15 52.43 32.66 52.26 C 31.03 50.07 28.53 49.06 26.04 48.15 M 64.54 58.28 C 65.92 58.22 67.31 58.15 68.70 58.08 C 68.32 54.65 68.37 51.21 68.38 47.77 C 65.72 50.65 65.03 54.54 64.54 58.28 M 54.98 52.38 C 54.08 53.55 53.13 54.68 52.15 55.80 C 52.57 55.49 53.39 54.88 53.80 54.57 C 55.39 54.45 56.79 53.90 57.24 52.22 C 56.68 52.26 55.55 52.34 54.98 52.38 M 34.20 60.78 C 32.02 61.42 31.17 64.58 30.04 66.46 C 32.55 65.75 35.06 65.06 37.59 64.45 C 37.59 63.56 37.59 62.67 37.59 61.78 C 39.60 58.45 43.10 56.42 45.13 53.14 C 40.41 53.36 37.68 58.14 34.20 60.78 M 44.90 57.34 L 41.16 59.27 L 43.40 60.17 L 43.37 60.30 C 42.63 60.42 41.89 60.39 41.15 60.21 C 40.97 60.75 40.60 61.83 40.41 62.36 L 41.21 62.63 C 40.99 63.36 40.56 64.83 40.35 65.56 C 39.86 65.59 38.89 65.64 38.40 65.67 C 38.69 66.96 39.19 68.15 39.90 69.26 C 39.93 68.47 39.98 66.89 40.00 66.10 L 42.36 67.19 C 41.67 67.91 40.98 68.64 40.30 69.37 C 40.82 71.29 41.36 73.21 41.87 75.14 C 46.25 71.25 50.53 67.12 53.68 62.13 C 52.90 61.02 52.12 59.91 51.31 58.82 C 50.00 56.95 48.96 53.57 45.92 54.49 C 45.45 55.39 44.95 56.30 44.90 57.34 M 53.07 57.73 C 53.55 58.70 54.02 59.69 54.56 60.63 C 55.99 60.86 56.61 59.18 57.59 58.44 C 57.62 57.35 57.65 56.25 57.69 55.16 C 56.15 56.02 54.61 56.88 53.07 57.73 M 95.25 58.25 C 95.33 60.84 97.09 62.98 98.23 65.20 C 98.61 62.58 98.98 59.95 99.39 57.33 C 98.00 57.61 96.61 57.84 95.25 58.25 M 26.87 64.66 C 27.40 64.66 28.46 64.64 28.99 64.64 C 30.77 61.56 33.61 59.34 35.87 56.66 C 32.40 58.49 28.01 60.52 26.87 64.66 M 58.51 60.76 C 57.52 61.05 56.52 61.34 55.53 61.63 C 55.54 62.09 55.57 63.01 55.58 63.47 C 56.13 64.01 56.67 64.54 57.22 65.09 C 57.35 63.56 58.24 62.32 59.16 61.19 L 59.73 63.97 C 61.00 62.16 61.45 60.04 61.46 57.85 C 60.12 58.39 58.66 59.10 58.51 60.76 M 101.83 58.52 C 101.57 60.62 101.32 62.73 101.07 64.83 C 101.88 64.83 103.48 64.84 104.29 64.85 C 104.09 62.50 105.50 58.43 101.83 58.52 M 67.09 60.51 C 67.48 61.71 68.06 62.80 68.82 63.79 C 70.74 62.82 72.51 61.57 74.28 60.36 C 71.88 60.36 69.48 60.40 67.09 60.51 M 87.02 61.93 C 84.57 63.44 81.16 65.27 82.52 68.77 C 81.85 68.66 80.51 68.43 79.84 68.32 L 80.60 68.89 C 80.59 70.32 80.57 71.75 80.55 73.18 C 83.72 73.66 86.84 74.50 90.05 74.70 C 87.32 72.85 84.12 71.79 81.60 69.62 C 82.27 69.60 83.62 69.56 84.29 69.54 C 85.94 71.09 88.29 71.66 90.26 72.70 C 91.85 71.02 93.43 69.33 94.83 67.48 C 96.39 65.06 94.15 62.31 93.01 60.16 C 90.87 60.07 88.81 60.79 87.02 61.93 M 63.29 60.21 C 63.23 63.78 65.44 66.76 67.79 69.21 C 68.96 70.72 70.84 70.29 72.12 69.19 C 70.40 68.14 68.52 67.31 66.98 66.00 C 65.76 64.07 65.70 61.17 63.29 60.21 M 76.98 62.81 C 77.73 63.26 79.24 64.14 79.99 64.59 C 81.23 63.20 82.47 61.81 83.67 60.40 C 81.32 60.84 79.03 61.56 76.98 62.81 M 60.56 71.91 C 62.34 71.77 64.11 71.62 65.89 71.46 C 64.86 68.90 63.64 66.41 62.31 63.99 C 58.35 64.87 60.67 69.13 60.56 71.91 M 76.40 68.34 C 76.99 68.39 78.16 68.48 78.75 68.53 C 78.97 66.58 78.48 64.88 76.62 63.98 C 76.53 65.43 76.46 66.89 76.40 68.34 M 73.06 65.20 C 71.53 68.19 76.40 65.31 73.06 65.20 M 100.25 67.78 C 101.89 73.26 103.71 78.82 103.46 84.62 C 104.72 85.56 106.14 86.26 107.52 87.02 C 107.89 80.00 105.24 73.33 104.43 66.42 C 103.04 66.88 101.65 67.33 100.25 67.78 M 30.65 69.87 C 33.14 69.14 37.74 70.28 38.26 66.92 C 35.51 67.23 32.65 67.78 30.65 69.87 M 50.84 73.34 C 53.39 73.24 55.90 72.81 58.37 72.21 C 58.40 70.38 58.44 68.55 58.45 66.72 C 55.22 68.01 53.26 71.02 50.84 73.34 M 96.52 69.46 C 93.79 71.84 91.81 74.91 89.77 77.87 C 87.71 80.53 86.86 83.84 86.30 87.09 C 89.27 85.59 91.09 82.82 92.86 80.13 C 93.09 80.15 93.54 80.20 93.77 80.22 C 93.99 81.00 94.42 82.55 94.64 83.33 C 94.67 81.63 94.76 79.93 94.83 78.23 L 95.34 78.03 C 95.46 79.72 95.35 81.41 95.28 83.11 C 96.09 83.24 97.71 83.51 98.52 83.64 L 98.53 84.06 C 99.91 84.61 101.28 85.19 102.65 85.77 C 102.43 87.12 102.22 88.48 102.00 89.85 L 102.43 89.18 C 103.79 92.70 103.62 97.90 108.02 99.20 C 108.48 94.82 109.03 89.40 105.00 86.42 C 104.73 86.56 104.19 86.83 103.93 86.97 C 103.29 86.09 102.50 85.34 101.55 84.73 C 102.10 79.12 100.21 73.68 98.40 68.46 C 97.93 68.71 96.99 69.21 96.52 69.46 M 31.07 74.22 C 34.42 76.36 38.09 77.94 41.46 80.04 C 40.02 77.28 38.96 74.34 38.26 71.30 C 35.48 70.78 31.99 71.01 31.07 74.22 M 61.66 80.04 C 65.09 78.76 68.32 76.71 70.02 73.34 C 66.23 73.89 62.86 76.34 61.66 80.04 M 42.53 85.01 C 43.15 86.31 43.71 87.64 44.29 88.97 C 44.34 89.64 44.44 90.99 44.50 91.66 L 45.44 91.55 C 45.58 92.46 45.86 94.29 46.00 95.20 C 46.36 91.85 46.43 88.48 46.67 85.13 C 49.74 82.24 53.31 79.98 56.42 77.16 L 56.52 76.31 L 57.88 76.41 C 57.98 76.16 58.18 75.66 58.27 75.41 C 55.52 75.44 52.74 75.04 50.01 75.53 C 46.24 77.38 42.68 80.51 42.53 85.01 M 57.02 80.98 C 54.36 83.07 50.70 84.53 49.85 88.17 C 54.01 86.42 56.59 82.24 59.69 79.10 C 58.72 79.62 57.79 80.20 57.02 80.98 M 11.05 100.27 C 14.38 96.27 14.89 90.86 14.94 85.87 C 11.73 89.88 11.37 95.33 11.05 100.27 M 56.53 86.17 C 54.37 87.72 52.13 89.26 50.44 91.35 C 49.89 93.30 50.61 95.23 52.18 96.46 C 52.25 97.02 52.39 98.14 52.46 98.71 C 55.66 98.30 57.82 95.36 60.63 93.97 C 59.62 91.09 58.74 88.17 58.05 85.19 C 57.67 85.44 56.91 85.92 56.53 86.17 M 90.58 86.60 C 90.58 87.10 90.58 88.10 90.58 88.59 C 90.12 88.70 89.20 88.90 88.74 89.00 C 90.09 89.20 91.43 89.40 92.78 89.58 L 93.36 89.28 C 96.53 89.71 99.10 91.51 101.05 93.96 C 100.63 91.50 100.41 88.96 99.45 86.64 C 96.82 84.80 93.44 86.05 90.58 86.60 M 61.49 90.05 C 62.82 92.96 64.79 95.53 67.63 97.09 C 67.16 94.95 66.67 92.81 66.25 90.67 C 64.66 90.46 63.07 90.25 61.49 90.05 M 90.46 93.52 C 90.08 95.75 93.35 96.36 94.56 97.72 C 94.55 96.00 94.47 94.27 94.34 92.55 C 93.04 92.82 91.74 93.15 90.46 93.52 M 101.09 95.05 C 101.36 97.94 100.38 102.06 103.63 103.60 C 105.37 104.00 106.69 102.63 108.02 101.76 C 104.89 100.47 102.84 97.81 101.09 95.05 M 43.27 102.70 L 42.90 102.87 C 41.02 105.41 39.23 108.03 37.55 110.72 C 42.30 107.84 47.20 105.06 51.09 101.02 C 50.62 99.67 50.15 98.31 49.74 96.94 C 46.02 95.18 45.10 100.61 43.27 102.70 M 51.61 104.32 C 53.15 104.06 55.05 104.60 56.30 103.43 C 57.07 101.97 57.51 100.38 57.99 98.81 C 55.60 100.32 53.48 102.20 51.61 104.32 Z" />
<path fill="#4d4d50" opacity="1.00" d=" M 48.61 0.00 L 48.73 0.00 C 48.34 6.80 46.34 13.40 46.37 20.24 C 52.53 14.74 56.82 7.49 62.96 1.94 C 61.96 5.30 60.80 8.61 59.73 11.94 C 59.57 12.46 59.25 13.50 59.09 14.02 C 60.75 18.20 57.77 22.34 58.38 26.65 C 54.83 25.81 51.28 24.96 47.71 24.18 C 49.16 26.39 50.77 28.48 52.28 30.65 C 54.01 33.45 55.25 36.52 56.39 39.60 C 55.13 38.65 53.88 37.70 52.69 36.66 C 51.52 34.31 50.34 31.93 48.55 29.96 C 48.87 32.02 49.28 34.06 49.76 36.08 C 47.10 32.45 43.92 29.22 41.54 25.39 C 41.43 26.55 41.30 27.70 41.16 28.85 C 40.91 30.46 40.60 32.05 40.28 33.64 C 38.64 32.96 37.00 32.28 35.36 31.59 C 35.62 32.94 35.87 34.29 36.13 35.64 C 35.18 35.13 34.23 34.61 33.28 34.10 C 32.90 35.44 32.53 36.77 32.15 38.11 C 31.95 35.32 31.61 32.53 31.18 29.77 C 30.23 24.80 30.36 19.68 31.83 14.82 C 32.27 17.00 32.68 19.19 33.12 21.37 C 36.39 17.39 38.20 12.48 41.39 8.45 C 43.65 5.51 46.05 2.68 48.61 0.00 M 43.55 21.11 C 42.63 22.40 44.81 24.03 45.77 22.75 C 46.71 21.45 44.51 19.82 43.55 21.11 Z" />
<path fill="#000000" opacity="0.57" d=" M 51.79 0.00 L 52.76 0.00 C 52.05 2.70 51.90 5.51 52.50 8.25 C 51.82 8.97 51.08 9.64 50.36 10.33 C 50.59 6.85 51.04 3.40 51.79 0.00 Z" />
<path fill="#000000" opacity="0.57" d=" M 67.71 6.04 C 67.94 5.82 68.41 5.39 68.64 5.17 C 70.85 9.75 68.02 14.80 68.19 19.61 C 67.50 20.20 66.81 20.78 66.12 21.36 C 66.79 16.29 69.69 11.12 67.71 6.04 Z" />
<path fill="#2b2d36" opacity="1.00" d=" M 60.20 14.66 C 63.00 13.62 64.99 11.05 67.55 9.51 C 66.75 13.90 65.56 18.38 62.69 21.92 C 60.96 24.21 59.53 26.70 58.32 29.29 C 56.30 29.75 54.29 30.19 52.28 30.65 C 50.77 28.48 49.16 26.39 47.71 24.18 C 51.28 24.96 54.83 25.81 58.38 26.65 C 57.77 22.34 60.75 18.20 59.09 14.02 C 59.25 13.50 59.57 12.46 59.73 11.94 C 59.85 12.62 60.09 13.98 60.20 14.66 Z" />
<path fill="#6f6f71" opacity="1.00" d=" M 43.55 21.11 C 44.51 19.82 46.71 21.45 45.77 22.75 C 44.81 24.03 42.63 22.40 43.55 21.11 Z" />
<path fill="#1c1e27" opacity="1.00" d=" M 63.55 25.01 C 66.00 23.66 68.44 22.28 70.87 20.90 C 69.33 24.46 67.70 27.98 66.05 31.48 C 66.74 31.82 68.13 32.48 68.83 32.82 C 65.72 35.98 63.15 39.60 60.32 43.00 C 59.55 41.63 58.78 40.27 58.01 38.91 C 57.21 40.05 56.42 41.19 55.62 42.33 C 54.62 41.07 53.61 39.83 52.61 38.57 C 52.69 40.53 52.76 42.48 52.82 44.44 C 52.37 44.14 51.45 43.53 51.00 43.22 C 50.86 42.59 50.60 41.32 50.47 40.68 C 50.66 40.95 51.05 41.49 51.24 41.76 C 51.72 40.06 52.19 38.36 52.69 36.66 C 53.88 37.70 55.13 38.65 56.39 39.60 C 55.25 36.52 54.01 33.45 52.28 30.65 C 54.29 30.19 56.30 29.75 58.32 29.29 C 59.53 26.70 60.96 24.21 62.69 21.92 C 62.90 22.70 63.34 24.24 63.55 25.01 M 56.00 33.71 C 56.68 35.17 57.36 36.63 58.03 38.10 C 59.64 36.60 60.71 32.68 58.29 31.64 C 57.51 32.31 56.75 33.00 56.00 33.71 Z" />
<path fill="#2c2f39" opacity="1.00" d=" M 26.06 27.59 C 28.45 29.70 29.92 32.54 31.09 35.46 C 31.13 33.56 31.19 31.66 31.18 29.77 C 31.61 32.53 31.95 35.32 32.15 38.11 C 32.53 36.77 32.90 35.44 33.28 34.10 C 34.23 34.61 35.18 35.13 36.13 35.64 C 35.87 34.29 35.62 32.94 35.36 31.59 C 37.00 32.28 38.64 32.96 40.28 33.64 C 40.60 32.05 40.91 30.46 41.16 28.85 C 42.96 30.82 44.69 32.84 46.40 34.89 C 45.03 36.28 44.07 39.95 41.57 38.65 C 39.28 37.54 38.32 34.87 36.79 32.95 C 37.90 37.63 40.78 41.61 41.93 46.27 C 38.96 43.60 36.82 40.21 34.45 37.04 C 35.05 40.14 35.85 43.21 36.83 46.22 C 36.16 44.79 35.48 43.37 34.81 41.96 C 33.16 41.70 31.52 41.45 29.87 41.19 C 28.63 36.65 27.02 32.21 26.06 27.59 Z" />
<path fill="#c19481" opacity="1.00" d=" M 56.00 33.71 C 56.75 33.00 57.51 32.31 58.29 31.64 C 60.71 32.68 59.64 36.60 58.03 38.10 C 57.36 36.63 56.68 35.17 56.00 33.71 Z" />
<path fill="#25242b" opacity="1.00" d=" M 89.12 38.14 C 93.68 35.89 98.53 34.29 103.24 32.38 C 99.38 36.47 95.04 40.06 90.81 43.75 C 87.30 47.03 82.92 49.57 77.95 49.25 C 78.90 47.01 79.17 43.94 81.35 42.55 C 83.94 41.51 87.67 41.56 88.88 38.56 L 89.12 38.14 Z" />
<path fill="#325161" opacity="1.00" d=" M 44.58 41.02 C 45.22 39.19 46.15 37.48 47.03 35.76 C 48.18 37.36 49.29 38.97 50.40 40.59 C 49.93 40.50 48.99 40.32 48.52 40.23 C 48.48 41.83 48.44 43.43 48.38 45.03 C 47.09 43.73 45.45 42.68 44.58 41.02 Z" />
<path fill="#858b98" opacity="1.00" d=" M 81.35 42.55 C 83.66 40.88 86.17 39.50 88.88 38.56 C 87.67 41.56 83.94 41.51 81.35 42.55 Z" />
<path fill="#fff8d4" opacity="1.00" d=" M 41.58 41.26 C 41.60 41.02 41.66 40.55 41.69 40.31 C 43.40 42.83 45.65 44.93 48.37 46.34 L 48.38 45.03 C 48.44 43.43 48.48 41.83 48.52 40.23 C 48.99 40.32 49.93 40.50 50.40 40.59 L 50.47 40.68 C 50.60 41.32 50.86 42.59 51.00 43.22 C 51.45 43.53 52.37 44.14 52.82 44.44 C 52.76 42.48 52.69 40.53 52.61 38.57 C 53.61 39.83 54.62 41.07 55.62 42.33 L 56.24 43.10 C 56.26 43.58 56.29 44.54 56.31 45.02 C 55.95 45.48 55.21 46.40 54.85 46.86 C 53.24 48.42 51.01 48.74 48.91 49.21 C 48.58 49.18 47.91 49.12 47.58 49.09 C 46.24 47.78 44.85 46.55 43.51 45.25 C 43.48 44.75 43.43 43.76 43.40 43.26 C 42.79 42.59 42.18 41.92 41.58 41.26 Z" />
<path fill="#4b5672" opacity="1.00" d=" M 72.39 41.44 C 74.34 40.90 76.39 41.13 78.25 41.89 C 77.46 45.02 76.44 48.08 75.79 51.24 C 79.47 52.14 83.13 51.07 86.67 50.11 C 87.60 52.29 88.41 54.51 89.05 56.79 C 82.65 57.78 75.99 59.19 69.56 57.66 C 69.72 52.19 69.59 46.35 72.39 41.44 M 72.96 41.37 C 71.34 46.61 69.94 52.16 71.43 57.61 C 75.87 57.51 81.12 58.75 84.99 56.28 C 83.29 55.08 81.63 53.83 80.05 52.48 C 78.49 52.25 76.87 52.14 75.40 51.48 C 74.33 48.28 77.89 44.91 75.87 42.14 C 75.14 41.95 73.69 41.56 72.96 41.37 Z" />
<path fill="#ffffff" opacity="1.00" d=" M 72.96 41.37 C 73.69 41.56 75.14 41.95 75.87 42.14 C 77.89 44.91 74.33 48.28 75.40 51.48 C 76.87 52.14 78.49 52.25 80.05 52.48 C 81.63 53.83 83.29 55.08 84.99 56.28 C 81.12 58.75 75.87 57.51 71.43 57.61 C 69.94 52.16 71.34 46.61 72.96 41.37 Z" />
<path fill="#665451" opacity="1.00" d=" M 56.24 43.10 C 57.75 43.76 59.30 44.33 60.84 44.91 C 59.54 45.84 58.23 46.76 56.93 47.69 C 56.41 47.48 55.37 47.07 54.85 46.86 C 55.21 46.40 55.95 45.48 56.31 45.02 C 56.29 44.54 56.26 43.58 56.24 43.10 Z" />
<path fill="#1a191e" opacity="1.00" d=" M 60.82 56.40 C 60.62 51.52 62.91 46.13 67.10 43.44 C 64.87 47.67 64.45 53.07 60.82 56.40 Z" />
<path fill="#6e7689" opacity="1.00" d=" M 26.04 48.15 C 28.53 49.06 31.03 50.07 32.66 52.26 C 33.15 52.43 34.12 52.77 34.60 52.93 C 34.63 53.00 34.69 53.14 34.71 53.20 C 33.43 53.23 32.27 53.55 31.61 54.72 C 31.56 54.03 31.47 52.66 31.42 51.97 C 29.21 51.35 27.61 49.71 26.04 48.15 Z" />
<path fill="#6b758d" opacity="1.00" d=" M 64.54 58.28 C 65.03 54.54 65.72 50.65 68.38 47.77 C 68.37 51.21 68.32 54.65 68.70 58.08 C 67.31 58.15 65.92 58.22 64.54 58.28 Z" />
<path fill="#9399a4" opacity="1.00" d=" M 54.98 52.38 C 55.55 52.34 56.68 52.26 57.24 52.22 C 56.79 53.90 55.39 54.45 53.80 54.57 C 53.39 54.88 52.57 55.49 52.15 55.80 C 53.13 54.68 54.08 53.55 54.98 52.38 Z" />
<path fill="#f9fafa" opacity="1.00" d=" M 34.20 60.78 C 37.68 58.14 40.41 53.36 45.13 53.14 C 43.10 56.42 39.60 58.45 37.59 61.78 C 36.46 61.45 35.33 61.10 34.20 60.78 Z" />
<path fill="#1c1e27" opacity="1.00" d=" M 44.90 57.34 C 44.95 56.30 45.45 55.39 45.92 54.49 C 46.40 55.97 46.87 57.46 47.36 58.94 C 47.04 59.59 46.42 60.90 46.11 61.55 C 46.88 61.71 48.43 62.04 49.21 62.20 C 49.48 62.78 50.03 63.94 50.31 64.53 C 48.81 63.85 47.32 63.17 45.82 62.50 C 44.74 64.11 43.71 65.78 42.36 67.19 L 40.00 66.10 C 39.98 66.89 39.93 68.47 39.90 69.26 C 39.19 68.15 38.69 66.96 38.40 65.67 C 38.89 65.64 39.86 65.59 40.35 65.56 C 41.64 65.66 43.36 65.28 43.61 63.76 C 44.39 61.70 44.75 59.52 44.90 57.34 Z" />
<path fill="#ffffff" opacity="1.00" d=" M 45.92 54.49 C 48.96 53.57 50.00 56.95 51.31 58.82 C 51.42 59.79 51.65 61.73 51.77 62.71 C 51.13 62.58 49.85 62.33 49.21 62.20 C 48.43 62.04 46.88 61.71 46.11 61.55 C 46.42 60.90 47.04 59.59 47.36 58.94 C 46.87 57.46 46.40 55.97 45.92 54.49 Z" />
<path fill="#9aa0ab" opacity="1.00" d=" M 53.07 57.73 C 54.61 56.88 56.15 56.02 57.69 55.16 C 57.65 56.25 57.62 57.35 57.59 58.44 C 56.61 59.18 55.99 60.86 54.56 60.63 C 54.02 59.69 53.55 58.70 53.07 57.73 Z" />
<path fill="#4c5774" opacity="1.00" d=" M 95.25 58.25 C 96.61 57.84 98.00 57.61 99.39 57.33 C 98.98 59.95 98.61 62.58 98.23 65.20 C 97.09 62.98 95.33 60.84 95.25 58.25 Z" />
<path fill="#bcc2ca" opacity="1.00" d=" M 26.87 64.66 C 28.01 60.52 32.40 58.49 35.87 56.66 C 33.61 59.34 30.77 61.56 28.99 64.64 C 28.46 64.64 27.40 64.66 26.87 64.66 Z" />
<path fill="#38535b" opacity="1.00" d=" M 41.16 59.27 L 44.90 57.34 C 44.75 59.52 44.39 61.70 43.61 63.76 C 43.01 63.48 41.81 62.91 41.21 62.63 L 40.41 62.36 C 40.60 61.83 40.97 60.75 41.15 60.21 C 41.89 60.39 42.63 60.42 43.37 60.30 C 43.44 60.29 43.57 60.27 43.64 60.26 L 43.40 60.17 L 41.16 59.27 Z" />
<path fill="#8890a5" opacity="1.00" d=" M 58.51 60.76 C 58.66 59.10 60.12 58.39 61.46 57.85 C 61.45 60.04 61.00 62.16 59.73 63.97 L 59.16 61.19 C 58.24 62.32 57.35 63.56 57.22 65.09 C 56.67 64.54 56.13 64.01 55.58 63.47 C 55.57 63.01 55.54 62.09 55.53 61.63 C 56.52 61.34 57.52 61.05 58.51 60.76 Z" />
<path fill="#a8e7bd" opacity="1.00" d=" M 43.40 60.17 L 43.64 60.26 C 43.57 60.27 43.44 60.29 43.37 60.30 L 43.40 60.17 Z" />
<path fill="#6d758b" opacity="1.00" d=" M 51.31 58.82 C 52.12 59.91 52.90 61.02 53.68 62.13 C 50.53 67.12 46.25 71.25 41.87 75.14 C 41.36 73.21 40.82 71.29 40.30 69.37 C 40.98 68.64 41.67 67.91 42.36 67.19 C 43.71 65.78 44.74 64.11 45.82 62.50 C 47.32 63.17 48.81 63.85 50.31 64.53 C 50.03 63.94 49.48 62.78 49.21 62.20 C 49.85 62.33 51.13 62.58 51.77 62.71 C 51.65 61.73 51.42 59.79 51.31 58.82 Z" />
<path fill="#203039" opacity="1.00" d=" M 101.83 58.52 C 105.50 58.43 104.09 62.50 104.29 64.85 C 103.48 64.84 101.88 64.83 101.07 64.83 C 101.32 62.73 101.57 60.62 101.83 58.52 Z" />
<path fill="#535e7a" opacity="1.00" d=" M 30.04 66.46 C 31.17 64.58 32.02 61.42 34.20 60.78 C 35.33 61.10 36.46 61.45 37.59 61.78 C 37.59 62.67 37.59 63.56 37.59 64.45 C 35.06 65.06 32.55 65.75 30.04 66.46 Z" />
<path fill="#525e7a" opacity="1.00" d=" M 67.09 60.51 C 69.48 60.40 71.88 60.36 74.28 60.36 C 72.51 61.57 70.74 62.82 68.82 63.79 C 68.06 62.80 67.48 61.71 67.09 60.51 Z" />
<path fill="#6e7689" opacity="1.00" d=" M 87.02 61.93 C 88.81 60.79 90.87 60.07 93.01 60.16 C 94.15 62.31 96.39 65.06 94.83 67.48 C 93.29 66.05 91.77 64.56 89.94 63.50 C 86.88 62.18 84.83 65.37 82.74 67.00 C 83.25 67.86 83.76 68.70 84.29 69.54 C 83.62 69.56 82.27 69.60 81.60 69.62 C 81.35 69.44 80.85 69.07 80.60 68.89 L 79.84 68.32 C 80.51 68.43 81.85 68.66 82.52 68.77 C 81.16 65.27 84.57 63.44 87.02 61.93 Z" />
<path fill="#363b4a" opacity="1.00" d=" M 63.29 60.21 C 65.70 61.17 65.76 64.07 66.98 66.00 C 68.52 67.31 70.40 68.14 72.12 69.19 C 70.84 70.29 68.96 70.72 67.79 69.21 C 65.44 66.76 63.23 63.78 63.29 60.21 Z" />
<path fill="#3b4458" opacity="1.00" d=" M 76.98 62.81 C 79.03 61.56 81.32 60.84 83.67 60.40 C 82.47 61.81 81.23 63.20 79.99 64.59 C 79.24 64.14 77.73 63.26 76.98 62.81 Z" />
<path fill="#48696b" opacity="1.00" d=" M 105.83 60.74 C 107.57 61.28 109.30 61.82 111.00 62.46 L 111.00 67.30 C 108.70 65.61 106.93 63.38 105.83 60.74 Z" />
<path fill="#bcc2ca" opacity="1.00" d=" M 40.35 65.56 C 40.56 64.83 40.99 63.36 41.21 62.63 C 41.81 62.91 43.01 63.48 43.61 63.76 C 43.36 65.28 41.64 65.66 40.35 65.56 Z" />
<path fill="#667088" opacity="1.00" d=" M 60.56 71.91 C 60.67 69.13 58.35 64.87 62.31 63.99 C 63.64 66.41 64.86 68.90 65.89 71.46 C 64.11 71.62 62.34 71.77 60.56 71.91 Z" />
<path fill="#788091" opacity="1.00" d=" M 76.40 68.34 C 76.46 66.89 76.53 65.43 76.62 63.98 C 78.48 64.88 78.97 66.58 78.75 68.53 C 78.16 68.48 76.99 68.39 76.40 68.34 Z" />
<path fill="#fcfdfd" opacity="1.00" d=" M 82.74 67.00 C 84.83 65.37 86.88 62.18 89.94 63.50 C 91.77 64.56 93.29 66.05 94.83 67.48 C 93.43 69.33 91.85 71.02 90.26 72.70 C 88.29 71.66 85.94 71.09 84.29 69.54 C 83.76 68.70 83.25 67.86 82.74 67.00 Z" />
<path fill="#262a34" opacity="1.00" d=" M 73.06 65.20 C 76.40 65.31 71.53 68.19 73.06 65.20 Z" />
<path fill="#858b98" opacity="1.00" d=" M 100.25 67.78 C 101.65 67.33 103.04 66.88 104.43 66.42 C 105.24 73.33 107.89 80.00 107.52 87.02 C 106.14 86.26 104.72 85.56 103.46 84.62 C 103.71 78.82 101.89 73.26 100.25 67.78 Z" />
<path fill="#141319" opacity="1.00" d=" M 30.65 69.87 C 32.65 67.78 35.51 67.23 38.26 66.92 C 37.74 70.28 33.14 69.14 30.65 69.87 Z" />
<path fill="#8890a5" opacity="1.00" d=" M 50.84 73.34 C 53.26 71.02 55.22 68.01 58.45 66.72 C 58.44 68.55 58.40 70.38 58.37 72.21 C 55.90 72.81 53.39 73.24 50.84 73.34 Z" />
<path fill="#fcfdfd" opacity="1.00" d=" M 80.60 68.89 C 80.85 69.07 81.35 69.44 81.60 69.62 C 84.12 71.79 87.32 72.85 90.05 74.70 C 86.84 74.50 83.72 73.66 80.55 73.18 C 80.57 71.75 80.59 70.32 80.60 68.89 Z" />
<path fill="#b5b9c4" opacity="1.00" d=" M 96.52 69.46 C 96.99 69.21 97.93 68.71 98.40 68.46 C 100.21 73.68 102.10 79.12 101.55 84.73 C 102.50 85.34 103.29 86.09 103.93 86.97 C 103.40 87.68 102.90 88.42 102.43 89.18 L 102.00 89.85 C 102.22 88.48 102.43 87.12 102.65 85.77 C 101.28 85.19 99.91 84.61 98.53 84.06 L 98.52 83.64 C 98.50 82.28 98.48 80.92 98.45 79.57 C 98.97 79.64 100.00 79.79 100.51 79.86 C 99.29 76.42 99.64 71.89 96.52 69.46 Z" />
<path fill="#1a2433" opacity="1.00" d=" M 75.26 70.16 C 75.73 70.23 76.65 70.38 77.11 70.46 C 77.63 71.81 78.11 73.18 78.77 74.48 C 81.42 75.91 84.56 76.04 87.45 76.74 C 85.15 81.76 84.05 87.29 81.19 92.05 C 79.88 94.37 78.39 96.79 78.47 99.56 C 82.18 99.33 85.80 95.22 89.31 97.70 C 91.71 99.21 94.14 100.78 96.10 102.84 C 97.34 105.39 97.58 108.29 98.35 111.00 L 74.30 111.00 C 74.40 108.84 74.77 106.64 74.36 104.49 C 73.23 102.48 71.38 100.94 70.43 98.82 C 69.50 95.53 69.15 92.10 68.45 88.76 C 66.25 88.28 64.00 87.93 61.88 87.15 C 60.47 86.79 59.27 84.86 60.69 83.78 C 63.30 81.28 66.94 80.13 69.39 77.43 C 71.49 75.13 73.30 72.58 75.26 70.16 Z" />
<path fill="#fdfdfd" opacity="1.00" d=" M 89.77 77.87 C 91.81 74.91 93.79 71.84 96.52 69.46 C 99.64 71.89 99.29 76.42 100.51 79.86 C 100.00 79.79 98.97 79.64 98.45 79.57 C 98.48 80.92 98.50 82.28 98.52 83.64 C 97.71 83.51 96.09 83.24 95.28 83.11 C 95.35 81.41 95.46 79.72 95.34 78.03 L 94.83 78.23 C 92.56 78.94 91.07 80.90 89.29 82.34 C 89.41 81.22 89.65 78.99 89.77 77.87 Z" />
<path fill="#303236" opacity="1.00" d=" M 109.60 70.82 C 109.95 70.66 110.65 70.32 111.00 70.16 L 111.00 72.82 C 110.67 72.57 110.00 72.05 109.67 71.79 L 109.60 70.82 Z" />
<path fill="#788091" opacity="1.00" d=" M 31.07 74.22 C 31.99 71.01 35.48 70.78 38.26 71.30 C 38.96 74.34 40.02 77.28 41.46 80.04 C 38.09 77.94 34.42 76.36 31.07 74.22 Z" />
<path fill="#4d4d50" opacity="1.00" d=" M 111.00 87.45 C 110.57 82.28 108.17 77.48 108.22 72.22 C 109.15 74.07 110.11 75.91 111.00 77.79 L 111.00 87.45 Z" />
<path fill="#2d3447" opacity="1.00" d=" M 61.66 80.04 C 62.86 76.34 66.23 73.89 70.02 73.34 C 68.32 76.71 65.09 78.76 61.66 80.04 Z" />
<path fill="#f9fafa" opacity="1.00" d=" M 42.53 85.01 C 42.68 80.51 46.24 77.38 50.01 75.53 C 52.74 75.04 55.52 75.44 58.27 75.41 C 58.18 75.66 57.98 76.16 57.88 76.41 L 56.52 76.31 L 56.42 77.16 C 53.31 79.98 49.74 82.24 46.67 85.13 C 46.43 88.48 46.36 91.85 46.00 95.20 C 45.86 94.29 45.58 92.46 45.44 91.55 L 44.50 91.66 C 44.44 90.99 44.34 89.64 44.29 88.97 C 43.71 87.64 43.15 86.31 42.53 85.01 Z" />
<path fill="#5e626b" opacity="1.00" d=" M 86.30 87.09 C 86.86 83.84 87.71 80.53 89.77 77.87 C 89.65 78.99 89.41 81.22 89.29 82.34 C 91.07 80.90 92.56 78.94 94.83 78.23 C 94.76 79.93 94.67 81.63 94.64 83.33 C 94.42 82.55 93.99 81.00 93.77 80.22 C 93.54 80.20 93.09 80.15 92.86 80.13 C 91.09 82.82 89.27 85.59 86.30 87.09 Z" />
<path fill="#bcc2ca" opacity="1.00" d=" M 28.07 82.03 C 29.72 80.86 31.35 79.63 32.96 78.40 C 33.97 78.92 34.98 79.44 36.00 79.96 C 34.94 81.01 33.88 82.04 32.88 83.14 C 31.75 84.57 30.75 86.10 29.71 87.59 C 29.15 85.74 28.60 83.89 28.07 82.03 Z" />
<path fill="#9aa0ab" opacity="1.00" d=" M 57.02 80.98 C 57.79 80.20 58.72 79.62 59.69 79.10 C 56.59 82.24 54.01 86.42 49.85 88.17 C 50.70 84.53 54.36 83.07 57.02 80.98 Z" />
<path fill="#788091" opacity="1.00" d=" M 33.82 85.40 C 35.05 83.22 37.08 81.72 39.30 80.66 C 37.88 83.95 35.60 86.75 33.02 89.19 L 32.04 88.83 C 32.62 87.68 33.20 86.53 33.82 85.40 Z" />
<path fill="#666c78" opacity="1.00" d=" M 21.92 83.83 C 22.29 83.14 23.02 81.77 23.39 81.08 C 24.64 83.23 25.82 85.42 27.12 87.54 L 26.73 87.64 C 25.50 87.98 24.30 88.38 23.09 88.78 C 23.43 86.90 23.76 85.02 24.08 83.13 C 23.54 83.31 22.46 83.66 21.92 83.83 Z" />
<path fill="#2c2f39" opacity="1.00" d=" M 26.82 82.92 C 27.13 82.70 27.75 82.26 28.07 82.03 C 28.60 83.89 29.15 85.74 29.71 87.59 C 30.75 86.10 31.75 84.57 32.88 83.14 C 33.11 83.70 33.59 84.83 33.82 85.40 C 33.20 86.53 32.62 87.68 32.04 88.83 C 30.80 88.33 29.58 87.82 28.36 87.30 L 28.52 88.71 L 28.55 89.58 C 28.09 89.09 27.18 88.13 26.73 87.64 L 27.12 87.54 L 28.18 87.29 C 27.73 85.83 27.27 84.38 26.82 82.92 Z" />
<path fill="#acb1ba" opacity="1.00" d=" M 21.92 83.83 C 22.46 83.66 23.54 83.31 24.08 83.13 C 23.76 85.02 23.43 86.90 23.09 88.78 C 24.30 88.38 25.50 87.98 26.73 87.64 C 27.18 88.13 28.09 89.09 28.55 89.58 C 28.52 92.53 26.67 95.00 25.51 97.59 C 25.63 95.40 26.53 92.95 25.42 90.90 C 24.28 90.65 23.11 90.56 21.95 90.43 C 21.92 90.04 21.86 89.27 21.83 88.88 C 21.73 87.59 21.54 86.31 21.28 85.03 C 21.44 84.73 21.76 84.13 21.92 83.83 Z" />
<path fill="#9aa0ab" opacity="1.00" d=" M 39.20 86.33 C 39.59 85.89 40.00 85.46 40.43 85.06 C 42.17 88.78 42.82 92.87 42.95 96.95 C 39.10 101.67 35.61 106.71 31.25 111.00 L 29.38 111.00 C 29.02 108.90 28.66 106.81 28.45 104.69 L 29.02 103.61 C 33.59 100.61 38.23 97.70 42.31 94.03 C 41.52 91.37 40.51 88.78 39.20 86.33 Z" />
<path fill="#111015" opacity="1.00" d=" M 11.05 100.27 C 11.37 95.33 11.73 89.88 14.94 85.87 C 14.89 90.86 14.38 96.27 11.05 100.27 Z" />
<path fill="#ebedee" opacity="1.00" d=" M 21.28 85.03 C 21.54 86.31 21.73 87.59 21.83 88.88 C 21.33 93.33 19.91 97.68 17.43 101.43 C 15.49 104.30 14.34 107.60 13.73 111.00 L 11.93 111.00 C 12.27 104.47 15.23 98.56 17.21 92.44 C 18.54 89.95 19.92 87.50 21.28 85.03 Z" />
<path fill="#505b76" opacity="1.00" d=" M 56.53 86.17 C 56.91 85.92 57.67 85.44 58.05 85.19 C 58.74 88.17 59.62 91.09 60.63 93.97 C 57.82 95.36 55.66 98.30 52.46 98.71 C 52.39 98.14 52.25 97.02 52.18 96.46 C 52.21 95.09 52.29 93.73 52.37 92.36 C 53.96 90.44 55.27 88.31 56.53 86.17 Z" />
<path fill="#212026" opacity="1.00" d=" M 90.58 86.60 C 93.44 86.05 96.82 84.80 99.45 86.64 C 100.41 88.96 100.63 91.50 101.05 93.96 C 99.10 91.51 96.53 89.71 93.36 89.28 C 93.99 88.96 95.25 88.33 95.88 88.02 C 94.11 87.57 92.34 87.08 90.58 86.60 Z" />
<path fill="#fafbfa" opacity="1.00" d=" M 29.02 103.61 C 31.90 97.55 35.96 92.18 39.20 86.33 C 40.51 88.78 41.52 91.37 42.31 94.03 C 38.23 97.70 33.59 100.61 29.02 103.61 Z" />
<path fill="#bcc2ca" opacity="1.00" d=" M 50.44 91.35 C 52.13 89.26 54.37 87.72 56.53 86.17 C 55.27 88.31 53.96 90.44 52.37 92.36 C 52.29 93.73 52.21 95.09 52.18 96.46 C 50.61 95.23 49.89 93.30 50.44 91.35 Z" />
<path fill="#bcc2ca" opacity="1.00" d=" M 90.58 88.59 C 90.58 88.10 90.58 87.10 90.58 86.60 C 92.34 87.08 94.11 87.57 95.88 88.02 C 95.25 88.33 93.99 88.96 93.36 89.28 L 92.78 89.58 C 91.43 89.40 90.09 89.20 88.74 89.00 C 89.20 88.90 90.12 88.70 90.58 88.59 Z" />
<path fill="#616b83" opacity="1.00" d=" M 102.43 89.18 C 102.90 88.42 103.40 87.68 103.93 86.97 C 104.19 86.83 104.73 86.56 105.00 86.42 C 109.03 89.40 108.48 94.82 108.02 99.20 C 103.62 97.90 103.79 92.70 102.43 89.18 Z" />
<path fill="#d6d9dd" opacity="1.00" d=" M 17.43 101.43 C 19.91 97.68 21.33 93.33 21.83 88.88 C 21.86 89.27 21.92 90.04 21.95 90.43 C 23.11 90.56 24.28 90.65 25.42 90.90 C 26.53 92.95 25.63 95.40 25.51 97.59 L 25.16 98.40 C 20.96 101.60 18.90 106.65 16.17 111.00 L 13.73 111.00 C 14.34 107.60 15.49 104.30 17.43 101.43 Z" />
<path fill="#5b657e" opacity="1.00" d=" M 28.55 89.58 L 28.52 88.71 C 29.76 89.95 31.07 91.13 32.37 92.30 C 30.56 94.97 27.93 96.83 25.16 98.40 L 25.51 97.59 C 26.67 95.00 28.52 92.53 28.55 89.58 Z" />
<path fill="#66728d" opacity="1.00" d=" M 61.49 90.05 C 63.07 90.25 64.66 90.46 66.25 90.67 C 66.67 92.81 67.16 94.95 67.63 97.09 C 64.79 95.53 62.82 92.96 61.49 90.05 Z" />
<path fill="#38535b" opacity="1.00" d=" M 0.00 96.78 C 3.41 94.27 7.07 92.10 11.00 90.51 C 7.98 94.76 3.57 97.66 0.00 101.38 L 0.00 96.78 Z" />
<path fill="#6e6f70" opacity="1.00" d=" M 10.85 111.00 C 11.67 104.47 13.61 98.00 17.21 92.44 C 15.23 98.56 12.27 104.47 11.93 111.00 L 10.85 111.00 Z" />
<path fill="#1a191f" opacity="1.00" d=" M 90.46 93.52 C 91.74 93.15 93.04 92.82 94.34 92.55 C 94.47 94.27 94.55 96.00 94.56 97.72 C 93.35 96.36 90.08 95.75 90.46 93.52 Z" />
<path fill="#18181e" opacity="1.00" d=" M 101.09 95.05 C 102.84 97.81 104.89 100.47 108.02 101.76 C 106.69 102.63 105.37 104.00 103.63 103.60 C 100.38 102.06 101.36 97.94 101.09 95.05 Z" />
<path fill="#9399a4" opacity="1.00" d=" M 43.27 102.70 C 45.10 100.61 46.02 95.18 49.74 96.94 C 48.05 99.31 46.14 101.75 43.27 102.70 Z" />
<path fill="#525e7a" opacity="1.00" d=" M 49.74 96.94 C 50.15 98.31 50.62 99.67 51.09 101.02 C 47.20 105.06 42.30 107.84 37.55 110.72 C 39.23 108.03 41.02 105.41 42.90 102.87 L 43.27 102.70 C 46.14 101.75 48.05 99.31 49.74 96.94 Z" />
<path fill="#ffffff" opacity="1.00" d=" M 62.89 96.85 C 66.24 99.30 69.58 101.92 72.11 105.24 C 72.40 106.81 72.29 108.43 72.35 110.03 C 67.86 109.00 64.14 106.21 60.21 103.97 C 60.52 102.51 60.85 101.06 61.20 99.61 C 61.75 98.68 62.31 97.76 62.89 96.85 Z" />
<path fill="#1b2534" opacity="1.00" d=" M 0.00 105.25 C 2.64 102.34 5.74 99.88 8.92 97.59 C 8.32 100.80 7.57 103.99 6.71 107.14 C 7.48 108.44 8.24 109.74 9.06 111.00 L 0.00 111.00 L 0.00 105.25 Z" />
<path fill="#4c5774" opacity="1.00" d=" M 51.61 104.32 C 53.48 102.20 55.60 100.32 57.99 98.81 C 57.51 100.38 57.07 101.97 56.30 103.43 C 55.05 104.60 53.15 104.06 51.61 104.32 Z" />
<path fill="#505a76" opacity="1.00" d=" M 18.90 111.00 C 21.79 106.56 23.86 101.02 29.12 98.83 C 28.27 100.58 27.39 102.32 26.47 104.05 C 26.51 105.56 26.56 107.07 26.62 108.59 C 25.50 109.40 24.39 110.22 23.26 111.00 L 18.90 111.00 Z" />
<path fill="#9399a4" opacity="1.00" d=" M 62.24 111.00 C 59.39 107.81 57.98 103.10 61.20 99.61 C 60.85 101.06 60.52 102.51 60.21 103.97 C 64.14 106.21 67.86 109.00 72.35 110.03 L 72.36 111.00 L 62.24 111.00 Z" />
<path fill="#191920" opacity="1.00" d=" M 111.00 105.16 C 108.45 104.53 108.34 100.84 111.00 100.31 L 111.00 105.16 Z" />
<path fill="#19191f" opacity="1.00" d=" M 98.99 103.72 C 100.24 104.55 101.56 105.32 102.64 106.38 C 103.06 107.89 102.58 109.47 102.50 111.00 L 100.77 111.00 C 100.02 108.61 99.47 106.17 98.99 103.72 Z" />
<path fill="#535e7a" opacity="1.00" d=" M 46.77 110.84 C 48.79 107.02 53.17 106.31 57.08 106.70 C 54.15 107.98 51.29 109.41 48.52 111.00 L 40.88 111.00 C 42.29 110.10 43.67 109.14 45.05 108.19 C 45.62 109.07 46.19 109.95 46.77 110.84 Z" />
<path fill="#ebedee" opacity="1.00" d=" M 110.34 111.00 C 108.81 110.48 109.43 107.65 111.00 109.07 L 111.00 111.00 L 110.34 111.00 Z" />
</svg>
