<?xml version="1.0" encoding="UTF-8" ?>
<!DOCTYPE svg PUBLIC "-//W3C//DTD SVG 1.1//EN" "http://www.w3.org/Graphics/SVG/1.1/DTD/svg11.dtd">
<svg width="111pt" height="111pt" viewBox="0 0 111 111" version="1.1" xmlns="http://www.w3.org/2000/svg">
<path fill="#000000" opacity="1.00" d=" M 49.27 0.00 L 54.05 0.00 L 54.05 0.37 C 50.35 1.32 46.65 2.32 43.10 3.74 C 43.39 5.27 43.69 6.79 44.02 8.32 C 44.25 9.35 44.51 10.38 44.77 11.41 C 42.98 12.20 41.20 13.00 39.43 13.81 C 40.45 16.65 41.92 19.88 45.14 20.69 C 48.17 21.65 49.53 18.05 50.55 15.93 C 52.59 18.11 56.02 19.88 58.85 18.05 C 61.28 16.89 61.76 14.11 62.34 11.77 C 63.44 11.66 64.55 11.56 65.65 11.46 C 65.71 12.85 65.78 14.24 65.86 15.64 C 67.35 14.68 68.54 13.38 69.44 11.86 C 69.83 11.76 70.60 11.55 70.98 11.45 C 72.45 9.03 72.47 6.18 72.72 3.45 C 73.99 2.44 75.08 1.25 76.11 0.00 L 79.54 0.00 C 79.42 1.21 79.31 2.42 79.22 3.64 L 80.60 4.01 C 80.24 5.98 79.78 7.94 79.35 9.89 C 80.68 9.06 82.02 8.24 83.37 7.43 C 85.11 8.03 86.91 8.31 88.75 8.24 C 86.92 5.38 88.14 2.10 90.51 0.00 L 91.39 0.00 C 89.79 2.27 87.98 5.20 90.06 7.85 C 91.17 5.29 92.38 2.74 92.99 0.00 L 93.90 0.00 C 93.86 0.61 93.77 1.84 93.73 2.45 C 92.93 3.68 92.19 4.97 91.92 6.44 C 93.53 5.73 95.10 4.97 96.68 4.21 C 96.68 4.64 96.68 5.49 96.68 5.92 C 96.01 7.86 94.93 9.63 93.58 11.16 C 91.58 12.30 89.14 12.95 87.72 14.85 C 87.16 17.27 87.06 19.77 86.73 22.23 C 82.03 20.44 83.05 14.14 83.56 10.19 C 81.49 10.54 79.32 10.58 77.34 11.34 C 74.04 14.05 72.01 17.94 72.42 22.28 C 71.23 21.42 70.32 20.26 69.73 18.92 C 69.51 18.13 69.09 16.54 68.87 15.74 C 67.96 15.90 67.05 16.05 66.14 16.21 C 65.24 15.37 64.34 14.53 63.44 13.69 C 62.25 15.58 61.03 17.44 59.80 19.31 C 56.64 19.65 53.46 19.65 50.31 19.24 C 49.17 20.21 48.03 21.18 46.89 22.15 C 49.40 24.56 52.67 24.83 55.93 24.24 C 60.40 26.01 64.18 29.19 68.09 31.93 C 69.83 33.00 70.79 34.78 71.39 36.67 C 75.42 37.95 79.71 37.88 83.89 37.73 C 86.15 36.82 87.68 34.69 89.61 33.23 C 91.60 31.59 94.23 30.38 95.13 27.77 C 88.66 32.20 80.45 31.84 73.08 33.60 C 72.83 33.53 72.33 33.39 72.08 33.33 C 78.38 31.61 84.95 31.07 91.18 29.09 C 92.42 27.97 92.67 26.22 93.26 24.73 C 93.95 25.11 94.64 25.49 95.33 25.87 C 95.32 26.64 95.29 28.20 95.28 28.98 C 97.25 27.46 99.28 26.01 101.43 24.75 C 99.58 30.13 96.21 34.77 92.59 39.09 C 96.74 39.74 101.00 39.80 105.05 41.04 C 106.97 41.64 109.00 41.67 111.00 41.68 L 111.00 42.99 C 109.92 43.15 108.85 43.32 107.77 43.49 C 108.69 44.61 109.61 45.73 110.52 46.85 C 110.48 49.81 110.60 52.78 111.00 55.71 L 111.00 56.21 C 107.00 59.18 104.95 64.03 100.81 66.86 C 100.41 64.54 100.24 62.19 100.21 59.84 C 98.83 59.41 97.46 58.96 96.08 58.56 C 94.51 58.46 92.93 58.45 91.35 58.54 C 88.90 58.87 86.48 59.39 84.05 59.89 C 85.12 63.45 86.00 67.24 84.50 70.83 C 82.38 77.17 80.77 83.98 76.48 89.27 C 75.37 79.49 76.79 69.69 77.13 59.91 C 77.39 56.92 76.05 54.15 74.26 51.86 C 73.20 50.99 72.11 50.17 71.00 49.37 C 69.01 48.23 66.87 47.39 64.74 46.54 C 68.11 51.12 68.34 56.81 68.37 62.28 C 67.26 67.31 64.91 73.84 58.95 74.42 C 58.79 75.29 58.65 76.16 58.50 77.03 C 55.69 79.73 52.82 82.41 49.40 84.31 C 42.97 86.42 37.11 82.38 31.87 79.24 C 30.23 78.33 29.06 76.85 28.13 75.26 C 27.34 73.69 26.55 72.08 25.27 70.84 C 23.44 76.48 25.28 82.24 27.33 87.52 C 29.64 93.70 32.99 99.49 37.16 104.60 C 38.21 105.86 39.33 107.07 40.43 108.28 C 41.36 104.82 42.23 101.28 44.14 98.20 C 48.35 92.43 54.46 88.43 60.70 85.16 C 62.40 84.31 64.11 83.45 65.80 82.58 C 65.32 81.47 64.85 80.36 64.37 79.25 C 65.58 78.15 66.79 77.07 68.00 75.98 C 67.74 74.90 67.48 73.82 67.22 72.74 C 68.49 73.63 69.75 74.52 71.01 75.42 C 69.40 76.81 67.71 78.09 65.98 79.33 C 66.10 79.86 66.34 80.92 66.46 81.45 C 68.00 81.85 69.55 82.22 71.09 82.61 C 67.30 83.76 63.54 85.07 60.08 87.02 C 64.94 87.91 70.37 90.66 70.86 96.19 C 68.11 93.85 66.34 89.89 62.39 89.38 C 57.87 88.61 53.64 91.04 50.04 93.51 C 52.13 98.29 55.52 102.31 58.34 106.65 C 59.04 107.53 59.66 108.93 61.04 108.67 C 66.38 108.28 71.41 106.22 76.42 104.47 C 87.26 100.41 98.36 95.98 106.88 87.87 C 105.86 85.96 104.80 84.07 103.71 82.21 C 103.92 80.65 104.06 79.09 104.27 77.54 C 104.74 71.97 107.37 66.91 111.00 62.76 L 111.00 65.21 C 108.13 68.88 106.23 73.25 105.93 77.93 C 105.40 80.89 106.21 83.78 107.63 86.37 C 109.07 88.77 108.34 92.30 111.00 93.88 L 111.00 95.22 C 109.87 95.05 108.75 94.89 107.63 94.72 C 107.52 93.22 107.41 91.71 107.28 90.21 C 104.74 91.54 102.47 93.28 100.32 95.16 C 97.52 96.88 94.56 98.31 91.63 99.79 C 85.79 102.70 79.68 105.02 73.53 107.17 C 71.72 107.83 69.92 108.51 68.08 109.08 C 65.46 109.61 62.77 110.31 60.09 109.98 C 58.72 109.11 57.65 107.87 56.59 106.66 C 53.76 102.94 51.24 99.00 48.42 95.28 C 47.91 95.92 46.90 97.21 46.40 97.86 C 45.14 99.83 43.11 101.91 43.45 104.41 C 46.27 107.24 49.90 109.06 53.34 111.00 L 0.00 111.00 L 0.00 109.14 C 0.85 108.81 1.70 108.49 2.56 108.18 C 6.40 108.13 10.24 108.38 14.03 108.96 C 15.67 107.91 17.23 106.71 19.02 105.94 C 21.67 105.72 24.30 106.32 26.94 106.20 C 29.33 105.32 31.26 103.58 33.28 102.08 C 29.58 96.31 26.20 90.25 24.52 83.56 C 22.94 79.27 22.75 74.59 24.50 70.31 C 24.01 69.66 23.51 69.02 22.98 68.39 C 21.98 73.20 17.25 75.63 13.73 78.46 C 9.71 80.05 5.44 80.91 1.11 80.69 C 0.83 81.03 0.28 81.71 0.00 82.05 L 0.00 79.21 C 8.78 80.23 17.89 75.77 22.13 67.97 C 21.74 66.94 21.34 65.92 20.95 64.89 C 22.23 64.56 23.54 64.28 24.78 63.81 C 26.42 61.41 27.49 58.64 29.45 56.45 C 31.99 53.39 35.49 51.39 38.56 48.93 C 35.92 49.51 32.86 49.78 30.97 51.98 C 27.62 55.52 24.69 59.45 21.88 63.42 C 17.04 58.40 14.09 51.96 11.33 45.65 C 9.05 40.48 9.15 34.70 9.63 29.19 C 10.75 19.55 13.93 9.70 20.75 2.54 C 26.67 7.48 32.98 11.92 39.11 16.58 C 38.93 15.66 38.56 13.82 38.38 12.90 C 39.97 12.14 41.56 11.39 43.15 10.64 C 42.47 8.10 42.05 5.51 41.70 2.91 C 44.20 1.87 46.72 0.89 49.27 0.00 M 73.36 9.21 C 72.36 11.54 71.40 13.88 70.33 16.18 C 70.66 17.35 70.98 18.51 71.32 19.68 C 71.40 18.74 71.58 16.87 71.67 15.94 C 72.45 14.96 73.23 13.99 74.05 13.04 C 75.68 11.81 75.28 9.64 75.57 7.85 C 76.63 7.10 79.46 7.27 78.72 5.35 C 78.13 3.78 78.56 1.34 76.92 0.50 C 74.78 2.89 72.61 5.79 73.36 9.21 M 16.19 11.87 L 16.21 12.14 C 13.64 17.45 12.13 23.22 11.48 29.07 C 10.85 34.71 10.80 40.76 13.49 45.93 C 15.72 51.34 18.68 56.48 21.79 61.45 C 24.21 57.74 26.97 54.25 29.98 50.99 C 32.00 48.67 35.26 48.21 38.09 47.51 C 40.41 46.86 42.33 48.70 44.29 49.58 C 44.74 48.10 45.18 46.61 45.62 45.13 C 49.31 45.52 52.45 47.86 55.39 49.95 L 55.35 51.04 C 56.75 49.82 58.18 48.63 59.64 47.48 C 58.79 49.37 57.42 50.93 56.00 52.41 C 54.08 50.64 52.06 48.87 49.45 48.24 C 50.66 51.52 52.21 54.65 53.36 57.95 L 53.47 57.65 C 54.15 60.41 54.67 63.20 55.10 66.01 C 53.06 69.20 49.72 71.13 46.16 72.19 C 46.59 73.49 47.02 74.79 47.45 76.10 C 46.59 76.99 45.74 77.88 44.89 78.77 C 44.33 78.48 43.22 77.91 42.66 77.62 L 42.92 77.01 C 42.02 76.67 41.15 76.28 40.30 75.83 C 39.45 77.56 38.62 79.30 37.80 81.04 C 38.82 81.41 39.84 81.79 40.84 82.20 L 40.65 82.71 C 43.96 83.50 47.76 83.91 50.70 81.82 C 53.95 79.57 58.11 76.93 57.77 72.44 L 58.21 71.91 C 59.11 72.31 60.00 72.70 60.89 73.10 C 66.66 68.79 67.72 60.90 66.66 54.23 C 66.04 50.46 63.57 47.32 60.58 45.09 L 61.36 44.20 C 64.39 45.09 67.25 46.43 70.12 47.72 C 70.91 43.34 68.86 39.12 69.67 34.81 C 65.36 31.24 60.67 28.15 55.92 25.20 C 53.84 25.35 51.55 26.48 49.60 25.34 C 45.37 23.09 41.66 20.04 37.78 17.25 C 31.87 13.45 26.14 9.35 20.89 4.66 C 19.20 6.98 17.55 9.33 16.19 11.87 M 91.04 7.37 C 91.26 7.88 91.71 8.89 91.93 9.39 C 89.21 9.57 86.70 10.98 84.52 12.50 C 83.81 15.00 84.74 17.75 85.34 20.24 C 85.77 17.68 85.24 14.42 87.60 12.66 C 89.93 11.02 92.59 9.80 94.44 7.55 C 93.59 7.50 91.89 7.42 91.04 7.37 M 94.11 31.23 L 94.04 31.56 C 89.85 35.28 84.44 38.08 81.55 42.99 C 83.70 41.62 85.85 40.16 88.35 39.52 C 93.81 38.32 96.05 32.01 99.02 27.83 C 97.38 28.96 95.75 30.10 94.11 31.23 M 71.06 38.31 C 71.56 41.15 71.49 44.03 71.47 46.89 C 71.22 48.26 72.98 48.52 73.75 49.18 C 74.84 46.77 76.66 44.59 76.81 41.86 C 75.68 40.25 74.23 38.90 72.35 38.20 C 72.03 38.23 71.38 38.28 71.06 38.31 M 76.85 39.30 C 77.26 40.05 77.68 40.80 78.09 41.55 C 79.59 41.15 81.29 41.01 82.19 39.58 C 80.41 39.45 78.63 39.37 76.85 39.30 M 84.82 42.32 C 87.03 42.89 89.24 43.46 91.49 43.82 C 92.91 44.31 94.35 44.74 95.81 45.12 C 95.10 45.52 94.38 45.91 93.66 46.30 C 90.48 44.14 86.44 44.37 82.80 43.72 C 82.76 44.37 82.69 45.68 82.66 46.34 C 84.91 46.62 86.94 47.58 88.92 48.63 C 89.82 50.18 90.80 51.69 91.75 53.22 L 92.45 54.44 C 92.62 54.82 92.98 55.59 93.15 55.98 C 95.57 56.51 97.93 57.27 100.23 58.19 C 101.74 55.51 100.19 52.56 99.79 49.80 L 99.63 49.76 C 99.17 49.00 98.25 47.50 97.79 46.74 L 97.02 47.71 C 96.92 47.09 96.73 45.85 96.63 45.23 C 98.37 46.01 99.93 47.13 101.35 48.39 C 102.59 50.26 102.67 52.48 102.14 54.61 C 102.56 54.51 103.39 54.31 103.81 54.21 C 103.33 56.84 102.67 59.43 101.83 61.98 C 107.46 56.82 105.79 47.91 102.35 42.03 C 96.50 42.11 90.34 39.11 84.82 42.32 M 78.03 48.39 C 78.60 49.77 79.54 50.11 80.83 49.42 C 81.12 50.34 81.52 51.20 82.03 52.01 C 82.94 54.03 83.04 56.68 85.22 57.85 C 85.04 54.39 84.59 50.88 83.56 47.56 L 83.19 49.67 C 82.60 49.04 82.03 48.40 81.48 47.74 C 81.81 46.44 81.74 45.18 81.27 43.98 L 81.37 42.67 C 77.91 41.78 78.29 46.23 78.03 48.39 M 104.22 42.87 C 104.47 43.45 104.97 44.61 105.22 45.18 C 106.12 49.88 107.48 54.55 106.25 59.38 C 109.20 55.35 109.27 49.91 107.70 45.34 L 106.68 45.31 C 106.74 44.23 105.36 42.46 104.22 42.87 M 75.63 48.82 C 75.55 49.03 75.39 49.46 75.31 49.68 C 75.12 50.77 75.82 52.37 77.01 52.49 C 77.67 51.51 77.22 47.06 75.63 48.82 M 85.36 49.34 C 85.65 50.19 86.24 51.91 86.53 52.77 C 87.02 52.68 88.00 52.50 88.49 52.42 C 88.43 53.42 88.38 54.43 88.32 55.43 C 89.03 55.40 90.47 55.34 91.19 55.31 C 89.81 53.00 88.74 48.95 85.36 49.34 M 39.77 51.40 L 39.20 50.44 C 37.33 51.74 35.39 52.94 33.59 54.35 C 30.65 56.92 28.45 60.18 26.66 63.63 C 25.93 65.23 23.98 65.50 22.63 66.34 C 24.42 66.08 25.19 67.71 26.01 68.88 C 27.20 71.03 28.53 73.10 29.86 75.17 C 31.38 77.70 34.19 78.93 36.77 80.08 C 37.92 77.94 39.06 75.80 40.20 73.67 C 42.01 74.63 43.61 75.91 45.20 77.20 C 45.30 74.90 44.46 72.70 44.00 70.47 C 45.62 70.27 47.24 70.06 48.86 69.85 C 48.84 67.52 48.77 65.20 48.60 62.89 L 49.13 61.91 C 49.24 60.13 49.63 58.37 50.34 56.73 C 49.36 55.50 48.34 54.29 47.23 53.17 C 45.58 51.91 43.82 50.81 41.98 49.87 C 41.43 50.25 40.32 51.02 39.77 51.40 M 79.76 50.86 C 78.10 55.78 78.53 61.06 78.20 66.17 C 77.75 72.55 77.56 78.96 77.52 85.35 C 79.11 82.52 80.27 79.42 80.92 76.24 C 81.97 74.82 82.39 73.07 82.66 71.36 C 83.25 68.93 84.22 66.33 83.21 63.87 C 81.70 59.63 81.12 55.13 79.76 50.86 M 29.57 106.88 C 32.09 106.88 34.61 106.79 37.13 106.64 C 36.18 105.60 35.29 104.51 34.32 103.50 C 32.72 104.60 31.13 105.71 29.57 106.88 Z" />
<path fill="#316664" opacity="1.00" d=" M 54.05 0.00 L 59.49 0.00 C 59.96 0.46 60.92 1.37 61.39 1.83 C 63.96 1.61 66.50 1.11 68.84 0.00 L 69.00 0.00 C 69.22 0.56 69.64 1.69 69.85 2.25 C 70.81 2.65 71.77 3.05 72.72 3.45 C 72.47 6.18 72.45 9.03 70.98 11.45 C 70.60 11.55 69.83 11.76 69.44 11.86 C 68.54 13.38 67.35 14.68 65.86 15.64 C 65.78 14.24 65.71 12.85 65.65 11.46 C 64.55 11.56 63.44 11.66 62.34 11.77 C 61.76 14.11 61.28 16.89 58.85 18.05 C 56.02 19.88 52.59 18.11 50.55 15.93 C 49.53 18.05 48.17 21.65 45.14 20.69 C 41.92 19.88 40.45 16.65 39.43 13.81 C 41.20 13.00 42.98 12.20 44.77 11.41 C 44.51 10.38 44.25 9.35 44.02 8.32 C 47.60 8.55 51.41 9.39 54.74 7.53 C 57.23 9.25 53.47 10.40 52.44 11.55 C 50.49 12.78 52.41 14.80 53.02 16.21 C 57.48 14.94 60.35 11.05 63.90 8.33 C 62.92 5.65 61.20 3.37 59.05 1.51 C 57.39 1.53 55.74 1.54 54.09 1.55 L 54.05 0.37 L 54.05 0.00 Z" />
<path fill="#83b776" opacity="1.00" d=" M 59.49 0.00 L 68.84 0.00 C 66.50 1.11 63.96 1.61 61.39 1.83 C 60.92 1.37 59.96 0.46 59.49 0.00 Z" />
<path fill="#9bce7b" opacity="1.00" d=" M 69.00 0.00 L 76.11 0.00 C 75.08 1.25 73.99 2.44 72.72 3.45 C 71.77 3.05 70.81 2.65 69.85 2.25 C 69.64 1.69 69.22 0.56 69.00 0.00 Z" />
<path fill="#76aa74" opacity="1.00" d=" M 79.54 0.00 L 85.04 0.00 C 83.62 1.40 82.20 2.81 80.60 4.01 L 79.22 3.64 C 79.31 2.42 79.42 1.21 79.54 0.00 Z" />
<path fill="#2f6766" opacity="1.00" d=" M 85.04 0.00 L 90.51 0.00 C 88.14 2.10 86.92 5.38 88.75 8.24 C 86.91 8.31 85.11 8.03 83.37 7.43 C 82.02 8.24 80.68 9.06 79.35 9.89 C 79.78 7.94 80.24 5.98 80.60 4.01 C 82.20 2.81 83.62 1.40 85.04 0.00 Z" />
<path fill="#b48872" opacity="1.00" d=" M 91.39 0.00 L 92.99 0.00 C 92.38 2.74 91.17 5.29 90.06 7.85 C 87.98 5.20 89.79 2.27 91.39 0.00 Z" />
<path fill="#8abd79" opacity="1.00" d=" M 93.90 0.00 L 98.50 0.00 C 98.65 0.57 98.96 1.70 99.12 2.26 C 99.63 2.70 100.67 3.59 101.18 4.03 C 101.07 5.99 99.19 7.06 98.02 8.40 L 96.75 7.94 C 96.74 7.44 96.70 6.43 96.68 5.92 C 96.68 5.49 96.68 4.64 96.68 4.21 C 95.10 4.97 93.53 5.73 91.92 6.44 C 92.19 4.97 92.93 3.68 93.73 2.45 C 93.77 1.84 93.86 0.61 93.90 0.00 Z" />
<path fill="#548a6b" opacity="1.00" d=" M 98.50 0.00 L 102.56 0.00 C 101.60 3.04 101.97 6.21 103.17 9.11 C 101.44 8.98 99.69 8.90 98.02 8.40 C 99.19 7.06 101.07 5.99 101.18 4.03 C 100.67 3.59 99.63 2.70 99.12 2.26 C 98.96 1.70 98.65 0.57 98.50 0.00 Z" />
<path fill="#282c2c" opacity="1.00" d=" M 102.56 0.00 L 104.01 0.00 C 103.49 2.11 103.71 4.35 105.64 5.66 C 105.39 6.63 105.13 7.59 104.85 8.55 C 104.08 10.67 103.38 12.87 103.85 15.16 C 106.30 14.16 108.71 13.08 111.00 11.75 L 111.00 18.26 C 108.28 19.28 105.75 20.73 103.04 21.77 C 101.56 22.00 100.48 20.84 99.34 20.12 C 99.97 18.05 100.47 15.93 100.81 13.79 C 98.37 13.01 95.94 12.17 93.58 11.16 C 94.93 9.63 96.01 7.86 96.68 5.92 C 96.70 6.43 96.74 7.44 96.75 7.94 L 98.02 8.40 C 99.69 8.90 101.44 8.98 103.17 9.11 C 101.97 6.21 101.60 3.04 102.56 0.00 Z" />
<path fill="#b5e881" opacity="1.00" d=" M 104.01 0.00 L 111.00 0.00 L 111.00 8.26 C 109.18 9.75 106.90 9.01 104.85 8.55 C 105.13 7.59 105.39 6.63 105.64 5.66 C 103.71 4.35 103.49 2.11 104.01 0.00 Z" />
<path fill="#b5e780" opacity="1.00" d=" M 43.10 3.74 C 46.65 2.32 50.35 1.32 54.05 0.37 L 54.09 1.55 C 54.21 3.55 54.31 5.57 54.74 7.53 C 51.41 9.39 47.60 8.55 44.02 8.32 C 43.69 6.79 43.39 5.27 43.10 3.74 Z" />
<path fill="#8e5f5a" opacity="1.00" d=" M 73.36 9.21 C 72.61 5.79 74.78 2.89 76.92 0.50 C 78.56 1.34 78.13 3.78 78.72 5.35 C 79.46 7.27 76.63 7.10 75.57 7.85 C 75.28 9.64 75.68 11.81 74.05 13.04 C 73.80 11.76 73.57 10.49 73.36 9.21 Z" />
<path fill="#5e936e" opacity="1.00" d=" M 54.09 1.55 C 55.74 1.54 57.39 1.53 59.05 1.51 C 61.20 3.37 62.92 5.65 63.90 8.33 C 60.35 11.05 57.48 14.94 53.02 16.21 C 52.41 14.80 50.49 12.78 52.44 11.55 C 53.47 10.40 57.23 9.25 54.74 7.53 C 54.31 5.57 54.21 3.55 54.09 1.55 Z" />
<path fill="#7e7d67" opacity="1.00" d=" M 16.19 11.87 C 17.55 9.33 19.20 6.98 20.89 4.66 C 26.14 9.35 31.87 13.45 37.78 17.25 C 41.66 20.04 45.37 23.09 49.60 25.34 C 51.55 26.48 53.84 25.35 55.92 25.20 C 60.67 28.15 65.36 31.24 69.67 34.81 C 68.86 39.12 70.91 43.34 70.12 47.72 C 67.25 46.43 64.39 45.09 61.36 44.20 L 60.58 45.09 C 59.59 46.20 58.58 47.31 57.58 48.41 C 56.89 47.25 56.20 46.09 55.48 44.95 C 55.46 46.62 55.43 48.28 55.39 49.95 C 52.45 47.86 49.31 45.52 45.62 45.13 C 45.18 46.61 44.74 48.10 44.29 49.58 C 42.33 48.70 40.41 46.86 38.09 47.51 C 35.26 48.21 32.00 48.67 29.98 50.99 C 26.97 54.25 24.21 57.74 21.79 61.45 C 18.68 56.48 15.72 51.34 13.49 45.93 C 14.17 37.68 13.20 29.27 14.88 21.09 C 15.42 18.13 16.61 15.21 16.21 12.14 L 16.19 11.87 M 48.83 33.01 C 49.41 35.29 49.96 37.71 51.48 39.56 C 53.60 41.52 56.26 42.74 58.89 43.86 C 58.97 43.34 59.15 42.31 59.24 41.79 C 60.27 42.16 61.35 42.35 62.46 42.36 C 64.26 43.27 66.20 44.04 68.25 43.78 C 66.32 42.34 63.50 42.82 61.88 40.80 C 63.82 40.30 65.75 39.79 67.66 39.19 C 65.96 36.88 64.16 34.17 61.07 33.73 C 57.29 32.99 53.25 31.99 49.49 33.34 L 48.83 33.01 Z" />
<path fill="#da865d" opacity="1.00" d=" M 91.04 7.37 C 91.89 7.42 93.59 7.50 94.44 7.55 C 92.59 9.80 89.93 11.02 87.60 12.66 C 85.24 14.42 85.77 17.68 85.34 20.24 C 84.74 17.75 83.81 15.00 84.52 12.50 C 86.70 10.98 89.21 9.57 91.93 9.39 C 91.71 8.89 91.26 7.88 91.04 7.37 Z" />
<path fill="#447a68" opacity="1.00" d=" M 104.85 8.55 C 106.90 9.01 109.18 9.75 111.00 8.26 L 111.00 11.75 C 108.71 13.08 106.30 14.16 103.85 15.16 C 103.38 12.87 104.08 10.67 104.85 8.55 Z" />
<path fill="#e8b75a" opacity="1.00" d=" M 73.36 9.21 C 73.57 10.49 73.80 11.76 74.05 13.04 C 73.23 13.99 72.45 14.96 71.67 15.94 C 71.58 16.87 71.40 18.74 71.32 19.68 C 70.98 18.51 70.66 17.35 70.33 16.18 C 71.40 13.88 72.36 11.54 73.36 9.21 Z" />
<path fill="#4b514f" opacity="1.00" d=" M 77.34 11.34 C 79.32 10.58 81.49 10.54 83.56 10.19 C 83.05 14.14 82.03 20.44 86.73 22.23 C 87.06 19.77 87.16 17.27 87.72 14.85 C 89.14 12.95 91.58 12.30 93.58 11.16 C 95.94 12.17 98.37 13.01 100.81 13.79 C 100.47 15.93 99.97 18.05 99.34 20.12 C 100.48 20.84 101.56 22.00 103.04 21.77 C 105.75 20.73 108.28 19.28 111.00 18.26 L 111.00 41.68 C 109.00 41.67 106.97 41.64 105.05 41.04 C 101.00 39.80 96.74 39.74 92.59 39.09 C 96.21 34.77 99.58 30.13 101.43 24.75 C 99.28 26.01 97.25 27.46 95.28 28.98 C 95.29 28.20 95.32 26.64 95.33 25.87 C 94.64 25.49 93.95 25.11 93.26 24.73 C 92.67 26.22 92.42 27.97 91.18 29.09 C 84.95 31.07 78.38 31.61 72.08 33.33 C 72.33 33.39 72.83 33.53 73.08 33.60 C 78.47 35.65 84.06 32.60 89.61 33.23 C 87.68 34.69 86.15 36.82 83.89 37.73 C 79.71 37.88 75.42 37.95 71.39 36.67 C 70.79 34.78 69.83 33.00 68.09 31.93 C 64.18 29.19 60.40 26.01 55.93 24.24 C 52.67 24.83 49.40 24.56 46.89 22.15 C 48.03 21.18 49.17 20.21 50.31 19.24 C 53.46 19.65 56.64 19.65 59.80 19.31 C 63.12 19.39 66.48 19.92 69.73 18.92 C 70.32 20.26 71.23 21.42 72.42 22.28 C 72.01 17.94 74.04 14.05 77.34 11.34 M 100.90 36.89 C 103.60 35.74 106.17 33.89 106.93 30.89 C 104.57 32.43 101.81 34.04 100.90 36.89 Z" />
<path fill="#afae90" opacity="1.00" d=" M 11.48 29.07 C 12.13 23.22 13.64 17.45 16.21 12.14 C 16.61 15.21 15.42 18.13 14.88 21.09 C 13.20 29.27 14.17 37.68 13.49 45.93 C 10.80 40.76 10.85 34.71 11.48 29.07 Z" />
<path fill="#2a2d2d" opacity="1.00" d=" M 63.44 13.69 C 64.34 14.53 65.24 15.37 66.14 16.21 C 67.05 16.05 67.96 15.90 68.87 15.74 C 69.09 16.54 69.51 18.13 69.73 18.92 C 66.48 19.92 63.12 19.39 59.80 19.31 C 61.03 17.44 62.25 15.58 63.44 13.69 Z" />
<path fill="#707978" opacity="1.00" d=" M 73.08 33.60 C 80.45 31.84 88.66 32.20 95.13 27.77 C 94.23 30.38 91.60 31.59 89.61 33.23 C 84.06 32.60 78.47 35.65 73.08 33.60 Z" />
<path fill="#ac7746" opacity="1.00" d=" M 94.11 31.23 C 95.75 30.10 97.38 28.96 99.02 27.83 C 96.05 32.01 93.81 38.32 88.35 39.52 C 89.93 37.38 91.79 35.46 93.62 33.54 C 93.72 33.04 93.94 32.06 94.04 31.56 L 94.11 31.23 Z" />
<path fill="#5f6664" opacity="1.00" d=" M 100.90 36.89 C 101.81 34.04 104.57 32.43 106.93 30.89 C 106.17 33.89 103.60 35.74 100.90 36.89 Z" />
<path fill="#fdeb67" opacity="1.00" d=" M 81.55 42.99 C 84.44 38.08 89.85 35.28 94.04 31.56 C 93.94 32.06 93.72 33.04 93.62 33.54 C 91.79 35.46 89.93 37.38 88.35 39.52 C 85.85 40.16 83.70 41.62 81.55 42.99 Z" />
<path fill="#595d55" opacity="1.00" d=" M 48.83 33.01 L 49.49 33.34 C 51.08 34.49 52.49 35.86 53.84 37.27 C 55.07 39.39 57.13 40.69 59.24 41.79 C 59.15 42.31 58.97 43.34 58.89 43.86 C 56.26 42.74 53.60 41.52 51.48 39.56 C 49.96 37.71 49.41 35.29 48.83 33.01 Z" />
<path fill="#000000" opacity="1.00" d=" M 49.49 33.34 C 53.25 31.99 57.29 32.99 61.07 33.73 C 64.16 34.17 65.96 36.88 67.66 39.19 C 65.75 39.79 63.82 40.30 61.88 40.80 C 63.50 42.82 66.32 42.34 68.25 43.78 C 66.20 44.04 64.26 43.27 62.46 42.36 C 59.46 40.89 56.56 39.21 53.84 37.27 C 52.49 35.86 51.08 34.49 49.49 33.34 M 51.49 33.73 C 54.09 36.18 56.99 38.37 60.18 39.99 C 62.20 39.98 64.10 39.20 65.88 38.32 C 62.45 33.89 56.42 34.54 51.49 33.73 Z" />
<path fill="#7f225f" opacity="1.00" d=" M 51.49 33.73 C 56.42 34.54 62.45 33.89 65.88 38.32 C 64.10 39.20 62.20 39.98 60.18 39.99 C 56.99 38.37 54.09 36.18 51.49 33.73 Z" />
<path fill="#b5e881" opacity="1.00" d=" M 53.84 37.27 C 56.56 39.21 59.46 40.89 62.46 42.36 C 61.35 42.35 60.27 42.16 59.24 41.79 C 57.13 40.69 55.07 39.39 53.84 37.27 Z" />
<path fill="#e8b75a" opacity="1.00" d=" M 71.06 38.31 C 71.38 38.28 72.03 38.23 72.35 38.20 C 71.76 40.31 71.65 42.51 71.83 44.69 C 73.64 44.03 75.29 43.02 76.81 41.86 C 76.66 44.59 74.84 46.77 73.75 49.18 C 72.98 48.52 71.22 48.26 71.47 46.89 C 71.49 44.03 71.56 41.15 71.06 38.31 Z" />
<path fill="#ffdf5e" opacity="1.00" d=" M 71.83 44.69 C 71.65 42.51 71.76 40.31 72.35 38.20 C 74.23 38.90 75.68 40.25 76.81 41.86 C 75.29 43.02 73.64 44.03 71.83 44.69 Z" />
<path fill="#fdeb67" opacity="1.00" d=" M 76.85 39.30 C 78.63 39.37 80.41 39.45 82.19 39.58 C 81.29 41.01 79.59 41.15 78.09 41.55 C 77.68 40.80 77.26 40.05 76.85 39.30 Z" />
<path fill="#e2e18d" opacity="1.00" d=" M 84.82 42.32 C 90.34 39.11 96.50 42.11 102.35 42.03 C 99.34 44.49 95.08 43.38 91.49 43.82 C 89.24 43.46 87.03 42.89 84.82 42.32 Z" />
<path fill="#eab959" opacity="1.00" d=" M 102.35 42.03 C 105.79 47.91 107.46 56.82 101.83 61.98 C 102.67 59.43 103.33 56.84 103.81 54.21 C 103.39 54.31 102.56 54.51 102.14 54.61 C 102.67 52.48 102.59 50.26 101.35 48.39 C 99.93 47.13 98.37 46.01 96.63 45.23 C 96.73 45.85 96.92 47.09 97.02 47.71 L 97.79 46.74 C 98.25 47.50 99.17 49.00 99.63 49.76 C 96.17 48.62 92.52 48.55 88.92 48.63 C 86.94 47.58 84.91 46.62 82.66 46.34 C 82.69 45.68 82.76 44.37 82.80 43.72 C 86.44 44.37 90.48 44.14 93.66 46.30 C 94.38 45.91 95.10 45.52 95.81 45.12 C 94.35 44.74 92.91 44.31 91.49 43.82 C 95.08 43.38 99.34 44.49 102.35 42.03 Z" />
<path fill="#fdeb67" opacity="1.00" d=" M 78.03 48.39 C 78.29 46.23 77.91 41.78 81.37 42.67 L 81.27 43.98 C 81.19 44.47 81.04 45.45 80.97 45.94 C 80.02 46.79 79.02 47.59 78.03 48.39 Z" />
<path fill="#fdeb67" opacity="1.00" d=" M 104.22 42.87 C 105.36 42.46 106.74 44.23 106.68 45.31 C 106.32 45.28 105.59 45.22 105.22 45.18 C 104.97 44.61 104.47 43.45 104.22 42.87 Z" />
<path fill="#545953" opacity="1.00" d=" M 107.77 43.49 C 108.85 43.32 109.92 43.15 111.00 42.99 L 111.00 55.71 C 110.60 52.78 110.48 49.81 110.52 46.85 C 109.61 45.73 108.69 44.61 107.77 43.49 Z" />
<path fill="#da865d" opacity="1.00" d=" M 81.27 43.98 C 81.74 45.18 81.81 46.44 81.48 47.74 C 82.03 48.40 82.60 49.04 83.19 49.67 L 83.56 47.56 C 84.59 50.88 85.04 54.39 85.22 57.85 C 83.04 56.68 82.94 54.03 82.03 52.01 C 81.52 51.20 81.12 50.34 80.83 49.42 C 79.54 50.11 78.60 49.77 78.03 48.39 C 79.02 47.59 80.02 46.79 80.97 45.94 C 81.04 45.45 81.19 44.47 81.27 43.98 Z" />
<path fill="#282633" opacity="1.00" d=" M 55.48 44.95 C 56.20 46.09 56.89 47.25 57.58 48.41 C 58.58 47.31 59.59 46.20 60.58 45.09 C 63.57 47.32 66.04 50.46 66.66 54.23 C 67.72 60.90 66.66 68.79 60.89 73.10 C 60.00 72.70 59.11 72.31 58.21 71.91 C 58.76 71.26 59.30 70.62 59.85 69.97 C 59.30 68.71 58.76 67.44 58.23 66.16 C 59.68 62.03 57.58 57.55 54.49 54.77 C 54.24 55.49 53.73 56.93 53.47 57.65 L 53.36 57.95 C 52.21 54.65 50.66 51.52 49.45 48.24 C 52.06 48.87 54.08 50.64 56.00 52.41 C 57.42 50.93 58.79 49.37 59.64 47.48 C 58.18 48.63 56.75 49.82 55.35 51.04 L 55.39 49.95 C 55.43 48.28 55.46 46.62 55.48 44.95 Z" />
<path fill="#da865d" opacity="1.00" d=" M 105.22 45.18 C 105.59 45.22 106.32 45.28 106.68 45.31 L 107.70 45.34 C 109.27 49.91 109.20 55.35 106.25 59.38 C 107.48 54.55 106.12 49.88 105.22 45.18 Z" />
<path fill="#202b3a" opacity="1.00" d=" M 64.74 46.54 C 66.87 47.39 69.01 48.23 71.00 49.37 C 73.47 56.95 72.92 65.00 72.79 72.83 L 73.74 71.82 C 74.59 65.23 74.04 58.51 74.26 51.86 C 76.05 54.15 77.39 56.92 77.13 59.91 C 76.79 69.69 75.37 79.49 76.48 89.27 C 80.77 83.98 82.38 77.17 84.50 70.83 C 85.08 72.02 85.67 73.21 86.26 74.40 L 85.41 75.65 C 82.05 79.36 83.18 84.65 82.11 89.14 C 79.43 91.22 75.97 91.79 72.84 92.89 C 75.79 94.11 79.13 95.53 82.31 94.31 C 86.33 92.80 90.01 90.53 93.62 88.23 C 94.37 89.21 95.12 90.19 95.87 91.18 C 96.74 90.13 97.61 89.09 98.48 88.04 C 98.00 86.73 97.54 85.41 97.01 84.11 C 97.95 82.28 98.76 80.39 99.37 78.43 C 100.00 81.18 100.37 83.99 101.22 86.69 C 103.43 86.91 102.96 83.60 103.71 82.21 C 104.80 84.07 105.86 85.96 106.88 87.87 C 98.36 95.98 87.26 100.41 76.42 104.47 C 71.41 106.22 66.38 108.28 61.04 108.67 C 59.66 108.93 59.04 107.53 58.34 106.65 C 55.52 102.31 52.13 98.29 50.04 93.51 C 53.64 91.04 57.87 88.61 62.39 89.38 C 66.34 89.89 68.11 93.85 70.86 96.19 C 70.37 90.66 64.94 87.91 60.08 87.02 C 63.54 85.07 67.30 83.76 71.09 82.61 C 69.55 82.22 68.00 81.85 66.46 81.45 C 66.34 80.92 66.10 79.86 65.98 79.33 C 67.71 78.09 69.40 76.81 71.01 75.42 C 69.75 74.52 68.49 73.63 67.22 72.74 C 67.48 73.82 67.74 74.90 68.00 75.98 C 66.79 77.07 65.58 78.15 64.37 79.25 C 64.85 80.36 65.32 81.47 65.80 82.58 C 64.11 83.45 62.40 84.31 60.70 85.16 C 59.76 83.46 60.10 81.50 60.30 79.67 C 63.39 77.20 65.13 73.52 67.35 70.33 C 70.68 65.82 69.45 59.99 69.60 54.79 C 69.17 57.28 68.80 59.78 68.37 62.28 C 68.34 56.81 68.11 51.12 64.74 46.54 M 90.72 91.53 C 88.52 92.31 86.50 93.53 84.70 95.01 C 87.87 95.78 91.34 95.40 93.64 92.88 C 92.89 92.08 92.00 90.65 90.72 91.53 Z" />
<path fill="#343b3e" opacity="1.00" d=" M 75.63 48.82 C 77.22 47.06 77.67 51.51 77.01 52.49 C 75.82 52.37 75.12 50.77 75.31 49.68 C 75.39 49.46 75.55 49.03 75.63 48.82 Z" />
<path fill="#a6944b" opacity="1.00" d=" M 75.31 49.68 C 75.39 49.46 75.55 49.03 75.63 48.82 C 75.55 49.03 75.39 49.46 75.31 49.68 Z" />
<path fill="#da865d" opacity="1.00" d=" M 85.36 49.34 C 88.74 48.95 89.81 53.00 91.19 55.31 C 90.47 55.34 89.03 55.40 88.32 55.43 C 88.38 54.43 88.43 53.42 88.49 52.42 C 88.00 52.50 87.02 52.68 86.53 52.77 C 86.24 51.91 85.65 50.19 85.36 49.34 Z" />
<path fill="#81353d" opacity="1.00" d=" M 88.92 48.63 C 92.52 48.55 96.17 48.62 99.63 49.76 L 99.79 49.80 C 100.19 52.56 101.74 55.51 100.23 58.19 C 97.93 57.27 95.57 56.51 93.15 55.98 C 92.98 55.59 92.62 54.82 92.45 54.44 C 94.86 54.11 97.21 53.21 98.35 50.90 C 96.12 51.59 93.93 52.39 91.75 53.22 C 90.80 51.69 89.82 50.18 88.92 48.63 Z" />
<path fill="#7d7c67" opacity="1.00" d=" M 39.77 51.40 C 40.32 51.02 41.43 50.25 41.98 49.87 C 43.82 50.81 45.58 51.91 47.23 53.17 C 44.86 55.26 43.95 58.18 43.62 61.22 C 42.79 62.97 41.80 64.63 40.73 66.23 C 37.56 69.77 32.81 71.36 29.86 75.17 C 28.53 73.10 27.20 71.03 26.01 68.88 C 25.19 67.71 24.42 66.08 22.63 66.34 C 23.98 65.50 25.93 65.23 26.66 63.63 C 28.45 60.18 30.65 56.92 33.59 54.35 C 33.37 54.93 32.93 56.09 32.71 56.67 C 35.75 56.26 38.24 54.11 41.34 53.99 C 40.81 53.13 40.29 52.26 39.77 51.40 Z" />
<path fill="#41484a" opacity="1.00" d=" M 71.00 49.37 C 72.11 50.17 73.20 50.99 74.26 51.86 C 74.04 58.51 74.59 65.23 73.74 71.82 L 72.79 72.83 C 72.92 65.00 73.47 56.95 71.00 49.37 Z" />
<path fill="#b4b395" opacity="1.00" d=" M 33.59 54.35 C 35.39 52.94 37.33 51.74 39.20 50.44 L 39.77 51.40 C 40.29 52.26 40.81 53.13 41.34 53.99 C 38.24 54.11 35.75 56.26 32.71 56.67 C 32.93 56.09 33.37 54.93 33.59 54.35 Z" />
<path fill="#da865d" opacity="1.00" d=" M 79.76 50.86 C 81.12 55.13 81.70 59.63 83.21 63.87 C 84.22 66.33 83.25 68.93 82.66 71.36 C 82.65 68.44 82.38 65.29 79.78 63.45 C 79.69 62.23 79.58 61.01 79.45 59.79 C 78.93 61.90 78.45 64.02 78.20 66.17 C 78.53 61.06 78.10 55.78 79.76 50.86 Z" />
<path fill="#a9624e" opacity="1.00" d=" M 91.75 53.22 C 93.93 52.39 96.12 51.59 98.35 50.90 C 97.21 53.21 94.86 54.11 92.45 54.44 L 91.75 53.22 Z" />
<path fill="#66685c" opacity="1.00" d=" M 43.62 61.22 C 43.95 58.18 44.86 55.26 47.23 53.17 C 48.34 54.29 49.36 55.50 50.34 56.73 C 49.63 58.37 49.24 60.13 49.13 61.91 C 47.30 61.65 45.46 61.42 43.62 61.22 Z" />
<path fill="#373845" opacity="1.00" d=" M 54.49 54.77 C 57.58 57.55 59.68 62.03 58.23 66.16 C 57.44 66.13 55.88 66.05 55.10 66.01 C 54.67 63.20 54.15 60.41 53.47 57.65 C 53.73 56.93 54.24 55.49 54.49 54.77 Z" />
<path fill="#777764" opacity="1.00" d=" M 69.60 54.79 C 69.45 59.99 70.68 65.82 67.35 70.33 C 65.13 73.52 63.39 77.20 60.30 79.67 C 59.32 80.21 58.36 80.74 57.39 81.29 C 57.90 79.91 58.25 78.48 58.50 77.03 C 58.65 76.16 58.79 75.29 58.95 74.42 C 64.91 73.84 67.26 67.31 68.37 62.28 C 68.80 59.78 69.17 57.28 69.60 54.79 Z" />
<path fill="#2e3740" opacity="1.00" d=" M 100.81 66.86 C 104.95 64.03 107.00 59.18 111.00 56.21 L 111.00 58.26 C 109.58 59.55 108.11 60.80 106.90 62.30 C 104.82 64.73 102.90 67.31 100.52 69.48 C 98.37 71.16 97.20 73.63 96.10 76.06 C 98.13 70.37 96.75 64.36 96.08 58.56 C 97.46 58.96 98.83 59.41 100.21 59.84 C 100.24 62.19 100.41 64.54 100.81 66.86 Z" />
<path fill="#747563" opacity="1.00" d=" M 91.35 58.54 C 92.93 58.45 94.51 58.46 96.08 58.56 C 96.75 64.36 98.13 70.37 96.10 76.06 C 97.20 73.63 98.37 71.16 100.52 69.48 C 100.73 70.43 101.15 72.33 101.36 73.27 C 103.50 69.77 105.94 66.36 106.90 62.30 C 108.11 60.80 109.58 59.55 111.00 58.26 L 111.00 62.76 C 107.37 66.91 104.74 71.97 104.27 77.54 C 103.44 76.24 102.62 74.95 101.78 73.67 C 100.52 75.00 99.85 76.69 99.37 78.43 C 98.76 80.39 97.95 82.28 97.01 84.11 C 96.18 82.49 95.29 80.90 94.41 79.31 C 91.70 83.45 89.44 88.38 84.63 90.49 C 83.93 88.80 85.17 87.34 85.88 85.92 C 87.81 82.68 88.85 79.03 90.12 75.51 C 92.25 70.73 92.48 65.43 93.18 60.32 C 92.19 61.80 91.18 63.27 90.40 64.87 C 89.98 63.76 89.39 62.72 88.80 61.70 C 89.71 60.69 90.56 59.64 91.35 58.54 Z" />
<path fill="#343c43" opacity="1.00" d=" M 84.05 59.89 C 86.48 59.39 88.90 58.87 91.35 58.54 C 90.56 59.64 89.71 60.69 88.80 61.70 C 89.39 62.72 89.98 63.76 90.40 64.87 C 89.26 68.14 88.18 71.48 86.26 74.40 C 85.67 73.21 85.08 72.02 84.50 70.83 C 86.00 67.24 85.12 63.45 84.05 59.89 Z" />
<path fill="#fdeb67" opacity="1.00" d=" M 78.20 66.17 C 78.45 64.02 78.93 61.90 79.45 59.79 C 79.58 61.01 79.69 62.23 79.78 63.45 C 79.83 67.74 80.28 72.00 80.92 76.24 C 80.27 79.42 79.11 82.52 77.52 85.35 C 77.56 78.96 77.75 72.55 78.20 66.17 Z" />
<path fill="#555853" opacity="1.00" d=" M 43.62 61.22 C 45.46 61.42 47.30 61.65 49.13 61.91 L 48.60 62.89 C 46.63 65.16 43.92 67.28 40.73 66.23 C 41.80 64.63 42.79 62.97 43.62 61.22 Z" />
<path fill="#959782" opacity="1.00" d=" M 90.40 64.87 C 91.18 63.27 92.19 61.80 93.18 60.32 C 92.48 65.43 92.25 70.73 90.12 75.51 C 90.05 73.75 89.96 71.98 89.85 70.22 C 88.70 71.88 87.81 73.79 86.47 75.26 L 85.41 75.65 L 86.26 74.40 C 88.18 71.48 89.26 68.14 90.40 64.87 Z" />
<path fill="#333c43" opacity="1.00" d=" M 40.73 66.23 C 43.92 67.28 46.63 65.16 48.60 62.89 C 48.77 65.20 48.84 67.52 48.86 69.85 C 47.24 70.06 45.62 70.27 44.00 70.47 C 44.46 72.70 45.30 74.90 45.20 77.20 C 43.61 75.91 42.01 74.63 40.20 73.67 C 39.06 75.80 37.92 77.94 36.77 80.08 C 34.19 78.93 31.38 77.70 29.86 75.17 C 32.81 71.36 37.56 69.77 40.73 66.23 Z" />
<path fill="#959780" opacity="1.00" d=" M 100.52 69.48 C 102.90 67.31 104.82 64.73 106.90 62.30 C 105.94 66.36 103.50 69.77 101.36 73.27 C 101.15 72.33 100.73 70.43 100.52 69.48 Z" />
<path fill="#c89c4c" opacity="1.00" d=" M 79.78 63.45 C 82.38 65.29 82.65 68.44 82.66 71.36 C 82.39 73.07 81.97 74.82 80.92 76.24 C 80.28 72.00 79.83 67.74 79.78 63.45 Z" />
<path fill="#474b58" opacity="1.00" d=" M 55.10 66.01 C 55.88 66.05 57.44 66.13 58.23 66.16 C 58.76 67.44 59.30 68.71 59.85 69.97 C 59.30 70.62 58.76 71.26 58.21 71.91 L 57.77 72.44 C 58.11 76.93 53.95 79.57 50.70 81.82 C 47.76 83.91 43.96 83.50 40.65 82.71 L 40.84 82.20 C 41.42 80.66 42.02 79.13 42.66 77.62 C 43.22 77.91 44.33 78.48 44.89 78.77 C 45.74 77.88 46.59 76.99 47.45 76.10 C 47.02 74.79 46.59 73.49 46.16 72.19 C 49.72 71.13 53.06 69.20 55.10 66.01 Z" />
<path fill="#717261" opacity="1.00" d=" M 105.93 77.93 C 106.23 73.25 108.13 68.88 111.00 65.21 L 111.00 80.24 C 109.34 79.40 107.63 78.67 105.93 77.93 Z" />
<path fill="#7e7d67" opacity="1.00" d=" M 22.98 68.39 C 23.51 69.02 24.01 69.66 24.50 70.31 C 22.75 74.59 22.94 79.27 24.52 83.56 C 21.58 85.36 18.65 87.19 15.64 88.87 C 11.63 89.96 7.54 90.77 3.53 91.86 C 2.34 92.14 1.17 92.45 0.00 92.80 L 0.00 84.40 C 3.55 80.34 10.51 83.04 13.73 78.46 C 17.25 75.63 21.98 73.20 22.98 68.39 Z" />
<path fill="#5b5e56" opacity="1.00" d=" M 86.47 75.26 C 87.81 73.79 88.70 71.88 89.85 70.22 C 89.96 71.98 90.05 73.75 90.12 75.51 C 88.85 79.03 87.81 82.68 85.88 85.92 C 85.17 87.34 83.93 88.80 84.63 90.49 C 89.44 88.38 91.70 83.45 94.41 79.31 C 95.29 80.90 96.18 82.49 97.01 84.11 C 97.54 85.41 98.00 86.73 98.48 88.04 C 97.61 89.09 96.74 90.13 95.87 91.18 C 95.12 90.19 94.37 89.21 93.62 88.23 C 90.01 90.53 86.33 92.80 82.31 94.31 C 79.13 95.53 75.79 94.11 72.84 92.89 C 75.97 91.79 79.43 91.22 82.11 89.14 C 83.18 84.65 82.05 79.36 85.41 75.65 L 86.47 75.26 Z" />
<path fill="#a8a78c" opacity="1.00" d=" M 25.27 70.84 C 26.55 72.08 27.34 73.69 28.13 75.26 C 25.78 78.96 27.68 83.44 27.33 87.52 C 25.28 82.24 23.44 76.48 25.27 70.84 Z" />
<path fill="#545953" opacity="1.00" d=" M 99.37 78.43 C 99.85 76.69 100.52 75.00 101.78 73.67 C 102.62 74.95 103.44 76.24 104.27 77.54 C 104.06 79.09 103.92 80.65 103.71 82.21 C 102.96 83.60 103.43 86.91 101.22 86.69 C 100.37 83.99 100.00 81.18 99.37 78.43 Z" />
<path fill="#7b7a66" opacity="1.00" d=" M 27.33 87.52 C 27.68 83.44 25.78 78.96 28.13 75.26 C 29.06 76.85 30.23 78.33 31.87 79.24 C 37.11 82.38 42.97 86.42 49.40 84.31 C 50.06 84.58 51.40 85.12 52.07 85.39 C 48.57 88.53 45.44 92.07 42.63 95.83 C 40.52 98.57 38.80 101.56 37.16 104.60 C 32.99 99.49 29.64 93.70 27.33 87.52 Z" />
<path fill="#2a2936" opacity="1.00" d=" M 40.30 75.83 C 41.15 76.28 42.02 76.67 42.92 77.01 L 42.66 77.62 C 42.02 79.13 41.42 80.66 40.84 82.20 C 39.84 81.79 38.82 81.41 37.80 81.04 C 38.62 79.30 39.45 77.56 40.30 75.83 Z" />
<path fill="#9d9c83" opacity="1.00" d=" M 49.40 84.31 C 52.82 82.41 55.69 79.73 58.50 77.03 C 58.25 78.48 57.90 79.91 57.39 81.29 C 55.53 82.55 53.75 83.91 52.07 85.39 C 51.40 85.12 50.06 84.58 49.40 84.31 Z" />
<path fill="#242e3b" opacity="1.00" d=" M 105.93 77.93 C 107.63 78.67 109.34 79.40 111.00 80.24 L 111.00 93.88 C 108.34 92.30 109.07 88.77 107.63 86.37 C 106.21 83.78 105.40 80.89 105.93 77.93 Z" />
<path fill="#a9a98b" opacity="1.00" d=" M 1.11 80.69 C 5.44 80.91 9.71 80.05 13.73 78.46 C 10.51 83.04 3.55 80.34 0.00 84.40 L 0.00 82.05 C 0.28 81.71 0.83 81.03 1.11 80.69 Z" />
<path fill="#3a4146" opacity="1.00" d=" M 57.39 81.29 C 58.36 80.74 59.32 80.21 60.30 79.67 C 60.10 81.50 59.76 83.46 60.70 85.16 C 54.46 88.43 48.35 92.43 44.14 98.20 C 43.76 97.61 43.01 96.42 42.63 95.83 C 45.44 92.07 48.57 88.53 52.07 85.39 C 53.75 83.91 55.53 82.55 57.39 81.29 Z" />
<path fill="#242e3b" opacity="1.00" d=" M 24.52 83.56 C 26.20 90.25 29.58 96.31 33.28 102.08 C 31.26 103.58 29.33 105.32 26.94 106.20 C 24.30 106.32 21.67 105.72 19.02 105.94 C 17.23 106.71 15.67 107.91 14.03 108.96 C 10.24 108.38 6.40 108.13 2.56 108.18 C 5.63 105.86 8.81 103.66 12.35 102.11 C 15.99 100.47 19.67 98.92 23.20 97.05 C 21.30 94.17 18.58 92.04 15.57 90.42 C 15.59 90.04 15.63 89.26 15.64 88.87 C 18.65 87.19 21.58 85.36 24.52 83.56 Z" />
<path fill="#41484a" opacity="1.00" d=" M 3.53 91.86 C 7.54 90.77 11.63 89.96 15.64 88.87 C 15.63 89.26 15.59 90.04 15.57 90.42 C 18.58 92.04 21.30 94.17 23.20 97.05 C 19.67 98.92 15.99 100.47 12.35 102.11 C 11.81 99.43 11.86 96.26 9.73 94.24 C 7.88 92.99 5.64 92.50 3.53 91.86 Z" />
<path fill="#444b4e" opacity="1.00" d=" M 90.72 91.53 C 92.00 90.65 92.89 92.08 93.64 92.88 C 91.34 95.40 87.87 95.78 84.70 95.01 C 86.50 93.53 88.52 92.31 90.72 91.53 Z" />
<path fill="#212425" opacity="1.00" d=" M 100.32 95.16 C 102.47 93.28 104.74 91.54 107.28 90.21 C 107.41 91.71 107.52 93.22 107.63 94.72 C 108.75 94.89 109.87 95.05 111.00 95.22 L 111.00 95.44 C 107.80 97.01 104.68 98.72 101.60 100.52 C 101.19 101.79 100.77 103.06 100.35 104.33 C 95.89 105.66 91.85 108.01 88.29 111.00 L 79.38 111.00 C 84.32 108.91 89.41 107.10 94.00 104.26 C 96.21 103.16 98.86 102.35 100.08 100.00 C 101.04 98.55 100.34 96.75 100.32 95.16 Z" />
<path fill="#4f5450" opacity="1.00" d=" M 0.00 92.80 C 1.17 92.45 2.34 92.14 3.53 91.86 C 5.64 92.50 7.88 92.99 9.73 94.24 C 11.86 96.26 11.81 99.43 12.35 102.11 C 8.81 103.66 5.63 105.86 2.56 108.18 C 1.70 108.49 0.85 108.81 0.00 109.14 L 0.00 92.80 Z" />
<path fill="#505450" opacity="1.00" d=" M 37.16 104.60 C 38.80 101.56 40.52 98.57 42.63 95.83 C 43.01 96.42 43.76 97.61 44.14 98.20 C 42.23 101.28 41.36 104.82 40.43 108.28 C 39.33 107.07 38.21 105.86 37.16 104.60 Z" />
<path fill="#494e4e" opacity="1.00" d=" M 48.42 95.28 C 51.24 99.00 53.76 102.94 56.59 106.66 C 52.30 104.98 49.45 101.11 46.40 97.86 C 46.90 97.21 47.91 95.92 48.42 95.28 Z" />
<path fill="#484e4d" opacity="1.00" d=" M 91.63 99.79 C 94.56 98.31 97.52 96.88 100.32 95.16 C 100.34 96.75 101.04 98.55 100.08 100.00 C 98.86 102.35 96.21 103.16 94.00 104.26 C 94.64 103.09 95.25 101.90 95.87 100.72 C 94.45 100.41 93.04 100.10 91.63 99.79 Z" />
<path fill="#323736" opacity="1.00" d=" M 101.60 100.52 C 104.68 98.72 107.80 97.01 111.00 95.44 L 111.00 99.69 C 105.25 104.69 98.13 107.40 91.54 111.00 L 88.29 111.00 C 91.85 108.01 95.89 105.66 100.35 104.33 C 100.77 103.06 101.19 101.79 101.60 100.52 Z" />
<path fill="#202324" opacity="1.00" d=" M 43.45 104.41 C 43.11 101.91 45.14 99.83 46.40 97.86 C 49.45 101.11 52.30 104.98 56.59 106.66 C 57.65 107.87 58.72 109.11 60.09 109.98 C 62.77 110.31 65.46 109.61 68.08 109.08 C 68.21 109.56 68.48 110.52 68.61 111.00 L 53.34 111.00 C 49.90 109.06 46.27 107.24 43.45 104.41 Z" />
<path fill="#707978" opacity="1.00" d=" M 73.53 107.17 C 79.68 105.02 85.79 102.70 91.63 99.79 C 93.04 100.10 94.45 100.41 95.87 100.72 C 95.25 101.90 94.64 103.09 94.00 104.26 C 89.41 107.10 84.32 108.91 79.38 111.00 L 75.78 111.00 C 76.53 110.28 77.26 109.54 77.98 108.81 C 76.50 108.26 75.02 107.71 73.53 107.17 Z" />
<path fill="#202324" opacity="1.00" d=" M 91.54 111.00 C 98.13 107.40 105.25 104.69 111.00 99.69 L 111.00 111.00 L 91.54 111.00 Z" />
<path fill="#444949" opacity="1.00" d=" M 68.08 109.08 C 69.92 108.51 71.72 107.83 73.53 107.17 C 75.02 107.71 76.50 108.26 77.98 108.81 C 77.26 109.54 76.53 110.28 75.78 111.00 L 68.61 111.00 C 68.48 110.52 68.21 109.56 68.08 109.08 Z" />
</svg>
