<?xml version="1.0" encoding="UTF-8" ?>
<!DOCTYPE svg PUBLIC "-//W3C//DTD SVG 1.1//EN" "http://www.w3.org/Graphics/SVG/1.1/DTD/svg11.dtd">
<svg width="111pt" height="111pt" viewBox="0 0 111 111" version="1.1" xmlns="http://www.w3.org/2000/svg">
<path fill="#0c0e10" opacity="1.00" d=" M 64.11 8.55 C 64.99 6.57 65.86 4.59 66.81 2.65 C 67.07 5.57 66.50 8.69 67.50 11.49 C 69.79 14.37 72.31 17.06 74.31 20.16 C 76.83 17.72 79.14 14.83 82.46 13.44 C 85.32 12.19 88.57 13.03 91.21 14.44 C 91.29 14.50 91.44 14.61 91.52 14.67 C 94.81 17.62 96.51 21.95 95.82 26.35 C 93.82 25.49 91.83 24.63 89.79 23.87 C 89.76 26.89 90.44 29.84 91.80 32.54 C 94.70 31.72 97.62 30.92 100.56 30.24 C 100.65 26.29 100.55 22.11 98.33 18.67 C 96.19 14.56 92.05 12.25 88.60 9.41 C 87.21 8.30 85.59 6.03 87.52 4.61 C 95.45 2.74 104.03 4.18 111.00 8.41 L 111.00 10.05 C 104.50 6.08 96.78 4.11 89.20 5.63 C 89.09 5.99 88.86 6.71 88.74 7.07 C 92.12 10.76 96.97 13.07 99.40 17.62 C 101.89 21.49 102.00 26.18 102.61 30.59 C 106.41 26.41 107.66 20.60 111.00 16.06 L 111.00 19.08 C 109.01 22.56 107.14 26.12 105.59 29.83 C 107.39 30.06 109.20 30.29 111.00 30.52 L 111.00 32.12 C 108.52 31.67 105.99 31.52 103.48 31.86 C 105.47 34.56 108.54 36.08 111.00 38.27 L 111.00 41.03 C 108.93 38.48 106.27 36.50 103.37 35.00 C 100.37 42.13 99.49 49.87 99.72 57.55 C 99.77 59.89 99.69 62.29 100.42 64.53 C 103.65 68.16 107.76 70.90 111.00 74.54 L 111.00 76.39 C 109.05 74.54 107.06 72.72 105.11 70.87 C 102.22 67.96 98.01 67.25 94.43 65.56 C 89.85 63.48 85.05 61.15 82.04 56.96 C 79.27 53.44 77.73 48.52 73.06 47.01 C 74.85 46.80 76.63 46.56 78.40 46.22 C 85.40 44.89 87.99 36.65 86.56 30.45 C 85.37 27.36 81.75 26.60 79.06 25.35 C 79.52 26.94 80.00 28.53 80.50 30.11 C 79.44 28.90 78.34 27.73 77.18 26.62 C 75.91 25.66 74.57 24.82 73.25 23.95 C 71.80 28.08 70.00 32.08 67.93 35.95 C 68.60 35.75 69.27 35.55 69.94 35.35 C 69.47 37.22 68.85 39.07 68.70 41.00 C 68.93 43.22 70.52 44.93 72.02 46.45 C 70.41 48.59 68.53 50.57 67.35 53.00 C 67.93 54.85 69.06 56.44 70.10 58.06 C 70.42 56.31 70.66 54.55 70.91 52.79 C 75.52 57.64 79.79 62.85 84.71 67.37 C 89.75 70.11 95.63 70.79 100.77 73.29 C 103.11 74.48 101.81 77.61 102.23 79.72 C 101.27 77.92 100.32 76.13 99.43 74.31 C 94.99 72.81 90.36 71.83 86.06 69.94 C 82.77 68.58 80.59 65.66 78.32 63.06 C 76.17 65.87 74.53 69.02 73.01 72.21 C 73.13 67.32 73.78 62.31 71.95 57.63 C 69.56 60.49 67.09 63.54 66.24 67.26 C 65.60 71.20 67.94 75.07 71.15 77.21 C 68.15 79.37 65.44 81.99 64.07 85.51 C 63.01 87.50 61.72 89.38 60.17 91.03 C 61.27 93.25 62.47 95.42 63.44 97.70 C 61.54 96.07 60.00 94.09 58.42 92.17 C 57.74 94.64 57.18 97.14 56.46 99.60 C 56.34 97.75 56.23 95.90 56.11 94.06 C 53.81 97.80 52.80 102.29 49.80 105.61 C 50.69 100.86 53.64 96.79 54.35 92.00 C 54.59 89.73 55.79 87.75 56.66 85.68 C 55.38 87.12 54.19 88.64 52.97 90.13 C 52.47 89.49 51.47 88.22 50.97 87.58 C 51.08 92.64 46.03 95.59 44.66 100.05 C 45.71 104.03 47.75 107.70 50.19 111.00 L 48.31 111.00 C 45.84 107.33 43.73 103.31 42.98 98.91 C 42.21 95.24 42.73 91.49 42.62 87.78 C 43.21 87.06 43.79 86.33 44.37 85.60 C 44.00 89.51 43.72 93.45 44.06 97.38 C 46.82 93.82 47.87 89.38 49.08 85.13 C 49.72 83.04 49.31 80.85 49.10 78.73 C 44.84 81.48 40.98 84.78 37.26 88.21 C 37.85 89.48 38.44 90.75 39.03 92.02 C 34.52 97.28 31.49 103.98 31.59 111.00 L 29.68 111.00 C 29.72 106.23 30.81 101.56 32.95 97.29 C 28.70 91.53 25.34 85.17 22.63 78.56 C 19.23 80.68 16.37 83.51 13.90 86.64 C 11.27 90.14 7.83 93.19 6.34 97.42 C 4.68 101.75 5.31 106.47 5.24 111.00 L 1.04 111.00 C 2.03 107.03 2.55 102.93 4.05 99.10 C 4.97 96.30 6.68 93.66 6.59 90.62 C 6.60 90.17 6.62 89.27 6.63 88.82 C 4.39 89.67 2.17 90.53 0.00 91.55 L 0.00 87.76 C 5.27 82.60 11.21 77.85 18.43 75.82 C 13.67 70.84 6.15 70.73 0.00 72.82 L 0.00 71.08 C 3.52 70.27 7.21 69.49 10.82 70.23 C 14.23 70.92 17.12 72.96 20.00 74.80 C 19.07 68.95 18.49 63.06 18.13 57.15 C 12.64 53.21 6.36 50.75 0.00 48.63 L 0.00 47.56 C 6.85 48.71 12.58 52.67 18.81 55.41 C 15.14 49.41 7.68 47.84 1.93 44.51 C 2.37 43.11 2.28 41.10 4.18 40.92 C 9.05 39.93 14.04 40.89 18.92 41.30 C 19.84 33.58 21.03 25.80 20.31 18.01 C 19.86 13.16 17.91 8.66 16.69 3.99 C 25.72 4.44 34.00 8.75 41.10 14.08 C 44.03 11.65 46.91 8.90 50.64 7.77 C 55.08 6.47 59.74 7.42 64.11 8.55 M 19.05 5.66 C 23.95 16.87 22.54 29.34 20.53 41.03 L 20.94 41.82 C 26.18 43.86 31.30 46.32 35.78 49.78 C 36.40 45.81 38.24 42.13 38.72 38.15 C 37.88 35.28 35.49 33.48 33.08 31.98 C 36.10 28.62 34.85 23.78 35.95 19.70 C 36.43 20.58 36.96 21.42 37.48 22.28 C 34.83 24.54 36.28 29.54 39.63 30.26 C 39.60 29.32 39.56 28.39 39.53 27.45 C 40.73 26.85 41.61 25.65 40.65 24.39 C 38.89 20.63 38.26 16.44 36.34 12.74 C 35.98 13.91 35.68 15.09 35.43 16.29 L 34.95 15.57 C 35.05 14.70 35.26 12.97 35.36 12.11 C 33.62 11.22 31.87 10.35 30.06 9.60 C 27.57 8.16 24.76 7.37 21.96 6.80 C 21.03 6.34 20.06 5.95 19.05 5.66 M 54.29 9.13 C 48.89 10.62 43.16 13.13 40.19 18.13 C 40.68 20.85 42.05 23.29 43.10 25.81 C 45.58 25.52 47.49 23.90 49.51 22.61 C 51.22 21.51 53.77 21.97 54.90 20.03 C 55.78 20.20 56.67 20.36 57.56 20.51 C 57.13 19.33 56.68 18.16 56.21 16.99 C 57.12 18.19 58.09 19.34 59.08 20.47 C 55.63 22.54 52.41 24.95 49.18 27.33 C 51.04 28.96 53.19 30.23 55.50 31.12 C 53.98 31.42 52.42 31.14 50.89 31.07 C 51.74 32.79 52.59 34.51 53.41 36.25 C 52.74 37.32 52.11 38.41 51.49 39.52 C 50.82 39.62 49.46 39.83 48.78 39.94 C 50.80 44.42 57.01 46.30 61.30 44.32 C 64.22 42.47 63.19 39.14 62.11 36.53 C 61.91 35.39 61.69 34.25 61.46 33.12 C 61.78 32.98 62.41 32.71 62.73 32.57 C 63.40 35.94 64.23 39.32 65.90 42.35 C 67.02 36.39 66.29 30.34 66.07 24.34 L 65.48 24.50 C 64.93 22.71 63.88 21.26 62.07 20.61 L 62.12 19.83 C 63.12 19.59 64.12 19.32 65.12 19.04 C 65.06 20.95 66.30 22.61 66.97 24.33 C 68.53 22.83 70.10 21.34 71.66 19.84 C 70.28 18.80 68.75 18.01 67.11 17.47 C 68.03 16.93 68.94 16.37 69.85 15.81 C 67.67 14.74 65.67 13.21 65.13 10.71 C 64.01 10.46 62.88 10.20 61.76 9.92 C 59.36 9.16 56.79 8.34 54.29 9.13 M 76.95 22.36 C 78.70 23.00 80.43 23.70 82.14 24.46 C 84.30 23.33 86.44 21.68 89.00 21.78 C 91.13 22.19 93.04 23.25 95.06 23.98 C 94.18 21.19 93.00 18.32 90.58 16.51 C 85.88 12.34 77.39 16.18 76.95 22.36 M 68.23 25.27 C 68.40 27.58 68.44 29.89 68.51 32.20 C 69.64 29.02 70.64 25.79 71.75 22.60 C 70.56 23.47 69.40 24.37 68.23 25.27 M 83.91 25.00 C 85.91 27.38 88.56 29.76 88.61 33.11 C 88.60 36.01 87.82 38.92 86.49 41.50 C 84.72 44.79 81.18 46.42 78.07 48.16 C 79.23 49.77 80.41 51.37 81.62 52.94 C 84.65 48.07 87.74 43.17 89.76 37.77 C 92.03 32.84 87.66 28.12 88.46 23.03 C 86.94 23.68 85.43 24.34 83.91 25.00 M 49.25 24.15 C 49.91 24.78 49.91 24.78 49.25 24.15 M 41.22 32.44 C 41.81 33.35 42.39 34.26 42.97 35.17 C 43.80 36.44 44.64 37.71 45.50 38.97 C 45.70 38.32 46.10 37.02 46.30 36.37 C 48.20 36.29 50.09 36.21 51.99 36.11 C 51.19 34.77 50.39 33.43 49.58 32.10 C 48.96 30.80 48.36 29.49 47.77 28.18 C 45.03 28.64 43.32 30.88 41.22 32.44 M 35.29 30.13 C 34.78 31.55 35.23 32.01 36.64 31.52 C 37.16 30.09 36.71 29.62 35.29 30.13 M 101.48 31.30 C 100.57 31.52 98.30 31.36 98.49 32.77 C 99.58 33.37 100.75 33.48 102.00 33.08 C 103.71 32.91 102.94 30.74 101.48 31.30 M 37.62 31.64 C 38.47 34.23 39.87 36.58 41.10 38.99 C 39.66 41.86 38.40 44.86 37.79 48.02 C 37.12 51.50 39.01 55.44 42.58 56.38 C 44.96 55.97 47.77 55.61 49.12 53.31 C 50.72 49.72 48.01 45.79 44.17 45.62 C 43.73 46.22 42.84 47.42 42.40 48.02 C 42.05 48.69 41.71 49.38 41.38 50.07 C 40.59 47.63 42.61 45.78 43.86 43.96 C 47.35 44.51 49.81 47.05 51.41 50.04 C 55.44 49.96 59.17 48.29 62.48 46.12 C 58.65 45.50 54.12 46.83 50.92 44.07 C 48.39 41.96 45.77 39.82 42.49 39.02 C 41.16 36.45 40.90 32.30 37.62 31.64 M 94.23 35.18 C 93.99 38.55 93.69 41.92 93.35 45.29 C 95.98 41.96 98.52 38.41 99.43 34.19 C 97.69 34.50 95.96 34.84 94.23 35.18 M 96.98 42.97 C 94.20 47.16 90.25 50.37 87.32 54.44 C 87.45 55.54 87.65 56.62 87.91 57.70 C 89.39 62.17 94.09 63.79 98.29 64.59 C 98.24 60.71 98.01 56.84 97.80 52.97 C 98.57 46.75 99.81 40.61 101.71 34.64 C 99.93 37.30 98.85 40.36 96.98 42.97 M 65.65 45.72 C 64.78 45.14 63.90 44.55 63.03 43.97 C 64.02 47.05 62.61 49.72 60.77 52.12 C 63.94 50.94 66.56 48.81 68.56 46.11 C 68.29 44.68 68.03 43.25 67.76 41.82 C 67.04 43.11 66.34 44.41 65.65 45.72 M 3.11 43.62 C 11.45 47.11 19.75 51.34 25.79 58.26 C 23.72 58.64 22.11 57.29 20.55 56.17 C 20.52 61.61 20.10 67.12 21.52 72.45 C 22.18 76.44 25.13 79.42 27.49 82.52 C 26.97 84.00 28.00 85.57 28.19 87.06 C 30.26 85.25 32.58 83.45 33.65 80.83 C 33.41 78.43 32.28 76.24 31.47 73.99 C 30.13 70.98 28.65 68.03 26.90 65.23 C 27.56 64.34 28.22 63.45 28.89 62.57 C 32.02 67.33 34.54 72.48 36.17 77.96 C 36.67 77.68 37.69 77.12 38.19 76.84 C 41.15 74.24 44.56 71.93 46.44 68.36 C 46.99 67.20 47.86 65.62 46.74 64.49 C 44.99 62.04 42.69 60.06 40.53 58.00 C 39.13 56.43 37.74 54.85 36.35 53.27 C 34.70 51.34 32.90 49.54 30.72 48.20 C 29.95 47.97 29.18 47.72 28.39 47.55 C 22.88 43.93 16.04 42.54 9.53 42.72 C 7.41 41.90 4.99 42.44 3.11 43.62 M 51.03 50.82 C 50.53 52.35 50.03 53.89 49.58 55.44 C 51.63 54.25 53.49 52.77 55.12 51.06 C 53.76 50.97 52.39 50.89 51.03 50.82 M 55.09 54.27 C 53.72 53.18 51.62 54.91 51.77 56.46 L 51.35 56.41 C 51.05 56.83 50.45 57.68 50.15 58.10 C 48.88 58.65 48.59 59.53 49.29 60.74 C 50.67 61.76 51.91 59.27 50.84 58.32 C 51.17 58.43 51.83 58.64 52.17 58.75 C 52.28 60.85 52.68 62.96 52.45 65.07 C 51.78 67.28 50.26 69.08 49.13 71.06 C 51.71 68.83 52.87 65.70 53.33 62.40 C 53.40 60.17 55.66 59.31 57.22 58.22 C 57.36 60.60 57.32 62.99 57.52 65.36 C 58.41 63.44 58.53 61.32 58.66 59.25 C 57.74 58.53 56.83 57.82 55.91 57.11 C 57.73 56.43 59.71 56.48 61.61 56.18 C 61.48 56.61 61.22 57.46 61.09 57.88 C 61.61 57.72 62.66 57.38 63.18 57.21 C 63.71 55.80 64.27 54.41 64.83 53.02 C 64.24 53.11 63.06 53.29 62.47 53.39 C 62.36 53.75 62.15 54.48 62.04 54.84 C 59.81 54.67 56.75 52.09 55.09 54.27 M 66.67 54.92 C 66.12 56.56 65.59 58.21 65.07 59.86 C 66.00 59.37 66.94 58.88 67.88 58.39 C 67.50 57.22 67.10 56.07 66.67 54.92 M 43.28 57.79 C 44.68 59.22 46.08 60.64 47.49 62.06 C 47.92 59.92 48.40 57.78 48.92 55.66 C 47.05 56.40 45.17 57.10 43.28 57.79 M 64.33 62.47 C 63.28 63.20 63.04 65.62 64.66 65.76 C 66.72 65.62 66.60 61.20 64.33 62.47 M 50.20 64.20 C 48.87 64.19 48.42 66.60 49.94 66.68 C 51.27 66.70 51.71 64.26 50.20 64.20 M 55.34 65.07 C 55.78 67.86 55.19 70.71 55.97 73.45 C 56.89 72.07 57.72 70.64 58.54 69.21 C 57.39 67.90 56.30 66.53 55.34 65.07 M 60.22 65.45 C 59.32 66.62 59.57 67.31 60.96 67.51 C 61.86 66.33 61.61 65.65 60.22 65.45 M 40.61 76.64 C 36.18 80.22 32.74 84.78 29.07 89.09 C 30.17 90.17 31.51 90.91 32.97 91.37 C 33.42 92.79 33.77 94.24 34.14 95.69 C 34.78 94.76 35.43 93.83 36.08 92.91 C 35.04 92.08 34.02 91.22 33.03 90.34 C 37.18 84.86 43.83 82.14 48.15 76.86 C 48.84 74.58 47.79 72.16 47.66 69.85 C 45.45 72.25 43.19 74.62 40.61 76.64 M 52.32 70.19 C 51.44 71.11 51.38 73.40 52.88 73.71 C 54.92 73.50 54.41 69.08 52.32 70.19 M 60.11 70.36 C 59.17 71.52 59.40 72.19 60.80 72.35 C 61.75 71.17 61.52 70.51 60.11 70.36 M 62.27 72.27 C 61.38 72.92 60.54 74.38 61.29 75.42 C 63.11 76.33 64.75 71.43 62.27 72.27 M 50.12 73.46 C 49.21 74.61 49.47 75.27 50.89 75.43 C 51.81 74.28 51.55 73.62 50.12 73.46 M 58.09 73.39 C 56.57 76.39 61.43 73.50 58.09 73.39 M 52.96 76.16 C 53.75 77.61 54.54 79.10 55.76 80.24 C 55.43 78.14 54.84 76.10 54.35 74.03 C 53.89 74.74 53.43 75.45 52.96 76.16 M 2.43 88.15 C 5.12 87.93 7.84 87.95 10.52 87.53 C 12.60 85.65 14.35 83.40 16.59 81.68 C 18.13 80.34 20.17 79.26 20.65 77.09 C 13.49 78.46 7.20 82.77 2.43 88.15 M 50.64 78.31 C 49.63 79.11 50.74 81.24 51.97 80.47 C 53.11 79.66 51.88 77.57 50.64 78.31 M 58.15 79.20 C 56.81 79.85 56.79 80.52 58.09 81.21 C 59.43 80.55 59.45 79.88 58.15 79.20 M 53.22 81.31 C 52.13 81.23 50.80 82.47 51.33 83.59 C 52.60 84.83 55.15 82.04 53.22 81.31 M 60.24 81.90 C 63.18 83.49 60.45 78.55 60.24 81.90 M 51.05 85.99 C 54.26 85.02 57.45 83.80 60.24 81.90 C 57.03 82.91 53.98 84.36 51.05 85.99 M 58.14 85.51 C 60.76 87.97 62.31 83.79 64.14 82.38 C 62.17 83.48 60.14 84.46 58.14 85.51 Z" />
<path fill="#ffe1c0" opacity="1.00" d=" M 89.20 5.63 C 96.78 4.11 104.50 6.08 111.00 10.05 L 111.00 16.06 C 107.66 20.60 106.41 26.41 102.61 30.59 C 102.00 26.18 101.89 21.49 99.40 17.62 C 96.97 13.07 92.12 10.76 88.74 7.07 C 88.86 6.71 89.09 5.99 89.20 5.63 Z" />
<path fill="#fed5c9" opacity="1.00" d=" M 19.05 5.66 C 20.06 5.95 21.03 6.34 21.96 6.80 C 26.32 10.76 31.17 14.35 34.07 19.61 C 34.52 19.46 35.41 19.17 35.85 19.03 L 35.95 19.70 C 34.85 23.78 36.10 28.62 33.08 31.98 C 35.49 33.48 37.88 35.28 38.72 38.15 C 38.24 42.13 36.40 45.81 35.78 49.78 C 31.30 46.32 26.18 43.86 20.94 41.82 L 20.53 41.03 C 22.54 29.34 23.95 16.87 19.05 5.66 Z" />
<path fill="#fbecf1" opacity="1.00" d=" M 21.96 6.80 C 24.76 7.37 27.57 8.16 30.06 9.60 C 31.77 11.52 33.40 13.51 34.95 15.57 L 35.43 16.29 C 35.57 17.20 35.71 18.11 35.85 19.03 C 35.41 19.17 34.52 19.46 34.07 19.61 C 31.17 14.35 26.32 10.76 21.96 6.80 Z" />
<path fill="#e2ddc7" opacity="1.00" d=" M 54.29 9.13 C 56.79 8.34 59.36 9.16 61.76 9.92 C 61.75 13.76 60.80 17.49 59.87 21.19 C 59.13 23.85 60.18 26.53 60.59 29.14 C 59.66 27.39 58.68 25.68 57.68 23.97 C 56.92 25.97 56.06 27.93 55.03 29.82 C 56.25 29.74 57.47 29.69 58.69 29.65 C 57.65 30.19 56.63 30.80 55.50 31.12 C 53.19 30.23 51.04 28.96 49.18 27.33 C 52.41 24.95 55.63 22.54 59.08 20.47 C 58.09 19.34 57.12 18.19 56.21 16.99 C 56.68 18.16 57.13 19.33 57.56 20.51 C 56.67 20.36 55.78 20.20 54.90 20.03 C 53.77 21.97 51.22 21.51 49.51 22.61 C 47.49 23.90 45.58 25.52 43.10 25.81 C 42.05 23.29 40.68 20.85 40.19 18.13 C 43.16 13.13 48.89 10.62 54.29 9.13 Z" />
<path fill="#f0cdaf" opacity="1.00" d=" M 30.06 9.60 C 31.87 10.35 33.62 11.22 35.36 12.11 C 35.26 12.97 35.05 14.70 34.95 15.57 C 33.40 13.51 31.77 11.52 30.06 9.60 Z" />
<path fill="#767d83" opacity="1.00" d=" M 61.76 9.92 C 62.88 10.20 64.01 10.46 65.13 10.71 C 65.67 13.21 67.67 14.74 69.85 15.81 C 68.94 16.37 68.03 16.93 67.11 17.47 C 68.75 18.01 70.28 18.80 71.66 19.84 C 70.10 21.34 68.53 22.83 66.97 24.33 C 66.30 22.61 65.06 20.95 65.12 19.04 C 65.32 17.65 65.57 16.26 65.79 14.87 C 64.08 16.12 62.00 17.42 62.12 19.83 L 62.07 20.61 C 62.03 21.45 61.95 23.12 61.92 23.96 C 62.43 24.19 63.46 24.64 63.98 24.87 C 64.35 24.78 65.10 24.59 65.48 24.50 L 66.07 24.34 C 66.29 30.34 67.02 36.39 65.90 42.35 C 64.23 39.32 63.40 35.94 62.73 32.57 C 62.41 32.71 61.78 32.98 61.46 33.12 C 61.19 31.79 60.91 30.46 60.59 29.14 C 60.18 26.53 59.13 23.85 59.87 21.19 C 60.80 17.49 61.75 13.76 61.76 9.92 M 62.97 31.44 C 64.20 29.75 64.96 27.80 65.38 25.77 C 61.77 25.16 63.26 29.28 62.97 31.44 Z" />
<path fill="#abaea5" opacity="1.00" d=" M 36.34 12.74 C 38.26 16.44 38.89 20.63 40.65 24.39 C 41.61 25.65 40.73 26.85 39.53 27.45 C 39.56 28.39 39.60 29.32 39.63 30.26 C 36.28 29.54 34.83 24.54 37.48 22.28 C 36.96 21.42 36.43 20.58 35.95 19.70 L 35.85 19.03 C 35.71 18.11 35.57 17.20 35.43 16.29 C 35.68 15.09 35.98 13.91 36.34 12.74 Z" />
<path fill="#726c66" opacity="0.49" d=" M 91.21 14.44 C 91.29 14.50 91.44 14.61 91.52 14.67 C 91.44 14.61 91.29 14.50 91.21 14.44 Z" />
<path fill="#fefdfd" opacity="1.00" d=" M 62.12 19.83 C 62.00 17.42 64.08 16.12 65.79 14.87 C 65.57 16.26 65.32 17.65 65.12 19.04 C 64.12 19.32 63.12 19.59 62.12 19.83 Z" />
<path fill="#fedbcc" opacity="1.00" d=" M 76.95 22.36 C 77.39 16.18 85.88 12.34 90.58 16.51 C 93.00 18.32 94.18 21.19 95.06 23.98 C 93.04 23.25 91.13 22.19 89.00 21.78 C 86.44 21.68 84.30 23.33 82.14 24.46 C 80.43 23.70 78.70 23.00 76.95 22.36 Z" />
<path fill="#fed8cc" opacity="1.00" d=" M 105.59 29.83 C 107.14 26.12 109.01 22.56 111.00 19.08 L 111.00 30.52 C 109.20 30.29 107.39 30.06 105.59 29.83 Z" />
<path fill="#e5e7ea" opacity="1.00" d=" M 62.07 20.61 C 63.88 21.26 64.93 22.71 65.48 24.50 C 65.10 24.59 64.35 24.78 63.98 24.87 C 63.46 24.64 62.43 24.19 61.92 23.96 C 61.95 23.12 62.03 21.45 62.07 20.61 Z" />
<path fill="#c2e1e1" opacity="1.00" d=" M 68.23 25.27 C 69.40 24.37 70.56 23.47 71.75 22.60 C 70.64 25.79 69.64 29.02 68.51 32.20 C 68.44 29.89 68.40 27.58 68.23 25.27 Z" />
<path fill="#98697c" opacity="1.00" d=" M 83.91 25.00 C 85.43 24.34 86.94 23.68 88.46 23.03 C 87.66 28.12 92.03 32.84 89.76 37.77 C 87.74 43.17 84.65 48.07 81.62 52.94 C 80.41 51.37 79.23 49.77 78.07 48.16 C 81.18 46.42 84.72 44.79 86.49 41.50 C 87.82 38.92 88.60 36.01 88.61 33.11 C 88.56 29.76 85.91 27.38 83.91 25.00 Z" />
<path fill="#ebeee1" opacity="1.00" d=" M 49.25 24.15 C 49.91 24.78 49.91 24.78 49.25 24.15 Z" />
<path fill="#484455" opacity="1.00" d=" M 57.68 23.97 C 58.68 25.68 59.66 27.39 60.59 29.14 C 60.91 30.46 61.19 31.79 61.46 33.12 C 61.69 34.25 61.91 35.39 62.11 36.53 C 58.61 37.66 55.12 38.88 51.49 39.52 C 52.11 38.41 52.74 37.32 53.41 36.25 C 52.59 34.51 51.74 32.79 50.89 31.07 C 52.42 31.14 53.98 31.42 55.50 31.12 C 56.63 30.80 57.65 30.19 58.69 29.65 C 57.47 29.69 56.25 29.74 55.03 29.82 C 56.06 27.93 56.92 25.97 57.68 23.97 Z" />
<path fill="#6f7372" opacity="1.00" d=" M 73.25 23.95 C 74.57 24.82 75.91 25.66 77.18 26.62 C 75.76 28.21 74.35 29.81 72.93 31.40 C 75.48 31.94 77.83 33.10 79.69 34.96 C 77.84 37.08 75.52 39.42 72.41 38.61 C 71.69 35.43 75.72 35.58 77.69 34.83 C 75.16 33.22 72.47 34.50 69.94 35.35 C 69.27 35.55 68.60 35.75 67.93 35.95 C 70.00 32.08 71.80 28.08 73.25 23.95 Z" />
<path fill="#343c41" opacity="1.00" d=" M 62.97 31.44 C 63.26 29.28 61.77 25.16 65.38 25.77 C 64.96 27.80 64.20 29.75 62.97 31.44 Z" />
<path fill="#757c81" opacity="1.00" d=" M 79.06 25.35 C 81.75 26.60 85.37 27.36 86.56 30.45 C 87.99 36.65 85.40 44.89 78.40 46.22 C 75.43 46.08 72.53 45.22 70.26 43.24 C 73.41 42.37 76.99 42.55 79.84 40.81 C 82.80 37.96 81.68 33.52 80.50 30.11 C 80.00 28.53 79.52 26.94 79.06 25.35 Z" />
<path fill="#e3dfc9" opacity="1.00" d=" M 72.93 31.40 C 74.35 29.81 75.76 28.21 77.18 26.62 C 78.34 27.73 79.44 28.90 80.50 30.11 C 81.68 33.52 82.80 37.96 79.84 40.81 C 76.99 42.55 73.41 42.37 70.26 43.24 C 72.53 45.22 75.43 46.08 78.40 46.22 C 76.63 46.56 74.85 46.80 73.06 47.01 C 72.80 46.87 72.28 46.59 72.02 46.45 C 70.52 44.93 68.93 43.22 68.70 41.00 C 68.85 39.07 69.47 37.22 69.94 35.35 C 72.47 34.50 75.16 33.22 77.69 34.83 C 75.72 35.58 71.69 35.43 72.41 38.61 C 75.52 39.42 77.84 37.08 79.69 34.96 C 77.83 33.10 75.48 31.94 72.93 31.40 Z" />
<path fill="#e7e2cd" opacity="1.00" d=" M 41.22 32.44 C 43.32 30.88 45.03 28.64 47.77 28.18 C 48.36 29.49 48.96 30.80 49.58 32.10 C 47.36 33.08 45.16 34.11 42.97 35.17 C 42.39 34.26 41.81 33.35 41.22 32.44 Z" />
<path fill="#a5ac95" opacity="1.00" d=" M 35.29 30.13 C 36.71 29.62 37.16 30.09 36.64 31.52 C 35.23 32.01 34.78 31.55 35.29 30.13 Z" />
<path fill="#e8c0bb" opacity="1.00" d=" M 101.48 31.30 C 102.94 30.74 103.71 32.91 102.00 33.08 C 100.75 33.48 99.58 33.37 98.49 32.77 C 98.30 31.36 100.57 31.52 101.48 31.30 Z" />
<path fill="#e5e1cb" opacity="1.00" d=" M 37.62 31.64 C 40.90 32.30 41.16 36.45 42.49 39.02 C 42.95 40.67 43.38 42.32 43.86 43.96 C 42.61 45.78 40.59 47.63 41.38 50.07 C 41.42 50.41 41.50 51.09 41.54 51.43 C 43.02 51.59 44.50 51.68 45.99 51.78 C 44.82 53.28 43.68 54.82 42.58 56.38 C 39.01 55.44 37.12 51.50 37.79 48.02 C 38.40 44.86 39.66 41.86 41.10 38.99 C 39.87 36.58 38.47 34.23 37.62 31.64 Z" />
<path fill="#75797b" opacity="1.00" d=" M 49.58 32.10 C 50.39 33.43 51.19 34.77 51.99 36.11 C 50.09 36.21 48.20 36.29 46.30 36.37 C 46.10 37.02 45.70 38.32 45.50 38.97 C 44.64 37.71 43.80 36.44 42.97 35.17 C 45.16 34.11 47.36 33.08 49.58 32.10 Z" />
<path fill="#ffe5e2" opacity="1.00" d=" M 103.48 31.86 C 105.99 31.52 108.52 31.67 111.00 32.12 L 111.00 38.27 C 108.54 36.08 105.47 34.56 103.48 31.86 Z" />
<path fill="#fedacd" opacity="1.00" d=" M 96.98 42.97 C 98.85 40.36 99.93 37.30 101.71 34.64 C 99.81 40.61 98.57 46.75 97.80 52.97 C 94.74 55.00 91.41 56.59 87.91 57.70 C 87.65 56.62 87.45 55.54 87.32 54.44 C 90.25 50.37 94.20 47.16 96.98 42.97 Z" />
<path fill="#e8c0bb" opacity="1.00" d=" M 103.37 35.00 C 106.27 36.50 108.93 38.48 111.00 41.03 L 111.00 42.56 C 109.38 44.77 107.67 46.92 106.32 49.31 C 104.52 52.35 103.25 56.07 99.72 57.55 C 99.49 49.87 100.37 42.13 103.37 35.00 Z" />
<path fill="#c2e0e0" opacity="1.00" d=" M 51.49 39.52 C 55.12 38.88 58.61 37.66 62.11 36.53 C 63.19 39.14 64.22 42.47 61.30 44.32 C 57.01 46.30 50.80 44.42 48.78 39.94 C 49.46 39.83 50.82 39.62 51.49 39.52 M 59.45 41.22 C 56.72 42.56 60.13 43.86 61.28 42.18 C 62.68 40.89 60.20 40.20 59.45 41.22 Z" />
<path fill="#788085" opacity="1.00" d=" M 42.49 39.02 C 45.77 39.82 48.39 41.96 50.92 44.07 C 54.12 46.83 58.65 45.50 62.48 46.12 C 59.17 48.29 55.44 49.96 51.41 50.04 C 49.81 47.05 47.35 44.51 43.86 43.96 C 43.38 42.32 42.95 40.67 42.49 39.02 Z" />
<path fill="#0c0e10" opacity="1.00" d=" M 59.45 41.22 C 60.20 40.20 62.68 40.89 61.28 42.18 C 60.13 43.86 56.72 42.56 59.45 41.22 Z" />
<path fill="#5d7284" opacity="1.00" d=" M 65.65 45.72 C 66.34 44.41 67.04 43.11 67.76 41.82 C 68.03 43.25 68.29 44.68 68.56 46.11 C 66.56 48.81 63.94 50.94 60.77 52.12 C 62.61 49.72 64.02 47.05 63.03 43.97 C 63.90 44.55 64.78 45.14 65.65 45.72 Z" />
<path fill="#edbeb3" opacity="1.00" d=" M 3.11 43.62 C 4.99 42.44 7.41 41.90 9.53 42.72 C 15.38 45.72 21.98 46.52 28.39 47.55 C 29.18 47.72 29.95 47.97 30.72 48.20 C 30.41 50.38 30.12 52.56 29.85 54.75 C 30.90 54.52 31.96 54.28 33.01 54.05 C 32.49 56.18 31.91 58.30 31.31 60.41 C 29.90 60.19 28.49 59.97 27.08 59.78 C 26.67 59.26 26.24 58.75 25.79 58.26 C 19.75 51.34 11.45 47.11 3.11 43.62 Z" />
<path fill="#fec4fd" opacity="1.00" d=" M 9.53 42.72 C 16.04 42.54 22.88 43.93 28.39 47.55 C 21.98 46.52 15.38 45.72 9.53 42.72 Z" />
<path fill="#916276" opacity="1.00" d=" M 106.32 49.31 C 107.67 46.92 109.38 44.77 111.00 42.56 L 111.00 66.16 C 109.81 66.87 107.10 67.66 107.91 69.47 C 109.32 69.98 110.28 68.35 111.00 67.42 L 111.00 74.54 C 107.76 70.90 103.65 68.16 100.42 64.53 C 99.69 62.29 99.77 59.89 99.72 57.55 C 103.25 56.07 104.52 52.35 106.32 49.31 Z" />
<path fill="#e2ddc7" opacity="1.00" d=" M 44.17 45.62 C 48.01 45.79 50.72 49.72 49.12 53.31 C 48.62 51.69 48.07 50.07 47.53 48.46 C 45.82 48.31 44.11 48.17 42.40 48.02 C 42.84 47.42 43.73 46.22 44.17 45.62 Z" />
<path fill="#c2e0e0" opacity="1.00" d=" M 72.02 46.45 C 72.28 46.59 72.80 46.87 73.06 47.01 C 77.73 48.52 79.27 53.44 82.04 56.96 C 85.05 61.15 89.85 63.48 94.43 65.56 C 98.01 67.25 102.22 67.96 105.11 70.87 C 107.06 72.72 109.05 74.54 111.00 76.39 L 111.00 78.30 C 109.44 78.07 108.52 80.00 108.85 81.32 C 106.96 79.85 104.65 78.29 102.49 80.27 L 102.23 79.72 C 101.81 77.61 103.11 74.48 100.77 73.29 C 95.63 70.79 89.75 70.11 84.71 67.37 C 79.79 62.85 75.52 57.64 70.91 52.79 C 70.66 54.55 70.42 56.31 70.10 58.06 C 69.06 56.44 67.93 54.85 67.35 53.00 C 68.53 50.57 70.41 48.59 72.02 46.45 Z" />
<path fill="#788085" opacity="1.00" d=" M 41.38 50.07 C 41.71 49.38 42.05 48.69 42.40 48.02 C 44.11 48.17 45.82 48.31 47.53 48.46 C 48.07 50.07 48.62 51.69 49.12 53.31 C 47.77 55.61 44.96 55.97 42.58 56.38 C 43.68 54.82 44.82 53.28 45.99 51.78 C 44.50 51.68 43.02 51.59 41.54 51.43 C 41.50 51.09 41.42 50.41 41.38 50.07 Z" />
<path fill="#fec4fd" opacity="1.00" d=" M 29.85 54.75 C 30.12 52.56 30.41 50.38 30.72 48.20 C 32.90 49.54 34.70 51.34 36.35 53.27 C 35.24 53.53 34.12 53.79 33.01 54.05 C 31.96 54.28 30.90 54.52 29.85 54.75 Z" />
<path fill="#796f78" opacity="1.00" d=" M 51.03 50.82 C 52.39 50.89 53.76 50.97 55.12 51.06 C 53.49 52.77 51.63 54.25 49.58 55.44 C 50.03 53.89 50.53 52.35 51.03 50.82 Z" />
<path fill="#c7959c" opacity="1.00" d=" M 33.01 54.05 C 34.12 53.79 35.24 53.53 36.35 53.27 C 37.74 54.85 39.13 56.43 40.53 58.00 C 39.70 60.31 38.86 62.62 38.00 64.92 C 35.60 64.06 33.20 63.19 30.80 62.31 C 33.72 66.91 36.28 71.73 38.19 76.84 C 37.69 77.12 36.67 77.68 36.17 77.96 C 34.54 72.48 32.02 67.33 28.89 62.57 C 28.30 61.63 27.71 60.69 27.08 59.78 C 28.49 59.97 29.90 60.19 31.31 60.41 C 31.91 58.30 32.49 56.18 33.01 54.05 Z" />
<path fill="#515847" opacity="1.00" d=" M 55.09 54.27 C 56.75 52.09 59.81 54.67 62.04 54.84 C 61.93 55.18 61.72 55.85 61.61 56.18 C 59.71 56.48 57.73 56.43 55.91 57.11 C 54.64 57.61 53.40 58.18 52.17 58.75 C 51.83 58.64 51.17 58.43 50.84 58.32 L 50.15 58.10 C 50.45 57.68 51.05 56.83 51.35 56.41 L 51.77 56.46 C 53.36 56.95 54.35 55.40 55.09 54.27 Z" />
<path fill="#e3dfc9" opacity="1.00" d=" M 62.47 53.39 C 63.06 53.29 64.24 53.11 64.83 53.02 C 64.27 54.41 63.71 55.80 63.18 57.21 C 62.66 57.38 61.61 57.72 61.09 57.88 C 61.22 57.46 61.48 56.61 61.61 56.18 C 61.72 55.85 61.93 55.18 62.04 54.84 C 62.15 54.48 62.36 53.75 62.47 53.39 Z" />
<path fill="#867a85" opacity="1.00" d=" M 87.91 57.70 C 91.41 56.59 94.74 55.00 97.80 52.97 C 98.01 56.84 98.24 60.71 98.29 64.59 C 94.09 63.79 89.39 62.17 87.91 57.70 Z" />
<path fill="#a8b38f" opacity="1.00" d=" M 51.77 56.46 C 51.62 54.91 53.72 53.18 55.09 54.27 C 54.35 55.40 53.36 56.95 51.77 56.46 Z" />
<path fill="#e3dfc9" opacity="1.00" d=" M 66.67 54.92 C 67.10 56.07 67.50 57.22 67.88 58.39 C 66.94 58.88 66.00 59.37 65.07 59.86 C 65.59 58.21 66.12 56.56 66.67 54.92 Z" />
<path fill="#755871" opacity="1.00" d=" M 20.55 56.17 C 22.11 57.29 23.72 58.64 25.79 58.26 C 26.24 58.75 26.67 59.26 27.08 59.78 C 27.71 60.69 28.30 61.63 28.89 62.57 C 28.22 63.45 27.56 64.34 26.90 65.23 C 28.65 68.03 30.13 70.98 31.47 73.99 C 30.25 76.88 28.84 79.69 27.49 82.52 C 25.13 79.42 22.18 76.44 21.52 72.45 C 20.10 67.12 20.52 61.61 20.55 56.17 Z" />
<path fill="#756b74" opacity="1.00" d=" M 43.28 57.79 C 45.17 57.10 47.05 56.40 48.92 55.66 C 48.40 57.78 47.92 59.92 47.49 62.06 C 46.08 60.64 44.68 59.22 43.28 57.79 Z" />
<path fill="#e3dfc9" opacity="1.00" d=" M 52.17 58.75 C 53.40 58.18 54.64 57.61 55.91 57.11 C 56.83 57.82 57.74 58.53 58.66 59.25 C 58.53 61.32 58.41 63.44 57.52 65.36 C 57.32 62.99 57.36 60.60 57.22 58.22 C 55.66 59.31 53.40 60.17 53.33 62.40 C 52.87 65.70 51.71 68.83 49.13 71.06 C 50.26 69.08 51.78 67.28 52.45 65.07 C 52.68 62.96 52.28 60.85 52.17 58.75 Z" />
<path fill="#936578" opacity="1.00" d=" M 40.53 58.00 C 42.69 60.06 44.99 62.04 46.74 64.49 C 47.86 65.62 46.99 67.20 46.44 68.36 C 44.56 71.93 41.15 74.24 38.19 76.84 C 36.28 71.73 33.72 66.91 30.80 62.31 C 33.20 63.19 35.60 64.06 38.00 64.92 C 38.86 62.62 39.70 60.31 40.53 58.00 Z" />
<path fill="#8d9285" opacity="1.00" d=" M 50.15 58.10 L 50.84 58.32 C 51.91 59.27 50.67 61.76 49.29 60.74 C 48.59 59.53 48.88 58.65 50.15 58.10 Z" />
<path fill="#916175" opacity="1.00" d=" M 66.24 67.26 C 67.09 63.54 69.56 60.49 71.95 57.63 C 73.78 62.31 73.13 67.32 73.01 72.21 C 74.53 69.02 76.17 65.87 78.32 63.06 C 80.59 65.66 82.77 68.58 86.06 69.94 C 90.36 71.83 94.99 72.81 99.43 74.31 C 100.32 76.13 101.27 77.92 102.23 79.72 L 102.49 80.27 C 101.89 80.55 101.30 80.84 100.70 81.12 C 102.82 84.51 105.24 87.98 105.86 92.01 C 104.72 97.01 101.18 100.99 98.31 105.10 C 99.31 97.00 96.81 88.71 91.56 82.49 C 90.88 81.68 89.78 81.51 88.83 81.23 C 87.14 80.93 85.43 80.71 83.76 80.37 L 82.87 79.77 C 82.53 82.76 82.46 85.76 82.36 88.76 C 81.25 87.84 79.89 87.14 79.09 85.90 C 79.10 81.41 78.97 76.93 78.45 72.46 C 80.65 73.20 82.84 73.97 85.05 74.67 C 82.34 73.14 79.45 71.97 76.52 70.94 C 78.18 75.55 79.04 80.42 78.61 85.33 C 77.43 84.82 76.25 84.32 75.07 83.82 C 75.69 82.74 76.32 81.66 76.94 80.58 C 76.02 80.02 75.11 79.45 74.18 78.92 C 73.17 78.34 72.15 77.80 71.15 77.21 C 67.94 75.07 65.60 71.20 66.24 67.26 Z" />
<path fill="#616d59" opacity="1.00" d=" M 64.33 62.47 C 66.60 61.20 66.72 65.62 64.66 65.76 C 63.04 65.62 63.28 63.20 64.33 62.47 Z" />
<path fill="#868f73" opacity="1.00" d=" M 50.20 64.20 C 51.71 64.26 51.27 66.70 49.94 66.68 C 48.42 66.60 48.87 64.19 50.20 64.20 Z" />
<path fill="#e5e1cb" opacity="1.00" d=" M 55.34 65.07 C 56.30 66.53 57.39 67.90 58.54 69.21 C 57.72 70.64 56.89 72.07 55.97 73.45 C 55.19 70.71 55.78 67.86 55.34 65.07 Z" />
<path fill="#afb5a6" opacity="1.00" d=" M 60.22 65.45 C 61.61 65.65 61.86 66.33 60.96 67.51 C 59.57 67.31 59.32 66.62 60.22 65.45 Z" />
<path fill="#1b1216" opacity="1.00" d=" M 107.91 69.47 C 107.10 67.66 109.81 66.87 111.00 66.16 L 111.00 67.42 C 110.28 68.35 109.32 69.98 107.91 69.47 Z" />
<path fill="#c2e1e1" opacity="1.00" d=" M 40.61 76.64 C 43.19 74.62 45.45 72.25 47.66 69.85 C 47.79 72.16 48.84 74.58 48.15 76.86 C 43.83 82.14 37.18 84.86 33.03 90.34 C 34.02 91.22 35.04 92.08 36.08 92.91 C 35.43 93.83 34.78 94.76 34.14 95.69 C 33.77 94.24 33.42 92.79 32.97 91.37 C 31.51 90.91 30.17 90.17 29.07 89.09 C 32.74 84.78 36.18 80.22 40.61 76.64 Z" />
<path fill="#7c8860" opacity="1.00" d=" M 52.32 70.19 C 54.41 69.08 54.92 73.50 52.88 73.71 C 51.38 73.40 51.44 71.11 52.32 70.19 Z" />
<path fill="#aab394" opacity="1.00" d=" M 60.11 70.36 C 61.52 70.51 61.75 71.17 60.80 72.35 C 59.40 72.19 59.17 71.52 60.11 70.36 Z" />
<path fill="#030203" opacity="1.00" d=" M 76.52 70.94 C 79.45 71.97 82.34 73.14 85.05 74.67 C 82.84 73.97 80.65 73.20 78.45 72.46 C 78.97 76.93 79.10 81.41 79.09 85.90 C 79.89 87.14 81.25 87.84 82.36 88.76 C 82.46 85.76 82.53 82.76 82.87 79.77 L 83.76 80.37 C 83.74 88.96 86.01 97.73 83.53 106.19 C 83.00 107.83 82.33 109.43 81.60 111.00 L 79.87 111.00 C 82.91 104.75 84.49 97.32 82.59 90.52 C 79.08 87.48 75.00 85.18 71.15 82.62 C 70.58 84.12 70.03 85.63 69.48 87.14 C 68.38 87.92 67.26 88.68 66.11 89.40 C 66.56 87.90 67.08 86.41 67.60 84.93 C 68.19 83.78 68.81 82.65 69.43 81.51 C 71.30 81.37 73.17 81.24 75.05 81.09 C 74.83 80.55 74.40 79.46 74.18 78.92 C 75.11 79.45 76.02 80.02 76.94 80.58 C 76.32 81.66 75.69 82.74 75.07 83.82 C 76.25 84.32 77.43 84.82 78.61 85.33 C 79.04 80.42 78.18 75.55 76.52 70.94 Z" />
<path fill="#fed9cd" opacity="1.00" d=" M 0.00 72.82 C 6.15 70.73 13.67 70.84 18.43 75.82 C 11.21 77.85 5.27 82.60 0.00 87.76 L 0.00 72.82 Z" />
<path fill="#677456" opacity="1.00" d=" M 62.27 72.27 C 64.75 71.43 63.11 76.33 61.29 75.42 C 60.54 74.38 61.38 72.92 62.27 72.27 Z" />
<path fill="#7a845f" opacity="1.00" d=" M 50.12 73.46 C 51.55 73.62 51.81 74.28 50.89 75.43 C 49.47 75.27 49.21 74.61 50.12 73.46 Z" />
<path fill="#6d7b5b" opacity="1.00" d=" M 58.09 73.39 C 61.43 73.50 56.57 76.39 58.09 73.39 Z" />
<path fill="#5c3055" opacity="1.00" d=" M 31.47 73.99 C 32.28 76.24 33.41 78.43 33.65 80.83 C 32.58 83.45 30.26 85.25 28.19 87.06 C 28.00 85.57 26.97 84.00 27.49 82.52 C 28.84 79.69 30.25 76.88 31.47 73.99 Z" />
<path fill="#e2ddc7" opacity="1.00" d=" M 52.96 76.16 C 53.43 75.45 53.89 74.74 54.35 74.03 C 54.84 76.10 55.43 78.14 55.76 80.24 C 54.54 79.10 53.75 77.61 52.96 76.16 Z" />
<path fill="#857a86" opacity="1.00" d=" M 2.43 88.15 C 7.20 82.77 13.49 78.46 20.65 77.09 C 20.17 79.26 18.13 80.34 16.59 81.68 C 14.35 83.40 12.60 85.65 10.52 87.53 C 7.84 87.95 5.12 87.93 2.43 88.15 Z" />
<path fill="#757c81" opacity="1.00" d=" M 71.15 77.21 C 72.15 77.80 73.17 78.34 74.18 78.92 C 74.40 79.46 74.83 80.55 75.05 81.09 C 73.17 81.24 71.30 81.37 69.43 81.51 C 68.81 82.65 68.19 83.78 67.60 84.93 C 67.38 83.92 67.13 82.91 66.90 81.90 C 66.66 83.78 66.44 85.66 66.16 87.54 C 65.64 87.03 64.59 86.01 64.07 85.51 C 65.44 81.99 68.15 79.37 71.15 77.21 Z" />
<path fill="#e2ddc7" opacity="1.00" d=" M 50.64 78.31 C 51.88 77.57 53.11 79.66 51.97 80.47 C 50.74 81.24 49.63 79.11 50.64 78.31 Z" />
<path fill="#889d9d" opacity="1.00" d=" M 108.85 81.32 C 108.52 80.00 109.44 78.07 111.00 78.30 L 111.00 82.25 L 110.35 82.33 C 109.97 82.08 109.22 81.57 108.85 81.32 Z" />
<path fill="#fed8cc" opacity="1.00" d=" M 13.90 86.64 C 16.37 83.51 19.23 80.68 22.63 78.56 C 25.34 85.17 28.70 91.53 32.95 97.29 C 30.81 101.56 29.72 106.23 29.68 111.00 L 13.60 111.00 C 13.31 102.86 16.12 94.68 13.90 86.64 Z" />
<path fill="#916376" opacity="1.00" d=" M 37.26 88.21 C 40.98 84.78 44.84 81.48 49.10 78.73 C 49.31 80.85 49.72 83.04 49.08 85.13 C 47.87 89.38 46.82 93.82 44.06 97.38 C 43.72 93.45 44.00 89.51 44.37 85.60 C 43.79 86.33 43.21 87.06 42.62 87.78 C 41.45 89.21 40.23 90.60 39.03 92.02 C 38.44 90.75 37.85 89.48 37.26 88.21 Z" />
<path fill="#828e63" opacity="1.00" d=" M 58.15 79.20 C 59.45 79.88 59.43 80.55 58.09 81.21 C 56.79 80.52 56.81 79.85 58.15 79.20 Z" />
<path fill="#030203" opacity="1.00" d=" M 102.49 80.27 C 104.65 78.29 106.96 79.85 108.85 81.32 C 109.22 81.57 109.97 82.08 110.35 82.33 C 107.99 82.18 105.75 81.39 103.48 80.81 C 104.85 86.19 107.41 91.22 111.00 95.46 L 111.00 96.57 C 110.00 100.21 109.46 103.94 108.89 107.67 C 109.42 107.57 110.47 107.36 111.00 107.26 L 111.00 109.12 C 109.32 108.68 108.70 109.31 109.13 111.00 L 105.95 111.00 C 108.25 106.07 108.46 100.53 107.43 95.25 C 107.21 95.58 106.77 96.25 106.56 96.58 C 102.96 101.61 99.32 106.69 94.87 111.00 L 92.91 111.00 C 97.10 104.74 98.03 96.42 94.34 89.71 C 93.01 86.58 90.91 83.88 88.83 81.23 C 89.78 81.51 90.88 81.68 91.56 82.49 C 96.81 88.71 99.31 97.00 98.31 105.10 C 101.18 100.99 104.72 97.01 105.86 92.01 C 105.24 87.98 102.82 84.51 100.70 81.12 C 101.30 80.84 101.89 80.55 102.49 80.27 Z" />
<path fill="#fbdbbc" opacity="1.00" d=" M 83.76 80.37 C 85.43 80.71 87.14 80.93 88.83 81.23 C 90.91 83.88 93.01 86.58 94.34 89.71 C 94.49 94.77 94.31 99.84 93.67 104.86 C 92.19 104.07 90.75 103.14 89.13 102.69 C 87.12 103.61 85.37 104.98 83.53 106.19 C 86.01 97.73 83.74 88.96 83.76 80.37 Z" />
<path fill="#e2ddc7" opacity="1.00" d=" M 53.22 81.31 C 55.15 82.04 52.60 84.83 51.33 83.59 C 50.80 82.47 52.13 81.23 53.22 81.31 Z" />
<path fill="#707d59" opacity="1.00" d=" M 60.24 81.90 C 60.45 78.55 63.18 83.49 60.24 81.90 Z" />
<path fill="#916075" opacity="1.00" d=" M 103.48 80.81 C 105.75 81.39 107.99 82.18 110.35 82.33 L 111.00 82.25 L 111.00 95.46 C 107.41 91.22 104.85 86.19 103.48 80.81 Z" />
<path fill="#ffe1c0" opacity="1.00" d=" M 51.05 85.99 C 53.98 84.36 57.03 82.91 60.24 81.90 C 57.45 83.80 54.26 85.02 51.05 85.99 Z" />
<path fill="#e2ddc7" opacity="1.00" d=" M 58.14 85.51 C 60.14 84.46 62.17 83.48 64.14 82.38 C 62.31 83.79 60.76 87.97 58.14 85.51 Z" />
<path fill="#fefdfd" opacity="1.00" d=" M 66.90 81.90 C 67.13 82.91 67.38 83.92 67.60 84.93 C 67.08 86.41 66.56 87.90 66.11 89.40 C 67.26 88.68 68.38 87.92 69.48 87.14 C 70.45 88.22 71.42 89.29 72.46 90.30 C 65.36 95.59 60.80 103.32 56.73 111.00 L 50.19 111.00 C 47.75 107.70 45.71 104.03 44.66 100.05 C 46.03 95.59 51.08 92.64 50.97 87.58 C 51.47 88.22 52.47 89.49 52.97 90.13 C 54.19 88.64 55.38 87.12 56.66 85.68 C 55.79 87.75 54.59 89.73 54.35 92.00 C 53.64 96.79 50.69 100.86 49.80 105.61 C 52.80 102.29 53.81 97.80 56.11 94.06 C 56.23 95.90 56.34 97.75 56.46 99.60 C 57.18 97.14 57.74 94.64 58.42 92.17 C 60.00 94.09 61.54 96.07 63.44 97.70 C 62.47 95.42 61.27 93.25 60.17 91.03 C 61.72 89.38 63.01 87.50 64.07 85.51 C 64.59 86.01 65.64 87.03 66.16 87.54 C 66.44 85.66 66.66 83.78 66.90 81.90 Z" />
<path fill="#888fa4" opacity="1.00" d=" M 71.15 82.62 C 75.00 85.18 79.08 87.48 82.59 90.52 C 84.49 97.32 82.91 104.75 79.87 111.00 L 77.82 111.00 C 77.64 103.99 78.80 95.08 72.46 90.30 C 71.42 89.29 70.45 88.22 69.48 87.14 C 70.03 85.63 70.58 84.12 71.15 82.62 Z" />
<path fill="#d8aaa9" opacity="1.00" d=" M 6.34 97.42 C 7.83 93.19 11.27 90.14 13.90 86.64 C 16.12 94.68 13.31 102.86 13.60 111.00 L 5.24 111.00 C 5.31 106.47 4.68 101.75 6.34 97.42 Z" />
<path fill="#fed9cd" opacity="1.00" d=" M 42.62 87.78 C 42.73 91.49 42.21 95.24 42.98 98.91 C 43.73 103.31 45.84 107.33 48.31 111.00 L 31.59 111.00 C 31.49 103.98 34.52 97.28 39.03 92.02 C 40.23 90.60 41.45 89.21 42.62 87.78 Z" />
<path fill="#d084b1" opacity="1.00" d=" M 94.34 89.71 C 98.03 96.42 97.10 104.74 92.91 111.00 L 89.85 111.00 C 91.33 109.10 92.65 107.06 93.67 104.86 C 94.31 99.84 94.49 94.77 94.34 89.71 Z" />
<path fill="#fedcd1" opacity="1.00" d=" M 6.59 90.62 C 6.68 93.66 4.97 96.30 4.05 99.10 C 2.55 102.93 2.03 107.03 1.04 111.00 L 0.00 111.00 L 0.00 99.78 C 1.43 97.53 2.87 95.29 4.20 92.98 C 4.99 92.19 5.79 91.40 6.59 90.62 Z" />
<path fill="#030203" opacity="1.00" d=" M 56.73 111.00 C 60.80 103.32 65.36 95.59 72.46 90.30 C 78.80 95.08 77.64 103.99 77.82 111.00 L 76.33 111.00 C 76.23 108.11 76.10 105.23 75.76 102.36 C 75.48 98.71 74.33 95.22 72.80 91.92 C 69.89 94.06 67.24 96.60 65.22 99.62 C 62.48 103.15 60.33 107.06 58.27 111.00 L 56.73 111.00 Z" />
<path fill="#fdd9b7" opacity="1.00" d=" M 65.22 99.62 C 67.24 96.60 69.89 94.06 72.80 91.92 C 74.33 95.22 75.48 98.71 75.76 102.36 C 72.30 104.59 69.71 107.81 67.19 111.00 L 60.37 111.00 C 62.70 107.56 64.39 103.70 65.22 99.62 Z" />
<path fill="#231d1c" opacity="0.98" d=" M 0.00 96.28 C 1.33 95.10 2.77 94.04 4.20 92.98 C 2.87 95.29 1.43 97.53 0.00 99.78 L 0.00 96.28 Z" />
<path fill="#93667b" opacity="1.00" d=" M 106.56 96.58 C 106.77 96.25 107.21 95.58 107.43 95.25 C 108.46 100.53 108.25 106.07 105.95 111.00 L 101.72 111.00 C 104.13 106.51 106.24 101.73 106.56 96.58 Z" />
<path fill="#f7d2c3" opacity="1.00" d=" M 106.56 96.58 C 106.24 101.73 104.13 106.51 101.72 111.00 L 94.87 111.00 C 99.32 106.69 102.96 101.61 106.56 96.58 Z" />
<path fill="#876575" opacity="1.00" d=" M 108.89 107.67 C 109.46 103.94 110.00 100.21 111.00 96.57 L 111.00 107.26 C 110.47 107.36 109.42 107.57 108.89 107.67 Z" />
<path fill="#fefdfd" opacity="1.00" d=" M 65.22 99.62 C 64.39 103.70 62.70 107.56 60.37 111.00 L 58.27 111.00 C 60.33 107.06 62.48 103.15 65.22 99.62 Z" />
<path fill="#d8aeac" opacity="1.00" d=" M 89.13 102.69 C 90.75 103.14 92.19 104.07 93.67 104.86 C 92.65 107.06 91.33 109.10 89.85 111.00 L 81.60 111.00 C 82.33 109.43 83.00 107.83 83.53 106.19 C 85.37 104.98 87.12 103.61 89.13 102.69 Z" />
<path fill="#e7a89d" opacity="1.00" d=" M 67.19 111.00 C 69.71 107.81 72.30 104.59 75.76 102.36 C 76.10 105.23 76.23 108.11 76.33 111.00 L 67.19 111.00 Z" />
<path fill="#a58084" opacity="1.00" d=" M 109.13 111.00 C 108.70 109.31 109.32 108.68 111.00 109.12 L 111.00 111.00 L 109.13 111.00 Z" />
</svg>
