<?xml version="1.0" encoding="UTF-8" ?>
<!DOCTYPE svg PUBLIC "-//W3C//DTD SVG 1.1//EN" "http://www.w3.org/Graphics/SVG/1.1/DTD/svg11.dtd">
<svg width="111pt" height="111pt" viewBox="0 0 111 111" version="1.1" xmlns="http://www.w3.org/2000/svg">
<path fill="#18130d" opacity="1.00" d=" M 0.00 0.00 L 3.88 0.00 C 3.01 1.42 1.67 2.47 0.00 2.75 L 0.00 0.00 Z" />
<path fill="#876747" opacity="1.00" d=" M 3.88 0.00 L 10.69 0.00 C 6.82 2.83 3.38 6.20 0.00 9.59 L 0.00 2.75 C 1.67 2.47 3.01 1.42 3.88 0.00 Z" />
<path fill="#5a392a" opacity="1.00" d=" M 10.69 0.00 L 17.87 0.00 C 16.35 2.79 16.33 5.99 16.42 9.08 C 14.22 11.89 12.37 15.07 9.60 17.38 C 6.46 18.26 3.17 18.41 0.00 19.14 L 0.00 9.59 C 3.38 6.20 6.82 2.83 10.69 0.00 Z" />
<path fill="#000000" opacity="1.00" d=" M 17.87 0.00 L 42.37 0.00 C 37.00 1.20 31.34 1.84 26.34 4.23 C 21.30 9.59 17.42 16.04 12.17 21.21 C 8.26 22.58 4.03 22.68 0.00 23.62 L 0.00 19.14 C 3.17 18.41 6.46 18.26 9.60 17.38 C 12.37 15.07 14.22 11.89 16.42 9.08 C 16.33 5.99 16.35 2.79 17.87 0.00 M 21.47 1.20 C 20.26 1.77 18.87 3.33 19.52 4.72 C 21.02 5.31 24.29 0.62 21.47 1.20 Z" />
<path fill="#000000" opacity="1.00" d=" M 45.43 0.00 L 49.04 0.00 C 47.96 0.97 46.93 1.98 45.95 3.05 C 45.63 3.48 44.98 4.36 44.65 4.79 C 42.13 8.06 40.21 11.75 38.90 15.66 C 38.13 17.99 37.57 20.39 37.27 22.82 C 37.21 23.32 37.07 24.33 37.01 24.83 C 35.99 25.45 34.96 26.06 33.96 26.72 C 31.80 28.08 30.18 30.24 30.34 32.91 C 32.01 35.31 34.36 37.07 36.55 38.96 C 35.41 40.01 34.29 41.10 33.19 42.20 C 32.62 43.04 32.09 43.90 31.64 44.81 C 31.13 46.15 30.39 48.03 31.67 49.15 C 34.44 50.72 37.73 50.91 40.81 51.44 C 42.31 53.38 44.41 54.51 46.89 54.52 C 46.69 52.79 46.50 51.05 46.46 49.30 C 46.46 47.69 46.46 46.09 46.39 44.48 C 45.02 44.55 43.65 44.59 42.28 44.64 C 44.58 43.05 46.44 40.92 46.74 38.04 C 46.98 35.10 49.44 33.41 51.81 32.14 C 51.23 30.99 50.65 29.84 50.07 28.69 C 50.28 28.07 50.69 26.82 50.89 26.19 C 52.61 28.70 54.24 31.28 56.35 33.49 C 56.48 33.64 56.75 33.95 56.89 34.10 C 56.66 34.79 56.22 36.18 55.99 36.87 C 57.31 37.76 58.64 38.63 59.93 39.57 C 59.72 39.86 59.31 40.43 59.11 40.72 C 58.37 41.91 56.70 43.38 57.89 44.86 C 58.99 45.53 60.18 46.00 61.46 46.26 C 64.22 45.44 66.54 43.72 68.26 41.43 C 68.60 41.93 69.27 42.93 69.60 43.43 C 72.24 42.84 74.93 42.52 77.63 42.39 C 77.66 40.14 77.55 37.88 77.25 35.65 C 79.49 34.88 80.54 37.23 80.88 39.06 C 80.98 40.94 79.86 42.57 79.08 44.19 C 77.51 44.62 75.94 45.06 74.37 45.49 C 74.18 47.91 73.58 50.27 72.37 52.38 C 69.92 52.72 67.49 53.10 65.05 53.48 C 64.87 54.17 64.50 55.54 64.31 56.22 C 67.10 57.33 70.18 59.09 73.08 57.25 C 74.43 56.62 75.71 55.85 77.00 55.12 C 77.05 55.62 77.16 56.62 77.21 57.11 L 76.93 57.69 C 75.09 58.62 73.19 59.44 71.30 60.28 C 71.07 64.20 70.43 68.08 69.57 71.91 C 69.10 74.18 68.58 76.44 68.06 78.70 C 70.46 82.22 74.46 83.54 78.43 84.41 C 78.35 85.43 78.28 86.46 78.21 87.48 C 82.10 88.43 84.19 84.72 84.64 81.41 C 88.77 81.00 93.22 80.29 95.91 76.78 C 95.49 76.35 94.66 75.49 94.25 75.06 C 96.52 73.82 98.79 72.58 101.03 71.29 C 104.76 69.24 108.11 66.52 111.00 63.40 L 111.00 67.15 C 107.62 70.91 103.35 73.71 98.72 75.69 C 97.67 81.44 91.76 83.81 86.54 84.13 C 85.45 86.27 84.51 89.04 81.91 89.73 C 79.20 90.77 76.62 87.81 74.01 89.27 C 77.84 92.95 78.12 100.11 84.09 101.24 C 90.50 102.85 96.36 106.20 100.92 111.00 L 96.98 111.00 C 91.21 105.63 83.38 103.16 75.61 102.87 C 74.09 102.63 72.58 102.33 71.06 102.04 C 70.70 103.32 70.33 104.60 69.97 105.88 C 75.44 106.70 80.43 109.11 85.56 111.00 L 78.95 111.00 C 75.55 109.66 72.03 108.65 68.40 108.19 C 68.36 108.89 68.29 110.30 68.26 111.00 L 62.79 111.00 C 64.60 109.02 66.15 106.82 67.44 104.47 C 68.87 101.04 67.96 97.35 67.20 93.88 C 64.97 96.10 63.01 98.57 61.02 101.00 C 59.60 102.32 57.82 103.13 55.99 103.70 C 52.66 104.50 49.32 105.25 45.97 105.98 C 43.83 106.47 41.72 107.10 39.64 107.80 C 36.83 108.74 34.11 109.90 31.36 111.00 L 27.28 111.00 C 31.57 107.61 36.72 105.63 42.04 104.52 C 45.55 103.73 49.09 103.06 52.61 102.33 C 56.69 101.92 59.82 99.16 62.91 96.74 C 61.52 96.15 60.14 95.53 58.73 94.98 C 54.42 94.25 50.05 95.09 45.87 96.16 C 41.09 97.59 36.22 99.31 32.43 102.69 C 30.13 105.17 28.43 108.11 26.70 111.00 L 24.05 111.00 C 26.07 103.69 25.43 95.71 29.21 88.86 C 28.65 88.18 28.09 87.52 27.52 86.86 C 24.31 86.08 22.35 89.52 20.93 91.79 C 19.05 98.14 20.50 105.21 23.53 111.00 L 19.48 111.00 C 18.55 108.46 17.67 105.91 16.58 103.43 C 15.93 105.95 15.37 108.49 14.71 111.00 L 12.23 111.00 C 12.71 109.02 13.11 107.03 13.49 105.03 C 10.28 105.47 8.90 108.14 8.20 111.00 L 5.88 111.00 C 6.83 108.69 7.09 105.77 9.35 104.26 C 10.70 103.58 12.26 103.50 13.72 103.17 C 14.17 102.13 14.61 101.08 15.04 100.03 C 15.58 98.71 16.11 97.39 16.63 96.07 C 12.81 96.21 8.68 96.02 5.38 98.29 C 3.76 100.03 2.40 102.00 1.27 104.09 C 0.67 106.33 -0.13 108.67 0.49 111.00 L 0.00 111.00 L 0.00 100.51 C 1.82 98.82 3.26 96.66 5.48 95.44 C 8.96 93.34 13.19 93.59 17.10 93.35 C 18.60 90.82 20.29 88.38 22.53 86.46 C 24.17 84.81 26.40 83.43 26.98 81.02 C 27.71 78.65 28.21 76.20 28.94 73.82 C 31.02 76.31 30.97 79.58 31.14 82.63 C 32.35 81.99 33.56 81.36 34.77 80.73 C 34.74 79.11 34.11 77.37 34.71 75.81 C 36.86 73.52 39.56 71.84 42.08 69.99 C 41.44 68.48 40.80 66.96 40.18 65.44 C 38.07 65.55 35.97 65.66 33.86 65.83 C 30.72 67.54 26.91 67.74 24.03 70.00 C 21.26 71.79 19.40 74.56 17.81 77.38 C 11.97 74.78 6.16 72.07 0.00 70.30 L 0.00 67.66 C 2.03 67.58 4.05 67.51 6.07 67.32 C 11.63 66.41 17.21 64.96 21.97 61.83 C 22.22 61.70 22.74 61.43 23.00 61.30 C 23.55 61.40 24.65 61.60 25.20 61.70 C 25.77 61.82 26.91 62.06 27.48 62.18 L 28.83 62.50 C 28.09 62.66 26.59 62.97 25.85 63.13 C 19.17 65.35 12.30 66.92 5.62 69.15 C 9.20 71.03 12.92 72.62 16.68 74.08 C 19.11 71.04 21.84 68.06 25.45 66.44 C 27.49 65.72 29.68 65.66 31.77 65.19 C 33.04 64.64 34.28 64.04 35.54 63.45 C 35.73 62.96 36.11 61.96 36.31 61.46 C 36.68 62.00 37.42 63.09 37.80 63.63 C 40.24 63.89 42.11 62.33 43.92 60.93 C 45.48 60.21 47.01 59.43 48.47 58.53 C 48.93 61.04 51.41 61.65 53.63 61.57 C 50.79 62.54 48.79 64.87 48.81 67.94 C 49.89 70.36 52.28 71.95 54.99 71.63 C 59.13 72.15 61.44 67.70 62.07 64.25 C 62.15 63.94 62.32 63.31 62.41 62.99 L 62.61 62.23 C 62.98 62.64 63.36 63.04 63.74 63.44 C 63.80 67.92 61.24 71.74 60.47 76.04 C 62.34 76.17 64.21 76.32 66.08 76.46 C 66.70 73.57 67.28 70.67 67.89 67.78 C 68.88 64.67 68.99 59.81 65.09 58.79 C 61.56 58.75 58.20 60.24 54.66 60.23 C 57.02 58.30 59.91 57.28 62.84 56.61 C 62.89 54.44 62.69 52.28 62.16 50.18 C 60.65 51.10 59.15 52.03 57.65 52.95 C 57.59 54.10 57.53 55.25 57.49 56.40 C 56.19 57.43 54.71 57.83 53.06 57.62 L 55.44 55.31 C 54.31 55.65 53.21 56.07 52.13 56.53 C 51.65 56.23 50.69 55.62 50.21 55.31 C 48.48 56.29 46.75 57.29 44.95 58.13 C 43.01 58.45 41.06 58.72 39.10 58.85 C 37.25 58.72 35.53 59.29 34.12 60.46 C 33.88 60.19 33.42 59.63 33.18 59.36 C 34.18 58.23 36.75 58.19 36.83 56.52 C 33.37 56.82 29.60 58.12 28.45 61.77 C 28.85 59.30 28.77 56.80 28.59 54.32 C 27.43 55.00 26.27 55.67 25.10 56.33 L 23.99 56.07 C 20.32 54.29 16.23 55.04 12.46 56.00 C 8.10 57.33 2.95 57.94 0.00 61.82 L 0.00 54.46 C 0.36 55.08 1.08 56.32 1.44 56.93 C 8.81 55.07 16.28 51.04 24.03 53.41 C 25.78 52.97 27.54 52.53 29.30 52.11 C 26.06 47.94 29.01 43.12 32.02 39.84 C 29.57 37.20 26.60 33.97 27.56 30.04 C 28.37 26.54 31.55 24.49 34.78 23.52 C 35.68 14.80 39.33 6.34 45.43 0.00 M 47.39 42.87 C 48.03 44.16 48.65 45.45 49.24 46.77 C 50.93 48.98 53.80 49.71 56.14 51.03 C 57.52 50.41 58.94 49.79 60.06 48.74 C 58.34 48.18 56.50 47.70 55.23 46.31 C 55.23 45.48 55.23 43.83 55.23 43.01 C 55.58 42.45 56.27 41.33 56.62 40.78 C 54.09 39.01 53.87 36.19 54.33 33.36 C 49.91 34.12 47.74 38.82 47.39 42.87 M 62.46 48.92 C 63.55 49.92 64.65 50.90 65.75 51.89 C 68.43 51.70 71.28 51.20 72.76 48.65 L 73.06 48.66 C 72.93 47.57 72.80 46.47 72.68 45.37 C 68.76 44.69 65.11 45.99 62.46 48.92 M 47.88 49.13 C 47.92 51.60 49.08 54.03 51.91 53.84 C 53.17 54.67 54.13 54.43 54.79 53.13 C 54.16 51.76 53.16 51.43 51.78 52.13 C 51.65 50.39 49.10 50.12 47.88 49.13 M 30.46 55.95 C 33.84 55.53 37.19 54.74 40.30 53.34 C 37.16 53.34 34.02 53.39 30.89 53.04 C 30.75 54.01 30.60 54.98 30.46 55.95 M 40.16 55.22 C 39.66 56.81 40.25 57.33 41.92 56.77 C 42.42 55.18 41.83 54.66 40.16 55.22 M 41.94 66.60 L 42.39 66.65 C 43.87 70.10 47.98 71.25 49.80 74.51 C 52.63 75.00 55.49 75.27 58.36 75.38 C 58.56 74.83 58.96 73.73 59.16 73.18 C 55.67 74.01 51.19 74.48 48.54 71.51 C 46.85 69.76 47.20 67.10 47.60 64.92 L 48.28 63.54 L 49.76 62.81 C 48.66 62.24 47.52 61.76 46.38 61.29 C 44.28 62.48 42.01 63.90 41.94 66.60 M 40.36 78.53 C 40.28 79.15 40.13 80.40 40.06 81.03 C 42.53 82.10 45.19 82.50 47.88 82.28 C 49.14 82.94 50.40 83.59 51.67 84.22 L 50.91 84.36 C 53.88 84.64 56.95 84.84 59.77 83.67 L 61.83 83.13 C 61.73 84.00 61.52 85.75 61.42 86.62 C 59.46 86.63 57.51 86.61 55.56 86.58 C 56.28 87.50 57.00 88.44 57.69 89.38 C 58.58 93.63 63.14 92.21 66.25 92.33 C 68.47 91.66 70.02 89.64 71.91 88.34 C 72.95 87.56 73.98 86.77 75.01 85.99 C 71.30 85.27 68.54 82.61 65.86 80.16 C 63.70 78.03 60.64 78.58 57.91 78.46 C 57.47 78.30 56.59 77.98 56.15 77.82 C 51.61 77.55 47.03 77.12 42.99 74.86 C 40.65 73.62 40.67 77.14 40.36 78.53 M 38.00 79.76 C 39.23 79.33 39.85 77.35 39.09 76.29 C 36.95 75.40 35.76 79.24 38.00 79.76 M 28.35 81.19 C 27.16 81.97 28.03 84.75 29.52 83.57 C 30.73 82.79 29.84 79.99 28.35 81.19 M 34.95 83.47 C 33.46 84.31 31.74 84.97 30.93 86.58 C 32.62 86.20 34.29 85.71 35.96 85.26 C 36.54 85.81 37.12 86.36 37.70 86.91 C 34.67 87.62 33.43 90.75 32.06 93.18 C 35.66 91.97 39.19 90.41 42.28 88.18 C 43.16 87.39 44.06 86.63 44.98 85.89 C 44.62 88.29 43.87 90.59 43.15 92.89 C 44.93 92.48 47.85 92.57 47.76 90.03 C 47.74 88.31 49.30 85.63 46.95 84.88 C 43.58 85.56 40.63 83.80 38.00 81.96 C 36.98 82.47 35.96 82.97 34.95 83.47 M 29.21 96.03 C 30.32 93.09 31.69 90.26 33.11 87.45 C 30.13 89.13 30.05 93.08 29.21 96.03 M 51.22 88.31 C 50.46 89.67 48.89 91.03 49.34 92.73 C 50.63 91.90 51.12 90.27 52.08 89.13 L 52.10 91.89 C 52.63 91.86 53.69 91.80 54.22 91.76 C 54.81 90.07 52.18 89.42 51.22 88.31 M 28.73 100.09 C 28.50 101.47 28.28 102.86 28.09 104.25 C 30.21 101.97 31.46 98.95 33.98 97.04 C 36.33 95.26 38.98 93.92 41.29 92.07 C 36.27 92.97 31.34 95.55 28.73 100.09 M 71.34 99.60 C 73.27 99.72 75.20 99.85 77.13 99.98 C 76.10 97.19 74.81 94.48 73.03 92.08 C 69.64 93.22 68.85 97.12 71.34 99.60 Z" />
<path fill="#659671" opacity="1.00" d=" M 49.04 0.00 L 58.17 0.00 C 58.57 1.38 58.99 2.75 59.36 4.14 C 56.23 4.97 53.23 6.26 50.40 7.82 C 50.72 6.19 52.37 4.42 51.20 2.82 C 49.50 2.14 47.68 2.93 45.95 3.05 C 46.93 1.98 47.96 0.97 49.04 0.00 Z" />
<path fill="#000000" opacity="1.00" d=" M 58.17 0.00 L 59.41 0.00 C 61.05 0.56 62.67 1.18 64.29 1.80 C 65.03 1.20 65.78 0.59 66.53 0.00 L 70.37 0.00 C 69.36 0.55 68.36 1.12 67.37 1.71 C 66.74 2.10 66.11 2.50 65.49 2.90 C 64.99 3.23 64.00 3.90 63.51 4.23 C 62.72 3.87 61.93 3.51 61.13 3.15 C 60.77 3.73 60.05 4.90 59.69 5.48 L 59.36 4.14 C 58.99 2.75 58.57 1.38 58.17 0.00 Z" />
<path fill="#b0d087" opacity="1.00" d=" M 70.37 0.00 L 71.88 0.00 C 72.58 0.97 73.28 1.95 73.99 2.92 C 72.69 4.34 71.10 5.44 69.30 6.13 C 68.65 4.66 68.01 3.19 67.37 1.71 C 68.36 1.12 69.36 0.55 70.37 0.00 Z" />
<path fill="#659671" opacity="1.00" d=" M 71.88 0.00 L 74.47 0.00 C 75.42 0.87 76.31 1.81 77.32 2.62 C 79.18 3.25 80.00 1.25 80.78 0.00 L 90.61 0.00 C 91.47 0.96 92.31 1.94 93.08 2.97 C 91.41 8.36 93.72 14.47 90.73 19.51 C 87.25 20.10 84.11 21.64 81.40 23.89 C 80.75 23.04 80.09 22.20 79.44 21.35 C 78.35 21.69 77.25 22.04 76.15 22.38 C 74.99 21.61 73.83 20.83 72.66 20.08 C 73.09 23.19 75.23 25.47 77.34 27.59 C 78.19 27.14 79.04 26.69 79.91 26.27 C 81.15 26.44 82.39 26.62 83.63 26.79 C 84.41 28.42 84.96 30.46 86.80 31.21 C 89.39 32.80 93.09 30.82 93.50 27.91 C 93.96 24.83 94.14 21.68 93.66 18.59 C 94.07 18.23 94.88 17.50 95.28 17.14 C 95.37 15.92 95.45 14.70 95.52 13.48 C 99.16 13.79 102.82 14.05 106.37 14.97 C 107.35 18.83 104.76 21.97 102.97 25.10 C 101.41 27.69 99.08 29.66 96.96 31.77 C 99.45 30.81 101.89 29.72 104.31 28.59 C 106.61 28.87 108.87 29.46 111.00 30.38 L 111.00 36.14 C 110.11 35.78 109.23 35.44 108.33 35.11 C 108.70 36.72 110.16 38.43 109.19 40.07 C 106.45 40.50 103.67 40.64 100.92 40.95 C 101.80 45.73 106.75 47.26 109.44 50.68 C 109.66 52.94 107.87 54.96 106.91 56.91 C 106.18 58.55 103.99 60.58 102.43 58.59 C 100.92 56.42 100.47 53.71 99.51 51.27 C 99.37 50.85 99.09 50.01 98.96 49.59 C 97.50 51.47 95.77 53.09 93.93 54.58 C 92.78 54.47 91.64 54.39 90.49 54.32 C 89.06 52.64 87.58 51.01 86.06 49.42 C 85.07 53.94 83.63 58.39 80.96 62.21 C 77.16 61.25 75.03 64.64 72.86 67.09 C 73.87 63.81 75.64 60.85 76.93 57.69 L 77.21 57.11 C 79.45 54.26 81.65 51.36 83.35 48.14 C 81.43 48.74 78.59 51.26 77.10 48.79 C 77.45 47.14 78.31 45.67 79.08 44.19 C 79.86 42.57 80.98 40.94 80.88 39.06 C 80.54 37.23 79.49 34.88 77.25 35.65 C 75.84 36.41 74.45 37.21 73.05 37.99 C 72.46 36.37 71.86 34.75 71.28 33.13 C 69.65 34.54 67.71 35.45 65.59 35.87 C 64.98 34.62 64.41 33.35 63.68 32.16 C 61.56 32.68 60.65 35.19 59.21 36.66 C 58.63 36.02 57.47 34.74 56.89 34.10 C 56.75 33.95 56.48 33.64 56.35 33.49 C 54.24 31.28 52.61 28.70 50.89 26.19 C 51.41 25.01 51.94 23.82 52.76 22.81 C 54.35 22.31 56.10 22.54 57.64 21.88 C 59.02 20.42 60.01 18.65 61.09 16.98 C 62.50 16.73 63.90 16.48 65.31 16.23 C 65.48 15.28 65.65 14.33 65.82 13.38 C 64.93 12.90 64.04 12.41 63.15 11.92 C 62.11 10.20 60.99 8.53 59.82 6.90 C 59.79 6.55 59.72 5.84 59.69 5.48 C 60.05 4.90 60.77 3.73 61.13 3.15 C 61.93 3.51 62.72 3.87 63.51 4.23 C 62.80 4.81 62.12 5.41 61.47 6.05 C 62.29 7.00 63.13 7.93 64.01 8.83 C 64.91 7.83 66.02 6.97 66.67 5.76 C 66.38 4.77 65.91 3.84 65.49 2.90 C 66.11 2.50 66.74 2.10 67.37 1.71 C 68.01 3.19 68.65 4.66 69.30 6.13 C 71.10 5.44 72.69 4.34 73.99 2.92 C 73.28 1.95 72.58 0.97 71.88 0.00 M 90.95 41.14 C 93.29 40.90 94.35 38.91 95.23 37.00 C 94.86 36.46 94.14 35.38 93.77 34.84 C 92.54 36.80 91.56 38.90 90.95 41.14 Z" />
<path fill="#a7ca85" opacity="1.00" d=" M 74.47 0.00 L 80.78 0.00 C 80.00 1.25 79.18 3.25 77.32 2.62 C 76.31 1.81 75.42 0.87 74.47 0.00 Z" />
<path fill="#000000" opacity="1.00" d=" M 90.61 0.00 L 93.70 0.00 C 96.18 3.20 97.29 7.14 97.38 11.15 C 102.07 11.01 106.83 11.67 111.00 13.94 L 111.00 17.02 C 109.46 16.32 107.93 15.60 106.37 14.97 C 102.82 14.05 99.16 13.79 95.52 13.48 C 95.67 9.84 95.16 6.05 93.08 2.97 C 92.31 1.94 91.47 0.96 90.61 0.00 Z" />
<path fill="#724f34" opacity="1.00" d=" M 93.70 0.00 L 111.00 0.00 L 111.00 13.94 C 106.83 11.67 102.07 11.01 97.38 11.15 C 97.29 7.14 96.18 3.20 93.70 0.00 Z" />
<path fill="#452b20" opacity="1.00" d=" M 21.47 1.20 C 24.29 0.62 21.02 5.31 19.52 4.72 C 18.87 3.33 20.26 1.77 21.47 1.20 Z" />
<path fill="#b8d88a" opacity="1.00" d=" M 45.95 3.05 C 47.68 2.93 49.50 2.14 51.20 2.82 C 52.37 4.42 50.72 6.19 50.40 7.82 C 53.23 6.26 56.23 4.97 59.36 4.14 L 59.69 5.48 C 59.72 5.84 59.79 6.55 59.82 6.90 C 60.99 8.53 62.11 10.20 63.15 11.92 C 64.04 12.41 64.93 12.90 65.82 13.38 C 65.65 14.33 65.48 15.28 65.31 16.23 C 63.90 16.48 62.50 16.73 61.09 16.98 C 60.01 18.65 59.02 20.42 57.64 21.88 C 56.10 22.54 54.35 22.31 52.76 22.81 C 51.94 23.82 51.41 25.01 50.89 26.19 C 50.69 26.82 50.28 28.07 50.07 28.69 C 48.30 29.00 46.53 29.30 44.76 29.58 C 44.61 28.32 44.46 27.05 44.32 25.79 C 42.65 26.53 40.86 28.39 38.94 27.22 C 37.97 25.95 37.71 24.32 37.27 22.82 C 37.57 20.39 38.13 17.99 38.90 15.66 C 41.32 16.77 43.40 18.43 45.34 20.23 C 44.40 18.83 43.47 17.42 42.55 16.01 C 43.66 12.36 44.16 8.57 44.65 4.79 C 44.98 4.36 45.63 3.48 45.95 3.05 M 57.31 15.28 C 54.35 16.70 58.57 18.58 59.76 16.72 C 60.85 15.21 58.27 14.45 57.31 15.28 Z" />
<path fill="#a6c782" opacity="1.00" d=" M 63.51 4.23 C 64.00 3.90 64.99 3.23 65.49 2.90 C 65.91 3.84 66.38 4.77 66.67 5.76 C 66.02 6.97 64.91 7.83 64.01 8.83 C 63.13 7.93 62.29 7.00 61.47 6.05 C 62.12 5.41 62.80 4.81 63.51 4.23 Z" />
<path fill="#3b5264" opacity="1.00" d=" M 90.73 19.51 C 93.72 14.47 91.41 8.36 93.08 2.97 C 95.16 6.05 95.67 9.84 95.52 13.48 C 95.45 14.70 95.37 15.92 95.28 17.14 C 94.88 17.50 94.07 18.23 93.66 18.59 C 93.23 18.68 92.37 18.86 91.95 18.95 C 92.24 19.96 92.54 20.98 92.83 21.99 C 88.57 23.56 84.21 24.82 79.91 26.27 C 79.04 26.69 78.19 27.14 77.34 27.59 C 75.23 25.47 73.09 23.19 72.66 20.08 C 73.83 20.83 74.99 21.61 76.15 22.38 C 77.25 22.04 78.35 21.69 79.44 21.35 C 80.09 22.20 80.75 23.04 81.40 23.89 C 84.11 21.64 87.25 20.10 90.73 19.51 Z" />
<path fill="#719f74" opacity="1.00" d=" M 38.90 15.66 C 40.21 11.75 42.13 8.06 44.65 4.79 C 44.16 8.57 43.66 12.36 42.55 16.01 C 43.47 17.42 44.40 18.83 45.34 20.23 C 43.40 18.43 41.32 16.77 38.90 15.66 Z" />
<path fill="#73a175" opacity="1.00" d=" M 57.31 15.28 C 58.27 14.45 60.85 15.21 59.76 16.72 C 58.57 18.58 54.35 16.70 57.31 15.28 Z" />
<path fill="#3b5261" opacity="1.00" d=" M 106.37 14.97 C 107.93 15.60 109.46 16.32 111.00 17.02 L 111.00 21.63 C 108.53 23.71 105.83 25.65 104.31 28.59 C 101.89 29.72 99.45 30.81 96.96 31.77 C 99.08 29.66 101.41 27.69 102.97 25.10 C 104.76 21.97 107.35 18.83 106.37 14.97 Z" />
<path fill="#000000" opacity="1.00" d=" M 91.95 18.95 C 92.37 18.86 93.23 18.68 93.66 18.59 C 94.14 21.68 93.96 24.83 93.50 27.91 C 93.09 30.82 89.39 32.80 86.80 31.21 C 84.96 30.46 84.41 28.42 83.63 26.79 C 82.39 26.62 81.15 26.44 79.91 26.27 C 84.21 24.82 88.57 23.56 92.83 21.99 C 92.54 20.98 92.24 19.96 91.95 18.95 M 84.87 26.43 C 85.57 28.00 86.28 30.44 88.56 29.97 C 88.97 29.83 89.79 29.56 90.20 29.42 L 90.55 30.52 C 92.48 28.80 92.55 26.30 91.99 23.96 C 89.51 24.45 87.15 25.36 84.87 26.43 Z" />
<path fill="#000000" opacity="1.00" d=" M 104.31 28.59 C 105.83 25.65 108.53 23.71 111.00 21.63 L 111.00 25.39 C 108.83 24.91 108.84 28.45 111.00 27.26 L 111.00 30.38 C 108.87 29.46 106.61 28.87 104.31 28.59 Z" />
<path fill="#659671" opacity="1.00" d=" M 37.01 24.83 C 37.07 24.33 37.21 23.32 37.27 22.82 C 37.71 24.32 37.97 25.95 38.94 27.22 C 40.86 28.39 42.65 26.53 44.32 25.79 C 44.46 27.05 44.61 28.32 44.76 29.58 C 46.53 29.30 48.30 29.00 50.07 28.69 C 50.65 29.84 51.23 30.99 51.81 32.14 C 49.44 33.41 46.98 35.10 46.74 38.04 C 46.44 40.92 44.58 43.05 42.28 44.64 C 41.94 45.50 41.58 46.36 41.24 47.22 C 40.62 45.78 39.98 44.36 39.35 42.94 C 39.03 44.63 38.77 46.33 38.55 48.04 C 36.40 48.56 34.23 48.93 32.03 49.19 C 31.88 47.73 31.75 46.27 31.64 44.81 C 32.09 43.90 32.62 43.04 33.19 42.20 C 34.72 42.73 36.85 44.87 38.29 43.10 C 39.49 41.45 37.37 40.18 36.55 38.96 C 34.36 37.07 32.01 35.31 30.34 32.91 C 33.18 32.86 36.01 32.83 38.85 32.81 C 38.87 32.11 38.93 30.71 38.96 30.01 C 37.93 29.72 36.90 29.44 35.87 29.16 C 35.24 28.34 34.60 27.53 33.96 26.72 C 34.96 26.06 35.99 25.45 37.01 24.83 Z" />
<path fill="#631244" opacity="1.00" d=" M 84.87 26.43 C 87.15 25.36 89.51 24.45 91.99 23.96 C 92.55 26.30 92.48 28.80 90.55 30.52 L 90.20 29.42 L 89.97 28.65 C 89.62 28.78 88.91 29.05 88.55 29.19 L 88.56 29.97 C 86.28 30.44 85.57 28.00 84.87 26.43 Z" />
<path fill="#a9cc86" opacity="1.00" d=" M 30.34 32.91 C 30.18 30.24 31.80 28.08 33.96 26.72 C 34.60 27.53 35.24 28.34 35.87 29.16 C 36.90 29.44 37.93 29.72 38.96 30.01 C 38.93 30.71 38.87 32.11 38.85 32.81 C 36.01 32.83 33.18 32.86 30.34 32.91 Z" />
<path fill="#f6c177" opacity="1.00" d=" M 88.55 29.19 C 88.91 29.05 89.62 28.78 89.97 28.65 L 90.20 29.42 C 89.79 29.56 88.97 29.83 88.56 29.97 L 88.55 29.19 Z" />
<path fill="#3b5161" opacity="1.00" d=" M 59.21 36.66 C 60.65 35.19 61.56 32.68 63.68 32.16 C 64.41 33.35 64.98 34.62 65.59 35.87 C 67.71 35.45 69.65 34.54 71.28 33.13 C 71.86 34.75 72.46 36.37 73.05 37.99 C 74.45 37.21 75.84 36.41 77.25 35.65 C 77.55 37.88 77.66 40.14 77.63 42.39 C 74.93 42.52 72.24 42.84 69.60 43.43 C 69.27 42.93 68.60 41.93 68.26 41.43 C 66.54 43.72 64.22 45.44 61.46 46.26 C 61.16 44.23 60.36 42.35 59.11 40.72 C 59.31 40.43 59.72 39.86 59.93 39.57 C 58.64 38.63 57.31 37.76 55.99 36.87 C 56.22 36.18 56.66 34.79 56.89 34.10 C 57.47 34.74 58.63 36.02 59.21 36.66 Z" />
<path fill="#456985" opacity="1.00" d=" M 47.39 42.87 C 47.74 38.82 49.91 34.12 54.33 33.36 C 53.87 36.19 54.09 39.01 56.62 40.78 C 56.27 41.33 55.58 42.45 55.23 43.01 C 55.21 42.39 55.16 41.15 55.14 40.54 C 52.48 41.03 49.91 41.88 47.39 42.87 Z" />
<path fill="#4f7168" opacity="1.00" d=" M 90.95 41.14 C 91.56 38.90 92.54 36.80 93.77 34.84 C 94.14 35.38 94.86 36.46 95.23 37.00 C 94.35 38.91 93.29 40.90 90.95 41.14 Z" />
<path fill="#3b5161" opacity="1.00" d=" M 108.33 35.11 C 109.23 35.44 110.11 35.78 111.00 36.14 L 111.00 40.96 C 109.39 41.54 109.39 42.10 111.00 42.67 L 111.00 63.40 C 108.11 66.52 104.76 69.24 101.03 71.29 C 98.09 70.84 95.13 70.16 92.15 70.71 C 92.28 71.77 92.41 72.83 92.55 73.89 C 89.25 75.74 85.97 77.94 82.05 78.01 C 81.25 78.75 80.46 79.50 79.67 80.24 C 77.16 78.58 74.65 76.89 72.16 75.19 C 71.90 75.90 71.38 77.32 71.12 78.03 C 70.39 76.05 69.77 74.02 69.57 71.91 C 70.43 68.08 71.07 64.20 71.30 60.28 C 73.19 59.44 75.09 58.62 76.93 57.69 C 75.64 60.85 73.87 63.81 72.86 67.09 C 75.03 64.64 77.16 61.25 80.96 62.21 C 83.63 58.39 85.07 53.94 86.06 49.42 C 87.58 51.01 89.06 52.64 90.49 54.32 C 90.04 54.32 89.15 54.33 88.70 54.34 C 87.83 55.07 86.97 55.82 86.12 56.59 C 88.62 58.41 91.12 61.88 94.63 60.60 C 97.07 59.26 98.46 56.62 100.35 54.65 C 98.88 54.71 97.42 54.78 95.95 54.86 C 97.20 53.73 98.44 52.58 99.51 51.27 C 100.47 53.71 100.92 56.42 102.43 58.59 C 103.99 60.58 106.18 58.55 106.91 56.91 C 107.87 54.96 109.66 52.94 109.44 50.68 C 106.75 47.26 101.80 45.73 100.92 40.95 C 103.67 40.64 106.45 40.50 109.19 40.07 C 110.16 38.43 108.70 36.72 108.33 35.11 M 75.56 66.73 C 76.72 69.24 77.85 72.25 80.66 73.29 C 80.08 71.70 79.55 70.09 79.23 68.42 C 78.02 67.84 76.79 67.28 75.56 66.73 M 81.44 70.10 C 80.44 71.41 82.70 72.96 83.63 71.65 C 84.66 70.33 82.37 68.79 81.44 70.10 Z" />
<path fill="#96bc80" opacity="1.00" d=" M 33.19 42.20 C 34.29 41.10 35.41 40.01 36.55 38.96 C 37.37 40.18 39.49 41.45 38.29 43.10 C 36.85 44.87 34.72 42.73 33.19 42.20 Z" />
<path fill="#71a2b2" opacity="1.00" d=" M 47.39 42.87 C 49.91 41.88 52.48 41.03 55.14 40.54 C 55.16 41.15 55.21 42.39 55.23 43.01 C 55.23 43.83 55.23 45.48 55.23 46.31 C 54.06 45.26 52.91 44.19 51.76 43.13 C 50.74 44.21 49.74 45.34 49.24 46.77 C 48.65 45.45 48.03 44.16 47.39 42.87 Z" />
<path fill="#223041" opacity="1.00" d=" M 57.89 44.86 C 56.70 43.38 58.37 41.91 59.11 40.72 C 60.36 42.35 61.16 44.23 61.46 46.26 C 60.18 46.00 58.99 45.53 57.89 44.86 Z" />
<path fill="#11161a" opacity="1.00" d=" M 111.00 42.67 C 109.39 42.10 109.39 41.54 111.00 40.96 L 111.00 42.67 Z" />
<path fill="#405964" opacity="1.00" d=" M 38.55 48.04 C 38.77 46.33 39.03 44.63 39.35 42.94 C 39.98 44.36 40.62 45.78 41.24 47.22 C 41.58 46.36 41.94 45.50 42.28 44.64 C 43.65 44.59 45.02 44.55 46.39 44.48 C 46.46 46.09 46.46 47.69 46.46 49.30 C 44.59 50.05 42.72 50.80 40.81 51.44 C 37.73 50.91 34.44 50.72 31.67 49.15 C 30.39 48.03 31.13 46.15 31.64 44.81 C 31.75 46.27 31.88 47.73 32.03 49.19 C 34.23 48.93 36.40 48.56 38.55 48.04 Z" />
<path fill="#c6efd8" opacity="1.00" d=" M 49.24 46.77 C 49.74 45.34 50.74 44.21 51.76 43.13 C 52.91 44.19 54.06 45.26 55.23 46.31 C 56.50 47.70 58.34 48.18 60.06 48.74 C 58.94 49.79 57.52 50.41 56.14 51.03 C 53.80 49.71 50.93 48.98 49.24 46.77 Z" />
<path fill="#3b5261" opacity="1.00" d=" M 74.37 45.49 C 75.94 45.06 77.51 44.62 79.08 44.19 C 78.31 45.67 77.45 47.14 77.10 48.79 C 78.59 51.26 81.43 48.74 83.35 48.14 C 81.65 51.36 79.45 54.26 77.21 57.11 C 77.16 56.62 77.05 55.62 77.00 55.12 C 75.71 55.85 74.43 56.62 73.08 57.25 C 71.61 57.22 70.16 57.17 68.70 57.10 C 69.95 56.30 71.20 55.50 72.46 54.71 C 72.42 53.93 72.39 53.16 72.37 52.38 C 73.58 50.27 74.18 47.91 74.37 45.49 Z" />
<path fill="#6e1448" opacity="1.00" d=" M 62.46 48.92 C 65.11 45.99 68.76 44.69 72.68 45.37 C 72.80 46.47 72.93 47.57 73.06 48.66 L 72.76 48.65 C 72.31 48.63 71.41 48.60 70.97 48.58 C 69.15 49.55 67.45 50.73 65.75 51.89 C 64.65 50.90 63.55 49.92 62.46 48.92 Z" />
<path fill="#dece6e" opacity="1.00" d=" M 65.75 51.89 C 67.45 50.73 69.15 49.55 70.97 48.58 C 71.41 48.60 72.31 48.63 72.76 48.65 C 71.28 51.20 68.43 51.70 65.75 51.89 Z" />
<path fill="#212e3f" opacity="1.00" d=" M 40.81 51.44 C 42.72 50.80 44.59 50.05 46.46 49.30 C 46.50 51.05 46.69 52.79 46.89 54.52 C 44.41 54.51 42.31 53.38 40.81 51.44 Z" />
<path fill="#621a3d" opacity="1.00" d=" M 47.88 49.13 C 49.10 50.12 51.65 50.39 51.78 52.13 C 51.82 52.55 51.88 53.41 51.91 53.84 C 49.08 54.03 47.92 51.60 47.88 49.13 Z" />
<path fill="#7fb0bb" opacity="1.00" d=" M 57.65 52.95 C 59.15 52.03 60.65 51.10 62.16 50.18 C 62.69 52.28 62.89 54.44 62.84 56.61 C 59.91 57.28 57.02 58.30 54.66 60.23 C 58.20 60.24 61.56 58.75 65.09 58.79 C 68.99 59.81 68.88 64.67 67.89 67.78 C 66.50 66.34 65.11 64.90 63.74 63.44 C 63.36 63.04 62.98 62.64 62.61 62.23 L 62.41 62.99 C 59.68 61.60 56.66 61.01 53.63 61.57 C 51.41 61.65 48.93 61.04 48.47 58.53 C 47.30 58.36 46.13 58.22 44.95 58.13 C 46.75 57.29 48.48 56.29 50.21 55.31 C 50.69 55.62 51.65 56.23 52.13 56.53 C 53.21 56.07 54.31 55.65 55.44 55.31 L 53.06 57.62 C 54.71 57.83 56.19 57.43 57.49 56.40 C 57.53 55.25 57.59 54.10 57.65 52.95 Z" />
<path fill="#000000" opacity="1.00" d=" M 98.96 49.59 C 99.09 50.01 99.37 50.85 99.51 51.27 C 98.44 52.58 97.20 53.73 95.95 54.86 C 97.42 54.78 98.88 54.71 100.35 54.65 C 98.46 56.62 97.07 59.26 94.63 60.60 C 91.12 61.88 88.62 58.41 86.12 56.59 C 86.97 55.82 87.83 55.07 88.70 54.34 C 89.15 54.33 90.04 54.32 90.49 54.32 C 91.64 54.39 92.78 54.47 93.93 54.58 C 95.77 53.09 97.50 51.47 98.96 49.59 M 89.11 56.35 C 89.44 57.21 89.77 58.07 90.11 58.92 C 92.56 60.15 96.30 59.65 96.18 56.22 C 93.82 56.26 91.46 56.32 89.11 56.35 Z" />
<path fill="#dece6e" opacity="1.00" d=" M 51.78 52.13 C 53.16 51.43 54.16 51.76 54.79 53.13 C 54.13 54.43 53.17 54.67 51.91 53.84 C 51.88 53.41 51.82 52.55 51.78 52.13 Z" />
<path fill="#212e40" opacity="1.00" d=" M 65.05 53.48 C 67.49 53.10 69.92 52.72 72.37 52.38 C 72.39 53.16 72.42 53.93 72.46 54.71 C 71.20 55.50 69.95 56.30 68.70 57.10 C 70.16 57.17 71.61 57.22 73.08 57.25 C 70.18 59.09 67.10 57.33 64.31 56.22 C 64.50 55.54 64.87 54.17 65.05 53.48 Z" />
<path fill="#dece6e" opacity="1.00" d=" M 12.46 56.00 C 16.23 55.04 20.32 54.29 23.99 56.07 C 25.40 56.81 26.85 57.50 28.31 58.14 C 27.37 59.41 26.30 60.57 25.20 61.70 C 24.65 61.60 23.55 61.40 23.00 61.30 C 22.74 61.43 22.22 61.70 21.97 61.83 C 20.26 61.82 18.55 61.77 16.84 61.72 C 18.60 60.65 20.27 59.43 21.88 58.14 C 18.70 57.61 15.56 56.86 12.46 56.00 Z" />
<path fill="#a6885d" opacity="1.00" d=" M 25.10 56.33 C 26.27 55.67 27.43 55.00 28.59 54.32 C 28.77 56.80 28.85 59.30 28.45 61.77 C 29.60 58.12 33.37 56.82 36.83 56.52 C 36.75 58.19 34.18 58.23 33.18 59.36 L 32.94 59.51 C 31.78 60.79 30.84 62.63 28.83 62.50 L 27.48 62.18 C 26.91 62.06 25.77 61.82 25.20 61.70 C 26.30 60.57 27.37 59.41 28.31 58.14 C 26.85 57.50 25.40 56.81 23.99 56.07 L 25.10 56.33 Z" />
<path fill="#000000" opacity="0.35" d=" M 40.16 55.22 C 41.83 54.66 42.42 55.18 41.92 56.77 C 40.25 57.33 39.66 56.81 40.16 55.22 Z" />
<path fill="#8d8c64" opacity="1.00" d=" M 0.00 61.82 C 2.95 57.94 8.10 57.33 12.46 56.00 C 15.56 56.86 18.70 57.61 21.88 58.14 C 20.27 59.43 18.60 60.65 16.84 61.72 C 13.89 61.55 10.92 61.77 8.03 62.37 C 5.37 62.71 2.68 62.79 0.00 62.89 L 0.00 61.82 Z" />
<path fill="#80284e" opacity="1.00" d=" M 89.11 56.35 C 91.46 56.32 93.82 56.26 96.18 56.22 C 96.30 59.65 92.56 60.15 90.11 58.92 C 89.77 58.07 89.44 57.21 89.11 56.35 Z" />
<path fill="#daffeb" opacity="1.00" d=" M 39.10 58.85 C 41.06 58.72 43.01 58.45 44.95 58.13 C 46.13 58.22 47.30 58.36 48.47 58.53 C 47.01 59.43 45.48 60.21 43.92 60.93 C 41.25 60.91 38.58 60.89 35.91 60.87 C 36.68 59.80 37.90 59.27 39.10 58.85 Z" />
<path fill="#66523d" opacity="1.00" d=" M 32.94 59.51 L 33.18 59.36 C 33.42 59.63 33.88 60.19 34.12 60.46 C 35.53 59.29 37.25 58.72 39.10 58.85 C 37.90 59.27 36.68 59.80 35.91 60.87 L 36.31 61.46 C 36.11 61.96 35.73 62.96 35.54 63.45 C 34.28 64.04 33.04 64.64 31.77 65.19 C 29.80 64.49 27.83 63.79 25.85 63.13 C 26.59 62.97 28.09 62.66 28.83 62.50 C 30.84 62.63 31.78 60.79 32.94 59.51 Z" />
<path fill="#745134" opacity="1.00" d=" M 16.84 61.72 C 18.55 61.77 20.26 61.82 21.97 61.83 C 17.21 64.96 11.63 66.41 6.07 67.32 C 4.90 66.58 3.74 65.84 2.57 65.10 C 4.12 64.86 5.68 64.63 7.22 64.32 C 7.42 63.83 7.83 62.86 8.03 62.37 C 10.92 61.77 13.89 61.55 16.84 61.72 Z" />
<path fill="#7fb0bb" opacity="1.00" d=" M 35.91 60.87 C 38.58 60.89 41.25 60.91 43.92 60.93 C 42.11 62.33 40.24 63.89 37.80 63.63 C 37.42 63.09 36.68 62.00 36.31 61.46 L 35.91 60.87 Z" />
<path fill="#c9f2db" opacity="1.00" d=" M 53.63 61.57 C 56.66 61.01 59.68 61.60 62.41 62.99 C 62.32 63.31 62.15 63.94 62.07 64.25 C 60.44 65.88 58.98 67.79 56.92 68.88 C 54.22 70.17 51.42 68.70 48.81 67.94 C 48.79 64.87 50.79 62.54 53.63 61.57 Z" />
<path fill="#ccf5dd" opacity="1.00" d=" M 41.94 66.60 C 42.01 63.90 44.28 62.48 46.38 61.29 C 47.52 61.76 48.66 62.24 49.76 62.81 L 48.28 63.54 L 47.60 64.92 C 47.39 65.47 46.98 66.57 46.77 67.12 C 45.31 66.96 43.85 66.80 42.39 66.65 L 41.94 66.60 Z" />
<path fill="#573323" opacity="1.00" d=" M 0.00 62.89 C 2.68 62.79 5.37 62.71 8.03 62.37 C 7.83 62.86 7.42 63.83 7.22 64.32 C 5.68 64.63 4.12 64.86 2.57 65.10 C 3.74 65.84 4.90 66.58 6.07 67.32 C 4.05 67.51 2.03 67.58 0.00 67.66 L 0.00 62.89 Z" />
<path fill="#502d1f" opacity="1.00" d=" M 5.62 69.15 C 12.30 66.92 19.17 65.35 25.85 63.13 C 27.83 63.79 29.80 64.49 31.77 65.19 C 29.68 65.66 27.49 65.72 25.45 66.44 C 21.84 68.06 19.11 71.04 16.68 74.08 C 12.92 72.62 9.20 71.03 5.62 69.15 Z" />
<path fill="#caf3db" opacity="1.00" d=" M 63.74 63.44 C 65.11 64.90 66.50 66.34 67.89 67.78 C 67.28 70.67 66.70 73.57 66.08 76.46 C 64.21 76.32 62.34 76.17 60.47 76.04 C 61.24 71.74 63.80 67.92 63.74 63.44 Z" />
<path fill="#6090a7" opacity="1.00" d=" M 46.77 67.12 C 46.98 66.57 47.39 65.47 47.60 64.92 C 47.20 67.10 46.85 69.76 48.54 71.51 C 51.19 74.48 55.67 74.01 59.16 73.18 C 58.96 73.73 58.56 74.83 58.36 75.38 C 55.49 75.27 52.63 75.00 49.80 74.51 C 47.98 71.25 43.87 70.10 42.39 66.65 C 43.85 66.80 45.31 66.96 46.77 67.12 Z" />
<path fill="#517f9e" opacity="1.00" d=" M 56.92 68.88 C 58.98 67.79 60.44 65.88 62.07 64.25 C 61.44 67.70 59.13 72.15 54.99 71.63 C 52.28 71.95 49.89 70.36 48.81 67.94 C 51.42 68.70 54.22 70.17 56.92 68.88 Z" />
<path fill="#557c6b" opacity="1.00" d=" M 75.56 66.73 C 76.79 67.28 78.02 67.84 79.23 68.42 C 79.55 70.09 80.08 71.70 80.66 73.29 C 77.85 72.25 76.72 69.24 75.56 66.73 Z" />
<path fill="#547c6b" opacity="1.00" d=" M 81.44 70.10 C 82.37 68.79 84.66 70.33 83.63 71.65 C 82.70 72.96 80.44 71.41 81.44 70.10 Z" />
<path fill="#1e293b" opacity="1.00" d=" M 92.15 70.71 C 95.13 70.16 98.09 70.84 101.03 71.29 C 98.79 72.58 96.52 73.82 94.25 75.06 C 94.66 75.49 95.49 76.35 95.91 76.78 C 93.22 80.29 88.77 81.00 84.64 81.41 C 84.19 84.72 82.10 88.43 78.21 87.48 C 78.28 86.46 78.35 85.43 78.43 84.41 C 74.46 83.54 70.46 82.22 68.06 78.70 C 68.58 76.44 69.10 74.18 69.57 71.91 C 69.77 74.02 70.39 76.05 71.12 78.03 C 71.38 77.32 71.90 75.90 72.16 75.19 C 74.65 76.89 77.16 78.58 79.67 80.24 C 80.46 79.50 81.25 78.75 82.05 78.01 C 85.97 77.94 89.25 75.74 92.55 73.89 C 92.41 72.83 92.28 71.77 92.15 70.71 Z" />
<path fill="#a6885d" opacity="1.00" d=" M 40.36 78.53 C 40.67 77.14 40.65 73.62 42.99 74.86 C 47.03 77.12 51.61 77.55 56.15 77.82 C 54.36 77.96 52.58 78.16 50.79 78.34 C 52.13 79.73 54.30 80.75 54.72 82.75 C 52.97 83.14 51.38 81.97 49.91 81.20 C 47.18 79.05 43.75 78.45 40.36 78.53 Z" />
<path fill="#daffeb" opacity="1.00" d=" M 38.00 79.76 C 35.76 79.24 36.95 75.40 39.09 76.29 C 39.85 77.35 39.23 79.33 38.00 79.76 Z" />
<path fill="#888f66" opacity="1.00" d=" M 50.79 78.34 C 52.58 78.16 54.36 77.96 56.15 77.82 C 56.59 77.98 57.47 78.30 57.91 78.46 C 58.13 79.15 58.35 79.83 58.56 80.52 C 56.82 82.70 54.53 84.17 51.67 84.22 C 51.11 83.20 50.52 82.19 49.91 81.20 C 51.38 81.97 52.97 83.14 54.72 82.75 C 54.30 80.75 52.13 79.73 50.79 78.34 Z" />
<path fill="#b69864" opacity="1.00" d=" M 57.91 78.46 C 60.64 78.58 63.70 78.03 65.86 80.16 C 64.01 80.62 62.16 81.07 60.30 81.51 C 60.17 82.05 59.90 83.13 59.77 83.67 C 56.95 84.84 53.88 84.64 50.91 84.36 L 51.67 84.22 C 54.53 84.17 56.82 82.70 58.56 80.52 C 58.35 79.83 58.13 79.15 57.91 78.46 Z" />
<path fill="#000000" opacity="1.00" d=" M 102.77 83.80 C 104.57 80.68 108.10 79.30 111.00 77.45 L 111.00 80.94 C 109.87 81.75 108.71 82.51 107.59 83.33 C 106.79 84.00 106.03 84.70 105.27 85.40 C 105.44 86.06 105.62 86.72 105.80 87.38 C 106.40 89.70 107.11 92.00 107.85 94.28 C 105.23 94.35 102.61 94.38 100.00 94.40 C 102.38 96.29 104.88 98.01 107.31 99.84 C 108.63 101.07 109.86 102.40 111.00 103.81 L 111.00 109.57 C 108.92 106.27 106.78 102.83 103.42 100.68 C 100.20 98.24 96.17 96.47 93.98 92.94 C 93.99 92.17 94.00 90.63 94.01 89.86 C 97.22 90.46 100.39 91.22 103.57 91.95 C 103.05 89.33 101.51 86.43 102.77 83.80 Z" />
<path fill="#755135" opacity="1.00" d=" M 40.36 78.53 C 43.75 78.45 47.18 79.05 49.91 81.20 C 50.52 82.19 51.11 83.20 51.67 84.22 C 50.40 83.59 49.14 82.94 47.88 82.28 C 45.19 82.50 42.53 82.10 40.06 81.03 C 40.13 80.40 40.28 79.15 40.36 78.53 Z" />
<path fill="#a4865b" opacity="1.00" d=" M 65.86 80.16 C 68.54 82.61 71.30 85.27 75.01 85.99 C 73.98 86.77 72.95 87.56 71.91 88.34 C 67.16 87.71 62.12 87.02 57.69 89.38 C 57.00 88.44 56.28 87.50 55.56 86.58 C 57.51 86.61 59.46 86.63 61.42 86.62 C 61.52 85.75 61.73 84.00 61.83 83.13 L 59.77 83.67 C 59.90 83.13 60.17 82.05 60.30 81.51 C 62.16 81.07 64.01 80.62 65.86 80.16 Z" />
<path fill="#392f20" opacity="1.00" d=" M 28.35 81.19 C 29.84 79.99 30.73 82.79 29.52 83.57 C 28.03 84.75 27.16 81.97 28.35 81.19 Z" />
<path fill="#96b890" opacity="1.00" d=" M 107.59 83.33 C 108.71 82.51 109.87 81.75 111.00 80.94 L 111.00 88.14 C 109.90 86.51 108.74 84.92 107.59 83.33 Z" />
<path fill="#76a9ba" opacity="1.00" d=" M 34.95 83.47 C 35.96 82.97 36.98 82.47 38.00 81.96 C 40.63 83.80 43.58 85.56 46.95 84.88 C 49.30 85.63 47.74 88.31 47.76 90.03 C 47.85 92.57 44.93 92.48 43.15 92.89 C 43.87 90.59 44.62 88.29 44.98 85.89 C 44.06 86.63 43.16 87.39 42.28 88.18 C 39.60 87.00 37.23 85.28 34.95 83.47 Z" />
<path fill="#c9f2db" opacity="1.00" d=" M 30.93 86.58 C 31.74 84.97 33.46 84.31 34.95 83.47 C 37.23 85.28 39.60 87.00 42.28 88.18 C 39.19 90.41 35.66 91.97 32.06 93.18 C 33.43 90.75 34.67 87.62 37.70 86.91 C 37.12 86.36 36.54 85.81 35.96 85.26 C 34.29 85.71 32.62 86.20 30.93 86.58 Z" />
<path fill="#485b5d" opacity="1.00" d=" M 105.27 85.40 C 106.03 84.70 106.79 84.00 107.59 83.33 C 108.74 84.92 109.90 86.51 111.00 88.14 L 111.00 91.47 C 109.44 89.90 107.70 88.52 105.80 87.38 C 105.62 86.72 105.44 86.06 105.27 85.40 Z" />
<path fill="#dece6e" opacity="1.00" d=" M 20.93 91.79 C 22.35 89.52 24.31 86.08 27.52 86.86 C 25.72 88.93 23.97 91.69 20.93 91.79 Z" />
<path fill="#a4865b" opacity="1.00" d=" M 27.52 86.86 C 28.09 87.52 28.65 88.18 29.21 88.86 C 25.43 95.71 26.07 103.69 24.05 111.00 L 23.53 111.00 C 20.50 105.21 19.05 98.14 20.93 91.79 C 23.97 91.69 25.72 88.93 27.52 86.86 Z" />
<path fill="#36404d" opacity="1.00" d=" M 105.80 87.38 C 107.70 88.52 109.44 89.90 111.00 91.47 L 111.00 95.56 C 109.76 96.97 108.53 98.40 107.31 99.84 C 104.88 98.01 102.38 96.29 100.00 94.40 C 102.61 94.38 105.23 94.35 107.85 94.28 C 107.11 92.00 106.40 89.70 105.80 87.38 Z" />
<path fill="#876747" opacity="1.00" d=" M 29.21 96.03 C 30.05 93.08 30.13 89.13 33.11 87.45 C 31.69 90.26 30.32 93.09 29.21 96.03 Z" />
<path fill="#76a9ba" opacity="1.00" d=" M 51.22 88.31 C 52.18 89.42 54.81 90.07 54.22 91.76 C 53.69 91.80 52.63 91.86 52.10 91.89 L 52.08 89.13 C 51.12 90.27 50.63 91.90 49.34 92.73 C 48.89 91.03 50.46 89.67 51.22 88.31 Z" />
<path fill="#5c3a2a" opacity="1.00" d=" M 57.69 89.38 C 62.12 87.02 67.16 87.71 71.91 88.34 C 70.02 89.64 68.47 91.66 66.25 92.33 C 63.14 92.21 58.58 93.63 57.69 89.38 Z" />
<path fill="#b69864" opacity="1.00" d=" M 28.73 100.09 C 31.34 95.55 36.27 92.97 41.29 92.07 C 38.98 93.92 36.33 95.26 33.98 97.04 C 31.46 98.95 30.21 101.97 28.09 104.25 C 28.28 102.86 28.50 101.47 28.73 100.09 Z" />
<path fill="#66442d" opacity="1.00" d=" M 71.34 99.60 C 68.85 97.12 69.64 93.22 73.03 92.08 C 74.81 94.48 76.10 97.19 77.13 99.98 C 75.20 99.85 73.27 99.72 71.34 99.60 Z" />
<path fill="#94885e" opacity="1.00" d=" M 45.87 96.16 C 50.05 95.09 54.42 94.25 58.73 94.98 C 56.52 97.28 54.32 99.62 52.61 102.33 C 49.09 103.06 45.55 103.73 42.04 104.52 C 39.95 102.81 37.35 102.23 34.69 102.46 C 37.96 101.03 41.27 99.68 44.78 98.97 C 45.53 99.55 46.29 100.13 47.05 100.71 C 46.66 99.19 46.27 97.67 45.87 96.16 Z" />
<path fill="#583625" opacity="1.00" d=" M 58.73 94.98 C 60.14 95.53 61.52 96.15 62.91 96.74 C 59.82 99.16 56.69 101.92 52.61 102.33 C 54.32 99.62 56.52 97.28 58.73 94.98 Z" />
<path fill="#472318" opacity="1.00" d=" M 61.02 101.00 C 63.01 98.57 64.97 96.10 67.20 93.88 C 67.96 97.35 68.87 101.04 67.44 104.47 C 66.74 103.17 66.04 101.87 65.34 100.57 C 63.90 100.71 62.46 100.86 61.02 101.00 Z" />
<path fill="#a4875a" opacity="1.00" d=" M 5.38 98.29 C 8.68 96.02 12.81 96.21 16.63 96.07 C 16.11 97.39 15.58 98.71 15.04 100.03 C 12.12 101.05 9.05 101.74 6.32 103.24 C 4.13 105.20 3.70 108.37 2.69 111.00 L 0.49 111.00 C -0.13 108.67 0.67 106.33 1.27 104.09 C 2.79 103.66 4.31 103.24 5.82 102.81 C 5.68 101.30 5.53 99.79 5.38 98.29 Z" />
<path fill="#dece6e" opacity="1.00" d=" M 32.43 102.69 C 36.22 99.31 41.09 97.59 45.87 96.16 C 46.27 97.67 46.66 99.19 47.05 100.71 C 46.29 100.13 45.53 99.55 44.78 98.97 C 41.27 99.68 37.96 101.03 34.69 102.46 C 34.13 102.51 33.00 102.63 32.43 102.69 Z" />
<path fill="#44555d" opacity="1.00" d=" M 107.31 99.84 C 108.53 98.40 109.76 96.97 111.00 95.56 L 111.00 103.81 C 109.86 102.40 108.63 101.07 107.31 99.84 Z" />
<path fill="#dece6e" opacity="1.00" d=" M 1.27 104.09 C 2.40 102.00 3.76 100.03 5.38 98.29 C 5.53 99.79 5.68 101.30 5.82 102.81 C 4.31 103.24 2.79 103.66 1.27 104.09 Z" />
<path fill="#6e4c34" opacity="1.00" d=" M 6.32 103.24 C 9.05 101.74 12.12 101.05 15.04 100.03 C 14.61 101.08 14.17 102.13 13.72 103.17 C 12.26 103.50 10.70 103.58 9.35 104.26 C 7.09 105.77 6.83 108.69 5.88 111.00 L 2.69 111.00 C 3.70 108.37 4.13 105.20 6.32 103.24 Z" />
<path fill="#5c4432" opacity="1.00" d=" M 61.02 101.00 C 62.46 100.86 63.90 100.71 65.34 100.57 C 66.04 101.87 66.74 103.17 67.44 104.47 C 66.15 106.82 64.60 109.02 62.79 111.00 L 45.95 111.00 C 46.48 109.87 46.96 108.73 47.44 107.58 C 49.28 110.16 52.23 110.90 55.27 110.69 C 56.11 108.54 56.95 106.39 57.62 104.19 C 57.21 104.06 56.40 103.82 55.99 103.70 C 57.82 103.13 59.60 102.32 61.02 101.00 Z" />
<path fill="#866443" opacity="1.00" d=" M 34.69 102.46 C 37.35 102.23 39.95 102.81 42.04 104.52 C 36.72 105.63 31.57 107.61 27.28 111.00 L 26.70 111.00 C 28.43 108.11 30.13 105.17 32.43 102.69 C 33.00 102.63 34.13 102.51 34.69 102.46 Z" />
<path fill="#482219" opacity="1.00" d=" M 71.06 102.04 C 72.58 102.33 74.09 102.63 75.61 102.87 C 77.48 105.30 80.55 105.86 83.23 106.94 C 85.56 107.83 87.41 109.54 89.39 111.00 L 85.56 111.00 C 80.43 109.11 75.44 106.70 69.97 105.88 C 70.33 104.60 70.70 103.32 71.06 102.04 Z" />
<path fill="#6f4c33" opacity="1.00" d=" M 75.61 102.87 C 83.38 103.16 91.21 105.63 96.98 111.00 L 89.39 111.00 C 87.41 109.54 85.56 107.83 83.23 106.94 C 80.55 105.86 77.48 105.30 75.61 102.87 Z" />
<path fill="#5e3b2b" opacity="1.00" d=" M 16.58 103.43 C 17.67 105.91 18.55 108.46 19.48 111.00 L 14.71 111.00 C 15.37 108.49 15.93 105.95 16.58 103.43 Z" />
<path fill="#95754f" opacity="1.00" d=" M 45.97 105.98 C 49.32 105.25 52.66 104.50 55.99 103.70 C 56.40 103.82 57.21 104.06 57.62 104.19 C 56.95 106.39 56.11 108.54 55.27 110.69 C 52.23 110.90 49.28 110.16 47.44 107.58 C 46.96 108.73 46.48 109.87 45.95 111.00 L 44.36 111.00 C 44.89 109.32 45.42 107.65 45.97 105.98 Z" />
<path fill="#7c9068" opacity="1.00" d=" M 39.64 107.80 C 41.72 107.10 43.83 106.47 45.97 105.98 C 45.42 107.65 44.89 109.32 44.36 111.00 L 41.21 111.00 C 40.67 109.94 40.15 108.88 39.64 107.80 Z" />
<path fill="#9e8056" opacity="1.00" d=" M 31.36 111.00 C 34.11 109.90 36.83 108.74 39.64 107.80 C 40.15 108.88 40.67 109.94 41.21 111.00 L 31.36 111.00 Z" />
</svg>
