<?xml version="1.0" encoding="UTF-8" ?>
<!DOCTYPE svg PUBLIC "-//W3C//DTD SVG 1.1//EN" "http://www.w3.org/Graphics/SVG/1.1/DTD/svg11.dtd">
<svg width="111pt" height="111pt" viewBox="0 0 111 111" version="1.1" xmlns="http://www.w3.org/2000/svg">
<path fill="#000000" opacity="1.00" d=" M 54.57 0.00 L 56.64 0.00 C 58.09 4.91 58.95 9.96 59.97 14.97 C 66.07 10.59 71.28 4.86 78.21 1.74 C 77.13 6.68 73.28 10.21 70.46 14.18 C 72.94 14.85 75.49 16.21 78.11 15.46 C 86.46 13.30 94.92 11.50 103.50 10.64 C 98.54 16.58 90.43 17.78 84.00 21.52 C 87.48 24.22 91.83 24.63 96.08 24.42 C 100.49 20.16 105.87 17.15 111.00 13.87 L 111.00 22.67 C 110.06 21.42 109.08 20.21 108.10 19.00 C 105.96 25.69 104.32 32.84 105.71 39.86 C 106.51 43.46 108.79 46.43 111.00 49.28 L 111.00 52.23 C 110.49 51.37 108.37 50.06 108.08 51.72 C 108.73 52.80 109.70 53.16 111.00 52.82 L 111.00 56.56 C 109.77 58.31 108.29 59.85 106.73 61.31 C 107.31 59.39 107.92 57.49 108.55 55.60 C 108.09 55.46 107.16 55.20 106.70 55.07 C 105.99 57.78 105.66 60.71 104.07 63.09 C 101.79 64.99 98.84 65.82 96.22 67.13 C 94.04 68.10 91.87 69.11 89.79 70.26 L 89.90 71.49 C 90.40 71.77 91.41 72.31 91.91 72.58 C 97.29 70.33 102.09 66.99 106.94 63.81 C 108.69 62.65 109.87 60.87 111.00 59.15 L 111.00 63.74 C 110.03 65.17 108.87 66.46 107.50 67.51 C 104.12 69.43 100.65 71.19 97.22 73.01 C 94.80 73.95 92.25 74.65 90.02 76.04 C 91.41 79.14 94.76 80.99 97.08 83.44 C 100.93 81.53 101.75 76.23 105.94 75.02 C 104.95 77.34 103.83 79.60 102.64 81.83 C 105.30 86.62 107.81 91.49 111.00 95.97 L 111.00 99.68 C 106.40 95.46 103.69 89.79 101.12 84.21 C 99.72 85.01 98.32 85.81 96.91 86.60 C 93.03 83.46 90.00 79.40 85.98 76.43 C 84.38 77.48 82.75 78.49 81.13 79.49 C 82.05 80.89 82.96 82.30 83.87 83.71 C 85.39 83.13 86.88 81.77 88.61 82.33 C 93.06 87.06 91.65 95.13 97.45 98.76 C 100.61 101.29 103.45 104.18 106.13 107.22 C 107.75 107.39 109.37 107.55 111.00 107.71 L 111.00 110.64 C 108.49 109.93 106.01 109.18 103.54 108.36 C 103.60 109.02 103.73 110.34 103.79 111.00 L 101.81 111.00 C 101.42 109.19 101.07 107.35 100.34 105.64 C 98.59 103.07 96.16 101.01 93.36 99.67 C 93.49 100.23 93.75 101.37 93.88 101.93 C 89.95 101.95 86.26 100.57 82.81 98.83 C 80.68 97.51 78.47 96.33 76.20 95.26 C 79.46 101.26 83.83 106.64 89.09 111.00 L 85.51 111.00 C 81.39 107.61 77.93 103.49 75.06 99.00 C 73.81 99.98 72.56 100.93 71.28 101.86 C 69.84 100.44 67.87 100.38 65.96 100.65 C 65.44 100.06 64.92 99.47 64.40 98.88 C 65.46 98.77 67.58 98.55 68.64 98.44 C 68.15 97.11 67.66 95.77 67.19 94.44 C 66.27 94.44 65.36 94.44 64.44 94.45 C 64.35 96.59 64.27 98.72 64.34 100.86 C 63.83 100.98 62.81 101.21 62.29 101.32 C 61.50 103.58 60.83 105.89 59.95 108.11 C 59.49 109.09 59.00 110.05 58.47 111.00 L 56.14 111.00 C 57.51 108.52 58.53 105.87 59.54 103.23 C 58.56 101.82 57.57 100.40 56.58 98.99 C 55.71 99.60 54.84 100.20 53.98 100.82 C 49.95 103.04 45.71 106.79 40.79 105.21 C 39.86 107.15 38.94 109.10 37.93 111.00 L 36.06 111.00 C 37.77 107.74 39.34 104.40 40.78 101.02 C 32.62 103.92 24.62 107.28 16.80 111.00 L 11.80 111.00 C 12.99 108.50 14.06 105.94 15.31 103.47 C 15.67 105.21 16.10 106.95 16.52 108.68 C 17.64 108.13 18.77 107.58 19.90 107.03 C 23.92 105.11 27.89 103.06 31.61 100.60 C 33.42 100.53 35.22 100.21 36.88 99.46 C 37.26 99.21 38.03 98.73 38.41 98.48 C 39.14 95.88 39.76 93.24 40.54 90.65 C 40.69 92.40 40.84 94.15 40.99 95.89 C 41.57 95.29 42.15 94.69 42.71 94.07 C 45.10 90.57 45.80 86.29 47.68 82.54 C 49.28 80.28 50.73 77.92 52.17 75.56 C 53.88 76.99 55.58 78.43 57.28 79.86 C 57.72 79.77 58.60 79.58 59.03 79.49 C 58.03 78.35 57.02 77.22 56.02 76.09 C 56.54 76.20 57.59 76.42 58.11 76.53 C 58.96 77.13 59.87 77.62 60.83 78.02 C 62.19 77.27 63.43 76.34 64.69 75.44 C 66.58 74.06 68.51 72.72 70.35 71.27 C 72.11 69.53 73.63 67.58 75.18 65.66 C 68.70 63.13 59.97 61.28 54.52 66.85 C 54.44 69.27 54.55 71.69 54.70 74.11 C 54.72 74.38 54.75 74.92 54.76 75.19 C 53.45 74.55 52.50 73.42 51.36 72.54 C 49.39 72.19 47.42 73.02 45.49 73.35 C 43.94 76.69 41.08 79.02 37.77 80.49 C 35.87 84.59 31.62 86.47 27.91 88.57 C 26.88 89.00 25.84 89.42 24.80 89.81 C 21.94 88.43 19.40 86.50 16.59 85.03 C 15.11 84.54 13.61 84.10 12.13 83.59 L 11.50 83.16 C 10.57 82.53 9.64 81.89 8.71 81.24 C 5.41 79.13 1.76 76.56 2.23 72.10 C 1.48 72.44 0.74 72.78 -0.00 73.14 L 0.00 70.77 C 3.56 66.60 1.79 60.78 3.12 55.85 C 2.56 55.90 1.44 55.99 0.88 56.04 L 0.00 56.07 L 0.00 53.42 C 0.84 50.89 2.07 48.47 2.61 45.85 C 2.85 42.21 1.36 38.78 0.00 35.49 L 0.00 32.10 C 4.34 34.10 3.33 39.83 4.66 43.69 C 5.71 43.28 6.75 42.85 7.78 42.41 C 9.01 42.00 9.98 41.15 9.72 39.76 C 9.81 36.87 8.26 34.33 7.55 31.61 C 5.40 24.09 2.38 16.87 0.00 9.44 L 0.00 1.69 C 2.13 6.98 3.79 12.48 6.28 17.60 C 12.52 19.40 19.35 18.52 25.45 20.74 C 30.52 25.13 35.92 29.91 42.84 30.84 C 45.36 29.92 48.21 27.94 48.76 25.14 C 49.30 24.83 50.39 24.19 50.94 23.87 C 50.39 23.83 49.28 23.75 48.72 23.71 C 48.28 23.94 47.39 24.39 46.95 24.61 C 46.17 23.97 45.41 23.30 44.64 22.63 C 46.12 22.49 47.60 22.34 49.08 22.18 C 49.84 20.81 50.62 19.44 51.39 18.08 C 51.73 11.94 53.29 5.98 54.57 0.00 M 54.98 3.64 C 55.01 4.15 55.08 5.17 55.12 5.68 C 54.07 9.21 53.51 12.85 52.99 16.49 C 53.90 16.72 55.72 17.17 56.64 17.40 L 56.67 18.37 C 59.41 17.27 57.77 14.02 57.66 11.91 C 56.91 9.14 57.37 5.65 54.98 3.64 M 61.94 16.06 C 60.13 17.70 57.27 19.00 58.10 22.01 C 57.97 23.19 57.85 24.37 57.74 25.56 C 63.96 21.74 67.47 15.10 71.82 9.48 C 72.81 8.59 73.45 7.39 74.15 6.27 C 69.74 9.10 66.00 12.79 61.94 16.06 M 86.88 15.66 C 84.31 14.98 82.67 17.00 82.79 19.50 C 84.52 18.95 87.06 18.66 86.49 16.13 C 89.41 18.06 92.34 15.37 95.08 14.40 C 92.28 14.26 89.49 14.60 86.88 15.66 M 80.16 16.51 L 80.34 16.72 L 79.32 17.30 L 79.11 18.36 C 78.62 17.92 77.62 17.03 77.12 16.59 C 73.74 17.65 73.29 21.56 75.67 23.91 C 75.69 22.80 75.72 20.58 75.73 19.47 C 76.32 19.90 76.90 20.34 77.48 20.79 C 78.79 20.29 80.17 20.31 81.54 20.39 C 81.65 19.00 81.80 17.62 81.91 16.23 C 81.47 16.30 80.59 16.44 80.16 16.51 M 69.22 16.57 C 67.99 18.30 66.69 19.99 65.32 21.61 C 62.93 24.02 60.28 26.17 57.39 27.96 C 57.49 28.95 57.69 30.92 57.79 31.90 C 62.06 29.57 66.71 28.14 71.47 27.23 L 72.15 27.61 C 72.55 27.21 73.34 26.42 73.74 26.02 C 72.93 22.96 71.72 19.82 72.95 16.68 C 71.71 16.63 70.46 16.60 69.22 16.57 M 51.17 22.82 L 51.32 22.69 C 51.83 23.09 52.87 23.87 53.39 24.26 C 52.00 26.93 57.73 26.35 55.83 23.97 L 56.64 23.89 C 56.40 22.17 56.15 20.46 55.92 18.75 C 53.19 17.21 51.32 20.51 51.17 22.82 M 7.07 20.62 C 7.55 23.25 8.15 25.84 8.75 28.44 C 9.89 28.89 11.02 29.34 12.15 29.80 C 11.65 31.47 9.69 33.30 10.88 35.06 C 11.30 36.81 13.00 37.30 14.59 37.28 C 15.49 37.34 17.28 37.46 18.17 37.52 C 19.79 35.40 21.33 33.12 23.70 31.76 C 28.01 33.78 32.50 35.44 37.10 36.67 C 38.86 37.53 41.29 35.64 40.71 33.77 C 33.87 32.22 28.57 27.32 23.62 22.66 C 18.09 22.08 12.55 21.53 7.07 20.62 M 75.31 26.71 C 77.50 26.02 79.86 25.72 81.92 24.64 C 83.13 25.53 84.09 25.39 84.79 24.20 C 84.10 22.96 83.12 22.67 81.85 23.34 L 81.81 22.62 C 81.12 22.52 79.73 22.31 79.04 22.20 C 77.80 23.71 76.48 25.16 75.31 26.71 M 98.25 30.98 C 100.00 29.79 101.67 28.50 103.33 27.19 C 103.83 25.44 104.35 23.69 104.80 21.92 C 101.25 23.60 98.10 26.79 98.25 30.98 M 88.91 26.66 L 89.10 26.98 C 88.67 27.26 87.82 27.81 87.40 28.09 C 83.40 30.49 80.97 35.68 82.80 40.16 C 83.68 41.05 84.54 41.95 85.39 42.87 C 87.73 38.94 88.72 34.31 91.76 30.79 C 92.12 30.30 92.84 29.32 93.20 28.84 C 94.46 29.06 94.52 27.25 95.04 26.50 C 92.99 26.52 90.95 26.58 88.91 26.66 M 80.02 35.22 C 81.22 32.14 83.02 29.38 85.03 26.78 C 81.97 28.35 78.34 31.40 80.02 35.22 M 48.37 29.32 C 43.85 33.84 39.85 39.06 37.63 45.11 C 37.02 46.75 36.54 48.44 36.17 50.15 C 37.79 48.99 39.05 47.29 40.89 46.48 C 46.97 45.14 53.09 47.27 58.10 50.66 C 58.79 49.53 59.48 48.42 60.17 47.30 C 55.08 43.69 55.33 36.75 52.37 31.74 L 52.48 31.20 C 52.02 30.47 51.09 29.00 50.62 28.27 C 49.82 28.49 48.91 28.59 48.37 29.32 M 55.15 28.36 C 53.46 28.65 53.55 31.51 55.19 31.82 C 56.69 31.55 56.59 28.65 55.15 28.36 M 76.26 28.31 C 73.43 29.74 77.48 31.53 78.48 29.35 C 79.62 27.90 77.03 27.72 76.26 28.31 M 67.20 30.33 C 64.75 30.95 62.42 31.92 60.02 32.69 C 57.27 33.74 56.67 36.81 56.86 39.43 L 58.09 38.88 L 59.03 38.76 L 59.44 37.89 C 59.73 37.87 60.29 37.83 60.57 37.81 C 63.00 36.60 65.60 35.82 68.20 35.09 C 70.31 34.25 73.28 34.24 74.47 32.01 C 73.80 28.33 69.68 29.74 67.20 30.33 M 86.80 45.35 C 85.82 44.92 84.81 44.59 83.80 44.25 C 83.34 47.08 81.72 49.53 79.18 50.92 L 80.04 51.03 C 77.65 51.03 75.30 51.55 72.92 51.73 C 71.76 53.24 70.65 54.80 69.71 56.46 C 67.87 57.42 66.76 59.53 66.55 61.55 C 68.83 60.35 70.31 58.20 71.45 55.96 C 72.74 55.05 73.63 53.64 75.06 52.91 C 77.65 52.55 80.33 52.52 82.74 51.38 C 83.57 50.72 84.39 50.02 85.18 49.31 C 85.82 48.35 86.47 47.41 87.14 46.47 C 87.34 46.89 87.73 47.74 87.93 48.17 C 90.15 46.70 92.29 45.11 94.29 43.33 C 93.98 39.12 94.28 34.91 94.53 30.72 C 91.20 35.13 87.69 39.72 86.80 45.35 M 100.24 34.37 C 99.00 33.99 97.66 35.65 98.38 36.75 C 99.36 37.66 101.29 36.62 101.16 35.33 L 101.91 35.24 C 102.24 34.68 102.90 33.55 103.23 32.99 C 102.57 31.15 99.70 32.76 100.24 34.37 M 24.30 39.17 C 25.24 39.55 26.16 39.93 27.09 40.33 C 27.50 40.05 28.33 39.51 28.75 39.23 C 28.68 39.97 28.55 41.45 28.48 42.19 C 29.15 42.50 30.48 43.11 31.15 43.41 C 32.84 41.60 34.51 39.78 36.18 37.95 C 32.18 36.74 28.23 35.37 24.36 33.77 C 23.34 35.38 20.69 38.87 24.30 39.17 M 76.25 32.76 C 76.40 35.22 77.41 37.54 77.54 40.00 C 77.00 43.76 75.12 47.12 73.33 50.40 C 77.62 50.96 83.26 47.96 82.15 42.98 C 80.17 39.58 78.41 36.05 76.25 32.76 M 66.06 37.68 L 66.45 37.74 C 63.39 38.24 60.59 39.63 57.83 40.98 C 58.29 42.47 58.80 45.79 61.33 43.23 C 61.33 44.80 61.44 46.37 61.55 47.94 C 63.86 46.48 66.18 45.00 68.22 43.16 C 66.47 43.46 64.75 43.93 63.07 44.50 C 62.49 44.00 61.92 43.50 61.35 43.00 C 62.19 42.73 63.86 42.18 64.70 41.91 C 66.59 41.47 68.44 40.87 70.28 40.26 C 70.49 38.91 70.70 37.56 70.91 36.21 C 69.28 36.68 67.66 37.16 66.06 37.68 M 72.74 37.63 L 72.66 37.55 C 72.38 38.98 72.00 40.39 71.42 41.73 C 70.36 43.84 69.60 46.09 69.09 48.39 C 67.89 50.50 68.03 53.06 67.80 55.40 C 70.59 53.35 71.92 50.08 73.54 47.14 C 74.17 45.76 74.79 44.38 75.40 42.99 C 75.58 42.15 75.77 41.32 75.96 40.48 C 76.37 38.31 75.17 36.53 73.87 34.94 C 73.59 35.61 73.02 36.96 72.74 37.63 M 102.28 39.95 C 103.70 39.67 103.33 37.43 102.66 36.56 C 100.61 35.67 100.45 39.59 102.28 39.95 M 11.45 40.26 C 13.00 42.55 16.14 42.25 18.55 42.62 C 19.79 42.51 21.04 42.39 22.28 42.26 C 23.48 42.85 24.27 42.50 24.65 41.20 C 23.89 39.99 22.95 39.83 21.84 40.74 C 20.56 38.92 17.66 39.69 15.73 39.02 C 14.54 38.14 11.64 38.42 11.45 40.26 M 96.69 45.81 C 96.93 46.34 97.41 47.42 97.66 47.96 C 96.36 47.35 95.47 46.26 94.68 45.12 C 89.89 48.20 85.99 52.98 80.17 54.14 C 81.39 55.56 82.73 56.95 83.45 58.72 C 83.50 61.11 82.74 63.36 81.32 65.28 C 83.57 66.65 85.66 68.29 88.00 69.51 C 92.89 67.40 97.79 65.12 102.27 62.22 C 104.11 59.59 104.43 56.28 104.92 53.19 C 102.83 51.89 100.66 50.75 98.43 49.74 C 98.28 49.33 97.99 48.51 97.84 48.10 C 99.94 47.85 101.98 47.17 101.90 44.67 C 102.73 43.64 102.59 42.79 101.48 42.11 C 100.51 40.58 99.22 39.32 97.83 38.19 C 95.31 40.07 95.32 43.20 96.69 45.81 M 31.75 46.20 L 32.50 47.15 C 32.11 47.41 31.31 47.94 30.91 48.20 C 30.42 50.99 33.28 52.48 35.02 54.05 C 34.70 52.99 34.24 51.99 33.64 51.07 C 34.79 49.95 35.01 48.45 34.99 46.91 C 35.60 44.88 36.32 42.88 36.95 40.85 C 34.87 42.28 33.19 44.15 31.75 46.20 M 8.00 44.44 C 13.72 45.72 19.32 48.05 25.25 47.93 L 25.77 48.45 C 26.62 48.48 28.34 48.52 29.20 48.54 C 29.51 47.31 29.82 46.08 30.13 44.85 C 27.58 43.35 24.82 43.75 22.18 44.76 C 18.85 45.56 15.31 45.39 12.28 43.70 C 10.84 42.61 9.30 43.72 8.00 44.44 M 103.94 44.47 C 102.37 47.45 107.30 44.64 103.94 44.47 M 59.82 52.00 L 61.02 51.38 C 61.45 53.29 61.81 55.20 62.15 57.12 C 61.72 58.36 61.31 59.60 60.90 60.84 C 62.18 60.78 63.46 60.73 64.74 60.68 C 65.32 59.80 65.89 58.91 66.47 58.03 C 66.27 54.51 66.52 50.99 67.38 47.57 C 67.71 46.93 68.38 45.64 68.71 45.00 C 65.54 46.98 61.98 48.84 59.82 52.00 M 8.06 46.89 C 10.59 53.60 14.11 59.91 17.20 66.38 C 17.32 66.69 17.57 67.31 17.70 67.62 C 18.41 70.19 19.45 72.65 20.71 74.99 C 22.03 77.35 22.49 81.01 25.79 81.30 C 26.31 82.87 24.28 83.66 23.86 85.02 C 23.12 85.25 21.64 85.70 20.91 85.92 C 24.33 90.12 29.80 86.62 32.74 83.68 C 36.08 81.60 34.65 77.22 33.15 74.40 C 31.80 72.83 30.74 70.79 28.70 70.02 C 26.18 70.55 27.47 75.71 24.79 75.71 C 22.52 71.19 20.10 66.75 17.63 62.34 C 14.68 57.09 11.96 51.52 8.06 46.89 M 12.02 47.03 C 13.66 50.60 15.75 53.96 17.86 57.27 C 18.41 57.34 19.52 57.48 20.07 57.54 C 21.56 59.91 23.98 61.25 26.60 62.00 L 26.84 62.49 C 27.37 62.59 28.43 62.79 28.96 62.89 C 26.85 59.59 24.93 56.18 22.61 53.03 C 23.03 52.55 23.46 52.07 23.88 51.60 C 25.71 55.49 28.31 58.96 30.16 62.85 C 30.71 64.43 32.66 64.04 33.95 64.19 C 32.04 61.00 30.49 57.43 31.31 53.62 C 30.34 52.65 29.35 51.69 28.36 50.72 C 26.31 50.55 24.26 50.26 22.29 49.65 C 22.24 50.15 22.14 51.16 22.09 51.67 C 21.42 51.04 20.07 49.77 19.39 49.14 L 19.34 49.03 C 17.86 48.75 16.37 48.48 14.88 48.21 C 16.45 51.04 18.13 53.82 19.31 56.83 C 15.88 54.29 16.05 48.76 12.02 47.03 M 37.62 53.04 C 36.38 55.89 38.66 58.48 39.93 60.84 C 40.49 61.81 41.04 62.79 41.65 63.73 C 42.89 62.95 43.39 61.44 44.26 60.32 C 46.75 56.25 50.65 53.38 54.05 50.13 C 51.86 49.33 49.65 48.57 47.45 47.82 C 45.62 47.78 43.78 47.66 41.96 47.81 C 39.82 48.77 38.80 51.15 37.62 53.04 M 103.36 48.66 C 104.18 49.42 106.58 49.38 106.62 47.99 C 105.81 47.19 103.40 47.29 103.36 48.66 M 6.48 49.53 C 5.92 54.73 3.98 59.79 4.51 65.07 C 4.59 68.64 3.93 72.40 5.16 75.82 C 7.56 78.48 10.99 79.83 14.01 81.62 C 15.00 82.18 15.98 82.74 16.97 83.30 L 17.34 83.08 C 18.92 83.18 20.51 83.21 22.09 83.14 C 23.91 82.05 21.91 80.21 21.21 79.07 C 18.28 75.52 17.27 70.93 15.09 66.95 C 12.08 61.22 10.17 54.90 6.48 49.53 M 48.16 58.21 L 47.90 58.22 C 47.13 59.41 46.33 60.59 45.71 61.87 C 45.81 63.54 46.50 65.10 47.01 66.68 C 48.79 68.02 50.56 69.38 52.32 70.75 C 52.29 69.16 52.19 67.57 52.38 65.98 C 53.61 63.79 56.08 62.80 58.10 61.49 L 58.27 61.86 C 59.24 59.48 61.21 56.77 59.73 54.16 C 59.17 52.15 57.04 51.55 55.21 51.35 C 52.95 53.73 50.50 55.91 48.16 58.21 M 70.15 60.69 C 70.17 60.86 70.22 61.22 70.24 61.39 C 73.61 61.89 76.65 63.77 79.98 64.24 C 80.40 63.58 81.25 62.27 81.67 61.61 L 81.77 61.70 C 81.90 58.10 79.21 55.29 75.98 54.14 C 73.62 55.90 71.95 58.40 70.15 60.69 M 32.94 55.82 C 34.88 61.10 38.98 66.68 45.10 66.92 C 42.97 66.11 40.24 66.07 38.94 63.88 C 36.77 61.30 36.62 56.85 32.94 55.82 M 18.25 59.90 C 20.94 64.22 22.88 68.97 25.71 73.20 C 25.75 71.18 25.71 69.15 25.68 67.13 C 27.13 67.45 28.57 67.77 30.02 68.09 C 30.37 67.55 31.07 66.47 31.43 65.92 C 26.72 64.65 22.44 62.34 18.25 59.90 M 31.73 68.71 C 33.28 70.50 34.66 72.43 35.92 74.44 C 36.24 75.51 36.57 76.59 36.89 77.67 C 38.37 77.38 40.16 77.42 41.12 76.03 C 42.45 74.14 41.38 71.80 40.51 69.96 C 38.31 68.88 36.77 66.97 35.02 65.33 C 33.26 65.05 32.63 67.57 31.73 68.71 M 77.23 66.22 C 75.46 68.85 73.55 71.45 70.98 73.36 C 69.81 74.32 68.64 75.29 67.50 76.28 C 67.17 76.27 66.50 76.24 66.17 76.22 C 66.53 77.81 66.97 79.37 67.44 80.93 C 70.11 80.52 72.45 79.14 74.60 77.57 C 75.38 77.04 76.09 76.37 76.73 75.55 C 78.34 72.90 79.99 70.18 80.29 67.02 C 79.27 66.75 78.25 66.49 77.23 66.22 M 81.92 68.75 C 80.82 72.09 79.24 75.22 77.60 78.32 C 80.07 78.17 82.12 76.79 84.01 75.34 C 85.23 74.34 88.23 73.31 87.11 71.26 C 85.32 70.54 83.61 69.66 81.92 68.75 M 63.16 77.41 L 63.23 78.10 C 61.86 79.05 60.34 79.90 59.28 81.22 C 58.97 83.38 60.32 85.34 60.89 87.36 C 61.98 86.60 63.06 85.83 64.15 85.08 C 64.88 84.17 65.59 83.25 66.31 82.34 C 65.41 80.60 64.63 78.75 63.16 77.41 M 51.58 80.81 C 46.88 87.59 44.94 95.79 43.59 103.81 C 47.62 102.57 51.01 100.05 54.53 97.84 L 54.54 97.70 C 57.72 96.86 58.23 93.43 59.45 90.89 L 58.91 90.56 C 58.71 86.06 56.11 82.29 53.71 78.67 C 52.72 79.16 52.01 79.88 51.58 80.81 M 74.99 78.85 L 75.16 79.78 C 73.71 80.47 72.27 81.20 70.90 82.04 C 70.41 82.17 69.44 82.42 68.95 82.54 C 69.60 85.18 71.05 87.50 72.61 89.69 C 73.22 90.19 74.45 91.19 75.06 91.69 C 77.46 90.68 79.18 88.72 80.79 86.76 C 81.08 86.56 81.65 86.15 81.93 85.95 C 81.99 82.07 78.15 80.00 74.99 78.85 M 85.95 84.84 C 83.88 87.79 82.02 90.88 80.39 94.11 C 82.66 95.56 85.01 96.90 87.45 98.05 C 88.89 98.63 90.33 99.23 91.77 99.82 C 92.04 94.34 90.13 89.11 87.67 84.30 L 87.87 84.05 C 87.39 84.25 86.43 84.64 85.95 84.84 M 61.22 89.49 C 62.24 90.71 63.50 91.73 64.89 92.50 C 66.54 91.49 68.04 90.25 69.63 89.15 C 68.83 87.73 68.07 86.28 67.09 84.98 C 65.02 86.32 63.09 87.88 61.22 89.49 M 60.72 92.65 C 59.99 94.80 59.23 97.13 60.00 99.39 L 59.86 100.26 C 62.62 98.67 62.45 95.30 62.48 92.54 C 62.04 92.57 61.16 92.62 60.72 92.65 M 68.21 92.12 C 69.40 94.54 69.81 97.64 72.14 99.29 C 71.20 96.89 71.26 92.75 68.21 92.12 M 42.09 97.44 C 41.14 98.64 41.34 99.34 42.69 99.55 C 43.63 98.35 43.43 97.64 42.09 97.44 Z" />
<path fill="#7b466a" opacity="1.00" d=" M 54.98 3.64 C 57.37 5.65 56.91 9.14 57.66 11.91 C 57.77 14.02 59.41 17.27 56.67 18.37 L 56.64 17.40 C 56.63 13.44 55.78 9.57 55.12 5.68 C 55.08 5.17 55.01 4.15 54.98 3.64 Z" />
<path fill="#fefbe8" opacity="1.00" d=" M 52.99 16.49 C 53.51 12.85 54.07 9.21 55.12 5.68 C 55.78 9.57 56.63 13.44 56.64 17.40 C 55.72 17.17 53.90 16.72 52.99 16.49 Z" />
<path fill="#fefbe8" opacity="1.00" d=" M 61.94 16.06 C 66.00 12.79 69.74 9.10 74.15 6.27 C 73.45 7.39 72.81 8.59 71.82 9.48 C 66.25 12.57 63.24 18.45 58.10 22.01 C 57.27 19.00 60.13 17.70 61.94 16.06 Z" />
<path fill="#f1f3f8" opacity="1.00" d=" M 0.00 9.44 C 2.38 16.87 5.40 24.09 7.55 31.61 C 8.26 34.33 9.81 36.87 9.72 39.76 C 7.00 36.06 6.60 31.36 4.90 27.20 C 3.33 23.24 1.98 19.19 0.67 15.13 L 0.00 16.30 L 0.00 9.44 Z" />
<path fill="#bc7cad" opacity="1.00" d=" M 58.10 22.01 C 63.24 18.45 66.25 12.57 71.82 9.48 C 67.47 15.10 63.96 21.74 57.74 25.56 C 57.85 24.37 57.97 23.19 58.10 22.01 Z" />
<path fill="#ea7058" opacity="1.00" d=" M 86.88 15.66 C 89.49 14.60 92.28 14.26 95.08 14.40 C 92.34 15.37 89.41 18.06 86.49 16.13 C 87.06 18.66 84.52 18.95 82.79 19.50 C 82.67 17.00 84.31 14.98 86.88 15.66 Z" />
<path fill="#8e94a2" opacity="1.00" d=" M 0.00 16.30 L 0.67 15.13 C 1.98 19.19 3.33 23.24 4.90 27.20 C 6.60 31.36 7.00 36.06 9.72 39.76 C 9.98 41.15 9.01 42.00 7.78 42.41 C 5.80 41.40 5.47 39.02 4.78 37.13 C 3.46 32.45 1.97 27.82 0.00 23.38 L 0.00 16.30 Z" />
<path fill="#f8c05e" opacity="1.00" d=" M 80.16 16.51 C 80.59 16.44 81.47 16.30 81.91 16.23 C 81.80 17.62 81.65 19.00 81.54 20.39 C 80.17 20.31 78.79 20.29 77.48 20.79 C 76.90 20.34 76.32 19.90 75.73 19.47 C 75.72 20.58 75.69 22.80 75.67 23.91 C 73.29 21.56 73.74 17.65 77.12 16.59 C 77.62 17.03 78.62 17.92 79.11 18.36 C 79.47 18.67 80.18 19.28 80.53 19.59 C 81.29 18.55 81.23 17.59 80.34 16.72 L 80.16 16.51 Z" />
<path fill="#abc9f0" opacity="1.00" d=" M 69.22 16.57 C 70.46 16.60 71.71 16.63 72.95 16.68 C 71.72 19.82 72.93 22.96 73.74 26.02 C 73.34 26.42 72.55 27.21 72.15 27.61 L 71.47 27.23 C 69.75 25.02 67.84 22.93 65.32 21.61 C 66.69 19.99 67.99 18.30 69.22 16.57 Z" />
<path fill="#ffffff" opacity="1.00" d=" M 79.32 17.30 L 80.34 16.72 C 81.23 17.59 81.29 18.55 80.53 19.59 C 80.18 19.28 79.47 18.67 79.11 18.36 L 79.32 17.30 Z" />
<path fill="#fffde3" opacity="1.00" d=" M 51.17 22.82 C 51.32 20.51 53.19 17.21 55.92 18.75 C 54.42 20.11 52.89 21.42 51.32 22.69 L 51.17 22.82 Z" />
<path fill="#ffef67" opacity="1.00" d=" M 55.92 18.75 C 56.15 20.46 56.40 22.17 56.64 23.89 L 55.83 23.97 C 55.22 24.04 54.00 24.19 53.39 24.26 C 52.87 23.87 51.83 23.09 51.32 22.69 C 52.89 21.42 54.42 20.11 55.92 18.75 Z" />
<path fill="#ffffff" opacity="1.00" d=" M 108.10 19.00 C 109.08 20.21 110.06 21.42 111.00 22.67 L 111.00 23.72 C 110.50 23.47 109.50 22.97 109.00 22.72 C 106.29 29.80 106.66 38.08 111.00 44.44 L 111.00 49.28 C 108.79 46.43 106.51 43.46 105.71 39.86 C 104.32 32.84 105.96 25.69 108.10 19.00 Z" />
<path fill="#eff2f8" opacity="1.00" d=" M 7.07 20.62 C 12.55 21.53 18.09 22.08 23.62 22.66 C 28.57 27.32 33.87 32.22 40.71 33.77 C 41.29 35.64 38.86 37.53 37.10 36.67 C 32.50 35.44 28.01 33.78 23.70 31.76 C 22.50 31.22 21.31 30.69 20.11 30.16 C 18.18 32.46 16.32 34.82 14.59 37.28 C 13.00 37.30 11.30 36.81 10.88 35.06 C 9.69 33.30 11.65 31.47 12.15 29.80 C 11.02 29.34 9.89 28.89 8.75 28.44 C 8.15 25.84 7.55 23.25 7.07 20.62 Z" />
<path fill="#f2f4f9" opacity="1.00" d=" M 57.39 27.96 C 60.28 26.17 62.93 24.02 65.32 21.61 C 67.84 22.93 69.75 25.02 71.47 27.23 C 66.71 28.14 62.06 29.57 57.79 31.90 C 57.69 30.92 57.49 28.95 57.39 27.96 Z" />
<path fill="#ffffeb" opacity="1.00" d=" M 75.31 26.71 C 76.48 25.16 77.80 23.71 79.04 22.20 C 79.73 22.31 81.12 22.52 81.81 22.62 L 81.85 23.34 C 81.87 23.67 81.90 24.32 81.92 24.64 C 79.86 25.72 77.50 26.02 75.31 26.71 Z" />
<path fill="#e3c7d6" opacity="1.00" d=" M 98.25 30.98 C 98.10 26.79 101.25 23.60 104.80 21.92 C 104.35 23.69 103.83 25.44 103.33 27.19 C 101.67 28.50 100.00 29.79 98.25 30.98 Z" />
<path fill="#484742" opacity="1.00" d=" M 48.72 23.71 C 49.28 23.75 50.39 23.83 50.94 23.87 C 50.39 24.19 49.30 24.83 48.76 25.14 L 48.71 24.48 L 48.72 23.71 Z" />
<path fill="#784c66" opacity="1.00" d=" M 81.85 23.34 C 83.12 22.67 84.10 22.96 84.79 24.20 C 84.09 25.39 83.13 25.53 81.92 24.64 C 81.90 24.32 81.87 23.67 81.85 23.34 Z" />
<path fill="#010203" opacity="1.00" d=" M 109.00 22.72 C 109.50 22.97 110.50 23.47 111.00 23.72 L 111.00 24.97 C 107.72 29.37 108.99 35.75 111.00 40.49 L 111.00 44.44 C 106.66 38.08 106.29 29.80 109.00 22.72 Z" />
<path fill="#5f6373" opacity="1.00" d=" M 0.00 23.38 C 1.97 27.82 3.46 32.45 4.78 37.13 C 5.47 39.02 5.80 41.40 7.78 42.41 C 6.75 42.85 5.71 43.28 4.66 43.69 C 3.33 39.83 4.34 34.10 0.00 32.10 L 0.00 23.38 Z" />
<path fill="#c04b53" opacity="1.00" d=" M 53.39 24.26 C 54.00 24.19 55.22 24.04 55.83 23.97 C 57.73 26.35 52.00 26.93 53.39 24.26 Z" />
<path fill="#ab1d53" opacity="1.00" d=" M 88.91 26.66 C 90.95 26.58 92.99 26.52 95.04 26.50 C 94.52 27.25 94.46 29.06 93.20 28.84 C 92.12 28.77 91.04 28.66 89.97 28.52 C 89.75 28.13 89.31 27.37 89.10 26.98 L 88.91 26.66 Z" />
<path fill="#c38aa8" opacity="1.00" d=" M 111.00 40.49 C 108.99 35.75 107.72 29.37 111.00 24.97 L 111.00 40.49 Z" />
<path fill="#fefbe8" opacity="1.00" d=" M 80.02 35.22 C 78.34 31.40 81.97 28.35 85.03 26.78 C 83.02 29.38 81.22 32.14 80.02 35.22 Z" />
<path fill="#f8c05e" opacity="1.00" d=" M 87.40 28.09 C 87.82 27.81 88.67 27.26 89.10 26.98 C 89.31 27.37 89.75 28.13 89.97 28.52 C 91.04 28.66 92.12 28.77 93.20 28.84 C 92.84 29.32 92.12 30.30 91.76 30.79 C 90.12 30.27 88.48 29.76 86.86 29.18 L 87.40 28.09 Z" />
<path fill="#f9f5dd" opacity="1.00" d=" M 48.37 29.32 C 48.91 28.59 49.82 28.49 50.62 28.27 C 49.83 29.83 48.34 31.19 48.21 33.00 C 48.53 36.13 49.71 39.10 50.32 42.18 C 50.29 42.58 50.23 43.38 50.20 43.79 C 52.23 44.35 54.24 44.94 56.24 45.61 C 53.13 45.36 50.07 44.74 46.96 44.57 C 43.59 44.39 40.47 45.89 37.36 46.94 L 37.63 45.11 C 39.85 39.06 43.85 33.84 48.37 29.32 Z" />
<path fill="#a67d42" opacity="1.00" d=" M 55.15 28.36 C 56.59 28.65 56.69 31.55 55.19 31.82 C 53.55 31.51 53.46 28.65 55.15 28.36 Z" />
<path fill="#b9819e" opacity="1.00" d=" M 76.26 28.31 C 77.03 27.72 79.62 27.90 78.48 29.35 C 77.48 31.53 73.43 29.74 76.26 28.31 Z" />
<path fill="#ffffbd" opacity="1.00" d=" M 82.80 40.16 C 80.97 35.68 83.40 30.49 87.40 28.09 L 86.86 29.18 C 85.10 32.68 83.85 36.40 82.80 40.16 Z" />
<path fill="#c08fa5" opacity="1.00" d=" M 48.21 33.00 C 48.34 31.19 49.83 29.83 50.62 28.27 C 51.09 29.00 52.02 30.47 52.48 31.20 L 52.37 31.74 C 51.60 35.20 50.84 38.67 50.32 42.18 C 49.71 39.10 48.53 36.13 48.21 33.00 Z" />
<path fill="#c18ca6" opacity="1.00" d=" M 67.20 30.33 C 69.68 29.74 73.80 28.33 74.47 32.01 C 73.28 34.24 70.31 34.25 68.20 35.09 C 68.33 33.73 68.47 32.37 68.53 31.00 C 68.20 30.83 67.53 30.49 67.20 30.33 Z" />
<path fill="#fde866" opacity="1.00" d=" M 86.86 29.18 C 88.48 29.76 90.12 30.27 91.76 30.79 C 88.72 34.31 87.73 38.94 85.39 42.87 C 84.54 41.95 83.68 41.05 82.80 40.16 C 83.85 36.40 85.10 32.68 86.86 29.18 Z" />
<path fill="#adcaec" opacity="1.00" d=" M 20.11 30.16 C 21.31 30.69 22.50 31.22 23.70 31.76 C 21.33 33.12 19.79 35.40 18.17 37.52 C 17.28 37.46 15.49 37.34 14.59 37.28 C 16.32 34.82 18.18 32.46 20.11 30.16 Z" />
<path fill="#faf6df" opacity="1.00" d=" M 60.02 32.69 C 62.42 31.92 64.75 30.95 67.20 30.33 C 67.53 30.49 68.20 30.83 68.53 31.00 C 68.47 32.37 68.33 33.73 68.20 35.09 C 65.60 35.82 63.00 36.60 60.57 37.81 C 60.42 36.10 60.24 34.39 60.02 32.69 Z" />
<path fill="#a9658f" opacity="1.00" d=" M 52.37 31.74 C 55.33 36.75 55.08 43.69 60.17 47.30 C 59.48 48.42 58.79 49.53 58.10 50.66 C 53.09 47.27 46.97 45.14 40.89 46.48 C 39.05 47.29 37.79 48.99 36.17 50.15 C 36.54 48.44 37.02 46.75 37.63 45.11 L 37.36 46.94 C 40.47 45.89 43.59 44.39 46.96 44.57 C 50.07 44.74 53.13 45.36 56.24 45.61 C 54.24 44.94 52.23 44.35 50.20 43.79 C 50.23 43.38 50.29 42.58 50.32 42.18 C 50.84 38.67 51.60 35.20 52.37 31.74 Z" />
<path fill="#fbf8e0" opacity="1.00" d=" M 86.80 45.35 C 87.69 39.72 91.20 35.13 94.53 30.72 C 94.28 34.91 93.98 39.12 94.29 43.33 C 92.29 45.11 90.15 46.70 87.93 48.17 C 87.73 47.74 87.34 46.89 87.14 46.47 L 86.98 45.93 L 86.80 45.35 Z" />
<path fill="#ffef67" opacity="1.00" d=" M 100.24 34.37 C 99.70 32.76 102.57 31.15 103.23 32.99 C 102.90 33.55 102.24 34.68 101.91 35.24 L 101.16 35.33 C 100.93 35.09 100.47 34.61 100.24 34.37 Z" />
<path fill="#ae9199" opacity="1.00" d=" M 56.86 39.43 C 56.67 36.81 57.27 33.74 60.02 32.69 C 60.24 34.39 60.42 36.10 60.57 37.81 C 60.29 37.83 59.73 37.87 59.44 37.89 C 58.04 37.12 57.59 37.45 58.09 38.88 L 56.86 39.43 Z" />
<path fill="#a3c6f3" opacity="1.00" d=" M 24.30 39.17 C 20.69 38.87 23.34 35.38 24.36 33.77 C 24.37 35.57 24.34 37.37 24.30 39.17 Z" />
<path fill="#4d719c" opacity="1.00" d=" M 24.36 33.77 C 28.23 35.37 32.18 36.74 36.18 37.95 C 34.51 39.78 32.84 41.60 31.15 43.41 C 30.48 43.11 29.15 42.50 28.48 42.19 C 28.55 41.45 28.68 39.97 28.75 39.23 C 28.33 39.51 27.50 40.05 27.09 40.33 C 26.16 39.93 25.24 39.55 24.30 39.17 C 24.34 37.37 24.37 35.57 24.36 33.77 Z" />
<path fill="#dd5755" opacity="1.00" d=" M 100.24 34.37 C 100.47 34.61 100.93 35.09 101.16 35.33 C 101.29 36.62 99.36 37.66 98.38 36.75 C 97.66 35.65 99.00 33.99 100.24 34.37 Z" />
<path fill="#fcf9e1" opacity="1.00" d=" M 76.25 32.76 C 78.41 36.05 80.17 39.58 82.15 42.98 C 83.26 47.96 77.62 50.96 73.33 50.40 C 75.12 47.12 77.00 43.76 77.54 40.00 C 77.41 37.54 76.40 35.22 76.25 32.76 Z" />
<path fill="#a3c6f3" opacity="1.00" d=" M 0.00 35.49 C 1.36 38.78 2.85 42.21 2.61 45.85 C 2.07 48.47 0.84 50.89 0.00 53.42 L 0.00 35.49 Z" />
<path fill="#c795ac" opacity="1.00" d=" M 66.06 37.68 C 67.66 37.16 69.28 36.68 70.91 36.21 C 70.70 37.56 70.49 38.91 70.28 40.26 C 68.44 40.87 66.59 41.47 64.70 41.91 C 65.83 40.63 66.88 39.29 67.93 37.95 C 67.56 37.90 66.82 37.79 66.45 37.74 L 66.06 37.68 Z" />
<path fill="#ffef67" opacity="1.00" d=" M 72.74 37.63 C 73.02 36.96 73.59 35.61 73.87 34.94 C 75.17 36.53 76.37 38.31 75.96 40.48 C 74.86 39.56 73.76 38.64 72.74 37.63 Z" />
<path fill="#955f84" opacity="1.00" d=" M 102.28 39.95 C 100.45 39.59 100.61 35.67 102.66 36.56 C 103.33 37.43 103.70 39.67 102.28 39.95 Z" />
<path fill="#e8e0d7" opacity="1.00" d=" M 58.09 38.88 C 57.59 37.45 58.04 37.12 59.44 37.89 L 59.03 38.76 L 58.09 38.88 Z" />
<path fill="#fffde3" opacity="1.00" d=" M 72.66 37.55 L 72.74 37.63 C 73.76 38.64 74.86 39.56 75.96 40.48 C 75.77 41.32 75.58 42.15 75.40 42.99 C 74.07 42.57 72.74 42.15 71.42 41.73 C 72.00 40.39 72.38 38.98 72.66 37.55 Z" />
<path fill="#fefbe8" opacity="1.00" d=" M 57.83 40.98 C 60.59 39.63 63.39 38.24 66.45 37.74 C 66.82 37.79 67.56 37.90 67.93 37.95 C 66.88 39.29 65.83 40.63 64.70 41.91 C 63.86 42.18 62.19 42.73 61.35 43.00 C 61.92 43.50 62.49 44.00 63.07 44.50 C 64.75 43.93 66.47 43.46 68.22 43.16 C 66.18 45.00 63.86 46.48 61.55 47.94 C 61.44 46.37 61.33 44.80 61.33 43.23 C 58.80 45.79 58.29 42.47 57.83 40.98 Z" />
<path fill="#d1594f" opacity="1.00" d=" M 11.45 40.26 C 11.64 38.42 14.54 38.14 15.73 39.02 C 16.70 40.19 17.62 41.41 18.55 42.62 C 16.14 42.25 13.00 42.55 11.45 40.26 Z" />
<path fill="#ffef67" opacity="1.00" d=" M 15.73 39.02 C 17.66 39.69 20.56 38.92 21.84 40.74 C 21.95 41.12 22.17 41.88 22.28 42.26 C 21.04 42.39 19.79 42.51 18.55 42.62 C 17.62 41.41 16.70 40.19 15.73 39.02 Z" />
<path fill="#ffffbd" opacity="1.00" d=" M 96.69 45.81 C 95.32 43.20 95.31 40.07 97.83 38.19 C 99.22 39.32 100.51 40.58 101.48 42.11 C 100.62 42.87 99.94 43.81 99.21 44.69 C 98.58 44.97 97.32 45.53 96.69 45.81 Z" />
<path fill="#fffde3" opacity="1.00" d=" M 21.84 40.74 C 22.95 39.83 23.89 39.99 24.65 41.20 C 24.27 42.50 23.48 42.85 22.28 42.26 C 22.17 41.88 21.95 41.12 21.84 40.74 Z" />
<path fill="#ffffeb" opacity="1.00" d=" M 31.75 46.20 C 33.19 44.15 34.87 42.28 36.95 40.85 C 36.32 42.88 35.60 44.88 34.99 46.91 C 34.79 47.51 34.41 48.71 34.22 49.30 C 33.79 48.76 32.93 47.69 32.50 47.15 L 31.75 46.20 Z" />
<path fill="#f8c05e" opacity="1.00" d=" M 71.42 41.73 C 72.74 42.15 74.07 42.57 75.40 42.99 C 74.79 44.38 74.17 45.76 73.54 47.14 C 72.96 46.96 71.78 46.59 71.19 46.40 C 70.48 47.06 69.78 47.72 69.09 48.39 C 69.60 46.09 70.36 43.84 71.42 41.73 Z" />
<path fill="#dab35a" opacity="1.00" d=" M 101.48 42.11 C 102.59 42.79 102.73 43.64 101.90 44.67 C 101.23 44.68 99.89 44.69 99.21 44.69 C 99.94 43.81 100.62 42.87 101.48 42.11 Z" />
<path fill="#a3c6f3" opacity="1.00" d=" M 8.00 44.44 C 9.30 43.72 10.84 42.61 12.28 43.70 C 15.31 45.39 18.85 45.56 22.18 44.76 C 23.20 45.82 24.23 46.87 25.25 47.93 C 19.32 48.05 13.72 45.72 8.00 44.44 Z" />
<path fill="#eef3fa" opacity="1.00" d=" M 22.18 44.76 C 24.82 43.75 27.58 43.35 30.13 44.85 C 29.82 46.08 29.51 47.31 29.20 48.54 C 28.34 48.52 26.62 48.48 25.77 48.45 L 25.25 47.93 C 24.23 46.87 23.20 45.82 22.18 44.76 Z" />
<path fill="#ffef67" opacity="1.00" d=" M 83.80 44.25 C 84.81 44.59 85.82 44.92 86.80 45.35 L 86.98 45.93 L 87.14 46.47 C 86.47 47.41 85.82 48.35 85.18 49.31 C 84.39 50.02 83.57 50.72 82.74 51.38 C 82.06 51.30 80.72 51.12 80.04 51.03 L 79.18 50.92 C 81.72 49.53 83.34 47.08 83.80 44.25 Z" />
<path fill="#965c80" opacity="1.00" d=" M 103.94 44.47 C 107.30 44.64 102.37 47.45 103.94 44.47 Z" />
<path fill="#f9f6de" opacity="1.00" d=" M 80.17 54.14 C 85.99 52.98 89.89 48.20 94.68 45.12 C 95.47 46.26 96.36 47.35 97.66 47.96 L 97.84 48.10 C 97.99 48.51 98.28 49.33 98.43 49.74 C 98.75 52.09 99.05 54.45 99.23 56.82 C 99.01 57.25 98.55 58.11 98.32 58.54 C 97.69 57.87 96.43 56.54 95.81 55.88 C 94.30 56.93 92.80 57.97 91.26 58.97 C 91.62 58.38 92.33 57.20 92.68 56.61 C 89.87 56.13 87.06 55.64 84.24 55.18 C 84.63 57.23 85.89 59.46 84.68 61.49 C 84.38 60.80 83.76 59.41 83.45 58.72 C 82.73 56.95 81.39 55.56 80.17 54.14 Z" />
<path fill="#dd5755" opacity="1.00" d=" M 96.69 45.81 C 97.32 45.53 98.58 44.97 99.21 44.69 C 99.89 44.69 101.23 44.68 101.90 44.67 C 101.98 47.17 99.94 47.85 97.84 48.10 L 97.66 47.96 C 97.41 47.42 96.93 46.34 96.69 45.81 Z" />
<path fill="#f5efda" opacity="1.00" d=" M 59.82 52.00 C 61.98 48.84 65.54 46.98 68.71 45.00 C 68.38 45.64 67.71 46.93 67.38 47.57 C 65.36 49.00 63.21 50.23 61.02 51.38 L 59.82 52.00 Z" />
<path fill="#e96c5e" opacity="1.00" d=" M 71.19 46.40 C 71.78 46.59 72.96 46.96 73.54 47.14 C 71.92 50.08 70.59 53.35 67.80 55.40 C 68.03 53.06 67.89 50.50 69.09 48.39 C 69.78 47.72 70.48 47.06 71.19 46.40 Z" />
<path fill="#ea7058" opacity="1.00" d=" M 8.06 46.89 C 11.96 51.52 14.68 57.09 17.63 62.34 C 17.50 63.69 17.35 65.03 17.20 66.38 C 14.11 59.91 10.59 53.60 8.06 46.89 Z" />
<path fill="#ea7058" opacity="1.00" d=" M 12.02 47.03 C 16.05 48.76 15.88 54.29 19.31 56.83 C 18.13 53.82 16.45 51.04 14.88 48.21 C 16.37 48.48 17.86 48.75 19.34 49.03 L 19.39 49.14 C 21.09 53.81 24.73 57.41 26.60 62.00 C 23.98 61.25 21.56 59.91 20.07 57.54 C 19.52 57.48 18.41 57.34 17.86 57.27 C 15.75 53.96 13.66 50.60 12.02 47.03 Z" />
<path fill="#682753" opacity="1.00" d=" M 32.50 47.15 C 32.93 47.69 33.79 48.76 34.22 49.30 C 34.41 48.71 34.79 47.51 34.99 46.91 C 35.01 48.45 34.79 49.95 33.64 51.07 C 32.77 50.08 31.84 49.14 30.91 48.20 C 31.31 47.94 32.11 47.41 32.50 47.15 Z" />
<path fill="#fde866" opacity="1.00" d=" M 37.62 53.04 C 38.80 51.15 39.82 48.77 41.96 47.81 C 43.78 47.66 45.62 47.78 47.45 47.82 C 47.87 49.11 48.37 50.39 48.64 51.73 C 46.18 55.14 42.89 57.86 39.93 60.84 C 38.66 58.48 36.38 55.89 37.62 53.04 Z" />
<path fill="#dd5755" opacity="1.00" d=" M 47.45 47.82 C 49.65 48.57 51.86 49.33 54.05 50.13 C 50.65 53.38 46.75 56.25 44.26 60.32 C 43.39 61.44 42.89 62.95 41.65 63.73 C 41.04 62.79 40.49 61.81 39.93 60.84 C 42.89 57.86 46.18 55.14 48.64 51.73 C 48.37 50.39 47.87 49.11 47.45 47.82 Z" />
<path fill="#b9819e" opacity="1.00" d=" M 61.02 51.38 C 63.21 50.23 65.36 49.00 67.38 47.57 C 66.52 50.99 66.27 54.51 66.47 58.03 C 65.03 57.72 63.59 57.42 62.15 57.12 C 61.81 55.20 61.45 53.29 61.02 51.38 Z" />
<path fill="#933f38" opacity="1.00" d=" M 103.36 48.66 C 103.40 47.29 105.81 47.19 106.62 47.99 C 106.58 49.38 104.18 49.42 103.36 48.66 Z" />
<path fill="#ffef67" opacity="1.00" d=" M 30.91 48.20 C 31.84 49.14 32.77 50.08 33.64 51.07 C 34.24 51.99 34.70 52.99 35.02 54.05 C 33.28 52.48 30.42 50.99 30.91 48.20 Z" />
<path fill="#b76da5" opacity="1.00" d=" M 6.48 49.53 C 10.17 54.90 12.08 61.22 15.09 66.95 C 17.27 70.93 18.28 75.52 21.21 79.07 C 21.91 80.21 23.91 82.05 22.09 83.14 C 20.51 83.21 18.92 83.18 17.34 83.08 C 18.40 82.43 19.46 81.79 20.53 81.16 C 19.67 79.35 19.39 76.37 16.86 76.21 C 16.51 76.22 15.82 76.24 15.48 76.25 C 15.52 74.05 15.56 71.85 15.65 69.64 C 14.09 67.88 12.04 66.70 9.91 65.76 C 9.61 65.04 9.31 64.32 9.00 63.60 C 10.08 62.61 11.46 61.65 11.60 60.04 C 10.88 59.08 10.11 58.16 9.31 57.26 C 8.54 57.66 7.00 58.44 6.23 58.83 C 6.47 60.05 6.70 61.28 7.03 62.48 C 7.17 63.04 7.46 64.15 7.60 64.71 C 6.83 64.80 5.28 64.98 4.51 65.07 C 3.98 59.79 5.92 54.73 6.48 49.53 Z" />
<path fill="#ffeb67" opacity="1.00" d=" M 26.60 62.00 C 24.73 57.41 21.09 53.81 19.39 49.14 C 20.07 49.77 21.42 51.04 22.09 51.67 C 22.14 51.16 22.24 50.15 22.29 49.65 C 24.26 50.26 26.31 50.55 28.36 50.72 C 29.35 51.69 30.34 52.65 31.31 53.62 C 30.49 57.43 32.04 61.00 33.95 64.19 C 32.66 64.04 30.71 64.43 30.16 62.85 C 28.31 58.96 25.71 55.49 23.88 51.60 C 23.46 52.07 23.03 52.55 22.61 53.03 C 24.93 56.18 26.85 59.59 28.96 62.89 C 28.43 62.79 27.37 62.59 26.84 62.49 L 26.60 62.00 Z" />
<path fill="#9c4f82" opacity="1.00" d=" M 98.43 49.74 C 100.66 50.75 102.83 51.89 104.92 53.19 C 104.43 56.28 104.11 59.59 102.27 62.22 C 97.79 65.12 92.89 67.40 88.00 69.51 C 85.66 68.29 83.57 66.65 81.32 65.28 C 82.74 63.36 83.50 61.11 83.45 58.72 C 83.76 59.41 84.38 60.80 84.68 61.49 C 84.76 61.65 84.91 61.96 84.99 62.12 C 87.77 62.67 90.58 63.20 93.24 64.22 C 91.90 65.30 90.57 66.41 89.29 67.56 C 92.89 66.11 96.36 64.19 98.98 61.26 C 100.33 60.64 101.25 59.04 100.36 57.64 C 101.15 56.43 101.88 55.17 102.50 53.86 C 100.84 52.22 100.11 55.82 99.23 56.82 C 99.05 54.45 98.75 52.09 98.43 49.74 Z" />
<path fill="#e96c5e" opacity="1.00" d=" M 72.92 51.73 C 75.30 51.55 77.65 51.03 80.04 51.03 C 80.72 51.12 82.06 51.30 82.74 51.38 C 80.33 52.52 77.65 52.55 75.06 52.91 C 73.63 53.64 72.74 55.05 71.45 55.96 L 69.71 56.46 C 70.65 54.80 71.76 53.24 72.92 51.73 Z" />
<path fill="#3f1a33" opacity="1.00" d=" M 108.08 51.72 C 108.37 50.06 110.49 51.37 111.00 52.23 L 111.00 52.82 C 109.70 53.16 108.73 52.80 108.08 51.72 Z" />
<path fill="#f5efda" opacity="1.00" d=" M 48.16 58.21 C 50.50 55.91 52.95 53.73 55.21 51.35 C 57.04 51.55 59.17 52.15 59.73 54.16 C 61.21 56.77 59.24 59.48 58.27 61.86 L 58.10 61.49 C 57.60 60.46 57.12 59.43 56.63 58.40 C 55.97 58.29 54.65 58.07 53.98 57.96 C 52.04 57.96 50.10 58.09 48.16 58.21 Z" />
<path fill="#010203" opacity="1.00" d=" M 99.23 56.82 C 100.11 55.82 100.84 52.22 102.50 53.86 C 101.88 55.17 101.15 56.43 100.36 57.64 C 99.13 58.42 98.54 59.85 98.98 61.26 C 96.36 64.19 92.89 66.11 89.29 67.56 C 90.57 66.41 91.90 65.30 93.24 64.22 C 95.29 62.67 97.12 60.82 98.32 58.54 C 98.55 58.11 99.01 57.25 99.23 56.82 Z" />
<path fill="#ba82a0" opacity="1.00" d=" M 70.15 60.69 C 71.95 58.40 73.62 55.90 75.98 54.14 C 79.21 55.29 81.90 58.10 81.77 61.70 L 81.67 61.61 C 79.80 59.47 77.33 58.07 74.41 58.69 C 73.16 59.68 71.85 60.74 70.15 60.69 Z" />
<path fill="#9c4f82" opacity="1.00" d=" M 106.70 55.07 C 107.16 55.20 108.09 55.46 108.55 55.60 C 107.92 57.49 107.31 59.39 106.73 61.31 C 108.29 59.85 109.77 58.31 111.00 56.56 L 111.00 59.15 C 109.87 60.87 108.69 62.65 106.94 63.81 C 102.09 66.99 97.29 70.33 91.91 72.58 C 91.41 72.31 90.40 71.77 89.90 71.49 C 92.52 70.91 95.47 70.14 96.22 67.13 C 98.84 65.82 101.79 64.99 104.07 63.09 C 105.66 60.71 105.99 57.78 106.70 55.07 Z" />
<path fill="#9bbee9" opacity="1.00" d=" M 0.00 56.07 L 0.88 56.04 C 1.27 56.30 2.04 56.83 2.43 57.09 C 1.94 59.40 1.03 61.57 0.00 63.68 L 0.00 56.07 Z" />
<path fill="#5479a6" opacity="1.00" d=" M 0.88 56.04 C 1.44 55.99 2.56 55.90 3.12 55.85 C 1.79 60.78 3.56 66.60 0.00 70.77 L 0.00 63.68 C 1.03 61.57 1.94 59.40 2.43 57.09 C 2.04 56.83 1.27 56.30 0.88 56.04 Z" />
<path fill="#fefbe8" opacity="1.00" d=" M 32.94 55.82 C 36.62 56.85 36.77 61.30 38.94 63.88 C 40.24 66.07 42.97 66.11 45.10 66.92 C 38.98 66.68 34.88 61.10 32.94 55.82 Z" />
<path fill="#ad273e" opacity="1.00" d=" M 66.55 61.55 C 66.76 59.53 67.87 57.42 69.71 56.46 L 71.45 55.96 C 70.31 58.20 68.83 60.35 66.55 61.55 Z" />
<path fill="#aa6890" opacity="1.00" d=" M 84.24 55.18 C 87.06 55.64 89.87 56.13 92.68 56.61 C 92.33 57.20 91.62 58.38 91.26 58.97 C 92.80 57.97 94.30 56.93 95.81 55.88 C 96.43 56.54 97.69 57.87 98.32 58.54 C 97.12 60.82 95.29 62.67 93.24 64.22 C 90.58 63.20 87.77 62.67 84.99 62.12 C 84.91 61.96 84.76 61.65 84.68 61.49 C 85.89 59.46 84.63 57.23 84.24 55.18 Z" />
<path fill="#8a4673" opacity="1.00" d=" M 62.15 57.12 C 63.59 57.42 65.03 57.72 66.47 58.03 C 65.89 58.91 65.32 59.80 64.74 60.68 C 63.46 60.73 62.18 60.78 60.90 60.84 C 61.31 59.60 61.72 58.36 62.15 57.12 Z" />
<path fill="#010203" opacity="1.00" d=" M 6.23 58.83 C 7.00 58.44 8.54 57.66 9.31 57.26 C 10.11 58.16 10.88 59.08 11.60 60.04 C 11.46 61.65 10.08 62.61 9.00 63.60 C 8.50 63.32 7.52 62.76 7.03 62.48 C 6.70 61.28 6.47 60.05 6.23 58.83 Z" />
<path fill="#c795ac" opacity="1.00" d=" M 47.90 58.22 L 48.16 58.21 C 50.10 58.09 52.04 57.96 53.98 57.96 C 51.36 60.61 49.11 63.60 47.01 66.68 C 46.50 65.10 45.81 63.54 45.71 61.87 C 46.33 60.59 47.13 59.41 47.90 58.22 Z" />
<path fill="#9b5082" opacity="1.00" d=" M 53.98 57.96 C 54.65 58.07 55.97 58.29 56.63 58.40 C 57.12 59.43 57.60 60.46 58.10 61.49 C 56.08 62.80 53.61 63.79 52.38 65.98 C 52.19 67.57 52.29 69.16 52.32 70.75 C 50.56 69.38 48.79 68.02 47.01 66.68 C 49.11 63.60 51.36 60.61 53.98 57.96 Z" />
<path fill="#bb8ba2" opacity="1.00" d=" M 98.98 61.26 C 98.54 59.85 99.13 58.42 100.36 57.64 C 101.25 59.04 100.33 60.64 98.98 61.26 Z" />
<path fill="#984c7e" opacity="1.00" d=" M 70.15 60.69 C 71.85 60.74 73.16 59.68 74.41 58.69 C 77.33 58.07 79.80 59.47 81.67 61.61 C 81.25 62.27 80.40 63.58 79.98 64.24 C 76.65 63.77 73.61 61.89 70.24 61.39 C 70.22 61.22 70.17 60.86 70.15 60.69 Z" />
<path fill="#bc7cad" opacity="1.00" d=" M 18.25 59.90 C 22.44 62.34 26.72 64.65 31.43 65.92 C 31.07 66.47 30.37 67.55 30.02 68.09 C 28.57 67.77 27.13 67.45 25.68 67.13 C 25.71 69.15 25.75 71.18 25.71 73.20 C 22.88 68.97 20.94 64.22 18.25 59.90 Z" />
<path fill="#97477d" opacity="1.00" d=" M 7.03 62.48 C 7.52 62.76 8.50 63.32 9.00 63.60 C 9.31 64.32 9.61 65.04 9.91 65.76 C 7.82 67.88 6.12 70.98 8.09 73.78 C 9.35 76.78 12.78 76.56 15.48 76.25 C 15.82 76.24 16.51 76.22 16.86 76.21 C 16.70 76.39 16.38 76.76 16.22 76.94 C 14.87 78.17 14.42 79.92 14.01 81.62 C 10.99 79.83 7.56 78.48 5.16 75.82 C 3.93 72.40 4.59 68.64 4.51 65.07 C 5.28 64.98 6.83 64.80 7.60 64.71 C 7.46 64.15 7.17 63.04 7.03 62.48 Z" />
<path fill="#f8f2db" opacity="1.00" d=" M 17.20 66.38 C 17.35 65.03 17.50 63.69 17.63 62.34 C 20.10 66.75 22.52 71.19 24.79 75.71 C 27.47 75.71 26.18 70.55 28.70 70.02 C 30.74 70.79 31.80 72.83 33.15 74.40 C 31.95 74.14 30.74 73.87 29.54 73.60 C 28.61 75.66 28.60 77.77 29.80 79.72 C 29.25 79.32 28.16 78.51 27.61 78.11 C 27.66 80.96 27.50 84.67 23.86 85.02 C 24.28 83.66 26.31 82.87 25.79 81.30 C 25.34 79.41 24.74 77.52 23.70 75.86 C 22.27 73.48 20.92 71.05 19.28 68.81 C 18.88 68.52 18.09 67.92 17.70 67.62 C 17.57 67.31 17.32 66.69 17.20 66.38 Z" />
<path fill="#8c4574" opacity="1.00" d=" M 54.52 66.85 C 59.97 61.28 68.70 63.13 75.18 65.66 C 73.63 67.58 72.11 69.53 70.35 71.27 C 69.30 69.27 68.25 67.28 67.21 65.28 C 63.54 65.11 59.51 64.78 56.64 67.54 C 56.11 67.37 55.05 67.02 54.52 66.85 Z" />
<path fill="#35547b" opacity="1.00" d=" M 107.50 67.51 C 108.87 66.46 110.03 65.17 111.00 63.74 L 111.00 73.32 C 110.19 71.18 108.84 69.33 107.50 67.51 Z" />
<path fill="#c294a9" opacity="1.00" d=" M 31.73 68.71 C 32.63 67.57 33.26 65.05 35.02 65.33 C 36.77 66.97 38.31 68.88 40.51 69.96 C 38.90 71.37 37.38 72.88 35.92 74.44 C 34.66 72.43 33.28 70.50 31.73 68.71 Z" />
<path fill="#9e5584" opacity="1.00" d=" M 56.64 67.54 C 59.51 64.78 63.54 65.11 67.21 65.28 C 68.25 67.28 69.30 69.27 70.35 71.27 C 68.51 72.72 66.58 74.06 64.69 75.44 C 64.67 74.89 64.63 73.77 64.61 73.22 C 61.65 73.00 58.69 72.77 55.72 72.77 L 54.70 74.11 C 54.55 71.69 54.44 69.27 54.52 66.85 C 55.05 67.02 56.11 67.37 56.64 67.54 Z" />
<path fill="#000000" opacity="1.00" d=" M 8.09 73.78 C 6.12 70.98 7.82 67.88 9.91 65.76 C 12.04 66.70 14.09 67.88 15.65 69.64 C 15.56 71.85 15.52 74.05 15.48 76.25 C 12.78 76.56 9.35 76.78 8.09 73.78 M 9.80 73.15 C 10.73 74.61 12.53 74.37 14.01 74.44 C 11.41 73.78 10.19 71.70 10.25 69.06 C 7.95 69.15 8.69 72.04 9.80 73.15 Z" />
<path fill="#6a2855" opacity="1.00" d=" M 77.23 66.22 C 78.25 66.49 79.27 66.75 80.29 67.02 C 79.99 70.18 78.34 72.90 76.73 75.55 C 74.82 74.80 72.90 74.07 70.98 73.36 C 73.55 71.45 75.46 68.85 77.23 66.22 Z" />
<path fill="#c54849" opacity="1.00" d=" M 17.70 67.62 C 18.09 67.92 18.88 68.52 19.28 68.81 C 20.92 71.05 22.27 73.48 23.70 75.86 C 22.95 75.64 21.46 75.21 20.71 74.99 C 19.45 72.65 18.41 70.19 17.70 67.62 Z" />
<path fill="#c46bac" opacity="1.00" d=" M 89.79 70.26 C 91.87 69.11 94.04 68.10 96.22 67.13 C 95.47 70.14 92.52 70.91 89.90 71.49 L 89.79 70.26 Z" />
<path fill="#6c93c2" opacity="1.00" d=" M 97.22 73.01 C 100.65 71.19 104.12 69.43 107.50 67.51 C 108.84 69.33 110.19 71.18 111.00 73.32 L 111.00 95.97 C 107.81 91.49 105.30 86.62 102.64 81.83 C 103.83 79.60 104.95 77.34 105.94 75.02 C 101.75 76.23 100.93 81.53 97.08 83.44 C 96.88 80.60 96.56 77.75 95.55 75.07 C 96.10 74.38 96.65 73.69 97.22 73.01 Z" />
<path fill="#abc9f0" opacity="1.00" d=" M 9.80 73.15 C 8.69 72.04 7.95 69.15 10.25 69.06 C 10.19 71.70 11.41 73.78 14.01 74.44 C 12.53 74.37 10.73 74.61 9.80 73.15 Z" />
<path fill="#672552" opacity="1.00" d=" M 81.92 68.75 C 83.61 69.66 85.32 70.54 87.11 71.26 C 85.36 72.54 83.67 73.90 82.04 75.33 L 84.01 75.34 C 82.12 76.79 80.07 78.17 77.60 78.32 C 79.24 75.22 80.82 72.09 81.92 68.75 Z" />
<path fill="#8c4f75" opacity="1.00" d=" M 40.51 69.96 C 41.38 71.80 42.45 74.14 41.12 76.03 C 40.16 77.42 38.37 77.38 36.89 77.67 C 36.57 76.59 36.24 75.51 35.92 74.44 C 37.38 72.88 38.90 71.37 40.51 69.96 Z" />
<path fill="#476b97" opacity="1.00" d=" M -0.00 73.14 C 0.74 72.78 1.48 72.44 2.23 72.10 C 1.76 76.56 5.41 79.13 8.71 81.24 C 5.63 83.83 4.09 87.62 3.44 91.50 C 6.62 89.23 9.18 86.27 11.50 83.16 L 12.13 83.59 C 12.06 87.56 11.91 91.61 13.12 95.45 C 15.10 92.32 16.92 88.86 16.59 85.03 C 19.40 86.50 21.94 88.43 24.80 89.81 C 24.86 91.37 24.92 92.94 24.99 94.50 C 26.59 92.86 28.09 91.10 29.10 89.03 L 27.91 88.57 C 31.62 86.47 35.87 84.59 37.77 80.49 C 41.08 79.02 43.94 76.69 45.49 73.35 C 47.42 73.02 49.39 72.19 51.36 72.54 C 52.50 73.42 53.45 74.55 54.76 75.19 C 55.08 75.41 55.71 75.86 56.02 76.09 C 57.02 77.22 58.03 78.35 59.03 79.49 C 58.60 79.58 57.72 79.77 57.28 79.86 C 55.58 78.43 53.88 76.99 52.17 75.56 C 50.73 77.92 49.28 80.28 47.68 82.54 C 44.46 85.24 40.47 89.62 42.71 94.07 C 42.15 94.69 41.57 95.29 40.99 95.89 C 40.84 94.15 40.69 92.40 40.54 90.65 C 39.76 93.24 39.14 95.88 38.41 98.48 C 38.03 98.73 37.26 99.21 36.88 99.46 C 36.44 97.68 36.02 95.91 35.60 94.13 C 34.58 96.46 33.50 98.84 31.61 100.60 C 27.89 103.06 23.92 105.11 19.90 107.03 C 19.71 100.59 19.18 94.17 18.47 87.77 C 15.41 92.40 15.04 98.08 15.31 103.47 C 14.06 105.94 12.99 108.50 11.80 111.00 L 9.14 111.00 C 9.08 104.62 9.40 98.24 9.74 91.87 C 8.01 93.69 6.24 95.47 4.55 97.32 C 2.24 101.10 2.04 105.75 0.00 109.69 L 0.00 95.67 C 2.51 91.51 4.24 86.96 5.44 82.25 C 2.58 84.17 1.02 87.26 0.00 90.44 L 0.00 83.46 C 1.48 81.72 3.04 80.05 4.49 78.29 C 2.23 77.96 1.06 79.97 0.00 81.58 L 0.00 73.14 Z" />
<path fill="#b76da5" opacity="1.00" d=" M 82.04 75.33 C 83.67 73.90 85.36 72.54 87.11 71.26 C 88.23 73.31 85.23 74.34 84.01 75.34 L 82.04 75.33 Z" />
<path fill="#b9849f" opacity="1.00" d=" M 54.70 74.11 L 55.72 72.77 C 58.69 72.77 61.65 73.00 64.61 73.22 C 64.63 73.77 64.67 74.89 64.69 75.44 C 63.43 76.34 62.19 77.27 60.83 78.02 C 59.87 77.62 58.96 77.13 58.11 76.53 C 57.59 76.42 56.54 76.20 56.02 76.09 C 55.71 75.86 55.08 75.41 54.76 75.19 C 54.75 74.92 54.72 74.38 54.70 74.11 Z" />
<path fill="#365984" opacity="1.00" d=" M 90.02 76.04 C 92.25 74.65 94.80 73.95 97.22 73.01 C 96.65 73.69 96.10 74.38 95.55 75.07 C 96.56 77.75 96.88 80.60 97.08 83.44 C 94.76 80.99 91.41 79.14 90.02 76.04 Z" />
<path fill="#ba7aad" opacity="1.00" d=" M 29.80 79.72 C 28.60 77.77 28.61 75.66 29.54 73.60 C 30.74 73.87 31.95 74.14 33.15 74.40 C 34.65 77.22 36.08 81.60 32.74 83.68 C 29.80 86.62 24.33 90.12 20.91 85.92 C 21.64 85.70 23.12 85.25 23.86 85.02 C 27.50 84.67 27.66 80.96 27.61 78.11 C 28.16 78.51 29.25 79.32 29.80 79.72 Z" />
<path fill="#a3728d" opacity="1.00" d=" M 67.50 76.28 C 68.64 75.29 69.81 74.32 70.98 73.36 C 72.90 74.07 74.82 74.80 76.73 75.55 C 76.09 76.37 75.38 77.04 74.60 77.57 C 72.28 76.94 69.93 76.33 67.50 76.28 Z" />
<path fill="#a21f4c" opacity="1.00" d=" M 20.71 74.99 C 21.46 75.21 22.95 75.64 23.70 75.86 C 24.74 77.52 25.34 79.41 25.79 81.30 C 22.49 81.01 22.03 77.35 20.71 74.99 Z" />
<path fill="#110d11" opacity="1.00" d=" M 16.86 76.21 C 19.39 76.37 19.67 79.35 20.53 81.16 C 19.17 81.16 17.81 81.13 16.45 81.07 L 16.04 79.98 C 17.46 79.13 17.42 78.54 15.92 78.20 L 16.22 76.94 C 16.38 76.76 16.70 76.39 16.86 76.21 Z" />
<path fill="#fffde3" opacity="1.00" d=" M 66.17 76.22 C 66.50 76.24 67.17 76.27 67.50 76.28 C 69.93 76.33 72.28 76.94 74.60 77.57 C 72.45 79.14 70.11 80.52 67.44 80.93 C 66.97 79.37 66.53 77.81 66.17 76.22 Z" />
<path fill="#532d46" opacity="1.00" d=" M 14.01 81.62 C 14.42 79.92 14.87 78.17 16.22 76.94 L 15.92 78.20 C 15.95 78.64 16.01 79.53 16.04 79.98 L 16.45 81.07 C 17.81 81.13 19.17 81.16 20.53 81.16 C 19.46 81.79 18.40 82.43 17.34 83.08 L 16.97 83.30 C 15.98 82.74 15.00 82.18 14.01 81.62 Z" />
<path fill="#a3c6f3" opacity="1.00" d=" M 0.00 81.58 C 1.06 79.97 2.23 77.96 4.49 78.29 C 3.04 80.05 1.48 81.72 0.00 83.46 L 0.00 81.58 Z" />
<path fill="#717873" opacity="1.00" d=" M 15.92 78.20 C 17.42 78.54 17.46 79.13 16.04 79.98 C 16.01 79.53 15.95 78.64 15.92 78.20 Z" />
<path fill="#b0949a" opacity="1.00" d=" M 63.16 77.41 C 64.63 78.75 65.41 80.60 66.31 82.34 C 65.59 83.25 64.88 84.17 64.15 85.08 C 63.81 82.76 63.49 80.43 63.23 78.10 L 63.16 77.41 Z" />
<path fill="#ab1d53" opacity="1.00" d=" M 51.58 80.81 C 52.01 79.88 52.72 79.16 53.71 78.67 C 56.11 82.29 58.71 86.06 58.91 90.56 C 56.85 89.49 55.08 87.94 53.91 85.92 C 53.12 84.22 52.31 82.53 51.58 80.81 Z" />
<path fill="#fbf9e0" opacity="1.00" d=" M 59.28 81.22 C 60.34 79.90 61.86 79.05 63.23 78.10 C 63.49 80.43 63.81 82.76 64.15 85.08 C 63.06 85.83 61.98 86.60 60.89 87.36 C 60.32 85.34 58.97 83.38 59.28 81.22 Z" />
<path fill="#682753" opacity="1.00" d=" M 74.99 78.85 C 78.15 80.00 81.99 82.07 81.93 85.95 C 81.65 86.15 81.08 86.56 80.79 86.76 C 79.39 86.65 77.99 86.53 76.60 86.38 C 76.09 84.19 75.57 82.00 75.16 79.78 L 74.99 78.85 Z" />
<path fill="#b37699" opacity="1.00" d=" M 70.90 82.04 C 72.27 81.20 73.71 80.47 75.16 79.78 C 75.57 82.00 76.09 84.19 76.60 86.38 C 77.99 86.53 79.39 86.65 80.79 86.76 C 79.18 88.72 77.46 90.68 75.06 91.69 C 74.45 91.19 73.22 90.19 72.61 89.69 C 72.61 86.99 72.63 84.30 72.66 81.60 C 72.22 81.71 71.34 81.93 70.90 82.04 Z" />
<path fill="#fde866" opacity="1.00" d=" M 43.59 103.81 C 44.94 95.79 46.88 87.59 51.58 80.81 C 52.31 82.53 53.12 84.22 53.91 85.92 C 54.85 89.78 54.65 93.77 54.54 97.70 L 54.53 97.84 C 51.01 100.05 47.62 102.57 43.59 103.81 Z" />
<path fill="#7ba0cb" opacity="1.00" d=" M 3.44 91.50 C 4.09 87.62 5.63 83.83 8.71 81.24 C 9.64 81.89 10.57 82.53 11.50 83.16 C 9.18 86.27 6.62 89.23 3.44 91.50 Z" />
<path fill="#ffffe9" opacity="1.00" d=" M 68.95 82.54 C 69.44 82.42 70.41 82.17 70.90 82.04 C 71.34 81.93 72.22 81.71 72.66 81.60 C 72.63 84.30 72.61 86.99 72.61 89.69 C 71.05 87.50 69.60 85.18 68.95 82.54 Z" />
<path fill="#80a5d0" opacity="1.00" d=" M 0.00 90.44 C 1.02 87.26 2.58 84.17 5.44 82.25 C 4.24 86.96 2.51 91.51 0.00 95.67 L 0.00 90.44 Z" />
<path fill="#7ba0cb" opacity="1.00" d=" M 42.71 94.07 C 40.47 89.62 44.46 85.24 47.68 82.54 C 45.80 86.29 45.10 90.57 42.71 94.07 Z" />
<path fill="#6c90bd" opacity="1.00" d=" M 12.13 83.59 C 13.61 84.10 15.11 84.54 16.59 85.03 C 16.92 88.86 15.10 92.32 13.12 95.45 C 11.91 91.61 12.06 87.56 12.13 83.59 Z" />
<path fill="#fee966" opacity="1.00" d=" M 85.95 84.84 C 86.43 84.64 87.39 84.25 87.87 84.05 L 87.67 84.30 C 86.84 85.56 85.55 86.65 85.25 88.18 C 85.79 91.51 86.88 94.73 87.45 98.05 C 85.01 96.90 82.66 95.56 80.39 94.11 C 82.02 90.88 83.88 87.79 85.95 84.84 Z" />
<path fill="#cfa8b4" opacity="1.00" d=" M 61.22 89.49 C 63.09 87.88 65.02 86.32 67.09 84.98 C 68.07 86.28 68.83 87.73 69.63 89.15 C 68.04 90.25 66.54 91.49 64.89 92.50 C 63.50 91.73 62.24 90.71 61.22 89.49 Z" />
<path fill="#e16954" opacity="1.00" d=" M 85.25 88.18 C 85.55 86.65 86.84 85.56 87.67 84.30 C 90.13 89.11 92.04 94.34 91.77 99.82 C 90.33 99.23 88.89 98.63 87.45 98.05 C 86.88 94.73 85.79 91.51 85.25 88.18 Z" />
<path fill="#df4952" opacity="1.00" d=" M 53.91 85.92 C 55.08 87.94 56.85 89.49 58.91 90.56 L 59.45 90.89 C 58.23 93.43 57.72 96.86 54.54 97.70 C 54.65 93.77 54.85 89.78 53.91 85.92 Z" />
<path fill="#6387b5" opacity="1.00" d=" M 15.31 103.47 C 15.04 98.08 15.41 92.40 18.47 87.77 C 19.18 94.17 19.71 100.59 19.90 107.03 C 18.77 107.58 17.64 108.13 16.52 108.68 C 16.10 106.95 15.67 105.21 15.31 103.47 Z" />
<path fill="#779bc8" opacity="1.00" d=" M 24.80 89.81 C 25.84 89.42 26.88 89.00 27.91 88.57 L 29.10 89.03 C 28.09 91.10 26.59 92.86 24.99 94.50 C 24.92 92.94 24.86 91.37 24.80 89.81 Z" />
<path fill="#6488b5" opacity="1.00" d=" M 4.55 97.32 C 6.24 95.47 8.01 93.69 9.74 91.87 C 9.40 98.24 9.08 104.62 9.14 111.00 L 7.02 111.00 C 5.59 106.57 4.37 102.02 4.55 97.32 Z" />
<path fill="#ffffbd" opacity="1.00" d=" M 60.72 92.65 C 61.16 92.62 62.04 92.57 62.48 92.54 C 61.34 94.70 60.32 96.95 60.00 99.39 C 59.23 97.13 59.99 94.80 60.72 92.65 Z" />
<path fill="#ffeb67" opacity="1.00" d=" M 68.21 92.12 C 71.26 92.75 71.20 96.89 72.14 99.29 C 69.81 97.64 69.40 94.54 68.21 92.12 Z" />
<path fill="#dd5755" opacity="1.00" d=" M 62.48 92.54 C 62.45 95.30 62.62 98.67 59.86 100.26 L 60.00 99.39 C 60.32 96.95 61.34 94.70 62.48 92.54 Z" />
<path fill="#6c90bd" opacity="1.00" d=" M 31.61 100.60 C 33.50 98.84 34.58 96.46 35.60 94.13 C 36.02 95.91 36.44 97.68 36.88 99.46 C 35.22 100.21 33.42 100.53 31.61 100.60 Z" />
<path fill="#d5e3f5" opacity="1.00" d=" M 64.44 94.45 C 65.36 94.44 66.27 94.44 67.19 94.44 C 67.66 95.77 68.15 97.11 68.64 98.44 C 67.58 98.55 65.46 98.77 64.40 98.88 C 64.92 99.47 65.44 100.06 65.96 100.65 C 67.87 100.38 69.84 100.44 71.28 101.86 C 74.39 104.55 76.97 107.75 79.45 111.00 L 58.47 111.00 C 59.00 110.05 59.49 109.09 59.95 108.11 C 60.40 108.22 61.29 108.43 61.74 108.53 C 64.25 106.26 66.66 103.87 68.99 101.41 C 66.76 101.33 64.53 101.29 62.29 101.32 C 62.81 101.21 63.83 100.98 64.34 100.86 C 64.27 98.72 64.35 96.59 64.44 94.45 Z" />
<path fill="#f9f7de" opacity="1.00" d=" M 76.20 95.26 C 78.47 96.33 80.68 97.51 82.81 98.83 C 87.12 103.09 91.83 106.91 96.30 111.00 L 89.09 111.00 C 83.83 106.64 79.46 101.26 76.20 95.26 Z" />
<path fill="#5f5726" opacity="1.00" d=" M 42.09 97.44 C 43.43 97.64 43.63 98.35 42.69 99.55 C 41.34 99.34 41.14 98.64 42.09 97.44 Z" />
<path fill="#010203" opacity="1.00" d=" M 0.00 109.69 C 2.04 105.75 2.24 101.10 4.55 97.32 C 4.37 102.02 5.59 106.57 7.02 111.00 L 5.11 111.00 C 4.52 109.27 4.05 107.51 3.64 105.73 C 2.95 107.50 2.26 109.27 1.46 111.00 L 0.00 111.00 L 0.00 109.69 Z" />
<path fill="#8b5073" opacity="1.00" d=" M 53.98 100.82 C 54.84 100.20 55.71 99.60 56.58 98.99 C 57.57 100.40 58.56 101.82 59.54 103.23 C 58.53 105.87 57.51 108.52 56.14 111.00 L 47.54 111.00 C 49.32 107.39 51.16 103.75 53.98 100.82 Z" />
<path fill="#f2f4f9" opacity="1.00" d=" M 71.28 101.86 C 72.56 100.93 73.81 99.98 75.06 99.00 C 77.93 103.49 81.39 107.61 85.51 111.00 L 79.45 111.00 C 76.97 107.75 74.39 104.55 71.28 101.86 Z" />
<path fill="#b8829f" opacity="1.00" d=" M 82.81 98.83 C 86.26 100.57 89.95 101.95 93.88 101.93 C 96.10 103.60 98.21 105.41 100.23 107.32 L 100.34 105.64 C 101.07 107.35 101.42 109.19 101.81 111.00 L 96.30 111.00 C 91.83 106.91 87.12 103.09 82.81 98.83 Z" />
<path fill="#e3c7d6" opacity="1.00" d=" M 93.36 99.67 C 96.16 101.01 98.59 103.07 100.34 105.64 L 100.23 107.32 C 98.21 105.41 96.10 103.60 93.88 101.93 C 93.75 101.37 93.49 100.23 93.36 99.67 Z" />
<path fill="#f1f3f8" opacity="1.00" d=" M 16.80 111.00 C 24.62 107.28 32.62 103.92 40.78 101.02 C 39.34 104.40 37.77 107.74 36.06 111.00 L 16.80 111.00 Z" />
<path fill="#f9f6de" opacity="1.00" d=" M 40.79 105.21 C 45.71 106.79 49.95 103.04 53.98 100.82 C 51.16 103.75 49.32 107.39 47.54 111.00 L 37.93 111.00 C 38.94 109.10 39.86 107.15 40.79 105.21 Z" />
<path fill="#f5f7fc" opacity="1.00" d=" M 62.29 101.32 C 64.53 101.29 66.76 101.33 68.99 101.41 C 66.66 103.87 64.25 106.26 61.74 108.53 C 61.29 108.43 60.40 108.22 59.95 108.11 C 60.83 105.89 61.50 103.58 62.29 101.32 Z" />
<path fill="#96c2f8" opacity="1.00" d=" M 103.54 108.36 C 106.01 109.18 108.49 109.93 111.00 110.64 L 111.00 111.00 L 103.79 111.00 C 103.73 110.34 103.60 109.02 103.54 108.36 Z" />
</svg>
