<?xml version="1.0" encoding="UTF-8" ?>
<!DOCTYPE svg PUBLIC "-//W3C//DTD SVG 1.1//EN" "http://www.w3.org/Graphics/SVG/1.1/DTD/svg11.dtd">
<svg width="111pt" height="111pt" viewBox="0 0 111 111" version="1.1" xmlns="http://www.w3.org/2000/svg">
<path fill="#78fcff" opacity="1.00" d=" M 0.00 0.00 L 5.38 0.00 C 11.03 5.38 17.93 9.13 24.26 13.62 C 22.25 17.76 21.42 22.34 22.21 26.90 C 22.18 27.37 22.11 28.32 22.08 28.79 C 19.15 25.95 15.39 23.72 11.16 24.22 C 8.57 19.42 3.27 17.07 0.00 12.82 L 0.00 0.00 Z" />
<path fill="#ffffff" opacity="1.00" d=" M 5.38 0.00 L 9.19 0.00 C 14.95 4.60 21.05 8.77 27.49 12.34 C 27.47 12.46 27.43 12.69 27.40 12.80 C 23.70 18.87 22.91 28.11 28.72 33.10 C 31.41 34.57 32.49 37.33 31.49 40.27 C 31.23 40.33 30.73 40.45 30.47 40.51 C 29.68 40.57 28.10 40.70 27.30 40.76 C 28.47 40.06 29.64 39.35 30.81 38.65 C 26.82 35.68 23.67 31.70 22.21 26.90 C 21.42 22.34 22.25 17.76 24.26 13.62 C 17.93 9.13 11.03 5.38 5.38 0.00 Z" />
<path fill="#72ace5" opacity="0.90" d=" M 9.19 0.00 L 29.56 0.00 C 28.32 4.01 27.96 8.20 27.49 12.34 C 21.05 8.77 14.95 4.60 9.19 0.00 Z" />
<path fill="#1a3466" opacity="1.00" d=" M 29.56 0.00 L 32.47 0.00 C 31.66 3.62 30.40 7.24 30.64 11.00 C 30.91 15.30 31.52 19.57 31.74 23.87 L 29.48 24.12 C 28.72 20.35 28.81 16.42 27.40 12.80 C 27.43 12.69 27.47 12.46 27.49 12.34 C 27.96 8.20 28.32 4.01 29.56 0.00 Z" />
<path fill="#ffffe5" opacity="1.00" d=" M 32.47 0.00 L 35.87 0.00 C 34.76 4.24 36.34 8.73 34.48 12.86 C 34.31 15.16 36.26 12.83 36.81 12.04 C 35.15 15.66 33.51 19.38 33.17 23.39 C 33.06 23.48 32.85 23.64 32.75 23.72 C 32.50 23.76 31.99 23.84 31.74 23.87 C 31.52 19.57 30.91 15.30 30.64 11.00 C 30.40 7.24 31.66 3.62 32.47 0.00 Z" />
<path fill="#fff6b1" opacity="1.00" d=" M 35.87 0.00 L 39.52 0.00 C 40.76 4.33 38.68 8.28 36.81 12.04 C 36.26 12.83 34.31 15.16 34.48 12.86 C 36.34 8.73 34.76 4.24 35.87 0.00 Z" />
<path fill="#1a2f4f" opacity="1.00" d=" M 39.52 0.00 L 46.30 0.00 C 42.92 6.13 39.53 12.29 37.25 18.93 C 36.05 20.56 34.68 22.05 33.17 23.39 C 33.51 19.38 35.15 15.66 36.81 12.04 C 38.68 8.28 40.76 4.33 39.52 0.00 Z" />
<path fill="#fffff6" opacity="1.00" d=" M 46.30 0.00 L 51.09 0.00 C 49.81 2.93 50.34 6.13 50.95 9.15 C 50.72 9.50 50.26 10.22 50.03 10.57 C 46.24 11.36 44.78 15.13 44.33 18.56 C 43.59 24.16 41.15 29.44 41.15 35.15 C 39.15 35.27 39.08 33.00 38.48 31.62 C 37.26 27.52 35.16 23.13 37.25 18.93 C 39.53 12.29 42.92 6.13 46.30 0.00 M 40.76 21.08 C 41.03 21.41 41.57 22.06 41.84 22.38 C 43.00 17.96 43.11 12.96 46.29 9.38 C 47.39 8.42 48.02 6.24 46.02 5.91 C 42.04 9.78 40.76 15.72 40.76 21.08 Z" />
<path fill="#fff6a9" opacity="1.00" d=" M 51.09 0.00 L 53.69 0.00 C 53.86 2.16 54.21 4.33 55.17 6.30 C 53.75 7.22 52.31 8.14 50.95 9.15 C 50.34 6.13 49.81 2.93 51.09 0.00 Z" />
<path fill="#fff5a6" opacity="1.00" d=" M 53.69 0.00 L 66.55 0.00 C 69.27 3.11 72.12 6.10 75.12 8.95 C 77.46 11.12 78.32 14.30 79.28 17.23 C 79.38 17.83 79.57 19.03 79.67 19.63 C 75.41 18.74 71.05 18.62 66.72 18.77 C 65.35 15.84 63.13 13.14 59.92 12.18 C 57.49 11.13 55.03 12.65 52.69 13.15 C 53.54 11.19 54.58 9.33 55.65 7.49 C 55.53 7.19 55.29 6.60 55.17 6.30 C 54.21 4.33 53.86 2.16 53.69 0.00 Z" />
<path fill="#d9bb79" opacity="1.00" d=" M 66.55 0.00 L 69.78 0.00 C 73.86 3.47 77.40 8.24 82.96 9.31 C 82.35 9.68 81.12 10.44 80.51 10.81 C 80.62 12.43 80.73 14.04 80.83 15.66 C 80.45 16.05 79.67 16.84 79.28 17.23 C 78.32 14.30 77.46 11.12 75.12 8.95 C 72.12 6.10 69.27 3.11 66.55 0.00 Z" />
<path fill="#ffffac" opacity="1.00" d=" M 69.78 0.00 L 74.17 0.00 C 77.35 2.85 80.59 5.72 82.96 9.31 C 77.40 8.24 73.86 3.47 69.78 0.00 Z" />
<path fill="#0f1c2f" opacity="1.00" d=" M 74.17 0.00 L 78.76 0.00 C 81.13 1.84 83.41 3.80 85.95 5.40 C 86.61 5.84 87.27 6.28 87.93 6.72 C 89.09 4.46 90.21 2.18 91.51 0.00 L 95.15 0.00 C 93.26 2.55 91.41 5.16 89.99 8.00 C 90.43 8.34 91.33 9.02 91.77 9.36 C 92.56 9.87 93.36 10.36 94.16 10.85 C 95.07 8.45 95.97 6.05 96.90 3.67 C 97.56 2.44 98.20 1.20 98.90 0.00 L 101.35 0.00 C 100.89 0.97 100.46 1.95 100.04 2.93 C 98.82 6.01 97.38 8.98 95.85 11.91 C 96.99 12.64 98.13 13.36 99.28 14.06 C 100.46 15.08 100.69 16.03 99.97 16.90 L 99.35 17.34 C 96.25 15.97 93.41 14.10 90.56 12.29 C 89.14 11.83 87.14 9.08 85.96 10.83 C 85.07 11.67 84.48 12.65 84.19 13.77 C 84.16 14.58 84.09 16.22 84.06 17.03 C 83.04 18.01 82.07 19.04 81.07 20.02 C 82.94 20.78 84.87 21.52 86.35 22.96 C 84.64 22.69 82.94 22.39 81.25 22.05 C 81.07 23.97 80.92 25.90 80.75 27.82 C 84.81 29.34 88.75 31.19 92.39 33.56 C 92.88 33.94 93.86 34.70 94.34 35.08 C 96.83 37.02 99.17 39.14 101.41 41.36 C 101.80 41.79 102.56 42.66 102.95 43.10 C 104.54 45.94 106.14 48.83 107.03 51.99 C 107.83 55.13 108.02 58.59 106.46 61.55 C 104.30 65.54 102.41 69.89 98.73 72.75 C 97.88 73.71 96.59 73.72 95.41 73.69 L 96.56 71.81 C 96.70 71.57 96.97 71.08 97.10 70.84 C 96.39 70.19 95.67 69.54 94.94 68.91 C 96.19 66.94 97.34 64.90 98.55 62.91 C 98.67 64.93 98.77 66.96 98.91 68.98 C 102.14 65.40 104.88 60.91 104.87 55.95 C 105.10 50.05 101.50 44.83 97.41 40.92 C 94.64 38.26 91.80 35.61 88.44 33.70 C 81.44 29.48 73.30 27.53 66.50 22.96 L 65.86 21.21 C 67.96 21.33 69.77 22.22 71.32 23.58 C 73.59 25.09 76.25 25.85 78.72 26.94 C 78.76 25.14 78.80 23.34 78.85 21.54 C 76.27 21.66 73.69 21.85 71.13 22.14 L 71.07 21.66 C 72.64 21.23 74.20 20.74 75.70 20.11 C 72.90 19.72 70.06 19.65 67.23 19.63 L 66.72 18.77 C 71.05 18.62 75.41 18.74 79.67 19.63 C 79.57 19.03 79.38 17.83 79.28 17.23 C 79.67 16.84 80.45 16.05 80.83 15.66 C 80.73 14.04 80.62 12.43 80.51 10.81 C 81.12 10.44 82.35 9.68 82.96 9.31 C 80.59 5.72 77.35 2.85 74.17 0.00 Z" />
<path fill="#fcfeed" opacity="1.00" d=" M 78.76 0.00 L 88.58 0.00 C 88.09 1.81 87.68 3.65 87.20 5.46 L 85.95 5.40 C 83.41 3.80 81.13 1.84 78.76 0.00 Z" />
<path fill="#beb7a9" opacity="1.00" d=" M 88.58 0.00 L 91.51 0.00 C 90.21 2.18 89.09 4.46 87.93 6.72 C 87.27 6.28 86.61 5.84 85.95 5.40 L 87.20 5.46 C 87.68 3.65 88.09 1.81 88.58 0.00 Z" />
<path fill="#ffffd5" opacity="1.00" d=" M 95.15 0.00 L 98.90 0.00 C 98.20 1.20 97.56 2.44 96.90 3.67 C 95.57 5.55 94.30 7.47 93.02 9.39 L 91.77 9.36 C 91.33 9.02 90.43 8.34 89.99 8.00 C 91.41 5.16 93.26 2.55 95.15 0.00 Z" />
<path fill="#af894e" opacity="1.00" d=" M 101.35 0.00 L 107.07 0.00 L 107.10 0.06 C 106.15 3.61 105.05 7.11 103.98 10.62 C 102.44 8.18 101.13 5.60 100.04 2.93 C 100.46 1.95 100.89 0.97 101.35 0.00 Z" />
<path fill="#ffffff" opacity="1.00" d=" M 107.07 0.00 L 111.00 0.00 L 111.00 21.20 C 108.77 24.52 105.95 27.37 103.37 30.41 C 101.13 33.15 97.41 33.71 94.34 35.08 C 93.86 34.70 92.88 33.94 92.39 33.56 C 93.21 32.66 94.06 31.76 95.19 31.24 C 96.36 30.66 97.56 30.11 98.65 29.37 C 99.78 28.29 100.86 27.14 102.13 26.23 C 103.53 25.22 104.87 24.11 105.89 22.71 C 108.71 18.71 110.68 13.93 110.41 8.96 C 110.29 5.72 108.51 2.89 107.10 0.06 L 107.07 0.00 Z" />
<path fill="#805d47" opacity="1.00" d=" M 103.98 10.62 C 105.05 7.11 106.15 3.61 107.10 0.06 C 108.51 2.89 110.29 5.72 110.41 8.96 C 110.68 13.93 108.71 18.71 105.89 22.71 C 104.41 20.23 103.39 17.51 102.94 14.66 C 103.24 13.30 103.59 11.95 103.98 10.62 Z" />
<path fill="#fff398" opacity="1.00" d=" M 100.04 2.93 C 101.13 5.60 102.44 8.18 103.98 10.62 C 103.59 11.95 103.24 13.30 102.94 14.66 C 101.72 14.48 100.50 14.29 99.28 14.06 C 98.13 13.36 96.99 12.64 95.85 11.91 C 97.38 8.98 98.82 6.01 100.04 2.93 Z" />
<path fill="#e4cb75" opacity="1.00" d=" M 93.02 9.39 C 94.30 7.47 95.57 5.55 96.90 3.67 C 95.97 6.05 95.07 8.45 94.16 10.85 C 93.36 10.36 92.56 9.87 91.77 9.36 L 93.02 9.39 Z" />
<path fill="#fff9be" opacity="1.00" d=" M 40.76 21.08 C 40.76 15.72 42.04 9.78 46.02 5.91 C 48.02 6.24 47.39 8.42 46.29 9.38 C 43.11 12.96 43.00 17.96 41.84 22.38 C 41.57 22.06 41.03 21.41 40.76 21.08 Z" />
<path fill="#253d64" opacity="1.00" d=" M 50.95 9.15 C 52.31 8.14 53.75 7.22 55.17 6.30 C 55.29 6.60 55.53 7.19 55.65 7.49 C 54.58 9.33 53.54 11.19 52.69 13.15 C 55.03 12.65 57.49 11.13 59.92 12.18 C 63.13 13.14 65.35 15.84 66.72 18.77 L 67.23 19.63 C 65.59 20.02 63.96 20.45 62.34 20.91 C 63.17 21.49 63.99 22.11 64.79 22.74 C 66.54 26.03 62.99 24.79 62.13 26.10 C 62.93 27.22 64.68 26.75 65.86 27.11 C 66.93 28.43 68.05 29.74 68.84 31.27 C 68.63 32.45 68.24 33.59 67.91 34.75 C 74.35 40.17 84.51 40.84 88.84 48.65 C 88.79 48.96 88.68 49.59 88.62 49.90 C 85.37 45.38 80.11 43.14 75.15 41.06 C 72.67 39.94 70.43 38.39 68.12 36.97 C 70.13 39.62 72.61 41.85 75.29 43.80 C 76.38 44.65 77.47 45.50 78.59 46.31 C 72.54 47.08 69.52 40.50 65.74 36.98 L 65.54 36.79 L 64.54 35.85 C 64.66 35.43 64.89 34.58 65.01 34.16 C 65.82 33.35 66.64 32.56 67.49 31.78 C 65.88 30.79 64.49 27.84 62.34 28.84 C 61.75 29.09 60.57 29.59 59.98 29.84 C 59.88 29.49 59.67 28.80 59.57 28.45 C 59.11 28.34 58.20 28.11 57.74 28.00 C 59.45 26.46 60.43 24.35 60.40 22.04 C 59.06 22.22 57.72 22.40 56.38 22.59 C 55.69 21.76 55.01 20.93 54.32 20.10 C 54.39 22.01 54.42 23.93 54.44 25.85 C 55.46 26.22 56.48 26.59 57.49 26.97 C 56.97 27.35 55.92 28.10 55.40 28.48 C 55.53 28.86 55.80 29.63 55.94 30.01 C 55.95 30.24 55.98 30.69 55.99 30.92 L 56.01 31.71 L 56.00 33.50 C 53.88 33.56 51.84 32.99 49.90 32.18 C 51.31 31.17 52.68 30.10 54.04 29.03 C 52.42 29.65 50.85 30.42 49.43 31.44 L 48.41 30.15 C 44.96 26.85 45.45 21.75 47.94 18.04 C 49.58 15.86 49.91 13.21 50.03 10.57 C 50.26 10.22 50.72 9.50 50.95 9.15 M 51.30 16.07 C 50.98 16.54 50.35 17.48 50.04 17.95 L 50.05 17.97 C 49.76 18.65 49.18 20.02 48.89 20.71 C 47.37 23.44 46.57 27.28 49.84 29.14 C 49.71 28.47 49.46 27.12 49.33 26.45 C 50.11 26.47 50.89 26.53 51.67 26.62 C 51.70 24.89 51.82 23.15 51.73 21.41 C 52.44 20.17 53.16 18.94 53.84 17.68 C 56.02 19.46 58.49 20.91 61.27 21.48 C 61.03 20.43 60.55 18.33 60.31 17.28 C 61.53 17.86 62.77 18.41 64.01 18.94 C 62.48 13.83 55.86 12.23 51.94 15.70 C 51.92 14.01 51.82 12.32 51.65 10.63 C 50.77 12.32 51.30 14.26 51.30 16.07 Z" />
<path fill="#8a6f5c" opacity="1.00" d=" M 85.96 10.83 C 87.14 9.08 89.14 11.83 90.56 12.29 C 90.50 13.88 90.49 15.48 90.48 17.07 C 90.08 18.04 89.65 19.00 89.34 20.01 C 89.63 21.87 91.54 22.87 92.72 24.17 C 91.95 26.31 92.18 29.13 90.41 30.75 C 88.54 30.45 88.56 28.48 88.15 27.04 C 87.57 23.41 85.27 20.44 84.06 17.03 C 84.09 16.22 84.16 14.58 84.19 13.77 C 84.43 14.48 84.90 15.91 85.13 16.62 C 87.32 15.25 86.76 12.87 85.96 10.83 Z" />
<path fill="#fff8c1" opacity="1.00" d=" M 44.33 18.56 C 44.78 15.13 46.24 11.36 50.03 10.57 C 49.91 13.21 49.58 15.86 47.94 18.04 C 45.45 21.75 44.96 26.85 48.41 30.15 C 46.04 31.89 43.70 33.67 41.15 35.15 C 41.15 29.44 43.59 24.16 44.33 18.56 Z" />
<path fill="#aecba6" opacity="1.00" d=" M 51.30 16.07 C 51.30 14.26 50.77 12.32 51.65 10.63 C 51.82 12.32 51.92 14.01 51.94 15.70 C 55.86 12.23 62.48 13.83 64.01 18.94 C 62.77 18.41 61.53 17.86 60.31 17.28 C 60.55 18.33 61.03 20.43 61.27 21.48 C 58.49 20.91 56.02 19.46 53.84 17.68 C 53.16 18.94 52.44 20.17 51.73 21.41 C 51.20 20.25 50.64 19.10 50.05 17.97 L 50.04 17.95 C 50.35 17.48 50.98 16.54 51.30 16.07 Z" />
<path fill="#bea56d" opacity="1.00" d=" M 84.19 13.77 C 84.48 12.65 85.07 11.67 85.96 10.83 C 86.76 12.87 87.32 15.25 85.13 16.62 C 84.90 15.91 84.43 14.48 84.19 13.77 Z" />
<path fill="#f3fdfe" opacity="1.00" d=" M 0.00 12.82 C 3.27 17.07 8.57 19.42 11.16 24.22 C 7.44 24.38 3.72 24.32 0.00 24.15 L 0.00 21.83 C 2.01 21.86 4.03 21.90 6.04 21.94 C 3.96 20.36 1.87 18.76 0.00 16.92 L 0.00 12.82 Z" />
<path fill="#b99b66" opacity="1.00" d=" M 90.48 17.07 C 90.49 15.48 90.50 13.88 90.56 12.29 C 93.41 14.10 96.25 15.97 99.35 17.34 C 98.82 18.75 97.78 19.75 96.58 20.58 C 96.03 22.43 95.50 24.29 95.03 26.16 C 95.32 23.97 94.76 21.84 93.89 19.85 C 93.47 21.28 93.08 22.72 92.72 24.17 C 91.54 22.87 89.63 21.87 89.34 20.01 C 89.65 19.00 90.08 18.04 90.48 17.07 Z" />
<path fill="#86c6f3" opacity="0.96" d=" M 27.40 12.80 C 28.81 16.42 28.72 20.35 29.48 24.12 C 30.14 27.14 29.46 30.17 28.72 33.10 C 22.91 28.11 23.70 18.87 27.40 12.80 Z" />
<path fill="#90705b" opacity="1.00" d=" M 99.28 14.06 C 100.50 14.29 101.72 14.48 102.94 14.66 C 103.39 17.51 104.41 20.23 105.89 22.71 C 104.87 24.11 103.53 25.22 102.13 26.23 C 102.25 23.31 102.82 20.29 101.85 17.44 C 101.47 17.65 100.70 18.07 100.31 18.28 C 99.09 21.75 98.91 25.52 97.85 29.07 L 98.65 29.37 C 97.56 30.11 96.36 30.66 95.19 31.24 C 94.71 29.58 94.50 27.85 95.03 26.16 C 95.50 24.29 96.03 22.43 96.58 20.58 C 97.78 19.75 98.82 18.75 99.35 17.34 L 99.97 16.90 C 100.69 16.03 100.46 15.08 99.28 14.06 Z" />
<path fill="#86caf5" opacity="0.96" d=" M 0.00 16.92 C 1.87 18.76 3.96 20.36 6.04 21.94 C 4.03 21.90 2.01 21.86 0.00 21.83 L 0.00 16.92 Z" />
<path fill="#d1b87d" opacity="1.00" d=" M 84.06 17.03 C 85.27 20.44 87.57 23.41 88.15 27.04 C 88.56 28.48 88.54 30.45 90.41 30.75 C 92.18 29.13 91.95 26.31 92.72 24.17 C 93.08 22.72 93.47 21.28 93.89 19.85 C 94.76 21.84 95.32 23.97 95.03 26.16 C 94.50 27.85 94.71 29.58 95.19 31.24 C 94.06 31.76 93.21 32.66 92.39 33.56 C 88.75 31.19 84.81 29.34 80.75 27.82 C 80.92 25.90 81.07 23.97 81.25 22.05 C 82.94 22.39 84.64 22.69 86.35 22.96 C 84.87 21.52 82.94 20.78 81.07 20.02 C 82.07 19.04 83.04 18.01 84.06 17.03 Z" />
<path fill="#141e2e" opacity="1.00" d=" M 100.31 18.28 C 100.70 18.07 101.47 17.65 101.85 17.44 C 102.82 20.29 102.25 23.31 102.13 26.23 C 100.86 27.14 99.78 28.29 98.65 29.37 L 97.85 29.07 C 98.91 25.52 99.09 21.75 100.31 18.28 Z" />
<path fill="#2e4e88" opacity="1.00" d=" M 33.17 23.39 C 34.68 22.05 36.05 20.56 37.25 18.93 C 35.16 23.13 37.26 27.52 38.48 31.62 C 39.08 33.00 39.15 35.27 41.15 35.15 C 43.70 33.67 46.04 31.89 48.41 30.15 L 49.43 31.44 C 47.39 33.79 45.13 35.95 42.44 37.55 C 38.40 40.03 35.12 43.50 32.33 47.30 C 31.67 47.31 31.00 47.29 30.34 47.24 C 33.04 43.78 36.13 40.65 39.17 37.48 C 36.56 38.25 34.02 39.26 31.49 40.27 C 32.49 37.33 31.41 34.57 28.72 33.10 C 29.46 30.17 30.14 27.14 29.48 24.12 L 31.74 23.87 C 31.99 23.84 32.50 23.76 32.75 23.72 C 32.85 23.64 33.06 23.48 33.17 23.39 M 33.64 27.04 C 32.91 28.83 30.35 30.94 31.97 32.91 C 33.40 34.35 34.84 37.17 37.26 36.33 C 35.79 33.34 34.87 30.13 33.64 27.04 Z" />
<path fill="#b9d6b3" opacity="1.00" d=" M 48.89 20.71 C 49.18 20.02 49.76 18.65 50.05 17.97 C 50.64 19.10 51.20 20.25 51.73 21.41 C 51.82 23.15 51.70 24.89 51.67 26.62 C 50.89 26.53 50.11 26.47 49.33 26.45 C 49.13 24.54 48.99 22.62 48.89 20.71 Z" />
<path fill="#fef9d8" opacity="1.00" d=" M 54.32 20.10 C 55.01 20.93 55.69 21.76 56.38 22.59 C 57.72 22.40 59.06 22.22 60.40 22.04 C 60.43 24.35 59.45 26.46 57.74 28.00 C 57.29 28.50 56.39 29.51 55.94 30.01 C 55.80 29.63 55.53 28.86 55.40 28.48 C 55.92 28.10 56.97 27.35 57.49 26.97 C 56.48 26.59 55.46 26.22 54.44 25.85 C 54.42 23.93 54.39 22.01 54.32 20.10 Z" />
<path fill="#a7c59e" opacity="1.00" d=" M 62.34 20.91 C 63.96 20.45 65.59 20.02 67.23 19.63 C 70.06 19.65 72.90 19.72 75.70 20.11 C 74.20 20.74 72.64 21.23 71.07 21.66 L 71.13 22.14 C 71.18 22.50 71.27 23.22 71.32 23.58 C 69.77 22.22 67.96 21.33 65.86 21.21 L 66.50 22.96 C 73.30 27.53 81.44 29.48 88.44 33.70 C 91.80 35.61 94.64 38.26 97.41 40.92 C 96.85 41.08 95.74 41.40 95.18 41.56 C 98.31 45.46 97.72 50.52 97.50 55.17 C 96.74 54.05 95.87 53.02 95.14 51.89 C 94.88 55.83 93.81 59.65 91.89 63.09 C 91.47 63.25 90.62 63.57 90.20 63.73 C 90.83 58.68 90.75 53.44 88.84 48.65 C 84.51 40.84 74.35 40.17 67.91 34.75 C 68.24 33.59 68.63 32.45 68.84 31.27 C 68.05 29.74 66.93 28.43 65.86 27.11 C 64.68 26.75 62.93 27.22 62.13 26.10 C 62.99 24.79 66.54 26.03 64.79 22.74 C 63.99 22.11 63.17 21.49 62.34 20.91 Z" />
<path fill="#b0fefe" opacity="1.00" d=" M 49.84 29.14 C 46.57 27.28 47.37 23.44 48.89 20.71 C 48.99 22.62 49.13 24.54 49.33 26.45 C 49.46 27.12 49.71 28.47 49.84 29.14 Z" />
<path fill="#e4cb89" opacity="1.00" d=" M 71.13 22.14 C 73.69 21.85 76.27 21.66 78.85 21.54 C 78.80 23.34 78.76 25.14 78.72 26.94 C 76.25 25.85 73.59 25.09 71.32 23.58 C 71.27 23.22 71.18 22.50 71.13 22.14 Z" />
<path fill="#59faff" opacity="1.00" d=" M 103.37 30.41 C 105.95 27.37 108.77 24.52 111.00 21.20 L 111.00 41.28 C 108.85 37.51 104.36 40.29 101.41 41.36 C 99.17 39.14 96.83 37.02 94.34 35.08 C 97.41 33.71 101.13 33.15 103.37 30.41 Z" />
<path fill="#8bfdff" opacity="1.00" d=" M 0.00 24.15 C 3.72 24.32 7.44 24.38 11.16 24.22 C 15.39 23.72 19.15 25.95 22.08 28.79 C 22.11 28.32 22.18 27.37 22.21 26.90 C 23.67 31.70 26.82 35.68 30.81 38.65 C 29.64 39.35 28.47 40.06 27.30 40.76 C 21.27 44.02 17.48 49.92 13.64 55.37 C 12.95 55.49 11.58 55.73 10.90 55.85 C 10.48 54.86 10.07 53.87 9.66 52.89 C 11.14 50.44 12.80 48.11 14.21 45.63 C 11.82 46.23 9.83 47.68 8.08 49.35 C 6.00 48.31 3.93 47.26 1.88 46.19 C 3.50 45.26 4.66 43.79 5.40 42.10 C 3.59 42.46 1.78 42.88 0.00 43.38 L 0.00 36.00 C 4.69 35.15 11.19 35.34 13.18 30.00 C 8.45 30.09 3.63 29.17 0.00 25.92 L 0.00 24.15 Z" />
<path fill="#ffffff" opacity="1.00" d=" M 0.00 25.92 C 3.63 29.17 8.45 30.09 13.18 30.00 C 11.19 35.34 4.69 35.15 0.00 36.00 L 0.00 33.59 C 2.37 33.31 4.74 33.03 7.11 32.72 C 4.74 31.46 2.32 30.27 0.00 28.91 L 0.00 25.92 Z" />
<path fill="#ffffcf" opacity="1.00" d=" M 33.64 27.04 C 34.87 30.13 35.79 33.34 37.26 36.33 C 34.84 37.17 33.40 34.35 31.97 32.91 C 30.35 30.94 32.91 28.83 33.64 27.04 Z" />
<path fill="#838a94" opacity="1.00" d=" M 57.74 28.00 C 58.20 28.11 59.11 28.34 59.57 28.45 C 59.67 28.80 59.88 29.49 59.98 29.84 L 59.32 30.33 C 58.08 29.97 56.97 30.16 55.99 30.92 C 55.98 30.69 55.95 30.24 55.94 30.01 C 56.39 29.51 57.29 28.50 57.74 28.00 Z" />
<path fill="#668190" opacity="1.00" d=" M 62.34 28.84 C 64.49 27.84 65.88 30.79 67.49 31.78 C 66.64 32.56 65.82 33.35 65.01 34.16 C 63.51 34.01 62.01 33.87 60.52 33.73 C 61.46 32.23 61.92 30.53 62.34 28.84 Z" />
<path fill="#9cdbf7" opacity="1.00" d=" M 0.00 28.91 C 2.32 30.27 4.74 31.46 7.11 32.72 C 4.74 33.03 2.37 33.31 0.00 33.59 L 0.00 28.91 Z" />
<path fill="#e4fcf4" opacity="1.00" d=" M 49.43 31.44 C 50.85 30.42 52.42 29.65 54.04 29.03 C 52.68 30.10 51.31 31.17 49.90 32.18 C 51.84 32.99 53.88 33.56 56.00 33.50 C 56.98 33.49 57.97 33.47 58.96 33.45 C 56.28 33.70 53.32 33.34 51.05 35.09 C 50.47 34.55 49.93 33.96 49.35 33.42 C 49.09 33.76 48.56 34.46 48.29 34.80 C 47.03 35.72 45.79 36.67 44.63 37.71 C 41.79 40.15 38.72 42.33 36.11 45.03 C 35.00 46.00 34.01 47.50 32.33 47.30 C 35.12 43.50 38.40 40.03 42.44 37.55 C 45.13 35.95 47.39 33.79 49.43 31.44 Z" />
<path fill="#64aec6" opacity="1.00" d=" M 59.98 29.84 C 60.57 29.59 61.75 29.09 62.34 28.84 C 61.92 30.53 61.46 32.23 60.52 33.73 L 60.12 33.69 C 59.77 32.41 59.72 31.13 59.98 29.84 Z" />
<path fill="#d7d7d2" opacity="1.00" d=" M 55.99 30.92 C 56.97 30.16 58.08 29.97 59.32 30.33 C 58.52 31.20 57.30 32.70 56.01 31.71 L 55.99 30.92 Z" />
<path fill="#3d6290" opacity="1.00" d=" M 59.32 30.33 L 59.98 29.84 C 59.72 31.13 59.77 32.41 60.12 33.69 L 60.52 33.73 C 62.01 33.87 63.51 34.01 65.01 34.16 C 64.89 34.58 64.66 35.43 64.54 35.85 C 62.77 34.56 60.60 35.50 58.63 35.65 C 58.46 35.41 58.13 34.95 57.96 34.72 C 57.02 35.63 56.09 36.55 55.11 37.43 C 53.78 37.75 52.45 38.05 51.11 38.33 C 49.00 37.65 48.13 41.03 50.71 40.03 C 53.36 39.74 55.74 41.00 57.98 42.21 C 58.45 41.88 59.40 41.21 59.87 40.88 C 60.82 42.57 62.04 44.14 62.70 45.98 C 61.61 46.16 59.42 46.52 58.32 46.71 C 57.64 46.02 56.97 45.32 56.30 44.62 C 57.21 44.63 59.03 44.64 59.94 44.64 C 58.22 44.24 56.51 43.84 54.79 43.43 C 54.38 44.02 53.98 44.60 53.57 45.18 C 54.63 45.75 55.68 46.33 56.73 46.92 C 55.26 46.97 53.98 47.45 52.88 48.37 C 56.22 48.01 59.60 47.70 62.94 48.27 C 63.92 48.74 64.88 49.25 65.81 49.80 C 64.83 50.59 63.84 51.39 62.80 52.11 C 60.48 50.74 58.25 48.45 55.30 49.55 C 54.24 49.77 53.18 50.01 52.12 50.26 L 52.03 48.74 C 52.05 46.14 50.85 44.04 48.17 43.58 C 47.74 45.24 47.32 46.90 46.85 48.55 L 45.98 48.96 C 45.94 48.50 45.86 47.58 45.82 47.12 C 45.68 46.67 45.38 45.77 45.23 45.31 C 45.87 44.44 46.51 43.58 47.15 42.71 C 46.33 41.62 45.53 40.53 44.74 39.42 C 44.71 38.99 44.66 38.14 44.63 37.71 C 45.79 36.67 47.03 35.72 48.29 34.80 C 48.56 34.46 49.09 33.76 49.35 33.42 C 49.93 33.96 50.47 34.55 51.05 35.09 C 53.32 33.34 56.28 33.70 58.96 33.45 C 57.97 33.47 56.98 33.49 56.00 33.50 L 56.01 31.71 C 57.30 32.70 58.52 31.20 59.32 30.33 M 46.47 38.97 C 47.78 39.74 49.73 37.72 48.91 36.43 C 47.66 36.02 46.12 37.77 46.47 38.97 M 51.40 36.04 C 51.33 39.28 54.57 34.72 51.40 36.04 Z" />
<path fill="#243d66" opacity="1.00" d=" M 55.11 37.43 C 56.09 36.55 57.02 35.63 57.96 34.72 C 58.13 34.95 58.46 35.41 58.63 35.65 L 59.54 36.93 C 61.54 37.15 63.54 36.96 65.54 36.79 L 65.74 36.98 C 65.13 38.64 64.54 40.30 63.94 41.97 C 66.51 43.73 67.83 46.44 68.70 49.34 C 70.25 50.50 72.13 51.09 73.86 51.94 C 79.66 57.29 84.26 64.32 85.56 72.21 C 88.03 70.48 90.24 68.43 92.42 66.35 C 92.78 67.86 93.25 69.34 93.62 70.85 C 93.95 70.37 94.61 69.39 94.94 68.91 C 95.67 69.54 96.39 70.19 97.10 70.84 C 96.97 71.08 96.70 71.57 96.56 71.81 C 94.62 70.65 92.79 73.88 90.91 74.48 C 91.09 73.24 91.28 72.01 91.48 70.77 C 90.78 71.32 90.08 71.86 89.38 72.40 C 88.17 73.32 86.95 74.22 85.87 75.29 C 84.66 77.61 83.80 80.09 83.11 82.61 C 83.55 82.79 84.44 83.14 84.88 83.32 C 86.84 84.11 88.78 84.95 90.63 85.99 C 91.56 86.60 92.48 87.22 93.39 87.86 L 92.38 88.43 C 93.31 89.39 94.25 90.35 95.19 91.31 C 94.02 91.45 92.86 91.60 91.69 91.77 L 91.43 91.80 C 90.32 91.02 89.21 90.23 88.10 89.45 C 85.86 93.07 83.53 96.67 81.85 100.59 C 81.33 99.68 80.30 97.85 79.79 96.94 C 81.70 93.83 83.41 90.58 85.66 87.69 C 84.26 86.94 82.79 86.32 81.21 86.11 C 80.67 85.10 80.15 84.08 79.64 83.06 C 83.14 80.23 83.01 75.06 82.76 70.97 C 80.80 61.68 73.42 54.86 65.81 49.80 C 64.88 49.25 63.92 48.74 62.94 48.27 C 62.88 47.70 62.76 46.55 62.70 45.98 C 62.04 44.14 60.82 42.57 59.87 40.88 C 59.91 40.40 59.98 39.43 60.02 38.94 C 58.73 37.59 56.91 37.26 55.11 37.43 M 61.41 37.86 C 61.38 39.36 61.37 40.86 61.39 42.36 C 63.67 41.72 63.87 38.41 61.41 37.86 M 64.19 44.43 C 63.19 45.63 64.18 48.10 65.89 47.74 C 67.73 47.03 65.63 43.78 64.19 44.43 Z" />
<path fill="#ada68f" opacity="1.00" d=" M 58.63 35.65 C 60.60 35.50 62.77 34.56 64.54 35.85 L 65.54 36.79 C 63.54 36.96 61.54 37.15 59.54 36.93 L 58.63 35.65 Z" />
<path fill="#c6c2aa" opacity="1.00" d=" M 46.47 38.97 C 46.12 37.77 47.66 36.02 48.91 36.43 C 49.73 37.72 47.78 39.74 46.47 38.97 Z" />
<path fill="#919d99" opacity="1.00" d=" M 51.40 36.04 C 54.57 34.72 51.33 39.28 51.40 36.04 Z" />
<path fill="#cdbe9e" opacity="1.00" d=" M 55.11 37.43 C 56.91 37.26 58.73 37.59 60.02 38.94 C 59.98 39.43 59.91 40.40 59.87 40.88 C 59.40 41.21 58.45 41.88 57.98 42.21 C 55.74 41.00 53.36 39.74 50.71 40.03 C 50.81 39.61 51.01 38.75 51.11 38.33 C 52.45 38.05 53.78 37.75 55.11 37.43 Z" />
<path fill="#3f6791" opacity="1.00" d=" M 65.74 36.98 C 69.52 40.50 72.54 47.08 78.59 46.31 L 78.75 46.38 C 80.15 47.81 81.46 49.32 82.80 50.80 C 79.90 50.54 76.98 50.30 74.07 50.47 C 74.02 50.84 73.92 51.57 73.86 51.94 C 72.13 51.09 70.25 50.50 68.70 49.34 C 67.83 46.44 66.51 43.73 63.94 41.97 C 64.54 40.30 65.13 38.64 65.74 36.98 Z" />
<path fill="#b0fefe" opacity="1.00" d=" M 68.12 36.97 C 70.43 38.39 72.67 39.94 75.15 41.06 C 75.20 41.97 75.25 42.89 75.29 43.80 C 72.61 41.85 70.13 39.62 68.12 36.97 Z" />
<path fill="#b9ded2" opacity="1.00" d=" M 31.49 40.27 C 34.02 39.26 36.56 38.25 39.17 37.48 C 36.13 40.65 33.04 43.78 30.34 47.24 C 29.36 48.11 28.35 48.94 27.35 49.78 C 27.48 48.42 27.60 47.07 27.67 45.71 C 27.51 45.15 27.20 44.03 27.04 43.48 C 28.21 42.52 29.35 41.52 30.47 40.51 C 30.73 40.45 31.23 40.33 31.49 40.27 Z" />
<path fill="#77bdd2" opacity="1.00" d=" M 36.11 45.03 C 38.72 42.33 41.79 40.15 44.63 37.71 C 44.66 38.14 44.71 38.99 44.74 39.42 C 42.33 43.32 39.15 46.69 36.95 50.72 C 38.59 49.70 40.25 48.71 41.93 47.75 C 41.02 49.31 40.07 50.85 39.13 52.40 C 36.22 52.87 33.32 53.37 30.42 53.86 C 28.03 54.23 25.63 54.54 23.23 54.84 C 23.71 53.88 24.19 52.92 24.66 51.96 C 22.89 53.00 21.14 54.07 19.37 55.12 C 19.59 54.65 20.02 53.71 20.24 53.24 C 22.14 50.21 24.95 47.96 27.67 45.71 C 27.60 47.07 27.48 48.42 27.35 49.78 C 28.35 48.94 29.36 48.11 30.34 47.24 C 31.00 47.29 31.67 47.31 32.33 47.30 C 34.01 47.50 35.00 46.00 36.11 45.03 Z" />
<path fill="#d8e4e1" opacity="1.00" d=" M 50.71 40.03 C 48.13 41.03 49.00 37.65 51.11 38.33 C 51.01 38.75 50.81 39.61 50.71 40.03 Z" />
<path fill="#fef9d8" opacity="1.00" d=" M 61.41 37.86 C 63.87 38.41 63.67 41.72 61.39 42.36 C 61.37 40.86 61.38 39.36 61.41 37.86 Z" />
<path fill="#ffffff" opacity="1.00" d=" M 101.41 41.36 C 104.36 40.29 108.85 37.51 111.00 41.28 L 111.00 52.03 L 110.09 50.69 C 109.51 47.88 108.98 45.06 108.40 42.26 C 106.58 42.51 104.76 42.79 102.95 43.10 C 102.56 42.66 101.80 41.79 101.41 41.36 Z" />
<path fill="#5389b8" opacity="1.00" d=" M 36.95 50.72 C 39.15 46.69 42.33 43.32 44.74 39.42 C 45.53 40.53 46.33 41.62 47.15 42.71 C 46.51 43.58 45.87 44.44 45.23 45.31 C 45.38 45.77 45.68 46.67 45.82 47.12 C 44.71 47.29 44.24 48.02 44.39 49.30 C 43.83 51.78 41.19 51.99 39.13 52.40 C 40.07 50.85 41.02 49.31 41.93 47.75 C 40.25 48.71 38.59 49.70 36.95 50.72 Z" />
<path fill="#4e84d6" opacity="1.00" d=" M 13.64 55.37 C 17.48 49.92 21.27 44.02 27.30 40.76 C 28.10 40.70 29.68 40.57 30.47 40.51 C 29.35 41.52 28.21 42.52 27.04 43.48 C 22.93 46.76 18.47 50.28 16.93 55.56 C 17.76 54.98 19.41 53.82 20.24 53.24 C 20.02 53.71 19.59 54.65 19.37 55.12 C 21.14 54.07 22.89 53.00 24.66 51.96 C 24.19 52.92 23.71 53.88 23.23 54.84 C 25.63 54.54 28.03 54.23 30.42 53.86 L 30.12 55.22 C 28.80 55.63 27.48 56.02 26.15 56.41 C 29.09 62.14 33.61 66.84 38.45 71.00 C 40.18 72.47 41.94 73.92 43.58 75.49 C 43.43 77.81 43.45 80.13 43.68 82.44 C 44.98 83.93 46.21 85.48 47.38 87.06 C 41.57 85.62 37.13 81.47 32.85 77.53 C 30.01 74.18 28.18 70.08 24.95 67.05 C 22.56 64.75 21.10 61.74 19.74 58.77 C 17.88 61.80 16.30 65.00 14.66 68.16 C 12.70 65.74 12.53 62.63 12.57 59.64 C 11.32 60.73 10.02 61.76 8.80 62.90 C 9.85 61.27 10.80 59.58 11.79 57.92 C 12.41 57.07 13.03 56.22 13.64 55.37 M 24.86 59.12 C 24.92 63.52 27.87 67.30 30.12 70.92 C 33.29 75.27 36.52 80.04 41.45 82.54 C 35.12 75.58 28.73 68.31 25.61 59.24 L 24.86 59.12 Z" />
<path fill="#a3c3a3" opacity="1.00" d=" M 75.15 41.06 C 80.11 43.14 85.37 45.38 88.62 49.90 C 88.50 50.50 88.26 51.71 88.14 52.32 C 84.86 50.55 82.40 47.45 78.75 46.38 L 78.59 46.31 C 77.47 45.50 76.38 44.65 75.29 43.80 C 75.25 42.89 75.20 41.97 75.15 41.06 Z" />
<path fill="#4c7687" opacity="1.00" d=" M 97.41 40.92 C 101.50 44.83 105.10 50.05 104.87 55.95 C 104.88 60.91 102.14 65.40 98.91 68.98 C 98.77 66.96 98.67 64.93 98.55 62.91 C 97.34 64.90 96.19 66.94 94.94 68.91 C 94.61 69.39 93.95 70.37 93.62 70.85 C 93.25 69.34 92.78 67.86 92.42 66.35 C 92.82 65.98 93.22 65.61 93.62 65.23 C 93.05 64.52 92.47 63.81 91.89 63.09 C 93.81 59.65 94.88 55.83 95.14 51.89 C 95.87 53.02 96.74 54.05 97.50 55.17 C 97.72 50.52 98.31 45.46 95.18 41.56 C 95.74 41.40 96.85 41.08 97.41 40.92 Z" />
<path fill="#ecffff" opacity="1.00" d=" M 0.00 43.38 C 1.78 42.88 3.59 42.46 5.40 42.10 C 4.66 43.79 3.50 45.26 1.88 46.19 C 1.41 46.48 0.47 47.07 0.00 47.36 L 0.00 43.38 Z" />
<path fill="#65979b" opacity="1.00" d=" M 102.95 43.10 C 104.76 42.79 106.58 42.51 108.40 42.26 C 108.98 45.06 109.51 47.88 110.09 50.69 C 110.14 52.67 110.16 54.66 110.18 56.65 C 107.57 56.60 107.69 53.82 107.03 51.99 C 106.14 48.83 104.54 45.94 102.95 43.10 Z" />
<path fill="#cdbe9e" opacity="1.00" d=" M 54.79 43.43 C 56.51 43.84 58.22 44.24 59.94 44.64 C 59.03 44.64 57.21 44.63 56.30 44.62 C 56.97 45.32 57.64 46.02 58.32 46.71 C 59.42 46.52 61.61 46.16 62.70 45.98 C 62.76 46.55 62.88 47.70 62.94 48.27 C 59.60 47.70 56.22 48.01 52.88 48.37 C 53.98 47.45 55.26 46.97 56.73 46.92 C 55.68 46.33 54.63 45.75 53.57 45.18 C 53.98 44.60 54.38 44.02 54.79 43.43 Z" />
<path fill="#b0fefe" opacity="1.00" d=" M 16.93 55.56 C 18.47 50.28 22.93 46.76 27.04 43.48 C 27.20 44.03 27.51 45.15 27.67 45.71 C 24.95 47.96 22.14 50.21 20.24 53.24 C 19.41 53.82 17.76 54.98 16.93 55.56 Z" />
<path fill="#d6d0c2" opacity="1.00" d=" M 48.17 43.58 C 50.85 44.04 52.05 46.14 52.03 48.74 C 49.64 51.55 47.39 54.48 44.95 57.25 C 45.46 54.32 46.11 51.43 46.85 48.55 C 47.32 46.90 47.74 45.24 48.17 43.58 Z" />
<path fill="#7f7e86" opacity="1.00" d=" M 64.19 44.43 C 65.63 43.78 67.73 47.03 65.89 47.74 C 64.18 48.10 63.19 45.63 64.19 44.43 Z" />
<path fill="#b0fefe" opacity="1.00" d=" M 0.00 47.36 C 0.47 47.07 1.41 46.48 1.88 46.19 C 3.93 47.26 6.00 48.31 8.08 49.35 C 5.54 51.70 2.76 53.74 0.00 55.80 L 0.00 47.36 Z" />
<path fill="#ffffff" opacity="1.00" d=" M 8.08 49.35 C 9.83 47.68 11.82 46.23 14.21 45.63 C 12.80 48.11 11.14 50.44 9.66 52.89 C 7.44 56.99 4.73 60.92 3.68 65.54 C 7.01 63.62 8.16 59.43 11.79 57.92 C 10.80 59.58 9.85 61.27 8.80 62.90 C 6.49 66.32 3.69 69.43 0.00 71.40 L 0.00 66.81 C 2.19 62.63 4.58 58.53 6.16 54.06 C 4.19 55.59 2.11 56.96 0.00 58.30 L 0.00 55.80 C 2.76 53.74 5.54 51.70 8.08 49.35 Z" />
<path fill="#548396" opacity="1.00" d=" M 78.75 46.38 C 82.40 47.45 84.86 50.55 88.14 52.32 C 88.26 51.71 88.50 50.50 88.62 49.90 C 88.68 49.59 88.79 48.96 88.84 48.65 C 90.75 53.44 90.83 58.68 90.20 63.73 C 90.62 63.57 91.47 63.25 91.89 63.09 C 92.47 63.81 93.05 64.52 93.62 65.23 C 93.22 65.61 92.82 65.98 92.42 66.35 C 90.24 68.43 88.03 70.48 85.56 72.21 C 84.26 64.32 79.66 57.29 73.86 51.94 C 73.92 51.57 74.02 50.84 74.07 50.47 C 76.98 50.30 79.90 50.54 82.80 50.80 C 81.46 49.32 80.15 47.81 78.75 46.38 Z" />
<path fill="#91aeba" opacity="1.00" d=" M 44.39 49.30 C 44.24 48.02 44.71 47.29 45.82 47.12 C 45.86 47.58 45.94 48.50 45.98 48.96 C 45.59 49.04 44.79 49.21 44.39 49.30 Z" />
<path fill="#375ea3" opacity="1.00" d=" M 44.39 49.30 C 44.79 49.21 45.59 49.04 45.98 48.96 L 46.85 48.55 C 46.11 51.43 45.46 54.32 44.95 57.25 C 47.39 54.48 49.64 51.55 52.03 48.74 L 52.12 50.26 C 49.99 53.95 46.92 56.96 44.42 60.39 C 44.10 60.37 43.48 60.32 43.16 60.29 C 43.40 58.14 43.62 56.00 43.84 53.85 C 41.61 54.35 39.39 54.87 37.16 55.36 C 34.87 54.56 32.44 54.56 30.12 55.22 L 30.42 53.86 C 33.32 53.37 36.22 52.87 39.13 52.40 C 41.19 51.99 43.83 51.78 44.39 49.30 Z" />
<path fill="#557394" opacity="1.00" d=" M 55.30 49.55 C 58.25 48.45 60.48 50.74 62.80 52.11 C 63.84 51.39 64.83 50.59 65.81 49.80 C 73.42 54.86 80.80 61.68 82.76 70.97 C 83.01 75.06 83.14 80.23 79.64 83.06 C 76.54 84.79 74.46 87.68 72.05 90.19 L 70.94 90.43 C 68.47 86.85 68.71 82.35 67.76 78.29 C 67.13 75.02 64.98 72.30 64.38 69.03 C 63.37 61.73 58.31 56.04 55.30 49.55 Z" />
<path fill="#5e82aa" opacity="1.00" d=" M 52.12 50.26 C 53.18 50.01 54.24 49.77 55.30 49.55 C 58.31 56.04 63.37 61.73 64.38 69.03 C 64.98 72.30 67.13 75.02 67.76 78.29 C 68.71 82.35 68.47 86.85 70.94 90.43 C 68.64 90.30 66.35 90.06 64.08 89.64 C 60.28 88.28 56.66 86.47 53.14 84.49 C 53.66 84.13 54.70 83.42 55.22 83.07 C 57.78 79.84 60.75 76.37 60.93 72.04 C 61.14 68.37 61.10 64.55 59.75 61.08 C 58.68 58.15 55.51 56.08 52.40 56.50 C 50.11 57.78 48.41 59.86 46.39 61.50 C 45.22 62.38 43.98 63.17 42.75 63.96 L 42.87 62.78 C 42.94 62.16 43.09 60.91 43.16 60.29 C 43.48 60.32 44.10 60.37 44.42 60.39 C 46.92 56.96 49.99 53.95 52.12 50.26 Z" />
<path fill="#b9ded2" opacity="1.00" d=" M 110.09 50.69 L 111.00 52.03 L 111.00 57.41 C 109.77 59.06 108.36 60.65 106.46 61.55 C 108.02 58.59 107.83 55.13 107.03 51.99 C 107.69 53.82 107.57 56.60 110.18 56.65 C 110.16 54.66 110.14 52.67 110.09 50.69 Z" />
<path fill="#c5fefd" opacity="1.00" d=" M 3.68 65.54 C 4.73 60.92 7.44 56.99 9.66 52.89 C 10.07 53.87 10.48 54.86 10.90 55.85 C 11.58 55.73 12.95 55.49 13.64 55.37 C 13.03 56.22 12.41 57.07 11.79 57.92 C 8.16 59.43 7.01 63.62 3.68 65.54 Z" />
<path fill="#a0f2fb" opacity="1.00" d=" M 0.00 58.30 C 2.11 56.96 4.19 55.59 6.16 54.06 C 4.58 58.53 2.19 62.63 0.00 66.81 L 0.00 58.30 Z" />
<path fill="#88b9d2" opacity="1.00" d=" M 37.16 55.36 C 39.39 54.87 41.61 54.35 43.84 53.85 C 43.62 56.00 43.40 58.14 43.16 60.29 C 43.09 60.91 42.94 62.16 42.87 62.78 C 41.08 65.34 39.44 68.02 38.45 71.00 C 33.61 66.84 29.09 62.14 26.15 56.41 C 27.48 56.02 28.80 55.63 30.12 55.22 C 32.44 54.56 34.87 54.56 37.16 55.36 Z" />
<path fill="#7da6bc" opacity="1.00" d=" M 52.40 56.50 C 55.51 56.08 58.68 58.15 59.75 61.08 C 61.10 64.55 61.14 68.37 60.93 72.04 C 60.75 76.37 57.78 79.84 55.22 83.07 C 52.84 78.42 52.15 73.10 49.48 68.59 C 48.21 66.33 47.26 63.93 46.39 61.50 C 48.41 59.86 50.11 57.78 52.40 56.50 Z" />
<path fill="#487e96" opacity="1.00" d=" M 106.46 61.55 C 108.36 60.65 109.77 59.06 111.00 57.41 L 111.00 61.46 C 106.77 66.22 101.62 70.54 99.54 76.78 C 100.90 76.67 102.27 76.55 103.63 76.44 C 101.38 79.48 98.80 82.25 96.24 85.03 L 96.17 83.52 C 94.31 84.33 92.47 85.16 90.63 85.99 C 88.78 84.95 86.84 84.11 84.88 83.32 C 88.54 80.28 92.14 77.15 95.41 73.69 C 96.59 73.72 97.88 73.71 98.73 72.75 C 102.41 69.89 104.30 65.54 106.46 61.55 Z" />
<path fill="#9ff6fc" opacity="1.00" d=" M 14.66 68.16 C 16.30 65.00 17.88 61.80 19.74 58.77 C 21.10 61.74 22.56 64.75 24.95 67.05 C 28.18 70.08 30.01 74.18 32.85 77.53 C 33.09 82.60 32.87 87.65 33.29 92.71 C 30.64 89.17 28.16 85.52 25.79 81.80 C 24.87 83.07 24.46 84.48 24.56 86.05 C 24.66 93.62 26.38 101.05 27.68 108.48 C 22.82 107.61 17.94 106.79 13.13 105.67 C 10.59 105.01 8.06 104.30 5.50 103.71 C 6.44 106.25 7.53 108.76 9.07 111.00 L 0.00 111.00 L 0.00 71.40 C 3.69 69.43 6.49 66.32 8.80 62.90 C 10.02 61.76 11.32 60.73 12.57 59.64 C 12.53 62.63 12.70 65.74 14.66 68.16 Z" />
<path fill="#46a6f2" opacity="1.00" d=" M 24.86 59.12 L 25.61 59.24 C 28.73 68.31 35.12 75.58 41.45 82.54 C 36.52 80.04 33.29 75.27 30.12 70.92 C 27.87 67.30 24.92 63.52 24.86 59.12 Z" />
<path fill="#85b3cb" opacity="1.00" d=" M 42.75 63.96 C 43.98 63.17 45.22 62.38 46.39 61.50 C 47.26 63.93 48.21 66.33 49.48 68.59 C 52.15 73.10 52.84 78.42 55.22 83.07 C 54.70 83.42 53.66 84.13 53.14 84.49 C 49.28 82.27 46.76 78.50 43.58 75.49 C 41.94 73.92 40.18 72.47 38.45 71.00 C 39.44 68.02 41.08 65.34 42.87 62.78 L 42.75 63.96 Z" />
<path fill="#325e81" opacity="1.00" d=" M 99.54 76.78 C 101.62 70.54 106.77 66.22 111.00 61.46 L 111.00 66.71 C 108.60 70.00 106.09 73.20 103.63 76.44 C 102.27 76.55 100.90 76.67 99.54 76.78 Z" />
<path fill="#1a2b46" opacity="1.00" d=" M 103.63 76.44 C 106.09 73.20 108.60 70.00 111.00 66.71 L 111.00 74.21 C 106.13 79.54 102.45 85.88 97.12 90.79 C 102.37 88.66 106.46 84.57 111.00 81.29 L 111.00 86.63 C 107.92 89.00 104.67 91.15 101.49 93.38 C 103.01 94.62 104.54 95.86 106.04 97.14 C 107.75 98.61 109.42 100.12 111.00 101.74 L 111.00 108.66 C 108.85 106.28 106.55 104.05 104.21 101.86 C 102.15 99.98 100.07 98.11 97.92 96.33 L 97.57 96.14 C 96.85 96.12 95.39 96.06 94.67 96.03 C 94.57 95.47 94.38 94.34 94.28 93.78 C 93.43 93.10 92.56 92.43 91.69 91.77 C 92.86 91.60 94.02 91.45 95.19 91.31 C 94.25 90.35 93.31 89.39 92.38 88.43 L 93.39 87.86 C 93.61 87.73 94.05 87.47 94.27 87.34 C 94.94 86.59 95.60 85.82 96.24 85.03 C 98.80 82.25 101.38 79.48 103.63 76.44 Z" />
<path fill="#679aac" opacity="1.00" d=" M 89.38 72.40 C 90.08 71.86 90.78 71.32 91.48 70.77 C 91.28 72.01 91.09 73.24 90.91 74.48 C 92.79 73.88 94.62 70.65 96.56 71.81 L 95.41 73.69 C 92.14 77.15 88.54 80.28 84.88 83.32 C 84.44 83.14 83.55 82.79 83.11 82.61 C 83.80 80.09 84.66 77.61 85.87 75.29 C 85.87 75.80 85.88 76.82 85.88 77.33 C 87.53 76.19 91.80 74.90 89.38 72.40 Z" />
<path fill="#80b7b6" opacity="1.00" d=" M 85.87 75.29 C 86.95 74.22 88.17 73.32 89.38 72.40 C 91.80 74.90 87.53 76.19 85.88 77.33 C 85.88 76.82 85.87 75.80 85.87 75.29 Z" />
<path fill="#fff5a5" opacity="1.00" d=" M 97.12 90.79 C 102.45 85.88 106.13 79.54 111.00 74.21 L 111.00 81.29 C 106.46 84.57 102.37 88.66 97.12 90.79 Z" />
<path fill="#3f6bb3" opacity="1.00" d=" M 43.68 82.44 C 43.45 80.13 43.43 77.81 43.58 75.49 C 46.76 78.50 49.28 82.27 53.14 84.49 C 56.66 86.47 60.28 88.28 64.08 89.64 C 63.45 89.96 62.20 90.60 61.57 90.92 C 60.80 90.63 60.03 90.34 59.26 90.06 C 58.78 94.23 61.49 98.69 58.18 102.25 C 56.59 104.00 55.10 105.86 54.01 107.98 C 56.23 107.36 57.73 105.60 59.18 103.95 C 60.04 102.98 60.89 102.01 61.76 101.05 C 62.45 102.22 63.14 103.40 63.84 104.57 C 61.96 106.72 60.15 108.92 58.19 111.00 L 53.60 111.00 C 52.02 109.35 50.30 107.84 48.28 106.76 C 47.39 106.26 46.50 105.78 45.60 105.30 C 45.06 105.03 43.96 104.49 43.41 104.21 C 45.82 102.32 48.47 104.14 50.91 104.92 C 50.81 101.32 46.63 98.35 49.44 94.87 C 48.12 92.79 47.32 90.47 48.14 88.03 C 47.95 87.79 47.57 87.30 47.38 87.06 C 46.21 85.48 44.98 83.93 43.68 82.44 M 48.02 83.94 C 47.55 85.60 48.10 86.21 49.68 85.77 C 50.15 84.11 49.59 83.50 48.02 83.94 M 51.42 86.08 C 51.95 88.61 50.12 92.60 53.27 93.77 L 53.26 93.89 C 54.12 94.37 54.98 94.85 55.83 95.33 C 56.49 93.55 58.58 91.66 57.43 89.70 C 56.77 88.30 54.96 88.34 53.73 87.82 L 53.77 87.33 C 52.98 86.91 52.20 86.49 51.42 86.08 M 52.22 94.77 C 50.97 96.56 49.58 98.44 50.28 100.75 C 52.20 100.64 54.12 100.48 56.04 100.31 C 55.72 97.92 54.40 95.85 52.22 94.77 M 57.02 95.97 C 56.54 97.64 57.08 98.25 58.66 97.78 C 59.13 96.11 58.59 95.51 57.02 95.97 M 50.95 101.37 C 51.53 103.01 52.18 104.62 52.90 106.21 C 54.24 104.90 55.23 103.30 55.83 101.52 C 54.61 101.48 52.17 101.41 50.95 101.37 Z" />
<path fill="#98e1f6" opacity="1.00" d=" M 32.85 77.53 C 37.13 81.47 41.57 85.62 47.38 87.06 C 47.57 87.30 47.95 87.79 48.14 88.03 C 47.32 90.47 48.12 92.79 49.44 94.87 C 46.63 98.35 50.81 101.32 50.91 104.92 C 48.47 104.14 45.82 102.32 43.41 104.21 C 43.11 104.35 42.49 104.62 42.19 104.75 C 39.08 100.84 35.96 96.94 33.29 92.71 C 32.87 87.65 33.09 82.60 32.85 77.53 Z" />
<path fill="#5087e5" opacity="1.00" d=" M 24.56 86.05 C 24.46 84.48 24.87 83.07 25.79 81.80 C 28.16 85.52 30.64 89.17 33.29 92.71 C 35.96 96.94 39.08 100.84 42.19 104.75 C 42.49 104.62 43.11 104.35 43.41 104.21 C 43.96 104.49 45.06 105.03 45.60 105.30 C 44.45 106.51 43.26 107.67 42.10 108.87 C 36.15 103.11 32.85 95.28 27.40 89.09 C 28.54 96.44 29.33 103.93 31.80 111.00 L 24.45 111.00 C 20.07 110.02 15.67 109.14 11.32 108.02 C 11.40 107.58 11.55 106.70 11.63 106.26 C 12.01 106.11 12.75 105.82 13.13 105.67 C 17.94 106.79 22.82 107.61 27.68 108.48 C 26.38 101.05 24.66 93.62 24.56 86.05 Z" />
<path fill="#2d4d7e" opacity="1.00" d=" M 72.05 90.19 C 74.46 87.68 76.54 84.79 79.64 83.06 C 80.15 84.08 80.67 85.10 81.21 86.11 C 78.80 89.11 76.08 91.86 73.35 94.56 C 72.42 93.59 71.50 92.62 70.57 91.66 C 71.06 91.17 71.56 90.68 72.05 90.19 Z" />
<path fill="#9db7cb" opacity="1.00" d=" M 48.02 83.94 C 49.59 83.50 50.15 84.11 49.68 85.77 C 48.10 86.21 47.55 85.60 48.02 83.94 Z" />
<path fill="#b9ded2" opacity="1.00" d=" M 90.63 85.99 C 92.47 85.16 94.31 84.33 96.17 83.52 L 96.24 85.03 C 95.60 85.82 94.94 86.59 94.27 87.34 C 94.05 87.47 93.61 87.73 93.39 87.86 C 92.48 87.22 91.56 86.60 90.63 85.99 Z" />
<path fill="#fffbda" opacity="1.00" d=" M 51.42 86.08 C 52.20 86.49 52.98 86.91 53.77 87.33 L 53.73 87.82 C 53.59 89.80 53.44 91.79 53.27 93.77 C 50.12 92.60 51.95 88.61 51.42 86.08 Z" />
<path fill="#fdf5c3" opacity="1.00" d=" M 81.21 86.11 C 82.79 86.32 84.26 86.94 85.66 87.69 C 83.41 90.58 81.70 93.83 79.79 96.94 C 79.48 97.29 78.85 97.98 78.53 98.33 C 78.36 103.80 73.69 107.07 70.58 111.00 L 64.80 111.00 C 67.48 107.37 70.13 103.66 71.99 99.51 C 71.24 99.35 69.74 99.01 68.99 98.85 C 70.39 97.37 71.87 95.96 73.35 94.56 C 76.08 91.86 78.80 89.11 81.21 86.11 Z" />
<path fill="#fff5a6" opacity="1.00" d=" M 101.49 93.38 C 104.67 91.15 107.92 89.00 111.00 86.63 L 111.00 92.80 C 109.41 94.31 107.71 95.72 106.04 97.14 C 104.54 95.86 103.01 94.62 101.49 93.38 Z" />
<path fill="#b4b5bd" opacity="1.00" d=" M 53.73 87.82 C 54.96 88.34 56.77 88.30 57.43 89.70 C 58.58 91.66 56.49 93.55 55.83 95.33 C 54.98 94.85 54.12 94.37 53.26 93.89 L 53.27 93.77 C 53.44 91.79 53.59 89.80 53.73 87.82 Z" />
<path fill="#e4fcf4" opacity="1.00" d=" M 27.40 89.09 C 32.85 95.28 36.15 103.11 42.10 108.87 C 43.26 107.67 44.45 106.51 45.60 105.30 C 46.50 105.78 47.39 106.26 48.28 106.76 C 46.90 107.63 45.43 108.33 43.93 108.95 C 43.64 109.46 43.06 110.49 42.78 111.00 L 36.77 111.00 C 35.39 108.83 33.95 106.68 32.15 104.83 C 32.65 106.92 33.27 108.99 34.05 111.00 L 31.80 111.00 C 29.33 103.93 28.54 96.44 27.40 89.09 Z" />
<path fill="#79b9ca" opacity="1.00" d=" M 59.26 90.06 C 60.03 90.34 60.80 90.63 61.57 90.92 C 62.85 91.44 64.13 92.00 65.40 92.56 C 65.84 93.49 66.29 94.43 66.74 95.37 C 65.11 97.29 63.45 99.18 61.76 101.05 C 60.89 102.01 60.04 102.98 59.18 103.95 C 58.93 103.52 58.43 102.67 58.18 102.25 C 61.49 98.69 58.78 94.23 59.26 90.06 Z" />
<path fill="#355991" opacity="1.00" d=" M 61.57 90.92 C 62.20 90.60 63.45 89.96 64.08 89.64 C 66.35 90.06 68.64 90.30 70.94 90.43 L 72.05 90.19 C 71.56 90.68 71.06 91.17 70.57 91.66 C 71.50 92.62 72.42 93.59 73.35 94.56 C 71.87 95.96 70.39 97.37 68.99 98.85 C 67.24 100.72 65.53 102.64 63.84 104.57 C 63.14 103.40 62.45 102.22 61.76 101.05 C 63.45 99.18 65.11 97.29 66.74 95.37 C 66.29 94.43 65.84 93.49 65.40 92.56 C 64.13 92.00 62.85 91.44 61.57 90.92 Z" />
<path fill="#fdf5ba" opacity="1.00" d=" M 81.85 100.59 C 83.53 96.67 85.86 93.07 88.10 89.45 C 89.21 90.23 90.32 91.02 91.43 91.80 C 90.95 92.18 89.98 92.93 89.50 93.31 C 89.10 95.43 88.93 97.74 87.48 99.47 C 84.91 102.70 82.70 106.21 80.03 109.35 C 78.74 109.63 77.43 109.38 76.14 109.30 C 78.68 106.85 81.28 104.24 81.85 100.59 Z" />
<path fill="#ceb792" opacity="1.00" d=" M 91.43 91.80 L 91.69 91.77 C 92.56 92.43 93.43 93.10 94.28 93.78 C 94.38 94.34 94.57 95.47 94.67 96.03 C 95.39 96.06 96.85 96.12 97.57 96.14 L 97.92 96.33 C 96.05 96.80 93.88 96.94 92.64 98.64 C 89.18 102.57 85.82 106.62 82.93 111.00 L 74.26 111.00 C 74.90 110.45 75.52 109.88 76.14 109.30 C 77.43 109.38 78.74 109.63 80.03 109.35 C 82.70 106.21 84.91 102.70 87.48 99.47 C 88.93 97.74 89.10 95.43 89.50 93.31 C 89.98 92.93 90.95 92.18 91.43 91.80 Z" />
<path fill="#e4cb75" opacity="1.00" d=" M 106.04 97.14 C 107.71 95.72 109.41 94.31 111.00 92.80 L 111.00 101.74 C 109.42 100.12 107.75 98.61 106.04 97.14 Z" />
<path fill="#e5dbc9" opacity="1.00" d=" M 52.22 94.77 C 54.40 95.85 55.72 97.92 56.04 100.31 C 54.12 100.48 52.20 100.64 50.28 100.75 C 49.58 98.44 50.97 96.56 52.22 94.77 Z" />
<path fill="#809eb7" opacity="1.00" d=" M 57.02 95.97 C 58.59 95.51 59.13 96.11 58.66 97.78 C 57.08 98.25 56.54 97.64 57.02 95.97 Z" />
<path fill="#fcf2b0" opacity="1.00" d=" M 92.64 98.64 C 93.88 96.94 96.05 96.80 97.92 96.33 C 100.07 98.11 102.15 99.98 104.21 101.86 C 103.74 102.98 103.27 104.10 102.80 105.21 C 103.86 107.20 104.96 109.16 106.26 111.00 L 82.93 111.00 C 85.82 106.62 89.18 102.57 92.64 98.64 Z" />
<path fill="#244477" opacity="1.00" d=" M 78.53 98.33 C 78.85 97.98 79.48 97.29 79.79 96.94 C 80.30 97.85 81.33 99.68 81.85 100.59 C 81.28 104.24 78.68 106.85 76.14 109.30 C 75.52 109.88 74.90 110.45 74.26 111.00 L 70.58 111.00 C 73.69 107.07 78.36 103.80 78.53 98.33 Z" />
<path fill="#ffffe7" opacity="1.00" d=" M 68.99 98.85 C 69.74 99.01 71.24 99.35 71.99 99.51 C 70.13 103.66 67.48 107.37 64.80 111.00 L 58.19 111.00 C 60.15 108.92 61.96 106.72 63.84 104.57 C 65.53 102.64 67.24 100.72 68.99 98.85 Z" />
<path fill="#e6ddc9" opacity="1.00" d=" M 50.95 101.37 C 52.17 101.41 54.61 101.48 55.83 101.52 C 55.23 103.30 54.24 104.90 52.90 106.21 C 52.18 104.62 51.53 103.01 50.95 101.37 Z" />
<path fill="#e1c572" opacity="1.00" d=" M 104.21 101.86 C 106.55 104.05 108.85 106.28 111.00 108.66 L 111.00 111.00 L 106.26 111.00 C 104.96 109.16 103.86 107.20 102.80 105.21 C 103.27 104.10 103.74 102.98 104.21 101.86 Z" />
<path fill="#96d4d5" opacity="1.00" d=" M 54.01 107.98 C 55.10 105.86 56.59 104.00 58.18 102.25 C 58.43 102.67 58.93 103.52 59.18 103.95 C 57.73 105.60 56.23 107.36 54.01 107.98 Z" />
<path fill="#5a96f8" opacity="1.00" d=" M 5.50 103.71 C 8.06 104.30 10.59 105.01 13.13 105.67 C 12.75 105.82 12.01 106.11 11.63 106.26 C 11.55 106.70 11.40 107.58 11.32 108.02 C 11.31 108.26 11.31 108.74 11.30 108.97 C 11.53 109.48 11.99 110.49 12.22 111.00 L 9.07 111.00 C 7.53 108.76 6.44 106.25 5.50 103.71 Z" />
<path fill="#9cebec" opacity="1.00" d=" M 32.15 104.83 C 33.95 106.68 35.39 108.83 36.77 111.00 L 34.05 111.00 C 33.27 108.99 32.65 106.92 32.15 104.83 Z" />
<path fill="#85cddc" opacity="1.00" d=" M 48.28 106.76 C 50.30 107.84 52.02 109.35 53.60 111.00 L 42.78 111.00 C 43.06 110.49 43.64 109.46 43.93 108.95 C 45.43 108.33 46.90 107.63 48.28 106.76 Z" />
<path fill="#fffffb" opacity="1.00" d=" M 11.30 108.97 C 11.31 108.74 11.31 108.26 11.32 108.02 C 15.67 109.14 20.07 110.02 24.45 111.00 L 12.22 111.00 C 11.99 110.49 11.53 109.48 11.30 108.97 Z" />
</svg>
