<?xml version="1.0" encoding="UTF-8" ?>
<!DOCTYPE svg PUBLIC "-//W3C//DTD SVG 1.1//EN" "http://www.w3.org/Graphics/SVG/1.1/DTD/svg11.dtd">
<svg width="111pt" height="111pt" viewBox="0 0 111 111" version="1.1" xmlns="http://www.w3.org/2000/svg">
<path fill="#000000" opacity="1.00" d=" M 9.31 0.00 L 14.19 0.00 C 18.28 9.53 23.01 18.76 27.56 28.07 C 27.30 18.11 29.03 7.38 36.33 0.00 L 41.54 0.00 C 37.48 7.27 35.34 15.66 35.68 23.99 C 38.82 21.67 41.71 19.06 44.78 16.65 C 49.00 13.38 53.93 11.20 59.02 9.68 C 62.11 10.49 65.14 11.50 68.08 12.76 C 68.99 8.40 70.16 4.06 72.02 0.00 L 74.09 0.00 C 73.66 1.51 73.28 3.03 72.90 4.55 C 73.52 4.48 74.74 4.33 75.35 4.26 C 75.32 4.75 75.26 5.73 75.23 6.22 C 73.30 10.88 70.76 15.39 70.14 20.47 C 74.95 14.20 77.94 6.79 81.91 0.00 L 85.06 0.00 C 82.20 6.05 78.64 11.73 75.77 17.77 C 82.66 21.73 88.08 27.75 92.87 34.00 C 97.24 40.65 104.66 44.14 111.00 48.57 L 111.00 52.93 C 107.85 49.78 104.07 47.39 100.37 44.94 C 99.33 44.23 98.32 43.46 97.33 42.68 C 96.23 41.79 95.14 40.89 94.01 40.03 C 90.35 37.50 87.44 34.12 84.60 30.74 C 81.46 26.88 78.40 22.65 73.84 20.36 C 71.43 21.05 69.46 22.80 67.26 23.95 C 67.22 21.17 67.35 18.40 67.47 15.63 C 64.38 14.81 61.25 13.38 58.01 13.82 C 52.55 15.45 47.81 18.78 43.34 22.22 C 41.27 23.84 39.15 25.41 37.00 26.92 C 36.39 26.79 35.18 26.53 34.57 26.40 C 31.55 18.62 34.99 10.66 36.72 3.04 C 34.10 7.31 31.89 11.84 30.64 16.71 C 28.52 21.44 28.17 26.64 29.49 31.65 C 29.05 31.61 28.18 31.53 27.74 31.49 C 27.18 30.79 26.64 30.09 26.11 29.37 C 20.58 20.41 16.87 10.48 12.40 0.98 C 13.40 10.46 17.28 19.23 20.62 28.05 C 21.86 31.35 23.90 34.27 25.05 37.60 C 24.80 38.03 24.31 38.90 24.06 39.33 C 22.47 42.02 21.06 44.82 19.86 47.71 C 19.14 49.64 18.19 51.69 18.69 53.80 C 19.30 55.64 20.94 56.85 22.38 58.02 C 27.86 60.98 34.27 61.33 40.15 59.40 C 37.67 55.48 34.19 52.26 32.19 48.03 C 31.50 46.17 30.81 44.30 30.23 42.40 C 30.69 41.68 31.63 40.24 32.10 39.52 C 33.66 44.17 35.57 48.70 37.79 53.07 C 38.61 54.77 39.67 56.36 41.15 57.56 C 43.69 59.42 45.53 62.93 49.09 62.77 C 52.58 62.81 56.81 63.36 59.44 60.56 C 61.28 58.82 63.15 57.03 64.42 54.82 C 64.30 52.41 63.44 50.13 62.81 47.83 C 62.11 45.92 61.14 44.13 60.19 42.34 L 59.66 41.23 C 63.26 40.78 65.32 44.36 67.90 46.22 C 67.36 40.80 64.90 35.76 61.49 31.56 C 58.26 27.01 53.18 24.35 49.71 20.06 C 53.47 20.81 56.52 23.28 59.36 25.72 C 60.85 27.27 62.22 28.93 63.49 30.67 C 66.59 35.26 69.88 40.37 69.50 46.15 C 69.49 46.84 69.47 48.23 69.46 48.92 C 67.71 48.09 65.96 47.27 64.23 46.42 C 64.61 47.88 65.00 49.34 65.38 50.80 C 66.30 50.67 68.13 50.42 69.05 50.29 C 68.28 52.66 67.48 55.08 65.94 57.08 C 61.33 62.47 54.88 66.42 51.70 72.92 C 49.60 76.57 50.58 80.84 52.01 84.53 C 53.96 80.11 55.11 75.15 58.56 71.57 C 65.09 64.73 74.18 61.31 81.54 55.55 C 83.09 54.14 85.33 52.39 84.44 50.00 C 83.27 46.04 80.78 42.64 78.35 39.36 C 77.32 38.00 76.26 36.67 75.18 35.34 C 74.15 34.06 73.10 32.79 72.05 31.53 C 70.96 30.22 69.85 28.93 68.72 27.67 C 68.42 27.33 67.82 26.66 67.52 26.32 L 67.34 24.75 C 73.35 28.91 79.68 33.23 83.58 39.56 C 84.68 41.92 85.74 44.29 86.72 46.70 C 87.51 49.15 87.61 51.94 86.06 54.13 C 83.37 58.02 79.00 60.21 75.28 62.98 C 77.48 64.32 79.69 65.65 81.92 66.95 C 88.76 63.99 95.29 59.22 103.04 59.33 C 100.68 62.57 97.28 64.73 93.97 66.88 C 97.86 66.19 101.75 65.47 105.58 64.47 C 107.40 63.87 109.20 63.18 111.00 62.50 L 111.00 65.20 C 104.77 67.28 98.67 70.16 92.00 70.50 C 88.49 70.53 85.15 71.64 82.02 73.16 C 81.70 73.29 81.06 73.56 80.74 73.70 C 80.35 74.35 79.57 75.64 79.18 76.29 C 82.25 79.62 87.02 80.74 91.15 78.73 C 92.57 79.64 93.86 82.56 95.78 80.92 C 98.90 78.94 102.13 76.98 105.90 76.55 C 107.64 77.82 109.39 79.10 111.00 80.55 L 111.00 88.45 C 109.11 84.58 107.15 80.39 103.08 78.38 C 102.17 79.24 101.26 80.10 100.37 81.00 C 97.57 83.94 94.75 87.04 93.22 90.86 C 91.87 94.16 89.86 97.17 88.85 100.60 C 88.13 103.52 87.73 106.50 87.20 109.45 C 87.00 109.84 86.58 110.61 86.38 111.00 L 83.48 111.00 C 83.60 108.39 83.72 105.78 83.84 103.17 C 81.40 103.54 78.95 103.90 76.50 104.26 C 76.51 101.14 76.80 98.03 77.29 94.95 C 74.24 92.60 71.19 90.07 67.44 88.92 C 66.47 93.41 66.83 98.02 66.31 102.56 C 64.55 99.93 63.05 97.14 61.64 94.31 C 61.08 94.33 59.97 94.36 59.41 94.38 C 59.07 96.42 57.52 98.87 59.06 100.76 C 61.85 104.20 64.87 107.46 67.54 111.00 L 64.59 111.00 C 62.56 108.57 60.45 106.20 58.13 104.04 C 57.73 106.57 56.90 109.03 55.22 111.00 L 41.15 111.00 C 41.56 109.87 41.95 108.72 42.33 107.58 C 40.84 107.88 39.36 108.20 37.89 108.52 C 37.55 109.14 36.88 110.38 36.55 111.00 L 26.67 111.00 C 26.18 109.65 25.69 108.31 25.20 106.96 C 23.95 108.32 22.71 109.69 21.39 111.00 L 18.08 111.00 C 19.42 109.62 20.76 108.18 21.57 106.43 C 21.32 103.74 19.67 101.41 18.40 99.09 C 17.73 98.26 17.06 97.44 16.36 96.65 C 14.36 94.10 12.44 91.49 10.47 88.92 C 6.59 91.87 3.28 95.47 0.00 99.04 L 0.00 93.75 C 3.13 91.01 6.21 87.84 10.19 86.39 C 12.21 85.60 13.55 87.20 14.59 88.67 C 16.67 91.35 18.79 94.00 20.91 96.65 C 22.11 94.53 23.37 92.46 24.65 90.39 C 25.71 91.55 26.77 92.72 27.82 93.89 C 30.26 92.78 32.64 91.56 34.97 90.22 C 33.89 88.49 32.71 86.81 31.88 84.93 C 31.20 81.89 32.25 79.02 34.03 76.58 C 34.43 75.78 35.24 74.18 35.65 73.38 C 36.56 73.53 37.46 73.73 38.36 73.92 L 38.36 71.15 C 37.28 71.34 36.19 71.51 35.09 71.60 C 35.68 69.59 36.56 67.67 37.69 65.91 C 38.29 67.61 38.88 69.31 39.46 71.02 C 41.15 69.87 42.84 68.70 44.63 67.70 C 48.04 68.09 52.19 69.53 54.35 65.82 C 50.64 65.01 46.61 64.91 43.36 62.70 C 41.41 60.78 38.86 61.55 36.61 62.40 C 35.09 65.58 33.27 68.63 30.96 71.30 C 21.45 76.36 10.14 74.48 0.00 77.42 L 0.00 74.54 C 8.34 72.37 17.29 73.33 25.38 70.20 C 28.35 69.13 30.84 67.07 32.78 64.62 C 33.23 63.94 33.65 63.23 34.08 62.54 C 31.27 62.45 28.46 62.44 25.66 62.22 C 21.39 60.71 15.86 58.35 15.78 53.03 C 16.42 47.10 19.71 41.92 22.78 36.96 C 15.77 25.71 12.04 12.86 9.31 0.00 M 84.73 67.72 C 83.82 68.22 83.21 68.99 82.90 70.02 C 87.22 69.51 90.39 66.17 94.09 64.20 C 90.66 64.30 87.63 66.06 84.73 67.72 M 67.03 69.26 C 65.79 69.73 64.54 70.20 63.29 70.65 C 63.38 71.01 63.55 71.73 63.64 72.09 C 60.55 73.80 58.50 76.83 56.52 79.66 C 56.55 80.75 56.56 81.83 56.57 82.92 C 60.30 75.82 67.73 71.56 74.26 67.32 C 71.65 66.85 69.05 67.55 67.03 69.26 M 42.59 70.58 C 41.92 71.51 41.32 72.47 40.79 73.48 C 43.29 73.19 45.39 71.81 47.30 70.27 C 45.79 70.31 43.80 69.22 42.59 70.58 M 67.25 74.65 L 67.93 75.42 L 66.27 75.67 C 64.96 78.06 62.83 79.78 60.63 81.30 C 60.83 83.61 61.26 85.91 62.06 88.09 C 62.11 89.96 63.40 91.46 64.26 93.04 C 63.73 89.48 65.16 86.33 67.55 83.77 C 67.90 83.51 68.60 82.99 68.96 82.73 L 68.66 82.09 C 69.24 81.58 70.42 80.56 71.01 80.04 L 71.34 80.74 C 72.73 79.45 74.14 78.19 75.56 76.93 C 74.28 75.39 72.89 73.94 71.34 72.66 C 69.98 73.33 68.62 73.99 67.25 74.65 M 44.54 75.43 L 44.41 76.20 C 42.56 76.73 42.06 78.73 41.18 80.20 C 40.07 79.07 38.93 77.96 37.80 76.85 L 37.68 77.49 C 36.64 78.29 35.60 79.09 34.56 79.88 C 33.38 84.00 36.07 87.51 38.43 90.57 L 38.72 91.18 C 39.47 90.42 40.21 89.65 40.96 88.88 C 42.34 92.21 47.43 89.96 47.99 87.10 L 46.87 87.35 C 45.62 85.26 44.60 83.05 43.54 80.86 L 44.18 80.50 C 44.54 79.18 44.99 77.89 45.46 76.60 C 45.93 76.33 46.89 75.78 47.37 75.51 C 46.66 75.49 45.25 75.45 44.54 75.43 M 46.89 77.57 C 46.54 78.15 45.83 79.30 45.47 79.88 C 45.52 80.88 45.57 81.87 45.63 82.87 C 45.93 82.73 46.52 82.46 46.81 82.32 C 45.17 84.91 47.73 86.61 49.56 87.89 C 49.52 89.01 49.54 90.14 49.54 91.28 C 48.22 91.34 47.11 91.81 46.20 92.69 C 46.28 95.11 46.26 97.54 46.20 99.97 C 43.45 100.83 41.71 103.19 39.89 105.25 C 42.14 105.57 44.90 105.56 44.82 108.53 C 46.16 108.31 47.50 108.07 48.83 107.78 C 50.39 107.73 51.95 107.68 53.51 107.57 C 53.54 107.26 53.60 106.64 53.63 106.34 L 54.43 105.72 C 54.30 102.83 55.33 100.04 55.32 97.17 C 56.18 95.08 57.31 93.11 58.77 91.38 C 57.39 91.42 56.01 91.45 54.64 91.50 C 52.67 89.82 51.19 87.70 49.65 85.64 C 49.66 84.10 49.16 82.63 48.79 81.15 C 48.64 79.80 48.52 78.45 48.41 77.10 C 48.03 77.22 47.27 77.46 46.89 77.57 M 74.27 82.29 C 72.69 83.53 70.70 84.83 70.74 87.10 L 71.43 86.41 C 73.43 88.15 75.52 89.78 77.58 91.45 C 77.96 91.45 78.71 91.44 79.08 91.44 C 79.50 90.35 79.95 89.28 80.39 88.21 L 80.22 88.07 C 80.84 87.29 82.08 85.74 82.70 84.96 C 82.32 84.46 81.57 83.47 81.19 82.97 C 80.39 82.07 79.61 81.15 78.72 80.34 C 76.96 80.08 75.60 81.38 74.27 82.29 M 83.50 87.94 C 85.34 88.94 87.25 89.82 89.20 90.58 C 89.34 89.81 89.62 88.25 89.76 87.48 C 92.00 85.83 91.83 83.33 91.06 80.94 C 88.09 82.74 85.44 85.04 83.50 87.94 M 57.28 85.91 C 55.51 86.47 56.31 89.38 58.11 88.99 C 60.03 88.60 59.13 85.29 57.28 85.91 M 79.23 101.76 C 80.92 101.31 82.93 101.50 84.42 100.49 C 85.74 97.99 86.67 95.30 87.84 92.73 C 86.32 91.30 84.60 90.11 82.75 89.15 C 81.13 93.22 80.13 97.49 79.23 101.76 M 30.48 94.78 C 30.49 96.25 30.55 97.71 30.65 99.18 C 31.02 99.26 31.76 99.44 32.14 99.53 C 33.20 96.93 34.46 94.39 36.25 92.20 C 34.63 93.66 32.65 94.56 30.48 94.78 M 42.43 92.24 C 42.36 94.55 43.42 97.65 40.68 98.77 C 37.47 100.70 35.26 104.09 35.13 107.88 C 36.55 107.20 38.59 106.97 39.01 105.18 C 39.99 102.29 42.46 100.41 44.59 98.40 C 44.60 96.36 44.58 94.32 44.57 92.28 C 44.04 92.27 42.97 92.25 42.43 92.24 M 32.30 105.44 C 32.79 105.55 33.76 105.77 34.24 105.88 C 35.06 103.66 36.16 101.56 37.76 99.80 C 39.10 98.62 40.39 97.39 41.66 96.14 C 40.94 94.72 40.47 93.06 39.03 92.16 C 36.89 96.64 34.34 100.91 32.30 105.44 M 24.28 95.31 C 23.34 96.10 23.09 98.52 24.69 98.64 C 26.74 98.43 26.53 93.96 24.28 95.31 M 26.62 99.22 C 25.66 99.92 24.90 101.30 25.31 102.49 C 27.31 103.49 29.70 98.29 26.62 99.22 M 29.12 104.82 C 28.33 106.52 27.93 108.36 28.08 110.24 C 29.36 109.78 30.84 109.47 31.59 108.20 C 31.64 106.50 30.52 105.48 29.12 104.82 Z" />
<path fill="#242c22" opacity="1.00" d=" M 74.09 0.00 L 78.58 0.00 C 77.39 2.03 76.28 4.11 75.23 6.22 C 75.26 5.73 75.32 4.75 75.35 4.26 C 74.74 4.33 73.52 4.48 72.90 4.55 C 73.28 3.03 73.66 1.51 74.09 0.00 Z" />
<path fill="#4a6161" opacity="1.00" d=" M 78.58 0.00 L 81.91 0.00 C 77.94 6.79 74.95 14.20 70.14 20.47 C 70.76 15.39 73.30 10.88 75.23 6.22 C 76.28 4.11 77.39 2.03 78.58 0.00 Z" />
<path fill="#758f6d" opacity="1.00" d=" M 12.40 0.98 C 16.87 10.48 20.58 20.41 26.11 29.37 C 26.22 30.08 26.45 31.51 26.57 32.23 C 24.50 30.96 22.50 29.58 20.62 28.05 C 17.28 19.23 13.40 10.46 12.40 0.98 Z" />
<path fill="#a8ba9d" opacity="1.00" d=" M 30.64 16.71 C 31.89 11.84 34.10 7.31 36.72 3.04 C 34.99 10.66 31.55 18.62 34.57 26.40 C 35.18 26.53 36.39 26.79 37.00 26.92 C 39.15 25.41 41.27 23.84 43.34 22.22 C 46.06 25.62 43.15 30.21 44.35 34.15 C 44.56 33.56 44.97 32.38 45.18 31.79 C 45.36 36.53 46.37 41.22 46.21 45.97 C 44.96 47.30 42.95 47.12 41.31 47.52 C 37.00 43.25 34.06 37.91 30.54 33.03 C 30.14 27.59 30.12 22.13 30.64 16.71 M 35.29 36.78 C 36.12 38.32 37.10 39.77 38.20 41.13 C 39.38 39.61 40.41 37.96 41.18 36.20 C 39.21 36.19 37.23 36.34 35.29 36.78 Z" />
<path fill="#a0b29a" opacity="1.00" d=" M 43.34 22.22 C 47.81 18.78 52.55 15.45 58.01 13.82 C 61.25 13.38 64.38 14.81 67.47 15.63 C 67.35 18.40 67.22 21.17 67.26 23.95 C 67.28 24.15 67.32 24.55 67.34 24.75 L 67.52 26.32 C 67.04 25.84 66.08 24.88 65.59 24.40 C 65.43 24.76 65.12 25.49 64.96 25.85 C 63.09 25.80 61.23 25.76 59.36 25.72 C 56.52 23.28 53.47 20.81 49.71 20.06 C 53.18 24.35 58.26 27.01 61.49 31.56 C 61.51 33.61 61.53 35.66 61.54 37.71 C 54.87 37.66 50.25 32.35 45.22 28.74 C 45.21 29.50 45.19 31.03 45.18 31.79 C 44.97 32.38 44.56 33.56 44.35 34.15 C 43.15 30.21 46.06 25.62 43.34 22.22 Z" />
<path fill="#0e0c0a" opacity="1.00" d=" M 29.49 31.65 C 28.17 26.64 28.52 21.44 30.64 16.71 C 30.12 22.13 30.14 27.59 30.54 33.03 C 34.06 37.91 37.00 43.25 41.31 47.52 C 43.63 49.90 46.09 52.12 48.46 54.45 C 48.79 52.25 48.47 49.72 49.95 47.87 C 52.37 44.66 55.99 42.69 59.66 41.23 L 60.19 42.34 C 59.93 42.95 59.40 44.18 59.13 44.80 C 57.64 45.51 56.10 46.16 54.73 47.11 C 53.81 48.32 55.00 49.79 55.16 51.08 C 56.65 54.38 59.36 51.63 61.18 50.34 C 61.73 53.30 57.84 53.56 55.84 54.20 C 54.37 52.47 53.00 50.67 51.71 48.80 C 50.43 52.82 52.62 56.28 53.96 59.90 C 51.30 58.55 48.85 56.85 46.43 55.11 C 41.23 50.30 35.81 45.44 32.27 39.22 L 32.10 39.52 C 31.63 40.24 30.69 41.68 30.23 42.40 C 28.97 39.30 30.03 35.62 29.13 32.73 C 26.83 33.24 26.32 35.92 25.05 37.60 C 23.90 34.27 21.86 31.35 20.62 28.05 C 22.50 29.58 24.50 30.96 26.57 32.23 C 26.45 31.51 26.22 30.08 26.11 29.37 C 26.64 30.09 27.18 30.79 27.74 31.49 C 28.18 31.53 29.05 31.61 29.49 31.65 Z" />
<path fill="#95a796" opacity="1.00" d=" M 67.26 23.95 C 69.46 22.80 71.43 21.05 73.84 20.36 C 78.40 22.65 81.46 26.88 84.60 30.74 C 86.30 33.86 87.64 37.22 87.88 40.80 C 86.44 40.40 85.01 39.98 83.58 39.56 C 79.68 33.23 73.35 28.91 67.34 24.75 C 67.32 24.55 67.28 24.15 67.26 23.95 Z" />
<path fill="#c6d0b3" opacity="1.00" d=" M 64.96 25.85 C 65.12 25.49 65.43 24.76 65.59 24.40 C 66.08 24.88 67.04 25.84 67.52 26.32 C 67.82 26.66 68.42 27.33 68.72 27.67 C 67.88 27.97 67.04 28.27 66.20 28.57 C 66.01 28.98 65.63 29.81 65.45 30.22 C 64.96 30.33 63.98 30.56 63.49 30.67 C 62.22 28.93 60.85 27.27 59.36 25.72 C 61.23 25.76 63.09 25.80 64.96 25.85 Z" />
<path fill="#9cae99" opacity="1.00" d=" M 66.20 28.57 C 67.04 28.27 67.88 27.97 68.72 27.67 C 69.85 28.93 70.96 30.22 72.05 31.53 C 70.64 35.12 72.95 38.39 73.56 41.83 C 73.21 43.53 72.45 45.11 71.82 46.71 C 71.24 46.57 70.08 46.29 69.50 46.15 C 69.88 40.37 66.59 35.26 63.49 30.67 C 63.98 30.56 64.96 30.33 65.45 30.22 C 65.63 29.81 66.01 28.98 66.20 28.57 Z" />
<path fill="#5c7081" opacity="1.00" d=" M 45.22 28.74 C 50.25 32.35 54.87 37.66 61.54 37.71 C 61.53 35.66 61.51 33.61 61.49 31.56 C 64.90 35.76 67.36 40.80 67.90 46.22 C 65.32 44.36 63.26 40.78 59.66 41.23 C 55.99 42.69 52.37 44.66 49.95 47.87 C 48.47 49.72 48.79 52.25 48.46 54.45 C 46.09 52.12 43.63 49.90 41.31 47.52 C 42.95 47.12 44.96 47.30 46.21 45.97 C 46.37 41.22 45.36 36.53 45.18 31.79 C 45.19 31.03 45.21 29.50 45.22 28.74 Z" />
<path fill="#3d4a65" opacity="1.00" d=" M 84.60 30.74 C 87.44 34.12 90.35 37.50 94.01 40.03 C 92.94 39.70 91.87 39.39 90.79 39.09 C 90.41 41.79 90.20 44.51 90.18 47.23 C 89.02 47.06 87.87 46.88 86.72 46.70 C 85.74 44.29 84.68 41.92 83.58 39.56 C 85.01 39.98 86.44 40.40 87.88 40.80 C 87.64 37.22 86.30 33.86 84.60 30.74 Z" />
<path fill="#768a8b" opacity="1.00" d=" M 72.05 31.53 C 73.10 32.79 74.15 34.06 75.18 35.34 C 74.99 39.59 76.51 43.78 75.67 48.00 C 73.97 48.47 72.29 48.97 70.60 49.49 C 70.32 49.35 69.74 49.06 69.46 48.92 C 69.47 48.23 69.49 46.84 69.50 46.15 C 70.08 46.29 71.24 46.57 71.82 46.71 C 72.45 45.11 73.21 43.53 73.56 41.83 C 72.95 38.39 70.64 35.12 72.05 31.53 Z" />
<path fill="#a9bb9d" opacity="1.00" d=" M 25.05 37.60 C 26.32 35.92 26.83 33.24 29.13 32.73 C 30.03 35.62 28.97 39.30 30.23 42.40 C 30.81 44.30 31.50 46.17 32.19 48.03 C 32.13 48.51 32.02 49.46 31.96 49.93 C 28.48 51.16 24.88 52.02 21.32 52.97 C 21.67 54.65 22.04 56.33 22.38 58.02 C 20.94 56.85 19.30 55.64 18.69 53.80 C 18.19 51.69 19.14 49.64 19.86 47.71 C 22.12 47.59 24.65 46.99 25.67 44.72 C 25.89 42.79 24.68 41.08 24.06 39.33 C 24.31 38.90 24.80 38.03 25.05 37.60 Z" />
<path fill="#bfccad" opacity="1.00" d=" M 35.29 36.78 C 37.23 36.34 39.21 36.19 41.18 36.20 C 40.41 37.96 39.38 39.61 38.20 41.13 C 37.10 39.77 36.12 38.32 35.29 36.78 Z" />
<path fill="#566a7f" opacity="1.00" d=" M 75.18 35.34 C 76.26 36.67 77.32 38.00 78.35 39.36 C 78.52 42.28 78.86 45.19 79.37 48.07 C 76.43 52.49 71.58 54.91 67.96 58.65 C 67.29 58.13 66.61 57.61 65.94 57.08 C 67.48 55.08 68.28 52.66 69.05 50.29 C 68.13 50.42 66.30 50.67 65.38 50.80 C 65.00 49.34 64.61 47.88 64.23 46.42 C 65.96 47.27 67.71 48.09 69.46 48.92 C 69.74 49.06 70.32 49.35 70.60 49.49 C 72.29 48.97 73.97 48.47 75.67 48.00 C 76.51 43.78 74.99 39.59 75.18 35.34 Z" />
<path fill="#d89f7d" opacity="1.00" d=" M 32.27 39.22 C 35.81 45.44 41.23 50.30 46.43 55.11 C 45.95 55.20 44.99 55.36 44.51 55.44 C 42.54 53.94 40.45 52.19 37.79 53.07 C 35.57 48.70 33.66 44.17 32.10 39.52 L 32.27 39.22 Z" />
<path fill="#51667b" opacity="1.00" d=" M 90.79 39.09 C 91.87 39.39 92.94 39.70 94.01 40.03 C 95.14 40.89 96.23 41.79 97.33 42.68 C 95.69 43.03 94.05 43.37 92.42 43.71 C 92.50 45.79 92.61 47.88 92.94 49.94 C 92.06 49.00 91.12 48.12 90.18 47.23 C 90.20 44.51 90.41 41.79 90.79 39.09 Z" />
<path fill="#cad2b3" opacity="1.00" d=" M 24.06 39.33 C 24.68 41.08 25.89 42.79 25.67 44.72 C 24.65 46.99 22.12 47.59 19.86 47.71 C 21.06 44.82 22.47 42.02 24.06 39.33 Z" />
<path fill="#3a4765" opacity="1.00" d=" M 78.35 39.36 C 80.78 42.64 83.27 46.04 84.44 50.00 C 85.33 52.39 83.09 54.14 81.54 55.55 C 74.18 61.31 65.09 64.73 58.56 71.57 C 55.11 75.15 53.96 80.11 52.01 84.53 C 50.58 80.84 49.60 76.57 51.70 72.92 C 51.60 74.63 51.54 76.34 51.52 78.05 C 54.64 74.33 56.95 69.96 60.46 66.57 C 63.05 64.01 65.51 61.33 67.96 58.65 C 71.58 54.91 76.43 52.49 79.37 48.07 C 78.86 45.19 78.52 42.28 78.35 39.36 Z" />
<path fill="#96b2c0" opacity="1.00" d=" M 60.19 42.34 C 61.14 44.13 62.11 45.92 62.81 47.83 C 61.81 47.56 60.82 47.28 59.83 47.00 C 59.66 46.45 59.31 45.35 59.13 44.80 C 59.40 44.18 59.93 42.95 60.19 42.34 Z" />
<path fill="#778a8a" opacity="1.00" d=" M 92.42 43.71 C 94.05 43.37 95.69 43.03 97.33 42.68 C 98.32 43.46 99.33 44.23 100.37 44.94 C 99.03 46.03 97.48 46.93 96.41 48.33 C 95.85 50.80 96.90 53.31 97.52 55.68 C 95.96 53.79 94.47 51.85 92.94 49.94 C 92.61 47.88 92.50 45.79 92.42 43.71 Z" />
<path fill="#af8342" opacity="1.00" d=" M 54.73 47.11 C 56.10 46.16 57.64 45.51 59.13 44.80 C 59.31 45.35 59.66 46.45 59.83 47.00 L 60.04 47.55 C 58.25 48.48 56.43 49.46 55.16 51.08 C 55.00 49.79 53.81 48.32 54.73 47.11 Z" />
<path fill="#2c3456" opacity="1.00" d=" M 86.72 46.70 C 87.87 46.88 89.02 47.06 90.18 47.23 C 91.12 48.12 92.06 49.00 92.94 49.94 C 94.47 51.85 95.96 53.79 97.52 55.68 C 98.85 57.86 101.26 58.53 103.67 58.59 C 103.08 60.89 103.38 63.18 105.58 64.47 C 101.75 65.47 97.86 66.19 93.97 66.88 C 97.28 64.73 100.68 62.57 103.04 59.33 C 95.29 59.22 88.76 63.99 81.92 66.95 C 79.69 65.65 77.48 64.32 75.28 62.98 C 79.00 60.21 83.37 58.02 86.06 54.13 C 87.61 51.94 87.51 49.15 86.72 46.70 Z" />
<path fill="#8c9f92" opacity="1.00" d=" M 96.41 48.33 C 97.48 46.93 99.03 46.03 100.37 44.94 C 104.07 47.39 107.85 49.78 111.00 52.93 L 111.00 62.50 C 109.20 63.18 107.40 63.87 105.58 64.47 C 103.38 63.18 103.08 60.89 103.67 58.59 C 101.26 58.53 98.85 57.86 97.52 55.68 C 96.90 53.31 95.85 50.80 96.41 48.33 Z" />
<path fill="#f4e7d0" opacity="1.00" d=" M 59.83 47.00 C 60.82 47.28 61.81 47.56 62.81 47.83 C 63.44 50.13 64.30 52.41 64.42 54.82 C 63.15 57.03 61.28 58.82 59.44 60.56 C 56.81 63.36 52.58 62.81 49.09 62.77 C 45.53 62.93 43.69 59.42 41.15 57.56 C 41.63 57.60 42.60 57.67 43.09 57.70 C 44.71 58.41 46.30 59.22 48.04 59.62 C 46.92 58.18 45.75 56.78 44.51 55.44 C 44.99 55.36 45.95 55.20 46.43 55.11 C 48.85 56.85 51.30 58.55 53.96 59.90 C 52.62 56.28 50.43 52.82 51.71 48.80 C 53.00 50.67 54.37 52.47 55.84 54.20 C 57.84 53.56 61.73 53.30 61.18 50.34 C 60.90 49.64 60.32 48.25 60.04 47.55 L 59.83 47.00 Z" />
<path fill="#576b7f" opacity="1.00" d=" M 32.19 48.03 C 34.19 52.26 37.67 55.48 40.15 59.40 C 34.27 61.33 27.86 60.98 22.38 58.02 C 22.04 56.33 21.67 54.65 21.32 52.97 C 24.88 52.02 28.48 51.16 31.96 49.93 C 32.02 49.46 32.13 48.51 32.19 48.03 Z" />
<path fill="#e9d970" opacity="1.00" d=" M 55.16 51.08 C 56.43 49.46 58.25 48.48 60.04 47.55 C 60.32 48.25 60.90 49.64 61.18 50.34 C 59.36 51.63 56.65 54.38 55.16 51.08 Z" />
<path fill="#4a4437" opacity="1.00" d=" M 37.79 53.07 C 40.45 52.19 42.54 53.94 44.51 55.44 C 45.75 56.78 46.92 58.18 48.04 59.62 C 46.30 59.22 44.71 58.41 43.09 57.70 C 42.60 57.67 41.63 57.60 41.15 57.56 C 39.67 56.36 38.61 54.77 37.79 53.07 Z" />
<path fill="#acbfa1" opacity="1.00" d=" M 51.70 72.92 C 54.88 66.42 61.33 62.47 65.94 57.08 C 66.61 57.61 67.29 58.13 67.96 58.65 C 65.51 61.33 63.05 64.01 60.46 66.57 C 56.95 69.96 54.64 74.33 51.52 78.05 C 51.54 76.34 51.60 74.63 51.70 72.92 Z" />
<path fill="#5c6f7f" opacity="1.00" d=" M 36.61 62.40 C 38.86 61.55 41.41 60.78 43.36 62.70 C 43.86 64.35 44.25 66.03 44.63 67.70 C 42.84 68.70 41.15 69.87 39.46 71.02 C 38.88 69.31 38.29 67.61 37.69 65.91 C 36.56 67.67 35.68 69.59 35.09 71.60 C 36.19 71.51 37.28 71.34 38.36 71.15 L 38.36 73.92 C 37.46 73.73 36.56 73.53 35.65 73.38 C 35.24 74.18 34.43 75.78 34.03 76.58 C 33.48 76.11 32.39 75.16 31.85 74.69 C 31.55 73.56 31.26 72.43 30.96 71.30 C 33.27 68.63 35.09 65.58 36.61 62.40 Z" />
<path fill="#010100" opacity="0.50" d=" M 25.66 62.22 C 28.46 62.44 31.27 62.45 34.08 62.54 C 33.65 63.23 33.23 63.94 32.78 64.62 C 30.41 63.81 28.02 63.06 25.66 62.22 Z" />
<path fill="#2c3656" opacity="1.00" d=" M 43.36 62.70 C 46.61 64.91 50.64 65.01 54.35 65.82 C 52.19 69.53 48.04 68.09 44.63 67.70 C 44.25 66.03 43.86 64.35 43.36 62.70 Z" />
<path fill="#4d685d" opacity="1.00" d=" M 84.73 67.72 C 87.63 66.06 90.66 64.30 94.09 64.20 C 90.39 66.17 87.22 69.51 82.90 70.02 C 83.21 68.99 83.82 68.22 84.73 67.72 Z" />
<path fill="#eaebcd" opacity="1.00" d=" M 92.00 70.50 C 98.67 70.16 104.77 67.28 111.00 65.20 L 111.00 73.12 C 108.41 73.51 105.83 73.95 103.24 74.30 C 96.19 74.39 88.82 75.60 82.02 73.16 C 85.15 71.64 88.49 70.53 92.00 70.50 Z" />
<path fill="#c6d0b3" opacity="1.00" d=" M 67.03 69.26 C 69.05 67.55 71.65 66.85 74.26 67.32 C 67.73 71.56 60.30 75.82 56.57 82.92 C 56.56 81.83 56.55 80.75 56.52 79.66 C 58.50 76.83 60.55 73.80 63.64 72.09 C 63.55 71.73 63.38 71.01 63.29 70.65 C 64.54 70.20 65.79 69.73 67.03 69.26 Z" />
<path fill="#020202" opacity="0.52" d=" M 0.00 73.54 C 8.36 71.80 16.91 71.22 25.38 70.20 C 17.29 73.33 8.34 72.37 0.00 74.54 L 0.00 73.54 Z" />
<path fill="#253332" opacity="1.00" d=" M 42.59 70.58 C 43.80 69.22 45.79 70.31 47.30 70.27 C 45.39 71.81 43.29 73.19 40.79 73.48 C 41.32 72.47 41.92 71.51 42.59 70.58 Z" />
<path fill="#a8ba9d" opacity="1.00" d=" M 0.00 77.42 C 10.14 74.48 21.45 76.36 30.96 71.30 C 31.26 72.43 31.55 73.56 31.85 74.69 C 28.30 80.32 22.34 83.49 17.91 88.24 C 17.08 88.35 15.42 88.56 14.59 88.67 C 13.55 87.20 12.21 85.60 10.19 86.39 C 6.21 87.84 3.13 91.01 0.00 93.75 L 0.00 77.42 Z" />
<path fill="#1d2d37" opacity="1.00" d=" M 67.25 74.65 C 68.62 73.99 69.98 73.33 71.34 72.66 C 72.89 73.94 74.28 75.39 75.56 76.93 C 74.14 78.19 72.73 79.45 71.34 80.74 L 71.01 80.04 C 70.25 78.34 69.13 76.83 67.93 75.42 L 67.25 74.65 Z" />
<path fill="#475a84" opacity="1.00" d=" M 80.74 73.70 C 81.06 73.56 81.70 73.29 82.02 73.16 C 88.82 75.60 96.19 74.39 103.24 74.30 C 104.11 75.06 105.00 75.81 105.90 76.55 C 102.13 76.98 98.90 78.94 95.78 80.92 C 93.86 82.56 92.57 79.64 91.15 78.73 C 87.02 80.74 82.25 79.62 79.18 76.29 C 79.57 75.64 80.35 74.35 80.74 73.70 Z" />
<path fill="#6b8ba4" opacity="1.00" d=" M 103.24 74.30 C 105.83 73.95 108.41 73.51 111.00 73.12 L 111.00 80.55 C 109.39 79.10 107.64 77.82 105.90 76.55 C 105.00 75.81 104.11 75.06 103.24 74.30 Z" />
<path fill="#2c3456" opacity="1.00" d=" M 17.91 88.24 C 22.34 83.49 28.30 80.32 31.85 74.69 C 32.39 75.16 33.48 76.11 34.03 76.58 C 32.25 79.02 31.20 81.89 31.88 84.93 C 31.38 83.51 30.96 82.07 30.51 80.64 C 28.17 83.65 26.51 87.09 24.65 90.39 C 23.37 92.46 22.11 94.53 20.91 96.65 C 18.79 94.00 16.67 91.35 14.59 88.67 C 15.42 88.56 17.08 88.35 17.91 88.24 Z" />
<path fill="#eaebcd" opacity="1.00" d=" M 44.54 75.43 C 45.25 75.45 46.66 75.49 47.37 75.51 C 46.89 75.78 45.93 76.33 45.46 76.60 C 44.99 77.89 44.54 79.18 44.18 80.50 L 43.54 80.86 C 43.20 81.05 42.53 81.43 42.19 81.62 C 41.94 81.26 41.43 80.55 41.18 80.20 C 42.06 78.73 42.56 76.73 44.41 76.20 L 44.54 75.43 Z" />
<path fill="#f9f8d4" opacity="1.00" d=" M 67.93 75.42 C 69.13 76.83 70.25 78.34 71.01 80.04 C 70.42 80.56 69.24 81.58 68.66 82.09 C 67.65 80.03 66.90 77.87 66.27 75.67 L 67.93 75.42 Z" />
<path fill="#293d42" opacity="1.00" d=" M 60.63 81.30 C 62.83 79.78 64.96 78.06 66.27 75.67 C 66.90 77.87 67.65 80.03 68.66 82.09 L 68.96 82.73 C 68.60 82.99 67.90 83.51 67.55 83.77 C 66.28 83.30 65.01 82.85 63.74 82.39 C 62.96 82.12 61.41 81.57 60.63 81.30 Z" />
<path fill="#202629" opacity="1.00" d=" M 37.80 76.85 C 38.93 77.96 40.07 79.07 41.18 80.20 C 41.36 82.24 40.68 84.69 42.40 86.26 C 41.80 86.57 40.60 87.19 40.00 87.50 C 40.24 87.84 40.72 88.54 40.96 88.88 C 40.21 89.65 39.47 90.42 38.72 91.18 L 38.43 90.57 C 37.59 88.75 36.63 86.94 36.18 84.97 C 36.40 82.43 37.26 80.00 37.68 77.49 L 37.80 76.85 M 38.24 83.42 C 37.38 84.63 37.62 85.36 38.95 85.60 C 39.82 84.38 39.58 83.66 38.24 83.42 Z" />
<path fill="#ededce" opacity="1.00" d=" M 46.89 77.57 C 47.27 77.46 48.03 77.22 48.41 77.10 C 48.52 78.45 48.64 79.80 48.79 81.15 C 48.13 81.54 47.47 81.94 46.81 82.32 C 46.52 82.46 45.93 82.73 45.63 82.87 C 45.57 81.87 45.52 80.88 45.47 79.88 C 45.83 79.30 46.54 78.15 46.89 77.57 Z" />
<path fill="#96b2c0" opacity="1.00" d=" M 34.56 79.88 C 35.60 79.09 36.64 78.29 37.68 77.49 C 37.26 80.00 36.40 82.43 36.18 84.97 C 36.63 86.94 37.59 88.75 38.43 90.57 C 36.07 87.51 33.38 84.00 34.56 79.88 Z" />
<path fill="#23353c" opacity="1.00" d=" M 100.37 81.00 C 101.26 80.10 102.17 79.24 103.08 78.38 C 107.15 80.39 109.11 84.58 111.00 88.45 L 111.00 107.37 C 105.57 102.85 100.37 98.04 94.72 93.78 C 96.03 89.26 100.90 85.95 100.37 81.00 Z" />
<path fill="#92abbb" opacity="1.00" d=" M 41.18 80.20 C 41.43 80.55 41.94 81.26 42.19 81.62 C 42.53 81.43 43.20 81.05 43.54 80.86 C 44.60 83.05 45.62 85.26 46.87 87.35 C 45.25 88.01 43.81 86.87 42.40 86.26 C 40.68 84.69 41.36 82.24 41.18 80.20 Z" />
<path fill="#596b87" opacity="1.00" d=" M 74.27 82.29 C 75.60 81.38 76.96 80.08 78.72 80.34 C 79.61 81.15 80.39 82.07 81.19 82.97 C 79.25 83.16 77.31 83.33 75.37 83.54 C 73.68 83.86 72.62 85.32 71.43 86.41 L 70.74 87.10 C 70.70 84.83 72.69 83.53 74.27 82.29 Z" />
<path fill="#5b6e7f" opacity="1.00" d=" M 24.65 90.39 C 26.51 87.09 28.17 83.65 30.51 80.64 C 30.96 82.07 31.38 83.51 31.88 84.93 C 32.71 86.81 33.89 88.49 34.97 90.22 C 32.64 91.56 30.26 92.78 27.82 93.89 C 26.77 92.72 25.71 91.55 24.65 90.39 Z" />
<path fill="#92abbb" opacity="1.00" d=" M 46.81 82.32 C 47.47 81.94 48.13 81.54 48.79 81.15 C 49.16 82.63 49.66 84.10 49.65 85.64 C 49.62 86.20 49.58 87.33 49.56 87.89 C 47.73 86.61 45.17 84.91 46.81 82.32 Z" />
<path fill="#435c55" opacity="1.00" d=" M 83.50 87.94 C 85.44 85.04 88.09 82.74 91.06 80.94 C 91.83 83.33 92.00 85.83 89.76 87.48 C 89.62 88.25 89.34 89.81 89.20 90.58 C 87.25 89.82 85.34 88.94 83.50 87.94 Z" />
<path fill="#658a7e" opacity="1.00" d=" M 60.63 81.30 C 61.41 81.57 62.96 82.12 63.74 82.39 C 63.17 84.29 62.59 86.18 62.06 88.09 C 61.26 85.91 60.83 83.61 60.63 81.30 Z" />
<path fill="#4d685d" opacity="1.00" d=" M 93.22 90.86 C 94.75 87.04 97.57 83.94 100.37 81.00 C 100.90 85.95 96.03 89.26 94.72 93.78 C 100.37 98.04 105.57 102.85 111.00 107.37 L 111.00 111.00 L 103.46 111.00 C 100.67 110.04 98.00 108.68 95.07 108.23 C 92.69 107.59 91.17 109.85 89.44 111.00 L 86.38 111.00 C 86.58 110.61 87.00 109.84 87.20 109.45 C 89.75 103.52 94.34 97.63 93.22 90.86 Z" />
<path fill="#364550" opacity="1.00" d=" M 38.24 83.42 C 39.58 83.66 39.82 84.38 38.95 85.60 C 37.62 85.36 37.38 84.63 38.24 83.42 Z" />
<path fill="#4e695e" opacity="1.00" d=" M 63.74 82.39 C 65.01 82.85 66.28 83.30 67.55 83.77 C 65.16 86.33 63.73 89.48 64.26 93.04 C 63.40 91.46 62.11 89.96 62.06 88.09 C 62.59 86.18 63.17 84.29 63.74 82.39 Z" />
<path fill="#6a8aa5" opacity="1.00" d=" M 75.37 83.54 C 77.31 83.33 79.25 83.16 81.19 82.97 C 81.57 83.47 82.32 84.46 82.70 84.96 C 82.08 85.74 80.84 87.29 80.22 88.07 C 78.50 86.68 76.88 85.16 75.37 83.54 Z" />
<path fill="#f4f3d0" opacity="1.00" d=" M 71.43 86.41 C 72.62 85.32 73.68 83.86 75.37 83.54 C 76.88 85.16 78.50 86.68 80.22 88.07 L 80.39 88.21 C 79.95 89.28 79.50 90.35 79.08 91.44 C 78.71 91.44 77.96 91.45 77.58 91.45 C 75.52 89.78 73.43 88.15 71.43 86.41 Z" />
<path fill="#3b4b66" opacity="1.00" d=" M 42.40 86.26 C 43.81 86.87 45.25 88.01 46.87 87.35 L 47.99 87.10 C 47.43 89.96 42.34 92.21 40.96 88.88 C 40.72 88.54 40.24 87.84 40.00 87.50 C 40.60 87.19 41.80 86.57 42.40 86.26 Z" />
<path fill="#45548a" opacity="1.00" d=" M 49.65 85.64 C 51.19 87.70 52.67 89.82 54.64 91.50 C 56.01 91.45 57.39 91.42 58.77 91.38 C 57.31 93.11 56.18 95.08 55.32 97.17 C 55.18 96.32 55.03 95.48 54.87 94.65 C 51.92 94.27 49.00 93.68 46.20 92.69 C 47.11 91.81 48.22 91.34 49.54 91.28 C 49.54 90.14 49.52 89.01 49.56 87.89 C 49.58 87.33 49.62 86.20 49.65 85.64 Z" />
<path fill="#16222a" opacity="1.00" d=" M 57.28 85.91 C 59.13 85.29 60.03 88.60 58.11 88.99 C 56.31 89.38 55.51 86.47 57.28 85.91 Z" />
<path fill="#afdfd2" opacity="1.00" d=" M 0.00 99.04 C 3.28 95.47 6.59 91.87 10.47 88.92 C 12.44 91.49 14.36 94.10 16.36 96.65 C 13.65 94.97 11.47 91.07 7.83 92.50 C 4.87 94.56 2.44 97.26 0.00 99.89 L 0.00 99.04 Z" />
<path fill="#2c3456" opacity="1.00" d=" M 67.44 88.92 C 71.19 90.07 74.24 92.60 77.29 94.95 C 76.80 98.03 76.51 101.14 76.50 104.26 C 78.95 103.90 81.40 103.54 83.84 103.17 C 83.72 105.78 83.60 108.39 83.48 111.00 L 67.54 111.00 C 64.87 107.46 61.85 104.20 59.06 100.76 C 57.52 98.87 59.07 96.42 59.41 94.38 C 59.97 94.36 61.08 94.33 61.64 94.31 C 63.05 97.14 64.55 99.93 66.31 102.56 C 66.83 98.02 66.47 93.41 67.44 88.92 Z" />
<path fill="#4d695e" opacity="1.00" d=" M 79.23 101.76 C 80.13 97.49 81.13 93.22 82.75 89.15 C 84.60 90.11 86.32 91.30 87.84 92.73 C 86.67 95.30 85.74 97.99 84.42 100.49 C 82.93 101.50 80.92 101.31 79.23 101.76 Z" />
<path fill="#ededce" opacity="1.00" d=" M 30.48 94.78 C 32.65 94.56 34.63 93.66 36.25 92.20 C 34.46 94.39 33.20 96.93 32.14 99.53 C 31.76 99.44 31.02 99.26 30.65 99.18 C 30.55 97.71 30.49 96.25 30.48 94.78 Z" />
<path fill="#bdc4b9" opacity="1.00" d=" M 42.43 92.24 C 42.97 92.25 44.04 92.27 44.57 92.28 C 44.58 94.32 44.60 96.36 44.59 98.40 C 42.46 100.41 39.99 102.29 39.01 105.18 C 38.59 106.97 36.55 107.20 35.13 107.88 C 35.26 104.09 37.47 100.70 40.68 98.77 C 43.42 97.65 42.36 94.55 42.43 92.24 Z" />
<path fill="#afdfd2" opacity="1.00" d=" M 88.85 100.60 C 89.86 97.17 91.87 94.16 93.22 90.86 C 94.34 97.63 89.75 103.52 87.20 109.45 C 87.73 106.50 88.13 103.52 88.85 100.60 Z" />
<path fill="#4d685d" opacity="1.00" d=" M 7.83 92.50 C 11.47 91.07 13.65 94.97 16.36 96.65 C 17.06 97.44 17.73 98.26 18.40 99.09 C 15.76 103.24 12.83 107.21 9.71 111.00 L 0.00 111.00 L 0.00 99.89 C 2.44 97.26 4.87 94.56 7.83 92.50 Z" />
<path fill="#dadfc8" opacity="1.00" d=" M 32.30 105.44 C 34.34 100.91 36.89 96.64 39.03 92.16 C 40.47 93.06 40.94 94.72 41.66 96.14 C 40.39 97.39 39.10 98.62 37.76 99.80 C 36.16 101.56 35.06 103.66 34.24 105.88 C 33.76 105.77 32.79 105.55 32.30 105.44 Z" />
<path fill="#92abbb" opacity="1.00" d=" M 46.20 99.97 C 46.26 97.54 46.28 95.11 46.20 92.69 C 49.00 93.68 51.92 94.27 54.87 94.65 C 55.03 95.48 55.18 96.32 55.32 97.17 C 55.33 100.04 54.30 102.83 54.43 105.72 L 53.63 106.34 C 53.21 106.50 52.39 106.83 51.97 106.99 C 51.66 106.87 51.02 106.63 50.70 106.51 C 50.38 102.68 50.70 98.85 50.84 95.02 C 49.40 94.80 47.95 94.58 46.51 94.37 C 46.93 95.99 47.38 97.60 47.74 99.24 C 47.35 99.43 46.58 99.79 46.20 99.97 Z" />
<path fill="#233438" opacity="1.00" d=" M 24.28 95.31 C 26.53 93.96 26.74 98.43 24.69 98.64 C 23.09 98.52 23.34 96.10 24.28 95.31 Z" />
<path fill="#f1f1ce" opacity="1.00" d=" M 46.51 94.37 C 47.95 94.58 49.40 94.80 50.84 95.02 C 50.70 98.85 50.38 102.68 50.70 106.51 C 51.02 106.63 51.66 106.87 51.97 106.99 C 52.39 106.83 53.21 106.50 53.63 106.34 C 53.60 106.64 53.54 107.26 53.51 107.57 C 51.95 107.68 50.39 107.73 48.83 107.78 C 47.50 108.07 46.16 108.31 44.82 108.53 C 44.90 105.56 42.14 105.57 39.89 105.25 C 41.71 103.19 43.45 100.83 46.20 99.97 C 46.58 99.79 47.35 99.43 47.74 99.24 C 47.38 97.60 46.93 95.99 46.51 94.37 Z" />
<path fill="#24353c" opacity="1.00" d=" M 18.40 99.09 C 19.67 101.41 21.32 103.74 21.57 106.43 C 20.76 108.18 19.42 109.62 18.08 111.00 L 9.71 111.00 C 12.83 107.21 15.76 103.24 18.40 99.09 Z" />
<path fill="#293b3d" opacity="1.00" d=" M 26.62 99.22 C 29.70 98.29 27.31 103.49 25.31 102.49 C 24.90 101.30 25.66 99.92 26.62 99.22 Z" />
<path fill="#263739" opacity="1.00" d=" M 29.12 104.82 C 30.52 105.48 31.64 106.50 31.59 108.20 C 30.84 109.47 29.36 109.78 28.08 110.24 C 27.93 108.36 28.33 106.52 29.12 104.82 Z" />
<path fill="#4e695e" opacity="1.00" d=" M 58.13 104.04 C 60.45 106.20 62.56 108.57 64.59 111.00 L 55.22 111.00 C 56.90 109.03 57.73 106.57 58.13 104.04 Z" />
<path fill="#40574e" opacity="1.00" d=" M 21.39 111.00 C 22.71 109.69 23.95 108.32 25.20 106.96 C 25.69 108.31 26.18 109.65 26.67 111.00 L 21.39 111.00 Z" />
<path fill="#455e57" opacity="1.00" d=" M 37.89 108.52 C 39.36 108.20 40.84 107.88 42.33 107.58 C 41.95 108.72 41.56 109.87 41.15 111.00 L 36.55 111.00 C 36.88 110.38 37.55 109.14 37.89 108.52 Z" />
<path fill="#f1f1ce" opacity="1.00" d=" M 89.44 111.00 C 91.17 109.85 92.69 107.59 95.07 108.23 C 98.00 108.68 100.67 110.04 103.46 111.00 L 96.98 111.00 C 96.01 109.42 93.47 109.05 92.68 111.00 L 89.44 111.00 Z" />
<path fill="#242c22" opacity="1.00" d=" M 92.68 111.00 C 93.47 109.05 96.01 109.42 96.98 111.00 L 92.68 111.00 Z" />
</svg>
