<?xml version="1.0" encoding="UTF-8" ?>
<!DOCTYPE svg PUBLIC "-//W3C//DTD SVG 1.1//EN" "http://www.w3.org/Graphics/SVG/1.1/DTD/svg11.dtd">
<svg width="111pt" height="111pt" viewBox="0 0 111 111" version="1.1" xmlns="http://www.w3.org/2000/svg">
<path fill="#000000" opacity="1.00" d=" M 71.06 13.91 C 75.52 12.32 80.43 13.42 85.01 13.92 C 85.40 14.35 86.18 15.22 86.57 15.66 C 94.43 13.45 102.89 11.31 111.00 13.47 L 111.00 16.43 C 105.63 14.71 99.96 15.55 94.55 16.58 C 93.67 16.83 92.79 17.06 91.91 17.30 C 88.00 17.07 86.00 20.39 83.32 22.54 C 83.66 24.45 85.08 26.76 83.38 28.40 C 81.65 29.93 79.15 29.82 77.03 30.39 C 78.55 36.92 78.29 44.38 74.62 50.20 C 72.87 52.55 71.01 54.85 68.83 56.84 C 65.10 59.43 61.04 61.56 56.57 62.53 C 56.32 63.74 56.06 64.94 55.78 66.13 C 54.42 70.37 53.30 74.70 52.68 79.12 C 54.25 81.94 58.54 82.66 59.29 86.03 C 57.87 89.82 54.29 92.08 51.63 94.92 C 52.54 99.19 53.37 103.62 55.78 107.35 C 56.51 108.57 57.26 109.78 58.00 111.00 L 55.42 111.00 C 54.37 109.49 53.44 107.91 52.57 106.30 C 52.20 105.56 51.87 104.82 51.51 104.08 C 50.83 100.51 47.73 95.93 50.49 92.76 C 52.90 90.82 54.93 88.48 56.75 85.99 C 54.71 84.20 52.19 82.79 50.71 80.47 C 50.40 78.42 50.61 76.32 50.44 74.25 C 50.53 72.15 51.51 70.25 52.21 68.31 C 53.36 65.72 54.21 63.02 55.10 60.34 C 56.95 59.83 58.80 59.31 60.60 58.64 C 66.83 56.02 72.41 51.00 74.52 44.45 C 75.30 41.16 75.57 37.74 75.68 34.37 C 74.57 31.20 72.52 28.18 69.43 26.69 C 65.54 24.83 61.02 24.85 56.86 25.59 C 55.84 25.87 54.84 26.18 53.84 26.53 C 50.52 27.74 46.96 29.06 44.57 31.78 L 44.52 31.84 C 38.36 36.20 34.54 44.94 37.74 52.17 C 39.64 56.71 44.21 59.62 48.94 60.46 C 49.53 60.54 50.72 60.69 51.31 60.76 C 51.24 61.01 51.10 61.50 51.03 61.75 C 49.07 67.33 45.60 72.30 44.28 78.14 C 44.01 80.18 42.24 83.09 44.40 84.63 C 45.56 85.45 47.05 85.92 47.88 87.13 C 47.85 88.27 47.64 89.39 47.38 90.49 C 45.89 93.56 43.17 96.34 43.32 99.96 C 43.39 104.42 46.67 107.88 49.47 111.00 L 42.49 111.00 C 38.46 109.00 34.02 106.94 31.88 102.72 C 31.26 105.48 30.65 108.25 29.95 111.00 L 27.23 111.00 C 28.76 106.80 30.06 102.43 30.30 97.93 C 29.16 95.51 27.56 93.35 26.23 91.04 C 27.10 90.61 27.96 90.17 28.83 89.74 C 28.72 83.98 26.90 77.71 29.68 72.33 C 31.58 77.35 30.49 83.04 31.65 88.29 C 31.78 89.74 31.88 91.19 32.13 92.63 C 32.74 96.33 33.50 100.16 35.57 103.35 C 37.87 105.88 41.14 107.21 44.10 108.78 C 42.54 106.06 40.74 103.24 40.76 99.99 C 40.68 95.64 43.67 92.17 45.73 88.60 C 44.10 87.10 41.71 86.23 40.77 84.10 C 40.97 81.52 41.53 78.99 41.89 76.44 C 42.74 74.57 43.56 72.68 44.39 70.79 C 45.47 68.06 46.75 65.39 48.61 63.09 C 46.21 62.41 43.84 61.64 41.57 60.62 C 38.56 59.01 37.07 55.64 34.02 54.12 C 26.11 49.53 18.20 44.95 10.52 39.99 C 9.14 39.03 7.80 38.01 6.39 37.10 C 7.17 40.64 8.77 43.90 10.01 47.29 C 10.17 47.71 10.48 48.55 10.64 48.97 C 11.50 51.35 12.63 53.62 13.88 55.82 C 15.22 61.32 18.44 66.03 20.62 71.18 C 20.36 71.60 20.08 72.02 19.80 72.44 C 16.07 76.06 11.48 78.64 7.69 82.20 C 9.11 84.49 10.62 86.74 12.34 88.82 C 14.07 90.84 16.51 91.98 18.75 93.32 C 18.60 93.85 18.30 94.91 18.15 95.43 C 17.60 95.08 16.50 94.36 15.95 94.01 C 10.66 92.27 5.50 90.06 0.00 89.05 L 0.00 86.18 C 2.76 86.71 5.50 87.37 8.15 88.30 C 7.06 85.99 3.98 83.81 5.01 81.06 C 8.62 76.93 13.35 73.90 17.97 71.02 C 14.33 65.29 11.84 58.94 9.23 52.70 C 6.63 46.15 4.02 39.57 2.43 32.69 C 5.92 33.26 8.65 35.59 11.55 37.42 C 18.98 42.41 26.85 46.72 34.35 51.60 C 31.34 40.76 38.96 29.84 48.60 25.45 C 54.57 22.28 61.37 22.03 67.95 22.34 C 68.66 19.48 68.71 16.01 71.06 13.91 M 72.44 16.43 C 70.94 18.93 71.17 21.86 71.42 24.64 C 73.84 23.80 74.09 27.16 75.91 28.08 C 77.70 27.65 79.49 27.27 81.30 26.94 C 82.04 25.21 80.57 23.47 80.30 21.76 C 81.64 20.04 84.67 18.85 83.76 16.19 C 80.01 16.26 76.10 15.64 72.44 16.43 Z" />
<path fill="#94a1a4" opacity="1.00" d=" M 94.55 16.58 C 99.96 15.55 105.63 14.71 111.00 16.43 L 111.00 26.72 C 104.33 32.15 97.64 37.57 91.05 43.10 C 88.10 45.76 84.21 46.89 80.54 48.17 C 81.41 43.39 83.11 38.82 84.74 34.26 C 88.67 28.77 90.93 22.28 94.55 16.58 Z" />
<path fill="#4895da" opacity="1.00" d=" M 72.44 16.43 C 76.10 15.64 80.01 16.26 83.76 16.19 C 84.67 18.85 81.64 20.04 80.30 21.76 C 80.57 23.47 82.04 25.21 81.30 26.94 C 79.49 27.27 77.70 27.65 75.91 28.08 C 74.09 27.16 73.84 23.80 71.42 24.64 C 71.17 21.86 70.94 18.93 72.44 16.43 Z" />
<path fill="#a0f5ff" opacity="1.00" d=" M 91.91 17.30 C 92.79 17.06 93.67 16.83 94.55 16.58 C 90.93 22.28 88.67 28.77 84.74 34.26 C 86.04 28.19 89.64 23.00 91.91 17.30 Z" />
<path fill="#496d84" opacity="1.00" d=" M 83.32 22.54 C 86.00 20.39 88.00 17.07 91.91 17.30 C 89.64 23.00 86.04 28.19 84.74 34.26 C 83.11 38.82 81.41 43.39 80.54 48.17 C 84.21 46.89 88.10 45.76 91.05 43.10 C 97.64 37.57 104.33 32.15 111.00 26.72 L 111.00 29.31 C 106.02 34.91 101.83 41.17 96.61 46.56 C 95.50 47.96 93.60 48.06 91.98 48.43 C 86.13 49.37 80.29 50.41 74.47 51.58 L 74.62 50.20 C 78.29 44.38 78.55 36.92 77.03 30.39 C 79.15 29.82 81.65 29.93 83.38 28.40 C 85.08 26.76 83.66 24.45 83.32 22.54 Z" />
<path fill="#2b3f77" opacity="1.00" d=" M 56.86 25.59 C 61.02 24.85 65.54 24.83 69.43 26.69 C 72.52 28.18 74.57 31.20 75.68 34.37 C 75.57 37.74 75.30 41.16 74.52 44.45 C 72.41 51.00 66.83 56.02 60.60 58.64 C 60.62 58.31 60.67 57.66 60.69 57.34 C 66.05 53.54 72.17 48.99 73.06 41.97 C 73.15 36.51 67.93 32.95 63.08 31.91 C 62.32 28.81 60.81 24.96 56.86 25.59 Z" />
<path fill="#224c88" opacity="1.00" d=" M 53.84 26.53 C 54.84 26.18 55.84 25.87 56.86 25.59 C 60.81 24.96 62.32 28.81 63.08 31.91 C 64.04 39.82 62.13 48.52 55.86 53.89 C 53.48 55.58 52.46 58.21 51.31 60.76 C 50.72 60.69 49.53 60.54 48.94 60.46 C 49.22 59.84 49.77 58.60 50.05 57.98 C 46.94 55.69 44.71 51.97 45.67 47.99 C 47.43 39.85 54.94 34.21 62.67 32.12 C 61.08 30.01 59.28 28.08 57.35 26.30 C 56.47 26.35 54.72 26.47 53.84 26.53 Z" />
<path fill="#4895da" opacity="1.00" d=" M 44.57 31.78 C 46.96 29.06 50.52 27.74 53.84 26.53 C 54.72 26.47 56.47 26.35 57.35 26.30 C 59.28 28.08 61.08 30.01 62.67 32.12 C 54.94 34.21 47.43 39.85 45.67 47.99 C 44.71 51.97 46.94 55.69 50.05 57.98 C 49.77 58.60 49.22 59.84 48.94 60.46 C 44.21 59.62 39.64 56.71 37.74 52.17 C 34.54 44.94 38.36 36.20 44.52 31.84 C 43.47 34.09 40.41 35.78 41.41 38.63 C 44.83 41.55 49.13 36.14 47.61 32.65 C 46.85 32.43 45.33 31.99 44.57 31.78 Z" />
<path fill="#1f2a3f" opacity="1.00" d=" M 96.61 46.56 C 101.83 41.17 106.02 34.91 111.00 29.31 L 111.00 41.18 C 108.59 43.78 108.90 47.35 109.64 50.55 C 96.10 52.99 82.47 55.03 68.83 56.84 C 71.01 54.85 72.87 52.55 74.62 50.20 L 74.47 51.58 C 80.29 50.41 86.13 49.37 91.98 48.43 C 93.60 48.06 95.50 47.96 96.61 46.56 Z" />
<path fill="#ffffff" opacity="1.00" d=" M 44.52 31.84 L 44.57 31.78 C 45.33 31.99 46.85 32.43 47.61 32.65 C 49.13 36.14 44.83 41.55 41.41 38.63 C 40.41 35.78 43.47 34.09 44.52 31.84 Z" />
<path fill="#243369" opacity="1.00" d=" M 63.08 31.91 C 67.93 32.95 73.15 36.51 73.06 41.97 C 72.17 48.99 66.05 53.54 60.69 57.34 C 60.67 57.66 60.62 58.31 60.60 58.64 C 58.80 59.31 56.95 59.83 55.10 60.34 C 54.21 63.02 53.36 65.72 52.21 68.31 C 52.32 66.05 52.44 63.68 51.03 61.75 C 51.10 61.50 51.24 61.01 51.31 60.76 C 52.46 58.21 53.48 55.58 55.86 53.89 C 62.13 48.52 64.04 39.82 63.08 31.91 Z" />
<path fill="#9ee8ee" opacity="1.00" d=" M 6.39 37.10 C 7.80 38.01 9.14 39.03 10.52 39.99 C 10.97 42.26 11.47 44.52 11.99 46.77 C 11.49 46.90 10.51 47.16 10.01 47.29 C 8.77 43.90 7.17 40.64 6.39 37.10 Z" />
<path fill="#94a1a4" opacity="1.00" d=" M 10.52 39.99 C 18.20 44.95 26.11 49.53 34.02 54.12 C 37.07 55.64 38.56 59.01 41.57 60.62 C 39.97 63.69 36.46 65.77 33.04 64.20 C 24.55 60.86 18.06 54.08 10.64 48.97 C 10.48 48.55 10.17 47.71 10.01 47.29 C 10.51 47.16 11.49 46.90 11.99 46.77 C 11.47 44.52 10.97 42.26 10.52 39.99 Z" />
<path fill="#000000" opacity="1.00" d=" M 109.64 50.55 C 108.90 47.35 108.59 43.78 111.00 41.18 L 111.00 56.54 C 110.56 54.54 110.06 52.55 109.64 50.55 Z" />
<path fill="#496d84" opacity="1.00" d=" M 10.64 48.97 C 18.06 54.08 24.55 60.86 33.04 64.20 C 36.46 65.77 39.97 63.69 41.57 60.62 C 43.84 61.64 46.21 62.41 48.61 63.09 C 46.75 65.39 45.47 68.06 44.39 70.79 L 43.85 69.57 C 38.53 74.94 36.12 82.32 31.65 88.29 C 30.49 83.04 31.58 77.35 29.68 72.33 C 23.06 68.27 19.07 61.37 13.88 55.82 C 12.63 53.62 11.50 51.35 10.64 48.97 Z" />
<path fill="#496d84" opacity="1.00" d=" M 68.83 56.84 C 82.47 55.03 96.10 52.99 109.64 50.55 C 110.06 52.55 110.56 54.54 111.00 56.54 L 111.00 66.65 C 109.01 72.50 106.11 78.40 106.20 84.68 C 105.35 87.96 104.35 91.19 103.42 94.45 C 105.96 93.66 108.51 92.89 111.00 91.96 L 111.00 94.61 C 103.43 101.58 93.40 104.76 85.35 111.00 L 58.00 111.00 C 57.26 109.78 56.51 108.57 55.78 107.35 C 64.21 106.30 72.68 105.17 80.90 102.98 C 85.28 97.83 85.71 90.21 89.60 84.67 C 89.47 85.62 89.23 87.53 89.11 88.48 C 87.87 92.68 86.11 96.75 85.41 101.09 C 85.03 104.49 90.22 105.34 91.06 102.08 C 95.31 90.35 98.76 78.33 102.50 66.43 C 103.16 64.11 104.27 60.86 101.70 59.29 C 98.89 58.42 97.79 61.58 96.81 63.53 C 96.00 65.23 95.30 66.97 94.65 68.74 C 94.11 64.77 96.05 61.07 96.75 57.24 C 82.57 56.78 69.10 61.99 55.78 66.13 C 56.06 64.94 56.32 63.74 56.57 62.53 C 61.04 61.56 65.10 59.43 68.83 56.84 Z" />
<path fill="#222e40" opacity="1.00" d=" M 13.88 55.82 C 19.07 61.37 23.06 68.27 29.68 72.33 C 26.90 77.71 28.72 83.98 28.83 89.74 C 27.96 90.17 27.10 90.61 26.23 91.04 C 27.56 93.35 29.16 95.51 30.30 97.93 C 30.06 102.43 28.76 106.80 27.23 111.00 L 23.65 111.00 C 24.55 108.83 25.87 106.89 27.52 105.22 C 24.26 102.09 21.02 98.93 18.15 95.43 C 18.30 94.91 18.60 93.85 18.75 93.32 C 16.51 91.98 14.07 90.84 12.34 88.82 C 16.25 85.64 20.49 82.43 22.85 77.88 C 22.58 75.74 20.95 74.15 19.80 72.44 C 20.08 72.02 20.36 71.60 20.62 71.18 C 18.44 66.03 15.22 61.32 13.88 55.82 Z" />
<path fill="#94a1a4" opacity="1.00" d=" M 55.78 66.13 C 69.10 61.99 82.57 56.78 96.75 57.24 C 96.05 61.07 94.11 64.77 94.65 68.74 C 92.77 73.98 91.39 79.39 89.60 84.67 C 85.71 90.21 85.28 97.83 80.90 102.98 C 72.68 105.17 64.21 106.30 55.78 107.35 C 53.37 103.62 52.54 99.19 51.63 94.92 C 54.29 92.08 57.87 89.82 59.29 86.03 C 58.54 82.66 54.25 81.94 52.68 79.12 C 53.30 74.70 54.42 70.37 55.78 66.13 Z" />
<path fill="#94a1a4" opacity="1.00" d=" M 96.81 63.53 C 97.79 61.58 98.89 58.42 101.70 59.29 C 104.27 60.86 103.16 64.11 102.50 66.43 C 98.76 78.33 95.31 90.35 91.06 102.08 C 90.22 105.34 85.03 104.49 85.41 101.09 C 86.11 96.75 87.87 92.68 89.11 88.48 C 91.28 84.81 92.34 80.65 93.68 76.64 C 94.96 72.33 96.64 68.07 96.81 63.53 Z" />
<path fill="#4895da" opacity="1.00" d=" M 44.28 78.14 C 45.60 72.30 49.07 67.33 51.03 61.75 C 52.44 63.68 52.32 66.05 52.21 68.31 C 51.51 70.25 50.53 72.15 50.44 74.25 C 47.57 77.21 47.72 81.97 44.40 84.63 C 42.24 83.09 44.01 80.18 44.28 78.14 Z" />
<path fill="#a0f5ff" opacity="1.00" d=" M 94.65 68.74 C 95.30 66.97 96.00 65.23 96.81 63.53 C 96.64 68.07 94.96 72.33 93.68 76.64 C 92.34 80.65 91.28 84.81 89.11 88.48 C 89.23 87.53 89.47 85.62 89.60 84.67 C 91.39 79.39 92.77 73.98 94.65 68.74 Z" />
<path fill="#a0f5ff" opacity="1.00" d=" M 106.20 84.68 C 106.11 78.40 109.01 72.50 111.00 66.65 L 111.00 73.69 C 109.30 77.31 108.77 81.51 106.20 84.68 Z" />
<path fill="#a0f5ff" opacity="1.00" d=" M 31.65 88.29 C 36.12 82.32 38.53 74.94 43.85 69.57 L 44.39 70.79 C 43.56 72.68 42.74 74.57 41.89 76.44 C 37.73 81.23 35.09 87.08 32.13 92.63 C 31.88 91.19 31.78 89.74 31.65 88.29 Z" />
<path fill="#94a1a4" opacity="1.00" d=" M 19.80 72.44 C 20.95 74.15 22.58 75.74 22.85 77.88 C 20.49 82.43 16.25 85.64 12.34 88.82 C 10.62 86.74 9.11 84.49 7.69 82.20 C 11.48 78.64 16.07 76.06 19.80 72.44 Z" />
<path fill="#26356b" opacity="1.00" d=" M 44.40 84.63 C 47.72 81.97 47.57 77.21 50.44 74.25 C 50.61 76.32 50.40 78.42 50.71 80.47 C 52.19 82.79 54.71 84.20 56.75 85.99 C 54.93 88.48 52.90 90.82 50.49 92.76 C 49.45 92.00 48.42 91.24 47.38 90.49 C 47.64 89.39 47.85 88.27 47.88 87.13 C 47.05 85.92 45.56 85.45 44.40 84.63 Z" />
<path fill="#93a0a4" opacity="1.00" d=" M 106.20 84.68 C 108.77 81.51 109.30 77.31 111.00 73.69 L 111.00 91.96 C 108.51 92.89 105.96 93.66 103.42 94.45 C 104.35 91.19 105.35 87.96 106.20 84.68 Z" />
<path fill="#94a1a4" opacity="1.00" d=" M 32.13 92.63 C 35.09 87.08 37.73 81.23 41.89 76.44 C 41.53 78.99 40.97 81.52 40.77 84.10 C 41.71 86.23 44.10 87.10 45.73 88.60 C 43.67 92.17 40.68 95.64 40.76 99.99 C 40.74 103.24 42.54 106.06 44.10 108.78 C 41.14 107.21 37.87 105.88 35.57 103.35 C 33.50 100.16 32.74 96.33 32.13 92.63 Z" />
<path fill="#94a1a4" opacity="1.00" d=" M 0.00 89.05 C 5.50 90.06 10.66 92.27 15.95 94.01 C 18.35 98.62 21.60 102.74 23.73 107.50 C 21.25 107.21 18.42 107.38 16.47 105.53 C 11.06 101.13 5.50 96.92 0.00 92.64 L 0.00 89.05 Z" />
<path fill="#4890d7" opacity="1.00" d=" M 47.38 90.49 C 48.42 91.24 49.45 92.00 50.49 92.76 C 47.73 95.93 50.83 100.51 51.51 104.08 C 50.25 102.41 49.02 100.73 47.88 98.97 C 47.33 99.21 46.21 99.68 45.65 99.91 C 45.42 104.16 47.62 108.42 50.97 111.00 L 49.47 111.00 C 46.67 107.88 43.39 104.42 43.32 99.96 C 43.17 96.34 45.89 93.56 47.38 90.49 Z" />
<path fill="#496d84" opacity="1.00" d=" M 0.00 92.64 C 5.50 96.92 11.06 101.13 16.47 105.53 C 18.42 107.38 21.25 107.21 23.73 107.50 C 21.60 102.74 18.35 98.62 15.95 94.01 C 16.50 94.36 17.60 95.08 18.15 95.43 C 21.02 98.93 24.26 102.09 27.52 105.22 C 25.87 106.89 24.55 108.83 23.65 111.00 L 13.85 111.00 C 11.87 109.50 9.89 108.00 7.81 106.64 C 7.53 108.09 7.26 109.54 6.99 111.00 L 5.58 111.00 C 3.86 109.16 1.95 107.54 0.00 105.97 L 0.00 92.64 Z" />
<path fill="#1c263e" opacity="1.00" d=" M 85.35 111.00 C 93.40 104.76 103.43 101.58 111.00 94.61 L 111.00 107.65 C 106.11 108.51 101.27 109.60 96.50 111.00 L 85.35 111.00 Z" />
<path fill="#224c88" opacity="1.00" d=" M 45.65 99.91 C 46.21 99.68 47.33 99.21 47.88 98.97 C 49.02 100.73 50.25 102.41 51.51 104.08 C 51.87 104.82 52.20 105.56 52.57 106.30 C 52.39 107.86 52.26 109.43 52.14 111.00 L 50.97 111.00 C 47.62 108.42 45.42 104.16 45.65 99.91 Z" />
<path fill="#0a0e12" opacity="1.00" d=" M 0.00 105.97 C 1.95 107.54 3.86 109.16 5.58 111.00 L 0.65 111.00 C 0.49 110.79 0.16 110.36 0.00 110.15 L 0.00 105.97 Z" />
<path fill="#202c3f" opacity="1.00" d=" M 6.99 111.00 C 7.26 109.54 7.53 108.09 7.81 106.64 C 9.89 108.00 11.87 109.50 13.85 111.00 L 6.99 111.00 Z" />
<path fill="#3e81c1" opacity="1.00" d=" M 52.14 111.00 C 52.26 109.43 52.39 107.86 52.57 106.30 C 53.44 107.91 54.37 109.49 55.42 111.00 L 52.14 111.00 Z" />
<path fill="#010202" opacity="1.00" d=" M 96.50 111.00 C 101.27 109.60 106.11 108.51 111.00 107.65 L 111.00 109.08 C 109.74 109.18 108.65 109.90 108.04 111.00 L 96.50 111.00 Z" />
<path fill="#94a1a4" opacity="1.00" d=" M 108.04 111.00 C 108.65 109.90 109.74 109.18 111.00 109.08 L 111.00 111.00 L 108.04 111.00 Z" />
<path fill="#405f76" opacity="1.00" d=" M 0.00 110.15 C 0.16 110.36 0.49 110.79 0.65 111.00 L 0.00 111.00 L 0.00 110.15 Z" />
</svg>
