<?xml version="1.0" encoding="UTF-8" ?>
<!DOCTYPE svg PUBLIC "-//W3C//DTD SVG 1.1//EN" "http://www.w3.org/Graphics/SVG/1.1/DTD/svg11.dtd">
<svg width="111pt" height="111pt" viewBox="0 0 111 111" version="1.1" xmlns="http://www.w3.org/2000/svg">
<path fill="#5eeeff" opacity="1.00" d=" M 0.00 0.00 L 0.82 0.00 C 2.36 0.74 3.88 1.53 5.41 2.31 C 5.31 5.96 5.04 9.63 4.26 13.21 C 2.84 13.25 1.42 13.31 0.00 13.30 L 0.00 0.00 Z" />
<path fill="#3093d2" opacity="1.00" d=" M 0.82 0.00 L 14.90 0.00 C 18.20 4.84 21.29 9.91 23.24 15.45 C 23.28 18.99 23.15 22.54 23.21 26.08 C 22.19 27.22 21.18 28.36 20.16 29.50 C 19.47 28.31 18.77 27.12 18.12 25.90 C 16.68 22.99 15.61 19.93 14.47 16.90 C 13.03 18.93 11.33 20.84 10.40 23.17 C 9.60 26.07 9.52 29.11 9.21 32.09 C 8.03 30.83 6.89 29.53 5.69 28.29 C 5.77 27.56 5.94 26.11 6.03 25.38 C 4.00 24.78 1.97 24.18 0.00 23.43 L 0.00 18.73 C 2.21 17.58 3.80 15.69 4.26 13.21 C 5.04 9.63 5.31 5.96 5.41 2.31 C 3.88 1.53 2.36 0.74 0.82 0.00 Z" />
<path fill="#000000" opacity="1.00" d=" M 14.90 0.00 L 18.05 0.00 C 19.51 2.93 21.15 5.77 22.77 8.61 C 23.18 8.03 23.99 6.87 24.40 6.28 C 24.79 6.23 25.57 6.13 25.96 6.07 C 26.92 6.23 28.85 6.53 29.81 6.68 C 29.75 5.98 29.62 4.58 29.56 3.89 C 30.80 2.88 32.03 1.86 33.24 0.82 C 30.33 1.47 27.54 2.53 24.87 3.84 C 24.72 3.54 24.40 2.94 24.24 2.64 C 22.32 1.59 20.26 0.82 18.23 0.00 L 37.73 0.00 C 35.46 1.39 33.26 2.90 31.02 4.35 C 31.18 5.64 31.34 6.92 31.50 8.21 L 30.97 8.41 C 29.10 8.16 27.25 7.83 25.39 7.55 C 25.00 7.98 24.21 8.82 23.82 9.25 C 24.21 12.66 25.67 15.80 26.64 19.06 C 26.97 21.54 27.04 24.05 26.99 26.55 C 25.32 23.00 24.56 19.13 23.24 15.45 C 21.29 9.91 18.20 4.84 14.90 0.00 Z" />
<path fill="#94d6ff" opacity="1.00" d=" M 18.05 0.00 L 18.23 0.00 C 20.26 0.82 22.32 1.59 24.24 2.64 C 24.40 2.94 24.72 3.54 24.87 3.84 C 25.14 4.40 25.69 5.51 25.96 6.07 C 25.57 6.13 24.79 6.23 24.40 6.28 C 23.99 6.87 23.18 8.03 22.77 8.61 C 21.15 5.77 19.51 2.93 18.05 0.00 Z" />
<path fill="#4350df" opacity="1.00" d=" M 37.73 0.00 L 39.16 0.00 C 36.47 2.03 34.24 4.59 32.26 7.31 C 32.07 7.53 31.69 7.98 31.50 8.21 C 31.34 6.92 31.18 5.64 31.02 4.35 C 33.26 2.90 35.46 1.39 37.73 0.00 Z" />
<path fill="#000000" opacity="1.00" d=" M 39.16 0.00 L 43.39 0.00 C 39.92 1.39 37.01 3.79 34.63 6.64 C 35.79 7.12 36.95 7.61 38.11 8.09 C 38.50 8.25 39.28 8.56 39.67 8.72 L 40.80 9.22 C 40.70 9.67 40.52 10.56 40.43 11.01 C 39.86 12.75 39.09 14.43 38.05 15.94 C 36.76 17.41 35.38 18.79 34.18 20.33 C 33.35 20.51 31.70 20.89 30.88 21.07 C 31.53 20.34 32.19 19.61 32.85 18.87 C 34.06 17.51 35.25 16.13 36.42 14.73 C 37.56 13.38 38.74 12.06 39.94 10.75 C 37.34 9.68 34.77 8.57 32.26 7.31 C 34.24 4.59 36.47 2.03 39.16 0.00 Z" />
<path fill="#b8ffff" opacity="1.00" d=" M 43.39 0.00 L 43.95 0.00 C 43.74 0.63 43.33 1.89 43.12 2.53 C 41.42 4.35 39.76 6.21 38.11 8.09 C 36.95 7.61 35.79 7.12 34.63 6.64 C 37.01 3.79 39.92 1.39 43.39 0.00 Z" />
<path fill="#030102" opacity="1.00" d=" M 43.95 0.00 L 44.58 0.00 C 45.39 1.24 46.18 2.51 47.02 3.73 C 48.24 4.67 49.52 5.54 50.73 6.50 C 51.84 7.50 52.88 8.57 53.93 9.62 C 55.86 8.65 57.79 7.66 59.73 6.73 C 59.85 6.73 60.07 6.72 60.18 6.72 C 60.21 6.34 60.27 5.57 60.29 5.18 C 60.79 4.95 61.77 4.47 62.26 4.23 C 63.05 5.02 63.83 5.83 64.59 6.66 C 64.92 7.03 65.58 7.78 65.91 8.15 C 66.22 8.66 66.82 9.70 67.13 10.21 C 67.66 12.96 68.03 15.77 67.63 18.57 C 67.35 17.65 67.07 16.75 66.76 15.85 C 66.32 14.57 65.88 13.29 65.38 12.03 C 64.82 10.76 64.23 9.51 63.64 8.26 C 61.60 10.48 59.61 12.84 58.59 15.72 C 58.06 17.06 57.55 18.40 57.05 19.75 C 58.60 19.39 60.15 19.02 61.69 18.59 L 62.51 19.62 C 57.63 21.23 52.80 23.29 48.79 26.57 C 48.38 25.62 47.98 24.67 47.58 23.72 C 47.87 20.81 48.35 17.94 48.69 15.04 C 47.56 16.40 46.45 17.78 45.41 19.20 C 43.73 21.53 42.18 23.96 40.87 26.51 C 39.99 28.49 39.25 30.53 38.53 32.57 C 38.22 32.51 37.61 32.38 37.30 32.31 C 36.99 31.42 36.38 29.62 36.07 28.73 C 35.72 30.02 35.38 31.32 35.08 32.63 C 34.63 34.87 34.51 37.15 34.39 39.43 C 35.70 41.02 37.00 42.63 38.29 44.25 C 37.38 44.40 35.55 44.72 34.64 44.88 C 37.07 47.17 40.21 48.35 43.55 48.34 C 42.37 47.50 41.16 46.71 39.95 45.93 C 39.27 44.68 38.58 43.43 37.92 42.17 C 39.04 40.26 40.05 38.29 41.02 36.30 C 42.22 38.76 43.47 41.19 44.73 43.61 C 45.73 41.40 46.34 38.86 48.20 37.17 C 49.65 36.79 50.94 37.56 51.93 38.54 L 51.24 39.24 L 51.03 40.19 L 51.26 41.02 C 51.32 41.31 51.45 41.89 51.52 42.18 L 51.63 42.79 L 51.63 43.36 C 51.13 44.46 50.64 45.56 50.15 46.67 C 49.11 45.90 48.10 45.11 47.12 44.28 C 46.39 44.48 44.94 44.87 44.21 45.07 C 43.70 44.04 43.19 43.01 42.69 41.98 C 41.55 42.47 40.41 42.96 39.27 43.45 C 41.28 45.05 43.48 46.42 45.82 47.50 C 45.10 47.80 43.66 48.40 42.94 48.70 C 44.63 49.74 46.34 50.80 48.31 51.24 C 50.26 51.40 52.21 51.51 54.16 51.65 C 57.46 48.38 60.53 44.42 60.39 39.51 C 60.43 38.17 60.45 36.84 60.44 35.50 C 61.27 36.79 61.73 38.26 62.09 39.74 C 61.74 40.60 61.39 41.48 61.06 42.35 C 61.62 42.09 62.76 41.57 63.32 41.31 C 64.36 39.11 65.76 37.08 67.94 35.89 C 67.40 36.92 66.87 37.97 66.35 39.03 C 65.02 41.99 65.02 45.30 65.68 48.43 C 67.85 51.20 71.27 52.05 74.63 51.55 C 74.95 50.08 75.24 48.60 75.53 47.13 C 75.88 48.81 77.05 49.87 78.60 50.41 C 80.18 50.98 81.77 51.50 83.39 51.93 L 84.23 51.03 C 85.62 49.44 87.03 47.87 88.28 46.17 C 88.38 45.67 88.59 44.68 88.70 44.18 C 89.21 44.32 90.24 44.59 90.76 44.73 C 91.16 44.58 91.97 44.28 92.37 44.13 C 94.78 43.11 97.32 42.42 99.94 42.29 C 100.33 42.32 101.09 42.39 101.48 42.43 C 105.81 42.20 108.26 45.73 110.34 48.97 C 110.04 53.15 108.78 57.16 107.47 61.11 C 108.66 60.22 109.84 59.32 111.00 58.39 L 111.00 60.04 C 109.24 61.87 107.68 63.92 107.00 66.41 C 108.33 66.49 109.67 66.56 111.00 66.63 L 111.00 67.90 C 109.32 67.95 107.64 68.00 105.96 68.05 C 106.22 68.50 106.74 69.41 107.00 69.86 C 108.33 69.98 109.66 70.10 111.00 70.22 L 111.00 71.55 C 109.66 71.45 108.33 71.34 106.99 71.21 C 106.36 71.46 105.10 71.96 104.46 72.21 C 104.63 69.67 104.60 67.13 104.31 64.60 C 102.69 64.52 101.07 64.44 99.46 64.43 C 97.84 64.49 96.22 64.63 94.62 64.85 C 93.72 65.22 92.86 65.63 92.01 66.10 C 92.00 68.79 95.41 68.45 97.19 69.24 C 99.00 69.75 100.86 69.16 102.67 69.02 L 102.75 69.26 C 102.59 69.78 102.27 70.81 102.10 71.33 C 102.54 71.07 103.41 70.56 103.85 70.31 C 103.66 71.85 103.47 73.39 103.32 74.94 C 103.94 74.31 105.17 73.05 105.78 72.42 C 107.51 72.90 109.25 73.37 111.00 73.81 L 111.00 75.63 C 109.20 75.46 107.40 75.26 105.59 75.20 C 105.38 75.54 104.96 76.23 104.75 76.57 C 103.52 80.42 99.12 79.33 96.03 80.19 C 94.32 78.90 92.17 78.55 90.13 78.16 C 92.25 82.29 94.22 86.51 95.64 90.94 C 97.37 89.78 99.06 88.53 100.99 87.71 C 102.65 87.50 104.44 87.36 105.68 88.72 C 105.75 92.65 105.08 96.62 105.72 100.52 C 106.13 103.17 108.91 103.93 111.00 104.85 L 111.00 106.65 C 108.76 105.90 105.93 105.58 104.75 103.21 C 102.28 99.17 104.23 94.30 103.70 89.88 C 100.95 88.01 98.33 91.55 96.16 92.95 C 96.99 98.34 98.47 104.07 96.76 109.44 C 95.07 109.79 92.76 108.86 91.91 111.00 L 90.85 111.00 C 90.84 110.26 90.83 108.77 90.83 108.02 C 89.19 106.99 87.57 105.93 85.93 104.91 C 86.77 106.97 87.65 109.03 88.69 111.00 L 87.08 111.00 C 86.79 110.52 86.21 109.56 85.92 109.08 C 84.82 106.49 83.92 103.66 81.67 101.82 C 79.51 99.68 77.36 97.55 75.35 95.28 C 73.64 97.07 71.89 98.83 70.29 100.73 C 67.72 103.76 66.22 107.47 64.50 111.00 L 62.62 111.00 C 63.74 107.74 65.18 104.59 66.93 101.63 C 66.33 100.05 65.72 98.47 65.14 96.89 C 63.16 96.91 61.12 96.53 59.18 97.04 C 58.32 97.91 57.59 98.89 56.82 99.85 C 54.33 102.01 52.34 104.65 49.97 106.94 C 51.50 108.32 53.02 109.71 54.63 111.00 L 51.60 111.00 C 50.52 109.78 49.51 108.50 48.49 107.23 C 48.11 107.44 47.34 107.85 46.96 108.06 C 45.11 109.05 43.28 110.07 41.41 111.00 L 38.98 111.00 C 39.68 108.69 40.23 106.33 40.82 103.99 C 40.13 103.91 38.74 103.74 38.04 103.66 C 36.68 103.50 35.33 103.33 33.98 103.15 C 31.95 102.73 29.93 102.32 27.90 101.95 C 27.20 104.94 26.56 107.95 26.11 111.00 L 24.11 111.00 C 24.72 107.84 24.84 104.39 26.66 101.63 C 27.89 99.79 30.48 100.93 32.31 100.60 C 32.84 99.37 33.37 98.15 33.91 96.92 C 33.51 96.48 32.72 95.61 32.32 95.17 C 35.66 86.42 43.24 78.64 52.82 77.40 C 55.29 74.60 59.59 73.44 61.25 70.09 C 58.34 69.27 55.03 69.29 52.57 67.31 C 50.78 65.95 49.12 64.43 47.35 63.05 C 45.88 64.47 44.39 65.89 42.89 67.29 C 42.10 69.06 41.31 70.83 40.48 72.58 C 39.06 71.88 37.64 71.19 36.22 70.49 C 35.31 73.94 35.17 78.42 32.03 80.69 C 26.87 79.06 21.49 79.49 16.96 82.62 C 19.15 85.19 19.85 88.41 19.67 91.71 C 18.42 91.72 17.17 91.74 15.91 91.76 C 13.16 93.65 10.07 94.98 6.79 95.62 C 6.52 94.43 6.24 93.24 5.97 92.06 C 3.43 90.10 2.03 87.23 1.83 84.05 C 2.59 83.43 3.34 82.82 4.09 82.21 C 4.11 74.90 5.58 67.07 10.43 61.36 C 15.65 57.72 23.13 57.83 28.44 61.32 C 29.61 63.14 33.04 60.94 30.60 59.90 C 20.61 56.86 10.19 55.57 0.00 53.39 L 0.00 51.77 C 15.08 54.14 29.95 57.59 44.91 60.63 C 51.51 62.39 58.19 63.91 64.95 64.98 C 68.15 68.11 71.76 70.76 75.61 73.03 C 77.73 71.33 79.75 69.38 82.29 68.33 C 85.14 67.91 87.99 68.71 90.83 68.81 C 89.89 68.23 88.95 67.66 88.00 67.11 C 87.75 66.99 87.24 66.73 86.99 66.61 C 84.95 65.57 82.84 64.65 80.60 64.18 C 71.48 61.44 62.00 60.41 52.79 58.05 C 45.07 56.50 37.35 54.90 29.61 53.39 C 19.77 51.22 9.83 49.50 0.00 47.25 L 0.00 45.98 C 12.61 48.66 25.27 51.10 37.91 53.65 C 38.67 52.57 39.44 51.49 40.22 50.41 C 37.34 49.08 34.70 47.30 32.41 45.10 C 33.03 44.68 34.27 43.82 34.89 43.39 C 29.63 38.23 33.22 30.09 36.88 25.08 C 37.17 25.99 37.74 27.82 38.03 28.73 C 38.84 26.94 39.63 25.14 40.41 23.34 C 38.46 23.99 36.36 24.38 34.59 25.48 C 32.85 28.27 32.03 31.51 30.38 34.35 C 27.79 38.90 23.81 42.41 20.01 45.92 C 13.02 42.98 5.95 39.97 0.00 35.16 L 0.00 32.45 C 5.78 37.19 12.70 40.15 19.12 43.87 C 23.28 39.41 28.04 35.28 30.70 29.68 C 31.93 27.34 32.80 24.47 35.45 23.36 C 36.70 22.99 37.95 22.64 39.20 22.30 C 40.42 18.93 41.64 15.56 43.09 12.28 C 44.46 10.74 46.16 9.36 48.35 9.55 C 46.83 10.67 45.36 11.86 43.87 13.03 C 43.31 15.43 42.68 17.82 42.09 20.21 C 43.72 18.36 45.33 16.49 46.91 14.59 C 48.15 14.00 49.41 13.44 50.67 12.89 C 50.44 16.60 49.98 20.29 49.51 23.98 C 51.49 22.86 53.47 21.74 55.46 20.64 C 56.26 16.34 58.08 12.34 60.58 8.78 C 58.19 9.86 55.86 11.20 53.26 11.72 C 50.95 9.79 49.14 7.35 46.78 5.47 C 45.56 4.49 44.33 3.52 43.12 2.53 C 43.33 1.89 43.74 0.63 43.95 0.00 M 47.53 40.87 C 46.45 42.50 48.61 43.86 49.87 43.73 C 50.79 41.85 49.66 39.76 49.48 37.83 C 48.83 38.84 48.15 39.84 47.53 40.87 M 61.51 44.01 C 60.48 44.69 60.21 45.95 59.64 46.97 L 59.60 47.47 C 58.46 48.89 57.31 50.30 56.09 51.66 C 55.76 52.18 55.09 53.21 54.76 53.72 C 54.24 53.39 53.21 52.71 52.69 52.37 C 52.67 53.91 52.67 55.44 52.69 56.97 C 54.66 56.82 56.64 56.68 58.62 56.55 C 60.33 53.90 62.03 51.25 63.68 48.57 C 63.46 46.91 63.26 45.25 63.07 43.60 C 62.28 42.18 61.76 42.32 61.51 44.01 M 92.74 46.32 L 92.35 46.01 C 89.82 48.32 85.59 50.08 85.40 53.96 C 85.96 58.16 88.83 61.56 91.46 64.70 C 94.83 62.58 98.76 61.95 102.67 62.03 L 102.72 62.47 C 103.64 62.57 104.56 62.64 105.49 62.70 C 105.60 62.04 105.83 60.72 105.94 60.06 C 106.41 58.64 106.63 57.16 106.92 55.70 L 107.48 55.25 C 107.73 53.02 109.09 50.55 107.38 48.55 C 105.02 42.89 97.13 43.74 92.74 46.32 M 40.00 53.95 C 40.40 54.06 41.22 54.28 41.63 54.39 C 44.65 54.87 47.67 55.33 50.70 55.75 C 50.70 55.20 50.71 54.09 50.71 53.53 C 48.47 52.95 46.24 52.29 44.15 51.27 L 43.36 50.35 C 42.22 51.54 41.03 52.68 40.00 53.95 M 64.90 50.57 C 64.58 51.67 64.26 52.76 63.94 53.86 C 62.42 55.33 61.07 56.98 60.09 58.86 C 62.03 58.20 63.50 56.69 63.74 54.58 C 64.34 54.92 65.54 55.61 66.14 55.95 C 64.39 55.64 61.88 59.56 64.78 59.11 C 66.93 59.47 69.09 59.78 71.25 60.06 C 70.84 55.97 67.71 53.20 64.90 50.57 M 76.19 57.27 C 76.71 55.79 76.65 54.01 77.80 52.83 C 77.97 55.10 77.90 57.38 77.85 59.66 C 78.47 58.99 79.09 58.32 79.72 57.65 C 80.26 56.22 80.81 54.79 81.37 53.37 C 82.59 56.79 80.24 59.53 78.15 61.94 C 81.50 62.62 84.84 63.33 88.19 64.02 C 86.74 61.71 85.26 59.41 84.18 56.90 C 83.44 55.43 83.01 53.59 81.36 52.84 C 80.47 52.55 78.69 51.96 77.79 51.67 L 77.77 52.28 C 74.26 51.20 74.15 55.50 76.19 57.27 M 71.46 54.02 C 70.63 54.90 71.63 57.08 72.89 56.43 C 73.75 55.55 72.73 53.34 71.46 54.02 M 16.86 64.55 C 16.81 64.70 16.72 65.01 16.68 65.16 C 16.68 63.83 16.66 62.50 16.60 61.17 C 12.62 62.09 9.92 65.20 9.15 69.14 C 8.70 70.34 8.26 71.55 7.80 72.75 C 7.67 74.49 7.52 76.23 7.38 77.97 C 7.97 75.65 8.45 73.29 9.39 71.07 C 11.68 69.34 12.98 66.72 14.23 64.22 L 15.12 63.44 C 15.58 64.11 16.05 64.77 16.53 65.43 C 13.55 66.07 12.69 69.79 11.42 72.20 C 9.72 74.64 8.60 77.48 8.44 80.46 L 7.92 80.58 C 7.82 82.13 7.74 83.68 7.65 85.23 C 8.10 85.01 9.01 84.57 9.47 84.35 C 10.46 84.37 12.46 84.41 13.46 84.43 C 12.07 85.41 10.55 86.17 8.93 86.73 C 7.57 86.51 6.20 86.40 4.82 86.40 C 5.73 87.80 7.36 88.08 8.88 88.44 C 10.43 87.73 11.98 87.02 13.52 86.30 C 13.52 85.09 13.63 83.89 13.85 82.70 L 14.81 82.42 C 15.05 82.09 15.53 81.45 15.77 81.13 C 18.77 79.73 21.71 77.93 25.08 77.64 C 27.35 77.59 29.54 78.33 31.74 78.83 C 32.55 75.31 36.14 70.37 32.38 67.56 L 32.09 66.77 C 28.52 64.18 24.68 61.32 20.07 61.28 C 18.19 61.08 17.53 63.23 16.86 64.55 M 32.78 61.76 C 32.69 62.58 32.61 63.40 32.53 64.22 C 32.96 64.35 33.82 64.63 34.25 64.77 C 34.77 63.75 35.30 62.74 35.82 61.73 C 34.81 61.74 33.79 61.74 32.78 61.76 M 40.12 62.15 C 40.71 63.41 41.31 64.66 41.90 65.92 C 42.97 64.91 44.04 63.90 45.10 62.89 C 43.44 62.63 41.78 62.39 40.12 62.15 M 33.90 65.71 C 35.30 67.76 37.29 69.20 39.51 70.26 C 40.75 68.15 41.16 65.44 38.92 63.80 C 37.05 61.77 35.13 64.41 33.90 65.71 M 52.39 64.80 C 55.10 67.29 58.85 67.91 62.30 68.71 C 63.51 69.14 64.40 67.89 65.39 67.44 C 61.12 66.30 56.80 65.25 52.39 64.80 M 62.75 70.82 L 63.97 71.45 L 62.74 71.17 C 62.70 71.74 62.61 72.89 62.56 73.47 C 62.96 73.97 63.75 74.96 64.15 75.46 C 64.23 76.63 64.57 77.76 64.82 78.89 C 64.98 79.65 65.30 81.15 65.46 81.91 C 68.11 81.04 69.91 78.75 71.93 76.97 L 72.09 77.06 C 72.85 76.08 73.61 75.10 74.36 74.12 C 71.56 72.40 68.88 70.48 66.27 68.49 C 65.09 69.26 63.92 70.03 62.75 70.82 M 82.72 69.79 C 84.59 72.17 86.64 74.40 88.75 76.57 C 88.93 74.61 89.11 72.66 89.30 70.71 C 87.11 70.33 84.92 70.03 82.72 69.79 M 92.20 69.85 C 91.67 71.81 93.46 72.59 94.72 73.57 C 94.99 73.36 95.53 72.93 95.80 72.72 C 94.61 71.75 93.42 70.78 92.20 69.85 M 80.17 71.63 C 78.86 72.46 77.50 73.28 76.44 74.43 C 76.54 75.68 76.95 76.86 77.25 78.07 C 78.53 76.51 79.91 75.01 80.86 73.22 L 81.62 73.41 C 84.42 72.73 80.65 68.76 80.17 71.63 M 50.32 84.48 L 49.93 84.51 C 51.56 86.48 53.05 88.56 54.57 90.62 C 54.73 90.97 55.04 91.65 55.19 91.99 C 58.61 89.83 61.60 86.87 64.09 83.69 L 63.32 83.34 C 63.36 80.22 62.02 77.39 60.11 75.00 L 60.32 73.71 C 55.89 76.05 52.81 80.25 50.32 84.48 M 82.52 73.48 L 82.67 74.74 C 78.60 78.90 75.82 84.32 74.74 90.03 C 76.76 95.93 82.22 99.92 87.09 103.49 C 88.95 104.55 90.83 105.59 92.75 106.56 C 93.67 107.09 94.61 107.60 95.56 108.09 C 95.68 104.25 95.52 100.40 94.97 96.60 L 94.65 95.88 C 94.66 95.58 94.69 94.98 94.71 94.68 C 91.86 87.19 90.00 77.80 82.52 73.48 M 90.09 73.83 C 90.36 74.86 90.64 75.89 90.92 76.91 C 93.31 77.28 95.81 77.97 98.18 77.02 C 95.63 75.61 92.87 74.66 90.09 73.83 M 74.49 76.19 C 73.20 77.25 72.15 78.56 71.16 79.90 C 69.18 81.29 67.18 82.67 65.52 84.45 C 66.31 85.24 66.85 86.37 67.91 86.85 C 70.43 85.70 72.28 83.57 74.32 81.77 C 75.54 80.33 76.69 77.21 74.49 76.19 M 38.75 88.16 L 38.25 88.45 C 37.14 90.26 36.02 92.06 34.92 93.88 C 36.65 92.27 38.29 90.01 40.98 90.44 C 44.03 91.77 47.13 92.99 50.13 94.44 C 50.89 96.79 55.79 93.16 53.45 91.88 C 52.02 89.45 50.35 87.17 48.56 85.00 C 48.74 84.26 49.10 82.79 49.28 82.06 C 50.44 81.57 50.55 80.29 50.81 79.24 C 46.30 81.44 41.89 84.16 38.75 88.16 M 13.03 89.22 C 11.06 89.40 9.08 89.57 7.11 89.72 C 7.38 90.91 7.65 92.10 7.93 93.29 C 10.11 92.77 12.21 91.98 14.12 90.79 C 15.48 90.48 16.85 90.19 18.22 89.91 C 18.52 87.84 17.98 85.82 16.07 84.72 C 14.80 86.03 13.97 87.68 13.03 89.22 M 67.78 93.77 C 66.41 95.56 67.91 97.81 68.03 99.74 C 70.23 97.94 72.39 96.10 74.52 94.23 C 72.56 91.19 73.42 87.65 73.87 84.33 C 71.46 87.22 69.81 90.63 67.78 93.77 M 62.78 88.33 C 61.26 89.52 59.78 90.76 58.32 92.03 C 58.81 92.44 59.77 93.27 60.26 93.68 C 63.49 96.46 66.19 92.49 67.83 89.98 C 66.94 88.81 65.93 87.74 64.96 86.65 C 64.23 87.20 63.50 87.76 62.78 88.33 M 40.41 92.10 C 38.89 93.72 37.38 95.34 35.96 97.05 C 35.20 98.03 34.62 99.13 33.99 100.18 C 37.15 100.35 40.20 101.23 43.16 102.32 C 44.85 101.86 46.56 101.52 48.30 101.28 C 50.72 100.72 49.90 97.86 50.33 96.04 C 47.06 94.63 43.77 93.27 40.41 92.10 M 51.28 96.34 C 51.10 97.73 51.22 99.12 51.64 100.52 C 53.62 98.91 54.90 96.69 55.88 94.38 C 54.26 94.77 52.51 95.11 51.28 96.34 M 44.23 104.09 C 43.86 105.44 43.48 106.79 43.11 108.15 C 46.16 106.80 49.14 105.26 51.75 103.17 C 51.07 102.86 49.71 102.23 49.03 101.92 C 47.43 102.65 45.83 103.37 44.23 104.09 Z" />
<path fill="#94d6ff" opacity="1.00" d=" M 44.58 0.00 L 46.32 0.00 C 46.37 0.45 46.47 1.35 46.51 1.80 C 46.77 1.54 47.30 1.04 47.56 0.79 L 47.17 0.00 L 53.86 0.00 C 51.62 1.30 49.36 2.59 47.02 3.73 C 46.18 2.51 45.39 1.24 44.58 0.00 Z" />
<path fill="#0f0a34" opacity="1.00" d=" M 46.32 0.00 L 47.17 0.00 L 47.56 0.79 C 47.30 1.04 46.77 1.54 46.51 1.80 C 46.47 1.35 46.37 0.45 46.32 0.00 Z" />
<path fill="#487ad0" opacity="1.00" d=" M 53.86 0.00 L 56.91 0.00 C 54.71 2.03 52.72 4.27 50.73 6.50 C 49.52 5.54 48.24 4.67 47.02 3.73 C 49.36 2.59 51.62 1.30 53.86 0.00 Z" />
<path fill="#332b9a" opacity="1.00" d=" M 56.91 0.00 L 63.30 0.00 C 60.96 1.89 58.53 3.84 57.14 6.58 C 57.79 6.62 59.09 6.69 59.73 6.73 C 57.79 7.66 55.86 8.65 53.93 9.62 C 52.88 8.57 51.84 7.50 50.73 6.50 C 52.72 4.27 54.71 2.03 56.91 0.00 Z" />
<path fill="#4adef8" opacity="1.00" d=" M 63.30 0.00 L 65.44 0.00 C 64.35 1.39 63.31 2.82 62.26 4.23 C 61.77 4.47 60.79 4.95 60.29 5.18 C 60.27 5.57 60.21 6.34 60.18 6.72 C 60.07 6.72 59.85 6.73 59.73 6.73 C 59.09 6.69 57.79 6.62 57.14 6.58 C 58.53 3.84 60.96 1.89 63.30 0.00 Z" />
<path fill="#4b38d1" opacity="1.00" d=" M 65.44 0.00 L 66.54 0.00 C 66.11 0.50 65.24 1.50 64.81 2.00 C 65.45 1.98 66.72 1.93 67.35 1.91 C 66.43 3.49 65.50 5.07 64.59 6.66 C 63.83 5.83 63.05 5.02 62.26 4.23 C 63.31 2.82 64.35 1.39 65.44 0.00 Z" />
<path fill="#0f0a34" opacity="1.00" d=" M 66.54 0.00 L 75.45 0.00 C 78.45 0.88 81.35 2.02 84.25 3.19 C 82.07 3.27 79.93 2.88 77.79 2.55 C 75.94 1.93 73.99 1.51 72.03 1.77 C 70.47 1.82 68.91 1.85 67.35 1.91 C 66.72 1.93 65.45 1.98 64.81 2.00 C 65.24 1.50 66.11 0.50 66.54 0.00 Z" />
<path fill="#3837bd" opacity="1.00" d=" M 75.45 0.00 L 88.48 0.00 C 87.04 1.03 85.67 2.15 84.25 3.19 C 81.35 2.02 78.45 0.88 75.45 0.00 Z" />
<path fill="#59efff" opacity="1.00" d=" M 88.48 0.00 L 94.24 0.00 C 92.45 1.81 90.64 3.60 88.82 5.38 C 86.93 7.32 85.43 9.59 84.04 11.91 C 82.65 11.53 81.26 11.16 79.87 10.82 C 78.18 10.41 76.46 10.15 74.76 9.85 C 74.74 7.93 74.72 6.00 74.72 4.07 C 74.36 3.97 73.63 3.77 73.26 3.67 L 72.76 3.05 C 74.44 3.69 76.16 2.94 77.79 2.55 C 79.93 2.88 82.07 3.27 84.25 3.19 C 85.67 2.15 87.04 1.03 88.48 0.00 Z" />
<path fill="#2c2a8b" opacity="1.00" d=" M 94.24 0.00 L 98.47 0.00 C 95.33 1.66 92.47 3.77 89.48 5.67 C 89.32 5.60 88.99 5.45 88.82 5.38 C 90.64 3.60 92.45 1.81 94.24 0.00 Z" />
<path fill="#030102" opacity="1.00" d=" M 98.47 0.00 L 102.72 0.00 C 97.86 2.69 92.87 5.79 90.77 11.23 C 97.04 7.02 103.17 1.83 111.00 1.04 L 111.00 2.93 C 104.64 3.84 99.03 7.18 94.05 11.07 C 89.30 13.94 84.62 19.49 87.58 25.29 C 90.75 26.02 94.04 25.96 97.18 25.10 C 101.86 23.80 106.57 25.72 111.00 27.11 L 111.00 28.84 C 109.65 28.41 108.30 27.96 106.94 27.55 C 104.08 26.85 101.03 25.69 98.11 26.73 C 94.52 27.70 90.28 29.67 86.90 27.09 C 83.31 24.78 84.55 19.96 85.63 16.60 C 87.08 13.02 89.11 9.72 91.32 6.58 C 90.86 6.35 89.94 5.90 89.48 5.67 C 92.47 3.77 95.33 1.66 98.47 0.00 Z" />
<path fill="#332cac" opacity="1.00" d=" M 102.72 0.00 L 111.00 0.00 L 111.00 1.04 C 103.17 1.83 97.04 7.02 90.77 11.23 C 92.87 5.79 97.86 2.69 102.72 0.00 Z" />
<path fill="#3093d2" opacity="1.00" d=" M 24.87 3.84 C 27.54 2.53 30.33 1.47 33.24 0.82 C 32.03 1.86 30.80 2.88 29.56 3.89 C 29.62 4.58 29.75 5.98 29.81 6.68 C 28.85 6.53 26.92 6.23 25.96 6.07 C 25.69 5.51 25.14 4.40 24.87 3.84 Z" />
<path fill="#4adef8" opacity="1.00" d=" M 67.35 1.91 C 68.91 1.85 70.47 1.82 72.03 1.77 C 72.21 2.09 72.58 2.73 72.76 3.05 L 73.26 3.67 C 72.05 4.18 70.85 4.73 69.65 5.29 C 71.29 5.48 72.94 5.67 74.58 5.84 C 73.46 6.90 72.35 7.95 71.23 9.01 C 71.69 9.91 72.15 10.82 72.61 11.72 C 70.94 14.59 69.60 17.64 68.57 20.80 C 68.31 20.59 67.78 20.18 67.52 19.97 L 67.63 18.57 C 68.03 15.77 67.66 12.96 67.13 10.21 C 67.03 9.76 66.84 8.84 66.74 8.38 L 65.91 8.15 C 65.58 7.78 64.92 7.03 64.59 6.66 C 65.50 5.07 66.43 3.49 67.35 1.91 Z" />
<path fill="#25d6e4" opacity="1.00" d=" M 72.03 1.77 C 73.99 1.51 75.94 1.93 77.79 2.55 C 76.16 2.94 74.44 3.69 72.76 3.05 C 72.58 2.73 72.21 2.09 72.03 1.77 Z" />
<path fill="#487ad0" opacity="1.00" d=" M 38.11 8.09 C 39.76 6.21 41.42 4.35 43.12 2.53 C 44.33 3.52 45.56 4.49 46.78 5.47 C 44.74 7.17 42.26 8.21 39.67 8.72 C 39.28 8.56 38.50 8.25 38.11 8.09 Z" />
<path fill="#ffffff" opacity="1.00" d=" M 69.65 5.29 C 70.85 4.73 72.05 4.18 73.26 3.67 C 73.63 3.77 74.36 3.97 74.72 4.07 C 74.72 6.00 74.74 7.93 74.76 9.85 C 76.57 10.85 78.58 11.60 80.08 13.07 C 80.83 14.94 80.52 17.03 80.74 19.00 C 80.82 22.56 82.12 25.91 83.00 29.32 C 85.81 30.98 88.98 31.78 92.17 32.32 C 96.45 33.72 99.04 38.08 99.94 42.29 C 97.32 42.42 94.78 43.11 92.37 44.13 C 90.97 43.51 89.58 42.88 88.18 42.26 C 88.05 41.29 87.93 40.32 87.80 39.35 C 87.17 39.50 85.89 39.80 85.26 39.94 L 84.42 39.59 C 84.33 39.25 84.17 38.56 84.09 38.22 C 84.46 37.94 85.20 37.38 85.57 37.11 C 84.06 36.40 82.55 35.69 81.04 34.97 C 79.59 36.70 78.18 38.47 76.93 40.35 C 76.70 40.04 76.26 39.41 76.03 39.10 C 75.47 38.84 74.36 38.34 73.80 38.08 C 72.60 38.04 71.40 38.01 70.20 37.97 C 69.65 38.99 69.08 40.00 68.50 41.00 C 68.11 41.32 67.32 41.96 66.92 42.28 C 66.78 41.46 66.50 39.84 66.35 39.03 C 66.87 37.97 67.40 36.92 67.94 35.89 C 68.24 35.63 68.83 35.11 69.13 34.86 C 67.34 33.83 65.34 33.47 63.31 33.83 C 63.34 35.25 63.39 36.68 63.33 38.10 C 63.02 38.51 62.40 39.33 62.09 39.74 C 61.73 38.26 61.27 36.79 60.44 35.50 C 59.98 35.26 59.04 34.79 58.58 34.55 C 57.51 31.42 56.80 28.19 56.24 24.94 C 58.03 23.73 59.72 22.38 61.43 21.05 C 61.59 22.49 61.73 23.93 61.84 25.38 C 61.20 27.61 60.46 29.82 59.80 32.05 C 61.52 32.01 64.09 33.40 65.10 31.29 C 65.71 28.39 65.36 25.38 65.44 22.44 C 65.46 21.08 65.45 19.72 65.43 18.36 C 66.13 18.90 66.82 19.43 67.52 19.97 C 67.78 20.18 68.31 20.59 68.57 20.80 C 69.60 17.64 70.94 14.59 72.61 11.72 C 72.15 10.82 71.69 9.91 71.23 9.01 C 72.35 7.95 73.46 6.90 74.58 5.84 C 72.94 5.67 71.29 5.48 69.65 5.29 Z" />
<path fill="#4350df" opacity="1.00" d=" M 84.04 11.91 C 85.43 9.59 86.93 7.32 88.82 5.38 C 88.99 5.45 89.32 5.60 89.48 5.67 C 89.94 5.90 90.86 6.35 91.32 6.58 C 89.11 9.72 87.08 13.02 85.63 16.60 C 84.47 16.58 83.31 16.56 82.15 16.54 C 82.94 15.21 83.73 13.88 84.52 12.54 C 82.98 11.95 81.44 11.34 79.87 10.82 C 81.26 11.16 82.65 11.53 84.04 11.91 Z" />
<path fill="#4b46ce" opacity="1.00" d=" M 46.78 5.47 C 49.14 7.35 50.95 9.79 53.26 11.72 C 55.86 11.20 58.19 9.86 60.58 8.78 C 58.08 12.34 56.26 16.34 55.46 20.64 C 53.47 21.74 51.49 22.86 49.51 23.98 C 49.98 20.29 50.44 16.60 50.67 12.89 C 49.41 13.44 48.15 14.00 46.91 14.59 C 48.00 12.89 49.01 11.14 50.00 9.38 C 49.59 9.42 48.77 9.51 48.35 9.55 C 46.16 9.36 44.46 10.74 43.09 12.28 C 42.42 11.96 41.09 11.32 40.43 11.01 C 40.52 10.56 40.70 9.67 40.80 9.22 L 39.67 8.72 C 42.26 8.21 44.74 7.17 46.78 5.47 Z" />
<path fill="#c4ffff" opacity="1.00" d=" M 23.82 9.25 C 24.21 8.82 25.00 7.98 25.39 7.55 C 27.25 7.83 29.10 8.16 30.97 8.41 C 32.80 8.99 36.47 9.16 35.72 11.95 C 35.51 14.39 31.81 13.42 30.07 13.50 C 27.71 12.52 24.84 11.92 23.82 9.25 Z" />
<path fill="#57bff6" opacity="1.00" d=" M 31.50 8.21 C 31.69 7.98 32.07 7.53 32.26 7.31 C 34.77 8.57 37.34 9.68 39.94 10.75 C 38.74 12.06 37.56 13.38 36.42 14.73 C 34.48 14.77 32.55 14.82 30.62 14.88 C 30.48 14.53 30.20 13.85 30.07 13.50 C 31.81 13.42 35.51 14.39 35.72 11.95 C 36.47 9.16 32.80 8.99 30.97 8.41 L 31.50 8.21 Z" />
<path fill="#3b4eca" opacity="1.00" d=" M 65.91 8.15 L 66.74 8.38 C 66.84 8.84 67.03 9.76 67.13 10.21 C 66.82 9.70 66.22 8.66 65.91 8.15 Z" />
<path fill="#3342a8" opacity="1.00" d=" M 26.64 19.06 C 25.67 15.80 24.21 12.66 23.82 9.25 C 24.84 11.92 27.71 12.52 30.07 13.50 C 30.20 13.85 30.48 14.53 30.62 14.88 C 30.81 15.37 31.20 16.35 31.39 16.85 C 29.80 17.58 28.22 18.32 26.64 19.06 Z" />
<path fill="#57bff6" opacity="1.00" d=" M 48.35 9.55 C 48.77 9.51 49.59 9.42 50.00 9.38 C 49.01 11.14 48.00 12.89 46.91 14.59 C 45.33 16.49 43.72 18.36 42.09 20.21 C 42.68 17.82 43.31 15.43 43.87 13.03 C 45.36 11.86 46.83 10.67 48.35 9.55 Z" />
<path fill="#78e6fe" opacity="1.00" d=" M 74.76 9.85 C 76.46 10.15 78.18 10.41 79.87 10.82 C 81.44 11.34 82.98 11.95 84.52 12.54 C 83.73 13.88 82.94 15.21 82.15 16.54 C 83.31 16.56 84.47 16.58 85.63 16.60 C 84.55 19.96 83.31 24.78 86.90 27.09 C 90.28 29.67 94.52 27.70 98.11 26.73 C 101.03 25.69 104.08 26.85 106.94 27.55 C 104.80 28.99 103.05 30.92 103.08 33.63 C 99.39 34.15 96.02 32.69 93.19 30.43 C 92.94 30.90 92.43 31.85 92.17 32.32 C 88.98 31.78 85.81 30.98 83.00 29.32 C 82.12 25.91 80.82 22.56 80.74 19.00 C 80.52 17.03 80.83 14.94 80.08 13.07 C 78.58 11.60 76.57 10.85 74.76 9.85 Z" />
<path fill="#7076f6" opacity="1.00" d=" M 38.05 15.94 C 39.09 14.43 39.86 12.75 40.43 11.01 C 41.09 11.32 42.42 11.96 43.09 12.28 C 41.64 15.56 40.42 18.93 39.20 22.30 C 37.95 22.64 36.70 22.99 35.45 23.36 C 36.55 21.93 37.62 20.49 38.69 19.04 C 38.48 18.01 38.26 16.97 38.05 15.94 Z" />
<path fill="#253a4f" opacity="0.46" d=" M 87.58 25.29 C 84.62 19.49 89.30 13.94 94.05 11.07 C 91.19 15.46 89.61 20.50 87.58 25.29 Z" />
<path fill="#0f202f" opacity="0.39" d=" M 65.38 12.03 C 65.88 13.29 66.32 14.57 66.76 15.85 C 65.10 16.82 63.44 17.79 61.69 18.59 C 60.15 19.02 58.60 19.39 57.05 19.75 C 57.55 18.40 58.06 17.06 58.59 15.72 C 58.54 16.51 58.43 18.09 58.38 18.88 C 61.45 17.49 65.10 15.92 65.38 12.03 Z" />
<path fill="#57bff6" opacity="1.00" d=" M 0.00 13.30 C 1.42 13.31 2.84 13.25 4.26 13.21 C 3.80 15.69 2.21 17.58 0.00 18.73 L 0.00 13.30 Z" />
<path fill="#487ad0" opacity="1.00" d=" M 30.62 14.88 C 32.55 14.82 34.48 14.77 36.42 14.73 C 35.25 16.13 34.06 17.51 32.85 18.87 C 32.48 18.37 31.75 17.35 31.39 16.85 C 31.20 16.35 30.81 15.37 30.62 14.88 Z" />
<path fill="#030102" opacity="1.00" d=" M 106.92 19.61 C 108.26 18.02 109.67 16.51 111.00 14.91 L 111.00 18.15 C 109.65 18.67 108.29 19.15 106.92 19.61 Z" />
<path fill="#301a93" opacity="1.00" d=" M 23.24 15.45 C 24.56 19.13 25.32 23.00 26.99 26.55 C 27.04 24.05 26.97 21.54 26.64 19.06 C 28.22 18.32 29.80 17.58 31.39 16.85 C 31.75 17.35 32.48 18.37 32.85 18.87 C 32.19 19.61 31.53 20.34 30.88 21.07 C 31.70 20.89 33.35 20.51 34.18 20.33 C 34.59 21.34 35.02 22.35 35.45 23.36 C 32.80 24.47 31.93 27.34 30.70 29.68 C 28.04 35.28 23.28 39.41 19.12 43.87 C 12.70 40.15 5.78 37.19 0.00 32.45 L 0.00 30.00 C 1.37 30.69 2.78 31.32 4.18 31.96 C 3.41 29.64 2.63 27.33 1.89 25.00 C 3.18 26.06 4.48 27.12 5.69 28.29 C 6.89 29.53 8.03 30.83 9.21 32.09 L 9.68 32.57 C 12.78 30.73 15.48 28.33 18.12 25.90 C 18.77 27.12 19.47 28.31 20.16 29.50 C 21.18 28.36 22.19 27.22 23.21 26.08 C 23.15 22.54 23.28 18.99 23.24 15.45 Z" />
<path fill="#78e6fe" opacity="1.00" d=" M 34.18 20.33 C 35.38 18.79 36.76 17.41 38.05 15.94 C 38.26 16.97 38.48 18.01 38.69 19.04 C 37.62 20.49 36.55 21.93 35.45 23.36 C 35.02 22.35 34.59 21.34 34.18 20.33 Z" />
<path fill="#bbffff" opacity="1.00" d=" M 45.41 19.20 C 46.45 17.78 47.56 16.40 48.69 15.04 C 48.35 17.94 47.87 20.81 47.58 23.72 C 46.86 22.21 46.12 20.71 45.41 19.20 Z" />
<path fill="#193552" opacity="0.90" d=" M 61.69 18.59 C 63.44 17.79 65.10 16.82 66.76 15.85 C 67.07 16.75 67.35 17.65 67.63 18.57 L 67.52 19.97 C 66.82 19.43 66.13 18.90 65.43 18.36 C 65.45 19.72 65.46 21.08 65.44 22.44 C 64.79 22.97 63.50 24.03 62.85 24.57 C 62.96 23.16 63.04 21.74 63.07 20.33 L 62.51 19.62 L 61.69 18.59 Z" />
<path fill="#4b38d1" opacity="1.00" d=" M 10.40 23.17 C 11.33 20.84 13.03 18.93 14.47 16.90 C 15.61 19.93 16.68 22.99 18.12 25.90 C 15.48 28.33 12.78 30.73 9.68 32.57 L 9.21 32.09 C 9.52 29.11 9.60 26.07 10.40 23.17 Z" />
<path fill="#d6a96e" opacity="1.00" d=" M 40.87 26.51 C 42.18 23.96 43.73 21.53 45.41 19.20 C 46.12 20.71 46.86 22.21 47.58 23.72 C 47.98 24.67 48.38 25.62 48.79 26.57 C 48.46 26.86 47.80 27.43 47.47 27.72 C 46.24 28.39 45.03 29.12 43.81 29.82 C 42.79 28.75 41.84 27.62 40.87 26.51 Z" />
<path fill="#abd0dd" opacity="1.00" d=" M 48.79 26.57 C 52.80 23.29 57.63 21.23 62.51 19.62 L 63.07 20.33 C 63.04 21.74 62.96 23.16 62.85 24.57 C 62.60 24.77 62.09 25.17 61.84 25.38 C 61.73 23.93 61.59 22.49 61.43 21.05 C 59.72 22.38 58.03 23.73 56.24 24.94 C 55.26 25.52 54.24 26.06 53.21 26.55 C 51.32 27.04 49.39 27.35 47.47 27.72 C 47.80 27.43 48.46 26.86 48.79 26.57 Z" />
<path fill="#4073c6" opacity="1.00" d=" M 0.00 23.43 C 1.97 24.18 4.00 24.78 6.03 25.38 C 5.94 26.11 5.77 27.56 5.69 28.29 C 4.48 27.12 3.18 26.06 1.89 25.00 C 2.63 27.33 3.41 29.64 4.18 31.96 C 2.78 31.32 1.37 30.69 0.00 30.00 L 0.00 23.43 Z" />
<path fill="#c6ffff" opacity="1.00" d=" M 62.85 24.57 C 63.50 24.03 64.79 22.97 65.44 22.44 C 65.36 25.38 65.71 28.39 65.10 31.29 C 64.09 33.40 61.52 32.01 59.80 32.05 C 60.46 29.82 61.20 27.61 61.84 25.38 C 62.09 25.17 62.60 24.77 62.85 24.57 Z" />
<path fill="#edddbe" opacity="1.00" d=" M 53.21 26.55 C 54.24 26.06 55.26 25.52 56.24 24.94 C 56.80 28.19 57.51 31.42 58.58 34.55 C 58.24 35.57 57.92 36.59 57.65 37.63 L 57.23 39.49 C 56.47 39.32 54.95 38.97 54.19 38.80 C 54.49 38.30 55.10 37.30 55.40 36.80 C 56.02 36.13 56.62 35.45 57.22 34.76 C 56.23 31.87 54.61 29.25 53.21 26.55 Z" />
<path fill="#bc7951" opacity="1.00" d=" M 38.53 32.57 C 39.25 30.53 39.99 28.49 40.87 26.51 C 41.84 27.62 42.79 28.75 43.81 29.82 L 45.06 31.09 C 42.97 31.92 40.80 32.58 38.53 32.57 Z" />
<path fill="#debb8f" opacity="1.00" d=" M 47.47 27.72 C 49.39 27.35 51.32 27.04 53.21 26.55 C 54.61 29.25 56.23 31.87 57.22 34.76 C 56.62 35.45 56.02 36.13 55.40 36.80 C 56.19 34.32 53.80 34.21 52.03 34.16 C 51.51 33.40 51.00 32.65 50.48 31.89 C 49.08 33.62 47.69 35.37 46.30 37.11 C 46.51 35.72 46.71 34.33 46.92 32.94 C 46.30 32.32 45.68 31.71 45.06 31.09 L 43.81 29.82 C 45.03 29.12 46.24 28.39 47.47 27.72 Z" />
<path fill="#8577ff" opacity="1.00" d=" M 106.94 27.55 C 108.30 27.96 109.65 28.41 111.00 28.84 L 111.00 33.17 C 109.19 34.52 107.25 35.69 105.56 37.19 C 104.08 38.84 102.79 40.64 101.48 42.43 C 101.09 42.39 100.33 42.32 99.94 42.29 C 99.04 38.08 96.45 33.72 92.17 32.32 C 92.43 31.85 92.94 30.90 93.19 30.43 C 96.02 32.69 99.39 34.15 103.08 33.63 C 103.05 30.92 104.80 28.99 106.94 27.55 Z" />
<path fill="#c4ffff" opacity="1.00" d=" M 35.08 32.63 C 35.38 31.32 35.72 30.02 36.07 28.73 C 36.38 29.62 36.99 31.42 37.30 32.31 C 37.23 32.99 37.14 33.66 37.03 34.33 C 36.54 33.91 35.57 33.06 35.08 32.63 Z" />
<path fill="#af6646" opacity="1.00" d=" M 38.53 32.57 C 40.80 32.58 42.97 31.92 45.06 31.09 C 45.68 31.71 46.30 32.32 46.92 32.94 C 46.71 34.33 46.51 35.72 46.30 37.11 C 47.69 35.37 49.08 33.62 50.48 31.89 C 51.00 32.65 51.51 33.40 52.03 34.16 C 53.80 34.21 56.19 34.32 55.40 36.80 C 55.10 37.30 54.49 38.30 54.19 38.80 C 54.95 38.97 56.47 39.32 57.23 39.49 C 56.83 41.26 56.21 42.97 55.53 44.65 C 55.19 43.25 54.86 41.86 54.53 40.46 C 54.20 40.38 53.54 40.22 53.21 40.14 C 52.89 39.74 52.25 38.94 51.93 38.54 C 50.94 37.56 49.65 36.79 48.20 37.17 C 46.34 38.86 45.73 41.40 44.73 43.61 C 43.47 41.19 42.22 38.76 41.02 36.30 C 40.05 38.29 39.04 40.26 37.92 42.17 C 36.11 39.85 36.49 37.00 37.03 34.33 C 37.14 33.66 37.23 32.99 37.30 32.31 C 37.61 32.38 38.22 32.51 38.53 32.57 Z" />
<path fill="#e7b875" opacity="1.00" d=" M 34.39 39.43 C 34.51 37.15 34.63 34.87 35.08 32.63 C 35.57 33.06 36.54 33.91 37.03 34.33 C 36.49 37.00 36.11 39.85 37.92 42.17 C 38.58 43.43 39.27 44.68 39.95 45.93 C 41.16 46.71 42.37 47.50 43.55 48.34 C 40.21 48.35 37.07 47.17 34.64 44.88 C 35.55 44.72 37.38 44.40 38.29 44.25 C 37.00 42.63 35.70 41.02 34.39 39.43 Z" />
<path fill="#b8ffff" opacity="1.00" d=" M 63.31 33.83 C 65.34 33.47 67.34 33.83 69.13 34.86 C 68.83 35.11 68.24 35.63 67.94 35.89 C 65.76 37.08 64.36 39.11 63.32 41.31 C 62.76 41.57 61.62 42.09 61.06 42.35 C 61.39 41.48 61.74 40.60 62.09 39.74 C 62.40 39.33 63.02 38.51 63.33 38.10 C 63.39 36.68 63.34 35.25 63.31 33.83 Z" />
<path fill="#0f1024" opacity="0.95" d=" M 105.56 37.19 C 107.25 35.69 109.19 34.52 111.00 33.17 L 111.00 35.09 C 109.50 36.45 107.94 37.75 106.40 39.07 C 107.93 40.12 109.49 41.14 111.00 42.23 L 111.00 44.35 C 108.05 43.07 103.73 41.21 105.56 37.19 Z" />
<path fill="#b6be94" opacity="1.00" d=" M 58.58 34.55 C 59.04 34.79 59.98 35.26 60.44 35.50 C 60.45 36.84 60.43 38.17 60.39 39.51 L 58.59 39.36 C 58.68 39.02 58.85 38.34 58.94 37.99 C 58.62 37.90 57.97 37.72 57.65 37.63 C 57.92 36.59 58.24 35.57 58.58 34.55 Z" />
<path fill="#76fcfb" opacity="1.00" d=" M 76.93 40.35 C 78.18 38.47 79.59 36.70 81.04 34.97 C 82.55 35.69 84.06 36.40 85.57 37.11 C 85.20 37.38 84.46 37.94 84.09 38.22 C 83.20 38.88 82.31 39.56 81.43 40.23 C 81.93 41.52 82.43 42.80 82.93 44.09 C 80.96 42.53 78.17 41.08 79.37 38.04 C 78.76 38.61 77.54 39.77 76.93 40.35 Z" />
<path fill="#3f67dc" opacity="1.00" d=" M 101.48 42.43 C 102.79 40.64 104.08 38.84 105.56 37.19 C 103.73 41.21 108.05 43.07 111.00 44.35 L 111.00 49.91 L 110.34 48.97 C 108.26 45.73 105.81 42.20 101.48 42.43 Z" />
<path fill="#fff3a3" opacity="1.00" d=" M 47.53 40.87 C 48.15 39.84 48.83 38.84 49.48 37.83 C 49.66 39.76 50.79 41.85 49.87 43.73 C 48.61 43.86 46.45 42.50 47.53 40.87 Z" />
<path fill="#000000" opacity="1.00" d=" M 57.65 37.63 C 57.97 37.72 58.62 37.90 58.94 37.99 C 58.85 38.34 58.68 39.02 58.59 39.36 C 58.02 42.48 56.61 45.39 54.05 47.34 C 53.69 45.15 53.33 42.95 52.84 40.79 L 53.21 40.14 C 53.54 40.22 54.20 40.38 54.53 40.46 C 54.86 41.86 55.19 43.25 55.53 44.65 C 56.21 42.97 56.83 41.26 57.23 39.49 L 57.65 37.63 Z" />
<path fill="#ccb5f4" opacity="1.00" d=" M 70.20 37.97 C 71.40 38.01 72.60 38.04 73.80 38.08 C 74.36 38.34 75.47 38.84 76.03 39.10 C 76.26 39.41 76.70 40.04 76.93 40.35 C 76.78 40.49 76.49 40.77 76.34 40.91 C 73.73 40.21 70.89 38.99 68.50 41.00 C 69.08 40.00 69.65 38.99 70.20 37.97 Z" />
<path fill="#9ae5ff" opacity="1.00" d=" M 73.80 38.08 C 74.36 38.34 75.47 38.84 76.03 39.10 C 75.47 38.84 74.36 38.34 73.80 38.08 Z" />
<path fill="#bbe8f0" opacity="1.00" d=" M 81.43 40.23 C 82.31 39.56 83.20 38.88 84.09 38.22 C 84.17 38.56 84.33 39.25 84.42 39.59 C 84.01 41.07 84.86 42.71 86.47 42.91 C 88.76 42.75 86.18 40.27 85.26 39.94 C 85.89 39.80 87.17 39.50 87.80 39.35 C 87.93 40.32 88.05 41.29 88.18 42.26 C 89.58 42.88 90.97 43.51 92.37 44.13 C 91.97 44.28 91.16 44.58 90.76 44.73 C 90.24 44.59 89.21 44.32 88.70 44.18 C 88.59 44.68 88.38 45.67 88.28 46.17 C 87.28 45.95 85.28 45.51 84.28 45.28 C 83.84 44.87 83.39 44.47 82.93 44.09 C 82.43 42.80 81.93 41.52 81.43 40.23 Z" />
<path fill="#e4e9e9" opacity="1.00" d=" M 51.24 39.24 L 51.93 38.54 C 52.25 38.94 52.89 39.74 53.21 40.14 L 52.84 40.79 L 52.02 41.03 L 51.26 41.02 L 51.03 40.19 L 51.24 39.24 Z" />
<path fill="#f7a8bf" opacity="1.00" d=" M 65.68 48.43 C 65.02 45.30 65.02 41.99 66.35 39.03 C 66.50 39.84 66.78 41.46 66.92 42.28 C 67.32 41.96 68.11 41.32 68.50 41.00 C 70.89 38.99 73.73 40.21 76.34 40.91 C 75.70 42.02 75.14 43.16 74.67 44.34 C 74.22 45.67 73.91 47.05 73.57 48.41 C 70.94 48.49 68.31 48.46 65.68 48.43 Z" />
<path fill="#000000" opacity="1.00" d=" M 76.93 40.35 C 77.54 39.77 78.76 38.61 79.37 38.04 C 78.17 41.08 80.96 42.53 82.93 44.09 C 83.39 44.47 83.84 44.87 84.28 45.28 C 84.67 45.75 85.46 46.67 85.86 47.13 C 83.97 45.91 82.14 44.59 80.32 43.26 C 79.53 42.60 78.75 41.92 77.99 41.23 C 77.16 42.85 76.33 44.47 75.50 46.09 L 75.27 45.70 C 75.12 45.36 74.82 44.68 74.67 44.34 C 75.14 43.16 75.70 42.02 76.34 40.91 C 76.49 40.77 76.78 40.49 76.93 40.35 Z" />
<path fill="#a2aae7" opacity="1.00" d=" M 58.59 39.36 L 60.39 39.51 C 60.53 44.42 57.46 48.38 54.16 51.65 C 52.21 51.51 50.26 51.40 48.31 51.24 C 48.05 49.97 47.79 48.70 47.52 47.43 C 47.10 47.45 46.24 47.48 45.82 47.50 C 43.48 46.42 41.28 45.05 39.27 43.45 C 40.41 42.96 41.55 42.47 42.69 41.98 C 43.19 43.01 43.70 44.04 44.21 45.07 C 44.94 44.87 46.39 44.48 47.12 44.28 C 48.10 45.11 49.11 45.90 50.15 46.67 C 50.64 45.56 51.13 44.46 51.63 43.36 L 51.63 42.79 L 51.52 42.18 C 51.45 41.89 51.32 41.31 51.26 41.02 L 52.02 41.03 L 52.84 40.79 C 53.33 42.95 53.69 45.15 54.05 47.34 C 56.61 45.39 58.02 42.48 58.59 39.36 Z" />
<path fill="#000000" opacity="1.00" d=" M 86.47 42.91 C 84.86 42.71 84.01 41.07 84.42 39.59 L 85.26 39.94 C 86.18 40.27 88.76 42.75 86.47 42.91 Z" />
<path fill="#f7a8bf" opacity="1.00" d=" M 75.50 46.09 C 76.33 44.47 77.16 42.85 77.99 41.23 C 78.75 41.92 79.53 42.60 80.32 43.26 L 78.91 43.48 C 77.81 44.43 76.74 45.41 75.66 46.38 L 75.50 46.09 Z" />
<path fill="#8b9daf" opacity="1.00" d=" M 61.51 44.01 C 61.76 42.32 62.28 42.18 63.07 43.60 C 62.68 43.70 61.90 43.90 61.51 44.01 Z" />
<path fill="#841650" opacity="1.00" d=" M 61.51 44.01 C 61.90 43.90 62.68 43.70 63.07 43.60 C 63.26 45.25 63.46 46.91 63.68 48.57 C 62.03 51.25 60.33 53.90 58.62 56.55 C 56.64 56.68 54.66 56.82 52.69 56.97 C 52.67 55.44 52.67 53.91 52.69 52.37 C 53.21 52.71 54.24 53.39 54.76 53.72 C 54.94 54.47 55.30 55.97 55.48 56.72 C 55.93 56.21 56.84 55.20 57.29 54.69 C 58.76 52.56 59.54 50.05 59.60 47.47 L 59.64 46.97 C 60.21 45.95 60.48 44.69 61.51 44.01 Z" />
<path fill="#911653" opacity="1.00" d=" M 73.57 48.41 C 73.91 47.05 74.22 45.67 74.67 44.34 C 74.82 44.68 75.12 45.36 75.27 45.70 L 75.50 46.09 L 75.66 46.38 L 75.53 47.13 C 75.24 48.60 74.95 50.08 74.63 51.55 C 71.27 52.05 67.85 51.20 65.68 48.43 C 68.31 48.46 70.94 48.49 73.57 48.41 Z" />
<path fill="#cb5d32" opacity="1.00" d=" M 75.66 46.38 C 76.74 45.41 77.81 44.43 78.91 43.48 L 80.32 43.26 C 82.14 44.59 83.97 45.91 85.86 47.13 C 85.46 46.67 84.67 45.75 84.28 45.28 C 85.28 45.51 87.28 45.95 88.28 46.17 C 87.03 47.87 85.62 49.44 84.23 51.03 C 83.16 50.42 82.09 49.82 81.02 49.21 C 80.42 49.51 79.21 50.11 78.60 50.41 C 77.05 49.87 75.88 48.81 75.53 47.13 L 75.66 46.38 Z" />
<path fill="#b8ffff" opacity="1.00" d=" M 92.74 46.32 C 97.13 43.74 105.02 42.89 107.38 48.55 C 109.09 50.55 107.73 53.02 107.48 55.25 C 106.78 51.90 105.19 48.57 101.79 47.27 C 101.54 47.42 101.04 47.73 100.80 47.89 L 99.74 48.66 C 99.26 48.29 98.31 47.55 97.83 47.18 C 96.50 45.82 94.45 45.82 92.74 46.32 Z" />
<path fill="#cc3342" opacity="1.00" d=" M 92.35 46.01 L 92.74 46.32 C 94.03 47.74 96.12 47.77 97.83 47.18 C 98.31 47.55 99.26 48.29 99.74 48.66 C 99.58 49.84 99.43 51.03 99.30 52.22 C 100.04 52.94 100.77 53.66 101.50 54.39 C 101.99 56.92 102.42 59.46 102.67 62.03 C 98.76 61.95 94.83 62.58 91.46 64.70 C 88.83 61.56 85.96 58.16 85.40 53.96 C 85.59 50.08 89.82 48.32 92.35 46.01 M 90.94 48.00 C 88.60 49.37 83.37 53.00 86.94 55.43 C 89.13 53.40 91.44 51.51 93.73 49.59 C 94.35 47.82 92.28 46.39 90.94 48.00 Z" />
<path fill="#f7a8bf" opacity="1.00" d=" M 92.74 46.32 C 94.45 45.82 96.50 45.82 97.83 47.18 C 96.12 47.77 94.03 47.74 92.74 46.32 Z" />
<path fill="#ffffff" opacity="1.00" d=" M 45.82 47.50 C 46.24 47.48 47.10 47.45 47.52 47.43 C 47.79 48.70 48.05 49.97 48.31 51.24 C 46.34 50.80 44.63 49.74 42.94 48.70 C 43.66 48.40 45.10 47.80 45.82 47.50 Z" />
<path fill="#f8ffff" opacity="1.00" d=" M 100.80 47.89 C 101.04 47.73 101.54 47.42 101.79 47.27 C 105.19 48.57 106.78 51.90 107.48 55.25 L 106.92 55.70 C 105.93 56.47 104.95 57.23 103.96 57.99 C 103.78 55.72 102.79 53.68 101.58 51.80 C 101.31 50.49 101.05 49.19 100.80 47.89 Z" />
<path fill="#5e5d5f" opacity="1.00" d=" M 0.00 47.25 C 9.83 49.50 19.77 51.22 29.61 53.39 C 37.35 54.90 45.07 56.50 52.79 58.05 C 62.00 60.41 71.48 61.44 80.60 64.18 C 77.99 64.42 75.28 65.01 72.74 64.07 C 69.52 63.19 66.05 60.68 62.88 63.13 C 54.16 61.46 45.77 58.39 37.01 56.93 C 27.16 55.67 17.65 52.58 7.76 51.49 C 5.19 50.42 2.59 49.42 0.00 48.41 L 0.00 47.25 Z" />
<path fill="#ae483d" opacity="1.00" d=" M 59.60 47.47 C 59.54 50.05 58.76 52.56 57.29 54.69 C 56.89 53.68 56.49 52.67 56.09 51.66 C 57.31 50.30 58.46 48.89 59.60 47.47 Z" />
<path fill="#d9d5aa" opacity="1.00" d=" M 90.94 48.00 C 92.28 46.39 94.35 47.82 93.73 49.59 C 91.44 51.51 89.13 53.40 86.94 55.43 C 83.37 53.00 88.60 49.37 90.94 48.00 Z" />
<path fill="#57bff6" opacity="1.00" d=" M 99.74 48.66 L 100.80 47.89 C 101.05 49.19 101.31 50.49 101.58 51.80 C 102.79 53.68 103.78 55.72 103.96 57.99 C 104.12 59.22 104.29 60.45 104.47 61.67 C 104.97 61.14 105.46 60.60 105.94 60.06 C 105.83 60.72 105.60 62.04 105.49 62.70 C 104.56 62.64 103.64 62.57 102.72 62.47 L 102.67 62.03 C 102.42 59.46 101.99 56.92 101.50 54.39 C 100.77 53.66 100.04 52.94 99.30 52.22 C 99.43 51.03 99.58 49.84 99.74 48.66 Z" />
<path fill="#383837" opacity="1.00" d=" M 0.00 48.41 C 2.59 49.42 5.19 50.42 7.76 51.49 C 5.16 51.22 2.56 50.97 0.00 50.47 L 0.00 48.41 Z" />
<path fill="#c95008" opacity="1.00" d=" M 78.60 50.41 C 79.21 50.11 80.42 49.51 81.02 49.21 C 82.09 49.82 83.16 50.42 84.23 51.03 L 83.39 51.93 C 81.77 51.50 80.18 50.98 78.60 50.41 Z" />
<path fill="#31229d" opacity="1.00" d=" M 110.34 48.97 L 111.00 49.91 L 111.00 58.39 C 109.84 59.32 108.66 60.22 107.47 61.11 C 108.78 57.16 110.04 53.15 110.34 48.97 Z" />
<path fill="#ffffff" opacity="1.00" d=" M 0.00 50.47 C 2.56 50.97 5.16 51.22 7.76 51.49 C 17.65 52.58 27.16 55.67 37.01 56.93 C 45.77 58.39 54.16 61.46 62.88 63.13 C 67.75 63.72 71.54 67.02 75.57 69.48 C 78.85 67.03 83.04 66.73 86.99 66.61 C 87.24 66.73 87.75 66.99 88.00 67.11 C 88.95 67.66 89.89 68.23 90.83 68.81 C 87.99 68.71 85.14 67.91 82.29 68.33 C 79.75 69.38 77.73 71.33 75.61 73.03 C 71.76 70.76 68.15 68.11 64.95 64.98 C 58.19 63.91 51.51 62.39 44.91 60.63 C 29.95 57.59 15.08 54.14 0.00 51.77 L 0.00 50.47 Z" />
<path fill="#c4ffff" opacity="1.00" d=" M 40.00 53.95 C 41.03 52.68 42.22 51.54 43.36 50.35 L 44.15 51.27 C 43.31 52.32 42.50 53.38 41.63 54.39 C 41.22 54.28 40.40 54.06 40.00 53.95 Z" />
<path fill="#c0305d" opacity="1.00" d=" M 44.15 51.27 C 46.24 52.29 48.47 52.95 50.71 53.53 C 50.71 54.09 50.70 55.20 50.70 55.75 C 47.67 55.33 44.65 54.87 41.63 54.39 C 42.50 53.38 43.31 52.32 44.15 51.27 Z" />
<path fill="#4d0c3f" opacity="1.00" d=" M 64.90 50.57 C 67.71 53.20 70.84 55.97 71.25 60.06 C 69.09 59.78 66.93 59.47 64.78 59.11 C 65.34 58.32 67.25 56.87 66.14 55.95 C 65.54 55.61 64.34 54.92 63.74 54.58 L 63.94 53.86 C 64.26 52.76 64.58 51.67 64.90 50.57 Z" />
<path fill="#fff3a3" opacity="1.00" d=" M 54.76 53.72 C 55.09 53.21 55.76 52.18 56.09 51.66 C 56.49 52.67 56.89 53.68 57.29 54.69 C 56.84 55.20 55.93 56.21 55.48 56.72 C 55.30 55.97 54.94 54.47 54.76 53.72 Z" />
<path fill="#a2aae7" opacity="1.00" d=" M 76.19 57.27 C 74.15 55.50 74.26 51.20 77.77 52.28 L 77.80 52.83 C 76.65 54.01 76.71 55.79 76.19 57.27 Z" />
<path fill="#aa4787" opacity="1.00" d=" M 77.77 52.28 L 77.79 51.67 C 79.10 53.39 79.25 55.62 79.72 57.65 C 79.09 58.32 78.47 58.99 77.85 59.66 C 77.90 57.38 77.97 55.10 77.80 52.83 L 77.77 52.28 Z" />
<path fill="#89f9ff" opacity="1.00" d=" M 77.79 51.67 C 78.69 51.96 80.47 52.55 81.36 52.84 L 81.37 53.37 C 80.81 54.79 80.26 56.22 79.72 57.65 C 79.25 55.62 79.10 53.39 77.79 51.67 Z" />
<path fill="#2f1c91" opacity="1.00" d=" M 81.36 52.84 C 83.01 53.59 83.44 55.43 84.18 56.90 C 85.26 59.41 86.74 61.71 88.19 64.02 C 84.84 63.33 81.50 62.62 78.15 61.94 C 80.24 59.53 82.59 56.79 81.37 53.37 L 81.36 52.84 Z" />
<path fill="#c0305d" opacity="1.00" d=" M 60.09 58.86 C 61.07 56.98 62.42 55.33 63.94 53.86 L 63.74 54.58 C 63.50 56.69 62.03 58.20 60.09 58.86 Z" />
<path fill="#3a0a30" opacity="1.00" d=" M 71.46 54.02 C 72.73 53.34 73.75 55.55 72.89 56.43 C 71.63 57.08 70.63 54.90 71.46 54.02 Z" />
<path fill="#8a2447" opacity="1.00" d=" M 64.78 59.11 C 61.88 59.56 64.39 55.64 66.14 55.95 C 67.25 56.87 65.34 58.32 64.78 59.11 Z" />
<path fill="#b8ffff" opacity="1.00" d=" M 103.96 57.99 C 104.95 57.23 105.93 56.47 106.92 55.70 C 106.63 57.16 106.41 58.64 105.94 60.06 C 105.46 60.60 104.97 61.14 104.47 61.67 C 104.29 60.45 104.12 59.22 103.96 57.99 Z" />
<path fill="#3b2231" opacity="0.81" d=" M 30.60 59.90 C 33.04 60.94 29.61 63.14 28.44 61.32 C 28.98 60.96 30.06 60.25 30.60 59.90 Z" />
<path fill="#bbffff" opacity="1.00" d=" M 16.86 64.55 C 17.53 63.23 18.19 61.08 20.07 61.28 C 24.68 61.32 28.52 64.18 32.09 66.77 C 26.99 65.91 22.03 61.50 16.86 64.55 Z" />
<path fill="#bbffff" opacity="1.00" d=" M 32.78 61.76 C 33.79 61.74 34.81 61.74 35.82 61.73 C 35.30 62.74 34.77 63.75 34.25 64.77 C 33.82 64.63 32.96 64.35 32.53 64.22 C 32.61 63.40 32.69 62.58 32.78 61.76 Z" />
<path fill="#b8ffff" opacity="1.00" d=" M 9.15 69.14 C 9.92 65.20 12.62 62.09 16.60 61.17 C 16.66 62.50 16.68 63.83 16.68 65.16 L 16.65 65.41 L 16.53 65.43 C 16.05 64.77 15.58 64.11 15.12 63.44 L 14.23 64.22 C 11.84 65.86 10.25 68.33 9.39 71.07 C 8.45 73.29 7.97 75.65 7.38 77.97 C 7.52 76.23 7.67 74.49 7.80 72.75 C 8.26 71.55 8.70 70.34 9.15 69.14 Z" />
<path fill="#cc3c5e" opacity="1.00" d=" M 40.12 62.15 C 41.78 62.39 43.44 62.63 45.10 62.89 C 44.04 63.90 42.97 64.91 41.90 65.92 C 41.31 64.66 40.71 63.41 40.12 62.15 Z" />
<path fill="#242424" opacity="1.00" d=" M 62.88 63.13 C 66.05 60.68 69.52 63.19 72.74 64.07 C 75.28 65.01 77.99 64.42 80.60 64.18 C 82.84 64.65 84.95 65.57 86.99 66.61 C 83.04 66.73 78.85 67.03 75.57 69.48 C 71.54 67.02 67.75 63.72 62.88 63.13 Z" />
<path fill="#c62e2c" opacity="1.00" d=" M 16.86 64.55 C 22.03 61.50 26.99 65.91 32.09 66.77 L 32.38 67.56 C 32.65 69.21 33.16 71.36 31.34 72.36 C 29.31 72.90 27.19 72.79 25.12 73.00 C 24.47 72.00 23.82 71.01 23.17 70.01 C 20.40 72.44 18.13 75.70 14.51 76.91 C 16.56 74.30 18.30 71.41 18.95 68.11 C 16.28 69.13 13.66 70.38 11.42 72.20 C 12.69 69.79 13.55 66.07 16.53 65.43 L 16.65 65.41 L 16.68 65.16 C 16.72 65.01 16.81 64.70 16.86 64.55 Z" />
<path fill="#941b57" opacity="1.00" d=" M 33.90 65.71 C 35.13 64.41 37.05 61.77 38.92 63.80 C 41.16 65.44 40.75 68.15 39.51 70.26 C 37.29 69.20 35.30 67.76 33.90 65.71 Z" />
<path fill="#ca3541" opacity="1.00" d=" M 94.62 64.85 C 96.22 64.63 97.84 64.49 99.46 64.43 C 100.32 64.90 101.18 65.38 102.05 65.85 C 102.20 66.64 102.51 68.22 102.67 69.02 C 100.86 69.16 99.00 69.75 97.19 69.24 C 96.29 67.80 95.46 66.33 94.62 64.85 Z" />
<path fill="#94d6ff" opacity="1.00" d=" M 99.46 64.43 C 101.07 64.44 102.69 64.52 104.31 64.60 C 104.60 67.13 104.63 69.67 104.46 72.21 C 105.10 71.96 106.36 71.46 106.99 71.21 C 108.33 71.34 109.66 71.45 111.00 71.55 L 111.00 73.81 C 109.25 73.37 107.51 72.90 105.78 72.42 C 105.17 73.05 103.94 74.31 103.32 74.94 C 103.47 73.39 103.66 71.85 103.85 70.31 C 103.41 70.56 102.54 71.07 102.10 71.33 C 102.27 70.81 102.59 69.78 102.75 69.26 L 102.67 69.02 C 102.51 68.22 102.20 66.64 102.05 65.85 C 101.18 65.38 100.32 64.90 99.46 64.43 Z" />
<path fill="#be7209" opacity="1.00" d=" M 9.39 71.07 C 10.25 68.33 11.84 65.86 14.23 64.22 C 12.98 66.72 11.68 69.34 9.39 71.07 Z" />
<path fill="#560342" opacity="1.00" d=" M 52.39 64.80 C 56.80 65.25 61.12 66.30 65.39 67.44 C 64.40 67.89 63.51 69.14 62.30 68.71 C 58.85 67.91 55.10 67.29 52.39 64.80 Z" />
<path fill="#bc7951" opacity="1.00" d=" M 92.01 66.10 C 92.86 65.63 93.72 65.22 94.62 64.85 C 95.46 66.33 96.29 67.80 97.19 69.24 C 95.41 68.45 92.00 68.79 92.01 66.10 Z" />
<path fill="#f8e3b0" opacity="1.00" d=" M 11.42 72.20 C 13.66 70.38 16.28 69.13 18.95 68.11 C 18.30 71.41 16.56 74.30 14.51 76.91 C 12.96 78.83 11.01 80.37 8.44 80.46 C 8.60 77.48 9.72 74.64 11.42 72.20 Z" />
<path fill="#931b58" opacity="1.00" d=" M 32.38 67.56 C 36.14 70.37 32.55 75.31 31.74 78.83 C 29.54 78.33 27.35 77.59 25.08 77.64 C 21.71 77.93 18.77 79.73 15.77 81.13 C 18.14 77.68 21.47 75.00 25.12 73.00 C 27.19 72.79 29.31 72.90 31.34 72.36 C 33.16 71.36 32.65 69.21 32.38 67.56 Z" />
<path fill="#2e318c" opacity="1.00" d=" M 105.96 68.05 C 107.64 68.00 109.32 67.95 111.00 67.90 L 111.00 70.22 C 109.66 70.10 108.33 69.98 107.00 69.86 C 106.74 69.41 106.22 68.50 105.96 68.05 Z" />
<path fill="#861358" opacity="1.00" d=" M 62.75 70.82 C 63.92 70.03 65.09 69.26 66.27 68.49 C 68.88 70.48 71.56 72.40 74.36 74.12 C 73.61 75.10 72.85 76.08 72.09 77.06 L 71.93 76.97 C 71.64 76.82 71.07 76.52 70.78 76.37 C 68.97 74.92 67.22 73.39 65.27 72.13 C 64.94 71.96 64.29 71.62 63.97 71.45 L 62.75 70.82 Z" />
<path fill="#be7209" opacity="1.00" d=" M 23.17 70.01 C 23.82 71.01 24.47 72.00 25.12 73.00 C 21.47 75.00 18.14 77.68 15.77 81.13 C 15.53 81.45 15.05 82.09 14.81 82.42 L 13.85 82.70 C 12.36 83.16 10.88 83.69 9.47 84.35 C 9.01 84.57 8.10 85.01 7.65 85.23 C 7.74 83.68 7.82 82.13 7.92 80.58 L 8.44 80.46 C 11.01 80.37 12.96 78.83 14.51 76.91 C 18.13 75.70 20.40 72.44 23.17 70.01 Z" />
<path fill="#2f1d7c" opacity="1.00" d=" M 82.72 69.79 C 84.92 70.03 87.11 70.33 89.30 70.71 C 89.11 72.66 88.93 74.61 88.75 76.57 C 86.64 74.40 84.59 72.17 82.72 69.79 Z" />
<path fill="#ce4784" opacity="1.00" d=" M 92.20 69.85 C 93.42 70.78 94.61 71.75 95.80 72.72 C 95.53 72.93 94.99 73.36 94.72 73.57 C 93.46 72.59 91.67 71.81 92.20 69.85 Z" />
<path fill="#fff3a3" opacity="1.00" d=" M 63.97 71.45 C 64.29 71.62 64.94 71.96 65.27 72.13 C 64.88 73.23 64.50 74.34 64.15 75.46 C 63.75 74.96 62.96 73.97 62.56 73.47 C 62.61 72.89 62.70 71.74 62.74 71.17 L 63.97 71.45 Z" />
<path fill="#b8ffff" opacity="1.00" d=" M 80.17 71.63 C 80.65 68.76 84.42 72.73 81.62 73.41 L 80.86 73.22 C 80.69 72.82 80.34 72.03 80.17 71.63 Z" />
<path fill="#c5462c" opacity="1.00" d=" M 65.27 72.13 C 67.22 73.39 68.97 74.92 70.78 76.37 C 68.67 76.21 66.56 76.13 64.45 76.03 C 64.54 76.75 64.73 78.18 64.82 78.89 C 64.57 77.76 64.23 76.63 64.15 75.46 C 64.50 74.34 64.88 73.23 65.27 72.13 Z" />
<path fill="#b12c61" opacity="1.00" d=" M 76.44 74.43 C 77.50 73.28 78.86 72.46 80.17 71.63 C 80.34 72.03 80.69 72.82 80.86 73.22 C 79.91 75.01 78.53 76.51 77.25 78.07 C 76.95 76.86 76.54 75.68 76.44 74.43 Z" />
<path fill="#fff3a3" opacity="1.00" d=" M 50.32 84.48 C 52.81 80.25 55.89 76.05 60.32 73.71 L 60.11 75.00 C 58.85 76.83 57.46 78.60 56.93 80.81 C 54.85 82.20 53.14 84.84 50.32 84.48 Z" />
<path fill="#89f9ff" opacity="1.00" d=" M 82.52 73.48 C 90.00 77.80 91.86 87.19 94.71 94.68 C 94.69 94.98 94.66 95.58 94.65 95.88 C 91.98 90.75 88.68 85.98 84.81 81.69 C 84.59 81.26 84.16 80.41 83.95 79.99 C 83.29 78.30 82.88 76.53 82.67 74.74 L 82.52 73.48 Z" />
<path fill="#383464" opacity="1.00" d=" M 90.09 73.83 C 92.87 74.66 95.63 75.61 98.18 77.02 C 95.81 77.97 93.31 77.28 90.92 76.91 C 90.64 75.89 90.36 74.86 90.09 73.83 Z" />
<path fill="#b53161" opacity="1.00" d=" M 60.11 75.00 C 62.02 77.39 63.36 80.22 63.32 83.34 C 61.87 82.70 60.43 82.05 58.95 81.47 C 58.45 81.31 57.44 80.97 56.93 80.81 C 57.46 78.60 58.85 76.83 60.11 75.00 Z" />
<path fill="#cc592b" opacity="1.00" d=" M 74.74 90.03 C 75.82 84.32 78.60 78.90 82.67 74.74 C 82.88 76.53 83.29 78.30 83.95 79.99 C 82.84 83.49 81.28 86.96 81.13 90.68 C 84.20 93.78 88.34 95.70 90.89 99.34 C 89.62 100.72 88.35 102.10 87.09 103.49 C 82.22 99.92 76.76 95.93 74.74 90.03 Z" />
<path fill="#3827a3" opacity="1.00" d=" M 105.59 75.20 C 107.40 75.26 109.20 75.46 111.00 75.63 L 111.00 77.97 C 110.57 78.98 110.15 80.00 109.75 81.02 L 107.88 80.55 C 107.68 80.38 107.28 80.05 107.08 79.88 C 106.24 78.82 105.47 77.71 104.75 76.57 C 104.96 76.23 105.38 75.54 105.59 75.20 Z" />
<path fill="#cc3c5e" opacity="1.00" d=" M 64.45 76.03 C 66.56 76.13 68.67 76.21 70.78 76.37 C 71.07 76.52 71.64 76.82 71.93 76.97 C 69.91 78.75 68.11 81.04 65.46 81.91 C 65.30 81.15 64.98 79.65 64.82 78.89 C 64.73 78.18 64.54 76.75 64.45 76.03 Z" />
<path fill="#76124c" opacity="1.00" d=" M 74.49 76.19 C 76.69 77.21 75.54 80.33 74.32 81.77 C 73.27 81.14 72.21 80.52 71.16 79.90 C 72.15 78.56 73.20 77.25 74.49 76.19 Z" />
<path fill="#7076f6" opacity="1.00" d=" M 96.03 80.19 C 99.12 79.33 103.52 80.42 104.75 76.57 C 105.47 77.71 106.24 78.82 107.08 79.88 C 106.19 80.54 105.42 81.33 104.77 82.23 C 104.94 81.55 105.28 80.19 105.45 79.51 C 103.40 80.63 101.43 82.02 99.14 82.61 C 97.99 81.95 97.04 81.01 96.03 80.19 Z" />
<path fill="#3923a1" opacity="1.00" d=" M 90.13 78.16 C 92.17 78.55 94.32 78.90 96.03 80.19 C 97.04 81.01 97.99 81.95 99.14 82.61 C 101.43 82.02 103.40 80.63 105.45 79.51 C 105.28 80.19 104.94 81.55 104.77 82.23 L 104.51 83.24 C 104.16 84.44 103.77 85.64 103.39 86.83 C 102.58 87.11 101.78 87.41 100.99 87.71 C 99.06 88.53 97.37 89.78 95.64 90.94 C 94.22 86.51 92.25 82.29 90.13 78.16 Z" />
<path fill="#c4ffff" opacity="1.00" d=" M 38.75 88.16 C 41.89 84.16 46.30 81.44 50.81 79.24 C 50.55 80.29 50.44 81.57 49.28 82.06 C 48.56 82.49 47.83 82.92 47.10 83.33 C 44.26 84.85 41.53 86.54 38.75 88.16 Z" />
<path fill="#000000" opacity="1.00" d=" M 109.75 81.02 C 110.15 80.00 110.57 78.98 111.00 77.97 L 111.00 86.68 L 109.77 84.68 C 109.77 84.62 109.77 84.52 109.77 84.46 C 109.73 83.31 109.73 82.17 109.75 81.02 Z" />
<path fill="#fff3a3" opacity="1.00" d=" M 65.52 84.45 C 67.18 82.67 69.18 81.29 71.16 79.90 C 69.67 81.85 67.67 83.30 65.52 84.45 Z" />
<path fill="#cc3c5e" opacity="1.00" d=" M 71.16 79.90 C 72.21 80.52 73.27 81.14 74.32 81.77 C 72.28 83.57 70.43 85.70 67.91 86.85 C 66.85 86.37 66.31 85.24 65.52 84.45 C 67.67 83.30 69.67 81.85 71.16 79.90 Z" />
<path fill="#a0a7fc" opacity="1.00" d=" M 104.77 82.23 C 105.42 81.33 106.19 80.54 107.08 79.88 C 107.28 80.05 107.68 80.38 107.88 80.55 C 107.05 82.08 106.02 83.49 104.89 84.81 C 104.80 84.42 104.60 83.63 104.51 83.24 L 104.77 82.23 Z" />
<path fill="#da5d24" opacity="1.00" d=" M 56.93 80.81 C 57.44 80.97 58.45 81.31 58.95 81.47 C 56.35 83.88 54.17 86.88 54.57 90.62 C 53.05 88.56 51.56 86.48 49.93 84.51 L 50.32 84.48 C 53.14 84.84 54.85 82.20 56.93 80.81 Z" />
<path fill="#b12c61" opacity="1.00" d=" M 58.95 81.47 C 60.43 82.05 61.87 82.70 63.32 83.34 L 64.09 83.69 C 61.60 86.87 58.61 89.83 55.19 91.99 C 55.04 91.65 54.73 90.97 54.57 90.62 C 54.17 86.88 56.35 83.88 58.95 81.47 Z" />
<path fill="#ce4784" opacity="1.00" d=" M 81.13 90.68 C 81.28 86.96 82.84 83.49 83.95 79.99 C 84.16 80.41 84.59 81.26 84.81 81.69 C 86.05 84.49 88.00 86.90 89.38 89.62 C 91.37 95.06 91.79 100.89 92.75 106.56 C 90.83 105.59 88.95 104.55 87.09 103.49 C 88.35 102.10 89.62 100.72 90.89 99.34 C 88.34 95.70 84.20 93.78 81.13 90.68 Z" />
<path fill="#83ccff" opacity="1.00" d=" M 104.89 84.81 C 106.02 83.49 107.05 82.08 107.88 80.55 L 109.75 81.02 C 109.73 82.17 109.73 83.31 109.77 84.46 C 108.39 85.26 107.36 87.92 105.49 86.89 C 105.34 86.37 105.04 85.33 104.89 84.81 Z" />
<path fill="#cc592b" opacity="1.00" d=" M 47.10 83.33 C 47.83 82.92 48.56 82.49 49.28 82.06 C 49.10 82.79 48.74 84.26 48.56 85.00 C 50.35 87.17 52.02 89.45 53.45 91.88 C 52.23 92.57 51.12 93.45 50.13 94.44 C 47.13 92.99 44.03 91.77 40.98 90.44 C 43.35 88.38 45.42 85.99 47.10 83.33 M 48.32 88.32 C 47.25 88.38 45.91 89.69 46.60 90.76 C 47.96 91.85 50.35 88.80 48.32 88.32 Z" />
<path fill="#3479c2" opacity="1.00" d=" M 84.81 81.69 C 88.68 85.98 91.98 90.75 94.65 95.88 L 94.97 96.60 C 95.52 100.40 95.68 104.25 95.56 108.09 C 94.61 107.60 93.67 107.09 92.75 106.56 C 91.79 100.89 91.37 95.06 89.38 89.62 C 88.00 86.90 86.05 84.49 84.81 81.69 Z" />
<path fill="#c0305d" opacity="1.00" d=" M 9.47 84.35 C 10.88 83.69 12.36 83.16 13.85 82.70 C 13.63 83.89 13.52 85.09 13.52 86.30 C 11.98 87.02 10.43 87.73 8.88 88.44 C 8.89 88.01 8.92 87.16 8.93 86.73 C 10.55 86.17 12.07 85.41 13.46 84.43 C 12.46 84.41 10.46 84.37 9.47 84.35 Z" />
<path fill="#4350df" opacity="1.00" d=" M 103.39 86.83 C 103.77 85.64 104.16 84.44 104.51 83.24 C 104.60 83.63 104.80 84.42 104.89 84.81 C 105.04 85.33 105.34 86.37 105.49 86.89 C 107.36 87.92 108.39 85.26 109.77 84.46 C 109.77 84.52 109.77 84.62 109.77 84.68 C 108.59 86.85 107.86 89.19 107.53 91.63 C 107.26 93.36 105.83 95.33 107.34 96.85 L 107.67 97.24 C 107.28 97.38 106.50 97.66 106.11 97.79 C 106.10 94.77 106.48 91.69 105.68 88.72 C 104.44 87.36 102.65 87.50 100.99 87.71 C 101.78 87.41 102.58 87.11 103.39 86.83 Z" />
<path fill="#ce4784" opacity="1.00" d=" M 38.75 88.16 C 41.53 86.54 44.26 84.85 47.10 83.33 C 45.42 85.99 43.35 88.38 40.98 90.44 C 38.29 90.01 36.65 92.27 34.92 93.88 C 36.02 92.06 37.14 90.26 38.25 88.45 L 38.75 88.16 Z" />
<path fill="#322444" opacity="1.00" d=" M 13.03 89.22 C 13.97 87.68 14.80 86.03 16.07 84.72 C 17.98 85.82 18.52 87.84 18.22 89.91 C 16.85 90.19 15.48 90.48 14.12 90.79 C 13.85 90.40 13.31 89.61 13.03 89.22 Z" />
<path fill="#7a0958" opacity="1.00" d=" M 67.78 93.77 C 69.81 90.63 71.46 87.22 73.87 84.33 C 73.42 87.65 72.56 91.19 74.52 94.23 C 72.39 96.10 70.23 97.94 68.03 99.74 C 67.91 97.81 66.41 95.56 67.78 93.77 Z" />
<path fill="#be7209" opacity="1.00" d=" M 4.82 86.40 C 6.20 86.40 7.57 86.51 8.93 86.73 C 8.92 87.16 8.89 88.01 8.88 88.44 C 7.36 88.08 5.73 87.80 4.82 86.40 Z" />
<path fill="#7ffbff" opacity="1.00" d=" M 107.53 91.63 C 107.86 89.19 108.59 86.85 109.77 84.68 L 111.00 86.68 L 111.00 97.32 C 110.80 96.88 110.41 95.99 110.21 95.55 L 109.91 94.82 C 109.92 93.69 110.00 92.57 110.07 91.45 C 109.43 91.50 108.16 91.59 107.53 91.63 Z" />
<path fill="#841158" opacity="1.00" d=" M 62.78 88.33 C 63.50 87.76 64.23 87.20 64.96 86.65 C 65.93 87.74 66.94 88.81 67.83 89.98 C 66.19 92.49 63.49 96.46 60.26 93.68 C 61.60 92.17 62.93 90.48 62.78 88.33 Z" />
<path fill="#cc4e5d" opacity="1.00" d=" M 48.32 88.32 C 50.35 88.80 47.96 91.85 46.60 90.76 C 45.91 89.69 47.25 88.38 48.32 88.32 Z" />
<path fill="#47477b" opacity="1.00" d=" M 7.11 89.72 C 9.08 89.57 11.06 89.40 13.03 89.22 C 13.31 89.61 13.85 90.40 14.12 90.79 C 12.21 91.98 10.11 92.77 7.93 93.29 C 7.65 92.10 7.38 90.91 7.11 89.72 Z" />
<path fill="#ab2c56" opacity="1.00" d=" M 58.32 92.03 C 59.78 90.76 61.26 89.52 62.78 88.33 C 62.93 90.48 61.60 92.17 60.26 93.68 C 59.77 93.27 58.81 92.44 58.32 92.03 Z" />
<path fill="#322197" opacity="1.00" d=" M 105.68 88.72 C 106.48 91.69 106.10 94.77 106.11 97.79 C 106.50 97.66 107.28 97.38 107.67 97.24 C 108.30 96.82 109.57 95.97 110.21 95.55 C 110.41 95.99 110.80 96.88 111.00 97.32 L 111.00 104.85 C 108.91 103.93 106.13 103.17 105.72 100.52 C 105.08 96.62 105.75 92.65 105.68 88.72 Z" />
<path fill="#8fcdfc" opacity="1.00" d=" M 107.53 91.63 C 108.16 91.59 109.43 91.50 110.07 91.45 C 110.00 92.57 109.92 93.69 109.91 94.82 L 110.21 95.55 C 109.57 95.97 108.30 96.82 107.67 97.24 L 107.34 96.85 C 105.83 95.33 107.26 93.36 107.53 91.63 Z" />
<path fill="#7c0e52" opacity="1.00" d=" M 40.41 92.10 C 43.77 93.27 47.06 94.63 50.33 96.04 C 49.90 97.86 50.72 100.72 48.30 101.28 C 48.30 100.46 48.31 98.82 48.31 98.00 C 45.80 97.00 43.29 95.99 40.82 94.90 C 39.19 95.59 37.55 96.27 35.96 97.05 C 37.38 95.34 38.89 93.72 40.41 92.10 Z" />
<path fill="#942547" opacity="1.00" d=" M 50.13 94.44 C 51.12 93.45 52.23 92.57 53.45 91.88 C 55.79 93.16 50.89 96.79 50.13 94.44 Z" />
<path fill="#cc4253" opacity="1.00" d=" M 35.96 97.05 C 37.55 96.27 39.19 95.59 40.82 94.90 C 43.29 95.99 45.80 97.00 48.31 98.00 C 48.31 98.82 48.30 100.46 48.30 101.28 C 46.56 101.52 44.85 101.86 43.16 102.32 C 40.20 101.23 37.15 100.35 33.99 100.18 C 34.62 99.13 35.20 98.03 35.96 97.05 M 38.09 99.77 C 40.47 100.73 41.57 98.03 43.00 96.73 C 40.82 94.39 36.79 96.85 38.09 99.77 Z" />
<path fill="#770f4f" opacity="1.00" d=" M 51.28 96.34 C 52.51 95.11 54.26 94.77 55.88 94.38 C 54.90 96.69 53.62 98.91 51.64 100.52 C 51.22 99.12 51.10 97.73 51.28 96.34 Z" />
<path fill="#5b1440" opacity="1.00" d=" M 75.35 95.28 C 77.36 97.55 79.51 99.68 81.67 101.82 C 83.03 104.27 84.43 106.70 85.92 109.08 C 86.21 109.56 86.79 110.52 87.08 111.00 L 84.93 111.00 C 81.90 108.12 79.33 104.80 76.20 102.03 C 74.49 100.62 72.42 99.55 70.29 100.73 C 71.89 98.83 73.64 97.07 75.35 95.28 Z" />
<path fill="#e1c489" opacity="1.00" d=" M 38.09 99.77 C 36.79 96.85 40.82 94.39 43.00 96.73 C 41.57 98.03 40.47 100.73 38.09 99.77 Z" />
<path fill="#dfdc8e" opacity="1.00" d=" M 70.29 100.73 C 72.42 99.55 74.49 100.62 76.20 102.03 C 74.17 105.09 72.15 108.17 69.79 111.00 L 64.50 111.00 C 66.22 107.47 67.72 103.76 70.29 100.73 Z" />
<path fill="#fff3a3" opacity="1.00" d=" M 27.90 101.95 C 29.93 102.32 31.95 102.73 33.98 103.15 C 32.73 103.56 31.49 103.99 30.25 104.43 C 29.89 106.63 29.53 108.83 29.03 111.00 L 26.11 111.00 C 26.56 107.95 27.20 104.94 27.90 101.95 Z" />
<path fill="#3d0936" opacity="1.00" d=" M 44.23 104.09 C 45.83 103.37 47.43 102.65 49.03 101.92 C 49.71 102.23 51.07 102.86 51.75 103.17 C 49.14 105.26 46.16 106.80 43.11 108.15 C 43.48 106.79 43.86 105.44 44.23 104.09 Z" />
<path fill="#c0305d" opacity="1.00" d=" M 76.20 102.03 C 79.33 104.80 81.90 108.12 84.93 111.00 L 69.79 111.00 C 72.15 108.17 74.17 105.09 76.20 102.03 Z" />
<path fill="#4adef8" opacity="1.00" d=" M 81.67 101.82 C 83.92 103.66 84.82 106.49 85.92 109.08 C 84.43 106.70 83.03 104.27 81.67 101.82 Z" />
<path fill="#c5462c" opacity="1.00" d=" M 33.98 103.15 C 35.33 103.33 36.68 103.50 38.04 103.66 L 38.34 104.80 L 37.72 104.99 C 36.98 105.21 35.48 105.66 34.73 105.88 C 34.28 107.55 34.12 109.29 33.86 111.00 L 29.03 111.00 C 29.53 108.83 29.89 106.63 30.25 104.43 C 31.49 103.99 32.73 103.56 33.98 103.15 Z" />
<path fill="#9b1f4f" opacity="1.00" d=" M 38.04 103.66 C 38.74 103.74 40.13 103.91 40.82 103.99 C 40.23 106.33 39.68 108.69 38.98 111.00 L 33.86 111.00 C 34.12 109.29 34.28 107.55 34.73 105.88 C 35.48 105.66 36.98 105.21 37.72 104.99 C 37.03 106.05 35.60 108.73 37.57 109.23 C 39.46 108.57 38.83 106.21 38.34 104.80 L 38.04 103.66 Z" />
<path fill="#030102" opacity="1.00" d=" M 37.72 104.99 L 38.34 104.80 C 38.83 106.21 39.46 108.57 37.57 109.23 C 35.60 108.73 37.03 106.05 37.72 104.99 Z" />
<path fill="#b8ffff" opacity="1.00" d=" M 85.93 104.91 C 87.57 105.93 89.19 106.99 90.83 108.02 C 90.83 108.77 90.84 110.26 90.85 111.00 L 88.69 111.00 C 87.65 109.03 86.77 106.97 85.93 104.91 Z" />
<path fill="#b8ffff" opacity="1.00" d=" M 46.96 108.06 C 47.34 107.85 48.11 107.44 48.49 107.23 C 49.51 108.50 50.52 109.78 51.60 111.00 L 48.43 111.00 C 47.92 110.03 47.43 109.05 46.96 108.06 Z" />
<path fill="#350a32" opacity="1.00" d=" M 41.41 111.00 C 43.28 110.07 45.11 109.05 46.96 108.06 C 47.43 109.05 47.92 110.03 48.43 111.00 L 41.41 111.00 Z" />
</svg>
