<?xml version="1.0" encoding="UTF-8" ?>
<!DOCTYPE svg PUBLIC "-//W3C//DTD SVG 1.1//EN" "http://www.w3.org/Graphics/SVG/1.1/DTD/svg11.dtd">
<svg width="111pt" height="111pt" viewBox="0 0 111 111" version="1.1" xmlns="http://www.w3.org/2000/svg">
<path fill="#000000" opacity="1.00" d=" M 42.83 5.65 C 42.98 4.22 45.30 3.42 45.88 4.96 C 48.56 10.40 50.49 16.17 52.84 21.75 C 55.64 21.50 58.44 21.30 61.25 21.17 C 63.31 17.89 65.12 14.46 67.16 11.18 C 69.87 14.08 70.33 18.17 71.99 21.64 C 77.22 22.02 81.96 24.30 86.80 26.10 C 89.40 23.09 91.66 19.71 94.97 17.40 C 97.56 22.61 98.60 28.38 100.37 33.88 C 102.00 37.89 99.58 41.87 99.06 45.85 C 103.50 49.07 107.41 52.94 111.00 57.05 L 111.00 61.88 C 101.76 48.63 86.84 40.12 71.09 37.26 C 56.87 34.13 41.24 35.53 28.79 43.50 L 28.22 43.89 C 13.77 52.83 5.23 69.30 3.38 85.89 C 2.58 92.13 3.61 98.37 4.65 104.52 C 16.85 107.57 29.47 107.81 41.97 108.17 C 54.13 108.34 66.29 108.10 78.42 107.15 C 89.32 106.00 100.19 104.43 111.00 102.61 L 111.00 106.74 C 103.61 105.90 96.36 107.75 89.08 108.62 C 78.79 110.06 68.40 110.77 58.01 110.77 C 43.60 110.81 29.11 111.05 14.80 109.08 C 10.85 108.34 6.71 107.82 3.10 105.92 C 0.08 100.20 -0.04 93.40 0.28 87.08 C 1.85 68.06 12.14 49.24 29.13 39.85 C 29.65 36.93 29.81 33.85 31.25 31.20 C 35.77 23.00 39.12 14.22 42.83 5.65 M 44.53 7.99 C 42.30 13.48 39.86 18.87 37.63 24.35 C 36.75 25.28 36.43 26.56 35.90 27.68 C 39.11 26.38 42.28 24.95 45.58 23.88 C 47.19 23.36 48.79 22.83 50.40 22.28 C 48.45 18.55 47.44 14.41 45.27 10.80 C 45.59 9.81 44.81 8.90 44.53 7.99 M 62.71 21.18 C 64.96 21.25 67.21 21.36 69.46 21.53 C 68.57 19.38 67.82 17.18 67.12 14.97 C 65.58 16.99 64.14 19.09 62.71 21.18 M 89.01 27.34 C 92.46 28.80 95.43 31.08 97.89 33.90 C 96.47 29.68 95.42 25.35 94.19 21.08 C 92.30 23.03 90.62 25.16 89.01 27.34 M 34.69 31.31 C 31.95 32.37 32.38 36.32 31.46 38.67 C 33.20 38.39 35.15 35.76 36.88 37.43 C 36.91 36.42 36.93 35.42 36.95 34.41 L 35.85 34.75 C 36.00 33.85 36.32 32.04 36.48 31.14 C 37.52 30.44 38.45 29.45 39.84 29.57 C 39.86 30.52 39.91 32.43 39.94 33.39 L 38.39 34.00 C 38.98 34.48 39.58 34.94 40.18 35.40 C 43.57 33.96 47.27 33.66 50.85 32.96 C 57.09 32.46 63.30 33.41 69.52 33.55 L 68.79 33.79 C 78.71 35.63 88.35 38.99 96.97 44.30 C 97.11 41.73 98.66 38.61 96.45 36.52 C 91.82 29.78 83.57 27.66 76.33 25.03 C 74.11 24.42 71.81 23.59 69.49 23.99 C 57.46 22.29 45.07 25.15 34.69 31.31 Z" />
<path fill="#ffffff" opacity="1.00" d=" M 44.53 7.99 C 44.81 8.90 45.59 9.81 45.27 10.80 C 42.51 15.20 41.45 20.66 37.63 24.35 C 39.86 18.87 42.30 13.48 44.53 7.99 Z" />
<path fill="#fde074" opacity="1.00" d=" M 37.63 24.35 C 41.45 20.66 42.51 15.20 45.27 10.80 C 45.46 15.16 45.60 19.52 45.58 23.88 C 42.28 24.95 39.11 26.38 35.90 27.68 C 36.43 26.56 36.75 25.28 37.63 24.35 Z" />
<path fill="#b98849" opacity="1.00" d=" M 45.27 10.80 C 47.44 14.41 48.45 18.55 50.40 22.28 C 48.79 22.83 47.19 23.36 45.58 23.88 C 45.60 19.52 45.46 15.16 45.27 10.80 Z" />
<path fill="#bf904d" opacity="1.00" d=" M 62.71 21.18 C 64.14 19.09 65.58 16.99 67.12 14.97 C 67.82 17.18 68.57 19.38 69.46 21.53 C 67.21 21.36 64.96 21.25 62.71 21.18 Z" />
<path fill="#d6a95a" opacity="1.00" d=" M 89.01 27.34 C 90.62 25.16 92.30 23.03 94.19 21.08 C 95.42 25.35 96.47 29.68 97.89 33.90 C 95.43 31.08 92.46 28.80 89.01 27.34 Z" />
<path fill="#ffffff" opacity="1.00" d=" M 34.69 31.31 C 45.07 25.15 57.46 22.29 69.49 23.99 C 65.07 25.36 60.48 25.87 55.91 26.44 C 50.49 27.16 45.17 28.39 39.84 29.57 C 38.45 29.45 37.52 30.44 36.48 31.14 L 34.69 31.31 Z" />
<path fill="#dfb861" opacity="1.00" d=" M 69.49 23.99 C 71.81 23.59 74.11 24.42 76.33 25.03 C 75.94 25.38 75.17 26.08 74.79 26.43 C 75.06 27.96 75.32 29.50 75.45 31.05 C 73.55 32.06 71.53 32.81 69.52 33.55 C 63.30 33.41 57.09 32.46 50.85 32.96 C 53.00 32.55 55.14 32.13 57.29 31.71 C 57.84 30.74 58.38 29.78 58.93 28.81 C 57.93 28.02 56.92 27.23 55.91 26.44 C 60.48 25.87 65.07 25.36 69.49 23.99 Z" />
<path fill="#bf904d" opacity="1.00" d=" M 76.33 25.03 C 83.57 27.66 91.82 29.78 96.45 36.52 C 98.66 38.61 97.11 41.73 96.97 44.30 C 88.35 38.99 78.71 35.63 68.79 33.79 L 69.52 33.55 C 71.53 32.81 73.55 32.06 75.45 31.05 C 75.32 29.50 75.06 27.96 74.79 26.43 C 75.17 26.08 75.94 25.38 76.33 25.03 M 91.52 36.71 C 91.59 38.32 92.06 41.13 94.31 40.53 C 96.18 39.19 95.22 37.02 94.16 35.52 C 93.50 35.82 92.18 36.41 91.52 36.71 Z" />
<path fill="#f7d870" opacity="1.00" d=" M 39.84 29.57 C 45.17 28.39 50.49 27.16 55.91 26.44 C 56.92 27.23 57.93 28.02 58.93 28.81 C 58.38 29.78 57.84 30.74 57.29 31.71 C 55.14 32.13 53.00 32.55 50.85 32.96 C 47.27 33.66 43.57 33.96 40.18 35.40 C 39.58 34.94 38.98 34.48 38.39 34.00 L 39.94 33.39 C 39.91 32.43 39.86 30.52 39.84 29.57 Z" />
<path fill="#ffe476" opacity="1.00" d=" M 31.46 38.67 C 32.38 36.32 31.95 32.37 34.69 31.31 L 36.48 31.14 C 36.32 32.04 36.00 33.85 35.85 34.75 L 36.95 34.41 C 36.93 35.42 36.91 36.42 36.88 37.43 C 35.15 35.76 33.20 38.39 31.46 38.67 Z" />
<path fill="#9dceff" opacity="1.00" d=" M 28.79 43.50 C 41.24 35.53 56.87 34.13 71.09 37.26 C 86.84 40.12 101.76 48.63 111.00 61.88 L 111.00 70.70 C 107.64 64.20 103.10 58.10 96.97 53.98 C 90.17 49.31 82.89 44.75 74.54 43.64 C 61.49 41.96 48.05 44.37 36.14 49.87 C 36.09 45.78 32.10 44.36 28.79 43.50 Z" />
<path fill="#000000" opacity="1.00" d=" M 91.52 36.71 C 92.18 36.41 93.50 35.82 94.16 35.52 C 95.22 37.02 96.18 39.19 94.31 40.53 C 92.06 41.13 91.59 38.32 91.52 36.71 M 93.09 37.22 C 91.55 40.28 96.33 37.51 93.09 37.22 Z" />
<path fill="#b98849" opacity="1.00" d=" M 93.09 37.22 C 96.33 37.51 91.55 40.28 93.09 37.22 Z" />
<path fill="#6c84d3" opacity="1.00" d=" M 36.14 49.87 C 48.05 44.37 61.49 41.96 74.54 43.64 C 82.89 44.75 90.17 49.31 96.97 53.98 C 103.10 58.10 107.64 64.20 111.00 70.70 L 111.00 97.93 C 106.65 99.21 102.31 100.56 97.79 101.09 C 99.96 99.53 102.33 97.99 103.73 95.64 C 104.28 92.11 100.00 90.97 97.33 90.55 C 80.80 88.22 64.08 90.03 47.50 90.71 C 39.04 91.85 30.28 92.07 22.24 95.20 C 19.86 95.74 19.60 98.51 20.57 100.38 C 23.00 102.13 26.07 102.55 28.98 102.66 C 44.84 103.37 60.72 103.44 76.59 103.53 L 77.64 104.06 C 66.76 104.42 55.93 105.89 45.03 105.61 C 39.43 105.59 33.81 104.69 28.23 105.57 C 21.54 105.63 13.62 105.65 8.93 100.03 C 5.16 95.92 5.97 89.99 6.82 84.96 C 8.66 75.29 12.53 65.16 20.97 59.38 C 21.97 58.59 22.93 57.76 23.86 56.89 C 25.22 55.44 27.16 55.03 29.10 55.12 C 29.26 54.92 29.57 54.53 29.73 54.33 C 32.13 53.24 34.17 51.59 36.14 49.87 M 97.38 60.46 C 95.18 61.81 95.55 64.82 96.23 66.93 C 97.09 69.44 98.32 72.35 100.97 73.38 C 102.88 74.15 104.58 71.81 104.28 70.07 C 104.06 67.58 103.20 65.17 102.04 62.97 C 101.09 61.45 99.35 59.63 97.38 60.46 M 106.10 77.17 C 105.74 79.00 106.57 80.57 108.57 79.53 C 110.21 77.85 107.54 76.86 106.10 77.17 Z" />
<path fill="#9dceff" opacity="1.00" d=" M 3.38 85.89 C 5.23 69.30 13.77 52.83 28.22 43.89 C 25.93 46.14 21.77 48.62 23.60 52.41 C 24.53 54.98 27.64 54.17 29.73 54.33 C 29.57 54.53 29.26 54.92 29.10 55.12 C 27.16 55.03 25.22 55.44 23.86 56.89 C 22.61 55.71 19.66 55.06 19.10 57.20 C 18.60 58.72 19.22 59.45 20.97 59.38 C 12.53 65.16 8.66 75.29 6.82 84.96 C 5.97 89.99 5.16 95.92 8.93 100.03 C 13.62 105.65 21.54 105.63 28.23 105.57 C 30.10 106.06 31.97 106.60 33.91 106.75 C 48.71 107.86 63.67 107.17 78.25 104.34 L 77.64 104.06 L 76.59 103.53 C 83.74 103.77 90.75 102.14 97.79 101.09 C 102.31 100.56 106.65 99.21 111.00 97.93 L 111.00 102.61 C 100.19 104.43 89.32 106.00 78.42 107.15 C 66.29 108.10 54.13 108.34 41.97 108.17 C 29.47 107.81 16.85 107.57 4.65 104.52 C 3.61 98.37 2.58 92.13 3.38 85.89 Z" />
<path fill="#ffffff" opacity="1.00" d=" M 28.22 43.89 L 28.79 43.50 C 32.10 44.36 36.09 45.78 36.14 49.87 C 34.17 51.59 32.13 53.24 29.73 54.33 C 27.64 54.17 24.53 54.98 23.60 52.41 C 21.77 48.62 25.93 46.14 28.22 43.89 Z" />
<path fill="#f3f6fc" opacity="1.00" d=" M 19.10 57.20 C 19.66 55.06 22.61 55.71 23.86 56.89 C 22.93 57.76 21.97 58.59 20.97 59.38 C 19.22 59.45 18.60 58.72 19.10 57.20 Z" />
<path fill="#ffffff" opacity="1.00" d=" M 97.38 60.46 C 99.35 59.63 101.09 61.45 102.04 62.97 C 103.20 65.17 104.06 67.58 104.28 70.07 C 104.58 71.81 102.88 74.15 100.97 73.38 C 98.32 72.35 97.09 69.44 96.23 66.93 C 95.55 64.82 95.18 61.81 97.38 60.46 Z" />
<path fill="#ffffff" opacity="1.00" d=" M 106.10 77.17 C 107.54 76.86 110.21 77.85 108.57 79.53 C 106.57 80.57 105.74 79.00 106.10 77.17 Z" />
<path fill="#3d54a0" opacity="1.00" d=" M 47.50 90.71 C 64.08 90.03 80.80 88.22 97.33 90.55 C 100.00 90.97 104.28 92.11 103.73 95.64 C 102.33 97.99 99.96 99.53 97.79 101.09 C 90.75 102.14 83.74 103.77 76.59 103.53 C 60.72 103.44 44.84 103.37 28.98 102.66 C 26.07 102.55 23.00 102.13 20.57 100.38 C 19.60 98.51 19.86 95.74 22.24 95.20 C 30.28 92.07 39.04 91.85 47.50 90.71 Z" />
<path fill="#ffffff" opacity="1.00" d=" M 45.03 105.61 C 55.93 105.89 66.76 104.42 77.64 104.06 L 78.25 104.34 C 63.67 107.17 48.71 107.86 33.91 106.75 C 31.97 106.60 30.10 106.06 28.23 105.57 C 33.81 104.69 39.43 105.59 45.03 105.61 Z" />
</svg>
