<?xml version="1.0" encoding="UTF-8" ?>
<!DOCTYPE svg PUBLIC "-//W3C//DTD SVG 1.1//EN" "http://www.w3.org/Graphics/SVG/1.1/DTD/svg11.dtd">
<svg width="111pt" height="111pt" viewBox="0 0 111 111" version="1.1" xmlns="http://www.w3.org/2000/svg">
<path fill="#010202" opacity="1.00" d=" M 13.40 4.67 C 17.59 4.52 21.80 4.53 25.95 5.23 C 39.09 7.38 52.03 10.84 64.40 15.78 C 74.80 20.01 84.23 26.20 93.46 32.52 C 96.74 34.75 99.59 37.53 102.20 40.50 C 100.97 43.51 99.39 46.58 99.61 49.94 C 99.86 54.74 100.99 59.44 101.66 64.19 C 102.31 67.80 102.68 71.53 104.21 74.90 C 105.47 77.50 108.64 77.98 111.00 79.13 L 111.00 82.34 C 107.16 83.40 103.03 83.69 99.47 85.57 C 96.53 87.78 95.44 91.56 94.67 94.99 C 94.41 97.92 94.42 100.86 94.41 103.80 C 99.97 102.75 105.59 101.84 111.00 100.10 L 111.00 102.98 C 106.88 103.76 102.71 104.20 98.57 104.83 C 102.56 106.98 106.82 108.57 111.00 110.29 L 111.00 111.00 L 105.86 111.00 C 103.20 110.06 100.10 108.34 97.80 111.00 L 96.44 111.00 C 95.55 110.00 94.68 108.97 93.85 107.92 C 91.30 103.73 91.08 98.62 92.00 93.91 C 92.70 91.08 93.87 88.40 94.74 85.63 C 87.58 91.36 81.50 98.32 74.62 104.39 C 74.43 104.51 74.07 104.75 73.88 104.87 C 75.95 106.82 77.84 108.93 79.79 111.00 L 78.04 111.00 C 76.90 110.21 75.82 109.33 74.63 108.60 C 73.05 109.24 71.62 110.21 70.11 111.00 L 64.70 111.00 C 70.68 105.42 75.45 98.65 81.84 93.48 C 84.45 91.43 86.69 88.97 88.69 86.33 C 81.62 87.91 75.21 91.36 68.45 93.83 C 64.91 95.16 60.89 96.26 58.65 99.57 C 56.27 102.45 54.65 106.73 50.52 107.43 C 45.63 108.47 40.66 109.26 35.94 111.00 L 21.58 111.00 C 23.79 110.09 25.94 109.03 28.08 107.98 C 27.63 104.03 26.99 100.06 27.31 96.08 C 27.47 94.93 27.64 93.77 27.83 92.62 C 27.42 92.45 26.60 92.11 26.18 91.94 C 21.26 90.17 15.71 88.55 10.53 90.17 C 8.09 92.93 5.47 95.67 3.95 99.08 C 3.19 101.93 2.83 104.87 2.35 107.78 C 2.17 108.86 1.96 109.93 1.72 111.00 L 0.00 111.00 L 0.00 100.78 C 2.88 100.85 2.75 97.25 0.00 97.16 L 0.00 95.60 C 2.99 94.19 5.55 92.07 7.62 89.49 C 5.08 89.34 2.54 89.23 0.00 89.13 L 0.00 86.58 C 5.89 86.63 11.77 87.03 17.66 87.16 C 11.97 81.76 4.87 77.91 0.00 71.66 L 0.00 66.77 C 2.18 67.52 4.38 68.23 6.67 68.56 C 7.64 66.74 6.48 64.63 6.32 62.73 C 4.22 53.96 6.89 45.00 9.79 36.74 C 11.65 31.29 15.75 26.71 16.71 20.96 C 16.46 15.40 14.23 10.15 13.40 4.67 M 18.97 9.10 C 19.83 13.27 21.54 17.35 21.47 21.66 C 20.35 27.94 14.74 32.40 13.66 38.67 C 9.04 45.89 8.96 54.81 9.70 63.06 C 9.89 65.37 11.13 67.37 12.28 69.31 L 11.73 69.48 C 17.71 70.23 23.36 72.58 28.66 75.36 C 30.66 76.43 32.63 78.45 32.22 80.90 C 30.97 83.76 29.03 86.24 27.49 88.93 C 29.82 89.19 32.59 90.51 34.60 88.65 C 39.12 85.83 38.52 79.98 39.72 75.46 C 40.54 71.13 42.97 67.27 46.41 64.55 C 56.31 59.00 66.06 53.14 76.38 48.40 C 80.38 46.53 84.78 45.86 88.97 44.58 C 88.10 46.23 87.20 47.87 86.28 49.50 C 88.58 53.02 91.17 56.48 92.33 60.59 C 93.84 65.96 93.71 71.59 93.97 77.11 C 95.73 76.46 97.65 76.05 99.17 74.88 C 98.80 71.29 97.57 67.88 96.71 64.40 C 94.80 56.92 94.13 49.08 95.42 41.44 C 95.98 41.13 97.11 40.51 97.67 40.19 C 85.91 32.77 74.48 24.48 61.34 19.62 C 49.98 15.03 38.16 11.12 25.90 10.12 C 23.65 9.40 21.31 9.18 18.97 9.10 M 56.38 62.38 C 53.65 64.01 50.73 65.29 47.70 66.25 C 47.64 66.65 47.52 67.45 47.45 67.85 C 41.48 71.11 41.39 78.73 41.82 84.65 L 41.82 85.56 C 39.71 86.10 40.45 91.20 42.78 90.77 C 43.22 91.51 44.10 92.99 44.54 93.73 L 44.44 94.42 C 45.99 93.38 47.54 92.34 49.10 91.30 C 49.29 89.94 49.49 88.57 49.68 87.21 C 48.60 87.55 47.52 87.90 46.44 88.25 C 46.16 87.93 45.60 87.29 45.32 86.97 C 45.49 84.92 45.59 82.87 45.66 80.82 C 46.83 79.90 47.97 78.91 49.29 78.19 C 51.10 78.06 52.88 78.53 54.63 78.91 C 56.20 79.20 57.81 79.94 59.41 79.45 C 62.60 76.33 65.36 72.78 68.56 69.66 L 69.11 70.18 C 69.66 69.16 70.21 68.15 70.77 67.13 C 70.78 67.85 70.81 69.28 70.83 70.00 C 69.17 72.53 66.87 74.56 65.19 77.07 C 64.06 79.25 63.99 81.80 63.48 84.17 C 60.86 83.39 58.06 83.11 55.72 84.84 C 57.92 86.13 60.24 88.05 62.97 87.40 C 66.44 86.42 68.59 83.28 70.26 80.31 C 72.15 76.69 73.88 72.94 74.93 68.98 C 75.33 68.64 76.12 67.95 76.52 67.60 C 76.66 64.07 77.26 60.58 78.07 57.14 C 78.74 57.51 79.40 57.88 80.07 58.25 C 80.23 60.84 80.45 63.43 80.86 66.00 L 81.65 66.37 C 83.17 72.13 82.61 78.30 79.81 83.58 C 79.06 81.59 78.56 79.50 78.08 77.43 C 76.63 79.72 75.45 82.43 73.00 83.85 C 70.50 85.36 67.58 86.56 66.41 89.48 C 71.40 89.20 75.65 86.35 80.45 85.31 L 80.39 85.16 C 83.25 83.92 86.19 82.63 88.49 80.47 C 90.70 78.30 90.60 74.97 91.05 72.12 C 90.94 65.23 89.91 57.98 85.19 52.60 C 85.29 50.05 82.29 49.09 80.31 50.24 C 72.01 53.58 64.05 57.77 56.38 62.38 M 75.10 75.56 C 77.12 74.50 79.89 73.67 80.24 71.02 C 79.95 69.70 79.60 68.40 79.18 67.11 C 77.43 69.73 76.07 72.57 75.10 75.56 M 0.89 68.95 C 5.17 74.73 11.09 79.01 16.95 83.07 C 19.65 85.10 23.09 85.38 26.34 85.65 C 27.01 83.24 30.03 80.31 28.11 77.96 C 24.67 75.67 20.57 74.66 16.68 73.40 C 11.40 71.98 6.22 70.19 0.89 68.95 M 91.36 82.29 C 94.09 82.38 96.98 82.63 99.54 81.45 C 101.01 80.98 101.47 79.39 101.16 78.02 C 97.37 77.82 94.05 79.82 91.36 82.29 M 49.96 79.73 C 49.79 80.70 49.45 82.64 49.28 83.61 C 51.58 83.51 53.87 83.37 56.16 83.14 C 54.64 81.14 52.30 80.33 49.96 79.73 M 51.45 103.38 C 53.20 101.14 54.44 98.56 54.97 95.76 C 57.43 94.11 59.87 92.42 62.28 90.70 C 58.70 89.75 55.15 88.72 51.59 87.68 C 51.18 92.90 50.99 98.15 51.45 103.38 M 36.52 89.21 C 36.76 90.42 37.04 91.62 37.35 92.81 C 37.66 95.92 38.05 99.42 40.46 101.69 C 42.41 101.78 44.34 101.39 46.26 101.10 C 44.68 98.37 42.97 95.72 41.19 93.11 C 40.68 91.90 40.17 90.69 39.67 89.48 C 38.88 89.41 37.30 89.28 36.52 89.21 M 32.07 107.86 C 33.28 107.72 34.50 107.58 35.71 107.44 C 33.97 102.28 33.18 96.89 32.28 91.54 C 28.79 96.40 30.64 102.60 32.07 107.86 Z" />
<path fill="#20444c" opacity="1.00" d=" M 18.97 9.10 C 21.31 9.18 23.65 9.40 25.90 10.12 C 25.38 10.09 24.34 10.04 23.82 10.02 C 23.45 9.99 22.72 9.93 22.35 9.90 C 23.44 16.25 24.23 22.65 24.87 29.05 C 25.43 33.82 25.39 38.92 27.89 43.18 C 29.74 46.30 31.91 49.21 34.08 52.11 C 27.04 49.30 21.97 43.61 16.73 38.38 C 15.62 39.60 14.49 40.81 13.40 42.04 C 13.49 40.92 13.58 39.79 13.66 38.67 C 14.74 32.40 20.35 27.94 21.47 21.66 C 21.54 17.35 19.83 13.27 18.97 9.10 Z" />
<path fill="#1e6760" opacity="1.00" d=" M 22.35 9.90 C 22.72 9.93 23.45 9.99 23.82 10.02 C 27.54 17.32 32.32 24.00 36.31 31.15 C 32.47 30.57 28.66 29.86 24.87 29.05 C 24.23 22.65 23.44 16.25 22.35 9.90 Z" />
<path fill="#89a876" opacity="1.00" d=" M 23.82 10.02 C 24.34 10.04 25.38 10.09 25.90 10.12 C 38.16 11.12 49.98 15.03 61.34 19.62 C 74.48 24.48 85.91 32.77 97.67 40.19 C 97.11 40.51 95.98 41.13 95.42 41.44 C 93.32 42.57 91.20 43.69 88.97 44.58 C 84.78 45.86 80.38 46.53 76.38 48.40 C 66.06 53.14 56.31 59.00 46.41 64.55 C 41.84 60.88 38.00 56.44 34.08 52.11 C 31.91 49.21 29.74 46.30 27.89 43.18 C 25.39 38.92 25.43 33.82 24.87 29.05 C 28.66 29.86 32.47 30.57 36.31 31.15 C 32.32 24.00 27.54 17.32 23.82 10.02 Z" />
<path fill="#66a8ff" opacity="1.00" d=" M 9.70 63.06 C 8.96 54.81 9.04 45.89 13.66 38.67 C 13.58 39.79 13.49 40.92 13.40 42.04 C 11.68 50.87 11.87 59.99 14.58 68.60 C 14.01 68.77 12.86 69.13 12.28 69.31 C 11.13 67.37 9.89 65.37 9.70 63.06 Z" />
<path fill="#0a2f40" opacity="1.00" d=" M 13.40 42.04 C 14.49 40.81 15.62 39.60 16.73 38.38 C 21.97 43.61 27.04 49.30 34.08 52.11 C 38.00 56.44 41.84 60.88 46.41 64.55 C 42.97 67.27 40.54 71.13 39.72 75.46 C 38.52 79.98 39.12 85.83 34.60 88.65 C 32.59 90.51 29.82 89.19 27.49 88.93 C 29.03 86.24 30.97 83.76 32.22 80.90 C 32.63 78.45 30.66 76.43 28.66 75.36 C 23.36 72.58 17.71 70.23 11.73 69.48 L 12.28 69.31 C 12.86 69.13 14.01 68.77 14.58 68.60 C 11.87 59.99 11.68 50.87 13.40 42.04 Z" />
<path fill="#0a3449" opacity="1.00" d=" M 88.97 44.58 C 91.20 43.69 93.32 42.57 95.42 41.44 C 94.13 49.08 94.80 56.92 96.71 64.40 C 97.57 67.88 98.80 71.29 99.17 74.88 C 97.65 76.05 95.73 76.46 93.97 77.11 C 93.71 71.59 93.84 65.96 92.33 60.59 C 91.17 56.48 88.58 53.02 86.28 49.50 C 87.20 47.87 88.10 46.23 88.97 44.58 Z" />
<path fill="#561c0d" opacity="1.00" d=" M 56.38 62.38 C 64.05 57.77 72.01 53.58 80.31 50.24 C 82.29 49.09 85.29 50.05 85.19 52.60 C 85.19 55.35 84.98 58.10 84.82 60.84 C 83.24 59.98 81.66 59.12 80.07 58.25 C 79.40 57.88 78.74 57.51 78.07 57.14 C 78.33 55.89 78.58 54.63 78.82 53.38 C 75.80 55.47 73.03 57.89 70.17 60.18 C 66.22 63.42 60.92 64.06 56.67 66.76 C 54.69 68.00 52.92 69.53 51.13 71.02 C 50.00 69.42 48.85 67.83 47.70 66.25 C 50.73 65.29 53.65 64.01 56.38 62.38 Z" />
<path fill="#a36249" opacity="1.00" d=" M 84.82 60.84 C 84.98 58.10 85.19 55.35 85.19 52.60 C 89.91 57.98 90.94 65.23 91.05 72.12 C 88.07 69.96 85.03 67.86 81.65 66.37 L 80.86 66.00 C 80.45 63.43 80.23 60.84 80.07 58.25 C 81.66 59.12 83.24 59.98 84.82 60.84 Z" />
<path fill="#986049" opacity="1.00" d=" M 70.17 60.18 C 73.03 57.89 75.80 55.47 78.82 53.38 C 78.58 54.63 78.33 55.89 78.07 57.14 C 77.26 60.58 76.66 64.07 76.52 67.60 C 76.12 67.95 75.33 68.64 74.93 68.98 C 75.33 67.18 75.59 65.36 75.86 63.54 C 74.06 65.59 72.37 67.74 70.83 70.00 C 70.81 69.28 70.78 67.85 70.77 67.13 C 70.21 68.15 69.66 69.16 69.11 70.18 L 68.56 69.66 C 68.15 69.26 67.33 68.47 66.92 68.07 C 63.02 71.91 58.87 75.46 54.63 78.91 C 52.88 78.53 51.10 78.06 49.29 78.19 C 47.97 78.91 46.83 79.90 45.66 80.82 C 45.68 80.42 45.71 79.61 45.72 79.21 C 44.94 79.85 44.16 80.50 43.38 81.15 C 45.83 77.11 47.11 72.55 47.45 67.85 C 47.52 67.45 47.64 66.65 47.70 66.25 C 48.85 67.83 50.00 69.42 51.13 71.02 C 52.92 69.53 54.69 68.00 56.67 66.76 C 60.92 64.06 66.22 63.42 70.17 60.18 Z" />
<path fill="#ffffe1" opacity="1.00" d=" M 70.83 70.00 C 72.37 67.74 74.06 65.59 75.86 63.54 C 75.59 65.36 75.33 67.18 74.93 68.98 C 73.88 72.94 72.15 76.69 70.26 80.31 C 68.59 83.28 66.44 86.42 62.97 87.40 C 60.24 88.05 57.92 86.13 55.72 84.84 C 58.06 83.11 60.86 83.39 63.48 84.17 C 63.99 81.80 64.06 79.25 65.19 77.07 C 66.87 74.56 69.17 72.53 70.83 70.00 Z" />
<path fill="#ffffd2" opacity="1.00" d=" M 81.65 66.37 C 85.03 67.86 88.07 69.96 91.05 72.12 C 90.60 74.97 90.70 78.30 88.49 80.47 C 86.19 82.63 83.25 83.92 80.39 85.16 C 80.25 84.76 79.96 83.98 79.81 83.58 C 82.61 78.30 83.17 72.13 81.65 66.37 Z" />
<path fill="#5f2110" opacity="1.00" d=" M 41.82 84.65 C 41.39 78.73 41.48 71.11 47.45 67.85 C 47.11 72.55 45.83 77.11 43.38 81.15 C 42.83 82.30 42.31 83.47 41.82 84.65 Z" />
<path fill="#e3ca92" opacity="1.00" d=" M 54.63 78.91 C 58.87 75.46 63.02 71.91 66.92 68.07 C 67.33 68.47 68.15 69.26 68.56 69.66 C 65.36 72.78 62.60 76.33 59.41 79.45 C 57.81 79.94 56.20 79.20 54.63 78.91 Z" />
<path fill="#ffdcce" opacity="1.00" d=" M 75.10 75.56 C 76.07 72.57 77.43 69.73 79.18 67.11 C 79.60 68.40 79.95 69.70 80.24 71.02 C 79.89 73.67 77.12 74.50 75.10 75.56 Z" />
<path fill="#ffdcce" opacity="1.00" d=" M 0.89 68.95 C 6.22 70.19 11.40 71.98 16.68 73.40 C 20.57 74.66 24.67 75.67 28.11 77.96 C 30.03 80.31 27.01 83.24 26.34 85.65 C 23.09 85.38 19.65 85.10 16.95 83.07 C 11.09 79.01 5.17 74.73 0.89 68.95 M 16.21 75.14 C 15.87 75.99 15.53 76.84 15.20 77.70 C 18.76 79.60 22.46 81.34 26.49 81.93 C 24.67 77.80 19.97 76.78 16.21 75.14 Z" />
<path fill="#372f2d" opacity="1.00" d=" M 16.21 75.14 C 19.97 76.78 24.67 77.80 26.49 81.93 C 22.46 81.34 18.76 79.60 15.20 77.70 C 15.53 76.84 15.87 75.99 16.21 75.14 Z" />
<path fill="#fffffc" opacity="1.00" d=" M 73.00 83.85 C 75.45 82.43 76.63 79.72 78.08 77.43 C 78.56 79.50 79.06 81.59 79.81 83.58 C 79.96 83.98 80.25 84.76 80.39 85.16 L 80.45 85.31 C 75.65 86.35 71.40 89.20 66.41 89.48 C 67.58 86.56 70.50 85.36 73.00 83.85 Z" />
<path fill="#225d53" opacity="1.00" d=" M 91.36 82.29 C 94.05 79.82 97.37 77.82 101.16 78.02 C 101.47 79.39 101.01 80.98 99.54 81.45 C 96.98 82.63 94.09 82.38 91.36 82.29 Z" />
<path fill="#ffffda" opacity="1.00" d=" M 43.38 81.15 C 44.16 80.50 44.94 79.85 45.72 79.21 C 45.71 79.61 45.68 80.42 45.66 80.82 C 45.59 82.87 45.49 84.92 45.32 86.97 C 45.14 89.23 44.86 91.48 44.54 93.73 C 44.10 92.99 43.22 91.51 42.78 90.77 C 42.42 89.04 42.11 87.30 41.82 85.56 L 41.82 84.65 C 42.31 83.47 42.83 82.30 43.38 81.15 Z" />
<path fill="#77d0df" opacity="1.00" d=" M 49.96 79.73 C 52.30 80.33 54.64 81.14 56.16 83.14 C 53.87 83.37 51.58 83.51 49.28 83.61 C 49.45 82.64 49.79 80.70 49.96 79.73 Z" />
<path fill="#fffbf3" opacity="1.00" d=" M 99.47 85.57 C 103.03 83.69 107.16 83.40 111.00 82.34 L 111.00 92.01 C 105.66 93.49 100.16 94.32 94.67 94.99 C 95.44 91.56 96.53 87.78 99.47 85.57 Z" />
<path fill="#725135" opacity="1.00" d=" M 42.78 90.77 C 40.45 91.20 39.71 86.10 41.82 85.56 C 42.11 87.30 42.42 89.04 42.78 90.77 Z" />
<path fill="#aed495" opacity="1.00" d=" M 68.45 93.83 C 75.21 91.36 81.62 87.91 88.69 86.33 C 86.69 88.97 84.45 91.43 81.84 93.48 C 77.58 94.63 73.35 95.98 69.40 97.99 C 69.09 96.60 68.77 95.22 68.45 93.83 Z" />
<path fill="#fefef4" opacity="1.00" d=" M 74.62 104.39 C 81.50 98.32 87.58 91.36 94.74 85.63 C 93.87 88.40 92.70 91.08 92.00 93.91 C 91.28 97.43 91.07 101.03 90.76 104.61 C 85.38 104.70 79.99 104.70 74.62 104.39 Z" />
<path fill="#655a44" opacity="1.00" d=" M 45.32 86.97 C 45.60 87.29 46.16 87.93 46.44 88.25 C 47.33 89.27 48.21 90.28 49.10 91.30 C 47.54 92.34 45.99 93.38 44.44 94.42 L 44.54 93.73 C 44.86 91.48 45.14 89.23 45.32 86.97 Z" />
<path fill="#ffffd2" opacity="1.00" d=" M 46.44 88.25 C 47.52 87.90 48.60 87.55 49.68 87.21 C 49.49 88.57 49.29 89.94 49.10 91.30 C 48.21 90.28 47.33 89.27 46.44 88.25 Z" />
<path fill="#236e64" opacity="1.00" d=" M 51.45 103.38 C 50.99 98.15 51.18 92.90 51.59 87.68 C 51.79 90.94 52.03 94.21 52.33 97.47 C 52.99 97.04 54.31 96.19 54.97 95.76 C 54.44 98.56 53.20 101.14 51.45 103.38 Z" />
<path fill="#b2d896" opacity="1.00" d=" M 51.59 87.68 C 55.15 88.72 58.70 89.75 62.28 90.70 C 59.87 92.42 57.43 94.11 54.97 95.76 C 54.31 96.19 52.99 97.04 52.33 97.47 C 52.03 94.21 51.79 90.94 51.59 87.68 Z" />
<path fill="#a87371" opacity="1.00" d=" M 0.00 89.13 C 2.54 89.23 5.08 89.34 7.62 89.49 C 5.55 92.07 2.99 94.19 0.00 95.60 L 0.00 89.13 Z" />
<path fill="#fefffd" opacity="1.00" d=" M 10.53 90.17 C 15.71 88.55 21.26 90.17 26.18 91.94 C 26.40 92.83 26.62 93.73 26.84 94.63 C 21.21 94.05 15.40 93.31 10.53 90.17 Z" />
<path fill="#fffffd" opacity="1.00" d=" M 36.52 89.21 C 37.30 89.28 38.88 89.41 39.67 89.48 C 40.17 90.69 40.68 91.90 41.19 93.11 C 41.01 93.74 40.65 95.00 40.48 95.63 C 39.92 95.66 38.80 95.71 38.25 95.74 C 37.94 94.77 37.64 93.79 37.35 92.81 C 37.04 91.62 36.76 90.42 36.52 89.21 Z" />
<path fill="#90ae78" opacity="1.00" d=" M 3.95 99.08 C 5.47 95.67 8.09 92.93 10.53 90.17 C 15.40 93.31 21.21 94.05 26.84 94.63 C 26.62 93.73 26.40 92.83 26.18 91.94 C 26.60 92.11 27.42 92.45 27.83 92.62 C 27.64 93.77 27.47 94.93 27.31 96.08 C 25.49 95.58 23.68 95.08 21.86 94.58 C 20.44 97.98 20.26 102.54 17.00 104.74 C 12.60 105.07 8.18 105.15 3.78 105.46 C 3.80 103.33 3.80 101.20 3.95 99.08 Z" />
<path fill="#bc827f" opacity="1.00" d=" M 32.07 107.86 C 30.64 102.60 28.79 96.40 32.28 91.54 C 33.18 96.89 33.97 102.28 35.71 107.44 C 34.50 107.58 33.28 107.72 32.07 107.86 Z" />
<path fill="#dea79e" opacity="1.00" d=" M 94.67 94.99 C 100.16 94.32 105.66 93.49 111.00 92.01 L 111.00 100.10 C 105.59 101.84 99.97 102.75 94.41 103.80 C 94.42 100.86 94.41 97.92 94.67 94.99 Z" />
<path fill="#c27d2f" opacity="1.00" d=" M 37.35 92.81 C 37.64 93.79 37.94 94.77 38.25 95.74 C 38.80 95.71 39.92 95.66 40.48 95.63 C 40.65 95.00 41.01 93.74 41.19 93.11 C 42.97 95.72 44.68 98.37 46.26 101.10 C 44.34 101.39 42.41 101.78 40.46 101.69 C 38.05 99.42 37.66 95.92 37.35 92.81 Z" />
<path fill="#317c6d" opacity="1.00" d=" M 58.65 99.57 C 60.89 96.26 64.91 95.16 68.45 93.83 C 68.77 95.22 69.09 96.60 69.40 97.99 C 66.04 99.61 62.63 101.32 59.90 103.92 C 57.30 106.37 54.86 109.05 51.83 111.00 L 35.94 111.00 C 40.66 109.26 45.63 108.47 50.52 107.43 C 54.65 106.73 56.27 102.45 58.65 99.57 Z" />
<path fill="#092d41" opacity="1.00" d=" M 69.40 97.99 C 73.35 95.98 77.58 94.63 81.84 93.48 C 75.45 98.65 70.68 105.42 64.70 111.00 L 51.83 111.00 C 54.86 109.05 57.30 106.37 59.90 103.92 C 62.63 101.32 66.04 99.61 69.40 97.99 Z" />
<path fill="#438074" opacity="1.00" d=" M 90.76 104.61 C 91.07 101.03 91.28 97.43 92.00 93.91 C 91.08 98.62 91.30 103.73 93.85 107.92 C 89.20 108.45 84.52 108.65 79.84 108.53 C 79.99 109.15 80.29 110.38 80.44 111.00 L 79.79 111.00 C 77.84 108.93 75.95 106.82 73.88 104.87 C 74.07 104.75 74.43 104.51 74.62 104.39 C 79.99 104.70 85.38 104.70 90.76 104.61 Z" />
<path fill="#0b3344" opacity="1.00" d=" M 17.00 104.74 C 20.26 102.54 20.44 97.98 21.86 94.58 C 23.68 95.08 25.49 95.58 27.31 96.08 C 26.99 100.06 27.63 104.03 28.08 107.98 C 25.94 109.03 23.79 110.09 21.58 111.00 L 1.72 111.00 C 1.96 109.93 2.17 108.86 2.35 107.78 C 2.76 108.23 3.58 109.13 3.99 109.58 C 8.38 108.14 12.85 106.82 17.00 104.74 Z" />
<path fill="#e3ca92" opacity="1.00" d=" M 0.00 97.16 C 2.75 97.25 2.88 100.85 0.00 100.78 L 0.00 97.16 Z" />
<path fill="#236e64" opacity="1.00" d=" M 2.35 107.78 C 2.83 104.87 3.19 101.93 3.95 99.08 C 3.80 101.20 3.80 103.33 3.78 105.46 C 8.18 105.15 12.60 105.07 17.00 104.74 C 12.85 106.82 8.38 108.14 3.99 109.58 C 3.58 109.13 2.76 108.23 2.35 107.78 Z" />
<path fill="#fffffd" opacity="1.00" d=" M 70.11 111.00 C 71.62 110.21 73.05 109.24 74.63 108.60 C 75.82 109.33 76.90 110.21 78.04 111.00 L 70.11 111.00 Z" />
<path fill="#64a594" opacity="1.00" d=" M 79.84 108.53 C 84.52 108.65 89.20 108.45 93.85 107.92 C 94.68 108.97 95.55 110.00 96.44 111.00 L 80.44 111.00 C 80.29 110.38 79.99 109.15 79.84 108.53 Z" />
<path fill="#26675f" opacity="1.00" d=" M 97.80 111.00 C 100.10 108.34 103.20 110.06 105.86 111.00 L 97.80 111.00 Z" />
</svg>
