<?xml version="1.0" encoding="UTF-8" ?>
<!DOCTYPE svg PUBLIC "-//W3C//DTD SVG 1.1//EN" "http://www.w3.org/Graphics/SVG/1.1/DTD/svg11.dtd">
<svg width="111pt" height="111pt" viewBox="0 0 111 111" version="1.1" xmlns="http://www.w3.org/2000/svg">
<path fill="#020102" opacity="1.00" d=" M 24.64 14.10 C 30.03 15.31 35.41 17.03 41.00 16.84 C 48.10 16.77 55.21 13.96 62.27 15.89 C 69.04 17.71 73.94 23.01 79.25 27.24 C 79.54 23.35 79.85 19.46 80.35 15.59 C 87.01 20.26 88.64 28.60 90.76 35.91 C 93.56 37.06 96.66 37.94 98.77 40.25 C 103.00 44.93 103.63 52.25 100.79 57.80 C 99.30 60.68 96.70 62.81 95.14 65.64 C 94.68 69.75 96.85 73.78 96.24 77.90 C 95.58 79.88 94.41 81.63 93.36 83.42 C 96.82 86.04 99.81 89.17 102.57 92.51 C 104.62 95.14 108.10 95.63 111.00 96.84 L 111.00 100.24 C 108.31 99.61 105.58 99.15 102.85 98.68 C 100.36 102.61 98.40 106.83 96.36 111.00 L 91.23 111.00 C 93.16 107.59 94.90 104.08 96.87 100.69 C 98.00 98.80 99.09 96.88 100.23 94.99 C 97.70 91.41 94.46 88.18 90.15 86.88 C 82.78 86.04 77.07 91.09 70.86 94.05 C 63.88 96.69 56.44 97.75 49.16 99.26 C 46.56 99.15 43.97 98.89 41.39 98.55 C 48.02 94.68 56.04 95.36 63.25 93.26 C 68.95 92.21 73.95 89.09 78.11 85.16 C 76.39 84.35 74.66 83.59 72.95 82.80 C 68.31 85.39 63.75 88.39 58.52 89.64 C 54.22 90.35 49.67 89.22 45.60 91.27 C 40.06 88.40 35.45 84.14 30.95 79.89 C 29.97 81.95 29.01 84.02 28.05 86.09 C 32.27 91.52 36.34 97.14 41.34 101.89 C 47.68 105.75 55.41 104.27 62.44 104.10 C 68.64 104.63 74.87 104.35 81.08 104.38 C 83.69 104.24 85.85 105.80 87.98 107.06 C 86.13 107.86 84.30 108.78 82.29 109.10 C 74.63 108.96 66.98 108.32 59.31 108.70 C 59.35 109.28 59.44 110.43 59.49 111.00 L 42.33 111.00 C 41.33 109.98 40.37 108.92 39.44 107.84 C 32.32 99.42 25.19 90.95 17.16 83.37 C 13.67 79.91 9.89 76.77 5.87 73.95 C 3.91 75.00 1.96 76.04 0.00 77.09 L 0.00 66.90 C 3.62 69.44 7.68 71.23 11.48 73.47 C 15.95 76.06 19.92 79.40 24.20 82.28 C 23.59 80.19 22.99 78.09 22.25 76.04 C 21.73 74.53 21.04 73.08 20.32 71.66 C 14.39 66.76 7.04 64.27 0.00 61.45 L 0.00 53.84 C 1.61 53.94 3.22 54.04 4.83 54.13 C 4.52 52.32 4.21 50.51 3.90 48.71 C 7.28 48.13 10.68 47.61 14.09 47.17 C 12.53 41.02 10.74 34.86 10.58 28.47 C 14.59 29.30 18.51 30.45 22.42 31.66 C 24.53 28.99 26.99 26.62 29.79 24.68 C 27.79 21.30 26.03 17.78 24.64 14.10 M 31.77 19.21 C 33.26 21.81 34.39 25.39 37.62 26.25 C 41.75 27.20 46.01 27.37 50.22 27.78 C 51.86 28.49 53.78 29.88 55.51 28.65 C 58.84 26.75 62.41 25.28 66.31 25.27 C 69.48 27.51 72.69 29.69 75.82 31.99 C 77.38 36.03 80.50 39.17 84.72 40.36 C 85.39 40.48 86.74 40.73 87.42 40.86 C 87.81 37.97 87.51 35.03 86.67 32.24 C 85.69 28.89 84.93 25.19 82.30 22.69 C 82.39 24.38 82.43 26.08 82.67 27.76 C 81.15 29.40 79.69 31.52 77.25 31.75 C 74.04 26.89 69.60 22.37 63.73 21.03 C 62.72 19.59 60.76 19.32 59.30 18.50 C 51.08 18.96 43.00 21.05 34.73 20.45 C 33.74 20.03 32.75 19.62 31.77 19.21 M 30.24 29.09 C 28.84 30.15 28.36 32.05 27.91 33.68 C 34.38 37.30 41.21 40.30 48.26 42.61 C 51.45 45.21 53.78 48.57 55.28 52.40 C 60.00 56.71 68.70 57.53 73.24 52.60 C 70.22 53.29 67.20 54.45 64.07 54.24 C 60.84 53.53 58.10 51.55 55.21 50.06 C 54.76 46.51 52.38 43.49 52.14 39.89 C 52.16 38.02 52.45 36.16 52.86 34.33 C 52.80 33.68 52.68 32.38 52.62 31.72 C 49.30 31.37 46.01 30.84 42.72 30.28 L 43.38 29.68 C 39.06 29.00 34.57 28.00 30.24 29.09 M 60.63 29.83 C 59.80 30.98 58.99 32.14 58.14 33.27 C 52.73 39.79 57.31 51.01 65.88 51.45 C 67.92 50.81 69.96 50.16 72.02 49.61 C 72.08 49.40 72.20 48.99 72.26 48.78 C 75.58 46.56 77.37 42.15 75.69 38.35 C 73.37 32.67 66.98 27.73 60.63 29.83 M 13.76 32.08 C 14.18 33.33 14.55 34.61 15.16 35.78 C 15.59 40.63 17.07 45.31 17.44 50.16 C 13.91 50.00 10.37 50.30 6.85 50.55 C 8.46 52.35 9.78 54.67 12.05 55.68 C 12.97 57.07 13.89 58.45 14.81 59.83 C 14.16 60.79 13.50 61.74 12.86 62.70 C 16.12 64.93 19.72 66.70 22.68 69.32 C 25.04 72.35 25.26 76.46 27.30 79.68 C 27.68 79.72 28.43 79.81 28.80 79.85 C 30.48 76.12 29.32 71.99 28.45 68.21 L 27.91 67.77 C 28.12 64.54 28.22 61.30 28.25 58.06 C 28.42 56.82 28.59 55.58 28.76 54.34 C 30.46 50.63 31.89 46.40 35.67 44.28 C 35.46 45.84 35.04 47.36 34.76 48.90 C 33.38 50.99 32.41 53.31 31.61 55.68 C 31.53 56.95 31.44 58.22 31.36 59.48 C 31.11 64.17 31.34 68.91 32.76 73.41 C 31.65 79.32 38.03 82.45 42.13 85.15 C 41.06 80.09 40.07 75.02 39.19 69.93 C 39.21 68.27 39.10 66.61 39.11 64.94 C 40.17 65.70 41.22 66.49 42.26 67.28 C 42.48 73.92 45.98 79.89 50.25 84.76 C 52.45 87.68 56.50 86.57 59.61 86.39 C 65.12 85.85 69.03 81.66 73.12 78.41 C 71.20 79.10 69.31 79.88 67.36 80.48 C 67.91 78.41 69.26 76.23 71.54 75.84 C 73.57 75.01 76.60 75.64 77.60 73.25 C 79.93 69.32 79.46 64.64 79.17 60.28 C 74.57 64.41 70.38 68.99 66.12 73.46 C 61.53 75.10 56.83 76.61 51.98 77.21 C 48.84 77.23 48.21 73.69 47.17 71.45 C 49.53 72.90 52.35 75.70 55.29 73.99 C 52.07 68.38 45.70 65.58 40.83 61.58 C 43.81 60.07 46.58 58.19 49.21 56.15 C 49.65 56.17 50.55 56.23 50.99 56.26 C 49.24 58.62 47.22 60.78 45.18 62.89 C 50.04 65.54 54.32 69.06 58.85 72.20 C 60.15 73.43 61.70 72.19 63.08 71.83 C 64.13 71.10 65.19 70.37 66.27 69.67 C 71.95 65.59 75.36 59.31 80.56 54.76 C 81.60 58.05 82.70 61.34 83.20 64.76 C 83.64 67.55 82.47 70.24 82.31 73.00 C 79.62 75.30 77.48 78.16 75.71 81.21 C 81.65 82.09 87.21 79.37 92.79 77.83 C 92.18 73.47 91.30 69.14 90.04 64.93 C 87.20 62.58 85.18 59.48 83.96 56.02 C 83.38 53.27 80.36 52.86 78.21 51.85 C 76.03 54.42 73.99 57.50 70.63 58.61 C 65.84 60.32 60.72 59.15 55.95 57.99 C 54.65 56.95 53.33 55.92 52.00 54.92 C 51.17 52.34 50.05 49.79 48.35 47.67 C 45.48 45.24 41.75 44.20 38.41 42.60 C 30.20 39.08 22.37 34.57 13.76 32.08 M 91.24 41.62 C 88.19 45.19 87.23 50.58 89.20 54.86 C 90.94 57.89 94.71 58.14 97.53 56.57 C 98.64 53.69 100.45 50.64 99.46 47.46 C 98.47 44.28 96.89 40.82 93.84 39.17 C 92.18 39.04 91.12 39.92 91.24 41.62 M 79.62 41.52 C 78.75 44.35 77.90 47.18 77.03 50.01 C 79.64 50.25 82.26 50.50 84.87 50.73 C 85.31 49.08 85.75 47.43 86.24 45.80 C 85.35 43.87 83.89 42.37 82.17 41.16 L 82.75 40.63 C 81.71 40.92 80.66 41.22 79.62 41.52 M 91.30 60.11 C 90.14 61.55 92.64 63.26 93.65 61.79 C 94.82 60.34 92.32 58.63 91.30 60.11 M 43.22 80.48 C 43.83 82.26 44.58 83.98 45.27 85.73 C 45.99 85.76 47.44 85.83 48.16 85.87 C 47.11 83.58 45.54 81.57 43.22 80.48 Z" />
<path fill="#b5016f" opacity="1.00" d=" M 31.77 19.21 C 32.75 19.62 33.74 20.03 34.73 20.45 C 37.06 21.45 39.43 22.39 41.81 23.29 C 44.70 24.61 47.42 26.28 50.22 27.78 C 46.01 27.37 41.75 27.20 37.62 26.25 C 34.39 25.39 33.26 21.81 31.77 19.21 Z" />
<path fill="#fba711" opacity="1.00" d=" M 34.73 20.45 C 43.00 21.05 51.08 18.96 59.30 18.50 C 59.97 20.31 60.64 22.12 61.33 23.93 C 54.82 23.91 48.30 23.83 41.81 23.29 C 39.43 22.39 37.06 21.45 34.73 20.45 Z" />
<path fill="#fc6c75" opacity="1.00" d=" M 59.30 18.50 C 60.76 19.32 62.72 19.59 63.73 21.03 C 64.59 22.44 65.39 23.90 66.31 25.27 C 62.41 25.28 58.84 26.75 55.51 28.65 C 53.78 29.88 51.86 28.49 50.22 27.78 C 47.42 26.28 44.70 24.61 41.81 23.29 C 48.30 23.83 54.82 23.91 61.33 23.93 C 60.64 22.12 59.97 20.31 59.30 18.50 Z" />
<path fill="#ffcb42" opacity="1.00" d=" M 63.73 21.03 C 69.60 22.37 74.04 26.89 77.25 31.75 C 76.89 31.81 76.18 31.93 75.82 31.99 C 72.69 29.69 69.48 27.51 66.31 25.27 C 65.39 23.90 64.59 22.44 63.73 21.03 Z" />
<path fill="#ffd118" opacity="1.00" d=" M 82.30 22.69 C 84.93 25.19 85.69 28.89 86.67 32.24 C 87.51 35.03 87.81 37.97 87.42 40.86 C 86.74 40.73 85.39 40.48 84.72 40.36 C 84.11 36.14 83.30 31.96 82.67 27.76 C 82.43 26.08 82.39 24.38 82.30 22.69 Z" />
<path fill="#a60464" opacity="1.00" d=" M 82.67 27.76 C 83.30 31.96 84.11 36.14 84.72 40.36 C 80.50 39.17 77.38 36.03 75.82 31.99 C 76.18 31.93 76.89 31.81 77.25 31.75 C 79.69 31.52 81.15 29.40 82.67 27.76 Z" />
<path fill="#2e3235" opacity="1.00" d=" M 30.24 29.09 C 34.57 28.00 39.06 29.00 43.38 29.68 L 42.72 30.28 C 42.27 30.71 41.37 31.56 40.91 31.98 C 42.28 32.54 43.65 33.11 45.04 33.60 C 45.82 36.70 46.69 39.81 48.26 42.61 C 41.21 40.30 34.38 37.30 27.91 33.68 C 28.36 32.05 28.84 30.15 30.24 29.09 Z" />
<path fill="#fefe9e" opacity="1.00" d=" M 60.63 29.83 C 66.98 27.73 73.37 32.67 75.69 38.35 C 77.37 42.15 75.58 46.56 72.26 48.78 C 72.65 46.13 73.99 43.57 73.43 40.86 C 71.99 39.26 69.88 38.60 68.05 37.59 C 67.63 36.42 67.22 35.25 66.81 34.08 C 66.68 33.71 66.42 32.97 66.29 32.60 C 64.44 31.61 62.52 30.74 60.63 29.83 Z" />
<path fill="#a74004" opacity="1.00" d=" M 58.14 33.27 C 58.99 32.14 59.80 30.98 60.63 29.83 C 62.52 30.74 64.44 31.61 66.29 32.60 C 66.42 32.97 66.68 33.71 66.81 34.08 C 66.66 34.40 66.35 35.05 66.19 35.37 C 65.71 36.29 65.20 37.20 64.66 38.09 C 62.40 36.60 60.28 34.92 58.14 33.27 Z" />
<path fill="#f7fcc8" opacity="1.00" d=" M 40.91 31.98 C 41.37 31.56 42.27 30.71 42.72 30.28 C 46.01 30.84 49.30 31.37 52.62 31.72 C 52.68 32.38 52.80 33.68 52.86 34.33 C 50.24 34.18 47.63 33.97 45.04 33.60 C 43.65 33.11 42.28 32.54 40.91 31.98 Z" />
<path fill="#f3555e" opacity="1.00" d=" M 13.76 32.08 C 22.37 34.57 30.20 39.08 38.41 42.60 C 41.75 44.20 45.48 45.24 48.35 47.67 C 50.05 49.79 51.17 52.34 52.00 54.92 C 51.75 55.25 51.24 55.92 50.99 56.26 C 50.55 56.23 49.65 56.17 49.21 56.15 C 44.07 54.45 39.36 51.72 34.76 48.90 C 35.04 47.36 35.46 45.84 35.67 44.28 C 31.89 46.40 30.46 50.63 28.76 54.34 C 26.35 53.14 23.97 51.88 21.49 50.82 C 22.11 50.26 23.36 49.13 23.98 48.56 C 21.33 44.10 18.12 40.03 15.16 35.78 C 14.55 34.61 14.18 33.33 13.76 32.08 Z" />
<path fill="#dc774a" opacity="1.00" d=" M 65.88 51.45 C 57.31 51.01 52.73 39.79 58.14 33.27 C 60.28 34.92 62.40 36.60 64.66 38.09 C 65.20 37.20 65.71 36.29 66.19 35.37 C 65.45 36.92 64.73 38.48 63.98 40.02 C 61.84 39.76 59.70 39.52 57.55 39.28 C 57.98 41.43 58.24 43.71 59.34 45.64 C 61.48 47.96 64.76 48.55 67.59 49.63 C 67.02 50.23 66.45 50.84 65.88 51.45 Z" />
<path fill="#5a5863" opacity="1.00" d=" M 45.04 33.60 C 47.63 33.97 50.24 34.18 52.86 34.33 C 52.45 36.16 52.16 38.02 52.14 39.89 C 52.38 43.49 54.76 46.51 55.21 50.06 C 55.22 50.64 55.26 51.81 55.28 52.40 C 53.78 48.57 51.45 45.21 48.26 42.61 C 46.69 39.81 45.82 36.70 45.04 33.60 Z" />
<path fill="#dec856" opacity="1.00" d=" M 66.19 35.37 C 66.35 35.05 66.66 34.40 66.81 34.08 C 67.22 35.25 67.63 36.42 68.05 37.59 C 69.88 38.60 71.99 39.26 73.43 40.86 C 73.99 43.57 72.65 46.13 72.26 48.78 C 72.20 48.99 72.08 49.40 72.02 49.61 C 69.23 46.51 66.59 43.27 63.98 40.02 C 64.73 38.48 65.45 36.92 66.19 35.37 Z" />
<path fill="#aa0160" opacity="1.00" d=" M 15.16 35.78 C 18.12 40.03 21.33 44.10 23.98 48.56 C 23.36 49.13 22.11 50.26 21.49 50.82 C 20.87 50.70 19.64 50.44 19.02 50.32 C 18.62 50.28 17.83 50.20 17.44 50.16 C 17.07 45.31 15.59 40.63 15.16 35.78 Z" />
<path fill="#a94b08" opacity="1.00" d=" M 57.55 39.28 C 59.70 39.52 61.84 39.76 63.98 40.02 C 66.59 43.27 69.23 46.51 72.02 49.61 C 69.96 50.16 67.92 50.81 65.88 51.45 C 66.45 50.84 67.02 50.23 67.59 49.63 C 64.76 48.55 61.48 47.96 59.34 45.64 C 58.24 43.71 57.98 41.43 57.55 39.28 Z" />
<path fill="#fdfe93" opacity="1.00" d=" M 91.24 41.62 C 91.12 39.92 92.18 39.04 93.84 39.17 C 96.89 40.82 98.47 44.28 99.46 47.46 C 100.45 50.64 98.64 53.69 97.53 56.57 C 95.69 54.51 93.52 52.65 92.22 50.17 C 91.24 47.44 91.37 44.48 91.24 41.62 Z" />
<path fill="#27272f" opacity="1.00" d=" M 79.62 41.52 C 80.66 41.22 81.71 40.92 82.75 40.63 L 82.17 41.16 C 81.37 42.02 80.40 42.83 80.11 44.03 C 82.03 44.97 84.16 45.37 86.24 45.80 C 85.75 47.43 85.31 49.08 84.87 50.73 C 82.26 50.50 79.64 50.25 77.03 50.01 C 77.90 47.18 78.75 44.35 79.62 41.52 Z" />
<path fill="#f7fcc8" opacity="1.00" d=" M 80.11 44.03 C 80.40 42.83 81.37 42.02 82.17 41.16 C 83.89 42.37 85.35 43.87 86.24 45.80 C 84.16 45.37 82.03 44.97 80.11 44.03 Z" />
<path fill="#d21768" opacity="1.00" d=" M 89.20 54.86 C 87.23 50.58 88.19 45.19 91.24 41.62 C 91.37 44.48 91.24 47.44 92.22 50.17 C 93.52 52.65 95.69 54.51 97.53 56.57 C 94.71 58.14 90.94 57.89 89.20 54.86 Z" />
<path fill="#f57630" opacity="1.00" d=" M 31.61 55.68 C 32.41 53.31 33.38 50.99 34.76 48.90 C 39.36 51.72 44.07 54.45 49.21 56.15 C 46.58 58.19 43.81 60.07 40.83 61.58 C 37.84 59.49 34.74 57.55 31.61 55.68 Z" />
<path fill="#fb8f56" opacity="1.00" d=" M 6.85 50.55 C 10.37 50.30 13.91 50.00 17.44 50.16 C 17.83 50.20 18.62 50.28 19.02 50.32 C 19.91 51.16 20.81 52.00 21.72 52.83 C 18.98 55.03 15.53 55.95 12.05 55.68 C 9.78 54.67 8.46 52.35 6.85 50.55 Z" />
<path fill="#25fdff" opacity="1.00" d=" M 19.02 50.32 C 19.64 50.44 20.87 50.70 21.49 50.82 C 23.97 51.88 26.35 53.14 28.76 54.34 C 28.59 55.58 28.42 56.82 28.25 58.06 C 26.04 56.36 23.82 54.67 21.72 52.83 C 20.81 52.00 19.91 51.16 19.02 50.32 Z" />
<path fill="#fefcf1" opacity="1.00" d=" M 55.28 52.40 C 55.26 51.81 55.22 50.64 55.21 50.06 C 58.10 51.55 60.84 53.53 64.07 54.24 C 67.20 54.45 70.22 53.29 73.24 52.60 C 68.70 57.53 60.00 56.71 55.28 52.40 Z" />
<path fill="#fb5a65" opacity="1.00" d=" M 70.63 58.61 C 73.99 57.50 76.03 54.42 78.21 51.85 C 80.36 52.86 83.38 53.27 83.96 56.02 C 85.18 59.48 87.20 62.58 90.04 64.93 C 88.73 68.50 87.32 72.04 85.64 75.45 C 84.48 75.63 83.32 75.72 82.14 75.75 C 82.19 75.06 82.27 73.68 82.31 73.00 C 82.47 70.24 83.64 67.55 83.20 64.76 C 82.70 61.34 81.60 58.05 80.56 54.76 C 75.36 59.31 71.95 65.59 66.27 69.67 C 62.33 66.28 58.78 62.48 55.03 58.88 C 54.87 58.57 54.53 57.94 54.37 57.63 C 54.76 57.72 55.56 57.90 55.95 57.99 C 60.72 59.15 65.84 60.32 70.63 58.61 Z" />
<path fill="#f83f4f" opacity="1.00" d=" M 12.05 55.68 C 15.53 55.95 18.98 55.03 21.72 52.83 C 23.82 54.67 26.04 56.36 28.25 58.06 C 28.22 61.30 28.12 64.54 27.91 67.77 C 25.55 65.91 23.70 63.51 21.42 61.55 C 19.33 60.63 17.03 60.33 14.81 59.83 C 13.89 58.45 12.97 57.07 12.05 55.68 Z" />
<path fill="#a2005b" opacity="1.00" d=" M 50.99 56.26 C 51.24 55.92 51.75 55.25 52.00 54.92 C 53.33 55.92 54.65 56.95 55.95 57.99 C 55.56 57.90 54.76 57.72 54.37 57.63 C 54.53 57.94 54.87 58.57 55.03 58.88 C 56.91 63.66 59.76 67.94 63.08 71.83 C 61.70 72.19 60.15 73.43 58.85 72.20 C 54.32 69.06 50.04 65.54 45.18 62.89 C 47.22 60.78 49.24 58.62 50.99 56.26 Z" />
<path fill="#25fdff" opacity="1.00" d=" M 31.61 55.68 C 34.74 57.55 37.84 59.49 40.83 61.58 C 45.70 65.58 52.07 68.38 55.29 73.99 C 52.35 75.70 49.53 72.90 47.17 71.45 C 45.61 69.96 43.97 68.58 42.26 67.28 C 41.22 66.49 40.17 65.70 39.11 64.94 C 36.55 63.09 33.99 61.23 31.36 59.48 C 31.44 58.22 31.53 56.95 31.61 55.68 Z" />
<path fill="#ef9360" opacity="1.00" d=" M 55.03 58.88 C 58.78 62.48 62.33 66.28 66.27 69.67 C 65.19 70.37 64.13 71.10 63.08 71.83 C 59.76 67.94 56.91 63.66 55.03 58.88 Z" />
<path fill="#b50165" opacity="1.00" d=" M 12.86 62.70 C 13.50 61.74 14.16 60.79 14.81 59.83 C 17.03 60.33 19.33 60.63 21.42 61.55 C 23.70 63.51 25.55 65.91 27.91 67.77 L 28.45 68.21 C 29.32 71.99 30.48 76.12 28.80 79.85 C 28.43 79.81 27.68 79.72 27.30 79.68 C 25.26 76.46 25.04 72.35 22.68 69.32 C 19.72 66.70 16.12 64.93 12.86 62.70 Z" />
<path fill="#fd4760" opacity="1.00" d=" M 31.36 59.48 C 33.99 61.23 36.55 63.09 39.11 64.94 C 39.10 66.61 39.21 68.27 39.19 69.93 C 39.20 70.65 39.21 72.09 39.22 72.80 C 37.74 71.63 36.33 70.38 34.86 69.20 C 34.14 70.60 33.42 71.99 32.76 73.41 C 31.34 68.91 31.11 64.17 31.36 59.48 Z" />
<path fill="#74808a" opacity="1.00" d=" M 91.30 60.11 C 92.32 58.63 94.82 60.34 93.65 61.79 C 92.64 63.26 90.14 61.55 91.30 60.11 Z" />
<path fill="#c99aa8" opacity="1.00" d=" M 66.12 73.46 C 70.38 68.99 74.57 64.41 79.17 60.28 C 79.46 64.64 79.93 69.32 77.60 73.25 C 77.15 72.15 76.69 71.07 76.22 69.99 C 72.91 71.30 69.53 72.43 66.12 73.46 Z" />
<path fill="#68053e" opacity="1.00" d=" M 0.00 61.45 C 7.04 64.27 14.39 66.76 20.32 71.66 C 18.34 71.57 16.35 71.48 14.36 71.41 C 16.50 73.85 18.96 76.06 21.87 77.54 C 21.96 77.16 22.15 76.41 22.25 76.04 C 22.99 78.09 23.59 80.19 24.20 82.28 C 19.92 79.40 15.95 76.06 11.48 73.47 C 7.68 71.23 3.62 69.44 0.00 66.90 L 0.00 61.45 Z" />
<path fill="#aa0160" opacity="1.00" d=" M 90.04 64.93 C 91.30 69.14 92.18 73.47 92.79 77.83 C 87.21 79.37 81.65 82.09 75.71 81.21 C 77.48 78.16 79.62 75.30 82.31 73.00 C 82.27 73.68 82.19 75.06 82.14 75.75 C 83.32 75.72 84.48 75.63 85.64 75.45 C 87.32 72.04 88.73 68.50 90.04 64.93 Z" />
<path fill="#fefcf1" opacity="1.00" d=" M 42.26 67.28 C 43.97 68.58 45.61 69.96 47.17 71.45 C 48.21 73.69 48.84 77.23 51.98 77.21 C 56.83 76.61 61.53 75.10 66.12 73.46 C 69.53 72.43 72.91 71.30 76.22 69.99 C 76.69 71.07 77.15 72.15 77.60 73.25 C 76.60 75.64 73.57 75.01 71.54 75.84 C 69.26 76.23 67.91 78.41 67.36 80.48 C 69.31 79.88 71.20 79.10 73.12 78.41 C 69.03 81.66 65.12 85.85 59.61 86.39 C 56.50 86.57 52.45 87.68 50.25 84.76 C 45.98 79.89 42.48 73.92 42.26 67.28 Z" />
<path fill="#ae005f" opacity="1.00" d=" M 34.86 69.20 C 36.33 70.38 37.74 71.63 39.22 72.80 C 39.21 72.09 39.20 70.65 39.19 69.93 C 40.07 75.02 41.06 80.09 42.13 85.15 C 38.03 82.45 31.65 79.32 32.76 73.41 C 33.42 71.99 34.14 70.60 34.86 69.20 Z" />
<path fill="#d6bb7a" opacity="1.00" d=" M 14.36 71.41 C 16.35 71.48 18.34 71.57 20.32 71.66 C 21.04 73.08 21.73 74.53 22.25 76.04 C 22.15 76.41 21.96 77.16 21.87 77.54 C 18.96 76.06 16.50 73.85 14.36 71.41 Z" />
<path fill="#717172" opacity="1.00" d=" M 0.00 77.09 C 1.96 76.04 3.91 75.00 5.87 73.95 C 9.89 76.77 13.67 79.91 17.16 83.37 C 17.21 85.63 17.28 87.89 17.34 90.16 C 15.42 91.19 13.50 92.23 11.59 93.29 C 6.94 90.99 3.18 87.37 0.00 83.33 L 0.00 77.09 Z" />
<path fill="#6f0a3f" opacity="1.00" d=" M 30.95 79.89 C 35.45 84.14 40.06 88.40 45.60 91.27 C 49.67 89.22 54.22 90.35 58.52 89.64 C 63.75 88.39 68.31 85.39 72.95 82.80 C 74.66 83.59 76.39 84.35 78.11 85.16 C 73.95 89.09 68.95 92.21 63.25 93.26 C 56.04 95.36 48.02 94.68 41.39 98.55 C 43.97 98.89 46.56 99.15 49.16 99.26 C 47.98 99.58 46.80 99.93 45.63 100.30 C 44.16 100.73 42.74 101.30 41.34 101.89 C 36.34 97.14 32.27 91.52 28.05 86.09 C 29.01 84.02 29.97 81.95 30.95 79.89 Z" />
<path fill="#c99aa8" opacity="1.00" d=" M 43.22 80.48 C 45.54 81.57 47.11 83.58 48.16 85.87 C 47.44 85.83 45.99 85.76 45.27 85.73 C 44.58 83.98 43.83 82.26 43.22 80.48 Z" />
<path fill="#5f5e68" opacity="1.00" d=" M 0.00 83.33 C 3.18 87.37 6.94 90.99 11.59 93.29 C 17.81 98.17 21.95 105.08 27.07 111.00 L 0.00 111.00 L 0.00 83.33 Z" />
<path fill="#b0b3bc" opacity="1.00" d=" M 17.34 90.16 C 17.28 87.89 17.21 85.63 17.16 83.37 C 25.19 90.95 32.32 99.42 39.44 107.84 C 37.79 108.93 36.11 110.00 34.39 111.00 L 27.07 111.00 C 21.95 105.08 17.81 98.17 11.59 93.29 C 13.50 92.23 15.42 91.19 17.34 90.16 Z" />
<path fill="#b63594" opacity="1.00" d=" M 70.86 94.05 C 77.07 91.09 82.78 86.04 90.15 86.88 C 88.36 89.94 86.55 93.00 84.79 96.09 C 88.96 97.20 93.20 98.34 96.87 100.69 C 94.90 104.08 93.16 107.59 91.23 111.00 L 66.11 111.00 C 71.42 109.75 76.87 109.55 82.29 109.10 C 84.30 108.78 86.13 107.86 87.98 107.06 C 85.85 105.80 83.69 104.24 81.08 104.38 C 74.87 104.35 68.64 104.63 62.44 104.10 C 65.23 102.62 68.03 101.14 70.84 99.68 C 72.55 98.79 74.11 97.65 75.69 96.54 C 74.08 95.70 72.47 94.88 70.86 94.05 Z" />
<path fill="#b43648" opacity="1.00" d=" M 90.15 86.88 C 94.46 88.18 97.70 91.41 100.23 94.99 C 99.09 96.88 98.00 98.80 96.87 100.69 C 93.20 98.34 88.96 97.20 84.79 96.09 C 86.55 93.00 88.36 89.94 90.15 86.88 Z" />
<path fill="#ab063c" opacity="1.00" d=" M 49.16 99.26 C 56.44 97.75 63.88 96.69 70.86 94.05 C 72.47 94.88 74.08 95.70 75.69 96.54 C 74.11 97.65 72.55 98.79 70.84 99.68 C 62.52 100.96 53.98 101.84 45.63 100.30 C 46.80 99.93 47.98 99.58 49.16 99.26 Z" />
<path fill="#313143" opacity="1.00" d=" M 96.36 111.00 C 98.40 106.83 100.36 102.61 102.85 98.68 C 105.58 99.15 108.31 99.61 111.00 100.24 L 111.00 111.00 L 96.36 111.00 Z" />
<path fill="#865057" opacity="1.00" d=" M 41.34 101.89 C 42.74 101.30 44.16 100.73 45.63 100.30 C 53.98 101.84 62.52 100.96 70.84 99.68 C 68.03 101.14 65.23 102.62 62.44 104.10 C 55.41 104.27 47.68 105.75 41.34 101.89 Z" />
<path fill="#6d6e70" opacity="0.97" d=" M 39.44 107.84 C 40.37 108.92 41.33 109.98 42.33 111.00 L 34.39 111.00 C 36.11 110.00 37.79 108.93 39.44 107.84 Z" />
<path fill="#710a49" opacity="0.98" d=" M 59.31 108.70 C 66.98 108.32 74.63 108.96 82.29 109.10 C 76.87 109.55 71.42 109.75 66.11 111.00 L 59.49 111.00 C 59.44 110.43 59.35 109.28 59.31 108.70 Z" />
</svg>
