<?xml version="1.0" encoding="UTF-8" ?>
<!DOCTYPE svg PUBLIC "-//W3C//DTD SVG 1.1//EN" "http://www.w3.org/Graphics/SVG/1.1/DTD/svg11.dtd">
<svg width="111pt" height="111pt" viewBox="0 0 111 111" version="1.1" xmlns="http://www.w3.org/2000/svg">
<path fill="#010000" opacity="1.00" d=" M 9.56 0.00 L 14.30 0.00 C 12.22 10.91 9.92 21.97 4.96 31.99 C 3.30 31.38 1.63 30.78 0.00 30.09 L 0.00 26.75 C 1.61 26.44 3.21 26.13 4.82 25.81 C 5.40 21.48 5.93 17.14 6.33 12.79 C 6.78 12.95 7.22 13.11 7.66 13.27 C 8.18 8.83 8.65 4.38 9.56 0.00 Z" />
<path fill="#ce3648" opacity="1.00" d=" M 14.30 0.00 L 15.07 0.00 C 19.99 5.68 21.99 13.08 25.39 19.64 C 28.34 25.33 31.03 31.16 32.92 37.30 C 28.73 40.86 29.94 46.93 31.64 51.44 C 32.89 54.25 32.82 57.32 32.30 60.29 C 27.74 60.28 23.17 60.18 18.61 59.98 C 18.29 63.28 17.88 66.57 17.38 69.85 C 15.20 68.26 13.22 66.41 11.63 64.23 C 8.51 59.93 3.82 57.26 0.00 53.68 L 0.00 30.09 C 1.63 30.78 3.30 31.38 4.96 31.99 C 9.92 21.97 12.22 10.91 14.30 0.00 Z" />
<path fill="#fe4e4b" opacity="1.00" d=" M 15.07 0.00 L 48.35 0.00 C 53.77 8.11 59.69 15.88 65.06 24.04 C 58.63 22.63 51.61 20.46 45.25 23.28 C 39.95 25.70 38.04 31.63 35.62 36.47 C 34.95 36.68 33.59 37.09 32.92 37.30 C 31.03 31.16 28.34 25.33 25.39 19.64 C 21.99 13.08 19.99 5.68 15.07 0.00 Z" />
<path fill="#000000" opacity="1.00" d=" M 48.35 0.00 L 54.57 0.00 C 60.99 8.07 65.65 17.31 70.06 26.57 C 78.06 19.19 83.90 9.67 92.55 2.98 C 92.64 6.01 92.63 9.07 92.18 12.08 C 89.55 19.44 86.59 26.68 83.65 33.91 C 81.61 39.86 85.28 45.94 84.19 52.04 C 82.68 55.68 79.90 58.57 77.98 61.97 C 76.55 64.50 76.07 67.42 74.75 69.99 C 73.21 72.31 70.60 73.72 69.15 76.12 C 68.59 77.82 68.37 79.62 68.06 81.38 C 71.69 83.51 75.30 85.69 78.94 87.81 C 82.86 85.00 86.64 81.72 91.30 80.25 C 95.12 79.00 97.60 82.98 99.33 85.70 C 102.48 91.41 105.72 97.42 106.37 104.01 C 106.84 107.51 103.30 109.39 100.83 111.00 L 86.40 111.00 C 85.14 105.53 84.53 99.58 81.15 94.91 C 78.00 91.22 73.56 89.00 69.40 86.66 C 72.81 92.97 75.10 99.85 75.90 107.00 C 76.09 108.33 76.29 109.66 76.48 111.00 L 72.46 111.00 C 72.39 110.31 72.27 108.92 72.21 108.23 C 71.79 102.60 70.57 97.01 68.20 91.87 C 66.48 88.23 64.79 83.90 60.66 82.46 C 48.51 77.45 35.62 74.46 22.79 71.79 C 22.41 71.86 21.65 72.00 21.26 72.06 C 21.91 76.76 23.03 81.70 21.20 86.29 C 19.51 92.05 15.02 97.05 15.35 103.30 C 16.80 105.92 18.42 108.44 19.98 111.00 L 2.52 111.00 C 5.22 110.56 7.88 109.93 10.54 109.30 C 7.36 106.51 3.73 104.35 0.00 102.38 L 0.00 93.55 C 2.97 91.79 6.81 90.70 8.66 87.60 C 10.04 82.30 9.42 76.72 9.36 71.31 C 9.01 69.05 9.03 66.39 7.25 64.71 C 5.05 62.63 2.38 61.13 0.00 59.28 L 0.00 53.68 C 3.82 57.26 8.51 59.93 11.63 64.23 C 13.22 66.41 15.20 68.26 17.38 69.85 C 17.88 66.57 18.29 63.28 18.61 59.98 C 23.17 60.18 27.74 60.28 32.30 60.29 C 32.82 57.32 32.89 54.25 31.64 51.44 C 29.94 46.93 28.73 40.86 32.92 37.30 C 33.59 37.09 34.95 36.68 35.62 36.47 C 38.04 31.63 39.95 25.70 45.25 23.28 C 51.61 20.46 58.63 22.63 65.06 24.04 C 59.69 15.88 53.77 8.11 48.35 0.00 M 85.34 14.43 C 84.71 15.81 83.55 17.07 83.51 18.64 C 79.49 21.22 76.44 24.94 73.09 28.29 C 75.22 30.24 77.46 32.07 79.83 33.72 C 81.05 29.66 83.35 25.80 83.60 21.52 C 85.80 19.62 87.06 16.99 88.14 14.36 C 87.44 14.38 86.04 14.41 85.34 14.43 M 47.75 26.79 C 42.92 29.30 40.31 34.59 40.13 39.88 C 40.39 42.32 42.76 43.63 44.36 45.21 C 45.18 41.54 45.77 37.83 46.40 34.13 C 49.10 31.53 51.68 28.73 53.19 25.26 C 51.37 25.75 49.57 26.28 47.75 26.79 M 56.99 28.02 C 49.93 33.59 48.45 43.35 47.56 51.74 C 49.93 56.26 54.01 59.99 58.36 62.61 C 63.87 62.83 70.38 64.24 74.97 60.37 L 74.71 59.55 C 78.50 54.87 82.17 48.91 80.25 42.65 C 77.65 34.98 69.73 31.68 63.60 27.37 C 61.39 26.78 58.85 26.28 56.99 28.02 M 34.23 42.13 C 34.22 44.74 34.19 47.35 34.10 49.96 L 34.66 49.91 C 36.34 51.29 37.88 52.83 39.56 54.20 C 40.62 52.31 42.07 50.55 42.54 48.40 C 40.83 46.07 38.47 44.34 36.29 42.48 L 36.60 41.91 C 36.01 41.97 34.82 42.07 34.23 42.13 M 43.49 58.45 C 45.61 61.68 48.69 64.15 51.93 66.18 C 52.18 66.40 52.68 66.83 52.93 67.05 C 55.23 69.15 57.57 71.19 59.84 73.32 C 64.62 73.81 68.27 70.36 72.01 68.00 C 71.86 67.33 71.57 65.97 71.42 65.30 C 67.84 65.92 64.26 66.52 60.68 67.11 C 59.66 67.13 58.64 67.14 57.62 67.14 C 55.59 64.91 53.20 63.03 50.50 61.70 C 48.62 58.82 45.94 56.57 43.52 54.15 C 43.22 55.58 42.28 57.17 43.49 58.45 M 36.84 58.71 C 37.26 61.00 39.05 62.29 41.02 63.20 C 41.02 60.53 39.62 58.73 36.84 58.71 M 23.23 64.75 C 23.28 65.55 23.38 67.15 23.42 67.95 C 33.67 68.13 42.91 73.13 52.99 74.29 C 56.25 77.26 60.51 78.54 64.77 79.19 C 64.64 78.62 64.38 77.48 64.25 76.90 C 61.59 76.13 59.02 74.99 56.28 74.55 C 53.90 71.75 50.69 69.83 47.14 68.91 C 39.32 66.82 31.49 63.46 23.23 64.75 M 14.39 74.65 C 14.19 79.05 13.83 83.51 14.71 87.86 C 11.62 92.31 7.19 95.47 2.50 98.04 C 3.73 98.92 4.90 99.90 6.25 100.57 C 7.84 101.23 8.57 99.42 9.46 98.50 C 12.10 94.86 15.32 91.25 15.68 86.55 C 17.53 84.13 18.00 80.97 18.15 78.01 C 18.22 75.89 15.91 75.35 14.39 74.65 M 81.89 89.76 C 85.93 93.62 87.68 98.94 90.04 103.83 C 90.10 105.21 90.16 106.59 90.23 107.97 C 93.54 107.57 96.94 107.31 100.05 106.00 C 101.19 105.74 101.73 105.03 101.68 103.89 C 101.43 100.50 99.85 97.40 98.71 94.24 C 97.04 90.76 95.24 87.34 93.30 84.01 C 89.39 85.70 85.67 87.80 81.89 89.76 Z" />
<path fill="#000000" opacity="0.47" d=" M 92.55 2.98 C 93.29 2.56 94.04 2.15 94.80 1.76 C 94.17 5.26 93.34 8.72 92.18 12.08 C 92.63 9.07 92.64 6.01 92.55 2.98 Z" />
<path fill="#fffffe" opacity="1.00" d=" M 85.34 14.43 C 86.04 14.41 87.44 14.38 88.14 14.36 C 87.06 16.99 85.80 19.62 83.60 21.52 C 83.58 20.80 83.53 19.36 83.51 18.64 C 83.55 17.07 84.71 15.81 85.34 14.43 Z" />
<path fill="#fffc5c" opacity="1.00" d=" M 73.09 28.29 C 76.44 24.94 79.49 21.22 83.51 18.64 C 83.53 19.36 83.58 20.80 83.60 21.52 C 83.35 25.80 81.05 29.66 79.83 33.72 C 77.46 32.07 75.22 30.24 73.09 28.29 Z" />
<path fill="#f6f5fb" opacity="1.00" d=" M 47.75 26.79 C 49.57 26.28 51.37 25.75 53.19 25.26 C 51.68 28.73 49.10 31.53 46.40 34.13 C 46.82 31.68 47.29 29.24 47.75 26.79 Z" />
<path fill="#7b74a1" opacity="1.00" d=" M 40.13 39.88 C 40.31 34.59 42.92 29.30 47.75 26.79 C 47.29 29.24 46.82 31.68 46.40 34.13 C 45.77 37.83 45.18 41.54 44.36 45.21 C 42.76 43.63 40.39 42.32 40.13 39.88 Z" />
<path fill="#7573a1" opacity="1.00" d=" M 56.99 28.02 C 58.85 26.28 61.39 26.78 63.60 27.37 C 63.25 27.60 62.54 28.06 62.19 28.29 C 57.24 30.90 54.59 36.54 54.56 41.99 C 54.32 46.65 56.34 51.00 58.57 54.97 C 60.01 57.39 61.37 59.93 63.40 61.92 C 65.33 62.79 67.39 61.78 69.22 61.14 C 70.98 60.04 72.56 58.67 73.94 57.13 C 74.13 57.73 74.52 58.94 74.71 59.55 L 74.97 60.37 C 70.38 64.24 63.87 62.83 58.36 62.61 C 54.01 59.99 49.93 56.26 47.56 51.74 C 48.45 43.35 49.93 33.59 56.99 28.02 Z" />
<path fill="#d1d1d3" opacity="1.00" d=" M 54.56 41.99 C 54.59 36.54 57.24 30.90 62.19 28.29 C 61.79 28.67 60.98 29.42 60.57 29.79 C 63.40 31.04 66.60 31.82 68.92 33.95 C 70.63 36.68 71.53 39.97 71.58 43.18 C 71.20 46.04 69.42 48.44 68.20 50.99 C 68.15 49.15 67.97 47.33 67.81 45.50 C 66.25 47.17 64.75 48.93 63.86 51.05 C 63.92 49.54 63.95 48.02 63.95 46.51 C 61.89 49.16 60.09 51.99 58.57 54.97 C 56.34 51.00 54.32 46.65 54.56 41.99 Z" />
<path fill="#fefefe" opacity="1.00" d=" M 62.19 28.29 C 62.54 28.06 63.25 27.60 63.60 27.37 C 69.73 31.68 77.65 34.98 80.25 42.65 C 82.17 48.91 78.50 54.87 74.71 59.55 C 74.52 58.94 74.13 57.73 73.94 57.13 C 76.05 53.60 77.21 49.62 78.08 45.62 C 77.30 45.50 75.75 45.25 74.97 45.12 C 72.66 50.30 69.81 55.39 69.22 61.14 C 67.39 61.78 65.33 62.79 63.40 61.92 C 61.37 59.93 60.01 57.39 58.57 54.97 C 60.09 51.99 61.89 49.16 63.95 46.51 C 63.95 48.02 63.92 49.54 63.86 51.05 C 63.58 52.70 63.27 54.34 62.95 55.98 C 63.49 56.39 64.56 57.21 65.09 57.61 C 66.11 55.39 67.14 53.18 68.20 50.99 C 69.42 48.44 71.20 46.04 71.58 43.18 C 71.53 39.97 70.63 36.68 68.92 33.95 C 66.60 31.82 63.40 31.04 60.57 29.79 C 60.98 29.42 61.79 28.67 62.19 28.29 Z" />
<path fill="#000000" opacity="0.44" d=" M 84.19 52.04 C 85.28 45.94 81.61 39.86 83.65 33.91 C 84.10 39.93 85.81 46.04 84.19 52.04 Z" />
<path fill="#5b5981" opacity="1.00" d=" M 34.23 42.13 C 34.82 42.07 36.01 41.97 36.60 41.91 L 36.29 42.48 C 35.89 43.20 35.50 43.92 35.10 44.64 C 36.50 46.27 37.89 47.90 39.27 49.54 C 37.73 49.66 36.20 49.79 34.66 49.91 L 34.10 49.96 C 34.19 47.35 34.22 44.74 34.23 42.13 Z" />
<path fill="#afaadc" opacity="1.00" d=" M 35.10 44.64 C 35.50 43.92 35.89 43.20 36.29 42.48 C 38.47 44.34 40.83 46.07 42.54 48.40 C 42.07 50.55 40.62 52.31 39.56 54.20 C 37.88 52.83 36.34 51.29 34.66 49.91 C 36.20 49.79 37.73 49.66 39.27 49.54 C 37.89 47.90 36.50 46.27 35.10 44.64 Z" />
<path fill="#000000" opacity="1.00" d=" M 74.97 45.12 C 75.75 45.25 77.30 45.50 78.08 45.62 C 77.21 49.62 76.05 53.60 73.94 57.13 C 72.56 58.67 70.98 60.04 69.22 61.14 C 69.81 55.39 72.66 50.30 74.97 45.12 Z" />
<path fill="#000000" opacity="1.00" d=" M 63.86 51.05 C 64.75 48.93 66.25 47.17 67.81 45.50 C 67.97 47.33 68.15 49.15 68.20 50.99 C 67.14 53.18 66.11 55.39 65.09 57.61 C 64.56 57.21 63.49 56.39 62.95 55.98 C 63.27 54.34 63.58 52.70 63.86 51.05 Z" />
<path fill="#fffa60" opacity="1.00" d=" M 43.49 58.45 C 42.28 57.17 43.22 55.58 43.52 54.15 C 45.94 56.57 48.62 58.82 50.50 61.70 C 51.01 63.18 51.43 64.69 51.93 66.18 C 48.69 64.15 45.61 61.68 43.49 58.45 Z" />
<path fill="#8d89b6" opacity="1.00" d=" M 36.84 58.71 C 39.62 58.73 41.02 60.53 41.02 63.20 C 39.05 62.29 37.26 61.00 36.84 58.71 Z" />
<path fill="#fefefe" opacity="1.00" d=" M 0.00 59.28 C 2.38 61.13 5.05 62.63 7.25 64.71 C 9.03 66.39 9.01 69.05 9.36 71.31 C 8.01 70.37 6.67 69.43 5.36 68.45 C 3.45 66.93 1.67 65.24 0.00 63.47 L 0.00 59.28 Z" />
<path fill="#fffffe" opacity="1.00" d=" M 51.93 66.18 C 51.43 64.69 51.01 63.18 50.50 61.70 C 53.20 63.03 55.59 64.91 57.62 67.14 C 56.05 67.14 54.49 67.14 52.93 67.05 C 52.68 66.83 52.18 66.40 51.93 66.18 Z" />
<path fill="#d2d2d1" opacity="1.00" d=" M 0.00 63.47 C 1.67 65.24 3.45 66.93 5.36 68.45 C 3.06 73.52 5.28 79.00 5.86 84.19 C 3.90 83.92 1.94 83.64 0.00 83.27 L 0.00 63.47 Z" />
<path fill="#fefdfe" opacity="1.00" d=" M 23.23 64.75 C 31.49 63.46 39.32 66.82 47.14 68.91 C 50.69 69.83 53.90 71.75 56.28 74.55 C 55.18 74.46 54.09 74.37 52.99 74.29 C 42.91 73.13 33.67 68.13 23.42 67.95 C 23.38 67.15 23.28 65.55 23.23 64.75 Z" />
<path fill="#fffffe" opacity="1.00" d=" M 60.68 67.11 C 64.26 66.52 67.84 65.92 71.42 65.30 C 71.57 65.97 71.86 67.33 72.01 68.00 C 68.27 70.36 64.62 73.81 59.84 73.32 C 60.11 71.25 60.39 69.18 60.68 67.11 Z" />
<path fill="#e5dd38" opacity="1.00" d=" M 52.93 67.05 C 54.49 67.14 56.05 67.14 57.62 67.14 C 58.64 67.14 59.66 67.13 60.68 67.11 C 60.39 69.18 60.11 71.25 59.84 73.32 C 57.57 71.19 55.23 69.15 52.93 67.05 Z" />
<path fill="#817ea7" opacity="1.00" d=" M 5.86 84.19 C 5.28 79.00 3.06 73.52 5.36 68.45 C 6.67 69.43 8.01 70.37 9.36 71.31 C 9.42 76.72 10.04 82.30 8.66 87.60 C 6.81 90.70 2.97 91.79 0.00 93.55 L 0.00 83.27 C 1.94 83.64 3.90 83.92 5.86 84.19 Z" />
<path fill="#7a769f" opacity="1.00" d=" M 21.26 72.06 C 21.65 72.00 22.41 71.86 22.79 71.79 C 22.86 73.17 22.93 74.54 23.04 75.92 C 23.31 80.65 23.43 85.45 24.82 90.02 C 24.25 89.88 23.11 89.60 22.54 89.46 C 23.68 94.32 25.86 98.85 28.89 102.81 C 24.37 102.61 19.84 102.72 15.35 103.30 C 15.02 97.05 19.51 92.05 21.20 86.29 C 23.03 81.70 21.91 76.76 21.26 72.06 Z" />
<path fill="#fdfdfd" opacity="1.00" d=" M 22.79 71.79 C 35.62 74.46 48.51 77.45 60.66 82.46 C 64.79 83.90 66.48 88.23 68.20 91.87 C 70.57 97.01 71.79 102.60 72.21 108.23 C 70.96 108.18 69.71 108.13 68.46 108.07 C 67.92 102.27 68.19 95.63 63.84 91.14 C 58.85 85.92 51.80 83.50 45.39 80.55 C 39.47 77.81 33.06 76.31 26.54 76.08 C 25.94 78.80 25.32 81.52 24.69 84.24 C 24.11 81.47 23.49 78.71 23.04 75.92 C 22.93 74.54 22.86 73.17 22.79 71.79 Z" />
<path fill="#afaadc" opacity="1.00" d=" M 56.28 74.55 C 59.02 74.99 61.59 76.13 64.25 76.90 C 64.38 77.48 64.64 78.62 64.77 79.19 C 60.51 78.54 56.25 77.26 52.99 74.29 C 54.09 74.37 55.18 74.46 56.28 74.55 Z" />
<path fill="#ffffff" opacity="1.00" d=" M 14.39 74.65 C 15.91 75.35 18.22 75.89 18.15 78.01 C 18.00 80.97 17.53 84.13 15.68 86.55 C 15.44 86.88 14.95 87.54 14.71 87.86 C 13.83 83.51 14.19 79.05 14.39 74.65 Z" />
<path fill="#d3d3d3" opacity="1.00" d=" M 23.04 75.92 C 23.49 78.71 24.11 81.47 24.69 84.24 C 25.32 81.52 25.94 78.80 26.54 76.08 C 33.06 76.31 39.47 77.81 45.39 80.55 C 51.80 83.50 58.85 85.92 63.84 91.14 C 68.19 95.63 67.92 102.27 68.46 108.07 C 63.02 107.79 57.58 107.44 52.15 106.89 C 46.66 106.17 41.02 105.96 35.74 104.18 C 29.80 101.89 26.50 95.84 24.82 90.02 C 23.43 85.45 23.31 80.65 23.04 75.92 Z" />
<path fill="#f6f6f5" opacity="1.00" d=" M 81.89 89.76 C 85.67 87.80 89.39 85.70 93.30 84.01 C 95.24 87.34 97.04 90.76 98.71 94.24 C 96.51 96.25 94.05 98.05 92.36 100.53 C 91.82 102.73 92.15 105.02 92.19 107.26 C 91.47 106.12 90.74 104.98 90.04 103.83 C 87.68 98.94 85.93 93.62 81.89 89.76 Z" />
<path fill="#d2cffe" opacity="1.00" d=" M 14.71 87.86 C 14.95 87.54 15.44 86.88 15.68 86.55 C 15.32 91.25 12.10 94.86 9.46 98.50 C 8.57 99.42 7.84 101.23 6.25 100.57 C 4.90 99.90 3.73 98.92 2.50 98.04 C 7.19 95.47 11.62 92.31 14.71 87.86 Z" />
<path fill="#f4f4f4" opacity="1.00" d=" M 69.40 86.66 C 73.56 89.00 78.00 91.22 81.15 94.91 C 84.53 99.58 85.14 105.53 86.40 111.00 L 83.86 111.00 C 81.16 109.75 78.54 108.36 75.90 107.00 C 75.10 99.85 72.81 92.97 69.40 86.66 Z" />
<path fill="#585276" opacity="1.00" d=" M 22.54 89.46 C 23.11 89.60 24.25 89.88 24.82 90.02 C 26.50 95.84 29.80 101.89 35.74 104.18 C 41.02 105.96 46.66 106.17 52.15 106.89 C 52.26 107.32 52.46 108.20 52.56 108.64 C 48.94 109.11 45.40 109.99 41.90 111.00 L 19.98 111.00 C 18.42 108.44 16.80 105.92 15.35 103.30 C 19.84 102.72 24.37 102.61 28.89 102.81 C 25.86 98.85 23.68 94.32 22.54 89.46 Z" />
<path fill="#9390b3" opacity="1.00" d=" M 98.71 94.24 C 99.85 97.40 101.43 100.50 101.68 103.89 C 101.73 105.03 101.19 105.74 100.05 106.00 C 96.94 107.31 93.54 107.57 90.23 107.97 C 90.16 106.59 90.10 105.21 90.04 103.83 C 90.74 104.98 91.47 106.12 92.19 107.26 C 92.15 105.02 91.82 102.73 92.36 100.53 C 94.05 98.05 96.51 96.25 98.71 94.24 Z" />
<path fill="#57538a" opacity="1.00" d=" M 0.00 102.38 C 3.73 104.35 7.36 106.51 10.54 109.30 C 7.88 109.93 5.22 110.56 2.52 111.00 L 0.00 111.00 L 0.00 102.38 Z" />
<path fill="#7876a2" opacity="1.00" d=" M 52.15 106.89 C 57.58 107.44 63.02 107.79 68.46 108.07 C 69.71 108.13 70.96 108.18 72.21 108.23 C 72.27 108.92 72.39 110.31 72.46 111.00 L 41.90 111.00 C 45.40 109.99 48.94 109.11 52.56 108.64 C 52.46 108.20 52.26 107.32 52.15 106.89 Z" />
<path fill="#8d89b6" opacity="1.00" d=" M 75.90 107.00 C 78.54 108.36 81.16 109.75 83.86 111.00 L 76.48 111.00 C 76.29 109.66 76.09 108.33 75.90 107.00 Z" />
</svg>
