<?xml version="1.0" encoding="UTF-8" ?>
<!DOCTYPE svg PUBLIC "-//W3C//DTD SVG 1.1//EN" "http://www.w3.org/Graphics/SVG/1.1/DTD/svg11.dtd">
<svg width="111pt" height="111pt" viewBox="0 0 111 111" version="1.1" xmlns="http://www.w3.org/2000/svg">
<path fill="#000000" opacity="0.53" d=" M 1.43 37.13 C 2.15 33.12 3.71 29.29 6.43 26.21 C 4.68 30.01 3.60 34.06 3.04 38.20 C 2.51 37.85 1.97 37.49 1.43 37.13 Z" />
<path fill="#000000" opacity="1.00" d=" M 6.43 26.21 C 16.47 27.99 25.86 32.57 33.35 39.49 C 33.90 39.95 34.44 40.41 34.98 40.86 C 37.77 37.04 40.51 32.41 45.46 31.22 C 51.87 29.62 58.41 32.09 64.12 34.88 C 70.01 39.01 76.30 44.50 77.17 52.07 C 76.48 57.36 72.72 61.55 70.31 66.15 C 71.47 66.52 72.64 66.87 73.82 67.20 C 77.44 68.35 81.23 68.83 85.01 69.07 C 91.83 69.50 98.58 70.80 105.09 72.86 C 107.69 74.15 110.51 76.58 109.74 79.83 C 108.29 87.71 102.72 93.87 98.06 100.08 C 97.26 101.42 95.72 102.88 96.53 104.57 C 97.50 107.10 99.42 109.10 101.29 111.00 L 96.28 111.00 C 94.02 109.20 91.80 107.35 89.47 105.64 C 89.66 104.07 89.87 102.50 90.09 100.93 C 90.69 100.31 91.28 99.69 91.87 99.07 C 97.59 93.20 101.97 86.20 105.65 78.92 C 104.06 78.06 102.46 77.19 100.83 76.40 C 88.20 72.50 74.62 71.98 62.43 66.59 C 55.48 63.63 48.49 60.76 41.66 57.56 C 35.10 53.77 27.37 51.39 22.55 45.22 C 25.06 45.62 27.56 46.07 30.07 46.54 C 28.61 43.33 27.63 39.56 24.63 37.41 C 19.54 33.78 13.41 32.00 7.30 31.09 C 7.72 38.55 9.66 46.16 14.42 52.08 C 13.37 53.16 12.32 54.23 11.27 55.30 C 7.66 49.76 5.08 43.46 0.00 39.01 L 0.00 36.12 C 0.36 36.37 1.08 36.88 1.43 37.13 C 1.97 37.49 2.51 37.85 3.04 38.20 C 3.60 34.06 4.68 30.01 6.43 26.21 M 48.47 41.46 C 46.31 42.30 43.66 44.11 44.24 46.79 C 45.51 52.33 54.22 53.68 57.66 49.60 C 58.21 44.96 53.20 39.76 48.47 41.46 Z" />
<path fill="#000000" opacity="0.52" d=" M 46.00 29.95 C 52.44 28.38 58.89 31.33 64.12 34.88 C 58.41 32.09 51.87 29.62 45.46 31.22 C 40.51 32.41 37.77 37.04 34.98 40.86 C 34.44 40.41 33.90 39.95 33.35 39.49 C 37.39 36.12 40.73 31.43 46.00 29.95 Z" />
<path fill="#512472" opacity="1.00" d=" M 7.30 31.09 C 13.41 32.00 19.54 33.78 24.63 37.41 C 27.63 39.56 28.61 43.33 30.07 46.54 C 27.56 46.07 25.06 45.62 22.55 45.22 C 27.37 51.39 35.10 53.77 41.66 57.56 C 42.32 59.13 43.01 60.70 43.80 62.21 C 42.81 62.08 41.82 61.97 40.83 61.87 C 40.68 62.86 40.52 63.86 40.36 64.85 C 40.27 65.41 40.09 66.52 40.00 67.07 C 36.56 62.23 33.37 56.38 27.29 54.53 C 24.38 53.20 21.25 54.24 18.41 55.18 C 17.10 54.12 15.72 53.15 14.42 52.08 C 9.66 46.16 7.72 38.55 7.30 31.09 Z" />
<path fill="#451e66" opacity="1.00" d=" M 0.00 39.01 C 5.08 43.46 7.66 49.76 11.27 55.30 C 17.55 64.94 24.66 74.70 35.07 80.19 C 30.69 71.19 25.39 62.41 18.41 55.18 C 21.25 54.24 24.38 53.20 27.29 54.53 C 33.37 56.38 36.56 62.23 40.00 67.07 C 43.67 71.95 46.17 78.09 51.65 81.29 C 54.76 83.16 58.04 84.69 61.34 86.17 C 57.06 85.46 52.71 85.60 48.39 85.84 C 48.53 89.73 48.36 93.65 47.62 97.48 C 42.45 94.46 37.53 90.96 33.37 86.62 C 30.46 83.55 27.13 80.93 23.60 78.60 C 13.26 68.28 6.11 55.39 0.00 42.26 L 0.00 39.01 Z" />
<path fill="#fe408c" opacity="1.00" d=" M 48.47 41.46 C 53.20 39.76 58.21 44.96 57.66 49.60 C 54.22 53.68 45.51 52.33 44.24 46.79 C 43.66 44.11 46.31 42.30 48.47 41.46 Z" />
<path fill="#010102" opacity="1.00" d=" M 0.00 42.26 C 6.11 55.39 13.26 68.28 23.60 78.60 C 32.03 90.79 42.95 100.91 53.70 111.00 L 48.20 111.00 C 47.71 110.60 46.73 109.79 46.24 109.39 C 44.81 108.18 43.40 106.96 41.90 105.84 C 40.68 105.45 39.43 105.13 38.19 104.80 C 38.31 106.87 38.44 108.93 38.59 111.00 L 35.45 111.00 C 34.70 109.44 34.03 107.85 33.35 106.26 C 28.86 106.09 24.14 106.76 19.85 105.15 C 17.34 102.32 18.00 97.66 15.12 94.96 C 8.95 89.12 5.00 81.49 0.00 74.70 L 0.00 68.16 C 2.60 71.13 6.59 70.83 10.17 70.63 C 9.53 69.53 8.89 68.44 8.24 67.35 C 7.14 65.45 6.04 63.54 4.94 61.65 C 3.47 62.85 2.01 64.06 0.57 65.29 L 0.00 65.78 L 0.00 42.26 M 4.68 75.33 C 6.09 77.12 7.22 79.50 9.52 80.29 C 12.53 80.44 15.38 79.14 18.26 78.44 C 16.45 75.95 14.34 73.68 12.05 71.62 C 9.59 72.85 7.13 74.07 4.68 75.33 M 10.66 84.04 C 12.31 87.16 13.82 91.09 17.48 92.29 C 21.40 93.13 25.46 92.64 29.43 92.52 C 27.09 88.72 24.37 84.89 20.45 82.59 C 17.16 81.31 13.72 82.85 10.66 84.04 M 21.20 97.30 C 21.21 98.83 21.22 100.36 21.22 101.89 C 26.93 101.96 32.64 101.92 38.34 101.52 C 36.68 99.97 35.19 97.78 32.76 97.50 C 28.92 97.04 25.05 97.29 21.20 97.30 Z" />
<path fill="#2f184d" opacity="1.00" d=" M 14.42 52.08 C 15.72 53.15 17.10 54.12 18.41 55.18 C 25.39 62.41 30.69 71.19 35.07 80.19 C 24.66 74.70 17.55 64.94 11.27 55.30 C 12.32 54.23 13.37 53.16 14.42 52.08 Z" />
<path fill="#ae52b9" opacity="1.00" d=" M 43.80 62.21 C 43.01 60.70 42.32 59.13 41.66 57.56 C 48.49 60.76 55.48 63.63 62.43 66.59 C 74.62 71.98 88.20 72.50 100.83 76.40 C 101.19 80.60 100.69 85.01 97.87 88.35 C 96.33 87.63 94.80 86.90 93.28 86.15 C 93.45 85.16 93.61 84.16 93.78 83.17 C 84.93 78.21 75.43 74.64 65.97 71.06 C 58.51 68.29 51.37 64.71 43.80 62.21 Z" />
<path fill="#706ead" opacity="1.00" d=" M 0.57 65.29 C 2.01 64.06 3.47 62.85 4.94 61.65 C 6.04 63.54 7.14 65.45 8.24 67.35 C 5.64 66.86 3.10 66.08 0.57 65.29 Z" />
<path fill="#04012b" opacity="1.00" d=" M 40.83 61.87 C 41.82 61.97 42.81 62.08 43.80 62.21 C 51.37 64.71 58.51 68.29 65.97 71.06 C 75.43 74.64 84.93 78.21 93.78 83.17 C 93.61 84.16 93.45 85.16 93.28 86.15 C 76.23 77.67 57.79 72.48 40.36 64.85 C 40.52 63.86 40.68 62.86 40.83 61.87 Z" />
<path fill="#aeaad0" opacity="1.00" d=" M 0.00 65.78 L 0.57 65.29 C 3.10 66.08 5.64 66.86 8.24 67.35 C 8.89 68.44 9.53 69.53 10.17 70.63 C 6.59 70.83 2.60 71.13 0.00 68.16 L 0.00 65.78 Z" />
<path fill="#bb59bc" opacity="1.00" d=" M 40.00 67.07 C 40.09 66.52 40.27 65.41 40.36 64.85 C 57.79 72.48 76.23 77.67 93.28 86.15 C 94.80 86.90 96.33 87.63 97.87 88.35 C 95.27 91.67 92.43 94.78 89.73 98.02 C 80.42 93.72 70.60 90.62 61.34 86.17 C 58.04 84.69 54.76 83.16 51.65 81.29 C 46.17 78.09 43.67 71.95 40.00 67.07 Z" />
<path fill="#000000" opacity="0.46" d=" M 73.82 67.20 C 84.35 67.88 95.50 67.85 105.09 72.86 C 98.58 70.80 91.83 69.50 85.01 69.07 C 81.23 68.83 77.44 68.35 73.82 67.20 Z" />
<path fill="#7676ac" opacity="1.00" d=" M 4.68 75.33 C 7.13 74.07 9.59 72.85 12.05 71.62 C 14.34 73.68 16.45 75.95 18.26 78.44 C 15.38 79.14 12.53 80.44 9.52 80.29 C 7.22 79.50 6.09 77.12 4.68 75.33 Z" />
<path fill="#391d56" opacity="1.00" d=" M 0.00 74.70 C 5.00 81.49 8.95 89.12 15.12 94.96 C 18.00 97.66 17.34 102.32 19.85 105.15 C 24.14 106.76 28.86 106.09 33.35 106.26 C 34.03 107.85 34.70 109.44 35.45 111.00 L 0.00 111.00 L 0.00 74.70 Z" />
<path fill="#cf62d5" opacity="1.00" d=" M 97.87 88.35 C 100.69 85.01 101.19 80.60 100.83 76.40 C 102.46 77.19 104.06 78.06 105.65 78.92 C 101.97 86.20 97.59 93.20 91.87 99.07 C 91.34 98.80 90.26 98.28 89.73 98.02 C 92.43 94.78 95.27 91.67 97.87 88.35 Z" />
<path fill="#522471" opacity="1.00" d=" M 23.60 78.60 C 27.13 80.93 30.46 83.55 33.37 86.62 C 37.53 90.96 42.45 94.46 47.62 97.48 C 48.36 93.65 48.53 89.73 48.39 85.84 C 52.71 85.60 57.06 85.46 61.34 86.17 C 70.60 90.62 80.42 93.72 89.73 98.02 C 90.26 98.28 91.34 98.80 91.87 99.07 C 91.28 99.69 90.69 100.31 90.09 100.93 C 86.11 98.53 81.93 95.59 77.06 95.80 C 72.20 96.06 68.37 99.52 65.29 102.96 C 63.30 105.48 61.69 108.26 60.04 111.00 L 53.70 111.00 C 42.95 100.91 32.03 90.79 23.60 78.60 Z" />
<path fill="#6d6c9d" opacity="1.00" d=" M 10.66 84.04 C 13.72 82.85 17.16 81.31 20.45 82.59 C 24.37 84.89 27.09 88.72 29.43 92.52 C 25.46 92.64 21.40 93.13 17.48 92.29 C 13.82 91.09 12.31 87.16 10.66 84.04 Z" />
<path fill="#af53b4" opacity="1.00" d=" M 65.29 102.96 C 68.37 99.52 72.20 96.06 77.06 95.80 C 81.93 95.59 86.11 98.53 90.09 100.93 C 89.87 102.50 89.66 104.07 89.47 105.64 C 91.80 107.35 94.02 109.20 96.28 111.00 L 83.71 111.00 C 81.24 108.58 79.27 105.55 76.24 103.78 C 72.76 102.42 68.93 103.01 65.29 102.96 Z" />
<path fill="#8988c0" opacity="1.00" d=" M 21.20 97.30 C 25.05 97.29 28.92 97.04 32.76 97.50 C 35.19 97.78 36.68 99.97 38.34 101.52 C 32.64 101.92 26.93 101.96 21.22 101.89 C 21.22 100.36 21.21 98.83 21.20 97.30 Z" />
<path fill="#92449f" opacity="1.00" d=" M 65.29 102.96 C 68.93 103.01 72.76 102.42 76.24 103.78 C 79.27 105.55 81.24 108.58 83.71 111.00 L 60.04 111.00 C 61.69 108.26 63.30 105.48 65.29 102.96 Z" />
<path fill="#605f7f" opacity="1.00" d=" M 38.19 104.80 C 39.43 105.13 40.68 105.45 41.90 105.84 C 41.14 105.87 39.62 105.92 38.86 105.95 C 38.98 107.30 39.10 108.64 39.22 109.99 C 41.56 109.80 43.90 109.61 46.24 109.39 C 46.73 109.79 47.71 110.60 48.20 111.00 L 38.59 111.00 C 38.44 108.93 38.31 106.87 38.19 104.80 Z" />
<path fill="#a5a4df" opacity="1.00" d=" M 38.86 105.95 C 39.62 105.92 41.14 105.87 41.90 105.84 C 43.40 106.96 44.81 108.18 46.24 109.39 C 43.90 109.61 41.56 109.80 39.22 109.99 C 39.10 108.64 38.98 107.30 38.86 105.95 Z" />
</svg>
