<?xml version="1.0" encoding="UTF-8" ?>
<!DOCTYPE svg PUBLIC "-//W3C//DTD SVG 1.1//EN" "http://www.w3.org/Graphics/SVG/1.1/DTD/svg11.dtd">
<svg width="111pt" height="111pt" viewBox="0 0 111 111" version="1.1" xmlns="http://www.w3.org/2000/svg">
<path fill="#000000" opacity="1.00" d=" M 95.06 0.00 L 100.66 0.00 C 99.08 0.97 97.53 1.99 96.01 3.06 C 94.41 4.15 92.87 5.36 91.51 6.74 C 90.32 7.92 89.16 9.17 87.66 9.96 C 86.88 10.32 86.10 10.67 85.32 11.02 C 82.84 12.09 80.60 13.62 78.50 15.31 C 77.34 16.48 76.67 17.99 76.27 19.57 C 78.05 19.11 79.85 18.66 81.60 18.07 C 82.00 18.85 82.81 20.40 83.21 21.17 C 84.53 25.91 81.93 30.30 79.00 33.79 C 79.40 33.96 80.20 34.29 80.61 34.46 C 81.08 34.86 82.03 35.65 82.50 36.04 C 85.76 31.12 87.56 25.55 88.75 19.82 C 96.00 20.86 102.15 25.60 106.35 31.42 C 107.97 34.77 109.38 38.23 111.00 41.58 L 111.00 47.00 C 109.23 47.15 109.22 49.76 111.00 49.91 L 111.00 55.97 C 109.64 64.51 104.51 72.80 96.43 76.41 C 92.78 78.21 88.45 78.26 84.71 76.73 C 81.49 78.03 78.02 78.22 74.60 78.36 C 76.56 79.66 78.85 80.23 81.18 80.46 C 81.18 81.77 81.25 83.07 81.24 84.38 C 87.80 86.64 94.00 91.15 96.18 98.01 C 96.91 100.45 98.53 104.19 96.03 105.99 C 94.42 102.78 93.18 98.35 89.01 97.77 C 77.73 96.14 67.10 101.65 55.97 102.24 C 49.16 102.28 41.64 100.49 37.17 94.98 C 33.21 89.67 31.63 82.53 33.31 76.09 C 31.10 77.84 29.40 80.39 26.46 80.94 C 25.70 80.09 24.94 79.24 24.17 78.39 C 18.88 80.98 12.85 82.30 6.97 81.36 C 4.77 80.83 2.22 80.11 1.23 77.84 C 7.40 76.52 12.36 72.48 17.84 69.63 C 17.36 68.92 16.41 67.51 15.94 66.81 C 19.62 63.29 24.96 63.17 29.36 61.13 L 29.62 59.74 C 19.30 61.05 8.30 62.82 0.00 69.60 L 0.00 61.60 C 3.67 55.45 8.47 49.82 14.91 46.44 C 18.10 50.34 22.89 52.00 27.19 54.30 C 30.68 53.03 34.18 51.73 37.38 49.81 C 39.72 48.90 42.18 49.46 44.54 49.98 C 44.49 48.93 44.45 47.87 44.41 46.81 C 43.58 46.13 42.75 45.44 41.92 44.75 C 39.97 45.69 38.05 46.68 36.10 47.60 L 35.37 47.89 C 32.29 49.29 28.82 48.89 25.55 48.63 C 21.77 47.54 17.95 45.75 15.61 42.45 C 13.58 39.63 14.04 35.92 14.61 32.70 C 15.60 30.52 17.20 28.67 19.50 27.81 C 19.07 28.90 18.63 29.99 18.18 31.07 C 19.65 31.89 21.11 32.72 22.58 33.54 C 21.87 30.78 21.09 28.05 20.33 25.30 C 16.44 24.56 12.47 24.13 8.52 24.55 C 5.65 24.70 2.80 25.09 0.00 25.72 L 0.00 23.02 C 6.87 21.69 14.03 21.17 20.86 22.99 C 22.16 23.19 23.13 24.12 23.39 25.41 C 24.53 29.07 24.90 32.95 24.68 36.77 C 21.84 36.62 19.60 34.75 17.20 33.45 C 15.95 37.40 17.44 41.96 21.28 43.79 C 26.89 47.47 33.94 46.51 39.63 43.57 C 39.82 42.91 40.21 41.59 40.40 40.93 C 41.86 40.70 43.32 40.49 44.78 40.28 C 44.76 39.22 44.73 37.12 44.71 36.07 C 45.51 37.20 46.13 38.45 46.68 39.72 C 46.79 40.11 47.00 40.89 47.10 41.28 C 45.52 41.78 43.93 42.27 42.34 42.75 C 43.77 43.75 45.20 44.74 46.64 45.73 C 47.99 43.14 49.23 40.49 50.57 37.89 C 52.27 38.78 54.10 39.40 56.04 39.44 C 57.97 39.98 61.43 38.76 61.73 41.59 C 58.47 41.75 55.20 41.51 51.96 41.09 L 51.02 40.94 C 50.20 42.67 49.37 44.40 48.37 46.04 C 47.05 47.40 46.16 49.16 47.58 50.87 C 47.45 50.92 47.20 51.01 47.07 51.06 C 45.71 51.47 44.44 52.10 43.24 52.86 C 43.26 53.83 43.32 55.78 43.35 56.75 C 43.01 56.72 42.32 56.67 41.98 56.64 C 41.52 56.39 40.61 55.89 40.15 55.64 L 38.99 55.39 C 35.85 54.46 33.81 56.95 32.74 59.54 C 31.35 61.69 30.79 64.16 31.60 66.65 C 31.67 67.15 31.80 68.13 31.87 68.62 L 33.31 67.96 C 33.24 68.78 33.11 70.43 33.04 71.25 C 35.75 71.70 34.59 68.66 34.96 67.08 L 35.62 68.10 C 38.87 64.49 42.24 60.90 46.55 58.55 C 48.74 57.61 48.55 55.05 48.84 53.09 C 51.48 51.84 54.11 50.55 56.38 48.68 L 56.85 48.91 C 58.01 49.97 55.68 51.11 55.29 52.13 C 55.59 52.55 56.19 53.39 56.49 53.81 C 56.42 54.36 56.27 55.47 56.19 56.02 C 59.09 56.88 62.03 57.55 65.00 58.09 C 65.27 56.44 65.59 54.79 65.97 53.16 C 67.13 54.54 67.25 56.38 67.90 58.00 C 70.25 54.43 71.15 50.11 73.72 46.65 C 72.01 48.42 69.47 49.82 69.12 52.48 C 68.55 52.02 67.99 51.57 67.42 51.11 C 64.55 52.63 61.32 52.96 58.13 52.52 L 58.89 51.04 C 61.72 50.45 64.61 50.20 67.45 49.64 C 67.41 47.75 67.41 45.85 67.23 43.97 C 67.13 43.39 66.95 42.24 66.86 41.67 C 65.65 41.32 64.45 40.96 63.25 40.59 C 64.80 40.17 66.35 39.75 67.91 39.35 C 68.44 41.18 69.01 43.00 69.52 44.84 C 69.65 45.51 69.90 46.85 70.03 47.52 C 71.73 46.09 73.56 44.69 74.67 42.73 C 76.08 40.76 74.11 38.75 73.34 36.96 C 72.49 35.49 71.48 34.14 70.49 32.76 C 69.89 34.46 69.31 36.16 68.60 37.82 L 67.17 38.51 C 67.65 35.61 68.67 32.82 68.92 29.88 L 67.89 29.39 C 65.12 28.05 62.29 26.83 59.39 25.81 C 59.19 25.56 58.79 25.07 58.59 24.82 C 58.92 24.37 59.59 23.45 59.92 23.00 C 61.72 21.28 63.54 19.58 65.15 17.68 C 60.68 19.47 56.48 22.14 51.65 22.87 C 49.64 19.58 45.79 22.18 43.24 23.33 C 41.04 23.97 40.99 26.46 40.34 28.27 C 43.12 25.94 45.61 22.76 49.44 22.22 C 49.20 24.88 48.24 27.38 47.06 29.76 C 44.32 30.23 41.54 30.64 38.74 30.43 C 35.70 30.44 32.79 31.56 29.78 31.89 C 30.21 33.24 30.65 34.59 31.09 35.93 C 32.04 35.59 32.99 35.25 33.94 34.90 C 35.26 35.63 36.58 36.35 37.89 37.07 C 39.20 35.37 40.43 33.61 41.64 31.84 C 43.92 32.10 46.21 32.20 48.50 32.36 C 49.13 30.41 49.66 28.43 50.13 26.44 C 51.73 26.22 53.00 25.49 53.95 24.26 C 54.29 25.33 54.65 26.39 55.03 27.45 C 53.72 27.50 52.41 27.54 51.11 27.57 C 52.24 28.68 53.52 29.70 54.40 31.05 C 54.77 33.39 52.90 35.13 51.32 36.51 L 50.04 35.41 L 50.70 33.83 C 51.94 31.67 47.82 32.84 49.90 34.26 C 49.48 35.96 50.43 38.61 47.94 39.09 C 47.87 37.34 47.72 35.59 47.31 33.88 C 45.59 34.37 43.86 34.84 42.14 35.32 C 41.93 35.85 41.51 36.90 41.30 37.43 C 38.24 38.47 35.14 39.41 31.91 39.74 C 29.81 37.12 27.90 34.29 27.61 30.84 C 30.89 29.91 34.24 29.25 37.57 28.55 C 38.27 26.65 38.99 24.75 39.67 22.84 C 45.28 21.20 48.91 16.31 54.00 13.84 C 53.78 16.21 53.35 18.56 52.74 20.85 C 58.14 18.23 63.63 15.82 69.19 13.57 C 68.55 17.93 65.06 20.92 62.19 23.93 C 64.92 24.83 67.55 26.02 70.07 27.41 C 72.02 27.10 74.02 26.29 76.01 26.85 C 77.13 27.73 78.01 28.87 78.96 29.93 C 80.41 27.11 80.97 23.98 80.24 20.87 C 78.01 21.63 75.79 23.10 73.34 22.41 C 73.97 19.51 74.45 16.50 75.85 13.85 C 78.74 10.06 83.73 9.28 87.64 7.02 C 89.89 4.45 92.19 1.90 95.06 0.00 M 51.37 17.31 C 50.04 17.34 48.69 20.01 50.68 20.07 C 51.97 20.10 53.15 17.32 51.37 17.31 M 90.54 22.94 C 90.86 27.03 88.49 30.52 87.11 34.18 C 85.91 36.15 83.07 37.92 83.97 40.49 C 87.50 37.66 90.58 33.96 95.05 32.56 C 96.65 32.11 98.54 32.49 99.90 31.36 C 100.41 33.77 104.63 32.13 101.74 30.59 C 99.85 28.62 97.77 26.84 95.42 25.43 C 93.80 24.59 92.17 23.76 90.54 22.94 M 42.00 28.74 C 43.44 28.79 44.88 28.76 46.32 28.62 C 46.68 27.39 47.04 26.17 47.40 24.95 C 45.26 25.67 43.66 27.30 42.00 28.74 M 70.82 29.84 C 73.70 32.33 75.65 35.66 77.20 39.09 C 78.15 40.69 77.40 42.54 76.66 44.05 C 76.97 44.56 77.59 45.58 77.90 46.09 C 78.92 46.34 79.94 46.59 80.96 46.85 C 81.78 45.17 82.67 43.52 83.60 41.90 C 81.32 40.99 80.68 38.51 79.44 36.64 C 78.75 36.67 77.37 36.72 76.67 36.75 C 75.67 34.48 75.39 32.01 75.25 29.56 C 73.77 29.56 72.29 29.65 70.82 29.84 M 51.07 30.16 C 50.31 31.19 51.54 33.20 52.81 32.62 C 53.45 31.64 52.26 29.66 51.07 30.16 M 92.97 35.81 C 85.65 40.28 82.37 48.77 80.59 56.76 C 79.59 62.41 80.11 69.33 85.00 73.12 C 86.69 74.65 89.05 74.72 91.19 74.46 C 95.97 73.11 100.59 70.64 103.33 66.35 C 109.42 57.74 108.56 45.83 104.00 36.74 C 101.31 33.56 96.23 33.37 92.97 35.81 M 75.29 48.15 C 73.94 50.45 72.71 52.82 71.29 55.09 C 73.13 52.85 75.35 50.93 76.90 48.47 C 76.50 48.39 75.69 48.23 75.29 48.15 M 13.62 49.57 L 13.52 50.21 C 8.23 54.29 4.04 59.81 1.21 65.82 C 7.07 61.69 14.14 60.01 21.00 58.36 C 24.27 58.22 27.60 57.37 30.92 57.91 C 31.63 56.85 32.21 55.73 32.67 54.55 C 26.10 58.01 18.47 54.31 13.62 49.57 M 71.98 57.18 C 73.13 58.99 75.41 59.44 77.16 60.48 C 77.34 56.53 78.75 52.84 79.63 49.03 C 76.59 51.16 74.79 54.71 71.98 57.18 M 39.34 51.27 C 37.36 51.61 38.44 54.08 40.11 53.36 C 42.06 53.12 40.95 50.36 39.34 51.27 M 50.62 54.23 C 51.20 58.05 48.05 60.31 45.03 61.73 C 47.74 61.12 49.95 59.35 52.50 58.35 C 53.21 56.69 53.93 54.99 53.91 53.15 C 52.77 53.37 51.68 53.76 50.62 54.23 M 53.75 58.20 C 56.29 60.09 59.49 60.77 62.49 61.61 C 62.79 61.12 63.39 60.13 63.70 59.64 C 60.35 59.34 57.01 59.00 53.75 58.20 M 64.23 62.75 C 66.61 63.84 68.05 60.80 66.68 59.01 C 64.65 59.03 64.65 61.29 64.23 62.75 M 69.37 59.13 C 68.71 60.55 69.10 61.01 70.55 60.52 C 71.22 59.10 70.83 58.64 69.37 59.13 M 40.58 66.72 C 44.16 67.47 48.18 66.69 51.34 68.91 C 52.66 67.67 53.92 66.37 55.14 65.04 C 54.69 64.50 53.80 63.42 53.35 62.88 C 54.09 63.58 54.83 64.29 55.57 65.00 C 54.01 67.21 50.21 68.63 51.44 71.93 C 54.40 69.60 56.80 66.47 60.37 65.01 C 61.19 69.04 61.35 73.19 62.43 77.18 C 64.13 75.84 65.14 73.89 66.34 72.14 C 66.77 72.60 67.65 73.52 68.09 73.98 C 68.90 71.16 69.80 68.37 70.69 65.58 C 73.08 65.73 75.43 66.22 77.76 66.76 C 77.63 65.79 77.36 63.84 77.23 62.87 C 75.69 62.11 74.17 61.33 72.67 60.50 C 71.47 61.33 70.31 62.19 69.19 63.12 L 69.29 63.28 C 67.83 64.03 66.36 64.77 64.89 65.51 C 64.12 64.86 63.34 64.20 62.57 63.54 C 59.13 63.63 55.88 62.61 52.84 61.10 C 48.55 62.24 44.55 64.68 40.58 66.72 M 18.35 67.10 C 19.55 70.05 21.38 67.12 22.96 66.33 C 25.93 65.86 26.85 69.31 27.75 71.45 C 28.52 73.67 29.82 78.39 25.87 77.76 C 26.70 78.48 27.88 78.75 28.39 77.49 C 30.16 73.36 30.27 68.41 28.27 64.34 C 24.91 65.07 21.69 66.30 18.35 67.10 M 53.08 73.74 C 51.45 74.66 49.95 74.29 48.61 73.11 C 48.60 72.33 48.59 70.77 48.58 69.99 C 48.19 70.07 47.40 70.21 47.00 70.29 C 46.25 73.45 45.37 76.62 45.33 79.89 C 48.44 78.20 51.83 76.80 54.07 73.94 L 54.97 74.14 C 54.54 76.05 54.37 78.01 54.37 79.97 C 53.62 80.98 52.96 82.06 52.28 83.12 C 53.08 84.25 53.93 85.34 54.98 86.24 C 56.27 83.52 56.31 80.44 57.37 77.64 C 58.19 76.98 58.85 76.14 59.55 75.36 C 58.92 72.94 58.66 70.46 58.52 67.98 C 56.52 69.72 55.05 71.97 53.08 73.74 M 71.96 68.34 C 71.80 68.92 71.47 70.07 71.31 70.65 L 72.47 70.58 C 72.27 72.26 72.12 73.94 72.04 75.63 C 75.44 75.46 78.84 75.42 82.23 75.23 C 81.06 73.63 79.90 72.02 78.88 70.31 C 78.50 66.82 74.26 68.81 71.96 68.34 M 37.32 69.27 C 37.41 71.36 37.56 73.51 36.63 75.46 C 34.87 79.33 35.45 83.71 36.17 87.75 C 37.56 92.01 40.58 95.58 44.57 97.61 C 45.19 97.82 46.41 98.22 47.02 98.43 C 62.17 103.28 76.82 91.06 92.03 95.66 C 89.21 91.68 84.90 89.24 80.85 86.71 C 79.24 86.61 78.82 88.64 77.93 89.59 C 77.07 89.26 76.25 88.84 75.49 88.32 C 75.19 89.49 74.72 90.59 74.08 91.62 C 71.67 90.58 70.46 88.24 69.17 86.12 C 66.08 87.27 62.90 88.44 59.55 88.25 C 59.13 90.53 55.36 95.25 54.23 90.93 C 53.03 92.07 51.80 93.19 50.58 94.31 C 49.49 92.42 48.03 90.71 45.87 90.06 C 45.67 88.29 45.76 86.47 45.30 84.75 C 46.43 82.95 48.44 82.67 50.35 82.40 C 51.27 81.19 52.07 79.90 52.75 78.54 C 49.98 80.04 47.44 82.38 44.14 82.54 C 42.40 80.41 42.79 77.71 43.28 75.22 C 43.84 73.45 44.28 71.64 44.51 69.80 C 42.10 69.80 39.70 69.67 37.32 69.27 M 15.71 74.04 L 17.84 75.53 C 17.29 75.52 16.19 75.51 15.64 75.51 C 15.05 76.55 14.01 76.92 12.53 76.62 L 12.45 77.43 C 10.13 77.42 7.77 77.69 5.78 79.03 C 12.86 80.40 19.68 77.67 26.11 75.07 L 26.11 73.34 C 25.73 72.31 25.36 71.27 25.01 70.24 C 21.21 69.57 19.21 73.34 15.71 74.04 M 31.93 73.40 C 30.42 76.47 35.19 73.60 31.93 73.40 M 68.09 77.13 C 67.84 79.53 68.81 81.70 69.94 83.74 C 70.42 83.23 71.39 82.20 71.88 81.69 C 73.08 82.24 74.66 83.55 75.79 81.95 C 73.76 80.87 72.65 78.91 71.24 77.22 C 70.45 77.19 68.88 77.15 68.09 77.13 M 59.58 78.93 C 58.98 81.03 58.56 83.17 58.23 85.32 C 61.29 86.67 64.56 85.28 67.49 84.31 C 66.24 82.45 65.18 80.45 64.92 78.19 C 63.92 79.20 62.92 80.19 61.91 81.19 C 61.29 80.25 60.51 79.50 59.58 78.93 M 78.94 84.91 C 80.41 84.67 80.20 82.00 78.94 81.54 C 76.96 81.49 77.25 84.66 78.94 84.91 M 75.99 83.22 C 73.30 83.30 74.85 87.71 77.07 86.65 C 77.52 85.55 76.92 83.92 75.99 83.22 M 47.24 86.58 C 48.48 86.99 49.62 84.78 49.06 83.74 C 47.49 82.84 46.35 85.45 47.24 86.58 M 73.40 89.05 C 73.51 87.30 73.28 85.56 72.82 83.87 C 69.91 84.56 72.27 87.68 73.40 89.05 M 50.52 91.13 C 52.88 90.56 53.14 88.02 51.83 86.25 C 51.78 85.93 51.69 85.28 51.64 84.96 C 50.21 86.54 47.74 89.47 50.52 91.13 M 56.00 90.34 C 57.24 89.94 58.14 87.22 56.17 87.21 C 54.17 86.96 54.34 90.12 56.00 90.34 Z" />
<path fill="#d7ffb3" opacity="1.00" d=" M 100.66 0.00 L 106.20 0.00 C 103.35 1.66 100.54 3.47 98.07 5.67 C 97.00 5.09 96.31 4.22 96.01 3.06 C 97.53 1.99 99.08 0.97 100.66 0.00 Z" />
<path fill="#8a2b6f" opacity="1.00" d=" M 106.20 0.00 L 111.00 0.00 L 111.00 0.39 C 105.00 3.47 99.67 7.69 95.45 12.95 C 94.41 12.62 93.37 12.31 92.32 12.03 C 93.27 10.84 94.21 9.65 95.21 8.50 C 96.12 7.52 97.07 6.57 98.07 5.67 C 100.54 3.47 103.35 1.66 106.20 0.00 Z" />
<path fill="#000000" opacity="1.00" d=" M 95.45 12.95 C 99.67 7.69 105.00 3.47 111.00 0.39 L 111.00 3.21 C 106.77 5.64 102.93 8.66 99.43 12.06 C 103.12 13.79 106.06 16.63 109.32 19.01 C 109.74 19.50 110.58 20.48 111.00 20.97 L 111.00 25.38 C 106.87 20.00 101.16 16.39 95.45 12.95 Z" />
<path fill="#c9a859" opacity="1.00" d=" M 91.51 6.74 C 92.87 5.36 94.41 4.15 96.01 3.06 C 96.31 4.22 97.00 5.09 98.07 5.67 C 97.07 6.57 96.12 7.52 95.21 8.50 C 93.98 7.92 92.74 7.33 91.51 6.74 Z" />
<path fill="#6c575e" opacity="1.00" d=" M 99.43 12.06 C 102.93 8.66 106.77 5.64 111.00 3.21 L 111.00 8.61 C 110.51 11.18 107.99 12.34 106.12 13.79 C 107.30 15.45 108.37 17.20 109.32 19.01 C 106.06 16.63 103.12 13.79 99.43 12.06 Z" />
<path fill="#ce6d64" opacity="1.00" d=" M 87.66 9.96 C 89.16 9.17 90.32 7.92 91.51 6.74 C 92.74 7.33 93.98 7.92 95.21 8.50 C 94.21 9.65 93.27 10.84 92.32 12.03 C 93.37 12.31 94.41 12.62 95.45 12.95 C 101.16 16.39 106.87 20.00 111.00 25.38 L 111.00 41.58 C 109.38 38.23 107.97 34.77 106.35 31.42 C 106.17 29.63 106.09 27.67 104.72 26.33 C 100.23 21.35 94.28 17.46 87.60 16.26 C 88.43 15.23 89.25 14.19 90.05 13.14 C 89.25 12.08 88.46 11.02 87.66 9.96 Z" />
<path fill="#fafdae" opacity="1.00" d=" M 106.12 13.79 C 107.99 12.34 110.51 11.18 111.00 8.61 L 111.00 20.97 C 110.58 20.48 109.74 19.50 109.32 19.01 C 108.37 17.20 107.30 15.45 106.12 13.79 Z" />
<path fill="#d54f58" opacity="1.00" d=" M 85.32 11.02 C 86.10 10.67 86.88 10.32 87.66 9.96 C 88.46 11.02 89.25 12.08 90.05 13.14 C 89.25 14.19 88.43 15.23 87.60 16.26 C 87.25 16.71 86.55 17.60 86.20 18.04 C 86.20 18.54 86.20 19.54 86.21 20.04 C 85.21 20.42 84.21 20.79 83.21 21.17 C 82.81 20.40 82.00 18.85 81.60 18.07 C 82.06 17.76 82.97 17.14 83.43 16.82 C 85.08 15.36 84.90 13.00 85.32 11.02 Z" />
<path fill="#d06f64" opacity="1.00" d=" M 78.50 15.31 C 80.60 13.62 82.84 12.09 85.32 11.02 C 84.90 13.00 85.08 15.36 83.43 16.82 C 81.79 16.31 80.14 15.81 78.50 15.31 Z" />
<path fill="#7c3549" opacity="1.00" d=" M 76.27 19.57 C 76.67 17.99 77.34 16.48 78.50 15.31 C 80.14 15.81 81.79 16.31 83.43 16.82 C 82.97 17.14 82.06 17.76 81.60 18.07 C 79.85 18.66 78.05 19.11 76.27 19.57 Z" />
<path fill="#7e3b2e" opacity="1.00" d=" M 51.37 17.31 C 53.15 17.32 51.97 20.10 50.68 20.07 C 48.69 20.01 50.04 17.34 51.37 17.31 Z" />
<path fill="#913b80" opacity="1.00" d=" M 86.20 18.04 C 86.55 17.60 87.25 16.71 87.60 16.26 C 94.28 17.46 100.23 21.35 104.72 26.33 C 106.09 27.67 106.17 29.63 106.35 31.42 C 102.15 25.60 96.00 20.86 88.75 19.82 C 87.56 25.55 85.76 31.12 82.50 36.04 C 82.03 35.65 81.08 34.86 80.61 34.46 C 84.67 30.91 86.18 25.26 86.21 20.04 C 86.20 19.54 86.20 18.54 86.20 18.04 Z" />
<path fill="#e4af77" opacity="1.00" d=" M 51.65 22.87 C 56.48 22.14 60.68 19.47 65.15 17.68 C 63.54 19.58 61.72 21.28 59.92 23.00 C 57.91 23.34 55.93 23.79 53.95 24.26 C 53.38 24.36 52.23 24.57 51.66 24.67 C 51.65 24.22 51.65 23.32 51.65 22.87 Z" />
<path fill="#e59e65" opacity="1.00" d=" M 83.21 21.17 C 84.21 20.79 85.21 20.42 86.21 20.04 C 86.18 25.26 84.67 30.91 80.61 34.46 C 80.20 34.29 79.40 33.96 79.00 33.79 C 81.93 30.30 84.53 25.91 83.21 21.17 Z" />
<path fill="#d87b5a" opacity="1.00" d=" M 43.24 23.33 C 45.79 22.18 49.64 19.58 51.65 22.87 C 51.65 23.32 51.65 24.22 51.66 24.67 C 52.23 24.57 53.38 24.36 53.95 24.26 C 53.00 25.49 51.73 26.22 50.13 26.44 C 49.66 28.43 49.13 30.41 48.50 32.36 C 46.21 32.20 43.92 32.10 41.64 31.84 C 40.67 31.38 39.72 30.88 38.74 30.43 C 41.54 30.64 44.32 30.23 47.06 29.76 C 48.24 27.38 49.20 24.88 49.44 22.22 C 45.61 22.76 43.12 25.94 40.34 28.27 C 40.99 26.46 41.04 23.97 43.24 23.33 Z" />
<path fill="#d45965" opacity="1.00" d=" M 53.95 24.26 C 55.93 23.79 57.91 23.34 59.92 23.00 C 59.59 23.45 58.92 24.37 58.59 24.82 C 58.79 25.07 59.19 25.56 59.39 25.81 C 60.91 27.99 63.18 29.41 65.21 31.06 C 65.79 33.29 62.85 33.99 62.15 31.94 C 60.85 29.48 58.25 28.04 55.46 28.53 C 55.35 28.26 55.14 27.72 55.03 27.45 C 54.65 26.39 54.29 25.33 53.95 24.26 Z" />
<path fill="#7b6f74" opacity="1.00" d=" M 90.54 22.94 C 92.17 23.76 93.80 24.59 95.42 25.43 C 92.20 27.90 89.83 31.22 87.11 34.18 C 88.49 30.52 90.86 27.03 90.54 22.94 Z" />
<path fill="#fafdae" opacity="1.00" d=" M 0.00 25.72 C 2.80 25.09 5.65 24.70 8.52 24.55 C 6.00 26.36 2.93 26.86 0.00 27.61 L 0.00 25.72 Z" />
<path fill="#ce5751" opacity="1.00" d=" M 8.52 24.55 C 12.47 24.13 16.44 24.56 20.33 25.30 C 21.09 28.05 21.87 30.78 22.58 33.54 C 21.11 32.72 19.65 31.89 18.18 31.07 C 18.63 29.99 19.07 28.90 19.50 27.81 C 17.20 28.67 15.60 30.52 14.61 32.70 C 12.62 31.67 10.46 31.54 9.36 33.84 C 9.10 33.06 8.84 32.28 8.57 31.51 C 5.77 30.80 2.89 30.42 0.00 30.56 L 0.00 27.61 C 2.93 26.86 6.00 26.36 8.52 24.55 Z" />
<path fill="#fff8c7" opacity="1.00" d=" M 42.00 28.74 C 43.66 27.30 45.26 25.67 47.40 24.95 C 47.04 26.17 46.68 27.39 46.32 28.62 C 44.88 28.76 43.44 28.79 42.00 28.74 Z" />
<path fill="#d57f54" opacity="1.00" d=" M 59.39 25.81 C 62.29 26.83 65.12 28.05 67.89 29.39 C 66.29 30.14 66.77 32.01 66.54 33.43 C 65.98 33.75 64.86 34.40 64.30 34.73 C 64.98 36.12 65.66 37.52 66.34 38.91 C 66.55 38.81 66.96 38.61 67.17 38.51 L 68.60 37.82 C 69.31 36.16 69.89 34.46 70.49 32.76 C 71.48 34.14 72.49 35.49 73.34 36.96 C 72.70 39.86 71.64 42.68 69.52 44.84 C 69.01 43.00 68.44 41.18 67.91 39.35 C 66.35 39.75 64.80 40.17 63.25 40.59 C 64.45 40.96 65.65 41.32 66.86 41.67 C 66.95 42.24 67.13 43.39 67.23 43.97 C 67.62 48.87 61.00 48.67 57.56 48.59 C 57.57 47.98 57.58 46.77 57.58 46.16 C 56.13 46.19 54.68 46.17 53.24 46.36 C 51.24 47.71 49.67 49.62 47.58 50.87 C 46.16 49.16 47.05 47.40 48.37 46.04 C 51.72 47.30 53.77 43.70 51.96 41.09 C 55.20 41.51 58.47 41.75 61.73 41.59 C 61.43 38.76 57.97 39.98 56.04 39.44 C 56.22 38.93 56.58 37.92 56.76 37.41 C 56.34 37.11 55.51 36.51 55.09 36.21 C 56.00 36.33 57.81 36.56 58.71 36.67 C 57.71 33.93 56.69 31.18 55.46 28.53 C 58.25 28.04 60.85 29.48 62.15 31.94 C 62.85 33.99 65.79 33.29 65.21 31.06 C 63.18 29.41 60.91 27.99 59.39 25.81 M 58.35 43.38 C 57.67 45.04 58.15 45.59 59.80 45.04 C 60.45 43.39 59.97 42.84 58.35 43.38 Z" />
<path fill="#fcfbbd" opacity="1.00" d=" M 87.11 34.18 C 89.83 31.22 92.20 27.90 95.42 25.43 C 97.77 26.84 99.85 28.62 101.74 30.59 C 101.28 30.78 100.36 31.17 99.90 31.36 C 98.54 32.49 96.65 32.11 95.05 32.56 C 90.58 33.96 87.50 37.66 83.97 40.49 C 83.07 37.92 85.91 36.15 87.11 34.18 Z" />
<path fill="#90388f" opacity="1.00" d=" M 51.11 27.57 C 52.41 27.54 53.72 27.50 55.03 27.45 C 55.14 27.72 55.35 28.26 55.46 28.53 C 56.69 31.18 57.71 33.93 58.71 36.67 C 57.81 36.56 56.00 36.33 55.09 36.21 C 55.51 36.51 56.34 37.11 56.76 37.41 C 56.58 37.92 56.22 38.93 56.04 39.44 C 54.10 39.40 52.27 38.78 50.57 37.89 C 50.76 37.55 51.14 36.86 51.32 36.51 C 52.90 35.13 54.77 33.39 54.40 31.05 C 53.52 29.70 52.24 28.68 51.11 27.57 Z" />
<path fill="#db4d90" opacity="1.00" d=" M 70.82 29.84 C 72.29 29.65 73.77 29.56 75.25 29.56 C 75.39 32.01 75.67 34.48 76.67 36.75 C 77.37 36.72 78.75 36.67 79.44 36.64 C 80.68 38.51 81.32 40.99 83.60 41.90 C 82.67 43.52 81.78 45.17 80.96 46.85 C 79.94 46.59 78.92 46.34 77.90 46.09 C 77.59 45.58 76.97 44.56 76.66 44.05 C 77.40 42.54 78.15 40.69 77.20 39.09 C 75.65 35.66 73.70 32.33 70.82 29.84 Z" />
<path fill="#dc6b62" opacity="1.00" d=" M 29.78 31.89 C 32.79 31.56 35.70 30.44 38.74 30.43 C 39.72 30.88 40.67 31.38 41.64 31.84 C 40.43 33.61 39.20 35.37 37.89 37.07 C 36.58 36.35 35.26 35.63 33.94 34.90 C 32.99 35.25 32.04 35.59 31.09 35.93 C 30.65 34.59 30.21 33.24 29.78 31.89 Z" />
<path fill="#815250" opacity="1.00" d=" M 51.07 30.16 C 52.26 29.66 53.45 31.64 52.81 32.62 C 51.54 33.20 50.31 31.19 51.07 30.16 Z" />
<path fill="#d75c76" opacity="1.00" d=" M 66.54 33.43 C 66.77 32.01 66.29 30.14 67.89 29.39 L 68.92 29.88 C 68.67 32.82 67.65 35.61 67.17 38.51 C 66.96 38.61 66.55 38.81 66.34 38.91 C 65.66 37.52 64.98 36.12 64.30 34.73 C 64.86 34.40 65.98 33.75 66.54 33.43 Z" />
<path fill="#8c266f" opacity="1.00" d=" M 0.00 30.56 C 2.89 30.42 5.77 30.80 8.57 31.51 C 8.84 32.28 9.10 33.06 9.36 33.84 C 10.32 38.92 13.48 43.39 17.95 45.99 C 20.72 47.50 22.83 49.84 25.11 51.96 C 27.15 52.85 29.34 51.76 31.32 51.21 L 32.25 50.92 C 33.56 50.64 34.90 50.46 36.20 50.10 L 37.38 49.81 C 34.18 51.73 30.68 53.03 27.19 54.30 C 22.89 52.00 18.10 50.34 14.91 46.44 C 8.47 49.82 3.67 55.45 0.00 61.60 L 0.00 58.79 C 1.69 56.80 3.27 54.72 4.71 52.54 C 6.76 49.98 9.31 47.89 11.90 45.90 C 10.45 43.12 8.71 40.52 7.03 37.88 C 6.05 39.01 5.06 40.14 4.13 41.32 C 5.48 38.61 7.01 35.99 8.43 33.30 C 5.62 33.15 2.81 32.95 0.00 32.72 L 0.00 30.56 Z" />
<path fill="#050505" opacity="0.67" d=" M 101.74 30.59 C 104.63 32.13 100.41 33.77 99.90 31.36 C 100.36 31.17 101.28 30.78 101.74 30.59 Z" />
<path fill="#d97064" opacity="1.00" d=" M 9.36 33.84 C 10.46 31.54 12.62 31.67 14.61 32.70 C 14.04 35.92 13.58 39.63 15.61 42.45 C 17.95 45.75 21.77 47.54 25.55 48.63 C 25.55 49.35 25.55 50.78 25.55 51.50 C 27.47 51.44 29.40 51.39 31.32 51.21 C 29.34 51.76 27.15 52.85 25.11 51.96 C 22.83 49.84 20.72 47.50 17.95 45.99 C 13.48 43.39 10.32 38.92 9.36 33.84 Z" />
<path fill="#000000" opacity="1.00" d=" M 0.00 32.72 C 2.81 32.95 5.62 33.15 8.43 33.30 C 7.01 35.99 5.48 38.61 4.13 41.32 C 3.62 42.30 3.16 43.30 2.69 44.30 C 1.83 46.15 0.89 47.95 0.00 49.77 L 0.00 42.32 C 1.34 39.77 2.94 37.38 4.51 34.98 C 3.01 35.11 1.50 35.24 -0.00 35.38 L 0.00 32.72 Z" />
<path fill="#97747b" opacity="1.00" d=" M 49.90 34.26 C 47.82 32.84 51.94 31.67 50.70 33.83 L 49.90 34.26 Z" />
<path fill="#dc6b62" opacity="1.00" d=" M 49.90 34.26 L 50.70 33.83 L 50.04 35.41 L 51.32 36.51 C 51.14 36.86 50.76 37.55 50.57 37.89 C 49.23 40.49 47.99 43.14 46.64 45.73 C 45.20 44.74 43.77 43.75 42.34 42.75 C 43.93 42.27 45.52 41.78 47.10 41.28 C 47.00 40.89 46.79 40.11 46.68 39.72 C 46.69 39.12 46.70 37.91 46.71 37.30 L 47.94 39.09 C 50.43 38.61 49.48 35.96 49.90 34.26 Z" />
<path fill="#464950" opacity="1.00" d=" M 92.97 35.81 C 96.23 33.37 101.31 33.56 104.00 36.74 C 101.06 36.34 98.00 36.10 95.22 37.35 C 92.24 38.78 90.18 41.45 88.54 44.22 C 86.01 51.02 84.12 58.41 85.38 65.69 C 86.01 69.32 88.81 71.88 91.19 74.46 C 89.05 74.72 86.69 74.65 85.00 73.12 C 80.11 69.33 79.59 62.41 80.59 56.76 C 82.37 48.77 85.65 40.28 92.97 35.81 Z" />
<path fill="#765961" opacity="1.00" d=" M -0.00 35.38 C 1.50 35.24 3.01 35.11 4.51 34.98 C 2.94 37.38 1.34 39.77 0.00 42.32 L 0.00 35.38 Z" />
<path fill="#727480" opacity="1.00" d=" M 95.22 37.35 C 98.00 36.10 101.06 36.34 104.00 36.74 C 108.56 45.83 109.42 57.74 103.33 66.35 C 100.59 70.64 95.97 73.11 91.19 74.46 C 88.81 71.88 86.01 69.32 85.38 65.69 C 84.12 58.41 86.01 51.02 88.54 44.22 C 88.72 44.65 89.08 45.53 89.27 45.97 C 91.14 43.02 93.35 40.30 95.22 37.35 M 100.62 44.36 C 101.91 45.57 103.37 44.63 104.25 43.49 C 103.48 43.29 101.95 42.87 101.18 42.67 C 101.00 40.98 100.81 39.29 100.64 37.61 C 98.68 39.37 97.95 42.87 100.62 44.36 M 87.97 56.37 C 89.06 55.89 90.14 55.41 91.23 54.93 L 90.64 54.45 C 91.79 53.22 92.58 50.41 89.93 50.46 C 90.18 50.15 90.66 49.53 90.91 49.22 C 87.17 49.25 86.01 53.65 87.97 56.37 M 90.07 70.89 C 90.93 72.33 92.71 72.09 94.12 71.99 C 92.16 70.77 90.69 69.09 90.42 66.70 C 90.13 68.05 89.24 69.55 90.07 70.89 Z" />
<path fill="#bd575f" opacity="1.00" d=" M 73.34 36.96 C 74.11 38.75 76.08 40.76 74.67 42.73 C 73.56 44.69 71.73 46.09 70.03 47.52 C 69.90 46.85 69.65 45.51 69.52 44.84 C 71.64 42.68 72.70 39.86 73.34 36.96 Z" />
<path fill="#cf5654" opacity="1.00" d=" M 7.03 37.88 C 8.71 40.52 10.45 43.12 11.90 45.90 C 9.31 47.89 6.76 49.98 4.71 52.54 C 2.94 50.18 3.24 47.06 2.69 44.30 C 3.16 43.30 3.62 42.30 4.13 41.32 C 5.06 40.14 6.05 39.01 7.03 37.88 Z" />
<path fill="#a3a688" opacity="1.00" d=" M 88.54 44.22 C 90.18 41.45 92.24 38.78 95.22 37.35 C 93.35 40.30 91.14 43.02 89.27 45.97 C 89.08 45.53 88.72 44.65 88.54 44.22 Z" />
<path fill="#53545d" opacity="1.00" d=" M 100.62 44.36 C 97.95 42.87 98.68 39.37 100.64 37.61 C 100.81 39.29 101.00 40.98 101.18 42.67 C 101.95 42.87 103.48 43.29 104.25 43.49 C 103.37 44.63 101.91 45.57 100.62 44.36 Z" />
<path fill="#c89e63" opacity="1.00" d=" M 51.02 40.94 L 51.96 41.09 C 53.77 43.70 51.72 47.30 48.37 46.04 C 49.37 44.40 50.20 42.67 51.02 40.94 Z" />
<path fill="#d1d988" opacity="1.00" d=" M 58.35 43.38 C 59.97 42.84 60.45 43.39 59.80 45.04 C 58.15 45.59 57.67 45.04 58.35 43.38 Z" />
<path fill="#9c468f" opacity="1.00" d=" M 67.23 43.97 C 67.41 45.85 67.41 47.75 67.45 49.64 C 64.61 50.20 61.72 50.45 58.89 51.04 L 58.13 52.52 C 59.85 52.81 61.57 53.10 63.29 53.39 C 60.84 54.01 58.39 54.74 56.19 56.02 C 56.27 55.47 56.42 54.36 56.49 53.81 C 56.19 53.39 55.59 52.55 55.29 52.13 C 55.68 51.11 58.01 49.97 56.85 48.91 L 56.38 48.68 C 56.68 48.66 57.27 48.61 57.56 48.59 C 61.00 48.67 67.62 48.87 67.23 43.97 Z" />
<path fill="#d75c76" opacity="1.00" d=" M 0.00 49.77 C 0.89 47.95 1.83 46.15 2.69 44.30 C 3.24 47.06 2.94 50.18 4.71 52.54 C 3.27 54.72 1.69 56.80 0.00 58.79 L 0.00 49.77 Z" />
<path fill="#9a4157" opacity="1.00" d=" M 36.10 47.60 C 38.05 46.68 39.97 45.69 41.92 44.75 C 42.75 45.44 43.58 46.13 44.41 46.81 C 44.45 47.87 44.49 48.93 44.54 49.98 C 42.18 49.46 39.72 48.90 37.38 49.81 L 36.20 50.10 C 36.82 49.20 36.79 48.37 36.10 47.60 Z" />
<path fill="#d75a52" opacity="1.00" d=" M 53.24 46.36 C 54.68 46.17 56.13 46.19 57.58 46.16 C 57.58 46.77 57.57 47.98 57.56 48.59 C 57.27 48.61 56.68 48.66 56.38 48.68 C 54.11 50.55 51.48 51.84 48.84 53.09 C 47.71 53.99 46.65 54.98 45.55 55.91 C 46.15 54.33 46.61 52.69 47.07 51.06 C 47.20 51.01 47.45 50.92 47.58 50.87 C 49.67 49.62 51.24 47.71 53.24 46.36 Z" />
<path fill="#dd6b77" opacity="1.00" d=" M 69.12 52.48 C 69.47 49.82 72.01 48.42 73.72 46.65 C 71.15 50.11 70.25 54.43 67.90 58.00 C 67.25 56.38 67.13 54.54 65.97 53.16 C 65.59 54.79 65.27 56.44 65.00 58.09 C 62.03 57.55 59.09 56.88 56.19 56.02 C 58.39 54.74 60.84 54.01 63.29 53.39 C 61.57 53.10 59.85 52.81 58.13 52.52 C 61.32 52.96 64.55 52.63 67.42 51.11 C 67.99 51.57 68.55 52.02 69.12 52.48 Z" />
<path fill="#0c0a09" opacity="0.78" d=" M 111.00 49.91 C 109.22 49.76 109.23 47.15 111.00 47.00 L 111.00 49.91 Z" />
<path fill="#d3dda7" opacity="1.00" d=" M 25.55 48.63 C 28.82 48.89 32.29 49.29 35.37 47.89 C 34.13 48.68 33.17 49.79 32.25 50.92 L 31.32 51.21 C 29.40 51.39 27.47 51.44 25.55 51.50 C 25.55 50.78 25.55 49.35 25.55 48.63 Z" />
<path fill="#d09a73" opacity="1.00" d=" M 35.37 47.89 L 36.10 47.60 C 36.79 48.37 36.82 49.20 36.20 50.10 C 34.90 50.46 33.56 50.64 32.25 50.92 C 33.17 49.79 34.13 48.68 35.37 47.89 Z" />
<path fill="#d3dda7" opacity="1.00" d=" M 75.29 48.15 C 75.69 48.23 76.50 48.39 76.90 48.47 C 75.35 50.93 73.13 52.85 71.29 55.09 C 72.71 52.82 73.94 50.45 75.29 48.15 Z" />
<path fill="#56595d" opacity="1.00" d=" M 87.97 56.37 C 86.01 53.65 87.17 49.25 90.91 49.22 C 90.66 49.53 90.18 50.15 89.93 50.46 C 89.60 51.05 88.93 52.23 88.60 52.82 C 89.11 53.23 90.13 54.05 90.64 54.45 L 91.23 54.93 C 90.14 55.41 89.06 55.89 87.97 56.37 Z" />
<path fill="#6b575d" opacity="1.00" d=" M 13.62 49.57 C 18.47 54.31 26.10 58.01 32.67 54.55 C 32.21 55.73 31.63 56.85 30.92 57.91 C 27.60 57.37 24.27 58.22 21.00 58.36 C 17.85 57.02 14.70 55.59 12.09 53.33 C 12.90 52.42 13.38 51.39 13.52 50.21 L 13.62 49.57 Z" />
<path fill="#010100" opacity="0.07" d=" M 71.98 57.18 C 74.79 54.71 76.59 51.16 79.63 49.03 C 78.75 52.84 77.34 56.53 77.16 60.48 C 75.41 59.44 73.13 58.99 71.98 57.18 Z" />
<path fill="#eff9a3" opacity="1.00" d=" M 1.21 65.82 C 4.04 59.81 8.23 54.29 13.52 50.21 C 13.38 51.39 12.90 52.42 12.09 53.33 C 14.70 55.59 17.85 57.02 21.00 58.36 C 14.14 60.01 7.07 61.69 1.21 65.82 Z" />
<path fill="#574a4e" opacity="1.00" d=" M 39.34 51.27 C 40.95 50.36 42.06 53.12 40.11 53.36 C 38.44 54.08 37.36 51.61 39.34 51.27 Z" />
<path fill="#e4af77" opacity="1.00" d=" M 43.24 52.86 C 44.44 52.10 45.71 51.47 47.07 51.06 C 46.61 52.69 46.15 54.33 45.55 55.91 C 44.88 56.35 44.10 56.54 43.35 56.75 C 43.32 55.78 43.26 53.83 43.24 52.86 Z" />
<path fill="#8b8a88" opacity="1.00" d=" M 88.60 52.82 C 88.93 52.23 89.60 51.05 89.93 50.46 C 92.58 50.41 91.79 53.22 90.64 54.45 C 90.13 54.05 89.11 53.23 88.60 52.82 Z" />
<path fill="#d35f78" opacity="1.00" d=" M 45.55 55.91 C 46.65 54.98 47.71 53.99 48.84 53.09 C 48.55 55.05 48.74 57.61 46.55 58.55 C 42.24 60.90 38.87 64.49 35.62 68.10 L 34.96 67.08 C 34.59 68.66 35.75 71.70 33.04 71.25 C 33.11 70.43 33.24 68.78 33.31 67.96 L 31.87 68.62 C 31.80 68.13 31.67 67.15 31.60 66.65 C 34.48 64.51 37.36 61.98 38.28 58.35 C 38.46 57.61 38.81 56.13 38.99 55.39 L 40.15 55.64 C 40.61 55.89 41.52 56.39 41.98 56.64 C 42.32 56.67 43.01 56.72 43.35 56.75 C 44.10 56.54 44.88 56.35 45.55 55.91 Z" />
<path fill="#fff8c7" opacity="1.00" d=" M 50.62 54.23 C 51.68 53.76 52.77 53.37 53.91 53.15 C 53.93 54.99 53.21 56.69 52.50 58.35 C 49.95 59.35 47.74 61.12 45.03 61.73 C 48.05 60.31 51.20 58.05 50.62 54.23 Z" />
<path fill="#d5b572" opacity="1.00" d=" M 32.74 59.54 C 33.81 56.95 35.85 54.46 38.99 55.39 C 38.81 56.13 38.46 57.61 38.28 58.35 C 36.46 58.88 34.62 59.31 32.74 59.54 Z" />
<path fill="#d59367" opacity="1.00" d=" M 32.74 59.54 C 34.62 59.31 36.46 58.88 38.28 58.35 C 37.36 61.98 34.48 64.51 31.60 66.65 C 30.79 64.16 31.35 61.69 32.74 59.54 Z" />
<path fill="#6c575e" opacity="1.00" d=" M 53.75 58.20 C 57.01 59.00 60.35 59.34 63.70 59.64 C 63.39 60.13 62.79 61.12 62.49 61.61 C 59.49 60.77 56.29 60.09 53.75 58.20 Z" />
<path fill="#fff8c7" opacity="1.00" d=" M 64.23 62.75 C 64.65 61.29 64.65 59.03 66.68 59.01 C 68.05 60.80 66.61 63.84 64.23 62.75 Z" />
<path fill="#41363c" opacity="1.00" d=" M 69.37 59.13 C 70.83 58.64 71.22 59.10 70.55 60.52 C 69.10 61.01 68.71 60.55 69.37 59.13 Z" />
<path fill="#68625c" opacity="1.00" d=" M 40.58 66.72 C 44.55 64.68 48.55 62.24 52.84 61.10 C 55.88 62.61 59.13 63.63 62.57 63.54 C 63.34 64.20 64.12 64.86 64.89 65.51 C 66.36 64.77 67.83 64.03 69.29 63.28 C 69.64 63.85 70.34 65.00 70.69 65.58 C 69.80 68.37 68.90 71.16 68.09 73.98 C 67.65 73.52 66.77 72.60 66.34 72.14 C 65.14 73.89 64.13 75.84 62.43 77.18 C 61.35 73.19 61.19 69.04 60.37 65.01 C 56.80 66.47 54.40 69.60 51.44 71.93 C 50.21 68.63 54.01 67.21 55.57 65.00 C 54.83 64.29 54.09 63.58 53.35 62.88 C 53.80 63.42 54.69 64.50 55.14 65.04 C 53.92 66.37 52.66 67.67 51.34 68.91 C 48.18 66.69 44.16 67.47 40.58 66.72 Z" />
<path fill="#4a413e" opacity="1.00" d=" M 69.19 63.12 C 70.31 62.19 71.47 61.33 72.67 60.50 C 74.17 61.33 75.69 62.11 77.23 62.87 C 77.36 63.84 77.63 65.79 77.76 66.76 C 75.43 66.22 73.08 65.73 70.69 65.58 C 70.34 65.00 69.64 63.85 69.29 63.28 L 69.19 63.12 Z" />
<path fill="#a7af9b" opacity="1.00" d=" M 18.35 67.10 C 21.69 66.30 24.91 65.07 28.27 64.34 C 30.27 68.41 30.16 73.36 28.39 77.49 C 27.88 78.75 26.70 78.48 25.87 77.76 C 29.82 78.39 28.52 73.67 27.75 71.45 C 26.85 69.31 25.93 65.86 22.96 66.33 C 21.38 67.12 19.55 70.05 18.35 67.10 Z" />
<path fill="#57575c" opacity="1.00" d=" M 90.07 70.89 C 89.24 69.55 90.13 68.05 90.42 66.70 C 90.69 69.09 92.16 70.77 94.12 71.99 C 92.71 72.09 90.93 72.33 90.07 70.89 Z" />
<path fill="#922f77" opacity="1.00" d=" M 53.08 73.74 C 55.05 71.97 56.52 69.72 58.52 67.98 C 58.66 70.46 58.92 72.94 59.55 75.36 C 58.85 76.14 58.19 76.98 57.37 77.64 C 56.38 78.42 55.35 79.17 54.37 79.97 C 54.37 78.01 54.54 76.05 54.97 74.14 L 54.07 73.94 L 53.08 73.74 Z" />
<path fill="#e4af77" opacity="1.00" d=" M 71.96 68.34 C 74.26 68.81 78.50 66.82 78.88 70.31 C 76.74 70.37 74.61 70.45 72.47 70.58 L 71.31 70.65 C 71.47 70.07 71.80 68.92 71.96 68.34 Z" />
<path fill="#4d2664" opacity="1.00" d=" M 37.32 69.27 C 39.70 69.67 42.10 69.80 44.51 69.80 C 44.28 71.64 43.84 73.45 43.28 75.22 C 40.73 76.09 38.51 77.87 37.29 80.30 C 36.61 82.73 36.27 85.23 36.17 87.75 C 35.45 83.71 34.87 79.33 36.63 75.46 C 37.56 73.51 37.41 71.36 37.32 69.27 Z" />
<path fill="#d87b5a" opacity="1.00" d=" M 47.00 70.29 C 47.40 70.21 48.19 70.07 48.58 69.99 C 48.59 70.77 48.60 72.33 48.61 73.11 C 49.95 74.29 51.45 74.66 53.08 73.74 L 54.07 73.94 C 51.83 76.80 48.44 78.20 45.33 79.89 C 45.37 76.62 46.25 73.45 47.00 70.29 Z" />
<path fill="#d97865" opacity="1.00" d=" M 72.47 70.58 C 74.61 70.45 76.74 70.37 78.88 70.31 C 79.90 72.02 81.06 73.63 82.23 75.23 C 78.84 75.42 75.44 75.46 72.04 75.63 C 72.12 73.94 72.27 72.26 72.47 70.58 Z" />
<path fill="#778084" opacity="1.00" d=" M 15.71 74.04 C 19.21 73.34 21.21 69.57 25.01 70.24 C 25.36 71.27 25.73 72.31 26.11 73.34 C 23.25 73.70 20.68 75.21 17.84 75.53 L 15.71 74.04 Z" />
<path fill="#71343b" opacity="1.00" d=" M 31.93 73.40 C 35.19 73.60 30.42 76.47 31.93 73.40 Z" />
<path fill="#fff8c7" opacity="1.00" d=" M 17.84 75.53 C 20.68 75.21 23.25 73.70 26.11 73.34 L 26.11 75.07 C 19.68 77.67 12.86 80.40 5.78 79.03 C 7.77 77.69 10.13 77.42 12.45 77.43 L 12.53 76.62 C 14.01 76.92 15.05 76.55 15.64 75.51 C 16.19 75.51 17.29 75.52 17.84 75.53 Z" />
<path fill="#8f478b" opacity="1.00" d=" M 37.29 80.30 C 38.51 77.87 40.73 76.09 43.28 75.22 C 42.79 77.71 42.40 80.41 44.14 82.54 C 44.54 83.27 44.93 84.00 45.30 84.75 C 45.76 86.47 45.67 88.29 45.87 90.06 C 41.57 88.31 40.23 83.49 37.29 80.30 Z" />
<path fill="#d45965" opacity="1.00" d=" M 54.37 79.97 C 55.35 79.17 56.38 78.42 57.37 77.64 C 56.31 80.44 56.27 83.52 54.98 86.24 C 53.93 85.34 53.08 84.25 52.28 83.12 C 52.96 82.06 53.62 80.98 54.37 79.97 Z" />
<path fill="#d46683" opacity="1.00" d=" M 68.09 77.13 C 68.88 77.15 70.45 77.19 71.24 77.22 C 71.47 78.70 71.73 80.19 71.88 81.69 C 71.39 82.20 70.42 83.23 69.94 83.74 C 68.81 81.70 67.84 79.53 68.09 77.13 Z" />
<path fill="#e4af77" opacity="1.00" d=" M 71.24 77.22 C 72.65 78.91 73.76 80.87 75.79 81.95 C 74.66 83.55 73.08 82.24 71.88 81.69 C 71.73 80.19 71.47 78.70 71.24 77.22 Z" />
<path fill="#d87b5a" opacity="1.00" d=" M 44.14 82.54 C 47.44 82.38 49.98 80.04 52.75 78.54 C 52.07 79.90 51.27 81.19 50.35 82.40 C 48.44 82.67 46.43 82.95 45.30 84.75 C 44.93 84.00 44.54 83.27 44.14 82.54 Z" />
<path fill="#cf8466" opacity="1.00" d=" M 37.29 80.30 C 40.23 83.49 41.57 88.31 45.87 90.06 C 48.03 90.71 49.49 92.42 50.58 94.31 C 50.34 95.55 50.11 96.79 49.88 98.03 C 49.17 98.13 47.74 98.33 47.02 98.43 C 46.41 98.22 45.19 97.82 44.57 97.61 C 45.53 96.44 46.48 95.27 47.43 94.09 C 43.94 91.56 40.55 88.57 36.17 87.75 C 36.27 85.23 36.61 82.73 37.29 80.30 Z" />
<path fill="#fcfbbd" opacity="1.00" d=" M 78.94 84.91 C 77.25 84.66 76.96 81.49 78.94 81.54 C 80.20 82.00 80.41 84.67 78.94 84.91 Z" />
<path fill="#fcfbbd" opacity="1.00" d=" M 75.99 83.22 C 76.92 83.92 77.52 85.55 77.07 86.65 C 74.85 87.71 73.30 83.30 75.99 83.22 Z" />
<path fill="#d3dda7" opacity="1.00" d=" M 47.24 86.58 C 46.35 85.45 47.49 82.84 49.06 83.74 C 49.62 84.78 48.48 86.99 47.24 86.58 Z" />
<path fill="#e4af77" opacity="1.00" d=" M 73.40 89.05 C 72.27 87.68 69.91 84.56 72.82 83.87 C 73.28 85.56 73.51 87.30 73.40 89.05 Z" />
<path fill="#fcfbbd" opacity="1.00" d=" M 50.52 91.13 C 47.74 89.47 50.21 86.54 51.64 84.96 C 51.69 85.28 51.78 85.93 51.83 86.25 C 51.45 87.89 50.99 89.51 50.52 91.13 Z" />
<path fill="#9a4157" opacity="1.00" d=" M 50.52 91.13 C 50.99 89.51 51.45 87.89 51.83 86.25 C 53.14 88.02 52.88 90.56 50.52 91.13 Z" />
<path fill="#fff8c7" opacity="1.00" d=" M 56.00 90.34 C 54.34 90.12 54.17 86.96 56.17 87.21 C 58.14 87.22 57.24 89.94 56.00 90.34 Z" />
<path fill="#d86a53" opacity="1.00" d=" M 59.55 88.25 C 62.90 88.44 66.08 87.27 69.17 86.12 C 70.46 88.24 71.67 90.58 74.08 91.62 C 74.72 90.59 75.19 89.49 75.49 88.32 C 76.25 88.84 77.07 89.26 77.93 89.59 C 78.82 88.64 79.24 86.61 80.85 86.71 C 84.90 89.24 89.21 91.68 92.03 95.66 C 76.82 91.06 62.17 103.28 47.02 98.43 C 47.74 98.33 49.17 98.13 49.88 98.03 C 50.11 96.79 50.34 95.55 50.58 94.31 C 51.80 93.19 53.03 92.07 54.23 90.93 C 55.36 95.25 59.13 90.53 59.55 88.25 Z" />
<path fill="#d8a95f" opacity="1.00" d=" M 36.17 87.75 C 40.55 88.57 43.94 91.56 47.43 94.09 C 46.48 95.27 45.53 96.44 44.57 97.61 C 40.58 95.58 37.56 92.01 36.17 87.75 Z" />
</svg>
