<?xml version="1.0" encoding="UTF-8" ?>
<!DOCTYPE svg PUBLIC "-//W3C//DTD SVG 1.1//EN" "http://www.w3.org/Graphics/SVG/1.1/DTD/svg11.dtd">
<svg width="111pt" height="111pt" viewBox="0 0 111 111" version="1.1" xmlns="http://www.w3.org/2000/svg">
<path fill="#000000" opacity="1.00" d=" M 90.64 0.00 L 94.03 0.00 L 95.00 0.29 C 88.51 2.75 82.19 5.77 76.50 9.79 C 63.66 17.38 52.70 28.05 44.47 40.47 C 43.21 42.58 41.34 45.01 42.64 47.56 C 44.95 53.01 47.33 58.52 50.46 63.55 C 54.13 67.01 58.24 69.97 62.13 73.18 C 64.03 74.58 66.01 75.85 68.03 77.07 C 73.66 74.85 79.30 72.64 84.97 70.51 C 88.60 69.19 92.24 67.87 95.76 66.27 C 98.11 65.48 100.49 64.73 102.90 64.16 C 103.27 64.36 104.00 64.76 104.37 64.96 C 99.20 67.12 94.06 69.34 88.85 71.38 C 89.66 73.43 90.61 75.43 91.74 77.33 C 91.17 78.61 90.57 79.88 89.90 81.11 C 88.80 82.59 87.65 84.03 86.45 85.43 C 83.46 88.68 79.91 91.34 76.76 94.42 C 75.14 95.61 73.62 96.94 72.21 98.37 C 75.12 99.34 77.51 97.13 79.81 95.75 C 83.61 93.38 87.35 90.94 90.97 88.31 C 95.29 87.52 99.75 85.40 104.15 86.84 C 106.49 87.66 108.77 88.64 111.00 89.74 L 111.00 92.12 C 108.02 90.78 105.13 89.15 101.97 88.29 C 98.88 88.10 95.60 88.27 92.74 89.57 C 90.07 91.39 87.59 93.50 84.72 95.02 C 87.52 98.05 90.52 101.53 90.45 105.92 C 87.35 107.05 84.30 108.49 82.07 111.00 L 80.01 111.00 C 81.75 107.51 85.31 105.83 88.56 104.07 C 87.06 101.14 85.27 98.37 83.17 95.83 C 79.96 97.72 76.83 100.88 72.80 100.22 L 71.93 99.99 C 71.78 100.38 71.50 101.15 71.36 101.54 C 70.15 104.74 68.83 107.90 67.40 111.00 L 65.31 111.00 C 66.78 107.69 68.46 104.46 69.68 101.05 C 69.36 100.56 68.73 99.58 68.41 99.09 C 75.45 92.94 83.03 87.23 88.71 79.72 C 90.16 77.08 87.94 74.44 87.07 72.00 C 81.45 74.03 75.91 76.25 70.31 78.32 C 66.37 80.06 63.24 76.09 60.19 74.24 C 60.34 75.70 60.49 77.15 60.64 78.61 C 61.96 79.73 63.27 80.85 64.59 81.98 C 60.78 88.49 56.13 94.48 51.07 100.06 C 47.90 102.96 44.49 105.59 41.31 108.48 C 41.34 109.11 41.41 110.37 41.44 111.00 L 39.62 111.00 C 36.00 101.79 32.37 92.58 28.74 83.37 C 26.81 78.64 24.97 73.84 22.50 69.36 C 21.86 67.86 20.00 67.96 18.71 67.46 C 14.74 66.28 9.31 66.11 7.59 61.60 C 5.82 57.03 2.54 52.50 3.58 47.36 C 3.95 44.26 2.40 41.10 0.00 39.16 L 0.00 37.55 C 3.67 37.30 3.95 41.81 5.29 44.25 C 7.08 42.38 8.95 40.58 10.58 38.56 C 13.23 35.29 14.61 31.10 17.83 28.27 C 22.68 33.88 25.26 40.95 28.42 47.55 C 29.52 49.72 31.81 50.89 33.45 52.59 C 39.73 58.79 46.08 64.92 51.98 71.48 C 52.14 70.60 52.46 68.83 52.61 67.94 C 45.67 63.03 42.83 54.58 39.59 47.11 C 40.85 42.17 43.88 38.01 47.00 34.10 C 58.01 18.97 73.61 7.50 90.64 0.00 M 17.47 31.23 C 16.52 32.91 15.59 34.60 14.68 36.31 C 13.93 37.55 13.16 38.78 12.47 40.06 C 11.32 41.40 10.30 42.85 9.37 44.36 C 8.19 45.94 6.85 47.39 5.41 48.74 C 5.86 49.77 6.31 50.80 6.76 51.83 C 7.94 56.04 9.89 60.08 12.52 63.58 C 18.56 66.24 26.06 67.74 31.94 63.83 C 33.73 61.99 31.45 59.46 31.11 57.40 L 30.75 57.51 C 29.43 54.43 28.03 51.39 26.56 48.38 C 23.75 42.58 21.61 36.21 17.47 31.23 M 31.23 53.81 C 32.53 56.99 35.03 60.06 34.53 63.68 C 33.14 66.23 29.59 66.40 27.88 68.74 C 26.98 68.76 25.20 68.79 24.31 68.81 C 25.61 71.30 26.92 73.79 28.10 76.34 C 28.92 78.45 29.79 80.55 30.66 82.64 C 33.54 90.89 37.08 98.89 40.05 107.11 C 48.76 100.15 55.32 91.03 61.76 82.04 C 57.28 78.79 52.93 75.33 49.00 71.44 C 45.24 66.73 40.66 62.78 36.46 58.48 C 34.80 56.83 33.34 54.92 31.23 53.81 M 53.94 69.35 C 52.54 73.09 55.97 75.33 58.66 77.04 C 59.34 73.43 56.92 70.84 53.94 69.35 Z" />
<path fill="#6d4348" opacity="1.00" d=" M 94.03 0.00 L 103.51 0.00 C 104.96 2.27 106.61 4.53 107.34 7.16 C 107.01 10.68 106.07 14.13 105.77 17.66 C 104.94 16.80 104.11 15.94 103.31 15.06 C 102.16 11.89 101.06 8.68 99.38 5.73 C 99.06 5.65 98.44 5.48 98.13 5.39 C 97.56 5.24 96.44 4.92 95.88 4.77 C 95.67 3.26 95.44 1.75 95.00 0.29 L 94.03 0.00 Z" />
<path fill="#64343a" opacity="1.00" d=" M 103.51 0.00 L 111.00 0.00 L 111.00 41.54 C 108.93 43.76 106.66 45.78 104.42 47.83 C 103.90 46.74 103.38 45.66 102.86 44.57 C 105.48 34.95 105.10 24.79 103.31 15.06 C 104.11 15.94 104.94 16.80 105.77 17.66 C 106.07 14.13 107.01 10.68 107.34 7.16 C 106.61 4.53 104.96 2.27 103.51 0.00 Z" />
<path fill="#764f53" opacity="1.00" d=" M 76.50 9.79 C 82.19 5.77 88.51 2.75 95.00 0.29 C 95.44 1.75 95.67 3.26 95.88 4.77 C 96.44 4.92 97.56 5.24 98.13 5.39 C 90.86 6.59 83.84 9.07 76.50 9.79 Z" />
<path fill="#9b8787" opacity="1.00" d=" M 98.13 5.39 C 98.44 5.48 99.06 5.65 99.38 5.73 C 101.06 8.68 102.16 11.89 103.31 15.06 C 105.10 24.79 105.48 34.95 102.86 44.57 C 102.08 46.69 101.37 49.10 99.28 50.30 C 95.65 52.71 91.93 54.98 88.23 57.26 C 83.10 60.02 78.19 63.15 72.96 65.73 C 69.34 68.11 63.53 68.47 62.13 73.18 C 58.24 69.97 54.13 67.01 50.46 63.55 C 47.33 58.52 44.95 53.01 42.64 47.56 C 41.34 45.01 43.21 42.58 44.47 40.47 C 52.70 28.05 63.66 17.38 76.50 9.79 C 83.84 9.07 90.86 6.59 98.13 5.39 M 76.93 22.56 C 81.19 22.14 85.31 23.48 89.55 23.58 C 87.16 21.64 84.01 21.02 81.02 20.85 C 79.61 21.07 77.28 20.71 76.93 22.56 M 66.33 25.41 C 59.65 29.16 53.00 33.17 47.39 38.45 C 45.73 39.89 44.26 42.18 45.63 44.33 C 46.60 47.81 51.15 48.67 51.58 52.28 C 52.78 51.79 53.98 51.30 55.18 50.80 C 55.35 52.29 55.52 53.77 55.70 55.25 C 55.28 55.68 54.42 56.52 54.00 56.94 C 54.55 59.11 55.18 61.27 55.84 63.41 C 62.14 62.76 69.30 61.42 73.98 56.88 C 77.45 56.24 80.16 53.83 83.23 52.26 C 86.60 50.25 90.30 48.51 93.01 45.61 C 93.62 45.64 94.82 45.71 95.43 45.74 L 95.42 45.61 C 98.49 40.84 97.51 34.74 95.15 29.90 C 93.74 27.19 92.83 23.68 89.64 22.54 C 89.68 24.72 91.56 26.31 92.40 28.23 C 91.60 30.50 88.96 30.94 86.95 31.62 C 82.95 32.48 79.14 33.98 75.28 35.31 L 75.91 34.10 C 73.23 30.66 68.68 29.80 64.82 28.33 C 67.75 25.70 72.10 25.25 75.14 22.62 C 71.98 22.55 69.14 24.17 66.33 25.41 Z" />
<path fill="#000000" opacity="1.00" d=" M 76.93 22.56 C 77.28 20.71 79.61 21.07 81.02 20.85 C 84.01 21.02 87.16 21.64 89.55 23.58 C 85.31 23.48 81.19 22.14 76.93 22.56 Z" />
<path fill="#000000" opacity="1.00" d=" M 66.33 25.41 C 69.14 24.17 71.98 22.55 75.14 22.62 C 72.10 25.25 67.75 25.70 64.82 28.33 C 68.68 29.80 73.23 30.66 75.91 34.10 L 75.28 35.31 C 74.53 36.76 73.81 38.21 73.09 39.67 C 73.98 40.48 74.87 41.30 75.77 42.12 C 74.18 43.07 72.60 44.02 71.01 44.97 C 72.08 46.92 73.06 48.94 73.56 51.13 C 73.79 53.04 73.93 54.96 73.98 56.88 C 69.30 61.42 62.14 62.76 55.84 63.41 C 55.18 61.27 54.55 59.11 54.00 56.94 C 54.42 56.52 55.28 55.68 55.70 55.25 C 55.52 53.77 55.35 52.29 55.18 50.80 C 53.98 51.30 52.78 51.79 51.58 52.28 C 51.15 48.67 46.60 47.81 45.63 44.33 C 44.26 42.18 45.73 39.89 47.39 38.45 C 53.00 33.17 59.65 29.16 66.33 25.41 M 52.88 36.27 C 50.31 37.60 48.15 39.59 46.52 41.98 C 47.16 43.17 47.81 44.35 48.46 45.54 C 49.83 46.89 51.21 48.24 52.56 49.62 L 51.19 50.38 C 53.14 50.44 55.11 50.19 57.05 50.47 C 56.69 52.29 56.81 54.15 56.94 55.99 C 56.63 56.42 56.00 57.29 55.69 57.72 C 55.92 58.29 56.38 59.43 56.61 60.00 C 56.39 62.86 59.22 61.64 60.92 61.34 C 64.76 60.14 69.05 59.44 72.21 56.81 C 72.88 53.55 71.95 49.76 70.39 46.76 C 69.68 46.58 68.25 46.21 67.54 46.03 C 68.98 44.07 71.55 43.41 73.52 42.08 C 72.79 41.39 72.05 40.69 71.33 40.00 C 72.36 38.18 73.25 36.27 74.00 34.30 C 70.79 32.52 67.56 30.58 63.87 30.05 C 63.37 29.96 62.37 29.79 61.87 29.70 C 58.73 31.65 55.51 33.67 52.88 36.27 Z" />
<path fill="#000000" opacity="1.00" d=" M 89.64 22.54 C 92.83 23.68 93.74 27.19 95.15 29.90 C 97.51 34.74 98.49 40.84 95.42 45.61 C 95.77 39.64 95.33 33.58 92.40 28.23 C 91.56 26.31 89.68 24.72 89.64 22.54 Z" />
<path fill="#835e63" opacity="1.00" d=" M 92.40 28.23 C 95.33 33.58 95.77 39.64 95.42 45.61 L 95.43 45.74 C 94.82 45.71 93.62 45.64 93.01 45.61 C 93.34 44.59 93.63 43.57 93.93 42.54 C 87.98 45.48 81.02 46.87 74.68 44.31 C 75.49 47.14 78.28 47.90 80.79 48.62 C 78.34 49.34 75.93 50.20 73.56 51.13 C 73.06 48.94 72.08 46.92 71.01 44.97 C 72.60 44.02 74.18 43.07 75.77 42.12 C 74.87 41.30 73.98 40.48 73.09 39.67 C 73.81 38.21 74.53 36.76 75.28 35.31 C 79.14 33.98 82.95 32.48 86.95 31.62 C 88.96 30.94 91.60 30.50 92.40 28.23 Z" />
<path fill="#998585" opacity="1.00" d=" M 52.88 36.27 C 55.51 33.67 58.73 31.65 61.87 29.70 C 62.37 29.79 63.37 29.96 63.87 30.05 C 64.32 31.23 64.76 32.41 65.12 33.61 C 64.86 33.84 64.32 34.29 64.05 34.51 C 60.13 37.33 57.87 41.72 55.82 45.97 C 59.00 46.02 62.09 45.16 64.70 43.30 C 64.57 43.70 64.30 44.50 64.16 44.90 C 60.46 46.88 56.37 47.90 52.56 49.62 C 51.21 48.24 49.83 46.89 48.46 45.54 C 49.62 42.30 51.18 39.24 52.88 36.27 Z" />
<path fill="#75474e" opacity="1.00" d=" M 63.87 30.05 C 67.56 30.58 70.79 32.52 74.00 34.30 C 73.25 36.27 72.36 38.18 71.33 40.00 C 72.05 40.69 72.79 41.39 73.52 42.08 C 71.55 43.41 68.98 44.07 67.54 46.03 C 67.29 46.41 66.78 47.18 66.53 47.56 C 66.22 47.24 65.62 46.59 65.32 46.27 C 63.94 47.03 62.58 47.81 61.20 48.57 C 61.47 50.68 61.73 52.80 61.97 54.91 C 61.58 54.90 60.81 54.88 60.42 54.86 C 60.21 52.72 59.97 50.58 59.68 48.45 C 59.14 49.20 58.62 49.97 58.12 50.74 L 57.05 50.47 C 55.11 50.19 53.14 50.44 51.19 50.38 L 52.56 49.62 C 56.37 47.90 60.46 46.88 64.16 44.90 C 64.30 44.50 64.57 43.70 64.70 43.30 C 65.85 41.35 67.55 39.38 67.10 36.94 C 66.88 35.35 65.68 34.30 64.05 34.51 C 64.32 34.29 64.86 33.84 65.12 33.61 C 64.76 32.41 64.32 31.23 63.87 30.05 Z" />
<path fill="#957d7e" opacity="1.00" d=" M 17.47 31.23 C 21.61 36.21 23.75 42.58 26.56 48.38 C 24.78 49.30 22.87 51.41 20.72 50.29 C 16.87 48.43 13.30 46.04 9.37 44.36 C 10.30 42.85 11.32 41.40 12.47 40.06 L 12.72 42.00 C 15.03 40.21 17.06 38.00 17.83 35.10 C 16.78 35.50 15.73 35.90 14.68 36.31 C 15.59 34.60 16.52 32.91 17.47 31.23 Z" />
<path fill="#000000" opacity="1.00" d=" M 55.82 45.97 C 57.87 41.72 60.13 37.33 64.05 34.51 C 65.68 34.30 66.88 35.35 67.10 36.94 C 67.55 39.38 65.85 41.35 64.70 43.30 C 62.09 45.16 59.00 46.02 55.82 45.97 M 57.60 44.95 C 62.11 44.39 67.15 40.59 65.18 35.48 C 61.56 37.58 59.69 41.50 57.60 44.95 Z" />
<path fill="#cac0a5" opacity="1.00" d=" M 12.47 40.06 C 13.16 38.78 13.93 37.55 14.68 36.31 C 15.73 35.90 16.78 35.50 17.83 35.10 C 17.06 38.00 15.03 40.21 12.72 42.00 L 12.47 40.06 Z" />
<path fill="#62ffea" opacity="1.00" d=" M 57.60 44.95 C 59.69 41.50 61.56 37.58 65.18 35.48 C 67.15 40.59 62.11 44.39 57.60 44.95 Z" />
<path fill="#e2debb" opacity="1.00" d=" M 46.52 41.98 C 48.15 39.59 50.31 37.60 52.88 36.27 C 51.18 39.24 49.62 42.30 48.46 45.54 C 47.81 44.35 47.16 43.17 46.52 41.98 Z" />
<path fill="#7d555a" opacity="1.00" d=" M 0.00 39.16 C 2.40 41.10 3.95 44.26 3.58 47.36 C 2.54 52.50 5.82 57.03 7.59 61.60 C 9.31 66.11 14.74 66.28 18.71 67.46 C 19.07 71.40 20.74 74.99 22.65 78.40 C 22.50 78.57 22.21 78.92 22.06 79.09 C 18.81 78.31 16.34 81.24 13.67 82.56 C 9.01 82.23 4.50 83.76 0.00 84.72 L 0.00 70.23 C 1.81 69.40 4.42 69.53 5.54 67.65 C 5.75 62.58 2.51 58.21 0.00 54.06 L 0.00 39.16 Z" />
<path fill="#714148" opacity="1.00" d=" M 74.68 44.31 C 81.02 46.87 87.98 45.48 93.93 42.54 C 93.63 43.57 93.34 44.59 93.01 45.61 C 90.30 48.51 86.60 50.25 83.23 52.26 C 80.16 53.83 77.45 56.24 73.98 56.88 C 73.93 54.96 73.79 53.04 73.56 51.13 C 75.93 50.20 78.34 49.34 80.79 48.62 C 78.28 47.90 75.49 47.14 74.68 44.31 Z" />
<path fill="#542028" opacity="1.00" d=" M 104.42 47.83 C 106.66 45.78 108.93 43.76 111.00 41.54 L 111.00 52.72 C 106.38 52.30 101.90 53.48 97.79 55.53 C 94.74 56.66 91.53 57.71 88.23 57.26 C 91.93 54.98 95.65 52.71 99.28 50.30 C 101.37 49.10 102.08 46.69 102.86 44.57 C 103.38 45.66 103.90 46.74 104.42 47.83 Z" />
<path fill="#7b5257" opacity="1.00" d=" M 5.41 48.74 C 6.85 47.39 8.19 45.94 9.37 44.36 C 13.30 46.04 16.87 48.43 20.72 50.29 C 22.87 51.41 24.78 49.30 26.56 48.38 C 28.03 51.39 29.43 54.43 30.75 57.51 C 27.33 58.80 23.59 58.62 20.02 58.27 C 18.31 58.28 17.40 56.66 16.28 55.65 C 13.99 52.80 10.02 52.75 6.76 51.83 C 6.31 50.80 5.86 49.77 5.41 48.74 Z" />
<path fill="#000000" opacity="1.00" d=" M 61.20 48.57 C 62.58 47.81 63.94 47.03 65.32 46.27 C 65.62 46.59 66.22 47.24 66.53 47.56 C 67.56 48.64 68.60 49.70 69.65 50.76 C 69.58 51.18 69.45 52.02 69.38 52.44 C 68.02 51.38 66.66 50.31 65.29 49.26 C 65.91 50.81 66.53 52.36 67.15 53.91 C 66.74 53.86 65.93 53.77 65.53 53.72 C 64.72 51.78 64.02 49.79 63.27 47.82 C 63.20 50.58 63.38 53.34 63.65 56.09 C 62.04 56.23 60.43 56.37 58.82 56.50 C 58.58 54.59 58.34 52.66 58.12 50.74 C 58.62 49.97 59.14 49.20 59.68 48.45 C 59.97 50.58 60.21 52.72 60.42 54.86 C 60.81 54.88 61.58 54.90 61.97 54.91 C 61.73 52.80 61.47 50.68 61.20 48.57 Z" />
<path fill="#9b8887" opacity="1.00" d=" M 66.53 47.56 C 66.78 47.18 67.29 46.41 67.54 46.03 C 68.25 46.21 69.68 46.58 70.39 46.76 C 70.13 48.09 69.88 49.43 69.65 50.76 C 68.60 49.70 67.56 48.64 66.53 47.56 Z" />
<path fill="#7b5257" opacity="1.00" d=" M 70.39 46.76 C 71.95 49.76 72.88 53.55 72.21 56.81 C 69.05 59.44 64.76 60.14 60.92 61.34 C 59.22 61.64 56.39 62.86 56.61 60.00 C 61.12 58.04 66.71 57.94 70.25 54.21 C 69.48 54.13 67.92 53.98 67.15 53.91 C 66.53 52.36 65.91 50.81 65.29 49.26 C 66.66 50.31 68.02 51.38 69.38 52.44 C 69.45 52.02 69.58 51.18 69.65 50.76 C 69.88 49.43 70.13 48.09 70.39 46.76 Z" />
<path fill="#9a8686" opacity="1.00" d=" M 63.65 56.09 C 63.38 53.34 63.20 50.58 63.27 47.82 C 64.02 49.79 64.72 51.78 65.53 53.72 C 65.93 53.77 66.74 53.86 67.15 53.91 C 67.92 53.98 69.48 54.13 70.25 54.21 C 66.71 57.94 61.12 58.04 56.61 60.00 C 56.38 59.43 55.92 58.29 55.69 57.72 C 56.00 57.29 56.63 56.42 56.94 55.99 C 56.81 54.15 56.69 52.29 57.05 50.47 L 58.12 50.74 C 58.34 52.66 58.58 54.59 58.82 56.50 C 60.43 56.37 62.04 56.23 63.65 56.09 Z" />
<path fill="#613037" opacity="1.00" d=" M 6.76 51.83 C 10.02 52.75 13.99 52.80 16.28 55.65 C 17.40 56.66 18.31 58.28 20.02 58.27 C 23.59 58.62 27.33 58.80 30.75 57.51 L 31.11 57.40 C 31.45 59.46 33.73 61.99 31.94 63.83 C 26.06 67.74 18.56 66.24 12.52 63.58 C 9.89 60.08 7.94 56.04 6.76 51.83 Z" />
<path fill="#64363d" opacity="1.00" d=" M 97.79 55.53 C 101.90 53.48 106.38 52.30 111.00 52.72 L 111.00 54.71 C 108.24 57.86 104.79 60.30 100.93 61.91 C 101.16 60.98 101.38 60.06 101.61 59.14 C 100.34 57.94 99.06 56.74 97.79 55.53 Z" />
<path fill="#795055" opacity="1.00" d=" M 31.23 53.81 C 33.34 54.92 34.80 56.83 36.46 58.48 C 40.66 62.78 45.24 66.73 49.00 71.44 C 44.78 72.02 41.88 68.44 38.47 66.62 L 38.45 67.70 C 38.17 69.89 38.18 72.20 37.24 74.24 C 35.05 76.90 31.18 76.46 28.10 76.34 C 26.92 73.79 25.61 71.30 24.31 68.81 C 25.20 68.79 26.98 68.76 27.88 68.74 C 29.59 66.40 33.14 66.23 34.53 63.68 C 35.03 60.06 32.53 56.99 31.23 53.81 Z" />
<path fill="#988484" opacity="1.00" d=" M 0.00 54.06 C 2.51 58.21 5.75 62.58 5.54 67.65 C 4.42 69.53 1.81 69.40 0.00 70.23 L 0.00 54.06 Z" />
<path fill="#5b2930" opacity="1.00" d=" M 100.93 61.91 C 104.79 60.30 108.24 57.86 111.00 54.71 L 111.00 64.00 C 109.66 66.79 106.54 66.84 104.37 64.96 C 104.00 64.76 103.27 64.36 102.90 64.16 C 100.49 64.73 98.11 65.48 95.76 66.27 C 97.37 64.70 98.96 63.05 100.93 61.91 Z" />
<path fill="#744b50" opacity="1.00" d=" M 88.23 57.26 C 91.53 57.71 94.74 56.66 97.79 55.53 C 99.06 56.74 100.34 57.94 101.61 59.14 C 101.38 60.06 101.16 60.98 100.93 61.91 C 98.96 63.05 97.37 64.70 95.76 66.27 C 92.24 67.87 88.60 69.19 84.97 70.51 C 84.06 68.47 83.20 66.40 82.36 64.32 C 78.35 65.89 74.86 68.51 70.86 70.11 C 72.27 68.80 73.62 67.42 74.96 66.04 C 74.46 65.97 73.46 65.81 72.96 65.73 C 78.19 63.15 83.10 60.02 88.23 57.26 Z" />
<path fill="#7b565b" opacity="1.00" d=" M 70.86 70.11 C 74.86 68.51 78.35 65.89 82.36 64.32 C 83.20 66.40 84.06 68.47 84.97 70.51 C 79.30 72.64 73.66 74.85 68.03 77.07 C 66.01 75.85 64.03 74.58 62.13 73.18 C 65.14 72.48 68.06 71.42 70.86 70.11 Z" />
<path fill="#764d52" opacity="1.00" d=" M 104.37 64.96 C 106.54 66.84 109.66 66.79 111.00 64.00 L 111.00 67.72 C 106.33 73.81 97.83 73.46 91.74 77.33 C 90.61 75.43 89.66 73.43 88.85 71.38 C 94.06 69.34 99.20 67.12 104.37 64.96 Z" />
<path fill="#64373d" opacity="1.00" d=" M 62.13 73.18 C 63.53 68.47 69.34 68.11 72.96 65.73 C 73.46 65.81 74.46 65.97 74.96 66.04 C 73.62 67.42 72.27 68.80 70.86 70.11 C 68.06 71.42 65.14 72.48 62.13 73.18 Z" />
<path fill="#5a2830" opacity="1.00" d=" M 38.47 66.62 C 41.88 68.44 44.78 72.02 49.00 71.44 C 52.93 75.33 57.28 78.79 61.76 82.04 C 55.32 91.03 48.76 100.15 40.05 107.11 C 37.08 98.89 33.54 90.89 30.66 82.64 C 35.40 83.19 40.33 84.33 45.01 82.78 C 47.96 81.85 51.05 81.52 54.08 80.94 C 54.19 80.45 54.40 79.47 54.50 78.98 C 50.24 75.51 44.72 74.36 39.73 72.33 C 39.27 70.80 38.82 69.26 38.45 67.70 L 38.47 66.62 Z" />
<path fill="#673a40" opacity="1.00" d=" M 18.71 67.46 C 20.00 67.96 21.86 67.86 22.50 69.36 C 24.97 73.84 26.81 78.64 28.74 83.37 C 27.08 83.34 25.44 83.14 23.82 82.83 C 23.37 85.95 23.38 89.10 23.58 92.24 C 23.42 91.00 23.24 89.76 23.03 88.53 C 21.73 90.01 20.65 91.68 19.27 93.09 C 13.13 95.96 6.53 97.68 0.00 99.41 L 0.00 87.73 C 4.68 86.35 9.74 85.72 13.67 82.56 C 16.34 81.24 18.81 78.31 22.06 79.09 C 22.21 78.92 22.50 78.57 22.65 78.40 C 20.74 74.99 19.07 71.40 18.71 67.46 Z" />
<path fill="#6f4349" opacity="1.00" d=" M 38.45 67.70 C 38.82 69.26 39.27 70.80 39.73 72.33 C 44.72 74.36 50.24 75.51 54.50 78.98 C 54.40 79.47 54.19 80.45 54.08 80.94 C 51.05 81.52 47.96 81.85 45.01 82.78 C 40.33 84.33 35.40 83.19 30.66 82.64 C 29.79 80.55 28.92 78.45 28.10 76.34 C 31.18 76.46 35.05 76.90 37.24 74.24 C 38.18 72.20 38.17 69.89 38.45 67.70 Z" />
<path fill="#603037" opacity="1.00" d=" M 91.74 77.33 C 97.83 73.46 106.33 73.81 111.00 67.72 L 111.00 81.32 C 108.46 82.82 106.17 84.68 104.15 86.84 C 99.75 85.40 95.29 87.52 90.97 88.31 C 91.74 85.79 91.64 83.21 89.90 81.11 C 90.57 79.88 91.17 78.61 91.74 77.33 M 92.67 80.97 C 93.44 82.62 95.23 83.34 96.96 83.35 C 99.85 83.42 103.89 84.44 105.27 81.04 C 104.17 79.72 103.08 77.98 101.08 78.38 C 98.25 78.68 94.40 78.28 92.67 80.97 Z" />
<path fill="#592d33" opacity="1.00" d=" M 53.94 69.35 C 56.92 70.84 59.34 73.43 58.66 77.04 C 55.97 75.33 52.54 73.09 53.94 69.35 Z" />
<path fill="#734c51" opacity="1.00" d=" M 92.67 80.97 C 94.40 78.28 98.25 78.68 101.08 78.38 C 103.08 77.98 104.17 79.72 105.27 81.04 C 103.89 84.44 99.85 83.42 96.96 83.35 C 95.23 83.34 93.44 82.62 92.67 80.97 Z" />
<path fill="#9b8887" opacity="1.00" d=" M 0.00 84.72 C 4.50 83.76 9.01 82.23 13.67 82.56 C 9.74 85.72 4.68 86.35 0.00 87.73 L 0.00 84.72 Z" />
<path fill="#5d2c33" opacity="1.00" d=" M 23.82 82.83 C 25.44 83.14 27.08 83.34 28.74 83.37 C 32.37 92.58 36.00 101.79 39.62 111.00 L 23.72 111.00 C 23.87 108.22 24.07 105.44 24.19 102.65 C 24.31 99.17 23.89 95.70 23.58 92.24 C 23.38 89.10 23.37 85.95 23.82 82.83 Z" />
<path fill="#724c50" opacity="1.00" d=" M 86.45 85.43 C 87.65 84.03 88.80 82.59 89.90 81.11 C 91.64 83.21 91.74 85.79 90.97 88.31 C 87.35 90.94 83.61 93.38 79.81 95.75 C 77.51 97.13 75.12 99.34 72.21 98.37 C 73.62 96.94 75.14 95.61 76.76 94.42 C 81.01 94.82 83.72 91.07 86.56 88.56 C 86.52 87.52 86.48 86.47 86.45 85.43 Z" />
<path fill="#978283" opacity="1.00" d=" M 104.15 86.84 C 106.17 84.68 108.46 82.82 111.00 81.32 L 111.00 89.74 C 108.77 88.64 106.49 87.66 104.15 86.84 Z" />
<path fill="#ab9e8f" opacity="1.00" d=" M 76.76 94.42 C 79.91 91.34 83.46 88.68 86.45 85.43 C 86.48 86.47 86.52 87.52 86.56 88.56 C 83.72 91.07 81.01 94.82 76.76 94.42 Z" />
<path fill="#968080" opacity="1.00" d=" M 19.27 93.09 C 20.65 91.68 21.73 90.01 23.03 88.53 C 23.24 89.76 23.42 91.00 23.58 92.24 C 23.89 95.70 24.31 99.17 24.19 102.65 C 21.50 105.05 19.26 107.87 17.48 111.00 L 0.00 111.00 L 0.00 99.41 C 6.53 97.68 13.13 95.96 19.27 93.09 Z" />
<path fill="#5d2b32" opacity="1.00" d=" M 72.80 100.22 C 76.83 100.88 79.96 97.72 83.17 95.83 C 85.27 98.37 87.06 101.14 88.56 104.07 C 85.31 105.83 81.75 107.51 80.01 111.00 L 79.35 111.00 C 77.38 108.19 76.83 104.78 76.56 101.44 C 75.31 101.02 74.06 100.59 72.80 100.22 Z" />
<path fill="#724b50" opacity="1.00" d=" M 71.93 99.99 L 72.80 100.22 C 74.06 100.59 75.31 101.02 76.56 101.44 C 76.83 104.78 77.38 108.19 79.35 111.00 L 75.25 111.00 C 75.83 108.73 76.11 106.41 76.37 104.10 C 75.16 103.48 73.95 102.87 72.74 102.25 C 72.40 102.07 71.70 101.72 71.36 101.54 C 71.50 101.15 71.78 100.38 71.93 99.99 Z" />
<path fill="#c6c1a3" opacity="1.00" d=" M 71.36 101.54 C 71.70 101.72 72.40 102.07 72.74 102.25 C 71.75 105.18 70.82 108.14 69.63 111.00 L 67.40 111.00 C 68.83 107.90 70.15 104.74 71.36 101.54 Z" />
<path fill="#7c555a" opacity="1.00" d=" M 17.48 111.00 C 19.26 107.87 21.50 105.05 24.19 102.65 C 24.07 105.44 23.87 108.22 23.72 111.00 L 17.48 111.00 Z" />
<path fill="#978181" opacity="1.00" d=" M 69.63 111.00 C 70.82 108.14 71.75 105.18 72.74 102.25 C 73.95 102.87 75.16 103.48 76.37 104.10 C 76.11 106.41 75.83 108.73 75.25 111.00 L 69.63 111.00 Z" />
</svg>
