<?xml version="1.0" encoding="UTF-8" ?>
<!DOCTYPE svg PUBLIC "-//W3C//DTD SVG 1.1//EN" "http://www.w3.org/Graphics/SVG/1.1/DTD/svg11.dtd">
<svg width="111pt" height="111pt" viewBox="0 0 111 111" version="1.1" xmlns="http://www.w3.org/2000/svg">
<path fill="#000000" opacity="1.00" d=" M 90.36 0.00 L 92.24 0.00 C 91.65 1.29 92.01 3.17 93.29 3.91 C 94.77 3.38 94.31 1.09 93.72 0.00 L 95.81 0.00 C 93.96 2.10 97.76 2.24 97.56 0.00 L 100.64 0.00 C 97.87 1.80 95.75 4.36 93.91 7.07 C 97.40 8.11 100.84 9.31 104.17 10.79 C 105.53 11.36 106.89 11.90 108.28 12.39 C 109.18 12.63 110.09 12.84 111.00 13.04 L 111.00 18.15 C 109.11 18.89 107.83 23.21 111.00 22.18 L 111.00 24.82 C 109.45 24.24 108.11 23.27 106.86 22.20 C 107.30 20.77 107.72 19.35 108.13 17.91 C 106.44 20.06 105.36 22.59 105.04 25.31 C 104.54 28.00 103.03 30.35 100.34 31.28 C 100.21 31.32 99.95 31.39 99.82 31.43 L 99.01 31.65 C 96.87 32.21 94.73 32.76 92.60 33.34 C 90.85 35.09 89.01 36.99 86.50 37.54 C 83.88 38.39 80.47 37.92 78.94 40.70 C 77.32 44.71 76.53 49.75 79.86 53.13 C 80.93 52.96 82.00 52.81 83.07 52.69 C 83.80 52.67 85.27 52.64 86.00 52.62 C 89.10 52.79 91.96 51.48 94.95 50.94 C 97.55 51.13 99.99 52.07 102.46 52.83 C 104.21 50.21 105.97 47.59 107.70 44.96 C 105.94 43.63 104.19 42.29 102.54 40.83 C 105.48 41.80 108.18 43.34 111.00 44.61 L 111.00 45.41 C 107.50 47.64 105.64 51.44 103.28 54.70 C 99.99 53.85 96.53 52.09 93.11 53.39 C 89.39 54.60 85.46 54.67 81.60 54.99 C 78.70 59.94 74.86 64.24 70.64 68.11 C 70.28 68.38 69.55 68.92 69.18 69.19 C 68.73 69.35 67.83 69.69 67.37 69.86 C 66.67 68.06 65.96 66.26 65.23 64.47 C 63.28 65.34 61.33 66.22 59.38 67.11 C 59.21 69.21 59.89 71.67 58.38 73.43 C 55.97 76.45 52.46 78.27 49.17 80.17 C 47.67 78.14 45.64 76.67 43.26 75.83 C 43.28 81.42 43.48 87.01 44.23 92.56 C 44.67 95.87 45.25 99.27 47.07 102.15 C 49.75 105.57 53.06 108.44 56.55 111.00 L 53.07 111.00 C 50.62 108.83 48.33 106.49 46.11 104.10 C 44.37 101.73 43.33 98.95 42.85 96.07 C 42.36 92.64 41.98 89.20 41.66 85.76 C 41.59 82.69 41.51 79.62 41.36 76.55 C 40.26 78.97 39.22 81.43 38.07 83.83 C 34.55 91.34 29.47 98.05 26.53 105.84 C 28.61 107.51 30.60 109.29 32.65 111.00 L 29.99 111.00 C 28.18 109.65 26.43 108.23 24.66 106.84 C 24.93 105.55 25.23 104.28 25.55 103.00 C 26.24 101.49 27.07 100.03 27.86 98.57 C 25.11 97.46 22.33 96.39 19.53 95.40 C 13.02 93.27 6.78 90.17 0.00 88.98 L 0.00 86.42 C 6.45 88.88 13.09 90.84 19.44 93.58 C 19.47 91.86 19.26 90.11 19.63 88.42 C 20.46 85.90 23.21 85.07 25.31 83.95 C 25.51 81.46 25.01 78.66 26.57 76.51 C 28.41 74.05 31.23 72.63 33.74 70.98 C 32.83 70.29 31.92 69.60 31.01 68.91 C 31.23 67.73 31.46 66.54 31.69 65.36 C 27.36 68.34 21.87 69.42 16.77 68.24 C 10.37 63.52 4.80 57.64 0.00 51.31 L 0.00 47.00 C 4.24 49.28 8.44 51.63 12.48 54.26 C 12.15 52.18 11.84 50.09 11.57 48.01 C 13.75 48.80 15.49 50.34 17.42 51.58 C 20.06 51.60 22.77 49.94 25.28 51.55 C 25.70 50.82 26.54 49.37 26.97 48.64 L 26.81 50.87 C 28.66 50.84 29.80 49.61 30.70 48.17 C 29.06 47.21 27.47 46.18 25.91 45.10 C 25.39 43.93 24.84 42.77 24.26 41.62 C 24.43 43.89 24.90 46.12 25.44 48.33 C 24.99 48.56 24.10 49.02 23.65 49.25 C 22.62 45.94 21.34 41.99 23.75 38.94 C 25.73 41.10 27.53 43.43 29.18 45.85 C 31.60 42.68 35.03 40.61 37.94 37.99 C 45.36 26.93 55.16 17.35 66.71 10.66 C 71.77 7.69 77.59 6.23 83.44 6.25 C 82.86 3.82 83.33 1.53 85.77 0.46 C 87.25 0.91 88.73 1.36 90.21 1.80 L 90.36 0.00 M 85.86 6.31 C 88.27 6.41 90.69 6.55 93.10 6.56 C 91.50 4.28 88.96 2.25 86.01 2.50 C 83.36 2.38 85.15 5.24 85.86 6.31 M 67.04 12.70 L 66.95 12.64 C 56.78 18.78 47.92 27.07 40.97 36.69 C 49.82 31.85 60.06 29.85 70.08 30.19 C 72.01 29.14 73.96 28.11 75.95 27.17 C 76.62 28.20 77.30 29.23 77.97 30.27 C 84.27 27.07 90.93 24.70 97.42 21.95 C 98.52 25.54 94.97 28.64 93.54 31.70 C 96.44 30.55 99.63 29.93 102.25 28.16 C 103.46 25.78 103.37 22.95 104.51 20.54 C 105.69 18.34 107.48 16.57 109.14 14.74 C 106.80 13.93 104.47 13.07 102.20 12.07 C 91.30 7.06 77.51 6.17 67.04 12.70 M 77.18 32.06 C 76.55 31.10 75.92 30.15 75.30 29.20 C 73.78 30.02 72.32 30.99 70.67 31.54 C 63.88 31.68 57.13 32.77 50.54 34.36 C 43.90 36.78 37.51 40.16 32.11 44.75 C 35.77 44.58 40.07 44.26 42.76 47.28 C 43.48 48.87 42.03 50.01 41.00 50.99 C 36.86 54.37 31.04 55.86 25.89 54.06 C 24.31 56.36 23.15 59.17 24.61 61.84 C 26.00 63.31 27.40 64.75 28.84 66.17 C 30.12 63.99 31.46 61.54 34.11 60.87 C 41.89 58.24 50.50 57.74 58.51 59.53 C 59.61 60.03 60.71 60.53 61.81 61.02 C 64.94 62.25 67.48 64.50 68.62 67.72 C 72.98 64.01 76.72 59.63 79.95 54.91 C 79.02 54.15 78.07 53.40 77.13 52.64 C 74.96 47.77 76.20 42.13 78.92 37.75 L 79.39 37.42 L 79.60 37.16 C 82.96 36.88 86.61 36.51 89.33 34.30 C 91.33 32.51 92.65 30.12 94.03 27.85 C 94.63 26.72 95.23 25.60 95.82 24.46 C 89.56 26.89 83.48 29.76 77.18 32.06 M 0.71 49.11 C 2.19 52.22 4.58 54.78 7.02 57.16 C 8.49 58.76 10.06 60.27 11.67 61.73 C 13.48 63.43 15.08 65.44 17.30 66.62 C 20.16 66.62 23.18 67.52 25.91 66.29 C 24.61 64.26 22.74 62.43 22.20 60.01 C 21.72 57.04 23.71 54.56 25.28 52.27 C 24.47 52.32 22.83 52.43 22.01 52.48 C 20.36 52.82 18.72 53.26 17.04 53.45 C 15.84 52.47 14.72 51.41 13.58 50.37 C 13.64 52.08 13.72 53.79 13.77 55.50 C 12.90 55.37 12.03 55.22 11.15 55.16 C 9.33 53.83 7.41 52.64 5.30 51.83 C 4.09 50.47 2.29 49.90 0.71 49.11 M 42.42 60.71 C 39.99 62.00 37.56 63.69 36.35 66.25 C 41.87 65.79 47.25 63.66 51.69 60.35 C 48.60 60.30 45.47 60.14 42.42 60.71 M 47.78 64.67 C 43.77 65.79 38.99 69.19 35.07 66.34 C 35.89 64.61 36.68 62.87 37.38 61.09 C 34.93 62.80 33.74 65.61 32.19 68.05 C 37.35 71.32 42.74 74.31 48.58 76.17 L 48.10 76.65 C 48.51 77.07 49.34 77.91 49.76 78.33 C 52.20 76.60 54.83 75.07 56.89 72.87 C 58.62 71.26 57.62 68.72 57.65 66.68 C 59.42 65.53 61.26 64.50 63.10 63.49 C 60.03 61.93 56.79 60.66 53.33 60.31 C 51.81 62.14 49.85 63.51 47.78 64.67 M 32.56 63.29 C 32.97 63.73 32.97 63.73 32.56 63.29 M 28.05 77.17 C 26.27 79.48 26.88 82.56 26.89 85.26 C 24.90 85.90 22.56 86.41 21.40 88.34 C 20.13 90.14 21.09 92.33 21.41 94.27 C 23.87 95.16 26.29 96.13 28.73 97.07 C 32.89 89.78 37.00 82.45 40.22 74.69 C 38.58 73.70 36.91 72.76 35.21 71.87 C 32.80 73.59 30.02 74.91 28.05 77.17 Z" />
<path fill="#9e643a" opacity="1.00" d=" M 92.24 0.00 L 93.72 0.00 C 94.31 1.09 94.77 3.38 93.29 3.91 C 92.01 3.17 91.65 1.29 92.24 0.00 Z" />
<path fill="#7bce70" opacity="1.00" d=" M 100.64 0.00 L 108.57 0.00 C 108.62 0.35 108.73 1.06 108.78 1.41 C 110.20 5.31 106.51 8.26 104.17 10.79 C 100.84 9.31 97.40 8.11 93.91 7.07 C 95.75 4.36 97.87 1.80 100.64 0.00 Z" />
<path fill="#000000" opacity="1.00" d=" M 108.57 0.00 L 111.00 0.00 L 111.00 1.53 C 110.44 1.50 109.33 1.44 108.78 1.41 C 108.73 1.06 108.62 0.35 108.57 0.00 Z" />
<path fill="#61a196" opacity="1.00" d=" M 108.78 1.41 C 109.33 1.44 110.44 1.50 111.00 1.53 L 111.00 5.33 C 110.10 7.69 109.16 10.03 108.28 12.39 C 106.89 11.90 105.53 11.36 104.17 10.79 C 106.51 8.26 110.20 5.31 108.78 1.41 Z" />
<path fill="#efbe5f" opacity="1.00" d=" M 85.86 6.31 C 85.15 5.24 83.36 2.38 86.01 2.50 C 88.96 2.25 91.50 4.28 93.10 6.56 C 90.69 6.55 88.27 6.41 85.86 6.31 Z" />
<path fill="#7ccf6f" opacity="1.00" d=" M 108.28 12.39 C 109.16 10.03 110.10 7.69 111.00 5.33 L 111.00 13.04 C 110.09 12.84 109.18 12.63 108.28 12.39 Z" />
<path fill="#cc8f6b" opacity="1.00" d=" M 67.04 12.70 C 77.51 6.17 91.30 7.06 102.20 12.07 C 101.77 12.37 100.93 12.96 100.50 13.25 C 101.43 14.23 102.36 15.21 103.28 16.19 C 100.77 17.58 98.12 19.63 95.06 18.82 C 91.55 18.17 88.03 17.33 84.44 17.72 C 78.55 16.54 71.98 16.56 67.04 12.70 Z" />
<path fill="#b96e5a" opacity="1.00" d=" M 102.20 12.07 C 104.47 13.07 106.80 13.93 109.14 14.74 C 107.48 16.57 105.69 18.34 104.51 20.54 C 103.37 22.95 103.46 25.78 102.25 28.16 C 99.63 29.93 96.44 30.55 93.54 31.70 C 94.97 28.64 98.52 25.54 97.42 21.95 C 93.19 20.26 88.76 19.15 84.44 17.72 C 88.03 17.33 91.55 18.17 95.06 18.82 C 98.12 19.63 100.77 17.58 103.28 16.19 C 102.36 15.21 101.43 14.23 100.50 13.25 C 100.93 12.96 101.77 12.37 102.20 12.07 Z" />
<path fill="#d9a777" opacity="1.00" d=" M 40.97 36.69 C 47.92 27.07 56.78 18.78 66.95 12.64 L 67.04 12.70 C 71.98 16.56 78.55 16.54 84.44 17.72 C 88.76 19.15 93.19 20.26 97.42 21.95 C 90.93 24.70 84.27 27.07 77.97 30.27 C 77.30 29.23 76.62 28.20 75.95 27.17 C 73.96 28.11 72.01 29.14 70.08 30.19 C 60.06 29.85 49.82 31.85 40.97 36.69 Z" />
<path fill="#af6454" opacity="1.00" d=" M 111.00 22.18 C 107.83 23.21 109.11 18.89 111.00 18.15 L 111.00 22.18 Z" />
<path fill="#f1c162" opacity="1.00" d=" M 105.04 25.31 C 105.36 22.59 106.44 20.06 108.13 17.91 C 107.72 19.35 107.30 20.77 106.86 22.20 C 108.11 23.27 109.45 24.24 111.00 24.82 L 111.00 33.50 C 109.45 36.47 106.84 38.62 103.95 40.21 C 102.63 37.26 101.26 34.32 99.82 31.43 C 99.95 31.39 100.21 31.32 100.34 31.28 C 100.76 31.62 101.59 32.30 102.01 32.64 C 105.01 30.20 108.83 26.82 106.87 22.51 C 106.41 23.21 105.50 24.61 105.04 25.31 Z" />
<path fill="#e8e5de" opacity="1.00" d=" M 106.87 22.51 C 108.83 26.82 105.01 30.20 102.01 32.64 C 101.59 32.30 100.76 31.62 100.34 31.28 C 103.03 30.35 104.54 28.00 105.04 25.31 C 105.50 24.61 106.41 23.21 106.87 22.51 Z" />
<path fill="#daaa78" opacity="1.00" d=" M 77.18 32.06 C 83.48 29.76 89.56 26.89 95.82 24.46 C 95.23 25.60 94.63 26.72 94.03 27.85 C 88.58 29.61 83.27 32.71 79.60 37.16 L 79.39 37.42 L 78.92 37.75 C 71.97 42.42 67.16 49.49 60.89 54.95 C 60.00 55.71 58.93 56.22 57.86 56.69 C 46.82 54.13 34.17 55.41 24.61 61.84 C 23.15 59.17 24.31 56.36 25.89 54.06 C 31.04 55.86 36.86 54.37 41.00 50.99 C 42.03 50.01 43.48 48.87 42.76 47.28 C 40.07 44.26 35.77 44.58 32.11 44.75 C 37.51 40.16 43.90 36.78 50.54 34.36 C 57.13 32.77 63.88 31.68 70.67 31.54 C 72.32 30.99 73.78 30.02 75.30 29.20 C 75.92 30.15 76.55 31.10 77.18 32.06 M 49.33 41.44 C 48.31 41.27 46.27 40.92 45.26 40.74 C 46.50 41.65 47.79 42.49 49.09 43.31 C 49.57 43.00 50.53 42.39 51.01 42.09 C 55.76 43.92 61.59 44.10 65.73 40.74 C 67.95 39.18 68.27 36.30 68.51 33.82 C 61.09 32.22 54.82 37.24 49.33 41.44 Z" />
<path fill="#bd785d" opacity="1.00" d=" M 79.60 37.16 C 83.27 32.71 88.58 29.61 94.03 27.85 C 92.65 30.12 91.33 32.51 89.33 34.30 C 86.61 36.51 82.96 36.88 79.60 37.16 Z" />
<path fill="#edbc5b" opacity="1.00" d=" M 92.60 33.34 C 94.73 32.76 96.87 32.21 99.01 31.65 C 98.50 35.84 97.23 39.85 95.51 43.69 C 91.46 44.31 87.36 44.56 83.28 44.09 C 81.79 43.01 80.37 41.85 78.94 40.70 C 80.47 37.92 83.88 38.39 86.50 37.54 C 89.01 36.99 90.85 35.09 92.60 33.34 Z" />
<path fill="#a66738" opacity="1.00" d=" M 99.01 31.65 L 99.82 31.43 C 101.26 34.32 102.63 37.26 103.95 40.21 C 106.84 38.62 109.45 36.47 111.00 33.50 L 111.00 44.61 C 108.18 43.34 105.48 41.80 102.54 40.83 C 104.19 42.29 105.94 43.63 107.70 44.96 C 105.97 47.59 104.21 50.21 102.46 52.83 C 99.99 52.07 97.55 51.13 94.95 50.94 C 91.96 51.48 89.10 52.79 86.00 52.62 C 86.47 52.11 87.41 51.10 87.87 50.59 C 87.23 48.76 86.62 46.87 85.33 45.38 C 84.82 45.06 83.80 44.41 83.28 44.09 C 87.36 44.56 91.46 44.31 95.51 43.69 C 97.23 39.85 98.50 35.84 99.01 31.65 Z" />
<path fill="#000000" opacity="1.00" d=" M 49.33 41.44 C 54.82 37.24 61.09 32.22 68.51 33.82 C 68.27 36.30 67.95 39.18 65.73 40.74 C 61.59 44.10 55.76 43.92 51.01 42.09 C 50.53 42.39 49.57 43.00 49.09 43.31 C 47.79 42.49 46.50 41.65 45.26 40.74 C 46.27 40.92 48.31 41.27 49.33 41.44 M 63.36 34.90 L 63.31 35.10 C 59.07 36.09 55.33 38.46 52.03 41.23 C 55.24 41.67 58.48 41.65 61.71 41.49 C 64.81 40.41 67.11 37.91 67.45 34.57 C 66.08 34.68 64.72 34.79 63.36 34.90 Z" />
<path fill="#2449a9" opacity="1.00" d=" M 63.36 34.90 C 64.72 34.79 66.08 34.68 67.45 34.57 C 67.11 37.91 64.81 40.41 61.71 41.49 C 62.26 39.37 62.79 37.24 63.31 35.10 L 63.36 34.90 Z" />
<path fill="#62ffeb" opacity="1.00" d=" M 52.03 41.23 C 55.33 38.46 59.07 36.09 63.31 35.10 C 62.79 37.24 62.26 39.37 61.71 41.49 C 58.48 41.65 55.24 41.67 52.03 41.23 Z" />
<path fill="#af6351" opacity="1.00" d=" M 60.89 54.95 C 67.16 49.49 71.97 42.42 78.92 37.75 C 76.20 42.13 74.96 47.77 77.13 52.64 C 74.12 53.64 70.75 54.12 68.30 56.29 C 66.25 58.02 64.13 59.66 61.81 61.02 C 60.71 60.53 59.61 60.03 58.51 59.53 C 58.29 58.58 58.07 57.64 57.86 56.69 C 58.93 56.22 60.00 55.71 60.89 54.95 Z" />
<path fill="#ffffcc" opacity="1.00" d=" M 24.26 41.62 C 24.84 42.77 25.39 43.93 25.91 45.10 C 27.47 46.18 29.06 47.21 30.70 48.17 C 29.80 49.61 28.66 50.84 26.81 50.87 L 26.97 48.64 C 26.47 48.49 25.96 48.39 25.44 48.33 C 24.90 46.12 24.43 43.89 24.26 41.62 Z" />
<path fill="#813217" opacity="1.00" d=" M 79.86 53.13 C 76.53 49.75 77.32 44.71 78.94 40.70 C 80.37 41.85 81.79 43.01 83.28 44.09 C 83.80 44.41 84.82 45.06 85.33 45.38 C 84.29 46.38 83.27 47.40 82.24 48.41 C 82.52 49.84 82.79 51.26 83.07 52.69 C 82.00 52.81 80.93 52.96 79.86 53.13 Z" />
<path fill="#924b29" opacity="1.00" d=" M 85.33 45.38 C 86.62 46.87 87.23 48.76 87.87 50.59 C 87.41 51.10 86.47 52.11 86.00 52.62 C 85.27 52.64 83.80 52.67 83.07 52.69 C 82.79 51.26 82.52 49.84 82.24 48.41 C 83.27 47.40 84.29 46.38 85.33 45.38 Z" />
<path fill="#ba765b" opacity="1.00" d=" M 103.28 54.70 C 105.64 51.44 107.50 47.64 111.00 45.41 L 111.00 56.73 C 105.47 56.42 100.71 59.49 96.03 61.95 C 93.35 63.26 92.10 66.07 90.43 68.36 C 90.07 68.44 89.35 68.62 88.99 68.71 C 88.58 68.72 87.78 68.73 87.37 68.74 C 86.50 71.13 85.69 73.55 85.14 76.04 C 84.15 75.87 83.15 75.70 82.16 75.53 C 80.38 77.50 78.29 79.14 75.87 80.26 C 80.83 74.36 83.81 67.15 86.06 59.86 C 80.24 61.34 76.29 66.30 70.64 68.11 C 74.86 64.24 78.70 59.94 81.60 54.99 C 85.46 54.67 89.39 54.60 93.11 53.39 C 96.53 52.09 99.99 53.85 103.28 54.70 Z" />
<path fill="#e6838e" opacity="1.00" d=" M 0.71 49.11 C 2.29 49.90 4.09 50.47 5.30 51.83 C 6.44 53.37 7.65 54.88 9.13 56.12 C 8.60 56.38 7.54 56.90 7.02 57.16 C 4.58 54.78 2.19 52.22 0.71 49.11 Z" />
<path fill="#f1b86f" opacity="1.00" d=" M 13.77 55.50 C 13.72 53.79 13.64 52.08 13.58 50.37 C 14.72 51.41 15.84 52.47 17.04 53.45 C 18.35 54.05 19.72 54.50 21.10 54.92 C 20.77 56.53 20.50 58.16 20.22 59.79 C 18.21 59.23 16.24 58.50 14.37 57.57 C 13.47 58.96 12.57 60.35 11.67 61.73 C 10.06 60.27 8.49 58.76 7.02 57.16 C 7.54 56.90 8.60 56.38 9.13 56.12 C 9.63 55.88 10.65 55.40 11.15 55.16 C 12.03 55.22 12.90 55.37 13.77 55.50 Z" />
<path fill="#d9a0bb" opacity="1.00" d=" M 5.30 51.83 C 7.41 52.64 9.33 53.83 11.15 55.16 C 10.65 55.40 9.63 55.88 9.13 56.12 C 7.65 54.88 6.44 53.37 5.30 51.83 Z" />
<path fill="#ffffcc" opacity="1.00" d=" M 17.04 53.45 C 18.72 53.26 20.36 52.82 22.01 52.48 C 22.23 52.93 22.67 53.83 22.89 54.27 C 22.44 54.43 21.55 54.76 21.10 54.92 C 19.72 54.50 18.35 54.05 17.04 53.45 Z" />
<path fill="#b37544" opacity="1.00" d=" M 22.01 52.48 C 22.83 52.43 24.47 52.32 25.28 52.27 C 23.71 54.56 21.72 57.04 22.20 60.01 C 22.74 62.43 24.61 64.26 25.91 66.29 C 23.18 67.52 20.16 66.62 17.30 66.62 C 15.08 65.44 13.48 63.43 11.67 61.73 C 12.57 60.35 13.47 58.96 14.37 57.57 C 16.24 58.50 18.21 59.23 20.22 59.79 C 20.50 58.16 20.77 56.53 21.10 54.92 C 21.55 54.76 22.44 54.43 22.89 54.27 C 22.67 53.83 22.23 52.93 22.01 52.48 Z" />
<path fill="#bc775c" opacity="1.00" d=" M 68.30 56.29 C 70.75 54.12 74.12 53.64 77.13 52.64 C 78.07 53.40 79.02 54.15 79.95 54.91 C 76.72 59.63 72.98 64.01 68.62 67.72 C 67.48 64.50 64.94 62.25 61.81 61.02 C 64.13 59.66 66.25 58.02 68.30 56.29 Z" />
<path fill="#c37d60" opacity="1.00" d=" M 24.61 61.84 C 34.17 55.41 46.82 54.13 57.86 56.69 C 58.07 57.64 58.29 58.58 58.51 59.53 C 50.50 57.74 41.89 58.24 34.11 60.87 C 31.46 61.54 30.12 63.99 28.84 66.17 C 27.40 64.75 26.00 63.31 24.61 61.84 Z" />
<path fill="#d9a777" opacity="1.00" d=" M 96.03 61.95 C 100.71 59.49 105.47 56.42 111.00 56.73 L 111.00 92.08 C 108.68 91.73 108.72 95.32 111.00 93.77 L 111.00 104.46 C 109.43 106.72 107.76 108.92 105.96 111.00 L 92.29 111.00 C 93.48 108.37 93.85 105.17 96.20 103.23 C 99.40 100.33 102.83 97.60 105.37 94.06 C 101.25 96.57 97.85 100.02 94.38 103.32 C 91.96 98.40 88.25 94.33 85.23 89.82 C 85.04 82.65 87.01 75.56 88.99 68.71 C 89.35 68.62 90.07 68.44 90.43 68.36 C 92.10 66.07 93.35 63.26 96.03 61.95 Z" />
<path fill="#ff6978" opacity="1.00" d=" M 42.42 60.71 C 45.47 60.14 48.60 60.30 51.69 60.35 C 47.25 63.66 41.87 65.79 36.35 66.25 C 37.56 63.69 39.99 62.00 42.42 60.71 Z" />
<path fill="#d29b71" opacity="1.00" d=" M 70.64 68.11 C 76.29 66.30 80.24 61.34 86.06 59.86 C 83.81 67.15 80.83 74.36 75.87 80.26 C 73.24 81.75 70.82 83.57 68.38 85.34 C 64.74 88.02 60.47 89.63 56.63 91.97 C 63.51 90.57 69.34 84.69 76.79 86.51 C 78.50 89.99 78.06 94.06 78.35 97.83 C 77.96 98.32 77.19 99.31 76.80 99.81 C 75.69 100.23 74.57 100.60 73.43 100.92 C 72.33 100.87 71.23 100.81 70.13 100.73 C 67.01 100.39 63.85 100.23 60.75 100.83 C 56.23 101.64 51.59 101.33 47.07 102.15 C 45.25 99.27 44.67 95.87 44.23 92.56 C 46.48 91.67 48.77 90.88 51.13 90.37 C 51.39 87.24 52.86 84.36 55.32 82.39 C 60.21 78.28 64.69 73.72 69.18 69.19 C 69.55 68.92 70.28 68.38 70.64 68.11 Z" />
<path fill="#b8735a" opacity="1.00" d=" M 47.78 64.67 C 49.85 63.51 51.81 62.14 53.33 60.31 C 56.79 60.66 60.03 61.93 63.10 63.49 C 61.26 64.50 59.42 65.53 57.65 66.68 C 57.62 68.72 58.62 71.26 56.89 72.87 C 54.83 75.07 52.20 76.60 49.76 78.33 C 49.34 77.91 48.51 77.07 48.10 76.65 L 48.58 76.17 C 51.12 73.95 52.82 71.01 53.96 67.87 C 51.90 66.80 49.84 65.73 47.78 64.67 Z" />
<path fill="#d9a878" opacity="1.00" d=" M 32.19 68.05 C 33.74 65.61 34.93 62.80 37.38 61.09 C 36.68 62.87 35.89 64.61 35.07 66.34 C 38.99 69.19 43.77 65.79 47.78 64.67 C 49.84 65.73 51.90 66.80 53.96 67.87 C 52.82 71.01 51.12 73.95 48.58 76.17 C 42.74 74.31 37.35 71.32 32.19 68.05 Z" />
<path fill="#7b2532" opacity="1.00" d=" M 32.56 63.29 C 32.97 63.73 32.97 63.73 32.56 63.29 Z" />
<path fill="#b66f58" opacity="1.00" d=" M 59.38 67.11 C 61.33 66.22 63.28 65.34 65.23 64.47 C 65.96 66.26 66.67 68.06 67.37 69.86 C 67.83 69.69 68.73 69.35 69.18 69.19 C 64.69 73.72 60.21 78.28 55.32 82.39 C 52.86 84.36 51.39 87.24 51.13 90.37 C 48.77 90.88 46.48 91.67 44.23 92.56 C 43.48 87.01 43.28 81.42 43.26 75.83 C 45.64 76.67 47.67 78.14 49.17 80.17 C 52.46 78.27 55.97 76.45 58.38 73.43 C 59.89 71.67 59.21 69.21 59.38 67.11 Z" />
<path fill="#000000" opacity="1.00" d=" M 87.37 68.74 C 87.78 68.73 88.58 68.72 88.99 68.71 C 87.01 75.56 85.04 82.65 85.23 89.82 C 88.25 94.33 91.96 98.40 94.38 103.32 C 97.85 100.02 101.25 96.57 105.37 94.06 C 102.83 97.60 99.40 100.33 96.20 103.23 C 93.85 105.17 93.48 108.37 92.29 111.00 L 90.34 111.00 C 91.34 108.81 92.20 106.57 93.06 104.33 C 91.42 101.81 89.86 99.24 88.12 96.79 C 86.27 94.13 83.46 91.87 83.07 88.46 C 83.58 84.29 84.28 80.15 85.14 76.04 C 85.69 73.55 86.50 71.13 87.37 68.74 Z" />
<path fill="#578fa4" opacity="1.00" d=" M 28.05 77.17 C 30.02 74.91 32.80 73.59 35.21 71.87 C 36.91 72.76 38.58 73.70 40.22 74.69 C 37.00 82.45 32.89 89.78 28.73 97.07 C 26.29 96.13 23.87 95.16 21.41 94.27 C 21.09 92.33 20.13 90.14 21.40 88.34 C 22.56 86.41 24.90 85.90 26.89 85.26 C 26.88 82.56 26.27 79.48 28.05 77.17 Z" />
<path fill="#a9594b" opacity="1.00" d=" M 82.16 75.53 C 83.15 75.70 84.15 75.87 85.14 76.04 C 84.28 80.15 83.58 84.29 83.07 88.46 C 82.53 87.76 81.99 87.06 81.45 86.37 C 81.94 90.48 80.86 94.53 78.35 97.83 C 78.06 94.06 78.50 89.99 76.79 86.51 C 69.34 84.69 63.51 90.57 56.63 91.97 C 60.47 89.63 64.74 88.02 68.38 85.34 C 70.82 83.57 73.24 81.75 75.87 80.26 C 78.29 79.14 80.38 77.50 82.16 75.53 Z" />
<path fill="#c97d62" opacity="1.00" d=" M 38.07 83.83 C 39.22 81.43 40.26 78.97 41.36 76.55 C 41.51 79.62 41.59 82.69 41.66 85.76 C 41.58 87.31 41.43 88.86 41.28 90.40 C 40.29 88.18 39.17 86.01 38.07 83.83 Z" />
<path fill="#d39e71" opacity="1.00" d=" M 38.07 83.83 C 39.17 86.01 40.29 88.18 41.28 90.40 L 41.22 91.11 C 40.30 92.24 39.34 93.33 38.38 94.43 C 38.32 96.52 38.29 98.61 38.16 100.70 C 37.36 102.57 36.46 104.40 35.60 106.24 C 39.14 105.73 42.65 105.00 46.11 104.10 C 48.33 106.49 50.62 108.83 53.07 111.00 L 32.65 111.00 C 30.60 109.29 28.61 107.51 26.53 105.84 C 29.47 98.05 34.55 91.34 38.07 83.83 Z" />
<path fill="#a74f4d" opacity="1.00" d=" M 41.28 90.40 C 41.43 88.86 41.58 87.31 41.66 85.76 C 41.98 89.20 42.36 92.64 42.85 96.07 C 40.93 98.10 39.33 100.40 38.04 102.87 C 38.07 102.33 38.13 101.24 38.16 100.70 C 38.29 98.61 38.32 96.52 38.38 94.43 C 39.34 93.33 40.30 92.24 41.22 91.11 L 41.28 90.40 Z" />
<path fill="#932f3b" opacity="1.00" d=" M 81.45 86.37 C 81.99 87.06 82.53 87.76 83.07 88.46 C 83.46 91.87 86.27 94.13 88.12 96.79 C 86.77 99.44 86.13 102.86 83.64 104.68 C 80.30 105.86 78.59 101.83 76.80 99.81 C 77.19 99.31 77.96 98.32 78.35 97.83 C 80.86 94.53 81.94 90.48 81.45 86.37 Z" />
<path fill="#ffffcc" opacity="1.00" d=" M 0.00 88.98 C 6.78 90.17 13.02 93.27 19.53 95.40 C 17.39 95.61 15.15 95.78 13.13 94.88 C 8.73 93.13 4.35 91.32 0.00 89.45 L 0.00 88.98 Z" />
<path fill="#907779" opacity="1.00" d=" M 0.00 89.45 C 4.35 91.32 8.73 93.13 13.13 94.88 C 15.15 95.78 17.39 95.61 19.53 95.40 C 22.33 96.39 25.11 97.46 27.86 98.57 C 27.07 100.03 26.24 101.49 25.55 103.00 C 18.62 102.66 12.22 99.64 5.33 99.11 C 3.54 96.24 1.62 93.45 0.00 90.48 L 0.00 89.45 Z" />
<path fill="#000000" opacity="1.00" d=" M 0.00 90.48 C 1.62 93.45 3.54 96.24 5.33 99.11 C 6.98 101.85 8.72 104.53 10.59 107.12 C 14.40 108.14 18.06 109.58 21.73 111.00 L 15.95 111.00 C 10.70 109.21 5.40 107.57 0.00 106.31 L 0.00 104.85 C 2.78 105.66 5.61 106.30 8.43 106.93 C 7.89 106.12 7.34 105.31 6.80 104.51 C 4.43 101.07 2.09 97.62 0.00 94.00 L 0.00 90.48 Z" />
<path fill="#b9755a" opacity="1.00" d=" M 111.00 93.77 C 108.72 95.32 108.68 91.73 111.00 92.08 L 111.00 93.77 Z" />
<path fill="#c58765" opacity="1.00" d=" M 38.04 102.87 C 39.33 100.40 40.93 98.10 42.85 96.07 C 43.33 98.95 44.37 101.73 46.11 104.10 C 42.65 105.00 39.14 105.73 35.60 106.24 C 36.46 104.40 37.36 102.57 38.16 100.70 C 38.13 101.24 38.07 102.33 38.04 102.87 Z" />
<path fill="#8c1f35" opacity="1.00" d=" M 88.12 96.79 C 89.86 99.24 91.42 101.81 93.06 104.33 C 92.20 106.57 91.34 108.81 90.34 111.00 L 81.36 111.00 C 80.35 107.71 77.67 105.69 74.83 104.04 C 73.53 103.52 73.69 102.05 73.43 100.92 C 74.57 100.60 75.69 100.23 76.80 99.81 C 78.59 101.83 80.30 105.86 83.64 104.68 C 86.13 102.86 86.77 99.44 88.12 96.79 Z" />
<path fill="#734b51" opacity="1.00" d=" M 5.33 99.11 C 12.22 99.64 18.62 102.66 25.55 103.00 C 25.23 104.28 24.93 105.55 24.66 106.84 C 26.43 108.23 28.18 109.65 29.99 111.00 L 21.73 111.00 C 18.06 109.58 14.40 108.14 10.59 107.12 C 8.72 104.53 6.98 101.85 5.33 99.11 Z" />
<path fill="#a8564c" opacity="1.00" d=" M 60.75 100.83 C 63.85 100.23 67.01 100.39 70.13 100.73 C 68.13 100.89 66.15 101.13 64.16 101.35 C 66.85 101.84 69.52 102.39 72.18 103.02 C 70.78 104.08 69.38 105.12 67.98 106.17 C 68.95 107.80 69.91 109.43 70.98 111.00 L 56.55 111.00 C 53.06 108.44 49.75 105.57 47.07 102.15 C 51.59 101.33 56.23 101.64 60.75 100.83 Z" />
<path fill="#a04545" opacity="1.00" d=" M 64.16 101.35 C 66.15 101.13 68.13 100.89 70.13 100.73 C 71.23 100.81 72.33 100.87 73.43 100.92 C 73.69 102.05 73.53 103.52 74.83 104.04 C 77.67 105.69 80.35 107.71 81.36 111.00 L 70.98 111.00 C 69.91 109.43 68.95 107.80 67.98 106.17 C 69.38 105.12 70.78 104.08 72.18 103.02 C 69.52 102.39 66.85 101.84 64.16 101.35 Z" />
<path fill="#000000" opacity="0.60" d=" M 0.00 104.27 C 2.18 104.63 4.97 106.44 6.80 104.51 C 7.34 105.31 7.89 106.12 8.43 106.93 C 5.61 106.30 2.78 105.66 0.00 104.85 L 0.00 104.27 Z" />
<path fill="#000000" opacity="1.00" d=" M 105.96 111.00 C 107.76 108.92 109.43 106.72 111.00 104.46 L 111.00 107.98 C 109.90 108.44 108.10 109.62 109.09 111.00 L 105.96 111.00 Z" />
<path fill="#ffffcc" opacity="1.00" d=" M 0.00 106.31 C 5.40 107.57 10.70 109.21 15.95 111.00 L 6.24 111.00 C 5.30 110.89 3.43 110.67 2.49 110.55 C 1.65 109.71 0.80 108.88 0.00 108.01 L 0.00 106.31 Z" />
<path fill="#000000" opacity="1.00" d=" M 0.00 108.01 C 0.80 108.88 1.65 109.71 2.49 110.55 C 3.43 110.67 5.30 110.89 6.24 111.00 L 0.00 111.00 L 0.00 108.01 Z" />
<path fill="#907779" opacity="1.00" d=" M 109.09 111.00 C 108.10 109.62 109.90 108.44 111.00 107.98 L 111.00 111.00 L 109.09 111.00 Z" />
</svg>
