<?xml version="1.0" encoding="UTF-8" ?>
<!DOCTYPE svg PUBLIC "-//W3C//DTD SVG 1.1//EN" "http://www.w3.org/Graphics/SVG/1.1/DTD/svg11.dtd">
<svg width="111pt" height="111pt" viewBox="0 0 111 111" version="1.1" xmlns="http://www.w3.org/2000/svg">
<path fill="#000000" opacity="1.00" d=" M 82.20 10.40 C 82.62 9.31 83.75 8.77 84.62 8.09 C 87.95 16.09 85.95 25.07 84.03 33.18 C 91.34 28.90 99.14 24.44 107.88 24.51 C 107.73 30.52 104.69 35.86 102.31 41.22 C 99.85 46.73 96.46 51.86 91.90 55.85 C 85.55 61.43 78.45 66.45 70.33 69.08 C 71.14 69.88 72.00 70.65 72.77 71.49 C 70.40 72.54 67.94 73.37 65.51 74.28 C 64.22 76.77 64.22 80.67 61.14 81.70 C 60.64 83.00 59.50 83.60 58.25 83.99 C 56.29 85.51 54.47 87.22 52.34 88.48 C 50.82 87.53 49.44 86.38 48.01 85.31 C 40.53 87.60 34.94 79.91 33.38 73.52 C 23.96 72.22 15.04 67.25 9.32 59.61 C 5.98 55.10 3.08 49.89 3.10 44.12 C 5.30 44.39 7.48 44.83 9.52 45.73 C 17.89 49.31 25.65 54.17 32.96 59.57 C 31.73 46.50 33.81 31.81 43.14 21.91 C 47.88 28.57 50.21 36.83 50.94 44.91 C 51.41 44.77 52.34 44.49 52.81 44.35 C 52.98 46.21 53.16 48.08 53.32 49.94 C 54.87 49.53 56.42 49.11 57.97 48.69 C 61.61 34.47 69.20 21.29 79.54 10.89 L 80.13 10.94 C 80.52 11.12 81.30 11.47 81.69 11.65 C 76.73 15.40 73.06 20.53 69.75 25.73 C 64.38 34.29 60.28 43.74 58.47 53.72 C 58.02 55.95 57.83 58.23 57.58 60.50 C 59.80 57.38 61.81 54.12 63.92 50.92 L 64.22 50.53 C 65.53 49.84 66.01 48.84 65.66 47.52 L 66.11 47.31 C 67.60 46.89 68.21 46.00 67.94 44.65 L 67.75 44.02 C 67.27 42.78 66.71 41.57 66.23 40.33 L 66.95 39.71 C 67.61 40.97 68.27 42.23 68.93 43.50 C 69.49 42.33 70.06 41.16 70.67 40.01 L 71.05 39.39 C 72.37 38.88 73.01 37.91 72.98 36.49 C 73.42 35.70 73.87 34.92 74.31 34.13 C 74.55 33.58 75.04 32.47 75.28 31.92 C 74.67 29.39 74.09 26.86 73.82 24.27 C 74.81 26.17 75.59 28.16 76.32 30.17 C 76.70 29.41 77.08 28.65 77.47 27.89 C 78.37 26.20 79.30 24.52 80.29 22.87 C 79.92 24.68 79.54 26.49 79.14 28.29 C 79.30 29.01 79.47 29.73 79.63 30.45 C 75.42 34.03 73.27 39.22 70.59 43.90 C 74.16 40.65 78.18 37.89 81.65 34.53 C 84.42 29.14 84.58 22.80 84.73 16.85 C 84.72 14.49 84.71 11.92 83.12 9.99 L 82.72 10.38 L 82.20 10.40 M 40.82 27.41 C 39.74 29.39 38.10 31.40 38.17 33.75 C 39.20 35.35 40.30 36.89 41.54 38.32 C 41.76 34.93 41.89 31.54 41.72 28.14 L 41.84 27.90 C 42.26 28.12 43.10 28.56 43.53 28.78 C 43.36 31.59 43.16 34.39 42.87 37.19 C 43.15 37.58 43.73 38.36 44.02 38.76 C 43.66 39.19 42.94 40.05 42.58 40.48 C 42.38 43.47 42.19 46.45 42.08 49.45 C 42.34 49.05 42.87 48.25 43.14 47.85 L 43.36 47.09 L 45.17 46.36 C 45.16 47.26 45.13 49.07 45.11 49.98 C 46.66 48.69 48.21 47.40 49.76 46.11 C 49.38 43.20 48.96 40.30 48.36 37.42 C 46.95 32.65 45.22 27.97 43.05 23.49 C 42.29 24.79 41.55 26.09 40.82 27.41 M 99.83 27.27 L 99.64 27.45 C 89.17 30.87 79.72 37.31 72.00 45.10 C 70.22 46.22 68.88 47.89 67.38 49.34 C 68.02 50.60 68.67 51.86 69.34 53.11 L 69.83 52.63 C 69.73 54.17 69.84 55.74 69.52 57.26 C 68.48 54.96 68.08 52.24 66.07 50.49 C 63.29 55.30 59.89 59.76 57.52 64.82 C 57.11 66.07 56.70 67.33 56.30 68.59 C 58.92 67.27 61.46 65.80 63.86 64.12 C 66.74 62.75 69.40 60.94 72.38 59.77 L 71.60 59.28 C 72.01 59.13 72.84 58.82 73.26 58.67 C 75.79 57.14 78.26 55.53 80.69 53.87 C 80.93 50.96 80.71 47.83 82.28 45.23 C 82.27 47.49 82.38 49.75 82.40 52.01 C 82.87 51.87 83.81 51.57 84.28 51.43 C 84.79 50.88 85.81 49.80 86.33 49.25 C 86.34 49.65 86.36 50.45 86.37 50.85 C 85.24 51.89 84.09 52.91 82.94 53.93 C 85.52 54.15 88.08 54.61 90.67 54.77 C 94.01 52.17 96.65 48.71 98.60 44.97 C 100.53 42.10 101.77 38.83 103.03 35.62 C 104.98 32.56 105.72 28.92 106.65 25.45 C 104.37 26.03 102.10 26.63 99.83 27.27 M 36.87 35.39 C 34.73 42.54 33.07 50.35 34.92 57.74 L 34.84 58.77 C 34.04 60.02 34.37 60.83 35.83 61.19 C 37.34 60.51 37.62 59.56 36.65 58.35 C 38.57 57.31 39.08 54.87 39.95 53.01 C 41.21 50.32 38.49 48.12 38.06 45.56 C 39.11 46.49 40.17 47.41 41.25 48.31 C 41.11 47.71 40.83 46.49 40.68 45.89 C 41.19 42.39 41.20 38.67 38.37 36.12 C 38.22 35.89 37.93 35.43 37.78 35.21 C 37.55 35.25 37.10 35.34 36.87 35.39 M 4.30 45.25 C 5.16 50.29 7.62 54.88 10.74 58.87 C 12.78 61.61 15.36 63.86 18.06 65.93 L 18.42 65.94 C 22.76 69.32 28.06 71.04 33.39 72.10 C 33.40 71.26 33.42 69.60 33.42 68.76 C 31.02 68.36 28.58 68.46 26.21 68.99 C 27.23 68.29 28.87 66.06 26.46 66.28 C 24.42 64.92 22.08 64.17 19.71 63.61 C 19.44 63.25 18.91 62.54 18.64 62.18 C 18.06 61.54 16.90 60.26 16.31 59.61 C 18.58 60.49 20.75 61.59 22.94 62.66 C 22.51 61.91 21.67 60.42 21.25 59.68 L 21.61 59.06 C 23.57 61.52 25.12 64.59 28.39 65.51 C 28.38 65.71 28.36 66.12 28.35 66.32 C 28.50 65.53 28.80 63.96 28.95 63.17 C 30.12 65.12 31.54 66.94 33.47 68.18 C 34.04 66.43 34.60 64.67 35.16 62.91 C 32.67 61.01 30.07 59.26 27.56 57.39 C 26.55 56.84 25.53 56.07 24.50 55.73 C 18.73 51.82 12.62 48.18 5.90 46.19 C 5.50 45.96 4.70 45.48 4.30 45.25 M 49.89 48.09 C 47.69 49.55 45.63 51.21 43.64 52.95 C 43.50 52.48 43.21 51.53 43.07 51.06 C 39.54 58.24 34.13 65.53 35.37 73.95 C 35.63 78.25 38.99 81.67 42.48 83.83 C 43.95 85.16 45.73 84.64 47.25 83.71 C 48.98 84.64 50.62 85.71 52.17 86.91 C 52.87 86.25 53.56 85.58 54.27 84.92 L 54.31 84.73 C 57.32 83.50 59.94 81.46 62.04 79.01 C 63.02 77.26 63.59 75.30 64.65 73.60 C 66.20 72.25 68.27 71.76 70.08 70.87 C 69.57 70.67 68.56 70.29 68.05 70.09 C 63.50 70.89 58.84 71.15 54.39 69.64 C 55.00 67.16 56.21 64.82 56.65 62.32 C 56.19 58.51 56.61 54.68 57.38 50.94 C 55.65 51.23 53.92 51.49 52.19 51.74 C 51.96 50.07 51.65 48.42 51.31 46.77 C 50.96 47.10 50.25 47.76 49.89 48.09 M 72.93 60.51 C 74.93 61.24 76.78 62.31 78.32 63.80 C 82.27 61.54 86.05 58.96 89.40 55.86 C 86.59 55.58 83.77 55.38 80.96 55.21 C 78.32 57.04 75.66 58.83 72.93 60.51 M 57.93 69.23 C 64.88 69.86 71.72 67.55 77.70 64.15 C 75.75 63.18 73.79 62.24 71.84 61.28 C 67.24 64.00 62.41 66.31 57.93 69.23 Z" />
<path fill="#fefeff" opacity="1.00" d=" M 80.13 10.94 C 80.64 10.80 81.68 10.54 82.20 10.40 L 82.72 10.38 L 82.50 10.71 L 82.16 11.20 C 81.15 12.83 79.86 14.25 78.58 15.67 C 69.20 26.25 63.26 39.31 58.93 52.64 C 58.81 52.91 58.59 53.45 58.47 53.72 C 60.28 43.74 64.38 34.29 69.75 25.73 C 73.06 20.53 76.73 15.40 81.69 11.65 C 81.30 11.47 80.52 11.12 80.13 10.94 Z" />
<path fill="#7bcf6f" opacity="1.00" d=" M 82.72 10.38 L 83.12 9.99 C 84.71 11.92 84.72 14.49 84.73 16.85 C 83.13 18.77 81.59 20.74 80.29 22.87 C 79.30 24.52 78.37 26.20 77.47 27.89 C 76.69 26.71 75.93 25.52 75.18 24.32 C 74.84 24.31 74.16 24.29 73.82 24.27 C 74.09 26.86 74.67 29.39 75.28 31.92 C 75.04 32.47 74.55 33.58 74.31 34.13 C 73.87 34.92 73.42 35.70 72.98 36.49 C 71.59 36.95 70.95 37.92 71.05 39.39 L 70.67 40.01 L 69.62 41.56 C 69.22 40.87 68.44 39.48 68.05 38.79 C 67.77 39.02 67.23 39.48 66.95 39.71 L 66.23 40.33 C 66.71 41.57 67.27 42.78 67.75 44.02 L 67.94 44.65 C 66.67 44.99 66.05 45.88 66.11 47.31 L 65.66 47.52 C 64.38 48.08 63.91 49.08 64.22 50.53 L 63.92 50.92 C 62.27 51.53 60.59 52.06 58.93 52.64 C 63.26 39.31 69.20 26.25 78.58 15.67 C 79.86 14.25 81.15 12.83 82.16 11.20 L 82.50 10.71 L 82.72 10.38 Z" />
<path fill="#457aae" opacity="1.00" d=" M 80.29 22.87 C 81.59 20.74 83.13 18.77 84.73 16.85 C 84.58 22.80 84.42 29.14 81.65 34.53 C 78.18 37.89 74.16 40.65 70.59 43.90 C 73.27 39.22 75.42 34.03 79.63 30.45 C 79.47 29.73 79.30 29.01 79.14 28.29 C 79.54 26.49 79.92 24.68 80.29 22.87 Z" />
<path fill="#fefeff" opacity="1.00" d=" M 73.82 24.27 C 74.16 24.29 74.84 24.31 75.18 24.32 C 75.93 25.52 76.69 26.71 77.47 27.89 C 77.08 28.65 76.70 29.41 76.32 30.17 C 75.59 28.16 74.81 26.17 73.82 24.27 Z" />
<path fill="#5292a0" opacity="1.00" d=" M 40.82 27.41 C 41.55 26.09 42.29 24.79 43.05 23.49 C 45.22 27.97 46.95 32.65 48.36 37.42 C 46.36 40.46 44.20 43.50 43.36 47.09 L 43.14 47.85 C 42.87 48.25 42.34 49.05 42.08 49.45 C 42.19 46.45 42.38 43.47 42.58 40.48 C 42.94 40.05 43.66 39.19 44.02 38.76 C 43.73 38.36 43.15 37.58 42.87 37.19 C 43.16 34.39 43.36 31.59 43.53 28.78 C 43.10 28.56 42.26 28.12 41.84 27.90 C 41.58 27.78 41.08 27.53 40.82 27.41 Z" />
<path fill="#79cb73" opacity="1.00" d=" M 99.83 27.27 C 102.10 26.63 104.37 26.03 106.65 25.45 C 105.72 28.92 104.98 32.56 103.03 35.62 C 99.34 38.41 95.72 41.26 92.16 44.20 C 90.14 45.79 88.08 47.36 86.33 49.25 C 85.81 49.80 84.79 50.88 84.28 51.43 C 83.97 48.55 83.72 45.67 83.45 42.79 C 83.06 43.60 82.66 44.41 82.28 45.23 C 80.71 47.83 80.93 50.96 80.69 53.87 C 78.26 55.53 75.79 57.14 73.26 58.67 C 71.81 56.61 71.30 54.14 70.73 51.74 C 70.50 51.96 70.06 52.41 69.83 52.63 L 69.34 53.11 C 68.67 51.86 68.02 50.60 67.38 49.34 C 68.88 47.89 70.22 46.22 72.00 45.10 C 77.03 42.71 81.17 38.89 86.04 36.21 C 90.60 33.34 95.92 31.51 99.64 27.45 L 99.83 27.27 Z" />
<path fill="#fefeff" opacity="1.00" d=" M 38.17 33.75 C 38.10 31.40 39.74 29.39 40.82 27.41 C 41.08 27.53 41.58 27.78 41.84 27.90 L 41.72 28.14 C 40.85 29.92 40.00 31.70 39.16 33.50 C 39.97 35.10 40.76 36.71 41.54 38.32 C 40.30 36.89 39.20 35.35 38.17 33.75 Z" />
<path fill="#d4e3a9" opacity="1.00" d=" M 72.00 45.10 C 79.72 37.31 89.17 30.87 99.64 27.45 C 95.92 31.51 90.60 33.34 86.04 36.21 C 81.17 38.89 77.03 42.71 72.00 45.10 Z" />
<path fill="#73c17b" opacity="1.00" d=" M 39.16 33.50 C 40.00 31.70 40.85 29.92 41.72 28.14 C 41.89 31.54 41.76 34.93 41.54 38.32 C 40.76 36.71 39.97 35.10 39.16 33.50 Z" />
<path fill="#528c95" opacity="1.00" d=" M 74.31 34.13 C 74.55 33.58 75.04 32.47 75.28 31.92 C 75.04 32.47 74.55 33.58 74.31 34.13 Z" />
<path fill="#c3e1a4" opacity="1.00" d=" M 36.87 35.39 C 37.10 35.34 37.55 35.25 37.78 35.21 C 37.93 35.43 38.22 35.89 38.37 36.12 C 37.99 38.12 37.49 40.09 36.96 42.06 C 38.21 43.32 39.50 44.55 40.68 45.89 C 40.83 46.49 41.11 47.71 41.25 48.31 C 40.17 47.41 39.11 46.49 38.06 45.56 C 37.47 44.97 36.92 44.35 36.36 43.74 C 36.04 48.42 35.40 53.07 34.92 57.74 C 33.07 50.35 34.73 42.54 36.87 35.39 Z" />
<path fill="#5b9a97" opacity="1.00" d=" M 92.16 44.20 C 95.72 41.26 99.34 38.41 103.03 35.62 C 101.77 38.83 100.53 42.10 98.60 44.97 C 96.58 46.27 94.48 47.44 92.40 48.63 C 92.32 47.15 92.25 45.68 92.16 44.20 Z" />
<path fill="#78c878" opacity="1.00" d=" M 38.37 36.12 C 41.20 38.67 41.19 42.39 40.68 45.89 C 39.50 44.55 38.21 43.32 36.96 42.06 C 37.49 40.09 37.99 38.12 38.37 36.12 Z" />
<path fill="#50838d" opacity="1.00" d=" M 71.05 39.39 C 70.95 37.92 71.59 36.95 72.98 36.49 C 73.01 37.91 72.37 38.88 71.05 39.39 Z" />
<path fill="#3f74ab" opacity="1.00" d=" M 43.36 47.09 C 44.20 43.50 46.36 40.46 48.36 37.42 C 48.96 40.30 49.38 43.20 49.76 46.11 C 48.21 47.40 46.66 48.69 45.11 49.98 C 45.13 49.07 45.16 47.26 45.17 46.36 L 43.36 47.09 Z" />
<path fill="#fefeff" opacity="1.00" d=" M 66.95 39.71 C 67.23 39.48 67.77 39.02 68.05 38.79 C 68.44 39.48 69.22 40.87 69.62 41.56 L 70.67 40.01 C 70.06 41.16 69.49 42.33 68.93 43.50 C 68.27 42.23 67.61 40.97 66.95 39.71 Z" />
<path fill="#fefeff" opacity="1.00" d=" M 82.28 45.23 C 82.66 44.41 83.06 43.60 83.45 42.79 C 83.72 45.67 83.97 48.55 84.28 51.43 C 83.81 51.57 82.87 51.87 82.40 52.01 C 82.38 49.75 82.27 47.49 82.28 45.23 Z" />
<path fill="#73c17b" opacity="1.00" d=" M 36.36 43.74 C 36.92 44.35 37.47 44.97 38.06 45.56 C 38.49 48.12 41.21 50.32 39.95 53.01 C 39.08 54.87 38.57 57.31 36.65 58.35 C 36.20 58.45 35.29 58.66 34.84 58.77 L 34.92 57.74 C 35.40 53.07 36.04 48.42 36.36 43.74 Z" />
<path fill="#51868f" opacity="1.00" d=" M 66.11 47.31 C 66.05 45.88 66.67 44.99 67.94 44.65 C 68.21 46.00 67.60 46.89 66.11 47.31 Z" />
<path fill="#477ea4" opacity="1.00" d=" M 86.33 49.25 C 88.08 47.36 90.14 45.79 92.16 44.20 C 92.25 45.68 92.32 47.15 92.40 48.63 C 94.48 47.44 96.58 46.27 98.60 44.97 C 96.65 48.71 94.01 52.17 90.67 54.77 C 88.08 54.61 85.52 54.15 82.94 53.93 C 84.09 52.91 85.24 51.89 86.37 50.85 C 86.36 50.45 86.34 49.65 86.33 49.25 Z" />
<path fill="#d4dfaa" opacity="1.00" d=" M 4.30 45.25 C 4.70 45.48 5.50 45.96 5.90 46.19 C 7.04 48.67 7.78 51.42 9.61 53.50 C 11.64 55.76 14.13 57.52 16.31 59.61 C 16.90 60.26 18.06 61.54 18.64 62.18 C 16.13 60.80 13.45 59.77 10.74 58.87 C 7.62 54.88 5.16 50.29 4.30 45.25 Z" />
<path fill="#6ab284" opacity="1.00" d=" M 5.90 46.19 C 12.62 48.18 18.73 51.82 24.50 55.73 C 23.40 56.54 22.34 57.39 21.29 58.26 C 20.80 57.72 19.30 55.45 18.77 56.99 C 18.63 58.47 20.08 59.25 21.25 59.68 C 21.67 60.42 22.51 61.91 22.94 62.66 C 20.75 61.59 18.58 60.49 16.31 59.61 C 14.13 57.52 11.64 55.76 9.61 53.50 C 7.78 51.42 7.04 48.67 5.90 46.19 Z" />
<path fill="#6a79a6" opacity="1.00" d=" M 49.89 48.09 C 50.25 47.76 50.96 47.10 51.31 46.77 C 51.65 48.42 51.96 50.07 52.19 51.74 C 51.18 57.09 50.87 62.62 51.57 68.03 C 52.44 68.67 53.40 69.19 54.39 69.64 C 58.84 71.15 63.50 70.89 68.05 70.09 C 68.56 70.29 69.57 70.67 70.08 70.87 C 68.27 71.76 66.20 72.25 64.65 73.60 C 63.59 75.30 63.02 77.26 62.04 79.01 C 59.94 81.46 57.32 83.50 54.31 84.73 C 54.68 83.15 55.06 81.57 55.45 80.00 C 57.09 78.89 59.17 77.90 59.81 75.88 C 59.77 74.53 59.36 73.23 59.06 71.92 C 58.29 72.30 57.53 72.70 56.78 73.11 C 54.71 70.91 50.74 69.54 50.71 66.07 C 50.35 60.08 50.92 54.04 49.89 48.09 Z" />
<path fill="#518790" opacity="1.00" d=" M 64.22 50.53 C 63.91 49.08 64.38 48.08 65.66 47.52 C 66.01 48.84 65.53 49.84 64.22 50.53 Z" />
<path fill="#fefeff" opacity="1.00" d=" M 43.64 52.95 C 45.63 51.21 47.69 49.55 49.89 48.09 C 50.92 54.04 50.35 60.08 50.71 66.07 C 50.74 69.54 54.71 70.91 56.78 73.11 C 54.29 74.60 52.01 76.41 49.76 78.24 C 51.44 79.41 53.38 80.07 55.45 80.00 C 55.06 81.57 54.68 83.15 54.31 84.73 L 54.27 84.92 C 53.56 85.58 52.87 86.25 52.17 86.91 C 50.62 85.71 48.98 84.64 47.25 83.71 C 45.73 84.64 43.95 85.16 42.48 83.83 C 38.99 81.67 35.63 78.25 35.37 73.95 C 34.13 65.53 39.54 58.24 43.07 51.06 C 43.21 51.53 43.50 52.48 43.64 52.95 Z" />
<path fill="#bcc3d6" opacity="1.00" d=" M 52.19 51.74 C 53.92 51.49 55.65 51.23 57.38 50.94 C 56.61 54.68 56.19 58.51 56.65 62.32 C 56.21 64.82 55.00 67.16 54.39 69.64 C 53.40 69.19 52.44 68.67 51.57 68.03 C 50.87 62.62 51.18 57.09 52.19 51.74 Z" />
<path fill="#579584" opacity="1.00" d=" M 58.93 52.64 C 60.59 52.06 62.27 51.53 63.92 50.92 C 61.81 54.12 59.80 57.38 57.58 60.50 C 57.83 58.23 58.02 55.95 58.47 53.72 C 58.59 53.45 58.81 52.91 58.93 52.64 Z" />
<path fill="#6bba7b" opacity="1.00" d=" M 66.07 50.49 C 68.08 52.24 68.48 54.96 69.52 57.26 C 70.14 58.01 70.89 58.63 71.60 59.28 L 72.38 59.77 C 69.40 60.94 66.74 62.75 63.86 64.12 C 61.75 64.41 59.64 64.61 57.52 64.82 C 59.89 59.76 63.29 55.30 66.07 50.49 Z" />
<path fill="#fefeff" opacity="1.00" d=" M 69.83 52.63 C 70.06 52.41 70.50 51.96 70.73 51.74 C 71.30 54.14 71.81 56.61 73.26 58.67 C 72.84 58.82 72.01 59.13 71.60 59.28 C 70.89 58.63 70.14 58.01 69.52 57.26 C 69.84 55.74 69.73 54.17 69.83 52.63 Z" />
<path fill="#c1deab" opacity="1.00" d=" M 18.77 56.99 C 19.30 55.45 20.80 57.72 21.29 58.26 L 21.61 59.06 L 21.25 59.68 C 20.08 59.25 18.63 58.47 18.77 56.99 Z" />
<path fill="#5b9c93" opacity="1.00" d=" M 24.50 55.73 C 25.53 56.07 26.55 56.84 27.56 57.39 C 28.27 60.03 28.65 62.77 28.39 65.51 C 25.12 64.59 23.57 61.52 21.61 59.06 L 21.29 58.26 C 22.34 57.39 23.40 56.54 24.50 55.73 Z" />
<path fill="#3f75a7" opacity="1.00" d=" M 72.93 60.51 C 75.66 58.83 78.32 57.04 80.96 55.21 C 83.77 55.38 86.59 55.58 89.40 55.86 C 86.05 58.96 82.27 61.54 78.32 63.80 C 76.78 62.31 74.93 61.24 72.93 60.51 Z" />
<path fill="#366ba7" opacity="1.00" d=" M 27.56 57.39 C 30.07 59.26 32.67 61.01 35.16 62.91 C 34.60 64.67 34.04 66.43 33.47 68.18 C 31.54 66.94 30.12 65.12 28.95 63.17 C 28.80 63.96 28.50 65.53 28.35 66.32 C 28.36 66.12 28.38 65.71 28.39 65.51 C 28.65 62.77 28.27 60.03 27.56 57.39 Z" />
<path fill="#5388aa" opacity="1.00" d=" M 34.84 58.77 C 35.29 58.66 36.20 58.45 36.65 58.35 C 37.62 59.56 37.34 60.51 35.83 61.19 C 34.37 60.83 34.04 60.02 34.84 58.77 Z" />
<path fill="#539289" opacity="1.00" d=" M 10.74 58.87 C 13.45 59.77 16.13 60.80 18.64 62.18 C 18.91 62.54 19.44 63.25 19.71 63.61 C 22.08 64.17 24.42 64.92 26.46 66.28 C 23.79 66.06 21.10 66.01 18.42 65.94 L 18.06 65.93 C 15.36 63.86 12.78 61.61 10.74 58.87 Z" />
<path fill="#3369a6" opacity="1.00" d=" M 57.93 69.23 C 62.41 66.31 67.24 64.00 71.84 61.28 C 73.79 62.24 75.75 63.18 77.70 64.15 C 71.72 67.55 64.88 69.86 57.93 69.23 Z" />
<path fill="#386f9a" opacity="1.00" d=" M 57.52 64.82 C 59.64 64.61 61.75 64.41 63.86 64.12 C 61.46 65.80 58.92 67.27 56.30 68.59 C 56.70 67.33 57.11 66.07 57.52 64.82 Z" />
<path fill="#3f74ab" opacity="1.00" d=" M 18.42 65.94 C 21.10 66.01 23.79 66.06 26.46 66.28 C 28.87 66.06 27.23 68.29 26.21 68.99 C 28.58 68.46 31.02 68.36 33.42 68.76 C 33.42 69.60 33.40 71.26 33.39 72.10 C 28.06 71.04 22.76 69.32 18.42 65.94 Z" />
<path fill="#000000" opacity="1.00" d=" M 56.78 73.11 C 57.53 72.70 58.29 72.30 59.06 71.92 C 59.36 73.23 59.77 74.53 59.81 75.88 C 59.17 77.90 57.09 78.89 55.45 80.00 C 53.38 80.07 51.44 79.41 49.76 78.24 C 52.01 76.41 54.29 74.60 56.78 73.11 M 51.11 78.33 C 54.43 79.87 59.62 77.51 58.57 73.37 C 56.01 74.91 53.54 76.59 51.11 78.33 Z" />
<path fill="#56d2ce" opacity="1.00" d=" M 51.11 78.33 C 53.54 76.59 56.01 74.91 58.57 73.37 C 59.62 77.51 54.43 79.87 51.11 78.33 Z" />
</svg>
