<?xml version="1.0" encoding="UTF-8" ?>
<!DOCTYPE svg PUBLIC "-//W3C//DTD SVG 1.1//EN" "http://www.w3.org/Graphics/SVG/1.1/DTD/svg11.dtd">
<svg width="111pt" height="111pt" viewBox="0 0 111 111" version="1.1" xmlns="http://www.w3.org/2000/svg">
<path fill="#000000" opacity="1.00" d=" M 22.08 0.00 L 24.73 0.00 C 25.73 3.36 26.49 6.79 27.56 10.14 C 28.76 13.93 30.16 17.66 31.65 21.35 C 35.04 29.46 38.73 37.63 44.54 44.34 C 46.62 38.78 46.78 32.78 47.64 26.97 C 48.87 18.04 49.05 9.00 48.83 0.00 L 51.40 0.00 C 52.10 13.43 50.37 26.79 48.41 40.04 C 52.88 36.34 56.82 32.04 61.07 28.10 C 72.01 17.95 83.51 8.36 95.88 0.00 L 100.60 0.00 C 89.85 6.92 79.67 14.74 70.24 23.37 C 69.77 23.75 69.31 24.11 68.84 24.48 C 62.19 29.94 55.18 35.32 50.01 42.27 C 59.51 40.42 68.89 37.48 77.23 32.49 C 80.72 30.49 84.12 28.34 87.44 26.07 C 92.11 22.92 96.62 19.54 100.82 15.79 C 104.36 12.65 107.84 9.44 111.00 5.92 L 111.00 9.45 C 97.31 23.60 80.66 35.09 62.26 42.19 C 63.02 45.12 63.35 48.13 63.17 51.15 C 64.31 51.49 65.45 51.82 66.59 52.15 C 68.11 51.40 69.74 49.51 71.55 50.65 C 78.14 53.90 83.03 60.80 90.98 60.84 C 88.85 63.91 86.59 66.89 84.44 69.95 C 85.60 70.96 86.75 71.98 87.91 73.00 C 82.97 76.98 77.66 80.66 73.72 85.70 C 77.10 84.24 80.02 81.96 83.19 80.14 C 85.99 80.66 87.51 83.55 89.34 85.49 C 94.67 92.75 100.75 100.07 102.53 109.16 C 95.24 103.29 90.31 94.90 82.40 89.76 C 80.98 90.26 79.56 90.75 78.14 91.23 C 79.68 94.02 82.20 96.58 82.60 99.82 C 81.16 102.78 78.98 105.30 77.09 107.98 C 77.99 109.00 78.90 110.01 79.83 111.00 L 77.36 111.00 C 75.57 108.45 73.96 105.76 71.91 103.41 C 70.41 102.03 68.76 100.83 67.09 99.68 C 67.56 96.89 68.43 94.19 69.65 91.63 C 68.66 90.52 67.67 89.40 66.69 88.28 C 65.03 84.99 65.27 81.33 66.34 77.90 C 66.86 75.24 66.97 72.52 67.29 69.83 C 67.87 67.90 68.69 66.05 69.44 64.19 C 69.52 63.98 69.67 63.56 69.74 63.35 C 68.60 61.67 67.38 60.04 66.26 58.34 C 69.58 59.19 71.74 61.80 73.42 64.61 C 74.12 64.78 75.53 65.11 76.23 65.28 C 78.02 65.80 79.69 66.64 81.34 67.49 C 80.42 68.97 79.51 70.46 78.54 71.91 C 76.69 74.02 74.41 75.73 72.66 77.94 C 70.95 80.06 70.44 82.82 69.74 85.37 C 68.88 84.30 68.01 83.24 67.13 82.19 C 67.72 84.14 68.34 86.10 69.27 87.92 C 71.53 90.22 74.13 92.25 75.83 95.03 C 77.43 97.55 77.53 100.62 77.97 103.49 C 78.88 102.15 79.84 100.83 80.62 99.40 C 78.83 95.13 75.54 91.67 73.49 87.51 C 72.61 87.54 70.84 87.60 69.95 87.63 L 70.50 86.09 C 73.50 81.24 78.20 77.82 82.57 74.29 C 82.99 73.97 83.82 73.33 84.23 73.00 C 83.66 72.50 82.53 71.50 81.96 71.01 C 82.98 68.22 84.41 65.61 86.24 63.27 C 85.89 63.06 85.19 62.63 84.83 62.41 C 80.14 59.63 75.97 56.07 71.36 53.16 C 71.10 53.00 70.59 52.67 70.33 52.51 C 68.14 53.28 65.86 53.94 63.52 53.88 C 62.53 53.47 61.56 53.04 60.59 52.60 C 60.66 49.28 60.50 45.95 60.03 42.66 C 59.71 43.61 59.07 45.49 58.75 46.43 C 58.57 46.25 58.23 45.88 58.06 45.70 C 56.13 47.30 54.44 49.18 53.26 51.41 C 55.15 50.66 57.23 49.85 58.18 47.89 C 58.32 47.65 58.60 47.15 58.74 46.91 C 59.90 50.19 56.37 51.45 54.09 52.60 C 53.48 52.26 52.27 51.58 51.67 51.24 C 52.35 50.16 53.04 49.09 53.72 48.01 C 53.73 47.17 53.76 45.50 53.78 44.67 C 51.66 44.72 49.54 44.76 47.42 44.77 C 45.76 48.18 46.59 52.10 49.27 54.73 C 51.98 55.94 54.68 54.76 57.22 53.73 C 57.54 53.74 58.18 53.76 58.50 53.76 C 58.22 54.44 57.67 55.81 57.39 56.49 C 56.38 56.76 55.36 57.02 54.34 57.27 C 52.74 57.50 51.13 57.67 49.53 57.93 C 48.79 58.22 48.07 58.54 47.35 58.87 C 46.49 59.27 44.77 60.06 43.91 60.45 C 45.46 62.58 47.05 64.68 48.51 66.87 C 49.80 69.41 48.80 72.02 46.29 73.23 C 42.90 74.83 39.44 76.29 36.02 77.83 C 37.41 79.28 38.77 80.75 40.16 82.19 C 40.36 82.39 40.76 82.77 40.96 82.97 C 44.59 80.75 48.98 78.95 51.07 75.01 C 51.94 73.48 52.68 71.88 53.44 70.30 C 52.13 68.90 50.83 67.48 49.58 66.03 C 50.07 66.01 51.05 65.98 51.53 65.96 C 52.37 66.60 53.20 67.23 54.01 67.89 C 54.44 68.27 55.28 69.02 55.70 69.39 C 55.67 69.81 55.60 70.65 55.57 71.07 C 54.33 73.91 53.18 76.85 51.33 79.36 C 49.64 81.07 47.32 81.97 45.29 83.20 C 44.42 83.65 43.53 84.07 42.65 84.49 C 41.40 85.06 40.14 85.60 38.88 86.14 C 41.52 90.27 44.54 94.15 47.63 97.95 C 49.36 100.05 51.23 102.42 50.39 105.31 C 48.80 103.47 47.30 101.54 45.78 99.64 C 44.53 103.36 43.80 107.22 42.74 111.00 L 40.43 111.00 C 41.69 106.59 42.38 101.96 44.61 97.89 C 43.82 96.84 43.03 95.80 42.25 94.74 C 42.28 96.74 42.70 98.82 41.90 100.72 C 38.94 101.14 36.14 99.80 33.32 99.14 C 33.44 103.17 34.15 107.15 35.34 111.00 L 31.89 111.00 C 28.30 105.19 26.75 98.31 27.11 91.51 C 30.11 91.02 33.01 91.87 35.74 93.04 C 35.22 90.35 34.75 87.65 34.38 84.93 C 32.51 84.26 30.64 83.60 28.76 82.95 C 26.65 89.60 26.58 96.92 22.97 103.06 C 20.81 107.26 16.19 109.15 12.12 111.00 L 0.49 111.00 C 0.97 110.66 1.92 109.99 2.40 109.65 C 7.76 108.93 11.79 105.09 15.33 101.32 C 18.53 97.84 21.14 93.67 22.06 88.98 C 22.97 84.94 22.49 80.69 23.72 76.72 C 26.40 73.81 30.58 77.44 33.78 76.13 C 38.26 74.26 42.66 72.16 47.02 70.02 C 45.36 66.60 42.67 63.81 41.12 60.35 C 43.28 58.91 45.74 58.07 48.16 57.20 C 45.43 55.24 43.86 52.33 43.16 49.11 C 35.31 47.59 28.23 43.60 21.49 39.46 C 16.48 36.15 11.14 32.55 8.51 26.95 C 8.88 26.55 9.61 25.76 9.98 25.36 C 19.20 27.59 27.71 32.12 36.05 36.54 C 29.87 25.01 25.21 12.70 22.08 0.00 M 11.77 28.06 C 13.18 30.16 15.13 31.77 17.04 33.38 C 20.62 36.24 24.52 38.68 28.56 40.85 C 33.48 43.49 38.60 45.98 44.13 47.03 C 42.01 44.77 40.16 42.24 37.88 40.14 C 34.56 37.79 30.76 36.27 27.21 34.32 C 25.53 33.62 23.86 32.92 22.19 32.21 C 18.84 30.53 15.37 29.09 11.77 28.06 M 70.75 66.09 C 69.30 70.26 68.73 74.67 68.81 79.08 C 71.52 74.97 76.18 72.53 78.24 67.98 C 75.72 67.44 73.22 66.81 70.75 66.09 M 25.58 78.05 C 25.25 84.66 24.86 91.63 21.31 97.42 C 18.50 102.40 13.92 105.91 9.82 109.74 C 13.51 108.50 17.57 107.33 20.27 104.36 C 23.20 99.74 24.28 94.24 25.21 88.93 C 25.64 86.22 26.06 83.30 27.94 81.16 C 31.63 80.87 34.91 82.91 38.04 84.57 C 37.89 84.15 37.58 83.32 37.43 82.90 C 33.98 80.25 30.18 77.67 25.58 78.05 M 75.00 87.53 C 76.42 88.16 77.84 88.79 79.25 89.44 C 80.16 88.82 81.07 88.20 81.98 87.58 C 88.77 90.54 92.53 97.23 97.99 101.85 C 93.82 94.91 89.22 88.10 83.46 82.38 C 80.88 84.48 77.95 86.05 75.00 87.53 M 36.48 87.03 C 37.08 89.40 37.96 91.69 38.35 94.10 C 37.83 94.46 36.77 95.18 36.24 95.54 C 33.80 94.40 31.26 93.42 28.59 93.01 C 29.02 97.56 29.68 102.16 31.52 106.38 C 31.71 103.63 30.82 100.65 31.92 98.05 C 34.36 95.73 37.82 98.57 40.65 98.80 C 39.27 94.90 39.20 90.33 36.48 87.03 M 69.17 98.23 C 71.45 100.37 73.57 102.67 75.60 105.04 C 75.78 100.66 74.71 96.26 71.78 92.89 C 70.83 94.63 69.96 96.42 69.17 98.23 Z" />
<path fill="#6ab480" opacity="1.00" d=" M 24.73 0.00 L 48.60 0.00 C 48.60 3.56 48.54 7.12 48.40 10.68 C 45.89 12.79 43.64 16.09 39.98 15.92 C 34.95 16.59 32.37 11.49 29.40 8.41 C 28.94 8.84 28.02 9.70 27.56 10.14 C 26.49 6.79 25.73 3.36 24.73 0.00 Z" />
<path fill="#3a72a3" opacity="1.00" d=" M 48.60 0.00 L 48.83 0.00 C 49.05 9.00 48.87 18.04 47.64 26.97 C 46.78 32.78 46.62 38.78 44.54 44.34 C 38.73 37.63 35.04 29.46 31.65 21.35 C 36.33 21.88 41.41 22.10 45.65 19.70 C 48.60 17.74 48.05 13.74 48.40 10.68 C 48.54 7.12 48.60 3.56 48.60 0.00 Z" />
<path fill="#e6ecb5" opacity="1.00" d=" M 100.60 0.00 L 105.41 0.00 C 103.74 1.08 102.15 2.28 100.53 3.42 C 92.93 8.78 85.02 13.73 77.88 19.71 C 75.68 21.53 73.36 23.84 70.24 23.37 C 79.67 14.74 89.85 6.92 100.60 0.00 Z" />
<path fill="#72c178" opacity="1.00" d=" M 105.41 0.00 L 111.00 0.00 L 111.00 5.92 C 107.84 9.44 104.36 12.65 100.82 15.79 C 100.93 14.70 101.05 13.62 101.16 12.54 C 99.95 11.54 97.72 11.03 97.85 9.08 C 98.61 7.13 99.63 5.31 100.53 3.42 C 102.15 2.28 103.74 1.08 105.41 0.00 Z" />
<path fill="#65ae82" opacity="1.00" d=" M 77.88 19.71 C 85.02 13.73 92.93 8.78 100.53 3.42 C 99.63 5.31 98.61 7.13 97.85 9.08 C 97.72 11.03 99.95 11.54 101.16 12.54 C 101.05 13.62 100.93 14.70 100.82 15.79 C 96.62 19.54 92.11 22.92 87.44 26.07 C 84.77 25.30 81.94 24.87 79.49 23.53 C 78.81 22.32 78.37 21.00 77.88 19.71 Z" />
<path fill="#549790" opacity="1.00" d=" M 29.40 8.41 C 32.37 11.49 34.95 16.59 39.98 15.92 C 43.64 16.09 45.89 12.79 48.40 10.68 C 48.05 13.74 48.60 17.74 45.65 19.70 C 41.41 22.10 36.33 21.88 31.65 21.35 C 30.16 17.66 28.76 13.93 27.56 10.14 C 28.02 9.70 28.94 8.84 29.40 8.41 Z" />
<path fill="#559692" opacity="1.00" d=" M 70.24 23.37 C 73.36 23.84 75.68 21.53 77.88 19.71 C 78.37 21.00 78.81 22.32 79.49 23.53 C 81.94 24.87 84.77 25.30 87.44 26.07 C 84.12 28.34 80.72 30.49 77.23 32.49 C 75.27 31.91 72.96 31.94 71.29 30.67 C 70.11 28.77 69.60 26.56 68.84 24.48 C 69.31 24.11 69.77 23.75 70.24 23.37 Z" />
<path fill="#3b72a8" opacity="1.00" d=" M 50.01 42.27 C 55.18 35.32 62.19 29.94 68.84 24.48 C 69.60 26.56 70.11 28.77 71.29 30.67 C 72.96 31.94 75.27 31.91 77.23 32.49 C 68.89 37.48 59.51 40.42 50.01 42.27 Z" />
<path fill="#c9d2a3" opacity="1.00" d=" M 11.77 28.06 C 15.37 29.09 18.84 30.53 22.19 32.21 C 20.46 32.58 18.75 32.97 17.04 33.38 C 15.13 31.77 13.18 30.16 11.77 28.06 Z" />
<path fill="#61a391" opacity="1.00" d=" M 22.19 32.21 C 23.86 32.92 25.53 33.62 27.21 34.32 C 28.06 36.40 28.57 38.60 28.56 40.85 C 24.52 38.68 20.62 36.24 17.04 33.38 C 18.75 32.97 20.46 32.58 22.19 32.21 Z" />
<path fill="#356ba7" opacity="1.00" d=" M 27.21 34.32 C 30.76 36.27 34.56 37.79 37.88 40.14 C 40.16 42.24 42.01 44.77 44.13 47.03 C 38.60 45.98 33.48 43.49 28.56 40.85 C 28.57 38.60 28.06 36.40 27.21 34.32 Z" />
<path fill="#ae504b" opacity="1.00" d=" M 60.03 42.66 C 60.50 45.95 60.66 49.28 60.59 52.60 C 61.56 53.04 62.53 53.47 63.52 53.88 C 61.84 53.89 60.17 53.84 58.50 53.76 C 58.18 53.76 57.54 53.74 57.22 53.73 C 54.68 54.76 51.98 55.94 49.27 54.73 C 50.08 53.57 50.90 52.42 51.67 51.24 C 52.27 51.58 53.48 52.26 54.09 52.60 C 56.37 51.45 59.90 50.19 58.74 46.91 L 58.75 46.43 C 59.07 45.49 59.71 43.61 60.03 42.66 Z" />
<path fill="#dbaa78" opacity="1.00" d=" M 49.27 54.73 C 46.59 52.10 45.76 48.18 47.42 44.77 C 49.54 44.76 51.66 44.72 53.78 44.67 C 53.76 45.50 53.73 47.17 53.72 48.01 C 53.04 49.09 52.35 50.16 51.67 51.24 C 50.90 52.42 50.08 53.57 49.27 54.73 Z" />
<path fill="#41a29e" opacity="1.00" d=" M 58.06 45.70 C 58.23 45.88 58.57 46.25 58.75 46.43 L 58.74 46.91 C 58.60 47.15 58.32 47.65 58.18 47.89 C 57.23 49.85 55.15 50.66 53.26 51.41 C 54.44 49.18 56.13 47.30 58.06 45.70 Z" />
<path fill="#af6452" opacity="1.00" d=" M 63.52 53.88 C 65.86 53.94 68.14 53.28 70.33 52.51 C 70.59 52.67 71.10 53.00 71.36 53.16 C 70.27 57.06 72.59 60.32 75.02 63.09 C 75.32 63.64 75.93 64.73 76.23 65.28 C 75.53 65.11 74.12 64.78 73.42 64.61 C 71.74 61.80 69.58 59.19 66.26 58.34 C 67.38 60.04 68.60 61.67 69.74 63.35 C 69.67 63.56 69.52 63.98 69.44 64.19 C 67.95 63.26 66.47 62.33 64.98 61.41 C 65.28 60.10 65.54 58.78 65.80 57.47 C 65.31 57.18 64.34 56.62 63.86 56.34 C 61.91 57.50 60.04 58.88 57.83 59.51 C 56.33 59.70 55.50 57.89 54.34 57.27 C 55.36 57.02 56.38 56.76 57.39 56.49 C 57.67 55.81 58.22 54.44 58.50 53.76 C 60.17 53.84 61.84 53.89 63.52 53.88 Z" />
<path fill="#ce966e" opacity="1.00" d=" M 75.02 63.09 C 72.59 60.32 70.27 57.06 71.36 53.16 C 75.97 56.07 80.14 59.63 84.83 62.41 C 81.81 64.19 78.26 64.44 75.02 63.09 Z" />
<path fill="#d29d71" opacity="1.00" d=" M 57.83 59.51 C 60.04 58.88 61.91 57.50 63.86 56.34 C 64.34 56.62 65.31 57.18 65.80 57.47 C 65.54 58.78 65.28 60.10 64.98 61.41 C 64.78 62.13 64.40 63.56 64.21 64.28 C 60.76 65.34 57.34 66.50 54.01 67.89 C 53.20 67.23 52.37 66.60 51.53 65.96 C 50.56 63.37 50.04 60.64 49.53 57.93 C 51.13 57.67 52.74 57.50 54.34 57.27 C 55.50 57.89 56.33 59.70 57.83 59.51 Z" />
<path fill="#b36451" opacity="1.00" d=" M 47.35 58.87 C 48.07 58.54 48.79 58.22 49.53 57.93 C 50.04 60.64 50.56 63.37 51.53 65.96 C 51.05 65.98 50.07 66.01 49.58 66.03 C 50.83 67.48 52.13 68.90 53.44 70.30 C 52.68 71.88 51.94 73.48 51.07 75.01 C 48.98 78.95 44.59 80.75 40.96 82.97 C 40.76 82.77 40.36 82.39 40.16 82.19 C 42.37 80.30 44.61 78.44 46.89 76.63 C 46.69 75.49 46.49 74.36 46.29 73.23 C 48.80 72.02 49.80 69.41 48.51 66.87 C 49.94 64.13 48.64 61.35 47.35 58.87 Z" />
<path fill="#dcab79" opacity="1.00" d=" M 43.91 60.45 C 44.77 60.06 46.49 59.27 47.35 58.87 C 48.64 61.35 49.94 64.13 48.51 66.87 C 47.05 64.68 45.46 62.58 43.91 60.45 Z" />
<path fill="#9b4242" opacity="1.00" d=" M 64.98 61.41 C 66.47 62.33 67.95 63.26 69.44 64.19 C 68.69 66.05 67.87 67.90 67.29 69.83 C 66.09 70.22 64.89 70.63 63.67 70.98 C 62.62 70.51 61.56 70.04 60.51 69.57 C 61.97 67.98 63.41 66.32 64.21 64.28 C 64.40 63.56 64.78 62.13 64.98 61.41 Z" />
<path fill="#b86e56" opacity="1.00" d=" M 84.83 62.41 C 85.19 62.63 85.89 63.06 86.24 63.27 C 84.41 65.61 82.98 68.22 81.96 71.01 C 82.53 71.50 83.66 72.50 84.23 73.00 C 83.82 73.33 82.99 73.97 82.57 74.29 C 81.23 73.49 79.88 72.70 78.54 71.91 C 79.51 70.46 80.42 68.97 81.34 67.49 C 79.69 66.64 78.02 65.80 76.23 65.28 C 75.93 64.73 75.32 63.64 75.02 63.09 C 78.26 64.44 81.81 64.19 84.83 62.41 Z" />
<path fill="#b06454" opacity="1.00" d=" M 54.01 67.89 C 57.34 66.50 60.76 65.34 64.21 64.28 C 63.41 66.32 61.97 67.98 60.51 69.57 C 61.56 70.04 62.62 70.51 63.67 70.98 C 63.33 71.07 62.65 71.23 62.31 71.31 C 60.06 71.34 57.81 71.19 55.57 71.07 C 55.60 70.65 55.67 69.81 55.70 69.39 C 55.28 69.02 54.44 68.27 54.01 67.89 Z" />
<path fill="#a55549" opacity="1.00" d=" M 63.67 70.98 C 64.89 70.63 66.09 70.22 67.29 69.83 C 66.97 72.52 66.86 75.24 66.34 77.90 C 64.07 79.03 61.89 80.36 59.90 81.94 C 60.65 78.39 61.45 74.84 62.31 71.31 C 62.65 71.23 63.33 71.07 63.67 70.98 Z" />
<path fill="#d6a375" opacity="1.00" d=" M 55.57 71.07 C 57.81 71.19 60.06 71.34 62.31 71.31 C 61.45 74.84 60.65 78.39 59.90 81.94 C 58.96 82.67 58.03 83.40 57.10 84.13 C 53.15 85.02 48.71 86.06 45.29 83.20 C 47.32 81.97 49.64 81.07 51.33 79.36 C 53.18 76.85 54.33 73.91 55.57 71.07 Z" />
<path fill="#cd976d" opacity="1.00" d=" M 78.54 71.91 C 79.88 72.70 81.23 73.49 82.57 74.29 C 78.20 77.82 73.50 81.24 70.50 86.09 C 70.19 86.55 69.58 87.46 69.27 87.92 C 68.34 86.10 67.72 84.14 67.13 82.19 C 68.01 83.24 68.88 84.30 69.74 85.37 C 70.44 82.82 70.95 80.06 72.66 77.94 C 74.41 75.73 76.69 74.02 78.54 71.91 Z" />
<path fill="#d0986f" opacity="1.00" d=" M 36.02 77.83 C 39.44 76.29 42.90 74.83 46.29 73.23 C 46.49 74.36 46.69 75.49 46.89 76.63 C 44.61 78.44 42.37 80.30 40.16 82.19 C 38.77 80.75 37.41 79.28 36.02 77.83 Z" />
<path fill="#f3bd86" opacity="1.00" d=" M 25.58 78.05 C 30.18 77.67 33.98 80.25 37.43 82.90 C 37.58 83.32 37.89 84.15 38.04 84.57 C 34.91 82.91 31.63 80.87 27.94 81.16 C 26.06 83.30 25.64 86.22 25.21 88.93 C 24.28 94.24 23.20 99.74 20.27 104.36 C 17.57 107.33 13.51 108.50 9.82 109.74 C 13.92 105.91 18.50 102.40 21.31 97.42 C 24.86 91.63 25.25 84.66 25.58 78.05 Z" />
<path fill="#99383f" opacity="1.00" d=" M 59.90 81.94 C 61.89 80.36 64.07 79.03 66.34 77.90 C 65.27 81.33 65.03 84.99 66.69 88.28 C 64.97 88.51 63.26 88.89 61.65 89.52 C 59.72 88.21 57.43 86.45 55.09 88.00 C 55.77 86.72 56.39 85.40 57.10 84.13 C 58.03 83.40 58.96 82.67 59.90 81.94 Z" />
<path fill="#bb785b" opacity="1.00" d=" M 42.65 84.49 C 43.53 84.07 44.42 83.65 45.29 83.20 C 48.71 86.06 53.15 85.02 57.10 84.13 C 56.39 85.40 55.77 86.72 55.09 88.00 C 53.95 89.59 52.70 91.11 51.39 92.57 C 50.24 88.32 46.34 86.20 42.65 84.49 Z" />
<path fill="#dcab79" opacity="1.00" d=" M 75.00 87.53 C 77.95 86.05 80.88 84.48 83.46 82.38 C 89.22 88.10 93.82 94.91 97.99 101.85 C 92.53 97.23 88.77 90.54 81.98 87.58 C 81.07 88.20 80.16 88.82 79.25 89.44 C 77.84 88.79 76.42 88.16 75.00 87.53 Z" />
<path fill="#d7a475" opacity="1.00" d=" M 38.88 86.14 C 40.14 85.60 41.40 85.06 42.65 84.49 C 46.34 86.20 50.24 88.32 51.39 92.57 C 51.49 93.45 51.58 94.32 51.66 95.21 C 50.31 96.11 48.97 97.03 47.63 97.95 C 44.54 94.15 41.52 90.27 38.88 86.14 Z" />
<path fill="#ce8565" opacity="1.00" d=" M 69.27 87.92 C 69.58 87.46 70.19 86.55 70.50 86.09 L 69.95 87.63 C 70.84 87.60 72.61 87.54 73.49 87.51 C 75.54 91.67 78.83 95.13 80.62 99.40 C 79.84 100.83 78.88 102.15 77.97 103.49 C 77.53 100.62 77.43 97.55 75.83 95.03 C 74.13 92.25 71.53 90.22 69.27 87.92 Z" />
<path fill="#e2b17d" opacity="1.00" d=" M 36.48 87.03 C 39.20 90.33 39.27 94.90 40.65 98.80 C 37.82 98.57 34.36 95.73 31.92 98.05 C 30.82 100.65 31.71 103.63 31.52 106.38 C 29.68 102.16 29.02 97.56 28.59 93.01 C 31.26 93.42 33.80 94.40 36.24 95.54 C 36.77 95.18 37.83 94.46 38.35 94.10 C 37.96 91.69 37.08 89.40 36.48 87.03 Z" />
<path fill="#000000" opacity="1.00" d=" M 55.09 88.00 C 57.43 86.45 59.72 88.21 61.65 89.52 C 58.75 93.70 58.09 98.82 58.09 103.78 C 59.82 104.42 61.54 105.08 63.23 105.82 C 65.00 106.75 66.66 107.89 68.27 109.09 C 68.91 109.57 70.19 110.52 70.83 111.00 L 67.70 111.00 C 63.96 108.49 59.93 106.47 55.62 105.13 C 55.89 99.60 56.83 94.14 58.63 88.90 C 56.66 89.88 54.97 91.30 53.42 92.84 C 53.95 96.24 54.59 99.65 54.49 103.11 C 54.13 105.85 52.97 108.41 52.03 111.00 L 49.75 111.00 C 50.59 108.64 51.41 106.26 52.44 103.98 C 52.23 101.05 51.92 98.13 51.66 95.21 C 51.58 94.32 51.49 93.45 51.39 92.57 C 52.70 91.11 53.95 89.59 55.09 88.00 Z" />
<path fill="#d6a375" opacity="1.00" d=" M 61.65 89.52 C 63.26 88.89 64.97 88.51 66.69 88.28 C 67.67 89.40 68.66 90.52 69.65 91.63 C 68.43 94.19 67.56 96.89 67.09 99.68 C 66.28 102.00 64.74 103.93 63.23 105.82 C 61.54 105.08 59.82 104.42 58.09 103.78 C 58.09 98.82 58.75 93.70 61.65 89.52 Z" />
<path fill="#cf966e" opacity="1.00" d=" M 47.63 97.95 C 48.97 97.03 50.31 96.11 51.66 95.21 C 51.92 98.13 52.23 101.05 52.44 103.98 C 51.41 106.26 50.59 108.64 49.75 111.00 L 42.74 111.00 C 43.80 107.22 44.53 103.36 45.78 99.64 C 47.30 101.54 48.80 103.47 50.39 105.31 C 51.23 102.42 49.36 100.05 47.63 97.95 Z" />
<path fill="#ba755d" opacity="1.00" d=" M 67.09 99.68 C 68.76 100.83 70.41 102.03 71.91 103.41 C 70.55 105.20 69.35 107.11 68.27 109.09 C 66.66 107.89 65.00 106.75 63.23 105.82 C 64.74 103.93 66.28 102.00 67.09 99.68 Z" />
<path fill="#a24b46" opacity="1.00" d=" M 71.91 103.41 C 73.96 105.76 75.57 108.45 77.36 111.00 L 70.83 111.00 C 70.19 110.52 68.91 109.57 68.27 109.09 C 69.35 107.11 70.55 105.20 71.91 103.41 Z" />
</svg>
