<?xml version="1.0" encoding="UTF-8" ?>
<!DOCTYPE svg PUBLIC "-//W3C//DTD SVG 1.1//EN" "http://www.w3.org/Graphics/SVG/1.1/DTD/svg11.dtd">
<svg width="111pt" height="111pt" viewBox="0 0 111 111" version="1.1" xmlns="http://www.w3.org/2000/svg">
<path fill="#201c1c" opacity="1.00" d=" M 0.00 0.00 L 1.61 0.00 C 2.84 1.54 1.07 3.14 0.00 4.13 L 0.00 0.00 Z" />
<path fill="#9b8888" opacity="1.00" d=" M 1.61 0.00 L 4.70 0.00 C 4.68 0.45 4.63 1.35 4.60 1.80 C 3.46 17.22 3.33 32.77 0.66 48.04 C 0.43 49.20 0.21 50.37 0.00 51.53 L 0.00 4.13 C 1.07 3.14 2.84 1.54 1.61 0.00 Z" />
<path fill="#6b4146" opacity="1.00" d=" M 4.70 0.00 L 9.75 0.00 C 11.66 16.95 12.85 34.00 13.99 51.02 C 15.11 58.77 8.33 64.56 7.65 72.02 C 10.74 77.68 15.60 82.22 20.31 86.56 C 13.25 92.57 6.58 99.03 0.00 105.55 L 0.00 51.53 C 0.21 50.37 0.43 49.20 0.66 48.04 C 1.15 48.48 2.14 49.37 2.63 49.82 C 8.94 41.55 6.76 30.63 6.88 20.99 C 7.12 14.49 5.55 8.17 4.60 1.80 C 4.63 1.35 4.68 0.45 4.70 0.00 Z" />
<path fill="#000000" opacity="1.00" d=" M 9.75 0.00 L 11.61 0.00 C 13.03 9.30 13.44 18.71 14.28 28.07 C 14.89 37.65 16.34 47.26 15.61 56.86 C 13.69 62.18 10.45 67.00 9.32 72.63 C 10.37 72.72 11.42 72.82 12.48 72.92 C 12.85 71.53 13.12 70.10 13.68 68.76 C 15.81 67.03 18.34 65.90 20.71 64.55 C 20.51 62.42 19.94 60.23 20.43 58.09 C 21.12 55.61 23.17 53.89 24.84 52.07 C 22.40 50.00 19.08 47.18 20.71 43.57 C 23.58 38.65 29.75 37.60 34.74 35.99 C 32.26 30.38 30.99 24.34 30.62 18.24 C 28.13 17.86 25.72 17.11 23.47 15.99 C 24.21 13.08 27.11 13.43 29.46 13.34 C 27.67 9.65 27.14 5.55 27.23 1.48 C 31.04 3.60 31.57 8.36 32.97 12.07 C 37.21 6.81 42.97 3.13 48.87 0.00 L 53.01 0.00 C 51.18 0.90 49.38 1.86 47.63 2.93 C 44.17 4.98 40.62 7.00 37.71 9.82 C 36.37 11.18 35.14 12.65 34.05 14.22 C 31.11 20.92 33.86 28.31 36.33 34.70 C 36.50 35.24 36.86 36.32 37.04 36.86 C 31.85 38.76 25.96 39.72 22.02 43.96 C 21.57 47.88 25.00 50.08 27.84 51.95 C 25.79 53.83 23.33 55.54 22.27 58.22 C 21.28 60.17 22.37 62.27 22.70 64.24 C 26.53 59.38 29.80 54.11 33.74 49.33 C 32.18 49.45 30.63 49.67 29.07 49.82 C 27.47 49.34 26.32 48.04 25.10 46.98 C 26.32 45.06 27.58 43.17 28.86 41.29 C 30.19 41.60 31.52 41.90 32.85 42.18 C 32.73 42.53 32.49 43.22 32.36 43.56 C 33.21 44.95 33.32 47.15 35.01 47.78 C 37.14 44.64 39.39 41.59 41.82 38.67 C 43.51 36.54 45.21 34.42 46.98 32.34 C 49.06 29.90 51.22 27.52 53.41 25.17 C 53.31 27.03 53.18 28.88 53.03 30.74 C 52.51 35.55 52.22 40.39 52.13 45.23 C 55.64 40.30 59.08 34.54 65.02 32.29 C 68.90 34.87 73.10 37.42 75.44 41.63 C 76.92 44.61 78.13 47.71 79.42 50.78 C 80.98 49.78 82.54 48.79 84.11 47.81 C 84.61 48.38 85.61 49.52 86.11 50.09 C 90.11 42.47 94.57 35.11 99.32 27.94 C 97.63 27.53 95.94 27.11 94.25 26.69 C 92.09 30.46 88.29 32.47 84.27 33.71 C 83.61 30.28 85.55 27.49 87.74 25.10 C 86.52 24.39 85.31 23.68 84.14 22.91 C 83.42 22.00 82.74 21.05 82.10 20.08 C 81.87 18.07 81.95 15.96 83.11 14.22 C 85.35 15.05 87.40 16.32 89.34 17.71 C 90.36 18.61 91.32 19.57 92.30 20.51 C 94.85 16.85 97.32 11.95 102.47 11.95 C 102.71 13.63 103.09 15.31 103.01 17.01 C 102.55 19.22 100.62 20.66 99.26 22.32 C 99.95 22.71 101.32 23.49 102.01 23.88 C 104.95 19.32 108.38 15.08 111.00 10.32 L 111.00 14.27 C 103.41 25.15 95.95 36.16 89.58 47.81 C 86.14 53.87 83.11 60.14 79.71 66.23 C 80.10 67.40 80.48 68.58 80.86 69.76 C 81.60 72.11 82.44 74.43 83.37 76.71 C 87.40 88.17 91.73 99.56 97.10 110.46 C 101.79 107.80 106.59 105.27 111.00 102.14 L 111.00 104.48 C 109.29 105.63 107.51 106.68 105.74 107.74 C 107.49 107.72 109.25 107.71 111.00 107.69 L 111.00 111.00 L 85.01 111.00 C 86.63 109.20 88.07 107.26 89.56 105.35 C 87.76 105.56 85.96 105.76 84.17 105.97 C 84.18 105.19 84.22 103.63 84.24 102.85 C 84.26 101.91 84.30 100.04 84.32 99.10 C 80.33 103.28 76.08 107.21 71.38 110.59 C 71.50 110.21 71.72 109.44 71.83 109.06 C 72.32 108.54 72.83 108.03 73.36 107.55 C 74.94 106.03 76.86 104.75 77.92 102.78 C 79.48 98.74 79.50 94.23 81.43 90.31 C 82.91 89.86 84.45 89.62 85.96 89.32 C 83.42 82.76 80.87 76.20 78.35 69.62 C 78.00 68.36 77.20 66.99 77.84 65.69 C 79.83 60.98 83.24 56.92 84.70 51.98 C 84.65 48.68 81.70 51.53 80.03 52.05 C 80.16 53.77 80.27 55.50 80.36 57.22 C 77.06 52.56 76.31 46.71 73.48 41.80 C 71.08 38.42 67.60 36.07 64.10 33.95 C 58.39 39.76 51.16 46.11 51.43 54.98 C 56.56 54.33 61.68 53.52 66.71 52.35 C 69.07 51.82 71.44 51.30 73.81 50.82 C 70.36 58.80 65.15 65.90 59.82 72.73 C 56.35 77.17 51.75 80.54 48.14 84.83 C 49.08 86.54 50.30 88.06 51.46 89.61 C 55.48 85.44 60.38 82.33 65.42 79.55 L 65.92 81.19 C 66.36 82.51 67.07 83.72 67.70 84.96 C 66.93 86.19 66.15 87.42 65.41 88.69 C 65.06 89.49 64.73 90.30 64.41 91.11 C 63.86 90.90 62.78 90.49 62.23 90.28 C 63.49 88.50 64.76 86.72 66.03 84.95 C 65.54 84.28 64.55 82.95 64.06 82.28 C 59.58 85.05 55.26 88.14 51.78 92.14 C 49.83 90.23 48.10 88.11 46.58 85.84 C 45.90 86.47 45.23 87.10 44.55 87.73 C 40.09 86.56 35.30 84.66 30.85 86.93 C 26.96 83.00 23.68 78.52 19.68 74.71 C 19.58 76.92 19.58 79.14 19.58 81.36 C 18.45 81.01 17.33 80.66 16.20 80.32 C 18.16 82.35 20.17 84.32 22.21 86.26 C 15.49 94.08 7.30 100.45 0.00 107.71 L 0.00 105.55 C 6.58 99.03 13.25 92.57 20.31 86.56 C 15.60 82.22 10.74 77.68 7.65 72.02 C 8.33 64.56 15.11 58.77 13.99 51.02 C 12.85 34.00 11.66 16.95 9.75 0.00 M 32.13 13.74 C 31.63 10.86 30.70 8.07 29.26 5.52 C 28.28 8.51 29.30 12.14 32.13 13.74 M 94.23 20.36 C 95.33 21.09 96.69 22.14 97.92 20.97 C 100.89 19.58 102.23 16.28 101.22 13.16 C 98.19 14.80 96.22 17.67 94.23 20.36 M 25.01 14.70 C 26.62 17.08 30.90 18.45 32.16 15.05 C 29.80 14.67 27.40 14.57 25.01 14.70 M 83.49 16.13 C 82.72 20.01 85.91 22.82 89.28 23.80 C 89.65 23.09 90.40 21.67 90.78 20.96 C 88.54 19.08 86.09 17.47 83.49 16.13 M 92.52 22.15 C 91.00 23.12 92.65 25.64 94.12 24.50 C 95.68 23.53 94.00 20.95 92.52 22.15 M 95.59 25.62 C 97.18 25.44 100.86 27.60 100.75 24.70 C 99.01 23.72 95.91 22.66 95.59 25.62 M 90.31 25.34 C 88.59 27.17 86.89 29.03 85.49 31.12 C 88.67 30.95 90.98 28.63 92.55 26.07 C 91.99 25.89 90.87 25.53 90.31 25.34 M 49.59 32.12 C 45.82 36.66 42.05 41.22 38.63 46.03 L 38.61 46.42 C 33.26 52.38 28.95 59.18 24.26 65.66 C 23.27 67.06 22.41 68.54 21.75 70.12 C 21.40 70.58 20.70 71.50 20.35 71.96 C 21.93 74.02 23.63 75.99 25.55 77.75 C 26.94 80.30 29.01 82.44 31.11 84.43 C 33.43 84.18 35.76 83.81 38.09 84.20 C 40.10 84.81 42.13 85.32 44.16 85.85 C 46.43 83.91 48.58 81.83 50.55 79.59 L 50.78 79.67 C 58.88 72.06 65.19 62.90 70.87 53.41 C 67.02 54.26 63.14 54.97 59.23 55.53 C 56.30 55.96 53.38 56.41 50.47 56.94 C 49.20 48.16 50.81 39.24 51.26 30.43 C 50.70 30.99 50.15 31.55 49.59 32.12 M 27.54 47.50 C 28.92 48.51 30.75 49.31 32.29 48.08 C 33.17 46.20 31.43 44.91 30.23 43.78 C 28.44 42.88 25.55 46.38 27.54 47.50 M 14.69 69.87 C 14.68 71.48 14.67 73.09 14.65 74.70 C 13.86 74.72 12.28 74.76 11.50 74.78 C 13.07 76.72 14.68 78.89 17.38 79.14 C 17.69 77.31 18.16 75.51 18.82 73.78 C 18.50 73.32 17.86 72.39 17.53 71.93 C 19.00 69.97 20.39 67.96 21.65 65.85 C 19.24 67.03 16.94 68.41 14.69 69.87 M 82.01 91.60 C 81.48 94.77 80.76 97.90 80.13 101.05 C 81.88 99.79 83.07 96.64 85.57 97.19 C 85.85 99.71 85.74 102.25 85.73 104.78 C 86.73 104.44 88.73 103.77 89.73 103.43 C 90.37 103.98 91.01 104.54 91.64 105.10 C 91.22 105.69 90.38 106.85 89.96 107.43 C 91.17 107.44 92.39 107.45 93.60 107.46 C 93.00 105.51 92.29 103.60 91.40 101.76 C 89.05 98.65 88.18 94.77 86.62 91.25 C 85.08 91.36 83.54 91.48 82.01 91.60 Z" />
<path fill="#7bce71" opacity="1.00" d=" M 53.01 0.00 L 90.44 0.00 C 92.89 5.66 93.51 12.67 89.34 17.71 C 87.40 16.32 85.35 15.05 83.11 14.22 C 81.95 15.96 81.87 18.07 82.10 20.08 C 74.13 22.89 66.07 25.48 58.16 28.47 C 58.22 27.85 58.35 26.61 58.41 25.99 C 57.12 28.10 55.36 29.83 53.03 30.74 C 53.18 28.88 53.31 27.03 53.41 25.17 C 51.22 27.52 49.06 29.90 46.98 32.34 C 44.08 30.20 41.01 28.08 39.02 24.99 C 36.89 21.64 35.64 17.84 34.05 14.22 C 35.14 12.65 36.37 11.18 37.71 9.82 C 36.77 11.40 35.99 13.06 35.21 14.72 C 36.55 14.08 37.88 13.41 39.21 12.75 C 40.73 12.77 42.25 12.84 43.77 12.68 C 45.22 11.96 45.83 10.25 46.84 9.06 C 46.27 8.08 45.70 7.10 45.12 6.12 C 45.95 5.05 46.78 3.98 47.63 2.93 C 49.38 1.86 51.18 0.90 53.01 0.00 M 58.84 2.80 C 59.51 3.94 60.20 5.06 60.91 6.18 C 58.77 7.51 56.31 9.15 56.09 11.92 C 55.65 16.78 62.04 19.54 65.98 17.73 C 69.84 16.34 70.96 10.69 68.09 7.85 C 66.47 6.48 63.57 6.14 64.08 3.33 C 63.63 3.84 62.73 4.85 62.28 5.35 C 61.38 4.18 60.38 3.06 58.84 2.80 Z" />
<path fill="#4f85a8" opacity="1.00" d=" M 90.44 0.00 L 94.95 0.00 C 94.87 2.04 94.79 4.07 94.70 6.11 C 94.56 8.90 94.45 11.70 94.37 14.49 C 100.48 11.79 104.25 6.18 108.95 1.73 C 109.36 2.09 110.19 2.81 110.60 3.17 C 108.36 6.46 106.24 10.21 102.47 11.95 C 97.32 11.95 94.85 16.85 92.30 20.51 C 91.32 19.57 90.36 18.61 89.34 17.71 C 93.51 12.67 92.89 5.66 90.44 0.00 Z" />
<path fill="#f4ffb9" opacity="1.00" d=" M 94.95 0.00 L 95.69 0.00 C 96.33 1.55 96.95 1.55 97.58 0.00 L 100.38 0.00 C 99.45 1.15 98.18 1.81 96.76 2.13 C 96.68 2.76 96.53 4.03 96.45 4.66 C 96.01 5.02 95.13 5.75 94.70 6.11 C 94.79 4.07 94.87 2.04 94.95 0.00 Z" />
<path fill="#020202" opacity="1.00" d=" M 95.69 0.00 L 97.58 0.00 C 96.95 1.55 96.33 1.55 95.69 0.00 Z" />
<path fill="#79ca73" opacity="1.00" d=" M 100.38 0.00 L 108.18 0.00 C 108.38 0.43 108.76 1.30 108.95 1.73 C 104.25 6.18 100.48 11.79 94.37 14.49 C 94.45 11.70 94.56 8.90 94.70 6.11 C 95.13 5.75 96.01 5.02 96.45 4.66 C 96.53 4.03 96.68 2.76 96.76 2.13 C 98.18 1.81 99.45 1.15 100.38 0.00 Z" />
<path fill="#121f1b" opacity="0.96" d=" M 108.18 0.00 L 111.00 0.00 L 111.00 2.66 L 110.60 3.17 C 110.19 2.81 109.36 2.09 108.95 1.73 C 108.76 1.30 108.38 0.43 108.18 0.00 Z" />
<path fill="#765256" opacity="1.00" d=" M 0.66 48.04 C 3.33 32.77 3.46 17.22 4.60 1.80 C 5.55 8.17 7.12 14.49 6.88 20.99 C 6.76 30.63 8.94 41.55 2.63 49.82 C 2.14 49.37 1.15 48.48 0.66 48.04 Z" />
<path fill="#f4ffb9" opacity="1.00" d=" M 37.71 9.82 C 40.62 7.00 44.17 4.98 47.63 2.93 C 46.78 3.98 45.95 5.05 45.12 6.12 C 45.70 7.10 46.27 8.08 46.84 9.06 C 45.83 10.25 45.22 11.96 43.77 12.68 C 42.25 12.84 40.73 12.77 39.21 12.75 C 37.88 13.41 36.55 14.08 35.21 14.72 C 35.99 13.06 36.77 11.40 37.71 9.82 Z" />
<path fill="#000000" opacity="1.00" d=" M 58.84 2.80 C 60.38 3.06 61.38 4.18 62.28 5.35 C 62.73 4.85 63.63 3.84 64.08 3.33 C 63.57 6.14 66.47 6.48 68.09 7.85 C 70.96 10.69 69.84 16.34 65.98 17.73 C 62.04 19.54 55.65 16.78 56.09 11.92 C 56.31 9.15 58.77 7.51 60.91 6.18 C 60.20 5.06 59.51 3.94 58.84 2.80 M 60.55 7.70 L 60.54 8.01 C 59.49 8.96 58.51 9.98 57.57 11.03 C 57.68 11.94 57.90 13.76 58.01 14.67 C 60.53 16.17 64.05 17.73 66.60 15.43 C 68.63 13.56 67.71 10.65 67.05 8.37 L 66.62 8.77 C 64.72 7.86 62.62 7.76 60.55 7.70 Z" />
<path fill="#3369a7" opacity="1.00" d=" M 110.60 3.17 L 111.00 2.66 L 111.00 10.32 C 108.38 15.08 104.95 19.32 102.01 23.88 C 101.32 23.49 99.95 22.71 99.26 22.32 C 100.62 20.66 102.55 19.22 103.01 17.01 C 103.09 15.31 102.71 13.63 102.47 11.95 C 106.24 10.21 108.36 6.46 110.60 3.17 Z" />
<path fill="#87783a" opacity="1.00" d=" M 32.13 13.74 C 29.30 12.14 28.28 8.51 29.26 5.52 C 30.70 8.07 31.63 10.86 32.13 13.74 Z" />
<path fill="#ff6b7a" opacity="1.00" d=" M 60.55 7.70 C 62.62 7.76 64.72 7.86 66.62 8.77 C 64.15 11.27 61.21 13.22 58.01 14.67 C 57.90 13.76 57.68 11.94 57.57 11.03 C 58.29 11.47 59.74 12.36 60.47 12.80 C 60.51 11.21 60.53 9.61 60.54 8.01 L 60.55 7.70 Z" />
<path fill="#fffec8" opacity="1.00" d=" M 57.57 11.03 C 58.51 9.98 59.49 8.96 60.54 8.01 C 60.53 9.61 60.51 11.21 60.47 12.80 C 59.74 12.36 58.29 11.47 57.57 11.03 Z" />
<path fill="#9e2d51" opacity="1.00" d=" M 66.62 8.77 L 67.05 8.37 C 67.71 10.65 68.63 13.56 66.60 15.43 C 64.05 17.73 60.53 16.17 58.01 14.67 C 61.21 13.22 64.15 11.27 66.62 8.77 Z" />
<path fill="#ffffff" opacity="1.00" d=" M 94.23 20.36 C 96.22 17.67 98.19 14.80 101.22 13.16 C 102.23 16.28 100.89 19.58 97.92 20.97 C 96.69 22.14 95.33 21.09 94.23 20.36 Z" />
<path fill="#c9b85a" opacity="1.00" d=" M 25.01 14.70 C 27.40 14.57 29.80 14.67 32.16 15.05 C 30.90 18.45 26.62 17.08 25.01 14.70 Z" />
<path fill="#548aa8" opacity="1.00" d=" M 36.33 34.70 C 33.86 28.31 31.11 20.92 34.05 14.22 C 35.64 17.84 36.89 21.64 39.02 24.99 C 41.01 28.08 44.08 30.20 46.98 32.34 C 45.21 34.42 43.51 36.54 41.82 38.67 C 40.17 37.10 38.35 35.73 36.33 34.70 Z" />
<path fill="#fffec8" opacity="1.00" d=" M 89.58 47.81 C 95.95 36.16 103.41 25.15 111.00 14.27 L 111.00 19.36 C 102.23 32.67 93.91 46.28 86.26 60.27 C 84.62 63.52 83.22 66.94 80.86 69.76 C 80.48 68.58 80.10 67.40 79.71 66.23 C 83.11 60.14 86.14 53.87 89.58 47.81 Z" />
<path fill="#ffffff" opacity="1.00" d=" M 83.49 16.13 C 86.09 17.47 88.54 19.08 90.78 20.96 C 90.40 21.67 89.65 23.09 89.28 23.80 C 85.91 22.82 82.72 20.01 83.49 16.13 Z" />
<path fill="#558ba7" opacity="1.00" d=" M 58.16 28.47 C 66.07 25.48 74.13 22.89 82.10 20.08 C 82.74 21.05 83.42 22.00 84.14 22.91 C 80.94 24.10 77.68 25.14 74.59 26.60 C 71.22 28.18 68.37 30.67 65.02 32.29 C 59.08 34.54 55.64 40.30 52.13 45.23 C 52.22 40.39 52.51 35.55 53.03 30.74 C 55.36 29.83 57.12 28.10 58.41 25.99 C 58.35 26.61 58.22 27.85 58.16 28.47 Z" />
<path fill="#9b8888" opacity="1.00" d=" M 86.26 60.27 C 93.91 46.28 102.23 32.67 111.00 19.36 L 111.00 77.32 C 107.54 84.66 104.82 92.33 101.11 99.55 C 94.90 92.17 89.90 83.83 83.37 76.71 C 82.44 74.43 81.60 72.11 80.86 69.76 C 83.22 66.94 84.62 63.52 86.26 60.27 Z" />
<path fill="#d3c45f" opacity="1.00" d=" M 92.52 22.15 C 94.00 20.95 95.68 23.53 94.12 24.50 C 92.65 25.64 91.00 23.12 92.52 22.15 Z" />
<path fill="#79cb73" opacity="1.00" d=" M 74.59 26.60 C 77.68 25.14 80.94 24.10 84.14 22.91 C 85.31 23.68 86.52 24.39 87.74 25.10 C 85.55 27.49 83.61 30.28 84.27 33.71 C 81.52 36.56 78.54 39.16 75.44 41.63 C 73.10 37.42 68.90 34.87 65.02 32.29 C 68.37 30.67 71.22 28.18 74.59 26.60 Z" />
<path fill="#ffffff" opacity="1.00" d=" M 95.59 25.62 C 95.91 22.66 99.01 23.72 100.75 24.70 C 100.86 27.60 97.18 25.44 95.59 25.62 Z" />
<path fill="#ffffff" opacity="1.00" d=" M 90.31 25.34 C 90.87 25.53 91.99 25.89 92.55 26.07 C 90.98 28.63 88.67 30.95 85.49 31.12 C 86.89 29.03 88.59 27.17 90.31 25.34 Z" />
<path fill="#3369a7" opacity="1.00" d=" M 94.25 26.69 C 95.94 27.11 97.63 27.53 99.32 27.94 C 94.57 35.11 90.11 42.47 86.11 50.09 C 85.61 49.52 84.61 48.38 84.11 47.81 C 82.54 48.79 80.98 49.78 79.42 50.78 C 78.13 47.71 76.92 44.61 75.44 41.63 C 78.54 39.16 81.52 36.56 84.27 33.71 C 88.29 32.47 92.09 30.46 94.25 26.69 Z" />
<path fill="#846165" opacity="1.00" d=" M 49.59 32.12 C 50.15 31.55 50.70 30.99 51.26 30.43 C 50.81 39.24 49.20 48.16 50.47 56.94 C 50.13 60.43 49.36 63.87 49.36 67.39 C 46.66 70.61 44.27 74.10 42.46 77.90 C 42.15 77.28 41.55 76.05 41.24 75.43 C 44.54 65.91 47.29 56.14 47.94 46.04 C 47.86 41.30 51.17 36.83 49.59 32.12 Z" />
<path fill="#9b8888" opacity="1.00" d=" M 49.59 32.12 C 51.17 36.83 47.86 41.30 47.94 46.04 C 47.29 56.14 44.54 65.91 41.24 75.43 C 40.26 78.38 39.17 81.29 38.09 84.20 C 35.76 83.81 33.43 84.18 31.11 84.43 C 29.01 82.44 26.94 80.30 25.55 77.75 C 24.53 75.09 23.26 72.54 21.75 70.12 C 22.41 68.54 23.27 67.06 24.26 65.66 C 25.33 65.06 26.36 64.42 27.41 63.80 C 29.76 68.04 35.65 64.93 35.82 60.95 C 36.04 58.76 33.63 58.18 32.20 57.22 C 34.67 53.91 38.72 50.94 38.61 46.42 L 38.63 46.03 C 42.05 41.22 45.82 36.66 49.59 32.12 Z" />
<path fill="#947d7e" opacity="1.00" d=" M 51.43 54.98 C 51.16 46.11 58.39 39.76 64.10 33.95 C 67.60 36.07 71.08 38.42 73.48 41.80 C 71.54 45.51 69.28 49.04 66.71 52.35 C 61.68 53.52 56.56 54.33 51.43 54.98 Z" />
<path fill="#77c777" opacity="1.00" d=" M 36.33 34.70 C 38.35 35.73 40.17 37.10 41.82 38.67 C 39.39 41.59 37.14 44.64 35.01 47.78 C 33.32 47.15 33.21 44.95 32.36 43.56 C 32.49 43.22 32.73 42.53 32.85 42.18 C 31.52 41.90 30.19 41.60 28.86 41.29 C 27.58 43.17 26.32 45.06 25.10 46.98 C 24.07 45.97 23.04 44.97 22.02 43.96 C 25.96 39.72 31.85 38.76 37.04 36.86 C 36.86 36.32 36.50 35.24 36.33 34.70 Z" />
<path fill="#6a3d45" opacity="1.00" d=" M 73.48 41.80 C 76.31 46.71 77.06 52.56 80.36 57.22 C 80.27 55.50 80.16 53.77 80.03 52.05 C 81.70 51.53 84.65 48.68 84.70 51.98 C 83.24 56.92 79.83 60.98 77.84 65.69 C 77.20 66.99 78.00 68.36 78.35 69.62 C 80.87 76.20 83.42 82.76 85.96 89.32 C 84.45 89.62 82.91 89.86 81.43 90.31 C 79.50 94.23 79.48 98.74 77.92 102.78 C 76.86 104.75 74.94 106.03 73.36 107.55 C 75.50 100.88 77.87 94.27 79.64 87.48 C 75.87 91.49 75.86 97.47 72.36 101.67 C 71.96 98.53 72.65 94.44 69.58 92.43 C 68.30 91.11 66.29 91.50 64.66 91.21 L 64.41 91.11 C 64.73 90.30 65.06 89.49 65.41 88.69 C 70.89 87.85 76.20 84.52 78.28 79.22 C 79.03 77.48 78.10 75.40 76.67 74.31 C 71.75 72.90 68.70 78.07 65.92 81.19 L 65.42 79.55 C 60.38 82.33 55.48 85.44 51.46 89.61 C 50.30 88.06 49.08 86.54 48.14 84.83 C 51.75 80.54 56.35 77.17 59.82 72.73 C 65.15 65.90 70.36 58.80 73.81 50.82 C 71.44 51.30 69.07 51.82 66.71 52.35 C 69.28 49.04 71.54 45.51 73.48 41.80 Z" />
<path fill="#5184b1" opacity="1.00" d=" M 27.84 51.95 C 25.00 50.08 21.57 47.88 22.02 43.96 C 23.04 44.97 24.07 45.97 25.10 46.98 C 26.32 48.04 27.47 49.34 29.07 49.82 C 30.63 49.67 32.18 49.45 33.74 49.33 C 29.80 54.11 26.53 59.38 22.70 64.24 C 22.37 62.27 21.28 60.17 22.27 58.22 C 23.33 55.54 25.79 53.83 27.84 51.95 Z" />
<path fill="#de5e6f" opacity="1.00" d=" M 27.54 47.50 C 25.55 46.38 28.44 42.88 30.23 43.78 C 29.90 45.33 28.85 46.64 27.54 47.50 Z" />
<path fill="#9b2d50" opacity="1.00" d=" M 30.23 43.78 C 31.43 44.91 33.17 46.20 32.29 48.08 C 30.75 49.31 28.92 48.51 27.54 47.50 C 28.85 46.64 29.90 45.33 30.23 43.78 Z" />
<path fill="#fff8c4" opacity="1.00" d=" M 38.61 46.42 C 38.72 50.94 34.67 53.91 32.20 57.22 C 33.63 58.18 36.04 58.76 35.82 60.95 C 35.65 64.93 29.76 68.04 27.41 63.80 C 26.36 64.42 25.33 65.06 24.26 65.66 C 28.95 59.18 33.26 52.38 38.61 46.42 Z" />
<path fill="#72424a" opacity="1.00" d=" M 59.23 55.53 C 63.14 54.97 67.02 54.26 70.87 53.41 C 65.19 62.90 58.88 72.06 50.78 79.67 L 50.55 79.59 C 50.08 79.45 49.13 79.16 48.65 79.01 C 51.21 76.05 53.04 72.57 54.56 68.99 C 54.23 68.11 53.57 66.36 53.23 65.49 C 55.84 62.48 57.84 58.98 60.61 56.11 C 60.27 55.97 59.58 55.68 59.23 55.53 Z" />
<path fill="#937b7d" opacity="1.00" d=" M 50.47 56.94 C 53.38 56.41 56.30 55.96 59.23 55.53 C 59.58 55.68 60.27 55.97 60.61 56.11 C 57.84 58.98 55.84 62.48 53.23 65.49 C 51.92 66.08 50.62 66.69 49.36 67.39 C 49.36 63.87 50.13 60.43 50.47 56.94 Z" />
<path fill="#714349" opacity="1.00" d=" M 14.69 69.87 C 16.94 68.41 19.24 67.03 21.65 65.85 C 20.39 67.96 19.00 69.97 17.53 71.93 C 17.86 72.39 18.50 73.32 18.82 73.78 C 18.16 75.51 17.69 77.31 17.38 79.14 C 14.68 78.89 13.07 76.72 11.50 74.78 C 12.28 74.76 13.86 74.72 14.65 74.70 C 14.67 73.09 14.68 71.48 14.69 69.87 Z" />
<path fill="#020202" opacity="1.00" d=" M 49.36 67.39 C 50.62 66.69 51.92 66.08 53.23 65.49 C 53.57 66.36 54.23 68.11 54.56 68.99 C 53.04 72.57 51.21 76.05 48.65 79.01 C 46.48 79.85 44.24 80.56 41.88 80.50 C 42.03 79.85 42.31 78.55 42.46 77.90 C 44.27 74.10 46.66 70.61 49.36 67.39 M 43.20 79.38 C 45.40 78.78 47.81 78.17 49.14 76.12 C 51.03 73.36 53.63 70.03 52.34 66.50 C 48.38 70.08 45.64 74.70 43.20 79.38 Z" />
<path fill="#62ffeb" opacity="1.00" d=" M 43.20 79.38 C 45.64 74.70 48.38 70.08 52.34 66.50 C 53.63 70.03 51.03 73.36 49.14 76.12 C 47.81 78.17 45.40 78.78 43.20 79.38 Z" />
<path fill="#fff8c4" opacity="1.00" d=" M 20.35 71.96 C 20.70 71.50 21.40 70.58 21.75 70.12 C 23.26 72.54 24.53 75.09 25.55 77.75 C 23.63 75.99 21.93 74.02 20.35 71.96 Z" />
<path fill="#805d62" opacity="1.00" d=" M 65.92 81.19 C 68.70 78.07 71.75 72.90 76.67 74.31 C 78.10 75.40 79.03 77.48 78.28 79.22 C 76.20 84.52 70.89 87.85 65.41 88.69 C 66.15 87.42 66.93 86.19 67.70 84.96 C 67.07 83.72 66.36 82.51 65.92 81.19 Z" />
<path fill="#794f54" opacity="1.00" d=" M 41.24 75.43 C 41.55 76.05 42.15 77.28 42.46 77.90 C 42.31 78.55 42.03 79.85 41.88 80.50 C 44.24 80.56 46.48 79.85 48.65 79.01 C 49.13 79.16 50.08 79.45 50.55 79.59 C 48.58 81.83 46.43 83.91 44.16 85.85 C 42.13 85.32 40.10 84.81 38.09 84.20 C 39.17 81.29 40.26 78.38 41.24 75.43 Z" />
<path fill="#856367" opacity="1.00" d=" M 83.37 76.71 C 89.90 83.83 94.90 92.17 101.11 99.55 C 104.82 92.33 107.54 84.66 111.00 77.32 L 111.00 102.14 C 106.59 105.27 101.79 107.80 97.10 110.46 C 91.73 99.56 87.40 88.17 83.37 76.71 Z" />
<path fill="#805a5f" opacity="1.00" d=" M 72.36 101.67 C 75.86 97.47 75.87 91.49 79.64 87.48 C 77.87 94.27 75.50 100.88 73.36 107.55 C 72.83 108.03 72.32 108.54 71.83 109.06 C 71.72 109.44 71.50 110.21 71.38 110.59 L 71.25 111.00 L 68.42 111.00 L 68.39 110.72 C 68.35 110.16 68.27 109.03 68.24 108.47 C 66.12 107.22 64.00 105.96 61.89 104.70 C 63.44 103.77 64.99 102.85 66.54 101.92 C 68.05 102.52 69.57 103.11 71.09 103.70 C 71.41 103.20 72.04 102.18 72.36 101.67 Z" />
<path fill="#020202" opacity="1.00" d=" M 64.66 91.21 C 66.29 91.50 68.30 91.11 69.58 92.43 C 72.65 94.44 71.96 98.53 72.36 101.67 C 72.04 102.18 71.41 103.20 71.09 103.70 C 69.57 103.11 68.05 102.52 66.54 101.92 C 63.11 100.54 59.66 99.21 56.16 98.04 C 57.79 101.52 59.22 105.26 62.02 107.99 C 63.87 109.41 66.27 109.83 68.39 110.72 L 68.42 111.00 L 63.67 111.00 C 54.95 108.01 46.14 105.16 37.07 103.46 C 38.22 104.60 39.37 105.74 40.55 106.85 C 42.08 108.31 43.65 109.73 45.34 111.00 L 42.95 111.00 C 39.58 108.44 36.17 105.65 34.43 101.67 C 43.08 102.19 51.29 105.18 59.45 107.86 C 57.08 104.25 54.97 100.40 54.11 96.12 C 59.87 97.01 65.14 99.61 70.47 101.85 C 70.53 99.77 70.59 97.70 70.67 95.63 C 68.75 94.04 66.78 92.52 64.66 91.21 Z" />
<path fill="#8a6b6e" opacity="1.00" d=" M 56.16 98.04 C 59.66 99.21 63.11 100.54 66.54 101.92 C 64.99 102.85 63.44 103.77 61.89 104.70 C 64.00 105.96 66.12 107.22 68.24 108.47 C 68.27 109.03 68.35 110.16 68.39 110.72 C 66.27 109.83 63.87 109.41 62.02 107.99 C 59.22 105.26 57.79 101.52 56.16 98.04 Z" />
<path fill="#8f7576" opacity="1.00" d=" M 71.38 110.59 C 76.08 107.21 80.33 103.28 84.32 99.10 C 84.30 100.04 84.26 101.91 84.24 102.85 C 81.01 105.54 77.94 108.42 74.61 111.00 L 71.25 111.00 L 71.38 110.59 Z" />
<path fill="#805a5f" opacity="1.00" d=" M 74.61 111.00 C 77.94 108.42 81.01 105.54 84.24 102.85 C 84.22 103.63 84.18 105.19 84.17 105.97 C 85.96 105.76 87.76 105.56 89.56 105.35 C 88.07 107.26 86.63 109.20 85.01 111.00 L 74.61 111.00 Z" />
<path fill="#a08d8d" opacity="1.00" d=" M 37.07 103.46 C 46.14 105.16 54.95 108.01 63.67 111.00 L 52.86 111.00 C 48.89 109.25 44.89 107.45 40.55 106.85 C 39.37 105.74 38.22 104.60 37.07 103.46 Z" />
<path fill="#815f63" opacity="1.00" d=" M 40.55 106.85 C 44.89 107.45 48.89 109.25 52.86 111.00 L 45.34 111.00 C 43.65 109.73 42.08 108.31 40.55 106.85 Z" />
</svg>
