<?xml version="1.0" encoding="UTF-8" ?>
<!DOCTYPE svg PUBLIC "-//W3C//DTD SVG 1.1//EN" "http://www.w3.org/Graphics/SVG/1.1/DTD/svg11.dtd">
<svg width="111pt" height="111pt" viewBox="0 0 111 111" version="1.1" xmlns="http://www.w3.org/2000/svg">
<path fill="#000000" opacity="1.00" d=" M 41.93 20.13 C 46.00 12.90 50.66 5.44 58.03 1.17 C 63.01 3.19 64.83 9.08 64.43 14.04 C 66.77 12.52 69.00 10.40 71.89 10.13 C 74.17 10.27 74.12 13.27 74.87 14.78 C 74.44 15.17 73.59 15.95 73.17 16.33 L 72.80 16.61 C 72.55 15.02 72.29 13.43 72.02 11.84 C 69.24 13.12 66.52 14.52 63.77 15.87 C 63.45 15.45 62.80 14.61 62.48 14.19 C 62.30 10.58 61.50 6.99 59.20 4.10 C 58.17 4.32 57.01 4.34 56.17 5.06 C 52.42 8.02 49.60 11.95 47.02 15.93 C 45.50 18.14 44.06 20.42 43.01 22.90 C 40.10 22.06 37.05 21.33 34.05 22.28 C 31.15 23.14 28.04 24.78 27.19 27.92 C 25.80 32.91 24.08 39.44 27.96 43.71 C 24.74 47.40 22.12 51.68 20.63 56.36 C 20.10 57.75 20.31 59.24 20.67 60.64 C 23.46 61.69 26.46 61.75 29.39 61.42 C 29.70 61.40 30.31 61.37 30.62 61.36 C 32.42 65.58 33.79 71.14 38.84 72.53 C 45.54 74.75 52.25 70.73 56.86 66.12 C 58.55 66.19 60.26 66.37 61.95 66.14 C 63.89 65.72 64.50 63.66 64.89 61.98 C 64.85 61.21 64.77 59.66 64.73 58.89 C 65.93 58.57 67.13 58.25 68.33 57.93 C 73.18 56.26 78.63 54.17 81.42 49.59 C 83.39 45.96 79.95 43.04 78.54 40.02 C 80.22 36.52 84.48 35.28 86.62 32.06 C 86.11 30.98 85.58 29.91 85.04 28.85 C 88.24 25.68 92.24 21.31 89.98 16.48 C 86.09 13.24 80.88 15.40 76.60 16.45 C 76.33 16.05 75.78 15.24 75.51 14.83 C 78.95 13.99 82.31 12.46 85.92 12.61 C 89.52 12.64 92.63 15.63 93.55 18.96 C 92.88 22.73 90.74 26.19 88.09 28.93 C 90.03 34.20 84.58 37.59 80.52 39.40 C 83.25 42.34 85.83 46.61 83.53 50.59 C 80.23 56.29 73.39 58.69 67.35 60.29 C 66.75 62.74 66.62 65.76 64.34 67.34 C 62.16 68.89 59.42 68.34 56.96 68.09 C 52.55 74.71 43.22 77.70 36.04 73.91 C 32.14 71.89 30.54 67.50 29.35 63.56 C 24.92 64.34 19.17 64.11 17.36 59.12 C 18.76 53.60 21.34 48.44 24.85 43.96 C 22.63 38.08 22.90 31.17 25.58 25.49 C 28.54 19.65 36.15 18.55 41.93 20.13 Z" />
<path fill="#78c974" opacity="1.00" d=" M 56.17 5.06 C 57.01 4.34 58.17 4.32 59.20 4.10 C 57.30 9.58 55.00 14.92 53.44 20.50 C 56.47 18.42 59.42 16.22 62.48 14.19 C 62.80 14.61 63.45 15.45 63.77 15.87 C 66.52 14.52 69.24 13.12 72.02 11.84 C 72.29 13.43 72.55 15.02 72.80 16.61 L 73.17 16.33 L 73.17 16.33 C 72.70 17.11 71.74 18.67 71.27 19.45 C 73.55 19.17 75.77 18.47 77.56 16.97 L 76.91 16.72 L 76.60 16.45 C 80.88 15.40 86.09 13.24 89.98 16.48 C 85.78 20.54 80.04 22.05 75.04 24.82 C 73.18 24.07 71.51 22.92 69.96 21.67 C 69.37 22.44 68.79 23.22 68.20 23.99 C 67.45 22.37 66.89 20.48 65.07 19.76 C 65.50 21.45 65.99 23.14 66.51 24.81 C 64.20 27.35 63.03 30.67 63.66 34.09 C 63.74 36.54 64.98 39.76 62.55 41.48 C 61.58 42.60 59.86 43.28 59.37 44.69 C 60.12 46.24 61.18 47.63 61.99 49.16 C 62.37 50.58 62.15 52.43 63.55 53.34 C 64.86 54.56 66.69 53.78 68.24 53.79 C 68.33 55.17 68.36 56.55 68.33 57.93 C 67.13 58.25 65.93 58.57 64.73 58.89 C 64.77 59.66 64.85 61.21 64.89 61.98 C 58.32 63.52 52.76 58.38 50.00 52.93 C 48.46 56.42 46.99 60.34 43.62 62.48 C 40.44 63.95 36.21 64.01 33.51 61.52 C 31.55 59.73 30.52 57.21 29.32 54.90 C 29.30 55.38 29.27 56.34 29.25 56.81 C 26.52 58.37 23.57 59.48 20.67 60.64 C 20.31 59.24 20.10 57.75 20.63 56.36 C 22.12 51.68 24.74 47.40 27.96 43.71 C 28.74 43.84 30.31 44.09 31.09 44.22 C 29.61 39.33 28.60 34.33 27.57 29.33 C 30.18 27.44 32.75 25.32 34.05 22.28 C 37.05 21.33 40.10 22.06 43.01 22.90 C 42.56 24.39 42.21 25.91 41.86 27.42 C 43.12 26.47 44.23 25.31 44.95 23.90 C 46.83 20.30 49.33 17.04 50.77 13.22 C 49.51 14.11 48.22 14.96 47.02 15.93 C 49.60 11.95 52.42 8.02 56.17 5.06 M 49.36 26.37 C 47.73 27.52 45.34 29.32 46.47 31.61 C 48.60 34.91 55.29 33.44 54.44 29.06 C 54.72 26.49 51.32 24.66 49.36 26.37 M 57.06 32.09 C 55.36 33.42 56.40 36.64 58.72 35.74 C 59.95 34.21 59.64 31.13 57.06 32.09 M 35.24 41.33 C 33.36 43.43 30.61 45.78 31.67 48.94 C 32.65 51.85 34.04 55.89 37.53 56.34 C 36.34 53.18 33.74 50.46 33.65 46.95 C 36.74 41.47 42.47 38.35 46.74 33.99 C 41.80 33.95 38.55 38.27 35.24 41.33 M 45.31 39.36 C 42.83 40.58 40.59 43.64 41.70 46.47 C 44.26 50.65 51.57 49.79 53.23 45.20 C 54.32 41.00 49.06 37.07 45.31 39.36 Z" />
<path fill="#5084ad" opacity="1.00" d=" M 59.20 4.10 C 61.50 6.99 62.30 10.58 62.48 14.19 C 59.42 16.22 56.47 18.42 53.44 20.50 C 55.00 14.92 57.30 9.58 59.20 4.10 Z" />
<path fill="#e9f7b7" opacity="1.00" d=" M 47.02 15.93 C 48.22 14.96 49.51 14.11 50.77 13.22 C 49.33 17.04 46.83 20.30 44.95 23.90 C 44.23 25.31 43.12 26.47 41.86 27.42 C 42.21 25.91 42.56 24.39 43.01 22.90 C 44.06 20.42 45.50 18.14 47.02 15.93 Z" />
<path fill="#e1efaf" opacity="1.00" d=" M 71.27 19.45 C 71.74 18.67 72.70 17.11 73.17 16.33 C 74.41 16.54 75.66 16.67 76.91 16.72 L 77.56 16.97 C 75.77 18.47 73.55 19.17 71.27 19.45 Z" />
<path fill="#376da8" opacity="1.00" d=" M 89.98 16.48 C 92.24 21.31 88.24 25.68 85.04 28.85 C 85.58 29.91 86.11 30.98 86.62 32.06 C 84.48 35.28 80.22 36.52 78.54 40.02 C 79.95 43.04 83.39 45.96 81.42 49.59 C 78.63 54.17 73.18 56.26 68.33 57.93 C 68.36 56.55 68.33 55.17 68.24 53.79 C 69.17 54.59 69.92 56.17 71.39 55.68 C 74.10 55.34 74.83 52.51 74.59 50.21 C 76.83 48.84 79.76 46.66 78.37 43.64 C 77.11 41.10 74.26 41.53 72.20 42.74 C 71.42 40.42 70.05 38.36 67.84 37.19 L 68.46 36.97 C 71.74 36.23 75.10 34.34 76.16 30.94 C 77.00 28.82 75.78 26.76 75.04 24.82 C 80.04 22.05 85.78 20.54 89.98 16.48 Z" />
<path fill="#000000" opacity="1.00" d=" M 65.07 19.76 C 66.89 20.48 67.45 22.37 68.20 23.99 C 68.79 23.22 69.37 22.44 69.96 21.67 C 71.51 22.92 73.18 24.07 75.04 24.82 C 75.78 26.76 77.00 28.82 76.16 30.94 C 75.10 34.34 71.74 36.23 68.46 36.97 C 66.62 36.44 65.10 35.29 63.66 34.09 C 63.03 30.67 64.20 27.35 66.51 24.81 C 65.99 23.14 65.50 21.45 65.07 19.76 M 66.71 27.00 L 67.31 27.48 C 66.93 27.76 66.17 28.34 65.79 28.62 L 65.93 29.49 C 64.63 31.32 65.94 33.24 66.97 34.77 C 70.00 34.99 73.44 33.47 74.53 30.49 C 75.22 28.46 73.80 26.72 72.52 25.33 C 70.48 25.49 68.53 26.08 66.71 27.00 Z" />
<path fill="#f4ffb9" opacity="1.00" d=" M 27.19 27.92 C 28.04 24.78 31.15 23.14 34.05 22.28 C 32.75 25.32 30.18 27.44 27.57 29.33 L 27.19 27.92 Z" />
<path fill="#f4ffb9" opacity="1.00" d=" M 49.36 26.37 C 51.32 24.66 54.72 26.49 54.44 29.06 C 55.29 33.44 48.60 34.91 46.47 31.61 C 45.34 29.32 47.73 27.52 49.36 26.37 Z" />
<path fill="#ff6170" opacity="1.00" d=" M 66.71 27.00 C 68.53 26.08 70.48 25.49 72.52 25.33 C 71.50 28.90 69.91 32.36 66.97 34.77 C 65.94 33.24 64.63 31.32 65.93 29.49 C 67.32 30.70 69.21 28.18 67.31 27.48 L 66.71 27.00 Z" />
<path fill="#9d3770" opacity="1.00" d=" M 72.52 25.33 C 73.80 26.72 75.22 28.46 74.53 30.49 C 73.44 33.47 70.00 34.99 66.97 34.77 C 69.91 32.36 71.50 28.90 72.52 25.33 Z" />
<path fill="#f5c8c1" opacity="1.00" d=" M 65.79 28.62 C 66.17 28.34 66.93 27.76 67.31 27.48 C 69.21 28.18 67.32 30.70 65.93 29.49 L 65.79 28.62 Z" />
<path fill="#578fa7" opacity="1.00" d=" M 27.96 43.71 C 24.08 39.44 25.80 32.91 27.19 27.92 L 27.57 29.33 C 28.60 34.33 29.61 39.33 31.09 44.22 C 30.31 44.09 28.74 43.84 27.96 43.71 Z" />
<path fill="#e0f3af" opacity="1.00" d=" M 57.06 32.09 C 59.64 31.13 59.95 34.21 58.72 35.74 C 56.40 36.64 55.36 33.42 57.06 32.09 Z" />
<path fill="#000000" opacity="1.00" d=" M 35.24 41.33 C 38.55 38.27 41.80 33.95 46.74 33.99 C 42.47 38.35 36.74 41.47 33.65 46.95 C 33.74 50.46 36.34 53.18 37.53 56.34 C 34.04 55.89 32.65 51.85 31.67 48.94 C 30.61 45.78 33.36 43.43 35.24 41.33 Z" />
<path fill="#5085aa" opacity="1.00" d=" M 62.55 41.48 C 64.98 39.76 63.74 36.54 63.66 34.09 C 65.10 35.29 66.62 36.44 68.46 36.97 L 67.84 37.19 C 65.47 39.49 64.66 42.75 65.91 45.84 C 64.56 46.89 63.29 48.05 61.99 49.16 C 61.18 47.63 60.12 46.24 59.37 44.69 C 59.86 43.28 61.58 42.60 62.55 41.48 Z" />
<path fill="#000000" opacity="1.00" d=" M 65.91 45.84 C 64.66 42.75 65.47 39.49 67.84 37.19 C 70.05 38.36 71.42 40.42 72.20 42.74 C 74.26 41.53 77.11 41.10 78.37 43.64 C 79.76 46.66 76.83 48.84 74.59 50.21 C 74.83 52.51 74.10 55.34 71.39 55.68 C 69.92 56.17 69.17 54.59 68.24 53.79 C 66.69 53.78 64.86 54.56 63.55 53.34 C 62.15 52.43 62.37 50.58 61.99 49.16 C 63.29 48.05 64.56 46.89 65.91 45.84 M 67.89 45.15 C 68.27 45.49 69.04 46.17 69.43 46.50 C 68.52 47.55 69.05 50.97 70.87 49.51 C 70.77 48.71 70.58 47.11 70.48 46.30 C 72.33 47.44 75.08 49.00 76.67 46.36 L 76.87 46.42 C 76.80 45.83 76.67 44.67 76.60 44.09 C 75.01 42.82 73.59 44.16 72.43 45.31 C 71.06 45.06 70.30 43.58 70.10 42.33 C 69.63 41.34 69.15 40.36 68.67 39.39 C 66.73 40.74 66.86 43.27 67.89 45.15 M 63.33 51.04 C 64.54 51.44 65.81 53.18 67.10 51.99 C 68.72 50.58 69.83 52.59 70.49 53.80 C 70.94 53.68 71.85 53.44 72.30 53.33 C 72.40 52.79 72.59 51.73 72.68 51.20 C 71.96 51.37 70.51 51.72 69.79 51.90 C 69.16 51.47 67.91 50.62 67.28 50.19 C 67.37 49.32 67.54 47.58 67.63 46.71 C 65.94 47.87 64.43 49.29 63.33 51.04 Z" />
<path fill="#000000" opacity="1.00" d=" M 45.31 39.36 C 49.06 37.07 54.32 41.00 53.23 45.20 C 51.57 49.79 44.26 50.65 41.70 46.47 C 40.59 43.64 42.83 40.58 45.31 39.36 M 43.14 45.87 C 44.64 47.86 47.44 47.34 49.58 47.13 C 52.67 45.52 51.98 40.27 48.10 40.46 C 45.21 40.26 42.38 42.89 43.14 45.87 Z" />
<path fill="#f8ffff" opacity="1.00" d=" M 67.89 45.15 C 66.86 43.27 66.73 40.74 68.67 39.39 C 69.15 40.36 69.63 41.34 70.10 42.33 C 69.36 43.27 68.63 44.21 67.89 45.15 Z" />
<path fill="#62ffea" opacity="1.00" d=" M 43.14 45.87 C 42.38 42.89 45.21 40.26 48.10 40.46 C 48.93 42.60 49.47 44.83 49.58 47.13 C 47.44 47.34 44.64 47.86 43.14 45.87 Z" />
<path fill="#376da8" opacity="1.00" d=" M 48.10 40.46 C 51.98 40.27 52.67 45.52 49.58 47.13 C 49.47 44.83 48.93 42.60 48.10 40.46 Z" />
<path fill="#62ffea" opacity="1.00" d=" M 67.89 45.15 C 68.63 44.21 69.36 43.27 70.10 42.33 C 70.30 43.58 71.06 45.06 72.43 45.31 L 73.33 45.54 C 74.45 45.75 75.57 46.03 76.67 46.36 C 75.08 49.00 72.33 47.44 70.48 46.30 L 69.98 46.19 L 69.43 46.50 C 69.04 46.17 68.27 45.49 67.89 45.15 Z" />
<path fill="#f8ffff" opacity="1.00" d=" M 72.43 45.31 C 73.59 44.16 75.01 42.82 76.60 44.09 C 76.67 44.67 76.80 45.83 76.87 46.42 L 76.67 46.36 C 75.57 46.03 74.45 45.75 73.33 45.54 L 72.43 45.31 Z" />
<path fill="#f8ffff" opacity="1.00" d=" M 63.33 51.04 C 64.43 49.29 65.94 47.87 67.63 46.71 C 67.54 47.58 67.37 49.32 67.28 50.19 C 67.91 50.62 69.16 51.47 69.79 51.90 C 70.51 51.72 71.96 51.37 72.68 51.20 C 72.59 51.73 72.40 52.79 72.30 53.33 C 71.85 53.44 70.94 53.68 70.49 53.80 C 69.83 52.59 68.72 50.58 67.10 51.99 C 65.81 53.18 64.54 51.44 63.33 51.04 Z" />
<path fill="#f4ffb9" opacity="1.00" d=" M 69.43 46.50 L 69.98 46.19 L 70.48 46.30 C 70.58 47.11 70.77 48.71 70.87 49.51 C 69.05 50.97 68.52 47.55 69.43 46.50 Z" />
<path fill="#3c71a9" opacity="1.00" d=" M 43.62 62.48 C 46.99 60.34 48.46 56.42 50.00 52.93 C 52.76 58.38 58.32 63.52 64.89 61.98 C 64.50 63.66 63.89 65.72 61.95 66.14 C 60.26 66.37 58.55 66.19 56.86 66.12 C 52.25 70.73 45.54 74.75 38.84 72.53 C 33.79 71.14 32.42 65.58 30.62 61.36 C 30.31 61.37 29.70 61.40 29.39 61.42 C 29.33 59.88 29.26 58.35 29.25 56.81 C 29.27 56.34 29.30 55.38 29.32 54.90 C 30.52 57.21 31.55 59.73 33.51 61.52 C 36.21 64.01 40.44 63.95 43.62 62.48 Z" />
<path fill="#5489ac" opacity="1.00" d=" M 20.67 60.64 C 23.57 59.48 26.52 58.37 29.25 56.81 C 29.26 58.35 29.33 59.88 29.39 61.42 C 26.46 61.75 23.46 61.69 20.67 60.64 Z" />
<path fill="#000000" opacity="1.00" d=" M 32.62 102.74 C 39.79 98.98 48.11 98.79 56.03 98.86 C 62.73 99.48 69.78 99.18 76.06 101.93 C 78.17 102.55 78.34 105.56 76.21 106.28 C 71.83 108.14 66.89 108.14 62.20 108.50 C 56.06 108.67 49.94 108.28 43.81 107.97 C 40.24 107.61 36.45 107.60 33.15 105.99 C 31.88 105.49 31.59 103.58 32.62 102.74 Z" />
<path fill="#000000" opacity="0.46" d=" M 43.81 107.97 C 49.94 108.28 56.06 108.67 62.20 108.50 C 56.45 111.08 49.72 109.15 43.81 107.97 Z" />
</svg>
