<?xml version="1.0" encoding="UTF-8" ?>
<!DOCTYPE svg PUBLIC "-//W3C//DTD SVG 1.1//EN" "http://www.w3.org/Graphics/SVG/1.1/DTD/svg11.dtd">
<svg width="111pt" height="111pt" viewBox="0 0 111 111" version="1.1" xmlns="http://www.w3.org/2000/svg">
<path fill="#010000" opacity="1.00" d=" M 33.43 0.00 L 35.22 0.00 C 34.18 2.01 33.26 4.10 32.44 6.21 C 31.19 8.71 29.83 11.15 28.63 13.67 C 24.56 12.44 20.70 14.63 18.10 17.65 C 15.18 22.38 16.92 28.01 17.97 33.02 C 14.55 35.44 10.28 37.26 8.25 41.14 C 6.80 43.50 8.23 46.08 9.06 48.35 C 10.36 48.39 11.67 48.42 12.97 48.45 C 15.81 45.95 19.56 44.60 23.32 45.48 C 30.41 40.59 39.10 38.37 47.66 38.42 C 53.37 37.10 58.72 34.48 64.42 33.07 C 63.10 35.03 61.71 36.94 60.31 38.84 C 62.82 38.05 65.32 37.24 67.85 36.53 C 73.38 35.11 78.90 33.70 84.46 32.44 C 90.65 31.20 96.85 30.00 103.13 29.35 C 101.64 30.76 100.16 32.21 98.45 33.36 C 92.01 37.76 85.77 42.47 79.14 46.59 C 78.10 47.26 77.05 47.92 76.01 48.59 C 74.33 48.30 72.66 48.02 70.98 47.75 C 65.76 52.09 58.62 50.08 52.43 50.77 C 52.95 52.21 53.31 53.69 53.76 55.15 C 53.89 55.50 54.15 56.21 54.28 56.57 C 50.93 59.10 48.87 62.76 46.91 66.38 C 47.95 68.16 49.58 69.81 49.61 71.99 C 50.07 74.32 47.20 74.87 45.75 75.96 L 45.13 76.30 C 45.43 77.42 45.74 78.54 46.07 79.66 C 40.26 86.32 33.66 92.98 25.24 96.18 C 25.45 95.62 25.87 94.51 26.08 93.95 C 27.51 90.74 27.13 87.13 26.29 83.82 C 26.04 83.58 25.55 83.09 25.30 82.85 C 24.29 81.87 23.25 80.93 22.19 80.01 C 23.79 79.06 25.45 78.21 27.15 77.44 C 25.42 75.12 24.50 72.37 23.85 69.58 C 23.67 68.89 23.32 67.51 23.14 66.82 C 22.85 66.95 22.27 67.20 21.98 67.33 C 18.35 65.75 18.22 61.24 17.19 57.94 C 16.72 57.69 15.79 57.20 15.33 56.95 C 12.14 55.06 8.46 56.29 5.07 55.32 C 4.54 56.27 4.00 57.22 3.46 58.18 C 4.86 59.19 6.27 60.18 7.67 61.19 C 8.73 60.17 9.79 59.15 10.87 58.15 L 11.06 59.63 C 8.80 62.23 6.52 65.05 6.11 68.61 C 7.90 71.09 10.42 72.84 13.11 74.20 C 14.51 74.96 15.92 75.69 17.30 76.48 C 18.21 77.01 19.12 77.54 20.03 78.07 C 18.10 82.11 13.45 86.90 16.86 91.39 C 17.46 91.77 18.65 92.53 19.24 92.91 C 20.57 91.52 21.91 90.15 23.27 88.78 C 21.25 91.81 19.40 95.03 18.81 98.67 C 19.73 98.36 21.57 97.75 22.49 97.44 C 23.16 99.29 23.34 101.24 23.27 103.20 L 25.29 102.09 C 26.04 105.03 26.57 108.01 27.04 111.00 L 25.51 111.00 C 24.77 108.95 24.75 106.80 25.09 104.67 C 23.89 104.27 22.22 104.40 21.58 103.07 C 21.75 102.15 22.08 100.32 22.25 99.40 C 20.70 99.56 19.01 100.47 17.58 99.44 C 17.26 97.73 18.04 96.10 18.54 94.50 C 16.76 93.02 14.30 91.65 14.16 89.06 C 13.56 85.01 16.13 81.57 18.73 78.80 C 17.45 78.17 16.16 77.53 14.87 76.90 C 13.45 78.71 12.09 81.12 9.48 81.25 C 6.08 81.73 1.17 80.04 1.27 75.94 C 0.98 73.34 2.81 71.36 4.54 69.71 C 4.69 67.11 5.47 64.62 6.72 62.33 C 5.32 61.37 3.77 60.57 2.64 59.28 C 1.83 57.59 3.08 56.00 3.78 54.54 C 2.50 53.95 1.23 53.32 0.00 52.62 L 0.00 51.08 C 0.67 51.40 2.02 52.02 2.69 52.34 C 5.54 53.71 8.68 55.34 11.81 53.71 C 13.12 54.43 14.43 55.16 15.74 55.88 C 15.43 54.60 15.26 53.29 15.12 51.98 C 15.05 50.65 14.38 49.96 13.11 49.89 C 9.84 49.76 6.56 49.85 3.28 49.85 C 2.19 49.84 1.09 49.83 0.00 49.81 L 0.00 48.42 C 2.33 48.42 4.66 48.40 6.99 48.41 C 6.43 45.84 5.51 43.05 6.65 40.50 C 8.48 36.47 12.67 34.36 16.55 32.72 C 15.51 28.90 14.22 24.89 15.09 20.90 C 16.28 15.22 22.09 11.08 27.85 11.64 C 29.85 7.82 31.47 3.83 33.43 0.00 M 75.46 36.51 C 70.12 37.21 65.04 39.13 59.84 40.47 C 58.05 40.81 56.55 41.81 55.17 42.95 C 56.40 43.45 57.65 43.88 58.92 44.26 C 59.94 44.71 60.96 45.16 61.98 45.62 C 60.47 46.71 59.09 48.00 57.47 48.95 C 61.38 48.40 66.09 50.00 69.21 46.86 L 69.54 46.18 C 71.62 46.36 73.70 46.59 75.77 46.91 C 80.67 43.80 85.69 40.80 90.11 37.01 C 93.17 35.38 95.84 33.12 98.77 31.27 C 90.99 32.89 83.01 34.07 75.46 36.51 M 47.12 39.86 C 42.70 40.62 37.95 40.35 33.80 42.21 C 30.45 43.27 27.01 44.51 24.36 46.91 L 24.21 46.20 C 22.28 48.70 19.40 50.16 16.36 50.80 C 16.87 53.25 17.65 55.62 18.72 57.88 C 25.02 54.78 32.22 52.25 39.19 54.64 C 40.50 52.79 42.58 53.32 44.50 53.53 L 43.82 54.52 C 45.56 55.13 47.29 55.72 49.03 56.32 C 49.10 54.60 49.19 52.89 49.27 51.17 C 50.90 50.36 52.51 49.51 54.10 48.63 C 55.83 47.97 57.38 46.92 58.99 46.03 C 56.95 45.22 54.75 44.61 53.07 43.12 C 54.56 41.77 55.78 40.18 56.99 38.58 C 58.03 38.39 58.95 37.96 59.77 37.27 C 55.30 36.69 51.46 39.51 47.12 39.86 M 15.26 47.26 C 13.89 48.72 16.53 50.02 17.32 48.48 C 18.52 47.08 16.08 45.88 15.26 47.26 M 50.63 52.90 C 50.57 54.69 50.44 56.48 50.04 58.23 C 48.47 57.68 46.89 57.13 45.31 56.58 C 46.02 58.62 46.61 60.70 47.08 62.81 C 48.91 60.49 49.97 57.46 52.87 56.19 C 52.21 55.03 51.49 53.91 50.63 52.90 M 29.02 56.54 C 31.17 56.31 33.32 56.17 35.48 56.14 C 35.74 58.97 35.89 61.81 36.00 64.65 C 37.68 62.27 38.57 59.49 38.79 56.61 C 35.77 55.95 31.53 54.18 29.02 56.54 M 39.23 55.34 C 39.56 55.76 40.20 56.59 40.52 57.00 C 39.41 60.88 38.58 65.93 34.45 67.74 C 33.82 68.41 33.31 69.18 32.90 70.03 C 33.14 70.65 33.62 71.88 33.86 72.50 C 34.55 72.30 35.92 71.90 36.61 71.70 C 37.50 69.12 38.45 66.56 39.47 64.03 C 40.19 64.26 40.91 64.48 41.64 64.70 C 41.55 62.40 41.53 60.09 41.16 57.81 C 41.73 58.08 42.85 58.61 43.42 58.88 C 43.42 62.26 42.56 65.57 41.68 68.82 C 41.29 68.76 40.51 68.65 40.12 68.59 L 39.07 67.44 C 38.76 69.50 38.16 71.51 37.40 73.45 C 34.56 73.64 31.62 73.98 29.08 75.35 C 28.16 74.10 27.22 72.84 26.00 71.87 C 26.36 74.79 28.81 76.54 30.30 78.86 C 31.20 78.60 32.07 78.29 32.93 77.92 C 36.05 76.81 39.00 75.25 41.45 72.99 C 41.05 72.09 40.27 70.31 39.87 69.42 L 41.60 69.08 L 42.34 70.69 C 44.34 68.71 46.12 65.96 45.60 63.02 C 45.10 60.33 43.81 57.88 42.69 55.42 C 41.54 55.38 40.39 55.36 39.23 55.34 M 19.22 59.66 C 19.76 61.13 19.24 64.03 21.48 63.91 C 21.45 62.52 21.43 61.12 21.40 59.73 C 21.80 59.28 22.60 58.37 23.00 57.92 C 21.72 58.46 20.46 59.04 19.22 59.66 M 22.85 62.65 C 22.10 64.03 22.46 65.29 23.73 66.12 L 23.41 65.78 C 23.92 66.24 24.96 67.18 25.47 67.64 C 26.55 69.50 27.77 71.27 29.08 72.97 C 30.79 70.54 30.55 67.58 30.31 64.79 C 29.84 63.49 29.38 62.20 28.93 60.90 C 28.52 60.17 28.11 59.44 27.71 58.70 C 25.10 57.25 22.21 59.83 22.85 62.65 M 30.19 59.00 C 31.02 62.09 31.32 65.45 32.89 68.27 C 33.96 64.72 32.69 61.15 31.09 57.99 L 30.19 59.00 M 46.22 67.89 C 46.07 68.60 45.76 70.02 45.61 70.72 C 43.74 72.75 41.26 74.25 39.77 76.59 C 36.28 78.24 32.89 80.08 29.29 81.47 L 28.26 81.96 C 28.34 81.24 28.52 79.82 28.60 79.10 C 27.25 79.24 25.89 79.43 24.89 80.45 C 25.58 80.70 26.94 81.19 27.63 81.44 C 28.15 85.33 28.95 89.19 28.52 93.14 C 28.84 92.88 29.46 92.38 29.77 92.13 C 30.57 91.72 31.30 91.22 31.96 90.62 C 36.85 87.62 40.93 83.44 44.55 79.02 C 43.97 78.01 43.39 77.00 42.82 75.99 C 44.62 75.05 46.36 74.02 48.11 72.98 C 48.97 71.11 47.09 69.41 46.22 67.89 M 4.21 72.56 C 3.97 72.88 3.50 73.51 3.27 73.83 C 3.07 74.55 2.69 75.99 2.49 76.71 C 4.66 80.79 11.64 80.81 13.26 76.24 C 11.60 75.18 9.93 74.12 8.23 73.11 C 7.45 72.42 6.68 71.74 5.91 71.06 C 4.92 71.35 4.36 71.85 4.21 72.56 Z" />
<path fill="#7bcf70" opacity="1.00" d=" M 35.22 0.00 L 47.04 0.00 C 47.00 5.27 46.52 10.54 47.01 15.80 C 48.08 16.11 49.16 16.42 50.25 16.72 C 50.58 17.34 51.26 18.56 51.60 19.18 C 53.09 16.33 53.83 13.19 54.10 10.00 C 54.40 6.63 54.82 3.26 55.74 0.00 L 80.30 0.00 C 80.20 1.63 80.09 3.27 79.98 4.90 C 78.53 4.80 77.08 4.70 75.64 4.51 C 74.80 3.40 73.94 2.32 73.00 1.30 C 73.32 2.72 73.71 4.12 74.14 5.50 C 71.74 7.45 69.24 9.74 68.79 12.97 C 67.97 17.55 72.44 22.05 77.03 21.21 C 81.37 20.58 85.99 17.55 86.76 12.97 C 87.25 9.94 85.02 7.51 82.76 5.88 C 83.51 3.91 84.26 1.92 85.14 0.00 L 97.69 0.00 C 94.78 5.68 91.86 11.49 87.40 16.13 C 81.01 23.05 73.62 29.06 67.85 36.53 C 65.32 37.24 62.82 38.05 60.31 38.84 C 61.71 36.94 63.10 35.03 64.42 33.07 C 58.72 34.48 53.37 37.10 47.66 38.42 C 39.10 38.37 30.41 40.59 23.32 45.48 C 19.56 44.60 15.81 45.95 12.97 48.45 C 11.67 48.42 10.36 48.39 9.06 48.35 C 8.23 46.08 6.80 43.50 8.25 41.14 C 10.28 37.26 14.55 35.44 17.97 33.02 C 21.41 35.88 25.05 38.74 29.62 39.42 C 24.25 33.11 19.78 25.87 18.10 17.65 C 20.70 14.63 24.56 12.44 28.63 13.67 C 28.49 15.18 28.40 16.68 28.35 18.19 C 29.93 17.31 30.46 15.55 31.08 13.98 C 31.97 11.49 33.30 8.91 32.44 6.21 C 33.26 4.10 34.18 2.01 35.22 0.00 Z" />
<path fill="#6cb586" opacity="1.00" d=" M 47.04 0.00 L 47.68 0.00 C 47.82 2.08 48.03 4.16 48.19 6.24 C 50.39 7.09 52.40 8.35 54.10 10.00 C 53.83 13.19 53.09 16.33 51.60 19.18 C 51.26 18.56 50.58 17.34 50.25 16.72 C 49.16 16.42 48.08 16.11 47.01 15.80 C 46.52 10.54 47.00 5.27 47.04 0.00 Z" />
<path fill="#63a394" opacity="1.00" d=" M 47.68 0.00 L 55.74 0.00 C 54.82 3.26 54.40 6.63 54.10 10.00 C 52.40 8.35 50.39 7.09 48.19 6.24 C 48.03 4.16 47.82 2.08 47.68 0.00 Z" />
<path fill="#588fa4" opacity="1.00" d=" M 80.30 0.00 L 85.14 0.00 C 84.26 1.92 83.51 3.91 82.76 5.88 C 81.85 5.51 80.92 5.19 79.98 4.90 C 80.09 3.27 80.20 1.63 80.30 0.00 Z" />
<path fill="#4e7fb1" opacity="1.00" d=" M 97.69 0.00 L 111.00 0.00 L 111.00 10.91 C 109.75 12.16 108.18 14.09 109.38 15.89 C 102.03 19.83 95.44 25.02 88.36 29.40 C 89.53 25.70 92.36 22.52 91.77 18.40 C 90.31 17.65 88.85 16.89 87.40 16.13 C 91.86 11.49 94.78 5.68 97.69 0.00 Z" />
<path fill="#010000" opacity="1.00" d=" M 73.00 1.30 C 73.94 2.32 74.80 3.40 75.64 4.51 C 77.08 4.70 78.53 4.80 79.98 4.90 C 80.92 5.19 81.85 5.51 82.76 5.88 C 85.02 7.51 87.25 9.94 86.76 12.97 C 85.99 17.55 81.37 20.58 77.03 21.21 C 72.44 22.05 67.97 17.55 68.79 12.97 C 69.24 9.74 71.74 7.45 74.14 5.50 C 73.71 4.12 73.32 2.72 73.00 1.30 M 75.60 7.42 C 74.38 7.07 73.40 7.35 72.65 8.27 C 71.45 9.71 70.48 11.33 70.11 13.20 C 70.21 14.09 70.42 15.89 70.53 16.78 C 71.59 17.89 72.77 18.88 74.05 19.73 C 79.48 20.51 87.34 15.88 84.67 9.66 C 83.09 7.98 81.17 6.45 78.72 6.54 L 78.74 6.12 C 77.45 5.94 76.35 6.34 75.60 7.42 Z" />
<path fill="#ff6674" opacity="1.00" d=" M 75.60 7.42 C 76.35 6.34 77.45 5.94 78.74 6.12 L 78.72 6.54 C 78.46 8.82 78.98 11.50 77.38 13.39 C 75.74 15.52 72.87 15.86 70.53 16.78 C 70.42 15.89 70.21 14.09 70.11 13.20 C 71.60 12.55 73.08 11.87 74.54 11.16 C 74.07 10.43 73.13 8.99 72.65 8.27 C 73.40 7.35 74.38 7.07 75.60 7.42 Z" />
<path fill="#ffe59f" opacity="1.00" d=" M 28.63 13.67 C 29.83 11.15 31.19 8.71 32.44 6.21 C 33.30 8.91 31.97 11.49 31.08 13.98 C 30.46 15.55 29.93 17.31 28.35 18.19 C 28.40 16.68 28.49 15.18 28.63 13.67 Z" />
<path fill="#9d2e52" opacity="1.00" d=" M 78.72 6.54 C 81.17 6.45 83.09 7.98 84.67 9.66 C 80.73 12.57 77.30 16.08 74.05 19.73 C 72.77 18.88 71.59 17.89 70.53 16.78 C 72.87 15.86 75.74 15.52 77.38 13.39 C 78.98 11.50 78.46 8.82 78.72 6.54 Z" />
<path fill="#fbdfbb" opacity="1.00" d=" M 70.11 13.20 C 70.48 11.33 71.45 9.71 72.65 8.27 C 73.13 8.99 74.07 10.43 74.54 11.16 C 73.08 11.87 71.60 12.55 70.11 13.20 Z" />
<path fill="#761c49" opacity="1.00" d=" M 84.67 9.66 C 87.34 15.88 79.48 20.51 74.05 19.73 C 77.30 16.08 80.73 12.57 84.67 9.66 Z" />
<path fill="#010000" opacity="1.00" d=" M 109.38 15.89 C 108.18 14.09 109.75 12.16 111.00 10.91 L 111.00 15.50 C 110.60 15.60 109.79 15.79 109.38 15.89 Z" />
<path fill="#61a196" opacity="1.00" d=" M 67.85 36.53 C 73.62 29.06 81.01 23.05 87.40 16.13 C 88.85 16.89 90.31 17.65 91.77 18.40 C 92.36 22.52 89.53 25.70 88.36 29.40 C 87.04 30.38 85.77 31.43 84.46 32.44 C 78.90 33.70 73.38 35.11 67.85 36.53 Z" />
<path fill="#7bce71" opacity="1.00" d=" M 88.36 29.40 C 95.44 25.02 102.03 19.83 109.38 15.89 C 109.79 15.79 110.60 15.60 111.00 15.50 L 111.00 30.94 C 108.17 32.94 105.21 34.75 102.53 36.97 C 105.40 36.37 108.25 35.67 111.00 34.67 L 111.00 36.80 C 110.52 38.34 110.28 39.90 110.30 41.51 C 108.94 40.55 106.70 38.13 105.23 40.31 C 103.16 42.97 106.28 45.82 108.84 46.38 C 109.01 46.92 109.33 48.00 109.49 48.53 C 109.87 48.91 110.62 49.65 111.00 50.02 L 111.00 56.75 C 102.16 58.89 93.03 59.35 83.97 59.31 C 81.10 59.31 78.46 60.56 75.76 61.35 C 78.34 62.77 80.96 64.13 83.69 65.25 C 81.50 67.17 79.47 70.25 80.81 73.23 C 82.44 76.80 87.82 77.09 90.15 74.09 C 92.37 71.74 91.45 68.19 89.68 65.88 C 94.38 66.47 99.54 68.36 101.71 72.92 C 102.27 74.17 102.85 75.41 103.40 76.66 C 102.07 81.19 97.81 84.67 93.08 84.80 C 83.46 83.53 75.52 77.34 66.24 74.93 C 65.90 75.94 65.54 76.95 65.19 77.96 C 62.98 80.56 60.62 83.44 57.14 84.28 C 54.65 85.11 52.17 83.85 49.78 83.25 C 48.27 80.91 46.93 78.48 45.75 75.96 C 47.20 74.87 50.07 74.32 49.61 71.99 C 49.58 69.81 47.95 68.16 46.91 66.38 C 48.87 62.76 50.93 59.10 54.28 56.57 C 54.15 56.21 53.89 55.50 53.76 55.15 C 56.73 55.22 59.23 56.86 61.97 57.75 C 66.48 58.29 70.58 55.81 74.83 54.72 C 81.26 52.51 88.02 51.31 94.29 48.65 C 89.23 48.04 84.14 47.67 79.14 46.59 C 85.77 42.47 92.01 37.76 98.45 33.36 C 100.16 32.21 101.64 30.76 103.13 29.35 C 96.85 30.00 90.65 31.20 84.46 32.44 C 85.77 31.43 87.04 30.38 88.36 29.40 Z" />
<path fill="#548ba7" opacity="1.00" d=" M 18.10 17.65 C 19.78 25.87 24.25 33.11 29.62 39.42 C 25.05 38.74 21.41 35.88 17.97 33.02 C 16.92 28.01 15.18 22.38 18.10 17.65 Z" />
<path fill="#5388aa" opacity="1.00" d=" M 102.53 36.97 C 105.21 34.75 108.17 32.94 111.00 30.94 L 111.00 34.67 C 108.25 35.67 105.40 36.37 102.53 36.97 Z" />
<path fill="#ffd468" opacity="1.00" d=" M 75.46 36.51 C 83.01 34.07 90.99 32.89 98.77 31.27 C 95.84 33.12 93.17 35.38 90.11 37.01 C 83.23 38.68 76.47 40.79 69.50 42.08 C 68.30 42.26 67.11 42.45 65.92 42.64 C 68.96 40.38 72.33 38.64 75.46 36.51 Z" />
<path fill="#ffe59f" opacity="1.00" d=" M 59.84 40.47 C 65.04 39.13 70.12 37.21 75.46 36.51 C 72.33 38.64 68.96 40.38 65.92 42.64 C 65.44 42.93 64.47 43.52 63.98 43.81 C 62.29 43.91 60.60 44.05 58.92 44.26 C 57.65 43.88 56.40 43.45 55.17 42.95 C 56.55 41.81 58.05 40.81 59.84 40.47 Z" />
<path fill="#988484" opacity="1.00" d=" M 47.12 39.86 C 51.46 39.51 55.30 36.69 59.77 37.27 C 58.95 37.96 58.03 38.39 56.99 38.58 C 54.70 39.05 52.52 39.88 50.34 40.71 C 45.07 40.70 39.97 42.39 35.52 45.15 C 36.35 46.99 37.21 48.86 38.63 50.33 C 41.19 51.81 44.24 52.18 46.95 53.32 C 46.34 53.37 45.11 53.48 44.50 53.53 C 42.58 53.32 40.50 52.79 39.19 54.64 C 32.22 52.25 25.02 54.78 18.72 57.88 C 17.65 55.62 16.87 53.25 16.36 50.80 C 19.40 50.16 22.28 48.70 24.21 46.20 L 24.36 46.91 C 27.91 46.33 31.05 44.45 33.80 42.21 C 37.95 40.35 42.70 40.62 47.12 39.86 Z" />
<path fill="#985433" opacity="1.00" d=" M 69.50 42.08 C 76.47 40.79 83.23 38.68 90.11 37.01 C 85.69 40.80 80.67 43.80 75.77 46.91 C 73.70 46.59 71.62 46.36 69.54 46.18 C 70.08 45.05 70.76 44.01 71.42 42.95 C 70.94 42.73 69.98 42.30 69.50 42.08 Z" />
<path fill="#010000" opacity="1.00" d=" M 110.30 41.51 C 110.28 39.90 110.52 38.34 111.00 36.80 L 111.00 45.99 C 109.48 46.64 109.48 47.27 111.00 47.89 L 111.00 50.02 C 110.62 49.65 109.87 48.91 109.49 48.53 C 109.33 48.00 109.01 46.92 108.84 46.38 C 106.28 45.82 103.16 42.97 105.23 40.31 C 106.70 38.13 108.94 40.55 110.30 41.51 M 106.06 40.91 C 105.50 43.43 107.67 44.77 109.80 44.76 C 110.23 42.65 107.94 41.05 106.06 40.91 Z" />
<path fill="#826366" opacity="1.00" d=" M 50.34 40.71 C 52.52 39.88 54.70 39.05 56.99 38.58 C 55.78 40.18 54.56 41.77 53.07 43.12 C 54.75 44.61 56.95 45.22 58.99 46.03 C 57.38 46.92 55.83 47.97 54.10 48.63 C 51.80 48.37 49.52 47.90 47.26 47.40 C 48.42 45.90 49.54 44.38 50.67 42.85 C 50.59 42.32 50.42 41.25 50.34 40.71 Z" />
<path fill="#010000" opacity="1.00" d=" M 35.52 45.15 C 39.97 42.39 45.07 40.70 50.34 40.71 C 50.42 41.25 50.59 42.32 50.67 42.85 C 49.54 44.38 48.42 45.90 47.26 47.40 C 44.62 49.40 41.28 48.68 38.32 47.93 C 38.40 48.53 38.56 49.73 38.63 50.33 C 37.21 48.86 36.35 46.99 35.52 45.15 M 37.13 45.96 C 39.02 46.71 40.93 47.68 43.03 47.54 C 46.55 47.96 48.60 44.36 49.68 41.57 C 45.44 42.72 40.71 43.27 37.13 45.96 Z" />
<path fill="#ffe59f" opacity="1.00" d=" M 24.36 46.91 C 27.01 44.51 30.45 43.27 33.80 42.21 C 31.05 44.45 27.91 46.33 24.36 46.91 Z" />
<path fill="#61ffe9" opacity="1.00" d=" M 37.13 45.96 C 40.71 43.27 45.44 42.72 49.68 41.57 C 48.60 44.36 46.55 47.96 43.03 47.54 C 40.93 47.68 39.02 46.71 37.13 45.96 Z" />
<path fill="#fdd568" opacity="1.00" d=" M 106.06 40.91 C 107.94 41.05 110.23 42.65 109.80 44.76 C 107.67 44.77 105.50 43.43 106.06 40.91 Z" />
<path fill="#8c4225" opacity="1.00" d=" M 63.98 43.81 C 64.47 43.52 65.44 42.93 65.92 42.64 C 67.11 42.45 68.30 42.26 69.50 42.08 C 69.98 42.30 70.94 42.73 71.42 42.95 C 70.76 44.01 70.08 45.05 69.54 46.18 L 69.21 46.86 C 66.09 50.00 61.38 48.40 57.47 48.95 C 59.09 48.00 60.47 46.71 61.98 45.62 C 60.96 45.16 59.94 44.71 58.92 44.26 C 60.60 44.05 62.29 43.91 63.98 43.81 Z" />
<path fill="#ffd468" opacity="1.00" d=" M 111.00 47.89 C 109.48 47.27 109.48 46.64 111.00 45.99 L 111.00 47.89 Z" />
<path fill="#aba8ab" opacity="1.00" d=" M 15.26 47.26 C 16.08 45.88 18.52 47.08 17.32 48.48 C 16.53 50.02 13.89 48.72 15.26 47.26 Z" />
<path fill="#62343a" opacity="1.00" d=" M 38.32 47.93 C 41.28 48.68 44.62 49.40 47.26 47.40 C 49.52 47.90 51.80 48.37 54.10 48.63 C 52.51 49.51 50.90 50.36 49.27 51.17 C 49.19 52.89 49.10 54.60 49.03 56.32 C 47.29 55.72 45.56 55.13 43.82 54.52 L 44.50 53.53 C 45.11 53.48 46.34 53.37 46.95 53.32 C 44.24 52.18 41.19 51.81 38.63 50.33 C 38.56 49.73 38.40 48.53 38.32 47.93 Z" />
<path fill="#548aa9" opacity="1.00" d=" M 76.01 48.59 C 77.05 47.92 78.10 47.26 79.14 46.59 C 84.14 47.67 89.23 48.04 94.29 48.65 C 88.02 51.31 81.26 52.51 74.83 54.72 C 70.58 55.81 66.48 58.29 61.97 57.75 C 59.23 56.86 56.73 55.22 53.76 55.15 C 53.31 53.69 52.95 52.21 52.43 50.77 C 58.62 50.08 65.76 52.09 70.98 47.75 C 72.66 48.02 74.33 48.30 76.01 48.59 Z" />
<path fill="#d18870" opacity="1.00" d=" M 0.00 49.81 C 1.09 49.83 2.19 49.84 3.28 49.85 C 4.57 50.51 5.85 51.18 7.14 51.82 C 5.66 51.99 4.18 52.17 2.69 52.34 C 2.02 52.02 0.67 51.40 0.00 51.08 L 0.00 49.81 Z" />
<path fill="#f3dcdc" opacity="1.00" d=" M 3.28 49.85 C 6.56 49.85 9.84 49.76 13.11 49.89 C 12.92 50.47 12.55 51.62 12.37 52.20 C 10.63 52.04 8.89 51.92 7.14 51.82 C 5.85 51.18 4.57 50.51 3.28 49.85 Z" />
<path fill="#cdad64" opacity="1.00" d=" M 13.11 49.89 C 14.38 49.96 15.05 50.65 15.12 51.98 C 14.43 52.04 13.06 52.15 12.37 52.20 C 12.55 51.62 12.92 50.47 13.11 49.89 Z" />
<path fill="#b36a4c" opacity="1.00" d=" M 2.69 52.34 C 4.18 52.17 5.66 51.99 7.14 51.82 C 8.89 51.92 10.63 52.04 12.37 52.20 C 13.06 52.15 14.43 52.04 15.12 51.98 C 15.26 53.29 15.43 54.60 15.74 55.88 C 14.43 55.16 13.12 54.43 11.81 53.71 C 8.68 55.34 5.54 53.71 2.69 52.34 Z" />
<path fill="#734c51" opacity="1.00" d=" M 50.63 52.90 C 51.49 53.91 52.21 55.03 52.87 56.19 C 49.97 57.46 48.91 60.49 47.08 62.81 C 46.61 60.70 46.02 58.62 45.31 56.58 C 46.89 57.13 48.47 57.68 50.04 58.23 C 50.44 56.48 50.57 54.69 50.63 52.90 Z" />
<path fill="#558cad" opacity="1.00" d=" M 5.07 55.32 C 8.46 56.29 12.14 55.06 15.33 56.95 C 13.91 57.85 12.46 58.70 11.06 59.63 L 10.87 58.15 C 9.79 59.15 8.73 60.17 7.67 61.19 C 6.27 60.18 4.86 59.19 3.46 58.18 C 4.00 57.22 4.54 56.27 5.07 55.32 Z" />
<path fill="#ffd468" opacity="1.00" d=" M 29.02 56.54 C 31.53 54.18 35.77 55.95 38.79 56.61 C 38.57 59.49 37.68 62.27 36.00 64.65 C 35.89 61.81 35.74 58.97 35.48 56.14 C 33.32 56.17 31.17 56.31 29.02 56.54 Z" />
<path fill="#683d44" opacity="1.00" d=" M 39.23 55.34 C 40.39 55.36 41.54 55.38 42.69 55.42 C 43.81 57.88 45.10 60.33 45.60 63.02 C 46.12 65.96 44.34 68.71 42.34 70.69 L 41.60 69.08 C 41.62 69.01 41.66 68.88 41.68 68.82 C 42.56 65.57 43.42 62.26 43.42 58.88 C 42.85 58.61 41.73 58.08 41.16 57.81 C 41.00 57.61 40.68 57.21 40.52 57.00 C 40.20 56.59 39.56 55.76 39.23 55.34 Z" />
<path fill="#7bcf70" opacity="1.00" d=" M 15.33 56.95 C 15.79 57.20 16.72 57.69 17.19 57.94 C 17.13 58.62 17.00 59.96 16.93 60.63 C 13.44 63.45 10.26 66.74 6.11 68.61 C 6.52 65.05 8.80 62.23 11.06 59.63 C 12.46 58.70 13.91 57.85 15.33 56.95 Z" />
<path fill="#ff6d7c" opacity="1.00" d=" M 40.52 57.00 C 40.68 57.21 41.00 57.61 41.16 57.81 C 41.53 60.09 41.55 62.40 41.64 64.70 C 40.91 64.48 40.19 64.26 39.47 64.03 C 38.45 66.56 37.50 69.12 36.61 71.70 C 35.92 71.90 34.55 72.30 33.86 72.50 C 33.62 71.88 33.14 70.65 32.90 70.03 C 33.31 69.18 33.82 68.41 34.45 67.74 C 38.58 65.93 39.41 60.88 40.52 57.00 Z" />
<path fill="#4f81b0" opacity="1.00" d=" M 83.97 59.31 C 93.03 59.35 102.16 58.89 111.00 56.75 L 111.00 64.18 C 107.08 65.65 102.99 66.58 98.91 67.47 C 100.04 68.28 101.17 69.10 102.29 69.93 C 102.15 70.68 101.85 72.18 101.71 72.92 C 99.54 68.36 94.38 66.47 89.68 65.88 C 89.40 65.49 88.84 64.73 88.55 64.34 C 87.96 64.17 86.76 63.84 86.16 63.67 C 85.51 62.71 85.70 60.41 84.25 60.36 C 83.50 61.82 84.58 63.36 84.91 64.80 C 84.61 64.91 84.00 65.14 83.69 65.25 C 80.96 64.13 78.34 62.77 75.76 61.35 C 78.46 60.56 81.10 59.31 83.97 59.31 Z" />
<path fill="#69af8a" opacity="1.00" d=" M 17.19 57.94 C 18.22 61.24 18.35 65.75 21.98 67.33 C 19.30 69.96 16.21 72.10 13.11 74.20 C 10.42 72.84 7.90 71.09 6.11 68.61 C 10.26 66.74 13.44 63.45 16.93 60.63 C 17.00 59.96 17.13 58.62 17.19 57.94 Z" />
<path fill="#ffd468" opacity="1.00" d=" M 19.22 59.66 C 20.46 59.04 21.72 58.46 23.00 57.92 C 22.60 58.37 21.80 59.28 21.40 59.73 C 21.43 61.12 21.45 62.52 21.48 63.91 C 19.24 64.03 19.76 61.13 19.22 59.66 Z" />
<path fill="#50859e" opacity="1.00" d=" M 22.85 62.65 C 22.21 59.83 25.10 57.25 27.71 58.70 C 26.11 60.04 24.46 61.32 22.85 62.65 Z" />
<path fill="#6fba80" opacity="1.00" d=" M 27.71 58.70 C 28.11 59.44 28.52 60.17 28.93 60.90 C 27.11 62.53 25.61 64.45 24.17 66.40 L 23.73 66.12 C 22.46 65.29 22.10 64.03 22.85 62.65 C 24.46 61.32 26.11 60.04 27.71 58.70 Z" />
<path fill="#482e31" opacity="1.00" d=" M 30.19 59.00 L 31.09 57.99 C 32.69 61.15 33.96 64.72 32.89 68.27 C 31.32 65.45 31.02 62.09 30.19 59.00 Z" />
<path fill="#010000" opacity="1.00" d=" M 84.25 60.36 C 85.70 60.41 85.51 62.71 86.16 63.67 C 86.76 63.84 87.96 64.17 88.55 64.34 C 88.84 64.73 89.40 65.49 89.68 65.88 C 91.45 68.19 92.37 71.74 90.15 74.09 C 87.82 77.09 82.44 76.80 80.81 73.23 C 79.47 70.25 81.50 67.17 83.69 65.25 C 84.00 65.14 84.61 64.91 84.91 64.80 C 84.58 63.36 83.50 61.82 84.25 60.36 M 83.98 67.86 L 83.34 67.62 C 81.99 68.47 81.67 69.59 82.41 70.98 C 82.56 71.76 82.86 73.33 83.01 74.11 C 84.88 74.81 87.03 74.90 88.78 73.80 C 90.42 72.21 89.85 69.87 89.78 67.86 L 89.14 68.08 C 88.59 65.94 83.58 65.30 83.98 67.86 Z" />
<path fill="#548a9f" opacity="1.00" d=" M 24.17 66.40 C 25.61 64.45 27.11 62.53 28.93 60.90 C 29.38 62.20 29.84 63.49 30.31 64.79 C 28.71 65.76 27.09 66.71 25.47 67.64 C 24.96 67.18 23.92 66.24 23.41 65.78 L 23.73 66.12 L 24.17 66.40 Z" />
<path fill="#000000" opacity="1.00" d=" M 98.91 67.47 C 102.99 66.58 107.08 65.65 111.00 64.18 L 111.00 66.09 C 108.47 66.96 105.87 67.55 103.26 68.11 C 103.25 71.47 104.23 74.72 104.99 77.97 C 105.44 80.94 104.29 83.86 102.77 86.37 C 98.81 91.11 92.29 92.27 86.47 91.08 C 86.43 92.22 86.39 93.35 86.36 94.48 C 84.83 96.62 82.81 98.41 80.12 98.79 C 81.47 102.71 81.88 106.87 81.80 111.00 L 80.20 111.00 C 80.42 106.64 79.43 102.37 77.77 98.37 C 75.38 97.73 73.12 96.72 71.02 95.41 C 70.14 96.27 69.26 97.13 68.37 98.00 C 70.00 99.79 71.29 101.85 72.18 104.11 C 72.72 103.60 73.79 102.59 74.33 102.09 C 76.99 104.30 77.29 107.79 77.40 111.00 L 75.58 111.00 C 75.50 108.58 75.66 106.00 74.12 103.95 C 72.97 106.09 70.31 108.43 72.02 111.00 L 70.52 111.00 C 68.51 109.60 66.43 108.32 64.31 107.09 C 62.87 108.43 61.41 109.76 59.89 111.00 L 58.70 111.00 C 58.45 108.90 58.04 106.82 57.46 104.79 C 54.01 104.66 50.94 103.10 48.26 101.04 C 47.86 101.90 47.46 102.76 47.04 103.61 C 45.30 106.46 43.01 108.96 40.37 111.00 L 37.38 111.00 C 37.96 110.61 39.13 109.83 39.71 109.44 C 43.00 107.05 45.49 103.74 47.07 100.01 C 46.09 98.41 44.97 96.73 45.32 94.76 C 48.24 98.39 51.72 103.24 56.97 102.78 C 62.48 101.54 66.54 97.24 70.87 93.91 C 74.37 95.55 78.30 97.60 82.24 96.22 C 84.95 95.39 84.87 92.18 85.43 89.93 C 90.12 89.71 95.33 90.34 99.33 87.36 C 102.80 85.06 104.01 80.61 103.40 76.66 C 102.85 75.41 102.27 74.17 101.71 72.92 C 101.85 72.18 102.15 70.68 102.29 69.93 C 101.17 69.10 100.04 68.28 98.91 67.47 M 63.14 105.43 C 65.61 106.08 67.93 107.15 70.10 108.48 C 71.95 105.00 69.60 101.29 67.00 98.98 C 64.79 100.50 63.89 102.98 63.14 105.43 M 58.72 104.26 C 59.42 105.65 59.11 107.99 60.80 108.63 C 61.91 106.68 62.05 104.38 62.64 102.25 C 61.34 102.93 60.03 103.60 58.72 104.26 Z" />
<path fill="#79cb76" opacity="1.00" d=" M 25.47 67.64 C 27.09 66.71 28.71 65.76 30.31 64.79 C 30.55 67.58 30.79 70.54 29.08 72.97 C 27.77 71.27 26.55 69.50 25.47 67.64 Z" />
<path fill="#ff6674" opacity="1.00" d=" M 83.98 67.86 C 83.58 65.30 88.59 65.94 89.14 68.08 C 86.25 68.92 84.99 72.10 83.01 74.11 C 82.86 73.33 82.56 71.76 82.41 70.98 C 83.75 70.59 84.62 69.22 83.98 67.86 Z" />
<path fill="#734c51" opacity="1.00" d=" M 103.26 68.11 C 105.87 67.55 108.47 66.96 111.00 66.09 L 111.00 71.13 C 110.67 70.87 110.02 70.33 109.69 70.06 C 107.57 70.57 110.08 73.14 111.00 73.86 L 111.00 84.33 C 109.75 85.50 108.50 86.67 107.30 87.89 C 105.92 87.02 104.39 86.52 102.77 86.37 C 104.29 83.86 105.44 80.94 104.99 77.97 C 104.23 74.72 103.25 71.47 103.26 68.11 Z" />
<path fill="#5287ab" opacity="1.00" d=" M 21.98 67.33 C 22.27 67.20 22.85 66.95 23.14 66.82 C 23.32 67.51 23.67 68.89 23.85 69.58 C 21.59 71.81 19.41 74.11 17.30 76.48 C 15.92 75.69 14.51 74.96 13.11 74.20 C 16.21 72.10 19.30 69.96 21.98 67.33 Z" />
<path fill="#fdd568" opacity="1.00" d=" M 39.07 67.44 L 40.12 68.59 C 40.51 68.65 41.29 68.76 41.68 68.82 C 41.66 68.88 41.62 69.01 41.60 69.08 L 39.87 69.42 C 40.27 70.31 41.05 72.09 41.45 72.99 C 39.00 75.25 36.05 76.81 32.93 77.92 C 32.07 78.29 31.20 78.60 30.30 78.86 C 28.81 76.54 26.36 74.79 26.00 71.87 C 27.22 72.84 28.16 74.10 29.08 75.35 C 31.62 73.98 34.56 73.64 37.40 73.45 C 38.16 71.51 38.76 69.50 39.07 67.44 Z" />
<path fill="#6b4045" opacity="1.00" d=" M 46.22 67.89 C 47.09 69.41 48.97 71.11 48.11 72.98 C 46.36 74.02 44.62 75.05 42.82 75.99 C 43.39 77.00 43.97 78.01 44.55 79.02 C 40.93 83.44 36.85 87.62 31.96 90.62 C 33.07 88.80 34.34 86.99 34.86 84.90 C 34.64 83.48 33.86 82.23 33.30 80.93 C 35.68 79.92 38.86 79.41 39.77 76.59 C 41.26 74.25 43.74 72.75 45.61 70.72 C 45.76 70.02 46.07 68.60 46.22 67.89 Z" />
<path fill="#ffe59f" opacity="1.00" d=" M 83.34 67.62 L 83.98 67.86 C 84.62 69.22 83.75 70.59 82.41 70.98 C 81.67 69.59 81.99 68.47 83.34 67.62 Z" />
<path fill="#81254f" opacity="1.00" d=" M 89.14 68.08 L 89.78 67.86 C 89.85 69.87 90.42 72.21 88.78 73.80 C 87.03 74.90 84.88 74.81 83.01 74.11 C 84.99 72.10 86.25 68.92 89.14 68.08 Z" />
<path fill="#77c777" opacity="1.00" d=" M 17.30 76.48 C 19.41 74.11 21.59 71.81 23.85 69.58 C 24.50 72.37 25.42 75.12 27.15 77.44 C 25.45 78.21 23.79 79.06 22.19 80.01 C 23.25 80.93 24.29 81.87 25.30 82.85 C 22.58 85.79 19.82 88.69 16.86 91.39 C 13.45 86.90 18.10 82.11 20.03 78.07 C 19.12 77.54 18.21 77.01 17.30 76.48 Z" />
<path fill="#24181a" opacity="1.00" d=" M 111.00 73.86 C 110.08 73.14 107.57 70.57 109.69 70.06 C 110.02 70.33 110.67 70.87 111.00 71.13 L 111.00 73.86 Z" />
<path fill="#ff6d7c" opacity="1.00" d=" M 4.21 72.56 C 4.36 71.85 4.92 71.35 5.91 71.06 C 6.68 71.74 7.45 72.42 8.23 73.11 C 6.34 74.34 4.42 75.53 2.49 76.71 C 2.69 75.99 3.07 74.55 3.27 73.83 C 4.78 74.37 5.09 73.95 4.21 72.56 Z" />
<path fill="#d3d3b7" opacity="1.00" d=" M 3.27 73.83 C 3.50 73.51 3.97 72.88 4.21 72.56 C 5.09 73.95 4.78 74.37 3.27 73.83 Z" />
<path fill="#a53455" opacity="1.00" d=" M 8.23 73.11 C 9.93 74.12 11.60 75.18 13.26 76.24 C 11.64 80.81 4.66 80.79 2.49 76.71 C 4.42 75.53 6.34 74.34 8.23 73.11 Z" />
<path fill="#4e7fb0" opacity="1.00" d=" M 66.24 74.93 C 75.52 77.34 83.46 83.53 93.08 84.80 C 97.81 84.67 102.07 81.19 103.40 76.66 C 104.01 80.61 102.80 85.06 99.33 87.36 C 95.33 90.34 90.12 89.71 85.43 89.93 C 84.87 92.18 84.95 95.39 82.24 96.22 C 78.30 97.60 74.37 95.55 70.87 93.91 C 66.54 97.24 62.48 101.54 56.97 102.78 C 51.72 103.24 48.24 98.39 45.32 94.76 C 44.97 96.73 46.09 98.41 47.07 100.01 C 45.49 103.74 43.00 107.05 39.71 109.44 C 38.73 108.27 37.74 107.12 36.81 105.91 C 38.24 98.55 44.89 93.67 47.55 86.83 C 48.31 84.31 47.03 81.91 46.07 79.66 C 45.74 78.54 45.43 77.42 45.13 76.30 L 45.75 75.96 C 46.93 78.48 48.27 80.91 49.78 83.25 C 51.12 85.56 52.99 88.19 56.04 87.80 C 61.31 87.78 64.20 82.48 65.19 77.96 C 65.54 76.95 65.90 75.94 66.24 74.93 Z" />
<path fill="#8f7779" opacity="1.00" d=" M 29.29 81.47 C 32.89 80.08 36.28 78.24 39.77 76.59 C 38.86 79.41 35.68 79.92 33.30 80.93 C 33.86 82.23 34.64 83.48 34.86 84.90 C 34.34 86.99 33.07 88.80 31.96 90.62 C 31.30 91.22 30.57 91.72 29.77 92.13 C 30.83 88.60 30.16 84.95 29.29 81.47 Z" />
<path fill="#6bb387" opacity="1.00" d=" M 57.14 84.28 C 60.62 83.44 62.98 80.56 65.19 77.96 C 64.20 82.48 61.31 87.78 56.04 87.80 C 52.99 88.19 51.12 85.56 49.78 83.25 C 52.17 83.85 54.65 85.11 57.14 84.28 Z" />
<path fill="#ffe59f" opacity="1.00" d=" M 24.89 80.45 C 25.89 79.43 27.25 79.24 28.60 79.10 C 28.52 79.82 28.34 81.24 28.26 81.96 L 29.29 81.47 C 30.16 84.95 30.83 88.60 29.77 92.13 C 29.46 92.38 28.84 92.88 28.52 93.14 C 28.95 89.19 28.15 85.33 27.63 81.44 C 26.94 81.19 25.58 80.70 24.89 80.45 Z" />
<path fill="#7bcf70" opacity="1.00" d=" M 25.24 96.18 C 33.66 92.98 40.26 86.32 46.07 79.66 C 47.03 81.91 48.31 84.31 47.55 86.83 C 44.89 93.67 38.24 98.55 36.81 105.91 C 36.47 104.68 36.13 103.45 35.77 102.23 C 33.21 104.45 30.12 105.91 26.74 106.35 C 26.91 105.37 27.23 103.40 27.40 102.41 C 26.27 102.09 25.14 101.79 24.01 101.49 C 24.33 99.70 24.64 97.90 25.24 96.18 Z" />
<path fill="#70bb84" opacity="1.00" d=" M 25.30 82.85 C 25.55 83.09 26.04 83.58 26.29 83.82 C 27.13 87.13 27.51 90.74 26.08 93.95 C 24.95 95.18 23.76 96.36 22.49 97.44 C 21.57 97.75 19.73 98.36 18.81 98.67 C 19.40 95.03 21.25 91.81 23.27 88.78 C 21.91 90.15 20.57 91.52 19.24 92.91 C 18.65 92.53 17.46 91.77 16.86 91.39 C 19.82 88.69 22.58 85.79 25.30 82.85 Z" />
<path fill="#0e0708" opacity="1.00" d=" M 107.30 87.89 C 108.50 86.67 109.75 85.50 111.00 84.33 L 111.00 86.64 C 109.23 88.66 107.33 90.55 105.52 92.54 C 103.34 94.74 101.78 97.43 100.40 100.17 C 104.15 102.23 107.70 98.96 111.00 97.47 L 111.00 99.48 C 107.61 101.44 103.92 103.62 99.86 102.44 C 100.67 103.61 101.38 104.84 102.04 106.10 C 100.87 107.75 99.75 109.43 98.48 111.00 L 96.58 111.00 C 99.57 107.99 98.56 103.80 98.81 100.02 C 100.08 95.11 104.06 91.58 107.30 87.89 Z" />
<path fill="#65383f" opacity="1.00" d=" M 102.77 86.37 C 104.39 86.52 105.92 87.02 107.30 87.89 C 104.06 91.58 100.08 95.11 98.81 100.02 C 98.56 103.80 99.57 107.99 96.58 111.00 L 92.15 111.00 C 92.48 106.25 93.15 101.41 92.22 96.70 C 90.92 94.80 88.46 94.57 86.36 94.48 C 86.39 93.35 86.43 92.22 86.47 91.08 C 92.29 92.27 98.81 91.11 102.77 86.37 Z" />
<path fill="#6a454b" opacity="1.00" d=" M 105.52 92.54 C 107.33 90.55 109.23 88.66 111.00 86.64 L 111.00 91.10 C 109.34 92.11 107.48 92.75 105.52 92.54 Z" />
<path fill="#62343b" opacity="1.00" d=" M 105.52 92.54 C 107.48 92.75 109.34 92.11 111.00 91.10 L 111.00 97.47 C 107.70 98.96 104.15 102.23 100.40 100.17 C 101.78 97.43 103.34 94.74 105.52 92.54 Z" />
<path fill="#3e72ac" opacity="1.00" d=" M 22.49 97.44 C 23.76 96.36 24.95 95.18 26.08 93.95 C 25.87 94.51 25.45 95.62 25.24 96.18 C 24.64 97.90 24.33 99.70 24.01 101.49 C 25.14 101.79 26.27 102.09 27.40 102.41 C 27.23 103.40 26.91 105.37 26.74 106.35 C 30.12 105.91 33.21 104.45 35.77 102.23 C 36.13 103.45 36.47 104.68 36.81 105.91 C 37.74 107.12 38.73 108.27 39.71 109.44 C 39.13 109.83 37.96 110.61 37.38 111.00 L 27.04 111.00 C 26.57 108.01 26.04 105.03 25.29 102.09 L 23.27 103.20 C 23.34 101.24 23.16 99.29 22.49 97.44 Z" />
<path fill="#978283" opacity="1.00" d=" M 86.36 94.48 C 88.46 94.57 90.92 94.80 92.22 96.70 C 93.15 101.41 92.48 106.25 92.15 111.00 L 84.82 111.00 C 84.82 109.41 83.94 108.00 83.58 106.49 C 83.09 108.00 82.58 109.50 82.05 111.00 L 81.80 111.00 C 81.88 106.87 81.47 102.71 80.12 98.79 C 82.81 98.41 84.83 96.62 86.36 94.48 Z" />
<path fill="#562f3a" opacity="1.00" d=" M 63.14 105.43 C 63.89 102.98 64.79 100.50 67.00 98.98 C 69.60 101.29 71.95 105.00 70.10 108.48 C 67.93 107.15 65.61 106.08 63.14 105.43 Z" />
<path fill="#5c2b32" opacity="1.00" d=" M 99.86 102.44 C 103.92 103.62 107.61 101.44 111.00 99.48 L 111.00 111.00 L 98.48 111.00 C 99.75 109.43 100.87 107.75 102.04 106.10 C 101.38 104.84 100.67 103.61 99.86 102.44 Z" />
<path fill="#6b4249" opacity="1.00" d=" M 48.26 101.04 C 50.94 103.10 54.01 104.66 57.46 104.79 C 58.04 106.82 58.45 108.90 58.70 111.00 L 49.67 111.00 C 50.06 109.89 49.89 108.83 49.15 107.83 C 48.43 106.43 47.74 105.02 47.04 103.61 C 47.46 102.76 47.86 101.90 48.26 101.04 Z" />
<path fill="#79555a" opacity="1.00" d=" M 47.04 103.61 C 47.74 105.02 48.43 106.43 49.15 107.83 C 47.97 108.48 47.41 109.77 47.04 111.00 L 40.37 111.00 C 43.01 108.96 45.30 106.46 47.04 103.61 Z" />
<path fill="#57313b" opacity="1.00" d=" M 72.02 111.00 C 70.31 108.43 72.97 106.09 74.12 103.95 C 75.66 106.00 75.50 108.58 75.58 111.00 L 72.02 111.00 Z" />
<path fill="#683d44" opacity="1.00" d=" M 64.31 107.09 C 66.43 108.32 68.51 109.60 70.52 111.00 L 59.89 111.00 C 61.41 109.76 62.87 108.43 64.31 107.09 Z" />
<path fill="#ffe59f" opacity="1.00" d=" M 83.58 106.49 C 83.94 108.00 84.82 109.41 84.82 111.00 L 82.05 111.00 C 82.58 109.50 83.09 108.00 83.58 106.49 Z" />
<path fill="#90797a" opacity="1.00" d=" M 47.04 111.00 C 47.41 109.77 47.97 108.48 49.15 107.83 C 49.89 108.83 50.06 109.89 49.67 111.00 L 47.04 111.00 Z" />
</svg>
