<?xml version="1.0" encoding="UTF-8" ?>
<!DOCTYPE svg PUBLIC "-//W3C//DTD SVG 1.1//EN" "http://www.w3.org/Graphics/SVG/1.1/DTD/svg11.dtd">
<svg width="111pt" height="111pt" viewBox="0 0 111 111" version="1.1" xmlns="http://www.w3.org/2000/svg">
<path fill="#000000" opacity="1.00" d=" M 36.58 0.00 L 38.83 0.00 C 38.43 1.00 37.61 3.01 37.20 4.01 C 30.71 3.16 24.03 5.04 18.59 8.58 C 16.02 10.18 14.36 13.03 14.45 16.08 C 14.40 20.73 14.18 25.41 14.85 30.03 C 11.92 31.60 8.62 32.81 6.44 35.45 C 4.86 37.16 5.23 39.68 5.64 41.77 L 5.89 42.77 C 6.66 45.08 7.96 47.14 9.43 49.06 C 8.34 52.99 7.50 57.69 9.71 61.38 C 13.84 65.80 20.43 63.83 25.63 65.41 C 31.94 61.12 40.05 58.33 47.61 60.59 C 51.66 61.65 55.65 63.38 58.73 66.28 C 62.04 69.97 67.06 71.22 71.61 72.67 C 75.12 73.81 79.06 73.40 82.01 71.09 C 88.03 66.70 93.89 62.03 99.17 56.77 C 103.01 58.06 107.04 58.51 111.00 59.28 L 111.00 61.62 C 107.29 60.85 103.51 60.41 99.89 59.26 C 94.27 64.53 88.43 69.67 81.96 73.90 C 76.38 77.41 69.59 74.79 64.11 72.39 C 66.33 76.53 67.18 81.24 66.73 85.90 C 66.58 90.51 63.94 94.49 60.64 97.51 C 59.48 98.11 58.40 99.02 57.06 99.17 C 52.23 99.66 47.48 100.73 42.78 101.94 C 45.92 104.01 49.35 105.60 52.42 107.79 C 55.51 104.26 58.76 100.68 63.26 98.97 C 66.83 97.14 70.40 95.26 74.27 94.13 C 78.99 92.50 84.06 92.16 88.72 90.34 C 86.83 87.96 85.61 85.17 84.87 82.24 C 84.35 78.10 85.74 73.68 88.92 70.91 C 94.87 65.56 102.99 62.58 111.00 63.75 L 111.00 66.23 C 109.58 66.18 108.17 66.11 106.76 66.09 C 105.14 66.09 103.51 66.17 101.93 66.56 C 101.19 66.73 100.45 66.93 99.72 67.15 C 94.96 69.21 89.57 71.73 87.58 76.91 C 86.49 80.51 87.40 84.40 89.52 87.43 C 91.71 90.50 93.67 93.98 97.01 95.96 C 101.22 98.48 106.23 98.97 111.00 99.49 L 111.00 101.71 C 105.80 101.52 100.64 100.42 95.92 98.20 C 89.63 98.48 83.32 98.65 77.05 99.24 C 74.32 99.24 71.49 99.59 68.88 98.61 C 64.38 101.01 59.28 102.82 56.06 106.99 C 54.85 108.10 54.03 110.15 52.09 109.98 C 48.32 107.71 44.54 105.46 40.81 103.13 C 36.65 103.33 33.16 106.67 30.81 109.93 C 25.19 108.47 22.17 102.81 19.35 98.21 C 13.02 99.78 6.50 100.44 0.00 100.71 L 0.00 98.46 C 3.82 98.31 7.63 97.94 11.40 97.36 C 13.80 97.05 16.19 96.67 18.56 96.19 C 17.55 91.24 12.21 89.58 8.70 86.69 C 5.76 84.29 2.92 81.78 0.00 79.35 L 0.00 75.73 C 1.29 77.22 2.68 78.60 4.20 79.86 C 8.01 83.09 11.96 86.16 15.94 89.18 C 15.55 85.83 15.00 82.44 15.65 79.08 C 15.79 78.68 16.07 77.87 16.21 77.47 C 17.55 73.49 20.11 70.02 23.32 67.34 C 18.47 66.67 13.02 67.24 9.01 63.90 C 5.73 61.18 6.05 56.44 6.39 52.61 C 6.51 51.83 6.57 51.05 6.56 50.26 C 5.26 51.47 3.91 52.65 2.72 53.98 C 1.59 57.37 0.54 60.80 0.00 64.34 L 0.00 55.52 C 0.56 52.13 3.83 50.48 5.91 48.11 C 4.24 45.30 3.10 42.21 2.74 38.95 C 3.03 33.55 8.18 30.15 12.99 29.01 C 11.58 24.80 12.31 20.29 12.19 15.94 C 12.07 12.33 13.92 8.85 16.95 6.90 C 22.27 3.23 28.93 1.01 35.43 1.88 C 35.72 1.41 36.29 0.47 36.58 0.00 M 35.42 63.27 L 35.40 63.72 C 34.09 63.51 32.85 63.82 31.68 64.67 C 28.48 66.24 25.19 68.15 23.11 71.12 C 19.93 73.84 17.76 78.20 17.75 82.40 L 17.47 82.78 C 17.97 92.52 22.61 101.95 30.11 108.20 C 31.83 105.40 34.23 103.15 37.00 101.41 C 41.48 100.62 45.78 98.77 50.33 98.12 C 53.82 97.10 58.28 97.94 60.74 94.70 C 64.77 89.91 65.09 82.82 63.42 77.00 C 61.60 71.93 57.64 67.84 53.03 65.17 C 50.77 64.07 48.36 63.30 45.96 62.55 L 45.66 62.77 C 45.49 62.49 45.15 61.92 44.99 61.64 L 44.78 62.79 C 41.70 62.09 38.40 62.18 35.42 63.27 Z" />
<path fill="#fff9c5" opacity="1.00" d=" M 38.83 0.00 L 41.84 0.00 C 40.84 1.39 39.93 2.84 38.92 4.22 C 38.49 4.17 37.63 4.06 37.20 4.01 C 37.61 3.01 38.43 1.00 38.83 0.00 Z" />
<path fill="#7cd06f" opacity="1.00" d=" M 41.84 0.00 L 84.42 0.00 C 83.49 2.25 82.77 4.58 82.28 6.97 C 76.78 4.98 71.27 9.25 69.28 14.17 C 68.29 17.21 71.64 18.78 74.06 19.19 C 71.37 21.50 68.95 24.41 68.28 27.98 C 67.87 30.14 69.88 32.19 72.05 31.80 C 77.48 31.29 81.65 26.40 83.16 21.43 C 83.85 22.32 84.54 23.21 85.23 24.11 C 82.61 26.84 78.67 29.68 79.81 34.02 C 79.73 36.98 83.16 37.29 85.28 38.07 C 79.42 43.98 71.70 47.44 65.15 52.45 C 59.31 55.46 53.05 57.98 46.51 58.90 C 52.20 56.14 58.55 54.69 63.87 51.19 C 61.58 50.70 59.30 50.13 57.03 49.59 C 50.92 49.49 45.23 47.02 39.42 45.43 C 36.01 41.59 32.23 38.11 27.66 35.68 C 29.59 35.86 31.93 36.08 33.36 34.45 C 35.56 31.72 33.52 27.84 30.99 26.09 C 29.28 24.66 27.07 25.79 25.22 26.17 C 27.80 22.91 30.85 19.46 30.87 15.05 C 31.16 13.00 29.21 10.79 27.10 11.72 C 24.64 13.27 23.35 16.05 22.66 18.78 C 16.80 17.77 14.45 27.62 18.99 30.67 C 18.13 32.12 17.32 33.59 16.65 35.13 C 12.15 35.12 7.31 37.34 5.64 41.77 C 5.23 39.68 4.86 37.16 6.44 35.45 C 8.62 32.81 11.92 31.60 14.85 30.03 C 14.18 25.41 14.40 20.73 14.45 16.08 C 14.36 13.03 16.02 10.18 18.59 8.58 C 24.03 5.04 30.71 3.16 37.20 4.01 C 37.63 4.06 38.49 4.17 38.92 4.22 C 39.93 2.84 40.84 1.39 41.84 0.00 Z" />
<path fill="#000000" opacity="1.00" d=" M 84.42 0.00 L 86.82 0.00 C 85.57 2.97 84.48 6.08 84.26 9.32 L 85.09 9.62 C 85.87 9.86 87.43 10.33 88.20 10.57 C 91.61 7.82 94.29 4.20 95.60 0.00 L 97.90 0.00 C 96.89 3.32 95.20 6.36 93.08 9.10 C 96.32 8.69 99.94 10.65 100.49 14.05 C 101.05 17.27 98.89 20.14 96.46 21.97 C 95.85 22.34 94.63 23.08 94.02 23.44 C 91.27 24.66 88.11 25.27 85.23 24.11 C 84.54 23.21 83.85 22.32 83.16 21.43 C 81.65 26.40 77.48 31.29 72.05 31.80 C 69.88 32.19 67.87 30.14 68.28 27.98 C 68.95 24.41 71.37 21.50 74.06 19.19 C 71.64 18.78 68.29 17.21 69.28 14.17 C 71.27 9.25 76.78 4.98 82.28 6.97 C 82.77 4.58 83.49 2.25 84.42 0.00 M 71.33 14.22 C 71.29 14.63 71.22 15.46 71.18 15.88 C 72.97 16.99 75.10 17.44 77.19 17.07 C 77.62 15.93 78.05 14.78 78.46 13.62 C 79.64 12.06 82.30 11.74 82.76 9.98 C 78.48 6.52 73.72 10.55 71.33 14.22 M 79.10 16.96 C 81.89 20.50 88.55 17.09 87.54 12.72 C 86.52 11.80 85.32 11.29 83.94 11.20 C 81.96 12.62 78.65 13.99 79.10 16.96 M 89.50 12.66 C 89.66 14.44 89.06 16.03 88.21 17.55 C 86.83 18.06 85.85 19.24 84.62 19.99 C 85.98 24.27 91.46 22.85 94.22 20.86 C 97.09 19.52 100.15 15.39 97.41 12.55 C 95.25 10.32 91.87 11.39 89.50 12.66 M 72.84 22.84 C 72.62 23.09 72.20 23.60 71.99 23.86 C 70.85 25.54 68.63 29.29 71.59 30.23 C 75.83 29.57 79.23 26.28 80.79 22.41 L 80.93 22.68 C 81.19 21.85 81.44 21.02 81.69 20.19 C 80.54 19.66 79.37 19.18 78.18 18.73 C 76.17 19.75 74.21 21.01 72.84 22.84 Z" />
<path fill="#ffffff" opacity="1.00" d=" M 86.82 0.00 L 93.79 0.00 C 91.09 3.41 87.13 5.73 85.09 9.62 L 84.26 9.32 C 84.48 6.08 85.57 2.97 86.82 0.00 Z" />
<path fill="#b4bcd2" opacity="1.00" d=" M 93.79 0.00 L 95.60 0.00 C 94.29 4.20 91.61 7.82 88.20 10.57 C 87.43 10.33 85.87 9.86 85.09 9.62 C 87.13 5.73 91.09 3.41 93.79 0.00 Z" />
<path fill="#7acc72" opacity="1.00" d=" M 97.90 0.00 L 111.00 0.00 L 111.00 35.84 C 107.14 38.45 103.86 42.49 99.01 43.17 C 96.58 43.62 94.18 42.23 92.80 40.29 C 96.53 37.18 99.30 33.12 102.85 29.82 C 104.20 28.55 105.68 27.37 106.73 25.81 C 100.91 28.97 97.01 34.58 92.78 39.51 C 92.10 36.75 93.37 34.23 94.61 31.88 C 95.96 28.79 96.63 25.35 96.46 21.97 C 98.89 20.14 101.05 17.27 100.49 14.05 C 99.94 10.65 96.32 8.69 93.08 9.10 C 95.20 6.36 96.89 3.32 97.90 0.00 Z" />
<path fill="#ffffff" opacity="1.00" d=" M 71.33 14.22 C 73.72 10.55 78.48 6.52 82.76 9.98 C 82.30 11.74 79.64 12.06 78.46 13.62 C 76.31 14.10 74.16 14.60 72.13 15.48 L 71.33 14.22 Z" />
<path fill="#000000" opacity="1.00" d=" M 22.66 18.78 C 23.35 16.05 24.64 13.27 27.10 11.72 C 29.21 10.79 31.16 13.00 30.87 15.05 C 30.85 19.46 27.80 22.91 25.22 26.17 C 27.07 25.79 29.28 24.66 30.99 26.09 C 33.52 27.84 35.56 31.72 33.36 34.45 C 31.93 36.08 29.59 35.86 27.66 35.68 C 27.27 35.43 26.49 34.93 26.10 34.68 C 25.20 32.77 23.11 33.98 24.10 35.77 C 23.90 38.58 21.67 42.23 18.45 41.58 C 15.76 40.57 16.11 37.39 16.65 35.13 C 17.32 33.59 18.13 32.12 18.99 30.67 C 14.45 27.62 16.80 17.77 22.66 18.78 M 24.83 23.47 C 27.11 20.70 29.86 17.15 28.50 13.32 C 24.80 14.78 23.90 19.95 24.83 23.47 M 21.17 28.53 C 20.77 25.59 24.52 22.71 21.11 20.41 C 17.44 20.94 15.90 29.50 21.17 28.53 M 23.16 29.90 C 24.46 29.37 24.33 26.88 24.00 25.67 C 22.57 26.10 22.80 28.70 23.16 29.90 M 25.88 27.84 C 25.69 29.20 25.43 30.53 25.09 31.86 C 26.73 33.51 29.41 34.63 31.65 33.54 C 33.65 31.45 31.29 28.57 29.37 27.45 C 28.50 27.55 26.75 27.74 25.88 27.84 M 18.49 39.48 C 22.60 40.01 22.30 34.16 22.26 31.39 C 21.91 31.31 21.20 31.16 20.85 31.08 C 19.61 33.68 17.56 36.40 18.49 39.48 Z" />
<path fill="#ffd367" opacity="1.00" d=" M 79.10 16.96 C 78.65 13.99 81.96 12.62 83.94 11.20 C 85.32 11.29 86.52 11.80 87.54 12.72 C 88.55 17.09 81.89 20.50 79.10 16.96 Z" />
<path fill="#fbfbfc" opacity="1.00" d=" M 89.50 12.66 C 91.87 11.39 95.25 10.32 97.41 12.55 C 100.15 15.39 97.09 19.52 94.22 20.86 C 92.25 20.35 90.27 19.88 88.30 19.41 C 88.27 18.94 88.23 18.02 88.21 17.55 C 89.06 16.03 89.66 14.44 89.50 12.66 Z" />
<path fill="#ffffff" opacity="1.00" d=" M 24.83 23.47 C 23.90 19.95 24.80 14.78 28.50 13.32 C 29.86 17.15 27.11 20.70 24.83 23.47 Z" />
<path fill="#8b95ad" opacity="1.00" d=" M 71.18 15.88 C 71.22 15.46 71.29 14.63 71.33 14.22 L 72.13 15.48 C 74.16 14.60 76.31 14.10 78.46 13.62 C 78.05 14.78 77.62 15.93 77.19 17.07 C 75.10 17.44 72.97 16.99 71.18 15.88 Z" />
<path fill="#a9b1c8" opacity="1.00" d=" M 84.62 19.99 C 85.85 19.24 86.83 18.06 88.21 17.55 C 88.23 18.02 88.27 18.94 88.30 19.41 C 90.27 19.88 92.25 20.35 94.22 20.86 C 91.46 22.85 85.98 24.27 84.62 19.99 Z" />
<path fill="#8892ac" opacity="1.00" d=" M 72.84 22.84 C 74.21 21.01 76.17 19.75 78.18 18.73 C 79.37 19.18 80.54 19.66 81.69 20.19 C 81.44 21.02 81.19 21.85 80.93 22.68 L 80.79 22.41 L 80.26 21.35 C 77.78 21.83 75.32 22.39 72.84 22.84 Z" />
<path fill="#ffffff" opacity="1.00" d=" M 21.17 28.53 C 15.90 29.50 17.44 20.94 21.11 20.41 C 24.52 22.71 20.77 25.59 21.17 28.53 Z" />
<path fill="#b7bdce" opacity="1.00" d=" M 72.84 22.84 C 75.32 22.39 77.78 21.83 80.26 21.35 L 80.79 22.41 C 79.23 26.28 75.83 29.57 71.59 30.23 C 73.84 28.09 75.83 25.70 77.61 23.16 C 75.74 23.39 73.86 23.62 71.99 23.86 C 72.20 23.60 72.62 23.09 72.84 22.84 Z" />
<path fill="#5287ab" opacity="1.00" d=" M 94.02 23.44 C 94.63 23.08 95.85 22.34 96.46 21.97 C 96.63 25.35 95.96 28.79 94.61 31.88 C 91.13 33.70 88.81 36.93 86.31 39.83 C 84.00 41.81 83.23 44.82 83.08 47.74 C 79.11 46.38 75.15 49.61 75.24 53.68 C 71.76 54.69 68.18 54.61 65.15 52.45 C 71.70 47.44 79.42 43.98 85.28 38.07 C 88.58 33.46 91.90 28.74 94.02 23.44 Z" />
<path fill="#ffffff" opacity="1.00" d=" M 71.99 23.86 C 73.86 23.62 75.74 23.39 77.61 23.16 C 75.83 25.70 73.84 28.09 71.59 30.23 C 68.63 29.29 70.85 25.54 71.99 23.86 Z" />
<path fill="#73c376" opacity="1.00" d=" M 85.23 24.11 C 88.11 25.27 91.27 24.66 94.02 23.44 C 91.90 28.74 88.58 33.46 85.28 38.07 C 83.16 37.29 79.73 36.98 79.81 34.02 C 78.67 29.68 82.61 26.84 85.23 24.11 Z" />
<path fill="#c0aa53" opacity="1.00" d=" M 23.16 29.90 C 22.80 28.70 22.57 26.10 24.00 25.67 C 24.33 26.88 24.46 29.37 23.16 29.90 Z" />
<path fill="#fbfbfc" opacity="1.00" d=" M 92.78 39.51 C 97.01 34.58 100.91 28.97 106.73 25.81 C 105.68 27.37 104.20 28.55 102.85 29.82 C 99.30 33.12 96.53 37.18 92.80 40.29 C 92.79 40.09 92.78 39.70 92.78 39.51 Z" />
<path fill="#aab1c4" opacity="1.00" d=" M 25.88 27.84 C 26.75 27.74 28.50 27.55 29.37 27.45 C 28.33 28.53 27.27 29.60 26.22 30.69 C 27.93 31.82 29.67 32.95 31.65 33.54 C 29.41 34.63 26.73 33.51 25.09 31.86 C 25.43 30.53 25.69 29.20 25.88 27.84 Z" />
<path fill="#ffffff" opacity="1.00" d=" M 29.37 27.45 C 31.29 28.57 33.65 31.45 31.65 33.54 C 29.67 32.95 27.93 31.82 26.22 30.69 C 27.27 29.60 28.33 28.53 29.37 27.45 Z" />
<path fill="#ffffff" opacity="1.00" d=" M 18.49 39.48 C 17.56 36.40 19.61 33.68 20.85 31.08 C 21.20 31.16 21.91 31.31 22.26 31.39 C 22.30 34.16 22.60 40.01 18.49 39.48 Z" />
<path fill="#2962a1" opacity="1.00" d=" M 86.31 39.83 C 88.81 36.93 91.13 33.70 94.61 31.88 C 93.37 34.23 92.10 36.75 92.78 39.51 C 92.78 39.70 92.79 40.09 92.80 40.29 C 94.18 42.23 96.58 43.62 99.01 43.17 C 103.86 42.49 107.14 38.45 111.00 35.84 L 111.00 41.56 C 106.83 44.19 100.92 47.02 100.38 52.47 C 103.87 53.25 107.44 53.37 111.00 53.34 L 111.00 59.28 C 107.04 58.51 103.01 58.06 99.17 56.77 C 93.89 62.03 88.03 66.70 82.01 71.09 C 79.06 73.40 75.12 73.81 71.61 72.67 C 67.06 71.22 62.04 69.97 58.73 66.28 C 55.65 63.38 51.66 61.65 47.61 60.59 C 40.05 58.33 31.94 61.12 25.63 65.41 C 20.43 63.83 13.84 65.80 9.71 61.38 C 7.50 57.69 8.34 52.99 9.43 49.06 C 7.96 47.14 6.66 45.08 5.89 42.77 C 9.84 43.33 13.92 43.76 17.48 45.74 C 16.87 47.23 17.15 48.71 17.74 50.15 C 16.53 51.91 14.87 53.71 15.11 56.02 C 15.25 59.40 19.00 61.41 22.04 61.25 C 27.24 60.14 28.07 51.86 23.44 49.50 C 22.06 49.12 20.64 48.97 19.23 48.74 C 18.81 47.81 18.38 46.88 17.94 45.96 C 25.16 48.08 32.63 48.95 40.04 50.11 C 45.71 50.99 51.36 49.61 57.03 49.59 C 59.30 50.13 61.58 50.70 63.87 51.19 C 58.55 54.69 52.20 56.14 46.51 58.90 C 53.05 57.98 59.31 55.46 65.15 52.45 C 68.18 54.61 71.76 54.69 75.24 53.68 C 76.21 56.15 78.43 58.15 81.28 57.28 C 80.44 58.99 79.16 61.48 81.05 63.00 C 83.10 64.64 85.93 62.75 86.78 60.68 C 87.82 59.11 86.14 56.34 88.28 55.47 C 91.53 54.84 95.56 52.86 95.48 49.03 C 95.51 46.37 92.35 45.60 90.38 46.79 C 91.13 43.97 90.27 39.01 86.31 39.83 Z" />
<path fill="#548d5d" opacity="1.00" d=" M 24.10 35.77 C 23.11 33.98 25.20 32.77 26.10 34.68 C 25.60 34.95 24.60 35.50 24.10 35.77 Z" />
<path fill="#558da4" opacity="1.00" d=" M 5.64 41.77 C 7.31 37.34 12.15 35.12 16.65 35.13 C 16.11 37.39 15.76 40.57 18.45 41.58 C 21.67 42.23 23.90 38.58 24.10 35.77 C 24.60 35.50 25.60 34.95 26.10 34.68 C 26.49 34.93 27.27 35.43 27.66 35.68 C 32.23 38.11 36.01 41.59 39.42 45.43 C 45.23 47.02 50.92 49.49 57.03 49.59 C 51.36 49.61 45.71 50.99 40.04 50.11 C 32.63 48.95 25.16 48.08 17.94 45.96 L 17.48 45.74 C 13.92 43.76 9.84 43.33 5.89 42.77 L 5.64 41.77 Z" />
<path fill="#000000" opacity="1.00" d=" M 86.31 39.83 C 90.27 39.01 91.13 43.97 90.38 46.79 C 92.35 45.60 95.51 46.37 95.48 49.03 C 95.56 52.86 91.53 54.84 88.28 55.47 C 86.14 56.34 87.82 59.11 86.78 60.68 C 85.93 62.75 83.10 64.64 81.05 63.00 C 79.16 61.48 80.44 58.99 81.28 57.28 C 78.43 58.15 76.21 56.15 75.24 53.68 C 75.15 49.61 79.11 46.38 83.08 47.74 C 83.23 44.82 84.00 41.81 86.31 39.83 M 87.31 41.60 C 84.22 43.89 85.42 48.35 85.24 51.67 C 88.54 49.74 89.61 45.08 88.26 41.64 C 88.02 41.63 87.55 41.61 87.31 41.60 M 88.59 53.43 C 90.95 53.03 94.18 51.33 93.54 48.47 C 91.00 47.67 88.44 51.01 88.59 53.43 M 78.03 54.99 C 79.68 56.72 81.45 54.29 83.21 54.07 C 84.04 52.43 82.99 50.91 82.21 49.51 C 79.11 48.16 75.48 52.41 78.03 54.99 M 85.36 53.28 C 84.59 55.03 84.99 55.57 86.55 54.92 C 87.24 52.94 86.85 52.39 85.36 53.28 M 81.78 61.74 C 85.08 63.17 86.99 57.50 83.98 56.40 C 82.53 57.53 81.40 59.83 81.78 61.74 Z" />
<path fill="#ffffff" opacity="1.00" d=" M 87.31 41.60 C 87.55 41.61 88.02 41.63 88.26 41.64 C 89.61 45.08 88.54 49.74 85.24 51.67 C 85.42 48.35 84.22 43.89 87.31 41.60 Z" />
<path fill="#4f83ab" opacity="1.00" d=" M 100.38 52.47 C 100.92 47.02 106.83 44.19 111.00 41.56 L 111.00 53.34 C 107.44 53.37 103.87 53.25 100.38 52.47 Z" />
<path fill="#000000" opacity="1.00" d=" M 17.48 45.74 L 17.94 45.96 C 18.38 46.88 18.81 47.81 19.23 48.74 C 20.64 48.97 22.06 49.12 23.44 49.50 C 28.07 51.86 27.24 60.14 22.04 61.25 C 19.00 61.41 15.25 59.40 15.11 56.02 C 14.87 53.71 16.53 51.91 17.74 50.15 C 17.15 48.71 16.87 47.23 17.48 45.74 M 21.27 52.03 L 21.94 53.21 C 20.65 53.23 19.36 53.21 18.07 53.16 L 19.14 51.65 C 17.76 52.49 16.86 53.74 16.46 55.39 C 16.09 58.57 20.27 60.51 22.91 59.35 C 25.21 57.75 25.18 54.33 23.94 52.07 L 24.19 52.03 C 23.13 51.34 22.16 51.34 21.27 52.03 Z" />
<path fill="#ffffff" opacity="1.00" d=" M 88.59 53.43 C 88.44 51.01 91.00 47.67 93.54 48.47 C 94.18 51.33 90.95 53.03 88.59 53.43 Z" />
<path fill="#ffffff" opacity="1.00" d=" M 78.03 54.99 C 75.48 52.41 79.11 48.16 82.21 49.51 C 82.99 50.91 84.04 52.43 83.21 54.07 C 81.45 54.29 79.68 56.72 78.03 54.99 Z" />
<path fill="#ffffff" opacity="1.00" d=" M 6.56 50.26 C 6.57 51.05 6.51 51.83 6.39 52.61 C 3.42 57.01 6.85 62.40 7.07 67.11 C 4.28 65.15 4.20 61.56 3.28 58.62 C 1.96 60.81 1.28 63.31 0.00 65.53 L 0.00 64.34 C 0.54 60.80 1.59 57.37 2.72 53.98 C 3.91 52.65 5.26 51.47 6.56 50.26 Z" />
<path fill="#fff9c5" opacity="1.00" d=" M 21.27 52.03 C 22.16 51.34 23.13 51.34 24.19 52.03 L 23.94 52.07 L 22.63 52.29 C 22.45 52.66 22.08 53.41 21.90 53.78 C 20.62 53.83 19.34 53.87 18.07 53.90 L 19.33 55.12 C 18.61 55.19 17.17 55.32 16.46 55.39 C 16.86 53.74 17.76 52.49 19.14 51.65 L 18.07 53.16 C 19.36 53.21 20.65 53.23 21.94 53.21 L 21.27 52.03 Z" />
<path fill="#ffd367" opacity="1.00" d=" M 7.07 67.11 C 6.85 62.40 3.42 57.01 6.39 52.61 C 6.05 56.44 5.73 61.18 9.01 63.90 C 13.02 67.24 18.47 66.67 23.32 67.34 C 20.11 70.02 17.55 73.49 16.21 77.47 C 15.83 77.19 15.05 76.64 14.66 76.36 C 11.21 73.67 7.18 71.88 3.58 69.41 C 2.39 68.57 1.21 67.73 0.00 66.92 L 0.00 65.53 C 1.28 63.31 1.96 60.81 3.28 58.62 C 4.20 61.56 4.28 65.15 7.07 67.11 Z" />
<path fill="#ac3656" opacity="1.00" d=" M 22.63 52.29 L 23.94 52.07 C 25.18 54.33 25.21 57.75 22.91 59.35 C 20.27 60.51 16.09 58.57 16.46 55.39 C 17.17 55.32 18.61 55.19 19.33 55.12 L 18.07 53.90 C 19.34 53.87 20.62 53.83 21.90 53.78 C 22.08 53.41 22.45 52.66 22.63 52.29 Z" />
<path fill="#ffd367" opacity="1.00" d=" M 85.36 53.28 C 86.85 52.39 87.24 52.94 86.55 54.92 C 84.99 55.57 84.59 55.03 85.36 53.28 Z" />
<path fill="#ffffff" opacity="1.00" d=" M 81.78 61.74 C 81.40 59.83 82.53 57.53 83.98 56.40 C 86.99 57.50 85.08 63.17 81.78 61.74 Z" />
<path fill="#fcd065" opacity="1.00" d=" M 81.96 73.90 C 88.43 69.67 94.27 64.53 99.89 59.26 C 103.51 60.41 107.29 60.85 111.00 61.62 L 111.00 63.75 C 102.99 62.58 94.87 65.56 88.92 70.91 C 85.74 73.68 84.35 78.10 84.87 82.24 C 78.76 83.15 72.74 84.50 66.73 85.90 C 67.18 81.24 66.33 76.53 64.11 72.39 C 69.59 74.79 76.38 77.41 81.96 73.90 Z" />
<path fill="#ffffce" opacity="1.00" d=" M 35.42 63.27 C 38.40 62.18 41.70 62.09 44.78 62.79 L 44.99 61.64 C 45.15 61.92 45.49 62.49 45.66 62.77 C 45.48 62.89 45.12 63.12 44.95 63.24 C 42.99 62.91 41.02 62.53 39.03 62.61 C 36.63 65.74 39.15 69.28 38.54 72.75 C 35.86 70.60 34.82 67.04 35.40 63.72 L 35.42 63.27 Z" />
<path fill="#947e7f" opacity="1.00" d=" M 39.03 62.61 C 41.02 62.53 42.99 62.91 44.95 63.24 C 45.12 63.12 45.48 62.89 45.66 62.77 L 45.96 62.55 C 48.36 63.30 50.77 64.07 53.03 65.17 C 53.28 66.80 53.62 68.44 54.30 69.95 C 51.56 74.12 47.24 77.21 42.22 77.82 C 40.99 76.13 39.80 74.41 38.54 72.75 C 39.15 69.28 36.63 65.74 39.03 62.61 Z" />
<path fill="#836568" opacity="1.00" d=" M 31.68 64.67 C 32.85 63.82 34.09 63.51 35.40 63.72 C 34.82 67.04 35.86 70.60 38.54 72.75 C 39.80 74.41 40.99 76.13 42.22 77.82 C 40.12 78.36 38.02 78.94 35.99 79.69 C 37.49 74.14 33.35 69.62 31.68 64.67 Z" />
<path fill="#988384" opacity="1.00" d=" M 23.11 71.12 C 25.19 68.15 28.48 66.24 31.68 64.67 C 33.35 69.62 37.49 74.14 35.99 79.69 C 34.39 81.41 32.80 83.14 30.97 84.63 C 31.32 85.43 31.88 85.69 32.65 85.41 C 35.09 84.70 37.38 83.43 39.93 83.15 C 41.33 82.98 42.80 84.00 42.43 85.53 C 40.72 87.44 39.21 89.61 38.46 92.09 C 37.60 93.68 39.98 93.81 40.96 93.87 C 42.51 93.91 44.05 93.78 45.59 93.50 C 45.21 95.30 43.04 95.57 41.76 96.55 C 39.60 97.53 38.21 99.46 37.00 101.41 C 34.23 103.15 31.83 105.40 30.11 108.20 C 22.61 101.95 17.97 92.52 17.47 82.78 L 17.75 82.40 C 19.69 80.27 20.22 77.33 21.93 75.03 C 23.30 77.40 26.29 76.18 27.00 74.00 C 27.16 72.21 27.25 70.42 27.56 68.64 C 26.10 69.51 24.61 70.32 23.11 71.12 M 23.03 91.04 C 26.21 90.13 28.88 87.90 31.51 85.94 C 28.06 85.67 25.17 88.59 23.03 91.04 Z" />
<path fill="#6e454a" opacity="1.00" d=" M 53.03 65.17 C 57.64 67.84 61.60 71.93 63.42 77.00 C 61.84 79.82 60.15 82.61 57.94 84.99 C 58.51 81.66 58.60 78.27 58.52 74.90 C 57.02 75.94 55.65 77.16 54.34 78.43 C 49.37 78.04 45.70 82.38 42.43 85.53 C 42.80 84.00 41.33 82.98 39.93 83.15 C 37.38 83.43 35.09 84.70 32.65 85.41 C 31.88 85.69 31.32 85.43 30.97 84.63 C 32.80 83.14 34.39 81.41 35.99 79.69 C 38.02 78.94 40.12 78.36 42.22 77.82 C 47.24 77.21 51.56 74.12 54.30 69.95 C 53.62 68.44 53.28 66.80 53.03 65.17 Z" />
<path fill="#ffffcf" opacity="1.00" d=" M 101.93 66.56 C 103.51 66.17 105.14 66.09 106.76 66.09 C 104.73 68.07 103.03 70.39 102.15 73.11 C 101.16 75.23 101.20 77.88 99.43 79.58 C 97.34 75.20 100.42 70.63 101.93 66.56 Z" />
<path fill="#9a8787" opacity="1.00" d=" M 106.76 66.09 C 108.17 66.11 109.58 66.18 111.00 66.23 L 111.00 89.17 C 107.49 89.07 103.07 89.52 100.61 86.47 C 98.90 84.59 99.46 81.89 99.43 79.58 C 101.20 77.88 101.16 75.23 102.15 73.11 C 103.03 70.39 104.73 68.07 106.76 66.09 Z" />
<path fill="#9f5b2e" opacity="1.00" d=" M 0.00 66.92 C 1.21 67.73 2.39 68.57 3.58 69.41 C 2.78 71.71 5.46 73.00 7.00 74.06 C 9.37 75.23 11.86 77.28 14.66 76.36 C 15.05 76.64 15.83 77.19 16.21 77.47 C 16.07 77.87 15.79 78.68 15.65 79.08 C 15.12 79.59 14.57 80.09 14.02 80.59 C 10.81 79.84 7.45 78.38 4.20 79.86 C 2.68 78.60 1.29 77.22 0.00 75.73 L 0.00 66.92 Z" />
<path fill="#63343b" opacity="1.00" d=" M 99.72 67.15 C 100.45 66.93 101.19 66.73 101.93 66.56 C 100.42 70.63 97.34 75.20 99.43 79.58 C 99.46 81.89 98.90 84.59 100.61 86.47 C 103.07 89.52 107.49 89.07 111.00 89.17 L 111.00 99.49 C 106.23 98.97 101.22 98.48 97.01 95.96 C 93.67 93.98 91.71 90.50 89.52 87.43 C 87.40 84.40 86.49 80.51 87.58 76.91 C 87.34 78.62 87.29 80.35 87.47 82.07 C 90.31 83.11 93.08 84.42 96.07 84.99 C 96.96 78.96 98.23 73.04 99.72 67.15 Z" />
<path fill="#9b8888" opacity="1.00" d=" M 87.58 76.91 C 89.57 71.73 94.96 69.21 99.72 67.15 C 98.23 73.04 96.96 78.96 96.07 84.99 C 93.08 84.42 90.31 83.11 87.47 82.07 C 87.29 80.35 87.34 78.62 87.58 76.91 Z" />
<path fill="#fff9c5" opacity="1.00" d=" M 23.11 71.12 C 24.61 70.32 26.10 69.51 27.56 68.64 C 27.25 70.42 27.16 72.21 27.00 74.00 C 26.29 76.18 23.30 77.40 21.93 75.03 C 20.22 77.33 19.69 80.27 17.75 82.40 C 17.76 78.20 19.93 73.84 23.11 71.12 Z" />
<path fill="#924823" opacity="1.00" d=" M 7.00 74.06 C 5.46 73.00 2.78 71.71 3.58 69.41 C 7.18 71.88 11.21 73.67 14.66 76.36 C 11.86 77.28 9.37 75.23 7.00 74.06 Z" />
<path fill="#876a6c" opacity="1.00" d=" M 54.34 78.43 C 55.65 77.16 57.02 75.94 58.52 74.90 C 58.60 78.27 58.51 81.66 57.94 84.99 C 57.68 85.26 57.18 85.82 56.92 86.10 C 56.74 84.71 56.58 83.32 56.38 81.94 C 55.99 80.61 55.30 79.44 54.34 78.43 Z" />
<path fill="#5d2c32" opacity="1.00" d=" M 63.42 77.00 C 65.09 82.82 64.77 89.91 60.74 94.70 C 58.28 97.94 53.82 97.10 50.33 98.12 C 49.68 96.24 48.99 94.38 48.26 92.54 C 52.99 91.28 56.90 87.07 56.38 81.94 C 56.58 83.32 56.74 84.71 56.92 86.10 C 57.18 85.82 57.68 85.26 57.94 84.99 C 60.15 82.61 61.84 79.82 63.42 77.00 Z" />
<path fill="#000000" opacity="1.00" d=" M 42.43 85.53 C 45.70 82.38 49.37 78.04 54.34 78.43 C 55.30 79.44 55.99 80.61 56.38 81.94 C 56.90 87.07 52.99 91.28 48.26 92.54 C 47.37 92.87 46.48 93.19 45.59 93.50 C 44.05 93.78 42.51 93.91 40.96 93.87 C 39.98 93.81 37.60 93.68 38.46 92.09 C 39.21 89.61 40.72 87.44 42.43 85.53 M 49.12 82.01 C 45.64 84.70 41.65 87.91 40.54 92.24 C 44.41 91.65 48.53 91.23 51.76 88.78 C 54.30 87.21 55.30 83.81 54.32 81.04 C 52.85 78.99 50.59 81.14 49.12 82.01 Z" />
<path fill="#ae703b" opacity="1.00" d=" M 4.20 79.86 C 7.45 78.38 10.81 79.84 14.02 80.59 C 14.57 80.09 15.12 79.59 15.65 79.08 C 15.00 82.44 15.55 85.83 15.94 89.18 C 11.96 86.16 8.01 83.09 4.20 79.86 Z" />
<path fill="#958181" opacity="1.00" d=" M 0.00 79.35 C 2.92 81.78 5.76 84.29 8.70 86.69 C 7.98 88.14 7.24 89.60 6.50 91.05 C 4.87 90.73 3.24 90.45 1.61 90.11 C 1.60 92.01 1.99 94.21 0.00 95.31 L 0.00 79.35 Z" />
<path fill="#62ffea" opacity="1.00" d=" M 49.12 82.01 C 50.59 81.14 52.85 78.99 54.32 81.04 C 55.30 83.81 54.30 87.21 51.76 88.78 C 48.53 91.23 44.41 91.65 40.54 92.24 C 41.65 87.91 45.64 84.70 49.12 82.01 Z" />
<path fill="#9f5e33" opacity="1.00" d=" M 66.73 85.90 C 72.74 84.50 78.76 83.15 84.87 82.24 C 85.61 85.17 86.83 87.96 88.72 90.34 C 84.06 92.16 78.99 92.50 74.27 94.13 C 70.40 95.26 66.83 97.14 63.26 98.97 C 62.60 98.61 61.29 97.87 60.64 97.51 C 63.94 94.49 66.58 90.51 66.73 85.90 Z" />
<path fill="#fff9c5" opacity="1.00" d=" M 23.03 91.04 C 25.17 88.59 28.06 85.67 31.51 85.94 C 28.88 87.90 26.21 90.13 23.03 91.04 Z" />
<path fill="#613137" opacity="1.00" d=" M 8.70 86.69 C 12.21 89.58 17.55 91.24 18.56 96.19 C 16.19 96.67 13.80 97.05 11.40 97.36 C 11.23 94.31 9.08 92.32 6.50 91.05 C 7.24 89.60 7.98 88.14 8.70 86.69 Z" />
<path fill="#6b4146" opacity="1.00" d=" M 1.61 90.11 C 3.24 90.45 4.87 90.73 6.50 91.05 C 9.08 92.32 11.23 94.31 11.40 97.36 C 7.63 97.94 3.82 98.31 0.00 98.46 L 0.00 95.31 C 1.99 94.21 1.60 92.01 1.61 90.11 Z" />
<path fill="#6b3f47" opacity="1.00" d=" M 45.59 93.50 C 46.48 93.19 47.37 92.87 48.26 92.54 C 48.99 94.38 49.68 96.24 50.33 98.12 C 45.78 98.77 41.48 100.62 37.00 101.41 C 38.21 99.46 39.60 97.53 41.76 96.55 C 43.04 95.57 45.21 95.30 45.59 93.50 Z" />
<path fill="#bc7f42" opacity="1.00" d=" M 57.06 99.17 C 58.40 99.02 59.48 98.11 60.64 97.51 C 61.29 97.87 62.60 98.61 63.26 98.97 C 58.76 100.68 55.51 104.26 52.42 107.79 C 49.35 105.60 45.92 104.01 42.78 101.94 C 47.48 100.73 52.23 99.66 57.06 99.17 Z" />
</svg>
