<?xml version="1.0" encoding="UTF-8" ?>
<!DOCTYPE svg PUBLIC "-//W3C//DTD SVG 1.1//EN" "http://www.w3.org/Graphics/SVG/1.1/DTD/svg11.dtd">
<svg width="111pt" height="111pt" viewBox="0 0 111 111" version="1.1" xmlns="http://www.w3.org/2000/svg">
<path fill="#000000" opacity="1.00" d=" M 29.49 38.62 C 35.91 28.61 42.10 18.14 50.60 9.74 C 51.10 15.55 49.61 21.23 49.47 27.01 C 49.53 28.66 48.99 30.22 48.40 31.74 C 51.34 31.72 53.56 29.50 56.12 28.36 C 61.52 25.69 66.78 22.59 72.59 20.88 C 72.48 23.75 72.33 26.62 72.23 29.50 C 80.50 22.66 89.44 16.53 98.92 11.47 C 99.36 11.85 100.25 12.59 100.69 12.97 C 96.06 21.27 89.60 28.31 83.12 35.19 C 78.73 40.31 73.96 45.09 68.91 49.58 C 71.46 49.57 74.00 49.52 76.55 49.48 C 76.63 50.08 76.79 51.29 76.87 51.90 C 73.73 54.51 71.23 57.75 68.49 60.74 C 68.09 65.97 69.37 71.49 67.29 76.47 C 64.62 76.41 61.96 76.38 59.29 76.36 C 57.62 81.29 54.23 85.37 52.20 90.14 C 50.16 94.00 49.43 98.41 47.11 102.13 C 41.80 99.51 35.31 99.39 30.67 95.44 C 25.23 88.57 19.59 81.85 13.56 75.48 C 11.66 73.70 10.90 70.52 8.06 70.00 C 8.77 69.88 9.48 69.76 10.18 69.63 C 11.01 67.78 12.02 65.99 12.47 64.00 C 12.52 50.46 11.86 36.69 14.79 23.39 C 15.77 23.50 17.01 23.26 17.59 24.31 C 21.42 28.92 24.61 34.02 28.26 38.76 C 28.57 38.72 29.18 38.66 29.49 38.62 M 46.43 19.37 C 46.14 19.59 45.56 20.04 45.27 20.26 C 39.27 27.76 34.25 36.00 29.11 44.11 C 28.79 43.90 28.15 43.47 27.83 43.26 C 25.41 38.81 22.08 34.96 19.21 30.81 C 18.36 29.52 17.51 28.25 16.61 27.00 C 15.26 35.86 15.23 44.85 15.33 53.79 L 15.26 53.98 C 13.95 57.91 16.02 62.09 14.35 65.95 C 13.95 67.83 12.31 70.14 14.15 71.75 C 17.47 75.50 21.07 79.00 24.28 82.86 C 27.47 86.62 30.35 90.64 33.67 94.27 C 37.54 96.59 42.14 97.15 46.33 98.66 C 48.39 90.49 52.52 83.06 56.97 75.98 C 58.76 72.86 62.74 73.68 65.74 73.58 C 65.59 69.05 65.53 64.52 65.63 60.00 C 68.34 57.57 70.44 54.58 72.59 51.66 C 69.72 52.22 66.80 52.54 63.87 52.27 C 65.74 47.92 70.07 45.44 73.11 41.99 C 76.44 38.65 79.77 35.32 82.81 31.71 C 87.26 26.52 92.54 21.91 96.05 16.01 C 93.26 17.40 90.60 19.06 87.87 20.56 L 88.75 21.28 C 86.82 21.46 85.41 22.90 83.85 23.90 C 80.97 26.05 77.74 27.87 75.40 30.67 C 73.40 30.32 71.89 32.19 70.67 33.47 C 70.11 33.51 68.99 33.57 68.43 33.60 C 68.77 30.77 69.18 27.96 69.58 25.14 C 66.51 26.20 63.47 27.41 60.74 29.19 C 59.25 29.42 57.67 29.86 56.80 31.21 C 55.18 31.85 53.63 32.66 52.14 33.57 C 50.07 34.36 48.44 36.42 46.09 36.26 C 46.08 30.40 47.90 24.65 47.23 18.78 C 47.28 18.40 47.38 17.65 47.43 17.28 L 48.89 16.86 C 47.30 16.16 46.19 17.86 46.43 19.37 Z" />
<path fill="#ffffcd" opacity="1.00" d=" M 46.43 19.37 C 46.19 17.86 47.30 16.16 48.89 16.86 L 47.43 17.28 C 47.38 17.65 47.28 18.40 47.23 18.78 C 46.08 21.39 44.92 24.00 43.64 26.55 C 40.05 32.29 36.04 37.77 32.67 43.65 C 31.52 45.96 29.38 47.43 27.25 48.76 L 27.20 47.40 C 27.81 46.29 28.45 45.20 29.11 44.11 C 34.25 36.00 39.27 27.76 45.27 20.26 C 45.56 20.04 46.14 19.59 46.43 19.37 Z" />
<path fill="#6f4a4f" opacity="1.00" d=" M 87.87 20.56 C 90.60 19.06 93.26 17.40 96.05 16.01 C 92.54 21.91 87.26 26.52 82.81 31.71 C 82.06 30.68 81.31 29.64 80.56 28.61 C 83.42 25.73 86.08 22.40 90.12 21.16 C 89.78 21.19 89.09 21.25 88.75 21.28 L 87.87 20.56 Z" />
<path fill="#836164" opacity="1.00" d=" M 43.64 26.55 C 44.92 24.00 46.08 21.39 47.23 18.78 C 47.90 24.65 46.08 30.40 46.09 36.26 C 48.19 38.40 46.49 41.51 46.08 44.00 C 45.60 47.42 42.54 49.30 39.94 51.07 C 40.96 42.85 44.90 34.98 43.64 26.55 Z" />
<path fill="#ffffcd" opacity="1.00" d=" M 83.85 23.90 C 85.41 22.90 86.82 21.46 88.75 21.28 C 89.09 21.25 89.78 21.19 90.12 21.16 C 86.08 22.40 83.42 25.73 80.56 28.61 C 78.88 30.24 77.14 31.82 75.42 33.41 C 75.42 32.73 75.41 31.35 75.40 30.67 C 77.74 27.87 80.97 26.05 83.85 23.90 Z" />
<path fill="#65363d" opacity="1.00" d=" M 60.74 29.19 C 63.47 27.41 66.51 26.20 69.58 25.14 C 69.18 27.96 68.77 30.77 68.43 33.60 C 68.99 33.57 70.11 33.51 70.67 33.47 C 68.68 36.23 67.41 39.40 66.27 42.57 C 68.55 42.38 70.83 42.18 73.11 41.99 C 70.07 45.44 65.74 47.92 63.87 52.27 C 66.80 52.54 69.72 52.22 72.59 51.66 C 70.44 54.58 68.34 57.57 65.63 60.00 C 65.53 64.52 65.59 69.05 65.74 73.58 C 62.74 73.68 58.76 72.86 56.97 75.98 C 52.52 83.06 48.39 90.49 46.33 98.66 C 42.14 97.15 37.54 96.59 33.67 94.27 C 30.35 90.64 27.47 86.62 24.28 82.86 C 25.46 80.38 25.89 77.63 25.06 74.97 C 25.58 75.44 26.63 76.37 27.16 76.84 C 27.31 76.33 27.61 75.31 27.76 74.80 C 28.47 75.03 29.18 75.27 29.89 75.51 C 32.21 73.19 34.50 70.75 37.40 69.16 C 35.91 71.98 34.82 74.99 33.79 78.00 C 32.70 80.96 31.75 83.97 30.92 87.01 C 34.78 83.72 38.25 79.98 42.48 77.15 C 43.95 76.06 45.38 74.93 46.82 73.80 C 45.12 71.29 42.38 69.90 39.67 68.75 C 42.21 68.15 44.54 66.95 46.64 65.42 C 47.11 66.71 47.60 67.98 48.09 69.26 C 51.49 67.83 53.48 64.58 54.97 61.36 C 57.40 53.73 59.19 45.87 62.49 38.54 C 63.91 35.69 63.73 32.48 63.54 29.40 C 62.84 29.35 61.44 29.24 60.74 29.19 Z" />
<path fill="#f3f2c7" opacity="1.00" d=" M 16.61 27.00 C 17.51 28.25 18.36 29.52 19.21 30.81 C 17.52 38.40 18.76 46.65 15.33 53.79 C 15.23 44.85 15.26 35.86 16.61 27.00 Z" />
<path fill="#9a8687" opacity="1.00" d=" M 32.67 43.65 C 36.04 37.77 40.05 32.29 43.64 26.55 C 44.90 34.98 40.96 42.85 39.94 51.07 C 37.85 52.42 35.33 52.43 32.96 52.82 C 31.46 53.19 30.13 53.99 28.80 54.72 C 27.70 52.91 27.23 50.86 27.25 48.76 C 29.38 47.43 31.52 45.96 32.67 43.65 Z" />
<path fill="#8f7577" opacity="1.00" d=" M 56.80 31.21 C 57.67 29.86 59.25 29.42 60.74 29.19 C 61.44 29.24 62.84 29.35 63.54 29.40 C 63.73 32.48 63.91 35.69 62.49 38.54 C 59.19 45.87 57.40 53.73 54.97 61.36 C 54.69 61.34 54.14 61.28 53.86 61.26 C 52.45 59.70 50.96 58.23 49.37 56.86 C 49.48 59.21 49.66 61.57 49.85 63.92 C 49.26 62.78 48.68 61.65 48.07 60.53 C 47.39 59.29 46.65 58.08 45.92 56.87 C 45.51 53.39 45.32 49.66 47.20 46.53 C 47.23 47.30 47.29 48.84 47.31 49.61 C 49.30 45.89 50.93 41.92 53.52 38.56 C 55.89 36.01 58.34 33.51 60.09 30.46 C 59.27 30.65 57.62 31.02 56.80 31.21 Z" />
<path fill="#704046" opacity="1.00" d=" M 75.42 33.41 C 77.14 31.82 78.88 30.24 80.56 28.61 C 81.31 29.64 82.06 30.68 82.81 31.71 C 79.77 35.32 76.44 38.65 73.11 41.99 C 70.83 42.18 68.55 42.38 66.27 42.57 C 67.41 39.40 68.68 36.23 70.67 33.47 C 71.89 32.19 73.40 30.32 75.40 30.67 C 75.41 31.35 75.42 32.73 75.42 33.41 Z" />
<path fill="#9a8687" opacity="1.00" d=" M 19.21 30.81 C 22.08 34.96 25.41 38.81 27.83 43.26 C 28.15 43.47 28.79 43.90 29.11 44.11 C 28.45 45.20 27.81 46.29 27.20 47.40 C 27.06 46.77 26.79 45.51 26.65 44.88 C 24.82 50.85 21.36 56.38 16.25 60.07 C 15.89 58.05 15.50 56.02 15.26 53.98 L 15.33 53.79 C 18.76 46.65 17.52 38.40 19.21 30.81 Z" />
<path fill="#ffffcd" opacity="1.00" d=" M 52.14 33.57 C 53.63 32.66 55.18 31.85 56.80 31.21 C 57.62 31.02 59.27 30.65 60.09 30.46 C 58.34 33.51 55.89 36.01 53.52 38.56 C 50.93 41.92 49.30 45.89 47.31 49.61 C 47.29 48.84 47.23 47.30 47.20 46.53 C 49.29 42.38 49.93 37.67 52.14 33.57 Z" />
<path fill="#76484e" opacity="1.00" d=" M 46.09 36.26 C 48.44 36.42 50.07 34.36 52.14 33.57 C 49.93 37.67 49.29 42.38 47.20 46.53 C 45.32 49.66 45.51 53.39 45.92 56.87 C 44.41 55.85 42.91 54.65 41.09 54.28 C 36.89 54.13 34.04 58.19 33.38 61.94 C 32.89 65.20 36.03 67.17 38.44 68.58 C 38.18 68.72 37.66 69.02 37.40 69.16 C 34.50 70.75 32.21 73.19 29.89 75.51 C 29.18 75.27 28.47 75.03 27.76 74.80 C 25.65 71.34 22.62 67.41 23.97 63.13 C 26.12 57.91 31.99 56.14 35.88 52.53 C 35.15 52.60 33.69 52.75 32.96 52.82 C 35.33 52.43 37.85 52.42 39.94 51.07 C 42.54 49.30 45.60 47.42 46.08 44.00 C 46.49 41.51 48.19 38.40 46.09 36.26 Z" />
<path fill="#876568" opacity="1.00" d=" M 26.65 44.88 C 26.79 45.51 27.06 46.77 27.20 47.40 L 27.25 48.76 C 27.23 50.86 27.70 52.91 28.80 54.72 C 25.75 56.95 22.71 59.68 21.63 63.43 C 20.73 67.60 22.81 71.61 25.06 74.97 C 25.89 77.63 25.46 80.38 24.28 82.86 C 21.07 79.00 17.47 75.50 14.15 71.75 C 12.31 70.14 13.95 67.83 14.35 65.95 C 16.02 62.09 13.95 57.91 15.26 53.98 C 15.50 56.02 15.89 58.05 16.25 60.07 C 21.36 56.38 24.82 50.85 26.65 44.88 Z" />
<path fill="#000201" opacity="1.00" d=" M 28.80 54.72 C 30.13 53.99 31.46 53.19 32.96 52.82 C 33.69 52.75 35.15 52.60 35.88 52.53 C 31.99 56.14 26.12 57.91 23.97 63.13 C 22.62 67.41 25.65 71.34 27.76 74.80 C 27.61 75.31 27.31 76.33 27.16 76.84 C 26.63 76.37 25.58 75.44 25.06 74.97 C 22.81 71.61 20.73 67.60 21.63 63.43 C 22.71 59.68 25.75 56.95 28.80 54.72 Z" />
<path fill="#0f0003" opacity="1.00" d=" M 33.38 61.94 C 34.04 58.19 36.89 54.13 41.09 54.28 C 42.91 54.65 44.41 55.85 45.92 56.87 C 46.65 58.08 47.39 59.29 48.07 60.53 C 48.36 62.31 47.45 63.92 46.64 65.42 C 44.54 66.95 42.21 68.15 39.67 68.75 C 39.37 68.71 38.75 68.62 38.44 68.58 C 36.03 67.17 32.89 65.20 33.38 61.94 M 35.38 64.21 C 38.21 66.57 43.05 66.53 45.38 63.51 C 46.90 60.18 43.06 56.41 39.74 56.64 C 36.86 58.01 34.73 60.91 35.38 64.21 Z" />
<path fill="#64ffee" opacity="1.00" d=" M 35.38 64.21 C 34.73 60.91 36.86 58.01 39.74 56.64 C 43.06 56.41 46.90 60.18 45.38 63.51 C 43.05 66.53 38.21 66.57 35.38 64.21 Z" />
<path fill="#836467" opacity="1.00" d=" M 49.37 56.86 C 50.96 58.23 52.45 59.70 53.86 61.26 C 54.14 61.28 54.69 61.34 54.97 61.36 C 53.48 64.58 51.49 67.83 48.09 69.26 C 47.60 67.98 47.11 66.71 46.64 65.42 C 47.45 63.92 48.36 62.31 48.07 60.53 C 48.68 61.65 49.26 62.78 49.85 63.92 C 49.66 61.57 49.48 59.21 49.37 56.86 Z" />
<path fill="#815f63" opacity="1.00" d=" M 38.44 68.58 C 38.75 68.62 39.37 68.71 39.67 68.75 C 42.38 69.90 45.12 71.29 46.82 73.80 C 45.38 74.93 43.95 76.06 42.48 77.15 C 42.53 76.21 42.58 75.27 42.63 74.33 C 40.40 74.59 37.52 73.70 35.87 75.67 C 35.13 76.41 34.44 77.19 33.79 78.00 C 34.82 74.99 35.91 71.98 37.40 69.16 C 37.66 69.02 38.18 68.72 38.44 68.58 Z" />
<path fill="#91787a" opacity="1.00" d=" M 35.87 75.67 C 37.52 73.70 40.40 74.59 42.63 74.33 C 42.58 75.27 42.53 76.21 42.48 77.15 C 38.25 79.98 34.78 83.72 30.92 87.01 C 31.75 83.97 32.70 80.96 33.79 78.00 C 34.44 77.19 35.13 76.41 35.87 75.67 Z" />
</svg>
