<?xml version="1.0" encoding="UTF-8" ?>
<!DOCTYPE svg PUBLIC "-//W3C//DTD SVG 1.1//EN" "http://www.w3.org/Graphics/SVG/1.1/DTD/svg11.dtd">
<svg width="111pt" height="111pt" viewBox="0 0 111 111" version="1.1" xmlns="http://www.w3.org/2000/svg">
<path fill="#000000" opacity="1.00" d=" M 86.60 26.51 C 88.84 17.93 94.84 9.52 103.87 7.40 C 106.87 6.32 111.07 8.40 110.77 11.91 C 108.33 23.36 98.05 31.76 97.34 43.70 C 100.18 43.03 104.32 43.37 104.93 46.93 C 104.69 50.40 100.89 51.67 98.30 53.05 C 102.01 54.54 106.41 55.71 108.79 59.19 C 110.46 61.48 108.43 64.27 106.20 65.17 C 101.64 67.26 96.52 66.15 91.79 65.43 C 88.92 67.59 85.38 68.03 81.94 68.60 C 83.32 70.33 86.62 71.79 85.65 74.48 C 83.73 77.14 80.21 77.92 77.15 78.47 C 73.64 78.81 69.30 79.25 66.64 76.43 C 65.23 73.97 67.63 71.82 69.06 70.08 C 63.49 70.82 57.51 70.90 52.48 73.67 C 52.35 73.98 52.09 74.60 51.96 74.90 C 56.25 79.02 62.56 80.11 66.89 84.18 C 68.39 85.54 69.23 87.97 67.79 89.69 C 65.41 92.85 61.45 94.20 57.86 95.49 C 50.50 97.80 42.72 99.31 34.98 98.65 C 32.60 98.39 29.94 97.65 28.59 95.50 C 27.80 93.53 28.45 91.29 29.57 89.58 C 32.13 85.47 35.95 82.36 39.84 79.58 C 39.21 79.49 37.95 79.29 37.32 79.20 C 39.65 77.20 42.92 75.74 45.97 76.90 C 45.32 77.35 44.02 78.24 43.37 78.69 C 41.33 80.14 39.32 81.62 37.41 83.23 C 36.01 84.44 34.66 85.70 33.38 87.04 C 31.73 89.08 29.86 91.26 29.67 93.99 C 31.03 97.46 35.70 96.81 38.70 97.37 C 42.87 97.11 47.00 96.41 51.11 95.66 C 57.10 94.46 63.25 92.44 67.63 87.96 C 66.32 85.86 64.62 84.01 62.43 82.80 C 59.82 81.37 57.09 80.17 54.45 78.79 C 53.11 77.98 51.93 76.94 50.89 75.77 L 50.90 75.14 C 50.97 74.34 51.05 73.54 51.16 72.75 C 51.51 72.42 52.22 71.75 52.58 71.42 C 55.81 70.50 59.10 69.75 62.45 69.42 C 63.21 69.37 64.73 69.26 65.49 69.21 C 68.38 69.11 71.28 69.10 74.18 69.20 C 74.46 69.25 75.02 69.33 75.30 69.37 C 72.65 69.62 70.18 70.73 68.45 72.79 C 68.14 73.41 67.52 74.65 67.20 75.26 C 72.46 78.58 80.08 77.44 84.63 73.40 C 83.58 72.43 82.51 71.47 81.52 70.44 C 80.87 69.61 80.26 68.76 79.67 67.89 C 83.03 66.66 86.61 66.24 90.03 65.19 C 88.00 64.02 85.97 62.83 84.11 61.40 C 86.52 61.78 88.92 62.31 91.14 63.34 C 95.46 64.96 100.20 64.92 104.71 64.34 C 106.21 63.36 108.85 61.81 107.31 59.74 C 103.44 55.84 97.71 54.02 92.31 53.76 L 90.94 53.74 C 94.89 51.46 100.56 52.16 103.24 47.82 C 103.95 45.36 100.33 44.14 98.41 44.92 L 97.73 45.06 C 97.32 44.90 96.50 44.58 96.10 44.42 C 95.80 38.38 98.68 32.84 101.86 27.91 C 104.69 23.70 106.75 19.04 108.71 14.37 C 109.06 13.24 109.36 12.08 109.48 10.90 C 108.59 9.01 106.55 8.35 104.60 8.44 C 101.49 9.43 98.49 10.93 96.04 13.12 C 91.67 16.89 88.84 22.34 87.73 27.96 C 87.62 32.52 89.57 36.85 90.57 41.25 C 89.76 42.42 88.94 43.59 88.12 44.76 C 87.39 42.88 86.08 39.86 83.55 41.56 C 82.62 43.82 83.84 46.01 84.84 47.99 C 84.72 48.12 84.47 48.40 84.34 48.54 C 78.51 46.52 71.43 45.05 65.95 48.77 L 65.20 49.20 C 64.14 54.26 69.58 57.78 73.70 59.30 C 74.64 59.98 75.56 60.67 76.46 61.40 C 72.46 61.89 69.35 57.06 65.59 59.23 C 63.24 60.13 60.59 60.95 58.10 60.07 C 55.46 59.15 53.88 56.69 51.96 54.83 C 51.36 55.07 50.17 55.55 49.57 55.79 C 47.19 55.23 46.68 58.99 49.37 57.98 C 50.13 58.12 51.66 58.42 52.42 58.56 C 52.63 58.84 53.06 59.39 53.27 59.67 C 50.02 60.64 46.18 60.36 43.45 62.58 C 42.90 64.33 45.16 64.76 46.17 65.63 C 45.97 65.70 45.57 65.84 45.37 65.91 C 42.53 65.58 39.74 64.95 36.98 64.25 C 37.22 66.07 37.41 67.89 37.57 69.72 C 36.35 69.69 35.12 69.61 33.91 69.47 C 33.76 69.35 33.46 69.10 33.31 68.98 C 32.94 68.76 32.19 68.32 31.82 68.11 L 30.99 67.85 C 26.65 69.84 22.83 72.77 19.31 75.95 C 17.35 77.48 16.21 79.71 15.28 81.95 C 15.81 82.24 16.86 82.81 17.38 83.10 C 18.89 82.91 20.40 82.71 21.91 82.53 C 26.14 82.25 30.26 81.20 34.09 79.40 C 35.04 79.93 35.97 80.49 36.88 81.07 C 30.00 81.66 23.49 85.86 16.42 84.40 C 13.56 83.68 14.16 80.58 14.82 78.45 C 13.81 75.83 13.71 72.56 11.38 70.67 C 8.29 68.37 3.65 68.02 1.76 64.27 C 0.57 61.30 0.90 57.62 3.04 55.15 C 3.99 57.33 4.75 59.58 5.48 61.83 C 6.63 61.70 7.78 61.56 8.94 61.42 C 10.60 59.01 11.81 55.95 14.56 54.57 C 17.43 53.26 20.65 56.00 20.82 58.91 C 21.43 61.89 20.11 64.70 18.62 67.19 C 22.23 66.87 22.76 61.92 26.18 61.57 C 31.05 61.52 31.61 68.44 36.48 68.51 C 36.02 66.99 35.52 65.49 34.99 63.99 C 33.71 63.09 31.68 62.64 31.33 60.88 C 30.68 59.36 32.49 58.55 33.54 58.04 C 31.69 55.03 29.04 51.25 30.60 47.62 C 34.82 43.53 40.93 42.44 46.25 40.42 C 45.68 33.94 46.98 26.61 52.09 22.13 C 53.73 20.62 56.71 19.45 58.42 21.49 C 61.03 24.76 60.43 29.36 60.04 33.25 C 60.74 33.33 62.16 33.47 62.86 33.55 C 62.06 31.38 61.25 28.85 62.68 26.75 C 65.00 23.33 69.09 21.60 72.99 20.74 C 75.76 20.13 79.31 21.03 80.26 24.01 C 81.06 27.01 79.63 29.90 78.32 32.51 C 77.84 32.54 76.87 32.61 76.39 32.64 C 77.50 29.79 80.29 26.67 78.36 23.56 C 76.08 21.03 72.14 22.30 69.41 23.36 C 66.48 24.67 62.49 27.07 63.37 30.87 C 64.52 34.65 68.94 35.57 72.35 35.96 C 71.25 36.44 70.15 36.94 69.05 37.44 C 70.57 39.73 71.85 42.19 72.28 44.93 C 73.51 45.01 74.75 45.08 75.99 45.15 C 75.74 44.22 75.49 43.28 75.23 42.35 C 75.53 41.95 76.11 41.14 76.41 40.73 C 76.56 41.12 76.86 41.90 77.01 42.30 C 77.13 42.59 77.37 43.17 77.49 43.46 C 78.85 43.11 80.22 42.80 81.59 42.52 C 82.46 41.30 83.28 39.57 85.03 39.59 C 86.28 39.99 87.51 40.49 88.69 41.08 C 88.70 36.09 85.41 31.54 86.60 26.51 M 49.71 28.01 C 48.63 28.67 48.33 29.61 48.81 30.82 C 48.13 33.09 47.74 35.41 47.46 37.75 C 47.63 38.56 47.97 40.16 48.14 40.97 C 47.79 41.26 47.07 41.84 46.72 42.13 C 42.47 43.12 38.35 44.68 34.48 46.69 C 33.52 47.34 32.08 47.78 32.05 49.19 L 31.34 49.38 C 32.42 52.99 34.19 56.33 36.17 59.52 C 35.20 59.56 33.26 59.63 32.29 59.67 C 32.84 60.77 33.61 61.69 34.62 62.44 C 36.96 62.70 39.25 63.29 41.52 63.91 C 41.58 63.78 41.71 63.51 41.77 63.37 C 42.46 60.51 45.48 60.05 47.83 59.20 C 47.22 58.71 46.01 57.74 45.41 57.25 C 45.84 56.70 46.72 55.59 47.16 55.04 C 45.27 54.97 43.40 55.34 41.52 55.36 C 40.46 53.91 40.18 52.33 40.68 50.62 C 41.61 49.94 42.45 49.14 43.29 48.36 C 43.33 48.12 43.41 47.63 43.45 47.38 C 45.36 47.37 47.27 47.43 49.17 47.61 C 49.68 48.70 50.19 49.79 50.69 50.87 C 49.92 51.78 49.39 52.79 49.11 53.91 C 49.74 53.78 51.01 53.52 51.64 53.39 C 49.98 48.52 50.80 43.14 53.19 38.65 L 53.37 38.68 C 54.84 36.53 56.99 34.99 58.69 33.06 C 59.34 30.09 59.00 27.00 58.20 24.09 C 57.95 23.72 57.46 22.97 57.21 22.60 L 57.45 22.08 C 53.61 21.43 51.09 24.96 49.71 28.01 M 58.49 35.62 C 56.25 37.16 54.81 39.57 53.67 41.99 C 51.87 47.39 52.23 54.61 57.63 57.83 C 60.68 58.86 63.97 58.57 66.55 56.57 C 65.98 55.95 65.40 55.33 64.82 54.72 C 62.48 51.99 63.37 48.37 66.17 46.48 C 67.67 46.04 69.16 45.58 70.66 45.13 C 69.89 41.22 67.60 37.74 64.22 35.59 C 62.34 35.38 60.27 34.66 58.49 35.62 M 78.78 44.18 C 78.21 45.74 78.79 46.23 80.53 45.65 C 81.10 44.10 80.51 43.61 78.78 44.18 M 42.28 53.41 L 41.68 53.80 C 44.08 53.73 47.00 53.65 48.45 51.37 C 49.49 50.67 47.96 49.93 47.73 49.25 C 45.24 48.01 41.22 50.76 42.28 53.41 M 7.28 63.49 L 7.33 63.92 C 4.36 63.30 3.72 60.19 2.51 57.87 C 1.33 61.91 3.38 66.32 7.68 67.19 L 7.79 68.12 L 8.44 67.29 C 9.53 67.94 10.63 68.59 11.73 69.24 C 14.09 71.22 15.19 74.09 15.64 77.07 C 18.11 75.20 20.41 73.10 22.65 70.96 L 22.75 70.94 C 25.13 69.43 27.67 68.19 30.05 66.70 C 30.09 66.38 30.17 65.73 30.22 65.40 C 28.98 63.97 27.26 62.93 25.31 63.18 C 23.44 65.50 21.74 68.25 18.41 68.40 C 17.93 68.07 16.97 67.42 16.48 67.10 C 19.57 64.07 20.95 58.78 17.35 55.57 C 12.03 55.28 12.14 62.71 7.28 63.49 Z" />
<path fill="#56a4ff" opacity="1.00" d=" M 104.60 8.44 C 106.55 8.35 108.59 9.01 109.48 10.90 C 109.36 12.08 109.06 13.24 108.71 14.37 C 106.91 14.19 105.00 14.46 104.36 16.42 C 101.63 21.90 94.99 24.87 94.02 31.32 C 93.20 30.97 92.38 30.62 91.55 30.28 C 91.37 31.75 91.19 33.21 91.00 34.68 C 92.02 33.91 93.04 33.14 94.05 32.37 C 93.30 35.96 93.87 39.73 92.53 43.21 C 92.90 43.75 93.64 44.84 94.01 45.38 C 91.06 46.75 87.32 45.44 84.84 47.99 C 83.84 46.01 82.62 43.82 83.55 41.56 C 86.08 39.86 87.39 42.88 88.12 44.76 C 88.94 43.59 89.76 42.42 90.57 41.25 C 89.57 36.85 87.62 32.52 87.73 27.96 C 88.84 22.34 91.67 16.89 96.04 13.12 C 95.98 13.64 95.88 14.67 95.82 15.19 C 94.03 18.67 90.91 21.31 89.52 25.01 C 89.79 27.31 91.32 29.22 93.46 30.07 C 94.00 27.74 94.15 25.28 95.11 23.07 C 96.24 21.34 97.98 20.13 99.52 18.79 C 102.65 16.21 106.34 13.02 104.60 8.44 Z" />
<path fill="#9effff" opacity="1.00" d=" M 96.04 13.12 C 98.49 10.93 101.49 9.43 104.60 8.44 C 106.34 13.02 102.65 16.21 99.52 18.79 C 98.32 17.55 97.09 16.35 95.82 15.19 C 95.88 14.67 95.98 13.64 96.04 13.12 Z" />
<path fill="#2d50b6" opacity="1.00" d=" M 104.36 16.42 C 105.00 14.46 106.91 14.19 108.71 14.37 C 106.75 19.04 104.69 23.70 101.86 27.91 C 98.68 32.84 95.80 38.38 96.10 44.42 C 95.58 44.66 94.53 45.14 94.01 45.38 C 93.64 44.84 92.90 43.75 92.53 43.21 C 93.87 39.73 93.30 35.96 94.05 32.37 C 93.04 33.14 92.02 33.91 91.00 34.68 C 91.19 33.21 91.37 31.75 91.55 30.28 C 92.38 30.62 93.20 30.97 94.02 31.32 C 94.99 24.87 101.63 21.90 104.36 16.42 Z" />
<path fill="#c7ffff" opacity="1.00" d=" M 89.52 25.01 C 90.91 21.31 94.03 18.67 95.82 15.19 C 97.09 16.35 98.32 17.55 99.52 18.79 C 97.98 20.13 96.24 21.34 95.11 23.07 C 94.15 25.28 94.00 27.74 93.46 30.07 C 91.32 29.22 89.79 27.31 89.52 25.01 Z" />
<path fill="#000000" opacity="1.00" d=" M 36.12 21.05 C 35.97 20.84 35.68 20.42 35.53 20.21 C 37.50 20.47 40.31 19.42 41.64 21.49 C 44.74 25.55 42.09 32.08 37.22 33.30 C 34.28 34.49 30.35 32.29 30.57 28.93 C 30.42 25.93 32.71 23.66 34.27 21.38 C 34.48 21.61 34.88 22.08 35.08 22.31 C 34.96 22.50 34.70 22.87 34.58 23.06 C 33.89 23.93 33.21 24.81 32.56 25.70 C 30.96 28.10 31.72 31.93 34.96 32.30 C 39.70 32.40 42.91 27.01 41.07 22.75 C 39.72 21.44 37.88 21.28 36.12 21.05 Z" />
<path fill="#9effff" opacity="1.00" d=" M 36.12 21.05 C 37.88 21.28 39.72 21.44 41.07 22.75 C 38.84 24.61 36.53 26.38 33.99 27.80 C 33.64 27.27 32.92 26.22 32.56 25.70 C 33.21 24.81 33.89 23.93 34.58 23.06 C 34.70 22.87 34.96 22.50 35.08 22.31 C 35.34 21.99 35.86 21.36 36.12 21.05 Z" />
<path fill="#b0ffff" opacity="1.00" d=" M 49.71 28.01 C 51.09 24.96 53.61 21.43 57.45 22.08 L 57.21 22.60 C 56.23 24.55 55.53 26.64 54.39 28.51 C 53.07 30.31 51.14 28.64 49.71 28.01 Z" />
<path fill="#539bf8" opacity="1.00" d=" M 69.41 23.36 C 72.14 22.30 76.08 21.03 78.36 23.56 C 80.29 26.67 77.50 29.79 76.39 32.64 C 75.88 33.76 75.42 34.91 74.92 36.04 C 74.50 36.92 74.05 37.80 73.60 38.67 C 74.15 39.89 74.71 41.11 75.23 42.35 C 75.49 43.28 75.74 44.22 75.99 45.15 C 74.75 45.08 73.51 45.01 72.28 44.93 C 71.85 42.19 70.57 39.73 69.05 37.44 C 70.15 36.94 71.25 36.44 72.35 35.96 C 68.94 35.57 64.52 34.65 63.37 30.87 C 62.49 27.07 66.48 24.67 69.41 23.36 M 73.14 25.84 C 74.50 26.47 75.97 26.80 77.42 27.16 C 78.47 24.26 72.80 22.45 73.14 25.84 M 71.35 26.01 C 69.96 27.67 67.58 29.59 69.26 31.89 C 70.67 30.26 72.07 28.61 73.49 26.99 C 72.95 26.74 71.89 26.26 71.35 26.01 Z" />
<path fill="#5195f2" opacity="1.00" d=" M 41.07 22.75 C 42.91 27.01 39.70 32.40 34.96 32.30 C 31.72 31.93 30.96 28.10 32.56 25.70 C 32.92 26.22 33.64 27.27 33.99 27.80 C 36.53 26.38 38.84 24.61 41.07 22.75 M 35.22 30.15 C 35.38 33.48 38.19 28.53 35.22 30.15 Z" />
<path fill="#7ce9ff" opacity="1.00" d=" M 57.21 22.60 C 57.46 22.97 57.95 23.72 58.20 24.09 C 57.89 27.57 58.88 31.69 56.49 34.58 C 56.50 32.41 56.54 30.24 56.59 28.07 C 54.34 30.08 52.15 32.28 50.93 35.09 C 51.62 36.36 52.53 37.50 53.37 38.68 L 53.19 38.65 C 51.28 38.35 49.37 38.05 47.46 37.75 C 47.74 35.41 48.13 33.09 48.81 30.82 C 50.52 31.06 51.25 28.81 49.71 28.01 C 51.14 28.64 53.07 30.31 54.39 28.51 C 55.53 26.64 56.23 24.55 57.21 22.60 Z" />
<path fill="#4480e0" opacity="1.00" d=" M 58.20 24.09 C 59.00 27.00 59.34 30.09 58.69 33.06 C 56.99 34.99 54.84 36.53 53.37 38.68 C 52.53 37.50 51.62 36.36 50.93 35.09 C 52.15 32.28 54.34 30.08 56.59 28.07 C 56.54 30.24 56.50 32.41 56.49 34.58 C 58.88 31.69 57.89 27.57 58.20 24.09 Z" />
<path fill="#3d6fd1" opacity="1.00" d=" M 73.14 25.84 C 72.80 22.45 78.47 24.26 77.42 27.16 C 75.97 26.80 74.50 26.47 73.14 25.84 Z" />
<path fill="#3661c5" opacity="1.00" d=" M 71.35 26.01 C 71.89 26.26 72.95 26.74 73.49 26.99 C 72.07 28.61 70.67 30.26 69.26 31.89 C 67.58 29.59 69.96 27.67 71.35 26.01 Z" />
<path fill="#549cda" opacity="1.00" d=" M 48.81 30.82 C 48.33 29.61 48.63 28.67 49.71 28.01 C 51.25 28.81 50.52 31.06 48.81 30.82 Z" />
<path fill="#79e5ff" opacity="1.00" d=" M 35.22 30.15 C 38.19 28.53 35.38 33.48 35.22 30.15 Z" />
<path fill="#050912" opacity="0.76" d=" M 76.39 32.64 C 76.87 32.61 77.84 32.54 78.32 32.51 L 77.74 33.96 C 79.67 33.81 82.12 32.67 83.48 34.71 C 81.42 37.32 79.13 39.74 77.01 42.30 C 76.86 41.90 76.56 41.12 76.41 40.73 C 77.94 38.70 79.63 36.79 81.21 34.79 C 79.12 35.22 77.03 35.66 74.92 36.04 C 75.42 34.91 75.88 33.76 76.39 32.64 Z" />
<path fill="#f4fdff" opacity="1.00" d=" M 58.49 35.62 C 60.27 34.66 62.34 35.38 64.22 35.59 C 63.34 37.02 62.45 38.45 61.58 39.88 C 63.46 41.82 65.15 43.96 66.17 46.48 C 63.37 48.37 62.48 51.99 64.82 54.72 C 62.92 55.18 60.96 55.23 59.08 54.65 C 56.17 51.07 54.62 46.44 53.67 41.99 C 54.81 39.57 56.25 37.16 58.49 35.62 Z" />
<path fill="#3662bf" opacity="1.00" d=" M 74.92 36.04 C 77.03 35.66 79.12 35.22 81.21 34.79 C 79.63 36.79 77.94 38.70 76.41 40.73 C 76.11 41.14 75.53 41.95 75.23 42.35 C 74.71 41.11 74.15 39.89 73.60 38.67 C 74.05 37.80 74.50 36.92 74.92 36.04 Z" />
<path fill="#d5f9ff" opacity="1.00" d=" M 64.22 35.59 C 67.60 37.74 69.89 41.22 70.66 45.13 C 69.16 45.58 67.67 46.04 66.17 46.48 C 65.15 43.96 63.46 41.82 61.58 39.88 C 62.45 38.45 63.34 37.02 64.22 35.59 Z" />
<path fill="#8affff" opacity="1.00" d=" M 29.06 39.40 C 29.33 39.10 29.88 38.50 30.15 38.21 C 30.44 38.70 31.01 39.69 31.30 40.18 C 30.73 40.45 29.59 41.00 29.02 41.27 C 29.03 40.80 29.05 39.87 29.06 39.40 Z" />
<path fill="#000000" opacity="1.00" d=" M 30.15 38.21 C 34.63 37.08 30.72 44.50 28.40 41.66 C 28.35 41.06 28.26 39.87 28.21 39.27 L 29.06 39.40 C 29.05 39.87 29.03 40.80 29.02 41.27 C 29.59 41.00 30.73 40.45 31.30 40.18 C 31.01 39.69 30.44 38.70 30.15 38.21 Z" />
<path fill="#4e8dee" opacity="1.00" d=" M 47.46 37.75 C 49.37 38.05 51.28 38.35 53.19 38.65 C 50.80 43.14 49.98 48.52 51.64 53.39 C 51.01 53.52 49.74 53.78 49.11 53.91 C 49.39 52.79 49.92 51.78 50.69 50.87 C 50.19 49.79 49.68 48.70 49.17 47.61 C 47.27 47.43 45.36 47.37 43.45 47.38 C 43.41 45.08 45.21 43.58 46.72 42.13 C 47.07 41.84 47.79 41.26 48.14 40.97 C 47.97 40.16 47.63 38.56 47.46 37.75 Z" />
<path fill="#9effff" opacity="1.00" d=" M 34.48 46.69 C 38.35 44.68 42.47 43.12 46.72 42.13 C 45.21 43.58 43.41 45.08 43.45 47.38 C 43.41 47.63 43.33 48.12 43.29 48.36 C 42.45 49.14 41.61 49.94 40.68 50.62 C 40.44 50.78 39.98 51.09 39.75 51.25 C 38.78 50.81 37.83 50.33 36.88 49.86 C 35.89 50.97 34.90 52.08 33.90 53.18 C 33.27 51.86 32.62 50.54 32.05 49.19 C 32.08 47.78 33.52 47.34 34.48 46.69 Z" />
<path fill="#9adefd" opacity="1.00" d=" M 57.63 57.83 C 52.23 54.61 51.87 47.39 53.67 41.99 C 54.62 46.44 56.17 51.07 59.08 54.65 C 58.60 55.71 58.12 56.77 57.63 57.83 Z" />
<path fill="#254485" opacity="1.00" d=" M 78.78 44.18 C 80.51 43.61 81.10 44.10 80.53 45.65 C 78.79 46.23 78.21 45.74 78.78 44.18 Z" />
<path fill="#7eeaff" opacity="1.00" d=" M 94.01 45.38 C 94.53 45.14 95.58 44.66 96.10 44.42 C 96.50 44.58 97.32 44.90 97.73 45.06 C 95.34 46.56 92.78 47.77 90.09 48.65 C 90.29 49.82 90.47 51.00 90.66 52.17 C 87.57 53.85 84.25 50.58 81.04 51.85 C 78.78 52.71 78.24 55.34 77.22 57.26 C 76.90 57.11 76.27 56.82 75.95 56.67 C 76.52 54.69 77.18 52.73 77.83 50.77 C 79.43 50.74 81.04 50.66 82.65 50.58 C 83.07 50.07 83.92 49.05 84.34 48.54 C 84.47 48.40 84.72 48.12 84.84 47.99 C 87.32 45.44 91.06 46.75 94.01 45.38 Z" />
<path fill="#3a67d0" opacity="1.00" d=" M 97.73 45.06 L 98.41 44.92 C 99.89 46.09 101.49 47.12 103.24 47.82 C 100.56 52.16 94.89 51.46 90.94 53.74 L 90.91 53.74 C 90.85 53.35 90.72 52.56 90.66 52.17 C 90.47 51.00 90.29 49.82 90.09 48.65 C 92.78 47.77 95.34 46.56 97.73 45.06 Z" />
<path fill="#55a1ef" opacity="1.00" d=" M 98.41 44.92 C 100.33 44.14 103.95 45.36 103.24 47.82 C 101.49 47.12 99.89 46.09 98.41 44.92 Z" />
<path fill="#a7ffff" opacity="1.00" d=" M 65.95 48.77 C 71.43 45.05 78.51 46.52 84.34 48.54 C 83.92 49.05 83.07 50.07 82.65 50.58 C 81.04 50.66 79.43 50.74 77.83 50.77 C 73.77 50.81 69.80 49.94 65.95 48.77 Z" />
<path fill="#539ef8" opacity="1.00" d=" M 31.34 49.38 L 32.05 49.19 C 32.62 50.54 33.27 51.86 33.90 53.18 C 34.90 52.08 35.89 50.97 36.88 49.86 C 37.83 50.33 38.78 50.81 39.75 51.25 C 39.98 51.09 40.44 50.78 40.68 50.62 C 40.18 52.33 40.46 53.91 41.52 55.36 C 39.27 57.77 36.98 60.14 34.62 62.44 C 33.61 61.69 32.84 60.77 32.29 59.67 C 33.26 59.63 35.20 59.56 36.17 59.52 C 34.19 56.33 32.42 52.99 31.34 49.38 Z" />
<path fill="#8affff" opacity="1.00" d=" M 42.28 53.41 C 41.22 50.76 45.24 48.01 47.73 49.25 L 47.53 50.30 C 45.78 51.33 43.98 52.29 42.28 53.41 Z" />
<path fill="#2947b3" opacity="1.00" d=" M 47.73 49.25 C 47.96 49.93 49.49 50.67 48.45 51.37 C 47.00 53.65 44.08 53.73 41.68 53.80 L 42.28 53.41 C 43.98 52.29 45.78 51.33 47.53 50.30 L 47.73 49.25 Z" />
<path fill="#3968cb" opacity="1.00" d=" M 73.70 59.30 C 69.58 57.78 64.14 54.26 65.20 49.20 C 68.04 52.62 71.82 55.07 75.95 56.67 C 76.27 56.82 76.90 57.11 77.22 57.26 C 77.93 58.68 78.61 60.11 79.25 61.56 L 79.14 61.93 C 77.64 60.49 75.85 59.37 73.70 59.30 Z" />
<path fill="#8affff" opacity="1.00" d=" M 65.20 49.20 L 65.95 48.77 C 69.80 49.94 73.77 50.81 77.83 50.77 C 77.18 52.73 76.52 54.69 75.95 56.67 C 71.82 55.07 68.04 52.62 65.20 49.20 Z" />
<path fill="#4f92f9" opacity="1.00" d=" M 77.22 57.26 C 78.24 55.34 78.78 52.71 81.04 51.85 C 84.25 50.58 87.57 53.85 90.66 52.17 C 90.72 52.56 90.85 53.35 90.91 53.74 C 87.11 54.74 83.18 54.98 79.29 55.37 C 79.71 56.39 80.13 57.40 80.54 58.42 C 80.10 59.46 79.66 60.51 79.25 61.56 C 78.61 60.11 77.93 58.68 77.22 57.26 Z" />
<path fill="#b3ffff" opacity="1.00" d=" M 59.08 54.65 C 60.96 55.23 62.92 55.18 64.82 54.72 C 65.40 55.33 65.98 55.95 66.55 56.57 C 63.97 58.57 60.68 58.86 57.63 57.83 C 58.12 56.77 58.60 55.71 59.08 54.65 Z" />
<path fill="#4177db" opacity="1.00" d=" M 79.29 55.37 C 83.18 54.98 87.11 54.74 90.91 53.74 L 90.94 53.74 L 92.31 53.76 C 93.17 54.40 94.03 55.03 94.89 55.65 C 95.20 56.36 95.81 57.77 96.12 58.48 C 91.72 57.10 86.96 54.08 82.46 56.96 C 86.28 59.08 90.74 59.43 94.68 61.18 C 94.87 61.62 95.25 62.50 95.44 62.93 C 94.01 63.08 92.58 63.22 91.14 63.34 C 88.92 62.31 86.52 61.78 84.11 61.40 C 85.97 62.83 88.00 64.02 90.03 65.19 C 86.61 66.24 83.03 66.66 79.67 67.89 C 80.26 68.76 80.87 69.61 81.52 70.44 C 77.82 70.86 73.93 70.90 70.49 72.50 C 70.16 73.11 69.50 74.33 69.16 74.95 C 68.99 74.41 68.63 73.33 68.45 72.79 C 70.18 70.73 72.65 69.62 75.30 69.37 C 75.02 69.33 74.46 69.25 74.18 69.20 C 73.93 68.82 73.45 68.06 73.20 67.69 C 75.69 67.22 78.89 67.70 80.61 65.45 C 81.14 64.02 79.85 62.98 79.14 61.93 L 79.25 61.56 C 79.66 60.51 80.10 59.46 80.54 58.42 C 80.13 57.40 79.71 56.39 79.29 55.37 Z" />
<path fill="#67baff" opacity="1.00" d=" M 92.31 53.76 C 97.71 54.02 103.44 55.84 107.31 59.74 C 108.85 61.81 106.21 63.36 104.71 64.34 C 105.95 58.45 99.28 56.66 94.89 55.65 C 94.03 55.03 93.17 54.40 92.31 53.76 Z" />
<path fill="#2947b3" opacity="1.00" d=" M 41.52 55.36 C 43.40 55.34 45.27 54.97 47.16 55.04 C 46.72 55.59 45.84 56.70 45.41 57.25 C 46.01 57.74 47.22 58.71 47.83 59.20 C 45.48 60.05 42.46 60.51 41.77 63.37 C 41.71 63.51 41.58 63.78 41.52 63.91 C 39.25 63.29 36.96 62.70 34.62 62.44 C 36.98 60.14 39.27 57.77 41.52 55.36 Z" />
<path fill="#9effff" opacity="1.00" d=" M 7.28 63.49 C 12.14 62.71 12.03 55.28 17.35 55.57 C 16.51 57.64 15.29 59.51 13.58 60.96 C 11.61 62.85 10.10 65.14 8.44 67.29 L 7.79 68.12 L 7.68 67.19 C 7.59 66.37 7.42 64.74 7.33 63.92 L 7.28 63.49 Z" />
<path fill="#4e92e6" opacity="1.00" d=" M 17.35 55.57 C 20.95 58.78 19.57 64.07 16.48 67.10 C 16.97 67.42 17.93 68.07 18.41 68.40 C 17.09 69.34 15.86 70.41 14.63 71.48 C 17.32 71.82 20.04 71.69 22.65 70.96 C 20.41 73.10 18.11 75.20 15.64 77.07 C 15.19 74.09 14.09 71.22 11.73 69.24 C 13.35 66.75 14.20 63.92 13.58 60.96 C 15.29 59.51 16.51 57.64 17.35 55.57 Z" />
<path fill="#5db1e5" opacity="1.00" d=" M 49.37 57.98 C 46.68 58.99 47.19 55.23 49.57 55.79 C 49.52 56.34 49.42 57.43 49.37 57.98 Z" />
<path fill="#3969cb" opacity="1.00" d=" M 49.57 55.79 C 50.17 55.55 51.36 55.07 51.96 54.83 C 53.88 56.69 55.46 59.15 58.10 60.07 C 60.59 60.95 63.24 60.13 65.59 59.23 C 66.13 60.41 66.67 61.59 67.28 62.73 C 65.98 62.73 64.67 62.72 63.37 62.71 C 62.67 63.79 61.98 64.88 61.28 65.97 C 63.21 66.04 65.13 66.12 67.06 66.10 C 65.45 67.10 63.94 68.26 62.45 69.42 C 59.10 69.75 55.81 70.50 52.58 71.42 C 54.61 69.48 56.51 67.42 58.46 65.40 C 59.34 64.65 60.23 63.89 61.11 63.13 C 59.45 63.35 57.79 63.57 56.15 63.86 C 55.20 62.45 54.26 61.04 53.27 59.67 C 53.06 59.39 52.63 58.84 52.42 58.56 C 51.66 58.42 50.13 58.12 49.37 57.98 C 49.42 57.43 49.52 56.34 49.57 55.79 Z" />
<path fill="#325abf" opacity="1.00" d=" M 82.46 56.96 C 86.96 54.08 91.72 57.10 96.12 58.48 C 95.81 57.77 95.20 56.36 94.89 55.65 C 99.28 56.66 105.95 58.45 104.71 64.34 C 100.20 64.92 95.46 64.96 91.14 63.34 C 92.58 63.22 94.01 63.08 95.44 62.93 C 95.25 62.50 94.87 61.62 94.68 61.18 C 90.74 59.43 86.28 59.08 82.46 56.96 Z" />
<path fill="#57a6ff" opacity="1.00" d=" M 2.51 57.87 C 3.72 60.19 4.36 63.30 7.33 63.92 C 7.42 64.74 7.59 66.37 7.68 67.19 C 3.38 66.32 1.33 61.91 2.51 57.87 Z" />
<path fill="#4f93f0" opacity="1.00" d=" M 65.59 59.23 C 69.35 57.06 72.46 61.89 76.46 61.40 C 74.31 62.64 71.82 62.62 69.42 62.64 C 70.32 63.42 71.22 64.21 72.12 65.00 C 70.00 66.54 67.84 68.03 65.49 69.21 C 64.73 69.26 63.21 69.37 62.45 69.42 C 63.94 68.26 65.45 67.10 67.06 66.10 C 67.53 65.88 68.48 65.44 68.95 65.23 C 68.53 64.60 67.70 63.36 67.28 62.73 C 66.67 61.59 66.13 60.41 65.59 59.23 Z" />
<path fill="#243da5" opacity="1.00" d=" M 73.70 59.30 C 75.85 59.37 77.64 60.49 79.14 61.93 C 79.85 62.98 81.14 64.02 80.61 65.45 C 78.89 67.70 75.69 67.22 73.20 67.69 C 73.45 68.06 73.93 68.82 74.18 69.20 C 71.28 69.10 68.38 69.11 65.49 69.21 C 67.84 68.03 70.00 66.54 72.12 65.00 C 71.22 64.21 70.32 63.42 69.42 62.64 C 71.82 62.62 74.31 62.64 76.46 61.40 C 75.56 60.67 74.64 59.98 73.70 59.30 Z" />
<path fill="#4989e5" opacity="1.00" d=" M 43.45 62.58 C 46.18 60.36 50.02 60.64 53.27 59.67 C 54.26 61.04 55.20 62.45 56.15 63.86 C 53.70 64.57 51.36 65.69 49.43 67.38 C 47.83 70.13 46.17 72.85 44.07 75.25 C 42.27 74.96 40.46 74.65 38.64 74.49 C 43.48 74.34 46.31 70.37 48.12 66.38 C 47.63 66.19 46.66 65.81 46.17 65.63 C 45.16 64.76 42.90 64.33 43.45 62.58 Z" />
<path fill="#3d71d1" opacity="1.00" d=" M 13.58 60.96 C 14.20 63.92 13.35 66.75 11.73 69.24 C 10.63 68.59 9.53 67.94 8.44 67.29 C 10.10 65.14 11.61 62.85 13.58 60.96 Z" />
<path fill="#233ba4" opacity="1.00" d=" M 63.37 62.71 C 64.67 62.72 65.98 62.73 67.28 62.73 C 67.70 63.36 68.53 64.60 68.95 65.23 C 68.48 65.44 67.53 65.88 67.06 66.10 C 65.13 66.12 63.21 66.04 61.28 65.97 C 61.98 64.88 62.67 63.79 63.37 62.71 Z" />
<path fill="#89ffff" opacity="1.00" d=" M 25.31 63.18 C 27.26 62.93 28.98 63.97 30.22 65.40 C 28.82 66.36 27.13 66.38 25.52 66.51 C 24.56 67.96 23.64 69.44 22.75 70.94 L 22.65 70.96 C 20.04 71.69 17.32 71.82 14.63 71.48 C 15.86 70.41 17.09 69.34 18.41 68.40 C 21.74 68.25 23.44 65.50 25.31 63.18 Z" />
<path fill="#4d93d8" opacity="1.00" d=" M 41.52 63.91 C 41.58 63.78 41.71 63.51 41.77 63.37 C 41.71 63.51 41.58 63.78 41.52 63.91 Z" />
<path fill="#2947b0" opacity="1.00" d=" M 56.15 63.86 C 57.79 63.57 59.45 63.35 61.11 63.13 C 60.23 63.89 59.34 64.65 58.46 65.40 C 56.46 66.28 54.47 67.16 52.57 68.23 C 51.52 67.95 50.47 67.67 49.43 67.38 C 51.36 65.69 53.70 64.57 56.15 63.86 Z" />
<path fill="#67baff" opacity="1.00" d=" M 36.98 64.25 C 39.74 64.95 42.53 65.58 45.37 65.91 C 42.65 66.92 40.10 68.31 37.57 69.72 C 37.41 67.89 37.22 66.07 36.98 64.25 Z" />
<path fill="#57a6df" opacity="1.00" d=" M 30.22 65.40 C 30.17 65.73 30.09 66.38 30.05 66.70 C 27.67 68.19 25.13 69.43 22.75 70.94 C 23.64 69.44 24.56 67.96 25.52 66.51 C 27.13 66.38 28.82 66.36 30.22 65.40 Z" />
<path fill="#2a4ab0" opacity="1.00" d=" M 46.17 65.63 C 46.66 65.81 47.63 66.19 48.12 66.38 C 46.31 70.37 43.48 74.34 38.64 74.49 C 38.17 74.56 37.25 74.70 36.79 74.77 C 35.51 74.90 34.22 75.04 32.94 75.18 C 33.24 73.27 33.55 71.37 33.91 69.47 C 35.12 69.61 36.35 69.69 37.57 69.72 C 40.10 68.31 42.65 66.92 45.37 65.91 C 45.57 65.84 45.97 65.70 46.17 65.63 Z" />
<path fill="#58a1f8" opacity="1.00" d=" M 52.57 68.23 C 54.47 67.16 56.46 66.28 58.46 65.40 C 56.51 67.42 54.61 69.48 52.58 71.42 C 52.22 71.75 51.51 72.42 51.16 72.75 C 51.16 71.12 51.70 69.59 52.57 68.23 Z" />
<path fill="#3c6bd3" opacity="1.00" d=" M 44.07 75.25 C 46.17 72.85 47.83 70.13 49.43 67.38 C 50.47 67.67 51.52 67.95 52.57 68.23 C 51.70 69.59 51.16 71.12 51.16 72.75 C 51.05 73.54 50.97 74.34 50.90 75.14 L 50.89 75.77 C 50.25 75.09 49.90 74.21 49.47 73.40 C 49.29 75.42 47.92 76.61 45.97 76.90 C 42.92 75.74 39.65 77.20 37.32 79.20 C 36.25 79.26 35.12 79.06 34.09 79.40 C 30.26 81.20 26.14 82.25 21.91 82.53 C 26.96 79.61 31.56 74.71 37.85 75.32 C 37.58 75.18 37.05 74.91 36.79 74.77 C 37.25 74.70 38.17 74.56 38.64 74.49 C 40.46 74.65 42.27 74.96 44.07 75.25 Z" />
<path fill="#57a6ff" opacity="1.00" d=" M 19.31 75.95 C 22.83 72.77 26.65 69.84 30.99 67.85 L 31.82 68.11 C 31.57 69.74 32.07 70.03 33.31 68.98 C 33.46 69.10 33.76 69.35 33.91 69.47 C 33.55 71.37 33.24 73.27 32.94 75.18 C 34.22 75.04 35.51 74.90 36.79 74.77 C 37.05 74.91 37.58 75.18 37.85 75.32 C 31.56 74.71 26.96 79.61 21.91 82.53 C 20.40 82.71 18.89 82.91 17.38 83.10 C 21.60 79.78 27.28 78.92 31.10 75.01 C 32.55 74.02 32.19 72.11 32.53 70.62 C 28.04 72.19 24.00 74.91 19.31 75.95 Z" />
<path fill="#89ffff" opacity="1.00" d=" M 31.82 68.11 C 32.19 68.32 32.94 68.76 33.31 68.98 C 32.07 70.03 31.57 69.74 31.82 68.11 Z" />
<path fill="#2a4ab1" opacity="1.00" d=" M 19.31 75.95 C 24.00 74.91 28.04 72.19 32.53 70.62 C 32.19 72.11 32.55 74.02 31.10 75.01 C 27.28 78.92 21.60 79.78 17.38 83.10 C 16.86 82.81 15.81 82.24 15.28 81.95 C 16.21 79.71 17.35 77.48 19.31 75.95 Z" />
<path fill="#2a49b0" opacity="1.00" d=" M 70.49 72.50 C 73.93 70.90 77.82 70.86 81.52 70.44 C 81.43 71.33 81.24 73.11 81.15 74.01 C 77.45 75.88 73.14 75.45 69.16 74.95 C 69.50 74.33 70.16 73.11 70.49 72.50 Z" />
<path fill="#539ef8" opacity="1.00" d=" M 81.52 70.44 C 82.51 71.47 83.58 72.43 84.63 73.40 C 80.08 77.44 72.46 78.58 67.20 75.26 C 67.52 74.65 68.14 73.41 68.45 72.79 C 68.63 73.33 68.99 74.41 69.16 74.95 C 73.14 75.45 77.45 75.88 81.15 74.01 C 81.24 73.11 81.43 71.33 81.52 70.44 Z" />
<path fill="#73ceff" opacity="1.00" d=" M 49.47 73.40 C 49.90 74.21 50.25 75.09 50.89 75.77 C 51.93 76.94 53.11 77.98 54.45 78.79 C 54.76 82.54 51.81 84.83 49.15 86.84 C 47.95 86.65 46.76 86.46 45.56 86.33 C 45.91 82.69 47.94 79.30 51.48 77.97 C 50.93 77.52 50.38 77.07 49.82 76.63 C 48.07 78.36 45.72 78.76 43.37 78.69 C 44.02 78.24 45.32 77.35 45.97 76.90 C 47.92 76.61 49.29 75.42 49.47 73.40 Z" />
<path fill="#3e6dde" opacity="1.00" d=" M 49.82 76.63 C 50.38 77.07 50.93 77.52 51.48 77.97 C 47.94 79.30 45.91 82.69 45.56 86.33 C 43.55 87.24 41.59 88.26 39.60 89.21 C 39.70 89.86 39.89 91.16 39.98 91.82 C 39.51 91.00 39.04 90.17 38.59 89.34 C 37.92 89.31 36.58 89.26 35.91 89.23 L 36.09 88.49 C 36.53 86.73 36.98 84.99 37.41 83.23 C 39.32 81.62 41.33 80.14 43.37 78.69 C 45.72 78.76 48.07 78.36 49.82 76.63 Z" />
<path fill="#1c2c97" opacity="1.00" d=" M 54.45 78.79 C 57.09 80.17 59.82 81.37 62.43 82.80 C 61.92 84.76 61.41 86.73 60.90 88.70 C 59.06 88.07 57.20 87.51 55.26 87.34 C 53.53 87.23 51.79 87.16 50.07 86.97 L 49.15 86.84 C 51.81 84.83 54.76 82.54 54.45 78.79 Z" />
<path fill="#3056bb" opacity="1.00" d=" M 62.43 82.80 C 64.62 84.01 66.32 85.86 67.63 87.96 C 63.25 92.44 57.10 94.46 51.11 95.66 C 49.65 92.04 53.19 89.69 55.26 87.34 C 57.20 87.51 59.06 88.07 60.90 88.70 C 61.41 86.73 61.92 84.76 62.43 82.80 Z" />
<path fill="#68c4ed" opacity="1.00" d=" M 33.38 87.04 C 34.66 85.70 36.01 84.44 37.41 83.23 C 36.98 84.99 36.53 86.73 36.09 88.49 C 35.41 88.13 34.06 87.40 33.38 87.04 Z" />
<path fill="#67baff" opacity="1.00" d=" M 39.60 89.21 C 41.59 88.26 43.55 87.24 45.56 86.33 C 46.76 86.46 47.95 86.65 49.15 86.84 L 50.07 86.97 C 51.79 87.16 53.53 87.23 55.26 87.34 C 53.19 89.69 49.65 92.04 51.11 95.66 C 47.19 95.72 42.12 95.82 39.98 91.82 C 39.89 91.16 39.70 89.86 39.60 89.21 Z" />
<path fill="#57a6ff" opacity="1.00" d=" M 29.67 93.99 C 29.86 91.26 31.73 89.08 33.38 87.04 C 34.06 87.40 35.41 88.13 36.09 88.49 L 35.91 89.23 C 35.37 92.28 37.40 94.83 38.70 97.37 C 35.70 96.81 31.03 97.46 29.67 93.99 Z" />
<path fill="#253fa8" opacity="1.00" d=" M 35.91 89.23 C 36.58 89.26 37.92 89.31 38.59 89.34 C 39.04 90.17 39.51 91.00 39.98 91.82 C 42.12 95.82 47.19 95.72 51.11 95.66 C 47.00 96.41 42.87 97.11 38.70 97.37 C 37.40 94.83 35.37 92.28 35.91 89.23 Z" />
</svg>
