<?xml version="1.0" encoding="UTF-8" ?>
<!DOCTYPE svg PUBLIC "-//W3C//DTD SVG 1.1//EN" "http://www.w3.org/Graphics/SVG/1.1/DTD/svg11.dtd">
<svg width="111pt" height="111pt" viewBox="0 0 111 111" version="1.1" xmlns="http://www.w3.org/2000/svg">
<path fill="#100607" opacity="0.87" d=" M 57.03 3.89 C 66.05 7.04 78.98 11.72 78.99 23.08 L 78.14 22.91 C 76.96 15.19 70.05 9.92 62.90 7.94 C 67.57 12.59 72.51 17.82 72.49 24.85 C 70.85 27.08 68.43 28.41 65.98 29.57 C 65.01 30.04 64.05 30.53 63.09 31.03 C 62.63 31.07 61.69 31.15 61.22 31.19 C 60.68 31.17 59.58 31.13 59.03 31.10 C 60.08 29.12 63.84 29.21 65.93 27.88 C 69.46 27.35 72.39 23.16 70.12 19.91 C 67.72 13.07 60.79 9.71 57.03 3.89 Z" />
<path fill="#ae3845" opacity="1.00" d=" M 62.90 7.94 C 70.05 9.92 76.96 15.19 78.14 22.91 C 79.53 27.61 76.17 29.72 73.23 32.15 C 73.07 29.70 72.82 27.27 72.49 24.85 C 72.51 17.82 67.57 12.59 62.90 7.94 Z" />
<path fill="#090404" opacity="0.78" d=" M 82.97 25.89 C 84.77 23.83 87.55 22.92 90.09 22.07 C 90.18 24.65 87.10 25.59 85.26 26.73 C 84.69 26.52 83.55 26.10 82.97 25.89 Z" />
<path fill="#311314" opacity="1.00" d=" M 78.14 22.91 L 78.99 23.08 C 79.02 24.40 79.05 25.71 79.09 27.03 C 80.41 26.72 81.66 26.20 82.97 25.89 C 83.55 26.10 84.69 26.52 85.26 26.73 C 84.96 27.02 84.36 27.59 84.06 27.87 L 83.08 28.00 C 79.83 28.00 77.33 30.57 75.03 32.53 C 70.03 36.91 66.39 43.15 66.94 50.01 C 66.78 50.29 66.47 50.84 66.31 51.12 C 64.56 45.30 67.29 39.93 70.24 35.19 C 71.26 34.20 72.25 33.18 73.23 32.15 C 76.17 29.72 79.53 27.61 78.14 22.91 Z" />
<path fill="#100506" opacity="0.87" d=" M 91.22 28.22 C 93.82 24.98 97.68 22.92 102.05 24.00 C 101.83 26.48 98.70 27.76 96.75 28.82 L 96.86 27.83 C 97.16 27.09 100.21 24.33 98.15 25.12 C 91.22 26.87 89.96 34.56 86.79 39.77 C 85.73 41.47 83.00 43.33 81.78 40.71 L 81.55 40.00 C 88.35 40.98 87.71 31.68 91.22 28.22 Z" />
<path fill="#e8685c" opacity="1.00" d=" M 72.49 24.85 C 72.82 27.27 73.07 29.70 73.23 32.15 C 72.25 33.18 71.26 34.20 70.24 35.19 C 68.89 35.86 67.54 36.53 66.16 37.14 C 66.57 35.08 67.12 33.00 66.86 30.88 C 66.64 30.56 66.20 29.90 65.98 29.57 C 68.43 28.41 70.85 27.08 72.49 24.85 Z" />
<path fill="#a43246" opacity="1.00" d=" M 86.79 39.77 C 89.96 34.56 91.22 26.87 98.15 25.12 C 100.21 24.33 97.16 27.09 96.86 27.83 C 95.78 28.80 94.85 29.93 94.50 31.37 C 95.22 35.94 90.61 37.65 89.39 41.33 C 88.07 43.81 90.24 47.85 87.78 49.93 C 83.76 52.20 81.99 48.59 80.49 46.09 C 80.98 44.31 81.30 42.49 81.78 40.71 C 83.00 43.33 85.73 41.47 86.79 39.77 Z" />
<path fill="#c24d51" opacity="1.00" d=" M 75.03 32.53 C 77.33 30.57 79.83 28.00 83.08 28.00 C 82.30 29.28 81.52 30.56 80.81 31.87 C 78.63 37.53 77.40 44.72 81.05 49.99 C 79.49 51.34 78.10 50.61 76.96 49.19 C 76.65 48.60 76.03 47.44 75.72 46.86 C 76.29 44.03 80.00 39.49 76.61 37.41 C 74.63 36.58 75.43 34.20 75.03 32.53 Z" />
<path fill="#090304" opacity="0.79" d=" M 83.08 28.00 L 84.06 27.87 C 83.47 29.97 82.88 32.95 80.92 33.99 C 80.89 33.46 80.83 32.40 80.81 31.87 C 81.52 30.56 82.30 29.28 83.08 28.00 Z" />
<path fill="#250d0f" opacity="0.96" d=" M 94.50 31.37 C 94.85 29.93 95.78 28.80 96.86 27.83 L 96.75 28.82 C 96.44 30.97 94.57 32.70 94.97 35.01 C 99.99 34.36 105.03 33.62 110.12 34.04 C 109.51 35.94 107.84 36.33 106.06 35.78 L 105.12 35.66 C 100.72 35.04 95.47 35.91 92.21 39.18 C 89.53 41.25 91.56 45.27 91.12 48.18 C 89.81 49.61 88.34 50.86 86.87 52.12 C 85.27 51.83 83.71 51.35 82.18 50.79 C 81.90 50.59 81.33 50.19 81.05 49.99 C 77.40 44.72 78.63 37.53 80.81 31.87 C 80.83 32.40 80.89 33.46 80.92 33.99 C 80.73 36.04 81.95 38.01 81.55 40.00 C 78.54 39.76 79.14 44.28 80.49 46.09 C 81.99 48.59 83.76 52.20 87.78 49.93 C 90.24 47.85 88.07 43.81 89.39 41.33 C 90.61 37.65 95.22 35.94 94.50 31.37 Z" />
<path fill="#1a0a0a" opacity="0.90" d=" M 7.03 39.02 C 10.00 35.48 13.09 30.67 18.06 29.93 C 14.02 34.89 9.59 43.02 14.18 48.92 C 17.87 51.10 19.26 47.98 21.22 46.21 C 22.63 47.06 24.05 47.87 25.62 48.41 C 27.15 53.05 31.72 57.18 37.01 56.01 C 37.60 50.68 35.39 45.47 36.11 40.17 C 36.57 39.86 37.49 39.25 37.95 38.94 L 37.79 39.80 C 34.41 45.71 42.87 53.84 35.88 57.92 C 33.66 57.39 31.49 56.67 29.33 55.95 C 27.34 53.90 25.35 51.85 23.33 49.83 C 21.82 46.55 19.73 49.91 18.11 51.25 C 16.29 51.05 14.42 50.82 12.88 49.75 C 12.23 49.03 11.58 48.32 10.91 47.62 C 10.76 43.66 10.99 39.71 11.87 35.85 C 8.29 38.72 5.82 42.89 4.03 47.08 C 4.06 50.14 6.75 52.34 8.84 54.27 C 9.69 55.06 10.69 55.68 11.70 56.26 C 13.82 57.89 16.48 60.52 13.74 62.99 C 11.58 65.50 7.25 67.19 7.96 71.13 C 9.46 74.99 14.58 74.78 17.13 72.03 C 20.62 71.36 17.78 74.44 17.18 75.97 C 21.31 77.33 25.79 76.75 30.06 77.13 C 30.27 77.60 30.69 78.54 30.89 79.01 C 26.51 81.79 19.98 82.34 17.26 87.25 C 16.15 89.27 18.80 89.40 20.09 89.90 C 22.48 89.78 24.81 89.14 27.21 89.07 L 26.82 89.86 C 23.47 91.44 19.38 91.61 16.11 89.80 C 14.63 83.54 21.71 81.63 26.17 79.61 C 31.33 77.40 23.73 78.10 20.99 78.00 C 18.99 78.02 16.56 78.46 16.05 75.94 C 15.02 73.54 12.28 76.88 10.66 75.40 C 8.38 74.08 5.27 72.15 6.01 69.06 C 7.52 65.42 11.15 63.48 13.89 60.87 C 11.75 56.68 5.60 55.03 3.59 50.35 C 1.32 46.05 5.16 42.38 7.03 39.02 Z" />
<path fill="#f8e8e1" opacity="1.00" d=" M 63.09 31.03 C 64.05 30.53 65.01 30.04 65.98 29.57 C 66.20 29.90 66.64 30.56 66.86 30.88 C 63.74 32.37 63.72 35.42 65.16 38.20 C 63.86 42.18 62.34 46.09 60.87 50.01 C 59.70 49.20 58.52 48.40 57.29 47.67 C 55.83 46.12 54.20 44.71 51.91 44.92 C 52.74 42.35 53.01 39.08 56.06 38.08 C 59.20 36.60 61.72 34.22 63.09 31.03 Z" />
<path fill="#2c1918" opacity="0.96" d=" M 48.78 39.79 C 50.73 35.59 54.11 31.38 59.03 31.10 C 59.58 31.13 60.68 31.17 61.22 31.19 C 55.21 33.13 48.63 37.91 48.99 44.88 C 49.72 44.89 51.18 44.91 51.91 44.92 C 54.20 44.71 55.83 46.12 57.29 47.67 L 56.31 48.02 C 55.80 47.73 54.76 47.15 54.25 46.86 C 53.52 46.33 52.73 46.19 51.87 46.42 C 43.80 44.85 41.08 55.04 42.98 61.05 C 42.66 61.58 42.02 62.65 41.71 63.18 C 41.56 62.87 41.27 62.25 41.13 61.94 C 41.06 61.19 40.91 59.69 40.84 58.94 C 39.49 55.13 41.86 51.63 43.13 48.16 C 45.74 46.61 47.83 44.36 47.99 41.17 C 46.49 40.12 44.85 39.13 42.99 38.91 C 41.22 38.87 39.47 39.26 37.79 39.80 L 37.95 38.94 C 40.50 35.10 45.49 38.52 48.78 39.79 Z" />
<path fill="#f38872" opacity="1.00" d=" M 61.22 31.19 C 61.69 31.15 62.63 31.07 63.09 31.03 C 61.72 34.22 59.20 36.60 56.06 38.08 C 53.01 39.08 52.74 42.35 51.91 44.92 C 51.18 44.91 49.72 44.89 48.99 44.88 C 48.63 37.91 55.21 33.13 61.22 31.19 Z" />
<path fill="#f6baa2" opacity="1.00" d=" M 65.16 38.20 C 63.72 35.42 63.74 32.37 66.86 30.88 C 67.12 33.00 66.57 35.08 66.16 37.14 C 65.91 37.41 65.41 37.93 65.16 38.20 Z" />
<path fill="#df6b64" opacity="1.00" d=" M 66.94 50.01 C 66.39 43.15 70.03 36.91 75.03 32.53 C 75.43 34.20 74.63 36.58 76.61 37.41 C 80.00 39.49 76.29 44.03 75.72 46.86 C 75.09 46.55 74.50 46.55 73.95 46.87 C 72.17 48.51 68.88 47.49 67.72 49.74 L 66.94 50.01 Z" />
<path fill="#d1585a" opacity="1.00" d=" M 66.16 37.14 C 67.54 36.53 68.89 35.86 70.24 35.19 C 67.29 39.93 64.56 45.30 66.31 51.12 C 66.59 52.72 67.00 54.29 67.35 55.88 C 65.84 57.49 64.57 59.79 62.21 60.17 C 62.19 56.74 62.12 53.25 60.87 50.01 C 62.34 46.09 63.86 42.18 65.16 38.20 C 65.41 37.93 65.91 37.41 66.16 37.14 Z" />
<path fill="#b43844" opacity="1.00" d=" M 92.21 39.18 C 95.47 35.91 100.72 35.04 105.12 35.66 C 102.51 37.65 100.54 40.20 99.11 43.12 C 97.02 44.35 94.64 45.10 92.83 46.74 C 92.40 47.10 91.55 47.82 91.12 48.18 C 91.56 45.27 89.53 41.25 92.21 39.18 Z" />
<path fill="#b23844" opacity="1.00" d=" M 4.03 47.08 C 5.82 42.89 8.29 38.72 11.87 35.85 C 10.99 39.71 10.76 43.66 10.91 47.62 C 10.26 49.85 9.57 52.06 8.84 54.27 C 6.75 52.34 4.06 50.14 4.03 47.08 Z" />
<path fill="#100506" opacity="0.85" d=" M 99.11 43.12 C 100.54 40.20 102.51 37.65 105.12 35.66 L 106.06 35.78 C 104.88 39.60 98.21 40.57 100.98 46.03 C 101.28 51.73 112.88 53.81 109.08 60.05 C 107.70 62.33 104.73 63.03 102.85 64.86 C 104.27 64.95 105.70 65.04 107.13 65.13 C 106.00 67.08 103.87 67.97 102.10 69.21 C 100.68 73.83 109.24 74.33 105.86 79.78 C 102.33 84.31 95.99 82.89 91.00 82.97 C 85.64 81.34 80.57 78.37 74.74 78.71 L 74.59 77.93 C 76.72 78.31 78.89 78.19 81.01 77.77 C 81.46 77.92 82.35 78.22 82.80 78.37 C 85.77 79.40 88.69 80.60 91.77 81.28 C 94.55 81.91 97.54 82.45 100.29 81.41 C 102.11 81.12 103.68 80.17 104.86 78.77 C 105.79 76.44 103.59 75.08 102.07 73.83 C 98.59 71.18 103.29 67.52 100.03 65.01 C 101.40 64.10 102.73 63.14 104.05 62.15 C 106.82 61.18 109.81 58.38 107.05 55.59 C 105.56 53.92 103.91 52.41 102.29 50.88 C 101.15 49.66 100.00 48.44 98.89 47.19 C 98.95 45.83 99.02 44.48 99.11 43.12 Z" />
<path fill="#dd5b4c" opacity="1.00" d=" M 37.79 39.80 C 39.47 39.26 41.22 38.87 42.99 38.91 C 43.03 41.99 43.06 45.08 43.13 48.16 C 41.86 51.63 39.49 55.13 40.84 58.94 C 39.30 58.16 37.58 58.01 35.88 57.92 C 42.87 53.84 34.41 45.71 37.79 39.80 Z" />
<path fill="#ab3446" opacity="1.00" d=" M 42.99 38.91 C 44.85 39.13 46.49 40.12 47.99 41.17 C 47.83 44.36 45.74 46.61 43.13 48.16 C 43.06 45.08 43.03 41.99 42.99 38.91 Z" />
<path fill="#702532" opacity="1.00" d=" M 80.49 46.09 C 79.14 44.28 78.54 39.76 81.55 40.00 L 81.78 40.71 C 81.30 42.49 80.98 44.31 80.49 46.09 Z" />
<path fill="#cd4a52" opacity="1.00" d=" M 92.83 46.74 C 94.64 45.10 97.02 44.35 99.11 43.12 C 99.02 44.48 98.95 45.83 98.89 47.19 C 96.89 48.11 94.83 47.10 92.83 46.74 Z" />
<path fill="#f67b98" opacity="1.00" d=" M 51.87 46.42 C 52.73 46.19 53.52 46.33 54.25 46.86 C 55.08 51.74 49.91 54.64 45.65 54.31 C 47.05 51.01 48.96 47.92 52.93 47.67 C 52.66 47.35 52.13 46.73 51.87 46.42 Z" />
<path fill="#f6b3a2" opacity="1.00" d=" M 73.95 46.87 C 74.50 46.55 75.09 46.55 75.72 46.86 C 76.03 47.44 76.65 48.60 76.96 49.19 C 76.87 50.83 76.60 52.45 76.32 54.07 C 77.54 53.72 78.73 53.30 79.93 52.88 C 79.45 54.97 78.85 57.03 78.07 59.03 C 76.45 59.08 74.83 59.04 73.20 59.03 C 73.12 57.71 73.01 56.39 72.87 55.08 C 71.86 55.27 70.86 55.48 69.86 55.71 C 71.24 52.77 72.92 49.97 73.95 46.87 Z" />
<path fill="#f0d5da" opacity="1.00" d=" M 42.98 61.05 C 41.08 55.04 43.80 44.85 51.87 46.42 C 52.13 46.73 52.66 47.35 52.93 47.67 C 48.96 47.92 47.05 51.01 45.65 54.31 L 44.83 54.31 C 41.75 53.85 45.28 59.61 42.98 61.05 Z" />
<path fill="#bd4a6d" opacity="1.00" d=" M 54.25 46.86 C 54.76 47.15 55.80 47.73 56.31 48.02 C 56.08 49.76 52.37 53.45 55.93 53.15 C 55.80 53.63 55.55 54.59 55.42 55.07 C 53.01 52.54 49.65 54.89 47.69 56.78 C 47.29 57.11 46.49 57.78 46.09 58.11 C 45.61 56.86 45.19 55.59 44.83 54.31 L 45.65 54.31 C 49.91 54.64 55.08 51.74 54.25 46.86 Z" />
<path fill="#f18979" opacity="1.00" d=" M 67.72 49.74 C 68.88 47.49 72.17 48.51 73.95 46.87 C 72.92 49.97 71.24 52.77 69.86 55.71 C 70.86 55.48 71.86 55.27 72.87 55.08 C 73.01 56.39 73.12 57.71 73.20 59.03 C 72.91 59.25 72.32 59.70 72.02 59.92 C 72.54 56.28 68.69 59.76 66.70 59.32 C 67.09 58.78 67.87 57.71 68.26 57.18 C 69.94 55.09 68.17 52.03 67.72 49.74 Z" />
<path fill="#e16365" opacity="1.00" d=" M 91.12 48.18 C 91.55 47.82 92.40 47.10 92.83 46.74 C 94.83 47.10 96.89 48.11 98.89 47.19 C 100.00 48.44 101.15 49.66 102.29 50.88 C 101.59 51.73 100.89 52.58 100.17 53.42 C 97.82 51.97 94.04 48.24 92.55 52.48 C 89.37 51.25 88.86 56.01 86.06 55.31 L 85.19 55.21 C 85.72 54.17 86.30 53.14 86.87 52.12 C 88.34 50.86 89.81 49.61 91.12 48.18 Z" />
<path fill="#d3534a" opacity="1.00" d=" M 8.84 54.27 C 9.57 52.06 10.26 49.85 10.91 47.62 C 11.58 48.32 12.23 49.03 12.88 49.75 C 12.58 51.38 11.99 54.63 11.70 56.26 C 10.69 55.68 9.69 55.06 8.84 54.27 Z" />
<path fill="#f6d7ca" opacity="1.00" d=" M 18.11 51.25 C 19.73 49.91 21.82 46.55 23.33 49.83 C 21.13 53.04 21.38 59.14 16.19 58.92 C 13.61 57.33 16.31 55.83 17.69 54.65 C 17.89 53.52 18.03 52.39 18.11 51.25 Z" />
<path fill="#38161e" opacity="1.00" d=" M 56.31 48.02 L 57.29 47.67 C 58.52 48.40 59.70 49.20 60.87 50.01 C 62.12 53.25 62.19 56.74 62.21 60.17 C 64.57 59.79 65.84 57.49 67.35 55.88 C 67.58 56.21 68.04 56.86 68.26 57.18 C 67.87 57.71 67.09 58.78 66.70 59.32 C 64.79 60.68 62.91 62.11 60.83 63.23 C 59.48 63.14 58.14 63.11 56.79 63.11 C 57.85 64.23 59.14 65.06 60.41 65.91 L 59.99 66.83 C 58.62 66.24 57.25 65.63 55.88 65.03 C 55.13 63.41 55.03 61.63 55.23 59.88 C 56.50 60.58 57.55 61.85 59.08 61.98 C 59.51 61.79 60.38 61.42 60.81 61.24 C 60.69 59.61 60.46 56.36 60.34 54.73 C 60.08 53.11 60.09 51.28 58.85 50.04 C 56.80 49.51 56.69 51.87 55.93 53.15 C 52.37 53.45 56.08 49.76 56.31 48.02 Z" />
<path fill="#e87e72" opacity="1.00" d=" M 76.96 49.19 C 78.10 50.61 79.49 51.34 81.05 49.99 C 81.33 50.19 81.90 50.59 82.18 50.79 C 81.41 51.47 80.66 52.17 79.93 52.88 C 78.73 53.30 77.54 53.72 76.32 54.07 C 76.60 52.45 76.87 50.83 76.96 49.19 Z" />
<path fill="#f47662" opacity="1.00" d=" M 11.70 56.26 C 11.99 54.63 12.58 51.38 12.88 49.75 C 14.42 50.82 16.29 51.05 18.11 51.25 C 18.03 52.39 17.89 53.52 17.69 54.65 C 16.31 55.83 13.61 57.33 16.19 58.92 C 21.38 59.14 21.13 53.04 23.33 49.83 C 25.35 51.85 27.34 53.90 29.33 55.95 C 26.13 57.87 23.27 60.24 21.99 63.87 C 20.77 64.76 19.58 65.72 18.18 66.30 C 15.94 66.44 14.04 65.34 13.74 62.99 C 16.48 60.52 13.82 57.89 11.70 56.26 Z" />
<path fill="#cf518b" opacity="1.00" d=" M 55.93 53.15 C 56.69 51.87 56.80 49.51 58.85 50.04 C 60.09 51.28 60.08 53.11 60.34 54.73 C 60.06 55.09 59.48 55.82 59.20 56.18 C 58.60 54.93 59.89 51.90 57.90 51.94 C 57.56 55.36 58.38 58.68 59.08 61.98 C 57.55 61.85 56.50 60.58 55.23 59.88 C 55.33 58.27 55.32 56.67 55.42 55.07 C 55.55 54.59 55.80 53.63 55.93 53.15 Z" />
<path fill="#582c28" opacity="1.00" d=" M 66.94 50.01 L 67.72 49.74 C 68.17 52.03 69.94 55.09 68.26 57.18 C 68.04 56.86 67.58 56.21 67.35 55.88 C 67.00 54.29 66.59 52.72 66.31 51.12 C 66.47 50.84 66.78 50.29 66.94 50.01 Z" />
<path fill="#f88f85" opacity="1.00" d=" M 92.55 52.48 C 94.04 48.24 97.82 51.97 100.17 53.42 C 99.96 53.78 99.54 54.50 99.33 54.86 C 96.99 52.86 94.81 55.39 93.01 56.83 C 90.65 60.44 86.55 61.99 82.89 63.91 C 83.92 61.03 85.15 58.23 86.06 55.31 C 88.86 56.01 89.37 51.25 92.55 52.48 Z" />
<path fill="#ffd4c3" opacity="1.00" d=" M 79.93 52.88 C 80.66 52.17 81.41 51.47 82.18 50.79 C 82.27 53.44 80.45 55.84 80.86 58.44 C 80.01 58.91 79.08 59.11 78.07 59.03 C 78.85 57.03 79.45 54.97 79.93 52.88 Z" />
<path fill="#fc937d" opacity="1.00" d=" M 82.18 50.79 C 83.71 51.35 85.27 51.83 86.87 52.12 C 86.30 53.14 85.72 54.17 85.19 55.21 C 83.87 56.44 82.39 57.48 80.86 58.44 C 80.45 55.84 82.27 53.44 82.18 50.79 Z" />
<path fill="#c3444a" opacity="1.00" d=" M 102.29 50.88 C 103.91 52.41 105.56 53.92 107.05 55.59 C 104.87 57.09 104.63 59.79 104.05 62.15 C 102.73 63.14 101.40 64.10 100.03 65.01 L 99.33 65.30 C 100.51 62.61 99.73 60.05 97.76 58.02 C 98.24 56.95 98.77 55.89 99.33 54.86 C 99.54 54.50 99.96 53.78 100.17 53.42 C 100.89 52.58 101.59 51.73 102.29 50.88 Z" />
<path fill="#7c2247" opacity="1.00" d=" M 57.90 51.94 C 59.89 51.90 58.60 54.93 59.20 56.18 C 59.26 57.98 60.16 59.59 60.81 61.24 C 60.38 61.42 59.51 61.79 59.08 61.98 C 58.38 58.68 57.56 55.36 57.90 51.94 Z" />
<path fill="#f46b8c" opacity="1.00" d=" M 42.98 61.05 C 45.28 59.61 41.75 53.85 44.83 54.31 C 45.19 55.59 45.61 56.86 46.09 58.11 C 46.99 60.73 47.67 63.42 48.20 66.13 C 46.80 66.76 45.35 66.88 44.00 66.06 C 43.70 64.38 43.33 62.72 42.98 61.05 Z" />
<path fill="#fa6a8c" opacity="1.00" d=" M 47.69 56.78 C 49.65 54.89 53.01 52.54 55.42 55.07 C 55.32 56.67 55.33 58.27 55.23 59.88 C 55.03 61.63 55.13 63.41 55.88 65.03 C 54.30 65.41 52.73 65.89 51.10 65.94 C 47.98 64.08 48.12 59.95 47.69 56.78 Z" />
<path fill="#fcdbc8" opacity="1.00" d=" M 93.01 56.83 C 94.81 55.39 96.99 52.86 99.33 54.86 C 98.77 55.89 98.24 56.95 97.76 58.02 L 97.17 57.76 C 95.91 57.02 94.42 57.00 93.01 56.83 Z" />
<path fill="#9a3a6a" opacity="1.00" d=" M 60.34 54.73 C 60.46 56.36 60.69 59.61 60.81 61.24 C 60.16 59.59 59.26 57.98 59.20 56.18 C 59.48 55.82 60.06 55.09 60.34 54.73 Z" />
<path fill="#fdf6f2" opacity="1.00" d=" M 85.19 55.21 L 86.06 55.31 C 85.15 58.23 83.92 61.03 82.89 63.91 C 86.55 61.99 90.65 60.44 93.01 56.83 C 94.42 57.00 95.91 57.02 97.17 57.76 L 96.97 58.66 C 95.15 60.70 93.54 62.92 92.10 65.24 C 91.37 65.75 90.65 66.27 89.93 66.80 C 87.23 68.14 84.63 69.68 82.03 71.20 C 81.59 71.07 80.69 70.83 80.24 70.70 C 80.55 60.29 78.91 68.44 77.86 70.83 C 75.66 71.32 73.46 71.77 71.30 72.36 C 68.30 74.50 67.32 79.27 62.73 78.17 C 63.09 77.87 63.80 77.26 64.15 76.95 C 66.14 74.93 68.42 72.76 69.10 69.92 C 66.49 70.17 64.40 71.83 62.87 73.85 C 61.43 75.11 60.52 75.00 60.66 72.82 C 61.37 71.19 62.43 69.76 63.34 68.24 C 64.35 67.15 65.36 66.06 66.38 64.97 C 68.23 63.26 70.11 61.57 72.02 59.92 C 72.32 59.70 72.91 59.25 73.20 59.03 C 74.83 59.04 76.45 59.08 78.07 59.03 C 79.08 59.11 80.01 58.91 80.86 58.44 C 82.39 57.48 83.87 56.44 85.19 55.21 Z" />
<path fill="#e56352" opacity="1.00" d=" M 29.33 55.95 C 31.49 56.67 33.66 57.39 35.88 57.92 L 36.19 58.66 C 34.79 58.98 33.20 58.86 31.96 59.66 C 31.62 59.89 30.95 60.35 30.61 60.58 C 24.96 62.88 20.31 73.75 27.88 75.81 C 28.63 75.85 30.14 75.94 30.90 75.99 C 30.69 76.27 30.27 76.84 30.06 77.13 C 25.79 76.75 21.31 77.33 17.18 75.97 C 17.78 74.44 20.62 71.36 17.13 72.03 C 18.51 68.60 21.67 66.74 24.11 64.18 C 23.58 64.11 22.52 63.95 21.99 63.87 C 23.27 60.24 26.13 57.87 29.33 55.95 Z" />
<path fill="#a13444" opacity="1.00" d=" M 104.05 62.15 C 104.63 59.79 104.87 57.09 107.05 55.59 C 109.81 58.38 106.82 61.18 104.05 62.15 Z" />
<path fill="#d75579" opacity="1.00" d=" M 46.09 58.11 C 46.49 57.78 47.29 57.11 47.69 56.78 C 48.12 59.95 47.98 64.08 51.10 65.94 C 50.38 65.99 48.92 66.09 48.20 66.13 C 47.67 63.42 46.99 60.73 46.09 58.11 Z" />
<path fill="#fabda5" opacity="1.00" d=" M 35.88 57.92 C 37.58 58.01 39.30 58.16 40.84 58.94 C 40.91 59.69 41.06 61.19 41.13 61.94 C 39.90 62.44 38.66 62.89 37.41 63.31 C 37.08 61.74 36.95 60.10 36.19 58.66 L 35.88 57.92 Z" />
<path fill="#e86d5d" opacity="1.00" d=" M 66.70 59.32 C 68.69 59.76 72.54 56.28 72.02 59.92 C 70.11 61.57 68.23 63.26 66.38 64.97 C 64.99 64.54 62.22 63.66 60.83 63.23 C 62.91 62.11 64.79 60.68 66.70 59.32 Z" />
<path fill="#d95958" opacity="1.00" d=" M 97.17 57.76 L 97.76 58.02 C 99.73 60.05 100.51 62.61 99.33 65.30 C 98.39 67.33 97.24 69.25 95.81 70.97 C 94.25 71.92 92.71 72.88 91.16 73.83 C 91.06 72.11 89.37 72.07 88.09 71.64 C 88.60 69.99 89.40 68.44 89.93 66.80 C 90.65 66.27 91.37 65.75 92.10 65.24 C 95.11 64.40 96.74 61.65 96.97 58.66 L 97.17 57.76 Z" />
<path fill="#fcd4bb" opacity="1.00" d=" M 31.96 59.66 C 33.20 58.86 34.79 58.98 36.19 58.66 C 36.95 60.10 37.08 61.74 37.41 63.31 C 36.83 63.52 35.68 63.94 35.11 64.15 C 34.21 62.52 34.20 59.99 31.96 59.66 Z" />
<path fill="#fab8a8" opacity="1.00" d=" M 92.10 65.24 C 93.54 62.92 95.15 60.70 96.97 58.66 C 96.74 61.65 95.11 64.40 92.10 65.24 Z" />
<path fill="#fceed3" opacity="1.00" d=" M 30.61 60.58 C 30.95 60.35 31.62 59.89 31.96 59.66 C 34.20 59.99 34.21 62.52 35.11 64.15 C 33.85 64.60 32.56 65.10 31.19 64.94 C 29.82 63.83 30.70 62.04 30.61 60.58 Z" />
<path fill="#fbf3ef" opacity="1.00" d=" M 27.88 75.81 C 20.31 73.75 24.96 62.88 30.61 60.58 C 30.70 62.04 29.82 63.83 31.19 64.94 C 32.56 65.10 33.85 64.60 35.11 64.15 C 35.68 63.94 36.83 63.52 37.41 63.31 C 38.66 62.89 39.90 62.44 41.13 61.94 C 41.27 62.25 41.56 62.87 41.71 63.18 C 41.75 63.84 41.84 65.16 41.89 65.83 C 41.67 66.10 41.25 66.65 41.03 66.93 C 37.63 66.68 35.44 69.26 33.92 71.93 C 31.12 71.61 29.53 73.97 27.88 75.81 Z" />
<path fill="#280e12" opacity="1.00" d=" M 41.71 63.18 C 42.02 62.65 42.66 61.58 42.98 61.05 C 43.33 62.72 43.70 64.38 44.00 66.06 C 46.20 71.61 56.46 71.42 59.99 66.83 L 60.41 65.91 C 61.33 66.41 62.04 67.13 62.54 68.06 C 58.52 70.95 52.35 72.12 50.39 77.17 C 50.50 77.65 50.73 78.60 50.84 79.07 L 51.06 79.93 C 47.01 78.45 49.73 74.17 51.94 72.27 C 47.91 71.58 43.04 70.27 41.89 65.83 C 41.84 65.16 41.75 63.84 41.71 63.18 Z" />
<path fill="#ed6451" opacity="1.00" d=" M 7.96 71.13 C 7.25 67.19 11.58 65.50 13.74 62.99 C 14.04 65.34 15.94 66.44 18.18 66.30 C 14.74 67.84 11.43 69.66 7.96 71.13 Z" />
<path fill="#c1474b" opacity="1.00" d=" M 56.79 63.11 C 58.14 63.11 59.48 63.14 60.83 63.23 C 62.22 63.66 64.99 64.54 66.38 64.97 C 65.36 66.06 64.35 67.15 63.34 68.24 L 62.54 68.06 C 62.04 67.13 61.33 66.41 60.41 65.91 C 59.14 65.06 57.85 64.23 56.79 63.11 Z" />
<path fill="#cc4649" opacity="1.00" d=" M 18.18 66.30 C 19.58 65.72 20.77 64.76 21.99 63.87 C 22.52 63.95 23.58 64.11 24.11 64.18 C 21.67 66.74 18.51 68.60 17.13 72.03 C 14.58 74.78 9.46 74.99 7.96 71.13 C 11.43 69.66 14.74 67.84 18.18 66.30 Z" />
<path fill="#81274d" opacity="1.00" d=" M 51.10 65.94 C 52.73 65.89 54.30 65.41 55.88 65.03 C 57.25 65.63 58.62 66.24 59.99 66.83 C 56.46 71.42 46.20 71.61 44.00 66.06 C 45.35 66.88 46.80 66.76 48.20 66.13 C 48.92 66.09 50.38 65.99 51.10 65.94 Z" />
<path fill="#a83846" opacity="1.00" d=" M 99.33 65.30 L 100.03 65.01 C 103.29 67.52 98.59 71.18 102.07 73.83 L 101.20 74.14 C 98.36 75.92 95.34 74.58 95.81 70.97 C 97.24 69.25 98.39 67.33 99.33 65.30 Z" />
<path fill="#c24248" opacity="1.00" d=" M 41.03 66.93 C 41.25 66.65 41.67 66.10 41.89 65.83 C 43.04 70.27 47.91 71.58 51.94 72.27 C 49.73 74.17 47.01 78.45 51.06 79.93 C 53.27 82.90 48.04 81.97 46.73 83.73 C 44.65 84.81 45.64 87.81 43.98 88.96 C 42.09 87.06 41.65 84.53 42.25 81.97 C 48.04 77.98 35.95 80.34 34.11 80.95 C 31.73 81.04 30.00 82.04 28.92 83.97 C 27.77 84.96 26.25 86.04 28.03 87.44 C 27.82 87.85 27.41 88.67 27.21 89.07 C 24.81 89.14 22.48 89.78 20.09 89.90 C 18.80 89.40 16.15 89.27 17.26 87.25 C 19.98 82.34 26.51 81.79 30.89 79.01 C 30.69 78.54 30.27 77.60 30.06 77.13 C 30.27 76.84 30.69 76.27 30.90 75.99 C 31.88 74.93 32.97 73.97 34.05 73.00 C 36.65 71.32 39.41 69.67 41.03 66.93 Z" />
<path fill="#f8907a" opacity="1.00" d=" M 77.86 70.83 C 78.91 68.44 80.55 60.29 80.24 70.70 C 80.69 70.83 81.59 71.07 82.03 71.20 C 79.92 72.23 79.68 74.67 78.97 76.67 C 77.26 76.76 75.52 76.89 73.91 77.54 C 73.45 77.66 72.51 77.90 72.05 78.02 C 73.60 75.22 77.43 74.35 77.86 70.83 Z" />
<path fill="#f79487" opacity="1.00" d=" M 33.92 71.93 C 35.44 69.26 37.63 66.68 41.03 66.93 C 39.41 69.67 36.65 71.32 34.05 73.00 L 33.92 71.93 Z" />
<path fill="#f7725e" opacity="1.00" d=" M 82.03 71.20 C 84.63 69.68 87.23 68.14 89.93 66.80 C 89.40 68.44 88.60 69.99 88.09 71.64 C 89.37 72.07 91.06 72.11 91.16 73.83 C 88.42 75.43 85.81 77.30 82.80 78.37 C 82.35 78.22 81.46 77.92 81.01 77.77 C 80.50 77.50 79.48 76.94 78.97 76.67 C 79.68 74.67 79.92 72.23 82.03 71.20 Z" />
<path fill="#e76353" opacity="1.00" d=" M 62.54 68.06 L 63.34 68.24 C 62.43 69.76 61.37 71.19 60.66 72.82 C 59.08 75.64 59.31 78.74 62.73 78.17 L 63.21 78.85 C 59.12 79.62 54.98 79.87 50.84 79.07 C 50.73 78.60 50.50 77.65 50.39 77.17 C 52.35 72.12 58.52 70.95 62.54 68.06 Z" />
<path fill="#ffd7bb" opacity="1.00" d=" M 62.87 73.85 C 64.40 71.83 66.49 70.17 69.10 69.92 C 68.42 72.76 66.14 74.93 64.15 76.95 C 63.75 75.91 63.32 74.87 62.87 73.85 Z" />
<path fill="#fdaa92" opacity="1.00" d=" M 71.30 72.36 C 73.46 71.77 75.66 71.32 77.86 70.83 C 77.43 74.35 73.60 75.22 72.05 78.02 C 71.71 78.52 71.04 79.51 70.71 80.00 C 69.34 82.13 67.85 85.12 65.11 82.81 C 65.35 80.72 66.44 78.16 63.21 78.85 L 62.73 78.17 C 67.32 79.27 68.30 74.50 71.30 72.36 Z" />
<path fill="#be4148" opacity="1.00" d=" M 91.16 73.83 C 92.71 72.88 94.25 71.92 95.81 70.97 C 95.34 74.58 98.36 75.92 101.20 74.14 C 100.54 76.92 100.41 80.50 96.81 80.82 C 95.13 80.98 93.45 81.14 91.77 81.28 C 88.69 80.60 85.77 79.40 82.80 78.37 C 85.81 77.30 88.42 75.43 91.16 73.83 Z" />
<path fill="#fcab9a" opacity="1.00" d=" M 27.88 75.81 C 29.53 73.97 31.12 71.61 33.92 71.93 L 34.05 73.00 C 32.97 73.97 31.88 74.93 30.90 75.99 C 30.14 75.94 28.63 75.85 27.88 75.81 Z" />
<path fill="#fea78d" opacity="1.00" d=" M 62.73 78.17 C 59.31 78.74 59.08 75.64 60.66 72.82 C 60.52 75.00 61.43 75.11 62.87 73.85 C 63.32 74.87 63.75 75.91 64.15 76.95 C 63.80 77.26 63.09 77.87 62.73 78.17 Z" />
<path fill="#d35348" opacity="1.00" d=" M 101.20 74.14 L 102.07 73.83 C 103.59 75.08 105.79 76.44 104.86 78.77 C 103.68 80.17 102.11 81.12 100.29 81.41 C 99.42 81.27 97.68 80.97 96.81 80.82 C 100.41 80.50 100.54 76.92 101.20 74.14 Z" />
<path fill="#5c2d25" opacity="1.00" d=" M 73.91 77.54 C 75.52 76.89 77.26 76.76 78.97 76.67 C 79.48 76.94 80.50 77.50 81.01 77.77 C 78.89 78.19 76.72 78.31 74.59 77.93 L 73.91 77.54 Z" />
<path fill="#000000" opacity="0.35" d=" M 20.99 78.00 C 23.73 78.10 31.33 77.40 26.17 79.61 C 24.65 78.65 21.25 79.93 20.99 78.00 Z" />
<path fill="#180909" opacity="0.88" d=" M 72.05 78.02 C 72.51 77.90 73.45 77.66 73.91 77.54 L 74.59 77.93 L 74.74 78.71 C 72.88 81.19 76.73 81.52 77.79 83.19 C 81.83 86.91 76.53 93.49 71.88 91.98 C 72.66 90.28 75.35 89.32 74.86 87.21 C 73.31 84.70 70.39 86.93 68.32 87.38 C 64.27 89.41 60.18 86.97 56.15 87.62 C 54.63 86.46 53.52 84.90 52.63 83.24 C 50.11 82.42 47.85 84.62 46.16 86.22 C 45.25 89.12 53.88 92.59 42.83 90.00 L 43.29 89.37 L 43.98 88.96 C 45.64 87.81 44.65 84.81 46.73 83.73 C 48.04 81.97 53.27 82.90 51.06 79.93 C 54.11 79.86 53.74 86.58 56.76 83.87 C 58.44 82.65 58.93 86.18 60.26 86.90 C 65.36 87.83 69.76 84.32 74.86 84.99 C 75.62 86.22 75.94 87.63 76.37 89.00 C 77.34 88.38 78.50 87.58 77.71 86.29 C 76.74 82.98 73.31 81.73 70.71 80.00 C 71.04 79.51 71.71 78.52 72.05 78.02 Z" />
<path fill="#c84747" opacity="1.00" d=" M 50.84 79.07 C 54.98 79.87 59.12 79.62 63.21 78.85 C 66.44 78.16 65.35 80.72 65.11 82.81 C 67.85 85.12 69.34 82.13 70.71 80.00 C 73.31 81.73 76.74 82.98 77.71 86.29 C 78.50 87.58 77.34 88.38 76.37 89.00 C 75.94 87.63 75.62 86.22 74.86 84.99 C 69.76 84.32 65.36 87.83 60.26 86.90 C 58.93 86.18 58.44 82.65 56.76 83.87 C 53.74 86.58 54.11 79.86 51.06 79.93 L 50.84 79.07 Z" />
<path fill="#160708" opacity="0.87" d=" M 34.11 80.95 C 35.95 80.34 48.04 77.98 42.25 81.97 C 37.60 79.79 33.42 83.41 28.92 83.97 C 30.00 82.04 31.73 81.04 34.11 80.95 Z" />
<path fill="#762b2a" opacity="1.00" d=" M 91.77 81.28 C 93.45 81.14 95.13 80.98 96.81 80.82 C 97.68 80.97 99.42 81.27 100.29 81.41 C 97.54 82.45 94.55 81.91 91.77 81.28 Z" />
<path fill="#2f1210" opacity="0.95" d=" M 43.29 89.37 C 40.02 88.82 39.38 81.93 42.25 81.97 C 41.65 84.53 42.09 87.06 43.98 88.96 L 43.29 89.37 Z" />
<path fill="#0e0505" opacity="0.75" d=" M 28.03 87.44 C 29.69 86.87 31.36 86.28 33.09 85.96 C 31.92 88.23 29.44 90.05 26.82 89.86 L 27.21 89.07 C 27.41 88.67 27.82 87.85 28.03 87.44 Z" />
<path fill="#000000" opacity="0.24" d=" M 78.49 111.00 C 81.20 109.10 84.47 110.40 87.42 111.00 L 78.49 111.00 Z" />
</svg>
