<?xml version="1.0" encoding="UTF-8" ?>
<!DOCTYPE svg PUBLIC "-//W3C//DTD SVG 1.1//EN" "http://www.w3.org/Graphics/SVG/1.1/DTD/svg11.dtd">
<svg width="111pt" height="111pt" viewBox="0 0 111 111" version="1.1" xmlns="http://www.w3.org/2000/svg">
<path fill="#0b0e0b" opacity="0.69" d=" M 78.03 18.89 C 78.22 13.75 81.76 8.49 87.09 7.83 L 86.63 9.00 C 84.73 10.05 82.82 11.17 81.36 12.82 C 80.42 14.76 79.98 16.89 79.45 18.96 C 82.06 17.46 84.41 15.52 86.24 13.11 C 87.05 11.92 86.51 10.35 86.63 9.00 L 88.10 8.98 C 88.30 11.21 88.38 13.80 86.38 15.29 C 85.27 16.79 82.35 17.71 83.47 19.98 C 81.94 20.87 80.32 21.60 78.61 22.07 C 78.80 20.96 78.37 19.91 78.03 18.89 Z" />
<path fill="#ffffe3" opacity="1.00" d=" M 81.36 12.82 C 82.82 11.17 84.73 10.05 86.63 9.00 C 86.51 10.35 87.05 11.92 86.24 13.11 C 84.74 14.07 83.22 14.98 81.70 15.90 C 81.61 15.13 81.44 13.59 81.36 12.82 Z" />
<path fill="#020103" opacity="0.98" d=" M 83.47 19.98 C 92.25 15.70 101.66 12.77 111.00 9.97 L 111.00 11.49 C 104.57 13.36 98.33 15.79 92.04 18.07 C 83.60 21.19 75.39 24.88 67.15 28.48 C 66.00 28.73 64.83 28.94 63.68 29.18 C 68.39 26.33 73.31 23.65 78.61 22.07 C 80.32 21.60 81.94 20.87 83.47 19.98 Z" />
<path fill="#3b8e93" opacity="1.00" d=" M 92.04 18.07 C 98.33 15.79 104.57 13.36 111.00 11.49 L 111.00 14.18 C 108.08 17.85 105.08 21.47 101.88 24.90 C 98.81 24.49 95.74 24.94 92.70 25.36 C 92.43 22.94 92.53 20.48 92.04 18.07 Z" />
<path fill="#7bca93" opacity="1.00" d=" M 79.45 18.96 C 79.98 16.89 80.42 14.76 81.36 12.82 C 81.44 13.59 81.61 15.13 81.70 15.90 C 83.22 14.98 84.74 14.07 86.24 13.11 C 84.41 15.52 82.06 17.46 79.45 18.96 Z" />
<path fill="#020103" opacity="0.98" d=" M 101.88 24.90 C 105.08 21.47 108.08 17.85 111.00 14.18 L 111.00 16.42 C 107.28 21.06 103.05 25.25 99.15 29.72 C 103.10 28.34 106.90 26.53 111.00 25.59 L 111.00 27.09 C 108.61 28.04 106.18 28.90 103.80 29.87 C 100.11 31.26 96.47 32.78 92.85 34.34 C 87.64 36.62 82.38 38.88 77.49 41.80 C 81.41 41.52 85.18 40.15 89.15 40.31 C 88.55 40.90 87.35 42.08 86.75 42.67 C 83.80 42.10 80.98 43.07 78.14 43.72 C 76.54 44.05 74.93 44.34 73.32 44.59 C 74.06 43.38 74.82 42.18 75.59 40.99 C 70.76 42.66 66.04 44.66 61.42 46.85 C 61.81 47.50 62.58 48.79 62.97 49.43 C 63.82 51.52 64.51 53.69 65.66 55.65 C 70.50 52.05 75.85 49.21 81.31 46.68 C 82.69 45.49 83.95 44.18 85.24 42.91 C 85.66 43.45 86.48 44.53 86.89 45.07 C 84.12 47.49 80.51 48.58 77.33 50.34 C 73.31 52.09 69.70 54.58 65.89 56.71 C 65.61 58.38 65.34 60.05 65.06 61.73 C 73.73 56.29 82.68 51.22 90.63 44.75 C 90.17 44.47 89.26 43.92 88.80 43.65 C 90.77 41.73 93.44 40.88 95.90 39.80 C 99.85 37.31 103.19 33.79 106.42 30.40 C 106.79 30.47 107.52 30.61 107.88 30.68 C 105.35 34.39 101.83 37.18 98.71 40.35 C 91.30 46.55 83.40 52.14 75.34 57.46 C 74.07 58.25 72.82 59.06 71.56 59.86 C 69.90 60.90 68.21 61.90 66.50 62.84 C 59.41 66.52 51.93 69.33 44.54 72.31 C 37.45 75.19 30.58 78.82 23.06 80.45 C 21.06 80.98 17.85 80.95 18.14 78.09 C 19.12 78.52 20.10 78.97 21.06 79.45 C 24.35 77.79 24.95 73.56 27.49 71.06 C 27.29 70.65 26.89 69.84 26.69 69.43 C 31.43 67.95 34.83 64.21 39.04 61.77 C 39.23 61.09 39.61 59.73 39.81 59.05 C 35.48 59.94 32.33 63.62 27.90 64.07 C 31.55 61.06 35.92 59.10 40.18 57.12 C 41.38 54.50 42.37 51.47 45.07 50.00 C 49.46 47.48 54.65 47.05 59.57 46.44 C 62.97 45.28 66.05 43.31 69.46 42.13 C 73.52 40.41 77.69 38.96 81.60 36.94 C 83.09 36.27 84.62 35.70 86.13 35.09 C 85.08 34.61 82.97 33.64 81.91 33.16 C 83.32 32.20 84.71 31.21 86.01 30.11 C 82.46 30.45 79.22 32.01 75.92 33.21 C 72.57 34.52 69.22 35.83 65.99 37.42 C 54.06 43.02 42.24 49.25 32.34 58.07 C 31.08 59.20 29.83 60.38 28.31 61.18 L 29.01 59.55 C 32.96 55.81 37.41 52.60 41.61 49.14 C 41.69 48.53 41.68 47.93 41.57 47.33 C 42.74 46.85 42.54 45.69 41.91 44.82 L 41.60 44.19 L 42.16 44.40 C 43.11 43.33 43.52 42.10 43.37 40.72 C 43.67 41.32 44.28 42.51 44.58 43.10 L 43.50 44.73 C 44.04 45.42 44.59 46.10 45.15 46.78 C 50.29 43.60 55.55 40.63 60.99 38.00 C 64.21 36.39 67.67 35.21 70.56 33.02 C 71.54 32.25 72.88 31.73 73.37 30.50 C 73.06 30.24 72.43 29.74 72.12 29.48 C 72.33 29.15 72.75 28.49 72.96 28.16 C 74.66 27.64 76.43 27.10 78.22 27.53 C 76.38 29.13 74.41 30.64 73.04 32.69 C 78.94 30.39 84.83 27.64 91.21 27.08 C 89.88 30.14 85.98 30.48 84.29 33.29 C 91.51 35.68 97.68 30.07 101.88 24.90 M 47.78 50.42 C 44.89 51.02 43.90 53.69 43.34 56.26 C 42.58 57.15 42.26 58.21 42.37 59.46 L 41.30 59.63 L 41.88 60.48 C 41.77 61.00 41.56 62.03 41.45 62.54 C 41.93 63.05 42.88 64.08 43.36 64.59 C 44.76 66.11 46.38 67.42 48.17 68.47 L 48.03 69.02 C 51.92 67.80 55.67 66.17 59.42 64.60 C 62.10 63.51 63.20 60.59 64.54 58.25 C 63.45 54.94 62.36 51.61 60.75 48.50 C 56.42 47.83 52.00 49.49 47.78 50.42 M 25.09 78.03 C 32.11 75.38 39.15 72.75 46.09 69.87 C 44.16 67.43 41.33 65.78 39.80 62.96 C 33.84 66.74 27.69 71.24 25.09 78.03 Z" />
<path fill="#419691" opacity="1.00" d=" M 99.15 29.72 C 103.05 25.25 107.28 21.06 111.00 16.42 L 111.00 25.59 C 106.90 26.53 103.10 28.34 99.15 29.72 Z" />
<path fill="#41a390" opacity="1.00" d=" M 67.15 28.48 C 75.39 24.88 83.60 21.19 92.04 18.07 C 92.53 20.48 92.43 22.94 92.70 25.36 C 92.19 25.92 91.69 26.50 91.21 27.08 C 84.83 27.64 78.94 30.39 73.04 32.69 C 74.41 30.64 76.38 29.13 78.22 27.53 C 76.43 27.10 74.66 27.64 72.96 28.16 C 71.09 28.38 68.72 30.22 67.15 28.48 Z" />
<path fill="#020103" opacity="0.98" d=" M 51.78 23.79 C 51.90 22.83 52.41 22.22 53.32 21.96 C 54.50 25.48 57.33 29.40 54.37 32.90 C 54.95 33.42 55.54 33.94 56.13 34.45 C 57.38 32.22 59.92 31.28 62.01 30.03 C 61.75 30.90 61.48 31.78 61.21 32.65 C 62.50 32.39 63.79 32.15 65.08 31.94 C 65.56 32.03 66.50 32.21 66.98 32.29 C 62.45 33.00 58.25 34.99 54.05 36.73 C 54.09 36.02 54.18 34.60 54.23 33.89 C 52.76 35.34 51.31 36.83 49.64 38.06 C 48.91 33.17 50.66 28.46 51.78 23.79 M 52.70 24.98 C 52.42 25.97 51.88 27.97 51.61 28.97 L 51.73 29.32 L 51.42 29.29 C 51.01 30.94 50.99 32.74 50.90 34.44 C 52.01 34.29 52.61 33.61 52.70 32.39 C 55.26 30.47 54.86 27.00 52.70 24.98 Z" />
<path fill="#4e9f93" opacity="1.00" d=" M 92.70 25.36 C 95.74 24.94 98.81 24.49 101.88 24.90 C 97.68 30.07 91.51 35.68 84.29 33.29 C 85.98 30.48 89.88 30.14 91.21 27.08 C 91.69 26.50 92.19 25.92 92.70 25.36 Z" />
<path fill="#ffffde" opacity="1.00" d=" M 52.70 24.98 C 54.86 27.00 55.26 30.47 52.70 32.39 C 52.40 31.36 52.08 30.34 51.73 29.32 L 51.61 28.97 C 51.88 27.97 52.42 25.97 52.70 24.98 Z" />
<path fill="#3d9594" opacity="1.00" d=" M 103.80 29.87 C 106.18 28.90 108.61 28.04 111.00 27.09 L 111.00 32.64 C 110.13 36.39 110.44 40.77 107.91 43.90 C 102.99 43.25 99.92 49.15 95.05 49.27 C 93.52 49.31 92.00 49.29 90.48 49.21 C 93.03 46.05 97.23 44.33 98.71 40.35 C 101.83 37.18 105.35 34.39 107.88 30.68 C 107.52 30.61 106.79 30.47 106.42 30.40 C 105.77 30.27 104.45 30.01 103.80 29.87 Z" />
<path fill="#284f3d" opacity="1.00" d=" M 63.68 29.18 C 64.83 28.94 66.00 28.73 67.15 28.48 C 68.72 30.22 71.09 28.38 72.96 28.16 C 72.75 28.49 72.33 29.15 72.12 29.48 L 71.28 29.90 C 69.36 30.99 67.24 31.60 65.08 31.94 C 63.79 32.15 62.50 32.39 61.21 32.65 C 61.48 31.78 61.75 30.90 62.01 30.03 C 62.43 29.82 63.26 29.39 63.68 29.18 Z" />
<path fill="#a4df9b" opacity="1.00" d=" M 51.42 29.29 L 51.73 29.32 C 52.08 30.34 52.40 31.36 52.70 32.39 C 52.61 33.61 52.01 34.29 50.90 34.44 C 50.99 32.74 51.01 30.94 51.42 29.29 Z" />
<path fill="#000101" opacity="0.19" d=" M 71.28 29.90 L 72.12 29.48 C 72.43 29.74 73.06 30.24 73.37 30.50 C 72.88 31.73 71.54 32.25 70.56 33.02 C 70.35 32.59 69.92 31.72 69.71 31.28 C 70.10 30.94 70.88 30.25 71.28 29.90 Z" />
<path fill="#86c99a" opacity="1.00" d=" M 75.92 33.21 C 79.22 32.01 82.46 30.45 86.01 30.11 C 84.71 31.21 83.32 32.20 81.91 33.16 C 82.97 33.64 85.08 34.61 86.13 35.09 C 84.62 35.70 83.09 36.27 81.60 36.94 C 79.98 36.52 78.35 36.13 76.72 35.74 C 76.45 34.90 76.18 34.05 75.92 33.21 Z" />
<path fill="#63bd90" opacity="1.00" d=" M 92.85 34.34 C 96.47 32.78 100.11 31.26 103.80 29.87 C 104.45 30.01 105.77 30.27 106.42 30.40 C 103.19 33.79 99.85 37.31 95.90 39.80 C 94.37 38.30 93.31 36.44 92.85 34.34 Z" />
<path fill="#000000" opacity="1.00" d=" M 107.91 43.90 C 110.44 40.77 110.13 36.39 111.00 32.64 L 111.00 42.24 C 106.10 49.71 100.41 56.80 93.17 62.13 C 83.99 68.85 73.86 74.22 63.36 78.54 C 59.32 79.75 56.02 82.59 53.41 85.83 C 58.99 84.01 64.37 81.64 69.96 79.86 L 72.20 80.12 C 61.19 84.88 50.11 89.76 38.44 92.65 C 38.32 92.93 38.06 93.48 37.93 93.75 C 41.56 93.54 45.24 93.87 48.84 93.39 C 54.00 90.74 59.12 88.01 64.24 85.27 C 66.95 83.89 69.29 81.57 72.39 81.13 C 72.40 80.67 72.38 80.20 72.36 79.74 L 70.44 79.16 C 76.91 78.75 81.21 73.31 86.60 70.43 C 86.61 71.14 86.62 72.57 86.62 73.28 C 79.34 76.82 73.17 82.21 66.04 86.03 C 60.21 89.32 54.08 92.05 48.06 94.97 C 44.68 95.36 41.23 95.38 37.85 95.08 C 35.28 92.38 39.47 90.06 41.55 88.88 L 42.03 89.26 C 45.83 89.56 50.22 87.77 52.14 84.33 C 49.99 85.20 47.89 86.19 45.83 87.27 C 44.05 85.14 41.83 86.56 39.94 87.58 C 32.95 90.53 25.15 91.70 17.63 90.45 C 14.45 89.72 12.25 87.17 11.35 84.13 C 7.66 85.69 3.85 86.94 0.00 88.02 L 0.00 86.65 C 3.78 85.10 7.71 83.93 11.55 82.56 C 12.31 79.68 14.80 77.83 15.91 75.16 C 10.79 77.60 5.43 79.48 0.00 81.06 L 0.00 79.52 C 2.03 78.80 4.10 78.19 6.05 77.27 C 6.24 76.89 6.63 76.14 6.82 75.77 C 7.46 74.48 8.13 73.21 8.85 71.98 C 12.56 65.95 17.44 60.77 22.61 55.99 C 22.37 55.65 21.89 54.96 21.65 54.62 C 25.95 51.93 30.32 49.28 35.01 47.33 C 27.35 54.13 19.06 60.43 12.81 68.68 C 10.97 71.24 8.86 73.74 8.00 76.84 C 14.07 74.41 20.09 71.85 26.25 69.64 C 24.52 72.76 20.57 73.57 18.23 76.19 C 15.71 78.81 12.38 82.26 13.62 86.22 C 16.22 89.04 20.34 89.51 23.97 89.57 C 29.14 89.78 34.08 87.86 38.82 86.00 C 44.63 83.36 50.80 81.62 56.66 79.11 C 68.67 75.05 79.97 68.98 90.47 61.91 C 97.75 57.53 102.98 50.65 107.91 43.90 Z" />
<path fill="#aae69e" opacity="1.00" d=" M 65.99 37.42 C 69.22 35.83 72.57 34.52 75.92 33.21 C 76.18 34.05 76.45 34.90 76.72 35.74 C 78.35 36.13 79.98 36.52 81.60 36.94 C 77.69 38.96 73.52 40.41 69.46 42.13 C 68.52 41.61 67.57 41.09 66.62 40.57 C 66.41 39.52 66.20 38.47 65.99 37.42 Z" />
<path fill="#7bca93" opacity="1.00" d=" M 77.49 41.80 C 82.38 38.88 87.64 36.62 92.85 34.34 C 93.31 36.44 94.37 38.30 95.90 39.80 C 93.44 40.88 90.77 41.73 88.80 43.65 C 88.32 44.00 87.37 44.71 86.89 45.07 C 86.48 44.53 85.66 43.45 85.24 42.91 C 83.95 44.18 82.69 45.49 81.31 46.68 C 80.36 45.57 79.33 44.55 78.14 43.72 C 80.98 43.07 83.80 42.10 86.75 42.67 C 87.35 42.08 88.55 40.90 89.15 40.31 C 85.18 40.15 81.41 41.52 77.49 41.80 Z" />
<path fill="#e6ffad" opacity="1.00" d=" M 32.34 58.07 C 42.24 49.25 54.06 43.02 65.99 37.42 C 66.20 38.47 66.41 39.52 66.62 40.57 C 67.57 41.09 68.52 41.61 69.46 42.13 C 66.05 43.31 62.97 45.28 59.57 46.44 C 54.65 47.05 49.46 47.48 45.07 50.00 C 42.37 51.47 41.38 54.50 40.18 57.12 C 35.92 59.10 31.55 61.06 27.90 64.07 C 27.65 64.43 27.16 65.13 26.91 65.49 C 26.69 64.81 26.24 63.46 26.01 62.79 C 26.30 62.57 26.88 62.12 27.17 61.90 C 27.27 61.84 27.46 61.71 27.56 61.64 C 27.75 61.52 28.12 61.29 28.31 61.18 C 29.83 60.38 31.08 59.20 32.34 58.07 Z" />
<path fill="#080808" opacity="0.60" d=" M 38.50 40.93 C 40.25 40.14 42.42 38.28 44.33 39.70 C 45.73 40.32 44.73 42.04 44.58 43.10 C 44.28 42.51 43.67 41.32 43.37 40.72 C 42.28 40.79 41.28 41.13 40.35 41.73 C 40.67 42.34 41.29 43.57 41.60 44.19 L 41.91 44.82 C 42.54 45.69 42.74 46.85 41.57 47.33 C 40.47 45.23 39.48 43.08 38.50 40.93 Z" />
<path fill="#ffffde" opacity="1.00" d=" M 40.35 41.73 C 41.28 41.13 42.28 40.79 43.37 40.72 C 43.52 42.10 43.11 43.33 42.16 44.40 L 41.60 44.19 C 41.29 43.57 40.67 42.34 40.35 41.73 Z" />
<path fill="#000101" opacity="0.50" d=" M 61.42 46.85 C 66.04 44.66 70.76 42.66 75.59 40.99 C 74.82 42.18 74.06 43.38 73.32 44.59 C 73.28 44.59 73.21 44.60 73.18 44.61 C 70.00 45.04 67.09 46.56 64.54 48.45 C 64.15 48.69 63.36 49.18 62.97 49.43 C 62.58 48.79 61.81 47.50 61.42 46.85 Z" />
<path fill="#6cbba1" opacity="1.00" d=" M 75.34 57.46 C 83.40 52.14 91.30 46.55 98.71 40.35 C 97.23 44.33 93.03 46.05 90.48 49.21 C 92.00 49.29 93.52 49.31 95.05 49.27 C 99.92 49.15 102.99 43.25 107.91 43.90 C 102.98 50.65 97.75 57.53 90.47 61.91 C 91.06 59.83 91.82 57.80 92.79 55.85 C 94.22 55.21 95.61 54.47 96.99 53.71 C 95.65 51.19 92.62 52.96 90.76 53.82 C 86.04 56.38 80.63 57.15 75.34 57.46 Z" />
<path fill="#56b293" opacity="1.00" d=" M 73.18 44.61 C 73.21 44.60 73.28 44.59 73.32 44.59 C 74.93 44.34 76.54 44.05 78.14 43.72 C 79.33 44.55 80.36 45.57 81.31 46.68 C 75.85 49.21 70.50 52.05 65.66 55.65 C 64.51 53.69 63.82 51.52 62.97 49.43 C 63.36 49.18 64.15 48.69 64.54 48.45 C 67.56 47.58 70.85 46.88 73.18 44.61 Z" />
<path fill="#204138" opacity="0.96" d=" M 64.54 48.45 C 67.09 46.56 70.00 45.04 73.18 44.61 C 70.85 46.88 67.56 47.58 64.54 48.45 Z" />
<path fill="#3cc57b" opacity="1.00" d=" M 47.78 50.42 C 52.00 49.49 56.42 47.83 60.75 48.50 C 60.16 48.64 58.99 48.92 58.41 49.05 C 58.48 49.37 58.61 49.99 58.67 50.31 C 58.72 52.70 58.61 55.09 58.62 57.49 C 56.92 55.35 56.37 52.69 56.33 50.02 C 55.20 52.03 53.91 53.95 52.33 55.62 C 53.50 55.80 54.66 55.97 55.82 56.19 C 55.67 56.93 55.36 58.43 55.20 59.18 C 53.59 60.27 51.91 61.26 50.17 62.13 C 49.79 61.68 49.05 60.78 48.68 60.33 C 50.26 60.15 53.96 56.58 50.39 57.04 C 48.05 58.00 45.82 59.42 43.18 59.35 C 43.64 57.80 44.29 56.33 45.08 54.93 C 46.12 54.69 47.14 54.41 48.15 54.07 C 48.68 52.86 47.93 51.61 47.78 50.42 Z" />
<path fill="#000000" opacity="1.00" d=" M 94.07 64.05 C 100.00 59.25 104.64 53.13 109.98 47.73 C 109.53 52.90 108.04 58.48 103.89 61.94 C 100.04 65.22 95.95 68.42 91.20 70.28 L 91.87 69.08 C 98.05 64.46 106.39 60.52 107.77 52.08 C 102.44 57.77 97.25 63.70 90.84 68.22 L 89.35 68.69 C 90.75 66.97 92.34 65.43 94.07 64.05 Z" />
<path fill="#75d05f" opacity="1.00" d=" M 58.41 49.05 C 58.99 48.92 60.16 48.64 60.75 48.50 C 62.36 51.61 63.45 54.94 64.54 58.25 C 64.18 57.99 63.45 57.47 63.08 57.21 C 61.76 54.81 60.51 52.36 58.67 50.31 C 58.61 49.99 58.48 49.37 58.41 49.05 Z" />
<path fill="#2c727b" opacity="1.00" d=" M 52.33 55.62 C 53.91 53.95 55.20 52.03 56.33 50.02 C 56.37 52.69 56.92 55.35 58.62 57.49 C 58.83 57.85 59.27 58.57 59.48 58.92 C 60.68 58.34 61.87 57.75 63.08 57.21 C 63.45 57.47 64.18 57.99 64.54 58.25 C 63.20 60.59 62.10 63.51 59.42 64.60 C 55.67 66.17 51.92 67.80 48.03 69.02 L 48.17 68.47 C 48.54 66.89 49.21 65.41 49.85 63.93 C 48.04 61.63 45.36 60.47 42.43 60.63 L 41.88 60.48 L 41.30 59.63 L 42.37 59.46 C 42.57 59.43 42.98 59.38 43.18 59.35 C 45.82 59.42 48.05 58.00 50.39 57.04 C 49.44 57.72 47.36 59.02 48.68 60.33 C 49.05 60.78 49.79 61.68 50.17 62.13 C 51.91 61.26 53.59 60.27 55.20 59.18 C 56.45 59.90 57.70 60.62 58.97 61.32 C 58.60 59.26 57.63 57.34 55.82 56.19 C 54.66 55.97 53.50 55.80 52.33 55.62 Z" />
<path fill="#ffffde" opacity="1.00" d=" M 43.34 56.26 C 43.90 53.69 44.89 51.02 47.78 50.42 C 47.93 51.61 48.68 52.86 48.15 54.07 C 47.14 54.41 46.12 54.69 45.08 54.93 C 44.29 56.33 43.64 57.80 43.18 59.35 C 42.98 59.38 42.57 59.43 42.37 59.46 C 42.26 58.21 42.58 57.15 43.34 56.26 Z" />
<path fill="#1eb763" opacity="1.00" d=" M 58.62 57.49 C 58.61 55.09 58.72 52.70 58.67 50.31 C 60.51 52.36 61.76 54.81 63.08 57.21 C 61.87 57.75 60.68 58.34 59.48 58.92 C 59.27 58.57 58.83 57.85 58.62 57.49 Z" />
<path fill="#c1f19c" opacity="1.00" d=" M 90.76 53.82 C 92.62 52.96 95.65 51.19 96.99 53.71 C 95.61 54.47 94.22 55.21 92.79 55.85 C 89.15 57.29 85.57 58.91 82.28 61.05 C 82.74 61.72 83.21 62.38 83.67 63.05 C 78.86 66.54 72.95 68.41 68.72 72.69 C 66.24 74.86 62.96 75.69 59.95 76.83 C 59.54 76.47 58.74 75.74 58.34 75.37 C 61.52 72.88 64.86 70.61 68.10 68.19 C 72.03 65.54 75.93 62.84 79.94 60.30 C 77.14 60.29 74.34 60.14 71.56 59.86 C 72.82 59.06 74.07 58.25 75.34 57.46 C 80.63 57.15 86.04 56.38 90.76 53.82 Z" />
<path fill="#56b293" opacity="1.00" d=" M 107.77 52.08 C 106.39 60.52 98.05 64.46 91.87 69.08 L 91.20 70.28 C 91.16 70.37 91.07 70.53 91.02 70.62 C 89.33 70.24 87.54 71.37 87.09 73.03 L 86.62 73.28 C 86.62 72.57 86.61 71.14 86.60 70.43 C 86.75 70.43 87.04 70.43 87.19 70.43 C 87.62 70.04 88.50 69.26 88.93 68.87 C 89.04 68.82 89.25 68.74 89.35 68.69 L 90.84 68.22 C 97.25 63.70 102.44 57.77 107.77 52.08 Z" />
<path fill="#aae69e" opacity="1.00" d=" M 21.65 54.62 C 21.89 54.96 22.37 55.65 22.61 55.99 C 17.44 60.77 12.56 65.95 8.85 71.98 C 8.07 71.72 7.29 71.47 6.51 71.22 C 6.35 70.22 6.18 69.22 6.01 68.23 C 11.03 64.03 16.27 60.12 21.46 56.16 L 21.61 56.20 C 21.62 55.80 21.64 55.01 21.65 54.62 Z" />
<path fill="#000000" opacity="1.00" d=" M 16.72 57.86 C 18.21 57.10 19.58 54.63 21.46 56.16 C 16.27 60.12 11.03 64.03 6.01 68.23 C 4.81 69.26 3.62 70.30 2.45 71.37 C 1.61 72.15 0.78 72.95 0.00 73.80 L 0.00 71.92 C 5.27 66.88 11.23 62.64 16.72 57.86 Z" />
<path fill="#a4df9b" opacity="1.00" d=" M 82.28 61.05 C 85.57 58.91 89.15 57.29 92.79 55.85 C 91.82 57.80 91.06 59.83 90.47 61.91 C 79.97 68.98 68.67 75.05 56.66 79.11 C 57.68 78.25 58.73 77.41 59.95 76.83 C 62.96 75.69 66.24 74.86 68.72 72.69 C 72.95 68.41 78.86 66.54 83.67 63.05 C 83.21 62.38 82.74 61.72 82.28 61.05 Z" />
<path fill="#abd5af" opacity="1.00" d=" M 50.39 57.04 C 53.96 56.58 50.26 60.15 48.68 60.33 C 47.36 59.02 49.44 57.72 50.39 57.04 Z" />
<path fill="#73d871" opacity="1.00" d=" M 55.20 59.18 C 55.36 58.43 55.67 56.93 55.82 56.19 C 57.63 57.34 58.60 59.26 58.97 61.32 C 57.70 60.62 56.45 59.90 55.20 59.18 Z" />
<path fill="#faffc0" opacity="1.00" d=" M 66.50 62.84 C 68.21 61.90 69.90 60.90 71.56 59.86 C 74.34 60.14 77.14 60.29 79.94 60.30 C 75.93 62.84 72.03 65.54 68.10 68.19 C 67.59 68.04 66.58 67.74 66.08 67.58 C 66.89 66.51 67.71 65.43 68.53 64.36 C 68.02 63.98 67.00 63.22 66.50 62.84 Z" />
<path fill="#030303" opacity="0.79" d=" M 27.17 61.90 C 27.27 61.84 27.46 61.71 27.56 61.64 C 27.46 61.71 27.27 61.84 27.17 61.90 Z" />
<path fill="#ffffd0" opacity="1.00" d=" M 41.45 62.54 C 41.56 62.03 41.77 61.00 41.88 60.48 L 42.43 60.63 C 42.92 61.77 44.57 63.41 43.36 64.59 C 42.88 64.08 41.93 63.05 41.45 62.54 Z" />
<path fill="#3ab97c" opacity="1.00" d=" M 42.43 60.63 C 45.36 60.47 48.04 61.63 49.85 63.93 C 49.21 65.41 48.54 66.89 48.17 68.47 C 46.38 67.42 44.76 66.11 43.36 64.59 C 44.57 63.41 42.92 61.77 42.43 60.63 Z" />
<path fill="#000000" opacity="1.00" d=" M 25.13 63.32 C 25.35 63.19 25.79 62.92 26.01 62.79 C 26.24 63.46 26.69 64.81 26.91 65.49 C 25.38 67.29 23.19 68.37 20.94 68.99 C 22.28 67.06 23.63 65.13 25.13 63.32 Z" />
<path fill="#58b191" opacity="1.00" d=" M 25.09 78.03 C 27.69 71.24 33.84 66.74 39.80 62.96 C 41.33 65.78 44.16 67.43 46.09 69.87 C 39.15 72.75 32.11 75.38 25.09 78.03 Z" />
<path fill="#e2ffa1" opacity="1.00" d=" M 44.54 72.31 C 51.93 69.33 59.41 66.52 66.50 62.84 C 67.00 63.22 68.02 63.98 68.53 64.36 C 67.71 65.43 66.89 66.51 66.08 67.58 C 66.58 67.74 67.59 68.04 68.10 68.19 C 64.86 70.61 61.52 72.88 58.34 75.37 C 58.74 75.74 59.54 76.47 59.95 76.83 C 58.73 77.41 57.68 78.25 56.66 79.11 C 50.80 81.62 44.63 83.36 38.82 86.00 C 34.08 87.86 29.14 89.78 23.97 89.57 C 20.34 89.51 16.22 89.04 13.62 86.22 C 12.38 82.26 15.71 78.81 18.23 76.19 C 20.57 73.57 24.52 72.76 26.25 69.64 C 26.36 69.59 26.58 69.48 26.69 69.43 C 26.89 69.84 27.29 70.65 27.49 71.06 C 24.95 73.56 24.35 77.79 21.06 79.45 C 20.10 78.97 19.12 78.52 18.14 78.09 C 17.85 80.95 21.06 80.98 23.06 80.45 C 30.58 78.82 37.45 75.19 44.54 72.31 Z" />
<path fill="#ccffb5" opacity="1.00" d=" M 2.45 71.37 C 3.62 70.30 4.81 69.26 6.01 68.23 C 6.18 69.22 6.35 70.22 6.51 71.22 C 7.29 71.47 8.07 71.72 8.85 71.98 C 8.13 73.21 7.46 74.48 6.82 75.77 C 5.36 75.69 3.90 75.62 2.44 75.55 C 2.44 74.16 2.45 72.76 2.45 71.37 Z" />
<path fill="#040808" opacity="0.71" d=" M 87.19 70.43 C 87.62 70.04 88.50 69.26 88.93 68.87 C 88.50 69.26 87.62 70.04 87.19 70.43 Z" />
<path fill="#030706" opacity="0.42" d=" M 87.09 73.03 C 87.54 71.37 89.33 70.24 91.02 70.62 C 90.48 72.31 88.72 72.96 87.09 73.03 Z" />
<path fill="#ffffe3" opacity="1.00" d=" M 0.00 73.80 C 0.78 72.95 1.61 72.15 2.45 71.37 C 2.45 72.76 2.44 74.16 2.44 75.55 C 3.90 75.62 5.36 75.69 6.82 75.77 C 6.63 76.14 6.24 76.89 6.05 77.27 C 4.10 78.19 2.03 78.80 0.00 79.52 L 0.00 73.80 Z" />
<path fill="#e4ff9d" opacity="1.00" d=" M 0.00 81.06 C 5.43 79.48 10.79 77.60 15.91 75.16 C 14.80 77.83 12.31 79.68 11.55 82.56 C 7.71 83.93 3.78 85.10 0.00 86.65 L 0.00 81.06 Z" />
<path fill="#ffffd0" opacity="1.00" d=" M 72.20 80.12 L 72.36 79.74 C 72.38 80.20 72.40 80.67 72.39 81.13 C 69.29 81.57 66.95 83.89 64.24 85.27 C 59.12 88.01 54.00 90.74 48.84 93.39 C 45.24 93.87 41.56 93.54 37.93 93.75 C 38.06 93.48 38.32 92.93 38.44 92.65 C 50.11 89.76 61.19 84.88 72.20 80.12 Z" />
<path fill="#7bca93" opacity="1.00" d=" M 45.83 87.27 C 47.89 86.19 49.99 85.20 52.14 84.33 C 50.22 87.77 45.83 89.56 42.03 89.26 C 43.30 88.60 44.57 87.94 45.83 87.27 Z" />
<path fill="#040604" opacity="0.56" d=" M 39.94 87.58 C 41.83 86.56 44.05 85.14 45.83 87.27 C 44.57 87.94 43.30 88.60 42.03 89.26 L 41.55 88.88 C 41.14 88.55 40.34 87.91 39.94 87.58 Z" />
</svg>
