<?xml version="1.0" encoding="UTF-8" ?>
<!DOCTYPE svg PUBLIC "-//W3C//DTD SVG 1.1//EN" "http://www.w3.org/Graphics/SVG/1.1/DTD/svg11.dtd">
<svg width="111pt" height="111pt" viewBox="0 0 111 111" version="1.1" xmlns="http://www.w3.org/2000/svg">
<path fill="#0d0d09" opacity="1.00" d=" M 71.21 12.95 C 70.78 9.69 72.89 7.06 74.47 4.46 C 74.89 10.37 75.25 16.29 75.97 22.17 C 77.72 24.55 80.49 25.90 82.76 27.72 C 81.61 29.10 80.47 30.49 79.32 31.87 C 80.06 31.92 81.53 32.02 82.27 32.06 C 81.88 33.01 81.49 33.95 81.09 34.89 C 83.65 35.49 86.29 36.23 88.01 38.38 C 89.31 37.23 90.59 36.06 91.86 34.88 C 98.64 29.93 104.48 23.81 111.00 18.52 L 111.00 21.12 C 106.46 27.91 101.29 34.24 96.24 40.65 C 95.01 39.53 93.79 38.39 92.58 37.24 C 91.54 38.00 90.50 38.74 89.45 39.47 C 90.49 41.88 91.23 44.48 90.70 47.12 C 90.51 47.98 90.14 49.70 89.95 50.56 C 94.36 49.87 98.49 48.15 102.05 45.47 C 98.37 45.53 94.69 45.70 91.01 45.73 L 91.35 44.43 C 95.53 44.06 99.73 44.62 103.91 44.33 C 106.41 43.37 108.71 41.97 111.00 40.60 L 111.00 42.24 C 109.80 42.30 108.81 42.99 108.03 43.85 C 107.06 44.37 106.10 44.90 105.15 45.45 C 100.61 48.11 95.87 50.45 91.60 53.55 C 93.06 53.93 94.53 54.30 96.00 54.66 C 97.36 53.77 98.72 52.88 100.17 52.15 L 100.00 52.72 C 97.94 57.40 92.43 55.02 88.74 54.27 C 89.98 53.21 91.21 52.14 92.43 51.06 C 91.68 51.17 90.17 51.38 89.42 51.49 C 87.29 54.87 84.19 57.47 80.37 58.71 C 81.65 59.57 82.95 60.43 84.17 61.39 C 82.22 62.97 78.99 63.42 79.16 66.58 C 82.92 65.19 86.41 63.16 90.24 61.94 L 91.98 62.23 C 90.36 63.08 88.75 63.93 87.08 64.67 C 82.35 66.69 77.66 68.80 72.94 70.83 C 66.93 73.39 60.89 75.86 54.78 78.16 C 54.35 78.31 53.49 78.62 53.06 78.77 C 49.76 79.90 46.49 81.10 43.24 82.33 C 42.92 82.42 42.30 82.60 41.99 82.69 C 41.58 82.81 40.75 83.05 40.34 83.18 L 38.99 83.61 C 35.55 84.71 32.10 85.80 28.66 86.90 C 26.37 87.58 24.10 88.29 21.81 88.97 C 19.77 89.56 17.68 89.95 15.59 90.32 C 15.72 90.03 15.97 89.46 16.09 89.17 C 18.13 88.62 20.12 87.92 22.10 87.21 C 22.47 86.44 23.20 84.92 23.57 84.16 C 21.17 85.32 18.74 86.43 16.31 87.50 C 19.08 84.85 22.62 83.29 26.09 81.77 C 25.32 83.53 24.53 85.29 23.77 87.06 C 28.66 86.90 27.98 81.49 28.90 78.10 C 28.28 77.86 27.05 77.38 26.43 77.14 C 27.49 76.77 29.62 76.02 30.68 75.65 C 30.46 77.55 30.24 79.45 30.03 81.35 C 31.09 79.53 32.14 77.70 33.18 75.87 C 33.68 74.97 34.17 74.06 34.65 73.14 C 36.43 69.41 38.52 65.85 40.68 62.33 C 42.05 60.52 41.68 58.25 41.56 56.14 C 40.58 56.33 39.61 56.53 38.63 56.73 C 37.35 56.96 36.08 57.20 34.79 57.38 L 34.73 56.04 C 34.71 55.51 34.67 54.47 34.64 53.95 C 34.35 48.15 34.05 42.34 34.11 36.52 C 33.50 37.41 32.89 38.30 32.28 39.20 C 32.46 36.56 33.30 34.05 34.51 31.71 C 35.56 39.81 35.48 48.01 36.40 56.12 C 38.07 55.54 39.74 54.95 41.41 54.36 C 41.55 48.54 42.99 41.60 48.48 38.50 C 51.06 37.00 53.29 39.66 54.42 41.70 C 55.66 44.20 57.19 47.28 55.55 49.96 C 54.81 47.52 54.07 45.08 53.06 42.74 C 52.51 41.24 51.33 40.06 49.99 39.24 C 48.77 39.74 47.73 40.55 46.73 41.38 C 45.45 43.31 44.39 45.38 43.68 47.58 C 42.84 52.00 42.89 56.58 43.81 60.98 C 44.70 63.25 45.43 66.29 48.05 67.11 C 50.87 67.92 53.34 65.55 54.24 63.09 C 54.75 61.46 55.08 59.78 55.33 58.10 C 55.83 55.87 55.61 53.59 55.52 51.34 C 57.39 50.95 59.27 50.55 61.14 50.15 C 60.67 43.51 63.60 36.36 70.26 34.01 C 69.79 33.15 69.33 32.30 68.86 31.44 C 69.63 31.13 71.17 30.52 71.95 30.21 C 69.69 28.07 66.78 26.49 65.03 23.90 C 66.39 20.29 67.48 15.99 70.84 13.70 C 69.58 17.09 67.93 20.32 66.28 23.53 C 67.01 24.15 67.74 24.76 68.47 25.38 C 68.66 25.55 69.05 25.88 69.24 26.05 C 71.11 27.55 72.70 29.36 74.10 31.31 C 73.08 31.53 72.07 31.75 71.05 31.97 C 71.46 32.87 71.86 33.77 72.26 34.67 C 71.12 35.14 69.97 35.60 68.84 36.12 C 64.24 38.76 62.40 44.31 62.66 49.37 C 63.35 51.69 64.69 53.74 66.36 55.47 C 69.23 56.79 72.41 56.72 75.49 56.75 C 74.26 58.02 72.99 59.26 71.66 60.43 C 73.40 61.13 73.92 62.71 73.94 64.45 C 74.12 65.72 74.32 66.99 74.53 68.25 C 75.95 68.32 77.13 67.82 78.08 66.73 L 78.12 66.11 C 78.17 65.62 78.26 64.63 78.31 64.14 C 78.47 63.81 78.80 63.17 78.97 62.84 C 79.86 62.31 80.77 61.79 81.69 61.29 C 80.19 60.24 78.80 59.05 77.56 57.70 C 82.30 57.36 86.61 54.64 88.37 50.14 C 89.56 47.09 90.18 43.60 88.25 40.70 C 88.09 40.37 87.77 39.72 87.61 39.39 C 86.25 38.37 84.77 37.50 83.16 36.93 C 80.83 36.31 78.82 34.99 77.02 33.42 C 77.75 32.32 78.47 31.21 79.20 30.11 C 79.56 29.56 80.28 28.47 80.64 27.92 C 78.64 26.42 76.39 25.14 74.80 23.17 C 74.27 20.98 74.22 18.71 73.96 16.48 C 73.78 13.91 73.78 11.34 73.70 8.78 C 72.85 10.15 72.02 11.54 71.21 12.95 M 105.99 24.20 L 106.08 24.93 C 107.47 25.11 108.09 24.51 107.95 23.14 C 107.46 23.40 106.48 23.93 105.99 24.20 M 99.32 30.59 C 97.06 32.27 95.15 34.36 93.01 36.19 C 94.06 37.09 95.11 37.99 96.16 38.91 C 98.15 36.14 100.36 33.53 102.21 30.67 L 102.52 30.68 C 103.95 28.80 105.44 26.96 106.91 25.11 L 106.08 24.93 C 103.40 25.93 101.55 28.74 99.32 30.59 M 57.03 52.88 C 57.19 55.56 57.02 58.24 56.65 60.90 C 60.02 59.80 63.45 58.88 66.89 57.99 C 64.61 56.12 62.58 53.91 61.50 51.11 C 60.01 51.70 58.52 52.28 57.03 52.88 M 56.28 62.23 C 55.36 66.87 50.02 70.99 45.63 67.66 C 44.73 68.31 43.83 68.95 42.92 69.59 C 44.02 70.01 45.14 70.40 46.26 70.78 C 43.36 71.93 40.57 73.53 37.48 74.11 C 37.55 72.25 40.16 72.29 41.41 71.46 C 40.87 69.10 43.16 68.03 44.57 66.68 C 43.80 65.35 43.05 64.02 42.28 62.69 C 40.33 66.21 38.66 69.89 36.56 73.34 C 36.67 73.59 36.91 74.10 37.02 74.36 C 33.20 76.73 32.07 81.47 29.70 85.04 C 38.27 82.59 46.76 79.76 55.08 76.56 L 55.19 75.92 C 55.01 74.96 54.44 74.34 53.50 74.05 C 52.29 74.93 51.05 75.77 49.76 76.55 C 50.98 73.55 52.75 70.08 56.47 69.98 C 55.76 71.26 54.62 72.13 53.05 72.58 C 54.04 73.42 55.17 73.80 56.44 73.72 C 56.61 74.03 56.95 74.65 57.11 74.96 C 57.53 75.02 58.35 75.15 58.76 75.22 C 63.60 73.28 68.45 71.35 73.18 69.17 C 72.77 67.03 72.46 64.87 72.29 62.70 C 71.31 62.11 70.33 61.53 69.35 60.95 C 69.86 60.30 70.87 59.00 71.38 58.35 C 66.26 59.24 61.24 60.69 56.28 62.23 Z" />
<path fill="#ffffff" opacity="1.00" d=" M 71.21 12.95 C 72.02 11.54 72.85 10.15 73.70 8.78 C 73.78 11.34 73.78 13.91 73.96 16.48 C 73.43 17.14 72.92 17.80 72.41 18.47 C 70.73 20.54 69.46 22.91 68.47 25.38 C 67.74 24.76 67.01 24.15 66.28 23.53 C 67.93 20.32 69.58 17.09 70.84 13.70 C 70.93 13.51 71.12 13.13 71.21 12.95 Z" />
<path fill="#fff186" opacity="1.00" d=" M 72.41 18.47 C 72.92 17.80 73.43 17.14 73.96 16.48 C 74.22 18.71 74.27 20.98 74.80 23.17 C 76.39 25.14 78.64 26.42 80.64 27.92 C 80.28 28.47 79.56 29.56 79.20 30.11 C 77.50 30.52 75.80 30.93 74.10 31.31 C 72.70 29.36 71.11 27.55 69.24 26.05 C 70.60 23.69 72.76 21.40 72.41 18.47 Z" />
<path fill="#e4aa58" opacity="1.00" d=" M 68.47 25.38 C 69.46 22.91 70.73 20.54 72.41 18.47 C 72.76 21.40 70.60 23.69 69.24 26.05 C 69.05 25.88 68.66 25.55 68.47 25.38 Z" />
<path fill="#a2a2a2" opacity="1.00" d=" M 105.99 24.20 C 106.48 23.93 107.46 23.40 107.95 23.14 C 108.09 24.51 107.47 25.11 106.08 24.93 L 105.99 24.20 Z" />
<path fill="#f3f3da" opacity="1.00" d=" M 99.32 30.59 C 101.55 28.74 103.40 25.93 106.08 24.93 L 106.91 25.11 C 105.44 26.96 103.95 28.80 102.52 30.68 L 102.21 30.67 C 101.49 30.65 100.04 30.61 99.32 30.59 Z" />
<path fill="#fcd978" opacity="1.00" d=" M 74.10 31.31 C 75.80 30.93 77.50 30.52 79.20 30.11 C 78.47 31.21 77.75 32.32 77.02 33.42 C 78.82 34.99 80.83 36.31 83.16 36.93 C 82.75 37.93 82.33 38.93 81.92 39.93 C 81.33 39.37 80.75 38.80 80.16 38.24 C 80.19 38.96 80.24 40.41 80.26 41.14 C 76.77 43.74 72.38 42.82 68.37 43.25 C 69.40 43.89 70.53 44.37 71.45 45.19 L 71.73 45.28 C 74.70 44.36 77.62 41.87 80.74 42.29 C 80.88 42.62 81.15 43.28 81.29 43.61 C 77.92 45.39 73.71 45.01 70.59 47.34 C 68.70 48.59 67.26 51.19 64.66 50.45 C 65.18 45.46 65.99 40.38 68.84 36.12 C 69.97 35.60 71.12 35.14 72.26 34.67 C 71.86 33.77 71.46 32.87 71.05 31.97 C 72.07 31.75 73.08 31.53 74.10 31.31 Z" />
<path fill="#ffffbf" opacity="1.00" d=" M 93.01 36.19 C 95.15 34.36 97.06 32.27 99.32 30.59 C 100.04 30.61 101.49 30.65 102.21 30.67 C 100.36 33.53 98.15 36.14 96.16 38.91 C 95.11 37.99 94.06 37.09 93.01 36.19 Z" />
<path fill="#ffffbf" opacity="1.00" d=" M 32.28 39.20 C 32.89 38.30 33.50 37.41 34.11 36.52 C 34.05 42.34 34.35 48.15 34.64 53.95 C 33.10 54.12 31.56 54.33 30.02 54.45 C 29.86 54.06 29.54 53.28 29.38 52.89 C 30.42 48.56 32.23 44.33 32.09 39.80 L 32.28 39.20 Z" />
<path fill="#ffffff" opacity="1.00" d=" M 62.66 49.37 C 62.40 44.31 64.24 38.76 68.84 36.12 C 65.99 40.38 65.18 45.46 64.66 50.45 C 64.16 50.18 63.16 49.64 62.66 49.37 Z" />
<path fill="#e6b55f" opacity="1.00" d=" M 83.16 36.93 C 84.77 37.50 86.25 38.37 87.61 39.39 C 87.04 39.95 85.90 41.06 85.33 41.62 C 83.62 41.61 81.94 41.35 80.26 41.14 C 80.24 40.41 80.19 38.96 80.16 38.24 C 80.75 38.80 81.33 39.37 81.92 39.93 C 82.33 38.93 82.75 37.93 83.16 36.93 Z" />
<path fill="#ed925e" opacity="1.00" d=" M 46.73 41.38 C 47.73 40.55 48.77 39.74 49.99 39.24 C 51.33 40.06 52.51 41.24 53.06 42.74 C 53.16 43.52 53.36 45.09 53.46 45.87 L 51.47 45.71 C 51.41 48.11 51.75 50.49 52.13 52.85 C 52.64 55.74 51.46 58.76 52.95 61.48 C 52.39 61.63 51.28 61.91 50.72 62.06 C 50.99 56.19 52.03 50.20 49.61 44.58 C 48.68 43.48 47.70 42.43 46.73 41.38 Z" />
<path fill="#000100" opacity="1.00" d=" M 31.33 40.43 C 31.52 40.28 31.90 39.96 32.09 39.80 C 32.23 44.33 30.42 48.56 29.38 52.89 C 29.09 53.92 28.80 54.96 28.52 56.00 L 28.16 57.41 C 27.86 58.48 27.56 59.56 27.24 60.63 C 27.10 61.13 26.82 62.14 26.68 62.64 C 26.55 63.31 26.29 64.65 26.16 65.31 C 28.30 64.22 30.39 63.02 32.47 61.80 C 32.72 63.29 32.95 64.79 33.12 66.29 C 32.28 68.37 31.74 70.54 31.45 72.76 C 31.27 74.44 30.97 76.14 28.78 75.74 L 29.93 73.73 C 30.02 73.15 30.21 72.00 30.31 71.42 C 30.26 70.75 30.17 69.40 30.12 68.73 L 30.69 68.81 L 31.22 67.74 L 30.60 66.81 C 30.88 66.12 31.43 64.73 31.71 64.03 C 30.22 64.90 28.76 65.79 27.29 66.70 L 28.29 67.79 C 28.57 69.81 26.69 70.51 25.35 71.42 C 25.06 72.98 24.80 74.55 24.54 76.12 C 24.47 76.48 24.35 77.21 24.29 77.58 C 24.78 77.81 25.76 78.27 26.25 78.50 C 23.78 80.05 21.08 82.01 18.01 81.56 C 19.12 80.95 20.23 80.36 21.38 79.82 C 22.00 79.56 23.24 79.05 23.86 78.79 C 22.11 78.56 21.06 77.68 21.96 76.21 C 22.43 74.88 22.10 73.75 20.96 72.84 C 20.52 73.02 19.66 73.38 19.22 73.56 C 18.49 73.92 17.02 74.66 16.28 75.03 C 16.75 75.54 17.68 76.55 18.15 77.05 C 16.65 76.57 15.15 76.07 13.65 75.57 C 13.59 76.34 13.47 77.87 13.42 78.64 C 12.00 80.07 10.49 81.41 9.01 82.78 C 9.73 81.56 10.45 80.34 11.17 79.13 C 10.49 78.93 9.11 78.54 8.42 78.34 C 10.09 77.13 11.75 75.93 13.38 74.68 C 11.69 74.13 9.93 74.28 8.25 74.76 C 9.35 73.42 10.85 72.60 12.45 72.01 C 13.47 72.62 14.45 73.29 15.43 73.95 C 16.39 73.66 17.35 73.36 18.30 73.07 C 17.40 65.95 17.92 58.71 18.65 51.60 C 21.47 57.03 21.00 63.41 21.89 69.31 C 24.07 70.24 26.63 70.40 27.63 67.76 C 26.73 67.69 24.94 67.54 24.04 67.47 C 26.26 58.40 28.89 49.44 31.33 40.43 M 18.73 71.26 C 19.39 71.45 20.70 71.83 21.36 72.01 L 22.19 72.38 C 22.14 73.69 22.65 74.24 23.72 74.02 C 24.36 72.71 24.15 71.74 23.09 71.13 L 22.33 70.72 C 22.04 70.47 21.45 69.98 21.16 69.73 C 20.15 65.22 20.27 60.46 19.45 55.89 C 19.13 61.01 19.00 66.14 18.73 71.26 Z" />
<path fill="#fffef2" opacity="1.00" d=" M 85.33 41.62 C 85.90 41.06 87.04 39.95 87.61 39.39 C 87.77 39.72 88.09 40.37 88.25 40.70 C 87.08 43.03 84.65 45.09 85.15 47.94 C 86.07 50.89 83.45 52.73 81.35 54.18 L 81.08 53.07 C 81.65 51.73 82.20 50.37 82.68 48.99 C 81.81 49.05 80.08 49.16 79.21 49.21 C 81.24 46.68 83.14 44.03 85.33 41.62 Z" />
<path fill="#dca158" opacity="1.00" d=" M 68.37 43.25 C 72.38 42.82 76.77 43.74 80.26 41.14 C 81.94 41.35 83.62 41.61 85.33 41.62 C 83.14 44.03 81.24 46.68 79.21 49.21 C 74.93 51.32 70.80 53.70 66.36 55.47 C 64.69 53.74 63.35 51.69 62.66 49.37 C 63.16 49.64 64.16 50.18 64.66 50.45 C 67.26 51.19 68.70 48.59 70.59 47.34 C 73.71 45.01 77.92 45.39 81.29 43.61 C 81.15 43.28 80.88 42.62 80.74 42.29 C 77.62 41.87 74.70 44.36 71.73 45.28 L 71.45 45.19 C 70.53 44.37 69.40 43.89 68.37 43.25 Z" />
<path fill="#f9dd7a" opacity="1.00" d=" M 88.25 40.70 C 90.18 43.60 89.56 47.09 88.37 50.14 C 88.29 49.68 88.13 48.77 88.05 48.31 C 87.32 48.21 85.87 48.03 85.15 47.94 C 84.65 45.09 87.08 43.03 88.25 40.70 Z" />
<path fill="#f8ebb8" opacity="1.00" d=" M 43.68 47.58 C 44.39 45.38 45.45 43.31 46.73 41.38 C 47.70 42.43 48.68 43.48 49.61 44.58 C 48.48 46.03 47.30 47.48 45.77 48.55 C 45.25 48.31 44.20 47.82 43.68 47.58 Z" />
<path fill="#ffffff" opacity="1.00" d=" M 108.03 43.85 C 108.81 42.99 109.80 42.30 111.00 42.24 L 111.00 44.10 L 110.24 44.26 C 109.68 44.16 108.58 43.95 108.03 43.85 Z" />
<path fill="#ffffcb" opacity="1.00" d=" M 53.06 42.74 C 54.07 45.08 54.81 47.52 55.55 49.96 C 55.33 52.66 55.25 55.38 55.33 58.10 C 55.08 59.78 54.75 61.46 54.24 63.09 C 54.74 57.35 54.56 51.54 53.46 45.87 C 53.36 45.09 53.16 43.52 53.06 42.74 Z" />
<path fill="#fff59d" opacity="1.00" d=" M 105.15 45.45 C 106.10 44.90 107.06 44.37 108.03 43.85 C 108.58 43.95 109.68 44.16 110.24 44.26 C 109.08 44.82 108.22 45.78 107.54 46.84 C 107.47 46.94 107.31 47.12 107.23 47.21 C 105.96 47.93 104.67 48.64 103.43 49.42 C 104.04 48.11 104.59 46.78 105.15 45.45 Z" />
<path fill="#000100" opacity="1.00" d=" M 110.24 44.26 L 111.00 44.10 L 111.00 45.58 C 110.06 46.52 108.91 46.94 107.54 46.84 C 108.22 45.78 109.08 44.82 110.24 44.26 Z" />
<path fill="#ae4037" opacity="1.00" d=" M 49.61 44.58 C 52.03 50.20 50.99 56.19 50.72 62.06 C 49.82 62.28 48.91 62.50 48.01 62.71 C 47.43 62.47 46.28 62.00 45.70 61.76 C 45.15 57.37 45.27 52.94 45.77 48.55 C 47.30 47.48 48.48 46.03 49.61 44.58 Z" />
<path fill="#ffffa8" opacity="1.00" d=" M 91.01 45.73 C 94.69 45.70 98.37 45.53 102.05 45.47 C 98.49 48.15 94.36 49.87 89.95 50.56 C 90.14 49.70 90.51 47.98 90.70 47.12 C 90.77 46.77 90.93 46.08 91.01 45.73 Z" />
<path fill="#af414f" opacity="1.00" d=" M 51.47 45.71 L 53.46 45.87 C 54.56 51.54 54.74 57.35 54.24 63.09 C 53.34 65.55 50.87 67.92 48.05 67.11 C 45.43 66.29 44.70 63.25 43.81 60.98 C 44.28 61.18 45.23 61.56 45.70 61.76 C 46.28 62.00 47.43 62.47 48.01 62.71 C 48.91 62.50 49.82 62.28 50.72 62.06 C 51.28 61.91 52.39 61.63 52.95 61.48 C 51.46 58.76 52.64 55.74 52.13 52.85 C 51.75 50.49 51.41 48.11 51.47 45.71 Z" />
<path fill="#ffc177" opacity="1.00" d=" M 91.60 53.55 C 95.87 50.45 100.61 48.11 105.15 45.45 C 104.59 46.78 104.04 48.11 103.43 49.42 C 102.49 50.22 101.54 51.04 100.60 51.84 L 100.17 52.15 C 98.72 52.88 97.36 53.77 96.00 54.66 C 94.53 54.30 93.06 53.93 91.60 53.55 Z" />
<path fill="#fa9c65" opacity="1.00" d=" M 43.68 47.58 C 44.20 47.82 45.25 48.31 45.77 48.55 C 45.27 52.94 45.15 57.37 45.70 61.76 C 45.23 61.56 44.28 61.18 43.81 60.98 C 42.89 56.58 42.84 52.00 43.68 47.58 Z" />
<path fill="#fff59d" opacity="1.00" d=" M 85.15 47.94 C 85.87 48.03 87.32 48.21 88.05 48.31 C 88.13 48.77 88.29 49.68 88.37 50.14 C 86.61 54.64 82.30 57.36 77.56 57.70 C 78.80 59.05 80.19 60.24 81.69 61.29 C 80.77 61.79 79.86 62.31 78.97 62.84 C 78.80 63.17 78.47 63.81 78.31 64.14 C 76.85 64.30 75.40 64.38 73.94 64.45 C 73.92 62.71 73.40 61.13 71.66 60.43 C 72.99 59.26 74.26 58.02 75.49 56.75 C 77.15 55.24 79.18 54.23 81.08 53.07 L 81.35 54.18 C 83.45 52.73 86.07 50.89 85.15 47.94 Z" />
<path fill="#211e10" opacity="0.82" d=" M 103.43 49.42 C 104.67 48.64 105.96 47.93 107.23 47.21 C 105.74 49.62 103.54 51.58 100.60 51.84 C 101.54 51.04 102.49 50.22 103.43 49.42 Z" />
<path fill="#e5a556" opacity="1.00" d=" M 79.21 49.21 C 80.08 49.16 81.81 49.05 82.68 48.99 C 82.20 50.37 81.65 51.73 81.08 53.07 C 79.18 54.23 77.15 55.24 75.49 56.75 C 72.41 56.72 69.23 56.79 66.36 55.47 C 70.80 53.70 74.93 51.32 79.21 49.21 Z" />
<path fill="#ffc177" opacity="1.00" d=" M 57.03 52.88 C 58.52 52.28 60.01 51.70 61.50 51.11 C 62.58 53.91 64.61 56.12 66.89 57.99 C 63.45 58.88 60.02 59.80 56.65 60.90 C 57.02 58.24 57.19 55.56 57.03 52.88 M 57.78 56.95 C 58.32 58.42 61.39 57.42 61.64 56.19 C 60.49 55.48 58.46 55.67 57.78 56.95 Z" />
<path fill="#000100" opacity="1.00" d=" M 100.43 57.24 C 103.91 55.42 107.70 54.18 111.00 52.01 L 111.00 53.75 C 107.46 55.48 103.91 57.31 100.05 58.24 C 100.14 57.99 100.33 57.49 100.43 57.24 Z" />
<path fill="#f4dd84" opacity="1.00" d=" M 28.52 56.00 C 28.80 54.96 29.09 53.92 29.38 52.89 C 29.54 53.28 29.86 54.06 30.02 54.45 C 31.56 54.33 33.10 54.12 34.64 53.95 C 34.67 54.47 34.71 55.51 34.73 56.04 C 32.66 56.02 30.59 56.01 28.52 56.00 Z" />
<path fill="#ffffff" opacity="1.00" d=" M 100.05 58.24 C 103.91 57.31 107.46 55.48 111.00 53.75 L 111.00 58.69 C 108.05 62.11 104.76 65.21 101.55 68.37 C 101.13 66.94 100.74 65.50 100.39 64.05 C 100.45 63.18 100.53 62.31 100.61 61.43 C 101.33 61.14 102.04 60.85 102.76 60.55 C 101.73 59.90 100.70 59.25 99.67 58.59 L 100.05 58.24 Z" />
<path fill="#ffe281" opacity="1.00" d=" M 18.73 71.26 C 19.00 66.14 19.13 61.01 19.45 55.89 C 20.27 60.46 20.15 65.22 21.16 69.73 C 21.45 69.98 22.04 70.47 22.33 70.72 C 22.09 71.04 21.60 71.69 21.36 72.01 C 20.70 71.83 19.39 71.45 18.73 71.26 Z" />
<path fill="#fef8bb" opacity="1.00" d=" M 28.52 56.00 C 30.59 56.01 32.66 56.02 34.73 56.04 L 34.79 57.38 C 32.60 57.72 30.35 57.83 28.16 57.41 L 28.52 56.00 Z" />
<path fill="#fef0cc" opacity="1.00" d=" M 38.63 56.73 C 39.61 56.53 40.58 56.33 41.56 56.14 C 41.68 58.25 42.05 60.52 40.68 62.33 C 37.56 62.82 34.95 65.15 34.06 68.17 C 34.07 69.84 34.38 71.49 34.65 73.14 C 34.17 74.06 33.68 74.97 33.18 75.87 C 32.75 75.09 31.88 73.54 31.45 72.76 C 31.74 70.54 32.28 68.37 33.12 66.29 C 35.25 63.31 38.10 60.52 38.63 56.73 Z" />
<path fill="#ffedc8" opacity="1.00" d=" M 57.78 56.95 C 58.46 55.67 60.49 55.48 61.64 56.19 C 61.39 57.42 58.32 58.42 57.78 56.95 Z" />
<path fill="#fdec8d" opacity="1.00" d=" M 27.24 60.63 C 27.56 59.56 27.86 58.48 28.16 57.41 C 30.35 57.83 32.60 57.72 34.79 57.38 C 36.08 57.20 37.35 56.96 38.63 56.73 C 38.10 60.52 35.25 63.31 33.12 66.29 C 32.95 64.79 32.72 63.29 32.47 61.80 C 30.39 63.02 28.30 64.22 26.16 65.31 C 26.29 64.65 26.55 63.31 26.68 62.64 C 27.85 62.74 28.86 62.39 29.71 61.60 C 29.10 61.36 27.86 60.87 27.24 60.63 Z" />
<path fill="#2a2a23" opacity="0.86" d=" M 92.28 62.05 C 93.32 59.22 96.61 58.73 99.24 58.83 C 97.13 60.33 94.75 61.34 92.28 62.05 Z" />
<path fill="#ffffcb" opacity="1.00" d=" M 99.24 58.83 L 99.67 58.59 C 100.70 59.25 101.73 59.90 102.76 60.55 C 102.04 60.85 101.33 61.14 100.61 61.43 C 100.53 62.31 100.45 63.18 100.39 64.05 C 97.69 65.44 94.96 66.78 92.12 67.88 C 91.80 66.00 91.70 64.06 92.22 62.20 L 92.28 62.05 C 94.75 61.34 97.13 60.33 99.24 58.83 Z" />
<path fill="#000100" opacity="1.00" d=" M 101.55 68.37 C 104.76 65.21 108.05 62.11 111.00 58.69 L 111.00 60.59 C 107.73 64.20 104.46 67.91 100.33 70.56 C 100.20 69.01 100.07 67.45 99.95 65.90 C 93.80 68.46 87.83 71.87 81.16 72.86 C 82.25 72.14 83.35 71.42 84.48 70.77 C 87.02 69.78 89.60 68.90 92.12 67.88 C 94.96 66.78 97.69 65.44 100.39 64.05 C 100.74 65.50 101.13 66.94 101.55 68.37 Z" />
<path fill="#f5efd3" opacity="1.00" d=" M 26.68 62.64 C 26.82 62.14 27.10 61.13 27.24 60.63 C 27.86 60.87 29.10 61.36 29.71 61.60 C 28.86 62.39 27.85 62.74 26.68 62.64 Z" />
<path fill="#0d0d09" opacity="1.00" d=" M 60.22 65.67 C 61.73 63.57 63.79 61.97 65.98 60.62 C 64.66 63.36 63.00 65.94 60.85 68.09 C 60.69 67.48 60.38 66.27 60.22 65.67 Z" />
<path fill="#f2d87b" opacity="1.00" d=" M 34.06 68.17 C 34.95 65.15 37.56 62.82 40.68 62.33 C 38.52 65.85 36.43 69.41 34.65 73.14 C 34.38 71.49 34.07 69.84 34.06 68.17 Z" />
<path fill="#ffffae" opacity="1.00" d=" M 91.98 62.23 C 92.04 62.22 92.16 62.21 92.22 62.20 C 91.70 64.06 91.80 66.00 92.12 67.88 C 89.60 68.90 87.02 69.78 84.48 70.77 C 85.20 68.68 86.05 66.63 87.08 64.67 C 88.75 63.93 90.36 63.08 91.98 62.23 Z" />
<path fill="#ffd778" opacity="1.00" d=" M 42.28 62.69 C 43.05 64.02 43.80 65.35 44.57 66.68 C 43.16 68.03 40.87 69.10 41.41 71.46 C 40.16 72.29 37.55 72.25 37.48 74.11 L 37.22 74.32 L 37.02 74.36 C 36.91 74.10 36.67 73.59 36.56 73.34 C 38.66 69.89 40.33 66.21 42.28 62.69 Z" />
<path fill="#ddba6c" opacity="1.00" d=" M 73.94 64.45 C 75.40 64.38 76.85 64.30 78.31 64.14 C 78.26 64.63 78.17 65.62 78.12 66.11 C 76.62 65.58 74.64 66.57 74.53 68.25 C 74.32 66.99 74.12 65.72 73.94 64.45 Z" />
<path fill="#fffef2" opacity="1.00" d=" M 27.29 66.70 C 28.76 65.79 30.22 64.90 31.71 64.03 C 31.43 64.73 30.88 66.12 30.60 66.81 C 30.48 67.29 30.24 68.25 30.12 68.73 C 30.17 69.40 30.26 70.75 30.31 71.42 C 29.72 71.57 28.55 71.87 27.96 72.02 C 28.44 71.40 29.40 70.17 29.88 69.55 C 29.48 69.11 28.69 68.23 28.29 67.79 L 27.29 66.70 Z" />
<path fill="#fffb94" opacity="1.00" d=" M 72.94 70.83 C 77.66 68.80 82.35 66.69 87.08 64.67 C 86.05 66.63 85.20 68.68 84.48 70.77 C 83.35 71.42 82.25 72.14 81.16 72.86 C 81.07 72.93 80.88 73.06 80.79 73.12 C 79.50 73.40 78.21 73.72 76.94 74.08 C 75.98 74.41 75.04 74.76 74.10 75.14 C 72.39 75.84 70.67 76.51 68.95 77.18 C 68.37 76.63 67.79 76.07 67.21 75.52 C 69.48 74.94 71.67 74.11 73.75 73.02 C 73.55 72.47 73.14 71.38 72.94 70.83 Z" />
<path fill="#fff59d" opacity="1.00" d=" M 60.22 65.67 C 60.38 66.27 60.69 67.48 60.85 68.09 C 60.70 68.24 60.42 68.54 60.27 68.70 C 58.94 69.30 57.98 70.45 57.51 71.83 C 57.16 72.46 56.80 73.09 56.44 73.72 C 55.17 73.80 54.04 73.42 53.05 72.58 C 54.62 72.13 55.76 71.26 56.47 69.98 C 56.54 69.79 56.68 69.40 56.75 69.21 C 58.16 69.27 59.00 68.54 59.27 67.02 C 59.51 66.68 59.98 66.01 60.22 65.67 Z" />
<path fill="#efebb8" opacity="1.00" d=" M 74.53 68.25 C 74.64 66.57 76.62 65.58 78.12 66.11 L 78.08 66.73 C 77.13 67.82 75.95 68.32 74.53 68.25 Z" />
<path fill="#c58942" opacity="1.00" d=" M 30.12 68.73 C 30.24 68.25 30.48 67.29 30.60 66.81 L 31.22 67.74 L 30.69 68.81 L 30.12 68.73 Z" />
<path fill="#0d0d09" opacity="1.00" d=" M 56.75 69.21 C 57.05 67.88 57.89 67.15 59.27 67.02 C 59.00 68.54 58.16 69.27 56.75 69.21 Z" />
<path fill="#d39e58" opacity="1.00" d=" M 28.29 67.79 C 28.69 68.23 29.48 69.11 29.88 69.55 C 29.40 70.17 28.44 71.40 27.96 72.02 C 27.39 72.31 26.23 72.88 25.66 73.17 C 26.00 75.14 28.14 73.24 27.96 72.02 C 28.55 71.87 29.72 71.57 30.31 71.42 C 30.21 72.00 30.02 73.15 29.93 73.73 C 28.11 74.49 26.32 75.30 24.54 76.12 C 24.80 74.55 25.06 72.98 25.35 71.42 C 26.69 70.51 28.57 69.81 28.29 67.79 Z" />
<path fill="#0d0d09" opacity="1.00" d=" M 0.00 77.48 C 2.40 74.71 4.61 71.77 7.15 69.14 C 9.02 68.70 10.33 70.26 11.47 71.44 C 10.48 71.07 8.50 70.31 7.52 69.94 C 5.46 72.63 3.42 75.33 1.31 77.99 C 0.98 78.34 0.33 79.04 0.00 79.39 L 0.00 77.48 Z" />
<path fill="#000100" opacity="1.00" d=" M 57.51 71.83 C 57.98 70.45 58.94 69.30 60.27 68.70 C 60.31 70.23 59.34 72.19 57.51 71.83 Z" />
<path fill="#ffffa8" opacity="1.00" d=" M 1.31 77.99 C 3.42 75.33 5.46 72.63 7.52 69.94 C 8.50 70.31 10.48 71.07 11.47 71.44 C 11.72 71.58 12.21 71.87 12.45 72.01 C 10.85 72.60 9.35 73.42 8.25 74.76 C 8.07 74.93 7.72 75.27 7.54 75.45 C 7.06 75.92 6.10 76.85 5.62 77.32 C 5.41 77.66 5.21 78.01 5.00 78.36 L 2.95 79.31 C 2.54 78.98 1.72 78.32 1.31 77.99 Z" />
<path fill="#f9f8ed" opacity="1.00" d=" M 21.36 72.01 C 21.60 71.69 22.09 71.04 22.33 70.72 L 23.09 71.13 C 22.86 71.44 22.41 72.07 22.19 72.38 L 21.36 72.01 Z" />
<path fill="#d8ba77" opacity="1.00" d=" M 23.09 71.13 C 24.15 71.74 24.36 72.71 23.72 74.02 C 22.65 74.24 22.14 73.69 22.19 72.38 C 22.41 72.07 22.86 71.44 23.09 71.13 Z" />
<path fill="#ffe281" opacity="1.00" d=" M 54.78 78.16 C 60.89 75.86 66.93 73.39 72.94 70.83 C 73.14 71.38 73.55 72.47 73.75 73.02 C 71.67 74.11 69.48 74.94 67.21 75.52 C 67.79 76.07 68.37 76.63 68.95 77.18 C 64.40 78.97 59.84 80.75 55.20 82.28 C 55.40 80.87 55.27 79.50 54.78 78.16 Z" />
<path fill="#f9d6a4" opacity="1.00" d=" M 25.66 73.17 C 26.23 72.88 27.39 72.31 27.96 72.02 C 28.14 73.24 26.00 75.14 25.66 73.17 Z" />
<path fill="#e5d988" opacity="1.00" d=" M 19.22 73.56 C 19.66 73.38 20.52 73.02 20.96 72.84 C 22.10 73.75 22.43 74.88 21.96 76.21 C 21.42 76.08 20.35 75.81 19.81 75.68 C 19.58 74.98 19.38 74.27 19.22 73.56 Z" />
<path fill="#fff59d" opacity="1.00" d=" M 28.78 75.74 C 30.97 76.14 31.27 74.44 31.45 72.76 C 31.88 73.54 32.75 75.09 33.18 75.87 C 32.14 77.70 31.09 79.53 30.03 81.35 C 30.24 79.45 30.46 77.55 30.68 75.65 C 29.62 76.02 27.49 76.77 26.43 77.14 C 27.20 76.65 27.98 76.18 28.78 75.74 Z" />
<path fill="#000100" opacity="1.00" d=" M 76.94 74.08 C 78.21 73.72 79.50 73.40 80.79 73.12 C 79.82 73.81 78.85 74.50 77.89 75.20 C 77.46 77.98 77.06 80.83 75.76 83.38 C 75.18 81.12 74.71 78.84 74.29 76.55 C 67.82 79.71 60.77 81.36 54.11 84.04 C 51.19 85.35 47.21 85.57 45.84 88.94 C 40.06 91.60 34.05 93.73 28.15 96.10 C 22.72 98.20 17.40 100.68 11.70 101.96 C 12.82 99.20 14.23 96.57 15.80 94.05 C 13.91 93.43 12.04 92.72 10.21 91.92 C 10.36 91.39 10.65 90.34 10.80 89.81 C 11.32 89.58 12.38 89.14 12.91 88.91 C 13.82 89.61 14.74 90.31 15.66 91.01 L 11.84 91.30 C 13.43 92.28 16.05 92.06 17.00 93.86 C 16.05 96.20 14.67 98.32 13.45 100.51 C 16.76 99.30 20.03 97.98 23.27 96.59 C 26.74 95.12 30.24 93.73 33.76 92.39 C 35.46 91.77 37.16 91.17 38.84 90.50 C 39.22 90.35 39.97 90.04 40.34 89.89 C 41.70 89.33 43.08 88.80 44.43 88.22 C 44.42 87.71 44.39 86.68 44.37 86.16 L 44.93 85.99 C 48.26 85.01 51.52 83.82 54.71 82.46 L 55.20 82.28 C 59.84 80.75 64.40 78.97 68.95 77.18 C 70.67 76.51 72.39 75.84 74.10 75.14 C 74.93 76.55 75.77 77.95 76.65 79.33 C 76.76 77.58 76.86 75.83 76.94 74.08 Z" />
<path fill="#f9f8c8" opacity="1.00" d=" M 16.28 75.03 C 17.02 74.66 18.49 73.92 19.22 73.56 C 19.38 74.27 19.58 74.98 19.81 75.68 C 20.35 75.81 21.42 76.08 21.96 76.21 C 21.06 77.68 22.11 78.56 23.86 78.79 C 23.24 79.05 22.00 79.56 21.38 79.82 C 20.68 79.38 19.30 78.50 18.61 78.07 C 16.94 78.28 14.54 80.75 13.42 78.64 C 13.47 77.87 13.59 76.34 13.65 75.57 C 15.15 76.07 16.65 76.57 18.15 77.05 C 17.68 76.55 16.75 75.54 16.28 75.03 Z" />
<path fill="#fef0cc" opacity="1.00" d=" M 24.54 76.12 C 26.32 75.30 28.11 74.49 29.93 73.73 L 28.78 75.74 C 27.98 76.18 27.20 76.65 26.43 77.14 C 26.39 77.48 26.29 78.16 26.25 78.50 C 25.76 78.27 24.78 77.81 24.29 77.58 C 24.35 77.21 24.47 76.48 24.54 76.12 Z" />
<path fill="#525130" opacity="1.00" d=" M 74.10 75.14 C 75.04 74.76 75.98 74.41 76.94 74.08 C 76.86 75.83 76.76 77.58 76.65 79.33 C 75.77 77.95 74.93 76.55 74.10 75.14 Z" />
<path fill="#252113" opacity="0.95" d=" M 5.62 77.32 C 6.10 76.85 7.06 75.92 7.54 75.45 C 8.26 76.67 6.68 79.06 5.62 77.32 Z" />
<path fill="#f5f5d3" opacity="1.00" d=" M 0.00 79.39 C 0.33 79.04 0.98 78.34 1.31 77.99 C 1.72 78.32 2.54 78.98 2.95 79.31 C 2.36 80.47 1.46 81.78 0.00 81.80 L 0.00 79.39 Z" />
<path fill="#ffffff" opacity="1.00" d=" M 13.42 78.64 C 14.54 80.75 16.94 78.28 18.61 78.07 C 19.30 78.50 20.68 79.38 21.38 79.82 C 20.23 80.36 19.12 80.95 18.01 81.56 L 17.76 81.54 L 17.66 81.78 C 13.98 83.43 10.43 85.34 6.93 87.34 C 7.60 85.82 8.26 84.30 8.99 82.80 L 9.01 82.78 C 10.49 81.41 12.00 80.07 13.42 78.64 Z" />
<path fill="#ffffcb" opacity="1.00" d=" M 53.06 78.77 C 53.49 78.62 54.35 78.31 54.78 78.16 C 55.27 79.50 55.40 80.87 55.20 82.28 L 54.71 82.46 C 53.89 81.35 53.34 80.12 53.06 78.77 Z" />
<path fill="#22221c" opacity="0.92" d=" M 2.95 79.31 L 5.00 78.36 C 4.27 81.02 1.86 82.53 0.00 84.36 L 0.00 81.80 C 1.46 81.78 2.36 80.47 2.95 79.31 Z" />
<path fill="#ffd778" opacity="1.00" d=" M 43.24 82.33 C 46.49 81.10 49.76 79.90 53.06 78.77 C 53.34 80.12 53.89 81.35 54.71 82.46 C 51.52 83.82 48.26 85.01 44.93 85.99 C 44.88 84.54 44.31 83.32 43.24 82.33 Z" />
<path fill="#000100" opacity="1.00" d=" M 6.93 87.34 C 10.43 85.34 13.98 83.43 17.66 81.78 L 17.21 82.87 C 11.75 86.43 5.63 88.89 0.00 92.19 L 0.00 89.65 L 1.74 89.28 C 1.57 89.61 1.25 90.25 1.08 90.58 C 3.05 89.53 4.99 88.45 6.93 87.34 Z" />
<path fill="#fef0cc" opacity="1.00" d=" M 3.71 87.36 C 5.47 85.84 7.27 84.37 8.99 82.80 C 8.26 84.30 7.60 85.82 6.93 87.34 C 4.99 88.45 3.05 89.53 1.08 90.58 C 1.25 90.25 1.57 89.61 1.74 89.28 C 2.13 88.89 2.92 88.11 3.31 87.72 L 3.51 87.53 L 3.71 87.36 Z" />
<path fill="#f2c572" opacity="1.00" d=" M 40.34 83.18 C 40.75 83.05 41.58 82.81 41.99 82.69 C 42.13 84.19 43.28 85.25 44.37 86.16 C 44.39 86.68 44.42 87.71 44.43 88.22 C 43.08 88.80 41.70 89.33 40.34 89.89 C 40.44 87.65 40.42 85.41 40.34 83.18 Z" />
<path fill="#ffffcb" opacity="1.00" d=" M 41.99 82.69 C 42.30 82.60 42.92 82.42 43.24 82.33 C 44.31 83.32 44.88 84.54 44.93 85.99 L 44.37 86.16 C 43.28 85.25 42.13 84.19 41.99 82.69 Z" />
<path fill="#e1ab5a" opacity="1.00" d=" M 28.66 86.90 C 32.10 85.80 35.55 84.71 38.99 83.61 C 38.87 85.91 38.86 88.21 38.84 90.50 C 37.16 91.17 35.46 91.77 33.76 92.39 C 34.96 90.69 36.25 89.05 37.57 87.44 C 34.60 87.33 31.57 87.76 28.66 86.90 Z" />
<path fill="#f9e4b0" opacity="1.00" d=" M 38.99 83.61 L 40.34 83.18 C 40.42 85.41 40.44 87.65 40.34 89.89 C 39.97 90.04 39.22 90.35 38.84 90.50 C 38.86 88.21 38.87 85.91 38.99 83.61 Z" />
<path fill="#fff59d" opacity="1.00" d=" M 16.31 87.50 C 18.74 86.43 21.17 85.32 23.57 84.16 C 23.20 84.92 22.47 86.44 22.10 87.21 C 20.12 87.92 18.13 88.62 16.09 89.17 C 15.77 89.07 15.13 88.86 14.81 88.76 C 15.18 88.45 15.93 87.82 16.31 87.50 Z" />
<path fill="#0d0d09" opacity="1.00" d=" M 3.50 87.52 L 3.71 87.36 L 3.51 87.53 L 3.31 87.72 L 3.50 87.52 Z" />
<path fill="#f1cb7c" opacity="1.00" d=" M 21.81 88.97 C 24.10 88.29 26.37 87.58 28.66 86.90 C 31.57 87.76 34.60 87.33 37.57 87.44 C 36.25 89.05 34.96 90.69 33.76 92.39 C 30.24 93.73 26.74 95.12 23.27 96.59 C 22.44 95.86 21.62 95.13 20.79 94.41 C 19.61 94.50 18.43 94.59 17.25 94.68 C 19.19 91.39 23.11 91.77 26.25 90.60 C 24.78 90.04 23.29 89.50 21.81 88.97 Z" />
<path fill="#e4aa58" opacity="1.00" d=" M 12.91 88.91 C 13.38 88.87 14.33 88.80 14.81 88.76 C 15.13 88.86 15.77 89.07 16.09 89.17 C 15.97 89.46 15.72 90.03 15.59 90.32 C 17.68 89.95 19.77 89.56 21.81 88.97 C 23.29 89.50 24.78 90.04 26.25 90.60 C 23.11 91.77 19.19 91.39 17.25 94.68 C 18.43 94.59 19.61 94.50 20.79 94.41 C 21.62 95.13 22.44 95.86 23.27 96.59 C 20.03 97.98 16.76 99.30 13.45 100.51 C 14.67 98.32 16.05 96.20 17.00 93.86 C 16.05 92.06 13.43 92.28 11.84 91.30 L 15.66 91.01 C 14.74 90.31 13.82 89.61 12.91 88.91 Z" />
</svg>
