<?xml version="1.0" encoding="UTF-8" ?>
<!DOCTYPE svg PUBLIC "-//W3C//DTD SVG 1.1//EN" "http://www.w3.org/Graphics/SVG/1.1/DTD/svg11.dtd">
<svg width="111pt" height="111pt" viewBox="0 0 111 111" version="1.1" xmlns="http://www.w3.org/2000/svg">
<path fill="#000000" opacity="1.00" d=" M 60.95 6.18 C 68.09 0.89 79.86 2.70 83.82 11.11 C 88.79 6.21 96.94 4.64 103.23 7.80 C 106.61 9.53 109.54 13.05 108.88 17.08 C 108.63 20.96 105.15 23.29 102.15 25.12 C 102.13 25.51 102.10 26.28 102.08 26.66 C 105.17 26.47 108.29 26.96 111.00 28.51 L 111.00 34.19 L 109.95 34.85 C 109.36 38.13 109.23 42.18 105.77 43.79 C 105.97 46.44 106.04 49.27 104.51 51.58 C 102.00 56.29 96.33 58.28 91.24 57.76 C 89.82 59.59 87.80 60.68 85.52 61.01 C 86.50 65.34 87.92 69.63 87.66 74.13 C 84.63 77.51 81.93 81.18 78.59 84.28 C 79.33 87.03 80.33 92.01 75.97 91.81 L 75.46 90.46 C 75.99 90.12 77.04 89.43 77.57 89.09 C 77.69 87.47 77.50 85.90 76.99 84.36 C 77.56 83.59 78.18 82.87 78.83 82.17 C 81.43 79.25 84.32 76.47 86.33 73.10 C 86.42 68.95 85.05 64.95 83.94 61.00 C 82.47 61.86 81.07 62.84 79.77 63.96 C 79.93 69.97 78.67 75.88 77.88 81.81 C 77.65 81.71 77.18 81.53 76.95 81.44 C 78.38 75.77 78.49 69.89 78.70 64.09 C 78.38 64.10 77.75 64.12 77.44 64.13 C 77.21 69.74 76.42 75.35 75.57 80.89 C 75.24 82.34 74.99 83.81 74.72 85.27 C 73.47 84.21 74.36 82.40 74.42 81.04 C 75.08 77.57 75.54 74.07 75.54 70.53 C 75.59 69.01 75.70 67.49 75.88 65.98 C 75.16 64.35 73.94 63.16 72.22 62.62 C 70.30 60.95 69.95 58.46 70.04 56.05 C 67.95 55.06 66.06 52.83 63.55 53.41 C 63.43 53.97 63.20 55.09 63.08 55.65 C 62.48 57.11 62.52 59.38 60.64 59.88 C 60.60 58.47 60.58 57.05 60.57 55.64 C 59.61 54.67 58.71 53.54 57.39 53.03 C 57.37 53.62 57.35 54.80 57.33 55.39 C 60.57 54.49 60.73 59.19 58.69 60.55 C 56.65 62.61 53.58 62.53 50.91 62.86 L 50.17 62.89 C 49.17 62.60 48.25 62.16 47.41 61.54 C 48.06 60.29 48.51 58.96 48.76 57.57 C 50.64 57.77 52.42 57.26 54.02 56.26 C 53.37 57.15 52.67 57.99 51.91 58.78 C 51.45 58.90 50.53 59.13 50.07 59.25 L 50.00 60.04 L 49.92 61.08 C 52.97 60.66 57.75 61.64 58.85 57.81 C 57.65 57.01 56.46 56.21 55.24 55.45 C 53.58 54.48 52.12 56.32 50.62 56.81 L 50.83 55.74 C 53.65 54.38 56.45 52.20 55.99 48.69 C 56.05 48.11 56.19 46.96 56.25 46.39 C 51.58 46.04 45.95 48.78 45.95 54.08 C 46.57 54.09 47.83 54.12 48.46 54.14 C 49.03 54.52 50.16 55.28 50.72 55.66 L 50.02 56.62 C 48.77 54.44 44.73 54.91 46.00 57.82 C 49.01 59.25 46.77 61.80 44.70 62.63 C 43.37 63.57 42.26 64.78 41.28 66.09 C 40.26 68.74 42.97 70.22 44.89 71.28 C 45.35 71.74 46.26 72.67 46.72 73.13 C 46.51 73.58 46.09 74.47 45.88 74.91 C 43.91 77.78 41.07 80.32 40.81 84.01 C 41.33 88.53 44.49 92.07 47.93 94.77 C 48.97 95.60 50.05 96.48 51.40 96.76 C 49.87 93.30 48.26 89.76 48.32 85.89 C 49.55 84.73 51.21 84.51 52.80 84.26 C 54.06 84.08 55.30 83.83 56.53 83.50 C 58.01 81.69 55.75 79.67 55.19 77.91 C 57.87 74.67 62.00 73.01 64.69 69.72 C 65.06 68.46 64.11 66.17 65.92 65.82 C 66.01 67.38 66.04 68.94 66.02 70.50 C 65.75 70.70 65.22 71.12 64.95 71.32 C 63.87 72.19 62.86 73.14 61.86 74.10 C 64.56 79.31 67.96 84.16 71.17 89.07 C 72.63 88.24 73.72 86.00 75.62 86.61 C 74.76 87.99 73.83 89.35 73.17 90.84 C 73.40 91.40 73.87 92.52 74.10 93.08 C 73.44 98.41 74.46 103.73 74.38 109.07 C 71.10 103.22 75.93 95.45 71.29 89.91 L 69.83 90.51 C 69.03 93.94 70.70 98.95 67.47 101.28 C 66.75 96.56 66.36 91.80 66.32 87.03 C 66.55 82.30 62.25 79.16 60.87 74.89 C 59.30 75.79 57.78 76.78 56.31 77.84 C 57.07 79.20 57.78 80.58 58.44 81.99 C 58.15 82.57 57.56 83.74 57.27 84.32 C 54.83 85.29 52.20 85.58 49.61 85.85 C 48.85 90.55 52.14 94.42 52.87 98.87 C 50.55 99.02 49.11 96.85 47.31 95.74 C 42.66 92.55 38.61 87.17 39.79 81.22 C 37.04 81.15 36.43 83.13 36.43 85.41 C 35.04 85.76 33.27 86.22 32.23 84.82 C 33.00 84.71 34.55 84.51 35.33 84.41 C 35.58 83.39 35.83 82.38 36.09 81.36 C 40.49 80.57 43.35 76.92 45.25 73.15 C 43.55 72.13 41.84 71.14 40.11 70.17 C 39.20 73.22 37.37 75.95 34.56 77.55 C 32.62 78.70 30.70 79.87 28.73 80.97 C 28.27 81.17 27.35 81.56 26.89 81.76 L 26.20 82.06 C 19.93 81.50 17.90 74.31 16.15 69.30 C 14.70 66.54 10.81 66.49 9.27 63.79 C 8.99 62.45 9.03 61.07 8.92 59.71 C 9.03 53.82 11.49 46.83 7.14 41.84 C 5.77 40.58 4.53 38.69 2.58 38.41 C 3.13 40.05 4.48 41.23 5.42 42.64 C 5.82 44.45 6.53 46.17 7.09 47.93 C 8.64 54.31 6.39 60.64 6.60 67.03 C 8.40 67.58 10.16 68.24 11.86 69.06 C 11.77 71.12 12.10 73.15 12.57 75.15 C 13.25 75.36 14.60 75.77 15.27 75.98 C 15.88 76.96 16.49 77.94 17.06 78.95 C 16.82 82.18 18.01 85.44 20.47 87.58 C 22.34 89.00 24.89 88.69 26.91 87.81 C 28.53 86.58 29.83 84.86 31.83 84.23 L 31.34 85.81 C 28.68 89.03 23.97 91.19 20.03 88.97 C 16.88 86.30 15.44 81.98 15.28 77.93 C 14.13 77.27 12.93 76.69 11.71 76.17 C 11.25 74.75 10.75 73.35 10.20 71.97 C 10.39 71.44 10.77 70.39 10.95 69.87 C 8.53 68.92 4.28 68.67 5.19 64.96 C 6.63 58.06 7.60 50.51 4.27 43.96 C 3.22 41.34 0.44 39.10 1.29 36.03 C 5.50 37.93 9.68 41.18 10.64 45.95 C 11.46 50.97 10.39 56.01 9.85 61.01 C 9.98 65.66 16.37 65.26 17.63 69.31 C 18.95 73.32 20.30 77.75 24.00 80.25 C 26.58 81.57 28.97 79.28 31.13 78.16 C 34.80 76.09 39.06 73.19 38.76 68.40 C 36.04 68.39 33.36 67.89 30.73 67.26 C 29.54 64.69 29.65 61.82 29.51 59.06 L 30.64 57.99 C 30.82 59.70 31.01 61.40 31.22 63.10 C 31.35 64.16 31.58 65.21 31.90 66.23 C 34.26 66.68 36.64 67.06 39.04 67.24 C 40.79 64.03 43.77 61.88 46.07 59.16 C 45.64 58.79 44.79 58.05 44.36 57.68 C 44.88 54.05 45.23 50.06 41.81 47.70 C 40.80 46.51 39.89 45.24 38.78 44.13 C 36.33 43.50 33.72 43.65 31.26 44.19 C 31.09 44.95 30.75 46.49 30.58 47.25 C 29.27 50.94 31.52 55.70 29.33 58.99 C 28.73 53.88 28.94 48.71 29.83 43.65 C 31.37 41.88 34.23 42.79 36.30 42.45 C 36.93 41.56 37.56 40.67 38.18 39.78 C 36.69 35.85 34.38 31.68 35.34 27.37 C 36.10 24.28 39.77 23.47 40.72 20.54 C 41.99 19.80 43.27 19.09 44.54 18.36 C 44.27 15.55 44.78 12.00 47.62 10.62 C 51.14 9.99 52.97 14.12 54.14 16.74 C 54.65 16.55 55.67 16.16 56.18 15.97 C 56.65 12.31 58.15 8.66 60.95 6.18 M 63.02 6.58 C 60.73 7.35 59.68 9.82 58.59 11.79 C 57.85 13.30 57.49 14.93 57.47 16.61 C 56.92 16.75 55.82 17.04 55.27 17.18 L 55.52 17.38 C 55.11 17.77 54.29 18.57 53.88 18.96 C 52.24 16.44 51.61 11.90 47.95 11.69 C 45.65 13.28 45.28 16.69 45.95 19.23 C 44.72 19.54 43.51 19.93 42.75 21.02 C 42.44 21.09 41.80 21.22 41.49 21.28 C 41.00 24.31 37.13 25.02 36.21 28.00 C 35.76 32.47 38.24 36.47 39.47 40.61 C 39.08 40.97 38.31 41.70 37.92 42.06 C 39.44 43.81 41.90 45.27 43.49 47.32 C 44.08 48.18 44.67 49.04 45.26 49.90 C 47.04 47.99 48.99 46.18 51.57 45.43 C 52.24 42.07 48.01 40.30 45.37 39.50 C 41.88 38.22 42.00 34.16 42.20 31.10 C 42.74 30.03 42.79 28.45 44.08 27.94 C 43.65 30.27 43.06 32.61 43.16 35.00 C 43.45 37.15 45.39 38.67 47.47 38.88 C 51.05 40.04 54.62 37.38 58.23 37.66 L 57.76 39.06 C 58.96 38.97 60.02 39.22 60.93 39.80 C 58.60 42.22 56.48 37.68 53.99 39.95 C 53.93 41.70 53.71 43.45 53.13 45.11 C 55.03 45.12 56.72 44.39 58.33 43.44 C 60.91 43.37 59.89 47.09 61.72 48.26 C 62.71 50.28 65.45 47.67 63.86 46.30 C 62.66 44.68 63.38 42.63 63.36 40.79 C 63.05 40.42 62.42 39.67 62.11 39.29 C 62.72 39.28 63.94 39.24 64.54 39.22 L 64.10 37.72 C 64.72 37.59 65.96 37.34 66.58 37.22 C 65.11 38.47 64.16 40.25 64.47 42.22 L 64.02 42.01 C 63.09 44.81 65.60 46.23 67.73 47.17 C 67.14 48.92 65.96 50.62 66.33 52.55 C 67.76 53.18 69.22 53.76 70.58 54.52 C 71.96 56.72 70.50 60.41 73.42 61.70 C 76.31 63.71 79.88 62.35 82.35 60.36 C 85.03 60.43 87.21 58.78 89.70 58.03 C 89.78 57.44 89.93 56.26 90.01 55.67 C 95.16 57.48 101.54 54.86 103.73 49.80 C 104.88 47.38 104.23 44.61 104.84 42.05 C 107.01 41.96 108.16 40.17 107.13 38.19 C 107.55 37.87 108.38 37.24 108.80 36.93 C 108.69 36.42 108.48 35.41 108.38 34.90 C 109.03 34.17 109.69 33.43 110.34 32.69 C 111.98 29.11 106.92 27.45 104.29 28.30 C 102.77 27.74 100.22 28.21 100.21 25.90 C 99.69 25.78 98.64 25.52 98.12 25.40 C 100.74 23.77 104.00 22.97 105.92 20.39 C 109.17 17.04 107.24 10.54 102.79 9.57 L 102.83 9.01 C 100.51 8.13 97.95 7.08 95.46 7.85 L 95.04 7.55 C 91.13 8.30 84.79 9.22 84.11 13.79 C 81.40 8.66 76.35 4.04 70.15 4.67 C 67.68 4.88 65.21 5.36 63.02 6.58 M 50.37 40.22 C 49.57 41.44 51.75 43.08 52.75 42.02 C 53.67 40.63 51.46 39.21 50.37 40.22 M 56.55 51.70 C 59.30 51.11 58.21 46.92 59.16 44.75 C 55.66 44.43 57.02 49.52 56.55 51.70 M 65.34 48.31 C 64.73 49.52 62.53 50.48 63.26 52.01 C 65.18 53.39 66.47 48.87 65.34 48.31 M 59.38 48.95 C 58.83 50.24 58.89 51.47 59.58 52.63 C 62.33 54.01 61.34 47.84 59.38 48.95 M 66.96 86.56 C 67.50 89.65 66.36 93.72 68.68 96.13 C 69.02 93.25 69.44 90.12 68.64 87.33 C 68.22 87.14 67.38 86.76 66.96 86.56 Z" />
<path fill="#fff7ac" opacity="1.00" d=" M 63.02 6.58 C 65.21 5.36 67.68 4.88 70.15 4.67 C 71.11 7.49 69.11 10.47 66.00 9.96 C 63.92 10.37 63.72 7.88 63.02 6.58 Z" />
<path fill="#a2d278" opacity="1.00" d=" M 70.15 4.67 C 76.35 4.04 81.40 8.66 84.11 13.79 C 84.79 9.22 91.13 8.30 95.04 7.55 L 95.46 7.85 C 97.67 9.45 100.88 10.80 100.70 14.08 C 101.96 19.21 97.61 23.32 93.49 25.48 C 93.38 26.67 93.27 27.85 93.15 29.04 C 91.63 30.50 90.21 32.06 88.94 33.74 C 89.00 29.36 87.05 24.95 82.97 22.91 C 82.57 21.60 82.24 20.27 81.92 18.94 C 80.18 20.88 78.65 23.48 75.89 23.99 C 72.63 24.48 69.38 26.08 66.06 25.06 C 61.33 22.33 58.83 17.14 58.59 11.79 C 59.68 9.82 60.73 7.35 63.02 6.58 C 63.72 7.88 63.92 10.37 66.00 9.96 C 69.11 10.47 71.11 7.49 70.15 4.67 Z" />
<path fill="#22585b" opacity="1.00" d=" M 95.46 7.85 C 97.95 7.08 100.51 8.13 102.83 9.01 L 102.79 9.57 C 102.68 12.01 102.24 14.53 102.91 16.93 C 103.78 18.19 104.87 19.28 105.92 20.39 C 104.00 22.97 100.74 23.77 98.12 25.40 C 98.64 25.52 99.69 25.78 100.21 25.90 C 100.22 28.21 102.77 27.74 104.29 28.30 C 102.51 29.69 99.62 28.75 98.24 30.42 C 100.07 31.27 101.58 32.62 103.11 33.90 C 105.73 35.22 107.67 31.69 110.34 32.69 C 109.69 33.43 109.03 34.17 108.38 34.90 C 108.48 35.41 108.69 36.42 108.80 36.93 C 108.38 37.24 107.55 37.87 107.13 38.19 C 108.16 40.17 107.01 41.96 104.84 42.05 C 103.76 42.49 102.36 42.59 101.71 43.69 C 101.22 45.71 101.61 47.87 100.94 49.86 C 99.06 51.87 96.27 52.91 93.58 53.23 C 94.33 51.95 95.12 50.69 95.93 49.43 C 95.44 49.52 94.46 49.70 93.96 49.79 C 93.51 49.50 92.60 48.92 92.15 48.63 C 89.28 46.50 88.65 42.97 87.81 39.72 C 86.68 39.47 85.56 39.20 84.44 38.94 C 86.02 37.28 87.57 35.57 88.94 33.74 C 90.21 32.06 91.63 30.50 93.15 29.04 C 93.27 27.85 93.38 26.67 93.49 25.48 C 97.61 23.32 101.96 19.21 100.70 14.08 C 100.88 10.80 97.67 9.45 95.46 7.85 M 89.48 40.35 C 90.49 41.87 90.91 43.68 91.79 45.26 C 94.85 47.02 99.36 43.65 97.86 40.08 C 96.70 40.19 95.56 40.41 94.43 40.65 C 94.07 40.29 93.35 39.56 92.99 39.19 C 91.81 39.56 90.65 39.95 89.48 40.35 Z" />
<path fill="#477367" opacity="1.00" d=" M 102.79 9.57 C 107.24 10.54 109.17 17.04 105.92 20.39 C 104.87 19.28 103.78 18.19 102.91 16.93 C 102.24 14.53 102.68 12.01 102.79 9.57 Z" />
<path fill="#9fcf76" opacity="1.00" d=" M 45.95 19.23 C 45.28 16.69 45.65 13.28 47.95 11.69 C 51.61 11.90 52.24 16.44 53.88 18.96 C 54.29 18.57 55.11 17.77 55.52 17.38 L 56.29 18.00 C 56.18 18.45 55.95 19.37 55.84 19.83 C 53.37 20.00 52.38 22.44 50.25 23.24 C 49.48 21.23 48.03 19.79 45.95 19.23 Z" />
<path fill="#4e7f6a" opacity="1.00" d=" M 57.47 16.61 C 57.49 14.93 57.85 13.30 58.59 11.79 C 58.83 17.14 61.33 22.33 66.06 25.06 C 66.03 25.74 65.95 27.11 65.92 27.79 C 64.72 27.50 63.52 27.26 62.32 27.01 C 63.02 28.72 63.70 30.44 64.26 32.21 C 64.10 32.46 63.78 32.98 63.62 33.24 C 63.40 32.74 62.96 31.74 62.74 31.23 C 61.56 32.11 60.38 32.98 59.20 33.87 C 59.69 31.66 60.13 29.41 59.96 27.13 C 59.29 27.74 58.67 28.40 58.10 29.11 C 58.11 28.54 58.14 27.41 58.15 26.85 C 58.34 26.62 58.71 26.17 58.90 25.94 C 59.35 25.97 60.26 26.03 60.71 26.06 C 60.52 25.74 60.15 25.10 59.97 24.78 C 57.68 23.96 55.56 22.62 55.84 19.83 C 55.95 19.37 56.18 18.45 56.29 18.00 L 55.52 17.38 L 55.27 17.18 C 55.82 17.04 56.92 16.75 57.47 16.61 Z" />
<path fill="#82b874" opacity="1.00" d=" M 42.75 21.02 C 43.51 19.93 44.72 19.54 45.95 19.23 C 48.03 19.79 49.48 21.23 50.25 23.24 C 51.76 26.07 55.54 25.68 58.15 26.85 C 58.14 27.41 58.11 28.54 58.10 29.11 C 56.17 32.14 52.62 34.30 49.00 34.30 C 46.44 33.33 44.95 30.46 46.35 27.92 C 46.92 26.20 46.81 24.39 46.61 22.63 C 45.41 21.89 44.12 21.33 42.75 21.02 Z" />
<path fill="#5b9b60" opacity="1.00" d=" M 75.89 23.99 C 78.65 23.48 80.18 20.88 81.92 18.94 C 82.24 20.27 82.57 21.60 82.97 22.91 C 83.41 23.86 83.89 24.79 84.40 25.71 C 83.07 27.18 81.79 28.71 80.99 30.54 C 80.14 31.19 79.47 31.96 78.97 32.87 C 78.54 33.81 78.26 34.80 78.14 35.84 C 77.81 36.14 77.14 36.74 76.81 37.04 C 75.22 33.77 78.92 30.51 77.08 27.48 C 73.78 28.63 70.98 31.06 69.36 34.15 C 68.78 35.46 67.71 36.39 66.58 37.22 C 65.96 37.34 64.72 37.59 64.10 37.72 C 63.02 37.52 61.93 37.35 60.84 37.21 C 61.94 36.01 62.88 34.69 63.62 33.24 C 63.78 32.98 64.10 32.46 64.26 32.21 C 65.79 31.27 67.17 30.10 67.80 28.37 C 67.33 28.23 66.39 27.94 65.92 27.79 C 65.95 27.11 66.03 25.74 66.06 25.06 C 69.38 26.08 72.63 24.48 75.89 23.99 M 80.10 28.00 C 82.49 27.14 82.61 24.09 82.00 22.02 C 79.13 22.66 78.98 25.78 80.10 28.00 Z" />
<path fill="#649e71" opacity="1.00" d=" M 50.25 23.24 C 52.38 22.44 53.37 20.00 55.84 19.83 C 55.56 22.62 57.68 23.96 59.97 24.78 C 59.70 25.07 59.17 25.65 58.90 25.94 C 58.71 26.17 58.34 26.62 58.15 26.85 C 55.54 25.68 51.76 26.07 50.25 23.24 Z" />
<path fill="#37776a" opacity="1.00" d=" M 41.49 21.28 C 41.80 21.22 42.44 21.09 42.75 21.02 C 44.12 21.33 45.41 21.89 46.61 22.63 C 46.81 24.39 46.92 26.20 46.35 27.92 L 45.79 27.13 C 45.36 27.33 44.51 27.74 44.08 27.94 C 42.79 28.45 42.74 30.03 42.20 31.10 C 39.59 31.48 36.48 31.28 36.21 28.00 C 37.13 25.02 41.00 24.31 41.49 21.28 Z" />
<path fill="#2f635d" opacity="1.00" d=" M 80.10 28.00 C 78.98 25.78 79.13 22.66 82.00 22.02 C 82.61 24.09 82.49 27.14 80.10 28.00 Z" />
<path fill="#94c775" opacity="1.00" d=" M 82.97 22.91 C 87.05 24.95 89.00 29.36 88.94 33.74 C 87.57 35.57 86.02 37.28 84.44 38.94 C 82.64 38.53 80.91 39.50 79.12 39.32 C 79.22 38.62 79.44 37.23 79.55 36.54 C 79.20 36.36 78.49 36.01 78.14 35.84 C 78.26 34.80 78.54 33.81 78.97 32.87 C 80.69 33.91 82.69 32.04 80.99 30.54 C 81.79 28.71 83.07 27.18 84.40 25.71 C 83.89 24.79 83.41 23.86 82.97 22.91 Z" />
<path fill="#9ecc77" opacity="1.00" d=" M 58.90 25.94 C 59.17 25.65 59.70 25.07 59.97 24.78 C 60.15 25.10 60.52 25.74 60.71 26.06 C 60.26 26.03 59.35 25.97 58.90 25.94 Z" />
<path fill="#184e61" opacity="1.00" d=" M 44.08 27.94 C 44.51 27.74 45.36 27.33 45.79 27.13 L 46.35 27.92 C 44.95 30.46 46.44 33.33 49.00 34.30 C 49.38 34.53 50.16 34.99 50.54 35.21 C 49.48 36.41 48.45 37.62 47.47 38.88 C 45.39 38.67 43.45 37.15 43.16 35.00 C 43.06 32.61 43.65 30.27 44.08 27.94 Z" />
<path fill="#3b7c6d" opacity="1.00" d=" M 58.10 29.11 C 58.67 28.40 59.29 27.74 59.96 27.13 C 60.13 29.41 59.69 31.66 59.20 33.87 C 60.38 32.98 61.56 32.11 62.74 31.23 C 62.96 31.74 63.40 32.74 63.62 33.24 C 62.88 34.69 61.94 36.01 60.84 37.21 C 59.97 37.35 59.10 37.50 58.23 37.66 C 54.62 37.38 51.05 40.04 47.47 38.88 C 48.45 37.62 49.48 36.41 50.54 35.21 C 50.16 34.99 49.38 34.53 49.00 34.30 C 52.62 34.30 56.17 32.14 58.10 29.11 Z" />
<path fill="#73b163" opacity="1.00" d=" M 62.32 27.01 C 63.52 27.26 64.72 27.50 65.92 27.79 C 66.39 27.94 67.33 28.23 67.80 28.37 C 67.17 30.10 65.79 31.27 64.26 32.21 C 63.70 30.44 63.02 28.72 62.32 27.01 Z" />
<path fill="#13485d" opacity="1.00" d=" M 39.47 40.61 C 38.24 36.47 35.76 32.47 36.21 28.00 C 36.48 31.28 39.59 31.48 42.20 31.10 C 42.00 34.16 41.88 38.22 45.37 39.50 C 48.01 40.30 52.24 42.07 51.57 45.43 C 48.99 46.18 47.04 47.99 45.26 49.90 C 44.67 49.04 44.08 48.18 43.49 47.32 C 44.41 46.19 45.33 45.05 46.25 43.91 C 44.82 41.70 42.20 39.78 39.47 40.61 Z" />
<path fill="#95c776" opacity="1.00" d=" M 69.36 34.15 C 70.98 31.06 73.78 28.63 77.08 27.48 C 78.92 30.51 75.22 33.77 76.81 37.04 C 76.29 37.55 75.78 38.06 75.28 38.57 C 72.61 41.41 68.44 45.12 64.47 42.22 C 64.16 40.25 65.11 38.47 66.58 37.22 C 67.71 36.39 68.78 35.46 69.36 34.15 Z" />
<path fill="#39745c" opacity="1.00" d=" M 104.29 28.30 C 106.92 27.45 111.98 29.11 110.34 32.69 C 107.67 31.69 105.73 35.22 103.11 33.90 C 101.58 32.62 100.07 31.27 98.24 30.42 C 99.62 28.75 102.51 29.69 104.29 28.30 Z" />
<path fill="#d1e195" opacity="1.00" d=" M 78.97 32.87 C 79.47 31.96 80.14 31.19 80.99 30.54 C 82.69 32.04 80.69 33.91 78.97 32.87 Z" />
<path fill="#2c6f57" opacity="1.00" d=" M 78.14 35.84 C 78.49 36.01 79.20 36.36 79.55 36.54 C 79.44 37.23 79.22 38.62 79.12 39.32 C 80.91 39.50 82.64 38.53 84.44 38.94 C 85.56 39.20 86.68 39.47 87.81 39.72 C 88.65 42.97 89.28 46.50 92.15 48.63 C 86.59 49.43 82.33 56.00 76.46 54.20 C 77.95 49.97 83.15 49.87 85.88 46.79 C 84.79 45.67 83.52 44.76 82.07 44.16 C 80.04 45.33 77.93 47.26 75.43 46.30 C 78.75 44.70 78.59 40.08 75.28 38.57 C 75.78 38.06 76.29 37.55 76.81 37.04 C 77.14 36.74 77.81 36.14 78.14 35.84 Z" />
<path fill="#1a535e" opacity="1.00" d=" M 58.23 37.66 C 59.10 37.50 59.97 37.35 60.84 37.21 C 61.93 37.35 63.02 37.52 64.10 37.72 L 64.54 39.22 C 63.94 39.24 62.72 39.28 62.11 39.29 C 62.42 39.67 63.05 40.42 63.36 40.79 C 63.38 42.63 62.66 44.68 63.86 46.30 C 65.45 47.67 62.71 50.28 61.72 48.26 C 59.89 47.09 60.91 43.37 58.33 43.44 C 56.72 44.39 55.03 45.12 53.13 45.11 C 53.71 43.45 53.93 41.70 53.99 39.95 C 56.48 37.68 58.60 42.22 60.93 39.80 C 60.02 39.22 58.96 38.97 57.76 39.06 L 58.23 37.66 Z" />
<path fill="#fff7ac" opacity="1.00" d=" M 2.58 38.41 C 4.53 38.69 5.77 40.58 7.14 41.84 C 6.71 42.04 5.85 42.44 5.42 42.64 C 4.48 41.23 3.13 40.05 2.58 38.41 Z" />
<path fill="#0f425e" opacity="1.00" d=" M 64.47 42.22 C 68.44 45.12 72.61 41.41 75.28 38.57 C 78.59 40.08 78.75 44.70 75.43 46.30 C 72.83 48.24 73.25 53.11 76.46 54.20 C 82.33 56.00 86.59 49.43 92.15 48.63 C 92.60 48.92 93.51 49.50 93.96 49.79 C 94.46 49.70 95.44 49.52 95.93 49.43 C 95.12 50.69 94.33 51.95 93.58 53.23 C 96.27 52.91 99.06 51.87 100.94 49.86 C 101.61 47.87 101.22 45.71 101.71 43.69 C 102.36 42.59 103.76 42.49 104.84 42.05 C 104.23 44.61 104.88 47.38 103.73 49.80 C 101.54 54.86 95.16 57.48 90.01 55.67 C 89.93 56.26 89.78 57.44 89.70 58.03 C 87.21 58.78 85.03 60.43 82.35 60.36 C 79.88 62.35 76.31 63.71 73.42 61.70 C 70.50 60.41 71.96 56.72 70.58 54.52 C 69.22 53.76 67.76 53.18 66.33 52.55 C 65.96 50.62 67.14 48.92 67.73 47.17 C 65.60 46.23 63.09 44.81 64.02 42.01 L 64.47 42.22 Z" />
<path fill="#307853" opacity="1.00" d=" M 89.48 40.35 C 90.65 39.95 91.81 39.56 92.99 39.19 C 93.35 39.56 94.07 40.29 94.43 40.65 C 95.56 40.41 96.70 40.19 97.86 40.08 C 99.36 43.65 94.85 47.02 91.79 45.26 C 90.91 43.68 90.49 41.87 89.48 40.35 Z" />
<path fill="#20655e" opacity="1.00" d=" M 39.47 40.61 C 42.20 39.78 44.82 41.70 46.25 43.91 C 45.33 45.05 44.41 46.19 43.49 47.32 C 41.90 45.27 39.44 43.81 37.92 42.06 C 38.31 41.70 39.08 40.97 39.47 40.61 Z" />
<path fill="#53271d" opacity="1.00" d=" M 50.37 40.22 C 51.46 39.21 53.67 40.63 52.75 42.02 C 51.75 43.08 49.57 41.44 50.37 40.22 Z" />
<path fill="#bd8c7a" opacity="1.00" d=" M 7.14 41.84 C 11.49 46.83 9.03 53.82 8.92 59.71 C 7.37 55.96 8.42 51.74 7.09 47.93 C 6.53 46.17 5.82 44.45 5.42 42.64 C 5.85 42.44 6.71 42.04 7.14 41.84 Z" />
<path fill="#be8c7a" opacity="1.00" d=" M 31.26 44.19 C 33.72 43.65 36.33 43.50 38.78 44.13 C 39.89 45.24 40.80 46.51 41.81 47.70 C 41.26 51.54 41.74 55.50 40.35 59.22 C 37.52 60.98 34.38 62.10 31.22 63.10 C 31.01 61.40 30.82 59.70 30.64 57.99 C 30.81 54.41 30.60 50.83 30.58 47.25 C 30.75 46.49 31.09 44.95 31.26 44.19 M 32.17 45.23 C 31.57 46.83 32.12 47.30 33.84 46.63 C 34.46 45.06 33.91 44.59 32.17 45.23 Z" />
<path fill="#165763" opacity="1.00" d=" M 75.43 46.30 C 77.93 47.26 80.04 45.33 82.07 44.16 C 83.52 44.76 84.79 45.67 85.88 46.79 C 83.15 49.87 77.95 49.97 76.46 54.20 C 73.25 53.11 72.83 48.24 75.43 46.30 Z" />
<path fill="#edf09f" opacity="1.00" d=" M 32.17 45.23 C 33.91 44.59 34.46 45.06 33.84 46.63 C 32.12 47.30 31.57 46.83 32.17 45.23 Z" />
<path fill="#6b3f34" opacity="1.00" d=" M 56.55 51.70 C 57.02 49.52 55.66 44.43 59.16 44.75 C 58.21 46.92 59.30 51.11 56.55 51.70 Z" />
<path fill="#564e68" opacity="1.00" d=" M 45.95 54.08 C 45.95 48.78 51.58 46.04 56.25 46.39 C 56.19 46.96 56.05 48.11 55.99 48.69 C 52.64 49.06 50.17 51.40 48.46 54.14 C 47.83 54.12 46.57 54.09 45.95 54.08 Z" />
<path fill="#7a4235" opacity="1.00" d=" M 7.09 47.93 C 8.42 51.74 7.37 55.96 8.92 59.71 C 9.03 61.07 8.99 62.45 9.27 63.79 C 10.81 66.49 14.70 66.54 16.15 69.30 C 15.72 69.85 14.86 70.95 14.43 71.50 C 14.58 73.02 14.81 74.53 15.27 75.98 C 14.60 75.77 13.25 75.36 12.57 75.15 C 12.10 73.15 11.77 71.12 11.86 69.06 C 10.16 68.24 8.40 67.58 6.60 67.03 C 6.39 60.64 8.64 54.31 7.09 47.93 Z" />
<path fill="#996152" opacity="1.00" d=" M 41.81 47.70 C 45.23 50.06 44.88 54.05 44.36 57.68 C 43.01 58.16 41.66 58.63 40.35 59.22 C 41.74 55.50 41.26 51.54 41.81 47.70 Z" />
<path fill="#5f362c" opacity="1.00" d=" M 65.34 48.31 C 66.47 48.87 65.18 53.39 63.26 52.01 C 62.53 50.48 64.73 49.52 65.34 48.31 Z" />
<path fill="#c3b2e7" opacity="1.00" d=" M 48.46 54.14 C 50.17 51.40 52.64 49.06 55.99 48.69 C 56.45 52.20 53.65 54.38 50.83 55.74 L 50.72 55.66 C 50.16 55.28 49.03 54.52 48.46 54.14 Z" />
<path fill="#473d60" opacity="1.00" d=" M 59.38 48.95 C 61.34 47.84 62.33 54.01 59.58 52.63 C 58.89 51.47 58.83 50.24 59.38 48.95 Z" />
<path fill="#be8c7a" opacity="1.00" d=" M 57.39 53.03 C 58.71 53.54 59.61 54.67 60.57 55.64 C 60.58 57.05 60.60 58.47 60.64 59.88 C 62.52 59.38 62.48 57.11 63.08 55.65 C 64.36 56.17 64.88 57.31 65.14 58.58 C 63.56 61.32 62.45 64.29 60.97 67.07 C 59.35 68.94 57.10 70.13 54.82 71.01 C 51.53 71.40 48.20 71.62 44.89 71.28 C 42.97 70.22 40.26 68.74 41.28 66.09 C 43.69 65.89 45.74 63.93 48.22 65.05 C 48.72 62.63 46.35 62.91 44.70 62.63 C 46.77 61.80 49.01 59.25 46.00 57.82 C 44.73 54.91 48.77 54.44 50.02 56.62 L 50.72 55.66 L 50.83 55.74 L 50.62 56.81 C 52.12 56.32 53.58 54.48 55.24 55.45 C 54.94 55.65 54.32 56.06 54.02 56.26 C 52.42 57.26 50.64 57.77 48.76 57.57 C 48.51 58.96 48.06 60.29 47.41 61.54 C 48.25 62.16 49.17 62.60 50.17 62.89 C 48.75 65.15 52.15 65.14 50.91 62.86 C 53.58 62.53 56.65 62.61 58.69 60.55 C 60.73 59.19 60.57 54.49 57.33 55.39 C 57.35 54.80 57.37 53.62 57.39 53.03 Z" />
<path fill="#8f5e50" opacity="1.00" d=" M 63.55 53.41 C 66.06 52.83 67.95 55.06 70.04 56.05 C 69.95 58.46 70.30 60.95 72.22 62.62 C 70.83 63.45 69.29 63.18 67.82 62.79 C 67.89 60.75 67.98 58.70 68.05 56.66 C 67.06 57.28 66.08 57.89 65.14 58.58 C 64.88 57.31 64.36 56.17 63.08 55.65 C 63.20 55.09 63.43 53.97 63.55 53.41 Z" />
<path fill="#2f2253" opacity="1.00" d=" M 54.02 56.26 C 54.32 56.06 54.94 55.65 55.24 55.45 C 56.46 56.21 57.65 57.01 58.85 57.81 C 57.75 61.64 52.97 60.66 49.92 61.08 L 50.00 60.04 C 50.48 59.72 51.43 59.09 51.91 58.78 C 52.67 57.99 53.37 57.15 54.02 56.26 Z" />
<path fill="#652e24" opacity="1.00" d=" M 65.14 58.58 C 66.08 57.89 67.06 57.28 68.05 56.66 C 67.98 58.70 67.89 60.75 67.82 62.79 L 67.78 64.07 L 67.73 64.73 C 67.18 66.61 68.01 68.30 68.72 69.98 C 68.22 71.34 67.05 70.82 66.02 70.50 C 66.04 68.94 66.01 67.38 65.92 65.82 C 64.11 66.17 65.06 68.46 64.69 69.72 C 62.00 73.01 57.87 74.67 55.19 77.91 C 55.75 79.67 58.01 81.69 56.53 83.50 C 55.30 83.83 54.06 84.08 52.80 84.26 C 53.40 83.36 54.01 82.45 54.62 81.55 C 53.16 81.20 52.67 80.34 53.13 78.95 C 53.42 78.09 53.67 77.22 53.87 76.33 C 54.13 74.55 54.42 72.77 54.82 71.01 C 57.10 70.13 59.35 68.94 60.97 67.07 C 62.45 64.29 63.56 61.32 65.14 58.58 Z" />
<path fill="#703a2e" opacity="1.00" d=" M 40.35 59.22 C 41.66 58.63 43.01 58.16 44.36 57.68 C 44.79 58.05 45.64 58.79 46.07 59.16 C 43.77 61.88 40.79 64.03 39.04 67.24 C 36.64 67.06 34.26 66.68 31.90 66.23 C 31.58 65.21 31.35 64.16 31.22 63.10 C 34.38 62.10 37.52 60.98 40.35 59.22 Z" />
<path fill="#5a5271" opacity="1.00" d=" M 50.07 59.25 C 50.53 59.13 51.45 58.90 51.91 58.78 C 51.43 59.09 50.48 59.72 50.00 60.04 L 50.07 59.25 Z" />
<path fill="#6f392d" opacity="1.00" d=" M 79.77 63.96 C 81.07 62.84 82.47 61.86 83.94 61.00 C 85.05 64.95 86.42 68.95 86.33 73.10 C 84.32 76.47 81.43 79.25 78.83 82.17 L 77.88 81.81 C 78.67 75.88 79.93 69.97 79.77 63.96 Z" />
<path fill="#ebe99e" opacity="1.00" d=" M 41.28 66.09 C 42.26 64.78 43.37 63.57 44.70 62.63 C 46.35 62.91 48.72 62.63 48.22 65.05 C 45.74 63.93 43.69 65.89 41.28 66.09 Z" />
<path fill="#d5c489" opacity="1.00" d=" M 50.17 62.89 L 50.91 62.86 C 52.15 65.14 48.75 65.15 50.17 62.89 Z" />
<path fill="#be8c7a" opacity="1.00" d=" M 67.82 62.79 C 69.29 63.18 70.83 63.45 72.22 62.62 C 73.94 63.16 75.16 64.35 75.88 65.98 C 75.70 67.49 75.59 69.01 75.54 70.53 C 71.94 70.34 68.44 73.28 64.95 71.32 C 65.22 71.12 65.75 70.70 66.02 70.50 C 67.05 70.82 68.22 71.34 68.72 69.98 C 68.01 68.30 67.18 66.61 67.73 64.73 L 68.48 64.77 L 68.52 64.12 L 67.78 64.07 L 67.82 62.79 Z" />
<path fill="#f2f1a2" opacity="1.00" d=" M 67.78 64.07 L 68.52 64.12 L 68.48 64.77 L 67.73 64.73 L 67.78 64.07 Z" />
<path fill="#996152" opacity="1.00" d=" M 77.44 64.13 C 77.75 64.12 78.38 64.10 78.70 64.09 C 78.49 69.89 78.38 75.77 76.95 81.44 L 75.57 80.89 C 76.42 75.35 77.21 69.74 77.44 64.13 Z" />
<path fill="#be8c7a" opacity="1.00" d=" M 14.43 71.50 C 14.86 70.95 15.72 69.85 16.15 69.30 C 17.90 74.31 19.93 81.50 26.20 82.06 C 23.29 85.99 19.18 81.41 17.06 78.95 C 16.49 77.94 15.88 76.96 15.27 75.98 C 14.81 74.53 14.58 73.02 14.43 71.50 Z" />
<path fill="#774135" opacity="1.00" d=" M 40.11 70.17 C 41.84 71.14 43.55 72.13 45.25 73.15 C 43.35 76.92 40.49 80.57 36.09 81.36 C 35.83 82.38 35.58 83.39 35.33 84.41 C 34.55 84.51 33.00 84.71 32.23 84.82 C 32.27 84.49 32.33 83.84 32.37 83.51 C 35.26 82.69 35.49 79.97 34.56 77.55 C 37.37 75.95 39.20 73.22 40.11 70.17 Z" />
<path fill="#7c463a" opacity="1.00" d=" M 44.89 71.28 C 48.20 71.62 51.53 71.40 54.82 71.01 C 54.42 72.77 54.13 74.55 53.87 76.33 C 51.14 76.34 48.40 76.01 45.88 74.91 C 46.09 74.47 46.51 73.58 46.72 73.13 C 46.26 72.67 45.35 71.74 44.89 71.28 Z" />
<path fill="#662f25" opacity="1.00" d=" M 64.95 71.32 C 68.44 73.28 71.94 70.34 75.54 70.53 C 75.54 74.07 75.08 77.57 74.42 81.04 C 74.36 82.40 73.47 84.21 74.72 85.27 C 74.99 83.81 75.24 82.34 75.57 80.89 L 76.95 81.44 C 77.18 81.53 77.65 81.71 77.88 81.81 L 78.83 82.17 C 78.18 82.87 77.56 83.59 76.99 84.36 C 76.53 85.11 76.07 85.86 75.62 86.61 C 73.72 86.00 72.63 88.24 71.17 89.07 C 67.96 84.16 64.56 79.31 61.86 74.10 C 62.86 73.14 63.87 72.19 64.95 71.32 Z" />
<path fill="#be8c7a" opacity="1.00" d=" M 40.81 84.01 C 41.07 80.32 43.91 77.78 45.88 74.91 C 48.40 76.01 51.14 76.34 53.87 76.33 C 53.67 77.22 53.42 78.09 53.13 78.95 C 50.12 79.31 47.19 80.84 45.49 83.39 C 45.02 87.34 47.65 90.87 47.93 94.77 C 44.49 92.07 41.33 88.53 40.81 84.01 Z" />
<path fill="#aa7767" opacity="1.00" d=" M 28.73 80.97 C 30.70 79.87 32.62 78.70 34.56 77.55 C 35.49 79.97 35.26 82.69 32.37 83.51 L 32.12 83.28 C 31.01 82.48 29.87 81.73 28.73 80.97 Z" />
<path fill="#743e32" opacity="1.00" d=" M 17.06 78.95 C 19.18 81.41 23.29 85.99 26.20 82.06 L 26.89 81.76 C 26.77 83.76 26.13 85.86 26.91 87.81 C 24.89 88.69 22.34 89.00 20.47 87.58 C 18.01 85.44 16.82 82.18 17.06 78.95 Z" />
<path fill="#895246" opacity="1.00" d=" M 45.49 83.39 C 47.19 80.84 50.12 79.31 53.13 78.95 C 52.67 80.34 53.16 81.20 54.62 81.55 C 54.01 82.45 53.40 83.36 52.80 84.26 C 51.21 84.51 49.55 84.73 48.32 85.89 C 48.26 89.76 49.87 93.30 51.40 96.76 C 50.05 96.48 48.97 95.60 47.93 94.77 C 47.65 90.87 45.02 87.34 45.49 83.39 Z" />
<path fill="#8a5648" opacity="1.00" d=" M 26.89 81.76 C 27.35 81.56 28.27 81.17 28.73 80.97 C 29.87 81.73 31.01 82.48 32.12 83.28 C 32.05 83.52 31.91 83.99 31.83 84.23 C 29.83 84.86 28.53 86.58 26.91 87.81 C 26.13 85.86 26.77 83.76 26.89 81.76 Z" />
<path fill="#be8c7a" opacity="1.00" d=" M 75.62 86.61 C 76.07 85.86 76.53 85.11 76.99 84.36 C 77.50 85.90 77.69 87.47 77.57 89.09 C 77.04 89.43 75.99 90.12 75.46 90.46 C 75.12 91.11 74.44 92.42 74.10 93.08 C 73.87 92.52 73.40 91.40 73.17 90.84 C 73.83 89.35 74.76 87.99 75.62 86.61 Z" />
<path fill="#44221b" opacity="1.00" d=" M 66.96 86.56 C 67.38 86.76 68.22 87.14 68.64 87.33 C 69.44 90.12 69.02 93.25 68.68 96.13 C 66.36 93.72 67.50 89.65 66.96 86.56 Z" />
<path fill="#2d211c" opacity="1.00" d=" M 74.10 93.08 C 74.44 92.42 75.12 91.11 75.46 90.46 L 75.97 91.81 C 75.94 92.53 75.89 93.96 75.86 94.68 C 74.95 99.15 74.96 103.73 74.89 108.27 L 74.38 109.07 C 74.46 103.73 73.44 98.41 74.10 93.08 Z" />
<path fill="#020201" opacity="0.56" d=" M 74.89 108.27 C 74.96 103.73 74.95 99.15 75.86 94.68 C 75.89 99.17 76.54 104.04 74.89 108.27 Z" />
</svg>
