<?xml version="1.0" encoding="UTF-8" ?>
<!DOCTYPE svg PUBLIC "-//W3C//DTD SVG 1.1//EN" "http://www.w3.org/Graphics/SVG/1.1/DTD/svg11.dtd">
<svg width="111pt" height="111pt" viewBox="0 0 111 111" version="1.1" xmlns="http://www.w3.org/2000/svg">
<path fill="#000000" opacity="1.00" d=" M 38.84 15.71 C 40.92 8.33 47.52 2.79 54.88 1.11 C 60.40 -0.55 66.15 0.87 71.70 1.53 C 75.89 3.14 79.82 5.83 82.60 9.38 C 85.38 12.99 84.78 17.98 83.06 21.92 C 80.03 28.93 75.17 34.98 70.02 40.55 C 74.62 39.45 80.66 37.64 84.40 41.58 C 88.75 46.66 90.99 53.31 91.64 59.90 C 92.22 67.26 90.22 75.52 84.12 80.21 C 78.99 84.06 72.75 86.12 66.53 87.42 C 63.06 88.25 59.55 86.81 57.06 84.39 C 57.29 88.30 56.30 92.12 55.11 95.81 C 59.34 94.12 64.75 91.71 68.91 94.80 C 65.99 99.82 59.07 101.55 53.68 100.25 C 52.81 102.39 51.86 104.50 50.90 106.60 C 59.58 105.73 68.38 104.46 77.09 105.40 C 79.28 107.50 75.76 108.88 74.03 108.89 C 62.80 110.32 51.39 111.51 40.06 110.53 C 37.59 110.33 38.91 107.73 40.67 107.82 C 43.26 107.40 45.89 107.21 48.45 106.65 C 50.92 99.93 54.33 93.34 54.96 86.11 C 53.41 89.26 52.36 93.12 48.93 94.78 C 43.68 97.43 37.52 96.87 31.85 96.41 C 26.80 95.78 20.62 93.50 19.52 87.87 C 18.28 82.87 21.52 78.23 25.54 75.61 C 21.59 75.71 17.62 74.12 15.20 70.94 C 11.00 65.61 10.57 58.37 11.44 51.89 C 12.70 43.97 16.93 36.17 23.87 31.88 C 27.95 29.25 33.56 29.71 37.18 32.94 C 36.01 27.16 37.31 21.29 38.84 15.71 M 42.33 13.35 C 38.46 22.17 37.96 32.65 42.21 41.45 C 42.74 41.22 43.80 40.77 44.33 40.55 C 46.41 40.80 48.47 41.22 50.54 41.59 C 53.77 42.61 56.73 44.29 59.41 46.35 C 65.69 41.33 71.31 35.49 75.82 28.82 C 78.46 24.93 81.13 20.76 81.66 15.97 C 82.01 12.55 79.65 9.45 76.65 8.07 C 73.89 6.38 71.17 4.48 68.01 3.62 C 58.67 1.13 46.98 4.28 42.33 13.35 M 17.10 43.18 C 13.16 50.73 12.25 60.29 16.28 67.99 C 19.17 72.12 24.48 75.14 29.58 73.59 C 29.25 74.22 28.61 75.47 28.28 76.10 C 23.12 78.19 18.91 85.11 23.06 90.11 C 27.77 94.56 34.87 94.28 40.92 94.40 C 44.59 94.09 49.05 93.40 50.83 89.70 C 52.65 85.86 53.71 81.50 53.19 77.25 C 50.48 78.18 47.77 79.13 45.02 79.94 C 40.50 80.88 35.68 79.64 32.59 76.11 C 32.93 75.86 33.62 75.34 33.96 75.08 C 34.23 75.37 34.76 75.94 35.02 76.22 C 37.43 78.40 40.79 79.22 43.96 78.73 C 50.93 77.77 57.37 73.97 61.86 68.60 C 64.97 63.98 64.56 57.98 62.22 53.13 C 61.47 52.12 60.74 51.08 59.98 50.07 C 56.08 45.94 50.61 42.87 44.85 42.72 C 43.41 42.46 42.31 43.47 41.27 44.28 C 33.86 50.38 30.34 60.61 31.86 70.01 C 31.52 70.49 30.86 71.43 30.52 71.90 C 29.69 68.57 29.67 65.13 29.87 61.72 C 30.92 54.22 34.74 47.07 40.87 42.53 C 39.02 37.53 34.72 32.18 28.85 32.76 C 23.44 33.91 19.66 38.58 17.10 43.18 M 69.57 43.62 C 66.45 44.49 64.46 47.33 61.42 48.35 C 66.52 54.36 67.78 64.09 62.21 70.24 C 59.84 72.53 57.23 74.58 54.38 76.25 C 56.36 80.40 59.63 86.06 65.08 85.03 C 71.58 83.81 78.01 81.45 83.35 77.49 C 86.58 74.18 88.61 69.74 88.81 65.11 C 89.48 57.14 87.27 48.42 81.53 42.66 C 77.72 41.36 73.33 42.36 69.57 43.62 M 54.24 98.76 C 58.70 99.10 63.85 98.47 67.07 95.03 C 62.61 94.69 57.54 95.51 54.24 98.76 Z" />
<path fill="#75a5fa" opacity="1.00" d=" M 42.33 13.35 C 46.98 4.28 58.67 1.13 68.01 3.62 C 71.17 4.48 73.89 6.38 76.65 8.07 C 72.91 21.27 62.93 31.18 52.99 40.04 C 52.22 40.63 51.40 41.14 50.54 41.59 C 48.47 41.22 46.41 40.80 44.33 40.55 C 43.80 40.77 42.74 41.22 42.21 41.45 C 37.96 32.65 38.46 22.17 42.33 13.35 Z" />
<path fill="#6057a9" opacity="1.00" d=" M 76.65 8.07 C 79.65 9.45 82.01 12.55 81.66 15.97 C 81.13 20.76 78.46 24.93 75.82 28.82 C 71.31 35.49 65.69 41.33 59.41 46.35 C 56.73 44.29 53.77 42.61 50.54 41.59 C 51.40 41.14 52.22 40.63 52.99 40.04 C 62.93 31.18 72.91 21.27 76.65 8.07 Z" />
<path fill="#75a6fb" opacity="1.00" d=" M 17.10 43.18 C 19.66 38.58 23.44 33.91 28.85 32.76 C 34.72 32.18 39.02 37.53 40.87 42.53 C 34.74 47.07 30.92 54.22 29.87 61.72 C 29.57 63.41 29.27 65.10 29.00 66.80 C 24.79 67.51 20.53 67.78 16.28 67.99 C 12.25 60.29 13.16 50.73 17.10 43.18 Z" />
<path fill="#74a1f6" opacity="1.00" d=" M 69.57 43.62 C 73.33 42.36 77.72 41.36 81.53 42.66 C 87.27 48.42 89.48 57.14 88.81 65.11 C 88.61 69.74 86.58 74.18 83.35 77.49 C 76.21 75.37 69.16 72.95 62.21 70.24 C 67.78 64.09 66.52 54.36 61.42 48.35 C 64.46 47.33 66.45 44.49 69.57 43.62 Z" />
<path fill="#ffe05c" opacity="1.00" d=" M 41.27 44.28 C 42.31 43.47 43.41 42.46 44.85 42.72 C 50.61 42.87 56.08 45.94 59.98 50.07 C 57.68 51.71 55.73 53.75 54.22 56.14 C 55.03 56.49 56.65 57.20 57.45 57.56 C 56.51 58.83 55.66 60.17 54.77 61.48 C 49.90 68.21 43.41 74.41 35.02 76.22 C 34.76 75.94 34.23 75.37 33.96 75.08 C 35.36 73.52 37.40 69.63 34.10 69.08 C 33.54 69.31 32.42 69.78 31.86 70.01 C 30.34 60.61 33.86 50.38 41.27 44.28 M 44.69 53.68 C 42.92 55.00 43.27 57.91 45.24 58.87 C 48.25 61.05 51.97 55.81 49.39 53.42 C 48.24 51.82 45.78 52.25 44.69 53.68 M 44.35 68.86 C 43.54 69.24 42.73 69.63 41.92 70.01 C 42.33 70.12 43.15 70.34 43.56 70.45 C 45.35 69.70 46.32 68.13 46.57 66.26 C 45.05 66.17 44.92 67.84 44.35 68.86 Z" />
<path fill="#ff3d83" opacity="1.00" d=" M 54.22 56.14 C 55.73 53.75 57.68 51.71 59.98 50.07 C 60.74 51.08 61.47 52.12 62.22 53.13 C 60.59 54.55 58.97 56.00 57.45 57.56 C 56.65 57.20 55.03 56.49 54.22 56.14 Z" />
<path fill="#000000" opacity="1.00" d=" M 44.69 53.68 C 45.78 52.25 48.24 51.82 49.39 53.42 C 51.97 55.81 48.25 61.05 45.24 58.87 C 43.27 57.91 42.92 55.00 44.69 53.68 M 44.94 53.95 C 42.51 55.31 46.32 58.91 47.45 56.24 C 48.66 55.00 46.21 52.56 44.94 53.95 Z" />
<path fill="#c8c6bf" opacity="1.00" d=" M 44.94 53.95 C 46.21 52.56 48.66 55.00 47.45 56.24 C 46.32 58.91 42.51 55.31 44.94 53.95 Z" />
<path fill="#cd754a" opacity="1.00" d=" M 57.45 57.56 C 58.97 56.00 60.59 54.55 62.22 53.13 C 64.56 57.98 64.97 63.98 61.86 68.60 C 61.63 67.17 61.41 65.74 61.22 64.31 C 59.28 64.07 57.33 63.82 55.39 63.58 C 55.24 63.05 54.93 62.00 54.77 61.48 C 55.66 60.17 56.51 58.83 57.45 57.56 Z" />
<path fill="#666dc0" opacity="1.00" d=" M 29.00 66.80 C 29.27 65.10 29.57 63.41 29.87 61.72 C 29.67 65.13 29.69 68.57 30.52 71.90 C 30.18 72.45 29.87 73.01 29.58 73.59 C 24.48 75.14 19.17 72.12 16.28 67.99 C 20.53 67.78 24.79 67.51 29.00 66.80 Z" />
<path fill="#c66648" opacity="1.00" d=" M 35.02 76.22 C 43.41 74.41 49.90 68.21 54.77 61.48 C 54.93 62.00 55.24 63.05 55.39 63.58 C 57.33 63.82 59.28 64.07 61.22 64.31 C 61.41 65.74 61.63 67.17 61.86 68.60 C 57.37 73.97 50.93 77.77 43.96 78.73 C 40.79 79.22 37.43 78.40 35.02 76.22 Z" />
<path fill="#000000" opacity="1.00" d=" M 44.35 68.86 C 44.92 67.84 45.05 66.17 46.57 66.26 C 46.32 68.13 45.35 69.70 43.56 70.45 C 43.15 70.34 42.33 70.12 41.92 70.01 C 42.73 69.63 43.54 69.24 44.35 68.86 Z" />
<path fill="#ff3e83" opacity="1.00" d=" M 31.86 70.01 C 32.42 69.78 33.54 69.31 34.10 69.08 C 37.40 69.63 35.36 73.52 33.96 75.08 C 33.62 75.34 32.93 75.86 32.59 76.11 C 32.23 76.33 31.49 76.76 31.13 76.98 C 30.42 76.76 28.99 76.32 28.28 76.10 C 28.61 75.47 29.25 74.22 29.58 73.59 C 29.87 73.01 30.18 72.45 30.52 71.90 C 30.86 71.43 31.52 70.49 31.86 70.01 Z" />
<path fill="#5e50a2" opacity="1.00" d=" M 54.38 76.25 C 57.23 74.58 59.84 72.53 62.21 70.24 C 69.16 72.95 76.21 75.37 83.35 77.49 C 78.01 81.45 71.58 83.81 65.08 85.03 C 59.63 86.06 56.36 80.40 54.38 76.25 Z" />
<path fill="#75a5fa" opacity="1.00" d=" M 23.06 90.11 C 18.91 85.11 23.12 78.19 28.28 76.10 C 28.99 76.32 30.42 76.76 31.13 76.98 C 31.49 76.76 32.23 76.33 32.59 76.11 C 35.68 79.64 40.50 80.88 45.02 79.94 C 44.20 84.90 42.70 89.71 40.92 94.40 C 34.87 94.28 27.77 94.56 23.06 90.11 Z" />
<path fill="#6363b6" opacity="1.00" d=" M 45.02 79.94 C 47.77 79.13 50.48 78.18 53.19 77.25 C 53.71 81.50 52.65 85.86 50.83 89.70 C 49.05 93.40 44.59 94.09 40.92 94.40 C 42.70 89.71 44.20 84.90 45.02 79.94 Z" />
<path fill="#a6b276" opacity="1.00" d=" M 54.24 98.76 C 57.54 95.51 62.61 94.69 67.07 95.03 C 63.85 98.47 58.70 99.10 54.24 98.76 Z" />
</svg>
