<?xml version="1.0" encoding="UTF-8" ?>
<!DOCTYPE svg PUBLIC "-//W3C//DTD SVG 1.1//EN" "http://www.w3.org/Graphics/SVG/1.1/DTD/svg11.dtd">
<svg width="111pt" height="111pt" viewBox="0 0 111 111" version="1.1" xmlns="http://www.w3.org/2000/svg">
<path fill="#000000" opacity="1.00" d=" M 79.89 0.00 L 85.60 0.00 C 77.33 4.25 68.32 7.40 60.95 13.16 C 62.80 14.29 64.98 14.35 67.08 14.50 L 66.97 14.54 C 63.77 16.21 60.30 14.64 56.98 14.46 C 51.45 14.08 45.44 13.92 40.61 17.09 C 39.32 15.38 37.85 13.80 36.20 12.43 C 36.14 14.84 36.15 17.24 36.18 19.64 L 35.38 20.06 C 35.41 20.49 35.47 21.33 35.51 21.75 C 34.13 21.08 32.77 20.40 31.39 19.74 C 32.80 23.05 34.67 26.13 36.84 28.98 C 36.24 29.40 35.03 30.24 34.43 30.66 C 34.85 32.22 35.24 33.79 35.61 35.36 C 33.72 35.58 31.82 35.76 29.92 35.90 C 31.79 37.01 33.66 38.12 35.54 39.20 C 35.49 39.87 35.37 41.21 35.31 41.88 C 38.74 42.50 41.97 43.80 45.23 44.96 C 48.13 45.96 51.32 44.19 54.14 45.22 L 54.26 45.65 C 53.05 45.83 51.83 46.00 50.62 46.15 C 47.38 46.46 44.11 46.27 40.88 46.68 C 38.68 47.59 36.69 48.91 34.60 50.04 C 35.33 51.15 36.05 52.27 36.78 53.38 C 37.28 53.06 38.28 52.42 38.78 52.10 C 37.65 53.57 36.54 55.05 35.41 56.52 C 33.01 59.75 29.98 62.47 27.71 65.80 C 25.59 68.95 25.00 72.84 25.27 76.57 C 25.54 82.45 28.19 87.83 31.29 92.71 C 39.44 88.95 47.84 85.54 55.17 80.27 C 59.01 77.85 62.11 74.39 66.12 72.23 C 68.67 72.68 70.99 73.92 73.36 74.91 C 73.01 72.56 72.66 70.20 72.37 67.84 C 73.55 69.62 74.56 71.51 75.33 73.51 C 75.33 74.52 75.33 76.54 75.32 77.55 C 73.51 77.08 71.70 76.62 69.91 76.08 C 69.06 75.46 68.21 74.83 67.36 74.21 C 66.50 74.98 65.64 75.76 64.76 76.52 C 61.49 79.34 57.95 81.84 54.31 84.16 C 46.86 88.59 38.92 92.22 30.66 94.84 C 26.31 90.76 24.06 85.10 22.40 79.51 C 15.63 90.08 9.35 101.01 1.71 111.00 L 0.00 111.00 L 0.00 107.50 C 5.27 100.53 10.72 93.63 14.89 85.92 C 17.05 81.77 20.86 78.26 20.90 73.27 C 17.66 77.87 13.13 81.28 9.20 85.24 C 6.27 88.19 3.10 90.88 0.00 93.65 L 0.00 90.57 C 4.15 86.54 8.00 82.21 12.42 78.47 C 17.16 74.40 20.42 69.03 23.94 63.96 C 25.67 60.05 25.86 55.23 29.19 52.16 C 30.78 52.22 32.34 52.55 33.90 52.83 C 33.35 51.78 32.80 50.72 32.26 49.66 C 34.12 48.37 36.01 47.13 37.92 45.91 C 29.66 45.01 21.49 43.38 13.45 41.31 C 10.70 40.67 9.20 38.05 7.47 36.07 C 16.20 37.16 24.62 39.90 33.34 41.11 C 30.49 39.01 27.56 37.01 24.70 34.92 C 27.66 34.72 30.60 34.36 33.55 33.98 C 33.12 33.06 32.68 32.13 32.25 31.21 C 32.86 30.39 33.48 29.56 34.09 28.74 C 31.30 24.88 29.52 20.43 28.41 15.82 C 30.33 16.58 32.24 17.34 34.17 18.08 C 34.71 15.03 35.26 11.97 35.87 8.93 C 37.69 10.55 39.39 12.30 41.36 13.75 C 43.93 13.28 46.29 11.91 48.94 11.83 C 52.04 11.69 55.13 12.16 58.20 12.48 C 64.96 7.55 72.48 3.83 79.89 0.00 M 10.86 38.17 C 12.09 39.17 13.35 40.31 15.05 40.28 C 19.29 40.86 23.28 42.86 27.62 42.74 C 30.80 43.91 34.22 44.17 37.59 44.03 C 35.25 42.66 32.61 42.02 29.97 41.56 L 29.58 41.76 C 23.31 40.74 17.17 38.98 10.86 38.17 M 30.99 55.07 C 30.24 56.70 29.53 58.35 28.94 60.04 C 30.75 59.18 32.24 57.84 33.38 56.19 C 32.78 55.91 31.59 55.35 30.99 55.07 Z" />
<path fill="#463b48" opacity="1.00" d=" M 85.60 0.00 L 87.95 0.00 C 86.68 2.63 85.55 5.33 84.14 7.90 C 81.53 10.08 78.74 12.11 75.63 13.52 C 74.33 14.14 73.04 14.78 71.75 15.43 C 71.40 14.93 70.69 13.94 70.34 13.44 C 69.52 13.71 67.89 14.24 67.08 14.50 C 64.98 14.35 62.80 14.29 60.95 13.16 C 68.32 7.40 77.33 4.25 85.60 0.00 Z" />
<path fill="#000000" opacity="1.00" d=" M 87.95 0.00 L 91.31 0.00 C 88.94 5.31 85.99 10.38 84.26 15.95 C 83.67 15.83 82.49 15.59 81.90 15.47 C 82.45 12.89 83.06 10.31 84.14 7.90 C 85.55 5.33 86.68 2.63 87.95 0.00 Z" />
<path fill="#2c1c27" opacity="1.00" d=" M 75.63 13.52 C 78.74 12.11 81.53 10.08 84.14 7.90 C 83.06 10.31 82.45 12.89 81.90 15.47 C 82.49 15.59 83.67 15.83 84.26 15.95 C 84.88 16.27 86.12 16.90 86.75 17.22 C 84.02 17.87 81.33 18.70 78.79 19.90 C 78.22 20.15 77.09 20.66 76.52 20.91 C 75.57 18.55 75.36 16.02 75.63 13.52 Z" />
<path fill="#2d212b" opacity="1.00" d=" M 36.20 12.43 C 37.85 13.80 39.32 15.38 40.61 17.09 C 39.14 17.95 37.68 18.84 36.18 19.64 C 36.15 17.24 36.14 14.84 36.20 12.43 Z" />
<path fill="#db9f9b" opacity="1.00" d=" M 71.75 15.43 C 73.04 14.78 74.33 14.14 75.63 13.52 C 75.36 16.02 75.57 18.55 76.52 20.91 C 77.09 20.66 78.22 20.15 78.79 19.90 C 78.51 22.14 78.13 24.37 77.79 26.60 L 78.88 26.14 C 78.43 26.38 77.53 26.86 77.08 27.10 C 75.03 23.33 74.47 18.19 70.23 16.12 C 69.16 15.56 68.07 15.04 66.97 14.54 L 67.08 14.50 C 67.89 14.24 69.52 13.71 70.34 13.44 C 70.69 13.94 71.40 14.93 71.75 15.43 Z" />
<path fill="#fdeedd" opacity="1.00" d=" M 40.61 17.09 C 45.44 13.92 51.45 14.08 56.98 14.46 C 60.30 14.64 63.77 16.21 66.97 14.54 C 68.07 15.04 69.16 15.56 70.23 16.12 C 69.78 18.23 69.46 20.38 69.74 22.53 C 68.22 22.60 66.70 22.70 65.18 22.81 L 65.44 21.34 C 61.97 24.14 58.47 27.01 55.64 30.48 C 53.98 32.34 53.88 35.64 56.16 37.07 C 58.22 38.22 60.53 37.06 62.67 36.82 L 62.76 36.85 C 62.80 37.37 62.87 38.40 62.91 38.92 C 62.15 38.81 60.63 38.58 59.86 38.47 C 59.69 40.17 59.54 41.88 59.41 43.60 C 58.16 44.13 55.96 43.44 55.23 44.81 C 56.57 45.15 57.93 45.30 59.32 45.27 C 57.70 45.95 55.96 46.02 54.26 45.65 L 54.14 45.22 C 51.32 44.19 48.13 45.96 45.23 44.96 C 41.97 43.80 38.74 42.50 35.31 41.88 C 35.37 41.21 35.49 39.87 35.54 39.20 C 33.66 38.12 31.79 37.01 29.92 35.90 C 31.82 35.76 33.72 35.58 35.61 35.36 C 35.24 33.79 34.85 32.22 34.43 30.66 C 35.03 30.24 36.24 29.40 36.84 28.98 C 34.67 26.13 32.80 23.05 31.39 19.74 C 32.77 20.40 34.13 21.08 35.51 21.75 C 35.47 21.33 35.41 20.49 35.38 20.06 L 36.18 19.64 C 37.68 18.84 39.14 17.95 40.61 17.09 M 44.42 35.42 C 44.63 36.10 45.07 37.44 45.29 38.12 C 44.46 37.86 42.80 37.36 41.97 37.10 C 40.94 42.51 50.78 43.19 50.86 38.13 C 50.15 35.41 46.59 35.75 44.42 35.42 Z" />
<path fill="#e8c2bb" opacity="1.00" d=" M 70.23 16.12 C 74.47 18.19 75.03 23.33 77.08 27.10 C 77.53 26.86 78.43 26.38 78.88 26.14 C 80.55 25.34 82.18 24.46 83.91 23.81 C 84.70 23.78 86.27 23.71 87.05 23.68 C 83.10 26.31 78.72 28.18 74.68 30.64 C 73.40 31.95 72.31 33.43 71.22 34.89 C 72.95 35.74 74.68 36.57 76.34 37.54 C 76.49 37.64 76.79 37.84 76.94 37.94 C 79.94 35.20 83.44 32.89 87.57 32.37 L 86.97 33.43 C 81.09 37.63 75.34 42.10 70.40 47.41 C 70.80 44.04 71.42 39.98 68.28 37.68 C 68.06 37.49 67.64 37.11 67.43 36.92 C 66.94 36.47 65.97 35.58 65.49 35.14 C 68.51 32.70 70.96 29.64 72.57 26.11 C 72.06 24.91 71.55 23.71 71.05 22.50 C 70.73 22.51 70.07 22.52 69.74 22.53 C 69.46 20.38 69.78 18.23 70.23 16.12 Z" />
<path fill="#000000" opacity="1.00" d=" M 86.75 17.22 C 87.13 17.42 87.90 17.83 88.29 18.03 C 85.43 19.35 81.98 19.93 80.05 22.67 C 84.33 21.78 88.48 20.32 92.81 19.64 C 91.03 24.17 88.00 28.00 84.51 31.33 C 86.22 31.28 87.93 31.24 89.64 31.20 C 88.87 33.54 88.09 35.87 87.29 38.19 C 88.07 38.50 89.63 39.11 90.41 39.42 C 92.12 37.20 92.95 33.61 95.92 32.80 C 100.07 33.37 103.64 35.74 107.11 37.93 C 108.41 37.29 109.72 36.67 111.00 35.99 L 111.00 37.97 C 108.68 39.14 106.23 40.02 103.82 40.97 C 104.06 40.05 105.15 38.83 104.08 38.01 C 101.87 35.65 98.70 34.62 95.84 33.32 C 94.03 35.98 92.23 38.67 90.97 41.64 C 87.77 41.91 84.57 42.28 81.35 42.40 C 83.38 39.52 85.37 36.59 86.97 33.43 L 87.57 32.37 C 83.44 32.89 79.94 35.20 76.94 37.94 C 76.79 37.84 76.49 37.64 76.34 37.54 C 76.62 37.07 77.18 36.12 77.46 35.65 C 81.25 30.97 86.29 27.47 89.89 22.61 C 87.88 22.89 85.85 23.16 83.91 23.81 C 82.18 24.46 80.55 25.34 78.88 26.14 L 77.79 26.60 C 78.13 24.37 78.51 22.14 78.79 19.90 C 81.33 18.70 84.02 17.87 86.75 17.22 Z" />
<path fill="#463b48" opacity="1.00" d=" M 55.64 30.48 C 58.47 27.01 61.97 24.14 65.44 21.34 L 65.18 22.81 C 66.70 22.70 68.22 22.60 69.74 22.53 C 70.07 22.52 70.73 22.51 71.05 22.50 C 71.55 23.71 72.06 24.91 72.57 26.11 C 70.96 29.64 68.51 32.70 65.49 35.14 C 65.97 35.58 66.94 36.47 67.43 36.92 L 65.52 37.06 C 65.11 37.10 64.27 37.19 63.86 37.23 L 62.76 36.85 L 62.67 36.82 C 60.53 37.06 58.22 38.22 56.16 37.07 C 53.88 35.64 53.98 32.34 55.64 30.48 M 58.71 30.50 C 57.49 32.06 55.70 33.64 56.00 35.83 C 58.78 36.94 62.58 35.16 63.84 32.46 C 64.77 31.69 65.66 30.86 66.50 29.98 C 69.30 29.47 69.35 26.50 69.73 24.27 C 65.16 24.05 61.60 27.38 58.71 30.50 M 64.28 35.31 C 64.79 35.77 64.79 35.77 64.28 35.31 Z" />
<path fill="#b65e72" opacity="1.00" d=" M 83.91 23.81 C 85.85 23.16 87.88 22.89 89.89 22.61 C 86.29 27.47 81.25 30.97 77.46 35.65 C 76.66 33.91 75.68 32.27 74.68 30.64 C 78.72 28.18 83.10 26.31 87.05 23.68 C 86.27 23.71 84.70 23.78 83.91 23.81 Z" />
<path fill="#000000" opacity="1.00" d=" M 58.71 30.50 C 61.60 27.38 65.16 24.05 69.73 24.27 C 69.35 26.50 69.30 29.47 66.50 29.98 C 67.83 28.32 68.67 26.36 69.35 24.36 C 63.80 26.22 59.19 30.48 56.83 35.83 C 59.24 34.87 61.63 33.84 63.84 32.46 C 62.58 35.16 58.78 36.94 56.00 35.83 C 55.70 33.64 57.49 32.06 58.71 30.50 Z" />
<path fill="#ff2c63" opacity="1.00" d=" M 56.83 35.83 C 59.19 30.48 63.80 26.22 69.35 24.36 C 68.67 26.36 67.83 28.32 66.50 29.98 C 65.66 30.86 64.77 31.69 63.84 32.46 C 61.63 33.84 59.24 34.87 56.83 35.83 Z" />
<path fill="#cd888b" opacity="1.00" d=" M 71.22 34.89 C 72.31 33.43 73.40 31.95 74.68 30.64 C 75.68 32.27 76.66 33.91 77.46 35.65 C 77.18 36.12 76.62 37.07 76.34 37.54 C 74.68 36.57 72.95 35.74 71.22 34.89 Z" />
<path fill="#b96374" opacity="1.00" d=" M 70.40 47.41 C 75.34 42.10 81.09 37.63 86.97 33.43 C 85.37 36.59 83.38 39.52 81.35 42.40 C 80.81 43.20 80.27 43.99 79.73 44.79 C 79.03 44.75 77.62 44.67 76.92 44.63 C 76.76 44.93 76.45 45.54 76.29 45.84 C 75.49 46.99 74.65 48.11 73.83 49.24 C 72.24 49.39 70.65 49.55 69.07 49.71 C 69.40 49.13 70.07 47.99 70.40 47.41 Z" />
<path fill="#463a47" opacity="1.00" d=" M 90.97 41.64 C 92.23 38.67 94.03 35.98 95.84 33.32 C 98.70 34.62 101.87 35.65 104.08 38.01 C 105.15 38.83 104.06 40.05 103.82 40.97 C 99.56 45.27 97.72 51.28 95.59 56.80 C 94.84 58.92 94.00 61.02 93.36 63.18 C 91.36 63.85 89.36 64.50 87.35 65.14 C 86.47 58.74 84.59 51.90 87.62 45.78 C 88.28 45.63 88.94 45.48 89.60 45.34 C 90.04 44.10 90.49 42.86 90.97 41.64 Z" />
<path fill="#010305" opacity="1.00" d=" M 64.28 35.31 C 64.79 35.77 64.79 35.77 64.28 35.31 Z" />
<path fill="#000000" opacity="1.00" d=" M 44.42 35.42 C 46.59 35.75 50.15 35.41 50.86 38.13 C 50.78 43.19 40.94 42.51 41.97 37.10 C 42.80 37.36 44.46 37.86 45.29 38.12 C 45.07 37.44 44.63 36.10 44.42 35.42 Z" />
<path fill="#000000" opacity="1.00" d=" M 62.76 36.85 L 63.86 37.23 C 63.85 37.91 63.85 39.27 63.84 39.95 C 65.30 40.05 66.39 38.28 65.52 37.06 L 67.43 36.92 C 67.64 37.11 68.06 37.49 68.28 37.68 C 66.18 41.10 63.26 44.11 59.32 45.27 C 57.93 45.30 56.57 45.15 55.23 44.81 C 55.96 43.44 58.16 44.13 59.41 43.60 C 59.54 41.88 59.69 40.17 59.86 38.47 C 60.63 38.58 62.15 38.81 62.91 38.92 C 62.87 38.40 62.80 37.37 62.76 36.85 M 61.11 40.47 C 61.09 40.99 61.05 42.03 61.03 42.54 C 62.69 43.20 62.81 39.88 61.11 40.47 Z" />
<path fill="#fff3e1" opacity="1.00" d=" M 63.86 37.23 C 64.27 37.19 65.11 37.10 65.52 37.06 C 66.39 38.28 65.30 40.05 63.84 39.95 C 63.85 39.27 63.85 37.91 63.86 37.23 Z" />
<path fill="#fff3e1" opacity="1.00" d=" M 10.86 38.17 C 17.17 38.98 23.31 40.74 29.58 41.76 C 29.09 42.01 28.11 42.50 27.62 42.74 C 23.28 42.86 19.29 40.86 15.05 40.28 C 13.35 40.31 12.09 39.17 10.86 38.17 Z" />
<path fill="#f0d4ca" opacity="1.00" d=" M 68.28 37.68 C 71.42 39.98 70.80 44.04 70.40 47.41 C 70.07 47.99 69.40 49.13 69.07 49.71 C 66.41 51.34 63.74 53.03 60.76 54.02 C 60.47 53.82 59.89 53.43 59.61 53.24 C 58.49 53.27 57.38 53.36 56.27 53.44 C 56.33 52.77 56.40 52.09 56.47 51.42 C 55.17 50.84 53.87 50.26 52.58 49.67 C 52.47 48.86 52.35 48.05 52.22 47.25 C 51.82 46.97 51.02 46.43 50.62 46.15 C 51.83 46.00 53.05 45.83 54.26 45.65 C 55.96 46.02 57.70 45.95 59.32 45.27 C 63.26 44.11 66.18 41.10 68.28 37.68 Z" />
<path fill="#342631" opacity="1.00" d=" M 103.82 40.97 C 106.23 40.02 108.68 39.14 111.00 37.97 L 111.00 55.89 C 105.84 55.24 100.46 54.42 95.59 56.80 C 97.72 51.28 99.56 45.27 103.82 40.97 Z" />
<path fill="#fff3e1" opacity="1.00" d=" M 61.11 40.47 C 62.81 39.88 62.69 43.20 61.03 42.54 C 61.05 42.03 61.09 40.99 61.11 40.47 Z" />
<path fill="#261621" opacity="1.00" d=" M 81.35 42.40 C 84.57 42.28 87.77 41.91 90.97 41.64 C 90.49 42.86 90.04 44.10 89.60 45.34 C 88.94 45.48 88.28 45.63 87.62 45.78 C 84.59 51.90 86.47 58.74 87.35 65.14 C 89.36 64.50 91.36 63.85 93.36 63.18 C 93.24 67.18 94.07 71.61 91.22 74.91 C 88.07 69.86 85.29 64.22 79.97 61.07 C 82.37 66.20 86.48 70.25 89.07 75.27 C 87.89 74.89 86.72 74.51 85.54 74.14 C 84.34 76.78 82.02 74.76 80.20 74.25 C 79.52 75.20 78.84 76.15 78.16 77.10 C 77.20 75.92 76.22 74.74 75.33 73.51 C 74.56 71.51 73.55 69.62 72.37 67.84 C 72.66 70.20 73.01 72.56 73.36 74.91 C 70.99 73.92 68.67 72.68 66.12 72.23 C 62.11 74.39 59.01 77.85 55.17 80.27 C 47.84 85.54 39.44 88.95 31.29 92.71 C 28.19 87.83 25.54 82.45 25.27 76.57 C 27.45 78.84 29.06 81.56 30.43 84.38 C 32.79 83.30 35.00 81.90 36.96 80.19 C 40.89 78.31 44.65 74.88 49.29 75.59 C 53.86 73.18 58.18 70.33 62.66 67.76 C 67.28 65.20 68.59 59.65 71.89 55.84 C 74.41 53.04 75.79 49.55 76.29 45.84 C 76.45 45.54 76.76 44.93 76.92 44.63 C 77.62 44.67 79.03 44.75 79.73 44.79 C 80.27 43.99 80.81 43.20 81.35 42.40 Z" />
<path fill="#3e707d" opacity="1.00" d=" M 27.62 42.74 C 28.11 42.50 29.09 42.01 29.58 41.76 L 29.97 41.56 C 32.61 42.02 35.25 42.66 37.59 44.03 C 34.22 44.17 30.80 43.91 27.62 42.74 Z" />
<path fill="#3e323e" opacity="1.00" d=" M 73.83 49.24 C 74.65 48.11 75.49 46.99 76.29 45.84 C 75.79 49.55 74.41 53.04 71.89 55.84 C 68.59 59.65 67.28 65.20 62.66 67.76 C 58.18 70.33 53.86 73.18 49.29 75.59 C 44.65 74.88 40.89 78.31 36.96 80.19 C 42.12 73.67 48.52 67.72 51.18 59.62 C 48.90 59.29 46.62 58.88 44.41 58.24 C 47.28 57.54 50.23 57.19 53.14 56.68 C 54.16 57.18 55.17 57.69 56.19 58.19 C 56.31 57.58 56.53 56.36 56.65 55.75 C 57.25 55.47 58.46 54.89 59.07 54.61 C 59.70 55.47 60.33 56.34 60.96 57.20 C 60.91 56.40 60.81 54.81 60.76 54.02 C 63.74 53.03 66.41 51.34 69.07 49.71 C 70.65 49.55 72.24 49.39 73.83 49.24 Z" />
<path fill="#f8e4d6" opacity="1.00" d=" M 34.60 50.04 C 36.69 48.91 38.68 47.59 40.88 46.68 C 44.11 46.27 47.38 46.46 50.62 46.15 C 51.02 46.43 51.82 46.97 52.22 47.25 C 52.35 48.05 52.47 48.86 52.58 49.67 C 53.87 50.26 55.17 50.84 56.47 51.42 C 56.40 52.09 56.33 52.77 56.27 53.44 C 57.38 53.36 58.49 53.27 59.61 53.24 C 59.89 53.43 60.47 53.82 60.76 54.02 C 60.81 54.81 60.91 56.40 60.96 57.20 C 60.33 56.34 59.70 55.47 59.07 54.61 C 58.46 54.89 57.25 55.47 56.65 55.75 C 56.53 56.36 56.31 57.58 56.19 58.19 C 55.17 57.69 54.16 57.18 53.14 56.68 C 50.23 57.19 47.28 57.54 44.41 58.24 C 42.73 59.30 41.16 60.52 39.57 61.69 C 39.20 59.61 38.86 57.52 38.53 55.44 C 37.49 55.80 36.45 56.16 35.41 56.52 C 36.54 55.05 37.65 53.57 38.78 52.10 C 38.28 52.42 37.28 53.06 36.78 53.38 C 36.05 52.27 35.33 51.15 34.60 50.04 Z" />
<path fill="#271a24" opacity="1.00" d=" M 30.99 55.07 C 31.59 55.35 32.78 55.91 33.38 56.19 C 32.24 57.84 30.75 59.18 28.94 60.04 C 29.53 58.35 30.24 56.70 30.99 55.07 Z" />
<path fill="#000000" opacity="1.00" d=" M 95.59 56.80 C 100.46 54.42 105.84 55.24 111.00 55.89 L 111.00 61.48 C 110.61 61.28 109.83 60.86 109.44 60.65 C 108.87 60.44 107.74 60.01 107.17 59.79 C 103.99 57.84 98.24 57.84 97.35 62.30 C 96.39 66.84 95.84 72.26 98.57 76.30 C 102.08 79.57 107.00 80.62 111.00 83.16 L 111.00 86.17 C 108.67 85.25 106.29 84.44 103.96 83.52 C 106.47 87.05 108.90 90.66 111.00 94.45 L 111.00 101.48 C 109.76 99.11 108.37 96.83 107.02 94.53 C 105.17 91.41 103.23 88.34 101.16 85.35 C 98.94 82.21 96.43 79.28 94.36 76.03 C 93.20 76.91 92.04 77.78 90.89 78.65 C 90.28 77.52 89.68 76.39 89.07 75.27 C 86.48 70.25 82.37 66.20 79.97 61.07 C 85.29 64.22 88.07 69.86 91.22 74.91 C 94.07 71.61 93.24 67.18 93.36 63.18 C 94.00 61.02 94.84 58.92 95.59 56.80 Z" />
<path fill="#463b48" opacity="1.00" d=" M 27.71 65.80 C 29.98 62.47 33.01 59.75 35.41 56.52 C 36.45 56.16 37.49 55.80 38.53 55.44 C 38.86 57.52 39.20 59.61 39.57 61.69 C 41.16 60.52 42.73 59.30 44.41 58.24 C 46.62 58.88 48.90 59.29 51.18 59.62 C 48.52 67.72 42.12 73.67 36.96 80.19 C 35.00 81.90 32.79 83.30 30.43 84.38 C 29.06 81.56 27.45 78.84 25.27 76.57 C 25.00 72.84 25.59 68.95 27.71 65.80 Z" />
<path fill="#19171d" opacity="1.00" d=" M 97.35 62.30 C 98.24 57.84 103.99 57.84 107.17 59.79 C 106.64 59.81 105.59 59.85 105.06 59.87 C 106.29 64.40 108.17 68.73 111.00 72.50 L 111.00 83.16 C 107.00 80.62 102.08 79.57 98.57 76.30 C 95.84 72.26 96.39 66.84 97.35 62.30 Z" />
<path fill="#53484b" opacity="1.00" d=" M 105.06 59.87 C 105.59 59.85 106.64 59.81 107.17 59.79 C 107.74 60.01 108.87 60.44 109.44 60.65 C 109.03 61.95 109.55 62.77 111.00 63.12 L 111.00 72.50 C 108.17 68.73 106.29 64.40 105.06 59.87 Z" />
<path fill="#c3c09e" opacity="1.00" d=" M 109.44 60.65 C 109.83 60.86 110.61 61.28 111.00 61.48 L 111.00 63.12 C 109.55 62.77 109.03 61.95 109.44 60.65 Z" />
<path fill="#403440" opacity="1.00" d=" M 20.90 73.27 C 20.86 78.26 17.05 81.77 14.89 85.92 C 10.72 93.63 5.27 100.53 0.00 107.50 L 0.00 93.65 C 3.10 90.88 6.27 88.19 9.20 85.24 C 13.13 81.28 17.66 77.87 20.90 73.27 Z" />
<path fill="#dca7a2" opacity="1.00" d=" M 67.36 74.21 C 68.21 74.83 69.06 75.46 69.91 76.08 C 71.51 77.48 73.04 78.96 74.59 80.41 C 74.18 81.07 73.77 81.74 73.38 82.42 C 72.74 83.58 72.11 84.75 71.50 85.93 C 69.21 82.83 66.96 79.69 64.76 76.52 C 65.64 75.76 66.50 74.98 67.36 74.21 Z" />
<path fill="#a3375a" opacity="1.00" d=" M 75.33 73.51 C 76.22 74.74 77.20 75.92 78.16 77.10 C 78.84 76.15 79.52 75.20 80.20 74.25 C 82.02 74.76 84.34 76.78 85.54 74.14 C 86.72 74.51 87.89 74.89 89.07 75.27 C 89.68 76.39 90.28 77.52 90.89 78.65 C 92.04 77.78 93.20 76.91 94.36 76.03 C 96.43 79.28 98.94 82.21 101.16 85.35 C 99.40 86.88 96.33 88.10 96.92 90.97 C 97.72 95.18 100.75 98.47 102.80 102.11 C 99.83 100.82 96.90 99.46 93.99 98.04 C 93.39 98.29 92.20 98.79 91.60 99.04 C 87.46 91.63 80.60 86.25 74.59 80.41 C 73.04 78.96 71.51 77.48 69.91 76.08 C 71.70 76.62 73.51 77.08 75.32 77.55 C 75.33 76.54 75.33 74.52 75.33 73.51 Z" />
<path fill="#f8e5d5" opacity="1.00" d=" M 54.31 84.16 C 57.95 81.84 61.49 79.34 64.76 76.52 C 66.96 79.69 69.21 82.83 71.50 85.93 C 72.11 84.75 72.74 83.58 73.38 82.42 C 78.93 87.66 82.91 94.35 88.69 99.37 C 89.67 100.36 91.12 100.40 92.40 100.68 C 93.23 102.17 94.65 103.18 96.15 103.93 C 96.66 106.27 97.05 108.63 97.37 111.00 L 65.25 111.00 C 59.18 104.09 53.88 96.54 49.91 88.22 C 51.29 89.12 52.67 90.03 54.04 90.93 C 54.16 88.68 54.27 86.42 54.31 84.16 Z" />
<path fill="#fff3e1" opacity="1.00" d=" M 1.71 111.00 C 9.35 101.01 15.63 90.08 22.40 79.51 C 24.06 85.10 26.31 90.76 30.66 94.84 C 38.92 92.22 46.86 88.59 54.31 84.16 C 54.27 86.42 54.16 88.68 54.04 90.93 C 52.67 90.03 51.29 89.12 49.91 88.22 C 53.88 96.54 59.18 104.09 65.25 111.00 L 1.71 111.00 Z" />
<path fill="#e9c5bf" opacity="1.00" d=" M 73.38 82.42 C 73.77 81.74 74.18 81.07 74.59 80.41 C 80.60 86.25 87.46 91.63 91.60 99.04 L 92.40 100.68 C 91.12 100.40 89.67 100.36 88.69 99.37 C 82.91 94.35 78.93 87.66 73.38 82.42 Z" />
<path fill="#ae4c66" opacity="1.00" d=" M 96.92 90.97 C 96.33 88.10 99.40 86.88 101.16 85.35 C 103.23 88.34 105.17 91.41 107.02 94.53 C 105.68 96.27 102.32 97.73 103.59 100.37 C 104.62 103.09 106.37 105.45 107.89 107.91 C 107.36 107.95 106.31 108.04 105.78 108.09 C 102.45 107.00 99.30 105.45 96.15 103.93 C 94.65 103.18 93.23 102.17 92.40 100.68 L 91.60 99.04 C 92.20 98.79 93.39 98.29 93.99 98.04 C 96.90 99.46 99.83 100.82 102.80 102.11 C 100.75 98.47 97.72 95.18 96.92 90.97 Z" />
<path fill="#b85f71" opacity="1.00" d=" M 103.59 100.37 C 102.32 97.73 105.68 96.27 107.02 94.53 C 108.37 96.83 109.76 99.11 111.00 101.48 L 111.00 109.98 C 109.28 109.30 107.53 108.70 105.78 108.09 C 106.31 108.04 107.36 107.95 107.89 107.91 C 106.37 105.45 104.62 103.09 103.59 100.37 Z" />
<path fill="#d18e8c" opacity="1.00" d=" M 96.15 103.93 C 99.30 105.45 102.45 107.00 105.78 108.09 C 107.53 108.70 109.28 109.30 111.00 109.98 L 111.00 111.00 L 97.37 111.00 C 97.05 108.63 96.66 106.27 96.15 103.93 Z" />
</svg>
