<?xml version="1.0" encoding="UTF-8" ?>
<!DOCTYPE svg PUBLIC "-//W3C//DTD SVG 1.1//EN" "http://www.w3.org/Graphics/SVG/1.1/DTD/svg11.dtd">
<svg width="111pt" height="111pt" viewBox="0 0 111 111" version="1.1" xmlns="http://www.w3.org/2000/svg">
<path fill="#000000" opacity="1.00" d=" M 23.71 14.04 C 22.33 8.49 26.99 1.14 33.22 2.31 C 36.31 6.47 42.18 6.62 45.25 10.79 C 50.84 17.73 53.21 27.00 52.75 35.82 L 51.52 35.81 C 51.08 25.65 48.59 13.79 39.37 7.94 C 39.42 10.44 40.52 13.46 38.68 15.59 C 35.05 20.41 26.08 19.89 23.71 14.04 M 27.75 7.83 C 27.67 8.53 27.49 9.92 27.41 10.61 C 27.63 11.36 28.07 12.85 28.28 13.60 C 29.61 14.75 31.42 14.78 33.08 15.03 C 34.42 14.28 35.51 13.21 36.50 12.07 C 35.62 10.88 34.94 9.56 34.27 8.24 C 33.56 7.84 32.14 7.03 31.42 6.62 L 31.43 6.34 C 30.21 6.84 28.98 7.34 27.75 7.83 Z" />
<path fill="#fffdf2" opacity="1.00" d=" M 27.75 7.83 C 28.98 7.34 30.21 6.84 31.43 6.34 L 31.42 6.62 C 31.40 7.86 31.38 9.10 31.35 10.34 C 30.04 10.43 28.72 10.52 27.41 10.61 C 27.49 9.92 27.67 8.53 27.75 7.83 Z" />
<path fill="#da864e" opacity="1.00" d=" M 31.42 6.62 C 32.14 7.03 33.56 7.84 34.27 8.24 C 34.39 8.62 34.62 9.37 34.73 9.75 C 32.74 11.28 30.61 12.62 28.28 13.60 C 28.07 12.85 27.63 11.36 27.41 10.61 C 28.72 10.52 30.04 10.43 31.35 10.34 C 31.38 9.10 31.40 7.86 31.42 6.62 Z" />
<path fill="#c2d0f9" opacity="1.00" d=" M 34.27 8.24 C 34.94 9.56 35.62 10.88 36.50 12.07 C 35.51 13.21 34.42 14.28 33.08 15.03 C 33.59 13.26 34.19 11.51 34.73 9.75 C 34.62 9.37 34.39 8.62 34.27 8.24 Z" />
<path fill="#bc2b58" opacity="1.00" d=" M 28.28 13.60 C 30.61 12.62 32.74 11.28 34.73 9.75 C 34.19 11.51 33.59 13.26 33.08 15.03 C 31.42 14.78 29.61 14.75 28.28 13.60 Z" />
<path fill="#000000" opacity="1.00" d=" M 53.87 36.34 C 54.72 34.97 55.23 33.05 56.92 32.49 C 61.19 33.21 64.43 36.44 67.99 38.66 C 70.38 37.56 71.00 34.15 72.89 32.29 C 75.69 32.07 77.41 34.15 78.53 36.41 C 83.27 36.49 87.60 38.87 90.59 42.47 C 94.47 44.51 99.58 44.82 102.64 48.30 C 103.22 53.46 100.39 58.00 99.28 62.84 C 99.99 65.14 101.54 67.06 102.70 69.14 C 101.65 69.78 100.60 70.42 99.55 71.05 C 101.92 74.12 104.53 77.40 104.88 81.41 C 100.11 82.56 98.83 87.70 96.22 91.17 C 93.45 94.82 90.22 98.12 86.77 101.13 C 85.57 100.66 83.97 100.59 83.12 101.73 C 81.64 103.37 79.78 104.58 77.91 105.72 C 77.04 104.94 76.18 104.16 75.33 103.38 C 69.63 106.92 62.71 108.67 56.04 108.67 C 56.71 107.25 57.78 106.10 58.77 104.90 C 57.57 105.79 56.41 106.72 55.16 107.53 C 48.93 107.56 42.70 106.82 36.51 106.20 C 33.20 105.96 29.89 101.56 26.93 104.67 C 18.27 101.06 13.09 92.06 11.05 83.28 C 9.56 83.57 6.45 85.67 6.25 82.94 C 5.94 78.75 9.08 75.50 10.78 71.95 C 9.67 67.52 7.26 63.22 7.68 58.51 C 8.50 56.33 10.63 55.06 12.52 53.91 C 16.35 51.97 20.62 51.46 24.77 50.65 C 27.23 49.69 26.56 46.58 27.05 44.53 C 29.15 44.50 31.26 44.67 33.34 44.36 C 36.15 41.93 38.53 39.04 41.31 36.57 C 43.31 34.98 45.55 33.43 48.17 33.20 C 49.92 34.64 51.19 37.15 53.87 36.34 M 55.96 36.40 C 54.99 37.97 53.76 39.36 52.54 40.74 C 50.35 40.75 48.83 39.18 48.13 37.22 C 43.74 38.66 40.34 42.25 36.81 45.13 C 35.41 47.15 31.89 49.47 30.37 46.30 C 31.58 50.07 27.51 51.39 24.98 52.90 C 22.64 54.60 20.69 56.77 18.39 58.52 C 18.38 58.99 18.37 59.92 18.36 60.39 C 19.13 60.48 20.68 60.66 21.45 60.75 C 21.75 62.34 21.36 63.82 20.32 65.07 C 19.09 66.31 18.10 67.79 17.30 69.34 C 14.69 71.91 12.73 75.08 11.10 78.35 C 11.64 78.70 12.72 79.41 13.26 79.77 C 13.43 83.73 15.26 87.42 17.53 90.59 L 17.44 91.10 C 18.43 92.48 19.33 93.91 20.35 95.27 C 22.20 98.07 25.37 102.11 28.99 99.41 C 36.24 104.49 45.50 104.95 54.03 104.25 C 54.25 103.79 54.68 102.87 54.90 102.41 C 56.47 102.41 57.67 101.15 59.01 100.51 C 59.53 100.77 60.56 101.28 61.08 101.54 C 61.23 102.88 61.39 104.21 61.55 105.55 C 64.71 104.22 68.45 104.03 71.16 101.78 C 74.14 101.17 76.91 99.56 80.05 99.81 L 79.21 100.61 C 79.66 100.50 80.56 100.29 81.02 100.19 C 82.33 98.81 83.67 97.45 85.01 96.09 C 86.00 96.21 87.00 96.34 88.01 96.45 C 92.20 91.65 96.13 86.48 98.78 80.64 C 99.28 80.31 100.28 79.66 100.78 79.34 C 99.47 75.14 96.48 71.73 95.32 67.49 C 96.19 67.46 97.93 67.39 98.79 67.36 C 98.00 65.89 97.19 64.42 96.75 62.80 C 95.74 58.03 91.56 54.96 89.45 50.74 C 90.08 50.37 91.36 49.62 92.00 49.24 C 88.90 45.30 84.53 42.77 80.25 40.32 L 80.06 40.62 C 78.52 39.19 76.55 39.69 74.85 40.47 C 74.17 39.68 73.57 38.83 73.04 37.93 C 71.99 39.90 70.49 41.57 69.28 43.44 C 68.84 43.50 68.41 43.57 67.97 43.66 C 66.99 41.48 64.55 40.75 62.78 39.39 C 60.62 38.17 58.68 35.91 55.96 36.40 M 92.20 46.34 C 93.22 47.86 94.24 49.38 95.14 50.97 C 94.55 51.51 93.37 52.61 92.78 53.15 L 94.11 53.63 C 94.99 55.27 95.84 56.92 96.63 58.61 C 97.10 58.63 98.04 58.65 98.51 58.66 C 98.74 57.39 98.98 56.13 99.23 54.87 C 99.47 53.74 99.67 52.61 99.84 51.48 L 100.66 51.10 C 98.96 48.19 95.33 46.99 92.20 46.34 M 11.54 58.42 C 11.34 59.95 11.51 61.50 11.60 63.03 C 12.17 65.46 13.02 67.81 13.86 70.15 C 15.79 67.72 17.62 65.21 19.63 62.85 C 17.95 61.84 15.98 60.87 15.64 58.72 C 17.33 57.24 19.10 55.85 20.71 54.28 C 17.20 54.23 14.33 56.60 11.54 58.42 Z" />
<path fill="#ffffc1" opacity="1.00" d=" M 55.96 36.40 C 58.68 35.91 60.62 38.17 62.78 39.39 C 64.55 40.75 66.99 41.48 67.97 43.66 C 64.42 45.00 61.04 46.71 57.61 48.32 C 57.32 49.41 57.04 50.51 56.76 51.60 C 55.26 49.05 53.08 47.03 50.72 45.29 C 48.95 46.85 47.59 48.79 46.64 50.94 C 46.36 55.27 45.87 59.66 46.81 63.95 C 45.85 62.57 45.64 58.94 43.38 59.71 C 40.85 61.52 38.88 63.97 36.71 66.16 C 36.68 66.81 36.62 68.11 36.59 68.75 C 36.50 68.86 36.33 69.06 36.24 69.16 C 33.31 69.94 30.35 70.56 27.34 70.94 C 25.76 68.18 23.36 66.06 20.32 65.07 C 21.36 63.82 21.75 62.34 21.45 60.75 C 20.68 60.66 19.13 60.48 18.36 60.39 C 18.37 59.92 18.38 58.99 18.39 58.52 C 20.69 56.77 22.64 54.60 24.98 52.90 C 26.53 55.39 25.73 58.27 25.76 61.00 C 26.54 62.98 29.11 63.22 30.94 63.21 C 35.39 62.31 38.53 58.37 40.47 54.51 C 41.13 51.00 41.10 46.16 36.81 45.13 C 40.34 42.25 43.74 38.66 48.13 37.22 C 48.83 39.18 50.35 40.75 52.54 40.74 C 53.76 39.36 54.99 37.97 55.96 36.40 Z" />
<path fill="#272727" opacity="0.44" d=" M 34.48 41.80 C 36.54 39.80 38.42 37.37 41.31 36.57 C 38.53 39.04 36.15 41.93 33.34 44.36 C 31.26 44.67 29.15 44.50 27.05 44.53 C 26.56 46.58 27.23 49.69 24.77 50.65 C 20.62 51.46 16.35 51.97 12.52 53.91 C 15.37 51.10 19.52 50.07 23.40 49.81 C 23.76 49.83 24.49 49.85 24.85 49.87 C 25.40 47.81 25.71 45.63 26.82 43.79 C 28.82 43.33 30.88 43.44 32.91 43.39 C 33.30 42.99 34.09 42.20 34.48 41.80 Z" />
<path fill="#161616" opacity="0.09" d=" M 19.72 48.07 C 23.42 43.10 28.44 38.82 34.80 38.03 C 34.70 39.29 34.59 40.55 34.48 41.80 C 34.09 42.20 33.30 42.99 32.91 43.39 C 30.88 43.44 28.82 43.33 26.82 43.79 C 25.71 45.63 25.40 47.81 24.85 49.87 C 24.49 49.85 23.76 49.83 23.40 49.81 C 22.08 49.44 20.93 48.68 19.72 48.07 Z" />
<path fill="#ffffb1" opacity="1.00" d=" M 69.28 43.44 C 70.49 41.57 71.99 39.90 73.04 37.93 C 73.57 38.83 74.17 39.68 74.85 40.47 C 76.55 39.69 78.52 39.19 80.06 40.62 C 79.39 41.71 78.72 42.80 78.06 43.89 C 78.97 44.90 79.88 45.90 80.78 46.91 C 80.61 51.54 83.05 56.05 81.54 60.65 C 80.77 61.01 80.00 61.37 79.23 61.74 C 79.92 61.57 81.32 61.23 82.01 61.05 C 81.95 62.44 81.89 63.83 81.84 65.22 C 81.30 64.23 80.71 63.28 80.11 62.34 C 77.70 63.02 75.22 63.55 72.70 63.31 C 71.62 63.11 70.55 62.90 69.48 62.69 C 69.42 61.98 69.36 61.26 69.30 60.55 C 67.06 57.15 64.49 53.99 61.60 51.13 C 60.44 52.26 59.28 53.38 58.12 54.51 C 57.70 53.53 57.25 52.56 56.76 51.60 C 57.04 50.51 57.32 49.41 57.61 48.32 C 61.04 46.71 64.42 45.00 67.97 43.66 C 68.41 43.57 68.84 43.50 69.28 43.44 Z" />
<path fill="#faf38a" opacity="1.00" d=" M 80.06 40.62 L 80.25 40.32 C 84.53 42.77 88.90 45.30 92.00 49.24 C 91.36 49.62 90.08 50.37 89.45 50.74 C 89.31 51.60 89.20 52.46 89.06 53.32 C 86.96 59.37 89.30 65.78 91.95 71.27 C 90.45 70.64 88.98 69.85 87.38 69.54 C 86.20 69.86 85.84 71.29 85.07 72.14 C 87.02 72.88 90.98 72.92 89.28 76.06 C 84.91 74.18 79.66 73.83 75.17 75.44 C 74.73 75.71 73.83 76.26 73.39 76.53 L 72.40 77.28 C 73.49 80.76 76.99 82.15 80.12 83.23 C 81.12 83.67 82.10 84.14 83.08 84.62 C 81.90 84.95 80.71 85.29 79.52 85.63 C 76.68 84.50 73.80 82.42 70.59 83.20 C 66.99 84.30 66.65 77.95 63.16 78.38 C 60.26 79.69 57.17 80.33 53.98 80.30 C 50.09 80.26 47.47 83.51 44.89 85.95 C 42.83 84.47 40.83 82.92 38.89 81.28 C 36.48 83.47 34.20 85.81 32.20 88.38 C 30.90 88.73 29.61 89.08 28.32 89.43 C 28.51 91.03 28.70 92.63 28.94 94.23 C 28.37 93.91 27.24 93.27 26.68 92.95 C 26.33 91.70 25.98 90.45 25.63 89.20 C 23.75 88.93 21.86 88.66 19.96 88.46 C 21.84 88.04 23.66 87.45 25.44 86.72 C 29.42 85.32 33.93 84.15 36.49 80.49 C 37.40 78.45 35.10 76.55 33.16 76.84 C 32.80 76.98 32.07 77.25 31.71 77.39 C 28.04 77.91 23.45 76.56 20.67 79.71 L 19.55 80.79 C 18.92 78.34 18.20 75.84 16.51 73.87 C 16.74 72.35 17.01 70.84 17.30 69.34 C 18.10 67.79 19.09 66.31 20.32 65.07 C 23.36 66.06 25.76 68.18 27.34 70.94 C 26.78 71.19 25.67 71.68 25.11 71.93 C 27.08 72.80 28.83 74.25 30.94 74.77 C 34.41 74.48 37.74 73.27 40.94 71.95 C 42.83 71.23 43.70 69.33 44.05 67.48 C 41.56 67.90 39.08 68.38 36.59 68.75 C 36.62 68.11 36.68 66.81 36.71 66.16 C 38.88 63.97 40.85 61.52 43.38 59.71 C 45.64 58.94 45.85 62.57 46.81 63.95 C 47.73 66.31 49.38 68.56 51.89 69.37 C 54.97 69.48 57.51 67.03 58.54 64.28 C 60.06 61.17 59.13 57.62 58.12 54.51 C 59.28 53.38 60.44 52.26 61.60 51.13 C 64.49 53.99 67.06 57.15 69.30 60.55 C 69.36 61.26 69.42 61.98 69.48 62.69 C 70.55 62.90 71.62 63.11 72.70 63.31 C 72.56 63.55 72.27 64.02 72.13 64.26 C 69.14 64.35 66.15 64.45 63.16 64.45 C 63.21 64.95 63.29 65.94 63.34 66.44 C 69.40 67.95 75.69 67.61 81.87 67.30 C 81.86 66.78 81.85 65.74 81.84 65.22 C 81.89 63.83 81.95 62.44 82.01 61.05 C 81.32 61.23 79.92 61.57 79.23 61.74 C 80.00 61.37 80.77 61.01 81.54 60.65 C 83.05 56.05 80.61 51.54 80.78 46.91 C 79.88 45.90 78.97 44.90 78.06 43.89 C 78.72 42.80 79.39 41.71 80.06 40.62 M 48.98 77.35 C 47.87 76.73 46.68 76.33 45.39 76.38 C 45.92 77.32 46.46 78.26 46.99 79.20 C 49.23 79.63 51.42 78.95 53.08 77.39 C 56.31 77.72 60.66 78.53 61.97 74.59 C 61.43 74.61 60.36 74.67 59.82 74.69 C 58.08 75.88 55.55 76.00 53.91 74.56 C 52.33 75.58 50.85 76.88 48.98 77.35 Z" />
<path fill="#0f0905" opacity="1.00" d=" M 46.64 50.94 C 47.59 48.79 48.95 46.85 50.72 45.29 C 53.08 47.03 55.26 49.05 56.76 51.60 C 57.25 52.56 57.70 53.53 58.12 54.51 C 59.13 57.62 60.06 61.17 58.54 64.28 C 57.51 67.03 54.97 69.48 51.89 69.37 C 49.38 68.56 47.73 66.31 46.81 63.95 C 45.87 59.66 46.36 55.27 46.64 50.94 M 48.58 60.12 C 48.56 60.83 48.51 62.26 48.49 62.97 C 49.61 65.08 51.12 67.76 53.98 66.74 C 58.84 63.56 57.50 56.47 54.39 52.50 C 53.67 51.22 52.57 50.21 51.62 49.11 L 51.92 48.68 C 51.34 48.53 50.20 48.24 49.62 48.10 C 48.13 51.92 47.95 56.10 48.58 60.12 Z" />
<path fill="#fffffb" opacity="1.00" d=" M 30.37 46.30 C 31.89 49.47 35.41 47.15 36.81 45.13 C 41.10 46.16 41.13 51.00 40.47 54.51 C 38.53 58.37 35.39 62.31 30.94 63.21 C 29.11 63.22 26.54 62.98 25.76 61.00 C 25.73 58.27 26.53 55.39 24.98 52.90 C 27.51 51.39 31.58 50.07 30.37 46.30 Z" />
<path fill="#b0cbbe" opacity="1.00" d=" M 92.20 46.34 C 95.33 46.99 98.96 48.19 100.66 51.10 L 99.84 51.48 C 98.88 51.92 97.91 52.35 96.93 52.75 C 96.00 53.08 95.06 53.38 94.11 53.63 L 92.78 53.15 C 93.37 52.61 94.55 51.51 95.14 50.97 C 94.24 49.38 93.22 47.86 92.20 46.34 Z" />
<path fill="#e2cd73" opacity="1.00" d=" M 48.58 60.12 C 47.95 56.10 48.13 51.92 49.62 48.10 C 50.20 48.24 51.34 48.53 51.92 48.68 L 51.62 49.11 C 49.44 51.91 47.58 55.44 49.02 59.03 C 48.91 59.30 48.69 59.85 48.58 60.12 Z" />
<path fill="#bc2b58" opacity="1.00" d=" M 49.02 59.03 C 47.58 55.44 49.44 51.91 51.62 49.11 C 52.57 50.21 53.67 51.22 54.39 52.50 C 54.55 54.31 54.69 56.13 54.78 57.95 C 53.25 60.26 51.42 62.55 48.49 62.97 C 48.51 62.26 48.56 60.83 48.58 60.12 C 48.69 59.85 48.91 59.30 49.02 59.03 Z" />
<path fill="#c2d0f9" opacity="1.00" d=" M 89.06 53.32 C 89.20 52.46 89.31 51.60 89.45 50.74 C 91.56 54.96 95.74 58.03 96.75 62.80 C 97.19 64.42 98.00 65.89 98.79 67.36 C 97.93 67.39 96.19 67.46 95.32 67.49 C 96.48 71.73 99.47 75.14 100.78 79.34 C 100.28 79.66 99.28 80.31 98.78 80.64 C 96.13 86.48 92.20 91.65 88.01 96.45 C 87.00 96.34 86.00 96.21 85.01 96.09 C 83.67 97.45 82.33 98.81 81.02 100.19 C 80.56 100.29 79.66 100.50 79.21 100.61 L 80.05 99.81 C 83.48 96.49 85.30 91.97 87.78 87.98 C 88.04 87.87 88.55 87.64 88.80 87.53 C 88.26 89.37 87.69 91.21 87.16 93.05 C 91.72 88.63 96.15 83.64 98.39 77.61 C 96.45 74.04 92.64 69.59 96.16 65.80 C 94.18 61.43 91.79 57.26 89.06 53.32 Z" />
<path fill="#74bcd1" opacity="1.00" d=" M 96.93 52.75 C 97.91 52.35 98.88 51.92 99.84 51.48 C 99.67 52.61 99.47 53.74 99.23 54.87 C 98.43 56.07 97.54 57.21 96.57 58.28 C 96.67 56.44 96.79 54.59 96.93 52.75 Z" />
<path fill="#834ca9" opacity="1.00" d=" M 54.39 52.50 C 57.50 56.47 58.84 63.56 53.98 66.74 C 54.55 63.85 54.91 60.90 54.78 57.95 C 54.69 56.13 54.55 54.31 54.39 52.50 Z" />
<path fill="#4a7680" opacity="1.00" d=" M 94.11 53.63 C 95.06 53.38 96.00 53.08 96.93 52.75 C 96.79 54.59 96.67 56.44 96.57 58.28 C 97.54 57.21 98.43 56.07 99.23 54.87 C 98.98 56.13 98.74 57.39 98.51 58.66 C 98.04 58.65 97.10 58.63 96.63 58.61 C 95.84 56.92 94.99 55.27 94.11 53.63 Z" />
<path fill="#e2cd73" opacity="1.00" d=" M 91.95 71.27 C 89.30 65.78 86.96 59.37 89.06 53.32 C 91.79 57.26 94.18 61.43 96.16 65.80 C 92.64 69.59 96.45 74.04 98.39 77.61 C 93.85 79.42 93.11 85.29 88.80 87.53 C 88.55 87.64 88.04 87.87 87.78 87.98 C 86.23 87.75 84.68 87.52 83.14 87.27 C 82.59 87.18 81.50 87.00 80.95 86.90 C 79.25 91.22 75.09 93.54 70.90 94.89 C 66.08 95.56 61.28 96.45 56.39 96.35 C 50.23 97.43 43.97 97.70 37.72 97.60 C 37.56 96.80 37.41 96.00 37.26 95.21 C 34.52 95.76 31.76 96.17 28.98 96.46 C 28.26 95.58 27.56 94.68 26.90 93.75 L 26.68 92.95 C 27.24 93.27 28.37 93.91 28.94 94.23 C 29.11 94.36 29.45 94.62 29.63 94.75 C 29.89 94.22 30.42 93.18 30.68 92.66 C 31.57 92.60 32.47 92.53 33.36 92.47 C 34.03 91.47 34.63 90.42 35.43 89.51 C 40.01 88.51 44.69 89.41 49.05 90.91 C 55.07 91.81 61.42 91.71 67.18 89.50 C 71.22 87.94 76.38 89.15 79.52 85.63 C 80.71 85.29 81.90 84.95 83.08 84.62 C 82.10 84.14 81.12 83.67 80.12 83.23 C 84.34 83.56 89.13 82.78 91.76 79.11 C 90.93 78.09 90.13 77.05 89.28 76.06 C 90.98 72.92 87.02 72.88 85.07 72.14 C 85.84 71.29 86.20 69.86 87.38 69.54 C 88.98 69.85 90.45 70.64 91.95 71.27 Z" />
<path fill="#b8d8cc" opacity="1.00" d=" M 11.54 58.42 C 14.33 56.60 17.20 54.23 20.71 54.28 C 19.10 55.85 17.33 57.24 15.64 58.72 C 15.21 59.22 14.78 59.73 14.36 60.25 C 13.74 60.33 12.49 60.50 11.87 60.59 C 11.80 61.20 11.67 62.42 11.60 63.03 C 11.51 61.50 11.34 59.95 11.54 58.42 Z" />
<path fill="#537e77" opacity="1.00" d=" M 14.36 60.25 C 14.78 59.73 15.21 59.22 15.64 58.72 C 15.98 60.87 17.95 61.84 19.63 62.85 C 17.62 65.21 15.79 67.72 13.86 70.15 C 13.02 67.81 12.17 65.46 11.60 63.03 C 11.67 62.42 11.80 61.20 11.87 60.59 C 12.49 60.50 13.74 60.33 14.36 60.25 Z" />
<path fill="#951f5f" opacity="1.00" d=" M 48.49 62.97 C 51.42 62.55 53.25 60.26 54.78 57.95 C 54.91 60.90 54.55 63.85 53.98 66.74 C 51.12 67.76 49.61 65.08 48.49 62.97 Z" />
<path fill="#000000" opacity="1.00" d=" M 72.70 63.31 C 75.22 63.55 77.70 63.02 80.11 62.34 C 80.71 63.28 81.30 64.23 81.84 65.22 C 81.85 65.74 81.86 66.78 81.87 67.30 C 75.69 67.61 69.40 67.95 63.34 66.44 C 63.29 65.94 63.21 64.95 63.16 64.45 C 66.15 64.45 69.14 64.35 72.13 64.26 C 72.27 64.02 72.56 63.55 72.70 63.31 Z" />
<path fill="#000000" opacity="1.00" d=" M 36.59 68.75 C 39.08 68.38 41.56 67.90 44.05 67.48 C 43.70 69.33 42.83 71.23 40.94 71.95 C 37.74 73.27 34.41 74.48 30.94 74.77 C 28.83 74.25 27.08 72.80 25.11 71.93 C 25.67 71.68 26.78 71.19 27.34 70.94 C 30.35 70.56 33.31 69.94 36.24 69.16 C 36.33 69.06 36.50 68.86 36.59 68.75 Z" />
<path fill="#c18b69" opacity="1.00" d=" M 11.10 78.35 C 12.73 75.08 14.69 71.91 17.30 69.34 C 17.01 70.84 16.74 72.35 16.51 73.87 C 18.20 75.84 18.92 78.34 19.55 80.79 C 18.78 82.26 18.51 83.89 18.35 85.52 C 18.14 87.22 17.85 88.91 17.53 90.59 C 15.26 87.42 13.43 83.73 13.26 79.77 C 12.72 79.41 11.64 78.70 11.10 78.35 Z" />
<path fill="#0c0c09" opacity="1.00" d=" M 48.98 77.35 C 50.85 76.88 52.33 75.58 53.91 74.56 C 55.55 76.00 58.08 75.88 59.82 74.69 C 60.36 74.67 61.43 74.61 61.97 74.59 C 60.66 78.53 56.31 77.72 53.08 77.39 C 51.42 78.95 49.23 79.63 46.99 79.20 C 46.46 78.26 45.92 77.32 45.39 76.38 C 46.68 76.33 47.87 76.73 48.98 77.35 Z" />
<path fill="#29231c" opacity="1.00" d=" M 75.17 75.44 C 79.66 73.83 84.91 74.18 89.28 76.06 C 90.13 77.05 90.93 78.09 91.76 79.11 C 89.13 82.78 84.34 83.56 80.12 83.23 C 76.99 82.15 73.49 80.76 72.40 77.28 L 73.39 76.53 C 75.04 78.18 76.52 80.54 79.08 80.75 C 81.85 80.97 84.60 80.48 87.35 80.18 C 87.46 79.37 87.57 78.55 87.69 77.74 C 83.55 76.77 79.39 75.94 75.17 75.44 Z" />
<path fill="#0c0c09" opacity="1.00" d=" M 33.16 76.84 C 35.10 76.55 37.40 78.45 36.49 80.49 C 33.93 84.15 29.42 85.32 25.44 86.72 C 23.02 86.76 20.60 86.44 18.35 85.52 C 18.51 83.89 18.78 82.26 19.55 80.79 L 20.67 79.71 C 21.10 79.78 21.94 79.92 22.36 79.99 C 21.14 81.21 19.46 82.27 19.52 84.23 C 22.76 86.36 26.72 84.61 30.05 83.59 C 32.05 82.25 34.92 81.27 34.95 78.39 C 32.90 78.58 30.88 79.02 28.93 79.67 L 28.81 78.70 C 28.01 78.93 26.42 79.41 25.63 79.64 C 27.66 78.90 29.69 78.15 31.71 77.39 C 32.07 77.25 32.80 76.98 33.16 76.84 Z" />
<path fill="#d38692" opacity="1.00" d=" M 73.39 76.53 C 73.83 76.26 74.73 75.71 75.17 75.44 C 79.39 75.94 83.55 76.77 87.69 77.74 C 87.57 78.55 87.46 79.37 87.35 80.18 C 84.60 80.48 81.85 80.97 79.08 80.75 C 76.52 80.54 75.04 78.18 73.39 76.53 Z" />
<path fill="#958759" opacity="1.00" d=" M 20.67 79.71 C 23.45 76.56 28.04 77.91 31.71 77.39 C 29.69 78.15 27.66 78.90 25.63 79.64 C 25.14 79.79 24.16 80.08 23.67 80.23 C 23.34 80.17 22.69 80.05 22.36 79.99 C 21.94 79.92 21.10 79.78 20.67 79.71 Z" />
<path fill="#f2e881" opacity="1.00" d=" M 53.98 80.30 C 57.17 80.33 60.26 79.69 63.16 78.38 C 66.65 77.95 66.99 84.30 70.59 83.20 C 73.80 82.42 76.68 84.50 79.52 85.63 C 76.38 89.15 71.22 87.94 67.18 89.50 C 61.42 91.71 55.07 91.81 49.05 90.91 C 44.69 89.41 40.01 88.51 35.43 89.51 C 34.63 90.42 34.03 91.47 33.36 92.47 C 32.47 92.53 31.57 92.60 30.68 92.66 C 30.42 93.18 29.89 94.22 29.63 94.75 C 29.45 94.62 29.11 94.36 28.94 94.23 C 28.70 92.63 28.51 91.03 28.32 89.43 C 29.61 89.08 30.90 88.73 32.20 88.38 C 34.20 85.81 36.48 83.47 38.89 81.28 C 40.83 82.92 42.83 84.47 44.89 85.95 C 47.47 83.51 50.09 80.26 53.98 80.30 Z" />
<path fill="#b37d4e" opacity="1.00" d=" M 88.80 87.53 C 93.11 85.29 93.85 79.42 98.39 77.61 C 96.15 83.64 91.72 88.63 87.16 93.05 C 87.69 91.21 88.26 89.37 88.80 87.53 Z" />
<path fill="#cc808b" opacity="1.00" d=" M 28.93 79.67 C 30.88 79.02 32.90 78.58 34.95 78.39 C 34.92 81.27 32.05 82.25 30.05 83.59 C 27.76 82.80 25.58 81.72 23.67 80.23 C 24.16 80.08 25.14 79.79 25.63 79.64 C 26.42 79.41 28.01 78.93 28.81 78.70 L 28.93 79.67 Z" />
<path fill="#b0495e" opacity="1.00" d=" M 22.36 79.99 C 22.69 80.05 23.34 80.17 23.67 80.23 C 25.58 81.72 27.76 82.80 30.05 83.59 C 26.72 84.61 22.76 86.36 19.52 84.23 C 19.46 82.27 21.14 81.21 22.36 79.99 Z" />
<path fill="#dac36b" opacity="1.00" d=" M 17.53 90.59 C 17.85 88.91 18.14 87.22 18.35 85.52 C 20.60 86.44 23.02 86.76 25.44 86.72 C 23.66 87.45 21.84 88.04 19.96 88.46 C 21.86 88.66 23.75 88.93 25.63 89.20 C 25.98 90.45 26.33 91.70 26.68 92.95 L 26.90 93.75 C 26.46 94.82 26.01 95.89 25.55 96.95 C 23.80 96.43 22.06 95.90 20.35 95.27 C 19.33 93.91 18.43 92.48 17.44 91.10 L 17.53 90.59 Z" />
<path fill="#c6a25e" opacity="1.00" d=" M 70.90 94.89 C 75.09 93.54 79.25 91.22 80.95 86.90 C 81.50 87.00 82.59 87.18 83.14 87.27 C 80.29 88.33 80.74 91.27 80.33 93.70 C 76.46 97.04 72.08 99.75 67.58 102.15 C 65.39 102.46 63.17 102.21 61.08 101.54 C 60.56 101.28 59.53 100.77 59.01 100.51 C 57.67 101.15 56.47 102.41 54.90 102.41 C 49.97 102.23 44.84 103.53 40.09 101.73 C 36.20 100.42 32.14 99.21 28.98 96.46 C 31.76 96.17 34.52 95.76 37.26 95.21 C 37.41 96.00 37.56 96.80 37.72 97.60 C 43.97 97.70 50.23 97.43 56.39 96.35 C 61.28 96.45 66.08 95.56 70.90 94.89 Z" />
<path fill="#ac7351" opacity="1.00" d=" M 80.33 93.70 C 80.74 91.27 80.29 88.33 83.14 87.27 C 84.68 87.52 86.23 87.75 87.78 87.98 C 85.30 91.97 83.48 96.49 80.05 99.81 C 76.91 99.56 74.14 101.17 71.16 101.78 C 70.26 101.87 68.47 102.05 67.58 102.15 C 72.08 99.75 76.46 97.04 80.33 93.70 Z" />
<path fill="#b37d4e" opacity="1.00" d=" M 25.55 96.95 C 26.01 95.89 26.46 94.82 26.90 93.75 C 27.56 94.68 28.26 95.58 28.98 96.46 C 32.14 99.21 36.20 100.42 40.09 101.73 C 44.84 103.53 49.97 102.23 54.90 102.41 C 54.68 102.87 54.25 103.79 54.03 104.25 C 45.50 104.95 36.24 104.49 28.99 99.41 C 25.37 102.11 22.20 98.07 20.35 95.27 C 22.06 95.90 23.80 96.43 25.55 96.95 Z" />
<path fill="#080e23" opacity="0.45" d=" M 83.12 101.73 C 83.97 100.59 85.57 100.66 86.77 101.13 C 86.72 102.65 83.98 102.64 83.12 101.73 Z" />
<path fill="#824346" opacity="1.00" d=" M 61.08 101.54 C 63.17 102.21 65.39 102.46 67.58 102.15 C 68.47 102.05 70.26 101.87 71.16 101.78 C 68.45 104.03 64.71 104.22 61.55 105.55 C 61.39 104.21 61.23 102.88 61.08 101.54 Z" />
</svg>
