<?xml version="1.0" encoding="UTF-8" ?>
<!DOCTYPE svg PUBLIC "-//W3C//DTD SVG 1.1//EN" "http://www.w3.org/Graphics/SVG/1.1/DTD/svg11.dtd">
<svg width="111pt" height="111pt" viewBox="0 0 111 111" version="1.1" xmlns="http://www.w3.org/2000/svg">
<path fill="#000000" opacity="1.00" d=" M 9.56 0.00 L 14.60 0.00 C 13.59 9.00 12.66 18.85 17.19 27.10 C 16.05 28.31 14.84 29.46 13.81 30.77 C 14.34 32.63 15.14 34.40 15.86 36.20 C 17.61 34.50 19.34 32.79 21.04 31.05 C 17.55 27.74 18.75 22.74 19.79 18.63 C 22.25 23.11 25.79 26.81 29.58 30.18 C 27.52 34.75 24.44 38.74 20.97 42.32 C 21.90 42.92 22.84 43.53 23.77 44.13 C 24.74 42.17 25.84 40.28 27.06 38.46 C 28.51 41.92 29.00 45.65 29.25 49.36 C 30.78 50.12 32.31 50.89 33.84 51.65 C 34.48 51.17 35.76 50.22 36.39 49.74 C 37.22 51.61 38.10 53.45 39.04 55.27 C 42.17 53.53 45.73 53.24 49.25 53.34 C 52.49 48.42 56.72 44.06 62.31 41.88 C 62.22 45.13 62.03 48.37 61.82 51.62 C 68.58 47.59 75.71 44.13 82.09 39.49 C 81.95 38.06 81.90 36.64 81.95 35.21 C 84.05 33.44 86.41 32.01 88.62 30.39 C 87.99 28.20 87.34 26.01 86.69 23.82 C 82.48 23.08 78.23 22.66 73.95 22.61 C 71.39 22.43 68.36 22.57 66.37 20.67 C 64.75 18.30 64.24 15.39 63.35 12.71 C 66.34 14.65 69.36 16.86 72.99 17.35 C 76.61 18.06 80.21 16.95 83.69 16.08 C 82.51 9.99 79.21 4.58 75.11 0.00 L 77.60 0.00 C 81.28 4.52 84.65 9.69 85.25 15.63 C 85.00 16.23 84.49 17.44 84.24 18.05 C 81.14 18.39 78.11 19.29 74.98 19.27 C 71.41 19.21 68.26 17.34 65.08 15.98 C 66.25 17.40 66.83 19.75 68.89 20.20 C 72.68 21.21 76.64 20.80 80.51 20.80 C 83.16 21.15 85.76 21.74 88.36 22.33 C 88.80 23.51 89.26 24.69 89.66 25.88 C 89.94 27.58 90.72 29.32 90.26 31.06 C 89.12 33.86 85.93 34.70 83.50 36.01 C 83.69 36.60 84.07 37.78 84.26 38.37 C 83.95 39.62 83.32 40.75 82.47 41.71 C 76.46 45.43 70.35 48.98 64.09 52.26 C 63.83 52.38 63.30 52.61 63.04 52.72 C 62.36 54.74 61.67 56.76 60.99 58.78 C 65.30 55.93 69.98 53.69 74.38 50.97 C 76.28 50.48 78.20 50.01 80.10 49.50 C 82.03 48.17 84.15 47.19 86.28 46.25 C 86.94 44.94 87.46 43.54 88.36 42.37 C 90.65 41.07 93.31 40.66 95.82 39.98 C 94.99 37.31 94.14 34.62 93.77 31.84 C 95.02 30.04 97.57 30.63 99.42 30.10 C 100.01 21.99 99.91 13.84 99.53 5.72 C 98.72 12.83 99.06 20.18 96.53 26.99 C 94.15 25.33 92.02 23.35 90.13 21.15 C 91.02 20.07 91.92 19.00 92.82 17.93 C 91.66 15.72 90.49 13.53 89.26 11.36 C 87.02 6.90 83.87 2.93 79.81 0.00 L 82.90 0.00 C 88.83 4.74 92.18 11.85 95.26 18.62 C 94.31 19.46 93.36 20.30 92.41 21.14 C 93.32 22.06 94.23 22.98 95.15 23.90 C 96.66 15.96 97.27 7.85 99.28 0.00 L 100.47 0.00 C 101.21 4.29 101.55 8.63 101.74 12.98 C 102.01 18.82 102.90 24.83 101.30 30.56 C 100.58 32.84 97.63 32.27 95.83 32.86 C 96.66 35.72 97.55 38.57 98.58 41.36 C 95.62 42.16 92.66 42.98 89.75 43.92 C 89.30 45.09 88.78 46.21 88.17 47.29 C 84.48 49.95 80.21 51.65 75.82 52.80 C 70.38 55.08 65.42 58.36 60.29 61.27 C 66.63 74.29 79.45 81.98 90.39 90.69 C 97.16 95.22 104.16 99.42 111.00 103.86 L 111.00 106.47 C 108.51 104.76 105.86 103.32 103.30 101.73 L 102.86 101.43 C 100.01 99.48 97.08 97.68 94.15 95.86 C 92.90 95.06 91.67 94.22 90.46 93.37 C 85.67 89.94 81.20 86.11 76.56 82.50 C 71.84 79.20 67.06 75.82 63.48 71.24 C 61.40 68.02 59.65 64.62 57.73 61.31 C 59.56 58.02 60.77 54.37 60.58 50.57 C 60.63 48.54 60.61 46.52 60.60 44.49 C 57.19 46.94 54.09 49.80 51.43 53.06 C 51.44 53.68 51.46 54.93 51.46 55.55 C 49.00 55.30 46.53 55.03 44.06 54.93 C 42.43 55.53 40.85 56.26 39.41 57.24 C 38.27 58.07 37.17 58.95 36.10 59.87 L 35.45 60.46 C 35.03 60.63 34.19 60.97 33.77 61.14 C 34.58 60.06 35.38 58.98 36.19 57.90 C 33.54 56.58 30.89 55.28 28.23 53.98 C 30.08 59.12 31.66 64.49 30.43 69.98 C 32.87 72.42 34.36 75.50 34.43 78.98 C 35.28 79.82 36.12 80.66 36.98 81.50 C 37.09 80.67 37.33 79.03 37.45 78.20 C 38.49 78.92 40.38 78.88 40.82 80.21 C 40.39 80.71 39.52 81.70 39.09 82.19 C 40.29 81.93 41.50 81.68 42.70 81.44 C 48.52 81.30 52.29 76.60 55.72 72.54 C 56.21 77.15 50.97 79.47 48.31 82.47 C 48.60 82.88 49.18 83.69 49.47 84.10 C 51.78 87.42 54.47 90.76 54.91 94.94 C 55.63 99.81 57.14 104.53 57.62 109.43 C 57.63 109.82 57.64 110.61 57.64 111.00 L 55.23 111.00 C 54.93 105.01 53.61 99.15 53.10 93.19 C 51.54 89.34 48.80 86.13 46.74 82.55 C 42.38 83.00 37.18 84.65 33.46 81.41 C 31.37 79.99 32.02 77.28 32.00 75.14 C 30.88 73.83 29.61 72.62 28.74 71.12 C 28.17 68.28 28.97 65.42 29.54 62.65 C 27.86 58.15 23.40 56.26 19.49 54.15 C 17.64 53.44 18.64 51.21 18.54 49.76 C 15.08 48.81 10.82 48.41 9.44 44.49 C 6.10 42.15 2.67 39.84 0.00 36.71 L 0.00 30.56 C 2.38 32.96 5.48 34.39 8.79 34.97 C 7.52 33.89 6.24 32.82 4.95 31.76 C 6.47 21.17 7.12 10.43 9.56 0.00 M 11.30 0.37 C 8.27 9.64 8.84 19.51 7.66 29.07 C 7.25 29.51 6.44 30.39 6.04 30.83 C 7.69 31.83 9.90 32.45 10.50 34.53 C 7.85 38.58 2.46 35.13 0.01 32.64 C 1.61 38.55 7.56 42.61 13.33 44.16 C 13.10 44.60 12.64 45.48 12.41 45.92 C 13.42 46.15 15.43 46.61 16.44 46.83 C 16.49 46.42 16.58 45.59 16.63 45.17 C 19.87 40.13 24.33 35.99 27.35 30.79 C 24.89 28.29 22.52 25.70 20.59 22.77 C 20.57 24.41 20.56 26.04 20.54 27.68 C 22.16 28.31 24.24 28.80 23.45 31.04 C 21.32 34.47 18.14 38.22 13.88 38.70 C 13.67 37.18 13.60 35.59 12.75 34.26 C 12.57 32.56 12.16 30.86 12.30 29.14 C 12.88 27.63 14.32 26.19 13.30 24.52 C 9.86 16.76 12.15 8.07 12.93 0.01 L 11.30 0.37 M 26.84 41.69 C 25.89 43.41 25.98 46.74 23.24 46.26 C 22.05 45.55 20.85 44.85 19.65 44.16 C 18.69 44.83 17.74 45.51 16.79 46.20 C 18.51 47.37 20.29 48.45 21.97 49.68 C 21.54 50.28 20.67 51.48 20.24 52.08 C 22.58 53.24 24.88 54.47 27.10 55.84 C 27.11 55.01 27.14 53.34 27.15 52.51 C 30.77 52.76 33.97 54.67 37.32 55.87 C 36.88 54.59 36.45 53.31 36.01 52.03 C 35.45 52.26 34.34 52.73 33.78 52.97 C 31.64 52.11 29.52 51.22 27.41 50.27 C 27.34 47.40 27.13 44.54 26.84 41.69 Z" />
<path fill="#d07b8e" opacity="1.00" d=" M 77.60 0.00 L 79.81 0.00 C 83.87 2.93 87.02 6.90 89.26 11.36 C 88.89 12.59 88.54 13.82 88.19 15.05 C 87.21 15.25 86.23 15.44 85.25 15.63 C 84.65 9.69 81.28 4.52 77.60 0.00 Z" />
<path fill="#fffeec" opacity="1.00" d=" M 11.30 0.37 L 12.93 0.01 C 12.15 8.07 9.86 16.76 13.30 24.52 C 11.38 25.98 9.41 27.40 7.66 29.07 C 8.84 19.51 8.27 9.64 11.30 0.37 Z" />
<path fill="#c25874" opacity="1.00" d=" M 99.53 5.72 C 99.91 13.84 100.01 21.99 99.42 30.10 C 97.57 30.63 95.02 30.04 93.77 31.84 C 94.14 34.62 94.99 37.31 95.82 39.98 C 93.31 40.66 90.65 41.07 88.36 42.37 C 87.46 43.54 86.94 44.94 86.28 46.25 C 84.15 47.19 82.03 48.17 80.10 49.50 C 78.20 50.01 76.28 50.48 74.38 50.97 C 74.64 50.41 75.17 49.29 75.44 48.73 C 78.63 46.83 81.92 45.12 85.20 43.38 C 84.90 42.90 84.31 41.93 84.01 41.44 C 83.63 41.51 82.86 41.64 82.47 41.71 C 83.32 40.75 83.95 39.62 84.26 38.37 C 86.61 40.30 89.90 39.82 92.42 38.51 C 93.77 34.56 93.93 30.21 93.29 26.11 C 91.96 25.26 90.60 24.45 89.22 23.68 L 89.66 25.88 C 89.26 24.69 88.80 23.51 88.36 22.33 C 85.76 21.74 83.16 21.15 80.51 20.80 C 83.98 20.54 87.91 19.07 88.19 15.05 C 88.54 13.82 88.89 12.59 89.26 11.36 C 90.49 13.53 91.66 15.72 92.82 17.93 C 91.92 19.00 91.02 20.07 90.13 21.15 C 92.02 23.35 94.15 25.33 96.53 26.99 C 99.06 20.18 98.72 12.83 99.53 5.72 Z" />
<path fill="#fff3e1" opacity="1.00" d=" M 85.25 15.63 C 86.23 15.44 87.21 15.25 88.19 15.05 C 87.91 19.07 83.98 20.54 80.51 20.80 C 76.64 20.80 72.68 21.21 68.89 20.20 C 66.83 19.75 66.25 17.40 65.08 15.98 C 68.26 17.34 71.41 19.21 74.98 19.27 C 78.11 19.29 81.14 18.39 84.24 18.05 C 84.49 17.44 85.00 16.23 85.25 15.63 Z" />
<path fill="#fff3e1" opacity="1.00" d=" M 20.59 22.77 C 22.52 25.70 24.89 28.29 27.35 30.79 C 24.33 35.99 19.87 40.13 16.63 45.17 C 16.58 45.59 16.49 46.42 16.44 46.83 C 15.43 46.61 13.42 46.15 12.41 45.92 C 12.64 45.48 13.10 44.60 13.33 44.16 C 7.56 42.61 1.61 38.55 0.01 32.64 C 2.46 35.13 7.85 38.58 10.50 34.53 C 10.81 33.96 11.42 32.83 11.73 32.26 C 11.98 32.76 12.49 33.76 12.75 34.26 C 13.60 35.59 13.67 37.18 13.88 38.70 C 18.14 38.22 21.32 34.47 23.45 31.04 C 24.24 28.80 22.16 28.31 20.54 27.68 C 20.56 26.04 20.57 24.41 20.59 22.77 Z" />
<path fill="#cd6d84" opacity="1.00" d=" M 7.66 29.07 C 9.41 27.40 11.38 25.98 13.30 24.52 C 14.32 26.19 12.88 27.63 12.30 29.14 C 12.16 30.86 12.57 32.56 12.75 34.26 C 12.49 33.76 11.98 32.76 11.73 32.26 C 11.42 32.83 10.81 33.96 10.50 34.53 C 9.90 32.45 7.69 31.83 6.04 30.83 C 6.44 30.39 7.25 29.51 7.66 29.07 Z" />
<path fill="#f9e3d6" opacity="1.00" d=" M 89.22 23.68 C 90.60 24.45 91.96 25.26 93.29 26.11 C 93.93 30.21 93.77 34.56 92.42 38.51 C 89.90 39.82 86.61 40.30 84.26 38.37 C 84.07 37.78 83.69 36.60 83.50 36.01 C 85.93 34.70 89.12 33.86 90.26 31.06 C 90.72 29.32 89.94 27.58 89.66 25.88 L 89.22 23.68 Z" />
<path fill="#c25875" opacity="1.00" d=" M 26.84 41.69 C 27.13 44.54 27.34 47.40 27.41 50.27 C 29.52 51.22 31.64 52.11 33.78 52.97 C 34.34 52.73 35.45 52.26 36.01 52.03 C 36.45 53.31 36.88 54.59 37.32 55.87 C 33.97 54.67 30.77 52.76 27.15 52.51 C 27.14 53.34 27.11 55.01 27.10 55.84 C 24.88 54.47 22.58 53.24 20.24 52.08 C 20.67 51.48 21.54 50.28 21.97 49.68 C 23.49 49.18 25.00 48.67 26.52 48.17 C 25.42 47.53 24.33 46.90 23.24 46.26 C 25.98 46.74 25.89 43.41 26.84 41.69 Z" />
<path fill="#fffae7" opacity="1.00" d=" M 64.09 52.26 C 70.35 48.98 76.46 45.43 82.47 41.71 C 82.86 41.64 83.63 41.51 84.01 41.44 C 84.31 41.93 84.90 42.90 85.20 43.38 C 81.92 45.12 78.63 46.83 75.44 48.73 C 72.39 50.31 69.38 51.98 66.20 53.30 C 65.68 53.04 64.62 52.52 64.09 52.26 Z" />
<path fill="#f0c5c2" opacity="1.00" d=" M 16.79 46.20 C 17.74 45.51 18.69 44.83 19.65 44.16 C 20.85 44.85 22.05 45.55 23.24 46.26 C 24.33 46.90 25.42 47.53 26.52 48.17 C 25.00 48.67 23.49 49.18 21.97 49.68 C 20.29 48.45 18.51 47.37 16.79 46.20 Z" />
<path fill="#6c4355" opacity="1.00" d=" M 51.43 53.06 C 54.09 49.80 57.19 46.94 60.60 44.49 C 60.61 46.52 60.63 48.54 60.58 50.57 C 58.75 52.93 56.56 55.23 55.83 58.22 C 54.98 61.53 54.87 65.09 53.18 68.15 C 50.99 72.16 47.15 74.82 44.10 78.12 C 43.99 76.19 43.77 74.26 43.64 72.33 C 46.25 71.17 49.29 70.44 51.23 68.18 C 52.30 66.26 52.41 63.99 52.87 61.88 C 51.40 62.17 49.93 62.44 48.47 62.76 C 47.34 63.00 46.21 63.22 45.07 63.44 C 44.84 62.06 44.60 60.69 44.42 59.30 C 44.26 57.85 44.17 56.39 44.06 54.93 C 46.53 55.03 49.00 55.30 51.46 55.55 C 51.46 54.93 51.44 53.68 51.43 53.06 M 46.40 59.29 C 47.11 60.46 48.47 60.40 49.65 60.50 C 49.33 59.43 49.09 58.25 48.13 57.53 C 47.70 57.97 46.83 58.85 46.40 59.29 Z" />
<path fill="#cd6d84" opacity="1.00" d=" M 66.20 53.30 C 69.38 51.98 72.39 50.31 75.44 48.73 C 75.17 49.29 74.64 50.41 74.38 50.97 C 69.98 53.69 65.30 55.93 60.99 58.78 C 61.67 56.76 62.36 54.74 63.04 52.72 C 63.30 52.61 63.83 52.38 64.09 52.26 C 64.62 52.52 65.68 53.04 66.20 53.30 Z" />
<path fill="#4e2b46" opacity="1.00" d=" M 55.83 58.22 C 56.56 55.23 58.75 52.93 60.58 50.57 C 60.77 54.37 59.56 58.02 57.73 61.31 C 55.54 64.70 54.56 68.61 55.72 72.54 C 52.29 76.60 48.52 81.30 42.70 81.44 C 43.17 80.33 43.63 79.23 44.10 78.12 C 47.15 74.82 50.99 72.16 53.18 68.15 C 54.87 65.09 54.98 61.53 55.83 58.22 Z" />
<path fill="#7e515e" opacity="1.00" d=" M 28.23 53.98 C 30.89 55.28 33.54 56.58 36.19 57.90 C 35.38 58.98 34.58 60.06 33.77 61.14 C 34.19 60.97 35.03 60.63 35.45 60.46 C 35.87 62.12 39.36 61.83 38.05 59.94 C 37.56 59.93 36.59 59.89 36.10 59.87 C 37.17 58.95 38.27 58.07 39.41 57.24 C 39.49 60.07 42.53 59.44 44.42 59.30 C 44.60 60.69 44.84 62.06 45.07 63.44 C 46.21 63.22 47.34 63.00 48.47 62.76 C 46.03 65.38 43.21 68.46 43.64 72.33 C 43.77 74.26 43.99 76.19 44.10 78.12 C 43.63 79.23 43.17 80.33 42.70 81.44 C 41.50 81.68 40.29 81.93 39.09 82.19 C 39.52 81.70 40.39 80.71 40.82 80.21 C 40.38 78.88 38.49 78.92 37.45 78.20 C 37.33 79.03 37.09 80.67 36.98 81.50 C 36.12 80.66 35.28 79.82 34.43 78.98 C 34.36 75.50 32.87 72.42 30.43 69.98 C 31.66 64.49 30.08 59.12 28.23 53.98 M 35.31 63.12 C 34.05 64.98 36.79 66.90 37.92 64.96 C 38.49 62.90 36.79 62.98 35.31 63.12 Z" />
<path fill="#fffae7" opacity="1.00" d=" M 39.41 57.24 C 40.85 56.26 42.43 55.53 44.06 54.93 C 44.17 56.39 44.26 57.85 44.42 59.30 C 42.53 59.44 39.49 60.07 39.41 57.24 Z" />
<path fill="#fffeec" opacity="1.00" d=" M 46.40 59.29 C 46.83 58.85 47.70 57.97 48.13 57.53 C 49.09 58.25 49.33 59.43 49.65 60.50 C 48.47 60.40 47.11 60.46 46.40 59.29 Z" />
<path fill="#fffeec" opacity="1.00" d=" M 36.10 59.87 C 36.59 59.89 37.56 59.93 38.05 59.94 C 39.36 61.83 35.87 62.12 35.45 60.46 L 36.10 59.87 Z" />
<path fill="#000000" opacity="1.00" d=" M 48.47 62.76 C 49.93 62.44 51.40 62.17 52.87 61.88 C 52.41 63.99 52.30 66.26 51.23 68.18 C 49.29 70.44 46.25 71.17 43.64 72.33 C 43.21 68.46 46.03 65.38 48.47 62.76 M 48.49 64.29 C 46.76 66.25 45.32 68.44 44.18 70.80 C 45.97 70.17 47.77 69.56 49.58 69.02 C 51.02 67.24 51.18 64.97 51.23 62.77 C 50.31 63.28 49.40 63.78 48.49 64.29 Z" />
<path fill="#3d233b" opacity="1.00" d=" M 55.72 72.54 C 54.56 68.61 55.54 64.70 57.73 61.31 C 59.65 64.62 61.40 68.02 63.48 71.24 C 62.14 71.71 60.80 72.19 59.46 72.66 C 60.47 73.21 61.47 73.75 62.48 74.31 C 60.90 76.10 59.26 77.89 57.19 79.11 C 54.56 80.69 51.98 82.35 49.47 84.10 C 49.18 83.69 48.60 82.88 48.31 82.47 C 50.97 79.47 56.21 77.15 55.72 72.54 Z" />
<path fill="#fffeec" opacity="1.00" d=" M 35.31 63.12 C 36.79 62.98 38.49 62.90 37.92 64.96 C 36.79 66.90 34.05 64.98 35.31 63.12 Z" />
<path fill="#940866" opacity="1.00" d=" M 48.49 64.29 C 49.40 63.78 50.31 63.28 51.23 62.77 C 51.18 64.97 51.02 67.24 49.58 69.02 C 49.31 67.84 48.76 65.47 48.49 64.29 Z" />
<path fill="#e93680" opacity="1.00" d=" M 44.18 70.80 C 45.32 68.44 46.76 66.25 48.49 64.29 C 48.76 65.47 49.31 67.84 49.58 69.02 C 47.77 69.56 45.97 70.17 44.18 70.80 Z" />
<path fill="#7a4e5b" opacity="1.00" d=" M 59.46 72.66 C 60.80 72.19 62.14 71.71 63.48 71.24 C 67.06 75.82 71.84 79.20 76.56 82.50 C 81.20 86.11 85.67 89.94 90.46 93.37 C 89.36 95.26 89.91 96.97 91.74 98.09 C 92.54 97.35 93.35 96.60 94.15 95.86 C 97.08 97.68 100.01 99.48 102.86 101.43 C 102.20 101.91 100.90 102.85 100.25 103.33 C 101.30 103.84 102.37 104.34 103.46 104.79 C 103.42 104.03 103.34 102.50 103.30 101.73 C 105.86 103.32 108.51 104.76 111.00 106.47 L 111.00 111.00 L 104.40 111.00 C 103.51 109.72 103.44 107.38 101.44 107.47 C 100.25 108.29 100.13 109.68 100.18 111.00 L 73.80 111.00 C 74.03 107.68 74.24 104.36 74.42 101.04 C 73.63 101.56 72.84 102.08 72.06 102.60 C 66.64 95.06 62.31 86.84 57.19 79.11 C 59.26 77.89 60.90 76.10 62.48 74.31 C 61.47 73.75 60.47 73.21 59.46 72.66 M 81.20 90.53 C 81.60 91.23 82.16 93.95 83.51 92.52 C 85.94 91.53 82.36 89.85 81.20 90.53 Z" />
<path fill="#492944" opacity="1.00" d=" M 49.47 84.10 C 51.98 82.35 54.56 80.69 57.19 79.11 C 62.31 86.84 66.64 95.06 72.06 102.60 C 72.84 102.08 73.63 101.56 74.42 101.04 C 74.24 104.36 74.03 107.68 73.80 111.00 L 71.68 111.00 C 72.16 109.84 72.25 108.65 71.94 107.43 C 71.65 107.36 71.07 107.23 70.78 107.17 C 66.26 105.91 61.82 107.99 57.62 109.43 C 57.14 104.53 55.63 99.81 54.91 94.94 C 54.47 90.76 51.78 87.42 49.47 84.10 Z" />
<path fill="#ffffed" opacity="1.00" d=" M 81.20 90.53 C 82.36 89.85 85.94 91.53 83.51 92.52 C 82.16 93.95 81.60 91.23 81.20 90.53 Z" />
<path fill="#fffeec" opacity="1.00" d=" M 91.74 98.09 C 89.91 96.97 89.36 95.26 90.46 93.37 C 91.67 94.22 92.90 95.06 94.15 95.86 C 93.35 96.60 92.54 97.35 91.74 98.09 Z" />
<path fill="#ffffed" opacity="1.00" d=" M 100.25 103.33 C 100.90 102.85 102.20 101.91 102.86 101.43 L 103.30 101.73 C 103.34 102.50 103.42 104.03 103.46 104.79 C 102.37 104.34 101.30 103.84 100.25 103.33 Z" />
<path fill="#382039" opacity="1.00" d=" M 57.62 109.43 C 61.82 107.99 66.26 105.91 70.78 107.17 C 70.22 108.41 70.11 109.69 70.45 111.00 L 57.64 111.00 C 57.64 110.61 57.63 109.82 57.62 109.43 Z" />
<path fill="#1f121f" opacity="1.00" d=" M 70.78 107.17 C 71.07 107.23 71.65 107.36 71.94 107.43 C 72.25 108.65 72.16 109.84 71.68 111.00 L 70.45 111.00 C 70.11 109.69 70.22 108.41 70.78 107.17 Z" />
<path fill="#ffffed" opacity="1.00" d=" M 101.44 107.47 C 103.44 107.38 103.51 109.72 104.40 111.00 L 100.18 111.00 C 100.13 109.68 100.25 108.29 101.44 107.47 Z" />
</svg>
