<?xml version="1.0" encoding="UTF-8" ?>
<!DOCTYPE svg PUBLIC "-//W3C//DTD SVG 1.1//EN" "http://www.w3.org/Graphics/SVG/1.1/DTD/svg11.dtd">
<svg width="111pt" height="111pt" viewBox="0 0 111 111" version="1.1" xmlns="http://www.w3.org/2000/svg">
<path fill="#000000" opacity="1.00" d=" M 43.89 16.86 C 46.90 6.93 58.00 1.08 67.99 2.50 C 71.47 3.01 75.25 2.82 78.33 4.76 C 81.93 6.88 85.69 9.48 87.27 13.52 C 88.55 17.78 87.09 22.24 85.04 26.00 C 82.10 31.46 78.24 36.38 74.01 40.90 C 78.32 40.21 83.66 38.31 87.29 41.72 C 91.41 46.08 93.50 52.02 94.45 57.85 C 95.51 65.50 93.80 74.43 87.37 79.37 C 82.24 83.10 76.08 85.23 69.89 86.36 C 66.64 87.06 63.60 85.37 61.25 83.28 C 61.52 86.97 60.60 90.58 59.87 94.17 C 63.57 92.94 67.80 90.69 71.61 92.64 C 72.82 93.12 72.51 94.81 71.52 95.35 C 67.85 98.43 62.68 99.78 57.99 98.74 C 57.18 100.74 56.34 102.73 55.48 104.71 C 63.77 103.88 72.14 102.77 80.47 103.53 C 83.03 105.13 79.81 106.88 78.09 106.89 C 68.46 108.35 58.69 109.04 48.95 108.85 C 46.91 108.71 44.41 109.09 43.17 107.01 C 46.15 105.30 49.70 105.81 52.85 104.73 C 55.80 98.44 58.52 91.80 59.43 84.87 C 57.79 87.86 56.93 91.66 53.62 93.31 C 47.48 96.21 40.29 95.71 33.84 94.26 C 29.43 93.35 24.81 89.94 25.11 84.98 C 24.60 80.73 27.66 77.42 30.69 74.93 C 27.39 74.75 24.01 73.74 21.78 71.17 C 16.80 65.85 16.51 57.90 17.57 51.08 C 19.06 43.58 23.23 36.12 30.09 32.34 C 34.01 30.17 38.93 30.99 42.33 33.75 C 41.02 28.11 42.41 22.32 43.89 16.86 M 47.32 14.56 C 43.50 23.02 42.93 33.16 46.94 41.67 C 49.35 41.13 51.80 41.48 54.21 41.77 C 57.58 42.83 60.76 44.43 63.48 46.70 C 71.08 40.89 77.48 33.53 82.27 25.26 C 84.06 21.96 85.73 18.07 84.56 14.29 C 83.46 11.15 80.17 9.84 77.65 8.08 C 68.07 1.88 53.05 4.22 47.32 14.56 M 28.95 36.10 C 21.26 42.45 18.02 53.44 20.32 63.04 C 21.05 66.53 23.19 69.53 26.08 71.57 C 27.98 72.47 29.99 73.09 32.07 73.44 C 32.59 73.88 33.63 74.76 34.15 75.19 C 30.24 76.67 26.49 80.56 27.14 85.06 C 27.20 89.19 31.43 91.38 34.97 92.11 C 40.87 92.99 47.58 93.96 53.07 91.05 C 57.06 87.53 58.21 81.34 57.45 76.26 C 53.65 78.02 49.60 79.26 45.40 79.46 C 42.24 78.83 39.12 77.42 37.47 74.50 C 37.07 74.56 36.26 74.68 35.85 74.74 C 36.74 74.32 37.64 73.93 38.50 73.46 C 40.35 76.47 43.64 77.81 47.00 78.33 C 47.74 78.07 48.48 77.81 49.22 77.55 C 55.78 76.86 61.92 73.12 65.93 67.94 C 69.00 63.96 68.35 58.56 66.84 54.10 C 67.22 53.76 68.00 53.08 68.38 52.74 C 68.39 52.92 68.42 53.29 68.43 53.47 C 71.00 59.11 70.06 65.97 65.68 70.44 C 63.43 72.32 61.05 74.05 58.63 75.71 C 60.46 78.61 62.15 81.96 65.30 83.65 C 69.41 84.61 73.51 83.00 77.34 81.64 C 82.37 79.79 87.85 77.12 89.97 71.82 L 90.24 71.83 C 94.06 62.04 91.91 49.71 84.18 42.42 C 80.66 42.23 77.19 42.84 73.80 43.73 C 70.67 44.99 68.28 47.50 65.17 48.80 L 65.85 49.06 C 65.30 49.21 64.19 49.52 63.64 49.67 C 60.37 46.48 56.24 44.16 51.74 43.30 C 50.48 43.28 49.23 43.25 47.99 43.21 C 40.04 48.77 35.86 58.73 36.90 68.30 C 36.48 68.57 35.65 69.11 35.24 69.37 C 35.15 67.18 35.10 65.00 34.99 62.81 C 35.79 55.11 39.49 47.62 45.82 43.00 C 44.41 39.93 42.78 36.81 39.76 35.04 C 36.53 32.41 31.87 33.58 28.95 36.10 M 58.79 96.57 C 63.01 97.34 67.51 96.50 70.90 93.79 C 66.64 93.23 62.63 94.98 58.79 96.57 Z" />
<path fill="#fffde5" opacity="1.00" d=" M 47.32 14.56 C 53.05 4.22 68.07 1.88 77.65 8.08 C 72.97 21.10 64.77 32.84 54.21 41.77 C 51.80 41.48 49.35 41.13 46.94 41.67 C 42.93 33.16 43.50 23.02 47.32 14.56 Z" />
<path fill="#dc8fa1" opacity="1.00" d=" M 77.65 8.08 C 80.17 9.84 83.46 11.15 84.56 14.29 C 85.73 18.07 84.06 21.96 82.27 25.26 C 77.48 33.53 71.08 40.89 63.48 46.70 C 60.76 44.43 57.58 42.83 54.21 41.77 C 64.77 32.84 72.97 21.10 77.65 8.08 Z" />
<path fill="#fffde5" opacity="1.00" d=" M 28.95 36.10 C 31.87 33.58 36.53 32.41 39.76 35.04 C 42.78 36.81 44.41 39.93 45.82 43.00 C 39.49 47.62 35.79 55.11 34.99 62.81 C 34.65 64.38 34.23 65.93 33.81 67.49 C 31.12 68.62 28.52 69.98 26.08 71.57 C 23.19 69.53 21.05 66.53 20.32 63.04 C 18.02 53.44 21.26 42.45 28.95 36.10 Z" />
<path fill="#fffde5" opacity="1.00" d=" M 73.80 43.73 C 77.19 42.84 80.66 42.23 84.18 42.42 C 91.91 49.71 94.06 62.04 90.24 71.83 L 89.97 71.82 C 81.86 71.57 73.73 71.64 65.68 70.44 C 70.06 65.97 71.00 59.11 68.43 53.47 C 71.40 51.27 74.91 50.01 78.21 48.41 C 76.75 46.84 75.28 45.28 73.80 43.73 Z" />
<path fill="#ffe05c" opacity="1.00" d=" M 36.90 68.30 C 35.86 58.73 40.04 48.77 47.99 43.21 C 49.23 43.25 50.48 43.28 51.74 43.30 C 54.09 47.68 57.15 51.69 58.85 56.40 C 59.20 59.38 59.86 62.58 58.42 65.39 C 56.23 70.05 52.14 73.39 49.22 77.55 C 48.48 77.81 47.74 78.07 47.00 78.33 C 43.64 77.81 40.35 76.47 38.50 73.46 C 39.85 71.95 43.14 68.87 39.97 67.52 C 39.20 67.72 37.67 68.11 36.90 68.30 M 50.11 53.00 L 49.71 53.35 C 48.43 54.93 47.63 57.76 50.04 58.74 C 52.61 60.63 55.57 56.92 54.54 54.44 C 53.93 52.51 51.73 52.22 50.11 53.00 M 47.12 70.04 C 49.48 69.77 51.36 68.29 51.04 65.68 C 49.73 67.13 48.38 68.55 47.12 70.04 Z" />
<path fill="#d2814c" opacity="1.00" d=" M 51.74 43.30 C 56.24 44.16 60.37 46.48 63.64 49.67 C 61.89 51.16 60.44 52.97 59.36 55.00 C 59.23 55.35 58.98 56.05 58.85 56.40 C 57.15 51.69 54.09 47.68 51.74 43.30 Z" />
<path fill="#f4dbd1" opacity="1.00" d=" M 65.17 48.80 C 68.28 47.50 70.67 44.99 73.80 43.73 C 75.28 45.28 76.75 46.84 78.21 48.41 C 74.91 50.01 71.40 51.27 68.43 53.47 C 68.42 53.29 68.39 52.92 68.38 52.74 C 68.66 50.80 67.81 49.40 65.85 49.06 L 65.17 48.80 Z" />
<path fill="#ff3d83" opacity="1.00" d=" M 65.85 49.06 C 67.81 49.40 68.66 50.80 68.38 52.74 C 68.00 53.08 67.22 53.76 66.84 54.10 C 64.66 55.86 61.91 55.68 59.36 55.00 C 60.44 52.97 61.89 51.16 63.64 49.67 C 64.19 49.52 65.30 49.21 65.85 49.06 Z" />
<path fill="#000000" opacity="1.00" d=" M 50.11 53.00 C 51.73 52.22 53.93 52.51 54.54 54.44 C 55.57 56.92 52.61 60.63 50.04 58.74 C 47.63 57.76 48.43 54.93 49.71 53.35 C 49.56 54.47 49.90 55.28 50.74 55.78 C 52.82 55.70 51.46 53.13 50.11 53.00 Z" />
<path fill="#f7f4ea" opacity="1.00" d=" M 49.71 53.35 L 50.11 53.00 C 51.46 53.13 52.82 55.70 50.74 55.78 C 49.90 55.28 49.56 54.47 49.71 53.35 Z" />
<path fill="#c56347" opacity="1.00" d=" M 59.36 55.00 C 61.91 55.68 64.66 55.86 66.84 54.10 C 68.35 58.56 69.00 63.96 65.93 67.94 C 61.92 73.12 55.78 76.86 49.22 77.55 C 52.14 73.39 56.23 70.05 58.42 65.39 C 59.86 62.58 59.20 59.38 58.85 56.40 C 58.98 56.05 59.23 55.35 59.36 55.00 Z" />
<path fill="#f2d5cc" opacity="1.00" d=" M 33.81 67.49 C 34.23 65.93 34.65 64.38 34.99 62.81 C 35.10 65.00 35.15 67.18 35.24 69.37 C 34.10 70.67 33.09 72.06 32.07 73.44 C 29.99 73.09 27.98 72.47 26.08 71.57 C 28.52 69.98 31.12 68.62 33.81 67.49 Z" />
<path fill="#000000" opacity="1.00" d=" M 47.12 70.04 C 48.38 68.55 49.73 67.13 51.04 65.68 C 51.36 68.29 49.48 69.77 47.12 70.04 Z" />
<path fill="#ff3d83" opacity="1.00" d=" M 36.90 68.30 C 37.67 68.11 39.20 67.72 39.97 67.52 C 43.14 68.87 39.85 71.95 38.50 73.46 C 37.64 73.93 36.74 74.32 35.85 74.74 C 35.43 74.85 34.57 75.08 34.15 75.19 C 33.63 74.76 32.59 73.88 32.07 73.44 C 33.09 72.06 34.10 70.67 35.24 69.37 C 35.65 69.11 36.48 68.57 36.90 68.30 Z" />
<path fill="#e9b8ba" opacity="1.00" d=" M 58.63 75.71 C 61.05 74.05 63.43 72.32 65.68 70.44 C 73.73 71.64 81.86 71.57 89.97 71.82 C 87.85 77.12 82.37 79.79 77.34 81.64 C 73.51 83.00 69.41 84.61 65.30 83.65 C 62.15 81.96 60.46 78.61 58.63 75.71 Z" />
<path fill="#fefbe4" opacity="1.00" d=" M 34.15 75.19 C 34.57 75.08 35.43 74.85 35.85 74.74 C 36.26 74.68 37.07 74.56 37.47 74.50 C 39.12 77.42 42.24 78.83 45.40 79.46 C 43.41 83.71 41.67 88.09 39.96 92.47 C 38.29 92.36 36.63 92.27 34.97 92.11 C 31.43 91.38 27.20 89.19 27.14 85.06 C 26.49 80.56 30.24 76.67 34.15 75.19 Z" />
<path fill="#e8b4b8" opacity="1.00" d=" M 45.40 79.46 C 49.60 79.26 53.65 78.02 57.45 76.26 C 58.21 81.34 57.06 87.53 53.07 91.05 C 47.58 93.96 40.87 92.99 34.97 92.11 C 36.63 92.27 38.29 92.36 39.96 92.47 C 41.67 88.09 43.41 83.71 45.40 79.46 Z" />
<path fill="#fffde5" opacity="1.00" d=" M 58.79 96.57 C 62.63 94.98 66.64 93.23 70.90 93.79 C 67.51 96.50 63.01 97.34 58.79 96.57 Z" />
</svg>
