<?xml version="1.0" encoding="UTF-8" ?>
<!DOCTYPE svg PUBLIC "-//W3C//DTD SVG 1.1//EN" "http://www.w3.org/Graphics/SVG/1.1/DTD/svg11.dtd">
<svg width="111pt" height="111pt" viewBox="0 0 111 111" version="1.1" xmlns="http://www.w3.org/2000/svg">
<path fill="#000000" opacity="1.00" d=" M 44.06 29.04 C 47.26 26.09 49.66 21.88 53.86 20.27 C 54.26 20.85 55.05 22.00 55.45 22.57 C 54.92 22.45 53.86 22.20 53.33 22.08 C 50.81 23.14 49.43 25.84 47.30 27.48 C 47.28 27.80 47.26 28.45 47.25 28.77 C 49.22 28.45 50.99 27.33 53.05 27.56 C 54.24 27.57 55.43 27.50 56.61 27.38 C 56.32 26.29 55.75 24.12 55.47 23.03 C 57.38 24.15 57.41 26.64 58.77 28.24 C 62.78 29.12 66.81 30.08 70.59 31.72 C 77.34 34.36 82.99 39.01 88.65 43.42 C 93.55 47.12 97.55 51.81 101.60 56.38 C 104.40 57.96 107.96 57.17 111.00 58.28 L 111.00 59.67 C 110.67 59.60 110.01 59.45 109.68 59.38 C 108.40 59.24 107.12 59.16 105.85 59.12 C 105.21 59.11 103.95 59.08 103.32 59.07 C 103.98 60.30 104.61 61.55 105.10 62.87 C 106.08 64.79 106.27 67.10 107.61 68.82 C 108.54 66.60 109.64 64.47 111.00 62.49 L 111.00 66.38 C 108.05 70.28 110.22 75.20 109.35 79.58 C 103.46 84.43 95.56 85.66 88.62 88.44 C 84.70 89.96 79.97 89.89 76.25 91.24 C 80.56 91.69 84.91 92.43 88.94 94.10 C 90.25 94.44 91.10 95.53 90.98 96.91 C 89.65 99.14 86.79 99.55 84.51 100.30 C 73.15 102.55 61.54 103.09 49.97 102.88 C 38.67 103.01 27.09 101.81 16.63 97.31 C 15.18 95.14 19.54 94.36 20.99 93.63 C 16.89 90.57 11.58 88.87 8.20 84.76 C 6.58 83.28 7.40 80.98 6.96 79.11 C 4.56 75.14 1.43 71.10 0.50 66.59 C 3.31 67.25 6.22 67.40 9.10 67.44 C 13.55 54.85 21.09 42.90 32.04 35.01 C 35.67 32.33 40.00 30.91 44.06 29.04 M 32.45 36.66 C 25.77 42.30 19.51 48.75 15.59 56.66 C 15.33 61.97 10.96 66.40 11.19 71.80 C 14.62 72.29 14.14 76.36 12.83 78.64 C 11.93 79.59 10.94 80.43 9.82 81.11 C 8.86 82.47 9.69 84.30 10.97 85.10 C 15.62 89.13 21.77 91.37 27.66 92.39 C 26.89 91.17 26.54 89.54 25.22 88.75 C 21.71 86.33 19.61 82.52 17.74 78.81 C 16.57 74.97 15.85 70.95 16.30 66.90 C 16.46 63.33 18.63 60.33 20.34 57.33 C 23.02 52.68 27.47 49.38 32.13 46.89 C 33.41 46.48 34.45 45.63 35.59 44.98 C 41.04 41.19 47.61 44.07 53.12 46.12 C 60.23 48.53 65.73 53.87 71.15 58.80 C 71.43 59.69 71.97 60.22 72.78 60.40 C 76.40 64.86 80.06 69.42 82.34 74.75 C 83.35 77.73 83.07 81.36 80.77 83.70 C 79.53 85.50 77.19 86.14 75.99 87.92 C 85.20 86.09 94.40 83.91 103.14 80.38 C 105.30 79.53 108.24 77.84 107.02 75.03 C 106.03 66.43 101.47 58.66 95.75 52.33 L 94.88 51.95 C 93.56 49.61 91.14 47.51 88.79 46.16 C 86.44 43.55 83.20 41.71 80.44 39.48 C 71.59 34.10 61.68 29.26 51.04 29.82 C 44.50 30.94 37.96 32.87 32.45 36.66 M 42.28 45.17 C 41.87 47.32 40.46 49.23 40.53 51.44 C 45.25 51.23 49.52 53.54 53.89 54.96 C 55.30 53.23 56.49 49.30 53.63 48.29 C 50.07 46.73 46.28 44.63 42.28 45.17 M 26.05 54.00 C 24.28 55.31 23.92 58.11 24.96 59.98 C 26.44 60.39 26.97 58.63 27.94 57.94 C 30.55 55.06 33.97 53.17 37.24 51.18 C 38.16 49.38 39.70 47.59 39.49 45.47 C 35.10 48.45 29.92 50.27 26.05 54.00 M 57.42 51.03 C 57.15 52.70 56.52 54.26 56.08 55.89 C 60.49 58.22 65.62 60.23 67.94 64.93 C 69.19 64.83 70.43 64.69 71.67 64.50 C 71.71 64.21 71.77 63.65 71.80 63.36 C 67.26 59.00 62.97 54.13 57.42 51.03 M 36.96 53.80 C 30.11 55.52 25.67 62.17 25.26 68.98 C 24.02 76.92 26.74 84.71 30.20 91.75 C 32.62 93.21 35.18 94.52 37.99 94.99 C 39.66 96.52 41.98 95.36 43.95 95.58 C 48.18 95.58 53.02 96.59 56.53 93.58 C 61.98 90.07 64.04 83.44 64.30 77.31 C 65.43 73.62 65.29 69.74 65.22 65.91 C 64.92 64.67 64.83 63.12 63.59 62.41 C 59.62 59.27 54.92 56.88 49.91 55.98 C 45.93 54.05 41.36 52.21 36.96 53.80 M 19.80 73.88 C 21.40 73.25 22.47 71.76 22.19 70.00 C 22.11 67.48 22.87 65.04 24.00 62.81 C 23.64 61.49 23.27 59.73 21.83 59.18 C 19.63 63.54 16.99 69.51 19.80 73.88 M 67.48 67.55 C 67.60 69.35 67.33 71.18 67.73 72.95 C 70.75 76.27 75.74 76.48 79.93 76.92 C 78.90 72.81 76.31 69.29 73.95 65.84 C 71.92 66.84 69.84 68.01 67.48 67.55 M 2.82 68.35 C 3.22 69.11 4.01 70.61 4.41 71.37 C 5.71 72.31 5.87 74.55 7.58 74.83 C 7.69 73.39 7.80 71.96 7.93 70.53 L 8.50 70.26 C 8.50 69.92 8.50 69.22 8.50 68.88 C 6.59 68.84 4.72 68.50 2.82 68.35 M 8.51 76.29 C 8.45 77.71 7.71 80.06 9.88 80.05 C 10.31 79.48 11.17 78.34 11.60 77.77 L 11.18 77.70 C 11.78 76.30 13.02 74.72 11.74 73.28 C 9.81 72.53 8.90 74.83 8.51 76.29 M 19.98 75.95 C 20.32 78.28 21.03 81.52 23.33 82.52 C 23.33 80.25 22.37 78.13 22.10 75.89 C 21.57 75.91 20.51 75.94 19.98 75.95 M 67.18 76.26 C 66.79 78.04 66.45 79.85 66.24 81.66 C 69.08 82.71 71.69 84.72 74.79 84.81 C 76.54 83.62 79.81 82.09 79.39 79.77 C 75.06 79.90 70.92 78.29 67.18 76.26 M 65.39 84.40 C 65.42 84.89 65.49 85.88 65.52 86.37 C 66.91 86.35 68.31 86.39 69.71 86.41 C 69.19 84.99 66.88 83.93 65.39 84.40 Z" />
<path fill="#fff063" opacity="1.00" d=" M 47.30 27.48 C 49.43 25.84 50.81 23.14 53.33 22.08 C 53.24 23.91 53.13 25.73 53.05 27.56 C 50.99 27.33 49.22 28.45 47.25 28.77 C 47.26 28.45 47.28 27.80 47.30 27.48 Z" />
<path fill="#d4117c" opacity="1.00" d=" M 53.33 22.08 C 53.86 22.20 54.92 22.45 55.45 22.57 C 55.45 22.69 55.46 22.92 55.47 23.03 C 55.75 24.12 56.32 26.29 56.61 27.38 C 55.43 27.50 54.24 27.57 53.05 27.56 C 53.13 25.73 53.24 23.91 53.33 22.08 Z" />
<path fill="#f23b85" opacity="1.00" d=" M 32.45 36.66 C 37.96 32.87 44.50 30.94 51.04 29.82 C 61.68 29.26 71.59 34.10 80.44 39.48 C 83.20 41.71 86.44 43.55 88.79 46.16 C 89.61 48.00 91.01 49.47 92.15 51.12 C 91.25 53.53 88.25 51.55 86.45 51.67 C 85.09 53.85 83.06 55.59 80.33 55.47 C 76.07 55.97 72.24 53.67 68.12 53.12 C 69.08 54.64 70.49 55.79 71.64 57.16 C 71.52 57.57 71.27 58.39 71.15 58.80 C 65.73 53.87 60.23 48.53 53.12 46.12 C 47.61 44.07 41.04 41.19 35.59 44.98 C 35.40 43.12 33.31 40.85 31.56 42.61 C 29.78 43.67 30.82 45.92 32.13 46.89 C 27.47 49.38 23.02 52.68 20.34 57.33 C 18.63 60.33 16.46 63.33 16.30 66.90 C 15.85 70.95 16.57 74.97 17.74 78.81 C 16.10 78.76 14.46 78.72 12.83 78.64 C 14.14 76.36 14.62 72.29 11.19 71.80 C 10.96 66.40 15.33 61.97 15.59 56.66 C 19.51 48.75 25.77 42.30 32.45 36.66 M 41.67 37.57 C 40.85 39.26 40.64 41.74 42.75 42.54 C 45.68 41.70 48.95 40.46 50.43 37.58 C 51.30 35.55 50.25 33.15 48.06 32.64 C 45.44 33.41 42.91 35.06 41.67 37.57 M 29.99 40.16 L 29.48 41.30 C 29.79 41.38 30.41 41.53 30.72 41.61 C 33.89 39.61 37.99 38.27 40.05 35.03 C 36.34 35.78 33.16 38.17 29.99 40.16 Z" />
<path fill="#000000" opacity="1.00" d=" M 41.67 37.57 C 42.91 35.06 45.44 33.41 48.06 32.64 C 50.25 33.15 51.30 35.55 50.43 37.58 C 48.95 40.46 45.68 41.70 42.75 42.54 C 40.64 41.74 40.85 39.26 41.67 37.57 M 42.68 39.26 L 41.99 39.41 C 42.43 42.44 47.14 40.05 48.03 38.28 L 48.70 38.09 C 48.75 37.58 48.85 36.57 48.90 36.06 C 47.29 32.53 41.69 36.41 42.68 39.26 Z" />
<path fill="#fec59b" opacity="1.00" d=" M 29.99 40.16 C 33.16 38.17 36.34 35.78 40.05 35.03 C 37.99 38.27 33.89 39.61 30.72 41.61 C 30.41 41.53 29.79 41.38 29.48 41.30 L 29.99 40.16 Z" />
<path fill="#ffe45c" opacity="1.00" d=" M 42.68 39.26 C 41.69 36.41 47.29 32.53 48.90 36.06 C 48.85 36.57 48.75 37.58 48.70 38.09 L 48.03 38.28 C 46.24 38.54 44.45 38.85 42.68 39.26 Z" />
<path fill="#d4117c" opacity="1.00" d=" M 42.68 39.26 C 44.45 38.85 46.24 38.54 48.03 38.28 C 47.14 40.05 42.43 42.44 41.99 39.41 L 42.68 39.26 Z" />
<path fill="#e6d795" opacity="1.00" d=" M 31.56 42.61 C 33.31 40.85 35.40 43.12 35.59 44.98 C 34.45 45.63 33.41 46.48 32.13 46.89 C 30.82 45.92 29.78 43.67 31.56 42.61 Z" />
<path fill="#a96488" opacity="1.00" d=" M 42.28 45.17 C 46.28 44.63 50.07 46.73 53.63 48.29 C 56.49 49.30 55.30 53.23 53.89 54.96 C 49.52 53.54 45.25 51.23 40.53 51.44 C 40.46 49.23 41.87 47.32 42.28 45.17 Z" />
<path fill="#9b5984" opacity="1.00" d=" M 26.05 54.00 C 29.92 50.27 35.10 48.45 39.49 45.47 C 39.70 47.59 38.16 49.38 37.24 51.18 C 33.97 53.17 30.55 55.06 27.94 57.94 C 26.97 58.63 26.44 60.39 24.96 59.98 C 23.92 58.11 24.28 55.31 26.05 54.00 Z" />
<path fill="#cf3589" opacity="1.00" d=" M 88.79 46.16 C 91.14 47.51 93.56 49.61 94.88 51.95 C 95.21 53.45 95.56 54.95 95.82 56.47 C 94.95 56.40 94.08 56.35 93.21 56.33 C 92.77 57.68 94.37 58.78 94.75 60.05 C 93.70 63.85 88.92 63.11 85.92 62.96 C 81.31 62.94 77.50 58.82 72.78 60.40 C 71.97 60.22 71.43 59.69 71.15 58.80 C 71.27 58.39 71.52 57.57 71.64 57.16 C 70.49 55.79 69.08 54.64 68.12 53.12 C 72.24 53.67 76.07 55.97 80.33 55.47 C 83.06 55.59 85.09 53.85 86.45 51.67 C 88.25 51.55 91.25 53.53 92.15 51.12 C 91.01 49.47 89.61 48.00 88.79 46.16 Z" />
<path fill="#a96588" opacity="1.00" d=" M 57.42 51.03 C 62.97 54.13 67.26 59.00 71.80 63.36 C 71.77 63.65 71.71 64.21 71.67 64.50 C 70.43 64.69 69.19 64.83 67.94 64.93 C 65.62 60.23 60.49 58.22 56.08 55.89 C 56.52 54.26 57.15 52.70 57.42 51.03 Z" />
<path fill="#b6318c" opacity="1.00" d=" M 94.88 51.95 L 95.75 52.33 C 101.47 58.66 106.03 66.43 107.02 75.03 C 108.24 77.84 105.30 79.53 103.14 80.38 C 94.40 83.91 85.20 86.09 75.99 87.92 C 77.19 86.14 79.53 85.50 80.77 83.70 C 83.07 81.36 83.35 77.73 82.34 74.75 C 80.06 69.42 76.40 64.86 72.78 60.40 C 77.50 58.82 81.31 62.94 85.92 62.96 C 88.92 63.11 93.70 63.85 94.75 60.05 C 94.37 58.78 92.77 57.68 93.21 56.33 C 94.08 56.35 94.95 56.40 95.82 56.47 C 95.56 54.95 95.21 53.45 94.88 51.95 M 92.45 68.65 C 87.44 69.48 84.81 77.54 90.17 79.77 C 94.31 82.37 99.76 78.71 99.68 74.06 C 100.47 70.22 95.87 66.84 92.45 68.65 Z" />
<path fill="#f4c2b3" opacity="1.00" d=" M 36.96 53.80 C 41.36 52.21 45.93 54.05 49.91 55.98 C 53.03 57.87 58.01 58.07 58.58 62.54 C 56.81 62.59 54.96 62.35 53.31 63.17 C 51.76 60.39 49.92 57.30 46.72 56.24 C 43.54 55.18 40.46 53.19 36.96 53.80 Z" />
<path fill="#feeecc" opacity="1.00" d=" M 25.26 68.98 C 25.67 62.17 30.11 55.52 36.96 53.80 C 40.46 53.19 43.54 55.18 46.72 56.24 C 49.92 57.30 51.76 60.39 53.31 63.17 C 49.42 64.25 45.86 66.35 43.14 69.35 C 43.13 69.75 43.12 70.55 43.11 70.94 C 45.93 72.73 49.09 74.33 52.47 74.47 L 53.27 75.86 C 51.67 78.51 48.57 79.77 45.95 81.21 C 44.63 82.01 42.53 81.99 42.01 83.69 C 44.55 84.29 46.82 82.48 49.01 81.47 L 50.21 81.84 C 48.50 86.76 44.96 90.80 42.00 95.02 C 40.67 95.00 39.33 94.99 37.99 94.99 C 35.18 94.52 32.62 93.21 30.20 91.75 C 26.74 84.71 24.02 76.92 25.26 68.98 M 31.43 81.36 C 31.20 83.80 34.45 85.15 36.50 84.39 C 36.01 82.58 33.07 82.08 31.43 81.36 Z" />
<path fill="#e75e7f" opacity="1.00" d=" M 49.91 55.98 C 54.92 56.88 59.62 59.27 63.59 62.41 C 64.83 63.12 64.92 64.67 65.22 65.91 C 65.29 69.74 65.43 73.62 64.30 77.31 C 62.37 75.34 61.12 72.85 59.63 70.56 C 61.24 68.89 62.97 66.64 62.88 64.24 C 61.66 63.22 60.21 62.44 58.58 62.54 C 58.01 58.07 53.03 57.87 49.91 55.98 Z" />
<path fill="#fff063" opacity="1.00" d=" M 103.32 59.07 C 103.95 59.08 105.21 59.11 105.85 59.12 C 106.37 60.06 107.18 60.59 108.25 60.71 C 107.18 61.40 106.15 62.15 105.10 62.87 C 104.61 61.55 103.98 60.30 103.32 59.07 Z" />
<path fill="#feeecc" opacity="1.00" d=" M 105.85 59.12 C 107.12 59.16 108.40 59.24 109.68 59.38 C 109.32 59.71 108.61 60.38 108.25 60.71 C 107.18 60.59 106.37 60.06 105.85 59.12 Z" />
<path fill="#7e4181" opacity="1.00" d=" M 19.80 73.88 C 16.99 69.51 19.63 63.54 21.83 59.18 C 23.27 59.73 23.64 61.49 24.00 62.81 C 22.87 65.04 22.11 67.48 22.19 70.00 C 22.47 71.76 21.40 73.25 19.80 73.88 Z" />
<path fill="#c51773" opacity="1.00" d=" M 109.68 59.38 C 110.01 59.45 110.67 59.60 111.00 59.67 L 111.00 62.49 C 109.64 64.47 108.54 66.60 107.61 68.82 C 106.27 67.10 106.08 64.79 105.10 62.87 C 106.15 62.15 107.18 61.40 108.25 60.71 C 108.61 60.38 109.32 59.71 109.68 59.38 Z" />
<path fill="#000000" opacity="1.00" d=" M 53.31 63.17 C 54.96 62.35 56.81 62.59 58.58 62.54 C 60.21 62.44 61.66 63.22 62.88 64.24 C 62.97 66.64 61.24 68.89 59.63 70.56 C 57.47 71.77 55.30 73.28 52.77 73.55 L 52.47 74.47 C 49.09 74.33 45.93 72.73 43.11 70.94 C 43.12 70.55 43.13 69.75 43.14 69.35 C 45.86 66.35 49.42 64.25 53.31 63.17 M 44.03 69.92 C 47.96 73.90 54.40 73.22 58.62 69.98 C 60.15 68.51 61.08 66.60 61.98 64.71 C 59.68 63.35 56.46 63.49 53.94 64.03 C 50.28 65.20 46.78 67.24 44.03 69.92 Z" />
<path fill="#ff2c63" opacity="1.00" d=" M 44.03 69.92 C 46.78 67.24 50.28 65.20 53.94 64.03 C 55.90 65.66 57.52 67.67 58.62 69.98 C 54.40 73.22 47.96 73.90 44.03 69.92 Z" />
<path fill="#a7178b" opacity="1.00" d=" M 53.94 64.03 C 56.46 63.49 59.68 63.35 61.98 64.71 C 61.08 66.60 60.15 68.51 58.62 69.98 C 57.52 67.67 55.90 65.66 53.94 64.03 Z" />
<path fill="#81447f" opacity="1.00" d=" M 67.48 67.55 C 69.84 68.01 71.92 66.84 73.95 65.84 C 76.31 69.29 78.90 72.81 79.93 76.92 C 75.74 76.48 70.75 76.27 67.73 72.95 C 67.33 71.18 67.60 69.35 67.48 67.55 Z" />
<path fill="#fff063" opacity="1.00" d=" M 2.82 68.35 C 4.72 68.50 6.59 68.84 8.50 68.88 C 8.50 69.22 8.50 69.92 8.50 70.26 L 7.93 70.53 C 7.24 70.82 5.87 71.40 5.19 71.70 L 4.41 71.37 C 4.01 70.61 3.22 69.11 2.82 68.35 Z" />
<path fill="#000000" opacity="1.00" d=" M 92.45 68.65 C 95.87 66.84 100.47 70.22 99.68 74.06 C 99.76 78.71 94.31 82.37 90.17 79.77 C 84.81 77.54 87.44 69.48 92.45 68.65 M 90.86 70.87 L 90.89 71.29 L 89.84 71.65 L 89.71 72.76 C 89.49 73.31 89.05 74.41 88.83 74.96 C 88.86 75.46 88.92 76.45 88.95 76.94 C 89.11 77.32 89.43 78.07 89.59 78.45 C 93.95 81.94 100.04 75.76 97.40 71.20 C 96.34 70.00 95.06 69.47 93.56 69.61 C 92.56 69.57 91.66 69.99 90.86 70.87 Z" />
<path fill="#feeecc" opacity="1.00" d=" M 90.86 70.87 C 91.66 69.99 92.56 69.57 93.56 69.61 C 94.69 71.96 92.32 73.76 90.89 71.29 L 90.86 70.87 Z" />
<path fill="#ffe45c" opacity="1.00" d=" M 93.56 69.61 C 95.06 69.47 96.34 70.00 97.40 71.20 C 97.37 75.53 92.66 77.39 88.95 76.94 C 88.92 76.45 88.86 75.46 88.83 74.96 C 90.76 76.05 91.98 73.15 89.71 72.76 L 89.84 71.65 L 90.89 71.29 C 92.32 73.76 94.69 71.96 93.56 69.61 Z" />
<path fill="#d4117c" opacity="1.00" d=" M 4.41 71.37 L 5.19 71.70 C 5.87 71.40 7.24 70.82 7.93 70.53 C 7.80 71.96 7.69 73.39 7.58 74.83 C 5.87 74.55 5.71 72.31 4.41 71.37 Z" />
<path fill="#f1aca7" opacity="1.00" d=" M 52.77 73.55 C 55.30 73.28 57.47 71.77 59.63 70.56 C 61.12 72.85 62.37 75.34 64.30 77.31 C 64.04 83.44 61.98 90.07 56.53 93.58 C 53.02 96.59 48.18 95.58 43.95 95.58 C 41.98 95.36 39.66 96.52 37.99 94.99 C 39.33 94.99 40.67 95.00 42.00 95.02 C 44.96 90.80 48.50 86.76 50.21 81.84 L 49.01 81.47 C 50.76 80.36 52.58 79.30 53.95 77.70 C 53.78 77.24 53.44 76.32 53.27 75.86 L 52.47 74.47 L 52.77 73.55 Z" />
<path fill="#c51773" opacity="1.00" d=" M 97.40 71.20 C 100.04 75.76 93.95 81.94 89.59 78.45 C 89.43 78.07 89.11 77.32 88.95 76.94 C 92.66 77.39 97.37 75.53 97.40 71.20 Z" />
<path fill="#fff063" opacity="1.00" d=" M 8.51 76.29 C 8.90 74.83 9.81 72.53 11.74 73.28 C 13.02 74.72 11.78 76.30 11.18 77.70 C 10.51 77.35 9.18 76.65 8.51 76.29 Z" />
<path fill="#feeecc" opacity="1.00" d=" M 88.83 74.96 C 89.05 74.41 89.49 73.31 89.71 72.76 C 91.98 73.15 90.76 76.05 88.83 74.96 Z" />
<path fill="#d4117c" opacity="1.00" d=" M 9.88 80.05 C 7.71 80.06 8.45 77.71 8.51 76.29 C 9.18 76.65 10.51 77.35 11.18 77.70 L 11.60 77.77 C 11.17 78.34 10.31 79.48 9.88 80.05 Z" />
<path fill="#4e2162" opacity="1.00" d=" M 19.98 75.95 C 20.51 75.94 21.57 75.91 22.10 75.89 C 22.37 78.13 23.33 80.25 23.33 82.52 C 21.03 81.52 20.32 78.28 19.98 75.95 Z" />
<path fill="#000000" opacity="1.00" d=" M 53.27 75.86 C 53.44 76.32 53.78 77.24 53.95 77.70 C 52.58 79.30 50.76 80.36 49.01 81.47 C 46.82 82.48 44.55 84.29 42.01 83.69 C 42.53 81.99 44.63 82.01 45.95 81.21 C 48.57 79.77 51.67 78.51 53.27 75.86 Z" />
<path fill="#693179" opacity="1.00" d=" M 67.18 76.26 C 70.92 78.29 75.06 79.90 79.39 79.77 C 79.81 82.09 76.54 83.62 74.79 84.81 C 71.69 84.72 69.08 82.71 66.24 81.66 C 66.45 79.85 66.79 78.04 67.18 76.26 Z" />
<path fill="#b2308d" opacity="1.00" d=" M 9.82 81.11 C 10.94 80.43 11.93 79.59 12.83 78.64 C 14.46 78.72 16.10 78.76 17.74 78.81 C 19.61 82.52 21.71 86.33 25.22 88.75 C 26.54 89.54 26.89 91.17 27.66 92.39 C 21.77 91.37 15.62 89.13 10.97 85.10 C 9.69 84.30 8.86 82.47 9.82 81.11 Z" />
<path fill="#000000" opacity="1.00" d=" M 31.43 81.36 C 33.07 82.08 36.01 82.58 36.50 84.39 C 34.45 85.15 31.20 83.80 31.43 81.36 Z" />
<path fill="#7e4181" opacity="1.00" d=" M 65.39 84.40 C 66.88 83.93 69.19 84.99 69.71 86.41 C 68.31 86.39 66.91 86.35 65.52 86.37 C 65.49 85.88 65.42 84.89 65.39 84.40 Z" />
</svg>
