<?xml version="1.0" encoding="UTF-8" ?>
<!DOCTYPE svg PUBLIC "-//W3C//DTD SVG 1.1//EN" "http://www.w3.org/Graphics/SVG/1.1/DTD/svg11.dtd">
<svg width="111pt" height="111pt" viewBox="0 0 111 111" version="1.1" xmlns="http://www.w3.org/2000/svg">
<path fill="#050505" opacity="1.00" d=" M 18.85 0.00 L 19.67 0.00 C 19.79 1.25 19.93 2.50 20.08 3.75 C 18.66 4.37 17.25 5.02 15.84 5.69 C 16.67 5.88 18.31 6.28 19.13 6.48 C 17.81 6.41 16.47 6.22 15.14 6.41 C 11.12 8.53 7.88 11.85 4.95 15.27 C 5.11 18.47 6.63 21.34 8.00 24.16 C 6.84 25.20 5.67 26.24 4.51 27.28 C 3.47 28.20 2.42 29.13 1.36 30.04 C 1.21 30.15 0.91 30.39 0.76 30.50 L 0.00 30.87 L 0.00 28.31 C 1.92 27.04 3.93 25.91 5.93 24.77 C 4.64 21.32 1.83 17.43 3.79 13.73 C 6.74 9.09 11.54 6.08 16.07 3.15 C 17.35 2.46 18.06 1.17 18.85 0.00 Z" />
<path fill="#126c7b" opacity="1.00" d=" M 19.67 0.00 L 20.70 0.00 C 21.25 1.56 21.81 3.12 22.46 4.64 C 24.78 8.49 27.11 12.65 31.07 15.04 C 34.30 17.23 37.73 19.41 41.78 19.42 C 39.64 25.96 38.97 32.81 38.59 39.64 L 37.79 39.77 C 37.56 36.51 38.19 32.71 35.73 30.12 C 33.03 29.04 30.25 28.13 27.41 27.52 C 19.92 25.35 12.11 26.50 4.51 27.28 C 5.67 26.24 6.84 25.20 8.00 24.16 C 6.63 21.34 5.11 18.47 4.95 15.27 C 7.24 19.09 11.97 19.89 15.94 20.91 C 20.58 22.20 24.83 18.57 29.53 19.64 C 30.36 15.56 26.51 13.37 24.15 10.78 C 22.17 8.87 20.65 6.47 20.08 3.75 C 19.93 2.50 19.79 1.25 19.67 0.00 Z" />
<path fill="#7ab88d" opacity="1.00" d=" M 20.70 0.00 L 24.32 0.00 C 24.12 1.69 23.20 3.15 22.46 4.64 C 21.81 3.12 21.25 1.56 20.70 0.00 Z" />
<path fill="#2d9181" opacity="1.00" d=" M 24.32 0.00 L 24.86 0.00 C 26.44 5.45 30.79 9.96 35.87 12.28 C 42.50 12.33 50.72 13.37 55.40 7.54 C 56.43 9.03 57.46 10.52 58.49 12.01 C 58.42 12.38 58.27 13.13 58.20 13.50 C 56.40 14.81 54.61 16.15 53.00 17.70 C 51.29 19.35 49.75 21.17 48.17 22.94 C 46.84 22.28 45.52 21.61 44.20 20.95 C 44.08 18.77 43.84 16.60 43.56 14.44 C 42.92 16.08 42.32 17.74 41.78 19.42 C 37.73 19.41 34.30 17.23 31.07 15.04 C 27.11 12.65 24.78 8.49 22.46 4.64 C 23.20 3.15 24.12 1.69 24.32 0.00 Z" />
<path fill="#b8d795" opacity="1.00" d=" M 24.86 0.00 L 61.13 0.00 C 59.05 2.39 57.32 5.04 55.40 7.54 C 50.72 13.37 42.50 12.33 35.87 12.28 C 30.79 9.96 26.44 5.45 24.86 0.00 Z" />
<path fill="#9cc790" opacity="1.00" d=" M 61.13 0.00 L 66.03 0.00 C 63.18 3.77 60.39 7.66 58.49 12.01 C 57.46 10.52 56.43 9.03 55.40 7.54 C 57.32 5.04 59.05 2.39 61.13 0.00 Z" />
<path fill="#248980" opacity="1.00" d=" M 66.03 0.00 L 93.01 0.00 C 89.50 2.96 87.84 7.34 85.63 11.23 C 81.66 17.95 78.07 24.89 73.72 31.37 C 73.12 32.64 72.66 33.96 72.19 35.27 L 71.99 35.78 C 69.62 34.93 67.22 34.19 64.80 33.51 C 67.34 27.97 71.14 23.18 74.11 17.90 C 70.62 19.16 67.20 20.76 64.46 23.31 C 62.43 19.96 57.84 17.95 58.20 13.50 C 58.27 13.13 58.42 12.38 58.49 12.01 C 60.39 7.66 63.18 3.77 66.03 0.00 Z" />
<path fill="#bcd996" opacity="1.00" d=" M 93.01 0.00 L 111.00 0.00 L 111.00 17.63 C 107.61 19.22 104.34 21.14 100.78 22.31 C 98.12 22.01 95.68 20.66 93.00 20.51 C 89.83 20.78 87.56 23.33 84.73 24.49 C 83.63 24.62 82.72 23.69 81.72 23.34 C 83.36 20.44 84.68 17.28 87.01 14.84 C 89.35 12.96 91.06 10.49 92.42 7.83 C 90.15 8.96 87.90 10.11 85.63 11.23 C 87.84 7.34 89.50 2.96 93.01 0.00 Z" />
<path fill="#68b18a" opacity="1.00" d=" M 15.84 5.69 C 17.25 5.02 18.66 4.37 20.08 3.75 C 20.65 6.47 22.17 8.87 24.15 10.78 C 26.51 13.37 30.36 15.56 29.53 19.64 C 24.83 18.57 20.58 22.20 15.94 20.91 C 11.97 19.89 7.24 19.09 4.95 15.27 C 7.88 11.85 11.12 8.53 15.14 6.41 C 16.47 6.22 17.81 6.41 19.13 6.48 C 18.31 6.28 16.67 5.88 15.84 5.69 Z" />
<path fill="#f5f9c6" opacity="1.00" d=" M 85.63 11.23 C 87.90 10.11 90.15 8.96 92.42 7.83 C 91.06 10.49 89.35 12.96 87.01 14.84 C 86.54 13.63 86.08 12.43 85.63 11.23 Z" />
<path fill="#aacf93" opacity="1.00" d=" M 73.72 31.37 C 78.07 24.89 81.66 17.95 85.63 11.23 C 86.08 12.43 86.54 13.63 87.01 14.84 C 84.68 17.28 83.36 20.44 81.72 23.34 C 82.72 23.69 83.63 24.62 84.73 24.49 C 87.56 23.33 89.83 20.78 93.00 20.51 C 95.68 20.66 98.12 22.01 100.78 22.31 C 104.34 21.14 107.61 19.22 111.00 17.63 L 111.00 24.77 C 103.27 27.79 95.39 30.45 87.40 32.69 C 82.81 33.25 77.80 34.23 73.72 31.37 Z" />
<path fill="#15767c" opacity="1.00" d=" M 53.00 17.70 C 54.61 16.15 56.40 14.81 58.20 13.50 C 57.84 17.95 62.43 19.96 64.46 23.31 C 61.99 25.72 59.80 28.39 57.65 31.08 C 56.18 29.68 54.01 28.67 53.37 26.64 C 53.25 23.81 54.25 21.10 54.71 18.35 C 54.28 18.18 53.43 17.86 53.00 17.70 Z" />
<path fill="#050505" opacity="1.00" d=" M 41.78 19.42 C 42.32 17.74 42.92 16.08 43.56 14.44 C 43.84 16.60 44.08 18.77 44.20 20.95 C 44.23 24.84 44.49 28.75 45.75 32.46 C 47.22 32.32 48.69 32.17 50.16 32.03 C 50.26 32.64 50.46 33.87 50.56 34.49 C 51.57 34.64 52.59 34.79 53.60 34.94 C 53.95 35.82 54.63 37.56 54.97 38.44 C 57.48 36.76 56.63 33.54 57.65 31.08 C 59.80 28.39 61.99 25.72 64.46 23.31 C 67.20 20.76 70.62 19.16 74.11 17.90 C 71.14 23.18 67.34 27.97 64.80 33.51 C 67.22 34.19 69.62 34.93 71.99 35.78 C 71.39 36.95 70.62 38.01 69.85 39.06 C 72.84 38.60 75.88 38.54 78.90 38.70 C 78.46 39.53 77.59 41.18 77.15 42.01 C 79.42 41.63 81.70 41.23 83.97 40.84 C 87.71 40.44 91.03 42.20 93.85 44.45 C 87.40 43.09 81.66 47.35 75.25 47.05 C 73.71 48.37 71.60 49.66 71.81 52.00 C 71.36 59.12 71.80 66.25 72.30 73.35 C 72.41 76.15 72.56 78.96 72.77 81.77 C 74.96 84.87 79.27 85.01 82.61 86.10 C 83.62 84.70 84.67 83.33 85.71 81.96 C 90.75 83.54 95.73 85.37 100.93 86.36 C 102.35 86.75 103.77 87.10 105.21 87.41 C 107.18 87.65 109.27 87.79 111.00 86.63 L 111.00 89.37 C 102.71 89.82 94.74 86.80 87.00 84.19 C 85.62 85.40 84.32 86.73 82.74 87.70 C 80.31 87.91 78.04 86.70 75.75 86.06 C 75.43 87.39 75.10 88.72 74.76 90.05 C 75.95 91.92 76.93 93.99 78.55 95.54 C 80.44 96.49 82.52 96.99 84.53 97.61 C 84.46 98.75 84.39 99.89 84.33 101.02 C 86.90 103.34 89.38 105.90 92.53 107.45 C 95.93 108.86 99.90 108.71 102.95 111.00 L 96.93 111.00 C 95.87 110.49 94.85 109.96 93.78 109.51 C 89.52 108.19 86.61 104.69 82.80 102.60 C 82.68 101.30 82.57 100.01 82.46 98.72 C 80.20 98.10 77.74 97.63 76.12 95.78 C 74.38 93.35 73.04 90.60 73.27 87.53 C 72.16 85.80 71.24 83.93 71.03 81.86 C 70.30 71.55 69.33 61.18 70.05 50.84 C 70.25 49.70 70.44 48.56 70.63 47.42 C 71.36 47.47 72.09 47.52 72.82 47.57 C 73.04 47.07 73.49 46.06 73.71 45.56 C 78.78 45.67 83.79 44.52 88.38 42.36 C 82.15 42.35 76.00 43.93 69.76 43.18 C 71.76 41.73 74.11 40.97 76.44 40.27 C 73.10 40.36 69.61 40.78 66.50 39.22 C 67.72 38.28 68.96 37.38 70.21 36.49 C 67.88 35.87 65.54 35.28 63.30 34.37 C 64.23 29.40 68.19 25.54 70.33 21.01 C 65.40 24.06 61.52 28.44 58.35 33.24 C 58.89 35.52 58.41 37.67 56.36 39.02 C 55.95 39.28 55.11 39.80 54.70 40.06 C 53.97 38.88 53.24 37.69 52.51 36.51 C 50.44 36.53 48.59 36.12 48.79 33.57 C 47.53 33.71 46.28 33.86 45.02 34.00 C 43.28 29.84 42.82 25.35 42.56 20.89 C 40.24 27.81 41.05 35.19 39.76 42.28 C 39.16 42.25 37.97 42.18 37.37 42.15 C 37.50 43.00 37.64 43.86 37.77 44.72 C 33.42 45.10 29.05 45.08 24.70 45.35 C 29.35 46.27 34.05 46.89 38.77 47.35 C 39.16 47.43 39.95 47.59 40.35 47.67 C 40.44 50.24 40.42 52.82 40.26 55.38 C 43.18 57.75 44.46 61.33 44.15 65.03 C 42.35 64.35 40.57 63.63 38.78 62.92 C 40.95 66.02 41.18 69.87 39.45 73.22 C 38.84 74.56 38.17 75.87 37.53 77.20 C 38.75 76.23 39.96 75.25 41.17 74.27 C 44.81 74.45 48.43 74.87 52.06 75.11 C 52.33 76.21 52.59 77.31 52.86 78.41 C 54.06 77.01 55.27 75.61 56.48 74.21 C 57.39 77.12 54.53 78.79 52.90 80.64 C 51.54 79.15 50.40 77.21 48.37 76.57 C 46.07 75.90 43.63 76.13 41.27 76.09 C 42.21 82.12 37.22 86.43 36.86 92.18 C 40.07 90.99 43.30 89.83 46.60 88.91 C 46.95 90.50 47.31 92.10 47.66 93.71 C 51.35 93.70 55.03 93.30 58.67 92.64 C 59.39 88.23 59.80 83.37 63.20 80.07 C 63.56 80.53 64.29 81.46 64.65 81.92 C 65.70 81.71 66.75 81.48 67.79 81.24 C 67.96 81.73 68.30 82.72 68.47 83.21 C 68.72 84.40 68.94 85.59 69.14 86.78 C 70.02 87.83 70.90 88.88 71.78 89.92 C 71.13 90.94 70.47 91.96 69.82 92.98 C 69.37 92.73 68.48 92.23 68.04 91.98 C 65.30 90.63 63.21 88.39 61.51 85.90 C 61.02 88.82 60.49 91.74 59.82 94.63 C 57.16 94.57 54.49 94.67 51.86 95.14 C 50.23 95.38 48.60 95.66 46.97 95.94 C 46.32 94.29 45.70 92.62 45.12 90.94 C 42.52 91.80 40.04 92.97 37.68 94.36 C 37.37 93.99 36.74 93.25 36.42 92.88 C 34.22 90.26 32.40 87.36 30.42 84.58 C 30.23 87.86 30.54 91.14 30.52 94.43 C 29.97 95.34 29.04 95.94 28.30 96.69 C 28.84 97.43 29.38 98.17 29.93 98.91 C 29.51 99.55 28.69 100.82 28.27 101.46 C 26.47 105.37 22.31 106.44 18.36 106.60 C 17.45 106.32 16.54 106.07 15.63 105.82 C 18.61 105.34 21.77 105.23 24.53 103.89 C 25.87 102.45 26.83 100.71 27.87 99.06 C 27.33 98.00 26.78 96.94 26.24 95.87 C 27.10 95.19 27.97 94.50 28.83 93.82 C 28.51 89.60 28.51 85.35 29.06 81.14 C 31.46 83.68 33.63 86.44 36.12 88.90 C 36.20 88.01 36.37 86.23 36.45 85.35 C 38.47 83.33 39.70 80.77 39.74 77.87 C 37.53 79.21 35.34 80.57 33.06 81.80 C 33.77 80.36 34.49 78.94 35.23 77.52 C 29.10 79.87 22.57 81.47 15.98 81.49 C 13.55 81.80 12.32 79.42 11.25 77.68 C 8.79 73.28 6.55 68.75 4.60 64.10 C 3.06 63.61 1.52 63.13 0.00 62.58 L 0.00 61.14 C 2.74 62.40 5.60 63.32 8.48 64.20 C 8.22 64.60 7.70 65.41 7.44 65.81 C 10.00 70.31 11.64 75.42 15.08 79.35 C 21.99 79.60 28.96 77.94 35.29 75.21 C 38.71 74.00 39.01 70.06 39.64 67.04 C 38.67 65.99 37.71 64.95 36.75 63.90 C 37.57 63.20 38.40 62.51 39.23 61.81 C 39.17 60.19 39.10 58.57 39.05 56.95 C 38.31 56.21 37.58 55.47 36.85 54.73 C 37.52 54.07 38.19 53.42 38.86 52.76 C 38.82 51.51 38.79 50.27 38.76 49.03 C 36.73 48.70 34.70 48.37 32.67 48.05 C 29.29 47.49 25.90 47.00 22.53 46.35 C 20.99 45.77 19.51 45.05 18.07 44.25 C 24.24 43.46 30.47 44.14 36.64 43.42 C 36.41 42.58 35.93 40.90 35.70 40.06 C 36.22 39.99 37.27 39.84 37.79 39.77 L 38.59 39.64 C 38.97 32.81 39.64 25.96 41.78 19.42 M 39.92 57.20 C 40.32 59.61 40.19 63.44 43.52 63.68 C 42.74 61.34 42.18 58.62 39.92 57.20 Z" />
<path fill="#075d78" opacity="1.00" d=" M 53.00 17.70 C 53.43 17.86 54.28 18.18 54.71 18.35 C 54.25 21.10 53.25 23.81 53.37 26.64 C 54.01 28.67 56.18 29.68 57.65 31.08 C 56.63 33.54 57.48 36.76 54.97 38.44 C 54.63 37.56 53.95 35.82 53.60 34.94 C 52.59 34.79 51.57 34.64 50.56 34.49 C 50.46 33.87 50.26 32.64 50.16 32.03 C 48.69 32.17 47.22 32.32 45.75 32.46 C 44.49 28.75 44.23 24.84 44.20 20.95 C 45.52 21.61 46.84 22.28 48.17 22.94 C 49.75 21.17 51.29 19.35 53.00 17.70 Z" />
<path fill="#c44365" opacity="1.00" d=" M 39.76 42.28 C 41.05 35.19 40.24 27.81 42.56 20.89 C 42.82 25.35 43.28 29.84 45.02 34.00 C 46.28 33.86 47.53 33.71 48.79 33.57 C 48.59 36.12 50.44 36.53 52.51 36.51 C 53.24 37.69 53.97 38.88 54.70 40.06 C 55.11 39.80 55.95 39.28 56.36 39.02 C 57.18 39.13 58.00 39.25 58.82 39.39 C 59.89 38.47 60.95 37.55 62.03 36.65 C 62.01 37.13 61.98 38.10 61.97 38.59 C 61.13 41.50 59.94 44.30 59.08 47.21 C 59.02 46.62 58.89 45.43 58.82 44.83 C 56.82 44.07 54.87 43.16 52.96 42.19 C 52.23 42.61 51.50 43.04 50.77 43.46 C 50.00 42.52 49.24 41.58 48.46 40.64 C 48.21 42.68 47.98 44.71 47.77 46.75 C 46.34 45.04 45.08 42.99 42.99 41.99 C 40.67 42.85 39.93 45.42 38.77 47.35 C 34.05 46.89 29.35 46.27 24.70 45.35 C 29.05 45.08 33.42 45.10 37.77 44.72 C 37.64 43.86 37.50 43.00 37.37 42.15 C 37.97 42.18 39.16 42.25 39.76 42.28 Z" />
<path fill="#992440" opacity="1.00" d=" M 58.35 33.24 C 61.52 28.44 65.40 24.06 70.33 21.01 C 68.19 25.54 64.23 29.40 63.30 34.37 C 65.54 35.28 67.88 35.87 70.21 36.49 C 68.96 37.38 67.72 38.28 66.50 39.22 C 65.03 38.76 63.49 38.69 61.97 38.59 C 61.98 38.10 62.01 37.13 62.03 36.65 C 60.95 37.55 59.89 38.47 58.82 39.39 C 58.00 39.25 57.18 39.13 56.36 39.02 C 58.41 37.67 58.89 35.52 58.35 33.24 Z" />
<path fill="#2f8d81" opacity="1.00" d=" M 87.40 32.69 C 95.39 30.45 103.27 27.79 111.00 24.77 L 111.00 30.08 C 105.65 31.96 99.74 32.19 94.68 34.85 C 91.38 37.30 88.33 40.45 83.97 40.84 C 81.70 41.23 79.42 41.63 77.15 42.01 C 77.59 41.18 78.46 39.53 78.90 38.70 C 75.88 38.54 72.84 38.60 69.85 39.06 C 70.62 38.01 71.39 36.95 71.99 35.78 L 72.19 35.27 C 77.24 38.67 82.89 35.37 87.40 32.69 Z" />
<path fill="#8ebd8e" opacity="1.00" d=" M 4.51 27.28 C 12.11 26.50 19.92 25.35 27.41 27.52 C 23.15 28.50 18.99 29.95 14.65 30.57 C 10.22 30.99 5.78 30.41 1.36 30.04 C 2.42 29.13 3.47 28.20 4.51 27.28 Z" />
<path fill="#a3c892" opacity="1.00" d=" M 14.65 30.57 C 18.99 29.95 23.15 28.50 27.41 27.52 C 30.25 28.13 33.03 29.04 35.73 30.12 C 32.03 33.67 29.05 38.01 25.05 41.19 C 16.88 43.70 8.60 46.38 0.00 46.89 L 0.00 32.59 L 0.75 32.35 C 0.75 31.89 0.76 30.96 0.76 30.50 C 0.91 30.39 1.21 30.15 1.36 30.04 C 5.78 30.41 10.22 30.99 14.65 30.57 Z" />
<path fill="#21877f" opacity="1.00" d=" M 35.73 30.12 C 38.19 32.71 37.56 36.51 37.79 39.77 C 37.27 39.84 36.22 39.99 35.70 40.06 C 35.93 40.90 36.41 42.58 36.64 43.42 C 30.47 44.14 24.24 43.46 18.07 44.25 C 19.51 45.05 20.99 45.77 22.53 46.35 C 16.47 48.38 10.43 50.46 4.71 53.33 C 3.14 53.21 1.57 53.05 0.00 52.91 L 0.00 46.89 C 8.60 46.38 16.88 43.70 25.05 41.19 C 29.05 38.01 32.03 33.67 35.73 30.12 Z" />
<path fill="#075e78" opacity="1.00" d=" M 94.68 34.85 C 99.74 32.19 105.65 31.96 111.00 30.08 L 111.00 43.78 C 103.96 45.45 96.94 47.28 90.39 50.43 C 85.82 52.17 82.11 55.62 79.67 59.82 C 83.17 60.76 86.78 61.36 90.42 61.34 C 84.13 63.89 80.51 70.01 74.41 72.84 C 74.18 72.16 73.72 70.80 73.49 70.12 C 73.08 71.19 72.68 72.27 72.30 73.35 C 71.80 66.25 71.36 59.12 71.81 52.00 C 71.60 49.66 73.71 48.37 75.25 47.05 C 81.66 47.35 87.40 43.09 93.85 44.45 C 91.03 42.20 87.71 40.44 83.97 40.84 C 88.33 40.45 91.38 37.30 94.68 34.85 Z" />
<path fill="#e7f4c1" opacity="1.00" d=" M 0.00 30.87 L 0.76 30.50 C 0.76 30.96 0.75 31.89 0.75 32.35 L 0.00 32.59 L 0.00 30.87 Z" />
<path fill="#4e9c86" opacity="1.00" d=" M 72.19 35.27 C 72.66 33.96 73.12 32.64 73.72 31.37 C 77.80 34.23 82.81 33.25 87.40 32.69 C 82.89 35.37 77.24 38.67 72.19 35.27 Z" />
<path fill="#ae2b55" opacity="1.00" d=" M 61.97 38.59 C 63.49 38.69 65.03 38.76 66.50 39.22 C 69.61 40.78 73.10 40.36 76.44 40.27 C 74.11 40.97 71.76 41.73 69.76 43.18 C 76.00 43.93 82.15 42.35 88.38 42.36 C 83.79 44.52 78.78 45.67 73.71 45.56 C 73.49 46.06 73.04 47.07 72.82 47.57 C 72.09 47.52 71.36 47.47 70.63 47.42 C 70.44 48.56 70.25 49.70 70.05 50.84 C 69.12 52.15 68.12 53.40 67.11 54.65 C 67.00 53.90 66.79 52.39 66.68 51.63 C 67.04 50.84 67.44 50.07 67.84 49.31 C 65.01 50.96 62.02 52.33 59.19 53.99 C 59.15 53.21 59.07 51.66 59.03 50.88 C 59.03 49.66 59.04 48.44 59.08 47.21 C 59.94 44.30 61.13 41.50 61.97 38.59 Z" />
<path fill="#d05c6d" opacity="1.00" d=" M 48.46 40.64 C 49.24 41.58 50.00 42.52 50.77 43.46 C 51.50 43.04 52.23 42.61 52.96 42.19 C 54.87 43.16 56.82 44.07 58.82 44.83 C 58.89 45.43 59.02 46.62 59.08 47.21 C 59.04 48.44 59.03 49.66 59.03 50.88 C 58.67 50.79 57.95 50.60 57.59 50.51 C 56.79 51.76 56.27 53.29 54.97 54.13 C 52.35 53.98 50.70 51.76 48.94 50.13 C 48.47 50.95 48.01 51.77 47.55 52.59 C 44.05 53.13 42.27 49.98 40.35 47.67 C 39.95 47.59 39.16 47.43 38.77 47.35 C 39.93 45.42 40.67 42.85 42.99 41.99 C 45.08 42.99 46.34 45.04 47.77 46.75 C 47.98 44.71 48.21 42.68 48.46 40.64 Z" />
<path fill="#147e80" opacity="1.00" d=" M 90.39 50.43 C 96.94 47.28 103.96 45.45 111.00 43.78 L 111.00 49.65 C 104.47 52.76 97.66 55.41 91.77 59.68 C 93.25 59.86 94.73 60.02 96.21 60.15 C 94.27 60.47 92.34 60.90 90.42 61.34 C 86.78 61.36 83.17 60.76 79.67 59.82 C 82.11 55.62 85.82 52.17 90.39 50.43 Z" />
<path fill="#0e727b" opacity="1.00" d=" M 22.53 46.35 C 25.90 47.00 29.29 47.49 32.67 48.05 C 32.29 49.37 32.23 51.16 30.59 51.55 C 22.39 54.79 13.30 54.12 4.71 53.33 C 10.43 50.46 16.47 48.38 22.53 46.35 Z" />
<path fill="#065c78" opacity="1.00" d=" M 32.67 48.05 C 34.70 48.37 36.73 48.70 38.76 49.03 C 38.79 50.27 38.82 51.51 38.86 52.76 C 38.19 53.42 37.52 54.07 36.85 54.73 C 37.58 55.47 38.31 56.21 39.05 56.95 C 39.10 58.57 39.17 60.19 39.23 61.81 C 38.40 62.51 37.57 63.20 36.75 63.90 C 37.71 64.95 38.67 65.99 39.64 67.04 C 39.01 70.06 38.71 74.00 35.29 75.21 C 28.96 77.94 21.99 79.60 15.08 79.35 C 11.64 75.42 10.00 70.31 7.44 65.81 C 7.70 65.41 8.22 64.60 8.48 64.20 C 5.60 63.32 2.74 62.40 0.00 61.14 L 0.00 52.91 C 1.57 53.05 3.14 53.21 4.71 53.33 C 13.30 54.12 22.39 54.79 30.59 51.55 C 32.23 51.16 32.29 49.37 32.67 48.05 Z" />
<path fill="#d86f77" opacity="1.00" d=" M 40.35 47.67 C 42.27 49.98 44.05 53.13 47.55 52.59 C 48.01 51.77 48.47 50.95 48.94 50.13 C 50.70 51.76 52.35 53.98 54.97 54.13 C 56.27 53.29 56.79 51.76 57.59 50.51 C 57.95 50.60 58.67 50.79 59.03 50.88 C 59.07 51.66 59.15 53.21 59.19 53.99 C 55.38 56.55 52.36 60.18 50.84 64.53 C 51.28 64.69 52.17 65.00 52.62 65.15 C 54.34 65.88 56.01 66.71 57.69 67.53 C 57.67 68.04 57.61 69.07 57.59 69.59 C 51.62 71.15 45.60 72.62 39.45 73.22 C 41.18 69.87 40.95 66.02 38.78 62.92 C 40.57 63.63 42.35 64.35 44.15 65.03 C 44.46 61.33 43.18 57.75 40.26 55.38 C 40.42 52.82 40.44 50.24 40.35 47.67 Z" />
<path fill="#050505" opacity="1.00" d=" M 67.84 49.31 C 67.44 50.07 67.04 50.84 66.68 51.63 C 66.79 52.39 67.00 53.90 67.11 54.65 C 67.30 57.97 65.58 60.91 62.91 62.76 C 59.75 64.46 56.17 65.05 52.62 65.15 C 52.17 65.00 51.28 64.69 50.84 64.53 C 52.36 60.18 55.38 56.55 59.19 53.99 C 62.02 52.33 65.01 50.96 67.84 49.31 M 61.34 53.98 L 61.34 54.32 C 57.42 56.35 54.30 59.70 52.42 63.68 C 55.42 63.70 58.38 63.21 61.21 62.22 C 64.79 60.32 66.23 56.37 65.40 52.49 C 64.04 52.98 62.69 53.48 61.34 53.98 Z" />
<path fill="#61ae95" opacity="1.00" d=" M 91.77 59.68 C 97.66 55.41 104.47 52.76 111.00 49.65 L 111.00 59.09 C 106.06 59.28 101.12 59.57 96.21 60.15 C 94.73 60.02 93.25 59.86 91.77 59.68 Z" />
<path fill="#911c3d" opacity="1.00" d=" M 67.11 54.65 C 68.12 53.40 69.12 52.15 70.05 50.84 C 69.33 61.18 70.30 71.55 71.03 81.86 C 70.39 82.20 69.11 82.87 68.47 83.21 C 68.30 82.72 67.96 81.73 67.79 81.24 C 66.75 81.48 65.70 81.71 64.65 81.92 C 65.04 80.64 65.45 79.37 65.85 78.09 C 64.92 76.52 63.99 74.95 63.16 73.32 C 62.68 69.82 62.74 66.28 62.91 62.76 C 65.58 60.91 67.30 57.97 67.11 54.65 Z" />
<path fill="#95105c" opacity="1.00" d=" M 61.34 53.98 C 62.69 53.48 64.04 52.98 65.40 52.49 C 66.23 56.37 64.79 60.32 61.21 62.22 C 61.26 59.59 61.32 56.96 61.34 54.32 L 61.34 53.98 Z" />
<path fill="#ff3d83" opacity="1.00" d=" M 52.42 63.68 C 54.30 59.70 57.42 56.35 61.34 54.32 C 61.32 56.96 61.26 59.59 61.21 62.22 C 58.38 63.21 55.42 63.70 52.42 63.68 Z" />
<path fill="#860e51" opacity="1.00" d=" M 39.92 57.20 C 42.18 58.62 42.74 61.34 43.52 63.68 C 40.19 63.44 40.32 59.61 39.92 57.20 Z" />
<path fill="#07658a" opacity="1.00" d=" M 96.21 60.15 C 101.12 59.57 106.06 59.28 111.00 59.09 L 111.00 67.15 C 107.06 68.81 102.78 68.51 98.63 68.85 C 96.05 69.90 93.95 72.05 92.45 74.37 C 92.27 75.83 93.51 77.12 93.96 78.46 C 92.78 79.57 91.53 80.61 90.23 81.58 C 87.62 80.60 84.90 79.97 82.13 79.65 C 83.30 80.46 84.49 81.23 85.71 81.96 C 84.67 83.33 83.62 84.70 82.61 86.10 C 81.69 81.99 76.00 82.85 72.77 81.77 C 72.56 78.96 72.41 76.15 72.30 73.35 C 72.68 72.27 73.08 71.19 73.49 70.12 C 73.72 70.80 74.18 72.16 74.41 72.84 C 80.51 70.01 84.13 63.89 90.42 61.34 C 92.34 60.90 94.27 60.47 96.21 60.15 Z" />
<path fill="#be3765" opacity="1.00" d=" M 52.62 65.15 C 56.17 65.05 59.75 64.46 62.91 62.76 C 62.74 66.28 62.68 69.82 63.16 73.32 C 61.19 73.31 59.23 73.30 57.26 73.28 C 57.07 73.52 56.67 73.98 56.48 74.21 C 55.27 75.61 54.06 77.01 52.86 78.41 C 52.59 77.31 52.33 76.21 52.06 75.11 C 48.43 74.87 44.81 74.45 41.17 74.27 C 39.96 75.25 38.75 76.23 37.53 77.20 C 38.17 75.87 38.84 74.56 39.45 73.22 C 45.60 72.62 51.62 71.15 57.59 69.59 C 57.61 69.07 57.67 68.04 57.69 67.53 C 56.01 66.71 54.34 65.88 52.62 65.15 Z" />
<path fill="#1084a6" opacity="1.00" d=" M 98.63 68.85 C 102.78 68.51 107.06 68.81 111.00 67.15 L 111.00 78.56 C 107.90 80.66 105.96 83.77 105.21 87.41 C 103.77 87.10 102.35 86.75 100.93 86.36 C 98.00 83.56 93.91 82.89 90.23 81.58 C 91.53 80.61 92.78 79.57 93.96 78.46 C 93.51 77.12 92.27 75.83 92.45 74.37 C 93.95 72.05 96.05 69.90 98.63 68.85 Z" />
<path fill="#111111" opacity="1.00" d=" M 57.26 73.28 C 59.23 73.30 61.19 73.31 63.16 73.32 C 63.99 74.95 64.92 76.52 65.85 78.09 C 65.45 79.37 65.04 80.64 64.65 81.92 C 64.29 81.46 63.56 80.53 63.20 80.07 C 59.80 83.37 59.39 88.23 58.67 92.64 C 55.03 93.30 51.35 93.70 47.66 93.71 C 47.31 92.10 46.95 90.50 46.60 88.91 C 43.30 89.83 40.07 90.99 36.86 92.18 C 37.22 86.43 42.21 82.12 41.27 76.09 C 43.63 76.13 46.07 75.90 48.37 76.57 C 50.40 77.21 51.54 79.15 52.90 80.64 C 54.53 78.79 57.39 77.12 56.48 74.21 C 56.67 73.98 57.07 73.52 57.26 73.28 Z" />
<path fill="#159cc4" opacity="1.00" d=" M 105.21 87.41 C 105.96 83.77 107.90 80.66 111.00 78.56 L 111.00 86.63 C 109.27 87.79 107.18 87.65 105.21 87.41 Z" />
<path fill="#18d9e8" opacity="1.00" d=" M 82.13 79.65 C 84.90 79.97 87.62 80.60 90.23 81.58 C 93.91 82.89 98.00 83.56 100.93 86.36 C 95.73 85.37 90.75 83.54 85.71 81.96 C 84.49 81.23 83.30 80.46 82.13 79.65 Z" />
<path fill="#8e2953" opacity="1.00" d=" M 68.47 83.21 C 69.11 82.87 70.39 82.20 71.03 81.86 C 71.24 83.93 72.16 85.80 73.27 87.53 C 73.04 90.60 74.38 93.35 76.12 95.78 C 75.43 96.95 74.75 98.13 74.06 99.30 C 72.62 97.21 71.22 95.10 69.82 92.98 C 70.47 91.96 71.13 90.94 71.78 89.92 C 70.90 88.88 70.02 87.83 69.14 86.78 C 68.94 85.59 68.72 84.40 68.47 83.21 Z" />
<path fill="#16cedd" opacity="1.00" d=" M 72.77 81.77 C 76.00 82.85 81.69 81.99 82.61 86.10 C 79.27 85.01 74.96 84.87 72.77 81.77 Z" />
<path fill="#d36a75" opacity="1.00" d=" M 30.52 94.43 C 30.54 91.14 30.23 87.86 30.42 84.58 C 32.40 87.36 34.22 90.26 36.42 92.88 C 35.65 96.89 33.24 102.24 28.27 101.46 C 28.69 100.82 29.51 99.55 29.93 98.91 C 29.38 98.17 28.84 97.43 28.30 96.69 C 29.04 95.94 29.97 95.34 30.52 94.43 Z" />
<path fill="#b95273" opacity="1.00" d=" M 61.51 85.90 C 63.21 88.39 65.30 90.63 68.04 91.98 C 67.75 95.27 66.65 98.93 68.73 101.89 C 69.62 103.62 70.59 105.33 71.80 106.86 C 70.59 107.23 69.36 107.54 68.11 107.79 C 64.34 106.55 61.73 103.22 58.12 101.65 C 56.41 101.15 54.60 101.52 52.86 101.56 C 52.27 101.05 51.68 100.53 51.09 100.02 C 51.73 98.67 52.30 97.29 52.80 95.89 L 51.86 95.14 C 54.49 94.67 57.16 94.57 59.82 94.63 C 60.49 91.74 61.02 88.82 61.51 85.90 Z" />
<path fill="#d06a78" opacity="1.00" d=" M 37.68 94.36 C 40.04 92.97 42.52 91.80 45.12 90.94 C 45.70 92.62 46.32 94.29 46.97 95.94 C 48.60 95.66 50.23 95.38 51.86 95.14 L 52.80 95.89 C 52.30 97.29 51.73 98.67 51.09 100.02 C 49.17 103.39 47.90 107.08 47.87 111.00 L 42.05 111.00 C 43.23 109.59 44.34 108.12 45.53 106.72 L 46.01 106.22 C 42.48 104.80 37.74 105.08 35.37 101.70 C 35.83 99.17 36.88 96.79 37.68 94.36 Z" />
<path fill="#aa3d73" opacity="1.00" d=" M 68.04 91.98 C 68.48 92.23 69.37 92.73 69.82 92.98 C 71.22 95.10 72.62 97.21 74.06 99.30 C 75.34 101.16 76.56 103.06 77.77 104.97 C 77.59 105.66 77.21 107.06 77.02 107.76 C 73.47 107.13 71.11 104.32 68.73 101.89 C 66.65 98.93 67.75 95.27 68.04 91.98 Z" />
<path fill="#c24169" opacity="1.00" d=" M 36.42 92.88 C 36.74 93.25 37.37 93.99 37.68 94.36 C 36.88 96.79 35.83 99.17 35.37 101.70 C 37.74 105.08 42.48 104.80 46.01 106.22 L 45.53 106.72 C 42.80 107.26 40.03 107.58 37.26 107.82 C 36.18 107.24 35.10 106.66 34.02 106.10 C 30.14 107.16 26.04 107.10 22.23 108.43 C 21.21 108.49 20.19 108.55 19.17 108.61 C 17.63 108.03 16.13 107.40 14.61 106.79 C 15.55 106.74 17.42 106.64 18.36 106.60 C 22.31 106.44 26.47 105.37 28.27 101.46 C 33.24 102.24 35.65 96.89 36.42 92.88 Z" />
<path fill="#8d3467" opacity="1.00" d=" M 74.06 99.30 C 74.75 98.13 75.43 96.95 76.12 95.78 C 77.74 97.63 80.20 98.10 82.46 98.72 C 82.57 100.01 82.68 101.30 82.80 102.60 C 81.46 104.51 80.07 106.38 78.66 108.24 C 78.25 108.12 77.43 107.88 77.02 107.76 C 77.21 107.06 77.59 105.66 77.77 104.97 C 76.56 103.06 75.34 101.16 74.06 99.30 Z" />
<path fill="#b84070" opacity="1.00" d=" M 51.09 100.02 C 51.68 100.53 52.27 101.05 52.86 101.56 C 54.60 101.52 56.41 101.15 58.12 101.65 C 61.73 103.22 64.34 106.55 68.11 107.79 C 69.36 107.54 70.59 107.23 71.80 106.86 C 72.12 107.18 72.76 107.82 73.08 108.14 C 70.90 108.58 68.45 108.85 67.23 111.00 L 65.96 111.00 C 65.67 110.85 65.09 110.54 64.80 110.38 C 64.52 109.80 63.94 108.63 63.66 108.05 C 59.56 106.50 55.27 108.03 51.14 108.63 C 49.71 108.74 49.03 110.16 48.05 111.00 L 47.87 111.00 C 47.90 107.08 49.17 103.39 51.09 100.02 Z" />
<path fill="#050505" opacity="1.00" d=" M 68.73 101.89 C 71.11 104.32 73.47 107.13 77.02 107.76 C 77.43 107.88 78.25 108.12 78.66 108.24 C 80.54 108.79 82.42 109.39 84.25 110.11 L 85.58 111.00 L 81.01 111.00 C 79.62 109.80 77.91 108.67 75.98 109.09 C 76.31 109.57 76.96 110.52 77.29 111.00 L 75.91 111.00 C 74.95 110.05 74.02 109.09 73.08 108.14 C 72.76 107.82 72.12 107.18 71.80 106.86 C 70.59 105.33 69.62 103.62 68.73 101.89 Z" />
<path fill="#8d3d76" opacity="1.00" d=" M 82.80 102.60 C 86.61 104.69 89.52 108.19 93.78 109.51 C 90.62 109.88 87.44 110.23 84.25 110.11 C 82.42 109.39 80.54 108.79 78.66 108.24 C 80.07 106.38 81.46 104.51 82.80 102.60 Z" />
<path fill="#050505" opacity="1.00" d=" M 22.23 108.43 C 26.04 107.10 30.14 107.16 34.02 106.10 C 35.10 106.66 36.18 107.24 37.26 107.82 C 40.03 107.58 42.80 107.26 45.53 106.72 C 44.34 108.12 43.23 109.59 42.05 111.00 L 39.20 111.00 C 40.03 110.33 41.71 108.98 42.54 108.30 C 40.73 108.73 38.93 109.21 37.14 109.70 C 36.12 108.89 35.09 108.07 34.07 107.26 C 30.20 108.18 26.22 108.88 22.23 108.43 Z" />
<path fill="#050505" opacity="1.00" d=" M 8.66 109.38 C 9.85 108.46 11.05 107.57 12.30 106.75 C 12.92 110.24 16.61 108.65 19.03 108.62 C 19.57 108.73 20.65 108.95 21.18 109.06 C 17.03 109.51 12.83 109.57 8.66 109.38 Z" />
<path fill="#4d1e29" opacity="1.00" d=" M 12.30 106.75 C 12.88 106.76 14.03 106.78 14.61 106.79 C 16.13 107.40 17.63 108.03 19.17 108.61 L 19.03 108.62 C 16.61 108.65 12.92 110.24 12.30 106.75 Z" />
<path fill="#050505" opacity="1.00" d=" M 51.14 108.63 C 55.27 108.03 59.56 106.50 63.66 108.05 C 63.94 108.63 64.52 109.80 64.80 110.38 C 65.09 110.54 65.67 110.85 65.96 111.00 L 63.47 111.00 C 62.89 110.47 61.73 109.42 61.15 108.89 C 57.26 108.63 53.44 109.71 49.81 111.00 L 48.05 111.00 C 49.03 110.16 49.71 108.74 51.14 108.63 Z" />
<path fill="#8b305f" opacity="1.00" d=" M 73.08 108.14 C 74.02 109.09 74.95 110.05 75.91 111.00 L 67.23 111.00 C 68.45 108.85 70.90 108.58 73.08 108.14 Z" />
<path fill="#000000" opacity="0.34" d=" M 75.98 109.09 C 77.91 108.67 79.62 109.80 81.01 111.00 L 77.29 111.00 C 76.96 110.52 76.31 109.57 75.98 109.09 Z" />
<path fill="#351b34" opacity="1.00" d=" M 93.78 109.51 C 94.85 109.96 95.87 110.49 96.93 111.00 L 85.58 111.00 L 84.25 110.11 C 87.44 110.23 90.62 109.88 93.78 109.51 Z" />
</svg>
