<?xml version="1.0" encoding="UTF-8" ?>
<!DOCTYPE svg PUBLIC "-//W3C//DTD SVG 1.1//EN" "http://www.w3.org/Graphics/SVG/1.1/DTD/svg11.dtd">
<svg width="111pt" height="111pt" viewBox="0 0 111 111" version="1.1" xmlns="http://www.w3.org/2000/svg">
<path fill="#040306" opacity="0.84" d=" M 46.27 18.27 C 48.56 13.96 53.15 10.19 57.05 6.90 C 55.89 12.57 51.02 16.96 50.82 22.88 L 49.97 23.04 C 49.90 21.61 49.84 20.17 49.80 18.73 C 50.58 16.13 48.51 17.37 47.13 17.95 L 46.27 18.27 Z" />
<path fill="#9f6fc8" opacity="1.00" d=" M 47.13 17.95 C 48.51 17.37 50.58 16.13 49.80 18.73 C 48.79 21.03 48.15 23.46 47.68 25.93 C 46.34 26.07 44.90 26.02 44.04 24.82 C 44.39 22.29 46.24 20.30 47.13 17.95 Z" />
<path fill="#090a0a" opacity="0.92" d=" M 46.27 18.27 L 47.13 17.95 C 46.24 20.30 44.39 22.29 44.04 24.82 C 44.90 26.02 46.34 26.07 47.68 25.93 C 48.15 23.46 48.79 21.03 49.80 18.73 C 49.84 20.17 49.90 21.61 49.97 23.04 C 50.01 23.54 50.07 24.55 50.10 25.05 C 54.12 24.61 57.88 22.79 62.01 22.99 C 63.43 26.45 60.30 28.73 60.09 31.76 C 64.56 33.48 69.14 35.07 73.03 37.96 C 77.62 39.90 78.56 45.11 81.18 48.82 C 87.55 47.93 93.89 51.64 97.02 57.05 C 98.46 61.33 96.31 64.82 93.99 68.00 C 96.92 71.83 99.24 77.16 96.82 81.86 C 94.87 86.99 89.16 88.47 84.30 89.29 C 83.31 94.17 80.27 99.58 74.85 100.05 C 72.03 98.99 69.81 99.24 68.18 100.79 C 66.34 103.13 62.79 104.20 60.02 105.01 C 56.69 105.00 53.37 105.03 50.04 104.99 C 46.87 104.44 45.51 100.32 42.02 100.98 C 39.00 100.92 35.99 101.00 32.97 101.00 C 26.99 99.58 24.46 92.82 24.84 87.17 C 20.43 87.06 14.89 85.32 13.28 80.70 C 11.96 75.49 14.11 69.48 18.80 66.77 C 18.59 64.52 18.33 62.27 18.03 60.03 C 19.57 55.80 23.27 52.51 27.71 51.65 C 31.48 41.87 39.96 34.00 50.10 31.21 C 50.59 30.95 51.58 30.42 52.08 30.15 C 48.25 29.93 43.50 28.88 42.02 24.94 C 42.30 22.34 44.52 20.15 46.27 18.27 M 52.99 26.04 C 52.51 29.10 56.97 28.40 58.98 29.05 C 60.45 24.70 55.66 26.12 52.99 26.04 M 30.76 51.97 C 30.11 52.60 29.55 53.31 29.08 54.10 C 26.20 53.70 21.89 55.72 22.02 58.95 C 19.24 60.51 19.62 64.68 21.78 66.79 C 18.15 70.02 14.01 74.23 16.29 79.69 C 17.79 83.93 23.45 83.81 27.10 82.79 C 27.52 85.26 25.74 90.05 28.00 91.02 C 28.22 93.97 30.56 96.92 33.17 98.03 C 33.94 99.86 39.06 99.85 39.85 98.05 C 41.84 98.03 43.79 96.92 45.74 97.74 C 45.39 100.34 48.13 101.19 50.04 102.00 C 52.53 102.23 57.52 102.71 60.02 102.95 L 59.94 101.93 C 64.52 100.47 68.95 98.01 73.99 98.96 L 73.99 98.04 C 76.63 97.74 80.17 95.89 80.16 92.87 C 83.00 93.32 77.78 85.73 82.66 85.79 C 85.21 86.11 89.67 86.13 90.90 84.03 C 96.07 81.79 96.33 73.92 92.77 69.90 C 92.42 69.01 92.08 68.11 91.74 67.22 C 94.14 63.88 96.57 58.73 92.77 55.66 C 92.17 53.69 87.54 51.97 84.87 52.07 C 82.91 50.69 80.35 50.74 78.14 49.94 C 77.94 45.83 74.19 43.19 71.81 40.19 C 71.45 40.21 70.71 40.26 70.34 40.28 C 66.35 35.52 58.77 34.73 53.01 33.11 C 43.37 35.96 34.53 42.36 30.76 51.97 Z" />
<path fill="#3a294a" opacity="1.00" d=" M 52.99 26.04 C 55.66 26.12 60.45 24.70 58.98 29.05 C 56.97 28.40 52.51 29.10 52.99 26.04 Z" />
<path fill="#c8ea90" opacity="1.00" d=" M 30.76 51.97 C 34.53 42.36 43.37 35.96 53.01 33.11 C 58.77 34.73 66.35 35.52 70.34 40.28 C 68.69 40.54 67.02 40.22 65.37 40.35 C 61.69 44.73 56.09 47.09 52.99 51.99 C 49.88 55.83 48.52 60.57 47.14 65.20 C 45.36 65.14 43.58 65.17 41.80 65.20 L 41.03 65.12 C 35.42 62.71 33.81 56.73 30.76 51.97 M 45.98 42.03 C 44.76 43.07 42.34 45.16 41.13 46.21 C 40.10 49.05 43.08 50.68 45.21 51.69 C 50.50 51.60 52.11 41.82 45.98 42.03 M 39.01 55.01 C 38.34 57.55 39.45 58.66 41.99 57.99 C 42.66 55.45 41.55 54.34 39.01 55.01 Z" />
<path fill="#b2db85" opacity="1.00" d=" M 65.37 40.35 C 67.02 40.22 68.69 40.54 70.34 40.28 C 70.71 40.26 71.45 40.21 71.81 40.19 C 74.19 43.19 77.94 45.83 78.14 49.94 C 82.06 52.70 80.20 57.64 79.64 61.69 C 78.92 64.82 77.05 67.45 75.41 70.14 C 72.95 68.31 71.52 63.97 68.07 64.02 C 64.40 65.33 59.91 68.66 62.89 73.23 L 63.03 74.01 C 63.42 78.75 55.40 74.99 53.34 77.25 C 55.59 82.60 50.00 85.75 45.87 84.31 C 41.83 83.74 38.77 80.75 36.30 77.71 C 34.34 74.62 35.74 70.69 34.50 67.39 C 31.97 63.84 30.20 59.86 28.37 55.92 C 28.55 55.47 28.90 54.56 29.08 54.10 C 29.55 53.31 30.11 52.60 30.76 51.97 C 33.81 56.73 35.42 62.71 41.03 65.12 C 40.03 66.34 38.94 67.49 38.11 68.83 C 34.31 73.60 41.21 81.14 46.37 78.41 C 52.08 76.37 52.32 67.94 47.14 65.20 C 48.52 60.57 49.88 55.83 52.99 51.99 C 56.09 47.09 61.69 44.73 65.37 40.35 Z" />
<path fill="#fbfee6" opacity="1.00" d=" M 45.98 42.03 C 52.11 41.82 50.50 51.60 45.21 51.69 C 43.08 50.68 40.10 49.05 41.13 46.21 C 42.34 45.16 44.76 43.07 45.98 42.03 Z" />
<path fill="#8fc17c" opacity="1.00" d=" M 78.14 49.94 C 80.35 50.74 82.91 50.69 84.87 52.07 C 89.19 54.03 89.27 58.94 89.16 63.12 C 88.36 64.62 87.23 65.91 86.10 67.17 C 84.87 68.62 84.08 70.39 83.10 72.01 C 79.51 74.70 75.66 77.07 71.36 78.42 C 69.34 80.26 69.52 83.54 67.31 85.31 C 62.24 89.61 55.28 90.36 48.92 91.17 C 47.13 89.76 44.93 89.76 43.76 91.91 C 41.41 91.62 39.21 90.73 36.93 90.16 C 36.52 88.46 36.17 86.61 34.93 85.29 C 33.57 85.58 32.22 85.93 30.86 86.24 C 30.22 83.01 30.86 79.17 28.30 76.71 C 26.55 74.89 25.82 72.49 25.72 70.02 L 25.97 69.01 L 27.06 68.72 C 29.98 74.65 33.11 80.57 37.22 85.76 C 40.20 88.94 44.91 86.23 48.35 88.49 C 54.07 88.54 62.06 85.36 61.24 78.25 C 61.43 76.62 63.92 76.81 64.36 75.13 C 67.01 77.14 70.84 77.86 73.31 75.13 C 74.47 73.72 74.82 71.83 75.41 70.14 C 77.05 67.45 78.92 64.82 79.64 61.69 C 80.20 57.64 82.06 52.70 78.14 49.94 Z" />
<path fill="#58866e" opacity="1.00" d=" M 84.87 52.07 C 87.54 51.97 92.17 53.69 92.77 55.66 C 92.51 56.17 91.98 57.19 91.71 57.70 C 90.47 59.31 89.98 61.30 89.16 63.12 C 89.27 58.94 89.19 54.03 84.87 52.07 Z" />
<path fill="#558168" opacity="1.00" d=" M 22.02 58.95 C 21.89 55.72 26.20 53.70 29.08 54.10 C 28.90 54.56 28.55 55.47 28.37 55.92 C 27.91 57.25 27.41 58.57 26.93 59.90 C 26.00 62.81 26.12 65.97 25.97 69.01 L 25.72 70.02 L 24.74 70.34 C 22.73 66.88 23.13 62.71 22.02 58.95 Z" />
<path fill="#e0fbb0" opacity="1.00" d=" M 39.01 55.01 C 41.55 54.34 42.66 55.45 41.99 57.99 C 39.45 58.66 38.34 57.55 39.01 55.01 Z" />
<path fill="#a0cd80" opacity="1.00" d=" M 28.37 55.92 C 30.20 59.86 31.97 63.84 34.50 67.39 C 35.74 70.69 34.34 74.62 36.30 77.71 C 38.77 80.75 41.83 83.74 45.87 84.31 C 50.00 85.75 55.59 82.60 53.34 77.25 C 55.40 74.99 63.42 78.75 63.03 74.01 C 63.36 74.29 64.02 74.85 64.36 75.13 C 63.92 76.81 61.43 76.62 61.24 78.25 C 62.06 85.36 54.07 88.54 48.35 88.49 C 44.91 86.23 40.20 88.94 37.22 85.76 C 33.11 80.57 29.98 74.65 27.06 68.72 C 26.99 65.78 26.93 62.84 26.93 59.90 C 27.41 58.57 27.91 57.25 28.37 55.92 Z" />
<path fill="#507490" opacity="1.00" d=" M 91.71 57.70 C 91.98 57.19 92.51 56.17 92.77 55.66 C 96.57 58.73 94.14 63.88 91.74 67.22 C 91.06 64.13 91.97 60.86 91.71 57.70 Z" />
<path fill="#476f6a" opacity="1.00" d=" M 89.16 63.12 C 89.98 61.30 90.47 59.31 91.71 57.70 C 91.97 60.86 91.06 64.13 91.74 67.22 C 92.08 68.11 92.42 69.01 92.77 69.90 C 89.91 69.55 91.78 72.10 92.15 73.58 C 89.69 77.23 88.13 82.08 83.65 83.66 C 82.41 83.88 82.36 84.78 82.66 85.79 C 77.78 85.73 83.00 93.32 80.16 92.87 C 79.93 92.46 79.45 91.64 79.22 91.23 C 74.82 92.97 71.06 96.47 66.21 96.87 C 64.80 96.23 65.43 95.06 65.94 94.02 C 67.98 93.14 69.76 91.81 71.24 90.17 C 73.41 88.11 76.12 86.02 75.44 82.43 C 80.15 82.79 85.06 80.21 86.66 75.68 C 86.59 72.83 86.18 70.01 86.10 67.17 C 87.23 65.91 88.36 64.62 89.16 63.12 Z" />
<path fill="#466e63" opacity="1.00" d=" M 21.78 66.79 C 19.62 64.68 19.24 60.51 22.02 58.95 C 23.13 62.71 22.73 66.88 24.74 70.34 C 25.78 74.35 23.45 79.77 27.10 82.79 C 23.45 83.81 17.79 83.93 16.29 79.69 C 14.01 74.23 18.15 70.02 21.78 66.79 Z" />
<path fill="#78aa72" opacity="1.00" d=" M 25.97 69.01 C 26.12 65.97 26.00 62.81 26.93 59.90 C 26.93 62.84 26.99 65.78 27.06 68.72 L 25.97 69.01 Z" />
<path fill="#5a6442" opacity="1.00" d=" M 62.89 73.23 C 59.91 68.66 64.40 65.33 68.07 64.02 C 71.52 63.97 72.95 68.31 75.41 70.14 C 74.82 71.83 74.47 73.72 73.31 75.13 C 73.02 74.86 72.44 74.32 72.15 74.05 L 72.38 73.26 C 74.42 69.69 69.46 64.33 65.96 66.91 C 63.86 67.66 63.97 70.11 63.45 71.90 C 63.31 72.23 63.03 72.90 62.89 73.23 Z" />
<path fill="#757966" opacity="1.00" d=" M 41.03 65.12 L 41.80 65.20 C 43.26 65.71 44.77 66.10 46.17 66.77 C 43.29 66.70 40.09 66.71 39.53 70.22 L 38.80 69.96 C 38.63 69.68 38.28 69.11 38.11 68.83 C 38.94 67.49 40.03 66.34 41.03 65.12 Z" />
<path fill="#515334" opacity="1.00" d=" M 41.80 65.20 C 43.58 65.17 45.36 65.14 47.14 65.20 C 52.32 67.94 52.08 76.37 46.37 78.41 C 41.21 81.14 34.31 73.60 38.11 68.83 C 38.28 69.11 38.63 69.68 38.80 69.96 C 38.89 70.69 39.06 72.15 39.14 72.88 C 39.86 76.34 44.71 77.61 47.27 75.16 C 49.43 74.20 49.34 71.60 48.41 69.76 C 47.95 68.61 47.38 67.30 46.17 66.77 C 44.77 66.10 43.26 65.71 41.80 65.20 Z" />
<path fill="#efe69a" opacity="1.00" d=" M 65.96 66.91 C 69.46 64.33 74.42 69.69 72.38 73.26 C 70.50 73.22 66.73 73.14 64.84 73.10 C 64.49 72.80 63.80 72.20 63.45 71.90 C 63.97 70.11 63.86 67.66 65.96 66.91 Z" />
<path fill="#f5f0ca" opacity="1.00" d=" M 39.53 70.22 C 40.09 66.71 43.29 66.70 46.17 66.77 C 47.38 67.30 47.95 68.61 48.41 69.76 C 48.29 70.52 48.05 72.03 47.93 72.79 C 45.07 72.14 42.24 71.34 39.53 70.22 Z" />
<path fill="#6fa375" opacity="1.00" d=" M 83.10 72.01 C 84.08 70.39 84.87 68.62 86.10 67.17 C 86.18 70.01 86.59 72.83 86.66 75.68 C 85.06 80.21 80.15 82.79 75.44 82.43 C 76.12 86.02 73.41 88.11 71.24 90.17 C 62.37 92.44 52.58 96.38 43.76 91.91 C 44.93 89.76 47.13 89.76 48.92 91.17 C 51.01 92.18 53.29 93.53 55.70 92.72 C 62.67 91.08 72.98 89.26 73.41 80.32 C 76.50 77.35 82.66 77.38 83.10 72.01 Z" />
<path fill="#679a75" opacity="1.00" d=" M 24.74 70.34 L 25.72 70.02 C 25.82 72.49 26.55 74.89 28.30 76.71 C 30.86 79.17 30.22 83.01 30.86 86.24 C 29.97 85.44 29.07 84.65 28.17 83.87 C 27.90 83.60 27.37 83.06 27.10 82.79 C 23.45 79.77 25.78 74.35 24.74 70.34 Z" />
<path fill="#e8dd91" opacity="1.00" d=" M 38.80 69.96 L 39.53 70.22 C 42.24 71.34 45.07 72.14 47.93 72.79 C 48.05 72.03 48.29 70.52 48.41 69.76 C 49.34 71.60 49.43 74.20 47.27 75.16 C 44.58 74.33 41.84 73.68 39.14 72.88 C 39.06 72.15 38.89 70.69 38.80 69.96 Z" />
<path fill="#a87ad3" opacity="1.00" d=" M 92.15 73.58 C 91.78 72.10 89.91 69.55 92.77 69.90 C 96.33 73.92 96.07 81.79 90.90 84.03 C 90.41 83.99 89.44 83.90 88.96 83.85 C 91.75 81.15 94.70 77.73 92.15 73.58 Z" />
<path fill="#3b3f27" opacity="1.00" d=" M 62.89 73.23 C 63.03 72.90 63.31 72.23 63.45 71.90 C 63.80 72.20 64.49 72.80 64.84 73.10 C 66.77 75.23 69.72 75.43 72.15 74.05 C 72.44 74.32 73.02 74.86 73.31 75.13 C 70.84 77.86 67.01 77.14 64.36 75.13 C 64.02 74.85 63.36 74.29 63.03 74.01 L 62.89 73.23 Z" />
<path fill="#7eb279" opacity="1.00" d=" M 71.36 78.42 C 75.66 77.07 79.51 74.70 83.10 72.01 C 82.66 77.38 76.50 77.35 73.41 80.32 C 72.98 89.26 62.67 91.08 55.70 92.72 C 53.29 93.53 51.01 92.18 48.92 91.17 C 55.28 90.36 62.24 89.61 67.31 85.31 C 69.52 83.54 69.34 80.26 71.36 78.42 Z" />
<path fill="#ebd371" opacity="1.00" d=" M 39.14 72.88 C 41.84 73.68 44.58 74.33 47.27 75.16 C 44.71 77.61 39.86 76.34 39.14 72.88 Z" />
<path fill="#d6b95a" opacity="1.00" d=" M 64.84 73.10 C 66.73 73.14 70.50 73.22 72.38 73.26 L 72.15 74.05 C 69.72 75.43 66.77 75.23 64.84 73.10 Z" />
<path fill="#547999" opacity="1.00" d=" M 83.65 83.66 C 88.13 82.08 89.69 77.23 92.15 73.58 C 94.70 77.73 91.75 81.15 88.96 83.85 C 89.44 83.90 90.41 83.99 90.90 84.03 C 89.67 86.13 85.21 86.11 82.66 85.79 C 82.36 84.78 82.41 83.88 83.65 83.66 Z" />
<path fill="#2f4841" opacity="1.00" d=" M 27.10 82.79 C 27.37 83.06 27.90 83.60 28.17 83.87 C 28.13 85.65 28.04 89.23 28.00 91.02 C 25.74 90.05 27.52 85.26 27.10 82.79 Z" />
<path fill="#487167" opacity="1.00" d=" M 28.17 83.87 C 29.07 84.65 29.97 85.44 30.86 86.24 C 32.41 88.21 34.55 89.46 36.93 90.16 C 39.74 93.56 45.16 92.55 48.20 95.71 C 46.92 95.86 46.10 96.54 45.74 97.74 C 43.79 96.92 41.84 98.03 39.85 98.05 C 38.18 98.05 34.84 98.04 33.17 98.03 C 30.56 96.92 28.22 93.97 28.00 91.02 C 28.04 89.23 28.13 85.65 28.17 83.87 Z" />
<path fill="#5c8b6d" opacity="1.00" d=" M 30.86 86.24 C 32.22 85.93 33.57 85.58 34.93 85.29 C 36.17 86.61 36.52 88.46 36.93 90.16 C 34.55 89.46 32.41 88.21 30.86 86.24 Z" />
<path fill="#5b8c77" opacity="1.00" d=" M 36.93 90.16 C 39.21 90.73 41.41 91.62 43.76 91.91 C 52.58 96.38 62.37 92.44 71.24 90.17 C 69.76 91.81 67.98 93.14 65.94 94.02 C 60.01 94.22 54.17 96.64 48.20 95.71 C 45.16 92.55 39.74 93.56 36.93 90.16 Z" />
<path fill="#4e788a" opacity="1.00" d=" M 66.21 96.87 C 71.06 96.47 74.82 92.97 79.22 91.23 C 78.02 95.12 73.98 96.11 70.79 97.76 C 71.59 97.83 73.19 97.97 73.99 98.04 L 73.99 98.96 C 68.95 98.01 64.52 100.47 59.94 101.93 C 56.64 101.97 53.34 102.03 50.04 102.00 C 48.13 101.19 45.39 100.34 45.74 97.74 C 46.10 96.54 46.92 95.86 48.20 95.71 C 54.17 96.64 60.01 94.22 65.94 94.02 C 65.43 95.06 64.80 96.23 66.21 96.87 Z" />
<path fill="#9578c8" opacity="1.00" d=" M 79.22 91.23 C 79.45 91.64 79.93 92.46 80.16 92.87 C 80.17 95.89 76.63 97.74 73.99 98.04 C 73.19 97.97 71.59 97.83 70.79 97.76 C 73.98 96.11 78.02 95.12 79.22 91.23 Z" />
<path fill="#203030" opacity="1.00" d=" M 33.17 98.03 C 34.84 98.04 38.18 98.05 39.85 98.05 C 39.06 99.85 33.94 99.86 33.17 98.03 Z" />
<path fill="#000000" opacity="0.51" d=" M 68.18 100.79 C 69.81 99.24 72.03 98.99 74.85 100.05 C 73.85 101.98 70.09 101.22 68.18 100.79 Z" />
<path fill="#000000" opacity="0.38" d=" M 32.97 101.00 C 35.99 101.00 39.00 100.92 42.02 100.98 C 41.91 104.26 35.47 101.25 33.03 101.95 L 32.97 101.00 Z" />
<path fill="#293e44" opacity="1.00" d=" M 50.04 102.00 C 53.34 102.03 56.64 101.97 59.94 101.93 L 60.02 102.95 C 57.52 102.71 52.53 102.23 50.04 102.00 Z" />
<path fill="#000000" opacity="0.49" d=" M 50.04 104.99 C 53.37 105.03 56.69 105.00 60.02 105.01 L 59.99 105.99 C 57.50 105.74 52.53 105.24 50.04 104.99 Z" />
</svg>
