<?xml version="1.0" encoding="UTF-8" ?>
<!DOCTYPE svg PUBLIC "-//W3C//DTD SVG 1.1//EN" "http://www.w3.org/Graphics/SVG/1.1/DTD/svg11.dtd">
<svg width="111pt" height="111pt" viewBox="0 0 111 111" version="1.1" xmlns="http://www.w3.org/2000/svg">
<path fill="#000000" opacity="1.00" d=" M 62.45 14.10 C 66.38 12.64 70.11 10.50 74.41 10.32 C 74.22 12.77 74.01 15.22 73.77 17.66 C 76.20 19.41 78.67 21.12 80.87 23.16 C 84.06 26.00 85.46 30.21 86.70 34.16 C 88.43 39.79 86.75 45.64 85.11 51.07 C 93.28 61.73 101.36 72.59 111.00 81.99 L 111.00 85.29 C 104.10 78.57 98.18 70.97 92.04 63.56 C 88.71 59.37 85.40 55.15 82.25 50.81 C 79.81 47.37 77.53 43.80 75.80 39.94 C 75.48 40.19 74.85 40.69 74.54 40.94 C 74.19 41.21 73.49 41.77 73.14 42.04 C 77.05 49.35 80.29 57.08 85.24 63.77 C 87.58 66.47 90.67 68.41 92.92 71.19 C 98.08 77.33 104.82 81.79 111.00 86.81 L 111.00 89.33 C 103.08 83.71 95.63 77.45 89.12 70.23 C 95.00 80.50 102.83 89.45 111.00 97.95 L 111.00 102.27 C 103.88 99.75 97.56 95.33 92.02 90.26 C 94.66 95.52 97.85 100.50 100.18 105.92 C 97.73 105.79 95.05 105.69 93.22 103.82 C 86.94 98.02 82.14 90.86 77.13 83.99 C 73.54 79.13 71.21 73.54 68.62 68.13 C 63.86 69.32 57.93 67.30 54.22 71.30 C 53.01 67.31 52.19 63.13 50.09 59.46 L 49.48 60.68 C 47.49 63.78 48.60 67.60 49.16 70.95 C 50.44 77.89 54.29 83.89 57.18 90.22 C 59.64 94.81 63.58 98.42 68.05 101.03 C 65.60 96.24 62.94 91.57 60.51 86.77 C 59.39 84.49 58.30 82.20 57.21 79.90 C 56.25 77.83 55.42 75.70 54.75 73.52 C 55.10 72.72 55.46 71.93 55.84 71.15 C 57.15 75.52 58.84 79.76 60.90 83.83 C 64.75 83.66 68.79 83.35 72.34 85.15 C 69.82 85.33 67.30 85.38 64.78 85.51 C 66.98 88.32 71.23 86.75 74.35 87.46 C 70.85 88.62 67.15 88.78 63.50 88.96 C 66.19 94.18 69.19 99.26 71.29 104.76 C 65.44 102.25 60.34 98.10 56.66 92.91 C 47.80 96.01 38.26 95.99 29.01 95.26 C 27.15 95.06 23.46 94.48 24.57 91.75 C 25.94 90.60 27.62 89.90 29.28 89.29 C 36.64 86.71 44.28 85.02 51.94 83.61 C 49.72 79.30 48.27 74.65 47.39 69.90 C 46.37 73.08 45.54 76.56 43.05 78.96 C 38.32 83.62 32.36 86.89 26.09 88.96 C 26.42 86.86 26.79 84.77 27.24 82.70 C 27.43 83.26 27.83 84.40 28.03 84.97 L 28.11 86.73 C 33.37 84.08 38.75 81.14 42.61 76.58 C 44.81 73.83 45.20 70.21 45.74 66.86 C 45.89 66.33 46.21 65.28 46.36 64.76 C 38.90 66.66 34.46 73.55 30.50 79.60 L 29.21 79.85 C 29.57 78.89 30.29 76.97 30.66 76.01 C 29.09 76.08 27.52 76.16 25.96 76.25 C 25.38 80.59 23.91 85.03 20.83 88.25 C 18.24 87.42 19.79 83.76 19.19 81.72 C 17.39 83.31 15.95 85.99 13.25 85.96 C 12.37 84.61 11.67 83.16 10.94 81.73 C 7.65 85.13 3.82 87.90 0.00 90.66 L 0.00 88.43 C 3.60 85.79 7.22 83.14 10.37 79.96 C 9.98 74.18 9.41 66.33 15.65 63.37 C 16.57 61.27 18.31 59.09 17.38 56.69 C 16.66 55.36 15.90 54.06 15.16 52.75 C 14.44 55.10 13.72 57.44 12.96 59.77 C 9.41 69.11 5.96 78.67 0.00 86.80 L 0.00 85.04 C 4.17 79.29 6.57 72.53 9.23 66.00 C 11.46 60.72 11.62 54.67 14.85 49.81 C 14.73 46.15 14.68 42.49 14.95 38.84 C 16.02 39.47 17.09 40.11 18.16 40.74 C 15.66 42.25 15.99 45.30 16.52 47.75 C 17.12 51.10 17.97 54.43 19.47 57.50 C 19.19 53.66 19.14 49.79 19.91 46.00 C 19.37 45.16 18.82 44.32 18.26 43.49 L 17.99 43.12 C 18.33 42.92 19.01 42.52 19.35 42.33 C 19.60 38.11 18.67 33.81 19.72 29.67 C 23.49 29.31 25.96 33.00 28.68 35.06 C 30.86 26.64 36.91 19.21 45.16 16.18 C 50.64 13.84 56.67 14.40 62.45 14.10 M 66.02 15.11 C 66.86 15.32 68.53 15.74 69.37 15.95 L 69.16 16.32 C 70.20 16.44 71.25 16.55 72.29 16.67 C 72.33 15.43 72.38 14.20 72.42 12.96 C 72.04 13.06 71.27 13.25 70.88 13.34 C 69.18 13.67 67.58 14.38 66.02 15.11 M 47.90 17.78 C 42.77 18.48 40.91 24.08 39.74 28.40 C 45.81 23.81 53.12 21.48 59.81 18.05 L 59.95 17.06 C 56.07 15.81 51.82 17.14 47.90 17.78 M 62.58 17.02 C 62.32 17.77 61.80 19.28 61.53 20.03 C 54.59 22.94 47.42 25.58 41.18 29.88 C 40.55 30.40 39.92 30.93 39.30 31.47 L 39.10 31.26 C 36.71 33.17 33.87 34.37 31.17 35.76 C 29.19 37.25 27.28 38.82 25.49 40.53 C 22.47 45.10 20.44 50.39 21.14 55.96 C 23.85 54.61 26.78 53.61 29.85 53.89 C 31.66 54.61 33.55 55.14 35.46 55.52 C 36.68 55.97 37.88 57.14 39.22 56.93 C 42.05 58.62 41.30 62.42 43.50 64.34 C 43.70 63.58 44.08 62.04 44.27 61.27 C 45.19 61.85 46.12 62.42 47.05 62.98 C 46.64 62.35 45.80 61.09 45.39 60.46 C 47.23 59.80 49.04 59.03 50.81 58.17 C 51.54 58.93 52.28 59.69 53.02 60.46 C 53.78 59.40 54.55 58.35 55.31 57.29 C 56.21 59.45 57.70 58.34 58.96 57.26 C 58.76 56.74 58.37 55.69 58.17 55.17 C 59.32 54.09 60.49 53.01 61.69 51.97 C 62.41 49.34 62.37 46.59 62.36 43.88 C 62.62 44.97 63.20 49.42 64.70 46.93 C 66.39 43.98 67.10 40.59 68.75 37.62 C 70.46 36.44 70.84 40.22 72.56 39.64 C 73.54 38.58 74.37 37.39 75.24 36.24 C 77.16 38.00 78.09 40.45 79.44 42.62 C 81.01 43.63 81.08 41.32 81.73 40.41 C 82.47 39.00 83.41 37.66 83.91 36.13 C 83.48 32.96 82.54 29.78 80.81 27.07 C 78.42 24.03 75.15 21.83 71.92 19.76 C 68.86 18.67 65.79 17.56 62.58 17.02 M 30.93 33.74 C 33.23 32.61 35.64 31.68 38.21 31.43 C 38.16 27.66 39.57 24.16 40.87 20.69 C 36.14 23.73 32.85 28.52 30.93 33.74 M 21.28 31.03 C 21.05 33.03 21.01 35.05 21.07 37.06 C 21.17 39.03 21.26 40.99 21.34 42.95 C 23.19 40.77 25.06 38.61 27.02 36.53 C 26.05 35.48 25.04 34.49 23.93 33.59 C 23.12 32.67 22.19 31.86 21.28 31.03 M 69.71 40.88 C 68.76 43.48 67.74 46.05 66.67 48.60 L 66.40 48.62 C 64.89 51.08 63.19 53.43 61.84 56.00 C 65.05 53.80 67.45 50.70 70.35 48.15 C 70.97 48.74 71.58 49.34 72.20 49.94 L 72.46 50.45 C 73.14 54.30 75.49 57.51 77.06 61.02 C 79.72 66.91 82.67 72.68 85.58 78.46 C 87.32 81.99 89.77 85.20 92.83 87.70 C 94.50 90.55 97.21 92.53 99.96 94.24 C 103.28 96.29 106.43 98.74 110.16 100.01 C 107.81 96.50 104.62 93.54 101.42 90.82 C 93.24 80.79 86.62 69.63 79.71 58.73 L 79.30 58.67 C 77.29 54.94 75.09 51.30 73.53 47.35 C 72.44 45.11 71.78 42.46 69.71 40.88 M 67.98 53.08 C 65.10 56.35 61.58 58.94 57.63 60.78 C 56.12 61.29 54.60 61.80 53.09 62.30 C 53.67 64.16 54.27 66.01 54.91 67.86 C 56.81 66.51 58.62 65.01 60.25 63.34 C 61.85 61.91 63.41 60.41 65.21 59.24 C 66.67 58.86 67.22 60.70 68.16 61.40 C 68.16 63.37 69.44 65.02 70.28 66.72 C 72.79 70.99 74.46 75.70 77.22 79.83 C 82.80 88.04 88.63 96.21 95.98 102.96 C 95.66 99.32 92.84 96.78 91.16 93.75 C 87.54 87.01 83.96 80.25 80.42 73.47 C 78.06 65.54 73.52 58.59 69.80 51.28 C 69.35 51.73 68.43 52.63 67.98 53.08 M 25.02 56.06 C 19.81 58.23 16.22 63.29 16.05 68.96 C 17.88 70.40 19.55 72.05 21.47 73.36 C 25.08 73.97 28.78 73.66 32.42 73.59 C 33.03 72.63 33.65 71.67 34.27 70.71 C 32.48 71.36 30.70 72.03 28.84 72.40 C 27.80 71.43 27.12 70.18 26.37 68.99 C 27.16 67.66 28.06 66.38 29.47 65.65 C 28.80 67.14 27.59 68.91 28.65 70.55 C 30.60 70.79 32.13 69.36 33.71 68.48 C 33.70 67.50 33.66 65.55 33.65 64.57 C 32.67 64.79 30.72 65.21 29.75 65.42 C 30.28 64.32 31.03 63.45 31.99 62.80 C 33.44 62.97 35.11 62.74 36.26 63.86 C 37.23 65.90 35.63 68.02 35.29 70.00 C 37.15 68.38 39.00 66.75 40.85 65.11 L 40.47 64.72 C 41.62 60.81 38.34 58.01 34.83 57.33 C 31.62 56.63 28.18 53.95 25.02 56.06 M 12.88 81.53 C 12.93 81.95 13.02 82.80 13.06 83.22 L 14.08 84.08 C 16.90 80.90 18.99 76.89 18.91 72.55 L 17.58 72.97 L 18.06 72.15 C 16.93 71.44 15.79 70.75 14.73 69.95 C 14.62 68.52 14.63 67.09 14.76 65.66 C 10.67 69.73 11.55 76.42 12.88 81.53 M 20.60 75.08 C 20.39 78.30 20.38 81.53 20.79 84.73 C 22.91 82.19 23.92 79.00 24.63 75.82 C 23.29 75.57 21.94 75.33 20.60 75.08 Z" />
<path fill="#ffe55e" opacity="1.00" d=" M 66.02 15.11 C 67.58 14.38 69.18 13.67 70.88 13.34 C 70.35 14.20 69.86 15.07 69.37 15.95 C 68.53 15.74 66.86 15.32 66.02 15.11 Z" />
<path fill="#b53f42" opacity="1.00" d=" M 70.88 13.34 C 71.27 13.25 72.04 13.06 72.42 12.96 C 72.38 14.20 72.33 15.43 72.29 16.67 C 71.25 16.55 70.20 16.44 69.16 16.32 L 69.37 15.95 C 69.86 15.07 70.35 14.20 70.88 13.34 Z" />
<path fill="#ffe55e" opacity="1.00" d=" M 47.90 17.78 C 51.82 17.14 56.07 15.81 59.95 17.06 L 59.81 18.05 C 53.12 21.48 45.81 23.81 39.74 28.40 C 40.91 24.08 42.77 18.48 47.90 17.78 Z" />
<path fill="#4d9f9b" opacity="1.00" d=" M 62.58 17.02 C 65.79 17.56 68.86 18.67 71.92 19.76 C 71.91 20.15 71.90 20.92 71.89 21.30 C 71.62 24.93 71.14 28.62 69.57 31.94 C 68.59 29.41 66.20 28.18 63.87 27.15 C 65.78 24.96 67.36 22.49 68.44 19.79 C 66.14 19.60 63.81 19.62 61.53 20.03 C 61.80 19.28 62.32 17.77 62.58 17.02 Z" />
<path fill="#8fcb98" opacity="1.00" d=" M 61.53 20.03 C 63.81 19.62 66.14 19.60 68.44 19.79 C 67.36 22.49 65.78 24.96 63.87 27.15 C 66.20 28.18 68.59 29.41 69.57 31.94 C 67.62 35.48 65.64 39.11 62.55 41.80 C 62.26 41.39 61.70 40.56 61.41 40.15 C 57.22 34.10 49.49 30.57 42.15 31.27 L 41.18 29.88 C 47.42 25.58 54.59 22.94 61.53 20.03 Z" />
<path fill="#e0ff7d" opacity="1.00" d=" M 71.92 19.76 C 75.15 21.83 78.42 24.03 80.81 27.07 C 82.54 29.78 83.48 32.96 83.91 36.13 C 83.41 37.66 82.47 39.00 81.73 40.41 C 80.09 36.22 79.28 31.73 77.36 27.65 C 76.17 25.05 73.87 23.26 71.89 21.30 C 71.90 20.92 71.91 20.15 71.92 19.76 Z" />
<path fill="#8eca98" opacity="1.00" d=" M 30.93 33.74 C 32.85 28.52 36.14 23.73 40.87 20.69 C 39.57 24.16 38.16 27.66 38.21 31.43 C 35.64 31.68 33.23 32.61 30.93 33.74 Z" />
<path fill="#11387a" opacity="1.00" d=" M 69.57 31.94 C 71.14 28.62 71.62 24.93 71.89 21.30 C 73.87 23.26 76.17 25.05 77.36 27.65 C 79.28 31.73 80.09 36.22 81.73 40.41 C 81.08 41.32 81.01 43.63 79.44 42.62 C 78.09 40.45 77.16 38.00 75.24 36.24 C 74.37 37.39 73.54 38.58 72.56 39.64 C 70.84 40.22 70.46 36.44 68.75 37.62 C 67.10 40.59 66.39 43.98 64.70 46.93 C 63.20 49.42 62.62 44.97 62.36 43.88 C 62.37 46.59 62.41 49.34 61.69 51.97 C 61.53 50.38 61.37 48.78 60.85 47.25 C 58.54 48.08 56.32 49.12 54.04 50.03 C 55.67 48.30 57.33 46.59 59.06 44.96 C 59.50 45.17 60.37 45.58 60.81 45.78 C 61.50 43.99 61.31 42.03 61.41 40.15 C 61.70 40.56 62.26 41.39 62.55 41.80 C 65.64 39.11 67.62 35.48 69.57 31.94 Z" />
<path fill="#7abd99" opacity="1.00" d=" M 39.30 31.47 C 39.92 30.93 40.55 30.40 41.18 29.88 L 42.15 31.27 C 42.32 31.52 42.67 32.01 42.85 32.26 C 45.65 32.52 48.53 32.46 51.20 33.48 C 50.31 35.67 49.32 37.83 48.21 39.92 C 45.84 39.71 43.47 39.74 41.09 39.69 C 41.75 38.31 43.24 36.97 42.65 35.29 C 41.72 33.86 40.45 32.70 39.30 31.47 Z" />
<path fill="#5ba89a" opacity="1.00" d=" M 21.28 31.03 C 22.19 31.86 23.12 32.67 23.93 33.59 C 23.68 35.13 23.39 36.67 23.10 38.20 C 22.59 37.91 21.58 37.35 21.07 37.06 C 21.01 35.05 21.05 33.03 21.28 31.03 Z" />
<path fill="#000000" opacity="1.00" d=" M 42.15 31.27 C 49.49 30.57 57.22 34.10 61.41 40.15 C 59.24 38.32 57.41 36.01 54.73 34.89 C 53.57 34.39 52.38 33.93 51.20 33.48 C 48.53 32.46 45.65 32.52 42.85 32.26 C 42.67 32.01 42.32 31.52 42.15 31.27 Z" />
<path fill="#d4ff7b" opacity="1.00" d=" M 31.17 35.76 C 33.87 34.37 36.71 33.17 39.10 31.26 L 39.30 31.47 C 40.45 32.70 41.72 33.86 42.65 35.29 C 43.24 36.97 41.75 38.31 41.09 39.69 C 37.45 39.45 34.37 37.28 31.17 35.76 Z" />
<path fill="#1f5579" opacity="1.00" d=" M 23.93 33.59 C 25.04 34.49 26.05 35.48 27.02 36.53 C 25.06 38.61 23.19 40.77 21.34 42.95 C 21.26 40.99 21.17 39.03 21.07 37.06 C 21.58 37.35 22.59 37.91 23.10 38.20 C 23.39 36.67 23.68 35.13 23.93 33.59 Z" />
<path fill="#5ba89a" opacity="1.00" d=" M 51.20 33.48 C 52.38 33.93 53.57 34.39 54.73 34.89 C 55.45 36.30 56.21 37.71 56.89 39.14 C 55.99 40.73 55.04 42.30 54.28 43.97 C 52.35 42.49 50.33 41.12 48.21 39.92 C 49.32 37.83 50.31 35.67 51.20 33.48 Z" />
<path fill="#8fcb98" opacity="1.00" d=" M 25.49 40.53 C 27.28 38.82 29.19 37.25 31.17 35.76 C 34.37 37.28 37.45 39.45 41.09 39.69 C 43.47 39.74 45.84 39.71 48.21 39.92 C 50.33 41.12 52.35 42.49 54.28 43.97 C 54.27 44.48 54.24 45.51 54.23 46.02 C 47.77 48.78 41.69 52.31 35.46 55.52 C 33.55 55.14 31.66 54.61 29.85 53.89 C 27.15 52.22 30.00 49.52 30.57 47.43 C 31.30 47.40 32.77 47.34 33.50 47.31 C 33.40 47.69 33.21 48.44 33.11 48.81 C 34.39 46.05 39.03 43.68 36.79 40.30 C 33.52 36.26 27.35 41.38 28.32 45.70 L 27.68 45.14 C 26.89 43.63 26.20 42.08 25.49 40.53 Z" />
<path fill="#cbf27d" opacity="1.00" d=" M 54.73 34.89 C 57.41 36.01 59.24 38.32 61.41 40.15 C 61.31 42.03 61.50 43.99 60.81 45.78 C 60.37 45.58 59.50 45.17 59.06 44.96 C 58.36 43.02 57.70 41.05 56.89 39.14 C 56.21 37.71 55.45 36.30 54.73 34.89 Z" />
<path fill="#000000" opacity="1.00" d=" M 28.32 45.70 C 27.35 41.38 33.52 36.26 36.79 40.30 C 39.03 43.68 34.39 46.05 33.11 48.81 C 33.21 48.44 33.40 47.69 33.50 47.31 C 32.77 47.34 31.30 47.40 30.57 47.43 C 29.82 46.86 29.07 46.28 28.32 45.70 M 31.22 41.29 C 29.72 42.05 29.08 43.58 29.54 45.21 C 32.13 47.26 35.14 44.70 35.59 41.98 C 35.21 39.54 32.55 40.16 31.22 41.29 Z" />
<path fill="#247b99" opacity="1.00" d=" M 54.28 43.97 C 55.04 42.30 55.99 40.73 56.89 39.14 C 57.70 41.05 58.36 43.02 59.06 44.96 C 57.33 46.59 55.67 48.30 54.04 50.03 C 56.32 49.12 58.54 48.08 60.85 47.25 C 61.37 48.78 61.53 50.38 61.69 51.97 C 60.49 53.01 59.32 54.09 58.17 55.17 C 58.37 55.69 58.76 56.74 58.96 57.26 C 57.70 58.34 56.21 59.45 55.31 57.29 C 54.55 58.35 53.78 59.40 53.02 60.46 C 52.28 59.69 51.54 58.93 50.81 58.17 C 49.04 59.03 47.23 59.80 45.39 60.46 C 45.80 61.09 46.64 62.35 47.05 62.98 C 46.12 62.42 45.19 61.85 44.27 61.27 C 44.08 62.04 43.70 63.58 43.50 64.34 C 41.30 62.42 42.05 58.62 39.22 56.93 C 44.84 54.63 53.50 53.51 54.23 46.02 C 54.24 45.51 54.27 44.48 54.28 43.97 Z" />
<path fill="#7abf9f" opacity="1.00" d=" M 74.54 40.94 C 74.85 40.69 75.48 40.19 75.80 39.94 C 77.53 43.80 79.81 47.37 82.25 50.81 C 82.17 51.39 82.01 52.57 81.92 53.16 C 78.61 49.66 76.18 45.45 74.54 40.94 Z" />
<path fill="#80c199" opacity="1.00" d=" M 21.14 55.96 C 20.44 50.39 22.47 45.10 25.49 40.53 C 26.20 42.08 26.89 43.63 27.68 45.14 L 28.32 45.70 C 29.07 46.28 29.82 46.86 30.57 47.43 C 30.00 49.52 27.15 52.22 29.85 53.89 C 26.78 53.61 23.85 54.61 21.14 55.96 Z" />
<path fill="#ffe55e" opacity="1.00" d=" M 31.22 41.29 C 32.55 40.16 35.21 39.54 35.59 41.98 C 35.14 44.70 32.13 47.26 29.54 45.21 C 29.08 43.58 29.72 42.05 31.22 41.29 Z" />
<path fill="#7abf9f" opacity="1.00" d=" M 69.71 40.88 C 71.78 42.46 72.44 45.11 73.53 47.35 C 75.09 51.30 77.29 54.94 79.30 58.67 C 78.32 58.51 77.10 58.57 76.69 57.43 C 75.18 55.17 73.88 52.78 72.46 50.45 L 72.20 49.94 C 71.52 48.47 70.89 47.00 70.26 45.51 C 69.48 46.52 68.71 47.54 67.88 48.51 C 67.57 48.53 66.97 48.58 66.67 48.60 C 67.74 46.05 68.76 43.48 69.71 40.88 Z" />
<path fill="#287e99" opacity="1.00" d=" M 73.14 42.04 C 73.49 41.77 74.19 41.21 74.54 40.94 C 76.18 45.45 78.61 49.66 81.92 53.16 C 82.01 52.57 82.17 51.39 82.25 50.81 C 85.40 55.15 88.71 59.37 92.04 63.56 C 92.21 66.11 92.40 68.68 92.92 71.19 C 90.67 68.41 87.58 66.47 85.24 63.77 C 80.29 57.08 77.05 49.35 73.14 42.04 Z" />
<path fill="#55989a" opacity="1.00" d=" M 16.52 47.75 C 16.87 46.24 16.34 43.97 17.99 43.12 L 18.26 43.49 C 18.82 44.32 19.37 45.16 19.91 46.00 C 19.14 49.79 19.19 53.66 19.47 57.50 C 17.97 54.43 17.12 51.10 16.52 47.75 Z" />
<path fill="#54a29b" opacity="1.00" d=" M 35.46 55.52 C 41.69 52.31 47.77 48.78 54.23 46.02 C 53.50 53.51 44.84 54.63 39.22 56.93 C 37.88 57.14 36.68 55.97 35.46 55.52 Z" />
<path fill="#247b99" opacity="1.00" d=" M 67.88 48.51 C 68.71 47.54 69.48 46.52 70.26 45.51 C 70.89 47.00 71.52 48.47 72.20 49.94 C 71.58 49.34 70.97 48.74 70.35 48.15 C 67.45 50.70 65.05 53.80 61.84 56.00 C 63.19 53.43 64.89 51.08 66.40 48.62 L 66.67 48.60 C 66.97 48.58 67.57 48.53 67.88 48.51 Z" />
<path fill="#378096" opacity="1.00" d=" M 72.46 50.45 C 73.88 52.78 75.18 55.17 76.69 57.43 C 77.10 58.57 78.32 58.51 79.30 58.67 L 79.71 58.73 C 86.62 69.63 93.24 80.79 101.42 90.82 C 98.59 89.70 95.66 88.83 92.83 87.70 C 89.77 85.20 87.32 81.99 85.58 78.46 C 82.67 72.68 79.72 66.91 77.06 61.02 C 75.49 57.51 73.14 54.30 72.46 50.45 Z" />
<path fill="#78b998" opacity="1.00" d=" M 67.98 53.08 C 68.43 52.63 69.35 51.73 69.80 51.28 C 73.52 58.59 78.06 65.54 80.42 73.47 C 78.81 73.44 76.83 73.87 75.81 72.25 C 72.18 67.76 70.10 62.23 68.32 56.79 C 68.18 55.56 68.07 54.32 67.98 53.08 Z" />
<path fill="#78b998" opacity="1.00" d=" M 15.16 52.75 C 15.90 54.06 16.66 55.36 17.38 56.69 C 15.87 58.39 14.41 60.12 12.93 61.85 C 12.94 61.33 12.96 60.29 12.96 59.77 C 13.72 57.44 14.44 55.10 15.16 52.75 Z" />
<path fill="#247b99" opacity="1.00" d=" M 57.63 60.78 C 61.58 58.94 65.10 56.35 67.98 53.08 C 68.07 54.32 68.18 55.56 68.32 56.79 C 68.27 58.33 68.22 59.86 68.16 61.40 C 67.22 60.70 66.67 58.86 65.21 59.24 C 63.41 60.41 61.85 61.91 60.25 63.34 C 59.38 62.49 58.51 61.64 57.63 60.78 Z" />
<path fill="#85c498" opacity="1.00" d=" M 25.02 56.06 C 28.18 53.95 31.62 56.63 34.83 57.33 C 34.95 57.95 35.19 59.19 35.31 59.81 C 35.23 60.37 35.07 61.49 34.99 62.05 C 33.99 62.30 32.99 62.55 31.99 62.80 C 31.03 63.45 30.28 64.32 29.75 65.42 C 29.68 65.48 29.54 65.59 29.47 65.65 C 28.06 66.38 27.16 67.66 26.37 68.99 C 27.12 70.18 27.80 71.43 28.84 72.40 C 30.70 72.03 32.48 71.36 34.27 70.71 C 33.65 71.67 33.03 72.63 32.42 73.59 C 28.78 73.66 25.08 73.97 21.47 73.36 C 19.55 72.05 17.88 70.40 16.05 68.96 C 16.22 63.29 19.81 58.23 25.02 56.06 M 22.32 59.29 C 20.25 60.70 18.03 63.80 19.86 66.22 C 23.69 68.47 27.73 63.43 26.34 59.83 C 25.19 58.76 23.66 58.12 22.32 59.29 Z" />
<path fill="#3a6987" opacity="1.00" d=" M 17.38 56.69 C 18.31 59.09 16.57 61.27 15.65 63.37 C 9.41 66.33 9.98 74.18 10.37 79.96 C 7.22 83.14 3.60 85.79 0.00 88.43 L 0.00 86.80 C 5.96 78.67 9.41 69.11 12.96 59.77 C 12.96 60.29 12.94 61.33 12.93 61.85 C 14.41 60.12 15.87 58.39 17.38 56.69 Z" />
<path fill="#488192" opacity="1.00" d=" M 68.32 56.79 C 70.10 62.23 72.18 67.76 75.81 72.25 C 76.83 73.87 78.81 73.44 80.42 73.47 C 83.96 80.25 87.54 87.01 91.16 93.75 C 92.84 96.78 95.66 99.32 95.98 102.96 C 88.63 96.21 82.80 88.04 77.22 79.83 C 74.46 75.70 72.79 70.99 70.28 66.72 C 69.44 65.02 68.16 63.37 68.16 61.40 C 68.22 59.86 68.27 58.33 68.32 56.79 Z" />
<path fill="#e0ff7d" opacity="1.00" d=" M 34.83 57.33 C 38.34 58.01 41.62 60.81 40.47 64.72 C 38.82 63.02 37.01 61.47 35.31 59.81 C 35.19 59.19 34.95 57.95 34.83 57.33 Z" />
<path fill="#000000" opacity="1.00" d=" M 22.32 59.29 C 23.66 58.12 25.19 58.76 26.34 59.83 C 27.73 63.43 23.69 68.47 19.86 66.22 C 18.03 63.80 20.25 60.70 22.32 59.29 M 20.74 63.00 C 19.30 65.51 22.25 66.10 23.66 64.56 C 25.16 63.55 24.73 61.62 24.78 60.09 C 22.85 60.01 21.32 61.17 20.74 63.00 Z" />
<path fill="#ffe55e" opacity="1.00" d=" M 20.74 63.00 C 21.32 61.17 22.85 60.01 24.78 60.09 C 24.73 61.62 25.16 63.55 23.66 64.56 C 22.25 66.10 19.30 65.51 20.74 63.00 Z" />
<path fill="#287e99" opacity="1.00" d=" M 35.31 59.81 C 37.01 61.47 38.82 63.02 40.47 64.72 L 40.85 65.11 C 39.00 66.75 37.15 68.38 35.29 70.00 C 35.63 68.02 37.23 65.90 36.26 63.86 C 35.11 62.74 33.44 62.97 31.99 62.80 C 32.99 62.55 33.99 62.30 34.99 62.05 C 35.07 61.49 35.23 60.37 35.31 59.81 Z" />
<path fill="#7abf9f" opacity="1.00" d=" M 50.09 59.46 C 52.19 63.13 53.01 67.31 54.22 71.30 C 54.33 71.90 54.56 73.11 54.67 73.71 L 54.75 73.52 C 55.42 75.70 56.25 77.83 57.21 79.90 C 56.99 80.40 56.53 81.40 56.31 81.90 C 54.47 78.39 52.01 75.16 50.81 71.35 C 49.97 67.86 49.74 64.26 49.48 60.68 L 50.09 59.46 Z" />
<path fill="#306e8c" opacity="1.00" d=" M 49.16 70.95 C 48.60 67.60 47.49 63.78 49.48 60.68 C 49.74 64.26 49.97 67.86 50.81 71.35 C 52.01 75.16 54.47 78.39 56.31 81.90 C 56.53 81.40 56.99 80.40 57.21 79.90 C 58.30 82.20 59.39 84.49 60.51 86.77 C 59.40 87.92 58.29 89.07 57.18 90.22 C 54.29 83.89 50.44 77.89 49.16 70.95 Z" />
<path fill="#133f7e" opacity="1.00" d=" M 53.09 62.30 C 54.60 61.80 56.12 61.29 57.63 60.78 C 58.51 61.64 59.38 62.49 60.25 63.34 C 58.62 65.01 56.81 66.51 54.91 67.86 C 54.27 66.01 53.67 64.16 53.09 62.30 Z" />
<path fill="#488d93" opacity="1.00" d=" M 92.04 63.56 C 98.18 70.97 104.10 78.57 111.00 85.29 L 111.00 86.81 C 104.82 81.79 98.08 77.33 92.92 71.19 C 92.40 68.68 92.21 66.11 92.04 63.56 Z" />
<path fill="#ffe55e" opacity="1.00" d=" M 29.75 65.42 C 30.72 65.21 32.67 64.79 33.65 64.57 C 33.66 65.55 33.70 67.50 33.71 68.48 C 32.13 69.36 30.60 70.79 28.65 70.55 C 27.59 68.91 28.80 67.14 29.47 65.65 C 29.54 65.59 29.68 65.48 29.75 65.42 Z" />
<path fill="#ffe65e" opacity="1.00" d=" M 12.88 81.53 C 11.55 76.42 10.67 69.73 14.76 65.66 C 14.63 67.09 14.62 68.52 14.73 69.95 C 15.79 70.75 16.93 71.44 18.06 72.15 L 17.58 72.97 C 15.95 75.79 14.41 78.66 12.88 81.53 Z" />
<path fill="#ffe65e" opacity="1.00" d=" M 30.50 79.60 C 34.46 73.55 38.90 66.66 46.36 64.76 C 46.21 65.28 45.89 66.33 45.74 66.86 C 40.71 70.61 36.73 75.54 31.75 79.35 C 31.44 79.41 30.82 79.54 30.50 79.60 Z" />
<path fill="#b53f42" opacity="1.00" d=" M 31.75 79.35 C 36.73 75.54 40.71 70.61 45.74 66.86 C 45.20 70.21 44.81 73.83 42.61 76.58 C 38.75 81.14 33.37 84.08 28.11 86.73 L 28.03 84.97 C 28.32 83.24 28.64 81.51 29.21 79.85 L 30.50 79.60 C 30.82 79.54 31.44 79.41 31.75 79.35 Z" />
<path fill="#a73c3d" opacity="1.00" d=" M 17.58 72.97 L 18.91 72.55 C 18.99 76.89 16.90 80.90 14.08 84.08 L 13.06 83.22 C 13.02 82.80 12.93 81.95 12.88 81.53 C 14.41 78.66 15.95 75.79 17.58 72.97 Z" />
<path fill="#163c77" opacity="1.00" d=" M 20.60 75.08 C 21.94 75.33 23.29 75.57 24.63 75.82 C 23.92 79.00 22.91 82.19 20.79 84.73 C 20.38 81.53 20.39 78.30 20.60 75.08 Z" />
<path fill="#1c4a80" opacity="1.00" d=" M 60.51 86.77 C 62.94 91.57 65.60 96.24 68.05 101.03 C 63.58 98.42 59.64 94.81 57.18 90.22 C 58.29 89.07 59.40 87.92 60.51 86.77 Z" />
<path fill="#295479" opacity="1.00" d=" M 92.83 87.70 C 95.66 88.83 98.59 89.70 101.42 90.82 C 104.62 93.54 107.81 96.50 110.16 100.01 C 106.43 98.74 103.28 96.29 99.96 94.24 C 97.21 92.53 94.50 90.55 92.83 87.70 Z" />
</svg>
