<?xml version="1.0" encoding="UTF-8" ?>
<!DOCTYPE svg PUBLIC "-//W3C//DTD SVG 1.1//EN" "http://www.w3.org/Graphics/SVG/1.1/DTD/svg11.dtd">
<svg width="111pt" height="111pt" viewBox="0 0 111 111" version="1.1" xmlns="http://www.w3.org/2000/svg">
<path fill="#000000" opacity="1.00" d=" M 88.90 5.96 C 90.52 4.00 93.64 2.17 95.92 4.06 C 95.96 7.18 94.20 10.07 93.49 13.09 C 99.25 20.63 104.88 28.29 111.00 35.54 L 111.00 38.93 C 109.28 36.99 107.58 35.05 105.87 33.11 C 101.35 26.82 96.53 20.74 91.86 14.56 C 91.38 15.69 89.68 16.92 90.65 18.24 C 92.86 22.19 95.61 25.82 98.56 29.24 C 102.51 34.22 106.73 38.96 111.00 43.67 L 111.00 46.96 C 103.42 38.39 95.31 30.10 89.41 20.23 C 87.48 24.25 86.25 28.57 84.21 32.55 C 87.17 32.11 90.15 31.76 93.14 31.58 C 92.70 37.22 90.99 42.77 87.51 47.27 C 90.64 47.40 93.74 47.91 96.73 48.87 C 95.90 53.02 93.22 56.36 90.22 59.20 C 84.24 65.45 76.09 68.96 67.97 71.47 C 70.32 78.12 74.21 84.02 77.29 90.32 C 68.21 88.96 65.05 79.16 62.22 71.76 C 56.43 72.12 50.94 74.09 45.25 75.04 C 45.02 77.54 44.78 80.04 44.51 82.54 C 44.09 82.45 43.24 82.27 42.82 82.18 C 42.48 80.89 42.15 79.61 41.81 78.32 C 39.95 80.39 38.01 82.39 36.00 84.31 C 36.19 88.79 34.18 92.93 31.18 96.14 C 27.32 100.40 24.59 105.52 22.92 111.00 L 21.70 111.00 C 20.75 104.28 23.93 97.98 27.75 92.70 C 29.32 90.33 29.39 87.33 30.85 84.91 C 31.96 92.05 25.48 96.66 24.16 103.16 C 26.60 100.19 28.35 96.73 30.81 93.78 C 32.83 91.41 33.90 88.46 34.72 85.51 C 33.71 84.80 32.69 84.10 31.69 83.37 L 31.75 83.21 C 34.06 83.00 34.19 80.45 35.05 78.85 C 31.07 80.10 27.41 83.24 23.02 82.53 C 19.70 82.48 18.91 78.21 15.62 78.08 C 15.30 84.39 14.19 92.58 7.70 95.51 C 8.73 89.09 10.13 82.64 9.55 76.09 C 8.89 75.49 7.55 74.30 6.89 73.70 C 9.75 71.67 13.50 73.08 16.72 73.08 C 16.64 71.77 16.56 70.45 16.47 69.14 C 14.26 66.02 13.92 62.17 13.66 58.48 C 12.26 57.53 10.81 56.56 9.90 55.09 C 5.89 49.20 4.12 42.09 3.27 35.10 C 2.89 32.47 3.13 29.80 3.97 27.28 C 7.07 30.41 8.39 34.70 10.38 38.52 C 12.70 43.11 14.77 47.81 16.61 52.61 C 16.84 52.73 17.30 52.97 17.53 53.09 C 19.90 51.54 22.18 49.86 24.73 48.62 C 25.75 43.41 27.14 38.27 29.32 33.42 C 31.17 29.36 32.85 24.77 36.90 22.39 L 36.51 23.68 C 31.97 30.03 29.37 37.56 27.35 45.04 C 26.79 47.20 26.75 49.45 26.82 51.66 C 29.53 47.98 30.74 43.50 32.26 39.26 C 33.75 35.87 34.77 32.31 35.91 28.80 C 36.57 26.66 37.53 24.46 36.99 22.18 C 37.51 21.94 38.55 21.46 39.07 21.22 C 38.02 30.33 34.06 38.77 30.99 47.32 C 33.67 47.67 36.15 48.75 38.20 50.51 C 40.32 48.82 42.93 47.76 44.91 45.92 C 47.26 34.21 50.31 22.19 57.67 12.52 C 58.60 11.14 60.06 10.33 61.58 9.78 C 63.00 15.08 62.54 20.60 63.16 26.01 C 63.61 30.42 63.06 34.84 62.71 39.24 C 64.14 38.53 65.94 38.19 66.75 36.66 C 70.15 31.72 73.02 26.43 76.47 21.52 C 80.20 16.02 84.60 11.01 88.90 5.96 M 89.55 7.66 C 85.40 12.85 80.83 17.78 77.41 23.51 L 77.20 23.57 C 69.76 35.45 61.58 47.00 56.05 59.95 C 55.13 62.10 53.74 64.14 53.76 66.57 C 53.55 66.68 53.15 66.89 52.95 67.00 C 55.59 66.21 58.98 66.18 60.60 63.56 C 67.16 54.45 73.73 45.33 79.81 35.89 C 84.84 29.70 85.92 21.44 89.35 14.44 C 91.78 11.96 92.71 8.64 93.63 5.40 C 92.01 3.96 90.71 6.76 89.55 7.66 M 59.52 13.07 C 52.74 22.65 48.88 33.98 46.90 45.47 C 49.38 44.34 51.79 43.04 54.37 42.13 C 54.44 41.55 54.57 40.39 54.64 39.81 C 56.07 38.62 55.36 36.52 55.73 34.92 C 57.07 32.90 56.13 30.23 57.22 28.11 C 58.60 23.21 59.08 18.13 59.52 13.07 M 56.58 41.47 C 57.75 40.77 59.49 40.77 60.39 39.67 C 61.45 34.12 61.46 28.39 60.60 22.82 C 59.01 28.97 58.12 35.29 56.58 41.47 M 5.27 31.96 C 5.44 39.61 7.55 47.30 11.47 53.91 C 12.34 54.93 13.21 55.95 14.10 56.95 C 17.29 53.85 13.34 49.88 12.17 46.71 C 10.18 41.66 7.56 36.88 5.27 31.96 M 81.22 37.34 C 76.66 44.74 71.30 51.64 66.78 59.04 C 73.74 55.64 80.40 51.39 86.01 46.02 C 89.31 42.86 90.37 38.32 90.86 33.95 C 87.55 34.45 82.82 33.54 81.22 37.34 M 39.34 51.92 C 40.44 53.98 41.41 56.10 42.27 58.27 C 42.69 60.30 42.99 62.35 43.19 64.41 C 46.25 64.62 49.28 64.11 52.24 63.41 C 53.93 59.03 56.91 55.23 58.10 50.64 C 60.55 47.82 61.94 44.13 64.00 40.99 C 55.50 43.91 46.99 47.13 39.34 51.92 M 29.53 49.46 C 32.22 53.45 35.05 57.39 37.11 61.76 C 37.13 64.47 35.87 66.86 34.67 69.21 C 32.49 72.76 29.51 75.77 26.12 78.18 C 24.54 79.12 22.67 78.62 20.96 78.49 C 21.34 80.29 23.44 80.60 24.98 80.43 C 30.81 78.97 35.91 75.12 39.15 70.08 C 41.22 67.13 41.53 63.32 40.55 59.92 C 39.04 54.95 35.87 48.30 29.53 49.46 M 82.97 51.13 C 80.12 53.36 77.02 55.23 73.92 57.08 C 70.27 59.78 65.38 60.69 62.30 64.03 C 63.26 64.18 65.18 64.48 66.14 64.63 C 66.55 66.09 67.00 67.54 67.44 68.99 C 77.82 66.35 87.52 60.55 93.77 51.71 C 93.93 51.46 94.26 50.96 94.43 50.71 C 90.90 49.52 85.93 47.98 82.97 51.13 M 28.72 52.36 C 28.02 53.44 27.42 54.58 26.69 55.63 C 25.00 56.34 24.94 54.12 24.26 53.15 C 22.86 53.56 21.46 53.96 20.06 54.35 C 18.54 55.27 17.31 56.56 16.31 58.03 C 16.13 61.78 16.77 65.64 18.76 68.89 C 19.43 68.80 20.75 68.64 21.42 68.56 C 24.66 69.03 26.72 65.07 29.74 65.64 C 28.24 67.25 26.31 68.30 24.35 69.22 L 24.45 69.45 C 22.38 69.92 20.27 70.17 18.14 70.26 C 18.72 71.51 19.31 72.76 19.87 74.01 C 20.87 75.22 21.88 76.41 22.91 77.59 C 27.23 75.55 31.14 72.30 33.47 68.08 C 29.34 66.04 29.49 60.94 29.82 57.01 C 30.35 56.49 31.40 55.45 31.92 54.94 C 30.91 54.10 30.22 52.29 28.72 52.36 M 30.82 56.82 C 29.95 59.70 31.09 62.59 32.01 65.30 C 33.11 66.01 34.94 65.96 35.40 64.52 C 36.21 62.16 34.52 59.93 33.51 57.90 C 32.84 57.63 31.50 57.09 30.82 56.82 M 42.53 66.34 C 44.40 66.68 46.34 67.05 47.31 68.89 C 48.59 67.40 50.76 67.05 51.92 65.50 C 48.81 65.98 45.69 66.40 42.53 66.34 M 49.81 69.03 C 47.23 69.35 50.27 73.97 50.80 70.99 C 54.15 69.50 58.14 70.60 61.69 69.55 C 61.74 68.93 61.82 67.69 61.87 67.08 C 57.83 67.61 53.81 70.02 49.81 69.03 M 64.31 66.88 C 64.06 68.76 63.88 70.73 64.64 72.54 C 66.65 77.90 69.00 83.60 73.77 87.11 C 69.12 81.13 66.79 73.89 64.31 66.88 M 41.50 71.02 L 41.66 71.39 C 39.66 73.79 38.04 76.48 36.87 79.38 C 36.07 80.51 35.51 81.79 34.93 83.04 C 36.98 81.73 38.71 79.96 39.89 77.83 L 39.92 77.10 C 41.50 77.19 42.02 76.39 41.48 74.70 L 42.30 74.07 C 43.61 72.98 46.06 72.20 44.92 70.03 C 43.68 68.85 42.48 70.38 41.50 71.02 M 10.77 74.28 C 12.78 76.12 15.71 76.12 18.19 76.98 C 18.02 73.37 13.13 74.90 10.77 74.28 M 11.66 77.21 C 12.41 82.80 10.77 88.24 9.07 93.49 C 13.23 89.89 13.84 84.04 13.77 78.88 C 14.19 77.32 12.69 77.37 11.66 77.21 Z" />
<path fill="#1d9e9d" opacity="1.00" d=" M 89.55 7.66 C 90.71 6.76 92.01 3.96 93.63 5.40 C 92.71 8.64 91.78 11.96 89.35 14.44 C 85.92 21.44 84.84 29.70 79.81 35.89 C 73.73 45.33 67.16 54.45 60.60 63.56 C 58.98 66.18 55.59 66.21 52.95 67.00 C 53.15 66.89 53.55 66.68 53.76 66.57 C 55.89 65.87 56.80 63.76 57.90 62.01 C 65.77 48.68 74.90 36.16 83.23 23.13 C 86.36 18.13 88.69 12.70 90.94 7.27 L 89.55 7.66 Z" />
<path fill="#d2ecaa" opacity="1.00" d=" M 89.55 7.66 L 90.94 7.27 C 88.69 12.70 86.36 18.13 83.23 23.13 C 83.13 22.65 82.91 21.71 82.80 21.23 C 81.10 22.19 79.36 23.17 77.41 23.51 C 80.83 17.78 85.40 12.85 89.55 7.66 Z" />
<path fill="#d0e7a0" opacity="1.00" d=" M 59.52 13.07 C 59.08 18.13 58.60 23.21 57.22 28.11 C 56.13 30.23 57.07 32.90 55.73 34.92 C 55.36 36.52 56.07 38.62 54.64 39.81 C 54.57 40.39 54.44 41.55 54.37 42.13 C 51.79 43.04 49.38 44.34 46.90 45.47 C 48.88 33.98 52.74 22.65 59.52 13.07 Z" />
<path fill="#46af9f" opacity="1.00" d=" M 90.65 18.24 C 89.68 16.92 91.38 15.69 91.86 14.56 C 96.53 20.74 101.35 26.82 105.87 33.11 C 103.27 32.08 101.39 29.69 98.56 29.24 C 95.61 25.82 92.86 22.19 90.65 18.24 Z" />
<path fill="#d8e99a" opacity="1.00" d=" M 77.41 23.51 C 79.36 23.17 81.10 22.19 82.80 21.23 C 82.91 21.71 83.13 22.65 83.23 23.13 C 74.90 36.16 65.77 48.68 57.90 62.01 C 56.80 63.76 55.89 65.87 53.76 66.57 C 53.74 64.14 55.13 62.10 56.05 59.95 C 61.58 47.00 69.76 35.45 77.20 23.57 L 77.41 23.51 Z" />
<path fill="#d2ecaa" opacity="1.00" d=" M 36.90 22.39 C 36.92 22.34 36.97 22.23 36.99 22.18 C 37.53 24.46 36.57 26.66 35.91 28.80 C 34.77 32.31 33.75 35.87 32.26 39.26 C 30.53 41.10 28.79 42.95 27.35 45.04 C 29.37 37.56 31.97 30.03 36.51 23.68 L 36.90 22.39 Z" />
<path fill="#2faba4" opacity="1.00" d=" M 56.58 41.47 C 58.12 35.29 59.01 28.97 60.60 22.82 C 61.46 28.39 61.45 34.12 60.39 39.67 C 59.49 40.77 57.75 40.77 56.58 41.47 Z" />
<path fill="#a7d9a2" opacity="1.00" d=" M 98.56 29.24 C 101.39 29.69 103.27 32.08 105.87 33.11 C 107.58 35.05 109.28 36.99 111.00 38.93 L 111.00 43.67 C 106.73 38.96 102.51 34.22 98.56 29.24 Z" />
<path fill="#c0e2a3" opacity="1.00" d=" M 5.27 31.96 C 7.56 36.88 10.18 41.66 12.17 46.71 C 12.33 49.12 12.68 51.69 11.47 53.91 C 7.55 47.30 5.44 39.61 5.27 31.96 Z" />
<path fill="#19924c" opacity="1.00" d=" M 81.22 37.34 C 82.82 33.54 87.55 34.45 90.86 33.95 C 90.37 38.32 89.31 42.86 86.01 46.02 C 80.40 51.39 73.74 55.64 66.78 59.04 C 71.30 51.64 76.66 44.74 81.22 37.34 Z" />
<path fill="#2faba4" opacity="1.00" d=" M 27.35 45.04 C 28.79 42.95 30.53 41.10 32.26 39.26 C 30.74 43.50 29.53 47.98 26.82 51.66 C 26.75 49.45 26.79 47.20 27.35 45.04 Z" />
<path fill="#8fcb98" opacity="1.00" d=" M 39.34 51.92 C 46.99 47.13 55.50 43.91 64.00 40.99 C 61.94 44.13 60.55 47.82 58.10 50.64 C 52.87 53.28 48.01 56.76 42.27 58.27 C 41.41 56.10 40.44 53.98 39.34 51.92 Z" />
<path fill="#369c92" opacity="1.00" d=" M 12.17 46.71 C 13.34 49.88 17.29 53.85 14.10 56.95 C 13.21 55.95 12.34 54.93 11.47 53.91 C 12.68 51.69 12.33 49.12 12.17 46.71 Z" />
<path fill="#bbff66" opacity="1.00" d=" M 29.53 49.46 C 35.87 48.30 39.04 54.95 40.55 59.92 C 40.23 61.26 39.87 62.59 39.52 63.91 C 38.70 63.21 37.90 62.49 37.11 61.76 C 35.05 57.39 32.22 53.45 29.53 49.46 Z" />
<path fill="#d33f5f" opacity="1.00" d=" M 82.97 51.13 C 85.93 47.98 90.90 49.52 94.43 50.71 C 94.26 50.96 93.93 51.46 93.77 51.71 C 87.61 53.31 82.25 56.95 76.25 59.02 C 75.47 58.37 74.70 57.72 73.92 57.08 C 77.02 55.23 80.12 53.36 82.97 51.13 Z" />
<path fill="#0e8d45" opacity="1.00" d=" M 42.27 58.27 C 48.01 56.76 52.87 53.28 58.10 50.64 C 56.91 55.23 53.93 59.03 52.24 63.41 C 49.28 64.11 46.25 64.62 43.19 64.41 C 42.99 62.35 42.69 60.30 42.27 58.27 Z" />
<path fill="#84c691" opacity="1.00" d=" M 28.72 52.36 C 30.22 52.29 30.91 54.10 31.92 54.94 C 31.40 55.45 30.35 56.49 29.82 57.01 C 29.27 58.98 29.65 61.47 27.94 62.92 C 25.79 64.83 23.41 66.47 21.42 68.56 C 20.75 68.64 19.43 68.80 18.76 68.89 C 16.77 65.64 16.13 61.78 16.31 58.03 C 17.68 58.52 19.42 60.25 20.77 58.72 C 22.18 57.31 20.66 55.69 20.06 54.35 C 21.46 53.96 22.86 53.56 24.26 53.15 C 24.94 54.12 25.00 56.34 26.69 55.63 C 27.42 54.58 28.02 53.44 28.72 52.36 M 21.47 61.07 C 20.57 62.26 22.61 63.52 23.43 62.41 C 24.46 61.21 22.29 59.89 21.47 61.07 Z" />
<path fill="#f59874" opacity="1.00" d=" M 76.25 59.02 C 82.25 56.95 87.61 53.31 93.77 51.71 C 87.52 60.55 77.82 66.35 67.44 68.99 C 67.00 67.54 66.55 66.09 66.14 64.63 C 69.74 63.18 72.59 60.35 76.25 59.02 Z" />
<path fill="#fff3ae" opacity="1.00" d=" M 16.31 58.03 C 17.31 56.56 18.54 55.27 20.06 54.35 C 20.66 55.69 22.18 57.31 20.77 58.72 C 19.42 60.25 17.68 58.52 16.31 58.03 Z" />
<path fill="#0f8e46" opacity="1.00" d=" M 27.94 62.92 C 29.65 61.47 29.27 58.98 29.82 57.01 C 29.49 60.94 29.34 66.04 33.47 68.08 C 31.14 72.30 27.23 75.55 22.91 77.59 C 21.88 76.41 20.87 75.22 19.87 74.01 C 21.88 73.53 23.89 73.07 25.90 72.60 C 25.42 71.55 24.93 70.50 24.45 69.45 L 24.35 69.22 C 26.31 68.30 28.24 67.25 29.74 65.64 C 26.72 65.07 24.66 69.03 21.42 68.56 C 23.41 66.47 25.79 64.83 27.94 62.92 Z" />
<path fill="#e8295e" opacity="1.00" d=" M 30.82 56.82 C 31.50 57.09 32.84 57.63 33.51 57.90 C 33.42 60.43 33.63 63.15 32.01 65.30 C 31.09 62.59 29.95 59.70 30.82 56.82 Z" />
<path fill="#ca335a" opacity="1.00" d=" M 62.30 64.03 C 65.38 60.69 70.27 59.78 73.92 57.08 C 74.70 57.72 75.47 58.37 76.25 59.02 C 72.59 60.35 69.74 63.18 66.14 64.63 C 65.18 64.48 63.26 64.18 62.30 64.03 Z" />
<path fill="#8a1a5a" opacity="1.00" d=" M 33.51 57.90 C 34.52 59.93 36.21 62.16 35.40 64.52 C 34.94 65.96 33.11 66.01 32.01 65.30 C 33.63 63.15 33.42 60.43 33.51 57.90 Z" />
<path fill="#8eee53" opacity="1.00" d=" M 40.55 59.92 C 41.53 63.32 41.22 67.13 39.15 70.08 C 38.06 70.64 36.96 71.18 35.85 71.71 C 35.55 71.08 34.97 69.83 34.67 69.21 C 35.87 66.86 37.13 64.47 37.11 61.76 C 37.90 62.49 38.70 63.21 39.52 63.91 C 39.87 62.59 40.23 61.26 40.55 59.92 Z" />
<path fill="#d1e3a3" opacity="1.00" d=" M 21.47 61.07 C 22.29 59.89 24.46 61.21 23.43 62.41 C 22.61 63.52 20.57 62.26 21.47 61.07 Z" />
<path fill="#d33f5f" opacity="1.00" d=" M 42.53 66.34 C 45.69 66.40 48.81 65.98 51.92 65.50 C 50.76 67.05 48.59 67.40 47.31 68.89 C 46.34 67.05 44.40 66.68 42.53 66.34 Z" />
<path fill="#a6e2ab" opacity="1.00" d=" M 49.81 69.03 C 53.81 70.02 57.83 67.61 61.87 67.08 C 61.82 67.69 61.74 68.93 61.69 69.55 C 58.14 70.60 54.15 69.50 50.80 70.99 C 50.55 70.50 50.06 69.52 49.81 69.03 Z" />
<path fill="#a6e2ab" opacity="1.00" d=" M 64.31 66.88 C 66.79 73.89 69.12 81.13 73.77 87.11 C 69.00 83.60 66.65 77.90 64.64 72.54 C 63.88 70.73 64.06 68.76 64.31 66.88 Z" />
<path fill="#1f821e" opacity="1.00" d=" M 26.12 78.18 C 29.51 75.77 32.49 72.76 34.67 69.21 C 34.97 69.83 35.55 71.08 35.85 71.71 C 36.96 71.18 38.06 70.64 39.15 70.08 C 35.91 75.12 30.81 78.97 24.98 80.43 C 23.44 80.60 21.34 80.29 20.96 78.49 C 22.67 78.62 24.54 79.12 26.12 78.18 Z" />
<path fill="#0a4a4b" opacity="1.00" d=" M 50.80 70.99 C 50.27 73.97 47.23 69.35 49.81 69.03 C 50.06 69.52 50.55 70.50 50.80 70.99 Z" />
<path fill="#6bbd82" opacity="1.00" d=" M 18.14 70.26 C 20.27 70.17 22.38 69.92 24.45 69.45 C 24.93 70.50 25.42 71.55 25.90 72.60 C 23.89 73.07 21.88 73.53 19.87 74.01 C 19.31 72.76 18.72 71.51 18.14 70.26 Z" />
<path fill="#2a746b" opacity="1.00" d=" M 41.50 71.02 C 42.48 70.38 43.68 68.85 44.92 70.03 C 46.06 72.20 43.61 72.98 42.30 74.07 C 42.14 73.40 41.82 72.06 41.66 71.39 L 41.50 71.02 Z" />
<path fill="#a6e2ab" opacity="1.00" d=" M 41.66 71.39 C 41.82 72.06 42.14 73.40 42.30 74.07 L 41.48 74.70 C 40.44 75.20 39.92 76.00 39.92 77.10 L 39.89 77.83 C 38.87 78.33 37.86 78.85 36.87 79.38 C 38.04 76.48 39.66 73.79 41.66 71.39 Z" />
<path fill="#58bba9" opacity="1.00" d=" M 10.77 74.28 C 13.13 74.90 18.02 73.37 18.19 76.98 C 15.71 76.12 12.78 76.12 10.77 74.28 Z" />
<path fill="#1d9e9d" opacity="1.00" d=" M 39.92 77.10 C 39.92 76.00 40.44 75.20 41.48 74.70 C 42.02 76.39 41.50 77.19 39.92 77.10 Z" />
<path fill="#c0e2a3" opacity="1.00" d=" M 11.66 77.21 C 12.69 77.37 14.19 77.32 13.77 78.88 C 13.84 84.04 13.23 89.89 9.07 93.49 C 10.77 88.24 12.41 82.80 11.66 77.21 Z" />
<path fill="#46af9f" opacity="1.00" d=" M 36.87 79.38 C 37.86 78.85 38.87 78.33 39.89 77.83 C 38.71 79.96 36.98 81.73 34.93 83.04 C 35.51 81.79 36.07 80.51 36.87 79.38 Z" />
<path fill="#58bba9" opacity="1.00" d=" M 30.85 84.91 C 31.06 84.52 31.48 83.75 31.69 83.37 C 32.69 84.10 33.71 84.80 34.72 85.51 C 33.90 88.46 32.83 91.41 30.81 93.78 C 28.35 96.73 26.60 100.19 24.16 103.16 C 25.48 96.66 31.96 92.05 30.85 84.91 Z" />
</svg>
