<?xml version="1.0" encoding="UTF-8" ?>
<!DOCTYPE svg PUBLIC "-//W3C//DTD SVG 1.1//EN" "http://www.w3.org/Graphics/SVG/1.1/DTD/svg11.dtd">
<svg width="111pt" height="111pt" viewBox="0 0 111 111" version="1.1" xmlns="http://www.w3.org/2000/svg">
<path fill="#000000" opacity="1.00" d=" M 69.80 6.76 C 73.63 4.63 78.01 2.22 82.48 2.82 C 82.58 5.52 82.17 8.21 82.20 10.91 C 86.36 13.90 90.98 16.80 93.50 21.42 C 95.03 24.81 96.42 28.29 97.16 31.95 C 97.72 37.44 96.55 42.95 94.74 48.11 C 99.58 55.46 105.51 62.06 111.00 68.94 L 111.00 72.55 C 107.73 68.64 104.47 64.72 101.26 60.76 C 95.84 52.33 88.59 45.21 83.80 36.36 C 83.48 36.48 82.85 36.73 82.53 36.85 C 82.23 37.20 81.63 37.88 81.33 38.23 C 84.27 44.85 87.89 51.20 91.46 57.52 C 93.28 60.29 94.88 63.32 97.58 65.36 C 101.78 68.58 104.66 73.24 109.19 76.06 C 109.64 76.48 110.55 77.33 111.00 77.75 L 111.00 81.44 C 107.01 78.29 103.68 74.43 99.88 71.07 C 103.33 76.52 107.00 81.83 111.00 86.89 L 111.00 89.86 C 102.87 80.23 95.64 69.78 89.58 58.72 C 84.90 51.75 82.11 43.71 77.37 36.81 C 75.57 36.60 75.55 38.80 74.82 39.87 C 72.88 44.77 69.49 48.98 67.90 54.04 C 69.21 53.41 70.34 52.49 71.36 51.47 C 73.80 49.37 76.03 47.04 78.62 45.12 C 84.69 57.69 90.44 70.45 97.26 82.64 C 101.02 87.90 105.62 92.69 111.00 96.32 L 111.00 99.24 C 107.90 97.52 105.41 95.01 102.66 92.83 C 105.66 98.12 107.90 103.80 111.00 109.04 L 111.00 109.51 C 107.43 108.66 103.84 107.39 101.01 104.98 C 94.74 98.46 89.67 90.94 84.42 83.61 C 80.86 78.50 78.73 72.60 75.70 67.20 C 72.81 67.87 69.96 68.93 66.94 68.45 C 64.68 67.85 63.10 69.59 61.50 70.84 C 65.45 84.06 73.30 95.54 78.92 108.02 L 78.67 108.75 C 72.00 105.83 66.13 100.84 62.05 94.76 C 59.76 96.02 57.47 97.50 54.81 97.72 C 47.10 98.89 39.23 98.73 31.46 98.26 C 29.59 97.83 27.07 97.93 26.08 95.94 C 25.88 93.35 28.84 92.54 30.74 91.78 C 39.38 88.92 48.22 86.36 57.28 85.31 C 54.75 80.17 52.77 74.71 52.27 68.96 C 50.98 72.81 50.25 77.13 47.04 79.97 C 41.69 84.92 35.26 89.04 28.17 90.88 C 28.16 85.48 31.20 80.59 33.71 75.97 C 31.77 76.70 29.71 76.57 27.69 76.54 C 27.62 81.60 25.29 86.67 22.01 90.42 C 19.08 89.11 20.91 84.72 20.18 82.18 C 18.72 84.29 17.26 86.59 14.88 87.78 C 12.21 88.05 11.93 84.48 11.00 82.68 C 7.88 86.37 3.83 89.09 0.00 91.97 L 0.00 84.75 L 0.69 83.60 C 0.97 85.15 1.23 86.70 1.57 88.24 C 4.62 86.10 7.72 83.89 10.07 80.96 C 10.35 78.60 9.85 76.24 9.72 73.89 C 10.37 70.34 10.66 66.07 13.86 63.78 C 16.28 62.25 17.73 59.67 18.64 57.04 C 18.08 54.66 17.02 52.44 15.93 50.27 C 13.70 52.25 13.66 55.70 12.53 58.36 C 10.79 66.09 7.48 73.34 3.77 80.30 L 2.60 80.08 C 6.37 71.60 10.30 63.13 12.28 54.01 C 12.92 51.59 13.23 48.70 15.63 47.33 C 15.18 43.88 15.10 40.39 15.17 36.92 C 15.06 35.71 15.62 34.99 16.87 34.78 C 18.23 36.25 19.34 37.93 20.72 39.39 C 20.55 34.53 19.49 29.47 20.57 24.68 C 21.67 23.87 23.14 24.03 24.22 24.77 C 26.72 26.53 29.23 28.36 31.01 30.89 C 32.86 21.54 39.56 13.22 48.38 9.55 C 55.12 6.68 62.59 6.33 69.80 6.76 M 73.31 7.74 C 74.54 8.57 76.13 8.49 77.53 8.90 C 78.09 9.16 79.21 9.66 79.77 9.92 C 80.27 8.28 80.36 6.47 80.09 4.78 L 79.39 5.40 C 77.30 5.99 75.29 6.86 73.31 7.74 M 48.95 12.00 C 46.00 15.30 43.77 19.43 42.74 23.75 C 50.37 18.99 58.30 14.66 66.56 11.08 C 66.47 8.77 63.54 9.72 62.09 9.58 C 57.61 9.62 53.17 10.51 48.95 12.00 M 68.81 9.84 C 68.93 10.35 69.19 11.37 69.32 11.88 C 65.28 15.20 59.94 16.07 55.56 18.78 C 51.99 20.30 48.49 22.05 45.32 24.33 C 44.36 24.92 44.06 25.79 44.40 26.94 C 42.87 27.11 41.45 27.63 40.14 28.47 C 29.17 31.02 20.88 42.38 22.50 53.72 C 24.87 53.15 26.85 51.40 29.40 51.43 L 29.46 52.80 C 27.84 53.51 25.99 54.08 24.77 55.42 C 20.07 57.37 17.14 62.87 17.25 67.89 C 16.05 69.60 18.89 70.30 19.76 71.32 C 23.45 75.12 29.13 74.29 33.87 73.66 C 35.49 73.80 36.18 72.10 37.01 71.03 C 35.27 71.31 33.57 71.78 31.87 72.21 C 30.38 71.94 29.69 70.40 28.59 69.54 C 28.74 65.92 32.05 64.17 34.13 61.71 C 35.98 61.89 38.79 61.22 39.65 63.38 C 40.20 65.32 38.93 67.24 38.68 69.15 C 41.23 67.14 45.36 64.96 44.27 61.06 C 44.23 58.24 41.82 56.54 39.32 55.98 C 36.50 54.97 33.65 53.51 30.61 53.52 L 30.76 52.98 L 29.50 52.78 C 29.79 52.45 30.38 51.77 30.67 51.44 C 34.11 51.59 37.16 53.49 40.50 53.89 C 42.30 55.58 45.33 56.30 45.88 59.05 C 46.65 60.26 45.46 63.24 47.63 62.94 C 48.25 61.51 48.43 59.80 49.65 58.72 C 51.78 57.93 54.02 57.38 55.89 56.02 C 56.55 56.78 57.24 57.51 57.96 58.22 C 59.02 57.49 60.12 56.81 61.27 56.22 C 62.66 58.70 67.04 54.64 64.15 53.32 C 65.59 51.70 67.40 50.34 68.43 48.41 C 69.07 45.98 68.57 43.38 69.37 40.97 C 69.70 42.31 70.02 43.65 70.34 44.99 C 73.34 41.58 74.66 36.97 76.13 32.75 C 77.87 33.03 78.68 34.67 79.81 35.80 C 81.45 34.79 82.43 31.52 84.69 32.40 C 86.56 34.35 86.94 37.38 88.99 39.18 C 91.01 36.80 92.22 33.75 93.80 31.05 C 92.46 27.28 91.67 22.77 88.54 20.04 C 83.49 14.31 76.32 10.81 68.81 9.84 M 33.86 28.86 C 36.25 27.24 39.09 26.94 41.77 26.10 C 41.38 21.84 43.25 18.00 44.78 14.18 C 39.28 17.19 35.79 23.06 33.86 28.86 M 22.07 26.04 C 21.82 30.09 22.37 34.14 22.75 38.16 C 22.93 38.34 23.30 38.71 23.48 38.89 C 24.86 36.33 26.70 34.10 28.62 31.94 C 27.06 29.91 25.11 28.21 23.65 26.09 C 23.26 26.08 22.47 26.05 22.07 26.04 M 17.31 38.09 C 17.39 41.41 17.39 44.78 18.27 48.01 C 18.41 50.56 18.88 53.37 20.87 55.16 C 20.63 53.07 19.29 51.13 19.76 48.97 C 20.31 46.86 21.14 44.58 20.65 42.40 C 19.63 40.93 19.04 38.90 17.31 38.09 M 76.59 48.90 L 76.48 49.41 C 70.92 53.56 65.53 57.98 59.35 61.24 L 58.64 60.97 C 59.12 62.93 59.67 64.88 60.35 66.78 C 65.65 65.39 68.31 58.98 73.56 57.26 C 76.67 63.53 80.17 69.60 83.04 76.00 C 85.92 81.45 89.49 86.57 93.53 91.23 C 97.70 96.48 101.49 102.33 106.94 106.35 C 107.02 104.88 106.89 103.38 105.91 102.21 C 103.68 98.93 101.41 95.67 99.49 92.20 C 95.74 83.87 89.60 76.62 87.34 67.66 C 85.50 63.40 83.37 59.22 80.77 55.38 C 80.14 53.09 78.84 49.89 76.59 48.90 M 54.72 59.08 C 53.97 63.83 54.44 69.11 56.19 73.74 C 56.12 78.39 58.86 82.40 60.39 86.64 C 63.11 93.53 67.67 99.77 73.91 103.85 L 74.30 103.08 C 72.41 97.81 68.79 93.37 66.84 88.11 C 66.32 87.34 66.27 85.95 65.28 85.63 C 60.86 77.27 59.19 67.85 55.88 59.08 L 54.72 59.08 M 30.76 70.10 C 33.90 70.70 38.34 68.14 37.74 64.38 C 34.25 61.95 28.86 66.31 30.76 70.10 M 14.35 65.32 C 11.98 69.04 11.36 73.83 12.15 78.11 C 12.59 79.10 11.54 81.16 12.75 81.68 L 12.57 82.01 C 13.15 83.31 13.67 84.64 14.12 86.01 C 16.37 83.42 18.10 80.39 19.29 77.18 C 20.03 75.30 20.21 73.07 18.44 71.70 C 17.37 71.20 16.35 70.62 15.38 69.95 C 15.37 68.29 15.37 66.64 15.41 64.98 C 15.14 65.07 14.61 65.24 14.35 65.32 M 32.26 82.44 L 32.21 82.46 C 31.35 84.55 30.48 86.63 29.61 88.72 C 31.42 88.13 33.26 87.18 34.70 85.94 C 38.42 84.77 41.46 81.91 44.49 79.50 C 49.10 75.78 49.83 69.49 50.96 64.07 C 50.39 64.21 49.25 64.47 48.68 64.61 L 47.21 64.93 C 40.61 69.05 35.63 75.49 32.26 82.44 M 22.15 75.28 C 21.05 78.76 21.84 82.61 22.13 86.20 C 24.22 83.48 25.23 80.13 26.30 76.93 C 25.20 75.86 23.57 75.66 22.15 75.28 Z" />
<path fill="#ffe35d" opacity="1.00" d=" M 73.31 7.74 C 75.29 6.86 77.30 5.99 79.39 5.40 C 78.76 6.57 78.15 7.74 77.53 8.90 C 76.13 8.49 74.54 8.57 73.31 7.74 Z" />
<path fill="#a9243f" opacity="1.00" d=" M 79.39 5.40 L 80.09 4.78 C 80.36 6.47 80.27 8.28 79.77 9.92 C 79.21 9.66 78.09 9.16 77.53 8.90 C 78.15 7.74 78.76 6.57 79.39 5.40 Z" />
<path fill="#ff2c63" opacity="1.00" d=" M 48.95 12.00 C 53.17 10.51 57.61 9.62 62.09 9.58 C 63.54 9.72 66.47 8.77 66.56 11.08 C 58.30 14.66 50.37 18.99 42.74 23.75 C 43.77 19.43 46.00 15.30 48.95 12.00 Z" />
<path fill="#1f1c29" opacity="1.00" d=" M 68.81 9.84 C 76.32 10.81 83.49 14.31 88.54 20.04 C 87.49 21.72 86.84 24.13 84.64 24.61 C 81.00 25.78 77.15 25.88 73.41 26.51 C 72.61 24.42 70.57 23.50 68.60 22.83 C 70.86 20.40 75.67 22.75 76.83 19.31 C 75.49 15.89 72.40 13.64 69.32 11.88 C 69.19 11.37 68.93 10.35 68.81 9.84 Z" />
<path fill="#3a3341" opacity="1.00" d=" M 69.32 11.88 C 72.40 13.64 75.49 15.89 76.83 19.31 C 75.67 22.75 70.86 20.40 68.60 22.83 C 64.14 21.99 59.46 21.27 55.56 18.78 C 59.94 16.07 65.28 15.20 69.32 11.88 Z" />
<path fill="#403946" opacity="1.00" d=" M 33.86 28.86 C 35.79 23.06 39.28 17.19 44.78 14.18 C 43.25 18.00 41.38 21.84 41.77 26.10 C 39.09 26.94 36.25 27.24 33.86 28.86 Z" />
<path fill="#463e4c" opacity="1.00" d=" M 45.32 24.33 C 48.49 22.05 51.99 20.30 55.56 18.78 C 59.46 21.27 64.14 21.99 68.60 22.83 C 70.57 23.50 72.61 24.42 73.41 26.51 C 72.60 27.30 71.79 28.10 71.00 28.90 C 67.66 28.46 64.26 28.13 60.93 28.82 C 56.40 27.88 51.61 24.25 47.02 26.49 C 46.15 26.66 45.28 26.82 44.40 26.94 C 44.06 25.79 44.36 24.92 45.32 24.33 Z" />
<path fill="#110f1a" opacity="1.00" d=" M 88.54 20.04 C 91.67 22.77 92.46 27.28 93.80 31.05 C 92.22 33.75 91.01 36.80 88.99 39.18 C 86.94 37.38 86.56 34.35 84.69 32.40 C 82.43 31.52 81.45 34.79 79.81 35.80 C 78.68 34.67 77.87 33.03 76.13 32.75 C 72.55 30.91 68.40 32.92 67.38 36.74 C 66.54 35.87 65.80 34.92 65.06 33.96 L 65.31 33.25 C 68.00 33.06 69.56 30.91 71.00 28.90 C 71.79 28.10 72.60 27.30 73.41 26.51 C 77.15 25.88 81.00 25.78 84.64 24.61 C 86.84 24.13 87.49 21.72 88.54 20.04 Z" />
<path fill="#2b2633" opacity="1.00" d=" M 22.07 26.04 C 22.47 26.05 23.26 26.08 23.65 26.09 C 25.11 28.21 27.06 29.91 28.62 31.94 C 26.70 34.10 24.86 36.33 23.48 38.89 C 23.30 38.71 22.93 38.34 22.75 38.16 C 22.37 34.14 21.82 30.09 22.07 26.04 M 23.24 28.29 C 22.60 29.74 22.34 32.76 23.70 33.63 C 24.29 32.20 24.77 28.98 23.24 28.29 Z" />
<path fill="#c3b992" opacity="1.00" d=" M 44.40 26.94 C 45.28 26.82 46.15 26.66 47.02 26.49 C 47.66 26.85 48.93 27.56 49.57 27.92 C 47.85 30.11 44.14 28.65 41.55 29.32 C 41.20 29.10 40.49 28.68 40.14 28.47 C 41.45 27.63 42.87 27.11 44.40 26.94 Z" />
<path fill="#100e14" opacity="1.00" d=" M 47.02 26.49 C 51.61 24.25 56.40 27.88 60.93 28.82 C 61.18 29.38 61.69 30.51 61.94 31.07 C 58.04 29.75 54.31 27.22 50.00 28.24 L 49.57 27.92 C 48.93 27.56 47.66 26.85 47.02 26.49 Z" />
<path fill="#473f4c" opacity="1.00" d=" M 23.24 28.29 C 24.77 28.98 24.29 32.20 23.70 33.63 C 22.34 32.76 22.60 29.74 23.24 28.29 Z" />
<path fill="#504754" opacity="1.00" d=" M 22.50 53.72 C 20.88 42.38 29.17 31.02 40.14 28.47 C 40.49 28.68 41.20 29.10 41.55 29.32 C 44.14 28.65 47.85 30.11 49.57 27.92 L 50.00 28.24 C 54.07 30.96 58.44 35.81 56.14 41.05 C 52.68 47.11 45.80 49.78 40.50 53.89 C 37.16 53.49 34.11 51.59 30.67 51.44 C 30.38 51.77 29.79 52.45 29.50 52.78 L 29.46 52.80 L 29.40 51.43 C 26.85 51.40 24.87 53.15 22.50 53.72 M 34.37 35.33 C 31.13 36.52 28.98 41.40 32.33 43.71 C 36.17 45.64 41.58 41.51 40.68 37.28 C 39.96 34.61 36.50 33.71 34.37 35.33 Z" />
<path fill="#292333" opacity="1.00" d=" M 50.00 28.24 C 54.31 27.22 58.04 29.75 61.94 31.07 C 61.69 30.51 61.18 29.38 60.93 28.82 C 64.26 28.13 67.66 28.46 71.00 28.90 C 69.56 30.91 68.00 33.06 65.31 33.25 L 65.06 33.96 C 64.62 35.17 64.39 36.51 63.52 37.51 C 59.80 42.14 55.39 46.27 52.20 51.31 C 53.19 53.06 54.60 54.50 55.89 56.02 C 54.02 57.38 51.78 57.93 49.65 58.72 C 48.43 59.80 48.25 61.51 47.63 62.94 C 45.46 63.24 46.65 60.26 45.88 59.05 C 45.33 56.30 42.30 55.58 40.50 53.89 C 45.80 49.78 52.68 47.11 56.14 41.05 C 58.44 35.81 54.07 30.96 50.00 28.24 Z" />
<path fill="#1a1623" opacity="1.00" d=" M 67.38 36.74 C 68.40 32.92 72.55 30.91 76.13 32.75 C 74.66 36.97 73.34 41.58 70.34 44.99 C 70.02 43.65 69.70 42.31 69.37 40.97 C 68.57 43.38 69.07 45.98 68.43 48.41 C 67.40 50.34 65.59 51.70 64.15 53.32 C 63.04 54.13 62.09 55.12 61.27 56.22 C 60.12 56.81 59.02 57.49 57.96 58.22 C 57.24 57.51 56.55 56.78 55.89 56.02 C 54.60 54.50 53.19 53.06 52.20 51.31 C 55.39 46.27 59.80 42.14 63.52 37.51 C 64.39 36.51 64.62 35.17 65.06 33.96 C 65.80 34.92 66.54 35.87 67.38 36.74 Z" />
<path fill="#000000" opacity="1.00" d=" M 34.37 35.33 C 36.50 33.71 39.96 34.61 40.68 37.28 C 41.58 41.51 36.17 45.64 32.33 43.71 C 28.98 41.40 31.13 36.52 34.37 35.33 M 32.27 41.83 C 35.45 45.19 41.30 38.04 36.90 35.80 C 34.48 36.65 30.35 38.66 32.27 41.83 Z" />
<path fill="#ff2c63" opacity="1.00" d=" M 32.27 41.83 C 30.35 38.66 34.48 36.65 36.90 35.80 C 41.30 38.04 35.45 45.19 32.27 41.83 Z" />
<path fill="#504754" opacity="1.00" d=" M 82.53 36.85 C 82.85 36.73 83.48 36.48 83.80 36.36 C 88.59 45.21 95.84 52.33 101.26 60.76 C 104.47 64.72 107.73 68.64 111.00 72.55 L 111.00 77.75 C 110.55 77.33 109.64 76.48 109.19 76.06 C 106.13 70.27 101.63 65.37 98.56 59.56 C 94.19 51.32 86.44 45.37 82.53 36.85 Z" />
<path fill="#3a333f" opacity="1.00" d=" M 74.82 39.87 C 75.55 38.80 75.57 36.60 77.37 36.81 C 76.72 42.20 73.25 46.53 71.36 51.47 C 70.34 52.49 69.21 53.41 67.90 54.04 C 69.49 48.98 72.88 44.77 74.82 39.87 Z" />
<path fill="#221e2b" opacity="1.00" d=" M 77.37 36.81 C 82.11 43.71 84.90 51.75 89.58 58.72 C 93.09 72.18 102.53 82.95 111.00 93.61 L 111.00 96.32 C 105.62 92.69 101.02 87.90 97.26 82.64 C 90.44 70.45 84.69 57.69 78.62 45.12 C 76.03 47.04 73.80 49.37 71.36 51.47 C 73.25 46.53 76.72 42.20 77.37 36.81 Z" />
<path fill="#181621" opacity="1.00" d=" M 81.33 38.23 C 81.63 37.88 82.23 37.20 82.53 36.85 C 86.44 45.37 94.19 51.32 98.56 59.56 C 101.63 65.37 106.13 70.27 109.19 76.06 C 104.66 73.24 101.78 68.58 97.58 65.36 C 94.88 63.32 93.28 60.29 91.46 57.52 C 87.89 51.20 84.27 44.85 81.33 38.23 Z" />
<path fill="#473f4d" opacity="1.00" d=" M 17.31 38.09 C 19.04 38.90 19.63 40.93 20.65 42.40 C 21.14 44.58 20.31 46.86 19.76 48.97 C 19.29 51.13 20.63 53.07 20.87 55.16 C 18.88 53.37 18.41 50.56 18.27 48.01 C 17.39 44.78 17.39 41.41 17.31 38.09 Z" />
<path fill="#231f2d" opacity="1.00" d=" M 76.59 48.90 C 78.84 49.89 80.14 53.09 80.77 55.38 C 80.40 57.59 80.05 59.91 80.79 62.10 C 83.38 71.24 87.95 79.78 93.54 87.43 C 93.51 88.69 93.50 89.96 93.53 91.23 C 89.49 86.57 85.92 81.45 83.04 76.00 C 80.17 69.60 76.67 63.53 73.56 57.26 C 68.31 58.98 65.65 65.39 60.35 66.78 C 59.67 64.88 59.12 62.93 58.64 60.97 L 59.35 61.24 C 60.54 62.00 61.91 61.99 63.08 61.20 C 67.56 58.83 71.65 55.72 75.25 52.16 C 76.13 51.50 76.35 50.44 76.48 49.41 L 76.59 48.90 Z" />
<path fill="#3d3642" opacity="1.00" d=" M 59.35 61.24 C 65.53 57.98 70.92 53.56 76.48 49.41 C 76.35 50.44 76.13 51.50 75.25 52.16 C 71.65 55.72 67.56 58.83 63.08 61.20 C 61.91 61.99 60.54 62.00 59.35 61.24 Z" />
<path fill="#322c3a" opacity="1.00" d=" M 12.53 58.36 C 13.66 55.70 13.70 52.25 15.93 50.27 C 17.02 52.44 18.08 54.66 18.64 57.04 C 17.73 59.67 16.28 62.25 13.86 63.78 C 10.66 66.07 10.37 70.34 9.72 73.89 C 8.15 76.14 6.61 78.43 4.73 80.44 C 4.49 80.41 4.01 80.33 3.77 80.30 C 7.48 73.34 10.79 66.09 12.53 58.36 Z" />
<path fill="#ffe35d" opacity="1.00" d=" M 24.77 55.42 C 25.99 54.08 27.84 53.51 29.46 52.80 L 29.50 52.78 L 30.76 52.98 L 30.61 53.52 C 29.02 54.92 26.88 55.65 24.77 55.42 Z" />
<path fill="#4b4451" opacity="1.00" d=" M 24.77 55.42 C 26.88 55.65 29.02 54.92 30.61 53.52 C 33.65 53.51 36.50 54.97 39.32 55.98 C 39.23 57.52 39.25 59.09 38.87 60.60 C 37.29 61.00 35.69 61.28 34.13 61.71 C 32.05 64.17 28.74 65.92 28.59 69.54 C 24.70 70.00 20.98 68.79 17.25 67.89 C 17.14 62.87 20.07 57.37 24.77 55.42 M 20.09 63.10 C 19.77 66.16 24.21 66.89 26.02 65.10 C 28.61 63.16 30.06 57.91 26.07 56.67 C 22.84 57.12 20.89 60.21 20.09 63.10 Z" />
<path fill="#ff2c63" opacity="1.00" d=" M 61.27 56.22 C 62.09 55.12 63.04 54.13 64.15 53.32 C 67.04 54.64 62.66 58.70 61.27 56.22 Z" />
<path fill="#272231" opacity="1.00" d=" M 39.32 55.98 C 41.82 56.54 44.23 58.24 44.27 61.06 C 45.36 64.96 41.23 67.14 38.68 69.15 C 38.93 67.24 40.20 65.32 39.65 63.38 C 38.79 61.22 35.98 61.89 34.13 61.71 C 35.69 61.28 37.29 61.00 38.87 60.60 C 39.25 59.09 39.23 57.52 39.32 55.98 Z" />
<path fill="#423b49" opacity="1.00" d=" M 80.79 62.10 C 80.05 59.91 80.40 57.59 80.77 55.38 C 83.37 59.22 85.50 63.40 87.34 67.66 C 89.60 76.62 95.74 83.87 99.49 92.20 C 96.70 92.47 96.15 88.21 93.54 87.43 C 87.95 79.78 83.38 71.24 80.79 62.10 Z" />
<path fill="#000000" opacity="1.00" d=" M 20.09 63.10 C 20.89 60.21 22.84 57.12 26.07 56.67 C 30.06 57.91 28.61 63.16 26.02 65.10 C 24.21 66.89 19.77 66.16 20.09 63.10 M 21.80 64.38 C 25.30 66.11 29.42 59.32 24.86 58.32 C 22.92 59.58 21.09 61.92 21.80 64.38 Z" />
<path fill="#ff2c63" opacity="1.00" d=" M 21.80 64.38 C 21.09 61.92 22.92 59.58 24.86 58.32 C 29.42 59.32 25.30 66.11 21.80 64.38 Z" />
<path fill="#36303d" opacity="1.00" d=" M 54.72 59.08 L 55.88 59.08 C 59.19 67.85 60.86 77.27 65.28 85.63 C 64.19 85.74 63.60 84.77 62.95 84.10 C 60.14 81.04 58.09 77.40 56.19 73.74 C 54.44 69.11 53.97 63.83 54.72 59.08 Z" />
<path fill="#504754" opacity="1.00" d=" M 111.00 93.61 C 102.53 82.95 93.09 72.18 89.58 58.72 C 95.64 69.78 102.87 80.23 111.00 89.86 L 111.00 93.61 Z" />
<path fill="#ff2c63" opacity="1.00" d=" M 30.76 70.10 C 28.86 66.31 34.25 61.95 37.74 64.38 C 38.34 68.14 33.90 70.70 30.76 70.10 Z" />
<path fill="#ffe35d" opacity="1.00" d=" M 14.35 65.32 C 14.61 65.24 15.14 65.07 15.41 64.98 C 15.37 66.64 15.37 68.29 15.38 69.95 C 16.35 70.62 17.37 71.20 18.44 71.70 C 16.54 75.04 13.71 77.96 12.75 81.68 C 11.54 81.16 12.59 79.10 12.15 78.11 C 11.36 73.83 11.98 69.04 14.35 65.32 Z" />
<path fill="#ffe05c" opacity="1.00" d=" M 32.26 82.44 C 35.63 75.49 40.61 69.05 47.21 64.93 L 48.68 64.61 C 48.35 69.43 45.88 73.77 42.21 76.84 C 38.65 78.28 35.93 81.23 32.26 82.44 Z" />
<path fill="#a9243f" opacity="1.00" d=" M 48.68 64.61 C 49.25 64.47 50.39 64.21 50.96 64.07 C 49.83 69.49 49.10 75.78 44.49 79.50 C 41.46 81.91 38.42 84.77 34.70 85.94 C 36.85 82.61 40.34 80.36 42.21 76.84 C 45.88 73.77 48.35 69.43 48.68 64.61 Z" />
<path fill="#25202e" opacity="1.00" d=" M 17.25 67.89 C 20.98 68.79 24.70 70.00 28.59 69.54 C 29.69 70.40 30.38 71.94 31.87 72.21 C 33.57 71.78 35.27 71.31 37.01 71.03 C 36.18 72.10 35.49 73.80 33.87 73.66 C 29.13 74.29 23.45 75.12 19.76 71.32 C 18.89 70.30 16.05 69.60 17.25 67.89 Z" />
<path fill="#ba4448" opacity="1.00" d=" M 18.44 71.70 C 20.21 73.07 20.03 75.30 19.29 77.18 C 18.10 80.39 16.37 83.42 14.12 86.01 C 13.67 84.64 13.15 83.31 12.57 82.01 L 12.75 81.68 C 13.71 77.96 16.54 75.04 18.44 71.70 Z" />
<path fill="#191521" opacity="1.00" d=" M 4.73 80.44 C 6.61 78.43 8.15 76.14 9.72 73.89 C 9.85 76.24 10.35 78.60 10.07 80.96 C 7.72 83.89 4.62 86.10 1.57 88.24 C 1.23 86.70 0.97 85.15 0.69 83.60 C 1.36 82.45 2.00 81.28 2.60 80.08 L 3.77 80.30 C 4.01 80.33 4.49 80.41 4.73 80.44 Z" />
<path fill="#13101c" opacity="1.00" d=" M 56.19 73.74 C 58.09 77.40 60.14 81.04 62.95 84.10 C 63.60 84.77 64.19 85.74 65.28 85.63 C 66.27 85.95 66.32 87.34 66.84 88.11 C 68.79 93.37 72.41 97.81 74.30 103.08 L 73.91 103.85 C 67.67 99.77 63.11 93.53 60.39 86.64 C 58.86 82.40 56.12 78.39 56.19 73.74 Z" />
<path fill="#15131e" opacity="1.00" d=" M 22.15 75.28 C 23.57 75.66 25.20 75.86 26.30 76.93 C 25.23 80.13 24.22 83.48 22.13 86.20 C 21.84 82.61 21.05 78.76 22.15 75.28 Z" />
<path fill="#db8e55" opacity="1.00" d=" M 32.26 82.44 C 35.93 81.23 38.65 78.28 42.21 76.84 C 40.34 80.36 36.85 82.61 34.70 85.94 C 33.26 87.18 31.42 88.13 29.61 88.72 C 30.48 86.63 31.35 84.55 32.21 82.46 L 32.26 82.44 Z" />
<path fill="#553148" opacity="1.00" d=" M 93.53 91.23 C 93.50 89.96 93.51 88.69 93.54 87.43 C 96.15 88.21 96.70 92.47 99.49 92.20 C 101.41 95.67 103.68 98.93 105.91 102.21 C 106.89 103.38 107.02 104.88 106.94 106.35 C 101.49 102.33 97.70 96.48 93.53 91.23 Z" />
</svg>
