<?xml version="1.0" encoding="UTF-8" ?>
<!DOCTYPE svg PUBLIC "-//W3C//DTD SVG 1.1//EN" "http://www.w3.org/Graphics/SVG/1.1/DTD/svg11.dtd">
<svg width="111pt" height="111pt" viewBox="0 0 111 111" version="1.1" xmlns="http://www.w3.org/2000/svg">
<path fill="#020102" opacity="1.00" d=" M 44.64 14.80 C 52.88 10.62 63.17 11.49 70.92 16.37 C 79.82 21.55 86.05 29.99 91.74 38.34 C 94.31 42.14 96.45 46.23 97.93 50.58 C 99.27 51.21 100.77 51.78 101.40 53.25 C 102.45 55.61 105.30 56.28 106.66 58.34 C 107.21 62.95 103.46 66.67 103.07 71.15 C 96.88 74.92 90.08 77.77 82.94 79.11 C 78.58 80.19 74.04 80.27 69.69 81.41 C 69.71 83.23 69.70 85.05 69.71 86.87 C 73.16 90.00 73.34 96.65 69.64 99.76 C 66.00 99.48 63.36 96.30 60.18 94.88 C 57.84 95.22 55.49 95.54 53.13 95.67 C 52.20 97.49 50.65 98.80 48.88 99.75 C 46.05 95.07 43.66 90.04 42.44 84.68 C 41.36 83.82 40.47 82.46 38.95 82.44 C 29.42 81.10 20.09 78.56 11.17 74.98 C 8.35 73.21 6.06 70.52 4.48 67.60 C 2.91 64.10 8.28 62.68 7.98 59.23 C 10.04 54.18 11.37 48.80 14.27 44.11 C 21.41 31.85 31.64 20.85 44.64 14.80 M 46.13 17.15 C 44.78 17.80 43.42 18.43 42.06 19.06 C 40.35 20.12 38.63 21.18 36.93 22.26 C 34.14 24.52 31.35 26.79 28.75 29.26 C 27.30 30.82 25.88 32.42 24.50 34.04 C 23.69 35.01 22.88 35.97 22.06 36.94 C 19.24 40.74 16.66 44.74 14.54 48.98 C 12.57 52.73 10.92 56.67 10.02 60.82 C 8.96 62.34 8.01 63.94 7.01 65.51 L 6.35 65.34 C 7.45 67.19 8.11 69.78 10.21 70.71 C 13.30 70.79 16.11 69.00 19.08 68.27 C 18.42 68.02 17.77 67.77 17.11 67.52 C 23.00 67.47 28.77 65.75 34.49 64.48 C 39.52 65.14 44.98 65.04 50.05 64.35 C 67.35 64.70 85.35 61.70 102.01 67.83 C 102.97 65.07 103.94 62.31 104.94 59.57 L 104.82 59.53 C 102.75 57.44 100.49 55.50 98.92 52.97 C 97.67 51.88 96.50 50.71 95.42 49.46 C 92.97 43.42 89.32 37.98 85.27 32.90 C 82.61 29.68 80.34 25.89 76.60 23.80 C 75.41 22.56 73.97 21.60 72.62 20.55 C 68.78 17.97 64.60 15.70 60.00 14.85 C 55.26 14.24 50.62 15.86 46.13 17.15 M 47.66 65.67 C 46.51 68.66 45.75 71.77 45.28 74.94 C 44.51 78.18 43.87 81.54 44.39 84.88 C 44.78 88.05 47.26 90.48 47.72 93.63 C 48.44 94.77 49.15 95.90 49.86 97.04 C 50.38 96.42 51.43 95.16 51.96 94.53 C 55.38 94.59 58.75 94.07 62.10 93.43 C 64.12 95.31 66.53 96.65 68.95 97.92 C 69.47 96.93 69.99 95.94 70.52 94.95 C 70.13 93.14 70.08 91.23 69.45 89.49 C 65.95 86.56 68.84 81.50 67.39 77.62 C 66.88 77.34 65.86 76.78 65.35 76.50 C 65.31 76.19 65.21 75.58 65.17 75.27 C 65.53 74.18 65.91 73.09 66.29 72.01 C 65.29 69.70 64.17 67.45 62.98 65.23 C 57.88 65.43 52.77 65.64 47.66 65.67 M 64.94 64.94 C 65.65 66.58 66.36 68.23 67.07 69.87 C 68.35 69.59 69.63 69.30 70.90 69.00 C 70.15 69.76 69.41 70.53 68.66 71.29 L 68.35 71.25 C 67.49 72.77 65.89 74.20 66.60 76.12 C 68.51 76.70 70.45 77.15 72.40 77.59 L 72.36 78.75 C 71.39 78.44 69.46 77.81 68.49 77.49 C 67.61 80.46 70.60 79.46 72.02 79.22 C 82.05 76.85 93.17 75.81 101.33 68.88 L 100.07 68.55 C 88.84 64.44 76.72 64.58 64.94 64.94 M 18.12 70.10 C 15.75 70.83 12.96 71.04 11.33 73.13 C 12.36 73.30 13.39 73.44 14.43 73.56 C 22.71 77.48 31.80 79.44 40.81 80.81 C 41.56 79.61 42.32 78.43 43.11 77.26 C 43.75 73.35 44.82 69.53 45.48 65.62 C 36.31 66.80 27.07 67.66 18.12 70.10 M 42.20 81.04 C 40.80 84.12 45.52 81.05 42.20 81.04 Z" />
<path fill="#ca4336" opacity="1.00" d=" M 46.13 17.15 C 50.62 15.86 55.26 14.24 60.00 14.85 C 64.60 15.70 68.78 17.97 72.62 20.55 C 70.56 22.69 68.48 24.82 66.42 26.95 C 66.60 27.83 66.79 28.71 66.97 29.59 C 66.76 31.89 67.28 34.17 67.23 36.46 C 66.73 38.47 65.75 40.32 64.93 42.20 C 60.04 44.92 54.62 46.66 49.05 47.18 C 45.43 47.48 41.89 48.35 38.56 49.80 C 36.11 50.34 33.65 50.87 31.18 51.34 C 28.00 51.53 24.80 51.43 21.62 51.31 C 21.55 50.44 21.40 48.69 21.33 47.82 C 20.38 48.56 19.44 49.32 18.51 50.09 C 17.40 50.90 16.09 51.36 14.76 51.66 C 14.70 50.99 14.60 49.65 14.54 48.98 C 16.66 44.74 19.24 40.74 22.06 36.94 C 25.77 39.24 29.55 41.84 33.99 42.41 C 36.14 42.36 38.15 41.44 40.18 40.83 C 40.53 40.92 41.21 41.11 41.55 41.20 C 43.07 41.86 44.32 41.23 45.20 39.92 C 47.51 36.77 49.93 33.65 51.60 30.11 C 55.64 34.08 63.72 30.53 63.70 25.00 C 63.77 22.69 61.16 20.69 58.96 21.66 C 56.05 22.84 53.74 25.15 52.00 27.71 C 51.41 23.61 50.12 19.18 46.13 17.15 Z" />
<path fill="#e48356" opacity="1.00" d=" M 42.06 19.06 C 43.42 18.43 44.78 17.80 46.13 17.15 C 50.12 19.18 51.41 23.61 52.00 27.71 C 51.90 28.31 51.70 29.51 51.60 30.11 C 49.93 33.65 47.51 36.77 45.20 39.92 C 44.63 39.48 43.48 38.58 42.91 38.13 C 42.57 38.90 41.89 40.43 41.55 41.20 C 41.21 41.11 40.53 40.92 40.18 40.83 C 38.15 41.44 36.14 42.36 33.99 42.41 C 29.55 41.84 25.77 39.24 22.06 36.94 C 22.88 35.97 23.69 35.01 24.50 34.04 C 27.64 36.13 30.87 38.92 34.91 38.62 C 40.67 38.47 45.54 33.57 46.42 28.02 C 46.53 24.48 44.04 21.71 42.06 19.06 Z" />
<path fill="#f4d392" opacity="1.00" d=" M 36.93 22.26 C 38.63 21.18 40.35 20.12 42.06 19.06 C 44.04 21.71 46.53 24.48 46.42 28.02 C 45.54 33.57 40.67 38.47 34.91 38.62 C 30.87 38.92 27.64 36.13 24.50 34.04 C 25.88 32.42 27.30 30.82 28.75 29.26 C 29.12 30.36 29.49 31.45 29.89 32.54 C 31.84 34.12 34.44 35.39 36.95 34.26 C 40.38 33.02 41.48 29.23 42.90 26.25 C 41.78 25.47 40.66 24.70 39.52 23.94 C 38.88 23.52 37.58 22.68 36.93 22.26 Z" />
<path fill="#af3f41" opacity="1.00" d=" M 72.62 20.55 C 73.97 21.60 75.41 22.56 76.60 23.80 C 77.24 24.80 77.89 25.80 78.52 26.81 C 73.84 31.17 70.61 36.79 66.12 41.32 L 64.93 42.20 C 65.75 40.32 66.73 38.47 67.23 36.46 C 67.28 34.17 66.76 31.89 66.97 29.59 C 66.79 28.71 66.60 27.83 66.42 26.95 C 68.48 24.82 70.56 22.69 72.62 20.55 Z" />
<path fill="#fbf7ca" opacity="1.00" d=" M 52.00 27.71 C 53.74 25.15 56.05 22.84 58.96 21.66 C 61.16 20.69 63.77 22.69 63.70 25.00 C 63.72 30.53 55.64 34.08 51.60 30.11 C 51.70 29.51 51.90 28.31 52.00 27.71 Z" />
<path fill="#ffffea" opacity="1.00" d=" M 28.75 29.26 C 31.35 26.79 34.14 24.52 36.93 22.26 C 37.58 22.68 38.88 23.52 39.52 23.94 C 38.82 26.00 38.47 28.30 37.05 30.03 C 35.33 32.17 32.31 31.95 29.89 32.54 C 29.49 31.45 29.12 30.36 28.75 29.26 Z" />
<path fill="#fffec0" opacity="1.00" d=" M 39.52 23.94 C 40.66 24.70 41.78 25.47 42.90 26.25 C 41.48 29.23 40.38 33.02 36.95 34.26 C 34.44 35.39 31.84 34.12 29.89 32.54 C 32.31 31.95 35.33 32.17 37.05 30.03 C 38.47 28.30 38.82 26.00 39.52 23.94 Z" />
<path fill="#54347b" opacity="1.00" d=" M 76.60 23.80 C 80.34 25.89 82.61 29.68 85.27 32.90 C 89.32 37.98 92.97 43.42 95.42 49.46 C 94.05 50.66 92.20 50.71 90.50 50.97 C 90.19 50.91 89.56 50.79 89.25 50.74 C 89.27 48.48 89.30 46.22 89.18 43.97 C 90.25 46.33 91.79 48.43 93.65 50.23 C 93.10 45.33 89.92 41.49 86.59 38.14 C 83.93 34.34 81.05 30.70 78.52 26.81 C 77.89 25.80 77.24 24.80 76.60 23.80 Z" />
<path fill="#763350" opacity="1.00" d=" M 78.52 26.81 C 81.05 30.70 83.93 34.34 86.59 38.14 C 87.48 40.07 88.33 42.02 89.18 43.97 C 89.30 46.22 89.27 48.48 89.25 50.74 C 86.89 50.27 84.54 49.77 82.17 49.39 C 82.31 47.24 82.46 45.09 82.64 42.94 C 84.35 41.57 84.65 39.52 84.32 37.45 C 82.55 36.71 80.50 35.40 78.62 36.63 C 76.27 37.60 75.27 40.02 75.04 42.40 C 73.49 43.54 71.79 44.48 69.93 45.03 C 68.67 43.79 67.40 42.55 66.12 41.32 C 70.61 36.79 73.84 31.17 78.52 26.81 Z" />
<path fill="#ccb284" opacity="1.00" d=" M 78.62 36.63 C 80.50 35.40 82.55 36.71 84.32 37.45 C 81.25 38.55 78.24 40.03 76.23 42.68 C 75.93 42.61 75.34 42.47 75.04 42.40 C 75.27 40.02 76.27 37.60 78.62 36.63 Z" />
<path fill="#fbf8c9" opacity="1.00" d=" M 76.23 42.68 C 78.24 40.03 81.25 38.55 84.32 37.45 C 84.65 39.52 84.35 41.57 82.64 42.94 C 80.51 43.37 78.30 43.45 76.23 42.68 Z" />
<path fill="#fffdda" opacity="1.00" d=" M 41.55 41.20 C 41.89 40.43 42.57 38.90 42.91 38.13 C 43.48 38.58 44.63 39.48 45.20 39.92 C 44.32 41.23 43.07 41.86 41.55 41.20 Z" />
<path fill="#211928" opacity="1.00" d=" M 86.59 38.14 C 89.92 41.49 93.10 45.33 93.65 50.23 C 91.79 48.43 90.25 46.33 89.18 43.97 C 88.33 42.02 87.48 40.07 86.59 38.14 Z" />
<path fill="#9f3540" opacity="1.00" d=" M 64.93 42.20 L 66.12 41.32 C 67.40 42.55 68.67 43.79 69.93 45.03 C 67.42 45.78 65.00 46.81 62.68 48.02 L 61.89 48.36 C 54.86 48.34 47.77 48.70 40.99 50.71 L 38.56 49.80 C 41.89 48.35 45.43 47.48 49.05 47.18 C 54.62 46.66 60.04 44.92 64.93 42.20 Z" />
<path fill="#ac4345" opacity="1.00" d=" M 75.04 42.40 C 75.34 42.47 75.93 42.61 76.23 42.68 C 78.30 43.45 80.51 43.37 82.64 42.94 C 82.46 45.09 82.31 47.24 82.17 49.39 C 76.64 48.46 71.01 48.07 65.43 48.72 C 64.50 48.52 63.58 48.28 62.68 48.02 C 65.00 46.81 67.42 45.78 69.93 45.03 C 71.79 44.48 73.49 43.54 75.04 42.40 Z" />
<path fill="#fffec0" opacity="1.00" d=" M 18.51 50.09 C 19.44 49.32 20.38 48.56 21.33 47.82 C 21.40 48.69 21.55 50.44 21.62 51.31 C 20.54 51.78 19.46 52.26 18.38 52.73 C 18.41 52.07 18.48 50.75 18.51 50.09 Z" />
<path fill="#fcf5d3" opacity="1.00" d=" M 40.99 50.71 C 47.77 48.70 54.86 48.34 61.89 48.36 L 62.68 48.02 C 63.58 48.28 64.50 48.52 65.43 48.72 C 69.44 49.62 73.59 49.30 77.66 49.75 C 70.92 51.30 64.15 48.94 57.37 49.74 L 56.81 50.25 C 55.66 51.34 54.53 52.45 53.38 53.55 C 53.36 52.71 53.31 51.02 53.29 50.17 C 48.43 50.48 43.59 50.96 38.75 51.47 C 39.31 51.28 40.43 50.90 40.99 50.71 Z" />
<path fill="#020102" opacity="1.00" d=" M 65.43 48.72 C 71.01 48.07 76.64 48.46 82.17 49.39 C 84.54 49.77 86.89 50.27 89.25 50.74 C 89.56 50.79 90.19 50.91 90.50 50.97 C 89.77 51.08 88.30 51.30 87.56 51.42 C 86.94 51.35 85.68 51.21 85.05 51.14 C 83.26 50.66 81.43 50.33 79.61 50.01 C 79.12 49.94 78.15 49.81 77.66 49.75 C 73.59 49.30 69.44 49.62 65.43 48.72 Z" />
<path fill="#872e44" opacity="1.00" d=" M 10.02 60.82 C 10.92 56.67 12.57 52.73 14.54 48.98 C 14.60 49.65 14.70 50.99 14.76 51.66 C 16.09 51.36 17.40 50.90 18.51 50.09 C 18.48 50.75 18.41 52.07 18.38 52.73 C 19.46 52.26 20.54 51.78 21.62 51.31 C 24.80 51.43 28.00 51.53 31.18 51.34 C 24.82 53.09 17.82 54.19 12.60 58.51 C 13.18 58.51 14.34 58.51 14.92 58.51 L 16.72 58.46 C 14.39 58.93 12.09 59.62 10.02 60.82 Z" />
<path fill="#393556" opacity="1.00" d=" M 95.42 49.46 C 96.50 50.71 97.67 51.88 98.92 52.97 C 96.02 52.94 93.09 52.89 90.26 52.15 C 89.36 51.89 88.47 51.65 87.56 51.42 C 88.30 51.30 89.77 51.08 90.50 50.97 C 92.20 50.71 94.05 50.66 95.42 49.46 Z" />
<path fill="#4b2731" opacity="1.00" d=" M 31.18 51.34 C 33.65 50.87 36.11 50.34 38.56 49.80 L 40.99 50.71 C 40.43 50.90 39.31 51.28 38.75 51.47 C 36.73 52.10 34.72 52.76 32.70 53.36 C 26.51 54.14 20.88 56.89 14.92 58.51 C 14.34 58.51 13.18 58.51 12.60 58.51 C 17.82 54.19 24.82 53.09 31.18 51.34 Z" />
<path fill="#c63f3a" opacity="1.00" d=" M 38.75 51.47 C 43.59 50.96 48.43 50.48 53.29 50.17 C 53.31 51.02 53.36 52.71 53.38 53.55 C 54.53 52.45 55.66 51.34 56.81 50.25 C 63.37 50.64 69.91 51.40 76.49 51.63 C 73.02 54.17 68.10 54.57 65.75 58.50 C 63.68 59.07 61.61 59.65 59.53 60.15 C 50.67 60.56 41.88 61.74 33.19 63.45 C 32.81 63.23 32.05 62.79 31.67 62.57 C 37.42 60.59 43.44 59.46 49.14 57.30 C 40.09 57.29 31.57 60.82 22.71 62.16 C 24.69 60.93 26.53 59.48 28.33 58.00 C 28.24 57.23 28.06 55.71 27.97 54.95 C 29.55 54.43 31.12 53.90 32.70 53.36 C 34.72 52.76 36.73 52.10 38.75 51.47 Z" />
<path fill="#da8c6d" opacity="1.00" d=" M 57.37 49.74 C 64.15 48.94 70.92 51.30 77.66 49.75 C 78.15 49.81 79.12 49.94 79.61 50.01 C 79.69 50.40 79.85 51.19 79.93 51.59 C 78.78 51.61 77.64 51.62 76.49 51.63 C 69.91 51.40 63.37 50.64 56.81 50.25 L 57.37 49.74 Z" />
<path fill="#ffffea" opacity="1.00" d=" M 79.61 50.01 C 81.43 50.33 83.26 50.66 85.05 51.14 C 85.68 51.21 86.94 51.35 87.56 51.42 C 88.47 51.65 89.36 51.89 90.26 52.15 C 90.60 52.30 91.26 52.59 91.60 52.74 C 91.21 53.34 90.43 54.55 90.04 55.16 C 90.25 54.49 90.67 53.16 90.88 52.49 C 90.20 52.50 88.83 52.52 88.15 52.53 C 86.99 52.39 85.84 52.23 84.69 52.06 C 83.12 51.80 81.52 51.64 79.93 51.59 C 79.85 51.19 79.69 50.40 79.61 50.01 Z" />
<path fill="#a23342" opacity="1.00" d=" M 76.49 51.63 C 77.64 51.62 78.78 51.61 79.93 51.59 C 81.52 51.64 83.12 51.80 84.69 52.06 C 78.71 53.40 74.51 58.26 68.79 60.14 C 65.70 60.23 62.62 60.16 59.53 60.15 C 61.61 59.65 63.68 59.07 65.75 58.50 C 68.10 54.57 73.02 54.17 76.49 51.63 Z" />
<path fill="#7848bf" opacity="1.00" d=" M 90.26 52.15 C 93.09 52.89 96.02 52.94 98.92 52.97 C 100.49 55.50 102.75 57.44 104.82 59.53 C 103.54 59.11 102.27 58.67 101.04 58.13 L 99.69 57.34 C 98.25 56.49 96.79 55.67 95.34 54.84 C 94.11 54.11 92.87 53.40 91.60 52.74 C 91.26 52.59 90.60 52.30 90.26 52.15 Z" />
<path fill="#fffdda" opacity="1.00" d=" M 14.92 58.51 C 20.88 56.89 26.51 54.14 32.70 53.36 C 31.12 53.90 29.55 54.43 27.97 54.95 C 28.06 55.71 28.24 57.23 28.33 58.00 C 26.53 59.48 24.69 60.93 22.71 62.16 C 21.54 62.45 20.37 62.73 19.21 63.03 C 18.90 62.56 18.29 61.62 17.98 61.16 C 18.84 60.26 20.55 58.46 21.40 57.56 C 20.23 57.79 17.89 58.24 16.72 58.46 L 14.92 58.51 Z" />
<path fill="#89314a" opacity="1.00" d=" M 68.79 60.14 C 74.51 58.26 78.71 53.40 84.69 52.06 C 85.84 52.23 86.99 52.39 88.15 52.53 C 86.52 55.11 84.92 57.71 83.14 60.19 C 78.36 60.33 73.58 60.14 68.79 60.14 Z" />
<path fill="#692d4e" opacity="1.00" d=" M 88.15 52.53 C 88.83 52.52 90.20 52.50 90.88 52.49 C 90.67 53.16 90.25 54.49 90.04 55.16 L 89.51 56.11 C 90.55 57.35 91.60 58.58 92.65 59.82 C 85.57 61.83 78.17 60.86 70.93 61.38 C 73.50 61.64 76.07 61.90 78.63 62.19 C 78.56 62.41 78.42 62.85 78.34 63.07 C 74.43 61.32 70.14 62.20 66.03 62.25 C 60.68 62.61 55.06 62.01 50.05 64.35 C 44.98 65.04 39.52 65.14 34.49 64.48 L 33.19 63.45 C 41.88 61.74 50.67 60.56 59.53 60.15 C 62.62 60.16 65.70 60.23 68.79 60.14 C 73.58 60.14 78.36 60.33 83.14 60.19 C 84.92 57.71 86.52 55.11 88.15 52.53 Z" />
<path fill="#e3d899" opacity="1.00" d=" M 91.60 52.74 C 92.87 53.40 94.11 54.11 95.34 54.84 C 95.56 56.29 95.75 57.74 95.91 59.19 C 94.82 59.39 93.73 59.60 92.65 59.82 C 91.60 58.58 90.55 57.35 89.51 56.11 L 90.04 55.16 C 90.43 54.55 91.21 53.34 91.60 52.74 Z" />
<path fill="#4e284c" opacity="1.00" d=" M 95.34 54.84 C 96.79 55.67 98.25 56.49 99.69 57.34 C 98.87 59.16 97.81 60.95 97.69 62.99 C 98.29 63.51 99.50 64.55 100.10 65.07 C 93.08 63.32 85.88 62.22 78.63 62.19 C 76.07 61.90 73.50 61.64 70.93 61.38 C 78.17 60.86 85.57 61.83 92.65 59.82 C 93.73 59.60 94.82 59.39 95.91 59.19 C 95.75 57.74 95.56 56.29 95.34 54.84 Z" />
<path fill="#822f49" opacity="1.00" d=" M 22.71 62.16 C 31.57 60.82 40.09 57.29 49.14 57.30 C 43.44 59.46 37.42 60.59 31.67 62.57 C 32.05 62.79 32.81 63.23 33.19 63.45 L 34.49 64.48 C 28.77 65.75 23.00 67.47 17.11 67.52 C 17.77 67.77 18.42 68.02 19.08 68.27 C 16.11 69.00 13.30 70.79 10.21 70.71 C 8.11 69.78 7.45 67.19 6.35 65.34 L 7.01 65.51 C 11.23 67.22 15.56 65.08 19.21 63.03 C 20.37 62.73 21.54 62.45 22.71 62.16 Z" />
<path fill="#281d2f" opacity="1.00" d=" M 97.69 62.99 C 97.81 60.95 98.87 59.16 99.69 57.34 L 101.04 58.13 C 100.83 60.46 100.48 62.77 100.10 65.07 C 99.50 64.55 98.29 63.51 97.69 62.99 Z" />
<path fill="#493492" opacity="1.00" d=" M 101.04 58.13 C 102.27 58.67 103.54 59.11 104.82 59.53 L 104.94 59.57 C 103.94 62.31 102.97 65.07 102.01 67.83 C 85.35 61.70 67.35 64.70 50.05 64.35 C 55.06 62.01 60.68 62.61 66.03 62.25 C 70.14 62.20 74.43 61.32 78.34 63.07 C 78.42 62.85 78.56 62.41 78.63 62.19 C 85.88 62.22 93.08 63.32 100.10 65.07 C 100.48 62.77 100.83 60.46 101.04 58.13 Z" />
<path fill="#bc3d3b" opacity="1.00" d=" M 16.72 58.46 C 17.89 58.24 20.23 57.79 21.40 57.56 C 20.55 58.46 18.84 60.26 17.98 61.16 C 18.29 61.62 18.90 62.56 19.21 63.03 C 15.56 65.08 11.23 67.22 7.01 65.51 C 8.01 63.94 8.96 62.34 10.02 60.82 C 12.09 59.62 14.39 58.93 16.72 58.46 Z" />
<path fill="#a4536f" opacity="1.00" d=" M 47.66 65.67 C 52.77 65.64 57.88 65.43 62.98 65.23 C 64.17 67.45 65.29 69.70 66.29 72.01 C 65.91 73.09 65.53 74.18 65.17 75.27 C 65.01 74.25 64.71 72.19 64.56 71.17 C 58.18 72.92 51.21 71.49 45.28 74.94 C 45.75 71.77 46.51 68.66 47.66 65.67 Z" />
<path fill="#352340" opacity="1.00" d=" M 64.94 64.94 C 76.72 64.58 88.84 64.44 100.07 68.55 C 91.18 72.15 82.12 75.32 72.66 77.06 C 73.15 75.82 74.13 74.69 74.06 73.30 C 72.67 71.76 70.59 71.50 68.66 71.29 C 69.41 70.53 70.15 69.76 70.90 69.00 C 69.63 69.30 68.35 69.59 67.07 69.87 C 66.36 68.23 65.65 66.58 64.94 64.94 Z" />
<path fill="#3c223f" opacity="1.00" d=" M 18.12 70.10 C 27.07 67.66 36.31 66.80 45.48 65.62 C 44.82 69.53 43.75 73.35 43.11 77.26 C 39.16 79.06 34.93 77.49 30.93 76.79 C 25.40 75.85 20.06 73.87 14.43 73.56 C 13.39 73.44 12.36 73.30 11.33 73.13 C 12.96 71.04 15.75 70.83 18.12 70.10 Z" />
<path fill="#733fcf" opacity="1.00" d=" M 72.66 77.06 C 82.12 75.32 91.18 72.15 100.07 68.55 L 101.33 68.88 C 93.17 75.81 82.05 76.85 72.02 79.22 C 70.60 79.46 67.61 80.46 68.49 77.49 C 69.46 77.81 71.39 78.44 72.36 78.75 L 72.40 77.59 L 72.66 77.06 Z" />
<path fill="#e4cab3" opacity="1.00" d=" M 68.35 71.25 L 68.66 71.29 C 70.59 71.50 72.67 71.76 74.06 73.30 C 74.13 74.69 73.15 75.82 72.66 77.06 L 72.40 77.59 C 70.45 77.15 68.51 76.70 66.60 76.12 C 65.89 74.20 67.49 72.77 68.35 71.25 Z" />
<path fill="#5c3b9b" opacity="1.00" d=" M 14.43 73.56 C 20.06 73.87 25.40 75.85 30.93 76.79 C 34.93 77.49 39.16 79.06 43.11 77.26 C 42.32 78.43 41.56 79.61 40.81 80.81 C 31.80 79.44 22.71 77.48 14.43 73.56 Z" />
<path fill="#f3e5d3" opacity="1.00" d=" M 45.28 74.94 C 51.21 71.49 58.18 72.92 64.56 71.17 C 64.71 72.19 65.01 74.25 65.17 75.27 C 65.21 75.58 65.31 76.19 65.35 76.50 C 65.86 76.78 66.88 77.34 67.39 77.62 C 68.84 81.50 65.95 86.56 69.45 89.49 C 70.08 91.23 70.13 93.14 70.52 94.95 C 69.99 95.94 69.47 96.93 68.95 97.92 C 66.53 96.65 64.12 95.31 62.10 93.43 C 58.75 94.07 55.38 94.59 51.96 94.53 C 51.43 95.16 50.38 96.42 49.86 97.04 C 49.15 95.90 48.44 94.77 47.72 93.63 C 47.26 90.48 44.78 88.05 44.39 84.88 C 43.87 81.54 44.51 78.18 45.28 74.94 M 48.43 78.77 C 47.34 79.16 47.61 80.52 47.36 81.41 C 48.87 83.03 50.34 84.92 52.72 85.20 C 54.29 84.02 56.11 83.07 57.31 81.47 C 59.54 79.43 63.19 77.82 62.79 74.24 C 57.74 74.59 52.87 76.43 48.43 78.77 Z" />
<path fill="#020102" opacity="1.00" d=" M 48.43 78.77 C 52.87 76.43 57.74 74.59 62.79 74.24 C 63.19 77.82 59.54 79.43 57.31 81.47 C 57.84 80.72 58.38 79.98 58.92 79.25 C 60.06 77.90 61.26 76.60 62.41 75.25 C 57.54 76.08 52.47 77.19 48.31 79.99 C 48.33 81.57 49.81 82.42 50.76 83.46 C 51.25 83.90 52.23 84.77 52.72 85.20 C 50.34 84.92 48.87 83.03 47.36 81.41 C 47.61 80.52 47.34 79.16 48.43 78.77 Z" />
<path fill="#ffffea" opacity="1.00" d=" M 48.31 79.99 C 52.47 77.19 57.54 76.08 62.41 75.25 C 61.26 76.60 60.06 77.90 58.92 79.25 C 56.51 77.46 54.34 79.63 52.31 80.82 C 53.11 81.03 54.71 81.45 55.51 81.66 C 53.93 82.27 52.34 82.87 50.76 83.46 C 49.81 82.42 48.33 81.57 48.31 79.99 Z" />
<path fill="#a5a3a1" opacity="1.00" d=" M 52.31 80.82 C 54.34 79.63 56.51 77.46 58.92 79.25 C 58.38 79.98 57.84 80.72 57.31 81.47 C 56.11 83.07 54.29 84.02 52.72 85.20 C 52.23 84.77 51.25 83.90 50.76 83.46 C 52.34 82.87 53.93 82.27 55.51 81.66 C 54.71 81.45 53.11 81.03 52.31 80.82 Z" />
<path fill="#76605f" opacity="1.00" d=" M 42.20 81.04 C 45.52 81.05 40.80 84.12 42.20 81.04 Z" />
</svg>
