<?xml version="1.0" encoding="UTF-8" ?>
<!DOCTYPE svg PUBLIC "-//W3C//DTD SVG 1.1//EN" "http://www.w3.org/Graphics/SVG/1.1/DTD/svg11.dtd">
<svg width="111pt" height="111pt" viewBox="0 0 111 111" version="1.1" xmlns="http://www.w3.org/2000/svg">
<path fill="#0d0b09" opacity="0.93" d=" M 43.41 28.40 C 47.64 17.03 58.19 8.25 69.79 5.06 C 71.55 9.12 72.16 13.54 73.19 17.82 C 75.97 15.66 78.79 13.52 81.91 11.87 C 83.72 11.83 87.33 11.74 89.14 11.69 C 91.78 12.55 95.10 12.68 96.70 15.29 C 97.47 17.45 97.85 19.72 98.29 21.96 C 100.89 22.66 101.86 19.74 103.94 18.95 C 103.53 19.89 103.13 20.83 102.75 21.79 C 99.59 24.12 97.08 27.31 99.30 31.14 C 98.59 31.82 97.88 32.50 97.17 33.18 C 97.17 28.94 96.56 24.77 95.33 20.72 C 94.98 17.64 94.03 13.55 90.14 13.64 C 87.96 12.73 84.38 11.33 82.80 13.81 C 82.48 14.46 82.61 15.13 83.21 15.83 C 80.31 15.70 77.39 16.06 75.81 18.78 C 74.54 20.01 73.25 21.20 71.96 22.40 C 71.34 19.12 71.22 15.73 70.26 12.51 C 69.71 10.92 69.53 8.86 68.07 7.82 C 62.49 8.80 57.69 12.71 53.91 16.80 C 51.52 18.85 49.36 21.15 47.99 24.01 C 46.98 25.82 46.02 27.70 45.72 29.78 C 45.22 32.28 44.99 34.85 44.28 37.31 C 44.01 36.96 43.46 36.27 43.19 35.93 C 42.66 33.58 39.68 27.59 37.92 32.19 C 37.66 31.92 37.15 31.39 36.89 31.12 C 35.64 30.07 35.02 28.63 34.83 27.03 C 36.09 25.82 37.89 24.89 38.12 22.98 C 34.58 23.76 31.32 25.55 27.70 25.95 C 31.17 22.57 35.82 21.98 40.02 19.90 C 39.91 22.18 38.69 24.44 39.21 26.73 C 40.42 27.69 42.79 31.63 43.41 28.40 Z" />
<path fill="#b53a3d" opacity="1.00" d=" M 53.91 16.80 C 57.69 12.71 62.49 8.80 68.07 7.82 C 68.74 13.47 65.45 18.11 63.04 22.85 C 62.74 23.36 62.16 24.38 61.86 24.89 C 60.73 27.46 61.19 30.48 60.38 33.17 C 59.71 31.39 58.94 29.65 58.08 27.96 C 57.90 24.68 57.05 21.41 55.21 18.67 C 54.95 24.37 54.81 30.10 55.35 35.79 C 55.89 39.85 51.63 41.07 50.12 44.22 C 49.47 42.96 48.71 39.22 46.74 40.94 C 45.90 39.74 45.07 38.53 44.28 37.31 C 44.99 34.85 45.22 32.28 45.72 29.78 C 45.82 30.62 46.02 32.30 46.12 33.14 C 48.98 31.21 52.13 27.28 49.90 23.85 C 51.19 21.47 53.43 19.56 53.91 16.80 M 58.20 14.14 C 57.23 14.85 56.82 15.81 56.97 17.03 C 59.01 17.37 60.17 15.48 61.10 13.99 C 60.38 14.03 58.92 14.10 58.20 14.14 Z" />
<path fill="#5e2335" opacity="1.00" d=" M 68.07 7.82 C 69.53 8.86 69.71 10.92 70.26 12.51 C 67.25 15.68 68.18 19.75 66.93 23.20 C 65.61 25.73 64.47 28.41 61.97 30.01 C 63.74 29.91 66.02 28.69 66.85 30.96 C 65.44 33.19 63.98 35.47 63.69 38.15 L 63.05 37.81 C 62.74 37.63 62.11 37.28 61.80 37.11 C 61.25 35.83 60.80 34.50 60.38 33.17 C 61.19 30.48 60.73 27.46 61.86 24.89 C 61.93 25.71 62.07 27.36 62.13 28.18 C 63.82 27.13 66.82 22.51 63.04 22.85 C 65.45 18.11 68.74 13.47 68.07 7.82 Z" />
<path fill="#12110d" opacity="0.97" d=" M 106.05 13.00 C 101.98 6.31 107.76 7.21 109.09 9.69 C 105.11 9.76 108.50 14.65 108.22 17.04 C 106.84 17.79 105.45 18.51 103.94 18.95 C 105.60 17.38 106.27 15.26 106.05 13.00 Z" />
<path fill="#94a16f" opacity="1.00" d=" M 108.22 17.04 C 108.50 14.65 105.11 9.76 109.09 9.69 C 109.76 10.52 110.39 11.38 111.00 12.25 L 111.00 17.07 L 109.93 17.08 C 109.50 17.07 108.64 17.05 108.22 17.04 Z" />
<path fill="#000000" opacity="0.27" d=" M 81.91 11.87 C 83.57 9.59 87.01 10.16 89.14 11.69 C 87.33 11.74 83.72 11.83 81.91 11.87 Z" />
<path fill="#441b2e" opacity="1.00" d=" M 66.93 23.20 C 68.18 19.75 67.25 15.68 70.26 12.51 C 71.22 15.73 71.34 19.12 71.96 22.40 C 71.34 23.06 70.71 23.70 70.08 24.34 C 68.72 24.90 67.62 24.49 66.93 23.20 Z" />
<path fill="#613027" opacity="1.00" d=" M 82.80 13.81 C 84.38 11.33 87.96 12.73 90.14 13.64 C 88.30 13.68 84.64 13.77 82.80 13.81 Z" />
<path fill="#d7d1a9" opacity="1.00" d=" M 58.20 14.14 C 58.92 14.10 60.38 14.03 61.10 13.99 C 60.17 15.48 59.01 17.37 56.97 17.03 C 56.82 15.81 57.23 14.85 58.20 14.14 Z" />
<path fill="#cb3c3f" opacity="1.00" d=" M 83.21 15.83 C 82.61 15.13 82.48 14.46 82.80 13.81 C 84.64 13.77 88.30 13.68 90.14 13.64 C 94.03 13.55 94.98 17.64 95.33 20.72 L 95.02 21.69 C 94.31 22.41 93.61 23.14 92.93 23.89 C 91.03 25.89 89.11 27.87 87.17 29.83 C 86.80 28.38 85.97 26.81 84.26 26.80 C 84.50 27.85 84.73 28.89 84.94 29.94 C 83.89 29.73 82.85 29.50 81.80 29.26 C 81.79 31.02 83.45 31.78 84.89 32.22 C 80.56 36.84 74.74 39.92 71.00 45.14 L 70.98 44.12 C 70.95 38.09 71.31 31.99 70.34 26.01 C 71.80 24.77 73.00 23.01 74.86 22.38 C 78.67 24.49 86.59 20.59 83.21 15.83 Z" />
<path fill="#ceac95" opacity="1.00" d=" M 75.81 18.78 C 77.39 16.06 80.31 15.70 83.21 15.83 C 83.12 16.31 82.93 17.26 82.84 17.74 C 80.44 18.55 78.32 19.89 76.77 21.91 L 75.81 22.12 C 75.81 21.28 75.81 19.62 75.81 18.78 Z" />
<path fill="#672d30" opacity="1.00" d=" M 83.21 15.83 C 86.59 20.59 78.67 24.49 74.86 22.38 L 75.81 22.12 L 76.77 21.91 C 79.26 21.61 82.34 20.56 82.84 17.74 C 82.93 17.26 83.12 16.31 83.21 15.83 Z" />
<path fill="#d3ba74" opacity="1.00" d=" M 47.99 24.01 C 49.36 21.15 51.52 18.85 53.91 16.80 C 53.43 19.56 51.19 21.47 49.90 23.85 C 49.42 23.89 48.47 23.97 47.99 24.01 Z" />
<path fill="#986b6c" opacity="1.00" d=" M 103.94 18.95 C 105.45 18.51 106.84 17.79 108.22 17.04 C 107.71 18.35 107.80 20.15 109.21 20.87 C 110.82 20.60 109.97 18.20 109.93 17.08 L 111.00 17.07 L 111.00 24.33 C 108.29 23.42 103.12 16.82 106.01 26.03 C 105.77 28.81 104.52 25.01 104.83 24.01 C 104.24 24.69 103.65 25.38 103.07 26.06 C 102.94 24.64 102.84 23.21 102.75 21.79 C 103.13 20.83 103.53 19.89 103.94 18.95 Z" />
<path fill="#dbbaa1" opacity="1.00" d=" M 108.22 17.04 C 108.64 17.05 109.50 17.07 109.93 17.08 C 109.97 18.20 110.82 20.60 109.21 20.87 C 107.80 20.15 107.71 18.35 108.22 17.04 Z" />
<path fill="#b37273" opacity="1.00" d=" M 76.77 21.91 C 78.32 19.89 80.44 18.55 82.84 17.74 C 82.34 20.56 79.26 21.61 76.77 21.91 Z" />
<path fill="#35211f" opacity="1.00" d=" M 55.21 18.67 C 57.05 21.41 57.90 24.68 58.08 27.96 C 57.39 26.90 56.74 25.80 56.03 24.75 C 55.38 29.35 56.78 33.75 57.29 38.25 C 57.49 39.89 57.78 41.51 57.97 43.15 C 57.93 45.10 58.81 46.81 59.96 48.32 C 57.58 48.49 55.32 49.25 53.09 50.07 L 52.04 49.96 C 51.17 48.31 50.44 46.59 49.88 44.80 C 51.15 46.01 52.18 47.44 53.27 48.81 C 54.58 48.35 55.84 47.72 56.90 46.81 C 56.77 43.10 56.24 39.39 55.35 35.79 C 54.81 30.10 54.95 24.37 55.21 18.67 Z" />
<path fill="#c59769" opacity="1.00" d=" M 71.96 22.40 C 73.25 21.20 74.54 20.01 75.81 18.78 C 75.81 19.62 75.81 21.28 75.81 22.12 L 74.86 22.38 C 73.00 23.01 71.80 24.77 70.34 26.01 C 70.27 25.59 70.14 24.76 70.08 24.34 C 70.71 23.70 71.34 23.06 71.96 22.40 Z" />
<path fill="#942b83" opacity="1.00" d=" M 95.33 20.72 C 96.56 24.77 97.17 28.94 97.17 33.18 C 96.73 35.16 96.18 37.14 96.14 39.18 C 96.11 39.63 96.06 40.53 96.03 40.98 C 93.49 38.71 95.62 32.57 94.89 28.84 C 94.93 27.06 94.99 23.48 95.02 21.69 L 95.33 20.72 Z" />
<path fill="#69394a" opacity="1.00" d=" M 106.01 26.03 C 103.12 16.82 108.29 23.42 111.00 24.33 L 111.00 27.06 C 109.37 27.63 107.83 27.73 107.02 25.94 C 109.60 35.43 105.69 29.02 103.18 27.90 C 103.05 29.35 102.91 30.79 102.76 32.24 C 101.48 30.26 101.61 27.60 100.09 25.80 C 100.00 27.42 100.00 29.05 100.00 30.68 L 99.30 31.14 C 97.08 27.31 99.59 24.12 102.75 21.79 C 102.84 23.21 102.94 24.64 103.07 26.06 C 103.65 25.38 104.24 24.69 104.83 24.01 C 104.52 25.01 105.77 28.81 106.01 26.03 Z" />
<path fill="#571932" opacity="1.00" d=" M 92.93 23.89 C 93.61 23.14 94.31 22.41 95.02 21.69 C 94.99 23.48 94.93 27.06 94.89 28.84 C 90.09 36.91 81.25 41.99 77.15 50.26 C 75.72 52.17 73.54 54.26 71.84 51.40 C 74.73 48.73 77.83 46.19 79.96 42.84 C 86.36 38.38 90.10 30.94 92.93 23.89 Z" />
<path fill="#759d69" opacity="1.00" d=" M 27.70 25.95 C 31.32 25.55 34.58 23.76 38.12 22.98 C 37.89 24.89 36.09 25.82 34.83 27.03 C 32.85 26.89 31.31 27.96 29.97 29.29 C 28.32 29.08 27.32 27.76 26.79 26.30 L 27.70 25.95 Z" />
<path fill="#8e686b" opacity="1.00" d=" M 63.04 22.85 C 66.82 22.51 63.82 27.13 62.13 28.18 C 62.07 27.36 61.93 25.71 61.86 24.89 C 62.16 24.38 62.74 23.36 63.04 22.85 Z" />
<path fill="#331b20" opacity="1.00" d=" M 61.97 30.01 C 64.47 28.41 65.61 25.73 66.93 23.20 C 67.62 24.49 68.72 24.90 70.08 24.34 C 70.14 24.76 70.27 25.59 70.34 26.01 C 71.31 31.99 70.95 38.09 70.98 44.12 L 69.94 43.89 C 69.95 43.13 69.95 41.62 69.95 40.87 C 69.99 39.59 70.02 38.31 70.03 37.03 C 70.04 33.96 70.09 30.89 69.90 27.82 C 68.77 28.75 67.76 29.82 66.85 30.96 C 66.02 28.69 63.74 29.91 61.97 30.01 Z" />
<path fill="#e6deb4" opacity="1.00" d=" M 47.99 24.01 C 48.47 23.97 49.42 23.89 49.90 23.85 C 52.13 27.28 48.98 31.21 46.12 33.14 C 46.02 32.30 45.82 30.62 45.72 29.78 C 46.02 27.70 46.98 25.82 47.99 24.01 Z" />
<path fill="#b23040" opacity="1.00" d=" M 87.17 29.83 C 89.11 27.87 91.03 25.89 92.93 23.89 C 90.10 30.94 86.36 38.38 79.96 42.84 C 76.82 44.25 74.00 46.24 71.03 47.96 C 71.02 47.25 71.01 45.84 71.00 45.14 C 74.74 39.92 80.56 36.84 84.89 32.22 C 85.63 31.40 86.39 30.61 87.17 29.83 Z" />
<path fill="#bccd91" opacity="1.00" d=" M 56.03 24.75 C 56.74 25.80 57.39 26.90 58.08 27.96 C 58.03 30.34 58.65 32.63 59.37 34.87 C 58.87 36.11 58.11 37.20 57.29 38.25 C 56.78 33.75 55.38 29.35 56.03 24.75 Z" />
<path fill="#0a0908" opacity="0.93" d=" M 25.04 27.06 C 25.48 26.87 26.35 26.49 26.79 26.30 C 27.32 27.76 28.32 29.08 29.97 29.29 C 29.70 30.23 29.43 31.17 29.17 32.12 C 30.80 31.45 32.33 30.11 34.19 30.81 C 33.80 31.31 33.01 32.31 32.62 32.81 C 30.28 34.75 30.99 38.06 31.05 40.81 C 32.78 41.80 34.87 42.28 36.03 44.05 C 35.58 44.08 34.69 44.14 34.25 44.17 C 27.41 43.16 20.48 45.10 14.75 48.78 C 11.94 50.43 9.09 52.58 7.69 55.62 C 7.13 56.65 6.87 57.76 6.94 58.95 C 6.95 59.44 6.97 60.42 6.98 60.91 C 7.01 62.35 6.84 64.17 8.80 64.15 C 8.23 65.81 7.34 67.82 8.67 69.36 C 11.64 69.90 14.56 70.63 17.19 72.14 C 15.76 73.76 13.59 72.04 11.86 72.04 C 7.45 71.00 2.14 71.82 0.00 76.19 L 0.00 73.14 C 2.29 71.62 4.67 70.24 6.99 68.78 C 6.29 64.69 1.57 61.98 4.02 57.10 C 7.64 47.07 18.93 42.87 28.74 41.71 C 30.28 39.23 29.28 36.21 29.40 33.47 C 28.08 31.24 26.53 29.17 25.04 27.06 Z" />
<path fill="#421b34" opacity="1.00" d=" M 100.09 25.80 C 101.61 27.60 101.48 30.26 102.76 32.24 C 102.91 30.79 103.05 29.35 103.18 27.90 C 105.69 29.02 109.60 35.43 107.02 25.94 C 107.83 27.73 109.37 27.63 111.00 27.06 L 111.00 30.04 C 109.71 30.40 107.80 30.10 107.90 32.02 C 107.63 34.44 103.06 30.46 103.99 33.99 C 104.59 36.43 102.66 36.02 100.99 35.70 C 104.27 34.63 100.57 32.59 100.00 30.68 C 100.00 29.05 100.00 27.42 100.09 25.80 Z" />
<path fill="#3b402f" opacity="1.00" d=" M 29.97 29.29 C 31.31 27.96 32.85 26.89 34.83 27.03 C 35.02 28.63 35.64 30.07 36.89 31.12 C 36.21 31.05 34.87 30.89 34.19 30.81 C 32.33 30.11 30.80 31.45 29.17 32.12 C 29.43 31.17 29.70 30.23 29.97 29.29 Z" />
<path fill="#7d3e3c" opacity="1.00" d=" M 84.26 26.80 C 85.97 26.81 86.80 28.38 87.17 29.83 C 86.39 30.61 85.63 31.40 84.89 32.22 C 83.45 31.78 81.79 31.02 81.80 29.26 C 82.85 29.50 83.89 29.73 84.94 29.94 C 84.73 28.89 84.50 27.85 84.26 26.80 Z" />
<path fill="#3f2626" opacity="1.00" d=" M 58.08 27.96 C 58.94 29.65 59.71 31.39 60.38 33.17 C 60.80 34.50 61.25 35.83 61.80 37.11 C 61.54 37.65 61.02 38.73 60.76 39.27 C 60.25 37.82 59.84 36.33 59.37 34.87 C 58.65 32.63 58.03 30.34 58.08 27.96 Z" />
<path fill="#e0ebbd" opacity="1.00" d=" M 66.85 30.96 C 67.76 29.82 68.77 28.75 69.90 27.82 C 70.09 30.89 70.04 33.96 70.03 37.03 C 68.01 37.75 65.94 38.27 63.92 38.98 L 63.69 38.15 C 63.98 35.47 65.44 33.19 66.85 30.96 Z" />
<path fill="#381e2f" opacity="1.00" d=" M 77.15 50.26 C 81.25 41.99 90.09 36.91 94.89 28.84 C 95.62 32.57 93.49 38.71 96.03 40.98 L 97.04 41.16 C 92.30 46.05 87.92 51.48 82.20 55.27 C 82.43 54.76 82.89 53.75 83.12 53.25 C 84.51 51.94 85.86 50.59 87.20 49.23 C 89.58 46.87 92.21 44.69 94.10 41.90 C 92.02 42.56 90.21 43.81 88.24 44.72 C 84.09 43.35 80.93 48.83 77.15 50.26 Z" />
<path fill="#908572" opacity="1.00" d=" M 37.92 32.19 C 39.68 27.59 42.66 33.58 43.19 35.93 L 42.94 37.09 C 41.87 34.70 39.52 31.04 37.62 35.06 C 36.90 34.10 37.52 33.12 37.92 32.19 Z" />
<path fill="#080407" opacity="0.93" d=" M 107.90 32.02 C 107.80 30.10 109.71 30.40 111.00 30.04 L 111.00 31.57 C 108.52 33.53 106.28 35.79 103.65 37.56 C 102.47 38.12 100.62 37.58 99.92 38.85 C 101.51 39.29 104.23 38.33 104.35 40.73 C 104.29 43.56 104.23 46.39 104.18 49.23 C 103.41 51.75 102.47 54.44 105.92 55.01 C 105.20 55.02 103.75 55.04 103.02 55.05 C 102.26 57.36 104.70 56.96 106.19 57.31 C 105.61 57.56 104.45 58.07 103.86 58.32 C 102.13 58.76 100.65 59.67 99.72 61.24 C 98.97 61.21 96.53 63.05 97.22 61.25 C 98.59 59.89 99.59 58.17 99.92 56.25 C 100.36 54.58 100.90 52.93 101.22 51.24 C 101.42 48.69 101.81 43.60 102.00 41.05 L 100.98 41.04 C 100.21 41.07 98.67 41.11 97.89 41.13 L 97.04 41.16 L 96.03 40.98 C 96.06 40.53 96.11 39.63 96.14 39.18 C 97.65 37.84 98.47 34.67 100.99 35.70 C 102.66 36.02 104.59 36.43 103.99 33.99 C 103.06 30.46 107.63 34.44 107.90 32.02 Z" />
<path fill="#623846" opacity="1.00" d=" M 34.19 30.81 C 34.87 30.89 36.21 31.05 36.89 31.12 C 37.15 31.39 37.66 31.92 37.92 32.19 C 37.52 33.12 36.90 34.10 37.62 35.06 L 37.94 35.86 C 36.64 36.47 35.39 37.19 34.10 37.81 C 33.49 36.18 33.02 34.50 32.62 32.81 C 33.01 32.31 33.80 31.31 34.19 30.81 Z" />
<path fill="#2f1629" opacity="1.00" d=" M 99.30 31.14 L 100.00 30.68 C 100.57 32.59 104.27 34.63 100.99 35.70 C 98.47 34.67 97.65 37.84 96.14 39.18 C 96.18 37.14 96.73 35.16 97.17 33.18 C 97.88 32.50 98.59 31.82 99.30 31.14 Z" />
<path fill="#2d1723" opacity="1.00" d=" M 31.05 40.81 C 30.99 38.06 30.28 34.75 32.62 32.81 C 33.02 34.50 33.49 36.18 34.10 37.81 C 35.39 37.19 36.64 36.47 37.94 35.86 C 37.68 36.33 37.17 37.26 36.92 37.72 C 36.22 38.82 35.55 39.95 34.96 41.11 C 37.19 40.92 40.25 40.40 40.95 37.90 C 41.92 36.00 39.17 35.70 37.94 35.86 L 37.62 35.06 C 39.52 31.04 41.87 34.70 42.94 37.09 C 43.04 37.51 43.24 38.35 43.34 38.77 C 41.12 39.68 39.47 43.78 42.63 44.40 C 43.89 45.40 44.24 43.80 44.81 42.96 C 45.25 44.37 45.68 45.78 46.04 47.21 L 45.07 46.92 C 42.10 45.83 39.04 44.99 36.03 44.05 C 34.87 42.28 32.78 41.80 31.05 40.81 Z" />
<path fill="#7fb080" opacity="1.00" d=" M 59.37 34.87 C 59.84 36.33 60.25 37.82 60.76 39.27 C 60.89 39.69 61.14 40.52 61.27 40.94 C 60.20 41.71 59.08 42.43 57.97 43.15 C 57.78 41.51 57.49 39.89 57.29 38.25 C 58.11 37.20 58.87 36.11 59.37 34.87 Z" />
<path fill="#a78078" opacity="1.00" d=" M 37.94 35.86 C 39.17 35.70 41.92 36.00 40.95 37.90 C 39.60 38.03 38.26 37.97 36.92 37.72 C 37.17 37.26 37.68 36.33 37.94 35.86 Z" />
<path fill="#cae4a5" opacity="1.00" d=" M 43.19 35.93 C 43.46 36.27 44.01 36.96 44.28 37.31 C 45.07 38.53 45.90 39.74 46.74 40.94 C 47.27 41.92 47.77 42.93 48.23 43.95 C 48.06 45.48 48.12 47.35 46.04 47.21 C 45.68 45.78 45.25 44.37 44.81 42.96 C 44.37 41.54 43.86 40.15 43.34 38.77 C 43.24 38.35 43.04 37.51 42.94 37.09 L 43.19 35.93 Z" />
<path fill="#922438" opacity="1.00" d=" M 55.35 35.79 C 56.24 39.39 56.77 43.10 56.90 46.81 C 55.84 47.72 54.58 48.35 53.27 48.81 C 52.18 47.44 51.15 46.01 49.88 44.80 L 50.12 44.22 C 51.63 41.07 55.89 39.85 55.35 35.79 Z" />
<path fill="#1b0d12" opacity="1.00" d=" M 61.80 37.11 C 62.11 37.28 62.74 37.63 63.05 37.81 C 63.05 39.24 63.03 40.66 63.01 42.09 L 62.18 41.95 C 61.95 41.70 61.50 41.19 61.27 40.94 C 61.14 40.52 60.89 39.69 60.76 39.27 C 61.02 38.73 61.54 37.65 61.80 37.11 Z" />
<path fill="#96cb93" opacity="1.00" d=" M 63.92 38.98 C 65.94 38.27 68.01 37.75 70.03 37.03 C 70.02 38.31 69.99 39.59 69.95 40.87 C 69.12 44.21 64.23 41.16 63.92 38.98 Z" />
<path fill="#633047" opacity="1.00" d=" M 34.96 41.11 C 35.55 39.95 36.22 38.82 36.92 37.72 C 38.26 37.97 39.60 38.03 40.95 37.90 C 40.25 40.40 37.19 40.92 34.96 41.11 Z" />
<path fill="#598d88" opacity="1.00" d=" M 63.05 37.81 L 63.69 38.15 L 63.92 38.98 C 64.23 41.16 69.12 44.21 69.95 40.87 C 69.95 41.62 69.95 43.13 69.94 43.89 L 69.80 44.82 C 69.24 47.07 69.08 49.58 67.03 50.97 C 65.79 51.55 64.49 52.13 63.08 52.03 C 63.03 48.71 63.01 45.40 63.01 42.09 C 63.03 40.66 63.05 39.24 63.05 37.81 Z" />
<path fill="#582231" opacity="1.00" d=" M 43.34 38.77 C 43.86 40.15 44.37 41.54 44.81 42.96 C 44.24 43.80 43.89 45.40 42.63 44.40 C 39.47 43.78 41.12 39.68 43.34 38.77 Z" />
<path fill="#3f2623" opacity="1.00" d=" M 46.74 40.94 C 48.71 39.22 49.47 42.96 50.12 44.22 L 49.88 44.80 C 49.47 44.59 48.64 44.16 48.23 43.95 C 47.77 42.93 47.27 41.92 46.74 40.94 Z" />
<path fill="#5c9289" opacity="1.00" d=" M 61.27 40.94 C 61.50 41.19 61.95 41.70 62.18 41.95 C 62.18 44.30 62.06 46.81 59.96 48.32 C 58.81 46.81 57.93 45.10 57.97 43.15 C 59.08 42.43 60.20 41.71 61.27 40.94 Z" />
<path fill="#c03b3f" opacity="1.00" d=" M 97.04 41.16 L 97.89 41.13 C 102.30 43.48 99.49 49.99 98.86 54.01 C 97.99 54.27 97.11 54.51 96.23 54.74 C 95.93 53.39 96.08 51.47 94.11 52.03 L 93.25 52.04 C 90.51 51.41 87.64 53.70 87.34 56.33 L 87.35 57.19 C 87.66 58.45 86.92 59.33 86.02 60.10 L 85.18 60.35 C 82.77 60.33 80.56 59.76 79.99 57.15 C 80.73 56.54 81.47 55.91 82.20 55.27 C 87.92 51.48 92.30 46.05 97.04 41.16 Z" />
<path fill="#d467b7" opacity="1.00" d=" M 97.89 41.13 C 98.67 41.11 100.21 41.07 100.98 41.04 C 101.00 44.44 101.03 47.84 101.22 51.24 C 100.90 52.93 100.36 54.58 99.92 56.25 C 99.66 55.69 99.13 54.57 98.86 54.01 C 99.49 49.99 102.30 43.48 97.89 41.13 Z" />
<path fill="#6c314e" opacity="1.00" d=" M 100.98 41.04 L 102.00 41.05 C 101.81 43.60 101.42 48.69 101.22 51.24 C 101.03 47.84 101.00 44.44 100.98 41.04 Z" />
<path fill="#000000" opacity="0.26" d=" M 104.35 40.73 C 105.64 43.43 104.77 46.44 104.18 49.23 C 104.23 46.39 104.29 43.56 104.35 40.73 Z" />
<path fill="#252e2c" opacity="1.00" d=" M 62.18 41.95 L 63.01 42.09 C 63.01 45.40 63.03 48.71 63.08 52.03 C 60.70 52.13 63.41 46.63 59.96 48.32 C 62.06 46.81 62.18 44.30 62.18 41.95 Z" />
<path fill="#e1ecc2" opacity="1.00" d=" M 88.24 44.72 C 90.21 43.81 92.02 42.56 94.10 41.90 C 92.21 44.69 89.58 46.87 87.20 49.23 C 85.65 49.23 84.10 49.31 82.55 49.12 C 84.28 47.45 86.27 46.08 88.24 44.72 Z" />
<path fill="#7e2035" opacity="1.00" d=" M 71.03 47.96 C 74.00 46.24 76.82 44.25 79.96 42.84 C 77.83 46.19 74.73 48.73 71.84 51.40 C 69.52 49.99 70.00 47.14 69.80 44.82 L 69.94 43.89 L 70.98 44.12 L 71.00 45.14 C 71.01 45.84 71.02 47.25 71.03 47.96 Z" />
<path fill="#b49767" opacity="1.00" d=" M 14.75 48.78 C 20.48 45.10 27.41 43.16 34.25 44.17 C 30.62 45.33 25.34 44.58 22.25 46.78 L 21.95 47.50 C 19.52 48.02 17.16 48.81 14.90 49.82 L 14.75 48.78 Z" />
<path fill="#d03d3e" opacity="1.00" d=" M 34.25 44.17 C 34.69 44.14 35.58 44.08 36.03 44.05 C 39.04 44.99 42.10 45.83 45.07 46.92 C 45.59 49.19 46.24 51.44 46.56 53.75 C 45.22 55.37 43.70 56.87 42.74 58.78 C 41.43 60.85 40.11 62.91 38.78 64.97 C 37.05 64.77 35.49 63.93 33.96 63.17 C 30.92 58.12 24.39 58.23 19.36 56.70 C 19.23 56.33 18.97 55.59 18.84 55.22 C 19.19 54.98 19.91 54.50 20.27 54.26 C 23.51 53.74 26.75 47.64 22.25 46.78 C 25.34 44.58 30.62 45.33 34.25 44.17 M 38.20 52.14 C 37.23 52.85 36.82 53.83 36.97 55.06 C 38.66 54.58 41.69 54.50 41.02 51.98 C 40.31 52.02 38.90 52.10 38.20 52.14 Z" />
<path fill="#629993" opacity="1.00" d=" M 48.23 43.95 C 48.64 44.16 49.47 44.59 49.88 44.80 C 50.44 46.59 51.17 48.31 52.04 49.96 C 50.65 50.46 49.36 51.19 48.03 51.82 C 47.24 50.34 46.70 48.75 46.04 47.21 C 48.12 47.35 48.06 45.48 48.23 43.95 Z" />
<path fill="#1e1219" opacity="1.00" d=" M 77.15 50.26 C 80.93 48.83 84.09 43.35 88.24 44.72 C 86.27 46.08 84.28 47.45 82.55 49.12 C 81.64 49.80 80.74 50.47 79.84 51.15 C 77.76 53.18 74.18 54.67 73.91 57.90 C 75.30 58.02 76.70 58.09 78.11 58.11 C 75.68 58.79 74.38 60.74 73.51 62.97 C 72.72 64.29 71.85 65.56 71.05 66.87 C 73.45 67.20 75.81 67.67 78.15 68.28 L 77.66 69.07 C 76.50 68.83 75.35 68.54 74.18 68.34 C 72.11 68.01 70.02 67.94 67.94 67.77 C 68.23 67.40 68.82 66.66 69.11 66.30 C 71.66 64.27 73.89 61.17 72.56 57.79 C 72.66 56.03 72.44 54.23 71.20 52.86 C 71.00 52.60 70.58 52.08 70.37 51.82 C 69.48 51.05 68.37 50.76 67.03 50.97 C 69.08 49.58 69.24 47.07 69.80 44.82 C 70.00 47.14 69.52 49.99 71.84 51.40 C 73.54 54.26 75.72 52.17 77.15 50.26 Z" />
<path fill="#73433a" opacity="1.00" d=" M 22.25 46.78 C 26.75 47.64 23.51 53.74 20.27 54.26 L 20.13 53.26 C 21.96 51.92 24.33 49.63 21.95 47.50 L 22.25 46.78 Z" />
<path fill="#603732" opacity="1.00" d=" M 45.07 46.92 L 46.04 47.21 C 46.70 48.75 47.24 50.34 48.03 51.82 C 49.36 51.19 50.65 50.46 52.04 49.96 L 53.09 50.07 C 52.02 51.37 48.42 52.24 49.80 54.26 C 48.55 55.33 47.36 56.46 46.18 57.60 C 44.94 57.65 43.85 58.31 42.74 58.78 C 43.70 56.87 45.22 55.37 46.56 53.75 C 46.24 51.44 45.59 49.19 45.07 46.92 Z" />
<path fill="#ecdbb4" opacity="1.00" d=" M 14.90 49.82 C 17.16 48.81 19.52 48.02 21.95 47.50 C 24.33 49.63 21.96 51.92 20.13 53.26 C 18.10 53.09 16.06 52.98 14.03 52.82 L 13.63 51.96 C 13.95 51.43 14.58 50.36 14.90 49.82 Z" />
<path fill="#b5343b" opacity="1.00" d=" M 53.09 50.07 C 55.32 49.25 57.58 48.49 59.96 48.32 C 63.41 46.63 60.70 52.13 63.08 52.03 C 64.49 52.13 65.79 51.55 67.03 50.97 C 68.37 50.76 69.48 51.05 70.37 51.82 C 69.20 56.61 67.08 61.29 64.02 65.22 C 62.36 66.23 60.61 67.10 58.91 68.05 C 57.80 68.11 56.77 67.89 55.84 67.40 C 57.75 65.90 59.42 64.10 60.72 62.04 C 62.55 64.59 65.47 56.64 62.39 56.74 C 60.14 55.01 58.31 51.47 55.03 51.95 C 53.06 52.00 51.48 53.40 49.80 54.26 C 48.42 52.24 52.02 51.37 53.09 50.07 Z" />
<path fill="#ba353d" opacity="1.00" d=" M 7.69 55.62 C 9.09 52.58 11.94 50.43 14.75 48.78 L 14.90 49.82 C 14.58 50.36 13.95 51.43 13.63 51.96 C 11.12 55.55 16.29 57.13 18.84 55.22 C 18.97 55.59 19.23 56.33 19.36 56.70 C 24.39 58.23 30.92 58.12 33.96 63.17 C 33.29 63.08 31.96 62.88 31.29 62.78 C 26.96 61.29 22.53 59.95 17.89 60.00 C 14.51 58.49 11.09 57.08 7.69 55.62 Z" />
<path fill="#699c8b" opacity="1.00" d=" M 79.84 51.15 C 80.74 50.47 81.64 49.80 82.55 49.12 C 84.10 49.31 85.65 49.23 87.20 49.23 C 85.86 50.59 84.51 51.94 83.12 53.25 C 82.02 52.55 80.92 51.86 79.84 51.15 Z" />
<path fill="#456e76" opacity="1.00" d=" M 73.91 57.90 C 74.18 54.67 77.76 53.18 79.84 51.15 C 80.92 51.86 82.02 52.55 83.12 53.25 C 82.89 53.75 82.43 54.76 82.20 55.27 C 81.47 55.91 80.73 56.54 79.99 57.15 C 79.52 57.39 78.58 57.87 78.11 58.11 C 76.70 58.09 75.30 58.02 73.91 57.90 Z" />
<path fill="#753638" opacity="1.00" d=" M 18.84 55.22 C 16.29 57.13 11.12 55.55 13.63 51.96 L 14.03 52.82 C 14.62 56.16 18.03 54.05 20.27 54.26 C 19.91 54.50 19.19 54.98 18.84 55.22 Z" />
<path fill="#cfcaa4" opacity="1.00" d=" M 38.20 52.14 C 38.90 52.10 40.31 52.02 41.02 51.98 C 41.69 54.50 38.66 54.58 36.97 55.06 C 36.82 53.83 37.23 52.85 38.20 52.14 Z" />
<path fill="#4a1b2e" opacity="1.00" d=" M 49.80 54.26 C 51.48 53.40 53.06 52.00 55.03 51.95 C 58.31 51.47 60.14 55.01 62.39 56.74 C 61.93 58.53 61.35 60.29 60.72 62.04 C 59.42 64.10 57.75 65.90 55.84 67.40 C 53.43 66.17 57.33 64.82 56.74 63.29 C 56.16 61.02 56.40 58.16 54.11 56.82 C 54.31 57.95 54.53 59.07 54.76 60.18 C 52.13 60.60 53.95 56.06 51.35 57.23 C 50.57 59.49 49.64 61.68 48.72 63.88 C 47.90 65.68 51.63 68.73 47.81 68.36 C 47.37 68.26 46.49 68.06 46.04 67.96 C 42.54 65.18 45.04 60.94 46.18 57.60 C 47.36 56.46 48.55 55.33 49.80 54.26 Z" />
<path fill="#8e2133" opacity="1.00" d=" M 70.37 51.82 C 70.58 52.08 71.00 52.60 71.20 52.86 C 71.20 55.66 71.21 58.46 71.23 61.27 C 70.52 63.10 69.11 64.50 68.00 66.09 C 66.66 65.87 65.34 65.56 64.02 65.22 C 67.08 61.29 69.20 56.61 70.37 51.82 Z" />
<path fill="#c8a894" opacity="1.00" d=" M 87.34 56.33 C 87.64 53.70 90.51 51.41 93.25 52.04 C 91.52 53.77 89.44 55.09 87.34 56.33 Z" />
<path fill="#966267" opacity="1.00" d=" M 93.25 52.04 L 94.11 52.03 C 96.57 55.68 89.58 55.81 87.35 57.19 L 87.34 56.33 C 89.44 55.09 91.52 53.77 93.25 52.04 Z" />
<path fill="#6e213e" opacity="1.00" d=" M 94.11 52.03 C 96.08 51.47 95.93 53.39 96.23 54.74 C 97.11 54.51 97.99 54.27 98.86 54.01 C 99.13 54.57 99.66 55.69 99.92 56.25 C 99.59 58.17 98.59 59.89 97.22 61.25 C 97.46 59.47 97.84 57.70 97.99 55.90 C 95.51 56.45 93.32 57.81 91.18 59.13 C 89.46 59.45 87.74 59.79 86.02 60.10 C 86.92 59.33 87.66 58.45 87.35 57.19 C 89.58 55.81 96.57 55.68 94.11 52.03 Z" />
<path fill="#bb9384" opacity="1.00" d=" M 14.03 52.82 C 16.06 52.98 18.10 53.09 20.13 53.26 L 20.27 54.26 C 18.03 54.05 14.62 56.16 14.03 52.82 Z" />
<path fill="#541830" opacity="1.00" d=" M 71.20 52.86 C 72.44 54.23 72.66 56.03 72.56 57.79 C 72.17 58.97 71.73 60.13 71.23 61.27 C 71.21 58.46 71.20 55.66 71.20 52.86 Z" />
<path fill="#0d0f0d" opacity="0.94" d=" M 105.92 55.01 C 107.54 54.32 109.21 52.79 111.00 53.94 L 111.00 55.08 C 109.35 55.40 107.41 56.20 105.92 55.01 Z" />
<path fill="#484343" opacity="1.00" d=" M 103.02 55.05 C 103.75 55.04 105.20 55.02 105.92 55.01 C 107.41 56.20 109.35 55.40 111.00 55.08 L 111.00 61.46 C 110.48 60.04 110.11 58.58 109.72 57.12 C 108.48 57.76 107.30 58.50 106.09 59.19 C 105.53 58.97 104.42 58.54 103.86 58.32 C 104.45 58.07 105.61 57.56 106.19 57.31 C 104.70 56.96 102.26 57.36 103.02 55.05 Z" />
<path fill="#9d2a3b" opacity="1.00" d=" M 6.94 58.95 C 6.87 57.76 7.13 56.65 7.69 55.62 C 11.09 57.08 14.51 58.49 17.89 60.00 C 18.25 61.01 18.64 62.00 19.05 63.00 C 14.75 62.60 10.90 60.49 6.94 58.95 Z" />
<path fill="#31162c" opacity="1.00" d=" M 91.18 59.13 C 93.32 57.81 95.51 56.45 97.99 55.90 C 97.84 57.70 97.46 59.47 97.22 61.25 C 96.53 63.05 98.97 61.21 99.72 61.24 C 101.10 61.61 103.86 62.36 105.24 62.73 C 103.43 62.86 101.63 62.99 99.82 63.06 C 99.08 63.08 97.59 63.12 96.85 63.14 C 95.75 63.25 94.72 63.60 93.76 64.20 C 89.16 67.20 83.45 67.32 78.73 69.88 C 78.46 69.68 77.93 69.27 77.66 69.07 L 78.15 68.28 C 80.92 63.23 87.03 62.50 91.18 59.13 Z" />
<path fill="#ba3b40" opacity="1.00" d=" M 42.74 58.78 C 43.85 58.31 44.94 57.65 46.18 57.60 C 45.04 60.94 42.54 65.18 46.04 67.96 C 44.91 67.80 43.77 67.61 42.62 67.63 C 41.69 67.57 40.78 67.69 39.87 67.83 C 40.53 64.73 41.88 61.82 42.74 58.78 Z" />
<path fill="#9b8775" opacity="1.00" d=" M 51.35 57.23 C 53.95 56.06 52.13 60.60 54.76 60.18 C 54.53 59.07 54.31 57.95 54.11 56.82 C 56.40 58.16 56.16 61.02 56.74 63.29 C 55.99 62.61 55.25 61.92 54.52 61.23 C 53.62 62.06 52.92 63.09 52.13 64.03 C 52.06 63.24 51.94 61.66 51.87 60.88 C 50.62 61.98 51.14 64.55 48.72 63.88 C 49.64 61.68 50.57 59.49 51.35 57.23 Z" />
<path fill="#d69f6b" opacity="1.00" d=" M 62.39 56.74 C 65.47 56.64 62.55 64.59 60.72 62.04 C 61.35 60.29 61.93 58.53 62.39 56.74 Z" />
<path fill="#912736" opacity="1.00" d=" M 78.11 58.11 C 78.58 57.87 79.52 57.39 79.99 57.15 C 80.56 59.76 82.77 60.33 85.18 60.35 C 81.61 61.82 77.30 65.58 73.51 62.97 C 74.38 60.74 75.68 58.79 78.11 58.11 Z" />
<path fill="#0a080a" opacity="0.95" d=" M 106.09 59.19 C 107.30 58.50 108.48 57.76 109.72 57.12 C 110.11 58.58 110.48 60.04 111.00 61.46 L 111.00 63.99 C 109.09 63.52 107.18 63.07 105.24 62.73 C 103.86 62.36 101.10 61.61 99.72 61.24 C 101.92 60.88 104.15 60.34 106.09 59.19 Z" />
<path fill="#8b2775" opacity="1.00" d=" M 72.56 57.79 C 73.89 61.17 71.66 64.27 69.11 66.30 L 68.00 66.09 C 69.11 64.50 70.52 63.10 71.23 61.27 C 71.73 60.13 72.17 58.97 72.56 57.79 Z" />
<path fill="#251323" opacity="1.00" d=" M 99.72 61.24 C 100.65 59.67 102.13 58.76 103.86 58.32 C 104.42 58.54 105.53 58.97 106.09 59.19 C 104.15 60.34 101.92 60.88 99.72 61.24 Z" />
<path fill="#601b34" opacity="1.00" d=" M 6.94 58.95 C 10.90 60.49 14.75 62.60 19.05 63.00 C 19.31 63.28 19.84 63.84 20.10 64.13 C 15.30 65.12 11.21 62.52 6.98 60.91 C 6.97 60.42 6.95 59.44 6.94 58.95 Z" />
<path fill="#281920" opacity="1.00" d=" M 38.78 64.97 C 40.11 62.91 41.43 60.85 42.74 58.78 C 41.88 61.82 40.53 64.73 39.87 67.83 C 40.06 69.73 41.03 71.46 42.20 72.93 C 44.18 73.45 45.78 71.98 47.40 71.10 C 47.78 71.06 48.56 70.97 48.94 70.93 L 50.00 70.88 C 49.72 71.38 49.16 72.40 48.88 72.90 C 45.90 72.89 44.17 75.48 41.96 77.06 L 41.06 77.04 C 41.86 75.72 42.33 74.56 40.24 75.23 C 32.80 75.06 24.94 74.78 18.23 71.18 C 17.86 70.94 17.11 70.47 16.74 70.24 C 22.72 70.39 28.19 74.01 34.30 72.86 C 33.32 71.67 28.94 71.42 31.03 69.59 C 31.45 69.76 32.30 70.11 32.72 70.29 C 34.62 71.43 36.70 72.38 38.99 72.03 C 38.98 70.58 38.95 67.68 38.94 66.23 L 38.04 66.02 C 37.08 65.79 36.11 65.57 35.14 65.37 C 33.77 64.88 32.41 64.33 31.03 63.85 L 31.29 62.78 C 31.96 62.88 33.29 63.08 33.96 63.17 C 35.49 63.93 37.05 64.77 38.78 64.97 Z" />
<path fill="#49182f" opacity="1.00" d=" M 86.02 60.10 C 87.74 59.79 89.46 59.45 91.18 59.13 C 87.03 62.50 80.92 63.23 78.15 68.28 C 75.81 67.67 73.45 67.20 71.05 66.87 C 71.85 65.56 72.72 64.29 73.51 62.97 C 77.30 65.58 81.61 61.82 85.18 60.35 L 86.02 60.10 Z" />
<path fill="#39192b" opacity="1.00" d=" M 17.89 60.00 C 22.53 59.95 26.96 61.29 31.29 62.78 L 31.03 63.85 C 27.27 62.98 23.56 61.92 19.78 61.13 C 20.71 62.20 21.70 63.22 22.76 64.17 C 24.00 65.37 25.42 66.36 26.89 67.27 C 28.23 68.11 29.63 68.84 31.03 69.59 C 28.94 71.42 33.32 71.67 34.30 72.86 C 28.19 74.01 22.72 70.39 16.74 70.24 C 15.67 69.77 14.79 69.02 14.02 68.16 C 12.94 66.06 11.13 64.59 8.80 64.15 C 6.84 64.17 7.01 62.35 6.98 60.91 C 11.21 62.52 15.30 65.12 20.10 64.13 C 19.84 63.84 19.31 63.28 19.05 63.00 C 18.64 62.00 18.25 61.01 17.89 60.00 Z" />
<path fill="#c7db9f" opacity="1.00" d=" M 19.78 61.13 C 23.56 61.92 27.27 62.98 31.03 63.85 C 32.41 64.33 33.77 64.88 35.14 65.37 C 34.19 65.54 33.23 65.69 32.27 65.82 C 29.24 64.62 26.05 63.73 22.76 64.17 C 21.70 63.22 20.71 62.20 19.78 61.13 Z" />
<path fill="#662d34" opacity="1.00" d=" M 48.72 63.88 C 51.14 64.55 50.62 61.98 51.87 60.88 C 51.94 61.66 52.06 63.24 52.13 64.03 C 52.92 63.09 53.62 62.06 54.52 61.23 C 55.25 61.92 55.99 62.61 56.74 63.29 C 57.33 64.82 53.43 66.17 55.84 67.40 C 56.77 67.89 57.80 68.11 58.91 68.05 C 57.79 68.81 56.57 69.48 55.75 70.60 L 55.19 70.71 C 53.47 70.35 51.73 70.75 50.00 70.88 L 48.94 70.93 C 49.99 70.38 51.07 69.87 52.10 69.29 C 50.67 68.99 49.23 68.72 47.81 68.36 C 51.63 68.73 47.90 65.68 48.72 63.88 Z" />
<path fill="#658e7c" opacity="1.00" d=" M 93.76 64.20 C 94.72 63.60 95.75 63.25 96.85 63.14 C 98.04 64.06 99.84 64.49 100.56 65.86 C 98.54 69.75 102.33 72.49 105.13 74.41 C 105.36 74.60 105.82 74.98 106.04 75.17 C 105.31 75.75 104.56 76.32 103.81 76.88 C 102.55 77.68 103.93 79.47 103.77 80.68 C 102.43 81.10 101.08 81.44 99.76 81.90 C 97.41 82.31 95.60 79.00 98.68 78.67 C 100.55 78.54 104.49 75.29 101.19 74.33 L 100.31 73.94 C 99.54 72.20 98.73 70.47 97.97 68.74 C 98.85 65.45 96.56 64.57 93.76 64.20 Z" />
<path fill="#a6d9b8" opacity="1.00" d=" M 96.85 63.14 C 97.59 63.12 99.08 63.08 99.82 63.06 C 101.18 63.98 102.55 64.88 103.82 65.91 C 103.06 66.64 102.32 67.39 101.60 68.17 C 101.34 67.59 100.82 66.44 100.56 65.86 C 99.84 64.49 98.04 64.06 96.85 63.14 Z" />
<path fill="#e8ede5" opacity="1.00" d=" M 99.82 63.06 C 101.63 62.99 103.43 62.86 105.24 62.73 C 107.18 63.07 109.09 63.52 111.00 63.99 L 111.00 64.72 C 108.50 65.04 106.16 68.70 103.82 65.91 C 102.55 64.88 101.18 63.98 99.82 63.06 Z" />
<path fill="#201d19" opacity="1.00" d=" M 8.80 64.15 C 11.13 64.59 12.94 66.06 14.02 68.16 L 13.27 68.32 C 11.96 67.41 10.78 66.20 9.16 65.87 C 9.04 66.74 8.80 68.49 8.67 69.36 C 7.34 67.82 8.23 65.81 8.80 64.15 Z" />
<path fill="#8cc583" opacity="1.00" d=" M 22.76 64.17 C 26.05 63.73 29.24 64.62 32.27 65.82 C 30.48 66.32 28.70 66.88 26.89 67.27 C 25.42 66.36 24.00 65.37 22.76 64.17 Z" />
<path fill="#365877" opacity="1.00" d=" M 78.73 69.88 C 83.45 67.32 89.16 67.20 93.76 64.20 C 96.56 64.57 98.85 65.45 97.97 68.74 C 95.87 69.28 94.37 70.79 93.77 72.85 C 88.34 74.30 83.49 71.96 78.73 69.88 Z" />
<path fill="#6fad8f" opacity="1.00" d=" M 35.14 65.37 C 36.11 65.57 37.08 65.79 38.04 66.02 C 38.04 67.30 37.99 68.58 37.90 69.86 C 36.18 70.07 34.45 70.17 32.72 70.29 C 32.30 70.11 31.45 69.76 31.03 69.59 C 29.63 68.84 28.23 68.11 26.89 67.27 C 28.70 66.88 30.48 66.32 32.27 65.82 C 33.23 65.69 34.19 65.54 35.14 65.37 Z" />
<path fill="#602128" opacity="1.00" d=" M 64.02 65.22 C 65.34 65.56 66.66 65.87 68.00 66.09 L 69.11 66.30 C 68.82 66.66 68.23 67.40 67.94 67.77 L 67.20 67.71 C 66.10 67.17 64.85 66.83 63.96 67.93 C 62.28 67.99 60.60 68.00 58.91 68.05 C 60.61 67.10 62.36 66.23 64.02 65.22 Z" />
<path fill="#e2f2b7" opacity="1.00" d=" M 103.82 65.91 C 106.16 68.70 108.50 65.04 111.00 64.72 L 111.00 66.62 C 109.63 69.61 108.34 72.76 106.04 75.17 C 105.82 74.98 105.36 74.60 105.13 74.41 C 107.60 71.19 101.90 71.09 101.60 68.17 C 102.32 67.39 103.06 66.64 103.82 65.91 Z" />
<path fill="#9ac570" opacity="1.00" d=" M 9.16 65.87 C 10.78 66.20 11.96 67.41 13.27 68.32 C 11.76 68.76 10.22 69.07 8.67 69.36 C 8.80 68.49 9.04 66.74 9.16 65.87 Z" />
<path fill="#4d7e81" opacity="1.00" d=" M 38.04 66.02 L 38.94 66.23 C 38.95 67.68 38.98 70.58 38.99 72.03 C 36.70 72.38 34.62 71.43 32.72 70.29 C 34.45 70.17 36.18 70.07 37.90 69.86 C 37.99 68.58 38.04 67.30 38.04 66.02 Z" />
<path fill="#9bc789" opacity="1.00" d=" M 105.13 74.41 C 102.33 72.49 98.54 69.75 100.56 65.86 C 100.82 66.44 101.34 67.59 101.60 68.17 C 101.90 71.09 107.60 71.19 105.13 74.41 Z" />
<path fill="#6c2135" opacity="1.00" d=" M 39.87 67.83 C 40.78 67.69 41.69 67.57 42.62 67.63 C 43.78 69.33 45.59 70.24 47.40 71.10 C 45.78 71.98 44.18 73.45 42.20 72.93 C 41.03 71.46 40.06 69.73 39.87 67.83 Z" />
<path fill="#cb6454" opacity="1.00" d=" M 42.62 67.63 C 43.77 67.61 44.91 67.80 46.04 67.96 C 46.49 68.06 47.37 68.26 47.81 68.36 C 49.23 68.72 50.67 68.99 52.10 69.29 C 51.07 69.87 49.99 70.38 48.94 70.93 C 48.56 70.97 47.78 71.06 47.40 71.10 C 45.59 70.24 43.78 69.33 42.62 67.63 Z" />
<path fill="#a32e3b" opacity="1.00" d=" M 63.96 67.93 C 64.85 66.83 66.10 67.17 67.20 67.71 C 67.24 68.19 67.32 69.14 67.36 69.61 C 65.22 69.89 61.35 69.81 61.99 73.04 L 62.13 73.90 C 63.41 74.15 65.96 74.64 67.24 74.89 C 59.92 78.46 51.52 78.45 43.71 80.11 C 42.26 79.45 40.50 78.78 41.96 77.06 C 44.17 75.48 45.90 72.89 48.88 72.90 C 51.10 72.56 53.23 71.80 55.19 70.71 L 55.75 70.60 C 58.58 70.08 61.65 69.83 63.96 67.93 Z" />
<path fill="#0e0d0e" opacity="0.96" d=" M 106.04 75.17 C 108.34 72.76 109.63 69.61 111.00 66.62 L 111.00 72.65 C 109.99 74.11 108.81 75.48 108.00 77.08 C 107.88 79.62 110.62 83.28 107.10 84.54 C 108.36 85.23 109.68 85.78 111.00 86.32 L 111.00 87.96 C 107.27 86.33 103.22 85.60 99.30 84.59 C 97.55 84.08 95.71 84.09 93.91 84.03 C 93.62 83.82 93.06 83.41 92.77 83.21 C 95.92 83.10 99.14 83.26 102.21 82.41 C 103.47 82.22 104.74 82.01 106.00 81.79 C 106.39 79.78 104.91 78.33 103.81 76.88 C 104.56 76.32 105.31 75.75 106.04 75.17 Z" />
<path fill="#72995f" opacity="1.00" d=" M 13.27 68.32 L 14.02 68.16 C 14.79 69.02 15.67 69.77 16.74 70.24 C 17.11 70.47 17.86 70.94 18.23 71.18 C 17.97 71.42 17.45 71.90 17.19 72.14 C 14.56 70.63 11.64 69.90 8.67 69.36 C 10.22 69.07 11.76 68.76 13.27 68.32 Z" />
<path fill="#cd9a68" opacity="1.00" d=" M 58.91 68.05 C 60.60 68.00 62.28 67.99 63.96 67.93 C 61.65 69.83 58.58 70.08 55.75 70.60 C 56.57 69.48 57.79 68.81 58.91 68.05 Z" />
<path fill="#75253a" opacity="1.00" d=" M 67.20 67.71 L 67.94 67.77 C 70.02 67.94 72.11 68.01 74.18 68.34 C 73.39 71.97 69.27 70.00 66.96 72.16 C 67.40 71.35 67.53 70.50 67.36 69.61 C 67.32 69.14 67.24 68.19 67.20 67.71 Z" />
<path fill="#401730" opacity="1.00" d=" M 74.18 68.34 C 75.35 68.54 76.50 68.83 77.66 69.07 C 77.93 69.27 78.46 69.68 78.73 69.88 C 78.82 70.36 78.99 71.31 79.08 71.79 C 79.06 72.54 79.03 74.05 79.01 74.80 C 78.03 75.88 77.04 76.95 75.99 77.97 C 74.98 78.35 73.96 78.68 72.93 78.96 C 73.66 77.95 74.39 76.93 75.03 75.86 C 72.61 76.46 70.60 78.14 68.97 79.97 C 65.12 81.21 60.96 82.18 57.76 84.78 C 53.04 85.07 47.97 87.29 43.48 85.08 C 46.11 83.90 49.25 83.53 51.28 81.30 C 48.55 81.67 46.03 81.27 43.71 80.11 C 51.52 78.45 59.92 78.46 67.24 74.89 C 69.26 74.07 68.97 72.74 66.96 72.16 C 69.27 70.00 73.39 71.97 74.18 68.34 Z" />
<path fill="#3d5c5c" opacity="1.00" d=" M 93.77 72.85 C 94.37 70.79 95.87 69.28 97.97 68.74 C 98.73 70.47 99.54 72.20 100.31 73.94 C 98.15 73.46 95.98 73.04 93.77 72.85 Z" />
<path fill="#a08575" opacity="1.00" d=" M 50.00 70.88 C 51.73 70.75 53.47 70.35 55.19 70.71 C 53.23 71.80 51.10 72.56 48.88 72.90 C 49.16 72.40 49.72 71.38 50.00 70.88 Z" />
<path fill="#c09687" opacity="1.00" d=" M 61.99 73.04 C 61.35 69.81 65.22 69.89 67.36 69.61 C 67.53 70.50 67.40 71.35 66.96 72.16 C 65.30 72.46 63.65 72.80 61.99 73.04 Z" />
<path fill="#233848" opacity="1.00" d=" M 78.73 69.88 C 83.49 71.96 88.34 74.30 93.77 72.85 C 95.98 73.04 98.15 73.46 100.31 73.94 L 101.19 74.33 C 96.22 74.66 91.27 74.01 86.31 73.90 C 86.65 75.75 87.50 77.85 86.05 79.46 L 85.25 79.08 C 87.22 75.03 82.78 71.84 79.08 71.79 C 78.99 71.31 78.82 70.36 78.73 69.88 Z" />
<path fill="#477073" opacity="1.00" d=" M 18.23 71.18 C 24.94 74.78 32.80 75.06 40.24 75.23 C 35.79 75.85 31.28 75.79 26.84 76.49 C 26.43 76.46 25.60 76.39 25.19 76.36 C 20.95 73.89 17.04 76.36 13.16 78.18 C 12.64 78.15 11.61 78.09 11.09 78.06 C 11.73 77.07 12.41 76.11 12.97 75.07 C 11.99 74.24 11.08 73.36 11.86 72.04 C 13.59 72.04 15.76 73.76 17.19 72.14 C 17.45 71.90 17.97 71.42 18.23 71.18 Z" />
<path fill="#87af7c" opacity="1.00" d=" M 0.00 76.19 C 2.14 71.82 7.45 71.00 11.86 72.04 C 11.08 73.36 11.99 74.24 12.97 75.07 C 12.41 76.11 11.73 77.07 11.09 78.06 C 9.91 79.04 8.72 80.02 7.62 81.09 C 7.19 80.77 6.33 80.13 5.90 79.81 C 4.94 77.35 2.09 78.15 0.00 77.90 L 0.00 76.19 Z" />
<path fill="#7a2f3b" opacity="1.00" d=" M 61.99 73.04 C 63.65 72.80 65.30 72.46 66.96 72.16 C 68.97 72.74 69.26 74.07 67.24 74.89 C 65.96 74.64 63.41 74.15 62.13 73.90 L 61.99 73.04 Z" />
<path fill="#34536c" opacity="1.00" d=" M 79.08 71.79 C 82.78 71.84 87.22 75.03 85.25 79.08 C 82.85 78.15 80.87 76.52 79.01 74.80 C 79.03 74.05 79.06 72.54 79.08 71.79 Z" />
<path fill="#000000" opacity="0.10" d=" M 108.00 77.08 C 108.81 75.48 109.99 74.11 111.00 72.65 L 111.00 86.32 C 109.68 85.78 108.36 85.23 107.10 84.54 C 110.62 83.28 107.88 79.62 108.00 77.08 Z" />
<path fill="#3f5e73" opacity="1.00" d=" M 86.31 73.90 C 91.27 74.01 96.22 74.66 101.19 74.33 C 104.49 75.29 100.55 78.54 98.68 78.67 C 95.60 79.00 97.41 82.31 99.76 81.90 C 100.37 82.03 101.60 82.28 102.21 82.41 C 99.14 83.26 95.92 83.10 92.77 83.21 C 90.86 82.40 88.94 81.60 86.95 80.99 C 86.72 80.61 86.27 79.84 86.05 79.46 C 87.50 77.85 86.65 75.75 86.31 73.90 Z" />
<path fill="#89c0a5" opacity="1.00" d=" M 13.16 78.18 C 17.04 76.36 20.95 73.89 25.19 76.36 C 23.07 78.30 19.48 77.29 17.97 79.99 C 16.32 80.27 14.68 80.62 13.03 80.95 C 12.49 80.93 11.40 80.89 10.85 80.87 C 11.62 79.97 12.39 79.07 13.16 78.18 Z" />
<path fill="#304d5a" opacity="1.00" d=" M 40.24 75.23 C 42.33 74.56 41.86 75.72 41.06 77.04 L 40.10 77.05 C 37.45 76.93 34.80 76.94 32.15 77.08 C 31.04 79.05 30.46 81.26 29.27 83.19 C 29.24 82.68 29.18 81.65 29.15 81.13 C 30.30 78.60 30.38 76.13 26.84 76.49 C 31.28 75.79 35.79 75.85 40.24 75.23 Z" />
<path fill="#6c9894" opacity="1.00" d=" M 75.99 77.97 C 77.04 76.95 78.03 75.88 79.01 74.80 C 80.87 76.52 82.85 78.15 85.25 79.08 L 86.05 79.46 C 86.27 79.84 86.72 80.61 86.95 80.99 C 83.39 79.67 79.92 77.58 75.99 77.97 Z" />
<path fill="#6c9791" opacity="1.00" d=" M 25.19 76.36 C 25.60 76.39 26.43 76.46 26.84 76.49 C 30.38 76.13 30.30 78.60 29.15 81.13 L 28.39 80.83 C 26.78 79.63 26.33 82.42 25.23 83.16 C 25.11 81.76 24.97 80.37 24.82 78.97 C 23.52 79.00 22.22 79.18 20.96 79.47 C 20.46 79.56 19.48 79.76 18.99 79.85 L 17.97 79.99 C 19.48 77.29 23.07 78.30 25.19 76.36 Z" />
<path fill="#a42f9b" opacity="1.00" d=" M 68.97 79.97 C 70.60 78.14 72.61 76.46 75.03 75.86 C 74.39 76.93 73.66 77.95 72.93 78.96 C 71.62 79.33 70.30 79.66 68.97 79.97 Z" />
<path fill="#395d79" opacity="1.00" d=" M 32.15 77.08 C 34.80 76.94 37.45 76.93 40.10 77.05 C 39.30 79.19 36.07 82.26 37.74 84.15 C 39.86 85.54 42.29 86.31 44.63 87.24 C 45.62 88.99 47.53 89.79 49.13 90.86 C 45.77 91.85 42.48 93.07 39.09 93.96 C 39.32 93.18 39.35 92.38 39.18 91.58 C 40.74 90.50 42.76 90.21 44.20 88.95 C 41.79 88.85 39.52 89.63 37.26 90.33 C 35.48 90.24 31.91 90.04 30.12 89.95 C 28.61 88.24 26.79 86.58 26.84 84.10 C 27.38 83.02 27.90 81.93 28.39 80.83 L 29.15 81.13 C 29.18 81.65 29.24 82.68 29.27 83.19 C 30.46 81.26 31.04 79.05 32.15 77.08 Z" />
<path fill="#4f192e" opacity="1.00" d=" M 40.10 77.05 L 41.06 77.04 L 41.96 77.06 C 40.50 78.78 42.26 79.45 43.71 80.11 C 46.03 81.27 48.55 81.67 51.28 81.30 C 49.25 83.53 46.11 83.90 43.48 85.08 C 41.58 84.67 39.68 84.30 37.74 84.15 C 36.07 82.26 39.30 79.19 40.10 77.05 Z" />
<path fill="#bbb4c2" opacity="1.00" d=" M 103.77 80.68 C 103.93 79.47 102.55 77.68 103.81 76.88 C 104.91 78.33 106.39 79.78 106.00 81.79 C 104.74 82.01 103.47 82.22 102.21 82.41 C 101.60 82.28 100.37 82.03 99.76 81.90 C 101.08 81.44 102.43 81.10 103.77 80.68 Z" />
<path fill="#010201" opacity="0.33" d=" M 0.00 77.90 C 2.09 78.15 4.94 77.35 5.90 79.81 C 3.99 82.05 2.22 84.42 0.00 86.38 L 0.00 77.90 Z" />
<path fill="#325054" opacity="1.00" d=" M 11.09 78.06 C 11.61 78.09 12.64 78.15 13.16 78.18 C 12.39 79.07 11.62 79.97 10.85 80.87 C 9.84 81.19 8.84 81.51 7.84 81.85 L 7.62 81.09 C 8.72 80.02 9.91 79.04 11.09 78.06 Z" />
<path fill="#38596c" opacity="1.00" d=" M 72.93 78.96 C 73.96 78.68 74.98 78.35 75.99 77.97 C 79.92 77.58 83.39 79.67 86.95 80.99 C 87.62 81.70 88.30 82.40 89.01 83.08 C 89.58 85.56 88.21 84.63 86.86 83.66 C 82.12 82.74 77.31 82.64 72.42 83.36 C 71.15 84.79 67.33 85.56 68.94 87.93 L 68.14 87.76 C 66.14 86.74 64.27 88.04 62.32 88.43 C 60.42 87.18 58.20 86.81 55.96 86.76 C 59.04 85.06 63.97 86.31 66.08 82.96 C 67.06 81.98 68.05 81.01 68.97 79.97 C 70.30 79.66 71.62 79.33 72.93 78.96 Z" />
<path fill="#94ceb4" opacity="1.00" d=" M 20.96 79.47 C 22.22 79.18 23.52 79.00 24.82 78.97 C 24.97 80.37 25.11 81.76 25.23 83.16 C 26.33 82.42 26.78 79.63 28.39 80.83 C 27.90 81.93 27.38 83.02 26.84 84.10 C 24.14 84.60 21.60 85.64 18.96 86.39 L 18.70 85.37 C 19.19 83.48 22.47 81.17 20.96 79.47 Z" />
<path fill="#0a0c08" opacity="1.00" d=" M 0.00 86.38 C 2.22 84.42 3.99 82.05 5.90 79.81 C 6.33 80.13 7.19 80.77 7.62 81.09 L 7.84 81.85 C 5.42 84.12 2.86 86.31 0.92 89.03 C 0.69 89.34 0.23 89.95 0.00 90.26 L 0.00 86.38 Z" />
<path fill="#8e9c81" opacity="1.00" d=" M 13.03 80.95 C 14.68 80.62 16.32 80.27 17.97 79.99 C 16.71 80.96 15.39 81.87 14.08 82.78 C 13.60 82.89 12.63 83.10 12.14 83.20 C 12.37 82.64 12.81 81.52 13.03 80.95 Z" />
<path fill="#c1f2c7" opacity="1.00" d=" M 17.97 79.99 L 18.99 79.85 C 18.86 81.69 17.97 83.57 18.70 85.37 L 18.96 86.39 C 17.30 85.23 16.06 83.46 14.08 82.78 C 15.39 81.87 16.71 80.96 17.97 79.99 Z" />
<path fill="#e9f0ec" opacity="1.00" d=" M 18.99 79.85 C 19.48 79.76 20.46 79.56 20.96 79.47 C 22.47 81.17 19.19 83.48 18.70 85.37 C 17.97 83.57 18.86 81.69 18.99 79.85 Z" />
<path fill="#aa309f" opacity="1.00" d=" M 57.76 84.78 C 60.96 82.18 65.12 81.21 68.97 79.97 C 68.05 81.01 67.06 81.98 66.08 82.96 C 63.27 83.39 60.58 84.40 57.76 84.78 Z" />
<path fill="#9bbc6d" opacity="1.00" d=" M 7.84 81.85 C 8.84 81.51 9.84 81.19 10.85 80.87 C 11.40 80.89 12.49 80.93 13.03 80.95 C 12.81 81.52 12.37 82.64 12.14 83.20 C 8.37 84.64 5.26 91.38 0.92 89.03 C 2.86 86.31 5.42 84.12 7.84 81.85 Z" />
<path fill="#c5dcc4" opacity="1.00" d=" M 86.95 80.99 C 88.94 81.60 90.86 82.40 92.77 83.21 C 93.06 83.41 93.62 83.82 93.91 84.03 C 94.51 84.79 95.12 85.54 95.73 86.29 C 96.22 87.22 96.72 88.14 97.24 89.05 C 96.75 88.96 95.75 88.78 95.26 88.69 C 94.14 85.94 91.72 84.10 89.01 83.08 C 88.30 82.40 87.62 81.70 86.95 80.99 Z" />
<path fill="#d7eb96" opacity="1.00" d=" M 12.14 83.20 C 12.63 83.10 13.60 82.89 14.08 82.78 C 12.01 86.67 5.61 87.70 5.10 92.28 C 3.42 93.26 1.69 94.17 0.00 95.13 L 0.00 90.26 C 0.23 89.95 0.69 89.34 0.92 89.03 C 5.26 91.38 8.37 84.64 12.14 83.20 Z" />
<path fill="#9bd798" opacity="1.00" d=" M 14.08 82.78 C 16.06 83.46 17.30 85.23 18.96 86.39 C 16.85 86.84 14.79 87.43 12.77 88.18 C 11.20 88.69 9.88 89.69 8.84 90.95 C 7.62 91.46 6.36 91.88 5.10 92.28 C 5.61 87.70 12.01 86.67 14.08 82.78 Z" />
<path fill="#1f1924" opacity="1.00" d=" M 57.76 84.78 C 60.58 84.40 63.27 83.39 66.08 82.96 C 63.97 86.31 59.04 85.06 55.96 86.76 C 52.51 86.92 49.07 87.01 45.63 87.27 L 44.63 87.24 C 42.29 86.31 39.86 85.54 37.74 84.15 C 39.68 84.30 41.58 84.67 43.48 85.08 C 47.97 87.29 53.04 85.07 57.76 84.78 Z" />
<path fill="#518384" opacity="1.00" d=" M 72.42 83.36 C 77.31 82.64 82.12 82.74 86.86 83.66 C 86.23 86.17 85.34 88.90 88.14 89.99 C 86.40 89.91 82.93 89.75 81.19 89.67 C 77.67 89.26 74.13 89.05 70.67 88.31 C 70.24 88.21 69.37 88.02 68.94 87.93 C 67.33 85.56 71.15 84.79 72.42 83.36 Z" />
<path fill="#74ab7f" opacity="1.00" d=" M 89.01 83.08 C 91.72 84.10 94.14 85.94 95.26 88.69 C 94.18 88.95 93.11 89.24 92.05 89.56 C 91.30 89.69 89.81 89.93 89.06 90.06 L 88.14 89.99 C 85.34 88.90 86.23 86.17 86.86 83.66 C 88.21 84.63 89.58 85.56 89.01 83.08 Z" />
<path fill="#517f84" opacity="1.00" d=" M 18.96 86.39 C 21.60 85.64 24.14 84.60 26.84 84.10 C 26.79 86.58 28.61 88.24 30.12 89.95 C 26.42 89.95 22.72 90.01 19.01 90.03 C 18.56 89.94 17.64 89.76 17.18 89.67 C 15.71 89.18 14.22 88.72 12.77 88.18 C 14.79 87.43 16.85 86.84 18.96 86.39 Z" />
<path fill="#578065" opacity="1.00" d=" M 93.91 84.03 C 95.71 84.09 97.55 84.08 99.30 84.59 C 98.92 84.87 98.16 85.43 97.79 85.71 C 97.27 85.85 96.25 86.15 95.73 86.29 C 95.12 85.54 94.51 84.79 93.91 84.03 Z" />
<path fill="#97be7f" opacity="1.00" d=" M 97.79 85.71 C 98.16 85.43 98.92 84.87 99.30 84.59 C 103.22 85.60 107.27 86.33 111.00 87.96 L 111.00 88.96 C 108.40 89.50 105.75 89.81 103.12 90.19 C 101.64 90.00 100.17 89.77 98.70 89.49 C 99.53 89.33 101.18 89.01 102.01 88.85 C 102.56 86.29 99.64 85.84 97.79 85.71 Z" />
<path fill="#1b261e" opacity="1.00" d=" M 95.73 86.29 C 96.25 86.15 97.27 85.85 97.79 85.71 C 99.64 85.84 102.56 86.29 102.01 88.85 C 101.18 89.01 99.53 89.33 98.70 89.49 L 97.90 89.40 L 97.24 89.05 C 96.72 88.14 96.22 87.22 95.73 86.29 Z" />
<path fill="#20333f" opacity="1.00" d=" M 44.63 87.24 L 45.63 87.27 C 48.37 88.81 51.29 89.96 54.29 90.87 C 52.56 90.86 50.84 90.88 49.13 90.86 C 47.53 89.79 45.62 88.99 44.63 87.24 Z" />
<path fill="#426d7d" opacity="1.00" d=" M 45.63 87.27 C 49.07 87.01 52.51 86.92 55.96 86.76 C 55.80 88.19 55.55 89.61 55.18 91.00 L 54.29 90.87 C 51.29 89.96 48.37 88.81 45.63 87.27 Z" />
<path fill="#558d8f" opacity="1.00" d=" M 55.96 86.76 C 58.20 86.81 60.42 87.18 62.32 88.43 C 64.27 88.04 66.14 86.74 68.14 87.76 C 68.51 88.81 68.80 89.88 69.01 90.97 C 64.93 91.04 60.85 91.13 56.78 91.25 C 56.38 91.18 55.58 91.06 55.18 91.00 C 55.55 89.61 55.80 88.19 55.96 86.76 Z" />
<path fill="#71a175" opacity="1.00" d=" M 8.84 90.95 C 9.88 89.69 11.20 88.69 12.77 88.18 C 14.22 88.72 15.71 89.18 17.18 89.67 C 15.73 89.93 14.16 90.01 12.96 90.97 C 11.59 90.97 10.21 90.97 8.84 90.95 Z" />
<path fill="#060909" opacity="0.96" d=" M 68.14 87.76 L 68.94 87.93 C 69.37 88.02 70.24 88.21 70.67 88.31 C 71.47 91.98 75.84 93.58 79.26 92.77 C 83.98 93.17 88.80 93.40 93.38 94.71 C 89.18 94.91 84.97 95.11 80.77 95.29 C 75.52 95.04 70.22 93.48 64.98 94.56 C 59.58 94.43 54.07 92.71 48.70 94.08 C 47.08 93.96 45.71 94.55 44.76 95.88 C 42.99 95.97 39.44 96.16 37.66 96.26 C 35.56 95.89 38.67 94.61 39.09 93.96 C 42.48 93.07 45.77 91.85 49.13 90.86 C 50.84 90.88 52.56 90.86 54.29 90.87 L 55.18 91.00 C 55.58 91.06 56.38 91.18 56.78 91.25 C 59.98 91.03 67.60 94.06 69.01 90.97 C 68.80 89.88 68.51 88.81 68.14 87.76 Z" />
<path fill="#3c605b" opacity="1.00" d=" M 70.67 88.31 C 74.13 89.05 77.67 89.26 81.19 89.67 C 79.68 89.92 78.16 90.12 76.72 90.67 C 72.85 91.78 77.62 92.24 79.26 92.77 C 75.84 93.58 71.47 91.98 70.67 88.31 Z" />
<path fill="#060706" opacity="0.93" d=" M 37.26 90.33 C 39.52 89.63 41.79 88.85 44.20 88.95 C 42.76 90.21 40.74 90.50 39.18 91.58 C 36.63 93.15 34.28 95.01 32.17 97.13 C 32.02 99.48 35.23 98.86 36.78 98.86 C 38.19 98.89 39.61 98.94 41.02 98.99 L 40.97 99.96 C 37.71 100.20 34.48 100.85 31.20 100.92 C 28.13 98.44 31.20 95.03 33.13 92.97 C 26.68 93.17 18.78 92.77 13.21 96.44 C 14.89 97.93 15.42 100.22 16.75 101.97 C 15.58 102.34 14.39 102.69 13.19 102.97 C 12.88 102.75 12.26 102.30 11.95 102.08 L 12.21 101.41 C 15.01 97.43 9.64 97.13 6.88 96.68 C 7.60 96.05 8.34 95.45 9.12 94.90 C 12.55 93.94 15.85 92.56 19.04 90.99 C 25.06 90.52 31.38 92.01 37.26 90.33 Z" />
<path fill="#3a5549" opacity="1.00" d=" M 92.05 89.56 C 93.11 89.24 94.18 88.95 95.26 88.69 C 95.75 88.78 96.75 88.96 97.24 89.05 L 97.90 89.40 C 96.95 89.96 96.00 90.54 95.03 91.07 C 94.12 90.42 93.12 89.92 92.05 89.56 Z" />
<path fill="#5e835b" opacity="1.00" d=" M 97.90 89.40 L 98.70 89.49 C 100.17 89.77 101.64 90.00 103.12 90.19 C 102.38 90.70 101.66 91.23 100.95 91.77 C 103.41 92.43 106.04 92.67 108.34 93.82 C 104.02 93.08 98.46 94.57 95.03 91.07 C 96.00 90.54 96.95 89.96 97.90 89.40 Z" />
<path fill="#0f120d" opacity="0.98" d=" M 103.12 90.19 C 105.75 89.81 108.40 89.50 111.00 88.96 L 111.00 96.12 C 107.72 95.77 104.47 95.34 101.25 94.63 C 98.97 93.90 96.67 95.06 94.35 94.75 C 93.33 92.65 90.89 92.04 89.01 90.96 L 89.06 90.06 C 89.81 89.93 91.30 89.69 92.05 89.56 C 93.12 89.92 94.12 90.42 95.03 91.07 C 98.46 94.57 104.02 93.08 108.34 93.82 C 106.04 92.67 103.41 92.43 100.95 91.77 C 101.66 91.23 102.38 90.70 103.12 90.19 Z" />
<path fill="#385859" opacity="1.00" d=" M 12.96 90.97 C 14.16 90.01 15.73 89.93 17.18 89.67 C 17.64 89.76 18.56 89.94 19.01 90.03 L 19.04 90.99 C 15.85 92.56 12.55 93.94 9.12 94.90 C 8.81 94.63 8.20 94.11 7.89 93.84 C 9.62 92.96 11.42 92.19 12.96 90.97 Z" />
<path fill="#152025" opacity="1.00" d=" M 19.01 90.03 C 22.72 90.01 26.42 89.95 30.12 89.95 C 31.91 90.04 35.48 90.24 37.26 90.33 C 31.38 92.01 25.06 90.52 19.04 90.99 L 19.01 90.03 Z" />
<path fill="#2f483e" opacity="1.00" d=" M 76.72 90.67 C 78.16 90.12 79.68 89.92 81.19 89.67 C 82.93 89.75 86.40 89.91 88.14 89.99 L 89.06 90.06 L 89.01 90.96 C 84.91 90.91 80.82 90.81 76.72 90.67 Z" />
<path fill="#0f140f" opacity="0.82" d=" M 5.10 92.28 C 6.36 91.88 7.62 91.46 8.84 90.95 C 10.21 90.97 11.59 90.97 12.96 90.97 C 11.42 92.19 9.62 92.96 7.89 93.84 C 6.11 95.07 2.11 96.26 3.86 99.00 C 3.90 99.49 3.97 100.46 4.01 100.95 C 3.53 101.20 2.56 101.71 2.08 101.96 C 2.30 103.64 5.01 103.06 6.25 103.85 C 4.16 103.91 2.08 103.98 0.00 104.03 L 0.00 95.13 C 1.69 94.17 3.42 93.26 5.10 92.28 Z" />
<path fill="#2a4242" opacity="1.00" d=" M 56.78 91.25 C 60.85 91.13 64.93 91.04 69.01 90.97 C 67.60 94.06 59.98 91.03 56.78 91.25 Z" />
<path fill="#76a88f" opacity="1.00" d=" M 79.26 92.77 C 77.62 92.24 72.85 91.78 76.72 90.67 C 80.82 90.81 84.91 90.91 89.01 90.96 C 90.89 92.04 93.33 92.65 94.35 94.75 L 93.38 94.71 C 88.80 93.40 83.98 93.17 79.26 92.77 Z" />
<path fill="#a5cd93" opacity="1.00" d=" M 32.17 97.13 C 34.28 95.01 36.63 93.15 39.18 91.58 C 39.35 92.38 39.32 93.18 39.09 93.96 C 38.67 94.61 35.56 95.89 37.66 96.26 C 39.31 97.16 41.22 96.95 43.02 97.06 L 42.95 97.99 C 41.41 98.20 38.32 98.64 36.78 98.86 C 35.23 98.86 32.02 99.48 32.17 97.13 Z" />
<path fill="#97bc69" opacity="1.00" d=" M 3.86 99.00 C 2.11 96.26 6.11 95.07 7.89 93.84 C 8.20 94.11 8.81 94.63 9.12 94.90 C 8.34 95.45 7.60 96.05 6.88 96.68 C 9.64 97.13 15.01 97.43 12.21 101.41 C 11.11 100.70 10.09 99.89 9.01 99.15 C 7.30 98.97 5.58 99.00 3.86 99.00 Z" />
<path fill="#000000" opacity="0.39" d=" M 44.76 95.88 C 45.71 94.55 47.08 93.96 48.70 94.08 C 51.36 95.33 54.36 95.32 57.21 95.81 C 53.06 95.87 48.91 95.89 44.76 95.88 Z" />
<path fill="#000000" opacity="0.58" d=" M 94.35 94.75 C 96.67 95.06 98.97 93.90 101.25 94.63 C 94.85 97.54 87.48 95.74 80.77 95.29 C 84.97 95.11 89.18 94.91 93.38 94.71 L 94.35 94.75 Z" />
<path fill="#1b251e" opacity="1.00" d=" M 37.66 96.26 C 39.44 96.16 42.99 95.97 44.76 95.88 C 48.91 95.89 53.06 95.87 57.21 95.81 L 58.10 95.89 L 57.99 96.90 C 53.00 96.97 48.01 96.97 43.02 97.06 C 41.22 96.95 39.31 97.16 37.66 96.26 Z" />
<path fill="#0a0e0b" opacity="0.80" d=" M 58.10 95.89 C 64.20 95.98 70.28 96.60 76.27 97.74 L 75.27 97.84 C 69.47 98.43 63.75 97.28 57.99 96.90 L 58.10 95.89 Z" />
<path fill="#669369" opacity="1.00" d=" M 43.02 97.06 C 48.01 96.97 53.00 96.97 57.99 96.90 C 63.75 97.28 69.47 98.43 75.27 97.84 L 74.88 98.71 C 74.37 98.95 73.36 99.44 72.85 99.68 C 72.15 99.74 70.74 99.85 70.04 99.90 C 67.11 99.38 64.17 99.06 61.23 98.72 C 55.18 97.76 49.05 97.97 42.95 97.99 L 43.02 97.06 Z" />
<path fill="#223024" opacity="1.00" d=" M 36.78 98.86 C 38.32 98.64 41.41 98.20 42.95 97.99 C 49.05 97.97 55.18 97.76 61.23 98.72 C 54.49 98.98 47.76 99.05 41.02 98.99 C 39.61 98.94 38.19 98.89 36.78 98.86 Z" />
<path fill="#0d110c" opacity="0.91" d=" M 75.27 97.84 L 76.27 97.74 C 78.14 97.81 79.66 98.80 80.87 100.16 C 80.28 103.41 77.15 104.80 74.26 105.45 C 72.40 105.15 70.53 104.82 68.73 104.27 C 70.94 103.46 72.97 102.52 70.20 100.82 L 70.04 99.90 C 70.74 99.85 72.15 99.74 72.85 99.68 C 74.71 99.98 76.32 101.13 75.37 103.12 C 77.09 103.18 79.66 102.42 78.94 100.19 C 77.90 99.01 76.30 99.00 74.88 98.71 L 75.27 97.84 Z" />
<path fill="#0a0c08" opacity="1.00" d=" M 3.86 99.00 C 5.58 99.00 7.30 98.97 9.01 99.15 C 9.52 102.16 5.77 100.58 4.01 100.95 C 3.97 100.46 3.90 99.49 3.86 99.00 Z" />
<path fill="#333c22" opacity="1.00" d=" M 9.01 99.15 C 10.09 99.89 11.11 100.70 12.21 101.41 L 11.95 102.08 C 8.66 102.02 5.37 102.01 2.08 101.96 C 2.56 101.71 3.53 101.20 4.01 100.95 C 5.77 100.58 9.52 102.16 9.01 99.15 Z" />
<path fill="#030403" opacity="0.55" d=" M 41.02 98.99 C 47.76 99.05 54.49 98.98 61.23 98.72 C 64.17 99.06 67.11 99.38 70.04 99.90 L 70.20 100.82 C 60.49 99.82 50.72 99.90 40.97 99.96 L 41.02 98.99 Z" />
<path fill="#80b67c" opacity="1.00" d=" M 72.85 99.68 C 73.36 99.44 74.37 98.95 74.88 98.71 C 76.30 99.00 77.90 99.01 78.94 100.19 C 79.66 102.42 77.09 103.18 75.37 103.12 C 76.32 101.13 74.71 99.98 72.85 99.68 Z" />
<path fill="#5f723c" opacity="0.96" d=" M 2.08 101.96 C 5.37 102.01 8.66 102.02 11.95 102.08 C 12.26 102.30 12.88 102.75 13.19 102.97 C 10.94 103.65 8.61 104.09 6.25 103.85 C 5.01 103.06 2.30 103.64 2.08 101.96 Z" />
<path fill="#000000" opacity="0.67" d=" M 65.69 105.82 C 66.67 105.24 67.69 104.73 68.73 104.27 C 70.53 104.82 72.40 105.15 74.26 105.45 C 71.53 106.45 68.46 105.76 65.69 105.82 Z" />
</svg>
