<?xml version="1.0" encoding="UTF-8" ?>
<!DOCTYPE svg PUBLIC "-//W3C//DTD SVG 1.1//EN" "http://www.w3.org/Graphics/SVG/1.1/DTD/svg11.dtd">
<svg width="111pt" height="111pt" viewBox="0 0 111 111" version="1.1" xmlns="http://www.w3.org/2000/svg">
<path fill="#000000" opacity="1.00" d=" M 33.78 0.00 L 37.25 0.00 C 35.07 3.94 32.25 7.66 31.00 12.02 C 30.73 16.07 30.70 20.14 29.85 24.13 L 30.18 25.82 C 30.25 26.19 30.40 26.94 30.47 27.32 L 29.48 27.51 C 28.90 29.07 28.51 30.69 28.77 32.37 C 33.32 29.54 37.20 25.78 41.69 22.84 C 43.50 21.58 45.32 20.34 47.24 19.25 L 46.72 20.04 C 45.63 20.96 44.53 21.86 43.46 22.80 C 43.36 22.86 43.18 23.00 43.08 23.06 C 37.91 26.00 33.89 30.81 28.37 33.04 C 26.61 30.85 25.09 28.48 23.80 25.98 C 23.15 28.02 22.54 30.06 22.09 32.15 C 22.01 32.91 21.83 34.44 21.75 35.20 L 22.48 36.61 C 19.57 36.85 19.57 33.10 17.48 31.90 C 17.00 35.93 17.48 39.96 17.66 43.99 C 17.85 47.73 17.20 51.48 17.73 55.20 C 18.02 59.73 20.40 63.92 24.69 65.75 C 24.20 65.80 23.21 65.90 22.72 65.96 C 25.74 68.70 29.87 69.79 33.56 71.39 C 34.54 71.75 35.53 72.13 36.51 72.50 C 36.26 73.57 36.00 74.63 35.80 75.71 C 35.97 76.05 36.30 76.72 36.46 77.06 C 36.71 77.58 37.20 78.60 37.44 79.11 C 36.73 81.93 35.78 84.69 35.14 87.53 C 34.66 87.54 33.70 87.57 33.22 87.58 L 32.60 88.22 C 32.17 88.72 31.30 89.73 30.86 90.23 L 30.70 90.62 C 31.16 93.02 31.64 95.42 31.91 97.86 C 31.29 98.03 30.05 98.39 29.43 98.57 C 28.16 100.46 27.92 102.67 28.40 104.87 C 28.99 104.63 29.57 104.38 30.15 104.14 C 30.48 105.60 30.85 107.06 31.22 108.52 C 30.55 109.35 29.86 110.18 29.17 111.00 L 28.36 111.00 L 29.47 110.32 C 29.11 107.82 27.06 106.31 25.30 104.78 C 23.84 103.61 22.31 102.52 20.78 101.45 C 19.94 104.60 19.39 107.82 18.69 111.00 L 16.35 111.00 C 16.69 107.08 16.26 102.74 18.11 99.19 C 20.65 99.00 22.86 100.50 25.10 101.46 C 25.72 99.37 26.95 97.61 28.70 96.30 C 28.05 93.52 26.78 90.69 27.58 87.81 C 28.67 87.69 29.77 87.56 30.86 87.43 C 31.84 86.29 32.83 85.15 33.81 84.01 C 32.74 82.96 31.45 82.20 30.01 81.78 C 21.99 79.09 14.06 74.91 8.85 68.05 C 5.84 63.96 2.28 60.23 0.00 55.64 L 0.00 49.25 C 0.77 50.90 1.58 52.52 2.36 54.17 C 4.82 59.60 8.30 65.12 14.36 66.90 C 15.55 64.52 16.63 62.07 17.37 59.51 L 16.88 59.02 C 13.24 56.15 11.09 51.90 7.58 48.93 C 7.56 48.36 7.53 47.23 7.52 46.67 C 4.63 46.45 2.40 44.42 0.00 43.03 L 0.00 40.18 C 5.02 42.26 10.02 44.42 14.78 47.04 C 14.49 39.95 13.65 32.67 15.53 25.71 C 16.90 27.20 18.19 28.76 19.61 30.21 C 20.72 26.93 21.12 23.09 23.98 20.75 C 24.98 22.08 26.00 23.41 27.03 24.72 C 29.00 20.36 28.76 15.64 28.26 11.00 C 27.57 6.47 31.43 3.34 33.78 0.00 M 9.37 47.23 C 10.51 51.48 14.72 54.17 16.83 58.00 C 16.49 55.73 16.11 53.47 15.67 51.22 C 13.57 49.89 11.49 48.53 9.37 47.23 M 15.91 65.77 C 17.27 65.58 19.50 63.62 18.75 62.10 C 16.89 61.22 15.62 64.33 15.91 65.77 M 15.90 68.07 C 19.16 70.20 22.84 71.87 26.65 72.69 C 25.83 69.14 21.39 67.79 21.40 64.01 C 19.37 65.07 17.60 66.54 15.90 68.07 M 14.67 68.48 L 14.79 70.04 C 19.82 74.49 25.93 77.75 32.22 79.99 C 30.74 77.72 29.07 75.43 26.78 73.91 C 22.64 72.34 18.67 70.38 14.67 68.48 M 26.07 69.97 C 27.35 73.38 29.99 76.20 32.74 78.54 C 32.44 76.37 32.28 74.18 32.31 72.00 C 30.24 71.27 28.17 70.56 26.07 69.97 M 33.32 73.32 C 32.61 74.23 32.59 76.12 33.56 76.80 C 33.97 77.54 34.80 79.02 35.21 79.76 C 34.56 79.69 33.27 79.55 32.62 79.48 L 32.87 80.89 C 34.17 80.74 35.46 80.60 36.76 80.48 C 36.32 78.84 35.68 77.27 34.99 75.73 C 36.25 74.62 34.81 72.21 33.32 73.32 Z" />
<path fill="#b13c67" opacity="1.00" d=" M 37.25 0.00 L 38.40 0.00 C 38.48 2.63 38.55 5.27 38.97 7.87 C 38.83 8.27 38.57 9.05 38.43 9.44 C 37.85 11.08 37.35 12.74 36.73 14.36 C 33.29 17.41 32.82 22.23 30.18 25.82 L 29.85 24.13 C 30.70 20.14 30.73 16.07 31.00 12.02 C 32.25 7.66 35.07 3.94 37.25 0.00 Z" />
<path fill="#000000" opacity="1.00" d=" M 38.40 0.00 L 42.15 0.00 C 42.19 1.59 42.23 3.17 42.27 4.76 C 43.46 4.38 44.55 3.15 45.87 3.62 C 46.92 4.41 47.87 5.31 48.84 6.20 C 52.29 3.89 55.85 1.74 59.61 0.00 L 65.13 0.00 C 62.81 1.40 60.38 2.59 57.97 3.82 C 54.47 5.40 51.38 7.69 48.27 9.91 C 47.97 9.66 47.39 9.16 47.10 8.92 C 46.17 8.27 45.41 7.14 44.18 7.09 C 42.68 7.86 41.32 8.87 39.93 9.80 L 38.97 7.87 C 38.55 5.27 38.48 2.63 38.40 0.00 Z" />
<path fill="#d85985" opacity="1.00" d=" M 65.13 0.00 L 68.33 0.00 C 68.32 0.47 68.29 1.40 68.28 1.86 C 69.67 1.77 71.11 1.32 72.49 1.64 C 73.68 2.56 74.63 3.75 75.64 4.86 C 74.67 7.37 74.20 10.03 75.94 12.33 C 75.53 13.12 75.13 13.92 74.75 14.73 C 74.55 15.22 74.16 16.20 73.96 16.68 C 72.65 17.65 71.29 18.54 69.93 19.43 C 70.11 18.85 70.47 17.69 70.66 17.11 C 69.40 20.57 67.10 23.47 65.15 26.55 C 64.78 26.07 64.03 25.10 63.66 24.62 C 63.66 23.68 63.66 22.74 63.66 21.81 C 65.91 19.04 67.89 16.05 69.78 13.02 C 67.28 13.48 65.47 15.30 63.74 17.00 C 65.46 13.32 67.48 9.76 68.85 5.92 C 67.37 6.91 66.01 8.07 64.87 9.44 C 62.87 7.42 63.46 4.71 63.98 2.22 C 62.05 3.00 60.04 3.58 57.97 3.82 C 60.38 2.59 62.81 1.40 65.13 0.00 Z" />
<path fill="#a72a6f" opacity="1.00" d=" M 68.33 0.00 L 78.60 0.00 C 79.15 1.73 79.62 3.49 80.10 5.24 C 79.80 5.72 79.18 6.66 78.87 7.14 C 77.84 8.84 76.89 10.59 75.94 12.33 C 74.20 10.03 74.67 7.37 75.64 4.86 C 74.63 3.75 73.68 2.56 72.49 1.64 C 71.11 1.32 69.67 1.77 68.28 1.86 C 68.29 1.40 68.32 0.47 68.33 0.00 Z" />
<path fill="#892257" opacity="1.00" d=" M 78.60 0.00 L 85.46 0.00 C 83.51 1.57 81.73 3.34 80.10 5.24 C 79.62 3.49 79.15 1.73 78.60 0.00 Z" />
<path fill="#000000" opacity="1.00" d=" M 85.46 0.00 L 88.76 0.00 C 86.30 3.03 83.34 5.63 81.20 8.91 C 81.69 9.38 82.67 10.30 83.15 10.76 C 84.09 10.72 85.97 10.65 86.91 10.62 C 85.27 12.67 83.64 14.72 82.08 16.83 C 82.92 18.69 85.56 20.69 83.90 22.84 C 81.91 26.11 79.44 29.05 77.23 32.16 C 77.87 33.09 78.50 34.02 79.14 34.94 C 78.84 35.46 78.24 36.50 77.94 37.02 C 78.52 38.00 79.11 38.98 79.70 39.96 C 79.29 40.50 78.49 41.56 78.08 42.10 C 81.65 45.52 84.74 49.41 87.40 53.57 C 90.62 55.74 94.25 57.22 97.86 58.62 C 102.22 55.94 106.59 53.29 111.00 50.68 L 111.00 55.01 L 110.82 53.97 C 105.20 57.22 99.59 60.49 94.35 64.34 C 91.01 66.56 87.41 68.42 84.39 71.11 L 82.95 71.01 C 83.26 70.58 83.90 69.73 84.21 69.30 C 84.74 69.19 85.79 68.97 86.32 68.85 C 87.20 67.87 88.10 66.90 89.00 65.93 C 88.64 65.00 88.27 64.06 87.91 63.12 C 89.72 61.70 91.56 60.34 93.45 59.04 C 89.21 57.81 85.05 56.23 81.22 54.02 L 80.60 53.65 L 79.94 53.28 C 80.63 52.49 81.32 51.69 82.01 50.90 C 79.12 48.34 76.46 45.52 73.77 42.76 C 74.49 41.55 75.62 40.49 75.88 39.07 C 75.29 38.30 74.64 37.57 73.95 36.89 L 73.21 36.26 C 73.66 35.74 74.10 35.20 74.53 34.66 C 75.14 29.81 79.14 26.34 80.82 21.87 C 80.73 20.43 79.78 19.24 79.21 17.97 C 80.11 16.60 81.03 15.24 82.06 13.96 C 81.13 14.10 79.29 14.39 78.36 14.54 C 79.95 12.25 79.32 9.64 78.87 7.14 C 79.18 6.66 79.80 5.72 80.10 5.24 C 81.73 3.34 83.51 1.57 85.46 0.00 Z" />
<path fill="#e58994" opacity="1.00" d=" M 57.97 3.82 C 60.04 3.58 62.05 3.00 63.98 2.22 C 63.46 4.71 62.87 7.42 64.87 9.44 C 63.96 10.58 63.06 11.73 62.22 12.92 C 62.33 12.29 62.53 11.03 62.63 10.40 C 61.32 11.18 60.02 11.95 58.76 12.80 C 59.38 11.45 59.92 10.06 60.47 8.68 C 59.82 9.07 58.51 9.83 57.86 10.21 C 56.90 9.12 55.94 8.02 54.98 6.93 C 56.09 6.01 57.06 4.93 57.97 3.82 Z" />
<path fill="#ca53ab" opacity="1.00" d=" M 48.27 9.91 C 51.38 7.69 54.47 5.40 57.97 3.82 C 57.06 4.93 56.09 6.01 54.98 6.93 C 53.02 8.44 51.11 10.00 49.36 11.75 C 48.44 12.61 47.50 13.44 46.54 14.26 C 46.06 13.37 45.59 12.48 45.13 11.59 L 44.72 10.74 C 45.52 10.14 46.31 9.54 47.10 8.92 C 47.39 9.16 47.97 9.66 48.27 9.91 Z" />
<path fill="#fffff3" opacity="1.00" d=" M 64.87 9.44 C 66.01 8.07 67.37 6.91 68.85 5.92 C 67.48 9.76 65.46 13.32 63.74 17.00 C 62.62 19.02 62.25 21.31 61.96 23.56 C 61.29 24.50 60.62 25.44 59.94 26.37 C 60.19 21.81 61.17 17.35 62.22 12.92 C 63.06 11.73 63.96 10.58 64.87 9.44 Z" />
<path fill="#cd4c85" opacity="1.00" d=" M 39.93 9.80 C 41.32 8.87 42.68 7.86 44.18 7.09 C 45.41 7.14 46.17 8.27 47.10 8.92 C 46.31 9.54 45.52 10.14 44.72 10.74 C 43.19 11.47 41.62 12.09 40.05 12.74 C 40.03 11.76 39.99 10.78 39.93 9.80 Z" />
<path fill="#eaa6a3" opacity="1.00" d=" M 49.36 11.75 C 51.11 10.00 53.02 8.44 54.98 6.93 C 55.94 8.02 56.90 9.12 57.86 10.21 C 55.70 11.74 53.50 13.22 51.08 14.32 C 50.65 13.68 49.79 12.39 49.36 11.75 Z" />
<path fill="#91255a" opacity="1.00" d=" M 75.94 12.33 C 76.89 10.59 77.84 8.84 78.87 7.14 C 79.32 9.64 79.95 12.25 78.36 14.54 C 79.29 14.39 81.13 14.10 82.06 13.96 C 81.03 15.24 80.11 16.60 79.21 17.97 C 78.40 18.92 77.58 19.85 76.74 20.77 C 76.06 18.76 75.40 16.75 74.75 14.73 C 75.13 13.92 75.53 13.12 75.94 12.33 Z" />
<path fill="#e4929b" opacity="1.00" d=" M 38.43 9.44 C 38.57 9.05 38.83 8.27 38.97 7.87 L 39.93 9.80 C 39.99 10.78 40.03 11.76 40.05 12.74 C 41.62 12.09 43.19 11.47 44.72 10.74 L 45.13 11.59 C 43.18 13.68 41.03 15.57 38.89 17.47 C 38.79 14.79 38.69 12.11 38.43 9.44 Z" />
<path fill="#f2cbb5" opacity="1.00" d=" M 57.86 10.21 C 58.51 9.83 59.82 9.07 60.47 8.68 C 59.92 10.06 59.38 11.45 58.76 12.80 C 58.10 13.51 57.44 14.23 56.78 14.94 C 56.40 14.71 55.63 14.26 55.25 14.04 C 52.64 15.87 49.81 17.36 47.24 19.25 C 46.70 17.83 46.20 16.40 45.72 14.96 C 45.92 14.78 46.34 14.43 46.54 14.26 C 47.50 13.44 48.44 12.61 49.36 11.75 C 49.79 12.39 50.65 13.68 51.08 14.32 C 53.50 13.22 55.70 11.74 57.86 10.21 Z" />
<path fill="#ffffd7" opacity="1.00" d=" M 38.43 9.44 C 38.69 12.11 38.79 14.79 38.89 17.47 C 39.18 18.00 39.76 19.06 40.06 19.60 C 42.07 18.20 43.87 16.55 45.72 14.96 C 46.20 16.40 46.70 17.83 47.24 19.25 C 45.32 20.34 43.50 21.58 41.69 22.84 C 38.86 21.62 36.21 23.65 33.83 24.94 C 35.25 21.58 37.29 18.15 36.73 14.36 C 37.35 12.74 37.85 11.08 38.43 9.44 Z" />
<path fill="#1d191a" opacity="1.00" d=" M 58.76 12.80 C 60.02 11.95 61.32 11.18 62.63 10.40 C 62.53 11.03 62.33 12.29 62.22 12.92 C 61.17 17.35 60.19 21.81 59.94 26.37 C 59.71 28.79 59.67 31.23 59.71 33.66 C 59.68 34.10 59.63 34.98 59.60 35.41 C 59.58 35.92 59.52 36.94 59.50 37.45 L 59.44 37.24 C 59.24 35.05 59.21 32.85 59.04 30.65 C 57.76 32.27 57.76 34.42 57.03 36.27 C 55.80 38.30 54.10 39.98 52.75 41.91 C 53.15 43.19 53.59 44.45 54.03 45.71 C 53.24 47.20 50.99 48.77 52.85 50.37 C 53.96 48.59 54.89 46.71 55.80 44.81 C 55.96 46.20 55.62 47.56 55.36 48.92 C 56.94 48.77 58.53 48.63 60.11 48.52 C 58.84 50.88 55.81 50.15 53.62 50.70 C 53.84 50.93 54.29 51.40 54.52 51.63 L 55.43 52.61 C 60.01 54.32 64.84 55.60 69.74 55.76 C 70.08 55.92 70.75 56.23 71.08 56.39 C 72.75 57.02 75.62 59.17 76.26 56.29 L 76.70 56.57 C 77.51 57.19 78.30 57.86 79.08 58.53 C 77.71 58.65 76.34 58.74 74.97 58.81 C 73.13 58.64 71.30 58.36 69.50 57.95 C 66.27 57.11 63.01 56.40 59.77 55.59 C 58.61 57.17 57.40 58.71 56.14 60.21 C 57.57 61.14 59.00 62.08 60.41 63.03 C 59.99 63.83 59.14 65.42 58.72 66.21 C 59.21 66.61 60.17 67.39 60.65 67.78 C 59.81 68.82 58.97 69.85 58.13 70.88 C 60.95 72.27 63.83 73.66 66.12 75.87 C 67.95 77.79 70.70 78.18 73.07 79.10 C 76.17 76.19 79.36 73.31 82.95 71.01 L 84.39 71.11 C 82.51 72.88 80.61 74.64 78.68 76.36 C 78.55 76.46 78.31 76.68 78.19 76.79 C 78.08 76.89 77.87 77.08 77.77 77.18 C 76.56 78.26 75.32 79.43 74.95 81.07 C 76.83 80.38 78.44 79.18 79.97 77.93 C 84.53 74.25 89.71 71.45 94.49 68.08 C 95.99 67.18 97.45 66.22 98.91 65.25 C 99.42 64.93 100.43 64.28 100.93 63.96 C 102.57 63.34 104.13 62.52 105.39 61.28 C 106.13 60.80 106.89 60.35 107.67 59.93 C 108.89 59.56 110.00 58.99 111.00 58.23 L 111.00 60.61 C 104.17 63.93 97.66 67.96 91.47 72.34 C 93.58 71.96 95.65 71.40 97.68 70.72 C 102.00 69.20 106.67 69.11 111.00 67.60 L 111.00 68.50 C 108.84 69.38 106.65 70.17 104.39 70.73 C 100.24 71.57 96.29 73.31 92.03 73.60 C 86.74 73.73 82.52 77.31 78.83 80.70 C 79.66 80.88 81.34 81.25 82.18 81.43 C 82.31 81.72 82.57 82.30 82.70 82.59 C 81.33 82.57 79.96 82.56 78.60 82.54 C 80.47 86.58 79.92 90.91 77.93 94.78 C 79.33 97.11 80.75 99.43 81.96 101.87 C 83.05 104.77 84.07 107.91 83.14 111.00 L 81.79 111.00 C 82.27 107.66 81.74 104.29 80.05 101.35 L 80.00 101.23 C 78.98 99.18 77.77 97.24 76.52 95.33 C 75.45 95.61 74.37 95.89 73.31 96.20 C 69.20 97.65 64.69 99.12 61.80 102.57 C 63.02 103.20 64.25 103.83 65.45 104.50 C 67.34 105.58 69.26 106.64 71.10 107.82 C 72.21 108.84 73.27 109.92 74.33 111.00 L 72.47 111.00 C 70.66 109.48 68.88 107.93 66.86 106.70 C 65.04 105.58 63.15 104.59 61.25 103.62 C 60.74 103.35 59.73 102.82 59.22 102.55 L 58.75 102.27 C 62.28 100.46 65.25 97.75 68.92 96.21 C 72.48 93.01 74.22 87.66 74.29 82.98 C 69.71 77.81 61.82 76.15 55.36 78.37 C 52.76 78.96 53.27 81.95 52.72 83.93 C 54.06 83.28 55.46 82.75 56.95 82.53 C 52.73 86.41 48.37 90.19 45.00 94.87 C 43.27 97.01 41.98 99.45 41.07 102.04 C 43.81 100.61 46.25 98.71 48.84 97.03 C 50.02 96.69 50.84 95.95 51.27 94.80 C 51.42 94.69 51.71 94.46 51.86 94.35 C 56.05 91.93 60.76 89.26 63.18 84.93 C 60.61 85.15 59.46 87.86 57.15 88.73 C 58.55 86.57 59.91 84.39 61.12 82.12 C 59.85 81.99 58.58 81.87 57.32 81.76 C 57.24 80.66 58.75 80.09 59.61 80.48 C 61.48 81.07 63.11 82.21 64.76 83.22 C 64.78 83.91 64.81 85.30 64.82 85.99 C 59.39 91.06 53.27 95.29 47.20 99.55 C 45.03 100.78 41.31 104.94 39.46 101.22 C 41.63 98.13 43.77 94.97 45.22 91.47 C 42.08 93.70 39.57 96.76 36.13 98.57 C 35.65 98.20 34.68 97.46 34.20 97.09 C 34.15 100.06 34.22 103.04 34.68 105.98 C 34.07 107.41 33.44 108.83 32.81 110.25 L 32.00 109.83 C 31.68 110.12 31.04 110.71 30.71 111.00 L 29.17 111.00 C 29.86 110.18 30.55 109.35 31.22 108.52 C 30.85 107.06 30.48 105.60 30.15 104.14 C 30.23 101.99 30.75 99.90 31.88 98.07 L 32.72 100.12 C 32.45 97.16 32.25 94.19 32.06 91.23 C 32.52 91.18 33.44 91.07 33.91 91.02 C 32.89 90.76 31.88 90.50 30.86 90.23 C 31.30 89.73 32.17 88.72 32.60 88.22 C 33.26 88.34 34.57 88.58 35.23 88.70 C 35.44 89.24 35.88 90.32 36.09 90.86 C 37.89 90.97 38.24 88.46 38.26 87.09 C 38.75 83.11 40.04 79.22 39.66 75.15 L 37.72 75.45 C 38.32 75.34 39.50 75.11 40.09 75.00 C 40.28 74.31 40.67 72.94 40.86 72.25 C 43.37 77.00 40.51 82.54 39.60 87.41 C 40.12 87.02 41.16 86.24 41.68 85.85 C 40.92 87.73 39.59 89.30 38.39 90.92 C 39.12 90.76 40.59 90.44 41.32 90.28 C 39.87 91.68 38.44 93.09 37.17 94.66 C 41.20 93.18 43.87 89.52 47.25 87.02 C 47.93 86.52 48.62 86.05 49.33 85.60 C 50.63 85.05 51.13 84.11 50.85 82.77 C 50.80 82.35 50.69 81.52 50.64 81.10 C 49.52 82.10 48.39 83.11 47.36 84.21 C 45.63 86.07 43.87 87.89 42.01 89.62 C 43.25 87.61 45.06 85.91 45.75 83.60 C 44.39 84.35 43.05 85.11 41.68 85.85 C 42.50 84.54 43.30 83.23 44.19 81.97 C 44.42 81.49 44.88 80.52 45.10 80.04 C 45.31 77.44 46.84 75.25 47.52 72.78 L 47.52 72.78 C 50.40 70.11 52.19 66.57 54.02 63.16 C 54.97 60.50 52.41 58.68 51.01 56.82 C 52.45 55.54 55.61 55.59 55.39 53.04 C 53.64 54.25 51.90 55.47 50.10 56.60 C 50.57 58.22 51.11 59.83 52.12 61.19 C 51.30 61.89 50.48 62.59 49.65 63.28 C 47.21 62.99 45.80 65.09 44.40 66.69 C 43.30 67.91 42.16 69.10 41.09 70.35 C 40.61 69.91 39.67 69.04 39.19 68.60 C 39.64 66.48 40.13 64.37 40.65 62.26 C 40.24 62.18 39.43 62.02 39.03 61.94 C 38.60 61.84 37.75 61.63 37.33 61.52 C 36.02 56.14 39.61 50.39 44.84 48.82 C 46.06 48.41 47.30 48.05 48.53 47.69 C 47.91 47.13 47.30 46.58 46.69 46.03 C 48.25 40.87 49.41 35.57 51.54 30.59 C 53.13 26.89 54.15 22.97 54.63 18.97 C 53.76 19.61 52.90 20.25 52.04 20.90 C 48.28 23.07 45.68 27.60 41.08 27.94 C 43.93 23.99 49.27 22.49 51.31 17.93 C 49.78 18.62 48.24 19.32 46.72 20.04 L 47.24 19.25 C 49.81 17.36 52.64 15.87 55.25 14.04 C 55.63 14.26 56.40 14.71 56.78 14.94 C 57.44 14.23 58.10 13.51 58.76 12.80 M 55.06 36.74 C 56.54 35.91 57.47 33.03 56.93 31.34 C 55.27 32.00 54.57 35.05 55.06 36.74 M 46.33 50.03 L 46.20 50.34 C 41.88 50.80 39.00 54.29 38.18 58.36 L 37.82 58.29 C 37.87 58.90 37.96 60.13 38.01 60.74 C 41.11 60.99 43.38 58.65 46.32 58.34 C 47.69 55.62 48.97 52.79 49.54 49.79 C 48.74 49.85 47.13 49.97 46.33 50.03 M 56.15 54.96 C 55.92 55.26 55.48 55.85 55.26 56.15 C 56.00 59.21 59.50 54.27 56.15 54.96 M 55.25 64.29 C 55.08 65.42 55.17 66.54 55.50 67.65 C 56.54 68.22 57.62 68.30 58.76 67.86 C 58.62 66.37 55.74 65.94 55.25 64.29 M 53.39 68.27 C 52.12 71.54 48.49 73.20 47.68 76.69 C 45.32 77.72 47.42 81.65 49.08 78.97 C 49.21 79.40 49.47 80.27 49.59 80.70 C 49.99 80.03 50.79 78.68 51.19 78.01 C 52.84 77.63 54.35 76.87 55.73 75.89 C 55.45 75.34 54.89 74.25 54.62 73.70 C 55.30 72.31 56.20 71.06 57.52 70.20 C 56.91 69.57 56.28 68.94 55.64 68.33 C 55.08 68.31 53.96 68.28 53.39 68.27 M 76.08 82.89 C 76.68 85.24 77.43 87.56 77.71 89.99 C 80.96 88.62 78.05 84.37 76.08 82.89 Z" />
<path fill="#edb5c9" opacity="1.00" d=" M 38.89 17.47 C 41.03 15.57 43.18 13.68 45.13 11.59 C 45.59 12.48 46.06 13.37 46.54 14.26 C 46.34 14.43 45.92 14.78 45.72 14.96 C 43.87 16.55 42.07 18.20 40.06 19.60 C 39.76 19.06 39.18 18.00 38.89 17.47 Z" />
<path fill="#ffffcc" opacity="1.00" d=" M 63.74 17.00 C 65.47 15.30 67.28 13.48 69.78 13.02 C 67.89 16.05 65.91 19.04 63.66 21.81 C 63.23 22.25 62.38 23.12 61.96 23.56 C 62.25 21.31 62.62 19.02 63.74 17.00 Z" />
<path fill="#edb5b7" opacity="1.00" d=" M 36.73 14.36 C 37.29 18.15 35.25 21.58 33.83 24.94 C 32.74 25.77 31.63 26.59 30.47 27.32 C 30.40 26.94 30.25 26.19 30.18 25.82 C 32.82 22.23 33.29 17.41 36.73 14.36 Z" />
<path fill="#a1305f" opacity="1.00" d=" M 73.96 16.68 C 74.16 16.20 74.55 15.22 74.75 14.73 C 75.40 16.75 76.06 18.76 76.74 20.77 C 77.58 19.85 78.40 18.92 79.21 17.97 C 79.78 19.24 80.73 20.43 80.82 21.87 C 79.14 26.34 75.14 29.81 74.53 34.66 C 74.10 35.20 73.66 35.74 73.21 36.26 C 72.01 36.99 70.81 37.71 69.60 38.40 C 69.40 36.65 69.46 34.88 69.65 33.13 C 69.07 32.96 67.91 32.62 67.32 32.45 C 69.60 28.55 73.08 25.07 73.22 20.28 C 73.52 19.09 73.75 17.89 73.96 16.68 Z" />
<path fill="#ffffff" opacity="1.00" d=" M 65.15 26.55 C 67.10 23.47 69.40 20.57 70.66 17.11 C 70.47 17.69 70.11 18.85 69.93 19.43 C 69.61 20.73 69.64 22.08 69.67 23.41 C 68.40 25.14 67.21 26.94 65.97 28.70 C 63.86 30.95 61.69 33.14 59.60 35.41 C 59.63 34.98 59.68 34.10 59.71 33.66 C 61.91 31.60 63.67 29.16 65.15 26.55 Z" />
<path fill="#f4d3ac" opacity="1.00" d=" M 69.93 19.43 C 71.29 18.54 72.65 17.65 73.96 16.68 C 73.75 17.89 73.52 19.09 73.22 20.28 C 72.02 21.30 70.81 22.32 69.67 23.41 C 69.64 22.08 69.61 20.73 69.93 19.43 Z" />
<path fill="#5885a7" opacity="1.00" d=" M 46.72 20.04 C 48.24 19.32 49.78 18.62 51.31 17.93 C 49.27 22.49 43.93 23.99 41.08 27.94 C 40.95 28.09 40.69 28.37 40.56 28.52 C 37.82 31.34 35.00 34.11 31.95 36.59 L 31.55 36.91 C 31.18 36.35 30.43 35.22 30.06 34.66 C 33.35 32.03 36.39 29.10 39.82 26.65 C 41.07 25.63 42.73 24.81 43.08 23.06 L 43.25 23.07 L 43.46 22.80 C 44.53 21.86 45.63 20.96 46.72 20.04 Z" />
<path fill="#373232" opacity="1.00" d=" M 52.04 20.90 C 52.90 20.25 53.76 19.61 54.63 18.97 C 54.15 22.97 53.13 26.89 51.54 30.59 C 49.41 35.57 48.25 40.87 46.69 46.03 C 47.30 46.58 47.91 47.13 48.53 47.69 C 47.30 48.05 46.06 48.41 44.84 48.82 C 44.30 48.28 43.76 47.74 43.22 47.21 C 43.51 43.66 46.43 40.66 45.37 36.99 C 45.29 35.31 45.35 33.64 45.39 31.96 C 45.75 32.08 46.47 32.32 46.83 32.44 C 49.04 28.84 51.69 25.27 52.04 20.90 Z" />
<path fill="#4b4544" opacity="1.00" d=" M 41.08 27.94 C 45.68 27.60 48.28 23.07 52.04 20.90 C 51.69 25.27 49.04 28.84 46.83 32.44 C 46.47 32.32 45.75 32.08 45.39 31.96 C 43.56 31.24 40.61 30.60 39.77 33.04 C 38.74 34.79 40.07 36.42 40.79 37.96 C 37.03 38.39 38.34 42.45 38.45 45.01 C 37.53 46.89 36.03 48.49 35.67 50.63 C 34.65 55.27 32.06 59.32 29.47 63.23 C 28.28 61.46 27.00 59.75 25.58 58.16 C 25.93 56.61 26.27 55.05 26.71 53.53 C 27.51 52.01 28.41 50.56 29.27 49.08 C 31.06 45.94 31.80 42.37 32.49 38.87 C 30.93 39.42 29.35 39.96 27.80 40.56 C 28.88 39.18 30.15 37.97 31.55 36.91 L 31.95 36.59 C 35.12 34.25 38.02 31.54 40.56 28.52 C 40.69 28.37 40.95 28.09 41.08 27.94 M 30.98 54.08 C 33.76 55.27 34.51 51.50 32.81 49.98 C 31.45 50.79 29.31 52.43 30.98 54.08 Z" />
<path fill="#d1526c" opacity="1.00" d=" M 69.67 23.41 C 70.81 22.32 72.02 21.30 73.22 20.28 C 73.08 25.07 69.60 28.55 67.32 32.45 C 67.91 32.62 69.07 32.96 69.65 33.13 C 69.46 34.88 69.40 36.65 69.60 38.40 C 70.81 37.71 72.01 36.99 73.21 36.26 L 73.95 36.89 C 73.14 38.04 72.33 39.20 71.52 40.36 C 71.94 40.87 72.78 41.88 73.20 42.39 C 71.73 43.75 70.14 44.97 68.47 46.08 C 68.87 46.92 69.29 47.75 69.73 48.57 C 69.05 49.00 67.70 49.86 67.03 50.29 C 66.12 50.09 65.21 49.91 64.30 49.73 C 64.30 49.38 64.29 48.69 64.29 48.34 C 67.06 46.49 70.09 44.16 69.71 40.43 C 68.53 39.98 67.35 39.54 66.18 39.09 C 66.81 37.62 67.44 36.15 68.08 34.68 C 66.81 34.47 65.00 34.95 64.65 33.26 C 65.08 31.74 65.50 30.21 65.97 28.70 C 67.21 26.94 68.40 25.14 69.67 23.41 Z" />
<path fill="#faf1f1" opacity="1.00" d=" M 33.83 24.94 C 36.21 23.65 38.86 21.62 41.69 22.84 C 37.20 25.78 33.32 29.54 28.77 32.37 C 28.51 30.69 28.90 29.07 29.48 27.51 L 30.47 27.32 C 31.63 26.59 32.74 25.77 33.83 24.94 Z" />
<path fill="#e7879d" opacity="1.00" d=" M 61.96 23.56 C 62.38 23.12 63.23 22.25 63.66 21.81 C 63.66 22.74 63.66 23.68 63.66 24.62 C 64.03 25.10 64.78 26.07 65.15 26.55 C 63.67 29.16 61.91 31.60 59.71 33.66 C 59.67 31.23 59.71 28.79 59.94 26.37 C 60.62 25.44 61.29 24.50 61.96 23.56 Z" />
<path fill="#d8ffff" opacity="1.00" d=" M 43.08 23.06 C 43.18 23.00 43.36 22.86 43.46 22.80 L 43.25 23.07 L 43.08 23.06 Z" />
<path fill="#d8ffff" opacity="1.00" d=" M 28.37 33.04 C 33.89 30.81 37.91 26.00 43.08 23.06 C 42.73 24.81 41.07 25.63 39.82 26.65 C 36.39 29.10 33.35 32.03 30.06 34.66 C 29.59 35.04 28.65 35.80 28.17 36.18 C 26.03 35.03 23.86 33.86 22.09 32.15 C 22.54 30.06 23.15 28.02 23.80 25.98 C 25.09 28.48 26.61 30.85 28.37 33.04 Z" />
<path fill="#e898d0" opacity="1.00" d=" M 59.60 35.41 C 61.69 33.14 63.86 30.95 65.97 28.70 C 65.50 30.21 65.08 31.74 64.65 33.26 C 64.03 35.73 61.70 36.93 59.75 38.24 L 59.50 37.45 C 59.52 36.94 59.58 35.92 59.60 35.41 Z" />
<path fill="#ab9c82" opacity="1.00" d=" M 39.77 33.04 C 40.61 30.60 43.56 31.24 45.39 31.96 C 45.35 33.64 45.29 35.31 45.37 36.99 C 43.84 37.31 42.31 37.62 40.79 37.96 C 40.07 36.42 38.74 34.79 39.77 33.04 Z" />
<path fill="#540d6c" opacity="1.00" d=" M 55.06 36.74 C 54.57 35.05 55.27 32.00 56.93 31.34 C 57.47 33.03 56.54 35.91 55.06 36.74 Z" />
<path fill="#5b217c" opacity="1.00" d=" M 57.03 36.27 C 57.76 34.42 57.76 32.27 59.04 30.65 C 59.21 32.85 59.24 35.05 59.44 37.24 C 58.69 38.16 57.94 39.06 57.19 39.97 C 56.91 40.30 56.35 40.96 56.07 41.29 C 55.38 41.59 54.69 41.86 53.99 42.12 L 52.75 41.91 C 54.10 39.98 55.80 38.30 57.03 36.27 Z" />
<path fill="#afebf3" opacity="1.00" d=" M 22.09 32.15 C 23.86 33.86 26.03 35.03 28.17 36.18 C 26.98 37.33 25.90 38.59 24.82 39.83 C 24.06 38.80 23.31 37.77 22.56 36.75 C 22.54 36.71 22.50 36.65 22.48 36.61 L 21.75 35.20 C 21.83 34.44 22.01 32.91 22.09 32.15 Z" />
<path fill="#6e6158" opacity="1.00" d=" M 17.48 31.90 C 19.57 33.10 19.57 36.85 22.48 36.61 C 22.50 36.65 22.54 36.71 22.56 36.75 C 23.12 39.05 24.25 41.94 26.55 42.89 C 26.86 42.31 27.49 41.14 27.80 40.56 C 29.35 39.96 30.93 39.42 32.49 38.87 C 31.80 42.37 31.06 45.94 29.27 49.08 C 28.35 47.48 28.07 44.61 25.61 44.91 L 24.89 45.90 C 24.66 46.24 24.19 46.92 23.95 47.26 C 21.81 49.71 24.10 52.77 26.71 53.53 C 26.27 55.05 25.93 56.61 25.58 58.16 C 24.82 57.53 24.03 56.96 23.19 56.44 C 21.40 55.90 19.56 55.56 17.73 55.20 C 17.20 51.48 17.85 47.73 17.66 43.99 C 17.48 39.96 17.00 35.93 17.48 31.90 M 22.11 53.11 C 20.65 56.17 25.43 53.13 22.11 53.11 Z" />
<path fill="#e68fa7" opacity="1.00" d=" M 59.75 38.24 C 61.70 36.93 64.03 35.73 64.65 33.26 C 65.00 34.95 66.81 34.47 68.08 34.68 C 67.44 36.15 66.81 37.62 66.18 39.09 C 67.35 39.54 68.53 39.98 69.71 40.43 C 70.09 44.16 67.06 46.49 64.29 48.34 C 63.85 45.90 63.46 43.41 64.14 40.97 C 64.36 39.78 64.57 38.59 64.78 37.40 C 63.58 38.10 62.38 38.79 61.15 39.43 C 60.80 39.14 60.10 38.54 59.75 38.24 Z" />
<path fill="#80bbca" opacity="1.00" d=" M 28.17 36.18 C 28.65 35.80 29.59 35.04 30.06 34.66 C 30.43 35.22 31.18 36.35 31.55 36.91 C 30.15 37.97 28.88 39.18 27.80 40.56 C 26.69 40.96 25.52 40.89 24.82 39.83 C 25.90 38.59 26.98 37.33 28.17 36.18 Z" />
<path fill="#000000" opacity="1.00" d=" M 22.56 36.75 C 23.31 37.77 24.06 38.80 24.82 39.83 C 25.52 40.89 26.69 40.96 27.80 40.56 C 27.49 41.14 26.86 42.31 26.55 42.89 C 24.25 41.94 23.12 39.05 22.56 36.75 Z" />
<path fill="#403c3c" opacity="1.00" d=" M 40.79 37.96 C 42.31 37.62 43.84 37.31 45.37 36.99 C 46.43 40.66 43.51 43.66 43.22 47.21 C 43.76 47.74 44.30 48.28 44.84 48.82 C 39.61 50.39 36.02 56.14 37.33 61.52 C 37.75 61.63 38.60 61.84 39.03 61.94 C 36.17 64.38 34.32 67.72 33.56 71.39 C 29.87 69.79 25.74 68.70 22.72 65.96 C 23.21 65.90 24.20 65.80 24.69 65.75 C 20.40 63.92 18.02 59.73 17.73 55.20 C 19.56 55.56 21.40 55.90 23.19 56.44 C 22.50 56.51 21.13 56.65 20.44 56.72 C 20.95 60.93 24.45 63.85 28.41 64.76 C 28.68 64.38 29.20 63.61 29.47 63.23 C 32.06 59.32 34.65 55.27 35.67 50.63 C 36.03 48.49 37.53 46.89 38.45 45.01 C 38.34 42.45 37.03 38.39 40.79 37.96 Z" />
<path fill="#e89eaf" opacity="1.00" d=" M 59.44 37.24 L 59.50 37.45 L 59.75 38.24 C 60.10 38.54 60.80 39.14 61.15 39.43 C 62.38 38.79 63.58 38.10 64.78 37.40 C 64.57 38.59 64.36 39.78 64.14 40.97 C 61.71 42.11 58.55 43.16 57.19 39.97 C 57.94 39.06 58.69 38.16 59.44 37.24 Z" />
<path fill="#b6366d" opacity="1.00" d=" M 73.95 36.89 C 74.64 37.57 75.29 38.30 75.88 39.07 C 75.62 40.49 74.49 41.55 73.77 42.76 C 76.46 45.52 79.12 48.34 82.01 50.90 C 81.32 51.69 80.63 52.49 79.94 53.28 C 78.40 52.89 76.83 52.56 75.28 52.20 C 73.41 51.02 71.55 49.82 69.73 48.57 C 69.29 47.75 68.87 46.92 68.47 46.08 C 70.14 44.97 71.73 43.75 73.20 42.39 C 72.78 41.88 71.94 40.87 71.52 40.36 C 72.33 39.20 73.14 38.04 73.95 36.89 Z" />
<path fill="#ecc3e0" opacity="1.00" d=" M 56.07 41.29 C 56.35 40.96 56.91 40.30 57.19 39.97 C 58.55 43.16 61.71 42.11 64.14 40.97 C 63.46 43.41 63.85 45.90 64.29 48.34 C 64.29 48.69 64.30 49.38 64.30 49.73 C 65.21 49.91 66.12 50.09 67.03 50.29 C 68.69 50.67 70.34 51.12 72.01 51.50 C 71.37 51.83 70.10 52.49 69.46 52.82 C 66.29 51.54 63.02 50.46 59.66 49.78 C 60.50 48.89 61.45 48.06 62.10 47.01 C 60.75 44.49 56.96 44.16 56.07 41.29 Z" />
<path fill="#49566d" opacity="1.00" d=" M 53.99 42.12 C 54.69 41.86 55.38 41.59 56.07 41.29 C 56.96 44.16 60.75 44.49 62.10 47.01 C 61.45 48.06 60.50 48.89 59.66 49.78 C 63.02 50.46 66.29 51.54 69.46 52.82 C 71.78 53.86 74.04 55.04 76.26 56.29 C 75.62 59.17 72.75 57.02 71.08 56.39 L 71.76 55.63 C 66.53 51.75 59.92 50.97 53.62 50.70 C 55.81 50.15 58.84 50.88 60.11 48.52 C 58.53 48.63 56.94 48.77 55.36 48.92 C 55.62 47.56 55.96 46.20 55.80 44.81 C 55.21 43.90 54.61 43.00 53.99 42.12 M 57.15 45.15 C 56.79 46.41 58.65 47.98 59.85 47.53 C 60.52 46.17 58.41 44.45 57.15 45.15 Z" />
<path fill="#7e0e9d" opacity="1.00" d=" M 52.75 41.91 L 53.99 42.12 C 54.61 43.00 55.21 43.90 55.80 44.81 C 54.89 46.71 53.96 48.59 52.85 50.37 C 50.99 48.77 53.24 47.20 54.03 45.71 C 53.59 44.45 53.15 43.19 52.75 41.91 Z" />
<path fill="#c9e286" opacity="1.00" d=" M 0.00 43.03 C 2.40 44.42 4.63 46.45 7.52 46.67 C 7.53 47.23 7.56 48.36 7.58 48.93 C 11.09 51.90 13.24 56.15 16.88 59.02 C 16.38 59.31 15.39 59.89 14.89 60.18 C 10.57 58.50 6.88 55.45 2.36 54.17 C 1.58 52.52 0.77 50.90 0.00 49.25 L 0.00 43.03 Z" />
<path fill="#382129" opacity="1.00" d=" M 25.61 44.91 C 28.07 44.61 28.35 47.48 29.27 49.08 C 28.41 50.56 27.51 52.01 26.71 53.53 C 24.10 52.77 21.81 49.71 23.95 47.26 C 24.02 47.71 24.17 48.60 24.24 49.05 C 24.34 49.42 24.53 50.15 24.63 50.52 C 25.13 50.62 26.15 50.83 26.66 50.93 C 26.80 49.36 26.93 47.78 27.07 46.21 L 25.66 46.01 L 24.89 45.90 L 25.61 44.91 Z" />
<path fill="#5385ab" opacity="1.00" d=" M 57.15 45.15 C 58.41 44.45 60.52 46.17 59.85 47.53 C 58.65 47.98 56.79 46.41 57.15 45.15 Z" />
<path fill="#c9635b" opacity="1.00" d=" M 24.89 45.90 L 25.66 46.01 C 26.59 47.14 25.92 49.37 24.24 49.05 C 24.17 48.60 24.02 47.71 23.95 47.26 C 24.19 46.92 24.66 46.24 24.89 45.90 Z" />
<path fill="#8b1535" opacity="1.00" d=" M 25.66 46.01 L 27.07 46.21 C 26.93 47.78 26.80 49.36 26.66 50.93 C 26.15 50.83 25.13 50.62 24.63 50.52 C 24.53 50.15 24.34 49.42 24.24 49.05 C 25.92 49.37 26.59 47.14 25.66 46.01 Z" />
<path fill="#98d8eb" opacity="1.00" d=" M 9.37 47.23 C 11.49 48.53 13.57 49.89 15.67 51.22 C 16.11 53.47 16.49 55.73 16.83 58.00 C 14.72 54.17 10.51 51.48 9.37 47.23 Z" />
<path fill="#de6bc8" opacity="1.00" d=" M 67.03 50.29 C 67.70 49.86 69.05 49.00 69.73 48.57 C 71.55 49.82 73.41 51.02 75.28 52.20 C 74.46 52.02 72.83 51.68 72.01 51.50 C 70.34 51.12 68.69 50.67 67.03 50.29 Z" />
<path fill="#471f25" opacity="1.00" d=" M 30.98 54.08 C 29.31 52.43 31.45 50.79 32.81 49.98 C 34.51 51.50 33.76 55.27 30.98 54.08 Z" />
<path fill="#9bcb69" opacity="1.00" d=" M 46.33 50.03 C 47.13 49.97 48.74 49.85 49.54 49.79 C 48.97 52.79 47.69 55.62 46.32 58.34 C 43.38 58.65 41.11 60.99 38.01 60.74 C 37.96 60.13 37.87 58.90 37.82 58.29 L 38.18 58.36 C 42.70 59.20 44.71 53.65 46.20 50.34 L 46.33 50.03 Z" />
<path fill="#eafe75" opacity="1.00" d=" M 38.18 58.36 C 39.00 54.29 41.88 50.80 46.20 50.34 C 44.71 53.65 42.70 59.20 38.18 58.36 Z" />
<path fill="#98d8eb" opacity="1.00" d=" M 53.62 50.70 C 59.92 50.97 66.53 51.75 71.76 55.63 L 71.08 56.39 C 70.75 56.23 70.08 55.92 69.74 55.76 C 64.93 53.64 59.77 52.06 54.52 51.63 C 54.29 51.40 53.84 50.93 53.62 50.70 Z" />
<path fill="#395b9b" opacity="1.00" d=" M 54.52 51.63 C 59.77 52.06 64.93 53.64 69.74 55.76 C 64.84 55.60 60.01 54.32 55.43 52.61 L 54.52 51.63 Z" />
<path fill="#ffffff" opacity="1.00" d=" M 69.46 52.82 C 70.10 52.49 71.37 51.83 72.01 51.50 C 72.83 51.68 74.46 52.02 75.28 52.20 C 76.83 52.56 78.40 52.89 79.94 53.28 L 80.60 53.65 C 80.61 54.35 80.63 55.74 80.64 56.44 C 79.65 56.47 77.68 56.54 76.70 56.57 L 76.26 56.29 C 74.04 55.04 71.78 53.86 69.46 52.82 Z" />
<path fill="#321c20" opacity="1.00" d=" M 22.11 53.11 C 25.43 53.13 20.65 56.17 22.11 53.11 Z" />
<path fill="#83ae55" opacity="1.00" d=" M 2.36 54.17 C 6.88 55.45 10.57 58.50 14.89 60.18 C 15.39 59.89 16.38 59.31 16.88 59.02 L 17.37 59.51 C 16.63 62.07 15.55 64.52 14.36 66.90 C 8.30 65.12 4.82 59.60 2.36 54.17 Z" />
<path fill="#781383" opacity="1.00" d=" M 50.10 56.60 C 51.90 55.47 53.64 54.25 55.39 53.04 C 55.61 55.59 52.45 55.54 51.01 56.82 C 52.41 58.68 54.97 60.50 54.02 63.16 C 53.38 62.52 52.75 61.86 52.12 61.19 C 51.11 59.83 50.57 58.22 50.10 56.60 Z" />
<path fill="#d1526c" opacity="1.00" d=" M 80.60 53.65 L 81.22 54.02 C 81.75 55.64 83.19 57.82 81.36 59.17 C 79.43 60.80 78.10 62.89 77.59 65.38 C 76.19 64.61 74.76 63.91 73.34 63.21 C 73.89 61.74 74.44 60.28 74.97 58.81 C 76.34 58.74 77.71 58.65 79.08 58.53 C 78.30 57.86 77.51 57.19 76.70 56.57 C 77.68 56.54 79.65 56.47 80.64 56.44 C 80.63 55.74 80.61 54.35 80.60 53.65 Z" />
<path fill="#b0365d" opacity="1.00" d=" M 81.22 54.02 C 85.05 56.23 89.21 57.81 93.45 59.04 C 91.56 60.34 89.72 61.70 87.91 63.12 C 88.27 64.06 88.64 65.00 89.00 65.93 C 88.10 66.90 87.20 67.87 86.32 68.85 C 85.79 68.97 84.74 69.19 84.21 69.30 C 83.79 68.77 82.95 67.70 82.53 67.17 C 81.75 67.27 80.20 67.49 79.42 67.59 C 78.82 66.84 78.23 66.09 77.59 65.38 C 78.10 62.89 79.43 60.80 81.36 59.17 C 83.19 57.82 81.75 55.64 81.22 54.02 Z" />
<path fill="#273e77" opacity="1.00" d=" M 56.15 54.96 C 59.50 54.27 56.00 59.21 55.26 56.15 C 55.48 55.85 55.92 55.26 56.15 54.96 Z" />
<path fill="#d9ffff" opacity="1.00" d=" M 94.35 64.34 C 99.59 60.49 105.20 57.22 110.82 53.97 L 111.00 55.01 L 111.00 56.15 C 109.30 56.67 107.41 57.88 107.67 59.93 C 106.89 60.35 106.13 60.80 105.39 61.28 C 103.43 60.47 100.81 61.62 100.93 63.96 C 100.43 64.28 99.42 64.93 98.91 65.25 C 97.32 65.46 95.81 64.90 94.35 64.34 Z" />
<path fill="#ffffff" opacity="1.00" d=" M 56.14 60.21 C 57.40 58.71 58.61 57.17 59.77 55.59 C 63.01 56.40 66.27 57.11 69.50 57.95 C 66.72 59.51 61.71 58.44 61.15 62.52 C 66.62 65.90 73.04 67.40 79.42 67.59 C 80.20 67.49 81.75 67.27 82.53 67.17 C 82.95 67.70 83.79 68.77 84.21 69.30 C 83.90 69.73 83.26 70.58 82.95 71.01 C 79.36 73.31 76.17 76.19 73.07 79.10 C 70.70 78.18 67.95 77.79 66.12 75.87 C 63.83 73.66 60.95 72.27 58.13 70.88 C 58.97 69.85 59.81 68.82 60.65 67.78 C 60.17 67.39 59.21 66.61 58.72 66.21 C 59.14 65.42 59.99 63.83 60.41 63.03 C 59.00 62.08 57.57 61.14 56.14 60.21 Z" />
<path fill="#8cccda" opacity="1.00" d=" M 107.67 59.93 C 107.41 57.88 109.30 56.67 111.00 56.15 L 111.00 58.23 C 110.00 58.99 108.89 59.56 107.67 59.93 Z" />
<path fill="#1d191a" opacity="1.00" d=" M 20.44 56.72 C 21.13 56.65 22.50 56.51 23.19 56.44 C 24.03 56.96 24.82 57.53 25.58 58.16 C 27.00 59.75 28.28 61.46 29.47 63.23 C 29.20 63.61 28.68 64.38 28.41 64.76 C 24.45 63.85 20.95 60.93 20.44 56.72 M 20.92 57.00 C 22.29 59.89 24.63 62.48 27.94 62.96 C 25.91 60.67 24.01 57.89 20.92 57.00 Z" />
<path fill="#eafe75" opacity="1.00" d=" M 20.92 57.00 C 24.01 57.89 25.91 60.67 27.94 62.96 C 24.63 62.48 22.29 59.89 20.92 57.00 Z" />
<path fill="#f0c6ef" opacity="1.00" d=" M 69.50 57.95 C 71.30 58.36 73.13 58.64 74.97 58.81 C 74.44 60.28 73.89 61.74 73.34 63.21 C 74.76 63.91 76.19 64.61 77.59 65.38 C 78.23 66.09 78.82 66.84 79.42 67.59 C 73.04 67.40 66.62 65.90 61.15 62.52 C 61.71 58.44 66.72 59.51 69.50 57.95 Z" />
<path fill="#a9431d" opacity="1.00" d=" M 52.12 61.19 C 52.75 61.86 53.38 62.52 54.02 63.16 C 52.19 66.57 50.40 70.11 47.52 72.78 C 47.67 70.61 47.78 68.43 47.89 66.26 C 47.46 66.74 46.61 67.70 46.18 68.18 C 45.73 67.81 44.84 67.06 44.40 66.69 C 45.80 65.09 47.21 62.99 49.65 63.28 C 50.48 62.59 51.30 61.89 52.12 61.19 Z" />
<path fill="#84bfd3" opacity="1.00" d=" M 100.93 63.96 C 100.81 61.62 103.43 60.47 105.39 61.28 C 104.13 62.52 102.57 63.34 100.93 63.96 Z" />
<path fill="#709e5d" opacity="1.00" d=" M 91.47 72.34 C 97.66 67.96 104.17 63.93 111.00 60.61 L 111.00 65.22 C 108.67 64.88 108.61 68.29 111.00 66.91 L 111.00 67.60 C 106.67 69.11 102.00 69.20 97.68 70.72 C 95.65 71.40 93.58 71.96 91.47 72.34 Z" />
<path fill="#527da7" opacity="1.00" d=" M 15.91 65.77 C 15.62 64.33 16.89 61.22 18.75 62.10 C 19.50 63.62 17.27 65.58 15.91 65.77 Z" />
<path fill="#342e2f" opacity="1.00" d=" M 39.03 61.94 C 39.43 62.02 40.24 62.18 40.65 62.26 C 40.13 64.37 39.64 66.48 39.19 68.60 C 39.67 69.04 40.61 69.91 41.09 70.35 L 40.99 71.01 C 40.96 71.32 40.89 71.94 40.86 72.25 C 40.67 72.94 40.28 74.31 40.09 75.00 C 39.50 75.11 38.32 75.34 37.72 75.45 L 36.05 75.73 L 36.46 77.06 C 36.30 76.72 35.97 76.05 35.80 75.71 C 36.00 74.63 36.26 73.57 36.51 72.50 C 35.53 72.13 34.54 71.75 33.56 71.39 C 34.32 67.72 36.17 64.38 39.03 61.94 Z" />
<path fill="#89b458" opacity="1.00" d=" M 15.90 68.07 C 17.60 66.54 19.37 65.07 21.40 64.01 C 21.39 67.79 25.83 69.14 26.65 72.69 C 22.84 71.87 19.16 70.20 15.90 68.07 Z" />
<path fill="#6a1868" opacity="1.00" d=" M 55.25 64.29 C 55.74 65.94 58.62 66.37 58.76 67.86 C 57.62 68.30 56.54 68.22 55.50 67.65 C 55.17 66.54 55.08 65.42 55.25 64.29 Z" />
<path fill="#98d8eb" opacity="1.00" d=" M 84.39 71.11 C 87.41 68.42 91.01 66.56 94.35 64.34 C 95.81 64.90 97.32 65.46 98.91 65.25 C 97.45 66.22 95.99 67.18 94.49 68.08 C 88.70 69.65 83.85 73.46 78.68 76.36 C 80.61 74.64 82.51 72.88 84.39 71.11 Z" />
<path fill="#a4d270" opacity="1.00" d=" M 111.00 66.91 C 108.61 68.29 108.67 64.88 111.00 65.22 L 111.00 66.91 Z" />
<path fill="#b3b060" opacity="1.00" d=" M 41.09 70.35 C 42.16 69.10 43.30 67.91 44.40 66.69 C 44.84 67.06 45.73 67.81 46.18 68.18 C 45.08 69.41 43.94 70.60 42.80 71.79 C 42.34 71.60 41.44 71.21 40.99 71.01 L 41.09 70.35 Z" />
<path fill="#ffff93" opacity="1.00" d=" M 46.18 68.18 C 46.61 67.70 47.46 66.74 47.89 66.26 C 47.78 68.43 47.67 70.61 47.52 72.78 L 47.52 72.78 C 46.53 73.83 45.65 74.98 44.82 76.17 C 43.77 77.53 42.58 79.45 43.77 81.10 L 44.19 81.97 C 43.30 83.23 42.50 84.54 41.68 85.85 C 41.16 86.24 40.12 87.02 39.60 87.41 C 40.51 82.54 43.37 77.00 40.86 72.25 C 40.89 71.94 40.96 71.32 40.99 71.01 C 41.44 71.21 42.34 71.60 42.80 71.79 C 43.94 70.60 45.08 69.41 46.18 68.18 Z" />
<path fill="#491e61" opacity="1.00" d=" M 53.39 68.27 C 53.96 68.28 55.08 68.31 55.64 68.33 C 54.82 69.85 53.99 71.38 53.19 72.92 C 52.38 74.55 51.49 76.19 51.19 78.01 C 50.79 78.68 49.99 80.03 49.59 80.70 C 49.47 80.27 49.21 79.40 49.08 78.97 C 49.22 78.16 49.35 77.36 49.48 76.56 C 49.03 76.59 48.13 76.66 47.68 76.69 C 48.49 73.20 52.12 71.54 53.39 68.27 Z" />
<path fill="#a854d8" opacity="1.00" d=" M 78.68 76.36 C 83.85 73.46 88.70 69.65 94.49 68.08 C 89.71 71.45 84.53 74.25 79.97 77.93 C 78.44 79.18 76.83 80.38 74.95 81.07 C 75.32 79.43 76.56 78.26 77.77 77.18 C 77.87 77.08 78.08 76.89 78.19 76.79 C 78.31 76.68 78.55 76.46 78.68 76.36 Z" />
<path fill="#9bcb69" opacity="1.00" d=" M 14.67 68.48 C 18.67 70.38 22.64 72.34 26.78 73.91 C 29.07 75.43 30.74 77.72 32.22 79.99 C 25.93 77.75 19.82 74.49 14.79 70.04 L 14.67 68.48 Z" />
<path fill="#b0772c" opacity="1.00" d=" M 55.64 68.33 C 56.28 68.94 56.91 69.57 57.52 70.20 C 56.20 71.06 55.30 72.31 54.62 73.70 C 54.26 73.50 53.55 73.12 53.19 72.92 C 53.99 71.38 54.82 69.85 55.64 68.33 Z" />
<path fill="#8ebd68" opacity="1.00" d=" M 104.39 70.73 C 106.65 70.17 108.84 69.38 111.00 68.50 L 111.00 71.95 C 107.58 73.07 104.37 74.71 101.34 76.62 C 101.34 74.66 103.35 73.90 104.62 72.82 C 104.56 72.30 104.45 71.25 104.39 70.73 Z" />
<path fill="#5f8857" opacity="1.00" d=" M 26.07 69.97 C 28.17 70.56 30.24 71.27 32.31 72.00 C 32.28 74.18 32.44 76.37 32.74 78.54 C 29.99 76.20 27.35 73.38 26.07 69.97 Z" />
<path fill="#42624a" opacity="1.00" d=" M 92.03 73.60 C 96.29 73.31 100.24 71.57 104.39 70.73 C 104.45 71.25 104.56 72.30 104.62 72.82 C 103.35 73.90 101.34 74.66 101.34 76.62 C 100.80 77.30 100.26 77.97 99.68 78.62 C 96.75 79.59 93.76 80.43 90.73 81.07 C 87.88 81.13 85.04 81.61 82.18 81.43 C 81.34 81.25 79.66 80.88 78.83 80.70 C 82.52 77.31 86.74 73.73 92.03 73.60 Z" />
<path fill="#5a0e28" opacity="1.00" d=" M 101.34 76.62 C 104.37 74.71 107.58 73.07 111.00 71.95 L 111.00 75.70 C 107.20 74.68 103.45 77.88 99.68 78.62 C 100.26 77.97 100.80 77.30 101.34 76.62 Z" />
<path fill="#b34c21" opacity="1.00" d=" M 33.32 73.32 C 34.81 72.21 36.25 74.62 34.99 75.73 C 34.63 75.99 33.92 76.53 33.56 76.80 C 32.59 76.12 32.61 74.23 33.32 73.32 Z" />
<path fill="#a17636" opacity="1.00" d=" M 44.82 76.17 C 45.65 74.98 46.53 73.83 47.52 72.78 C 46.84 75.25 45.31 77.44 45.10 80.04 C 45.30 78.74 45.21 77.44 44.82 76.17 Z" />
<path fill="#eafe75" opacity="1.00" d=" M 53.19 72.92 C 53.55 73.12 54.26 73.50 54.62 73.70 C 54.89 74.25 55.45 75.34 55.73 75.89 C 54.35 76.87 52.84 77.63 51.19 78.01 C 51.49 76.19 52.38 74.55 53.19 72.92 Z" />
<path fill="#ffff93" opacity="1.00" d=" M 33.56 76.80 C 33.92 76.53 34.63 75.99 34.99 75.73 C 35.68 77.27 36.32 78.84 36.76 80.48 C 35.46 80.60 34.17 80.74 32.87 80.89 L 32.62 79.48 C 33.27 79.55 34.56 79.69 35.21 79.76 C 34.80 79.02 33.97 77.54 33.56 76.80 Z" />
<path fill="#d8ffff" opacity="1.00" d=" M 36.05 75.73 L 37.72 75.45 L 39.66 75.15 C 40.04 79.22 38.75 83.11 38.26 87.09 C 37.17 87.47 36.21 88.11 35.23 88.70 C 34.57 88.58 33.26 88.34 32.60 88.22 L 33.22 87.58 C 33.70 87.57 34.66 87.54 35.14 87.53 C 35.78 84.69 36.73 81.93 37.44 79.11 C 37.20 78.60 36.71 77.58 36.46 77.06 L 36.05 75.73 Z" />
<path fill="#f5db5b" opacity="1.00" d=" M 43.77 81.10 C 42.58 79.45 43.77 77.53 44.82 76.17 C 45.21 77.44 45.30 78.74 45.10 80.04 C 44.77 80.31 44.10 80.84 43.77 81.10 Z" />
<path fill="#613e76" opacity="1.00" d=" M 47.68 76.69 C 48.13 76.66 49.03 76.59 49.48 76.56 C 49.35 77.36 49.22 78.16 49.08 78.97 C 47.42 81.65 45.32 77.72 47.68 76.69 Z" />
<path fill="#3d6993" opacity="1.00" d=" M 78.19 76.79 C 78.31 76.68 78.55 76.46 78.68 76.36 C 78.55 76.46 78.31 76.68 78.19 76.79 Z" />
<path fill="#ffffff" opacity="1.00" d=" M 99.68 78.62 C 103.45 77.88 107.20 74.68 111.00 75.70 L 111.00 80.58 C 109.89 81.38 106.92 81.45 107.45 83.43 C 108.60 84.11 109.82 84.65 111.00 85.27 L 111.00 87.01 C 106.31 85.00 101.45 83.26 96.40 82.46 C 94.48 82.14 92.59 81.65 90.73 81.07 C 93.76 80.43 96.75 79.59 99.68 78.62 Z" />
<path fill="#3f5c8e" opacity="1.00" d=" M 77.77 77.18 C 77.87 77.08 78.08 76.89 78.19 76.79 C 78.08 76.89 77.87 77.08 77.77 77.18 Z" />
<path fill="#454141" opacity="1.00" d=" M 55.36 78.37 C 61.82 76.15 69.71 77.81 74.29 82.98 C 74.22 87.66 72.48 93.01 68.92 96.21 C 68.29 92.52 67.25 88.92 64.82 85.99 C 64.81 85.30 64.78 83.91 64.76 83.22 C 63.11 82.21 61.48 81.07 59.61 80.48 C 58.75 80.09 57.24 80.66 57.32 81.76 L 57.22 82.29 L 56.95 82.53 C 55.46 82.75 54.06 83.28 52.72 83.93 C 53.27 81.95 52.76 78.96 55.36 78.37 Z" />
<path fill="#bb81ab" opacity="1.00" d=" M 43.77 81.10 C 44.10 80.84 44.77 80.31 45.10 80.04 C 44.88 80.52 44.42 81.49 44.19 81.97 L 43.77 81.10 Z" />
<path fill="#b86446" opacity="1.00" d=" M 47.36 84.21 C 48.39 83.11 49.52 82.10 50.64 81.10 C 50.69 81.52 50.80 82.35 50.85 82.77 C 49.48 83.29 48.97 84.24 49.33 85.60 C 48.62 86.05 47.93 86.52 47.25 87.02 C 47.27 86.32 47.33 84.92 47.36 84.21 Z" />
<path fill="#474140" opacity="1.00" d=" M 82.18 81.43 C 85.04 81.61 87.88 81.13 90.73 81.07 C 92.59 81.65 94.48 82.14 96.40 82.46 L 95.22 83.11 C 92.62 83.02 89.81 82.07 87.38 83.43 C 91.32 84.13 95.31 84.64 99.19 85.68 C 98.66 85.82 97.59 86.10 97.05 86.24 C 97.86 86.69 98.67 87.15 99.48 87.61 C 98.25 88.74 97.06 89.92 95.90 91.12 C 96.74 91.52 97.57 91.93 98.41 92.33 C 98.05 92.86 97.70 93.39 97.34 93.92 C 98.89 94.80 100.43 95.68 101.96 96.58 C 96.01 100.36 88.48 99.58 81.96 101.87 C 80.75 99.43 79.33 97.11 77.93 94.78 C 79.92 90.91 80.47 86.58 78.60 82.54 C 79.96 82.56 81.33 82.57 82.70 82.59 C 82.57 82.30 82.31 81.72 82.18 81.43 Z" />
<path fill="#eebece" opacity="1.00" d=" M 107.45 83.43 C 106.92 81.45 109.89 81.38 111.00 80.58 L 111.00 85.27 C 109.82 84.65 108.60 84.11 107.45 83.43 Z" />
<path fill="#73a7c4" opacity="1.00" d=" M 57.32 81.76 C 58.58 81.87 59.85 81.99 61.12 82.12 C 59.91 84.39 58.55 86.57 57.15 88.73 C 55.20 90.41 53.25 92.14 51.86 94.35 C 51.71 94.46 51.42 94.69 51.27 94.80 C 50.77 94.90 49.78 95.09 49.28 95.19 C 49.48 94.68 49.89 93.68 50.09 93.18 C 53.15 90.21 56.13 87.16 58.89 83.91 C 58.47 83.50 57.63 82.69 57.22 82.29 L 57.32 81.76 Z" />
<path fill="#383131" opacity="1.00" d=" M 96.40 82.46 C 101.45 83.26 106.31 85.00 111.00 87.01 L 111.00 111.00 L 83.14 111.00 C 84.07 107.91 83.05 104.77 81.96 101.87 C 88.48 99.58 96.01 100.36 101.96 96.58 C 100.43 95.68 98.89 94.80 97.34 93.92 C 97.70 93.39 98.05 92.86 98.41 92.33 C 97.57 91.93 96.74 91.52 95.90 91.12 C 97.06 89.92 98.25 88.74 99.48 87.61 C 98.67 87.15 97.86 86.69 97.05 86.24 C 97.59 86.10 98.66 85.82 99.19 85.68 C 102.78 86.54 106.25 87.89 109.93 88.36 C 105.74 85.08 100.21 84.49 95.22 83.11 L 96.40 82.46 Z" />
<path fill="#892481" opacity="1.00" d=" M 49.33 85.60 C 48.97 84.24 49.48 83.29 50.85 82.77 C 51.13 84.11 50.63 85.05 49.33 85.60 Z" />
<path fill="#eaffff" opacity="1.00" d=" M 56.95 82.53 L 57.22 82.29 C 57.63 82.69 58.47 83.50 58.89 83.91 C 56.13 87.16 53.15 90.21 50.09 93.18 C 48.44 93.89 46.72 94.40 45.00 94.87 C 48.37 90.19 52.73 86.41 56.95 82.53 Z" />
<path fill="#711587" opacity="1.00" d=" M 76.08 82.89 C 78.05 84.37 80.96 88.62 77.71 89.99 C 77.43 87.56 76.68 85.24 76.08 82.89 Z" />
<path fill="#9633aa" opacity="1.00" d=" M 87.38 83.43 C 89.81 82.07 92.62 83.02 95.22 83.11 C 100.21 84.49 105.74 85.08 109.93 88.36 C 106.25 87.89 102.78 86.54 99.19 85.68 C 95.31 84.64 91.32 84.13 87.38 83.43 Z" />
<path fill="#7b4095" opacity="1.00" d=" M 41.68 85.85 C 43.05 85.11 44.39 84.35 45.75 83.60 C 45.06 85.91 43.25 87.61 42.01 89.62 C 41.84 89.79 41.49 90.11 41.32 90.28 C 40.59 90.44 39.12 90.76 38.39 90.92 C 39.59 89.30 40.92 87.73 41.68 85.85 Z" />
<path fill="#eafe75" opacity="1.00" d=" M 42.01 89.62 C 43.87 87.89 45.63 86.07 47.36 84.21 C 47.33 84.92 47.27 86.32 47.25 87.02 C 43.87 89.52 41.20 93.18 37.17 94.66 C 38.44 93.09 39.87 91.68 41.32 90.28 C 41.49 90.11 41.84 89.79 42.01 89.62 Z" />
<path fill="#7b3ebb" opacity="1.00" d=" M 57.15 88.73 C 59.46 87.86 60.61 85.15 63.18 84.93 C 60.76 89.26 56.05 91.93 51.86 94.35 C 53.25 92.14 55.20 90.41 57.15 88.73 Z" />
<path fill="#504953" opacity="1.00" d=" M 47.20 99.55 C 53.27 95.29 59.39 91.06 64.82 85.99 C 67.25 88.92 68.29 92.52 68.92 96.21 C 65.25 97.75 62.28 100.46 58.75 102.27 C 57.45 101.36 56.20 100.38 54.94 99.43 C 54.48 101.35 54.01 103.28 53.62 105.22 L 52.51 104.44 C 52.18 104.28 51.52 103.96 51.18 103.80 L 49.60 103.49 C 48.80 102.18 48.00 100.86 47.20 99.55 Z" />
<path fill="#4f78ab" opacity="1.00" d=" M 35.23 88.70 C 36.21 88.11 37.17 87.47 38.26 87.09 C 38.24 88.46 37.89 90.97 36.09 90.86 C 35.88 90.32 35.44 89.24 35.23 88.70 Z" />
<path fill="#98d8eb" opacity="1.00" d=" M 30.70 90.62 L 30.86 90.23 C 31.88 90.50 32.89 90.76 33.91 91.02 C 33.44 91.07 32.52 91.18 32.06 91.23 C 32.25 94.19 32.45 97.16 32.72 100.12 L 31.88 98.07 C 30.75 99.90 30.23 101.99 30.15 104.14 C 29.57 104.38 28.99 104.63 28.40 104.87 C 27.92 102.67 28.16 100.46 29.43 98.57 C 30.05 98.39 31.29 98.03 31.91 97.86 C 31.64 95.42 31.16 93.02 30.70 90.62 Z" />
<path fill="#957ca1" opacity="1.00" d=" M 36.13 98.57 C 39.57 96.76 42.08 93.70 45.22 91.47 C 43.77 94.97 41.63 98.13 39.46 101.22 C 38.72 102.05 37.94 102.83 37.14 103.60 C 36.76 103.97 36.00 104.70 35.62 105.06 C 35.38 105.29 34.92 105.75 34.68 105.98 C 34.22 103.04 34.15 100.06 34.20 97.09 C 34.68 97.46 35.65 98.20 36.13 98.57 Z" />
<path fill="#9bc9e4" opacity="1.00" d=" M 45.00 94.87 C 46.72 94.40 48.44 93.89 50.09 93.18 C 49.89 93.68 49.48 94.68 49.28 95.19 C 49.17 95.65 48.95 96.57 48.84 97.03 C 46.25 98.71 43.81 100.61 41.07 102.04 C 41.98 99.45 43.27 97.01 45.00 94.87 Z" />
<path fill="#b155d9" opacity="1.00" d=" M 51.27 94.80 C 51.42 94.69 51.71 94.46 51.86 94.35 C 51.71 94.46 51.42 94.69 51.27 94.80 Z" />
<path fill="#955fb5" opacity="1.00" d=" M 49.28 95.19 C 49.78 95.09 50.77 94.90 51.27 94.80 C 50.84 95.95 50.02 96.69 48.84 97.03 C 48.95 96.57 49.17 95.65 49.28 95.19 Z" />
<path fill="#98d8eb" opacity="1.00" d=" M 73.31 96.20 C 74.37 95.89 75.45 95.61 76.52 95.33 C 77.77 97.24 78.98 99.18 80.00 101.23 C 76.84 103.16 73.63 105.07 71.10 107.82 C 69.26 106.64 67.34 105.58 65.45 104.50 C 69.22 103.06 72.17 100.12 73.31 96.20 Z" />
<path fill="#ffffff" opacity="1.00" d=" M 61.80 102.57 C 64.69 99.12 69.20 97.65 73.31 96.20 C 72.17 100.12 69.22 103.06 65.45 104.50 C 64.25 103.83 63.02 103.20 61.80 102.57 Z" />
<path fill="#665863" opacity="1.00" d=" M 39.46 101.22 C 41.31 104.94 45.03 100.78 47.20 99.55 C 48.00 100.86 48.80 102.18 49.60 103.49 C 46.72 105.71 44.21 108.34 41.75 111.00 L 39.06 111.00 C 41.56 108.57 40.15 104.77 37.14 103.60 C 37.94 102.83 38.72 102.05 39.46 101.22 Z" />
<path fill="#ffffff" opacity="1.00" d=" M 54.94 99.43 C 56.20 100.38 57.45 101.36 58.75 102.27 L 59.22 102.55 C 59.37 105.37 59.57 108.20 60.00 111.00 L 53.09 111.00 C 53.23 109.07 53.39 107.14 53.62 105.22 C 54.01 103.28 54.48 101.35 54.94 99.43 Z" />
<path fill="#3e5c75" opacity="1.00" d=" M 71.10 107.82 C 73.63 105.07 76.84 103.16 80.00 101.23 L 80.05 101.35 C 78.82 103.02 79.71 105.02 80.09 106.79 C 78.24 108.16 76.45 109.60 74.63 111.00 L 74.33 111.00 C 73.27 109.92 72.21 108.84 71.10 107.82 Z" />
<path fill="#fffff3" opacity="1.00" d=" M 18.69 111.00 C 19.39 107.82 19.94 104.60 20.78 101.45 C 22.31 102.52 23.84 103.61 25.30 104.78 C 24.62 106.81 24.12 108.89 23.78 111.00 L 18.69 111.00 Z" />
<path fill="#8c34ad" opacity="1.00" d=" M 80.05 101.35 C 81.74 104.29 82.27 107.66 81.79 111.00 L 80.72 111.00 C 80.76 109.57 80.47 108.16 80.09 106.79 C 79.71 105.02 78.82 103.02 80.05 101.35 Z" />
<path fill="#ffffcc" opacity="1.00" d=" M 59.22 102.55 C 59.73 102.82 60.74 103.35 61.25 103.62 C 61.19 104.46 61.06 106.15 60.99 106.99 C 62.23 108.26 63.38 109.61 64.49 111.00 L 60.00 111.00 C 59.57 108.20 59.37 105.37 59.22 102.55 Z" />
<path fill="#1f132d" opacity="1.00" d=" M 35.62 105.06 C 36.00 104.70 36.76 103.97 37.14 103.60 C 40.15 104.77 41.56 108.57 39.06 111.00 L 32.49 111.00 L 32.81 110.25 C 33.44 108.83 34.07 107.41 34.68 105.98 C 34.69 106.77 34.69 108.36 34.69 109.15 C 35.35 108.94 36.66 108.53 37.31 108.32 C 37.59 107.26 37.87 106.20 38.14 105.14 C 37.51 105.12 36.25 105.08 35.62 105.06 Z" />
<path fill="#1d191a" opacity="1.00" d=" M 41.75 111.00 C 44.21 108.34 46.72 105.71 49.60 103.49 L 51.18 103.80 C 48.81 105.78 46.43 107.76 44.25 109.97 C 43.91 110.23 43.22 110.74 42.87 111.00 L 41.75 111.00 Z" />
<path fill="#98d8eb" opacity="1.00" d=" M 51.18 103.80 C 51.52 103.96 52.18 104.28 52.51 104.44 L 51.86 105.43 C 49.60 107.34 47.43 109.83 44.25 109.97 C 46.43 107.76 48.81 105.78 51.18 103.80 Z" />
<path fill="#ebd87f" opacity="1.00" d=" M 61.25 103.62 C 63.15 104.59 65.04 105.58 66.86 106.70 C 66.82 108.13 66.77 109.56 66.73 111.00 L 64.49 111.00 C 63.38 109.61 62.23 108.26 60.99 106.99 C 61.06 106.15 61.19 104.46 61.25 103.62 Z" />
<path fill="#eed896" opacity="1.00" d=" M 25.30 104.78 C 27.06 106.31 29.11 107.82 29.47 110.32 L 28.36 111.00 L 23.78 111.00 C 24.12 108.89 24.62 106.81 25.30 104.78 Z" />
<path fill="#c83beb" opacity="1.00" d=" M 35.62 105.06 C 36.25 105.08 37.51 105.12 38.14 105.14 C 37.87 106.20 37.59 107.26 37.31 108.32 C 36.66 108.53 35.35 108.94 34.69 109.15 C 34.69 108.36 34.69 106.77 34.68 105.98 C 34.92 105.75 35.38 105.29 35.62 105.06 Z" />
<path fill="#1d212c" opacity="1.00" d=" M 52.51 104.44 L 53.62 105.22 C 53.39 107.14 53.23 109.07 53.09 111.00 L 47.38 111.00 C 48.74 110.18 50.08 109.31 51.41 108.45 C 51.52 107.69 51.75 106.18 51.86 105.43 L 52.51 104.44 Z" />
<path fill="#3a587d" opacity="1.00" d=" M 44.25 109.97 C 47.43 109.83 49.60 107.34 51.86 105.43 C 51.75 106.18 51.52 107.69 51.41 108.45 C 50.08 109.31 48.74 110.18 47.38 111.00 L 42.87 111.00 C 43.22 110.74 43.91 110.23 44.25 109.97 Z" />
<path fill="#b36d33" opacity="1.00" d=" M 66.86 106.70 C 68.88 107.93 70.66 109.48 72.47 111.00 L 66.73 111.00 C 66.77 109.56 66.82 108.13 66.86 106.70 Z" />
<path fill="#26334e" opacity="1.00" d=" M 74.63 111.00 C 76.45 109.60 78.24 108.16 80.09 106.79 C 80.47 108.16 80.76 109.57 80.72 111.00 L 74.63 111.00 Z" />
<path fill="#6399b8" opacity="1.00" d=" M 30.71 111.00 C 31.04 110.71 31.68 110.12 32.00 109.83 L 32.81 110.25 L 32.49 111.00 L 30.71 111.00 Z" />
</svg>
