<?xml version="1.0" encoding="UTF-8" ?>
<!DOCTYPE svg PUBLIC "-//W3C//DTD SVG 1.1//EN" "http://www.w3.org/Graphics/SVG/1.1/DTD/svg11.dtd">
<svg width="111pt" height="111pt" viewBox="0 0 111 111" version="1.1" xmlns="http://www.w3.org/2000/svg">
<path fill="#000000" opacity="1.00" d=" M 9.00 0.00 L 9.59 0.00 C 17.19 2.65 24.76 5.40 32.09 8.74 C 33.34 9.19 34.18 10.22 35.05 11.17 C 39.33 9.28 43.69 7.52 48.26 6.44 C 45.70 10.65 42.01 14.13 38.21 17.18 C 37.27 17.07 35.40 16.85 34.47 16.75 C 34.34 17.81 34.21 18.88 34.08 19.94 C 36.53 21.01 39.00 22.04 41.51 22.97 C 49.98 16.24 59.74 9.84 70.96 9.77 C 69.48 7.83 66.14 7.70 65.06 5.91 C 66.93 3.84 69.72 2.62 71.06 0.00 L 72.81 0.00 C 71.92 1.95 71.38 4.21 69.49 5.48 C 69.30 5.57 68.94 5.74 68.75 5.82 C 70.09 6.88 71.44 7.94 72.68 9.12 C 71.85 9.98 71.03 10.84 70.20 11.71 C 59.41 12.99 50.42 19.41 41.52 25.10 L 40.86 25.39 C 39.42 24.77 38.00 24.12 36.57 23.49 C 35.12 22.84 33.65 22.22 32.17 21.63 C 32.11 18.75 32.15 15.86 32.18 12.98 C 33.00 9.66 29.38 9.38 27.15 8.66 C 21.97 7.26 17.24 4.65 12.23 2.81 C 16.19 7.51 20.17 12.19 23.92 17.06 C 25.64 19.32 27.46 21.52 28.84 24.01 C 30.53 27.30 33.27 30.39 32.26 34.38 C 31.05 37.39 28.34 40.58 30.59 43.77 C 32.64 41.90 34.35 37.56 37.67 38.62 C 38.11 43.89 37.92 49.31 35.50 54.13 C 37.41 56.88 35.15 60.25 33.66 62.67 C 33.06 63.15 31.86 64.10 31.26 64.57 C 33.04 61.41 35.05 58.27 35.58 54.60 C 34.04 56.64 32.60 58.79 31.52 61.12 C 30.16 64.73 30.51 68.67 30.51 72.45 C 30.32 78.30 30.66 84.18 30.02 90.01 C 29.62 94.04 26.37 96.79 24.30 100.01 C 23.58 101.24 22.94 102.52 22.27 103.79 C 26.22 100.78 31.34 102.23 35.60 100.32 C 36.97 100.74 38.35 101.08 39.74 101.39 C 47.59 103.21 55.71 102.06 63.67 102.71 C 70.51 102.94 76.37 106.56 82.68 108.72 C 84.59 109.39 86.45 110.21 88.32 111.00 L 47.34 111.00 C 39.83 109.06 32.21 107.44 25.08 104.28 C 23.92 104.92 21.63 106.95 20.71 105.02 C 20.02 98.07 28.55 94.86 28.12 88.03 C 28.16 83.40 28.13 78.77 28.04 74.14 C 25.78 74.52 26.18 76.46 26.38 78.19 C 25.36 78.87 24.34 79.54 23.31 80.20 C 24.22 81.65 26.25 82.92 25.74 84.87 C 24.19 87.44 22.85 90.19 20.87 92.48 C 21.38 89.61 22.08 86.77 23.01 84.01 C 21.92 82.68 20.83 81.35 19.80 79.98 C 21.12 78.95 22.44 77.92 23.75 76.90 C 23.66 76.13 23.47 74.59 23.37 73.82 C 24.87 73.12 26.28 72.25 27.69 71.39 C 27.72 68.96 27.68 66.52 27.64 64.09 C 22.85 68.73 16.65 71.71 10.18 73.15 C 8.15 73.50 6.11 73.77 4.07 74.11 C 4.11 75.69 4.14 77.28 4.13 78.87 C 3.44 79.69 2.73 80.49 2.00 81.26 C 2.55 84.75 2.84 88.38 4.33 91.63 C 6.84 95.69 5.32 100.61 5.93 105.09 C 6.90 101.79 7.56 98.41 8.54 95.12 C 9.71 94.43 10.87 93.73 12.02 93.02 C 12.17 91.68 12.34 90.35 12.53 89.02 L 13.91 88.75 C 13.15 91.65 13.68 95.42 10.05 96.37 C 8.30 100.94 7.63 105.87 5.39 110.26 C 4.55 105.25 4.59 100.15 3.90 95.13 C 1.37 90.84 1.10 85.84 0.13 81.07 C 0.66 80.55 1.73 79.51 2.26 78.98 C 2.35 76.74 2.42 74.49 2.50 72.24 C 11.97 71.81 21.87 68.59 28.00 60.98 C 27.32 58.95 28.81 57.35 29.50 55.58 C 30.38 51.89 30.08 48.06 29.61 44.33 C 28.69 43.58 27.78 42.82 26.86 42.07 C 28.11 38.42 29.99 34.87 30.21 30.95 C 29.55 28.56 27.92 26.60 26.71 24.48 C 24.90 21.62 23.46 18.40 20.84 16.16 C 18.06 16.04 15.54 18.64 12.67 17.31 C 8.84 15.32 5.94 11.95 3.07 8.80 C 7.06 8.78 11.04 8.99 15.03 9.17 C 12.78 6.27 10.90 3.13 9.00 0.00 M 6.98 9.89 C 8.05 12.09 10.27 13.30 12.00 14.91 C 13.85 15.54 15.96 15.52 17.63 14.42 C 17.15 13.73 16.68 13.04 16.21 12.34 C 13.20 11.30 10.15 10.29 6.98 9.89 M 35.80 12.69 C 35.36 12.85 34.49 13.16 34.06 13.32 C 35.69 14.91 38.10 14.78 39.97 13.71 C 41.57 12.22 43.04 10.61 44.28 8.80 C 41.37 9.90 38.46 11.06 35.80 12.69 M 31.50 47.34 C 31.75 50.61 31.50 53.87 31.27 57.13 C 34.15 52.89 36.00 47.71 35.27 42.54 C 33.65 43.68 31.05 44.94 31.50 47.34 Z" />
<path fill="#bf6464" opacity="1.00" d=" M 72.81 0.00 L 77.75 0.00 C 78.24 1.47 78.74 2.93 79.24 4.39 C 76.25 6.13 72.78 5.72 69.49 5.48 C 71.38 4.21 71.92 1.95 72.81 0.00 Z" />
<path fill="#9f4a4d" opacity="1.00" d=" M 77.75 0.00 L 81.31 0.00 C 81.20 1.74 81.04 3.58 79.24 4.39 C 78.74 2.93 78.24 1.47 77.75 0.00 Z" />
<path fill="#842c3a" opacity="1.00" d=" M 81.31 0.00 L 81.33 0.00 C 81.29 3.56 83.61 5.92 86.68 7.29 C 84.45 10.27 81.51 12.59 78.54 14.78 C 78.47 15.28 78.32 16.29 78.25 16.80 C 77.15 17.88 76.04 18.97 74.92 20.03 C 73.79 17.40 74.70 14.56 75.13 11.87 C 74.32 10.94 73.52 10.01 72.68 9.12 C 71.44 7.94 70.09 6.88 68.75 5.82 C 68.94 5.74 69.30 5.57 69.49 5.48 C 72.78 5.72 76.25 6.13 79.24 4.39 C 81.04 3.58 81.20 1.74 81.31 0.00 Z" />
<path fill="#000000" opacity="1.00" d=" M 81.33 0.00 L 83.13 0.00 C 83.52 4.24 90.18 3.39 89.92 7.94 C 88.65 11.38 85.05 13.47 82.36 15.83 C 84.53 16.96 87.27 17.65 88.55 19.94 C 88.55 21.15 88.41 22.35 88.15 23.54 C 91.91 26.19 97.55 28.04 98.59 33.05 C 98.31 40.80 96.58 48.76 92.58 55.48 C 94.57 56.89 96.58 58.36 97.82 60.53 C 99.62 60.56 101.44 60.45 103.23 60.71 C 104.17 61.65 104.39 63.03 104.88 64.22 C 107.19 65.24 109.14 66.84 111.00 68.52 L 111.00 72.28 C 109.27 70.51 107.51 68.78 105.81 66.98 C 103.39 67.29 100.99 67.70 98.57 67.96 C 98.31 65.04 102.85 65.83 102.43 62.89 C 99.63 62.89 96.58 63.17 94.38 61.11 C 91.28 58.72 88.16 55.89 86.98 52.04 C 88.24 52.36 89.55 54.31 90.83 53.19 C 93.77 46.81 94.96 39.76 95.68 32.82 C 92.64 29.51 88.53 27.57 85.03 24.84 C 85.29 23.56 85.55 22.27 85.82 20.99 C 85.44 20.76 84.67 20.30 84.29 20.07 C 81.95 19.63 79.91 18.49 78.25 16.80 C 78.32 16.29 78.47 15.28 78.54 14.78 C 81.51 12.59 84.45 10.27 86.68 7.29 C 83.61 5.92 81.29 3.56 81.33 0.00 Z" />
<path fill="#d3566e" opacity="1.00" d=" M 12.23 2.81 C 17.24 4.65 21.97 7.26 27.15 8.66 C 29.38 9.38 33.00 9.66 32.18 12.98 C 29.54 14.55 26.76 15.90 23.92 17.06 C 20.17 12.19 16.19 7.51 12.23 2.81 Z" />
<path fill="#b0bc7d" opacity="1.00" d=" M 6.98 9.89 C 10.15 10.29 13.20 11.30 16.21 12.34 C 15.49 14.01 13.44 14.15 12.00 14.91 C 10.27 13.30 8.05 12.09 6.98 9.89 Z" />
<path fill="#9acdb5" opacity="1.00" d=" M 35.80 12.69 C 38.46 11.06 41.37 9.90 44.28 8.80 C 43.04 10.61 41.57 12.22 39.97 13.71 C 38.57 13.38 37.19 13.04 35.80 12.69 Z" />
<path fill="#a35151" opacity="1.00" d=" M 70.20 11.71 C 71.03 10.84 71.85 9.98 72.68 9.12 C 73.52 10.01 74.32 10.94 75.13 11.87 C 74.70 14.56 73.79 17.40 74.92 20.03 C 76.04 18.97 77.15 17.88 78.25 16.80 C 79.91 18.49 81.95 19.63 84.29 20.07 C 83.07 27.33 82.64 34.73 80.76 41.87 C 79.05 49.90 77.05 57.86 75.58 65.94 C 75.25 67.68 75.40 69.46 75.52 71.22 C 74.38 71.70 73.26 72.26 72.15 72.81 C 72.82 74.52 73.58 76.20 74.51 77.79 C 74.02 80.54 72.93 83.21 72.81 86.02 C 72.96 87.83 75.01 88.22 76.20 89.17 C 76.37 89.73 76.71 90.83 76.88 91.38 C 75.96 91.49 75.09 91.32 74.33 90.81 C 71.72 95.42 69.05 100.89 63.67 102.71 C 55.71 102.06 47.59 103.21 39.74 101.39 C 43.95 100.75 48.22 100.77 52.43 100.16 C 57.64 100.26 62.67 98.76 67.48 96.89 C 67.48 96.24 67.48 94.95 67.49 94.31 C 70.54 89.48 74.50 82.79 70.98 77.32 C 70.44 77.44 69.36 77.66 68.82 77.77 C 69.87 77.45 70.91 77.12 71.95 76.77 C 71.76 72.26 70.48 67.88 67.58 64.36 C 67.53 62.01 68.65 59.68 69.01 57.34 C 71.91 53.73 75.98 49.24 73.43 44.29 C 73.91 43.07 74.40 41.86 74.90 40.64 C 73.91 40.71 72.92 40.78 71.94 40.86 C 70.12 36.45 70.85 31.61 70.45 26.98 C 70.28 23.21 69.33 19.54 68.93 15.81 C 69.19 15.02 69.85 14.39 70.28 13.67 C 70.26 13.18 70.22 12.20 70.20 11.71 Z" />
<path fill="#4a7686" opacity="1.00" d=" M 16.21 12.34 C 16.68 13.04 17.15 13.73 17.63 14.42 C 15.96 15.52 13.85 15.54 12.00 14.91 C 13.44 14.15 15.49 14.01 16.21 12.34 Z" />
<path fill="#2f5e7c" opacity="1.00" d=" M 34.06 13.32 C 34.49 13.16 35.36 12.85 35.80 12.69 C 37.19 13.04 38.57 13.38 39.97 13.71 C 38.10 14.78 35.69 14.91 34.06 13.32 Z" />
<path fill="#ce7671" opacity="1.00" d=" M 41.52 25.10 C 50.42 19.41 59.41 12.99 70.20 11.71 C 70.22 12.20 70.26 13.18 70.28 13.67 C 69.85 14.39 69.19 15.02 68.93 15.81 C 69.33 19.54 70.28 23.21 70.45 26.98 C 70.85 31.61 70.12 36.45 71.94 40.86 C 72.92 40.78 73.91 40.71 74.90 40.64 C 74.40 41.86 73.91 43.07 73.43 44.29 C 67.06 37.52 57.02 34.49 47.89 35.15 C 46.71 39.30 46.57 43.65 46.10 47.92 C 45.62 51.06 47.60 53.76 48.79 56.50 C 50.35 56.77 51.91 57.12 53.33 57.88 C 52.85 58.03 51.89 58.33 51.41 58.48 L 50.77 58.69 C 51.10 59.36 51.76 60.70 52.09 61.36 C 51.88 62.04 51.46 63.38 51.26 64.06 C 54.62 64.83 57.96 65.69 61.31 66.48 C 61.42 65.99 61.64 65.02 61.75 64.53 C 59.12 63.25 56.47 61.93 54.31 59.93 L 55.95 59.50 C 60.00 63.39 65.73 60.92 69.01 57.34 C 68.65 59.68 67.53 62.01 67.58 64.36 C 70.48 67.88 71.76 72.26 71.95 76.77 C 70.91 77.12 69.87 77.45 68.82 77.77 L 68.02 77.99 C 67.50 77.17 66.98 76.36 66.46 75.55 C 65.19 75.24 63.93 74.92 62.67 74.59 C 61.93 72.95 61.15 71.31 60.33 69.71 C 58.85 69.62 57.03 68.49 55.77 69.72 C 51.64 73.34 46.74 75.91 42.19 78.96 C 40.01 75.69 38.26 72.18 36.39 68.74 C 34.40 72.20 35.38 76.31 35.34 80.08 C 35.80 85.93 35.00 91.92 36.50 97.64 C 40.88 101.31 47.20 99.32 52.43 100.16 C 48.22 100.77 43.95 100.75 39.74 101.39 C 38.35 101.08 36.97 100.74 35.60 100.32 C 34.00 99.74 32.45 98.98 30.78 98.59 C 28.58 98.87 26.47 99.57 24.30 100.01 C 26.37 96.79 29.62 94.04 30.02 90.01 C 30.66 84.18 30.32 78.30 30.51 72.45 C 34.71 71.25 34.38 66.05 33.66 62.67 C 35.15 60.25 37.41 56.88 35.50 54.13 C 37.92 49.31 38.11 43.89 37.67 38.62 C 38.59 35.84 39.50 33.04 39.97 30.14 C 40.29 28.40 40.73 26.68 41.52 25.10 Z" />
<path fill="#ae4a56" opacity="1.00" d=" M 23.92 17.06 C 26.76 15.90 29.54 14.55 32.18 12.98 C 32.15 15.86 32.11 18.75 32.17 21.63 C 31.06 22.43 29.95 23.22 28.84 24.01 C 27.46 21.52 25.64 19.32 23.92 17.06 Z" />
<path fill="#7d2435" opacity="1.00" d=" M 84.29 20.07 C 84.67 20.30 85.44 20.76 85.82 20.99 C 85.55 22.27 85.29 23.56 85.03 24.84 C 88.53 27.57 92.64 29.51 95.68 32.82 C 94.96 39.76 93.77 46.81 90.83 53.19 C 89.55 54.31 88.24 52.36 86.98 52.04 C 86.66 49.76 86.22 47.48 85.08 45.44 C 84.22 46.70 83.39 47.97 82.55 49.25 C 81.81 46.83 81.09 44.39 80.76 41.87 C 82.64 34.73 83.07 27.33 84.29 20.07 Z" />
<path fill="#872d3b" opacity="1.00" d=" M 32.17 21.63 C 33.65 22.22 35.12 22.84 36.57 23.49 C 34.93 26.53 33.88 29.82 32.88 33.11 C 32.73 33.43 32.42 34.06 32.26 34.38 C 33.27 30.39 30.53 27.30 28.84 24.01 C 29.95 23.22 31.06 22.43 32.17 21.63 Z" />
<path fill="#9a454a" opacity="1.00" d=" M 36.57 23.49 C 38.00 24.12 39.42 24.77 40.86 25.39 L 41.52 25.10 C 40.73 26.68 40.29 28.40 39.97 30.14 C 39.58 29.72 38.81 28.87 38.42 28.45 C 36.63 30.07 34.77 31.60 32.88 33.11 C 33.88 29.82 34.93 26.53 36.57 23.49 Z" />
<path fill="#bc6764" opacity="1.00" d=" M 32.88 33.11 C 34.77 31.60 36.63 30.07 38.42 28.45 C 38.81 28.87 39.58 29.72 39.97 30.14 C 39.50 33.04 38.59 35.84 37.67 38.62 C 34.35 37.56 32.64 41.90 30.59 43.77 C 28.34 40.58 31.05 37.39 32.26 34.38 C 32.42 34.06 32.73 33.43 32.88 33.11 Z" />
<path fill="#0d0d17" opacity="1.00" d=" M 47.89 35.15 C 57.02 34.49 67.06 37.52 73.43 44.29 C 75.98 49.24 71.91 53.73 69.01 57.34 C 65.73 60.92 60.00 63.39 55.95 59.50 C 55.09 58.95 54.24 58.36 53.33 57.88 C 51.91 57.12 50.35 56.77 48.79 56.50 C 47.60 53.76 45.62 51.06 46.10 47.92 C 46.57 43.65 46.71 39.30 47.89 35.15 M 48.43 43.89 L 49.19 44.86 L 48.29 44.78 C 48.27 45.94 48.25 47.11 48.25 48.27 L 48.57 48.36 C 48.98 51.43 50.12 54.74 53.06 56.26 C 56.29 57.84 59.57 61.13 63.33 59.04 C 64.63 58.13 65.90 57.17 67.12 56.14 C 71.88 53.34 70.47 46.31 65.94 44.09 C 63.01 42.87 60.02 41.76 57.00 40.78 C 53.76 39.94 50.88 42.08 48.43 43.89 Z" />
<path fill="#2e2432" opacity="1.00" d=" M 48.43 43.89 C 50.88 42.08 53.76 39.94 57.00 40.78 C 60.02 41.76 63.01 42.87 65.94 44.09 C 70.47 46.31 71.88 53.34 67.12 56.14 C 64.99 52.72 63.06 48.69 59.16 46.97 C 55.98 45.73 52.54 45.37 49.19 44.86 L 48.43 43.89 Z" />
<path fill="#8a373e" opacity="1.00" d=" M 75.58 65.94 C 77.05 57.86 79.05 49.90 80.76 41.87 C 81.09 44.39 81.81 46.83 82.55 49.25 C 83.79 53.37 84.97 57.55 85.09 61.88 C 83.70 61.40 82.31 60.92 80.93 60.43 C 80.61 61.41 80.28 62.39 80.01 63.39 C 79.43 66.10 81.84 67.13 83.89 67.93 C 81.22 69.32 78.44 70.47 75.52 71.22 C 75.40 69.46 75.25 67.68 75.58 65.94 Z" />
<path fill="#1e1221" opacity="1.00" d=" M 31.50 47.34 C 31.05 44.94 33.65 43.68 35.27 42.54 C 36.00 47.71 34.15 52.89 31.27 57.13 C 31.50 53.87 31.75 50.61 31.50 47.34 Z" />
<path fill="#5f243c" opacity="1.00" d=" M 48.29 44.78 L 49.19 44.86 C 52.54 45.37 55.98 45.73 59.16 46.97 C 63.06 48.69 64.99 52.72 67.12 56.14 C 65.90 57.17 64.63 58.13 63.33 59.04 C 61.76 56.83 60.33 54.46 58.31 52.63 C 55.52 50.34 52.00 49.26 48.57 48.36 L 48.25 48.27 C 48.25 47.11 48.27 45.94 48.29 44.78 Z" />
<path fill="#9e484d" opacity="1.00" d=" M 82.55 49.25 C 83.39 47.97 84.22 46.70 85.08 45.44 C 86.22 47.48 86.66 49.76 86.98 52.04 C 88.16 55.89 91.28 58.72 94.38 61.11 C 94.25 62.49 94.13 63.86 93.99 65.23 C 90.98 64.23 88.08 62.93 85.09 61.88 C 84.97 57.55 83.79 53.37 82.55 49.25 Z" />
<path fill="#951e42" opacity="1.00" d=" M 48.57 48.36 C 52.00 49.26 55.52 50.34 58.31 52.63 C 60.33 54.46 61.76 56.83 63.33 59.04 C 59.57 61.13 56.29 57.84 53.06 56.26 C 50.12 54.74 48.98 51.43 48.57 48.36 Z" />
<path fill="#b96360" opacity="1.00" d=" M 31.52 61.12 C 32.60 58.79 34.04 56.64 35.58 54.60 C 35.05 58.27 33.04 61.41 31.26 64.57 C 31.86 64.10 33.06 63.15 33.66 62.67 C 34.38 66.05 34.71 71.25 30.51 72.45 C 30.51 68.67 30.16 64.73 31.52 61.12 Z" />
<path fill="#b65b5f" opacity="1.00" d=" M 51.41 58.48 C 51.89 58.33 52.85 58.03 53.33 57.88 C 54.24 58.36 55.09 58.95 55.95 59.50 L 54.31 59.93 C 56.47 61.93 59.12 63.25 61.75 64.53 C 61.64 65.02 61.42 65.99 61.31 66.48 C 57.96 65.69 54.62 64.83 51.26 64.06 C 51.46 63.38 51.88 62.04 52.09 61.36 C 52.81 60.22 52.58 59.26 51.41 58.48 Z" />
<path fill="#4b2126" opacity="1.00" d=" M 50.77 58.69 L 51.41 58.48 C 52.58 59.26 52.81 60.22 52.09 61.36 C 51.76 60.70 51.10 59.36 50.77 58.69 Z" />
<path fill="#812a38" opacity="1.00" d=" M 80.93 60.43 C 82.31 60.92 83.70 61.40 85.09 61.88 C 88.08 62.93 90.98 64.23 93.99 65.23 C 94.13 63.86 94.25 62.49 94.38 61.11 C 96.58 63.17 99.63 62.89 102.43 62.89 C 102.85 65.83 98.31 65.04 98.57 67.96 C 100.99 67.70 103.39 67.29 105.81 66.98 C 107.51 68.78 109.27 70.51 111.00 72.28 L 111.00 73.68 C 109.52 74.72 108.05 75.78 106.65 76.93 C 107.39 77.97 108.12 79.02 108.89 80.04 C 107.30 84.09 106.25 88.42 103.86 92.11 C 102.45 91.37 101.04 90.63 99.64 89.90 C 97.75 96.62 95.45 103.22 93.19 109.82 C 89.52 104.57 87.79 98.29 84.43 92.86 C 83.26 94.36 82.11 95.86 80.94 97.35 C 79.76 95.44 78.73 93.39 78.67 91.11 C 79.81 90.80 80.95 90.49 82.10 90.18 C 83.21 87.51 84.29 84.82 85.30 82.10 C 85.62 83.28 85.95 84.47 86.29 85.65 C 87.42 86.02 88.55 86.38 89.68 86.75 C 89.90 90.25 88.89 94.28 91.38 97.18 C 93.59 92.77 94.23 87.91 94.97 83.11 C 96.99 81.42 99.59 80.41 101.12 78.18 C 99.88 75.87 99.04 73.38 97.94 71.01 C 96.97 69.41 95.62 68.03 95.23 66.13 C 94.75 66.17 93.77 66.24 93.29 66.27 C 91.63 68.97 88.72 71.45 85.37 70.13 C 87.27 69.21 89.27 68.54 91.26 67.84 C 87.49 66.35 83.11 66.28 80.01 63.39 C 80.28 62.39 80.61 61.41 80.93 60.43 Z" />
<path fill="#c16967" opacity="1.00" d=" M 10.18 73.15 C 16.65 71.71 22.85 68.73 27.64 64.09 C 27.68 66.52 27.72 68.96 27.69 71.39 C 26.28 72.25 24.87 73.12 23.37 73.82 C 19.00 75.17 14.08 76.38 10.18 73.15 Z" />
<path fill="#000000" opacity="1.00" d=" M 80.01 63.39 C 83.11 66.28 87.49 66.35 91.26 67.84 C 89.27 68.54 87.27 69.21 85.37 70.13 C 82.24 71.71 79.00 73.07 75.66 74.11 C 76.18 75.13 76.71 76.14 77.24 77.16 C 76.50 80.13 75.62 83.06 74.72 85.98 C 75.92 86.42 77.14 86.85 78.35 87.29 C 78.44 88.56 78.54 89.83 78.67 91.11 C 78.73 93.39 79.76 95.44 80.94 97.35 C 82.11 95.86 83.26 94.36 84.43 92.86 C 87.79 98.29 89.52 104.57 93.19 109.82 C 95.45 103.22 97.75 96.62 99.64 89.90 C 101.04 90.63 102.45 91.37 103.86 92.11 C 106.25 88.42 107.30 84.09 108.89 80.04 C 108.12 79.02 107.39 77.97 106.65 76.93 C 108.05 75.78 109.52 74.72 111.00 73.68 L 111.00 81.61 C 109.22 86.58 106.63 91.20 104.33 95.93 C 102.88 95.30 101.57 94.40 100.34 93.42 C 100.13 94.14 99.71 95.58 99.50 96.30 C 103.31 97.03 107.15 97.51 111.00 97.92 L 111.00 111.00 L 90.55 111.00 C 88.75 105.70 86.45 100.60 84.27 95.45 C 83.27 96.78 82.41 98.22 81.51 99.63 C 79.14 97.42 77.62 94.52 76.88 91.38 C 76.71 90.83 76.37 89.73 76.20 89.17 C 75.01 88.22 72.96 87.83 72.81 86.02 C 72.93 83.21 74.02 80.54 74.51 77.79 C 73.58 76.20 72.82 74.52 72.15 72.81 C 73.26 72.26 74.38 71.70 75.52 71.22 C 78.44 70.47 81.22 69.32 83.89 67.93 C 81.84 67.13 79.43 66.10 80.01 63.39 Z" />
<path fill="#a34e51" opacity="1.00" d=" M 93.29 66.27 C 93.77 66.24 94.75 66.17 95.23 66.13 C 95.62 68.03 96.97 69.41 97.94 71.01 C 99.04 73.38 99.88 75.87 101.12 78.18 C 99.59 80.41 96.99 81.42 94.97 83.11 C 94.23 87.91 93.59 92.77 91.38 97.18 C 88.89 94.28 89.90 90.25 89.68 86.75 C 88.55 86.38 87.42 86.02 86.29 85.65 C 85.95 84.47 85.62 83.28 85.30 82.10 C 84.29 84.82 83.21 87.51 82.10 90.18 C 80.95 90.49 79.81 90.80 78.67 91.11 C 78.54 89.83 78.44 88.56 78.35 87.29 C 77.14 86.85 75.92 86.42 74.72 85.98 C 75.62 83.06 76.50 80.13 77.24 77.16 C 76.71 76.14 76.18 75.13 75.66 74.11 C 79.00 73.07 82.24 71.71 85.37 70.13 C 88.72 71.45 91.63 68.97 93.29 66.27 Z" />
<path fill="#000000" opacity="1.00" d=" M 35.34 80.08 C 35.38 76.31 34.40 72.20 36.39 68.74 C 38.26 72.18 40.01 75.69 42.19 78.96 C 46.74 75.91 51.64 73.34 55.77 69.72 C 57.03 68.49 58.85 69.62 60.33 69.71 C 61.15 71.31 61.93 72.95 62.67 74.59 C 63.93 74.92 65.19 75.24 66.46 75.55 C 66.98 76.36 67.50 77.17 68.02 77.99 L 68.82 77.77 C 69.36 77.66 70.44 77.44 70.98 77.32 C 74.50 82.79 70.54 89.48 67.49 94.31 C 67.48 94.95 67.48 96.24 67.48 96.89 C 62.67 98.76 57.64 100.26 52.43 100.16 C 47.20 99.32 40.88 101.31 36.50 97.64 C 35.00 91.92 35.80 85.93 35.34 80.08 Z" />
<path fill="#88333d" opacity="1.00" d=" M 4.07 74.11 C 6.11 73.77 8.15 73.50 10.18 73.15 C 14.08 76.38 19.00 75.17 23.37 73.82 C 23.47 74.59 23.66 76.13 23.75 76.90 C 22.44 77.92 21.12 78.95 19.80 79.98 C 20.83 81.35 21.92 82.68 23.01 84.01 C 22.08 86.77 21.38 89.61 20.87 92.48 C 20.84 92.51 20.79 92.58 20.77 92.61 C 20.09 92.90 18.72 93.49 18.04 93.78 C 18.20 91.91 18.25 90.02 17.93 88.16 C 17.15 88.27 15.61 88.48 14.83 88.59 C 14.52 88.64 14.22 88.69 13.91 88.75 L 12.53 89.02 C 12.34 90.35 12.17 91.68 12.02 93.02 C 10.87 93.73 9.71 94.43 8.54 95.12 C 8.11 93.52 7.67 91.93 7.27 90.32 C 9.27 88.75 12.00 87.57 12.70 84.89 C 13.33 83.04 13.84 81.11 13.82 79.14 C 12.04 76.72 8.93 75.54 5.99 75.52 C 5.07 76.44 4.75 77.76 4.13 78.87 C 4.14 77.28 4.11 75.69 4.07 74.11 Z" />
<path fill="#a84d53" opacity="1.00" d=" M 4.13 78.87 C 4.75 77.76 5.07 76.44 5.99 75.52 C 8.93 75.54 12.04 76.72 13.82 79.14 C 13.84 81.11 13.33 83.04 12.70 84.89 C 12.00 87.57 9.27 88.75 7.27 90.32 C 7.67 91.93 8.11 93.52 8.54 95.12 C 7.56 98.41 6.90 101.79 5.93 105.09 C 5.32 100.61 6.84 95.69 4.33 91.63 C 2.84 88.38 2.55 84.75 2.00 81.26 C 2.73 80.49 3.44 79.69 4.13 78.87 Z" />
<path fill="#060203" opacity="0.95" d=" M 14.83 88.59 C 15.61 88.48 17.15 88.27 17.93 88.16 C 18.25 90.02 18.20 91.91 18.04 93.78 C 18.72 93.49 20.09 92.90 20.77 92.61 C 19.47 94.47 18.10 96.29 16.69 98.07 C 14.50 95.41 16.77 91.49 14.83 88.59 Z" />
<path fill="#822839" opacity="1.00" d=" M 74.33 90.81 C 75.09 91.32 75.96 91.49 76.88 91.38 C 77.62 94.52 79.14 97.42 81.51 99.63 C 80.97 102.72 81.82 105.78 82.68 108.72 C 76.37 106.56 70.51 102.94 63.67 102.71 C 69.05 100.89 71.72 95.42 74.33 90.81 Z" />
<path fill="#8e3841" opacity="1.00" d=" M 81.51 99.63 C 82.41 98.22 83.27 96.78 84.27 95.45 C 86.45 100.60 88.75 105.70 90.55 111.00 L 88.32 111.00 C 86.45 110.21 84.59 109.39 82.68 108.72 C 81.82 105.78 80.97 102.72 81.51 99.63 Z" />
<path fill="#a35151" opacity="1.00" d=" M 24.30 100.01 C 26.47 99.57 28.58 98.87 30.78 98.59 C 32.45 98.98 34.00 99.74 35.60 100.32 C 31.34 102.23 26.22 100.78 22.27 103.79 C 22.94 102.52 23.58 101.24 24.30 100.01 Z" />
</svg>
