<?xml version="1.0" encoding="UTF-8" ?>
<!DOCTYPE svg PUBLIC "-//W3C//DTD SVG 1.1//EN" "http://www.w3.org/Graphics/SVG/1.1/DTD/svg11.dtd">
<svg width="111pt" height="111pt" viewBox="0 0 111 111" version="1.1" xmlns="http://www.w3.org/2000/svg">
<path fill="#000000" opacity="1.00" d=" M 67.02 9.48 C 72.94 10.61 77.39 4.96 83.36 5.59 C 83.14 8.11 83.24 10.65 82.74 13.14 C 86.47 16.03 90.72 18.61 93.27 22.70 C 95.29 26.87 97.12 31.30 97.25 36.00 C 97.14 40.41 95.96 44.67 94.87 48.91 C 100.07 55.73 105.34 62.60 111.00 68.97 L 111.00 72.74 C 104.49 64.71 97.73 56.85 91.84 48.34 C 88.86 44.54 87.05 40.06 84.77 35.84 C 83.52 36.59 82.81 37.91 82.16 39.16 C 84.80 43.76 86.76 48.72 89.34 53.36 C 92.25 57.79 94.38 63.05 99.05 65.93 C 102.97 69.95 106.75 74.11 111.00 77.79 L 111.00 80.69 C 106.71 77.14 103.01 72.97 99.06 69.07 C 102.61 74.95 106.51 80.72 111.00 85.92 L 111.00 89.31 C 109.74 87.34 108.11 85.67 106.71 83.82 C 102.15 77.49 97.82 70.96 93.77 64.28 C 91.23 59.28 87.34 55.11 84.99 49.99 C 82.94 46.19 81.43 42.13 79.62 38.22 C 79.33 38.22 78.75 38.21 78.45 38.21 C 76.24 43.75 73.92 49.41 69.86 53.90 C 72.76 51.30 75.56 48.60 78.38 45.92 C 78.70 44.91 78.88 43.87 78.91 42.80 C 81.54 50.50 85.73 57.59 88.90 65.09 C 93.23 73.15 96.38 82.13 103.37 88.39 C 105.58 90.87 108.30 92.80 111.00 94.70 L 111.00 97.22 C 107.77 95.20 104.78 92.84 102.02 90.21 C 105.14 95.40 107.43 101.13 111.00 106.00 L 111.00 106.28 C 108.40 107.46 105.41 106.61 103.43 104.68 C 96.44 98.20 91.09 90.24 85.56 82.53 C 82.05 77.58 79.68 71.97 77.15 66.48 C 72.66 67.67 67.91 67.54 63.55 69.26 C 66.86 82.18 74.98 93.16 80.07 105.39 C 77.62 105.20 75.81 103.40 73.83 102.16 C 69.96 99.58 66.70 96.19 64.10 92.35 C 61.64 93.79 59.01 95.12 56.13 95.38 C 48.58 96.13 40.94 96.41 33.40 95.36 C 32.25 94.96 30.18 94.65 30.34 93.02 C 30.27 90.96 32.73 90.60 34.12 89.79 C 42.37 86.86 50.93 84.68 59.58 83.35 C 57.67 79.46 55.94 75.38 55.31 71.06 L 56.18 69.94 C 58.23 75.05 59.80 80.34 62.58 85.13 C 65.41 91.79 69.81 98.17 76.45 101.48 C 74.41 96.14 71.16 91.41 68.58 86.34 C 65.43 80.45 62.83 74.23 61.27 67.72 C 60.16 64.54 59.82 61.09 58.03 58.18 C 56.79 59.25 56.55 60.52 57.31 61.97 C 56.93 63.33 56.40 64.65 55.97 66.00 C 55.96 66.52 55.94 67.57 55.93 68.09 C 55.92 68.41 55.89 69.05 55.88 69.37 C 54.16 69.61 54.06 71.38 53.47 72.60 C 52.12 77.62 47.55 80.71 43.53 83.54 C 39.88 85.60 36.19 88.17 31.90 88.47 C 32.57 83.60 34.97 79.28 37.12 74.96 C 35.32 74.99 33.56 75.56 31.75 75.43 C 31.79 79.57 29.82 83.34 27.81 86.83 C 27.24 87.83 26.39 88.13 25.26 87.74 C 24.67 85.48 24.84 83.13 24.82 80.82 C 22.95 82.58 21.43 86.22 18.43 85.64 C 17.25 84.36 16.89 82.57 16.20 81.03 C 11.42 85.57 6.39 90.42 0.00 92.51 L 0.00 90.70 C 0.76 89.74 1.41 88.70 2.23 87.79 C 2.61 87.98 3.38 88.36 3.77 88.55 C 8.18 85.98 12.28 82.67 15.67 78.82 C 14.43 73.46 14.35 65.96 19.79 62.88 C 20.58 62.50 22.16 61.76 22.94 61.39 C 22.05 63.38 21.70 65.55 21.29 67.67 C 23.72 69.58 25.73 72.32 28.84 73.15 C 31.84 73.63 34.98 73.62 37.93 72.91 C 39.81 71.81 40.88 69.69 42.77 68.68 C 42.71 69.09 42.61 69.90 42.55 70.31 C 39.66 74.79 36.36 79.08 34.60 84.19 C 34.39 84.78 33.98 85.97 33.77 86.57 C 38.89 84.43 43.66 81.43 47.85 77.79 C 52.02 74.23 52.73 68.43 53.68 63.37 C 51.76 63.82 49.81 64.28 48.20 65.48 C 47.01 66.55 45.85 67.79 44.27 68.26 L 43.42 68.14 C 44.36 66.48 45.72 65.15 47.13 63.89 C 48.32 60.82 46.96 56.98 43.59 56.11 C 40.20 54.87 36.79 53.37 33.14 53.14 C 30.09 54.31 26.93 55.90 25.00 58.65 C 24.49 59.18 23.48 60.23 22.97 60.75 C 23.00 59.02 23.10 57.29 23.27 55.57 C 22.42 54.06 22.36 51.08 20.07 51.18 C 18.75 54.89 18.09 58.83 16.45 62.45 C 14.24 69.42 10.86 75.93 7.35 82.32 C 6.48 83.96 5.32 85.42 3.68 86.34 C 9.45 77.28 13.52 67.20 16.67 56.95 C 17.49 53.58 17.82 49.90 20.41 47.30 C 20.38 43.55 19.25 39.75 20.37 36.04 C 22.68 36.25 23.72 38.71 25.29 40.08 C 24.79 35.45 24.37 30.77 24.99 26.13 C 29.25 25.50 32.12 29.32 34.86 31.93 C 36.25 26.66 38.81 21.58 42.84 17.84 C 49.05 11.45 58.36 9.18 67.02 9.48 M 75.13 9.93 C 75.38 11.64 77.21 11.41 78.49 11.34 L 79.76 12.45 L 81.18 12.34 C 81.40 10.77 81.34 9.22 80.98 7.69 L 79.87 8.44 C 78.28 8.90 76.74 9.53 75.13 9.93 M 51.27 14.92 C 49.02 17.87 47.09 21.26 46.53 24.97 C 52.78 19.84 60.56 17.22 67.78 13.89 C 67.77 13.47 67.74 12.63 67.73 12.21 C 62.20 12.32 56.24 12.21 51.27 14.92 M 70.65 12.41 C 71.13 14.48 69.52 15.58 67.98 16.42 C 60.39 19.95 51.54 22.22 46.00 28.91 C 44.52 28.11 41.58 29.61 41.28 31.07 C 38.28 31.17 36.40 33.99 33.95 35.24 C 30.19 38.49 27.54 43.21 27.09 48.19 C 26.06 49.76 27.00 51.84 26.76 53.59 C 28.75 53.77 30.13 51.92 32.05 51.78 C 36.83 50.95 41.24 53.59 45.67 54.93 C 48.68 56.52 49.18 59.95 49.66 62.98 C 51.17 62.08 51.55 60.24 51.97 58.68 C 53.94 58.35 55.82 57.60 57.52 56.54 C 58.75 55.58 59.43 57.77 60.08 58.42 C 61.71 58.01 62.50 56.23 63.49 55.00 C 63.61 59.35 69.30 54.18 65.16 53.47 C 67.97 51.93 71.45 49.07 70.17 45.45 C 70.50 43.93 70.25 42.30 70.30 40.75 C 70.60 42.21 71.31 43.53 71.75 44.94 C 75.36 42.91 75.47 37.90 78.03 34.83 C 78.91 35.87 79.96 36.74 80.95 37.67 C 81.72 36.44 82.66 35.31 83.36 34.03 C 86.43 34.95 87.20 38.84 89.92 40.08 C 90.92 37.49 92.52 35.19 93.75 32.71 C 93.23 29.07 91.68 25.45 89.56 22.44 C 85.56 18.36 80.76 14.25 74.87 13.62 C 73.47 13.17 72.09 12.69 70.65 12.41 M 45.61 18.15 C 43.12 19.55 41.51 22.00 40.10 24.41 C 39.27 26.26 37.87 27.88 37.69 29.98 C 40.02 28.71 42.65 28.03 45.29 27.80 C 44.58 23.77 46.39 19.85 48.01 16.20 C 47.17 16.79 46.24 17.33 45.61 18.15 M 26.69 28.32 C 26.74 31.51 26.61 34.71 27.02 37.89 C 27.10 38.60 27.31 39.30 27.65 39.98 C 28.98 37.42 30.74 35.09 32.87 33.14 C 32.58 32.92 31.99 32.46 31.69 32.23 C 30.05 31.04 29.08 27.77 26.69 28.32 M 21.83 38.38 C 21.39 41.99 21.63 45.76 23.09 49.11 C 23.47 51.19 23.24 54.27 25.69 55.12 C 24.54 52.12 24.41 48.89 24.45 45.71 C 24.78 45.28 25.45 44.41 25.79 43.98 C 23.54 42.70 24.17 39.12 21.83 38.38 M 76.90 49.94 L 76.85 50.74 C 74.46 52.98 72.15 55.32 69.49 57.25 C 66.54 58.19 63.72 59.69 60.92 61.02 C 61.93 62.48 61.24 66.35 63.74 65.87 C 66.62 63.48 69.50 61.03 72.02 58.25 C 72.87 57.67 73.80 57.26 74.80 57.02 C 77.24 62.23 80.13 67.21 82.63 72.39 C 85.71 79.32 90.69 85.13 95.03 91.27 C 98.64 95.59 101.82 100.70 106.65 103.72 C 106.44 100.78 104.40 98.50 102.86 96.14 C 100.77 93.21 99.33 89.90 97.42 86.87 C 96.30 84.95 95.38 82.91 94.26 80.99 C 92.95 77.43 90.97 74.16 89.19 70.82 C 87.08 63.22 82.26 56.84 78.99 49.75 L 78.25 49.27 L 76.90 49.94 M 17.42 67.97 C 17.12 71.82 16.89 75.70 17.59 79.52 C 18.11 80.89 18.27 82.36 18.85 83.71 C 22.22 81.25 23.68 76.74 24.69 72.81 C 24.07 71.85 23.31 71.01 22.49 70.23 C 21.38 69.71 20.39 68.99 19.53 68.07 C 19.74 67.16 20.16 65.32 20.37 64.40 C 18.46 64.37 17.41 66.28 17.42 67.97 M 26.27 74.08 C 26.22 77.72 26.38 81.35 26.44 84.99 C 28.36 82.12 29.26 78.73 30.72 75.63 C 29.32 74.89 27.82 74.42 26.27 74.08 Z" />
<path fill="#ffe15c" opacity="1.00" d=" M 75.13 9.93 C 76.74 9.53 78.28 8.90 79.87 8.44 C 79.46 8.70 78.63 9.22 78.22 9.48 C 78.27 10.11 78.36 10.73 78.49 11.34 C 77.21 11.41 75.38 11.64 75.13 9.93 Z" />
<path fill="#9b1231" opacity="1.00" d=" M 79.87 8.44 L 80.98 7.69 C 81.34 9.22 81.40 10.77 81.18 12.34 L 79.76 12.45 L 78.49 11.34 C 78.36 10.73 78.27 10.11 78.22 9.48 C 78.63 9.22 79.46 8.70 79.87 8.44 Z" />
<path fill="#ffe35d" opacity="1.00" d=" M 51.27 14.92 C 56.24 12.21 62.20 12.32 67.73 12.21 C 67.74 12.63 67.77 13.47 67.78 13.89 C 60.56 17.22 52.78 19.84 46.53 24.97 C 47.09 21.26 49.02 17.87 51.27 14.92 Z" />
<path fill="#e7336f" opacity="1.00" d=" M 70.65 12.41 C 72.09 12.69 73.47 13.17 74.87 13.62 C 76.26 17.76 78.21 21.70 79.00 26.04 C 76.44 26.34 74.48 24.16 71.96 24.04 C 70.11 21.79 68.70 19.25 67.98 16.42 C 69.52 15.58 71.13 14.48 70.65 12.41 Z" />
<path fill="#630437" opacity="1.00" d=" M 74.87 13.62 C 80.76 14.25 85.56 18.36 89.56 22.44 C 91.68 25.45 93.23 29.07 93.75 32.71 C 92.52 35.19 90.92 37.49 89.92 40.08 C 87.20 38.84 86.43 34.95 83.36 34.03 C 82.66 35.31 81.72 36.44 80.95 37.67 C 79.96 36.74 78.91 35.87 78.03 34.83 C 79.97 32.62 80.22 29.68 79.16 26.99 C 79.12 26.75 79.04 26.27 79.00 26.04 C 78.21 21.70 76.26 17.76 74.87 13.62 Z" />
<path fill="#ff3d84" opacity="1.00" d=" M 45.61 18.15 C 46.24 17.33 47.17 16.79 48.01 16.20 C 46.39 19.85 44.58 23.77 45.29 27.80 C 42.65 28.03 40.02 28.71 37.69 29.98 C 37.87 27.88 39.27 26.26 40.10 24.41 C 43.45 24.58 44.85 20.79 45.61 18.15 Z" />
<path fill="#f63a7c" opacity="1.00" d=" M 46.00 28.91 C 51.54 22.22 60.39 19.95 67.98 16.42 C 68.70 19.25 70.11 21.79 71.96 24.04 C 73.04 26.82 72.99 29.84 73.26 32.76 C 72.13 34.07 71.07 35.44 70.03 36.82 C 64.61 30.89 56.84 26.72 48.61 27.66 L 48.04 28.72 C 47.53 28.77 46.51 28.86 46.00 28.91 Z" />
<path fill="#d6bf32" opacity="1.00" d=" M 40.10 24.41 C 41.51 22.00 43.12 19.55 45.61 18.15 C 44.85 20.79 43.45 24.58 40.10 24.41 Z" />
<path fill="#cc285a" opacity="1.00" d=" M 71.96 24.04 C 74.48 24.16 76.44 26.34 79.00 26.04 C 79.04 26.27 79.12 26.75 79.16 26.99 C 80.43 31.00 76.70 33.09 73.26 32.76 C 72.99 29.84 73.04 26.82 71.96 24.04 Z" />
<path fill="#9f1953" opacity="1.00" d=" M 79.16 26.99 C 80.22 29.68 79.97 32.62 78.03 34.83 C 75.47 37.90 75.36 42.91 71.75 44.94 C 71.31 43.53 70.60 42.21 70.30 40.75 C 70.25 42.30 70.50 43.93 70.17 45.45 C 68.70 46.88 67.15 48.23 65.58 49.55 C 63.69 50.72 61.90 49.12 60.78 47.70 C 62.68 45.39 62.72 42.28 63.54 39.54 C 64.17 37.49 66.64 37.18 68.36 36.52 C 68.61 36.78 69.11 37.31 69.37 37.57 C 69.53 37.38 69.87 37.01 70.03 36.82 C 71.07 35.44 72.13 34.07 73.26 32.76 C 76.70 33.09 80.43 31.00 79.16 26.99 Z" />
<path fill="#ff3e86" opacity="1.00" d=" M 26.69 28.32 C 29.08 27.77 30.05 31.04 31.69 32.23 C 30.56 32.45 29.51 32.84 28.52 33.41 C 28.52 34.10 28.50 35.47 28.50 36.15 C 28.13 36.59 27.39 37.45 27.02 37.89 C 26.61 34.71 26.74 31.51 26.69 28.32 Z" />
<path fill="#000000" opacity="1.00" d=" M 48.61 27.66 C 56.84 26.72 64.61 30.89 70.03 36.82 C 69.87 37.01 69.53 37.38 69.37 37.57 C 69.11 37.31 68.61 36.78 68.36 36.52 C 63.70 30.44 55.34 28.50 48.04 28.72 L 48.61 27.66 Z" />
<path fill="#d2ab34" opacity="1.00" d=" M 41.28 31.07 C 41.58 29.61 44.52 28.11 46.00 28.91 C 45.46 30.98 43.08 31.34 41.28 31.07 Z" />
<path fill="#f5397c" opacity="1.00" d=" M 46.00 28.91 C 46.51 28.86 47.53 28.77 48.04 28.72 C 55.34 28.50 63.70 30.44 68.36 36.52 C 66.64 37.18 64.17 37.49 63.54 39.54 C 62.72 42.28 62.68 45.39 60.78 47.70 C 58.03 49.69 55.13 51.50 52.00 52.83 C 49.91 53.59 47.76 54.18 45.67 54.93 C 41.24 53.59 36.83 50.95 32.05 51.78 C 30.13 51.92 28.75 53.77 26.76 53.59 C 27.00 51.84 26.06 49.76 27.09 48.19 C 29.96 44.28 33.92 40.41 33.95 35.24 C 36.40 33.99 38.28 31.17 41.28 31.07 C 43.08 31.34 45.46 30.98 46.00 28.91 M 34.58 42.04 C 35.14 43.81 37.21 45.78 39.21 44.51 C 39.72 45.52 39.57 46.64 39.78 47.73 C 40.74 46.47 40.98 44.87 41.09 43.33 C 43.32 43.42 43.70 40.48 44.44 38.94 C 43.58 37.31 42.23 35.44 40.14 35.66 C 37.20 36.16 34.16 38.79 34.58 42.04 Z" />
<path fill="#971435" opacity="1.00" d=" M 31.69 32.23 C 31.99 32.46 32.58 32.92 32.87 33.14 C 30.74 35.09 28.98 37.42 27.65 39.98 C 27.31 39.30 27.10 38.60 27.02 37.89 C 27.39 37.45 28.13 36.59 28.50 36.15 C 28.50 35.47 28.52 34.10 28.52 33.41 C 29.51 32.84 30.56 32.45 31.69 32.23 Z" />
<path fill="#ffe15c" opacity="1.00" d=" M 27.09 48.19 C 27.54 43.21 30.19 38.49 33.95 35.24 C 33.92 40.41 29.96 44.28 27.09 48.19 Z" />
<path fill="#000000" opacity="1.00" d=" M 34.58 42.04 C 34.16 38.79 37.20 36.16 40.14 35.66 C 42.23 35.44 43.58 37.31 44.44 38.94 C 43.70 40.48 43.32 43.42 41.09 43.33 C 40.98 44.87 40.74 46.47 39.78 47.73 C 39.57 46.64 39.72 45.52 39.21 44.51 C 37.21 45.78 35.14 43.81 34.58 42.04 M 35.48 42.10 C 37.53 44.63 42.10 43.09 42.37 39.95 C 42.61 37.87 40.35 37.05 38.86 36.34 C 36.93 37.67 35.49 39.67 35.48 42.10 Z" />
<path fill="#c92860" opacity="1.00" d=" M 82.16 39.16 C 82.81 37.91 83.52 36.59 84.77 35.84 C 87.05 40.06 88.86 44.54 91.84 48.34 C 91.45 49.43 91.15 50.49 91.23 51.66 C 90.76 52.09 89.81 52.94 89.34 53.36 C 86.76 48.72 84.80 43.76 82.16 39.16 Z" />
<path fill="#ffe15c" opacity="1.00" d=" M 35.48 42.10 C 35.49 39.67 36.93 37.67 38.86 36.34 C 40.35 37.05 42.61 37.87 42.37 39.95 C 42.10 43.09 37.53 44.63 35.48 42.10 Z" />
<path fill="#e1306d" opacity="1.00" d=" M 78.45 38.21 C 78.75 38.21 79.33 38.22 79.62 38.22 C 81.43 42.13 82.94 46.19 84.99 49.99 C 87.34 55.11 91.23 59.28 93.77 64.28 C 97.82 70.96 102.15 77.49 106.71 83.82 C 105.71 84.22 104.66 84.44 103.63 84.72 C 103.58 85.95 103.61 87.18 103.37 88.39 C 96.38 82.13 93.23 73.15 88.90 65.09 C 85.73 57.59 81.54 50.50 78.91 42.80 C 78.88 43.87 78.70 44.91 78.38 45.92 C 75.56 48.60 72.76 51.30 69.86 53.90 C 73.92 49.41 76.24 43.75 78.45 38.21 Z" />
<path fill="#d52a60" opacity="1.00" d=" M 21.83 38.38 C 24.17 39.12 23.54 42.70 25.79 43.98 C 25.45 44.41 24.78 45.28 24.45 45.71 C 24.41 48.89 24.54 52.12 25.69 55.12 C 23.24 54.27 23.47 51.19 23.09 49.11 C 21.63 45.76 21.39 41.99 21.83 38.38 Z" />
<path fill="#780833" opacity="1.00" d=" M 65.58 49.55 C 67.15 48.23 68.70 46.88 70.17 45.45 C 71.45 49.07 67.97 51.93 65.16 53.47 C 69.30 54.18 63.61 59.35 63.49 55.00 C 62.50 56.23 61.71 58.01 60.08 58.42 C 59.43 57.77 58.75 55.58 57.52 56.54 C 55.82 57.60 53.94 58.35 51.97 58.68 C 52.26 56.74 52.07 54.78 52.00 52.83 C 55.13 51.50 58.03 49.69 60.78 47.70 C 61.90 49.12 63.69 50.72 65.58 49.55 Z" />
<path fill="#ea3473" opacity="1.00" d=" M 91.23 51.66 C 91.15 50.49 91.45 49.43 91.84 48.34 C 97.73 56.85 104.49 64.71 111.00 72.74 L 111.00 77.79 C 106.75 74.11 102.97 69.95 99.05 65.93 C 94.38 63.05 92.25 57.79 89.34 53.36 C 89.81 52.94 90.76 52.09 91.23 51.66 Z" />
<path fill="#e73373" opacity="1.00" d=" M 76.90 49.94 L 78.25 49.27 L 78.99 49.75 C 82.26 56.84 87.08 63.22 89.19 70.82 C 90.97 74.16 92.95 77.43 94.26 80.99 C 94.11 81.49 93.79 82.49 93.63 82.99 C 89.71 77.29 86.68 71.03 82.77 65.31 C 79.68 60.95 78.87 55.59 76.85 50.74 L 76.90 49.94 Z" />
<path fill="#da2b69" opacity="1.00" d=" M 20.07 51.18 C 22.36 51.08 22.42 54.06 23.27 55.57 C 20.40 57.24 19.83 61.87 16.45 62.45 C 18.09 58.83 18.75 54.89 20.07 51.18 Z" />
<path fill="#b8204e" opacity="1.00" d=" M 69.49 57.25 C 72.15 55.32 74.46 52.98 76.85 50.74 C 78.87 55.59 79.68 60.95 82.77 65.31 C 86.68 71.03 89.71 77.29 93.63 82.99 C 93.79 82.49 94.11 81.49 94.26 80.99 C 95.38 82.91 96.30 84.95 97.42 86.87 C 96.71 88.38 95.82 89.80 95.03 91.27 C 90.69 85.13 85.71 79.32 82.63 72.39 C 80.13 67.21 77.24 62.23 74.80 57.02 C 73.80 57.26 72.87 57.67 72.02 58.25 C 71.39 58.00 70.12 57.50 69.49 57.25 Z" />
<path fill="#fb3b7f" opacity="1.00" d=" M 25.00 58.65 C 26.93 55.90 30.09 54.31 33.14 53.14 C 36.79 53.37 40.20 54.87 43.59 56.11 C 42.90 58.14 42.16 60.15 41.07 62.00 C 38.70 62.27 36.02 62.40 34.47 64.51 C 32.50 66.10 32.95 68.80 33.99 70.79 C 29.72 74.49 24.71 69.08 22.46 65.47 C 24.15 63.58 24.33 60.99 25.00 58.65 M 28.04 57.75 L 28.71 58.42 C 27.19 57.43 25.20 59.68 26.14 61.05 L 25.96 61.94 C 25.71 61.74 25.21 61.32 24.96 61.12 C 25.29 62.28 24.80 65.64 27.09 65.32 C 31.03 65.86 33.36 61.15 32.39 57.77 C 30.98 56.57 29.50 56.88 28.04 57.75 Z" />
<path fill="#b81e49" opacity="1.00" d=" M 45.67 54.93 C 47.76 54.18 49.91 53.59 52.00 52.83 C 52.07 54.78 52.26 56.74 51.97 58.68 C 51.55 60.24 51.17 62.08 49.66 62.98 C 49.18 59.95 48.68 56.52 45.67 54.93 Z" />
<path fill="#840c3d" opacity="1.00" d=" M 16.45 62.45 C 19.83 61.87 20.40 57.24 23.27 55.57 C 23.10 57.29 23.00 59.02 22.97 60.75 C 22.97 60.91 22.95 61.23 22.94 61.39 C 22.16 61.76 20.58 62.50 19.79 62.88 C 14.35 65.96 14.43 73.46 15.67 78.82 C 12.28 82.67 8.18 85.98 3.77 88.55 C 3.38 88.36 2.61 87.98 2.23 87.79 C 2.59 87.43 3.31 86.70 3.68 86.34 C 5.32 85.42 6.48 83.96 7.35 82.32 C 10.86 75.93 14.24 69.42 16.45 62.45 Z" />
<path fill="#b71f4a" opacity="1.00" d=" M 43.59 56.11 C 46.96 56.98 48.32 60.82 47.13 63.89 C 45.72 65.15 44.36 66.48 43.42 68.14 C 43.26 68.28 42.93 68.55 42.77 68.68 C 40.88 69.69 39.81 71.81 37.93 72.91 C 34.98 73.62 31.84 73.63 28.84 73.15 C 25.73 72.32 23.72 69.58 21.29 67.67 C 21.58 67.12 22.16 66.02 22.46 65.47 C 24.71 69.08 29.72 74.49 33.99 70.79 C 37.45 71.08 42.01 69.58 42.81 65.78 C 43.43 64.16 41.82 63.18 41.07 62.00 C 42.16 60.15 42.90 58.14 43.59 56.11 Z" />
<path fill="#000000" opacity="1.00" d=" M 28.04 57.75 C 29.50 56.88 30.98 56.57 32.39 57.77 C 33.36 61.15 31.03 65.86 27.09 65.32 C 24.80 65.64 25.29 62.28 24.96 61.12 C 25.21 61.32 25.71 61.74 25.96 61.94 C 26.00 62.35 26.07 63.18 26.11 63.59 C 28.13 64.24 30.46 63.15 30.77 60.93 C 31.67 58.90 29.51 58.28 28.04 57.75 Z" />
<path fill="#8c0d2c" opacity="1.00" d=" M 60.92 61.02 C 63.72 59.69 66.54 58.19 69.49 57.25 C 70.12 57.50 71.39 58.00 72.02 58.25 C 69.50 61.03 66.62 63.48 63.74 65.87 C 61.24 66.35 61.93 62.48 60.92 61.02 Z" />
<path fill="#7b3937" opacity="1.00" d=" M 26.14 61.05 C 25.20 59.68 27.19 57.43 28.71 58.42 C 28.09 59.48 27.22 60.44 26.14 61.05 Z" />
<path fill="#fff063" opacity="1.00" d=" M 28.71 58.42 L 28.04 57.75 C 29.51 58.28 31.67 58.90 30.77 60.93 C 30.46 63.15 28.13 64.24 26.11 63.59 C 26.07 63.18 26.00 62.35 25.96 61.94 L 26.14 61.05 C 27.22 60.44 28.09 59.48 28.71 58.42 Z" />
<path fill="#ffe15c" opacity="1.00" d=" M 22.97 60.75 C 23.48 60.23 24.49 59.18 25.00 58.65 C 24.33 60.99 24.15 63.58 22.46 65.47 C 22.16 66.02 21.58 67.12 21.29 67.67 C 21.70 65.55 22.05 63.38 22.94 61.39 C 22.95 61.23 22.97 60.91 22.97 60.75 Z" />
<path fill="#ff3e86" opacity="1.00" d=" M 57.31 61.97 C 56.55 60.52 56.79 59.25 58.03 58.18 C 59.82 61.09 60.16 64.54 61.27 67.72 C 62.83 74.23 65.43 80.45 68.58 86.34 C 65.99 87.09 65.87 83.14 64.65 81.60 C 61.36 75.39 59.18 68.72 57.31 61.97 Z" />
<path fill="#000000" opacity="1.00" d=" M 34.47 64.51 C 36.02 62.40 38.70 62.27 41.07 62.00 C 41.82 63.18 43.43 64.16 42.81 65.78 C 42.01 69.58 37.45 71.08 33.99 70.79 C 32.95 68.80 32.50 66.10 34.47 64.51 M 36.93 68.90 C 39.50 68.55 41.80 66.27 41.24 63.51 C 39.72 63.19 38.70 63.74 38.18 65.15 C 38.28 64.65 38.47 63.65 38.56 63.15 C 34.95 62.08 32.14 71.20 36.93 68.90 Z" />
<path fill="#971133" opacity="1.00" d=" M 57.31 61.97 C 59.18 68.72 61.36 75.39 64.65 81.60 C 63.97 82.78 63.28 83.96 62.58 85.13 C 59.80 80.34 58.23 75.05 56.18 69.94 C 56.11 69.32 56.03 68.70 55.93 68.09 C 55.94 67.57 55.96 66.52 55.97 66.00 C 56.40 64.65 56.93 63.33 57.31 61.97 Z" />
<path fill="#fff063" opacity="1.00" d=" M 36.93 68.90 C 32.14 71.20 34.95 62.08 38.56 63.15 C 38.47 63.65 38.28 64.65 38.18 65.15 C 37.74 66.39 37.45 67.68 36.93 68.90 Z" />
<path fill="#b01b43" opacity="1.00" d=" M 38.18 65.15 C 38.70 63.74 39.72 63.19 41.24 63.51 C 41.80 66.27 39.50 68.55 36.93 68.90 C 37.45 67.68 37.74 66.39 38.18 65.15 Z" />
<path fill="#770c6a" opacity="1.00" d=" M 48.20 65.48 C 49.81 64.28 51.76 63.82 53.68 63.37 C 52.73 68.43 52.02 74.23 47.85 77.79 C 43.66 81.43 38.89 84.43 33.77 86.57 C 33.98 85.97 34.39 84.78 34.60 84.19 C 37.96 83.99 39.52 80.75 41.48 78.52 C 44.38 74.54 48.19 71.04 49.89 66.32 C 49.47 66.11 48.62 65.69 48.20 65.48 Z" />
<path fill="#b83c69" opacity="1.00" d=" M 17.42 67.97 C 17.41 66.28 18.46 64.37 20.37 64.40 C 20.16 65.32 19.74 67.16 19.53 68.07 C 20.39 68.99 21.38 69.71 22.49 70.23 C 21.42 73.57 20.91 77.58 17.59 79.52 C 16.89 75.70 17.12 71.82 17.42 67.97 Z" />
<path fill="#ba3d6a" opacity="1.00" d=" M 44.27 68.26 C 45.85 67.79 47.01 66.55 48.20 65.48 C 48.62 65.69 49.47 66.11 49.89 66.32 C 48.19 71.04 44.38 74.54 41.48 78.52 C 39.52 80.75 37.96 83.99 34.60 84.19 C 36.36 79.08 39.66 74.79 42.55 70.31 L 42.88 71.53 C 44.23 71.81 45.02 71.23 45.24 69.79 C 45.00 69.41 44.51 68.64 44.27 68.26 Z" />
<path fill="#ffe35d" opacity="1.00" d=" M 42.77 68.68 C 42.93 68.55 43.26 68.28 43.42 68.14 L 44.27 68.26 C 44.51 68.64 45.00 69.41 45.24 69.79 C 45.02 71.23 44.23 71.81 42.88 71.53 L 42.55 70.31 C 42.61 69.90 42.71 69.09 42.77 68.68 Z" />
<path fill="#770b6c" opacity="1.00" d=" M 22.49 70.23 C 23.31 71.01 24.07 71.85 24.69 72.81 C 23.68 76.74 22.22 81.25 18.85 83.71 C 18.27 82.36 18.11 80.89 17.59 79.52 C 20.91 77.58 21.42 73.57 22.49 70.23 Z" />
<path fill="#930c28" opacity="1.00" d=" M 26.27 74.08 C 27.82 74.42 29.32 74.89 30.72 75.63 C 29.26 78.73 28.36 82.12 26.44 84.99 C 26.38 81.35 26.22 77.72 26.27 74.08 Z" />
<path fill="#b01b43" opacity="1.00" d=" M 64.65 81.60 C 65.87 83.14 65.99 87.09 68.58 86.34 C 71.16 91.41 74.41 96.14 76.45 101.48 C 69.81 98.17 65.41 91.79 62.58 85.13 C 63.28 83.96 63.97 82.78 64.65 81.60 Z" />
<path fill="#c12252" opacity="1.00" d=" M 103.63 84.72 C 104.66 84.44 105.71 84.22 106.71 83.82 C 108.11 85.67 109.74 87.34 111.00 89.31 L 111.00 94.70 C 108.30 92.80 105.58 90.87 103.37 88.39 C 103.61 87.18 103.58 85.95 103.63 84.72 Z" />
<path fill="#9b1231" opacity="1.00" d=" M 97.42 86.87 C 99.33 89.90 100.77 93.21 102.86 96.14 C 104.40 98.50 106.44 100.78 106.65 103.72 C 101.82 100.70 98.64 95.59 95.03 91.27 C 95.82 89.80 96.71 88.38 97.42 86.87 Z" />
</svg>
