<?xml version="1.0" encoding="UTF-8" ?>
<!DOCTYPE svg PUBLIC "-//W3C//DTD SVG 1.1//EN" "http://www.w3.org/Graphics/SVG/1.1/DTD/svg11.dtd">
<svg width="111pt" height="111pt" viewBox="0 0 111 111" version="1.1" xmlns="http://www.w3.org/2000/svg">
<path fill="#000000" opacity="1.00" d=" M 50.42 8.42 C 56.02 3.59 63.88 2.53 70.97 3.83 C 76.20 4.00 80.78 7.10 84.30 10.76 C 87.72 14.20 87.36 19.71 85.57 23.87 C 82.76 30.31 78.33 35.88 73.68 41.07 C 78.09 40.43 84.01 38.56 87.24 42.79 C 91.53 48.17 93.67 55.15 93.75 61.99 C 93.81 68.87 91.15 76.34 85.00 80.03 C 79.81 83.09 73.98 85.45 67.91 85.82 C 65.32 86.03 63.21 84.37 61.24 82.95 C 61.30 86.62 60.54 90.21 59.36 93.67 C 63.07 92.10 67.25 90.43 71.29 91.79 C 72.03 92.83 72.11 94.26 70.81 94.87 C 67.24 97.65 62.45 98.95 58.00 97.94 C 57.17 99.91 56.33 101.88 55.48 103.84 C 63.74 102.94 72.10 101.79 80.40 102.71 C 81.64 105.77 78.06 105.72 76.12 106.18 C 66.45 107.42 56.68 108.24 46.93 107.73 C 45.43 107.92 44.37 106.86 43.33 105.96 C 46.47 104.80 49.80 104.38 53.10 103.99 C 55.59 97.46 58.60 91.00 59.43 83.99 C 57.82 87.32 56.72 91.54 52.91 93.01 C 47.33 95.23 41.04 94.89 35.25 93.75 C 31.17 92.94 26.74 90.51 25.94 86.05 C 24.73 81.40 27.91 77.23 31.43 74.62 C 28.59 74.24 25.51 73.80 23.42 71.62 C 17.83 66.49 17.46 58.10 18.57 51.09 C 20.08 43.57 24.33 35.99 31.39 32.47 C 35.06 30.54 39.36 31.61 42.49 34.06 C 41.81 25.10 42.99 14.49 50.42 8.42 M 47.78 14.93 C 43.78 23.20 43.21 33.23 47.05 41.69 C 49.81 41.58 52.57 41.80 55.29 42.22 C 58.13 43.50 60.87 45.01 63.42 46.82 C 71.02 40.84 77.49 33.36 82.10 24.84 C 83.89 21.35 85.59 16.72 82.86 13.24 C 80.28 10.32 76.50 8.89 73.26 6.85 C 64.30 3.95 52.69 6.24 47.78 14.93 M 26.08 40.13 C 20.79 46.92 19.44 56.13 21.42 64.39 C 22.64 66.50 23.71 68.84 25.68 70.38 C 27.87 72.10 30.67 72.68 33.29 73.41 C 33.26 74.06 33.19 75.37 33.16 76.02 L 32.10 76.07 C 28.99 78.55 26.36 82.71 28.36 86.73 C 30.81 91.54 37.02 91.63 41.70 92.36 C 45.96 92.10 51.07 92.68 54.36 89.37 C 57.15 85.56 57.84 80.64 57.71 76.03 C 55.16 76.83 52.64 77.71 50.14 78.67 C 45.94 79.31 41.73 78.36 38.46 75.60 C 38.80 75.31 39.49 74.73 39.83 74.44 C 41.99 76.55 44.93 78.05 48.03 77.50 C 53.88 77.02 59.01 73.97 63.53 70.43 C 65.13 68.34 66.99 66.27 67.55 63.62 C 68.24 60.51 67.43 57.35 66.84 54.30 C 65.41 52.45 63.94 50.63 62.50 48.79 C 58.44 45.55 53.52 43.07 48.18 43.36 C 39.92 49.24 36.05 59.84 37.51 69.74 L 35.96 70.43 C 35.78 68.62 35.60 66.82 35.41 65.01 C 35.56 56.57 39.36 48.31 46.08 43.09 C 44.30 39.20 41.58 34.93 37.04 34.11 C 32.47 33.39 28.66 36.77 26.08 40.13 M 65.46 48.85 C 67.94 52.40 69.79 56.57 69.52 60.99 C 69.50 64.59 67.32 67.63 65.43 70.51 L 65.10 70.37 C 63.02 72.13 60.83 73.78 58.59 75.33 C 60.78 78.77 63.10 83.92 67.97 83.45 C 74.84 82.53 81.58 79.79 86.96 75.37 C 92.17 68.41 92.24 58.83 89.04 51.00 C 87.61 47.98 86.29 44.28 83.05 42.78 C 76.54 41.81 70.46 45.02 65.46 48.85 M 58.45 96.28 C 62.84 96.80 67.49 95.90 70.86 92.89 C 66.47 92.54 61.99 93.60 58.45 96.28 Z" />
<path fill="#b83b6a" opacity="1.00" d=" M 47.78 14.93 C 52.69 6.24 64.30 3.95 73.26 6.85 C 72.16 14.59 69.78 22.14 66.13 29.05 C 63.43 34.12 59.23 38.13 55.29 42.22 C 52.57 41.80 49.81 41.58 47.05 41.69 C 43.21 33.23 43.78 23.20 47.78 14.93 Z" />
<path fill="#86165d" opacity="1.00" d=" M 73.26 6.85 C 76.50 8.89 80.28 10.32 82.86 13.24 C 85.59 16.72 83.89 21.35 82.10 24.84 C 77.49 33.36 71.02 40.84 63.42 46.82 C 60.87 45.01 58.13 43.50 55.29 42.22 C 59.23 38.13 63.43 34.12 66.13 29.05 C 69.78 22.14 72.16 14.59 73.26 6.85 Z" />
<path fill="#b83b6a" opacity="1.00" d=" M 26.08 40.13 C 28.66 36.77 32.47 33.39 37.04 34.11 C 41.58 34.93 44.30 39.20 46.08 43.09 C 39.36 48.31 35.56 56.57 35.41 65.01 C 30.74 65.21 26.06 65.01 21.42 64.39 C 19.44 56.13 20.79 46.92 26.08 40.13 Z" />
<path fill="#b93c6a" opacity="1.00" d=" M 65.46 48.85 C 70.46 45.02 76.54 41.81 83.05 42.78 C 86.29 44.28 87.61 47.98 89.04 51.00 C 92.24 58.83 92.17 68.41 86.96 75.37 C 79.58 74.92 72.10 73.92 65.43 70.51 C 67.32 67.63 69.50 64.59 69.52 60.99 C 69.79 56.57 67.94 52.40 65.46 48.85 Z" />
<path fill="#fedd5c" opacity="1.00" d=" M 37.51 69.74 C 36.05 59.84 39.92 49.24 48.18 43.36 C 53.52 43.07 58.44 45.55 62.50 48.79 C 62.53 49.66 62.59 51.38 62.62 52.25 C 61.13 53.81 59.61 55.36 58.31 57.10 C 59.24 58.07 60.20 59.02 61.18 59.94 C 60.48 61.32 59.80 62.71 59.06 64.06 C 56.08 69.05 52.49 73.74 48.03 77.50 C 44.93 78.05 41.99 76.55 39.83 74.44 C 41.12 72.71 42.66 70.64 41.06 68.56 C 39.84 68.83 38.65 69.24 37.51 69.74 M 48.24 55.13 C 48.77 56.60 49.04 58.89 51.04 58.95 C 53.83 59.64 55.62 56.06 54.31 53.86 C 53.31 52.18 51.37 52.86 49.78 52.86 C 49.40 53.43 48.62 54.56 48.24 55.13 M 47.26 69.85 C 49.47 69.23 51.65 68.06 51.19 65.30 C 49.88 66.82 48.57 68.33 47.26 69.85 Z" />
<path fill="#ff3d83" opacity="1.00" d=" M 62.50 48.79 C 63.94 50.63 65.41 52.45 66.84 54.30 C 65.19 56.40 63.28 58.28 61.18 59.94 C 60.20 59.02 59.24 58.07 58.31 57.10 C 59.61 55.36 61.13 53.81 62.62 52.25 C 62.59 51.38 62.53 49.66 62.50 48.79 Z" />
<path fill="#c1bca8" opacity="1.00" d=" M 48.24 55.13 C 48.62 54.56 49.40 53.43 49.78 52.86 C 50.61 53.65 51.42 54.47 52.21 55.30 C 51.69 56.16 51.14 57.01 50.54 57.82 C 49.97 57.15 48.81 55.80 48.24 55.13 Z" />
<path fill="#000000" opacity="1.00" d=" M 49.78 52.86 C 51.37 52.86 53.31 52.18 54.31 53.86 C 55.62 56.06 53.83 59.64 51.04 58.95 C 49.04 58.89 48.77 56.60 48.24 55.13 C 48.81 55.80 49.97 57.15 50.54 57.82 C 51.14 57.01 51.69 56.16 52.21 55.30 C 51.42 54.47 50.61 53.65 49.78 52.86 Z" />
<path fill="#bc4f44" opacity="1.00" d=" M 66.84 54.30 C 67.43 57.35 68.24 60.51 67.55 63.62 C 66.99 66.27 65.13 68.34 63.53 70.43 C 62.32 68.12 60.79 66.00 59.06 64.06 C 59.80 62.71 60.48 61.32 61.18 59.94 C 63.28 58.28 65.19 56.40 66.84 54.30 Z" />
<path fill="#9b2662" opacity="1.00" d=" M 21.42 64.39 C 26.06 65.01 30.74 65.21 35.41 65.01 C 35.60 66.82 35.78 68.62 35.96 70.43 L 37.51 69.74 C 36.39 70.57 35.29 71.43 34.19 72.29 C 34.03 73.52 33.88 74.76 33.72 75.99 L 33.16 76.02 C 33.19 75.37 33.26 74.06 33.29 73.41 C 30.67 72.68 27.87 72.10 25.68 70.38 C 23.71 68.84 22.64 66.50 21.42 64.39 Z" />
<path fill="#b54242" opacity="1.00" d=" M 48.03 77.50 C 52.49 73.74 56.08 69.05 59.06 64.06 C 60.79 66.00 62.32 68.12 63.53 70.43 C 59.01 73.97 53.88 77.02 48.03 77.50 Z" />
<path fill="#000000" opacity="1.00" d=" M 47.26 69.85 C 48.57 68.33 49.88 66.82 51.19 65.30 C 51.65 68.06 49.47 69.23 47.26 69.85 Z" />
<path fill="#ff3d83" opacity="1.00" d=" M 37.51 69.74 C 38.65 69.24 39.84 68.83 41.06 68.56 C 42.66 70.64 41.12 72.71 39.83 74.44 C 39.49 74.73 38.80 75.31 38.46 75.60 C 36.89 75.80 35.30 75.89 33.72 75.99 C 33.88 74.76 34.03 73.52 34.19 72.29 C 35.29 71.43 36.39 70.57 37.51 69.74 Z" />
<path fill="#8a185e" opacity="1.00" d=" M 65.10 70.37 L 65.43 70.51 C 72.10 73.92 79.58 74.92 86.96 75.37 C 81.58 79.79 74.84 82.53 67.97 83.45 C 63.10 83.92 60.78 78.77 58.59 75.33 C 60.83 73.78 63.02 72.13 65.10 70.37 Z" />
<path fill="#b33768" opacity="1.00" d=" M 33.72 75.99 C 35.30 75.89 36.89 75.80 38.46 75.60 C 41.73 78.36 45.94 79.31 50.14 78.67 C 48.36 83.81 45.30 88.34 41.70 92.36 C 37.02 91.63 30.81 91.54 28.36 86.73 C 26.36 82.71 28.99 78.55 32.10 76.07 L 33.16 76.02 L 33.72 75.99 Z" />
<path fill="#962261" opacity="1.00" d=" M 50.14 78.67 C 52.64 77.71 55.16 76.83 57.71 76.03 C 57.84 80.64 57.15 85.56 54.36 89.37 C 51.07 92.68 45.96 92.10 41.70 92.36 C 45.30 88.34 48.36 83.81 50.14 78.67 Z" />
<path fill="#b9c684" opacity="1.00" d=" M 58.45 96.28 C 61.99 93.60 66.47 92.54 70.86 92.89 C 67.49 95.90 62.84 96.80 58.45 96.28 Z" />
</svg>
