<?xml version="1.0" encoding="UTF-8" ?>
<!DOCTYPE svg PUBLIC "-//W3C//DTD SVG 1.1//EN" "http://www.w3.org/Graphics/SVG/1.1/DTD/svg11.dtd">
<svg width="111pt" height="111pt" viewBox="0 0 111 111" version="1.1" xmlns="http://www.w3.org/2000/svg">
<path fill="#0c0a0e" opacity="0.93" d=" M 39.49 10.27 C 44.99 10.05 50.33 4.47 55.94 7.07 C 59.51 10.68 68.00 8.88 65.97 15.82 C 65.48 15.81 64.50 15.80 64.01 15.80 L 63.98 15.00 C 64.91 11.71 62.29 11.87 59.81 12.11 C 59.38 11.84 58.50 11.31 58.06 11.04 C 55.67 9.49 51.78 4.68 50.64 9.75 C 47.15 9.67 43.71 10.19 40.77 12.10 C 40.31 12.34 39.40 12.82 38.94 13.06 C 36.63 7.97 29.54 18.55 32.93 22.16 L 32.63 22.87 C 31.08 25.99 30.57 29.47 29.73 32.82 C 29.22 33.60 28.70 34.37 28.17 35.14 C 23.92 32.88 19.52 30.83 14.91 29.41 C 11.15 28.08 7.09 27.94 3.13 27.93 C 5.00 32.35 6.45 36.97 8.82 41.16 C 11.30 45.83 14.89 49.77 18.87 53.21 L 18.58 53.89 C 18.18 53.79 17.37 53.60 16.97 53.51 C 14.84 51.92 10.30 52.32 12.56 55.05 C 16.79 59.91 20.59 65.61 26.65 68.30 C 30.93 69.95 35.88 73.48 40.43 70.87 C 39.48 72.61 38.49 74.34 37.57 76.10 C 36.69 82.67 27.35 79.57 26.95 84.94 C 24.25 86.74 13.51 85.41 16.20 90.01 C 15.44 90.56 14.67 91.10 13.90 91.64 C 4.95 91.52 15.51 100.95 19.49 101.19 C 23.72 102.80 28.83 107.36 33.23 104.33 C 34.86 104.17 36.41 104.97 37.99 105.29 C 38.26 105.71 38.81 106.56 39.09 106.99 C 38.89 107.27 38.49 107.84 38.29 108.12 C 38.16 108.84 37.90 110.28 37.76 111.00 L 35.44 111.00 C 25.69 105.42 12.36 103.97 7.01 92.90 C 6.89 88.37 15.36 91.30 12.14 85.25 C 20.80 83.70 30.07 81.29 36.26 75.01 C 26.08 70.24 11.78 66.31 9.00 53.04 C 7.27 49.46 14.56 52.42 12.31 49.61 C 8.08 42.03 1.20 35.13 0.97 26.02 C 10.31 24.68 19.16 27.69 27.71 30.89 C 30.32 25.82 31.05 20.15 31.55 14.54 C 33.95 13.07 36.55 7.35 39.49 10.27 Z" />
<path fill="#e1e2f1" opacity="1.00" d=" M 50.64 9.75 C 51.78 4.68 55.67 9.49 58.06 11.04 C 57.87 11.58 57.48 12.67 57.28 13.22 C 55.54 12.36 53.77 11.59 51.97 10.87 C 51.64 10.59 50.97 10.03 50.64 9.75 Z" />
<path fill="#0b0b0c" opacity="0.95" d=" M 77.10 25.89 C 87.33 18.01 99.26 13.05 111.00 7.95 L 111.00 10.91 C 105.30 13.47 99.26 15.38 93.94 18.73 C 87.84 22.35 81.90 26.27 76.70 31.13 C 76.45 31.36 75.95 31.83 75.70 32.06 C 76.29 26.34 71.77 23.32 67.97 20.27 C 68.74 19.58 68.89 18.88 68.41 18.19 C 67.61 17.38 66.80 16.59 65.97 15.82 C 71.54 16.27 73.10 22.96 77.10 25.89 Z" />
<path fill="#c0496a" opacity="1.00" d=" M 40.77 12.10 C 43.71 10.19 47.15 9.67 50.64 9.75 C 51.82 12.27 52.10 15.60 53.85 17.64 C 54.30 17.84 55.20 18.24 55.65 18.44 C 58.91 20.13 60.48 24.85 56.09 26.25 L 55.19 25.83 C 54.51 24.90 53.85 23.96 53.21 23.01 C 55.20 18.08 49.15 19.59 47.09 21.91 C 44.53 18.97 42.34 15.68 40.77 12.10 Z" />
<path fill="#5a3d69" opacity="1.00" d=" M 50.64 9.75 C 50.97 10.03 51.64 10.59 51.97 10.87 C 53.23 12.48 54.55 14.05 55.96 15.54 C 55.23 16.21 54.53 16.91 53.85 17.64 C 52.10 15.60 51.82 12.27 50.64 9.75 Z" />
<path fill="#b94363" opacity="1.00" d=" M 32.93 22.16 C 29.54 18.55 36.63 7.97 38.94 13.06 C 39.56 14.74 40.25 16.40 41.00 18.03 C 38.28 19.33 35.58 20.69 32.93 22.16 Z" />
<path fill="#5956d7" opacity="1.00" d=" M 51.97 10.87 C 53.77 11.59 55.54 12.36 57.28 13.22 C 57.16 13.91 56.92 15.29 56.80 15.98 L 55.96 15.54 C 54.55 14.05 53.23 12.48 51.97 10.87 Z" />
<path fill="#a57035" opacity="1.00" d=" M 58.06 11.04 C 58.50 11.31 59.38 11.84 59.81 12.11 C 60.58 12.78 61.35 13.43 62.12 14.08 C 62.25 16.05 61.40 17.33 59.35 17.41 C 58.72 17.05 57.44 16.33 56.80 15.98 C 56.92 15.29 57.16 13.91 57.28 13.22 C 57.48 12.67 57.87 11.58 58.06 11.04 Z" />
<path fill="#e7e7f9" opacity="1.00" d=" M 93.94 18.73 C 99.26 15.38 105.30 13.47 111.00 10.91 L 111.00 39.05 C 108.45 40.08 105.82 40.91 103.12 41.46 C 96.06 40.01 88.19 31.39 93.30 24.28 C 95.13 22.73 95.09 20.71 93.94 18.73 Z" />
<path fill="#5a294b" opacity="1.00" d=" M 38.94 13.06 C 39.40 12.82 40.31 12.34 40.77 12.10 C 42.34 15.68 44.53 18.97 47.09 21.91 C 49.15 19.59 55.20 18.08 53.21 23.01 C 52.06 22.44 50.66 21.46 49.37 22.19 C 48.98 24.09 53.37 25.97 53.21 23.01 C 53.85 23.96 54.51 24.90 55.19 25.83 C 53.41 26.14 51.66 26.57 49.95 27.14 C 51.28 29.64 54.09 28.98 56.08 30.02 C 54.43 30.63 52.80 31.26 51.18 31.95 C 51.95 27.60 48.41 30.67 46.17 31.17 C 45.34 31.22 43.67 31.32 42.84 31.38 C 45.44 28.00 37.74 26.57 39.16 30.97 C 38.06 30.19 37.23 30.16 36.68 30.88 C 35.49 33.24 34.34 35.63 33.57 38.17 C 33.01 33.42 32.87 28.63 33.04 23.85 C 34.08 25.33 35.01 26.90 36.11 28.35 C 38.07 26.57 37.95 24.08 36.90 21.85 C 39.22 23.69 41.21 26.12 44.01 27.22 C 42.91 25.23 37.10 19.99 42.45 21.52 C 44.23 21.94 41.64 19.54 41.44 18.78 L 41.00 18.03 C 40.25 16.40 39.56 14.74 38.94 13.06 Z" />
<path fill="#bec0db" opacity="1.00" d=" M 59.81 12.11 C 62.29 11.87 64.91 11.71 63.98 15.00 C 63.52 14.77 62.59 14.31 62.12 14.08 C 61.35 13.43 60.58 12.78 59.81 12.11 Z" />
<path fill="#4a2847" opacity="1.00" d=" M 62.12 14.08 C 62.59 14.31 63.52 14.77 63.98 15.00 L 64.01 15.80 C 63.32 16.86 62.65 17.94 62.00 19.02 C 61.27 19.03 59.80 19.04 59.07 19.05 C 61.65 22.80 62.06 29.07 67.59 29.55 C 70.68 32.99 69.62 37.92 70.20 42.17 C 71.65 40.52 72.90 38.72 74.27 37.00 C 74.18 37.71 74.00 39.11 73.91 39.82 C 71.74 43.81 67.06 44.99 63.81 47.86 L 63.05 47.70 C 61.14 47.03 59.15 47.28 57.30 48.01 C 56.82 46.80 57.55 44.66 56.09 44.12 C 55.54 43.88 54.43 43.39 53.87 43.15 C 57.39 42.31 59.95 39.64 62.33 37.08 C 67.53 32.56 68.18 48.90 67.53 36.45 C 71.26 29.76 59.38 27.18 61.36 33.91 C 59.63 35.00 58.37 31.43 57.66 35.09 C 57.51 34.60 57.22 33.63 57.07 33.15 C 57.15 32.70 57.30 31.79 57.38 31.34 C 58.10 29.48 56.91 27.82 56.09 26.25 C 60.48 24.85 58.91 20.13 55.65 18.44 C 56.89 18.12 58.13 17.78 59.35 17.41 C 61.40 17.33 62.25 16.05 62.12 14.08 Z" />
<path fill="#afb4ec" opacity="1.00" d=" M 53.85 17.64 C 54.53 16.91 55.23 16.21 55.96 15.54 L 56.80 15.98 C 57.44 16.33 58.72 17.05 59.35 17.41 C 58.13 17.78 56.89 18.12 55.65 18.44 C 55.20 18.24 54.30 17.84 53.85 17.64 Z" />
<path fill="#b8bbe8" opacity="1.00" d=" M 62.00 19.02 C 62.65 17.94 63.32 16.86 64.01 15.80 C 64.50 15.80 65.48 15.81 65.97 15.82 C 66.80 16.59 67.61 17.38 68.41 18.19 C 66.64 18.73 64.81 19.03 62.98 19.26 L 62.00 19.02 Z" />
<path fill="#dea296" opacity="1.00" d=" M 32.93 22.16 C 35.58 20.69 38.28 19.33 41.00 18.03 L 41.44 18.78 C 39.96 19.84 38.43 20.85 36.90 21.85 C 35.48 22.21 34.06 22.55 32.63 22.87 L 32.93 22.16 Z" />
<path fill="#595eba" opacity="1.00" d=" M 68.41 18.19 C 68.89 18.88 68.74 19.58 67.97 20.27 C 66.60 20.19 65.24 20.09 63.88 19.97 C 63.66 19.79 63.20 19.44 62.98 19.26 C 64.81 19.03 66.64 18.73 68.41 18.19 Z" />
<path fill="#b54265" opacity="1.00" d=" M 41.44 18.78 C 41.64 19.54 44.23 21.94 42.45 21.52 C 37.10 19.99 42.91 25.23 44.01 27.22 C 41.21 26.12 39.22 23.69 36.90 21.85 C 38.43 20.85 39.96 19.84 41.44 18.78 Z" />
<path fill="#ba4473" opacity="1.00" d=" M 59.07 19.05 C 59.80 19.04 61.27 19.03 62.00 19.02 L 62.98 19.26 C 63.20 19.44 63.66 19.79 63.88 19.97 C 71.71 23.24 71.02 30.74 74.27 37.00 C 72.90 38.72 71.65 40.52 70.20 42.17 C 69.62 37.92 70.68 32.99 67.59 29.55 C 62.06 29.07 61.65 22.80 59.07 19.05 Z" />
<path fill="#cdcef4" opacity="1.00" d=" M 76.70 31.13 C 81.90 26.27 87.84 22.35 93.94 18.73 C 95.09 20.71 95.13 22.73 93.30 24.28 C 88.19 31.39 96.06 40.01 103.12 41.46 C 100.47 42.09 97.82 42.70 95.19 43.39 C 87.83 41.80 82.34 35.71 76.70 31.13 Z" />
<path fill="#582b55" opacity="1.00" d=" M 63.88 19.97 C 65.24 20.09 66.60 20.19 67.97 20.27 C 71.77 23.32 76.29 26.34 75.70 32.06 C 75.22 33.71 74.77 35.36 74.27 37.00 C 71.02 30.74 71.71 23.24 63.88 19.97 Z" />
<path fill="#b6476c" opacity="1.00" d=" M 32.63 22.87 C 34.06 22.55 35.48 22.21 36.90 21.85 C 37.95 24.08 38.07 26.57 36.11 28.35 C 35.01 26.90 34.08 25.33 33.04 23.85 C 32.87 28.63 33.01 33.42 33.57 38.17 C 33.91 41.30 34.97 44.27 35.78 47.30 C 31.09 44.62 31.18 37.65 29.73 32.82 C 30.57 29.47 31.08 25.99 32.63 22.87 Z" />
<path fill="#c55178" opacity="1.00" d=" M 49.37 22.19 C 50.66 21.46 52.06 22.44 53.21 23.01 C 53.37 25.97 48.98 24.09 49.37 22.19 Z" />
<path fill="#15101a" opacity="1.00" d=" M 49.95 27.14 C 51.66 26.57 53.41 26.14 55.19 25.83 L 56.09 26.25 C 56.91 27.82 58.10 29.48 57.38 31.34 C 57.06 31.01 56.40 30.35 56.08 30.02 C 54.09 28.98 51.28 29.64 49.95 27.14 Z" />
<path fill="#bc91c3" opacity="1.00" d=" M 3.13 27.93 C 7.09 27.94 11.15 28.08 14.91 29.41 C 16.61 33.27 14.93 37.17 13.66 41.05 C 12.04 41.07 10.43 41.12 8.82 41.16 C 6.45 36.97 5.00 32.35 3.13 27.93 Z" />
<path fill="#272034" opacity="1.00" d=" M 39.16 30.97 C 37.74 26.57 45.44 28.00 42.84 31.38 C 43.37 33.83 42.34 35.47 39.89 36.03 C 39.71 34.33 39.43 32.65 39.16 30.97 Z" />
<path fill="#f0ddcf" opacity="1.00" d=" M 46.17 31.17 C 48.41 30.67 51.95 27.60 51.18 31.95 C 51.23 32.46 51.32 33.47 51.36 33.98 C 49.95 38.39 57.03 39.48 57.66 35.09 C 58.37 31.43 59.63 35.00 61.36 33.91 C 61.69 34.97 62.01 36.02 62.33 37.08 C 59.95 39.64 57.39 42.31 53.87 43.15 C 53.47 43.28 52.65 43.53 52.24 43.66 C 51.77 43.80 50.83 44.09 50.36 44.23 C 47.50 44.24 44.64 44.25 41.79 44.26 C 39.69 42.64 39.51 39.64 38.59 37.31 C 38.91 36.99 39.57 36.35 39.89 36.03 C 40.30 37.39 40.75 38.74 41.25 40.08 C 45.09 38.37 42.40 32.74 46.17 31.17 Z" />
<path fill="#bfb3e5" opacity="1.00" d=" M 13.66 41.05 C 14.93 37.17 16.61 33.27 14.91 29.41 C 19.52 30.83 23.92 32.88 28.17 35.14 C 28.27 35.60 28.46 36.53 28.56 36.99 C 27.12 39.34 27.11 41.40 28.52 43.16 C 29.25 45.17 30.04 47.15 30.93 49.10 C 29.70 48.66 28.46 48.24 27.22 47.83 C 22.78 45.40 18.29 43.08 13.66 41.05 Z" />
<path fill="#b3787a" opacity="1.00" d=" M 36.68 30.88 C 37.23 30.16 38.06 30.19 39.16 30.97 C 39.43 32.65 39.71 34.33 39.89 36.03 C 39.57 36.35 38.91 36.99 38.59 37.31 C 37.88 35.19 37.20 33.05 36.68 30.88 Z" />
<path fill="#456ec5" opacity="1.00" d=" M 51.18 31.95 C 52.80 31.26 54.43 30.63 56.08 30.02 C 56.40 30.35 57.06 31.01 57.38 31.34 C 57.30 31.79 57.15 32.70 57.07 33.15 C 55.17 33.44 53.24 33.59 51.36 33.98 C 51.32 33.47 51.23 32.46 51.18 31.95 Z" />
<path fill="#ba7584" opacity="1.00" d=" M 61.36 33.91 C 59.38 27.18 71.26 29.76 67.53 36.45 C 68.18 48.90 67.53 32.56 62.33 37.08 C 62.01 36.02 61.69 34.97 61.36 33.91 Z" />
<path fill="#402241" opacity="1.00" d=" M 33.57 38.17 C 34.34 35.63 35.49 33.24 36.68 30.88 C 37.20 33.05 37.88 35.19 38.59 37.31 C 39.51 39.64 39.69 42.64 41.79 44.26 C 44.52 45.44 47.64 45.24 50.36 44.23 C 50.83 44.09 51.77 43.80 52.24 43.66 C 54.97 46.96 47.90 55.28 47.01 51.17 C 51.67 47.47 44.85 49.72 42.47 50.60 C 38.58 52.67 34.42 51.13 30.93 49.10 C 30.04 47.15 29.25 45.17 28.52 43.16 C 29.75 41.27 29.60 38.92 28.56 36.99 C 28.46 36.53 28.27 35.60 28.17 35.14 C 28.70 34.37 29.22 33.60 29.73 32.82 C 31.18 37.65 31.09 44.62 35.78 47.30 C 34.97 44.27 33.91 41.30 33.57 38.17 Z" />
<path fill="#8992a9" opacity="1.00" d=" M 42.84 31.38 C 43.67 31.32 45.34 31.22 46.17 31.17 C 42.40 32.74 45.09 38.37 41.25 40.08 C 40.75 38.74 40.30 37.39 39.89 36.03 C 42.34 35.47 43.37 33.83 42.84 31.38 Z" />
<path fill="#b2b5f1" opacity="1.00" d=" M 75.70 32.06 C 75.95 31.83 76.45 31.36 76.70 31.13 C 82.34 35.71 87.83 41.80 95.19 43.39 C 87.64 46.88 79.99 45.93 73.91 39.82 C 74.00 39.11 74.18 37.71 74.27 37.00 C 74.77 35.36 75.22 33.71 75.70 32.06 Z" />
<path fill="#9bbece" opacity="1.00" d=" M 51.36 33.98 C 53.24 33.59 55.17 33.44 57.07 33.15 C 57.22 33.63 57.51 34.60 57.66 35.09 C 57.03 39.48 49.95 38.39 51.36 33.98 Z" />
<path fill="#747695" opacity="1.00" d=" M 28.52 43.16 C 27.11 41.40 27.12 39.34 28.56 36.99 C 29.60 38.92 29.75 41.27 28.52 43.16 Z" />
<path fill="#9497ec" opacity="1.00" d=" M 103.12 41.46 C 105.82 40.91 108.45 40.08 111.00 39.05 L 111.00 58.74 C 105.70 60.80 100.58 63.53 94.92 64.49 C 94.73 60.67 94.82 56.79 93.05 53.29 C 96.90 52.29 100.82 51.25 104.18 49.04 C 105.62 48.90 108.70 49.11 108.67 47.14 C 106.91 45.94 105.24 47.80 104.18 49.04 C 93.74 51.46 83.38 54.26 72.81 56.10 L 72.05 55.78 C 70.02 52.47 67.89 48.79 63.81 47.86 C 67.06 44.99 71.74 43.81 73.91 39.82 C 79.99 45.93 87.64 46.88 95.19 43.39 C 97.82 42.70 100.47 42.09 103.12 41.46 Z" />
<path fill="#8a7adb" opacity="1.00" d=" M 8.82 41.16 C 10.43 41.12 12.04 41.07 13.66 41.05 C 18.29 43.08 22.78 45.40 27.22 47.83 C 23.74 47.69 20.27 47.33 16.79 47.13 C 20.58 51.35 28.50 52.30 28.92 59.15 C 28.41 59.12 27.39 59.06 26.88 59.03 C 26.32 56.81 24.08 56.01 21.99 56.09 C 21.58 54.59 20.51 53.31 18.87 53.21 C 14.89 49.77 11.30 45.83 8.82 41.16 Z" />
<path fill="#c79494" opacity="1.00" d=" M 52.24 43.66 C 52.65 43.53 53.47 43.28 53.87 43.15 C 54.43 43.39 55.54 43.88 56.09 44.12 C 55.64 48.30 53.59 53.15 48.96 53.92 C 48.38 54.21 47.24 54.80 46.67 55.09 C 45.43 54.41 44.17 53.78 42.92 53.13 C 44.24 52.39 45.63 51.79 47.01 51.17 C 47.90 55.28 54.97 46.96 52.24 43.66 Z" />
<path fill="#b1aa9e" opacity="1.00" d=" M 41.79 44.26 C 44.64 44.25 47.50 44.24 50.36 44.23 C 47.64 45.24 44.52 45.44 41.79 44.26 Z" />
<path fill="#735f4f" opacity="1.00" d=" M 56.09 44.12 C 57.55 44.66 56.82 46.80 57.30 48.01 C 54.54 51.07 52.32 57.81 58.96 55.26 C 59.24 55.72 59.80 56.62 60.08 57.08 C 59.60 57.27 58.65 57.65 58.17 57.84 C 56.02 57.12 54.10 58.49 52.20 59.29 C 47.95 60.74 45.21 55.59 41.01 58.02 C 41.29 56.95 41.56 55.88 41.80 54.80 C 42.08 54.38 42.64 53.55 42.92 53.13 C 44.17 53.78 45.43 54.41 46.67 55.09 C 47.96 60.78 56.19 52.85 48.96 53.92 C 53.59 53.15 55.64 48.30 56.09 44.12 Z" />
<path fill="#696ce1" opacity="1.00" d=" M 16.79 47.13 C 20.27 47.33 23.74 47.69 27.22 47.83 C 28.46 48.24 29.70 48.66 30.93 49.10 C 34.42 51.13 38.58 52.67 42.47 50.60 C 44.85 49.72 51.67 47.47 47.01 51.17 C 45.63 51.79 44.24 52.39 42.92 53.13 C 42.64 53.55 42.08 54.38 41.80 54.80 C 36.34 53.81 38.49 58.55 39.80 62.14 C 40.94 64.94 40.39 67.94 40.43 70.87 C 35.88 73.48 30.93 69.95 26.65 68.30 C 27.48 65.96 28.31 63.61 29.02 61.22 C 30.98 62.10 33.02 62.86 35.18 63.06 C 33.21 61.58 31.03 60.42 28.92 59.15 C 28.50 52.30 20.58 51.35 16.79 47.13 Z" />
<path fill="#f3e0d2" opacity="1.00" d=" M 57.30 48.01 C 59.15 47.28 61.14 47.03 63.05 47.70 C 64.96 49.54 64.24 51.72 63.24 53.80 C 61.83 54.35 60.41 54.84 58.96 55.26 C 52.32 57.81 54.54 51.07 57.30 48.01 Z" />
<path fill="#56577a" opacity="1.00" d=" M 104.18 49.04 C 105.24 47.80 106.91 45.94 108.67 47.14 C 108.70 49.11 105.62 48.90 104.18 49.04 Z" />
<path fill="#798376" opacity="1.00" d=" M 63.05 47.70 L 63.81 47.86 C 67.89 48.79 70.02 52.47 72.05 55.78 C 71.02 60.37 64.97 56.22 63.24 53.80 C 64.24 51.72 64.96 49.54 63.05 47.70 M 67.12 52.03 C 64.38 54.12 67.45 56.97 70.06 56.02 C 70.20 54.18 68.71 52.67 67.12 52.03 Z" />
<path fill="#525681" opacity="1.00" d=" M 72.81 56.10 C 83.38 54.26 93.74 51.46 104.18 49.04 C 100.82 51.25 96.90 52.29 93.05 53.29 C 87.61 54.76 81.86 55.21 76.66 57.52 C 80.63 56.47 84.06 58.31 85.18 61.89 C 82.48 59.28 78.93 58.88 75.28 59.03 C 76.04 57.12 74.22 56.68 72.81 56.10 Z" />
<path fill="#bcd673" opacity="1.00" d=" M 67.12 52.03 C 68.71 52.67 70.20 54.18 70.06 56.02 C 67.45 56.97 64.38 54.12 67.12 52.03 Z" />
<path fill="#5c5179" opacity="1.00" d=" M 12.56 55.05 C 10.30 52.32 14.84 51.92 16.97 53.51 C 15.52 54.09 14.06 54.62 12.56 55.05 Z" />
<path fill="#514a71" opacity="1.00" d=" M 18.87 53.21 C 20.51 53.31 21.58 54.59 21.99 56.09 C 20.52 56.06 19.20 55.24 18.58 53.89 L 18.87 53.21 Z" />
<path fill="#797de8" opacity="1.00" d=" M 76.66 57.52 C 81.86 55.21 87.61 54.76 93.05 53.29 C 94.82 56.79 94.73 60.67 94.92 64.49 C 92.27 64.86 89.60 64.96 86.94 65.14 C 87.47 63.70 86.51 62.38 85.18 61.89 C 84.06 58.31 80.63 56.47 76.66 57.52 Z" />
<path fill="#958fe3" opacity="1.00" d=" M 12.56 55.05 C 14.06 54.62 15.52 54.09 16.97 53.51 C 17.37 53.60 18.18 53.79 18.58 53.89 C 19.20 55.24 20.52 56.06 21.99 56.09 C 22.85 58.05 24.85 58.92 26.88 59.03 C 27.59 59.76 28.30 60.49 29.02 61.22 C 28.31 63.61 27.48 65.96 26.65 68.30 C 20.59 65.61 16.79 59.91 12.56 55.05 Z" />
<path fill="#d3b33d" opacity="1.00" d=" M 46.67 55.09 C 47.24 54.80 48.38 54.21 48.96 53.92 C 56.19 52.85 47.96 60.78 46.67 55.09 Z" />
<path fill="#be8282" opacity="1.00" d=" M 58.96 55.26 C 60.41 54.84 61.83 54.35 63.24 53.80 C 63.37 56.08 62.51 57.49 60.08 57.08 C 59.80 56.62 59.24 55.72 58.96 55.26 Z" />
<path fill="#34493e" opacity="1.00" d=" M 63.24 53.80 C 64.97 56.22 71.02 60.37 72.05 55.78 L 72.81 56.10 C 74.22 56.68 76.04 57.12 75.28 59.03 C 75.72 64.15 81.79 69.04 86.89 69.78 C 90.05 73.79 90.95 79.78 98.09 77.14 C 97.60 77.42 96.64 77.98 96.15 78.26 C 91.20 79.31 85.99 76.69 85.11 71.66 C 83.25 70.39 81.10 69.67 78.97 68.99 C 77.60 68.47 76.26 67.88 74.97 67.20 C 71.95 63.54 66.25 59.48 61.59 60.91 C 60.97 59.68 60.56 58.36 60.08 57.08 C 62.51 57.49 63.37 56.08 63.24 53.80 Z" />
<path fill="#535690" opacity="1.00" d=" M 39.80 62.14 C 38.49 58.55 36.34 53.81 41.80 54.80 C 41.56 55.88 41.29 56.95 41.01 58.02 C 40.64 59.11 40.31 60.22 40.01 61.34 L 39.80 62.14 Z" />
<path fill="#47456e" opacity="1.00" d=" M 21.99 56.09 C 24.08 56.01 26.32 56.81 26.88 59.03 C 24.85 58.92 22.85 58.05 21.99 56.09 Z" />
<path fill="#bcd471" opacity="1.00" d=" M 41.01 58.02 C 45.21 55.59 47.95 60.74 52.20 59.29 C 48.52 61.35 44.11 61.15 40.01 61.34 C 40.31 60.22 40.64 59.11 41.01 58.02 Z" />
<path fill="#33483d" opacity="1.00" d=" M 52.20 59.29 C 54.10 58.49 56.02 57.12 58.17 57.84 C 60.10 62.33 52.01 62.73 54.85 68.01 C 54.31 71.61 52.63 76.97 58.17 74.52 C 63.54 73.78 68.88 71.76 74.38 72.85 C 73.88 74.56 73.34 76.25 72.76 77.93 C 71.52 78.60 70.19 79.15 69.08 80.04 C 68.52 80.87 68.00 81.74 67.53 82.63 C 67.34 82.99 66.97 83.70 66.78 84.06 C 65.96 85.47 66.16 87.80 64.19 88.16 C 67.48 83.90 56.32 79.76 56.16 84.86 C 53.58 88.96 56.58 89.59 60.40 89.23 C 59.01 89.58 56.23 90.28 54.84 90.62 C 50.23 89.98 46.58 94.23 42.07 92.24 L 41.27 91.82 C 45.20 88.12 47.17 82.93 49.06 78.00 C 50.07 75.45 49.68 72.63 49.91 69.94 C 49.85 68.56 50.82 65.99 49.18 65.36 C 46.78 64.89 44.37 64.45 41.94 64.15 C 41.60 69.34 43.22 74.34 44.99 79.13 C 45.14 83.80 36.23 87.61 39.75 91.00 C 38.82 91.31 37.90 91.65 37.01 92.04 C 34.56 92.32 32.54 91.67 32.13 89.03 C 35.28 86.87 38.73 84.92 41.18 81.93 C 37.25 83.03 32.19 83.56 29.63 86.96 C 28.71 86.32 27.83 85.64 26.95 84.94 C 27.35 79.57 36.69 82.67 37.57 76.10 C 40.43 77.67 41.68 72.95 40.43 70.87 C 40.39 67.94 40.94 64.94 39.80 62.14 L 40.01 61.34 C 44.11 61.15 48.52 61.35 52.20 59.29 Z" />
<path fill="#413ab3" opacity="1.00" d=" M 58.17 57.84 C 58.65 57.65 59.60 57.27 60.08 57.08 C 60.56 58.36 60.97 59.68 61.59 60.91 C 62.45 64.23 69.77 67.21 65.30 70.32 C 63.27 73.31 52.48 69.78 58.17 74.52 C 52.63 76.97 54.31 71.61 54.85 68.01 C 52.01 62.73 60.10 62.33 58.17 57.84 Z" />
<path fill="#393b70" opacity="1.00" d=" M 26.88 59.03 C 27.39 59.06 28.41 59.12 28.92 59.15 C 31.03 60.42 33.21 61.58 35.18 63.06 C 33.02 62.86 30.98 62.10 29.02 61.22 C 28.30 60.49 27.59 59.76 26.88 59.03 Z" />
<path fill="#c1d972" opacity="1.00" d=" M 75.28 59.03 C 78.93 58.88 82.48 59.28 85.18 61.89 C 84.64 63.33 85.51 64.74 86.94 65.14 C 87.67 66.33 88.38 67.52 89.13 68.70 C 88.57 68.97 87.45 69.51 86.89 69.78 C 81.79 69.04 75.72 64.15 75.28 59.03 Z" />
<path fill="#09080d" opacity="0.94" d=" M 94.92 64.49 C 100.58 63.53 105.70 60.80 111.00 58.74 L 111.00 61.74 C 105.09 63.81 99.24 66.13 93.08 67.34 C 92.74 71.69 99.76 70.12 102.11 71.87 C 106.87 72.63 105.29 78.39 105.65 81.79 C 103.11 85.08 97.44 81.50 94.11 82.94 C 98.10 86.66 93.41 94.86 88.21 94.86 C 83.16 98.41 77.05 106.70 70.26 102.55 C 67.54 104.97 63.99 106.99 63.58 111.00 L 61.80 111.00 C 62.70 108.76 63.57 106.51 64.26 104.19 C 67.22 103.22 65.07 103.08 63.08 102.91 L 63.06 102.09 C 65.27 101.68 67.41 101.01 69.50 100.18 C 71.57 99.87 75.86 97.29 74.41 101.26 C 80.30 98.25 85.66 94.17 89.86 89.06 C 89.54 94.52 92.44 89.92 93.23 87.38 C 88.82 88.89 92.68 83.82 93.23 81.82 C 93.77 81.15 94.31 80.49 94.86 79.84 C 95.43 80.15 96.57 80.79 97.14 81.10 L 97.81 81.51 C 99.84 83.65 104.96 82.49 102.11 79.99 C 96.66 76.71 108.01 78.67 102.02 74.93 C 98.11 72.20 93.55 70.47 89.13 68.70 C 88.38 67.52 87.67 66.33 86.94 65.14 C 89.60 64.96 92.27 64.86 94.92 64.49 Z" />
<path fill="#07070b" opacity="0.93" d=" M 61.59 60.91 C 66.25 59.48 71.95 63.54 74.97 67.20 C 71.63 66.46 68.54 65.09 65.97 62.81 C 67.89 69.14 74.08 70.66 79.94 71.05 C 79.70 70.53 79.21 69.50 78.97 68.99 C 81.10 69.67 83.25 70.39 85.11 71.66 C 83.31 71.95 81.52 72.31 79.73 72.70 C 77.95 72.82 76.16 72.87 74.38 72.85 C 68.88 71.76 63.54 73.78 58.17 74.52 C 52.48 69.78 63.27 73.31 65.30 70.32 C 69.77 67.21 62.45 64.23 61.59 60.91 Z" />
<path fill="#535870" opacity="1.00" d=" M 85.18 61.89 C 86.51 62.38 87.47 63.70 86.94 65.14 C 85.51 64.74 84.64 63.33 85.18 61.89 Z" />
<path fill="#000000" opacity="0.15" d=" M 65.97 62.81 C 68.54 65.09 71.63 66.46 74.97 67.20 C 76.26 67.88 77.60 68.47 78.97 68.99 C 79.21 69.50 79.70 70.53 79.94 71.05 C 74.08 70.66 67.89 69.14 65.97 62.81 Z" />
<path fill="#d5e782" opacity="1.00" d=" M 41.94 64.15 C 44.37 64.45 46.78 64.89 49.18 65.36 C 49.09 67.32 45.89 71.05 49.91 69.94 C 49.68 72.63 50.07 75.45 49.06 78.00 C 47.70 78.37 46.35 78.75 44.99 79.13 C 43.22 74.34 41.60 69.34 41.94 64.15 Z" />
<path fill="#899c55" opacity="1.00" d=" M 49.18 65.36 C 50.82 65.99 49.85 68.56 49.91 69.94 C 45.89 71.05 49.09 67.32 49.18 65.36 Z" />
<path fill="#81a256" opacity="1.00" d=" M 86.89 69.78 C 87.45 69.51 88.57 68.97 89.13 68.70 C 93.55 70.47 98.11 72.20 102.02 74.93 C 100.70 75.66 99.40 76.41 98.09 77.14 C 90.95 79.78 90.05 73.79 86.89 69.78 Z" />
<path fill="#98b360" opacity="1.00" d=" M 40.43 70.87 C 41.68 72.95 40.43 77.67 37.57 76.10 C 38.49 74.34 39.48 72.61 40.43 70.87 Z" />
<path fill="#231864" opacity="1.00" d=" M 79.73 72.70 C 81.52 72.31 83.31 71.95 85.11 71.66 C 85.99 76.69 91.20 79.31 96.15 78.26 C 95.83 78.65 95.19 79.44 94.86 79.84 C 94.31 80.49 93.77 81.15 93.23 81.82 C 92.22 81.53 91.21 81.26 90.19 81.02 C 88.37 76.67 85.33 82.38 90.19 81.02 C 88.04 82.92 85.92 80.91 83.88 79.95 C 83.46 83.40 87.42 83.80 89.23 85.91 C 85.75 83.91 83.08 84.92 81.01 88.17 C 81.77 85.58 82.91 83.07 83.18 80.35 C 78.47 80.86 73.76 80.63 69.08 80.04 C 70.19 79.15 71.52 78.60 72.76 77.93 C 74.56 82.04 81.80 78.39 85.79 78.91 C 86.40 74.19 84.18 72.03 79.73 72.70 Z" />
<path fill="#2d1dac" opacity="1.00" d=" M 74.38 72.85 C 76.16 72.87 77.95 72.82 79.73 72.70 C 84.18 72.03 86.40 74.19 85.79 78.91 C 81.80 78.39 74.56 82.04 72.76 77.93 C 73.34 76.25 73.88 74.56 74.38 72.85 Z" />
<path fill="#5b4d87" opacity="1.00" d=" M 98.09 77.14 C 99.40 76.41 100.70 75.66 102.02 74.93 C 108.01 78.67 96.66 76.71 102.11 79.99 C 100.46 79.64 97.93 79.09 97.14 81.10 C 96.57 80.79 95.43 80.15 94.86 79.84 C 95.19 79.44 95.83 78.65 96.15 78.26 C 96.64 77.98 97.60 77.42 98.09 77.14 Z" />
<path fill="#9cb963" opacity="1.00" d=" M 44.99 79.13 C 46.35 78.75 47.70 78.37 49.06 78.00 C 47.17 82.93 45.20 88.12 41.27 91.82 C 40.89 91.61 40.13 91.21 39.75 91.00 C 36.23 87.61 45.14 83.80 44.99 79.13 Z" />
<path fill="#b87f77" opacity="1.00" d=" M 90.19 81.02 C 88.37 76.67 85.33 82.38 90.19 81.02 Z" />
<path fill="#301faa" opacity="1.00" d=" M 69.08 80.04 C 73.76 80.63 78.47 80.86 83.18 80.35 C 82.91 83.07 81.77 85.58 81.01 88.17 C 83.08 84.92 85.75 83.91 89.23 85.91 C 87.42 83.80 83.46 83.40 83.88 79.95 C 85.92 80.91 88.04 82.92 90.19 81.02 C 91.21 81.26 92.22 81.53 93.23 81.82 C 92.68 83.82 88.82 88.89 93.23 87.38 C 92.44 89.92 89.54 94.52 89.86 89.06 C 85.66 94.17 80.30 98.25 74.41 101.26 C 75.86 97.29 71.57 99.87 69.50 100.18 C 68.02 98.44 66.38 96.70 63.91 96.71 C 69.23 93.48 76.45 95.20 80.15 89.00 C 70.63 91.88 62.22 97.07 51.88 96.94 C 52.68 95.02 59.85 90.79 54.84 90.62 C 56.23 90.28 59.01 89.58 60.40 89.23 C 61.68 88.94 62.96 88.62 64.19 88.16 C 66.16 87.80 65.96 85.47 66.78 84.06 C 68.61 88.36 78.15 88.44 79.21 83.14 C 76.29 83.01 70.45 82.76 67.53 82.63 C 68.00 81.74 68.52 80.87 69.08 80.04 Z" />
<path fill="#ecd2c4" opacity="1.00" d=" M 97.14 81.10 C 97.93 79.09 100.46 79.64 102.11 79.99 C 100.77 80.74 99.27 81.09 97.81 81.51 L 97.14 81.10 Z" />
<path fill="#4f4b46" opacity="1.00" d=" M 102.11 79.99 C 104.96 82.49 99.84 83.65 97.81 81.51 C 99.27 81.09 100.77 80.74 102.11 79.99 Z" />
<path fill="#c0d770" opacity="1.00" d=" M 29.63 86.96 C 32.19 83.56 37.25 83.03 41.18 81.93 C 38.73 84.92 35.28 86.87 32.13 89.03 C 31.31 88.32 30.48 87.63 29.63 86.96 Z" />
<path fill="#557548" opacity="1.00" d=" M 56.16 84.86 C 56.32 79.76 67.48 83.90 64.19 88.16 C 62.96 88.62 61.68 88.94 60.40 89.23 C 59.04 87.72 57.64 86.25 56.16 84.86 Z" />
<path fill="#504bd5" opacity="1.00" d=" M 66.78 84.06 C 66.97 83.70 67.34 82.99 67.53 82.63 C 70.45 82.76 76.29 83.01 79.21 83.14 C 78.15 88.44 68.61 88.36 66.78 84.06 Z" />
<path fill="#c4c6f0" opacity="1.00" d=" M 16.20 90.01 C 13.51 85.41 24.25 86.74 26.95 84.94 C 26.97 89.01 24.99 92.78 21.19 94.48 C 19.53 92.99 17.89 91.47 16.20 90.01 Z" />
<path fill="#7c80e1" opacity="1.00" d=" M 26.95 84.94 C 27.83 85.64 28.71 86.32 29.63 86.96 C 30.48 87.63 31.31 88.32 32.13 89.03 C 32.54 91.67 34.56 92.32 37.01 92.04 C 35.57 94.64 29.82 92.47 31.62 96.24 C 29.02 94.03 27.55 97.23 26.07 99.06 C 29.20 99.47 38.50 96.26 34.13 102.13 C 36.32 101.06 38.50 99.65 41.06 99.95 C 41.19 102.13 40.38 104.75 37.99 105.29 C 36.41 104.97 34.86 104.17 33.23 104.33 C 28.83 107.36 23.72 102.80 19.49 101.19 C 20.24 99.76 21.05 98.36 21.95 97.02 C 25.33 97.38 23.11 93.98 20.91 95.22 L 21.19 94.48 C 24.99 92.78 26.97 89.01 26.95 84.94 Z" />
<path fill="#d2ea74" opacity="1.00" d=" M 56.16 84.86 C 57.64 86.25 59.04 87.72 60.40 89.23 C 56.58 89.59 53.58 88.96 56.16 84.86 Z" />
<path fill="#1e1563" opacity="1.00" d=" M 51.88 96.94 C 62.22 97.07 70.63 91.88 80.15 89.00 C 76.45 95.20 69.23 93.48 63.91 96.71 C 62.13 97.61 63.41 100.42 63.06 102.09 L 63.08 102.91 C 64.69 94.27 55.55 97.35 50.03 98.93 C 50.02 98.48 50.01 97.59 50.00 97.14 C 50.47 97.09 51.41 96.99 51.88 96.94 Z" />
<path fill="#5a5c76" opacity="1.00" d=" M 16.20 90.01 C 17.89 91.47 19.53 92.99 21.19 94.48 L 20.91 95.22 C 18.66 93.87 16.51 92.24 13.90 91.64 C 14.67 91.10 15.44 90.56 16.20 90.01 Z" />
<path fill="#bec0f5" opacity="1.00" d=" M 37.01 92.04 C 37.90 91.65 38.82 91.31 39.75 91.00 C 40.13 91.21 40.89 91.61 41.27 91.82 L 42.07 92.24 C 42.32 97.34 38.13 97.70 33.82 97.23 C 33.27 96.98 32.17 96.49 31.62 96.24 C 29.82 92.47 35.57 94.64 37.01 92.04 Z" />
<path fill="#605fde" opacity="1.00" d=" M 42.07 92.24 C 46.58 94.23 50.23 89.98 54.84 90.62 C 59.85 90.79 52.68 95.02 51.88 96.94 C 51.41 96.99 50.47 97.09 50.00 97.14 C 44.63 97.51 38.93 100.13 33.82 97.23 C 38.13 97.70 42.32 97.34 42.07 92.24 Z" />
<path fill="#b4b7eb" opacity="1.00" d=" M 19.49 101.19 C 15.51 100.95 4.95 91.52 13.90 91.64 C 16.51 92.24 18.66 93.87 20.91 95.22 C 21.17 95.67 21.69 96.57 21.95 97.02 C 21.05 98.36 20.24 99.76 19.49 101.19 Z" />
<path fill="#434678" opacity="1.00" d=" M 20.91 95.22 C 23.11 93.98 25.33 97.38 21.95 97.02 C 21.69 96.57 21.17 95.67 20.91 95.22 Z" />
<path fill="#3a3b78" opacity="1.00" d=" M 26.07 99.06 C 27.55 97.23 29.02 94.03 31.62 96.24 C 32.17 96.49 33.27 96.98 33.82 97.23 C 38.93 100.13 44.63 97.51 50.00 97.14 C 50.01 97.59 50.02 98.48 50.03 98.93 C 50.72 102.17 48.55 99.38 47.08 98.98 C 42.87 100.08 41.66 104.08 39.09 106.99 C 38.81 106.56 38.26 105.71 37.99 105.29 C 40.38 104.75 41.19 102.13 41.06 99.95 C 38.50 99.65 36.32 101.06 34.13 102.13 C 38.50 96.26 29.20 99.47 26.07 99.06 Z" />
<path fill="#3729b1" opacity="1.00" d=" M 50.03 98.93 C 55.55 97.35 64.69 94.27 63.08 102.91 C 65.07 103.08 67.22 103.22 64.26 104.19 C 58.36 104.61 52.45 105.31 46.71 106.78 C 45.67 104.34 46.99 101.55 47.08 98.98 C 48.55 99.38 50.72 102.17 50.03 98.93 Z" />
<path fill="#6964d1" opacity="1.00" d=" M 63.06 102.09 C 63.41 100.42 62.13 97.61 63.91 96.71 C 66.38 96.70 68.02 98.44 69.50 100.18 C 67.41 101.01 65.27 101.68 63.06 102.09 Z" />
<path fill="#676ce7" opacity="1.00" d=" M 39.09 106.99 C 41.66 104.08 42.87 100.08 47.08 98.98 C 46.99 101.55 45.67 104.34 46.71 106.78 C 49.72 110.19 44.25 110.12 41.97 110.12 C 40.75 109.45 39.52 108.78 38.29 108.12 C 38.49 107.84 38.89 107.27 39.09 106.99 Z" />
<path fill="#2c3f45" opacity="1.00" d=" M 46.71 106.78 C 52.45 105.31 58.36 104.61 64.26 104.19 C 63.57 106.51 62.70 108.76 61.80 111.00 L 42.18 111.00 L 41.97 110.12 C 44.25 110.12 49.72 110.19 46.71 106.78 Z" />
<path fill="#748155" opacity="1.00" d=" M 38.29 108.12 C 39.52 108.78 40.75 109.45 41.97 110.12 L 42.18 111.00 L 37.76 111.00 C 37.90 110.28 38.16 108.84 38.29 108.12 Z" />
</svg>
