<?xml version="1.0" encoding="UTF-8" ?>
<!DOCTYPE svg PUBLIC "-//W3C//DTD SVG 1.1//EN" "http://www.w3.org/Graphics/SVG/1.1/DTD/svg11.dtd">
<svg width="111pt" height="111pt" viewBox="0 0 111 111" version="1.1" xmlns="http://www.w3.org/2000/svg">
<path fill="#20111a" opacity="1.00" d=" M 70.97 22.68 C 83.58 14.74 97.13 8.41 111.00 3.03 L 111.00 5.06 C 97.68 11.68 82.77 16.08 71.70 26.46 C 71.30 26.68 70.49 27.11 70.09 27.33 C 69.61 25.08 68.72 22.93 67.36 21.07 C 66.21 19.69 65.20 17.58 63.10 17.67 C 63.32 18.29 63.76 19.53 63.98 20.14 C 64.32 21.73 65.25 23.08 66.00 24.50 C 63.80 23.88 63.04 26.81 62.05 28.20 C 60.48 30.23 61.84 32.47 62.81 34.39 C 64.06 32.56 65.29 30.68 66.90 29.13 C 67.15 28.88 67.65 28.38 67.90 28.13 C 69.29 29.17 70.96 29.69 72.63 30.10 C 72.91 31.80 73.20 33.51 73.46 35.22 L 73.66 36.75 L 74.50 36.44 C 74.41 36.85 74.24 37.68 74.16 38.10 C 74.10 38.54 73.98 39.42 73.92 39.86 C 73.94 41.16 73.97 42.45 74.02 43.75 C 76.93 44.55 79.86 45.31 82.74 46.24 C 85.28 47.11 87.75 48.17 90.25 49.12 C 91.12 49.44 91.98 49.77 92.84 50.10 C 95.15 50.99 97.41 52.02 99.72 52.90 C 100.20 53.07 101.17 53.41 101.66 53.58 C 103.03 54.09 104.36 54.72 105.60 55.52 C 105.82 55.88 106.26 56.62 106.47 56.99 C 104.45 56.12 102.43 55.23 100.43 54.31 C 99.67 53.96 98.90 53.62 98.13 53.29 C 96.98 52.83 95.82 52.38 94.66 51.92 C 92.18 50.87 89.65 49.90 87.07 49.12 C 84.44 48.33 81.80 47.55 79.17 46.75 C 78.88 46.62 78.28 46.35 77.98 46.22 C 76.64 45.64 73.28 43.21 73.44 46.21 C 73.32 46.60 73.08 47.39 72.96 47.79 L 72.35 49.55 C 71.76 49.07 71.20 48.57 70.67 48.04 C 70.22 47.55 69.31 46.58 68.86 46.10 C 67.64 46.72 66.50 47.49 65.34 48.20 C 66.21 47.03 67.09 45.86 67.98 44.70 C 66.88 43.06 65.77 41.43 64.60 39.84 C 64.23 39.32 63.48 38.28 63.10 37.76 C 62.89 37.37 62.46 36.61 62.24 36.23 C 60.54 31.91 58.50 27.72 57.09 23.30 C 57.01 22.95 56.85 22.25 56.77 21.90 C 54.01 21.88 51.27 22.32 48.88 23.76 L 47.87 24.10 C 44.34 24.34 40.93 25.44 38.30 27.88 C 40.03 27.70 41.76 27.47 43.49 27.28 C 42.22 27.80 40.95 28.29 39.66 28.74 C 38.88 30.17 37.47 31.92 39.07 33.35 C 40.52 35.56 41.45 38.04 42.11 40.59 C 41.23 40.51 39.47 40.36 38.59 40.28 C 39.82 42.22 41.80 43.40 43.75 44.48 C 40.90 44.81 39.01 42.20 38.19 39.80 C 37.52 39.51 36.16 38.92 35.48 38.62 C 34.86 38.37 34.24 38.11 33.61 37.86 C 34.14 37.66 35.18 37.25 35.71 37.04 C 36.47 34.25 37.18 31.43 37.95 28.64 C 37.50 29.10 36.60 30.03 36.15 30.49 C 34.28 28.98 32.31 27.59 30.34 26.20 C 30.24 26.52 30.06 27.15 29.97 27.47 C 29.37 28.91 28.70 30.34 27.89 31.68 C 27.65 32.03 27.16 32.72 26.91 33.06 C 25.86 34.50 24.86 35.97 23.85 37.43 L 23.66 37.62 C 21.20 40.17 19.04 42.99 17.25 46.04 C 16.93 46.58 16.62 47.12 16.30 47.67 C 18.80 49.00 21.37 50.20 24.04 51.16 C 24.54 51.82 25.04 52.49 25.54 53.16 C 22.75 56.15 20.34 59.49 18.40 63.10 C 19.44 65.11 20.47 67.20 22.21 68.71 C 24.58 71.01 28.03 71.95 29.89 74.80 C 23.90 74.60 18.22 69.87 17.12 63.96 C 17.36 59.81 20.35 56.53 22.74 53.38 C 20.14 51.66 17.39 50.04 14.27 49.50 C 12.14 46.42 10.12 43.13 10.16 39.24 C 6.49 37.02 3.11 34.36 0.00 31.42 L 0.00 27.33 C 2.77 30.85 6.19 33.80 10.06 36.06 C 13.36 37.92 10.60 42.86 13.34 45.18 C 13.45 42.54 13.38 39.88 13.66 37.25 C 14.06 34.86 14.55 32.48 15.07 30.11 L 15.23 29.43 C 16.19 26.58 17.58 23.92 18.96 21.26 L 19.36 20.13 C 12.86 17.44 6.64 14.07 0.00 11.71 L 0.00 10.89 C 7.31 12.80 13.96 16.45 21.04 18.95 C 20.80 18.48 20.31 17.56 20.06 17.09 C 13.81 13.46 6.65 11.81 0.00 9.22 L 0.00 8.00 C 7.12 9.41 13.80 12.33 20.27 15.54 C 21.92 13.84 23.55 12.12 25.19 10.41 C 27.27 12.46 29.39 14.56 30.74 17.19 C 32.48 20.31 33.06 24.42 36.71 25.99 C 41.18 22.75 46.91 22.68 51.83 20.41 C 56.58 22.13 56.23 15.52 55.71 12.58 C 56.08 12.20 56.84 11.44 57.22 11.06 C 57.62 14.43 56.94 18.04 58.61 21.16 C 59.64 19.16 61.36 17.31 61.53 14.97 C 60.66 12.97 58.99 11.53 57.15 10.44 C 57.03 10.00 56.77 9.13 56.65 8.70 C 63.21 10.88 67.25 17.23 70.97 22.68 M 25.43 13.17 C 24.69 14.61 23.84 16.00 22.86 17.30 L 22.17 17.65 C 22.30 18.48 22.46 19.30 22.65 20.12 L 21.85 18.95 C 21.02 20.34 20.22 21.74 19.41 23.14 C 21.29 24.95 22.88 27.01 24.17 29.27 L 24.47 28.81 C 24.82 29.66 25.52 31.35 25.87 32.20 C 27.72 30.40 28.96 27.53 26.47 25.70 C 25.98 24.62 25.33 23.63 24.52 22.74 C 25.44 22.78 26.35 22.82 27.27 22.87 C 27.54 21.75 27.80 20.63 28.06 19.51 C 28.16 20.78 28.73 21.62 29.80 22.01 C 29.04 18.77 27.66 15.66 25.43 13.17 M 58.61 23.87 C 59.41 25.49 60.13 27.14 60.85 28.80 C 62.04 27.16 62.18 24.24 64.72 24.07 C 63.89 23.37 63.05 22.68 62.20 22.01 C 62.51 20.79 64.16 19.40 62.67 18.28 C 59.78 17.49 59.65 21.99 58.61 23.87 M 28.14 23.26 C 26.87 24.05 27.92 27.08 29.33 25.58 C 30.40 24.75 29.62 22.10 28.14 23.26 M 17.29 29.27 C 13.88 33.09 19.05 36.41 21.12 39.29 C 23.22 35.67 19.37 32.89 17.96 29.91 C 18.91 30.82 19.78 31.80 20.65 32.79 C 21.05 34.17 22.17 35.15 23.06 36.21 C 26.65 32.58 22.93 27.19 19.68 24.91 L 19.82 23.80 C 17.97 24.92 17.55 27.29 17.29 29.27 M 65.09 38.00 C 66.06 36.28 67.05 34.53 68.61 33.27 C 68.59 32.14 68.55 29.88 68.53 28.75 C 65.87 30.63 61.06 35.14 65.09 38.00 M 70.75 33.42 L 69.42 33.12 L 69.69 34.77 C 69.32 34.55 68.58 34.09 68.20 33.86 C 67.39 35.36 66.45 36.78 65.39 38.11 C 65.83 38.89 66.70 40.45 67.14 41.22 C 68.22 39.49 69.24 37.70 70.04 35.81 C 70.68 36.27 71.98 37.19 72.63 37.65 C 72.33 36.63 71.71 34.60 71.41 33.59 C 73.91 31.40 68.60 30.51 70.75 33.42 M 37.10 32.28 C 36.84 33.93 36.59 35.59 36.35 37.25 C 37.18 37.56 38.84 38.19 39.67 38.51 C 39.86 36.16 39.52 33.39 37.10 32.28 M 15.59 44.34 L 14.28 44.63 L 14.73 46.92 C 15.75 45.55 16.77 44.19 17.90 42.91 C 17.36 41.50 16.61 40.17 16.25 38.69 C 16.97 39.96 18.01 41.00 18.96 42.09 C 20.86 39.95 19.40 37.17 17.18 36.09 C 16.79 35.54 16.01 34.44 15.62 33.88 C 15.65 37.37 14.07 41.02 15.59 44.34 M 67.34 41.75 C 68.76 43.75 70.24 45.71 71.97 47.45 C 71.95 43.96 73.92 39.78 71.18 36.88 C 69.48 38.15 68.42 39.98 67.34 41.75 Z" />
<path fill="#f6e4b9" opacity="1.00" d=" M 71.70 26.46 C 82.77 16.08 97.68 11.68 111.00 5.06 L 111.00 6.87 C 107.55 8.30 104.17 9.91 100.76 11.44 C 100.63 11.51 100.35 11.65 100.21 11.72 C 99.71 12.08 98.70 12.80 98.20 13.16 C 97.67 13.41 96.61 13.91 96.08 14.16 C 91.73 15.38 87.72 17.52 83.87 19.85 C 83.35 20.14 82.30 20.71 81.78 21.00 C 80.40 21.74 79.02 22.49 77.67 23.30 C 75.73 24.44 73.72 25.46 71.70 26.46 Z" />
<path fill="#411c24" opacity="1.00" d=" M 100.76 11.44 C 104.17 9.91 107.55 8.30 111.00 6.87 L 111.00 8.62 C 104.58 10.85 98.96 14.77 92.97 17.91 C 88.41 21.36 82.36 21.61 77.89 25.22 L 77.67 23.30 C 79.02 22.49 80.40 21.74 81.78 21.00 C 82.30 20.71 83.35 20.14 83.87 19.85 C 88.44 19.41 92.68 17.18 96.08 14.16 C 96.61 13.91 97.67 13.41 98.20 13.16 C 98.70 12.80 99.71 12.08 100.21 11.72 C 100.35 11.65 100.63 11.51 100.76 11.44 Z" />
<path fill="#f6e4b9" opacity="1.00" d=" M 0.00 9.22 C 6.65 11.81 13.81 13.46 20.06 17.09 C 20.31 17.56 20.80 18.48 21.04 18.95 C 13.96 16.45 7.31 12.80 0.00 10.89 L 0.00 9.22 Z" />
<path fill="#ffffef" opacity="1.00" d=" M 92.97 17.91 C 98.96 14.77 104.58 10.85 111.00 8.62 L 111.00 10.31 C 104.82 13.40 98.68 16.58 92.44 19.57 C 90.28 20.55 88.09 21.45 85.95 22.48 C 81.34 24.69 76.81 27.14 72.63 30.10 C 70.96 29.69 69.29 29.17 67.90 28.13 C 67.49 27.03 67.11 25.92 66.75 24.81 C 67.88 25.62 69.01 26.45 70.09 27.33 C 70.72 28.04 71.33 28.76 71.95 29.47 C 73.69 27.74 75.84 26.54 77.89 25.22 C 82.36 21.61 88.41 21.36 92.97 17.91 Z" />
<path fill="#c0756e" opacity="1.00" d=" M 57.15 10.44 C 58.99 11.53 60.66 12.97 61.53 14.97 C 61.36 17.31 59.64 19.16 58.61 21.16 C 56.94 18.04 57.62 14.43 57.22 11.06 L 57.15 10.44 Z" />
<path fill="#c0756e" opacity="1.00" d=" M 100.21 11.72 C 100.35 11.65 100.63 11.51 100.76 11.44 C 100.63 11.51 100.35 11.65 100.21 11.72 Z" />
<path fill="#ba9c76" opacity="1.00" d=" M 92.44 19.57 C 98.68 16.58 104.82 13.40 111.00 10.31 L 111.00 13.52 C 108.37 15.68 106.98 20.95 111.00 22.42 L 111.00 22.95 C 106.20 22.89 101.93 25.72 97.16 25.73 C 96.10 25.09 95.17 24.28 94.22 23.51 C 95.39 22.82 96.57 22.15 97.76 21.48 C 95.97 20.87 94.20 20.24 92.44 19.57 Z" />
<path fill="#fffff9" opacity="1.00" d=" M 0.00 11.71 C 6.64 14.07 12.86 17.44 19.36 20.13 L 18.96 21.26 C 15.34 19.92 11.86 18.25 8.30 16.76 C 5.60 15.58 2.79 14.71 0.00 13.76 L 0.00 11.71 Z" />
<path fill="#97494b" opacity="1.00" d=" M 98.20 13.16 C 98.70 12.80 99.71 12.08 100.21 11.72 C 99.71 12.08 98.70 12.80 98.20 13.16 Z" />
<path fill="#fcfbe6" opacity="1.00" d=" M 25.43 13.17 C 27.66 15.66 29.04 18.77 29.80 22.01 C 28.73 21.62 28.16 20.78 28.06 19.51 C 27.21 18.29 26.23 17.17 25.28 16.03 C 24.47 16.45 23.67 16.88 22.86 17.30 C 23.84 16.00 24.69 14.61 25.43 13.17 Z" />
<path fill="#000000" opacity="0.47" d=" M 51.83 20.41 C 53.04 17.76 54.08 15.01 55.71 12.58 C 56.23 15.52 56.58 22.13 51.83 20.41 Z" />
<path fill="#97494b" opacity="1.00" d=" M 96.08 14.16 C 96.61 13.91 97.67 13.41 98.20 13.16 C 97.67 13.41 96.61 13.91 96.08 14.16 Z" />
<path fill="#c8b081" opacity="1.00" d=" M 0.00 13.76 C 2.79 14.71 5.60 15.58 8.30 16.76 C 8.00 16.98 7.39 17.43 7.09 17.65 C 5.12 17.41 1.64 16.12 1.24 19.08 C 0.19 22.27 3.63 23.44 6.10 23.57 C 7.46 26.09 9.63 27.95 12.05 29.42 C 12.93 30.29 13.94 30.52 15.07 30.11 C 14.55 32.48 14.06 34.86 13.66 37.25 C 8.92 33.33 3.68 29.87 0.00 24.84 L 0.00 13.76 Z" />
<path fill="#97494b" opacity="1.00" d=" M 83.87 19.85 C 87.72 17.52 91.73 15.38 96.08 14.16 C 92.68 17.18 88.44 19.41 83.87 19.85 Z" />
<path fill="#ffffef" opacity="1.00" d=" M 111.00 22.42 C 106.98 20.95 108.37 15.68 111.00 13.52 L 111.00 22.42 Z" />
<path fill="#ffffee" opacity="1.00" d=" M 1.24 19.08 C 1.64 16.12 5.12 17.41 7.09 17.65 C 7.00 19.66 6.76 21.66 6.10 23.57 C 3.63 23.44 0.19 22.27 1.24 19.08 Z" />
<path fill="#ba9d75" opacity="1.00" d=" M 7.09 17.65 C 7.39 17.43 8.00 16.98 8.30 16.76 C 11.86 18.25 15.34 19.92 18.96 21.26 C 17.58 23.92 16.19 26.58 15.23 29.43 C 14.43 29.42 12.84 29.42 12.05 29.42 C 9.63 27.95 7.46 26.09 6.10 23.57 C 6.76 21.66 7.00 19.66 7.09 17.65 Z" />
<path fill="#97494b" opacity="1.00" d=" M 22.17 17.65 L 22.86 17.30 C 23.67 16.88 24.47 16.45 25.28 16.03 C 26.23 17.17 27.21 18.29 28.06 19.51 C 27.80 20.63 27.54 21.75 27.27 22.87 C 26.35 22.82 25.44 22.78 24.52 22.74 C 23.87 21.89 23.24 21.01 22.65 20.12 C 22.46 19.30 22.30 18.48 22.17 17.65 Z" />
<path fill="#fffff9" opacity="1.00" d=" M 63.10 17.67 C 65.20 17.58 66.21 19.69 67.36 21.07 C 66.65 20.88 65.23 20.51 64.52 20.33 L 63.98 20.14 C 63.76 19.53 63.32 18.29 63.10 17.67 Z" />
<path fill="#ffffe4" opacity="1.00" d=" M 58.61 23.87 C 59.65 21.99 59.78 17.49 62.67 18.28 C 64.16 19.40 62.51 20.79 62.20 22.01 C 63.05 22.68 63.89 23.37 64.72 24.07 C 62.18 24.24 62.04 27.16 60.85 28.80 C 60.13 27.14 59.41 25.49 58.61 23.87 Z" />
<path fill="#ffffee" opacity="1.00" d=" M 19.41 23.14 C 20.22 21.74 21.02 20.34 21.85 18.95 L 22.65 20.12 C 23.24 21.01 23.87 21.89 24.52 22.74 C 25.33 23.63 25.98 24.62 26.47 25.70 C 25.80 26.74 25.13 27.77 24.47 28.81 L 24.17 29.27 C 22.88 27.01 21.29 24.95 19.41 23.14 Z" />
<path fill="#694940" opacity="1.00" d=" M 63.98 20.14 L 64.52 20.33 C 65.23 20.51 66.65 20.88 67.36 21.07 C 68.72 22.93 69.61 25.08 70.09 27.33 C 69.01 26.45 67.88 25.62 66.75 24.81 C 67.11 25.92 67.49 27.03 67.90 28.13 C 67.65 28.38 67.15 28.88 66.90 29.13 C 66.70 27.56 66.40 26.02 66.00 24.50 C 65.25 23.08 64.32 21.73 63.98 20.14 Z" />
<path fill="#c0756e" opacity="1.00" d=" M 81.78 21.00 C 82.30 20.71 83.35 20.14 83.87 19.85 C 83.35 20.14 82.30 20.71 81.78 21.00 Z" />
<path fill="#a87f5e" opacity="1.00" d=" M 85.95 22.48 C 88.09 21.45 90.28 20.55 92.44 19.57 C 94.20 20.24 95.97 20.87 97.76 21.48 C 96.57 22.15 95.39 22.82 94.22 23.51 C 95.17 24.28 96.10 25.09 97.16 25.73 C 101.93 25.72 106.20 22.89 111.00 22.95 L 111.00 23.53 C 106.89 25.75 102.15 26.43 97.76 27.96 C 95.70 28.47 93.62 28.88 91.55 29.30 C 89.34 27.75 86.61 27.81 84.04 27.68 C 85.42 26.53 86.83 25.39 88.02 24.03 C 87.50 23.64 86.47 22.87 85.95 22.48 Z" />
<path fill="#694940" opacity="1.00" d=" M 48.88 23.76 C 51.27 22.32 54.01 21.88 56.77 21.90 C 56.85 22.25 57.01 22.95 57.09 23.30 C 55.41 23.08 53.51 21.71 51.94 22.94 C 51.61 24.24 51.33 25.56 51.12 26.89 C 56.00 27.27 58.88 31.88 58.68 36.47 C 58.40 36.53 57.83 36.64 57.55 36.70 L 57.39 35.91 C 57.13 34.62 56.90 33.32 56.44 32.09 C 55.67 31.35 54.86 30.65 54.03 29.99 C 53.22 29.36 52.37 28.74 51.41 28.35 C 50.78 28.90 50.17 29.45 49.56 30.02 C 49.52 29.18 49.48 28.33 49.43 27.48 C 47.24 27.24 44.60 28.09 42.86 26.34 C 45.36 26.17 47.86 26.21 50.36 26.34 C 50.46 25.54 50.65 23.95 50.75 23.16 L 48.88 23.76 Z" />
<path fill="#632978" opacity="1.00" d=" M 28.14 23.26 C 29.62 22.10 30.40 24.75 29.33 25.58 C 27.92 27.08 26.87 24.05 28.14 23.26 Z" />
<path fill="#efe9ce" opacity="1.00" d=" M 51.94 22.94 C 53.51 21.71 55.41 23.08 57.09 23.30 C 58.50 27.72 60.54 31.91 62.24 36.23 C 61.35 36.29 59.57 36.41 58.68 36.47 C 58.88 31.88 56.00 27.27 51.12 26.89 C 51.33 25.56 51.61 24.24 51.94 22.94 Z" />
<path fill="#946048" opacity="1.00" d=" M 72.63 30.10 C 76.81 27.14 81.34 24.69 85.95 22.48 C 86.47 22.87 87.50 23.64 88.02 24.03 C 86.83 25.39 85.42 26.53 84.04 27.68 C 86.61 27.81 89.34 27.75 91.55 29.30 C 85.39 30.83 79.31 32.76 73.46 35.22 C 73.20 33.51 72.91 31.80 72.63 30.10 Z" />
<path fill="#ffffe4" opacity="1.00" d=" M 38.30 27.88 C 40.93 25.44 44.34 24.34 47.87 24.10 L 48.88 23.76 L 50.75 23.16 C 50.65 23.95 50.46 25.54 50.36 26.34 C 47.86 26.21 45.36 26.17 42.86 26.34 C 44.60 28.09 47.24 27.24 49.43 27.48 C 47.35 27.97 45.27 28.46 43.18 28.94 C 43.15 29.66 43.10 31.09 43.07 31.80 C 43.70 32.38 44.34 32.96 44.98 33.54 C 43.04 33.01 41.04 33.04 39.07 33.35 C 37.47 31.92 38.88 30.17 39.66 28.74 C 40.95 28.29 42.22 27.80 43.49 27.28 C 41.76 27.47 40.03 27.70 38.30 27.88 Z" />
<path fill="#442654" opacity="1.00" d=" M 71.70 26.46 C 73.72 25.46 75.73 24.44 77.67 23.30 L 77.89 25.22 C 75.84 26.54 73.69 27.74 71.95 29.47 C 71.33 28.76 70.72 28.04 70.09 27.33 C 70.49 27.11 71.30 26.68 71.70 26.46 Z" />
<path fill="#c2a97f" opacity="1.00" d=" M 97.76 27.96 C 102.15 26.43 106.89 25.75 111.00 23.53 L 111.00 31.06 C 109.87 30.96 108.75 30.87 107.62 30.77 C 107.56 30.43 107.43 29.74 107.37 29.40 C 106.00 29.06 104.64 28.71 103.27 28.43 C 101.46 28.02 99.61 27.84 97.76 27.96 Z" />
<path fill="#ffffef" opacity="1.00" d=" M 0.00 24.84 C 3.68 29.87 8.92 33.33 13.66 37.25 C 13.38 39.88 13.45 42.54 13.34 45.18 C 10.60 42.86 13.36 37.92 10.06 36.06 C 6.19 33.80 2.77 30.85 0.00 27.33 L 0.00 24.84 Z" />
<path fill="#ffffee" opacity="1.00" d=" M 17.29 29.27 C 17.55 27.29 17.97 24.92 19.82 23.80 L 19.68 24.91 C 18.89 27.60 19.73 30.27 20.65 32.79 C 19.78 31.80 18.91 30.82 17.96 29.91 C 19.37 32.89 23.22 35.67 21.12 39.29 C 19.05 36.41 13.88 33.09 17.29 29.27 Z" />
<path fill="#f8f6e6" opacity="1.00" d=" M 62.05 28.20 C 63.04 26.81 63.80 23.88 66.00 24.50 C 66.40 26.02 66.70 27.56 66.90 29.13 C 65.29 30.68 64.06 32.56 62.81 34.39 C 61.84 32.47 60.48 30.23 62.05 28.20 Z" />
<path fill="#d0997b" opacity="1.00" d=" M 19.68 24.91 C 22.93 27.19 26.65 32.58 23.06 36.21 C 22.17 35.15 21.05 34.17 20.65 32.79 C 19.73 30.27 18.89 27.60 19.68 24.91 Z" />
<path fill="#bfa392" opacity="1.00" d=" M 26.47 25.70 C 28.96 27.53 27.72 30.40 25.87 32.20 C 25.52 31.35 24.82 29.66 24.47 28.81 C 25.13 27.77 25.80 26.74 26.47 25.70 Z" />
<path fill="#fcfbe6" opacity="1.00" d=" M 30.34 26.20 C 32.31 27.59 34.28 28.98 36.15 30.49 C 36.60 30.03 37.50 29.10 37.95 28.64 C 37.18 31.43 36.47 34.25 35.71 37.04 C 35.18 37.25 34.14 37.66 33.61 37.86 C 34.24 38.11 34.86 38.37 35.48 38.62 C 35.52 40.58 35.80 42.52 36.41 44.38 C 38.42 45.02 40.42 45.72 42.41 46.44 C 42.57 47.37 42.73 48.30 42.90 49.24 C 42.82 50.33 42.68 52.51 42.61 53.60 C 37.78 51.34 33.37 46.26 33.64 40.67 C 33.03 40.64 31.83 40.58 31.22 40.55 C 31.49 36.91 34.07 34.16 35.50 30.96 C 35.16 31.02 34.48 31.14 34.14 31.21 C 32.73 29.98 31.36 28.72 29.97 27.47 C 30.06 27.15 30.24 26.52 30.34 26.20 Z" />
<path fill="#945c47" opacity="1.00" d=" M 29.97 27.47 C 31.36 28.72 32.73 29.98 34.14 31.21 C 34.04 31.77 33.82 32.91 33.72 33.47 L 33.18 33.83 C 31.41 33.13 29.65 32.40 27.89 31.68 C 28.70 30.34 29.37 28.91 29.97 27.47 Z" />
<path fill="#e8c396" opacity="1.00" d=" M 43.18 28.94 C 45.27 28.46 47.35 27.97 49.43 27.48 C 49.48 28.33 49.52 29.18 49.56 30.02 C 50.17 29.45 50.78 28.90 51.41 28.35 C 52.37 28.74 53.22 29.36 54.03 29.99 C 52.67 32.00 50.07 32.61 48.66 34.56 C 47.47 36.12 46.74 37.95 45.98 39.73 C 47.39 40.38 48.79 41.03 50.20 41.67 C 48.21 42.44 46.24 43.37 44.73 44.92 C 44.48 44.81 43.99 44.59 43.75 44.48 C 41.80 43.40 39.82 42.22 38.59 40.28 C 39.47 40.36 41.23 40.51 42.11 40.59 C 41.45 38.04 40.52 35.56 39.07 33.35 C 41.04 33.04 43.04 33.01 44.98 33.54 C 44.34 32.96 43.70 32.38 43.07 31.80 C 43.10 31.09 43.15 29.66 43.18 28.94 Z" />
<path fill="#ffffef" opacity="1.00" d=" M 91.55 29.30 C 93.62 28.88 95.70 28.47 97.76 27.96 C 99.61 27.84 101.46 28.02 103.27 28.43 C 98.46 29.38 93.67 30.43 88.93 31.69 C 84.10 33.22 79.23 34.62 74.50 36.44 L 73.66 36.75 L 73.46 35.22 C 79.31 32.76 85.39 30.83 91.55 29.30 Z" />
<path fill="#ebe2c7" opacity="1.00" d=" M 12.05 29.42 C 12.84 29.42 14.43 29.42 15.23 29.43 L 15.07 30.11 C 13.94 30.52 12.93 30.29 12.05 29.42 Z" />
<path fill="#b5946e" opacity="1.00" d=" M 88.93 31.69 C 93.67 30.43 98.46 29.38 103.27 28.43 C 104.64 28.71 106.00 29.06 107.37 29.40 C 107.43 29.74 107.56 30.43 107.62 30.77 C 108.75 30.87 109.87 30.96 111.00 31.06 L 111.00 32.08 C 104.77 32.74 98.55 33.43 92.34 34.23 C 91.81 32.67 90.39 32.10 88.93 31.69 Z" />
<path fill="#8a503d" opacity="1.00" d=" M 54.03 29.99 C 54.86 30.65 55.67 31.35 56.44 32.09 C 56.46 32.61 56.51 33.66 56.54 34.19 C 55.88 33.91 54.56 33.34 53.91 33.06 C 53.86 33.60 53.76 34.70 53.71 35.24 L 52.88 35.09 C 52.79 34.51 52.60 33.36 52.51 32.79 C 50.08 34.41 48.04 36.62 47.32 39.54 C 47.98 39.20 49.30 38.53 49.96 38.19 C 50.68 39.09 51.40 39.99 52.13 40.89 C 51.65 41.09 50.68 41.48 50.20 41.67 C 48.79 41.03 47.39 40.38 45.98 39.73 C 46.74 37.95 47.47 36.12 48.66 34.56 C 50.07 32.61 52.67 32.00 54.03 29.99 Z" />
<path fill="#e8c296" opacity="1.00" d=" M 65.09 38.00 C 61.06 35.14 65.87 30.63 68.53 28.75 C 68.55 29.88 68.59 32.14 68.61 33.27 C 67.05 34.53 66.06 36.28 65.09 38.00 Z" />
<path fill="#030107" opacity="1.00" d=" M 34.14 31.21 C 34.48 31.14 35.16 31.02 35.50 30.96 C 34.07 34.16 31.49 36.91 31.22 40.55 C 31.31 41.97 31.52 43.36 31.88 44.73 C 31.72 45.37 31.58 46.02 31.45 46.67 C 30.03 47.92 28.66 49.22 27.31 50.55 C 27.66 48.54 29.37 47.32 30.76 46.02 C 30.59 43.83 30.38 41.65 30.29 39.46 C 30.30 39.04 30.32 38.20 30.34 37.78 C 30.56 36.97 30.81 36.17 31.09 35.38 L 31.71 34.86 C 32.07 34.60 32.81 34.08 33.18 33.83 L 33.72 33.47 C 33.82 32.91 34.04 31.77 34.14 31.21 Z" />
<path fill="#7f398e" opacity="1.00" d=" M 70.75 33.42 C 68.60 30.51 73.91 31.40 71.41 33.59 L 70.75 33.42 Z" />
<path fill="#ffffe4" opacity="1.00" d=" M 26.91 33.06 C 27.16 32.72 27.65 32.03 27.89 31.68 C 29.65 32.40 31.41 33.13 33.18 33.83 C 32.81 34.08 32.07 34.60 31.71 34.86 C 30.09 34.29 28.51 33.67 26.91 33.06 Z" />
<path fill="#20111a" opacity="1.00" d=" M 56.44 32.09 C 56.90 33.32 57.13 34.62 57.39 35.91 C 56.17 35.65 54.93 35.46 53.71 35.24 C 53.76 34.70 53.86 33.60 53.91 33.06 C 54.56 33.34 55.88 33.91 56.54 34.19 C 56.51 33.66 56.46 32.61 56.44 32.09 Z" />
<path fill="#8a503d" opacity="1.00" d=" M 74.50 36.44 C 79.23 34.62 84.10 33.22 88.93 31.69 C 90.39 32.10 91.81 32.67 92.34 34.23 C 86.19 35.05 80.13 36.46 74.16 38.10 C 74.24 37.68 74.41 36.85 74.50 36.44 Z" />
<path fill="#ffffef" opacity="1.00" d=" M 92.34 34.23 C 98.55 33.43 104.77 32.74 111.00 32.08 L 111.00 34.08 C 99.12 34.94 87.23 36.50 75.69 39.52 C 75.25 39.61 74.36 39.78 73.92 39.86 C 73.98 39.42 74.10 38.54 74.16 38.10 C 80.13 36.46 86.19 35.05 92.34 34.23 Z" />
<path fill="#d4bb8a" opacity="1.00" d=" M 37.10 32.28 C 39.52 33.39 39.86 36.16 39.67 38.51 C 38.84 38.19 37.18 37.56 36.35 37.25 C 36.59 35.59 36.84 33.93 37.10 32.28 Z" />
<path fill="#f6e4b9" opacity="1.00" d=" M 47.32 39.54 C 48.04 36.62 50.08 34.41 52.51 32.79 C 52.60 33.36 52.79 34.51 52.88 35.09 C 52.06 36.25 51.07 37.30 49.96 38.19 C 49.30 38.53 47.98 39.20 47.32 39.54 Z" />
<path fill="#a9815d" opacity="1.00" d=" M 23.85 37.43 C 24.86 35.97 25.86 34.50 26.91 33.06 C 28.51 33.67 30.09 34.29 31.71 34.86 L 31.09 35.38 C 30.81 36.17 30.56 36.97 30.34 37.78 C 28.17 37.66 26.01 37.51 23.85 37.43 Z" />
<path fill="#ffffef" opacity="1.00" d=" M 68.20 33.86 C 68.58 34.09 69.32 34.55 69.69 34.77 L 69.42 33.12 L 70.75 33.42 L 71.41 33.59 C 71.71 34.60 72.33 36.63 72.63 37.65 C 71.98 37.19 70.68 36.27 70.04 35.81 C 69.24 37.70 68.22 39.49 67.14 41.22 C 66.70 40.45 65.83 38.89 65.39 38.11 C 66.45 36.78 67.39 35.36 68.20 33.86 Z" />
<path fill="#996c4c" opacity="1.00" d=" M 75.69 39.52 C 87.23 36.50 99.12 34.94 111.00 34.08 L 111.00 35.85 C 110.55 35.91 109.65 36.02 109.21 36.07 C 104.05 36.45 98.98 37.48 93.83 37.98 C 90.64 38.73 86.34 37.91 84.28 41.06 C 81.29 41.74 78.44 40.53 75.69 39.52 Z" />
<path fill="#ffffe4" opacity="1.00" d=" M 15.59 44.34 C 14.07 41.02 15.65 37.37 15.62 33.88 C 16.01 34.44 16.79 35.54 17.18 36.09 C 16.95 36.74 16.48 38.04 16.25 38.69 C 16.61 40.17 17.36 41.50 17.90 42.91 C 16.77 44.19 15.75 45.55 14.73 46.92 L 14.28 44.63 L 15.59 44.34 Z" />
<path fill="#642b4a" opacity="1.00" d=" M 52.88 35.09 L 53.71 35.24 C 54.93 35.46 56.17 35.65 57.39 35.91 L 57.55 36.70 C 57.83 36.64 58.40 36.53 58.68 36.47 C 59.57 36.41 61.35 36.29 62.24 36.23 C 62.46 36.61 62.89 37.37 63.10 37.76 C 61.66 38.05 60.21 38.31 58.78 38.64 C 55.37 40.68 52.00 42.81 48.24 44.19 C 45.86 44.98 45.04 47.56 43.63 49.38 C 43.87 47.86 44.21 46.36 44.73 44.92 C 46.24 43.37 48.21 42.44 50.20 41.67 C 50.68 41.48 51.65 41.09 52.13 40.89 C 51.40 39.99 50.68 39.09 49.96 38.19 C 51.07 37.30 52.06 36.25 52.88 35.09 Z" />
<path fill="#c2a77c" opacity="1.00" d=" M 93.83 37.98 C 98.98 37.48 104.05 36.45 109.21 36.07 C 108.43 36.45 107.66 36.84 106.89 37.25 C 105.58 40.74 104.63 44.49 102.39 47.54 C 102.49 48.60 102.60 49.66 102.71 50.72 C 101.71 51.45 100.72 52.17 99.72 52.90 C 97.41 52.02 95.15 50.99 92.84 50.10 C 93.27 49.76 94.13 49.08 94.56 48.74 C 94.46 46.97 94.35 45.19 94.24 43.42 C 97.21 43.24 100.17 42.97 103.11 42.51 C 100.11 41.76 97.05 41.32 94.02 40.71 C 92.15 40.78 93.65 38.81 93.83 37.98 Z" />
<path fill="#d3bd88" opacity="1.00" d=" M 109.21 36.07 C 109.65 36.02 110.55 35.91 111.00 35.85 L 111.00 50.95 C 108.23 52.75 105.07 54.33 101.66 53.58 C 101.17 53.41 100.20 53.07 99.72 52.90 C 100.72 52.17 101.71 51.45 102.71 50.72 C 102.60 49.66 102.49 48.60 102.39 47.54 C 104.63 44.49 105.58 40.74 106.89 37.25 C 107.66 36.84 108.43 36.45 109.21 36.07 Z" />
<path fill="#eedc81" opacity="1.00" d=" M 17.18 36.09 C 19.40 37.17 20.86 39.95 18.96 42.09 C 18.01 41.00 16.97 39.96 16.25 38.69 C 16.48 38.04 16.95 36.74 17.18 36.09 Z" />
<path fill="#fafae4" opacity="1.00" d=" M 23.85 37.43 C 26.01 37.51 28.17 37.66 30.34 37.78 C 30.32 38.20 30.30 39.04 30.29 39.46 C 28.57 39.06 26.84 38.65 25.14 38.18 C 24.77 38.04 24.03 37.76 23.66 37.62 L 23.85 37.43 Z" />
<path fill="#b5936b" opacity="1.00" d=" M 17.25 46.04 C 19.04 42.99 21.20 40.17 23.66 37.62 C 24.03 37.76 24.77 38.04 25.14 38.18 C 24.96 38.57 24.61 39.35 24.43 39.74 C 25.57 40.28 26.70 40.82 27.84 41.36 C 24.84 42.70 22.63 45.08 21.60 48.22 C 20.14 47.50 18.70 46.77 17.25 46.04 Z" />
<path fill="#fdfcea" opacity="1.00" d=" M 58.78 38.64 C 60.21 38.31 61.66 38.05 63.10 37.76 C 63.48 38.28 64.23 39.32 64.60 39.84 C 64.33 42.38 63.65 44.97 62.11 47.05 C 58.84 50.00 55.17 52.46 51.46 54.81 C 50.64 54.50 49.83 54.19 49.01 53.89 C 48.69 54.13 48.03 54.63 47.70 54.87 C 46.93 54.94 45.40 55.08 44.63 55.15 C 44.78 53.01 44.58 50.70 45.65 48.75 C 49.40 46.49 53.65 45.34 57.65 43.67 C 59.81 42.62 59.75 40.53 58.78 38.64 Z" />
<path fill="#eedc81" opacity="1.00" d=" M 67.34 41.75 C 68.42 39.98 69.48 38.15 71.18 36.88 C 73.92 39.78 71.95 43.96 71.97 47.45 C 70.24 45.71 68.76 43.75 67.34 41.75 Z" />
<path fill="#ab8562" opacity="1.00" d=" M 84.28 41.06 C 86.34 37.91 90.64 38.73 93.83 37.98 C 93.65 38.81 92.15 40.78 94.02 40.71 C 97.05 41.32 100.11 41.76 103.11 42.51 C 100.17 42.97 97.21 43.24 94.24 43.42 C 94.35 45.19 94.46 46.97 94.56 48.74 C 94.13 49.08 93.27 49.76 92.84 50.10 C 91.98 49.77 91.12 49.44 90.25 49.12 C 90.26 46.39 90.18 43.54 91.64 41.11 C 89.74 41.05 87.84 40.96 85.95 40.95 L 84.28 41.06 Z" />
<path fill="#9f7354" opacity="1.00" d=" M 24.43 39.74 C 24.61 39.35 24.96 38.57 25.14 38.18 C 26.84 38.65 28.57 39.06 30.29 39.46 C 30.38 41.65 30.59 43.83 30.76 46.02 C 29.37 47.32 27.66 48.54 27.31 50.55 C 27.03 51.09 26.47 52.17 26.19 52.71 C 26.08 52.10 25.86 50.87 25.76 50.26 C 24.37 49.58 22.98 48.90 21.60 48.22 C 22.63 45.08 24.84 42.70 27.84 41.36 C 26.70 40.82 25.57 40.28 24.43 39.74 Z" />
<path fill="#d5c8a1" opacity="1.00" d=" M 35.48 38.62 C 36.16 38.92 37.52 39.51 38.19 39.80 C 39.01 42.20 40.90 44.81 43.75 44.48 C 43.99 44.59 44.48 44.81 44.73 44.92 C 44.21 46.36 43.87 47.86 43.63 49.38 C 45.04 47.56 45.86 44.98 48.24 44.19 C 52.00 42.81 55.37 40.68 58.78 38.64 C 59.75 40.53 59.81 42.62 57.65 43.67 C 53.65 45.34 49.40 46.49 45.65 48.75 C 44.58 50.70 44.78 53.01 44.63 55.15 C 45.40 55.08 46.93 54.94 47.70 54.87 L 47.37 56.03 C 46.32 55.88 45.28 55.75 44.23 55.64 C 44.23 54.11 44.25 52.58 44.18 51.05 C 43.86 50.60 43.22 49.69 42.90 49.24 C 42.73 48.30 42.57 47.37 42.41 46.44 C 40.42 45.72 38.42 45.02 36.41 44.38 C 35.80 42.52 35.52 40.58 35.48 38.62 Z" />
<path fill="#bf9b82" opacity="1.00" d=" M 64.60 39.84 C 65.77 41.43 66.88 43.06 67.98 44.70 C 67.09 45.86 66.21 47.03 65.34 48.20 C 66.50 47.49 67.64 46.72 68.86 46.10 C 69.31 46.58 70.22 47.55 70.67 48.04 C 70.06 48.30 68.84 48.82 68.23 49.08 C 66.86 49.66 65.51 50.30 64.23 51.06 L 64.33 49.75 C 60.02 54.10 53.76 55.17 48.43 57.78 C 48.16 57.35 47.63 56.47 47.37 56.03 L 47.70 54.87 C 48.03 54.63 48.69 54.13 49.01 53.89 C 49.83 54.19 50.64 54.50 51.46 54.81 C 55.17 52.46 58.84 50.00 62.11 47.05 C 63.65 44.97 64.33 42.38 64.60 39.84 Z" />
<path fill="#8a503d" opacity="1.00" d=" M 73.92 39.86 C 74.36 39.78 75.25 39.61 75.69 39.52 C 78.44 40.53 81.29 41.74 84.28 41.06 L 85.95 40.95 C 84.33 42.34 83.25 44.17 82.74 46.24 C 79.86 45.31 76.93 44.55 74.02 43.75 C 73.97 42.45 73.94 41.16 73.92 39.86 Z" />
<path fill="#c8b081" opacity="1.00" d=" M 31.22 40.55 C 31.83 40.58 33.03 40.64 33.64 40.67 C 33.37 46.26 37.78 51.34 42.61 53.60 C 42.53 54.70 42.45 55.80 42.37 56.90 C 37.31 55.50 35.82 50.17 33.00 46.39 C 32.72 45.97 32.16 45.14 31.88 44.73 C 31.52 43.36 31.31 41.97 31.22 40.55 Z" />
<path fill="#996a4e" opacity="1.00" d=" M 85.95 40.95 C 87.84 40.96 89.74 41.05 91.64 41.11 C 90.18 43.54 90.26 46.39 90.25 49.12 C 87.75 48.17 85.28 47.11 82.74 46.24 C 83.25 44.17 84.33 42.34 85.95 40.95 Z" />
<path fill="#986749" opacity="1.00" d=" M 31.88 44.73 C 32.16 45.14 32.72 45.97 33.00 46.39 C 32.48 51.78 32.50 58.16 37.35 61.69 C 38.97 64.53 40.32 67.54 41.08 70.73 C 37.23 68.17 35.44 63.74 33.09 59.94 C 31.24 56.34 28.43 51.76 31.46 47.99 L 31.45 46.67 C 31.58 46.02 31.72 45.37 31.88 44.73 Z" />
<path fill="#efe9ce" opacity="1.00" d=" M 73.44 46.21 C 73.28 43.21 76.64 45.64 77.98 46.22 C 76.60 47.14 74.86 46.82 73.44 46.21 Z" />
<path fill="#fffff9" opacity="1.00" d=" M 16.30 47.67 C 16.62 47.12 16.93 46.58 17.25 46.04 C 18.70 46.77 20.14 47.50 21.60 48.22 C 22.98 48.90 24.37 49.58 25.76 50.26 C 25.86 50.87 26.08 52.10 26.19 52.71 C 26.47 52.17 27.03 51.09 27.31 50.55 C 28.66 49.22 30.03 47.92 31.45 46.67 L 31.46 47.99 C 28.43 51.76 31.24 56.34 33.09 59.94 C 35.44 63.74 37.23 68.17 41.08 70.73 C 40.32 67.54 38.97 64.53 37.35 61.69 C 40.65 62.50 42.92 66.34 42.33 69.62 C 41.24 70.76 40.13 71.89 38.95 72.94 C 34.96 66.07 29.94 59.58 28.21 51.65 C 26.69 53.53 25.16 55.40 23.71 57.33 C 22.27 59.65 19.05 62.86 21.44 65.54 C 24.51 69.88 30.51 71.42 32.49 76.62 L 30.91 75.90 C 30.57 75.54 30.23 75.17 29.89 74.80 C 28.03 71.95 24.58 71.01 22.21 68.71 C 20.47 67.20 19.44 65.11 18.40 63.10 C 20.34 59.49 22.75 56.15 25.54 53.16 C 25.04 52.49 24.54 51.82 24.04 51.16 C 21.37 50.20 18.80 49.00 16.30 47.67 Z" />
<path fill="#9f7453" opacity="1.00" d=" M 73.44 46.21 C 74.86 46.82 76.60 47.14 77.98 46.22 C 78.28 46.35 78.88 46.62 79.17 46.75 C 81.84 48.18 85.39 49.34 86.38 52.52 C 86.41 55.70 84.63 58.56 83.35 61.38 C 81.91 60.86 80.47 60.35 79.05 59.78 C 78.94 59.31 78.73 58.36 78.62 57.88 C 79.05 55.75 78.33 53.78 76.62 52.45 C 78.85 52.55 81.07 52.65 83.30 52.70 C 80.93 49.35 76.65 48.73 72.96 47.79 C 73.08 47.39 73.32 46.60 73.44 46.21 Z" />
<path fill="#694940" opacity="1.00" d=" M 33.00 46.39 C 35.82 50.17 37.31 55.50 42.37 56.90 C 42.45 55.80 42.53 54.70 42.61 53.60 C 42.68 52.51 42.82 50.33 42.90 49.24 C 43.22 49.69 43.86 50.60 44.18 51.05 C 44.25 52.58 44.23 54.11 44.23 55.64 C 45.28 55.75 46.32 55.88 47.37 56.03 C 47.63 56.47 48.16 57.35 48.43 57.78 C 53.76 55.17 60.02 54.10 64.33 49.75 L 64.23 51.06 C 62.81 52.71 61.31 54.46 59.13 55.08 C 55.69 56.23 52.62 58.34 49.04 59.10 C 47.28 59.27 46.27 60.81 45.08 61.89 C 44.69 61.71 44.29 61.54 43.88 61.40 C 43.19 57.53 39.16 57.01 36.46 55.07 C 36.21 54.15 35.78 51.62 34.32 52.38 C 33.49 54.04 34.79 55.77 35.89 56.95 C 37.55 58.98 39.39 60.91 41.57 62.41 C 43.62 63.66 45.77 64.75 47.74 66.13 L 45.74 66.29 C 45.31 66.25 44.45 66.16 44.02 66.12 C 43.95 68.05 43.90 69.98 43.86 71.91 C 43.33 71.16 42.82 70.40 42.33 69.62 C 42.92 66.34 40.65 62.50 37.35 61.69 C 32.50 58.16 32.48 51.78 33.00 46.39 Z" />
<path fill="#fffff9" opacity="1.00" d=" M 79.17 46.75 C 81.80 47.55 84.44 48.33 87.07 49.12 C 88.20 51.80 88.54 54.72 87.30 57.45 C 85.13 62.06 82.70 66.55 79.73 70.69 C 77.38 73.79 82.37 75.13 84.20 76.80 C 87.96 78.62 91.60 75.55 94.84 73.94 C 100.51 70.74 107.12 66.43 107.73 59.33 C 105.67 57.75 103.22 56.83 101.00 55.52 C 100.85 55.22 100.57 54.61 100.43 54.31 C 102.43 55.23 104.45 56.12 106.47 56.99 C 107.56 57.66 108.69 58.28 109.69 59.07 C 109.53 64.28 106.69 69.44 102.24 72.22 C 98.50 74.65 94.45 76.56 90.50 78.62 C 88.45 79.96 86.03 78.78 84.14 77.74 C 78.83 74.57 74.77 69.76 71.27 64.75 L 72.29 65.88 C 74.07 62.72 76.26 59.61 76.94 56.00 C 75.94 53.47 72.93 52.39 71.03 50.58 L 71.33 49.98 C 71.70 49.96 72.43 49.94 72.80 49.92 C 74.09 50.75 75.38 51.57 76.62 52.45 C 78.33 53.78 79.05 55.75 78.62 57.88 C 77.30 61.30 75.00 64.37 74.19 67.95 C 75.09 69.12 76.04 70.23 77.05 71.31 C 79.30 68.10 81.51 64.84 83.35 61.38 C 84.63 58.56 86.41 55.70 86.38 52.52 C 85.39 49.34 81.84 48.18 79.17 46.75 Z" />
<path fill="#b48ca0" opacity="1.00" d=" M 70.67 48.04 C 71.20 48.57 71.76 49.07 72.35 49.55 L 72.80 49.92 C 72.43 49.94 71.70 49.96 71.33 49.98 L 70.43 50.34 C 68.88 51.65 68.24 55.23 65.76 54.44 C 66.61 52.67 67.45 50.88 68.23 49.08 C 68.84 48.82 70.06 48.30 70.67 48.04 Z" />
<path fill="#8a503d" opacity="1.00" d=" M 72.96 47.79 C 76.65 48.73 80.93 49.35 83.30 52.70 C 81.07 52.65 78.85 52.55 76.62 52.45 C 75.38 51.57 74.09 50.75 72.80 49.92 L 72.35 49.55 L 72.96 47.79 Z" />
<path fill="#fafae4" opacity="1.00" d=" M 64.23 51.06 C 65.51 50.30 66.86 49.66 68.23 49.08 C 67.45 50.88 66.61 52.67 65.76 54.44 C 65.73 54.50 65.67 54.62 65.64 54.69 C 61.60 56.99 57.34 58.89 53.40 61.35 C 50.96 62.91 47.65 63.49 45.08 61.89 C 46.27 60.81 47.28 59.27 49.04 59.10 C 52.62 58.34 55.69 56.23 59.13 55.08 C 61.31 54.46 62.81 52.71 64.23 51.06 Z" />
<path fill="#a37858" opacity="1.00" d=" M 87.07 49.12 C 89.65 49.90 92.18 50.87 94.66 51.92 C 93.00 54.63 90.35 56.58 87.30 57.45 C 88.54 54.72 88.20 51.80 87.07 49.12 Z" />
<path fill="#20111a" opacity="1.00" d=" M 70.43 50.34 L 71.33 49.98 L 71.03 50.58 C 70.07 52.26 69.01 53.87 67.94 55.47 C 66.93 55.93 65.93 56.40 64.94 56.90 C 65.11 56.35 65.46 55.24 65.64 54.69 C 65.67 54.62 65.73 54.50 65.76 54.44 C 68.24 55.23 68.88 51.65 70.43 50.34 Z" />
<path fill="#996a4d" opacity="1.00" d=" M 71.03 50.58 C 72.93 52.39 75.94 53.47 76.94 56.00 C 76.26 59.61 74.07 62.72 72.29 65.88 L 71.27 64.75 L 70.75 63.98 C 70.61 60.92 69.45 58.09 67.94 55.47 C 69.01 53.87 70.07 52.26 71.03 50.58 M 71.43 55.40 C 70.37 57.18 71.43 59.81 73.79 58.74 C 76.65 57.46 73.54 52.47 71.43 55.40 Z" />
<path fill="#fffff9" opacity="1.00" d=" M 101.66 53.58 C 105.07 54.33 108.23 52.75 111.00 50.95 L 111.00 52.45 C 109.26 53.57 107.43 54.55 105.60 55.52 C 104.36 54.72 103.03 54.09 101.66 53.58 Z" />
<path fill="#b8956a" opacity="1.00" d=" M 28.21 51.65 C 29.94 59.58 34.96 66.07 38.95 72.94 C 38.31 73.41 37.02 74.37 36.38 74.85 C 33.64 73.31 31.97 70.75 31.23 67.75 C 30.29 67.33 29.36 66.92 28.42 66.51 C 27.57 64.01 26.77 61.48 26.02 58.95 C 25.44 58.54 24.29 57.73 23.71 57.33 C 25.16 55.40 26.69 53.53 28.21 51.65 Z" />
<path fill="#b79a76" opacity="1.00" d=" M 34.32 52.38 C 35.78 51.62 36.21 54.15 36.46 55.07 C 36.32 55.54 36.03 56.48 35.89 56.95 C 34.79 55.77 33.49 54.04 34.32 52.38 Z" />
<path fill="#c1a577" opacity="1.00" d=" M 94.66 51.92 C 95.82 52.38 96.98 52.83 98.13 53.29 C 95.74 57.89 92.52 62.07 88.46 65.31 C 88.82 66.03 89.18 66.75 89.55 67.47 C 88.27 68.18 86.84 68.69 85.78 69.72 C 85.09 71.47 84.80 73.34 84.44 75.18 C 82.88 73.67 81.27 72.21 79.73 70.69 C 82.70 66.55 85.13 62.06 87.30 57.45 C 90.35 56.58 93.00 54.63 94.66 51.92 Z" />
<path fill="#000000" opacity="1.00" d=" M 105.60 55.52 C 107.43 54.55 109.26 53.57 111.00 52.45 L 111.00 64.70 C 108.18 71.79 101.76 76.92 94.87 79.80 C 92.66 80.72 91.22 82.86 89.05 83.79 C 82.69 81.11 77.60 76.09 73.03 71.03 C 72.86 73.25 72.54 75.49 71.53 77.51 C 69.67 81.32 71.17 86.55 67.60 89.51 C 65.88 91.17 64.83 93.35 63.64 95.38 C 63.31 97.05 62.76 98.75 60.97 99.34 C 61.22 97.55 61.48 95.77 61.76 93.99 C 63.09 93.20 63.34 92.11 62.52 90.73 C 63.87 89.14 65.45 87.77 67.02 86.40 C 69.54 84.36 68.81 80.99 68.57 78.20 C 68.38 76.15 68.21 74.11 68.00 72.07 C 67.19 71.60 66.37 71.14 65.56 70.68 C 65.22 70.96 64.54 71.52 64.20 71.80 C 65.17 70.76 66.14 69.73 67.12 68.70 C 67.42 68.56 68.02 68.26 68.33 68.11 L 67.62 68.57 C 68.14 69.37 68.68 70.16 69.21 70.95 C 68.80 73.20 68.63 75.49 68.76 77.79 C 71.57 74.47 71.12 69.51 69.06 65.93 C 69.62 65.28 70.18 64.63 70.75 63.98 L 71.27 64.75 C 74.77 69.76 78.83 74.57 84.14 77.74 C 86.03 78.78 88.45 79.96 90.50 78.62 C 94.45 76.56 98.50 74.65 102.24 72.22 C 106.69 69.44 109.53 64.28 109.69 59.07 C 108.69 58.28 107.56 57.66 106.47 56.99 C 106.26 56.62 105.82 55.88 105.60 55.52 Z" />
<path fill="#dcc78e" opacity="1.00" d=" M 88.46 65.31 C 92.52 62.07 95.74 57.89 98.13 53.29 C 98.90 53.62 99.67 53.96 100.43 54.31 C 100.57 54.61 100.85 55.22 101.00 55.52 C 103.22 56.83 105.67 57.75 107.73 59.33 C 107.12 66.43 100.51 70.74 94.84 73.94 C 91.60 75.55 87.96 78.62 84.20 76.80 C 84.26 76.40 84.38 75.58 84.44 75.18 C 84.80 73.34 85.09 71.47 85.78 69.72 C 86.84 68.69 88.27 68.18 89.55 67.47 C 89.18 66.75 88.82 66.03 88.46 65.31 M 97.12 63.20 C 95.22 63.64 95.97 66.83 97.91 66.22 C 99.78 65.78 98.91 62.71 97.12 63.20 Z" />
<path fill="#ffffe4" opacity="1.00" d=" M 36.46 55.07 C 39.16 57.01 43.19 57.53 43.88 61.40 C 43.30 61.65 42.14 62.15 41.57 62.41 C 39.39 60.91 37.55 58.98 35.89 56.95 C 36.03 56.48 36.32 55.54 36.46 55.07 Z" />
<path fill="#bfa17d" opacity="1.00" d=" M 53.40 61.35 C 57.34 58.89 61.60 56.99 65.64 54.69 C 65.46 55.24 65.11 56.35 64.94 56.90 C 61.83 59.63 57.97 61.33 54.73 63.91 C 53.93 63.65 53.14 63.38 52.34 63.11 C 50.77 64.24 49.21 65.37 47.66 66.53 C 48.52 66.77 50.24 67.26 51.09 67.50 C 50.52 69.68 49.62 71.85 49.85 74.16 C 46.90 73.19 47.96 70.36 48.57 68.19 C 47.63 67.55 46.70 66.90 45.74 66.29 L 47.74 66.13 C 45.77 64.75 43.62 63.66 41.57 62.41 C 42.14 62.15 43.30 61.65 43.88 61.40 C 44.29 61.54 44.69 61.71 45.08 61.89 C 47.65 63.49 50.96 62.91 53.40 61.35 Z" />
<path fill="#fffff9" opacity="1.00" d=" M 71.43 55.40 C 73.54 52.47 76.65 57.46 73.79 58.74 C 71.43 59.81 70.37 57.18 71.43 55.40 Z" />
<path fill="#552375" opacity="1.00" d=" M 64.94 56.90 C 65.93 56.40 66.93 55.93 67.94 55.47 C 69.45 58.09 70.61 60.92 70.75 63.98 C 70.18 64.63 69.62 65.28 69.06 65.93 C 71.12 69.51 71.57 74.47 68.76 77.79 C 68.63 75.49 68.80 73.20 69.21 70.95 C 68.68 70.16 68.14 69.37 67.62 68.57 L 68.33 68.11 C 68.02 68.26 67.42 68.56 67.12 68.70 C 67.31 68.05 67.69 66.76 67.87 66.11 C 69.05 63.50 68.87 60.70 67.74 58.12 C 66.71 58.50 65.68 58.88 64.65 59.26 C 64.72 58.67 64.87 57.49 64.94 56.90 Z" />
<path fill="#411c24" opacity="1.00" d=" M 54.73 63.91 C 57.97 61.33 61.83 59.63 64.94 56.90 C 64.87 57.49 64.72 58.67 64.65 59.26 C 65.68 58.88 66.71 58.50 67.74 58.12 C 68.87 60.70 69.05 63.50 67.87 66.11 C 67.14 64.18 67.10 61.47 65.10 60.41 C 63.95 61.06 62.95 61.94 61.94 62.80 C 59.16 65.51 55.39 66.72 51.75 67.80 C 52.81 69.02 53.84 70.31 54.22 71.92 C 52.39 69.58 50.73 72.64 49.85 74.16 C 49.62 71.85 50.52 69.68 51.09 67.50 C 50.24 67.26 48.52 66.77 47.66 66.53 C 49.21 65.37 50.77 64.24 52.34 63.11 C 53.14 63.38 53.93 63.65 54.73 63.91 Z" />
<path fill="#d8c286" opacity="1.00" d=" M 21.44 65.54 C 19.05 62.86 22.27 59.65 23.71 57.33 C 24.29 57.73 25.44 58.54 26.02 58.95 C 26.77 61.48 27.57 64.01 28.42 66.51 C 29.36 66.92 30.29 67.33 31.23 67.75 C 31.97 70.75 33.64 73.31 36.38 74.85 C 35.11 75.51 33.81 76.09 32.49 76.62 C 30.51 71.42 24.51 69.88 21.44 65.54 M 24.22 62.05 C 23.67 63.69 24.19 64.25 25.81 63.74 C 26.38 62.09 25.85 61.53 24.22 62.05 Z" />
<path fill="#a9815d" opacity="1.00" d=" M 74.19 67.95 C 75.00 64.37 77.30 61.30 78.62 57.88 C 78.73 58.36 78.94 59.31 79.05 59.78 C 80.47 60.35 81.91 60.86 83.35 61.38 C 81.51 64.84 79.30 68.10 77.05 71.31 C 76.04 70.23 75.09 69.12 74.19 67.95 Z" />
<path fill="#803a40" opacity="1.00" d=" M 61.94 62.80 C 62.95 61.94 63.95 61.06 65.10 60.41 C 67.10 61.47 67.14 64.18 67.87 66.11 C 67.69 66.76 67.31 68.05 67.12 68.70 C 66.14 69.73 65.17 70.76 64.20 71.80 C 64.54 71.52 65.22 70.96 65.56 70.68 C 66.37 71.14 67.19 71.60 68.00 72.07 C 68.21 74.11 68.38 76.15 68.57 78.20 L 67.01 79.24 C 66.54 79.55 65.61 80.16 65.14 80.47 C 64.93 78.23 64.75 75.97 64.22 73.78 C 61.61 73.70 59.29 75.99 56.77 76.75 C 55.14 77.05 53.51 77.31 51.87 77.54 C 49.44 76.84 47.02 76.04 44.81 74.78 C 44.88 74.40 45.02 73.63 45.09 73.24 C 46.47 74.04 48.09 76.35 49.62 74.62 L 49.85 74.16 C 50.73 72.64 52.39 69.58 54.22 71.92 C 53.58 72.96 52.32 73.69 52.11 74.96 C 56.25 76.28 60.39 73.30 63.84 71.23 C 63.31 68.40 62.65 65.59 61.94 62.80 Z" />
<path fill="#f1e8cb" opacity="1.00" d=" M 24.22 62.05 C 25.85 61.53 26.38 62.09 25.81 63.74 C 24.19 64.25 23.67 63.69 24.22 62.05 Z" />
<path fill="#e4bd91" opacity="1.00" d=" M 51.75 67.80 C 55.39 66.72 59.16 65.51 61.94 62.80 C 62.65 65.59 63.31 68.40 63.84 71.23 C 60.39 73.30 56.25 76.28 52.11 74.96 C 52.32 73.69 53.58 72.96 54.22 71.92 C 53.84 70.31 52.81 69.02 51.75 67.80 Z" />
<path fill="#f5f0d8" opacity="1.00" d=" M 97.12 63.20 C 98.91 62.71 99.78 65.78 97.91 66.22 C 95.97 66.83 95.22 63.64 97.12 63.20 Z" />
<path fill="#faed9f" opacity="1.00" d=" M 44.02 66.12 C 44.45 66.16 45.31 66.25 45.74 66.29 C 46.70 66.90 47.63 67.55 48.57 68.19 C 47.96 70.36 46.90 73.19 49.85 74.16 L 49.62 74.62 C 48.09 76.35 46.47 74.04 45.09 73.24 C 44.78 72.91 44.17 72.24 43.86 71.91 C 43.90 69.98 43.95 68.05 44.02 66.12 Z" />
<path fill="#000000" opacity="1.00" d=" M 42.33 69.62 C 42.82 70.40 43.33 71.16 43.86 71.91 C 44.17 72.24 44.78 72.91 45.09 73.24 C 45.02 73.63 44.88 74.40 44.81 74.78 C 43.51 78.93 48.53 81.33 50.84 83.95 C 55.34 84.93 60.04 83.65 63.90 81.29 C 64.21 81.08 64.83 80.67 65.14 80.47 C 65.61 80.16 66.54 79.55 67.01 79.24 C 66.86 80.48 66.76 81.72 66.70 82.97 C 66.57 82.51 66.32 81.58 66.19 81.12 C 65.60 81.35 64.43 81.81 63.84 82.04 C 60.17 84.43 55.93 85.29 51.59 84.77 C 51.16 84.75 50.30 84.73 49.87 84.71 C 50.50 87.24 52.17 89.26 53.80 91.22 C 53.66 93.04 54.30 94.76 54.79 96.48 C 54.89 97.68 54.95 98.87 54.96 100.08 C 54.11 103.74 53.17 107.38 52.18 111.00 L 50.96 111.00 C 51.89 106.68 53.46 102.48 53.98 98.09 C 53.20 95.86 52.12 93.69 52.22 91.26 C 50.44 89.39 49.34 87.06 48.28 84.74 C 46.38 82.27 44.03 80.09 42.84 77.13 C 43.11 75.74 43.97 74.22 43.01 72.89 C 39.28 74.61 36.45 78.45 32.13 78.67 C 30.43 78.84 29.84 76.98 29.23 75.80 L 30.91 75.90 L 32.49 76.62 C 33.81 76.09 35.11 75.51 36.38 74.85 C 37.02 74.37 38.31 73.41 38.95 72.94 C 40.13 71.89 41.24 70.76 42.33 69.62 Z" />
<path fill="#9f7453" opacity="1.00" d=" M 84.20 76.80 C 82.37 75.13 77.38 73.79 79.73 70.69 C 81.27 72.21 82.88 73.67 84.44 75.18 C 84.38 75.58 84.26 76.40 84.20 76.80 Z" />
<path fill="#b17264" opacity="1.00" d=" M 56.77 76.75 C 59.29 75.99 61.61 73.70 64.22 73.78 C 64.75 75.97 64.93 78.23 65.14 80.47 C 64.83 80.67 64.21 81.08 63.90 81.29 C 63.79 79.95 63.68 78.61 63.58 77.27 C 61.29 77.57 58.97 77.48 56.77 76.75 Z" />
<path fill="#f6e4b9" opacity="1.00" d=" M 44.81 74.78 C 47.02 76.04 49.44 76.84 51.87 77.54 C 52.16 77.67 52.75 77.94 53.04 78.07 C 52.52 78.34 51.46 78.88 50.93 79.14 C 50.90 80.75 50.87 82.35 50.84 83.95 C 48.53 81.33 43.51 78.93 44.81 74.78 Z" />
<path fill="#e4be93" opacity="1.00" d=" M 51.87 77.54 C 53.51 77.31 55.14 77.05 56.77 76.75 C 58.97 77.48 61.29 77.57 63.58 77.27 C 63.68 78.61 63.79 79.95 63.90 81.29 C 60.04 83.65 55.34 84.93 50.84 83.95 C 50.87 82.35 50.90 80.75 50.93 79.14 C 51.46 78.88 52.52 78.34 53.04 78.07 C 52.75 77.94 52.16 77.67 51.87 77.54 M 52.14 81.78 C 53.39 82.83 54.93 82.78 56.39 82.31 C 56.49 81.33 56.56 80.34 56.60 79.36 C 54.33 77.95 54.15 81.48 52.14 81.78 Z" />
<path fill="#411c24" opacity="1.00" d=" M 52.14 81.78 C 54.15 81.48 54.33 77.95 56.60 79.36 C 56.56 80.34 56.49 81.33 56.39 82.31 C 54.93 82.78 53.39 82.83 52.14 81.78 Z" />
<path fill="#4e1d74" opacity="1.00" d=" M 67.01 79.24 L 68.57 78.20 C 68.81 80.99 69.54 84.36 67.02 86.40 C 66.94 85.54 66.78 83.83 66.70 82.97 C 66.76 81.72 66.86 80.48 67.01 79.24 Z" />
<path fill="#813d3f" opacity="1.00" d=" M 63.84 82.04 C 64.43 81.81 65.60 81.35 66.19 81.12 C 66.32 81.58 66.57 82.51 66.70 82.97 C 66.78 83.83 66.94 85.54 67.02 86.40 C 65.45 87.77 63.87 89.14 62.52 90.73 C 61.62 91.64 61.37 92.73 61.76 93.99 C 61.48 95.77 61.22 97.55 60.97 99.34 C 60.79 99.42 60.44 99.58 60.26 99.67 L 59.12 100.18 C 58.33 101.18 57.62 102.24 56.90 103.28 C 56.93 102.71 57.01 101.56 57.05 100.98 C 57.09 100.25 57.17 98.80 57.22 98.07 C 56.65 98.57 55.52 99.58 54.96 100.08 C 54.95 98.87 54.89 97.68 54.79 96.48 L 56.30 96.55 C 56.25 95.22 56.23 93.89 56.23 92.56 C 56.69 92.43 57.60 92.18 58.06 92.05 C 62.77 91.37 63.13 85.74 63.84 82.04 M 58.19 94.15 C 56.45 97.14 61.46 94.38 58.19 94.15 Z" />
<path fill="#d9ac87" opacity="1.00" d=" M 51.59 84.77 C 55.93 85.29 60.17 84.43 63.84 82.04 C 63.13 85.74 62.77 91.37 58.06 92.05 C 57.82 91.76 57.35 91.18 57.11 90.90 C 57.09 89.99 57.05 88.18 57.03 87.28 C 56.45 87.05 55.29 86.60 54.71 86.37 C 53.65 85.87 52.63 85.30 51.59 84.77 Z" />
<path fill="#f6e4b9" opacity="1.00" d=" M 49.87 84.71 C 50.30 84.73 51.16 84.75 51.59 84.77 C 52.63 85.30 53.65 85.87 54.71 86.37 C 54.48 87.53 54.30 88.70 54.17 89.87 C 54.90 90.13 56.37 90.64 57.11 90.90 C 57.35 91.18 57.82 91.76 58.06 92.05 C 57.60 92.18 56.69 92.43 56.23 92.56 C 56.23 93.89 56.25 95.22 56.30 96.55 L 54.79 96.48 C 54.30 94.76 53.66 93.04 53.80 91.22 C 52.17 89.26 50.50 87.24 49.87 84.71 Z" />
<path fill="#694940" opacity="1.00" d=" M 54.71 86.37 C 55.29 86.60 56.45 87.05 57.03 87.28 C 57.05 88.18 57.09 89.99 57.11 90.90 C 56.37 90.64 54.90 90.13 54.17 89.87 C 54.30 88.70 54.48 87.53 54.71 86.37 Z" />
<path fill="#4c1c7a" opacity="1.00" d=" M 61.76 93.99 C 61.37 92.73 61.62 91.64 62.52 90.73 C 63.34 92.11 63.09 93.20 61.76 93.99 Z" />
<path fill="#ce9f7d" opacity="1.00" d=" M 58.19 94.15 C 61.46 94.38 56.45 97.14 58.19 94.15 Z" />
<path fill="#f6e4b9" opacity="1.00" d=" M 54.96 100.08 C 55.52 99.58 56.65 98.57 57.22 98.07 C 57.17 98.80 57.09 100.25 57.05 100.98 C 56.40 104.39 55.07 107.61 54.34 111.00 L 52.18 111.00 C 53.17 107.38 54.11 103.74 54.96 100.08 Z" />
<path fill="#030107" opacity="1.00" d=" M 59.12 100.18 L 60.26 99.67 C 59.55 103.52 58.22 107.21 57.27 111.00 L 54.34 111.00 C 55.07 107.61 56.40 104.39 57.05 100.98 C 57.01 101.56 56.93 102.71 56.90 103.28 C 57.62 102.24 58.33 101.18 59.12 100.18 Z" />
</svg>
