<?xml version="1.0" encoding="UTF-8" ?>
<!DOCTYPE svg PUBLIC "-//W3C//DTD SVG 1.1//EN" "http://www.w3.org/Graphics/SVG/1.1/DTD/svg11.dtd">
<svg width="111pt" height="111pt" viewBox="0 0 111 111" version="1.1" xmlns="http://www.w3.org/2000/svg">
<path fill="#000000" opacity="1.00" d=" M 40.15 29.44 C 42.37 15.47 54.58 4.65 68.16 2.05 C 69.46 6.23 72.18 10.06 71.85 14.62 C 76.68 9.97 83.77 7.38 90.32 9.74 C 95.90 10.31 97.10 16.75 97.89 21.26 C 99.90 21.06 101.93 21.21 103.87 21.81 C 105.10 20.59 106.05 19.15 106.67 17.53 C 110.51 16.52 109.52 12.39 111.00 9.59 L 111.00 15.55 C 107.96 18.05 106.33 21.74 103.68 24.58 C 103.37 24.59 102.74 24.61 102.42 24.62 C 104.04 21.06 98.67 21.09 98.80 24.37 C 100.03 24.62 101.04 25.35 102.00 26.12 C 101.08 29.22 96.95 30.24 96.70 33.57 C 97.82 32.76 98.92 31.92 100.01 31.07 L 100.16 32.26 L 100.27 32.97 C 100.43 35.17 103.29 34.28 104.51 33.56 C 104.49 33.18 104.44 32.42 104.41 32.04 C 104.00 31.66 103.17 30.89 102.75 30.51 C 103.49 26.15 107.16 23.11 111.00 21.39 L 111.00 24.03 C 108.24 25.10 106.93 27.94 105.08 30.04 C 105.98 31.36 107.37 32.80 106.63 34.54 C 105.70 37.91 101.48 37.26 98.79 37.33 C 99.11 40.07 102.41 38.38 104.22 38.72 C 105.05 44.16 104.70 49.68 104.69 55.16 C 106.56 55.61 108.03 54.57 109.41 53.47 C 109.81 53.68 110.60 54.08 111.00 54.29 L 111.00 54.85 C 110.86 55.25 110.57 56.04 110.43 56.43 C 107.82 57.05 105.33 56.03 102.77 55.78 C 104.07 56.44 105.51 56.70 106.93 57.03 C 104.83 59.09 101.84 59.96 99.31 61.41 C 98.95 61.12 98.23 60.53 97.87 60.23 C 99.35 57.00 100.45 53.59 101.07 50.08 C 101.50 46.87 101.33 43.62 101.14 40.39 C 99.00 40.91 95.18 39.57 94.85 42.71 C 94.45 42.08 94.07 41.44 93.69 40.80 L 93.45 40.38 C 93.93 40.08 94.91 39.48 95.39 39.18 C 95.48 38.37 95.64 36.74 95.72 35.93 C 96.50 31.95 96.45 27.85 95.86 23.85 C 95.13 20.28 94.53 16.54 92.69 13.34 C 92.04 12.09 90.38 12.25 89.24 11.79 C 88.75 11.76 87.77 11.72 87.28 11.70 L 86.28 11.68 C 80.83 11.20 76.29 15.14 72.48 18.55 C 70.82 20.55 67.66 22.41 68.58 25.42 C 68.62 25.84 68.69 26.68 68.73 27.10 L 68.75 28.25 C 68.76 28.70 68.76 29.59 68.77 30.04 C 68.80 31.94 68.85 33.83 68.84 35.73 C 68.80 38.16 68.72 40.60 68.79 43.03 C 69.05 45.81 68.95 48.65 69.53 51.39 C 70.31 52.31 71.47 52.77 72.46 53.41 C 72.32 53.84 72.05 54.70 71.91 55.13 C 72.44 55.16 73.50 55.22 74.04 55.25 C 73.53 55.78 72.52 56.86 72.02 57.39 C 76.38 59.29 79.88 55.77 82.58 52.85 C 84.79 51.03 86.94 49.12 88.70 46.84 C 90.16 45.25 91.79 43.83 93.35 42.35 C 93.46 42.58 93.67 43.02 93.78 43.25 C 93.02 44.23 92.19 45.15 91.35 46.06 C 90.05 47.37 88.73 48.67 87.48 50.04 C 86.01 51.63 84.63 53.31 83.05 54.80 C 80.08 57.07 77.29 59.73 73.40 60.23 C 72.25 62.43 71.12 64.64 70.04 66.88 C 71.41 67.49 72.80 68.09 74.16 68.75 C 70.33 68.09 66.19 69.34 62.55 67.76 C 63.09 67.69 64.16 67.55 64.70 67.48 C 68.36 68.17 69.69 64.53 71.03 61.89 C 71.73 60.64 71.76 59.20 71.50 57.83 C 70.87 55.56 70.04 53.28 68.33 51.59 C 66.86 51.03 65.35 51.53 63.87 51.78 C 62.39 52.05 60.88 51.98 59.38 51.96 C 59.60 50.52 59.59 49.09 59.36 47.66 C 57.56 48.15 55.68 48.21 53.87 48.62 C 47.90 51.58 42.19 55.65 38.93 61.62 C 36.72 65.22 36.78 69.87 38.32 73.70 C 40.19 73.62 42.06 73.55 43.92 73.27 C 43.03 74.12 42.39 75.61 40.92 75.48 C 36.63 75.68 32.33 75.81 28.03 75.78 C 22.26 75.94 17.04 73.12 11.62 71.58 C 11.70 72.19 11.88 73.40 11.96 74.00 C 9.76 73.58 7.57 73.16 5.39 72.63 C 3.97 72.26 2.49 72.18 1.03 72.33 C 1.32 70.04 1.36 67.74 1.41 65.44 C 1.06 65.04 0.35 64.22 0.00 63.81 L 0.00 56.57 C 5.54 44.87 19.60 40.95 31.60 41.44 C 31.22 40.18 30.83 38.92 30.45 37.66 C 28.52 36.90 25.86 36.46 25.62 33.91 C 26.17 32.51 27.60 31.57 27.95 30.09 C 26.49 28.33 23.79 26.84 24.38 24.14 C 25.02 21.02 29.45 20.33 31.68 22.15 C 34.48 24.60 36.96 27.45 40.15 29.44 M 42.13 32.27 C 41.59 34.28 42.69 36.05 43.88 37.56 C 45.20 39.70 46.48 41.88 48.15 43.77 C 50.15 43.48 52.18 43.55 54.17 43.88 C 53.89 38.87 53.08 33.82 52.47 28.80 L 52.40 27.60 C 52.27 25.14 52.39 22.66 52.28 20.20 C 52.55 19.15 51.99 17.53 53.28 17.06 C 53.38 17.69 53.58 18.97 53.68 19.60 C 54.47 21.79 55.40 23.94 55.85 26.23 C 56.11 27.64 56.52 29.02 56.86 30.41 C 57.96 32.99 58.83 35.72 60.47 38.03 C 61.04 35.40 61.75 32.80 62.86 30.35 C 63.12 29.82 63.64 28.76 63.90 28.23 C 64.72 27.13 65.53 26.02 66.36 24.92 C 68.87 22.48 69.89 18.96 69.25 15.55 C 69.65 11.87 68.03 8.36 66.09 5.34 C 54.66 9.87 43.49 19.31 42.13 32.27 M 26.68 22.71 C 26.30 23.83 26.09 24.97 26.05 26.15 C 27.60 29.44 30.85 25.93 31.83 23.97 C 31.14 23.07 30.31 22.34 29.33 21.78 C 28.67 22.01 27.34 22.48 26.68 22.71 M 53.49 23.27 C 53.41 28.28 54.41 33.20 54.93 38.16 C 55.33 41.42 56.11 44.62 56.65 47.86 C 57.33 47.41 58.68 46.52 59.36 46.07 C 60.57 42.19 58.43 38.61 57.51 34.94 L 56.80 35.31 C 56.11 31.19 54.87 27.09 53.85 23.10 L 53.49 23.27 M 61.71 38.98 C 60.47 43.00 60.46 47.31 60.80 51.47 C 62.95 50.59 65.68 50.76 67.40 49.09 C 67.67 45.31 68.63 41.28 67.35 37.62 C 67.39 36.84 67.46 35.26 67.49 34.48 C 67.62 31.57 67.67 28.65 67.48 25.74 C 64.17 29.43 62.63 34.21 61.71 38.98 M 30.25 27.95 C 30.41 28.92 30.74 30.87 30.91 31.84 C 28.87 31.09 28.16 32.43 27.93 34.24 C 28.48 36.55 31.84 33.53 30.51 32.08 L 31.60 31.66 C 31.48 30.31 31.11 29.02 30.25 27.95 M 32.77 27.92 C 32.91 30.37 33.88 32.71 35.10 34.81 L 35.05 34.94 C 37.98 35.57 36.51 39.12 36.96 41.21 C 38.91 41.98 40.18 41.37 40.77 39.40 C 41.44 40.88 42.13 42.37 42.78 43.87 C 43.15 46.63 44.73 49.10 45.10 51.89 C 46.36 51.08 48.54 50.74 48.86 49.07 C 47.45 46.30 46.21 43.39 44.26 40.94 C 41.59 36.48 38.51 32.27 35.61 27.96 C 35.57 28.46 35.51 29.47 35.47 29.98 C 34.54 29.34 33.64 28.66 32.77 27.92 M 31.89 33.09 C 31.62 33.81 31.08 35.24 30.82 35.95 C 31.88 39.01 32.54 42.34 34.81 44.80 C 31.03 43.50 26.97 43.17 23.03 43.81 C 22.61 43.87 21.78 44.00 21.36 44.07 L 21.38 44.42 C 13.99 45.59 6.07 49.50 2.49 56.37 L 2.29 56.49 C 2.25 56.84 2.16 57.55 2.11 57.91 C 0.35 60.27 1.38 65.76 5.36 64.58 L 4.90 64.77 C 7.55 65.67 8.80 68.37 11.20 69.64 L 11.19 69.98 C 18.49 72.74 26.12 76.37 34.13 74.77 L 33.72 74.10 C 28.40 72.11 23.18 69.70 18.61 66.27 C 17.48 65.60 16.51 64.45 15.13 64.36 C 14.03 63.24 12.90 62.15 11.98 60.88 C 14.37 60.45 16.76 61.22 19.14 61.41 L 19.07 61.73 C 21.52 62.28 23.97 62.85 26.41 63.42 L 26.32 63.91 C 27.49 64.06 28.66 64.22 29.82 64.38 C 29.35 64.69 28.41 65.31 27.93 65.62 C 23.61 64.66 19.53 62.71 15.10 62.24 C 18.63 64.79 22.18 67.36 26.03 69.41 C 29.13 70.69 32.19 72.35 35.55 72.74 C 35.70 70.91 35.81 69.07 35.86 67.24 L 34.99 67.04 C 36.73 61.68 39.61 56.76 43.66 52.81 C 43.31 50.95 43.06 49.08 42.92 47.19 L 42.60 47.41 C 41.04 44.96 37.55 45.28 35.12 44.27 C 35.97 42.61 34.81 40.94 33.97 39.57 C 34.64 38.94 35.96 37.69 36.63 37.06 C 35.94 35.76 34.75 35.34 33.06 35.81 C 33.09 35.25 33.15 34.13 33.18 33.57 L 31.89 33.09 M 3.53 65.52 C 3.78 67.17 4.24 68.78 4.80 70.36 C 5.77 70.40 7.71 70.48 8.68 70.53 C 8.57 67.95 6.20 65.38 3.53 65.52 Z" />
<path fill="#ffffff" opacity="1.00" d=" M 42.13 32.27 C 43.49 19.31 54.66 9.87 66.09 5.34 C 68.03 8.36 69.65 11.87 69.25 15.55 C 67.86 13.56 66.76 11.40 65.88 9.15 C 62.59 9.69 63.55 13.67 61.47 15.48 C 59.37 17.55 56.65 19.26 53.68 19.60 C 53.58 18.97 53.38 17.69 53.28 17.06 C 51.99 17.53 52.55 19.15 52.28 20.20 C 48.47 21.93 44.89 24.71 43.49 28.81 C 43.01 29.95 42.55 31.10 42.13 32.27 Z" />
<path fill="#bc4ad9" opacity="1.00" d=" M 61.47 15.48 C 63.55 13.67 62.59 9.69 65.88 9.15 C 66.76 11.40 67.86 13.56 69.25 15.55 C 69.89 18.96 68.87 22.48 66.36 24.92 C 63.80 24.26 61.36 23.18 58.76 22.69 C 58.09 23.34 57.45 24.03 56.86 24.76 C 56.61 25.13 56.10 25.86 55.85 26.23 C 55.40 23.94 54.47 21.79 53.68 19.60 C 56.65 19.26 59.37 17.55 61.47 15.48 Z" />
<path fill="#ffffff" opacity="1.00" d=" M 72.48 18.55 C 76.29 15.14 80.83 11.20 86.28 11.68 C 83.53 13.28 80.80 15.31 80.98 18.87 C 78.32 21.98 73.44 18.60 71.10 22.06 C 70.18 23.12 69.37 24.26 68.58 25.42 C 67.66 22.41 70.82 20.55 72.48 18.55 Z" />
<path fill="#e48ce8" opacity="1.00" d=" M 86.28 11.68 L 87.28 11.70 C 85.89 14.64 83.39 16.77 80.98 18.87 C 80.80 15.31 83.53 13.28 86.28 11.68 Z" />
<path fill="#cc64dc" opacity="1.00" d=" M 87.28 11.70 C 87.77 11.72 88.75 11.76 89.24 11.79 C 89.29 12.20 89.37 13.03 89.42 13.45 C 85.73 15.44 83.63 19.16 80.86 22.15 C 76.48 22.78 71.98 23.87 68.73 27.10 C 68.69 26.68 68.62 25.84 68.58 25.42 C 69.37 24.26 70.18 23.12 71.10 22.06 C 73.44 18.60 78.32 21.98 80.98 18.87 C 83.39 16.77 85.89 14.64 87.28 11.70 Z" />
<path fill="#9126b5" opacity="1.00" d=" M 89.24 11.79 C 90.38 12.25 92.04 12.09 92.69 13.34 C 94.53 16.54 95.13 20.28 95.86 23.85 C 95.18 26.81 91.24 25.37 91.01 22.93 C 90.55 20.92 88.56 20.04 86.80 19.43 C 84.86 20.44 83.20 22.08 80.86 22.15 C 83.63 19.16 85.73 15.44 89.42 13.45 C 89.37 13.03 89.29 12.20 89.24 11.79 Z" />
<path fill="#914b69" opacity="1.00" d=" M 103.68 24.58 C 106.33 21.74 107.96 18.05 111.00 15.55 L 111.00 21.39 C 107.16 23.11 103.49 26.15 102.75 30.51 C 101.54 30.56 100.68 31.14 100.16 32.26 L 100.01 31.07 C 98.92 31.92 97.82 32.76 96.70 33.57 C 96.95 30.24 101.08 29.22 102.00 26.12 C 102.11 25.74 102.32 24.99 102.42 24.62 C 102.74 24.61 103.37 24.59 103.68 24.58 Z" />
<path fill="#7a23c1" opacity="1.00" d=" M 80.86 22.15 C 83.20 22.08 84.86 20.44 86.80 19.43 C 88.56 20.04 90.55 20.92 91.01 22.93 C 91.24 25.37 95.18 26.81 95.86 23.85 C 96.45 27.85 96.50 31.95 95.72 35.93 C 93.12 36.80 90.84 38.35 88.81 40.17 C 88.88 38.81 89.00 37.46 89.18 36.12 C 90.07 33.87 93.04 32.68 92.99 30.04 C 92.35 28.60 91.06 27.60 90.06 26.43 L 90.01 25.70 C 89.93 24.99 89.77 23.57 89.69 22.86 C 87.58 23.73 85.60 25.08 83.32 25.41 C 78.43 22.77 73.22 26.25 68.75 28.25 L 68.73 27.10 C 71.98 23.87 76.48 22.78 80.86 22.15 Z" />
<path fill="#a846d7" opacity="1.00" d=" M 43.49 28.81 C 44.89 24.71 48.47 21.93 52.28 20.20 C 52.39 22.66 52.27 25.14 52.40 27.60 C 49.58 28.87 46.56 29.96 43.49 28.81 Z" />
<path fill="#ffffff" opacity="1.00" d=" M 26.68 22.71 C 27.34 22.48 28.67 22.01 29.33 21.78 C 28.51 23.43 27.32 24.83 26.05 26.15 C 26.09 24.97 26.30 23.83 26.68 22.71 Z" />
<path fill="#c9504d" opacity="1.00" d=" M 29.33 21.78 C 30.31 22.34 31.14 23.07 31.83 23.97 C 30.85 25.93 27.60 29.44 26.05 26.15 C 27.32 24.83 28.51 23.43 29.33 21.78 Z" />
<path fill="#9d3fce" opacity="1.00" d=" M 58.76 22.69 C 61.36 23.18 63.80 24.26 66.36 24.92 C 65.53 26.02 64.72 27.13 63.90 28.23 C 61.04 28.28 58.52 27.11 56.86 24.76 C 57.45 24.03 58.09 23.34 58.76 22.69 Z" />
<path fill="#9a5454" opacity="1.00" d=" M 98.80 24.37 C 98.67 21.09 104.04 21.06 102.42 24.62 C 102.32 24.99 102.11 25.74 102.00 26.12 C 101.04 25.35 100.03 24.62 98.80 24.37 Z" />
<path fill="#d4d8fe" opacity="1.00" d=" M 53.49 23.27 L 53.85 23.10 C 54.87 27.09 56.11 31.19 56.80 35.31 C 56.19 36.27 55.57 37.22 54.93 38.16 C 54.41 33.20 53.41 28.28 53.49 23.27 Z" />
<path fill="#5f27a2" opacity="1.00" d=" M 83.32 25.41 C 85.60 25.08 87.58 23.73 89.69 22.86 C 89.77 23.57 89.93 24.99 90.01 25.70 C 88.05 25.96 85.65 25.47 84.15 27.09 C 82.05 28.95 80.42 31.34 78.03 32.87 C 77.36 32.22 76.84 31.45 76.46 30.56 C 73.91 30.22 71.33 30.13 68.77 30.04 C 68.76 29.59 68.76 28.70 68.75 28.25 C 73.22 26.25 78.43 22.77 83.32 25.41 Z" />
<path fill="#7434af" opacity="1.00" d=" M 56.86 24.76 C 58.52 27.11 61.04 28.28 63.90 28.23 C 63.64 28.76 63.12 29.82 62.86 30.35 C 60.87 30.60 58.86 30.58 56.86 30.41 C 56.52 29.02 56.11 27.64 55.85 26.23 C 56.10 25.86 56.61 25.13 56.86 24.76 Z" />
<path fill="#482686" opacity="1.00" d=" M 84.15 27.09 C 85.65 25.47 88.05 25.96 90.01 25.70 L 90.06 26.43 L 89.28 26.97 C 86.17 28.51 84.68 32.01 81.52 33.47 C 78.48 34.91 75.78 36.92 73.19 39.04 C 71.76 37.91 70.31 36.81 68.84 35.73 C 68.85 33.83 68.80 31.94 68.77 30.04 C 71.33 30.13 73.91 30.22 76.46 30.56 C 76.84 31.45 77.36 32.22 78.03 32.87 C 80.42 31.34 82.05 28.95 84.15 27.09 Z" />
<path fill="#ffffff" opacity="1.00" d=" M 61.71 38.98 C 62.63 34.21 64.17 29.43 67.48 25.74 C 67.67 28.65 67.62 31.57 67.49 34.48 C 64.91 36.60 63.97 39.95 61.67 42.31 C 61.68 41.48 61.70 39.81 61.71 38.98 Z" />
<path fill="#201a4b" opacity="1.00" d=" M 81.52 33.47 C 84.68 32.01 86.17 28.51 89.28 26.97 C 88.89 32.09 86.03 37.64 88.53 42.55 C 86.89 43.58 85.08 44.35 83.24 44.96 C 83.12 43.23 83.25 41.37 82.28 39.83 C 78.76 41.50 75.17 43.01 71.54 44.39 C 70.39 45.04 69.64 43.50 68.79 43.03 C 68.72 40.60 68.80 38.16 68.84 35.73 C 70.31 36.81 71.76 37.91 73.19 39.04 C 75.78 36.92 78.48 34.91 81.52 33.47 Z" />
<path fill="#5d1faa" opacity="1.00" d=" M 89.28 26.97 L 90.06 26.43 C 91.06 27.60 92.35 28.60 92.99 30.04 C 93.04 32.68 90.07 33.87 89.18 36.12 C 89.00 37.46 88.88 38.81 88.81 40.17 C 88.74 40.76 88.60 41.96 88.53 42.55 C 86.03 37.64 88.89 32.09 89.28 26.97 Z" />
<path fill="#ffffff" opacity="1.00" d=" M 30.25 27.95 C 31.11 29.02 31.48 30.31 31.60 31.66 L 30.51 32.08 C 29.37 32.39 28.57 33.30 27.93 34.24 C 28.16 32.43 28.87 31.09 30.91 31.84 C 30.74 30.87 30.41 28.92 30.25 27.95 Z" />
<path fill="#000000" opacity="0.40" d=" M 32.77 27.92 C 33.64 28.66 34.54 29.34 35.47 29.98 C 35.39 31.59 35.83 33.29 35.10 34.81 C 33.88 32.71 32.91 30.37 32.77 27.92 Z" />
<path fill="#ffffff" opacity="1.00" d=" M 35.61 27.96 C 38.51 32.27 41.59 36.48 44.26 40.94 C 44.37 41.52 44.57 42.68 44.68 43.26 C 44.20 43.41 43.26 43.72 42.78 43.87 C 42.13 42.37 41.44 40.88 40.77 39.40 C 39.21 35.97 37.43 32.65 35.86 29.22 L 35.47 29.98 C 35.51 29.47 35.57 28.46 35.61 27.96 Z" />
<path fill="#7d35be" opacity="1.00" d=" M 43.49 28.81 C 46.56 29.96 49.58 28.87 52.40 27.60 L 52.47 28.80 L 52.28 29.72 C 49.45 31.89 46.14 33.83 44.77 37.33 L 43.88 37.56 C 42.69 36.05 41.59 34.28 42.13 32.27 C 42.55 31.10 43.01 29.95 43.49 28.81 Z" />
<path fill="#1d1b43" opacity="1.00" d=" M 52.47 28.80 C 53.08 33.82 53.89 38.87 54.17 43.88 C 52.18 43.55 50.15 43.48 48.15 43.77 C 46.48 41.88 45.20 39.70 43.88 37.56 L 44.77 37.33 C 49.15 37.50 52.03 33.81 52.28 29.72 L 52.47 28.80 Z" />
<path fill="#0c0c0c" opacity="0.63" d=" M 35.47 29.98 L 35.86 29.22 C 37.43 32.65 39.21 35.97 40.77 39.40 C 40.18 41.37 38.91 41.98 36.96 41.21 C 36.51 39.12 37.98 35.57 35.05 34.94 L 35.10 34.81 C 35.83 33.29 35.39 31.59 35.47 29.98 Z" />
<path fill="#432e6d" opacity="1.00" d=" M 44.77 37.33 C 46.14 33.83 49.45 31.89 52.28 29.72 C 52.03 33.81 49.15 37.50 44.77 37.33 Z" />
<path fill="#3a2767" opacity="1.00" d=" M 56.86 30.41 C 58.86 30.58 60.87 30.60 62.86 30.35 C 61.75 32.80 61.04 35.40 60.47 38.03 C 58.83 35.72 57.96 32.99 56.86 30.41 Z" />
<path fill="#ffffa4" opacity="1.00" d=" M 100.16 32.26 C 100.68 31.14 101.54 30.56 102.75 30.51 C 103.17 30.89 104.00 31.66 104.41 32.04 C 103.27 32.95 101.64 32.77 100.27 32.97 L 100.16 32.26 Z" />
<path fill="#b62d37" opacity="1.00" d=" M 27.93 34.24 C 28.57 33.30 29.37 32.39 30.51 32.08 C 31.84 33.53 28.48 36.55 27.93 34.24 Z" />
<path fill="#832544" opacity="1.00" d=" M 104.41 32.04 C 104.44 32.42 104.49 33.18 104.51 33.56 C 103.29 34.28 100.43 35.17 100.27 32.97 C 101.64 32.77 103.27 32.95 104.41 32.04 Z" />
<path fill="#744853" opacity="1.00" d=" M 31.89 33.09 L 33.18 33.57 C 33.15 34.13 33.09 35.25 33.06 35.81 C 32.91 36.98 33.12 38.07 33.70 39.09 C 34.54 40.87 35.39 42.80 34.81 44.80 C 32.54 42.34 31.88 39.01 30.82 35.95 C 31.08 35.24 31.62 33.81 31.89 33.09 Z" />
<path fill="#4a42b4" opacity="1.00" d=" M 56.80 35.31 L 57.51 34.94 C 58.43 38.61 60.57 42.19 59.36 46.07 C 58.68 46.52 57.33 47.41 56.65 47.86 C 56.11 44.62 55.33 41.42 54.93 38.16 C 55.57 37.22 56.19 36.27 56.80 35.31 Z" />
<path fill="#b3b7f3" opacity="1.00" d=" M 61.67 42.31 C 63.97 39.95 64.91 36.60 67.49 34.48 C 67.46 35.26 67.39 36.84 67.35 37.62 C 67.11 38.13 66.64 39.15 66.40 39.66 C 64.79 41.22 63.14 42.74 61.50 44.26 C 61.54 43.77 61.63 42.80 61.67 42.31 Z" />
<path fill="#ae4341" opacity="1.00" d=" M 33.06 35.81 C 34.75 35.34 35.94 35.76 36.63 37.06 C 35.96 37.69 34.64 38.94 33.97 39.57 L 33.70 39.09 C 33.12 38.07 32.91 36.98 33.06 35.81 Z" />
<path fill="#9a37ca" opacity="1.00" d=" M 88.81 40.17 C 90.84 38.35 93.12 36.80 95.72 35.93 C 95.64 36.74 95.48 38.37 95.39 39.18 C 94.91 39.48 93.93 40.08 93.45 40.38 L 93.69 40.80 C 91.74 40.41 90.13 41.70 88.53 42.55 C 88.60 41.96 88.74 40.76 88.81 40.17 Z" />
<path fill="#262776" opacity="1.00" d=" M 66.40 39.66 C 66.64 39.15 67.11 38.13 67.35 37.62 C 68.63 41.28 67.67 45.31 67.40 49.09 C 65.68 50.76 62.95 50.59 60.80 51.47 C 60.46 47.31 60.47 43.00 61.71 38.98 C 61.70 39.81 61.68 41.48 61.67 42.31 C 61.63 42.80 61.54 43.77 61.50 44.26 C 61.40 45.81 61.34 47.37 61.32 48.92 C 63.66 49.51 63.78 46.84 64.60 45.49 C 65.39 43.61 65.87 41.62 66.40 39.66 Z" />
<path fill="#6128a1" opacity="1.00" d=" M 33.70 39.09 L 33.97 39.57 C 34.81 40.94 35.97 42.61 35.12 44.27 C 34.20 45.88 33.22 47.46 32.17 48.98 C 29.39 49.25 26.60 49.30 23.81 49.28 C 25.06 48.68 26.29 48.03 27.52 47.39 C 27.60 46.36 27.68 45.33 27.76 44.29 C 26.19 44.11 24.61 43.92 23.03 43.81 C 26.97 43.17 31.03 43.50 34.81 44.80 C 35.39 42.80 34.54 40.87 33.70 39.09 Z" />
<path fill="#8871e2" opacity="1.00" d=" M 61.50 44.26 C 63.14 42.74 64.79 41.22 66.40 39.66 C 65.87 41.62 65.39 43.61 64.60 45.49 C 63.78 46.84 63.66 49.51 61.32 48.92 C 61.34 47.37 61.40 45.81 61.50 44.26 Z" />
<path fill="#131428" opacity="1.00" d=" M 71.54 44.39 C 75.17 43.01 78.76 41.50 82.28 39.83 C 83.25 41.37 83.12 43.23 83.24 44.96 C 85.08 44.35 86.89 43.58 88.53 42.55 C 90.13 41.70 91.74 40.41 93.69 40.80 C 91.36 43.20 87.99 44.29 85.33 46.31 C 82.62 48.20 80.27 50.54 77.65 52.55 C 76.46 53.47 75.25 54.36 74.04 55.25 C 73.50 55.22 72.44 55.16 71.91 55.13 C 72.05 54.70 72.32 53.84 72.46 53.41 C 71.47 52.77 70.31 52.31 69.53 51.39 C 68.95 48.65 69.05 45.81 68.79 43.03 C 69.64 43.50 70.39 45.04 71.54 44.39 Z" />
<path fill="#ffffff" opacity="1.00" d=" M 94.85 42.71 C 95.18 39.57 99.00 40.91 101.14 40.39 C 98.78 41.57 96.30 42.47 93.78 43.25 C 93.67 43.02 93.46 42.58 93.35 42.35 C 91.79 43.83 90.16 45.25 88.70 46.84 C 87.86 46.71 86.17 46.44 85.33 46.31 C 87.99 44.29 91.36 43.20 93.69 40.80 C 94.07 41.44 94.45 42.08 94.85 42.71 Z" />
<path fill="#2c317e" opacity="1.00" d=" M 44.26 40.94 C 46.21 43.39 47.45 46.30 48.86 49.07 C 48.54 50.74 46.36 51.08 45.10 51.89 C 44.73 49.10 43.15 46.63 42.78 43.87 C 43.26 43.72 44.20 43.41 44.68 43.26 C 44.57 42.68 44.37 41.52 44.26 40.94 Z" />
<path fill="#8b33b0" opacity="1.00" d=" M 93.78 43.25 C 96.30 42.47 98.78 41.57 101.14 40.39 C 101.33 43.62 101.50 46.87 101.07 50.08 C 100.94 48.59 100.64 47.12 100.28 45.68 C 97.39 46.76 93.90 49.08 91.35 46.06 C 92.19 45.15 93.02 44.23 93.78 43.25 Z" />
<path fill="#d04fd0" opacity="1.00" d=" M 21.36 44.07 C 21.78 44.00 22.61 43.87 23.03 43.81 C 24.61 43.92 26.19 44.11 27.76 44.29 C 27.68 45.33 27.60 46.36 27.52 47.39 C 26.29 48.03 25.06 48.68 23.81 49.28 C 23.32 49.39 22.33 49.60 21.84 49.70 C 17.75 50.52 13.88 52.21 10.26 54.24 C 7.36 55.85 5.24 58.54 2.29 60.07 C 2.24 59.53 2.16 58.45 2.11 57.91 C 2.16 57.55 2.25 56.84 2.29 56.49 L 2.49 56.37 C 5.67 54.31 7.90 50.94 11.46 49.36 C 14.29 47.31 18.24 50.41 20.82 47.70 C 21.92 46.95 21.33 45.49 21.38 44.42 L 21.36 44.07 Z" />
<path fill="#ffffff" opacity="1.00" d=" M 2.49 56.37 C 6.07 49.50 13.99 45.59 21.38 44.42 C 21.33 45.49 21.92 46.95 20.82 47.70 C 18.24 50.41 14.29 47.31 11.46 49.36 C 7.90 50.94 5.67 54.31 2.49 56.37 Z" />
<path fill="#211e4c" opacity="1.00" d=" M 32.17 48.98 C 33.22 47.46 34.20 45.88 35.12 44.27 C 37.55 45.28 41.04 44.96 42.60 47.41 C 40.61 48.95 37.97 49.41 36.18 51.24 C 33.16 54.24 28.77 54.92 25.28 57.21 C 26.03 59.20 27.22 61.25 26.41 63.42 C 23.97 62.85 21.52 62.28 19.07 61.73 L 19.14 61.41 C 19.08 55.36 29.29 57.13 28.57 50.58 C 29.77 50.06 30.98 49.54 32.17 48.98 Z" />
<path fill="#7687ce" opacity="1.00" d=" M 77.65 52.55 C 80.27 50.54 82.62 48.20 85.33 46.31 C 86.17 46.44 87.86 46.71 88.70 46.84 C 86.94 49.12 84.79 51.03 82.58 52.85 C 80.94 52.73 79.30 52.63 77.65 52.55 Z" />
<path fill="#5c1fa6" opacity="1.00" d=" M 87.48 50.04 C 88.73 48.67 90.05 47.37 91.35 46.06 C 93.90 49.08 97.39 46.76 100.28 45.68 C 100.64 47.12 100.94 48.59 101.07 50.08 C 100.45 53.59 99.35 57.00 97.87 60.23 C 95.98 62.22 93.32 63.14 90.92 64.34 C 89.24 63.89 87.40 62.19 88.24 60.34 C 90.97 57.83 94.57 55.97 96.04 52.36 C 92.89 52.82 89.26 53.38 87.48 50.04 Z" />
<path fill="#14152b" opacity="1.00" d=" M 42.60 47.41 L 42.92 47.19 C 43.06 49.08 43.31 50.95 43.66 52.81 C 39.61 56.76 36.73 61.68 34.99 67.04 C 32.94 66.57 30.87 66.18 28.79 65.80 C 28.58 65.76 28.15 65.67 27.93 65.62 C 28.41 65.31 29.35 64.69 29.82 64.38 C 28.66 64.22 27.49 64.06 26.32 63.91 L 26.41 63.42 C 27.22 61.25 26.03 59.20 25.28 57.21 C 28.77 54.92 33.16 54.24 36.18 51.24 C 37.97 49.41 40.61 48.95 42.60 47.41 Z" />
<path fill="#bc9451" opacity="1.00" d=" M 53.87 48.62 C 55.68 48.21 57.56 48.15 59.36 47.66 C 59.59 49.09 59.60 50.52 59.38 51.96 C 60.88 51.98 62.39 52.05 63.87 51.78 C 63.37 54.98 63.56 58.23 65.33 61.04 C 63.89 63.04 62.42 65.03 60.89 66.98 C 59.25 68.45 56.96 68.47 54.92 68.93 C 58.73 68.13 60.83 64.71 63.04 61.85 C 63.63 58.94 63.34 55.94 63.28 53.00 C 61.95 52.99 60.62 52.97 59.30 52.95 L 59.24 52.07 C 59.19 51.35 59.09 49.90 59.04 49.18 C 57.32 48.99 55.60 48.78 53.87 48.62 Z" />
<path fill="#33265f" opacity="1.00" d=" M 21.84 49.70 C 22.33 49.60 23.32 49.39 23.81 49.28 C 26.60 49.30 29.39 49.25 32.17 48.98 C 30.98 49.54 29.77 50.06 28.57 50.58 C 29.29 57.13 19.08 55.36 19.14 61.41 C 16.76 61.22 14.37 60.45 11.98 60.88 C 12.90 62.15 14.03 63.24 15.13 64.36 C 13.95 64.72 12.81 65.18 11.71 65.72 C 11.02 66.88 11.35 68.35 11.20 69.64 C 8.80 68.37 7.55 65.67 4.90 64.77 L 5.36 64.58 C 7.92 64.30 8.33 62.23 7.52 60.15 C 10.84 59.98 14.41 60.25 17.36 58.43 C 20.88 56.92 21.65 52.87 23.68 50.01 C 23.22 49.93 22.30 49.78 21.84 49.70 Z" />
<path fill="#ffffa4" opacity="1.00" d=" M 38.93 61.62 C 42.19 55.65 47.90 51.58 53.87 48.62 C 55.60 48.78 57.32 48.99 59.04 49.18 C 59.09 49.90 59.19 51.35 59.24 52.07 C 57.22 51.80 55.11 51.82 53.60 53.42 C 50.73 54.33 48.05 55.77 45.78 57.77 C 42.96 60.14 43.25 63.82 43.49 67.14 C 43.98 67.59 44.97 68.48 45.46 68.92 C 44.04 69.39 42.30 70.26 40.99 69.03 C 38.53 67.42 39.43 64.08 38.93 61.62 Z" />
<path fill="#4e2f70" opacity="1.00" d=" M 10.26 54.24 C 13.88 52.21 17.75 50.52 21.84 49.70 C 22.30 49.78 23.22 49.93 23.68 50.01 C 21.65 52.87 20.88 56.92 17.36 58.43 C 14.41 60.25 10.84 59.98 7.52 60.15 C 8.33 62.23 7.92 64.30 5.36 64.58 C 1.38 65.76 0.35 60.27 2.11 57.91 C 2.16 58.45 2.24 59.53 2.29 60.07 C 5.24 58.54 7.36 55.85 10.26 54.24 Z" />
<path fill="#3c1b84" opacity="1.00" d=" M 83.05 54.80 C 84.63 53.31 86.01 51.63 87.48 50.04 C 89.26 53.38 92.89 52.82 96.04 52.36 C 94.57 55.97 90.97 57.83 88.24 60.34 C 87.40 62.19 89.24 63.89 90.92 64.34 C 87.18 65.95 83.31 67.33 79.27 67.93 C 79.57 65.15 80.48 62.43 82.65 60.55 C 84.52 59.12 83.21 56.68 83.05 54.80 Z" />
<path fill="#ab4c43" opacity="1.00" d=" M 63.87 51.78 C 65.35 51.53 66.86 51.03 68.33 51.59 C 67.57 54.79 67.45 58.34 65.33 61.04 C 63.56 58.23 63.37 54.98 63.87 51.78 Z" />
<path fill="#f9ed71" opacity="1.00" d=" M 53.60 53.42 C 55.11 51.82 57.22 51.80 59.24 52.07 L 59.30 52.95 C 60.62 52.97 61.95 52.99 63.28 53.00 C 63.34 55.94 63.63 58.94 63.04 61.85 C 60.83 64.71 58.73 68.13 54.92 68.93 C 51.12 69.98 47.35 71.29 43.92 73.27 C 42.06 73.55 40.19 73.62 38.32 73.70 C 36.78 69.87 36.72 65.22 38.93 61.62 C 39.43 64.08 38.53 67.42 40.99 69.03 C 42.30 70.26 44.04 69.39 45.46 68.92 C 48.60 68.45 52.38 69.43 54.78 66.78 L 55.23 66.35 L 55.30 66.63 C 57.60 64.42 60.24 61.65 59.62 58.17 C 59.41 55.07 56.15 54.01 53.60 53.42 Z" />
<path fill="#762c45" opacity="1.00" d=" M 68.33 51.59 C 70.04 53.28 70.87 55.56 71.50 57.83 C 70.36 59.27 69.04 60.61 67.09 60.69 C 66.12 62.89 65.34 65.16 64.70 67.48 C 64.16 67.55 63.09 67.69 62.55 67.76 C 62.14 67.56 61.31 67.17 60.89 66.98 C 62.42 65.03 63.89 63.04 65.33 61.04 C 67.45 58.34 67.57 54.79 68.33 51.59 Z" />
<path fill="#000000" opacity="1.00" d=" M 45.78 57.77 C 48.05 55.77 50.73 54.33 53.60 53.42 C 56.15 54.01 59.41 55.07 59.62 58.17 C 60.24 61.65 57.60 64.42 55.30 66.63 L 55.23 66.35 C 55.24 65.98 55.25 65.24 55.26 64.87 C 55.38 64.71 55.62 64.39 55.74 64.23 C 59.15 62.95 59.92 58.45 57.90 55.65 C 55.93 54.51 52.10 53.14 50.87 55.80 C 52.34 56.34 54.71 55.81 55.21 57.76 C 56.82 62.35 51.52 66.18 47.31 65.48 C 47.14 62.91 46.83 58.80 50.74 59.13 C 50.06 58.52 49.38 57.91 48.71 57.29 C 46.13 59.97 43.33 63.11 44.49 67.15 C 47.05 68.57 49.86 68.52 52.54 67.44 C 53.10 67.27 54.22 66.94 54.78 66.78 C 52.38 69.43 48.60 68.45 45.46 68.92 C 44.97 68.48 43.98 67.59 43.49 67.14 C 43.25 63.82 42.96 60.14 45.78 57.77 M 51.53 59.00 C 50.58 59.56 49.62 60.13 48.66 60.68 C 48.10 61.85 47.79 63.09 47.72 64.38 C 50.00 65.12 52.61 64.25 53.89 62.20 L 52.00 62.29 C 51.75 61.94 51.23 61.22 50.98 60.87 C 52.22 60.30 53.37 59.36 54.82 59.46 C 54.62 57.04 53.11 55.94 50.29 56.17 C 50.69 57.12 51.11 58.06 51.53 59.00 Z" />
<path fill="#292e75" opacity="1.00" d=" M 74.04 55.25 C 75.25 54.36 76.46 53.47 77.65 52.55 C 79.30 52.63 80.94 52.73 82.58 52.85 C 79.88 55.77 76.38 59.29 72.02 57.39 C 72.52 56.86 73.53 55.78 74.04 55.25 Z" />
<path fill="#f9ed71" opacity="1.00" d=" M 50.87 55.80 C 52.10 53.14 55.93 54.51 57.90 55.65 C 58.18 58.77 56.28 61.29 55.74 64.23 C 55.62 64.39 55.38 64.71 55.26 64.87 C 54.20 65.40 52.26 65.88 52.54 67.44 C 49.86 68.52 47.05 68.57 44.49 67.15 C 43.33 63.11 46.13 59.97 48.71 57.29 C 49.38 57.91 50.06 58.52 50.74 59.13 C 46.83 58.80 47.14 62.91 47.31 65.48 C 51.52 66.18 56.82 62.35 55.21 57.76 C 54.71 55.81 52.34 56.34 50.87 55.80 Z" />
<path fill="#16162f" opacity="1.00" d=" M 73.40 60.23 C 77.29 59.73 80.08 57.07 83.05 54.80 C 83.21 56.68 84.52 59.12 82.65 60.55 C 80.48 62.43 79.57 65.15 79.27 67.93 C 83.31 67.33 87.18 65.95 90.92 64.34 C 93.32 63.14 95.98 62.22 97.87 60.23 C 98.23 60.53 98.95 61.12 99.31 61.41 C 99.40 61.49 99.58 61.63 99.66 61.70 L 99.69 62.96 C 98.68 63.17 97.69 63.44 96.70 63.76 L 95.64 64.09 C 94.75 64.42 93.86 64.77 92.99 65.13 C 88.11 67.38 83.02 69.13 77.79 70.35 C 78.48 72.19 80.70 72.20 82.26 72.88 C 80.98 72.93 79.70 72.99 78.43 73.07 C 78.23 74.65 77.30 75.86 75.80 76.41 L 76.00 75.14 C 76.56 73.73 76.99 72.25 76.92 70.71 C 76.07 69.97 75.20 69.21 74.16 68.75 C 72.80 68.09 71.41 67.49 70.04 66.88 C 71.12 64.64 72.25 62.43 73.40 60.23 Z" />
<path fill="#ffffff" opacity="1.00" d=" M 102.77 55.78 C 105.33 56.03 107.82 57.05 110.43 56.43 C 110.57 56.04 110.86 55.25 111.00 54.85 L 111.00 61.59 C 110.70 60.00 110.62 58.40 110.76 56.78 C 106.82 57.78 103.19 59.73 99.66 61.70 C 99.58 61.63 99.40 61.49 99.31 61.41 C 101.84 59.96 104.83 59.09 106.93 57.03 C 105.51 56.70 104.07 56.44 102.77 55.78 Z" />
<path fill="#ab4c43" opacity="1.00" d=" M 57.90 55.65 C 59.92 58.45 59.15 62.95 55.74 64.23 C 56.28 61.29 58.18 58.77 57.90 55.65 Z" />
<path fill="#f9ed71" opacity="1.00" d=" M 51.53 59.00 C 51.11 58.06 50.69 57.12 50.29 56.17 C 53.11 55.94 54.62 57.04 54.82 59.46 C 53.37 59.36 52.22 60.30 50.98 60.87 C 51.23 61.22 51.75 61.94 52.00 62.29 L 53.89 62.20 C 52.61 64.25 50.00 65.12 47.72 64.38 C 47.79 63.09 48.10 61.85 48.66 60.68 C 49.62 60.13 50.58 59.56 51.53 59.00 Z" />
<path fill="#3b214c" opacity="1.00" d=" M 71.50 57.83 C 71.76 59.20 71.73 60.64 71.03 61.89 C 69.69 64.53 68.36 68.17 64.70 67.48 C 65.34 65.16 66.12 62.89 67.09 60.69 C 69.04 60.61 70.36 59.27 71.50 57.83 Z" />
<path fill="#000000" opacity="1.00" d=" M 99.66 61.70 C 103.19 59.73 106.82 57.78 110.76 56.78 C 110.62 58.40 110.70 60.00 111.00 61.59 L 111.00 63.89 C 109.68 63.88 108.36 63.87 107.04 63.86 L 107.55 62.68 C 107.73 61.90 107.81 61.12 107.80 60.32 C 106.01 59.88 104.36 61.21 103.43 62.62 C 102.18 62.75 100.94 62.87 99.69 62.96 L 99.66 61.70 Z" />
<path fill="#d4d8fe" opacity="1.00" d=" M 15.10 62.24 C 19.53 62.71 23.61 64.66 27.93 65.62 C 28.15 65.67 28.58 65.76 28.79 65.80 C 28.72 66.89 28.65 67.98 28.58 69.07 C 27.94 69.16 26.67 69.33 26.03 69.41 C 22.18 67.36 18.63 64.79 15.10 62.24 Z" />
<path fill="#3b4e54" opacity="1.00" d=" M 96.70 63.76 C 97.69 63.44 98.68 63.17 99.69 62.96 C 100.94 62.87 102.18 62.75 103.43 62.62 C 104.46 62.64 106.52 62.67 107.55 62.68 L 107.04 63.86 C 103.59 63.87 100.15 63.63 96.70 63.76 Z" />
<path fill="#ab4c43" opacity="1.00" d=" M 55.26 64.87 C 55.38 64.71 55.62 64.39 55.74 64.23 C 55.62 64.39 55.38 64.71 55.26 64.87 Z" />
<path fill="#253873" opacity="1.00" d=" M 92.99 65.13 C 93.86 64.77 94.75 64.42 95.64 64.09 C 99.23 65.23 104.93 66.78 103.90 71.72 C 100.90 73.08 97.36 72.58 94.53 74.33 C 93.97 74.34 92.87 74.35 92.32 74.36 C 90.93 73.74 89.58 73.06 88.22 72.39 C 90.44 71.71 93.78 72.37 94.93 69.87 C 95.59 67.97 93.86 66.59 92.99 65.13 Z" />
<path fill="#304a7d" opacity="1.00" d=" M 95.64 64.09 L 96.70 63.76 C 100.15 63.63 103.59 63.87 107.04 63.86 C 108.36 63.87 109.68 63.88 111.00 63.89 L 111.00 68.28 C 109.90 70.50 108.72 72.68 107.28 74.70 C 104.15 74.61 101.02 74.68 97.89 74.71 C 96.77 74.58 95.65 74.45 94.53 74.33 C 97.36 72.58 100.90 73.08 103.90 71.72 C 104.93 66.78 99.23 65.23 95.64 64.09 Z" />
<path fill="#231d53" opacity="1.00" d=" M 11.71 65.72 C 12.81 65.18 13.95 64.72 15.13 64.36 C 16.51 64.45 17.48 65.60 18.61 66.27 C 23.18 69.70 28.40 72.11 33.72 74.10 L 34.13 74.77 C 26.12 76.37 18.49 72.74 11.19 69.98 L 11.20 69.64 C 11.35 68.35 11.02 66.88 11.71 65.72 Z" />
<path fill="#ab4c43" opacity="1.00" d=" M 52.54 67.44 C 52.26 65.88 54.20 65.40 55.26 64.87 C 55.25 65.24 55.24 65.98 55.23 66.35 L 54.78 66.78 C 54.22 66.94 53.10 67.27 52.54 67.44 Z" />
<path fill="#1b245b" opacity="1.00" d=" M 77.79 70.35 C 83.02 69.13 88.11 67.38 92.99 65.13 C 93.86 66.59 95.59 67.97 94.93 69.87 C 93.78 72.37 90.44 71.71 88.22 72.39 C 89.58 73.06 90.93 73.74 92.32 74.36 C 89.78 74.36 87.26 74.43 84.73 74.61 C 84.55 75.14 84.19 76.18 84.01 76.71 C 85.70 74.83 87.97 74.34 90.37 75.16 C 89.72 75.38 88.43 75.80 87.78 76.01 C 87.31 76.24 86.37 76.71 85.90 76.94 C 85.89 78.23 85.89 79.53 85.90 80.83 L 85.43 80.89 C 83.73 80.20 82.08 79.16 80.19 79.22 C 78.41 79.41 76.47 79.27 74.88 80.26 C 72.24 81.79 69.04 82.15 66.80 84.39 C 66.53 85.70 66.22 87.00 65.91 88.30 C 64.79 87.57 63.72 86.76 62.65 85.95 C 63.12 85.56 64.04 84.76 64.50 84.37 C 64.39 84.17 64.16 83.78 64.05 83.58 C 66.02 82.43 67.98 81.24 69.96 80.10 C 72.21 78.76 74.08 76.90 76.00 75.14 L 75.80 76.41 C 77.30 75.86 78.23 74.65 78.43 73.07 C 79.70 72.99 80.98 72.93 82.26 72.88 C 80.70 72.20 78.48 72.19 77.79 70.35 Z" />
<path fill="#432f67" opacity="1.00" d=" M 3.53 65.52 C 6.20 65.38 8.57 67.95 8.68 70.53 C 7.71 70.48 5.77 70.40 4.80 70.36 C 4.24 68.78 3.78 67.17 3.53 65.52 Z" />
<path fill="#7a57d9" opacity="1.00" d=" M 28.79 65.80 C 30.87 66.18 32.94 66.57 34.99 67.04 L 35.86 67.24 C 35.81 69.07 35.70 70.91 35.55 72.74 C 32.19 72.35 29.13 70.69 26.03 69.41 C 26.67 69.33 27.94 69.16 28.58 69.07 C 28.65 67.98 28.72 66.89 28.79 65.80 Z" />
<path fill="#1b1a42" opacity="1.00" d=" M 54.92 68.93 C 56.96 68.47 59.25 68.45 60.89 66.98 C 61.31 67.17 62.14 67.56 62.55 67.76 C 66.19 69.34 70.33 68.09 74.16 68.75 C 75.20 69.21 76.07 69.97 76.92 70.71 C 73.94 72.09 71.92 74.98 68.73 75.94 C 66.96 76.60 65.24 77.41 63.56 78.28 C 62.21 76.54 60.12 76.44 58.23 77.26 C 53.04 79.16 47.39 78.99 42.03 78.04 C 40.13 77.44 39.30 79.62 38.52 80.87 C 40.38 81.22 42.24 81.58 44.09 81.96 L 42.86 81.92 C 40.57 81.89 38.27 81.77 35.98 81.57 C 36.28 80.45 36.53 79.31 36.77 78.18 C 33.64 78.16 30.56 78.73 27.44 78.81 C 26.14 78.70 24.83 78.64 23.52 78.71 C 23.53 80.89 23.43 83.06 23.17 85.22 C 21.41 85.44 19.64 85.63 17.88 85.81 C 19.83 84.72 22.18 83.88 23.09 81.62 C 21.42 81.55 19.77 81.32 18.15 80.92 C 19.43 80.05 20.84 79.42 22.23 78.74 C 21.86 78.69 21.13 78.58 20.76 78.53 C 18.13 76.49 15.03 75.24 11.96 74.00 C 11.88 73.40 11.70 72.19 11.62 71.58 C 17.04 73.12 22.26 75.94 28.03 75.78 C 32.33 75.81 36.63 75.68 40.92 75.48 C 42.39 75.61 43.03 74.12 43.92 73.27 C 47.35 71.29 51.12 69.98 54.92 68.93 Z" />
<path fill="#000000" opacity="1.00" d=" M 107.28 74.70 C 108.72 72.68 109.90 70.50 111.00 68.28 L 111.00 75.80 C 110.01 76.90 108.96 77.95 107.93 79.01 C 108.84 80.65 109.69 82.32 110.45 84.03 C 109.03 84.80 107.50 85.36 105.95 85.82 C 107.64 86.26 109.33 86.72 111.00 87.25 L 111.00 89.84 L 110.42 89.58 C 109.84 89.34 108.68 88.87 108.10 88.63 C 104.54 87.60 100.97 86.48 97.27 86.10 C 95.94 85.93 94.61 85.76 93.28 85.61 C 92.53 85.08 91.78 84.55 91.02 84.04 C 96.26 84.83 101.65 83.72 106.71 82.37 C 106.54 82.12 106.19 81.63 106.01 81.39 C 104.25 77.78 100.64 75.63 96.68 75.36 C 94.58 75.18 92.47 75.19 90.37 75.16 C 87.97 74.34 85.70 74.83 84.01 76.71 C 84.19 76.18 84.55 75.14 84.73 74.61 C 87.26 74.43 89.78 74.36 92.32 74.36 C 92.87 74.35 93.97 74.34 94.53 74.33 C 95.65 74.45 96.77 74.58 97.89 74.71 C 100.15 75.23 102.24 76.26 104.11 77.62 C 105.19 76.67 106.27 75.72 107.28 74.70 Z" />
<path fill="#5023a3" opacity="1.00" d=" M 68.73 75.94 C 71.92 74.98 73.94 72.09 76.92 70.71 C 76.99 72.25 76.56 73.73 76.00 75.14 C 74.08 76.90 72.21 78.76 69.96 80.10 C 69.58 79.54 68.82 78.42 68.44 77.85 C 68.51 77.37 68.66 76.42 68.73 75.94 Z" />
<path fill="#536b6c" opacity="1.00" d=" M 1.03 72.33 C 2.49 72.18 3.97 72.26 5.39 72.63 C 5.31 73.91 5.22 75.19 5.13 76.47 C 6.18 76.20 7.23 75.93 8.28 75.66 C 7.99 77.16 7.71 78.67 7.37 80.17 C 6.57 80.94 5.77 81.71 4.91 82.42 L 4.03 82.98 L 3.67 82.31 C 4.35 81.19 5.06 80.10 5.78 79.00 C 5.07 78.07 4.37 77.13 3.67 76.19 C 2.51 77.25 1.27 78.22 0.00 79.15 L 0.00 75.78 C 0.84 74.99 3.20 74.50 2.64 73.05 C 2.17 72.91 1.22 72.63 0.74 72.49 L 1.03 72.33 Z" />
<path fill="#ffffa4" opacity="1.00" d=" M 0.00 72.90 L 0.74 72.49 C 1.22 72.63 2.17 72.91 2.64 73.05 C 3.20 74.50 0.84 74.99 0.00 75.78 L 0.00 72.90 Z" />
<path fill="#2c3d6a" opacity="1.00" d=" M 5.39 72.63 C 7.57 73.16 9.76 73.58 11.96 74.00 C 15.03 75.24 18.13 76.49 20.76 78.53 C 19.09 79.51 17.43 80.53 15.68 81.35 C 14.01 80.66 12.21 80.05 11.12 78.51 C 9.86 79.03 8.60 79.56 7.37 80.17 C 7.71 78.67 7.99 77.16 8.28 75.66 C 7.23 75.93 6.18 76.20 5.13 76.47 C 5.22 75.19 5.31 73.91 5.39 72.63 Z" />
<path fill="#88b78b" opacity="1.00" d=" M 97.89 74.71 C 101.02 74.68 104.15 74.61 107.28 74.70 C 106.27 75.72 105.19 76.67 104.11 77.62 C 102.24 76.26 100.15 75.23 97.89 74.71 Z" />
<path fill="#88b78b" opacity="1.00" d=" M 90.37 75.16 C 92.47 75.19 94.58 75.18 96.68 75.36 C 95.78 77.02 94.84 78.67 93.84 80.28 C 91.57 79.28 89.03 78.33 87.78 76.01 C 88.43 75.80 89.72 75.38 90.37 75.16 Z" />
<path fill="#cfe294" opacity="1.00" d=" M 0.00 79.15 C 1.27 78.22 2.51 77.25 3.67 76.19 C 4.37 77.13 5.07 78.07 5.78 79.00 C 5.06 80.10 4.35 81.19 3.67 82.31 C 2.90 82.36 1.36 82.45 0.58 82.50 C 0.92 81.64 1.61 79.94 1.95 79.09 L 0.00 79.50 L 0.00 79.15 Z" />
<path fill="#ffffff" opacity="1.00" d=" M 63.56 78.28 C 65.24 77.41 66.96 76.60 68.73 75.94 C 68.66 76.42 68.51 77.37 68.44 77.85 C 64.90 80.11 60.97 81.77 56.82 82.50 C 52.79 83.17 48.31 84.38 44.58 82.05 C 51.01 81.71 57.68 81.11 63.56 78.28 Z" />
<path fill="#365587" opacity="1.00" d=" M 85.90 76.94 C 86.37 76.71 87.31 76.24 87.78 76.01 C 89.03 78.33 91.57 79.28 93.84 80.28 C 97.84 81.13 101.93 81.44 106.01 81.39 C 106.19 81.63 106.54 82.12 106.71 82.37 C 101.65 83.72 96.26 84.83 91.02 84.04 C 89.46 83.00 87.71 82.30 85.92 81.75 L 85.90 80.83 C 85.89 79.53 85.89 78.23 85.90 76.94 Z" />
<path fill="#b4da7f" opacity="1.00" d=" M 96.68 75.36 C 100.64 75.63 104.25 77.78 106.01 81.39 C 101.93 81.44 97.84 81.13 93.84 80.28 C 94.84 78.67 95.78 77.02 96.68 75.36 Z" />
<path fill="#472663" opacity="1.00" d=" M 58.23 77.26 C 60.12 76.44 62.21 76.54 63.56 78.28 C 57.68 81.11 51.01 81.71 44.58 82.05 L 44.09 81.96 C 42.24 81.58 40.38 81.22 38.52 80.87 C 39.30 79.62 40.13 77.44 42.03 78.04 C 47.39 78.99 53.04 79.16 58.23 77.26 Z" />
<path fill="#79949b" opacity="1.00" d=" M 11.12 78.51 C 12.21 80.05 14.01 80.66 15.68 81.35 C 13.17 82.31 10.63 83.19 8.24 84.43 L 7.55 83.10 C 6.89 82.93 5.57 82.59 4.91 82.42 C 5.77 81.71 6.57 80.94 7.37 80.17 C 8.60 79.56 9.86 79.03 11.12 78.51 Z" />
<path fill="#ffffff" opacity="1.00" d=" M 15.68 81.35 C 17.43 80.53 19.09 79.51 20.76 78.53 C 21.13 78.58 21.86 78.69 22.23 78.74 C 20.84 79.42 19.43 80.05 18.15 80.92 C 16.86 82.46 15.71 84.13 14.75 85.89 C 14.70 85.20 14.59 83.82 14.54 83.13 C 11.72 82.81 9.50 84.83 7.16 86.05 C 7.43 85.64 7.97 84.83 8.24 84.43 C 10.63 83.19 13.17 82.31 15.68 81.35 Z" />
<path fill="#6a8d88" opacity="1.00" d=" M 23.52 78.71 C 24.83 78.64 26.14 78.70 27.44 78.81 C 26.31 81.32 25.21 83.84 24.29 86.44 C 25.52 86.45 26.76 86.47 28.00 86.48 C 25.36 87.07 22.74 87.76 20.08 88.25 C 18.36 88.27 16.64 88.22 14.93 88.26 C 14.88 87.67 14.79 86.48 14.75 85.89 C 15.71 84.13 16.86 82.46 18.15 80.92 C 19.77 81.32 21.42 81.55 23.09 81.62 C 22.18 83.88 19.83 84.72 17.88 85.81 C 19.64 85.63 21.41 85.44 23.17 85.22 C 23.43 83.06 23.53 80.89 23.52 78.71 Z" />
<path fill="#1c255b" opacity="1.00" d=" M 27.44 78.81 C 30.56 78.73 33.64 78.16 36.77 78.18 C 36.53 79.31 36.28 80.45 35.98 81.57 C 35.42 82.55 34.83 83.52 34.24 84.49 C 34.58 84.75 35.26 85.26 35.61 85.52 C 35.61 85.79 35.63 86.33 35.63 86.60 C 37.52 87.88 40.27 87.39 42.17 88.83 C 42.02 89.22 41.73 90.00 41.58 90.39 C 43.26 90.98 45.57 90.94 46.29 92.91 C 44.84 93.30 43.38 93.67 41.91 94.04 C 41.23 93.25 40.54 92.46 39.85 91.68 C 37.86 90.99 35.74 91.51 33.72 91.70 C 27.92 92.57 22.05 92.07 16.21 92.23 C 16.69 90.96 15.86 89.97 15.18 89.01 C 16.82 88.78 18.45 88.55 20.08 88.25 C 22.74 87.76 25.36 87.07 28.00 86.48 C 26.76 86.47 25.52 86.45 24.29 86.44 C 25.21 83.84 26.31 81.32 27.44 78.81 Z" />
<path fill="#d764e0" opacity="1.00" d=" M 56.82 82.50 C 60.97 81.77 64.90 80.11 68.44 77.85 C 68.82 78.42 69.58 79.54 69.96 80.10 C 67.98 81.24 66.02 82.43 64.05 83.58 C 60.18 85.56 55.91 86.66 51.62 87.22 C 51.36 87.25 50.85 87.31 50.59 87.34 C 47.62 87.48 44.65 87.58 41.68 87.39 C 41.90 85.53 42.26 83.69 42.86 81.92 L 44.09 81.96 L 44.58 82.05 C 48.31 84.38 52.79 83.17 56.82 82.50 Z" />
<path fill="#5f828d" opacity="1.00" d=" M 74.88 80.26 C 76.47 79.27 78.41 79.41 80.19 79.22 C 78.96 79.74 77.72 80.36 77.84 81.91 C 80.10 82.53 82.37 83.09 84.65 83.61 C 84.84 82.93 85.23 81.57 85.43 80.89 L 85.90 80.83 L 85.92 81.75 C 85.93 82.31 85.95 83.42 85.96 83.97 C 85.91 85.39 86.62 86.10 88.08 86.12 L 88.28 86.89 L 86.96 87.03 C 86.23 86.99 84.76 86.91 84.03 86.87 C 81.77 86.61 79.55 86.13 77.33 85.66 C 78.08 84.77 79.01 83.94 79.31 82.76 C 77.57 82.43 74.51 83.05 74.88 80.26 Z" />
<path fill="#9abdb1" opacity="1.00" d=" M 80.19 79.22 C 82.08 79.16 83.73 80.20 85.43 80.89 C 85.23 81.57 84.84 82.93 84.65 83.61 C 82.37 83.09 80.10 82.53 77.84 81.91 C 77.72 80.36 78.96 79.74 80.19 79.22 Z" />
<path fill="#000000" opacity="1.00" d=" M 0.00 79.50 L 1.95 79.09 C 1.61 79.94 0.92 81.64 0.58 82.50 C 1.36 82.45 2.90 82.36 3.67 82.31 L 4.03 82.98 C 2.57 83.89 1.22 84.96 0.00 86.16 L 0.00 79.50 Z" />
<path fill="#21326e" opacity="1.00" d=" M 66.80 84.39 C 69.04 82.15 72.24 81.79 74.88 80.26 C 74.51 83.05 77.57 82.43 79.31 82.76 C 79.01 83.94 78.08 84.77 77.33 85.66 C 79.55 86.13 81.77 86.61 84.03 86.87 C 82.90 87.71 81.87 88.67 80.79 89.57 C 75.99 90.49 71.32 88.32 66.53 88.66 C 66.38 88.57 66.07 88.39 65.91 88.30 C 66.22 87.00 66.53 85.70 66.80 84.39 Z" />
<path fill="#a737cd" opacity="1.00" d=" M 34.24 84.49 C 34.83 83.52 35.42 82.55 35.98 81.57 C 38.27 81.77 40.57 81.89 42.86 81.92 C 42.26 83.69 41.90 85.53 41.68 87.39 C 39.59 86.98 37.54 86.39 35.61 85.52 C 35.26 85.26 34.58 84.75 34.24 84.49 Z" />
<path fill="#a7c9ac" opacity="1.00" d=" M 85.92 81.75 C 87.71 82.30 89.46 83.00 91.02 84.04 C 91.78 84.55 92.53 85.08 93.28 85.61 C 94.61 85.76 95.94 85.93 97.27 86.10 C 94.46 87.75 91.34 87.32 88.28 86.89 L 88.08 86.12 C 87.98 84.71 87.27 83.99 85.96 83.97 C 85.95 83.42 85.93 82.31 85.92 81.75 Z" />
<path fill="#ffffff" opacity="1.00" d=" M 4.03 82.98 L 4.91 82.42 C 5.57 82.59 6.89 82.93 7.55 83.10 C 5.81 84.11 4.08 85.18 2.70 86.67 C 1.74 87.03 0.84 87.49 -0.00 88.06 L 0.00 86.16 C 1.22 84.96 2.57 83.89 4.03 82.98 Z" />
<path fill="#cfed93" opacity="1.00" d=" M 2.70 86.67 C 4.08 85.18 5.81 84.11 7.55 83.10 L 8.24 84.43 C 7.97 84.83 7.43 85.64 7.16 86.05 C 9.50 84.83 11.72 82.81 14.54 83.13 C 14.59 83.82 14.70 85.20 14.75 85.89 C 14.79 86.48 14.88 87.67 14.93 88.26 C 11.21 88.82 7.64 90.02 4.06 91.13 C 2.71 91.50 1.35 91.82 0.00 92.18 L 0.00 89.79 C 1.51 89.51 3.03 88.39 2.70 86.67 Z" />
<path fill="#000000" opacity="1.00" d=" M 51.62 87.22 C 55.91 86.66 60.18 85.56 64.05 83.58 C 64.16 83.78 64.39 84.17 64.50 84.37 C 64.04 84.76 63.12 85.56 62.65 85.95 C 63.72 86.76 64.79 87.57 65.91 88.30 C 66.07 88.39 66.38 88.57 66.53 88.66 C 67.20 89.06 68.54 89.86 69.21 90.26 C 69.33 90.80 69.56 91.90 69.68 92.45 C 72.25 93.79 74.98 94.91 77.94 94.92 C 83.14 95.14 88.27 96.16 93.48 96.30 C 89.62 91.58 83.18 93.04 77.88 92.52 C 82.71 92.11 87.58 92.41 92.35 91.36 C 93.73 91.22 95.12 91.11 96.51 91.02 C 95.99 89.85 95.47 88.68 94.96 87.51 C 97.44 87.48 99.92 87.76 102.19 88.84 C 100.06 91.42 96.01 90.34 93.87 93.12 C 99.20 95.52 105.27 95.64 111.00 96.42 L 111.00 98.43 C 106.64 98.47 102.31 98.08 97.97 97.77 C 87.37 98.80 76.19 98.98 66.21 94.76 C 60.86 95.50 55.45 95.87 50.05 95.38 C 47.63 95.26 44.69 94.58 42.84 96.64 C 51.25 96.58 59.73 96.79 68.05 98.07 C 72.26 99.47 77.39 99.11 80.76 102.36 C 80.85 106.86 74.95 108.61 71.24 108.73 C 71.64 104.77 76.84 105.82 77.92 102.45 C 72.18 99.16 65.35 99.91 59.02 99.37 C 50.72 99.23 42.42 99.16 34.13 98.65 C 34.64 95.37 39.24 95.13 41.91 94.04 C 43.38 93.67 44.84 93.30 46.29 92.91 C 45.57 90.94 43.26 90.98 41.58 90.39 C 41.73 90.00 42.02 89.22 42.17 88.83 C 40.27 87.39 37.52 87.88 35.63 86.60 C 35.63 86.33 35.61 85.79 35.61 85.52 C 37.54 86.39 39.59 86.98 41.68 87.39 C 44.65 87.58 47.62 87.48 50.59 87.34 C 49.28 88.31 47.70 88.72 46.08 88.80 C 45.13 88.72 44.39 89.09 43.87 89.93 C 48.63 92.58 54.18 93.53 59.59 93.41 C 62.21 93.44 64.82 93.33 67.44 93.17 C 67.45 91.32 65.99 90.05 64.86 88.79 C 63.53 87.81 62.19 85.65 60.28 86.53 C 57.83 87.47 55.22 87.83 52.66 88.34 C 52.40 88.06 51.88 87.50 51.62 87.22 Z" />
<path fill="#4e6d5e" opacity="1.00" d=" M 85.96 83.97 C 87.27 83.99 87.98 84.71 88.08 86.12 C 86.62 86.10 85.91 85.39 85.96 83.97 Z" />
<path fill="#202857" opacity="1.00" d=" M 60.28 86.53 C 62.19 85.65 63.53 87.81 64.86 88.79 C 63.51 89.39 62.25 90.27 60.78 90.51 C 59.45 89.93 58.23 89.12 56.87 88.61 C 54.93 88.32 54.00 90.25 52.82 91.37 C 50.45 90.91 47.89 90.59 46.08 88.80 C 47.70 88.72 49.28 88.31 50.59 87.34 C 50.85 87.31 51.36 87.25 51.62 87.22 C 51.88 87.50 52.40 88.06 52.66 88.34 C 55.22 87.83 57.83 87.47 60.28 86.53 Z" />
<path fill="#517e9e" opacity="1.00" d=" M 97.27 86.10 C 100.97 86.48 104.54 87.60 108.10 88.63 C 105.73 88.68 103.37 89.08 101.16 89.94 C 103.72 91.96 107.44 89.58 110.42 89.58 L 111.00 89.84 L 111.00 90.98 C 109.86 89.97 108.41 90.83 107.24 91.25 C 104.42 91.66 101.60 92.02 98.80 92.55 C 102.68 94.00 106.77 96.21 111.00 95.50 L 111.00 96.42 C 105.27 95.64 99.20 95.52 93.87 93.12 C 96.01 90.34 100.06 91.42 102.19 88.84 C 99.92 87.76 97.44 87.48 94.96 87.51 C 95.47 88.68 95.99 89.85 96.51 91.02 C 95.12 91.11 93.73 91.22 92.35 91.36 C 90.67 89.78 88.90 88.29 86.96 87.03 L 88.28 86.89 C 91.34 87.32 94.46 87.75 97.27 86.10 Z" />
<path fill="#472663" opacity="1.00" d=" M -0.00 88.06 C 0.84 87.49 1.74 87.03 2.70 86.67 C 3.03 88.39 1.51 89.51 0.00 89.79 L 0.00 88.06 Z" />
<path fill="#2a4484" opacity="1.00" d=" M 84.03 86.87 C 84.76 86.91 86.23 86.99 86.96 87.03 C 88.90 88.29 90.67 89.78 92.35 91.36 C 87.58 92.41 82.71 92.11 77.88 92.52 C 83.18 93.04 89.62 91.58 93.48 96.30 C 88.27 96.16 83.14 95.14 77.94 94.92 C 74.98 94.91 72.25 93.79 69.68 92.45 C 69.56 91.90 69.33 90.80 69.21 90.26 C 68.54 89.86 67.20 89.06 66.53 88.66 C 71.32 88.32 75.99 90.49 80.79 89.57 C 81.87 88.67 82.90 87.71 84.03 86.87 M 71.23 91.18 C 71.79 92.14 72.77 92.55 74.15 92.39 C 74.70 92.66 77.79 92.09 76.07 91.34 C 74.50 91.18 72.74 90.49 71.23 91.18 Z" />
<path fill="#344f79" opacity="1.00" d=" M 4.06 91.13 C 7.64 90.02 11.21 88.82 14.93 88.26 C 16.64 88.22 18.36 88.27 20.08 88.25 C 18.45 88.55 16.82 88.78 15.18 89.01 C 15.86 89.97 16.69 90.96 16.21 92.23 C 11.89 92.45 7.49 92.30 3.28 93.48 C 3.48 92.89 3.87 91.72 4.06 91.13 Z" />
<path fill="#79949b" opacity="1.00" d=" M 43.87 89.93 C 44.39 89.09 45.13 88.72 46.08 88.80 C 47.89 90.59 50.45 90.91 52.82 91.37 C 55.12 91.89 57.77 91.64 59.59 93.41 C 54.18 93.53 48.63 92.58 43.87 89.93 Z" />
<path fill="#2a3d75" opacity="1.00" d=" M 52.82 91.37 C 54.00 90.25 54.93 88.32 56.87 88.61 C 58.23 89.12 59.45 89.93 60.78 90.51 C 62.25 90.27 63.51 89.39 64.86 88.79 C 65.99 90.05 67.45 91.32 67.44 93.17 C 64.82 93.33 62.21 93.44 59.59 93.41 C 57.77 91.64 55.12 91.89 52.82 91.37 Z" />
<path fill="#7ba67b" opacity="1.00" d=" M 101.16 89.94 C 103.37 89.08 105.73 88.68 108.10 88.63 C 108.68 88.87 109.84 89.34 110.42 89.58 C 107.44 89.58 103.72 91.96 101.16 89.94 Z" />
<path fill="#68918a" opacity="1.00" d=" M 0.00 92.18 C 1.35 91.82 2.71 91.50 4.06 91.13 C 3.87 91.72 3.48 92.89 3.28 93.48 C 2.18 93.75 1.09 94.06 -0.00 94.39 L 0.00 92.18 Z" />
<path fill="#000000" opacity="1.00" d=" M 33.72 91.70 C 35.74 91.51 37.86 90.99 39.85 91.68 C 35.45 93.58 30.60 95.80 28.42 100.37 C 33.64 101.05 38.73 99.06 43.94 99.78 C 54.05 100.17 64.93 98.23 74.26 103.19 L 74.98 103.97 C 73.17 105.14 71.17 106.37 71.15 108.82 C 68.87 108.79 66.60 108.59 64.34 108.35 C 65.55 106.21 68.68 106.18 70.68 104.92 L 69.95 104.05 C 64.11 102.65 58.05 101.08 52.01 101.69 C 45.47 103.30 38.73 104.65 31.97 104.17 C 29.53 103.98 26.44 102.86 26.30 99.97 C 26.75 98.29 28.19 97.16 29.18 95.81 C 24.45 95.75 19.70 95.86 14.97 95.48 C 12.55 95.04 10.37 96.41 8.38 97.59 C 7.78 98.89 9.54 99.19 10.24 99.90 C 10.79 101.69 10.57 103.55 10.32 105.38 C 6.88 105.71 3.45 106.07 0.00 106.28 L 0.00 100.63 C 1.94 100.91 3.88 101.22 5.84 101.40 C 5.24 103.11 5.83 103.61 7.61 102.89 L 8.64 102.39 C 8.69 101.90 8.79 100.94 8.85 100.46 C 6.54 99.80 4.20 99.32 1.83 98.92 C 4.61 95.68 9.47 95.89 12.37 92.91 C 7.88 92.82 4.00 95.59 0.00 97.30 L 0.00 94.39 C 1.09 94.06 2.18 93.75 3.28 93.48 C 7.49 92.30 11.89 92.45 16.21 92.23 C 22.05 92.07 27.92 92.57 33.72 91.70 Z" />
<path fill="#18233e" opacity="1.00" d=" M 71.23 91.18 C 72.74 90.49 74.50 91.18 76.07 91.34 C 77.79 92.09 74.70 92.66 74.15 92.39 C 72.77 92.55 71.79 92.14 71.23 91.18 Z" />
<path fill="#a0ce8f" opacity="1.00" d=" M 28.42 100.37 C 30.60 95.80 35.45 93.58 39.85 91.68 C 40.54 92.46 41.23 93.25 41.91 94.04 C 39.24 95.13 34.64 95.37 34.13 98.65 C 42.42 99.16 50.72 99.23 59.02 99.37 C 65.35 99.91 72.18 99.16 77.92 102.45 C 76.84 105.82 71.64 104.77 71.24 108.73 L 71.15 108.82 C 71.17 106.37 73.17 105.14 74.98 103.97 L 74.26 103.19 C 64.93 98.23 54.05 100.17 43.94 99.78 C 38.73 99.06 33.64 101.05 28.42 100.37 Z" />
<path fill="#000000" opacity="1.00" d=" M 98.80 92.55 C 101.60 92.02 104.42 91.66 107.24 91.25 C 107.67 91.33 108.52 91.47 108.95 91.54 C 109.40 92.65 110.09 93.57 111.00 94.31 L 111.00 95.50 C 106.77 96.21 102.68 94.00 98.80 92.55 Z" />
<path fill="#344f79" opacity="1.00" d=" M 0.00 97.30 C 4.00 95.59 7.88 92.82 12.37 92.91 C 9.47 95.89 4.61 95.68 1.83 98.92 C 4.20 99.32 6.54 99.80 8.85 100.46 C 8.79 100.94 8.69 101.90 8.64 102.39 L 7.61 102.89 C 7.63 102.51 7.68 101.74 7.70 101.36 C 7.23 101.37 6.30 101.39 5.84 101.40 C 3.88 101.22 1.94 100.91 0.00 100.63 L 0.00 97.30 Z" />
<path fill="#78a480" opacity="1.00" d=" M 5.84 101.40 C 6.30 101.39 7.23 101.37 7.70 101.36 C 7.68 101.74 7.63 102.51 7.61 102.89 C 5.83 103.61 5.24 103.11 5.84 101.40 Z" />
</svg>
