<?xml version="1.0" encoding="UTF-8" ?>
<!DOCTYPE svg PUBLIC "-//W3C//DTD SVG 1.1//EN" "http://www.w3.org/Graphics/SVG/1.1/DTD/svg11.dtd">
<svg width="111pt" height="111pt" viewBox="0 0 111 111" version="1.1" xmlns="http://www.w3.org/2000/svg">
<path fill="#000000" opacity="0.58" d=" M 28.99 0.00 L 30.00 0.00 C 29.96 5.09 30.16 10.20 29.70 15.27 C 28.12 10.35 29.32 5.06 28.99 0.00 Z" />
<path fill="#1e2d19" opacity="0.97" d=" M 30.00 0.00 L 30.94 0.00 C 30.65 4.50 31.77 8.85 32.27 13.27 C 32.23 14.59 32.27 15.91 32.53 17.21 C 33.22 21.72 34.07 26.22 35.28 30.62 C 30.63 28.93 32.19 34.90 33.75 37.11 C 34.69 39.16 33.15 38.66 31.76 38.29 C 32.10 39.26 32.74 39.96 33.69 40.38 C 33.81 40.74 34.05 41.47 34.17 41.83 L 33.29 41.58 C 30.06 39.68 27.63 42.52 25.81 44.84 L 25.05 45.41 C 24.06 44.71 23.14 43.93 22.19 43.19 C 22.60 46.76 18.51 45.61 16.77 47.66 C 16.33 47.70 15.44 47.78 15.00 47.82 C 14.76 46.97 14.52 46.14 14.27 45.30 C 14.60 42.14 16.37 37.78 13.07 35.55 C 12.78 35.22 12.22 34.57 11.93 34.25 C 16.34 33.89 12.95 28.47 10.99 26.76 C 8.77 28.09 7.31 30.40 7.03 32.98 C 6.91 33.67 6.65 35.07 6.53 35.77 C 6.16 37.47 5.92 39.20 5.91 40.95 C 5.93 43.00 6.46 44.99 6.88 46.98 C 7.09 48.57 7.32 50.17 7.68 51.73 C 7.49 52.31 7.10 53.48 6.91 54.06 C 6.01 51.06 5.45 47.96 4.89 44.88 C 4.99 42.27 5.03 39.65 5.04 37.03 C 6.07 33.56 2.42 33.35 0.00 32.69 L 0.00 31.03 C 1.83 31.78 3.67 32.57 5.63 32.90 C 7.19 28.45 8.83 23.45 12.98 20.78 C 13.90 21.60 14.40 22.76 15.08 23.77 C 14.53 24.60 14.44 25.38 14.82 26.12 C 15.54 29.32 15.66 32.61 16.19 35.84 C 19.39 37.78 22.73 39.48 26.16 40.94 C 25.59 39.61 24.83 38.37 24.18 37.08 C 25.54 36.30 27.11 35.91 28.39 34.99 C 28.98 34.07 29.45 33.08 29.96 32.11 C 30.93 30.70 32.21 29.49 32.95 27.94 C 32.07 23.67 30.73 19.51 29.70 15.27 C 30.16 10.20 29.96 5.09 30.00 0.00 Z" />
<path fill="#ccdb10" opacity="1.00" d=" M 30.94 0.00 L 33.02 0.00 C 32.62 4.38 33.83 9.04 32.27 13.27 C 31.77 8.85 30.65 4.50 30.94 0.00 Z" />
<path fill="#65ae16" opacity="1.00" d=" M 33.02 0.00 L 33.99 0.00 C 34.02 4.09 34.08 8.18 34.16 12.27 C 34.04 12.66 33.79 13.42 33.67 13.80 C 33.26 14.92 32.88 16.06 32.53 17.21 C 32.27 15.91 32.23 14.59 32.27 13.27 C 33.83 9.04 32.62 4.38 33.02 0.00 Z" />
<path fill="#021609" opacity="1.00" d=" M 33.99 0.00 L 34.97 0.00 C 36.53 2.41 32.48 10.32 37.24 10.07 C 36.29 10.91 35.27 11.66 34.16 12.27 C 34.08 8.18 34.02 4.09 33.99 0.00 Z" />
<path fill="#000000" opacity="0.39" d=" M 34.97 0.00 L 35.95 0.00 C 36.23 3.01 35.20 6.39 36.75 9.14 L 37.24 10.07 C 32.48 10.32 36.53 2.41 34.97 0.00 Z" />
<path fill="#35472f" opacity="0.93" d=" M 58.84 9.77 C 60.16 6.90 61.93 4.26 63.75 1.69 C 62.80 5.10 63.02 9.03 61.01 12.08 C 59.89 14.77 54.53 20.65 62.76 18.26 C 63.07 18.44 63.70 18.79 64.01 18.96 C 61.34 18.95 58.68 18.96 56.01 19.01 C 57.16 16.00 58.85 13.08 58.84 9.77 Z" />
<path fill="#060e0a" opacity="0.91" d=" M 36.75 9.14 C 38.70 7.79 43.16 3.49 39.46 11.57 C 38.34 15.82 36.52 20.89 39.06 24.95 C 43.08 21.77 47.71 19.44 52.80 18.64 C 55.13 15.91 56.99 12.83 58.84 9.77 C 58.85 13.08 57.16 16.00 56.01 19.01 C 54.38 19.79 52.74 20.56 51.05 21.21 C 49.24 21.12 47.53 21.83 45.92 22.60 C 42.77 23.61 40.12 25.73 38.95 28.90 C 37.83 26.95 37.02 24.85 36.09 22.81 C 33.87 18.39 38.27 14.05 37.24 10.07 L 36.75 9.14 Z" />
<path fill="#081109" opacity="0.91" d=" M 82.50 8.13 C 83.62 7.69 85.32 6.25 86.30 7.69 C 91.09 13.34 92.59 20.97 94.01 28.02 C 99.42 24.21 104.84 20.30 111.00 17.77 L 111.00 18.77 C 108.94 20.07 106.89 21.41 104.88 22.78 C 103.86 23.42 102.83 24.04 101.80 24.66 C 100.00 25.63 98.29 26.77 96.70 28.06 C 95.22 29.07 94.04 31.36 92.00 30.19 C 91.82 28.74 91.52 27.32 91.17 25.91 C 90.87 20.68 89.33 15.59 86.84 11.00 C 83.83 10.89 82.39 14.45 82.66 17.04 C 82.67 19.45 82.57 21.84 82.62 24.24 C 82.56 26.17 82.84 28.08 83.03 29.99 C 82.97 32.42 85.24 35.75 82.30 37.21 C 81.16 38.31 80.13 36.22 79.07 35.89 C 78.58 34.64 78.20 33.34 77.88 32.04 C 79.28 33.03 80.63 34.09 82.06 35.04 C 81.43 30.06 80.61 25.06 81.00 20.00 C 80.54 15.89 83.34 12.21 82.50 8.13 Z" />
<path fill="#2e9624" opacity="1.00" d=" M 37.24 10.07 C 38.27 14.05 33.87 18.39 36.09 22.81 C 36.01 23.40 35.84 24.59 35.76 25.18 C 35.40 21.33 34.70 17.53 33.67 13.80 C 33.79 13.42 34.04 12.66 34.16 12.27 C 35.27 11.66 36.29 10.91 37.24 10.07 Z" />
<path fill="#000000" opacity="0.49" d=" M 76.36 11.15 C 80.28 10.81 73.85 15.64 73.22 13.28 C 73.84 12.02 75.30 11.85 76.36 11.15 Z" />
<path fill="#6fa042" opacity="1.00" d=" M 82.66 17.04 C 82.39 14.45 83.83 10.89 86.84 11.00 C 89.33 15.59 90.87 20.68 91.17 25.91 C 90.39 25.90 88.83 25.88 88.05 25.88 C 88.79 24.10 88.65 19.82 85.94 21.82 C 85.25 19.93 84.80 17.78 82.66 17.04 Z" />
<path fill="#0d1310" opacity="0.95" d=" M 62.76 18.26 C 54.53 20.65 59.89 14.77 61.01 12.08 C 59.33 17.82 66.38 17.17 69.69 19.32 C 73.58 22.64 76.69 27.02 77.88 32.04 C 76.89 31.77 75.90 31.49 74.92 31.20 C 74.97 29.18 75.13 26.93 73.16 25.75 C 71.72 22.42 68.23 21.07 65.03 19.94 C 64.77 19.70 64.26 19.21 64.01 18.96 C 63.70 18.79 63.07 18.44 62.76 18.26 Z" />
<path fill="#add71f" opacity="1.00" d=" M 32.53 17.21 C 32.88 16.06 33.26 14.92 33.67 13.80 C 34.70 17.53 35.40 21.33 35.76 25.18 C 35.97 27.48 36.40 29.75 36.94 31.99 C 36.97 32.47 37.03 33.44 37.06 33.93 L 36.23 33.97 C 35.95 32.84 35.63 31.73 35.28 30.62 C 34.07 26.22 33.22 21.72 32.53 17.21 Z" />
<path fill="#177740" opacity="1.00" d=" M 82.66 17.04 C 84.80 17.78 85.25 19.93 85.94 21.82 C 85.14 22.48 84.35 23.15 83.57 23.82 L 82.62 24.24 C 82.57 21.84 82.67 19.45 82.66 17.04 Z" />
<path fill="#c3e9af" opacity="1.00" d=" M 51.05 21.21 C 52.74 20.56 54.38 19.79 56.01 19.01 C 58.68 18.96 61.34 18.95 64.01 18.96 C 64.26 19.21 64.77 19.70 65.03 19.94 C 65.69 20.93 66.37 21.91 67.00 22.91 C 64.97 22.16 62.97 22.37 61.11 23.45 C 58.12 23.03 56.68 26.20 54.86 27.95 C 49.92 28.81 45.06 33.42 40.01 32.17 C 39.88 31.00 39.53 29.91 38.95 28.90 C 40.12 25.73 42.77 23.61 45.92 22.60 C 47.90 24.56 50.10 23.56 51.05 21.21 Z" />
<path fill="#7b843e" opacity="1.00" d=" M 104.88 22.78 C 106.89 21.41 108.94 20.07 111.00 18.77 L 111.00 20.76 C 110.05 22.65 108.15 23.58 106.12 23.89 C 105.81 23.62 105.19 23.06 104.88 22.78 Z" />
<path fill="#dcf7b7" opacity="1.00" d=" M 65.03 19.94 C 68.23 21.07 71.72 22.42 73.16 25.75 C 73.05 27.79 72.76 30.13 74.92 31.20 C 75.75 34.17 76.40 37.18 77.25 40.14 C 74.10 40.76 76.01 43.26 76.88 45.12 C 77.66 47.11 79.26 53.60 76.72 49.71 C 75.77 48.26 74.79 47.24 75.07 49.85 C 73.22 48.63 72.62 50.59 71.75 51.88 C 70.63 51.89 69.89 51.32 69.53 50.17 C 68.30 51.05 67.22 52.13 66.27 53.31 C 64.83 56.06 66.39 59.28 65.12 62.15 C 64.37 63.42 63.65 64.70 62.93 65.99 C 61.25 65.90 59.58 65.68 57.98 65.18 C 57.03 62.21 59.84 62.45 60.80 61.06 C 61.19 59.35 60.68 57.25 61.84 55.81 C 65.27 52.36 65.39 47.14 66.64 42.67 C 67.73 39.20 65.11 36.18 63.87 33.14 C 64.75 31.47 65.73 29.81 66.10 27.94 C 63.73 27.96 61.66 29.16 59.51 29.98 C 59.14 29.82 58.40 29.50 58.03 29.34 L 57.04 28.90 C 57.22 26.44 59.59 25.10 61.11 23.45 C 62.97 22.37 64.97 22.16 67.00 22.91 C 66.37 21.91 65.69 20.93 65.03 19.94 Z" />
<path fill="#59ac96" opacity="1.00" d=" M 45.92 22.60 C 47.53 21.83 49.24 21.12 51.05 21.21 C 50.10 23.56 47.90 24.56 45.92 22.60 Z" />
<path fill="#e8f3b4" opacity="1.00" d=" M 85.94 21.82 C 88.65 19.82 88.79 24.10 88.05 25.88 C 87.23 26.58 86.45 27.32 85.69 28.08 C 85.04 26.63 84.37 25.19 83.57 23.82 C 84.35 23.15 85.14 22.48 85.94 21.82 Z" />
<path fill="#293a24" opacity="1.00" d=" M 106.12 23.89 C 108.15 23.58 110.05 22.65 111.00 20.76 L 111.00 47.24 C 108.78 46.58 106.19 46.48 104.39 44.92 C 104.55 43.56 104.80 42.22 104.91 40.86 C 105.14 35.53 105.03 30.20 104.90 24.87 C 105.20 24.63 105.82 24.14 106.12 23.89 Z" />
<path fill="#1d732c" opacity="1.00" d=" M 36.09 22.81 C 37.02 24.85 37.83 26.95 38.95 28.90 C 39.53 29.91 39.88 31.00 40.01 32.17 L 39.88 33.15 C 38.89 32.78 37.91 32.39 36.94 31.99 C 36.40 29.75 35.97 27.48 35.76 25.18 C 35.84 24.59 36.01 23.40 36.09 22.81 Z" />
<path fill="#738662" opacity="1.00" d=" M 54.86 27.95 C 56.68 26.20 58.12 23.03 61.11 23.45 C 59.59 25.10 57.22 26.44 57.04 28.90 C 56.50 28.67 55.41 28.19 54.86 27.95 Z" />
<path fill="#cdd67e" opacity="1.00" d=" M 101.80 24.66 C 102.83 24.04 103.86 23.42 104.88 22.78 C 105.19 23.06 105.81 23.62 106.12 23.89 C 105.82 24.14 105.20 24.63 104.90 24.87 C 103.01 29.35 104.45 35.33 103.32 40.27 C 103.21 39.39 102.98 37.63 102.86 36.74 C 102.95 34.91 103.00 33.08 102.98 31.25 C 103.07 28.99 103.06 26.64 101.80 24.66 Z" />
<path fill="#000000" opacity="0.56" d=" M 15.08 23.77 C 16.99 24.89 18.81 26.20 20.12 28.03 C 18.36 27.38 16.64 26.60 14.82 26.12 C 14.44 25.38 14.53 24.60 15.08 23.77 Z" />
<path fill="#5eab78" opacity="1.00" d=" M 82.62 24.24 L 83.57 23.82 C 84.37 25.19 85.04 26.63 85.69 28.08 L 85.98 28.87 C 84.99 29.22 84.01 29.60 83.03 29.99 C 82.84 28.08 82.56 26.17 82.62 24.24 Z" />
<path fill="#334b24" opacity="1.00" d=" M 96.70 28.06 C 98.29 26.77 100.00 25.63 101.80 24.66 C 103.06 26.64 103.07 28.99 102.98 31.25 C 100.75 30.28 99.39 27.89 96.70 28.06 Z" />
<path fill="#b7c1a5" opacity="1.00" d=" M 103.32 40.27 C 104.45 35.33 103.01 29.35 104.90 24.87 C 105.03 30.20 105.14 35.53 104.91 40.86 C 104.49 41.20 103.64 41.88 103.22 42.22 C 103.24 41.74 103.30 40.76 103.32 40.27 Z" />
<path fill="#000000" opacity="0.06" d=" M 14.82 26.12 C 16.64 26.60 18.36 27.38 20.12 28.03 C 20.70 30.15 22.92 30.90 24.90 31.01 C 26.12 32.29 27.49 33.45 28.39 34.99 C 27.11 35.91 25.54 36.30 24.18 37.08 C 24.83 38.37 25.59 39.61 26.16 40.94 C 22.73 39.48 19.39 37.78 16.19 35.84 C 15.66 32.61 15.54 29.32 14.82 26.12 Z" />
<path fill="#57b095" opacity="1.00" d=" M 73.16 25.75 C 75.13 26.93 74.97 29.18 74.92 31.20 C 72.76 30.13 73.05 27.79 73.16 25.75 Z" />
<path fill="#81b029" opacity="1.00" d=" M 85.69 28.08 C 86.45 27.32 87.23 26.58 88.05 25.88 C 88.83 25.88 90.39 25.90 91.17 25.91 C 91.52 27.32 91.82 28.74 92.00 30.19 L 92.01 31.14 C 91.33 30.20 90.75 28.35 89.69 30.08 C 89.39 29.11 89.08 28.13 88.78 27.16 C 87.82 27.69 86.91 28.30 85.98 28.87 L 85.69 28.08 Z" />
<path fill="#8fb082" opacity="1.00" d=" M 7.03 32.98 C 7.31 30.40 8.77 28.09 10.99 26.76 C 12.95 28.47 16.34 33.89 11.93 34.25 C 10.66 32.57 8.97 32.05 7.03 32.98 Z" />
<path fill="#b9f104" opacity="1.00" d=" M 85.98 28.87 C 86.91 28.30 87.82 27.69 88.78 27.16 C 89.08 28.13 89.39 29.11 89.69 30.08 L 89.75 30.91 C 88.95 31.61 88.15 32.31 87.29 32.94 C 86.86 31.58 86.44 30.21 85.98 28.87 Z" />
<path fill="#000000" opacity="0.58" d=" M 20.12 28.03 C 22.12 28.11 24.34 28.86 24.90 31.01 C 22.92 30.90 20.70 30.15 20.12 28.03 Z" />
<path fill="#2b4b21" opacity="1.00" d=" M 40.01 32.17 C 45.06 33.42 49.92 28.81 54.86 27.95 C 55.41 28.19 56.50 28.67 57.04 28.90 L 58.03 29.34 C 56.63 29.81 55.22 30.23 53.83 30.73 C 52.19 30.99 50.49 30.99 48.93 31.61 C 46.31 32.66 43.69 33.76 40.90 34.28 C 40.64 34.00 40.13 33.44 39.88 33.15 L 40.01 32.17 Z" />
<path fill="#768b5b" opacity="1.00" d=" M 59.51 29.98 C 61.66 29.16 63.73 27.96 66.10 27.94 C 65.73 29.81 64.75 31.47 63.87 33.14 C 63.39 33.20 62.43 33.31 61.95 33.37 C 60.83 33.43 59.75 33.73 58.71 34.14 C 58.98 32.76 59.34 31.38 59.51 29.98 Z" />
<path fill="#152b1b" opacity="1.00" d=" M 92.00 30.19 C 94.04 31.36 95.22 29.07 96.70 28.06 C 99.39 27.89 100.75 30.28 102.98 31.25 C 103.00 33.08 102.95 34.91 102.86 36.74 C 99.70 40.24 100.63 45.80 97.22 49.35 C 92.46 53.30 86.62 55.69 81.87 59.67 C 81.16 59.67 80.44 59.70 79.73 59.75 L 78.93 59.80 L 78.84 58.85 C 80.58 55.86 83.72 53.86 84.45 50.28 C 87.05 47.32 84.67 43.07 81.47 41.68 L 81.36 41.00 C 82.81 40.28 83.72 38.89 84.85 37.79 C 85.79 38.67 86.73 39.56 87.74 40.37 C 87.20 42.01 88.48 44.32 89.91 44.80 C 90.65 42.93 91.44 41.05 91.95 39.10 C 92.03 36.45 92.05 33.79 92.01 31.14 L 92.00 30.19 Z" />
<path fill="#30891e" opacity="1.00" d=" M 58.03 29.34 C 58.40 29.50 59.14 29.82 59.51 29.98 C 59.34 31.38 58.98 32.76 58.71 34.14 C 57.35 34.96 55.95 35.74 54.80 36.84 C 56.46 36.93 61.37 34.55 59.12 37.69 C 58.89 37.94 58.43 38.44 58.20 38.69 C 56.85 39.49 55.47 40.25 54.11 41.04 C 54.06 38.95 53.89 36.85 53.07 34.90 C 53.32 33.51 53.60 32.12 53.83 30.73 C 55.22 30.23 56.63 29.81 58.03 29.34 Z" />
<path fill="#43823d" opacity="1.00" d=" M 83.03 29.99 C 84.01 29.60 84.99 29.22 85.98 28.87 C 86.44 30.21 86.86 31.58 87.29 32.94 C 88.15 32.31 88.95 31.61 89.75 30.91 C 89.78 31.38 89.83 32.32 89.86 32.79 C 88.76 33.81 87.67 34.83 86.63 35.91 C 86.02 36.52 85.42 37.15 84.85 37.79 C 83.72 38.89 82.81 40.28 81.36 41.00 C 80.29 40.52 79.20 40.09 78.09 39.71 C 78.41 38.44 78.77 37.17 79.07 35.89 C 80.13 36.22 81.16 38.31 82.30 37.21 C 85.24 35.75 82.97 32.42 83.03 29.99 Z" />
<path fill="#4c5041" opacity="1.00" d=" M 89.69 30.08 C 90.75 28.35 91.33 30.20 92.01 31.14 C 92.05 33.79 92.03 36.45 91.95 39.10 C 91.47 38.79 90.50 38.16 90.01 37.85 C 89.99 36.16 89.95 34.48 89.86 32.79 C 89.83 32.32 89.78 31.38 89.75 30.91 L 89.69 30.08 Z" />
<path fill="#709b69" opacity="1.00" d=" M 33.75 37.11 C 32.19 34.90 30.63 28.93 35.28 30.62 C 35.63 31.73 35.95 32.84 36.23 33.97 C 35.41 35.02 34.56 36.05 33.75 37.11 Z" />
<path fill="#000000" opacity="0.54" d=" M 24.90 31.01 C 26.58 31.43 28.26 31.83 29.96 32.11 C 29.45 33.08 28.98 34.07 28.39 34.99 C 27.49 33.45 26.12 32.29 24.90 31.01 Z" />
<path fill="#74c605" opacity="1.00" d=" M 48.93 31.61 C 50.49 30.99 52.19 30.99 53.83 30.73 C 53.60 32.12 53.32 33.51 53.07 34.90 C 52.65 34.90 51.80 34.91 51.38 34.91 C 51.01 34.35 50.26 33.23 49.88 32.67 C 49.64 32.40 49.16 31.87 48.93 31.61 Z" />
<path fill="#5fa898" opacity="1.00" d=" M 74.92 31.20 C 75.90 31.49 76.89 31.77 77.88 32.04 C 78.20 33.34 78.58 34.64 79.07 35.89 C 78.77 37.17 78.41 38.44 78.09 39.71 L 77.25 40.14 C 76.40 37.18 75.75 34.17 74.92 31.20 Z" />
<path fill="#a3d405" opacity="1.00" d=" M 7.03 32.98 C 8.97 32.05 10.66 32.57 11.93 34.25 C 12.22 34.57 12.78 35.22 13.07 35.55 C 12.67 38.48 12.86 42.60 9.78 39.87 C 9.22 38.19 9.26 36.24 8.19 34.78 C 7.58 35.86 8.94 39.46 7.08 38.85 C 6.94 38.08 6.66 36.54 6.53 35.77 C 6.65 35.07 6.91 33.67 7.03 32.98 Z" />
<path fill="#57ba2f" opacity="1.00" d=" M 36.94 31.99 C 37.91 32.39 38.89 32.78 39.88 33.15 C 40.13 33.44 40.64 34.00 40.90 34.28 L 41.26 34.84 C 40.30 35.32 39.34 35.81 38.37 36.29 C 38.05 35.70 37.39 34.52 37.06 33.93 C 37.03 33.44 36.97 32.47 36.94 31.99 Z" />
<path fill="#9eda02" opacity="1.00" d=" M 40.90 34.28 C 43.69 33.76 46.31 32.66 48.93 31.61 C 49.16 31.87 49.64 32.40 49.88 32.67 C 47.74 34.58 46.52 37.28 47.01 40.17 C 48.99 38.91 50.15 36.84 51.38 34.91 C 51.80 34.91 52.65 34.90 53.07 34.90 C 53.89 36.85 54.06 38.95 54.11 41.04 C 52.33 44.79 47.09 49.08 49.99 53.43 C 49.33 54.95 48.53 56.39 47.70 57.81 C 45.27 57.31 41.34 57.01 40.88 54.07 C 40.75 52.37 41.51 50.30 40.27 48.88 C 39.89 48.42 39.13 47.51 38.75 47.06 C 39.04 46.79 39.61 46.26 39.89 45.99 C 41.91 47.42 44.47 44.58 47.01 45.87 C 47.44 43.83 46.32 42.79 44.41 42.50 C 44.48 39.51 42.79 37.16 41.26 34.84 L 40.90 34.28 Z" />
<path fill="#b9c58c" opacity="1.00" d=" M 0.00 32.69 C 2.42 33.35 6.07 33.56 5.04 37.03 C 2.01 39.54 2.59 34.08 0.00 33.55 L 0.00 32.69 Z" />
<path fill="#708534" opacity="1.00" d=" M 47.01 40.17 C 46.52 37.28 47.74 34.58 49.88 32.67 C 50.26 33.23 51.01 34.35 51.38 34.91 C 50.15 36.84 48.99 38.91 47.01 40.17 Z" />
<path fill="#1e3e31" opacity="1.00" d=" M 58.71 34.14 C 59.75 33.73 60.83 33.43 61.95 33.37 C 60.45 35.04 61.08 37.20 62.13 38.90 C 62.22 42.14 62.55 45.68 60.16 48.17 C 59.97 44.68 62.76 39.98 59.12 37.69 C 61.37 34.55 56.46 36.93 54.80 36.84 C 55.95 35.74 57.35 34.96 58.71 34.14 Z" />
<path fill="#8ed6a8" opacity="1.00" d=" M 61.95 33.37 C 62.43 33.31 63.39 33.20 63.87 33.14 C 65.11 36.18 67.73 39.20 66.64 42.67 C 65.39 47.14 65.27 52.36 61.84 55.81 C 60.68 57.25 61.19 59.35 60.80 61.06 L 60.11 60.76 C 59.76 58.25 59.48 55.74 59.07 53.25 C 61.26 48.66 65.77 43.91 62.13 38.90 C 61.08 37.20 60.45 35.04 61.95 33.37 Z" />
<path fill="#c7edaf" opacity="1.00" d=" M 86.63 35.91 C 87.67 34.83 88.76 33.81 89.86 32.79 C 89.95 34.48 89.99 36.16 90.01 37.85 L 89.23 38.36 C 88.34 37.56 87.47 36.75 86.63 35.91 Z" />
<path fill="#678058" opacity="1.00" d=" M 0.00 33.55 C 2.59 34.08 2.01 39.54 5.04 37.03 C 5.03 39.65 4.99 42.27 4.89 44.88 C 3.24 45.21 1.62 45.65 0.00 46.10 L 0.00 33.55 Z" />
<path fill="#e3f460" opacity="1.00" d=" M 36.23 33.97 L 37.06 33.93 C 37.39 34.52 38.05 35.70 38.37 36.29 C 37.84 37.23 37.07 37.89 36.06 38.28 C 35.48 37.99 34.33 37.40 33.75 37.11 C 34.56 36.05 35.41 35.02 36.23 33.97 Z" />
<path fill="#4d6c0f" opacity="1.00" d=" M 8.19 34.78 C 9.26 36.24 9.22 38.19 9.78 39.87 C 8.47 40.17 7.18 40.52 5.91 40.95 C 5.92 39.20 6.16 37.47 6.53 35.77 C 6.66 36.54 6.94 38.08 7.08 38.85 C 8.94 39.46 7.58 35.86 8.19 34.78 Z" />
<path fill="#cdd221" opacity="1.00" d=" M 38.37 36.29 C 39.34 35.81 40.30 35.32 41.26 34.84 C 42.79 37.16 44.48 39.51 44.41 42.50 C 46.32 42.79 47.44 43.83 47.01 45.87 C 44.47 44.58 41.91 47.42 39.89 45.99 C 38.14 44.40 36.18 43.07 34.17 41.83 C 34.05 41.47 33.81 40.74 33.69 40.38 C 35.13 40.65 36.58 40.90 38.05 41.04 C 37.43 40.09 36.74 39.18 36.06 38.28 C 37.07 37.89 37.84 37.23 38.37 36.29 Z" />
<path fill="#2b813e" opacity="1.00" d=" M 9.78 39.87 C 12.86 42.60 12.67 38.48 13.07 35.55 C 16.37 37.78 14.60 42.14 14.27 45.30 C 13.76 44.96 12.76 44.27 12.26 43.93 C 11.37 42.89 10.49 41.85 9.66 40.77 L 9.78 39.87 Z" />
<path fill="#3c9071" opacity="1.00" d=" M 84.85 37.79 C 85.42 37.15 86.02 36.52 86.63 35.91 C 87.47 36.75 88.34 37.56 89.23 38.36 C 88.85 38.86 88.11 39.87 87.74 40.37 C 86.73 39.56 85.79 38.67 84.85 37.79 Z" />
<path fill="#5f6d2d" opacity="1.00" d=" M 33.75 37.11 C 34.33 37.40 35.48 37.99 36.06 38.28 C 36.74 39.18 37.43 40.09 38.05 41.04 C 36.58 40.90 35.13 40.65 33.69 40.38 C 32.74 39.96 32.10 39.26 31.76 38.29 C 33.15 38.66 34.69 39.16 33.75 37.11 Z" />
<path fill="#365324" opacity="1.00" d=" M 97.22 49.35 C 100.63 45.80 99.70 40.24 102.86 36.74 C 102.98 37.63 103.21 39.39 103.32 40.27 C 103.30 40.76 103.24 41.74 103.22 42.22 C 102.30 45.35 100.22 48.00 97.22 49.35 Z" />
<path fill="#7e0c67" opacity="1.00" d=" M 58.20 38.69 C 58.43 38.44 58.89 37.94 59.12 37.69 C 62.76 39.98 59.97 44.68 60.16 48.17 C 59.31 49.38 58.08 50.23 56.90 51.08 C 55.39 52.13 53.72 52.69 51.92 51.97 C 55.76 48.91 59.79 43.82 58.20 38.69 Z" />
<path fill="#6eab2b" opacity="1.00" d=" M 89.23 38.36 L 90.01 37.85 C 90.50 38.16 91.47 38.79 91.95 39.10 C 91.44 41.05 90.65 42.93 89.91 44.80 C 88.48 44.32 87.20 42.01 87.74 40.37 C 88.11 39.87 88.85 38.86 89.23 38.36 Z" />
<path fill="#e02079" opacity="1.00" d=" M 54.11 41.04 C 55.47 40.25 56.85 39.49 58.20 38.69 C 59.79 43.82 55.76 48.91 51.92 51.97 C 51.44 52.34 50.47 53.07 49.99 53.43 C 47.09 49.08 52.33 44.79 54.11 41.04 Z" />
<path fill="#4bb09f" opacity="1.00" d=" M 62.13 38.90 C 65.77 43.91 61.26 48.66 59.07 53.25 L 58.18 52.75 C 57.86 52.34 57.22 51.50 56.90 51.08 C 58.08 50.23 59.31 49.38 60.16 48.17 C 62.55 45.68 62.22 42.14 62.13 38.90 Z" />
<path fill="#abab81" opacity="1.00" d=" M 5.91 40.95 C 7.18 40.52 8.47 40.17 9.78 39.87 L 9.66 40.77 C 9.45 42.34 9.03 45.50 8.82 47.07 C 8.33 47.05 7.37 47.00 6.88 46.98 C 6.46 44.99 5.93 43.00 5.91 40.95 Z" />
<path fill="#9ad7a4" opacity="1.00" d=" M 77.25 40.14 L 78.09 39.71 C 77.79 41.54 77.33 43.33 76.88 45.12 C 76.01 43.26 74.10 40.76 77.25 40.14 Z" />
<path fill="#2b8a8b" opacity="1.00" d=" M 78.09 39.71 C 79.20 40.09 80.29 40.52 81.36 41.00 L 81.47 41.68 C 81.74 43.44 81.98 45.21 82.07 47.00 C 81.06 46.37 80.09 45.69 79.09 45.05 C 80.60 49.72 79.13 54.42 76.13 58.14 C 76.08 57.33 75.97 55.72 75.92 54.92 C 76.01 53.16 76.16 51.39 76.72 49.71 C 79.26 53.60 77.66 47.11 76.88 45.12 C 77.33 43.33 77.79 41.54 78.09 39.71 Z" />
<path fill="#d8f1b5" opacity="1.00" d=" M 8.82 47.07 C 9.03 45.50 9.45 42.34 9.66 40.77 C 10.49 41.85 11.37 42.89 12.26 43.93 C 12.14 45.70 11.56 47.31 10.02 48.30 C 9.72 48.00 9.12 47.38 8.82 47.07 Z" />
<path fill="#cef2b3" opacity="1.00" d=" M 25.81 44.84 C 27.63 42.52 30.06 39.68 33.29 41.58 L 32.84 42.60 C 30.26 46.92 31.66 52.14 32.12 56.81 C 32.99 57.34 33.89 57.81 34.83 58.23 C 35.03 59.59 35.21 60.96 35.35 62.33 C 35.34 64.31 37.79 61.43 38.73 61.03 C 43.85 66.33 52.53 63.13 58.14 59.90 C 58.63 60.12 59.61 60.55 60.11 60.76 L 60.80 61.06 C 59.84 62.45 57.03 62.21 57.98 65.18 C 55.15 68.15 52.69 72.36 48.18 72.70 C 46.74 71.95 45.48 70.92 44.23 69.89 C 42.31 68.73 38.52 64.57 37.22 67.95 C 36.28 66.23 34.43 66.70 32.85 66.27 C 32.96 64.56 32.88 62.83 31.25 61.87 C 34.97 59.80 29.25 57.06 30.96 53.89 C 31.15 52.02 29.10 53.81 28.25 53.83 C 28.33 51.53 25.16 53.48 25.72 50.80 C 25.91 48.82 25.89 46.83 25.81 44.84 Z" />
<path fill="#dde6ab" opacity="1.00" d=" M 103.22 42.22 C 103.64 41.88 104.49 41.20 104.91 40.86 C 104.80 42.22 104.55 43.56 104.39 44.92 C 106.19 46.48 108.78 46.58 111.00 47.24 L 111.00 49.05 C 108.47 48.70 105.91 48.28 103.35 48.35 C 96.19 51.64 90.11 56.90 82.81 59.98 L 81.87 59.67 C 86.62 55.69 92.46 53.30 97.22 49.35 C 100.22 48.00 102.30 45.35 103.22 42.22 Z" />
<path fill="#837d68" opacity="1.00" d=" M 33.29 41.58 L 34.17 41.83 C 36.18 43.07 38.14 44.40 39.89 45.99 C 39.61 46.26 39.04 46.79 38.75 47.06 C 37.20 46.35 35.73 45.47 34.13 44.89 C 33.97 46.31 33.84 47.74 33.75 49.17 C 33.53 47.53 33.07 44.24 32.84 42.60 L 33.29 41.58 Z" />
<path fill="#315d6b" opacity="1.00" d=" M 81.47 41.68 C 84.67 43.07 87.05 47.32 84.45 50.28 C 83.72 53.86 80.58 55.86 78.84 58.85 C 77.24 59.58 75.67 60.37 74.02 60.98 C 74.73 60.04 75.46 59.11 76.13 58.14 C 79.13 54.42 80.60 49.72 79.09 45.05 C 80.09 45.69 81.06 46.37 82.07 47.00 C 81.98 45.21 81.74 43.44 81.47 41.68 Z" />
<path fill="#0f251a" opacity="1.00" d=" M 22.19 43.19 C 23.14 43.93 24.06 44.71 25.05 45.41 C 24.04 48.00 23.63 50.95 22.00 53.24 C 21.77 52.96 21.30 52.39 21.07 52.11 C 20.70 49.84 18.33 49.01 16.77 47.66 C 18.51 45.61 22.60 46.76 22.19 43.19 Z" />
<path fill="#96dca9" opacity="1.00" d=" M 32.12 56.81 C 31.66 52.14 30.26 46.92 32.84 42.60 C 33.07 44.24 33.53 47.53 33.75 49.17 L 33.85 49.97 C 33.14 52.80 34.44 55.47 34.83 58.23 C 33.89 57.81 32.99 57.34 32.12 56.81 Z" />
<path fill="#6d9483" opacity="1.00" d=" M 12.26 43.93 C 12.76 44.27 13.76 44.96 14.27 45.30 C 14.52 46.14 14.76 46.97 15.00 47.82 C 14.34 48.80 13.72 49.81 13.05 50.79 C 12.22 50.07 11.34 49.40 10.44 48.76 L 10.02 48.30 C 11.56 47.31 12.14 45.70 12.26 43.93 Z" />
<path fill="#52643c" opacity="1.00" d=" M 0.00 46.10 C 1.62 45.65 3.24 45.21 4.89 44.88 C 5.45 47.96 6.01 51.06 6.91 54.06 C 7.29 55.05 7.67 56.04 8.04 57.04 C 6.35 55.83 4.73 54.52 3.05 53.31 C 4.67 51.39 1.38 49.88 0.00 49.07 L 0.00 46.10 Z" />
<path fill="#267c79" opacity="1.00" d=" M 25.05 45.41 L 25.81 44.84 C 25.89 46.83 25.91 48.82 25.72 50.80 C 25.45 51.32 24.89 52.37 24.62 52.89 C 24.15 54.01 22.90 57.42 25.20 56.48 C 26.76 56.38 25.49 59.42 26.89 60.08 C 27.94 61.07 29.08 61.97 30.08 63.03 C 29.98 64.71 31.18 66.10 32.85 66.27 C 34.43 66.70 36.28 66.23 37.22 67.95 C 37.42 68.43 37.82 69.38 38.02 69.86 C 38.19 70.46 38.53 71.66 38.70 72.27 C 36.80 71.90 34.91 71.48 33.02 71.07 C 32.33 68.69 30.39 67.44 28.16 66.65 C 27.94 66.17 27.51 65.19 27.29 64.70 C 25.02 61.56 24.35 56.64 20.92 54.72 L 21.11 54.21 C 21.33 53.97 21.78 53.48 22.00 53.24 C 23.63 50.95 24.04 48.00 25.05 45.41 Z" />
<path fill="#d51779" opacity="1.00" d=" M 34.13 44.89 C 35.73 45.47 37.20 46.35 38.75 47.06 C 39.13 47.51 39.89 48.42 40.27 48.88 C 40.46 51.13 39.30 52.91 37.00 53.26 C 35.84 52.28 34.87 51.10 33.85 49.97 L 33.75 49.17 C 33.84 47.74 33.97 46.31 34.13 44.89 Z" />
<path fill="#79ab0a" opacity="1.00" d=" M 6.88 46.98 C 7.37 47.00 8.33 47.05 8.82 47.07 C 9.12 47.38 9.72 48.00 10.02 48.30 L 10.44 48.76 C 10.65 50.61 12.10 54.00 8.81 52.74 C 8.53 52.49 7.96 51.99 7.68 51.73 C 7.32 50.17 7.09 48.57 6.88 46.98 Z" />
<path fill="#241918" opacity="1.00" d=" M 13.05 50.79 C 13.72 49.81 14.34 48.80 15.00 47.82 C 15.01 48.32 15.04 49.33 15.06 49.83 C 15.06 50.33 15.07 51.32 15.07 51.82 C 14.01 54.12 13.70 57.19 11.20 58.46 C 12.24 56.01 12.78 53.42 13.05 50.79 Z" />
<path fill="#3c5c28" opacity="1.00" d=" M 15.00 47.82 C 15.44 47.78 16.33 47.70 16.77 47.66 C 18.33 49.01 20.70 49.84 21.07 52.11 C 19.04 51.43 17.06 50.60 15.06 49.83 C 15.04 49.33 15.01 48.32 15.00 47.82 Z" />
<path fill="#77caa8" opacity="1.00" d=" M 75.07 49.85 C 74.79 47.24 75.77 48.26 76.72 49.71 C 76.16 51.39 76.01 53.16 75.92 54.92 C 75.11 55.90 74.20 56.78 72.91 57.06 C 73.97 54.76 75.28 52.49 75.07 49.85 Z" />
<path fill="#233621" opacity="1.00" d=" M 103.35 48.35 C 105.91 48.28 108.47 48.70 111.00 49.05 L 111.00 52.86 C 110.10 53.50 109.20 54.14 108.27 54.74 C 105.95 53.42 104.01 56.26 102.06 57.19 C 102.27 57.45 102.67 57.98 102.88 58.24 C 103.09 58.49 103.51 58.99 103.72 59.24 L 104.22 59.84 C 102.39 59.94 100.57 60.09 98.75 60.28 C 93.78 61.40 88.40 61.03 83.66 62.98 C 82.40 62.30 82.17 61.22 82.81 59.98 C 90.11 56.90 96.19 51.64 103.35 48.35 Z" />
<path fill="#91994e" opacity="1.00" d=" M 0.00 49.07 C 1.38 49.88 4.67 51.39 3.05 53.31 C 1.92 52.55 0.91 51.64 0.00 50.64 L 0.00 49.07 Z" />
<path fill="#4a6f55" opacity="1.00" d=" M 10.44 48.76 C 11.34 49.40 12.22 50.07 13.05 50.79 C 12.78 53.42 12.24 56.01 11.20 58.46 L 10.63 59.15 C 10.18 59.18 9.27 59.24 8.81 59.27 C 8.85 57.09 8.63 54.91 8.81 52.74 C 12.10 54.00 10.65 50.61 10.44 48.76 Z" />
<path fill="#591544" opacity="1.00" d=" M 40.27 48.88 C 41.51 50.30 40.75 52.37 40.88 54.07 C 40.15 54.07 38.68 54.07 37.95 54.07 C 37.71 53.87 37.24 53.46 37.00 53.26 C 39.30 52.91 40.46 51.13 40.27 48.88 Z" />
<path fill="#eafbcb" opacity="1.00" d=" M 71.75 51.88 C 72.62 50.59 73.22 48.63 75.07 49.85 C 75.28 52.49 73.97 54.76 72.91 57.06 C 70.46 58.98 67.79 60.57 65.12 62.15 C 66.39 59.28 64.83 56.06 66.27 53.31 C 67.22 52.13 68.30 51.05 69.53 50.17 C 69.89 51.32 70.63 51.89 71.75 51.88 Z" />
<path fill="#c1d1a5" opacity="1.00" d=" M 15.06 49.83 C 17.06 50.60 19.04 51.43 21.07 52.11 C 21.30 52.39 21.77 52.96 22.00 53.24 C 21.78 53.48 21.33 53.97 21.11 54.21 C 19.07 53.49 17.09 52.60 15.07 51.82 C 15.07 51.32 15.06 50.33 15.06 49.83 Z" />
<path fill="#5eb093" opacity="1.00" d=" M 33.85 49.97 C 34.87 51.10 35.84 52.28 37.00 53.26 C 37.24 53.46 37.71 53.87 37.95 54.07 L 38.16 54.67 C 34.44 54.98 36.38 59.75 35.35 62.33 C 35.21 60.96 35.03 59.59 34.83 58.23 C 34.44 55.47 33.14 52.80 33.85 49.97 Z" />
<path fill="#070804" opacity="0.93" d=" M 0.00 50.64 C 0.91 51.64 1.92 52.55 3.05 53.31 C 4.73 54.52 6.35 55.83 8.04 57.04 C 7.67 56.04 7.29 55.05 6.91 54.06 C 7.10 53.48 7.49 52.31 7.68 51.73 C 7.96 51.99 8.53 52.49 8.81 52.74 C 8.63 54.91 8.85 57.09 8.81 59.27 C 5.72 57.32 2.71 55.23 0.00 52.76 L 0.00 50.64 Z" />
<path fill="#7ec797" opacity="1.00" d=" M 24.62 52.89 C 24.89 52.37 25.45 51.32 25.72 50.80 C 25.16 53.48 28.33 51.53 28.25 53.83 C 28.00 54.13 27.50 54.72 27.26 55.02 C 26.05 54.69 24.78 54.37 24.62 52.89 Z" />
<path fill="#264d2e" opacity="1.00" d=" M 51.92 51.97 C 53.72 52.69 55.39 52.13 56.90 51.08 C 57.22 51.50 57.86 52.34 58.18 52.75 C 56.41 53.14 54.39 53.98 55.69 56.03 C 53.24 57.42 50.18 57.08 48.10 59.13 C 45.14 58.76 42.19 58.28 39.21 58.13 C 39.05 58.62 38.73 59.59 38.57 60.07 C 38.06 58.29 38.95 56.39 38.16 54.67 L 37.95 54.07 C 38.68 54.07 40.15 54.07 40.88 54.07 C 41.34 57.01 45.27 57.31 47.70 57.81 C 48.53 56.39 49.33 54.95 49.99 53.43 C 50.47 53.07 51.44 52.34 51.92 51.97 Z" />
<path fill="#223823" opacity="1.00" d=" M 15.07 51.82 C 17.09 52.60 19.07 53.49 21.11 54.21 L 20.92 54.72 C 20.19 57.19 19.39 59.66 16.94 60.93 C 15.31 60.19 13.69 58.99 11.80 59.57 C 11.51 59.46 10.93 59.26 10.63 59.15 L 11.20 58.46 C 13.70 57.19 14.01 54.12 15.07 51.82 Z" />
<path fill="#45a08e" opacity="1.00" d=" M 25.20 56.48 C 22.90 57.42 24.15 54.01 24.62 52.89 C 24.78 54.37 26.05 54.69 27.26 55.02 C 27.09 56.70 26.97 58.39 26.89 60.08 C 25.49 59.42 26.76 56.38 25.20 56.48 Z" />
<path fill="#f3fcd5" opacity="1.00" d=" M 28.25 53.83 C 29.10 53.81 31.15 52.02 30.96 53.89 C 29.25 57.06 34.97 59.80 31.25 61.87 C 30.96 62.16 30.37 62.74 30.08 63.03 C 29.08 61.97 27.94 61.07 26.89 60.08 C 26.97 58.39 27.09 56.70 27.26 55.02 C 27.50 54.72 28.00 54.13 28.25 53.83 Z" />
<path fill="#7f883b" opacity="1.00" d=" M 55.69 56.03 C 54.39 53.98 56.41 53.14 58.18 52.75 L 59.07 53.25 C 59.48 55.74 59.76 58.25 60.11 60.76 C 59.61 60.55 58.63 60.12 58.14 59.90 C 57.87 59.68 57.33 59.22 57.07 58.99 C 56.58 58.01 56.13 57.02 55.69 56.03 Z" />
<path fill="#050503" opacity="0.96" d=" M 108.27 54.74 C 109.20 54.14 110.10 53.50 111.00 52.86 L 111.00 59.00 C 109.18 59.06 105.54 59.18 103.72 59.24 C 103.51 58.99 103.09 58.49 102.88 58.24 C 104.73 57.16 106.52 55.98 108.27 54.74 Z" />
<path fill="#a8995a" opacity="1.00" d=" M 102.06 57.19 C 104.01 56.26 105.95 53.42 108.27 54.74 C 106.52 55.98 104.73 57.16 102.88 58.24 C 102.67 57.98 102.27 57.45 102.06 57.19 Z" />
<path fill="#0e251c" opacity="1.00" d=" M 16.94 60.93 C 19.39 59.66 20.19 57.19 20.92 54.72 C 24.35 56.64 25.02 61.56 27.29 64.70 C 26.76 64.64 25.69 64.51 25.16 64.45 C 22.37 63.39 19.58 62.34 16.94 60.93 Z" />
<path fill="#628443" opacity="1.00" d=" M 35.35 62.33 C 36.38 59.75 34.44 54.98 38.16 54.67 C 38.95 56.39 38.06 58.29 38.57 60.07 L 38.73 61.03 C 37.79 61.43 35.34 64.31 35.35 62.33 Z" />
<path fill="#40a399" opacity="1.00" d=" M 72.91 57.06 C 74.20 56.78 75.11 55.90 75.92 54.92 C 75.97 55.72 76.08 57.33 76.13 58.14 C 75.46 59.11 74.73 60.04 74.02 60.98 C 70.40 61.88 68.87 65.99 66.15 68.31 C 65.08 67.52 64.02 66.73 62.93 65.99 C 63.65 64.70 64.37 63.42 65.12 62.15 C 67.79 60.57 70.46 58.98 72.91 57.06 Z" />
<path fill="#6dc7a4" opacity="1.00" d=" M 48.10 59.13 C 50.18 57.08 53.24 57.42 55.69 56.03 C 56.13 57.02 56.58 58.01 57.07 58.99 C 51.22 61.16 44.90 62.77 38.73 61.03 L 38.57 60.07 C 41.80 59.59 45.54 61.99 48.10 59.13 Z" />
<path fill="#379996" opacity="1.00" d=" M 39.21 58.13 C 42.19 58.28 45.14 58.76 48.10 59.13 C 45.54 61.99 41.80 59.59 38.57 60.07 C 38.73 59.59 39.05 58.62 39.21 58.13 Z" />
<path fill="#091009" opacity="0.94" d=" M 8.81 59.27 C 9.27 59.24 10.18 59.18 10.63 59.15 C 10.93 59.26 11.51 59.46 11.80 59.57 C 13.79 60.89 15.75 62.29 17.96 63.22 C 17.16 64.04 14.88 64.80 16.56 65.97 C 19.08 69.12 22.75 71.08 26.05 73.34 C 26.54 73.54 27.51 73.95 28.00 74.16 C 29.18 74.58 30.37 74.92 31.58 75.27 C 32.23 75.55 33.54 76.10 34.20 76.38 C 33.72 76.56 32.76 76.93 32.28 77.11 C 30.02 75.65 27.33 75.83 25.09 77.21 C 25.35 81.55 31.54 82.47 34.94 84.14 L 35.79 84.41 C 37.58 84.97 39.42 85.37 41.24 85.79 C 39.80 84.00 38.14 82.34 41.68 82.85 C 43.08 85.80 43.17 89.53 45.56 91.90 C 45.87 92.20 46.49 92.80 46.80 93.11 C 46.87 93.47 47.02 94.21 47.09 94.57 C 46.20 95.75 45.33 96.94 44.46 98.13 C 44.50 97.03 44.59 95.94 44.64 94.84 C 43.00 94.90 42.85 96.56 42.38 97.77 C 42.14 98.10 41.68 98.78 41.45 99.11 C 41.21 97.20 39.42 96.91 37.91 96.40 C 40.54 95.61 40.23 91.65 38.03 91.05 C 36.31 92.19 33.74 95.36 37.09 96.29 C 36.80 96.52 36.21 96.96 35.92 97.19 C 34.99 96.42 34.08 95.63 33.07 94.97 C 31.99 94.87 30.97 95.04 30.01 95.49 C 27.92 96.53 25.98 97.83 24.13 99.24 C 23.62 101.26 24.46 103.23 25.21 105.07 C 25.54 105.35 26.22 105.92 26.56 106.20 L 27.21 106.57 C 26.59 106.86 25.34 107.45 24.72 107.74 C 22.90 108.63 21.29 109.86 19.63 111.00 L 15.63 111.00 C 17.22 108.93 19.39 107.55 21.90 106.88 C 24.75 105.58 22.23 100.45 22.85 97.79 C 24.47 95.14 27.56 94.25 30.35 93.40 C 33.81 92.82 36.01 89.44 36.96 86.33 C 31.29 84.55 23.71 82.52 21.91 76.19 C 23.33 76.04 24.76 75.89 26.18 75.76 C 22.07 71.80 16.15 69.62 13.60 64.20 C 12.83 61.92 10.36 60.95 8.81 59.27 Z" />
<path fill="#b4ca59" opacity="1.00" d=" M 11.80 59.57 C 13.69 58.99 15.31 60.19 16.94 60.93 C 19.58 62.34 22.37 63.39 25.16 64.45 C 22.68 65.26 20.30 63.89 17.96 63.22 C 15.75 62.29 13.79 60.89 11.80 59.57 Z" />
<path fill="#9ddeab" opacity="1.00" d=" M 38.73 61.03 C 44.90 62.77 51.22 61.16 57.07 58.99 C 57.33 59.22 57.87 59.68 58.14 59.90 C 52.53 63.13 43.85 66.33 38.73 61.03 Z" />
<path fill="#041f20" opacity="1.00" d=" M 74.02 60.98 C 75.67 60.37 77.24 59.58 78.84 58.85 L 78.93 59.80 C 78.62 60.29 77.99 61.28 77.67 61.78 C 75.20 63.30 74.33 66.35 72.76 68.66 C 71.45 70.06 70.17 71.49 68.98 72.99 C 68.70 73.26 68.16 73.79 67.89 74.05 C 66.09 74.96 64.32 75.92 62.67 77.06 L 61.87 77.02 C 61.15 76.44 60.44 75.86 59.74 75.27 C 61.91 73.60 64.15 72.02 66.17 70.17 C 69.20 67.45 72.67 65.02 74.02 60.98 Z" />
<path fill="#9e584c" opacity="1.00" d=" M 79.73 59.75 C 80.44 59.70 81.16 59.67 81.87 59.67 L 82.81 59.98 C 82.17 61.22 82.40 62.30 83.66 62.98 C 83.79 64.40 83.88 65.83 83.94 67.25 L 83.30 66.74 C 82.66 64.15 81.07 62.00 79.73 59.75 Z" />
<path fill="#a4ac6e" opacity="1.00" d=" M 103.72 59.24 C 105.54 59.18 109.18 59.06 111.00 59.00 L 111.00 62.22 C 110.26 59.80 108.08 60.32 106.11 60.63 C 105.64 60.43 104.69 60.03 104.22 59.84 L 103.72 59.24 Z" />
<path fill="#0e5b41" opacity="1.00" d=" M 78.93 59.80 L 79.73 59.75 C 81.07 62.00 82.66 64.15 83.30 66.74 C 83.05 70.15 82.74 73.58 81.87 76.91 C 80.52 78.91 79.43 81.06 78.32 83.19 C 77.24 79.96 76.19 76.64 74.20 73.82 C 73.30 71.26 70.87 72.48 68.98 72.99 C 70.17 71.49 71.45 70.06 72.76 68.66 C 75.53 67.80 77.38 71.06 79.93 68.81 C 80.14 66.25 78.43 64.11 77.67 61.78 C 77.99 61.28 78.62 60.29 78.93 59.80 Z" />
<path fill="#95a846" opacity="1.00" d=" M 83.66 62.98 C 88.40 61.03 93.78 61.40 98.75 60.28 C 99.88 61.01 104.03 60.30 102.32 62.29 C 96.09 62.09 89.89 62.94 83.66 62.98 Z" />
<path fill="#dce5a7" opacity="1.00" d=" M 98.75 60.28 C 100.57 60.09 102.39 59.94 104.22 59.84 C 104.69 60.03 105.64 60.43 106.11 60.63 C 102.13 63.03 102.65 67.81 105.21 71.05 L 104.32 71.35 C 103.84 71.02 102.89 70.36 102.42 70.03 C 101.97 69.58 101.07 68.69 100.63 68.24 C 95.18 68.14 89.94 69.81 84.64 70.73 C 84.70 70.36 84.84 69.62 84.91 69.25 C 87.81 68.22 90.81 67.44 93.86 66.98 C 96.40 66.53 99.65 66.63 101.15 64.13 C 101.44 63.67 102.03 62.75 102.32 62.29 C 104.03 60.30 99.88 61.01 98.75 60.28 Z" />
<path fill="#495f3a" opacity="1.00" d=" M 106.11 60.63 C 108.08 60.32 110.26 59.80 111.00 62.22 L 111.00 68.81 C 109.07 69.54 107.18 70.41 105.21 71.05 C 102.65 67.81 102.13 63.03 106.11 60.63 Z" />
<path fill="#196e71" opacity="1.00" d=" M 66.15 68.31 C 68.87 65.99 70.40 61.88 74.02 60.98 C 72.67 65.02 69.20 67.45 66.17 70.17 C 66.17 69.71 66.16 68.78 66.15 68.31 Z" />
<path fill="#75cba7" opacity="1.00" d=" M 31.25 61.87 C 32.88 62.83 32.96 64.56 32.85 66.27 C 31.18 66.10 29.98 64.71 30.08 63.03 C 30.37 62.74 30.96 62.16 31.25 61.87 Z" />
<path fill="#183b3c" opacity="1.00" d=" M 72.76 68.66 C 74.33 66.35 75.20 63.30 77.67 61.78 C 78.43 64.11 80.14 66.25 79.93 68.81 C 77.38 71.06 75.53 67.80 72.76 68.66 Z" />
<path fill="#213a23" opacity="1.00" d=" M 83.66 62.98 C 89.89 62.94 96.09 62.09 102.32 62.29 C 102.03 62.75 101.44 63.67 101.15 64.13 C 97.91 63.70 94.81 63.55 93.86 66.98 C 90.81 67.44 87.81 68.22 84.91 69.25 C 84.67 68.75 84.18 67.75 83.94 67.25 C 83.88 65.83 83.79 64.40 83.66 62.98 Z" />
<path fill="#4b6434" opacity="1.00" d=" M 17.96 63.22 C 20.30 63.89 22.68 65.26 25.16 64.45 C 25.69 64.51 26.76 64.64 27.29 64.70 C 27.51 65.19 27.94 66.17 28.16 66.65 L 27.91 67.55 C 27.27 69.80 30.15 71.89 28.00 74.16 C 27.51 73.95 26.54 73.54 26.05 73.34 C 26.24 73.04 26.61 72.44 26.79 72.15 C 24.48 70.51 21.92 69.21 19.82 67.29 C 20.67 67.14 22.38 66.83 23.23 66.67 C 21.15 65.87 18.61 64.16 16.56 65.97 C 14.88 64.80 17.16 64.04 17.96 63.22 Z" />
<path fill="#5b7e36" opacity="1.00" d=" M 93.86 66.98 C 94.81 63.55 97.91 63.70 101.15 64.13 C 99.65 66.63 96.40 66.53 93.86 66.98 Z" />
<path fill="#bdca85" opacity="1.00" d=" M 16.56 65.97 C 18.61 64.16 21.15 65.87 23.23 66.67 C 22.38 66.83 20.67 67.14 19.82 67.29 C 21.92 69.21 24.48 70.51 26.79 72.15 C 26.61 72.44 26.24 73.04 26.05 73.34 C 22.75 71.08 19.08 69.12 16.56 65.97 Z" />
<path fill="#33928e" opacity="1.00" d=" M 57.98 65.18 C 59.58 65.68 61.25 65.90 62.93 65.99 C 64.02 66.73 65.08 67.52 66.15 68.31 C 66.16 68.78 66.17 69.71 66.17 70.17 C 64.15 72.02 61.91 73.60 59.74 75.27 L 58.93 74.80 C 58.45 73.52 58.04 72.21 57.61 70.92 C 56.25 72.37 55.45 74.21 54.42 75.88 C 53.72 72.75 51.21 74.70 50.54 76.66 C 45.84 78.21 43.58 72.40 38.94 73.16 L 38.70 72.27 C 38.53 71.66 38.19 70.46 38.02 69.86 C 40.41 67.98 41.91 72.33 44.23 69.89 C 45.48 70.92 46.74 71.95 48.18 72.70 C 52.69 72.36 55.15 68.15 57.98 65.18 Z" />
<path fill="#92d297" opacity="1.00" d=" M 37.22 67.95 C 38.52 64.57 42.31 68.73 44.23 69.89 C 41.91 72.33 40.41 67.98 38.02 69.86 C 37.82 69.38 37.42 68.43 37.22 67.95 Z" />
<path fill="#0d1d19" opacity="1.00" d=" M 28.16 66.65 C 30.39 67.44 32.33 68.69 33.02 71.07 L 31.93 71.12 C 30.46 70.08 29.21 68.78 27.91 67.55 L 28.16 66.65 Z" />
<path fill="#744e46" opacity="1.00" d=" M 83.30 66.74 L 83.94 67.25 C 84.18 67.75 84.67 68.75 84.91 69.25 C 84.84 69.62 84.70 70.36 84.64 70.73 C 84.29 72.11 84.08 73.52 83.87 74.93 C 83.21 75.59 82.54 76.25 81.87 76.91 C 82.74 73.58 83.05 70.15 83.30 66.74 Z" />
<path fill="#cddc96" opacity="1.00" d=" M 28.00 74.16 C 30.15 71.89 27.27 69.80 27.91 67.55 C 29.21 68.78 30.46 70.08 31.93 71.12 C 33.61 72.84 37.18 72.67 37.92 75.04 C 35.74 74.94 31.58 71.38 31.58 75.27 C 30.37 74.92 29.18 74.58 28.00 74.16 Z" />
<path fill="#243e22" opacity="1.00" d=" M 84.64 70.73 C 89.94 69.81 95.18 68.14 100.63 68.24 C 101.07 68.69 101.97 69.58 102.42 70.03 C 100.91 70.67 99.34 71.18 97.80 71.74 C 94.59 72.53 91.38 73.28 88.16 74.01 C 86.72 74.29 85.30 74.64 83.87 74.93 C 84.08 73.52 84.29 72.11 84.64 70.73 Z" />
<path fill="#0c0c07" opacity="0.93" d=" M 105.21 71.05 C 107.18 70.41 109.07 69.54 111.00 68.81 L 111.00 70.94 C 108.08 72.57 104.78 73.39 101.92 75.14 C 102.69 76.34 103.71 77.39 104.90 78.17 C 105.92 77.11 106.70 75.80 107.90 74.92 C 109.85 78.47 109.35 82.82 111.00 86.49 L 111.00 88.43 C 106.73 86.99 110.01 80.41 107.07 77.81 C 106.96 79.60 106.94 81.39 106.94 83.18 L 106.21 82.83 C 105.63 77.67 99.09 76.13 94.79 74.99 L 93.94 74.80 C 95.72 73.51 98.07 73.29 100.13 72.63 C 101.55 72.28 102.94 71.85 104.32 71.35 L 105.21 71.05 Z" />
<path fill="#8b885b" opacity="1.00" d=" M 102.42 70.03 C 102.89 70.36 103.84 71.02 104.32 71.35 C 102.94 71.85 101.55 72.28 100.13 72.63 C 99.55 72.41 98.38 71.96 97.80 71.74 C 99.34 71.18 100.91 70.67 102.42 70.03 Z" />
<path fill="#26482a" opacity="1.00" d=" M 31.93 71.12 L 33.02 71.07 C 34.91 71.48 36.80 71.90 38.70 72.27 L 38.94 73.16 C 41.40 79.17 49.24 78.37 54.70 78.79 C 56.02 77.36 56.74 75.08 58.93 74.80 L 59.74 75.27 C 60.44 75.86 61.15 76.44 61.87 77.02 L 62.22 77.73 C 58.25 79.21 54.03 79.87 49.80 80.11 C 47.92 79.88 46.07 79.42 44.19 79.20 C 43.08 80.21 42.29 81.50 41.68 82.85 C 38.14 82.34 39.80 84.00 41.24 85.79 C 39.42 85.37 37.58 84.97 35.79 84.41 C 37.47 83.42 39.11 82.35 40.90 81.57 C 39.68 80.03 38.30 78.43 36.39 77.78 C 36.85 79.60 36.87 81.37 35.06 82.43 C 33.04 81.71 31.18 80.62 29.29 79.63 C 28.41 77.65 31.17 77.87 32.28 77.11 C 32.76 76.93 33.72 76.56 34.20 76.38 C 35.24 75.79 38.36 76.81 37.92 75.04 C 37.18 72.67 33.61 72.84 31.93 71.12 Z" />
<path fill="#196c71" opacity="1.00" d=" M 54.42 75.88 C 55.45 74.21 56.25 72.37 57.61 70.92 C 58.04 72.21 58.45 73.52 58.93 74.80 C 56.74 75.08 56.02 77.36 54.70 78.79 C 49.24 78.37 41.40 79.17 38.94 73.16 C 43.58 72.40 45.84 78.21 50.54 76.66 C 51.21 74.70 53.72 72.75 54.42 75.88 Z" />
<path fill="#000000" opacity="0.09" d=" M 101.92 75.14 C 104.78 73.39 108.08 72.57 111.00 70.94 L 111.00 86.49 C 109.35 82.82 109.85 78.47 107.90 74.92 C 106.70 75.80 105.92 77.11 104.90 78.17 C 103.71 77.39 102.69 76.34 101.92 75.14 Z" />
<path fill="#47ba14" opacity="1.00" d=" M 68.98 72.99 C 70.87 72.48 73.30 71.26 74.20 73.82 C 74.10 75.70 73.90 79.45 73.80 81.33 L 73.39 80.72 C 72.32 77.93 70.47 75.58 67.89 74.05 C 68.16 73.79 68.70 73.26 68.98 72.99 Z" />
<path fill="#98a554" opacity="1.00" d=" M 88.16 74.01 C 91.38 73.28 94.59 72.53 97.80 71.74 C 98.38 71.96 99.55 72.41 100.13 72.63 C 98.07 73.29 95.72 73.51 93.94 74.80 C 93.06 75.80 92.33 76.92 91.42 77.90 C 90.16 77.10 88.67 77.07 87.24 77.17 C 88.22 76.31 88.77 75.28 88.16 74.01 Z" />
<path fill="#659437" opacity="1.00" d=" M 31.58 75.27 C 31.58 71.38 35.74 74.94 37.92 75.04 C 38.36 76.81 35.24 75.79 34.20 76.38 C 33.54 76.10 32.23 75.55 31.58 75.27 Z" />
<path fill="#256929" opacity="1.00" d=" M 62.67 77.06 C 64.32 75.92 66.09 74.96 67.89 74.05 C 70.47 75.58 72.32 77.93 73.39 80.72 C 73.05 82.59 72.28 84.32 71.16 85.85 C 70.64 85.88 69.61 85.95 69.09 85.98 C 71.17 82.67 64.60 82.59 64.78 79.07 C 65.10 78.72 65.76 78.04 66.08 77.70 C 69.58 77.54 69.52 81.67 72.00 83.19 C 72.35 80.09 69.50 74.09 65.82 76.85 C 64.89 77.68 63.74 77.28 62.67 77.06 Z" />
<path fill="#28a723" opacity="1.00" d=" M 74.20 73.82 C 76.19 76.64 77.24 79.96 78.32 83.19 C 77.91 84.06 77.48 84.93 77.04 85.78 L 76.22 86.10 C 75.04 84.70 74.03 83.18 73.80 81.33 C 73.90 79.45 74.10 75.70 74.20 73.82 Z" />
<path fill="#527328" opacity="1.00" d=" M 83.87 74.93 C 85.30 74.64 86.72 74.29 88.16 74.01 C 88.77 75.28 88.22 76.31 87.24 77.17 C 86.18 77.51 85.10 77.77 84.01 77.96 C 83.97 77.20 83.90 75.69 83.87 74.93 Z" />
<path fill="#2c3c25" opacity="1.00" d=" M 81.87 76.91 C 82.54 76.25 83.21 75.59 83.87 74.93 C 83.90 75.69 83.97 77.20 84.01 77.96 C 82.62 77.94 81.93 78.62 81.93 79.99 L 81.77 80.64 C 80.92 81.71 81.23 82.23 82.71 82.20 C 84.18 84.46 86.92 83.95 89.23 83.84 C 90.25 84.69 90.17 85.50 88.97 86.29 C 86.34 86.47 81.86 84.32 81.69 87.97 C 80.95 87.58 80.21 87.20 79.45 86.86 C 78.85 86.59 77.64 86.05 77.04 85.78 C 77.48 84.93 77.91 84.06 78.32 83.19 C 79.43 81.06 80.52 78.91 81.87 76.91 Z" />
<path fill="#e6efb8" opacity="1.00" d=" M 91.42 77.90 C 92.33 76.92 93.06 75.80 93.94 74.80 L 94.79 74.99 C 95.12 75.39 95.79 76.17 96.13 76.56 C 91.42 77.78 89.62 83.47 93.02 87.03 C 92.33 87.10 90.95 87.24 90.26 87.32 C 89.94 87.06 89.30 86.55 88.97 86.29 C 90.17 85.50 90.25 84.69 89.23 83.84 C 88.00 81.25 84.99 82.19 82.71 82.20 C 81.23 82.23 80.92 81.71 81.77 80.64 C 84.58 82.07 87.03 81.94 89.12 80.28 C 89.91 79.52 90.68 78.73 91.42 77.90 Z" />
<path fill="#a6977a" opacity="1.00" d=" M 94.79 74.99 C 99.09 76.13 105.63 77.67 106.21 82.83 C 103.42 84.62 100.15 85.26 96.97 86.00 C 97.48 83.04 99.55 83.00 101.98 83.92 C 100.51 81.18 99.69 77.11 96.13 76.56 C 95.79 76.17 95.12 75.39 94.79 74.99 Z" />
<path fill="#a5ae79" opacity="1.00" d=" M 25.09 77.21 C 27.33 75.83 30.02 75.65 32.28 77.11 C 31.17 77.87 28.41 77.65 29.29 79.63 C 31.18 80.62 33.04 81.71 35.06 82.43 C 35.03 82.86 34.97 83.72 34.94 84.14 C 31.54 82.47 25.35 81.55 25.09 77.21 Z" />
<path fill="#59a94e" opacity="1.00" d=" M 65.82 76.85 C 69.50 74.09 72.35 80.09 72.00 83.19 C 69.52 81.67 69.58 77.54 66.08 77.70 L 65.82 76.85 Z" />
<path fill="#64951c" opacity="1.00" d=" M 61.87 77.02 L 62.67 77.06 C 63.74 77.28 64.89 77.68 65.82 76.85 L 66.08 77.70 C 65.76 78.04 65.10 78.72 64.78 79.07 C 63.52 80.37 64.18 82.47 63.89 84.11 L 63.16 83.86 L 62.79 83.27 C 62.77 81.42 63.40 79.36 62.22 77.73 L 61.87 77.02 Z" />
<path fill="#0e2716" opacity="1.00" d=" M 87.24 77.17 C 88.67 77.07 90.16 77.10 91.42 77.90 C 90.68 78.73 89.91 79.52 89.12 80.28 C 87.32 80.21 83.73 80.06 81.93 79.99 C 81.93 78.62 82.62 77.94 84.01 77.96 C 85.10 77.77 86.18 77.51 87.24 77.17 Z" />
<path fill="#52673f" opacity="1.00" d=" M 93.02 87.03 C 89.62 83.47 91.42 77.78 96.13 76.56 C 99.69 77.11 100.51 81.18 101.98 83.92 C 99.55 83.00 97.48 83.04 96.97 86.00 C 96.68 86.20 96.10 86.59 95.81 86.79 C 95.11 86.85 93.72 86.97 93.02 87.03 Z" />
<path fill="#e0eda8" opacity="1.00" d=" M 36.39 77.78 C 38.30 78.43 39.68 80.03 40.90 81.57 C 39.11 82.35 37.47 83.42 35.79 84.41 L 34.94 84.14 C 34.97 83.72 35.03 82.86 35.06 82.43 C 36.87 81.37 36.85 79.60 36.39 77.78 Z" />
<path fill="#86d212" opacity="1.00" d=" M 49.80 80.11 C 54.03 79.87 58.25 79.21 62.22 77.73 C 63.40 79.36 62.77 81.42 62.79 83.27 C 60.45 82.07 58.95 78.57 56.12 80.97 C 54.34 81.03 52.55 81.05 50.77 81.17 C 51.65 82.06 52.66 82.80 53.78 83.35 C 53.11 87.34 56.39 90.82 57.09 94.67 C 55.78 94.27 54.62 94.15 54.84 95.96 C 53.57 95.81 52.39 95.31 51.20 94.89 C 50.95 93.48 50.70 92.07 50.36 90.68 C 52.38 86.81 49.79 83.64 49.80 80.11 Z" />
<path fill="#cdd77e" opacity="1.00" d=" M 107.07 77.81 C 110.01 80.41 106.73 86.99 111.00 88.43 L 111.00 92.24 C 106.33 92.53 108.31 85.70 106.94 83.18 C 106.94 81.39 106.96 79.60 107.07 77.81 Z" />
<path fill="#459a21" opacity="1.00" d=" M 44.19 79.20 C 46.07 79.42 47.92 79.88 49.80 80.11 C 49.79 83.64 52.38 86.81 50.36 90.68 C 48.74 90.98 47.10 91.27 45.56 91.90 C 43.17 89.53 43.08 85.80 41.68 82.85 C 42.29 81.50 43.08 80.21 44.19 79.20 M 46.19 82.06 C 45.69 83.36 45.19 84.66 44.91 86.02 C 45.92 85.40 46.85 84.66 47.88 84.06 C 49.85 85.14 47.87 88.84 50.06 89.03 C 51.46 86.46 49.34 81.73 46.19 82.06 Z" />
<path fill="#dbe4ac" opacity="1.00" d=" M 63.89 84.11 C 64.18 82.47 63.52 80.37 64.78 79.07 C 64.60 82.59 71.17 82.67 69.09 85.98 C 67.07 86.43 65.52 85.01 63.89 84.11 Z" />
<path fill="#c2e90f" opacity="1.00" d=" M 56.12 80.97 C 58.95 78.57 60.45 82.07 62.79 83.27 L 63.16 83.86 C 65.36 86.77 64.81 90.56 65.08 94.01 C 64.50 94.35 63.32 95.04 62.74 95.38 C 60.10 95.54 57.48 95.88 54.84 95.96 C 54.62 94.15 55.78 94.27 57.09 94.67 C 56.39 90.82 53.11 87.34 53.78 83.35 C 54.58 82.57 55.36 81.78 56.12 80.97 Z" />
<path fill="#53645d" opacity="1.00" d=" M 81.93 79.99 C 83.73 80.06 87.32 80.21 89.12 80.28 C 87.03 81.94 84.58 82.07 81.77 80.64 L 81.93 79.99 Z" />
<path fill="#d0f736" opacity="1.00" d=" M 50.77 81.17 C 52.55 81.05 54.34 81.03 56.12 80.97 C 55.36 81.78 54.58 82.57 53.78 83.35 C 52.66 82.80 51.65 82.06 50.77 81.17 Z" />
<path fill="#42bb15" opacity="1.00" d=" M 73.39 80.72 L 73.80 81.33 C 74.03 83.18 75.04 84.70 76.22 86.10 C 75.17 86.88 74.11 87.66 73.12 88.53 L 72.46 89.06 C 72.06 87.98 71.63 86.91 71.16 85.85 C 72.28 84.32 73.05 82.59 73.39 80.72 Z" />
<path fill="#cad17b" opacity="1.00" d=" M 46.19 82.06 C 49.34 81.73 51.46 86.46 50.06 89.03 C 47.87 88.84 49.85 85.14 47.88 84.06 C 46.85 84.66 45.92 85.40 44.91 86.02 C 45.19 84.66 45.69 83.36 46.19 82.06 Z" />
<path fill="#386e26" opacity="1.00" d=" M 82.71 82.20 C 84.99 82.19 88.00 81.25 89.23 83.84 C 86.92 83.95 84.18 84.46 82.71 82.20 Z" />
<path fill="#0f0405" opacity="0.93" d=" M 96.97 86.00 C 100.15 85.26 103.42 84.62 106.21 82.83 C 106.06 84.44 106.07 86.07 105.71 87.66 C 104.80 88.09 103.91 88.55 103.04 89.03 C 101.34 88.21 99.67 87.16 97.73 87.06 C 97.25 86.99 96.29 86.86 95.81 86.79 C 96.10 86.59 96.68 86.20 96.97 86.00 Z" />
<path fill="#43a43d" opacity="1.00" d=" M 106.21 82.83 L 106.94 83.18 C 108.31 85.70 106.33 92.53 111.00 92.24 L 111.00 93.14 C 108.58 93.01 106.20 92.62 103.85 92.03 C 104.04 90.40 104.93 89.04 105.71 87.66 C 106.07 86.07 106.06 84.44 106.21 82.83 Z" />
<path fill="#74c309" opacity="1.00" d=" M 63.16 83.86 L 63.89 84.11 C 65.52 85.01 67.07 86.43 69.09 85.98 C 69.61 85.95 70.64 85.88 71.16 85.85 C 71.63 86.91 72.06 87.98 72.46 89.06 C 70.24 91.04 67.70 92.61 65.08 94.01 C 64.81 90.56 65.36 86.77 63.16 83.86 Z" />
<path fill="#126630" opacity="1.00" d=" M 76.22 86.10 L 77.04 85.78 C 77.64 86.05 78.85 86.59 79.45 86.86 C 78.48 88.72 77.26 90.44 76.13 92.21 C 75.07 92.71 73.99 93.16 72.91 93.62 C 71.26 94.05 69.63 94.51 67.98 94.93 C 68.77 92.59 75.22 91.52 73.12 88.53 C 74.11 87.66 75.17 86.88 76.22 86.10 Z" />
<path fill="#7b9638" opacity="1.00" d=" M 81.69 87.97 C 81.86 84.32 86.34 86.47 88.97 86.29 C 89.30 86.55 89.94 87.06 90.26 87.32 C 87.40 87.66 84.56 87.97 81.69 87.97 Z" />
<path fill="#a96355" opacity="1.00" d=" M 79.45 86.86 C 80.21 87.20 80.95 87.58 81.69 87.97 L 82.07 88.65 L 81.05 89.13 C 79.77 89.67 78.84 90.74 77.79 91.60 C 77.38 91.76 76.55 92.06 76.13 92.21 C 77.26 90.44 78.48 88.72 79.45 86.86 Z" />
<path fill="#09292b" opacity="1.00" d=" M 90.26 87.32 C 90.95 87.24 92.33 87.10 93.02 87.03 C 93.72 86.97 95.11 86.85 95.81 86.79 C 96.29 86.86 97.25 86.99 97.73 87.06 C 98.07 89.21 101.41 90.41 103.04 89.03 C 103.91 88.55 104.80 88.09 105.71 87.66 C 104.93 89.04 104.04 90.40 103.85 92.03 L 103.61 92.98 C 97.66 96.06 92.62 103.34 96.18 110.04 C 97.67 108.92 98.94 107.55 100.21 106.19 L 100.90 105.80 L 101.95 105.97 C 100.87 107.50 100.05 109.17 99.64 111.00 L 90.99 111.00 C 91.05 110.56 91.15 109.67 91.21 109.22 C 91.44 106.15 92.88 102.67 91.31 99.71 C 90.93 98.54 90.08 97.64 89.22 96.81 C 88.56 96.15 87.89 95.51 87.19 94.89 C 85.96 92.44 83.95 90.59 82.07 88.65 L 81.69 87.97 C 84.56 87.97 87.40 87.66 90.26 87.32 Z" />
<path fill="#652534" opacity="1.00" d=" M 97.73 87.06 C 99.67 87.16 101.34 88.21 103.04 89.03 C 101.41 90.41 98.07 89.21 97.73 87.06 Z" />
<path fill="#0c2f1d" opacity="1.00" d=" M 72.46 89.06 L 73.12 88.53 C 75.22 91.52 68.77 92.59 67.98 94.93 C 66.28 95.52 64.50 96.08 62.74 95.38 C 63.32 95.04 64.50 94.35 65.08 94.01 C 67.70 92.61 70.24 91.04 72.46 89.06 Z" />
<path fill="#145b42" opacity="1.00" d=" M 77.79 91.60 C 78.84 90.74 79.77 89.67 81.05 89.13 C 82.82 91.33 84.77 93.39 87.19 94.89 C 87.89 95.51 88.56 96.15 89.22 96.81 C 89.82 101.52 89.98 106.26 90.06 111.00 L 85.21 111.00 C 84.39 106.77 83.43 102.56 82.02 98.49 C 83.95 96.22 82.72 93.94 79.81 94.03 C 79.14 93.22 78.47 92.41 77.79 91.60 Z" />
<path fill="#664e44" opacity="1.00" d=" M 81.05 89.13 L 82.07 88.65 C 83.95 90.59 85.96 92.44 87.19 94.89 C 84.77 93.39 82.82 91.33 81.05 89.13 Z" />
<path fill="#96b95c" opacity="1.00" d=" M 37.09 96.29 C 33.74 95.36 36.31 92.19 38.03 91.05 C 40.23 91.65 40.54 95.61 37.91 96.40 L 37.09 96.29 Z" />
<path fill="#44bb16" opacity="1.00" d=" M 45.56 91.90 C 47.10 91.27 48.74 90.98 50.36 90.68 C 50.70 92.07 50.95 93.48 51.20 94.89 C 49.71 94.34 48.26 93.72 46.80 93.11 C 46.49 92.80 45.87 92.20 45.56 91.90 Z" />
<path fill="#4dc112" opacity="1.00" d=" M 76.13 92.21 C 76.55 92.06 77.38 91.76 77.79 91.60 C 78.47 92.41 79.14 93.22 79.81 94.03 C 80.43 95.57 81.18 97.06 82.02 98.49 C 83.43 102.56 84.39 106.77 85.21 111.00 L 76.84 111.00 C 80.54 108.01 79.05 102.08 75.05 100.13 C 76.74 98.11 74.65 95.02 72.91 93.62 C 73.99 93.16 75.07 92.71 76.13 92.21 Z" />
<path fill="#0a4525" opacity="1.00" d=" M 103.85 92.03 C 106.20 92.62 108.58 93.01 111.00 93.14 L 111.00 93.96 C 110.52 93.99 109.57 94.04 109.09 94.06 C 108.35 94.10 106.86 94.18 106.12 94.22 C 105.49 93.91 104.24 93.29 103.61 92.98 L 103.85 92.03 Z" />
<path fill="#1e5c28" opacity="1.00" d=" M 46.80 93.11 C 48.26 93.72 49.71 94.34 51.20 94.89 C 52.39 95.31 53.57 95.81 54.84 95.96 C 57.48 95.88 60.10 95.54 62.74 95.38 C 64.50 96.08 66.28 95.52 67.98 94.93 L 68.08 95.72 C 67.09 96.35 66.10 96.96 65.11 97.59 C 63.82 98.14 62.53 98.72 61.23 99.27 C 57.25 98.81 53.27 98.31 49.28 97.92 C 49.00 96.48 48.85 94.85 47.09 94.57 C 47.02 94.21 46.87 93.47 46.80 93.11 Z" />
<path fill="#08583f" opacity="1.00" d=" M 96.18 110.04 C 92.62 103.34 97.66 96.06 103.61 92.98 C 104.24 93.29 105.49 93.91 106.12 94.22 C 103.29 96.83 95.59 99.04 98.64 104.01 C 99.03 104.56 99.82 105.65 100.21 106.19 C 98.94 107.55 97.67 108.92 96.18 110.04 Z" />
<path fill="#70cc0d" opacity="1.00" d=" M 67.98 94.93 C 69.63 94.51 71.26 94.05 72.91 93.62 C 74.65 95.02 76.74 98.11 75.05 100.13 C 73.84 99.97 72.84 100.23 72.04 100.91 C 71.38 101.70 70.72 102.49 70.04 103.27 L 69.29 103.02 C 69.25 100.53 68.10 98.23 68.08 95.72 L 67.98 94.93 Z" />
<path fill="#821b7e" opacity="1.00" d=" M 79.81 94.03 C 82.72 93.94 83.95 96.22 82.02 98.49 C 81.18 97.06 80.43 95.57 79.81 94.03 Z" />
<path fill="#0d9040" opacity="1.00" d=" M 106.12 94.22 C 106.86 94.18 108.35 94.10 109.09 94.06 C 110.31 100.45 101.66 99.86 98.64 104.01 C 95.59 99.04 103.29 96.83 106.12 94.22 Z" />
<path fill="#169f34" opacity="1.00" d=" M 109.09 94.06 C 109.57 94.04 110.52 93.99 111.00 93.96 L 111.00 101.76 C 107.30 102.06 104.00 103.88 100.90 105.80 L 100.21 106.19 C 99.82 105.65 99.03 104.56 98.64 104.01 C 101.66 99.86 110.31 100.45 109.09 94.06 Z" />
<path fill="#1e8d27" opacity="1.00" d=" M 30.01 95.49 C 30.97 95.04 31.99 94.87 33.07 94.97 C 32.12 97.60 30.54 100.26 32.05 103.03 C 31.51 103.26 30.45 103.71 29.92 103.94 C 29.53 102.94 29.16 101.94 28.81 100.93 C 29.50 99.24 31.26 97.29 30.01 95.49 Z" />
<path fill="#095c3e" opacity="1.00" d=" M 33.07 94.97 C 34.08 95.63 34.99 96.42 35.92 97.19 C 36.12 98.73 36.39 100.26 36.60 101.81 C 35.09 102.25 33.57 102.64 32.05 103.03 C 30.54 100.26 32.12 97.60 33.07 94.97 Z" />
<path fill="#1f5b3b" opacity="1.00" d=" M 42.38 97.77 C 42.85 96.56 43.00 94.90 44.64 94.84 C 44.59 95.94 44.50 97.03 44.46 98.13 C 44.29 99.50 43.57 101.38 45.76 101.04 C 45.42 104.35 45.10 107.67 44.91 111.00 L 42.28 111.00 C 41.82 108.82 41.15 106.65 39.99 104.74 C 40.72 102.40 43.33 100.39 42.38 97.77 Z" />
<path fill="#27515b" opacity="1.00" d=" M 44.46 98.13 C 45.33 96.94 46.20 95.75 47.09 94.57 C 48.85 94.85 49.00 96.48 49.28 97.92 C 48.07 98.92 46.85 99.91 45.76 101.04 C 43.57 101.38 44.29 99.50 44.46 98.13 Z" />
<path fill="#6cc108" opacity="1.00" d=" M 24.13 99.24 C 25.98 97.83 27.92 96.53 30.01 95.49 C 31.26 97.29 29.50 99.24 28.81 100.93 C 27.58 102.28 26.44 103.71 25.21 105.07 C 24.46 103.23 23.62 101.26 24.13 99.24 Z" />
<path fill="#0c2926" opacity="1.00" d=" M 37.09 96.29 L 37.91 96.40 C 39.42 96.91 41.21 97.20 41.45 99.11 C 40.31 101.14 37.35 102.02 37.96 104.83 C 38.47 104.80 39.48 104.76 39.99 104.74 C 41.15 106.65 41.82 108.82 42.28 111.00 L 39.33 111.00 C 38.36 108.63 37.11 106.38 35.64 104.28 C 34.08 103.61 32.49 104.91 30.95 105.19 C 29.51 105.60 28.04 105.92 26.56 106.20 C 27.66 105.42 28.79 104.67 29.92 103.94 C 30.45 103.71 31.51 103.26 32.05 103.03 C 33.57 102.64 35.09 102.25 36.60 101.81 C 36.39 100.26 36.12 98.73 35.92 97.19 C 36.21 96.96 36.80 96.52 37.09 96.29 Z" />
<path fill="#aee408" opacity="1.00" d=" M 65.11 97.59 C 66.10 96.96 67.09 96.35 68.08 95.72 C 68.10 98.23 69.25 100.53 69.29 103.02 C 68.99 105.95 68.77 108.92 71.08 111.00 L 68.33 111.00 C 67.02 106.56 64.55 102.38 65.11 97.59 Z" />
<path fill="#6c574c" opacity="1.00" d=" M 89.22 96.81 C 90.08 97.64 90.93 98.54 91.31 99.71 C 91.23 102.87 91.12 106.05 91.21 109.22 C 91.15 109.67 91.05 110.56 90.99 111.00 L 90.06 111.00 C 89.98 106.26 89.82 101.52 89.22 96.81 Z" />
<path fill="#000000" opacity="0.70" d=" M 21.90 106.88 C 22.40 103.94 21.21 100.36 22.85 97.79 C 22.23 100.45 24.75 105.58 21.90 106.88 Z" />
<path fill="#a5c37b" opacity="1.00" d=" M 42.38 97.77 C 43.33 100.39 40.72 102.40 39.99 104.74 C 39.48 104.76 38.47 104.80 37.96 104.83 C 37.35 102.02 40.31 101.14 41.45 99.11 C 41.68 98.78 42.14 98.10 42.38 97.77 Z" />
<path fill="#3cb222" opacity="1.00" d=" M 49.28 97.92 C 53.27 98.31 57.25 98.81 61.23 99.27 C 60.89 99.44 60.23 99.78 59.89 99.94 L 59.05 100.15 C 57.03 100.60 54.85 101.32 53.08 99.81 C 50.61 97.53 49.23 101.21 47.78 102.77 C 46.38 104.00 47.16 105.84 47.77 107.26 C 47.53 108.51 47.23 109.75 46.93 111.00 L 44.91 111.00 C 45.10 107.67 45.42 104.35 45.76 101.04 C 46.85 99.91 48.07 98.92 49.28 97.92 Z" />
<path fill="#dbf015" opacity="1.00" d=" M 61.23 99.27 C 62.53 98.72 63.82 98.14 65.11 97.59 C 64.55 102.38 67.02 106.56 68.33 111.00 L 62.19 111.00 C 61.48 107.30 60.66 103.62 59.89 99.94 C 60.23 99.78 60.89 99.44 61.23 99.27 Z" />
<path fill="#6ccb0d" opacity="1.00" d=" M 47.78 102.77 C 49.23 101.21 50.61 97.53 53.08 99.81 C 51.16 99.63 50.80 100.02 52.00 100.98 C 51.25 102.65 49.46 104.74 51.79 105.98 C 50.37 106.12 48.99 106.52 47.77 107.26 C 47.16 105.84 46.38 104.00 47.78 102.77 Z" />
<path fill="#ecfa2f" opacity="1.00" d=" M 52.00 100.98 C 50.80 100.02 51.16 99.63 53.08 99.81 C 54.85 101.32 57.03 100.60 59.05 100.15 C 58.97 100.80 58.82 102.11 58.75 102.76 C 56.21 104.72 57.29 108.17 56.97 111.00 L 56.18 111.00 C 55.44 107.44 55.82 102.83 52.00 100.98 Z" />
<path fill="#8f980f" opacity="1.00" d=" M 59.05 100.15 L 59.89 99.94 C 60.66 103.62 61.48 107.30 62.19 111.00 L 61.24 111.00 C 60.63 108.19 59.65 105.48 58.75 102.76 C 58.82 102.11 58.97 100.80 59.05 100.15 Z" />
<path fill="#58933f" opacity="1.00" d=" M 72.04 100.91 C 72.84 100.23 73.84 99.97 75.05 100.13 C 79.05 102.08 80.54 108.01 76.84 111.00 L 71.81 111.00 L 72.36 110.37 C 72.78 110.09 73.63 109.53 74.05 109.26 C 76.79 108.32 74.96 105.92 74.55 104.00 C 75.36 102.08 73.40 101.62 72.04 100.91 Z" />
<path fill="#772a32" opacity="1.00" d=" M 91.31 99.71 C 92.88 102.67 91.44 106.15 91.21 109.22 C 91.12 106.05 91.23 102.87 91.31 99.71 Z" />
<path fill="#3da716" opacity="1.00" d=" M 25.21 105.07 C 26.44 103.71 27.58 102.28 28.81 100.93 C 29.16 101.94 29.53 102.94 29.92 103.94 C 28.79 104.67 27.66 105.42 26.56 106.20 C 26.22 105.92 25.54 105.35 25.21 105.07 Z" />
<path fill="#b2e705" opacity="1.00" d=" M 52.00 100.98 C 55.82 102.83 55.44 107.44 56.18 111.00 L 55.36 111.00 C 54.51 109.11 53.20 107.48 51.79 105.98 C 49.46 104.74 51.25 102.65 52.00 100.98 Z" />
<path fill="#deeaad" opacity="1.00" d=" M 72.04 100.91 C 73.40 101.62 75.36 102.08 74.55 104.00 C 73.46 103.05 71.80 102.55 71.15 104.25 C 70.17 106.63 72.48 107.99 74.05 109.26 C 73.63 109.53 72.78 110.09 72.36 110.37 C 70.41 108.46 69.60 105.96 70.04 103.27 C 70.72 102.49 71.38 101.70 72.04 100.91 Z" />
<path fill="#125d16" opacity="1.00" d=" M 100.90 105.80 C 104.00 103.88 107.30 102.06 111.00 101.76 L 111.00 102.81 C 107.96 103.79 105.02 105.10 101.95 105.97 L 100.90 105.80 Z" />
<path fill="#e2f70f" opacity="1.00" d=" M 56.97 111.00 C 57.29 108.17 56.21 104.72 58.75 102.76 C 59.65 105.48 60.63 108.19 61.24 111.00 L 56.97 111.00 Z" />
<path fill="#6f8830" opacity="1.00" d=" M 69.29 103.02 L 70.04 103.27 C 69.60 105.96 70.41 108.46 72.36 110.37 L 71.81 111.00 L 71.08 111.00 C 68.77 108.92 68.99 105.95 69.29 103.02 Z" />
<path fill="#317b40" opacity="1.00" d=" M 71.15 104.25 C 71.80 102.55 73.46 103.05 74.55 104.00 C 74.96 105.92 76.79 108.32 74.05 109.26 C 72.48 107.99 70.17 106.63 71.15 104.25 Z" />
<path fill="#2aab23" opacity="1.00" d=" M 101.95 105.97 C 105.02 105.10 107.96 103.79 111.00 102.81 L 111.00 105.01 C 107.41 106.19 102.79 106.72 101.57 111.00 L 99.64 111.00 C 100.05 109.17 100.87 107.50 101.95 105.97 Z" />
<path fill="#0a5d3d" opacity="1.00" d=" M 30.95 105.19 C 32.49 104.91 34.08 103.61 35.64 104.28 C 37.11 106.38 38.36 108.63 39.33 111.00 L 36.27 111.00 C 34.48 109.08 32.72 107.13 30.95 105.19 Z" />
<path fill="#3fb819" opacity="1.00" d=" M 26.56 106.20 C 28.04 105.92 29.51 105.60 30.95 105.19 C 32.72 107.13 34.48 109.08 36.27 111.00 L 30.27 111.00 C 30.34 108.86 29.25 107.24 27.21 106.57 L 26.56 106.20 Z" />
<path fill="#44be15" opacity="1.00" d=" M 101.57 111.00 C 102.79 106.72 107.41 106.19 111.00 105.01 L 111.00 107.79 C 108.14 107.76 105.45 108.84 103.55 111.00 L 101.57 111.00 Z" />
<path fill="#7ba65b" opacity="1.00" d=" M 47.77 107.26 C 48.99 106.52 50.37 106.12 51.79 105.98 C 53.20 107.48 54.51 109.11 55.36 111.00 L 46.93 111.00 C 47.23 109.75 47.53 108.51 47.77 107.26 Z" />
<path fill="#7ddb10" opacity="1.00" d=" M 24.72 107.74 C 25.34 107.45 26.59 106.86 27.21 106.57 C 29.25 107.24 30.34 108.86 30.27 111.00 L 25.05 111.00 C 24.96 110.18 24.80 108.55 24.72 107.74 Z" />
<path fill="#dae737" opacity="1.00" d=" M 19.63 111.00 C 21.29 109.86 22.90 108.63 24.72 107.74 C 24.80 108.55 24.96 110.18 25.05 111.00 L 19.63 111.00 Z" />
<path fill="#6acd0a" opacity="1.00" d=" M 103.55 111.00 C 105.45 108.84 108.14 107.76 111.00 107.79 L 111.00 111.00 L 103.55 111.00 Z" />
</svg>
