<?xml version="1.0" encoding="UTF-8" ?>
<!DOCTYPE svg PUBLIC "-//W3C//DTD SVG 1.1//EN" "http://www.w3.org/Graphics/SVG/1.1/DTD/svg11.dtd">
<svg width="111pt" height="111pt" viewBox="0 0 111 111" version="1.1" xmlns="http://www.w3.org/2000/svg">
<path fill="#000000" opacity="1.00" d=" M 50.59 0.00 L 51.40 0.00 C 50.99 4.57 50.55 9.22 51.67 13.73 C 52.76 9.23 52.99 4.60 53.09 0.00 L 53.84 0.00 C 53.37 6.51 52.86 13.08 53.97 19.56 C 54.88 16.36 55.86 13.16 57.36 10.17 C 57.93 15.08 57.50 20.16 59.07 24.91 C 60.54 28.84 62.81 32.40 64.65 36.16 C 69.16 45.36 72.34 55.14 74.80 65.07 C 75.79 69.51 79.37 72.58 81.99 76.08 C 81.95 78.24 81.92 80.41 81.88 82.58 C 81.13 83.33 80.37 84.08 79.62 84.84 C 81.65 94.20 78.88 104.31 71.94 110.99 C 68.43 109.38 65.21 107.22 62.30 104.69 C 60.12 106.17 57.99 107.87 55.43 108.65 C 52.79 108.84 50.17 108.21 47.60 107.72 C 47.11 107.90 46.13 108.24 45.63 108.41 C 43.59 106.66 41.29 105.27 38.92 104.01 C 38.46 104.73 37.54 106.18 37.07 106.90 C 31.04 99.88 29.27 89.85 31.05 80.92 C 31.82 77.97 30.52 75.12 30.34 72.20 C 31.99 65.99 33.80 59.80 35.83 53.70 C 38.22 46.87 37.87 39.19 41.85 32.92 C 44.30 27.72 50.11 24.22 50.34 18.05 C 50.61 12.04 50.23 6.01 50.59 0.00 M 52.44 20.51 C 52.37 21.68 52.23 24.04 52.16 25.21 C 51.70 24.37 50.79 22.68 50.34 21.84 C 50.45 23.34 50.54 24.84 50.63 26.34 C 50.29 26.50 49.61 26.81 49.27 26.96 C 45.03 31.77 42.99 37.98 40.25 43.67 C 39.93 45.21 39.58 46.74 39.26 48.28 L 39.14 49.69 C 41.90 50.65 44.63 51.69 47.47 52.40 C 45.48 52.43 43.57 51.93 41.80 51.01 C 40.56 50.92 39.31 50.85 38.06 50.80 L 39.12 51.29 C 37.31 59.41 34.77 67.41 34.07 75.73 C 32.76 81.04 32.06 86.57 32.39 92.05 C 33.16 95.01 34.68 97.89 36.82 100.09 C 42.24 104.03 49.22 105.21 55.79 104.56 C 56.84 104.29 58.95 103.75 60.00 103.48 C 61.67 104.32 63.99 103.10 65.14 101.80 C 65.04 101.57 64.85 101.12 64.75 100.89 C 65.34 100.64 66.52 100.14 67.12 99.89 L 67.70 100.07 C 70.44 99.60 74.64 96.66 73.88 93.83 C 78.51 92.00 77.64 86.58 76.14 82.89 C 75.93 82.19 75.51 80.79 75.30 80.09 C 76.27 78.64 76.01 77.71 74.52 77.30 C 74.75 73.41 73.13 69.51 71.70 65.93 C 70.69 60.96 68.80 56.24 67.41 51.38 C 64.66 43.67 62.46 35.60 57.92 28.71 C 57.78 28.47 57.51 28.01 57.37 27.77 L 55.35 27.51 C 55.84 27.09 56.82 26.23 57.31 25.80 C 56.06 24.98 54.84 24.11 53.58 23.28 C 53.21 22.36 52.82 21.43 52.44 20.51 M 32.30 71.11 C 30.94 71.54 30.84 74.03 32.15 74.58 C 33.47 74.22 33.60 71.58 32.30 71.11 M 75.17 70.70 C 75.84 73.32 75.88 76.29 77.54 78.52 C 76.36 79.67 76.47 80.61 77.89 81.34 C 78.88 80.60 80.19 80.10 80.75 78.92 C 80.40 77.80 79.91 76.75 79.43 75.69 C 78.22 73.86 76.68 72.28 75.17 70.70 M 75.78 92.99 L 75.78 94.36 C 73.08 98.14 69.44 101.15 64.98 102.59 C 66.51 105.09 68.70 107.07 70.98 108.88 C 72.94 106.70 74.99 104.35 75.49 101.35 C 76.50 98.74 77.12 96.01 77.59 93.26 L 75.78 92.99 M 42.87 104.34 C 43.49 104.89 44.73 106.00 45.35 106.55 C 46.25 106.58 47.15 106.60 48.05 106.61 C 50.22 106.99 52.41 107.29 54.59 107.64 C 56.09 106.74 57.60 105.85 59.08 104.91 C 57.51 104.99 55.95 105.12 54.39 105.30 C 50.53 105.89 46.56 105.72 42.87 104.34 Z" />
<path fill="#591413" opacity="1.00" d=" M 51.40 0.00 L 53.09 0.00 C 52.99 4.60 52.76 9.23 51.67 13.73 C 50.55 9.22 50.99 4.57 51.40 0.00 Z" />
<path fill="#ff8348" opacity="1.00" d=" M 52.44 20.51 C 52.82 21.43 53.21 22.36 53.58 23.28 C 54.84 24.11 56.06 24.98 57.31 25.80 C 56.82 26.23 55.84 27.09 55.35 27.51 L 57.37 27.77 C 57.51 28.01 57.78 28.47 57.92 28.71 C 59.44 32.19 61.28 35.54 62.60 39.11 C 62.98 42.82 62.76 46.56 61.93 50.19 C 62.36 50.87 62.80 51.55 63.24 52.22 C 59.20 53.69 54.94 54.31 50.68 54.67 C 55.55 54.96 60.46 54.74 65.21 53.57 C 65.06 56.24 64.89 58.92 64.71 61.59 C 63.29 62.33 61.87 63.08 60.42 63.76 C 58.03 64.74 55.70 65.86 53.43 67.08 C 55.87 66.92 58.30 66.72 60.74 66.55 C 56.90 69.61 53.47 73.30 51.56 77.89 C 52.81 78.20 54.07 78.49 55.33 78.76 C 52.72 79.91 50.11 81.05 47.49 82.19 C 47.79 82.98 48.08 83.77 48.38 84.57 C 46.45 84.65 44.52 84.66 42.59 84.66 C 41.33 83.64 40.07 82.63 38.80 81.63 L 38.31 82.53 C 37.15 83.81 35.93 85.03 34.71 86.25 C 34.38 82.75 34.10 79.24 34.07 75.73 C 34.77 67.41 37.31 59.41 39.12 51.29 L 38.06 50.80 C 39.31 50.85 40.56 50.92 41.80 51.01 C 43.57 51.93 45.48 52.43 47.47 52.40 C 51.37 52.84 55.42 53.83 59.21 52.28 C 54.94 51.03 49.43 52.41 46.04 49.02 C 45.76 47.58 45.58 46.13 45.19 44.72 C 43.58 44.24 41.90 44.00 40.25 43.67 C 42.99 37.98 45.03 31.77 49.27 26.96 C 49.61 26.81 50.29 26.50 50.63 26.34 C 50.54 24.84 50.45 23.34 50.34 21.84 C 50.79 22.68 51.70 24.37 52.16 25.21 C 52.23 24.04 52.37 21.68 52.44 20.51 M 44.98 36.72 C 44.67 37.08 44.05 37.79 43.73 38.15 C 43.97 40.44 47.18 38.25 45.66 36.87 C 46.82 36.34 47.53 34.65 46.95 33.49 C 45.67 33.53 44.54 35.54 44.98 36.72 M 37.67 60.85 L 37.67 61.81 L 36.84 61.76 C 38.78 64.07 41.23 66.02 44.09 67.03 C 46.87 67.65 49.73 67.00 52.51 66.68 C 50.12 65.27 47.37 64.87 44.69 64.41 C 42.49 63.13 40.27 60.66 37.67 60.85 M 36.03 70.61 C 37.81 74.16 39.97 78.44 44.28 79.23 C 42.74 75.59 40.04 71.64 36.03 70.61 Z" />
<path fill="#efe7ea" opacity="1.00" d=" M 57.92 28.71 C 62.46 35.60 64.66 43.67 67.41 51.38 C 68.80 56.24 70.69 60.96 71.70 65.93 L 70.92 64.52 C 70.73 63.90 70.34 62.65 70.14 62.03 C 69.44 62.45 68.04 63.28 67.34 63.70 C 67.27 63.48 67.11 63.04 67.03 62.82 C 67.69 62.57 69.01 62.08 69.66 61.83 C 68.96 59.25 68.11 56.71 67.10 54.23 C 65.06 49.36 64.50 44.04 62.60 39.11 C 61.28 35.54 59.44 32.19 57.92 28.71 Z" />
<path fill="#dbe869" opacity="1.00" d=" M 44.98 36.72 C 44.54 35.54 45.67 33.53 46.95 33.49 C 47.53 34.65 46.82 36.34 45.66 36.87 L 44.98 36.72 Z" />
<path fill="#6ca062" opacity="1.00" d=" M 43.73 38.15 C 44.05 37.79 44.67 37.08 44.98 36.72 L 45.66 36.87 C 47.18 38.25 43.97 40.44 43.73 38.15 Z" />
<path fill="#ef272f" opacity="1.00" d=" M 62.60 39.11 C 64.50 44.04 65.06 49.36 67.10 54.23 C 68.11 56.71 68.96 59.25 69.66 61.83 C 69.01 62.08 67.69 62.57 67.03 62.82 C 65.61 63.33 64.16 63.78 62.70 64.18 C 62.13 64.08 60.99 63.87 60.42 63.76 C 61.87 63.08 63.29 62.33 64.71 61.59 C 64.89 58.92 65.06 56.24 65.21 53.57 C 60.46 54.74 55.55 54.96 50.68 54.67 C 54.94 54.31 59.20 53.69 63.24 52.22 C 62.80 51.55 62.36 50.87 61.93 50.19 C 62.76 46.56 62.98 42.82 62.60 39.11 Z" />
<path fill="#ffa149" opacity="1.00" d=" M 40.25 43.67 C 41.90 44.00 43.58 44.24 45.19 44.72 C 45.58 46.13 45.76 47.58 46.04 49.02 C 43.79 48.72 41.52 48.50 39.26 48.28 C 39.58 46.74 39.93 45.21 40.25 43.67 Z" />
<path fill="#fcc247" opacity="1.00" d=" M 39.26 48.28 C 41.52 48.50 43.79 48.72 46.04 49.02 C 49.43 52.41 54.94 51.03 59.21 52.28 C 55.42 53.83 51.37 52.84 47.47 52.40 C 44.63 51.69 41.90 50.65 39.14 49.69 L 39.26 48.28 Z" />
<path fill="#9e5324" opacity="1.00" d=" M 37.67 60.85 C 40.27 60.66 42.49 63.13 44.69 64.41 C 42.30 63.78 39.56 63.55 37.67 61.81 L 37.67 60.85 Z" />
<path fill="#f8c245" opacity="1.00" d=" M 36.84 61.76 L 37.67 61.81 C 39.56 63.55 42.30 63.78 44.69 64.41 C 47.37 64.87 50.12 65.27 52.51 66.68 C 49.73 67.00 46.87 67.65 44.09 67.03 C 41.23 66.02 38.78 64.07 36.84 61.76 Z" />
<path fill="#fa5c38" opacity="1.00" d=" M 62.70 64.18 C 64.16 63.78 65.61 63.33 67.03 62.82 C 67.11 63.04 67.27 63.48 67.34 63.70 C 67.92 65.35 68.52 66.99 69.18 68.61 C 67.85 67.63 66.50 66.69 65.14 65.76 C 64.33 65.22 63.52 64.69 62.70 64.18 Z" />
<path fill="#e73a39" opacity="1.00" d=" M 67.34 63.70 C 68.04 63.28 69.44 62.45 70.14 62.03 C 70.34 62.65 70.73 63.90 70.92 64.52 C 71.85 71.58 74.91 78.21 75.26 85.37 C 74.09 88.40 73.19 91.61 71.27 94.27 C 69.80 95.56 67.73 95.81 65.99 96.59 C 67.06 95.04 68.08 93.46 69.02 91.83 C 71.81 86.49 71.82 80.36 71.46 74.49 C 71.16 72.38 70.20 70.46 69.18 68.61 C 68.52 66.99 67.92 65.35 67.34 63.70 Z" />
<path fill="#c34e2e" opacity="1.00" d=" M 53.43 67.08 C 55.70 65.86 58.03 64.74 60.42 63.76 C 60.99 63.87 62.13 64.08 62.70 64.18 C 63.52 64.69 64.33 65.22 65.14 65.76 C 63.76 65.95 62.38 66.13 61.01 66.32 L 60.74 66.55 C 58.30 66.72 55.87 66.92 53.43 67.08 Z" />
<path fill="#ff8348" opacity="1.00" d=" M 70.92 64.52 L 71.70 65.93 C 73.13 69.51 74.75 73.41 74.52 77.30 C 74.19 78.38 74.45 79.31 75.30 80.09 C 75.51 80.79 75.93 82.19 76.14 82.89 C 76.16 85.59 76.55 88.36 75.90 91.02 C 75.66 89.14 75.44 87.25 75.26 85.37 C 74.91 78.21 71.85 71.58 70.92 64.52 Z" />
<path fill="#000000" opacity="1.00" d=" M 61.01 66.32 C 62.38 66.13 63.76 65.95 65.14 65.76 C 66.50 66.69 67.85 67.63 69.18 68.61 C 70.20 70.46 71.16 72.38 71.46 74.49 C 70.47 75.36 69.49 76.24 68.48 77.08 C 64.71 79.97 59.73 79.61 55.33 78.76 C 54.07 78.49 52.81 78.20 51.56 77.89 C 53.47 73.30 56.90 69.61 60.74 66.55 L 61.01 66.32 M 53.96 75.18 C 53.30 75.96 52.74 76.81 52.27 77.73 L 54.07 77.65 C 59.73 79.13 66.60 79.12 70.53 74.08 C 70.78 71.28 67.97 69.42 66.34 67.47 C 65.16 67.03 63.99 66.59 62.81 66.16 C 59.41 68.67 56.20 71.54 53.96 75.18 Z" />
<path fill="#ffff0a" opacity="1.00" d=" M 53.96 75.18 C 56.20 71.54 59.41 68.67 62.81 66.16 C 63.99 66.59 65.16 67.03 66.34 67.47 C 66.12 68.82 65.90 70.18 65.69 71.53 L 64.05 71.18 C 60.50 71.98 57.29 73.76 53.96 75.18 Z" />
<path fill="#38b766" opacity="1.00" d=" M 66.34 67.47 C 67.97 69.42 70.78 71.28 70.53 74.08 C 66.60 79.12 59.73 79.13 54.07 77.65 C 57.34 77.11 60.26 75.45 63.15 73.93 C 63.45 73.01 63.75 72.09 64.05 71.18 L 65.69 71.53 C 65.90 70.18 66.12 68.82 66.34 67.47 Z" />
<path fill="#6b1420" opacity="1.00" d=" M 32.30 71.11 C 33.60 71.58 33.47 74.22 32.15 74.58 C 30.84 74.03 30.94 71.54 32.30 71.11 Z" />
<path fill="#6a581b" opacity="1.00" d=" M 36.03 70.61 C 40.04 71.64 42.74 75.59 44.28 79.23 C 39.97 78.44 37.81 74.16 36.03 70.61 Z" />
<path fill="#b6e806" opacity="1.00" d=" M 53.96 75.18 C 57.29 73.76 60.50 71.98 64.05 71.18 C 63.75 72.09 63.45 73.01 63.15 73.93 C 60.26 75.45 57.34 77.11 54.07 77.65 L 52.27 77.73 C 52.74 76.81 53.30 75.96 53.96 75.18 Z" />
<path fill="#ef272f" opacity="1.00" d=" M 75.17 70.70 C 76.68 72.28 78.22 73.86 79.43 75.69 C 79.40 76.43 79.32 77.92 79.28 78.67 C 78.85 78.63 77.97 78.56 77.54 78.52 C 75.88 76.29 75.84 73.32 75.17 70.70 Z" />
<path fill="#fb533c" opacity="1.00" d=" M 68.48 77.08 C 69.49 76.24 70.47 75.36 71.46 74.49 C 71.82 80.36 71.81 86.49 69.02 91.83 C 67.60 92.46 66.19 93.10 64.78 93.73 C 64.41 93.20 63.69 92.15 63.32 91.62 C 63.58 88.98 63.44 86.32 63.21 83.68 C 65.49 82.04 69.39 80.60 68.48 77.08 Z" />
<path fill="#f5473c" opacity="1.00" d=" M 32.39 92.05 C 32.06 86.57 32.76 81.04 34.07 75.73 C 34.10 79.24 34.38 82.75 34.71 86.25 C 35.93 85.03 37.15 83.81 38.31 82.53 C 38.20 88.47 38.30 94.70 41.32 100.01 C 42.64 97.83 43.59 95.47 44.15 92.99 C 44.85 93.65 45.55 94.31 46.26 94.97 C 46.42 94.46 46.73 93.42 46.89 92.90 C 47.93 93.25 48.96 93.59 49.99 93.94 C 50.99 93.04 51.98 92.15 52.99 91.26 C 53.33 91.88 54.00 93.11 54.33 93.72 C 55.82 93.28 57.32 92.85 58.81 92.43 C 59.49 94.49 60.21 96.54 60.95 98.58 C 61.81 96.29 62.64 93.98 63.32 91.62 C 63.69 92.15 64.41 93.20 64.78 93.73 C 66.19 93.10 67.60 92.46 69.02 91.83 C 68.08 93.46 67.06 95.04 65.99 96.59 C 62.52 99.15 58.42 101.00 55.79 104.56 C 49.22 105.21 42.24 104.03 36.82 100.09 C 34.68 97.89 33.16 95.01 32.39 92.05 Z" />
<path fill="#efe7ea" opacity="1.00" d=" M 79.43 75.69 C 79.91 76.75 80.40 77.80 80.75 78.92 C 80.19 80.10 78.88 80.60 77.89 81.34 C 78.72 80.62 79.19 79.73 79.28 78.67 C 79.32 77.92 79.40 76.43 79.43 75.69 Z" />
<path fill="#efe7ea" opacity="1.00" d=" M 74.52 77.30 C 76.01 77.71 76.27 78.64 75.30 80.09 C 74.45 79.31 74.19 78.38 74.52 77.30 Z" />
<path fill="#ff6b3f" opacity="1.00" d=" M 55.33 78.76 C 59.73 79.61 64.71 79.97 68.48 77.08 C 69.39 80.60 65.49 82.04 63.21 83.68 C 61.59 84.66 60.03 85.72 58.48 86.81 C 58.22 86.32 57.69 85.33 57.43 84.84 C 56.68 85.43 55.93 86.02 55.17 86.60 C 54.86 85.98 54.22 84.76 53.91 84.14 C 52.93 84.92 51.95 85.70 50.97 86.48 C 50.10 85.84 49.24 85.20 48.38 84.57 C 48.08 83.77 47.79 82.98 47.49 82.19 C 50.11 81.05 52.72 79.91 55.33 78.76 Z" />
<path fill="#ff6b3f" opacity="1.00" d=" M 77.54 78.52 C 77.97 78.56 78.85 78.63 79.28 78.67 C 79.19 79.73 78.72 80.62 77.89 81.34 C 76.47 80.61 76.36 79.67 77.54 78.52 Z" />
<path fill="#000000" opacity="1.00" d=" M 38.80 81.63 C 40.07 82.63 41.33 83.64 42.59 84.66 C 44.52 84.66 46.45 84.65 48.38 84.57 C 49.24 85.20 50.10 85.84 50.97 86.48 C 51.95 85.70 52.93 84.92 53.91 84.14 C 54.22 84.76 54.86 85.98 55.17 86.60 C 55.93 86.02 56.68 85.43 57.43 84.84 C 57.69 85.33 58.22 86.32 58.48 86.81 C 60.03 85.72 61.59 84.66 63.21 83.68 C 63.44 86.32 63.58 88.98 63.32 91.62 C 62.64 93.98 61.81 96.29 60.95 98.58 C 60.21 96.54 59.49 94.49 58.81 92.43 C 57.32 92.85 55.82 93.28 54.33 93.72 C 54.00 93.11 53.33 91.88 52.99 91.26 C 51.98 92.15 50.99 93.04 49.99 93.94 C 48.96 93.59 47.93 93.25 46.89 92.90 C 46.73 93.42 46.42 94.46 46.26 94.97 C 45.55 94.31 44.85 93.65 44.15 92.99 C 43.59 95.47 42.64 97.83 41.32 100.01 C 38.30 94.70 38.20 88.47 38.31 82.53 L 38.80 81.63 M 38.91 82.67 C 39.18 88.01 39.20 93.46 41.17 98.53 C 41.46 97.95 42.04 96.79 42.33 96.21 C 42.73 94.43 43.13 92.65 43.54 90.87 C 44.06 91.58 45.10 92.99 45.62 93.70 C 46.11 93.32 47.09 92.58 47.58 92.20 C 46.76 90.22 46.29 88.12 45.80 86.04 C 45.40 84.15 42.74 85.05 41.94 86.13 C 41.93 84.38 40.01 83.68 38.91 82.67 M 46.39 85.13 C 46.73 87.54 47.73 89.75 48.86 91.88 C 49.31 91.12 50.22 89.59 50.68 88.83 C 50.56 86.53 48.40 85.47 46.39 85.13 M 51.60 89.19 C 52.37 89.44 53.92 89.94 54.69 90.18 C 54.51 90.67 54.15 91.63 53.96 92.11 L 55.34 92.82 C 55.42 92.27 55.58 91.18 55.67 90.63 C 53.57 89.63 54.53 87.04 54.06 85.24 C 52.45 86.09 51.08 87.16 51.60 89.19 M 58.45 88.12 C 59.02 90.80 59.88 93.41 60.98 95.93 C 61.36 94.93 61.74 93.92 62.12 92.92 C 62.46 90.16 62.52 87.37 62.57 84.59 C 61.19 85.76 59.83 86.95 58.45 88.12 M 56.19 87.16 C 54.71 90.28 59.60 87.11 56.19 87.16 M 50.71 91.40 C 51.36 90.71 51.36 90.71 50.71 91.40 M 50.05 91.99 C 49.26 92.48 49.26 92.48 50.05 91.99 C 50.22 91.84 50.55 91.55 50.71 91.40 C 50.55 91.55 50.22 91.84 50.05 91.99 M 57.25 91.18 C 57.87 91.82 57.87 91.82 57.25 91.18 Z" />
<path fill="#fcf9fa" opacity="1.00" d=" M 38.91 82.67 C 40.01 83.68 41.93 84.38 41.94 86.13 C 42.15 89.49 42.44 92.84 42.33 96.21 C 42.04 96.79 41.46 97.95 41.17 98.53 C 39.20 93.46 39.18 88.01 38.91 82.67 Z" />
<path fill="#efe7ea" opacity="1.00" d=" M 76.14 82.89 C 77.64 86.58 78.51 92.00 73.88 93.83 C 74.44 92.81 75.11 91.88 75.90 91.02 C 76.55 88.36 76.16 85.59 76.14 82.89 Z" />
<path fill="#a19199" opacity="1.00" d=" M 41.94 86.13 C 42.74 85.05 45.40 84.15 45.80 86.04 C 46.29 88.12 46.76 90.22 47.58 92.20 C 47.09 92.58 46.11 93.32 45.62 93.70 C 45.10 92.99 44.06 91.58 43.54 90.87 C 43.13 92.65 42.73 94.43 42.33 96.21 C 42.44 92.84 42.15 89.49 41.94 86.13 M 44.70 90.67 C 45.27 89.32 45.24 87.98 44.59 86.67 C 43.29 86.85 43.47 90.42 44.70 90.67 Z" />
<path fill="#fcf9fa" opacity="1.00" d=" M 46.39 85.13 C 48.40 85.47 50.56 86.53 50.68 88.83 C 50.22 89.59 49.31 91.12 48.86 91.88 C 47.73 89.75 46.73 87.54 46.39 85.13 Z" />
<path fill="#fcf9fa" opacity="1.00" d=" M 51.60 89.19 C 51.08 87.16 52.45 86.09 54.06 85.24 C 54.53 87.04 53.57 89.63 55.67 90.63 C 55.58 91.18 55.42 92.27 55.34 92.82 L 53.96 92.11 C 54.15 91.63 54.51 90.67 54.69 90.18 C 53.92 89.94 52.37 89.44 51.60 89.19 Z" />
<path fill="#efe7ea" opacity="1.00" d=" M 58.45 88.12 C 59.83 86.95 61.19 85.76 62.57 84.59 C 62.52 87.37 62.46 90.16 62.12 92.92 C 61.74 93.92 61.36 94.93 60.98 95.93 C 59.88 93.41 59.02 90.80 58.45 88.12 Z" />
<path fill="#be173e" opacity="1.00" d=" M 71.27 94.27 C 73.19 91.61 74.09 88.40 75.26 85.37 C 75.44 87.25 75.66 89.14 75.90 91.02 C 75.11 91.88 74.44 92.81 73.88 93.83 C 71.39 95.57 69.32 97.82 67.12 99.89 C 66.52 100.14 65.34 100.64 64.75 100.89 C 62.88 101.15 61.45 102.39 60.00 103.48 C 58.95 103.75 56.84 104.29 55.79 104.56 C 58.42 101.00 62.52 99.15 65.99 96.59 C 67.73 95.81 69.80 95.56 71.27 94.27 Z" />
<path fill="#fffcfd" opacity="1.00" d=" M 44.70 90.67 C 43.47 90.42 43.29 86.85 44.59 86.67 C 45.24 87.98 45.27 89.32 44.70 90.67 Z" />
<path fill="#efe7ea" opacity="1.00" d=" M 56.19 87.16 C 59.60 87.11 54.71 90.28 56.19 87.16 Z" />
<path fill="#efe7ea" opacity="1.00" d=" M 50.71 91.40 C 51.36 90.71 51.36 90.71 50.71 91.40 Z" />
<path fill="#b88a9e" opacity="1.00" d=" M 50.05 91.99 C 50.22 91.84 50.55 91.55 50.71 91.40 C 50.55 91.55 50.22 91.84 50.05 91.99 Z" />
<path fill="#efe7ea" opacity="1.00" d=" M 57.25 91.18 C 57.87 91.82 57.87 91.82 57.25 91.18 Z" />
<path fill="#efe7ea" opacity="1.00" d=" M 50.05 91.99 C 49.26 92.48 49.26 92.48 50.05 91.99 Z" />
<path fill="#7b43d6" opacity="1.00" d=" M 67.12 99.89 C 69.32 97.82 71.39 95.57 73.88 93.83 C 74.64 96.66 70.44 99.60 67.70 100.07 L 67.12 99.89 Z" />
<path fill="#a32c7c" opacity="1.00" d=" M 75.78 92.99 L 77.59 93.26 C 77.12 96.01 76.50 98.74 75.49 101.35 C 75.71 99.03 75.76 96.69 75.78 94.36 L 75.78 92.99 Z" />
<path fill="#df1935" opacity="1.00" d=" M 64.98 102.59 C 69.44 101.15 73.08 98.14 75.78 94.36 C 75.76 96.69 75.71 99.03 75.49 101.35 C 74.99 104.35 72.94 106.70 70.98 108.88 C 68.70 107.07 66.51 105.09 64.98 102.59 Z" />
<path fill="#852c7b" opacity="1.00" d=" M 60.00 103.48 C 61.45 102.39 62.88 101.15 64.75 100.89 C 64.85 101.12 65.04 101.57 65.14 101.80 C 63.99 103.10 61.67 104.32 60.00 103.48 Z" />
<path fill="#ffff0a" opacity="1.00" d=" M 42.87 104.34 C 46.56 105.72 50.53 105.89 54.39 105.30 C 52.39 106.21 50.26 106.80 48.05 106.61 C 47.15 106.60 46.25 106.58 45.35 106.55 C 44.73 106.00 43.49 104.89 42.87 104.34 Z" />
<path fill="#38b766" opacity="1.00" d=" M 54.39 105.30 C 55.95 105.12 57.51 104.99 59.08 104.91 C 57.60 105.85 56.09 106.74 54.59 107.64 C 52.41 107.29 50.22 106.99 48.05 106.61 C 50.26 106.80 52.39 106.21 54.39 105.30 Z" />
</svg>
