<?xml version="1.0" encoding="UTF-8" ?>
<!DOCTYPE svg PUBLIC "-//W3C//DTD SVG 1.1//EN" "http://www.w3.org/Graphics/SVG/1.1/DTD/svg11.dtd">
<svg width="111pt" height="111pt" viewBox="0 0 111 111" version="1.1" xmlns="http://www.w3.org/2000/svg">
<path fill="#000000" opacity="1.00" d=" M 25.32 0.00 L 27.70 0.00 L 27.79 0.13 C 26.71 16.10 31.37 32.05 39.59 45.67 C 40.24 46.83 40.90 47.97 41.56 49.12 C 42.37 48.43 43.78 48.21 44.13 47.11 C 46.12 30.98 43.19 14.06 34.85 0.00 L 37.78 0.00 C 39.83 3.64 41.39 7.52 43.07 11.34 C 44.22 7.52 45.32 3.67 46.91 0.00 L 51.26 0.00 C 55.96 14.89 53.73 31.16 48.98 45.77 C 49.54 45.61 50.64 45.28 51.19 45.12 C 52.39 29.22 56.51 13.07 65.99 0.00 L 69.21 0.00 C 60.44 13.58 55.04 29.29 53.46 45.37 L 54.74 45.30 C 56.30 45.20 58.01 45.40 59.34 44.39 C 65.02 40.87 69.37 35.67 73.42 30.45 C 80.40 21.37 85.34 10.88 88.80 0.00 L 91.45 0.00 C 87.52 13.42 80.94 26.12 71.70 36.67 C 68.84 40.14 65.22 42.84 62.09 46.05 C 77.60 37.69 93.77 30.32 111.00 26.33 L 111.00 29.15 C 94.81 32.86 79.30 39.38 65.03 47.83 C 65.49 48.28 66.42 49.16 66.88 49.60 C 67.77 50.46 68.67 51.32 69.58 52.17 C 72.34 51.86 74.35 53.52 75.90 55.58 C 88.13 51.59 100.66 47.54 111.00 39.60 L 111.00 42.68 C 100.09 50.00 88.02 56.03 75.05 58.58 C 75.17 60.41 73.96 62.93 76.01 64.02 C 78.81 66.05 82.42 66.06 85.70 66.60 C 85.59 67.25 85.37 68.54 85.26 69.19 C 88.37 69.41 91.31 71.23 92.75 74.01 C 91.60 76.87 88.88 78.78 86.91 81.08 C 88.26 82.73 89.59 84.38 90.92 86.03 C 89.78 88.87 88.69 91.73 87.76 94.64 C 84.41 93.41 80.45 93.03 77.53 95.48 C 72.65 98.98 72.60 105.59 72.37 111.00 L 67.54 111.00 C 64.92 102.42 63.43 93.03 65.98 84.26 C 67.56 78.78 73.00 76.14 76.47 72.06 C 75.90 70.34 73.68 70.46 72.32 69.68 C 69.96 69.11 68.36 67.29 66.97 65.44 C 65.53 65.97 64.09 66.50 62.64 67.03 C 63.03 67.45 63.80 68.28 64.19 68.69 C 63.01 71.19 64.69 73.50 65.17 75.91 C 65.05 77.73 64.55 79.50 64.21 81.29 C 63.86 81.65 63.15 82.38 62.80 82.74 C 63.71 85.74 63.86 88.88 63.26 91.96 C 62.62 94.69 64.10 97.41 63.36 100.11 C 62.44 103.76 61.45 107.40 60.35 111.00 L 53.97 111.00 C 54.28 110.14 54.59 109.28 54.88 108.41 C 51.52 105.49 51.29 100.90 51.08 96.78 C 48.57 93.46 45.67 90.17 44.70 86.00 C 45.70 82.49 49.83 81.20 52.61 79.28 C 51.72 76.63 53.56 75.05 55.64 73.85 C 55.73 73.16 55.90 71.76 55.99 71.06 C 54.19 70.70 52.42 70.18 50.82 69.26 C 48.13 71.97 45.87 75.06 43.83 78.27 C 45.60 78.26 47.38 78.26 49.15 78.26 C 46.53 81.42 43.42 84.13 40.10 86.54 C 37.76 84.62 35.00 83.33 31.94 83.26 C 31.63 83.92 31.02 85.23 30.71 85.89 C 31.27 86.41 32.38 87.45 32.93 87.97 C 31.82 92.59 29.23 96.69 25.06 99.09 C 22.71 95.68 18.50 93.02 14.38 95.24 C 8.08 97.72 8.05 105.35 7.25 111.00 L 1.65 111.00 C 0.39 106.14 -0.25 101.03 0.48 96.03 C 1.35 90.14 4.87 85.08 8.78 80.77 C 14.36 74.64 22.61 71.95 28.23 65.87 C 28.07 69.45 28.40 73.13 30.58 76.12 C 31.25 75.70 32.58 74.87 33.24 74.45 C 34.96 75.01 36.35 76.26 37.86 77.20 C 39.92 74.87 41.86 72.44 43.67 69.91 C 40.68 70.32 37.19 70.53 34.90 68.14 C 32.29 65.98 32.16 62.41 32.01 59.30 C 25.29 62.29 18.44 65.18 12.37 69.41 C 10.43 70.79 8.32 71.91 6.05 72.67 C 9.23 67.80 14.70 65.32 19.61 62.60 C 24.40 59.94 29.75 58.55 34.60 56.04 C 25.77 50.18 15.18 48.43 5.44 44.75 C 16.24 44.47 26.50 48.94 35.76 54.11 C 36.78 52.66 37.80 51.21 38.83 49.78 C 34.50 41.74 30.27 33.57 27.43 24.87 C 24.81 16.89 24.14 8.31 25.32 0.00 M 44.38 15.01 C 44.96 19.13 46.20 23.13 46.92 27.23 C 47.15 32.24 47.49 37.25 47.48 42.27 C 49.77 36.11 50.54 29.51 51.26 23.02 C 51.41 17.47 51.99 11.73 50.32 6.34 C 50.30 4.40 49.73 2.52 49.29 0.65 C 47.31 5.30 45.34 10.04 44.38 15.01 M 51.41 48.24 C 49.85 48.41 48.30 48.59 46.75 48.79 C 47.77 49.59 48.82 50.36 49.86 51.13 C 50.91 49.90 51.96 48.68 53.01 47.45 C 52.61 47.65 51.81 48.05 51.41 48.24 M 55.06 49.43 C 53.26 51.35 49.59 52.65 49.92 55.71 C 50.90 57.99 51.53 60.41 52.04 62.84 C 52.56 64.89 53.11 66.92 53.68 68.95 C 56.20 67.79 58.67 66.51 61.06 65.10 C 58.98 63.64 57.80 61.51 57.61 58.98 C 58.46 57.97 59.30 56.94 60.10 55.89 C 60.57 55.73 61.53 55.40 62.01 55.24 C 62.83 53.64 63.79 52.12 64.89 50.69 C 63.78 49.64 62.78 48.40 61.41 47.66 C 59.15 47.24 57.07 48.61 55.06 49.43 M 39.93 51.07 C 42.19 51.93 45.09 52.17 46.34 54.57 C 48.55 57.55 47.43 61.44 47.57 64.87 C 48.22 64.38 48.87 63.89 49.52 63.40 C 48.82 59.51 47.19 55.70 47.83 51.69 C 45.34 50.44 42.58 50.25 39.93 51.07 M 64.75 53.77 C 64.69 54.34 64.59 55.49 64.54 56.07 C 64.83 55.76 65.42 55.14 65.72 54.84 C 67.20 54.71 67.76 53.78 67.57 52.39 C 66.62 52.83 65.68 53.30 64.75 53.77 M 36.94 54.80 C 37.39 55.47 38.29 56.81 38.74 57.48 C 37.63 57.08 36.50 56.84 35.36 56.75 C 34.07 57.90 33.48 59.66 33.44 61.36 C 33.47 61.92 33.55 63.03 33.59 63.59 C 34.09 67.26 37.88 68.37 40.83 69.47 C 37.17 64.51 37.73 56.76 43.20 53.36 C 41.02 53.38 38.95 54.01 36.94 54.80 M 71.10 54.02 C 70.63 55.63 71.22 56.19 72.85 55.70 C 73.32 54.09 72.74 53.53 71.10 54.02 M 41.90 67.14 C 44.17 63.55 45.08 59.37 44.66 55.15 C 39.90 56.74 38.80 63.58 41.90 67.14 M 65.88 62.08 L 64.62 61.50 C 64.66 62.65 64.72 63.80 64.78 64.96 C 64.99 63.99 65.19 63.01 65.37 62.04 L 66.16 62.69 C 66.17 59.94 68.13 57.88 69.80 55.91 C 67.34 57.00 63.68 58.77 65.88 62.08 M 60.98 62.10 C 61.95 60.53 62.59 58.77 62.76 56.93 C 60.53 57.89 60.07 59.99 60.98 62.10 M 70.64 66.33 C 72.86 67.67 75.38 68.38 77.81 69.26 C 77.99 69.93 78.36 71.29 78.54 71.96 C 80.60 71.34 82.65 70.56 84.15 68.93 C 81.41 67.98 78.55 67.34 75.95 66.07 C 73.08 64.58 72.12 61.29 70.78 58.59 C 68.04 60.24 68.00 64.55 70.64 66.33 M 45.99 66.09 C 45.24 66.99 44.47 67.89 43.72 68.80 C 45.15 69.26 46.58 69.73 48.01 70.22 C 48.79 68.96 49.58 67.69 50.37 66.43 C 48.91 66.31 47.45 66.20 45.99 66.09 M 57.59 69.60 C 58.22 71.12 57.89 72.71 57.57 74.26 C 58.88 73.99 60.18 73.73 61.49 73.47 C 61.37 71.59 61.26 69.72 61.14 67.84 C 59.96 68.43 58.77 69.00 57.59 69.60 M 14.76 79.50 C 11.06 82.57 7.47 85.96 5.13 90.22 C 2.40 94.93 2.28 100.66 3.17 105.90 C 3.64 107.61 3.33 109.91 5.04 110.99 C 5.23 102.01 8.25 93.46 12.69 85.74 C 15.68 82.38 18.53 78.81 22.23 76.19 C 23.81 74.94 26.07 74.05 26.16 71.70 C 22.42 74.32 17.84 76.18 14.76 79.50 M 76.82 76.03 C 72.82 78.19 69.83 81.80 68.96 86.33 L 68.63 86.69 C 67.53 93.16 67.00 99.98 69.09 106.32 C 69.63 100.46 70.55 94.55 73.26 89.26 C 75.44 84.16 79.52 80.28 83.57 76.64 C 84.55 76.19 85.52 75.74 86.50 75.28 L 86.47 74.33 C 86.97 74.37 87.97 74.46 88.46 74.51 C 88.44 74.03 88.40 73.06 88.38 72.58 C 84.14 71.70 80.24 73.76 76.82 76.03 M 37.89 79.58 C 36.60 79.09 35.32 78.59 34.04 78.10 C 33.43 78.42 32.23 79.07 31.63 79.40 C 30.03 78.28 28.45 77.14 26.87 75.99 C 22.45 78.80 18.38 82.31 15.59 86.79 C 14.65 87.99 14.18 89.47 13.58 90.85 C 12.82 91.86 12.05 92.85 11.28 93.85 C 16.25 91.56 22.23 91.78 26.40 95.61 C 27.83 93.81 29.16 91.93 30.36 89.98 C 28.66 87.52 28.12 84.55 29.61 81.84 C 30.70 81.45 31.79 81.07 32.88 80.67 C 35.52 81.22 38.03 82.31 40.71 82.67 C 42.03 81.91 43.15 80.87 44.26 79.84 C 43.79 80.12 42.86 80.67 42.39 80.94 C 40.61 78.99 42.27 76.91 43.02 74.98 C 41.26 76.45 39.54 77.97 37.89 79.58 M 54.25 77.00 C 54.76 77.91 55.27 78.82 55.78 79.72 C 58.04 78.23 60.61 77.39 63.27 77.01 C 63.34 76.60 63.47 75.78 63.54 75.38 C 61.33 75.75 59.09 75.86 56.89 75.41 C 56.01 75.94 55.13 76.47 54.25 77.00 M 59.99 79.94 C 59.46 81.53 60.03 82.06 61.70 81.53 C 62.23 79.94 61.66 79.41 59.99 79.94 M 78.39 85.94 C 76.99 88.06 75.46 90.20 75.09 92.79 L 74.90 92.88 C 74.57 93.44 73.90 94.54 73.57 95.10 C 77.20 92.00 82.60 89.96 87.12 92.36 C 87.91 90.17 88.96 88.01 89.00 85.64 C 86.98 84.00 85.20 82.10 83.51 80.14 C 81.68 81.96 79.97 83.90 78.39 85.94 M 47.16 86.08 C 48.00 88.66 49.64 90.87 51.11 93.11 C 51.49 88.97 52.72 85.00 54.16 81.13 C 51.92 82.84 48.60 83.64 47.16 86.08 M 56.50 82.48 L 56.41 83.26 C 54.00 87.30 53.27 92.09 53.53 96.73 C 53.46 99.20 54.04 101.63 54.60 104.03 C 56.08 99.31 59.28 95.47 61.10 90.95 C 61.27 88.94 61.73 86.86 61.12 84.89 C 60.31 83.07 58.34 82.48 56.50 82.48 M 56.11 108.87 C 57.18 108.75 58.25 108.63 59.31 108.50 C 59.32 104.53 59.94 100.61 61.54 96.96 C 59.07 100.60 57.60 104.77 56.11 108.87 Z" />
<path fill="#a68177" opacity="1.00" d=" M 27.70 0.00 L 34.85 0.00 C 43.19 14.06 46.12 30.98 44.13 47.11 C 43.78 48.21 42.37 48.43 41.56 49.12 C 40.90 47.97 40.24 46.83 39.59 45.67 C 39.79 35.25 39.08 24.53 35.26 14.73 C 33.10 9.71 30.83 4.69 27.79 0.13 L 27.70 0.00 Z" />
<path fill="#f1d3b1" opacity="1.00" d=" M 69.21 0.00 L 80.61 0.00 C 73.65 15.94 65.75 31.73 54.74 45.30 L 53.46 45.37 C 55.04 29.29 60.44 13.58 69.21 0.00 Z" />
<path fill="#a37e74" opacity="1.00" d=" M 80.61 0.00 L 88.80 0.00 C 85.34 10.88 80.40 21.37 73.42 30.45 C 69.37 35.67 65.02 40.87 59.34 44.39 C 58.01 45.40 56.30 45.20 54.74 45.30 C 65.75 31.73 73.65 15.94 80.61 0.00 Z" />
<path fill="#f1d3b1" opacity="1.00" d=" M 27.79 0.13 C 30.83 4.69 33.10 9.71 35.26 14.73 C 39.08 24.53 39.79 35.25 39.59 45.67 C 31.37 32.05 26.71 16.10 27.79 0.13 Z" />
<path fill="#b58e82" opacity="1.00" d=" M 44.38 15.01 C 45.34 10.04 47.31 5.30 49.29 0.65 C 49.73 2.52 50.30 4.40 50.32 6.34 C 50.12 8.14 49.86 9.94 49.58 11.74 C 49.05 11.03 48.53 10.32 48.01 9.61 C 47.58 15.48 47.54 21.38 46.92 27.23 C 46.20 23.13 44.96 19.13 44.38 15.01 Z" />
<path fill="#875956" opacity="1.00" d=" M 50.32 6.34 C 51.99 11.73 51.41 17.47 51.26 23.02 C 50.54 29.51 49.77 36.11 47.48 42.27 C 47.49 37.25 47.15 32.24 46.92 27.23 C 47.54 21.38 47.58 15.48 48.01 9.61 C 48.53 10.32 49.05 11.03 49.58 11.74 C 49.86 9.94 50.12 8.14 50.32 6.34 Z" />
<path fill="#f1d3b1" opacity="1.00" d=" M 65.03 47.83 C 79.30 39.38 94.81 32.86 111.00 29.15 L 111.00 33.45 C 97.06 40.66 82.15 46.00 66.88 49.60 C 66.42 49.16 65.49 48.28 65.03 47.83 Z" />
<path fill="#a47f75" opacity="1.00" d=" M 66.88 49.60 C 82.15 46.00 97.06 40.66 111.00 33.45 L 111.00 39.60 C 100.66 47.54 88.13 51.59 75.90 55.58 C 74.35 53.52 72.34 51.86 69.58 52.17 C 68.67 51.32 67.77 50.46 66.88 49.60 Z" />
<path fill="#ffd17b" opacity="1.00" d=" M 51.41 48.24 C 51.81 48.05 52.61 47.65 53.01 47.45 C 51.96 48.68 50.91 49.90 49.86 51.13 C 48.82 50.36 47.77 49.59 46.75 48.79 C 48.30 48.59 49.85 48.41 51.41 48.24 Z" />
<path fill="#a9502f" opacity="1.00" d=" M 55.06 49.43 C 57.07 48.61 59.15 47.24 61.41 47.66 C 62.78 48.40 63.78 49.64 64.89 50.69 C 63.79 52.12 62.83 53.64 62.01 55.24 C 61.53 55.40 60.57 55.73 60.10 55.89 C 61.05 54.61 61.95 53.30 62.86 51.99 C 60.78 51.10 58.71 50.19 56.57 49.47 L 55.06 49.43 Z" />
<path fill="#6c6564" opacity="1.00" d=" M 39.93 51.07 C 42.58 50.25 45.34 50.44 47.83 51.69 C 47.19 55.70 48.82 59.51 49.52 63.40 C 48.87 63.89 48.22 64.38 47.57 64.87 C 47.43 61.44 48.55 57.55 46.34 54.57 C 45.09 52.17 42.19 51.93 39.93 51.07 Z" />
<path fill="#ffffff" opacity="1.00" d=" M 49.92 55.71 C 49.59 52.65 53.26 51.35 55.06 49.43 L 56.57 49.47 C 54.46 51.66 52.27 53.78 49.92 55.71 Z" />
<path fill="#ffd17b" opacity="1.00" d=" M 56.57 49.47 C 58.71 50.19 60.78 51.10 62.86 51.99 C 61.95 53.30 61.05 54.61 60.10 55.89 C 59.30 56.94 58.46 57.97 57.61 58.98 C 57.31 59.33 56.70 60.05 56.40 60.40 C 56.25 61.99 56.11 63.58 55.96 65.16 C 55.80 64.50 55.46 63.17 55.29 62.50 C 54.48 62.59 52.85 62.76 52.04 62.84 C 51.53 60.41 50.90 57.99 49.92 55.71 C 52.27 53.78 54.46 51.66 56.57 49.47 Z" />
<path fill="#d7c9c7" opacity="1.00" d=" M 64.75 53.77 C 65.68 53.30 66.62 52.83 67.57 52.39 C 67.76 53.78 67.20 54.71 65.72 54.84 C 65.42 55.14 64.83 55.76 64.54 56.07 C 64.59 55.49 64.69 54.34 64.75 53.77 Z" />
<path fill="#ffde83" opacity="1.00" d=" M 36.94 54.80 C 38.95 54.01 41.02 53.38 43.20 53.36 C 37.73 56.76 37.17 64.51 40.83 69.47 C 37.88 68.37 34.09 67.26 33.59 63.59 C 35.32 63.67 35.08 61.16 33.44 61.36 C 33.48 59.66 34.07 57.90 35.36 56.75 C 36.50 56.84 37.63 57.08 38.74 57.48 C 38.29 56.81 37.39 55.47 36.94 54.80 Z" />
<path fill="#3e3838" opacity="1.00" d=" M 71.10 54.02 C 72.74 53.53 73.32 54.09 72.85 55.70 C 71.22 56.19 70.63 55.63 71.10 54.02 Z" />
<path fill="#484853" opacity="1.00" d=" M 41.90 67.14 C 38.80 63.58 39.90 56.74 44.66 55.15 C 45.08 59.37 44.17 63.55 41.90 67.14 Z" />
<path fill="#d7c9c7" opacity="1.00" d=" M 65.88 62.08 C 63.68 58.77 67.34 57.00 69.80 55.91 C 68.13 57.88 66.17 59.94 66.16 62.69 L 65.37 62.04 C 65.19 63.01 64.99 63.99 64.78 64.96 C 64.72 63.80 64.66 62.65 64.62 61.50 L 65.88 62.08 Z" />
<path fill="#d5c7c4" opacity="1.00" d=" M 60.98 62.10 C 60.07 59.99 60.53 57.89 62.76 56.93 C 62.59 58.77 61.95 60.53 60.98 62.10 Z" />
<path fill="#ae633a" opacity="1.00" d=" M 56.40 60.40 C 56.70 60.05 57.31 59.33 57.61 58.98 C 57.80 61.51 58.98 63.64 61.06 65.10 C 58.67 66.51 56.20 67.79 53.68 68.95 C 53.11 66.92 52.56 64.89 52.04 62.84 C 52.85 62.76 54.48 62.59 55.29 62.50 C 55.46 63.17 55.80 64.50 55.96 65.16 C 56.11 63.58 56.25 61.99 56.40 60.40 Z" />
<path fill="#29292e" opacity="1.00" d=" M 70.64 66.33 C 68.00 64.55 68.04 60.24 70.78 58.59 C 72.12 61.29 73.08 64.58 75.95 66.07 C 78.55 67.34 81.41 67.98 84.15 68.93 C 82.65 70.56 80.60 71.34 78.54 71.96 C 78.36 71.29 77.99 69.93 77.81 69.26 C 75.38 68.38 72.86 67.67 70.64 66.33 Z" />
<path fill="#fff9d7" opacity="1.00" d=" M 33.44 61.36 C 35.08 61.16 35.32 63.67 33.59 63.59 C 33.55 63.03 33.47 61.92 33.44 61.36 Z" />
<path fill="#bf6b3e" opacity="1.00" d=" M 45.99 66.09 C 47.45 66.20 48.91 66.31 50.37 66.43 C 49.58 67.69 48.79 68.96 48.01 70.22 C 46.58 69.73 45.15 69.26 43.72 68.80 C 44.47 67.89 45.24 66.99 45.99 66.09 Z" />
<path fill="#474040" opacity="1.00" d=" M 57.59 69.60 C 58.77 69.00 59.96 68.43 61.14 67.84 C 61.26 69.72 61.37 71.59 61.49 73.47 C 60.18 73.73 58.88 73.99 57.57 74.26 C 57.89 72.71 58.22 71.12 57.59 69.60 Z" />
<path fill="#e3a360" opacity="1.00" d=" M 14.76 79.50 C 17.84 76.18 22.42 74.32 26.16 71.70 C 26.07 74.05 23.81 74.94 22.23 76.19 C 18.53 78.81 15.68 82.38 12.69 85.74 C 13.47 83.69 14.09 81.59 14.76 79.50 Z" />
<path fill="#f8c875" opacity="1.00" d=" M 76.82 76.03 C 80.24 73.76 84.14 71.70 88.38 72.58 C 88.40 73.06 88.44 74.03 88.46 74.51 C 87.97 74.46 86.97 74.37 86.47 74.33 L 86.50 75.28 C 85.52 75.74 84.55 76.19 83.57 76.64 C 79.52 80.28 75.44 84.16 73.26 89.26 C 70.55 94.55 69.63 100.46 69.09 106.32 C 67.00 99.98 67.53 93.16 68.63 86.69 L 68.96 86.33 C 70.09 85.10 71.21 83.86 72.32 82.62 C 72.84 82.59 73.87 82.52 74.39 82.49 C 74.99 80.26 75.60 78.00 76.82 76.03 Z" />
<path fill="#4d4143" opacity="1.00" d=" M 37.89 79.58 C 39.54 77.97 41.26 76.45 43.02 74.98 C 42.27 76.91 40.61 78.99 42.39 80.94 C 42.06 81.15 41.40 81.55 41.06 81.75 C 37.68 81.93 34.51 80.09 31.11 80.52 C 29.48 80.83 28.10 81.85 26.64 82.60 C 22.52 82.52 18.67 84.10 15.59 86.79 C 18.38 82.31 22.45 78.80 26.87 75.99 C 28.45 77.14 30.03 78.28 31.63 79.40 C 32.23 79.07 33.43 78.42 34.04 78.10 C 35.32 78.59 36.60 79.09 37.89 79.58 Z" />
<path fill="#e3a360" opacity="1.00" d=" M 54.25 77.00 C 55.13 76.47 56.01 75.94 56.89 75.41 C 59.09 75.86 61.33 75.75 63.54 75.38 C 63.47 75.78 63.34 76.60 63.27 77.01 C 60.61 77.39 58.04 78.23 55.78 79.72 C 55.27 78.82 54.76 77.91 54.25 77.00 Z" />
<path fill="#ffffff" opacity="1.00" d=" M 68.96 86.33 C 69.83 81.80 72.82 78.19 76.82 76.03 C 75.60 78.00 74.99 80.26 74.39 82.49 C 73.87 82.52 72.84 82.59 72.32 82.62 C 71.21 83.86 70.09 85.10 68.96 86.33 Z" />
<path fill="#ffda81" opacity="1.00" d=" M 14.76 79.50 C 14.09 81.59 13.47 83.69 12.69 85.74 C 8.25 93.46 5.23 102.01 5.04 110.99 C 3.33 109.91 3.64 107.61 3.17 105.90 C 2.28 100.66 2.40 94.93 5.13 90.22 C 7.47 85.96 11.06 82.57 14.76 79.50 Z" />
<path fill="#d5c7c4" opacity="1.00" d=" M 26.64 82.60 C 28.10 81.85 29.48 80.83 31.11 80.52 C 34.51 80.09 37.68 81.93 41.06 81.75 C 41.40 81.55 42.06 81.15 42.39 80.94 C 42.86 80.67 43.79 80.12 44.26 79.84 C 43.15 80.87 42.03 81.91 40.71 82.67 C 38.03 82.31 35.52 81.22 32.88 80.67 C 31.79 81.07 30.70 81.45 29.61 81.84 C 28.12 84.55 28.66 87.52 30.36 89.98 C 29.16 91.93 27.83 93.81 26.40 95.61 C 22.23 91.78 16.25 91.56 11.28 93.85 C 12.05 92.85 12.82 91.86 13.58 90.85 C 18.35 90.26 23.27 90.72 27.24 93.69 C 28.21 90.00 27.13 86.27 26.64 82.60 Z" />
<path fill="#524c4c" opacity="1.00" d=" M 59.99 79.94 C 61.66 79.41 62.23 79.94 61.70 81.53 C 60.03 82.06 59.46 81.53 59.99 79.94 Z" />
<path fill="#514647" opacity="1.00" d=" M 78.39 85.94 C 79.97 83.90 81.68 81.96 83.51 80.14 C 85.20 82.10 86.98 84.00 89.00 85.64 C 88.34 86.40 87.68 87.16 87.02 87.93 C 84.14 87.27 81.26 86.62 78.39 85.94 Z" />
<path fill="#ffd880" opacity="1.00" d=" M 47.16 86.08 C 48.60 83.64 51.92 82.84 54.16 81.13 C 52.72 85.00 51.49 88.97 51.11 93.11 C 49.64 90.87 48.00 88.66 47.16 86.08 Z" />
<path fill="#6c6564" opacity="1.00" d=" M 15.59 86.79 C 18.67 84.10 22.52 82.52 26.64 82.60 C 27.13 86.27 28.21 90.00 27.24 93.69 C 23.27 90.72 18.35 90.26 13.58 90.85 C 14.18 89.47 14.65 87.99 15.59 86.79 Z" />
<path fill="#fdce79" opacity="1.00" d=" M 56.50 82.48 C 58.34 82.48 60.31 83.07 61.12 84.89 C 61.73 86.86 61.27 88.94 61.10 90.95 C 59.28 95.47 56.08 99.31 54.60 104.03 C 54.04 101.63 53.46 99.20 53.53 96.73 C 54.28 92.19 55.96 87.85 56.41 83.26 L 56.50 82.48 Z" />
<path fill="#ffffff" opacity="1.00" d=" M 53.53 96.73 C 53.27 92.09 54.00 87.30 56.41 83.26 C 55.96 87.85 54.28 92.19 53.53 96.73 Z" />
<path fill="#655e5d" opacity="1.00" d=" M 75.09 92.79 C 75.46 90.20 76.99 88.06 78.39 85.94 C 81.26 86.62 84.14 87.27 87.02 87.93 C 86.70 88.29 86.05 89.02 85.72 89.39 C 81.94 89.68 78.39 90.98 75.09 92.79 Z" />
<path fill="#d7c9c7" opacity="1.00" d=" M 87.02 87.93 C 87.68 87.16 88.34 86.40 89.00 85.64 C 88.96 88.01 87.91 90.17 87.12 92.36 C 82.60 89.96 77.20 92.00 73.57 95.10 C 73.90 94.54 74.57 93.44 74.90 92.88 L 75.09 92.79 C 78.39 90.98 81.94 89.68 85.72 89.39 C 86.05 89.02 86.70 88.29 87.02 87.93 Z" />
<path fill="#6c6564" opacity="1.00" d=" M 56.11 108.87 C 57.60 104.77 59.07 100.60 61.54 96.96 C 59.94 100.61 59.32 104.53 59.31 108.50 C 58.25 108.63 57.18 108.75 56.11 108.87 Z" />
</svg>
