<?xml version="1.0" encoding="UTF-8" ?>
<!DOCTYPE svg PUBLIC "-//W3C//DTD SVG 1.1//EN" "http://www.w3.org/Graphics/SVG/1.1/DTD/svg11.dtd">
<svg width="111pt" height="111pt" viewBox="0 0 111 111" version="1.1" xmlns="http://www.w3.org/2000/svg">
<path fill="#000000" opacity="1.00" d=" M 28.18 0.00 L 29.96 0.00 C 31.23 4.65 32.43 9.32 34.09 13.86 C 35.26 17.24 36.41 20.85 39.31 23.19 C 39.62 15.42 39.49 7.50 37.14 0.00 L 39.24 0.00 C 40.72 6.14 41.62 12.44 41.51 18.76 C 45.43 21.80 45.92 26.88 45.87 31.48 C 46.45 31.58 47.61 31.78 48.19 31.88 C 48.76 33.39 49.43 34.87 50.17 36.31 C 52.98 35.58 55.81 34.74 58.11 32.88 C 58.40 33.18 59.00 33.77 59.30 34.07 L 57.93 35.07 C 58.81 35.25 59.70 35.44 60.59 35.63 C 60.89 34.37 61.20 33.11 61.43 31.83 C 61.06 31.81 60.32 31.76 59.95 31.73 C 61.40 30.64 62.91 29.63 64.41 28.62 C 63.67 31.17 62.66 33.66 62.17 36.28 C 63.39 38.59 64.63 40.92 64.46 43.63 C 69.06 45.49 73.66 47.37 78.27 49.21 C 77.01 45.60 76.39 41.43 73.08 39.01 C 87.01 40.12 99.77 46.89 111.00 54.79 L 111.00 57.03 C 109.43 55.86 107.78 54.81 106.13 53.76 C 101.75 57.66 96.26 53.40 93.10 50.01 C 93.18 49.21 93.33 47.60 93.41 46.79 C 88.76 44.72 83.97 42.98 79.03 41.74 C 79.62 43.78 80.20 45.81 80.77 47.85 C 81.96 51.78 82.90 56.01 85.46 59.32 C 86.17 59.53 87.60 59.95 88.32 60.17 C 93.72 61.22 99.14 62.27 104.65 62.58 C 106.77 62.80 108.88 63.11 111.00 63.39 L 111.00 68.41 C 109.04 70.50 106.87 72.39 104.67 74.23 C 97.04 80.27 89.84 86.81 82.38 93.05 C 74.99 99.01 67.63 105.00 60.29 111.00 L 55.26 111.00 C 48.70 105.10 42.88 97.79 39.99 89.37 C 37.03 91.46 33.43 92.18 30.22 93.76 C 29.37 99.65 29.32 106.02 25.50 111.00 L 22.27 111.00 C 22.00 104.97 21.02 98.81 17.56 93.70 C 19.34 91.45 21.92 90.16 24.54 89.13 C 22.86 87.31 21.28 85.39 19.82 83.38 C 19.53 84.05 18.93 85.38 18.64 86.05 C 18.57 88.16 18.04 90.20 17.10 92.09 C 16.64 91.44 15.72 90.13 15.26 89.48 C 14.43 89.55 12.77 89.69 11.93 89.77 C 10.61 91.22 9.22 92.61 7.73 93.90 C 7.78 90.61 8.23 87.08 10.50 84.51 C 15.87 78.47 18.55 70.58 23.91 64.53 C 25.28 65.14 26.65 65.76 28.02 66.38 C 28.37 65.01 28.73 63.65 29.08 62.29 C 27.64 60.58 26.08 58.87 25.36 56.71 C 24.27 53.80 25.42 50.72 26.00 47.82 C 23.43 45.55 20.62 43.55 18.27 41.03 C 21.08 41.27 23.86 41.72 26.65 42.10 C 24.55 38.41 21.23 35.04 22.28 30.38 C 14.68 28.04 7.03 25.59 0.00 21.82 L 0.00 19.80 C 2.54 21.22 5.17 22.46 7.84 23.63 C 12.42 25.48 17.04 27.24 21.67 28.95 C 17.39 24.53 11.94 21.41 6.34 18.97 C 4.22 18.26 2.08 17.63 0.00 16.81 L 0.00 14.40 C 8.82 17.30 17.35 21.63 23.48 28.80 C 26.54 25.06 30.00 21.47 34.61 19.71 C 31.77 13.40 29.08 6.91 28.18 0.00 M 30.57 25.32 C 28.16 27.46 26.03 29.95 24.53 32.82 C 25.19 34.35 25.84 35.90 26.52 37.42 C 28.06 38.85 29.61 40.28 31.15 41.71 C 33.96 41.18 35.60 38.83 37.15 36.67 C 36.50 36.58 35.21 36.40 34.56 36.31 C 37.09 34.88 39.17 32.31 39.27 29.31 C 39.45 30.97 39.45 32.64 39.28 34.31 C 40.64 33.48 42.01 32.67 43.39 31.87 C 43.36 28.43 43.45 24.79 41.56 21.75 C 40.59 23.65 39.43 25.54 39.11 27.70 L 38.87 26.27 C 37.64 27.61 36.40 28.93 35.31 30.38 L 35.39 28.66 C 36.50 27.39 37.70 26.21 38.88 25.01 C 37.88 23.91 36.88 22.81 35.89 21.71 C 34.05 22.79 32.01 23.70 30.57 25.32 M 34.30 47.18 C 37.90 44.12 41.59 41.12 44.64 37.49 C 44.59 36.05 44.55 34.60 44.48 33.16 C 39.08 35.62 34.12 40.89 34.30 47.18 M 56.18 35.78 L 56.01 36.18 C 52.55 37.37 49.16 39.63 48.41 43.48 C 48.54 43.94 48.79 44.86 48.92 45.32 C 50.57 49.72 56.72 49.35 59.99 47.09 C 62.78 45.10 61.91 41.21 60.72 38.54 C 59.24 37.56 57.73 36.64 56.18 35.78 M 41.62 44.81 C 41.67 45.77 41.77 47.69 41.82 48.65 C 40.75 51.39 40.59 54.45 39.08 57.03 C 37.98 59.30 35.89 60.82 34.12 62.53 C 34.29 62.80 34.65 63.35 34.83 63.62 C 41.68 61.43 45.77 55.01 50.33 49.88 C 48.93 48.05 47.94 45.99 47.13 43.85 C 47.56 41.24 48.74 38.88 50.10 36.65 C 46.33 38.11 44.91 42.56 41.62 44.81 M 28.14 42.37 C 26.53 45.33 31.52 42.54 28.14 42.37 M 24.29 44.76 C 25.89 45.53 26.59 42.84 25.03 42.42 C 23.37 41.68 22.54 44.36 24.29 44.76 M 26.81 50.89 C 26.07 54.04 27.40 57.10 29.34 59.52 C 30.22 60.22 31.10 60.93 31.97 61.64 C 38.19 58.86 40.18 51.77 40.96 45.59 C 38.37 47.05 35.60 48.17 32.63 48.55 C 32.49 46.49 32.46 44.43 32.58 42.38 C 29.90 44.61 27.84 47.55 26.81 50.89 M 62.21 48.10 C 67.86 50.34 73.68 52.06 79.45 53.96 C 79.07 52.87 78.69 51.79 78.32 50.71 C 73.42 49.04 68.54 47.34 63.79 45.30 C 63.40 46.00 62.61 47.40 62.21 48.10 M 93.81 47.68 C 95.12 52.01 100.09 54.90 104.51 54.38 L 104.08 53.02 C 101.16 50.54 97.55 48.62 93.81 47.68 M 51.06 50.26 C 49.25 54.38 46.68 58.18 43.18 61.07 C 46.00 64.38 45.01 69.31 41.56 71.72 C 42.82 74.02 42.46 76.65 42.28 79.15 C 46.35 76.60 50.89 74.84 55.54 73.68 C 53.99 79.25 49.11 82.89 44.87 86.41 C 45.68 86.49 47.30 86.66 48.10 86.74 C 52.87 93.57 55.96 101.46 59.13 109.13 C 66.74 103.83 73.47 97.43 80.78 91.75 C 90.32 83.89 99.23 75.24 109.53 68.34 C 109.29 67.57 108.82 66.03 108.58 65.26 C 101.48 65.76 94.35 64.41 87.53 62.53 C 84.01 61.62 81.86 58.55 80.00 55.68 C 73.65 53.66 66.90 52.58 61.07 49.18 C 57.84 50.23 54.45 50.70 51.06 50.26 M 30.31 63.08 C 29.32 65.89 28.33 68.70 27.57 71.59 C 30.55 70.73 31.95 67.89 32.96 65.23 C 32.08 64.51 31.20 63.80 30.31 63.08 M 35.48 66.05 C 35.52 69.35 40.20 70.64 41.95 67.90 C 43.22 66.11 42.08 64.01 41.04 62.44 C 39.15 63.60 37.31 64.81 35.48 66.05 M 24.11 66.52 C 23.23 67.74 22.33 68.95 21.45 70.17 L 21.17 70.30 C 19.74 74.69 16.03 77.96 15.11 82.54 C 16.34 82.66 17.57 82.77 18.81 82.88 C 18.68 80.77 18.53 78.66 18.43 76.55 L 19.81 76.28 C 21.79 77.29 23.77 78.32 25.87 79.05 C 27.03 80.24 28.49 81.03 30.08 81.48 C 30.22 79.11 31.00 76.88 32.27 74.88 C 30.45 76.35 28.51 77.68 26.42 78.75 C 28.00 76.20 31.42 74.76 31.54 71.46 C 29.89 71.78 28.24 72.10 26.59 72.42 C 26.78 70.60 26.98 68.78 27.18 66.97 C 26.16 66.82 25.13 66.67 24.11 66.52 M 31.58 69.76 C 32.12 71.08 32.64 72.41 33.12 73.76 C 33.97 72.93 34.88 72.15 35.66 71.25 C 35.02 69.80 34.41 68.33 34.08 66.77 C 33.24 67.77 32.41 68.77 31.58 69.76 M 31.75 80.98 C 33.62 81.36 35.74 82.89 37.51 81.46 C 41.03 79.79 40.87 75.20 39.62 72.09 C 35.05 71.94 32.40 77.05 31.75 80.98 M 38.91 82.85 C 37.03 83.86 34.94 85.00 34.11 87.10 C 33.50 88.38 33.72 90.83 35.66 89.71 C 41.90 86.54 47.63 82.28 52.15 76.90 C 47.39 78.04 43.22 80.65 38.91 82.85 M 20.11 78.94 C 21.36 82.36 23.70 85.19 26.39 87.58 C 26.30 85.68 26.36 83.77 26.61 81.88 C 24.57 80.64 22.46 79.47 20.11 78.94 M 9.99 88.63 C 12.34 88.18 14.74 88.18 17.06 88.76 C 16.91 87.73 16.76 86.69 16.62 85.65 C 15.67 84.63 14.74 83.60 13.81 82.56 C 12.47 84.54 11.22 86.58 9.99 88.63 M 28.12 83.26 C 28.19 86.25 28.83 89.53 31.40 91.40 C 31.44 88.44 32.84 85.85 34.09 83.26 C 32.10 83.23 30.11 83.23 28.12 83.26 M 42.16 90.65 C 46.16 97.85 51.15 104.54 57.13 110.21 C 54.29 102.73 50.80 95.47 47.10 88.37 C 45.55 89.32 43.93 90.19 42.16 90.65 M 19.56 93.72 C 20.39 95.39 21.19 97.08 21.99 98.77 C 23.12 102.75 23.87 106.83 23.67 110.99 C 27.95 105.18 29.73 97.07 27.54 90.14 C 24.70 90.89 21.88 91.86 19.56 93.72 Z" />
<path fill="#666e84" opacity="1.00" d=" M 29.96 0.00 L 36.72 0.00 C 36.26 4.68 35.95 9.47 34.09 13.86 C 32.43 9.32 31.23 4.65 29.96 0.00 Z" />
<path fill="#373c5d" opacity="1.00" d=" M 36.72 0.00 L 37.14 0.00 C 39.49 7.50 39.62 15.42 39.31 23.19 C 36.41 20.85 35.26 17.24 34.09 13.86 C 35.95 9.47 36.26 4.68 36.72 0.00 Z" />
<path fill="#687083" opacity="1.00" d=" M 0.00 16.81 C 2.08 17.63 4.22 18.26 6.34 18.97 C 7.11 20.42 7.64 21.99 7.84 23.63 C 5.17 22.46 2.54 21.22 0.00 19.80 L 0.00 16.81 Z" />
<path fill="#3b405a" opacity="1.00" d=" M 6.34 18.97 C 11.94 21.41 17.39 24.53 21.67 28.95 C 17.04 27.24 12.42 25.48 7.84 23.63 C 7.64 21.99 7.11 20.42 6.34 18.97 Z" />
<path fill="#4f5069" opacity="1.00" d=" M 30.57 25.32 C 32.01 23.70 34.05 22.79 35.89 21.71 C 36.88 22.81 37.88 23.91 38.88 25.01 C 37.70 26.21 36.50 27.39 35.39 28.66 C 31.68 31.97 32.05 37.23 31.15 41.71 C 29.61 40.28 28.06 38.85 26.52 37.42 C 26.53 35.85 26.55 34.27 26.56 32.70 C 27.33 32.66 28.87 32.59 29.64 32.56 C 29.97 30.15 30.18 27.72 30.57 25.32 Z" />
<path fill="#3d395a" opacity="1.00" d=" M 41.56 21.75 C 43.45 24.79 43.36 28.43 43.39 31.87 C 42.01 32.67 40.64 33.48 39.28 34.31 C 39.45 32.64 39.45 30.97 39.27 29.31 C 39.23 28.91 39.15 28.10 39.11 27.70 C 39.43 25.54 40.59 23.65 41.56 21.75 Z" />
<path fill="#ffffdb" opacity="1.00" d=" M 24.53 32.82 C 26.03 29.95 28.16 27.46 30.57 25.32 C 30.18 27.72 29.97 30.15 29.64 32.56 C 28.87 32.59 27.33 32.66 26.56 32.70 C 26.55 34.27 26.53 35.85 26.52 37.42 C 25.84 35.90 25.19 34.35 24.53 32.82 Z" />
<path fill="#d96194" opacity="1.00" d=" M 38.87 26.27 L 39.11 27.70 C 39.15 28.10 39.23 28.91 39.27 29.31 C 39.17 32.31 37.09 34.88 34.56 36.31 L 33.43 36.20 C 33.99 34.24 34.62 32.30 35.31 30.38 C 36.40 28.93 37.64 27.61 38.87 26.27 Z" />
<path fill="#362d41" opacity="1.00" d=" M 31.15 41.71 C 32.05 37.23 31.68 31.97 35.39 28.66 L 35.31 30.38 C 34.62 32.30 33.99 34.24 33.43 36.20 L 34.56 36.31 C 35.21 36.40 36.50 36.58 37.15 36.67 C 35.60 38.83 33.96 41.18 31.15 41.71 Z" />
<path fill="#666e84" opacity="1.00" d=" M 58.11 32.88 C 58.57 32.60 59.49 32.02 59.95 31.73 C 60.32 31.76 61.06 31.81 61.43 31.83 C 61.20 33.11 60.89 34.37 60.59 35.63 C 59.70 35.44 58.81 35.25 57.93 35.07 L 59.30 34.07 C 59.00 33.77 58.40 33.18 58.11 32.88 Z" />
<path fill="#737b8e" opacity="1.00" d=" M 34.30 47.18 C 34.12 40.89 39.08 35.62 44.48 33.16 C 44.55 34.60 44.59 36.05 44.64 37.49 C 41.59 41.12 37.90 44.12 34.30 47.18 Z" />
<path fill="#54556d" opacity="1.00" d=" M 56.18 35.78 C 57.73 36.64 59.24 37.56 60.72 38.54 C 58.91 40.81 57.36 43.38 55.03 45.18 C 53.13 46.04 50.93 45.42 48.92 45.32 C 48.79 44.86 48.54 43.94 48.41 43.48 C 48.96 43.01 50.04 42.07 50.59 41.60 C 52.98 42.33 54.26 41.01 54.86 38.85 C 55.25 37.96 55.63 37.07 56.01 36.18 L 56.18 35.78 Z" />
<path fill="#4f5066" opacity="1.00" d=" M 41.62 44.81 C 44.91 42.56 46.33 38.11 50.10 36.65 C 48.74 38.88 47.56 41.24 47.13 43.85 C 45.35 45.44 43.53 46.98 41.82 48.65 C 41.77 47.69 41.67 45.77 41.62 44.81 Z" />
<path fill="#ffffdc" opacity="1.00" d=" M 48.41 43.48 C 49.16 39.63 52.55 37.37 56.01 36.18 C 55.63 37.07 55.25 37.96 54.86 38.85 C 54.26 41.01 52.98 42.33 50.59 41.60 C 50.04 42.07 48.96 43.01 48.41 43.48 Z" />
<path fill="#332f50" opacity="1.00" d=" M 60.72 38.54 C 61.91 41.21 62.78 45.10 59.99 47.09 C 56.72 49.35 50.57 49.72 48.92 45.32 C 50.93 45.42 53.13 46.04 55.03 45.18 C 57.36 43.38 58.91 40.81 60.72 38.54 Z" />
<path fill="#79828f" opacity="1.00" d=" M 28.14 42.37 C 31.52 42.54 26.53 45.33 28.14 42.37 Z" />
<path fill="#585a70" opacity="1.00" d=" M 79.03 41.74 C 83.97 42.98 88.76 44.72 93.41 46.79 C 93.33 47.60 93.18 49.21 93.10 50.01 C 96.26 53.40 101.75 57.66 106.13 53.76 C 107.78 54.81 109.43 55.86 111.00 57.03 L 111.00 63.39 C 108.88 63.11 106.77 62.80 104.65 62.58 C 100.14 57.99 94.00 55.68 88.35 52.85 C 85.66 51.44 83.23 49.61 80.77 47.85 C 80.20 45.81 79.62 43.78 79.03 41.74 Z" />
<path fill="#8993a1" opacity="1.00" d=" M 26.81 50.89 C 27.84 47.55 29.90 44.61 32.58 42.38 C 32.46 44.43 32.49 46.49 32.63 48.55 C 33.97 48.57 35.31 48.61 36.65 48.65 C 36.76 53.58 32.87 56.80 29.34 59.52 C 27.40 57.10 26.07 54.04 26.81 50.89 Z" />
<path fill="#2f2a49" opacity="1.00" d=" M 41.82 48.65 C 43.53 46.98 45.35 45.44 47.13 43.85 C 47.94 45.99 48.93 48.05 50.33 49.88 C 45.77 55.01 41.68 61.43 34.83 63.62 C 34.65 63.35 34.29 62.80 34.12 62.53 C 35.89 60.82 37.98 59.30 39.08 57.03 C 40.59 54.45 40.75 51.39 41.82 48.65 Z" />
<path fill="#3d4161" opacity="1.00" d=" M 32.63 48.55 C 35.60 48.17 38.37 47.05 40.96 45.59 C 40.18 51.77 38.19 58.86 31.97 61.64 C 31.10 60.93 30.22 60.22 29.34 59.52 C 32.87 56.80 36.76 53.58 36.65 48.65 C 35.31 48.61 33.97 48.57 32.63 48.55 Z" />
<path fill="#444260" opacity="1.00" d=" M 62.21 48.10 C 62.61 47.40 63.40 46.00 63.79 45.30 C 68.54 47.34 73.42 49.04 78.32 50.71 C 78.69 51.79 79.07 52.87 79.45 53.96 C 73.68 52.06 67.86 50.34 62.21 48.10 Z" />
<path fill="#342f50" opacity="1.00" d=" M 80.77 47.85 C 83.23 49.61 85.66 51.44 88.35 52.85 C 88.51 55.29 88.50 57.73 88.32 60.17 C 87.60 59.95 86.17 59.53 85.46 59.32 C 82.90 56.01 81.96 51.78 80.77 47.85 Z" />
<path fill="#d96194" opacity="1.00" d=" M 93.81 47.68 C 97.55 48.62 101.16 50.54 104.08 53.02 L 104.51 54.38 C 100.09 54.90 95.12 52.01 93.81 47.68 Z" />
<path fill="#3f3d5b" opacity="1.00" d=" M 88.35 52.85 C 94.00 55.68 100.14 57.99 104.65 62.58 C 99.14 62.27 93.72 61.22 88.32 60.17 C 88.50 57.73 88.51 55.29 88.35 52.85 Z" />
<path fill="#34314d" opacity="1.00" d=" M 30.31 63.08 C 31.20 63.80 32.08 64.51 32.96 65.23 C 31.95 67.89 30.55 70.73 27.57 71.59 C 28.33 68.70 29.32 65.89 30.31 63.08 Z" />
<path fill="#231b34" opacity="1.00" d=" M 35.48 66.05 C 37.31 64.81 39.15 63.60 41.04 62.44 C 42.08 64.01 43.22 66.11 41.95 67.90 C 40.20 70.64 35.52 69.35 35.48 66.05 Z" />
<path fill="#ffffdc" opacity="1.00" d=" M 24.11 66.52 C 25.13 66.67 26.16 66.82 27.18 66.97 L 26.53 67.65 C 24.86 68.55 23.17 69.38 21.45 70.17 C 22.33 68.95 23.23 67.74 24.11 66.52 Z" />
<path fill="#56576e" opacity="1.00" d=" M 21.45 70.17 C 23.17 69.38 24.86 68.55 26.53 67.65 C 26.12 71.45 24.13 75.87 19.81 76.28 L 18.43 76.55 C 18.53 78.66 18.68 80.77 18.81 82.88 C 17.57 82.77 16.34 82.66 15.11 82.54 C 16.03 77.96 19.74 74.69 21.17 70.30 L 21.45 70.17 Z" />
<path fill="#3a3756" opacity="1.00" d=" M 26.53 67.65 L 27.18 66.97 C 26.98 68.78 26.78 70.60 26.59 72.42 C 28.24 72.10 29.89 71.78 31.54 71.46 C 31.42 74.76 28.00 76.20 26.42 78.75 C 26.28 78.83 26.01 78.98 25.87 79.05 C 23.77 78.32 21.79 77.29 19.81 76.28 C 24.13 75.87 26.12 71.45 26.53 67.65 Z" />
<path fill="#364e6d" opacity="1.00" d=" M 104.67 74.23 C 106.87 72.39 109.04 70.50 111.00 68.41 L 111.00 78.69 C 106.58 82.56 102.56 86.86 98.35 90.96 C 98.46 89.50 98.58 88.04 98.69 86.59 C 101.36 82.92 105.48 79.22 104.67 74.23 Z" />
<path fill="#3e3c56" opacity="1.00" d=" M 31.75 80.98 C 32.40 77.05 35.05 71.94 39.62 72.09 C 40.87 75.20 41.03 79.79 37.51 81.46 C 35.74 82.89 33.62 81.36 31.75 80.98 Z" />
<path fill="#a1bf9b" opacity="1.00" d=" M 82.38 93.05 C 89.84 86.81 97.04 80.27 104.67 74.23 C 105.48 79.22 101.36 82.92 98.69 86.59 C 94.28 90.96 90.31 95.71 86.68 100.74 C 83.53 103.18 80.13 105.25 76.57 107.02 C 77.83 102.06 81.63 98.13 82.38 93.05 Z" />
<path fill="#342f51" opacity="1.00" d=" M 38.91 82.85 C 43.22 80.65 47.39 78.04 52.15 76.90 C 47.63 82.28 41.90 86.54 35.66 89.71 C 33.72 90.83 33.50 88.38 34.11 87.10 C 34.94 85.00 37.03 83.86 38.91 82.85 Z" />
<path fill="#4f4e69" opacity="1.00" d=" M 20.11 78.94 C 22.46 79.47 24.57 80.64 26.61 81.88 C 26.36 83.77 26.30 85.68 26.39 87.58 C 23.70 85.19 21.36 82.36 20.11 78.94 Z" />
<path fill="#4d6e80" opacity="1.00" d=" M 98.35 90.96 C 102.56 86.86 106.58 82.56 111.00 78.69 L 111.00 85.73 C 108.27 86.69 105.32 87.26 102.93 88.97 C 100.26 90.89 98.06 93.35 95.52 95.41 C 92.74 97.46 89.64 98.98 86.68 100.74 C 90.31 95.71 94.28 90.96 98.69 86.59 C 98.58 88.04 98.46 89.50 98.35 90.96 Z" />
<path fill="#43405e" opacity="1.00" d=" M 9.99 88.63 C 11.22 86.58 12.47 84.54 13.81 82.56 C 14.74 83.60 15.67 84.63 16.62 85.65 C 16.76 86.69 16.91 87.73 17.06 88.76 C 14.74 88.18 12.34 88.18 9.99 88.63 Z" />
<path fill="#53556c" opacity="1.00" d=" M 28.12 83.26 C 30.11 83.23 32.10 83.23 34.09 83.26 C 32.84 85.85 31.44 88.44 31.40 91.40 C 28.83 89.53 28.19 86.25 28.12 83.26 Z" />
<path fill="#5f868b" opacity="1.00" d=" M 102.93 88.97 C 105.32 87.26 108.27 86.69 111.00 85.73 L 111.00 90.22 C 109.15 93.21 106.94 95.94 104.79 98.72 C 102.01 96.48 98.67 97.17 95.58 98.18 C 95.56 97.49 95.54 96.11 95.52 95.41 C 98.06 93.35 100.26 90.89 102.93 88.97 Z" />
<path fill="#585a70" opacity="1.00" d=" M 42.16 90.65 C 43.93 90.19 45.55 89.32 47.10 88.37 C 50.80 95.47 54.29 102.73 57.13 110.21 C 51.15 104.54 46.16 97.85 42.16 90.65 Z" />
<path fill="#53546b" opacity="1.00" d=" M 19.56 93.72 C 21.88 91.86 24.70 90.89 27.54 90.14 C 26.35 93.40 24.76 96.56 21.99 98.77 C 21.19 97.08 20.39 95.39 19.56 93.72 Z" />
<path fill="#363253" opacity="1.00" d=" M 27.54 90.14 C 29.73 97.07 27.95 105.18 23.67 110.99 C 23.87 106.83 23.12 102.75 21.99 98.77 C 24.76 96.56 26.35 93.40 27.54 90.14 Z" />
<path fill="#000000" opacity="1.00" d=" M 104.79 98.72 C 106.94 95.94 109.15 93.21 111.00 90.22 L 111.00 94.33 C 106.48 100.14 102.15 106.23 96.48 111.00 L 93.35 111.00 C 95.67 109.07 97.83 106.95 99.84 104.70 C 101.61 102.81 103.20 100.76 104.79 98.72 Z" />
<path fill="#acc99f" opacity="1.00" d=" M 60.29 111.00 C 67.63 105.00 74.99 99.01 82.38 93.05 C 81.63 98.13 77.83 102.06 76.57 107.02 C 75.26 108.37 73.96 109.72 72.58 111.00 L 60.29 111.00 Z" />
<path fill="#90b49a" opacity="1.00" d=" M 86.68 100.74 C 89.64 98.98 92.74 97.46 95.52 95.41 C 95.54 96.11 95.56 97.49 95.58 98.18 C 92.29 102.42 89.63 107.16 85.85 111.00 L 72.58 111.00 C 73.96 109.72 75.26 108.37 76.57 107.02 C 80.13 105.25 83.53 103.18 86.68 100.74 Z" />
<path fill="#6a9291" opacity="1.00" d=" M 95.58 98.18 C 98.67 97.17 102.01 96.48 104.79 98.72 C 103.20 100.76 101.61 102.81 99.84 104.70 C 96.55 106.40 93.68 108.75 90.76 111.00 L 85.85 111.00 C 89.63 107.16 92.29 102.42 95.58 98.18 Z" />
<path fill="#ffffdc" opacity="1.00" d=" M 90.76 111.00 C 93.68 108.75 96.55 106.40 99.84 104.70 C 97.83 106.95 95.67 109.07 93.35 111.00 L 90.76 111.00 Z" />
</svg>
