<?xml version="1.0" encoding="UTF-8" ?>
<!DOCTYPE svg PUBLIC "-//W3C//DTD SVG 1.1//EN" "http://www.w3.org/Graphics/SVG/1.1/DTD/svg11.dtd">
<svg width="111pt" height="111pt" viewBox="0 0 111 111" version="1.1" xmlns="http://www.w3.org/2000/svg">
<path fill="#000000" opacity="1.00" d=" M 49.30 41.46 C 62.36 21.07 83.20 4.90 107.29 0.33 C 107.48 3.36 108.04 6.46 107.21 9.44 C 104.57 19.30 100.96 29.31 93.96 36.98 C 87.74 43.71 79.88 48.71 71.76 52.83 C 67.97 54.79 63.91 56.17 59.74 57.04 C 61.96 59.18 64.59 61.60 64.51 64.95 C 64.39 70.69 66.85 76.67 64.16 82.15 C 62.92 85.96 58.77 87.38 56.56 90.46 C 54.41 93.43 52.13 96.43 48.94 98.37 C 48.69 95.82 48.69 93.27 48.72 90.72 C 47.63 90.62 45.47 90.41 44.39 90.31 C 45.42 92.64 46.17 95.08 46.46 97.61 C 41.82 96.53 37.87 92.29 37.63 87.43 C 36.47 87.10 35.30 86.77 34.14 86.44 C 33.07 87.51 31.88 88.46 30.57 89.21 C 30.55 88.50 30.52 87.06 30.50 86.34 C 29.21 86.28 27.92 86.22 26.62 86.15 C 26.56 87.12 26.48 88.10 26.40 89.08 C 25.87 88.63 24.80 87.74 24.26 87.29 C 24.47 91.70 20.58 95.59 16.27 95.75 C 16.24 95.43 16.19 94.79 16.16 94.47 C 18.64 91.65 21.24 88.82 22.36 85.14 C 20.73 83.37 18.74 81.62 18.30 79.12 C 17.56 76.13 18.66 73.14 19.40 70.26 C 13.03 67.24 5.28 64.92 1.54 58.48 C 7.68 59.61 13.11 63.12 17.92 66.97 C 17.50 63.83 17.72 60.20 15.25 57.81 C 11.98 54.17 9.31 50.05 6.78 45.88 C 8.71 44.59 11.07 44.78 12.98 46.03 C 17.59 48.72 21.51 52.43 25.29 56.17 C 25.49 52.96 24.81 48.89 27.94 46.80 C 28.84 47.95 29.75 49.09 30.65 50.23 C 28.15 38.05 32.06 25.47 38.21 15.00 C 39.36 12.57 42.79 13.47 43.03 16.00 C 44.92 25.29 42.81 34.72 40.95 43.83 C 43.73 43.10 46.88 43.12 49.30 41.46 M 92.63 8.04 L 92.41 8.39 C 85.63 11.24 79.21 14.98 73.49 19.61 C 63.58 27.70 54.17 37.11 49.11 49.07 C 50.17 50.33 51.78 50.98 53.06 51.96 C 53.47 52.03 54.27 52.17 54.67 52.24 C 56.40 53.26 58.19 54.16 60.00 55.04 C 64.09 53.20 68.14 51.25 71.98 48.91 C 79.94 44.21 88.11 39.19 93.61 31.57 C 97.15 27.10 99.68 21.92 101.39 16.50 C 103.13 12.32 104.32 7.94 105.26 3.51 C 100.99 4.88 96.85 6.58 92.63 8.04 M 37.89 21.95 C 35.06 29.18 32.51 36.74 32.76 44.61 C 32.54 46.01 32.40 47.42 32.34 48.84 C 34.14 47.51 36.25 46.48 37.72 44.77 C 39.41 39.12 39.30 33.07 41.17 27.47 C 41.03 27.47 40.77 27.49 40.63 27.50 L 40.84 26.80 C 40.62 23.78 40.46 20.75 40.29 17.72 C 39.37 19.05 38.51 20.44 37.89 21.95 M 30.08 53.48 C 29.57 52.99 28.54 52.02 28.03 51.53 C 27.63 53.75 26.97 55.90 26.31 58.05 C 28.80 59.23 31.86 58.62 34.52 59.45 L 34.33 59.65 C 36.11 60.29 37.88 60.97 39.63 61.68 C 40.84 62.88 42.02 64.09 43.19 65.33 C 43.95 66.84 44.75 68.33 45.39 69.90 C 45.55 73.61 45.83 77.51 44.21 80.98 C 44.88 80.78 46.23 80.38 46.90 80.19 C 46.66 80.98 46.18 82.58 45.94 83.37 C 44.54 83.42 43.18 83.19 41.84 82.67 C 42.09 83.46 42.59 85.04 42.84 85.82 C 46.09 85.57 48.99 84.04 51.77 82.47 C 52.76 81.93 53.75 81.39 54.74 80.86 L 54.72 80.72 C 58.16 79.10 61.53 76.43 61.46 72.25 C 61.79 67.72 61.27 62.72 57.16 59.98 C 56.25 61.03 55.34 62.07 54.43 63.12 C 55.41 65.77 56.59 68.42 56.64 71.30 L 56.02 71.63 C 54.55 71.69 53.08 71.76 51.61 71.82 C 51.15 73.55 50.68 75.28 50.28 77.02 C 49.85 77.68 49.01 78.99 48.58 79.65 C 47.99 79.66 46.79 79.67 46.19 79.67 L 46.18 78.82 C 47.87 75.79 49.15 72.55 50.45 69.34 C 51.22 69.24 52.76 69.05 53.54 68.96 C 51.94 65.53 52.23 61.90 54.15 58.67 C 55.10 58.03 56.02 57.32 56.89 56.57 C 53.80 54.85 50.61 53.35 47.59 51.52 C 47.24 50.38 46.94 49.23 46.62 48.08 C 46.83 47.44 47.26 46.16 47.48 45.52 C 41.36 47.30 35.17 49.55 30.08 53.48 M 9.91 46.92 C 13.22 51.93 17.95 55.79 21.43 60.68 C 23.23 62.96 25.05 65.23 27.09 67.31 C 26.47 64.14 25.29 61.11 23.67 58.32 C 19.47 54.11 15.28 49.63 9.91 46.92 M 27.72 60.56 C 27.93 61.22 28.35 62.56 28.56 63.23 C 31.66 63.60 34.59 64.96 36.50 67.49 C 38.77 67.97 40.54 69.40 41.47 71.53 C 40.98 76.59 37.65 80.90 34.04 84.26 C 36.30 86.83 38.21 83.32 40.07 82.07 C 42.23 80.47 43.67 77.90 43.40 75.17 C 43.45 71.75 42.83 68.10 40.45 65.50 C 37.31 61.86 32.23 61.10 27.72 60.56 M 18.93 62.68 C 19.33 63.66 19.74 64.63 20.15 65.60 C 20.21 66.13 20.32 67.18 20.37 67.71 C 21.87 67.46 22.48 65.85 23.45 64.88 C 22.87 64.74 21.71 64.46 21.13 64.32 C 20.58 63.91 19.48 63.09 18.93 62.68 M 28.63 64.71 C 28.84 65.41 29.26 66.82 29.48 67.53 C 29.19 68.37 28.62 70.05 28.33 70.90 C 26.65 69.46 25.01 67.98 23.35 66.52 C 21.41 70.34 18.70 74.54 19.90 79.01 C 20.82 82.08 23.93 83.53 26.40 85.17 C 28.50 84.90 30.81 84.57 31.81 82.42 C 32.32 82.44 33.34 82.48 33.86 82.49 C 34.56 81.79 35.27 81.09 35.98 80.39 C 33.42 80.92 30.58 80.94 28.88 78.60 C 29.47 76.40 30.21 74.24 30.85 72.06 C 32.40 70.98 33.95 69.89 35.51 68.80 C 33.56 66.92 31.35 65.25 28.63 64.71 M 34.13 71.44 C 31.51 73.26 31.01 76.56 30.45 79.44 C 31.66 79.14 32.87 78.86 34.09 78.58 C 35.97 77.69 37.99 76.75 39.14 74.91 C 40.08 73.04 38.78 71.12 38.27 69.34 C 36.89 70.04 35.51 70.74 34.13 71.44 M 50.90 85.94 C 48.54 86.63 46.04 86.67 43.70 87.49 C 47.35 87.74 51.05 88.01 54.67 87.44 C 59.33 85.89 62.75 81.77 63.72 77.00 C 60.09 80.80 55.80 83.98 50.90 85.94 M 31.87 87.03 C 33.22 86.67 33.58 84.04 32.01 83.76 C 30.67 84.09 30.46 86.69 31.87 87.03 M 39.70 85.98 C 40.01 89.01 40.84 92.12 43.49 93.95 C 42.57 91.14 41.35 88.43 39.70 85.98 M 50.64 91.52 C 49.82 92.71 49.94 93.67 51.01 94.39 C 53.64 94.42 53.07 88.98 50.64 91.52 Z" />
<path fill="#a4838a" opacity="1.00" d=" M 92.63 8.04 C 96.85 6.58 100.99 4.88 105.26 3.51 C 104.32 7.94 103.13 12.32 101.39 16.50 C 96.59 18.80 93.62 23.33 89.78 26.80 C 83.71 32.06 77.67 37.41 71.17 42.14 C 65.92 45.87 60.86 50.14 54.67 52.24 C 54.27 52.17 53.47 52.03 53.06 51.96 C 64.08 45.54 71.43 34.94 79.22 25.19 C 83.38 19.40 88.64 14.46 92.41 8.39 L 92.63 8.04 Z" />
<path fill="#fbfec2" opacity="1.00" d=" M 73.49 19.61 C 79.21 14.98 85.63 11.24 92.41 8.39 C 88.64 14.46 83.38 19.40 79.22 25.19 C 71.43 34.94 64.08 45.54 53.06 51.96 C 51.78 50.98 50.17 50.33 49.11 49.07 C 54.17 37.11 63.58 27.70 73.49 19.61 Z" />
<path fill="#986a7d" opacity="1.00" d=" M 89.78 26.80 C 93.62 23.33 96.59 18.80 101.39 16.50 C 99.68 21.92 97.15 27.10 93.61 31.57 C 88.11 39.19 79.94 44.21 71.98 48.91 C 68.14 51.25 64.09 53.20 60.00 55.04 C 58.19 54.16 56.40 53.26 54.67 52.24 C 60.86 50.14 65.92 45.87 71.17 42.14 C 77.67 37.41 83.71 32.06 89.78 26.80 Z" />
<path fill="#fcfdc2" opacity="1.00" d=" M 37.89 21.95 C 38.51 20.44 39.37 19.05 40.29 17.72 C 40.46 20.75 40.62 23.78 40.84 26.80 L 40.63 27.50 C 40.41 27.54 39.97 27.62 39.75 27.66 C 39.52 33.99 36.02 39.42 32.76 44.61 C 32.51 36.74 35.06 29.18 37.89 21.95 Z" />
<path fill="#b0868b" opacity="1.00" d=" M 39.75 27.66 C 39.97 27.62 40.41 27.54 40.63 27.50 C 40.77 27.49 41.03 27.47 41.17 27.47 C 39.30 33.07 39.41 39.12 37.72 44.77 C 36.25 46.48 34.14 47.51 32.34 48.84 C 32.40 47.42 32.54 46.01 32.76 44.61 C 36.02 39.42 39.52 33.99 39.75 27.66 Z" />
<path fill="#f2ecba" opacity="1.00" d=" M 30.08 53.48 C 35.17 49.55 41.36 47.30 47.48 45.52 C 47.26 46.16 46.83 47.44 46.62 48.08 C 42.89 52.19 38.24 55.32 34.52 59.45 C 31.86 58.62 28.80 59.23 26.31 58.05 C 26.97 55.90 27.63 53.75 28.03 51.53 C 28.54 52.02 29.57 52.99 30.08 53.48 Z" />
<path fill="#f9fa64" opacity="1.00" d=" M 9.91 46.92 C 15.28 49.63 19.47 54.11 23.67 58.32 C 22.93 59.10 22.18 59.89 21.43 60.68 C 17.95 55.79 13.22 51.93 9.91 46.92 Z" />
<path fill="#c69d91" opacity="1.00" d=" M 34.52 59.45 C 38.24 55.32 42.89 52.19 46.62 48.08 C 46.94 49.23 47.24 50.38 47.59 51.52 C 47.44 51.97 47.15 52.88 47.01 53.33 C 44.53 56.09 41.92 58.75 39.63 61.68 C 37.88 60.97 36.11 60.29 34.33 59.65 L 34.52 59.45 Z" />
<path fill="#e2d8b1" opacity="1.00" d=" M 47.01 53.33 C 47.15 52.88 47.44 51.97 47.59 51.52 C 50.61 53.35 53.80 54.85 56.89 56.57 C 56.02 57.32 55.10 58.03 54.15 58.67 C 52.49 59.63 50.79 60.51 49.13 61.47 C 47.99 58.89 47.05 56.18 47.01 53.33 Z" />
<path fill="#f3efbb" opacity="1.00" d=" M 39.63 61.68 C 41.92 58.75 44.53 56.09 47.01 53.33 C 47.05 56.18 47.99 58.89 49.13 61.47 C 47.11 62.70 45.16 64.03 43.19 65.33 C 42.02 64.09 40.84 62.88 39.63 61.68 Z" />
<path fill="#cd945b" opacity="1.00" d=" M 23.67 58.32 C 25.29 61.11 26.47 64.14 27.09 67.31 C 25.05 65.23 23.23 62.96 21.43 60.68 C 22.18 59.89 22.93 59.10 23.67 58.32 Z" />
<path fill="#aa7f86" opacity="1.00" d=" M 49.13 61.47 C 50.79 60.51 52.49 59.63 54.15 58.67 C 52.23 61.90 51.94 65.53 53.54 68.96 C 52.76 69.05 51.22 69.24 50.45 69.34 C 49.15 72.55 47.87 75.79 46.18 78.82 C 46.13 75.84 46.01 72.83 45.39 69.90 C 44.75 68.33 43.95 66.84 43.19 65.33 C 45.16 64.03 47.11 62.70 49.13 61.47 Z" />
<path fill="#edbd5e" opacity="1.00" d=" M 27.72 60.56 C 32.23 61.10 37.31 61.86 40.45 65.50 C 42.83 68.10 43.45 71.75 43.40 75.17 C 42.80 73.93 42.15 72.72 41.47 71.53 C 40.54 69.40 38.77 67.97 36.50 67.49 C 34.59 64.96 31.66 63.60 28.56 63.23 C 28.35 62.56 27.93 61.22 27.72 60.56 Z" />
<path fill="#efc45e" opacity="1.00" d=" M 54.43 63.12 C 55.34 62.07 56.25 61.03 57.16 59.98 C 61.27 62.72 61.79 67.72 61.46 72.25 C 61.02 71.70 60.13 70.59 59.68 70.04 C 58.66 70.45 57.64 70.86 56.64 71.30 C 56.59 68.42 55.41 65.77 54.43 63.12 Z" />
<path fill="#efc45e" opacity="1.00" d=" M 18.93 62.68 C 19.48 63.09 20.58 63.91 21.13 64.32 C 21.71 64.46 22.87 64.74 23.45 64.88 C 22.48 65.85 21.87 67.46 20.37 67.71 C 20.32 67.18 20.21 66.13 20.15 65.60 C 19.74 64.63 19.33 63.66 18.93 62.68 Z" />
<path fill="#ad9254" opacity="1.00" d=" M 28.63 64.71 C 31.35 65.25 33.56 66.92 35.51 68.80 C 33.95 69.89 32.40 70.98 30.85 72.06 C 30.71 71.01 30.54 69.97 30.31 68.94 C 30.10 68.59 29.69 67.88 29.48 67.53 C 29.26 66.82 28.84 65.41 28.63 64.71 Z" />
<path fill="#f9fa64" opacity="1.00" d=" M 23.35 66.52 C 25.01 67.98 26.65 69.46 28.33 70.90 C 28.62 70.05 29.19 68.37 29.48 67.53 C 29.69 67.88 30.10 68.59 30.31 68.94 C 30.54 69.97 30.71 71.01 30.85 72.06 C 30.21 74.24 29.47 76.40 28.88 78.60 C 27.88 80.72 27.08 82.93 26.40 85.17 C 23.93 83.53 20.82 82.08 19.90 79.01 C 18.70 74.54 21.41 70.34 23.35 66.52 Z" />
<path fill="#8a4992" opacity="1.00" d=" M 34.13 71.44 C 35.51 70.74 36.89 70.04 38.27 69.34 C 38.78 71.12 40.08 73.04 39.14 74.91 C 37.99 76.75 35.97 77.69 34.09 78.58 C 34.60 76.31 35.12 74.04 35.54 71.75 L 34.13 71.44 Z" />
<path fill="#97405e" opacity="1.00" d=" M 45.39 69.90 C 46.01 72.83 46.13 75.84 46.18 78.82 L 46.19 79.67 C 46.79 79.67 47.99 79.66 48.58 79.65 C 49.68 80.54 50.73 81.50 51.77 82.47 C 48.99 84.04 46.09 85.57 42.84 85.82 C 42.59 85.04 42.09 83.46 41.84 82.67 C 43.18 83.19 44.54 83.42 45.94 83.37 C 46.18 82.58 46.66 80.98 46.90 80.19 C 46.23 80.38 44.88 80.78 44.21 80.98 C 45.83 77.51 45.55 73.61 45.39 69.90 Z" />
<path fill="#cd945b" opacity="1.00" d=" M 56.64 71.30 C 57.64 70.86 58.66 70.45 59.68 70.04 C 60.13 70.59 61.02 71.70 61.46 72.25 C 61.53 76.43 58.16 79.10 54.72 80.72 C 54.37 78.37 54.01 76.03 53.64 73.69 C 54.42 72.98 55.21 72.30 56.02 71.63 L 56.64 71.30 Z" />
<path fill="#cc6f8f" opacity="1.00" d=" M 30.45 79.44 C 31.01 76.56 31.51 73.26 34.13 71.44 L 35.54 71.75 C 35.12 74.04 34.60 76.31 34.09 78.58 C 32.87 78.86 31.66 79.14 30.45 79.44 Z" />
<path fill="#97475b" opacity="1.00" d=" M 41.47 71.53 C 42.15 72.72 42.80 73.93 43.40 75.17 C 43.67 77.90 42.23 80.47 40.07 82.07 C 38.21 83.32 36.30 86.83 34.04 84.26 C 37.65 80.90 40.98 76.59 41.47 71.53 Z" />
<path fill="#efc45e" opacity="1.00" d=" M 51.61 71.82 C 53.08 71.76 54.55 71.69 56.02 71.63 C 55.21 72.30 54.42 72.98 53.64 73.69 C 52.48 74.76 51.34 75.85 50.28 77.02 C 50.68 75.28 51.15 73.55 51.61 71.82 Z" />
<path fill="#ba795a" opacity="1.00" d=" M 50.28 77.02 C 51.34 75.85 52.48 74.76 53.64 73.69 C 54.01 76.03 54.37 78.37 54.72 80.72 L 54.74 80.86 C 53.75 81.39 52.76 81.93 51.77 82.47 C 50.73 81.50 49.68 80.54 48.58 79.65 C 49.01 78.99 49.85 77.68 50.28 77.02 Z" />
<path fill="#933e5b" opacity="1.00" d=" M 50.90 85.94 C 55.80 83.98 60.09 80.80 63.72 77.00 C 62.75 81.77 59.33 85.89 54.67 87.44 C 51.05 88.01 47.35 87.74 43.70 87.49 C 46.04 86.67 48.54 86.63 50.90 85.94 Z" />
<path fill="#dacd5e" opacity="1.00" d=" M 26.40 85.17 C 27.08 82.93 27.88 80.72 28.88 78.60 C 30.58 80.94 33.42 80.92 35.98 80.39 C 35.27 81.09 34.56 81.79 33.86 82.49 C 33.34 82.48 32.32 82.44 31.81 82.42 C 30.81 84.57 28.50 84.90 26.40 85.17 Z" />
<path fill="#c8ca9c" opacity="1.00" d=" M 31.87 87.03 C 30.46 86.69 30.67 84.09 32.01 83.76 C 33.58 84.04 33.22 86.67 31.87 87.03 Z" />
<path fill="#f9fa64" opacity="1.00" d=" M 39.70 85.98 C 41.35 88.43 42.57 91.14 43.49 93.95 C 40.84 92.12 40.01 89.01 39.70 85.98 Z" />
<path fill="#e2d8b1" opacity="1.00" d=" M 50.64 91.52 C 53.07 88.98 53.64 94.42 51.01 94.39 C 49.94 93.67 49.82 92.71 50.64 91.52 Z" />
</svg>
