<?xml version="1.0" encoding="UTF-8" ?>
<!DOCTYPE svg PUBLIC "-//W3C//DTD SVG 1.1//EN" "http://www.w3.org/Graphics/SVG/1.1/DTD/svg11.dtd">
<svg width="111pt" height="111pt" viewBox="0 0 111 111" version="1.1" xmlns="http://www.w3.org/2000/svg">
<path fill="#000000" opacity="1.00" d=" M 81.53 34.56 C 90.51 27.00 101.05 21.71 111.00 15.60 L 111.00 18.61 C 103.60 23.19 95.84 27.16 88.60 32.00 C 83.95 35.15 79.52 38.61 75.19 42.18 C 73.92 43.17 73.12 44.58 72.36 45.97 C 76.21 45.15 78.86 42.06 82.03 39.99 C 82.54 40.32 83.57 41.00 84.08 41.33 C 83.60 44.23 83.02 47.11 82.65 50.03 C 82.52 51.22 82.41 52.42 82.33 53.62 C 83.98 52.08 85.45 50.34 86.43 48.29 C 94.14 43.70 102.83 41.33 111.00 37.76 L 111.00 43.35 C 105.25 44.46 99.36 44.95 93.82 46.97 C 92.44 47.39 91.07 47.80 89.69 48.22 C 89.11 50.89 88.35 53.52 87.59 56.14 C 95.20 58.35 103.13 59.05 111.00 59.57 L 111.00 62.34 C 102.85 61.52 94.67 60.20 86.96 57.35 C 86.59 59.34 86.22 61.33 85.87 63.33 C 94.73 64.02 103.11 67.43 111.00 71.33 L 111.00 75.92 C 108.09 71.75 102.89 70.68 98.42 68.99 C 98.16 71.17 97.89 73.36 97.60 75.54 C 95.65 77.48 93.68 79.41 91.72 81.34 C 95.29 83.55 98.80 86.29 103.06 86.94 C 106.18 86.91 108.46 84.27 110.55 82.25 L 111.00 81.48 L 111.00 84.29 C 109.33 85.64 107.57 86.87 105.82 88.09 C 107.56 88.89 109.30 89.68 111.00 90.56 L 111.00 93.31 C 102.74 89.90 94.14 87.01 87.08 81.32 C 87.38 83.50 87.66 85.69 87.85 87.88 C 86.18 86.83 84.57 85.68 83.02 84.46 C 84.48 88.35 85.02 92.50 84.74 96.64 C 78.18 94.75 74.63 88.31 72.31 82.39 C 66.13 84.94 59.37 85.73 52.81 84.31 C 51.43 88.98 48.61 93.60 43.44 94.56 C 43.91 90.42 45.96 86.53 45.92 82.35 C 44.72 79.98 43.05 77.90 41.69 75.63 C 41.92 79.51 42.82 83.90 40.32 87.29 C 36.09 93.37 30.07 98.66 22.61 100.13 C 26.31 93.20 31.91 87.34 34.55 79.84 C 24.06 87.69 12.19 93.51 0.00 98.20 L 0.00 96.26 C 8.66 92.38 17.24 88.26 25.46 83.48 C 27.94 81.99 30.24 80.20 32.22 78.09 C 33.30 76.97 34.06 75.61 34.85 74.29 C 29.40 74.87 24.44 77.37 19.43 79.41 C 12.84 82.36 6.10 85.09 0.00 88.98 L 0.00 87.15 C 9.57 81.67 19.81 77.39 30.17 73.63 C 25.88 72.77 21.38 72.02 17.89 69.16 C 21.90 67.07 26.32 66.01 30.50 64.36 C 20.54 61.69 9.92 62.91 0.00 59.78 L 0.00 57.00 C 9.48 59.75 19.46 59.51 29.07 61.55 C 29.96 59.31 30.84 57.06 32.01 54.94 C 33.32 53.49 34.77 52.17 36.20 50.84 C 24.44 46.46 12.28 43.26 0.00 40.76 L 0.00 37.76 C 6.48 39.30 13.06 40.52 19.36 42.74 C 26.00 44.73 32.22 47.87 38.83 49.92 C 35.48 46.48 31.11 44.39 27.11 41.84 C 24.43 40.20 21.85 38.35 18.95 37.11 C 16.68 36.15 14.12 36.69 11.78 36.03 C 9.66 35.16 8.57 32.56 9.19 30.39 C 10.71 28.75 13.44 27.84 15.30 29.47 C 17.55 31.64 18.77 34.81 21.63 36.36 C 27.03 39.59 32.22 43.15 37.36 46.77 C 40.24 49.16 43.87 46.58 46.98 46.03 C 44.20 40.26 42.26 34.14 39.72 28.28 C 38.64 25.46 35.25 24.93 33.41 22.79 C 32.97 19.87 35.96 16.01 39.02 17.86 C 41.83 19.59 40.13 23.41 41.12 26.06 C 43.39 32.83 46.34 39.35 48.77 46.07 C 53.17 44.76 57.31 42.26 62.01 42.26 C 65.30 42.15 68.50 43.08 71.66 43.88 C 74.77 40.59 78.10 37.51 81.53 34.56 M 34.86 22.99 C 36.17 24.06 37.88 23.72 39.44 23.76 C 39.52 22.40 39.59 21.03 39.64 19.67 C 37.15 19.29 35.04 20.24 34.86 22.99 M 11.44 30.50 C 11.08 31.87 10.91 33.26 10.73 34.66 C 12.22 34.67 13.72 34.65 15.22 34.61 C 15.22 33.10 15.18 31.59 15.12 30.09 C 13.88 30.11 12.65 30.25 11.44 30.50 M 72.75 50.21 C 69.15 52.50 66.54 56.02 63.87 59.29 C 70.27 56.75 76.64 52.95 79.73 46.51 C 80.94 45.57 81.62 44.17 82.38 42.88 C 78.60 44.41 75.17 46.92 72.75 50.21 M 56.02 47.02 L 57.52 46.96 C 59.72 48.12 61.78 49.53 63.68 51.13 C 63.59 53.05 63.43 54.97 63.24 56.88 C 66.16 53.53 69.47 50.55 72.60 47.42 C 71.18 46.70 69.75 45.98 68.34 45.25 C 67.91 45.31 67.06 45.44 66.64 45.50 C 63.09 43.94 58.99 44.58 56.02 47.02 M 40.10 50.86 L 39.98 51.69 C 34.87 53.67 31.41 58.66 31.52 64.18 C 31.93 66.24 32.83 68.15 33.62 70.08 C 36.98 73.52 41.92 73.45 46.38 73.30 C 49.06 72.13 51.88 71.07 54.15 69.17 C 56.16 67.48 56.45 64.70 57.22 62.35 C 54.63 62.50 51.99 62.34 49.44 62.89 C 48.18 61.29 46.43 59.93 45.82 57.91 C 45.24 54.64 46.91 51.60 47.95 48.61 C 45.27 49.12 42.66 49.94 40.10 50.86 M 48.97 51.01 L 48.72 50.85 C 48.01 53.97 46.94 57.47 49.74 59.93 L 49.08 60.35 C 53.42 60.25 57.86 58.91 60.07 54.86 C 59.56 53.44 58.65 52.23 57.82 50.99 C 56.25 50.50 54.68 50.00 53.12 49.46 C 51.67 49.81 50.29 50.32 48.97 51.01 M 73.63 63.78 C 73.27 66.22 72.92 68.65 72.63 71.10 C 73.74 79.46 75.98 88.74 83.49 93.69 C 80.20 85.55 78.11 76.86 78.29 68.03 C 78.31 65.89 78.29 63.76 78.26 61.62 C 78.67 57.93 79.31 54.28 79.71 50.59 C 75.57 53.75 74.82 59.07 73.63 63.78 M 81.48 66.98 C 81.59 72.35 81.06 78.50 85.10 82.70 C 84.41 78.15 83.10 73.65 83.36 68.99 C 83.11 62.96 85.54 57.34 86.95 51.60 C 83.60 55.96 81.06 61.36 81.48 66.98 M 60.58 63.12 C 60.49 61.99 60.40 60.86 60.31 59.73 C 59.73 60.29 59.15 60.85 58.57 61.41 C 58.26 63.81 58.13 66.26 57.39 68.58 C 56.45 70.74 54.57 72.29 53.04 74.01 C 49.86 74.39 46.84 75.51 43.79 76.42 C 48.70 81.31 55.82 82.30 62.44 82.33 C 65.56 81.51 68.68 80.71 71.80 79.89 C 70.15 72.19 71.42 64.41 73.31 56.90 C 69.20 59.23 65.00 61.42 60.58 63.12 M 85.44 64.65 C 85.50 68.13 85.58 71.62 85.76 75.10 C 85.32 77.27 87.53 78.55 89.07 79.54 C 91.92 79.36 93.85 77.07 95.58 75.09 L 96.25 75.48 C 96.04 72.99 96.97 69.95 95.03 67.94 C 91.99 66.44 88.65 65.70 85.44 64.65 M 20.76 69.69 C 24.10 70.47 27.53 70.78 30.95 71.03 C 30.58 69.51 30.21 68.00 29.84 66.48 C 26.70 67.19 23.61 68.16 20.76 69.69 M 36.30 74.56 C 36.26 76.63 36.23 78.71 36.21 80.79 C 35.46 82.51 34.71 84.23 33.97 85.95 C 31.45 89.69 28.79 93.34 26.66 97.33 C 31.19 95.40 34.61 91.79 37.60 88.01 C 38.73 86.61 39.58 85.03 40.49 83.50 L 40.88 84.04 C 40.65 81.48 40.75 78.83 39.83 76.39 C 38.71 75.68 37.49 75.14 36.30 74.56 M 48.48 82.29 C 47.59 85.72 46.36 89.04 45.41 92.44 C 48.39 90.30 49.96 86.98 50.84 83.51 C 50.05 83.10 49.26 82.70 48.48 82.29 Z" />
<path fill="#f6fec8" opacity="1.00" d=" M 88.60 32.00 C 95.84 27.16 103.60 23.19 111.00 18.61 L 111.00 30.68 C 106.14 33.56 100.98 35.89 95.90 38.36 C 93.37 36.35 90.94 34.23 88.60 32.00 Z" />
<path fill="#a6e1f5" opacity="1.00" d=" M 34.86 22.99 C 35.04 20.24 37.15 19.29 39.64 19.67 C 39.59 21.03 39.52 22.40 39.44 23.76 C 37.88 23.72 36.17 24.06 34.86 22.99 Z" />
<path fill="#b8fafe" opacity="1.00" d=" M 11.44 30.50 C 12.65 30.25 13.88 30.11 15.12 30.09 C 15.18 31.59 15.22 33.10 15.22 34.61 C 13.72 34.65 12.22 34.67 10.73 34.66 C 10.91 33.26 11.08 31.87 11.44 30.50 Z" />
<path fill="#a394a6" opacity="1.00" d=" M 95.90 38.36 C 100.98 35.89 106.14 33.56 111.00 30.68 L 111.00 37.76 C 102.83 41.33 94.14 43.70 86.43 48.29 C 85.18 48.88 83.92 49.46 82.65 50.03 C 83.02 47.11 83.60 44.23 84.08 41.33 C 84.75 41.78 85.42 42.23 86.09 42.68 C 89.37 41.27 92.66 39.87 95.90 38.36 Z" />
<path fill="#e2fcd8" opacity="1.00" d=" M 75.19 42.18 C 79.52 38.61 83.95 35.15 88.60 32.00 C 90.94 34.23 93.37 36.35 95.90 38.36 C 92.66 39.87 89.37 41.27 86.09 42.68 C 85.42 42.23 84.75 41.78 84.08 41.33 C 83.57 41.00 82.54 40.32 82.03 39.99 C 78.86 42.06 76.21 45.15 72.36 45.97 C 73.12 44.58 73.92 43.17 75.19 42.18 Z" />
<path fill="#fcfec4" opacity="1.00" d=" M 0.00 40.76 C 12.28 43.26 24.44 46.46 36.20 50.84 C 34.77 52.17 33.32 53.49 32.01 54.94 C 21.32 53.48 10.49 52.67 0.00 50.06 L 0.00 40.76 Z" />
<path fill="#fefe9b" opacity="1.00" d=" M 72.75 50.21 C 75.17 46.92 78.60 44.41 82.38 42.88 C 81.62 44.17 80.94 45.57 79.73 46.51 C 77.48 47.88 75.12 49.05 72.75 50.21 Z" />
<path fill="#e3fdda" opacity="1.00" d=" M 93.82 46.97 C 99.36 44.95 105.25 44.46 111.00 43.35 L 111.00 48.58 C 105.13 48.70 99.26 48.71 93.39 48.72 C 93.50 48.28 93.71 47.41 93.82 46.97 Z" />
<path fill="#e4ebab" opacity="1.00" d=" M 56.02 47.02 C 58.99 44.58 63.09 43.94 66.64 45.50 C 63.64 46.21 60.61 46.84 57.52 46.96 L 56.02 47.02 Z" />
<path fill="#7d9ceb" opacity="1.00" d=" M 66.64 45.50 C 67.06 45.44 67.91 45.31 68.34 45.25 C 66.83 47.25 65.28 49.21 63.68 51.13 C 61.78 49.53 59.72 48.12 57.52 46.96 C 60.61 46.84 63.64 46.21 66.64 45.50 Z" />
<path fill="#5f6ac0" opacity="1.00" d=" M 68.34 45.25 C 69.75 45.98 71.18 46.70 72.60 47.42 C 69.47 50.55 66.16 53.53 63.24 56.88 C 63.43 54.97 63.59 53.05 63.68 51.13 C 65.28 49.21 66.83 47.25 68.34 45.25 Z" />
<path fill="#5a5073" opacity="1.00" d=" M 72.75 50.21 C 75.12 49.05 77.48 47.88 79.73 46.51 C 76.64 52.95 70.27 56.75 63.87 59.29 C 66.54 56.02 69.15 52.50 72.75 50.21 Z" />
<path fill="#a6a0ae" opacity="1.00" d=" M 89.69 48.22 C 91.07 47.80 92.44 47.39 93.82 46.97 C 93.71 47.41 93.50 48.28 93.39 48.72 C 99.26 48.71 105.13 48.70 111.00 48.58 L 111.00 59.57 C 103.13 59.05 95.20 58.35 87.59 56.14 C 88.35 53.52 89.11 50.89 89.69 48.22 Z" />
<path fill="#83a6fb" opacity="1.00" d=" M 40.10 50.86 C 42.66 49.94 45.27 49.12 47.95 48.61 C 46.91 51.60 45.24 54.64 45.82 57.91 C 46.43 59.93 48.18 61.29 49.44 62.89 C 47.18 64.10 45.05 65.54 42.78 66.74 C 39.79 68.02 36.68 68.99 33.62 70.08 C 32.83 68.15 31.93 66.24 31.52 64.18 C 33.46 60.94 36.29 58.43 39.34 56.26 C 39.56 54.74 39.77 53.21 39.98 51.69 L 40.10 50.86 Z" />
<path fill="#020202" opacity="0.50" d=" M 82.65 50.03 C 83.92 49.46 85.18 48.88 86.43 48.29 C 85.45 50.34 83.98 52.08 82.33 53.62 C 82.41 52.42 82.52 51.22 82.65 50.03 Z" />
<path fill="#b2a1a4" opacity="1.00" d=" M 0.00 50.06 C 10.49 52.67 21.32 53.48 32.01 54.94 C 30.84 57.06 29.96 59.31 29.07 61.55 C 19.46 59.51 9.48 59.75 0.00 57.00 L 0.00 50.06 Z" />
<path fill="#effcaa" opacity="1.00" d=" M 48.97 51.01 C 50.29 50.32 51.67 49.81 53.12 49.46 C 52.98 50.41 52.70 52.30 52.56 53.24 C 51.36 52.51 50.16 51.77 48.97 51.01 Z" />
<path fill="#b6f8ff" opacity="1.00" d=" M 53.12 49.46 C 54.68 50.00 56.25 50.50 57.82 50.99 C 56.07 54.72 53.53 58.10 49.74 59.93 C 46.94 57.47 48.01 53.97 48.72 50.85 L 48.97 51.01 C 50.16 51.77 51.36 52.51 52.56 53.24 C 52.70 52.30 52.98 50.41 53.12 49.46 Z" />
<path fill="#6e92cd" opacity="1.00" d=" M 57.82 50.99 C 58.65 52.23 59.56 53.44 60.07 54.86 C 57.86 58.91 53.42 60.25 49.08 60.35 L 49.74 59.93 C 53.53 58.10 56.07 54.72 57.82 50.99 Z" />
<path fill="#4b479c" opacity="1.00" d=" M 73.63 63.78 C 74.82 59.07 75.57 53.75 79.71 50.59 C 79.31 54.28 78.67 57.93 78.26 61.62 C 76.71 62.34 75.17 63.06 73.63 63.78 Z" />
<path fill="#fefe9b" opacity="1.00" d=" M 31.52 64.18 C 31.41 58.66 34.87 53.67 39.98 51.69 C 39.77 53.21 39.56 54.74 39.34 56.26 C 36.29 58.43 33.46 60.94 31.52 64.18 Z" />
<path fill="#83a6fb" opacity="1.00" d=" M 81.48 66.98 C 81.06 61.36 83.60 55.96 86.95 51.60 C 85.54 57.34 83.11 62.96 83.36 68.99 C 83.10 73.65 84.41 78.15 85.10 82.70 C 81.06 78.50 81.59 72.35 81.48 66.98 Z" />
<path fill="#33223a" opacity="1.00" d=" M 60.58 63.12 C 65.00 61.42 69.20 59.23 73.31 56.90 C 71.42 64.41 70.15 72.19 71.80 79.89 C 68.68 80.71 65.56 81.51 62.44 82.33 C 62.59 79.65 62.73 76.97 62.87 74.30 C 59.59 74.09 56.31 73.87 53.04 74.01 C 54.57 72.29 56.45 70.74 57.39 68.58 C 58.13 66.26 58.26 63.81 58.57 61.41 C 59.15 60.85 59.73 60.29 60.31 59.73 C 60.40 60.86 60.49 61.99 60.58 63.12 Z" />
<path fill="#3f327d" opacity="1.00" d=" M 49.44 62.89 C 51.99 62.34 54.63 62.50 57.22 62.35 C 56.45 64.70 56.16 67.48 54.15 69.17 C 51.88 71.07 49.06 72.13 46.38 73.30 C 46.43 72.27 46.48 71.23 46.53 70.20 C 45.27 69.05 44.02 67.90 42.78 66.74 C 45.05 65.54 47.18 64.10 49.44 62.89 Z" />
<path fill="#6574ca" opacity="1.00" d=" M 73.63 63.78 C 75.17 63.06 76.71 62.34 78.26 61.62 C 78.29 63.76 78.31 65.89 78.29 68.03 C 76.41 69.05 74.52 70.08 72.63 71.10 C 72.92 68.65 73.27 66.22 73.63 63.78 Z" />
<path fill="#80a0f6" opacity="1.00" d=" M 85.44 64.65 C 88.65 65.70 91.99 66.44 95.03 67.94 C 96.97 69.95 96.04 72.99 96.25 75.48 L 95.58 75.09 C 92.52 73.25 89.45 71.43 86.31 69.73 C 86.11 71.52 85.90 73.31 85.76 75.10 C 85.58 71.62 85.50 68.13 85.44 64.65 Z" />
<path fill="#605779" opacity="1.00" d=" M 20.76 69.69 C 23.61 68.16 26.70 67.19 29.84 66.48 C 30.21 68.00 30.58 69.51 30.95 71.03 C 27.53 70.78 24.10 70.47 20.76 69.69 Z" />
<path fill="#5d66b8" opacity="1.00" d=" M 33.62 70.08 C 36.68 68.99 39.79 68.02 42.78 66.74 C 44.02 67.90 45.27 69.05 46.53 70.20 C 46.48 71.23 46.43 72.27 46.38 73.30 C 41.92 73.45 36.98 73.52 33.62 70.08 Z" />
<path fill="#7f9ef4" opacity="1.00" d=" M 72.63 71.10 C 74.52 70.08 76.41 69.05 78.29 68.03 C 78.11 76.86 80.20 85.55 83.49 93.69 C 75.98 88.74 73.74 79.46 72.63 71.10 Z" />
<path fill="#5e5677" opacity="1.00" d=" M 98.42 68.99 C 102.89 70.68 108.09 71.75 111.00 75.92 L 111.00 81.48 L 110.55 82.25 C 106.17 80.15 101.77 78.05 97.60 75.54 C 97.89 73.36 98.16 71.17 98.42 68.99 Z" />
<path fill="#5153a7" opacity="1.00" d=" M 86.31 69.73 C 89.45 71.43 92.52 73.25 95.58 75.09 C 93.85 77.07 91.92 79.36 89.07 79.54 C 87.53 78.55 85.32 77.27 85.76 75.10 C 85.90 73.31 86.11 71.52 86.31 69.73 Z" />
<path fill="#e3fcdc" opacity="1.00" d=" M 19.43 79.41 C 24.44 77.37 29.40 74.87 34.85 74.29 C 34.06 75.61 33.30 76.97 32.22 78.09 C 21.31 82.04 10.83 87.09 0.00 91.25 L 0.00 88.98 C 6.10 85.09 12.84 82.36 19.43 79.41 Z" />
<path fill="#453754" opacity="1.00" d=" M 43.79 76.42 C 46.84 75.51 49.86 74.39 53.04 74.01 C 56.31 73.87 59.59 74.09 62.87 74.30 C 62.73 76.97 62.59 79.65 62.44 82.33 C 55.82 82.30 48.70 81.31 43.79 76.42 Z" />
<path fill="#3d2d79" opacity="1.00" d=" M 36.30 74.56 C 37.49 75.14 38.71 75.68 39.83 76.39 C 40.75 78.83 40.65 81.48 40.88 84.04 L 40.49 83.50 C 40.17 83.06 39.53 82.19 39.21 81.75 C 38.21 81.43 37.21 81.11 36.21 80.79 C 36.23 78.71 36.26 76.63 36.30 74.56 Z" />
<path fill="#3a2946" opacity="1.00" d=" M 91.72 81.34 C 93.68 79.41 95.65 77.48 97.60 75.54 C 101.77 78.05 106.17 80.15 110.55 82.25 C 108.46 84.27 106.18 86.91 103.06 86.94 C 98.80 86.29 95.29 83.55 91.72 81.34 Z" />
<path fill="#a897a4" opacity="1.00" d=" M 0.00 91.25 C 10.83 87.09 21.31 82.04 32.22 78.09 C 30.24 80.20 27.94 81.99 25.46 83.48 C 17.24 88.26 8.66 92.38 0.00 96.26 L 0.00 91.25 Z" />
<path fill="#5151a2" opacity="1.00" d=" M 36.21 80.79 C 37.21 81.11 38.21 81.43 39.21 81.75 C 39.53 82.19 40.17 83.06 40.49 83.50 C 39.58 85.03 38.73 86.61 37.60 88.01 C 36.37 87.34 35.17 86.64 33.97 85.95 C 34.71 84.23 35.46 82.51 36.21 80.79 Z" />
<path fill="#6574ca" opacity="1.00" d=" M 48.48 82.29 C 49.26 82.70 50.05 83.10 50.84 83.51 C 49.96 86.98 48.39 90.30 45.41 92.44 C 46.36 89.04 47.59 85.72 48.48 82.29 Z" />
<path fill="#474094" opacity="1.00" d=" M 105.82 88.09 C 107.57 86.87 109.33 85.64 111.00 84.29 L 111.00 90.56 C 109.30 89.68 107.56 88.89 105.82 88.09 Z" />
<path fill="#748ce2" opacity="1.00" d=" M 33.97 85.95 C 35.17 86.64 36.37 87.34 37.60 88.01 C 34.61 91.79 31.19 95.40 26.66 97.33 C 28.79 93.34 31.45 89.69 33.97 85.95 Z" />
</svg>
