<?xml version="1.0" encoding="UTF-8" ?>
<!DOCTYPE svg PUBLIC "-//W3C//DTD SVG 1.1//EN" "http://www.w3.org/Graphics/SVG/1.1/DTD/svg11.dtd">
<svg width="111pt" height="111pt" viewBox="0 0 111 111" version="1.1" xmlns="http://www.w3.org/2000/svg">
<path fill="#000000" opacity="1.00" d=" M 47.96 25.56 C 50.32 21.14 52.43 15.69 57.41 13.65 C 57.83 15.41 58.29 17.16 58.44 18.97 C 58.78 26.47 59.69 33.95 59.35 41.47 C 67.70 42.35 76.43 44.10 83.24 49.31 C 91.69 48.60 99.61 52.63 105.58 58.34 C 107.39 58.87 109.21 59.39 111.00 59.98 L 111.00 62.03 C 109.69 61.36 108.34 60.75 107.00 60.14 C 107.99 62.00 109.06 63.83 110.20 65.62 C 110.44 66.87 110.71 68.11 111.00 69.36 L 111.00 70.98 C 109.89 70.83 108.78 70.69 107.67 70.55 C 107.63 69.92 107.55 68.67 107.51 68.04 C 106.61 65.11 105.27 62.24 103.10 60.02 C 99.85 57.00 95.91 54.86 92.07 52.69 C 90.00 52.21 87.94 51.71 85.85 51.28 C 86.81 52.69 87.79 54.08 88.72 55.50 C 92.25 60.56 93.74 66.66 94.62 72.67 C 94.53 73.18 94.34 74.22 94.24 74.74 C 92.74 82.11 90.34 89.67 85.05 95.25 C 90.59 96.87 96.43 95.89 102.01 97.24 C 105.03 97.95 108.10 97.19 111.00 96.32 L 111.00 109.48 C 103.97 109.61 96.95 109.77 89.95 110.38 C 76.64 110.80 63.32 110.84 50.01 110.63 C 41.88 110.66 33.82 109.12 25.68 109.61 C 20.01 109.56 14.42 108.62 8.81 107.90 C 5.73 106.97 2.76 105.69 0.00 104.04 L 0.00 100.25 C 1.95 98.87 4.17 97.96 6.39 97.13 C 12.95 96.30 19.33 94.51 25.84 93.45 C 25.71 93.02 25.45 92.17 25.32 91.74 C 25.20 91.66 24.97 91.50 24.85 91.42 C 20.88 89.43 17.36 85.63 17.29 80.98 C 16.97 77.59 17.53 74.21 18.34 70.93 C 18.18 70.33 17.87 69.12 17.71 68.52 C 19.11 66.60 20.54 64.70 21.98 62.81 C 20.64 61.13 19.29 59.45 17.66 58.04 C 11.91 52.86 6.28 47.53 0.00 42.98 L 0.00 40.49 C 7.98 45.38 15.40 51.30 21.50 58.43 C 22.45 59.52 23.38 57.26 23.89 56.64 C 27.12 50.28 33.09 45.81 39.56 43.09 C 41.87 42.80 44.18 42.57 46.49 42.33 C 46.47 36.70 47.22 31.12 47.96 25.56 M 54.89 17.38 C 52.86 21.76 49.36 25.76 49.41 30.83 C 47.99 33.68 48.54 36.95 48.43 40.01 C 48.64 45.27 48.31 50.59 49.36 55.77 C 50.26 59.50 48.95 64.49 52.09 67.17 C 53.82 60.80 56.64 54.56 55.85 47.79 C 56.35 46.31 56.63 44.74 56.49 43.17 C 56.71 34.55 56.37 25.93 56.56 17.30 C 56.14 17.32 55.31 17.36 54.89 17.38 M 59.45 44.09 C 58.88 47.73 58.68 51.40 58.24 55.05 C 57.88 58.14 56.34 60.92 55.70 63.95 C 60.48 68.39 64.97 73.23 68.32 78.86 C 68.55 80.08 68.79 81.30 69.05 82.52 C 70.43 86.55 68.40 90.28 66.94 93.93 C 70.61 92.45 74.30 90.84 77.36 88.28 L 77.20 87.93 C 82.34 81.82 85.05 71.91 79.66 65.17 C 79.05 63.31 78.18 61.55 77.16 59.90 C 76.85 58.98 76.59 58.05 76.38 57.11 C 79.76 60.26 82.26 64.16 84.32 68.27 C 84.22 69.89 84.06 72.12 86.35 71.97 C 86.44 73.81 86.55 75.72 87.83 77.18 C 89.04 76.05 90.19 74.55 89.45 72.82 C 89.50 70.53 85.94 72.45 85.43 70.60 C 86.72 70.25 87.82 69.40 89.18 69.28 C 89.70 70.22 90.73 72.10 91.24 73.04 C 92.32 67.39 89.69 61.80 86.80 57.10 C 83.79 51.98 78.32 49.21 73.16 46.74 C 68.62 45.68 64.14 44.27 59.45 44.09 M 38.77 46.49 L 37.66 46.18 L 37.42 47.22 C 31.93 49.56 27.54 54.08 24.86 59.36 L 24.09 59.30 C 24.17 59.93 24.33 61.18 24.40 61.81 C 31.53 58.07 39.97 59.80 47.68 59.81 C 46.16 54.75 46.37 49.44 46.39 44.23 C 44.92 44.53 43.44 44.79 41.96 45.00 C 40.85 45.40 39.77 45.87 38.77 46.49 M 26.07 62.98 C 24.99 63.64 23.85 64.19 22.69 64.71 C 22.01 67.43 20.25 69.87 20.35 72.77 L 19.62 71.82 C 19.37 74.84 19.34 77.86 19.28 80.89 C 24.93 80.64 30.39 78.82 36.04 78.69 C 42.05 79.40 48.10 80.72 53.56 83.42 C 55.30 85.04 57.85 85.67 59.48 87.49 C 61.08 89.30 62.46 91.30 64.00 93.17 C 68.10 88.09 66.87 80.97 63.28 75.99 C 61.67 74.22 60.11 72.40 58.51 70.61 C 57.39 69.38 56.26 68.16 55.13 66.95 C 53.42 68.26 51.79 69.66 50.05 70.93 C 49.29 68.53 48.68 66.09 48.24 63.62 C 44.11 61.86 39.49 61.97 35.08 61.78 C 33.72 61.64 32.46 62.13 31.13 62.23 C 29.43 62.33 27.73 62.58 26.07 62.98 M 87.83 78.95 C 87.47 77.16 86.36 76.21 84.50 76.09 C 84.21 77.92 83.89 79.73 83.60 81.56 L 83.23 81.57 C 82.34 83.47 81.45 85.36 80.56 87.25 C 78.88 89.35 77.05 91.33 75.17 93.25 C 78.15 95.54 81.83 94.06 85.02 93.18 L 84.61 92.65 C 87.78 89.65 89.25 85.37 90.45 81.28 C 90.78 79.48 91.30 77.71 91.65 75.91 C 90.29 76.80 89.03 77.85 87.83 78.95 M 20.21 82.85 C 21.09 86.19 24.22 88.21 26.82 90.18 C 29.88 92.30 33.12 94.31 36.68 95.44 C 40.65 96.96 44.97 96.62 49.13 96.47 C 52.86 96.15 56.96 95.40 59.67 92.60 C 59.85 88.77 55.00 87.29 52.67 84.91 L 52.45 85.14 C 47.72 83.56 43.01 81.49 37.96 81.34 C 32.95 81.17 27.94 81.38 22.95 81.82 C 22.27 82.08 20.90 82.59 20.21 82.85 M 28.33 94.05 C 28.43 95.12 28.54 96.18 28.65 97.24 C 29.98 97.29 31.31 97.35 32.64 97.41 C 32.55 97.03 32.36 96.26 32.27 95.88 C 30.96 95.28 29.65 94.66 28.33 94.05 M 82.69 97.40 C 83.80 98.88 85.57 99.45 87.33 99.72 C 87.39 99.12 87.52 97.92 87.59 97.33 C 85.96 97.34 84.32 97.34 82.69 97.40 Z" />
<path fill="#7dae91" opacity="1.00" d=" M 54.89 17.38 C 55.31 17.36 56.14 17.32 56.56 17.30 C 56.37 25.93 56.71 34.55 56.49 43.17 C 56.25 40.87 55.91 38.59 55.58 36.30 C 55.34 36.65 54.85 37.34 54.61 37.69 C 54.20 36.68 53.79 35.68 53.39 34.68 C 52.56 34.58 51.74 34.48 50.91 34.39 C 50.40 33.21 49.89 32.02 49.41 30.83 C 49.36 25.76 52.86 21.76 54.89 17.38 Z" />
<path fill="#000000" opacity="0.40" d=" M 45.31 40.91 C 45.66 35.75 45.48 30.28 47.96 25.56 C 47.22 31.12 46.47 36.70 46.49 42.33 C 44.18 42.57 41.87 42.80 39.56 43.09 C 41.43 42.25 43.37 41.59 45.31 40.91 Z" />
<path fill="#699367" opacity="1.00" d=" M 48.43 40.01 C 48.54 36.95 47.99 33.68 49.41 30.83 C 49.89 32.02 50.40 33.21 50.91 34.39 C 51.74 34.48 52.56 34.58 53.39 34.68 C 53.79 35.68 54.20 36.68 54.61 37.69 C 54.85 37.34 55.34 36.65 55.58 36.30 C 55.91 38.59 56.25 40.87 56.49 43.17 C 56.63 44.74 56.35 46.31 55.85 47.79 C 54.94 51.34 53.07 54.64 49.36 55.77 C 48.31 50.59 48.64 45.27 48.43 40.01 Z" />
<path fill="#7cae80" opacity="1.00" d=" M 0.00 42.98 C 6.28 47.53 11.91 52.86 17.66 58.04 C 17.36 58.81 16.76 60.35 16.46 61.13 C 14.84 60.19 13.25 59.20 11.73 58.10 C 8.22 53.66 3.91 49.96 0.00 45.90 L 0.00 42.98 Z" />
<path fill="#9fcc6e" opacity="1.00" d=" M 59.45 44.09 C 64.14 44.27 68.62 45.68 73.16 46.74 C 78.32 49.21 83.79 51.98 86.80 57.10 C 89.69 61.80 92.32 67.39 91.24 73.04 C 90.73 72.10 89.70 70.22 89.18 69.28 C 87.82 69.40 86.72 70.25 85.43 70.60 C 85.08 69.81 84.71 69.04 84.32 68.27 C 82.26 64.16 79.76 60.26 76.38 57.11 C 76.59 58.05 76.85 58.98 77.16 59.90 C 78.18 61.55 79.05 63.31 79.66 65.17 C 79.58 68.30 79.86 71.71 78.03 74.46 C 78.11 71.52 75.96 69.61 73.81 68.02 C 72.20 70.56 70.52 73.17 70.36 76.27 C 71.16 77.07 71.95 77.88 72.73 78.69 C 73.62 78.59 74.50 78.47 75.38 78.34 L 76.28 77.20 C 76.35 77.80 76.49 79.00 76.57 79.61 C 76.00 80.16 75.42 80.71 74.84 81.25 C 73.11 82.40 71.06 82.56 69.05 82.52 C 68.79 81.30 68.55 80.08 68.32 78.86 C 64.97 73.23 60.48 68.39 55.70 63.95 C 56.34 60.92 57.88 58.14 58.24 55.05 C 58.68 51.40 58.88 47.73 59.45 44.09 M 67.85 51.88 C 67.97 54.84 70.65 56.18 73.14 56.90 C 72.61 54.23 70.56 52.26 67.85 51.88 Z" />
<path fill="#a1cf6f" opacity="1.00" d=" M 38.77 46.49 C 39.77 45.87 40.85 45.40 41.96 45.00 C 43.44 44.79 44.92 44.53 46.39 44.23 C 46.37 49.44 46.16 54.75 47.68 59.81 C 39.97 59.80 31.53 58.07 24.40 61.81 C 24.33 61.18 24.17 59.93 24.09 59.30 L 24.86 59.36 C 25.27 59.40 26.10 59.47 26.51 59.50 C 30.57 54.64 35.25 50.27 40.74 47.07 C 40.25 46.93 39.26 46.64 38.77 46.49 Z" />
<path fill="#000000" opacity="1.00" d=" M 0.00 45.90 C 3.91 49.96 8.22 53.66 11.73 58.10 C 13.97 61.15 17.08 63.86 17.54 67.84 C 12.00 60.97 6.26 54.26 0.00 48.03 L 0.00 45.90 Z" />
<path fill="#ffffa1" opacity="1.00" d=" M 37.42 47.22 L 37.66 46.18 L 38.77 46.49 C 39.26 46.64 40.25 46.93 40.74 47.07 C 35.25 50.27 30.57 54.64 26.51 59.50 C 26.10 59.47 25.27 59.40 24.86 59.36 C 27.54 54.08 31.93 49.56 37.42 47.22 Z" />
<path fill="#324755" opacity="1.00" d=" M 49.36 55.77 C 53.07 54.64 54.94 51.34 55.85 47.79 C 56.64 54.56 53.82 60.80 52.09 67.17 C 48.95 64.49 50.26 59.50 49.36 55.77 Z" />
<path fill="#ffffa4" opacity="1.00" d=" M 85.85 51.28 C 87.94 51.71 90.00 52.21 92.07 52.69 C 95.91 54.86 99.85 57.00 103.10 60.02 C 102.97 60.47 102.72 61.36 102.59 61.81 C 98.27 59.10 93.55 57.13 88.72 55.50 C 87.79 54.08 86.81 52.69 85.85 51.28 Z" />
<path fill="#749652" opacity="1.00" d=" M 67.85 51.88 C 70.56 52.26 72.61 54.23 73.14 56.90 C 70.65 56.18 67.97 54.84 67.85 51.88 Z" />
<path fill="#729f83" opacity="1.00" d=" M 88.72 55.50 C 93.55 57.13 98.27 59.10 102.59 61.81 C 102.72 61.36 102.97 60.47 103.10 60.02 C 105.27 62.24 106.61 65.11 107.51 68.04 C 107.08 68.51 106.24 69.45 105.82 69.92 C 103.14 69.39 100.46 68.92 97.77 68.48 C 96.77 69.91 95.75 71.33 94.62 72.67 C 93.74 66.66 92.25 60.56 88.72 55.50 Z" />
<path fill="#304453" opacity="1.00" d=" M 11.73 58.10 C 13.25 59.20 14.84 60.19 16.46 61.13 C 16.76 60.35 17.36 58.81 17.66 58.04 C 19.29 59.45 20.64 61.13 21.98 62.81 C 20.54 64.70 19.11 66.60 17.71 68.52 C 17.67 68.35 17.58 68.01 17.54 67.84 C 17.08 63.86 13.97 61.15 11.73 58.10 Z" />
<path fill="#b2b28e" opacity="1.00" d=" M 107.00 60.14 C 108.34 60.75 109.69 61.36 111.00 62.03 L 111.00 69.36 C 110.71 68.11 110.44 66.87 110.20 65.62 C 109.06 63.83 107.99 62.00 107.00 60.14 Z" />
<path fill="#ffffa1" opacity="1.00" d=" M 26.07 62.98 C 27.73 62.58 29.43 62.33 31.13 62.23 C 32.46 62.13 33.72 61.64 35.08 61.78 C 29.42 64.54 24.28 68.36 20.97 73.81 C 20.82 73.55 20.50 73.03 20.35 72.77 C 20.25 69.87 22.01 67.43 22.69 64.71 C 23.85 64.19 24.99 63.64 26.07 62.98 Z" />
<path fill="#628a5c" opacity="1.00" d=" M 35.08 61.78 C 39.49 61.97 44.11 61.86 48.24 63.62 C 48.68 66.09 49.29 68.53 50.05 70.93 C 52.87 71.50 55.73 71.28 58.51 70.61 C 60.11 72.40 61.67 74.22 63.28 75.99 C 62.88 76.18 62.07 76.56 61.67 76.75 C 60.59 75.65 59.51 74.54 58.44 73.43 C 57.92 73.43 56.89 73.43 56.37 73.43 C 55.44 74.47 54.51 75.50 53.59 76.56 C 52.39 78.71 52.95 81.18 53.56 83.42 C 48.10 80.72 42.05 79.40 36.04 78.69 C 30.39 78.82 24.93 80.64 19.28 80.89 C 19.34 77.86 19.37 74.84 19.62 71.82 L 20.35 72.77 C 20.50 73.03 20.82 73.55 20.97 73.81 C 24.28 68.36 29.42 64.54 35.08 61.78 Z" />
<path fill="#4a6c68" opacity="1.00" d=" M 79.66 65.17 C 85.05 71.91 82.34 81.82 77.20 87.93 C 76.17 85.79 75.43 83.54 74.84 81.25 C 75.42 80.71 76.00 80.16 76.57 79.61 C 76.49 79.00 76.35 77.80 76.28 77.20 C 76.92 76.32 77.51 75.41 78.03 74.46 C 79.86 71.71 79.58 68.30 79.66 65.17 Z" />
<path fill="#3b534c" opacity="1.00" d=" M 50.05 70.93 C 51.79 69.66 53.42 68.26 55.13 66.95 C 56.26 68.16 57.39 69.38 58.51 70.61 C 55.73 71.28 52.87 71.50 50.05 70.93 Z" />
<path fill="#000000" opacity="1.00" d=" M 73.81 68.02 C 75.96 69.61 78.11 71.52 78.03 74.46 C 77.51 75.41 76.92 76.32 76.28 77.20 L 75.38 78.34 C 74.50 78.47 73.62 78.59 72.73 78.69 C 71.95 77.88 71.16 77.07 70.36 76.27 C 70.52 73.17 72.20 70.56 73.81 68.02 M 72.85 70.52 C 72.71 71.03 72.44 72.06 72.30 72.57 L 71.43 72.42 C 71.43 73.49 71.43 75.63 71.43 76.70 C 73.78 77.06 75.81 76.37 76.70 74.04 C 75.69 72.55 75.06 70.36 72.85 70.52 Z" />
<path fill="#ffffa4" opacity="1.00" d=" M 84.32 68.27 C 84.71 69.04 85.08 69.81 85.43 70.60 C 85.94 72.45 89.50 70.53 89.45 72.82 C 90.19 74.55 89.04 76.05 87.83 77.18 C 86.55 75.72 86.44 73.81 86.35 71.97 C 84.06 72.12 84.22 69.89 84.32 68.27 Z" />
<path fill="#68926d" opacity="1.00" d=" M 97.77 68.48 C 100.46 68.92 103.14 69.39 105.82 69.92 C 106.24 69.45 107.08 68.51 107.51 68.04 C 107.55 68.67 107.63 69.92 107.67 70.55 C 108.78 70.69 109.89 70.83 111.00 70.98 L 111.00 71.57 C 108.79 72.15 106.53 72.68 104.51 73.79 L 104.95 71.24 C 102.02 73.02 100.80 76.15 100.01 79.31 C 98.13 77.73 96.18 76.24 94.24 74.74 C 94.34 74.22 94.53 73.18 94.62 72.67 C 95.75 71.33 96.77 69.91 97.77 68.48 Z" />
<path fill="#ffffa8" opacity="1.00" d=" M 72.85 70.52 C 75.06 70.36 75.69 72.55 76.70 74.04 C 75.81 76.37 73.78 77.06 71.43 76.70 C 71.43 75.63 71.43 73.49 71.43 72.42 L 72.30 72.57 C 72.44 72.06 72.71 71.03 72.85 70.52 Z" />
<path fill="#ffff9d" opacity="1.00" d=" M 104.51 73.79 C 106.53 72.68 108.79 72.15 111.00 71.57 L 111.00 80.43 C 107.86 81.10 104.71 80.32 102.37 78.11 C 103.11 76.68 103.83 75.24 104.51 73.79 Z" />
<path fill="#000000" opacity="1.00" d=" M 56.37 73.43 C 56.89 73.43 57.92 73.43 58.44 73.43 C 59.51 74.54 60.59 75.65 61.67 76.75 C 61.73 79.91 60.47 83.27 56.95 83.72 C 55.11 81.68 53.35 79.48 53.59 76.56 C 54.51 75.50 55.44 74.47 56.37 73.43 M 55.69 75.15 C 55.01 76.66 54.04 78.24 55.02 79.86 C 56.03 81.56 58.00 80.52 59.56 80.56 C 59.72 77.95 58.89 74.96 55.69 75.15 Z" />
<path fill="#362c21" opacity="1.00" d=" M 100.01 79.31 C 100.80 76.15 102.02 73.02 104.95 71.24 L 104.51 73.79 C 103.83 75.24 103.11 76.68 102.37 78.11 C 104.71 80.32 107.86 81.10 111.00 80.43 L 111.00 84.16 C 106.72 84.27 102.95 82.28 100.01 79.31 Z" />
<path fill="#2a3d4d" opacity="1.00" d=" M 85.05 95.25 C 90.34 89.67 92.74 82.11 94.24 74.74 C 96.18 76.24 98.13 77.73 100.01 79.31 C 102.95 82.28 106.72 84.27 111.00 84.16 L 111.00 96.32 C 108.10 97.19 105.03 97.95 102.01 97.24 C 96.43 95.89 90.59 96.87 85.05 95.25 Z" />
<path fill="#314651" opacity="1.00" d=" M 53.56 83.42 C 52.95 81.18 52.39 78.71 53.59 76.56 C 53.35 79.48 55.11 81.68 56.95 83.72 C 60.47 83.27 61.73 79.91 61.67 76.75 C 62.07 76.56 62.88 76.18 63.28 75.99 C 66.87 80.97 68.10 88.09 64.00 93.17 C 62.46 91.30 61.08 89.30 59.48 87.49 C 57.85 85.67 55.30 85.04 53.56 83.42 Z" />
<path fill="#ffff9d" opacity="1.00" d=" M 55.69 75.15 C 58.89 74.96 59.72 77.95 59.56 80.56 C 58.00 80.52 56.03 81.56 55.02 79.86 C 54.04 78.24 55.01 76.66 55.69 75.15 Z" />
<path fill="#8eb970" opacity="1.00" d=" M 87.83 78.95 C 89.03 77.85 90.29 76.80 91.65 75.91 C 91.30 77.71 90.78 79.48 90.45 81.28 C 88.16 81.38 85.88 81.47 83.60 81.56 C 83.89 79.73 84.21 77.92 84.50 76.09 C 86.36 76.21 87.47 77.16 87.83 78.95 Z" />
<path fill="#3f5d60" opacity="1.00" d=" M 83.23 81.57 L 83.60 81.56 C 85.88 81.47 88.16 81.38 90.45 81.28 C 89.25 85.37 87.78 89.65 84.61 92.65 C 83.19 90.90 81.87 89.08 80.56 87.25 C 81.45 85.36 82.34 83.47 83.23 81.57 Z" />
<path fill="#9cc96e" opacity="1.00" d=" M 20.21 82.85 C 20.90 82.59 22.27 82.08 22.95 81.82 C 27.94 81.38 32.95 81.17 37.96 81.34 C 43.01 81.49 47.72 83.56 52.45 85.14 C 50.57 87.81 47.06 87.84 44.22 88.80 C 38.60 90.45 32.55 92.83 26.82 90.18 C 24.22 88.21 21.09 86.19 20.21 82.85 Z" />
<path fill="#344c54" opacity="1.00" d=" M 69.05 82.52 C 71.06 82.56 73.11 82.40 74.84 81.25 C 75.43 83.54 76.17 85.79 77.20 87.93 L 77.36 88.28 C 74.30 90.84 70.61 92.45 66.94 93.93 C 68.40 90.28 70.43 86.55 69.05 82.52 Z" />
<path fill="#30434c" opacity="1.00" d=" M 52.45 85.14 L 52.67 84.91 C 55.00 87.29 59.85 88.77 59.67 92.60 C 56.96 95.40 52.86 96.15 49.13 96.47 C 44.97 96.62 40.65 96.96 36.68 95.44 C 40.90 95.57 45.12 95.28 49.25 94.40 C 47.76 92.38 46.14 90.43 44.22 88.80 C 47.06 87.84 50.57 87.81 52.45 85.14 Z" />
<path fill="#273646" opacity="1.00" d=" M 75.17 93.25 C 77.05 91.33 78.88 89.35 80.56 87.25 C 81.87 89.08 83.19 90.90 84.61 92.65 L 85.02 93.18 C 81.83 94.06 78.15 95.54 75.17 93.25 Z" />
<path fill="#3f595b" opacity="1.00" d=" M 26.82 90.18 C 32.55 92.83 38.60 90.45 44.22 88.80 C 46.14 90.43 47.76 92.38 49.25 94.40 C 45.12 95.28 40.90 95.57 36.68 95.44 C 33.12 94.31 29.88 92.30 26.82 90.18 Z" />
<path fill="#000000" opacity="0.56" d=" M 24.85 91.42 C 24.97 91.50 25.20 91.66 25.32 91.74 C 25.45 92.17 25.71 93.02 25.84 93.45 C 19.33 94.51 12.95 96.30 6.39 97.13 C 12.13 93.83 19.36 95.07 24.85 91.42 Z" />
<path fill="#b2b28e" opacity="1.00" d=" M 28.33 94.05 C 29.65 94.66 30.96 95.28 32.27 95.88 C 32.36 96.26 32.55 97.03 32.64 97.41 C 31.31 97.35 29.98 97.29 28.65 97.24 C 28.54 96.18 28.43 95.12 28.33 94.05 Z" />
<path fill="#8eb970" opacity="1.00" d=" M 82.69 97.40 C 84.32 97.34 85.96 97.34 87.59 97.33 C 87.52 97.92 87.39 99.12 87.33 99.72 C 85.57 99.45 83.80 98.88 82.69 97.40 Z" />
<path fill="#000000" opacity="0.29" d=" M 8.81 107.90 C 14.42 108.62 20.01 109.56 25.68 109.61 C 26.67 110.07 27.65 110.53 28.64 111.00 L 21.67 111.00 C 17.30 110.32 12.82 109.90 8.81 107.90 Z" />
<path fill="#000000" opacity="0.61" d=" M 25.68 109.61 C 33.82 109.12 41.88 110.66 50.01 110.63 C 63.32 110.84 76.64 110.80 89.95 110.38 C 96.95 109.77 103.97 109.61 111.00 109.48 L 111.00 111.00 L 28.64 111.00 C 27.65 110.53 26.67 110.07 25.68 109.61 Z" />
</svg>
