<?xml version="1.0" encoding="UTF-8" ?>
<!DOCTYPE svg PUBLIC "-//W3C//DTD SVG 1.1//EN" "http://www.w3.org/Graphics/SVG/1.1/DTD/svg11.dtd">
<svg width="111pt" height="111pt" viewBox="0 0 111 111" version="1.1" xmlns="http://www.w3.org/2000/svg">
<path fill="#010100" opacity="1.00" d=" M 28.18 0.00 L 31.53 0.00 C 25.36 5.01 20.29 11.17 15.15 17.18 C 9.95 23.07 5.76 29.74 2.05 36.64 C 1.27 37.98 0.60 39.37 0.00 40.80 L 0.00 35.69 C 7.00 22.14 17.17 10.44 28.18 0.00 Z" />
<path fill="#adcba3" opacity="1.00" d=" M 31.53 0.00 L 35.44 0.00 C 24.76 10.81 14.96 22.94 9.39 37.24 C 8.41 36.27 7.42 35.30 6.43 34.33 C 5.11 35.36 3.72 36.33 2.05 36.64 C 5.76 29.74 9.95 23.07 15.15 17.18 C 20.29 11.17 25.36 5.01 31.53 0.00 Z" />
<path fill="#010100" opacity="1.00" d=" M 35.44 0.00 L 37.74 0.00 C 23.99 13.40 11.60 29.66 8.21 49.02 C 10.80 50.97 13.63 52.75 15.67 55.32 C 16.79 59.00 14.03 62.11 12.17 64.96 C 14.37 67.15 16.66 69.25 19.07 71.20 C 19.25 72.70 19.41 74.21 19.69 75.71 C 19.96 76.80 20.29 77.88 20.67 78.95 C 21.51 78.46 23.18 77.49 24.02 77.01 C 22.91 75.79 21.78 74.58 20.66 73.37 C 21.03 73.11 21.77 72.59 22.14 72.34 C 23.10 73.38 24.02 74.45 24.93 75.53 C 35.72 72.70 45.66 67.48 55.60 62.56 C 59.19 61.02 61.58 57.77 63.19 54.32 C 64.17 55.68 64.49 57.24 64.22 58.90 C 65.48 58.49 66.75 58.09 68.02 57.70 C 67.71 56.40 67.40 55.10 67.10 53.79 C 63.10 54.31 59.04 54.70 55.01 54.16 C 50.20 53.47 45.27 53.86 40.53 52.67 C 43.09 50.95 45.87 49.23 49.06 49.25 C 55.20 49.15 61.54 48.71 67.44 50.74 C 69.88 47.39 73.10 44.76 76.67 42.70 C 70.72 36.69 69.37 28.19 66.75 20.53 C 65.12 15.41 65.23 9.97 65.25 4.67 C 67.92 7.89 69.55 11.77 71.45 15.45 C 75.58 23.54 78.63 32.36 78.98 41.50 C 81.29 41.65 84.24 40.85 85.90 42.98 C 87.41 44.47 87.48 46.68 87.84 48.64 C 89.42 48.46 91.01 48.21 92.62 48.25 C 92.85 48.92 93.31 50.26 93.54 50.92 C 99.32 49.97 105.16 49.66 111.00 49.34 L 111.00 51.17 C 99.94 51.19 89.02 53.21 78.41 56.20 C 75.91 56.70 73.44 57.50 71.46 59.16 C 78.93 58.46 86.41 58.04 93.89 57.55 C 99.52 57.19 105.61 57.61 110.58 54.42 L 111.00 54.19 L 111.00 56.13 C 107.61 57.92 103.75 58.15 100.08 58.96 C 98.71 59.84 98.56 61.71 97.88 63.06 C 102.95 63.90 107.25 60.33 111.00 57.42 L 111.00 60.02 C 107.28 62.19 103.90 64.81 100.60 67.55 C 96.62 68.81 96.26 73.31 94.37 76.42 C 92.40 79.71 89.35 82.83 85.29 83.04 C 83.87 84.82 82.20 86.41 79.96 87.09 C 77.06 87.99 75.73 90.94 74.04 93.20 C 74.37 96.29 72.51 98.54 70.05 100.08 C 77.75 95.56 86.78 93.36 95.68 94.83 C 92.00 97.52 87.99 99.72 84.14 102.15 C 84.20 102.88 84.33 104.33 84.39 105.06 C 85.65 105.33 86.90 105.60 88.16 105.88 C 88.83 107.60 89.50 109.32 90.25 111.00 L 87.82 111.00 C 87.25 109.84 86.70 108.67 86.17 107.50 C 84.36 107.58 82.55 107.68 80.76 107.95 C 79.35 108.18 77.96 108.45 76.56 108.71 C 76.54 109.28 76.50 110.43 76.48 111.00 L 74.42 111.00 C 74.44 109.71 74.47 108.42 74.51 107.13 C 71.62 108.53 68.62 109.71 65.68 111.00 L 63.49 111.00 C 66.24 108.62 68.73 105.68 69.66 102.08 C 69.08 101.15 67.74 101.37 66.81 101.07 C 63.55 101.13 60.34 101.67 57.17 102.38 C 57.06 104.13 57.01 105.88 57.19 107.63 C 57.42 108.76 57.70 109.88 57.97 111.00 L 56.89 111.00 C 55.20 109.21 53.22 107.66 50.64 108.51 C 50.95 109.13 51.57 110.38 51.88 111.00 L 46.77 111.00 C 47.37 110.59 48.56 109.77 49.16 109.36 C 50.08 108.15 51.08 106.99 52.10 105.86 C 51.03 103.02 47.49 98.81 50.89 96.38 C 53.58 97.01 55.55 99.13 57.73 100.69 C 58.54 100.42 60.16 99.90 60.97 99.64 C 61.39 94.34 64.66 90.08 66.80 85.41 C 65.17 85.40 63.55 85.40 61.92 85.38 C 61.04 84.09 60.13 82.82 59.15 81.60 C 59.17 79.19 59.61 76.81 60.29 74.51 C 56.09 77.06 51.26 78.20 46.45 78.92 C 44.23 81.99 40.74 83.72 37.02 84.11 C 31.32 85.02 25.48 84.51 19.98 82.80 C 19.63 86.01 18.58 89.08 17.13 91.96 C 19.65 93.47 22.90 94.97 23.48 98.18 C 24.28 101.79 20.98 104.19 19.18 106.82 C 19.88 108.21 20.59 109.61 21.29 111.00 L 19.15 111.00 C 18.52 109.71 17.94 108.40 17.35 107.10 C 18.09 106.10 18.81 105.10 19.53 104.09 C 20.59 102.35 22.27 100.52 21.70 98.32 C 20.75 95.77 17.94 94.85 15.68 93.81 C 15.05 97.56 15.71 101.30 16.15 105.02 C 15.43 107.11 14.41 109.09 13.31 111.00 L 11.23 111.00 C 12.52 108.78 14.00 106.57 14.52 104.02 C 13.34 97.65 13.45 91.15 12.28 84.78 C 8.20 86.77 4.05 88.62 0.00 90.67 L 0.00 89.10 C 3.50 86.94 7.19 85.14 10.83 83.24 C 9.67 79.96 9.74 76.49 9.47 73.07 C 7.48 67.55 3.78 62.84 0.00 58.43 L 0.00 54.70 C 0.84 55.78 1.69 56.86 2.54 57.93 C 5.38 61.24 8.00 64.74 10.07 68.58 C 10.93 70.75 11.60 72.99 12.04 75.28 C 13.78 75.06 15.51 74.84 17.25 74.62 C 16.64 71.04 13.66 68.81 11.18 66.49 C 9.34 62.99 13.23 60.25 13.86 56.93 C 11.67 54.10 8.77 51.96 6.20 49.50 C 6.68 47.06 7.13 44.63 7.59 42.19 C 8.18 40.54 8.76 38.88 9.39 37.24 C 14.96 22.94 24.76 10.81 35.44 0.00 M 71.69 30.34 C 72.63 34.67 75.21 38.39 77.74 41.94 C 77.23 37.89 76.69 33.80 75.32 29.94 C 73.36 22.54 69.47 15.86 66.47 8.86 C 66.62 16.34 69.62 23.27 71.69 30.34 M 74.72 46.63 C 72.74 48.05 70.77 49.69 69.62 51.89 C 68.69 53.91 70.25 55.87 70.85 57.73 C 73.09 56.40 75.25 54.95 77.36 53.42 C 76.14 53.57 73.71 53.86 72.50 54.01 C 73.41 51.61 74.76 49.42 76.21 47.31 L 76.71 47.61 C 77.99 47.09 79.27 46.57 80.56 46.08 C 80.54 46.32 80.50 46.81 80.49 47.05 C 77.48 47.75 75.21 49.97 74.10 52.81 C 76.90 52.72 79.42 50.89 80.39 48.27 C 80.31 49.31 80.16 51.39 80.09 52.44 C 81.97 51.43 83.85 50.41 85.69 49.32 C 85.00 47.22 84.72 44.25 82.09 43.67 C 79.26 43.13 76.97 45.28 74.72 46.63 M 43.13 52.23 C 51.13 53.11 59.21 52.83 67.22 52.29 C 59.40 50.87 50.79 49.08 43.13 52.23 M 83.20 52.92 C 85.93 52.08 91.35 53.58 91.63 49.60 C 88.69 50.32 85.72 51.16 83.20 52.92 M 67.19 59.25 C 64.75 59.92 62.45 61.05 60.29 62.34 C 60.89 64.49 64.01 66.25 66.14 65.05 C 67.67 64.26 70.09 63.24 69.82 61.15 C 70.01 59.89 68.23 58.99 67.19 59.25 M 82.46 59.62 C 83.11 62.49 83.40 65.42 83.43 68.36 C 86.93 69.92 90.40 71.59 93.59 73.73 C 94.19 72.10 94.70 70.44 95.13 68.76 C 92.21 68.55 88.48 69.20 86.49 66.48 C 85.28 63.99 86.93 61.47 88.18 59.37 C 86.27 59.47 84.37 59.55 82.46 59.62 M 87.17 64.71 C 87.81 66.60 90.19 66.60 91.75 67.28 C 90.95 64.51 91.15 61.64 91.86 58.88 C 88.71 58.83 87.12 61.95 87.17 64.71 M 93.61 59.44 C 92.34 60.90 92.80 62.96 92.59 64.72 C 93.63 64.70 95.71 64.67 96.75 64.65 C 95.98 62.42 97.09 60.48 98.23 58.66 C 96.70 58.91 94.97 58.58 93.61 59.44 M 71.77 59.70 C 71.88 60.15 72.10 61.05 72.22 61.50 C 71.58 63.50 70.11 64.98 68.65 66.41 C 68.32 67.07 67.99 67.73 67.67 68.40 L 66.28 67.06 C 64.80 69.04 63.12 70.99 62.48 73.44 L 62.22 72.88 C 61.29 75.27 60.82 77.80 60.56 80.35 C 61.70 79.89 62.83 79.43 63.96 78.97 C 64.21 79.67 64.69 81.07 64.94 81.77 C 66.03 82.89 67.08 84.05 68.11 85.22 C 71.89 83.04 74.51 79.23 75.29 74.95 C 75.26 73.01 73.41 72.00 72.15 70.85 C 72.43 70.54 73.00 69.93 73.28 69.63 C 74.95 70.69 76.04 72.52 77.83 73.37 C 79.94 72.33 81.83 70.53 82.18 68.10 C 82.30 65.28 81.60 62.52 81.14 59.77 C 78.02 59.64 74.89 59.61 71.77 59.70 M 42.77 71.32 C 44.43 71.35 46.09 71.40 47.75 71.46 C 47.21 72.62 46.66 73.77 46.10 74.91 C 51.40 72.17 57.21 70.65 62.97 69.25 C 63.43 68.95 64.36 68.36 64.82 68.06 C 62.25 66.97 59.96 65.35 58.57 62.88 C 53.35 65.77 48.23 68.87 42.77 71.32 M 83.09 69.90 C 82.26 71.01 81.42 72.11 80.59 73.22 C 79.39 73.42 78.20 73.70 77.03 74.06 C 80.18 76.66 83.70 78.73 86.99 81.13 C 88.60 79.97 90.15 78.72 91.56 77.31 C 91.97 76.57 92.38 75.82 92.80 75.08 C 89.74 73.05 86.52 71.25 83.09 69.90 M 45.83 76.67 C 48.73 78.02 51.87 76.41 54.70 75.62 C 57.45 74.44 60.92 73.65 62.28 70.67 C 56.60 72.01 50.88 73.68 45.83 76.67 M 30.06 76.60 C 26.99 77.67 24.23 79.47 21.79 81.61 C 25.87 83.14 30.28 82.64 34.53 82.47 C 37.64 82.13 40.88 81.42 43.43 79.49 C 44.22 77.43 44.43 75.21 44.80 73.04 C 39.72 73.36 34.59 74.11 30.06 76.60 M 76.94 75.77 C 76.23 77.67 75.61 79.61 75.12 81.58 C 76.80 82.68 78.44 83.83 80.03 85.05 C 81.71 84.22 83.11 83.00 83.80 81.20 C 81.53 79.37 79.29 77.50 76.94 75.77 M 11.42 77.54 C 11.94 79.07 12.44 80.60 12.96 82.13 C 15.38 81.33 18.01 80.16 18.18 77.24 C 15.93 77.23 13.67 77.34 11.42 77.54 M 62.12 81.48 C 61.10 82.54 62.62 84.74 63.95 83.91 C 64.95 82.86 63.41 80.68 62.12 81.48 M 73.33 83.20 C 71.79 83.50 72.10 86.06 73.78 85.08 C 75.35 84.79 75.00 82.20 73.33 83.20 M 14.04 86.90 C 14.15 88.66 14.26 90.41 14.40 92.16 C 17.44 90.44 17.71 86.16 18.39 83.07 C 16.90 84.31 15.46 85.59 14.04 86.90 M 75.49 85.22 C 74.96 86.81 75.52 87.39 77.17 86.96 C 77.71 85.36 77.15 84.79 75.49 85.22 M 66.17 90.30 C 68.80 90.32 71.38 91.25 74.00 91.15 C 75.19 89.79 75.11 87.24 73.14 86.65 C 70.29 86.68 66.52 86.61 66.17 90.30 M 63.36 96.01 C 64.33 96.13 66.28 96.37 67.26 96.50 C 68.50 97.15 69.77 98.33 71.27 97.70 C 72.70 96.48 72.44 94.61 72.50 92.95 C 71.48 92.52 70.47 92.08 69.46 91.64 C 66.20 90.80 63.70 92.77 63.36 96.01 M 71.90 101.00 C 71.05 103.29 70.13 105.55 69.18 107.80 C 76.92 104.34 84.87 101.00 91.62 95.77 C 84.62 95.29 78.17 98.36 71.90 101.00 M 62.51 97.32 C 62.48 97.86 62.43 98.96 62.41 99.50 C 64.02 99.38 65.64 99.22 67.25 99.04 C 66.27 97.31 64.18 97.58 62.51 97.32 M 50.98 97.91 C 51.35 100.96 52.75 103.73 54.48 106.23 C 55.00 104.52 55.51 102.80 56.02 101.09 C 54.39 99.96 52.72 98.87 50.98 97.91 M 80.62 104.02 C 79.49 104.61 77.28 105.18 77.28 106.66 C 78.55 107.01 79.83 106.16 80.96 105.67 C 82.26 105.38 82.12 103.28 80.62 104.02 Z" />
<path fill="#757e93" opacity="1.00" d=" M 71.69 30.34 C 69.62 23.27 66.62 16.34 66.47 8.86 C 69.47 15.86 73.36 22.54 75.32 29.94 C 75.25 30.33 75.12 31.12 75.05 31.52 C 73.93 31.12 72.81 30.73 71.69 30.34 Z" />
<path fill="#484d69" opacity="1.00" d=" M 71.69 30.34 C 72.81 30.73 73.93 31.12 75.05 31.52 C 75.12 31.12 75.25 30.33 75.32 29.94 C 76.69 33.80 77.23 37.89 77.74 41.94 C 75.21 38.39 72.63 34.67 71.69 30.34 Z" />
<path fill="#9dbf9e" opacity="1.00" d=" M 2.05 36.64 C 3.72 36.33 5.11 35.36 6.43 34.33 C 7.42 35.30 8.41 36.27 9.39 37.24 C 8.76 38.88 8.18 40.54 7.59 42.19 C 5.29 45.03 2.75 47.84 1.47 51.32 C 1.81 53.53 2.46 55.69 2.54 57.93 C 1.69 56.86 0.84 55.78 0.00 54.70 L 0.00 40.80 C 0.60 39.37 1.27 37.98 2.05 36.64 Z" />
<path fill="#567e8a" opacity="1.00" d=" M 1.47 51.32 C 2.75 47.84 5.29 45.03 7.59 42.19 C 7.13 44.63 6.68 47.06 6.20 49.50 C 8.77 51.96 11.67 54.10 13.86 56.93 C 13.23 60.25 9.34 62.99 11.18 66.49 C 10.90 67.01 10.35 68.06 10.07 68.58 C 8.00 64.74 5.38 61.24 2.54 57.93 C 2.46 55.69 1.81 53.53 1.47 51.32 Z" />
<path fill="#373455" opacity="1.00" d=" M 74.72 46.63 C 76.97 45.28 79.26 43.13 82.09 43.67 C 84.72 44.25 85.00 47.22 85.69 49.32 C 83.85 50.41 81.97 51.43 80.09 52.44 C 80.16 51.39 80.31 49.31 80.39 48.27 C 80.41 47.96 80.46 47.35 80.49 47.05 C 80.50 46.81 80.54 46.32 80.56 46.08 C 79.27 46.57 77.99 47.09 76.71 47.61 L 76.21 47.31 C 75.84 47.14 75.09 46.80 74.72 46.63 Z" />
<path fill="#55566f" opacity="1.00" d=" M 69.62 51.89 C 70.77 49.69 72.74 48.05 74.72 46.63 C 75.09 46.80 75.84 47.14 76.21 47.31 C 74.76 49.42 73.41 51.61 72.50 54.01 C 73.71 53.86 76.14 53.57 77.36 53.42 C 75.25 54.95 73.09 56.40 70.85 57.73 C 70.25 55.87 68.69 53.91 69.62 51.89 Z" />
<path fill="#91417a" opacity="1.00" d=" M 74.10 52.81 C 75.21 49.97 77.48 47.75 80.49 47.05 C 80.46 47.35 80.41 47.96 80.39 48.27 C 79.42 50.89 76.90 52.72 74.10 52.81 Z" />
<path fill="#838da1" opacity="1.00" d=" M 43.13 52.23 C 50.79 49.08 59.40 50.87 67.22 52.29 C 59.21 52.83 51.13 53.11 43.13 52.23 Z" />
<path fill="#28273a" opacity="1.00" d=" M 83.20 52.92 C 85.72 51.16 88.69 50.32 91.63 49.60 C 91.35 53.58 85.93 52.08 83.20 52.92 Z" />
<path fill="#5a5c71" opacity="1.00" d=" M 78.41 56.20 C 89.02 53.21 99.94 51.19 111.00 51.17 L 111.00 54.19 L 110.58 54.42 C 99.81 54.01 89.15 56.67 78.41 56.20 Z" />
<path fill="#35324f" opacity="1.00" d=" M 78.41 56.20 C 89.15 56.67 99.81 54.01 110.58 54.42 C 105.61 57.61 99.52 57.19 93.89 57.55 C 86.41 58.04 78.93 58.46 71.46 59.16 C 73.44 57.50 75.91 56.70 78.41 56.20 Z" />
<path fill="#332e50" opacity="1.00" d=" M 100.08 58.96 C 103.75 58.15 107.61 57.92 111.00 56.13 L 111.00 57.42 C 107.25 60.33 102.95 63.90 97.88 63.06 C 98.56 61.71 98.71 59.84 100.08 58.96 Z" />
<path fill="#53546e" opacity="1.00" d=" M 67.19 59.25 C 68.23 58.99 70.01 59.89 69.82 61.15 C 70.09 63.24 67.67 64.26 66.14 65.05 C 64.01 66.25 60.89 64.49 60.29 62.34 C 62.45 61.05 64.75 59.92 67.19 59.25 Z" />
<path fill="#3a3651" opacity="1.00" d=" M 82.46 59.62 C 84.37 59.55 86.27 59.47 88.18 59.37 C 86.93 61.47 85.28 63.99 86.49 66.48 C 88.48 69.20 92.21 68.55 95.13 68.76 C 94.70 70.44 94.19 72.10 93.59 73.73 C 90.40 71.59 86.93 69.92 83.43 68.36 C 83.40 65.42 83.11 62.49 82.46 59.62 Z" />
<path fill="#3c3955" opacity="1.00" d=" M 87.17 64.71 C 87.12 61.95 88.71 58.83 91.86 58.88 C 91.15 61.64 90.95 64.51 91.75 67.28 C 90.19 66.60 87.81 66.60 87.17 64.71 Z" />
<path fill="#7c8596" opacity="1.00" d=" M 93.61 59.44 C 94.97 58.58 96.70 58.91 98.23 58.66 C 97.09 60.48 95.98 62.42 96.75 64.65 C 95.71 64.67 93.63 64.70 92.59 64.72 C 92.80 62.96 92.34 60.90 93.61 59.44 Z" />
<path fill="#343050" opacity="1.00" d=" M 71.77 59.70 C 74.89 59.61 78.02 59.64 81.14 59.77 C 81.60 62.52 82.30 65.28 82.18 68.10 C 81.83 70.53 79.94 72.33 77.83 73.37 C 76.04 72.52 74.95 70.69 73.28 69.63 C 72.15 69.10 70.98 68.63 69.82 68.17 C 72.28 68.14 74.74 67.96 77.20 67.79 C 77.24 65.73 77.27 63.67 77.29 61.60 C 75.60 61.56 73.91 61.51 72.22 61.50 C 72.10 61.05 71.88 60.15 71.77 59.70 Z" />
<path fill="#56586d" opacity="1.00" d=" M 72.22 61.50 C 73.91 61.51 75.60 61.56 77.29 61.60 C 77.27 63.67 77.24 65.73 77.20 67.79 C 74.74 67.96 72.28 68.14 69.82 68.17 L 69.02 67.86 C 68.93 67.50 68.75 66.78 68.65 66.41 C 70.11 64.98 71.58 63.50 72.22 61.50 Z" />
<path fill="#1a1924" opacity="1.00" d=" M 67.67 68.40 C 67.99 67.73 68.32 67.07 68.65 66.41 C 68.75 66.78 68.93 67.50 69.02 67.86 L 69.82 68.17 C 70.98 68.63 72.15 69.10 73.28 69.63 C 73.00 69.93 72.43 70.54 72.15 70.85 C 71.19 70.59 70.24 70.32 69.30 70.04 C 67.16 72.75 63.79 75.13 63.96 78.97 C 62.83 79.43 61.70 79.89 60.56 80.35 C 60.82 77.80 61.29 75.27 62.22 72.88 L 62.48 73.44 L 62.97 74.54 C 64.82 72.73 66.67 70.82 67.67 68.40 Z" />
<path fill="#3d5975" opacity="1.00" d=" M 11.18 66.49 C 13.66 68.81 16.64 71.04 17.25 74.62 C 15.51 74.84 13.78 75.06 12.04 75.28 C 11.60 72.99 10.93 70.75 10.07 68.58 C 10.35 68.06 10.90 67.01 11.18 66.49 Z" />
<path fill="#373352" opacity="1.00" d=" M 62.48 73.44 C 63.12 70.99 64.80 69.04 66.28 67.06 L 67.67 68.40 C 66.67 70.82 64.82 72.73 62.97 74.54 L 62.48 73.44 Z" />
<path fill="#8d99a5" opacity="1.00" d=" M 69.30 70.04 C 70.24 70.32 71.19 70.59 72.15 70.85 C 70.31 74.83 67.90 78.53 64.94 81.77 C 64.69 81.07 64.21 79.67 63.96 78.97 C 63.79 75.13 67.16 72.75 69.30 70.04 Z" />
<path fill="#464560" opacity="1.00" d=" M 83.09 69.90 C 86.52 71.25 89.74 73.05 92.80 75.08 C 92.38 75.82 91.97 76.57 91.56 77.31 C 88.07 75.54 84.45 73.98 80.59 73.22 C 81.42 72.11 82.26 71.01 83.09 69.90 Z" />
<path fill="#35324c" opacity="1.00" d=" M 45.83 76.67 C 50.88 73.68 56.60 72.01 62.28 70.67 C 60.92 73.65 57.45 74.44 54.70 75.62 C 51.87 76.41 48.73 78.02 45.83 76.67 Z" />
<path fill="#4d536f" opacity="1.00" d=" M 72.15 70.85 C 73.41 72.00 75.26 73.01 75.29 74.95 C 74.51 79.23 71.89 83.04 68.11 85.22 C 67.08 84.05 66.03 82.89 64.94 81.77 C 67.90 78.53 70.31 74.83 72.15 70.85 Z" />
<path fill="#2a2440" opacity="1.00" d=" M 30.06 76.60 C 34.59 74.11 39.72 73.36 44.80 73.04 C 44.43 75.21 44.22 77.43 43.43 79.49 C 40.88 81.42 37.64 82.13 34.53 82.47 C 33.77 80.07 33.45 76.41 30.06 76.60 Z" />
<path fill="#322d4f" opacity="1.00" d=" M 77.03 74.06 C 78.20 73.70 79.39 73.42 80.59 73.22 C 84.45 73.98 88.07 75.54 91.56 77.31 C 90.15 78.72 88.60 79.97 86.99 81.13 C 83.70 78.73 80.18 76.66 77.03 74.06 Z" />
<path fill="#403f57" opacity="1.00" d=" M 20.66 73.37 C 21.78 74.58 22.91 75.79 24.02 77.01 C 23.18 77.49 21.51 78.46 20.67 78.95 C 20.29 77.88 19.96 76.80 19.69 75.71 C 19.93 75.12 20.42 73.95 20.66 73.37 Z" />
<path fill="#27203a" opacity="1.00" d=" M 76.94 75.77 C 79.29 77.50 81.53 79.37 83.80 81.20 C 83.11 83.00 81.71 84.22 80.03 85.05 C 78.44 83.83 76.80 82.68 75.12 81.58 C 75.61 79.61 76.23 77.67 76.94 75.77 Z" />
<path fill="#4e4d6a" opacity="1.00" d=" M 11.42 77.54 C 13.67 77.34 15.93 77.23 18.18 77.24 C 18.01 80.16 15.38 81.33 12.96 82.13 C 12.44 80.60 11.94 79.07 11.42 77.54 Z" />
<path fill="#3d3a56" opacity="1.00" d=" M 21.79 81.61 C 24.23 79.47 26.99 77.67 30.06 76.60 C 33.45 76.41 33.77 80.07 34.53 82.47 C 30.28 82.64 25.87 83.14 21.79 81.61 Z" />
<path fill="#2b2742" opacity="1.00" d=" M 62.12 81.48 C 63.41 80.68 64.95 82.86 63.95 83.91 C 62.62 84.74 61.10 82.54 62.12 81.48 Z" />
<path fill="#28233c" opacity="1.00" d=" M 73.33 83.20 C 75.00 82.20 75.35 84.79 73.78 85.08 C 72.10 86.06 71.79 83.50 73.33 83.20 Z" />
<path fill="#283956" opacity="1.00" d=" M 14.04 86.90 C 15.46 85.59 16.90 84.31 18.39 83.07 C 17.71 86.16 17.44 90.44 14.40 92.16 C 14.26 90.41 14.15 88.66 14.04 86.90 Z" />
<path fill="#27223d" opacity="1.00" d=" M 75.49 85.22 C 77.15 84.79 77.71 85.36 77.17 86.96 C 75.52 87.39 74.96 86.81 75.49 85.22 Z" />
<path fill="#302a4a" opacity="1.00" d=" M 66.17 90.30 C 66.52 86.61 70.29 86.68 73.14 86.65 C 75.11 87.24 75.19 89.79 74.00 91.15 C 71.38 91.25 68.80 90.32 66.17 90.30 Z" />
<path fill="#4b4a63" opacity="1.00" d=" M 63.36 96.01 C 63.70 92.77 66.20 90.80 69.46 91.64 C 68.73 93.26 68.00 94.88 67.26 96.50 C 66.28 96.37 64.33 96.13 63.36 96.01 Z" />
<path fill="#302c4b" opacity="1.00" d=" M 69.46 91.64 C 70.47 92.08 71.48 92.52 72.50 92.95 C 72.44 94.61 72.70 96.48 71.27 97.70 C 69.77 98.33 68.50 97.15 67.26 96.50 C 68.00 94.88 68.73 93.26 69.46 91.64 Z" />
<path fill="#304669" opacity="1.00" d=" M 15.68 93.81 C 17.94 94.85 20.75 95.77 21.70 98.32 C 22.27 100.52 20.59 102.35 19.53 104.09 C 18.86 103.07 18.19 102.06 17.53 101.04 C 17.08 102.37 16.63 103.70 16.15 105.02 C 15.71 101.30 15.05 97.56 15.68 93.81 Z" />
<path fill="#322d4f" opacity="1.00" d=" M 71.90 101.00 C 78.17 98.36 84.62 95.29 91.62 95.77 C 84.87 101.00 76.92 104.34 69.18 107.80 C 70.13 105.55 71.05 103.29 71.90 101.00 Z" />
<path fill="#53546e" opacity="1.00" d=" M 62.51 97.32 C 64.18 97.58 66.27 97.31 67.25 99.04 C 65.64 99.22 64.02 99.38 62.41 99.50 C 62.43 98.96 62.48 97.86 62.51 97.32 Z" />
<path fill="#55566f" opacity="1.00" d=" M 50.98 97.91 C 52.72 98.87 54.39 99.96 56.02 101.09 C 55.51 102.80 55.00 104.52 54.48 106.23 C 52.75 103.73 51.35 100.96 50.98 97.91 Z" />
<path fill="#476a7f" opacity="1.00" d=" M 17.53 101.04 C 18.19 102.06 18.86 103.07 19.53 104.09 C 18.81 105.10 18.09 106.10 17.35 107.10 C 17.94 108.40 18.52 109.71 19.15 111.00 L 13.31 111.00 C 14.41 109.09 15.43 107.11 16.15 105.02 C 16.63 103.70 17.08 102.37 17.53 101.04 Z" />
<path fill="#4f4f67" opacity="1.00" d=" M 57.17 102.38 C 60.34 101.67 63.55 101.13 66.81 101.07 C 64.47 104.27 61.32 107.23 57.19 107.63 C 57.01 105.88 57.06 104.13 57.17 102.38 Z" />
<path fill="#332f4f" opacity="1.00" d=" M 66.81 101.07 C 67.74 101.37 69.08 101.15 69.66 102.08 C 68.73 105.68 66.24 108.62 63.49 111.00 L 57.97 111.00 C 57.70 109.88 57.42 108.76 57.19 107.63 C 61.32 107.23 64.47 104.27 66.81 101.07 Z" />
<path fill="#312f46" opacity="1.00" d=" M 80.62 104.02 C 82.12 103.28 82.26 105.38 80.96 105.67 C 79.83 106.16 78.55 107.01 77.28 106.66 C 77.28 105.18 79.49 104.61 80.62 104.02 Z" />
<path fill="#413f5f" opacity="1.00" d=" M 80.76 107.95 C 82.55 107.68 84.36 107.58 86.17 107.50 C 86.70 108.67 87.25 109.84 87.82 111.00 L 83.32 111.00 C 82.44 110.00 81.60 108.97 80.76 107.95 Z" />
<path fill="#34314d" opacity="1.00" d=" M 50.64 108.51 C 53.22 107.66 55.20 109.21 56.89 111.00 L 51.88 111.00 C 51.57 110.38 50.95 109.13 50.64 108.51 Z" />
<path fill="#5a5c74" opacity="1.00" d=" M 76.56 108.71 C 77.96 108.45 79.35 108.18 80.76 107.95 C 81.60 108.97 82.44 110.00 83.32 111.00 L 76.48 111.00 C 76.50 110.43 76.54 109.28 76.56 108.71 Z" />
</svg>
