<?xml version="1.0" encoding="UTF-8" ?>
<!DOCTYPE svg PUBLIC "-//W3C//DTD SVG 1.1//EN" "http://www.w3.org/Graphics/SVG/1.1/DTD/svg11.dtd">
<svg width="111pt" height="111pt" viewBox="0 0 111 111" version="1.1" xmlns="http://www.w3.org/2000/svg">
<path fill="#000000" opacity="1.00" d=" M 53.44 0.00 L 57.26 0.00 C 56.11 5.72 55.24 11.50 53.99 17.21 C 58.76 18.15 64.53 17.09 68.34 20.67 C 69.70 26.43 67.00 32.16 64.84 37.39 C 66.44 38.13 68.03 38.88 69.60 39.67 C 68.76 40.80 67.91 41.92 67.06 43.04 C 69.45 43.38 72.34 42.97 74.21 44.86 C 76.24 46.63 75.78 50.22 73.77 51.84 C 72.17 52.79 70.28 53.06 68.54 53.62 C 71.55 58.02 74.35 62.57 77.37 66.96 C 78.84 66.07 80.47 64.65 82.19 65.90 C 89.37 69.64 95.20 75.54 100.30 81.73 C 104.22 76.88 106.03 70.81 109.57 65.73 C 110.36 73.39 111.52 81.28 109.47 88.85 C 108.16 92.69 104.99 95.49 101.71 97.68 C 100.15 99.77 98.77 102.11 96.57 103.60 C 94.66 104.61 92.45 104.76 90.44 105.49 C 88.49 107.03 87.15 109.18 85.50 111.00 L 83.56 111.00 C 84.77 109.44 85.87 107.79 86.96 106.15 C 84.68 107.66 82.54 109.37 80.34 111.00 L 78.70 111.00 C 81.53 108.55 84.40 106.15 87.58 104.17 C 86.42 102.80 84.78 101.68 84.16 99.93 C 84.22 98.08 84.44 96.24 84.82 94.43 L 86.09 95.36 C 86.04 95.07 85.94 94.50 85.88 94.21 C 87.11 90.24 88.37 86.28 89.76 82.36 C 91.29 83.92 92.79 85.50 94.26 87.10 C 95.12 86.33 95.98 85.56 96.85 84.79 C 91.31 80.95 84.83 78.67 79.52 74.48 C 76.32 71.94 73.46 69.01 70.12 66.65 C 66.88 64.36 65.69 60.42 64.55 56.83 C 62.66 58.53 60.73 60.19 58.77 61.81 C 59.43 64.97 60.24 68.32 59.27 71.49 C 57.91 75.09 54.96 77.74 52.30 80.39 C 54.96 79.26 57.74 78.43 60.62 78.08 C 60.49 82.51 59.22 86.78 57.27 90.72 C 58.25 91.04 59.21 91.40 60.15 91.80 C 61.55 98.10 61.21 104.67 62.57 111.00 L 59.73 111.00 C 58.52 105.05 59.01 98.93 58.10 92.97 C 55.53 92.42 52.90 92.38 50.29 92.26 C 49.94 97.75 51.23 103.30 54.66 107.68 C 55.42 108.81 56.21 109.92 57.05 111.00 L 54.06 111.00 C 51.73 108.02 49.87 104.71 48.26 101.29 C 46.39 101.17 43.66 102.65 42.48 100.62 C 41.59 98.57 41.20 96.36 40.59 94.23 C 39.41 97.77 39.61 101.64 37.94 105.04 C 37.95 107.02 38.00 109.01 38.06 111.00 L 35.78 111.00 C 35.56 108.21 35.42 105.39 34.62 102.69 C 34.09 101.13 33.49 99.61 32.88 98.09 C 30.89 98.56 28.90 99.06 26.91 99.58 C 28.13 102.22 29.32 104.88 30.53 107.52 C 31.08 108.70 31.66 109.86 32.28 111.00 L 29.15 111.00 C 27.38 107.22 25.69 103.32 25.07 99.17 C 26.91 97.58 29.43 97.34 31.70 96.84 C 29.64 93.33 27.90 89.30 29.52 85.24 C 30.88 85.96 32.24 86.69 33.59 87.42 C 33.82 86.90 34.27 85.86 34.49 85.33 C 34.93 85.65 35.82 86.29 36.27 86.61 C 37.27 83.97 39.41 82.41 42.21 82.24 C 47.51 77.70 51.02 71.36 52.17 64.49 C 49.64 64.71 47.10 64.94 44.56 65.15 C 43.59 67.53 42.85 70.08 41.28 72.15 C 34.47 78.90 26.33 84.12 17.76 88.37 C 17.80 89.00 17.86 90.25 17.90 90.88 C 16.31 91.60 14.73 92.32 13.15 93.03 C 15.85 94.70 18.94 97.31 17.83 100.91 C 16.14 104.34 12.66 106.37 9.73 108.63 C 10.04 106.19 10.40 103.76 10.80 101.33 C 10.09 101.49 8.67 101.79 7.96 101.94 C 8.17 100.92 8.58 98.87 8.79 97.85 C 6.30 101.54 4.13 105.42 1.76 109.19 C 0.72 103.20 1.32 97.06 3.05 91.26 C 4.15 89.96 5.54 88.41 5.04 86.55 C 7.33 86.34 9.34 87.26 10.89 88.92 C 13.89 83.19 18.40 78.51 22.43 73.52 C 25.79 69.38 29.62 65.61 33.96 62.51 C 33.66 66.25 32.89 69.93 32.34 73.65 C 36.65 69.67 39.91 64.73 42.12 59.32 C 39.54 57.43 39.42 54.46 41.11 51.91 C 38.42 48.29 37.98 43.51 40.37 39.61 C 39.54 37.50 37.89 35.41 38.52 33.02 C 39.19 30.34 39.10 27.48 40.01 24.88 C 44.20 22.74 47.78 19.63 51.95 17.48 C 52.73 11.68 53.12 5.84 53.44 0.00 M 53.86 18.71 C 53.38 21.29 52.81 23.86 52.11 26.38 C 51.58 24.32 51.37 22.20 51.21 20.08 C 45.47 23.17 40.26 28.65 40.49 35.58 C 41.60 37.28 42.85 38.98 43.16 41.03 C 39.37 39.90 39.97 44.89 40.53 46.98 C 40.36 47.29 40.01 47.90 39.84 48.21 C 42.14 46.75 44.27 44.93 45.66 42.56 C 45.58 42.22 45.42 41.54 45.34 41.20 C 48.90 40.73 55.53 44.00 55.99 38.27 C 54.70 37.99 53.41 37.73 52.12 37.48 C 51.96 35.93 51.81 34.38 51.67 32.83 C 52.80 27.78 57.03 24.66 60.29 21.02 C 62.43 22.38 64.67 24.19 64.45 27.04 C 64.57 31.88 60.47 34.90 57.17 37.70 C 58.64 38.23 60.22 39.15 61.76 38.30 C 64.28 33.08 66.21 27.51 66.54 21.68 C 64.38 21.00 62.20 20.38 60.00 19.86 C 57.95 19.52 55.90 19.14 53.86 18.71 M 59.36 24.44 C 56.36 26.82 53.71 30.13 53.48 34.11 C 53.34 34.53 53.07 35.39 52.94 35.81 C 55.21 35.61 57.38 34.90 59.34 33.74 C 61.78 31.19 64.13 27.36 61.90 23.92 C 61.44 22.58 59.63 23.34 59.36 24.44 M 63.83 38.48 C 63.43 40.27 63.06 42.06 62.73 43.87 C 64.42 42.84 65.90 41.54 67.24 40.09 C 66.11 39.55 64.97 39.01 63.83 38.48 M 56.15 40.24 C 55.13 42.35 54.15 44.49 53.37 46.70 C 52.02 47.92 51.15 49.59 49.99 50.96 C 53.45 48.87 57.24 47.07 60.06 44.08 C 61.33 43.03 62.29 40.95 59.92 40.45 C 58.66 40.38 57.41 40.31 56.15 40.24 M 47.06 43.96 C 44.63 46.13 43.21 49.25 42.93 52.48 C 44.50 50.74 45.62 48.68 46.62 46.58 C 49.17 45.65 51.69 44.61 53.97 43.14 C 51.71 43.22 49.00 42.38 47.06 43.96 M 57.97 47.86 L 58.41 48.28 C 54.58 49.68 51.29 52.63 47.06 52.79 C 48.57 50.65 50.20 48.60 51.82 46.55 C 50.51 46.98 49.21 47.42 47.90 47.85 C 45.24 52.13 43.95 57.09 43.78 62.11 C 45.92 63.80 48.89 62.45 51.24 61.94 C 56.67 61.30 60.77 57.31 64.40 53.57 C 64.59 50.83 65.12 48.13 65.89 45.50 C 63.16 45.94 60.45 46.60 57.97 47.86 M 66.39 46.27 C 66.38 47.80 66.39 49.34 66.40 50.87 C 68.49 50.61 70.56 50.18 72.58 49.57 C 72.52 48.52 72.46 47.46 72.40 46.41 C 70.40 46.31 68.39 46.27 66.39 46.27 M 42.23 53.31 C 40.88 53.61 40.24 55.71 41.41 56.59 C 43.44 57.62 44.50 53.31 42.23 53.31 M 66.81 53.34 C 66.86 56.10 67.44 58.82 68.41 61.40 C 70.31 63.78 72.51 65.92 75.14 67.48 C 73.61 64.48 71.71 61.69 70.03 58.77 C 69.04 56.92 67.98 55.09 66.81 53.34 M 53.27 64.04 C 53.25 65.96 53.23 67.88 53.22 69.80 C 51.92 73.91 49.47 77.47 47.19 81.07 C 51.80 78.26 55.86 74.14 57.50 68.88 C 57.19 66.99 56.89 65.10 56.60 63.21 C 55.49 63.48 54.38 63.76 53.27 64.04 M 34.95 74.28 C 39.20 72.20 41.30 67.77 42.71 63.50 C 39.97 66.98 37.62 70.75 34.95 74.28 M 16.29 84.43 L 15.77 84.65 C 15.00 85.92 14.26 87.21 13.54 88.51 C 20.47 85.27 26.96 81.11 33.21 76.71 C 32.43 75.74 31.65 74.76 30.86 73.80 C 30.84 72.54 30.82 71.28 30.80 70.02 C 30.99 69.29 31.35 67.83 31.53 67.10 C 25.60 72.06 21.12 78.46 16.29 84.43 M 78.42 71.09 C 80.98 73.00 83.58 74.86 86.25 76.62 C 90.35 78.59 94.36 80.72 98.22 83.13 C 95.18 78.64 91.29 74.81 87.03 71.48 C 84.74 69.77 82.31 68.24 79.79 66.90 C 79.32 68.29 78.87 69.69 78.42 71.09 M 94.01 88.83 C 95.21 90.57 96.43 92.31 97.67 94.02 C 98.91 92.98 100.15 91.94 101.41 90.93 C 101.60 89.47 101.79 88.01 102.00 86.55 C 102.25 87.30 102.75 88.79 103.00 89.53 C 106.33 86.39 104.80 81.94 104.98 77.94 C 105.43 79.64 105.79 81.36 106.26 83.05 C 108.49 79.25 108.08 74.52 108.56 70.27 C 105.89 77.91 100.56 84.20 94.01 88.83 M 50.33 81.10 C 49.25 81.34 47.49 82.44 48.18 83.75 C 49.79 85.24 53.41 80.87 50.33 81.10 M 45.32 91.39 C 43.74 93.54 44.47 96.32 44.39 98.78 C 45.39 98.47 46.39 98.15 47.39 97.84 C 47.51 95.91 47.20 93.89 47.92 92.06 C 49.12 89.66 52.23 89.99 54.46 89.47 C 55.77 86.75 56.92 83.96 57.81 81.08 C 52.66 83.04 48.39 86.87 45.32 91.39 M 108.04 83.61 C 105.96 88.38 102.50 92.31 97.72 94.50 C 99.20 95.58 101.17 95.99 102.46 94.40 C 105.78 91.90 108.87 88.04 108.04 83.61 M 38.62 86.91 C 37.89 89.21 38.33 91.56 39.09 93.79 C 41.91 90.98 44.32 87.76 46.03 84.14 C 45.49 84.30 44.42 84.61 43.89 84.76 C 41.55 84.05 38.86 83.79 38.62 86.91 M 86.60 97.40 C 85.49 99.20 87.47 100.65 88.47 101.87 L 88.38 101.96 C 90.70 101.98 93.40 102.96 95.42 101.35 C 96.78 100.31 97.70 98.83 98.75 97.50 C 95.86 96.44 94.65 93.54 93.19 91.10 C 92.70 89.19 91.96 87.35 91.25 85.51 C 89.97 89.58 88.65 93.64 86.60 97.40 M 4.19 94.44 C 4.07 94.82 3.82 95.59 3.69 95.98 C 3.26 98.30 3.09 100.67 3.05 103.03 C 5.30 99.65 7.88 96.50 9.94 93.00 C 9.69 92.24 9.20 90.72 8.96 89.96 C 9.05 89.63 9.24 88.97 9.34 88.64 L 8.28 89.75 L 8.34 87.43 C 5.41 88.52 4.72 91.72 4.19 94.44 M 30.70 87.90 C 31.73 92.22 34.27 95.93 36.89 99.43 C 36.71 96.49 36.73 93.37 35.19 90.75 C 34.10 89.30 32.22 88.77 30.70 87.90 M 14.48 89.20 C 13.41 89.52 11.63 90.48 12.14 91.84 C 13.75 93.19 17.82 88.84 14.48 89.20 M 10.09 96.56 C 10.01 97.17 9.86 98.38 9.78 98.98 C 10.35 98.26 11.01 97.67 11.76 97.19 C 12.55 99.93 11.72 102.82 11.62 105.61 C 12.34 104.81 13.05 104.01 13.74 103.20 C 14.71 102.50 15.64 101.78 16.56 101.02 C 16.35 99.09 15.90 97.19 14.52 95.72 L 14.66 95.37 C 13.14 95.80 11.62 96.18 10.09 96.56 Z" />
<path fill="#000000" opacity="1.00" d=" M 17.50 13.55 C 23.54 13.87 28.74 17.27 33.97 19.94 C 35.66 21.12 38.38 21.82 38.69 24.18 C 33.98 22.19 29.59 19.46 24.71 17.86 C 28.47 21.17 32.87 24.00 37.82 25.09 C 37.69 25.56 37.44 26.49 37.31 26.95 C 32.79 26.08 28.80 23.69 25.09 21.08 C 25.74 29.68 23.97 40.32 15.61 44.74 C 20.31 35.30 23.65 23.12 17.50 13.55 M 21.26 17.38 C 22.79 24.42 21.57 31.50 20.25 38.45 C 23.83 32.33 26.12 23.45 21.26 17.38 Z" />
<path fill="#8a5a44" opacity="1.00" d=" M 21.26 17.38 C 26.12 23.45 23.83 32.33 20.25 38.45 C 21.57 31.50 22.79 24.42 21.26 17.38 Z" />
<path fill="#ddbc58" opacity="1.00" d=" M 24.71 17.86 C 29.59 19.46 33.98 22.19 38.69 24.18 C 38.47 24.41 38.04 24.86 37.82 25.09 C 32.87 24.00 28.47 21.17 24.71 17.86 Z" />
<path fill="#c44c5d" opacity="1.00" d=" M 53.86 18.71 C 55.90 19.14 57.95 19.52 60.00 19.86 C 60.08 20.15 60.22 20.73 60.29 21.02 C 57.03 24.66 52.80 27.78 51.67 32.83 C 51.32 33.80 50.98 34.76 50.64 35.73 C 47.26 35.71 43.87 35.70 40.49 35.58 C 40.26 28.65 45.47 23.17 51.21 20.08 C 51.37 22.20 51.58 24.32 52.11 26.38 C 52.81 23.86 53.38 21.29 53.86 18.71 Z" />
<path fill="#7b2f69" opacity="1.00" d=" M 60.00 19.86 C 62.20 20.38 64.38 21.00 66.54 21.68 C 66.21 27.51 64.28 33.08 61.76 38.30 C 60.22 39.15 58.64 38.23 57.17 37.70 C 60.47 34.90 64.57 31.88 64.45 27.04 C 64.67 24.19 62.43 22.38 60.29 21.02 C 60.22 20.73 60.08 20.15 60.00 19.86 Z" />
<path fill="#884072" opacity="1.00" d=" M 59.36 24.44 C 59.63 23.34 61.44 22.58 61.90 23.92 C 64.13 27.36 61.78 31.19 59.34 33.74 C 59.12 31.44 58.87 29.14 58.74 26.83 C 58.89 26.24 59.20 25.04 59.36 24.44 Z" />
<path fill="#d0cdb0" opacity="1.00" d=" M 53.48 34.11 C 53.71 30.13 56.36 26.82 59.36 24.44 C 59.20 25.04 58.89 26.24 58.74 26.83 C 57.21 29.41 55.26 31.70 53.48 34.11 Z" />
<path fill="#ddbc58" opacity="1.00" d=" M 53.48 34.11 C 55.26 31.70 57.21 29.41 58.74 26.83 C 58.87 29.14 59.12 31.44 59.34 33.74 C 57.38 34.90 55.21 35.61 52.94 35.81 C 53.07 35.39 53.34 34.53 53.48 34.11 Z" />
<path fill="#873563" opacity="1.00" d=" M 50.64 35.73 C 50.98 34.76 51.32 33.80 51.67 32.83 C 51.81 34.38 51.96 35.93 52.12 37.48 C 53.41 37.73 54.70 37.99 55.99 38.27 C 55.53 44.00 48.90 40.73 45.34 41.20 C 45.42 41.54 45.58 42.22 45.66 42.56 C 44.27 44.93 42.14 46.75 39.84 48.21 C 40.01 47.90 40.36 47.29 40.53 46.98 C 41.57 45.08 42.91 43.25 43.16 41.03 C 42.85 38.98 41.60 37.28 40.49 35.58 C 43.87 35.70 47.26 35.71 50.64 35.73 Z" />
<path fill="#431f46" opacity="1.00" d=" M 63.83 38.48 C 64.97 39.01 66.11 39.55 67.24 40.09 C 65.90 41.54 64.42 42.84 62.73 43.87 C 63.06 42.06 63.43 40.27 63.83 38.48 Z" />
<path fill="#c3a573" opacity="1.00" d=" M 56.15 40.24 C 57.41 40.31 58.66 40.38 59.92 40.45 C 57.86 42.66 55.76 44.84 53.37 46.70 C 54.15 44.49 55.13 42.35 56.15 40.24 Z" />
<path fill="#b9976c" opacity="1.00" d=" M 40.53 46.98 C 39.97 44.89 39.37 39.90 43.16 41.03 C 42.91 43.25 41.57 45.08 40.53 46.98 Z" />
<path fill="#ac6f63" opacity="1.00" d=" M 53.37 46.70 C 55.76 44.84 57.86 42.66 59.92 40.45 C 62.29 40.95 61.33 43.03 60.06 44.08 C 57.24 47.07 53.45 48.87 49.99 50.96 C 51.15 49.59 52.02 47.92 53.37 46.70 Z" />
<path fill="#3d1d39" opacity="1.00" d=" M 47.06 43.96 C 49.00 42.38 51.71 43.22 53.97 43.14 C 51.69 44.61 49.17 45.65 46.62 46.58 C 45.62 48.68 44.50 50.74 42.93 52.48 C 43.21 49.25 44.63 46.13 47.06 43.96 Z" />
<path fill="#8f3766" opacity="1.00" d=" M 57.97 47.86 C 60.45 46.60 63.16 45.94 65.89 45.50 C 65.12 48.13 64.59 50.83 64.40 53.57 C 60.77 57.31 56.67 61.30 51.24 61.94 C 54.23 57.90 57.19 53.81 59.60 49.39 C 59.30 49.11 58.71 48.56 58.41 48.28 L 57.97 47.86 Z" />
<path fill="#8f385f" opacity="1.00" d=" M 66.39 46.27 C 68.39 46.27 70.40 46.31 72.40 46.41 C 72.46 47.46 72.52 48.52 72.58 49.57 C 70.56 50.18 68.49 50.61 66.40 50.87 C 66.39 49.34 66.38 47.80 66.39 46.27 Z" />
<path fill="#bf4965" opacity="1.00" d=" M 47.90 47.85 C 49.21 47.42 50.51 46.98 51.82 46.55 C 50.20 48.60 48.57 50.65 47.06 52.79 C 51.29 52.63 54.58 49.68 58.41 48.28 C 58.71 48.56 59.30 49.11 59.60 49.39 C 57.19 53.81 54.23 57.90 51.24 61.94 C 48.89 62.45 45.92 63.80 43.78 62.11 C 43.95 57.09 45.24 52.13 47.90 47.85 Z" />
<path fill="#be495b" opacity="1.00" d=" M 42.23 53.31 C 44.50 53.31 43.44 57.62 41.41 56.59 C 40.24 55.71 40.88 53.61 42.23 53.31 Z" />
<path fill="#5d2656" opacity="1.00" d=" M 66.81 53.34 C 67.98 55.09 69.04 56.92 70.03 58.77 C 69.63 59.43 68.82 60.75 68.41 61.40 C 67.44 58.82 66.86 56.10 66.81 53.34 Z" />
<path fill="#bf4965" opacity="1.00" d=" M 68.41 61.40 C 68.82 60.75 69.63 59.43 70.03 58.77 C 71.71 61.69 73.61 64.48 75.14 67.48 C 72.51 65.92 70.31 63.78 68.41 61.40 Z" />
<path fill="#462152" opacity="1.00" d=" M 53.27 64.04 C 54.38 63.76 55.49 63.48 56.60 63.21 C 56.89 65.10 57.19 66.99 57.50 68.88 C 56.07 69.18 54.65 69.49 53.22 69.80 C 53.23 67.88 53.25 65.96 53.27 64.04 Z" />
<path fill="#7e3068" opacity="1.00" d=" M 34.95 74.28 C 37.62 70.75 39.97 66.98 42.71 63.50 C 41.30 67.77 39.20 72.20 34.95 74.28 Z" />
<path fill="#c64c5b" opacity="1.00" d=" M 16.29 84.43 C 21.12 78.46 25.60 72.06 31.53 67.10 C 31.35 67.83 30.99 69.29 30.80 70.02 C 29.92 74.16 26.41 76.78 23.52 79.55 C 21.41 81.58 19.06 83.41 16.29 84.43 Z" />
<path fill="#b5456e" opacity="1.00" d=" M 78.42 71.09 C 78.87 69.69 79.32 68.29 79.79 66.90 C 82.31 68.24 84.74 69.77 87.03 71.48 C 86.77 73.19 86.51 74.90 86.25 76.62 C 83.58 74.86 80.98 73.00 78.42 71.09 Z" />
<path fill="#632863" opacity="1.00" d=" M 53.22 69.80 C 54.65 69.49 56.07 69.18 57.50 68.88 C 55.86 74.14 51.80 78.26 47.19 81.07 C 49.47 77.47 51.92 73.91 53.22 69.80 Z" />
<path fill="#7e3068" opacity="1.00" d=" M 23.52 79.55 C 26.41 76.78 29.92 74.16 30.80 70.02 C 30.82 71.28 30.84 72.54 30.86 73.80 C 31.65 74.76 32.43 75.74 33.21 76.71 C 26.96 81.11 20.47 85.27 13.54 88.51 C 14.26 87.21 15.00 85.92 15.77 84.65 L 16.29 84.43 C 19.06 83.41 21.41 81.58 23.52 79.55 Z" />
<path fill="#91c181" opacity="1.00" d=" M 94.01 88.83 C 100.56 84.20 105.89 77.91 108.56 70.27 C 108.08 74.52 108.49 79.25 106.26 83.05 C 105.79 81.36 105.43 79.64 104.98 77.94 C 104.80 81.94 106.33 86.39 103.00 89.53 C 102.75 88.79 102.25 87.30 102.00 86.55 C 101.79 88.01 101.60 89.47 101.41 90.93 C 100.15 91.94 98.91 92.98 97.67 94.02 C 96.43 92.31 95.21 90.57 94.01 88.83 Z" />
<path fill="#8b347a" opacity="1.00" d=" M 87.03 71.48 C 91.29 74.81 95.18 78.64 98.22 83.13 C 94.36 80.72 90.35 78.59 86.25 76.62 C 86.51 74.90 86.77 73.19 87.03 71.48 Z" />
<path fill="#231220" opacity="1.00" d=" M 50.33 81.10 C 53.41 80.87 49.79 85.24 48.18 83.75 C 47.49 82.44 49.25 81.34 50.33 81.10 Z" />
<path fill="#ac416d" opacity="1.00" d=" M 45.32 91.39 C 48.39 86.87 52.66 83.04 57.81 81.08 C 56.92 83.96 55.77 86.75 54.46 89.47 C 52.23 89.99 49.12 89.66 47.92 92.06 C 47.20 93.89 47.51 95.91 47.39 97.84 C 46.39 98.15 45.39 98.47 44.39 98.78 C 44.47 96.32 43.74 93.54 45.32 91.39 Z" />
<path fill="#608a77" opacity="1.00" d=" M 108.04 83.61 C 108.87 88.04 105.78 91.90 102.46 94.40 C 101.17 95.99 99.20 95.58 97.72 94.50 C 102.50 92.31 105.96 88.38 108.04 83.61 Z" />
<path fill="#bc4865" opacity="1.00" d=" M 38.62 86.91 C 38.86 83.79 41.55 84.05 43.89 84.76 C 42.11 86.32 40.44 88.00 38.75 89.65 C 38.72 88.97 38.66 87.60 38.62 86.91 Z" />
<path fill="#7d3161" opacity="1.00" d=" M 43.89 84.76 C 44.42 84.61 45.49 84.30 46.03 84.14 C 44.32 87.76 41.91 90.98 39.09 93.79 C 38.33 91.56 37.89 89.21 38.62 86.91 C 38.66 87.60 38.72 88.97 38.75 89.65 C 40.44 88.00 42.11 86.32 43.89 84.76 Z" />
<path fill="#85b272" opacity="1.00" d=" M 86.60 97.40 C 88.65 93.64 89.97 89.58 91.25 85.51 C 91.96 87.35 92.70 89.19 93.19 91.10 C 93.35 95.25 92.07 99.46 88.47 101.87 C 87.47 100.65 85.49 99.20 86.60 97.40 Z" />
<path fill="#322816" opacity="0.39" d=" M 4.44 86.52 L 5.04 86.55 C 5.54 88.41 4.15 89.96 3.05 91.26 C 3.15 89.61 3.23 87.79 4.44 86.52 Z" />
<path fill="#bfbba2" opacity="1.00" d=" M 4.19 94.44 C 4.72 91.72 5.41 88.52 8.34 87.43 L 8.28 89.75 C 6.91 91.31 5.51 92.84 4.19 94.44 Z" />
<path fill="#cb4e55" opacity="1.00" d=" M 30.70 87.90 C 32.22 88.77 34.10 89.30 35.19 90.75 C 36.73 93.37 36.71 96.49 36.89 99.43 C 34.27 95.93 31.73 92.22 30.70 87.90 Z" />
<path fill="#d29963" opacity="1.00" d=" M 8.28 89.75 L 9.34 88.64 C 9.24 88.97 9.05 89.63 8.96 89.96 C 7.66 93.31 5.77 96.39 3.79 99.37 C 3.77 98.52 3.72 96.82 3.69 95.98 C 3.82 95.59 4.07 94.82 4.19 94.44 C 5.51 92.84 6.91 91.31 8.28 89.75 Z" />
<path fill="#491f42" opacity="1.00" d=" M 14.48 89.20 C 17.82 88.84 13.75 93.19 12.14 91.84 C 11.63 90.48 13.41 89.52 14.48 89.20 Z" />
<path fill="#854463" opacity="1.00" d=" M 3.79 99.37 C 5.77 96.39 7.66 93.31 8.96 89.96 C 9.20 90.72 9.69 92.24 9.94 93.00 C 7.88 96.50 5.30 99.65 3.05 103.03 C 3.09 100.67 3.26 98.30 3.69 95.98 C 3.72 96.82 3.77 98.52 3.79 99.37 Z" />
<path fill="#588278" opacity="1.00" d=" M 93.19 91.10 C 94.65 93.54 95.86 96.44 98.75 97.50 C 97.70 98.83 96.78 100.31 95.42 101.35 C 93.40 102.96 90.70 101.98 88.38 101.96 L 88.47 101.87 C 92.07 99.46 93.35 95.25 93.19 91.10 Z" />
<path fill="#7b2f69" opacity="1.00" d=" M 50.29 92.26 C 52.90 92.38 55.53 92.42 58.10 92.97 C 59.01 98.93 58.52 105.05 59.73 111.00 L 57.05 111.00 C 56.21 109.92 55.42 108.81 54.66 107.68 C 55.58 102.90 55.71 98.02 55.26 93.19 C 53.60 92.88 51.95 92.57 50.29 92.26 Z" />
<path fill="#1e2617" opacity="0.96" d=" M 67.03 111.00 C 73.40 105.53 78.62 98.78 81.95 91.06 C 83.27 92.10 84.60 93.13 85.88 94.21 C 85.94 94.50 86.04 95.07 86.09 95.36 L 84.82 94.43 L 83.23 93.31 C 81.26 96.27 79.57 99.40 77.85 102.51 C 75.32 105.47 72.69 108.38 69.79 111.00 L 67.03 111.00 Z" />
<path fill="#be495b" opacity="1.00" d=" M 54.66 107.68 C 51.23 103.30 49.94 97.75 50.29 92.26 C 51.95 92.57 53.60 92.88 55.26 93.19 C 55.71 98.02 55.58 102.90 54.66 107.68 Z" />
<path fill="#7d4652" opacity="1.00" d=" M 10.09 96.56 C 11.62 96.18 13.14 95.80 14.66 95.37 L 14.52 95.72 C 13.36 98.52 12.51 101.44 11.81 104.40 L 13.74 103.20 C 13.05 104.01 12.34 104.81 11.62 105.61 C 11.72 102.82 12.55 99.93 11.76 97.19 C 11.01 97.67 10.35 98.26 9.78 98.98 C 9.86 98.38 10.01 97.17 10.09 96.56 Z" />
<path fill="#608a77" opacity="1.00" d=" M 77.85 102.51 C 79.57 99.40 81.26 96.27 83.23 93.31 L 84.82 94.43 C 84.44 96.24 84.22 98.08 84.16 99.93 C 84.78 101.68 86.42 102.80 87.58 104.17 C 84.40 106.15 81.53 108.55 78.70 111.00 L 76.24 111.00 C 77.20 108.26 77.54 105.37 77.85 102.51 Z" />
<path fill="#da9365" opacity="1.00" d=" M 11.81 104.40 C 12.51 101.44 13.36 98.52 14.52 95.72 C 15.90 97.19 16.35 99.09 16.56 101.02 C 15.64 101.78 14.71 102.50 13.74 103.20 L 11.81 104.40 Z" />
<path fill="#cb4e55" opacity="1.00" d=" M 26.91 99.58 C 28.90 99.06 30.89 98.56 32.88 98.09 C 33.49 99.61 34.09 101.13 34.62 102.69 C 33.26 104.30 31.90 105.91 30.53 107.52 C 29.32 104.88 28.13 102.22 26.91 99.58 Z" />
<path fill="#83326a" opacity="1.00" d=" M 34.62 102.69 C 35.42 105.39 35.56 108.21 35.78 111.00 L 32.28 111.00 C 31.66 109.86 31.08 108.70 30.53 107.52 C 31.90 105.91 33.26 104.30 34.62 102.69 Z" />
<path fill="#a1cf6e" opacity="1.00" d=" M 77.85 102.51 C 77.54 105.37 77.20 108.26 76.24 111.00 L 69.79 111.00 C 72.69 108.38 75.32 105.47 77.85 102.51 Z" />
<path fill="#608a77" opacity="1.00" d=" M 80.34 111.00 C 82.54 109.37 84.68 107.66 86.96 106.15 C 85.87 107.79 84.77 109.44 83.56 111.00 L 80.34 111.00 Z" />
</svg>
