<?xml version="1.0" encoding="UTF-8" ?>
<!DOCTYPE svg PUBLIC "-//W3C//DTD SVG 1.1//EN" "http://www.w3.org/Graphics/SVG/1.1/DTD/svg11.dtd">
<svg width="111pt" height="111pt" viewBox="0 0 111 111" version="1.1" xmlns="http://www.w3.org/2000/svg">
<path fill="#1c1c12" opacity="0.42" d=" M 30.25 0.00 L 33.58 0.00 L 33.95 0.58 C 32.62 1.48 31.28 1.49 29.94 0.61 L 30.25 0.00 Z" />
<path fill="#000000" opacity="1.00" d=" M 7.84 12.70 C 13.55 6.33 21.09 0.94 29.94 0.61 C 31.28 1.49 32.62 1.48 33.95 0.58 C 42.79 2.70 53.18 5.30 57.73 14.06 C 62.52 21.66 63.25 31.07 61.07 39.65 C 63.33 40.19 66.10 40.22 67.55 42.36 C 70.70 46.00 70.65 51.15 69.94 55.63 C 78.95 56.12 87.45 60.81 93.03 67.83 C 99.37 66.73 105.56 69.48 111.00 72.45 L 111.00 75.23 C 109.88 74.44 108.73 73.69 107.58 72.95 C 107.61 73.62 107.66 74.96 107.69 75.64 C 105.80 78.11 100.97 79.71 99.34 76.21 C 100.33 75.36 101.31 74.50 102.35 73.70 C 103.05 73.20 104.45 72.18 105.16 71.68 C 101.40 70.30 97.50 69.37 93.52 68.95 C 93.91 69.82 94.30 70.68 94.69 71.55 C 96.67 76.27 98.24 81.30 98.19 86.47 C 97.87 88.56 97.48 90.65 96.89 92.68 C 96.61 93.33 96.05 94.61 95.76 95.26 C 96.24 97.52 96.73 99.78 97.19 102.04 C 101.77 103.61 106.46 101.20 111.00 102.27 L 111.00 111.00 L 31.96 111.00 C 24.50 109.24 16.61 109.41 9.41 106.61 C 7.54 105.89 4.29 103.56 6.66 101.58 C 12.27 99.46 18.42 99.43 24.26 98.21 C 21.80 95.25 19.66 91.90 19.40 87.95 C 17.93 88.99 16.60 91.06 14.52 90.57 C 11.79 89.75 12.17 86.26 13.19 84.24 C 15.40 79.71 17.90 74.12 23.44 73.12 C 20.54 69.52 20.78 64.82 21.83 60.58 C 17.96 59.22 15.14 56.21 13.17 52.72 C 11.75 56.53 7.99 61.75 3.36 59.65 C 0.95 56.56 3.29 51.86 6.52 50.48 L 6.85 50.77 C 5.86 53.12 3.74 55.10 4.08 57.90 C 7.65 59.02 9.09 54.33 10.92 52.13 C 9.71 51.43 8.52 50.70 7.27 50.08 C 4.61 45.39 2.07 40.45 1.39 35.03 C 0.31 29.26 2.02 23.47 4.74 18.41 C 2.66 16.84 0.13 13.80 2.40 11.34 C 4.21 9.25 6.50 11.19 7.84 12.70 M 9.82 14.88 C 12.99 12.71 16.44 10.95 20.26 10.31 C 23.67 10.38 27.45 10.37 30.22 12.70 C 34.91 16.33 35.84 22.61 37.44 27.96 C 37.36 33.33 35.60 38.72 31.91 42.71 L 32.64 42.82 C 30.02 44.73 28.19 47.50 25.56 49.39 C 22.41 51.45 18.75 52.57 15.10 53.34 C 16.86 55.12 18.48 57.34 21.04 57.98 C 25.19 59.08 29.49 58.21 33.65 57.65 C 33.93 56.23 34.17 54.78 33.83 53.35 C 33.52 53.39 32.89 53.48 32.58 53.52 L 31.62 52.44 C 32.82 51.73 34.03 51.02 35.26 50.35 C 35.93 48.73 36.59 47.04 38.11 46.02 C 39.76 45.27 41.29 44.28 42.73 43.19 C 42.19 45.23 43.67 46.67 44.74 48.19 C 46.59 50.40 46.02 53.50 46.22 56.16 C 46.01 61.51 40.80 67.69 35.15 64.69 C 33.78 62.73 33.42 60.37 33.53 58.02 C 30.93 60.54 27.22 60.84 23.84 61.41 C 23.49 64.16 23.49 66.95 24.13 69.67 L 24.48 68.92 C 24.75 72.35 29.19 73.61 32.09 74.37 C 37.06 75.27 42.82 76.04 47.34 73.27 C 50.22 73.02 52.93 72.01 55.62 71.01 L 55.02 72.03 C 51.73 73.94 48.50 76.01 44.86 77.21 L 44.67 77.54 C 37.75 78.21 30.36 78.08 24.38 74.03 C 22.89 77.08 21.95 80.38 21.80 83.78 L 21.57 83.80 C 21.72 85.33 21.88 86.86 22.09 88.39 C 22.08 91.11 23.82 93.34 25.45 95.34 C 26.66 96.36 27.83 97.41 28.98 98.49 C 39.16 106.35 53.64 104.99 64.40 99.09 C 64.48 98.85 64.63 98.38 64.71 98.15 C 68.66 95.05 69.32 89.63 68.56 84.99 C 68.20 83.37 68.14 81.61 67.26 80.17 C 66.67 76.53 65.43 73.03 63.64 69.82 C 63.41 69.13 62.95 67.75 62.72 67.06 L 64.21 66.26 C 66.32 71.36 68.60 76.40 70.22 81.70 C 70.58 85.68 70.98 89.69 70.49 93.68 L 69.64 93.91 C 70.62 96.44 71.58 98.98 72.51 101.53 C 77.54 102.00 82.68 102.70 87.65 101.35 C 89.03 102.73 90.44 104.08 91.87 105.41 C 96.54 105.07 94.77 99.18 94.46 96.11 L 93.52 96.39 C 94.71 91.31 96.56 86.12 95.21 80.86 L 95.13 79.86 C 93.56 74.84 92.12 69.41 88.24 65.62 C 82.98 61.01 76.56 57.22 69.36 57.21 C 68.14 58.52 66.95 59.84 65.83 61.22 L 65.78 61.21 C 65.33 61.90 64.45 63.27 64.00 63.95 C 63.64 63.50 62.90 62.59 62.53 62.14 L 63.47 60.54 C 67.30 56.20 69.08 49.52 65.73 44.38 C 64.58 42.09 61.96 41.58 59.63 41.56 L 60.24 43.03 C 59.88 42.62 59.16 41.81 58.80 41.41 C 60.19 38.88 60.09 35.95 60.39 33.17 C 60.98 27.11 59.68 20.93 56.20 15.87 C 54.79 12.63 52.09 10.20 49.11 8.40 C 47.64 7.70 46.14 7.05 44.61 6.46 C 40.29 4.55 35.59 3.22 30.84 3.28 C 22.38 3.37 14.93 8.49 9.82 14.88 M 3.51 12.49 C 2.73 14.23 4.18 15.67 5.48 16.60 C 7.98 15.67 5.79 11.31 3.51 12.49 M 7.59 20.63 L 7.03 20.69 C 4.44 23.66 3.08 27.39 1.99 31.12 C 4.11 28.94 6.08 26.40 9.04 25.32 C 13.59 22.93 18.73 25.78 22.14 28.88 C 25.10 31.54 25.13 35.75 24.71 39.41 C 22.27 41.81 20.57 45.33 17.06 46.35 C 14.65 46.42 12.23 45.42 9.84 46.15 C 8.79 45.86 7.74 45.56 6.69 45.25 C 8.72 50.14 15.11 52.17 19.70 49.65 C 27.29 47.23 32.33 40.39 35.16 33.26 C 35.28 30.86 35.51 28.41 34.92 26.04 C 33.61 20.70 31.71 14.48 25.96 12.46 L 25.72 12.55 C 18.65 11.17 11.41 14.64 7.59 20.63 M 3.81 34.98 C 3.09 39.38 7.13 42.13 10.10 44.53 C 8.08 42.38 8.24 39.40 8.29 36.67 C 8.51 36.45 8.94 36.02 9.16 35.80 C 9.42 37.73 9.79 39.64 10.25 41.54 C 11.21 42.64 11.91 44.21 13.41 44.65 C 20.18 45.83 26.25 36.43 21.49 30.96 L 21.43 31.64 L 21.19 30.14 C 19.44 29.34 17.90 27.51 15.92 27.51 L 16.34 26.99 C 10.83 24.85 3.97 28.93 3.81 34.98 M 36.27 52.30 C 35.77 55.77 34.49 59.48 36.09 62.86 L 35.91 63.18 C 38.75 64.53 41.93 62.65 43.12 59.98 C 44.98 55.78 45.28 49.80 40.98 46.98 C 37.59 46.59 36.77 49.64 36.27 52.30 M 103.38 74.26 C 100.18 75.97 104.40 77.44 105.64 75.34 C 107.13 73.73 104.24 73.18 103.38 74.26 M 14.29 85.80 C 14.33 86.53 14.42 87.98 14.46 88.71 C 16.41 88.01 17.73 86.31 19.28 85.04 C 19.48 83.52 19.66 82.01 19.82 80.49 C 20.45 78.45 21.27 76.46 22.05 74.48 C 18.20 77.22 16.18 81.63 14.29 85.80 M 68.66 96.81 C 68.11 97.80 67.56 98.81 67.01 99.81 C 65.90 100.62 64.77 101.42 63.65 102.23 C 65.47 104.27 67.87 105.75 70.63 106.06 L 70.22 105.22 C 70.90 102.33 69.69 99.46 68.66 96.81 M 25.47 99.00 C 25.45 100.76 25.44 102.53 25.45 104.29 C 26.81 103.72 28.11 103.01 29.27 102.08 C 28.01 101.04 26.74 100.01 25.47 99.00 Z" />
<path fill="#fffe9a" opacity="1.00" d=" M 9.82 14.88 C 14.93 8.49 22.38 3.37 30.84 3.28 C 27.83 6.36 23.69 7.81 20.26 10.31 C 16.44 10.95 12.99 12.71 9.82 14.88 Z" />
<path fill="#fbfdc2" opacity="1.00" d=" M 30.84 3.28 C 35.59 3.22 40.29 4.55 44.61 6.46 C 46.00 10.39 47.18 14.39 48.49 18.34 C 45.24 20.10 40.54 23.26 41.66 27.48 C 40.48 28.22 39.30 28.96 38.11 29.69 C 37.95 29.26 37.61 28.39 37.44 27.96 C 35.84 22.61 34.91 16.33 30.22 12.70 C 27.45 10.37 23.67 10.38 20.26 10.31 C 23.69 7.81 27.83 6.36 30.84 3.28 Z" />
<path fill="#9a9272" opacity="1.00" d=" M 44.61 6.46 C 46.14 7.05 47.64 7.70 49.11 8.40 C 49.05 11.54 49.19 14.68 49.49 17.81 L 48.49 18.34 C 47.18 14.39 46.00 10.39 44.61 6.46 Z" />
<path fill="#553e32" opacity="1.00" d=" M 49.11 8.40 C 52.09 10.20 54.79 12.63 56.20 15.87 C 56.59 18.19 56.82 20.53 56.92 22.88 C 55.78 22.10 54.65 21.33 53.52 20.56 C 52.18 19.64 50.84 18.73 49.49 17.81 C 49.19 14.68 49.05 11.54 49.11 8.40 Z" />
<path fill="#f7e784" opacity="1.00" d=" M 3.51 12.49 C 5.79 11.31 7.98 15.67 5.48 16.60 C 4.18 15.67 2.73 14.23 3.51 12.49 Z" />
<path fill="#fffe9a" opacity="1.00" d=" M 7.59 20.63 C 11.41 14.64 18.65 11.17 25.72 12.55 C 24.05 13.20 22.36 13.78 20.66 14.35 C 19.91 18.98 14.77 23.14 10.25 20.33 C 9.36 20.43 8.48 20.53 7.59 20.63 Z" />
<path fill="#524e5d" opacity="1.00" d=" M 25.72 12.55 L 25.96 12.46 C 31.71 14.48 33.61 20.70 34.92 26.04 C 35.51 28.41 35.28 30.86 35.16 33.26 C 34.45 32.14 33.74 31.02 33.03 29.90 C 30.54 33.30 27.97 36.69 24.71 39.41 C 25.13 35.75 25.10 31.54 22.14 28.88 C 18.73 25.78 13.59 22.93 9.04 25.32 C 6.08 26.40 4.11 28.94 1.99 31.12 C 3.08 27.39 4.44 23.66 7.03 20.69 L 7.59 20.63 C 8.48 20.53 9.36 20.43 10.25 20.33 C 14.77 23.14 19.91 18.98 20.66 14.35 C 22.36 13.78 24.05 13.20 25.72 12.55 Z" />
<path fill="#31293f" opacity="1.00" d=" M 56.20 15.87 C 59.68 20.93 60.98 27.11 60.39 33.17 C 59.80 32.82 58.61 32.10 58.01 31.75 C 57.61 31.50 56.80 31.01 56.40 30.77 C 56.64 28.14 56.86 25.51 56.92 22.88 C 56.82 20.53 56.59 18.19 56.20 15.87 Z" />
<path fill="#000000" opacity="1.00" d=" M 48.49 18.34 L 49.49 17.81 C 50.84 18.73 52.18 19.64 53.52 20.56 C 53.14 23.94 51.19 26.92 47.65 27.53 C 45.67 28.04 43.63 27.90 41.66 27.48 C 40.54 23.26 45.24 20.10 48.49 18.34 M 44.33 23.00 L 44.04 23.06 C 43.46 24.06 42.88 25.06 42.30 26.06 C 45.68 26.56 50.50 26.21 51.56 22.22 L 51.67 22.24 C 51.33 21.48 51.00 20.71 50.68 19.94 C 48.10 19.73 46.07 21.31 44.33 23.00 Z" />
<path fill="#fffe9a" opacity="1.00" d=" M 44.33 23.00 C 46.07 21.31 48.10 19.73 50.68 19.94 C 51.00 20.71 51.33 21.48 51.67 22.24 L 51.56 22.22 C 51.21 22.14 50.50 21.98 50.15 21.91 C 48.19 22.17 46.26 22.60 44.33 23.00 Z" />
<path fill="#645141" opacity="1.00" d=" M 53.52 20.56 C 54.65 21.33 55.78 22.10 56.92 22.88 C 56.86 25.51 56.64 28.14 56.40 30.77 C 56.80 31.01 57.61 31.50 58.01 31.75 C 56.66 32.02 55.31 32.29 53.95 32.54 C 52.53 32.03 51.07 31.62 49.61 31.23 C 48.96 29.99 48.32 28.75 47.65 27.53 C 51.19 26.92 53.14 23.94 53.52 20.56 Z" />
<path fill="#a96055" opacity="1.00" d=" M 44.33 23.00 C 46.26 22.60 48.19 22.17 50.15 21.91 C 50.50 21.98 51.21 22.14 51.56 22.22 C 50.50 26.21 45.68 26.56 42.30 26.06 C 42.88 25.06 43.46 24.06 44.04 23.06 L 44.33 23.00 Z" />
<path fill="#f4f6bc" opacity="1.00" d=" M 3.81 34.98 C 3.97 28.93 10.83 24.85 16.34 26.99 L 15.92 27.51 C 13.68 30.29 11.73 33.30 9.16 35.80 C 8.94 36.02 8.51 36.45 8.29 36.67 C 8.24 39.40 8.08 42.38 10.10 44.53 C 7.13 42.13 3.09 39.38 3.81 34.98 Z" />
<path fill="#e3e2ae" opacity="1.00" d=" M 41.66 27.48 C 43.63 27.90 45.67 28.04 47.65 27.53 C 47.60 27.91 47.51 28.67 47.46 29.05 C 46.12 33.90 42.29 37.18 38.18 39.74 C 36.30 41.12 34.21 42.23 31.91 42.71 C 35.60 38.72 37.36 33.33 37.44 27.96 C 37.61 28.39 37.95 29.26 38.11 29.69 C 39.30 28.96 40.48 28.22 41.66 27.48 Z" />
<path fill="#eaeab4" opacity="1.00" d=" M 9.16 35.80 C 11.73 33.30 13.68 30.29 15.92 27.51 C 17.90 27.51 19.44 29.34 21.19 30.14 L 21.43 31.64 C 21.30 35.22 20.28 39.37 16.86 41.18 C 14.76 42.00 12.44 41.50 10.25 41.54 C 9.79 39.64 9.42 37.73 9.16 35.80 Z" />
<path fill="#74644f" opacity="1.00" d=" M 47.65 27.53 C 48.32 28.75 48.96 29.99 49.61 31.23 C 51.07 31.62 52.53 32.03 53.95 32.54 C 53.79 35.43 53.81 38.44 55.47 40.93 L 54.77 40.85 C 54.17 42.97 53.67 45.12 53.11 47.25 C 53.03 46.69 52.85 45.58 52.77 45.02 C 51.69 46.22 50.62 47.41 49.58 48.62 C 49.42 46.46 49.79 44.32 50.40 42.25 C 48.21 42.52 46.02 42.73 43.83 42.92 C 44.49 38.13 47.63 33.99 47.46 29.05 C 47.51 28.67 47.60 27.91 47.65 27.53 Z" />
<path fill="#413b4d" opacity="1.00" d=" M 24.71 39.41 C 27.97 36.69 30.54 33.30 33.03 29.90 C 33.74 31.02 34.45 32.14 35.16 33.26 C 32.33 40.39 27.29 47.23 19.70 49.65 C 15.11 52.17 8.72 50.14 6.69 45.25 C 7.74 45.56 8.79 45.86 9.84 46.15 C 12.23 45.42 14.65 46.42 17.06 46.35 C 20.57 45.33 22.27 41.81 24.71 39.41 Z" />
<path fill="#82765d" opacity="1.00" d=" M 38.18 39.74 C 42.29 37.18 46.12 33.90 47.46 29.05 C 47.63 33.99 44.49 38.13 43.83 42.92 C 46.02 42.73 48.21 42.52 50.40 42.25 C 49.79 44.32 49.42 46.46 49.58 48.62 C 47.98 50.43 46.67 52.52 46.46 54.99 C 46.40 55.28 46.28 55.87 46.22 56.16 C 46.02 53.50 46.59 50.40 44.74 48.19 C 43.67 46.67 42.19 45.23 42.73 43.19 C 41.29 44.28 39.76 45.27 38.11 46.02 C 38.14 43.92 38.16 41.83 38.18 39.74 Z" />
<path fill="#8c8165" opacity="1.00" d=" M 21.43 31.64 L 21.49 30.96 C 26.25 36.43 20.18 45.83 13.41 44.65 C 11.91 44.21 11.21 42.64 10.25 41.54 C 12.44 41.50 14.76 42.00 16.86 41.18 C 20.28 39.37 21.30 35.22 21.43 31.64 Z" />
<path fill="#a65b55" opacity="1.00" d=" M 53.95 32.54 C 55.31 32.29 56.66 32.02 58.01 31.75 C 58.61 32.10 59.80 32.82 60.39 33.17 C 60.09 35.95 60.19 38.88 58.80 41.41 C 57.97 41.29 56.31 41.05 55.47 40.93 C 53.81 38.44 53.79 35.43 53.95 32.54 Z" />
<path fill="#9a8b6e" opacity="1.00" d=" M 31.91 42.71 C 34.21 42.23 36.30 41.12 38.18 39.74 C 38.16 41.83 38.14 43.92 38.11 46.02 C 36.59 47.04 35.93 48.73 35.26 50.35 C 34.03 51.02 32.82 51.73 31.62 52.44 L 32.58 53.52 C 32.89 53.48 33.52 53.39 33.83 53.35 C 34.17 54.78 33.93 56.23 33.65 57.65 C 29.49 58.21 25.19 59.08 21.04 57.98 C 18.48 57.34 16.86 55.12 15.10 53.34 C 18.75 52.57 22.41 51.45 25.56 49.39 C 28.19 47.50 30.02 44.73 32.64 42.82 L 31.91 42.71 Z" />
<path fill="#31293e" opacity="1.00" d=" M 53.11 47.25 C 53.67 45.12 54.17 42.97 54.77 40.85 L 55.47 40.93 C 56.31 41.05 57.97 41.29 58.80 41.41 C 59.16 41.81 59.88 42.62 60.24 43.03 L 60.45 43.27 C 55.67 46.94 54.71 53.50 49.87 57.14 C 50.77 55.13 51.52 53.06 52.16 50.95 C 52.51 49.73 52.82 48.49 53.11 47.25 Z" />
<path fill="#322b3f" opacity="1.00" d=" M 59.63 41.56 C 61.96 41.58 64.58 42.09 65.73 44.38 C 69.08 49.52 67.30 56.20 63.47 60.54 C 62.41 59.51 61.34 58.49 60.26 57.47 C 63.37 54.04 63.54 49.23 62.40 44.97 C 61.91 44.54 60.94 43.70 60.45 43.27 L 60.24 43.03 L 59.63 41.56 Z" />
<path fill="#8f8468" opacity="1.00" d=" M 49.87 57.14 C 54.71 53.50 55.67 46.94 60.45 43.27 C 60.94 43.70 61.91 44.54 62.40 44.97 C 63.54 49.23 63.37 54.04 60.26 57.47 C 59.08 59.04 57.94 60.63 56.85 62.25 L 56.67 62.51 C 53.10 62.29 50.10 64.34 47.13 66.01 C 46.73 65.49 45.92 64.45 45.52 63.93 C 46.66 61.48 48.02 59.13 49.87 57.14 Z" />
<path fill="#e3e2ae" opacity="1.00" d=" M 49.58 48.62 C 50.62 47.41 51.69 46.22 52.77 45.02 C 52.85 45.58 53.03 46.69 53.11 47.25 C 52.82 48.49 52.51 49.73 52.16 50.95 C 50.26 52.30 48.36 53.65 46.46 54.99 C 46.67 52.52 47.98 50.43 49.58 48.62 Z" />
<path fill="#a75c55" opacity="1.00" d=" M 36.27 52.30 C 36.77 49.64 37.59 46.59 40.98 46.98 C 45.28 49.80 44.98 55.78 43.12 59.98 C 41.93 62.65 38.75 64.53 35.91 63.18 L 36.09 62.86 C 37.80 60.08 38.94 56.99 39.66 53.81 C 38.53 53.31 37.40 52.80 36.27 52.30 Z" />
<path fill="#f2e68e" opacity="1.00" d=" M 6.52 50.48 C 6.71 50.38 7.08 50.18 7.27 50.08 C 8.52 50.70 9.71 51.43 10.92 52.13 C 9.09 54.33 7.65 59.02 4.08 57.90 C 3.74 55.10 5.86 53.12 6.85 50.77 L 6.52 50.48 Z" />
<path fill="#a79b7a" opacity="1.00" d=" M 46.46 54.99 C 48.36 53.65 50.26 52.30 52.16 50.95 C 51.52 53.06 50.77 55.13 49.87 57.14 C 48.02 59.13 46.66 61.48 45.52 63.93 C 45.92 64.45 46.73 65.49 47.13 66.01 C 50.10 64.34 53.10 62.29 56.67 62.51 C 54.01 66.47 50.33 69.58 47.34 73.27 C 42.82 76.04 37.06 75.27 32.09 74.37 C 29.19 73.61 24.75 72.35 24.48 68.92 C 24.75 68.34 25.29 67.18 25.56 66.60 C 28.76 66.00 31.96 65.35 35.15 64.69 C 40.80 67.69 46.01 61.51 46.22 56.16 C 46.28 55.87 46.40 55.28 46.46 54.99 Z" />
<path fill="#f7e784" opacity="1.00" d=" M 36.27 52.30 C 37.40 52.80 38.53 53.31 39.66 53.81 C 38.94 56.99 37.80 60.08 36.09 62.86 C 34.49 59.48 35.77 55.77 36.27 52.30 Z" />
<path fill="#4f4b5a" opacity="1.00" d=" M 69.36 57.21 C 76.56 57.22 82.98 61.01 88.24 65.62 C 87.85 66.77 87.48 67.91 87.10 69.05 C 86.85 68.93 86.35 68.68 86.09 68.56 C 79.59 65.56 73.19 61.47 65.83 61.22 C 66.95 59.84 68.14 58.52 69.36 57.21 Z" />
<path fill="#b26d56" opacity="1.00" d=" M 56.85 62.25 C 57.94 60.63 59.08 59.04 60.26 57.47 C 61.34 58.49 62.41 59.51 63.47 60.54 L 62.53 62.14 C 62.07 63.06 61.68 64.02 61.35 65.00 C 60.65 64.89 59.25 64.67 58.55 64.56 C 58.12 63.98 57.27 62.83 56.85 62.25 Z" />
<path fill="#c8b491" opacity="1.00" d=" M 23.84 61.41 C 27.22 60.84 30.93 60.54 33.53 58.02 C 33.42 60.37 33.78 62.73 35.15 64.69 C 31.96 65.35 28.76 66.00 25.56 66.60 C 25.29 67.18 24.75 68.34 24.48 68.92 L 24.13 69.67 C 23.49 66.95 23.49 64.16 23.84 61.41 Z" />
<path fill="#f1f1b9" opacity="1.00" d=" M 65.83 61.22 C 73.19 61.47 79.59 65.56 86.09 68.56 C 83.17 69.79 80.28 71.41 78.46 74.09 C 80.52 78.00 85.94 74.39 88.79 73.06 C 88.48 76.81 88.27 80.57 87.93 84.31 C 86.43 88.46 82.21 90.30 78.20 91.15 C 75.91 90.91 73.64 90.56 71.36 90.25 C 71.32 87.37 71.33 84.41 70.22 81.70 C 68.60 76.40 66.32 71.36 64.21 66.26 L 62.72 67.06 C 62.65 66.84 62.52 66.42 62.45 66.20 C 62.97 65.46 63.51 64.72 64.00 63.95 C 64.45 63.27 65.33 61.90 65.78 61.21 L 65.83 61.22 Z" />
<path fill="#504b5b" opacity="1.00" d=" M 61.35 65.00 C 61.68 64.02 62.07 63.06 62.53 62.14 C 62.90 62.59 63.64 63.50 64.00 63.95 C 63.51 64.72 62.97 65.46 62.45 66.20 C 62.52 66.42 62.65 66.84 62.72 67.06 C 62.95 67.75 63.41 69.13 63.64 69.82 C 62.36 71.48 61.08 73.14 59.79 74.79 C 59.03 73.25 58.31 71.69 57.60 70.13 C 60.19 69.56 61.17 67.44 61.35 65.00 Z" />
<path fill="#2f273d" opacity="1.00" d=" M 56.67 62.51 L 56.85 62.25 C 57.27 62.83 58.12 63.98 58.55 64.56 C 59.25 64.67 60.65 64.89 61.35 65.00 C 61.17 67.44 60.19 69.56 57.60 70.13 C 56.94 70.42 56.28 70.72 55.62 71.01 C 52.93 72.01 50.22 73.02 47.34 73.27 C 50.33 69.58 54.01 66.47 56.67 62.51 Z" />
<path fill="#31293f" opacity="1.00" d=" M 88.24 65.62 C 92.12 69.41 93.56 74.84 95.13 79.86 C 93.69 79.57 92.25 79.28 90.81 78.99 C 90.32 76.68 89.73 74.38 88.82 72.20 C 88.38 71.08 87.75 70.06 87.10 69.05 C 87.48 67.91 87.85 66.77 88.24 65.62 Z" />
<path fill="#000000" opacity="1.00" d=" M 78.46 74.09 C 80.28 71.41 83.17 69.79 86.09 68.56 C 86.35 68.68 86.85 68.93 87.10 69.05 C 87.75 70.06 88.38 71.08 88.82 72.20 L 88.79 73.06 C 85.94 74.39 80.52 78.00 78.46 74.09 M 80.19 73.95 C 82.75 73.52 85.82 73.40 87.34 70.92 C 84.51 70.25 82.13 72.18 80.19 73.95 Z" />
<path fill="#504b5b" opacity="1.00" d=" M 93.52 68.95 C 97.50 69.37 101.40 70.30 105.16 71.68 C 104.45 72.18 103.05 73.20 102.35 73.70 C 99.78 73.03 97.23 72.31 94.69 71.55 C 94.30 70.68 93.91 69.82 93.52 68.95 Z" />
<path fill="#9f9878" opacity="1.00" d=" M 55.62 71.01 C 56.28 70.72 56.94 70.42 57.60 70.13 C 58.31 71.69 59.03 73.25 59.79 74.79 C 59.93 75.04 60.20 75.56 60.33 75.81 C 59.72 75.82 58.51 75.84 57.90 75.85 C 57.45 75.87 56.54 75.90 56.09 75.92 C 56.69 74.30 57.26 72.67 57.83 71.04 C 57.13 71.29 55.72 71.78 55.02 72.03 L 55.62 71.01 Z" />
<path fill="#2e263c" opacity="1.00" d=" M 63.64 69.82 C 65.43 73.03 66.67 76.53 67.26 80.17 C 66.19 79.80 65.12 79.44 64.05 79.09 C 62.50 78.40 61.43 77.05 60.33 75.81 C 60.20 75.56 59.93 75.04 59.79 74.79 C 61.08 73.14 62.36 71.48 63.64 69.82 Z" />
<path fill="#f7e784" opacity="1.00" d=" M 80.19 73.95 C 82.13 72.18 84.51 70.25 87.34 70.92 C 85.82 73.40 82.75 73.52 80.19 73.95 Z" />
<path fill="#f1eeb9" opacity="1.00" d=" M 44.86 77.21 C 48.50 76.01 51.73 73.94 55.02 72.03 C 55.72 71.78 57.13 71.29 57.83 71.04 C 57.26 72.67 56.69 74.30 56.09 75.92 C 51.73 76.81 50.57 81.72 48.87 85.17 C 46.29 85.47 43.73 85.84 41.17 86.20 C 34.90 86.31 28.67 85.51 22.41 85.39 C 22.33 86.14 22.17 87.64 22.09 88.39 C 21.88 86.86 21.72 85.33 21.57 83.80 L 21.80 83.78 C 24.44 84.35 25.17 81.81 26.02 79.89 C 31.23 81.99 37.20 82.66 42.44 80.26 C 43.64 79.83 44.01 78.48 44.67 77.54 L 44.86 77.21 Z" />
<path fill="#fbfdc2" opacity="1.00" d=" M 94.69 71.55 C 97.23 72.31 99.78 73.03 102.35 73.70 C 101.31 74.50 100.33 75.36 99.34 76.21 C 100.97 79.71 105.80 78.11 107.69 75.64 C 108.43 77.54 109.34 79.38 110.22 81.23 C 107.49 82.51 105.77 84.85 106.39 87.98 C 105.26 88.62 104.12 89.24 102.99 89.87 C 101.39 88.73 99.79 87.60 98.19 86.47 C 98.24 81.30 96.67 76.27 94.69 71.55 Z" />
<path fill="#a99f7d" opacity="1.00" d=" M 88.82 72.20 C 89.73 74.38 90.32 76.68 90.81 78.99 C 90.10 80.23 89.41 81.47 88.74 82.73 C 88.54 83.13 88.13 83.92 87.93 84.31 C 88.27 80.57 88.48 76.81 88.79 73.06 L 88.82 72.20 Z" />
<path fill="#534e5d" opacity="1.00" d=" M 107.58 72.95 C 108.73 73.69 109.88 74.44 111.00 75.23 L 111.00 80.67 L 110.22 81.23 C 109.34 79.38 108.43 77.54 107.69 75.64 C 107.66 74.96 107.61 73.62 107.58 72.95 Z" />
<path fill="#fffe9a" opacity="1.00" d=" M 24.38 74.03 C 30.36 78.08 37.75 78.21 44.67 77.54 C 44.01 78.48 43.64 79.83 42.44 80.26 C 37.20 82.66 31.23 81.99 26.02 79.89 C 25.17 81.81 24.44 84.35 21.80 83.78 C 21.95 80.38 22.89 77.08 24.38 74.03 Z" />
<path fill="#fffe9a" opacity="1.00" d=" M 103.38 74.26 C 104.24 73.18 107.13 73.73 105.64 75.34 C 104.40 77.44 100.18 75.97 103.38 74.26 Z" />
<path fill="#fffe9a" opacity="1.00" d=" M 14.29 85.80 C 16.18 81.63 18.20 77.22 22.05 74.48 C 21.27 76.46 20.45 78.45 19.82 80.49 C 17.91 82.18 15.97 83.87 14.29 85.80 Z" />
<path fill="#000000" opacity="1.00" d=" M 48.87 85.17 C 50.57 81.72 51.73 76.81 56.09 75.92 C 56.54 75.90 57.45 75.87 57.90 75.85 C 65.45 81.97 56.90 95.29 48.08 93.12 C 48.11 91.09 48.14 89.05 48.31 87.03 C 48.45 86.56 48.73 85.64 48.87 85.17 M 53.20 78.83 C 51.49 82.51 49.97 86.35 49.92 90.47 L 49.36 91.69 C 55.01 90.94 59.86 84.77 57.73 79.18 C 57.30 79.04 56.44 78.76 56.00 78.62 C 55.30 78.68 53.90 78.78 53.20 78.83 Z" />
<path fill="#6b5645" opacity="1.00" d=" M 57.90 75.85 C 58.51 75.84 59.72 75.82 60.33 75.81 C 61.43 77.05 62.50 78.40 64.05 79.09 C 63.17 79.78 62.29 80.46 61.41 81.15 C 62.61 82.73 63.82 84.30 65.05 85.86 L 64.34 86.06 C 60.50 87.89 61.13 92.97 60.14 96.48 C 61.28 96.52 62.41 96.57 63.55 96.62 C 63.76 97.23 64.18 98.47 64.40 99.09 C 53.64 104.99 39.16 106.35 28.98 98.49 C 29.83 97.98 30.67 97.47 31.51 96.96 C 30.91 94.63 30.56 92.23 30.39 89.83 C 36.38 89.02 42.31 87.78 48.31 87.03 C 48.14 89.05 48.11 91.09 48.08 93.12 C 56.90 95.29 65.45 81.97 57.90 75.85 Z" />
<path fill="#fffe9a" opacity="1.00" d=" M 53.20 78.83 C 53.90 78.78 55.30 78.68 56.00 78.62 C 54.54 82.85 52.59 86.87 49.92 90.47 C 49.97 86.35 51.49 82.51 53.20 78.83 Z" />
<path fill="#a55a55" opacity="1.00" d=" M 56.00 78.62 C 56.44 78.76 57.30 79.04 57.73 79.18 C 59.86 84.77 55.01 90.94 49.36 91.69 L 49.92 90.47 C 52.59 86.87 54.54 82.85 56.00 78.62 Z" />
<path fill="#aa6255" opacity="1.00" d=" M 64.05 79.09 C 65.12 79.44 66.19 79.80 67.26 80.17 C 68.14 81.61 68.20 83.37 68.56 84.99 C 67.39 85.27 66.22 85.56 65.05 85.86 C 63.82 84.30 62.61 82.73 61.41 81.15 C 62.29 80.46 63.17 79.78 64.05 79.09 Z" />
<path fill="#a65b55" opacity="1.00" d=" M 90.81 78.99 C 92.25 79.28 93.69 79.57 95.13 79.86 L 95.21 80.86 C 95.33 82.57 95.47 84.28 95.60 85.99 C 94.88 86.20 93.44 86.62 92.72 86.83 C 91.40 85.46 90.06 84.10 88.74 82.73 C 89.41 81.47 90.10 80.23 90.81 78.99 Z" />
<path fill="#b26d56" opacity="1.00" d=" M 14.29 85.80 C 15.97 83.87 17.91 82.18 19.82 80.49 C 19.66 82.01 19.48 83.52 19.28 85.04 C 17.73 86.31 16.41 88.01 14.46 88.71 C 14.42 87.98 14.33 86.53 14.29 85.80 Z" />
<path fill="#322a3f" opacity="1.00" d=" M 95.21 80.86 C 96.56 86.12 94.71 91.31 93.52 96.39 C 92.71 96.64 91.90 96.91 91.11 97.21 C 91.42 93.73 91.17 90.05 92.72 86.83 C 93.44 86.62 94.88 86.20 95.60 85.99 C 95.47 84.28 95.33 82.57 95.21 80.86 Z" />
<path fill="#daa65b" opacity="1.00" d=" M 110.22 81.23 L 111.00 80.67 L 111.00 85.43 C 109.88 86.59 108.71 87.69 107.55 88.80 C 107.26 88.59 106.68 88.19 106.39 87.98 C 105.77 84.85 107.49 82.51 110.22 81.23 Z" />
<path fill="#877d63" opacity="1.00" d=" M 70.22 81.70 C 71.33 84.41 71.32 87.37 71.36 90.25 C 73.64 90.56 75.91 90.91 78.20 91.15 C 75.63 92.02 73.10 92.99 70.49 93.68 C 70.98 89.69 70.58 85.68 70.22 81.70 Z" />
<path fill="#5b4437" opacity="1.00" d=" M 87.93 84.31 C 88.13 83.92 88.54 83.13 88.74 82.73 C 90.06 84.10 91.40 85.46 92.72 86.83 C 91.17 90.05 91.42 93.73 91.11 97.21 C 90.53 97.59 89.38 98.37 88.81 98.76 C 89.62 101.06 90.52 103.36 91.87 105.41 C 90.44 104.08 89.03 102.73 87.65 101.35 C 82.68 102.70 77.54 102.00 72.51 101.53 C 71.58 98.98 70.62 96.44 69.64 93.91 L 70.49 93.68 C 73.10 92.99 75.63 92.02 78.20 91.15 C 82.21 90.30 86.43 88.46 87.93 84.31 Z" />
<path fill="#8c7861" opacity="1.00" d=" M 41.17 86.20 C 43.73 85.84 46.29 85.47 48.87 85.17 C 48.73 85.64 48.45 86.56 48.31 87.03 C 42.31 87.78 36.38 89.02 30.39 89.83 C 30.56 92.23 30.91 94.63 31.51 96.96 C 30.67 97.47 29.83 97.98 28.98 98.49 C 27.83 97.41 26.66 96.36 25.45 95.34 C 25.13 92.11 26.26 88.79 29.12 87.01 C 33.11 86.44 37.18 86.93 41.17 86.20 Z" />
<path fill="#332c40" opacity="1.00" d=" M 65.05 85.86 C 66.22 85.56 67.39 85.27 68.56 84.99 C 69.32 89.63 68.66 95.05 64.71 98.15 C 65.18 94.12 64.80 90.07 64.34 86.06 L 65.05 85.86 Z" />
<path fill="#a99d7c" opacity="1.00" d=" M 22.41 85.39 C 28.67 85.51 34.90 86.31 41.17 86.20 C 37.18 86.93 33.11 86.44 29.12 87.01 C 26.26 88.79 25.13 92.11 25.45 95.34 C 23.82 93.34 22.08 91.11 22.09 88.39 C 22.17 87.64 22.33 86.14 22.41 85.39 Z" />
<path fill="#5d483a" opacity="1.00" d=" M 60.14 96.48 C 61.13 92.97 60.50 87.89 64.34 86.06 C 64.80 90.07 65.18 94.12 64.71 98.15 C 64.63 98.38 64.48 98.85 64.40 99.09 C 64.18 98.47 63.76 97.23 63.55 96.62 C 62.41 96.57 61.28 96.52 60.14 96.48 Z" />
<path fill="#a85f56" opacity="1.00" d=" M 107.55 88.80 C 108.71 87.69 109.88 86.59 111.00 85.43 L 111.00 90.30 C 110.68 90.30 110.03 90.29 109.70 90.29 C 109.16 89.91 108.09 89.17 107.55 88.80 Z" />
<path fill="#b0a381" opacity="1.00" d=" M 98.19 86.47 C 99.79 87.60 101.39 88.73 102.99 89.87 C 104.12 89.24 105.26 88.62 106.39 87.98 C 106.68 88.19 107.26 88.59 107.55 88.80 C 108.09 89.17 109.16 89.91 109.70 90.29 C 105.75 92.42 101.36 93.27 96.89 92.68 C 97.48 90.65 97.87 88.56 98.19 86.47 Z" />
<path fill="#76624f" opacity="1.00" d=" M 109.70 90.29 C 110.03 90.29 110.68 90.30 111.00 90.30 L 111.00 102.27 C 106.46 101.20 101.77 103.61 97.19 102.04 C 96.73 99.78 96.24 97.52 95.76 95.26 C 96.05 94.61 96.61 93.33 96.89 92.68 C 101.36 93.27 105.75 92.42 109.70 90.29 Z" />
<path fill="#e8b95d" opacity="1.00" d=" M 91.11 97.21 C 91.90 96.91 92.71 96.64 93.52 96.39 L 94.46 96.11 C 94.77 99.18 96.54 105.07 91.87 105.41 C 90.52 103.36 89.62 101.06 88.81 98.76 C 89.38 98.37 90.53 97.59 91.11 97.21 Z" />
<path fill="#f7e784" opacity="1.00" d=" M 68.66 96.81 C 69.69 99.46 70.90 102.33 70.22 105.22 C 69.28 103.34 68.16 101.56 67.01 99.81 C 67.56 98.81 68.11 97.80 68.66 96.81 Z" />
<path fill="#daa65b" opacity="1.00" d=" M 25.47 99.00 C 26.74 100.01 28.01 101.04 29.27 102.08 C 28.11 103.01 26.81 103.72 25.45 104.29 C 25.44 102.53 25.45 100.76 25.47 99.00 Z" />
<path fill="#a75c55" opacity="1.00" d=" M 63.65 102.23 C 64.77 101.42 65.90 100.62 67.01 99.81 C 68.16 101.56 69.28 103.34 70.22 105.22 L 70.63 106.06 C 67.87 105.75 65.47 104.27 63.65 102.23 Z" />
</svg>
