<?xml version="1.0" encoding="UTF-8" ?>
<!DOCTYPE svg PUBLIC "-//W3C//DTD SVG 1.1//EN" "http://www.w3.org/Graphics/SVG/1.1/DTD/svg11.dtd">
<svg width="111pt" height="111pt" viewBox="0 0 111 111" version="1.1" xmlns="http://www.w3.org/2000/svg">
<path fill="#000000" opacity="1.00" d=" M 60.63 0.00 L 61.87 0.00 C 61.61 3.05 61.36 6.11 61.13 9.17 C 66.98 5.87 73.29 3.20 79.98 2.27 C 82.03 1.94 84.37 1.91 85.68 0.00 L 86.61 0.00 L 86.12 1.52 C 95.95 0.31 105.77 5.23 111.00 13.56 L 111.00 18.37 C 109.75 16.04 108.31 13.82 106.67 11.75 C 104.07 8.78 100.80 6.36 97.01 5.17 C 88.19 2.29 78.43 4.12 69.98 7.44 C 59.69 11.87 50.54 19.15 44.12 28.36 C 42.62 30.42 41.21 32.56 39.91 34.76 C 43.55 32.97 46.92 30.36 51.06 29.85 C 55.71 29.30 60.81 29.51 64.81 32.23 C 68.45 34.56 70.55 38.53 71.95 42.50 C 74.04 40.48 76.15 38.46 78.58 36.85 C 76.96 39.49 74.58 41.50 72.20 43.41 C 72.49 44.58 72.80 45.73 73.06 46.91 C 73.51 50.02 73.26 53.17 72.75 56.26 C 72.19 58.76 71.23 61.15 70.22 63.50 C 72.81 65.11 72.27 68.69 73.22 71.25 C 77.71 69.60 81.78 67.04 86.17 65.15 C 88.06 64.27 89.91 63.31 91.71 62.25 C 94.40 60.65 96.83 58.67 99.13 56.57 C 101.76 54.43 104.24 52.10 106.43 49.51 C 108.18 47.30 109.67 44.90 111.00 42.41 L 111.00 47.94 C 109.89 48.63 108.55 49.64 108.76 51.13 C 109.32 51.30 110.44 51.63 111.00 51.79 L 111.00 53.47 C 109.73 53.20 108.46 52.94 107.19 52.71 C 104.17 56.12 100.48 58.83 97.06 61.82 C 99.69 61.41 102.38 60.24 105.05 60.76 C 106.35 66.38 107.29 72.29 111.00 76.96 L 111.00 79.70 C 110.32 78.60 109.63 77.50 108.95 76.40 C 108.19 75.11 107.49 73.78 106.81 72.45 C 105.22 69.13 104.60 65.48 104.54 61.83 L 103.15 62.50 C 102.27 68.05 102.05 74.03 104.70 79.17 C 105.28 80.54 105.93 81.89 106.61 83.22 C 107.92 85.12 109.49 86.80 111.00 88.53 L 111.00 90.33 C 103.99 84.71 100.34 75.51 101.22 66.61 C 95.28 69.85 88.52 70.94 81.95 72.20 C 80.53 72.50 79.12 72.87 77.71 73.21 C 78.49 74.16 79.32 75.11 79.64 76.32 C 78.18 75.65 76.75 74.93 75.29 74.26 C 76.33 80.44 80.07 85.77 82.77 91.33 C 89.41 90.15 96.28 90.77 102.86 92.03 C 105.34 92.28 105.68 94.87 106.17 96.80 C 101.77 100.84 95.96 102.63 90.05 102.64 C 92.09 104.59 94.11 106.64 95.06 109.36 C 90.97 110.09 87.74 107.34 84.67 105.12 C 81.90 106.15 79.06 107.11 76.09 107.39 C 64.47 108.57 52.77 110.05 41.07 109.13 C 38.72 108.73 36.00 108.92 34.10 107.23 C 34.12 104.10 37.69 103.98 39.80 102.78 C 50.55 97.74 62.02 94.08 73.92 93.30 C 71.29 87.09 69.25 80.54 68.98 73.75 C 67.21 75.03 65.44 76.32 63.71 77.65 C 65.13 81.49 63.51 85.51 62.03 89.06 C 60.54 91.91 58.18 95.02 54.66 95.14 C 56.47 89.63 58.93 84.34 60.06 78.61 C 58.41 78.50 56.77 78.40 55.13 78.31 C 56.60 86.40 51.29 94.86 43.53 97.38 C 44.82 93.65 47.59 90.69 49.19 87.10 C 47.33 87.38 45.46 87.65 43.60 87.93 C 43.61 89.86 43.63 91.79 43.65 93.73 C 41.37 94.94 39.04 96.08 36.67 97.11 C 36.33 99.39 36.42 101.73 35.94 103.99 C 27.39 106.90 18.05 108.41 9.11 106.68 C 9.11 106.30 9.13 105.56 9.13 105.18 C 12.39 104.06 15.77 103.21 18.78 101.45 C 17.56 100.93 16.43 100.26 15.40 99.44 C 19.40 98.44 23.46 97.59 27.29 96.02 C 25.76 95.13 23.19 95.20 22.82 93.04 C 23.66 93.08 25.35 93.17 26.19 93.22 C 26.42 93.38 26.88 93.70 27.12 93.87 C 27.95 94.56 28.79 95.24 29.60 95.97 C 26.11 97.23 22.75 98.89 19.05 99.50 C 19.72 99.84 21.04 100.51 21.71 100.85 L 20.68 101.55 C 18.25 103.37 15.45 104.53 12.67 105.70 C 16.06 105.72 19.44 105.55 22.81 105.22 C 26.08 104.94 29.24 104.02 32.41 103.20 C 32.98 103.05 34.12 102.75 34.69 102.61 C 34.61 100.64 34.54 98.67 34.46 96.71 C 37.03 95.73 39.50 94.49 41.75 92.90 C 41.76 90.88 41.79 88.85 41.81 86.83 C 40.85 87.09 39.89 87.36 38.94 87.65 C 36.28 88.44 33.64 89.32 31.01 90.20 C 31.78 90.56 33.31 91.30 34.08 91.67 C 33.58 91.82 32.59 92.13 32.09 92.28 C 30.74 92.71 29.36 93.06 27.97 93.32 C 24.80 91.81 21.62 90.27 18.76 88.22 C 15.42 97.56 8.18 104.72 0.00 110.00 L 0.00 108.06 C 6.35 103.32 12.51 97.74 15.95 90.45 C 15.34 90.46 14.13 90.48 13.52 90.49 C 12.35 92.33 11.19 94.18 9.81 95.87 C 7.61 96.21 3.12 94.19 4.15 98.68 C 5.48 98.46 6.74 97.90 8.08 97.79 C 7.33 99.14 6.33 100.35 5.03 101.20 C 3.85 99.78 4.04 97.82 3.91 96.10 C 5.20 94.76 6.29 93.25 7.36 91.74 C 7.46 92.87 7.70 93.97 8.09 95.03 C 9.94 94.70 10.32 92.41 11.39 91.14 C 10.68 91.23 9.26 91.40 8.55 91.48 C 9.64 89.27 12.20 89.31 14.26 88.81 C 13.92 88.34 13.24 87.41 12.90 86.94 C 12.79 86.37 12.58 85.24 12.48 84.68 C 13.34 84.63 15.06 84.54 15.92 84.50 C 15.90 84.10 15.87 83.31 15.85 82.91 C 15.30 83.05 14.20 83.34 13.65 83.48 C 8.97 86.71 3.35 88.92 0.00 93.75 L 0.00 91.70 C 4.50 87.16 10.11 83.89 15.82 81.12 C 15.51 80.40 14.89 78.96 14.57 78.24 C 15.75 76.76 16.90 75.25 18.10 73.78 C 18.29 73.70 18.66 73.54 18.85 73.46 C 19.37 73.07 20.42 72.30 20.95 71.92 C 21.22 69.46 21.75 67.05 22.28 64.64 C 23.51 65.35 24.73 66.08 25.95 66.81 C 26.61 64.26 27.30 61.66 28.86 59.49 C 29.56 58.54 30.28 57.60 31.01 56.66 C 31.18 53.05 31.55 49.43 32.50 45.93 C 31.55 43.64 30.58 41.31 30.41 38.82 C 31.26 40.27 32.04 41.76 32.80 43.26 C 35.22 39.78 37.95 36.44 39.54 32.47 C 43.75 23.21 51.23 15.90 59.55 10.27 C 59.75 6.83 60.07 3.40 60.63 0.00 M 50.78 31.63 C 46.51 32.42 43.04 35.18 39.34 37.26 C 39.17 38.00 38.83 39.50 38.66 40.24 C 38.53 40.05 38.27 39.67 38.14 39.47 C 37.36 39.82 36.59 40.16 35.82 40.51 C 34.47 45.67 32.57 50.78 32.04 56.18 C 35.51 54.73 39.23 53.84 43.00 53.80 C 48.67 54.27 55.12 56.77 56.91 62.74 C 58.37 61.66 59.89 60.64 61.65 60.13 C 60.77 62.13 59.11 63.50 57.20 64.45 C 57.89 67.34 57.85 70.32 57.24 73.22 C 60.51 69.99 65.54 68.65 67.45 64.16 C 70.33 58.60 72.45 52.09 70.72 45.84 C 70.33 45.78 69.55 45.67 69.16 45.62 C 69.43 45.21 69.98 44.39 70.26 43.98 C 69.74 42.24 69.21 40.50 68.65 38.77 C 66.50 39.82 66.30 42.70 64.37 44.08 L 64.63 44.44 C 61.41 46.99 58.24 49.62 54.61 51.57 C 54.54 51.27 54.42 50.65 54.35 50.35 C 59.66 47.01 64.90 43.02 67.32 37.01 C 65.96 35.26 64.22 33.90 62.33 32.77 C 58.71 31.19 54.64 31.01 50.78 31.63 M 36.49 56.69 C 33.81 58.86 32.79 62.34 31.29 65.32 C 30.14 66.29 28.54 65.64 29.20 64.00 C 29.56 63.87 30.27 63.59 30.63 63.46 C 30.54 63.13 30.36 62.49 30.27 62.17 C 30.33 61.39 30.40 60.61 30.47 59.83 C 28.84 62.87 27.64 66.06 26.50 69.32 C 31.59 68.07 37.46 67.66 41.83 71.05 C 42.60 69.92 43.41 68.82 44.51 67.99 C 43.94 69.15 43.34 70.28 42.71 71.41 C 43.23 72.13 43.76 72.85 44.28 73.57 C 45.68 73.81 47.08 74.06 48.47 74.34 C 49.66 75.45 50.71 76.69 51.52 78.11 C 53.89 76.75 54.62 73.95 55.36 71.52 C 55.51 69.61 55.56 67.70 55.55 65.79 L 54.89 65.27 C 54.88 61.50 52.16 58.31 48.67 57.15 C 47.86 58.19 47.00 59.19 46.11 60.17 L 46.16 60.27 C 44.25 62.06 42.94 64.34 41.25 66.32 C 40.03 67.91 37.79 65.71 38.41 64.21 C 39.25 60.89 41.77 58.41 43.75 55.74 C 41.32 55.97 38.85 56.05 36.49 56.69 M 44.69 56.59 C 42.50 59.23 39.37 61.88 39.58 65.63 C 42.56 64.10 43.50 60.18 46.27 58.16 C 48.09 57.18 45.74 55.30 44.69 56.59 M 82.96 69.79 C 86.92 68.87 91.01 68.05 94.79 66.63 C 95.95 66.69 96.94 66.37 97.76 65.67 C 99.32 65.44 100.78 64.91 102.03 63.90 C 95.09 62.34 88.89 66.91 82.96 69.79 M 23.37 66.92 C 22.85 68.17 22.29 69.39 21.69 70.60 C 22.41 71.03 23.14 71.46 23.86 71.88 C 20.62 73.05 18.60 75.96 16.15 78.20 C 16.07 82.20 18.29 85.95 21.54 88.19 C 23.89 89.67 26.54 90.53 29.20 91.27 C 29.52 90.84 30.15 89.98 30.47 89.55 C 33.64 88.61 36.62 87.07 39.84 86.30 C 42.95 86.59 47.47 87.13 48.92 83.56 L 49.17 84.22 C 49.13 83.31 49.07 81.49 49.04 80.57 C 48.52 80.93 47.49 81.64 46.98 81.99 C 47.25 81.05 47.52 80.10 47.79 79.16 C 47.26 78.93 46.19 78.46 45.65 78.22 C 46.20 77.66 47.31 76.55 47.86 75.99 C 45.58 75.41 43.61 74.14 41.37 73.51 C 39.95 70.57 36.33 69.84 33.38 69.83 L 33.69 70.83 C 29.52 73.27 25.99 78.63 20.54 77.11 C 21.19 74.65 23.21 72.88 25.07 71.28 C 24.47 70.86 23.88 70.44 23.29 70.02 L 24.99 69.59 C 24.48 68.68 23.94 67.79 23.37 66.92 M 58.91 74.86 C 57.82 75.36 56.06 75.14 55.99 76.71 C 61.34 75.81 68.37 73.54 69.44 67.43 C 65.72 69.60 62.94 73.18 58.91 74.86 M 71.31 70.27 C 70.54 77.47 72.44 84.69 75.50 91.16 C 77.96 97.50 83.47 102.10 89.35 105.17 C 84.77 99.51 81.00 93.24 77.93 86.64 C 75.11 81.44 73.01 75.92 71.31 70.27 M 49.20 78.18 C 49.75 78.76 49.75 78.76 49.20 78.18 M 61.47 78.18 C 60.76 83.04 59.11 87.68 57.16 92.17 C 61.82 89.43 62.27 83.04 62.61 78.16 C 62.33 78.16 61.76 78.18 61.47 78.18 M 51.54 80.32 C 51.95 85.08 49.24 89.16 47.41 93.32 C 51.73 90.61 53.42 85.25 53.82 80.41 C 53.25 80.39 52.11 80.34 51.54 80.32 M 14.12 86.24 C 14.99 87.16 15.87 88.07 16.76 88.98 C 17.05 88.15 17.34 87.32 17.63 86.48 C 16.56 85.64 15.39 85.56 14.12 86.24 Z" />
<path fill="#e4ca9a" opacity="1.00" d=" M 69.98 7.44 C 78.43 4.12 88.19 2.29 97.01 5.17 C 99.95 10.55 103.00 16.07 103.05 22.39 C 102.69 25.11 101.92 27.78 100.35 30.07 C 99.36 31.40 98.28 32.66 97.14 33.87 C 93.32 37.46 89.84 41.40 86.07 45.04 C 82.71 47.44 79.50 50.04 76.27 52.61 C 75.50 53.01 74.73 53.40 73.96 53.80 C 73.79 51.49 73.59 49.17 73.06 46.91 C 72.80 45.73 72.49 44.58 72.20 43.41 C 74.58 41.50 76.96 39.49 78.58 36.85 C 76.15 38.46 74.04 40.48 71.95 42.50 C 70.55 38.53 68.45 34.56 64.81 32.23 C 60.81 29.51 55.71 29.30 51.06 29.85 C 46.92 30.36 43.55 32.97 39.91 34.76 C 41.21 32.56 42.62 30.42 44.12 28.36 L 45.28 28.67 C 48.22 26.52 50.24 23.35 53.11 21.10 C 55.28 18.84 58.70 22.19 61.07 20.07 C 63.41 19.04 62.47 16.54 61.83 14.72 C 64.56 12.31 67.96 10.58 69.98 7.44 Z" />
<path fill="#8b646a" opacity="1.00" d=" M 97.01 5.17 C 100.80 6.36 104.07 8.78 106.67 11.75 C 105.99 15.46 104.69 19.00 103.05 22.39 C 103.00 16.07 99.95 10.55 97.01 5.17 Z" />
<path fill="#fffe9a" opacity="1.00" d=" M 44.12 28.36 C 50.54 19.15 59.69 11.87 69.98 7.44 C 67.96 10.58 64.56 12.31 61.83 14.72 C 62.47 16.54 63.41 19.04 61.07 20.07 C 58.70 22.19 55.28 18.84 53.11 21.10 C 50.24 23.35 48.22 26.52 45.28 28.67 L 44.12 28.36 Z" />
<path fill="#6d435b" opacity="1.00" d=" M 106.67 11.75 C 108.31 13.82 109.75 16.04 111.00 18.37 L 111.00 35.01 C 109.44 33.25 107.72 30.84 105.04 31.21 C 103.41 31.06 101.20 32.09 100.35 30.07 C 101.92 27.78 102.69 25.11 103.05 22.39 C 104.69 19.00 105.99 15.46 106.67 11.75 Z" />
<path fill="#774f61" opacity="1.00" d=" M 97.14 33.87 C 98.28 32.66 99.36 31.40 100.35 30.07 C 101.20 32.09 103.41 31.06 105.04 31.21 C 107.72 30.84 109.44 33.25 111.00 35.01 L 111.00 42.41 C 109.67 44.90 108.18 47.30 106.43 49.51 C 106.61 45.83 108.10 41.56 105.61 38.34 C 103.60 35.44 99.07 36.90 97.14 33.87 Z" />
<path fill="#524e5d" opacity="1.00" d=" M 50.78 31.63 C 54.64 31.01 58.71 31.19 62.33 32.77 C 59.94 39.34 56.01 45.10 51.62 50.48 C 47.02 46.97 41.11 47.42 35.92 49.17 C 36.70 46.60 37.51 44.05 38.32 41.49 C 38.40 41.18 38.57 40.55 38.66 40.24 C 38.83 39.50 39.17 38.00 39.34 37.26 C 43.04 35.18 46.51 32.42 50.78 31.63 M 48.29 39.30 C 47.61 40.43 47.31 43.15 48.74 43.64 C 49.41 42.51 49.74 39.75 48.29 39.30 Z" />
<path fill="#403749" opacity="1.00" d=" M 62.33 32.77 C 64.22 33.90 65.96 35.26 67.32 37.01 C 64.90 43.02 59.66 47.01 54.35 50.35 C 54.42 50.65 54.54 51.27 54.61 51.57 C 54.36 51.67 53.87 51.87 53.62 51.97 C 53.12 51.60 52.12 50.85 51.62 50.48 C 56.01 45.10 59.94 39.34 62.33 32.77 Z" />
<path fill="#825c67" opacity="1.00" d=" M 86.07 45.04 C 89.84 41.40 93.32 37.46 97.14 33.87 C 99.07 36.90 103.60 35.44 105.61 38.34 C 108.10 41.56 106.61 45.83 106.43 49.51 C 104.24 52.10 101.76 54.43 99.13 56.57 C 99.74 54.54 100.54 52.57 101.59 50.73 C 100.55 48.70 99.59 46.59 98.13 44.81 C 96.45 43.61 94.29 43.10 92.25 43.11 C 90.23 44.02 88.46 46.71 86.07 45.04 Z" />
<path fill="#e4cb9a" opacity="1.00" d=" M 35.82 40.51 C 36.59 40.16 37.36 39.82 38.14 39.47 C 38.27 39.67 38.53 40.05 38.66 40.24 C 38.57 40.55 38.40 41.18 38.32 41.49 C 36.88 41.40 36.55 43.07 36.06 44.07 C 35.11 46.28 34.69 48.66 34.77 51.06 C 38.39 50.17 42.09 48.64 45.89 49.45 C 48.04 50.25 49.98 51.51 52.10 52.39 L 53.62 51.97 C 53.87 51.87 54.36 51.67 54.61 51.57 C 58.24 49.62 61.41 46.99 64.63 44.44 C 65.02 47.29 64.74 50.18 64.43 53.03 C 63.95 55.55 63.16 58.03 61.65 60.13 C 59.89 60.64 58.37 61.66 56.91 62.74 C 55.12 56.77 48.67 54.27 43.00 53.80 C 39.23 53.84 35.51 54.73 32.04 56.18 C 32.57 50.78 34.47 45.67 35.82 40.51 Z" />
<path fill="#1f1d22" opacity="1.00" d=" M 48.29 39.30 C 49.74 39.75 49.41 42.51 48.74 43.64 C 47.31 43.15 47.61 40.43 48.29 39.30 Z" />
<path fill="#8c696e" opacity="1.00" d=" M 64.37 44.08 C 66.30 42.70 66.50 39.82 68.65 38.77 C 69.21 40.50 69.74 42.24 70.26 43.98 C 69.98 44.39 69.43 45.21 69.16 45.62 C 69.55 45.67 70.33 45.78 70.72 45.84 C 72.45 52.09 70.33 58.60 67.45 64.16 C 66.52 63.75 65.58 63.34 64.64 62.93 C 66.70 60.15 68.54 57.09 67.83 53.47 C 66.70 53.33 65.57 53.18 64.43 53.03 C 64.74 50.18 65.02 47.29 64.63 44.44 L 64.37 44.08 Z" />
<path fill="#000000" opacity="1.00" d=" M 36.06 44.07 C 36.55 43.07 36.88 41.40 38.32 41.49 C 37.51 44.05 36.70 46.60 35.92 49.17 C 41.11 47.42 47.02 46.97 51.62 50.48 C 52.12 50.85 53.12 51.60 53.62 51.97 L 52.10 52.39 C 49.98 51.51 48.04 50.25 45.89 49.45 C 42.09 48.64 38.39 50.17 34.77 51.06 C 34.69 48.66 35.11 46.28 36.06 44.07 Z" />
<path fill="#8c696e" opacity="1.00" d=" M 86.07 45.04 C 88.46 46.71 90.23 44.02 92.25 43.11 C 94.29 43.10 96.45 43.61 98.13 44.81 C 99.59 46.59 100.55 48.70 101.59 50.73 C 100.54 52.57 99.74 54.54 99.13 56.57 C 96.83 58.67 94.40 60.65 91.71 62.25 C 91.79 60.35 92.51 58.34 91.65 56.52 C 90.56 53.29 87.19 51.51 84.00 51.03 C 81.49 51.91 79.03 53.21 76.27 52.61 C 79.50 50.04 82.71 47.44 86.07 45.04 Z" />
<path fill="#987674" opacity="1.00" d=" M 73.06 46.91 C 73.59 49.17 73.79 51.49 73.96 53.80 C 74.73 53.40 75.50 53.01 76.27 52.61 C 79.03 53.21 81.49 51.91 84.00 51.03 C 87.19 51.51 90.56 53.29 91.65 56.52 C 92.51 58.34 91.79 60.35 91.71 62.25 C 89.91 63.31 88.06 64.27 86.17 65.15 C 85.53 63.69 84.89 62.23 84.25 60.78 C 80.46 59.15 76.52 57.92 72.75 56.26 C 73.26 53.17 73.51 50.02 73.06 46.91 Z" />
<path fill="#9d7e79" opacity="1.00" d=" M 61.65 60.13 C 63.16 58.03 63.95 55.55 64.43 53.03 C 65.57 53.18 66.70 53.33 67.83 53.47 C 68.54 57.09 66.70 60.15 64.64 62.93 C 65.58 63.34 66.52 63.75 67.45 64.16 C 65.54 68.65 60.51 69.99 57.24 73.22 C 57.85 70.32 57.89 67.34 57.20 64.45 C 59.11 63.50 60.77 62.13 61.65 60.13 Z" />
<path fill="#e4cb9a" opacity="1.00" d=" M 36.49 56.69 C 38.85 56.05 41.32 55.97 43.75 55.74 C 41.77 58.41 39.25 60.89 38.41 64.21 C 37.79 65.71 40.03 67.91 41.25 66.32 C 42.94 64.34 44.25 62.06 46.16 60.27 C 48.36 63.81 49.88 67.89 49.26 72.13 C 49.06 72.68 48.67 73.78 48.47 74.34 C 47.08 74.06 45.68 73.81 44.28 73.57 C 43.76 72.85 43.23 72.13 42.71 71.41 C 43.34 70.28 43.94 69.15 44.51 67.99 C 43.41 68.82 42.60 69.92 41.83 71.05 C 37.46 67.66 31.59 68.07 26.50 69.32 C 27.64 66.06 28.84 62.87 30.47 59.83 C 30.40 60.61 30.33 61.39 30.27 62.17 C 30.36 62.49 30.54 63.13 30.63 63.46 C 30.27 63.59 29.56 63.87 29.20 64.00 C 28.54 65.64 30.14 66.29 31.29 65.32 C 32.79 62.34 33.81 58.86 36.49 56.69 Z" />
<path fill="#423b4c" opacity="1.00" d=" M 44.69 56.59 C 45.74 55.30 48.09 57.18 46.27 58.16 C 43.50 60.18 42.56 64.10 39.58 65.63 C 39.37 61.88 42.50 59.23 44.69 56.59 Z" />
<path fill="#a7877d" opacity="1.00" d=" M 72.75 56.26 C 76.52 57.92 80.46 59.15 84.25 60.78 C 84.89 62.23 85.53 63.69 86.17 65.15 C 81.78 67.04 77.71 69.60 73.22 71.25 C 72.27 68.69 72.81 65.11 70.22 63.50 C 71.23 61.15 72.19 58.76 72.75 56.26 Z" />
<path fill="#000000" opacity="0.55" d=" M 26.83 56.87 C 27.48 57.76 28.20 58.60 28.86 59.49 C 27.30 61.66 26.61 64.26 25.95 66.81 C 24.73 66.08 23.51 65.35 22.28 64.64 C 22.03 62.94 21.69 61.26 21.43 59.56 C 22.45 60.56 23.00 61.84 23.32 63.21 C 24.01 61.88 24.88 60.68 26.02 59.70 C 26.22 58.99 26.63 57.58 26.83 56.87 Z" />
<path fill="#ae9084" opacity="1.00" d=" M 48.67 57.15 C 52.16 58.31 54.88 61.50 54.89 65.27 C 54.04 64.61 53.20 63.94 52.36 63.27 C 50.22 64.47 49.87 66.86 49.74 69.10 C 49.61 70.12 49.45 71.12 49.26 72.13 C 49.88 67.89 48.36 63.81 46.16 60.27 L 46.11 60.17 C 47.00 59.19 47.86 58.19 48.67 57.15 Z" />
<path fill="#997876" opacity="1.00" d=" M 49.74 69.10 C 49.87 66.86 50.22 64.47 52.36 63.27 C 53.20 63.94 54.04 64.61 54.89 65.27 L 55.55 65.79 C 55.56 67.70 55.51 69.61 55.36 71.52 C 53.43 70.84 51.55 70.05 49.74 69.10 Z" />
<path fill="#ceb9a2" opacity="1.00" d=" M 82.96 69.79 C 88.89 66.91 95.09 62.34 102.03 63.90 C 100.78 64.91 99.32 65.44 97.76 65.67 C 96.94 66.37 95.95 66.69 94.79 66.63 C 91.01 68.05 86.92 68.87 82.96 69.79 Z" />
<path fill="#6c495e" opacity="1.00" d=" M 103.15 62.50 L 104.54 61.83 C 104.60 65.48 105.22 69.13 106.81 72.45 C 105.35 74.40 104.57 76.72 104.70 79.17 C 102.05 74.03 102.27 68.05 103.15 62.50 Z" />
<path fill="#e4cb9a" opacity="1.00" d=" M 23.37 66.92 C 23.94 67.79 24.48 68.68 24.99 69.59 L 23.29 70.02 C 23.88 70.44 24.47 70.86 25.07 71.28 C 23.21 72.88 21.19 74.65 20.54 77.11 C 25.99 78.63 29.52 73.27 33.69 70.83 C 35.85 73.50 38.77 75.51 40.67 78.40 C 41.74 79.88 39.95 81.09 38.99 81.98 C 34.00 85.98 27.13 85.45 21.54 88.19 C 18.29 85.95 16.07 82.20 16.15 78.20 C 18.60 75.96 20.62 73.05 23.86 71.88 C 23.14 71.46 22.41 71.03 21.69 70.60 C 22.29 69.39 22.85 68.17 23.37 66.92 Z" />
<path fill="#f3eaba" opacity="1.00" d=" M 58.91 74.86 C 62.94 73.18 65.72 69.60 69.44 67.43 C 68.37 73.54 61.34 75.81 55.99 76.71 C 56.06 75.14 57.82 75.36 58.91 74.86 Z" />
<path fill="#836069" opacity="1.00" d=" M 49.74 69.10 C 51.55 70.05 53.43 70.84 55.36 71.52 C 54.62 73.95 53.89 76.75 51.52 78.11 C 50.71 76.69 49.66 75.45 48.47 74.34 C 48.67 73.78 49.06 72.68 49.26 72.13 C 49.45 71.12 49.61 70.12 49.74 69.10 Z" />
<path fill="#ab8d83" opacity="1.00" d=" M 33.38 69.83 C 36.33 69.84 39.95 70.57 41.37 73.51 C 43.61 74.14 45.58 75.41 47.86 75.99 C 47.31 76.55 46.20 77.66 45.65 78.22 C 44.05 79.89 43.10 82.03 42.54 84.26 C 44.65 84.07 46.62 83.29 48.47 82.32 L 48.92 83.56 C 47.47 87.13 42.95 86.59 39.84 86.30 C 36.62 87.07 33.64 88.61 30.47 89.55 C 30.15 89.98 29.52 90.84 29.20 91.27 C 26.54 90.53 23.89 89.67 21.54 88.19 C 27.13 85.45 34.00 85.98 38.99 81.98 C 39.95 81.09 41.74 79.88 40.67 78.40 C 38.77 75.51 35.85 73.50 33.69 70.83 L 33.38 69.83 Z" />
<path fill="#d6c6a4" opacity="1.00" d=" M 71.31 70.27 C 73.01 75.92 75.11 81.44 77.93 86.64 C 77.10 88.14 76.27 89.63 75.50 91.16 C 72.44 84.69 70.54 77.47 71.31 70.27 Z" />
<path fill="#000000" opacity="0.47" d=" M 77.71 73.21 C 79.12 72.87 80.53 72.50 81.95 72.20 C 82.41 73.02 82.86 73.85 83.32 74.68 C 82.15 75.26 80.99 75.85 79.81 76.39 C 79.77 76.38 79.68 76.34 79.64 76.32 C 79.32 75.11 78.49 74.16 77.71 73.21 Z" />
<path fill="#48482e" opacity="0.31" d=" M 18.37 73.44 L 18.85 73.46 C 18.66 73.54 18.29 73.70 18.10 73.78 L 18.37 73.44 Z" />
<path fill="#987d7c" opacity="1.00" d=" M 104.70 79.17 C 104.57 76.72 105.35 74.40 106.81 72.45 C 107.49 73.78 108.19 75.11 108.95 76.40 C 107.15 78.25 106.66 80.73 106.61 83.22 C 105.93 81.89 105.28 80.54 104.70 79.17 Z" />
<path fill="#c5b49c" opacity="1.00" d=" M 106.61 83.22 C 106.66 80.73 107.15 78.25 108.95 76.40 C 109.63 77.50 110.32 78.60 111.00 79.70 L 111.00 88.53 C 109.49 86.80 107.92 85.12 106.61 83.22 Z" />
<path fill="#3e3439" opacity="1.00" d=" M 42.54 84.26 C 43.10 82.03 44.05 79.89 45.65 78.22 C 46.19 78.46 47.26 78.93 47.79 79.16 C 47.52 80.10 47.25 81.05 46.98 81.99 C 47.49 81.64 48.52 80.93 49.04 80.57 C 49.07 81.49 49.13 83.31 49.17 84.22 L 48.92 83.56 L 48.47 82.32 C 46.62 83.29 44.65 84.07 42.54 84.26 Z" />
<path fill="#583f46" opacity="1.00" d=" M 49.20 78.18 C 49.75 78.76 49.75 78.76 49.20 78.18 Z" />
<path fill="#997876" opacity="1.00" d=" M 61.47 78.18 C 61.76 78.18 62.33 78.16 62.61 78.16 C 62.27 83.04 61.82 89.43 57.16 92.17 C 59.11 87.68 60.76 83.04 61.47 78.18 Z" />
<path fill="#8c696e" opacity="1.00" d=" M 51.54 80.32 C 52.11 80.34 53.25 80.39 53.82 80.41 C 53.42 85.25 51.73 90.61 47.41 93.32 C 49.24 89.16 51.95 85.08 51.54 80.32 Z" />
<path fill="#eec15d" opacity="1.00" d=" M 13.65 83.48 C 14.20 83.34 15.30 83.05 15.85 82.91 C 15.87 83.31 15.90 84.10 15.92 84.50 C 15.06 84.54 13.34 84.63 12.48 84.68 C 12.58 85.24 12.79 86.37 12.90 86.94 C 8.55 88.35 5.19 91.43 2.39 94.93 L 3.56 95.83 C 2.89 97.34 2.62 98.94 2.75 100.64 C 1.84 98.82 0.89 97.04 0.00 95.22 L 0.00 93.75 C 3.35 88.92 8.97 86.71 13.65 83.48 Z" />
<path fill="#ceb9a2" opacity="1.00" d=" M 14.12 86.24 C 15.39 85.56 16.56 85.64 17.63 86.48 C 17.34 87.32 17.05 88.15 16.76 88.98 C 15.87 88.07 14.99 87.16 14.12 86.24 Z" />
<path fill="#8e5d4e" opacity="1.00" d=" M 38.94 87.65 C 39.89 87.36 40.85 87.09 41.81 86.83 C 41.79 88.85 41.76 90.88 41.75 92.90 C 39.50 94.49 37.03 95.73 34.46 96.71 C 34.54 98.67 34.61 100.64 34.69 102.61 C 34.12 102.75 32.98 103.05 32.41 103.20 C 31.09 102.64 29.78 102.09 28.47 101.54 C 28.49 101.04 28.53 100.04 28.55 99.55 C 29.78 98.50 30.92 97.35 32.08 96.23 C 30.76 95.86 29.62 95.20 28.66 94.27 C 29.81 94.30 32.13 94.37 33.29 94.40 C 37.04 93.84 39.63 90.89 41.54 87.85 C 40.89 87.80 39.59 87.70 38.94 87.65 Z" />
<path fill="#f3eaba" opacity="1.00" d=" M 75.50 91.16 C 76.27 89.63 77.10 88.14 77.93 86.64 C 81.00 93.24 84.77 99.51 89.35 105.17 C 83.47 102.10 77.96 97.50 75.50 91.16 Z" />
<path fill="#794f48" opacity="1.00" d=" M 2.39 94.93 C 5.19 91.43 8.55 88.35 12.90 86.94 C 13.24 87.41 13.92 88.34 14.26 88.81 C 12.20 89.31 9.64 89.27 8.55 91.48 C 8.25 91.55 7.66 91.67 7.36 91.74 C 6.29 93.25 5.20 94.76 3.91 96.10 L 3.56 95.83 L 2.39 94.93 Z" />
<path fill="#d7aa59" opacity="1.00" d=" M 31.01 90.20 C 33.64 89.32 36.28 88.44 38.94 87.65 C 39.59 87.70 40.89 87.80 41.54 87.85 C 39.63 90.89 37.04 93.84 33.29 94.40 C 32.99 93.87 32.39 92.81 32.09 92.28 C 32.59 92.13 33.58 91.82 34.08 91.67 C 33.31 91.30 31.78 90.56 31.01 90.20 Z" />
<path fill="#f3eaba" opacity="1.00" d=" M 13.52 90.49 C 14.13 90.48 15.34 90.46 15.95 90.45 C 12.51 97.74 6.35 103.32 0.00 108.06 L 0.00 106.35 L 0.55 106.51 L 0.82 106.11 C 1.08 105.79 1.61 105.15 1.87 104.83 C 4.20 104.95 4.61 102.99 5.03 101.20 C 6.33 100.35 7.33 99.14 8.08 97.79 C 8.67 97.16 9.25 96.52 9.81 95.87 C 11.19 94.18 12.35 92.33 13.52 90.49 Z" />
<path fill="#f1e88b" opacity="1.00" d=" M 27.97 93.32 C 29.36 93.06 30.74 92.71 32.09 92.28 C 32.39 92.81 32.99 93.87 33.29 94.40 C 32.13 94.37 29.81 94.30 28.66 94.27 C 29.62 95.20 30.76 95.86 32.08 96.23 C 30.92 97.35 29.78 98.50 28.55 99.55 C 27.17 100.51 25.73 101.37 24.36 102.35 C 23.30 101.47 21.99 101.30 20.68 101.55 L 21.71 100.85 C 21.04 100.51 19.72 99.84 19.05 99.50 C 22.75 98.89 26.11 97.23 29.60 95.97 C 28.79 95.24 27.95 94.56 27.12 93.87 C 26.88 93.70 26.42 93.38 26.19 93.22 C 26.63 93.24 27.53 93.30 27.97 93.32 Z" />
<path fill="#241b12" opacity="0.92" d=" M 0.00 95.22 C 0.89 97.04 1.84 98.82 2.75 100.64 C 2.62 98.94 2.89 97.34 3.56 95.83 L 3.91 96.10 C 4.04 97.82 3.85 99.78 5.03 101.20 C 4.61 102.99 4.20 104.95 1.87 104.83 C 3.04 102.34 1.06 100.28 0.00 98.22 L 0.00 95.22 Z" />
<path fill="#000000" opacity="0.14" d=" M 0.00 98.22 C 1.06 100.28 3.04 102.34 1.87 104.83 C 1.61 105.15 1.08 105.79 0.82 106.11 L 0.00 105.81 L 0.00 98.22 Z" />
<path fill="#a77150" opacity="1.00" d=" M 24.36 102.35 C 25.73 101.37 27.17 100.51 28.55 99.55 C 28.53 100.04 28.49 101.04 28.47 101.54 C 29.78 102.09 31.09 102.64 32.41 103.20 C 29.24 104.02 26.08 104.94 22.81 105.22 C 22.65 104.99 22.32 104.53 22.15 104.30 C 22.70 103.82 23.81 102.84 24.36 102.35 Z" />
<path fill="#f4c961" opacity="1.00" d=" M 12.67 105.70 C 15.45 104.53 18.25 103.37 20.68 101.55 C 21.99 101.30 23.30 101.47 24.36 102.35 C 23.81 102.84 22.70 103.82 22.15 104.30 C 22.32 104.53 22.65 104.99 22.81 105.22 C 19.44 105.55 16.06 105.72 12.67 105.70 Z" />
<path fill="#000000" opacity="0.63" d=" M 0.00 105.81 L 0.82 106.11 L 0.55 106.51 L 0.00 106.35 L 0.00 105.81 Z" />
</svg>
