<?xml version="1.0" encoding="UTF-8" ?>
<!DOCTYPE svg PUBLIC "-//W3C//DTD SVG 1.1//EN" "http://www.w3.org/Graphics/SVG/1.1/DTD/svg11.dtd">
<svg width="111pt" height="111pt" viewBox="0 0 111 111" version="1.1" xmlns="http://www.w3.org/2000/svg">
<path fill="#000000" opacity="1.00" d=" M 73.87 18.69 C 76.15 15.15 78.10 11.40 80.56 7.97 C 84.37 14.19 84.87 21.91 83.38 28.93 C 86.95 25.94 90.35 22.73 94.07 19.92 C 94.96 19.21 96.61 18.43 97.37 19.77 C 97.64 24.84 98.51 29.95 97.77 35.03 C 96.98 45.28 92.23 54.90 86.04 62.96 C 86.48 64.18 86.92 65.40 87.36 66.62 C 90.07 65.20 91.40 62.20 94.12 60.81 C 94.94 62.27 96.43 63.84 95.49 65.63 C 93.68 71.02 92.07 76.51 91.52 82.20 C 94.66 85.48 98.11 88.46 101.73 91.19 C 103.67 92.72 106.21 93.74 107.23 96.16 C 101.26 97.58 95.69 94.01 91.01 90.75 C 87.05 88.09 86.08 83.00 85.60 78.58 C 81.83 80.33 77.98 81.88 74.05 83.25 C 73.25 87.45 69.60 91.53 65.20 91.78 C 63.10 89.89 66.87 87.29 67.55 85.33 C 63.11 86.36 58.71 87.65 54.15 88.01 C 56.74 91.32 59.51 94.59 63.10 96.85 C 65.30 98.51 68.21 99.50 69.45 102.16 C 64.75 103.20 59.96 101.45 55.90 99.18 C 51.87 97.01 50.79 92.30 49.03 88.45 C 48.48 88.33 47.37 88.07 46.82 87.95 C 45.97 91.69 41.81 95.35 37.96 94.14 C 38.57 90.91 41.24 88.54 42.43 85.51 C 38.45 85.98 35.73 89.54 32.01 90.86 C 30.25 89.34 28.52 87.78 26.79 86.23 C 25.43 88.36 28.23 90.79 26.82 92.91 C 24.00 98.02 18.90 102.15 13.00 102.86 C 11.76 102.86 10.06 102.73 10.18 101.09 C 14.57 98.58 18.32 95.16 20.89 90.77 C 18.73 87.86 13.86 86.41 14.08 82.27 C 17.23 81.88 20.51 81.10 23.58 82.36 C 22.53 80.43 20.98 78.40 21.72 76.07 C 18.50 72.98 15.85 69.38 13.65 65.52 C 9.60 58.54 5.17 51.46 3.87 43.36 C 5.74 42.79 6.68 44.80 7.91 45.74 C 6.43 38.57 6.31 31.09 7.88 23.92 C 8.11 22.34 9.22 21.13 10.10 19.87 C 11.47 21.28 11.85 23.17 12.05 25.05 C 13.24 34.44 15.98 43.67 20.20 52.12 C 20.75 49.34 21.01 46.36 22.91 44.08 C 24.38 45.29 24.60 47.24 25.06 48.95 C 26.42 54.97 28.02 60.93 29.07 67.01 C 30.57 63.71 32.22 60.38 34.90 57.86 C 40.58 52.38 47.12 47.84 53.97 43.94 C 55.60 42.97 56.75 41.42 57.97 40.00 C 63.58 33.13 69.20 26.24 73.87 18.69 M 68.18 32.18 C 61.99 41.08 53.05 47.72 47.64 57.21 C 42.92 62.60 38.65 68.47 33.42 73.42 C 32.32 74.67 30.61 74.80 29.14 75.33 C 27.48 69.55 26.65 63.56 24.86 57.82 C 24.42 54.49 23.98 51.08 22.71 47.94 C 22.05 53.55 22.34 59.45 24.33 64.78 C 24.77 69.61 27.49 73.94 28.08 78.76 C 27.68 78.56 26.86 78.17 26.45 77.98 C 24.75 74.71 23.23 71.31 20.66 68.59 L 20.83 68.20 C 16.50 61.28 12.06 54.36 6.94 48.00 C 9.39 56.50 14.90 63.69 19.62 71.05 C 21.73 73.75 24.05 76.30 25.81 79.27 L 24.17 79.30 C 25.29 80.67 26.29 82.13 27.15 83.68 C 27.76 82.67 28.24 81.59 28.66 80.49 C 28.96 80.03 29.56 79.09 29.86 78.62 C 29.93 78.50 30.09 78.27 30.16 78.15 L 29.77 77.21 C 34.07 75.68 38.14 73.34 42.49 71.84 C 46.22 66.52 49.76 61.00 54.20 56.22 C 58.07 52.99 60.99 48.83 64.21 44.98 C 66.18 43.50 68.00 41.80 69.68 39.98 C 73.68 37.77 76.62 34.14 80.28 31.44 C 80.48 28.84 80.67 26.24 80.79 23.63 C 81.93 19.18 80.87 14.41 80.34 9.90 C 77.27 17.81 73.24 25.35 68.18 32.18 M 85.52 31.46 C 76.79 38.40 68.76 46.11 60.69 53.78 L 61.58 53.80 L 60.74 54.18 C 57.89 56.74 55.24 59.55 53.02 62.68 C 50.21 65.48 47.61 68.48 44.93 71.41 C 47.23 70.63 49.52 69.87 51.80 69.07 C 51.50 70.70 50.81 72.19 49.72 73.52 C 48.67 74.26 48.10 75.36 48.02 76.82 C 51.26 76.41 54.50 75.26 57.79 75.91 C 57.63 77.55 57.47 79.19 57.32 80.83 C 66.87 76.65 76.55 71.22 82.75 62.61 C 89.70 54.49 95.02 44.11 95.18 33.26 C 95.84 29.41 95.37 25.47 95.65 21.58 C 92.88 25.46 89.14 28.43 85.52 31.46 M 9.98 25.94 C 8.99 33.56 8.87 41.50 11.02 48.93 C 13.04 53.06 16.13 56.60 19.03 60.14 C 19.77 61.43 20.56 62.70 21.48 63.87 C 20.62 61.68 20.62 59.33 20.37 57.03 C 15.33 47.28 11.38 36.89 9.98 25.94 M 41.88 56.30 L 41.70 56.84 C 37.66 59.67 34.08 63.27 32.10 67.85 C 30.98 69.46 30.17 71.27 29.89 73.22 C 32.22 72.22 33.43 69.88 35.01 68.04 C 38.93 62.97 43.19 58.17 46.87 52.92 C 45.10 53.89 43.43 55.02 41.88 56.30 M 87.23 75.07 C 89.44 71.59 92.49 68.47 93.20 64.26 C 90.34 67.27 87.34 70.68 87.23 75.07 M 74.27 74.27 C 68.73 77.93 63.01 81.91 56.21 82.59 C 56.00 83.31 55.57 84.75 55.35 85.48 C 61.35 84.55 67.07 82.48 72.93 81.01 C 75.38 80.29 78.07 79.76 79.98 77.93 C 81.53 74.98 82.68 71.81 84.59 69.05 C 84.45 68.16 84.17 66.40 84.03 65.52 C 80.74 68.40 77.94 71.84 74.27 74.27 M 41.36 75.62 C 37.77 76.55 34.28 77.84 30.62 78.48 C 31.46 79.82 33.44 81.07 32.87 82.92 C 32.40 84.54 30.53 84.99 29.33 85.94 C 29.94 86.34 31.18 87.15 31.80 87.55 C 32.13 87.75 32.80 88.13 33.14 88.33 C 36.30 86.98 39.27 85.03 41.63 82.52 C 43.65 79.81 45.19 76.78 47.10 73.99 C 45.22 74.50 42.99 74.59 41.36 75.62 M 88.69 82.26 C 89.14 80.17 89.42 78.06 89.61 75.94 C 86.96 76.93 87.01 80.38 88.69 82.26 M 51.12 80.98 L 50.87 80.27 C 50.40 82.45 50.42 85.52 53.06 86.27 C 53.62 84.05 54.02 81.80 54.27 79.52 C 54.53 79.20 55.04 78.54 55.30 78.21 C 53.59 78.27 50.62 78.51 51.12 80.98 M 29.43 81.03 C 28.95 82.72 29.50 83.40 31.08 83.05 C 31.55 81.38 31.00 80.71 29.43 81.03 M 16.90 84.19 C 19.17 87.00 22.74 88.61 24.16 92.11 C 23.68 92.29 22.72 92.66 22.23 92.84 C 20.26 95.92 17.35 98.14 14.76 100.65 C 19.50 99.00 23.32 94.97 25.12 90.35 C 22.92 87.67 20.47 84.91 16.90 84.19 M 66.74 89.73 C 68.72 88.14 71.34 86.48 71.47 83.65 C 68.28 84.02 67.45 87.12 66.74 89.73 M 91.81 85.11 C 91.72 85.74 91.54 86.99 91.45 87.62 C 94.19 89.61 96.99 91.54 100.07 92.96 C 97.53 90.13 94.53 87.76 91.81 85.11 M 43.32 86.86 C 42.41 87.83 41.89 89.47 42.37 90.74 C 44.25 91.06 46.05 86.17 43.32 86.86 M 53.06 89.85 C 52.82 96.41 59.72 99.22 64.97 100.72 C 60.43 97.72 56.60 93.94 53.06 89.85 Z" />
<path fill="#f5ee94" opacity="1.00" d=" M 68.18 32.18 C 73.24 25.35 77.27 17.81 80.34 9.90 C 80.87 14.41 81.93 19.18 80.79 23.63 C 77.28 29.21 73.58 34.68 69.68 39.98 C 68.00 41.80 66.18 43.50 64.21 44.98 C 58.47 48.77 53.53 53.65 47.64 57.21 C 53.05 47.72 61.99 41.08 68.18 32.18 Z" />
<path fill="#d37292" opacity="1.00" d=" M 85.52 31.46 C 89.14 28.43 92.88 25.46 95.65 21.58 C 95.37 25.47 95.84 29.41 95.18 33.26 C 91.04 39.74 86.53 46.01 81.20 51.58 C 73.68 58.88 64.74 64.40 55.86 69.86 C 53.83 71.11 51.77 72.32 49.72 73.52 C 50.81 72.19 51.50 70.70 51.80 69.07 C 49.52 69.87 47.23 70.63 44.93 71.41 C 47.61 68.48 50.21 65.48 53.02 62.68 C 51.78 64.64 50.49 66.58 49.47 68.66 C 49.60 68.78 49.85 69.00 49.98 69.11 C 50.91 68.37 51.71 67.47 52.56 66.64 C 55.19 62.43 59.01 58.91 60.74 54.18 L 61.58 53.80 L 60.69 53.78 C 68.76 46.11 76.79 38.40 85.52 31.46 Z" />
<path fill="#a35d66" opacity="1.00" d=" M 69.68 39.98 C 73.58 34.68 77.28 29.21 80.79 23.63 C 80.67 26.24 80.48 28.84 80.28 31.44 C 76.62 34.14 73.68 37.77 69.68 39.98 Z" />
<path fill="#fbf697" opacity="1.00" d=" M 9.98 25.94 C 11.38 36.89 15.33 47.28 20.37 57.03 C 20.62 59.33 20.62 61.68 21.48 63.87 C 20.56 62.70 19.77 61.43 19.03 60.14 C 16.13 56.60 13.04 53.06 11.02 48.93 C 8.87 41.50 8.99 33.56 9.98 25.94 Z" />
<path fill="#5c316c" opacity="1.00" d=" M 81.20 51.58 C 86.53 46.01 91.04 39.74 95.18 33.26 C 95.02 44.11 89.70 54.49 82.75 62.61 C 82.95 61.40 83.08 60.18 83.20 58.96 C 81.58 56.82 81.25 54.18 81.20 51.58 Z" />
<path fill="#b2816f" opacity="1.00" d=" M 47.64 57.21 C 53.53 53.65 58.47 48.77 64.21 44.98 C 60.99 48.83 58.07 52.99 54.20 56.22 C 49.76 61.00 46.22 66.52 42.49 71.84 C 38.14 73.34 34.07 75.68 29.77 77.21 C 29.61 76.74 29.30 75.80 29.14 75.33 C 30.61 74.80 32.32 74.67 33.42 73.42 C 38.65 68.47 42.92 62.60 47.64 57.21 Z" />
<path fill="#d37292" opacity="1.00" d=" M 6.94 48.00 C 12.06 54.36 16.50 61.28 20.83 68.20 L 20.66 68.59 C 20.40 69.21 19.88 70.43 19.62 71.05 C 14.90 63.69 9.39 56.50 6.94 48.00 Z" />
<path fill="#ffffa8" opacity="1.00" d=" M 22.71 47.94 C 23.98 51.08 24.42 54.49 24.86 57.82 C 24.82 60.15 24.56 62.46 24.33 64.78 C 22.34 59.45 22.05 53.55 22.71 47.94 Z" />
<path fill="#492c64" opacity="1.00" d=" M 55.86 69.86 C 64.74 64.40 73.68 58.88 81.20 51.58 C 81.25 54.18 81.58 56.82 83.20 58.96 C 83.08 60.18 82.95 61.40 82.75 62.61 C 76.55 71.22 66.87 76.65 57.32 80.83 C 57.47 79.19 57.63 77.55 57.79 75.91 C 54.50 75.26 51.26 76.41 48.02 76.82 C 48.10 75.36 48.67 74.26 49.72 73.52 C 51.77 72.32 53.83 71.11 55.86 69.86 Z" />
<path fill="#7a538d" opacity="1.00" d=" M 41.88 56.30 C 43.43 55.02 45.10 53.89 46.87 52.92 C 43.19 58.17 38.93 62.97 35.01 68.04 C 33.43 69.88 32.22 72.22 29.89 73.22 C 30.17 71.27 30.98 69.46 32.10 67.85 C 34.58 67.30 35.73 64.85 37.37 63.17 C 38.97 61.19 41.15 59.46 41.70 56.84 L 41.88 56.30 Z" />
<path fill="#fbf697" opacity="1.00" d=" M 53.02 62.68 C 55.24 59.55 57.89 56.74 60.74 54.18 C 59.01 58.91 55.19 62.43 52.56 66.64 C 51.71 67.47 50.91 68.37 49.98 69.11 C 49.85 69.00 49.60 68.78 49.47 68.66 C 50.49 66.58 51.78 64.64 53.02 62.68 Z" />
<path fill="#ffffa8" opacity="1.00" d=" M 32.10 67.85 C 34.08 63.27 37.66 59.67 41.70 56.84 C 41.15 59.46 38.97 61.19 37.37 63.17 C 35.73 64.85 34.58 67.30 32.10 67.85 Z" />
<path fill="#d37292" opacity="1.00" d=" M 24.86 57.82 C 26.65 63.56 27.48 69.55 29.14 75.33 C 29.30 75.80 29.61 76.74 29.77 77.21 L 30.16 78.15 C 30.09 78.27 29.93 78.50 29.86 78.62 C 29.56 79.09 28.96 80.03 28.66 80.49 C 28.24 81.59 27.76 82.67 27.15 83.68 C 26.29 82.13 25.29 80.67 24.17 79.30 L 25.81 79.27 C 26.30 79.25 27.28 79.21 27.77 79.19 L 28.08 78.76 C 27.49 73.94 24.77 69.61 24.33 64.78 C 24.56 62.46 24.82 60.15 24.86 57.82 Z" />
<path fill="#cc6d90" opacity="1.00" d=" M 87.23 75.07 C 87.34 70.68 90.34 67.27 93.20 64.26 C 92.49 68.47 89.44 71.59 87.23 75.07 Z" />
<path fill="#272457" opacity="1.00" d=" M 74.27 74.27 C 77.94 71.84 80.74 68.40 84.03 65.52 C 84.17 66.40 84.45 68.16 84.59 69.05 C 82.68 71.81 81.53 74.98 79.98 77.93 C 78.07 79.76 75.38 80.29 72.93 81.01 C 67.07 82.48 61.35 84.55 55.35 85.48 C 55.57 84.75 56.00 83.31 56.21 82.59 C 63.01 81.91 68.73 77.93 74.27 74.27 Z" />
<path fill="#5c316c" opacity="1.00" d=" M 20.66 68.59 C 23.23 71.31 24.75 74.71 26.45 77.98 C 26.86 78.17 27.68 78.56 28.08 78.76 L 27.77 79.19 C 27.28 79.21 26.30 79.25 25.81 79.27 C 24.05 76.30 21.73 73.75 19.62 71.05 C 19.88 70.43 20.40 69.21 20.66 68.59 Z" />
<path fill="#6a3374" opacity="1.00" d=" M 41.36 75.62 C 42.99 74.59 45.22 74.50 47.10 73.99 C 45.19 76.78 43.65 79.81 41.63 82.52 C 39.27 85.03 36.30 86.98 33.14 88.33 C 32.80 88.13 32.13 87.75 31.80 87.55 C 36.09 84.56 39.83 80.75 41.36 75.62 Z" />
<path fill="#cc6d90" opacity="1.00" d=" M 30.62 78.48 C 34.28 77.84 37.77 76.55 41.36 75.62 C 39.83 80.75 36.09 84.56 31.80 87.55 C 31.18 87.15 29.94 86.34 29.33 85.94 C 30.53 84.99 32.40 84.54 32.87 82.92 C 33.44 81.07 31.46 79.82 30.62 78.48 Z" />
<path fill="#6a3374" opacity="1.00" d=" M 88.69 82.26 C 87.01 80.38 86.96 76.93 89.61 75.94 C 89.42 78.06 89.14 80.17 88.69 82.26 Z" />
<path fill="#fefba2" opacity="1.00" d=" M 29.86 78.62 C 29.93 78.50 30.09 78.27 30.16 78.15 C 30.09 78.27 29.93 78.50 29.86 78.62 Z" />
<path fill="#ffffa8" opacity="1.00" d=" M 51.12 80.98 C 50.62 78.51 53.59 78.27 55.30 78.21 C 55.04 78.54 54.53 79.20 54.27 79.52 C 53.62 80.31 52.34 81.88 51.69 82.66 C 51.55 82.24 51.26 81.40 51.12 80.98 Z" />
<path fill="#a35d66" opacity="1.00" d=" M 51.69 82.66 C 52.34 81.88 53.62 80.31 54.27 79.52 C 54.02 81.80 53.62 84.05 53.06 86.27 C 50.42 85.52 50.40 82.45 50.87 80.27 L 51.12 80.98 C 51.26 81.40 51.55 82.24 51.69 82.66 Z" />
<path fill="#f3f49b" opacity="1.00" d=" M 29.43 81.03 C 31.00 80.71 31.55 81.38 31.08 83.05 C 29.50 83.40 28.95 82.72 29.43 81.03 Z" />
<path fill="#cc6d90" opacity="1.00" d=" M 16.90 84.19 C 20.47 84.91 22.92 87.67 25.12 90.35 C 23.32 94.97 19.50 99.00 14.76 100.65 C 17.35 98.14 20.26 95.92 22.23 92.84 C 22.72 92.66 23.68 92.29 24.16 92.11 C 22.74 88.61 19.17 87.00 16.90 84.19 Z" />
<path fill="#612e5c" opacity="1.00" d=" M 66.74 89.73 C 67.45 87.12 68.28 84.02 71.47 83.65 C 71.34 86.48 68.72 88.14 66.74 89.73 Z" />
<path fill="#d37292" opacity="1.00" d=" M 91.81 85.11 C 94.53 87.76 97.53 90.13 100.07 92.96 C 96.99 91.54 94.19 89.61 91.45 87.62 C 91.54 86.99 91.72 85.74 91.81 85.11 Z" />
<path fill="#d37292" opacity="1.00" d=" M 43.32 86.86 C 46.05 86.17 44.25 91.06 42.37 90.74 C 41.89 89.47 42.41 87.83 43.32 86.86 Z" />
<path fill="#d37292" opacity="1.00" d=" M 53.06 89.85 C 56.60 93.94 60.43 97.72 64.97 100.72 C 59.72 99.22 52.82 96.41 53.06 89.85 Z" />
</svg>
