<?xml version="1.0" encoding="UTF-8" ?>
<!DOCTYPE svg PUBLIC "-//W3C//DTD SVG 1.1//EN" "http://www.w3.org/Graphics/SVG/1.1/DTD/svg11.dtd">
<svg width="111pt" height="111pt" viewBox="0 0 111 111" version="1.1" xmlns="http://www.w3.org/2000/svg">
<path fill="#6a8987" opacity="1.00" d=" M 0.00 0.00 L 17.87 0.00 C 17.67 2.46 17.51 4.93 17.24 7.38 C 13.83 13.08 11.04 19.17 9.54 25.66 C 7.95 26.25 6.37 26.85 4.78 27.44 C 3.28 24.23 1.55 21.13 0.00 17.95 L 0.00 0.00 Z" />
<path fill="#4a6e7f" opacity="1.00" d=" M 17.87 0.00 L 22.27 0.00 C 20.50 2.40 18.85 4.88 17.24 7.38 C 17.51 4.93 17.67 2.46 17.87 0.00 Z" />
<path fill="#000000" opacity="1.00" d=" M 22.27 0.00 L 27.07 0.00 C 24.86 0.22 23.97 2.38 22.79 3.90 C 17.45 11.75 12.17 20.36 11.72 30.10 C 10.69 39.22 13.11 48.21 16.63 56.53 C 18.24 58.79 21.23 59.35 23.61 60.48 C 21.19 58.36 18.72 56.30 16.24 54.25 C 18.19 42.91 26.33 33.03 37.07 28.96 C 39.45 28.17 42.00 28.33 44.47 28.19 C 41.36 21.29 38.27 14.30 33.82 8.13 C 31.90 5.55 30.08 2.89 28.65 0.00 L 28.80 0.00 C 33.49 2.10 35.28 7.52 38.18 11.44 C 41.88 17.40 44.14 24.06 47.40 30.24 C 47.68 21.81 44.11 13.99 41.55 6.14 C 40.55 4.02 39.42 1.96 38.13 0.00 L 40.84 0.00 C 42.38 2.66 43.55 5.52 44.51 8.43 C 46.82 15.65 49.61 22.94 49.24 30.64 C 51.37 30.25 53.54 30.02 55.71 30.21 C 62.47 31.16 69.97 33.48 73.25 40.06 C 74.70 42.81 75.36 45.87 75.77 48.93 C 77.63 48.90 79.49 48.88 81.36 48.85 C 81.91 46.73 82.45 44.55 83.70 42.71 C 86.37 38.78 87.26 33.88 90.39 30.22 C 92.53 28.25 94.66 26.28 96.78 24.28 C 101.38 21.74 106.14 19.51 111.00 17.49 L 111.00 20.31 C 102.78 23.55 94.81 28.33 89.81 35.81 C 88.92 37.11 88.54 38.67 88.33 40.20 C 90.18 44.72 91.88 49.49 95.02 53.30 C 97.60 53.24 100.11 52.60 102.62 52.04 C 102.94 48.79 102.93 45.36 104.45 42.38 C 105.67 40.16 107.71 38.57 109.55 36.88 C 109.23 34.87 108.88 32.87 108.63 30.85 C 108.92 28.65 110.06 26.72 111.00 24.76 L 111.00 29.85 C 108.98 31.04 109.20 33.69 111.00 34.97 L 111.00 37.29 C 109.17 39.02 107.16 40.64 105.87 42.84 C 104.35 45.50 104.66 48.70 104.56 51.64 C 106.77 50.96 108.88 50.03 111.00 49.13 L 111.00 53.06 C 109.72 55.99 109.97 59.22 109.37 62.29 C 108.61 65.49 106.14 67.77 103.71 69.79 C 104.80 74.43 103.03 78.89 99.57 82.00 C 99.55 82.81 99.53 84.42 99.52 85.22 C 103.15 83.20 107.02 81.67 111.00 80.48 L 111.00 82.10 C 105.24 84.36 98.37 85.84 94.63 91.22 C 96.61 91.26 98.84 92.08 100.60 90.77 C 104.27 88.59 107.76 86.08 111.00 83.30 L 111.00 86.78 C 108.71 88.60 106.22 90.15 103.76 91.74 C 102.09 97.42 101.09 103.33 101.58 109.27 L 102.61 108.27 C 105.86 105.68 108.64 102.55 111.00 99.14 L 111.00 102.27 C 109.92 103.63 108.75 104.92 107.58 106.20 C 108.76 107.65 109.93 109.12 111.00 110.66 L 111.00 111.00 L 108.68 111.00 C 107.72 109.90 107.00 108.62 106.21 107.40 C 104.72 108.65 103.22 109.90 101.61 111.00 L 99.67 111.00 C 98.46 105.15 99.29 99.12 100.93 93.45 C 98.78 93.67 96.62 93.53 94.48 93.28 C 92.73 94.51 91.08 96.11 88.90 96.51 C 85.64 97.30 82.30 96.15 79.05 96.64 C 76.44 98.12 74.19 100.13 71.72 101.81 C 73.26 101.77 74.80 101.74 76.34 101.72 C 77.92 104.59 77.48 107.87 77.27 111.00 L 75.78 111.00 C 75.74 108.72 75.79 106.42 75.47 104.16 C 72.32 102.16 69.14 108.51 66.20 105.41 C 65.81 105.79 65.42 106.17 65.04 106.56 C 63.06 108.23 60.90 109.65 58.68 110.98 C 62.63 105.24 68.52 101.22 74.28 97.47 C 72.38 96.66 70.49 95.83 68.57 95.08 C 64.49 99.90 58.90 104.30 58.11 111.00 L 56.32 111.00 C 57.41 104.15 62.30 98.77 67.37 94.42 C 64.58 92.05 62.32 89.12 61.13 85.63 C 64.97 84.58 68.84 85.77 72.28 87.47 C 72.27 86.63 72.24 84.96 72.22 84.13 C 73.36 82.57 75.81 83.36 77.51 83.03 C 77.28 79.52 77.46 75.97 78.82 72.68 C 77.99 71.95 77.15 71.23 76.31 70.51 C 67.34 73.35 57.58 73.60 48.46 71.28 C 46.04 70.68 43.91 69.37 41.85 68.02 C 38.64 69.18 35.36 70.17 32.00 70.78 C 32.90 69.19 33.84 67.62 34.79 66.06 C 34.05 65.93 32.57 65.67 31.83 65.53 C 30.63 67.38 28.69 68.57 27.59 70.49 C 27.12 70.68 26.18 71.06 25.71 71.25 C 22.22 85.97 14.37 99.35 4.89 111.00 L 1.88 111.00 C 6.23 106.16 9.89 100.74 13.24 95.17 C 17.98 87.27 21.75 78.74 23.84 69.75 C 24.26 67.81 24.14 65.80 24.11 63.83 C 19.07 64.45 19.75 70.68 16.30 73.31 C 11.29 77.95 4.28 79.96 0.00 85.54 L 0.00 82.10 C 1.45 80.94 2.97 79.88 4.48 78.81 C 2.82 76.29 3.71 73.50 5.00 71.05 C 3.31 70.54 1.64 70.00 0.00 69.34 L 0.00 67.55 C 1.37 68.04 2.76 68.50 4.14 68.96 C 4.53 69.43 5.32 70.35 5.72 70.82 C 8.17 68.17 10.65 65.55 13.27 63.07 C 10.97 61.07 8.63 59.09 6.45 56.95 C 4.87 55.36 3.30 53.77 1.76 52.13 C 1.16 51.41 0.57 50.67 -0.00 49.92 L 0.00 46.76 C 1.18 48.32 2.43 49.82 3.64 51.35 C 3.61 48.60 3.82 45.65 6.41 44.06 C 7.81 44.26 9.21 44.43 10.62 44.56 C 9.45 39.15 9.28 33.62 9.36 28.11 C 5.32 29.20 2.11 31.97 0.00 35.52 L 0.00 31.43 C 1.11 30.19 2.27 29.01 3.43 27.83 C 2.28 25.61 1.09 23.39 0.00 21.14 L 0.00 17.95 C 1.55 21.13 3.28 24.23 4.78 27.44 C 6.37 26.85 7.95 26.25 9.54 25.66 C 11.04 19.17 13.83 13.08 17.24 7.38 C 18.85 4.88 20.50 2.40 22.27 0.00 M 29.43 35.40 C 24.13 39.94 19.56 45.93 18.60 53.03 L 18.31 53.48 C 22.09 56.45 25.59 60.00 30.13 61.80 C 30.74 60.87 31.35 59.94 31.96 59.02 C 32.91 59.73 33.83 60.46 34.75 61.20 L 35.13 60.44 C 38.75 60.54 41.79 58.70 44.68 56.77 C 51.15 54.16 56.46 49.04 59.84 42.98 C 57.12 38.62 52.86 35.60 49.01 32.32 C 48.57 34.05 48.12 35.78 47.51 37.46 C 46.45 35.78 46.42 33.73 46.08 31.83 C 43.72 31.33 41.34 30.97 38.95 30.65 C 35.33 31.12 32.14 33.04 29.43 35.40 M 52.52 32.13 C 54.65 34.47 57.78 35.86 59.29 38.76 C 60.23 40.42 61.05 42.14 61.82 43.89 C 63.00 47.55 61.92 51.43 59.62 54.40 C 57.02 56.29 53.52 55.72 50.52 56.41 C 50.76 58.00 50.99 59.59 51.22 61.18 C 59.47 60.08 68.15 57.20 73.41 50.38 C 74.86 46.93 73.30 43.13 71.34 40.22 C 67.42 33.81 59.42 32.47 52.52 32.13 M 82.30 49.12 C 85.56 51.55 87.60 55.10 89.79 58.44 C 90.89 56.88 94.59 55.53 92.85 53.26 C 90.20 49.43 88.07 45.29 86.10 41.07 C 84.36 43.51 83.02 46.20 82.30 49.12 M 5.25 46.40 C 5.28 48.86 5.06 51.47 6.20 53.73 C 7.58 55.93 9.78 57.43 11.66 59.16 C 14.55 62.27 19.01 64.80 23.21 62.62 C 20.25 61.51 17.47 59.93 15.10 57.83 C 14.09 53.71 12.03 49.93 11.07 45.79 C 9.10 45.60 7.14 45.82 5.25 46.40 M 53.04 53.65 C 56.80 52.29 63.41 50.05 60.34 44.78 C 58.50 48.23 55.23 50.49 53.04 53.65 M 72.53 53.47 C 68.30 57.80 62.59 60.10 56.87 61.73 C 54.88 61.48 52.86 61.60 50.88 61.90 C 48.14 63.50 45.76 65.68 43.33 67.71 C 46.47 68.82 49.63 70.05 52.98 70.36 C 60.11 71.45 67.40 70.90 74.39 69.20 C 76.37 68.68 78.37 68.13 80.19 67.19 C 83.64 65.71 85.51 62.27 88.13 59.78 C 87.96 59.28 87.63 58.27 87.46 57.77 C 86.15 53.94 83.36 50.23 79.05 49.78 C 76.01 48.69 74.38 51.75 72.53 53.47 M 94.58 55.46 C 93.66 56.32 92.74 57.17 91.82 58.03 C 94.81 61.20 96.63 65.19 96.94 69.55 C 100.04 68.42 103.17 66.86 105.26 64.23 C 107.32 61.13 107.14 57.23 107.45 53.68 C 103.24 54.71 98.96 55.86 94.58 55.46 M 34.97 68.70 C 40.52 66.46 47.07 64.52 49.91 58.68 C 48.56 57.58 46.64 57.07 45.09 58.13 C 40.84 60.65 37.56 64.55 34.97 68.70 M 82.93 67.66 C 81.44 68.24 80.09 69.12 78.86 70.14 C 82.70 71.86 86.97 71.89 91.07 71.32 C 92.27 71.04 93.48 70.80 94.69 70.58 C 95.43 66.54 94.35 61.51 90.85 59.22 C 87.18 60.81 85.33 64.68 82.93 67.66 M 31.47 61.32 C 30.40 62.50 32.10 64.97 33.51 64.20 C 34.15 63.02 33.01 60.36 31.47 61.32 M 38.24 61.37 C 38.48 61.62 38.48 61.62 38.24 61.37 M 25.00 61.34 C 25.62 63.66 24.92 67.89 27.57 68.92 C 29.29 67.00 27.24 65.28 26.27 63.62 C 26.84 63.78 27.99 64.12 28.56 64.28 C 28.94 64.78 29.70 65.78 30.08 66.28 C 31.51 62.66 26.83 63.07 25.00 61.34 M 35.45 62.35 C 34.49 63.61 34.66 64.35 35.97 64.56 C 36.90 63.31 36.73 62.58 35.45 62.35 M 14.43 64.24 C 12.78 66.37 11.07 68.45 9.18 70.37 C 7.83 72.31 5.25 74.02 5.31 76.58 C 8.67 77.64 11.40 74.56 13.87 72.78 L 14.09 72.90 C 16.30 70.78 17.87 68.15 19.00 65.33 C 17.48 64.97 15.95 64.61 14.43 64.24 M 96.26 73.00 C 96.65 75.56 97.00 78.12 97.34 80.68 C 100.27 78.41 102.54 74.70 101.28 70.91 C 99.61 71.63 97.94 72.33 96.26 73.00 M 82.28 85.64 C 84.49 85.88 86.77 85.71 88.87 84.98 C 91.00 84.33 93.47 83.87 94.93 82.03 C 96.22 79.37 95.48 76.32 95.22 73.51 C 91.15 74.12 87.04 74.75 82.92 74.29 C 82.34 74.07 81.18 73.62 80.60 73.40 C 78.74 77.24 78.97 82.63 82.28 85.64 M 90.31 87.25 C 87.68 87.99 84.88 87.59 82.19 87.71 C 82.45 88.22 82.99 89.23 83.25 89.73 C 83.07 89.92 82.70 90.29 82.52 90.48 C 80.51 88.84 78.93 86.78 78.18 84.28 C 76.74 84.53 75.31 84.80 73.88 85.07 C 75.19 88.21 77.10 91.12 79.85 93.20 C 83.16 96.31 88.14 95.21 91.16 92.29 C 93.14 89.18 96.33 87.10 98.21 83.92 C 95.42 84.64 92.93 86.10 90.31 87.25 M 63.40 86.99 C 66.00 92.26 72.12 95.96 78.02 95.23 C 76.47 93.37 75.13 91.28 73.28 89.70 C 70.32 87.87 66.83 87.17 63.40 86.99 Z" />
<path fill="#fefad6" opacity="1.00" d=" M 27.07 0.00 L 28.27 0.00 C 27.04 2.94 24.72 5.16 22.52 7.38 C 23.87 8.73 25.89 9.86 26.09 11.98 C 26.67 17.04 20.63 21.66 16.06 18.65 C 14.83 22.12 14.45 25.81 13.44 29.34 C 13.01 29.53 12.15 29.91 11.72 30.10 C 12.17 20.36 17.45 11.75 22.79 3.90 C 23.97 2.38 24.86 0.22 27.07 0.00 Z" />
<path fill="#57596f" opacity="1.00" d=" M 28.27 0.00 L 28.65 0.00 C 30.08 2.89 31.90 5.55 33.82 8.13 C 38.27 14.30 41.36 21.29 44.47 28.19 C 42.00 28.33 39.45 28.17 37.07 28.96 C 26.33 33.03 18.19 42.91 16.24 54.25 C 18.72 56.30 21.19 58.36 23.61 60.48 C 21.23 59.35 18.24 58.79 16.63 56.53 C 13.11 48.21 10.69 39.22 11.72 30.10 C 12.15 29.91 13.01 29.53 13.44 29.34 C 14.45 25.81 14.83 22.12 16.06 18.65 C 20.63 21.66 26.67 17.04 26.09 11.98 C 25.89 9.86 23.87 8.73 22.52 7.38 C 24.72 5.16 27.04 2.94 28.27 0.00 Z" />
<path fill="#6f788c" opacity="1.00" d=" M 28.80 0.00 L 38.13 0.00 C 39.42 1.96 40.55 4.02 41.55 6.14 C 40.43 7.91 39.31 9.68 38.18 11.44 C 35.28 7.52 33.49 2.10 28.80 0.00 Z" />
<path fill="#57596f" opacity="1.00" d=" M 40.84 0.00 L 81.51 0.00 C 76.38 8.77 68.86 15.71 61.52 22.59 C 59.10 24.73 57.24 27.38 55.71 30.21 C 53.54 30.02 51.37 30.25 49.24 30.64 C 49.61 22.94 46.82 15.65 44.51 8.43 C 43.55 5.52 42.38 2.66 40.84 0.00 Z" />
<path fill="#4a4a64" opacity="1.00" d=" M 81.51 0.00 L 109.41 0.00 C 107.83 5.46 106.14 11.02 102.74 15.68 C 100.63 18.46 98.59 21.29 96.78 24.28 C 94.66 26.28 92.53 28.25 90.39 30.22 C 84.81 33.72 79.42 37.63 73.25 40.06 C 69.97 33.48 62.47 31.16 55.71 30.21 C 57.24 27.38 59.10 24.73 61.52 22.59 C 68.86 15.71 76.38 8.77 81.51 0.00 Z" />
<path fill="#302a4d" opacity="1.00" d=" M 109.41 0.00 L 111.00 0.00 L 111.00 17.49 C 106.14 19.51 101.38 21.74 96.78 24.28 C 98.59 21.29 100.63 18.46 102.74 15.68 C 106.14 11.02 107.83 5.46 109.41 0.00 Z" />
<path fill="#4e5471" opacity="1.00" d=" M 41.55 6.14 C 44.11 13.99 47.68 21.81 47.40 30.24 C 44.14 24.06 41.88 17.40 38.18 11.44 C 39.31 9.68 40.43 7.91 41.55 6.14 Z" />
<path fill="#505168" opacity="1.00" d=" M 89.81 35.81 C 94.81 28.33 102.78 23.55 111.00 20.31 L 111.00 24.76 C 110.06 26.72 108.92 28.65 108.63 30.85 C 108.44 31.84 108.28 32.84 108.12 33.84 C 103.52 36.19 99.10 38.88 94.86 41.82 C 92.65 43.74 90.29 41.20 88.33 40.20 C 88.54 38.67 88.92 37.11 89.81 35.81 Z" />
<path fill="#626981" opacity="1.00" d=" M 0.00 21.14 C 1.09 23.39 2.28 25.61 3.43 27.83 C 2.27 29.01 1.11 30.19 0.00 31.43 L 0.00 21.14 Z" />
<path fill="#585a70" opacity="1.00" d=" M 0.00 35.52 C 2.11 31.97 5.32 29.20 9.36 28.11 C 9.28 33.62 9.45 39.15 10.62 44.56 C 9.21 44.43 7.81 44.26 6.41 44.06 C 4.24 43.08 2.12 41.97 0.00 40.88 L 0.00 35.52 Z" />
<path fill="#302b4d" opacity="1.00" d=" M 73.25 40.06 C 79.42 37.63 84.81 33.72 90.39 30.22 C 87.26 33.88 86.37 38.78 83.70 42.71 C 82.45 44.55 81.91 46.73 81.36 48.85 C 79.49 48.88 77.63 48.90 75.77 48.93 C 75.36 45.87 74.70 42.81 73.25 40.06 Z" />
<path fill="#303442" opacity="1.00" d=" M 111.00 34.97 C 109.20 33.69 108.98 31.04 111.00 29.85 L 111.00 34.97 Z" />
<path fill="#fefad6" opacity="1.00" d=" M 29.43 35.40 C 32.14 33.04 35.33 31.12 38.95 30.65 C 37.17 32.23 35.25 33.63 33.34 35.05 C 34.77 37.02 35.64 39.73 33.88 41.81 C 32.12 44.56 28.46 44.45 25.85 43.09 C 22.85 45.95 20.84 49.60 18.60 53.03 C 19.56 45.93 24.13 39.94 29.43 35.40 Z" />
<path fill="#55566e" opacity="1.00" d=" M 38.95 30.65 C 41.34 30.97 43.72 31.33 46.08 31.83 C 46.42 33.73 46.45 35.78 47.51 37.46 C 47.86 38.01 48.22 38.56 48.58 39.10 C 48.07 41.58 47.45 44.03 46.95 46.51 C 42.26 49.37 36.52 51.53 33.84 56.67 C 34.62 56.70 36.19 56.75 36.97 56.78 C 36.35 58.00 35.74 59.22 35.13 60.44 L 34.75 61.20 C 33.83 60.46 32.91 59.73 31.96 59.02 C 31.35 59.94 30.74 60.87 30.13 61.80 C 25.59 60.00 22.09 56.45 18.31 53.48 L 18.60 53.03 C 20.84 49.60 22.85 45.95 25.85 43.09 C 28.46 44.45 32.12 44.56 33.88 41.81 C 35.64 39.73 34.77 37.02 33.34 35.05 C 35.25 33.63 37.17 32.23 38.95 30.65 Z" />
<path fill="#2d2748" opacity="1.00" d=" M 108.12 33.84 C 108.28 32.84 108.44 31.84 108.63 30.85 C 108.88 32.87 109.23 34.87 109.55 36.88 C 107.71 38.57 105.67 40.16 104.45 42.38 C 102.93 45.36 102.94 48.79 102.62 52.04 C 100.11 52.60 97.60 53.24 95.02 53.30 C 91.88 49.49 90.18 44.72 88.33 40.20 C 90.29 41.20 92.65 43.74 94.86 41.82 C 99.10 38.88 103.52 36.19 108.12 33.84 Z" />
<path fill="#858f9d" opacity="1.00" d=" M 52.52 32.13 C 59.42 32.47 67.42 33.81 71.34 40.22 C 68.24 41.64 65.06 42.85 61.82 43.89 C 61.05 42.14 60.23 40.42 59.29 38.76 C 57.78 35.86 54.65 34.47 52.52 32.13 Z" />
<path fill="#363252" opacity="1.00" d=" M 49.01 32.32 C 52.86 35.60 57.12 38.62 59.84 42.98 C 56.46 49.04 51.15 54.16 44.68 56.77 C 41.79 58.70 38.75 60.54 35.13 60.44 C 35.74 59.22 36.35 58.00 36.97 56.78 C 41.48 56.81 46.35 54.92 48.75 50.92 C 49.99 48.99 51.15 47.02 52.45 45.14 C 50.61 45.57 48.77 46.00 46.95 46.51 C 47.45 44.03 48.07 41.58 48.58 39.10 C 48.22 38.56 47.86 38.01 47.51 37.46 C 48.12 35.78 48.57 34.05 49.01 32.32 Z" />
<path fill="#828c9b" opacity="1.00" d=" M 105.87 42.84 C 107.16 40.64 109.17 39.02 111.00 37.29 L 111.00 49.13 C 108.88 50.03 106.77 50.96 104.56 51.64 C 104.66 48.70 104.35 45.50 105.87 42.84 Z" />
<path fill="#393555" opacity="1.00" d=" M 0.00 40.88 C 2.12 41.97 4.24 43.08 6.41 44.06 C 3.82 45.65 3.61 48.60 3.64 51.35 C 2.43 49.82 1.18 48.32 0.00 46.76 L 0.00 40.88 Z" />
<path fill="#383d5e" opacity="1.00" d=" M 61.82 43.89 C 65.06 42.85 68.24 41.64 71.34 40.22 C 73.30 43.13 74.86 46.93 73.41 50.38 C 68.15 57.20 59.47 60.08 51.22 61.18 C 50.99 59.59 50.76 58.00 50.52 56.41 C 53.52 55.72 57.02 56.29 59.62 54.40 C 61.92 51.43 63.00 47.55 61.82 43.89 Z" />
<path fill="#2c2647" opacity="1.00" d=" M 82.30 49.12 C 83.02 46.20 84.36 43.51 86.10 41.07 C 88.07 45.29 90.20 49.43 92.85 53.26 C 94.59 55.53 90.89 56.88 89.79 58.44 C 87.60 55.10 85.56 51.55 82.30 49.12 Z" />
<path fill="#000000" opacity="1.00" d=" M 46.95 46.51 C 48.77 46.00 50.61 45.57 52.45 45.14 C 51.15 47.02 49.99 48.99 48.75 50.92 C 46.35 54.92 41.48 56.81 36.97 56.78 C 36.19 56.75 34.62 56.70 33.84 56.67 C 36.52 51.53 42.26 49.37 46.95 46.51 M 47.21 48.24 C 43.67 48.77 40.85 51.11 37.94 52.99 C 36.66 53.75 35.86 54.99 35.24 56.31 C 41.92 55.75 47.99 51.91 50.97 45.82 C 49.71 46.62 48.46 47.43 47.21 48.24 Z" />
<path fill="#818b9a" opacity="1.00" d=" M 5.25 46.40 C 7.14 45.82 9.10 45.60 11.07 45.79 C 12.03 49.93 14.09 53.71 15.10 57.83 C 13.95 58.27 12.81 58.71 11.66 59.16 C 9.78 57.43 7.58 55.93 6.20 53.73 C 5.06 51.47 5.28 48.86 5.25 46.40 Z" />
<path fill="#3a3f5c" opacity="1.00" d=" M 53.04 53.65 C 55.23 50.49 58.50 48.23 60.34 44.78 C 63.41 50.05 56.80 52.29 53.04 53.65 Z" />
<path fill="#d86193" opacity="1.00" d=" M 47.21 48.24 C 48.46 47.43 49.71 46.62 50.97 45.82 C 47.99 51.91 41.92 55.75 35.24 56.31 C 35.86 54.99 36.66 53.75 37.94 52.99 C 40.85 51.11 43.67 48.77 47.21 48.24 Z" />
<path fill="#3a3f5f" opacity="1.00" d=" M 72.53 53.47 C 74.38 51.75 76.01 48.69 79.05 49.78 C 83.36 50.23 86.15 53.94 87.46 57.77 C 80.92 56.08 74.93 60.36 68.95 62.36 C 69.30 65.56 72.23 67.23 74.39 69.20 C 67.40 70.90 60.11 71.45 52.98 70.36 C 53.44 70.19 54.35 69.86 54.80 69.69 C 53.57 68.39 52.32 67.10 51.07 65.82 C 53.80 64.86 56.47 63.72 59.02 62.36 C 58.48 62.20 57.41 61.89 56.87 61.73 C 62.59 60.10 68.30 57.80 72.53 53.47 Z" />
<path fill="#2e4266" opacity="1.00" d=" M -0.00 49.92 C 0.57 50.67 1.16 51.41 1.76 52.13 C 1.41 54.82 2.48 57.29 4.33 59.21 C 7.44 61.91 4.99 65.77 4.14 68.96 C 2.76 68.50 1.37 68.04 0.00 67.55 L 0.00 49.92 Z" />
<path fill="#54717b" opacity="1.00" d=" M 4.33 59.21 C 2.48 57.29 1.41 54.82 1.76 52.13 C 3.30 53.77 4.87 55.36 6.45 56.95 C 5.74 57.71 5.04 58.46 4.33 59.21 Z" />
<path fill="#231c34" opacity="1.00" d=" M 94.58 55.46 C 98.96 55.86 103.24 54.71 107.45 53.68 C 107.14 57.23 107.32 61.13 105.26 64.23 C 103.17 66.86 100.04 68.42 96.94 69.55 C 96.63 65.19 94.81 61.20 91.82 58.03 C 92.74 57.17 93.66 56.32 94.58 55.46 Z" />
<path fill="#42627a" opacity="1.00" d=" M 6.45 56.95 C 8.63 59.09 10.97 61.07 13.27 63.07 C 10.65 65.55 8.17 68.17 5.72 70.82 C 5.32 70.35 4.53 69.43 4.14 68.96 C 4.99 65.77 7.44 61.91 4.33 59.21 C 5.04 58.46 5.74 57.71 6.45 56.95 Z" />
<path fill="#535973" opacity="1.00" d=" M 68.95 62.36 C 74.93 60.36 80.92 56.08 87.46 57.77 C 87.63 58.27 87.96 59.28 88.13 59.78 C 85.51 62.27 83.64 65.71 80.19 67.19 C 78.37 68.13 76.37 68.68 74.39 69.20 C 72.23 67.23 69.30 65.56 68.95 62.36 Z" />
<path fill="#525871" opacity="1.00" d=" M 11.66 59.16 C 12.81 58.71 13.95 58.27 15.10 57.83 C 17.47 59.93 20.25 61.51 23.21 62.62 C 19.01 64.80 14.55 62.27 11.66 59.16 Z" />
<path fill="#848f9d" opacity="1.00" d=" M 34.97 68.70 C 37.56 64.55 40.84 60.65 45.09 58.13 C 46.64 57.07 48.56 57.58 49.91 58.68 C 47.07 64.52 40.52 66.46 34.97 68.70 Z" />
<path fill="#414665" opacity="1.00" d=" M 82.93 67.66 C 85.33 64.68 87.18 60.81 90.85 59.22 C 94.35 61.51 95.43 66.54 94.69 70.58 C 93.48 70.80 92.27 71.04 91.07 71.32 C 90.50 70.45 89.94 69.57 89.37 68.70 C 87.22 68.37 85.07 68.03 82.93 67.66 Z" />
<path fill="#596176" opacity="1.00" d=" M 31.47 61.32 C 33.01 60.36 34.15 63.02 33.51 64.20 C 32.10 64.97 30.40 62.50 31.47 61.32 Z" />
<path fill="#5b626b" opacity="1.00" d=" M 38.24 61.37 C 38.48 61.62 38.48 61.62 38.24 61.37 Z" />
<path fill="#626981" opacity="1.00" d=" M 25.00 61.34 C 26.83 63.07 31.51 62.66 30.08 66.28 C 29.70 65.78 28.94 64.78 28.56 64.28 C 27.99 64.12 26.84 63.78 26.27 63.62 C 27.24 65.28 29.29 67.00 27.57 68.92 C 24.92 67.89 25.62 63.66 25.00 61.34 Z" />
<path fill="#474d65" opacity="1.00" d=" M 35.45 62.35 C 36.73 62.58 36.90 63.31 35.97 64.56 C 34.66 64.35 34.49 63.61 35.45 62.35 Z" />
<path fill="#454b69" opacity="1.00" d=" M 43.33 67.71 C 45.76 65.68 48.14 63.50 50.88 61.90 C 52.86 61.60 54.88 61.48 56.87 61.73 C 57.41 61.89 58.48 62.20 59.02 62.36 C 56.47 63.72 53.80 64.86 51.07 65.82 C 52.32 67.10 53.57 68.39 54.80 69.69 C 54.35 69.86 53.44 70.19 52.98 70.36 C 49.63 70.05 46.47 68.82 43.33 67.71 Z" />
<path fill="#2c2641" opacity="1.00" d=" M 14.43 64.24 C 15.95 64.61 17.48 64.97 19.00 65.33 C 17.87 68.15 16.30 70.78 14.09 72.90 L 13.87 72.78 C 12.31 71.98 10.74 71.18 9.18 70.37 C 11.07 68.45 12.78 66.37 14.43 64.24 Z" />
<path fill="#44647b" opacity="1.00" d=" M 16.30 73.31 C 19.75 70.68 19.07 64.45 24.11 63.83 C 24.14 65.80 24.26 67.81 23.84 69.75 C 21.75 78.74 17.98 87.27 13.24 95.17 C 12.80 94.76 11.94 93.92 11.50 93.51 C 7.55 94.28 3.55 93.49 0.38 90.95 C 3.13 89.40 5.72 87.50 7.57 84.90 C 4.96 86.29 2.39 87.77 0.00 89.52 L 0.00 85.54 C 4.28 79.96 11.29 77.95 16.30 73.31 Z" />
<path fill="#7e8797" opacity="1.00" d=" M 78.86 70.14 C 80.09 69.12 81.44 68.24 82.93 67.66 C 85.07 68.03 87.22 68.37 89.37 68.70 C 89.94 69.57 90.50 70.45 91.07 71.32 C 86.97 71.89 82.70 71.86 78.86 70.14 Z" />
<path fill="#3c3958" opacity="1.00" d=" M 0.00 69.34 C 1.64 70.00 3.31 70.54 5.00 71.05 C 3.71 73.50 2.82 76.29 4.48 78.81 C 2.97 79.88 1.45 80.94 0.00 82.10 L 0.00 69.34 Z" />
<path fill="#3e3b56" opacity="1.00" d=" M 5.31 76.58 C 5.25 74.02 7.83 72.31 9.18 70.37 C 10.74 71.18 12.31 71.98 13.87 72.78 C 11.40 74.56 8.67 77.64 5.31 76.58 Z" />
<path fill="#27203d" opacity="1.00" d=" M 96.26 73.00 C 97.94 72.33 99.61 71.63 101.28 70.91 C 102.54 74.70 100.27 78.41 97.34 80.68 C 97.00 78.12 96.65 75.56 96.26 73.00 Z" />
<path fill="#788293" opacity="1.00" d=" M 82.28 85.64 C 78.97 82.63 78.74 77.24 80.60 73.40 C 81.18 73.62 82.34 74.07 82.92 74.29 C 86.04 74.72 89.20 74.73 92.34 74.77 C 93.11 78.65 91.96 82.46 88.87 84.98 C 86.77 85.71 84.49 85.88 82.28 85.64 Z" />
<path fill="#3e4464" opacity="1.00" d=" M 82.92 74.29 C 87.04 74.75 91.15 74.12 95.22 73.51 C 95.48 76.32 96.22 79.37 94.93 82.03 C 93.47 83.87 91.00 84.33 88.87 84.98 C 91.96 82.46 93.11 78.65 92.34 74.77 C 89.20 74.73 86.04 74.72 82.92 74.29 Z" />
<path fill="#4c4b66" opacity="1.00" d=" M 94.63 91.22 C 98.37 85.84 105.24 84.36 111.00 82.10 L 111.00 83.30 C 107.76 86.08 104.27 88.59 100.60 90.77 C 98.84 92.08 96.61 91.26 94.63 91.22 Z" />
<path fill="#332e4d" opacity="1.00" d=" M 90.31 87.25 C 92.93 86.10 95.42 84.64 98.21 83.92 C 96.33 87.10 93.14 89.18 91.16 92.29 C 88.14 95.21 83.16 96.31 79.85 93.20 C 80.73 92.28 81.63 91.38 82.52 90.48 C 82.70 90.29 83.07 89.92 83.25 89.73 C 82.99 89.23 82.45 88.22 82.19 87.71 C 84.88 87.59 87.68 87.99 90.31 87.25 Z" />
<path fill="#000000" opacity="1.00" d=" M 0.00 89.52 C 2.39 87.77 4.96 86.29 7.57 84.90 C 5.72 87.50 3.13 89.40 0.38 90.95 L 0.00 90.72 L 0.00 89.52 Z" />
<path fill="#4d4d67" opacity="1.00" d=" M 73.88 85.07 C 75.31 84.80 76.74 84.53 78.18 84.28 C 78.93 86.78 80.51 88.84 82.52 90.48 C 81.63 91.38 80.73 92.28 79.85 93.20 C 77.10 91.12 75.19 88.21 73.88 85.07 Z" />
<path fill="#57596f" opacity="1.00" d=" M 63.40 86.99 C 66.83 87.17 70.32 87.87 73.28 89.70 C 75.13 91.28 76.47 93.37 78.02 95.23 C 72.12 95.96 66.00 92.26 63.40 86.99 Z" />
<path fill="#57596f" opacity="1.00" d=" M 103.76 91.74 C 106.22 90.15 108.71 88.60 111.00 86.78 L 111.00 92.15 C 107.28 96.99 104.28 102.37 102.61 108.27 L 101.58 109.27 C 101.09 103.33 102.09 97.42 103.76 91.74 Z" />
<path fill="#3d5a75" opacity="1.00" d=" M 0.00 90.72 L 0.38 90.95 C 3.55 93.49 7.55 94.28 11.50 93.51 C 11.94 93.92 12.80 94.76 13.24 95.17 C 9.89 100.74 6.23 106.16 1.88 111.00 L 0.00 111.00 L 0.00 90.72 Z" />
<path fill="#373354" opacity="1.00" d=" M 102.61 108.27 C 104.28 102.37 107.28 96.99 111.00 92.15 L 111.00 99.14 C 108.64 102.55 105.86 105.68 102.61 108.27 Z" />
<path fill="#505169" opacity="1.00" d=" M 68.57 95.08 C 70.49 95.83 72.38 96.66 74.28 97.47 C 68.52 101.22 62.63 105.24 58.68 110.98 C 60.90 109.65 63.06 108.23 65.04 106.56 C 64.31 107.65 63.58 108.76 62.88 109.87 C 62.71 110.16 62.37 110.72 62.20 111.00 L 58.11 111.00 C 58.90 104.30 64.49 99.90 68.57 95.08 Z" />
<path fill="#322d4f" opacity="1.00" d=" M 107.58 106.20 C 108.75 104.92 109.92 103.63 111.00 102.27 L 111.00 110.66 C 109.93 109.12 108.76 107.65 107.58 106.20 Z" />
<path fill="#302b47" opacity="1.00" d=" M 66.20 105.41 C 69.14 108.51 72.32 102.16 75.47 104.16 C 75.79 106.42 75.74 108.72 75.78 111.00 L 66.92 111.00 C 65.97 109.84 64.32 108.87 62.88 109.87 C 63.58 108.76 64.31 107.65 65.04 106.56 C 65.42 106.17 65.81 105.79 66.20 105.41 Z" />
<path fill="#000000" opacity="0.13" d=" M 101.61 111.00 C 103.22 109.90 104.72 108.65 106.21 107.40 C 107.00 108.62 107.72 109.90 108.68 111.00 L 101.61 111.00 Z" />
<path fill="#09080c" opacity="1.00" d=" M 62.20 111.00 C 62.37 110.72 62.71 110.16 62.88 109.87 C 64.32 108.87 65.97 109.84 66.92 111.00 L 62.20 111.00 Z" />
</svg>
