<?xml version="1.0" encoding="UTF-8" ?>
<!DOCTYPE svg PUBLIC "-//W3C//DTD SVG 1.1//EN" "http://www.w3.org/Graphics/SVG/1.1/DTD/svg11.dtd">
<svg width="111pt" height="111pt" viewBox="0 0 111 111" version="1.1" xmlns="http://www.w3.org/2000/svg">
<path fill="#000000" opacity="1.00" d=" M 36.33 14.51 C 44.22 21.18 46.55 31.84 49.90 41.14 C 50.41 39.86 50.90 38.58 51.39 37.30 C 51.42 36.69 51.49 35.46 51.53 34.84 C 52.28 33.66 53.04 32.50 53.83 31.35 C 54.28 32.96 54.70 34.59 55.12 36.22 C 58.47 34.54 62.18 34.15 65.82 35.03 C 73.03 25.67 85.55 22.24 96.91 23.42 C 102.44 24.14 109.17 26.74 110.04 33.05 C 111.85 39.12 108.82 45.01 104.40 49.03 C 106.46 53.09 108.78 57.02 111.00 60.99 L 111.00 66.17 C 106.17 58.34 100.81 50.46 99.03 41.27 C 98.64 41.25 97.86 41.22 97.47 41.21 C 100.80 50.59 104.08 60.34 111.00 67.77 L 111.00 85.13 C 83.25 91.98 54.60 95.15 26.03 94.88 C 17.33 94.62 8.32 94.97 0.00 92.04 L 0.00 89.95 C 4.97 84.43 12.88 83.92 19.45 81.53 C 22.02 77.21 23.24 72.24 23.94 67.30 C 19.58 69.31 19.88 74.85 19.39 78.90 C 15.78 75.26 13.85 70.24 13.19 65.23 C 16.57 63.51 20.45 63.53 24.14 63.48 C 22.28 59.46 20.29 55.49 18.68 51.37 C 23.82 51.23 26.85 55.82 30.06 59.08 C 30.97 57.43 31.89 55.79 32.80 54.14 C 28.57 46.72 23.15 39.61 15.59 35.34 C 12.35 33.42 8.30 32.67 5.93 29.50 C 19.10 29.75 29.29 40.72 34.63 51.86 C 38.05 47.97 42.14 44.66 46.98 42.73 C 45.22 32.68 39.56 24.04 36.33 14.51 M 68.08 35.29 C 67.47 36.04 66.50 37.36 68.24 36.72 C 69.09 38.03 69.94 39.33 70.79 40.65 C 71.47 40.57 72.84 40.42 73.52 40.35 C 73.66 41.79 73.81 43.23 73.95 44.68 C 77.94 42.06 82.38 40.36 86.93 39.02 C 88.88 38.53 90.91 38.18 92.72 37.27 C 95.76 36.77 98.84 36.43 101.92 36.72 C 101.39 37.77 100.86 38.82 100.33 39.88 C 101.16 41.76 102.00 43.64 102.89 45.50 C 106.10 42.46 108.16 37.94 106.70 33.51 C 106.38 30.57 103.87 28.89 101.47 27.65 C 100.04 27.30 98.61 26.93 97.19 26.55 C 93.33 26.29 89.38 26.04 85.59 26.93 C 78.95 27.49 73.03 31.03 68.08 35.29 M 53.25 36.93 C 51.99 37.77 51.99 38.49 53.23 39.09 C 54.49 38.25 54.49 37.53 53.25 36.93 M 53.55 42.20 L 55.52 42.24 C 57.34 44.45 58.63 47.03 58.93 49.92 C 61.70 47.11 64.70 44.53 67.94 42.26 C 66.70 40.24 65.05 38.53 62.85 37.56 C 59.17 37.39 55.51 38.98 53.55 42.20 M 79.93 43.42 C 86.06 42.88 92.29 41.82 97.86 39.08 C 91.63 39.07 85.83 41.72 79.93 43.42 M 83.36 45.14 C 80.37 45.54 77.37 45.83 74.37 46.08 C 74.88 50.03 75.58 53.96 76.48 57.84 C 80.52 57.75 84.54 57.31 88.46 56.28 C 92.28 55.78 95.74 53.52 97.69 50.19 C 96.75 47.61 95.98 44.97 95.28 42.32 C 91.39 43.59 87.39 44.47 83.36 45.14 M 49.47 42.18 C 49.34 44.87 51.29 46.57 53.20 48.06 C 54.16 50.33 54.95 52.67 55.70 55.03 C 56.52 52.24 56.00 49.36 55.67 46.54 C 53.98 44.61 51.93 43.03 49.47 42.18 M 56.92 56.60 C 61.36 52.47 66.59 49.08 70.17 44.11 C 65.06 47.39 60.43 51.63 56.92 56.60 M 42.59 48.14 C 37.98 51.58 33.81 56.16 32.14 61.77 C 31.74 62.44 31.39 63.13 31.06 63.85 C 33.76 66.28 36.24 69.23 39.92 70.16 C 41.20 69.14 42.49 68.13 43.78 67.11 C 42.29 64.65 44.86 62.83 46.29 61.16 C 48.39 60.32 50.47 59.43 52.55 58.55 C 53.56 54.82 53.19 50.84 50.47 47.92 C 50.20 50.43 49.91 52.94 49.47 55.42 C 48.39 52.30 47.93 49.03 47.53 45.77 L 47.46 43.92 C 45.77 45.23 44.00 46.49 42.59 48.14 M 62.93 54.80 C 65.21 54.55 67.49 54.24 69.76 53.86 C 69.77 52.02 69.79 50.18 69.81 48.34 C 67.46 50.44 65.15 52.57 62.93 54.80 M 81.80 81.15 C 77.41 71.94 74.62 62.08 72.70 52.09 C 73.93 62.16 75.59 72.79 81.80 81.15 M 98.46 51.99 C 97.39 54.77 95.62 57.29 92.51 57.87 C 91.67 62.22 90.61 66.59 88.32 70.44 C 95.16 69.00 102.21 68.55 109.17 69.27 C 104.12 64.55 101.30 58.14 98.46 51.99 M 21.73 53.84 C 23.50 57.35 26.29 60.21 29.46 62.48 C 28.31 58.60 24.83 56.13 21.73 53.84 M 54.58 58.96 C 54.36 59.82 54.13 60.67 53.91 61.53 C 56.44 61.34 58.93 61.84 60.54 63.97 L 59.95 64.82 C 60.10 65.37 60.39 66.47 60.54 67.02 C 59.15 69.12 57.31 70.86 55.37 72.45 C 57.41 72.16 59.48 72.02 61.51 71.63 C 62.33 66.63 63.75 61.29 62.60 56.31 C 59.99 56.13 57.68 59.53 54.58 58.96 M 67.39 56.75 C 67.99 62.11 67.51 67.64 65.04 72.51 C 67.78 71.92 70.57 71.52 73.37 71.34 C 71.84 66.28 70.83 61.08 70.03 55.85 C 69.37 56.08 68.05 56.53 67.39 56.75 M 64.71 56.39 C 64.60 61.80 63.79 67.13 62.89 72.45 C 66.19 67.97 66.26 61.56 64.71 56.39 M 86.02 69.42 C 89.52 66.79 89.62 61.99 90.44 58.08 C 87.38 60.83 87.76 65.77 86.02 69.42 M 77.18 60.67 C 78.16 64.37 79.25 68.04 80.47 71.67 C 81.28 71.46 82.90 71.05 83.70 70.84 C 85.48 67.18 86.97 63.38 88.15 59.48 C 84.54 60.24 80.87 60.59 77.18 60.67 M 24.95 61.31 C 24.03 62.44 25.67 64.50 26.97 63.79 C 27.91 62.67 26.23 60.65 24.95 61.31 M 44.19 65.36 C 46.55 64.72 48.85 63.90 51.08 62.89 C 51.20 62.39 51.43 61.41 51.55 60.91 C 48.87 61.95 45.73 62.62 44.19 65.36 M 51.99 64.26 C 46.05 67.02 40.72 71.09 36.30 75.91 C 34.87 76.72 34.03 78.26 32.94 79.44 C 37.66 78.65 42.09 76.83 46.52 75.10 C 50.28 73.04 54.22 71.20 57.58 68.50 C 58.98 67.47 58.88 65.57 59.38 64.08 L 59.12 64.24 C 56.81 63.09 54.33 63.52 51.99 64.26 M 16.99 65.96 C 16.52 66.05 15.57 66.24 15.09 66.33 C 15.56 67.63 16.04 68.92 16.53 70.22 L 16.37 70.44 C 16.96 71.72 17.56 72.99 18.19 74.26 C 19.15 72.33 19.40 70.20 19.42 68.08 C 21.00 67.21 22.61 66.38 24.18 65.50 C 21.78 65.33 19.32 65.20 16.99 65.96 M 24.93 73.82 C 23.92 76.67 22.48 79.35 21.43 82.19 C 25.95 78.58 26.76 72.04 26.38 66.61 C 25.53 68.93 25.59 71.46 24.93 73.82 M 28.11 66.49 C 28.62 71.13 27.41 75.64 25.87 79.96 C 27.73 79.63 29.60 79.31 31.46 78.97 C 33.16 76.69 35.15 74.66 36.91 72.43 C 34.50 69.86 31.76 67.05 28.11 66.49 Z" />
<path fill="#e0c058" opacity="1.00" d=" M 68.08 35.29 C 73.03 31.03 78.95 27.49 85.59 26.93 C 79.47 29.58 73.28 32.25 68.24 36.72 C 66.50 37.36 67.47 36.04 68.08 35.29 Z" />
<path fill="#cb4f53" opacity="1.00" d=" M 85.59 26.93 C 89.38 26.04 93.33 26.29 97.19 26.55 C 94.39 31.17 91.23 35.67 86.93 39.02 C 82.38 40.36 77.94 42.06 73.95 44.68 C 73.81 43.23 73.66 41.79 73.52 40.35 C 72.84 40.42 71.47 40.57 70.79 40.65 C 69.94 39.33 69.09 38.03 68.24 36.72 C 73.28 32.25 79.47 29.58 85.59 26.93 Z" />
<path fill="#7f3761" opacity="1.00" d=" M 97.19 26.55 C 98.61 26.93 100.04 27.30 101.47 27.65 C 98.76 31.03 96.07 34.49 92.72 37.27 C 90.91 38.18 88.88 38.53 86.93 39.02 C 91.23 35.67 94.39 31.17 97.19 26.55 Z" />
<path fill="#65315b" opacity="1.00" d=" M 101.47 27.65 C 103.87 28.89 106.38 30.57 106.70 33.51 C 108.16 37.94 106.10 42.46 102.89 45.50 C 102.00 43.64 101.16 41.76 100.33 39.88 C 100.86 38.82 101.39 37.77 101.92 36.72 C 98.84 36.43 95.76 36.77 92.72 37.27 C 96.07 34.49 98.76 31.03 101.47 27.65 Z" />
<path fill="#6b5c2c" opacity="0.76" d=" M 51.39 37.30 C 51.42 36.69 51.49 35.46 51.53 34.84 C 51.49 35.46 51.42 36.69 51.39 37.30 Z" />
<path fill="#726230" opacity="1.00" d=" M 53.25 36.93 C 54.49 37.53 54.49 38.25 53.23 39.09 C 51.99 38.49 51.99 37.77 53.25 36.93 Z" />
<path fill="#e0c058" opacity="1.00" d=" M 53.55 42.20 C 55.51 38.98 59.17 37.39 62.85 37.56 C 60.48 39.22 58.11 40.92 55.52 42.24 L 53.55 42.20 Z" />
<path fill="#c14c53" opacity="1.00" d=" M 55.52 42.24 C 58.11 40.92 60.48 39.22 62.85 37.56 C 65.05 38.53 66.70 40.24 67.94 42.26 C 64.70 44.53 61.70 47.11 58.93 49.92 C 58.63 47.03 57.34 44.45 55.52 42.24 Z" />
<path fill="#c28854" opacity="1.00" d=" M 79.93 43.42 C 85.83 41.72 91.63 39.07 97.86 39.08 C 92.29 41.82 86.06 42.88 79.93 43.42 Z" />
<path fill="#e0c058" opacity="1.00" d=" M 97.47 41.21 C 97.86 41.22 98.64 41.25 99.03 41.27 C 100.81 50.46 106.17 58.34 111.00 66.17 L 111.00 67.77 C 104.08 60.34 100.80 50.59 97.47 41.21 Z" />
<path fill="#5a2f56" opacity="1.00" d=" M 83.36 45.14 C 87.39 44.47 91.39 43.59 95.28 42.32 C 95.98 44.97 96.75 47.61 97.69 50.19 C 95.74 53.52 92.28 55.78 88.46 56.28 C 86.17 55.25 82.47 54.95 82.06 51.88 C 81.82 49.57 82.76 47.34 83.36 45.14 Z" />
<path fill="#c28854" opacity="1.00" d=" M 49.47 42.18 C 51.93 43.03 53.98 44.61 55.67 46.54 C 55.05 46.92 53.82 47.68 53.20 48.06 C 51.29 46.57 49.34 44.87 49.47 42.18 Z" />
<path fill="#c28854" opacity="1.00" d=" M 56.92 56.60 C 60.43 51.63 65.06 47.39 70.17 44.11 C 66.59 49.08 61.36 52.47 56.92 56.60 Z" />
<path fill="#cc4f53" opacity="1.00" d=" M 42.59 48.14 C 44.00 46.49 45.77 45.23 47.46 43.92 L 47.53 45.77 C 47.77 50.94 46.92 56.05 46.29 61.16 C 44.86 62.83 42.29 64.65 43.78 67.11 C 42.49 68.13 41.20 69.14 39.92 70.16 C 36.24 69.23 33.76 66.28 31.06 63.85 C 31.39 63.13 31.74 62.44 32.14 61.77 C 36.35 57.83 39.66 53.07 42.59 48.14 Z" />
<path fill="#683357" opacity="1.00" d=" M 74.37 46.08 C 77.37 45.83 80.37 45.54 83.36 45.14 C 82.76 47.34 81.82 49.57 82.06 51.88 C 82.47 54.95 86.17 55.25 88.46 56.28 C 84.54 57.31 80.52 57.75 76.48 57.84 C 75.58 53.96 74.88 50.03 74.37 46.08 Z" />
<path fill="#60305b" opacity="1.00" d=" M 47.53 45.77 C 47.93 49.03 48.39 52.30 49.47 55.42 C 49.91 52.94 50.20 50.43 50.47 47.92 C 53.19 50.84 53.56 54.82 52.55 58.55 C 50.47 59.43 48.39 60.32 46.29 61.16 C 46.92 56.05 47.77 50.94 47.53 45.77 Z" />
<path fill="#7b3750" opacity="1.00" d=" M 53.20 48.06 C 53.82 47.68 55.05 46.92 55.67 46.54 C 56.00 49.36 56.52 52.24 55.70 55.03 C 54.95 52.67 54.16 50.33 53.20 48.06 Z" />
<path fill="#ccbc79" opacity="1.00" d=" M 32.14 61.77 C 33.81 56.16 37.98 51.58 42.59 48.14 C 39.66 53.07 36.35 57.83 32.14 61.77 Z" />
<path fill="#4c2b5f" opacity="1.00" d=" M 62.93 54.80 C 65.15 52.57 67.46 50.44 69.81 48.34 C 69.79 50.18 69.77 52.02 69.76 53.86 C 67.49 54.24 65.21 54.55 62.93 54.80 Z" />
<path fill="#e0c058" opacity="1.00" d=" M 81.80 81.15 C 75.59 72.79 73.93 62.16 72.70 52.09 C 74.62 62.08 77.41 71.94 81.80 81.15 Z" />
<path fill="#c28854" opacity="1.00" d=" M 21.73 53.84 C 24.83 56.13 28.31 58.60 29.46 62.48 C 26.29 60.21 23.50 57.35 21.73 53.84 Z" />
<path fill="#9f594c" opacity="1.00" d=" M 64.71 56.39 C 66.26 61.56 66.19 67.97 62.89 72.45 C 63.79 67.13 64.60 61.80 64.71 56.39 Z" />
<path fill="#493424" opacity="1.00" d=" M 86.02 69.42 C 87.76 65.77 87.38 60.83 90.44 58.08 C 89.62 61.99 89.52 66.79 86.02 69.42 Z" />
<path fill="#7b5838" opacity="1.00" d=" M 24.95 61.31 C 26.23 60.65 27.91 62.67 26.97 63.79 C 25.67 64.50 24.03 62.44 24.95 61.31 Z" />
<path fill="#b5b572" opacity="0.97" d=" M 44.19 65.36 C 45.73 62.62 48.87 61.95 51.55 60.91 C 51.43 61.41 51.20 62.39 51.08 62.89 C 48.85 63.90 46.55 64.72 44.19 65.36 Z" />
<path fill="#c28854" opacity="1.00" d=" M 51.99 64.26 C 54.33 63.52 56.81 63.09 59.12 64.24 C 56.80 65.63 54.47 67.01 52.11 68.34 C 52.08 67.32 52.02 65.28 51.99 64.26 Z" />
<path fill="#9f594c" opacity="1.00" d=" M 59.12 64.24 L 59.38 64.08 C 58.88 65.57 58.98 67.47 57.58 68.50 C 54.22 71.20 50.28 73.04 46.52 75.10 C 45.57 74.38 44.62 73.67 43.67 72.95 C 46.50 71.44 49.31 69.90 52.11 68.34 C 54.47 67.01 56.80 65.63 59.12 64.24 Z" />
<path fill="#35211b" opacity="0.73" d=" M 60.54 63.97 C 61.71 64.64 61.45 66.25 60.54 67.02 C 60.39 66.47 60.10 65.37 59.95 64.82 L 60.54 63.97 Z" />
<path fill="#9f594c" opacity="1.00" d=" M 16.99 65.96 C 19.32 65.20 21.78 65.33 24.18 65.50 C 22.61 66.38 21.00 67.21 19.42 68.08 C 19.40 70.20 19.15 72.33 18.19 74.26 C 17.56 72.99 16.96 71.72 16.37 70.44 L 16.53 70.22 C 17.69 68.66 18.82 67.09 19.93 65.51 C 19.20 65.62 17.73 65.85 16.99 65.96 Z" />
<path fill="#e0c058" opacity="1.00" d=" M 36.30 75.91 C 40.72 71.09 46.05 67.02 51.99 64.26 C 52.02 65.28 52.08 67.32 52.11 68.34 C 49.31 69.90 46.50 71.44 43.67 72.95 C 41.31 74.16 38.80 75.04 36.30 75.91 Z" />
<path fill="#e0c058" opacity="1.00" d=" M 15.09 66.33 C 15.57 66.24 16.52 66.05 16.99 65.96 C 17.73 65.85 19.20 65.62 19.93 65.51 C 18.82 67.09 17.69 68.66 16.53 70.22 C 16.04 68.92 15.56 67.63 15.09 66.33 Z" />
<path fill="#c28854" opacity="1.00" d=" M 24.93 73.82 C 25.59 71.46 25.53 68.93 26.38 66.61 C 26.76 72.04 25.95 78.58 21.43 82.19 C 22.48 79.35 23.92 76.67 24.93 73.82 Z" />
<path fill="#a36a4a" opacity="1.00" d=" M 36.30 75.91 C 38.80 75.04 41.31 74.16 43.67 72.95 C 44.62 73.67 45.57 74.38 46.52 75.10 C 42.09 76.83 37.66 78.65 32.94 79.44 C 34.03 78.26 34.87 76.72 36.30 75.91 Z" />
</svg>
