<?xml version="1.0" encoding="UTF-8" ?>
<!DOCTYPE svg PUBLIC "-//W3C//DTD SVG 1.1//EN" "http://www.w3.org/Graphics/SVG/1.1/DTD/svg11.dtd">
<svg width="111pt" height="111pt" viewBox="0 0 111 111" version="1.1" xmlns="http://www.w3.org/2000/svg">
<path fill="#000000" opacity="1.00" d=" M 40.14 0.00 L 42.74 0.00 C 44.03 3.76 45.14 7.60 46.73 11.25 C 47.45 12.96 48.21 14.66 48.99 16.35 C 51.27 21.87 55.37 26.70 56.15 32.77 C 48.52 23.18 43.48 11.73 40.14 0.00 Z" />
<path fill="#6e778b" opacity="1.00" d=" M 42.74 0.00 L 49.07 0.00 C 50.57 3.16 51.80 6.43 52.86 9.76 C 51.59 9.48 50.32 9.19 49.06 8.91 C 48.28 9.69 47.51 10.47 46.73 11.25 C 45.14 7.60 44.03 3.76 42.74 0.00 Z" />
<path fill="#000000" opacity="1.00" d=" M 49.07 0.00 L 51.24 0.00 C 56.17 10.61 58.49 22.33 58.82 33.98 C 56.30 26.89 55.32 19.35 54.20 11.94 C 53.96 11.76 53.50 11.41 53.26 11.23 C 53.16 10.86 52.96 10.13 52.86 9.76 C 51.80 6.43 50.57 3.16 49.07 0.00 Z" />
<path fill="#000000" opacity="1.00" d=" M 97.71 0.00 L 99.33 0.00 C 96.07 11.03 93.45 22.88 85.62 31.74 C 83.96 33.83 81.38 36.33 82.73 39.24 C 88.30 33.72 92.33 26.92 96.19 20.16 C 99.70 13.65 101.09 6.16 105.33 0.00 L 107.39 0.00 C 102.04 7.23 100.81 16.48 95.90 23.95 C 100.51 19.83 105.67 16.44 111.00 13.33 L 111.00 15.98 C 103.16 20.94 94.53 25.84 89.57 33.96 C 87.68 36.19 85.61 38.26 83.51 40.30 C 84.58 40.97 85.70 41.67 87.04 41.50 C 91.25 41.48 95.47 41.45 99.66 41.97 C 99.72 41.28 99.84 39.91 99.90 39.22 C 103.81 39.79 107.54 38.38 111.00 36.73 L 111.00 39.90 C 108.52 40.80 105.97 41.51 103.43 42.20 C 104.16 43.40 104.90 44.59 105.63 45.79 C 107.43 45.19 109.23 44.59 111.00 43.91 L 111.00 45.75 C 109.13 46.31 107.24 46.77 105.35 47.26 C 104.07 48.88 102.73 50.46 101.37 52.01 C 100.55 51.49 99.76 50.94 98.96 50.39 C 94.40 51.69 89.64 51.09 85.17 49.76 C 82.45 53.79 77.74 55.18 73.09 55.10 C 85.21 62.82 98.48 68.50 111.00 75.52 L 111.00 78.97 C 98.36 71.92 84.92 66.23 73.04 57.86 C 70.97 62.79 67.79 68.32 62.27 69.81 C 60.24 72.55 58.10 75.20 55.76 77.68 C 56.25 82.99 53.01 87.34 49.83 91.20 C 56.06 87.77 62.57 84.10 69.76 83.42 C 67.53 88.12 64.11 92.12 60.38 95.69 C 62.22 97.33 63.87 99.16 65.34 101.14 C 73.55 101.11 81.70 104.56 86.92 111.00 L 84.62 111.00 C 81.42 108.06 77.76 105.58 73.54 104.34 C 71.46 103.73 69.32 103.33 67.19 102.92 C 66.81 104.31 66.43 105.71 66.05 107.11 C 67.17 108.43 68.30 109.74 69.49 111.00 L 66.20 111.00 C 63.96 107.42 60.42 105.19 56.79 103.23 C 56.66 105.83 56.48 108.43 56.01 111.00 L 53.48 111.00 C 54.70 107.46 55.03 103.59 53.07 100.24 C 51.40 99.95 49.74 99.66 48.07 99.36 C 45.16 102.74 45.88 107.05 46.96 111.00 L 44.94 111.00 C 44.30 107.23 42.18 104.08 39.28 101.65 C 38.90 105.18 40.57 108.31 42.66 111.00 L 39.88 111.00 C 37.27 107.84 36.07 103.84 37.31 99.84 C 37.66 99.72 38.38 99.47 38.73 99.35 C 38.75 98.81 38.79 97.73 38.81 97.19 C 38.25 97.28 37.11 97.47 36.54 97.56 C 36.57 98.18 36.61 99.40 36.63 100.02 C 36.10 99.79 35.02 99.34 34.48 99.11 C 34.74 98.49 35.26 97.25 35.51 96.63 C 33.90 94.92 30.52 92.93 31.90 90.15 C 34.46 87.19 38.46 88.87 41.74 88.61 C 43.64 85.03 44.49 80.67 47.84 77.91 C 46.04 76.88 45.11 75.17 44.94 73.14 C 43.96 72.14 42.98 71.15 42.01 70.15 C 37.48 78.57 30.91 85.66 23.80 91.96 C 24.38 97.26 24.65 103.07 21.85 107.83 C 20.72 110.04 17.02 110.65 15.84 108.18 C 14.23 104.82 14.69 100.96 14.81 97.35 C 9.52 98.08 4.54 95.92 0.00 93.47 L 0.00 89.88 C 4.87 92.80 10.40 94.39 15.96 95.34 C 15.99 99.55 15.61 104.56 18.79 107.82 C 19.87 105.68 20.99 103.50 21.33 101.10 C 21.88 97.70 21.85 94.24 21.67 90.82 C 26.47 85.89 31.60 81.23 35.56 75.57 C 37.88 72.08 41.31 68.87 41.33 64.38 C 37.09 66.30 33.04 69.31 28.11 68.75 C 26.64 69.99 25.19 71.27 23.76 72.56 C 21.68 71.22 19.66 69.77 17.71 68.25 C 16.17 68.88 14.65 69.59 13.02 69.94 C 11.97 68.90 11.13 67.67 10.24 66.49 C 8.29 66.79 6.33 67.09 4.38 67.40 C 4.63 66.23 4.88 65.06 5.12 63.90 C 3.41 63.29 1.69 62.69 0.00 62.03 L 0.00 55.75 C 0.60 56.20 1.80 57.12 2.40 57.57 C 1.50 54.25 0.48 50.93 0.00 47.51 L 0.00 44.00 C 3.28 47.26 1.83 52.52 3.50 56.58 C 5.25 56.70 7.01 56.82 8.77 56.94 C 9.38 56.40 9.99 55.86 10.61 55.32 C 10.83 55.50 11.27 55.86 11.49 56.04 C 15.05 59.78 20.04 61.49 25.09 61.98 C 25.32 61.44 25.79 60.36 26.03 59.82 C 28.28 59.87 30.57 60.30 32.79 59.82 C 34.62 59.11 34.67 56.89 35.37 55.34 C 34.88 54.91 33.90 54.04 33.41 53.61 C 30.56 51.08 27.90 48.33 25.00 45.86 C 21.80 43.43 18.84 40.15 14.68 39.51 C 9.81 38.70 4.88 38.39 0.00 37.63 L 0.00 35.14 C 4.36 35.54 8.69 36.16 13.02 36.77 C 10.79 34.97 8.18 33.45 6.65 30.95 C 5.64 28.87 8.03 26.94 10.00 27.75 C 13.56 29.04 16.88 31.01 19.97 33.18 C 23.14 35.40 24.89 39.71 29.07 40.30 C 34.82 41.75 40.52 43.44 46.04 45.64 C 46.35 44.27 46.68 42.90 47.01 41.53 C 35.51 38.29 25.31 31.87 15.01 26.03 C 9.57 22.94 4.69 18.99 0.00 14.87 L 0.00 10.64 C 7.83 13.08 15.14 16.87 22.28 20.85 C 31.52 26.25 40.49 32.37 47.74 40.31 C 50.19 37.30 53.44 35.08 57.21 34.07 C 57.63 34.14 58.48 34.28 58.90 34.35 C 60.61 34.78 62.57 34.90 63.94 36.12 C 65.37 37.85 65.98 40.07 66.84 42.10 C 68.49 40.33 70.23 38.62 72.26 37.28 C 76.41 35.00 77.85 30.20 80.28 26.44 C 82.33 23.43 82.72 19.00 86.23 17.24 C 86.05 22.35 84.73 27.31 83.74 32.31 C 90.95 22.79 94.34 11.26 97.71 0.00 M 2.76 13.43 C 7.45 18.55 13.74 21.76 19.42 25.60 C 22.52 27.36 25.45 29.47 28.74 30.86 C 33.16 33.95 38.26 35.98 43.20 38.07 C 40.19 34.82 36.46 32.38 32.75 30.00 C 26.06 25.64 19.25 21.40 11.94 18.14 C 8.81 16.72 5.77 15.11 2.76 13.43 M 77.35 35.99 C 78.53 36.28 79.72 36.57 80.91 36.85 C 81.43 33.47 82.49 30.19 82.92 26.78 C 80.89 29.74 79.16 32.90 77.35 35.99 M 7.98 29.05 C 8.78 33.69 14.39 35.08 17.04 38.57 L 17.58 38.44 C 19.18 40.23 21.04 41.76 23.13 42.94 C 26.92 45.00 29.57 48.51 32.85 51.22 C 34.58 52.61 35.88 54.39 37.11 56.21 C 36.73 54.91 36.55 53.50 35.66 52.42 C 31.62 46.74 25.65 42.90 21.20 37.59 C 19.73 35.76 17.83 34.37 15.84 33.16 C 13.30 31.65 11.04 29.39 7.98 29.05 M 55.00 39.22 C 55.09 38.77 55.28 37.86 55.38 37.40 C 51.88 39.40 48.20 42.59 49.13 47.10 C 49.48 46.99 50.19 46.75 50.55 46.63 C 51.93 45.98 53.23 45.16 54.47 44.27 C 54.34 42.91 54.23 41.55 54.12 40.20 L 54.70 39.93 C 54.97 40.62 55.51 41.99 55.77 42.67 C 57.76 41.28 59.59 39.66 60.99 37.67 C 58.79 37.03 56.28 36.96 55.00 39.22 M 61.22 39.80 C 60.96 40.14 60.45 40.83 60.20 41.17 C 61.03 44.55 64.94 38.98 61.22 39.80 M 72.85 40.65 C 72.74 41.59 72.54 43.49 72.43 44.44 C 75.75 45.64 78.28 43.08 80.29 40.83 C 77.87 40.02 75.26 39.50 72.85 40.65 M 69.46 43.11 C 68.62 45.57 68.50 48.55 70.63 50.41 C 74.44 53.51 81.15 52.57 82.42 47.28 C 82.41 45.40 82.22 43.51 81.25 41.86 C 78.85 43.70 76.48 46.74 73.05 45.81 C 70.78 45.79 71.62 42.84 71.24 41.47 C 70.80 41.88 69.91 42.70 69.46 43.11 M 29.54 42.73 C 30.86 44.79 32.45 46.67 34.52 48.02 C 34.15 46.52 33.78 45.02 33.39 43.53 C 32.10 43.26 30.82 42.99 29.54 42.73 M 56.92 46.07 C 55.87 48.68 55.22 52.56 57.97 54.35 C 61.30 55.03 64.10 52.41 66.29 50.26 C 66.94 48.08 66.76 45.73 66.98 43.48 C 63.58 44.00 59.92 44.21 56.92 46.07 M 85.13 47.79 C 89.90 48.55 94.77 48.95 99.60 48.42 C 100.30 48.97 101.01 49.52 101.72 50.07 C 103.05 47.81 104.53 44.84 101.35 43.37 C 96.27 44.98 90.72 44.99 85.58 43.63 C 85.43 45.02 85.28 46.41 85.13 47.79 M 36.69 44.64 C 38.86 47.70 40.93 51.74 45.21 51.85 C 46.05 50.93 46.89 50.00 47.72 49.06 C 44.58 46.51 40.47 45.76 36.69 44.64 M 36.37 47.16 C 36.94 49.10 37.54 51.07 38.56 52.84 C 42.64 52.20 38.07 48.07 36.37 47.16 M 49.40 51.57 C 48.44 54.08 48.65 56.84 48.64 59.48 C 48.80 60.04 49.11 61.17 49.27 61.74 C 50.49 61.77 51.70 61.81 52.91 61.86 C 55.98 64.11 59.85 65.05 62.57 67.82 C 66.32 64.06 70.54 59.95 70.84 54.30 C 69.83 53.43 68.83 52.56 67.83 51.69 C 64.96 54.14 61.80 56.53 57.81 56.40 C 55.20 55.02 54.20 52.29 54.06 49.48 C 54.39 48.83 55.05 47.53 55.38 46.88 C 53.20 48.10 50.72 49.33 49.40 51.57 M 38.63 56.94 C 39.00 58.73 39.43 60.52 40.23 62.18 C 41.04 58.90 42.79 56.00 44.01 52.89 C 41.34 52.71 39.48 54.59 38.63 56.94 M 45.05 54.95 L 44.55 55.63 C 43.47 58.45 42.83 61.41 42.73 64.43 C 43.41 66.68 42.97 70.14 45.57 71.21 C 45.88 69.50 46.09 67.76 46.57 66.09 C 47.12 64.18 48.93 62.26 47.47 60.32 C 47.04 57.94 47.04 55.53 47.11 53.13 C 46.60 53.58 45.56 54.49 45.05 54.95 M 10.33 58.06 C 10.01 58.42 9.37 59.12 9.05 59.48 C 7.14 58.51 2.89 58.11 2.76 60.93 C 4.78 62.04 6.84 63.21 7.67 65.52 C 8.53 65.27 10.25 64.77 11.11 64.52 C 12.38 65.19 12.83 66.60 13.35 67.83 C 14.88 67.32 16.41 66.83 17.96 66.37 C 19.56 68.00 21.34 69.93 23.83 69.86 C 25.13 69.32 26.00 68.15 26.96 67.16 C 26.42 66.31 25.89 65.47 25.36 64.62 C 19.66 64.24 14.78 61.38 10.33 58.06 M 31.84 62.33 C 30.47 59.91 25.59 62.38 28.84 64.05 C 28.84 64.61 28.85 65.72 28.85 66.28 C 32.31 67.15 35.51 65.11 38.32 63.39 C 37.71 61.73 37.18 60.02 36.71 58.31 C 35.24 59.84 33.61 61.18 31.84 62.33 M 49.63 64.35 C 47.54 67.76 46.92 71.90 47.57 75.82 C 48.58 75.19 50.11 74.97 50.64 73.76 C 53.26 71.05 54.17 67.30 53.22 63.66 C 52.02 63.89 50.83 64.11 49.63 64.35 M 55.80 65.28 C 56.40 69.68 53.75 73.14 51.31 76.44 C 55.52 75.36 59.40 72.01 59.79 67.49 C 58.45 66.76 57.12 66.02 55.80 65.28 M 44.29 88.43 C 45.91 88.92 47.97 89.82 49.39 88.36 C 51.97 85.65 53.55 82.05 53.75 78.31 C 47.72 77.10 45.23 83.72 44.29 88.43 M 57.33 89.29 C 58.62 90.40 59.92 91.50 61.32 92.47 C 62.62 90.60 63.93 88.73 65.21 86.84 C 62.56 87.58 59.93 88.39 57.33 89.29 M 33.20 91.78 C 34.35 93.39 36.00 94.54 37.49 95.81 C 37.35 93.71 37.39 91.57 38.49 89.70 C 36.79 90.12 33.75 89.56 33.20 91.78 M 38.95 92.19 C 39.43 94.61 40.15 96.97 41.00 99.28 C 41.75 100.92 42.47 102.58 43.21 104.22 C 44.94 102.42 46.01 100.12 46.47 97.67 C 47.80 96.33 49.64 95.07 50.01 93.13 C 47.82 91.66 45.15 91.15 42.88 89.80 C 41.57 90.58 40.26 91.39 38.95 92.19 M 51.06 91.92 C 51.23 92.70 51.40 93.48 51.56 94.27 C 50.83 95.32 50.11 96.37 49.39 97.43 C 53.57 99.12 57.18 95.83 59.96 93.15 C 59.27 93.08 57.89 92.93 57.21 92.85 L 58.70 91.21 C 58.06 90.86 56.77 90.17 56.13 89.83 C 54.44 90.54 52.75 91.22 51.06 91.92 M 55.22 99.16 C 57.51 102.15 61.16 103.37 64.70 104.16 C 63.56 101.36 61.57 98.88 59.06 97.19 C 57.58 97.26 56.49 98.55 55.22 99.16 Z" />
<path fill="#525973" opacity="1.00" d=" M 99.33 0.00 L 105.33 0.00 C 101.09 6.16 99.70 13.65 96.19 20.16 C 92.33 26.92 88.30 33.72 82.73 39.24 C 81.38 36.33 83.96 33.83 85.62 31.74 C 93.45 22.88 96.07 11.03 99.33 0.00 Z" />
<path fill="#5a617a" opacity="1.00" d=" M 46.73 11.25 C 47.51 10.47 48.28 9.69 49.06 8.91 C 50.32 9.19 51.59 9.48 52.86 9.76 C 52.96 10.13 53.16 10.86 53.26 11.23 C 53.03 12.40 52.78 13.57 52.52 14.74 C 51.34 15.28 50.17 15.81 48.99 16.35 C 48.21 14.66 47.45 12.96 46.73 11.25 Z" />
<path fill="#434867" opacity="1.00" d=" M 53.26 11.23 C 53.50 11.41 53.96 11.76 54.20 11.94 C 55.32 19.35 56.30 26.89 58.82 33.98 L 58.90 34.35 C 58.48 34.28 57.63 34.14 57.21 34.07 C 56.94 33.74 56.41 33.09 56.15 32.77 C 55.37 26.70 51.27 21.87 48.99 16.35 C 50.17 15.81 51.34 15.28 52.52 14.74 C 52.78 13.57 53.03 12.40 53.26 11.23 Z" />
<path fill="#828b9c" opacity="1.00" d=" M 2.76 13.43 C 5.77 15.11 8.81 16.72 11.94 18.14 C 19.25 21.40 26.06 25.64 32.75 30.00 C 31.42 30.30 30.08 30.59 28.74 30.86 C 25.45 29.47 22.52 27.36 19.42 25.60 C 13.74 21.76 7.45 18.55 2.76 13.43 Z" />
<path fill="#454a68" opacity="1.00" d=" M 89.57 33.96 C 94.53 25.84 103.16 20.94 111.00 15.98 L 111.00 20.68 C 103.98 25.28 97.35 30.67 89.57 33.96 Z" />
<path fill="#626a81" opacity="1.00" d=" M 89.57 33.96 C 97.35 30.67 103.98 25.28 111.00 20.68 L 111.00 36.73 C 107.54 38.38 103.81 39.79 99.90 39.22 C 99.84 39.91 99.72 41.28 99.66 41.97 C 95.47 41.45 91.25 41.48 87.04 41.50 C 85.70 41.67 84.58 40.97 83.51 40.30 C 85.61 38.26 87.68 36.19 89.57 33.96 Z" />
<path fill="#6f788d" opacity="1.00" d=" M 77.35 35.99 C 79.16 32.90 80.89 29.74 82.92 26.78 C 82.49 30.19 81.43 33.47 80.91 36.85 C 79.72 36.57 78.53 36.28 77.35 35.99 Z" />
<path fill="#313554" opacity="1.00" d=" M 7.98 29.05 C 11.04 29.39 13.30 31.65 15.84 33.16 C 17.83 34.37 19.73 35.76 21.20 37.59 C 20.00 37.87 18.79 38.16 17.58 38.44 L 17.04 38.57 C 14.39 35.08 8.78 33.69 7.98 29.05 Z" />
<path fill="#535974" opacity="1.00" d=" M 32.75 30.00 C 36.46 32.38 40.19 34.82 43.20 38.07 C 38.26 35.98 33.16 33.95 28.74 30.86 C 30.08 30.59 31.42 30.30 32.75 30.00 Z" />
<path fill="#974278" opacity="1.00" d=" M 55.00 39.22 C 56.28 36.96 58.79 37.03 60.99 37.67 C 59.59 39.66 57.76 41.28 55.77 42.67 C 55.51 41.99 54.97 40.62 54.70 39.93 L 55.00 39.22 Z" />
<path fill="#616981" opacity="1.00" d=" M 0.00 37.63 C 4.88 38.39 9.81 38.70 14.68 39.51 C 18.84 40.15 21.80 43.43 25.00 45.86 C 22.81 48.14 21.32 50.96 19.31 53.37 C 17.09 55.10 14.14 55.38 11.49 56.04 C 11.27 55.86 10.83 55.50 10.61 55.32 C 9.99 55.86 9.38 56.40 8.77 56.94 C 7.01 56.82 5.25 56.70 3.50 56.58 C 1.83 52.52 3.28 47.26 0.00 44.00 L 0.00 37.63 Z" />
<path fill="#5a617a" opacity="1.00" d=" M 17.58 38.44 C 18.79 38.16 20.00 37.87 21.20 37.59 C 25.65 42.90 31.62 46.74 35.66 52.42 C 36.55 53.50 36.73 54.91 37.11 56.21 C 35.88 54.39 34.58 52.61 32.85 51.22 C 29.57 48.51 26.92 45.00 23.13 42.94 C 21.04 41.76 19.18 40.23 17.58 38.44 Z" />
<path fill="#98988a" opacity="1.00" d=" M 49.13 47.10 C 48.20 42.59 51.88 39.40 55.38 37.40 C 55.28 37.86 55.09 38.77 55.00 39.22 L 54.70 39.93 L 54.12 40.20 L 53.82 39.92 C 52.61 42.10 51.56 44.36 50.55 46.63 C 50.19 46.75 49.48 46.99 49.13 47.10 Z" />
<path fill="#4f5066" opacity="1.00" d=" M 53.82 39.92 L 54.12 40.20 C 54.23 41.55 54.34 42.91 54.47 44.27 C 53.23 45.16 51.93 45.98 50.55 46.63 C 51.56 44.36 52.61 42.10 53.82 39.92 Z" />
<path fill="#383550" opacity="1.00" d=" M 61.22 39.80 C 64.94 38.98 61.03 44.55 60.20 41.17 C 60.45 40.83 60.96 40.14 61.22 39.80 Z" />
<path fill="#6f788d" opacity="1.00" d=" M 72.85 40.65 C 75.26 39.50 77.87 40.02 80.29 40.83 C 78.28 43.08 75.75 45.64 72.43 44.44 C 72.54 43.49 72.74 41.59 72.85 40.65 Z" />
<path fill="#4e4d67" opacity="1.00" d=" M 103.43 42.20 C 105.97 41.51 108.52 40.80 111.00 39.90 L 111.00 43.91 C 109.23 44.59 107.43 45.19 105.63 45.79 C 104.90 44.59 104.16 43.40 103.43 42.20 Z" />
<path fill="#54556c" opacity="1.00" d=" M 69.46 43.11 C 69.91 42.70 70.80 41.88 71.24 41.47 C 71.62 42.84 70.78 45.79 73.05 45.81 C 76.48 46.74 78.85 43.70 81.25 41.86 C 82.22 43.51 82.41 45.40 82.42 47.28 C 78.92 48.67 74.74 49.83 71.32 47.60 C 69.58 46.82 69.89 44.65 69.46 43.11 Z" />
<path fill="#434357" opacity="1.00" d=" M 29.54 42.73 C 30.82 42.99 32.10 43.26 33.39 43.53 C 33.78 45.02 34.15 46.52 34.52 48.02 C 32.45 46.67 30.86 44.79 29.54 42.73 Z" />
<path fill="#3e3b5c" opacity="1.00" d=" M 70.63 50.41 C 68.50 48.55 68.62 45.57 69.46 43.11 C 69.89 44.65 69.58 46.82 71.32 47.60 C 74.74 49.83 78.92 48.67 82.42 47.28 C 81.15 52.57 74.44 53.51 70.63 50.41 Z" />
<path fill="#535974" opacity="1.00" d=" M 56.92 46.07 C 59.92 44.21 63.58 44.00 66.98 43.48 C 66.76 45.73 66.94 48.08 66.29 50.26 C 64.10 52.41 61.30 55.03 57.97 54.35 C 55.22 52.56 55.87 48.68 56.92 46.07 Z" />
<path fill="#464362" opacity="1.00" d=" M 85.13 47.79 C 85.28 46.41 85.43 45.02 85.58 43.63 C 90.72 44.99 96.27 44.98 101.35 43.37 C 104.53 44.84 103.05 47.81 101.72 50.07 C 101.01 49.52 100.30 48.97 99.60 48.42 C 94.77 48.95 89.90 48.55 85.13 47.79 Z" />
<path fill="#413f5d" opacity="1.00" d=" M 36.69 44.64 C 40.47 45.76 44.58 46.51 47.72 49.06 C 46.89 50.00 46.05 50.93 45.21 51.85 C 40.93 51.74 38.86 47.70 36.69 44.64 Z" />
<path fill="#525873" opacity="1.00" d=" M 25.00 45.86 C 27.90 48.33 30.56 51.08 33.41 53.61 C 31.54 56.33 29.38 58.99 26.03 59.82 C 25.79 60.36 25.32 61.44 25.09 61.98 C 20.04 61.49 15.05 59.78 11.49 56.04 C 14.14 55.38 17.09 55.10 19.31 53.37 C 21.32 50.96 22.81 48.14 25.00 45.86 Z" />
<path fill="#616880" opacity="1.00" d=" M 105.35 47.26 C 107.24 46.77 109.13 46.31 111.00 45.75 L 111.00 52.44 C 107.78 52.50 104.55 52.49 101.37 52.01 C 102.73 50.46 104.07 48.88 105.35 47.26 Z" />
<path fill="#5d6078" opacity="1.00" d=" M 0.00 47.51 C 0.48 50.93 1.50 54.25 2.40 57.57 C 1.80 57.12 0.60 56.20 0.00 55.75 L 0.00 47.51 Z" />
<path fill="#2a2d47" opacity="1.00" d=" M 36.37 47.16 C 38.07 48.07 42.64 52.20 38.56 52.84 C 37.54 51.07 36.94 49.10 36.37 47.16 Z" />
<path fill="#d3d2bf" opacity="1.00" d=" M 49.40 51.57 C 50.72 49.33 53.20 48.10 55.38 46.88 C 55.05 47.53 54.39 48.83 54.06 49.48 L 53.60 50.36 C 53.77 50.85 54.09 51.84 54.26 52.33 C 52.87 53.05 51.43 53.66 49.97 54.23 C 49.77 55.91 49.60 57.59 49.39 59.27 L 48.64 59.48 C 48.65 56.84 48.44 54.08 49.40 51.57 Z" />
<path fill="#55586e" opacity="1.00" d=" M 53.60 50.36 L 54.06 49.48 C 54.20 52.29 55.20 55.02 57.81 56.40 C 58.28 56.77 59.23 57.51 59.70 57.89 C 56.25 58.25 52.78 58.52 49.39 59.27 C 49.60 57.59 49.77 55.91 49.97 54.23 C 51.43 53.66 52.87 53.05 54.26 52.33 C 54.09 51.84 53.77 50.85 53.60 50.36 Z" />
<path fill="#3d4262" opacity="1.00" d=" M 73.09 55.10 C 77.74 55.18 82.45 53.79 85.17 49.76 C 89.64 51.09 94.40 51.69 98.96 50.39 C 99.76 50.94 100.55 51.49 101.37 52.01 C 104.55 52.49 107.78 52.50 111.00 52.44 L 111.00 75.52 C 98.48 68.50 85.21 62.82 73.09 55.10 Z" />
<path fill="#2e294c" opacity="1.00" d=" M 57.81 56.40 C 61.80 56.53 64.96 54.14 67.83 51.69 C 68.83 52.56 69.83 53.43 70.84 54.30 C 70.54 59.95 66.32 64.06 62.57 67.82 C 59.85 65.05 55.98 64.11 52.91 61.86 C 51.70 61.81 50.49 61.77 49.27 61.74 C 49.11 61.17 48.80 60.04 48.64 59.48 L 49.39 59.27 C 52.78 58.52 56.25 58.25 59.70 57.89 C 59.23 57.51 58.28 56.77 57.81 56.40 Z" />
<path fill="#585a70" opacity="1.00" d=" M 38.63 56.94 C 39.48 54.59 41.34 52.71 44.01 52.89 C 42.79 56.00 41.04 58.90 40.23 62.18 C 39.43 60.52 39.00 58.73 38.63 56.94 Z" />
<path fill="#323655" opacity="1.00" d=" M 33.41 53.61 C 33.90 54.04 34.88 54.91 35.37 55.34 C 34.67 56.89 34.62 59.11 32.79 59.82 C 30.57 60.30 28.28 59.87 26.03 59.82 C 29.38 58.99 31.54 56.33 33.41 53.61 Z" />
<path fill="#545568" opacity="1.00" d=" M 45.05 54.95 C 45.56 54.49 46.60 53.58 47.11 53.13 C 47.04 55.53 47.04 57.94 47.47 60.32 C 45.92 61.72 44.34 63.09 42.73 64.43 C 42.83 61.41 43.47 58.45 44.55 55.63 C 45.29 58.05 47.51 55.04 45.05 54.95 Z" />
<path fill="#8b8b8c" opacity="1.00" d=" M 45.05 54.95 C 47.51 55.04 45.29 58.05 44.55 55.63 L 45.05 54.95 Z" />
<path fill="#585a70" opacity="1.00" d=" M 10.33 58.06 C 14.78 61.38 19.66 64.24 25.36 64.62 C 25.89 65.47 26.42 66.31 26.96 67.16 C 26.00 68.15 25.13 69.32 23.83 69.86 C 21.34 69.93 19.56 68.00 17.96 66.37 C 16.41 66.83 14.88 67.32 13.35 67.83 C 12.83 66.60 12.38 65.19 11.11 64.52 C 10.25 64.77 8.53 65.27 7.67 65.52 C 6.84 63.21 4.78 62.04 2.76 60.93 C 2.89 58.11 7.14 58.51 9.05 59.48 C 9.37 59.12 10.01 58.42 10.33 58.06 Z" />
<path fill="#353051" opacity="1.00" d=" M 31.84 62.33 C 33.61 61.18 35.24 59.84 36.71 58.31 C 37.18 60.02 37.71 61.73 38.32 63.39 C 35.51 65.11 32.31 67.15 28.85 66.28 C 28.85 65.72 28.84 64.61 28.84 64.05 C 29.91 63.60 30.92 63.03 31.84 62.33 Z" />
<path fill="#2d2947" opacity="1.00" d=" M 47.47 60.32 C 48.93 62.26 47.12 64.18 46.57 66.09 C 46.09 67.76 45.88 69.50 45.57 71.21 C 42.97 70.14 43.41 66.68 42.73 64.43 C 44.34 63.09 45.92 61.72 47.47 60.32 Z" />
<path fill="#56576f" opacity="1.00" d=" M 28.84 64.05 C 25.59 62.38 30.47 59.91 31.84 62.33 C 30.92 63.03 29.91 63.60 28.84 64.05 Z" />
<path fill="#373b5d" opacity="1.00" d=" M 0.00 62.03 C 1.69 62.69 3.41 63.29 5.12 63.90 C 4.88 65.06 4.63 66.23 4.38 67.40 C 6.33 67.09 8.29 66.79 10.24 66.49 C 11.13 67.67 11.97 68.90 13.02 69.94 C 14.65 69.59 16.17 68.88 17.71 68.25 C 19.66 69.77 21.68 71.22 23.76 72.56 C 25.19 71.27 26.64 69.99 28.11 68.75 C 33.04 69.31 37.09 66.30 41.33 64.38 C 41.31 68.87 37.88 72.08 35.56 75.57 C 31.60 81.23 26.47 85.89 21.67 90.82 C 21.85 94.24 21.88 97.70 21.33 101.10 C 21.38 99.13 21.35 97.16 21.33 95.19 C 19.54 95.26 17.75 95.37 15.96 95.34 C 10.40 94.39 4.87 92.80 0.00 89.88 L 0.00 62.03 Z" />
<path fill="#717a8e" opacity="1.00" d=" M 49.63 64.35 C 50.83 64.11 52.02 63.89 53.22 63.66 C 54.17 67.30 53.26 71.05 50.64 73.76 C 50.66 70.60 50.29 67.44 49.63 64.35 Z" />
<path fill="#4e5571" opacity="1.00" d=" M 47.57 75.82 C 46.92 71.90 47.54 67.76 49.63 64.35 C 50.29 67.44 50.66 70.60 50.64 73.76 C 50.11 74.97 48.58 75.19 47.57 75.82 Z" />
<path fill="#3d3a58" opacity="1.00" d=" M 55.80 65.28 C 57.12 66.02 58.45 66.76 59.79 67.49 C 59.40 72.01 55.52 75.36 51.31 76.44 C 53.75 73.14 56.40 69.68 55.80 65.28 Z" />
<path fill="#56586e" opacity="1.00" d=" M 44.29 88.43 C 45.23 83.72 47.72 77.10 53.75 78.31 C 53.55 82.05 51.97 85.65 49.39 88.36 C 47.97 89.82 45.91 88.92 44.29 88.43 Z" />
<path fill="#4e4d67" opacity="1.00" d=" M 57.33 89.29 C 59.93 88.39 62.56 87.58 65.21 86.84 C 63.93 88.73 62.62 90.60 61.32 92.47 C 59.92 91.50 58.62 90.40 57.33 89.29 Z" />
<path fill="#5d6078" opacity="1.00" d=" M 33.20 91.78 C 33.75 89.56 36.79 90.12 38.49 89.70 C 37.39 91.57 37.35 93.71 37.49 95.81 C 36.00 94.54 34.35 93.39 33.20 91.78 Z" />
<path fill="#55576e" opacity="1.00" d=" M 38.95 92.19 C 40.26 91.39 41.57 90.58 42.88 89.80 C 45.15 91.15 47.82 91.66 50.01 93.13 C 49.64 95.07 47.80 96.33 46.47 97.67 C 44.67 98.27 42.84 98.78 41.00 99.28 C 40.15 96.97 39.43 94.61 38.95 92.19 Z" />
<path fill="#413f5c" opacity="1.00" d=" M 51.06 91.92 C 52.75 91.22 54.44 90.54 56.13 89.83 C 56.77 90.17 58.06 90.86 58.70 91.21 L 57.21 92.85 C 57.89 92.93 59.27 93.08 59.96 93.15 C 57.18 95.83 53.57 99.12 49.39 97.43 C 50.11 96.37 50.83 95.32 51.56 94.27 C 51.40 93.48 51.23 92.70 51.06 91.92 Z" />
<path fill="#727c8e" opacity="1.00" d=" M 15.96 95.34 C 17.75 95.37 19.54 95.26 21.33 95.19 C 21.35 97.16 21.38 99.13 21.33 101.10 C 20.99 103.50 19.87 105.68 18.79 107.82 C 15.61 104.56 15.99 99.55 15.96 95.34 Z" />
<path fill="#626a81" opacity="1.00" d=" M 36.54 97.56 C 37.11 97.47 38.25 97.28 38.81 97.19 C 38.79 97.73 38.75 98.81 38.73 99.35 C 38.38 99.47 37.66 99.72 37.31 99.84 L 36.63 100.02 C 36.61 99.40 36.57 98.18 36.54 97.56 Z" />
<path fill="#474661" opacity="1.00" d=" M 55.22 99.16 C 56.49 98.55 57.58 97.26 59.06 97.19 C 61.57 98.88 63.56 101.36 64.70 104.16 C 61.16 103.37 57.51 102.15 55.22 99.16 Z" />
<path fill="#35324e" opacity="1.00" d=" M 41.00 99.28 C 42.84 98.78 44.67 98.27 46.47 97.67 C 46.01 100.12 44.94 102.42 43.21 104.22 C 42.47 102.58 41.75 100.92 41.00 99.28 Z" />
<path fill="#45435f" opacity="1.00" d=" M 48.07 99.36 C 49.74 99.66 51.40 99.95 53.07 100.24 C 55.03 103.59 54.70 107.46 53.48 111.00 L 46.96 111.00 C 45.88 107.05 45.16 102.74 48.07 99.36 Z" />
<path fill="#464362" opacity="1.00" d=" M 39.28 101.65 C 42.18 104.08 44.30 107.23 44.94 111.00 L 42.66 111.00 C 40.57 108.31 38.90 105.18 39.28 101.65 Z" />
<path fill="#383554" opacity="1.00" d=" M 67.19 102.92 C 69.32 103.33 71.46 103.73 73.54 104.34 C 74.08 106.86 75.45 109.07 77.12 111.00 L 69.49 111.00 C 68.30 109.74 67.17 108.43 66.05 107.11 C 66.43 105.71 66.81 104.31 67.19 102.92 Z" />
<path fill="#464461" opacity="1.00" d=" M 77.12 111.00 C 75.45 109.07 74.08 106.86 73.54 104.34 C 77.76 105.58 81.42 108.06 84.62 111.00 L 77.12 111.00 Z" />
</svg>
