<?xml version="1.0" encoding="UTF-8" ?>
<!DOCTYPE svg PUBLIC "-//W3C//DTD SVG 1.1//EN" "http://www.w3.org/Graphics/SVG/1.1/DTD/svg11.dtd">
<svg width="111pt" height="111pt" viewBox="0 0 111 111" version="1.1" xmlns="http://www.w3.org/2000/svg">
<path fill="#000000" opacity="1.00" d=" M 23.43 0.00 L 25.82 0.00 C 28.39 10.69 31.14 21.42 31.32 32.48 C 32.91 31.42 34.51 30.37 36.10 29.30 C 40.62 31.27 43.16 35.66 43.73 40.42 C 45.75 38.67 48.02 37.24 50.58 36.46 C 51.62 37.65 53.84 36.56 53.26 35.00 C 65.55 27.75 76.87 18.63 90.29 13.43 C 89.27 8.96 89.48 4.24 91.31 0.00 L 94.50 0.00 C 91.99 4.05 92.08 8.95 91.70 13.54 C 91.65 15.13 91.66 16.72 91.68 18.32 C 98.62 14.95 102.17 7.24 103.54 0.00 L 105.77 0.00 C 105.86 0.68 106.05 2.04 106.15 2.73 C 107.78 3.48 109.41 4.23 111.00 5.08 L 111.00 7.79 C 109.29 6.56 107.52 5.42 105.77 4.26 C 104.05 10.29 100.65 15.77 95.93 19.92 C 96.04 23.51 92.27 24.40 89.69 25.65 C 78.86 30.23 68.51 35.86 57.55 40.13 C 57.39 41.69 57.74 43.39 57.05 44.86 C 55.99 46.36 54.05 46.71 52.49 47.47 C 55.07 52.20 55.51 57.59 55.36 62.88 C 58.10 62.30 60.25 60.34 62.93 59.57 C 64.34 62.33 66.18 64.84 67.91 67.41 C 69.41 65.77 71.33 64.88 73.57 65.41 C 73.81 69.30 73.83 73.20 73.55 77.10 C 74.02 77.33 74.97 77.81 75.44 78.04 C 80.75 70.80 88.37 65.86 95.25 60.26 C 100.10 56.34 105.47 53.11 111.00 50.24 L 111.00 53.63 C 101.86 58.23 94.16 65.04 85.95 71.05 C 82.91 73.28 80.06 75.78 77.49 78.55 L 79.67 78.64 C 84.64 74.77 89.55 69.70 96.00 68.73 C 96.27 69.17 96.81 70.06 97.08 70.50 C 95.50 73.85 94.16 77.32 93.19 80.90 C 99.37 79.10 105.03 75.81 111.00 73.42 L 111.00 76.71 C 104.88 79.39 98.79 82.12 92.71 84.88 C 91.28 90.35 94.05 95.53 96.97 99.97 C 100.24 104.80 104.95 108.57 110.24 111.00 L 105.48 111.00 C 100.55 108.09 96.47 103.88 93.53 98.99 C 91.95 94.43 88.11 90.01 90.12 85.00 C 87.76 89.54 85.96 94.87 88.29 99.83 C 91.03 105.25 96.22 108.98 101.84 111.00 L 84.78 111.00 C 81.66 107.85 78.97 104.32 76.22 100.86 C 74.89 99.15 73.53 97.46 72.33 95.67 C 70.71 92.96 69.35 90.11 67.91 87.31 C 66.42 87.80 64.92 88.28 63.43 88.76 C 63.46 91.37 63.53 94.04 64.62 96.47 C 65.97 99.38 67.84 102.05 70.37 104.06 C 73.02 106.30 75.46 108.78 78.13 111.00 L 31.50 111.00 C 35.67 110.67 39.85 110.53 44.03 110.30 C 45.33 110.07 47.15 110.28 47.94 108.98 C 50.16 105.38 50.67 101.05 52.34 97.21 C 53.51 94.55 54.39 91.77 54.59 88.86 C 51.08 87.30 47.82 85.20 45.10 82.47 C 43.38 84.64 41.51 86.69 39.59 88.69 C 39.55 91.64 40.07 94.83 38.68 97.57 C 36.10 102.77 32.30 107.30 27.86 111.00 L 24.17 111.00 C 27.04 108.81 29.66 106.29 31.94 103.49 C 35.55 99.40 38.30 94.21 37.26 88.57 C 35.16 91.48 33.32 94.57 31.29 97.53 C 27.84 102.15 24.06 106.52 20.43 111.00 L 17.25 111.00 C 24.69 103.96 29.87 95.03 36.06 86.94 C 33.96 84.92 31.87 82.90 29.81 80.84 C 33.59 77.69 38.61 76.04 43.54 76.47 C 44.12 73.36 45.62 70.60 47.05 67.83 C 48.01 64.85 45.49 62.46 43.60 60.58 C 43.56 60.53 43.48 60.43 43.44 60.39 C 40.99 57.67 39.50 54.29 38.82 50.73 C 37.05 52.09 35.97 54.57 33.51 54.79 C 33.50 53.89 33.49 52.08 33.48 51.18 C 32.30 52.38 31.15 53.61 30.02 54.87 C 28.16 51.18 25.64 47.89 23.27 44.52 C 21.03 44.31 18.83 43.83 16.67 43.22 C 16.21 43.80 15.28 44.95 14.82 45.53 C 14.64 44.38 14.47 43.23 14.29 42.08 C 9.42 39.73 4.50 37.41 0.00 34.39 L 0.00 30.52 C 3.02 32.76 6.34 34.54 9.54 36.51 C 11.35 37.56 13.19 39.01 15.43 38.48 C 10.52 34.13 5.10 30.41 0.00 26.29 L 0.00 22.84 C 4.65 26.78 9.50 30.50 14.42 34.09 C 13.17 30.91 11.35 27.88 11.22 24.38 C 15.51 28.82 20.51 32.50 24.76 37.00 C 26.32 35.69 27.95 34.44 29.61 33.26 C 28.67 27.36 28.10 21.40 26.68 15.59 C 25.43 10.43 23.85 5.32 23.43 0.00 M 72.32 26.57 C 69.00 27.92 66.26 30.41 63.14 32.18 C 60.22 34.25 56.69 35.49 54.19 38.11 C 56.46 39.15 58.45 37.33 60.39 36.45 C 70.43 31.31 80.19 25.55 90.73 21.43 C 91.17 19.81 88.98 19.24 88.13 18.20 L 87.79 17.24 C 82.48 19.93 77.53 23.58 72.32 26.57 M 16.35 32.29 C 15.84 37.10 20.75 38.69 24.09 40.63 C 24.29 40.01 24.69 38.78 24.89 38.16 C 21.68 36.77 19.05 34.45 16.35 32.29 M 28.70 37.50 C 26.94 39.74 23.73 43.70 26.79 46.12 C 26.71 46.67 26.54 47.76 26.46 48.31 C 27.94 49.26 29.46 50.15 31.02 50.97 C 33.81 47.84 37.12 45.14 39.60 41.75 C 39.82 38.75 39.16 35.76 37.17 33.44 C 33.90 33.57 30.84 35.01 28.70 37.50 M 16.71 38.65 C 16.15 42.32 21.07 42.18 23.35 43.58 C 23.49 43.06 23.76 42.04 23.89 41.52 C 21.47 40.65 19.09 39.66 16.71 38.65 M 46.33 43.47 C 46.40 45.47 48.57 45.89 50.01 46.61 C 51.14 45.26 52.97 43.92 52.64 41.91 C 52.10 40.32 50.08 40.29 48.87 39.45 C 47.50 40.32 45.73 41.58 46.33 43.47 M 38.62 49.20 C 41.29 49.69 43.61 47.97 44.55 45.55 C 42.53 46.59 39.59 46.83 38.62 49.20 M 36.54 48.27 C 35.39 48.86 34.38 50.52 35.08 51.76 C 36.74 52.52 38.37 48.59 36.54 48.27 M 43.82 48.53 L 43.54 50.00 C 45.16 53.17 47.24 56.11 48.45 59.49 C 48.16 61.12 49.42 64.24 51.38 62.42 C 54.38 58.29 51.79 52.54 49.84 48.36 C 48.52 48.05 47.19 47.74 45.86 47.42 C 45.35 47.70 44.33 48.26 43.82 48.53 M 40.72 50.57 C 41.34 53.31 42.64 56.08 45.15 57.55 C 44.03 55.15 43.85 51.19 40.72 50.57 M 48.91 67.02 C 51.45 66.89 54.16 65.72 54.98 63.10 C 52.82 64.13 50.18 64.82 48.91 67.02 M 56.52 65.46 C 54.43 67.36 52.03 69.09 49.05 68.95 C 48.46 69.95 47.88 70.96 47.30 71.97 C 45.92 74.63 45.92 77.78 46.88 80.58 L 46.78 80.97 C 50.64 84.76 55.70 86.79 60.88 88.05 C 61.83 86.76 62.78 85.48 63.75 84.20 C 63.02 83.14 62.29 82.08 61.56 81.02 C 62.07 77.08 62.93 73.05 65.41 69.82 C 64.76 66.96 62.88 64.67 61.15 62.39 C 59.59 63.39 58.03 64.39 56.52 65.46 M 68.90 69.42 C 66.79 70.90 65.51 73.16 64.59 75.52 L 63.97 75.50 C 64.01 79.03 64.62 82.53 65.80 85.86 C 71.22 81.27 71.93 73.73 71.78 67.10 C 70.47 67.50 69.51 68.27 68.90 69.42 M 80.90 80.33 L 80.29 80.45 C 82.63 84.01 87.34 84.01 90.59 81.79 C 91.25 80.02 91.65 78.16 92.16 76.33 C 92.76 74.71 93.23 73.04 93.64 71.36 C 89.28 74.17 84.48 76.49 80.90 80.33 M 34.12 80.26 L 33.40 80.10 C 33.62 82.73 37.22 83.73 38.70 85.87 C 40.90 83.46 43.29 80.95 43.63 77.51 C 42.97 77.66 41.65 77.94 40.98 78.08 C 38.60 78.48 36.31 79.24 34.12 80.26 M 69.16 86.04 C 69.39 86.46 69.86 87.31 70.09 87.73 C 72.03 86.67 73.99 85.63 75.96 84.60 C 75.03 82.81 74.03 81.05 73.02 79.30 C 71.87 81.62 70.60 83.88 69.16 86.04 M 77.29 81.40 C 77.04 82.78 78.28 85.20 79.94 84.62 C 80.79 83.20 78.62 81.32 77.29 81.40 M 71.35 89.88 C 75.06 96.37 80.08 101.93 84.82 107.67 C 86.73 107.29 88.67 107.08 90.62 107.03 C 87.76 103.98 85.50 100.28 84.79 96.11 C 84.06 92.90 85.42 89.78 86.11 86.70 C 81.05 86.96 75.70 86.89 71.35 89.88 M 56.96 89.56 C 56.82 92.27 56.17 94.90 55.08 97.38 C 53.37 101.43 52.27 105.71 50.27 109.63 C 54.43 107.27 56.43 102.72 58.79 98.79 C 59.66 95.85 59.97 92.78 60.34 89.74 C 59.50 89.70 57.80 89.61 56.96 89.56 M 61.89 96.02 C 61.02 101.09 58.01 105.35 54.88 109.28 C 60.24 107.86 65.73 109.07 71.15 108.71 C 68.06 104.48 63.17 101.51 61.89 96.02 Z" />
<path fill="#9c4156" opacity="1.00" d=" M 94.50 0.00 L 98.17 0.00 C 97.06 4.96 95.10 9.69 91.70 13.54 C 92.08 8.95 91.99 4.05 94.50 0.00 Z" />
<path fill="#542a51" opacity="1.00" d=" M 98.17 0.00 L 103.54 0.00 C 102.17 7.24 98.62 14.95 91.68 18.32 C 91.66 16.72 91.65 15.13 91.70 13.54 C 95.10 9.69 97.06 4.96 98.17 0.00 Z" />
<path fill="#3c2750" opacity="1.00" d=" M 105.77 0.00 L 111.00 0.00 L 111.00 5.08 C 109.41 4.23 107.78 3.48 106.15 2.73 C 106.05 2.04 105.86 0.68 105.77 0.00 Z" />
<path fill="#aa5578" opacity="1.00" d=" M 72.32 26.57 C 77.53 23.58 82.48 19.93 87.79 17.24 L 88.13 18.20 C 83.25 21.57 78.29 25.51 72.32 26.57 Z" />
<path fill="#66304e" opacity="1.00" d=" M 88.13 18.20 C 88.98 19.24 91.17 19.81 90.73 21.43 C 80.19 25.55 70.43 31.31 60.39 36.45 C 58.45 37.33 56.46 39.15 54.19 38.11 C 56.69 35.49 60.22 34.25 63.14 32.18 C 66.26 30.41 69.00 27.92 72.32 26.57 C 78.29 25.51 83.25 21.57 88.13 18.20 Z" />
<path fill="#773a51" opacity="1.00" d=" M 0.00 26.29 C 5.10 30.41 10.52 34.13 15.43 38.48 C 13.19 39.01 11.35 37.56 9.54 36.51 C 6.34 34.54 3.02 32.76 0.00 30.52 L 0.00 26.29 Z" />
<path fill="#aa5578" opacity="1.00" d=" M 28.70 37.50 C 30.84 35.01 33.90 33.57 37.17 33.44 C 39.16 35.76 39.82 38.75 39.60 41.75 C 37.12 45.14 33.81 47.84 31.02 50.97 C 29.46 50.15 27.94 49.26 26.46 48.31 C 26.54 47.76 26.71 46.67 26.79 46.12 C 27.15 43.19 27.56 40.25 28.70 37.50 M 32.96 36.06 C 29.02 38.71 30.50 44.04 30.51 48.02 C 34.06 48.15 36.25 45.14 38.40 42.79 C 38.41 41.13 38.41 39.47 38.41 37.81 C 38.10 37.23 37.48 36.05 37.17 35.46 C 35.73 35.38 34.14 34.95 32.96 36.06 Z" />
<path fill="#000000" opacity="1.00" d=" M 32.96 36.06 C 34.14 34.95 35.73 35.38 37.17 35.46 C 37.48 36.05 38.10 37.23 38.41 37.81 C 38.41 39.47 38.41 41.13 38.40 42.79 C 36.25 45.14 34.06 48.15 30.51 48.02 C 30.50 44.04 29.02 38.71 32.96 36.06 M 32.12 45.69 C 33.24 44.91 34.46 44.23 35.36 43.19 C 35.80 41.19 35.55 39.13 35.27 37.13 C 31.98 38.82 31.85 42.42 32.12 45.69 Z" />
<path fill="#271420" opacity="0.70" d=" M 50.58 36.46 C 51.25 36.09 52.59 35.36 53.26 35.00 C 53.84 36.56 51.62 37.65 50.58 36.46 Z" />
<path fill="#faf963" opacity="1.00" d=" M 32.12 45.69 C 31.85 42.42 31.98 38.82 35.27 37.13 C 35.55 39.13 35.80 41.19 35.36 43.19 C 34.46 44.23 33.24 44.91 32.12 45.69 Z" />
<path fill="#faf963" opacity="1.00" d=" M 26.79 46.12 C 23.73 43.70 26.94 39.74 28.70 37.50 C 27.56 40.25 27.15 43.19 26.79 46.12 Z" />
<path fill="#4b243c" opacity="1.00" d=" M 16.71 38.65 C 19.09 39.66 21.47 40.65 23.89 41.52 C 23.76 42.04 23.49 43.06 23.35 43.58 C 21.07 42.18 16.15 42.32 16.71 38.65 Z" />
<path fill="#692f55" opacity="1.00" d=" M 46.33 43.47 C 45.73 41.58 47.50 40.32 48.87 39.45 C 50.08 40.29 52.10 40.32 52.64 41.91 C 52.97 43.92 51.14 45.26 50.01 46.61 C 48.57 45.89 46.40 45.47 46.33 43.47 Z" />
<path fill="#2d1726" opacity="1.00" d=" M 38.62 49.20 C 39.59 46.83 42.53 46.59 44.55 45.55 C 43.61 47.97 41.29 49.69 38.62 49.20 Z" />
<path fill="#7b7a4c" opacity="0.95" d=" M 36.54 48.27 C 38.37 48.59 36.74 52.52 35.08 51.76 C 34.38 50.52 35.39 48.86 36.54 48.27 Z" />
<path fill="#6b354a" opacity="1.00" d=" M 43.82 48.53 C 44.33 48.26 45.35 47.70 45.86 47.42 C 47.19 47.74 48.52 48.05 49.84 48.36 C 51.79 52.54 54.38 58.29 51.38 62.42 C 49.42 64.24 48.16 61.12 48.45 59.49 C 48.99 58.60 49.54 57.73 50.11 56.87 C 49.51 53.19 47.91 49.32 43.82 48.53 Z" />
<path fill="#994c6c" opacity="1.00" d=" M 43.82 48.53 C 47.91 49.32 49.51 53.19 50.11 56.87 C 49.54 57.73 48.99 58.60 48.45 59.49 C 47.24 56.11 45.16 53.17 43.54 50.00 L 43.82 48.53 Z" />
<path fill="#5a2f41" opacity="1.00" d=" M 40.72 50.57 C 43.85 51.19 44.03 55.15 45.15 57.55 C 42.64 56.08 41.34 53.31 40.72 50.57 Z" />
<path fill="#aa5578" opacity="1.00" d=" M 85.95 71.05 C 94.16 65.04 101.86 58.23 111.00 53.63 L 111.00 64.01 C 106.44 66.32 101.96 68.88 97.08 70.50 C 96.81 70.06 96.27 69.17 96.00 68.73 C 89.55 69.70 84.64 74.77 79.67 78.64 L 77.49 78.55 C 80.06 75.78 82.91 73.28 85.95 71.05 Z" />
<path fill="#351c26" opacity="0.49" d=" M 43.44 60.39 C 43.48 60.43 43.56 60.53 43.60 60.58 C 43.56 60.53 43.48 60.43 43.44 60.39 Z" />
<path fill="#773a51" opacity="1.00" d=" M 48.91 67.02 C 50.18 64.82 52.82 64.13 54.98 63.10 C 54.16 65.72 51.45 66.89 48.91 67.02 Z" />
<path fill="#5d2a4c" opacity="1.00" d=" M 56.52 65.46 C 58.03 64.39 59.59 63.39 61.15 62.39 C 62.88 64.67 64.76 66.96 65.41 69.82 C 62.93 73.05 62.07 77.08 61.56 81.02 C 62.29 82.08 63.02 83.14 63.75 84.20 C 62.78 85.48 61.83 86.76 60.88 88.05 C 55.70 86.79 50.64 84.76 46.78 80.97 L 46.88 80.58 C 47.03 79.93 47.35 78.63 47.51 77.98 C 50.53 77.60 53.80 77.93 56.61 76.62 C 59.65 73.81 59.06 69.21 58.27 65.55 C 57.83 65.53 56.95 65.48 56.52 65.46 Z" />
<path fill="#5f2c4c" opacity="1.00" d=" M 97.08 70.50 C 101.96 68.88 106.44 66.32 111.00 64.01 L 111.00 73.42 C 105.03 75.81 99.37 79.10 93.19 80.90 C 94.16 77.32 95.50 73.85 97.08 70.50 Z" />
<path fill="#ad5779" opacity="1.00" d=" M 49.05 68.95 C 52.03 69.09 54.43 67.36 56.52 65.46 C 56.95 65.48 57.83 65.53 58.27 65.55 C 59.06 69.21 59.65 73.81 56.61 76.62 C 53.80 77.93 50.53 77.60 47.51 77.98 C 48.00 75.98 47.88 73.93 47.30 71.97 C 47.88 70.96 48.46 69.95 49.05 68.95 Z" />
<path fill="#4f2952" opacity="1.00" d=" M 68.90 69.42 C 69.51 68.27 70.47 67.50 71.78 67.10 C 71.93 73.73 71.22 81.27 65.80 85.86 C 64.62 82.53 64.01 79.03 63.97 75.50 L 64.59 75.52 C 65.25 75.53 66.59 75.56 67.26 75.58 C 67.88 73.55 68.54 71.52 68.90 69.42 Z" />
<path fill="#faf963" opacity="1.00" d=" M 64.59 75.52 C 65.51 73.16 66.79 70.90 68.90 69.42 C 68.54 71.52 67.88 73.55 67.26 75.58 C 66.59 75.56 65.25 75.53 64.59 75.52 Z" />
<path fill="#b9494d" opacity="1.00" d=" M 80.90 80.33 C 84.48 76.49 89.28 74.17 93.64 71.36 C 93.23 73.04 92.76 74.71 92.16 76.33 C 88.45 77.79 84.93 79.91 80.90 80.33 Z" />
<path fill="#faf963" opacity="1.00" d=" M 46.88 80.58 C 45.92 77.78 45.92 74.63 47.30 71.97 C 47.88 73.93 48.00 75.98 47.51 77.98 C 47.35 78.63 47.03 79.93 46.88 80.58 Z" />
<path fill="#572b51" opacity="1.00" d=" M 80.90 80.33 C 84.93 79.91 88.45 77.79 92.16 76.33 C 91.65 78.16 91.25 80.02 90.59 81.79 C 87.34 84.01 82.63 84.01 80.29 80.45 L 80.90 80.33 Z" />
<path fill="#faf963" opacity="1.00" d=" M 34.12 80.26 C 36.31 79.24 38.60 78.48 40.98 78.08 C 38.85 79.25 36.75 81.55 34.12 80.26 Z" />
<path fill="#ac4652" opacity="1.00" d=" M 40.98 78.08 C 41.65 77.94 42.97 77.66 43.63 77.51 C 43.29 80.95 40.90 83.46 38.70 85.87 C 37.22 83.73 33.62 82.73 33.40 80.10 L 34.12 80.26 C 36.75 81.55 38.85 79.25 40.98 78.08 Z" />
<path fill="#4e2753" opacity="1.00" d=" M 69.16 86.04 C 70.60 83.88 71.87 81.62 73.02 79.30 C 74.03 81.05 75.03 82.81 75.96 84.60 C 73.99 85.63 72.03 86.67 70.09 87.73 C 69.86 87.31 69.39 86.46 69.16 86.04 Z" />
<path fill="#361d27" opacity="1.00" d=" M 77.29 81.40 C 78.62 81.32 80.79 83.20 79.94 84.62 C 78.28 85.20 77.04 82.78 77.29 81.40 Z" />
<path fill="#773552" opacity="1.00" d=" M 88.29 99.83 C 85.96 94.87 87.76 89.54 90.12 85.00 C 88.11 90.01 91.95 94.43 93.53 98.99 C 91.78 99.26 90.04 99.54 88.29 99.83 Z" />
<path fill="#592c52" opacity="1.00" d=" M 63.43 88.76 C 64.92 88.28 66.42 87.80 67.91 87.31 C 69.35 90.11 70.71 92.96 72.33 95.67 C 69.76 95.96 67.19 96.22 64.62 96.47 C 63.53 94.04 63.46 91.37 63.43 88.76 Z" />
<path fill="#662f52" opacity="1.00" d=" M 31.29 97.53 C 33.32 94.57 35.16 91.48 37.26 88.57 C 38.30 94.21 35.55 99.40 31.94 103.49 C 31.71 101.50 31.50 99.51 31.29 97.53 Z" />
<path fill="#4d2854" opacity="1.00" d=" M 56.96 89.56 C 57.80 89.61 59.50 89.70 60.34 89.74 C 59.97 92.78 59.66 95.85 58.79 98.79 C 57.55 98.32 56.32 97.85 55.08 97.38 C 56.17 94.90 56.82 92.27 56.96 89.56 Z" />
<path fill="#8d3c52" opacity="1.00" d=" M 64.62 96.47 C 67.19 96.22 69.76 95.96 72.33 95.67 C 73.53 97.46 74.89 99.15 76.22 100.86 C 74.26 101.92 72.31 102.98 70.37 104.06 C 67.84 102.05 65.97 99.38 64.62 96.47 Z" />
<path fill="#723355" opacity="1.00" d=" M 55.08 97.38 C 56.32 97.85 57.55 98.32 58.79 98.79 C 56.43 102.72 54.43 107.27 50.27 109.63 C 52.27 105.71 53.37 101.43 55.08 97.38 Z" />
<path fill="#bf4a52" opacity="1.00" d=" M 20.43 111.00 C 24.06 106.52 27.84 102.15 31.29 97.53 C 31.50 99.51 31.71 101.50 31.94 103.49 C 29.66 106.29 27.04 108.81 24.17 111.00 L 20.43 111.00 Z" />
<path fill="#b04652" opacity="1.00" d=" M 88.29 99.83 C 90.04 99.54 91.78 99.26 93.53 98.99 C 96.47 103.88 100.55 108.09 105.48 111.00 L 101.84 111.00 C 96.22 108.98 91.03 105.25 88.29 99.83 Z" />
<path fill="#b94953" opacity="1.00" d=" M 70.37 104.06 C 72.31 102.98 74.26 101.92 76.22 100.86 C 78.97 104.32 81.66 107.85 84.78 111.00 L 78.13 111.00 C 75.46 108.78 73.02 106.30 70.37 104.06 Z" />
</svg>
