<?xml version="1.0" encoding="UTF-8" ?>
<!DOCTYPE svg PUBLIC "-//W3C//DTD SVG 1.1//EN" "http://www.w3.org/Graphics/SVG/1.1/DTD/svg11.dtd">
<svg width="111pt" height="111pt" viewBox="0 0 111 111" version="1.1" xmlns="http://www.w3.org/2000/svg">
<path fill="#000000" opacity="0.27" d=" M 18.17 0.00 L 18.89 0.00 C 18.87 1.77 18.82 5.31 18.80 7.08 C 17.15 5.07 16.94 2.70 18.17 0.00 Z" />
<path fill="#020201" opacity="0.92" d=" M 18.89 0.00 L 21.09 0.00 C 24.35 16.24 26.60 32.68 29.95 48.92 L 30.11 49.86 C 29.62 49.88 28.65 49.94 28.16 49.96 L 27.10 49.91 C 24.68 35.53 18.12 21.94 18.80 7.08 C 18.82 5.31 18.87 1.77 18.89 0.00 Z" />
<path fill="#000000" opacity="0.84" d=" M 0.93 17.91 C 2.13 17.97 2.98 18.53 3.48 19.60 C 6.19 23.87 8.65 28.31 10.88 32.86 C 10.31 33.17 9.16 33.78 8.59 34.08 C 6.02 28.70 2.23 23.81 0.93 17.91 Z" />
<path fill="#1a1810" opacity="0.94" d=" M 62.82 24.79 C 63.37 24.11 64.00 23.50 64.68 22.95 C 67.06 29.86 67.95 37.14 69.34 44.28 C 71.66 41.20 71.92 37.09 73.63 33.65 C 73.53 32.27 75.78 31.10 76.25 32.72 C 76.18 36.89 76.17 41.06 76.22 45.23 C 76.23 47.79 74.36 50.83 76.15 53.01 C 87.49 46.47 98.92 39.96 111.00 34.80 L 111.00 36.91 C 102.02 41.91 92.33 45.61 83.74 51.30 C 80.54 52.70 77.14 54.20 74.85 56.93 L 75.75 57.32 C 76.38 57.56 77.62 58.02 78.24 58.26 C 76.27 58.86 74.25 59.23 72.23 59.64 C 72.09 61.17 71.79 64.23 71.65 65.76 C 71.26 67.22 70.94 68.70 70.67 70.19 C 70.47 68.59 70.07 65.40 69.87 63.80 C 69.35 52.29 67.77 40.68 64.37 29.65 C 64.24 31.18 64.00 34.25 63.87 35.78 L 63.29 36.37 C 63.13 32.51 62.98 28.65 62.82 24.79 M 74.28 37.33 C 71.37 39.80 71.66 44.54 70.25 48.00 C 70.88 49.53 70.32 52.78 72.85 51.91 C 74.45 47.09 74.28 41.88 74.98 36.88 L 74.28 37.33 Z" />
<path fill="#000000" opacity="0.66" d=" M 61.87 37.87 C 62.30 33.54 61.35 28.78 62.82 24.79 C 62.98 28.65 63.13 32.51 63.29 36.37 C 62.94 36.74 62.23 37.49 61.87 37.87 Z" />
<path fill="#ccbd7b" opacity="1.00" d=" M 64.37 29.65 C 67.77 40.68 69.35 52.29 69.87 63.80 C 69.29 65.38 68.99 67.71 66.98 66.04 C 65.98 55.95 64.47 45.90 63.87 35.78 C 64.00 34.25 64.24 31.18 64.37 29.65 Z" />
<path fill="#110f0b" opacity="0.94" d=" M 8.59 34.08 C 9.16 33.78 10.31 33.17 10.88 32.86 C 14.68 39.32 18.84 45.58 23.07 51.76 C 24.42 51.16 25.72 50.44 27.10 49.91 L 28.16 49.96 C 26.75 51.65 25.18 53.18 23.78 54.86 C 21.96 56.71 23.44 59.82 24.17 61.92 C 27.92 62.97 30.63 59.97 31.85 56.81 C 32.95 56.25 34.09 55.74 35.21 55.22 C 35.75 55.18 36.82 55.09 37.35 55.05 L 37.15 55.78 C 36.00 56.56 34.67 57.15 33.74 58.22 C 32.08 60.78 29.03 62.26 27.87 65.08 C 31.47 64.26 35.00 62.38 36.96 59.15 C 37.29 58.65 37.95 57.65 38.28 57.15 C 39.06 55.92 39.71 54.60 40.13 53.20 C 42.79 49.92 38.77 46.64 35.79 48.66 C 33.59 50.36 37.74 49.59 38.24 50.99 C 38.01 52.35 37.76 53.72 37.35 55.05 C 37.56 51.22 33.29 50.47 30.82 48.61 C 34.51 46.52 38.60 47.35 42.62 47.66 C 44.69 43.45 47.97 38.88 52.84 37.99 C 53.48 38.83 53.96 39.74 54.30 40.73 C 53.60 43.25 52.88 51.84 56.92 48.19 C 58.58 44.79 59.00 40.55 61.87 37.87 C 62.23 37.49 62.94 36.74 63.29 36.37 L 63.87 35.78 C 64.47 45.90 65.98 55.95 66.98 66.04 C 67.27 68.96 67.62 71.89 68.08 74.80 C 68.36 82.31 70.21 89.64 70.98 97.09 C 70.56 96.87 69.71 96.44 69.28 96.22 C 68.37 90.50 67.60 84.76 66.97 79.00 C 67.03 77.66 66.21 76.69 65.32 75.81 C 64.97 75.42 64.26 74.63 63.91 74.24 C 64.38 74.14 65.33 73.93 65.80 73.83 C 65.53 69.87 64.89 65.94 64.48 62.00 C 64.15 58.72 63.90 55.41 62.74 52.30 C 60.20 51.68 57.64 50.95 55.01 50.99 C 53.02 50.66 54.46 53.78 53.99 54.92 L 53.09 55.13 C 53.00 50.40 53.20 45.68 52.92 40.96 L 51.97 40.99 C 50.56 40.83 49.62 41.77 48.78 42.74 C 45.35 45.98 42.67 50.09 41.67 54.73 C 41.30 56.03 41.03 57.35 40.76 58.67 C 39.83 59.28 38.95 59.96 38.21 60.80 C 36.97 62.60 34.12 63.35 34.01 65.78 C 35.71 66.19 37.43 66.56 39.15 66.88 C 39.75 67.97 40.30 69.09 40.87 70.19 C 40.89 70.65 40.95 71.55 40.98 72.00 C 41.00 73.61 41.02 75.22 41.04 76.83 C 40.56 77.14 39.59 77.76 39.10 78.07 C 39.02 76.48 38.87 73.30 38.80 71.71 C 36.37 74.38 34.63 77.58 33.11 80.83 C 32.03 82.50 30.92 84.15 29.79 85.78 C 26.25 90.64 22.64 96.07 22.04 102.20 C 26.64 97.54 29.34 91.46 33.19 86.23 C 34.01 85.27 34.78 84.27 35.35 83.14 C 36.21 81.77 36.81 80.17 38.03 79.06 C 38.62 79.63 39.19 80.22 39.73 80.83 C 32.36 88.35 28.73 99.57 20.04 106.14 C 19.89 102.38 20.51 98.62 22.31 95.31 C 26.94 86.47 32.65 78.25 38.10 69.91 C 35.24 67.55 31.89 65.48 28.11 66.96 C 26.02 64.09 23.01 62.64 19.14 63.99 C 19.57 66.90 19.99 69.80 20.36 72.73 C 20.14 77.56 19.98 82.41 20.25 87.25 C 20.14 89.02 19.43 91.59 17.12 91.03 C 12.45 84.94 9.30 77.74 7.60 70.28 C 7.76 66.11 7.80 61.93 7.74 57.75 C 7.89 55.53 10.27 54.67 12.06 54.04 C 15.51 54.65 18.67 56.34 22.11 57.02 C 18.89 48.76 12.65 41.97 8.59 34.08 M 61.26 42.33 C 60.18 44.49 59.08 46.65 58.13 48.87 C 59.01 50.19 63.25 50.95 62.98 49.00 C 62.01 49.67 63.50 41.31 61.26 42.33 M 10.16 57.20 C 10.13 62.18 8.58 68.13 11.41 72.39 C 10.48 74.59 12.32 77.19 13.19 79.27 C 12.96 80.46 13.39 81.44 14.47 82.20 C 14.69 84.36 16.09 86.78 17.86 88.18 C 19.97 79.15 17.85 70.09 16.93 61.07 L 16.02 60.99 C 16.19 57.98 12.71 53.76 10.16 57.20 M 16.94 57.97 C 17.19 61.18 19.38 64.09 22.89 63.03 C 22.75 59.50 20.14 58.26 16.94 57.97 Z" />
<path fill="#000000" opacity="0.31" d=" M 76.25 32.72 C 78.40 36.48 76.34 41.23 76.22 45.23 C 76.17 41.06 76.18 36.89 76.25 32.72 Z" />
<path fill="#948856" opacity="1.00" d=" M 74.28 37.33 L 74.98 36.88 C 74.28 41.88 74.45 47.09 72.85 51.91 C 70.32 52.78 70.88 49.53 70.25 48.00 C 71.66 44.54 71.37 39.80 74.28 37.33 Z" />
<path fill="#e7d98e" opacity="1.00" d=" M 83.74 51.30 C 92.33 45.61 102.02 41.91 111.00 36.91 L 111.00 41.89 C 109.06 42.97 107.09 43.99 105.15 45.06 C 100.87 45.46 97.09 47.70 93.16 49.25 C 90.03 49.90 87.00 51.98 83.74 51.30 Z" />
<path fill="#a69560" opacity="1.00" d=" M 48.78 42.74 C 49.62 41.77 50.56 40.83 51.97 40.99 C 51.97 45.27 51.98 49.56 51.93 53.85 C 51.22 56.72 49.43 55.16 47.88 53.89 C 47.93 50.15 48.38 46.45 48.78 42.74 Z" />
<path fill="#272317" opacity="1.00" d=" M 51.97 40.99 L 52.92 40.96 C 53.20 45.68 53.00 50.40 53.09 55.13 C 52.84 56.17 52.57 57.22 52.27 58.25 C 52.15 56.79 52.03 55.32 51.93 53.85 C 51.98 49.56 51.97 45.27 51.97 40.99 Z" />
<path fill="#000000" opacity="0.38" d=" M 54.30 40.73 C 55.76 43.09 53.33 47.80 56.92 48.19 C 52.88 51.84 53.60 43.25 54.30 40.73 Z" />
<path fill="#b5a66c" opacity="1.00" d=" M 61.26 42.33 C 63.50 41.31 62.01 49.67 62.98 49.00 C 63.25 50.95 59.01 50.19 58.13 48.87 C 59.08 46.65 60.18 44.49 61.26 42.33 Z" />
<path fill="#100f0a" opacity="0.93" d=" M 105.15 45.06 C 107.09 43.99 109.06 42.97 111.00 41.89 L 111.00 44.91 C 101.77 49.61 91.90 53.03 82.09 56.32 C 85.00 62.65 93.96 66.66 93.99 74.84 C 91.97 76.15 89.57 76.70 87.28 77.35 C 83.45 77.15 79.61 76.97 75.78 77.15 C 75.09 77.14 73.72 77.13 73.04 77.12 C 73.47 83.04 74.94 88.87 74.91 94.82 C 74.68 95.12 74.21 95.70 73.97 96.00 L 73.05 96.04 C 72.90 89.68 71.97 83.37 71.08 77.08 C 70.98 75.36 70.77 71.91 70.67 70.19 C 70.94 68.70 71.26 67.22 71.65 65.76 C 72.52 68.43 71.46 73.43 74.77 74.23 C 79.84 75.43 85.16 75.28 90.24 74.26 C 92.60 74.67 92.30 72.18 91.31 70.87 C 87.53 66.40 83.92 60.20 78.24 58.26 C 77.62 58.02 76.38 57.56 75.75 57.32 C 81.34 54.36 87.33 52.37 93.29 50.29 C 97.39 48.93 101.58 47.56 105.15 45.06 Z" />
<path fill="#decf8c" opacity="1.00" d=" M 41.67 54.73 C 42.67 50.09 45.35 45.98 48.78 42.74 C 48.38 46.45 47.93 50.15 47.88 53.89 C 46.98 61.32 45.36 68.65 42.82 75.69 C 41.10 76.16 42.40 73.01 41.95 72.02 C 42.02 66.25 41.92 60.49 41.67 54.73 Z" />
<path fill="#8a7b4f" opacity="1.00" d=" M 93.16 49.25 C 97.09 47.70 100.87 45.46 105.15 45.06 C 101.58 47.56 97.39 48.93 93.29 50.29 L 93.16 49.25 Z" />
<path fill="#b36043" opacity="1.00" d=" M 35.79 48.66 C 38.77 46.64 42.79 49.92 40.13 53.20 C 39.52 52.45 38.89 51.71 38.24 50.99 C 37.74 49.59 33.59 50.36 35.79 48.66 Z" />
<path fill="#77464d" opacity="1.00" d=" M 29.95 48.92 L 30.82 48.61 C 33.29 50.47 37.56 51.22 37.35 55.05 C 36.82 55.09 35.75 55.18 35.21 55.22 C 34.66 55.17 33.55 55.07 32.99 55.02 C 33.68 53.98 34.38 52.96 35.01 51.89 C 33.56 52.10 32.14 52.47 30.74 52.92 L 29.93 53.15 C 30.55 51.78 33.34 49.46 30.11 49.86 L 29.95 48.92 Z" />
<path fill="#ad9e68" opacity="1.00" d=" M 83.74 51.30 C 87.00 51.98 90.03 49.90 93.16 49.25 L 93.29 50.29 C 87.33 52.37 81.34 54.36 75.75 57.32 L 74.85 56.93 C 77.14 54.20 80.54 52.70 83.74 51.30 Z" />
<path fill="#ecd990" opacity="1.00" d=" M 28.16 49.96 C 28.65 49.94 29.62 49.88 30.11 49.86 C 33.34 49.46 30.55 51.78 29.93 53.15 C 29.97 54.55 30.50 55.86 31.01 57.15 C 28.84 58.15 26.61 59.32 24.12 59.03 C 23.97 57.64 23.86 56.25 23.78 54.86 C 25.18 53.18 26.75 51.65 28.16 49.96 Z" />
<path fill="#713e2d" opacity="1.00" d=" M 38.24 50.99 C 38.89 51.71 39.52 52.45 40.13 53.20 C 39.71 54.60 39.06 55.92 38.28 57.15 C 38.00 56.80 37.43 56.12 37.15 55.78 L 37.35 55.05 C 37.76 53.72 38.01 52.35 38.24 50.99 Z" />
<path fill="#6e623c" opacity="1.00" d=" M 53.99 54.92 C 54.46 53.78 53.02 50.66 55.01 50.99 C 54.62 54.78 54.17 59.04 57.77 61.23 C 59.16 65.12 61.46 68.87 61.00 73.17 C 58.22 72.47 55.52 71.46 53.07 69.95 C 53.39 64.94 54.13 59.95 53.99 54.92 Z" />
<path fill="#ebd78e" opacity="1.00" d=" M 55.01 50.99 C 57.64 50.95 60.20 51.68 62.74 52.30 C 63.90 55.41 64.15 58.72 64.48 62.00 C 62.42 63.62 59.97 61.60 57.77 61.23 C 54.17 59.04 54.62 54.78 55.01 50.99 Z" />
<path fill="#d57292" opacity="1.00" d=" M 30.74 52.92 C 32.14 52.47 33.56 52.10 35.01 51.89 C 34.38 52.96 33.68 53.98 32.99 55.02 C 31.50 55.17 30.75 54.47 30.74 52.92 Z" />
<path fill="#482a31" opacity="1.00" d=" M 29.93 53.15 L 30.74 52.92 C 30.75 54.47 31.50 55.17 32.99 55.02 C 33.55 55.07 34.66 55.17 35.21 55.22 C 34.09 55.74 32.95 56.25 31.85 56.81 L 31.01 57.15 C 30.50 55.86 29.97 54.55 29.93 53.15 Z" />
<path fill="#888156" opacity="1.00" d=" M 47.88 53.89 C 49.43 55.16 51.22 56.72 51.93 53.85 C 52.03 55.32 52.15 56.79 52.27 58.25 C 51.15 64.56 50.87 71.02 49.16 77.23 C 47.13 76.36 45.13 74.76 42.82 75.69 C 45.36 68.65 46.98 61.32 47.88 53.89 Z" />
<path fill="#84764a" opacity="1.00" d=" M 24.17 61.92 C 23.44 59.82 21.96 56.71 23.78 54.86 C 23.86 56.25 23.97 57.64 24.12 59.03 C 26.61 59.32 28.84 58.15 31.01 57.15 L 31.85 56.81 C 30.63 59.97 27.92 62.97 24.17 61.92 Z" />
<path fill="#b0a66d" opacity="1.00" d=" M 40.76 58.67 C 41.03 57.35 41.30 56.03 41.67 54.73 C 41.92 60.49 42.02 66.25 41.95 72.02 L 40.98 72.00 C 40.95 71.55 40.89 70.65 40.87 70.19 C 40.93 66.35 41.06 62.51 40.76 58.67 Z" />
<path fill="#020201" opacity="0.97" d=" M 53.09 55.13 L 53.99 54.92 C 54.13 59.95 53.39 64.94 53.07 69.95 C 55.52 71.46 58.22 72.47 61.00 73.17 C 61.97 73.53 62.94 73.88 63.91 74.24 C 64.26 74.63 64.97 75.42 65.32 75.81 C 64.70 82.67 61.08 88.80 58.66 95.14 C 58.46 95.60 58.06 96.50 57.86 96.96 C 61.72 97.25 65.53 97.00 69.28 96.22 C 69.71 96.44 70.56 96.87 70.98 97.09 C 71.43 99.45 71.61 102.01 72.84 104.12 C 75.38 108.41 73.46 97.86 73.97 96.00 C 74.21 95.70 74.68 95.12 74.91 94.82 C 74.97 95.31 75.09 96.29 75.15 96.79 C 83.65 95.77 92.25 95.90 100.74 94.64 C 104.15 94.79 107.58 94.99 111.00 95.03 L 111.00 102.92 C 99.14 102.48 87.74 105.90 76.26 108.29 C 75.62 109.12 75.10 110.03 74.69 111.00 L 74.11 111.00 C 73.83 110.51 73.26 109.52 72.98 109.02 C 71.12 106.66 66.45 108.02 63.78 108.73 C 63.39 108.86 62.61 109.12 62.23 109.25 C 56.08 109.03 49.93 109.00 43.79 109.23 C 37.52 108.69 31.13 108.48 25.03 106.85 C 24.31 104.26 26.53 102.52 28.67 101.66 C 35.81 98.99 43.39 97.31 51.00 96.74 C 52.06 97.01 53.09 99.41 54.11 98.11 C 55.15 97.34 55.92 96.33 56.02 95.00 C 57.35 89.85 59.43 84.93 60.86 79.81 C 57.70 80.55 58.27 85.04 55.94 87.00 C 56.01 82.89 58.11 79.24 58.87 75.28 C 56.75 74.34 54.67 72.88 52.25 73.05 C 50.29 80.51 49.02 89.50 43.20 95.06 C 41.40 90.49 40.91 85.56 39.73 80.83 C 39.19 80.22 38.62 79.63 38.03 79.06 C 38.30 78.81 38.83 78.32 39.10 78.07 C 39.59 77.76 40.56 77.14 41.04 76.83 C 42.18 81.25 42.89 85.78 44.22 90.15 C 46.85 86.29 48.06 81.70 49.16 77.23 C 50.87 71.02 51.15 64.56 52.27 58.25 C 52.57 57.22 52.84 56.17 53.09 55.13 Z" />
<path fill="#d9cf8b" opacity="1.00" d=" M 10.16 57.20 C 12.71 53.76 16.19 57.98 16.02 60.99 C 15.98 62.25 15.92 63.52 15.85 64.79 C 15.10 67.68 13.88 70.55 11.41 72.39 C 8.58 68.13 10.13 62.18 10.16 57.20 Z" />
<path fill="#b16045" opacity="1.00" d=" M 33.74 58.22 C 34.67 57.15 36.00 56.56 37.15 55.78 C 37.43 56.12 38.00 56.80 38.28 57.15 C 37.95 57.65 37.29 58.65 36.96 59.15 C 35.88 58.88 34.80 58.56 33.74 58.22 Z" />
<path fill="#000000" opacity="0.47" d=" M 7.60 70.28 C 6.51 66.21 6.88 61.83 7.74 57.75 C 7.80 61.93 7.76 66.11 7.60 70.28 Z" />
<path fill="#837951" opacity="1.00" d=" M 16.94 57.97 C 20.14 58.26 22.75 59.50 22.89 63.03 C 19.38 64.09 17.19 61.18 16.94 57.97 Z" />
<path fill="#63343c" opacity="1.00" d=" M 27.87 65.08 C 29.03 62.26 32.08 60.78 33.74 58.22 C 34.80 58.56 35.88 58.88 36.96 59.15 C 35.00 62.38 31.47 64.26 27.87 65.08 Z" />
<path fill="#ecd68f" opacity="1.00" d=" M 78.24 58.26 C 83.92 60.20 87.53 66.40 91.31 70.87 C 91.40 72.66 90.65 73.30 89.06 72.81 C 83.15 70.77 77.16 68.75 71.65 65.76 C 71.79 64.23 72.09 61.17 72.23 59.64 C 74.25 59.23 76.27 58.86 78.24 58.26 Z" />
<path fill="#1f1c13" opacity="1.00" d=" M 38.21 60.80 C 38.95 59.96 39.83 59.28 40.76 58.67 C 41.06 62.51 40.93 66.35 40.87 70.19 C 40.30 69.09 39.75 67.97 39.15 66.88 C 38.92 65.36 38.45 62.32 38.21 60.80 Z" />
<path fill="#625f3e" opacity="1.00" d=" M 16.02 60.99 L 16.93 61.07 C 17.85 70.09 19.97 79.15 17.86 88.18 C 16.09 86.78 14.69 84.36 14.47 82.20 C 16.07 79.34 15.78 76.00 15.88 72.82 C 15.90 70.15 15.89 67.47 15.85 64.79 C 15.92 63.52 15.98 62.25 16.02 60.99 Z" />
<path fill="#6a5e39" opacity="1.00" d=" M 38.21 60.80 C 38.45 62.32 38.92 65.36 39.15 66.88 C 37.43 66.56 35.71 66.19 34.01 65.78 C 34.12 63.35 36.97 62.60 38.21 60.80 Z" />
<path fill="#7c6e45" opacity="1.00" d=" M 57.77 61.23 C 59.97 61.60 62.42 63.62 64.48 62.00 C 64.89 65.94 65.53 69.87 65.80 73.83 C 65.33 73.93 64.38 74.14 63.91 74.24 C 62.94 73.88 61.97 73.53 61.00 73.17 C 61.46 68.87 59.16 65.12 57.77 61.23 Z" />
<path fill="#948455" opacity="1.00" d=" M 66.98 66.04 C 68.99 67.71 69.29 65.38 69.87 63.80 C 70.07 65.40 70.47 68.59 70.67 70.19 C 70.77 71.91 70.98 75.36 71.08 77.08 C 69.03 78.62 68.68 76.39 68.08 74.80 C 67.62 71.89 67.27 68.96 66.98 66.04 Z" />
<path fill="#a4b387" opacity="1.00" d=" M 11.41 72.39 C 13.88 70.55 15.10 67.68 15.85 64.79 C 15.89 67.47 15.90 70.15 15.88 72.82 C 15.19 75.11 16.08 78.74 13.19 79.27 C 12.32 77.19 10.48 74.59 11.41 72.39 Z" />
<path fill="#817348" opacity="1.00" d=" M 71.65 65.76 C 77.16 68.75 83.15 70.77 89.06 72.81 C 90.65 73.30 91.40 72.66 91.31 70.87 C 92.30 72.18 92.60 74.67 90.24 74.26 C 85.08 74.14 79.92 73.89 74.77 74.23 C 71.46 73.43 72.52 68.43 71.65 65.76 Z" />
<path fill="#736741" opacity="1.00" d=" M 33.11 80.83 C 34.63 77.58 36.37 74.38 38.80 71.71 C 38.87 73.30 39.02 76.48 39.10 78.07 C 38.83 78.32 38.30 78.81 38.03 79.06 C 36.81 80.17 36.21 81.77 35.35 83.14 C 34.62 82.35 33.87 81.58 33.11 80.83 Z" />
<path fill="#6b7859" opacity="1.00" d=" M 40.98 72.00 L 41.95 72.02 C 42.40 73.01 41.10 76.16 42.82 75.69 C 45.13 74.76 47.13 76.36 49.16 77.23 C 48.06 81.70 46.85 86.29 44.22 90.15 C 42.89 85.78 42.18 81.25 41.04 76.83 C 41.02 75.22 41.00 73.61 40.98 72.00 Z" />
<path fill="#738d6f" opacity="1.00" d=" M 13.19 79.27 C 16.08 78.74 15.19 75.11 15.88 72.82 C 15.78 76.00 16.07 79.34 14.47 82.20 C 13.39 81.44 12.96 80.46 13.19 79.27 Z" />
<path fill="#000000" opacity="0.46" d=" M 20.36 72.73 C 21.68 77.46 21.01 82.48 20.25 87.25 C 19.98 82.41 20.14 77.56 20.36 72.73 Z" />
<path fill="#443c27" opacity="1.00" d=" M 74.77 74.23 C 79.92 73.89 85.08 74.14 90.24 74.26 C 85.16 75.28 79.84 75.43 74.77 74.23 Z" />
<path fill="#6f6742" opacity="1.00" d=" M 68.08 74.80 C 68.68 76.39 69.03 78.62 71.08 77.08 C 71.97 83.37 72.90 89.68 73.05 96.04 C 72.98 98.73 72.91 101.42 72.84 104.12 C 71.61 102.01 71.43 99.45 70.98 97.09 C 70.21 89.64 68.36 82.31 68.08 74.80 Z" />
<path fill="#000000" opacity="0.06" d=" M 65.32 75.81 C 66.21 76.69 67.03 77.66 66.97 79.00 C 67.60 84.76 68.37 90.50 69.28 96.22 C 65.77 95.88 61.97 96.68 58.66 95.14 C 61.08 88.80 64.70 82.67 65.32 75.81 Z" />
<path fill="#000000" opacity="0.23" d=" M 75.78 77.15 C 79.61 76.97 83.45 77.15 87.28 77.35 C 83.54 78.49 79.52 77.78 75.78 77.15 Z" />
<path fill="#656243" opacity="0.95" d=" M 55.94 87.00 C 58.27 85.04 57.70 80.55 60.86 79.81 C 59.43 84.93 57.35 89.85 56.02 95.00 C 55.92 96.33 55.15 97.34 54.11 98.11 C 54.46 94.35 56.26 90.84 55.94 87.00 Z" />
<path fill="#9d8d5b" opacity="1.00" d=" M 33.11 80.83 C 33.87 81.58 34.62 82.35 35.35 83.14 C 34.78 84.27 34.01 85.27 33.19 86.23 C 32.34 86.12 30.64 85.89 29.79 85.78 C 30.92 84.15 32.03 82.50 33.11 80.83 Z" />
<path fill="#bbbb82" opacity="1.00" d=" M 22.04 102.20 C 22.64 96.07 26.25 90.64 29.79 85.78 C 30.64 85.89 32.34 86.12 33.19 86.23 C 29.34 91.46 26.64 97.54 22.04 102.20 Z" />
<path fill="#0e0e0a" opacity="0.60" d=" M 51.00 96.74 C 54.29 94.71 54.05 90.08 55.94 87.00 C 56.26 90.84 54.46 94.35 54.11 98.11 C 53.09 99.41 52.06 97.01 51.00 96.74 Z" />
<path fill="#000000" opacity="0.64" d=" M 100.74 94.64 C 104.08 93.70 107.57 94.00 111.00 93.96 L 111.00 95.03 C 107.58 94.99 104.15 94.79 100.74 94.64 Z" />
<path fill="#000000" opacity="0.50" d=" M 57.86 96.96 C 58.06 96.50 58.46 95.60 58.66 95.14 C 61.97 96.68 65.77 95.88 69.28 96.22 C 65.53 97.00 61.72 97.25 57.86 96.96 Z" />
<path fill="#1f2119" opacity="1.00" d=" M 73.05 96.04 L 73.97 96.00 C 73.46 97.86 75.38 108.41 72.84 104.12 C 72.91 101.42 72.98 98.73 73.05 96.04 Z" />
<path fill="#000000" opacity="0.74" d=" M 63.78 108.73 C 66.45 108.02 71.12 106.66 72.98 109.02 C 69.91 108.92 66.84 108.81 63.78 108.73 Z" />
<path fill="#000000" opacity="0.32" d=" M 43.79 109.23 C 49.93 109.00 56.08 109.03 62.23 109.25 C 56.33 111.25 49.81 109.66 43.79 109.23 Z" />
</svg>
