<?xml version="1.0" encoding="UTF-8" ?>
<!DOCTYPE svg PUBLIC "-//W3C//DTD SVG 1.1//EN" "http://www.w3.org/Graphics/SVG/1.1/DTD/svg11.dtd">
<svg width="111pt" height="111pt" viewBox="0 0 111 111" version="1.1" xmlns="http://www.w3.org/2000/svg">
<path fill="#fcfec3" opacity="1.00" d=" M 0.00 0.00 L 6.69 0.00 C 16.15 9.54 24.45 20.16 31.48 31.61 C 28.83 32.77 26.69 34.71 24.88 36.93 C 18.31 31.33 12.43 24.97 5.86 19.38 C 3.55 15.67 1.59 11.74 0.00 7.68 L 0.00 0.00 Z" />
<path fill="#000000" opacity="1.00" d=" M 6.69 0.00 L 12.81 0.00 C 18.76 5.86 24.05 12.35 28.71 19.27 C 35.60 29.23 42.53 39.85 44.46 52.03 C 46.92 51.37 49.39 50.82 51.88 50.30 C 54.93 46.13 59.57 42.89 64.99 43.80 C 68.84 38.09 72.63 32.33 77.00 26.99 C 84.81 17.23 93.90 8.61 102.93 0.00 L 109.82 0.00 C 104.89 4.36 100.27 9.06 95.52 13.61 C 89.80 19.18 84.41 25.09 79.45 31.34 C 74.31 37.76 69.54 44.50 65.23 51.50 C 64.29 52.72 63.37 53.97 62.46 55.23 C 68.69 55.06 73.86 51.37 79.19 48.61 C 84.63 45.63 90.09 42.61 94.99 38.78 C 100.53 34.91 105.85 30.73 111.00 26.36 L 111.00 33.21 C 102.80 40.20 93.88 46.39 84.28 51.31 C 89.37 57.85 87.16 67.01 82.79 73.31 C 85.81 80.63 86.18 89.24 82.13 96.25 C 80.19 100.43 75.04 100.99 71.98 104.02 C 68.86 106.93 65.23 109.22 61.36 111.00 L 58.34 111.00 C 56.76 104.15 62.28 98.27 68.43 96.37 C 62.07 95.30 57.43 90.51 54.67 84.94 C 53.97 84.82 52.57 84.57 51.87 84.45 C 52.85 81.73 54.14 79.12 55.84 76.76 C 51.78 77.86 47.49 77.40 43.50 78.82 C 44.11 82.48 46.21 86.56 44.07 90.09 C 41.90 93.74 39.03 97.35 35.02 99.05 C 33.34 100.09 31.64 98.93 30.05 98.37 C 34.14 94.02 39.11 90.17 41.20 84.36 C 37.17 82.65 32.81 81.41 29.30 78.70 C 28.23 76.04 32.46 76.59 33.97 75.69 C 32.98 73.55 31.30 71.41 31.76 68.92 C 32.42 65.33 35.14 62.70 37.39 60.02 C 20.38 50.20 9.10 33.27 0.00 16.35 L 0.00 7.68 C 1.59 11.74 3.55 15.67 5.86 19.38 C 11.66 30.39 19.07 40.62 28.07 49.25 C 31.56 52.71 35.41 55.78 39.26 58.84 C 40.25 57.22 41.24 55.60 42.25 53.99 C 41.51 52.49 40.77 50.99 40.08 49.47 C 38.34 45.40 36.72 41.27 34.67 37.35 C 33.65 35.41 32.61 33.49 31.48 31.61 C 24.45 20.16 16.15 9.54 6.69 0.00 M 55.10 50.04 C 56.97 51.06 58.64 52.38 60.15 53.88 C 60.99 51.53 61.96 49.23 62.96 46.94 C 60.17 47.49 57.53 48.57 55.10 50.04 M 41.98 57.71 C 42.78 57.40 43.56 57.05 44.32 56.65 C 48.26 56.47 50.99 59.13 53.74 61.49 C 54.59 63.22 55.72 64.94 55.62 66.95 C 56.09 70.22 52.77 72.25 52.45 75.38 C 56.03 74.07 59.71 71.66 60.72 67.75 C 61.96 64.50 60.51 61.18 59.66 58.04 L 59.55 58.12 C 58.13 56.31 56.85 54.34 55.00 52.95 C 52.90 52.47 50.69 52.65 48.60 53.11 C 45.86 53.60 43.16 55.07 41.98 57.71 M 73.96 56.08 L 73.86 56.44 C 70.09 57.71 66.01 59.28 62.16 57.28 C 63.19 59.68 63.84 62.22 64.18 64.81 C 64.07 65.42 63.84 66.64 63.73 67.24 C 65.76 66.29 67.77 65.26 69.97 64.72 C 71.86 64.78 73.90 64.59 75.63 65.52 C 77.17 66.68 77.08 68.95 76.62 70.62 C 73.92 74.25 69.11 74.97 65.71 77.71 C 77.25 79.40 86.73 66.56 83.76 55.81 L 83.51 56.39 C 82.88 55.10 82.11 53.89 81.33 52.70 C 78.91 53.90 76.43 54.99 73.96 56.08 M 38.95 61.98 C 36.96 64.23 35.22 66.69 33.89 69.40 C 34.53 71.30 35.50 73.07 36.68 74.71 C 40.17 78.15 45.11 76.80 49.00 74.87 C 46.48 74.38 44.62 72.45 44.37 69.88 C 45.30 66.02 45.69 61.84 48.67 58.88 C 45.13 58.52 40.95 58.48 38.95 61.98 M 47.60 62.33 C 47.50 62.74 47.32 63.56 47.23 63.97 C 47.00 66.94 44.86 71.92 49.05 73.08 C 50.20 72.27 51.62 71.74 52.52 70.63 C 54.88 67.15 52.55 60.60 47.60 62.33 M 69.93 66.63 C 69.43 66.90 68.42 67.45 67.91 67.72 L 67.44 68.40 C 64.02 68.32 62.16 72.09 60.34 74.46 C 58.97 75.64 58.17 77.31 57.20 78.80 C 61.89 76.69 66.34 74.10 70.98 71.91 C 72.43 70.97 75.07 69.99 74.45 67.80 C 73.86 67.62 72.68 67.26 72.09 67.08 C 71.37 66.93 70.65 66.78 69.93 66.63 M 74.32 80.13 C 74.06 80.64 73.54 81.68 73.28 82.20 C 72.22 85.42 71.85 88.81 71.56 92.17 L 73.16 92.33 C 74.60 93.11 76.04 93.91 77.41 94.82 C 75.02 96.32 72.26 96.86 69.48 97.04 C 71.88 101.52 77.63 99.17 79.70 95.71 C 81.83 92.11 82.59 87.92 82.67 83.78 C 82.25 80.96 81.76 78.16 81.06 75.40 C 78.68 76.77 76.41 78.34 74.32 80.13 M 31.89 77.85 C 34.80 79.48 38.15 79.91 41.33 80.76 C 40.05 79.41 38.52 78.35 36.96 77.36 C 35.27 77.52 33.58 77.66 31.89 77.85 M 58.28 81.25 C 61.01 85.27 65.09 88.01 69.13 90.58 C 69.44 87.08 70.04 83.56 71.75 80.44 C 68.73 80.68 65.67 80.42 63.11 78.68 C 61.49 79.52 59.88 80.38 58.28 81.25 M 59.31 89.02 C 62.57 93.73 68.97 95.53 74.45 95.05 C 71.08 93.40 67.70 91.78 64.35 90.10 C 61.68 87.57 59.03 85.02 56.55 82.30 C 56.02 84.88 57.67 87.21 59.31 89.02 M 32.77 98.18 C 38.07 96.19 40.99 90.99 42.92 86.00 C 40.64 90.97 35.86 93.86 32.77 98.18 M 64.72 100.73 L 64.55 101.47 C 62.56 101.21 60.64 104.14 61.50 105.95 L 60.59 106.89 L 60.16 109.00 C 64.34 107.20 68.26 104.72 71.32 101.31 C 70.28 100.34 69.23 99.37 68.20 98.39 C 67.04 99.17 65.88 99.95 64.72 100.73 Z" />
<path fill="#fafdc1" opacity="1.00" d=" M 109.82 0.00 L 111.00 0.00 L 111.00 14.72 C 108.79 16.66 106.43 18.42 104.11 20.23 C 101.12 18.19 98.25 15.98 95.52 13.61 C 100.27 9.06 104.89 4.36 109.82 0.00 Z" />
<path fill="#e9f8b1" opacity="1.00" d=" M 79.45 31.34 C 84.41 25.09 89.80 19.18 95.52 13.61 C 98.25 15.98 101.12 18.19 104.11 20.23 C 102.37 21.57 100.61 22.90 98.85 24.22 C 96.87 22.79 94.74 21.57 92.65 20.32 C 88.16 23.89 85.04 29.36 79.45 31.34 Z" />
<path fill="#97b0a5" opacity="1.00" d=" M 104.11 20.23 C 106.43 18.42 108.79 16.66 111.00 14.72 L 111.00 26.36 C 105.85 30.73 100.53 34.91 94.99 38.78 C 96.47 36.26 98.28 33.93 100.37 31.88 C 99.92 29.44 99.52 26.99 98.96 24.57 L 98.85 24.22 C 100.61 22.90 102.37 21.57 104.11 20.23 Z" />
<path fill="#9bb3a5" opacity="1.00" d=" M 5.86 19.38 C 12.43 24.97 18.31 31.33 24.88 36.93 C 26.14 38.04 27.40 39.14 28.67 40.23 C 30.00 41.37 31.32 42.51 32.64 43.65 C 31.05 45.47 29.53 47.34 28.07 49.25 C 19.07 40.62 11.66 30.39 5.86 19.38 Z" />
<path fill="#c6ec92" opacity="1.00" d=" M 79.45 31.34 C 85.04 29.36 88.16 23.89 92.65 20.32 C 94.74 21.57 96.87 22.79 98.85 24.22 L 98.96 24.57 C 91.24 30.09 83.66 35.80 75.96 41.35 C 71.60 43.91 69.32 48.65 65.23 51.50 C 69.54 44.50 74.31 37.76 79.45 31.34 Z" />
<path fill="#88ab95" opacity="1.00" d=" M 75.96 41.35 C 83.66 35.80 91.24 30.09 98.96 24.57 C 99.52 26.99 99.92 29.44 100.37 31.88 C 98.28 33.93 96.47 36.26 94.99 38.78 C 90.09 42.61 84.63 45.63 79.19 48.61 C 78.71 45.96 77.61 43.48 75.96 41.35 Z" />
<path fill="#e6f7b0" opacity="1.00" d=" M 24.88 36.93 C 26.69 34.71 28.83 32.77 31.48 31.61 C 32.61 33.49 33.65 35.41 34.67 37.35 C 32.67 38.31 30.67 39.27 28.67 40.23 C 27.40 39.14 26.14 38.04 24.88 36.93 Z" />
<path fill="#c9ed96" opacity="1.00" d=" M 28.67 40.23 C 30.67 39.27 32.67 38.31 34.67 37.35 C 36.72 41.27 38.34 45.40 40.08 49.47 C 37.49 47.67 35.01 45.72 32.64 43.65 C 31.32 42.51 30.00 41.37 28.67 40.23 Z" />
<path fill="#7fac83" opacity="1.00" d=" M 65.23 51.50 C 69.32 48.65 71.60 43.91 75.96 41.35 C 77.61 43.48 78.71 45.96 79.19 48.61 C 73.86 51.37 68.69 55.06 62.46 55.23 C 63.37 53.97 64.29 52.72 65.23 51.50 Z" />
<path fill="#85b285" opacity="1.00" d=" M 28.07 49.25 C 29.53 47.34 31.05 45.47 32.64 43.65 C 35.01 45.72 37.49 47.67 40.08 49.47 C 40.77 50.99 41.51 52.49 42.25 53.99 C 41.24 55.60 40.25 57.22 39.26 58.84 C 35.41 55.78 31.56 52.71 28.07 49.25 Z" />
<path fill="#d4ea92" opacity="1.00" d=" M 55.10 50.04 C 57.53 48.57 60.17 47.49 62.96 46.94 C 61.96 49.23 60.99 51.53 60.15 53.88 C 58.64 52.38 56.97 51.06 55.10 50.04 Z" />
<path fill="#fffe9a" opacity="1.00" d=" M 41.98 57.71 C 43.16 55.07 45.86 53.60 48.60 53.11 C 47.18 54.29 45.79 55.53 44.32 56.65 C 43.56 57.05 42.78 57.40 41.98 57.71 Z" />
<path fill="#7741bc" opacity="1.00" d=" M 48.60 53.11 C 50.69 52.65 52.90 52.47 55.00 52.95 C 56.85 54.34 58.13 56.31 59.55 58.12 C 57.74 59.44 55.83 60.65 53.74 61.49 C 50.99 59.13 48.26 56.47 44.32 56.65 C 45.79 55.53 47.18 54.29 48.60 53.11 Z" />
<path fill="#3d6481" opacity="1.00" d=" M 73.96 56.08 C 76.43 54.99 78.91 53.90 81.33 52.70 C 82.11 53.89 82.88 55.10 83.51 56.39 C 83.38 56.69 83.13 57.29 83.01 57.60 C 82.37 57.23 81.73 56.86 81.10 56.50 C 78.10 60.09 75.12 64.44 69.97 64.72 C 67.77 65.26 65.76 66.29 63.73 67.24 C 63.84 66.64 64.07 65.42 64.18 64.81 C 66.55 64.15 69.31 64.03 71.13 62.18 C 72.77 60.70 73.32 58.49 73.86 56.44 L 73.96 56.08 Z" />
<path fill="#2a406d" opacity="1.00" d=" M 81.10 56.50 C 81.73 56.86 82.37 57.23 83.01 57.60 C 83.13 57.29 83.38 56.69 83.51 56.39 L 83.76 55.81 C 86.73 66.56 77.25 79.40 65.71 77.71 C 69.11 74.97 73.92 74.25 76.62 70.62 C 77.08 68.95 77.17 66.68 75.63 65.52 C 73.90 64.59 71.86 64.78 69.97 64.72 C 75.12 64.44 78.10 60.09 81.10 56.50 Z" />
<path fill="#a1c688" opacity="1.00" d=" M 62.16 57.28 C 66.01 59.28 70.09 57.71 73.86 56.44 C 73.32 58.49 72.77 60.70 71.13 62.18 C 69.31 64.03 66.55 64.15 64.18 64.81 C 63.84 62.22 63.19 59.68 62.16 57.28 Z" />
<path fill="#272361" opacity="1.00" d=" M 59.55 58.12 L 59.66 58.04 C 60.51 61.18 61.96 64.50 60.72 67.75 C 59.71 71.66 56.03 74.07 52.45 75.38 C 52.77 72.25 56.09 70.22 55.62 66.95 C 55.72 64.94 54.59 63.22 53.74 61.49 C 55.83 60.65 57.74 59.44 59.55 58.12 Z" />
<path fill="#b0d186" opacity="1.00" d=" M 38.95 61.98 C 40.95 58.48 45.13 58.52 48.67 58.88 C 45.69 61.84 45.30 66.02 44.37 69.88 C 41.76 71.41 39.20 73.04 36.68 74.71 C 35.50 73.07 34.53 71.30 33.89 69.40 C 36.17 68.66 39.24 68.86 40.75 66.65 C 41.50 64.84 39.61 63.46 38.95 61.98 Z" />
<path fill="#f5d972" opacity="1.00" d=" M 47.60 62.33 C 52.55 60.60 54.88 67.15 52.52 70.63 C 51.62 71.74 50.20 72.27 49.05 73.08 C 49.44 69.89 50.34 66.14 47.23 63.97 C 47.32 63.56 47.50 62.74 47.60 62.33 Z" />
<path fill="#fffe9a" opacity="1.00" d=" M 33.89 69.40 C 35.22 66.69 36.96 64.23 38.95 61.98 C 39.61 63.46 41.50 64.84 40.75 66.65 C 39.24 68.86 36.17 68.66 33.89 69.40 Z" />
<path fill="#fdfc9a" opacity="1.00" d=" M 47.23 63.97 C 50.34 66.14 49.44 69.89 49.05 73.08 C 44.86 71.92 47.00 66.94 47.23 63.97 Z" />
<path fill="#fafdc1" opacity="1.00" d=" M 69.93 66.63 C 70.65 66.78 71.37 66.93 72.09 67.08 C 70.87 67.26 69.65 67.50 68.43 67.76 C 69.82 70.51 66.93 70.53 65.40 70.89 C 66.12 70.10 66.82 69.29 67.44 68.40 L 67.91 67.72 C 68.42 67.45 69.43 66.90 69.93 66.63 Z" />
<path fill="#2f4f65" opacity="1.00" d=" M 72.09 67.08 C 72.68 67.26 73.86 67.62 74.45 67.80 C 75.07 69.99 72.43 70.97 70.98 71.91 C 66.34 74.10 61.89 76.69 57.20 78.80 C 58.17 77.31 58.97 75.64 60.34 74.46 C 62.01 73.25 63.69 72.06 65.40 70.89 C 66.93 70.53 69.82 70.51 68.43 67.76 C 69.65 67.50 70.87 67.26 72.09 67.08 Z" />
<path fill="#f5d972" opacity="1.00" d=" M 60.34 74.46 C 62.16 72.09 64.02 68.32 67.44 68.40 C 66.82 69.29 66.12 70.10 65.40 70.89 C 63.69 72.06 62.01 73.25 60.34 74.46 Z" />
<path fill="#6b8a7b" opacity="1.00" d=" M 36.68 74.71 C 39.20 73.04 41.76 71.41 44.37 69.88 C 44.62 72.45 46.48 74.38 49.00 74.87 C 45.11 76.80 40.17 78.15 36.68 74.71 Z" />
<path fill="#273362" opacity="1.00" d=" M 74.32 80.13 C 76.41 78.34 78.68 76.77 81.06 75.40 C 81.76 78.16 82.25 80.96 82.67 83.78 C 80.91 84.41 79.15 85.05 77.39 85.69 C 76.39 83.82 75.37 81.96 74.32 80.13 Z" />
<path fill="#88ab95" opacity="1.00" d=" M 31.89 77.85 C 33.58 77.66 35.27 77.52 36.96 77.36 C 38.52 78.35 40.05 79.41 41.33 80.76 C 38.15 79.91 34.80 79.48 31.89 77.85 Z" />
<path fill="#3d5b75" opacity="1.00" d=" M 74.32 80.13 C 75.37 81.96 76.39 83.82 77.39 85.69 C 79.15 85.05 80.91 84.41 82.67 83.78 C 82.59 87.92 81.83 92.11 79.70 95.71 C 77.63 99.17 71.88 101.52 69.48 97.04 C 72.26 96.86 75.02 96.32 77.41 94.82 C 76.04 93.91 74.60 93.11 73.16 92.33 C 73.68 92.37 74.73 92.45 75.25 92.50 C 76.45 88.99 77.17 84.28 73.28 82.20 C 73.54 81.68 74.06 80.64 74.32 80.13 Z" />
<path fill="#2f4f5c" opacity="1.00" d=" M 59.31 89.02 C 57.67 87.21 56.02 84.88 56.55 82.30 C 59.03 85.02 61.68 87.57 64.35 90.10 C 62.68 89.71 60.99 89.39 59.31 89.02 Z" />
<path fill="#9dc087" opacity="1.00" d=" M 73.28 82.20 C 77.17 84.28 76.45 88.99 75.25 92.50 C 74.73 92.45 73.68 92.37 73.16 92.33 L 71.56 92.17 C 71.85 88.81 72.22 85.42 73.28 82.20 Z" />
<path fill="#7fac83" opacity="1.00" d=" M 32.77 98.18 C 35.86 93.86 40.64 90.97 42.92 86.00 C 40.99 90.99 38.07 96.19 32.77 98.18 Z" />
<path fill="#85b285" opacity="1.00" d=" M 59.31 89.02 C 60.99 89.39 62.68 89.71 64.35 90.10 C 67.70 91.78 71.08 93.40 74.45 95.05 C 68.97 95.53 62.57 93.73 59.31 89.02 Z" />
<path fill="#436a7f" opacity="1.00" d=" M 64.72 100.73 C 65.88 99.95 67.04 99.17 68.20 98.39 C 69.23 99.37 70.28 100.34 71.32 101.31 C 68.26 104.72 64.34 107.20 60.16 109.00 L 60.59 106.89 L 61.50 105.95 C 62.88 104.75 64.32 103.38 64.55 101.47 L 64.72 100.73 Z" />
<path fill="#d4ea92" opacity="1.00" d=" M 61.50 105.95 C 60.64 104.14 62.56 101.21 64.55 101.47 C 64.32 103.38 62.88 104.75 61.50 105.95 Z" />
</svg>
