<?xml version="1.0" encoding="UTF-8" ?>
<!DOCTYPE svg PUBLIC "-//W3C//DTD SVG 1.1//EN" "http://www.w3.org/Graphics/SVG/1.1/DTD/svg11.dtd">
<svg width="111pt" height="111pt" viewBox="0 0 111 111" version="1.1" xmlns="http://www.w3.org/2000/svg">
<path fill="#000000" opacity="1.00" d=" M 34.37 0.00 L 36.76 0.00 C 38.59 2.58 40.34 5.23 42.07 7.88 C 47.38 15.55 51.76 23.88 54.20 32.91 C 54.79 32.70 55.98 32.29 56.57 32.08 C 53.71 22.83 49.84 13.76 44.30 5.78 C 42.97 3.84 41.67 1.88 40.25 0.00 L 43.03 0.00 C 49.76 9.11 54.86 19.44 57.84 30.37 C 63.00 27.06 69.41 24.40 75.56 26.40 C 79.94 17.99 82.45 8.80 85.90 0.00 L 88.08 0.00 C 87.19 2.42 86.40 4.87 85.49 7.27 C 83.10 14.16 80.39 20.94 76.89 27.35 C 77.89 27.43 79.41 28.27 79.95 26.92 C 83.54 21.47 86.52 15.61 89.25 9.68 C 90.69 6.53 91.86 3.26 93.05 0.00 L 95.06 0.00 C 91.75 10.16 87.07 20.13 80.05 28.26 C 82.23 31.34 82.76 34.99 81.86 38.64 C 91.61 36.57 102.77 37.54 111.00 43.59 L 111.00 47.05 C 103.79 39.56 92.39 39.57 82.78 40.58 C 80.66 40.33 79.35 41.75 78.37 43.41 C 73.08 47.54 66.16 48.92 59.58 48.92 C 59.63 48.21 59.73 46.79 59.79 46.08 C 57.42 46.93 55.06 47.83 52.78 48.88 C 52.44 50.57 51.96 52.22 51.34 53.82 C 49.94 53.13 48.56 52.41 47.15 51.77 C 46.84 51.98 46.21 52.41 45.90 52.63 C 42.14 55.34 38.76 59.66 38.91 64.49 C 39.31 65.22 39.71 65.94 40.13 66.66 C 46.26 67.41 51.32 71.02 56.43 74.16 C 61.09 66.03 69.75 60.86 78.58 58.36 C 79.91 58.21 81.25 58.10 82.59 58.02 C 86.65 57.91 90.81 58.69 93.97 61.41 C 94.16 63.66 94.45 65.89 94.67 68.14 C 99.50 67.54 104.31 65.25 107.31 61.35 C 108.38 56.69 108.79 51.82 111.00 47.47 L 111.00 52.83 C 109.23 56.33 109.78 60.34 111.00 63.91 L 111.00 70.56 C 109.85 67.96 108.81 65.32 107.99 62.61 C 104.08 65.77 99.69 69.15 94.35 68.71 C 94.11 68.23 93.62 67.27 93.37 66.78 C 94.53 61.45 88.86 59.30 84.54 59.75 C 77.79 59.16 71.40 62.31 65.90 65.89 C 62.43 68.20 59.43 71.26 57.55 75.01 C 57.74 75.27 58.11 75.79 58.30 76.06 C 61.36 79.83 65.18 84.74 62.68 89.82 C 59.65 94.70 63.52 99.94 64.31 104.94 C 68.50 103.71 71.73 100.62 75.37 98.35 C 79.78 95.76 82.06 90.99 85.00 87.01 C 88.78 81.72 90.64 75.41 93.82 69.79 C 91.56 79.71 85.82 88.20 79.94 96.31 C 85.05 97.13 90.17 98.20 94.84 100.53 C 100.74 98.61 107.08 96.78 111.00 91.57 L 111.00 96.16 C 106.86 100.60 100.58 101.17 95.16 103.05 C 89.03 107.28 81.69 109.26 74.54 111.00 L 47.45 111.00 C 49.90 110.01 52.34 108.68 55.06 108.72 C 57.62 108.46 60.73 109.62 62.57 107.23 C 61.20 103.78 60.29 100.17 59.55 96.54 C 55.12 101.87 50.68 108.47 43.05 108.97 C 42.64 109.48 41.84 110.49 41.43 111.00 L 40.59 111.00 C 40.46 110.29 40.19 108.86 40.06 108.14 C 36.73 106.94 33.48 105.51 30.48 103.61 C 29.31 104.85 28.15 106.09 27.00 107.35 C 27.93 108.60 28.87 109.85 29.93 111.00 L 26.95 111.00 C 28.84 108.80 23.63 108.68 24.73 111.00 L 18.74 111.00 C 17.78 109.68 16.92 108.31 16.04 106.94 C 14.69 108.32 13.35 109.71 11.90 111.00 L 8.33 111.00 C 6.23 107.99 3.19 105.94 0.00 104.24 L 0.00 103.13 C 2.53 103.44 4.85 104.50 7.00 105.84 C 8.70 102.87 10.28 99.80 11.04 96.44 C 5.35 94.69 2.08 89.36 0.00 84.14 L 0.00 71.21 C 1.70 70.95 1.75 68.39 0.00 68.17 L 0.00 64.69 C 0.70 65.40 1.10 66.68 2.23 66.79 C 2.90 65.98 3.52 65.14 4.10 64.27 C 4.28 63.94 4.65 63.30 4.84 62.98 C 3.01 60.29 1.08 57.63 0.00 54.53 L 0.00 48.33 C 1.38 52.90 3.62 57.15 6.23 61.13 C 8.30 59.81 10.31 57.80 12.97 58.10 C 17.69 58.18 21.24 61.72 24.30 64.90 C 30.29 59.01 37.33 54.17 45.12 51.00 C 44.13 49.65 43.16 48.29 42.21 46.92 C 43.22 45.76 44.41 44.81 45.75 44.08 L 45.64 45.60 C 45.23 45.96 44.41 46.68 43.99 47.04 C 44.76 47.83 45.52 48.60 46.30 49.37 C 47.63 50.31 49.06 51.08 50.47 51.89 C 50.64 49.75 50.29 47.63 49.70 45.59 C 49.06 45.34 47.78 44.84 47.14 44.59 C 47.52 40.34 50.20 37.04 53.10 34.14 C 51.86 31.01 50.68 27.86 49.38 24.77 C 45.68 15.78 39.60 8.10 34.37 0.00 M 60.64 31.76 C 56.98 34.38 52.85 37.05 50.87 41.24 L 50.19 41.50 C 49.93 43.84 51.25 45.82 52.31 47.78 C 55.26 46.05 58.60 45.29 61.80 44.21 C 63.54 42.25 66.61 41.02 67.57 38.75 C 66.30 38.23 64.84 38.24 63.20 38.79 C 63.31 37.32 63.40 35.86 63.50 34.39 C 65.86 32.43 68.49 30.04 71.78 30.26 C 73.36 30.85 72.38 33.15 72.64 34.47 C 71.54 35.12 70.86 36.00 70.58 37.10 C 73.48 36.80 76.74 35.26 79.92 34.88 C 79.94 32.69 79.28 29.91 76.78 29.39 C 71.40 27.22 65.37 28.77 60.64 31.76 M 63.49 37.48 C 66.96 37.22 72.26 35.52 71.69 31.12 C 68.26 31.88 64.37 33.76 63.49 37.48 M 69.16 39.98 C 69.11 40.10 69.01 40.33 68.96 40.44 C 66.33 42.25 63.43 44.05 61.94 46.98 C 62.82 46.97 63.62 46.75 64.35 46.33 C 70.94 45.90 77.80 42.69 80.82 36.49 C 76.74 36.86 72.85 38.27 69.16 39.98 M 21.42 72.97 C 20.60 73.72 20.39 74.87 19.93 75.83 C 24.32 76.43 28.17 78.80 30.93 82.21 C 32.48 76.83 35.39 71.80 39.65 68.13 C 36.89 65.71 37.42 62.02 37.82 58.78 L 38.25 58.42 C 38.81 57.38 39.41 56.37 40.06 55.38 C 32.93 60.11 25.97 65.54 21.42 72.97 M 6.11 66.10 C 3.99 69.01 7.98 71.36 8.96 73.90 C 7.96 77.26 5.95 80.51 6.38 84.13 C 7.79 86.00 9.99 84.26 11.11 83.01 C 12.55 81.29 14.69 80.30 16.02 78.50 C 17.12 73.72 20.90 70.18 22.97 66.05 C 20.51 63.61 17.46 61.55 14.08 60.69 C 10.44 59.82 8.10 63.67 6.11 66.10 M 31.44 88.44 C 31.30 88.58 31.00 88.87 30.85 89.01 C 30.77 89.75 30.60 91.23 30.52 91.98 C 29.77 95.90 29.50 101.18 33.53 103.45 C 37.18 105.36 41.36 107.53 45.59 106.56 C 50.22 104.47 53.32 100.24 56.45 96.43 C 59.43 92.30 62.52 86.75 59.62 81.76 C 56.85 76.63 51.65 73.97 46.83 71.15 C 44.92 70.24 42.96 69.49 40.94 68.88 C 35.81 74.16 32.58 81.21 31.44 88.44 M 3.96 69.19 C 3.37 70.80 2.80 72.41 2.22 74.02 C 0.30 81.19 4.70 88.65 10.00 93.24 C 11.07 92.87 12.14 92.49 13.21 92.11 C 13.28 88.64 13.86 85.21 14.72 81.85 C 11.62 82.37 10.02 86.86 6.47 85.41 C 4.66 83.68 5.60 80.96 6.00 78.83 C 6.48 77.26 7.91 75.72 7.43 73.99 C 6.58 72.19 5.37 70.59 3.96 69.19 M 18.87 77.63 C 17.01 81.35 15.82 85.39 15.52 89.55 C 15.39 96.86 16.19 104.92 20.93 110.81 C 24.64 108.99 26.29 104.91 28.87 101.91 C 28.55 99.60 28.35 97.28 28.27 94.96 C 28.56 91.19 29.18 87.44 30.38 83.85 C 27.74 80.12 23.47 77.71 18.87 77.63 M 13.21 96.66 C 12.49 100.67 10.57 104.25 8.64 107.78 C 9.03 108.24 9.79 109.15 10.18 109.61 C 11.84 108.11 13.45 106.55 15.00 104.94 C 14.60 102.14 13.99 99.37 13.21 96.66 M 77.54 99.42 C 73.56 103.09 69.00 106.07 63.97 108.08 C 64.07 108.46 64.29 109.23 64.39 109.61 C 74.16 110.52 83.24 105.95 92.14 102.64 C 90.42 100.23 86.87 100.61 84.34 99.54 C 82.15 99.24 79.36 97.35 77.54 99.42 Z" />
<path fill="#737d93" opacity="1.00" d=" M 36.76 0.00 L 40.25 0.00 C 41.67 1.88 42.97 3.84 44.30 5.78 C 43.56 6.48 42.81 7.18 42.07 7.88 C 40.34 5.23 38.59 2.58 36.76 0.00 Z" />
<path fill="#4f5571" opacity="1.00" d=" M 88.08 0.00 L 93.05 0.00 C 91.86 3.26 90.69 6.53 89.25 9.68 C 87.99 8.88 86.74 8.08 85.49 7.27 C 86.40 4.87 87.19 2.42 88.08 0.00 Z" />
<path fill="#484e6f" opacity="1.00" d=" M 44.30 5.78 C 49.84 13.76 53.71 22.83 56.57 32.08 C 55.98 32.29 54.79 32.70 54.20 32.91 C 51.76 23.88 47.38 15.55 42.07 7.88 C 42.81 7.18 43.56 6.48 44.30 5.78 Z" />
<path fill="#3d4263" opacity="1.00" d=" M 76.89 27.35 C 80.39 20.94 83.10 14.16 85.49 7.27 C 86.74 8.08 87.99 8.88 89.25 9.68 C 86.52 15.61 83.54 21.47 79.95 26.92 C 79.41 28.27 77.89 27.43 76.89 27.35 Z" />
<path fill="#363252" opacity="1.00" d=" M 60.64 31.76 C 65.37 28.77 71.40 27.22 76.78 29.39 C 79.28 29.91 79.94 32.69 79.92 34.88 C 76.74 35.26 73.48 36.80 70.58 37.10 C 70.86 36.00 71.54 35.12 72.64 34.47 C 72.38 33.15 73.36 30.85 71.78 30.26 C 68.49 30.04 65.86 32.43 63.50 34.39 C 63.40 35.86 63.31 37.32 63.20 38.79 C 62.54 38.06 61.89 37.34 61.23 36.62 C 57.80 38.21 54.41 39.91 50.87 41.24 C 52.85 37.05 56.98 34.38 60.64 31.76 Z" />
<path fill="#e5669a" opacity="1.00" d=" M 63.49 37.48 C 64.37 33.76 68.26 31.88 71.69 31.12 C 72.26 35.52 66.96 37.22 63.49 37.48 Z" />
<path fill="#403e5b" opacity="1.00" d=" M 50.87 41.24 C 54.41 39.91 57.80 38.21 61.23 36.62 C 61.89 37.34 62.54 38.06 63.20 38.79 C 64.84 38.24 66.30 38.23 67.57 38.75 C 66.61 41.02 63.54 42.25 61.80 44.21 C 58.60 45.29 55.26 46.05 52.31 47.78 C 51.25 45.82 49.93 43.84 50.19 41.50 L 50.87 41.24 Z" />
<path fill="#413e5d" opacity="1.00" d=" M 69.16 39.98 C 72.85 38.27 76.74 36.86 80.82 36.49 C 77.80 42.69 70.94 45.90 64.35 46.33 C 65.98 44.46 67.95 42.76 68.96 40.44 C 69.01 40.33 69.11 40.10 69.16 39.98 Z" />
<path fill="#2f2a4c" opacity="1.00" d=" M 82.78 40.58 C 92.39 39.57 103.79 39.56 111.00 47.05 L 111.00 47.47 C 108.79 51.82 108.38 56.69 107.31 61.35 C 104.31 65.25 99.50 67.54 94.67 68.14 C 94.45 65.89 94.16 63.66 93.97 61.41 C 93.82 58.38 93.77 55.34 93.53 52.32 C 93.07 48.53 94.59 44.92 95.01 41.20 C 93.61 41.06 92.21 40.93 90.81 40.81 C 88.14 40.62 85.46 40.54 82.78 40.58 Z" />
<path fill="#fefad6" opacity="1.00" d=" M 61.94 46.98 C 63.43 44.05 66.33 42.25 68.96 40.44 C 67.95 42.76 65.98 44.46 64.35 46.33 C 63.62 46.75 62.82 46.97 61.94 46.98 Z" />
<path fill="#484762" opacity="1.00" d=" M 78.37 43.41 C 79.35 41.75 80.66 40.33 82.78 40.58 C 85.46 40.54 88.14 40.62 90.81 40.81 C 90.64 43.22 90.84 45.74 90.02 48.05 C 87.96 51.74 83.01 53.36 82.59 58.02 C 81.25 58.10 79.91 58.21 78.58 58.36 C 79.04 55.94 79.58 53.54 80.27 51.17 C 79.03 50.09 77.79 49.01 76.55 47.94 C 77.16 46.43 77.74 44.91 78.37 43.41 Z" />
<path fill="#393655" opacity="1.00" d=" M 90.81 40.81 C 92.21 40.93 93.61 41.06 95.01 41.20 C 94.59 44.92 93.07 48.53 93.53 52.32 C 93.77 55.34 93.82 58.38 93.97 61.41 C 90.81 58.69 86.65 57.91 82.59 58.02 C 83.01 53.36 87.96 51.74 90.02 48.05 C 90.84 45.74 90.64 43.22 90.81 40.81 Z" />
<path fill="#52536b" opacity="1.00" d=" M 59.58 48.92 C 66.16 48.92 73.08 47.54 78.37 43.41 C 77.74 44.91 77.16 46.43 76.55 47.94 C 77.79 49.01 79.03 50.09 80.27 51.17 C 79.58 53.54 79.04 55.94 78.58 58.36 C 69.75 60.86 61.09 66.03 56.43 74.16 C 51.32 71.02 46.26 67.41 40.13 66.66 C 39.71 65.94 39.31 65.22 38.91 64.49 C 39.95 62.88 40.94 61.24 41.93 59.60 C 43.07 59.56 44.20 59.53 45.33 59.50 C 47.25 57.52 47.74 54.85 48.08 52.23 C 47.53 52.33 46.45 52.53 45.90 52.63 C 46.21 52.41 46.84 51.98 47.15 51.77 C 48.56 52.41 49.94 53.13 51.34 53.82 C 51.96 52.22 52.44 50.57 52.78 48.88 C 55.06 47.83 57.42 46.93 59.79 46.08 C 59.73 46.79 59.63 48.21 59.58 48.92 Z" />
<path fill="#4d4c68" opacity="1.00" d=" M 45.75 44.08 C 46.10 44.21 46.79 44.46 47.14 44.59 C 47.78 44.84 49.06 45.34 49.70 45.59 C 50.29 47.63 50.64 49.75 50.47 51.89 C 49.06 51.08 47.63 50.31 46.30 49.37 C 46.06 48.11 45.81 46.86 45.64 45.60 L 45.75 44.08 Z" />
<path fill="#fefad6" opacity="1.00" d=" M 43.99 47.04 C 44.41 46.68 45.23 45.96 45.64 45.60 C 45.81 46.86 46.06 48.11 46.30 49.37 C 45.52 48.60 44.76 47.83 43.99 47.04 Z" />
<path fill="#fefbd6" opacity="1.00" d=" M 38.91 64.49 C 38.76 59.66 42.14 55.34 45.90 52.63 C 46.45 52.53 47.53 52.33 48.08 52.23 C 47.74 54.85 47.25 57.52 45.33 59.50 C 44.20 59.53 43.07 59.56 41.93 59.60 C 40.94 61.24 39.95 62.88 38.91 64.49 Z" />
<path fill="#50565c" opacity="1.00" d=" M 111.00 63.91 C 109.78 60.34 109.23 56.33 111.00 52.83 L 111.00 63.91 Z" />
<path fill="#8d98a4" opacity="1.00" d=" M 0.00 54.53 C 1.08 57.63 3.01 60.29 4.84 62.98 C 4.65 63.30 4.28 63.94 4.10 64.27 C 2.72 63.10 1.32 61.95 0.00 60.72 L 0.00 54.53 Z" />
<path fill="#fefad6" opacity="1.00" d=" M 21.42 72.97 C 25.97 65.54 32.93 60.11 40.06 55.38 C 39.41 56.37 38.81 57.38 38.25 58.42 L 37.82 58.78 C 34.54 61.58 30.87 63.88 27.55 66.64 C 25.23 68.48 23.83 71.22 21.42 72.97 Z" />
<path fill="#55576d" opacity="1.00" d=" M 27.55 66.64 C 30.87 63.88 34.54 61.58 37.82 58.78 C 37.42 62.02 36.89 65.71 39.65 68.13 C 35.39 71.80 32.48 76.83 30.93 82.21 C 28.17 78.80 24.32 76.43 19.93 75.83 C 20.39 74.87 20.60 73.72 21.42 72.97 C 23.83 71.22 25.23 68.48 27.55 66.64 Z" />
<path fill="#fefad6" opacity="1.00" d=" M 65.90 65.89 C 71.40 62.31 77.79 59.16 84.54 59.75 C 82.05 60.69 79.47 61.37 76.82 61.64 C 80.80 65.17 74.17 72.11 70.13 68.92 C 69.38 67.98 68.70 66.99 68.10 65.94 C 64.26 68.71 61.07 72.24 58.30 76.06 C 58.11 75.79 57.74 75.27 57.55 75.01 C 59.43 71.26 62.43 68.20 65.90 65.89 Z" />
<path fill="#52536a" opacity="1.00" d=" M 76.82 61.64 C 79.47 61.37 82.05 60.69 84.54 59.75 C 88.86 59.30 94.53 61.45 93.37 66.78 C 88.41 73.25 83.91 80.71 76.43 84.54 C 71.83 87.09 67.43 90.00 62.71 92.32 C 62.70 91.69 62.69 90.44 62.68 89.82 C 65.18 84.74 61.36 79.83 58.30 76.06 C 61.07 72.24 64.26 68.71 68.10 65.94 C 68.70 66.99 69.38 67.98 70.13 68.92 C 74.17 72.11 80.80 65.17 76.82 61.64 Z" />
<path fill="#4f5571" opacity="1.00" d=" M 0.00 60.72 C 1.32 61.95 2.72 63.10 4.10 64.27 C 3.52 65.14 2.90 65.98 2.23 66.79 C 1.10 66.68 0.70 65.40 0.00 64.69 L 0.00 60.72 Z" />
<path fill="#848f9d" opacity="1.00" d=" M 6.11 66.10 C 8.10 63.67 10.44 59.82 14.08 60.69 C 17.46 61.55 20.51 63.61 22.97 66.05 C 20.90 70.18 17.12 73.72 16.02 78.50 C 13.43 77.37 10.92 75.97 8.96 73.90 C 7.98 71.36 3.99 69.01 6.11 66.10 Z" />
<path fill="#2c2748" opacity="1.00" d=" M 94.35 68.71 C 99.69 69.15 104.08 65.77 107.99 62.61 C 108.81 65.32 109.85 67.96 111.00 70.56 L 111.00 91.57 C 107.08 96.78 100.74 98.61 94.84 100.53 C 90.17 98.20 85.05 97.13 79.94 96.31 C 85.82 88.20 91.56 79.71 93.82 69.79 C 90.64 75.41 88.78 81.72 85.00 87.01 C 82.06 90.99 79.78 95.76 75.37 98.35 C 71.73 100.62 68.50 103.71 64.31 104.94 C 63.52 99.94 59.65 94.70 62.68 89.82 C 62.69 90.44 62.70 91.69 62.71 92.32 C 67.43 90.00 71.83 87.09 76.43 84.54 C 83.91 80.71 88.41 73.25 93.37 66.78 C 93.62 67.27 94.11 68.23 94.35 68.71 Z" />
<path fill="#000000" opacity="0.58" d=" M 0.00 68.17 C 1.75 68.39 1.70 70.95 0.00 71.21 L 0.00 68.17 Z" />
<path fill="#fefbd6" opacity="1.00" d=" M 31.44 88.44 C 32.58 81.21 35.81 74.16 40.94 68.88 C 42.96 69.49 44.92 70.24 46.83 71.15 C 45.66 73.07 43.78 71.11 42.31 70.93 C 43.20 72.30 44.07 73.68 44.94 75.07 C 43.78 76.28 42.56 77.43 41.26 78.50 C 40.17 78.06 39.08 77.62 37.99 77.19 C 35.46 80.74 34.63 85.38 31.44 88.44 Z" />
<path fill="#58596f" opacity="1.00" d=" M 3.96 69.19 C 5.37 70.59 6.58 72.19 7.43 73.99 C 7.91 75.72 6.48 77.26 6.00 78.83 C 4.74 77.23 3.48 75.62 2.22 74.02 C 2.80 72.41 3.37 70.80 3.96 69.19 Z" />
<path fill="#8d98a4" opacity="1.00" d=" M 42.31 70.93 C 43.78 71.11 45.66 73.07 46.83 71.15 C 51.65 73.97 56.85 76.63 59.62 81.76 C 50.58 87.44 41.02 92.41 30.81 95.62 C 30.74 94.71 30.59 92.89 30.52 91.98 C 30.60 91.23 30.77 89.75 30.85 89.01 C 31.00 88.87 31.30 88.58 31.44 88.44 C 34.63 85.38 35.46 80.74 37.99 77.19 C 39.08 77.62 40.17 78.06 41.26 78.50 C 42.56 77.43 43.78 76.28 44.94 75.07 C 44.07 73.68 43.20 72.30 42.31 70.93 Z" />
<path fill="#474562" opacity="1.00" d=" M 10.00 93.24 C 4.70 88.65 0.30 81.19 2.22 74.02 C 3.48 75.62 4.74 77.23 6.00 78.83 C 5.60 80.96 4.66 83.68 6.47 85.41 C 10.02 86.86 11.62 82.37 14.72 81.85 C 13.86 85.21 13.28 88.64 13.21 92.11 C 12.14 92.49 11.07 92.87 10.00 93.24 Z" />
<path fill="#4f5571" opacity="1.00" d=" M 8.96 73.90 C 10.92 75.97 13.43 77.37 16.02 78.50 C 14.69 80.30 12.55 81.29 11.11 83.01 C 9.99 84.26 7.79 86.00 6.38 84.13 C 5.95 80.51 7.96 77.26 8.96 73.90 Z" />
<path fill="#54566d" opacity="1.00" d=" M 18.87 77.63 C 23.47 77.71 27.74 80.12 30.38 83.85 C 29.18 87.44 28.56 91.19 28.27 94.96 C 24.18 92.80 19.95 90.90 15.52 89.55 C 15.82 85.39 17.01 81.35 18.87 77.63 Z" />
<path fill="#5d657c" opacity="1.00" d=" M 59.62 81.76 C 62.52 86.75 59.43 92.30 56.45 96.43 C 53.32 100.24 50.22 104.47 45.59 106.56 C 41.36 107.53 37.18 105.36 33.53 103.45 C 29.50 101.18 29.77 95.90 30.52 91.98 C 30.59 92.89 30.74 94.71 30.81 95.62 C 41.02 92.41 50.58 87.44 59.62 81.76 Z" />
<path fill="#393555" opacity="1.00" d=" M 15.52 89.55 C 19.95 90.90 24.18 92.80 28.27 94.96 C 28.35 97.28 28.55 99.60 28.87 101.91 C 26.29 104.91 24.64 108.99 20.93 110.81 C 16.19 104.92 15.39 96.86 15.52 89.55 Z" />
<path fill="#403c5c" opacity="1.00" d=" M 13.21 96.66 C 13.99 99.37 14.60 102.14 15.00 104.94 C 13.45 106.55 11.84 108.11 10.18 109.61 C 9.79 109.15 9.03 108.24 8.64 107.78 C 10.57 104.25 12.49 100.67 13.21 96.66 Z" />
<path fill="#231d36" opacity="1.00" d=" M 43.05 108.97 C 50.68 108.47 55.12 101.87 59.55 96.54 C 60.29 100.17 61.20 103.78 62.57 107.23 C 60.73 109.62 57.62 108.46 55.06 108.72 C 52.34 108.68 49.90 110.01 47.45 111.00 L 41.43 111.00 C 41.84 110.49 42.64 109.48 43.05 108.97 Z" />
<path fill="#27203c" opacity="1.00" d=" M 77.54 99.42 C 79.36 97.35 82.15 99.24 84.34 99.54 C 86.87 100.61 90.42 100.23 92.14 102.64 C 83.24 105.95 74.16 110.52 64.39 109.61 C 64.29 109.23 64.07 108.46 63.97 108.08 C 69.00 106.07 73.56 103.09 77.54 99.42 Z" />
<path fill="#2a243f" opacity="1.00" d=" M 27.00 107.35 C 28.15 106.09 29.31 104.85 30.48 103.61 C 33.48 105.51 36.73 106.94 40.06 108.14 C 40.19 108.86 40.46 110.29 40.59 111.00 L 29.93 111.00 C 28.87 109.85 27.93 108.60 27.00 107.35 Z" />
<path fill="#53536b" opacity="1.00" d=" M 0.00 104.24 C 3.19 105.94 6.23 107.99 8.33 111.00 L 0.00 111.00 L 0.00 104.24 Z" />
</svg>
