<?xml version="1.0" encoding="UTF-8" ?>
<!DOCTYPE svg PUBLIC "-//W3C//DTD SVG 1.1//EN" "http://www.w3.org/Graphics/SVG/1.1/DTD/svg11.dtd">
<svg width="111pt" height="111pt" viewBox="0 0 111 111" version="1.1" xmlns="http://www.w3.org/2000/svg">
<path fill="#000000" opacity="1.00" d=" M 9.89 23.89 C 15.95 13.00 26.71 5.60 38.15 1.25 C 40.58 0.24 43.25 0.40 45.83 0.52 C 44.12 3.14 41.89 5.46 40.62 8.36 C 39.24 12.03 39.06 16.01 38.59 19.87 C 40.89 16.24 43.05 12.27 46.93 10.09 C 45.90 14.95 44.56 19.75 43.92 24.69 C 47.21 24.21 50.51 23.88 53.83 23.68 C 58.61 19.13 63.69 14.28 70.38 12.85 C 68.10 18.02 64.62 22.50 61.87 27.41 C 63.24 26.84 64.61 26.27 65.98 25.70 C 66.47 26.24 67.44 27.31 67.93 27.85 C 70.64 25.39 73.59 22.74 74.40 18.99 C 75.08 16.74 73.73 14.61 73.15 12.50 C 84.05 4.54 97.75 1.90 111.00 1.73 L 111.00 4.72 C 100.03 4.85 88.67 6.48 79.11 12.21 C 78.71 12.44 77.89 12.91 77.48 13.15 C 78.50 18.28 76.76 23.29 73.49 27.23 L 74.10 27.56 L 74.45 28.21 C 74.62 28.84 74.96 30.10 75.13 30.73 C 78.86 29.02 80.11 24.86 81.79 21.47 C 82.11 21.52 82.75 21.63 83.07 21.69 C 94.84 27.84 107.46 36.24 111.00 49.87 L 111.00 66.02 C 109.73 63.25 109.48 60.22 109.56 57.21 C 105.02 51.71 98.71 47.85 91.66 46.62 C 93.14 54.10 94.79 61.63 94.63 69.31 C 92.52 70.32 90.40 71.32 88.28 72.32 C 88.48 75.27 89.31 78.44 88.13 81.29 C 86.57 84.67 83.03 86.31 79.90 87.90 C 79.85 91.28 79.74 94.65 79.50 98.02 C 77.89 99.34 76.28 100.66 74.68 101.99 C 74.37 100.97 74.05 99.95 73.73 98.94 C 73.21 99.36 72.18 100.19 71.66 100.61 C 71.16 99.61 70.66 98.61 70.17 97.62 C 69.52 98.08 68.24 99.02 67.60 99.48 C 66.85 95.81 67.17 92.05 69.50 88.99 C 63.73 88.86 58.11 87.43 52.71 85.49 C 51.56 87.76 50.33 90.00 48.99 92.17 C 48.39 89.79 47.82 87.41 47.27 85.02 C 42.40 85.33 37.99 88.17 33.03 87.55 C 28.61 89.71 24.29 92.29 20.97 95.99 C 17.45 99.65 15.36 104.34 12.67 108.59 C 11.03 100.87 15.15 93.48 19.75 87.61 C 22.83 83.57 27.42 81.19 31.89 79.00 C 32.87 77.55 33.86 76.11 34.86 74.68 C 36.29 75.06 37.71 75.43 39.14 75.81 C 40.53 73.73 41.90 71.64 43.23 69.52 C 40.23 70.91 37.21 72.25 34.15 73.52 C 33.64 73.01 32.64 71.99 32.14 71.48 C 31.09 71.90 30.05 72.33 29.00 72.76 C 27.84 71.91 26.66 71.07 25.47 70.25 C 25.26 69.75 24.84 68.75 24.63 68.24 C 19.87 66.42 15.19 64.38 10.63 62.07 C 9.52 63.86 8.40 65.64 7.23 67.40 C 6.43 64.99 5.68 62.57 4.96 60.14 C 3.30 60.75 1.64 61.35 0.00 62.01 L 0.00 59.20 C 1.48 58.15 3.15 57.18 3.86 55.40 C 4.25 54.38 4.62 53.35 4.97 52.31 L 5.40 50.90 C 3.72 49.48 1.85 48.33 0.00 47.16 L 0.00 44.66 C 1.70 45.45 3.50 46.03 5.08 47.05 C 6.56 48.60 7.23 50.70 8.22 52.55 C 9.85 52.04 11.49 51.53 13.13 51.05 C 12.43 52.69 11.71 54.32 10.99 55.96 C 14.41 57.45 17.82 58.98 21.19 60.58 C 18.31 51.69 17.69 40.58 9.06 34.99 C 7.68 37.04 6.30 39.10 4.78 41.05 C 4.76 34.96 6.88 29.11 9.89 23.89 M 36.48 4.69 C 32.11 6.69 27.89 9.01 23.91 11.70 C 18.11 16.07 13.15 21.59 9.82 28.06 C 12.23 25.69 14.40 23.07 17.00 20.89 C 20.31 18.05 24.34 16.27 27.87 13.75 C 28.07 13.71 28.47 13.65 28.67 13.61 C 28.66 14.04 28.66 14.91 28.65 15.34 C 24.48 20.64 22.61 27.32 21.57 33.88 L 21.35 34.07 C 20.89 38.02 20.63 42.01 20.73 45.99 C 22.27 38.66 25.10 31.68 29.41 25.53 C 33.47 25.05 33.12 31.02 36.23 32.70 C 36.39 31.36 36.26 30.07 35.85 28.84 C 36.29 26.64 37.83 24.38 37.04 22.09 C 35.00 15.69 36.95 8.65 40.43 3.12 C 39.12 3.65 37.80 4.17 36.48 4.69 M 59.64 21.78 L 59.48 22.13 C 57.88 23.44 56.33 24.82 54.83 26.25 C 50.42 26.06 45.82 25.89 41.84 28.15 C 41.39 25.46 41.60 22.73 41.63 20.03 C 40.48 22.59 39.26 25.16 38.64 27.92 C 38.09 32.78 36.32 38.23 39.00 42.75 L 38.72 43.71 C 38.36 44.25 37.64 45.32 37.28 45.86 C 36.98 46.14 36.38 46.69 36.07 46.97 C 37.23 47.94 38.39 48.90 39.56 49.86 C 40.87 49.65 42.19 49.46 43.51 49.28 C 43.89 48.81 44.65 47.85 45.03 47.38 C 46.81 48.54 48.58 49.72 50.35 50.91 C 50.19 48.78 49.99 46.66 49.74 44.54 C 50.88 43.79 52.02 43.06 53.17 42.33 C 53.70 42.41 54.77 42.56 55.30 42.64 C 55.40 41.45 55.49 40.26 55.59 39.07 C 56.18 38.72 57.35 38.03 57.93 37.69 C 57.69 36.29 57.45 34.90 57.22 33.51 C 58.91 27.95 61.57 22.79 64.72 17.93 C 63.03 19.22 61.35 20.52 59.64 21.78 M 9.25 33.14 C 10.40 33.62 11.55 34.09 12.70 34.58 L 12.44 35.62 L 13.72 35.01 C 15.38 37.35 16.93 39.77 18.42 42.22 C 18.53 36.81 19.61 31.50 20.36 26.15 C 21.78 23.91 22.53 21.31 23.56 18.88 C 17.60 22.27 12.87 27.37 9.25 33.14 M 83.10 24.91 C 82.70 26.04 82.30 27.17 81.89 28.30 C 80.64 29.94 79.37 31.57 78.07 33.17 C 80.52 33.57 82.94 34.09 85.33 34.78 C 82.56 37.58 79.01 39.77 77.30 43.47 C 80.52 42.77 83.13 40.64 85.84 38.89 L 86.96 38.64 C 88.02 40.33 89.06 42.03 90.10 43.73 C 91.86 43.69 93.63 43.65 95.40 43.62 L 95.80 44.23 C 100.54 45.93 105.05 48.28 108.85 51.62 C 107.06 47.15 105.23 42.60 102.01 38.94 C 96.84 32.95 90.12 28.47 83.10 24.91 M 22.54 53.31 C 24.76 50.74 26.85 48.00 29.66 46.02 C 29.58 45.71 29.42 45.07 29.34 44.75 C 29.84 44.51 30.82 44.02 31.31 43.77 C 30.47 43.68 28.78 43.51 27.94 43.42 C 28.77 39.86 31.45 37.39 34.10 35.12 C 33.32 34.20 32.55 33.27 31.78 32.35 C 31.34 30.87 30.87 29.40 30.39 27.94 C 25.38 35.40 22.41 44.28 22.54 53.31 M 58.96 33.83 C 59.96 34.83 60.95 35.82 61.94 36.82 C 60.40 37.92 58.85 39.02 57.31 40.12 C 58.98 43.44 60.93 46.63 62.69 49.91 C 63.38 48.04 64.05 46.17 64.67 44.28 C 65.97 42.39 67.18 40.37 68.95 38.86 C 71.73 38.79 74.48 39.56 77.26 39.39 C 78.36 38.27 79.27 36.97 80.22 35.72 C 76.25 35.76 73.79 32.81 71.72 29.84 C 69.60 30.54 67.48 31.24 65.36 31.92 C 64.99 31.26 64.24 29.92 63.87 29.26 C 61.97 30.48 60.30 32.01 58.96 33.83 M 31.64 40.70 C 32.13 41.13 33.12 41.98 33.61 42.40 C 33.55 43.41 33.49 44.43 33.44 45.44 C 34.64 44.61 35.83 43.78 37.03 42.94 C 36.28 41.12 35.52 39.29 34.78 37.46 C 33.73 38.54 32.69 39.62 31.64 40.70 M 68.90 40.52 C 69.02 43.48 69.62 46.59 72.45 48.13 C 75.78 48.35 79.27 48.93 81.98 51.04 C 86.15 54.11 87.74 59.33 89.47 63.96 C 88.14 63.33 85.48 62.09 84.15 61.47 C 84.36 63.60 85.46 64.26 87.45 63.45 C 87.62 64.67 87.95 67.10 88.11 68.32 L 85.87 65.57 C 84.56 67.80 85.97 69.34 87.66 70.68 C 89.39 69.80 91.13 68.94 92.87 68.08 C 91.65 59.06 90.62 49.61 85.79 41.68 C 83.16 43.17 80.55 44.68 77.81 45.94 C 77.17 44.74 76.55 43.54 75.95 42.33 C 74.20 40.16 71.35 40.69 68.90 40.52 M 52.29 44.95 C 52.25 45.66 52.19 47.08 52.15 47.79 C 53.54 46.56 54.96 45.37 56.39 44.18 C 55.02 44.43 53.65 44.68 52.29 44.95 M 65.78 46.50 C 64.72 49.47 63.41 52.37 61.41 54.83 C 60.43 54.39 59.76 51.12 58.46 52.78 C 56.93 53.35 54.97 53.61 54.39 55.43 C 54.37 54.40 54.77 52.54 53.40 52.34 L 53.51 52.01 C 53.14 51.83 52.39 51.49 52.01 51.32 C 51.79 51.89 51.34 53.03 51.11 53.60 C 50.05 53.24 49.03 52.78 48.06 52.22 C 48.17 54.07 48.63 55.98 50.64 56.65 C 50.20 56.90 49.32 57.39 48.88 57.64 C 48.61 58.87 48.54 60.14 48.45 61.39 C 50.63 61.96 53.07 61.30 52.62 58.51 C 53.13 58.72 54.15 59.15 54.67 59.36 C 54.39 59.86 53.85 60.85 53.57 61.35 C 56.33 61.21 59.21 60.97 61.42 59.10 C 59.34 58.75 57.27 58.34 55.17 58.16 C 56.39 57.97 57.61 57.77 58.83 57.56 C 60.32 57.14 61.81 56.70 63.30 56.26 C 63.13 52.24 65.71 49.22 68.19 46.39 C 67.59 46.42 66.38 46.47 65.78 46.50 M 54.67 52.25 C 56.83 51.07 61.11 51.00 59.73 47.12 C 59.06 48.07 57.72 49.98 57.05 50.93 C 56.34 49.52 55.61 48.12 54.88 46.73 C 54.67 48.56 54.64 50.41 54.67 52.25 M 32.11 47.89 C 27.50 50.85 22.10 55.19 23.06 61.36 C 24.84 62.17 26.61 63.01 28.37 63.86 C 29.20 59.45 29.77 54.84 31.92 50.83 C 32.86 50.18 33.83 49.58 34.84 49.04 C 33.93 48.66 33.02 48.28 32.11 47.89 M 66.90 50.97 C 68.21 51.94 69.29 53.15 69.75 54.75 C 75.42 57.71 79.76 62.45 83.95 67.17 C 83.34 65.03 82.69 62.90 82.23 60.72 C 83.21 60.62 85.18 60.42 86.17 60.31 C 84.14 57.27 82.12 53.97 78.83 52.12 C 75.81 50.09 72.02 50.28 68.74 48.90 C 68.13 49.59 67.52 50.28 66.90 50.97 M 45.52 50.25 C 45.11 51.62 45.62 52.15 47.04 51.83 C 47.45 50.47 46.94 49.94 45.52 50.25 M 34.34 51.87 C 32.62 54.39 32.05 57.41 31.04 60.22 C 31.39 63.15 34.22 65.14 33.69 68.30 C 34.71 66.44 35.79 64.61 36.91 62.81 C 36.49 62.40 35.66 61.58 35.24 61.17 C 35.73 60.65 36.71 59.62 37.20 59.10 C 39.76 57.00 42.51 55.14 45.34 53.42 C 44.18 52.35 43.02 51.28 41.86 50.22 C 41.53 50.85 40.88 52.12 40.55 52.75 C 39.60 52.45 38.65 52.15 37.70 51.86 L 37.76 50.89 C 36.66 51.35 35.45 51.45 34.34 51.87 M 6.45 53.27 C 5.03 54.11 4.94 56.39 5.46 57.79 C 6.86 57.67 8.47 53.66 6.45 53.27 M 45.97 55.31 C 45.51 56.70 45.99 57.21 47.39 56.85 C 47.85 55.47 47.38 54.95 45.97 55.31 M 7.20 56.33 C 7.72 59.58 11.30 60.05 13.72 61.34 C 18.86 63.35 23.65 66.69 29.30 67.02 C 26.42 64.48 22.71 63.31 19.28 61.74 C 15.24 59.95 11.45 57.61 7.20 56.33 M 35.85 70.21 C 38.33 69.35 40.75 68.34 43.19 67.37 C 43.82 64.19 44.75 61.09 45.61 57.97 C 41.28 61.05 38.11 65.47 35.85 70.21 M 70.65 57.90 C 71.27 61.76 71.37 65.68 71.87 69.55 C 73.01 68.42 74.16 67.28 75.31 66.15 C 77.70 68.40 78.31 71.63 78.55 74.75 C 78.79 78.51 79.32 82.24 79.81 85.98 C 83.38 83.94 86.59 80.93 86.72 76.54 C 83.31 68.97 77.21 62.85 70.65 57.90 M 6.55 60.55 C 5.97 61.51 6.81 63.74 8.13 63.22 C 8.85 62.25 7.81 60.14 6.55 60.55 M 58.85 66.11 C 58.96 66.46 59.19 67.16 59.30 67.51 C 61.90 71.44 65.12 74.96 68.83 77.87 C 69.56 77.46 70.28 77.03 71.00 76.58 C 72.10 75.05 73.22 73.53 74.43 72.07 C 74.17 73.93 73.41 75.64 72.37 77.18 C 72.62 77.84 73.11 79.15 73.36 79.81 C 73.97 83.46 73.38 87.24 71.31 90.36 L 70.67 90.44 C 70.55 90.80 70.30 91.54 70.18 91.90 C 71.91 91.32 73.70 90.59 75.40 91.64 L 74.84 91.61 C 74.88 94.19 74.88 96.77 75.00 99.34 C 77.98 97.83 77.87 94.55 77.39 91.69 L 76.69 91.68 C 77.08 91.46 77.87 91.03 78.27 90.81 C 75.34 83.95 76.98 76.28 75.22 69.15 C 73.73 70.13 72.37 73.94 70.43 71.68 C 69.60 67.42 68.35 62.66 64.29 60.33 C 62.49 62.27 60.66 64.19 58.85 66.11 M 47.24 62.28 C 46.34 67.79 44.49 73.08 43.69 78.60 C 44.96 79.04 46.23 79.47 47.49 79.92 C 47.33 82.02 48.94 83.67 49.88 85.40 C 50.94 81.11 52.33 76.78 52.22 72.32 C 52.71 69.41 53.09 66.48 53.43 63.54 C 51.36 63.14 49.30 62.72 47.24 62.28 M 54.72 62.89 C 54.90 65.23 55.12 67.57 55.42 69.91 C 56.63 67.89 57.27 65.63 57.76 63.35 C 57.00 63.23 55.48 63.00 54.72 62.89 M 30.05 64.36 C 28.51 65.41 30.52 67.65 31.90 66.73 C 33.41 65.68 31.43 63.42 30.05 64.36 M 31.10 68.51 C 29.50 71.45 34.45 68.71 31.10 68.51 M 28.97 69.44 C 27.45 72.45 32.32 69.56 28.97 69.44 M 54.29 76.63 C 57.53 76.61 60.76 76.68 63.99 76.93 C 61.63 74.72 59.55 72.22 57.82 69.49 C 56.71 71.90 55.54 74.28 54.29 76.63 M 32.97 82.59 C 34.39 80.49 35.59 78.22 36.16 75.74 C 34.16 77.48 33.10 79.95 32.97 82.59 M 35.70 85.31 C 37.10 82.74 37.65 79.83 38.16 76.98 C 35.88 79.17 35.12 82.25 35.70 85.31 M 38.48 85.56 C 40.39 83.72 41.14 81.23 40.97 78.61 C 38.31 79.88 38.80 83.13 38.48 85.56 M 53.51 79.11 C 53.35 80.45 53.20 81.79 53.04 83.13 C 58.98 84.86 65.01 86.49 71.23 86.67 C 71.31 84.38 71.36 82.08 71.38 79.79 C 65.41 80.06 59.49 78.95 53.51 79.11 M 41.73 83.74 C 43.29 83.47 44.86 83.22 46.43 82.94 C 45.41 80.00 43.31 83.14 41.73 83.74 M 14.92 100.24 C 17.67 97.23 19.88 93.70 23.18 91.22 C 26.64 88.35 30.80 86.59 34.79 84.64 C 33.53 84.50 32.26 84.38 30.99 84.28 C 31.06 83.66 31.19 82.41 31.26 81.79 C 23.34 85.14 17.80 92.31 14.92 100.24 M 71.88 98.31 C 73.81 96.66 73.26 94.04 73.27 91.80 C 71.42 93.54 71.44 95.97 71.88 98.31 M 69.10 96.16 C 70.62 95.82 70.86 92.93 69.22 92.60 C 67.74 92.96 67.53 95.79 69.10 96.16 Z" />
<path fill="#8fc8d6" opacity="1.00" d=" M 36.48 4.69 C 37.80 4.17 39.12 3.65 40.43 3.12 C 36.95 8.65 35.00 15.69 37.04 22.09 C 37.83 24.38 36.29 26.64 35.85 28.84 C 33.76 26.02 32.14 22.79 31.95 19.22 C 31.79 16.55 31.59 13.81 32.23 11.18 C 33.17 9.50 34.88 8.44 36.26 7.14 C 36.33 6.33 36.41 5.51 36.48 4.69 Z" />
<path fill="#7fabc3" opacity="1.00" d=" M 79.11 12.21 C 88.67 6.48 100.03 4.85 111.00 4.72 L 111.00 6.34 C 102.93 7.19 94.82 8.44 87.15 11.17 C 84.77 11.92 82.78 13.57 81.60 15.77 C 80.77 14.59 79.94 13.40 79.11 12.21 Z" />
<path fill="#829ace" opacity="1.00" d=" M 23.91 11.70 C 27.89 9.01 32.11 6.69 36.48 4.69 C 36.41 5.51 36.33 6.33 36.26 7.14 C 34.88 8.44 33.17 9.50 32.23 11.18 C 31.59 13.81 31.79 16.55 31.95 19.22 C 31.68 16.95 31.49 14.67 31.29 12.39 C 30.63 12.70 29.32 13.31 28.67 13.61 C 28.47 13.65 28.07 13.71 27.87 13.75 C 26.54 13.09 25.22 12.41 23.91 11.70 Z" />
<path fill="#4c769a" opacity="1.00" d=" M 87.15 11.17 C 94.82 8.44 102.93 7.19 111.00 6.34 L 111.00 7.75 C 103.47 8.55 95.61 8.97 88.92 12.94 C 87.98 13.39 87.05 13.84 86.11 14.29 C 88.44 16.91 90.72 19.58 93.33 21.92 C 89.92 21.51 86.49 21.66 83.07 21.69 C 82.75 21.63 82.11 21.52 81.79 21.47 C 80.11 24.86 78.86 29.02 75.13 30.73 C 74.96 30.10 74.62 28.84 74.45 28.21 L 74.10 27.56 C 74.52 27.43 75.36 27.17 75.78 27.04 C 78.92 24.06 80.01 19.66 81.60 15.77 C 82.78 13.57 84.77 11.92 87.15 11.17 Z" />
<path fill="#000000" opacity="1.00" d=" M 88.92 12.94 C 95.61 8.97 103.47 8.55 111.00 7.75 L 111.00 10.80 C 104.92 11.36 98.75 11.61 92.89 13.50 C 93.62 14.08 94.35 14.65 95.09 15.21 C 102.17 20.76 106.73 28.69 111.00 36.45 L 111.00 43.62 C 109.94 40.00 108.24 36.61 106.33 33.37 C 104.43 29.81 102.44 26.27 99.87 23.14 C 96.74 19.20 92.43 16.49 88.92 12.94 Z" />
<path fill="#dace6e" opacity="1.00" d=" M 92.89 13.50 C 98.75 11.61 104.92 11.36 111.00 10.80 L 111.00 14.15 C 109.40 15.42 107.74 16.61 106.09 17.80 C 106.24 17.01 106.55 15.42 106.70 14.62 C 102.85 15.04 98.97 15.46 95.09 15.21 C 94.35 14.65 93.62 14.08 92.89 13.50 Z" />
<path fill="#80c3d2" opacity="1.00" d=" M 9.82 28.06 C 13.15 21.59 18.11 16.07 23.91 11.70 C 25.22 12.41 26.54 13.09 27.87 13.75 C 24.34 16.27 20.31 18.05 17.00 20.89 C 14.40 23.07 12.23 25.69 9.82 28.06 Z" />
<path fill="#a2ddd4" opacity="1.00" d=" M 77.48 13.15 C 77.89 12.91 78.71 12.44 79.11 12.21 C 79.94 13.40 80.77 14.59 81.60 15.77 C 80.01 19.66 78.92 24.06 75.78 27.04 C 75.36 27.17 74.52 27.43 74.10 27.56 L 73.49 27.23 C 76.76 23.29 78.50 18.28 77.48 13.15 Z" />
<path fill="#535c95" opacity="1.00" d=" M 28.67 13.61 C 29.32 13.31 30.63 12.70 31.29 12.39 C 31.49 14.67 31.68 16.95 31.95 19.22 C 32.14 22.79 33.76 26.02 35.85 28.84 C 36.26 30.07 36.39 31.36 36.23 32.70 C 33.12 31.02 33.47 25.05 29.41 25.53 C 29.15 24.30 28.91 23.07 28.68 21.84 C 28.67 19.67 28.65 17.51 28.65 15.34 C 28.66 14.91 28.66 14.04 28.67 13.61 Z" />
<path fill="#4e529b" opacity="1.00" d=" M 86.11 14.29 C 87.05 13.84 87.98 13.39 88.92 12.94 C 92.43 16.49 96.74 19.20 99.87 23.14 C 102.44 26.27 104.43 29.81 106.33 33.37 C 101.87 29.70 97.81 25.56 93.33 21.92 C 90.72 19.58 88.44 16.91 86.11 14.29 Z" />
<path fill="#817a49" opacity="1.00" d=" M 95.09 15.21 C 98.97 15.46 102.85 15.04 106.70 14.62 C 106.55 15.42 106.24 17.01 106.09 17.80 C 107.74 16.61 109.40 15.42 111.00 14.15 L 111.00 36.45 C 106.73 28.69 102.17 20.76 95.09 15.21 Z" />
<path fill="#79c0cb" opacity="1.00" d=" M 28.65 15.34 C 28.65 17.51 28.67 19.67 28.68 21.84 C 26.70 25.55 24.80 29.31 22.68 32.95 C 22.40 33.18 21.85 33.65 21.57 33.88 C 22.61 27.32 24.48 20.64 28.65 15.34 Z" />
<path fill="#568d9b" opacity="1.00" d=" M 59.64 21.78 C 61.35 20.52 63.03 19.22 64.72 17.93 C 61.57 22.79 58.91 27.95 57.22 33.51 C 56.99 32.21 56.75 30.92 56.51 29.62 C 56.99 28.23 57.47 26.84 57.98 25.46 C 58.49 24.36 58.99 23.24 59.48 22.13 L 59.64 21.78 Z" />
<path fill="#cdd56c" opacity="1.00" d=" M 9.25 33.14 C 12.87 27.37 17.60 22.27 23.56 18.88 C 22.53 21.31 21.78 23.91 20.36 26.15 C 19.99 26.50 19.24 27.21 18.87 27.56 C 17.43 28.19 15.90 28.67 14.52 29.46 C 13.47 30.96 13.24 32.86 12.70 34.58 C 11.55 34.09 10.40 33.62 9.25 33.14 Z" />
<path fill="#71c4ab" opacity="1.00" d=" M 38.64 27.92 C 39.26 25.16 40.48 22.59 41.63 20.03 C 41.60 22.73 41.39 25.46 41.84 28.15 C 41.91 28.66 42.06 29.67 42.13 30.17 C 45.56 28.51 49.15 27.21 52.86 26.32 C 52.08 28.62 51.29 30.92 50.24 33.11 C 49.40 34.67 48.58 36.23 47.74 37.78 C 44.84 39.00 41.24 40.63 38.29 38.74 C 37.78 35.16 38.45 31.51 38.64 27.92 Z" />
<path fill="#75c7d0" opacity="1.00" d=" M 83.07 21.69 C 86.49 21.66 89.92 21.51 93.33 21.92 C 97.81 25.56 101.87 29.70 106.33 33.37 C 108.24 36.61 109.94 40.00 111.00 43.62 L 111.00 49.87 C 107.46 36.24 94.84 27.84 83.07 21.69 Z" />
<path fill="#517795" opacity="1.00" d=" M 22.68 32.95 C 24.80 29.31 26.70 25.55 28.68 21.84 C 28.91 23.07 29.15 24.30 29.41 25.53 C 25.10 31.68 22.27 38.66 20.73 45.99 C 20.63 42.01 20.89 38.02 21.35 34.07 L 21.57 33.88 C 21.85 33.65 22.40 33.18 22.68 32.95 Z" />
<path fill="#a2ddd4" opacity="1.00" d=" M 54.83 26.25 C 56.33 24.82 57.88 23.44 59.48 22.13 C 58.99 23.24 58.49 24.36 57.98 25.46 C 55.30 27.90 52.45 30.21 50.24 33.11 C 51.29 30.92 52.08 28.62 52.86 26.32 C 49.15 27.21 45.56 28.51 42.13 30.17 C 42.06 29.67 41.91 28.66 41.84 28.15 C 45.82 25.89 50.42 26.06 54.83 26.25 Z" />
<path fill="#dabf6a" opacity="1.00" d=" M 83.10 24.91 C 90.12 28.47 96.84 32.95 102.01 38.94 C 105.23 42.60 107.06 47.15 108.85 51.62 C 105.05 48.28 100.54 45.93 95.80 44.23 L 95.40 43.62 C 94.04 41.60 92.73 39.44 90.68 38.06 C 89.42 38.11 88.19 38.38 86.96 38.64 L 85.84 38.89 C 86.87 38.18 87.90 37.46 88.93 36.75 C 86.50 34.00 84.15 31.19 81.89 28.30 C 82.30 27.17 82.70 26.04 83.10 24.91 Z" />
<path fill="#75afce" opacity="1.00" d=" M 50.24 33.11 C 52.45 30.21 55.30 27.90 57.98 25.46 C 57.47 26.84 56.99 28.23 56.51 29.62 C 56.21 29.94 55.62 30.56 55.32 30.88 C 53.58 32.73 52.05 34.78 50.41 36.72 C 49.74 36.99 48.40 37.52 47.74 37.78 C 48.58 36.23 49.40 34.67 50.24 33.11 Z" />
<path fill="#888453" opacity="1.00" d=" M 18.87 27.56 C 19.24 27.21 19.99 26.50 20.36 26.15 C 19.61 31.50 18.53 36.81 18.42 42.22 C 16.93 39.77 15.38 37.35 13.72 35.01 C 14.48 34.64 15.24 34.27 16.00 33.90 C 16.77 31.71 17.62 29.53 18.87 27.56 Z" />
<path fill="#d9b483" opacity="1.00" d=" M 14.52 29.46 C 15.90 28.67 17.43 28.19 18.87 27.56 C 17.62 29.53 16.77 31.71 16.00 33.90 C 15.24 34.27 14.48 34.64 13.72 35.01 L 12.44 35.62 L 12.70 34.58 C 13.24 32.86 13.47 30.96 14.52 29.46 Z" />
<path fill="#5e679f" opacity="1.00" d=" M 39.00 42.75 C 36.32 38.23 38.09 32.78 38.64 27.92 C 38.45 31.51 37.78 35.16 38.29 38.74 C 41.24 40.63 44.84 39.00 47.74 37.78 C 48.40 37.52 49.74 36.99 50.41 36.72 C 48.98 38.53 47.39 40.22 45.50 41.55 C 43.80 41.52 42.08 41.54 40.39 41.82 C 40.04 42.05 39.35 42.51 39.00 42.75 Z" />
<path fill="#c6d15c" opacity="1.00" d=" M 22.54 53.31 C 22.41 44.28 25.38 35.40 30.39 27.94 C 30.87 29.40 31.34 30.87 31.78 32.35 C 32.55 33.27 33.32 34.20 34.10 35.12 C 31.45 37.39 28.77 39.86 27.94 43.42 C 28.78 43.51 30.47 43.68 31.31 43.77 C 30.82 44.02 29.84 44.51 29.34 44.75 C 29.42 45.07 29.58 45.71 29.66 46.02 C 26.85 48.00 24.76 50.74 22.54 53.31 Z" />
<path fill="#78905a" opacity="1.00" d=" M 78.07 33.17 C 79.37 31.57 80.64 29.94 81.89 28.30 C 84.15 31.19 86.50 34.00 88.93 36.75 C 87.90 37.46 86.87 38.18 85.84 38.89 C 83.13 40.64 80.52 42.77 77.30 43.47 C 79.01 39.77 82.56 37.58 85.33 34.78 C 82.94 34.09 80.52 33.57 78.07 33.17 Z" />
<path fill="#5c6498" opacity="1.00" d=" M 55.32 30.88 C 55.62 30.56 56.21 29.94 56.51 29.62 C 56.75 30.92 56.99 32.21 57.22 33.51 C 57.45 34.90 57.69 36.29 57.93 37.69 C 57.35 38.03 56.18 38.72 55.59 39.07 C 55.49 40.26 55.40 41.45 55.30 42.64 C 54.77 42.56 53.70 42.41 53.17 42.33 C 52.83 42.28 52.15 42.19 51.80 42.14 C 53.35 38.51 54.30 34.68 55.32 30.88 Z" />
<path fill="#2d2d2d" opacity="1.00" d=" M 58.96 33.83 C 60.30 32.01 61.97 30.48 63.87 29.26 C 64.24 29.92 64.99 31.26 65.36 31.92 C 67.48 31.24 69.60 30.54 71.72 29.84 C 73.79 32.81 76.25 35.76 80.22 35.72 C 79.27 36.97 78.36 38.27 77.26 39.39 C 74.48 39.56 71.73 38.79 68.95 38.86 C 67.18 40.37 65.97 42.39 64.67 44.28 C 64.05 46.17 63.38 48.04 62.69 49.91 C 60.93 46.63 58.98 43.44 57.31 40.12 C 58.85 39.02 60.40 37.92 61.94 36.82 C 60.95 35.82 59.96 34.83 58.96 33.83 Z" />
<path fill="#000000" opacity="1.00" d=" M 50.41 36.72 C 52.05 34.78 53.58 32.73 55.32 30.88 C 54.30 34.68 53.35 38.51 51.80 42.14 C 50.60 41.99 49.39 41.86 48.18 41.75 C 47.51 41.70 46.17 41.60 45.50 41.55 C 47.39 40.22 48.98 38.53 50.41 36.72 M 51.53 38.20 C 50.50 38.38 48.94 39.49 49.49 40.67 C 50.78 41.63 53.55 38.69 51.53 38.20 Z" />
<path fill="#2e2e2e" opacity="1.00" d=" M 31.64 40.70 C 32.69 39.62 33.73 38.54 34.78 37.46 C 35.52 39.29 36.28 41.12 37.03 42.94 C 35.83 43.78 34.64 44.61 33.44 45.44 C 33.49 44.43 33.55 43.41 33.61 42.40 C 33.12 41.98 32.13 41.13 31.64 40.70 Z" />
<path fill="#fffecf" opacity="1.00" d=" M 51.53 38.20 C 53.55 38.69 50.78 41.63 49.49 40.67 C 48.94 39.49 50.50 38.38 51.53 38.20 Z" />
<path fill="#bf9f72" opacity="1.00" d=" M 86.96 38.64 C 88.19 38.38 89.42 38.11 90.68 38.06 C 92.73 39.44 94.04 41.60 95.40 43.62 C 93.63 43.65 91.86 43.69 90.10 43.73 C 89.06 42.03 88.02 40.33 86.96 38.64 Z" />
<path fill="#79bcc7" opacity="1.00" d=" M 40.39 41.82 C 42.08 41.54 43.80 41.52 45.50 41.55 C 46.17 41.60 47.51 41.70 48.18 41.75 C 47.27 43.03 46.35 44.30 45.45 45.58 C 42.74 45.89 40.01 46.07 37.28 45.86 C 37.64 45.32 38.36 44.25 38.72 43.71 C 39.71 46.27 41.51 43.18 40.39 41.82 Z" />
<path fill="#5e679f" opacity="1.00" d=" M 68.90 40.52 C 71.35 40.69 74.20 40.16 75.95 42.33 C 74.55 43.51 73.14 44.68 71.73 45.86 C 71.91 46.43 72.27 47.56 72.45 48.13 C 69.62 46.59 69.02 43.48 68.90 40.52 Z" />
<path fill="#a5dedb" opacity="1.00" d=" M 40.39 41.82 C 41.51 43.18 39.71 46.27 38.72 43.71 L 39.00 42.75 C 39.35 42.51 40.04 42.05 40.39 41.82 Z" />
<path fill="#487898" opacity="1.00" d=" M 48.18 41.75 C 49.39 41.86 50.60 41.99 51.80 42.14 C 52.15 42.19 52.83 42.28 53.17 42.33 C 52.02 43.06 50.88 43.79 49.74 44.54 C 49.99 46.66 50.19 48.78 50.35 50.91 C 48.58 49.72 46.81 48.54 45.03 47.38 C 44.65 47.85 43.89 48.81 43.51 49.28 C 42.19 49.46 40.87 49.65 39.56 49.86 C 38.39 48.90 37.23 47.94 36.07 46.97 C 36.38 46.69 36.98 46.14 37.28 45.86 C 40.01 46.07 42.74 45.89 45.45 45.58 C 46.35 44.30 47.27 43.03 48.18 41.75 Z" />
<path fill="#7da9d0" opacity="1.00" d=" M 77.81 45.94 C 80.55 44.68 83.16 43.17 85.79 41.68 C 90.62 49.61 91.65 59.06 92.87 68.08 C 91.13 68.94 89.39 69.80 87.66 70.68 C 85.97 69.34 84.56 67.80 85.87 65.57 L 88.11 68.32 C 87.95 67.10 87.62 64.67 87.45 63.45 C 85.46 64.26 84.36 63.60 84.15 61.47 C 85.48 62.09 88.14 63.33 89.47 63.96 C 87.74 59.33 86.15 54.11 81.98 51.04 C 79.27 48.93 75.78 48.35 72.45 48.13 C 72.27 47.56 71.91 46.43 71.73 45.86 C 73.14 44.68 74.55 43.51 75.95 42.33 C 76.55 43.54 77.17 44.74 77.81 45.94 Z" />
<path fill="#7994c9" opacity="1.00" d=" M 52.29 44.95 C 53.65 44.68 55.02 44.43 56.39 44.18 C 54.96 45.37 53.54 46.56 52.15 47.79 C 52.19 47.08 52.25 45.66 52.29 44.95 Z" />
<path fill="#5e679f" opacity="1.00" d=" M 65.78 46.50 C 66.38 46.47 67.59 46.42 68.19 46.39 C 65.71 49.22 63.13 52.24 63.30 56.26 C 61.81 56.70 60.32 57.14 58.83 57.56 C 58.68 55.97 58.56 54.37 58.46 52.78 C 59.76 51.12 60.43 54.39 61.41 54.83 C 63.41 52.37 64.72 49.47 65.78 46.50 Z" />
<path fill="#7cbbd3" opacity="1.00" d=" M 54.67 52.25 C 54.64 50.41 54.67 48.56 54.88 46.73 C 55.61 48.12 56.34 49.52 57.05 50.93 C 57.72 49.98 59.06 48.07 59.73 47.12 C 61.11 51.00 56.83 51.07 54.67 52.25 Z" />
<path fill="#c36c90" opacity="1.00" d=" M 0.00 47.16 C 1.85 48.33 3.72 49.48 5.40 50.90 L 4.97 52.31 C 4.19 51.78 3.41 51.24 2.63 50.71 C 1.76 50.83 0.88 50.95 0.00 51.08 L 0.00 47.16 Z" />
<path fill="#8d2a89" opacity="1.00" d=" M 0.00 51.08 C 0.88 50.95 1.76 50.83 2.63 50.71 C 3.41 51.24 4.19 51.78 4.97 52.31 C 4.62 53.35 4.25 54.38 3.86 55.40 C 2.57 55.54 1.28 55.69 0.00 55.90 L 0.00 51.08 Z" />
<path fill="#566f88" opacity="1.00" d=" M 45.52 50.25 C 46.94 49.94 47.45 50.47 47.04 51.83 C 45.62 52.15 45.11 51.62 45.52 50.25 Z" />
<path fill="#7994c9" opacity="1.00" d=" M 34.34 51.87 C 35.45 51.45 36.66 51.35 37.76 50.89 L 37.70 51.86 C 37.53 54.27 37.35 56.69 37.20 59.10 C 36.71 59.62 35.73 60.65 35.24 61.17 C 35.66 61.58 36.49 62.40 36.91 62.81 C 35.79 64.61 34.71 66.44 33.69 68.30 C 34.22 65.14 31.39 63.15 31.04 60.22 C 31.47 60.41 32.34 60.77 32.78 60.95 C 33.72 58.02 34.90 55.01 34.34 51.87 Z" />
<path fill="#487398" opacity="1.00" d=" M 40.55 52.75 C 40.88 52.12 41.53 50.85 41.86 50.22 C 43.02 51.28 44.18 52.35 45.34 53.42 C 42.51 55.14 39.76 57.00 37.20 59.10 C 37.35 56.69 37.53 54.27 37.70 51.86 C 38.65 52.15 39.60 52.45 40.55 52.75 Z" />
<path fill="#a2ddd4" opacity="1.00" d=" M 52.01 51.32 C 52.39 51.49 53.14 51.83 53.51 52.01 L 53.40 52.34 C 53.34 52.51 53.22 52.85 53.16 53.02 C 52.84 54.58 52.23 56.07 50.64 56.65 C 48.63 55.98 48.17 54.07 48.06 52.22 C 49.03 52.78 50.05 53.24 51.11 53.60 C 51.34 53.03 51.79 51.89 52.01 51.32 Z" />
<path fill="#353535" opacity="1.00" d=" M 53.40 52.34 C 54.77 52.54 54.37 54.40 54.39 55.43 C 54.08 56.36 53.77 57.30 53.46 58.24 C 53.89 58.22 54.74 58.18 55.17 58.16 C 57.27 58.34 59.34 58.75 61.42 59.10 C 59.21 60.97 56.33 61.21 53.57 61.35 C 53.85 60.85 54.39 59.86 54.67 59.36 C 54.15 59.15 53.13 58.72 52.62 58.51 C 52.13 58.31 51.16 57.91 50.67 57.72 C 50.22 57.70 49.32 57.66 48.88 57.64 C 49.32 57.39 50.20 56.90 50.64 56.65 C 52.23 56.07 52.84 54.58 53.16 53.02 C 53.22 52.85 53.34 52.51 53.40 52.34 Z" />
<path fill="#fffecf" opacity="1.00" d=" M 6.45 53.27 C 8.47 53.66 6.86 57.67 5.46 57.79 C 4.94 56.39 5.03 54.11 6.45 53.27 Z" />
<path fill="#a2ddd4" opacity="1.00" d=" M 31.04 60.22 C 32.05 57.41 32.62 54.39 34.34 51.87 C 34.90 55.01 33.72 58.02 32.78 60.95 C 32.34 60.77 31.47 60.41 31.04 60.22 Z" />
<path fill="#86d8c9" opacity="1.00" d=" M 54.39 55.43 C 54.97 53.61 56.93 53.35 58.46 52.78 C 58.56 54.37 58.68 55.97 58.83 57.56 C 57.61 57.77 56.39 57.97 55.17 58.16 C 54.74 58.18 53.89 58.22 53.46 58.24 C 53.77 57.30 54.08 56.36 54.39 55.43 Z" />
<path fill="#fffecf" opacity="1.00" d=" M 0.00 55.90 C 1.28 55.69 2.57 55.54 3.86 55.40 C 3.15 57.18 1.48 58.15 0.00 59.20 L 0.00 55.90 Z" />
<path fill="#2c2726" opacity="1.00" d=" M 45.97 55.31 C 47.38 54.95 47.85 55.47 47.39 56.85 C 45.99 57.21 45.51 56.70 45.97 55.31 Z" />
<path fill="#393b3d" opacity="1.00" d=" M 7.20 56.33 C 11.45 57.61 15.24 59.95 19.28 61.74 C 22.71 63.31 26.42 64.48 29.30 67.02 C 23.65 66.69 18.86 63.35 13.72 61.34 C 11.30 60.05 7.72 59.58 7.20 56.33 Z" />
<path fill="#73c3a9" opacity="1.00" d=" M 35.85 70.21 C 38.11 65.47 41.28 61.05 45.61 57.97 C 44.75 61.09 43.82 64.19 43.19 67.37 C 40.75 68.34 38.33 69.35 35.85 70.21 Z" />
<path fill="#fffecf" opacity="1.00" d=" M 48.45 61.39 C 48.54 60.14 48.61 58.87 48.88 57.64 C 49.32 57.66 50.22 57.70 50.67 57.72 C 51.16 57.91 52.13 58.31 52.62 58.51 C 53.07 61.30 50.63 61.96 48.45 61.39 Z" />
<path fill="#547096" opacity="1.00" d=" M 70.65 57.90 C 77.21 62.85 83.31 68.97 86.72 76.54 C 83.99 75.99 81.27 75.37 78.55 74.75 C 78.31 71.63 77.70 68.40 75.31 66.15 C 74.16 67.28 73.01 68.42 71.87 69.55 C 71.37 65.68 71.27 61.76 70.65 57.90 Z" />
<path fill="#bf9f72" opacity="1.00" d=" M 6.55 60.55 C 7.81 60.14 8.85 62.25 8.13 63.22 C 6.81 63.74 5.97 61.51 6.55 60.55 Z" />
<path fill="#4c9094" opacity="1.00" d=" M 58.85 66.11 C 60.66 64.19 62.49 62.27 64.29 60.33 C 68.35 62.66 69.60 67.42 70.43 71.68 C 69.69 71.14 68.22 70.06 67.49 69.52 C 66.08 67.62 64.60 65.80 63.10 63.98 C 61.83 65.15 60.56 66.33 59.30 67.51 C 59.19 67.16 58.96 66.46 58.85 66.11 Z" />
<path fill="#353535" opacity="1.00" d=" M 47.24 62.28 C 49.30 62.72 51.36 63.14 53.43 63.54 C 53.09 66.48 52.71 69.41 52.22 72.32 C 51.44 70.97 50.60 69.66 49.76 68.35 C 48.75 72.15 47.84 75.99 47.49 79.92 C 46.23 79.47 44.96 79.04 43.69 78.60 C 44.49 73.08 46.34 67.79 47.24 62.28 Z" />
<path fill="#343231" opacity="1.00" d=" M 54.72 62.89 C 55.48 63.00 57.00 63.23 57.76 63.35 C 57.27 65.63 56.63 67.89 55.42 69.91 C 55.12 67.57 54.90 65.23 54.72 62.89 Z" />
<path fill="#7994c9" opacity="1.00" d=" M 30.05 64.36 C 31.43 63.42 33.41 65.68 31.90 66.73 C 30.52 67.65 28.51 65.41 30.05 64.36 Z" />
<path fill="#7cbbd3" opacity="1.00" d=" M 63.10 63.98 C 64.60 65.80 66.08 67.62 67.49 69.52 C 68.41 71.99 69.52 74.39 71.00 76.58 C 70.28 77.03 69.56 77.46 68.83 77.87 C 65.12 74.96 61.90 71.44 59.30 67.51 C 60.56 66.33 61.83 65.15 63.10 63.98 Z" />
<path fill="#3e5755" opacity="1.00" d=" M 31.10 68.51 C 34.45 68.71 29.50 71.45 31.10 68.51 Z" />
<path fill="#528181" opacity="1.00" d=" M 28.97 69.44 C 32.32 69.56 27.45 72.45 28.97 69.44 Z" />
<path fill="#252525" opacity="1.00" d=" M 47.49 79.92 C 47.84 75.99 48.75 72.15 49.76 68.35 C 50.60 69.66 51.44 70.97 52.22 72.32 C 52.33 76.78 50.94 81.11 49.88 85.40 C 48.94 83.67 47.33 82.02 47.49 79.92 Z" />
<path fill="#50809c" opacity="1.00" d=" M 67.49 69.52 C 68.22 70.06 69.69 71.14 70.43 71.68 C 72.37 73.94 73.73 70.13 75.22 69.15 C 76.98 76.28 75.34 83.95 78.27 90.81 C 77.87 91.03 77.08 91.46 76.69 91.68 C 76.37 91.67 75.72 91.65 75.40 91.64 C 73.70 90.59 71.91 91.32 70.18 91.90 C 70.30 91.54 70.55 90.80 70.67 90.44 L 71.31 90.36 C 73.30 90.11 75.29 89.88 77.27 89.65 C 75.97 86.37 74.63 83.10 73.36 79.81 C 73.11 79.15 72.62 77.84 72.37 77.18 C 73.41 75.64 74.17 73.93 74.43 72.07 C 73.22 73.53 72.10 75.05 71.00 76.58 C 69.52 74.39 68.41 71.99 67.49 69.52 Z" />
<path fill="#568d9b" opacity="1.00" d=" M 78.55 74.75 C 81.27 75.37 83.99 75.99 86.72 76.54 C 86.59 80.93 83.38 83.94 79.81 85.98 C 79.32 82.24 78.79 78.51 78.55 74.75 Z" />
<path fill="#dace6e" opacity="1.00" d=" M 32.97 82.59 C 33.10 79.95 34.16 77.48 36.16 75.74 C 35.59 78.22 34.39 80.49 32.97 82.59 Z" />
<path fill="#dace6e" opacity="1.00" d=" M 35.70 85.31 C 35.12 82.25 35.88 79.17 38.16 76.98 C 37.65 79.83 37.10 82.74 35.70 85.31 Z" />
<path fill="#dabf6a" opacity="1.00" d=" M 38.48 85.56 C 38.80 83.13 38.31 79.88 40.97 78.61 C 41.14 81.23 40.39 83.72 38.48 85.56 Z" />
<path fill="#517795" opacity="1.00" d=" M 53.51 79.11 C 59.49 78.95 65.41 80.06 71.38 79.79 C 71.36 82.08 71.31 84.38 71.23 86.67 C 65.01 86.49 58.98 84.86 53.04 83.13 C 53.20 81.79 53.35 80.45 53.51 79.11 Z" />
<path fill="#7ebed6" opacity="1.00" d=" M 73.36 79.81 C 74.63 83.10 75.97 86.37 77.27 89.65 C 75.29 89.88 73.30 90.11 71.31 90.36 C 73.38 87.24 73.97 83.46 73.36 79.81 Z" />
<path fill="#7cbbd3" opacity="1.00" d=" M 41.73 83.74 C 43.31 83.14 45.41 80.00 46.43 82.94 C 44.86 83.22 43.29 83.47 41.73 83.74 Z" />
<path fill="#80c3d2" opacity="1.00" d=" M 14.92 100.24 C 17.80 92.31 23.34 85.14 31.26 81.79 C 31.19 82.41 31.06 83.66 30.99 84.28 C 32.26 84.38 33.53 84.50 34.79 84.64 C 30.80 86.59 26.64 88.35 23.18 91.22 C 19.88 93.70 17.67 97.23 14.92 100.24 Z" />
<path fill="#fffecf" opacity="1.00" d=" M 71.88 98.31 C 71.44 95.97 71.42 93.54 73.27 91.80 C 73.26 94.04 73.81 96.66 71.88 98.31 Z" />
<path fill="#dab180" opacity="1.00" d=" M 75.40 91.64 C 75.72 91.65 76.37 91.67 76.69 91.68 L 77.39 91.69 C 77.87 94.55 77.98 97.83 75.00 99.34 C 74.88 96.77 74.88 94.19 74.84 91.61 L 75.40 91.64 Z" />
<path fill="#888453" opacity="1.00" d=" M 69.10 96.16 C 67.53 95.79 67.74 92.96 69.22 92.60 C 70.86 92.93 70.62 95.82 69.10 96.16 Z" />
<path fill="#000000" opacity="1.00" d=" M 15.54 111.00 C 25.98 110.01 36.46 109.42 46.95 109.32 C 66.82 109.10 86.75 108.99 106.54 111.00 L 15.54 111.00 Z" />
</svg>
