<?xml version="1.0" encoding="UTF-8" ?>
<!DOCTYPE svg PUBLIC "-//W3C//DTD SVG 1.1//EN" "http://www.w3.org/Graphics/SVG/1.1/DTD/svg11.dtd">
<svg width="111pt" height="111pt" viewBox="0 0 111 111" version="1.1" xmlns="http://www.w3.org/2000/svg">
<path fill="#020101" opacity="1.00" d=" M 15.40 0.00 L 16.73 0.00 C 14.88 10.01 17.81 20.01 20.34 29.62 C 21.44 32.24 21.62 35.98 24.70 37.10 C 23.71 30.40 22.88 23.68 21.52 17.04 C 20.31 11.40 21.45 5.68 21.55 0.00 L 23.37 0.00 C 23.49 4.87 22.35 9.75 23.16 14.60 C 24.42 22.05 26.11 29.44 28.46 36.63 C 30.44 37.13 32.43 37.62 34.41 38.14 C 34.68 41.63 35.97 44.91 36.64 48.33 C 39.07 48.70 41.52 48.84 43.97 48.67 C 44.82 47.42 45.69 46.17 46.57 44.93 C 45.85 43.43 45.13 41.92 44.47 40.39 C 46.69 39.36 47.85 37.04 50.03 35.94 C 48.62 34.54 47.24 33.12 45.92 31.63 C 47.25 31.16 48.58 30.69 49.92 30.23 C 48.79 27.27 47.83 24.24 47.16 21.14 C 47.77 20.51 48.39 19.88 49.00 19.24 C 43.93 12.96 38.72 6.75 34.27 0.00 L 36.25 0.00 C 40.91 6.54 45.74 12.96 50.75 19.24 C 50.88 18.74 51.13 17.75 51.26 17.25 C 52.13 19.16 53.05 21.06 53.91 22.98 C 51.98 22.43 50.08 21.80 48.17 21.18 C 49.01 24.28 50.07 27.32 51.29 30.29 C 50.09 30.94 48.88 31.59 47.67 32.23 C 48.95 33.54 50.26 34.82 51.55 36.11 C 50.89 36.88 50.23 37.64 49.58 38.41 C 48.56 39.67 47.42 40.81 46.32 41.99 C 46.99 42.72 47.69 43.43 48.41 44.13 C 47.67 45.18 46.94 46.23 46.21 47.29 C 48.90 46.62 51.57 45.86 54.24 45.11 C 53.45 46.07 51.86 47.99 51.07 48.95 C 52.71 48.31 54.33 47.60 55.96 46.93 C 55.82 47.59 55.54 48.90 55.40 49.55 C 53.29 49.55 51.18 49.67 49.09 49.98 C 48.70 50.05 47.90 50.17 47.51 50.24 C 47.04 49.73 46.11 48.73 45.65 48.23 C 44.79 49.64 43.95 51.07 43.10 52.49 C 40.42 50.48 36.83 51.35 34.99 54.04 C 33.76 56.46 35.10 58.93 36.87 60.60 C 38.94 58.71 40.94 56.75 42.93 54.78 L 42.93 56.00 C 42.04 57.35 41.07 58.64 40.13 59.96 C 42.82 59.06 45.43 57.93 47.97 56.67 L 47.28 57.65 C 46.22 59.01 45.11 60.33 44.03 61.67 C 43.81 61.92 43.39 62.41 43.18 62.66 C 41.77 62.39 40.37 62.05 38.98 61.72 C 39.16 62.27 39.53 63.38 39.72 63.93 C 38.59 65.63 37.72 67.47 36.98 69.37 C 38.82 69.02 40.66 68.71 42.51 68.44 C 40.92 69.92 38.74 70.22 36.72 70.73 C 36.62 71.26 36.42 72.34 36.32 72.88 C 35.99 73.21 35.32 73.88 34.99 74.22 C 34.84 72.74 34.72 71.26 34.61 69.79 L 34.64 69.42 C 35.31 67.67 35.93 65.90 36.47 64.10 C 35.75 64.24 34.29 64.53 33.57 64.67 C 36.37 61.22 32.34 57.33 33.45 53.43 C 29.09 55.12 24.52 56.20 19.88 56.75 C 19.57 56.45 18.96 55.85 18.66 55.55 C 23.95 54.60 29.45 53.83 34.27 51.33 C 35.77 49.20 35.07 46.33 34.22 44.06 C 33.57 42.33 32.85 40.64 32.19 38.92 C 25.52 38.88 18.37 37.04 12.01 39.64 C 9.18 39.69 6.35 39.56 3.52 39.44 C 5.74 41.66 8.13 43.72 10.74 45.47 C 12.55 49.11 16.87 50.80 17.98 54.84 C 12.64 50.96 8.03 46.21 3.45 41.49 C 2.65 40.71 2.51 39.55 2.14 38.55 C 8.51 36.73 15.17 36.62 21.74 36.69 C 18.06 28.92 16.55 20.41 15.05 12.02 C 14.25 8.03 14.82 3.97 15.40 0.00 Z" />
<path fill="#93856e" opacity="1.00" d=" M 16.73 0.00 L 21.55 0.00 C 21.45 5.68 20.31 11.40 21.52 17.04 C 22.88 23.68 23.71 30.40 24.70 37.10 C 21.62 35.98 21.44 32.24 20.34 29.62 C 17.81 20.01 14.88 10.01 16.73 0.00 Z" />
<path fill="#abbb77" opacity="1.00" d=" M 60.42 0.00 L 62.60 0.00 C 64.34 1.55 66.50 2.35 68.79 2.65 C 66.61 4.33 64.36 5.93 62.49 7.95 C 61.65 9.92 64.59 10.44 65.66 11.54 C 63.66 11.51 61.66 11.50 59.66 11.50 C 59.57 12.98 59.49 14.47 59.41 15.95 C 60.92 16.64 62.44 17.31 63.93 18.06 C 63.85 20.85 64.97 23.53 67.73 24.62 L 68.76 24.61 C 70.22 24.58 71.68 24.60 73.14 24.66 C 69.46 26.64 64.26 23.92 61.75 28.00 C 64.30 28.67 67.14 30.28 69.74 28.86 C 73.86 27.51 76.17 23.15 80.55 22.35 C 81.38 20.95 82.62 19.65 82.84 17.98 C 82.14 16.66 81.14 15.53 80.21 14.36 C 81.30 13.09 82.41 11.84 83.54 10.60 C 83.63 10.49 83.82 10.27 83.91 10.16 C 84.31 9.09 84.68 8.02 85.04 6.93 C 85.95 7.81 86.87 8.68 87.80 9.55 C 87.09 10.29 86.43 11.07 85.76 11.84 C 90.24 9.64 94.11 6.47 98.22 3.69 C 98.12 2.83 98.04 1.98 97.96 1.13 C 98.25 0.84 98.82 0.28 99.10 0.00 L 100.57 0.00 C 101.17 0.94 101.81 1.85 102.48 2.74 C 103.86 2.29 104.60 0.94 105.61 0.00 L 110.46 0.00 C 109.83 0.71 109.22 1.43 108.61 2.16 C 108.74 3.11 108.87 4.07 109.00 5.02 C 107.52 5.93 106.03 6.81 104.53 7.69 C 104.82 8.08 105.39 8.86 105.68 9.26 C 103.26 12.74 98.62 11.21 95.05 11.71 C 95.78 13.19 96.97 14.33 98.31 15.27 C 98.42 16.91 98.39 18.57 97.41 19.97 C 95.10 20.06 92.79 20.25 90.50 20.58 C 91.63 22.00 92.78 23.42 93.93 24.83 C 91.57 25.17 89.11 25.16 86.84 25.94 C 83.16 28.88 79.84 32.24 76.16 35.18 C 74.19 36.78 71.45 37.14 69.66 39.01 C 70.25 40.02 70.90 41.00 71.55 41.97 C 70.71 43.37 69.85 44.76 69.00 46.15 C 66.19 46.01 63.61 47.17 62.20 49.66 C 59.51 50.44 56.71 51.05 53.91 50.46 C 53.01 51.07 52.09 51.66 51.15 52.22 C 50.64 51.66 49.61 50.54 49.09 49.98 C 51.18 49.67 53.29 49.55 55.40 49.55 C 55.54 48.90 55.82 47.59 55.96 46.93 C 54.33 47.60 52.71 48.31 51.07 48.95 C 51.86 47.99 53.45 46.07 54.24 45.11 C 51.57 45.86 48.90 46.62 46.21 47.29 C 46.94 46.23 47.67 45.18 48.41 44.13 C 47.69 43.43 46.99 42.72 46.32 41.99 C 47.42 40.81 48.56 39.67 49.58 38.41 C 50.23 37.64 50.89 36.88 51.55 36.11 C 50.26 34.82 48.95 33.54 47.67 32.23 C 48.88 31.59 50.09 30.94 51.29 30.29 C 50.07 27.32 49.01 24.28 48.17 21.18 C 50.08 21.80 51.98 22.43 53.91 22.98 C 53.05 21.06 52.13 19.16 51.26 17.25 C 51.33 16.99 51.47 16.47 51.54 16.21 C 53.28 14.22 56.12 12.78 56.47 9.91 C 57.10 6.99 57.52 4.01 57.47 1.02 C 58.53 1.75 59.62 2.44 60.68 3.17 C 60.62 2.38 60.49 0.79 60.42 0.00 M 54.51 31.30 C 53.30 33.35 52.61 35.64 51.96 37.92 C 53.95 36.60 55.85 35.17 57.67 33.64 C 56.68 32.78 56.07 30.95 54.51 31.30 Z" />
<path fill="#020101" opacity="1.00" d=" M 62.60 0.00 L 66.07 0.00 C 67.83 0.39 69.60 0.73 71.35 1.12 C 69.38 3.89 67.08 6.41 64.79 8.93 C 65.87 9.34 66.94 9.74 68.02 10.15 C 67.41 11.52 66.79 12.89 66.16 14.25 C 69.51 13.40 69.94 16.95 70.97 19.16 C 72.61 17.43 74.49 15.71 76.90 17.57 C 75.67 14.90 74.63 12.13 74.14 9.22 C 76.17 9.73 78.17 10.36 80.15 11.04 C 80.29 10.42 80.58 9.17 80.73 8.54 C 81.31 8.54 82.47 8.52 83.05 8.52 C 83.88 7.47 83.84 5.06 85.60 5.23 C 86.43 6.04 87.22 6.88 87.99 7.76 C 90.85 5.11 93.65 2.39 96.74 0.00 L 99.10 0.00 C 98.82 0.28 98.25 0.84 97.96 1.13 C 94.76 4.15 91.01 6.53 87.80 9.55 C 86.87 8.68 85.95 7.81 85.04 6.93 C 84.68 8.02 84.31 9.09 83.91 10.16 C 83.82 10.27 83.63 10.49 83.54 10.60 C 83.07 10.42 82.14 10.07 81.68 9.89 C 81.35 10.88 81.03 11.87 80.72 12.87 C 78.99 12.04 77.25 11.22 75.50 10.42 C 76.60 13.57 77.56 16.77 78.06 20.07 C 76.72 19.44 75.41 18.77 74.03 18.23 C 73.72 18.76 73.11 19.84 72.81 20.38 C 71.59 20.09 70.36 19.73 69.40 18.89 C 68.91 17.79 68.44 16.68 67.97 15.57 C 66.63 16.42 65.29 17.25 63.93 18.06 C 64.45 15.87 65.04 13.70 65.66 11.54 C 64.59 10.44 61.65 9.92 62.49 7.95 C 64.36 5.93 66.61 4.33 68.79 2.65 C 66.50 2.35 64.34 1.55 62.60 0.00 Z" />
<path fill="#020101" opacity="1.00" d=" M 100.57 0.00 L 105.61 0.00 C 104.60 0.94 103.86 2.29 102.48 2.74 C 101.81 1.85 101.17 0.94 100.57 0.00 Z" />
<path fill="#667a51" opacity="1.00" d=" M 110.46 0.00 L 111.00 0.00 L 111.00 11.08 C 109.27 11.14 108.99 14.10 111.00 13.71 L 111.00 15.27 C 108.25 17.00 105.40 18.56 102.72 20.41 C 102.41 21.95 101.99 23.50 100.14 23.63 C 100.90 23.62 102.42 23.59 103.18 23.57 C 102.64 26.21 99.80 26.03 97.78 26.45 C 97.02 26.51 96.26 26.56 95.50 26.60 C 94.99 24.78 94.36 22.99 93.57 21.28 C 94.85 20.86 96.14 20.44 97.41 19.97 C 98.39 18.57 98.42 16.91 98.31 15.27 C 96.97 14.33 95.78 13.19 95.05 11.71 C 98.62 11.21 103.26 12.74 105.68 9.26 C 105.39 8.86 104.82 8.08 104.53 7.69 C 106.03 6.81 107.52 5.93 109.00 5.02 C 108.87 4.07 108.74 3.11 108.61 2.16 C 109.22 1.43 109.83 0.71 110.46 0.00 Z" />
<path fill="#fafcbd" opacity="1.00" d=" M 87.80 9.55 C 91.01 6.53 94.76 4.15 97.96 1.13 C 98.04 1.98 98.12 2.83 98.22 3.69 C 94.11 6.47 90.24 9.64 85.76 11.84 C 86.43 11.07 87.09 10.29 87.80 9.55 Z" />
<path fill="#020101" opacity="1.00" d=" M 54.99 10.99 C 55.74 7.65 55.90 4.13 57.47 1.02 C 57.52 4.01 57.10 6.99 56.47 9.91 C 56.12 12.78 53.28 14.22 51.54 16.21 C 51.12 16.58 50.28 17.31 49.86 17.67 C 49.59 14.18 53.68 13.55 54.99 10.99 Z" />
<path fill="#788d5c" opacity="1.00" d=" M 80.72 12.87 C 81.03 11.87 81.35 10.88 81.68 9.89 C 82.14 10.07 83.07 10.42 83.54 10.60 C 82.41 11.84 81.30 13.09 80.21 14.36 C 81.14 15.53 82.14 16.66 82.84 17.98 C 82.62 19.65 81.38 20.95 80.55 22.35 C 76.17 23.15 73.86 27.51 69.74 28.86 C 67.14 30.28 64.30 28.67 61.75 28.00 C 64.26 23.92 69.46 26.64 73.14 24.66 C 71.68 24.60 70.22 24.58 68.76 24.61 C 70.66 23.79 72.05 22.28 72.81 20.38 C 73.11 19.84 73.72 18.76 74.03 18.23 C 75.41 18.77 76.72 19.44 78.06 20.07 C 77.56 16.77 76.60 13.57 75.50 10.42 C 77.25 11.22 78.99 12.04 80.72 12.87 Z" />
<path fill="#1c2317" opacity="0.97" d=" M 111.00 13.71 C 108.99 14.10 109.27 11.14 111.00 11.08 L 111.00 13.71 Z" />
<path fill="#3c5139" opacity="1.00" d=" M 59.66 11.50 C 61.66 11.50 63.66 11.51 65.66 11.54 C 65.04 13.70 64.45 15.87 63.93 18.06 C 62.44 17.31 60.92 16.64 59.41 15.95 C 59.49 14.47 59.57 12.98 59.66 11.50 Z" />
<path fill="#708557" opacity="1.00" d=" M 63.93 18.06 C 65.29 17.25 66.63 16.42 67.97 15.57 C 68.44 16.68 68.91 17.79 69.40 18.89 C 68.60 19.98 67.82 21.08 67.03 22.17 C 67.21 22.79 67.56 24.01 67.73 24.62 C 64.97 23.53 63.85 20.85 63.93 18.06 Z" />
<path fill="#020101" opacity="1.00" d=" M 102.72 20.41 C 105.40 18.56 108.25 17.00 111.00 15.27 L 111.00 16.44 C 108.58 18.08 105.94 19.39 103.61 21.16 C 103.72 23.01 104.24 24.79 104.65 26.58 C 102.48 26.99 100.30 27.36 98.10 27.55 L 97.78 26.45 C 99.80 26.03 102.64 26.21 103.18 23.57 C 102.42 23.59 100.90 23.62 100.14 23.63 C 101.99 23.50 102.41 21.95 102.72 20.41 Z" />
<path fill="#3e5138" opacity="1.00" d=" M 69.40 18.89 C 70.36 19.73 71.59 20.09 72.81 20.38 C 72.05 22.28 70.66 23.79 68.76 24.61 L 67.73 24.62 C 67.56 24.01 67.21 22.79 67.03 22.17 C 67.82 21.08 68.60 19.98 69.40 18.89 Z" />
<path fill="#96a86c" opacity="1.00" d=" M 90.50 20.58 C 92.79 20.25 95.10 20.06 97.41 19.97 C 96.14 20.44 94.85 20.86 93.57 21.28 C 94.36 22.99 94.99 24.78 95.50 26.60 C 94.57 26.64 93.63 26.68 92.70 26.72 C 91.90 27.65 91.12 28.59 90.27 29.46 C 89.33 30.18 88.40 30.89 87.47 31.61 C 86.68 32.29 85.92 32.99 85.16 33.69 C 82.45 34.33 79.50 35.30 79.40 38.64 C 76.97 38.61 74.55 38.42 72.13 38.26 C 72.77 38.71 73.41 39.16 74.05 39.61 C 75.03 40.32 76.00 41.04 76.97 41.77 C 75.24 44.64 72.39 46.33 69.00 46.15 C 69.85 44.76 70.71 43.37 71.55 41.97 C 70.90 41.00 70.25 40.02 69.66 39.01 C 71.45 37.14 74.19 36.78 76.16 35.18 C 79.84 32.24 83.16 28.88 86.84 25.94 C 89.11 25.16 91.57 25.17 93.93 24.83 C 92.78 23.42 91.63 22.00 90.50 20.58 Z" />
<path fill="#334731" opacity="1.00" d=" M 92.70 26.72 C 93.63 26.68 94.57 26.64 95.50 26.60 C 96.26 26.56 97.02 26.51 97.78 26.45 L 98.10 27.55 C 98.35 28.49 98.58 29.44 98.82 30.38 C 98.27 30.57 97.16 30.94 96.61 31.12 C 96.34 31.98 95.80 33.69 95.53 34.54 C 94.12 32.51 92.70 30.36 90.27 29.46 C 91.12 28.59 91.90 27.65 92.70 26.72 Z" />
<path fill="#18281e" opacity="1.00" d=" M 90.27 29.46 C 92.70 30.36 94.12 32.51 95.53 34.54 C 95.80 33.69 96.34 31.98 96.61 31.12 C 97.16 32.35 97.58 33.61 97.87 34.92 C 96.81 36.01 95.01 35.58 93.66 35.98 C 95.67 37.70 97.62 39.58 98.71 42.05 C 98.21 42.37 97.22 43.00 96.73 43.32 C 96.11 41.26 95.20 39.29 93.48 37.92 C 93.38 39.26 93.36 40.62 93.11 41.94 C 90.75 43.34 88.25 44.49 85.95 45.97 C 87.31 47.67 88.63 49.40 89.89 51.18 C 88.53 51.96 87.17 52.75 85.82 53.54 C 87.63 53.68 89.45 53.82 91.26 53.96 C 90.18 54.56 89.07 55.12 88.10 55.90 C 87.93 58.83 89.81 62.48 87.15 64.74 C 86.49 64.16 85.17 63.01 84.51 62.43 L 84.84 61.02 C 85.42 61.36 86.58 62.04 87.16 62.38 C 86.98 60.86 86.80 59.33 86.62 57.81 C 85.61 58.66 84.61 59.51 83.60 60.34 C 80.22 61.10 77.30 58.68 74.74 56.86 C 74.32 56.55 73.47 55.92 73.05 55.60 C 74.11 53.64 75.11 51.64 76.12 49.65 C 78.04 48.31 80.34 47.83 82.62 47.51 C 82.37 45.83 82.13 44.16 81.89 42.49 C 84.18 41.72 86.93 41.55 88.68 39.70 C 89.70 37.02 87.96 34.24 87.47 31.61 C 88.40 30.89 89.33 30.18 90.27 29.46 Z" />
<path fill="#d7de9d" opacity="1.00" d=" M 54.51 31.30 C 56.07 30.95 56.68 32.78 57.67 33.64 C 55.85 35.17 53.95 36.60 51.96 37.92 C 52.61 35.64 53.30 33.35 54.51 31.30 Z" />
<path fill="#324632" opacity="1.00" d=" M 85.16 33.69 C 85.92 32.99 86.68 32.29 87.47 31.61 C 87.96 34.24 89.70 37.02 88.68 39.70 C 86.93 41.55 84.18 41.72 81.89 42.49 C 82.13 44.16 82.37 45.83 82.62 47.51 C 80.34 47.83 78.04 48.31 76.12 49.65 C 73.64 50.08 71.12 50.15 68.61 50.26 C 68.71 49.56 68.89 48.16 68.98 47.46 C 72.24 47.40 75.45 46.88 78.66 46.43 C 79.63 44.49 81.85 42.58 80.80 40.25 C 78.61 39.61 76.31 39.66 74.05 39.61 C 73.41 39.16 72.77 38.71 72.13 38.26 C 74.55 38.42 76.97 38.61 79.40 38.64 C 81.57 38.57 83.70 38.09 85.82 37.62 C 85.60 36.31 85.38 35.00 85.16 33.69 Z" />
<path fill="#80925f" opacity="1.00" d=" M 79.40 38.64 C 79.50 35.30 82.45 34.33 85.16 33.69 C 85.38 35.00 85.60 36.31 85.82 37.62 C 83.70 38.09 81.57 38.57 79.40 38.64 Z" />
<path fill="#959595" opacity="1.00" d=" M 12.01 39.64 C 18.37 37.04 25.52 38.88 32.19 38.92 C 32.85 40.64 33.57 42.33 34.22 44.06 C 34.31 44.95 34.50 46.72 34.59 47.60 C 29.99 47.18 25.45 47.98 20.90 48.47 C 17.38 48.01 14.09 46.58 10.74 45.47 C 8.13 43.72 5.74 41.66 3.52 39.44 C 6.35 39.56 9.18 39.69 12.01 39.64 M 18.83 39.65 C 20.39 41.28 22.86 40.73 24.87 41.25 C 27.19 41.37 29.09 42.70 30.97 43.91 C 30.39 42.77 29.96 41.19 28.55 40.84 C 25.36 40.13 22.09 39.80 18.83 39.65 Z" />
<path fill="#304230" opacity="1.00" d=" M 93.48 37.92 C 95.20 39.29 96.11 41.26 96.73 43.32 C 94.92 44.44 93.12 45.58 91.35 46.76 C 92.19 48.59 94.47 50.37 93.65 52.58 C 92.87 53.07 92.08 53.53 91.26 53.96 C 89.45 53.82 87.63 53.68 85.82 53.54 C 87.17 52.75 88.53 51.96 89.89 51.18 C 88.63 49.40 87.31 47.67 85.95 45.97 C 88.25 44.49 90.75 43.34 93.11 41.94 C 93.36 40.62 93.38 39.26 93.48 37.92 Z" />
<path fill="#0c1512" opacity="1.00" d=" M 18.83 39.65 C 22.09 39.80 25.36 40.13 28.55 40.84 C 29.96 41.19 30.39 42.77 30.97 43.91 C 29.09 42.70 27.19 41.37 24.87 41.25 C 22.86 40.73 20.39 41.28 18.83 39.65 Z" />
<path fill="#6b7e53" opacity="1.00" d=" M 74.05 39.61 C 76.31 39.66 78.61 39.61 80.80 40.25 C 81.85 42.58 79.63 44.49 78.66 46.43 C 75.45 46.88 72.24 47.40 68.98 47.46 C 68.89 48.16 68.71 49.56 68.61 50.26 C 66.52 50.33 64.53 51.02 62.57 51.69 C 62.48 51.18 62.29 50.17 62.20 49.66 C 63.61 47.17 66.19 46.01 69.00 46.15 C 72.39 46.33 75.24 44.64 76.97 41.77 C 76.00 41.04 75.03 40.32 74.05 39.61 Z" />
<path fill="#2e333e" opacity="1.00" d=" M 34.22 44.06 C 35.07 46.33 35.77 49.20 34.27 51.33 C 29.45 53.83 23.95 54.60 18.66 55.55 C 18.49 55.37 18.15 55.02 17.98 54.84 C 16.87 50.80 12.55 49.11 10.74 45.47 C 14.09 46.58 17.38 48.01 20.90 48.47 C 25.45 47.98 29.99 47.18 34.59 47.60 C 34.50 46.72 34.31 44.95 34.22 44.06 Z" />
<path fill="#acbc77" opacity="1.00" d=" M 43.10 52.49 C 43.95 51.07 44.79 49.64 45.65 48.23 C 46.11 48.73 47.04 49.73 47.51 50.24 C 48.36 51.19 49.20 52.15 50.04 53.12 C 51.30 53.45 52.56 53.79 53.80 54.20 C 53.53 55.32 53.27 56.44 53.00 57.56 C 54.38 57.29 55.76 57.01 57.14 56.73 C 58.17 57.54 59.20 58.35 60.23 59.16 C 60.40 58.64 60.74 57.61 60.91 57.09 C 63.26 58.79 66.01 59.79 68.91 59.95 C 70.01 60.79 71.09 61.66 72.13 62.56 C 67.61 62.78 63.47 60.46 58.94 60.66 C 56.99 60.87 55.35 59.86 53.81 58.82 C 53.23 59.32 52.07 60.33 51.49 60.83 C 51.13 58.92 51.42 57.01 51.92 55.16 C 49.23 55.85 46.46 56.27 43.67 56.03 C 44.31 55.12 44.94 54.21 45.56 53.29 C 44.95 53.09 43.72 52.69 43.10 52.49 Z" />
<path fill="#040404" opacity="1.00" d=" M 47.51 50.24 C 47.90 50.17 48.70 50.05 49.09 49.98 C 49.61 50.54 50.64 51.66 51.15 52.22 C 52.09 51.66 53.01 51.07 53.91 50.46 C 56.71 51.05 59.51 50.44 62.20 49.66 C 62.29 50.17 62.48 51.18 62.57 51.69 C 64.53 51.02 66.52 50.33 68.61 50.26 C 71.12 50.15 73.64 50.08 76.12 49.65 C 75.11 51.64 74.11 53.64 73.05 55.60 C 73.47 55.92 74.32 56.55 74.74 56.86 C 74.03 57.45 73.33 58.03 72.63 58.62 C 73.51 59.37 74.40 60.12 75.30 60.87 C 73.20 60.35 71.06 60.09 68.91 59.95 C 66.01 59.79 63.26 58.79 60.91 57.09 C 58.63 55.92 56.21 55.05 53.80 54.20 C 52.56 53.79 51.30 53.45 50.04 53.12 C 49.20 52.15 48.36 51.19 47.51 50.24 M 62.26 53.45 C 61.15 52.71 59.89 53.78 58.78 53.99 C 62.04 56.39 65.72 58.20 69.77 58.72 C 70.11 57.60 70.44 56.49 70.77 55.38 C 68.23 55.01 65.37 55.40 63.12 53.95 C 65.88 54.13 68.60 53.39 71.27 52.74 C 70.34 51.20 68.54 51.68 67.07 51.71 C 65.48 52.15 62.87 51.37 62.26 53.45 Z" />
<path fill="#2c2d33" opacity="1.00" d=" M 34.99 54.04 C 36.83 51.35 40.42 50.48 43.10 52.49 C 43.72 52.69 44.95 53.09 45.56 53.29 C 44.94 54.21 44.31 55.12 43.67 56.03 L 42.93 56.00 L 42.93 54.78 C 40.94 56.75 38.94 58.71 36.87 60.60 C 35.10 58.93 33.76 56.46 34.99 54.04 Z" />
<path fill="#672f78" opacity="1.00" d=" M 62.26 53.45 C 62.87 51.37 65.48 52.15 67.07 51.71 C 68.54 51.68 70.34 51.20 71.27 52.74 C 68.60 53.39 65.88 54.13 63.12 53.95 L 62.26 53.45 Z" />
<path fill="#22252b" opacity="1.00" d=" M 58.78 53.99 C 59.89 53.78 61.15 52.71 62.26 53.45 L 63.12 53.95 C 65.37 55.40 68.23 55.01 70.77 55.38 C 70.44 56.49 70.11 57.60 69.77 58.72 C 65.72 58.20 62.04 56.39 58.78 53.99 Z" />
<path fill="#fafcbd" opacity="1.00" d=" M 53.80 54.20 C 56.21 55.05 58.63 55.92 60.91 57.09 C 60.74 57.61 60.40 58.64 60.23 59.16 C 59.20 58.35 58.17 57.54 57.14 56.73 C 55.76 57.01 54.38 57.29 53.00 57.56 C 53.27 56.44 53.53 55.32 53.80 54.20 Z" />
<path fill="#7c8e5c" opacity="1.00" d=" M 43.67 56.03 C 46.46 56.27 49.23 55.85 51.92 55.16 C 51.42 57.01 51.13 58.92 51.49 60.83 C 51.32 60.97 51.00 61.23 50.83 61.37 C 49.59 60.19 48.41 58.94 47.28 57.65 L 47.97 56.67 C 45.43 57.93 42.82 59.06 40.13 59.96 C 41.07 58.64 42.04 57.35 42.93 56.00 L 43.67 56.03 Z" />
<path fill="#43583c" opacity="1.00" d=" M 72.63 58.62 C 73.33 58.03 74.03 57.45 74.74 56.86 C 77.30 58.68 80.22 61.10 83.60 60.34 C 83.91 60.51 84.53 60.85 84.84 61.02 C 83.03 61.10 82.33 62.48 81.87 64.02 C 79.74 63.19 77.57 62.50 75.35 61.94 C 75.09 63.60 74.82 65.26 74.56 66.92 C 73.71 66.13 72.86 65.34 72.01 64.55 C 69.76 66.92 66.76 66.21 63.95 65.57 C 61.73 64.80 61.02 67.52 59.90 68.81 C 59.47 67.69 59.05 66.58 58.58 65.48 C 58.15 65.42 57.27 65.28 56.83 65.22 C 55.63 65.08 54.43 64.95 53.22 64.83 C 52.69 64.00 52.16 63.17 51.63 62.35 C 51.01 62.28 49.76 62.13 49.14 62.06 C 48.29 62.82 47.43 63.57 46.62 64.36 C 45.76 63.46 44.89 62.56 44.03 61.67 C 45.11 60.33 46.22 59.01 47.28 57.65 C 48.41 58.94 49.59 60.19 50.83 61.37 C 51.00 61.23 51.32 60.97 51.49 60.83 C 52.07 60.33 53.23 59.32 53.81 58.82 C 55.35 59.86 56.99 60.87 58.94 60.66 C 63.47 60.46 67.61 62.78 72.13 62.56 C 71.09 61.66 70.01 60.79 68.91 59.95 C 71.06 60.09 73.20 60.35 75.30 60.87 C 74.40 60.12 73.51 59.37 72.63 58.62 Z" />
<path fill="#4d6142" opacity="1.00" d=" M 83.60 60.34 C 84.61 59.51 85.61 58.66 86.62 57.81 C 86.80 59.33 86.98 60.86 87.16 62.38 C 86.58 62.04 85.42 61.36 84.84 61.02 C 84.53 60.85 83.91 60.51 83.60 60.34 Z" />
<path fill="#0c1512" opacity="1.00" d=" M 38.98 61.72 C 40.37 62.05 41.77 62.39 43.18 62.66 C 43.39 62.41 43.81 61.92 44.03 61.67 C 44.89 62.56 45.76 63.46 46.62 64.36 C 46.50 64.81 46.27 65.70 46.16 66.15 C 46.04 67.94 46.06 69.73 46.12 71.52 C 47.30 69.78 47.86 67.75 48.30 65.72 C 49.51 65.30 50.69 64.80 51.87 64.32 C 52.56 70.02 53.32 75.72 54.69 81.31 C 55.42 75.95 55.96 70.56 56.83 65.22 C 57.27 65.28 58.15 65.42 58.58 65.48 C 59.05 66.58 59.47 67.69 59.90 68.81 C 61.02 67.52 61.73 64.80 63.95 65.57 C 66.76 66.21 69.76 66.92 72.01 64.55 C 72.86 65.34 73.71 66.13 74.56 66.92 C 74.82 65.26 75.09 63.60 75.35 61.94 C 77.57 62.50 79.74 63.19 81.87 64.02 C 82.33 62.48 83.03 61.10 84.84 61.02 L 84.51 62.43 C 84.09 63.85 83.61 65.26 83.13 66.66 C 80.95 65.70 78.80 64.67 76.69 63.56 C 76.29 65.64 76.76 68.21 75.15 69.83 C 74.02 69.07 72.95 68.24 71.88 67.41 C 70.89 67.67 69.91 67.93 68.92 68.20 C 71.48 70.38 74.95 71.53 76.81 74.45 C 78.34 74.72 79.86 75.08 81.34 75.56 C 82.31 74.16 82.56 71.80 84.69 71.69 C 84.35 72.37 83.67 73.72 83.33 74.39 C 83.03 77.27 83.12 80.16 83.19 83.04 C 80.31 83.94 77.40 84.71 74.55 85.66 C 73.43 86.11 72.33 86.61 71.23 87.11 C 71.40 88.58 71.61 90.05 71.77 91.53 C 71.10 91.71 69.77 92.05 69.10 92.22 C 65.25 93.54 62.87 97.03 61.15 100.52 C 64.34 101.31 66.95 98.53 69.31 96.83 C 69.55 99.23 65.24 99.88 66.32 102.74 C 64.27 102.44 62.27 101.90 60.24 101.55 C 58.70 99.39 57.25 97.19 55.83 94.95 C 55.28 95.80 54.73 96.64 54.18 97.48 C 53.18 96.41 52.19 95.33 51.19 94.26 C 53.24 93.55 55.26 92.56 56.19 90.45 C 54.96 89.10 53.40 87.92 52.70 86.18 C 52.36 83.79 52.58 81.38 52.39 78.98 L 52.35 78.37 C 51.82 76.03 51.32 73.69 51.06 71.31 C 50.88 69.77 50.70 68.23 50.51 66.69 C 49.91 67.74 49.30 68.78 48.80 69.88 C 48.06 71.47 47.43 73.12 46.70 74.72 C 46.23 74.88 45.28 75.21 44.81 75.38 C 44.52 75.48 43.94 75.67 43.65 75.77 C 42.67 78.45 42.14 81.26 41.55 84.04 C 41.48 84.32 41.35 84.87 41.29 85.14 C 40.89 86.83 40.51 88.52 40.15 90.21 C 40.55 90.51 41.36 91.09 41.77 91.39 L 41.81 91.80 C 41.27 92.05 40.21 92.55 39.68 92.79 C 39.04 96.13 38.14 99.54 38.88 102.94 C 39.05 104.01 39.23 105.09 39.40 106.17 C 37.62 105.06 36.53 103.27 35.83 101.33 C 34.61 98.20 33.45 95.03 32.42 91.83 C 31.82 89.35 31.28 86.86 30.78 84.36 C 28.76 84.78 27.18 86.05 26.29 87.92 C 26.13 88.54 25.80 89.78 25.64 90.40 C 23.97 90.00 22.29 89.62 20.64 89.15 C 18.70 88.55 16.77 87.89 14.80 87.35 C 13.47 87.70 12.17 88.13 10.89 88.63 C 10.36 89.15 9.84 89.69 9.34 90.24 C 8.43 91.85 7.68 93.54 7.07 95.27 C 6.74 97.67 6.61 100.09 6.43 102.50 C 4.00 104.98 1.93 107.78 0.61 111.00 L 0.00 111.00 L 0.00 106.54 C 0.79 105.16 1.64 103.81 2.47 102.46 C 3.11 102.26 4.37 101.86 5.01 101.67 C 5.13 100.50 5.04 99.36 4.74 98.24 C 2.94 97.65 1.48 99.18 0.00 99.94 L 0.00 98.56 C 0.50 98.23 1.49 97.56 1.99 97.23 C 2.71 97.20 4.16 97.14 4.89 97.11 C 6.73 94.52 6.60 90.53 9.32 88.29 C 13.40 83.84 19.56 87.75 24.23 88.93 C 25.54 86.68 26.97 84.41 29.28 83.07 C 27.50 81.94 25.64 80.72 25.06 78.56 C 26.73 77.99 28.40 77.44 30.08 76.91 C 30.15 72.58 31.12 68.29 33.57 64.67 C 34.29 64.53 35.75 64.24 36.47 64.10 C 35.93 65.90 35.31 67.67 34.64 69.42 C 34.63 68.50 34.61 66.66 34.60 65.74 C 33.21 69.99 31.31 74.36 32.12 78.94 C 33.07 85.77 34.56 92.54 36.64 99.12 C 35.96 89.34 32.86 79.64 34.61 69.79 C 34.72 71.26 34.84 72.74 34.99 74.22 C 35.00 75.23 35.30 76.15 35.89 76.99 C 35.69 78.11 35.56 79.24 35.51 80.38 C 36.23 84.78 36.79 89.20 37.47 93.61 C 39.03 89.94 39.25 85.91 40.10 82.06 C 40.98 77.54 42.58 73.10 42.51 68.44 C 42.43 68.00 42.27 67.10 42.18 66.65 C 43.48 66.99 45.06 66.12 44.94 64.64 C 44.75 62.62 42.31 63.89 41.94 65.12 C 41.39 64.82 40.27 64.23 39.72 63.93 C 39.53 63.38 39.16 62.27 38.98 61.72 M 69.32 74.68 C 69.08 77.20 72.25 78.44 74.14 77.17 C 72.82 78.77 71.85 80.61 70.94 82.46 C 72.95 83.20 74.99 83.88 77.03 84.51 L 76.53 83.51 C 78.45 83.09 80.33 82.54 82.20 81.97 C 81.75 79.34 81.15 75.96 77.96 75.44 L 76.71 76.00 C 75.46 73.23 71.66 75.18 69.32 74.68 M 27.73 78.76 C 26.29 79.96 29.04 82.04 30.21 80.97 C 31.55 79.39 29.14 77.50 27.73 78.76 M 58.17 95.37 C 58.90 96.64 59.64 97.91 60.40 99.16 C 61.25 97.45 62.09 95.74 62.88 94.01 C 61.30 94.44 59.74 94.90 58.17 95.37 Z" />
<path fill="#253527" opacity="1.00" d=" M 46.62 64.36 C 47.43 63.57 48.29 62.82 49.14 62.06 C 49.76 62.13 51.01 62.28 51.63 62.35 C 52.16 63.17 52.69 64.00 53.22 64.83 C 54.43 64.95 55.63 65.08 56.83 65.22 C 55.96 70.56 55.42 75.95 54.69 81.31 C 53.32 75.72 52.56 70.02 51.87 64.32 C 50.69 64.80 49.51 65.30 48.30 65.72 C 47.76 65.83 46.69 66.04 46.16 66.15 C 46.27 65.70 46.50 64.81 46.62 64.36 Z" />
<path fill="#96a86c" opacity="1.00" d=" M 41.94 65.12 C 42.31 63.89 44.75 62.62 44.94 64.64 C 45.06 66.12 43.48 66.99 42.18 66.65 C 42.12 66.27 42.00 65.50 41.94 65.12 Z" />
<path fill="#020101" opacity="1.00" d=" M 91.63 71.15 C 92.32 68.30 94.32 64.85 97.79 65.51 C 101.11 66.54 104.36 69.37 103.38 73.24 C 106.00 73.10 108.75 73.09 111.00 74.66 L 111.00 76.31 C 110.01 75.61 109.00 74.94 107.97 74.31 C 105.77 74.29 103.58 74.52 101.40 74.74 C 101.69 73.16 101.98 71.58 102.27 70.01 C 101.31 69.24 100.37 68.46 99.40 67.72 C 98.09 67.13 96.63 66.27 95.28 67.30 C 93.38 68.42 93.31 70.99 92.47 72.83 C 91.21 72.43 89.95 72.02 88.68 71.66 C 87.19 71.22 85.66 70.98 84.16 70.60 C 86.67 70.18 89.20 70.47 91.63 71.15 Z" />
<path fill="#93856e" opacity="1.00" d=" M 32.12 78.94 C 31.31 74.36 33.21 69.99 34.60 65.74 C 34.61 66.66 34.63 68.50 34.64 69.42 L 34.61 69.79 C 32.86 79.64 35.96 89.34 36.64 99.12 C 34.56 92.54 33.07 85.77 32.12 78.94 Z" />
<path fill="#3d4e36" opacity="1.00" d=" M 46.16 66.15 C 46.69 66.04 47.76 65.83 48.30 65.72 C 47.86 67.75 47.30 69.78 46.12 71.52 C 46.06 69.73 46.04 67.94 46.16 66.15 Z" />
<path fill="#3c4f37" opacity="1.00" d=" M 48.80 69.88 C 49.30 68.78 49.91 67.74 50.51 66.69 C 50.70 68.23 50.88 69.77 51.06 71.31 C 50.49 71.43 49.37 71.67 48.81 71.80 C 48.81 71.32 48.80 70.36 48.80 69.88 Z" />
<path fill="#6f8357" opacity="1.00" d=" M 95.28 67.30 C 96.63 66.27 98.09 67.13 99.40 67.72 C 97.64 68.91 94.37 69.24 94.57 71.99 C 94.75 73.19 95.06 74.37 95.34 75.55 C 93.80 76.00 92.27 76.45 90.73 76.91 C 93.16 80.28 95.93 83.52 97.05 87.62 L 96.30 87.76 C 95.54 87.80 94.03 87.88 93.28 87.92 C 93.32 88.39 93.41 89.34 93.45 89.81 C 92.67 90.23 91.89 90.65 91.12 91.08 C 90.70 89.72 90.29 88.36 89.88 86.99 C 91.28 85.59 92.68 84.18 93.83 82.56 C 91.31 81.79 88.71 81.37 86.12 80.93 C 85.43 80.01 84.74 79.08 84.06 78.16 C 84.10 78.86 84.17 80.28 84.20 80.98 C 83.95 81.50 83.44 82.53 83.19 83.04 C 83.12 80.16 83.03 77.27 83.33 74.39 C 84.82 74.82 86.31 75.24 87.81 75.66 C 87.29 74.33 86.76 73.01 86.21 71.70 C 86.82 71.69 88.06 71.67 88.68 71.66 C 89.95 72.02 91.21 72.43 92.47 72.83 C 93.31 70.99 93.38 68.42 95.28 67.30 Z" />
<path fill="#41553b" opacity="1.00" d=" M 99.40 67.72 C 100.37 68.46 101.31 69.24 102.27 70.01 C 101.98 71.58 101.69 73.16 101.40 74.74 C 103.58 74.52 105.77 74.29 107.97 74.31 C 104.67 77.22 100.03 79.15 98.40 83.54 C 97.52 84.87 98.78 85.99 99.40 87.09 C 98.81 87.22 97.64 87.49 97.05 87.62 C 95.93 83.52 93.16 80.28 90.73 76.91 C 92.27 76.45 93.80 76.00 95.34 75.55 C 95.06 74.37 94.75 73.19 94.57 71.99 C 94.37 69.24 97.64 68.91 99.40 67.72 Z" />
<path fill="#6d8257" opacity="1.00" d=" M 42.51 68.44 C 42.58 73.10 40.98 77.54 40.10 82.06 C 39.25 85.91 39.03 89.94 37.47 93.61 C 36.79 89.20 36.23 84.78 35.51 80.38 C 36.88 79.15 38.25 77.92 39.62 76.69 C 39.54 76.20 39.38 75.23 39.30 74.74 C 39.16 74.34 38.90 73.55 38.77 73.15 C 38.33 73.09 37.47 72.98 37.04 72.92 L 36.32 72.88 C 36.42 72.34 36.62 71.26 36.72 70.73 C 38.74 70.22 40.92 69.92 42.51 68.44 Z" />
<path fill="#212f23" opacity="1.00" d=" M 46.70 74.72 C 47.43 73.12 48.06 71.47 48.80 69.88 C 48.80 70.36 48.81 71.32 48.81 71.80 C 49.37 71.67 50.49 71.43 51.06 71.31 C 51.32 73.69 51.82 76.03 52.35 78.37 C 51.00 78.36 49.65 78.37 48.31 78.28 C 47.13 77.33 45.99 76.33 44.81 75.38 C 45.28 75.21 46.23 74.88 46.70 74.72 Z" />
<path fill="#a2b171" opacity="1.00" d=" M 84.69 71.69 C 85.07 71.69 85.83 71.70 86.21 71.70 C 86.76 73.01 87.29 74.33 87.81 75.66 C 86.31 75.24 84.82 74.82 83.33 74.39 C 83.67 73.72 84.35 72.37 84.69 71.69 Z" />
<path fill="#010101" opacity="0.71" d=" M 36.32 72.88 L 37.04 72.92 C 37.04 73.63 37.04 75.06 37.04 75.77 C 36.75 76.08 36.18 76.68 35.89 76.99 C 35.30 76.15 35.00 75.23 34.99 74.22 C 35.32 73.88 35.99 73.21 36.32 72.88 Z" />
<path fill="#2e3321" opacity="0.97" d=" M 37.04 72.92 C 37.47 72.98 38.33 73.09 38.77 73.15 C 38.90 73.55 39.16 74.34 39.30 74.74 C 38.73 75.00 37.60 75.51 37.04 75.77 C 37.04 75.06 37.04 73.63 37.04 72.92 Z" />
<path fill="#acbc77" opacity="1.00" d=" M 37.04 75.77 C 37.60 75.51 38.73 75.00 39.30 74.74 C 39.38 75.23 39.54 76.20 39.62 76.69 C 38.25 77.92 36.88 79.15 35.51 80.38 C 35.56 79.24 35.69 78.11 35.89 76.99 C 36.18 76.68 36.75 76.08 37.04 75.77 Z" />
<path fill="#637850" opacity="1.00" d=" M 43.65 75.77 C 43.94 75.67 44.52 75.48 44.81 75.38 C 45.99 76.33 47.13 77.33 48.31 78.28 C 46.10 80.25 43.80 82.12 41.55 84.04 C 42.14 81.26 42.67 78.45 43.65 75.77 Z" />
<path fill="#5f744e" opacity="1.00" d=" M 98.40 83.54 C 100.03 79.15 104.67 77.22 107.97 74.31 C 109.00 74.94 110.01 75.61 111.00 76.31 L 111.00 90.91 C 108.00 90.94 105.00 90.98 102.01 90.87 C 101.10 89.63 100.28 88.34 99.40 87.09 C 98.78 85.99 97.52 84.87 98.40 83.54 Z" />
<path fill="#42563c" opacity="1.00" d=" M 76.71 76.00 L 77.96 75.44 C 78.21 76.87 78.62 78.30 78.64 79.76 C 78.08 80.98 77.05 81.89 76.26 82.96 L 76.53 83.51 L 77.03 84.51 C 74.99 83.88 72.95 83.20 70.94 82.46 C 71.85 80.61 72.82 78.77 74.14 77.17 C 75.00 76.77 75.85 76.38 76.71 76.00 Z" />
<path fill="#5f724c" opacity="1.00" d=" M 77.96 75.44 C 81.15 75.96 81.75 79.34 82.20 81.97 C 80.33 82.54 78.45 83.09 76.53 83.51 L 76.26 82.96 C 77.05 81.89 78.08 80.98 78.64 79.76 C 78.62 78.30 78.21 76.87 77.96 75.44 Z" />
<path fill="#d8df9a" opacity="1.00" d=" M 27.73 78.76 C 29.14 77.50 31.55 79.39 30.21 80.97 C 29.04 82.04 26.29 79.96 27.73 78.76 Z" />
<path fill="#3f523a" opacity="1.00" d=" M 48.31 78.28 C 49.65 78.37 51.00 78.36 52.35 78.37 L 52.39 78.98 C 51.69 80.33 50.93 81.64 50.19 82.97 C 50.20 84.72 50.71 86.86 49.16 88.17 C 46.66 88.83 44.06 89.00 41.53 89.55 C 42.14 88.88 42.73 88.21 43.32 87.54 C 46.16 86.84 48.89 85.45 49.37 82.27 C 46.89 83.77 44.19 84.84 41.29 85.14 C 41.35 84.87 41.48 84.32 41.55 84.04 C 43.80 82.12 46.10 80.25 48.31 78.28 Z" />
<path fill="#8ea067" opacity="1.00" d=" M 84.06 78.16 C 84.74 79.08 85.43 80.01 86.12 80.93 C 88.71 81.37 91.31 81.79 93.83 82.56 C 92.68 84.18 91.28 85.59 89.88 86.99 C 90.29 88.36 90.70 89.72 91.12 91.08 C 89.96 92.27 88.89 93.55 87.83 94.84 C 88.88 96.15 89.93 97.47 90.99 98.79 C 89.99 99.52 88.99 100.24 88.05 101.04 C 89.60 103.67 91.99 105.93 92.14 109.18 C 90.87 108.48 89.62 107.77 88.36 107.04 C 88.50 107.86 88.63 108.67 88.77 109.49 C 87.51 109.59 86.25 109.71 84.99 109.85 C 85.57 109.33 86.14 108.81 86.71 108.28 C 84.26 107.60 81.75 107.05 79.45 105.95 C 80.06 104.07 81.87 103.11 83.28 101.92 C 82.64 99.78 81.98 97.65 81.35 95.51 C 77.86 93.43 74.22 94.90 70.99 96.68 C 70.55 95.65 70.11 94.62 69.67 93.59 C 69.53 93.24 69.24 92.56 69.10 92.22 C 69.77 92.05 71.10 91.71 71.77 91.53 C 71.61 90.05 71.40 88.58 71.23 87.11 C 72.33 86.61 73.43 86.11 74.55 85.66 C 74.44 87.97 74.81 90.26 75.58 92.44 C 78.37 91.57 81.35 91.18 84.08 92.49 C 86.56 91.15 88.42 89.03 89.22 86.30 C 87.50 84.57 85.83 82.80 84.20 80.98 C 84.17 80.28 84.10 78.86 84.06 78.16 Z" />
<path fill="#19261e" opacity="1.00" d=" M 52.39 78.98 C 52.58 81.38 52.36 83.79 52.70 86.18 C 53.40 87.92 54.96 89.10 56.19 90.45 C 55.26 92.56 53.24 93.55 51.19 94.26 C 52.19 95.33 53.18 96.41 54.18 97.48 C 53.26 98.88 52.31 100.25 51.35 101.61 C 49.70 100.81 48.15 99.60 46.30 99.30 C 44.33 100.13 42.45 101.18 40.49 102.02 C 41.96 100.50 43.46 99.01 45.01 97.56 C 44.67 96.86 44.33 96.16 44.00 95.45 C 43.44 95.67 42.32 96.10 41.76 96.32 C 41.79 94.81 41.81 93.30 41.81 91.80 L 41.77 91.39 C 41.36 91.09 40.55 90.51 40.15 90.21 C 40.50 90.05 41.19 89.71 41.53 89.55 C 44.06 89.00 46.66 88.83 49.16 88.17 C 50.71 86.86 50.20 84.72 50.19 82.97 C 50.93 81.64 51.69 80.33 52.39 78.98 M 48.02 97.37 C 49.18 98.44 50.40 99.50 52.07 99.57 C 52.00 98.76 51.88 97.12 51.81 96.31 C 50.55 96.66 49.28 97.01 48.02 97.37 Z" />
<path fill="#a5b674" opacity="1.00" d=" M 84.20 80.98 C 85.83 82.80 87.50 84.57 89.22 86.30 C 88.42 89.03 86.56 91.15 84.08 92.49 C 81.35 91.18 78.37 91.57 75.58 92.44 C 74.81 90.26 74.44 87.97 74.55 85.66 C 77.40 84.71 80.31 83.94 83.19 83.04 C 83.44 82.53 83.95 81.50 84.20 80.98 Z" />
<path fill="#596d49" opacity="1.00" d=" M 41.29 85.14 C 44.19 84.84 46.89 83.77 49.37 82.27 C 48.89 85.45 46.16 86.84 43.32 87.54 C 42.73 88.21 42.14 88.88 41.53 89.55 C 41.19 89.71 40.50 90.05 40.15 90.21 C 40.51 88.52 40.89 86.83 41.29 85.14 Z" />
<path fill="#92a46a" opacity="1.00" d=" M 26.29 87.92 C 27.18 86.05 28.76 84.78 30.78 84.36 C 31.28 86.86 31.82 89.35 32.42 91.83 C 32.17 92.40 31.68 93.53 31.43 94.10 C 31.01 92.93 30.61 91.75 30.20 90.58 C 28.90 89.69 27.59 88.80 26.29 87.92 Z" />
<path fill="#344733" opacity="1.00" d=" M 97.05 87.62 C 97.64 87.49 98.81 87.22 99.40 87.09 C 100.28 88.34 101.10 89.63 102.01 90.87 C 103.81 91.82 105.64 92.77 107.33 93.93 C 107.34 95.15 107.32 96.38 107.49 97.60 C 108.57 98.64 109.83 99.49 111.00 100.43 L 111.00 101.11 C 105.13 101.10 101.00 105.78 95.61 107.31 C 97.72 103.83 101.17 101.59 104.13 98.92 C 102.11 98.48 100.04 98.61 98.04 99.07 C 95.87 98.22 93.73 97.31 91.60 96.39 C 91.51 95.89 91.33 94.88 91.24 94.38 C 93.00 93.52 95.08 93.06 96.44 91.59 C 96.50 90.31 96.37 89.03 96.30 87.76 L 97.05 87.62 Z" />
<path fill="#fafcbd" opacity="1.00" d=" M 10.89 88.63 C 12.17 88.13 13.47 87.70 14.80 87.35 C 14.71 88.70 14.56 90.05 14.36 91.39 C 13.48 91.59 12.59 91.77 11.70 91.91 C 11.50 91.09 11.09 89.45 10.89 88.63 Z" />
<path fill="#a8b875" opacity="1.00" d=" M 14.80 87.35 C 16.77 87.89 18.70 88.55 20.64 89.15 C 19.48 89.66 18.31 90.18 17.14 90.69 C 19.30 91.16 21.46 91.65 23.62 92.16 C 23.88 92.71 24.40 93.81 24.67 94.36 C 25.61 95.06 26.59 95.74 27.47 96.53 C 27.53 97.73 27.31 98.91 27.17 100.09 C 24.60 100.22 22.11 100.92 19.76 101.92 C 20.66 103.04 21.57 104.15 22.48 105.26 C 21.98 105.85 21.49 106.43 21.00 107.02 C 21.20 107.78 21.40 108.54 21.60 109.31 C 20.17 109.88 18.74 110.46 17.30 111.00 L 0.61 111.00 C 1.93 107.78 4.00 104.98 6.43 102.50 C 6.61 100.09 6.74 97.67 7.07 95.27 C 8.20 95.80 10.57 96.14 10.29 94.12 C 10.14 92.79 9.82 91.50 9.34 90.24 C 9.84 89.69 10.36 89.15 10.89 88.63 C 11.09 89.45 11.50 91.09 11.70 91.91 C 12.59 91.77 13.48 91.59 14.36 91.39 C 14.56 90.05 14.71 88.70 14.80 87.35 M 14.11 93.23 C 12.57 96.21 17.44 93.37 14.11 93.23 Z" />
<path fill="#768a5a" opacity="1.00" d=" M 25.64 90.40 C 25.80 89.78 26.13 88.54 26.29 87.92 C 27.59 88.80 28.90 89.69 30.20 90.58 C 30.61 91.75 31.01 92.93 31.43 94.10 C 31.68 93.53 32.17 92.40 32.42 91.83 C 33.45 95.03 34.61 98.20 35.83 101.33 C 34.37 101.88 32.92 102.48 31.56 103.27 C 30.74 103.21 29.08 103.09 28.25 103.04 C 27.88 102.06 27.52 101.08 27.17 100.09 C 27.31 98.91 27.53 97.73 27.47 96.53 C 26.59 95.74 25.61 95.06 24.67 94.36 C 24.40 93.81 23.88 92.71 23.62 92.16 C 21.46 91.65 19.30 91.16 17.14 90.69 C 18.31 90.18 19.48 89.66 20.64 89.15 C 22.29 89.62 23.97 90.00 25.64 90.40 Z" />
<path fill="#596e4a" opacity="1.00" d=" M 93.28 87.92 C 94.03 87.88 95.54 87.80 96.30 87.76 C 96.37 89.03 96.50 90.31 96.44 91.59 C 95.08 93.06 93.00 93.52 91.24 94.38 C 91.33 94.88 91.51 95.89 91.60 96.39 C 93.73 97.31 95.87 98.22 98.04 99.07 C 100.04 98.61 102.11 98.48 104.13 98.92 C 101.17 101.59 97.72 103.83 95.61 107.31 C 101.00 105.78 105.13 101.10 111.00 101.11 L 111.00 105.15 C 108.12 107.73 104.24 108.67 101.19 111.00 L 83.38 111.00 C 83.78 110.71 84.59 110.14 84.99 109.85 C 86.25 109.71 87.51 109.59 88.77 109.49 C 88.63 108.67 88.50 107.86 88.36 107.04 C 89.62 107.77 90.87 108.48 92.14 109.18 C 91.99 105.93 89.60 103.67 88.05 101.04 C 88.99 100.24 89.99 99.52 90.99 98.79 C 89.93 97.47 88.88 96.15 87.83 94.84 C 88.89 93.55 89.96 92.27 91.12 91.08 C 91.89 90.65 92.67 90.23 93.45 89.81 C 93.41 89.34 93.32 88.39 93.28 87.92 Z" />
<path fill="#c1cd89" opacity="1.00" d=" M 9.34 90.24 C 9.82 91.50 10.14 92.79 10.29 94.12 C 10.57 96.14 8.20 95.80 7.07 95.27 C 7.68 93.54 8.43 91.85 9.34 90.24 Z" />
<path fill="#4b5f41" opacity="1.00" d=" M 102.01 90.87 C 105.00 90.98 108.00 90.94 111.00 90.91 L 111.00 100.43 C 109.83 99.49 108.57 98.64 107.49 97.60 C 107.32 96.38 107.34 95.15 107.33 93.93 C 105.64 92.77 103.81 91.82 102.01 90.87 Z" />
<path fill="#6c8257" opacity="1.00" d=" M 39.68 92.79 C 40.21 92.55 41.27 92.05 41.81 91.80 C 41.81 93.30 41.79 94.81 41.76 96.32 C 42.32 96.10 43.44 95.67 44.00 95.45 C 44.33 96.16 44.67 96.86 45.01 97.56 C 43.46 99.01 41.96 100.50 40.49 102.02 C 40.09 102.25 39.28 102.71 38.88 102.94 C 38.14 99.54 39.04 96.13 39.68 92.79 Z" />
<path fill="#d8df9a" opacity="1.00" d=" M 61.15 100.52 C 62.87 97.03 65.25 93.54 69.10 92.22 C 69.24 92.56 69.53 93.24 69.67 93.59 C 69.53 94.04 69.24 94.96 69.10 95.41 C 69.15 95.77 69.26 96.47 69.31 96.83 C 66.95 98.53 64.34 101.31 61.15 100.52 Z" />
<path fill="#dee4a3" opacity="1.00" d=" M 14.11 93.23 C 17.44 93.37 12.57 96.21 14.11 93.23 Z" />
<path fill="#788d5c" opacity="1.00" d=" M 58.17 95.37 C 59.74 94.90 61.30 94.44 62.88 94.01 C 62.09 95.74 61.25 97.45 60.40 99.16 C 59.64 97.91 58.90 96.64 58.17 95.37 Z" />
<path fill="#aaba77" opacity="1.00" d=" M 69.10 95.41 C 69.24 94.96 69.53 94.04 69.67 93.59 C 70.11 94.62 70.55 95.65 70.99 96.68 C 74.22 94.90 77.86 93.43 81.35 95.51 C 81.98 97.65 82.64 99.78 83.28 101.92 C 81.87 103.11 80.06 104.07 79.45 105.95 C 81.75 107.05 84.26 107.60 86.71 108.28 C 86.14 108.81 85.57 109.33 84.99 109.85 C 84.59 110.14 83.78 110.71 83.38 111.00 L 82.13 111.00 C 83.52 108.32 78.72 108.39 80.33 111.00 L 76.43 111.00 C 75.60 110.58 74.77 110.16 73.95 109.72 C 73.57 107.22 71.76 105.16 69.13 104.99 C 68.93 107.22 70.43 109.11 71.38 111.00 L 32.43 111.00 C 31.48 110.55 30.53 110.09 29.58 109.61 C 29.64 108.23 29.70 106.85 29.75 105.47 C 30.35 104.73 30.95 103.99 31.56 103.27 C 32.92 102.48 34.37 101.88 35.83 101.33 C 36.53 103.27 37.62 105.06 39.40 106.17 C 39.23 105.09 39.05 104.01 38.88 102.94 C 39.28 102.71 40.09 102.25 40.49 102.02 C 42.45 101.18 44.33 100.13 46.30 99.30 C 48.15 99.60 49.70 100.81 51.35 101.61 C 52.31 100.25 53.26 98.88 54.18 97.48 C 54.73 96.64 55.28 95.80 55.83 94.95 C 57.25 97.19 58.70 99.39 60.24 101.55 C 62.27 101.90 64.27 102.44 66.32 102.74 C 65.24 99.88 69.55 99.23 69.31 96.83 C 69.26 96.47 69.15 95.77 69.10 95.41 Z" />
<path fill="#405239" opacity="1.00" d=" M 48.02 97.37 C 49.28 97.01 50.55 96.66 51.81 96.31 C 51.88 97.12 52.00 98.76 52.07 99.57 C 50.40 99.50 49.18 98.44 48.02 97.37 Z" />
<path fill="#657b52" opacity="1.00" d=" M 0.00 99.94 C 1.48 99.18 2.94 97.65 4.74 98.24 C 5.04 99.36 5.13 100.50 5.01 101.67 C 4.37 101.86 3.11 102.26 2.47 102.46 C 1.64 103.81 0.79 105.16 0.00 106.54 L 0.00 99.94 Z" />
<path fill="#899b64" opacity="1.00" d=" M 19.76 101.92 C 22.11 100.92 24.60 100.22 27.17 100.09 C 27.52 101.08 27.88 102.06 28.25 103.04 C 26.93 104.13 25.55 105.16 24.40 106.43 C 24.18 107.95 24.44 109.49 24.63 111.00 L 17.30 111.00 C 18.74 110.46 20.17 109.88 21.60 109.31 C 21.40 108.54 21.20 107.78 21.00 107.02 C 21.49 106.43 21.98 105.85 22.48 105.26 C 21.57 104.15 20.66 103.04 19.76 101.92 Z" />
<path fill="#586c4a" opacity="1.00" d=" M 28.25 103.04 C 29.08 103.09 30.74 103.21 31.56 103.27 C 30.95 103.99 30.35 104.73 29.75 105.47 C 29.70 106.85 29.64 108.23 29.58 109.61 C 30.53 110.09 31.48 110.55 32.43 111.00 L 24.63 111.00 C 24.44 109.49 24.18 107.95 24.40 106.43 C 25.55 105.16 26.93 104.13 28.25 103.04 Z" />
<path fill="#92a46a" opacity="1.00" d=" M 69.13 104.99 C 71.76 105.16 73.57 107.22 73.95 109.72 C 74.77 110.16 75.60 110.58 76.43 111.00 L 71.38 111.00 C 70.43 109.11 68.93 107.22 69.13 104.99 Z" />
<path fill="#253226" opacity="1.00" d=" M 101.19 111.00 C 104.24 108.67 108.12 107.73 111.00 105.15 L 111.00 111.00 L 101.19 111.00 Z" />
<path fill="#798c5c" opacity="1.00" d=" M 80.33 111.00 C 78.72 108.39 83.52 108.32 82.13 111.00 L 80.33 111.00 Z" />
</svg>
