<?xml version="1.0" encoding="UTF-8" ?>
<!DOCTYPE svg PUBLIC "-//W3C//DTD SVG 1.1//EN" "http://www.w3.org/Graphics/SVG/1.1/DTD/svg11.dtd">
<svg width="111pt" height="111pt" viewBox="0 0 111 111" version="1.1" xmlns="http://www.w3.org/2000/svg">
<path fill="#23222b" opacity="1.00" d=" M 39.18 0.00 L 40.31 0.00 C 39.53 10.13 40.90 20.26 43.71 29.99 C 45.99 35.26 48.58 41.17 54.04 43.82 C 59.55 46.56 65.78 44.23 71.01 41.96 C 74.63 40.50 77.49 37.66 79.43 34.32 C 80.51 28.81 80.28 22.73 77.32 17.82 C 76.75 16.63 75.32 16.88 74.25 16.67 C 74.84 14.19 76.09 11.95 77.27 9.71 C 79.01 6.52 80.42 3.15 82.26 0.00 L 83.39 0.00 C 81.34 4.79 79.34 9.62 76.76 14.15 C 79.74 18.87 82.28 24.21 81.60 29.95 C 81.57 34.90 77.96 38.67 74.72 41.99 C 76.52 42.90 78.51 43.57 80.05 44.93 C 81.47 46.80 82.33 49.02 83.56 51.01 L 84.09 51.82 C 82.26 52.53 80.47 53.32 78.78 54.31 C 75.30 52.05 71.87 49.69 68.85 46.82 C 69.69 49.16 70.73 51.48 71.01 53.97 C 69.84 56.30 67.82 58.03 65.98 59.82 C 65.72 60.13 65.19 60.74 64.93 61.05 C 64.73 61.34 64.33 61.92 64.12 62.21 C 63.13 62.82 62.11 63.38 61.10 63.96 C 59.68 63.05 58.27 62.15 56.85 61.25 C 55.54 62.44 54.23 63.62 52.93 64.82 C 52.69 65.12 52.21 65.73 51.96 66.04 C 51.75 66.42 51.31 67.19 51.10 67.57 C 52.67 67.78 54.25 67.99 55.83 68.20 C 56.22 69.30 56.61 70.41 56.99 71.53 C 57.45 72.93 57.88 74.35 58.32 75.76 C 60.76 75.89 63.20 75.99 65.64 76.06 C 65.99 74.04 66.33 72.02 66.69 70.00 C 65.43 70.34 64.17 70.67 62.91 71.01 C 65.80 68.05 67.92 64.50 69.94 60.93 C 70.59 59.47 72.19 59.04 73.52 58.45 C 71.76 61.17 69.83 63.88 68.93 67.05 C 67.80 71.66 67.52 76.62 68.93 81.20 C 69.96 84.58 72.73 86.99 75.50 89.00 C 83.72 95.93 98.11 95.69 104.28 86.18 C 108.91 79.40 109.40 70.69 108.39 62.78 C 107.33 59.22 105.11 56.07 101.95 54.08 C 96.52 51.49 90.46 50.83 84.52 50.83 C 91.74 48.66 100.06 50.29 105.83 55.15 C 110.86 59.60 110.13 66.94 110.05 73.00 C 110.03 78.67 108.70 84.57 104.82 88.89 C 101.40 92.99 96.15 94.68 91.21 96.14 C 89.38 101.83 86.23 107.12 81.63 111.00 L 79.64 111.00 C 83.26 107.75 86.42 103.95 88.60 99.59 C 88.74 98.55 88.85 97.51 88.96 96.47 C 86.83 96.10 84.69 95.74 82.56 95.38 C 82.29 96.39 82.01 97.39 81.71 98.40 C 80.33 102.86 78.31 107.14 75.67 111.00 L 74.60 111.00 C 76.52 107.80 78.11 104.41 79.63 101.00 C 78.76 100.56 77.90 100.10 77.04 99.65 C 79.04 98.85 80.41 97.24 81.49 95.45 C 78.36 93.52 75.25 91.55 72.21 89.47 C 71.52 91.14 70.81 92.81 70.02 94.45 C 69.24 95.83 68.38 97.16 67.55 98.52 C 68.92 98.97 70.28 99.44 71.63 99.91 C 70.07 103.67 68.53 107.44 66.54 111.00 L 64.77 111.00 C 66.52 107.76 67.80 104.31 69.05 100.85 C 66.86 101.84 64.69 102.87 62.48 103.82 C 62.61 103.40 62.87 102.57 63.00 102.16 C 63.93 100.82 64.88 99.51 65.82 98.19 C 67.99 94.63 71.86 90.03 69.29 85.79 C 67.29 82.19 66.13 76.57 60.88 77.03 C 56.72 75.90 54.46 79.99 51.99 82.51 C 52.38 82.60 53.15 82.77 53.54 82.86 C 54.80 83.45 56.05 84.10 57.30 84.73 C 55.79 92.16 53.63 100.65 57.70 107.65 C 58.30 107.24 59.49 106.43 60.08 106.02 C 60.60 105.97 61.63 105.87 62.15 105.82 C 60.68 107.59 59.16 109.34 57.56 111.00 L 56.71 111.00 C 56.95 106.78 53.70 103.30 54.11 99.02 C 54.37 96.16 53.02 92.02 49.49 92.43 C 47.40 95.90 46.75 100.09 44.32 103.37 C 42.52 105.76 38.85 104.88 36.93 103.11 C 35.13 101.83 34.58 99.61 33.93 97.63 C 35.01 97.07 36.08 96.52 37.15 95.96 C 36.54 97.06 35.93 98.16 35.30 99.25 C 37.16 101.13 39.79 104.76 42.75 102.76 C 45.20 99.94 46.09 96.12 47.31 92.66 C 47.87 90.49 47.49 88.19 47.66 85.96 C 46.40 86.66 45.13 87.35 43.85 88.02 C 43.80 85.96 43.76 83.90 43.81 81.83 C 43.92 80.05 44.05 78.27 44.16 76.50 C 44.73 79.38 45.18 82.28 45.56 85.19 C 48.63 82.80 52.10 80.69 54.26 77.37 C 55.54 74.63 54.89 71.47 54.94 68.56 C 52.93 69.42 50.91 70.28 49.03 71.39 C 47.74 72.83 46.54 74.38 45.73 76.14 C 45.09 75.31 44.44 74.48 43.79 73.65 C 39.32 78.76 35.56 84.70 33.68 91.26 C 31.38 93.59 27.85 92.62 24.96 92.56 C 24.66 90.66 24.39 88.76 23.99 86.89 C 25.26 88.58 26.54 90.29 27.77 92.01 C 29.31 91.31 31.38 91.11 32.14 89.39 C 33.84 86.42 35.03 83.20 36.45 80.09 C 35.22 78.88 33.98 77.68 32.74 76.49 C 31.46 76.44 30.17 76.40 28.88 76.30 C 30.59 74.22 31.97 71.81 34.07 70.08 C 35.45 69.42 37.01 69.28 38.49 68.96 C 38.32 68.39 38.13 67.82 37.93 67.25 C 39.26 65.55 40.49 63.77 41.87 62.10 C 41.17 61.04 40.53 59.96 39.85 58.89 C 39.08 59.43 38.30 59.98 37.52 60.52 C 32.88 64.06 26.70 66.61 24.12 72.13 C 24.74 73.38 25.39 74.62 26.03 75.87 C 21.24 78.16 17.16 81.69 14.04 85.97 C 14.60 85.94 15.72 85.87 16.28 85.84 C 13.34 88.07 10.73 90.69 8.05 93.23 C 7.98 88.50 9.14 83.81 11.92 79.93 C 10.99 83.30 10.03 86.65 9.10 90.01 C 12.11 85.15 16.02 80.93 20.59 77.49 C 24.42 75.22 22.99 70.25 24.50 66.67 C 23.02 67.47 21.54 68.24 20.07 69.06 C 21.39 67.71 22.69 66.34 24.03 65.01 C 19.99 54.67 13.61 45.53 7.88 36.10 C 4.97 31.23 2.75 25.99 0.00 21.04 L 0.00 14.47 C 0.37 16.15 0.84 17.81 1.43 19.43 C 8.20 36.02 20.13 49.93 26.31 66.79 C 26.57 66.58 27.09 66.15 27.36 65.94 C 29.93 63.97 32.62 62.15 35.11 60.07 C 35.81 59.47 36.50 58.87 37.18 58.25 C 36.06 56.94 34.95 55.62 33.84 54.29 C 31.08 49.55 28.18 44.89 25.03 40.39 C 21.80 35.16 19.06 29.61 17.25 23.72 C 23.58 35.34 30.69 46.50 38.16 57.42 C 42.77 56.25 47.43 55.26 52.19 54.98 C 48.54 56.09 44.86 57.08 41.16 58.03 C 41.81 59.23 42.46 60.43 43.10 61.63 C 45.10 60.18 47.00 58.50 49.31 57.55 C 50.72 57.46 52.04 58.14 53.38 58.48 C 53.26 57.26 53.14 56.03 53.06 54.81 C 52.57 51.06 55.89 48.92 58.31 46.73 C 54.96 45.75 51.06 45.14 48.95 42.02 C 39.75 30.21 38.35 14.45 39.18 0.00 M 73.12 43.19 C 72.66 44.86 72.20 46.53 71.77 48.20 C 74.60 49.70 77.68 50.59 80.83 51.12 C 80.88 50.31 80.97 48.69 81.02 47.88 L 80.19 47.91 C 79.50 44.58 75.77 44.22 73.12 43.19 M 57.12 53.14 C 57.11 54.00 57.09 55.72 57.08 56.58 C 58.30 58.19 59.52 59.79 60.80 61.36 C 63.85 58.62 66.64 55.58 68.81 52.08 C 68.39 51.21 67.97 50.33 67.56 49.46 C 66.57 48.18 65.58 46.89 64.60 45.61 C 61.67 47.66 59.60 50.61 57.12 53.14 M 55.92 51.10 C 56.48 50.51 56.48 50.51 55.92 51.10 M 54.70 54.41 C 55.78 53.83 56.48 52.23 55.92 51.10 C 54.37 50.55 53.06 53.98 54.70 54.41 M 45.58 61.92 L 44.72 61.81 C 45.26 63.11 45.79 64.40 46.32 65.69 L 45.56 66.33 C 46.74 66.51 47.91 66.69 49.09 66.88 C 50.87 64.53 51.04 61.63 50.75 58.79 C 48.85 59.51 47.09 60.56 45.58 61.92 M 40.00 66.24 C 39.92 68.54 41.69 70.27 42.84 72.08 C 44.13 70.82 45.42 69.56 46.70 68.29 C 46.41 67.80 45.85 66.82 45.56 66.33 C 44.93 65.26 44.29 64.19 43.65 63.12 C 42.40 64.12 41.14 65.10 40.00 66.24 M 33.25 73.70 C 34.27 75.42 36.15 76.29 37.76 77.33 C 37.28 75.01 36.63 72.74 35.82 70.52 C 34.90 71.45 32.95 72.08 33.25 73.70 M 39.40 73.41 C 37.87 74.65 39.95 76.84 41.17 75.20 C 42.72 73.97 40.62 71.79 39.40 73.41 M 50.58 85.55 C 50.37 87.29 50.18 89.04 50.01 90.79 C 51.34 91.50 52.67 92.21 54.00 92.92 C 54.34 90.32 54.61 87.71 54.80 85.09 C 53.39 85.24 51.99 85.40 50.58 85.55 Z" />
<path fill="#878091" opacity="1.00" d=" M 40.31 0.00 L 45.03 0.00 C 46.44 6.25 47.09 12.64 47.74 19.01 C 52.03 14.14 58.20 11.77 64.56 11.28 C 66.17 7.52 67.70 3.73 69.37 0.00 L 82.26 0.00 C 80.42 3.15 79.01 6.52 77.27 9.71 C 75.12 9.57 72.92 9.26 70.81 9.79 C 68.38 11.48 66.84 14.10 65.07 16.41 C 64.18 15.76 63.32 15.08 62.45 14.40 C 62.75 18.63 60.09 22.01 57.78 25.25 C 55.45 25.93 53.12 26.61 50.76 27.17 C 48.70 27.28 46.63 27.41 44.57 27.55 C 44.36 28.16 43.93 29.38 43.71 29.99 C 40.90 20.26 39.53 10.13 40.31 0.00 Z" />
<path fill="#131215" opacity="0.87" d=" M 45.03 0.00 L 46.61 0.00 C 47.36 5.05 48.11 10.11 48.90 15.16 C 53.40 12.35 58.44 10.58 63.66 9.67 C 65.01 6.37 66.33 3.02 68.25 0.00 L 69.37 0.00 C 67.70 3.73 66.17 7.52 64.56 11.28 C 58.20 11.77 52.03 14.14 47.74 19.01 C 47.09 12.64 46.44 6.25 45.03 0.00 Z" />
<path fill="#0b0a0c" opacity="0.86" d=" M 0.00 4.32 C 3.81 7.09 7.87 9.58 11.20 12.95 C 7.67 11.08 4.17 9.14 0.86 6.90 C 0.64 6.48 0.21 5.63 0.00 5.21 L 0.00 4.32 Z" />
<path fill="#969696" opacity="1.00" d=" M 0.00 5.21 C 0.21 5.63 0.64 6.48 0.86 6.90 C 1.43 10.15 1.55 13.65 3.51 16.45 C 8.56 24.14 13.99 31.59 18.72 39.49 C 20.67 42.69 22.79 45.79 24.96 48.84 C 26.25 51.28 27.27 53.88 28.92 56.10 C 30.45 58.11 32.93 58.97 35.11 60.07 C 32.62 62.15 29.93 63.97 27.36 65.94 C 22.04 52.45 14.20 40.16 7.80 27.19 C 6.02 24.40 5.08 20.29 1.43 19.43 C 0.84 17.81 0.37 16.15 0.00 14.47 L 0.00 5.21 Z" />
<path fill="#3d3949" opacity="1.00" d=" M 0.86 6.90 C 4.17 9.14 7.67 11.08 11.20 12.95 C 14.14 15.93 15.45 20.04 17.25 23.72 C 19.06 29.61 21.80 35.16 25.03 40.39 C 22.92 40.13 20.82 39.82 18.72 39.49 C 13.99 31.59 8.56 24.14 3.51 16.45 C 1.55 13.65 1.43 10.15 0.86 6.90 Z" />
<path fill="#f19ac9" opacity="1.00" d=" M 70.81 9.79 C 72.92 9.26 75.12 9.57 77.27 9.71 C 76.09 11.95 74.84 14.19 74.25 16.67 C 73.76 18.57 73.57 20.63 72.50 22.33 C 71.34 23.09 70.06 23.62 68.81 24.21 C 69.82 21.84 70.04 19.34 69.59 16.82 C 68.08 16.70 66.57 16.59 65.07 16.41 C 66.84 14.10 68.38 11.48 70.81 9.79 Z" />
<path fill="#23222b" opacity="1.00" d=" M 62.45 14.40 C 63.32 15.08 64.18 15.76 65.07 16.41 C 66.57 16.59 68.08 16.70 69.59 16.82 C 70.04 19.34 69.82 21.84 68.81 24.21 C 68.01 26.71 67.93 29.36 67.74 31.96 C 67.63 32.87 67.43 34.70 67.32 35.62 C 66.64 34.20 66.24 32.67 65.82 31.16 C 65.69 29.56 65.61 27.94 65.54 26.33 C 63.48 26.63 61.41 26.81 59.34 27.05 C 58.95 26.60 58.17 25.70 57.78 25.25 C 60.09 22.01 62.75 18.63 62.45 14.40 M 59.90 25.40 C 63.27 25.33 67.46 24.21 68.46 20.51 C 69.32 18.97 67.81 17.15 66.12 17.76 C 63.07 19.32 61.08 22.27 59.90 25.40 Z" />
<path fill="#948d9b" opacity="1.00" d=" M 74.25 16.67 C 75.32 16.88 76.75 16.63 77.32 17.82 C 80.28 22.73 80.51 28.81 79.43 34.32 C 75.53 33.55 71.62 32.81 67.74 31.96 C 67.93 29.36 68.01 26.71 68.81 24.21 C 70.06 23.62 71.34 23.09 72.50 22.33 C 73.57 20.63 73.76 18.57 74.25 16.67 Z" />
<path fill="#ef4380" opacity="1.00" d=" M 59.90 25.40 C 61.08 22.27 63.07 19.32 66.12 17.76 C 67.81 17.15 69.32 18.97 68.46 20.51 C 67.46 24.21 63.27 25.33 59.90 25.40 Z" />
<path fill="#dfdfdf" opacity="1.00" d=" M 1.43 19.43 C 5.08 20.29 6.02 24.40 7.80 27.19 C 14.20 40.16 22.04 52.45 27.36 65.94 C 27.09 66.15 26.57 66.58 26.31 66.79 C 20.13 49.93 8.20 36.02 1.43 19.43 Z" />
<path fill="#9993a0" opacity="1.00" d=" M 50.76 27.17 C 53.12 26.61 55.45 25.93 57.78 25.25 C 58.17 25.70 58.95 26.60 59.34 27.05 C 61.41 26.81 63.48 26.63 65.54 26.33 C 65.61 27.94 65.69 29.56 65.82 31.16 C 60.80 29.83 55.81 28.38 50.76 27.17 Z" />
<path fill="#fffef0" opacity="1.00" d=" M 44.57 27.55 C 46.63 27.41 48.70 27.28 50.76 27.17 C 55.81 28.38 60.80 29.83 65.82 31.16 C 66.24 32.67 66.64 34.20 67.32 35.62 C 67.43 34.70 67.63 32.87 67.74 31.96 C 71.62 32.81 75.53 33.55 79.43 34.32 C 77.49 37.66 74.63 40.50 71.01 41.96 C 65.78 44.23 59.55 46.56 54.04 43.82 C 48.58 41.17 45.99 35.26 43.71 29.99 C 43.93 29.38 44.36 28.16 44.57 27.55 Z" />
<path fill="#524e5c" opacity="1.00" d=" M 18.72 39.49 C 20.82 39.82 22.92 40.13 25.03 40.39 C 28.18 44.89 31.08 49.55 33.84 54.29 C 31.00 52.29 27.93 50.64 24.96 48.84 C 22.79 45.79 20.67 42.69 18.72 39.49 Z" />
<path fill="#959595" opacity="1.00" d=" M 73.12 43.19 C 75.77 44.22 79.50 44.58 80.19 47.91 C 77.38 48.00 74.57 48.10 71.77 48.20 C 72.20 46.53 72.66 44.86 73.12 43.19 M 73.11 45.31 C 71.59 48.33 76.45 45.38 73.11 45.31 Z" />
<path fill="#f9f9f8" opacity="1.00" d=" M 73.11 45.31 C 76.45 45.38 71.59 48.33 73.11 45.31 Z" />
<path fill="#959596" opacity="1.00" d=" M 57.12 53.14 C 59.60 50.61 61.67 47.66 64.60 45.61 C 65.58 46.89 66.57 48.18 67.56 49.46 C 64.83 52.81 61.17 55.21 57.08 56.58 C 57.09 55.72 57.11 54.00 57.12 53.14 Z" />
<path fill="#332f3f" opacity="1.00" d=" M 68.85 46.82 C 71.87 49.69 75.30 52.05 78.78 54.31 C 77.00 55.65 75.31 57.11 73.52 58.45 C 72.19 59.04 70.59 59.47 69.94 60.93 C 67.92 64.50 65.80 68.05 62.91 71.01 C 64.17 70.67 65.43 70.34 66.69 70.00 C 66.33 72.02 65.99 74.04 65.64 76.06 C 63.20 75.99 60.76 75.89 58.32 75.76 C 57.88 74.35 57.45 72.93 56.99 71.53 C 59.80 68.78 62.10 65.57 64.12 62.21 C 64.33 61.92 64.73 61.34 64.93 61.05 C 66.29 64.39 69.74 60.02 65.98 59.82 C 67.82 58.03 69.84 56.30 71.01 53.97 C 70.73 51.48 69.69 49.16 68.85 46.82 Z" />
<path fill="#53505d" opacity="1.00" d=" M 71.77 48.20 C 74.57 48.10 77.38 48.00 80.19 47.91 L 81.02 47.88 C 80.97 48.69 80.88 50.31 80.83 51.12 C 77.68 50.59 74.60 49.70 71.77 48.20 Z" />
<path fill="#79777d" opacity="1.00" d=" M 24.96 48.84 C 27.93 50.64 31.00 52.29 33.84 54.29 C 34.95 55.62 36.06 56.94 37.18 58.25 C 36.50 58.87 35.81 59.47 35.11 60.07 C 32.93 58.97 30.45 58.11 28.92 56.10 C 27.27 53.88 26.25 51.28 24.96 48.84 Z" />
<path fill="#373443" opacity="1.00" d=" M 67.56 49.46 C 67.97 50.33 68.39 51.21 68.81 52.08 C 66.64 55.58 63.85 58.62 60.80 61.36 C 59.52 59.79 58.30 58.19 57.08 56.58 C 61.17 55.21 64.83 52.81 67.56 49.46 Z" />
<path fill="#999999" opacity="1.00" d=" M 55.92 51.10 C 56.48 50.51 56.48 50.51 55.92 51.10 Z" />
<path fill="#969697" opacity="1.00" d=" M 54.70 54.41 C 53.06 53.98 54.37 50.55 55.92 51.10 C 56.48 52.23 55.78 53.83 54.70 54.41 Z" />
<path fill="#969696" opacity="1.00" d=" M 83.56 51.01 L 84.52 50.83 C 90.46 50.83 96.52 51.49 101.95 54.08 C 101.95 58.48 102.02 62.87 102.19 67.27 C 100.16 69.98 97.92 72.52 95.55 74.95 C 95.27 74.41 94.71 73.34 94.43 72.80 C 93.28 71.04 92.46 68.19 89.93 68.17 C 87.12 67.95 84.74 70.20 83.63 72.58 C 83.13 74.62 83.74 76.73 83.92 78.78 C 79.53 79.82 75.11 78.56 70.74 78.08 C 69.78 75.18 69.14 72.16 68.99 69.10 C 71.79 61.10 78.69 55.76 85.92 51.93 C 85.46 51.91 84.55 51.85 84.09 51.82 L 83.56 51.01 Z" />
<path fill="#fffef3" opacity="1.00" d=" M 78.78 54.31 C 80.47 53.32 82.26 52.53 84.09 51.82 C 84.55 51.85 85.46 51.91 85.92 51.93 C 78.69 55.76 71.79 61.10 68.99 69.10 C 68.98 68.59 68.94 67.56 68.93 67.05 C 69.83 63.88 71.76 61.17 73.52 58.45 C 75.31 57.11 77.00 55.65 78.78 54.31 Z" />
<path fill="#78767d" opacity="1.00" d=" M 101.95 54.08 C 105.11 56.07 107.33 59.22 108.39 62.78 C 108.16 63.46 107.70 64.83 107.47 65.51 C 105.71 66.09 103.95 66.67 102.19 67.27 C 102.02 62.87 101.95 58.48 101.95 54.08 Z" />
<path fill="#952c4a" opacity="1.00" d=" M 52.19 54.98 L 53.06 54.81 C 53.14 56.03 53.26 57.26 53.38 58.48 C 52.04 58.14 50.72 57.46 49.31 57.55 C 47.00 58.50 45.10 60.18 43.10 61.63 C 42.46 60.43 41.81 59.23 41.16 58.03 C 44.86 57.08 48.54 56.09 52.19 54.98 Z" />
<path fill="#9d7424" opacity="1.00" d=" M 37.52 60.52 C 38.30 59.98 39.08 59.43 39.85 58.89 C 40.53 59.96 41.17 61.04 41.87 62.10 C 40.49 63.77 39.26 65.55 37.93 67.25 C 36.50 66.65 35.07 66.05 33.65 65.43 C 35.34 64.14 36.72 62.50 37.52 60.52 Z" />
<path fill="#67666f" opacity="1.00" d=" M 45.58 61.92 C 47.09 60.56 48.85 59.51 50.75 58.79 C 51.04 61.63 50.87 64.53 49.09 66.88 C 47.91 66.69 46.74 66.51 45.56 66.33 L 46.32 65.69 C 47.57 64.62 48.82 63.55 50.07 62.48 C 48.57 62.29 47.08 62.10 45.58 61.92 Z" />
<path fill="#787385" opacity="1.00" d=" M 64.93 61.05 C 65.19 60.74 65.72 60.13 65.98 59.82 C 69.74 60.02 66.29 64.39 64.93 61.05 Z" />
<path fill="#dccc7f" opacity="1.00" d=" M 24.12 72.13 C 26.70 66.61 32.88 64.06 37.52 60.52 C 36.72 62.50 35.34 64.14 33.65 65.43 C 30.59 67.82 27.46 70.14 24.12 72.13 Z" />
<path fill="#64616c" opacity="1.00" d=" M 52.93 64.82 C 54.23 63.62 55.54 62.44 56.85 61.25 C 58.27 62.15 59.68 63.05 61.10 63.96 C 62.11 63.38 63.13 62.82 64.12 62.21 C 62.10 65.57 59.80 68.78 56.99 71.53 C 56.61 70.41 56.22 69.30 55.83 68.20 C 54.25 67.99 52.67 67.78 51.10 67.57 C 51.31 67.19 51.75 66.42 51.96 66.04 C 52.58 67.33 53.46 67.65 54.61 67.00 C 54.91 65.73 54.35 65.01 52.93 64.82 Z" />
<path fill="#9b9c9e" opacity="1.00" d=" M 44.72 61.81 L 45.58 61.92 C 47.08 62.10 48.57 62.29 50.07 62.48 C 48.82 63.55 47.57 64.62 46.32 65.69 C 45.79 64.40 45.26 63.11 44.72 61.81 Z" />
<path fill="#6b6b6b" opacity="1.00" d=" M 40.00 66.24 C 41.14 65.10 42.40 64.12 43.65 63.12 C 44.29 64.19 44.93 65.26 45.56 66.33 C 45.85 66.82 46.41 67.80 46.70 68.29 C 45.42 69.56 44.13 70.82 42.84 72.08 C 41.69 70.27 39.92 68.54 40.00 66.24 Z" />
<path fill="#66636e" opacity="1.00" d=" M 108.39 62.78 C 109.40 70.69 108.91 79.40 104.28 86.18 C 97.05 88.50 89.29 91.12 81.78 88.29 C 82.27 88.26 83.24 88.20 83.73 88.18 C 82.60 86.49 81.48 84.81 80.30 83.17 C 83.08 82.42 85.87 81.65 88.52 80.51 C 90.12 79.80 91.68 79.03 93.24 78.26 C 93.63 76.44 94.03 74.62 94.43 72.80 C 94.71 73.34 95.27 74.41 95.55 74.95 C 97.92 72.52 100.16 69.98 102.19 67.27 C 103.95 66.67 105.71 66.09 107.47 65.51 C 107.70 64.83 108.16 63.46 108.39 62.78 Z" />
<path fill="#d5a12e" opacity="1.00" d=" M 24.12 72.13 C 27.46 70.14 30.59 67.82 33.65 65.43 C 35.07 66.05 36.50 66.65 37.93 67.25 C 38.13 67.82 38.32 68.39 38.49 68.96 C 37.01 69.28 35.45 69.42 34.07 70.08 C 31.97 71.81 30.59 74.22 28.88 76.30 C 27.93 76.18 26.98 76.02 26.03 75.87 C 25.39 74.62 24.74 73.38 24.12 72.13 Z" />
<path fill="#979196" opacity="1.00" d=" M 51.96 66.04 C 52.21 65.73 52.69 65.12 52.93 64.82 C 54.35 65.01 54.91 65.73 54.61 67.00 C 53.46 67.65 52.58 67.33 51.96 66.04 Z" />
<path fill="#fb4a72" opacity="1.00" d=" M 20.07 69.06 C 21.54 68.24 23.02 67.47 24.50 66.67 C 22.99 70.25 24.42 75.22 20.59 77.49 C 16.02 80.93 12.11 85.15 9.10 90.01 C 10.03 86.65 10.99 83.30 11.92 79.93 C 12.16 79.48 12.65 78.58 12.89 78.13 C 15.23 75.62 17.29 72.88 19.10 69.97 C 19.34 69.74 19.83 69.29 20.07 69.06 Z" />
<path fill="#4c4857" opacity="1.00" d=" M 68.93 81.20 C 67.52 76.62 67.80 71.66 68.93 67.05 C 68.94 67.56 68.98 68.59 68.99 69.10 C 69.14 72.16 69.78 75.18 70.74 78.08 C 72.62 82.37 76.23 85.53 80.11 87.99 C 78.56 88.27 77.03 88.63 75.50 89.00 C 72.73 86.99 69.96 84.58 68.93 81.20 Z" />
<path fill="#3d3949" opacity="1.00" d=" M 83.63 72.58 C 84.74 70.20 87.12 67.95 89.93 68.17 C 92.46 68.19 93.28 71.04 94.43 72.80 C 94.03 74.62 93.63 76.44 93.24 78.26 C 91.68 79.03 90.12 79.80 88.52 80.51 C 86.99 79.92 85.46 79.33 83.92 78.78 C 83.74 76.73 83.13 74.62 83.63 72.58 M 88.50 69.02 L 88.34 69.72 C 86.42 69.56 84.00 72.26 85.24 74.02 L 84.74 74.64 C 85.27 79.37 92.96 78.39 92.88 73.90 C 93.47 71.01 90.95 69.46 88.50 69.02 Z" />
<path fill="#5d5a65" opacity="1.00" d=" M 49.03 71.39 C 50.91 70.28 52.93 69.42 54.94 68.56 C 54.89 71.47 55.54 74.63 54.26 77.37 C 52.10 80.69 48.63 82.80 45.56 85.19 C 45.18 82.28 44.73 79.38 44.16 76.50 C 44.07 75.78 43.88 74.36 43.79 73.65 C 44.44 74.48 45.09 75.31 45.73 76.14 C 45.72 78.19 45.78 80.23 45.83 82.28 C 46.10 82.00 46.62 81.44 46.89 81.16 C 49.70 79.45 49.92 76.41 49.24 73.46 C 49.17 72.77 49.10 72.08 49.03 71.39 Z" />
<path fill="#949494" opacity="1.00" d=" M 88.50 69.02 C 90.95 69.46 93.47 71.01 92.88 73.90 C 92.96 78.39 85.27 79.37 84.74 74.64 L 85.24 74.02 C 86.53 72.81 88.17 71.64 88.34 69.72 L 88.50 69.02 Z" />
<path fill="#2d0d14" opacity="0.85" d=" M 12.89 78.13 C 14.14 74.86 16.29 72.05 19.10 69.97 C 17.29 72.88 15.23 75.62 12.89 78.13 Z" />
<path fill="#dfdfde" opacity="1.00" d=" M 85.24 74.02 C 84.00 72.26 86.42 69.56 88.34 69.72 C 88.17 71.64 86.53 72.81 85.24 74.02 Z" />
<path fill="#9993a0" opacity="1.00" d=" M 33.25 73.70 C 32.95 72.08 34.90 71.45 35.82 70.52 C 36.63 72.74 37.28 75.01 37.76 77.33 C 36.15 76.29 34.27 75.42 33.25 73.70 Z" />
<path fill="#dfdfdf" opacity="1.00" d=" M 45.73 76.14 C 46.54 74.38 47.74 72.83 49.03 71.39 C 49.10 72.08 49.17 72.77 49.24 73.46 C 47.73 75.76 47.21 78.47 46.89 81.16 C 46.62 81.44 46.10 82.00 45.83 82.28 C 45.78 80.23 45.72 78.19 45.73 76.14 Z" />
<path fill="#55515d" opacity="1.00" d=" M 39.40 73.41 C 40.62 71.79 42.72 73.97 41.17 75.20 C 39.95 76.84 37.87 74.65 39.40 73.41 Z" />
<path fill="#fffef3" opacity="1.00" d=" M 33.68 91.26 C 35.56 84.70 39.32 78.76 43.79 73.65 C 43.88 74.36 44.07 75.78 44.16 76.50 C 44.05 78.27 43.92 80.05 43.81 81.83 C 43.54 84.08 43.13 86.30 42.76 88.53 C 40.85 89.55 38.97 90.63 37.09 91.71 C 35.77 92.36 34.45 92.99 33.11 93.61 C 33.25 93.02 33.54 91.85 33.68 91.26 Z" />
<path fill="#949494" opacity="1.00" d=" M 46.89 81.16 C 47.21 78.47 47.73 75.76 49.24 73.46 C 49.92 76.41 49.70 79.45 46.89 81.16 Z" />
<path fill="#581a32" opacity="1.00" d=" M 14.04 85.97 C 17.16 81.69 21.24 78.16 26.03 75.87 C 26.98 76.02 27.93 76.18 28.88 76.30 C 30.17 76.40 31.46 76.44 32.74 76.49 C 33.98 77.68 35.22 78.88 36.45 80.09 C 35.03 83.20 33.84 86.42 32.14 89.39 C 31.38 91.11 29.31 91.31 27.77 92.01 C 26.54 90.29 25.26 88.58 23.99 86.89 C 23.74 86.55 23.25 85.89 23.01 85.56 C 21.88 83.61 19.42 84.58 17.98 85.57 C 17.56 85.64 16.71 85.77 16.28 85.84 C 15.72 85.87 14.60 85.94 14.04 85.97 Z" />
<path fill="#8a8393" opacity="1.00" d=" M 51.99 82.51 C 54.46 79.99 56.72 75.90 60.88 77.03 C 66.13 76.57 67.29 82.19 69.29 85.79 C 71.86 90.03 67.99 94.63 65.82 98.19 C 64.79 91.94 64.64 85.57 63.38 79.36 C 63.35 78.03 61.29 77.22 60.27 77.97 C 57.80 79.25 55.76 81.19 53.54 82.86 C 53.15 82.77 52.38 82.60 51.99 82.51 Z" />
<path fill="#fffef1" opacity="1.00" d=" M 53.54 82.86 C 55.76 81.19 57.80 79.25 60.27 77.97 C 61.29 77.22 63.35 78.03 63.38 79.36 C 64.64 85.57 64.79 91.94 65.82 98.19 C 64.88 99.51 63.93 100.82 63.00 102.16 C 62.05 103.45 61.08 104.75 60.08 106.02 C 59.49 106.43 58.30 107.24 57.70 107.65 C 53.63 100.65 55.79 92.16 57.30 84.73 C 56.05 84.10 54.80 83.45 53.54 82.86 Z" />
<path fill="#726f77" opacity="1.00" d=" M 70.74 78.08 C 75.11 78.56 79.53 79.82 83.92 78.78 C 85.46 79.33 86.99 79.92 88.52 80.51 C 85.87 81.65 83.08 82.42 80.30 83.17 C 81.48 84.81 82.60 86.49 83.73 88.18 C 83.24 88.20 82.27 88.26 81.78 88.29 C 81.36 88.22 80.53 88.06 80.11 87.99 C 76.23 85.53 72.62 82.37 70.74 78.08 Z" />
<path fill="#9892a0" opacity="1.00" d=" M 42.76 88.53 C 43.13 86.30 43.54 84.08 43.81 81.83 C 43.76 83.90 43.80 85.96 43.85 88.02 C 45.13 87.35 46.40 86.66 47.66 85.96 C 47.49 88.19 47.87 90.49 47.31 92.66 C 47.13 92.36 46.78 91.76 46.61 91.46 C 43.94 91.98 41.77 93.87 39.28 94.89 C 39.38 94.00 39.57 92.22 39.66 91.33 C 39.02 91.42 37.74 91.61 37.09 91.71 C 38.97 90.63 40.85 89.55 42.76 88.53 Z" />
<path fill="#000000" opacity="0.39" d=" M 17.98 85.57 C 19.42 84.58 21.88 83.61 23.01 85.56 C 21.40 86.27 19.63 85.87 17.98 85.57 Z" />
<path fill="#4b162c" opacity="1.00" d=" M 50.58 85.55 C 51.99 85.40 53.39 85.24 54.80 85.09 C 54.61 87.71 54.34 90.32 54.00 92.92 C 52.67 92.21 51.34 91.50 50.01 90.79 C 50.18 89.04 50.37 87.29 50.58 85.55 Z" />
<path fill="#373242" opacity="1.00" d=" M 81.78 88.29 C 89.29 91.12 97.05 88.50 104.28 86.18 C 98.11 95.69 83.72 95.93 75.50 89.00 C 77.03 88.63 78.56 88.27 80.11 87.99 C 80.53 88.06 81.36 88.22 81.78 88.29 Z" />
<path fill="#3d1326" opacity="1.00" d=" M 72.21 89.47 C 75.25 91.55 78.36 93.52 81.49 95.45 C 80.41 97.24 79.04 98.85 77.04 99.65 C 74.51 98.20 72.22 96.37 70.02 94.45 C 70.81 92.81 71.52 91.14 72.21 89.47 Z" />
<path fill="#fffef3" opacity="1.00" d=" M 39.28 94.89 C 41.77 93.87 43.94 91.98 46.61 91.46 C 46.78 91.76 47.13 92.36 47.31 92.66 C 46.09 96.12 45.20 99.94 42.75 102.76 C 39.79 104.76 37.16 101.13 35.30 99.25 C 35.93 98.16 36.54 97.06 37.15 95.96 C 37.68 95.69 38.75 95.16 39.28 94.89 Z" />
<path fill="#7f2341" opacity="1.00" d=" M 82.56 95.38 C 84.69 95.74 86.83 96.10 88.96 96.47 C 88.85 97.51 88.74 98.55 88.60 99.59 C 86.39 98.78 84.05 98.51 81.71 98.40 C 82.01 97.39 82.29 96.39 82.56 95.38 Z" />
<path fill="#fb4a72" opacity="1.00" d=" M 81.71 98.40 C 84.05 98.51 86.39 98.78 88.60 99.59 C 86.42 103.95 83.26 107.75 79.64 111.00 L 75.67 111.00 C 78.31 107.14 80.33 102.86 81.71 98.40 Z" />
<path fill="#655d72" opacity="1.00" d=" M 62.48 103.82 C 64.69 102.87 66.86 101.84 69.05 100.85 C 67.80 104.31 66.52 107.76 64.77 111.00 L 57.56 111.00 C 59.16 109.34 60.68 107.59 62.15 105.82 C 61.63 105.87 60.60 105.97 60.08 106.02 C 61.08 104.75 62.05 103.45 63.00 102.16 C 62.87 102.57 62.61 103.40 62.48 103.82 Z" />
</svg>
