<?xml version="1.0" encoding="UTF-8" ?>
<!DOCTYPE svg PUBLIC "-//W3C//DTD SVG 1.1//EN" "http://www.w3.org/Graphics/SVG/1.1/DTD/svg11.dtd">
<svg width="111pt" height="111pt" viewBox="0 0 111 111" version="1.1" xmlns="http://www.w3.org/2000/svg">
<path fill="#180e0e" opacity="1.00" d=" M 28.04 0.00 L 29.90 0.00 C 23.98 14.43 23.31 30.52 25.22 45.85 C 25.93 52.85 29.16 59.86 34.79 64.23 C 40.57 68.31 48.10 66.95 54.27 64.59 C 51.45 64.27 48.62 63.97 45.80 63.62 C 47.98 59.31 51.28 55.54 55.83 53.68 C 56.76 53.75 58.63 53.88 59.56 53.94 C 59.52 57.50 58.05 60.73 56.30 63.74 C 58.91 61.35 61.42 58.70 62.68 55.31 C 63.91 48.23 60.85 40.42 64.93 33.95 C 70.02 25.30 75.68 16.79 78.03 6.88 C 79.13 4.58 80.18 2.26 81.36 0.00 L 83.04 0.00 C 80.48 7.00 78.19 14.14 74.75 20.78 C 72.03 26.24 68.47 31.21 65.53 36.54 C 63.52 39.77 64.70 43.69 64.71 47.24 C 65.82 45.38 66.92 43.52 68.05 41.68 C 68.49 42.85 68.92 44.02 69.36 45.19 C 72.49 42.24 75.93 39.43 80.23 38.41 C 79.31 42.59 76.72 46.02 74.19 49.35 C 78.21 49.75 82.21 49.21 86.05 48.03 C 88.89 47.11 91.86 48.93 94.68 47.69 C 99.44 46.02 104.55 45.90 109.46 46.93 C 109.66 54.79 109.64 62.67 108.86 70.49 C 107.12 70.86 105.39 71.25 103.67 71.68 C 103.97 73.34 104.28 75.01 104.60 76.67 C 105.17 76.71 106.31 76.78 106.88 76.82 C 108.35 77.20 109.59 75.48 109.18 74.13 C 109.10 73.22 108.94 71.40 108.86 70.49 C 109.40 71.05 110.47 72.15 111.00 72.70 L 111.00 79.24 C 109.59 81.81 108.10 84.33 106.76 86.93 C 104.35 85.06 101.90 83.26 99.39 81.54 C 96.60 79.55 93.33 78.45 90.08 77.49 C 89.82 78.12 89.30 79.37 89.04 80.00 C 90.00 80.66 90.97 81.32 91.93 82.00 C 92.43 82.33 93.44 83.01 93.94 83.35 C 96.31 84.89 98.56 86.59 100.83 88.28 C 102.50 89.53 104.17 90.77 105.85 92.02 C 106.61 90.69 107.36 89.37 108.11 88.04 C 108.48 88.38 109.21 89.06 109.58 89.40 C 107.14 92.58 102.76 92.36 99.77 94.71 C 95.99 97.44 92.49 100.54 88.72 103.27 C 89.86 105.86 90.94 108.47 92.19 111.00 L 90.52 111.00 C 89.41 109.24 88.39 107.43 87.37 105.63 C 85.45 106.27 83.53 106.90 81.58 107.43 C 88.06 101.76 94.94 96.55 101.83 91.39 C 100.98 90.61 100.13 89.83 99.26 89.07 C 97.30 87.38 95.25 85.80 93.13 84.31 C 92.03 83.54 90.90 82.79 89.77 82.04 C 85.34 91.71 81.40 101.59 76.42 111.00 L 74.87 111.00 C 75.69 109.26 76.50 107.52 77.30 105.78 C 80.56 100.76 80.95 93.05 75.43 89.43 C 69.10 84.52 60.75 83.67 53.01 83.50 C 49.01 83.66 44.39 83.26 41.22 86.19 C 36.57 90.19 33.83 95.80 30.51 100.85 L 30.04 101.63 C 30.51 99.85 30.95 98.05 31.38 96.26 C 26.03 97.03 21.21 99.55 16.17 101.34 C 20.04 99.01 24.07 96.94 28.16 95.01 C 27.87 93.24 27.59 91.47 27.24 89.71 C 26.60 86.90 25.37 84.28 24.01 81.75 C 22.61 82.99 21.22 84.24 19.88 85.54 C 16.42 88.55 13.39 92.00 9.99 95.08 C 13.65 88.97 19.80 84.93 23.58 78.91 C 26.87 84.31 29.06 90.19 30.52 96.33 C 30.59 93.14 30.52 89.92 29.73 86.81 C 30.66 87.05 31.60 87.28 32.53 87.51 C 32.27 90.17 32.15 92.84 31.98 95.51 C 37.88 86.81 46.03 79.75 55.16 74.61 C 52.39 77.21 49.46 79.62 46.60 82.12 C 49.19 81.98 51.85 82.14 54.36 81.38 C 56.40 78.99 57.63 76.06 59.05 73.29 C 58.26 73.29 57.48 73.29 56.69 73.29 C 53.13 73.01 49.22 72.01 45.89 73.71 C 44.56 76.75 45.45 81.48 41.74 82.91 C 39.03 84.19 36.13 85.00 33.40 86.22 C 35.87 83.62 39.36 82.38 42.00 80.00 C 43.86 77.58 44.19 73.56 41.73 71.41 C 40.06 70.29 37.94 70.24 36.03 69.79 C 37.01 69.29 38.01 68.81 39.01 68.33 C 34.04 65.90 28.64 62.96 26.39 57.60 C 23.27 50.15 23.21 41.94 22.88 34.00 C 22.72 22.51 23.36 10.67 28.04 0.00 M 66.71 52.12 C 71.76 49.41 76.33 45.46 78.44 39.99 C 73.22 42.48 68.96 46.77 66.71 52.12 M 99.70 47.57 C 91.02 49.63 82.02 56.72 82.59 66.42 C 86.13 69.38 90.71 70.73 94.31 73.64 C 98.32 76.88 102.90 79.34 106.79 82.75 C 107.76 81.34 108.75 79.94 109.76 78.56 C 108.20 78.41 106.58 78.42 105.08 77.88 C 102.01 76.46 103.90 72.52 103.44 69.90 C 104.84 69.46 106.23 69.02 107.63 68.59 C 107.72 61.67 107.74 54.76 107.77 47.84 C 105.08 47.65 102.39 47.56 99.70 47.57 M 78.02 51.02 C 76.12 50.97 74.23 50.67 72.34 50.80 C 70.17 51.42 69.83 54.23 70.99 55.90 C 74.28 57.64 78.06 57.96 81.66 58.65 C 84.46 55.39 87.36 52.16 89.51 48.42 C 85.74 49.49 82.04 51.33 78.02 51.02 M 47.65 62.93 C 52.54 63.09 58.64 60.46 57.99 54.63 C 53.32 55.34 49.58 58.73 47.65 62.93 M 47.68 68.91 C 48.26 70.06 48.54 71.79 50.20 71.70 C 54.25 71.77 58.07 69.59 61.20 67.18 C 64.34 64.73 65.03 60.66 65.33 56.94 C 60.69 62.43 55.06 67.69 47.68 68.91 M 75.96 60.66 C 77.47 67.37 80.03 73.99 79.59 80.98 C 79.30 86.51 79.53 92.09 81.26 97.40 C 84.51 91.21 87.92 84.84 88.62 77.76 C 90.68 77.16 92.71 76.41 94.53 75.26 C 90.31 72.47 85.33 70.82 81.55 67.39 C 80.90 65.38 81.24 63.22 81.17 61.14 C 79.43 60.98 77.70 60.81 75.96 60.66 M 61.01 69.30 C 60.31 73.80 58.48 77.97 55.95 81.73 C 59.60 82.19 63.25 82.69 66.90 83.16 C 68.61 80.74 70.14 78.18 71.39 75.49 C 67.61 74.00 64.04 72.01 61.01 69.30 M 68.48 83.21 C 70.73 84.48 72.99 85.72 75.28 86.93 C 74.94 83.14 74.48 79.37 73.83 75.63 C 71.89 78.04 70.14 80.60 68.48 83.21 Z" />
<path fill="#90826c" opacity="1.00" d=" M 29.90 0.00 L 35.08 0.00 C 31.21 11.16 29.14 23.01 29.26 34.83 C 29.85 34.79 31.02 34.70 31.61 34.65 C 38.40 34.72 45.17 35.31 51.94 35.81 L 52.78 35.83 C 58.00 22.46 65.38 9.54 76.29 0.00 L 81.36 0.00 C 80.18 2.26 79.13 4.58 78.03 6.88 C 72.22 13.48 68.06 21.26 63.86 28.93 C 62.00 32.45 59.46 35.74 58.64 39.71 C 58.22 43.96 58.31 48.23 58.34 52.49 C 57.50 52.88 56.66 53.28 55.83 53.68 C 51.28 55.54 47.98 59.31 45.80 63.62 C 48.62 63.97 51.45 64.27 54.27 64.59 C 48.10 66.95 40.57 68.31 34.79 64.23 C 29.16 59.86 25.93 52.85 25.22 45.85 C 23.31 30.52 23.98 14.43 29.90 0.00 Z" />
<path fill="#3c3231" opacity="1.00" d=" M 35.08 0.00 L 39.37 0.00 C 37.96 5.61 37.43 11.40 35.95 16.99 C 34.46 22.72 33.10 28.49 32.32 34.36 L 31.61 34.65 C 31.02 34.70 29.85 34.79 29.26 34.83 C 29.14 23.01 31.21 11.16 35.08 0.00 Z" />
<path fill="#0d0c0a" opacity="0.91" d=" M 39.37 0.00 L 40.56 0.00 C 39.85 10.89 36.67 21.37 33.97 31.89 C 40.21 29.24 47.01 28.66 53.71 29.22 C 58.31 18.26 65.09 8.18 73.73 0.00 L 76.29 0.00 C 65.38 9.54 58.00 22.46 52.78 35.83 L 51.94 35.81 C 51.93 34.20 51.91 32.59 51.90 30.98 C 45.16 30.04 38.29 31.02 32.32 34.36 C 33.10 28.49 34.46 22.72 35.95 16.99 C 37.43 11.40 37.96 5.61 39.37 0.00 Z" />
<path fill="#3f3635" opacity="1.00" d=" M 63.86 28.93 C 68.06 21.26 72.22 13.48 78.03 6.88 C 75.68 16.79 70.02 25.30 64.93 33.95 C 60.85 40.42 63.91 48.23 62.68 55.31 C 59.88 50.62 58.08 45.25 58.64 39.71 C 59.46 35.74 62.00 32.45 63.86 28.93 Z" />
<path fill="#5b4f4b" opacity="1.00" d=" M 32.32 34.36 C 38.29 31.02 45.16 30.04 51.90 30.98 C 51.91 32.59 51.93 34.20 51.94 35.81 C 45.17 35.31 38.40 34.72 31.61 34.65 L 32.32 34.36 Z" />
<path fill="#584d48" opacity="1.00" d=" M 58.34 52.49 C 58.31 48.23 58.22 43.96 58.64 39.71 C 58.08 45.25 59.88 50.62 62.68 55.31 C 61.42 58.70 58.91 61.35 56.30 63.74 C 58.05 60.73 59.52 57.50 59.56 53.94 C 58.63 53.88 56.76 53.75 55.83 53.68 C 56.66 53.28 57.50 52.88 58.34 52.49 Z" />
<path fill="#bd3759" opacity="1.00" d=" M 66.71 52.12 C 68.96 46.77 73.22 42.48 78.44 39.99 C 76.33 45.46 71.76 49.41 66.71 52.12 Z" />
<path fill="#442d29" opacity="1.00" d=" M 99.70 47.57 C 102.39 47.56 105.08 47.65 107.77 47.84 C 107.74 54.76 107.72 61.67 107.63 68.59 C 106.23 69.02 104.84 69.46 103.44 69.90 C 102.01 62.49 99.82 55.19 99.70 47.57 Z" />
<path fill="#2c2d33" opacity="1.00" d=" M 78.02 51.02 C 82.04 51.33 85.74 49.49 89.51 48.42 C 87.36 52.16 84.46 55.39 81.66 58.65 C 78.06 57.96 74.28 57.64 70.99 55.90 C 69.83 54.23 70.17 51.42 72.34 50.80 C 74.23 50.67 76.12 50.97 78.02 51.02 Z" />
<path fill="#7a5341" opacity="1.00" d=" M 82.59 66.42 C 82.02 56.72 91.02 49.63 99.70 47.57 C 99.82 55.19 102.01 62.49 103.44 69.90 C 103.90 72.52 102.01 76.46 105.08 77.88 C 106.58 78.42 108.20 78.41 109.76 78.56 C 108.75 79.94 107.76 81.34 106.79 82.75 C 102.90 79.34 98.32 76.88 94.31 73.64 C 90.71 70.73 86.13 69.38 82.59 66.42 Z" />
<path fill="#d9a52f" opacity="1.00" d=" M 47.65 62.93 C 49.58 58.73 53.32 55.34 57.99 54.63 C 58.64 60.46 52.54 63.09 47.65 62.93 Z" />
<path fill="#c0375b" opacity="1.00" d=" M 47.68 68.91 C 55.06 67.69 60.69 62.43 65.33 56.94 C 65.03 60.66 64.34 64.73 61.20 67.18 C 58.07 69.59 54.25 71.77 50.20 71.70 C 48.54 71.79 48.26 70.06 47.68 68.91 Z" />
<path fill="#7a5341" opacity="1.00" d=" M 61.01 69.30 C 64.04 72.01 67.61 74.00 71.39 75.49 C 70.14 78.18 68.61 80.74 66.90 83.16 C 63.25 82.69 59.60 82.19 55.95 81.73 C 58.48 77.97 60.31 73.80 61.01 69.30 Z" />
<path fill="#422b28" opacity="1.00" d=" M 33.03 71.69 C 34.00 71.01 35.01 70.38 36.03 69.79 C 37.94 70.24 40.06 70.29 41.73 71.41 C 44.19 73.56 43.86 77.58 42.00 80.00 C 39.36 82.38 35.87 83.62 33.40 86.22 C 33.18 86.54 32.75 87.19 32.53 87.51 C 31.60 87.28 30.66 87.05 29.73 86.81 C 28.35 84.04 26.63 81.43 24.51 79.16 C 25.67 79.45 26.84 79.74 28.02 80.02 C 29.29 77.59 30.66 75.20 32.20 72.92 C 31.05 75.89 29.95 78.88 28.72 81.82 C 29.51 82.98 30.29 84.15 31.08 85.32 C 34.54 82.47 37.52 79.07 39.72 75.16 C 37.50 73.98 35.26 72.83 33.03 71.69 Z" />
<path fill="#ba4f67" opacity="1.00" d=" M 103.67 71.68 C 105.39 71.25 107.12 70.86 108.86 70.49 C 108.94 71.40 109.10 73.22 109.18 74.13 C 107.85 74.23 106.79 75.49 106.88 76.82 C 106.31 76.78 105.17 76.71 104.60 76.67 C 104.28 75.01 103.97 73.34 103.67 71.68 Z" />
<path fill="#7b5341" opacity="1.00" d=" M 32.20 72.92 C 32.41 72.61 32.82 71.99 33.03 71.69 C 35.26 72.83 37.50 73.98 39.72 75.16 C 37.52 79.07 34.54 82.47 31.08 85.32 C 30.29 84.15 29.51 82.98 28.72 81.82 C 29.95 78.88 31.05 75.89 32.20 72.92 Z" />
<path fill="#7d5543" opacity="1.00" d=" M 56.69 73.29 C 57.48 73.29 58.26 73.29 59.05 73.29 C 57.63 76.06 56.40 78.99 54.36 81.38 C 51.85 82.14 49.19 81.98 46.60 82.12 C 49.46 79.62 52.39 77.21 55.16 74.61 C 55.54 74.28 56.31 73.62 56.69 73.29 Z" />
<path fill="#efdfd2" opacity="1.00" d=" M 106.88 76.82 C 106.79 75.49 107.85 74.23 109.18 74.13 C 109.59 75.48 108.35 77.20 106.88 76.82 Z" />
<path fill="#5b372f" opacity="1.00" d=" M 68.48 83.21 C 70.14 80.60 71.89 78.04 73.83 75.63 C 74.48 79.37 74.94 83.14 75.28 86.93 C 72.99 85.72 70.73 84.48 68.48 83.21 Z" />
<path fill="#daa52e" opacity="1.00" d=" M 90.08 77.49 C 93.33 78.45 96.60 79.55 99.39 81.54 C 99.85 83.79 100.35 86.03 100.83 88.28 C 98.56 86.59 96.31 84.89 93.94 83.35 C 95.99 81.84 92.72 79.67 91.93 82.00 C 90.97 81.32 90.00 80.66 89.04 80.00 C 89.30 79.37 89.82 78.12 90.08 77.49 Z" />
<path fill="#d9a52f" opacity="1.00" d=" M 23.58 78.91 L 24.51 79.16 C 26.63 81.43 28.35 84.04 29.73 86.81 C 30.52 89.92 30.59 93.14 30.52 96.33 C 29.06 90.19 26.87 84.31 23.58 78.91 Z" />
<path fill="#edd57b" opacity="1.00" d=" M 91.93 82.00 C 92.72 79.67 95.99 81.84 93.94 83.35 C 93.44 83.01 92.43 82.33 91.93 82.00 Z" />
<path fill="#969696" opacity="1.00" d=" M 19.88 85.54 C 21.22 84.24 22.61 82.99 24.01 81.75 C 25.37 84.28 26.60 86.90 27.24 89.71 C 21.19 94.00 14.93 98.01 8.28 101.31 C 11.87 95.84 16.90 91.43 19.88 85.54 Z" />
<path fill="#77551d" opacity="1.00" d=" M 99.39 81.54 C 101.90 83.26 104.35 85.06 106.76 86.93 C 107.10 87.21 107.77 87.77 108.11 88.04 C 107.36 89.37 106.61 90.69 105.85 92.02 C 104.17 90.77 102.50 89.53 100.83 88.28 C 100.35 86.03 99.85 83.79 99.39 81.54 Z" />
<path fill="#cccccd" opacity="1.00" d=" M 76.42 111.00 C 81.40 101.59 85.34 91.71 89.77 82.04 C 90.90 82.79 92.03 83.54 93.13 84.31 C 87.80 89.33 85.95 96.60 82.83 102.98 C 81.77 104.61 80.76 106.28 79.72 107.92 C 79.00 108.98 78.24 110.00 77.44 111.00 L 76.42 111.00 Z" />
<path fill="#90826c" opacity="1.00" d=" M 41.22 86.19 C 44.39 83.26 49.01 83.66 53.01 83.50 C 60.75 83.67 69.10 84.52 75.43 89.43 C 75.14 94.94 75.56 100.51 77.30 105.78 C 76.50 107.52 75.69 109.26 74.87 111.00 L 68.10 111.00 C 65.00 106.10 61.37 100.76 61.87 94.69 C 58.63 93.40 55.29 92.36 51.86 91.72 C 45.76 96.62 38.40 99.58 31.17 102.40 C 31.00 102.02 30.68 101.24 30.51 100.85 C 33.83 95.80 36.57 90.19 41.22 86.19 Z" />
<path fill="#919091" opacity="1.00" d=" M 82.83 102.98 C 85.95 96.60 87.80 89.33 93.13 84.31 C 95.25 85.80 97.30 87.38 99.26 89.07 C 93.56 93.45 88.42 98.47 82.83 102.98 Z" />
<path fill="#bdbcbe" opacity="1.00" d=" M 9.99 95.08 C 13.39 92.00 16.42 88.55 19.88 85.54 C 16.90 91.43 11.87 95.84 8.28 101.31 C 7.44 102.50 6.71 103.76 6.00 105.02 C 4.50 105.44 2.98 105.75 1.45 106.06 C 2.56 104.41 3.71 102.78 4.92 101.20 C 6.48 99.62 7.88 97.90 9.13 96.07 C 9.35 95.82 9.78 95.33 9.99 95.08 Z" />
<path fill="#4f4c5a" opacity="1.00" d=" M 99.26 89.07 C 100.13 89.83 100.98 90.61 101.83 91.39 C 94.94 96.55 88.06 101.76 81.58 107.43 C 81.11 107.56 80.18 107.80 79.72 107.92 C 80.76 106.28 81.77 104.61 82.83 102.98 C 88.42 98.47 93.56 93.45 99.26 89.07 Z" />
<path fill="#585462" opacity="1.00" d=" M 8.28 101.31 C 14.93 98.01 21.19 94.00 27.24 89.71 C 27.59 91.47 27.87 93.24 28.16 95.01 C 24.07 96.94 20.04 99.01 16.17 101.34 C 12.86 102.77 9.49 104.09 6.00 105.02 C 6.71 103.76 7.44 102.50 8.28 101.31 Z" />
<path fill="#564b47" opacity="1.00" d=" M 75.43 89.43 C 80.95 93.05 80.56 100.76 77.30 105.78 C 75.56 100.51 75.14 94.94 75.43 89.43 Z" />
<path fill="#3b3134" opacity="1.00" d=" M 31.17 102.40 C 38.40 99.58 45.76 96.62 51.86 91.72 C 52.89 92.56 53.93 93.41 54.97 94.25 C 52.10 98.62 51.17 103.81 50.11 108.83 C 50.17 106.73 50.08 104.64 50.01 102.55 C 45.16 103.85 41.70 107.51 38.35 111.00 L 36.64 111.00 C 38.68 109.12 40.58 107.09 42.49 105.09 C 37.93 105.56 33.36 105.95 28.77 105.83 C 29.17 104.42 29.60 103.02 30.04 101.63 L 30.51 100.85 C 30.68 101.24 31.00 102.02 31.17 102.40 Z" />
<path fill="#0d0c0a" opacity="0.92" d=" M 51.86 91.72 C 55.29 92.36 58.63 93.40 61.87 94.69 C 61.37 100.76 65.00 106.10 68.10 111.00 L 66.29 111.00 C 62.57 106.08 60.42 100.26 58.75 94.39 C 57.39 95.41 55.84 96.27 54.77 97.62 C 53.01 101.91 52.32 106.55 51.05 111.00 L 49.57 111.00 C 49.70 110.46 49.97 109.37 50.11 108.83 C 51.17 103.81 52.10 98.62 54.97 94.25 C 53.93 93.41 52.89 92.56 51.86 91.72 Z" />
<path fill="#1b1a1b" opacity="0.87" d=" M 4.92 101.20 C 6.15 99.35 7.55 97.63 9.13 96.07 C 7.88 97.90 6.48 99.62 4.92 101.20 Z" />
<path fill="#685c53" opacity="1.00" d=" M 38.35 111.00 C 41.70 107.51 45.16 103.85 50.01 102.55 C 50.08 104.64 50.17 106.73 50.11 108.83 C 49.97 109.37 49.70 110.46 49.57 111.00 L 38.35 111.00 Z" />
<path fill="#2f272c" opacity="1.00" d=" M 81.58 107.43 C 83.53 106.90 85.45 106.27 87.37 105.63 C 88.39 107.43 89.41 109.24 90.52 111.00 L 77.44 111.00 C 78.24 110.00 79.00 108.98 79.72 107.92 C 80.18 107.80 81.11 107.56 81.58 107.43 Z" />
</svg>
