<?xml version="1.0" encoding="UTF-8" ?>
<!DOCTYPE svg PUBLIC "-//W3C//DTD SVG 1.1//EN" "http://www.w3.org/Graphics/SVG/1.1/DTD/svg11.dtd">
<svg width="111pt" height="111pt" viewBox="0 0 111 111" version="1.1" xmlns="http://www.w3.org/2000/svg">
<path fill="#000000" opacity="1.00" d=" M 15.81 14.80 C 24.05 13.27 33.23 15.06 39.94 20.21 C 49.98 29.61 47.74 47.90 36.46 55.36 C 34.47 56.73 32.13 57.38 29.79 57.83 C 29.32 58.83 28.84 59.84 28.38 60.85 C 29.95 62.15 31.53 63.82 31.47 66.02 C 31.59 68.18 29.84 69.67 28.59 71.17 C 28.12 74.49 26.80 77.64 26.58 81.00 C 25.87 87.29 25.42 94.17 21.24 99.29 C 20.50 100.47 19.08 100.69 17.88 101.15 C 16.23 98.38 16.48 95.08 16.05 92.00 C 15.33 86.21 13.82 80.57 12.49 74.91 C 11.30 75.50 10.11 76.11 8.94 76.73 C 7.80 76.06 6.40 75.58 5.85 74.27 C 4.12 70.74 2.79 66.90 2.49 62.96 C 2.30 60.71 4.17 59.22 5.72 57.96 C 5.96 54.39 4.95 51.04 2.98 48.10 C 0.69 41.74 -0.71 34.69 0.78 27.99 C 2.95 21.29 9.50 17.10 15.81 14.80 M 12.07 19.02 C 7.55 21.96 3.03 26.28 2.93 32.05 C 2.95 38.90 4.24 46.11 8.23 51.82 C 8.06 53.46 7.89 55.10 7.72 56.74 C 11.65 57.18 15.95 52.15 19.30 55.75 C 22.97 59.32 22.66 65.22 19.48 69.01 C 17.95 70.26 16.47 71.57 15.05 72.96 C 16.26 77.54 17.39 82.14 18.38 86.78 C 18.82 89.92 19.24 93.06 19.50 96.22 C 21.94 94.65 21.97 91.38 22.68 88.86 C 23.51 83.56 24.01 78.22 24.95 72.93 C 23.74 72.39 21.46 71.96 21.93 70.12 C 22.60 66.18 22.50 61.34 26.34 59.00 C 25.97 57.89 25.59 56.77 25.21 55.66 C 29.13 54.84 33.42 54.29 36.48 51.43 C 43.59 44.88 45.46 33.06 39.90 24.97 C 37.06 20.84 32.12 18.94 27.37 18.05 C 22.36 16.96 16.77 16.68 12.07 19.02 M 5.37 62.00 C 5.31 64.54 6.04 67.06 7.24 69.28 C 10.84 70.93 13.24 66.54 15.89 64.87 C 14.61 66.31 12.85 67.42 12.16 69.29 C 10.40 70.05 8.91 71.26 7.50 72.53 C 11.32 73.41 13.74 69.41 16.46 67.40 C 19.69 64.99 19.26 60.45 17.12 57.47 C 13.03 57.96 8.02 58.45 5.37 62.00 M 25.70 63.36 C 25.57 65.47 25.28 67.57 24.42 69.52 C 26.53 69.43 27.60 67.56 28.74 66.07 C 28.25 65.22 27.76 64.37 27.27 63.52 C 26.88 63.48 26.09 63.40 25.70 63.36 Z" />
<path fill="#b06e6c" opacity="1.00" d=" M 12.07 19.02 C 16.77 16.68 22.36 16.96 27.37 18.05 C 28.04 20.60 28.70 23.16 29.35 25.71 C 25.98 24.30 21.89 24.21 19.23 27.06 C 23.78 27.28 29.14 27.02 32.07 31.26 C 31.90 33.62 31.99 36.00 32.32 38.35 C 26.70 39.89 19.12 40.63 15.36 35.14 C 15.58 34.37 16.01 32.83 16.23 32.06 C 12.30 33.93 12.64 39.36 14.54 42.58 C 15.95 45.02 18.50 46.48 21.11 47.31 C 21.65 48.33 22.19 49.36 22.74 50.38 C 18.16 52.32 13.07 51.60 8.23 51.82 C 4.24 46.11 2.95 38.90 2.93 32.05 C 3.03 26.28 7.55 21.96 12.07 19.02 Z" />
<path fill="#7a354c" opacity="1.00" d=" M 27.37 18.05 C 32.12 18.94 37.06 20.84 39.90 24.97 C 45.46 33.06 43.59 44.88 36.48 51.43 C 33.42 54.29 29.13 54.84 25.21 55.66 C 25.59 56.77 25.97 57.89 26.34 59.00 C 22.50 61.34 22.60 66.18 21.93 70.12 C 21.46 71.96 23.74 72.39 24.95 72.93 C 24.01 78.22 23.51 83.56 22.68 88.86 C 21.97 91.38 21.94 94.65 19.50 96.22 C 19.24 93.06 18.82 89.92 18.38 86.78 C 20.56 83.24 20.14 79.00 20.34 75.04 C 20.42 72.99 20.53 70.86 19.48 69.01 C 22.66 65.22 22.97 59.32 19.30 55.75 C 15.95 52.15 11.65 57.18 7.72 56.74 C 7.89 55.10 8.06 53.46 8.23 51.82 C 13.07 51.60 18.16 52.32 22.74 50.38 C 22.19 49.36 21.65 48.33 21.11 47.31 C 26.56 47.82 33.39 46.65 36.15 41.32 C 38.48 35.26 34.81 28.58 29.35 25.71 C 28.70 23.16 28.04 20.60 27.37 18.05 Z" />
<path fill="#000000" opacity="1.00" d=" M 19.23 27.06 C 21.89 24.21 25.98 24.30 29.35 25.71 C 34.81 28.58 38.48 35.26 36.15 41.32 C 33.39 46.65 26.56 47.82 21.11 47.31 C 18.50 46.48 15.95 45.02 14.54 42.58 C 12.64 39.36 12.30 33.93 16.23 32.06 C 16.01 32.83 15.58 34.37 15.36 35.14 C 14.25 38.29 15.31 42.04 18.08 43.97 C 22.42 46.95 28.65 45.86 32.59 42.70 C 36.11 39.75 34.60 34.35 32.07 31.26 C 29.14 27.02 23.78 27.28 19.23 27.06 Z" />
<path fill="#8c4756" opacity="1.00" d=" M 32.07 31.26 C 34.60 34.35 36.11 39.75 32.59 42.70 C 28.65 45.86 22.42 46.95 18.08 43.97 C 15.31 42.04 14.25 38.29 15.36 35.14 C 19.12 40.63 26.70 39.89 32.32 38.35 C 31.99 36.00 31.90 33.62 32.07 31.26 Z" />
<path fill="#000000" opacity="1.00" d=" M 51.59 59.46 C 59.55 50.81 71.53 46.94 83.06 46.75 C 91.07 46.79 99.70 49.71 104.27 56.67 C 109.80 65.16 110.11 76.03 108.23 85.70 C 108.92 85.65 110.31 85.56 111.00 85.51 L 111.00 93.60 C 107.04 94.25 103.00 94.18 99.05 94.85 C 87.97 97.78 76.36 98.00 64.96 97.50 C 60.09 96.90 54.89 96.73 50.54 94.24 C 45.61 90.50 42.84 84.13 43.20 77.98 C 43.11 70.93 47.02 64.55 51.59 59.46 M 58.02 58.10 C 56.55 59.20 55.26 60.52 53.94 61.79 C 47.13 68.50 43.61 79.52 48.95 88.17 C 49.41 89.00 49.86 89.82 50.33 90.65 C 53.77 93.75 58.79 93.09 62.99 94.20 C 68.75 94.11 74.66 94.99 80.33 93.70 L 81.80 94.15 C 89.01 93.71 96.35 93.01 103.06 90.14 C 103.53 89.23 104.00 88.32 104.46 87.40 L 104.26 87.11 C 105.84 82.93 105.84 78.40 105.73 74.00 C 105.48 67.45 103.86 60.63 99.39 55.63 C 96.87 52.42 92.65 51.58 88.90 50.65 C 78.21 49.07 66.65 51.40 58.02 58.10 Z" />
<path fill="#ffac73" opacity="1.00" d=" M 58.02 58.10 C 66.65 51.40 78.21 49.07 88.90 50.65 C 92.65 51.58 96.87 52.42 99.39 55.63 C 103.86 60.63 105.48 67.45 105.73 74.00 C 105.84 78.40 105.84 82.93 104.26 87.11 C 102.71 85.76 103.31 83.66 103.29 81.91 C 103.96 73.43 103.14 64.17 97.76 57.22 C 97.64 57.01 97.38 56.60 97.26 56.40 C 96.86 57.00 96.08 58.22 95.69 58.83 C 92.75 57.06 89.66 55.08 86.06 55.36 C 78.75 55.56 70.63 54.08 64.22 58.51 C 62.30 57.40 60.09 57.57 58.02 58.10 Z" />
<path fill="#cc6c62" opacity="1.00" d=" M 64.22 58.51 C 70.63 54.08 78.75 55.56 86.06 55.36 C 89.66 55.08 92.75 57.06 95.69 58.83 C 96.08 58.22 96.86 57.00 97.26 56.40 C 97.38 56.60 97.64 57.01 97.76 57.22 C 95.60 64.89 94.13 72.83 90.15 79.84 L 89.66 79.63 C 85.53 78.37 81.23 79.39 77.04 79.60 C 70.07 80.07 62.69 80.18 56.63 84.11 C 55.05 84.36 53.47 84.52 51.89 84.68 C 48.97 78.20 49.23 70.18 54.34 64.84 C 55.46 65.85 56.68 66.76 57.90 67.65 C 61.69 66.54 68.04 63.18 64.22 58.51 M 70.53 62.53 C 70.40 63.83 69.56 66.13 71.35 66.64 C 73.03 67.46 75.05 65.59 74.32 63.85 C 73.77 62.09 71.89 62.69 70.53 62.53 Z" />
<path fill="#feffbf" opacity="1.00" d=" M 58.02 58.10 C 60.09 57.57 62.30 57.40 64.22 58.51 C 68.04 63.18 61.69 66.54 57.90 67.65 C 56.68 66.76 55.46 65.85 54.34 64.84 C 54.19 63.82 54.06 62.81 53.94 61.79 C 55.26 60.52 56.55 59.20 58.02 58.10 Z" />
<path fill="#ffab72" opacity="1.00" d=" M 5.37 62.00 C 8.02 58.45 13.03 57.96 17.12 57.47 C 19.26 60.45 19.69 64.99 16.46 67.40 C 13.74 69.41 11.32 73.41 7.50 72.53 C 8.91 71.26 10.40 70.05 12.16 69.29 C 12.85 67.42 14.61 66.31 15.89 64.87 C 13.24 66.54 10.84 70.93 7.24 69.28 C 6.04 67.06 5.31 64.54 5.37 62.00 Z" />
<path fill="#a34149" opacity="1.00" d=" M 90.15 79.84 C 94.13 72.83 95.60 64.89 97.76 57.22 C 103.14 64.17 103.96 73.43 103.29 81.91 C 103.31 83.66 102.71 85.76 104.26 87.11 L 104.46 87.40 C 104.00 88.32 103.53 89.23 103.06 90.14 C 96.35 93.01 89.01 93.71 81.80 94.15 L 80.33 93.70 C 87.37 91.74 94.98 91.98 101.67 88.71 C 101.71 88.30 101.78 87.49 101.82 87.08 C 101.91 85.12 101.92 83.16 101.94 81.20 C 100.03 82.58 98.10 83.93 96.17 85.26 C 94.39 83.22 92.50 81.23 90.15 79.84 Z" />
<path fill="#ee956d" opacity="1.00" d=" M 48.95 88.17 C 43.61 79.52 47.13 68.50 53.94 61.79 C 54.06 62.81 54.19 63.82 54.34 64.84 C 49.23 70.18 48.97 78.20 51.89 84.68 C 50.90 85.84 49.93 87.00 48.95 88.17 Z" />
<path fill="#ffffc4" opacity="1.00" d=" M 70.53 62.53 C 71.89 62.69 73.77 62.09 74.32 63.85 C 75.05 65.59 73.03 67.46 71.35 66.64 C 69.56 66.13 70.40 63.83 70.53 62.53 Z" />
<path fill="#ffbb7d" opacity="1.00" d=" M 25.70 63.36 C 26.09 63.40 26.88 63.48 27.27 63.52 C 27.76 64.37 28.25 65.22 28.74 66.07 C 27.60 67.56 26.53 69.43 24.42 69.52 C 25.28 67.57 25.57 65.47 25.70 63.36 Z" />
<path fill="#a15e63" opacity="1.00" d=" M 15.05 72.96 C 16.47 71.57 17.95 70.26 19.48 69.01 C 20.53 70.86 20.42 72.99 20.34 75.04 C 20.14 79.00 20.56 83.24 18.38 86.78 C 17.39 82.14 16.26 77.54 15.05 72.96 Z" />
<path fill="#a43955" opacity="1.00" d=" M 77.04 79.60 C 81.23 79.39 85.53 78.37 89.66 79.63 C 88.46 80.75 87.45 82.20 85.89 82.85 C 79.56 85.22 72.72 85.33 66.10 86.25 C 64.49 86.36 64.21 88.34 63.35 89.35 C 61.80 89.07 60.19 88.88 58.74 88.20 C 57.58 87.15 57.32 85.46 56.63 84.11 C 62.69 80.18 70.07 80.07 77.04 79.60 Z" />
<path fill="#922b48" opacity="1.00" d=" M 89.66 79.63 L 90.15 79.84 C 92.50 81.23 94.39 83.22 96.17 85.26 C 98.10 83.93 100.03 82.58 101.94 81.20 C 101.92 83.16 101.91 85.12 101.82 87.08 C 94.66 87.87 87.60 89.37 80.41 89.96 C 74.72 89.83 69.01 90.07 63.35 89.35 C 64.21 88.34 64.49 86.36 66.10 86.25 C 72.72 85.33 79.56 85.22 85.89 82.85 C 87.45 82.20 88.46 80.75 89.66 79.63 Z" />
<path fill="#bf5c5b" opacity="1.00" d=" M 51.89 84.68 C 53.47 84.52 55.05 84.36 56.63 84.11 C 57.32 85.46 57.58 87.15 58.74 88.20 C 60.19 88.88 61.80 89.07 63.35 89.35 C 69.01 90.07 74.72 89.83 80.41 89.96 C 72.80 91.60 64.97 90.58 57.36 89.52 C 54.94 89.14 52.58 89.88 50.33 90.65 C 49.86 89.82 49.41 89.00 48.95 88.17 C 49.93 87.00 50.90 85.84 51.89 84.68 Z" />
<path fill="#df7d68" opacity="1.00" d=" M 80.41 89.96 C 87.60 89.37 94.66 87.87 101.82 87.08 C 101.78 87.49 101.71 88.30 101.67 88.71 C 94.98 91.98 87.37 91.74 80.33 93.70 C 74.66 94.99 68.75 94.11 62.99 94.20 C 58.79 93.09 53.77 93.75 50.33 90.65 C 52.58 89.88 54.94 89.14 57.36 89.52 C 64.97 90.58 72.80 91.60 80.41 89.96 Z" />
</svg>
