<?xml version="1.0" encoding="UTF-8" ?>
<!DOCTYPE svg PUBLIC "-//W3C//DTD SVG 1.1//EN" "http://www.w3.org/Graphics/SVG/1.1/DTD/svg11.dtd">
<svg width="111pt" height="111pt" viewBox="0 0 111 111" version="1.1" xmlns="http://www.w3.org/2000/svg">
<path fill="#000000" opacity="1.00" d=" M 3.44 41.51 C -2.74 33.22 4.99 20.02 15.01 20.13 C 19.04 20.19 23.56 19.45 27.00 22.06 C 32.33 25.87 36.63 32.25 35.66 39.06 C 35.35 42.07 32.63 43.87 30.45 45.57 C 30.60 47.42 30.63 49.28 30.53 51.14 C 32.26 52.15 34.15 52.96 35.57 54.41 C 36.08 58.26 31.18 59.45 28.63 61.13 C 28.58 62.73 28.54 64.33 28.51 65.94 C 31.17 68.87 31.65 72.86 31.70 76.65 C 30.23 76.66 28.76 76.67 27.29 76.68 C 27.38 79.62 27.71 82.55 28.55 85.38 C 27.46 86.90 26.01 88.09 24.41 89.04 C 23.53 94.45 23.55 99.96 23.10 105.42 C 15.37 105.55 7.67 104.90 0.00 103.98 L 0.00 99.71 C 5.73 99.48 11.46 99.54 17.19 99.73 C 15.36 96.27 12.80 93.01 12.12 89.08 C 12.78 87.87 13.80 86.92 14.69 85.90 C 14.52 84.62 14.34 83.33 14.16 82.05 C 8.21 79.30 6.61 71.88 7.78 65.97 C 8.17 63.50 12.31 62.66 11.42 60.01 C 7.75 57.31 3.39 55.66 0.00 52.55 L 0.00 51.04 C 0.13 50.67 0.39 49.94 0.53 49.57 C 2.12 49.01 3.74 48.52 5.35 48.00 C 4.99 45.77 4.93 43.34 3.44 41.51 M 4.16 34.15 C 3.52 39.21 7.70 42.71 12.08 44.10 C 12.42 46.14 11.57 48.76 13.29 50.32 C 16.33 51.76 20.57 53.24 23.69 51.26 L 24.04 51.67 C 24.27 48.69 24.13 45.46 26.28 43.09 L 26.80 43.94 C 28.93 42.72 30.88 41.21 32.49 39.36 C 33.63 33.09 29.55 27.04 24.31 23.98 C 16.48 19.61 4.50 24.58 4.16 34.15 M 7.40 45.27 C 7.53 46.26 7.66 47.25 7.79 48.24 C 8.59 48.23 9.40 48.23 10.20 48.22 C 10.25 47.41 10.29 46.60 10.34 45.78 C 9.36 45.61 8.38 45.44 7.40 45.27 M 26.59 47.57 C 26.52 48.13 26.38 49.24 26.31 49.80 C 26.88 49.77 28.04 49.72 28.62 49.70 C 28.61 49.16 28.59 48.08 28.58 47.55 C 28.08 47.55 27.08 47.56 26.59 47.57 M 4.74 50.82 C 4.66 51.19 4.52 51.92 4.44 52.29 C 7.53 53.79 10.44 55.64 13.56 57.09 C 13.57 58.70 13.57 60.32 13.55 61.94 C 15.47 62.17 17.43 62.24 19.31 62.70 C 21.70 63.45 22.05 66.19 22.86 68.18 C 23.33 66.42 24.95 65.27 25.78 63.68 C 25.28 62.78 24.78 61.88 24.28 60.98 C 25.04 60.09 25.80 59.19 26.56 58.29 L 27.09 58.46 C 28.71 57.67 30.35 56.89 31.88 55.92 C 31.83 53.47 28.52 53.47 26.94 52.29 C 25.67 53.92 23.92 55.13 21.81 55.24 C 17.37 55.39 12.20 54.63 9.61 50.56 C 7.99 50.64 6.36 50.73 4.74 50.82 M 10.38 70.33 L 11.18 70.65 C 11.35 72.16 11.40 73.71 11.78 75.19 C 13.03 78.20 16.35 79.59 19.41 79.79 C 19.65 75.83 19.89 71.84 19.43 67.89 C 19.39 67.37 19.30 66.33 19.26 65.82 C 16.86 64.93 14.36 64.41 11.80 64.34 C 11.19 66.30 10.71 68.30 10.38 70.33 M 25.55 69.43 C 25.47 70.12 25.32 71.49 25.24 72.18 C 26.36 72.69 27.50 73.19 28.62 73.71 C 28.25 72.18 27.84 70.65 27.43 69.12 C 26.96 69.20 26.02 69.35 25.55 69.43 M 22.65 74.21 C 22.42 76.93 23.31 80.15 21.44 82.43 C 20.45 83.70 18.77 83.33 17.38 83.45 C 17.46 84.66 17.54 85.88 17.61 87.09 C 16.71 88.04 15.80 88.99 14.88 89.93 C 17.27 93.47 17.94 98.11 21.10 101.06 C 21.51 96.56 21.03 92.01 21.55 87.53 C 22.74 86.35 24.12 85.37 25.47 84.39 C 23.92 81.61 24.92 78.51 25.56 75.65 C 24.56 75.23 23.59 74.75 22.65 74.21 Z" />
<path fill="#fffbe6" opacity="1.00" d=" M 4.16 34.15 C 4.50 24.58 16.48 19.61 24.31 23.98 C 29.55 27.04 33.63 33.09 32.49 39.36 C 30.88 41.21 28.93 42.72 26.80 43.94 L 26.28 43.09 C 25.00 41.63 22.10 39.24 20.75 41.94 C 21.13 42.80 21.58 43.63 21.96 44.50 C 21.38 46.15 20.86 48.09 22.06 49.62 C 22.47 50.03 23.28 50.85 23.69 51.26 C 21.56 51.04 19.42 50.95 17.28 50.88 C 17.43 50.60 17.73 50.04 17.88 49.76 C 19.76 46.81 20.43 43.33 20.45 39.87 C 19.84 39.70 18.63 39.36 18.03 39.19 C 17.36 38.87 16.03 38.24 15.37 37.92 C 16.54 36.89 17.02 35.25 16.42 33.77 C 15.58 35.00 14.75 36.23 13.93 37.48 C 13.40 37.46 12.32 37.44 11.78 37.43 C 13.56 35.67 16.14 33.86 15.74 31.01 C 16.20 27.63 11.45 26.02 9.32 28.26 C 7.88 29.44 7.32 31.26 6.94 33.00 C 6.24 33.29 4.85 33.86 4.16 34.15 M 22.56 29.66 C 22.42 33.27 22.19 38.33 26.70 39.29 C 26.60 38.75 26.41 37.66 26.31 37.11 C 27.32 37.17 29.33 37.29 30.34 37.36 C 31.30 33.27 28.75 28.90 24.94 27.31 C 24.15 28.10 23.35 28.88 22.56 29.66 Z" />
<path fill="#000000" opacity="1.00" d=" M 9.32 28.26 C 11.45 26.02 16.20 27.63 15.74 31.01 C 16.14 33.86 13.56 35.67 11.78 37.43 C 8.94 37.79 6.63 35.96 6.94 33.00 C 7.32 31.26 7.88 29.44 9.32 28.26 Z" />
<path fill="#000000" opacity="1.00" d=" M 22.56 29.66 C 23.35 28.88 24.15 28.10 24.94 27.31 C 28.75 28.90 31.30 33.27 30.34 37.36 C 29.33 37.29 27.32 37.17 26.31 37.11 C 26.41 37.66 26.60 38.75 26.70 39.29 C 22.19 38.33 22.42 33.27 22.56 29.66 Z" />
<path fill="#bfd9e1" opacity="1.00" d=" M 4.16 34.15 C 4.85 33.86 6.24 33.29 6.94 33.00 C 6.63 35.96 8.94 37.79 11.78 37.43 C 12.32 37.44 13.40 37.46 13.93 37.48 C 13.71 38.06 13.52 38.65 13.33 39.25 C 13.84 38.92 14.86 38.25 15.37 37.92 C 16.03 38.24 17.36 38.87 18.03 39.19 C 17.65 41.22 17.31 43.26 16.98 45.29 C 16.50 44.77 15.53 43.73 15.05 43.21 C 14.80 43.62 14.28 44.45 14.02 44.87 C 13.54 44.68 12.57 44.29 12.08 44.10 C 7.70 42.71 3.52 39.21 4.16 34.15 Z" />
<path fill="#000000" opacity="1.00" d=" M 13.93 37.48 C 14.75 36.23 15.58 35.00 16.42 33.77 C 17.02 35.25 16.54 36.89 15.37 37.92 C 14.86 38.25 13.84 38.92 13.33 39.25 C 13.52 38.65 13.71 38.06 13.93 37.48 Z" />
<path fill="#303c43" opacity="1.00" d=" M 18.03 39.19 C 18.63 39.36 19.84 39.70 20.45 39.87 C 20.43 43.33 19.76 46.81 17.88 49.76 C 17.61 49.15 17.09 47.93 16.82 47.32 C 15.54 47.30 14.26 47.41 13.00 47.66 C 13.07 48.33 13.22 49.66 13.29 50.32 C 11.57 48.76 12.42 46.14 12.08 44.10 C 12.57 44.29 13.54 44.68 14.02 44.87 C 14.28 44.45 14.80 43.62 15.05 43.21 C 15.53 43.73 16.50 44.77 16.98 45.29 C 17.31 43.26 17.65 41.22 18.03 39.19 Z" />
<path fill="#dfe9e1" opacity="1.00" d=" M 20.75 41.94 C 22.10 39.24 25.00 41.63 26.28 43.09 C 24.13 45.46 24.27 48.69 24.04 51.67 L 23.69 51.26 C 23.28 50.85 22.47 50.03 22.06 49.62 C 22.27 47.90 22.24 46.19 21.96 44.50 C 21.58 43.63 21.13 42.80 20.75 41.94 Z" />
<path fill="#fffbe6" opacity="1.00" d=" M 7.40 45.27 C 8.38 45.44 9.36 45.61 10.34 45.78 C 10.29 46.60 10.25 47.41 10.20 48.22 C 9.40 48.23 8.59 48.23 7.79 48.24 C 7.66 47.25 7.53 46.26 7.40 45.27 Z" />
<path fill="#000000" opacity="1.00" d=" M 22.06 49.62 C 20.86 48.09 21.38 46.15 21.96 44.50 C 22.24 46.19 22.27 47.90 22.06 49.62 Z" />
<path fill="#bfd9e1" opacity="1.00" d=" M 13.00 47.66 C 14.26 47.41 15.54 47.30 16.82 47.32 C 17.09 47.93 17.61 49.15 17.88 49.76 C 17.73 50.04 17.43 50.60 17.28 50.88 C 19.42 50.95 21.56 51.04 23.69 51.26 C 20.57 53.24 16.33 51.76 13.29 50.32 C 13.22 49.66 13.07 48.33 13.00 47.66 Z" />
<path fill="#b6726e" opacity="1.00" d=" M 26.59 47.57 C 27.08 47.56 28.08 47.55 28.58 47.55 C 28.59 48.08 28.61 49.16 28.62 49.70 C 28.04 49.72 26.88 49.77 26.31 49.80 C 26.38 49.24 26.52 48.13 26.59 47.57 Z" />
<path fill="#b6726e" opacity="1.00" d=" M 4.74 50.82 C 6.36 50.73 7.99 50.64 9.61 50.56 C 12.20 54.63 17.37 55.39 21.81 55.24 C 23.92 55.13 25.67 53.92 26.94 52.29 C 28.52 53.47 31.83 53.47 31.88 55.92 C 30.35 56.89 28.71 57.67 27.09 58.46 L 26.56 58.29 C 22.41 56.63 17.89 57.51 13.56 57.09 C 10.44 55.64 7.53 53.79 4.44 52.29 C 4.52 51.92 4.66 51.19 4.74 50.82 Z" />
<path fill="#904859" opacity="1.00" d=" M 13.56 57.09 C 17.89 57.51 22.41 56.63 26.56 58.29 C 25.80 59.19 25.04 60.09 24.28 60.98 C 24.78 61.88 25.28 62.78 25.78 63.68 C 24.95 65.27 23.33 66.42 22.86 68.18 C 22.05 66.19 21.70 63.45 19.31 62.70 C 17.43 62.24 15.47 62.17 13.55 61.94 C 13.57 60.32 13.57 58.70 13.56 57.09 Z" />
<path fill="#000000" opacity="1.00" d=" M 53.11 61.32 C 61.67 57.17 71.66 56.72 80.94 58.16 C 89.91 58.78 98.99 61.45 106.30 66.81 C 108.19 68.48 110.97 70.12 110.81 72.98 C 110.82 81.40 109.50 89.74 108.30 98.06 C 107.73 101.85 105.45 105.38 102.12 107.32 C 97.60 110.06 92.20 110.79 87.00 110.86 C 78.32 110.97 69.54 110.78 61.04 108.83 C 52.16 106.42 42.66 107.47 33.91 104.41 C 31.52 103.65 29.54 102.04 28.13 99.98 C 29.20 98.98 30.38 98.06 31.83 97.70 C 36.86 97.53 41.90 97.60 46.93 97.66 C 47.62 90.51 47.60 83.31 48.12 76.14 C 48.82 71.11 47.73 64.04 53.11 61.32 M 58.11 63.15 C 56.99 63.31 55.97 63.71 55.06 64.34 C 54.73 64.35 54.08 64.36 53.76 64.37 C 53.06 65.43 52.41 66.52 51.79 67.63 C 51.75 77.51 49.69 87.25 49.70 97.11 C 49.67 97.87 49.63 99.40 49.60 100.16 C 54.07 104.22 60.19 105.38 65.96 106.25 C 74.40 107.06 83.06 108.43 91.45 106.84 C 96.37 107.04 100.87 104.57 104.45 101.40 C 104.74 99.90 105.05 98.40 105.28 96.89 C 106.06 88.77 107.72 80.71 107.49 72.51 C 105.78 70.92 104.24 68.72 101.84 68.19 C 94.89 63.58 86.35 61.37 78.06 61.53 C 77.73 61.53 77.06 61.53 76.73 61.53 C 72.17 61.13 67.58 61.29 63.03 61.79 C 61.39 62.23 59.73 62.63 58.11 63.15 Z" />
<path fill="#dcb3ff" opacity="1.00" d=" M 58.11 63.15 C 59.73 62.63 61.39 62.23 63.03 61.79 C 67.58 61.29 72.17 61.13 76.73 61.53 C 73.85 63.74 70.14 63.88 66.69 64.37 C 62.83 65.15 57.46 62.99 54.89 66.87 C 54.37 77.13 53.24 87.36 52.41 97.61 C 51.51 97.44 50.60 97.27 49.70 97.11 C 49.69 87.25 51.75 77.51 51.79 67.63 C 52.41 66.52 53.06 65.43 53.76 64.37 C 54.08 64.36 54.73 64.35 55.06 64.34 C 55.97 63.71 56.99 63.31 58.11 63.15 Z" />
<path fill="#a792be" opacity="1.00" d=" M 76.73 61.53 C 77.06 61.53 77.73 61.53 78.06 61.53 C 81.68 64.82 86.92 64.12 91.21 65.93 C 94.71 66.83 98.11 69.78 101.84 68.19 C 104.24 68.72 105.78 70.92 107.49 72.51 C 107.72 80.71 106.06 88.77 105.28 96.89 C 104.53 97.82 103.73 98.70 102.95 99.60 C 101.77 93.02 103.58 86.50 103.54 79.92 C 103.67 79.40 103.92 78.34 104.05 77.82 C 103.14 76.60 102.21 75.38 101.27 74.18 L 101.54 73.37 C 101.62 73.10 101.79 72.56 101.87 72.28 C 101.59 72.19 101.04 72.01 100.76 71.92 C 95.41 69.59 89.42 71.50 83.82 70.35 C 85.99 70.27 88.17 70.05 90.33 69.79 C 85.87 67.66 80.93 66.97 76.23 65.58 C 73.13 64.70 69.90 64.32 66.69 64.37 C 70.14 63.88 73.85 63.74 76.73 61.53 Z" />
<path fill="#eae1ff" opacity="1.00" d=" M 78.06 61.53 C 86.35 61.37 94.89 63.58 101.84 68.19 C 98.11 69.78 94.71 66.83 91.21 65.93 C 86.92 64.12 81.68 64.82 78.06 61.53 Z" />
<path fill="#a592bb" opacity="1.00" d=" M 10.38 70.33 C 10.71 68.30 11.19 66.30 11.80 64.34 C 14.36 64.41 16.86 64.93 19.26 65.82 C 19.30 66.33 19.39 67.37 19.43 67.89 C 19.47 69.98 19.38 72.08 19.30 74.18 C 16.61 72.96 13.91 71.76 11.18 70.65 L 10.38 70.33 Z" />
<path fill="#806ba6" opacity="1.00" d=" M 54.89 66.87 C 57.46 62.99 62.83 65.15 66.69 64.37 C 69.90 64.32 73.13 64.70 76.23 65.58 C 80.93 66.97 85.87 67.66 90.33 69.79 C 88.17 70.05 85.99 70.27 83.82 70.35 C 78.30 69.83 72.82 68.97 67.28 68.74 C 68.97 70.70 71.58 70.99 73.97 71.35 C 82.84 72.48 91.87 73.50 100.76 71.92 C 101.04 72.01 101.59 72.19 101.87 72.28 C 101.79 72.56 101.62 73.10 101.54 73.37 C 92.41 73.42 83.22 73.94 74.17 72.27 C 69.85 71.63 65.64 70.25 61.24 70.12 C 63.03 72.63 66.19 73.07 68.99 73.68 C 73.29 74.62 77.71 74.78 82.10 74.74 C 82.26 74.98 82.60 75.45 82.77 75.69 C 81.34 75.80 79.91 75.90 78.48 75.99 C 83.81 78.37 89.78 77.72 95.42 78.60 C 91.86 81.54 86.82 79.63 82.60 80.08 C 82.89 83.18 82.79 86.31 82.14 89.36 C 72.92 89.13 63.11 89.15 54.94 94.01 C 53.18 94.86 53.37 97.27 54.20 98.74 C 55.56 100.97 58.28 101.71 60.66 102.31 C 71.38 104.41 82.36 104.73 93.24 104.10 C 91.85 104.53 90.48 105.02 89.10 105.51 C 89.69 105.84 90.87 106.50 91.45 106.84 C 83.06 108.43 74.40 107.06 65.96 106.25 C 60.19 105.38 54.07 104.22 49.60 100.16 C 49.63 99.40 49.67 97.87 49.70 97.11 C 50.60 97.27 51.51 97.44 52.41 97.61 C 53.24 87.36 54.37 77.13 54.89 66.87 Z" />
<path fill="#69539e" opacity="1.00" d=" M 19.43 67.89 C 19.89 71.84 19.65 75.83 19.41 79.79 C 16.35 79.59 13.03 78.20 11.78 75.19 C 11.40 73.71 11.35 72.16 11.18 70.65 C 13.91 71.76 16.61 72.96 19.30 74.18 C 19.38 72.08 19.47 69.98 19.43 67.89 Z" />
<path fill="#ae95d9" opacity="1.00" d=" M 25.55 69.43 C 26.02 69.35 26.96 69.20 27.43 69.12 C 27.84 70.65 28.25 72.18 28.62 73.71 C 27.50 73.19 26.36 72.69 25.24 72.18 C 25.32 71.49 25.47 70.12 25.55 69.43 Z" />
<path fill="#dcb3ff" opacity="1.00" d=" M 67.28 68.74 C 72.82 68.97 78.30 69.83 83.82 70.35 C 89.42 71.50 95.41 69.59 100.76 71.92 C 91.87 73.50 82.84 72.48 73.97 71.35 C 71.58 70.99 68.97 70.70 67.28 68.74 Z" />
<path fill="#000000" opacity="1.00" d=" M 61.24 70.12 C 65.64 70.25 69.85 71.63 74.17 72.27 C 83.22 73.94 92.41 73.42 101.54 73.37 L 101.27 74.18 C 95.29 76.10 88.95 75.57 82.77 75.69 C 82.60 75.45 82.26 74.98 82.10 74.74 C 77.71 74.78 73.29 74.62 68.99 73.68 C 66.19 73.07 63.03 72.63 61.24 70.12 Z" />
<path fill="#944b5c" opacity="1.00" d=" M 22.65 74.21 C 23.59 74.75 24.56 75.23 25.56 75.65 C 24.92 78.51 23.92 81.61 25.47 84.39 C 24.12 85.37 22.74 86.35 21.55 87.53 C 21.03 92.01 21.51 96.56 21.10 101.06 C 17.94 98.11 17.27 93.47 14.88 89.93 C 15.80 88.99 16.71 88.04 17.61 87.09 C 17.54 85.88 17.46 84.66 17.38 83.45 C 18.77 83.33 20.45 83.70 21.44 82.43 C 23.31 80.15 22.42 76.93 22.65 74.21 Z" />
<path fill="#000000" opacity="0.49" d=" M 47.53 73.94 C 47.68 74.49 47.97 75.59 48.12 76.14 C 47.60 83.31 47.62 90.51 46.93 97.66 C 41.90 97.60 36.86 97.53 31.83 97.70 C 36.55 97.01 41.34 97.26 46.10 97.08 C 46.80 89.38 46.64 81.63 47.53 73.94 Z" />
<path fill="#eae1ff" opacity="1.00" d=" M 82.77 75.69 C 88.95 75.57 95.29 76.10 101.27 74.18 C 102.21 75.38 103.14 76.60 104.05 77.82 C 103.92 78.34 103.67 79.40 103.54 79.92 C 100.76 80.49 97.01 81.92 95.42 78.60 C 89.78 77.72 83.81 78.37 78.48 75.99 C 79.91 75.90 81.34 75.80 82.77 75.69 Z" />
<path fill="#8773aa" opacity="1.00" d=" M 95.42 78.60 C 97.01 81.92 100.76 80.49 103.54 79.92 C 103.58 86.50 101.77 93.02 102.95 99.60 C 103.73 98.70 104.53 97.82 105.28 96.89 C 105.05 98.40 104.74 99.90 104.45 101.40 C 100.87 104.57 96.37 107.04 91.45 106.84 C 90.87 106.50 89.69 105.84 89.10 105.51 C 90.48 105.02 91.85 104.53 93.24 104.10 C 96.57 103.09 101.75 102.53 102.02 98.11 C 100.91 95.15 97.51 94.20 94.85 93.09 C 90.67 91.68 86.64 89.47 82.14 89.36 C 82.79 86.31 82.89 83.18 82.60 80.08 C 86.82 79.63 91.86 81.54 95.42 78.60 Z" />
<path fill="#000000" opacity="0.42" d=" M 23.10 105.42 C 23.55 99.96 23.53 94.45 24.41 89.04 C 24.48 94.53 25.18 100.29 23.36 105.58 C 23.16 105.80 22.78 106.25 22.58 106.47 C 15.10 105.26 7.50 105.88 0.00 104.92 L 0.00 103.98 C 7.67 104.90 15.37 105.55 23.10 105.42 Z" />
<path fill="#5b4493" opacity="1.00" d=" M 54.94 94.01 C 63.11 89.15 72.92 89.13 82.14 89.36 C 86.64 89.47 90.67 91.68 94.85 93.09 C 97.51 94.20 100.91 95.15 102.02 98.11 C 101.75 102.53 96.57 103.09 93.24 104.10 C 82.36 104.73 71.38 104.41 60.66 102.31 C 58.28 101.71 55.56 100.97 54.20 98.74 C 53.37 97.27 53.18 94.86 54.94 94.01 Z" />
</svg>
