<?xml version="1.0" encoding="UTF-8" ?>
<!DOCTYPE svg PUBLIC "-//W3C//DTD SVG 1.1//EN" "http://www.w3.org/Graphics/SVG/1.1/DTD/svg11.dtd">
<svg width="111pt" height="111pt" viewBox="0 0 111 111" version="1.1" xmlns="http://www.w3.org/2000/svg">
<path fill="#000000" opacity="1.00" d=" M 21.65 24.68 C 23.30 23.75 24.93 22.21 26.90 22.30 C 30.37 24.30 32.83 27.61 36.01 30.01 C 41.42 34.11 47.26 37.61 53.33 40.64 C 55.14 41.57 57.31 42.66 57.50 44.98 C 58.16 49.99 57.25 55.05 56.72 60.03 C 66.23 56.20 76.90 54.07 86.99 56.82 C 96.96 59.28 107.02 65.35 111.00 75.24 L 111.00 93.59 C 110.91 94.21 110.74 95.47 110.66 96.10 C 106.46 99.06 102.09 102.05 96.95 103.07 C 85.65 105.65 73.78 105.33 62.44 103.18 C 57.07 102.05 52.09 99.45 46.58 98.94 C 41.37 98.51 36.37 96.68 31.17 96.42 C 27.66 97.48 24.75 100.04 21.14 100.78 C 12.51 95.03 5.26 87.04 0.00 78.10 L 0.00 39.80 C 7.22 34.76 14.48 29.78 21.65 24.68 M 14.50 64.87 C 13.72 74.68 15.25 84.56 18.27 93.89 C 18.77 95.66 20.50 96.57 21.72 97.79 C 22.78 97.20 23.85 96.61 24.91 96.03 L 24.74 95.80 C 33.37 91.67 41.92 86.47 47.93 78.86 C 50.59 75.48 52.96 71.56 52.78 67.09 C 54.06 59.47 55.06 51.76 54.83 44.02 C 48.47 41.90 42.77 38.27 37.24 34.55 C 33.07 31.45 29.17 27.98 25.80 24.01 C 18.01 36.08 15.23 50.72 14.50 64.87 M 1.85 41.59 C 2.77 47.41 1.38 53.21 1.55 59.04 C 1.63 64.87 1.53 70.79 2.68 76.52 C 5.78 82.53 10.36 87.73 15.34 92.27 C 13.10 83.37 11.08 74.24 11.81 64.98 C 12.66 52.99 14.69 40.90 19.55 29.83 C 13.86 34.07 7.80 37.75 1.85 41.59 M 56.02 62.79 L 56.36 63.18 C 55.81 67.64 55.80 72.43 53.38 76.39 C 50.69 80.94 47.25 85.06 43.06 88.30 C 46.84 95.18 54.86 98.89 62.39 99.79 C 71.03 102.12 80.11 101.92 88.97 101.38 C 93.94 100.73 99.44 100.77 103.64 97.65 C 105.69 96.09 108.30 94.61 108.79 91.85 C 111.80 82.43 108.05 71.79 99.95 66.19 C 98.17 64.89 96.25 63.82 94.36 62.71 C 88.93 60.23 83.02 58.86 77.05 58.74 C 69.84 58.85 62.95 61.10 56.02 62.79 Z" />
<path fill="#c8d0e0" opacity="1.00" d=" M 14.50 64.87 C 15.23 50.72 18.01 36.08 25.80 24.01 C 29.17 27.98 33.07 31.45 37.24 34.55 C 37.38 35.50 37.52 36.44 37.63 37.39 C 36.09 38.27 34.51 39.08 32.92 39.86 C 34.70 43.05 37.58 45.26 40.94 46.57 C 41.97 45.30 43.03 44.04 44.06 42.77 C 46.13 44.02 48.49 44.98 50.11 46.84 C 51.73 53.48 50.26 60.61 52.78 67.09 C 52.96 71.56 50.59 75.48 47.93 78.86 C 41.92 86.47 33.37 91.67 24.74 95.80 C 20.81 89.60 15.34 83.68 14.92 75.99 C 14.58 72.29 14.50 68.58 14.50 64.87 Z" />
<path fill="#8686ab" opacity="1.00" d=" M 1.85 41.59 C 7.80 37.75 13.86 34.07 19.55 29.83 C 14.69 40.90 12.66 52.99 11.81 64.98 C 11.08 74.24 13.10 83.37 15.34 92.27 C 10.36 87.73 5.78 82.53 2.68 76.52 C 1.53 70.79 1.63 64.87 1.55 59.04 C 1.38 53.21 2.77 47.41 1.85 41.59 Z" />
<path fill="#fff3cb" opacity="1.00" d=" M 37.24 34.55 C 42.77 38.27 48.47 41.90 54.83 44.02 C 55.06 51.76 54.06 59.47 52.78 67.09 C 50.26 60.61 51.73 53.48 50.11 46.84 C 48.49 44.98 46.13 44.02 44.06 42.77 C 43.03 44.04 41.97 45.30 40.94 46.57 C 37.58 45.26 34.70 43.05 32.92 39.86 C 34.51 39.08 36.09 38.27 37.63 37.39 C 37.52 36.44 37.38 35.50 37.24 34.55 Z" />
<path fill="#9decf7" opacity="1.00" d=" M 56.02 62.79 C 62.95 61.10 69.84 58.85 77.05 58.74 C 83.02 58.86 88.93 60.23 94.36 62.71 C 93.08 62.97 91.81 63.21 90.53 63.44 C 79.84 60.34 68.23 60.91 57.78 64.69 C 57.42 64.31 56.71 63.56 56.36 63.18 L 56.02 62.79 Z" />
<path fill="#5994bd" opacity="1.00" d=" M 57.78 64.69 C 68.23 60.91 79.84 60.34 90.53 63.44 C 90.73 67.46 92.66 71.61 97.06 72.28 C 107.12 73.71 109.66 88.01 103.73 95.01 C 102.69 91.82 100.94 88.65 97.62 87.39 C 89.96 83.86 81.36 83.17 73.05 82.58 C 67.79 82.41 62.23 82.09 57.29 84.24 C 54.65 85.22 53.43 89.25 55.91 91.09 C 60.65 94.73 66.87 95.49 72.61 96.42 C 80.12 97.25 87.63 98.58 95.21 98.28 C 87.85 99.12 80.43 98.71 73.04 98.71 C 65.79 98.76 59.08 95.75 52.40 93.33 C 54.32 97.20 58.67 98.35 62.39 99.79 C 54.86 98.89 46.84 95.18 43.06 88.30 C 47.25 85.06 50.69 80.94 53.38 76.39 C 55.80 72.43 55.81 67.64 56.36 63.18 C 56.71 63.56 57.42 64.31 57.78 64.69 M 92.06 73.20 C 90.08 73.57 90.84 76.76 92.78 76.06 C 94.73 75.67 93.98 72.52 92.06 73.20 Z" />
<path fill="#ffffff" opacity="1.00" d=" M 90.53 63.44 C 91.81 63.21 93.08 62.97 94.36 62.71 C 96.25 63.82 98.17 64.89 99.95 66.19 C 100.60 67.97 101.58 69.91 100.73 71.82 C 99.52 72.05 98.29 72.20 97.06 72.28 C 92.66 71.61 90.73 67.46 90.53 63.44 Z" />
<path fill="#a3a7c3" opacity="1.00" d=" M 18.27 93.89 C 15.25 84.56 13.72 74.68 14.50 64.87 C 14.50 68.58 14.58 72.29 14.92 75.99 C 15.34 83.68 20.81 89.60 24.74 95.80 L 24.91 96.03 C 23.85 96.61 22.78 97.20 21.72 97.79 C 20.50 96.57 18.77 95.66 18.27 93.89 Z" />
<path fill="#a0eef4" opacity="1.00" d=" M 99.95 66.19 C 108.05 71.79 111.80 82.43 108.79 91.85 C 108.30 94.61 105.69 96.09 103.64 97.65 C 99.44 100.77 93.94 100.73 88.97 101.38 C 80.11 101.92 71.03 102.12 62.39 99.79 C 58.67 98.35 54.32 97.20 52.40 93.33 C 59.08 95.75 65.79 98.76 73.04 98.71 C 80.43 98.71 87.85 99.12 95.21 98.28 C 98.28 97.94 101.15 96.66 103.73 95.01 C 109.66 88.01 107.12 73.71 97.06 72.28 C 98.29 72.20 99.52 72.05 100.73 71.82 C 101.58 69.91 100.60 67.97 99.95 66.19 Z" />
<path fill="#d1e2ed" opacity="1.00" d=" M 92.06 73.20 C 93.98 72.52 94.73 75.67 92.78 76.06 C 90.84 76.76 90.08 73.57 92.06 73.20 Z" />
<path fill="#30609f" opacity="1.00" d=" M 57.29 84.24 C 62.23 82.09 67.79 82.41 73.05 82.58 C 81.36 83.17 89.96 83.86 97.62 87.39 C 100.94 88.65 102.69 91.82 103.73 95.01 C 101.15 96.66 98.28 97.94 95.21 98.28 C 87.63 98.58 80.12 97.25 72.61 96.42 C 66.87 95.49 60.65 94.73 55.91 91.09 C 53.43 89.25 54.65 85.22 57.29 84.24 Z" />
</svg>
