<?xml version="1.0" encoding="UTF-8" ?>
<!DOCTYPE svg PUBLIC "-//W3C//DTD SVG 1.1//EN" "http://www.w3.org/Graphics/SVG/1.1/DTD/svg11.dtd">
<svg width="111pt" height="111pt" viewBox="0 0 111 111" version="1.1" xmlns="http://www.w3.org/2000/svg">
<path fill="#020201" opacity="1.00" d=" M 72.45 12.58 C 80.00 9.89 88.42 9.80 96.12 11.91 C 102.11 13.47 106.47 18.68 108.82 24.16 C 109.53 28.58 109.69 33.30 108.67 37.68 C 106.02 42.84 100.97 46.61 95.54 48.50 C 92.66 49.51 89.55 49.66 86.66 50.66 C 84.35 53.42 83.30 57.25 80.13 59.24 C 79.16 57.05 78.53 54.72 77.37 52.62 C 73.67 50.96 69.47 50.35 66.22 47.78 C 61.19 44.23 58.73 38.00 58.68 31.99 C 59.05 23.63 64.44 15.42 72.45 12.58 M 67.00 20.02 C 61.24 26.06 60.27 36.70 65.93 43.09 C 69.27 47.17 74.56 48.41 79.39 49.80 C 80.11 51.42 80.58 53.16 81.52 54.67 C 83.41 51.98 84.21 47.55 88.10 47.18 C 95.00 45.69 102.79 43.03 106.06 36.20 C 108.92 30.26 106.55 23.28 102.39 18.62 C 97.59 13.85 90.40 13.02 83.96 13.31 C 77.73 13.11 71.06 15.04 67.00 20.02 Z" />
<path fill="#fff9e1" opacity="1.00" d=" M 67.00 20.02 C 71.06 15.04 77.73 13.11 83.96 13.31 C 90.40 13.02 97.59 13.85 102.39 18.62 C 106.55 23.28 108.92 30.26 106.06 36.20 C 102.79 43.03 95.00 45.69 88.10 47.18 C 84.21 47.55 83.41 51.98 81.52 54.67 C 80.58 53.16 80.11 51.42 79.39 49.80 C 74.56 48.41 69.27 47.17 65.93 43.09 C 60.27 36.70 61.24 26.06 67.00 20.02 M 85.73 32.64 C 84.19 33.49 82.52 34.08 80.99 34.95 C 80.17 37.21 79.47 40.55 81.89 42.10 C 84.66 44.97 89.52 42.29 90.51 39.00 C 89.93 35.06 87.86 31.51 87.13 27.59 C 87.87 27.40 89.34 27.01 90.07 26.81 C 88.75 23.95 85.96 22.13 83.69 20.06 C 82.10 24.37 84.97 28.48 85.73 32.64 Z" />
<path fill="#010101" opacity="1.00" d=" M 85.73 32.64 C 84.97 28.48 82.10 24.37 83.69 20.06 C 85.96 22.13 88.75 23.95 90.07 26.81 C 89.34 27.01 87.87 27.40 87.13 27.59 C 87.86 31.51 89.93 35.06 90.51 39.00 C 89.52 42.29 84.66 44.97 81.89 42.10 C 79.47 40.55 80.17 37.21 80.99 34.95 C 82.52 34.08 84.19 33.49 85.73 32.64 Z" />
<path fill="#000000" opacity="1.00" d=" M 36.38 53.59 C 51.45 50.06 68.02 58.46 74.85 72.16 C 77.87 77.40 75.65 83.73 77.95 89.20 C 79.86 92.53 76.41 95.34 73.70 96.64 C 66.90 99.76 59.50 101.71 52.03 102.22 C 40.10 102.51 27.97 102.75 16.29 99.92 C 11.25 98.58 5.77 96.86 2.55 92.46 C 2.31 91.17 2.33 89.82 2.60 88.53 C 4.50 86.37 7.50 85.57 9.53 83.58 C 10.70 80.78 10.44 77.60 11.47 74.74 C 14.94 63.76 25.04 55.39 36.38 53.59 M 27.34 60.32 C 20.49 63.16 15.89 69.70 13.74 76.59 C 13.12 80.51 13.10 84.56 13.53 88.50 C 16.14 90.72 19.31 92.15 22.42 93.54 C 33.65 97.91 46.05 100.00 58.00 97.88 C 63.60 96.49 70.31 94.92 73.26 89.40 L 73.92 89.43 C 74.70 81.64 73.55 72.73 67.51 67.14 C 65.82 65.45 64.05 63.79 61.97 62.60 C 52.41 54.52 38.08 54.74 27.34 60.32 Z" />
<path fill="#59a7f5" opacity="1.00" d=" M 27.34 60.32 C 38.08 54.74 52.41 54.52 61.97 62.60 C 59.97 63.23 57.98 63.88 55.99 64.53 C 54.04 60.91 49.53 60.57 45.88 60.28 C 39.62 60.12 33.00 60.31 27.35 63.31 C 20.39 66.99 15.73 74.37 14.81 82.11 C 14.27 84.81 16.39 86.82 18.36 88.24 C 25.54 94.05 35.05 95.19 43.95 95.75 C 50.64 96.18 57.49 95.53 63.73 92.96 L 64.54 92.62 C 67.07 91.56 69.26 89.81 71.83 88.84 C 72.18 88.98 72.90 89.26 73.26 89.40 C 70.31 94.92 63.60 96.49 58.00 97.88 C 46.05 100.00 33.65 97.91 22.42 93.54 C 19.31 92.15 16.14 90.72 13.53 88.50 C 13.10 84.56 13.12 80.51 13.74 76.59 C 15.89 69.70 20.49 63.16 27.34 60.32 Z" />
<path fill="#4476d5" opacity="1.00" d=" M 27.35 63.31 C 33.00 60.31 39.62 60.12 45.88 60.28 C 49.53 60.57 54.04 60.91 55.99 64.53 C 55.72 66.15 55.18 67.77 55.44 69.43 C 56.55 70.53 57.84 71.42 59.09 72.35 C 62.31 75.84 59.84 80.55 60.40 84.65 C 61.75 87.32 63.27 89.91 64.54 92.62 L 63.73 92.96 C 62.04 88.08 57.01 86.08 52.54 84.52 C 46.25 82.46 39.58 81.92 33.00 81.69 C 29.53 81.66 25.96 81.55 22.63 82.66 C 20.11 83.37 19.50 86.23 18.36 88.24 C 16.39 86.82 14.27 84.81 14.81 82.11 C 15.73 74.37 20.39 66.99 27.35 63.31 M 50.10 78.93 C 51.34 79.32 53.01 80.31 54.15 79.17 C 55.28 78.55 54.47 76.94 53.65 76.41 C 51.89 76.09 50.89 77.64 50.10 78.93 Z" />
<path fill="#f5f6ff" opacity="1.00" d=" M 55.99 64.53 C 57.98 63.88 59.97 63.23 61.97 62.60 C 64.05 63.79 65.82 65.45 67.51 67.14 C 67.13 68.53 66.77 69.94 66.30 71.31 C 64.12 72.57 61.51 72.37 59.09 72.35 C 57.84 71.42 56.55 70.53 55.44 69.43 C 55.18 67.77 55.72 66.15 55.99 64.53 Z" />
<path fill="#4a84df" opacity="1.00" d=" M 67.51 67.14 C 73.55 72.73 74.70 81.64 73.92 89.43 L 73.26 89.40 C 72.90 89.26 72.18 88.98 71.83 88.84 C 69.26 89.81 67.07 91.56 64.54 92.62 C 63.27 89.91 61.75 87.32 60.40 84.65 C 59.84 80.55 62.31 75.84 59.09 72.35 C 61.51 72.37 64.12 72.57 66.30 71.31 C 66.77 69.94 67.13 68.53 67.51 67.14 Z" />
<path fill="#f5f6ff" opacity="1.00" d=" M 50.10 78.93 C 50.89 77.64 51.89 76.09 53.65 76.41 C 54.47 76.94 55.28 78.55 54.15 79.17 C 53.01 80.31 51.34 79.32 50.10 78.93 Z" />
<path fill="#252fa0" opacity="1.00" d=" M 22.63 82.66 C 25.96 81.55 29.53 81.66 33.00 81.69 C 39.58 81.92 46.25 82.46 52.54 84.52 C 57.01 86.08 62.04 88.08 63.73 92.96 C 57.49 95.53 50.64 96.18 43.95 95.75 C 35.05 95.19 25.54 94.05 18.36 88.24 C 19.50 86.23 20.11 83.37 22.63 82.66 Z" />
</svg>
