<?xml version="1.0" encoding="UTF-8" ?>
<!DOCTYPE svg PUBLIC "-//W3C//DTD SVG 1.1//EN" "http://www.w3.org/Graphics/SVG/1.1/DTD/svg11.dtd">
<svg width="111pt" height="111pt" viewBox="0 0 111 111" version="1.1" xmlns="http://www.w3.org/2000/svg">
<path fill="#000000" opacity="1.00" d=" M 65.08 37.24 C 72.24 32.37 79.43 25.67 88.72 26.20 C 88.97 29.11 86.99 33.90 90.81 35.00 C 97.41 38.04 104.89 35.88 111.00 32.71 L 111.00 35.90 L 110.99 35.07 C 104.42 38.42 96.33 39.98 89.49 36.46 C 89.45 37.23 89.36 38.76 89.32 39.52 C 86.81 36.01 86.41 31.70 86.74 27.51 C 84.29 28.31 81.82 29.08 79.48 30.17 C 73.59 33.13 68.62 37.52 63.07 41.02 C 58.15 44.12 53.09 47.08 47.65 49.19 C 44.98 50.19 42.21 50.82 39.44 51.46 C 44.32 54.17 49.10 57.12 53.33 60.78 C 52.84 58.33 50.80 53.21 55.08 53.60 C 57.75 55.24 60.24 57.17 62.34 59.50 C 66.21 52.81 72.99 48.51 79.98 45.65 C 83.09 44.25 86.57 44.45 89.80 45.28 C 94.84 46.72 99.12 50.04 102.12 54.30 C 103.25 51.54 104.32 48.70 106.13 46.29 C 106.68 46.24 107.78 46.15 108.32 46.10 C 108.62 48.72 108.74 51.36 108.86 54.00 C 109.58 52.89 110.30 51.77 111.00 50.65 L 111.00 54.30 C 110.34 55.21 109.67 56.11 109.00 57.00 C 109.17 60.21 108.37 63.38 105.06 64.56 C 104.84 69.12 103.70 73.92 100.33 77.22 C 96.33 81.32 90.47 82.50 85.07 83.59 C 79.06 84.98 72.64 83.61 67.27 80.73 C 63.63 79.01 61.63 75.43 60.81 71.63 C 59.11 70.91 57.78 69.67 56.98 68.01 C 54.70 63.69 50.47 61.01 46.64 58.21 C 42.83 55.40 38.14 53.69 35.13 49.89 C 46.30 49.41 56.04 43.24 65.08 37.24 M 71.13 53.38 C 70.61 53.56 70.16 53.90 69.75 54.25 C 64.22 58.07 61.64 65.65 63.47 72.08 C 63.77 76.60 68.22 79.16 72.07 80.40 C 78.20 82.55 84.87 81.74 90.93 79.77 C 96.44 78.65 101.34 74.33 102.33 68.69 C 103.25 63.16 101.65 57.28 98.22 52.88 C 95.14 49.38 90.57 47.32 86.01 46.70 C 80.52 47.24 75.26 49.77 71.13 53.38 M 103.24 57.99 C 103.90 59.51 104.44 61.10 104.94 62.69 C 108.20 60.45 106.69 56.17 106.96 52.89 C 106.90 51.92 106.79 49.97 106.73 49.00 C 105.10 51.75 103.16 54.68 103.24 57.99 M 54.23 55.90 C 54.98 59.61 56.56 63.09 58.43 66.37 C 59.04 67.40 59.66 68.42 60.29 69.44 C 60.83 66.75 61.26 64.05 61.76 61.36 C 61.37 61.03 60.58 60.38 60.19 60.05 C 58.38 58.43 56.60 56.64 54.23 55.90 Z" />
<path fill="#bbd5de" opacity="1.00" d=" M 79.48 30.17 C 81.82 29.08 84.29 28.31 86.74 27.51 C 86.41 31.70 86.81 36.01 89.32 39.52 C 89.49 41.44 89.64 43.36 89.80 45.28 C 86.57 44.45 83.09 44.25 79.98 45.65 C 78.74 40.56 79.37 35.33 79.48 30.17 Z" />
<path fill="#fff9e1" opacity="1.00" d=" M 63.07 41.02 C 68.62 37.52 73.59 33.13 79.48 30.17 C 79.37 35.33 78.74 40.56 79.98 45.65 C 72.99 48.51 66.21 52.81 62.34 59.50 C 60.24 57.17 57.75 55.24 55.08 53.60 C 52.68 52.01 50.20 50.54 47.65 49.19 C 53.09 47.08 58.15 44.12 63.07 41.02 Z" />
<path fill="#fff9e1" opacity="1.00" d=" M 89.49 36.46 C 96.33 39.98 104.42 38.42 110.99 35.07 L 111.00 35.90 L 111.00 42.75 C 109.40 43.96 107.70 45.04 106.13 46.29 C 104.32 48.70 103.25 51.54 102.12 54.30 C 99.12 50.04 94.84 46.72 89.80 45.28 C 89.64 43.36 89.49 41.44 89.32 39.52 C 89.36 38.76 89.45 37.23 89.49 36.46 Z" />
<path fill="#cee5e9" opacity="1.00" d=" M 106.13 46.29 C 107.70 45.04 109.40 43.96 111.00 42.75 L 111.00 50.65 C 110.30 51.77 109.58 52.89 108.86 54.00 C 108.74 51.36 108.62 48.72 108.32 46.10 C 107.78 46.15 106.68 46.24 106.13 46.29 Z" />
<path fill="#000000" opacity="1.00" d=" M 0.00 51.57 C 7.32 49.01 14.80 46.93 22.16 44.49 C 29.08 51.34 36.40 57.81 42.93 65.05 C 43.53 64.15 44.13 63.24 44.74 62.34 C 47.30 62.71 50.90 62.81 51.65 65.93 C 51.50 68.66 50.37 71.20 49.49 73.76 C 50.61 75.68 52.98 77.45 52.20 79.95 C 51.81 82.54 47.80 85.35 45.92 82.48 C 44.92 83.82 44.54 85.96 42.90 86.67 C 40.14 86.98 37.44 86.15 34.88 85.23 C 34.73 83.78 34.58 82.32 34.44 80.87 C 37.07 81.12 39.72 80.93 42.32 80.49 C 43.64 78.00 44.68 75.38 45.42 72.67 C 45.76 71.77 46.12 70.87 46.47 69.98 C 45.77 69.25 45.06 68.52 44.36 67.80 C 43.11 70.97 41.77 74.10 40.56 77.29 C 39.83 78.15 39.06 78.99 38.28 79.81 C 36.96 79.69 35.65 79.57 34.33 79.50 C 26.71 78.21 19.21 76.20 11.75 74.18 C 7.19 67.52 3.59 60.27 0.00 53.06 L 0.00 51.57 M 1.74 52.83 C 2.04 53.32 2.65 54.30 2.95 54.78 C 6.05 60.09 8.55 65.72 11.83 70.92 C 11.86 71.28 11.94 72.01 11.98 72.38 C 14.50 70.94 16.89 69.25 19.57 68.09 C 18.20 70.19 15.99 71.47 14.03 72.95 C 17.07 73.42 19.99 74.56 23.04 74.84 C 27.89 76.38 32.91 77.31 37.75 78.88 C 38.50 77.30 39.26 75.73 40.01 74.15 C 37.22 72.50 34.60 70.57 31.85 68.85 C 32.05 68.59 32.43 68.08 32.62 67.82 C 35.29 69.39 37.83 71.16 40.34 72.98 C 41.28 71.12 42.13 69.22 42.90 67.28 C 42.14 66.61 41.43 65.87 40.59 65.30 C 35.18 59.05 28.66 53.89 23.06 47.82 C 23.24 49.10 23.41 50.37 23.59 51.64 C 24.16 55.84 24.66 60.06 24.42 64.31 C 23.41 61.19 23.88 57.74 22.78 54.69 C 22.45 52.09 22.04 49.50 21.60 46.92 C 14.96 48.81 8.37 50.90 1.74 52.83 M 45.12 63.93 C 42.34 66.71 47.52 67.60 48.58 69.81 C 45.98 73.66 45.54 78.61 42.79 82.30 C 40.53 82.82 38.20 82.76 35.91 82.91 C 36.85 85.73 40.56 84.21 42.81 84.70 C 46.09 78.53 49.65 72.20 49.93 65.03 C 48.35 64.64 46.79 63.52 45.12 63.93 M 50.81 78.72 C 51.09 77.49 50.03 75.88 48.77 75.64 C 46.21 76.51 48.98 79.75 50.81 78.72 M 47.34 80.20 C 46.12 81.69 48.64 83.37 49.56 81.68 C 50.85 80.18 48.25 78.54 47.34 80.20 Z" />
<path fill="#ff4e65" opacity="1.00" d=" M 71.13 53.38 C 75.26 49.77 80.52 47.24 86.01 46.70 C 90.57 47.32 95.14 49.38 98.22 52.88 C 101.65 57.28 103.25 63.16 102.33 68.69 C 100.90 63.41 100.13 57.14 95.22 53.81 C 89.54 49.35 81.80 51.51 75.60 53.56 C 74.11 53.48 72.62 53.42 71.13 53.38 Z" />
<path fill="#fff2cb" opacity="1.00" d=" M 1.74 52.83 C 8.37 50.90 14.96 48.81 21.60 46.92 C 22.04 49.50 22.45 52.09 22.78 54.69 C 21.90 53.15 21.04 51.60 20.19 50.05 C 14.43 51.57 8.78 53.52 2.95 54.78 C 2.65 54.30 2.04 53.32 1.74 52.83 Z" />
<path fill="#fff9e1" opacity="1.00" d=" M 23.06 47.82 C 28.66 53.89 35.18 59.05 40.59 65.30 C 33.91 62.11 29.73 55.62 23.59 51.64 C 23.41 50.37 23.24 49.10 23.06 47.82 Z" />
<path fill="#c9d1e0" opacity="1.00" d=" M 2.95 54.78 C 8.78 53.52 14.43 51.57 20.19 50.05 C 21.04 51.60 21.90 53.15 22.78 54.69 C 23.88 57.74 23.41 61.19 24.42 64.31 C 24.66 60.06 24.16 55.84 23.59 51.64 C 29.73 55.62 33.91 62.11 40.59 65.30 C 41.43 65.87 42.14 66.61 42.90 67.28 C 42.13 69.22 41.28 71.12 40.34 72.98 C 37.83 71.16 35.29 69.39 32.62 67.82 C 23.54 65.62 15.43 60.78 6.72 57.57 C 8.47 62.00 11.74 65.96 11.83 70.92 C 8.55 65.72 6.05 60.09 2.95 54.78 Z" />
<path fill="#c4dade" opacity="1.00" d=" M 39.44 51.46 C 42.21 50.82 44.98 50.19 47.65 49.19 C 50.20 50.54 52.68 52.01 55.08 53.60 C 50.80 53.21 52.84 58.33 53.33 60.78 C 49.10 57.12 44.32 54.17 39.44 51.46 Z" />
<path fill="#beaf5b" opacity="1.00" d=" M 103.24 57.99 C 103.16 54.68 105.10 51.75 106.73 49.00 C 106.79 49.97 106.90 51.92 106.96 52.89 C 106.21 54.91 104.98 56.70 103.24 57.99 Z" />
<path fill="#d1396b" opacity="1.00" d=" M 75.60 53.56 C 81.80 51.51 89.54 49.35 95.22 53.81 C 100.13 57.14 100.90 63.41 102.33 68.69 C 101.34 74.33 96.44 78.65 90.93 79.77 C 89.86 79.19 88.77 78.63 87.58 78.35 L 86.38 78.04 C 89.90 76.86 94.45 75.72 95.70 71.72 C 96.67 68.42 94.61 65.10 91.53 63.89 C 91.53 62.51 91.65 61.10 91.34 59.74 C 86.50 56.30 80.36 58.74 75.95 61.71 C 75.35 62.04 74.14 62.69 73.54 63.01 C 73.34 62.74 72.94 62.21 72.75 61.95 C 72.85 61.16 72.96 60.38 73.07 59.61 C 75.24 58.30 75.76 55.94 75.60 53.56 Z" />
<path fill="#fff2cb" opacity="1.00" d=" M 69.75 54.25 C 70.16 53.90 70.61 53.56 71.13 53.38 C 72.62 53.42 74.11 53.48 75.60 53.56 C 75.76 55.94 75.24 58.30 73.07 59.61 C 69.98 60.01 67.17 57.05 69.75 54.25 Z" />
<path fill="#8f5d34" opacity="1.00" d=" M 103.24 57.99 C 104.98 56.70 106.21 54.91 106.96 52.89 C 106.69 56.17 108.20 60.45 104.94 62.69 C 104.44 61.10 103.90 59.51 103.24 57.99 Z" />
<path fill="#ba2f6e" opacity="1.00" d=" M 63.47 72.08 C 61.64 65.65 64.22 58.07 69.75 54.25 C 67.17 57.05 69.98 60.01 73.07 59.61 C 72.96 60.38 72.85 61.16 72.75 61.95 C 72.94 62.21 73.34 62.74 73.54 63.01 C 73.89 63.25 74.60 63.74 74.95 63.99 L 75.74 63.54 C 75.80 63.08 75.90 62.17 75.95 61.71 C 80.36 58.74 86.50 56.30 91.34 59.74 C 91.65 61.10 91.53 62.51 91.53 63.89 C 85.23 62.91 78.17 62.87 72.81 66.81 C 70.39 68.68 68.77 73.14 71.81 75.21 C 76.02 78.27 81.50 77.50 86.38 78.04 L 87.58 78.35 C 81.62 79.54 75.19 79.66 69.44 77.50 C 66.21 76.34 65.19 72.87 64.02 70.01 C 63.88 70.53 63.60 71.56 63.47 72.08 Z" />
<path fill="#dfcf6b" opacity="1.00" d=" M 54.23 55.90 C 56.60 56.64 58.38 58.43 60.19 60.05 C 59.91 62.23 59.51 64.42 58.43 66.37 C 56.56 63.09 54.98 59.61 54.23 55.90 Z" />
<path fill="#8c8db0" opacity="1.00" d=" M 6.72 57.57 C 15.43 60.78 23.54 65.62 32.62 67.82 C 32.43 68.08 32.05 68.59 31.85 68.85 L 31.59 69.24 C 31.83 70.37 32.15 71.47 32.47 72.58 C 29.93 75.10 26.21 74.10 23.04 74.84 C 19.99 74.56 17.07 73.42 14.03 72.95 C 15.99 71.47 18.20 70.19 19.57 68.09 C 16.89 69.25 14.50 70.94 11.98 72.38 C 11.94 72.01 11.86 71.28 11.83 70.92 C 11.74 65.96 8.47 62.00 6.72 57.57 Z" />
<path fill="#a57f44" opacity="1.00" d=" M 60.19 60.05 C 60.58 60.38 61.37 61.03 61.76 61.36 C 61.26 64.05 60.83 66.75 60.29 69.44 C 59.66 68.42 59.04 67.40 58.43 66.37 C 59.51 64.42 59.91 62.23 60.19 60.05 Z" />
<path fill="#e8adaa" opacity="1.00" d=" M 73.54 63.01 C 74.14 62.69 75.35 62.04 75.95 61.71 C 75.90 62.17 75.80 63.08 75.74 63.54 L 74.95 63.99 C 74.60 63.74 73.89 63.25 73.54 63.01 Z" />
<path fill="#9b2172" opacity="1.00" d=" M 72.81 66.81 C 78.17 62.87 85.23 62.91 91.53 63.89 C 94.61 65.10 96.67 68.42 95.70 71.72 C 94.45 75.72 89.90 76.86 86.38 78.04 C 81.50 77.50 76.02 78.27 71.81 75.21 C 68.77 73.14 70.39 68.68 72.81 66.81 Z" />
<path fill="#ac7540" opacity="1.00" d=" M 45.12 63.93 C 46.79 63.52 48.35 64.64 49.93 65.03 C 49.65 72.20 46.09 78.53 42.81 84.70 C 40.56 84.21 36.85 85.73 35.91 82.91 C 38.20 82.76 40.53 82.82 42.79 82.30 C 45.54 78.61 45.98 73.66 48.58 69.81 C 47.52 67.60 42.34 66.71 45.12 63.93 Z" />
<path fill="#d1b55f" opacity="1.00" d=" M 44.36 67.80 C 45.06 68.52 45.77 69.25 46.47 69.98 C 46.12 70.87 45.76 71.77 45.42 72.67 C 44.06 74.92 42.46 77.01 40.67 78.93 L 40.56 77.29 C 41.77 74.10 43.11 70.97 44.36 67.80 Z" />
<path fill="#9698b7" opacity="1.00" d=" M 31.59 69.24 L 31.85 68.85 C 34.60 70.57 37.22 72.50 40.01 74.15 C 39.26 75.73 38.50 77.30 37.75 78.88 C 32.91 77.31 27.89 76.38 23.04 74.84 C 26.21 74.10 29.93 75.10 32.47 72.58 C 32.15 71.47 31.83 70.37 31.59 69.24 Z" />
<path fill="#ea466a" opacity="1.00" d=" M 64.02 70.01 C 65.19 72.87 66.21 76.34 69.44 77.50 C 75.19 79.66 81.62 79.54 87.58 78.35 C 88.77 78.63 89.86 79.19 90.93 79.77 C 84.87 81.74 78.20 82.55 72.07 80.40 C 68.22 79.16 63.77 76.60 63.47 72.08 C 63.60 71.56 63.88 70.53 64.02 70.01 Z" />
<path fill="#8a5c32" opacity="1.00" d=" M 40.67 78.93 C 42.46 77.01 44.06 74.92 45.42 72.67 C 44.68 75.38 43.64 78.00 42.32 80.49 C 39.72 80.93 37.07 81.12 34.44 80.87 L 34.33 79.50 C 35.65 79.57 36.96 79.69 38.28 79.81 C 39.06 78.99 39.83 78.15 40.56 77.29 L 40.67 78.93 Z" />
<path fill="#cee5e9" opacity="1.00" d=" M 50.81 78.72 C 48.98 79.75 46.21 76.51 48.77 75.64 C 50.03 75.88 51.09 77.49 50.81 78.72 Z" />
<path fill="#ff4e65" opacity="1.00" d=" M 47.34 80.20 C 48.25 78.54 50.85 80.18 49.56 81.68 C 48.64 83.37 46.12 81.69 47.34 80.20 Z" />
<path fill="#000000" opacity="1.00" d=" M 70.15 95.11 C 71.40 93.04 73.95 92.88 76.09 92.58 C 82.73 91.89 89.43 92.67 96.02 93.48 C 97.12 93.72 99.79 94.55 98.08 96.11 C 93.17 97.33 88.04 96.73 83.03 96.84 C 78.72 96.55 74.14 97.11 70.15 95.11 Z" />
</svg>
