<?xml version="1.0" encoding="UTF-8" ?>
<!DOCTYPE svg PUBLIC "-//W3C//DTD SVG 1.1//EN" "http://www.w3.org/Graphics/SVG/1.1/DTD/svg11.dtd">
<svg width="111pt" height="111pt" viewBox="0 0 111 111" version="1.1" xmlns="http://www.w3.org/2000/svg">
<path fill="#000000" opacity="1.00" d=" M 4.28 26.21 C 6.55 21.69 11.18 18.59 16.02 17.49 C 26.92 16.55 35.07 27.95 34.20 38.07 C 33.58 42.80 30.30 46.54 26.31 48.89 C 27.84 50.60 29.76 52.27 29.82 54.75 C 28.11 55.51 26.42 56.32 24.72 57.09 C 25.45 58.25 26.63 58.97 27.70 59.77 C 26.55 64.09 28.52 68.19 29.69 72.26 C 28.15 74.38 25.70 73.02 23.75 72.51 C 22.69 82.22 22.05 92.00 20.39 101.63 C 16.85 101.83 15.67 97.96 14.78 95.28 C 13.55 90.69 11.27 86.49 9.82 81.98 C 10.83 81.33 11.84 80.67 12.84 80.01 C 12.09 77.40 9.20 76.87 7.16 75.65 C 0.68 72.75 0.06 61.90 6.72 58.82 C 5.55 57.91 3.77 57.43 3.30 55.87 C 2.96 53.51 6.04 52.80 6.67 50.88 C 6.15 49.35 4.42 48.51 4.08 46.90 C 4.27 45.90 4.53 44.91 4.86 43.94 C 1.42 38.66 1.44 31.73 4.28 26.21 M 10.49 23.64 C 6.37 26.93 4.94 32.57 5.52 37.64 C 6.59 41.80 10.33 44.94 14.46 45.87 L 14.28 46.19 C 20.04 47.38 27.28 46.78 30.22 40.86 C 30.81 37.56 30.65 34.20 30.38 30.89 C 29.12 27.62 27.15 24.72 24.48 22.44 C 20.27 18.94 14.50 20.82 10.49 23.64 M 6.08 45.98 C 7.64 47.73 9.32 49.38 11.03 50.98 C 9.24 52.32 7.48 53.70 5.74 55.11 C 7.75 57.49 10.42 59.20 13.63 59.22 C 14.79 59.42 15.95 59.64 17.10 59.90 C 17.79 61.42 18.47 62.94 19.13 64.48 C 20.14 63.86 21.15 63.25 22.17 62.65 C 22.80 62.55 24.07 62.35 24.71 62.25 C 26.46 61.59 25.26 59.66 23.81 60.35 C 23.10 59.78 21.68 58.64 20.97 58.06 C 21.92 57.01 22.88 55.97 23.87 54.95 C 24.92 54.40 25.95 53.81 26.96 53.20 C 25.95 52.02 24.93 50.84 23.92 49.66 C 20.76 49.72 17.58 49.94 14.45 49.43 C 11.49 48.72 9.01 46.77 6.08 45.98 M 8.41 60.51 C 5.95 62.31 3.91 65.21 4.83 68.40 C 6.05 73.65 12.10 74.85 16.34 76.80 C 17.30 72.10 16.77 67.34 16.55 62.61 C 14.02 61.31 11.16 61.01 8.41 60.51 M 22.44 64.17 C 22.10 65.22 21.77 66.27 21.45 67.33 C 23.06 68.60 24.70 69.82 26.44 70.91 C 26.27 68.30 25.50 64.71 22.44 64.17 M 19.66 69.26 C 19.78 72.66 19.48 76.04 18.48 79.30 C 15.61 78.74 14.42 81.47 12.85 83.24 C 13.73 85.26 14.62 87.28 15.63 89.24 C 16.46 91.89 16.98 94.67 18.25 97.16 C 18.91 95.16 19.41 93.09 19.43 90.96 C 19.60 84.22 20.15 77.44 21.57 70.84 C 20.94 70.31 20.30 69.78 19.66 69.26 Z" />
<path fill="#c2ff4e" opacity="1.00" d=" M 10.49 23.64 C 14.50 20.82 20.27 18.94 24.48 22.44 C 21.85 23.15 19.70 24.81 19.03 27.53 L 18.08 27.48 C 15.59 27.45 12.55 26.47 10.59 28.53 C 8.33 31.20 7.05 34.53 5.52 37.64 C 4.94 32.57 6.37 26.93 10.49 23.64 Z" />
<path fill="#fff2cb" opacity="1.00" d=" M 19.03 27.53 C 19.70 24.81 21.85 23.15 24.48 22.44 C 27.15 24.72 29.12 27.62 30.38 30.89 C 30.65 34.20 30.81 37.56 30.22 40.86 C 29.85 39.06 29.59 37.25 29.37 35.43 C 27.35 35.54 25.33 35.64 23.31 35.55 C 23.00 35.48 22.38 35.34 22.08 35.27 C 20.17 33.11 18.84 30.50 19.03 27.53 Z" />
<path fill="#7fcf59" opacity="1.00" d=" M 10.59 28.53 C 12.55 26.47 15.59 27.45 18.08 27.48 C 15.26 28.43 13.35 30.63 12.46 33.42 C 11.68 34.98 10.73 36.46 10.08 38.09 C 9.79 39.78 11.16 41.07 11.98 42.37 C 13.03 43.12 14.13 43.80 15.27 44.42 C 15.07 44.78 14.67 45.51 14.46 45.87 C 10.33 44.94 6.59 41.80 5.52 37.64 C 7.05 34.53 8.33 31.20 10.59 28.53 Z" />
<path fill="#64b95c" opacity="1.00" d=" M 12.46 33.42 C 13.35 30.63 15.26 28.43 18.08 27.48 L 19.03 27.53 C 18.84 30.50 20.17 33.11 22.08 35.27 C 18.98 34.18 15.78 33.29 12.46 33.42 Z" />
<path fill="#278a69" opacity="1.00" d=" M 12.46 33.42 C 15.78 33.29 18.98 34.18 22.08 35.27 C 22.38 35.34 23.00 35.48 23.31 35.55 C 23.72 37.87 25.35 40.51 23.84 42.73 C 22.32 44.87 19.37 44.28 17.11 44.42 C 16.97 43.85 16.70 42.69 16.57 42.11 C 15.91 41.69 14.60 40.85 13.94 40.43 C 13.45 40.92 12.47 41.89 11.98 42.37 C 11.16 41.07 9.79 39.78 10.08 38.09 C 10.73 36.46 11.68 34.98 12.46 33.42 Z" />
<path fill="#69c25f" opacity="1.00" d=" M 23.31 35.55 C 25.33 35.64 27.35 35.54 29.37 35.43 C 29.59 37.25 29.85 39.06 30.22 40.86 C 27.28 46.78 20.04 47.38 14.28 46.19 L 14.46 45.87 C 14.67 45.51 15.07 44.78 15.27 44.42 C 15.59 43.84 16.24 42.69 16.57 42.11 C 16.70 42.69 16.97 43.85 17.11 44.42 C 19.37 44.28 22.32 44.87 23.84 42.73 C 25.35 40.51 23.72 37.87 23.31 35.55 Z" />
<path fill="#fff2cb" opacity="1.00" d=" M 11.98 42.37 C 12.47 41.89 13.45 40.92 13.94 40.43 C 14.60 40.85 15.91 41.69 16.57 42.11 C 16.24 42.69 15.59 43.84 15.27 44.42 C 14.13 43.80 13.03 43.12 11.98 42.37 Z" />
<path fill="#9b5261" opacity="1.00" d=" M 6.08 45.98 C 9.01 46.77 11.49 48.72 14.45 49.43 C 17.58 49.94 20.76 49.72 23.92 49.66 C 24.93 50.84 25.95 52.02 26.96 53.20 C 25.95 53.81 24.92 54.40 23.87 54.95 C 20.65 53.81 17.26 53.32 13.85 53.45 C 13.84 53.17 13.83 52.60 13.82 52.31 C 13.12 51.98 11.73 51.31 11.03 50.98 C 9.32 49.38 7.64 47.73 6.08 45.98 Z" />
<path fill="#7c384d" opacity="1.00" d=" M 5.74 55.11 C 7.48 53.70 9.24 52.32 11.03 50.98 C 11.73 51.31 13.12 51.98 13.82 52.31 C 13.83 52.60 13.84 53.17 13.85 53.45 C 13.78 55.38 13.67 57.30 13.63 59.22 C 10.42 59.20 7.75 57.49 5.74 55.11 Z" />
<path fill="#a76466" opacity="1.00" d=" M 13.85 53.45 C 17.26 53.32 20.65 53.81 23.87 54.95 C 22.88 55.97 21.92 57.01 20.97 58.06 C 21.68 58.64 23.10 59.78 23.81 60.35 C 21.56 60.79 19.29 60.42 17.10 59.90 C 15.95 59.64 14.79 59.42 13.63 59.22 C 13.67 57.30 13.78 55.38 13.85 53.45 Z" />
<path fill="#000000" opacity="1.00" d=" M 48.46 56.75 C 63.84 54.30 79.96 54.86 94.85 59.68 C 100.14 61.41 106.17 65.65 105.36 71.98 C 104.54 79.14 103.78 86.33 102.50 93.42 C 103.59 93.46 104.65 93.65 105.68 93.99 C 106.52 96.47 104.74 98.70 103.37 100.59 C 99.67 105.12 93.60 106.57 88.08 107.45 C 75.19 108.63 62.02 107.69 49.57 104.06 C 41.48 100.62 32.35 100.45 24.48 96.35 C 23.23 95.47 23.01 94.32 23.82 92.87 C 28.95 92.29 34.12 92.34 39.27 92.65 C 39.64 92.67 40.37 92.72 40.74 92.74 C 41.25 82.82 41.82 72.85 43.66 63.06 C 44.31 60.52 45.41 57.13 48.46 56.75 M 47.93 59.68 C 47.53 60.74 47.11 61.79 46.68 62.83 C 46.46 64.46 46.25 66.09 46.13 67.73 L 45.86 66.83 C 44.90 76.30 44.09 85.79 43.60 95.30 C 42.98 95.53 41.73 95.99 41.10 96.23 C 43.99 99.78 48.40 101.79 52.98 101.66 C 55.01 102.00 57.01 102.45 59.02 102.89 C 68.06 104.56 77.28 104.68 86.46 104.43 L 86.56 103.58 C 88.67 103.43 91.07 103.98 92.93 102.69 C 93.99 102.51 95.05 102.38 96.12 102.29 C 96.35 101.99 96.82 101.38 97.05 101.08 C 99.19 99.71 102.37 98.26 102.69 95.51 C 101.96 95.56 100.48 95.67 99.75 95.72 C 99.36 88.97 101.16 82.36 101.56 75.65 C 101.68 74.35 101.77 73.04 101.83 71.72 C 102.55 66.35 96.85 63.52 92.41 62.65 C 87.21 60.50 81.49 59.68 75.90 59.27 C 74.03 59.29 71.99 58.33 70.26 59.52 L 70.24 58.56 C 62.79 58.69 55.32 58.77 47.93 59.68 Z" />
<path fill="#faff4e" opacity="1.00" d=" M 47.93 59.68 C 55.32 58.77 62.79 58.69 70.24 58.56 L 70.26 59.52 C 77.89 64.29 88.39 62.00 95.24 68.36 C 91.73 69.17 88.13 69.51 84.53 69.39 C 81.71 66.68 77.69 66.55 74.04 66.06 C 68.05 65.49 62.14 63.27 56.07 64.55 C 54.98 64.64 53.88 64.76 52.80 64.93 C 50.62 66.44 48.68 68.25 46.81 70.11 C 46.58 69.32 46.35 68.52 46.13 67.73 C 46.25 66.09 46.46 64.46 46.68 62.83 C 47.11 61.79 47.53 60.74 47.93 59.68 Z" />
<path fill="#f9ff4d" opacity="1.00" d=" M 8.41 60.51 C 11.16 61.01 14.02 61.31 16.55 62.61 C 16.77 67.34 17.30 72.10 16.34 76.80 C 12.10 74.85 6.05 73.65 4.83 68.40 C 3.91 65.21 5.95 62.31 8.41 60.51 Z" />
<path fill="#64303f" opacity="1.00" d=" M 17.10 59.90 C 19.29 60.42 21.56 60.79 23.81 60.35 C 25.26 59.66 26.46 61.59 24.71 62.25 C 24.07 62.35 22.80 62.55 22.17 62.65 C 21.15 63.25 20.14 63.86 19.13 64.48 C 18.47 62.94 17.79 61.42 17.10 59.90 Z" />
<path fill="#fcfcfd" opacity="1.00" d=" M 70.26 59.52 C 71.99 58.33 74.03 59.29 75.90 59.27 C 81.49 59.68 87.21 60.50 92.41 62.65 C 93.47 63.56 94.52 64.50 95.55 65.45 C 95.54 66.18 95.53 67.63 95.52 68.36 C 95.45 68.36 95.31 68.36 95.24 68.36 C 88.39 62.00 77.89 64.29 70.26 59.52 Z" />
<path fill="#ffff51" opacity="1.00" d=" M 92.41 62.65 C 96.85 63.52 102.55 66.35 101.83 71.72 C 99.07 71.26 96.26 71.00 93.47 71.42 L 94.39 70.41 C 95.48 69.76 96.56 69.10 97.63 68.41 L 95.52 68.36 C 95.53 67.63 95.54 66.18 95.55 65.45 C 94.52 64.50 93.47 63.56 92.41 62.65 Z" />
<path fill="#ffff57" opacity="1.00" d=" M 22.44 64.17 C 25.50 64.71 26.27 68.30 26.44 70.91 C 24.70 69.82 23.06 68.60 21.45 67.33 C 21.77 66.27 22.10 65.22 22.44 64.17 Z" />
<path fill="#000000" opacity="1.00" d=" M 52.80 64.93 C 53.88 64.76 54.98 64.64 56.07 64.55 C 65.28 67.35 74.89 69.23 84.53 69.39 C 88.13 69.51 91.73 69.17 95.24 68.36 C 95.31 68.36 95.45 68.36 95.52 68.36 L 97.63 68.41 C 96.56 69.10 95.48 69.76 94.39 70.41 C 84.36 72.79 74.06 70.79 64.15 68.83 C 60.21 68.05 56.30 66.95 52.80 64.93 Z" />
<path fill="#e7ce41" opacity="1.00" d=" M 56.07 64.55 C 62.14 63.27 68.05 65.49 74.04 66.06 C 77.69 66.55 81.71 66.68 84.53 69.39 C 74.89 69.23 65.28 67.35 56.07 64.55 Z" />
<path fill="#d9c33c" opacity="1.00" d=" M 46.81 70.11 C 48.68 68.25 50.62 66.44 52.80 64.93 C 56.30 66.95 60.21 68.05 64.15 68.83 C 74.06 70.79 84.36 72.79 94.39 70.41 L 93.47 71.42 C 92.29 72.77 91.62 74.76 92.53 76.44 C 94.05 78.27 96.58 79.08 98.91 78.67 C 99.94 77.80 100.73 76.70 101.56 75.65 C 101.16 82.36 99.36 88.97 99.75 95.72 C 100.48 95.67 101.96 95.56 102.69 95.51 C 102.37 98.26 99.19 99.71 97.05 101.08 C 97.77 99.80 99.80 97.68 97.42 96.89 C 97.83 96.67 98.64 96.24 99.05 96.02 C 99.03 94.69 99.02 93.36 99.01 92.03 C 97.41 90.95 95.82 89.86 94.23 88.77 C 94.05 85.17 94.57 80.95 91.78 78.16 C 88.79 74.78 84.12 73.95 79.87 73.39 C 70.53 72.25 60.69 70.19 51.59 73.64 C 49.68 74.51 47.10 75.50 47.02 77.96 C 46.05 83.47 45.11 89.13 46.17 94.70 C 47.00 95.13 47.83 95.57 48.66 96.02 C 50.54 97.01 52.40 98.04 54.35 98.91 C 54.01 99.60 53.32 100.97 52.98 101.66 C 48.40 101.79 43.99 99.78 41.10 96.23 C 41.73 95.99 42.98 95.53 43.60 95.30 C 44.09 85.79 44.90 76.30 45.86 66.83 L 46.13 67.73 C 46.35 68.52 46.58 69.32 46.81 70.11 M 97.44 83.97 C 96.35 84.88 97.21 87.98 98.81 86.70 C 100.00 85.78 99.05 82.59 97.44 83.97 Z" />
<path fill="#a76466" opacity="1.00" d=" M 19.66 69.26 C 20.30 69.78 20.94 70.31 21.57 70.84 C 20.15 77.44 19.60 84.22 19.43 90.96 C 19.41 93.09 18.91 95.16 18.25 97.16 C 16.98 94.67 16.46 91.89 15.63 89.24 C 17.54 86.25 18.43 82.83 18.48 79.30 C 19.48 76.04 19.78 72.66 19.66 69.26 Z" />
<path fill="#ffffff" opacity="1.00" d=" M 93.47 71.42 C 96.26 71.00 99.07 71.26 101.83 71.72 C 101.77 73.04 101.68 74.35 101.56 75.65 C 100.73 76.70 99.94 77.80 98.91 78.67 C 96.58 79.08 94.05 78.27 92.53 76.44 C 91.62 74.76 92.29 72.77 93.47 71.42 Z" />
<path fill="#c7a334" opacity="1.00" d=" M 51.59 73.64 C 60.69 70.19 70.53 72.25 79.87 73.39 C 84.12 73.95 88.79 74.78 91.78 78.16 C 94.57 80.95 94.05 85.17 94.23 88.77 C 95.82 89.86 97.41 90.95 99.01 92.03 C 99.02 93.36 99.03 94.69 99.05 96.02 C 98.64 96.24 97.83 96.67 97.42 96.89 L 96.92 97.14 C 93.64 90.95 85.81 90.45 79.67 89.56 C 69.48 88.58 58.55 88.16 49.29 93.28 C 49.13 93.97 48.82 95.33 48.66 96.02 C 47.83 95.57 47.00 95.13 46.17 94.70 C 45.11 89.13 46.05 83.47 47.02 77.96 C 47.10 75.50 49.68 74.51 51.59 73.64 Z" />
<path fill="#914a58" opacity="1.00" d=" M 12.85 83.24 C 14.42 81.47 15.61 78.74 18.48 79.30 C 18.43 82.83 17.54 86.25 15.63 89.24 C 14.62 87.28 13.73 85.26 12.85 83.24 Z" />
<path fill="#fbf9e6" opacity="1.00" d=" M 97.44 83.97 C 99.05 82.59 100.00 85.78 98.81 86.70 C 97.21 87.98 96.35 84.88 97.44 83.97 Z" />
<path fill="#ab7127" opacity="1.00" d=" M 49.29 93.28 C 58.55 88.16 69.48 88.58 79.67 89.56 C 85.81 90.45 93.64 90.95 96.92 97.14 C 92.40 99.71 87.08 100.04 82.00 100.33 C 72.77 100.57 63.45 100.67 54.35 98.91 C 52.40 98.04 50.54 97.01 48.66 96.02 C 48.82 95.33 49.13 93.97 49.29 93.28 Z" />
<path fill="#000000" opacity="0.46" d=" M 23.82 92.87 C 27.23 90.97 31.25 91.44 35.01 91.49 C 36.51 91.46 37.96 91.91 39.27 92.65 C 34.12 92.34 28.95 92.29 23.82 92.87 Z" />
<path fill="#fefd4f" opacity="1.00" d=" M 96.92 97.14 L 97.42 96.89 C 99.80 97.68 97.77 99.80 97.05 101.08 C 96.82 101.38 96.35 101.99 96.12 102.29 C 95.05 102.38 93.99 102.51 92.93 102.69 C 91.07 103.98 88.67 103.43 86.56 103.58 L 86.46 104.43 C 77.28 104.68 68.06 104.56 59.02 102.89 C 57.01 102.45 55.01 102.00 52.98 101.66 C 53.32 100.97 54.01 99.60 54.35 98.91 C 63.45 100.67 72.77 100.57 82.00 100.33 C 87.08 100.04 92.40 99.71 96.92 97.14 Z" />
</svg>
