<?xml version="1.0" encoding="UTF-8" ?>
<!DOCTYPE svg PUBLIC "-//W3C//DTD SVG 1.1//EN" "http://www.w3.org/Graphics/SVG/1.1/DTD/svg11.dtd">
<svg width="111pt" height="111pt" viewBox="0 0 111 111" version="1.1" xmlns="http://www.w3.org/2000/svg">
<path fill="#000000" opacity="1.00" d=" M 38.72 6.78 C 39.80 4.46 42.68 2.06 45.25 3.73 C 48.28 5.33 49.20 11.66 44.82 11.92 C 44.22 11.93 43.02 11.97 42.41 11.99 C 39.64 12.36 37.55 9.24 38.72 6.78 M 40.28 9.07 C 41.82 10.99 44.76 10.92 46.21 8.94 C 46.16 8.49 46.06 7.60 46.01 7.16 C 45.34 5.96 44.32 5.26 42.96 5.06 C 41.69 6.07 40.31 7.30 40.28 9.07 Z" />
<path fill="#c5ff4f" opacity="1.00" d=" M 40.28 9.07 C 40.31 7.30 41.69 6.07 42.96 5.06 C 44.32 5.26 45.34 5.96 46.01 7.16 C 43.26 6.04 43.72 10.30 46.21 8.94 C 44.76 10.92 41.82 10.99 40.28 9.07 Z" />
<path fill="#f1f5b7" opacity="1.00" d=" M 46.21 8.94 C 43.72 10.30 43.26 6.04 46.01 7.16 C 46.06 7.60 46.16 8.49 46.21 8.94 Z" />
<path fill="#000000" opacity="1.00" d=" M 7.52 17.51 C 4.61 14.54 6.80 10.16 9.83 8.29 C 12.64 8.64 16.12 9.54 16.40 12.95 C 18.06 18.01 10.67 21.50 7.52 17.51 M 8.89 10.93 C 8.41 12.74 7.31 15.34 9.29 16.62 C 10.99 18.34 14.30 17.23 14.79 14.94 C 15.15 13.39 14.20 12.00 13.65 10.64 C 12.06 10.45 10.44 10.45 8.89 10.93 Z" />
<path fill="#fffbe2" opacity="1.00" d=" M 8.89 10.93 C 10.44 10.45 12.06 10.45 13.65 10.64 C 13.08 11.13 11.95 12.12 11.39 12.61 C 10.53 12.09 9.70 11.53 8.89 10.93 Z" />
<path fill="#c3ff4f" opacity="1.00" d=" M 9.29 16.62 C 7.31 15.34 8.41 12.74 8.89 10.93 C 9.70 11.53 10.53 12.09 11.39 12.61 C 11.95 12.12 13.08 11.13 13.65 10.64 C 14.20 12.00 15.15 13.39 14.79 14.94 C 14.30 17.23 10.99 18.34 9.29 16.62 Z" />
<path fill="#3c4a18" opacity="0.47" d=" M 42.41 11.99 C 43.02 11.97 44.22 11.93 44.82 11.92 C 45.60 13.73 41.75 13.84 42.41 11.99 Z" />
<path fill="#050702" opacity="0.79" d=" M 39.33 14.00 C 42.26 12.24 45.03 17.44 41.71 18.61 C 38.88 20.07 35.82 15.19 39.33 14.00 M 39.90 15.28 C 39.39 16.92 39.95 17.46 41.58 16.90 C 42.09 15.27 41.53 14.73 39.90 15.28 Z" />
<path fill="#759430" opacity="1.00" d=" M 39.90 15.28 C 41.53 14.73 42.09 15.27 41.58 16.90 C 39.95 17.46 39.39 16.92 39.90 15.28 Z" />
<path fill="#050702" opacity="0.89" d=" M 18.34 22.80 C 15.86 21.71 16.48 18.03 19.02 17.47 C 21.43 16.97 22.68 19.45 23.81 21.08 C 22.60 22.87 20.39 24.39 18.34 22.80 M 19.31 19.47 C 17.23 20.25 20.23 22.35 21.60 21.70 C 22.15 20.23 20.86 18.58 19.31 19.47 Z" />
<path fill="#c5ff4f" opacity="1.00" d=" M 19.31 19.47 C 20.86 18.58 22.15 20.23 21.60 21.70 C 20.23 22.35 17.23 20.25 19.31 19.47 Z" />
<path fill="#131a08" opacity="0.82" d=" M 38.70 23.89 C 36.35 26.16 35.14 19.70 38.33 20.83 L 38.73 21.43 C 38.72 22.04 38.71 23.27 38.70 23.89 Z" />
<path fill="#bcff4d" opacity="1.00" d=" M 38.73 21.43 C 41.29 20.11 41.09 25.59 38.70 23.89 C 38.71 23.27 38.72 22.04 38.73 21.43 Z" />
<path fill="#18200a" opacity="0.72" d=" M 23.96 25.28 C 25.21 24.45 26.46 23.63 27.69 22.78 C 28.15 24.06 28.89 25.29 28.96 26.68 C 28.17 28.25 26.31 27.86 25.33 26.69 C 25.31 26.67 25.27 26.64 25.26 26.62 L 23.96 25.28 M 27.38 25.38 C 27.64 25.64 27.64 25.64 27.38 25.38 Z" />
<path fill="#000000" opacity="1.00" d=" M 65.53 24.52 C 68.57 23.35 73.37 24.34 73.85 28.16 C 74.67 32.35 68.90 34.00 65.98 32.10 C 63.48 30.52 63.45 26.42 65.53 24.52 M 65.68 28.01 C 65.20 30.05 67.72 30.66 68.93 31.62 C 71.25 30.87 72.93 29.02 71.07 26.78 L 70.28 26.44 C 69.06 25.97 67.85 25.50 66.63 25.03 C 66.40 25.78 65.92 27.27 65.68 28.01 Z" />
<path fill="#b9f54b" opacity="1.00" d=" M 27.38 25.38 C 27.64 25.64 27.64 25.64 27.38 25.38 Z" />
<path fill="#000000" opacity="1.00" d=" M 31.19 44.77 C 23.03 40.68 26.27 27.49 33.94 24.78 C 39.46 24.52 45.43 28.15 46.27 33.92 C 46.50 36.44 46.22 40.02 43.45 41.05 C 44.94 42.29 46.51 43.41 48.17 44.41 C 45.96 47.17 43.60 44.25 41.88 42.56 C 41.04 43.62 39.28 44.31 39.31 45.87 C 39.25 51.02 39.90 56.23 38.78 61.33 C 42.61 65.71 41.57 71.86 41.33 77.19 C 40.44 77.78 39.55 78.36 38.66 78.95 C 38.67 85.19 38.31 91.42 38.24 97.66 C 43.37 97.73 48.52 97.76 53.61 98.54 C 53.03 92.04 53.34 84.97 57.34 79.49 C 59.61 75.87 63.37 73.72 66.96 71.61 C 66.77 67.17 65.77 61.61 69.29 58.18 C 73.66 56.41 78.58 57.87 83.06 58.53 C 88.78 59.91 95.01 61.52 99.22 65.89 C 100.71 69.65 98.70 73.71 96.82 76.98 C 100.82 80.37 104.36 84.66 105.48 89.90 C 106.44 95.11 106.09 101.05 102.43 105.20 C 98.39 105.89 94.51 107.37 90.41 107.64 C 78.67 108.42 66.71 107.55 55.51 103.83 C 47.90 103.18 40.32 101.80 32.66 101.97 C 28.14 101.62 23.58 102.05 19.07 101.56 C 17.40 101.67 16.48 100.10 15.87 98.80 C 20.00 97.05 24.53 97.51 28.89 97.73 C 28.44 91.17 29.62 84.64 29.24 78.08 C 26.16 74.98 24.69 70.16 25.91 65.93 C 26.50 63.56 28.83 62.48 30.76 61.38 C 30.97 55.84 30.49 50.28 31.19 44.77 M 30.76 41.17 C 35.39 43.59 41.29 41.85 43.56 37.07 C 43.35 35.18 43.72 33.06 42.61 31.38 C 41.50 29.48 39.43 28.51 37.65 27.37 C 30.79 26.96 27.05 36.05 30.76 41.17 M 33.41 46.27 C 32.79 50.86 33.39 55.52 33.19 60.14 L 33.08 61.31 C 34.48 61.35 35.89 61.40 37.30 61.46 C 37.23 57.33 37.43 53.21 37.18 49.09 C 37.03 47.68 36.88 46.27 36.72 44.87 C 35.66 45.37 34.14 45.24 33.41 46.27 M 70.50 60.29 C 69.28 63.64 69.24 67.22 69.57 70.72 C 72.74 70.31 75.92 70.15 79.11 70.13 C 78.74 68.63 77.85 67.52 76.43 66.82 C 76.53 65.35 76.74 63.87 77.49 62.58 C 79.20 62.71 80.96 62.73 82.17 61.29 C 85.98 62.35 91.05 65.48 89.22 70.10 C 87.84 70.33 86.47 70.62 85.12 70.97 C 88.48 72.42 91.90 73.75 95.05 75.65 C 96.03 72.95 97.22 70.13 96.76 67.20 C 89.31 61.79 79.57 59.97 70.50 60.29 M 28.39 65.83 C 28.22 68.87 27.75 72.57 30.24 74.84 C 32.98 76.24 36.28 75.92 39.25 75.52 C 39.13 72.20 39.03 68.88 39.28 65.57 C 39.04 65.51 38.54 65.41 38.30 65.36 L 38.61 64.82 C 35.42 62.37 31.21 63.41 28.39 65.83 M 78.38 64.60 C 78.42 65.06 78.50 65.98 78.54 66.44 C 79.03 66.52 79.99 66.69 80.47 66.77 C 80.83 68.63 82.10 69.50 83.92 69.58 C 85.18 68.76 86.53 68.14 87.91 67.57 C 86.61 66.29 85.37 64.93 83.92 63.81 C 82.04 63.76 80.22 64.31 78.38 64.60 M 58.00 84.05 C 55.63 89.10 56.56 94.81 55.70 100.17 C 59.39 102.53 63.76 103.22 68.00 103.94 C 78.25 105.38 88.98 106.25 99.01 103.14 C 102.40 102.62 102.75 98.83 103.16 96.10 C 103.87 89.78 100.42 83.81 95.76 79.81 C 94.23 78.73 92.74 77.60 91.07 76.76 C 86.75 74.44 81.93 73.01 77.03 72.80 C 69.28 72.59 61.16 76.74 58.00 84.05 M 31.70 78.35 C 31.69 80.93 31.67 83.51 31.78 86.09 C 31.08 90.46 31.20 94.92 31.61 99.31 C 32.95 99.51 34.30 99.68 35.65 99.85 C 35.48 93.52 36.17 87.21 36.30 80.89 C 36.39 80.34 36.58 79.26 36.68 78.71 C 35.02 78.58 33.36 78.46 31.70 78.35 Z" />
<path fill="#405519" opacity="0.64" d=" M 25.26 26.62 C 25.27 26.64 25.31 26.67 25.33 26.69 C 25.31 26.67 25.27 26.64 25.26 26.62 Z" />
<path fill="#c5ff4f" opacity="1.00" d=" M 65.68 28.01 C 65.92 27.27 66.40 25.78 66.63 25.03 C 67.85 25.50 69.06 25.97 70.28 26.44 C 66.55 27.96 71.48 30.62 71.07 26.78 C 72.93 29.02 71.25 30.87 68.93 31.62 C 67.72 30.66 65.20 30.05 65.68 28.01 Z" />
<path fill="#f1fbb0" opacity="1.00" d=" M 71.07 26.78 C 71.48 30.62 66.55 27.96 70.28 26.44 L 71.07 26.78 Z" />
<path fill="#c1ff4e" opacity="1.00" d=" M 30.76 41.17 C 27.05 36.05 30.79 26.96 37.65 27.37 C 36.42 29.14 35.17 30.90 33.95 32.67 C 32.64 34.47 31.82 36.59 32.44 38.82 C 31.98 38.68 31.05 38.41 30.58 38.27 C 30.62 39.00 30.71 40.45 30.76 41.17 Z" />
<path fill="#fff2cb" opacity="1.00" d=" M 37.65 27.37 C 39.43 28.51 41.50 29.48 42.61 31.38 C 43.72 33.06 43.35 35.18 43.56 37.07 C 41.29 41.85 35.39 43.59 30.76 41.17 C 30.71 40.45 30.62 39.00 30.58 38.27 C 31.05 38.41 31.98 38.68 32.44 38.82 C 33.02 39.27 34.17 40.19 34.75 40.65 C 36.36 40.65 37.97 40.65 39.59 40.65 C 40.42 39.01 41.32 37.41 42.26 35.84 C 39.09 35.99 35.41 36.14 33.95 32.67 C 35.17 30.90 36.42 29.14 37.65 27.37 Z" />
<path fill="#080a04" opacity="0.80" d=" M 56.52 28.59 C 59.83 26.48 64.09 32.10 60.50 34.33 C 56.83 37.23 52.73 31.08 56.52 28.59 M 58.65 32.79 C 61.38 32.89 59.97 28.61 57.79 30.11 C 55.46 30.08 56.83 34.35 58.65 32.79 Z" />
<path fill="#addb48" opacity="0.96" d=" M 58.65 32.79 C 56.83 34.35 55.46 30.08 57.79 30.11 C 57.95 31.04 58.24 31.94 58.65 32.79 Z" />
<path fill="#fff2cb" opacity="1.00" d=" M 57.79 30.11 C 59.97 28.61 61.38 32.89 58.65 32.79 C 58.24 31.94 57.95 31.04 57.79 30.11 Z" />
<path fill="#050702" opacity="0.77" d=" M 48.45 36.18 C 48.78 34.31 49.47 32.55 50.79 31.16 C 52.03 32.27 54.25 33.85 52.92 35.76 C 51.70 37.02 49.93 36.30 48.45 36.18 M 50.17 33.49 C 49.65 34.88 50.11 35.39 51.53 35.01 C 52.04 33.63 51.59 33.12 50.17 33.49 Z" />
<path fill="#53ac61" opacity="1.00" d=" M 32.44 38.82 C 31.82 36.59 32.64 34.47 33.95 32.67 C 35.41 36.14 39.09 35.99 42.26 35.84 C 41.32 37.41 40.42 39.01 39.59 40.65 C 37.97 40.65 36.36 40.65 34.75 40.65 C 34.17 40.19 33.02 39.27 32.44 38.82 Z" />
<path fill="#647e29" opacity="1.00" d=" M 50.17 33.49 C 51.59 33.12 52.04 33.63 51.53 35.01 C 50.11 35.39 49.65 34.88 50.17 33.49 Z" />
<path fill="#000000" opacity="1.00" d=" M 22.09 44.85 C 20.59 43.37 22.16 41.46 23.25 40.33 C 24.33 40.90 26.25 41.15 25.95 42.83 C 26.22 44.90 23.55 46.57 22.09 44.85 M 22.79 42.88 C 23.16 43.23 23.91 43.95 24.29 44.31 C 26.58 43.32 23.61 40.47 22.79 42.88 Z" />
<path fill="#c5ff4f" opacity="1.00" d=" M 22.79 42.88 C 23.61 40.47 26.58 43.32 24.29 44.31 C 23.91 43.95 23.16 43.23 22.79 42.88 Z" />
<path fill="#a68b49" opacity="1.00" d=" M 33.41 46.27 C 34.14 45.24 35.66 45.37 36.72 44.87 C 36.88 46.27 37.03 47.68 37.18 49.09 C 36.05 48.81 34.92 48.53 33.78 48.25 C 33.72 52.22 33.60 56.19 33.19 60.14 C 33.39 55.52 32.79 50.86 33.41 46.27 Z" />
<path fill="#050503" opacity="0.64" d=" M 47.52 50.37 C 44.83 48.31 48.91 43.80 51.34 45.71 C 53.05 46.58 52.29 48.86 52.50 50.40 C 50.89 50.49 48.88 51.70 47.52 50.37 M 49.48 49.48 C 49.84 52.49 54.41 47.98 51.38 47.37 C 50.05 45.38 47.04 48.69 49.48 49.48 Z" />
<path fill="#000000" opacity="1.00" d=" M 17.51 46.89 C 19.25 45.35 22.15 46.52 21.78 48.98 C 21.87 51.31 19.02 50.59 17.56 51.12 C 17.61 49.71 17.54 48.30 17.51 46.89 M 19.15 47.59 C 19.01 47.93 18.74 48.62 18.60 48.96 C 20.12 51.76 22.16 46.09 19.15 47.59 Z" />
<path fill="#212c0d" opacity="0.29" d=" M 17.56 51.12 C 15.31 51.32 15.15 46.57 17.51 46.89 C 17.54 48.30 17.61 49.71 17.56 51.12 Z" />
<path fill="#c5ff4f" opacity="1.00" d=" M 19.15 47.59 C 22.16 46.09 20.12 51.76 18.60 48.96 C 18.74 48.62 19.01 47.93 19.15 47.59 Z" />
<path fill="#fff2cb" opacity="1.00" d=" M 49.48 49.48 C 47.04 48.69 50.05 45.38 51.38 47.37 C 51.08 48.36 50.45 49.06 49.48 49.48 Z" />
<path fill="#000000" opacity="1.00" d=" M 51.38 47.37 C 54.41 47.98 49.84 52.49 49.48 49.48 C 50.45 49.06 51.08 48.36 51.38 47.37 Z" />
<path fill="#ffe275" opacity="1.00" d=" M 33.78 48.25 C 34.92 48.53 36.05 48.81 37.18 49.09 C 37.43 53.21 37.23 57.33 37.30 61.46 C 35.89 61.40 34.48 61.35 33.08 61.31 L 33.19 60.14 C 33.60 56.19 33.72 52.22 33.78 48.25 Z" />
<path fill="#000000" opacity="1.00" d=" M 6.59 57.03 C 6.45 53.83 9.34 51.85 11.91 50.64 C 13.50 52.83 15.45 55.47 14.30 58.33 C 12.88 61.90 6.69 60.88 6.59 57.03 M 10.20 54.45 L 9.45 54.12 C 9.16 55.40 7.99 56.79 8.89 58.07 C 9.91 58.58 11.09 58.51 12.19 58.67 C 12.49 57.89 13.10 56.32 13.40 55.53 L 12.35 55.23 C 14.21 52.85 9.71 51.31 10.20 54.45 Z" />
<path fill="#fffbe2" opacity="1.00" d=" M 10.20 54.45 C 9.71 51.31 14.21 52.85 12.35 55.23 C 11.61 55.03 10.89 54.77 10.20 54.45 Z" />
<path fill="#000000" opacity="1.00" d=" M 50.16 57.03 C 49.51 53.63 54.20 49.57 57.02 52.53 C 55.93 52.92 54.85 53.32 53.76 53.73 L 52.92 53.90 C 52.42 55.04 51.92 56.17 51.42 57.31 C 53.24 59.53 56.05 59.74 58.72 59.56 C 58.84 57.43 58.49 55.33 57.51 53.42 L 57.02 52.18 C 59.17 53.53 61.33 55.87 60.52 58.63 C 58.71 63.14 50.41 61.96 50.16 57.03 Z" />
<path fill="#c5ff4f" opacity="1.00" d=" M 9.45 54.12 L 10.20 54.45 C 10.89 54.77 11.61 55.03 12.35 55.23 L 13.40 55.53 C 13.10 56.32 12.49 57.89 12.19 58.67 C 11.09 58.51 9.91 58.58 8.89 58.07 C 7.99 56.79 9.16 55.40 9.45 54.12 Z" />
<path fill="#bcff4d" opacity="1.00" d=" M 52.92 53.90 L 53.76 53.73 C 54.70 53.65 56.57 53.49 57.51 53.42 C 58.49 55.33 58.84 57.43 58.72 59.56 C 56.05 59.74 53.24 59.53 51.42 57.31 C 51.92 56.17 52.42 55.04 52.92 53.90 M 56.29 56.24 C 54.96 57.10 56.30 59.51 57.68 58.46 C 59.04 57.61 57.67 55.17 56.29 56.24 Z" />
<path fill="#f6f9b9" opacity="1.00" d=" M 56.29 56.24 C 57.67 55.17 59.04 57.61 57.68 58.46 C 56.30 59.51 54.96 57.10 56.29 56.24 Z" />
<path fill="#fffbe2" opacity="1.00" d=" M 70.50 60.29 C 79.57 59.97 89.31 61.79 96.76 67.20 C 97.22 70.13 96.03 72.95 95.05 75.65 C 91.90 73.75 88.48 72.42 85.12 70.97 C 86.47 70.62 87.84 70.33 89.22 70.10 C 91.05 65.48 85.98 62.35 82.17 61.29 C 80.96 62.73 79.20 62.71 77.49 62.58 C 76.74 63.87 76.53 65.35 76.43 66.82 C 77.85 67.52 78.74 68.63 79.11 70.13 C 75.92 70.15 72.74 70.31 69.57 70.72 C 69.24 67.22 69.28 63.64 70.50 60.29 Z" />
<path fill="#beff4d" opacity="1.00" d=" M 28.39 65.83 C 31.21 63.41 35.42 62.37 38.61 64.82 L 38.30 65.36 C 38.19 65.53 37.99 65.89 37.89 66.06 C 38.15 69.07 38.41 72.07 38.53 75.09 C 34.60 72.67 30.98 69.71 28.39 65.83 Z" />
<path fill="#c1ff4f" opacity="1.00" d=" M 78.38 64.60 C 80.22 64.31 82.04 63.76 83.92 63.81 C 85.37 64.93 86.61 66.29 87.91 67.57 C 86.53 68.14 85.18 68.76 83.92 69.58 C 82.10 69.50 80.83 68.63 80.47 66.77 C 79.99 66.69 79.03 66.52 78.54 66.44 C 78.50 65.98 78.42 65.06 78.38 64.60 Z" />
<path fill="#88d65c" opacity="1.00" d=" M 38.30 65.36 C 38.54 65.41 39.04 65.51 39.28 65.57 C 39.03 68.88 39.13 72.20 39.25 75.52 C 36.28 75.92 32.98 76.24 30.24 74.84 C 27.75 72.57 28.22 68.87 28.39 65.83 C 30.98 69.71 34.60 72.67 38.53 75.09 C 38.41 72.07 38.15 69.07 37.89 66.06 C 37.99 65.89 38.19 65.53 38.30 65.36 Z" />
<path fill="#c2ff4e" opacity="1.00" d=" M 58.00 84.05 C 61.16 76.74 69.28 72.59 77.03 72.80 C 81.93 73.01 86.75 74.44 91.07 76.76 C 90.33 76.69 88.86 76.57 88.13 76.50 C 87.79 77.06 87.11 78.18 86.77 78.74 C 81.07 75.66 74.26 75.89 68.07 77.03 C 61.60 78.62 58.44 85.55 57.33 91.55 C 57.24 93.30 56.34 95.60 57.92 96.93 C 60.21 98.84 62.94 100.11 65.52 101.55 C 70.09 104.67 75.80 104.40 81.07 104.48 C 86.23 104.44 91.59 104.46 96.39 102.30 C 98.79 101.45 101.34 99.88 101.40 97.02 C 102.72 91.14 99.64 85.05 94.11 82.68 C 94.66 81.72 95.21 80.76 95.76 79.81 C 100.42 83.81 103.87 89.78 103.16 96.10 C 102.75 98.83 102.40 102.62 99.01 103.14 C 88.98 106.25 78.25 105.38 68.00 103.94 C 63.76 103.22 59.39 102.53 55.70 100.17 C 56.56 94.81 55.63 89.10 58.00 84.05 Z" />
<path fill="#6ec15c" opacity="1.00" d=" M 57.33 91.55 C 58.44 85.55 61.60 78.62 68.07 77.03 C 74.26 75.89 81.07 75.66 86.77 78.74 C 88.39 81.34 90.94 83.04 94.11 82.68 C 99.64 85.05 102.72 91.14 101.40 97.02 C 101.34 99.88 98.79 101.45 96.39 102.30 C 90.60 102.66 84.79 103.59 78.98 103.02 C 74.49 102.59 70.00 102.13 65.52 101.55 C 62.94 100.11 60.21 98.84 57.92 96.93 C 56.34 95.60 57.24 93.30 57.33 91.55 M 84.13 83.15 C 82.58 84.13 84.32 86.59 85.77 85.48 C 87.33 84.51 85.59 82.02 84.13 83.15 M 63.69 97.78 C 74.98 101.91 87.59 102.73 99.14 99.25 C 94.43 93.09 85.89 93.69 78.97 92.99 C 73.78 93.24 66.71 92.55 63.69 97.78 Z" />
<path fill="#fff2cb" opacity="1.00" d=" M 86.77 78.74 C 87.11 78.18 87.79 77.06 88.13 76.50 C 88.86 76.57 90.33 76.69 91.07 76.76 C 92.74 77.60 94.23 78.73 95.76 79.81 C 95.21 80.76 94.66 81.72 94.11 82.68 C 90.94 83.04 88.39 81.34 86.77 78.74 Z" />
<path fill="#a8703e" opacity="1.00" d=" M 31.70 78.35 C 33.36 78.46 35.02 78.58 36.68 78.71 C 36.58 79.26 36.39 80.34 36.30 80.89 C 35.13 81.63 33.93 82.32 32.72 83.00 C 32.39 84.03 32.08 85.06 31.78 86.09 C 31.67 83.51 31.69 80.93 31.70 78.35 Z" />
<path fill="#e0b961" opacity="1.00" d=" M 32.72 83.00 C 33.93 82.32 35.13 81.63 36.30 80.89 C 36.17 87.21 35.48 93.52 35.65 99.85 C 34.30 99.68 32.95 99.51 31.61 99.31 C 31.20 94.92 31.08 90.46 31.78 86.09 C 32.08 85.06 32.39 84.03 32.72 83.00 Z" />
<path fill="#d7e7b2" opacity="1.00" d=" M 84.13 83.15 C 85.59 82.02 87.33 84.51 85.77 85.48 C 84.32 86.59 82.58 84.13 84.13 83.15 Z" />
<path fill="#2a8c69" opacity="1.00" d=" M 63.69 97.78 C 66.71 92.55 73.78 93.24 78.97 92.99 C 85.89 93.69 94.43 93.09 99.14 99.25 C 87.59 102.73 74.98 101.91 63.69 97.78 Z" />
<path fill="#fffbe2" opacity="1.00" d=" M 65.52 101.55 C 70.00 102.13 74.49 102.59 78.98 103.02 C 84.79 103.59 90.60 102.66 96.39 102.30 C 91.59 104.46 86.23 104.44 81.07 104.48 C 75.80 104.40 70.09 104.67 65.52 101.55 Z" />
</svg>
