<?xml version="1.0" encoding="UTF-8" ?>
<!DOCTYPE svg PUBLIC "-//W3C//DTD SVG 1.1//EN" "http://www.w3.org/Graphics/SVG/1.1/DTD/svg11.dtd">
<svg width="111pt" height="111pt" viewBox="0 0 111 111" version="1.1" xmlns="http://www.w3.org/2000/svg">
<path fill="#000000" opacity="1.00" d=" M 90.34 13.48 C 93.67 8.35 98.12 4.09 102.99 0.45 C 99.29 8.84 93.91 16.25 89.19 24.05 C 95.48 18.08 102.12 12.44 109.44 7.76 C 105.35 15.23 99.07 21.08 93.77 27.65 C 99.39 25.99 105.15 24.86 111.00 24.41 L 111.00 26.57 C 105.08 27.20 99.14 28.07 93.50 30.07 C 92.51 30.49 91.53 30.96 90.56 31.42 C 90.97 33.98 91.31 36.55 91.57 39.14 C 92.64 38.57 93.71 38.01 94.78 37.43 C 99.97 34.47 105.21 31.54 111.00 29.93 L 111.00 33.58 C 109.16 34.70 107.26 35.70 105.38 36.73 C 108.63 46.02 110.14 55.80 111.00 65.58 L 111.00 70.94 C 104.64 73.59 98.90 77.74 92.11 79.31 C 90.26 79.52 88.40 79.65 86.55 79.78 C 86.48 81.06 86.42 82.35 86.36 83.63 C 86.82 85.13 87.25 86.64 87.66 88.15 C 85.14 85.74 83.17 82.60 80.00 80.96 C 77.03 79.88 73.78 80.47 70.69 80.47 C 70.38 82.28 70.06 84.10 69.74 85.91 C 73.72 91.36 79.36 95.47 86.03 96.87 C 87.11 94.91 88.19 92.94 89.28 90.99 C 89.82 90.02 90.36 89.07 90.90 88.11 C 93.10 89.24 95.28 90.45 97.19 92.05 C 100.59 95.98 100.93 101.28 101.43 106.20 C 100.29 106.02 99.14 105.82 98.00 105.64 C 97.38 106.66 96.77 107.69 96.17 108.73 C 98.47 108.00 101.46 108.25 103.02 106.09 C 104.02 104.88 104.87 103.56 105.87 102.35 C 107.01 103.78 108.00 105.32 109.15 106.74 C 110.21 105.60 110.65 104.09 111.00 102.61 L 111.00 109.72 C 108.11 109.96 105.24 110.40 102.40 111.00 L 57.33 111.00 C 44.00 110.33 30.35 110.54 17.46 106.67 C 18.50 105.52 19.74 104.52 21.32 104.28 C 26.87 102.98 32.60 102.82 38.18 101.69 C 42.86 101.99 46.40 98.36 48.87 94.83 C 46.17 94.68 42.57 96.63 40.56 94.08 C 40.78 91.05 42.99 88.79 44.70 86.50 C 44.14 86.12 43.03 85.36 42.47 84.99 C 45.79 82.73 49.28 80.74 52.79 78.81 C 53.50 76.67 54.61 74.70 56.15 73.04 C 55.35 72.45 54.56 71.85 53.76 71.26 C 51.07 73.13 47.88 73.62 44.75 72.60 C 43.77 73.53 42.79 74.45 41.82 75.38 C 41.11 75.30 39.70 75.13 38.99 75.04 C 37.60 75.95 36.21 76.87 34.82 77.79 C 35.56 80.93 36.15 84.17 35.70 87.41 C 33.49 85.28 31.58 82.88 29.85 80.36 C 26.19 81.90 22.78 83.93 19.25 85.74 C 21.11 82.97 23.49 80.63 25.69 78.15 C 20.06 80.82 16.70 86.37 14.33 91.88 C 14.63 92.86 15.22 94.81 15.51 95.78 C 13.69 95.31 11.69 95.05 10.21 93.77 C 4.91 89.41 1.93 82.73 1.15 76.00 C -0.08 65.55 2.78 54.60 9.28 46.28 C 16.00 37.64 24.74 30.79 33.96 25.02 C 36.99 23.33 40.11 21.13 43.74 21.31 C 44.84 24.10 43.65 27.11 43.75 30.00 C 43.34 32.98 45.43 35.34 46.88 37.70 C 49.83 35.58 52.92 33.66 56.31 32.33 C 55.58 34.14 55.81 36.80 53.77 37.78 C 53.76 37.18 53.74 35.96 53.73 35.36 C 52.89 35.70 52.04 36.05 51.19 36.40 C 51.20 36.98 51.22 38.14 51.23 38.72 C 47.64 39.68 43.41 40.97 42.81 45.26 C 45.75 43.39 48.26 40.60 51.83 39.97 C 50.93 42.44 50.80 45.87 48.31 47.36 C 43.85 48.66 38.18 46.40 34.67 50.32 C 34.30 50.32 33.56 50.32 33.19 50.32 C 33.40 50.90 33.81 52.06 34.01 52.63 C 36.28 52.13 38.46 52.73 40.43 53.86 C 41.38 52.48 42.32 51.10 43.26 49.72 C 45.86 49.50 48.46 49.35 51.07 49.25 C 51.38 47.51 51.69 45.76 52.00 44.02 C 53.14 43.67 54.27 43.32 55.41 42.97 C 55.90 42.88 56.86 42.69 57.34 42.60 C 56.98 44.27 55.55 44.96 54.14 45.58 C 54.98 46.70 55.83 47.81 56.55 49.02 C 56.45 51.53 54.35 52.88 52.30 53.77 C 52.08 54.21 51.63 55.07 51.41 55.51 C 50.90 55.72 49.88 56.13 49.37 56.34 C 49.20 56.91 48.88 58.06 48.72 58.63 C 47.52 59.10 46.32 59.57 45.12 60.04 C 46.40 61.00 47.67 61.96 48.95 62.91 C 50.03 60.50 51.12 58.09 52.21 55.68 C 52.86 55.68 54.14 55.68 54.79 55.69 C 57.07 51.62 59.68 47.70 63.13 44.52 C 62.22 43.76 61.32 42.99 60.42 42.23 C 62.59 40.21 64.66 38.08 66.49 35.75 C 64.30 36.57 62.17 37.51 60.04 38.46 C 57.18 39.71 54.02 41.14 51.13 38.93 C 51.85 38.60 52.58 38.29 53.32 37.99 C 59.73 37.63 64.98 33.15 71.05 31.41 C 69.92 35.65 66.72 38.70 63.86 41.82 C 64.79 41.80 65.72 41.74 66.64 41.65 C 70.20 38.64 73.13 34.84 74.78 30.46 C 78.42 21.77 84.38 14.41 89.45 6.56 C 89.97 8.83 90.23 11.15 90.34 13.48 M 90.26 17.08 C 85.30 24.56 79.55 31.51 74.84 39.14 C 77.67 36.75 79.26 33.32 81.54 30.46 C 86.67 22.92 93.06 16.16 97.10 7.94 C 94.39 10.64 92.51 14.01 90.26 17.08 M 87.53 13.06 C 84.21 19.07 79.93 24.50 77.21 30.84 C 80.94 25.11 86.53 20.14 87.53 13.06 M 85.32 31.32 C 82.39 34.44 79.01 37.24 76.82 40.98 C 81.54 37.32 85.60 32.92 89.58 28.49 C 93.33 24.31 97.68 20.68 101.10 16.20 C 95.68 21.07 90.65 26.35 85.32 31.32 M 28.15 32.08 C 21.27 37.19 14.56 42.87 10.06 50.29 L 9.88 50.24 C 2.20 62.44 1.19 79.92 10.93 91.30 C 10.05 86.90 8.53 82.56 8.69 78.01 C 9.00 64.49 15.12 51.18 25.25 42.20 C 27.34 40.39 29.43 38.42 32.17 37.65 C 32.45 38.07 33.01 38.93 33.29 39.36 C 30.07 46.11 27.65 53.51 27.81 61.05 C 28.15 61.61 28.82 62.74 29.15 63.30 L 29.34 62.01 C 30.36 61.61 31.38 61.21 32.40 60.80 C 32.83 58.94 33.28 57.08 33.75 55.23 C 33.25 54.83 32.26 54.03 31.76 53.63 C 31.46 51.87 31.15 50.10 30.87 48.33 C 31.35 48.10 32.31 47.62 32.79 47.39 C 38.38 47.26 40.61 41.23 45.12 38.91 C 40.76 34.93 41.27 28.80 41.96 23.49 C 36.95 25.65 32.37 28.65 28.15 32.08 M 95.78 38.90 C 92.82 40.65 89.58 41.92 86.85 44.04 C 94.15 40.85 100.97 36.64 108.10 33.08 C 103.48 33.74 99.75 36.71 95.78 38.90 M 81.15 40.31 C 82.46 41.07 83.76 41.84 85.05 42.64 C 85.64 42.29 86.83 41.60 87.42 41.26 C 90.49 39.80 88.84 35.72 89.03 33.11 C 86.24 35.33 83.86 38.00 81.15 40.31 M 90.82 44.69 C 92.00 45.07 93.18 45.42 94.38 45.75 C 95.61 46.40 97.31 46.60 98.01 47.98 C 100.96 53.61 103.75 59.37 105.37 65.55 C 105.17 67.44 105.76 69.29 106.22 71.10 C 106.92 70.09 108.27 69.35 108.21 67.97 C 109.11 57.72 105.93 47.73 103.67 37.86 C 99.28 39.94 95.16 42.51 90.82 44.69 M 71.03 40.03 C 68.16 41.57 72.41 43.27 73.62 41.48 C 74.65 40.02 71.96 39.37 71.03 40.03 M 24.63 46.15 C 20.93 49.96 17.91 54.40 15.70 59.23 C 16.99 58.87 18.27 58.51 19.56 58.16 C 20.60 59.24 21.64 60.33 22.68 61.43 C 23.65 61.62 24.63 61.81 25.61 62.00 C 24.96 54.72 27.79 47.92 29.98 41.16 C 28.17 42.80 26.38 44.46 24.63 46.15 M 43.74 46.66 C 45.49 46.55 47.24 46.40 48.98 46.22 C 49.09 45.22 49.29 43.22 49.39 42.22 C 47.34 43.48 45.44 44.96 43.74 46.66 M 81.53 43.50 C 80.50 43.92 79.49 44.38 78.51 44.90 C 77.68 45.29 76.88 45.74 76.08 46.18 C 80.55 47.60 82.94 51.85 86.46 54.64 C 88.54 56.65 91.38 60.30 94.44 57.62 C 95.43 57.09 96.43 56.56 97.43 56.05 C 97.03 53.61 97.13 50.66 95.08 48.92 C 92.84 47.85 90.32 47.63 87.97 46.93 C 85.54 46.37 83.91 44.10 81.53 43.50 M 56.03 59.25 C 59.04 57.69 60.83 54.69 62.61 51.94 C 64.23 49.09 66.45 46.65 68.08 43.81 C 62.23 47.09 58.14 52.96 56.03 59.25 M 64.07 53.99 C 67.68 52.89 70.57 50.33 74.03 48.88 C 73.78 48.12 73.54 47.35 73.29 46.59 C 73.89 45.68 74.47 44.76 75.05 43.83 C 69.76 44.78 67.52 50.49 64.07 53.99 M 53.28 48.11 C 52.89 49.51 53.38 50.05 54.76 49.74 C 55.15 48.34 54.66 47.80 53.28 48.11 M 66.46 55.45 C 62.17 58.17 57.53 60.31 53.38 63.27 C 45.50 68.88 36.35 72.59 28.98 78.94 C 35.81 75.26 41.96 70.41 48.90 66.93 C 53.50 64.70 57.65 61.73 61.89 58.92 C 67.20 55.38 73.32 53.09 78.22 48.98 C 73.93 50.37 70.41 53.34 66.46 55.45 M 52.10 50.34 C 50.53 53.30 55.44 50.54 52.10 50.34 M 44.48 52.70 C 44.46 53.00 44.40 53.60 44.38 53.90 C 42.87 54.49 41.42 55.19 39.96 55.87 C 42.02 57.61 44.56 58.57 47.29 58.18 C 47.10 56.54 46.89 54.90 46.66 53.27 C 47.91 53.85 49.15 54.45 50.39 55.05 C 50.17 53.78 49.85 52.53 49.45 51.31 C 47.72 51.47 46.13 52.21 44.48 52.70 M 77.46 52.38 C 73.26 54.89 69.31 57.79 65.05 60.20 C 63.61 60.94 62.94 62.49 62.06 63.77 C 60.89 64.49 58.94 64.94 59.16 66.68 C 59.69 66.92 60.73 67.39 61.26 67.62 L 60.29 68.60 C 62.99 69.11 65.09 65.83 67.66 67.01 C 65.70 68.13 63.75 69.26 61.83 70.46 C 62.59 70.50 64.12 70.58 64.89 70.62 C 63.83 71.82 60.88 72.81 61.84 74.86 C 63.93 75.66 66.13 74.47 68.23 74.25 C 69.61 73.85 70.99 73.46 72.38 73.07 C 72.03 70.67 71.53 68.30 70.69 66.03 C 71.11 64.50 71.54 62.99 71.97 61.47 C 70.84 61.59 69.70 61.70 68.56 61.80 C 69.57 59.58 71.70 58.10 73.98 57.40 C 75.98 57.40 77.38 60.39 79.44 59.36 C 81.83 58.03 84.56 58.26 87.18 58.39 C 86.11 57.43 85.04 56.47 83.95 55.54 L 83.46 55.46 C 82.20 54.03 80.92 52.61 79.64 51.20 C 79.09 51.50 78.00 52.09 77.46 52.38 M 34.57 59.08 C 36.78 59.26 38.99 59.46 41.21 59.63 C 39.78 58.46 38.44 57.08 36.71 56.35 C 35.14 55.62 35.17 58.27 34.57 59.08 M 96.44 59.41 C 95.24 60.21 94.05 61.02 92.85 61.82 C 91.84 61.30 90.85 60.77 89.85 60.24 C 88.63 60.41 87.41 60.58 86.19 60.74 C 83.61 60.54 81.25 61.53 78.91 62.47 C 77.55 62.29 76.30 61.69 75.02 61.24 C 74.74 62.45 74.47 63.65 74.19 64.86 C 78.42 63.94 82.78 63.65 87.08 64.36 C 91.15 65.04 95.18 65.97 99.11 67.23 C 100.86 68.79 102.45 70.51 104.18 72.09 C 104.11 67.00 101.87 62.05 100.33 57.22 C 98.73 57.03 97.69 58.65 96.44 59.41 M 52.16 59.24 C 50.65 62.24 55.50 59.33 52.16 59.24 M 15.49 63.72 C 17.17 62.59 19.32 61.32 20.38 63.86 C 19.64 63.82 18.15 63.73 17.41 63.69 C 18.56 66.48 19.92 69.17 21.50 71.74 C 21.53 71.44 21.58 70.85 21.60 70.55 C 26.70 69.92 31.80 70.20 36.88 70.84 C 40.75 69.08 44.27 66.64 48.06 64.71 C 47.40 64.18 46.75 63.63 46.06 63.14 C 43.08 62.28 39.93 62.11 36.94 61.16 C 32.90 62.11 29.03 64.35 26.57 67.75 C 25.91 67.76 25.26 67.73 24.61 67.64 C 24.52 66.32 24.43 65.01 24.34 63.70 C 23.73 63.70 22.51 63.71 21.90 63.71 C 20.85 62.49 19.81 61.28 18.77 60.05 C 17.45 61.06 14.96 61.43 15.49 63.72 M 26.08 63.16 C 25.63 64.59 26.10 65.05 27.49 64.51 C 27.94 63.08 27.47 62.63 26.08 63.16 M 55.23 65.26 C 54.66 66.87 55.21 67.42 56.86 66.91 C 57.42 65.30 56.88 64.75 55.23 65.26 M 15.36 66.11 C 14.46 67.50 16.95 68.65 17.86 67.60 C 18.80 66.18 16.29 65.00 15.36 66.11 M 75.15 71.02 C 77.19 71.68 77.78 73.66 78.14 75.56 C 80.47 75.63 82.80 75.66 85.13 75.69 C 85.57 76.22 86.44 77.27 86.87 77.80 C 92.01 77.28 96.96 75.55 101.46 73.05 C 101.33 72.57 101.07 71.62 100.94 71.14 C 93.28 66.31 83.71 65.87 75.02 67.39 C 72.99 67.74 73.46 70.45 75.15 71.02 M 12.46 68.10 C 11.77 71.46 11.33 74.86 11.20 78.28 C 11.45 81.87 12.00 85.43 12.98 88.90 C 14.61 86.40 16.17 83.86 17.86 81.40 C 19.91 79.49 22.05 77.68 24.37 76.11 C 25.41 75.81 26.46 75.51 27.50 75.21 C 27.02 74.14 26.54 73.07 26.06 72.00 C 25.33 72.03 23.86 72.08 23.13 72.10 L 23.39 72.96 C 21.94 73.60 20.18 74.41 19.49 72.35 C 19.11 72.55 18.34 72.93 17.95 73.13 C 16.61 72.09 14.90 71.14 15.47 69.14 C 14.47 68.79 13.46 68.44 12.46 68.10 M 50.53 68.21 C 49.67 68.61 48.00 69.47 48.51 70.65 C 50.18 71.97 53.67 67.69 50.53 68.21 M 56.76 68.12 C 57.78 68.98 59.02 69.46 60.27 69.89 C 59.83 70.29 58.95 71.10 58.51 71.50 C 58.50 72.49 58.48 73.48 58.46 74.47 C 58.98 74.50 60.00 74.55 60.52 74.58 C 60.44 72.70 60.64 70.77 60.14 68.94 C 59.06 68.49 57.94 68.22 56.76 68.12 M 18.12 70.33 C 18.60 70.78 18.60 70.78 18.12 70.33 M 28.02 72.03 C 28.44 73.33 28.88 74.63 29.32 75.93 C 30.72 75.03 32.01 73.96 33.04 72.64 C 31.37 72.41 29.70 72.21 28.02 72.03 M 73.33 75.56 C 70.35 75.98 67.35 76.21 64.40 76.76 C 64.30 77.05 64.11 77.63 64.01 77.92 C 67.89 78.28 71.56 75.89 75.39 75.24 C 75.36 74.72 75.31 73.68 75.28 73.15 C 74.63 73.96 73.98 74.76 73.33 75.56 M 55.44 76.16 C 54.87 77.83 55.39 78.38 56.99 77.81 C 57.56 76.13 57.04 75.58 55.44 76.16 M 58.46 76.56 C 58.79 77.46 58.47 78.75 59.34 79.38 C 60.40 80.46 63.23 80.13 62.59 78.18 C 62.35 76.06 60.01 76.22 58.46 76.56 M 26.25 77.10 C 26.42 80.44 29.21 75.52 26.25 77.10 M 73.52 78.93 C 77.29 79.06 81.06 79.56 84.47 81.29 C 84.43 80.38 84.34 78.57 84.30 77.67 C 80.72 77.72 76.66 76.68 73.52 78.93 M 32.17 79.14 C 31.18 80.14 32.50 82.50 33.85 81.66 C 34.83 80.65 33.55 78.26 32.17 79.14 M 48.50 83.12 C 51.27 83.04 55.44 83.90 56.02 80.16 C 53.28 80.43 50.48 81.05 48.50 83.12 M 58.89 81.45 L 58.27 80.72 C 57.61 81.55 56.96 82.38 56.30 83.21 L 56.45 83.57 C 54.84 85.57 53.24 87.59 52.02 89.86 C 52.50 89.54 53.45 88.88 53.93 88.56 C 55.15 91.54 56.15 94.61 57.00 97.72 C 58.88 96.02 60.97 94.37 61.97 91.96 C 62.47 91.67 63.48 91.08 63.98 90.79 C 65.06 91.20 66.13 91.61 67.21 92.01 C 66.89 88.01 66.93 83.86 65.22 80.13 C 63.23 81.06 61.12 81.83 58.89 81.45 M 46.35 86.91 L 46.37 87.43 C 45.12 89.55 42.41 91.55 43.65 94.30 L 44.15 93.43 C 45.13 93.26 47.11 92.92 48.10 92.75 C 48.78 92.64 50.15 92.41 50.83 92.29 C 50.20 94.42 49.55 96.54 48.77 98.62 L 48.70 98.79 C 47.79 99.63 46.90 100.49 46.02 101.36 C 45.65 101.41 44.90 101.52 44.53 101.57 C 44.82 102.18 45.41 103.39 45.70 104.00 C 42.60 102.34 40.45 104.33 39.09 106.88 C 40.98 106.60 42.77 105.91 43.76 104.15 C 45.77 105.10 46.80 103.16 47.61 101.67 C 48.21 101.83 49.41 102.17 50.01 102.34 C 51.34 100.08 52.60 97.75 54.49 95.89 C 54.02 94.33 53.55 92.78 53.06 91.23 C 51.55 91.14 49.11 91.84 49.95 89.41 C 50.97 87.71 52.21 86.15 53.38 84.54 C 50.83 84.64 48.15 84.87 46.35 86.91 M 69.57 89.05 C 69.44 90.87 69.31 92.69 69.16 94.51 C 67.44 94.12 65.76 93.60 64.03 93.28 C 61.51 95.65 59.36 98.46 56.33 100.23 C 55.63 99.45 54.93 98.67 54.23 97.89 C 53.76 99.02 53.29 100.15 52.82 101.28 C 68.21 100.32 83.65 100.91 99.05 100.61 C 97.75 96.63 95.43 92.78 91.50 90.95 C 90.45 93.83 88.96 96.53 87.14 99.00 C 80.18 98.39 73.73 94.63 69.57 89.05 M 35.31 105.46 C 36.57 106.00 38.32 104.22 37.83 102.94 C 36.56 102.25 34.83 104.21 35.31 105.46 M 47.67 107.22 C 49.09 106.99 49.84 104.13 48.11 103.84 C 46.69 104.12 45.80 106.98 47.67 107.22 M 105.40 107.82 C 106.76 107.60 106.98 106.87 106.05 105.65 C 104.72 105.88 104.50 106.60 105.40 107.82 Z" />
<path fill="#5b5c56" opacity="1.00" d=" M 90.26 17.08 C 92.51 14.01 94.39 10.64 97.10 7.94 C 93.06 16.16 86.67 22.92 81.54 30.46 C 79.26 33.32 77.67 36.75 74.84 39.14 C 79.55 31.51 85.30 24.56 90.26 17.08 Z" />
<path fill="#a5b394" opacity="1.00" d=" M 87.53 13.06 C 86.53 20.14 80.94 25.11 77.21 30.84 C 79.93 24.50 84.21 19.07 87.53 13.06 Z" />
<path fill="#99a690" opacity="1.00" d=" M 85.32 31.32 C 90.65 26.35 95.68 21.07 101.10 16.20 C 97.68 20.68 93.33 24.31 89.58 28.49 C 85.60 32.92 81.54 37.32 76.82 40.98 C 79.01 37.24 82.39 34.44 85.32 31.32 Z" />
<path fill="#84b08d" opacity="1.00" d=" M 28.15 32.08 C 32.37 28.65 36.95 25.65 41.96 23.49 C 41.27 28.80 40.76 34.93 45.12 38.91 C 40.61 41.23 38.38 47.26 32.79 47.39 C 33.55 44.96 34.31 42.55 35.05 40.12 C 34.54 38.83 34.04 37.53 33.54 36.23 C 33.20 36.59 32.51 37.29 32.17 37.65 C 29.43 38.42 27.34 40.39 25.25 42.20 C 15.12 51.18 9.00 64.49 8.69 78.01 C 8.53 82.56 10.05 86.90 10.93 91.30 C 1.19 79.92 2.20 62.44 9.88 50.24 L 10.06 50.29 C 10.59 50.44 11.65 50.73 12.18 50.88 C 17.66 45.27 23.27 39.78 28.67 34.08 C 28.54 33.58 28.28 32.58 28.15 32.08 Z" />
<path fill="#99a690" opacity="1.00" d=" M 93.50 30.07 C 99.14 28.07 105.08 27.20 111.00 26.57 L 111.00 29.93 C 105.21 31.54 99.97 34.47 94.78 37.43 C 94.33 34.98 93.89 32.53 93.50 30.07 Z" />
<path fill="#6f8688" opacity="1.00" d=" M 90.56 31.42 C 91.53 30.96 92.51 30.49 93.50 30.07 C 93.89 32.53 94.33 34.98 94.78 37.43 C 93.71 38.01 92.64 38.57 91.57 39.14 C 91.31 36.55 90.97 33.98 90.56 31.42 Z" />
<path fill="#fbe2a9" opacity="1.00" d=" M 10.06 50.29 C 14.56 42.87 21.27 37.19 28.15 32.08 C 28.28 32.58 28.54 33.58 28.67 34.08 C 23.27 39.78 17.66 45.27 12.18 50.88 C 11.65 50.73 10.59 50.44 10.06 50.29 Z" />
<path fill="#99a690" opacity="1.00" d=" M 95.78 38.90 C 99.75 36.71 103.48 33.74 108.10 33.08 C 100.97 36.64 94.15 40.85 86.85 44.04 C 89.58 41.92 92.82 40.65 95.78 38.90 Z" />
<path fill="#412c63" opacity="1.00" d=" M 105.38 36.73 C 107.26 35.70 109.16 34.70 111.00 33.58 L 111.00 65.58 C 110.14 55.80 108.63 46.02 105.38 36.73 Z" />
<path fill="#93b28e" opacity="1.00" d=" M 51.19 36.40 C 52.04 36.05 52.89 35.70 53.73 35.36 C 53.74 35.96 53.76 37.18 53.77 37.78 L 53.32 37.99 C 52.58 38.29 51.85 38.60 51.13 38.93 C 54.02 41.14 57.18 39.71 60.04 38.46 C 60.49 38.57 61.40 38.79 61.85 38.90 C 59.99 40.66 57.86 42.14 55.41 42.97 C 54.27 43.32 53.14 43.67 52.00 44.02 C 51.69 45.76 51.38 47.51 51.07 49.25 C 48.46 49.35 45.86 49.50 43.26 49.72 C 42.32 51.10 41.38 52.48 40.43 53.86 C 38.46 52.73 36.28 52.13 34.01 52.63 C 33.81 52.06 33.40 50.90 33.19 50.32 C 33.56 50.32 34.30 50.32 34.67 50.32 C 38.18 46.40 43.85 48.66 48.31 47.36 C 50.80 45.87 50.93 42.44 51.83 39.97 C 48.26 40.60 45.75 43.39 42.81 45.26 C 43.41 40.97 47.64 39.68 51.23 38.72 C 51.22 38.14 51.20 36.98 51.19 36.40 Z" />
<path fill="#63687e" opacity="1.00" d=" M 60.04 38.46 C 62.17 37.51 64.30 36.57 66.49 35.75 C 64.66 38.08 62.59 40.21 60.42 42.23 C 61.32 42.99 62.22 43.76 63.13 44.52 C 59.68 47.70 57.07 51.62 54.79 55.69 C 54.14 55.68 52.86 55.68 52.21 55.68 C 51.12 58.09 50.03 60.50 48.95 62.91 C 47.67 61.96 46.40 61.00 45.12 60.04 C 46.32 59.57 47.52 59.10 48.72 58.63 C 48.88 58.06 49.20 56.91 49.37 56.34 C 49.88 56.13 50.90 55.72 51.41 55.51 C 51.63 55.07 52.08 54.21 52.30 53.77 C 54.35 52.88 56.45 51.53 56.55 49.02 C 55.83 47.81 54.98 46.70 54.14 45.58 C 55.55 44.96 56.98 44.27 57.34 42.60 C 56.86 42.69 55.90 42.88 55.41 42.97 C 57.86 42.14 59.99 40.66 61.85 38.90 C 61.40 38.79 60.49 38.57 60.04 38.46 Z" />
<path fill="#99b797" opacity="1.00" d=" M 32.17 37.65 C 32.51 37.29 33.20 36.59 33.54 36.23 C 34.04 37.53 34.54 38.83 35.05 40.12 C 34.31 42.55 33.55 44.96 32.79 47.39 C 32.31 47.62 31.35 48.10 30.87 48.33 C 31.15 50.10 31.46 51.87 31.76 53.63 C 30.34 56.22 29.65 59.10 29.34 62.01 L 29.15 63.30 C 28.82 62.74 28.15 61.61 27.81 61.05 C 27.65 53.51 30.07 46.11 33.29 39.36 C 33.01 38.93 32.45 38.07 32.17 37.65 Z" />
<path fill="#727a7d" opacity="1.00" d=" M 90.82 44.69 C 95.16 42.51 99.28 39.94 103.67 37.86 C 105.93 47.73 109.11 57.72 108.21 67.97 C 108.27 69.35 106.92 70.09 106.22 71.10 C 105.76 69.29 105.17 67.44 105.37 65.55 C 105.73 62.01 105.63 58.44 104.94 54.95 C 104.11 50.53 103.89 45.89 101.88 41.80 C 99.12 42.57 96.73 44.18 94.38 45.75 C 93.18 45.42 92.00 45.07 90.82 44.69 Z" />
<path fill="#484a42" opacity="1.00" d=" M 71.03 40.03 C 71.96 39.37 74.65 40.02 73.62 41.48 C 72.41 43.27 68.16 41.57 71.03 40.03 Z" />
<path fill="#4a376e" opacity="1.00" d=" M 24.63 46.15 C 26.38 44.46 28.17 42.80 29.98 41.16 C 27.79 47.92 24.96 54.72 25.61 62.00 C 24.63 61.81 23.65 61.62 22.68 61.43 C 23.11 56.31 24.60 51.31 24.63 46.15 Z" />
<path fill="#93af99" opacity="1.00" d=" M 94.38 45.75 C 96.73 44.18 99.12 42.57 101.88 41.80 C 103.89 45.89 104.11 50.53 104.94 54.95 C 105.63 58.44 105.73 62.01 105.37 65.55 C 103.75 59.37 100.96 53.61 98.01 47.98 C 97.31 46.60 95.61 46.40 94.38 45.75 Z" />
<path fill="#b33686" opacity="1.00" d=" M 43.74 46.66 C 45.44 44.96 47.34 43.48 49.39 42.22 C 49.29 43.22 49.09 45.22 48.98 46.22 C 47.24 46.40 45.49 46.55 43.74 46.66 Z" />
<path fill="#a5b394" opacity="1.00" d=" M 81.53 43.50 C 83.91 44.10 85.54 46.37 87.97 46.93 C 90.32 47.63 92.84 47.85 95.08 48.92 C 97.13 50.66 97.03 53.61 97.43 56.05 C 96.43 56.56 95.43 57.09 94.44 57.62 C 89.36 53.12 84.73 47.87 78.51 44.90 C 79.49 44.38 80.50 43.92 81.53 43.50 Z" />
<path fill="#99a690" opacity="1.00" d=" M 56.03 59.25 C 58.14 52.96 62.23 47.09 68.08 43.81 C 66.45 46.65 64.23 49.09 62.61 51.94 C 60.83 54.69 59.04 57.69 56.03 59.25 Z" />
<path fill="#96ab99" opacity="1.00" d=" M 64.07 53.99 C 67.52 50.49 69.76 44.78 75.05 43.83 C 74.47 44.76 73.89 45.68 73.29 46.59 C 73.54 47.35 73.78 48.12 74.03 48.88 C 70.57 50.33 67.68 52.89 64.07 53.99 Z" />
<path fill="#6a747e" opacity="1.00" d=" M 76.08 46.18 C 76.88 45.74 77.68 45.29 78.51 44.90 C 84.73 47.87 89.36 53.12 94.44 57.62 C 91.38 60.30 88.54 56.65 86.46 54.64 C 82.94 51.85 80.55 47.60 76.08 46.18 Z" />
<path fill="#85449b" opacity="1.00" d=" M 15.70 59.23 C 17.91 54.40 20.93 49.96 24.63 46.15 C 24.60 51.31 23.11 56.31 22.68 61.43 C 21.64 60.33 20.60 59.24 19.56 58.16 C 18.27 58.51 16.99 58.87 15.70 59.23 Z" />
<path fill="#5f3148" opacity="1.00" d=" M 53.28 48.11 C 54.66 47.80 55.15 48.34 54.76 49.74 C 53.38 50.05 52.89 49.51 53.28 48.11 Z" />
<path fill="#99a690" opacity="1.00" d=" M 66.46 55.45 C 70.41 53.34 73.93 50.37 78.22 48.98 C 73.32 53.09 67.20 55.38 61.89 58.92 C 57.65 61.73 53.50 64.70 48.90 66.93 C 41.96 70.41 35.81 75.26 28.98 78.94 C 36.35 72.59 45.50 68.88 53.38 63.27 C 57.53 60.31 62.17 58.17 66.46 55.45 Z" />
<path fill="#684151" opacity="1.00" d=" M 52.10 50.34 C 55.44 50.54 50.53 53.30 52.10 50.34 Z" />
<path fill="#99b797" opacity="1.00" d=" M 44.48 52.70 C 46.13 52.21 47.72 51.47 49.45 51.31 C 49.85 52.53 50.17 53.78 50.39 55.05 C 49.15 54.45 47.91 53.85 46.66 53.27 C 45.89 53.43 45.13 53.65 44.38 53.90 C 44.40 53.60 44.46 53.00 44.48 52.70 Z" />
<path fill="#93b28e" opacity="1.00" d=" M 77.46 52.38 C 78.00 52.09 79.09 51.50 79.64 51.20 C 80.92 52.61 82.20 54.03 83.46 55.46 C 81.04 55.46 79.21 53.82 77.46 52.38 Z" />
<path fill="#5b7176" opacity="1.00" d=" M 65.05 60.20 C 69.31 57.79 73.26 54.89 77.46 52.38 C 79.21 53.82 81.04 55.46 83.46 55.46 L 83.95 55.54 C 85.04 56.47 86.11 57.43 87.18 58.39 C 84.56 58.26 81.83 58.03 79.44 59.36 C 77.38 60.39 75.98 57.40 73.98 57.40 C 71.70 58.10 69.57 59.58 68.56 61.80 C 69.70 61.70 70.84 61.59 71.97 61.47 C 71.54 62.99 71.11 64.50 70.69 66.03 C 71.53 68.30 72.03 70.67 72.38 73.07 C 70.99 73.46 69.61 73.85 68.23 74.25 C 67.61 72.79 66.99 71.34 66.37 69.88 C 67.22 69.05 68.06 68.22 68.91 67.39 C 68.60 67.30 67.97 67.10 67.66 67.01 C 65.09 65.83 62.99 69.11 60.29 68.60 L 61.26 67.62 C 62.90 66.47 64.59 65.38 66.28 64.29 C 64.88 64.10 63.47 63.91 62.06 63.77 C 62.94 62.49 63.61 60.94 65.05 60.20 Z" />
<path fill="#517679" opacity="1.00" d=" M 44.38 53.90 C 45.13 53.65 45.89 53.43 46.66 53.27 C 46.89 54.90 47.10 56.54 47.29 58.18 C 44.56 58.57 42.02 57.61 39.96 55.87 C 41.42 55.19 42.87 54.49 44.38 53.90 Z" />
<path fill="#6d7e83" opacity="1.00" d=" M 31.76 53.63 C 32.26 54.03 33.25 54.83 33.75 55.23 C 33.28 57.08 32.83 58.94 32.40 60.80 C 31.38 61.21 30.36 61.61 29.34 62.01 C 29.65 59.10 30.34 56.22 31.76 53.63 Z" />
<path fill="#282c50" opacity="1.00" d=" M 34.57 59.08 C 35.17 58.27 35.14 55.62 36.71 56.35 C 38.44 57.08 39.78 58.46 41.21 59.63 C 38.99 59.46 36.78 59.26 34.57 59.08 Z" />
<path fill="#473472" opacity="1.00" d=" M 96.44 59.41 C 97.69 58.65 98.73 57.03 100.33 57.22 C 101.87 62.05 104.11 67.00 104.18 72.09 C 102.45 70.51 100.86 68.79 99.11 67.23 C 98.24 64.62 97.36 62.00 96.44 59.41 Z" />
<path fill="#393f35" opacity="1.00" d=" M 52.16 59.24 C 55.50 59.33 50.65 62.24 52.16 59.24 Z" />
<path fill="#99b797" opacity="1.00" d=" M 15.49 63.72 C 14.96 61.43 17.45 61.06 18.77 60.05 C 19.81 61.28 20.85 62.49 21.90 63.71 C 22.51 63.71 23.73 63.70 24.34 63.70 C 24.43 65.01 24.52 66.32 24.61 67.64 C 24.35 67.59 23.82 67.51 23.56 67.46 C 22.46 66.30 21.45 65.05 20.38 63.86 C 19.32 61.32 17.17 62.59 15.49 63.72 Z" />
<path fill="#93429a" opacity="1.00" d=" M 86.19 60.74 C 87.41 60.58 88.63 60.41 89.85 60.24 C 90.85 60.77 91.84 61.30 92.85 61.82 C 94.05 61.02 95.24 60.21 96.44 59.41 C 97.36 62.00 98.24 64.62 99.11 67.23 C 95.18 65.97 91.15 65.04 87.08 64.36 C 86.78 63.15 86.49 61.94 86.19 60.74 Z" />
<path fill="#96ae8b" opacity="1.00" d=" M 26.57 67.75 C 29.03 64.35 32.90 62.11 36.94 61.16 C 39.93 62.11 43.08 62.28 46.06 63.14 C 39.55 64.59 33.28 67.41 26.57 67.75 Z" />
<path fill="#4c3b68" opacity="1.00" d=" M 75.02 61.24 C 76.30 61.69 77.55 62.29 78.91 62.47 C 81.25 61.53 83.61 60.54 86.19 60.74 C 86.49 61.94 86.78 63.15 87.08 64.36 C 82.78 63.65 78.42 63.94 74.19 64.86 C 74.47 63.65 74.74 62.45 75.02 61.24 Z" />
<path fill="#414c3d" opacity="1.00" d=" M 26.08 63.16 C 27.47 62.63 27.94 63.08 27.49 64.51 C 26.10 65.05 25.63 64.59 26.08 63.16 Z" />
<path fill="#5b6074" opacity="1.00" d=" M 46.06 63.14 C 46.75 63.63 47.40 64.18 48.06 64.71 C 44.27 66.64 40.75 69.08 36.88 70.84 C 31.80 70.20 26.70 69.92 21.60 70.55 C 21.58 70.85 21.53 71.44 21.50 71.74 C 19.92 69.17 18.56 66.48 17.41 63.69 C 18.15 63.73 19.64 63.82 20.38 63.86 C 21.45 65.05 22.46 66.30 23.56 67.46 C 23.82 67.51 24.35 67.59 24.61 67.64 C 25.26 67.73 25.91 67.76 26.57 67.75 C 33.28 67.41 39.55 64.59 46.06 63.14 Z" />
<path fill="#6f837a" opacity="1.00" d=" M 59.16 66.68 C 58.94 64.94 60.89 64.49 62.06 63.77 C 63.47 63.91 64.88 64.10 66.28 64.29 C 64.59 65.38 62.90 66.47 61.26 67.62 C 60.73 67.39 59.69 66.92 59.16 66.68 Z" />
<path fill="#333a3e" opacity="1.00" d=" M 55.23 65.26 C 56.88 64.75 57.42 65.30 56.86 66.91 C 55.21 67.42 54.66 66.87 55.23 65.26 Z" />
<path fill="#74856d" opacity="1.00" d=" M 15.36 66.11 C 16.29 65.00 18.80 66.18 17.86 67.60 C 16.95 68.65 14.46 67.50 15.36 66.11 Z" />
<path fill="#a5b99f" opacity="1.00" d=" M 67.66 67.01 C 67.97 67.10 68.60 67.30 68.91 67.39 C 68.06 68.22 67.22 69.05 66.37 69.88 C 66.99 71.34 67.61 72.79 68.23 74.25 C 66.13 74.47 63.93 75.66 61.84 74.86 C 60.88 72.81 63.83 71.82 64.89 70.62 C 64.12 70.58 62.59 70.50 61.83 70.46 C 63.75 69.26 65.70 68.13 67.66 67.01 Z" />
<path fill="#83559f" opacity="1.00" d=" M 12.46 68.10 C 13.46 68.44 14.47 68.79 15.47 69.14 C 14.90 71.14 16.61 72.09 17.95 73.13 C 18.34 72.93 19.11 72.55 19.49 72.35 C 20.18 74.41 21.94 73.60 23.39 72.96 C 23.72 74.01 24.04 75.06 24.37 76.11 C 22.05 77.68 19.91 79.49 17.86 81.40 C 16.73 79.33 15.59 77.27 14.45 75.21 C 13.37 76.24 12.29 77.26 11.20 78.28 C 11.33 74.86 11.77 71.46 12.46 68.10 Z" />
<path fill="#434440" opacity="1.00" d=" M 50.53 68.21 C 53.67 67.69 50.18 71.97 48.51 70.65 C 48.00 69.47 49.67 68.61 50.53 68.21 Z" />
<path fill="#a5b99f" opacity="1.00" d=" M 56.76 68.12 C 57.94 68.22 59.06 68.49 60.14 68.94 C 60.64 70.77 60.44 72.70 60.52 74.58 C 60.00 74.55 58.98 74.50 58.46 74.47 C 58.48 73.48 58.50 72.49 58.51 71.50 C 58.95 71.10 59.83 70.29 60.27 69.89 C 59.02 69.46 57.78 68.98 56.76 68.12 Z" />
<path fill="#73846c" opacity="1.00" d=" M 18.12 70.33 C 18.60 70.78 18.60 70.78 18.12 70.33 Z" />
<path fill="#9ab79c" opacity="1.00" d=" M 92.11 79.31 C 98.90 77.74 104.64 73.59 111.00 70.94 L 111.00 72.91 C 106.47 76.20 101.80 79.97 96.10 80.79 C 95.67 80.73 94.82 80.60 94.39 80.54 C 92.93 81.06 91.48 81.59 90.05 82.19 C 89.40 81.56 88.76 80.94 88.12 80.31 C 89.45 79.98 90.78 79.65 92.11 79.31 Z" />
<path fill="#512e5f" opacity="1.00" d=" M 23.13 72.10 C 23.86 72.08 25.33 72.03 26.06 72.00 C 26.54 73.07 27.02 74.14 27.50 75.21 C 26.46 75.51 25.41 75.81 24.37 76.11 C 24.04 75.06 23.72 74.01 23.39 72.96 L 23.13 72.10 Z" />
<path fill="#a5b99f" opacity="1.00" d=" M 28.02 72.03 C 29.70 72.21 31.37 72.41 33.04 72.64 C 32.01 73.96 30.72 75.03 29.32 75.93 C 28.88 74.63 28.44 73.33 28.02 72.03 Z" />
<path fill="#99a690" opacity="1.00" d=" M 73.33 75.56 C 73.98 74.76 74.63 73.96 75.28 73.15 C 75.31 73.68 75.36 74.72 75.39 75.24 C 71.56 75.89 67.89 78.28 64.01 77.92 C 64.11 77.63 64.30 77.05 64.40 76.76 C 67.35 76.21 70.35 75.98 73.33 75.56 Z" />
<path fill="#5a667e" opacity="1.00" d=" M 96.10 80.79 C 101.80 79.97 106.47 76.20 111.00 72.91 L 111.00 77.65 C 106.55 80.89 101.42 83.04 96.08 84.28 C 96.08 83.41 96.09 81.66 96.10 80.79 Z" />
<path fill="#944f89" opacity="1.00" d=" M 14.45 75.21 C 15.59 77.27 16.73 79.33 17.86 81.40 C 16.17 83.86 14.61 86.40 12.98 88.90 C 12.00 85.43 11.45 81.87 11.20 78.28 C 12.29 77.26 13.37 76.24 14.45 75.21 Z" />
<path fill="#5b5c56" opacity="1.00" d=" M 55.44 76.16 C 57.04 75.58 57.56 76.13 56.99 77.81 C 55.39 78.38 54.87 77.83 55.44 76.16 Z" />
<path fill="#ffffc6" opacity="1.00" d=" M 58.46 76.56 C 60.01 76.22 62.35 76.06 62.59 78.18 C 63.23 80.13 60.40 80.46 59.34 79.38 C 58.47 78.75 58.79 77.46 58.46 76.56 Z" />
<path fill="#2a2c27" opacity="0.98" d=" M 26.25 77.10 C 29.21 75.52 26.42 80.44 26.25 77.10 Z" />
<path fill="#4f4b49" opacity="1.00" d=" M 73.52 78.93 C 76.66 76.68 80.72 77.72 84.30 77.67 C 84.34 78.57 84.43 80.38 84.47 81.29 C 81.06 79.56 77.29 79.06 73.52 78.93 Z" />
<path fill="#000000" opacity="1.00" d=" M 96.08 84.28 C 101.42 83.04 106.55 80.89 111.00 77.65 L 111.00 80.43 C 106.98 83.26 102.30 84.90 97.59 86.16 C 102.30 89.67 107.59 92.65 111.00 97.59 L 111.00 101.71 C 107.72 96.16 102.71 92.07 97.27 88.78 C 95.15 87.58 94.02 85.45 93.33 83.20 C 91.47 83.82 89.69 84.89 87.69 84.96 C 87.99 83.72 89.18 83.02 90.05 82.19 C 91.48 81.59 92.93 81.06 94.39 80.54 C 94.82 80.60 95.67 80.73 96.10 80.79 C 96.09 81.66 96.08 83.41 96.08 84.28 Z" />
<path fill="#687463" opacity="1.00" d=" M 32.17 79.14 C 33.55 78.26 34.83 80.65 33.85 81.66 C 32.50 82.50 31.18 80.14 32.17 79.14 Z" />
<path fill="#636a7e" opacity="1.00" d=" M 86.55 79.78 C 88.40 79.65 90.26 79.52 92.11 79.31 C 90.78 79.65 89.45 79.98 88.12 80.31 C 88.76 80.94 89.40 81.56 90.05 82.19 C 89.18 83.02 87.99 83.72 87.69 84.96 C 89.69 84.89 91.47 83.82 93.33 83.20 C 94.02 85.45 95.15 87.58 97.27 88.78 C 97.25 89.60 97.21 91.23 97.19 92.05 C 95.28 90.45 93.10 89.24 90.90 88.11 C 90.36 89.07 89.82 90.02 89.28 90.99 C 88.72 89.87 88.17 88.76 87.62 87.65 L 87.66 88.15 C 87.25 86.64 86.82 85.13 86.36 83.63 C 86.42 82.35 86.48 81.06 86.55 79.78 Z" />
<path fill="#5b5c56" opacity="1.00" d=" M 48.50 83.12 C 50.48 81.05 53.28 80.43 56.02 80.16 C 55.44 83.90 51.27 83.04 48.50 83.12 Z" />
<path fill="#302a27" opacity="1.00" d=" M 58.89 81.45 C 61.12 81.83 63.23 81.06 65.22 80.13 C 66.93 83.86 66.89 88.01 67.21 92.01 C 66.13 91.61 65.06 91.20 63.98 90.79 C 63.48 91.08 62.47 91.67 61.97 91.96 C 62.95 89.99 64.02 88.07 65.15 86.18 C 64.23 86.34 63.32 86.50 62.40 86.67 C 61.42 84.81 60.29 83.02 58.89 81.45 Z" />
<path fill="#95ae89" opacity="1.00" d=" M 70.69 80.47 C 73.78 80.47 77.03 79.88 80.00 80.96 C 83.17 82.60 85.14 85.74 87.66 88.15 L 87.62 87.65 C 88.17 88.76 88.72 89.87 89.28 90.99 C 88.19 92.94 87.11 94.91 86.03 96.87 C 79.36 95.47 73.72 91.36 69.74 85.91 C 70.06 84.10 70.38 82.28 70.69 80.47 M 73.94 82.96 C 73.40 85.67 75.99 88.62 78.74 88.65 C 77.60 86.53 76.96 83.01 73.94 82.96 Z" />
<path fill="#5b5c56" opacity="1.00" d=" M 58.27 80.72 L 58.89 81.45 C 60.29 83.02 61.42 84.81 62.40 86.67 C 63.32 86.50 64.23 86.34 65.15 86.18 C 64.02 88.07 62.95 89.99 61.97 91.96 C 60.97 94.37 58.88 96.02 57.00 97.72 C 56.15 94.61 55.15 91.54 53.93 88.56 C 55.10 87.70 56.24 86.81 57.39 85.93 C 57.16 85.34 56.68 84.16 56.45 83.57 L 56.30 83.21 C 56.96 82.38 57.61 81.55 58.27 80.72 Z" />
<path fill="#cbd09b" opacity="1.00" d=" M 73.94 82.96 C 76.96 83.01 77.60 86.53 78.74 88.65 C 75.99 88.62 73.40 85.67 73.94 82.96 Z" />
<path fill="#a5b394" opacity="1.00" d=" M 56.45 83.57 C 56.68 84.16 57.16 85.34 57.39 85.93 C 56.24 86.81 55.10 87.70 53.93 88.56 C 53.45 88.88 52.50 89.54 52.02 89.86 C 53.24 87.59 54.84 85.57 56.45 83.57 Z" />
<path fill="#98af8d" opacity="1.00" d=" M 46.35 86.91 C 48.15 84.87 50.83 84.64 53.38 84.54 C 52.21 86.15 50.97 87.71 49.95 89.41 C 49.32 90.52 48.74 91.66 48.10 92.75 C 47.11 92.92 45.13 93.26 44.15 93.43 C 44.96 91.96 45.76 90.49 46.41 88.94 C 46.40 88.56 46.38 87.81 46.37 87.43 L 46.35 86.91 Z" />
<path fill="#ffffc6" opacity="1.00" d=" M 43.65 94.30 C 42.41 91.55 45.12 89.55 46.37 87.43 C 46.38 87.81 46.40 88.56 46.41 88.94 C 45.76 90.49 44.96 91.96 44.15 93.43 L 43.65 94.30 Z" />
<path fill="#5b6974" opacity="1.00" d=" M 48.10 92.75 C 48.74 91.66 49.32 90.52 49.95 89.41 C 49.11 91.84 51.55 91.14 53.06 91.23 C 53.55 92.78 54.02 94.33 54.49 95.89 C 52.60 97.75 51.34 100.08 50.01 102.34 C 49.41 102.17 48.21 101.83 47.61 101.67 C 48.01 100.72 48.36 99.76 48.70 98.79 L 48.77 98.62 C 49.55 96.54 50.20 94.42 50.83 92.29 C 50.15 92.41 48.78 92.64 48.10 92.75 Z" />
<path fill="#96ac81" opacity="1.00" d=" M 97.27 88.78 C 102.71 92.07 107.72 96.16 111.00 101.71 L 111.00 102.61 C 110.65 104.09 110.21 105.60 109.15 106.74 C 108.00 105.32 107.01 103.78 105.87 102.35 C 104.87 103.56 104.02 104.88 103.02 106.09 C 101.46 108.25 98.47 108.00 96.17 108.73 C 96.77 107.69 97.38 106.66 98.00 105.64 C 99.14 105.82 100.29 106.02 101.43 106.20 C 100.93 101.28 100.59 95.98 97.19 92.05 C 97.21 91.23 97.25 89.60 97.27 88.78 Z" />
<path fill="#ffffc6" opacity="1.00" d=" M 46.02 101.36 C 46.90 100.49 47.79 99.63 48.70 98.79 C 48.36 99.76 48.01 100.72 47.61 101.67 C 46.80 103.16 45.77 105.10 43.76 104.15 C 42.77 105.91 40.98 106.60 39.09 106.88 C 40.45 104.33 42.60 102.34 45.70 104.00 C 45.41 103.39 44.82 102.18 44.53 101.57 C 44.90 101.52 45.65 101.41 46.02 101.36 Z" />
<path fill="#fbe2a9" opacity="1.00" d=" M 35.31 105.46 C 34.83 104.21 36.56 102.25 37.83 102.94 C 38.32 104.22 36.57 106.00 35.31 105.46 Z" />
<path fill="#fbe2a9" opacity="1.00" d=" M 47.67 107.22 C 45.80 106.98 46.69 104.12 48.11 103.84 C 49.84 104.13 49.09 106.99 47.67 107.22 Z" />
<path fill="#cdc882" opacity="1.00" d=" M 105.40 107.82 C 104.50 106.60 104.72 105.88 106.05 105.65 C 106.98 106.87 106.76 107.60 105.40 107.82 Z" />
<path fill="#010101" opacity="0.81" d=" M 102.40 111.00 C 105.24 110.40 108.11 109.96 111.00 109.72 L 111.00 111.00 L 102.40 111.00 Z" />
</svg>
