<?xml version="1.0" encoding="UTF-8" ?>
<!DOCTYPE svg PUBLIC "-//W3C//DTD SVG 1.1//EN" "http://www.w3.org/Graphics/SVG/1.1/DTD/svg11.dtd">
<svg width="111pt" height="111pt" viewBox="0 0 111 111" version="1.1" xmlns="http://www.w3.org/2000/svg">
<path fill="#000000" opacity="0.96" d=" M 41.10 4.07 C 43.48 2.38 46.01 4.90 46.95 7.02 C 50.55 13.95 49.11 22.20 45.82 28.95 C 49.93 25.88 54.66 22.40 60.09 23.03 C 63.35 23.42 64.87 27.24 63.81 30.09 C 62.24 35.90 57.29 39.91 52.62 43.31 C 55.21 46.08 58.03 49.05 58.61 52.96 C 59.17 58.87 57.76 64.88 55.37 70.28 C 53.66 73.15 52.06 76.92 48.57 77.88 C 49.91 76.14 51.34 74.48 52.73 72.78 C 55.51 68.76 56.72 63.90 57.51 59.14 C 58.96 53.50 56.30 47.63 51.89 44.10 C 50.66 44.43 49.62 45.20 48.52 45.79 C 50.02 47.75 51.48 49.78 52.49 52.05 C 52.50 54.85 52.52 57.65 52.29 60.44 C 50.77 63.92 49.82 67.80 47.10 70.60 C 47.50 67.23 49.79 64.48 50.49 61.18 C 51.86 56.71 52.20 50.98 48.42 47.56 C 45.90 46.39 43.30 48.67 40.84 49.21 C 41.72 53.32 42.64 57.86 40.69 61.82 C 36.78 69.74 27.14 74.18 18.55 72.46 C 21.08 72.26 23.74 72.37 26.06 71.17 C 31.30 70.55 35.91 67.12 38.86 62.87 C 41.92 58.29 40.90 52.33 39.03 47.51 C 39.05 52.32 37.41 57.00 34.32 60.68 C 34.02 58.16 36.11 56.23 37.08 54.07 C 36.86 53.46 36.42 52.24 36.21 51.64 C 38.91 47.77 36.55 42.65 34.14 39.22 C 27.56 34.99 18.03 37.01 12.59 42.33 C 11.02 44.03 9.53 45.85 8.49 47.94 C 6.64 52.51 6.28 57.71 8.30 62.29 C 8.92 63.71 9.81 65.00 11.29 65.63 C 10.83 65.69 9.92 65.81 9.47 65.88 C 8.13 65.67 6.95 66.08 5.92 67.10 C 9.07 68.96 12.86 69.05 16.35 68.32 C 16.35 69.01 16.36 70.39 16.36 71.09 C 12.99 69.59 9.06 70.20 5.84 68.31 C 5.50 65.16 3.11 62.79 2.52 59.72 C 3.84 60.22 5.16 60.74 6.47 61.27 C 3.63 52.47 7.99 42.59 15.90 38.08 C 14.39 32.54 14.21 26.66 15.21 21.02 C 15.61 19.24 15.83 17.16 17.44 16.01 C 15.16 23.01 15.01 30.54 16.56 37.71 C 17.88 37.26 19.21 36.83 20.54 36.43 C 21.22 36.29 22.57 36.01 23.24 35.87 C 23.78 29.34 23.89 22.25 20.31 16.48 L 19.72 15.71 C 19.16 15.65 18.04 15.54 17.49 15.49 L 17.53 14.56 C 22.34 14.01 23.47 20.35 24.20 23.90 C 24.16 25.48 24.10 27.06 24.02 28.64 C 24.93 27.96 25.83 27.27 26.72 26.56 C 25.63 29.51 24.84 32.57 24.12 35.64 C 26.25 35.71 28.37 35.76 30.50 35.91 C 32.99 36.73 34.97 38.48 36.62 40.45 C 38.58 36.80 41.45 33.76 43.64 30.26 C 47.72 23.34 49.32 14.56 45.74 7.09 C 44.86 6.17 43.97 5.27 43.06 4.38 C 37.20 7.21 33.74 12.99 30.45 18.32 L 29.64 17.30 C 32.72 12.38 35.91 7.03 41.10 4.07 M 52.92 25.73 C 46.05 29.13 41.59 35.60 36.79 41.31 C 37.26 42.49 37.72 43.68 38.18 44.87 C 39.05 45.94 39.91 47.03 40.78 48.12 C 44.20 46.79 47.44 45.06 50.53 43.09 C 51.92 42.10 53.32 41.11 54.73 40.13 C 58.89 36.53 63.82 31.76 62.49 25.68 C 59.78 23.23 55.85 24.31 52.92 25.73 M 4.57 61.64 C 4.33 63.07 5.63 64.88 7.03 65.24 C 9.11 64.00 6.22 61.34 4.57 61.64 Z" />
<path fill="#bdff9c" opacity="1.00" d=" M 30.45 18.32 C 33.74 12.99 37.20 7.21 43.06 4.38 C 43.97 5.27 44.86 6.17 45.74 7.09 C 42.20 13.91 38.49 20.65 34.61 27.29 C 33.01 30.05 31.66 32.94 30.50 35.91 C 28.37 35.76 26.25 35.71 24.12 35.64 C 24.84 32.57 25.63 29.51 26.72 26.56 C 27.51 23.46 30.74 20.44 29.64 17.30 L 30.45 18.32 Z" />
<path fill="#448e86" opacity="1.00" d=" M 45.74 7.09 C 49.32 14.56 47.72 23.34 43.64 30.26 C 40.56 29.43 37.88 27.35 34.61 27.29 C 38.49 20.65 42.20 13.91 45.74 7.09 Z" />
<path fill="#b7fa9b" opacity="1.00" d=" M 17.49 15.49 C 18.04 15.54 19.16 15.65 19.72 15.71 L 20.31 16.48 C 20.44 23.13 20.39 29.78 20.54 36.43 C 19.21 36.83 17.88 37.26 16.56 37.71 C 15.01 30.54 15.16 23.01 17.44 16.01 C 17.45 15.88 17.47 15.62 17.49 15.49 Z" />
<path fill="#63a28a" opacity="1.00" d=" M 20.31 16.48 C 23.89 22.25 23.78 29.34 23.24 35.87 C 22.57 36.01 21.22 36.29 20.54 36.43 C 20.39 29.78 20.44 23.13 20.31 16.48 Z" />
<path fill="#161c12" opacity="0.73" d=" M 24.83 27.17 C 26.51 23.91 27.70 20.42 29.64 17.30 C 30.74 20.44 27.51 23.46 26.72 26.56 C 25.83 27.27 24.93 27.96 24.02 28.64 C 24.10 27.06 24.16 25.48 24.20 23.90 C 24.35 24.72 24.67 26.35 24.83 27.17 Z" />
<path fill="#bafc9c" opacity="1.00" d=" M 52.92 25.73 C 55.85 24.31 59.78 23.23 62.49 25.68 C 58.53 28.67 54.64 31.75 50.73 34.81 C 49.08 36.17 47.54 37.64 45.95 39.06 C 43.53 41.22 40.88 43.08 38.18 44.87 C 37.72 43.68 37.26 42.49 36.79 41.31 C 41.59 35.60 46.05 29.13 52.92 25.73 Z" />
<path fill="#1f7881" opacity="1.00" d=" M 50.73 34.81 C 54.64 31.75 58.53 28.67 62.49 25.68 C 63.82 31.76 58.89 36.53 54.73 40.13 C 53.96 37.96 52.56 36.18 50.73 34.81 Z" />
<path fill="#589f89" opacity="1.00" d=" M 34.61 27.29 C 37.88 27.35 40.56 29.43 43.64 30.26 C 41.45 33.76 38.58 36.80 36.62 40.45 C 34.97 38.48 32.99 36.73 30.50 35.91 C 31.66 32.94 33.01 30.05 34.61 27.29 Z" />
<path fill="#408b85" opacity="1.00" d=" M 45.95 39.06 C 47.54 37.64 49.08 36.17 50.73 34.81 C 52.56 36.18 53.96 37.96 54.73 40.13 C 53.32 41.11 51.92 42.10 50.53 43.09 C 49.00 41.75 47.48 40.40 45.95 39.06 Z" />
<path fill="#a782b6" opacity="1.00" d=" M 12.59 42.33 C 18.03 37.01 27.56 34.99 34.14 39.22 C 32.34 42.91 31.80 47.18 29.28 50.51 C 28.21 51.65 27.92 53.18 27.89 54.69 C 26.54 55.82 25.18 56.96 23.82 58.09 C 22.56 55.81 21.16 53.58 19.17 51.86 C 18.96 55.00 18.93 58.14 18.96 61.28 C 15.40 61.55 11.85 61.89 8.30 62.29 C 6.28 57.71 6.64 52.51 8.49 47.94 C 8.05 50.53 10.00 53.27 12.80 52.79 C 14.97 51.51 17.11 49.53 17.63 46.98 C 17.87 44.05 14.61 43.34 12.59 42.33 M 24.07 47.13 C 23.52 48.75 24.07 49.31 25.71 48.80 C 26.25 47.18 25.70 46.62 24.07 47.13 Z" />
<path fill="#559a88" opacity="1.00" d=" M 38.18 44.87 C 40.88 43.08 43.53 41.22 45.95 39.06 C 47.48 40.40 49.00 41.75 50.53 43.09 C 47.44 45.06 44.20 46.79 40.78 48.12 C 39.91 47.03 39.05 45.94 38.18 44.87 Z" />
<path fill="#7c5b9d" opacity="1.00" d=" M 29.28 50.51 C 31.80 47.18 32.34 42.91 34.14 39.22 C 36.55 42.65 38.91 47.77 36.21 51.64 C 35.55 52.49 34.88 53.34 34.21 54.18 C 32.59 52.92 30.95 51.69 29.28 50.51 Z" />
<path fill="#ffbefe" opacity="1.00" d=" M 8.49 47.94 C 9.53 45.85 11.02 44.03 12.59 42.33 C 14.61 43.34 17.87 44.05 17.63 46.98 C 17.11 49.53 14.97 51.51 12.80 52.79 C 10.00 53.27 8.05 50.53 8.49 47.94 Z" />
<path fill="#204f58" opacity="1.00" d=" M 48.52 45.79 C 49.62 45.20 50.66 44.43 51.89 44.10 C 56.30 47.63 58.96 53.50 57.51 59.14 C 57.25 57.79 56.95 56.46 56.65 55.13 C 56.16 56.12 55.67 57.11 55.18 58.10 C 54.91 55.81 54.58 53.52 54.16 51.24 C 53.74 51.45 52.91 51.85 52.49 52.05 C 51.48 49.78 50.02 47.75 48.52 45.79 Z" />
<path fill="#ecb5f0" opacity="1.00" d=" M 24.07 47.13 C 25.70 46.62 26.25 47.18 25.71 48.80 C 24.07 49.31 23.52 48.75 24.07 47.13 Z" />
<path fill="#715196" opacity="1.00" d=" M 39.03 47.51 C 40.90 52.33 41.92 58.29 38.86 62.87 C 35.91 67.12 31.30 70.55 26.06 71.17 C 27.16 69.45 28.25 67.69 28.72 65.69 C 30.74 64.21 32.70 62.61 34.32 60.68 C 37.41 57.00 39.05 52.32 39.03 47.51 Z" />
<path fill="#322c55" opacity="1.00" d=" M 27.89 54.69 C 27.92 53.18 28.21 51.65 29.28 50.51 C 30.95 51.69 32.59 52.92 34.21 54.18 C 34.88 53.34 35.55 52.49 36.21 51.64 C 36.42 52.24 36.86 53.46 37.08 54.07 C 36.11 56.23 34.02 58.16 34.32 60.68 C 32.70 62.61 30.74 64.21 28.72 65.69 C 24.96 68.19 20.24 68.55 16.53 71.12 L 16.36 71.09 C 16.36 70.39 16.35 69.01 16.35 68.32 C 19.98 67.13 23.56 65.79 27.02 64.16 C 21.25 64.97 15.16 68.82 9.47 65.88 C 9.92 65.81 10.83 65.69 11.29 65.63 C 13.84 65.26 16.41 65.01 18.98 64.79 C 18.97 63.62 18.97 62.45 18.96 61.28 C 18.93 58.14 18.96 55.00 19.17 51.86 C 21.16 53.58 22.56 55.81 23.82 58.09 C 24.72 59.59 25.74 61.02 26.76 62.44 C 28.53 60.19 27.88 57.31 27.89 54.69 M 29.57 52.20 C 29.59 54.81 29.58 57.43 29.57 60.04 C 30.93 58.87 32.22 57.61 33.43 56.28 C 32.28 54.80 30.96 53.46 29.57 52.20 M 20.11 55.22 C 20.27 58.18 20.41 61.15 20.49 64.11 C 22.01 63.80 23.48 63.29 24.89 62.65 C 23.34 60.14 21.82 57.62 20.11 55.22 Z" />
<path fill="#306b6b" opacity="1.00" d=" M 52.49 52.05 C 52.91 51.85 53.74 51.45 54.16 51.24 C 54.58 53.52 54.91 55.81 55.18 58.10 C 55.67 57.11 56.16 56.12 56.65 55.13 C 56.95 56.46 57.25 57.79 57.51 59.14 C 56.72 63.90 55.51 68.76 52.73 72.78 C 51.68 72.58 50.63 72.37 49.58 72.17 C 51.76 68.15 54.06 63.84 53.28 59.10 C 53.03 59.44 52.53 60.11 52.29 60.44 C 52.52 57.65 52.50 54.85 52.49 52.05 Z" />
<path fill="#ffffd5" opacity="1.00" d=" M 29.57 52.20 C 30.96 53.46 32.28 54.80 33.43 56.28 C 32.22 57.61 30.93 58.87 29.57 60.04 C 29.58 57.43 29.59 54.81 29.57 52.20 Z" />
<path fill="#75549c" opacity="1.00" d=" M 23.82 58.09 C 25.18 56.96 26.54 55.82 27.89 54.69 C 27.88 57.31 28.53 60.19 26.76 62.44 C 25.74 61.02 24.72 59.59 23.82 58.09 Z" />
<path fill="#ffffd2" opacity="1.00" d=" M 20.11 55.22 C 21.82 57.62 23.34 60.14 24.89 62.65 C 23.48 63.29 22.01 63.80 20.49 64.11 C 20.41 61.15 20.27 58.18 20.11 55.22 Z" />
<path fill="#8ab090" opacity="1.00" d=" M 53.28 59.10 C 54.06 63.84 51.76 68.15 49.58 72.17 C 48.38 73.53 47.06 74.79 45.83 76.12 C 45.65 75.83 45.29 75.24 45.11 74.94 C 45.64 73.88 46.04 72.77 46.33 71.62 C 46.41 71.45 46.57 71.10 46.66 70.92 C 46.77 70.84 46.99 70.68 47.10 70.60 C 49.82 67.80 50.77 63.92 52.29 60.44 C 52.53 60.11 53.03 59.44 53.28 59.10 Z" />
<path fill="#8665a3" opacity="1.00" d=" M 8.30 62.29 C 11.85 61.89 15.40 61.55 18.96 61.28 C 18.97 62.45 18.97 63.62 18.98 64.79 C 16.41 65.01 13.84 65.26 11.29 65.63 C 9.81 65.00 8.92 63.71 8.30 62.29 Z" />
<path fill="#ffffd5" opacity="1.00" d=" M 4.57 61.64 C 6.22 61.34 9.11 64.00 7.03 65.24 C 5.63 64.88 4.33 63.07 4.57 61.64 Z" />
<path fill="#7c5b9d" opacity="1.00" d=" M 9.47 65.88 C 15.16 68.82 21.25 64.97 27.02 64.16 C 23.56 65.79 19.98 67.13 16.35 68.32 C 12.86 69.05 9.07 68.96 5.92 67.10 C 6.95 66.08 8.13 65.67 9.47 65.88 Z" />
<path fill="#7e5d9d" opacity="1.00" d=" M 16.53 71.12 C 20.24 68.55 24.96 68.19 28.72 65.69 C 28.25 67.69 27.16 69.45 26.06 71.17 C 22.91 71.83 19.65 72.09 16.53 71.12 Z" />
<path fill="#121410" opacity="0.83" d=" M 42.93 76.02 C 43.33 74.12 44.38 72.27 46.33 71.62 C 46.04 72.77 45.64 73.88 45.11 74.94 C 44.57 75.21 43.47 75.75 42.93 76.02 Z" />
<path fill="#63a28a" opacity="1.00" d=" M 45.83 76.12 C 47.06 74.79 48.38 73.53 49.58 72.17 C 50.63 72.37 51.68 72.58 52.73 72.78 C 51.34 74.48 49.91 76.14 48.57 77.88 L 50.96 78.04 L 49.43 77.95 C 47.87 77.78 46.98 78.51 46.74 80.13 C 46.44 80.34 45.84 80.78 45.54 81.00 C 45.12 81.32 44.29 81.96 43.88 82.27 C 43.68 81.68 43.27 80.50 43.07 79.91 C 44.02 78.67 44.91 77.38 45.83 76.12 Z" />
<path fill="#ffffd2" opacity="1.00" d=" M 42.93 76.02 C 43.47 75.75 44.57 75.21 45.11 74.94 C 45.29 75.24 45.65 75.83 45.83 76.12 C 44.91 77.38 44.02 78.67 43.07 79.91 C 41.85 80.58 40.58 81.14 39.28 81.63 C 40.39 80.21 41.61 78.83 42.25 77.12 C 42.42 76.85 42.76 76.30 42.93 76.02 Z" />
<path fill="#000000" opacity="1.00" d=" M 35.76 84.75 C 37.61 81.98 39.29 78.86 42.25 77.12 C 41.61 78.83 40.39 80.21 39.28 81.63 C 37.36 83.83 35.85 86.36 35.16 89.22 C 36.67 89.80 38.24 90.78 39.89 90.03 C 44.37 88.75 48.48 86.38 53.02 85.29 C 54.46 84.87 55.81 85.83 57.18 86.11 C 56.73 87.40 56.24 88.67 55.69 89.92 C 55.77 89.05 55.92 87.32 55.99 86.46 C 51.48 86.54 47.39 88.41 43.31 90.10 C 40.72 91.01 37.23 92.52 35.04 90.04 C 33.65 88.44 34.87 86.27 35.76 84.75 Z" />
<path fill="#17211c" opacity="0.91" d=" M 46.74 80.13 C 46.98 78.51 47.87 77.78 49.43 77.95 C 48.92 79.15 48.03 79.87 46.74 80.13 Z" />
<path fill="#000000" opacity="0.96" d=" M 46.39 82.52 C 50.50 80.75 54.95 79.06 59.51 79.68 C 62.28 80.13 64.17 83.07 63.58 85.80 C 62.56 91.20 58.87 95.62 54.93 99.24 C 57.09 99.04 59.40 98.06 61.54 98.95 C 61.84 100.42 61.36 101.65 60.10 102.63 C 60.19 101.87 60.39 100.35 60.49 99.59 C 57.90 99.90 55.29 99.97 52.69 99.86 C 56.92 96.10 61.04 91.66 62.37 85.99 C 62.79 84.56 62.11 83.16 61.69 81.82 C 54.97 78.54 47.92 83.30 41.65 85.61 C 42.38 84.49 43.09 83.35 43.88 82.27 C 44.29 81.96 45.12 81.32 45.54 81.00 C 45.75 81.38 46.17 82.14 46.39 82.52 Z" />
<path fill="#b1cc9b" opacity="1.00" d=" M 39.28 81.63 C 40.58 81.14 41.85 80.58 43.07 79.91 C 43.27 80.50 43.68 81.68 43.88 82.27 C 43.09 83.35 42.38 84.49 41.65 85.61 C 47.92 83.30 54.97 78.54 61.69 81.82 C 60.62 86.48 57.86 90.43 55.49 94.50 C 54.67 95.93 53.60 97.23 52.07 97.96 C 52.10 98.47 52.17 99.51 52.20 100.03 C 49.65 100.81 47.90 102.87 45.90 104.50 C 45.45 104.77 44.56 105.33 44.11 105.60 C 43.01 104.67 41.91 103.75 40.80 102.83 C 44.45 101.19 48.89 100.15 50.90 96.29 C 52.54 94.20 54.38 92.24 55.69 89.92 C 56.24 88.67 56.73 87.40 57.18 86.11 C 55.81 85.83 54.46 84.87 53.02 85.29 C 48.48 86.38 44.37 88.75 39.89 90.03 C 38.24 90.78 36.67 89.80 35.16 89.22 C 35.85 86.36 37.36 83.83 39.28 81.63 Z" />
<path fill="#306b6b" opacity="1.00" d=" M 61.69 81.82 C 62.11 83.16 62.79 84.56 62.37 85.99 C 61.04 91.66 56.92 96.10 52.69 99.86 L 52.20 100.03 C 52.17 99.51 52.10 98.47 52.07 97.96 C 53.60 97.23 54.67 95.93 55.49 94.50 C 57.86 90.43 60.62 86.48 61.69 81.82 Z" />
<path fill="#000000" opacity="1.00" d=" M 40.15 102.09 C 43.95 100.61 47.73 98.92 50.90 96.29 C 48.89 100.15 44.45 101.19 40.80 102.83 C 41.91 103.75 43.01 104.67 44.11 105.60 C 43.94 106.11 43.60 107.12 43.43 107.63 C 43.06 106.92 42.34 105.49 41.97 104.78 C 36.59 108.77 29.61 109.03 23.23 109.94 C 28.88 107.96 34.98 107.58 40.46 105.03 C 40.38 104.29 40.23 102.83 40.15 102.09 Z" />
<path fill="#000000" opacity="1.00" d=" M 62.88 101.81 C 64.82 100.16 67.78 98.12 70.33 99.64 C 71.21 101.52 71.30 103.63 71.64 105.64 C 73.61 104.74 75.56 103.78 77.48 102.78 C 77.42 103.65 77.28 105.40 77.21 106.27 C 86.21 106.33 95.15 107.54 104.00 109.06 C 105.83 109.30 107.48 110.13 109.08 111.00 L 27.93 111.00 C 31.65 110.33 35.19 108.98 38.88 108.19 C 40.30 108.97 41.73 109.75 43.31 110.14 C 44.67 110.33 46.04 110.47 47.41 110.57 C 47.45 109.33 47.49 108.09 47.52 106.85 C 47.98 106.76 48.90 106.59 49.36 106.50 L 51.11 106.37 C 51.08 106.94 51.02 108.08 50.99 108.64 C 50.97 109.10 50.93 110.00 50.91 110.45 C 53.35 110.01 55.52 108.81 57.46 107.30 C 57.76 107.45 58.36 107.75 58.66 107.89 C 60.48 108.78 62.35 109.56 64.22 110.32 C 64.26 108.71 64.21 107.11 64.25 105.50 C 65.31 105.18 66.38 104.87 67.44 104.56 C 67.99 105.83 68.58 107.09 69.19 108.33 C 70.31 109.09 71.51 109.98 72.95 109.76 C 75.30 109.06 75.87 106.40 76.83 104.48 C 74.92 105.36 72.93 106.07 70.85 106.44 C 70.54 104.66 70.23 102.88 69.74 101.14 C 69.73 99.39 67.72 100.50 66.83 100.62 C 65.84 100.92 63.87 101.51 62.88 101.81 Z" />
<path fill="#518171" opacity="1.00" d=" M 45.90 104.50 C 47.90 102.87 49.65 100.81 52.20 100.03 L 52.06 100.54 C 51.09 102.49 50.16 104.47 49.36 106.50 C 48.90 106.59 47.98 106.76 47.52 106.85 C 47.49 108.09 47.45 109.33 47.41 110.57 C 46.04 110.47 44.67 110.33 43.31 110.14 L 42.80 109.55 C 43.15 109.31 43.84 108.84 44.19 108.60 C 45.27 107.47 45.86 106.06 45.90 104.50 Z" />
<path fill="#5a8674" opacity="1.00" d=" M 52.20 100.03 L 52.69 99.86 C 55.29 99.97 57.90 99.90 60.49 99.59 C 60.39 100.35 60.19 101.87 60.10 102.63 C 59.60 103.01 59.09 103.36 58.55 103.68 C 55.84 105.03 53.31 106.71 50.99 108.64 C 51.02 108.08 51.08 106.94 51.11 106.37 C 53.56 105.79 55.64 103.86 55.80 101.26 C 54.55 101.00 53.31 100.76 52.06 100.54 L 52.20 100.03 Z" />
<path fill="#acc798" opacity="1.00" d=" M 66.83 100.62 C 67.72 100.50 69.73 99.39 69.74 101.14 C 70.23 102.88 70.54 104.66 70.85 106.44 C 70.30 107.07 69.74 107.69 69.19 108.33 C 68.58 107.09 67.99 105.83 67.44 104.56 C 67.19 103.25 67.02 101.93 66.83 100.62 Z" />
<path fill="#8db28d" opacity="1.00" d=" M 52.06 100.54 C 53.31 100.76 54.55 101.00 55.80 101.26 C 55.64 103.86 53.56 105.79 51.11 106.37 L 49.36 106.50 C 50.16 104.47 51.09 102.49 52.06 100.54 Z" />
<path fill="#8ab090" opacity="1.00" d=" M 63.76 101.97 L 62.88 101.81 C 63.87 101.51 65.84 100.92 66.83 100.62 C 67.02 101.93 67.19 103.25 67.44 104.56 C 66.38 104.87 65.31 105.18 64.25 105.50 C 64.21 107.11 64.26 108.71 64.22 110.32 C 62.35 109.56 60.48 108.78 58.66 107.89 C 58.69 107.46 58.73 106.60 58.75 106.17 C 60.22 104.55 61.93 103.16 63.76 101.97 Z" />
<path fill="#3c7065" opacity="1.00" d=" M 50.99 108.64 C 53.31 106.71 55.84 105.03 58.55 103.68 C 58.60 104.30 58.70 105.55 58.75 106.17 C 58.73 106.60 58.69 107.46 58.66 107.89 C 58.36 107.75 57.76 107.45 57.46 107.30 C 55.52 108.81 53.35 110.01 50.91 110.45 C 50.93 110.00 50.97 109.10 50.99 108.64 Z" />
<path fill="#8ab090" opacity="1.00" d=" M 23.23 109.94 C 29.61 109.03 36.59 108.77 41.97 104.78 C 42.34 105.49 43.06 106.92 43.43 107.63 C 43.60 107.12 43.94 106.11 44.11 105.60 C 44.56 105.33 45.45 104.77 45.90 104.50 C 45.86 106.06 45.27 107.47 44.19 108.60 C 42.67 107.80 42.21 108.12 42.80 109.55 L 43.31 110.14 C 41.73 109.75 40.30 108.97 38.88 108.19 C 35.19 108.98 31.65 110.33 27.93 111.00 L 21.69 111.00 L 22.12 110.25 C 22.40 110.17 22.95 110.02 23.23 109.94 Z" />
<path fill="#508880" opacity="1.00" d=" M 70.85 106.44 C 72.93 106.07 74.92 105.36 76.83 104.48 C 75.87 106.40 75.30 109.06 72.95 109.76 C 71.51 109.98 70.31 109.09 69.19 108.33 C 69.74 107.69 70.30 107.07 70.85 106.44 Z" />
<path fill="#a9c99b" opacity="1.00" d=" M 42.80 109.55 C 42.21 108.12 42.67 107.80 44.19 108.60 C 43.84 108.84 43.15 109.31 42.80 109.55 Z" />
<path fill="#0d0f0b" opacity="0.76" d=" M 19.82 111.00 C 20.19 110.73 20.92 110.20 21.28 109.94 L 22.12 110.25 L 21.69 111.00 L 19.82 111.00 Z" />
</svg>
