<?xml version="1.0" encoding="UTF-8" ?>
<!DOCTYPE svg PUBLIC "-//W3C//DTD SVG 1.1//EN" "http://www.w3.org/Graphics/SVG/1.1/DTD/svg11.dtd">
<svg width="111pt" height="111pt" viewBox="0 0 111 111" version="1.1" xmlns="http://www.w3.org/2000/svg">
<path fill="#080a08" opacity="1.00" d=" M 39.70 0.00 L 41.90 0.00 C 32.67 8.21 28.23 20.87 27.41 32.96 C 30.56 33.26 33.59 34.26 36.72 34.69 C 37.09 34.46 37.84 34.02 38.21 33.80 C 41.25 29.45 44.49 25.24 47.54 20.90 C 51.70 14.84 55.98 7.64 53.84 0.00 L 55.17 0.00 C 58.18 11.22 49.16 20.25 43.64 28.93 C 50.42 24.92 57.83 20.33 66.04 21.26 C 68.63 21.47 71.25 24.18 69.94 26.82 C 67.40 32.73 61.01 35.38 55.77 38.40 C 62.15 40.66 65.03 47.45 64.52 53.85 C 64.99 53.63 65.92 53.19 66.38 52.97 C 66.12 50.92 65.88 48.87 65.68 46.81 C 68.21 53.87 70.44 61.79 77.06 66.18 C 77.57 65.98 78.57 65.59 79.07 65.39 C 80.36 64.63 81.63 63.83 82.90 63.04 C 79.64 57.04 74.43 52.48 69.02 48.47 C 67.86 47.66 66.65 46.90 65.47 46.11 L 64.93 44.37 C 70.47 47.33 75.14 51.58 79.56 55.96 C 76.59 45.40 76.75 33.79 81.13 23.63 C 89.71 29.19 93.13 39.81 94.93 49.37 C 96.66 45.97 98.78 42.80 101.18 39.84 C 105.93 46.73 103.64 55.93 100.27 62.91 C 106.72 66.78 110.83 74.13 110.26 81.70 C 109.38 82.99 109.63 83.95 111.00 84.59 L 111.00 85.20 C 108.37 87.56 106.67 90.68 104.96 93.72 C 108.34 93.75 109.37 89.97 111.00 87.71 L 111.00 89.80 C 109.64 92.21 108.76 94.85 107.36 97.23 C 103.68 101.67 97.50 103.33 91.91 102.68 C 85.85 102.03 79.64 100.11 75.04 95.95 C 75.26 94.30 75.42 92.65 75.53 90.99 C 78.38 87.61 81.13 84.15 84.14 80.91 C 84.66 83.38 85.16 85.86 85.48 88.37 C 85.46 90.97 85.40 93.57 85.27 96.17 C 90.25 97.63 95.76 97.83 100.58 95.67 C 106.53 91.29 110.27 83.44 108.35 76.07 C 106.90 69.12 100.92 63.26 93.72 62.73 C 83.15 62.03 71.90 69.79 71.16 80.86 C 72.58 79.80 73.97 78.70 75.41 77.67 C 75.35 81.77 74.98 85.86 74.58 89.94 L 73.48 89.18 C 73.84 85.96 74.30 82.75 74.43 79.51 C 72.07 81.74 69.32 84.32 70.31 87.92 C 70.97 88.16 72.28 88.65 72.94 88.89 C 72.75 89.35 72.38 90.28 72.19 90.74 C 72.67 91.98 73.16 93.22 73.65 94.45 C 70.84 91.06 67.74 86.42 70.18 82.00 C 69.79 76.35 72.09 70.97 76.33 67.25 C 73.00 64.56 70.33 61.20 68.10 57.57 C 66.98 58.18 65.87 58.80 64.77 59.44 C 65.80 58.31 66.83 57.18 67.86 56.05 C 67.48 55.60 66.70 54.68 66.31 54.23 C 65.26 55.14 64.21 56.05 63.15 56.97 C 63.46 51.35 63.53 44.34 58.07 41.03 C 53.32 37.65 48.06 41.94 43.12 42.52 C 43.34 42.77 43.78 43.27 44.00 43.51 C 47.30 42.48 51.43 40.95 54.41 43.57 C 59.37 47.73 59.80 54.74 59.36 60.74 C 57.48 67.68 54.67 74.64 49.63 79.92 C 46.86 82.20 43.81 84.10 40.88 86.18 C 41.43 86.46 42.54 87.04 43.09 87.32 C 43.20 87.74 43.43 88.59 43.54 89.01 L 42.60 89.31 C 41.52 88.23 40.49 87.11 39.45 86.00 C 42.07 83.69 45.02 81.83 47.83 79.77 C 52.88 75.98 55.24 69.80 57.19 64.01 C 59.02 57.70 59.25 49.72 54.06 44.90 C 51.37 42.21 47.47 43.80 44.39 44.78 C 46.72 51.95 46.40 60.46 41.40 66.46 C 36.26 72.92 27.08 75.55 19.21 73.29 C 15.69 72.16 11.58 73.61 8.45 71.31 C 21.76 72.45 36.68 65.27 41.53 52.30 C 38.81 55.04 36.07 57.77 33.19 60.34 C 26.24 65.14 16.78 70.34 8.48 65.77 C 8.36 67.54 8.22 69.32 8.08 71.10 C 7.63 69.78 7.27 68.44 6.89 67.10 C 4.48 65.08 2.15 62.96 0.10 60.57 C 2.15 60.69 4.20 60.86 6.24 61.08 C 3.86 50.70 8.77 38.79 19.05 34.85 C 15.81 28.24 11.75 21.57 11.36 14.04 C 10.98 12.03 12.98 9.73 15.01 10.83 C 21.11 14.01 24.22 20.62 26.71 26.70 C 28.65 16.93 32.58 7.16 39.70 0.00 M 12.87 11.79 C 11.97 19.57 16.58 26.49 19.74 33.25 C 20.14 35.11 21.97 33.84 23.10 33.70 C 23.95 33.56 25.65 33.27 26.50 33.13 C 26.06 27.39 23.78 21.81 20.17 17.33 C 18.26 14.92 16.08 12.33 12.87 11.79 M 37.60 36.47 C 38.75 37.52 39.89 38.59 41.01 39.67 C 41.07 39.93 41.17 40.45 41.23 40.71 C 45.08 41.40 48.86 39.17 52.53 38.13 C 58.40 35.35 65.52 32.75 68.40 26.45 L 68.91 26.26 C 69.16 22.11 63.99 21.96 61.06 22.64 C 52.12 24.67 43.60 29.48 37.60 36.47 M 82.30 24.89 L 82.38 25.89 L 81.27 26.60 C 78.72 33.50 78.34 41.13 79.40 48.37 C 79.87 53.31 81.42 58.27 84.10 62.47 C 85.67 62.21 87.20 61.76 88.74 61.38 C 90.07 61.22 91.46 61.25 92.74 60.81 C 96.16 48.00 90.24 34.77 82.30 24.89 M 12.18 41.16 C 6.51 47.63 5.70 57.38 8.88 65.18 C 12.90 66.93 17.34 66.57 21.46 65.35 C 21.12 60.66 20.51 55.78 22.06 51.23 C 25.16 54.06 26.40 58.18 27.65 62.04 C 28.66 61.48 29.64 60.86 30.66 60.29 C 30.45 56.71 30.76 53.13 31.33 49.60 C 34.29 49.59 36.54 51.60 38.78 53.25 C 40.11 51.22 41.58 49.24 42.51 46.99 C 41.48 41.46 37.47 36.86 32.19 34.95 C 25.06 33.75 17.17 35.75 12.18 41.16 M 95.28 53.11 C 94.99 55.89 94.70 58.68 93.81 61.34 C 94.28 61.34 95.23 61.36 95.70 61.36 C 96.81 61.73 97.91 62.09 99.02 62.44 C 101.04 58.03 102.65 53.27 102.24 48.35 C 102.57 46.05 101.88 43.78 101.36 41.56 C 98.83 45.08 95.80 48.65 95.28 53.11 M 32.54 50.48 C 32.10 53.39 32.19 56.33 32.54 59.24 C 34.45 57.70 36.25 56.02 37.92 54.20 C 36.18 52.88 34.40 51.63 32.54 50.48 M 43.71 50.41 C 40.84 60.58 32.02 68.28 22.01 71.09 C 21.52 71.45 20.54 72.16 20.05 72.52 C 26.93 73.07 34.58 71.78 39.40 66.41 C 43.14 62.22 45.67 55.91 43.71 50.41 M 22.44 52.98 C 22.02 56.97 22.20 60.98 22.64 64.95 C 23.91 64.34 25.17 63.73 26.43 63.10 C 25.56 59.56 24.49 56.03 22.44 52.98 M 3.72 62.57 C 4.73 63.71 6.04 65.20 7.63 65.31 C 7.35 64.72 6.79 63.55 6.51 62.97 C 5.50 62.03 4.57 61.90 3.72 62.57 M 76.19 92.01 C 77.36 94.75 81.54 97.98 84.04 94.98 C 85.03 91.08 83.93 86.87 83.91 82.87 C 81.06 85.69 78.94 89.11 76.19 92.01 M 104.22 94.14 C 99.26 99.29 90.97 99.68 84.73 96.82 C 83.40 97.26 82.08 97.71 80.76 98.16 C 86.25 100.22 92.12 102.16 98.05 101.07 C 102.03 100.52 105.64 98.18 107.78 94.79 C 106.59 94.57 105.41 94.35 104.22 94.14 Z" />
<path fill="#bdff9c" opacity="1.00" d=" M 41.90 0.00 L 53.52 0.00 C 50.15 7.10 45.65 13.55 41.32 20.08 C 38.55 24.40 35.58 28.69 33.93 33.60 C 35.00 33.65 37.14 33.75 38.21 33.80 C 37.84 34.02 37.09 34.46 36.72 34.69 C 33.59 34.26 30.56 33.26 27.41 32.96 C 28.23 20.87 32.67 8.21 41.90 0.00 Z" />
<path fill="#388584" opacity="1.00" d=" M 53.52 0.00 L 53.84 0.00 C 55.98 7.64 51.70 14.84 47.54 20.90 C 45.47 20.63 43.39 20.36 41.32 20.08 C 45.65 13.55 50.15 7.10 53.52 0.00 Z" />
<path fill="#bdff9c" opacity="1.00" d=" M 12.87 11.79 C 16.08 12.33 18.26 14.92 20.17 17.33 C 22.18 22.56 22.75 28.15 23.10 33.70 C 21.97 33.84 20.14 35.11 19.74 33.25 C 16.58 26.49 11.97 19.57 12.87 11.79 Z" />
<path fill="#70a58b" opacity="1.00" d=" M 20.17 17.33 C 23.78 21.81 26.06 27.39 26.50 33.13 C 25.65 33.27 23.95 33.56 23.10 33.70 C 22.75 28.15 22.18 22.56 20.17 17.33 Z" />
<path fill="#5a9a88" opacity="1.00" d=" M 33.93 33.60 C 35.58 28.69 38.55 24.40 41.32 20.08 C 43.39 20.36 45.47 20.63 47.54 20.90 C 44.49 25.24 41.25 29.45 38.21 33.80 C 37.14 33.75 35.00 33.65 33.93 33.60 Z" />
<path fill="#bdff9c" opacity="1.00" d=" M 37.60 36.47 C 43.60 29.48 52.12 24.67 61.06 22.64 C 63.99 21.96 69.16 22.11 68.91 26.26 L 68.40 26.45 C 61.23 29.06 54.53 32.78 47.60 35.94 C 45.34 37.06 43.13 38.29 41.01 39.67 C 39.89 38.59 38.75 37.52 37.60 36.47 Z" />
<path fill="#bdff9c" opacity="1.00" d=" M 82.30 24.89 C 90.24 34.77 96.16 48.00 92.74 60.81 C 91.46 61.25 90.07 61.22 88.74 61.38 C 86.44 55.34 84.88 49.07 83.70 42.73 C 82.52 37.18 82.91 31.50 82.38 25.89 L 82.30 24.89 Z" />
<path fill="#3e8985" opacity="1.00" d=" M 47.60 35.94 C 54.53 32.78 61.23 29.06 68.40 26.45 C 65.52 32.75 58.40 35.35 52.53 38.13 C 50.89 37.40 49.24 36.67 47.60 35.94 Z" />
<path fill="#297e83" opacity="1.00" d=" M 81.27 26.60 L 82.38 25.89 C 82.91 31.50 82.52 37.18 83.70 42.73 C 83.47 43.43 83.01 44.82 82.78 45.52 C 81.86 45.54 80.95 45.56 80.04 45.59 C 79.81 46.51 79.60 47.44 79.40 48.37 C 78.34 41.13 78.72 33.50 81.27 26.60 Z" />
<path fill="#a681b5" opacity="1.00" d=" M 12.18 41.16 C 17.17 35.75 25.06 33.75 32.19 34.95 C 32.31 39.85 32.02 44.75 31.33 49.60 C 30.76 53.13 30.45 56.71 30.66 60.29 C 29.64 60.86 28.66 61.48 27.65 62.04 C 26.40 58.18 25.16 54.06 22.06 51.23 C 20.51 55.78 21.12 60.66 21.46 65.35 C 17.34 66.57 12.90 66.93 8.88 65.18 C 5.70 57.38 6.51 47.63 12.18 41.16 M 12.25 45.42 C 8.29 46.65 7.27 52.95 10.84 55.24 C 14.11 56.94 17.81 53.31 17.56 50.02 C 17.50 47.47 15.05 44.37 12.25 45.42 M 22.16 46.17 C 22.04 46.60 21.81 47.46 21.69 47.89 C 21.28 49.79 25.16 49.61 24.82 48.04 C 25.45 46.18 23.52 45.82 22.16 46.17 Z" />
<path fill="#523a7d" opacity="1.00" d=" M 32.19 34.95 C 37.47 36.86 41.48 41.46 42.51 46.99 C 41.58 49.24 40.11 51.22 38.78 53.25 C 36.54 51.60 34.29 49.59 31.33 49.60 C 32.02 44.75 32.31 39.85 32.19 34.95 Z" />
<path fill="#569c8b" opacity="1.00" d=" M 41.01 39.67 C 43.13 38.29 45.34 37.06 47.60 35.94 C 49.24 36.67 50.89 37.40 52.53 38.13 C 48.86 39.17 45.08 41.40 41.23 40.71 C 41.17 40.45 41.07 39.93 41.01 39.67 Z" />
<path fill="#274a5c" opacity="1.00" d=" M 43.12 42.52 C 48.06 41.94 53.32 37.65 58.07 41.03 C 63.53 44.34 63.46 51.35 63.15 56.97 C 64.21 56.05 65.26 55.14 66.31 54.23 C 66.70 54.68 67.48 55.60 67.86 56.05 C 66.83 57.18 65.80 58.31 64.77 59.44 C 62.65 61.58 61.11 64.20 59.66 66.82 C 59.56 64.80 59.39 62.77 59.36 60.74 C 59.80 54.74 59.37 47.73 54.41 43.57 C 51.43 40.95 47.30 42.48 44.00 43.51 C 43.78 43.27 43.34 42.77 43.12 42.52 Z" />
<path fill="#4f9186" opacity="1.00" d=" M 83.70 42.73 C 84.88 49.07 86.44 55.34 88.74 61.38 C 87.20 61.76 85.67 62.21 84.10 62.47 C 81.42 58.27 79.87 53.31 79.40 48.37 C 79.60 47.44 79.81 46.51 80.04 45.59 C 80.95 45.56 81.86 45.54 82.78 45.52 C 83.01 44.82 83.47 43.43 83.70 42.73 Z" />
<path fill="#bdff9c" opacity="1.00" d=" M 95.28 53.11 C 95.80 48.65 98.83 45.08 101.36 41.56 C 101.88 43.78 102.57 46.05 102.24 48.35 C 100.13 52.72 98.15 57.17 95.70 61.36 C 95.23 61.36 94.28 61.34 93.81 61.34 C 94.70 58.68 94.99 55.89 95.28 53.11 Z" />
<path fill="#ffbefe" opacity="1.00" d=" M 12.25 45.42 C 15.05 44.37 17.50 47.47 17.56 50.02 C 17.81 53.31 14.11 56.94 10.84 55.24 C 7.27 52.95 8.29 46.65 12.25 45.42 Z" />
<path fill="#f0b8f3" opacity="1.00" d=" M 22.16 46.17 C 23.52 45.82 25.45 46.18 24.82 48.04 C 25.16 49.61 21.28 49.79 21.69 47.89 C 21.81 47.46 22.04 46.60 22.16 46.17 Z" />
<path fill="#378584" opacity="1.00" d=" M 65.47 46.11 C 66.65 46.90 67.86 47.66 69.02 48.47 C 70.68 54.97 75.37 59.99 79.07 65.39 C 78.57 65.59 77.57 65.98 77.06 66.18 C 70.44 61.79 68.21 53.87 65.68 46.81 L 65.47 46.11 Z" />
<path fill="#adf299" opacity="1.00" d=" M 69.02 48.47 C 74.43 52.48 79.64 57.04 82.90 63.04 C 81.63 63.83 80.36 64.63 79.07 65.39 C 75.37 59.99 70.68 54.97 69.02 48.47 Z" />
<path fill="#83bb91" opacity="1.00" d=" M 95.70 61.36 C 98.15 57.17 100.13 52.72 102.24 48.35 C 102.65 53.27 101.04 58.03 99.02 62.44 C 97.91 62.09 96.81 61.73 95.70 61.36 Z" />
<path fill="#f3f5cb" opacity="1.00" d=" M 32.54 50.48 C 34.40 51.63 36.18 52.88 37.92 54.20 C 36.25 56.02 34.45 57.70 32.54 59.24 C 32.19 56.33 32.10 53.39 32.54 50.48 Z" />
<path fill="#4f377b" opacity="1.00" d=" M 43.71 50.41 C 45.67 55.91 43.14 62.22 39.40 66.41 C 34.58 71.78 26.93 73.07 20.05 72.52 C 20.54 72.16 21.52 71.45 22.01 71.09 C 32.02 68.28 40.84 60.58 43.71 50.41 Z" />
<path fill="#3b335f" opacity="1.00" d=" M 33.19 60.34 C 36.07 57.77 38.81 55.04 41.53 52.30 C 36.68 65.27 21.76 72.45 8.45 71.31 L 8.08 71.10 C 13.01 70.14 18.19 70.06 22.82 67.89 C 26.69 66.07 30.98 64.25 33.19 60.34 Z" />
<path fill="#fcffcd" opacity="1.00" d=" M 22.44 52.98 C 24.49 56.03 25.56 59.56 26.43 63.10 C 25.17 63.73 23.91 64.34 22.64 64.95 C 22.20 60.98 22.02 56.97 22.44 52.98 Z" />
<path fill="#655189" opacity="1.00" d=" M 8.48 65.77 C 16.78 70.34 26.24 65.14 33.19 60.34 C 30.98 64.25 26.69 66.07 22.82 67.89 C 18.19 70.06 13.01 70.14 8.08 71.10 C 8.22 69.32 8.36 67.54 8.48 65.77 Z" />
<path fill="#648276" opacity="1.00" d=" M 59.36 60.74 C 59.39 62.77 59.56 64.80 59.66 66.82 C 59.40 70.19 58.26 73.40 57.18 76.58 C 56.86 76.18 56.23 75.39 55.91 74.99 C 52.59 78.72 51.07 84.54 45.86 86.13 C 47.62 84.42 50.03 82.71 49.63 79.92 C 54.67 74.64 57.48 67.68 59.36 60.74 Z" />
<path fill="#fcffcd" opacity="1.00" d=" M 3.72 62.57 C 4.57 61.90 5.50 62.03 6.51 62.97 C 6.79 63.55 7.35 64.72 7.63 65.31 C 6.04 65.20 4.73 63.71 3.72 62.57 Z" />
<path fill="#583f82" opacity="1.00" d=" M 71.16 80.86 C 71.90 69.79 83.15 62.03 93.72 62.73 C 90.82 66.74 87.89 70.74 85.67 75.18 C 82.19 75.69 78.42 75.55 75.41 77.67 C 73.97 78.70 72.58 79.80 71.16 80.86 Z" />
<path fill="#a782b6" opacity="1.00" d=" M 93.72 62.73 C 100.92 63.26 106.90 69.12 108.35 76.07 C 110.27 83.44 106.53 91.29 100.58 95.67 C 97.48 94.29 94.12 93.49 91.16 91.82 C 89.13 88.93 87.74 85.64 85.84 82.66 C 85.48 80.18 85.30 77.67 85.67 75.18 C 87.89 70.74 90.82 66.74 93.72 62.73 M 90.31 69.58 C 88.30 71.26 87.94 75.05 90.46 76.46 C 93.00 78.67 97.10 76.17 96.86 72.99 C 97.06 69.83 92.78 67.46 90.31 69.58 M 99.12 82.19 C 98.58 83.82 99.13 84.37 100.77 83.82 C 101.30 82.19 100.75 81.65 99.12 82.19 Z" />
<path fill="#ffbefe" opacity="1.00" d=" M 90.31 69.58 C 92.78 67.46 97.06 69.83 96.86 72.99 C 97.10 76.17 93.00 78.67 90.46 76.46 C 87.94 75.05 88.30 71.26 90.31 69.58 Z" />
<path fill="#628f7f" opacity="1.00" d=" M 55.91 74.99 C 56.23 75.39 56.86 76.18 57.18 76.58 C 57.01 76.99 56.68 77.82 56.51 78.23 C 54.22 81.12 52.00 84.10 49.25 86.58 C 49.78 86.69 50.86 86.93 51.40 87.04 C 50.42 87.81 49.44 88.57 48.46 89.34 C 46.05 90.14 43.47 90.66 40.97 89.90 L 42.60 89.31 L 43.54 89.01 C 43.43 88.59 43.20 87.74 43.09 87.32 C 44.02 86.94 44.94 86.54 45.86 86.13 C 51.07 84.54 52.59 78.72 55.91 74.99 Z" />
<path fill="#694c8f" opacity="1.00" d=" M 75.41 77.67 C 78.42 75.55 82.19 75.69 85.67 75.18 C 85.30 77.67 85.48 80.18 85.84 82.66 C 85.75 84.57 85.58 86.47 85.48 88.37 C 85.16 85.86 84.66 83.38 84.14 80.91 C 81.13 84.15 78.38 87.61 75.53 90.99 C 75.42 92.65 75.26 94.30 75.04 95.95 C 74.70 95.58 74.00 94.83 73.65 94.45 C 73.16 93.22 72.67 91.98 72.19 90.74 C 72.38 90.28 72.75 89.35 72.94 88.89 L 73.48 89.18 L 74.58 89.94 C 74.98 85.86 75.35 81.77 75.41 77.67 Z" />
<path fill="#000000" opacity="1.00" d=" M 49.25 86.58 C 52.00 84.10 54.22 81.12 56.51 78.23 C 56.05 82.07 50.99 84.05 51.87 88.01 C 50.74 89.06 49.56 90.06 48.41 91.09 C 50.42 91.43 53.03 90.80 54.48 92.64 C 54.42 94.16 52.82 95.29 53.11 96.87 C 56.49 98.27 58.06 93.60 59.92 91.59 C 62.26 92.89 65.70 93.41 66.59 96.32 C 67.41 98.08 65.20 99.00 64.38 100.21 C 66.97 100.29 69.86 100.21 71.60 102.49 C 70.55 103.49 68.46 105.50 67.41 106.50 C 70.57 105.65 73.59 104.15 76.85 103.69 C 78.95 103.53 79.62 105.87 80.43 107.32 C 90.62 107.41 100.84 107.24 111.00 108.27 L 111.00 111.00 L 80.16 111.00 C 79.56 109.35 79.11 107.65 78.59 105.98 C 78.19 105.68 77.39 105.08 76.99 104.78 C 74.03 105.32 71.25 106.55 68.37 107.39 C 67.12 107.76 65.86 108.09 64.62 108.45 C 65.96 109.36 67.33 110.22 68.75 111.00 L 65.90 111.00 C 65.32 110.45 64.17 109.34 63.59 108.78 C 65.60 106.19 68.13 104.10 70.59 101.96 C 70.22 101.91 69.48 101.79 69.11 101.74 C 64.39 100.55 59.45 101.84 55.75 104.91 C 56.42 106.06 57.10 107.22 57.78 108.38 C 58.30 109.26 58.83 110.14 59.38 111.00 L 58.19 111.00 C 56.97 109.23 55.90 107.37 54.63 105.63 C 54.21 105.25 53.38 104.49 52.97 104.11 C 51.57 105.42 50.23 106.78 48.97 108.22 C 49.08 107.79 49.30 106.93 49.42 106.51 C 50.48 105.32 51.62 104.22 52.77 103.12 C 53.86 103.60 54.96 104.08 56.06 104.56 C 56.15 103.75 56.33 102.13 56.42 101.32 C 59.55 99.99 63.85 99.97 65.92 97.07 C 65.48 96.40 64.58 95.05 64.13 94.37 C 62.81 93.81 61.46 93.32 60.13 92.81 C 59.03 94.58 57.91 96.35 56.63 98.00 C 55.84 98.36 55.06 98.72 54.27 99.08 C 53.02 98.28 51.73 97.50 50.70 96.41 C 51.94 95.31 53.06 94.07 54.16 92.82 C 53.31 92.74 51.62 92.57 50.77 92.49 C 49.57 92.22 48.36 91.95 47.15 91.68 C 47.48 91.10 48.14 89.92 48.46 89.34 C 49.44 88.57 50.42 87.81 51.40 87.04 C 50.86 86.93 49.78 86.69 49.25 86.58 Z" />
<path fill="#fcffcd" opacity="1.00" d=" M 40.88 86.18 C 43.81 84.10 46.86 82.20 49.63 79.92 C 50.03 82.71 47.62 84.42 45.86 86.13 C 44.94 86.54 44.02 86.94 43.09 87.32 C 42.54 87.04 41.43 86.46 40.88 86.18 Z" />
<path fill="#fcffcd" opacity="1.00" d=" M 70.31 87.92 C 69.32 84.32 72.07 81.74 74.43 79.51 C 74.30 82.75 73.84 85.96 73.48 89.18 L 72.94 88.89 C 72.28 88.65 70.97 88.16 70.31 87.92 Z" />
<path fill="#fcffcd" opacity="1.00" d=" M 110.26 81.70 L 111.00 81.71 L 111.00 84.59 C 109.63 83.95 109.38 82.99 110.26 81.70 Z" />
<path fill="#dba9e1" opacity="1.00" d=" M 99.12 82.19 C 100.75 81.65 101.30 82.19 100.77 83.82 C 99.13 84.37 98.58 83.82 99.12 82.19 Z" />
<path fill="#8765a3" opacity="1.00" d=" M 85.84 82.66 C 87.74 85.64 89.13 88.93 91.16 91.82 C 94.12 93.49 97.48 94.29 100.58 95.67 C 95.76 97.83 90.25 97.63 85.27 96.17 C 85.40 93.57 85.46 90.97 85.48 88.37 C 85.58 86.47 85.75 84.57 85.84 82.66 Z" />
<path fill="#f6ffc8" opacity="1.00" d=" M 76.19 92.01 C 78.94 89.11 81.06 85.69 83.91 82.87 C 83.93 86.87 85.03 91.08 84.04 94.98 C 81.54 97.98 77.36 94.75 76.19 92.01 Z" />
<path fill="#eff0cf" opacity="1.00" d=" M 104.96 93.72 C 106.67 90.68 108.37 87.56 111.00 85.20 L 111.00 87.71 C 109.37 89.97 108.34 93.75 104.96 93.72 Z" />
<path fill="#41716d" opacity="1.00" d=" M 40.97 89.90 C 43.47 90.66 46.05 90.14 48.46 89.34 C 48.14 89.92 47.48 91.10 47.15 91.68 C 48.36 91.95 49.57 92.22 50.77 92.49 C 49.47 92.74 48.13 92.76 46.81 92.68 C 46.21 93.03 45.00 93.71 44.39 94.05 C 42.70 93.12 41.04 92.07 40.51 90.07 L 40.97 89.90 Z" />
<path fill="#000000" opacity="1.00" d=" M 39.53 92.06 C 39.77 91.56 40.26 90.57 40.51 90.07 C 41.04 92.07 42.70 93.12 44.39 94.05 C 45.68 95.10 46.83 96.30 47.94 97.54 C 47.81 97.94 47.57 98.73 47.44 99.13 C 47.13 99.49 46.52 100.22 46.21 100.58 C 43.90 101.25 41.62 102.01 39.37 102.83 C 40.06 103.96 40.77 105.09 41.48 106.22 C 40.83 107.10 40.18 107.99 39.53 108.87 C 39.15 108.86 38.39 108.83 38.01 108.82 C 38.66 108.26 39.31 107.68 39.95 107.11 C 39.39 105.44 38.02 103.72 38.79 101.90 C 41.30 100.45 44.19 99.88 46.91 98.98 C 45.40 95.78 42.34 93.96 39.53 92.06 Z" />
<path fill="#adc698" opacity="1.00" d=" M 50.77 92.49 C 51.62 92.57 53.31 92.74 54.16 92.82 C 53.06 94.07 51.94 95.31 50.70 96.41 C 49.78 96.79 48.85 97.14 47.94 97.54 C 46.83 96.30 45.68 95.10 44.39 94.05 C 45.00 93.71 46.21 93.03 46.81 92.68 C 48.13 92.76 49.47 92.74 50.77 92.49 Z" />
<path fill="#709c86" opacity="1.00" d=" M 60.13 92.81 C 61.46 93.32 62.81 93.81 64.13 94.37 C 61.70 95.72 59.20 96.95 56.63 98.00 C 57.91 96.35 59.03 94.58 60.13 92.81 Z" />
<path fill="#66538c" opacity="1.00" d=" M 104.22 94.14 C 105.41 94.35 106.59 94.57 107.78 94.79 C 105.64 98.18 102.03 100.52 98.05 101.07 C 92.12 102.16 86.25 100.22 80.76 98.16 C 82.08 97.71 83.40 97.26 84.73 96.82 C 90.97 99.68 99.26 99.29 104.22 94.14 Z" />
<path fill="#bcd39e" opacity="1.00" d=" M 56.63 98.00 C 59.20 96.95 61.70 95.72 64.13 94.37 C 64.58 95.05 65.48 96.40 65.92 97.07 C 63.85 99.97 59.55 99.99 56.42 101.32 C 56.33 102.13 56.15 103.75 56.06 104.56 C 54.96 104.08 53.86 103.60 52.77 103.12 C 51.62 104.22 50.48 105.32 49.42 106.51 C 49.45 104.80 49.44 103.10 49.43 101.39 C 51.04 100.62 52.65 99.84 54.27 99.08 C 55.06 98.72 55.84 98.36 56.63 98.00 Z" />
<path fill="#477e79" opacity="1.00" d=" M 47.94 97.54 C 48.85 97.14 49.78 96.79 50.70 96.41 C 51.73 97.50 53.02 98.28 54.27 99.08 C 52.65 99.84 51.04 100.62 49.43 101.39 C 49.44 103.10 49.45 104.80 49.42 106.51 C 49.30 106.93 49.08 107.79 48.97 108.22 C 48.22 109.16 47.47 110.09 46.69 111.00 L 44.75 111.00 C 44.57 110.67 44.21 110.00 44.03 109.67 L 43.03 109.71 C 42.76 110.03 42.23 110.68 41.97 111.00 L 38.37 111.00 C 38.66 110.47 39.24 109.41 39.53 108.87 C 40.18 107.99 40.83 107.10 41.48 106.22 C 44.27 104.80 47.00 103.05 48.38 100.08 L 46.21 100.58 C 46.52 100.22 47.13 99.49 47.44 99.13 C 47.57 98.73 47.81 97.94 47.94 97.54 Z" />
<path fill="#bcd39e" opacity="1.00" d=" M 39.37 102.83 C 41.62 102.01 43.90 101.25 46.21 100.58 L 48.38 100.08 C 47.00 103.05 44.27 104.80 41.48 106.22 C 40.77 105.09 40.06 103.96 39.37 102.83 Z" />
<path fill="#bbd39e" opacity="1.00" d=" M 55.75 104.91 C 59.45 101.84 64.39 100.55 69.11 101.74 C 65.63 104.43 61.66 106.36 57.78 108.38 C 57.10 107.22 56.42 106.06 55.75 104.91 Z" />
<path fill="#4e847b" opacity="1.00" d=" M 69.11 101.74 C 69.48 101.79 70.22 101.91 70.59 101.96 C 68.13 104.10 65.60 106.19 63.59 108.78 C 64.17 109.34 65.32 110.45 65.90 111.00 L 59.38 111.00 C 58.83 110.14 58.30 109.26 57.78 108.38 C 61.66 106.36 65.63 104.43 69.11 101.74 Z" />
<path fill="#b7d29f" opacity="1.00" d=" M 48.97 108.22 C 50.23 106.78 51.57 105.42 52.97 104.11 C 53.38 104.49 54.21 105.25 54.63 105.63 C 53.87 106.34 53.11 107.06 52.35 107.77 C 51.29 108.60 50.69 109.81 50.14 111.00 L 46.69 111.00 C 47.47 110.09 48.22 109.16 48.97 108.22 Z" />
<path fill="#aeca9a" opacity="1.00" d=" M 68.37 107.39 C 71.25 106.55 74.03 105.32 76.99 104.78 C 77.39 105.08 78.19 105.68 78.59 105.98 C 75.44 107.52 71.79 109.19 68.37 107.39 Z" />
<path fill="#3f7876" opacity="1.00" d=" M 54.63 105.63 C 55.90 107.37 56.97 109.23 58.19 111.00 L 51.71 111.00 C 52.90 110.39 53.37 108.75 52.35 107.77 C 53.11 107.06 53.87 106.34 54.63 105.63 Z" />
<path fill="#6e9b86" opacity="1.00" d=" M 78.59 105.98 C 79.11 107.65 79.56 109.35 80.16 111.00 L 68.75 111.00 C 67.33 110.22 65.96 109.36 64.62 108.45 C 65.86 108.09 67.12 107.76 68.37 107.39 C 71.79 109.19 75.44 107.52 78.59 105.98 Z" />
<path fill="#203734" opacity="1.00" d=" M 52.35 107.77 C 53.37 108.75 52.90 110.39 51.71 111.00 L 50.14 111.00 C 50.69 109.81 51.29 108.60 52.35 107.77 Z" />
<path fill="#8fad88" opacity="1.00" d=" M 38.01 108.82 C 38.39 108.83 39.15 108.86 39.53 108.87 C 39.24 109.41 38.66 110.47 38.37 111.00 L 36.09 111.00 L 36.10 110.23 C 36.57 109.88 37.53 109.17 38.01 108.82 Z" />
<path fill="#11130e" opacity="0.76" d=" M 34.16 111.00 C 34.43 110.72 34.96 110.17 35.23 109.90 L 36.10 110.23 L 36.09 111.00 L 34.16 111.00 Z" />
<path fill="#1c3331" opacity="1.00" d=" M 41.97 111.00 C 42.23 110.68 42.76 110.03 43.03 109.71 L 44.03 109.67 C 44.21 110.00 44.57 110.67 44.75 111.00 L 41.97 111.00 Z" />
</svg>
