<?xml version="1.0" encoding="UTF-8" ?>
<!DOCTYPE svg PUBLIC "-//W3C//DTD SVG 1.1//EN" "http://www.w3.org/Graphics/SVG/1.1/DTD/svg11.dtd">
<svg width="111pt" height="111pt" viewBox="0 0 111 111" version="1.1" xmlns="http://www.w3.org/2000/svg">
<path fill="#000000" opacity="1.00" d=" M 42.85 0.00 L 44.89 0.00 C 47.10 9.20 50.14 18.26 54.81 26.52 C 55.55 27.90 56.26 29.29 56.99 30.67 C 59.19 28.91 61.41 27.17 63.62 25.41 C 62.75 23.13 61.91 20.83 61.01 18.56 C 58.29 12.09 54.99 5.84 51.09 0.00 L 53.35 0.00 C 58.07 7.33 62.09 15.18 64.87 23.46 C 68.59 24.16 70.74 27.43 73.05 30.08 C 74.72 19.60 78.79 9.69 82.98 0.00 L 85.28 0.00 C 81.32 9.69 77.08 19.44 75.28 29.82 C 78.80 24.76 82.36 19.69 86.58 15.17 C 88.02 13.73 89.55 12.36 91.00 10.91 C 94.27 8.19 93.33 3.67 92.82 0.00 L 94.71 0.00 C 94.94 1.65 95.16 3.30 95.38 4.94 C 96.41 3.28 97.43 1.61 98.53 0.00 L 101.03 0.00 C 100.07 1.42 99.18 2.90 98.29 4.37 C 100.35 2.93 102.34 1.40 104.42 0.00 L 108.48 0.00 C 99.33 6.82 90.97 14.71 83.59 23.41 C 80.29 26.81 77.24 30.47 74.69 34.47 C 81.88 30.75 89.44 27.77 96.57 23.91 C 98.36 22.88 100.15 21.83 101.92 20.74 C 104.97 18.83 108.09 16.98 111.00 14.85 L 111.00 16.91 C 108.39 19.13 105.59 21.10 102.80 23.08 C 102.67 23.18 102.41 23.37 102.27 23.46 C 100.09 24.77 97.85 25.97 95.60 27.16 C 95.48 30.24 95.03 33.32 94.02 36.24 C 93.28 37.72 92.56 39.21 91.85 40.70 C 95.77 38.29 99.75 35.34 104.59 35.49 C 105.74 33.46 106.86 31.41 108.13 29.45 C 109.08 28.03 110.07 26.63 111.00 25.19 L 111.00 28.78 C 109.36 31.52 107.23 34.01 106.09 37.02 C 106.84 38.90 108.00 40.57 108.91 42.37 C 109.62 45.19 110.30 48.02 111.00 50.85 L 111.00 61.60 C 109.82 62.89 108.65 64.20 107.61 65.60 C 106.80 67.00 106.09 68.45 105.37 69.90 C 107.26 69.10 109.15 68.30 111.00 67.40 L 111.00 69.98 C 109.15 70.78 107.26 71.49 105.37 72.20 C 107.26 73.36 109.17 74.49 111.00 75.74 L 111.00 77.91 C 105.93 74.56 100.48 71.78 94.73 69.83 C 94.25 70.07 93.29 70.55 92.81 70.79 C 92.41 71.00 91.61 71.42 91.21 71.62 C 93.61 77.24 96.79 82.60 101.00 87.06 C 103.76 90.06 107.52 91.78 111.00 93.77 L 111.00 96.00 C 104.31 93.23 98.55 88.62 94.58 82.55 C 88.30 86.16 82.17 90.23 75.23 92.49 C 72.52 96.03 69.92 99.93 65.78 101.96 C 64.68 104.50 63.66 107.08 62.67 109.68 C 78.79 109.33 94.91 109.50 111.00 110.50 L 111.00 111.00 L 60.46 111.00 C 59.44 106.25 59.57 101.32 61.24 96.72 C 60.99 96.09 60.49 94.81 60.25 94.17 C 57.54 94.47 54.59 94.53 52.43 96.43 C 47.35 100.47 44.11 106.25 39.77 111.00 L 35.29 111.00 C 36.55 106.65 37.67 102.13 40.38 98.41 C 42.23 95.91 43.78 93.20 44.72 90.22 C 44.11 90.45 42.87 90.92 42.26 91.15 C 37.72 89.91 32.90 90.52 28.66 92.47 C 28.39 93.56 28.08 94.63 27.71 95.68 C 24.80 97.44 21.38 98.08 18.19 99.15 C 18.25 100.40 18.32 101.65 18.39 102.91 C 16.93 105.43 16.05 108.20 15.30 111.00 L 13.73 111.00 C 14.61 107.98 15.44 104.94 16.53 101.98 C 16.39 101.50 16.11 100.55 15.97 100.08 C 13.18 101.41 10.41 102.80 7.66 104.20 C 7.91 105.39 8.15 106.59 8.46 107.76 C 8.96 108.86 9.51 109.94 10.10 111.00 L 8.19 111.00 C 7.06 109.35 6.02 107.64 5.01 105.92 C 3.31 107.18 1.62 108.44 0.00 109.81 L 0.00 107.70 C 7.05 102.22 15.17 98.33 23.67 95.66 C 26.04 95.22 26.90 92.97 27.69 90.99 C 32.46 88.93 37.72 89.05 42.81 89.05 C 44.21 88.01 45.57 86.88 47.14 86.10 C 49.72 85.85 52.27 86.51 54.81 86.90 C 55.88 84.50 56.07 81.18 58.70 79.90 C 60.46 78.89 62.35 78.11 64.21 77.31 C 71.77 73.91 79.68 71.29 86.95 67.27 C 86.30 65.82 85.66 64.38 84.99 62.95 L 84.30 61.54 C 83.28 61.80 82.28 62.10 81.29 62.44 C 80.16 61.51 79.02 60.60 77.91 59.66 C 75.91 57.85 73.70 56.16 72.17 53.90 C 70.59 51.09 71.00 46.91 67.49 45.53 C 64.55 45.87 61.83 47.36 60.53 50.11 C 59.07 51.52 60.88 53.19 62.27 53.65 C 67.83 55.45 68.74 61.96 71.93 66.14 C 73.59 65.98 75.26 65.82 76.93 65.67 C 72.16 68.92 66.68 70.85 61.31 72.85 C 60.81 73.02 59.83 73.37 59.33 73.54 C 58.70 74.26 58.07 74.97 57.44 75.69 C 55.02 74.80 52.62 73.66 50.00 73.51 C 48.15 74.91 46.59 76.65 44.96 78.30 C 45.60 76.06 46.64 73.96 47.83 71.97 C 46.19 72.25 44.54 72.52 42.91 72.82 C 39.20 73.40 35.70 74.85 32.33 76.44 C 24.42 79.70 17.16 84.36 10.60 89.82 C 6.77 92.46 3.20 95.48 0.00 98.86 L 0.00 96.89 C 1.35 95.50 2.78 94.18 4.20 92.86 C 3.10 77.97 8.07 63.34 15.86 50.82 C 18.69 46.67 22.40 43.24 25.55 39.34 C 27.01 39.33 28.48 39.27 29.94 39.41 C 31.34 40.64 32.49 42.12 33.72 43.51 C 30.98 33.89 25.73 23.92 28.83 13.73 C 34.57 20.10 37.52 28.68 38.26 37.14 C 41.21 35.81 44.04 34.15 47.17 33.24 C 50.13 32.97 53.15 33.17 56.07 32.44 C 49.76 22.52 45.21 11.53 42.85 0.00 M 29.74 17.49 C 29.59 23.59 31.32 29.48 33.01 35.26 C 33.76 37.57 34.46 39.90 35.19 42.21 C 36.41 38.50 36.39 34.51 35.82 30.71 C 35.67 30.61 35.38 30.41 35.23 30.32 L 35.29 29.97 C 33.75 25.68 32.12 21.40 29.74 17.49 M 64.47 27.68 L 64.32 27.28 C 61.78 29.42 59.16 31.44 56.66 33.62 C 54.37 36.48 50.55 34.39 47.52 34.61 L 47.34 35.01 C 44.25 36.19 41.32 37.76 38.54 39.56 C 38.26 40.91 37.95 42.26 37.64 43.60 L 37.40 43.24 C 37.42 46.47 37.10 49.69 37.19 52.91 C 38.10 54.70 39.23 56.36 40.17 58.12 C 42.29 56.37 44.43 58.22 43.95 60.70 C 44.85 59.71 46.04 59.04 46.96 58.07 C 46.62 57.64 45.96 56.79 45.63 56.36 C 46.99 55.61 47.65 54.38 47.77 52.88 C 50.21 52.04 52.90 49.23 55.44 51.32 C 55.97 50.29 56.50 49.25 57.02 48.21 C 56.58 47.19 56.14 46.16 55.72 45.14 C 56.64 45.61 57.58 46.08 58.51 46.55 C 58.64 47.14 58.89 48.33 59.02 48.92 C 59.94 47.75 60.87 46.60 61.73 45.38 C 64.21 44.37 67.08 42.90 69.65 44.56 C 72.44 45.89 72.58 49.20 72.29 51.88 C 73.34 52.87 74.39 53.85 75.45 54.83 C 76.15 52.62 77.09 50.42 77.18 48.07 C 76.50 39.70 72.91 31.57 66.77 25.78 C 66.10 26.44 64.44 26.62 64.47 27.68 M 87.73 30.77 C 87.27 31.01 86.34 31.48 85.87 31.71 C 82.72 33.27 79.50 34.69 76.15 35.79 C 77.57 39.55 78.61 43.45 79.08 47.44 C 79.02 48.29 78.88 49.98 78.82 50.82 C 82.07 47.45 86.65 45.39 89.19 41.40 C 90.96 37.03 93.45 32.88 93.72 28.05 C 91.71 28.93 89.72 29.84 87.73 30.77 M 98.52 39.59 C 91.22 43.52 84.54 48.46 77.84 53.31 C 77.56 54.19 77.28 55.07 77.00 55.95 C 78.43 57.22 79.85 58.51 81.27 59.80 C 83.26 59.79 85.25 59.94 87.15 60.58 C 86.07 62.84 87.96 64.20 89.44 65.52 C 89.82 66.51 90.19 67.51 90.56 68.50 C 94.85 67.36 98.88 69.36 102.75 70.94 C 105.09 66.11 108.55 61.58 108.91 56.04 C 109.66 52.18 108.44 48.37 107.31 44.72 C 106.10 42.40 105.12 39.78 102.97 38.16 C 101.33 37.95 99.91 38.90 98.52 39.59 M 25.11 41.75 L 25.58 42.47 C 21.06 46.71 16.47 51.24 14.31 57.20 C 8.18 67.71 6.34 80.16 5.24 92.13 C 7.23 90.53 9.19 88.89 11.10 87.20 C 13.70 85.48 16.26 83.70 18.76 81.84 C 18.90 76.28 19.32 70.71 20.41 65.24 C 21.27 61.86 22.14 58.47 23.10 55.11 C 23.84 53.50 24.59 51.89 25.32 50.28 C 26.02 50.28 27.40 50.27 28.09 50.27 C 28.81 49.52 29.54 48.76 30.27 48.01 C 31.96 48.47 33.65 48.92 35.35 49.38 C 35.35 48.53 35.36 46.83 35.37 45.98 C 34.13 45.51 32.90 45.03 31.67 44.55 L 31.26 44.86 C 30.53 43.42 29.81 41.98 29.08 40.54 C 27.76 40.97 26.44 41.39 25.11 41.75 M 29.00 53.35 C 28.06 52.79 27.11 52.24 26.17 51.68 C 22.42 60.87 20.64 70.84 20.57 80.75 C 28.16 76.29 36.19 72.13 44.99 70.79 C 48.96 70.75 52.88 71.89 56.60 73.21 C 57.38 71.77 58.74 71.20 60.33 71.15 C 60.77 69.82 61.21 68.49 61.63 67.16 C 60.71 65.76 59.83 64.33 58.94 62.91 C 60.32 62.20 61.70 61.49 63.08 60.78 C 59.64 58.67 55.66 57.94 51.76 57.23 C 51.47 55.64 51.18 54.05 50.87 52.47 C 49.90 53.72 48.99 55.01 48.09 56.31 C 48.32 57.15 48.54 57.99 48.77 58.83 C 46.24 60.63 43.68 62.41 41.09 64.12 C 41.76 62.23 42.45 60.35 43.11 58.45 C 41.08 58.97 39.58 60.10 38.61 61.84 C 37.56 61.04 35.80 60.45 36.01 58.80 C 37.16 60.22 39.21 57.55 37.20 57.17 C 36.28 55.22 35.43 53.24 34.52 51.29 C 33.37 50.70 32.14 50.31 30.93 49.86 C 30.29 51.02 29.65 52.18 29.00 53.35 M 56.52 51.31 C 56.46 51.81 56.34 52.80 56.28 53.29 C 55.24 52.77 54.20 52.24 53.16 51.72 C 53.33 52.95 53.49 54.19 53.65 55.43 C 57.77 55.65 61.68 56.97 65.23 59.05 C 64.18 55.07 58.16 55.23 58.47 50.59 C 57.98 50.77 57.01 51.13 56.52 51.31 M 63.91 60.69 L 64.40 61.49 C 63.39 62.22 62.39 62.93 61.39 63.66 C 62.35 64.44 63.30 65.22 64.27 66.00 C 63.94 67.45 63.61 68.91 63.28 70.36 C 65.48 69.34 67.68 68.32 69.90 67.32 C 67.97 65.13 67.38 60.81 63.91 60.69 M 72.06 76.55 C 69.59 77.38 67.19 78.39 64.85 79.53 C 65.50 80.11 66.80 81.29 67.45 81.87 C 69.40 84.54 71.78 86.83 74.14 89.12 C 77.26 89.98 79.84 87.88 82.43 86.55 C 85.82 84.55 89.45 82.93 92.63 80.59 C 92.34 77.85 90.40 75.36 89.79 72.59 C 89.56 71.37 89.32 70.15 89.08 68.93 C 83.53 71.73 77.52 73.63 72.06 76.55 M 58.34 82.10 C 57.98 83.97 57.58 85.84 57.41 87.74 C 56.65 90.35 54.60 89.56 52.68 88.92 C 51.26 88.69 49.82 88.41 48.37 88.50 C 46.42 89.31 46.33 91.76 46.13 93.55 C 46.20 94.08 46.36 95.14 46.44 95.67 C 50.60 92.26 56.12 92.34 61.20 92.28 C 63.91 91.47 66.88 90.54 68.43 87.95 C 67.52 84.93 65.43 82.38 64.34 79.41 C 62.34 80.32 60.35 81.23 58.34 82.10 M 70.22 88.97 C 68.17 91.84 65.10 93.57 61.74 94.47 C 63.18 96.20 64.67 97.90 66.17 99.59 C 69.00 97.14 71.42 94.27 73.61 91.25 C 72.48 90.49 71.35 89.72 70.22 88.97 M 41.21 99.98 C 39.32 103.43 37.94 107.14 37.12 110.98 C 39.61 109.97 40.50 107.04 42.26 105.16 C 43.84 103.26 45.32 101.29 46.71 99.25 C 45.51 98.29 44.58 97.10 43.91 95.70 C 43.04 97.14 42.15 98.57 41.21 99.98 M 61.95 98.87 C 61.48 101.82 61.25 104.81 61.21 107.80 C 62.28 105.16 63.36 102.52 64.52 99.92 C 63.88 99.66 62.59 99.13 61.95 98.87 Z" />
<path fill="#ffffff" opacity="1.00" d=" M 44.89 0.00 L 51.09 0.00 C 54.99 5.84 58.29 12.09 61.01 18.56 C 59.02 21.28 56.97 23.94 54.81 26.52 C 50.14 18.26 47.10 9.20 44.89 0.00 Z" />
<path fill="#defe9a" opacity="1.00" d=" M 85.28 0.00 L 86.72 0.00 C 86.88 5.06 86.78 10.12 86.58 15.17 C 82.36 19.69 78.80 24.76 75.28 29.82 C 77.08 19.44 81.32 9.69 85.28 0.00 Z" />
<path fill="#174764" opacity="1.00" d=" M 86.72 0.00 L 87.95 0.00 C 88.88 3.66 89.68 7.36 91.00 10.91 C 89.55 12.36 88.02 13.73 86.58 15.17 C 86.78 10.12 86.88 5.06 86.72 0.00 Z" />
<path fill="#276278" opacity="1.00" d=" M 87.95 0.00 L 92.82 0.00 C 93.33 3.67 94.27 8.19 91.00 10.91 C 89.68 7.36 88.88 3.66 87.95 0.00 Z" />
<path fill="#000000" opacity="0.20" d=" M 94.71 0.00 L 98.53 0.00 C 97.43 1.61 96.41 3.28 95.38 4.94 C 95.16 3.30 94.94 1.65 94.71 0.00 Z" />
<path fill="#e6ff9f" opacity="1.00" d=" M 101.03 0.00 L 104.42 0.00 C 102.34 1.40 100.35 2.93 98.29 4.37 C 99.18 2.90 100.07 1.42 101.03 0.00 Z" />
<path fill="#ffffff" opacity="1.00" d=" M 108.48 0.00 L 111.00 0.00 L 111.00 8.96 C 107.32 10.95 103.54 12.72 99.81 14.60 C 98.66 15.15 97.51 15.70 96.36 16.25 C 91.92 18.30 87.65 20.69 83.59 23.41 C 90.97 14.71 99.33 6.82 108.48 0.00 Z" />
<path fill="#4a7da3" opacity="1.00" d=" M 99.81 14.60 C 103.54 12.72 107.32 10.95 111.00 8.96 L 111.00 14.85 C 108.09 16.98 104.97 18.83 101.92 20.74 C 102.14 18.94 102.37 17.14 102.60 15.34 C 101.91 15.15 100.51 14.78 99.81 14.60 Z" />
<path fill="#3d6895" opacity="1.00" d=" M 96.36 16.25 C 97.51 15.70 98.66 15.15 99.81 14.60 C 100.51 14.78 101.91 15.15 102.60 15.34 C 102.37 17.14 102.14 18.94 101.92 20.74 C 100.15 21.83 98.36 22.88 96.57 23.91 C 95.91 23.05 95.30 22.16 94.72 21.25 C 94.96 19.50 95.75 17.89 96.36 16.25 Z" />
<path fill="#263f7a" opacity="1.00" d=" M 83.59 23.41 C 87.65 20.69 91.92 18.30 96.36 16.25 C 95.75 17.89 94.96 19.50 94.72 21.25 C 95.30 22.16 95.91 23.05 96.57 23.91 C 89.44 27.77 81.88 30.75 74.69 34.47 C 77.24 30.47 80.29 26.81 83.59 23.41 Z" />
<path fill="#245e74" opacity="1.00" d=" M 102.80 23.08 C 105.59 21.10 108.39 19.13 111.00 16.91 L 111.00 25.19 C 110.07 26.63 109.08 28.03 108.13 29.45 C 105.84 27.80 104.09 25.58 102.80 23.08 Z" />
<path fill="#ffffff" opacity="1.00" d=" M 29.74 17.49 C 32.12 21.40 33.75 25.68 35.29 29.97 L 35.23 30.32 C 35.15 30.92 34.99 32.13 34.91 32.73 C 34.28 33.58 33.65 34.43 33.01 35.26 C 31.32 29.48 29.59 23.59 29.74 17.49 Z" />
<path fill="#5d9fb8" opacity="1.00" d=" M 54.81 26.52 C 56.97 23.94 59.02 21.28 61.01 18.56 C 61.91 20.83 62.75 23.13 63.62 25.41 C 61.41 27.17 59.19 28.91 56.99 30.67 C 56.26 29.29 55.55 27.90 54.81 26.52 Z" />
<path fill="#133e5d" opacity="1.00" d=" M 102.27 23.46 C 102.41 23.37 102.67 23.18 102.80 23.08 C 104.09 25.58 105.84 27.80 108.13 29.45 C 106.86 31.41 105.74 33.46 104.59 35.49 C 99.75 35.34 95.77 38.29 91.85 40.70 C 92.56 39.21 93.28 37.72 94.02 36.24 C 97.82 32.72 100.25 28.16 102.27 23.46 Z" />
<path fill="#e6ff9f" opacity="1.00" d=" M 95.60 27.16 C 97.85 25.97 100.09 24.77 102.27 23.46 C 100.25 28.16 97.82 32.72 94.02 36.24 C 95.03 33.32 95.48 30.24 95.60 27.16 Z" />
<path fill="#3c8793" opacity="1.00" d=" M 64.47 27.68 C 64.44 26.62 66.10 26.44 66.77 25.78 C 72.91 31.57 76.50 39.70 77.18 48.07 C 77.09 50.42 76.15 52.62 75.45 54.83 C 74.39 53.85 73.34 52.87 72.29 51.88 C 72.58 49.20 72.44 45.89 69.65 44.56 C 67.08 42.90 64.21 44.37 61.73 45.38 C 63.91 42.27 66.16 38.89 66.35 34.96 C 66.51 32.39 65.32 30.03 64.47 27.68 Z" />
<path fill="#dfff9a" opacity="1.00" d=" M 64.32 27.28 L 64.47 27.68 C 65.32 30.03 66.51 32.39 66.35 34.96 C 66.16 38.89 63.91 42.27 61.73 45.38 C 60.87 46.60 59.94 47.75 59.02 48.92 C 58.89 48.33 58.64 47.14 58.51 46.55 C 57.58 46.08 56.64 45.61 55.72 45.14 C 56.14 46.16 56.58 47.19 57.02 48.21 C 56.50 49.25 55.97 50.29 55.44 51.32 C 52.90 49.23 50.21 52.04 47.77 52.88 C 47.65 54.38 46.99 55.61 45.63 56.36 C 45.96 56.79 46.62 57.64 46.96 58.07 C 46.04 59.04 44.85 59.71 43.95 60.70 C 44.43 58.22 42.29 56.37 40.17 58.12 C 39.23 56.36 38.10 54.70 37.19 52.91 C 37.10 49.69 37.42 46.47 37.40 43.24 L 37.64 43.60 C 38.02 44.18 38.78 45.35 39.16 45.93 C 42.89 43.17 45.85 39.44 47.34 35.01 L 47.52 34.61 C 50.55 34.39 54.37 36.48 56.66 33.62 C 59.16 31.44 61.78 29.42 64.32 27.28 M 46.37 41.64 C 43.04 44.00 43.45 48.55 43.44 52.15 C 47.39 50.23 53.36 47.52 51.72 42.04 C 51.28 39.40 47.84 40.60 46.37 41.64 Z" />
<path fill="#38808e" opacity="1.00" d=" M 87.73 30.77 C 89.72 29.84 91.71 28.93 93.72 28.05 C 93.45 32.88 90.96 37.03 89.19 41.40 C 88.20 40.24 87.21 39.09 86.21 37.94 C 86.73 35.55 87.22 33.16 87.73 30.77 Z" />
<path fill="#62a8c1" opacity="1.00" d=" M 35.23 30.32 C 35.38 30.41 35.67 30.61 35.82 30.71 C 36.39 34.51 36.41 38.50 35.19 42.21 C 34.46 39.90 33.76 37.57 33.01 35.26 C 33.65 34.43 34.28 33.58 34.91 32.73 C 34.99 32.13 35.15 30.92 35.23 30.32 Z" />
<path fill="#ffffff" opacity="1.00" d=" M 106.09 37.02 C 107.23 34.01 109.36 31.52 111.00 28.78 L 111.00 40.61 C 110.48 41.05 109.43 41.93 108.91 42.37 C 108.00 40.57 106.84 38.90 106.09 37.02 Z" />
<path fill="#225a72" opacity="1.00" d=" M 85.87 31.71 C 86.34 31.48 87.27 31.01 87.73 30.77 C 87.22 33.16 86.73 35.55 86.21 37.94 C 87.21 39.09 88.20 40.24 89.19 41.40 C 86.65 45.39 82.07 47.45 78.82 50.82 C 78.88 49.98 79.02 48.29 79.08 47.44 C 82.64 42.85 84.78 37.39 85.87 31.71 Z" />
<path fill="#dfff9b" opacity="1.00" d=" M 76.15 35.79 C 79.50 34.69 82.72 33.27 85.87 31.71 C 84.78 37.39 82.64 42.85 79.08 47.44 C 78.61 43.45 77.57 39.55 76.15 35.79 Z" />
<path fill="#ffffff" opacity="1.00" d=" M 38.54 39.56 C 41.32 37.76 44.25 36.19 47.34 35.01 C 45.85 39.44 42.89 43.17 39.16 45.93 C 38.78 45.35 38.02 44.18 37.64 43.60 C 37.95 42.26 38.26 40.91 38.54 39.56 Z" />
<path fill="#defe9a" opacity="1.00" d=" M 98.52 39.59 C 99.91 38.90 101.33 37.95 102.97 38.16 C 105.12 39.78 106.10 42.40 107.31 44.72 C 104.61 48.54 102.30 52.66 99.09 56.09 C 96.03 59.39 92.68 62.41 89.44 65.52 C 87.96 64.20 86.07 62.84 87.15 60.58 C 85.25 59.94 83.26 59.79 81.27 59.80 C 79.85 58.51 78.43 57.22 77.00 55.95 C 77.28 55.07 77.56 54.19 77.84 53.31 C 84.54 48.46 91.22 43.52 98.52 39.59 Z" />
<path fill="#000000" opacity="1.00" d=" M 46.37 41.64 C 47.84 40.60 51.28 39.40 51.72 42.04 C 53.36 47.52 47.39 50.23 43.44 52.15 C 43.45 48.55 43.04 44.00 46.37 41.64 M 47.38 42.39 C 45.02 44.48 44.28 47.43 44.45 50.49 C 47.76 48.87 51.28 46.33 50.63 42.12 C 49.82 42.18 48.19 42.32 47.38 42.39 Z" />
<path fill="#2d5c8c" opacity="1.00" d=" M 25.11 41.75 C 26.44 41.39 27.76 40.97 29.08 40.54 C 29.81 41.98 30.53 43.42 31.26 44.86 C 27.47 47.87 23.26 50.35 19.75 53.70 C 16.81 56.78 14.94 60.74 14.43 64.96 C 13.19 72.35 11.25 79.66 11.10 87.20 C 9.19 88.89 7.23 90.53 5.24 92.13 C 6.34 80.16 8.18 67.71 14.31 57.20 C 19.02 53.40 22.67 48.51 26.41 43.81 C 26.20 43.48 25.79 42.81 25.58 42.47 L 25.11 41.75 Z" />
<path fill="#f2ffa7" opacity="1.00" d=" M 108.91 42.37 C 109.43 41.93 110.48 41.05 111.00 40.61 L 111.00 50.85 C 110.30 48.02 109.62 45.19 108.91 42.37 Z" />
<path fill="#39bb79" opacity="1.00" d=" M 47.38 42.39 C 48.19 42.32 49.82 42.18 50.63 42.12 C 51.28 46.33 47.76 48.87 44.45 50.49 C 44.28 47.43 45.02 44.48 47.38 42.39 Z" />
<path fill="#abdfe8" opacity="1.00" d=" M 25.58 42.47 C 25.79 42.81 26.20 43.48 26.41 43.81 C 22.67 48.51 19.02 53.40 14.31 57.20 C 16.47 51.24 21.06 46.71 25.58 42.47 Z" />
<path fill="#152159" opacity="1.00" d=" M 31.26 44.86 L 31.67 44.55 C 32.90 45.03 34.13 45.51 35.37 45.98 C 35.36 46.83 35.35 48.53 35.35 49.38 C 33.65 48.92 31.96 48.47 30.27 48.01 C 29.54 48.76 28.81 49.52 28.09 50.27 C 27.40 50.27 26.02 50.28 25.32 50.28 C 24.59 51.89 23.84 53.50 23.10 55.11 C 21.98 54.64 20.86 54.17 19.75 53.70 C 23.26 50.35 27.47 47.87 31.26 44.86 Z" />
<path fill="#3c8793" opacity="1.00" d=" M 107.31 44.72 C 108.44 48.37 109.66 52.18 108.91 56.04 C 108.55 61.58 105.09 66.11 102.75 70.94 C 98.88 69.36 94.85 67.36 90.56 68.50 C 90.19 67.51 89.82 66.51 89.44 65.52 C 92.68 62.41 96.03 59.39 99.09 56.09 C 102.30 52.66 104.61 48.54 107.31 44.72 Z" />
<path fill="#ffffff" opacity="1.00" d=" M 60.53 50.11 C 61.83 47.36 64.55 45.87 67.49 45.53 C 65.58 47.62 63.22 49.21 60.53 50.11 Z" />
<path fill="#2d5c8b" opacity="1.00" d=" M 67.49 45.53 C 71.00 46.91 70.59 51.09 72.17 53.90 C 73.70 56.16 75.91 57.85 77.91 59.66 C 76.22 60.74 74.47 63.31 72.28 61.80 C 68.36 59.99 67.80 55.46 68.51 51.67 C 66.34 52.03 64.22 52.64 62.27 53.65 C 60.88 53.19 59.07 51.52 60.53 50.11 C 63.22 49.21 65.58 47.62 67.49 45.53 Z" />
<path fill="#40919e" opacity="1.00" d=" M 56.52 51.31 C 57.01 51.13 57.98 50.77 58.47 50.59 C 58.16 55.23 64.18 55.07 65.23 59.05 C 61.68 56.97 57.77 55.65 53.65 55.43 C 53.49 54.19 53.33 52.95 53.16 51.72 C 54.20 52.24 55.24 52.77 56.28 53.29 C 56.34 52.80 56.46 51.81 56.52 51.31 Z" />
<path fill="#151f5b" opacity="1.00" d=" M 62.27 53.65 C 64.22 52.64 66.34 52.03 68.51 51.67 C 67.80 55.46 68.36 59.99 72.28 61.80 C 74.47 63.31 76.22 60.74 77.91 59.66 C 79.02 60.60 80.16 61.51 81.29 62.44 C 79.80 63.46 78.40 64.62 76.93 65.67 C 75.26 65.82 73.59 65.98 71.93 66.14 C 68.74 61.96 67.83 55.45 62.27 53.65 Z" />
<path fill="#14133c" opacity="1.00" d=" M 14.43 64.96 C 14.94 60.74 16.81 56.78 19.75 53.70 C 20.86 54.17 21.98 54.64 23.10 55.11 C 22.14 58.47 21.27 61.86 20.41 65.24 C 18.76 65.77 17.10 66.30 15.42 66.75 C 15.17 66.30 14.68 65.41 14.43 64.96 Z" />
<path fill="#7b9160" opacity="1.00" d=" M 37.20 57.17 C 39.21 57.55 37.16 60.22 36.01 58.80 C 36.31 58.39 36.90 57.58 37.20 57.17 Z" />
<path fill="#3d858e" opacity="1.00" d=" M 63.91 60.69 C 67.38 60.81 67.97 65.13 69.90 67.32 C 67.68 68.32 65.48 69.34 63.28 70.36 C 63.61 68.91 63.94 67.45 64.27 66.00 C 64.88 65.81 66.10 65.43 66.71 65.24 C 65.93 63.99 65.15 62.75 64.40 61.49 L 63.91 60.69 Z" />
<path fill="#e6ff9f" opacity="1.00" d=" M 61.39 63.66 C 62.39 62.93 63.39 62.22 64.40 61.49 C 65.15 62.75 65.93 63.99 66.71 65.24 C 66.10 65.43 64.88 65.81 64.27 66.00 C 63.30 65.22 62.35 64.44 61.39 63.66 Z" />
<path fill="#2d5c8c" opacity="1.00" d=" M 81.29 62.44 C 82.28 62.10 83.28 61.80 84.30 61.54 L 84.99 62.95 C 77.71 67.16 70.22 70.97 62.82 74.97 C 62.45 74.44 61.69 73.38 61.31 72.85 C 66.68 70.85 72.16 68.92 76.93 65.67 C 78.40 64.62 79.80 63.46 81.29 62.44 Z" />
<path fill="#dfff9b" opacity="1.00" d=" M 107.61 65.60 C 108.65 64.20 109.82 62.89 111.00 61.60 L 111.00 65.24 C 110.15 65.33 108.46 65.51 107.61 65.60 Z" />
<path fill="#151d56" opacity="1.00" d=" M 62.82 74.97 C 70.22 70.97 77.71 67.16 84.99 62.95 C 85.66 64.38 86.30 65.82 86.95 67.27 C 79.68 71.29 71.77 73.91 64.21 77.31 C 63.14 76.89 62.07 76.47 61.00 76.05 C 59.05 77.39 57.17 78.97 54.89 79.73 C 51.53 80.71 48.08 79.52 44.96 78.30 C 46.59 76.65 48.15 74.91 50.00 73.51 C 52.62 73.66 55.02 74.80 57.44 75.69 C 58.07 74.97 58.70 74.26 59.33 73.54 C 59.83 73.37 60.81 73.02 61.31 72.85 C 61.69 73.38 62.45 74.44 62.82 74.97 Z" />
<path fill="#151c52" opacity="1.00" d=" M 11.10 87.20 C 11.25 79.66 13.19 72.35 14.43 64.96 C 14.68 65.41 15.17 66.30 15.42 66.75 C 17.10 66.30 18.76 65.77 20.41 65.24 C 19.32 70.71 18.90 76.28 18.76 81.84 C 16.26 83.70 13.70 85.48 11.10 87.20 Z" />
<path fill="#2d6f81" opacity="1.00" d=" M 105.37 69.90 C 106.09 68.45 106.80 67.00 107.61 65.60 C 108.46 65.51 110.15 65.33 111.00 65.24 L 111.00 67.40 C 109.15 68.30 107.26 69.10 105.37 69.90 Z" />
<path fill="#113a5a" opacity="1.00" d=" M 72.06 76.55 C 77.52 73.63 83.53 71.73 89.08 68.93 C 89.32 70.15 89.56 71.37 89.79 72.59 C 89.43 72.47 88.71 72.23 88.35 72.10 C 83.84 77.97 78.58 83.20 74.14 89.12 C 71.78 86.83 69.40 84.54 67.45 81.87 C 69.01 80.12 70.50 78.31 72.06 76.55 Z" />
<path fill="#d1f296" opacity="1.00" d=" M 92.81 70.79 C 93.29 70.55 94.25 70.07 94.73 69.83 C 100.48 71.78 105.93 74.56 111.00 77.91 L 111.00 86.66 C 103.34 83.56 96.83 78.04 92.81 70.79 Z" />
<path fill="#deff9a" opacity="1.00" d=" M 105.37 72.20 C 107.26 71.49 109.15 70.78 111.00 69.98 L 111.00 75.74 C 109.17 74.49 107.26 73.36 105.37 72.20 Z" />
<path fill="#1d4f6a" opacity="1.00" d=" M 91.21 71.62 C 91.61 71.42 92.41 71.00 92.81 70.79 C 96.83 78.04 103.34 83.56 111.00 86.66 L 111.00 93.77 C 107.52 91.78 103.76 90.06 101.00 87.06 C 96.79 82.60 93.61 77.24 91.21 71.62 Z" />
<path fill="#14143d" opacity="1.00" d=" M 42.91 72.82 C 44.54 72.52 46.19 72.25 47.83 71.97 C 46.64 73.96 45.60 76.06 44.96 78.30 C 48.08 79.52 51.53 80.71 54.89 79.73 C 57.17 78.97 59.05 77.39 61.00 76.05 C 62.07 76.47 63.14 76.89 64.21 77.31 C 62.35 78.11 60.46 78.89 58.70 79.90 C 56.07 81.18 55.88 84.50 54.81 86.90 C 52.27 86.51 49.72 85.85 47.14 86.10 C 45.57 86.88 44.21 88.01 42.81 89.05 C 37.72 89.05 32.46 88.93 27.69 90.99 C 26.25 90.24 24.81 89.48 23.39 88.71 C 28.88 86.15 34.35 83.52 39.71 80.69 C 42.89 79.31 43.44 75.61 44.54 72.72 C 44.13 72.74 43.32 72.80 42.91 72.82 Z" />
<path fill="#3c8793" opacity="1.00" d=" M 88.35 72.10 C 88.71 72.23 89.43 72.47 89.79 72.59 C 90.40 75.36 92.34 77.85 92.63 80.59 C 89.45 82.93 85.82 84.55 82.43 86.55 C 79.84 87.88 77.26 89.98 74.14 89.12 C 78.58 83.20 83.84 77.97 88.35 72.10 Z" />
<path fill="#2d5c8b" opacity="1.00" d=" M 32.33 76.44 C 35.70 74.85 39.20 73.40 42.91 72.82 C 43.32 72.80 44.13 72.74 44.54 72.72 C 43.44 75.61 42.89 79.31 39.71 80.69 C 34.35 83.52 28.88 86.15 23.39 88.71 C 15.00 92.63 7.56 98.27 0.00 103.54 L 0.00 98.86 C 3.20 95.48 6.77 92.46 10.60 89.82 C 15.64 88.21 19.66 84.64 24.28 82.20 C 27.21 80.65 29.86 78.66 32.33 76.44 Z" />
<path fill="#ffffff" opacity="1.00" d=" M 10.60 89.82 C 17.16 84.36 24.42 79.70 32.33 76.44 C 29.86 78.66 27.21 80.65 24.28 82.20 C 19.66 84.64 15.64 88.21 10.60 89.82 Z" />
<path fill="#40919e" opacity="1.00" d=" M 64.85 79.53 C 67.19 78.39 69.59 77.38 72.06 76.55 C 70.50 78.31 69.01 80.12 67.45 81.87 C 66.80 81.29 65.50 80.11 64.85 79.53 Z" />
<path fill="#123d5c" opacity="1.00" d=" M 58.34 82.10 C 60.35 81.23 62.34 80.32 64.34 79.41 C 65.43 82.38 67.52 84.93 68.43 87.95 C 66.88 90.54 63.91 91.47 61.20 92.28 C 60.24 90.52 59.30 88.75 58.27 87.03 C 58.06 87.21 57.63 87.57 57.41 87.74 C 57.58 85.84 57.98 83.97 58.34 82.10 Z" />
<path fill="#3e8b98" opacity="1.00" d=" M 58.27 87.03 C 59.30 88.75 60.24 90.52 61.20 92.28 C 56.12 92.34 50.60 92.26 46.44 95.67 C 46.36 95.14 46.20 94.08 46.13 93.55 C 48.34 92.05 50.53 90.50 52.68 88.92 C 54.60 89.56 56.65 90.35 57.41 87.74 C 57.63 87.57 58.06 87.21 58.27 87.03 Z" />
<path fill="#e6ff9f" opacity="1.00" d=" M 48.37 88.50 C 49.82 88.41 51.26 88.69 52.68 88.92 C 50.53 90.50 48.34 92.05 46.13 93.55 C 46.33 91.76 46.42 89.31 48.37 88.50 Z" />
<path fill="#151c51" opacity="1.00" d=" M 0.00 103.54 C 7.56 98.27 15.00 92.63 23.39 88.71 C 24.81 89.48 26.25 90.24 27.69 90.99 C 26.90 92.97 26.04 95.22 23.67 95.66 C 15.17 98.33 7.05 102.22 0.00 107.70 L 0.00 103.54 Z" />
<path fill="#133f5d" opacity="1.00" d=" M 70.22 88.97 C 71.35 89.72 72.48 90.49 73.61 91.25 C 71.42 94.27 69.00 97.14 66.17 99.59 C 64.67 97.90 63.18 96.20 61.74 94.47 C 65.10 93.57 68.17 91.84 70.22 88.97 Z" />
<path fill="#5c9eb7" opacity="1.00" d=" M 41.21 99.98 C 42.15 98.57 43.04 97.14 43.91 95.70 C 44.58 97.10 45.51 98.29 46.71 99.25 C 45.32 101.29 43.84 103.26 42.26 105.16 C 41.91 103.43 41.57 101.70 41.21 99.98 Z" />
<path fill="#62a8c1" opacity="1.00" d=" M 61.95 98.87 C 62.59 99.13 63.88 99.66 64.52 99.92 C 63.36 102.52 62.28 105.16 61.21 107.80 C 61.25 104.81 61.48 101.82 61.95 98.87 Z" />
<path fill="#151b4f" opacity="1.00" d=" M 7.66 104.20 C 10.41 102.80 13.18 101.41 15.97 100.08 C 16.11 100.55 16.39 101.50 16.53 101.98 C 15.44 104.94 14.61 107.98 13.73 111.00 L 11.82 111.00 C 11.67 108.92 11.52 106.85 11.37 104.77 C 10.40 105.77 9.43 106.76 8.46 107.76 C 8.15 106.59 7.91 105.39 7.66 104.20 Z" />
<path fill="#ffffff" opacity="1.00" d=" M 37.12 110.98 C 37.94 107.14 39.32 103.43 41.21 99.98 C 41.57 101.70 41.91 103.43 42.26 105.16 C 40.50 107.04 39.61 109.97 37.12 110.98 Z" />
<path fill="#223e6b" opacity="1.00" d=" M 11.37 104.77 C 11.52 106.85 11.67 108.92 11.82 111.00 L 10.10 111.00 C 9.51 109.94 8.96 108.86 8.46 107.76 C 9.43 106.76 10.40 105.77 11.37 104.77 Z" />
</svg>
