<?xml version="1.0" encoding="UTF-8" ?>
<!DOCTYPE svg PUBLIC "-//W3C//DTD SVG 1.1//EN" "http://www.w3.org/Graphics/SVG/1.1/DTD/svg11.dtd">
<svg width="111pt" height="111pt" viewBox="0 0 111 111" version="1.1" xmlns="http://www.w3.org/2000/svg">
<path fill="#000101" opacity="1.00" d=" M 14.67 0.00 L 16.63 0.00 C 16.98 5.64 16.17 11.33 17.05 16.95 C 17.70 21.49 19.43 25.81 19.94 30.38 C 15.84 28.45 12.88 24.88 9.14 22.41 C 9.28 22.97 9.56 24.07 9.70 24.62 C 11.07 31.34 15.42 36.74 19.41 42.09 C 19.45 42.47 19.52 43.23 19.55 43.61 C 18.54 42.77 17.51 41.94 16.46 41.14 C 13.21 38.26 8.57 38.32 4.50 38.30 C 5.04 38.63 5.57 38.97 6.10 39.32 C 9.87 43.14 14.68 45.62 19.17 48.46 C 18.75 48.61 17.91 48.90 17.49 49.05 C 17.16 49.15 16.50 49.36 16.17 49.47 C 12.82 50.61 9.69 52.32 6.77 54.29 C 6.12 54.70 5.48 55.12 4.85 55.55 C 9.13 55.78 13.43 55.89 17.68 56.51 C 17.82 56.76 18.10 57.25 18.23 57.50 C 12.46 56.81 9.73 62.57 6.98 66.56 C 6.05 68.27 5.24 70.02 4.42 71.78 C 11.75 69.53 19.46 68.52 26.58 65.65 C 28.02 64.89 29.41 64.04 30.82 63.23 C 28.44 61.49 25.07 58.81 26.59 55.45 C 28.24 53.35 30.94 52.44 33.13 51.03 C 31.83 49.99 30.52 48.95 29.21 47.94 C 28.95 47.73 28.43 47.33 28.17 47.13 C 27.83 45.71 27.54 44.28 27.29 42.85 C 27.37 41.09 25.92 39.95 24.32 39.67 C 22.13 38.89 19.88 38.03 18.16 36.39 C 18.36 36.13 18.75 35.62 18.95 35.36 C 22.02 35.36 25.08 35.37 28.15 35.33 C 28.64 34.01 30.38 32.56 29.37 31.07 C 27.02 27.78 25.36 24.08 24.49 20.12 C 24.78 19.56 25.36 17.59 26.12 18.74 C 26.93 21.72 27.37 24.89 29.19 27.49 C 29.64 24.41 29.81 21.29 30.54 18.26 C 30.90 18.20 31.61 18.06 31.96 18.00 C 33.84 21.30 33.66 25.21 33.97 28.87 C 38.00 27.47 42.82 26.67 46.48 29.43 C 51.22 32.54 52.07 39.02 50.42 44.07 C 49.33 44.88 48.26 45.71 47.20 46.56 C 56.04 45.28 64.73 39.23 66.33 30.00 C 67.53 26.04 61.96 23.78 63.41 19.89 C 64.92 13.09 66.17 5.98 69.98 0.00 L 73.05 0.00 C 72.93 3.49 72.79 6.97 72.67 10.46 C 74.85 7.06 76.66 3.45 78.76 0.00 L 80.75 0.00 C 76.46 6.05 73.66 12.99 69.48 19.09 C 70.43 12.80 72.03 6.55 71.69 0.12 C 67.30 6.60 66.39 14.57 64.37 21.96 C 66.27 23.84 68.34 26.08 68.17 28.96 C 67.54 35.51 63.18 41.12 57.85 44.71 C 57.48 47.16 55.97 49.14 54.61 51.13 C 56.52 50.64 58.41 50.11 60.28 49.53 C 60.12 50.86 59.96 52.18 59.81 53.51 C 62.83 51.39 64.46 47.15 68.27 46.35 C 67.81 46.94 66.88 48.11 66.41 48.70 C 66.42 50.76 66.47 52.82 66.25 54.87 C 66.33 52.92 66.31 50.96 66.30 49.01 C 63.95 51.21 61.62 53.43 59.20 55.55 C 58.93 54.85 58.40 53.43 58.13 52.72 C 54.12 56.31 47.89 57.84 45.64 63.06 C 47.24 68.14 51.33 71.94 55.51 75.01 C 55.59 74.41 55.74 73.20 55.82 72.60 C 56.15 70.34 56.36 68.06 56.58 65.78 C 57.36 66.94 58.17 68.08 58.94 69.25 C 58.69 69.20 58.19 69.08 57.94 69.02 C 57.70 71.35 57.67 73.71 57.22 76.02 C 55.74 76.71 54.20 75.82 52.91 75.14 C 49.08 72.81 46.82 68.81 44.20 65.32 C 43.32 68.13 42.08 70.97 42.29 73.98 C 42.46 78.40 44.29 82.58 44.31 87.01 C 43.74 91.99 41.12 96.41 38.77 100.74 C 41.21 100.05 43.70 99.55 46.25 99.54 C 44.45 103.40 42.58 107.23 40.61 111.00 L 38.69 111.00 C 40.31 107.91 41.73 104.71 43.18 101.54 C 37.52 101.82 33.29 105.74 28.98 108.92 C 31.05 108.48 33.11 108.00 35.18 107.58 C 35.14 108.44 35.06 110.15 35.02 111.00 L 33.35 111.00 C 33.39 110.53 33.47 109.59 33.51 109.11 C 31.76 108.92 30.24 109.88 29.01 111.00 L 26.43 111.00 C 24.46 110.98 23.06 109.88 22.27 108.10 C 21.52 109.08 20.76 110.06 19.96 111.00 L 16.87 111.00 C 18.09 110.16 19.38 109.34 20.32 108.16 C 21.43 106.73 19.69 105.32 19.24 103.97 C 18.10 104.50 16.96 105.05 15.82 105.58 C 14.51 106.15 13.23 106.76 11.94 107.37 C 12.46 107.95 13.51 109.09 14.03 109.67 C 14.33 110.00 14.94 110.67 15.24 111.00 L 13.52 111.00 C 12.24 109.78 11.02 108.51 9.76 107.26 C 10.74 106.50 11.73 105.75 12.76 105.06 C 14.67 104.17 16.64 103.42 18.60 102.64 C 18.39 101.42 18.18 100.21 17.96 99.01 C 20.71 94.94 25.06 92.07 26.86 87.38 C 24.60 87.77 22.19 87.95 20.20 89.20 C 19.33 90.41 18.67 91.75 17.91 93.04 C 17.61 93.52 17.00 94.50 16.69 94.99 C 16.17 95.47 15.64 95.95 15.11 96.43 C 11.57 99.82 7.83 103.03 3.28 104.99 L 3.87 106.17 C 4.65 107.78 5.40 109.41 6.23 111.00 L 4.38 111.00 C 3.00 108.90 2.12 106.54 1.36 104.16 C 1.96 103.67 3.14 102.69 3.74 102.20 C 3.71 101.47 3.66 100.03 3.63 99.31 C 5.75 99.00 7.87 98.79 10.01 98.68 C 13.44 96.10 16.50 93.00 18.60 89.22 C 13.41 89.63 8.18 89.72 3.04 88.74 C 2.82 87.00 1.72 84.88 3.42 83.53 C 7.58 79.09 12.92 75.88 18.44 73.40 C 22.72 71.32 28.84 71.18 30.37 65.75 C 23.03 70.17 14.36 70.80 6.44 73.67 C 5.09 74.06 3.57 74.85 2.31 73.77 C 2.86 67.45 7.53 62.48 11.50 57.89 C 8.33 57.71 4.99 57.78 2.17 56.08 C 5.54 52.08 10.50 50.12 15.14 48.03 C 9.67 44.86 4.27 41.38 0.00 36.65 L 0.00 35.41 C 4.60 35.19 9.07 36.30 13.45 37.53 C 11.08 33.41 8.67 29.18 7.67 24.48 C 7.45 22.96 6.83 20.89 8.87 20.39 C 12.12 22.15 14.79 24.75 17.55 27.17 C 14.05 18.51 14.46 9.13 14.67 0.00 M 31.62 20.79 C 30.76 24.59 30.53 28.49 30.42 32.38 C 33.88 29.47 31.97 24.61 31.62 20.79 M 30.58 38.22 L 31.38 39.49 C 31.82 40.59 32.29 41.66 32.76 42.74 C 34.54 42.63 36.31 42.54 38.08 42.32 C 38.33 42.51 38.83 42.91 39.08 43.11 C 38.97 43.50 38.74 44.28 38.63 44.67 C 37.16 43.11 34.88 45.79 36.57 47.04 L 35.25 47.60 C 32.14 46.29 32.15 41.66 28.38 41.34 C 28.24 45.26 30.80 48.47 34.44 49.66 C 34.08 50.68 33.86 51.74 33.80 52.83 C 31.88 53.61 29.95 54.41 28.24 55.61 L 27.93 55.51 C 27.16 58.94 30.14 60.85 32.51 62.55 C 32.27 66.88 28.53 70.17 28.67 74.46 C 30.86 75.88 30.94 71.82 32.94 72.14 C 33.28 73.33 33.58 74.53 33.84 75.75 C 34.82 74.99 35.79 74.22 36.77 73.46 C 37.99 72.82 39.23 72.19 40.46 71.56 C 41.72 67.48 42.96 63.19 45.87 59.94 C 48.87 56.85 52.85 54.98 56.07 52.15 C 54.83 52.13 52.36 52.08 51.12 52.06 C 53.80 50.78 55.19 47.97 56.81 45.64 C 54.88 46.03 52.96 46.49 51.08 47.10 C 49.08 47.34 47.02 47.31 45.09 47.93 C 43.50 48.63 41.95 50.57 40.31 48.86 C 43.37 46.39 45.78 43.00 45.53 38.88 C 46.33 40.55 47.11 42.23 47.89 43.91 C 50.13 41.73 49.33 38.50 49.39 35.73 L 49.04 35.94 C 47.46 25.75 29.13 27.72 30.58 38.22 M 22.07 37.51 C 24.76 38.71 27.55 39.69 30.35 40.61 C 30.12 39.16 29.89 37.71 29.66 36.27 C 27.11 36.53 24.41 36.29 22.07 37.51 M 3.96 85.13 C 3.94 85.67 3.91 86.74 3.89 87.27 C 6.95 87.82 10.09 87.82 13.18 87.57 C 16.69 87.78 20.14 87.12 23.57 86.48 C 23.85 85.95 24.43 84.89 24.71 84.36 C 26.03 85.27 27.35 86.17 28.64 87.12 C 27.30 90.35 26.44 93.76 25.85 97.21 C 24.74 96.11 24.30 94.74 24.53 93.11 C 23.02 95.41 21.33 97.57 19.62 99.72 C 21.16 101.68 20.71 104.45 22.43 106.33 C 23.13 102.81 23.58 99.24 24.34 95.72 C 25.89 97.45 24.92 99.90 25.07 101.97 C 24.57 104.20 24.24 106.46 24.05 108.74 C 26.72 108.59 28.82 106.63 30.77 105.01 C 36.56 101.92 39.69 95.78 41.73 89.82 C 43.69 84.29 40.42 78.81 40.11 73.27 C 38.69 73.95 37.29 74.69 36.03 75.64 C 34.08 77.53 32.38 76.28 32.01 73.86 C 31.54 74.49 30.60 75.77 30.13 76.40 C 29.23 75.99 28.34 75.58 27.44 75.18 C 27.43 74.03 27.42 72.89 27.41 71.74 C 19.16 75.31 9.89 77.86 3.96 85.13 M 5.23 100.24 C 4.64 101.86 5.18 102.38 6.84 101.81 C 7.43 100.19 6.89 99.67 5.23 100.24 Z" />
<path fill="#5796b3" opacity="1.00" d=" M 16.63 0.00 L 17.63 0.00 C 16.58 5.28 18.70 10.52 19.61 15.69 C 20.97 21.02 21.15 26.97 24.32 31.63 C 25.72 33.75 28.07 32.61 29.37 31.07 C 30.38 32.56 28.64 34.01 28.15 35.33 C 25.08 35.37 22.02 35.36 18.95 35.36 C 16.10 31.59 13.07 27.94 9.70 24.62 C 9.56 24.07 9.28 22.97 9.14 22.41 C 12.88 24.88 15.84 28.45 19.94 30.38 C 19.43 25.81 17.70 21.49 17.05 16.95 C 16.17 11.33 16.98 5.64 16.63 0.00 Z" />
<path fill="#ffffff" opacity="1.00" d=" M 17.63 0.00 L 22.59 0.00 C 25.08 5.19 22.59 11.02 24.38 16.37 C 24.32 17.84 24.31 19.31 24.22 20.78 C 24.11 21.06 23.91 21.62 23.80 21.91 C 23.06 19.43 21.96 17.02 19.61 15.69 C 18.70 10.52 16.58 5.28 17.63 0.00 Z" />
<path fill="#000000" opacity="1.00" d=" M 22.59 0.00 L 24.39 0.00 C 25.63 5.28 26.22 11.22 24.38 16.37 C 22.59 11.02 25.08 5.19 22.59 0.00 Z" />
<path fill="#ffffff" opacity="1.00" d=" M 80.75 0.00 L 84.93 0.00 C 83.56 2.51 82.33 5.10 81.01 7.64 C 79.11 10.11 77.41 12.74 76.16 15.59 C 75.72 16.17 74.84 17.32 74.40 17.89 C 73.71 20.21 72.65 22.40 71.23 24.35 C 71.19 28.27 71.47 32.19 71.33 36.11 C 68.91 41.36 65.58 46.78 60.28 49.53 C 58.41 50.11 56.52 50.64 54.61 51.13 C 55.97 49.14 57.48 47.16 57.85 44.71 C 63.18 41.12 67.54 35.51 68.17 28.96 C 68.34 26.08 66.27 23.84 64.37 21.96 C 66.39 14.57 67.30 6.60 71.69 0.12 C 72.03 6.55 70.43 12.80 69.48 19.09 C 73.66 12.99 76.46 6.05 80.75 0.00 Z" />
<path fill="#000101" opacity="1.00" d=" M 84.93 0.00 L 86.70 0.00 C 84.59 4.38 82.41 8.72 80.04 12.97 C 86.52 8.35 93.33 4.25 100.04 0.00 L 104.42 0.00 C 95.37 4.32 87.12 10.07 78.75 15.53 C 77.38 16.46 75.91 17.22 74.40 17.89 C 74.84 17.32 75.72 16.17 76.16 15.59 C 78.39 13.36 79.84 10.54 81.01 7.64 C 82.33 5.10 83.56 2.51 84.93 0.00 Z" />
<path fill="#fefefe" opacity="1.00" d=" M 104.42 0.00 L 111.00 0.00 L 111.00 5.88 C 107.33 7.58 103.58 9.12 99.97 10.94 C 96.45 12.62 92.92 14.27 89.47 16.08 C 86.35 17.61 83.34 19.37 80.45 21.30 C 79.67 19.46 78.67 17.60 78.75 15.53 C 87.12 10.07 95.37 4.32 104.42 0.00 Z" />
<path fill="#4c82a6" opacity="1.00" d=" M 99.97 10.94 C 103.58 9.12 107.33 7.58 111.00 5.88 L 111.00 16.88 C 107.31 18.84 103.44 20.45 99.67 22.24 C 100.60 20.97 101.55 19.70 102.49 18.44 C 101.75 17.85 101.02 17.27 100.28 16.69 C 100.16 14.77 100.10 12.85 99.97 10.94 Z" />
<path fill="#57a0bb" opacity="1.00" d=" M 76.16 15.59 C 77.41 12.74 79.11 10.11 81.01 7.64 C 79.84 10.54 78.39 13.36 76.16 15.59 Z" />
<path fill="#3e6c97" opacity="1.00" d=" M 89.47 16.08 C 92.92 14.27 96.45 12.62 99.97 10.94 C 100.10 12.85 100.16 14.77 100.28 16.69 C 101.02 17.27 101.75 17.85 102.49 18.44 C 101.55 19.70 100.60 20.97 99.67 22.24 C 97.38 23.31 95.13 24.47 92.80 25.45 C 89.90 25.83 88.18 23.42 86.81 21.29 C 87.99 19.72 89.15 18.07 89.47 16.08 Z" />
<path fill="#5799b4" opacity="1.00" d=" M 74.40 17.89 C 75.91 17.22 77.38 16.46 78.75 15.53 C 78.67 17.60 79.67 19.46 80.45 21.30 C 78.39 22.38 76.10 23.02 74.16 24.33 C 72.67 28.11 72.40 32.22 71.33 36.11 C 71.47 32.19 71.19 28.27 71.23 24.35 C 72.65 22.40 73.71 20.21 74.40 17.89 Z" />
<path fill="#eceef3" opacity="1.00" d=" M 19.61 15.69 C 21.96 17.02 23.06 19.43 23.80 21.91 C 23.91 21.62 24.11 21.06 24.22 20.78 L 24.49 20.12 C 25.36 24.08 27.02 27.78 29.37 31.07 C 28.07 32.61 25.72 33.75 24.32 31.63 C 21.15 26.97 20.97 21.02 19.61 15.69 Z" />
<path fill="#2b4a81" opacity="1.00" d=" M 80.45 21.30 C 83.34 19.37 86.35 17.61 89.47 16.08 C 89.15 18.07 87.99 19.72 86.81 21.29 C 88.18 23.42 89.90 25.83 92.80 25.45 C 88.66 27.38 84.24 28.84 80.38 31.31 C 79.34 33.44 78.78 35.76 77.98 37.99 C 77.59 38.21 76.82 38.65 76.43 38.87 C 73.27 40.38 69.97 42.32 69.39 46.13 C 69.11 46.18 68.55 46.29 68.27 46.35 C 64.46 47.15 62.83 51.39 59.81 53.51 C 59.96 52.18 60.12 50.86 60.28 49.53 C 65.58 46.78 68.91 41.36 71.33 36.11 C 72.40 32.22 72.67 28.11 74.16 24.33 C 76.10 23.02 78.39 22.38 80.45 21.30 Z" />
<path fill="#f6f7fa" opacity="1.00" d=" M 99.67 22.24 C 103.44 20.45 107.31 18.84 111.00 16.88 L 111.00 22.60 C 109.49 24.54 107.82 26.35 106.28 28.26 C 96.64 31.57 87.29 35.69 77.64 38.98 L 77.98 37.99 C 78.78 35.76 79.34 33.44 80.38 31.31 C 84.24 28.84 88.66 27.38 92.80 25.45 C 95.13 24.47 97.38 23.31 99.67 22.24 Z" />
<path fill="#fefefe" opacity="1.00" d=" M 31.62 20.79 C 31.97 24.61 33.88 29.47 30.42 32.38 C 30.53 28.49 30.76 24.59 31.62 20.79 Z" />
<path fill="#000000" opacity="0.89" d=" M 106.28 28.26 C 107.82 26.35 109.49 24.54 111.00 22.60 L 111.00 28.35 C 109.11 29.15 107.27 30.06 105.66 31.34 L 103.47 32.39 C 104.36 30.98 105.30 29.61 106.28 28.26 Z" />
<path fill="#26417c" opacity="1.00" d=" M 9.70 24.62 C 13.07 27.94 16.10 31.59 18.95 35.36 C 18.75 35.62 18.36 36.13 18.16 36.39 C 19.88 38.03 22.13 38.89 24.32 39.67 C 24.32 41.33 25.57 42.84 27.29 42.85 C 27.54 44.28 27.83 45.71 28.17 47.13 C 25.63 45.36 23.19 43.47 20.72 41.61 C 20.40 41.73 19.74 41.97 19.41 42.09 C 15.42 36.74 11.07 31.34 9.70 24.62 Z" />
<path fill="#5999b4" opacity="1.00" d=" M 77.64 38.98 C 87.29 35.69 96.64 31.57 106.28 28.26 C 105.30 29.61 104.36 30.98 103.47 32.39 L 105.66 31.34 C 105.38 31.62 104.82 32.18 104.55 32.46 C 102.67 33.71 100.32 35.79 101.75 38.27 C 104.09 41.43 108.29 38.77 111.00 37.56 L 111.00 43.15 C 105.17 45.07 99.17 46.45 93.28 48.16 C 91.41 48.70 89.55 49.40 88.08 50.70 C 87.38 51.75 86.71 52.82 86.04 53.88 C 86.52 54.38 86.99 54.88 87.46 55.38 C 87.28 55.81 86.91 56.67 86.73 57.10 C 84.16 55.22 81.13 51.65 77.65 53.66 C 74.81 56.03 76.76 59.97 79.01 61.98 C 86.75 69.95 94.59 77.82 102.12 86.00 C 94.19 83.39 86.80 79.03 80.81 73.19 C 77.45 70.19 74.69 66.61 71.48 63.46 L 70.46 63.35 C 68.43 63.42 65.73 64.34 66.24 66.89 C 67.13 69.67 69.13 71.91 70.73 74.32 C 74.18 79.05 77.45 83.92 80.97 88.61 C 80.98 89.10 81.01 90.08 81.02 90.57 C 73.20 85.09 66.82 77.90 60.51 70.81 C 61.27 70.68 62.03 70.54 62.79 70.40 C 62.50 67.62 62.04 64.71 63.12 62.04 C 64.23 59.68 65.57 57.40 66.25 54.87 C 66.47 52.82 66.42 50.76 66.41 48.70 C 66.88 48.11 67.81 46.94 68.27 46.35 C 68.55 46.29 69.11 46.18 69.39 46.13 C 70.32 46.15 72.19 46.21 73.13 46.24 C 75.10 44.42 77.00 42.52 78.83 40.55 C 78.23 40.13 77.03 39.29 76.43 38.87 C 76.82 38.65 77.59 38.21 77.98 37.99 L 77.64 38.98 Z" />
<path fill="#fcfdfd" opacity="1.00" d=" M 105.66 31.34 C 107.27 30.06 109.11 29.15 111.00 28.35 L 111.00 37.56 C 108.29 38.77 104.09 41.43 101.75 38.27 C 100.32 35.79 102.67 33.71 104.55 32.46 C 104.82 32.18 105.38 31.62 105.66 31.34 Z" />
<path fill="#dfff9a" opacity="1.00" d=" M 30.58 38.22 C 29.13 27.72 47.46 25.75 49.04 35.94 C 46.97 37.16 44.97 38.48 42.89 39.66 C 41.75 40.03 40.61 40.37 39.46 40.66 C 39.09 39.89 38.36 38.35 37.99 37.58 C 37.76 39.15 37.75 40.75 38.08 42.32 C 36.31 42.54 34.54 42.63 32.76 42.74 C 32.29 41.66 31.82 40.59 31.38 39.49 C 34.82 38.69 38.57 37.49 40.38 34.19 C 37.08 35.45 33.86 36.90 30.58 38.22 Z" />
<path fill="#f5fde1" opacity="1.00" d=" M 30.58 38.22 C 33.86 36.90 37.08 35.45 40.38 34.19 C 38.57 37.49 34.82 38.69 31.38 39.49 L 30.58 38.22 Z" />
<path fill="#2a5886" opacity="1.00" d=" M 22.07 37.51 C 24.41 36.29 27.11 36.53 29.66 36.27 C 29.89 37.71 30.12 39.16 30.35 40.61 C 27.55 39.69 24.76 38.71 22.07 37.51 Z" />
<path fill="#256078" opacity="1.00" d=" M 49.04 35.94 L 49.39 35.73 C 49.33 38.50 50.13 41.73 47.89 43.91 C 47.11 42.23 46.33 40.55 45.53 38.88 C 45.78 43.00 43.37 46.39 40.31 48.86 C 40.02 48.70 39.43 48.38 39.14 48.22 C 39.47 47.48 39.81 46.73 40.13 45.99 C 41.09 43.89 42.01 41.79 42.89 39.66 C 44.97 38.48 46.97 37.16 49.04 35.94 Z" />
<path fill="#eceef3" opacity="1.00" d=" M 4.50 38.30 C 8.57 38.32 13.21 38.26 16.46 41.14 C 12.90 41.32 9.56 39.90 6.10 39.32 C 5.57 38.97 5.04 38.63 4.50 38.30 Z" />
<path fill="#2e544d" opacity="1.00" d=" M 38.08 42.32 C 37.75 40.75 37.76 39.15 37.99 37.58 C 38.36 38.35 39.09 39.89 39.46 40.66 C 39.81 42.42 40.00 44.20 40.13 45.99 C 39.81 46.73 39.47 47.48 39.14 48.22 C 39.43 48.38 40.02 48.70 40.31 48.86 C 41.95 50.57 43.50 48.63 45.09 47.93 C 47.02 47.31 49.08 47.34 51.08 47.10 C 47.56 48.11 43.97 49.23 41.30 51.88 C 41.16 51.50 40.88 50.74 40.74 50.35 C 39.20 50.60 37.66 50.85 36.12 51.09 C 35.36 51.69 34.59 52.27 33.80 52.83 C 33.86 51.74 34.08 50.68 34.44 49.66 C 34.64 49.15 35.05 48.12 35.25 47.60 L 36.57 47.04 C 37.72 46.80 38.50 45.82 38.63 44.67 C 38.74 44.28 38.97 43.50 39.08 43.11 C 38.83 42.91 38.33 42.51 38.08 42.32 Z" />
<path fill="#45759d" opacity="1.00" d=" M 69.39 46.13 C 69.97 42.32 73.27 40.38 76.43 38.87 C 77.03 39.29 78.23 40.13 78.83 40.55 C 77.00 42.52 75.10 44.42 73.13 46.24 C 72.19 46.21 70.32 46.15 69.39 46.13 Z" />
<path fill="#416e99" opacity="1.00" d=" M 6.10 39.32 C 9.56 39.90 12.90 41.32 16.46 41.14 C 17.51 41.94 18.54 42.77 19.55 43.61 C 20.16 44.17 20.77 44.73 21.38 45.28 C 20.65 46.35 19.93 47.42 19.17 48.46 C 14.68 45.62 9.87 43.14 6.10 39.32 Z" />
<path fill="#4c82a3" opacity="1.00" d=" M 24.32 39.67 C 25.92 39.95 27.37 41.09 27.29 42.85 C 25.57 42.84 24.32 41.33 24.32 39.67 Z" />
<path fill="#4f9392" opacity="1.00" d=" M 39.46 40.66 C 40.61 40.37 41.75 40.03 42.89 39.66 C 42.01 41.79 41.09 43.89 40.13 45.99 C 40.00 44.20 39.81 42.42 39.46 40.66 Z" />
<path fill="#365c8d" opacity="1.00" d=" M 19.41 42.09 C 19.74 41.97 20.40 41.73 20.72 41.61 C 23.19 43.47 25.63 45.36 28.17 47.13 C 28.43 47.33 28.95 47.73 29.21 47.94 C 28.93 49.19 28.65 50.44 28.36 51.69 C 25.02 52.17 21.72 51.33 18.65 50.03 C 18.36 49.79 17.78 49.30 17.49 49.05 C 17.91 48.90 18.75 48.61 19.17 48.46 C 19.93 47.42 20.65 46.35 21.38 45.28 C 20.77 44.73 20.16 44.17 19.55 43.61 C 19.52 43.23 19.45 42.47 19.41 42.09 Z" />
<path fill="#3a828e" opacity="1.00" d=" M 28.38 41.34 C 32.15 41.66 32.14 46.29 35.25 47.60 C 35.05 48.12 34.64 49.15 34.44 49.66 C 30.80 48.47 28.24 45.26 28.38 41.34 Z" />
<path fill="#000000" opacity="1.00" d=" M 93.28 48.16 C 99.17 46.45 105.17 45.07 111.00 43.15 L 111.00 45.44 C 107.35 46.74 103.56 47.56 99.80 48.48 C 103.52 49.00 107.25 49.30 111.00 49.44 L 111.00 50.89 C 103.36 50.91 95.70 49.89 88.08 50.70 C 89.55 49.40 91.41 48.70 93.28 48.16 Z" />
<path fill="#f1ffc8" opacity="1.00" d=" M 36.57 47.04 C 34.88 45.79 37.16 43.11 38.63 44.67 C 38.50 45.82 37.72 46.80 36.57 47.04 Z" />
<path fill="#f1ffc8" opacity="1.00" d=" M 51.08 47.10 C 52.96 46.49 54.88 46.03 56.81 45.64 C 55.19 47.97 53.80 50.78 51.12 52.06 C 49.02 52.91 46.88 53.67 44.75 54.45 L 44.71 52.64 C 44.20 53.36 43.70 54.09 43.21 54.83 C 43.23 55.27 43.28 56.16 43.30 56.60 C 40.32 57.21 37.29 57.48 34.25 57.42 C 34.62 56.91 35.36 55.89 35.73 55.38 C 36.98 55.63 39.06 56.38 39.68 54.73 C 40.00 53.20 37.83 52.98 36.92 53.65 C 35.08 54.15 33.95 55.70 32.75 57.04 C 31.25 56.56 29.74 56.10 28.24 55.61 C 29.95 54.41 31.88 53.61 33.80 52.83 C 34.59 52.27 35.36 51.69 36.12 51.09 C 37.66 50.85 39.20 50.60 40.74 50.35 C 40.88 50.74 41.16 51.50 41.30 51.88 C 43.97 49.23 47.56 48.11 51.08 47.10 Z" />
<path fill="#2b4880" opacity="1.00" d=" M 29.21 47.94 C 30.52 48.95 31.83 49.99 33.13 51.03 C 30.94 52.44 28.24 53.35 26.59 55.45 C 25.07 58.81 28.44 61.49 30.82 63.23 C 29.41 64.04 28.02 64.89 26.58 65.65 C 24.39 63.66 21.43 63.01 18.54 63.07 C 20.54 61.51 22.08 59.48 23.45 57.36 C 21.68 55.03 20.13 52.55 18.65 50.03 C 21.72 51.33 25.02 52.17 28.36 51.69 C 28.65 50.44 28.93 49.19 29.21 47.94 Z" />
<path fill="#fefefe" opacity="1.00" d=" M 6.77 54.29 C 9.69 52.32 12.82 50.61 16.17 49.47 C 16.65 50.34 17.13 51.22 17.60 52.10 C 14.11 53.34 10.42 53.76 6.77 54.29 Z" />
<path fill="#5d9fb8" opacity="1.00" d=" M 16.17 49.47 C 16.50 49.36 17.16 49.15 17.49 49.05 C 17.78 49.30 18.36 49.79 18.65 50.03 C 20.13 52.55 21.68 55.03 23.45 57.36 C 22.08 59.48 20.54 61.51 18.54 63.07 C 16.27 63.68 13.98 64.24 11.71 64.85 C 14.38 63.01 18.65 61.44 18.23 57.50 C 18.10 57.25 17.82 56.76 17.68 56.51 C 13.43 55.89 9.13 55.78 4.85 55.55 C 5.48 55.12 6.12 54.70 6.77 54.29 C 10.42 53.76 14.11 53.34 17.60 52.10 C 17.13 51.22 16.65 50.34 16.17 49.47 Z" />
<path fill="#2e4d84" opacity="1.00" d=" M 59.20 55.55 C 61.62 53.43 63.95 51.21 66.30 49.01 C 66.31 50.96 66.33 52.92 66.25 54.87 C 65.57 57.40 64.23 59.68 63.12 62.04 C 60.57 60.20 56.20 57.19 53.78 60.82 C 52.52 64.78 53.50 69.22 55.82 72.60 C 55.74 73.20 55.59 74.41 55.51 75.01 C 51.33 71.94 47.24 68.14 45.64 63.06 C 47.89 57.84 54.12 56.31 58.13 52.72 C 58.40 53.43 58.93 54.85 59.20 55.55 Z" />
<path fill="#5d9eb7" opacity="1.00" d=" M 88.08 50.70 C 95.70 49.89 103.36 50.91 111.00 50.89 L 111.00 58.68 C 107.06 58.84 103.12 58.87 99.18 58.80 C 100.36 61.16 101.55 63.52 102.76 65.86 C 100.25 65.32 97.48 65.19 95.28 63.76 C 92.58 61.06 90.25 58.00 87.46 55.38 C 86.99 54.88 86.52 54.38 86.04 53.88 C 86.71 52.82 87.38 51.75 88.08 50.70 Z" />
<path fill="#5d9b8d" opacity="1.00" d=" M 44.75 54.45 C 46.88 53.67 49.02 52.91 51.12 52.06 C 52.36 52.08 54.83 52.13 56.07 52.15 C 52.85 54.98 48.87 56.85 45.87 59.94 C 42.96 63.19 41.72 67.48 40.46 71.56 C 39.23 72.19 37.99 72.82 36.77 73.46 C 37.42 69.97 38.94 65.97 36.12 63.01 C 38.18 63.24 40.60 63.94 42.30 62.31 C 44.70 60.45 44.70 57.20 44.75 54.45 Z" />
<path fill="#fbfef1" opacity="1.00" d=" M 36.92 53.65 C 37.83 52.98 40.00 53.20 39.68 54.73 C 39.06 56.38 36.98 55.63 35.73 55.38 C 36.03 54.95 36.62 54.08 36.92 53.65 Z" />
<path fill="#000101" opacity="1.00" d=" M 43.21 54.83 C 43.70 54.09 44.20 53.36 44.71 52.64 L 44.75 54.45 C 44.70 57.20 44.70 60.45 42.30 62.31 C 40.60 63.94 38.18 63.24 36.12 63.01 L 34.98 62.86 C 34.06 60.99 33.33 59.04 32.75 57.04 C 33.95 55.70 35.08 54.15 36.92 53.65 C 36.62 54.08 36.03 54.95 35.73 55.38 C 35.36 55.89 34.62 56.91 34.25 57.42 C 34.19 59.71 35.55 61.87 37.93 62.19 C 41.14 63.20 44.23 59.71 43.30 56.60 C 43.28 56.16 43.23 55.27 43.21 54.83 Z" />
<path fill="#f9f9fb" opacity="1.00" d=" M 77.65 53.66 C 81.13 51.65 84.16 55.22 86.73 57.10 C 95.42 64.89 101.69 75.49 104.52 86.79 C 103.92 86.59 102.72 86.20 102.12 86.00 C 94.59 77.82 86.75 69.95 79.01 61.98 C 76.76 59.97 74.81 56.03 77.65 53.66 Z" />
<path fill="#5c9a8d" opacity="1.00" d=" M 27.93 55.51 L 28.24 55.61 C 29.74 56.10 31.25 56.56 32.75 57.04 C 33.33 59.04 34.06 60.99 34.98 62.86 C 34.36 62.78 33.12 62.63 32.51 62.55 C 30.14 60.85 27.16 58.94 27.93 55.51 Z" />
<path fill="#000000" opacity="0.91" d=" M 86.73 57.10 C 86.91 56.67 87.28 55.81 87.46 55.38 C 90.25 58.00 92.58 61.06 95.28 63.76 C 97.48 65.19 100.25 65.32 102.76 65.86 C 101.55 63.52 100.36 61.16 99.18 58.80 C 103.12 58.87 107.06 58.84 111.00 58.68 L 111.00 60.77 C 108.10 60.87 105.21 60.92 102.31 60.89 C 103.33 63.00 105.28 65.08 104.71 67.60 C 102.33 68.55 99.83 67.26 97.45 66.99 C 101.25 73.70 106.76 80.69 105.79 88.83 C 97.13 87.32 89.39 82.71 82.46 77.49 C 82.70 82.17 83.97 87.04 82.73 91.66 C 82.37 93.36 80.78 93.16 79.73 92.21 C 73.07 87.27 67.16 81.37 61.88 75.00 C 60.55 73.45 59.52 71.66 58.77 69.76 C 58.99 69.81 59.44 69.91 59.66 69.96 C 59.87 70.17 60.30 70.60 60.51 70.81 C 66.82 77.90 73.20 85.09 81.02 90.57 C 81.01 90.08 80.98 89.10 80.97 88.61 C 80.79 84.15 81.07 79.52 79.80 75.21 C 76.47 71.44 72.86 67.84 70.46 63.35 L 71.48 63.46 C 74.69 66.61 77.45 70.19 80.81 73.19 C 86.80 79.03 94.19 83.39 102.12 86.00 C 102.72 86.20 103.92 86.59 104.52 86.79 C 101.69 75.49 95.42 64.89 86.73 57.10 Z" />
<path fill="#5c9b8d" opacity="1.00" d=" M 34.25 57.42 C 37.29 57.48 40.32 57.21 43.30 56.60 C 44.23 59.71 41.14 63.20 37.93 62.19 C 35.55 61.87 34.19 59.71 34.25 57.42 Z" />
<path fill="#ffffff" opacity="1.00" d=" M 6.98 66.56 C 9.73 62.57 12.46 56.81 18.23 57.50 C 18.65 61.44 14.38 63.01 11.71 64.85 C 10.13 65.41 8.55 65.99 6.98 66.56 Z" />
<path fill="#3d6794" opacity="1.00" d=" M 53.78 60.82 C 56.20 57.19 60.57 60.20 63.12 62.04 C 62.04 64.71 62.50 67.62 62.79 70.40 C 62.03 70.54 61.27 70.68 60.51 70.81 C 60.30 70.60 59.87 70.17 59.66 69.96 C 59.48 69.78 59.12 69.43 58.94 69.25 C 58.17 68.08 57.36 66.94 56.58 65.78 C 56.36 68.06 56.15 70.34 55.82 72.60 C 53.50 69.22 52.52 64.78 53.78 60.82 Z" />
<path fill="#34588b" opacity="1.00" d=" M 11.71 64.85 C 13.98 64.24 16.27 63.68 18.54 63.07 C 21.43 63.01 24.39 63.66 26.58 65.65 C 19.46 68.52 11.75 69.53 4.42 71.78 C 5.24 70.02 6.05 68.27 6.98 66.56 C 8.55 65.99 10.13 65.41 11.71 64.85 Z" />
<path fill="#f1ffc8" opacity="1.00" d=" M 32.51 62.55 C 33.12 62.63 34.36 62.78 34.98 62.86 L 36.12 63.01 C 38.94 65.97 37.42 69.97 36.77 73.46 C 35.79 74.22 34.82 74.99 33.84 75.75 C 33.58 74.53 33.28 73.33 32.94 72.14 C 30.94 71.82 30.86 75.88 28.67 74.46 C 28.53 70.17 32.27 66.88 32.51 62.55 Z" />
<path fill="#f5f5f8" opacity="1.00" d=" M 66.24 66.89 C 65.73 64.34 68.43 63.42 70.46 63.35 C 72.86 67.84 76.47 71.44 79.80 75.21 C 81.07 79.52 80.79 84.15 80.97 88.61 C 77.45 83.92 74.18 79.05 70.73 74.32 C 69.13 71.91 67.13 69.67 66.24 66.89 Z" />
<path fill="#ffffff" opacity="1.00" d=" M 3.96 85.13 C 9.89 77.86 19.16 75.31 27.41 71.74 C 27.42 72.89 27.43 74.03 27.44 75.18 C 28.34 75.58 29.23 75.99 30.13 76.40 C 30.60 75.77 31.54 74.49 32.01 73.86 C 32.38 76.28 34.08 77.53 36.03 75.64 C 38.71 85.70 36.52 96.43 30.77 105.01 C 28.82 106.63 26.72 108.59 24.05 108.74 C 24.24 106.46 24.57 104.20 25.07 101.97 C 25.41 100.39 25.65 98.80 25.85 97.21 C 26.44 93.76 27.30 90.35 28.64 87.12 C 27.35 86.17 26.03 85.27 24.71 84.36 C 20.61 83.78 15.73 83.65 13.18 87.57 C 10.09 87.82 6.95 87.82 3.89 87.27 C 3.91 86.74 3.94 85.67 3.96 85.13 Z" />
<path fill="#5d9fb8" opacity="1.00" d=" M 36.03 75.64 C 37.29 74.69 38.69 73.95 40.11 73.27 C 40.42 78.81 43.69 84.29 41.73 89.82 C 39.69 95.78 36.56 101.92 30.77 105.01 C 36.52 96.43 38.71 85.70 36.03 75.64 Z" />
<path fill="#57a0bb" opacity="1.00" d=" M 13.18 87.57 C 15.73 83.65 20.61 83.78 24.71 84.36 C 24.43 84.89 23.85 85.95 23.57 86.48 C 20.14 87.12 16.69 87.78 13.18 87.57 Z" />
<path fill="#123452" opacity="1.00" d=" M 20.20 89.20 C 22.19 87.95 24.60 87.77 26.86 87.38 C 25.06 92.07 20.71 94.94 17.96 99.01 C 18.18 100.21 18.39 101.42 18.60 102.64 C 16.64 103.42 14.67 104.17 12.76 105.06 C 12.65 104.64 12.44 103.81 12.33 103.39 C 14.01 102.72 16.31 102.79 17.30 101.02 C 17.52 99.15 16.06 97.83 15.11 96.43 C 15.64 95.95 16.17 95.47 16.69 94.99 C 17.32 96.05 19.47 96.52 19.82 94.98 C 19.64 93.94 19.01 93.29 17.91 93.04 C 18.67 91.75 19.33 90.41 20.20 89.20 Z" />
<path fill="#316d76" opacity="1.00" d=" M 17.91 93.04 C 19.01 93.29 19.64 93.94 19.82 94.98 C 19.47 96.52 17.32 96.05 16.69 94.99 C 17.00 94.50 17.61 93.52 17.91 93.04 Z" />
<path fill="#36767b" opacity="1.00" d=" M 3.28 104.99 C 7.83 103.03 11.57 99.82 15.11 96.43 C 16.06 97.83 17.52 99.15 17.30 101.02 C 16.31 102.79 14.01 102.72 12.33 103.39 C 12.44 103.81 12.65 104.64 12.76 105.06 C 11.73 105.75 10.74 106.50 9.76 107.26 C 7.74 107.29 5.67 107.20 3.87 106.17 L 3.28 104.99 Z" />
<path fill="#0e153b" opacity="1.00" d=" M 5.23 100.24 C 6.89 99.67 7.43 100.19 6.84 101.81 C 5.18 102.38 4.64 101.86 5.23 100.24 Z" />
<path fill="#123351" opacity="1.00" d=" M 28.98 108.92 C 33.29 105.74 37.52 101.82 43.18 101.54 C 41.73 104.71 40.31 107.91 38.69 111.00 L 35.02 111.00 C 35.06 110.15 35.14 108.44 35.18 107.58 C 33.11 108.00 31.05 108.48 28.98 108.92 Z" />
<path fill="#151d56" opacity="1.00" d=" M 15.82 105.58 C 16.96 105.05 18.10 104.50 19.24 103.97 C 19.69 105.32 21.43 106.73 20.32 108.16 C 19.38 109.34 18.09 110.16 16.87 111.00 L 15.24 111.00 C 14.94 110.67 14.33 110.00 14.03 109.67 C 15.23 108.39 16.42 107.12 17.59 105.82 L 15.82 105.58 Z" />
<path fill="#123351" opacity="1.00" d=" M 3.87 106.17 C 5.67 107.20 7.74 107.29 9.76 107.26 C 11.02 108.51 12.24 109.78 13.52 111.00 L 6.23 111.00 C 5.40 109.41 4.65 107.78 3.87 106.17 Z" />
<path fill="#29527e" opacity="1.00" d=" M 11.94 107.37 C 13.23 106.76 14.51 106.15 15.82 105.58 L 17.59 105.82 C 16.42 107.12 15.23 108.39 14.03 109.67 C 13.51 109.09 12.46 107.95 11.94 107.37 Z" />
</svg>
