<?xml version="1.0" encoding="UTF-8" ?>
<!DOCTYPE svg PUBLIC "-//W3C//DTD SVG 1.1//EN" "http://www.w3.org/Graphics/SVG/1.1/DTD/svg11.dtd">
<svg width="111pt" height="111pt" viewBox="0 0 111 111" version="1.1" xmlns="http://www.w3.org/2000/svg">
<path fill="#987a5b" opacity="1.00" d=" M 0.00 0.00 L 1.72 0.00 C 1.11 3.57 1.06 7.19 1.11 10.81 C 0.83 11.45 0.28 12.73 0.00 13.37 L 0.00 0.00 Z" />
<path fill="#000000" opacity="1.00" d=" M 1.72 0.00 L 5.17 0.00 C 4.93 0.53 4.45 1.59 4.21 2.12 C 9.41 7.11 17.10 8.62 21.88 14.14 C 24.07 16.51 24.57 20.20 23.12 23.07 C 21.21 26.74 17.89 29.34 14.81 31.97 C 20.07 35.05 25.81 39.42 26.32 46.01 C 26.61 53.18 21.26 58.58 17.15 63.80 C 20.35 62.79 23.77 63.48 26.96 62.45 C 36.50 59.80 47.13 58.03 56.39 62.61 C 55.91 59.27 55.74 55.89 55.78 52.52 C 54.42 51.19 52.39 50.12 52.12 48.05 C 51.53 44.67 53.71 41.79 55.43 39.13 C 53.00 33.43 50.90 27.34 51.61 21.04 C 52.19 13.19 55.88 5.87 61.00 0.00 L 67.17 0.00 C 63.75 5.70 61.88 12.37 61.82 19.02 C 61.65 23.91 65.13 28.51 63.14 33.36 C 64.58 33.19 66.22 33.50 67.33 32.31 C 71.18 29.32 75.72 27.40 80.40 26.14 C 83.59 22.32 81.15 17.41 82.10 13.02 C 82.75 8.21 85.10 3.84 87.97 0.00 L 90.84 0.00 C 89.58 1.95 88.42 4.02 86.54 5.46 C 84.22 7.57 85.05 10.95 85.01 13.71 C 85.02 14.25 85.03 15.35 85.04 15.90 C 84.81 19.48 85.14 23.28 83.57 26.61 C 81.82 30.21 80.50 33.99 78.68 37.55 C 79.92 36.52 81.13 35.46 82.31 34.37 C 83.59 34.36 84.88 34.35 86.16 34.34 C 86.32 33.22 86.48 32.10 86.65 30.98 C 88.58 30.45 89.76 28.95 90.68 27.29 C 92.67 26.36 94.73 25.54 96.59 24.36 C 96.18 21.76 93.12 20.39 92.22 17.88 C 91.43 19.72 90.72 21.58 90.17 23.50 C 88.52 26.98 85.49 29.53 82.70 32.09 C 84.57 28.25 87.59 25.12 89.40 21.25 C 90.37 18.15 88.40 15.08 89.20 11.98 C 90.12 7.86 89.77 3.04 93.23 0.00 L 94.48 0.00 C 92.19 4.49 90.72 9.54 91.49 14.61 C 93.11 9.71 93.70 4.42 96.58 0.00 L 99.84 0.00 C 97.20 4.65 94.41 9.59 94.20 15.05 C 95.28 18.19 97.92 20.51 99.96 23.06 C 103.60 22.20 107.28 21.51 111.00 21.06 L 111.00 25.14 C 107.25 25.38 103.48 25.50 99.76 26.15 C 102.92 28.66 107.30 27.28 111.00 27.51 L 111.00 29.69 C 107.05 30.44 103.04 30.83 99.02 30.87 C 96.27 30.92 93.02 30.44 91.12 32.92 C 90.10 34.01 89.11 35.13 88.04 36.17 C 87.05 36.60 86.03 36.96 85.01 37.34 C 85.06 37.93 85.15 39.09 85.19 39.67 L 81.67 37.51 C 82.23 38.46 83.34 40.34 83.90 41.29 C 80.93 40.98 78.85 38.97 77.26 36.63 C 76.53 35.72 75.81 34.81 75.09 33.90 C 77.37 33.82 78.97 32.50 79.79 30.43 C 77.39 30.70 74.96 31.13 72.80 32.26 C 70.72 33.41 68.75 34.77 66.96 36.34 C 64.32 38.83 60.59 40.61 59.82 44.51 C 58.33 50.84 58.01 57.63 59.55 63.98 C 60.06 63.82 61.06 63.49 61.56 63.32 L 60.92 61.94 C 60.94 60.22 61.03 58.49 61.13 56.77 C 62.13 58.66 63.10 60.56 64.05 62.48 C 65.40 62.25 66.75 62.03 68.10 61.80 C 67.36 59.76 66.51 57.76 65.68 55.76 C 64.83 52.87 64.40 49.89 63.95 46.93 L 64.63 48.41 C 65.03 49.30 65.47 50.17 65.96 51.02 C 67.65 52.93 69.57 54.62 71.44 56.36 C 71.39 55.83 71.29 54.75 71.23 54.21 C 72.99 50.78 76.45 48.44 77.48 44.62 C 77.52 44.40 77.61 43.96 77.65 43.73 C 78.21 44.07 79.34 44.74 79.91 45.07 C 81.35 44.18 82.76 43.23 84.11 42.21 C 86.00 43.25 87.79 44.44 89.50 45.75 C 90.44 45.39 91.38 45.03 92.32 44.66 C 90.78 42.24 88.45 40.09 85.41 40.01 C 86.05 39.51 86.70 39.02 87.35 38.53 C 90.61 40.26 93.42 42.71 95.58 45.71 C 99.14 44.91 102.63 43.88 106.15 42.93 C 107.77 42.50 109.39 42.08 111.00 41.59 L 111.00 43.27 C 110.14 44.14 109.27 44.99 108.37 45.83 C 105.19 48.83 101.64 51.39 98.31 54.22 C 102.50 53.16 106.68 51.99 111.00 51.59 L 111.00 54.62 C 105.39 56.18 99.57 56.88 94.08 58.85 C 89.52 60.49 84.56 61.22 80.64 64.28 C 82.18 64.34 83.71 64.50 85.23 64.75 C 82.76 66.45 80.24 68.16 77.30 68.92 C 79.86 68.79 82.42 68.72 84.98 68.48 C 85.39 68.12 86.22 67.39 86.63 67.03 C 88.35 67.00 89.92 66.42 91.24 65.33 C 97.68 63.43 104.40 64.50 111.00 64.19 L 111.00 66.18 C 104.77 67.47 98.07 66.47 92.15 69.02 C 88.47 70.39 88.43 74.89 88.22 78.17 C 89.95 81.37 93.51 80.82 96.25 79.37 C 101.24 77.25 106.29 75.25 111.00 72.53 L 111.00 77.14 C 106.06 79.22 100.93 80.82 96.02 82.98 C 92.63 84.27 90.93 87.76 88.55 90.27 C 95.82 93.26 103.74 89.57 111.00 92.78 L 111.00 96.91 C 106.87 95.54 102.45 94.59 98.10 95.39 C 94.62 96.04 91.88 98.42 88.86 100.07 C 89.79 100.30 90.51 100.80 91.04 101.59 C 92.37 100.51 94.06 100.46 95.69 100.36 L 95.10 102.09 C 94.01 102.65 92.92 103.24 91.84 103.83 C 91.83 106.33 91.28 108.77 90.13 111.00 L 86.76 111.00 C 87.20 108.99 87.49 106.95 87.74 104.91 C 85.77 106.79 84.04 108.89 82.32 111.00 L 76.68 111.00 C 77.06 110.67 77.82 110.01 78.20 109.67 C 79.72 108.20 81.24 106.69 82.38 104.89 C 82.93 101.41 79.69 97.95 81.50 94.55 C 83.52 89.89 88.00 87.07 90.98 83.10 C 89.77 82.42 88.56 81.74 87.35 81.06 C 84.91 83.54 82.24 86.15 78.58 86.52 C 78.92 85.97 79.60 84.88 79.94 84.34 C 83.03 81.96 87.05 78.97 85.18 74.47 C 83.98 74.75 82.78 75.01 81.59 75.35 C 77.85 77.06 73.69 77.41 69.89 78.91 C 67.82 80.14 65.24 81.74 65.81 84.58 C 66.71 85.66 67.64 86.71 68.56 87.77 C 68.26 89.08 67.96 90.39 67.66 91.70 C 65.78 98.06 63.80 104.38 63.07 111.00 L 60.06 111.00 C 60.06 110.14 60.05 108.43 60.05 107.58 C 58.59 108.72 57.14 109.89 55.65 111.00 L 53.23 111.00 C 55.15 108.95 57.06 106.88 59.09 104.94 C 53.51 107.83 47.43 104.67 41.68 106.22 C 38.63 106.95 36.20 109.04 33.85 111.00 L 29.61 111.00 C 31.97 108.57 34.38 106.17 37.11 104.15 C 39.06 103.32 41.02 102.52 42.97 101.68 C 43.75 101.66 45.29 101.63 46.07 101.61 C 45.46 100.49 44.86 99.36 44.27 98.23 C 40.44 98.34 36.38 98.78 33.31 101.30 C 30.07 103.56 29.23 107.57 27.83 111.00 L 22.98 111.00 C 24.48 105.82 26.35 100.26 30.97 97.02 C 34.99 93.98 40.32 93.33 45.15 94.40 C 46.98 89.62 51.04 86.47 55.22 83.83 C 53.46 83.63 51.69 83.38 49.92 83.43 C 46.56 84.08 43.56 86.46 39.99 85.86 C 32.38 85.06 25.35 81.76 18.45 78.66 C 20.11 82.24 23.26 85.71 22.57 89.91 C 21.47 92.78 18.57 94.50 15.97 95.87 C 14.20 95.51 13.26 97.74 15.33 98.14 C 16.41 100.87 13.23 102.44 11.83 104.32 C 12.74 106.43 12.99 108.72 12.95 111.00 L 8.10 111.00 C 7.50 109.43 6.88 109.43 6.25 111.00 L 0.80 111.00 C 3.79 106.76 7.30 102.95 10.97 99.28 C 6.50 99.74 3.13 102.95 0.00 105.86 L 0.00 103.11 C 2.23 101.76 4.69 100.63 6.16 98.36 C 4.05 99.00 1.95 99.72 0.00 100.76 L 0.00 98.03 C 1.50 96.58 3.07 95.20 4.58 93.77 C 3.04 94.24 1.51 94.72 0.00 95.29 L 0.00 92.24 C 0.45 92.22 1.36 92.17 1.82 92.15 C 3.28 92.11 4.04 91.32 4.11 89.78 C 4.39 88.74 4.70 87.71 5.04 86.69 C 5.64 86.54 6.85 86.24 7.46 86.09 C 7.10 83.14 6.98 80.13 6.16 77.27 C 5.13 75.45 3.63 73.97 2.33 72.35 C 1.75 72.31 0.58 72.22 0.00 72.18 L 0.00 69.44 C 1.65 70.03 3.32 70.58 4.98 71.17 C 4.71 70.02 4.44 68.86 4.18 67.70 C 2.78 67.79 1.39 67.88 0.00 67.97 L 0.00 61.95 C 2.24 61.06 4.55 59.77 7.05 60.14 C 8.80 60.25 10.93 60.77 12.35 59.42 C 14.15 56.08 14.07 52.11 14.10 48.42 C 9.30 47.76 4.45 46.99 0.00 44.99 L 0.00 40.66 C 4.31 42.97 9.20 44.67 14.14 44.49 C 14.39 44.53 14.89 44.61 15.14 44.65 L 15.99 45.20 C 17.16 46.70 18.73 48.05 19.24 49.94 C 18.04 55.85 12.72 59.50 10.17 64.70 C 13.78 63.29 15.56 59.64 17.85 56.78 C 20.60 53.19 23.29 48.66 21.92 43.96 C 21.52 41.23 18.84 39.85 17.06 38.05 C 16.89 39.29 16.71 40.52 16.54 41.75 C 14.93 39.06 11.52 37.93 10.79 34.65 C 9.74 35.33 8.69 36.01 7.65 36.70 L 6.97 37.16 C 6.20 37.31 4.66 37.61 3.90 37.76 C 6.90 34.61 10.13 31.59 12.16 27.67 C 12.57 27.66 13.38 27.65 13.78 27.64 C 15.09 26.52 16.31 25.28 17.45 23.98 C 19.36 21.98 20.98 19.00 18.73 16.59 C 15.06 13.18 10.41 11.19 6.33 8.39 C 5.30 7.64 4.30 6.86 3.28 6.10 C 3.34 9.12 3.88 12.10 4.59 15.02 C 3.31 13.73 2.04 12.39 1.11 10.81 C 1.06 7.19 1.11 3.57 1.72 0.00 M 56.37 34.08 C 55.79 24.79 56.92 15.49 59.91 6.67 C 54.18 14.53 53.31 25.00 56.37 34.08 M 59.33 22.63 C 59.70 28.14 58.29 33.71 59.43 39.16 C 60.31 35.97 59.88 32.51 61.24 29.44 C 60.37 27.23 59.91 24.91 59.33 22.63 M 63.23 33.90 L 62.63 34.25 C 62.74 36.94 65.62 34.26 63.23 33.90 M 56.55 49.93 C 56.71 47.55 56.68 45.16 56.44 42.78 C 54.56 44.69 53.03 48.85 56.55 49.93 M 83.99 43.70 C 82.86 45.14 81.66 46.52 80.38 47.83 C 80.94 48.93 81.52 50.01 82.13 51.08 C 83.20 55.91 82.03 61.88 77.06 64.05 C 79.91 65.69 80.76 60.89 83.22 60.14 L 83.33 59.78 C 84.92 59.58 86.51 59.38 88.10 59.20 C 89.30 57.63 90.38 55.99 91.29 54.24 L 91.30 53.70 C 91.88 52.84 92.41 51.94 92.96 51.05 C 93.17 51.81 93.60 53.31 93.81 54.07 C 96.12 50.75 100.51 49.48 103.37 46.57 C 99.74 47.36 96.33 48.96 92.64 49.51 C 92.33 50.03 91.72 51.07 91.41 51.59 L 91.47 50.73 C 89.82 47.57 87.05 45.40 83.99 43.70 M 78.23 49.32 C 76.85 51.51 78.03 54.67 77.81 57.23 C 77.52 58.44 77.11 59.63 75.91 60.22 C 75.55 59.78 74.82 58.92 74.46 58.48 C 72.08 56.87 69.08 56.63 66.73 54.97 C 68.28 57.24 68.27 60.76 70.77 62.21 C 72.29 62.46 73.78 62.90 75.23 63.42 C 77.44 61.89 79.51 60.04 80.48 57.45 L 80.70 57.47 C 80.53 54.86 81.00 50.50 78.23 49.32 M 75.40 52.35 C 75.34 54.27 74.24 56.36 75.21 58.18 C 77.19 57.60 76.25 53.59 75.40 52.35 M 12.70 64.80 C 12.21 65.97 11.70 67.12 11.21 68.29 C 14.54 67.71 15.79 64.70 16.87 61.91 C 15.33 62.64 13.97 63.68 12.70 64.80 M 44.04 63.22 C 37.59 62.65 31.36 64.70 25.17 66.18 L 24.70 66.05 C 22.54 66.84 19.24 66.50 18.12 68.81 C 20.03 69.49 22.04 69.98 24.08 69.65 C 32.11 68.80 39.91 66.03 48.00 65.79 C 54.44 68.10 60.96 70.09 67.63 71.63 C 70.68 69.72 73.64 67.65 76.82 65.94 C 75.32 65.44 73.82 64.95 72.32 64.45 C 71.65 65.03 70.99 65.63 70.33 66.24 L 71.80 66.93 C 69.71 67.66 67.51 67.39 65.34 67.28 C 66.19 67.06 67.87 66.61 68.72 66.38 C 68.88 65.89 69.22 64.90 69.39 64.40 C 66.67 65.04 63.73 65.07 61.18 66.32 C 58.80 66.22 56.43 66.06 54.07 65.77 C 53.43 64.83 52.95 63.57 51.72 63.28 C 49.23 62.62 46.24 61.20 44.04 63.22 M 6.65 68.87 C 6.95 69.50 7.54 70.77 7.84 71.40 C 9.53 71.63 11.19 71.44 12.81 70.83 C 12.10 68.25 8.63 69.19 6.65 68.87 M 38.06 70.14 C 43.94 71.43 49.94 70.80 55.90 71.23 C 54.11 70.19 52.18 69.14 50.02 69.48 C 46.04 69.75 42.02 69.58 38.06 70.14 M 16.71 70.34 C 15.91 72.16 15.60 74.13 15.61 76.12 C 17.33 74.85 18.38 73.00 19.18 71.07 C 18.35 70.82 17.53 70.58 16.71 70.34 M 5.09 72.95 C 6.71 75.14 10.41 75.80 12.11 73.39 C 9.76 72.89 7.28 70.85 5.09 72.95 M 21.08 72.04 C 20.67 73.05 20.23 74.05 19.78 75.04 L 20.26 76.09 C 20.45 76.29 20.84 76.70 21.03 76.90 C 27.86 80.26 35.51 81.53 43.00 82.43 C 47.52 79.57 52.78 80.20 57.85 80.48 C 59.53 80.63 61.20 80.86 62.89 80.86 C 64.80 79.78 65.17 77.29 65.91 75.39 C 65.33 75.25 64.18 74.99 63.61 74.86 C 63.04 74.90 61.91 74.98 61.34 75.02 C 55.54 74.79 49.72 74.87 43.94 74.16 C 36.26 74.30 28.77 72.17 21.08 72.04 M 7.06 76.94 C 7.42 77.05 8.14 77.28 8.49 77.40 C 8.58 77.97 8.75 79.12 8.84 79.70 C 9.42 79.77 10.58 79.91 11.16 79.99 C 10.30 84.57 9.44 89.15 7.06 93.24 C 9.32 92.71 10.84 90.95 12.07 89.10 C 14.78 86.20 13.63 81.59 11.75 78.56 L 11.37 78.70 L 10.19 77.21 L 11.74 75.95 C 10.52 75.69 6.55 74.55 7.06 76.94 M 58.42 84.39 C 54.88 87.50 50.68 90.29 48.73 94.76 C 47.35 98.16 49.57 103.27 53.63 103.04 C 57.04 103.40 59.71 100.83 62.73 99.70 C 63.47 95.88 64.50 92.12 65.78 88.45 C 64.54 86.86 63.26 85.31 61.93 83.81 L 61.35 84.37 C 60.62 84.38 59.15 84.39 58.42 84.39 M 17.39 84.84 C 17.37 85.64 17.34 87.23 17.33 88.03 C 16.08 89.46 14.89 90.98 14.27 92.80 C 16.09 91.74 17.75 90.44 19.32 89.04 C 18.91 87.53 18.45 86.02 17.39 84.84 M 85.41 93.38 C 84.61 95.50 83.37 97.65 83.84 100.00 C 86.11 97.96 88.42 95.96 90.91 94.19 C 89.13 93.61 87.26 93.48 85.41 93.38 M 9.18 106.98 C 8.59 108.43 8.94 109.55 10.23 110.36 C 12.01 109.91 11.00 105.65 9.18 106.98 Z" />
<path fill="#866952" opacity="1.00" d=" M 90.84 0.00 L 93.23 0.00 C 89.77 3.04 90.12 7.86 89.20 11.98 C 88.40 15.08 90.37 18.15 89.40 21.25 C 87.93 19.48 86.49 17.69 85.04 15.90 C 85.03 15.35 85.02 14.25 85.01 13.71 C 86.17 11.28 88.91 7.92 86.54 5.46 C 88.42 4.02 89.58 1.95 90.84 0.00 Z" />
<path fill="#866952" opacity="1.00" d=" M 94.48 0.00 L 96.58 0.00 C 93.70 4.42 93.11 9.71 91.49 14.61 C 90.72 9.54 92.19 4.49 94.48 0.00 Z" />
<path fill="#5c433b" opacity="1.00" d=" M 3.28 6.10 C 4.30 6.86 5.30 7.64 6.33 8.39 C 6.04 11.59 7.40 14.53 8.82 17.29 C 12.14 17.30 15.47 17.29 18.73 16.59 C 20.98 19.00 19.36 21.98 17.45 23.98 C 14.40 22.72 11.14 22.14 7.86 21.86 C 6.09 18.44 2.48 16.56 0.00 13.71 L 0.00 13.37 C 0.28 12.73 0.83 11.45 1.11 10.81 C 2.04 12.39 3.31 13.73 4.59 15.02 C 3.88 12.10 3.34 9.12 3.28 6.10 Z" />
<path fill="#c7ae7a" opacity="1.00" d=" M 85.01 13.71 C 85.05 10.95 84.22 7.57 86.54 5.46 C 88.91 7.92 86.17 11.28 85.01 13.71 Z" />
<path fill="#bba46b" opacity="1.00" d=" M 56.37 34.08 C 53.31 25.00 54.18 14.53 59.91 6.67 C 56.92 15.49 55.79 24.79 56.37 34.08 Z" />
<path fill="#97795b" opacity="1.00" d=" M 8.82 17.29 C 7.40 14.53 6.04 11.59 6.33 8.39 C 10.41 11.19 15.06 13.18 18.73 16.59 C 15.47 17.29 12.14 17.30 8.82 17.29 Z" />
<path fill="#000000" opacity="1.00" d=" M 0.00 13.71 C 2.48 16.56 6.09 18.44 7.86 21.86 C 7.87 23.78 7.85 25.70 7.76 27.62 C 6.13 31.38 3.18 34.35 0.20 37.07 C 1.06 31.94 5.08 28.08 5.97 22.96 C 3.34 25.54 1.62 28.83 0.00 32.08 L 0.00 24.93 C 0.97 23.38 2.01 21.87 3.04 20.36 C 2.02 19.35 0.99 18.34 0.00 17.30 L 0.00 13.71 Z" />
<path fill="#9e805e" opacity="1.00" d=" M 85.04 15.90 C 86.49 17.69 87.93 19.48 89.40 21.25 C 87.59 25.12 84.57 28.25 82.70 32.09 C 85.49 29.53 88.52 26.98 90.17 23.50 C 90.32 24.77 90.48 26.03 90.68 27.29 C 89.76 28.95 88.58 30.45 86.65 30.98 C 86.48 32.10 86.32 33.22 86.16 34.34 C 84.88 34.35 83.59 34.36 82.31 34.37 C 81.13 35.46 79.92 36.52 78.68 37.55 C 80.50 33.99 81.82 30.21 83.57 26.61 C 85.14 23.28 84.81 19.48 85.04 15.90 Z" />
<path fill="#432d2e" opacity="1.00" d=" M 90.17 23.50 C 90.72 21.58 91.43 19.72 92.22 17.88 C 93.12 20.39 96.18 21.76 96.59 24.36 C 94.73 25.54 92.67 26.36 90.68 27.29 C 90.48 26.03 90.32 24.77 90.17 23.50 Z" />
<path fill="#412b2f" opacity="1.00" d=" M 7.86 21.86 C 11.14 22.14 14.40 22.72 17.45 23.98 C 16.31 25.28 15.09 26.52 13.78 27.64 C 13.38 27.65 12.57 27.66 12.16 27.67 C 10.70 27.65 9.23 27.63 7.76 27.62 C 7.85 25.70 7.87 23.78 7.86 21.86 Z" />
<path fill="#5d4240" opacity="1.00" d=" M 0.00 32.08 C 1.62 28.83 3.34 25.54 5.97 22.96 C 5.08 28.08 1.06 31.94 0.20 37.07 C 3.18 34.35 6.13 31.38 7.76 27.62 C 9.23 27.63 10.70 27.65 12.16 27.67 C 10.13 31.59 6.90 34.61 3.90 37.76 C 4.66 37.61 6.20 37.31 6.97 37.16 C 5.08 39.01 2.66 39.97 0.00 39.49 L 0.00 32.08 Z" />
<path fill="#6f5348" opacity="1.00" d=" M 59.33 22.63 C 59.91 24.91 60.37 27.23 61.24 29.44 C 59.88 32.51 60.31 35.97 59.43 39.16 C 58.29 33.71 59.70 28.14 59.33 22.63 Z" />
<path fill="#5e7b73" opacity="1.00" d=" M 99.76 26.15 C 103.48 25.50 107.25 25.38 111.00 25.14 L 111.00 27.51 C 107.30 27.28 102.92 28.66 99.76 26.15 Z" />
<path fill="#a4ba99" opacity="1.00" d=" M 72.80 32.26 C 74.96 31.13 77.39 30.70 79.79 30.43 C 78.97 32.50 77.37 33.82 75.09 33.90 C 75.81 34.81 76.53 35.72 77.26 36.63 C 77.52 38.99 77.72 41.36 77.65 43.73 C 77.61 43.96 77.52 44.40 77.48 44.62 C 74.97 46.06 72.19 46.83 69.30 46.98 C 70.14 48.96 70.99 50.94 71.88 52.90 C 69.89 52.30 67.90 51.73 65.96 51.02 C 65.47 50.17 65.03 49.30 64.63 48.41 C 67.17 48.89 68.86 46.93 70.06 45.02 C 72.14 44.13 74.38 43.51 76.28 42.23 C 77.78 39.19 74.84 36.70 72.69 35.01 C 72.71 34.32 72.77 32.95 72.80 32.26 Z" />
<path fill="#c1d4a8" opacity="1.00" d=" M 99.02 30.87 C 103.04 30.83 107.05 30.44 111.00 29.69 L 111.00 41.59 C 109.39 42.08 107.77 42.50 106.15 42.93 C 105.27 42.40 104.39 41.87 103.51 41.34 C 102.84 40.43 102.19 39.52 101.54 38.59 C 100.08 38.38 98.62 38.18 97.16 37.98 C 98.44 36.67 99.72 35.36 100.99 34.04 C 100.33 32.98 99.67 31.93 99.02 30.87 Z" />
<path fill="#a8be9b" opacity="1.00" d=" M 91.12 32.92 C 93.02 30.44 96.27 30.92 99.02 30.87 C 99.67 31.93 100.33 32.98 100.99 34.04 C 99.72 35.36 98.44 36.67 97.16 37.98 C 98.62 38.18 100.08 38.38 101.54 38.59 C 102.19 39.52 102.84 40.43 103.51 41.34 C 101.66 41.28 99.82 41.28 97.97 41.21 C 95.06 39.47 94.72 36.35 95.38 33.30 C 93.96 33.17 92.54 33.05 91.12 32.92 Z" />
<path fill="#cadfaf" opacity="1.00" d=" M 66.96 36.34 C 68.75 34.77 70.72 33.41 72.80 32.26 C 72.77 32.95 72.71 34.32 72.69 35.01 C 74.84 36.70 77.78 39.19 76.28 42.23 C 74.38 43.51 72.14 44.13 70.06 45.02 C 70.81 43.80 71.51 42.55 72.20 41.30 C 70.47 39.63 68.73 37.97 66.96 36.34 Z" />
<path fill="#91aa8f" opacity="1.00" d=" M 91.12 32.92 C 92.54 33.05 93.96 33.17 95.38 33.30 C 94.72 36.35 95.06 39.47 97.97 41.21 C 94.29 40.65 89.43 40.39 88.04 36.17 C 89.11 35.13 90.10 34.01 91.12 32.92 Z" />
<path fill="#69724d" opacity="0.88" d=" M 63.23 33.90 C 65.62 34.26 62.74 36.94 62.63 34.25 L 63.23 33.90 Z" />
<path fill="#af9566" opacity="1.00" d=" M 7.65 36.70 C 8.69 36.01 9.74 35.33 10.79 34.65 C 11.52 37.93 14.93 39.06 16.54 41.75 C 17.07 42.71 17.56 43.71 18.06 44.69 C 17.54 44.82 16.51 45.07 15.99 45.20 L 15.14 44.65 C 14.89 44.61 14.39 44.53 14.14 44.49 C 12.29 41.65 10.11 39.04 7.65 36.70 Z" />
<path fill="#597871" opacity="1.00" d=" M 85.01 37.34 C 86.03 36.96 87.05 36.60 88.04 36.17 C 89.43 40.39 94.29 40.65 97.97 41.21 C 99.82 41.28 101.66 41.28 103.51 41.34 C 104.39 41.87 105.27 42.40 106.15 42.93 C 102.63 43.88 99.14 44.91 95.58 45.71 C 93.42 42.71 90.61 40.26 87.35 38.53 C 86.70 39.02 86.05 39.51 85.41 40.01 C 88.45 40.09 90.78 42.24 92.32 44.66 C 91.38 45.03 90.44 45.39 89.50 45.75 C 87.79 44.44 86.00 43.25 84.11 42.21 C 82.76 43.23 81.35 44.18 79.91 45.07 C 79.34 44.74 78.21 44.07 77.65 43.73 C 77.72 41.36 77.52 38.99 77.26 36.63 C 78.85 38.97 80.93 40.98 83.90 41.29 C 83.34 40.34 82.23 38.46 81.67 37.51 L 85.19 39.67 C 85.15 39.09 85.06 37.93 85.01 37.34 Z" />
<path fill="#6f5348" opacity="1.00" d=" M 6.97 37.16 L 7.65 36.70 C 10.11 39.04 12.29 41.65 14.14 44.49 C 9.20 44.67 4.31 42.97 0.00 40.66 L 0.00 39.49 C 2.66 39.97 5.08 39.01 6.97 37.16 Z" />
<path fill="#d2efc7" opacity="1.00" d=" M 59.82 44.51 C 60.59 40.61 64.32 38.83 66.96 36.34 C 68.73 37.97 70.47 39.63 72.20 41.30 C 71.51 42.55 70.81 43.80 70.06 45.02 C 68.86 46.93 67.17 48.89 64.63 48.41 L 63.95 46.93 C 64.40 49.89 64.83 52.87 65.68 55.76 C 63.35 55.65 61.45 54.22 59.54 53.06 C 59.47 56.08 59.23 59.27 60.92 61.94 L 61.56 63.32 C 61.06 63.49 60.06 63.82 59.55 63.98 C 58.01 57.63 58.33 50.84 59.82 44.51 Z" />
<path fill="#6b4f46" opacity="1.00" d=" M 17.06 38.05 C 18.84 39.85 21.52 41.23 21.92 43.96 C 23.29 48.66 20.60 53.19 17.85 56.78 C 15.56 59.64 13.78 63.29 10.17 64.70 C 12.72 59.50 18.04 55.85 19.24 49.94 C 18.73 48.05 17.16 46.70 15.99 45.20 C 16.51 45.07 17.54 44.82 18.06 44.69 C 17.56 43.71 17.07 42.71 16.54 41.75 C 16.71 40.52 16.89 39.29 17.06 38.05 Z" />
<path fill="#97795b" opacity="1.00" d=" M 56.55 49.93 C 53.03 48.85 54.56 44.69 56.44 42.78 C 56.68 45.16 56.71 47.55 56.55 49.93 Z" />
<path fill="#587770" opacity="1.00" d=" M 83.99 43.70 C 87.05 45.40 89.82 47.57 91.47 50.73 L 91.41 51.59 C 91.38 52.12 91.32 53.18 91.30 53.70 L 91.29 54.24 C 90.38 55.99 89.30 57.63 88.10 59.20 C 86.51 59.38 84.92 59.58 83.33 59.78 C 84.62 56.45 84.85 52.88 84.42 49.36 C 83.92 49.31 82.91 49.22 82.41 49.17 C 82.34 49.65 82.20 50.61 82.13 51.08 C 81.52 50.01 80.94 48.93 80.38 47.83 C 81.66 46.52 82.86 45.14 83.99 43.70 Z" />
<path fill="#bdd1a6" opacity="1.00" d=" M 108.37 45.83 C 109.27 44.99 110.14 44.14 111.00 43.27 L 111.00 50.49 C 109.27 50.47 107.54 50.45 105.81 50.43 C 107.18 50.04 108.55 49.65 109.92 49.26 C 109.40 48.12 108.89 46.97 108.37 45.83 Z" />
<path fill="#718f80" opacity="1.00" d=" M 69.30 46.98 C 72.19 46.83 74.97 46.06 77.48 44.62 C 76.45 48.44 72.99 50.78 71.23 54.21 C 71.29 54.75 71.39 55.83 71.44 56.36 C 69.57 54.62 67.65 52.93 65.96 51.02 C 67.90 51.73 69.89 52.30 71.88 52.90 C 70.99 50.94 70.14 48.96 69.30 46.98 Z" />
<path fill="#c5d9da" opacity="1.00" d=" M 92.64 49.51 C 96.33 48.96 99.74 47.36 103.37 46.57 C 100.51 49.48 96.12 50.75 93.81 54.07 C 93.60 53.31 93.17 51.81 92.96 51.05 C 92.41 51.94 91.88 52.84 91.30 53.70 C 91.32 53.18 91.38 52.12 91.41 51.59 C 91.72 51.07 92.33 50.03 92.64 49.51 Z" />
<path fill="#587066" opacity="1.00" d=" M 108.37 45.83 C 108.89 46.97 109.40 48.12 109.92 49.26 C 108.55 49.65 107.18 50.04 105.81 50.43 C 107.54 50.45 109.27 50.47 111.00 50.49 L 111.00 51.59 C 106.68 51.99 102.50 53.16 98.31 54.22 C 101.64 51.39 105.19 48.83 108.37 45.83 Z" />
<path fill="#667d8f" opacity="1.00" d=" M 78.23 49.32 C 81.00 50.50 80.53 54.86 80.70 57.47 L 80.48 57.45 C 79.81 57.39 78.48 57.28 77.81 57.23 C 78.03 54.67 76.85 51.51 78.23 49.32 Z" />
<path fill="#e3ecb8" opacity="1.00" d=" M 82.41 49.17 C 82.91 49.22 83.92 49.31 84.42 49.36 C 84.85 52.88 84.62 56.45 83.33 59.78 L 83.22 60.14 C 80.76 60.89 79.91 65.69 77.06 64.05 C 82.03 61.88 83.20 55.91 82.13 51.08 C 82.20 50.61 82.34 49.65 82.41 49.17 Z" />
<path fill="#8d3165" opacity="1.00" d=" M 75.40 52.35 C 76.25 53.59 77.19 57.60 75.21 58.18 C 74.24 56.36 75.34 54.27 75.40 52.35 Z" />
<path fill="#456367" opacity="1.00" d=" M 59.54 53.06 C 61.45 54.22 63.35 55.65 65.68 55.76 C 66.51 57.76 67.36 59.76 68.10 61.80 C 66.75 62.03 65.40 62.25 64.05 62.48 C 63.10 60.56 62.13 58.66 61.13 56.77 C 61.03 58.49 60.94 60.22 60.92 61.94 C 59.23 59.27 59.47 56.08 59.54 53.06 Z" />
<path fill="#65747e" opacity="1.00" d=" M 66.73 54.97 C 69.08 56.63 72.08 56.87 74.46 58.48 C 73.42 58.50 71.36 58.53 70.33 58.55 C 70.44 59.46 70.66 61.30 70.77 62.21 C 68.27 60.76 68.28 57.24 66.73 54.97 Z" />
<path fill="#c7dbdb" opacity="1.00" d=" M 94.08 58.85 C 99.57 56.88 105.39 56.18 111.00 54.62 L 111.00 60.51 C 105.45 61.54 99.81 61.99 94.20 62.57 C 91.13 62.82 88.87 65.17 86.63 67.03 C 86.22 67.39 85.39 68.12 84.98 68.48 C 82.42 68.72 79.86 68.79 77.30 68.92 C 80.24 68.16 82.76 66.45 85.23 64.75 C 83.71 64.50 82.18 64.34 80.64 64.28 C 84.56 61.22 89.52 60.49 94.08 58.85 Z" />
<path fill="#c7dbdb" opacity="1.00" d=" M 77.81 57.23 C 78.48 57.28 79.81 57.39 80.48 57.45 C 79.51 60.04 77.44 61.89 75.23 63.42 C 73.78 62.90 72.29 62.46 70.77 62.21 C 70.66 61.30 70.44 59.46 70.33 58.55 C 71.36 58.53 73.42 58.50 74.46 58.48 C 74.82 58.92 75.55 59.78 75.91 60.22 C 77.11 59.63 77.52 58.44 77.81 57.23 Z" />
<path fill="#758c9a" opacity="1.00" d=" M 94.20 62.57 C 99.81 61.99 105.45 61.54 111.00 60.51 L 111.00 64.19 C 104.40 64.50 97.68 63.43 91.24 65.33 C 89.92 66.42 88.35 67.00 86.63 67.03 C 88.87 65.17 91.13 62.82 94.20 62.57 Z" />
<path fill="#97795b" opacity="1.00" d=" M 12.70 64.80 C 13.97 63.68 15.33 62.64 16.87 61.91 C 15.79 64.70 14.54 67.71 11.21 68.29 C 11.70 67.12 12.21 65.97 12.70 64.80 Z" />
<path fill="#5c443d" opacity="1.00" d=" M 44.04 63.22 C 46.24 61.20 49.23 62.62 51.72 63.28 C 52.95 63.57 53.43 64.83 54.07 65.77 C 56.43 66.06 58.80 66.22 61.18 66.32 C 60.43 66.73 59.69 67.15 58.96 67.58 C 61.09 67.66 63.23 67.59 65.34 67.28 C 67.51 67.39 69.71 67.66 71.80 66.93 L 70.33 66.24 C 70.99 65.63 71.65 65.03 72.32 64.45 C 73.82 64.95 75.32 65.44 76.82 65.94 C 73.64 67.65 70.68 69.72 67.63 71.63 C 60.96 70.09 54.44 68.10 48.00 65.79 C 39.91 66.03 32.11 68.80 24.08 69.65 C 22.04 69.98 20.03 69.49 18.12 68.81 C 19.24 66.50 22.54 66.84 24.70 66.05 L 25.17 66.18 C 28.41 67.42 31.64 65.52 34.86 65.18 C 37.90 64.47 41.29 64.89 44.04 63.22 Z" />
<path fill="#af9566" opacity="1.00" d=" M 25.17 66.18 C 31.36 64.70 37.59 62.65 44.04 63.22 C 41.29 64.89 37.90 64.47 34.86 65.18 C 31.64 65.52 28.41 67.42 25.17 66.18 Z" />
<path fill="#9e805e" opacity="1.00" d=" M 61.18 66.32 C 63.73 65.07 66.67 65.04 69.39 64.40 C 69.22 64.90 68.88 65.89 68.72 66.38 C 67.87 66.61 66.19 67.06 65.34 67.28 C 63.23 67.59 61.09 67.66 58.96 67.58 C 59.69 67.15 60.43 66.73 61.18 66.32 Z" />
<path fill="#4e5d74" opacity="1.00" d=" M 92.15 69.02 C 98.07 66.47 104.77 67.47 111.00 66.18 L 111.00 66.96 C 104.51 68.81 98.59 72.04 92.98 75.74 C 94.05 76.96 95.14 78.17 96.25 79.37 C 93.51 80.82 89.95 81.37 88.22 78.17 C 88.43 74.89 88.47 70.39 92.15 69.02 Z" />
<path fill="#bba46b" opacity="1.00" d=" M 0.00 67.97 C 1.39 67.88 2.78 67.79 4.18 67.70 C 4.44 68.86 4.71 70.02 4.98 71.17 C 3.32 70.58 1.65 70.03 0.00 69.44 L 0.00 67.97 Z" />
<path fill="#aec2c7" opacity="1.00" d=" M 92.98 75.74 C 98.59 72.04 104.51 68.81 111.00 66.96 L 111.00 72.53 C 106.29 75.25 101.24 77.25 96.25 79.37 C 95.14 78.17 94.05 76.96 92.98 75.74 Z" />
<path fill="#bbcdcd" opacity="1.00" d=" M 6.65 68.87 C 8.63 69.19 12.10 68.25 12.81 70.83 C 11.19 71.44 9.53 71.63 7.84 71.40 C 7.54 70.77 6.95 69.50 6.65 68.87 Z" />
<path fill="#c7dbdb" opacity="1.00" d=" M 16.71 70.34 C 17.53 70.58 18.35 70.82 19.18 71.07 C 18.38 73.00 17.33 74.85 15.61 76.12 C 15.60 74.13 15.91 72.16 16.71 70.34 Z" />
<path fill="#b8caca" opacity="1.00" d=" M 5.09 72.95 C 7.28 70.85 9.76 72.89 12.11 73.39 C 10.41 75.80 6.71 75.14 5.09 72.95 Z" />
<path fill="#c7dbdb" opacity="1.00" d=" M 21.08 72.04 C 28.77 72.17 36.26 74.30 43.94 74.16 C 49.72 74.87 55.54 74.79 61.34 75.02 C 57.04 76.79 52.74 78.84 48.09 79.45 C 38.84 78.16 29.54 77.15 20.26 76.09 L 19.78 75.04 C 20.23 74.05 20.67 73.05 21.08 72.04 Z" />
<path fill="#7e94a2" opacity="1.00" d=" M 61.34 75.02 C 61.91 74.98 63.04 74.90 63.61 74.86 C 61.91 76.96 59.94 78.80 57.85 80.48 C 52.78 80.20 47.52 79.57 43.00 82.43 C 35.51 81.53 27.86 80.26 21.03 76.90 C 20.84 76.70 20.45 76.29 20.26 76.09 C 29.54 77.15 38.84 78.16 48.09 79.45 C 52.74 78.84 57.04 76.79 61.34 75.02 Z" />
<path fill="#5d7282" opacity="1.00" d=" M 63.61 74.86 C 64.18 74.99 65.33 75.25 65.91 75.39 C 65.17 77.29 64.80 79.78 62.89 80.86 C 61.20 80.86 59.53 80.63 57.85 80.48 C 59.94 78.80 61.91 76.96 63.61 74.86 Z" />
<path fill="#4a615c" opacity="1.00" d=" M 81.59 75.35 C 82.78 75.01 83.98 74.75 85.18 74.47 C 87.05 78.97 83.03 81.96 79.94 84.34 C 77.45 83.87 74.84 83.72 72.67 85.28 C 71.74 84.43 70.81 83.56 69.89 82.70 C 68.87 83.94 67.32 84.29 65.81 84.58 C 65.24 81.74 67.82 80.14 69.89 78.91 C 72.11 81.59 75.55 82.16 78.82 81.72 C 80.81 80.32 82.04 77.79 81.59 75.35 Z" />
<path fill="#aec2c7" opacity="1.00" d=" M 7.06 76.94 C 6.55 74.55 10.52 75.69 11.74 75.95 L 10.19 77.21 L 11.37 78.70 C 10.74 78.95 9.47 79.45 8.84 79.70 C 8.75 79.12 8.58 77.97 8.49 77.40 C 8.14 77.28 7.42 77.05 7.06 76.94 Z" />
<path fill="#78926c" opacity="1.00" d=" M 69.89 78.91 C 73.69 77.41 77.85 77.06 81.59 75.35 C 82.04 77.79 80.81 80.32 78.82 81.72 C 75.55 82.16 72.11 81.59 69.89 78.91 Z" />
<path fill="#1e353d" opacity="1.00" d=" M 96.02 82.98 C 100.93 80.82 106.06 79.22 111.00 77.14 L 111.00 92.78 C 103.74 89.57 95.82 93.26 88.55 90.27 C 90.93 87.76 92.63 84.27 96.02 82.98 Z" />
<path fill="#4d3731" opacity="1.00" d=" M 11.37 78.70 L 11.75 78.56 C 13.63 81.59 14.78 86.20 12.07 89.10 C 10.84 90.95 9.32 92.71 7.06 93.24 C 9.44 89.15 10.30 84.57 11.16 79.99 C 10.58 79.91 9.42 79.77 8.84 79.70 C 9.47 79.45 10.74 78.95 11.37 78.70 Z" />
<path fill="#2c3f4f" opacity="1.00" d=" M 87.35 81.06 C 88.56 81.74 89.77 82.42 90.98 83.10 C 88.00 87.07 83.52 89.89 81.50 94.55 C 79.69 97.95 82.93 101.41 82.38 104.89 C 81.24 106.69 79.72 108.20 78.20 109.67 C 77.44 108.53 76.08 107.54 76.22 106.01 C 76.16 99.88 78.03 93.99 79.05 88.01 C 78.61 88.63 77.74 89.86 77.31 90.48 C 75.87 90.79 74.44 91.09 73.01 91.40 C 72.58 90.24 72.16 89.08 71.74 87.91 C 70.91 89.76 70.12 91.95 67.66 91.70 C 67.96 90.39 68.26 89.08 68.56 87.77 C 67.64 86.71 66.71 85.66 65.81 84.58 C 67.32 84.29 68.87 83.94 69.89 82.70 C 70.81 83.56 71.74 84.43 72.67 85.28 C 74.84 83.72 77.45 83.87 79.94 84.34 C 79.60 84.88 78.92 85.97 78.58 86.52 C 82.24 86.15 84.91 83.54 87.35 81.06 Z" />
<path fill="#c8dbac" opacity="1.00" d=" M 58.42 84.39 C 59.15 84.39 60.62 84.38 61.35 84.37 C 57.57 88.13 53.77 91.96 51.04 96.58 C 54.46 95.02 56.99 92.21 59.57 89.59 C 57.68 94.11 55.66 98.58 53.63 103.04 C 49.57 103.27 47.35 98.16 48.73 94.76 C 50.68 90.29 54.88 87.50 58.42 84.39 Z" />
<path fill="#405a59" opacity="1.00" d=" M 61.35 84.37 L 61.93 83.81 C 63.26 85.31 64.54 86.86 65.78 88.45 C 64.50 92.12 63.47 95.88 62.73 99.70 C 59.71 100.83 57.04 103.40 53.63 103.04 C 55.66 98.58 57.68 94.11 59.57 89.59 C 56.99 92.21 54.46 95.02 51.04 96.58 C 53.77 91.96 57.57 88.13 61.35 84.37 Z" />
<path fill="#9e805e" opacity="1.00" d=" M 17.39 84.84 C 18.45 86.02 18.91 87.53 19.32 89.04 C 17.75 90.44 16.09 91.74 14.27 92.80 C 14.89 90.98 16.08 89.46 17.33 88.03 C 17.34 87.23 17.37 85.64 17.39 84.84 Z" />
<path fill="#6e896a" opacity="1.00" d=" M 71.74 87.91 C 72.16 89.08 72.58 90.24 73.01 91.40 C 74.44 91.09 75.87 90.79 77.31 90.48 C 77.74 89.86 78.61 88.63 79.05 88.01 C 78.03 93.99 76.16 99.88 76.22 106.01 C 76.08 107.54 77.44 108.53 78.20 109.67 C 77.82 110.01 77.06 110.67 76.68 111.00 L 63.07 111.00 C 63.80 104.38 65.78 98.06 67.66 91.70 C 70.12 91.95 70.91 89.76 71.74 87.91 Z" />
<path fill="#534331" opacity="0.88" d=" M 1.82 92.15 C 2.06 90.77 2.82 89.98 4.11 89.78 C 4.04 91.32 3.28 92.11 1.82 92.15 Z" />
<path fill="#304285" opacity="1.00" d=" M 85.41 93.38 C 87.26 93.48 89.13 93.61 90.91 94.19 C 88.42 95.96 86.11 97.96 83.84 100.00 C 83.37 97.65 84.61 95.50 85.41 93.38 Z" />
<path fill="#af9566" opacity="1.00" d=" M 0.00 95.29 C 1.51 94.72 3.04 94.24 4.58 93.77 C 3.07 95.20 1.50 96.58 0.00 98.03 L 0.00 95.29 Z" />
<path fill="#382d21" opacity="0.93" d=" M 15.33 98.14 C 13.26 97.74 14.20 95.51 15.97 95.87 C 15.81 96.43 15.49 97.57 15.33 98.14 Z" />
<path fill="#68b2da" opacity="1.00" d=" M 88.86 100.07 C 91.88 98.42 94.62 96.04 98.10 95.39 C 102.45 94.59 106.87 95.54 111.00 96.91 L 111.00 102.45 C 107.17 101.03 103.06 99.91 98.94 100.47 L 98.04 101.55 C 97.06 101.73 96.08 101.91 95.10 102.09 L 95.69 100.36 C 94.06 100.46 92.37 100.51 91.04 101.59 C 90.51 100.80 89.79 100.30 88.86 100.07 Z" />
<path fill="#5b443c" opacity="1.00" d=" M 0.00 100.76 C 1.95 99.72 4.05 99.00 6.16 98.36 C 4.69 100.63 2.23 101.76 0.00 103.11 L 0.00 100.76 Z" />
<path fill="#5a423a" opacity="1.00" d=" M 0.00 105.86 C 3.13 102.95 6.50 99.74 10.97 99.28 C 7.30 102.95 3.79 106.76 0.80 111.00 L 0.00 111.00 L 0.00 105.86 Z" />
<path fill="#71b9ef" opacity="1.00" d=" M 33.31 101.30 C 36.38 98.78 40.44 98.34 44.27 98.23 C 44.86 99.36 45.46 100.49 46.07 101.61 C 45.29 101.63 43.75 101.66 42.97 101.68 C 41.02 102.52 39.06 103.32 37.11 104.15 C 35.91 104.39 34.70 104.59 33.49 104.80 C 33.44 103.92 33.35 102.17 33.31 101.30 Z" />
<path fill="#000000" opacity="1.00" d=" M 98.94 100.47 C 103.06 99.91 107.17 101.03 111.00 102.45 L 111.00 105.74 C 107.08 103.39 102.75 101.26 98.04 101.55 L 98.94 100.47 Z" />
<path fill="#3c589a" opacity="1.00" d=" M 27.83 111.00 C 29.23 107.57 30.07 103.56 33.31 101.30 C 33.35 102.17 33.44 103.92 33.49 104.80 C 34.70 104.59 35.91 104.39 37.11 104.15 C 34.38 106.17 31.97 108.57 29.61 111.00 L 27.83 111.00 Z" />
<path fill="#75c1f5" opacity="1.00" d=" M 91.84 103.83 C 92.92 103.24 94.01 102.65 95.10 102.09 C 96.08 101.91 97.06 101.73 98.04 101.55 C 102.75 101.26 107.08 103.39 111.00 105.74 L 111.00 111.00 L 108.13 111.00 C 109.41 106.86 104.26 102.25 100.31 104.31 C 97.22 105.30 96.05 108.66 94.19 111.00 L 90.13 111.00 C 91.28 108.77 91.83 106.33 91.84 103.83 Z" />
<path fill="#99ffff" opacity="1.00" d=" M 100.31 104.31 C 104.26 102.25 109.41 106.86 108.13 111.00 L 94.19 111.00 C 96.05 108.66 97.22 105.30 100.31 104.31 Z" />
<path fill="#2e3a86" opacity="1.00" d=" M 41.68 106.22 C 47.43 104.67 53.51 107.83 59.09 104.94 C 57.06 106.88 55.15 108.95 53.23 111.00 L 43.32 111.00 C 44.78 110.23 46.21 109.42 47.64 108.61 C 47.70 108.05 47.80 106.94 47.86 106.39 C 45.80 106.32 43.74 106.23 41.68 106.22 Z" />
<path fill="#2e3a86" opacity="1.00" d=" M 82.32 111.00 C 84.04 108.89 85.77 106.79 87.74 104.91 C 87.49 106.95 87.20 108.99 86.76 111.00 L 82.32 111.00 Z" />
<path fill="#72baf1" opacity="1.00" d=" M 33.85 111.00 C 36.20 109.04 38.63 106.95 41.68 106.22 C 43.74 106.23 45.80 106.32 47.86 106.39 C 47.80 106.94 47.70 108.05 47.64 108.61 C 46.21 109.42 44.78 110.23 43.32 111.00 L 33.85 111.00 Z" />
<path fill="#5e6845" opacity="1.00" d=" M 9.18 106.98 C 11.00 105.65 12.01 109.91 10.23 110.36 C 8.94 109.55 8.59 108.43 9.18 106.98 Z" />
<path fill="#000000" opacity="1.00" d=" M 16.24 106.85 C 17.32 108.33 18.45 109.80 19.85 111.00 L 14.23 111.00 C 14.95 109.64 15.60 108.24 16.24 106.85 Z" />
<path fill="#303570" opacity="1.00" d=" M 55.65 111.00 C 57.14 109.89 58.59 108.72 60.05 107.58 C 60.05 108.43 60.06 110.14 60.06 111.00 L 55.65 111.00 Z" />
<path fill="#000000" opacity="0.64" d=" M 6.25 111.00 C 6.88 109.43 7.50 109.43 8.10 111.00 L 6.25 111.00 Z" />
</svg>
