<?xml version="1.0" encoding="UTF-8" ?>
<!DOCTYPE svg PUBLIC "-//W3C//DTD SVG 1.1//EN" "http://www.w3.org/Graphics/SVG/1.1/DTD/svg11.dtd">
<svg width="111pt" height="111pt" viewBox="0 0 111 111" version="1.1" xmlns="http://www.w3.org/2000/svg">
<path fill="#000000" opacity="1.00" d=" M 26.75 0.00 L 29.94 0.00 C 29.93 0.77 29.90 2.32 29.88 3.09 C 29.93 6.56 26.52 7.81 23.55 7.29 C 20.02 6.47 16.85 8.25 14.21 10.39 C 11.83 12.24 9.52 14.18 7.32 16.23 C 6.02 17.50 4.82 18.86 3.72 20.29 C 2.41 22.05 1.15 23.86 0.00 25.72 L 0.00 18.22 C 5.73 11.22 13.23 5.44 21.90 2.64 C 23.56 3.00 25.24 3.29 26.92 3.55 C 26.88 2.66 26.79 0.89 26.75 0.00 Z" />
<path fill="#9f815e" opacity="1.00" d=" M 29.94 0.00 L 36.71 0.00 C 35.40 1.41 34.13 2.85 32.91 4.35 C 31.90 3.92 30.89 3.51 29.88 3.09 C 29.90 2.32 29.93 0.77 29.94 0.00 Z" />
<path fill="#000000" opacity="1.00" d=" M 36.71 0.00 L 40.68 0.00 C 40.84 3.28 38.00 5.04 36.14 7.26 C 35.42 10.06 39.47 10.54 40.06 12.79 C 39.11 13.42 38.14 14.02 37.15 14.60 C 37.25 17.97 39.71 20.96 43.08 21.51 C 46.70 19.91 43.96 14.89 43.36 12.10 C 45.04 12.31 46.98 12.23 48.17 13.69 C 53.88 19.48 56.03 28.42 54.19 36.26 C 52.38 43.48 45.76 50.18 37.89 49.55 C 37.37 53.14 36.96 56.76 36.03 60.27 C 37.07 63.26 39.82 64.95 41.68 67.33 C 42.76 70.06 41.44 73.06 41.99 75.89 C 42.66 79.02 43.69 82.07 44.64 85.12 C 45.85 85.26 47.06 85.48 48.24 85.78 C 49.18 87.03 49.51 88.60 50.05 90.04 C 53.25 91.09 56.40 92.41 59.75 92.88 C 60.98 91.35 61.78 89.47 63.23 88.12 C 65.75 87.00 68.59 86.95 71.28 86.53 C 71.21 84.77 70.19 82.78 71.21 81.12 C 72.92 78.20 76.75 77.34 78.31 74.29 C 79.00 73.15 79.61 71.97 80.25 70.81 C 78.58 71.24 76.91 71.67 75.23 72.04 C 72.60 72.15 69.97 72.35 67.46 73.17 C 61.60 69.00 57.34 62.33 56.95 55.06 C 56.65 50.87 57.99 46.81 59.40 42.93 C 59.56 38.48 57.79 32.81 61.52 29.42 C 62.54 30.60 63.55 31.79 64.55 32.99 C 65.05 23.69 68.48 14.54 74.36 7.30 C 76.38 4.78 79.77 2.12 83.12 3.83 C 86.32 6.06 88.45 10.46 92.94 10.17 C 99.99 9.68 106.00 5.29 111.00 0.62 L 111.00 5.77 C 105.92 9.97 99.76 13.86 92.93 13.69 C 87.93 13.67 85.50 8.58 81.55 6.41 C 79.63 6.10 78.21 7.76 77.00 9.00 C 73.13 13.55 70.61 19.11 68.84 24.78 C 70.44 23.74 72.03 21.06 74.10 22.74 C 74.71 24.01 75.12 25.38 75.58 26.71 C 77.70 24.53 80.30 22.90 83.36 22.49 C 83.25 24.77 83.06 27.05 82.81 29.31 C 85.14 27.89 87.53 26.33 90.37 26.28 C 90.25 27.74 90.13 29.20 90.01 30.67 C 92.63 30.57 95.26 30.52 97.89 30.77 C 96.82 31.89 95.74 33.00 94.53 33.97 C 94.18 34.22 93.47 34.72 93.11 34.97 C 94.69 35.56 96.26 36.16 97.84 36.77 C 97.24 37.80 96.64 38.84 96.04 39.87 C 96.58 41.22 97.11 42.56 97.63 43.91 C 100.11 42.84 102.60 41.83 105.15 40.97 C 103.65 43.79 101.80 46.42 99.63 48.77 C 98.48 50.11 97.34 51.47 96.42 52.99 C 97.66 55.73 100.58 56.97 102.95 58.53 C 102.08 55.84 101.19 53.16 100.27 50.49 C 102.87 52.47 105.66 54.16 108.46 55.83 C 109.38 53.84 110.29 51.85 111.00 49.77 L 111.00 57.77 C 110.19 58.87 109.34 59.93 108.49 61.00 C 107.51 59.32 106.54 57.64 105.56 55.96 C 105.50 58.21 105.42 60.45 105.30 62.70 C 102.48 61.68 99.87 60.22 97.46 58.44 C 97.60 59.99 97.75 61.54 97.90 63.09 C 101.42 63.24 104.82 65.39 105.40 69.08 C 106.80 76.32 100.73 81.72 98.29 87.97 C 102.31 83.46 106.24 78.84 111.00 75.05 L 111.00 79.82 C 107.21 83.20 102.84 86.19 100.62 90.95 C 104.20 90.73 107.77 90.06 111.00 88.44 L 111.00 93.91 C 107.98 93.47 104.59 92.40 101.73 93.95 C 105.08 96.62 109.03 98.80 110.86 102.93 C 110.62 105.70 110.31 108.53 108.93 111.00 L 106.99 111.00 C 107.51 109.23 107.93 107.44 108.36 105.65 C 106.33 107.38 104.40 109.22 102.41 111.00 L 97.54 111.00 L 98.43 110.40 C 101.84 107.85 106.56 105.58 107.41 101.03 C 106.14 98.74 103.20 98.24 101.09 96.97 C 98.24 95.79 96.67 93.00 94.92 90.64 C 94.22 91.84 93.52 93.04 92.78 94.21 C 92.51 94.57 91.98 95.29 91.72 95.65 C 91.44 95.98 90.89 96.65 90.61 96.99 C 89.05 98.84 87.30 100.53 85.69 102.34 C 84.88 105.20 84.36 108.12 83.63 111.00 L 78.95 111.00 C 79.25 109.69 79.52 108.37 79.77 107.05 C 77.92 108.37 76.09 109.73 74.19 111.00 L 62.05 111.00 C 64.34 109.48 66.60 107.94 68.92 106.46 C 65.01 106.61 60.70 107.08 58.74 111.00 L 56.47 111.00 C 54.69 110.07 52.95 109.08 51.26 108.01 C 49.18 106.27 47.74 103.96 46.15 101.81 C 46.23 104.61 47.26 107.25 48.88 109.52 C 49.19 109.89 49.81 110.63 50.12 111.00 L 46.49 111.00 C 44.79 108.77 44.25 106.02 44.01 103.30 C 43.38 103.12 42.11 102.76 41.48 102.58 C 40.13 100.98 38.77 99.40 37.40 97.84 L 38.04 96.29 C 40.11 97.43 41.26 99.53 42.57 101.39 C 43.40 100.87 44.20 100.33 44.99 99.77 C 43.47 97.65 41.52 95.89 39.81 93.92 C 39.30 94.49 38.80 95.08 38.29 95.66 C 37.01 97.27 35.11 98.30 33.09 97.28 C 29.22 95.50 29.27 90.51 30.05 86.95 C 30.62 82.66 33.08 78.18 31.04 73.93 C 28.36 68.12 27.11 61.30 22.02 56.96 C 19.82 53.89 15.52 56.07 12.80 53.97 C 12.36 50.40 14.10 46.93 14.32 43.36 C 11.25 41.55 8.65 39.00 5.29 37.71 C 3.37 42.89 0.76 48.37 2.08 54.03 C 3.16 59.40 6.85 63.91 11.61 66.51 C 11.88 67.49 12.14 68.47 12.41 69.45 C 17.52 69.85 20.36 74.52 22.14 78.77 C 24.06 83.49 24.61 88.70 23.79 93.72 C 21.40 90.66 19.42 87.09 16.01 85.02 C 13.01 83.08 9.36 82.53 6.30 80.71 C 3.91 79.02 4.45 75.72 4.07 73.19 C 2.70 72.48 1.33 71.77 0.00 71.00 L 0.00 65.86 C 2.35 67.95 4.87 69.84 7.27 71.87 C 7.38 73.59 7.48 75.32 7.66 77.03 C 8.08 77.42 8.92 78.20 9.35 78.59 C 13.45 78.66 17.10 80.43 20.24 82.95 C 18.69 79.65 17.41 76.01 14.65 73.50 C 13.15 73.19 11.62 73.13 10.09 73.00 C 9.82 72.28 9.28 70.83 9.01 70.10 C 9.04 69.67 9.10 68.82 9.13 68.39 C 5.52 67.04 2.37 64.75 0.00 61.71 L 0.00 41.27 C 2.97 34.30 8.98 28.73 10.31 21.03 C 11.17 21.51 12.03 22.00 12.89 22.48 C 13.93 21.75 14.98 21.02 16.02 20.29 C 17.06 20.79 18.10 21.30 19.14 21.80 C 18.51 20.91 17.88 20.03 17.25 19.15 C 18.19 17.64 19.10 16.12 20.07 14.64 C 22.80 11.05 27.42 10.62 31.58 10.47 C 31.89 8.40 32.20 6.32 32.91 4.35 C 34.13 2.85 35.40 1.41 36.71 0.00 M 21.37 17.06 C 21.18 18.93 21.63 20.79 21.89 22.64 C 20.24 23.44 22.78 24.84 23.13 25.87 C 24.65 24.76 26.16 23.66 27.69 22.56 C 27.39 21.67 27.09 20.79 26.79 19.90 C 27.92 17.49 29.21 15.14 30.89 13.07 C 27.33 13.05 23.16 13.48 21.37 17.06 M 30.12 19.92 C 29.64 22.46 31.73 24.80 34.00 25.53 C 37.39 25.80 41.55 24.97 43.98 28.00 C 48.50 32.80 46.47 39.96 44.17 45.32 C 46.27 43.78 48.80 42.25 49.67 39.67 C 53.77 32.48 52.30 23.28 47.65 16.74 C 47.32 19.26 47.31 23.26 43.99 23.59 C 39.97 23.45 36.01 21.17 33.61 17.94 C 33.72 17.03 33.93 15.21 34.04 14.30 C 32.10 15.59 30.26 17.46 30.12 19.92 M 8.42 32.63 C 9.32 35.15 10.22 37.92 12.55 39.50 C 16.11 42.23 21.44 40.31 23.91 37.01 C 25.23 34.08 24.62 30.62 23.20 27.85 C 21.07 24.49 16.65 24.62 13.18 23.91 C 10.30 25.96 8.41 29.04 8.42 32.63 M 71.47 25.01 L 71.61 25.43 C 70.08 27.74 68.74 30.16 67.44 32.60 C 67.43 33.35 67.40 34.10 67.35 34.86 C 66.75 35.31 65.57 36.21 64.98 36.67 C 69.68 35.51 74.40 34.43 79.18 33.59 C 76.78 33.36 74.32 32.51 71.95 33.34 C 72.92 30.47 73.41 27.47 73.21 24.43 C 72.78 24.58 71.91 24.87 71.47 25.01 M 75.83 31.46 C 77.04 31.45 78.26 31.43 79.47 31.42 C 80.22 29.34 80.65 27.17 80.87 24.97 C 78.72 26.72 76.65 28.72 75.83 31.46 M 25.96 27.97 C 25.88 29.66 27.09 31.04 27.71 32.52 C 30.87 32.33 34.04 32.46 37.19 32.83 C 34.52 29.90 31.27 27.63 27.92 25.56 C 27.22 26.32 26.56 27.13 25.96 27.97 M 35.79 27.93 C 37.83 30.66 40.98 33.02 40.92 36.75 C 37.60 36.27 34.30 35.25 30.92 35.49 C 29.40 35.72 28.84 37.21 29.58 38.47 C 31.29 41.30 33.66 43.65 35.96 46.01 C 36.84 46.61 37.53 48.03 38.75 47.82 C 43.14 43.50 46.09 36.16 42.71 30.42 C 41.37 27.91 38.29 27.74 35.79 27.93 M 86.38 29.15 C 85.45 29.14 83.36 30.73 85.03 31.34 C 87.01 32.44 89.59 28.65 86.38 29.15 M 61.63 32.98 C 61.46 35.08 61.33 37.18 61.30 39.29 C 62.49 38.56 63.35 37.49 63.93 36.23 C 63.16 35.15 62.40 34.06 61.63 32.98 M 82.68 33.39 C 83.73 34.08 84.78 34.74 85.83 35.41 C 87.60 34.59 89.43 33.92 91.24 33.19 C 88.38 33.18 85.53 33.20 82.68 33.39 M 71.63 36.19 C 66.33 37.10 62.55 41.47 61.18 46.50 C 58.14 53.62 61.00 61.58 65.22 67.56 L 65.24 68.09 C 67.33 70.84 71.04 69.61 73.99 69.73 C 70.28 67.32 67.02 64.28 64.34 60.76 L 64.39 60.44 C 62.95 56.84 61.62 52.69 63.40 48.96 C 63.54 49.74 63.81 51.30 63.95 52.08 C 64.15 52.97 64.35 53.86 64.56 54.76 C 65.70 57.34 67.22 59.73 68.87 62.02 C 70.54 65.24 74.60 64.10 77.53 64.39 C 74.91 61.32 72.47 58.10 70.39 54.62 C 69.81 53.61 69.21 52.60 68.61 51.60 C 68.14 51.00 67.68 50.40 67.22 49.80 C 66.91 48.95 66.59 48.11 66.27 47.26 C 68.61 49.23 70.95 51.20 73.29 53.16 L 73.13 53.44 C 74.68 54.33 76.23 55.23 77.77 56.13 C 78.05 52.45 80.23 49.46 82.65 46.83 C 81.74 46.00 80.84 45.16 79.93 44.33 L 79.64 44.66 C 79.20 44.18 78.33 43.24 77.89 42.77 C 80.31 43.74 82.63 44.98 85.10 45.83 C 90.34 50.34 93.07 56.80 94.74 63.36 C 95.84 61.05 95.42 58.40 95.09 55.96 C 93.74 48.63 90.08 41.53 84.19 36.84 C 82.69 35.51 80.55 35.73 78.70 35.46 C 76.34 35.60 73.98 35.83 71.63 36.19 M 88.38 36.55 C 87.79 37.77 89.11 38.49 89.91 39.12 C 91.44 40.05 92.84 38.43 94.14 37.85 C 92.39 36.83 90.43 36.21 88.38 36.55 M 22.79 45.58 C 20.27 47.91 16.74 49.04 14.81 52.02 C 19.09 52.27 22.16 48.71 25.70 46.87 C 25.10 49.24 24.39 51.59 24.04 54.01 C 26.27 55.34 27.11 51.80 27.44 50.25 C 27.61 47.68 29.06 43.97 26.38 42.29 C 26.45 41.42 26.51 40.56 26.57 39.69 C 24.03 40.50 24.52 43.93 22.79 45.58 M 92.04 42.26 C 92.49 43.09 92.97 43.91 93.48 44.71 C 94.91 44.93 95.22 43.22 95.93 42.37 C 94.64 42.17 93.34 42.14 92.04 42.26 M 95.64 49.98 C 97.06 48.28 98.51 46.60 99.92 44.90 C 97.92 46.05 93.86 46.89 95.64 49.98 M 29.69 46.89 C 29.18 50.37 28.87 53.89 29.05 57.40 C 31.07 54.46 32.94 49.63 29.69 46.89 M 33.94 47.09 C 33.99 48.87 34.03 50.65 34.10 52.43 C 35.48 51.30 35.95 49.62 36.30 47.95 C 35.71 47.73 34.53 47.31 33.94 47.09 M 81.39 50.84 C 81.60 52.20 81.80 53.57 82.01 54.93 C 81.62 54.73 80.85 54.32 80.46 54.12 C 80.03 55.23 79.61 56.34 79.19 57.46 C 77.33 57.76 75.45 57.77 73.95 56.48 C 75.81 58.32 77.41 60.46 78.06 63.04 C 81.01 63.67 84.07 63.69 87.06 63.30 C 88.94 61.24 91.42 58.28 89.74 55.41 C 89.07 54.38 88.41 53.35 87.76 52.31 C 86.83 51.22 85.97 50.04 84.82 49.18 C 83.47 48.85 82.53 50.36 81.39 50.84 M 31.89 56.81 C 29.47 61.43 30.54 66.48 31.56 71.31 C 33.03 66.66 32.43 61.72 32.49 56.93 C 33.39 56.43 34.32 55.98 35.27 55.57 C 34.15 56.00 33.02 56.41 31.89 56.81 M 91.55 66.19 C 89.92 68.11 87.89 69.74 86.74 72.03 C 88.90 71.80 92.07 71.18 92.30 68.50 C 92.25 65.96 91.48 63.50 91.21 60.99 C 90.62 62.75 90.44 64.56 91.55 66.19 M 74.05 66.55 C 76.36 67.66 78.61 68.90 80.81 70.23 C 83.22 68.27 86.52 68.51 89.13 67.02 C 89.06 66.61 88.91 65.80 88.84 65.39 C 83.84 64.23 79.10 67.44 74.05 66.55 M 34.33 65.71 C 33.66 71.61 34.96 77.45 35.35 83.32 C 36.78 79.00 37.67 74.46 37.64 69.89 C 37.73 67.85 35.61 66.90 34.33 65.71 M 97.65 69.20 C 94.14 74.64 90.89 80.25 87.76 85.91 C 87.78 86.50 87.83 87.66 87.85 88.24 C 87.79 88.28 87.66 88.37 87.60 88.41 C 80.00 88.21 72.28 88.98 64.95 91.04 C 63.79 91.54 61.81 93.26 63.51 94.33 C 65.45 95.08 67.34 94.00 69.10 93.30 C 74.80 94.47 80.47 95.85 86.26 96.58 C 92.12 90.71 95.86 83.23 100.24 76.28 C 101.24 74.32 102.90 72.34 102.39 69.99 C 102.23 68.38 100.86 67.29 100.04 66.01 C 99.23 67.06 98.44 68.13 97.65 69.20 M 79.86 75.15 C 82.72 74.93 83.68 71.86 85.03 69.80 C 82.82 71.06 81.16 73.00 79.86 75.15 M 85.02 72.03 C 84.17 73.14 83.30 74.24 82.43 75.33 C 82.73 75.73 83.31 76.52 83.60 76.92 C 81.99 77.47 81.16 79.08 80.38 80.48 C 79.25 82.49 78.77 86.34 82.24 85.50 C 82.95 85.46 84.39 85.39 85.10 85.35 C 86.69 82.63 88.19 79.79 88.43 76.58 C 90.92 76.39 91.95 74.12 92.38 71.96 C 89.93 72.40 86.63 75.20 85.02 72.03 M 72.77 84.12 C 73.37 86.24 75.84 85.51 77.49 85.87 C 77.90 83.82 78.31 81.78 78.77 79.74 C 80.18 78.87 81.20 77.58 81.96 76.11 C 77.71 76.89 74.26 80.15 72.77 84.12 M 38.66 80.05 C 38.03 84.52 34.57 87.84 33.79 92.23 C 34.83 92.18 36.90 92.06 37.94 92.00 C 37.78 92.55 37.45 93.64 37.29 94.18 C 38.83 93.64 40.02 92.53 40.55 90.96 C 39.79 91.21 38.27 91.72 37.51 91.97 C 38.28 88.04 38.42 84.03 38.66 80.05 M 40.17 80.51 C 39.21 81.47 39.53 83.61 40.90 84.03 C 42.63 83.70 41.90 79.98 40.17 80.51 M 45.79 87.51 C 45.84 90.10 45.86 93.00 48.09 94.75 L 47.98 95.67 C 48.15 96.01 48.49 96.70 48.66 97.04 C 55.92 98.67 62.59 102.32 69.93 103.68 C 72.18 102.54 73.85 100.55 75.70 98.86 C 73.27 97.63 70.61 95.25 67.83 96.97 C 62.28 96.33 56.92 94.69 51.43 93.74 C 49.81 93.61 48.73 92.30 47.70 91.21 C 47.85 89.51 48.12 87.58 45.79 87.51 M 42.17 92.58 C 41.24 93.41 42.24 95.65 43.52 94.94 C 44.42 94.10 43.44 91.90 42.17 92.58 M 53.81 107.26 C 52.44 104.50 51.26 101.54 48.99 99.37 C 46.95 102.66 50.93 106.12 53.81 107.26 M 78.29 99.80 C 77.34 101.34 76.38 102.88 75.46 104.43 C 77.46 104.35 79.36 103.77 81.19 103.00 C 80.92 101.30 80.13 99.97 78.29 99.80 M 54.16 102.32 C 55.21 104.03 56.31 105.72 57.41 107.40 C 58.31 106.46 59.23 105.52 60.16 104.61 C 58.17 103.82 56.17 103.04 54.16 102.32 Z" />
<path fill="#644943" opacity="1.00" d=" M 29.88 3.09 C 30.89 3.51 31.90 3.92 32.91 4.35 C 32.20 6.32 31.89 8.40 31.58 10.47 C 27.42 10.62 22.80 11.05 20.07 14.64 C 19.47 13.89 18.86 13.14 18.26 12.39 C 20.19 10.88 22.01 9.20 23.55 7.29 C 26.52 7.81 29.93 6.56 29.88 3.09 Z" />
<path fill="#e8d382" opacity="1.00" d=" M 77.00 9.00 C 78.21 7.76 79.63 6.10 81.55 6.41 C 85.50 8.58 87.93 13.67 92.93 13.69 C 99.76 13.86 105.92 9.97 111.00 5.77 L 111.00 30.61 C 107.19 27.49 106.50 22.57 106.42 17.95 C 104.26 20.59 102.11 23.52 101.78 27.04 C 101.46 30.79 101.91 34.56 101.92 38.31 C 99.35 37.05 96.87 35.62 94.53 33.97 C 95.74 33.00 96.82 31.89 97.89 30.77 C 95.26 30.52 92.63 30.57 90.01 30.67 C 90.13 29.20 90.25 27.74 90.37 26.28 C 87.53 26.33 85.14 27.89 82.81 29.31 C 83.06 27.05 83.25 24.77 83.36 22.49 C 80.30 22.90 77.70 24.53 75.58 26.71 C 75.12 25.38 74.71 24.01 74.10 22.74 C 72.03 21.06 70.44 23.74 68.84 24.78 C 70.61 19.11 73.13 13.55 77.00 9.00 Z" />
<path fill="#876a53" opacity="1.00" d=" M 14.21 10.39 C 16.85 8.25 20.02 6.47 23.55 7.29 C 22.01 9.20 20.19 10.88 18.26 12.39 C 18.86 13.14 19.47 13.89 20.07 14.64 C 19.10 16.12 18.19 17.64 17.25 19.15 C 17.88 20.03 18.51 20.91 19.14 21.80 C 18.10 21.30 17.06 20.79 16.02 20.29 C 14.98 21.02 13.93 21.75 12.89 22.48 C 12.03 22.00 11.17 21.51 10.31 21.03 C 8.98 28.73 2.97 34.30 0.00 41.27 L 0.00 33.25 C 2.69 29.72 6.39 26.53 6.85 21.84 C 6.07 21.45 4.50 20.68 3.72 20.29 C 4.82 18.86 6.02 17.50 7.32 16.23 C 10.34 19.52 14.23 15.96 15.64 12.94 C 15.20 12.07 14.72 11.22 14.21 10.39 Z" />
<path fill="#bca66c" opacity="1.00" d=" M 7.32 16.23 C 9.52 14.18 11.83 12.24 14.21 10.39 C 14.72 11.22 15.20 12.07 15.64 12.94 C 14.23 15.96 10.34 19.52 7.32 16.23 Z" />
<path fill="#664b43" opacity="1.00" d=" M 21.37 17.06 C 23.16 13.48 27.33 13.05 30.89 13.07 C 29.21 15.14 27.92 17.49 26.79 19.90 C 25.21 20.90 23.53 21.73 21.89 22.64 C 21.63 20.79 21.18 18.93 21.37 17.06 Z" />
<path fill="#664a44" opacity="1.00" d=" M 30.12 19.92 C 30.26 17.46 32.10 15.59 34.04 14.30 C 33.93 15.21 33.72 17.03 33.61 17.94 C 32.81 21.18 36.01 23.18 38.53 24.33 C 40.64 24.93 42.89 24.57 45.06 24.57 C 49.09 28.58 49.51 34.31 49.67 39.67 C 48.80 42.25 46.27 43.78 44.17 45.32 C 46.47 39.96 48.50 32.80 43.98 28.00 C 41.55 24.97 37.39 25.80 34.00 25.53 C 31.73 24.80 29.64 22.46 30.12 19.92 Z" />
<path fill="#9d7f5d" opacity="1.00" d=" M 47.65 16.74 C 52.30 23.28 53.77 32.48 49.67 39.67 C 49.51 34.31 49.09 28.58 45.06 24.57 C 42.89 24.57 40.64 24.93 38.53 24.33 C 36.01 23.18 32.81 21.18 33.61 17.94 C 36.01 21.17 39.97 23.45 43.99 23.59 C 47.31 23.26 47.32 19.26 47.65 16.74 Z" />
<path fill="#9c6552" opacity="1.00" d=" M 101.78 27.04 C 102.11 23.52 104.26 20.59 106.42 17.95 C 106.50 22.57 107.19 27.49 111.00 30.61 L 111.00 49.77 C 110.29 51.85 109.38 53.84 108.46 55.83 C 105.66 54.16 102.87 52.47 100.27 50.49 C 100.11 50.06 99.79 49.20 99.63 48.77 C 101.80 46.42 103.65 43.79 105.15 40.97 C 102.60 41.83 100.11 42.84 97.63 43.91 C 97.11 42.56 96.58 41.22 96.04 39.87 C 96.64 38.84 97.24 37.80 97.84 36.77 C 96.26 36.16 94.69 35.56 93.11 34.97 C 93.47 34.72 94.18 34.22 94.53 33.97 C 96.87 35.62 99.35 37.05 101.92 38.31 C 101.91 34.56 101.46 30.79 101.78 27.04 Z" />
<path fill="#382626" opacity="1.00" d=" M 21.89 22.64 C 23.53 21.73 25.21 20.90 26.79 19.90 C 27.09 20.79 27.39 21.67 27.69 22.56 C 26.16 23.66 24.65 24.76 23.13 25.87 C 22.78 24.84 20.24 23.44 21.89 22.64 Z" />
<path fill="#c0aa6d" opacity="1.00" d=" M 0.00 25.72 C 1.15 23.86 2.41 22.05 3.72 20.29 C 4.50 20.68 6.07 21.45 6.85 21.84 C 6.39 26.53 2.69 29.72 0.00 33.25 L 0.00 25.72 Z" />
<path fill="#d9a1a1" opacity="1.00" d=" M 8.42 32.63 C 8.41 29.04 10.30 25.96 13.18 23.91 C 13.25 24.31 13.41 25.11 13.49 25.51 C 12.97 26.70 12.45 27.89 11.97 29.09 C 11.46 30.47 11.01 31.87 10.55 33.27 C 10.02 33.11 8.95 32.79 8.42 32.63 Z" />
<path fill="#e97bcc" opacity="1.00" d=" M 13.18 23.91 C 16.65 24.62 21.07 24.49 23.20 27.85 C 24.62 30.62 25.23 34.08 23.91 37.01 C 21.44 40.31 16.11 42.23 12.55 39.50 C 10.22 37.92 9.32 35.15 8.42 32.63 C 8.95 32.79 10.02 33.11 10.55 33.27 C 11.60 33.70 12.63 34.17 13.62 34.71 C 14.26 35.13 15.54 35.95 16.18 36.36 C 17.95 36.67 19.74 36.75 21.53 36.84 C 21.79 35.37 22.04 33.90 22.30 32.43 C 22.42 31.67 22.66 30.17 22.79 29.42 C 20.63 27.11 17.45 26.88 14.67 28.18 C 14.00 28.41 12.65 28.86 11.97 29.09 C 12.45 27.89 12.97 26.70 13.49 25.51 C 13.41 25.11 13.25 24.31 13.18 23.91 Z" />
<path fill="#626e5a" opacity="1.00" d=" M 71.47 25.01 C 71.91 24.87 72.78 24.58 73.21 24.43 C 73.41 27.47 72.92 30.47 71.95 33.34 C 70.39 33.78 68.85 34.25 67.35 34.86 C 67.40 34.10 67.43 33.35 67.44 32.60 C 68.55 32.71 69.66 32.76 70.78 32.75 C 71.57 30.97 71.90 29.03 72.11 27.11 C 71.99 26.69 71.73 25.85 71.61 25.43 L 71.47 25.01 Z" />
<path fill="#cfd27f" opacity="1.00" d=" M 75.83 31.46 C 76.65 28.72 78.72 26.72 80.87 24.97 C 80.65 27.17 80.22 29.34 79.47 31.42 C 78.26 31.43 77.04 31.45 75.83 31.46 Z" />
<path fill="#432d2e" opacity="1.00" d=" M 25.96 27.97 C 26.56 27.13 27.22 26.32 27.92 25.56 C 31.27 27.63 34.52 29.90 37.19 32.83 C 34.04 32.46 30.87 32.33 27.71 32.52 C 27.09 31.04 25.88 29.66 25.96 27.97 Z" />
<path fill="#cfd27f" opacity="1.00" d=" M 71.61 25.43 C 71.73 25.85 71.99 26.69 72.11 27.11 C 71.90 29.03 71.57 30.97 70.78 32.75 C 69.66 32.76 68.55 32.71 67.44 32.60 C 68.74 30.16 70.08 27.74 71.61 25.43 Z" />
<path fill="#000000" opacity="1.00" d=" M 14.67 28.18 C 17.45 26.88 20.63 27.11 22.79 29.42 C 22.66 30.17 22.42 31.67 22.30 32.43 C 21.17 31.99 20.04 31.60 18.88 31.26 C 16.47 32.07 18.34 34.62 18.68 36.19 C 18.05 36.23 16.80 36.32 16.18 36.36 C 15.54 35.95 14.26 35.13 13.62 34.71 C 14.56 33.52 15.50 32.33 16.43 31.13 C 15.99 30.39 15.11 28.92 14.67 28.18 Z" />
<path fill="#a24e96" opacity="1.00" d=" M 11.97 29.09 C 12.65 28.86 14.00 28.41 14.67 28.18 C 15.11 28.92 15.99 30.39 16.43 31.13 C 15.50 32.33 14.56 33.52 13.62 34.71 C 12.63 34.17 11.60 33.70 10.55 33.27 C 11.01 31.87 11.46 30.47 11.97 29.09 Z" />
<path fill="#31443f" opacity="1.00" d=" M 86.38 29.15 C 89.59 28.65 87.01 32.44 85.03 31.34 C 83.36 30.73 85.45 29.14 86.38 29.15 Z" />
<path fill="#87417f" opacity="1.00" d=" M 18.68 36.19 C 18.34 34.62 16.47 32.07 18.88 31.26 C 20.04 31.60 21.17 31.99 22.30 32.43 C 22.04 33.90 21.79 35.37 21.53 36.84 C 19.74 36.75 17.95 36.67 16.18 36.36 C 16.80 36.32 18.05 36.23 18.68 36.19 Z" />
<path fill="#cfd27f" opacity="1.00" d=" M 61.63 32.98 C 62.40 34.06 63.16 35.15 63.93 36.23 C 63.35 37.49 62.49 38.56 61.30 39.29 C 61.33 37.18 61.46 35.08 61.63 32.98 Z" />
<path fill="#c8dcdc" opacity="1.00" d=" M 71.95 33.34 C 74.32 32.51 76.78 33.36 79.18 33.59 C 74.40 34.43 69.68 35.51 64.98 36.67 C 65.57 36.21 66.75 35.31 67.35 34.86 C 68.85 34.25 70.39 33.78 71.95 33.34 Z" />
<path fill="#cfd27f" opacity="1.00" d=" M 82.68 33.39 C 85.53 33.20 88.38 33.18 91.24 33.19 C 89.43 33.92 87.60 34.59 85.83 35.41 C 84.78 34.74 83.73 34.08 82.68 33.39 Z" />
<path fill="#cba870" opacity="1.00" d=" M 71.63 36.19 C 73.98 35.83 76.34 35.60 78.70 35.46 C 79.09 36.13 79.85 37.48 80.24 38.16 C 79.22 39.58 78.23 41.03 77.27 42.50 C 75.61 41.78 73.93 41.11 72.25 40.43 C 72.04 39.02 71.84 37.60 71.63 36.19 Z" />
<path fill="#8d5546" opacity="1.00" d=" M 78.70 35.46 C 80.55 35.73 82.69 35.51 84.19 36.84 C 90.08 41.53 93.74 48.63 95.09 55.96 C 95.42 58.40 95.84 61.05 94.74 63.36 C 93.07 56.80 90.34 50.34 85.10 45.83 L 86.39 46.25 C 84.23 43.64 81.94 41.11 80.24 38.16 C 79.85 37.48 79.09 36.13 78.70 35.46 Z" />
<path fill="#cfd27f" opacity="1.00" d=" M 88.38 36.55 C 90.43 36.21 92.39 36.83 94.14 37.85 C 92.84 38.43 91.44 40.05 89.91 39.12 C 89.11 38.49 87.79 37.77 88.38 36.55 Z" />
<path fill="#e9d483" opacity="1.00" d=" M 61.18 46.50 C 62.55 41.47 66.33 37.10 71.63 36.19 C 71.84 37.60 72.04 39.02 72.25 40.43 C 73.93 41.11 75.61 41.78 77.27 42.50 C 77.42 42.57 77.73 42.70 77.89 42.77 C 78.33 43.24 79.20 44.18 79.64 44.66 C 77.23 47.25 75.04 50.07 73.29 53.16 C 70.95 51.20 68.61 49.23 66.27 47.26 C 66.59 48.11 66.91 48.95 67.22 49.80 C 66.13 50.55 65.04 51.32 63.95 52.08 C 63.81 51.30 63.54 49.74 63.40 48.96 C 61.62 52.69 62.95 56.84 64.39 60.44 L 64.34 60.76 C 64.28 61.16 64.16 61.97 64.10 62.37 C 64.67 64.05 65.27 65.76 65.22 67.56 C 61.00 61.58 58.14 53.62 61.18 46.50 M 70.66 49.47 C 72.69 47.47 76.38 45.41 75.74 42.15 C 72.57 42.69 71.37 46.73 70.66 49.47 Z" />
<path fill="#ac825c" opacity="1.00" d=" M 80.24 38.16 C 81.94 41.11 84.23 43.64 86.39 46.25 L 85.10 45.83 C 82.63 44.98 80.31 43.74 77.89 42.77 C 77.73 42.70 77.42 42.57 77.27 42.50 C 78.23 41.03 79.22 39.58 80.24 38.16 Z" />
<path fill="#3b2629" opacity="1.00" d=" M 22.79 45.58 C 24.52 43.93 24.03 40.50 26.57 39.69 C 26.51 40.56 26.45 41.42 26.38 42.29 C 29.06 43.97 27.61 47.68 27.44 50.25 C 27.11 51.80 26.27 55.34 24.04 54.01 C 24.39 51.59 25.10 49.24 25.70 46.87 C 22.16 48.71 19.09 52.27 14.81 52.02 C 16.74 49.04 20.27 47.91 22.79 45.58 Z" />
<path fill="#f1e2a9" opacity="1.00" d=" M 70.66 49.47 C 71.37 46.73 72.57 42.69 75.74 42.15 C 76.38 45.41 72.69 47.47 70.66 49.47 Z" />
<path fill="#cfd27f" opacity="1.00" d=" M 92.04 42.26 C 93.34 42.14 94.64 42.17 95.93 42.37 C 95.22 43.22 94.91 44.93 93.48 44.71 C 92.97 43.91 92.49 43.09 92.04 42.26 Z" />
<path fill="#a9785a" opacity="1.00" d=" M 79.64 44.66 L 79.93 44.33 C 80.84 45.16 81.74 46.00 82.65 46.83 C 80.23 49.46 78.05 52.45 77.77 56.13 C 76.23 55.23 74.68 54.33 73.13 53.44 L 73.29 53.16 C 75.04 50.07 77.23 47.25 79.64 44.66 Z" />
<path fill="#c3d7d8" opacity="1.00" d=" M 95.64 49.98 C 93.86 46.89 97.92 46.05 99.92 44.90 C 98.51 46.60 97.06 48.28 95.64 49.98 Z" />
<path fill="#644943" opacity="1.00" d=" M 29.69 46.89 C 32.94 49.63 31.07 54.46 29.05 57.40 C 28.87 53.89 29.18 50.37 29.69 46.89 Z" />
<path fill="#392727" opacity="1.00" d=" M 33.94 47.09 C 34.53 47.31 35.71 47.73 36.30 47.95 C 35.95 49.62 35.48 51.30 34.10 52.43 C 34.03 50.65 33.99 48.87 33.94 47.09 Z" />
<path fill="#45526a" opacity="1.00" d=" M 81.39 50.84 C 82.53 50.36 83.47 48.85 84.82 49.18 C 85.97 50.04 86.83 51.22 87.76 52.31 C 86.32 52.99 84.84 53.59 83.50 54.46 C 83.06 56.14 82.89 57.89 82.63 59.60 C 81.52 58.83 80.36 58.12 79.19 57.46 C 79.61 56.34 80.03 55.23 80.46 54.12 C 80.85 54.32 81.62 54.73 82.01 54.93 C 81.80 53.57 81.60 52.20 81.39 50.84 Z" />
<path fill="#874d42" opacity="1.00" d=" M 96.42 52.99 C 97.34 51.47 98.48 50.11 99.63 48.77 C 99.79 49.20 100.11 50.06 100.27 50.49 C 101.19 53.16 102.08 55.84 102.95 58.53 C 100.58 56.97 97.66 55.73 96.42 52.99 Z" />
<path fill="#c8dcdc" opacity="1.00" d=" M 63.95 52.08 C 65.04 51.32 66.13 50.55 67.22 49.80 C 67.68 50.40 68.14 51.00 68.61 51.60 C 67.25 52.65 65.90 53.70 64.56 54.76 C 64.35 53.86 64.15 52.97 63.95 52.08 Z" />
<path fill="#ead583" opacity="1.00" d=" M 64.56 54.76 C 65.90 53.70 67.25 52.65 68.61 51.60 C 69.21 52.60 69.81 53.61 70.39 54.62 C 69.52 55.68 68.53 56.67 67.89 57.89 C 68.07 59.30 68.46 60.66 68.87 62.02 C 67.22 59.73 65.70 57.34 64.56 54.76 Z" />
<path fill="#859aa6" opacity="1.00" d=" M 83.50 54.46 C 84.84 53.59 86.32 52.99 87.76 52.31 C 88.41 53.35 89.07 54.38 89.74 55.41 C 87.32 56.72 84.95 58.13 82.63 59.60 C 82.89 57.89 83.06 56.14 83.50 54.46 Z" />
<path fill="#927458" opacity="1.00" d=" M 31.89 56.81 C 33.02 56.41 34.15 56.00 35.27 55.57 C 34.32 55.98 33.39 56.43 32.49 56.93 C 32.43 61.72 33.03 66.66 31.56 71.31 C 30.54 66.48 29.47 61.43 31.89 56.81 Z" />
<path fill="#af805e" opacity="1.00" d=" M 67.89 57.89 C 68.53 56.67 69.52 55.68 70.39 54.62 C 72.47 58.10 74.91 61.32 77.53 64.39 C 74.60 64.10 70.54 65.24 68.87 62.02 C 68.46 60.66 68.07 59.30 67.89 57.89 Z" />
<path fill="#7c92a0" opacity="1.00" d=" M 73.95 56.48 C 75.45 57.77 77.33 57.76 79.19 57.46 C 80.36 58.12 81.52 58.83 82.63 59.60 C 81.02 60.63 79.51 61.79 78.06 63.04 C 77.41 60.46 75.81 58.32 73.95 56.48 Z" />
<path fill="#c4d8d9" opacity="1.00" d=" M 82.63 59.60 C 84.95 58.13 87.32 56.72 89.74 55.41 C 91.42 58.28 88.94 61.24 87.06 63.30 C 84.07 63.69 81.01 63.67 78.06 63.04 C 79.51 61.79 81.02 60.63 82.63 59.60 Z" />
<path fill="#b68b62" opacity="1.00" d=" M 64.10 62.37 C 64.16 61.97 64.28 61.16 64.34 60.76 C 67.02 64.28 70.28 67.32 73.99 69.73 C 71.04 69.61 67.33 70.84 65.24 68.09 L 65.22 67.56 C 65.27 65.76 64.67 64.05 64.10 62.37 Z" />
<path fill="#7c92a0" opacity="1.00" d=" M 91.55 66.19 C 90.44 64.56 90.62 62.75 91.21 60.99 C 91.48 63.50 92.25 65.96 92.30 68.50 C 92.07 71.18 88.90 71.80 86.74 72.03 C 87.89 69.74 89.92 68.11 91.55 66.19 Z" />
<path fill="#553f39" opacity="1.00" d=" M 0.00 61.71 C 2.37 64.75 5.52 67.04 9.13 68.39 C 9.10 68.82 9.04 69.67 9.01 70.10 C 8.25 72.34 7.49 74.63 7.66 77.03 C 7.48 75.32 7.38 73.59 7.27 71.87 C 4.87 69.84 2.35 67.95 0.00 65.86 L 0.00 61.71 Z" />
<path fill="#816450" opacity="1.00" d=" M 34.33 65.71 C 35.61 66.90 37.73 67.85 37.64 69.89 C 37.67 74.46 36.78 79.00 35.35 83.32 C 34.96 77.45 33.66 71.61 34.33 65.71 Z" />
<path fill="#556379" opacity="1.00" d=" M 97.65 69.20 C 98.44 68.13 99.23 67.06 100.04 66.01 C 100.86 67.29 102.23 68.38 102.39 69.99 C 102.90 72.34 101.24 74.32 100.24 76.28 C 95.86 83.23 92.12 90.71 86.26 96.58 C 80.47 95.85 74.80 94.47 69.10 93.30 C 68.21 92.94 67.33 92.56 66.46 92.15 C 72.80 90.78 79.14 93.40 85.48 92.62 C 87.69 92.32 87.71 90.15 87.60 88.41 C 87.66 88.37 87.79 88.28 87.85 88.24 C 92.90 85.14 96.48 80.08 98.98 74.80 C 100.34 72.81 98.69 70.86 97.65 69.20 Z" />
<path fill="#a9baba" opacity="1.00" d=" M 79.86 75.15 C 81.16 73.00 82.82 71.06 85.03 69.80 C 83.68 71.86 82.72 74.93 79.86 75.15 Z" />
<path fill="#c3d7d8" opacity="1.00" d=" M 97.65 69.20 C 98.69 70.86 100.34 72.81 98.98 74.80 C 96.48 80.08 92.90 85.14 87.85 88.24 C 87.83 87.66 87.78 86.50 87.76 85.91 C 90.89 80.25 94.14 74.64 97.65 69.20 Z" />
<path fill="#9a835c" opacity="1.00" d=" M 7.66 77.03 C 7.49 74.63 8.25 72.34 9.01 70.10 C 9.28 70.83 9.82 72.28 10.09 73.00 C 10.17 74.89 9.77 76.75 9.35 78.59 C 8.92 78.20 8.08 77.42 7.66 77.03 Z" />
<path fill="#000000" opacity="0.41" d=" M 67.46 73.17 C 69.97 72.35 72.60 72.15 75.23 72.04 C 73.92 72.35 72.62 72.68 71.32 73.00 C 71.36 73.58 71.42 74.75 71.46 75.33 C 70.11 74.64 68.76 73.94 67.46 73.17 Z" />
<path fill="#415f63" opacity="1.00" d=" M 85.02 72.03 C 86.63 75.20 89.93 72.40 92.38 71.96 C 91.95 74.12 90.92 76.39 88.43 76.58 C 88.19 79.79 86.69 82.63 85.10 85.35 C 84.39 85.39 82.95 85.46 82.24 85.50 C 81.93 84.41 81.62 83.33 81.30 82.24 C 82.11 81.50 82.92 80.76 83.72 80.01 C 83.86 80.85 84.13 82.52 84.26 83.35 C 84.66 82.91 85.46 82.04 85.85 81.60 C 87.02 79.66 84.42 78.40 83.60 76.92 C 83.31 76.52 82.73 75.73 82.43 75.33 C 83.30 74.24 84.17 73.14 85.02 72.03 Z" />
<path fill="#654a44" opacity="1.00" d=" M 10.09 73.00 C 11.62 73.13 13.15 73.19 14.65 73.50 C 17.41 76.01 18.69 79.65 20.24 82.95 C 17.10 80.43 13.45 78.66 9.35 78.59 C 9.77 76.75 10.17 74.89 10.09 73.00 Z" />
<path fill="#7d986c" opacity="1.00" d=" M 72.77 84.12 C 74.26 80.15 77.71 76.89 81.96 76.11 C 81.20 77.58 80.18 78.87 78.77 79.74 C 78.41 80.02 77.70 80.56 77.35 80.84 C 76.93 81.35 76.52 81.88 76.12 82.41 C 75.72 82.42 74.92 82.44 74.52 82.45 C 74.09 82.87 73.21 83.70 72.77 84.12 Z" />
<path fill="#728c69" opacity="1.00" d=" M 80.38 80.48 C 81.16 79.08 81.99 77.47 83.60 76.92 C 84.42 78.40 87.02 79.66 85.85 81.60 C 85.46 82.04 84.66 82.91 84.26 83.35 C 84.13 82.52 83.86 80.85 83.72 80.01 C 82.92 80.76 82.11 81.50 81.30 82.24 C 81.62 83.33 81.93 84.41 82.24 85.50 C 78.77 86.34 79.25 82.49 80.38 80.48 Z" />
<path fill="#9e805e" opacity="1.00" d=" M 38.66 80.05 C 38.42 84.03 38.28 88.04 37.51 91.97 L 38.02 91.99 L 37.94 92.00 C 36.90 92.06 34.83 92.18 33.79 92.23 C 34.57 87.84 38.03 84.52 38.66 80.05 Z" />
<path fill="#31251f" opacity="1.00" d=" M 40.17 80.51 C 41.90 79.98 42.63 83.70 40.90 84.03 C 39.53 83.61 39.21 81.47 40.17 80.51 Z" />
<path fill="#2e464f" opacity="1.00" d=" M 77.35 80.84 C 77.70 80.56 78.41 80.02 78.77 79.74 C 78.31 81.78 77.90 83.82 77.49 85.87 C 75.84 85.51 73.37 86.24 72.77 84.12 C 73.21 83.70 74.09 82.87 74.52 82.45 C 74.92 82.44 75.72 82.42 76.12 82.41 C 76.52 81.88 76.93 81.35 77.35 80.84 Z" />
<path fill="#78936b" opacity="1.00" d=" M 100.62 90.95 C 102.84 86.19 107.21 83.20 111.00 79.82 L 111.00 88.44 C 107.77 90.06 104.20 90.73 100.62 90.95 Z" />
<path fill="#bbd0d2" opacity="1.00" d=" M 45.79 87.51 C 48.12 87.58 47.85 89.51 47.70 91.21 C 48.73 92.30 49.81 93.61 51.43 93.74 C 56.92 94.69 62.28 96.33 67.83 96.97 C 68.52 97.07 69.92 97.28 70.61 97.38 C 70.68 98.10 70.82 99.56 70.89 100.29 C 62.75 101.69 55.75 96.24 48.20 94.27 L 48.09 94.75 C 45.86 93.00 45.84 90.10 45.79 87.51 Z" />
<path fill="#c8dcdc" opacity="1.00" d=" M 64.95 91.04 C 72.28 88.98 80.00 88.21 87.60 88.41 C 87.71 90.15 87.69 92.32 85.48 92.62 C 79.14 93.40 72.80 90.78 66.46 92.15 C 67.33 92.56 68.21 92.94 69.10 93.30 C 67.34 94.00 65.45 95.08 63.51 94.33 C 61.81 93.26 63.79 91.54 64.95 91.04 Z" />
<path fill="#c3d7d8" opacity="1.00" d=" M 38.02 91.99 L 37.51 91.97 C 38.27 91.72 39.79 91.21 40.55 90.96 C 40.02 92.53 38.83 93.64 37.29 94.18 C 37.45 93.64 37.78 92.55 37.94 92.00 L 38.02 91.99 Z" />
<path fill="#1e2e49" opacity="1.00" d=" M 92.78 94.21 C 93.52 93.04 94.22 91.84 94.92 90.64 C 96.67 93.00 98.24 95.79 101.09 96.97 C 103.20 98.24 106.14 98.74 107.41 101.03 C 106.56 105.58 101.84 107.85 98.43 110.40 C 98.13 108.67 97.76 106.97 97.40 105.26 C 99.59 102.88 97.34 100.10 96.01 97.97 C 95.70 97.40 95.07 96.27 94.76 95.70 C 94.27 95.33 93.27 94.59 92.78 94.21 Z" />
<path fill="#221b16" opacity="1.00" d=" M 42.17 92.58 C 43.44 91.90 44.42 94.10 43.52 94.94 C 42.24 95.65 41.24 93.41 42.17 92.58 Z" />
<path fill="#1c2a4e" opacity="1.00" d=" M 101.73 93.95 C 104.59 92.40 107.98 93.47 111.00 93.91 L 111.00 101.59 L 110.86 102.93 C 109.03 98.80 105.08 96.62 101.73 93.95 Z" />
<path fill="#a9baba" opacity="1.00" d=" M 39.81 93.92 C 41.52 95.89 43.47 97.65 44.99 99.77 C 44.20 100.33 43.40 100.87 42.57 101.39 C 41.26 99.53 40.11 97.43 38.04 96.29 L 38.29 95.66 C 38.80 95.08 39.30 94.49 39.81 93.92 Z" />
<path fill="#5c7487" opacity="1.00" d=" M 48.20 94.27 C 55.75 96.24 62.75 101.69 70.89 100.29 C 70.82 99.56 70.68 98.10 70.61 97.38 C 69.92 97.28 68.52 97.07 67.83 96.97 C 70.61 95.25 73.27 97.63 75.70 98.86 C 73.85 100.55 72.18 102.54 69.93 103.68 C 62.59 102.32 55.92 98.67 48.66 97.04 C 48.49 96.70 48.15 96.01 47.98 95.67 L 48.09 94.75 L 48.20 94.27 Z" />
<path fill="#4a6762" opacity="1.00" d=" M 91.72 95.65 C 91.98 95.29 92.51 94.57 92.78 94.21 C 93.27 94.59 94.27 95.33 94.76 95.70 C 92.99 96.45 94.61 98.37 96.01 97.97 C 97.34 100.10 99.59 102.88 97.40 105.26 C 95.32 106.59 94.02 108.57 93.61 111.00 L 93.27 111.00 C 92.35 110.42 91.44 109.83 90.54 109.22 C 90.85 106.63 91.20 104.02 90.99 101.40 C 89.21 101.59 87.44 101.97 85.69 102.34 C 87.30 100.53 89.05 98.84 90.61 96.99 C 90.68 98.64 91.40 99.22 92.79 98.72 C 93.47 97.37 93.12 96.35 91.72 95.65 Z" />
<path fill="#5d7964" opacity="1.00" d=" M 90.61 96.99 C 90.89 96.65 91.44 95.98 91.72 95.65 C 93.12 96.35 93.47 97.37 92.79 98.72 C 91.40 99.22 90.68 98.64 90.61 96.99 Z" />
<path fill="#678066" opacity="1.00" d=" M 96.01 97.97 C 94.61 98.37 92.99 96.45 94.76 95.70 C 95.07 96.27 95.70 97.40 96.01 97.97 Z" />
<path fill="#3f2e28" opacity="1.00" d=" M 53.81 107.26 C 50.93 106.12 46.95 102.66 48.99 99.37 C 51.26 101.54 52.44 104.50 53.81 107.26 Z" />
<path fill="#2c4451" opacity="1.00" d=" M 78.29 99.80 C 80.13 99.97 80.92 101.30 81.19 103.00 C 79.36 103.77 77.46 104.35 75.46 104.43 C 76.38 102.88 77.34 101.34 78.29 99.80 Z" />
<path fill="#7d986c" opacity="1.00" d=" M 85.69 102.34 C 87.44 101.97 89.21 101.59 90.99 101.40 C 91.20 104.02 90.85 106.63 90.54 109.22 C 91.44 109.83 92.35 110.42 93.27 111.00 L 86.68 111.00 C 87.60 109.54 87.20 107.73 86.64 106.22 C 85.73 107.65 85.40 109.33 85.32 111.00 L 83.63 111.00 C 84.36 108.12 84.88 105.20 85.69 102.34 Z" />
<path fill="#bca66c" opacity="1.00" d=" M 48.88 109.52 C 47.26 107.25 46.23 104.61 46.15 101.81 C 47.74 103.96 49.18 106.27 51.26 108.01 C 50.66 108.39 49.47 109.14 48.88 109.52 Z" />
<path fill="#7c92a0" opacity="1.00" d=" M 110.86 102.93 L 111.00 101.59 L 111.00 111.00 L 108.93 111.00 C 110.31 108.53 110.62 105.70 110.86 102.93 Z" />
<path fill="#4a6762" opacity="1.00" d=" M 58.74 111.00 C 60.70 107.08 65.01 106.61 68.92 106.46 C 66.60 107.94 64.34 109.48 62.05 111.00 L 58.74 111.00 Z" />
<path fill="#557163" opacity="1.00" d=" M 85.32 111.00 C 85.40 109.33 85.73 107.65 86.64 106.22 C 87.20 107.73 87.60 109.54 86.68 111.00 L 85.32 111.00 Z" />
<path fill="#7b976b" opacity="1.00" d=" M 93.61 111.00 C 94.02 108.57 95.32 106.59 97.40 105.26 C 97.76 106.97 98.13 108.67 98.43 110.40 L 97.54 111.00 L 93.61 111.00 Z" />
<path fill="#263c4f" opacity="1.00" d=" M 102.41 111.00 C 104.40 109.22 106.33 107.38 108.36 105.65 C 107.93 107.44 107.51 109.23 106.99 111.00 L 102.41 111.00 Z" />
<path fill="#3d534d" opacity="1.00" d=" M 79.77 107.05 C 79.52 108.37 79.25 109.69 78.95 111.00 L 74.19 111.00 C 76.09 109.73 77.92 108.37 79.77 107.05 Z" />
<path fill="#554334" opacity="1.00" d=" M 51.26 108.01 C 52.95 109.08 54.69 110.07 56.47 111.00 L 50.12 111.00 C 49.81 110.63 49.19 109.89 48.88 109.52 C 49.47 109.14 50.66 108.39 51.26 108.01 Z" />
</svg>
