<?xml version="1.0" encoding="UTF-8" ?>
<!DOCTYPE svg PUBLIC "-//W3C//DTD SVG 1.1//EN" "http://www.w3.org/Graphics/SVG/1.1/DTD/svg11.dtd">
<svg width="111pt" height="111pt" viewBox="0 0 111 111" version="1.1" xmlns="http://www.w3.org/2000/svg">
<path fill="#000000" opacity="1.00" d=" M 36.95 0.00 L 40.91 0.00 C 32.31 5.19 26.76 14.18 23.30 23.39 C 21.53 28.47 20.99 33.94 21.94 39.25 C 23.88 32.69 28.20 26.81 34.52 23.92 C 34.34 28.01 34.16 32.11 34.43 36.20 C 34.70 31.12 34.37 25.85 36.66 21.15 C 33.25 22.19 30.01 23.69 27.03 25.65 C 27.13 24.44 27.25 23.23 27.38 22.02 C 30.13 13.15 36.43 5.80 43.51 0.00 L 46.65 0.00 C 39.51 5.59 33.43 12.75 30.01 21.21 C 33.82 19.42 37.96 18.55 42.17 18.54 C 40.61 20.98 38.58 23.16 37.45 25.86 C 36.76 28.32 36.95 30.91 36.87 33.43 C 39.44 31.42 42.04 29.45 44.75 27.64 C 43.70 23.70 41.06 19.34 43.35 15.36 C 46.21 9.62 50.22 4.49 54.78 0.00 L 58.81 0.00 C 56.18 2.59 53.64 5.29 51.39 8.23 C 49.41 10.86 47.36 13.46 45.54 16.20 C 44.78 18.77 45.76 21.38 46.27 23.90 C 47.22 23.11 48.17 22.32 49.12 21.53 C 50.36 23.19 51.62 24.84 52.84 26.53 C 55.10 24.89 57.35 23.22 59.58 21.53 C 65.34 17.02 72.44 14.22 77.22 8.52 C 70.07 11.22 63.97 15.89 57.81 20.29 C 55.98 21.57 54.19 22.91 52.34 24.16 C 52.48 21.88 52.66 19.59 53.01 17.33 C 54.34 10.59 58.58 4.94 63.13 0.00 L 67.28 0.00 C 61.77 4.99 57.02 11.23 55.40 18.62 C 63.88 12.76 72.39 6.67 82.06 2.88 C 79.97 10.32 75.10 16.33 70.83 22.58 C 76.05 20.35 80.59 16.80 85.85 14.68 C 88.15 13.70 90.64 14.24 92.98 14.73 C 88.86 16.89 88.05 21.77 86.35 25.66 C 94.87 25.05 103.14 22.68 111.00 19.44 L 111.00 23.25 C 105.79 25.28 100.40 26.93 94.88 27.86 C 91.94 28.28 88.80 28.78 85.98 27.54 C 85.38 27.25 84.17 26.68 83.57 26.40 C 83.84 25.06 84.13 23.73 84.44 22.40 C 85.34 20.58 86.33 18.81 87.24 16.99 C 81.70 19.34 77.02 23.51 71.05 24.84 C 69.58 25.03 68.43 25.90 67.52 27.03 C 66.64 28.15 65.79 29.30 64.94 30.43 C 68.99 33.17 72.32 36.93 73.77 41.67 C 75.87 41.55 77.98 41.45 80.06 41.14 C 80.44 41.07 81.18 40.93 81.56 40.86 C 83.34 40.44 85.15 40.09 86.99 40.13 C 86.64 41.04 86.25 41.94 85.83 42.82 C 84.81 43.68 83.76 44.52 82.75 45.39 C 81.61 46.39 80.51 47.44 79.40 48.48 C 78.43 49.38 77.44 50.29 76.46 51.19 C 76.18 51.45 75.61 51.96 75.33 52.22 C 74.89 54.27 74.47 56.32 73.82 58.32 C 72.55 60.89 71.70 63.68 73.85 66.06 C 74.73 66.02 76.50 65.95 77.38 65.91 C 79.96 66.05 82.53 66.43 85.09 66.82 C 87.19 70.58 89.87 74.20 94.08 75.75 C 96.83 77.03 99.67 74.95 102.52 75.24 C 103.59 75.57 104.65 75.93 105.70 76.32 C 106.19 76.63 107.17 77.26 107.66 77.58 C 108.81 78.45 109.92 79.37 111.00 80.33 L 111.00 92.53 C 110.01 92.00 107.69 91.09 107.25 92.65 C 107.95 93.96 109.72 94.02 111.00 93.78 L 111.00 96.05 C 109.05 95.15 107.05 94.38 105.05 93.59 C 102.35 97.98 98.77 101.69 94.97 105.13 C 98.22 106.87 101.10 109.98 105.03 109.88 C 107.02 109.94 109.01 109.86 111.00 109.81 L 111.00 111.00 L 97.75 111.00 C 95.29 109.24 92.64 107.75 89.73 106.87 C 90.84 108.29 91.97 109.70 93.22 111.00 L 88.74 111.00 C 87.55 109.81 86.33 107.59 84.36 108.08 C 84.09 109.41 85.53 110.32 86.44 111.00 L 81.83 111.00 C 83.37 108.35 78.60 108.33 80.03 111.00 L 77.22 111.00 C 78.38 108.83 79.75 106.80 81.03 104.72 C 81.76 103.45 82.38 102.13 83.02 100.81 C 75.98 99.44 71.27 93.89 66.10 89.47 C 65.53 91.50 64.97 93.53 64.41 95.56 C 66.00 97.74 67.59 99.92 68.84 102.31 C 69.05 102.80 69.47 103.76 69.69 104.25 C 70.75 106.64 72.05 108.92 73.65 111.00 L 70.43 111.00 C 68.22 108.44 66.24 105.69 64.16 103.03 C 63.46 104.90 62.74 106.76 62.18 108.67 C 62.29 109.25 62.51 110.42 62.62 111.00 L 56.77 111.00 C 54.75 109.61 52.78 108.15 50.78 106.74 C 50.91 108.16 51.04 109.58 51.18 111.00 L 48.71 111.00 C 48.30 109.71 48.26 107.82 46.76 107.31 C 45.25 107.98 46.63 110.18 47.40 111.00 L 41.87 111.00 C 42.09 108.62 42.07 106.18 42.74 103.87 C 47.28 100.76 53.23 100.52 57.58 96.95 C 55.76 96.55 53.93 96.16 52.09 95.86 C 50.08 95.57 48.05 95.38 46.02 95.16 C 38.81 94.11 30.39 94.30 25.15 100.14 C 23.74 101.48 22.38 102.87 21.01 104.24 C 24.42 105.84 28.13 106.88 31.88 105.81 C 33.37 106.00 34.86 106.25 36.33 106.58 C 34.61 107.21 32.90 107.85 31.15 108.38 C 29.75 108.70 28.34 108.98 26.92 109.21 C 24.86 108.76 22.79 108.39 20.75 107.90 C 16.84 106.71 12.89 105.65 8.89 104.81 C 10.42 106.78 11.92 108.77 13.51 110.70 L 13.80 111.00 L 9.93 111.00 C 7.20 107.97 4.17 105.22 1.63 102.02 C 6.34 101.06 11.17 101.49 15.79 102.73 C 9.41 95.73 9.79 82.41 18.72 77.72 C 22.94 75.01 28.54 77.61 32.58 74.57 C 34.04 73.59 34.56 71.81 35.34 70.33 C 33.87 70.13 32.39 69.93 30.91 69.74 C 30.43 70.35 29.48 71.59 29.00 72.20 C 28.38 71.12 27.77 70.03 27.17 68.94 C 17.77 65.61 9.30 60.09 0.00 56.45 L 0.00 50.62 C 9.01 58.68 20.35 65.38 32.80 65.20 C 38.48 68.62 44.67 71.54 51.48 71.47 C 59.11 72.15 66.74 72.83 74.16 74.87 C 74.58 75.22 75.42 75.92 75.84 76.27 C 79.24 79.29 83.75 80.42 87.93 81.91 C 86.47 80.59 85.01 79.27 83.58 77.91 L 85.10 77.70 C 88.32 78.75 91.36 80.29 94.44 81.69 C 94.95 80.56 95.47 79.43 95.98 78.30 C 88.32 73.29 78.94 74.37 70.40 72.39 C 66.80 71.69 63.85 69.37 60.49 68.08 C 53.36 65.36 46.01 62.98 38.40 62.15 C 44.24 64.17 49.42 67.94 55.55 69.12 C 53.75 69.53 51.87 69.46 50.11 68.89 C 44.29 67.16 38.35 65.17 33.57 61.29 C 26.30 55.66 18.39 50.02 8.98 48.99 C 13.37 52.59 19.17 53.91 23.34 57.87 C 22.89 57.89 21.99 57.92 21.54 57.93 C 13.80 55.32 7.59 49.80 0.00 46.86 L 0.00 44.51 C 4.36 46.88 9.45 46.38 14.12 47.65 C 18.80 48.79 23.13 50.93 27.49 52.89 C 27.71 52.26 28.16 51.01 28.38 50.38 C 25.87 50.06 23.37 49.70 20.88 49.21 C 24.36 45.95 28.92 43.91 31.58 39.80 C 30.93 35.81 31.17 31.77 31.93 27.81 C 27.64 32.64 23.81 38.02 22.05 44.32 C 17.74 40.09 18.02 33.54 19.17 28.07 C 21.42 16.93 28.68 7.46 36.95 0.00 M 51.70 30.02 C 50.73 28.23 49.75 26.45 48.64 24.75 C 48.36 26.67 48.13 28.59 47.90 30.52 C 42.16 32.65 37.41 36.88 33.69 41.66 C 31.55 44.32 28.60 46.14 25.86 48.11 C 26.59 48.37 28.04 48.90 28.76 49.16 C 29.72 48.11 30.72 47.09 31.79 46.15 C 31.30 48.89 30.30 51.49 29.27 54.05 C 30.74 54.92 32.18 55.83 33.62 56.74 C 33.33 56.42 32.74 55.76 32.44 55.44 C 32.67 50.16 34.28 44.94 37.85 40.95 C 36.87 43.93 35.71 46.87 35.09 49.97 L 34.80 50.05 C 34.90 50.73 35.11 52.09 35.21 52.77 C 35.14 55.37 35.77 58.39 38.12 59.89 C 40.58 60.88 43.31 60.51 45.89 60.49 C 44.34 57.99 40.44 58.57 39.43 55.36 L 38.94 55.07 C 38.83 54.51 38.60 53.38 38.49 52.82 C 38.73 52.67 39.22 52.36 39.46 52.21 C 40.64 54.83 43.05 56.38 45.90 56.66 C 44.18 54.31 43.01 51.66 42.46 48.80 C 42.54 47.30 42.43 45.81 42.12 44.34 C 42.43 41.46 42.38 38.41 44.08 35.91 C 44.47 38.94 45.13 41.99 47.14 44.38 C 48.38 45.51 49.60 46.67 50.81 47.82 C 52.53 45.50 54.62 43.48 56.93 41.75 C 56.59 41.12 55.92 39.87 55.58 39.24 C 59.38 41.40 63.15 43.91 65.33 47.82 C 65.17 48.92 64.83 51.13 64.66 52.23 C 67.47 49.71 69.57 46.47 71.16 43.08 C 71.30 38.51 67.47 34.73 63.73 32.62 C 61.31 31.43 58.88 30.27 56.53 28.95 C 57.57 28.91 59.67 28.82 60.71 28.77 C 61.97 26.52 63.22 24.26 64.32 21.93 C 59.81 24.13 55.80 27.16 51.70 30.02 M 57.58 42.96 C 57.46 46.21 57.36 49.51 56.37 52.64 C 56.23 54.55 54.03 54.05 53.60 52.46 C 53.42 51.17 53.22 49.88 52.96 48.60 C 51.77 49.69 51.23 51.21 50.73 52.69 L 50.00 52.15 C 50.11 51.30 50.31 49.59 50.41 48.74 C 48.62 48.19 46.84 47.62 45.05 47.07 C 45.26 49.36 45.59 51.64 46.20 53.86 C 47.15 54.66 48.09 55.47 49.03 56.28 L 49.72 55.66 C 49.66 56.14 49.55 57.11 49.50 57.60 C 48.83 57.84 47.50 58.31 46.84 58.55 C 47.97 60.92 50.64 61.42 52.81 62.44 C 54.06 61.19 55.27 59.69 57.26 60.54 C 56.44 60.90 54.79 61.61 53.97 61.97 C 56.89 64.13 60.74 63.44 63.34 61.13 C 64.03 60.53 64.71 59.94 65.40 59.35 C 65.81 57.31 66.24 55.28 66.67 53.25 C 65.49 53.54 64.31 53.83 63.13 54.13 C 62.75 52.02 62.58 49.88 62.47 47.74 C 61.95 47.41 60.90 46.74 60.38 46.40 L 60.58 45.64 C 59.01 45.63 59.09 43.40 57.58 42.96 M 74.62 44.40 C 75.04 45.87 75.43 47.36 75.82 48.84 C 75.99 48.82 76.34 48.77 76.51 48.74 L 76.24 47.41 L 77.48 47.49 L 77.37 46.36 L 78.51 46.56 L 78.50 45.70 C 79.74 44.90 81.05 44.21 82.27 43.36 C 79.67 43.19 77.05 43.44 74.62 44.40 M 72.60 43.81 C 71.28 46.65 69.96 49.49 68.89 52.43 C 68.84 57.33 66.97 61.99 67.07 66.91 C 70.55 62.95 72.10 57.82 72.66 52.66 L 73.16 52.69 C 73.46 49.72 73.64 46.66 72.60 43.81 M 54.94 49.20 C 54.08 50.42 54.30 51.17 55.62 51.44 C 56.48 50.21 56.26 49.46 54.94 49.20 M 61.83 64.14 C 62.53 66.57 63.77 68.81 66.36 69.58 C 65.87 67.18 65.37 64.79 64.97 62.37 C 63.92 62.96 62.88 63.55 61.83 64.14 M 68.01 69.35 C 68.74 69.42 70.19 69.54 70.92 69.60 C 71.79 70.06 72.66 70.51 73.54 70.96 C 73.46 70.31 73.28 69.01 73.20 68.37 L 74.35 68.19 C 74.59 68.78 75.09 69.97 75.34 70.56 C 78.74 71.12 82.17 71.51 85.59 71.88 C 83.73 69.51 80.84 68.45 78.03 67.70 C 76.42 67.58 74.80 67.52 73.19 67.49 C 72.47 66.70 71.73 65.94 70.97 65.20 C 69.27 65.94 68.58 67.73 68.01 69.35 M 38.13 73.03 C 38.18 73.54 38.28 74.57 38.33 75.08 C 35.44 76.81 32.69 79.21 29.18 79.46 C 25.67 80.00 21.47 78.84 18.62 81.55 C 13.92 85.27 14.01 91.99 15.47 97.28 C 16.90 95.50 18.24 93.66 19.73 91.94 C 23.58 89.88 28.27 88.78 32.04 91.65 C 33.95 91.46 35.85 91.27 37.74 90.97 C 40.39 91.07 43.04 91.17 45.68 91.25 C 48.13 91.62 50.58 91.97 53.03 92.30 C 55.03 92.88 57.02 93.48 59.02 94.09 C 60.52 93.38 62.04 92.69 63.56 92.01 C 64.02 87.97 62.06 84.42 59.42 81.56 C 57.19 79.33 56.64 75.13 53.20 74.43 C 49.68 74.56 46.19 74.13 42.69 73.90 L 42.49 73.66 C 41.04 73.46 39.58 73.24 38.13 73.03 M 58.44 74.85 C 59.68 78.63 62.45 81.69 65.43 84.20 C 70.06 89.79 75.75 94.71 82.05 98.35 C 91.48 94.37 99.90 87.63 110.40 86.56 C 110.04 86.23 109.32 85.56 108.95 85.23 C 105.88 86.49 102.05 86.67 100.04 83.53 C 94.62 84.88 89.73 87.79 84.24 88.87 C 84.67 89.79 85.10 90.72 85.52 91.65 C 83.18 90.35 80.83 88.98 78.91 87.08 C 76.18 84.37 72.71 82.63 69.49 80.59 L 68.96 80.54 C 66.53 77.26 62.40 75.49 58.44 74.85 M 98.18 77.95 C 97.43 79.19 96.87 80.53 96.50 81.95 C 97.73 81.08 98.91 80.13 100.03 79.11 C 101.97 80.97 102.84 84.48 106.05 84.35 C 106.51 84.26 107.42 84.09 107.87 84.00 C 110.34 84.96 110.56 79.52 108.04 81.49 C 107.48 80.75 106.93 80.00 106.38 79.25 C 103.90 78.01 100.93 77.17 98.18 77.95 M 73.55 79.74 C 75.83 82.12 78.48 84.09 81.13 86.01 C 81.04 84.69 80.95 83.37 80.86 82.06 C 78.53 80.98 76.11 80.08 73.55 79.74 M 104.27 90.07 C 104.65 93.39 107.14 88.34 104.27 90.07 M 89.64 97.72 C 90.96 99.55 92.31 101.35 93.72 103.11 C 96.33 99.28 100.49 96.53 102.05 92.02 C 97.45 92.67 93.49 95.29 89.64 97.72 M 16.42 103.15 C 18.67 104.11 19.25 101.54 20.37 100.35 C 22.29 97.23 25.36 95.18 28.18 92.97 C 21.99 92.25 18.16 98.06 16.42 103.15 M 61.63 96.17 C 61.23 97.70 63.16 99.81 64.72 99.51 C 65.25 97.98 63.23 95.59 61.63 96.17 M 50.75 104.07 C 54.83 104.39 59.52 102.43 61.43 98.66 C 57.41 99.29 53.98 101.73 50.75 104.07 M 84.61 102.97 C 86.39 103.04 88.17 103.11 89.95 103.17 C 89.06 101.42 88.07 99.72 86.99 98.08 C 85.42 99.29 84.80 101.06 84.61 102.97 Z" />
<path fill="#a0825f" opacity="1.00" d=" M 40.91 0.00 L 43.51 0.00 C 36.43 5.80 30.13 13.15 27.38 22.02 C 26.02 22.47 24.67 22.93 23.30 23.39 C 26.76 14.18 32.31 5.19 40.91 0.00 Z" />
<path fill="#6e5248" opacity="1.00" d=" M 58.81 0.00 L 63.13 0.00 C 58.58 4.94 54.34 10.59 53.01 17.33 C 51.69 17.44 50.38 17.56 49.06 17.64 C 50.24 14.62 51.52 11.53 51.39 8.23 C 53.64 5.29 56.18 2.59 58.81 0.00 Z" />
<path fill="#7f624f" opacity="1.00" d=" M 57.81 20.29 C 63.97 15.89 70.07 11.22 77.22 8.52 C 72.44 14.22 65.34 17.02 59.58 21.53 C 59.14 21.22 58.25 20.60 57.81 20.29 Z" />
<path fill="#a0825f" opacity="1.00" d=" M 45.54 16.20 C 47.36 13.46 49.41 10.86 51.39 8.23 C 51.52 11.53 50.24 14.62 49.06 17.64 C 48.35 17.64 46.93 17.66 46.22 17.66 C 46.05 17.30 45.71 16.57 45.54 16.20 Z" />
<path fill="#5b403f" opacity="1.00" d=" M 46.27 23.90 C 45.76 21.38 44.78 18.77 45.54 16.20 C 45.71 16.57 46.05 17.30 46.22 17.66 C 46.93 17.66 48.35 17.64 49.06 17.64 C 50.38 17.56 51.69 17.44 53.01 17.33 C 52.66 19.59 52.48 21.88 52.34 24.16 C 54.19 22.91 55.98 21.57 57.81 20.29 C 58.25 20.60 59.14 21.22 59.58 21.53 C 57.35 23.22 55.10 24.89 52.84 26.53 C 51.62 24.84 50.36 23.19 49.12 21.53 C 48.17 22.32 47.22 23.11 46.27 23.90 Z" />
<path fill="#f8f9f9" opacity="1.00" d=" M 71.05 24.84 C 77.02 23.51 81.70 19.34 87.24 16.99 C 86.33 18.81 85.34 20.58 84.44 22.40 C 79.47 24.68 75.07 28.05 69.87 29.85 C 69.09 28.91 68.31 27.97 67.52 27.03 C 68.43 25.90 69.58 25.03 71.05 24.84 Z" />
<path fill="#694e46" opacity="1.00" d=" M 23.30 23.39 C 24.67 22.93 26.02 22.47 27.38 22.02 C 27.25 23.23 27.13 24.44 27.03 25.65 C 30.01 23.69 33.25 22.19 36.66 21.15 C 34.37 25.85 34.70 31.12 34.43 36.20 C 34.16 32.11 34.34 28.01 34.52 23.92 C 28.20 26.81 23.88 32.69 21.94 39.25 C 20.99 33.94 21.53 28.47 23.30 23.39 Z" />
<path fill="#9fb0b2" opacity="1.00" d=" M 51.70 30.02 C 55.80 27.16 59.81 24.13 64.32 21.93 C 63.22 24.26 61.97 26.52 60.71 28.77 C 59.67 28.82 57.57 28.91 56.53 28.95 C 58.88 30.27 61.31 31.43 63.73 32.62 C 61.92 33.34 60.15 34.16 58.38 34.97 C 55.14 32.95 51.53 31.66 47.90 30.52 C 48.13 28.59 48.36 26.67 48.64 24.75 C 49.75 26.45 50.73 28.23 51.70 30.02 Z" />
<path fill="#889da0" opacity="1.00" d=" M 69.87 29.85 C 75.07 28.05 79.47 24.68 84.44 22.40 C 84.13 23.73 83.84 25.06 83.57 26.40 C 80.45 28.42 77.45 30.66 75.02 33.49 C 75.32 33.80 75.91 34.40 76.20 34.70 C 75.70 36.44 74.49 38.38 75.59 40.15 C 76.84 41.12 78.58 40.92 80.06 41.14 C 77.98 41.45 75.87 41.55 73.77 41.67 C 72.32 36.93 68.99 33.17 64.94 30.43 C 65.79 29.30 66.64 28.15 67.52 27.03 C 68.31 27.97 69.09 28.91 69.87 29.85 Z" />
<path fill="#f0f3f4" opacity="1.00" d=" M 94.88 27.86 C 100.40 26.93 105.79 25.28 111.00 23.25 L 111.00 37.52 C 105.87 37.96 100.63 38.23 95.71 39.87 C 94.44 40.26 93.71 41.45 92.84 42.36 C 98.87 44.71 104.79 47.34 111.00 49.19 L 111.00 53.93 C 109.28 55.63 107.69 57.47 106.34 59.48 C 104.17 58.75 101.97 58.12 99.72 57.70 C 98.36 56.33 96.93 55.05 95.58 53.68 C 94.91 52.63 94.28 51.56 93.63 50.50 C 92.03 47.81 89.34 46.17 86.43 45.23 C 86.28 44.63 85.98 43.42 85.83 42.82 C 86.25 41.94 86.64 41.04 86.99 40.13 C 85.15 40.09 83.34 40.44 81.56 40.86 C 80.78 37.96 81.92 35.38 84.10 33.46 C 84.50 31.42 85.11 29.43 85.98 27.54 C 88.80 28.78 91.94 28.28 94.88 27.86 Z" />
<path fill="#b8c5c7" opacity="1.00" d=" M 75.02 33.49 C 77.45 30.66 80.45 28.42 83.57 26.40 C 84.17 26.68 85.38 27.25 85.98 27.54 C 85.11 29.43 84.50 31.42 84.10 33.46 C 81.92 35.38 80.78 37.96 81.56 40.86 C 81.18 40.93 80.44 41.07 80.06 41.14 C 78.58 40.92 76.84 41.12 75.59 40.15 C 74.49 38.38 75.70 36.44 76.20 34.70 C 75.91 34.40 75.32 33.80 75.02 33.49 Z" />
<path fill="#fcfcfa" opacity="1.00" d=" M 33.69 41.66 C 37.41 36.88 42.16 32.65 47.90 30.52 C 51.53 31.66 55.14 32.95 58.38 34.97 C 58.83 35.25 59.71 35.79 60.15 36.06 C 58.89 36.94 57.63 37.82 56.36 38.70 C 54.60 38.62 52.84 38.55 51.07 38.50 C 51.50 39.12 52.36 40.34 52.79 40.95 C 50.91 42.10 49.03 43.25 47.14 44.38 C 45.13 41.99 44.47 38.94 44.08 35.91 C 42.38 38.41 42.43 41.46 42.12 44.34 C 41.53 45.75 40.89 47.15 40.26 48.54 C 38.54 49.02 36.82 49.50 35.09 49.97 C 35.71 46.87 36.87 43.93 37.85 40.95 C 34.28 44.94 32.67 50.16 32.44 55.44 C 32.74 55.76 33.33 56.42 33.62 56.74 C 32.18 55.83 30.74 54.92 29.27 54.05 C 30.30 51.49 31.30 48.89 31.79 46.15 C 30.72 47.09 29.72 48.11 28.76 49.16 C 28.04 48.90 26.59 48.37 25.86 48.11 C 28.60 46.14 31.55 44.32 33.69 41.66 Z" />
<path fill="#899ea1" opacity="1.00" d=" M 63.73 32.62 C 67.47 34.73 71.30 38.51 71.16 43.08 C 69.57 46.47 67.47 49.71 64.66 52.23 C 64.83 51.13 65.17 48.92 65.33 47.82 C 63.15 43.91 59.38 41.40 55.58 39.24 C 55.92 39.87 56.59 41.12 56.93 41.75 C 54.62 43.48 52.53 45.50 50.81 47.82 C 49.60 46.67 48.38 45.51 47.14 44.38 C 49.03 43.25 50.91 42.10 52.79 40.95 C 52.36 40.34 51.50 39.12 51.07 38.50 C 52.84 38.55 54.60 38.62 56.36 38.70 C 57.63 37.82 58.89 36.94 60.15 36.06 C 59.71 35.79 58.83 35.25 58.38 34.97 C 60.15 34.16 61.92 33.34 63.73 32.62 Z" />
<path fill="#bfcbcc" opacity="1.00" d=" M 95.71 39.87 C 100.63 38.23 105.87 37.96 111.00 37.52 L 111.00 49.19 C 104.79 47.34 98.87 44.71 92.84 42.36 C 93.71 41.45 94.44 40.26 95.71 39.87 Z" />
<path fill="#c7dbdb" opacity="1.00" d=" M 57.58 42.96 C 59.09 43.40 59.01 45.63 60.58 45.64 L 60.38 46.40 C 60.90 46.74 61.95 47.41 62.47 47.74 C 62.58 49.88 62.75 52.02 63.13 54.13 C 63.51 56.44 63.44 58.80 63.34 61.13 C 60.74 63.44 56.89 64.13 53.97 61.97 C 54.79 61.61 56.44 60.90 57.26 60.54 C 55.27 59.69 54.06 61.19 52.81 62.44 C 50.64 61.42 47.97 60.92 46.84 58.55 C 47.50 58.31 48.83 57.84 49.50 57.60 C 49.55 57.11 49.66 56.14 49.72 55.66 C 50.95 54.51 52.26 53.47 53.60 52.46 C 54.03 54.05 56.23 54.55 56.37 52.64 C 57.36 49.51 57.46 46.21 57.58 42.96 M 60.34 56.18 C 58.93 56.40 57.84 58.29 58.55 59.56 C 60.18 60.39 62.61 56.63 60.34 56.18 Z" />
<path fill="#bdd1d3" opacity="1.00" d=" M 74.62 44.40 C 77.05 43.44 79.67 43.19 82.27 43.36 C 81.05 44.21 79.74 44.90 78.50 45.70 L 78.51 46.56 L 77.37 46.36 L 77.48 47.49 L 76.24 47.41 L 76.51 48.74 C 76.34 48.77 75.99 48.82 75.82 48.84 C 75.43 47.36 75.04 45.87 74.62 44.40 Z" />
<path fill="#d8dcde" opacity="1.00" d=" M 82.75 45.39 C 83.76 44.52 84.81 43.68 85.83 42.82 C 85.98 43.42 86.28 44.63 86.43 45.23 C 89.34 46.17 92.03 47.81 93.63 50.50 C 93.55 52.89 93.21 55.28 92.42 57.54 C 90.31 54.79 87.82 52.36 85.58 49.72 C 84.56 48.32 83.67 46.85 82.75 45.39 Z" />
<path fill="#8ca1a4" opacity="1.00" d=" M 72.60 43.81 C 73.64 46.66 73.46 49.72 73.16 52.69 L 72.66 52.66 C 71.72 52.61 69.83 52.49 68.89 52.43 C 69.96 49.49 71.28 46.65 72.60 43.81 Z" />
<path fill="#b3c1c5" opacity="1.00" d=" M 40.26 48.54 C 40.89 47.15 41.53 45.75 42.12 44.34 C 42.43 45.81 42.54 47.30 42.46 48.80 C 42.21 49.45 41.69 50.75 41.44 51.41 C 40.25 50.82 39.06 50.25 37.87 49.68 C 38.08 50.73 38.29 51.77 38.49 52.82 C 38.60 53.38 38.83 54.51 38.94 55.07 C 37.69 54.32 36.42 53.59 35.21 52.77 C 35.11 52.09 34.90 50.73 34.80 50.05 L 35.09 49.97 C 36.82 49.50 38.54 49.02 40.26 48.54 Z" />
<path fill="#b7c0c3" opacity="1.00" d=" M 79.40 48.48 C 80.51 47.44 81.61 46.39 82.75 45.39 C 83.67 46.85 84.56 48.32 85.58 49.72 C 84.91 50.53 84.26 51.35 83.61 52.17 C 82.19 50.96 80.80 49.72 79.40 48.48 Z" />
<path fill="#a48760" opacity="1.00" d=" M 0.00 46.86 C 7.59 49.80 13.80 55.32 21.54 57.93 C 22.07 58.30 23.11 59.04 23.64 59.41 C 23.70 60.08 23.82 61.42 23.88 62.09 C 14.97 59.93 8.56 52.76 0.00 49.75 L 0.00 46.86 Z" />
<path fill="#536a7f" opacity="1.00" d=" M 45.05 47.07 C 46.84 47.62 48.62 48.19 50.41 48.74 C 50.31 49.59 50.11 51.30 50.00 52.15 C 49.51 51.77 48.52 51.03 48.02 50.66 C 47.42 51.73 46.81 52.79 46.20 53.86 C 45.59 51.64 45.26 49.36 45.05 47.07 Z" />
<path fill="#848e94" opacity="1.00" d=" M 76.46 51.19 C 77.44 50.29 78.43 49.38 79.40 48.48 C 80.80 49.72 82.19 50.96 83.61 52.17 L 83.22 52.70 C 86.91 60.31 92.85 67.11 94.08 75.75 C 89.87 74.20 87.19 70.58 85.09 66.82 C 82.22 61.60 79.16 56.49 76.46 51.19 Z" />
<path fill="#7f624f" opacity="1.00" d=" M 8.98 48.99 C 18.39 50.02 26.30 55.66 33.57 61.29 C 38.35 65.17 44.29 67.16 50.11 68.89 C 51.87 69.46 53.75 69.53 55.55 69.12 C 57.21 68.82 58.83 68.39 60.49 68.08 C 63.85 69.37 66.80 71.69 70.40 72.39 C 78.94 74.37 88.32 73.29 95.98 78.30 C 95.47 79.43 94.95 80.56 94.44 81.69 C 91.36 80.29 88.32 78.75 85.10 77.70 C 82.11 76.72 78.96 76.45 75.84 76.27 C 75.42 75.92 74.58 75.22 74.16 74.87 C 66.74 72.83 59.11 72.15 51.48 71.47 C 48.14 68.89 44.00 67.92 40.04 66.74 C 36.07 65.61 33.34 62.17 29.47 60.81 C 27.34 60.04 25.25 59.11 23.34 57.87 C 19.17 53.91 13.37 52.59 8.98 48.99 Z" />
<path fill="#667c83" opacity="1.00" d=" M 42.46 48.80 C 43.01 51.66 44.18 54.31 45.90 56.66 C 43.05 56.38 40.64 54.83 39.46 52.21 C 39.22 52.36 38.73 52.67 38.49 52.82 C 38.29 51.77 38.08 50.73 37.87 49.68 C 39.06 50.25 40.25 50.82 41.44 51.41 C 41.69 50.75 42.21 49.45 42.46 48.80 Z" />
<path fill="#80949d" opacity="1.00" d=" M 50.73 52.69 C 51.23 51.21 51.77 49.69 52.96 48.60 C 53.22 49.88 53.42 51.17 53.60 52.46 C 52.26 53.47 50.95 54.51 49.72 55.66 L 49.03 56.28 C 48.09 55.47 47.15 54.66 46.20 53.86 C 46.81 52.79 47.42 51.73 48.02 50.66 C 48.52 51.03 49.51 51.77 50.00 52.15 L 50.73 52.69 Z" />
<path fill="#882c4d" opacity="1.00" d=" M 54.94 49.20 C 56.26 49.46 56.48 50.21 55.62 51.44 C 54.30 51.17 54.08 50.42 54.94 49.20 Z" />
<path fill="#503736" opacity="1.00" d=" M 0.00 49.75 C 8.56 52.76 14.97 59.93 23.88 62.09 C 23.82 61.42 23.70 60.08 23.64 59.41 C 23.11 59.04 22.07 58.30 21.54 57.93 C 21.99 57.92 22.89 57.89 23.34 57.87 C 25.25 59.11 27.34 60.04 29.47 60.81 C 33.34 62.17 36.07 65.61 40.04 66.74 C 44.00 67.92 48.14 68.89 51.48 71.47 C 44.67 71.54 38.48 68.62 32.80 65.20 C 20.35 65.38 9.01 58.68 0.00 50.62 L 0.00 49.75 Z" />
<path fill="#929ba0" opacity="1.00" d=" M 83.61 52.17 C 84.26 51.35 84.91 50.53 85.58 49.72 C 87.82 52.36 90.31 54.79 92.42 57.54 C 96.75 63.87 101.73 69.77 105.70 76.32 C 104.65 75.93 103.59 75.57 102.52 75.24 C 97.57 66.61 90.87 59.03 83.22 52.70 L 83.61 52.17 Z" />
<path fill="#3a4a53" opacity="1.00" d=" M 75.33 52.22 C 75.61 51.96 76.18 51.45 76.46 51.19 C 79.16 56.49 82.22 61.60 85.09 66.82 C 82.53 66.43 79.96 66.05 77.38 65.91 C 76.31 63.33 75.13 60.79 73.82 58.32 C 74.47 56.32 74.89 54.27 75.33 52.22 Z" />
<path fill="#bbc1c4" opacity="1.00" d=" M 92.42 57.54 C 93.21 55.28 93.55 52.89 93.63 50.50 C 94.28 51.56 94.91 52.63 95.58 53.68 C 99.22 61.79 107.22 68.12 107.66 77.58 C 107.17 77.26 106.19 76.63 105.70 76.32 C 101.73 69.77 96.75 63.87 92.42 57.54 Z" />
<path fill="#6b8995" opacity="1.00" d=" M 35.21 52.77 C 36.42 53.59 37.69 54.32 38.94 55.07 L 39.43 55.36 C 40.44 58.57 44.34 57.99 45.89 60.49 C 43.31 60.51 40.58 60.88 38.12 59.89 C 35.77 58.39 35.14 55.37 35.21 52.77 Z" />
<path fill="#8192a0" opacity="1.00" d=" M 63.13 54.13 C 64.31 53.83 65.49 53.54 66.67 53.25 C 66.24 55.28 65.81 57.31 65.40 59.35 C 64.71 59.94 64.03 60.53 63.34 61.13 C 63.44 58.80 63.51 56.44 63.13 54.13 Z" />
<path fill="#f1f3f4" opacity="1.00" d=" M 67.07 66.91 C 66.97 61.99 68.84 57.33 68.89 52.43 C 69.83 52.49 71.72 52.61 72.66 52.66 C 72.10 57.82 70.55 62.95 67.07 66.91 Z" />
<path fill="#4e5d65" opacity="1.00" d=" M 94.08 75.75 C 92.85 67.11 86.91 60.31 83.22 52.70 C 90.87 59.03 97.57 66.61 102.52 75.24 C 99.67 74.95 96.83 77.03 94.08 75.75 Z" />
<path fill="#43535c" opacity="1.00" d=" M 107.66 77.58 C 107.22 68.12 99.22 61.79 95.58 53.68 C 96.93 55.05 98.36 56.33 99.72 57.70 C 101.10 59.17 102.42 60.71 103.69 62.28 C 106.07 65.39 108.75 68.26 111.00 71.47 L 111.00 80.33 C 109.92 79.37 108.81 78.45 107.66 77.58 Z" />
<path fill="#e0e5e6" opacity="1.00" d=" M 106.34 59.48 C 107.69 57.47 109.28 55.63 111.00 53.93 L 111.00 65.10 C 108.73 62.98 106.18 61.18 103.60 59.46 C 103.63 60.16 103.67 61.58 103.69 62.28 C 102.42 60.71 101.10 59.17 99.72 57.70 C 101.97 58.12 104.17 58.75 106.34 59.48 Z" />
<path fill="#000000" opacity="1.00" d=" M 60.34 56.18 C 62.61 56.63 60.18 60.39 58.55 59.56 C 57.84 58.29 58.93 56.40 60.34 56.18 Z" />
<path fill="#4b5a61" opacity="1.00" d=" M 73.82 58.32 C 75.13 60.79 76.31 63.33 77.38 65.91 C 76.50 65.95 74.73 66.02 73.85 66.06 C 71.70 63.68 72.55 60.89 73.82 58.32 Z" />
<path fill="#8da0a3" opacity="1.00" d=" M 103.60 59.46 C 106.18 61.18 108.73 62.98 111.00 65.10 L 111.00 71.47 C 108.75 68.26 106.07 65.39 103.69 62.28 C 103.67 61.58 103.63 60.16 103.60 59.46 Z" />
<path fill="#c0aa6e" opacity="1.00" d=" M 38.40 62.15 C 46.01 62.98 53.36 65.36 60.49 68.08 C 58.83 68.39 57.21 68.82 55.55 69.12 C 49.42 67.94 44.24 64.17 38.40 62.15 Z" />
<path fill="#3d4a5d" opacity="1.00" d=" M 61.83 64.14 C 62.88 63.55 63.92 62.96 64.97 62.37 C 65.37 64.79 65.87 67.18 66.36 69.58 C 63.77 68.81 62.53 66.57 61.83 64.14 Z" />
<path fill="#869b93" opacity="1.00" d=" M 68.01 69.35 C 68.58 67.73 69.27 65.94 70.97 65.20 C 71.73 65.94 72.47 66.70 73.19 67.49 C 74.80 67.52 76.42 67.58 78.03 67.70 C 76.80 67.84 75.57 68.01 74.35 68.19 L 73.20 68.37 C 73.28 69.01 73.46 70.31 73.54 70.96 C 72.66 70.51 71.79 70.06 70.92 69.60 C 70.19 69.54 68.74 69.42 68.01 69.35 Z" />
<path fill="#c7dbdb" opacity="1.00" d=" M 74.35 68.19 C 75.57 68.01 76.80 67.84 78.03 67.70 C 80.84 68.45 83.73 69.51 85.59 71.88 C 82.17 71.51 78.74 71.12 75.34 70.56 C 75.09 69.97 74.59 68.78 74.35 68.19 Z" />
<path fill="#4f636a" opacity="1.00" d=" M 38.13 73.03 C 39.58 73.24 41.04 73.46 42.49 73.66 L 42.69 73.90 C 44.15 75.86 46.27 77.51 47.01 79.90 C 46.83 83.31 45.63 86.84 43.29 89.38 C 41.63 90.41 39.61 90.57 37.74 90.97 C 35.85 91.27 33.95 91.46 32.04 91.65 C 28.27 88.78 23.58 89.88 19.73 91.94 C 23.17 87.06 30.08 88.01 34.51 84.57 C 36.70 81.94 38.46 78.60 38.33 75.08 C 38.28 74.57 38.18 73.54 38.13 73.03 Z" />
<path fill="#41535b" opacity="1.00" d=" M 42.69 73.90 C 46.19 74.13 49.68 74.56 53.20 74.43 C 54.87 78.17 55.43 82.28 54.25 86.25 C 54.09 84.11 53.83 81.98 53.60 79.84 C 52.17 80.17 50.10 79.60 49.45 81.34 C 47.74 84.45 46.87 87.93 45.68 91.25 C 43.04 91.17 40.39 91.07 37.74 90.97 C 39.61 90.57 41.63 90.41 43.29 89.38 C 45.63 86.84 46.83 83.31 47.01 79.90 C 46.27 77.51 44.15 75.86 42.69 73.90 Z" />
<path fill="#eef2f4" opacity="1.00" d=" M 29.18 79.46 C 32.69 79.21 35.44 76.81 38.33 75.08 C 38.46 78.60 36.70 81.94 34.51 84.57 C 30.08 88.01 23.17 87.06 19.73 91.94 C 18.24 93.66 16.90 95.50 15.47 97.28 C 14.01 91.99 13.92 85.27 18.62 81.55 C 21.47 78.84 25.67 80.00 29.18 79.46 Z" />
<path fill="#33424c" opacity="1.00" d=" M 53.20 74.43 C 56.64 75.13 57.19 79.33 59.42 81.56 C 62.06 84.42 64.02 87.97 63.56 92.01 C 62.04 92.69 60.52 93.38 59.02 94.09 C 57.02 93.48 55.03 92.88 53.03 92.30 C 53.45 90.28 53.90 88.27 54.25 86.25 C 55.43 82.28 54.87 78.17 53.20 74.43 Z" />
<path fill="#4e5f75" opacity="1.00" d=" M 58.44 74.85 C 62.40 75.49 66.53 77.26 68.96 80.54 C 67.67 80.41 66.39 80.29 65.10 80.16 C 65.20 81.51 65.31 82.85 65.43 84.20 C 62.45 81.69 59.68 78.63 58.44 74.85 Z" />
<path fill="#3e2d29" opacity="1.00" d=" M 75.84 76.27 C 78.96 76.45 82.11 76.72 85.10 77.70 L 83.58 77.91 C 85.01 79.27 86.47 80.59 87.93 81.91 C 83.75 80.42 79.24 79.29 75.84 76.27 Z" />
<path fill="#c5d9da" opacity="1.00" d=" M 98.18 77.95 C 100.93 77.17 103.90 78.01 106.38 79.25 L 106.76 81.25 C 105.97 80.76 104.38 79.80 103.59 79.32 C 103.98 81.19 104.82 82.90 106.05 84.35 C 102.84 84.48 101.97 80.97 100.03 79.11 C 98.91 80.13 97.73 81.08 96.50 81.95 C 96.87 80.53 97.43 79.19 98.18 77.95 Z" />
<path fill="#41535b" opacity="1.00" d=" M 106.38 79.25 C 106.93 80.00 107.48 80.75 108.04 81.49 C 108.00 82.12 107.91 83.37 107.87 84.00 C 107.42 84.09 106.51 84.26 106.05 84.35 C 104.82 82.90 103.98 81.19 103.59 79.32 C 104.38 79.80 105.97 80.76 106.76 81.25 L 106.38 79.25 Z" />
<path fill="#52686e" opacity="1.00" d=" M 49.45 81.34 C 50.10 79.60 52.17 80.17 53.60 79.84 C 53.83 81.98 54.09 84.11 54.25 86.25 C 53.90 88.27 53.45 90.28 53.03 92.30 C 50.58 91.97 48.13 91.62 45.68 91.25 C 46.87 87.93 47.74 84.45 49.45 81.34 Z" />
<path fill="#c7dbdb" opacity="1.00" d=" M 65.10 80.16 C 66.39 80.29 67.67 80.41 68.96 80.54 L 69.49 80.59 C 72.71 82.63 76.18 84.37 78.91 87.08 C 80.83 88.98 83.18 90.35 85.52 91.65 C 85.10 90.72 84.67 89.79 84.24 88.87 C 89.73 87.79 94.62 84.88 100.04 83.53 C 102.05 86.67 105.88 86.49 108.95 85.23 C 109.32 85.56 110.04 86.23 110.40 86.56 C 99.90 87.63 91.48 94.37 82.05 98.35 C 75.75 94.71 70.06 89.79 65.43 84.20 C 65.31 82.85 65.20 81.51 65.10 80.16 Z" />
<path fill="#202d3a" opacity="1.00" d=" M 73.55 79.74 C 76.11 80.08 78.53 80.98 80.86 82.06 C 80.95 83.37 81.04 84.69 81.13 86.01 C 78.48 84.09 75.83 82.12 73.55 79.74 Z" />
<path fill="#99a8a8" opacity="1.00" d=" M 108.04 81.49 C 110.56 79.52 110.34 84.96 107.87 84.00 C 107.91 83.37 108.00 82.12 108.04 81.49 Z" />
<path fill="#2c3e4c" opacity="1.00" d=" M 66.10 89.47 C 71.27 93.89 75.98 99.44 83.02 100.81 C 82.38 102.13 81.76 103.45 81.03 104.72 C 81.11 104.26 81.27 103.36 81.35 102.90 C 79.39 101.91 77.38 101.01 75.50 99.87 C 72.85 98.09 70.24 96.24 67.91 94.05 C 68.08 96.82 68.25 99.60 68.84 102.31 C 67.59 99.92 66.00 97.74 64.41 95.56 C 64.97 93.53 65.53 91.50 66.10 89.47 Z" />
<path fill="#312121" opacity="1.00" d=" M 104.27 90.07 C 107.14 88.34 104.65 93.39 104.27 90.07 Z" />
<path fill="#5c7386" opacity="1.00" d=" M 89.64 97.72 C 93.49 95.29 97.45 92.67 102.05 92.02 C 100.49 96.53 96.33 99.28 93.72 103.11 C 92.31 101.35 90.96 99.55 89.64 97.72 Z" />
<path fill="#3b2a27" opacity="1.00" d=" M 107.25 92.65 C 107.69 91.09 110.01 92.00 111.00 92.53 L 111.00 93.78 C 109.72 94.02 107.95 93.96 107.25 92.65 Z" />
<path fill="#4a605b" opacity="1.00" d=" M 67.91 94.05 C 70.24 96.24 72.85 98.09 75.50 99.87 C 75.11 100.32 74.33 101.23 73.94 101.68 C 73.34 101.27 72.74 100.86 72.15 100.45 C 71.61 100.59 70.55 100.86 70.02 101.00 C 69.93 101.81 69.77 103.44 69.69 104.25 C 69.47 103.76 69.05 102.80 68.84 102.31 C 68.25 99.60 68.08 96.82 67.91 94.05 Z" />
<path fill="#3a4b54" opacity="1.00" d=" M 94.97 105.13 C 98.77 101.69 102.35 97.98 105.05 93.59 C 107.05 94.38 109.05 95.15 111.00 96.05 L 111.00 109.81 C 109.01 109.86 107.02 109.94 105.03 109.88 C 101.10 109.98 98.22 106.87 94.97 105.13 Z" />
<path fill="#cb6ca6" opacity="1.00" d=" M 25.15 100.14 C 30.39 94.30 38.81 94.11 46.02 95.16 C 46.20 96.28 46.39 97.41 46.58 98.54 C 46.18 98.91 45.37 99.65 44.97 100.03 C 38.64 99.87 32.43 101.27 26.13 101.44 L 25.15 100.14 Z" />
<path fill="#a75390" opacity="1.00" d=" M 46.02 95.16 C 48.05 95.38 50.08 95.57 52.09 95.86 C 52.22 96.42 52.48 97.53 52.61 98.09 C 50.20 99.19 47.65 100.03 44.97 100.03 C 45.37 99.65 46.18 98.91 46.58 98.54 C 46.39 97.41 46.20 96.28 46.02 95.16 Z" />
<path fill="#67296a" opacity="1.00" d=" M 52.09 95.86 C 53.93 96.16 55.76 96.55 57.58 96.95 C 53.23 100.52 47.28 100.76 42.74 103.87 C 42.07 106.18 42.09 108.62 41.87 111.00 L 41.87 111.00 C 40.21 109.31 38.47 107.64 36.33 106.58 C 34.86 106.25 33.37 106.00 31.88 105.81 C 33.67 105.34 35.44 104.77 37.21 104.21 C 33.77 103.33 30.24 102.91 26.76 102.24 C 26.60 102.04 26.29 101.64 26.13 101.44 C 32.43 101.27 38.64 99.87 44.97 100.03 C 47.65 100.03 50.20 99.19 52.61 98.09 C 52.48 97.53 52.22 96.42 52.09 95.86 Z" />
<path fill="#161334" opacity="1.00" d=" M 61.63 96.17 C 63.23 95.59 65.25 97.98 64.72 99.51 C 63.16 99.81 61.23 97.70 61.63 96.17 Z" />
<path fill="#11112d" opacity="1.00" d=" M 50.75 104.07 C 53.98 101.73 57.41 99.29 61.43 98.66 C 59.52 102.43 54.83 104.39 50.75 104.07 Z" />
<path fill="#4a5f64" opacity="1.00" d=" M 84.61 102.97 C 84.80 101.06 85.42 99.29 86.99 98.08 C 88.07 99.72 89.06 101.42 89.95 103.17 C 88.17 103.11 86.39 103.04 84.61 102.97 Z" />
<path fill="#ab5997" opacity="1.00" d=" M 21.01 104.24 C 22.38 102.87 23.74 101.48 25.15 100.14 L 26.13 101.44 C 26.29 101.64 26.60 102.04 26.76 102.24 C 30.24 102.91 33.77 103.33 37.21 104.21 C 35.44 104.77 33.67 105.34 31.88 105.81 C 28.13 106.88 24.42 105.84 21.01 104.24 Z" />
<path fill="#6b8366" opacity="1.00" d=" M 72.15 100.45 C 72.74 100.86 73.34 101.27 73.94 101.68 C 74.33 101.23 75.11 100.32 75.50 99.87 C 77.38 101.01 79.39 101.91 81.35 102.90 C 81.27 103.36 81.11 104.26 81.03 104.72 C 79.75 106.80 78.38 108.83 77.22 111.00 L 73.65 111.00 C 72.05 108.92 70.75 106.64 69.69 104.25 C 69.77 103.44 69.93 101.81 70.02 101.00 C 70.55 100.86 71.61 100.59 72.15 100.45 Z" />
<path fill="#372657" opacity="1.00" d=" M 64.16 103.03 C 66.24 105.69 68.22 108.44 70.43 111.00 L 67.41 111.00 C 66.16 110.18 64.95 109.30 63.74 108.43 C 63.35 108.49 62.57 108.61 62.18 108.67 C 62.74 106.76 63.46 104.90 64.16 103.03 Z" />
<path fill="#f19ae1" opacity="1.00" d=" M 8.89 104.81 C 12.89 105.65 16.84 106.71 20.75 107.90 C 18.58 109.40 16.05 110.14 13.51 110.70 C 11.92 108.77 10.42 106.78 8.89 104.81 Z" />
<path fill="#8e4282" opacity="1.00" d=" M 31.15 108.38 C 32.90 107.85 34.61 107.21 36.33 106.58 C 38.47 107.64 40.21 109.31 41.87 111.00 L 35.74 111.00 C 34.29 110.00 32.83 108.96 31.15 108.38 Z" />
<path fill="#0e0e25" opacity="1.00" d=" M 47.40 111.00 C 46.63 110.18 45.25 107.98 46.76 107.31 C 48.26 107.82 48.30 109.71 48.71 111.00 L 47.40 111.00 Z" />
<path fill="#201940" opacity="1.00" d=" M 50.78 106.74 C 52.78 108.15 54.75 109.61 56.77 111.00 L 51.18 111.00 C 51.04 109.58 50.91 108.16 50.78 106.74 Z" />
<path fill="#4a1d4d" opacity="1.00" d=" M 89.73 106.87 C 92.64 107.75 95.29 109.24 97.75 111.00 L 93.22 111.00 C 91.97 109.70 90.84 108.29 89.73 106.87 Z" />
<path fill="#e781c2" opacity="1.00" d=" M 20.75 107.90 C 22.79 108.39 24.86 108.76 26.92 109.21 C 28.12 109.79 29.29 110.42 30.49 111.00 L 13.80 111.00 L 13.51 110.70 C 16.05 110.14 18.58 109.40 20.75 107.90 Z" />
<path fill="#ad5992" opacity="1.00" d=" M 26.92 109.21 C 28.34 108.98 29.75 108.70 31.15 108.38 C 32.83 108.96 34.29 110.00 35.74 111.00 L 30.49 111.00 C 29.29 110.42 28.12 109.79 26.92 109.21 Z" />
<path fill="#744c89" opacity="1.00" d=" M 62.18 108.67 C 62.57 108.61 63.35 108.49 63.74 108.43 C 64.95 109.30 66.16 110.18 67.41 111.00 L 62.62 111.00 C 62.51 110.42 62.29 109.25 62.18 108.67 Z" />
<path fill="#332348" opacity="1.00" d=" M 84.36 108.08 C 86.33 107.59 87.55 109.81 88.74 111.00 L 86.44 111.00 C 85.53 110.32 84.09 109.41 84.36 108.08 Z" />
<path fill="#442e5a" opacity="1.00" d=" M 80.03 111.00 C 78.60 108.33 83.37 108.35 81.83 111.00 L 80.03 111.00 Z" />
</svg>
