<?xml version="1.0" encoding="UTF-8" ?>
<!DOCTYPE svg PUBLIC "-//W3C//DTD SVG 1.1//EN" "http://www.w3.org/Graphics/SVG/1.1/DTD/svg11.dtd">
<svg width="111pt" height="111pt" viewBox="0 0 111 111" version="1.1" xmlns="http://www.w3.org/2000/svg">
<path fill="#10101d" opacity="1.00" d=" M 0.00 0.00 L 2.02 0.00 C 1.30 3.04 1.01 6.17 0.99 9.29 C 2.87 6.40 4.24 3.23 5.41 0.00 L 9.36 0.00 C 9.67 0.49 10.30 1.47 10.61 1.96 L 9.73 1.81 C 6.60 3.53 4.16 7.10 4.81 10.76 C 5.45 13.46 8.54 13.63 10.70 14.37 C 10.92 11.85 11.15 9.33 11.24 6.80 C 14.29 10.42 17.26 14.15 19.23 18.49 C 17.36 18.50 15.48 18.51 13.60 18.51 C 13.24 19.47 12.87 20.42 12.50 21.36 C 11.97 22.67 11.41 23.96 10.77 25.22 C 9.45 23.35 8.10 21.51 6.65 19.74 C 6.09 21.93 4.09 24.28 5.42 26.55 C 5.92 27.64 6.48 28.69 7.09 29.72 C 8.77 32.83 11.97 34.21 15.42 34.02 C 15.78 31.94 16.15 29.87 16.52 27.79 C 17.72 29.79 19.09 31.76 19.75 34.02 C 18.74 36.93 17.06 39.55 15.74 42.32 C 13.16 41.93 10.57 41.54 7.98 41.13 C 10.18 46.52 10.53 52.36 11.67 58.00 C 15.10 55.54 18.12 52.60 21.11 49.64 C 21.41 50.09 22.03 50.98 22.33 51.43 C 21.64 54.86 19.15 57.43 16.92 59.95 C 18.33 60.78 19.75 61.60 21.16 62.42 C 21.23 63.60 21.29 64.77 21.37 65.94 C 17.43 66.13 13.45 65.78 9.77 64.27 C 6.96 63.04 3.88 63.05 0.92 63.66 L 0.00 63.79 L 0.00 55.99 C 1.69 54.36 3.61 52.93 4.96 50.99 C 3.96 47.75 1.77 45.09 0.00 42.26 L 0.00 29.20 C 1.46 28.61 2.91 28.01 4.36 27.41 C 2.92 25.60 1.45 23.81 0.00 22.00 L 0.00 0.00 Z" />
<path fill="#6c6174" opacity="1.00" d=" M 2.02 0.00 L 5.41 0.00 C 4.24 3.23 2.87 6.40 0.99 9.29 C 1.01 6.17 1.30 3.04 2.02 0.00 Z" />
<path fill="#351333" opacity="1.00" d=" M 9.36 0.00 L 12.55 0.00 C 14.37 1.76 16.56 3.49 17.35 5.98 C 17.32 7.55 16.87 9.08 16.54 10.60 C 14.28 7.93 12.43 4.95 10.61 1.96 C 10.30 1.47 9.67 0.49 9.36 0.00 Z" />
<path fill="#0e0411" opacity="1.00" d=" M 12.55 0.00 L 22.54 0.00 C 22.00 4.98 21.71 10.00 20.78 14.93 C 20.35 15.91 20.10 16.93 20.04 17.98 C 20.38 19.82 22.68 18.31 22.36 16.99 C 22.46 16.50 22.67 15.52 22.78 15.03 C 23.19 14.51 24.02 13.49 24.44 12.98 C 24.91 12.24 25.39 11.50 25.88 10.77 C 27.29 11.46 28.69 12.15 30.10 12.83 C 29.74 11.60 29.39 10.37 29.03 9.14 C 28.48 7.27 27.88 5.42 27.19 3.60 C 26.70 2.39 26.17 1.18 25.60 0.00 L 35.41 0.00 C 34.95 0.65 34.04 1.95 33.59 2.60 C 31.95 5.64 32.30 9.20 32.04 12.53 L 31.79 13.50 C 31.22 13.96 30.65 14.43 30.08 14.89 C 31.35 15.38 32.63 15.86 33.88 16.37 L 34.00 17.20 C 30.70 19.80 27.43 22.45 24.56 25.52 C 26.07 25.01 27.58 24.47 29.08 23.94 C 30.65 26.21 34.27 29.53 31.22 32.09 C 29.12 34.69 25.90 35.24 22.78 34.62 C 23.32 38.25 23.99 41.85 24.95 45.40 C 30.45 48.70 37.16 47.06 43.20 46.82 C 44.02 43.87 44.92 40.93 46.08 38.10 C 46.90 37.02 47.72 35.95 48.51 34.86 C 55.19 33.07 60.85 28.65 66.18 24.41 C 66.40 24.57 66.83 24.89 67.05 25.05 C 66.65 25.98 66.24 26.90 65.84 27.83 C 72.57 27.25 79.47 25.98 84.77 21.45 C 88.98 18.53 93.35 15.83 97.35 12.62 C 94.78 12.99 92.23 13.55 89.71 14.17 C 89.39 14.24 88.74 14.38 88.42 14.45 C 88.04 14.16 87.29 13.58 86.92 13.29 C 90.84 11.65 94.98 10.55 98.84 8.76 C 102.87 6.87 105.36 3.03 108.43 0.00 L 111.00 0.00 L 111.00 3.45 C 104.92 8.95 98.99 14.71 91.90 18.94 C 86.23 22.79 79.86 25.45 74.08 29.11 C 79.26 31.77 84.39 34.52 89.62 37.08 C 89.93 36.75 90.55 36.08 90.85 35.74 C 93.71 32.61 96.70 29.60 99.84 26.76 C 100.02 27.35 100.37 28.54 100.54 29.14 C 100.69 29.77 100.99 31.04 101.14 31.68 C 102.86 30.77 104.58 29.87 106.31 29.00 C 105.67 32.56 104.54 36.00 103.25 39.37 C 105.90 38.05 108.56 36.71 111.00 35.01 L 111.00 50.75 C 107.79 51.58 104.50 52.07 101.29 52.92 C 100.57 51.08 99.80 49.25 99.01 47.43 L 99.52 47.12 C 101.37 47.78 103.35 49.87 105.36 48.56 C 107.62 45.74 108.28 42.08 109.23 38.69 C 107.57 39.35 105.92 40.03 104.27 40.72 L 103.46 41.04 C 102.73 40.79 101.26 40.28 100.52 40.03 C 101.81 37.81 102.95 35.50 104.09 33.20 C 103.19 33.86 102.30 34.52 101.41 35.18 C 97.22 37.15 91.89 39.53 91.38 44.80 C 92.46 46.67 94.31 47.91 95.94 49.28 L 95.38 49.57 L 94.72 49.64 C 91.97 48.16 89.36 45.41 85.96 46.37 L 85.46 46.95 C 83.91 46.70 82.32 45.95 80.74 46.28 C 76.47 47.92 73.07 51.65 68.39 52.23 C 64.66 52.25 61.08 50.98 57.46 50.23 C 56.63 51.51 55.79 52.80 54.96 54.09 C 54.75 53.72 54.33 52.98 54.12 52.61 C 53.35 51.25 52.45 49.96 51.56 48.67 C 52.44 46.76 53.30 44.84 54.07 42.87 C 52.82 44.12 51.62 45.41 50.42 46.71 C 48.97 48.32 47.42 49.83 45.85 51.32 C 44.59 50.62 43.35 49.89 42.10 49.17 C 41.92 49.39 41.55 49.83 41.36 50.06 C 42.53 51.01 44.32 51.57 44.75 53.18 C 45.86 56.90 46.10 60.82 46.69 64.64 C 48.11 62.50 49.49 60.32 50.79 58.10 C 52.52 59.31 54.33 60.44 56.32 61.16 C 58.17 61.66 60.02 62.13 61.92 62.39 C 65.58 62.70 69.16 61.56 72.51 60.21 C 76.54 58.62 79.04 54.86 81.97 51.87 C 84.86 53.87 87.47 56.62 90.94 57.55 C 92.62 57.12 94.16 56.27 95.71 55.52 C 95.66 55.95 95.57 56.81 95.52 57.23 C 94.30 59.16 93.14 61.13 92.12 63.17 C 90.79 63.44 89.88 65.59 91.64 66.00 C 92.26 66.31 93.51 66.95 94.14 67.26 C 97.56 68.88 101.16 70.09 104.72 71.36 C 106.21 68.53 107.71 65.71 109.37 62.98 C 109.92 62.11 110.46 61.25 111.00 60.37 L 111.00 68.55 C 109.68 69.19 108.34 69.77 107.00 70.36 C 107.15 70.78 107.46 71.61 107.61 72.02 C 108.46 74.43 109.54 76.75 110.64 79.06 L 110.35 79.69 C 106.71 78.21 103.09 76.70 99.50 75.13 C 99.61 76.00 99.72 76.87 99.82 77.75 C 99.98 79.62 100.05 81.49 100.13 83.37 C 100.15 83.93 100.20 85.04 100.22 85.60 C 98.74 86.25 97.25 86.89 95.77 87.53 C 98.29 89.16 100.84 90.75 103.21 92.59 C 105.14 94.19 106.85 96.02 108.46 97.93 C 109.13 98.80 109.97 99.45 111.00 99.87 L 111.00 103.17 C 110.42 102.47 109.83 101.79 109.23 101.13 C 106.42 98.15 103.49 95.28 100.51 92.48 C 98.08 91.18 95.41 90.40 92.72 89.83 C 92.28 89.76 91.39 89.63 90.94 89.56 C 93.96 88.50 96.26 86.15 98.32 83.81 C 98.40 80.75 97.99 77.50 96.31 74.87 C 91.17 73.76 85.59 76.04 80.71 73.68 C 79.23 72.88 77.10 69.20 76.00 72.10 C 76.90 74.05 78.88 73.93 80.71 73.68 C 80.23 74.26 79.25 75.43 78.76 76.01 C 76.05 73.96 73.37 71.72 70.09 70.65 C 67.54 70.72 65.09 71.48 62.64 72.11 C 60.08 70.13 56.83 70.32 53.84 69.62 C 50.33 67.95 47.11 65.36 43.12 64.95 C 40.49 64.38 36.93 65.29 35.70 62.19 C 36.63 62.84 37.57 63.49 38.50 64.14 C 40.69 59.75 36.49 55.31 38.61 50.80 C 37.08 51.89 35.54 52.95 33.99 54.00 C 33.43 53.76 32.87 53.53 32.31 53.31 C 29.54 52.00 26.03 51.56 24.22 48.81 C 22.08 45.83 20.25 42.63 17.87 39.83 C 18.98 43.39 20.77 46.69 22.74 49.84 C 22.64 50.24 22.44 51.03 22.33 51.43 C 22.03 50.98 21.41 50.09 21.11 49.64 C 19.35 47.18 17.53 44.76 15.74 42.32 C 17.06 39.55 18.74 36.93 19.75 34.02 C 19.09 31.76 17.72 29.79 16.52 27.79 C 15.18 25.64 13.84 23.50 12.50 21.36 C 12.87 20.42 13.24 19.47 13.60 18.51 C 15.48 18.51 17.36 18.50 19.23 18.49 C 17.26 14.15 14.29 10.42 11.24 6.80 C 10.73 5.14 10.22 3.47 9.73 1.81 L 10.61 1.96 C 12.43 4.95 14.28 7.93 16.54 10.60 C 16.87 9.08 17.32 7.55 17.35 5.98 C 16.56 3.49 14.37 1.76 12.55 0.00 M 26.23 12.80 C 25.36 15.35 24.55 17.93 23.82 20.52 C 23.62 20.79 23.21 21.32 23.01 21.58 C 23.72 21.80 25.13 22.23 25.84 22.45 C 27.51 20.84 29.22 19.27 30.95 17.73 C 30.27 16.97 29.59 16.20 28.91 15.44 C 28.03 14.55 27.14 13.67 26.23 12.80 M 15.28 21.44 C 15.86 22.72 16.45 23.99 17.05 25.26 C 17.76 25.19 19.19 25.05 19.90 24.98 C 19.99 24.15 20.17 22.48 20.26 21.65 C 18.60 21.55 16.94 21.48 15.28 21.44 M 21.98 23.06 C 20.72 24.09 22.13 26.75 23.64 25.60 C 24.99 24.61 23.43 21.98 21.98 23.06 M 23.54 32.68 C 24.29 33.26 25.11 33.71 25.98 34.05 C 28.27 32.14 28.00 28.32 28.77 25.54 C 25.83 26.76 23.28 29.25 23.54 32.68 M 70.97 31.96 C 71.79 34.43 73.17 36.66 75.20 38.32 C 74.61 35.72 73.08 33.55 70.97 31.96 M 55.63 33.72 C 54.67 34.75 53.97 35.97 53.21 37.14 C 52.64 38.12 52.11 39.11 51.62 40.12 C 53.25 40.03 54.99 40.32 56.56 39.72 C 57.07 38.69 57.53 37.64 57.94 36.57 C 59.53 36.12 59.98 34.06 60.99 32.89 C 59.20 33.10 57.36 33.17 55.63 33.72 M 46.71 41.55 L 47.96 41.79 C 49.34 41.90 50.10 41.22 50.22 39.73 L 50.92 39.97 C 50.99 38.58 51.04 37.18 51.08 35.79 C 48.85 37.06 47.33 39.06 46.71 41.55 M 82.97 41.03 C 84.55 39.69 85.82 38.01 86.09 35.90 C 84.70 37.38 83.70 39.15 82.97 41.03 M 75.30 39.54 C 74.38 40.33 74.45 42.44 75.86 42.62 C 77.84 42.48 77.27 38.43 75.30 39.54 M 76.90 46.20 C 79.43 45.28 81.59 43.58 82.17 40.83 C 79.88 42.03 78.09 43.92 76.90 46.20 M 88.32 40.93 C 86.25 41.33 87.22 44.31 89.11 43.70 C 91.11 43.33 90.30 40.06 88.32 40.93 M 50.18 42.28 C 48.57 42.18 48.30 44.94 50.02 44.91 C 51.57 44.98 51.90 42.21 50.18 42.28 M 45.65 43.27 C 44.57 44.43 46.35 46.75 47.70 45.73 C 48.87 44.53 47.02 42.24 45.65 43.27 M 56.48 47.45 C 60.67 49.41 65.36 49.77 69.87 50.50 C 70.13 50.19 70.64 49.59 70.90 49.28 C 66.79 49.02 62.74 48.13 59.20 45.93 C 58.06 44.96 54.91 45.63 56.48 47.45 M 73.23 45.23 C 72.11 45.28 70.86 46.70 71.55 47.78 C 72.91 48.81 75.10 45.77 73.23 45.23 M 45.22 47.31 C 45.06 47.68 44.73 48.40 44.57 48.77 C 46.29 51.80 48.79 45.67 45.22 47.31 M 79.56 56.79 C 78.16 58.28 79.85 61.28 81.48 61.95 L 81.43 62.40 C 82.25 63.37 83.57 64.20 83.27 65.66 L 82.25 65.09 C 82.04 65.60 81.62 66.62 81.41 67.13 C 83.38 67.36 85.35 67.58 87.33 67.78 C 88.44 66.41 89.46 64.96 90.36 63.44 C 89.42 63.34 87.53 63.13 86.58 63.02 C 87.75 62.18 88.93 61.34 90.10 60.50 C 87.54 57.94 84.71 55.68 81.81 53.51 C 81.23 54.56 78.98 55.61 79.56 56.79 M 77.40 58.51 C 76.81 60.17 76.23 61.83 75.70 63.51 C 74.32 62.89 72.96 62.23 71.60 61.57 C 70.00 62.95 68.35 64.27 66.73 65.62 C 67.84 66.21 68.95 66.79 70.06 67.37 C 70.38 66.00 70.66 64.62 71.08 63.28 C 73.10 63.98 75.19 65.01 77.35 64.24 C 79.43 62.63 78.73 60.34 77.40 58.51 M 55.31 62.10 C 56.21 63.18 56.54 65.05 58.05 65.44 C 59.16 64.92 60.21 64.28 61.25 63.64 C 59.28 63.08 57.30 62.57 55.31 62.10 M 53.63 68.45 C 54.90 68.51 56.16 68.40 57.41 68.30 C 56.10 66.54 54.80 64.70 52.89 63.54 C 50.32 64.56 52.58 67.14 53.63 68.45 M 62.70 66.71 L 62.86 67.02 C 64.08 68.63 66.35 66.36 64.75 65.09 C 63.68 63.81 61.87 65.43 62.70 66.71 M 79.25 65.33 C 78.16 65.35 76.95 66.76 77.65 67.79 C 79.06 68.95 81.22 65.87 79.25 65.33 M 70.29 68.64 C 70.82 69.04 71.35 69.45 71.88 69.85 C 72.78 68.40 73.75 66.99 74.66 65.55 C 73.16 66.52 71.74 67.60 70.29 68.64 M 60.44 67.16 C 60.01 68.56 60.49 69.06 61.89 68.68 C 62.32 67.28 61.84 66.77 60.44 67.16 M 66.22 67.56 C 65.30 68.87 67.47 70.85 68.69 69.76 C 69.71 68.39 67.45 66.56 66.22 67.56 M 89.63 71.23 C 90.18 72.21 90.73 73.21 91.28 74.20 C 93.08 73.30 94.85 72.35 96.60 71.35 C 96.21 70.76 95.42 69.56 95.03 68.96 L 94.42 69.23 C 92.91 68.61 91.52 67.54 89.86 67.41 C 87.60 67.74 89.16 70.06 89.63 71.23 M 75.43 69.19 C 75.57 72.54 78.43 67.65 75.43 69.19 M 102.39 73.09 C 103.56 74.31 104.20 76.47 105.95 76.90 C 107.93 75.94 106.49 73.88 106.26 72.32 C 104.97 72.58 103.68 72.83 102.39 73.09 Z" />
<path fill="#ffffe3" opacity="1.00" d=" M 22.54 0.00 L 25.60 0.00 C 26.17 1.18 26.70 2.39 27.19 3.60 C 26.35 4.22 25.51 4.83 24.67 5.45 C 24.53 6.73 24.38 8.01 24.21 9.29 C 24.13 9.75 23.97 10.67 23.89 11.13 C 22.71 12.08 22.40 13.61 22.78 15.03 C 22.67 15.52 22.46 16.50 22.36 16.99 C 21.96 16.48 21.17 15.45 20.78 14.93 C 21.71 10.00 22.00 4.98 22.54 0.00 Z" />
<path fill="#fffedb" opacity="1.00" d=" M 35.41 0.00 L 38.75 0.00 C 37.02 0.86 35.33 1.78 33.59 2.60 C 34.04 1.95 34.95 0.65 35.41 0.00 Z" />
<path fill="#ba8249" opacity="1.00" d=" M 38.75 0.00 L 41.01 0.00 C 39.28 2.52 37.06 4.60 34.40 6.09 L 33.92 6.43 C 33.14 8.41 32.58 10.47 32.04 12.53 C 32.30 9.20 31.95 5.64 33.59 2.60 C 35.33 1.78 37.02 0.86 38.75 0.00 Z" />
<path fill="#50120c" opacity="1.00" d=" M 41.01 0.00 L 43.71 0.00 L 44.15 0.60 C 43.06 1.65 41.97 2.70 40.88 3.76 C 40.80 4.60 40.71 5.43 40.61 6.27 L 40.50 6.88 C 38.32 10.04 36.33 13.32 34.55 16.72 L 34.00 17.20 L 33.88 16.37 C 34.25 14.87 34.69 13.38 35.08 11.88 C 35.91 9.91 35.09 8.05 33.92 6.43 L 34.40 6.09 C 37.06 4.60 39.28 2.52 41.01 0.00 Z" />
<path fill="#1b0503" opacity="1.00" d=" M 43.71 0.00 L 59.94 0.00 C 57.90 1.39 55.88 2.80 53.89 4.25 C 52.98 5.40 52.19 6.63 51.42 7.87 C 53.02 6.96 54.57 5.97 56.10 4.93 C 58.84 3.13 61.71 1.50 64.64 0.00 L 74.99 0.00 C 68.20 3.58 61.16 6.70 54.71 10.87 C 55.06 12.10 55.43 13.32 55.79 14.54 C 59.64 15.54 62.93 12.92 66.00 11.04 C 68.83 9.13 71.89 7.61 75.08 6.40 C 78.27 5.21 80.29 2.29 82.66 0.00 L 84.36 0.00 C 82.54 2.31 80.99 4.80 79.40 7.26 C 76.77 11.24 73.62 15.31 73.53 20.30 L 73.42 21.11 C 71.39 22.13 69.52 23.44 67.71 24.81 L 67.05 25.05 C 66.83 24.89 66.40 24.57 66.18 24.41 C 64.79 23.37 63.43 22.28 62.06 21.20 C 63.11 19.61 64.16 18.01 65.22 16.43 C 62.75 16.73 60.06 18.05 57.65 17.20 C 51.94 12.80 48.10 6.52 44.15 0.60 L 43.71 0.00 M 73.30 8.12 C 72.18 8.24 70.73 9.44 71.22 10.66 C 72.47 11.57 75.10 8.78 73.30 8.12 Z" />
<path fill="#fffedb" opacity="1.00" d=" M 59.94 0.00 L 64.64 0.00 C 61.71 1.50 58.84 3.13 56.10 4.93 C 55.55 4.76 54.44 4.42 53.89 4.25 C 55.88 2.80 57.90 1.39 59.94 0.00 Z" />
<path fill="#fffedb" opacity="1.00" d=" M 74.99 0.00 L 79.68 0.00 C 71.86 5.08 63.55 9.36 55.79 14.54 C 55.43 13.32 55.06 12.10 54.71 10.87 C 61.16 6.70 68.20 3.58 74.99 0.00 Z" />
<path fill="#8a4932" opacity="1.00" d=" M 79.68 0.00 L 82.66 0.00 C 80.29 2.29 78.27 5.21 75.08 6.40 C 71.89 7.61 68.83 9.13 66.00 11.04 C 62.93 12.92 59.64 15.54 55.79 14.54 C 63.55 9.36 71.86 5.08 79.68 0.00 Z" />
<path fill="#1a1b2d" opacity="1.00" d=" M 84.36 0.00 L 92.65 0.00 C 88.86 3.61 85.17 7.48 82.88 12.25 C 86.56 11.24 90.02 9.58 93.10 7.33 C 97.03 5.49 100.62 3.05 103.72 0.00 L 108.43 0.00 C 105.36 3.03 102.87 6.87 98.84 8.76 C 94.98 10.55 90.84 11.65 86.92 13.29 C 87.29 13.58 88.04 14.16 88.42 14.45 C 83.39 16.61 78.37 18.78 73.42 21.11 L 73.53 20.30 C 76.54 18.02 80.15 15.73 80.79 11.66 C 81.49 9.99 80.10 8.64 79.40 7.26 C 80.99 4.80 82.54 2.31 84.36 0.00 Z" />
<path fill="#776a7f" opacity="1.00" d=" M 92.65 0.00 L 99.31 0.00 C 96.96 2.19 95.05 4.78 93.10 7.33 C 90.02 9.58 86.56 11.24 82.88 12.25 C 85.17 7.48 88.86 3.61 92.65 0.00 Z" />
<path fill="#424050" opacity="1.00" d=" M 99.31 0.00 L 103.72 0.00 C 100.62 3.05 97.03 5.49 93.10 7.33 C 95.05 4.78 96.96 2.19 99.31 0.00 Z" />
<path fill="#100809" opacity="1.00" d=" M 40.88 3.76 C 41.97 2.70 43.06 1.65 44.15 0.60 C 44.19 1.05 44.27 1.95 44.30 2.41 C 43.10 3.73 41.85 5.00 40.61 6.27 C 40.71 5.43 40.80 4.60 40.88 3.76 Z" />
<path fill="#1f1f33" opacity="1.00" d=" M 44.15 0.60 C 48.10 6.52 51.94 12.80 57.65 17.20 C 60.06 18.05 62.75 16.73 65.22 16.43 C 64.16 18.01 63.11 19.61 62.06 21.20 C 63.43 22.28 64.79 23.37 66.18 24.41 C 60.85 28.65 55.19 33.07 48.51 34.86 C 50.29 32.29 52.08 29.75 53.95 27.26 C 51.59 28.25 49.20 29.20 46.78 30.06 C 50.11 26.15 54.69 23.08 56.31 17.96 C 54.05 18.71 51.70 19.35 49.72 20.72 C 47.29 22.69 46.34 25.93 43.94 27.92 C 42.25 29.04 40.25 29.49 38.31 29.97 L 37.88 29.06 C 39.21 28.62 40.54 28.17 41.87 27.72 C 41.81 25.42 41.73 23.13 41.60 20.84 C 41.59 20.45 41.56 19.66 41.54 19.26 C 41.54 18.91 41.53 18.22 41.52 17.87 C 42.96 18.82 44.41 19.76 45.86 20.70 C 45.46 14.59 45.07 8.48 44.30 2.41 C 44.27 1.95 44.19 1.05 44.15 0.60 Z" />
<path fill="#4c4959" opacity="1.00" d=" M 4.81 10.76 C 4.16 7.10 6.60 3.53 9.73 1.81 C 10.22 3.47 10.73 5.14 11.24 6.80 C 11.15 9.33 10.92 11.85 10.70 14.37 C 8.54 13.63 5.45 13.46 4.81 10.76 Z" />
<path fill="#76697e" opacity="1.00" d=" M 40.61 6.27 C 41.85 5.00 43.10 3.73 44.30 2.41 C 45.07 8.48 45.46 14.59 45.86 20.70 C 44.41 19.76 42.96 18.82 41.52 17.87 C 41.53 18.22 41.54 18.91 41.54 19.26 C 39.95 21.73 37.68 24.10 37.73 27.23 C 37.76 27.69 37.84 28.60 37.88 29.06 L 38.31 29.97 C 40.25 29.49 42.25 29.04 43.94 27.92 C 46.34 25.93 47.29 22.69 49.72 20.72 C 51.70 19.35 54.05 18.71 56.31 17.96 C 54.69 23.08 50.11 26.15 46.78 30.06 C 49.20 29.20 51.59 28.25 53.95 27.26 C 52.08 29.75 50.29 32.29 48.51 34.86 C 47.72 35.95 46.90 37.02 46.08 38.10 C 39.70 42.14 32.09 43.33 24.95 45.40 C 23.99 41.85 23.32 38.25 22.78 34.62 C 25.90 35.24 29.12 34.69 31.22 32.09 C 34.27 29.53 30.65 26.21 29.08 23.94 C 27.58 24.47 26.07 25.01 24.56 25.52 C 27.43 22.45 30.70 19.80 34.00 17.20 L 34.55 16.72 C 37.66 14.31 40.13 10.89 40.50 6.88 L 40.61 6.27 M 37.39 31.96 C 37.35 33.58 37.31 35.20 37.28 36.82 C 38.53 37.23 39.79 37.62 41.04 38.02 C 41.73 36.29 43.26 34.50 42.46 32.54 C 40.88 31.75 39.08 32.02 37.39 31.96 Z" />
<path fill="#ffe56f" opacity="1.00" d=" M 27.19 3.60 C 27.88 5.42 28.48 7.27 29.03 9.14 C 27.63 8.10 26.27 7.02 24.90 5.95 C 24.66 7.06 24.43 8.17 24.21 9.29 C 24.38 8.01 24.53 6.73 24.67 5.45 C 25.51 4.83 26.35 4.22 27.19 3.60 Z" />
<path fill="#ffaf43" opacity="1.00" d=" M 51.42 7.87 C 52.19 6.63 52.98 5.40 53.89 4.25 C 54.44 4.42 55.55 4.76 56.10 4.93 C 54.57 5.97 53.02 6.96 51.42 7.87 Z" />
<path fill="#242535" opacity="1.00" d=" M 91.90 18.94 C 98.99 14.71 104.92 8.95 111.00 3.45 L 111.00 5.41 C 107.51 9.79 104.57 14.85 99.74 17.91 C 93.97 21.93 87.99 25.80 83.16 30.97 C 85.53 32.86 88.08 34.51 90.85 35.74 C 90.55 36.08 89.93 36.75 89.62 37.08 C 84.39 34.52 79.26 31.77 74.08 29.11 C 79.86 25.45 86.23 22.79 91.90 18.94 Z" />
<path fill="#51130d" opacity="1.00" d=" M 24.90 5.95 C 26.27 7.02 27.63 8.10 29.03 9.14 C 29.39 10.37 29.74 11.60 30.10 12.83 C 28.69 12.15 27.29 11.46 25.88 10.77 C 25.39 11.50 24.91 12.24 24.44 12.98 C 24.30 12.52 24.03 11.59 23.89 11.13 C 23.97 10.67 24.13 9.75 24.21 9.29 C 24.43 8.17 24.66 7.06 24.90 5.95 Z" />
<path fill="#73677b" opacity="1.00" d=" M 99.74 17.91 C 104.57 14.85 107.51 9.79 111.00 5.41 L 111.00 10.30 C 109.25 12.06 107.12 13.51 105.75 15.62 C 104.48 17.90 103.85 20.46 102.93 22.90 C 102.09 24.96 101.26 27.03 100.54 29.14 C 100.37 28.54 100.02 27.35 99.84 26.76 C 96.70 29.60 93.71 32.61 90.85 35.74 C 88.08 34.51 85.53 32.86 83.16 30.97 C 87.99 25.80 93.97 21.93 99.74 17.91 Z" />
<path fill="#fff7ae" opacity="1.00" d=" M 32.04 12.53 C 32.58 10.47 33.14 8.41 33.92 6.43 C 35.09 8.05 35.91 9.91 35.08 11.88 C 33.97 12.41 32.87 12.93 31.79 13.50 L 32.04 12.53 Z" />
<path fill="#fff2ff" opacity="1.00" d=" M 34.55 16.72 C 36.33 13.32 38.32 10.04 40.50 6.88 C 40.13 10.89 37.66 14.31 34.55 16.72 Z" />
<path fill="#ffaf43" opacity="1.00" d=" M 73.30 8.12 C 75.10 8.78 72.47 11.57 71.22 10.66 C 70.73 9.44 72.18 8.24 73.30 8.12 Z" />
<path fill="#786a80" opacity="1.00" d=" M 79.40 7.26 C 80.10 8.64 81.49 9.99 80.79 11.66 C 80.15 15.73 76.54 18.02 73.53 20.30 C 73.62 15.31 76.77 11.24 79.40 7.26 Z" />
<path fill="#ecae4e" opacity="1.00" d=" M 22.78 15.03 C 22.40 13.61 22.71 12.08 23.89 11.13 C 24.03 11.59 24.30 12.52 24.44 12.98 C 24.02 13.49 23.19 14.51 22.78 15.03 Z" />
<path fill="#fff2ff" opacity="1.00" d=" M 105.75 15.62 C 107.12 13.51 109.25 12.06 111.00 10.30 L 111.00 12.22 C 107.90 15.46 105.32 19.12 102.93 22.90 C 103.85 20.46 104.48 17.90 105.75 15.62 Z" />
<path fill="#884431" opacity="1.00" d=" M 31.79 13.50 C 32.87 12.93 33.97 12.41 35.08 11.88 C 34.69 13.38 34.25 14.87 33.88 16.37 C 32.63 15.86 31.35 15.38 30.08 14.89 C 30.65 14.43 31.22 13.96 31.79 13.50 Z" />
<path fill="#663f27" opacity="1.00" d=" M 89.71 14.17 C 92.23 13.55 94.78 12.99 97.35 12.62 C 93.35 15.83 88.98 18.53 84.77 21.45 C 84.89 20.15 85.02 18.86 85.15 17.57 C 87.15 16.48 89.11 15.34 91.04 14.13 C 90.71 14.14 90.04 14.16 89.71 14.17 Z" />
<path fill="#fff7ae" opacity="1.00" d=" M 26.23 12.80 C 27.14 13.67 28.03 14.55 28.91 15.44 C 26.96 16.86 25.28 18.61 23.82 20.52 C 24.55 17.93 25.36 15.35 26.23 12.80 Z" />
<path fill="#76697e" opacity="1.00" d=" M 102.93 22.90 C 105.32 19.12 107.90 15.46 111.00 12.22 L 111.00 35.01 C 108.56 36.71 105.90 38.05 103.25 39.37 C 104.54 36.00 105.67 32.56 106.31 29.00 C 104.58 29.87 102.86 30.77 101.14 31.68 C 100.99 31.04 100.69 29.77 100.54 29.14 C 101.26 27.03 102.09 24.96 102.93 22.90 Z" />
<path fill="#fff7ae" opacity="1.00" d=" M 88.42 14.45 C 88.74 14.38 89.39 14.24 89.71 14.17 C 90.04 14.16 90.71 14.14 91.04 14.13 C 89.11 15.34 87.15 16.48 85.15 17.57 C 79.55 20.43 73.80 23.16 67.71 24.81 C 69.52 23.44 71.39 22.13 73.42 21.11 C 78.37 18.78 83.39 16.61 88.42 14.45 Z" />
<path fill="#ffaf43" opacity="1.00" d=" M 20.04 17.98 C 20.10 16.93 20.35 15.91 20.78 14.93 C 21.17 15.45 21.96 16.48 22.36 16.99 C 22.68 18.31 20.38 19.82 20.04 17.98 Z" />
<path fill="#95493a" opacity="1.00" d=" M 23.82 20.52 C 25.28 18.61 26.96 16.86 28.91 15.44 C 29.59 16.20 30.27 16.97 30.95 17.73 C 29.22 19.27 27.51 20.84 25.84 22.45 C 25.13 22.23 23.72 21.80 23.01 21.58 C 23.21 21.32 23.62 20.79 23.82 20.52 Z" />
<path fill="#210805" opacity="1.00" d=" M 67.71 24.81 C 73.80 23.16 79.55 20.43 85.15 17.57 C 85.02 18.86 84.89 20.15 84.77 21.45 C 79.47 25.98 72.57 27.25 65.84 27.83 C 66.24 26.90 66.65 25.98 67.05 25.05 L 67.71 24.81 Z" />
<path fill="#685e73" opacity="1.00" d=" M 6.65 19.74 C 8.10 21.51 9.45 23.35 10.77 25.22 C 9.65 26.81 8.39 28.28 7.09 29.72 C 6.48 28.69 5.92 27.64 5.42 26.55 C 4.09 24.28 6.09 21.93 6.65 19.74 Z" />
<path fill="#ffffe3" opacity="1.00" d=" M 37.73 27.23 C 37.68 24.10 39.95 21.73 41.54 19.26 C 41.56 19.66 41.59 20.45 41.60 20.84 C 40.32 22.98 38.90 25.03 37.73 27.23 Z" />
<path fill="#784069" opacity="1.00" d=" M 15.28 21.44 C 16.94 21.48 18.60 21.55 20.26 21.65 C 20.17 22.48 19.99 24.15 19.90 24.98 C 19.19 25.05 17.76 25.19 17.05 25.26 C 16.45 23.99 15.86 22.72 15.28 21.44 Z" />
<path fill="#e63c8f" opacity="1.00" d=" M 37.73 27.23 C 38.90 25.03 40.32 22.98 41.60 20.84 C 41.73 23.13 41.81 25.42 41.87 27.72 C 40.54 28.17 39.21 28.62 37.88 29.06 C 37.84 28.60 37.76 27.69 37.73 27.23 Z" />
<path fill="#1e202f" opacity="1.00" d=" M 10.77 25.22 C 11.41 23.96 11.97 22.67 12.50 21.36 C 13.84 23.50 15.18 25.64 16.52 27.79 C 16.15 29.87 15.78 31.94 15.42 34.02 C 11.97 34.21 8.77 32.83 7.09 29.72 C 8.39 28.28 9.65 26.81 10.77 25.22 Z" />
<path fill="#444255" opacity="1.00" d=" M 0.00 22.00 C 1.45 23.81 2.92 25.60 4.36 27.41 C 2.91 28.01 1.46 28.61 0.00 29.20 L 0.00 22.00 Z" />
<path fill="#fff7ae" opacity="1.00" d=" M 21.98 23.06 C 23.43 21.98 24.99 24.61 23.64 25.60 C 22.13 26.75 20.72 24.09 21.98 23.06 Z" />
<path fill="#f6c4b3" opacity="1.00" d=" M 23.54 32.68 C 23.28 29.25 25.83 26.76 28.77 25.54 C 27.13 27.99 25.42 30.40 23.54 32.68 Z" />
<path fill="#ce2d6f" opacity="1.00" d=" M 28.77 25.54 C 28.00 28.32 28.27 32.14 25.98 34.05 C 25.11 33.71 24.29 33.26 23.54 32.68 C 25.42 30.40 27.13 27.99 28.77 25.54 Z" />
<path fill="#0e0411" opacity="1.00" d=" M 37.39 31.96 C 39.08 32.02 40.88 31.75 42.46 32.54 C 43.26 34.50 41.73 36.29 41.04 38.02 C 39.79 37.62 38.53 37.23 37.28 36.82 C 37.31 35.20 37.35 33.58 37.39 31.96 M 38.38 33.31 C 36.97 34.26 38.32 37.01 39.85 35.73 C 41.29 34.78 39.92 32.02 38.38 33.31 Z" />
<path fill="#3a1f43" opacity="1.00" d=" M 70.97 31.96 C 73.08 33.55 74.61 35.72 75.20 38.32 C 73.17 36.66 71.79 34.43 70.97 31.96 Z" />
<path fill="#ce6189" opacity="1.00" d=" M 38.38 33.31 C 39.92 32.02 41.29 34.78 39.85 35.73 C 38.32 37.01 36.97 34.26 38.38 33.31 Z" />
<path fill="#191d39" opacity="1.00" d=" M 55.63 33.72 C 57.36 33.17 59.20 33.10 60.99 32.89 C 59.98 34.06 59.53 36.12 57.94 36.57 C 56.36 36.79 54.78 36.94 53.21 37.14 C 53.97 35.97 54.67 34.75 55.63 33.72 Z" />
<path fill="#a449fd" opacity="1.00" d=" M 101.41 35.18 C 102.30 34.52 103.19 33.86 104.09 33.20 C 102.95 35.50 101.81 37.81 100.52 40.03 C 99.10 42.59 96.72 44.33 94.10 45.51 C 96.19 41.83 98.77 38.47 101.41 35.18 Z" />
<path fill="#12045d" opacity="1.00" d=" M 91.38 44.80 C 91.89 39.53 97.22 37.15 101.41 35.18 C 98.77 38.47 96.19 41.83 94.10 45.51 C 96.72 44.33 99.10 42.59 100.52 40.03 C 101.26 40.28 102.73 40.79 103.46 41.04 C 102.26 41.52 101.06 42.00 99.86 42.47 C 100.57 43.06 101.29 43.64 102.01 44.23 C 101.22 45.23 100.39 46.19 99.52 47.12 L 99.01 47.43 C 97.99 48.05 96.97 48.68 95.94 49.28 C 94.31 47.91 92.46 46.67 91.38 44.80 Z" />
<path fill="#555e83" opacity="1.00" d=" M 46.71 41.55 C 47.33 39.06 48.85 37.06 51.08 35.79 C 51.04 37.18 50.99 38.58 50.92 39.97 L 50.22 39.73 C 48.87 38.85 47.39 40.41 47.96 41.79 L 46.71 41.55 Z" />
<path fill="#894a78" opacity="1.00" d=" M 82.97 41.03 C 83.70 39.15 84.70 37.38 86.09 35.90 C 85.82 38.01 84.55 39.69 82.97 41.03 Z" />
<path fill="#4f4a61" opacity="1.00" d=" M 53.21 37.14 C 54.78 36.94 56.36 36.79 57.94 36.57 C 57.53 37.64 57.07 38.69 56.56 39.72 C 54.99 40.32 53.25 40.03 51.62 40.12 C 52.11 39.11 52.64 38.12 53.21 37.14 Z" />
<path fill="#2f2e47" opacity="1.00" d=" M 24.95 45.40 C 32.09 43.33 39.70 42.14 46.08 38.10 C 44.92 40.93 44.02 43.87 43.20 46.82 C 37.16 47.06 30.45 48.70 24.95 45.40 Z" />
<path fill="#dadce2" opacity="1.00" d=" M 47.96 41.79 C 47.39 40.41 48.87 38.85 50.22 39.73 C 50.10 41.22 49.34 41.90 47.96 41.79 Z" />
<path fill="#5e3162" opacity="1.00" d=" M 75.30 39.54 C 77.27 38.43 77.84 42.48 75.86 42.62 C 74.45 42.44 74.38 40.33 75.30 39.54 Z" />
<path fill="#040033" opacity="1.00" d=" M 104.27 40.72 C 105.92 40.03 107.57 39.35 109.23 38.69 C 108.28 42.08 107.62 45.74 105.36 48.56 C 103.35 49.87 101.37 47.78 99.52 47.12 C 100.39 46.19 101.22 45.23 102.01 44.23 C 102.81 43.09 103.55 41.91 104.27 40.72 Z" />
<path fill="#6c3d70" opacity="1.00" d=" M 17.87 39.83 C 20.25 42.63 22.08 45.83 24.22 48.81 C 26.03 51.56 29.54 52.00 32.31 53.31 C 31.04 53.97 29.76 54.63 28.49 55.29 C 28.28 53.92 26.59 53.04 25.44 53.94 C 24.55 52.57 23.62 51.22 22.74 49.84 C 20.77 46.69 18.98 43.39 17.87 39.83 Z" />
<path fill="#1f2130" opacity="1.00" d=" M 7.98 41.13 C 10.57 41.54 13.16 41.93 15.74 42.32 C 17.53 44.76 19.35 47.18 21.11 49.64 C 18.12 52.60 15.10 55.54 11.67 58.00 C 10.53 52.36 10.18 46.52 7.98 41.13 Z" />
<path fill="#74417d" opacity="1.00" d=" M 76.90 46.20 C 78.09 43.92 79.88 42.03 82.17 40.83 C 81.59 43.58 79.43 45.28 76.90 46.20 Z" />
<path fill="#a015cc" opacity="1.00" d=" M 88.32 40.93 C 90.30 40.06 91.11 43.33 89.11 43.70 C 87.22 44.31 86.25 41.33 88.32 40.93 Z" />
<path fill="#a449fd" opacity="1.00" d=" M 103.46 41.04 L 104.27 40.72 C 103.55 41.91 102.81 43.09 102.01 44.23 C 101.29 43.64 100.57 43.06 99.86 42.47 C 101.06 42.00 102.26 41.52 103.46 41.04 Z" />
<path fill="#fff2ff" opacity="1.00" d=" M 50.18 42.28 C 51.90 42.21 51.57 44.98 50.02 44.91 C 48.30 44.94 48.57 42.18 50.18 42.28 Z" />
<path fill="#363549" opacity="1.00" d=" M 0.00 42.26 C 1.77 45.09 3.96 47.75 4.96 50.99 C 3.61 52.93 1.69 54.36 0.00 55.99 L 0.00 42.26 Z" />
<path fill="#707690" opacity="1.00" d=" M 45.65 43.27 C 47.02 42.24 48.87 44.53 47.70 45.73 C 46.35 46.75 44.57 44.43 45.65 43.27 Z" />
<path fill="#ffaf43" opacity="1.00" d=" M 50.42 46.71 C 51.62 45.41 52.82 44.12 54.07 42.87 C 53.30 44.84 52.44 46.76 51.56 48.67 C 52.45 49.96 53.35 51.25 54.12 52.61 C 53.53 53.53 52.95 54.45 52.38 55.38 C 51.10 52.66 50.30 49.73 50.42 46.71 Z" />
<path fill="#894a78" opacity="1.00" d=" M 56.48 47.45 C 54.91 45.63 58.06 44.96 59.20 45.93 C 62.74 48.13 66.79 49.02 70.90 49.28 C 70.64 49.59 70.13 50.19 69.87 50.50 C 65.36 49.77 60.67 49.41 56.48 47.45 Z" />
<path fill="#4d264e" opacity="1.00" d=" M 73.23 45.23 C 75.10 45.77 72.91 48.81 71.55 47.78 C 70.86 46.70 72.11 45.28 73.23 45.23 Z" />
<path fill="#231836" opacity="1.00" d=" M 80.74 46.28 C 82.32 45.95 83.91 46.70 85.46 46.95 C 84.61 47.98 83.79 49.03 82.97 50.08 C 85.56 51.32 88.21 52.45 90.97 53.28 C 89.83 50.62 87.88 48.48 85.96 46.37 C 89.36 45.41 91.97 48.16 94.72 49.64 C 94.55 50.94 94.37 52.24 94.20 53.53 C 95.94 52.08 97.67 50.62 99.40 49.15 C 98.06 49.29 96.72 49.43 95.38 49.57 L 95.94 49.28 C 96.97 48.68 97.99 48.05 99.01 47.43 C 99.80 49.25 100.57 51.08 101.29 52.92 C 99.38 53.68 97.54 54.59 95.71 55.52 C 94.16 56.27 92.62 57.12 90.94 57.55 C 87.47 56.62 84.86 53.87 81.97 51.87 C 79.04 54.86 76.54 58.62 72.51 60.21 C 69.16 61.56 65.58 62.70 61.92 62.39 C 66.72 61.01 71.75 58.73 74.12 54.04 C 74.83 52.93 75.46 51.78 76.08 50.62 C 73.68 51.93 71.38 53.44 69.09 54.93 C 64.08 55.05 59.37 57.07 56.32 61.16 C 54.33 60.44 52.52 59.31 50.79 58.10 C 51.32 57.19 51.85 56.28 52.38 55.38 C 52.95 54.45 53.53 53.53 54.12 52.61 C 54.33 52.98 54.75 53.72 54.96 54.09 C 55.79 52.80 56.63 51.51 57.46 50.23 C 61.08 50.98 64.66 52.25 68.39 52.23 C 73.07 51.65 76.47 47.92 80.74 46.28 M 56.71 53.55 C 57.84 54.34 58.80 55.36 59.98 56.09 C 61.40 54.93 62.80 53.74 64.11 52.44 C 61.61 52.60 59.15 53.06 56.71 53.55 Z" />
<path fill="#fff2ff" opacity="1.00" d=" M 45.22 47.31 C 48.79 45.67 46.29 51.80 44.57 48.77 C 44.73 48.40 45.06 47.68 45.22 47.31 Z" />
<path fill="#fff7ae" opacity="1.00" d=" M 45.85 51.32 C 47.42 49.83 48.97 48.32 50.42 46.71 C 50.30 49.73 51.10 52.66 52.38 55.38 C 51.85 56.28 51.32 57.19 50.79 58.10 C 49.49 60.32 48.11 62.50 46.69 64.64 C 46.10 60.82 45.86 56.90 44.75 53.18 C 44.32 51.57 42.53 51.01 41.36 50.06 C 41.55 49.83 41.92 49.39 42.10 49.17 C 43.35 49.89 44.59 50.62 45.85 51.32 Z" />
<path fill="#fff2ff" opacity="1.00" d=" M 85.46 46.95 L 85.96 46.37 C 87.88 48.48 89.83 50.62 90.97 53.28 C 88.21 52.45 85.56 51.32 82.97 50.08 C 83.79 49.03 84.61 47.98 85.46 46.95 Z" />
<path fill="#55466c" opacity="1.00" d=" M 95.38 49.57 C 96.72 49.43 98.06 49.29 99.40 49.15 C 97.67 50.62 95.94 52.08 94.20 53.53 C 94.37 52.24 94.55 50.94 94.72 49.64 L 95.38 49.57 Z" />
<path fill="#000000" opacity="1.00" d=" M 22.33 51.43 C 22.44 51.03 22.64 50.24 22.74 49.84 C 23.62 51.22 24.55 52.57 25.44 53.94 C 25.93 55.05 27.30 56.30 28.49 55.29 C 29.76 54.63 31.04 53.97 32.31 53.31 C 32.87 53.53 33.43 53.76 33.99 54.00 C 34.28 55.85 34.62 57.71 34.94 59.56 C 34.36 61.13 33.74 62.69 33.12 64.25 C 29.98 64.18 26.85 64.36 23.75 64.83 C 24.12 71.86 24.54 78.89 24.78 85.92 C 21.43 86.92 18.13 88.05 14.87 89.27 C 22.80 93.24 30.89 97.61 36.43 104.77 C 33.21 107.00 29.93 109.16 26.47 111.00 L 20.41 111.00 C 24.51 108.77 28.51 106.35 32.57 104.04 C 25.67 98.12 17.62 93.83 9.50 89.86 C 13.55 87.10 17.99 85.02 22.58 83.33 C 22.49 79.86 22.31 76.39 21.99 72.93 C 21.77 70.60 21.54 68.28 21.37 65.94 C 21.29 64.77 21.23 63.60 21.16 62.42 C 19.75 61.60 18.33 60.78 16.92 59.95 C 19.15 57.43 21.64 54.86 22.33 51.43 Z" />
<path fill="#894a78" opacity="1.00" d=" M 33.99 54.00 C 35.54 52.95 37.08 51.89 38.61 50.80 C 36.49 55.31 40.69 59.75 38.50 64.14 C 37.57 63.49 36.63 62.84 35.70 62.19 C 35.51 61.53 35.13 60.22 34.94 59.56 C 34.62 57.71 34.28 55.85 33.99 54.00 Z" />
<path fill="#fff2ff" opacity="1.00" d=" M 69.09 54.93 C 71.38 53.44 73.68 51.93 76.08 50.62 C 75.46 51.78 74.83 52.93 74.12 54.04 C 71.83 55.51 69.49 56.89 67.12 58.20 C 67.76 57.10 68.40 56.00 69.09 54.93 Z" />
<path fill="#040034" opacity="1.00" d=" M 101.29 52.92 C 104.50 52.07 107.79 51.58 111.00 50.75 L 111.00 58.77 C 108.77 60.34 106.46 62.01 103.75 62.60 C 101.04 63.02 98.31 62.43 95.64 62.04 C 95.69 60.44 95.60 58.84 95.52 57.23 C 95.57 56.81 95.66 55.95 95.71 55.52 C 97.54 54.59 99.38 53.68 101.29 52.92 Z" />
<path fill="#d57ecf" opacity="1.00" d=" M 25.44 53.94 C 26.59 53.04 28.28 53.92 28.49 55.29 C 27.30 56.30 25.93 55.05 25.44 53.94 Z" />
<path fill="#f248ff" opacity="1.00" d=" M 56.71 53.55 C 59.15 53.06 61.61 52.60 64.11 52.44 C 62.80 53.74 61.40 54.93 59.98 56.09 C 58.80 55.36 57.84 54.34 56.71 53.55 Z" />
<path fill="#5e4876" opacity="1.00" d=" M 67.12 58.20 C 69.49 56.89 71.83 55.51 74.12 54.04 C 71.75 58.73 66.72 61.01 61.92 62.39 C 60.02 62.13 58.17 61.66 56.32 61.16 C 59.37 57.07 64.08 55.05 69.09 54.93 C 68.40 56.00 67.76 57.10 67.12 58.20 Z" />
<path fill="#590ac0" opacity="1.00" d=" M 79.56 56.79 C 78.98 55.61 81.23 54.56 81.81 53.51 C 84.71 55.68 87.54 57.94 90.10 60.50 C 88.93 61.34 87.75 62.18 86.58 63.02 C 87.53 63.13 89.42 63.34 90.36 63.44 C 89.46 64.96 88.44 66.41 87.33 67.78 C 85.96 67.09 84.60 66.41 83.27 65.66 C 83.57 64.20 82.25 63.37 81.43 62.40 L 81.48 61.95 C 82.02 59.96 80.71 58.26 79.56 56.79 Z" />
<path fill="#e6afea" opacity="1.00" d=" M 79.56 56.79 C 80.71 58.26 82.02 59.96 81.48 61.95 C 79.85 61.28 78.16 58.28 79.56 56.79 Z" />
<path fill="#f248ff" opacity="1.00" d=" M 92.12 63.17 C 93.14 61.13 94.30 59.16 95.52 57.23 C 95.60 58.84 95.69 60.44 95.64 62.04 C 95.39 63.05 95.12 64.06 94.83 65.05 C 94.66 65.61 94.31 66.71 94.14 67.26 C 93.51 66.95 92.26 66.31 91.64 66.00 C 91.76 65.29 92.00 63.88 92.12 63.17 Z" />
<path fill="#590ac0" opacity="1.00" d=" M 77.40 58.51 C 78.73 60.34 79.43 62.63 77.35 64.24 C 76.94 64.05 76.11 63.69 75.70 63.51 C 76.23 61.83 76.81 60.17 77.40 58.51 Z" />
<path fill="#1d1283" opacity="1.00" d=" M 103.75 62.60 C 106.46 62.01 108.77 60.34 111.00 58.77 L 111.00 60.37 C 110.46 61.25 109.92 62.11 109.37 62.98 C 106.02 63.26 103.82 65.79 101.79 68.17 C 99.46 67.15 97.14 66.11 94.83 65.05 C 95.12 64.06 95.39 63.05 95.64 62.04 C 98.31 62.43 101.04 63.02 103.75 62.60 Z" />
<path fill="#7938a2" opacity="1.00" d=" M 55.31 62.10 C 57.30 62.57 59.28 63.08 61.25 63.64 C 60.21 64.28 59.16 64.92 58.05 65.44 C 56.54 65.05 56.21 63.18 55.31 62.10 Z" />
<path fill="#f248ff" opacity="1.00" d=" M 66.73 65.62 C 68.35 64.27 70.00 62.95 71.60 61.57 C 71.47 62.00 71.21 62.85 71.08 63.28 C 70.66 64.62 70.38 66.00 70.06 67.37 C 68.95 66.79 67.84 66.21 66.73 65.62 Z" />
<path fill="#fff2ff" opacity="1.00" d=" M 71.60 61.57 C 72.96 62.23 74.32 62.89 75.70 63.51 C 76.11 63.69 76.94 64.05 77.35 64.24 C 75.19 65.01 73.10 63.98 71.08 63.28 C 71.21 62.85 71.47 62.00 71.60 61.57 Z" />
<path fill="#1f1f33" opacity="1.00" d=" M 0.92 63.66 C 3.88 63.05 6.96 63.04 9.77 64.27 C 13.45 65.78 17.43 66.13 21.37 65.94 C 21.54 68.28 21.77 70.60 21.99 72.93 C 18.05 77.08 13.73 80.88 8.89 83.93 C 12.47 78.74 16.28 73.19 16.27 66.60 C 14.11 66.99 11.48 67.13 10.42 69.41 C 7.54 74.60 3.74 80.08 4.51 86.31 C 3.02 86.81 1.50 87.22 0.00 87.70 L 0.00 72.84 C 2.09 70.11 4.23 67.41 6.14 64.55 C 4.40 64.24 2.66 63.92 0.92 63.66 Z" />
<path fill="#351b94" opacity="1.00" d=" M 91.64 66.00 C 89.88 65.59 90.79 63.44 92.12 63.17 C 92.00 63.88 91.76 65.29 91.64 66.00 Z" />
<path fill="#a449fd" opacity="1.00" d=" M 101.79 68.17 C 103.82 65.79 106.02 63.26 109.37 62.98 C 107.71 65.71 106.21 68.53 104.72 71.36 C 101.16 70.09 97.56 68.88 94.14 67.26 C 94.31 66.71 94.66 65.61 94.83 65.05 C 97.14 66.11 99.46 67.15 101.79 68.17 Z" />
<path fill="#6f6479" opacity="1.00" d=" M 0.00 63.79 L 0.92 63.66 C 2.66 63.92 4.40 64.24 6.14 64.55 C 4.23 67.41 2.09 70.11 0.00 72.84 L 0.00 63.79 Z" />
<path fill="#534469" opacity="1.00" d=" M 53.63 68.45 C 52.58 67.14 50.32 64.56 52.89 63.54 C 54.80 64.70 56.10 66.54 57.41 68.30 C 56.16 68.40 54.90 68.51 53.63 68.45 Z" />
<path fill="#6d2e8f" opacity="1.00" d=" M 62.70 66.71 C 61.87 65.43 63.68 63.81 64.75 65.09 C 66.35 66.36 64.08 68.63 62.86 67.02 C 62.82 66.94 62.74 66.79 62.70 66.71 Z" />
<path fill="#bc73c6" opacity="1.00" d=" M 79.25 65.33 C 81.22 65.87 79.06 68.95 77.65 67.79 C 76.95 66.76 78.16 65.35 79.25 65.33 Z" />
<path fill="#fff2ff" opacity="1.00" d=" M 82.25 65.09 L 83.27 65.66 C 84.60 66.41 85.96 67.09 87.33 67.78 C 85.35 67.58 83.38 67.36 81.41 67.13 C 81.62 66.62 82.04 65.60 82.25 65.09 Z" />
<path fill="#fba0fe" opacity="1.00" d=" M 62.70 66.71 C 62.74 66.79 62.82 66.94 62.86 67.02 L 62.70 66.71 Z" />
<path fill="#f248ff" opacity="1.00" d=" M 70.29 68.64 C 71.74 67.60 73.16 66.52 74.66 65.55 C 73.75 66.99 72.78 68.40 71.88 69.85 C 71.35 69.45 70.82 69.04 70.29 68.64 Z" />
<path fill="#4e4b5b" opacity="1.00" d=" M 10.42 69.41 C 11.48 67.13 14.11 66.99 16.27 66.60 C 16.28 73.19 12.47 78.74 8.89 83.93 C 7.51 84.86 6.03 85.63 4.51 86.31 C 3.74 80.08 7.54 74.60 10.42 69.41 Z" />
<path fill="#75307c" opacity="1.00" d=" M 60.44 67.16 C 61.84 66.77 62.32 67.28 61.89 68.68 C 60.49 69.06 60.01 68.56 60.44 67.16 Z" />
<path fill="#a46db7" opacity="0.97" d=" M 66.22 67.56 C 67.45 66.56 69.71 68.39 68.69 69.76 C 67.47 70.85 65.30 68.87 66.22 67.56 Z" />
<path fill="#fff2ff" opacity="1.00" d=" M 89.63 71.23 C 89.16 70.06 87.60 67.74 89.86 67.41 C 91.52 67.54 92.91 68.61 94.42 69.23 C 92.83 69.92 91.23 70.57 89.63 71.23 Z" />
<path fill="#a542b9" opacity="1.00" d=" M 75.43 69.19 C 78.43 67.65 75.57 72.54 75.43 69.19 Z" />
<path fill="#5e4876" opacity="1.00" d=" M 94.42 69.23 L 95.03 68.96 C 95.42 69.56 96.21 70.76 96.60 71.35 C 94.85 72.35 93.08 73.30 91.28 74.20 C 90.73 73.21 90.18 72.21 89.63 71.23 C 91.23 70.57 92.83 69.92 94.42 69.23 Z" />
<path fill="#5f0557" opacity="1.00" d=" M 107.00 70.36 C 108.34 69.77 109.68 69.19 111.00 68.55 L 111.00 75.24 C 109.92 74.11 108.78 73.05 107.61 72.02 C 107.46 71.61 107.15 70.78 107.00 70.36 Z" />
<path fill="#b577bb" opacity="1.00" d=" M 76.00 72.10 C 77.10 69.20 79.23 72.88 80.71 73.68 C 78.88 73.93 76.90 74.05 76.00 72.10 Z" />
<path fill="#8418c5" opacity="1.00" d=" M 102.39 73.09 C 103.68 72.83 104.97 72.58 106.26 72.32 C 106.49 73.88 107.93 75.94 105.95 76.90 C 104.20 76.47 103.56 74.31 102.39 73.09 Z" />
<path fill="#ffaf43" opacity="1.00" d=" M 107.61 72.02 C 108.78 73.05 109.92 74.11 111.00 75.24 L 111.00 78.27 L 110.64 79.06 C 109.54 76.75 108.46 74.43 107.61 72.02 Z" />
<path fill="#131322" opacity="1.00" d=" M 8.89 83.93 C 13.73 80.88 18.05 77.08 21.99 72.93 C 22.31 76.39 22.49 79.86 22.58 83.33 C 17.99 85.02 13.55 87.10 9.50 89.86 C 17.62 93.83 25.67 98.12 32.57 104.04 C 28.51 106.35 24.51 108.77 20.41 111.00 L 8.23 111.00 C 10.49 105.94 10.62 100.29 10.65 94.85 C 7.07 99.75 4.89 105.44 2.54 111.00 L 0.00 111.00 L 0.00 87.70 C 1.50 87.22 3.02 86.81 4.51 86.31 C 6.03 85.63 7.51 84.86 8.89 83.93 M 17.26 79.48 C 16.19 79.58 14.70 81.09 15.60 82.11 C 13.61 82.28 12.33 84.00 10.90 85.18 C 13.22 84.70 15.91 84.32 17.03 81.91 C 18.02 81.64 18.61 79.65 17.26 79.48 Z" />
<path fill="#1e1e32" opacity="1.00" d=" M 99.50 75.13 C 103.09 76.70 106.71 78.21 110.35 79.69 L 110.64 79.06 L 111.00 78.27 L 111.00 96.16 C 109.83 96.33 108.99 96.92 108.46 97.93 C 106.85 96.02 105.14 94.19 103.21 92.59 C 104.59 91.52 106.05 90.49 107.03 89.02 C 105.64 86.66 102.54 86.55 100.22 85.60 C 100.20 85.04 100.15 83.93 100.13 83.37 C 101.41 84.02 102.69 84.72 104.07 85.17 C 106.28 85.18 106.97 82.61 108.22 81.21 C 105.46 79.96 102.66 78.80 99.82 77.75 C 99.72 76.87 99.61 76.00 99.50 75.13 Z" />
<path fill="#4e4b5b" opacity="1.00" d=" M 99.82 77.75 C 102.66 78.80 105.46 79.96 108.22 81.21 C 106.97 82.61 106.28 85.18 104.07 85.17 C 102.69 84.72 101.41 84.02 100.13 83.37 C 100.05 81.49 99.98 79.62 99.82 77.75 Z" />
<path fill="#c03ac0" opacity="1.00" d=" M 17.26 79.48 C 18.61 79.65 18.02 81.64 17.03 81.91 C 16.67 81.96 15.96 82.06 15.60 82.11 C 14.70 81.09 16.19 79.58 17.26 79.48 Z" />
<path fill="#503181" opacity="1.00" d=" M 10.90 85.18 C 12.33 84.00 13.61 82.28 15.60 82.11 C 15.96 82.06 16.67 81.96 17.03 81.91 C 15.91 84.32 13.22 84.70 10.90 85.18 Z" />
<path fill="#000717" opacity="1.00" d=" M 33.47 111.00 C 40.91 100.80 49.70 91.69 58.51 82.67 C 59.00 85.58 59.38 88.51 59.80 91.43 C 61.93 89.83 64.01 88.17 66.14 86.57 C 68.01 91.35 69.74 96.20 71.22 101.13 C 72.73 99.07 74.00 96.68 76.27 95.35 C 80.74 92.60 85.11 89.53 90.06 87.68 C 89.18 88.49 88.28 89.27 87.37 90.04 C 87.13 91.24 86.92 92.45 86.74 93.66 C 86.28 96.05 85.37 98.33 84.03 100.36 C 83.73 100.77 83.11 101.60 82.81 102.01 C 80.99 104.62 81.16 107.99 80.58 111.00 L 70.83 111.00 C 73.52 107.80 75.56 104.13 77.39 100.40 C 77.70 99.77 78.33 98.52 78.64 97.90 C 77.78 97.20 76.92 96.50 76.06 95.81 C 75.16 97.51 74.30 99.22 73.39 100.91 C 72.39 102.54 71.25 104.10 69.91 105.48 C 69.08 99.86 67.58 94.37 65.71 89.02 C 63.67 91.08 60.81 92.86 60.28 95.92 C 59.34 100.93 59.02 106.03 57.90 111.00 L 54.82 111.00 C 56.53 106.76 57.48 102.25 57.67 97.68 C 55.32 101.83 54.38 106.53 52.87 111.00 L 50.97 111.00 C 53.39 104.89 54.08 98.31 55.30 91.90 C 55.73 90.36 56.19 88.83 56.59 87.28 C 53.30 90.24 50.41 93.61 47.31 96.78 C 42.89 101.11 39.33 106.19 35.46 111.00 L 33.47 111.00 M 78.45 96.69 C 79.90 96.76 81.07 96.25 81.96 95.18 C 81.51 96.65 81.36 98.17 81.52 99.74 C 84.35 98.42 85.12 95.36 84.70 92.50 L 83.91 93.15 L 84.42 92.34 C 81.68 92.37 79.77 94.53 78.45 96.69 Z" />
<path fill="#4e4b5b" opacity="1.00" d=" M 95.77 87.53 C 97.25 86.89 98.74 86.25 100.22 85.60 C 102.54 86.55 105.64 86.66 107.03 89.02 C 106.05 90.49 104.59 91.52 103.21 92.59 C 100.84 90.75 98.29 89.16 95.77 87.53 Z" />
<path fill="#ffe56f" opacity="1.00" d=" M 47.31 96.78 C 50.41 93.61 53.30 90.24 56.59 87.28 C 56.19 88.83 55.73 90.36 55.30 91.90 C 52.57 93.68 50.10 95.83 47.84 98.17 C 47.70 97.82 47.44 97.13 47.31 96.78 Z" />
<path fill="#333347" opacity="1.00" d=" M 60.28 95.92 C 60.81 92.86 63.67 91.08 65.71 89.02 C 67.58 94.37 69.08 99.86 69.91 105.48 C 67.81 105.67 65.70 105.75 63.60 105.84 C 62.48 102.53 61.24 99.27 60.28 95.92 Z" />
<path fill="#ffffe3" opacity="1.00" d=" M 87.37 90.04 C 87.80 89.88 88.67 89.58 89.10 89.42 C 88.64 91.33 88.15 93.24 87.63 95.14 C 87.40 94.77 86.96 94.03 86.74 93.66 C 86.92 92.45 87.13 91.24 87.37 90.04 Z" />
<path fill="#ffe56f" opacity="1.00" d=" M 89.10 89.42 C 89.56 89.46 90.48 89.53 90.94 89.56 C 91.39 89.63 92.28 89.76 92.72 89.83 C 90.54 92.00 89.20 94.77 88.30 97.68 C 86.89 98.59 85.45 99.47 84.03 100.36 C 85.37 98.33 86.28 96.05 86.74 93.66 C 86.96 94.03 87.40 94.77 87.63 95.14 C 88.15 93.24 88.64 91.33 89.10 89.42 Z" />
<path fill="#4a0e09" opacity="1.00" d=" M 92.72 89.83 C 95.41 90.40 98.08 91.18 100.51 92.48 C 99.60 93.35 98.70 94.25 97.83 95.16 C 95.74 98.58 91.75 98.15 88.30 97.68 C 89.20 94.77 90.54 92.00 92.72 89.83 Z" />
<path fill="#00102e" opacity="1.00" d=" M 47.84 98.17 C 50.10 95.83 52.57 93.68 55.30 91.90 C 54.08 98.31 53.39 104.89 50.97 111.00 L 41.54 111.00 C 41.99 109.56 42.39 108.09 42.83 106.65 C 44.47 103.80 46.16 100.99 47.84 98.17 Z" />
<path fill="#fffedb" opacity="1.00" d=" M 78.45 96.69 C 79.77 94.53 81.68 92.37 84.42 92.34 L 83.91 93.15 C 83.26 93.82 82.61 94.50 81.96 95.18 C 81.07 96.25 79.90 96.76 78.45 96.69 Z" />
<path fill="#cc03df" opacity="1.00" d=" M 83.91 93.15 L 84.70 92.50 C 85.12 95.36 84.35 98.42 81.52 99.74 C 81.36 98.17 81.51 96.65 81.96 95.18 C 82.61 94.50 83.26 93.82 83.91 93.15 Z" />
<path fill="#ffe56f" opacity="1.00" d=" M 97.83 95.16 C 98.70 94.25 99.60 93.35 100.51 92.48 C 103.49 95.28 106.42 98.15 109.23 101.13 C 108.52 101.31 107.81 101.49 107.11 101.67 C 107.75 104.77 108.26 107.91 109.00 111.00 L 106.37 111.00 C 106.37 109.25 106.39 107.49 106.36 105.74 C 105.78 103.82 105.14 101.82 103.81 100.28 C 102.15 98.97 100.12 98.27 98.24 97.38 C 98.13 96.82 97.93 95.71 97.83 95.16 Z" />
<path fill="#2e2d46" opacity="1.00" d=" M 2.54 111.00 C 4.89 105.44 7.07 99.75 10.65 94.85 C 10.62 100.29 10.49 105.94 8.23 111.00 L 2.54 111.00 Z" />
<path fill="#b82d0e" opacity="1.00" d=" M 88.30 97.68 C 91.75 98.15 95.74 98.58 97.83 95.16 C 97.93 95.71 98.13 96.82 98.24 97.38 C 100.12 98.27 102.15 98.97 103.81 100.28 C 105.14 101.82 105.78 103.82 106.36 105.74 C 104.18 104.60 101.97 103.53 99.77 102.45 C 95.18 97.49 88.26 100.56 82.81 102.01 C 83.11 101.60 83.73 100.77 84.03 100.36 C 85.45 99.47 86.89 98.59 88.30 97.68 Z" />
<path fill="#121220" opacity="1.00" d=" M 60.28 95.92 C 61.24 99.27 62.48 102.53 63.60 105.84 C 65.70 105.75 67.81 105.67 69.91 105.48 C 71.25 104.10 72.39 102.54 73.39 100.91 C 74.72 100.75 76.06 100.57 77.39 100.40 C 75.56 104.13 73.52 107.80 70.83 111.00 L 57.90 111.00 C 59.02 106.03 59.34 100.93 60.28 95.92 Z" />
<path fill="#79d9aa" opacity="1.00" d=" M 76.06 95.81 C 76.92 96.50 77.78 97.20 78.64 97.90 C 78.33 98.52 77.70 99.77 77.39 100.40 C 76.06 100.57 74.72 100.75 73.39 100.91 C 74.30 99.22 75.16 97.51 76.06 95.81 Z" />
<path fill="#f248ff" opacity="1.00" d=" M 108.46 97.93 C 108.99 96.92 109.83 96.33 111.00 96.16 L 111.00 99.87 C 109.97 99.45 109.13 98.80 108.46 97.93 Z" />
<path fill="#91dfb6" opacity="1.00" d=" M 47.31 96.78 C 47.44 97.13 47.70 97.82 47.84 98.17 C 46.16 100.99 44.47 103.80 42.83 106.65 C 41.75 108.14 40.60 109.59 39.41 111.00 L 35.46 111.00 C 39.33 106.19 42.89 101.11 47.31 96.78 Z" />
<path fill="#041b3f" opacity="1.00" d=" M 52.87 111.00 C 54.38 106.53 55.32 101.83 57.67 97.68 C 57.48 102.25 56.53 106.76 54.82 111.00 L 52.87 111.00 Z" />
<path fill="#ffaf43" opacity="1.00" d=" M 82.81 102.01 C 88.26 100.56 95.18 97.49 99.77 102.45 C 93.21 103.42 85.13 104.53 81.64 111.00 L 80.58 111.00 C 81.16 107.99 80.99 104.62 82.81 102.01 Z" />
<path fill="#95493a" opacity="1.00" d=" M 107.11 101.67 C 107.81 101.49 108.52 101.31 109.23 101.13 C 109.83 101.79 110.42 102.47 111.00 103.17 L 111.00 111.00 L 109.00 111.00 C 108.26 107.91 107.75 104.77 107.11 101.67 Z" />
<path fill="#51130d" opacity="1.00" d=" M 81.64 111.00 C 85.13 104.53 93.21 103.42 99.77 102.45 C 98.06 105.47 96.28 108.48 93.87 111.00 L 81.64 111.00 Z" />
<path fill="#3b0503" opacity="1.00" d=" M 99.77 102.45 C 101.97 103.53 104.18 104.60 106.36 105.74 C 106.39 107.49 106.37 109.25 106.37 111.00 L 93.87 111.00 C 96.28 108.48 98.06 105.47 99.77 102.45 Z" />
<path fill="#12495f" opacity="1.00" d=" M 39.41 111.00 C 40.60 109.59 41.75 108.14 42.83 106.65 C 42.39 108.09 41.99 109.56 41.54 111.00 L 39.41 111.00 Z" />
</svg>
