<?xml version="1.0" encoding="UTF-8" ?>
<!DOCTYPE svg PUBLIC "-//W3C//DTD SVG 1.1//EN" "http://www.w3.org/Graphics/SVG/1.1/DTD/svg11.dtd">
<svg width="111pt" height="111pt" viewBox="0 0 111 111" version="1.1" xmlns="http://www.w3.org/2000/svg">
<path fill="#abcf8c" opacity="1.00" d=" M 0.00 0.00 L 14.40 0.00 C 9.57 0.75 4.60 1.17 0.00 2.95 L 0.00 0.00 Z" />
<path fill="#8eb96d" opacity="1.00" d=" M 14.40 0.00 L 17.97 0.00 C 18.42 3.58 15.96 6.39 16.76 9.84 C 15.77 11.04 14.11 9.88 13.02 10.70 C 12.67 10.96 11.96 11.47 11.60 11.73 C 9.87 12.61 8.10 13.49 6.17 13.88 C 5.50 12.18 4.70 10.53 3.90 8.89 L 4.17 8.24 C 5.86 7.69 8.11 5.08 6.18 3.57 C 4.44 2.38 1.94 4.51 0.00 4.98 L 0.00 2.95 C 4.60 1.17 9.57 0.75 14.40 0.00 Z" />
<path fill="#6a9060" opacity="1.00" d=" M 17.97 0.00 L 19.05 0.00 C 18.77 1.19 19.01 2.25 19.77 3.20 C 19.60 5.13 18.78 7.38 21.17 8.22 C 19.76 10.92 17.04 12.69 14.36 13.95 C 13.93 12.86 13.48 11.78 13.02 10.70 C 14.11 9.88 15.77 11.04 16.76 9.84 C 15.96 6.39 18.42 3.58 17.97 0.00 Z" />
<path fill="#4b6655" opacity="1.00" d=" M 19.05 0.00 L 21.94 0.00 C 22.37 1.59 20.77 2.36 19.77 3.20 C 19.01 2.25 18.77 1.19 19.05 0.00 Z" />
<path fill="#28383f" opacity="1.00" d=" M 21.94 0.00 L 31.80 0.00 L 31.57 0.83 C 30.32 3.13 31.61 5.31 32.91 7.21 C 33.38 8.52 33.86 9.83 34.31 11.15 C 31.70 10.62 31.28 13.04 34.04 13.42 C 33.07 13.90 32.10 14.38 31.13 14.85 C 28.72 14.97 26.53 16.03 24.74 17.60 L 24.08 18.10 C 24.27 14.94 26.58 6.71 21.17 8.22 C 18.78 7.38 19.60 5.13 19.77 3.20 C 20.77 2.36 22.37 1.59 21.94 0.00 Z" />
<path fill="#6a8e64" opacity="1.00" d=" M 31.80 0.00 L 33.55 0.00 C 34.53 1.46 35.62 2.87 36.93 4.05 C 38.00 3.40 38.99 2.64 40.05 1.98 C 40.05 2.69 40.05 4.11 40.06 4.83 C 39.28 4.90 37.73 5.03 36.95 5.10 C 34.95 3.07 31.04 4.76 31.57 0.83 L 31.80 0.00 Z" />
<path fill="#a2c37f" opacity="1.00" d=" M 33.55 0.00 L 46.47 0.00 C 45.63 1.68 44.05 2.79 42.48 3.72 C 41.95 2.71 41.14 2.13 40.05 1.98 C 38.99 2.64 38.00 3.40 36.93 4.05 C 35.62 2.87 34.53 1.46 33.55 0.00 Z" />
<path fill="#819976" opacity="1.00" d=" M 46.47 0.00 L 48.33 0.00 C 47.63 2.99 45.30 5.90 47.06 8.96 C 44.60 8.65 43.95 7.18 44.89 4.96 C 43.37 4.84 42.62 5.59 42.67 7.22 L 42.16 6.75 C 41.48 6.09 40.77 5.45 40.06 4.83 C 40.05 4.11 40.05 2.69 40.05 1.98 C 41.14 2.13 41.95 2.71 42.48 3.72 C 44.05 2.79 45.63 1.68 46.47 0.00 Z" />
<path fill="#466053" opacity="1.00" d=" M 48.33 0.00 L 52.80 0.00 C 51.80 2.26 55.85 3.91 52.95 6.02 C 53.54 2.03 51.28 5.78 50.12 7.02 C 49.83 5.85 50.38 2.61 48.66 4.77 C 47.43 5.69 48.92 7.50 48.92 8.76 C 48.45 8.81 47.53 8.91 47.06 8.96 C 45.30 5.90 47.63 2.99 48.33 0.00 Z" />
<path fill="#2e4043" opacity="1.00" d=" M 52.80 0.00 L 69.38 0.00 C 67.28 2.90 66.60 7.36 62.11 7.25 C 62.32 7.49 62.76 7.97 62.97 8.22 C 62.67 9.54 62.33 10.85 62.03 12.17 C 61.58 13.06 61.14 13.96 60.72 14.86 C 60.09 16.03 59.53 17.24 59.04 18.48 L 58.42 18.94 C 57.46 17.53 56.19 18.98 55.76 20.00 C 54.46 18.92 52.49 16.86 50.92 18.74 C 49.66 19.80 48.47 20.94 47.26 22.04 C 46.35 20.97 45.41 19.94 44.44 18.93 L 43.79 18.20 C 45.55 17.98 47.47 18.23 49.12 17.46 C 50.73 17.02 51.40 15.46 52.23 14.17 C 54.39 11.85 52.87 8.77 52.95 6.02 C 55.85 3.91 51.80 2.26 52.80 0.00 Z" />
<path fill="#3d504e" opacity="1.00" d=" M 69.38 0.00 L 76.09 0.00 C 76.24 0.41 76.54 1.24 76.69 1.65 C 73.08 3.22 68.87 6.69 70.69 11.07 C 70.10 11.63 69.51 12.19 68.93 12.75 C 66.20 13.47 63.50 14.34 60.72 14.86 C 61.14 13.96 61.58 13.06 62.03 12.17 C 64.22 11.83 65.33 9.92 66.03 8.04 C 65.27 8.08 63.74 8.17 62.97 8.22 C 62.76 7.97 62.32 7.49 62.11 7.25 C 66.60 7.36 67.28 2.90 69.38 0.00 Z" />
<path fill="#70a071" opacity="1.00" d=" M 76.09 0.00 L 83.96 0.00 C 83.96 0.40 83.96 1.20 83.95 1.60 C 83.43 1.90 82.38 2.51 81.85 2.81 C 80.89 3.93 80.02 5.18 79.43 6.54 C 80.51 7.72 83.48 10.23 81.13 11.42 C 79.53 10.61 78.47 9.15 77.15 7.98 C 76.64 9.55 76.20 11.13 75.84 12.74 C 74.08 12.36 72.32 11.86 70.69 11.07 C 68.87 6.69 73.08 3.22 76.69 1.65 C 76.54 1.24 76.24 0.41 76.09 0.00 Z" />
<path fill="#462d39" opacity="1.00" d=" M 83.96 0.00 L 84.79 0.00 C 86.23 1.65 87.70 3.28 89.08 4.97 L 88.00 5.05 C 87.55 4.76 86.66 4.19 86.21 3.90 C 85.46 3.12 84.71 2.36 83.95 1.60 C 83.96 1.20 83.96 0.40 83.96 0.00 Z" />
<path fill="#a15a5c" opacity="1.00" d=" M 84.79 0.00 L 86.71 0.00 C 88.18 1.61 89.65 3.22 91.06 4.89 C 90.56 4.91 89.58 4.95 89.08 4.97 C 87.70 3.28 86.23 1.65 84.79 0.00 Z" />
<path fill="#334546" opacity="1.00" d=" M 86.71 0.00 L 104.25 0.00 C 104.11 0.68 103.84 2.04 103.71 2.72 C 99.81 2.22 97.29 5.27 93.87 6.19 C 92.94 5.74 92.00 5.30 91.06 4.89 C 89.65 3.22 88.18 1.61 86.71 0.00 Z" />
<path fill="#1f2736" opacity="1.00" d=" M 104.25 0.00 L 111.00 0.00 L 111.00 11.69 C 109.81 12.60 108.39 13.31 107.75 14.74 L 107.07 15.17 C 105.64 13.98 104.04 13.04 102.15 12.86 C 99.58 10.41 96.59 8.46 93.87 6.19 C 97.29 5.27 99.81 2.22 103.71 2.72 C 103.84 2.04 104.11 0.68 104.25 0.00 Z" />
<path fill="#4f6d56" opacity="1.00" d=" M 32.91 7.21 C 31.61 5.31 30.32 3.13 31.57 0.83 C 31.04 4.76 34.95 3.07 36.95 5.10 C 39.51 7.78 34.72 7.53 32.91 7.21 Z" />
<path fill="#52745b" opacity="1.00" d=" M 81.85 2.81 C 82.38 2.51 83.43 1.90 83.95 1.60 C 84.71 2.36 85.46 3.12 86.21 3.90 C 84.46 5.51 82.96 4.55 81.85 2.81 Z" />
<path fill="#779f65" opacity="1.00" d=" M 0.00 4.98 C 1.94 4.51 4.44 2.38 6.18 3.57 C 5.15 4.36 4.12 5.16 3.15 6.04 C 2.18 6.93 1.13 7.74 0.00 8.42 L 0.00 4.98 Z" />
<path fill="#324445" opacity="1.00" d=" M 79.43 6.54 C 80.02 5.18 80.89 3.93 81.85 2.81 C 82.96 4.55 84.46 5.51 86.21 3.90 C 86.66 4.19 87.55 4.76 88.00 5.05 C 89.16 6.55 90.35 8.04 91.39 9.62 C 89.16 11.40 86.54 12.55 84.12 14.02 C 82.03 15.12 79.93 17.64 77.36 16.74 C 75.80 14.72 73.90 12.56 71.06 12.92 C 70.53 12.87 69.46 12.79 68.93 12.75 C 69.51 12.19 70.10 11.63 70.69 11.07 C 72.32 11.86 74.08 12.36 75.84 12.74 C 77.62 12.39 79.44 12.09 81.13 11.42 C 83.48 10.23 80.51 7.72 79.43 6.54 Z" />
<path fill="#5f835d" opacity="1.00" d=" M 3.15 6.04 C 4.12 5.16 5.15 4.36 6.18 3.57 C 8.11 5.08 5.86 7.69 4.17 8.24 C 4.75 6.87 5.30 5.42 3.15 6.04 Z" />
<path fill="#658c69" opacity="1.00" d=" M 48.66 4.77 C 50.38 2.61 49.83 5.85 50.12 7.02 C 51.28 5.78 53.54 2.03 52.95 6.02 C 52.70 7.51 52.20 10.50 51.95 12.00 C 50.35 12.20 47.51 14.12 47.86 11.13 C 50.05 10.66 52.91 7.30 48.92 8.76 C 48.92 7.50 47.43 5.69 48.66 4.77 Z" />
<path fill="#3c534d" opacity="1.00" d=" M 36.95 5.10 C 37.73 5.03 39.28 4.90 40.06 4.83 C 40.77 5.45 41.48 6.09 42.16 6.75 C 42.24 9.20 42.32 11.90 39.08 11.02 C 37.49 11.03 35.90 11.08 34.31 11.15 C 33.86 9.83 33.38 8.52 32.91 7.21 C 34.72 7.53 39.51 7.78 36.95 5.10 Z" />
<path fill="#8ab17d" opacity="1.00" d=" M 42.67 7.22 C 42.62 5.59 43.37 4.84 44.89 4.96 C 43.95 7.18 44.60 8.65 47.06 8.96 C 47.53 8.91 48.45 8.81 48.92 8.76 C 52.91 7.30 50.05 10.66 47.86 11.13 C 46.65 11.13 45.44 11.14 44.23 11.17 C 43.63 9.88 43.12 8.56 42.67 7.22 Z" />
<path fill="#202330" opacity="1.00" d=" M 88.00 5.05 L 89.08 4.97 C 89.58 4.95 90.56 4.91 91.06 4.89 C 93.62 8.81 97.32 12.30 102.15 12.86 C 102.34 13.38 102.72 14.44 102.91 14.97 C 103.05 17.50 104.08 19.95 106.18 21.48 C 106.57 24.70 106.84 27.95 107.22 31.18 C 111.07 28.71 109.57 24.54 108.03 21.19 C 109.01 21.39 110.01 21.39 111.00 21.30 L 111.00 43.32 C 109.54 42.00 108.12 40.61 106.98 38.99 C 106.58 37.27 106.12 35.56 105.47 33.91 C 104.95 35.21 104.72 36.76 103.29 37.38 C 105.25 33.73 101.98 32.09 99.12 30.77 C 94.53 29.53 91.08 25.68 86.05 25.76 C 87.46 19.31 94.31 23.90 98.83 23.95 C 99.54 22.12 101.89 14.50 98.57 17.66 C 95.76 20.67 91.53 18.68 88.00 19.99 C 85.84 15.17 96.42 13.87 91.39 9.62 C 90.35 8.04 89.16 6.55 88.00 5.05 Z" />
<path fill="#a35a5f" opacity="1.00" d=" M 91.06 4.89 C 92.00 5.30 92.94 5.74 93.87 6.19 C 96.59 8.46 99.58 10.41 102.15 12.86 C 97.32 12.30 93.62 8.81 91.06 4.89 Z" />
<path fill="#435d54" opacity="1.00" d=" M 3.15 6.04 C 5.30 5.42 4.75 6.87 4.17 8.24 L 3.90 8.89 C 3.28 10.48 2.84 12.48 0.75 11.32 L 0.00 10.85 L 0.00 8.42 C 1.13 7.74 2.18 6.93 3.15 6.04 Z" />
<path fill="#3f5a52" opacity="1.00" d=" M 51.95 12.00 C 52.20 10.50 52.70 7.51 52.95 6.02 C 52.87 8.77 54.39 11.85 52.23 14.17 C 52.16 13.63 52.02 12.54 51.95 12.00 Z" />
<path fill="#5e8063" opacity="1.00" d=" M 42.16 6.75 L 42.67 7.22 C 43.12 8.56 43.63 9.88 44.23 11.17 C 43.51 12.43 42.33 13.29 41.31 14.29 C 41.65 15.65 42.21 16.95 42.78 18.24 C 40.99 18.90 39.08 19.38 37.78 20.89 L 37.03 21.23 C 35.85 20.93 34.71 20.55 33.59 20.08 L 33.83 19.09 C 36.12 19.14 38.16 19.07 35.20 17.57 C 35.93 14.87 38.37 17.56 40.03 17.90 C 40.09 16.62 40.09 15.34 40.04 14.05 C 39.81 13.01 39.49 12.00 39.08 11.02 C 42.32 11.90 42.24 9.20 42.16 6.75 Z" />
<path fill="#354b4b" opacity="1.00" d=" M 21.17 8.22 C 26.58 6.71 24.27 14.94 24.08 18.10 C 23.70 20.13 23.16 22.13 22.67 24.13 C 20.05 24.17 22.46 28.59 21.08 30.41 C 18.79 30.36 17.81 28.83 17.28 26.83 C 14.98 25.44 11.96 24.24 9.65 26.30 C 9.22 26.01 8.36 25.42 7.93 25.13 C 7.96 23.80 7.94 22.47 7.88 21.14 C 6.23 20.13 4.31 19.75 2.55 18.97 C 2.73 18.52 3.08 17.62 3.26 17.17 C 3.48 16.64 3.93 15.57 4.15 15.04 C 7.10 15.16 10.00 15.71 12.93 16.04 C 12.07 14.72 11.14 13.38 11.60 11.73 C 11.96 11.47 12.67 10.96 13.02 10.70 C 13.48 11.78 13.93 12.86 14.36 13.95 C 17.04 12.69 19.76 10.92 21.17 8.22 Z" />
<path fill="#4d6e5b" opacity="1.00" d=" M 62.97 8.22 C 63.74 8.17 65.27 8.08 66.03 8.04 C 65.33 9.92 64.22 11.83 62.03 12.17 C 62.33 10.85 62.67 9.54 62.97 8.22 Z" />
<path fill="#4a6a59" opacity="1.00" d=" M 77.15 7.98 C 78.47 9.15 79.53 10.61 81.13 11.42 C 79.44 12.09 77.62 12.39 75.84 12.74 C 76.20 11.13 76.64 9.55 77.15 7.98 Z" />
<path fill="#6a9160" opacity="1.00" d=" M 0.75 11.32 C 2.84 12.48 3.28 10.48 3.90 8.89 C 4.70 10.53 5.50 12.18 6.17 13.88 C 5.67 14.17 4.66 14.75 4.15 15.04 C 3.93 15.57 3.48 16.64 3.26 17.17 C 3.06 14.98 1.88 13.13 0.75 11.32 Z" />
<path fill="#27363d" opacity="1.00" d=" M 84.12 14.02 C 86.54 12.55 89.16 11.40 91.39 9.62 C 96.42 13.87 85.84 15.17 88.00 19.99 C 91.53 18.68 95.76 20.67 98.57 17.66 C 101.89 14.50 99.54 22.12 98.83 23.95 C 94.31 23.90 87.46 19.31 86.05 25.76 C 91.08 25.68 94.53 29.53 99.12 30.77 C 98.16 31.11 97.22 31.46 96.28 31.84 C 91.38 30.65 85.78 29.91 82.80 25.26 C 84.70 21.88 86.31 18.18 85.93 14.17 C 85.48 14.14 84.58 14.06 84.12 14.02 Z" />
<path fill="#8fba6d" opacity="1.00" d=" M 0.00 10.85 L 0.75 11.32 C 1.88 13.13 3.06 14.98 3.26 17.17 C 3.08 17.62 2.73 18.52 2.55 18.97 C 2.36 19.39 1.98 20.22 1.79 20.64 C 0.62 21.92 2.62 22.29 3.34 23.03 C 2.79 24.62 1.26 25.37 0.00 26.32 L 0.00 10.85 Z" />
<path fill="#749e6d" opacity="1.00" d=" M 34.04 13.42 C 31.28 13.04 31.70 10.62 34.31 11.15 C 35.90 11.08 37.49 11.03 39.08 11.02 C 39.49 12.00 39.81 13.01 40.04 14.05 L 39.19 14.28 C 37.46 14.05 35.75 13.76 34.04 13.42 Z" />
<path fill="#759e73" opacity="1.00" d=" M 44.23 11.17 C 45.44 11.14 46.65 11.13 47.86 11.13 C 47.51 14.12 50.35 12.20 51.95 12.00 C 52.02 12.54 52.16 13.63 52.23 14.17 C 51.40 15.46 50.73 17.02 49.12 17.46 C 48.87 14.75 45.63 12.31 44.15 15.57 C 47.29 16.64 44.35 17.32 42.78 18.24 C 42.21 16.95 41.65 15.65 41.31 14.29 C 42.33 13.29 43.51 12.43 44.23 11.17 Z" />
<path fill="#567658" opacity="1.00" d=" M 6.17 13.88 C 8.10 13.49 9.87 12.61 11.60 11.73 C 11.14 13.38 12.07 14.72 12.93 16.04 C 10.00 15.71 7.10 15.16 4.15 15.04 C 4.66 14.75 5.67 14.17 6.17 13.88 Z" />
<path fill="#2d4144" opacity="1.00" d=" M 107.75 14.74 C 108.39 13.31 109.81 12.60 111.00 11.69 L 111.00 21.30 C 110.01 21.39 109.01 21.39 108.03 21.19 C 107.88 19.04 107.87 16.89 107.75 14.74 Z" />
<path fill="#5b7b60" opacity="1.00" d=" M 34.04 13.42 C 35.75 13.76 37.46 14.05 39.19 14.28 C 37.06 14.92 33.90 15.06 33.84 17.98 C 33.15 17.96 31.79 17.91 31.10 17.89 C 31.53 16.90 31.35 15.86 31.13 14.85 C 32.10 14.38 33.07 13.90 34.04 13.42 Z" />
<path fill="#ae926c" opacity="1.00" d=" M 60.72 14.86 C 63.50 14.34 66.20 13.47 68.93 12.75 C 68.43 15.99 67.13 19.59 70.07 22.08 C 68.48 23.50 67.21 22.57 66.16 21.10 C 66.01 22.72 65.85 24.41 63.77 24.25 C 62.86 22.54 64.03 18.44 61.18 19.07 C 60.91 20.72 60.70 22.38 60.46 24.04 C 59.51 24.96 58.55 24.96 57.60 24.03 C 58.24 22.22 60.86 20.37 59.04 18.48 C 59.53 17.24 60.09 16.03 60.72 14.86 Z" />
<path fill="#917259" opacity="1.00" d=" M 68.93 12.75 C 69.46 12.79 70.53 12.87 71.06 12.92 C 72.33 15.58 72.03 20.19 70.07 22.08 C 67.13 19.59 68.43 15.99 68.93 12.75 Z" />
<path fill="#5d4148" opacity="1.00" d=" M 71.06 12.92 C 73.90 12.56 75.80 14.72 77.36 16.74 C 79.93 17.64 82.03 15.12 84.12 14.02 C 84.58 14.06 85.48 14.14 85.93 14.17 C 86.31 18.18 84.70 21.88 82.80 25.26 C 82.37 24.90 81.49 24.18 81.06 23.82 C 81.44 20.61 77.60 23.45 76.15 24.13 C 77.64 27.44 76.40 30.52 73.05 31.93 C 73.51 29.27 72.69 27.69 69.94 27.99 C 67.64 27.15 65.38 26.16 63.77 24.25 C 65.85 24.41 66.01 22.72 66.16 21.10 C 67.21 22.57 68.48 23.50 70.07 22.08 C 72.03 20.19 72.33 15.58 71.06 12.92 Z" />
<path fill="#a55b5f" opacity="1.00" d=" M 102.15 12.86 C 104.04 13.04 105.64 13.98 107.07 15.17 C 107.03 15.94 106.94 17.48 106.90 18.25 C 105.15 17.75 104.06 16.27 102.91 14.97 C 102.72 14.44 102.34 13.38 102.15 12.86 Z" />
<path fill="#455a53" opacity="1.00" d=" M 39.19 14.28 L 40.04 14.05 C 40.09 15.34 40.09 16.62 40.03 17.90 C 38.37 17.56 35.93 14.87 35.20 17.57 C 38.16 19.07 36.12 19.14 33.83 19.09 L 33.84 17.98 C 33.90 15.06 37.06 14.92 39.19 14.28 Z" />
<path fill="#5e8265" opacity="1.00" d=" M 44.15 15.57 C 45.63 12.31 48.87 14.75 49.12 17.46 C 47.47 18.23 45.55 17.98 43.79 18.20 L 42.78 18.24 C 44.35 17.32 47.29 16.64 44.15 15.57 Z" />
<path fill="#73986a" opacity="1.00" d=" M 24.74 17.60 C 26.53 16.03 28.72 14.97 31.13 14.85 C 31.35 15.86 31.53 16.90 31.10 17.89 C 28.68 18.61 26.70 20.25 24.74 17.60 Z" />
<path fill="#6f3449" opacity="1.00" d=" M 102.91 14.97 C 104.06 16.27 105.15 17.75 106.90 18.25 C 106.84 19.36 106.60 20.44 106.18 21.48 C 104.08 19.95 103.05 17.50 102.91 14.97 Z" />
<path fill="#3d2339" opacity="1.00" d=" M 107.07 15.17 L 107.75 14.74 C 107.87 16.89 107.88 19.04 108.03 21.19 C 109.57 24.54 111.07 28.71 107.22 31.18 C 106.84 27.95 106.57 24.70 106.18 21.48 C 106.60 20.44 106.84 19.36 106.90 18.25 C 106.94 17.48 107.03 15.94 107.07 15.17 Z" />
<path fill="#90b971" opacity="1.00" d=" M 24.08 18.10 L 24.74 17.60 C 25.74 19.52 26.86 21.38 28.31 23.00 C 27.70 23.38 26.48 24.16 25.87 24.54 C 24.78 24.59 23.69 24.56 22.67 24.13 C 23.16 22.13 23.70 20.13 24.08 18.10 Z" />
<path fill="#998299" opacity="1.00" d=" M 24.74 17.60 C 26.70 20.25 28.68 18.61 31.10 17.89 C 31.79 17.91 33.15 17.96 33.84 17.98 L 33.83 19.09 L 33.59 20.08 C 32.60 21.34 31.46 22.50 30.89 24.02 C 30.04 23.66 29.17 23.32 28.31 23.00 C 26.86 21.38 25.74 19.52 24.74 17.60 Z" />
<path fill="#3b524f" opacity="1.00" d=" M 42.78 18.24 L 43.79 18.20 L 44.44 18.93 C 42.85 21.11 40.30 22.27 37.78 20.89 C 39.08 19.38 40.99 18.90 42.78 18.24 Z" />
<path fill="#83b276" opacity="1.00" d=" M 50.92 18.74 C 52.49 16.86 54.46 18.92 55.76 20.00 C 55.78 20.50 55.83 21.51 55.85 22.02 C 54.67 24.38 54.06 27.46 51.18 28.32 L 50.86 27.32 C 50.77 24.44 52.31 21.48 50.92 18.74 Z" />
<path fill="#23241d" opacity="1.00" d=" M 55.76 20.00 C 56.19 18.98 57.46 17.53 58.42 18.94 C 58.07 20.45 57.19 21.72 56.21 22.88 L 55.85 22.02 C 55.83 21.51 55.78 20.50 55.76 20.00 Z" />
<path fill="#597e5f" opacity="1.00" d=" M 1.79 20.64 C 1.98 20.22 2.36 19.39 2.55 18.97 C 4.31 19.75 6.23 20.13 7.88 21.14 C 7.94 22.47 7.96 23.80 7.93 25.13 C 6.95 22.20 5.14 20.19 1.79 20.64 Z" />
<path fill="#222e38" opacity="1.00" d=" M 44.44 18.93 C 45.41 19.94 46.35 20.97 47.26 22.04 L 47.24 22.93 C 45.85 22.96 44.46 23.02 43.08 23.10 C 43.04 24.48 43.04 25.85 43.09 27.23 C 40.73 27.92 38.23 26.75 35.98 27.92 C 34.16 29.00 29.12 29.26 30.72 26.04 L 30.96 25.10 C 32.80 23.54 34.77 22.13 37.03 21.23 L 37.78 20.89 C 40.30 22.27 42.85 21.11 44.44 18.93 Z" />
<path fill="#716843" opacity="1.00" d=" M 47.26 22.04 C 48.47 20.94 49.66 19.80 50.92 18.74 C 52.31 21.48 50.77 24.44 50.86 27.32 C 50.57 26.75 50.01 25.61 49.73 25.04 C 48.18 26.84 47.35 29.44 44.99 30.35 C 42.28 27.55 47.65 25.38 49.11 23.23 C 48.65 23.15 47.71 23.00 47.24 22.93 L 47.26 22.04 Z" />
<path fill="#886f51" opacity="1.00" d=" M 58.42 18.94 L 59.04 18.48 C 60.86 20.37 58.24 22.22 57.60 24.03 C 57.01 24.65 56.42 25.27 55.82 25.88 C 55.91 25.13 56.11 23.63 56.21 22.88 C 57.19 21.72 58.07 20.45 58.42 18.94 Z" />
<path fill="#52403a" opacity="1.00" d=" M 61.18 19.07 C 64.03 18.44 62.86 22.54 63.77 24.25 C 58.64 24.12 67.19 27.00 64.14 29.42 C 63.18 28.49 62.25 27.53 61.24 26.65 C 60.99 25.77 60.73 24.90 60.46 24.04 C 60.70 22.38 60.91 20.72 61.18 19.07 Z" />
<path fill="#374847" opacity="1.00" d=" M 30.89 24.02 C 31.46 22.50 32.60 21.34 33.59 20.08 C 34.71 20.55 35.85 20.93 37.03 21.23 C 34.77 22.13 32.80 23.54 30.96 25.10 L 30.89 24.02 Z" />
<path fill="#7fa26f" opacity="1.00" d=" M 3.34 23.03 C 2.62 22.29 0.62 21.92 1.79 20.64 C 5.14 20.19 6.95 22.20 7.93 25.13 C 8.36 25.42 9.22 26.01 9.65 26.30 C 11.09 26.91 12.65 27.08 14.18 27.28 C 11.77 28.67 6.88 26.72 5.15 29.02 C 4.94 30.69 3.62 31.76 2.09 32.24 C 1.76 32.39 1.10 32.68 0.77 32.83 L 0.00 33.16 L 0.00 29.33 C 3.06 28.83 7.53 25.42 3.34 23.03 Z" />
<path fill="#415c51" opacity="1.00" d=" M 51.18 28.32 C 54.06 27.46 54.67 24.38 55.85 22.02 L 56.21 22.88 C 56.11 23.63 55.91 25.13 55.82 25.88 C 54.03 27.90 56.12 30.05 57.13 31.86 C 56.39 31.76 54.90 31.56 54.16 31.45 C 52.71 31.06 51.25 31.27 49.89 31.83 C 50.27 30.65 50.74 29.48 51.18 28.32 Z" />
<path fill="#251722" opacity="1.00" d=" M 76.15 24.13 C 77.60 23.45 81.44 20.61 81.06 23.82 C 80.62 31.08 85.83 36.96 91.19 41.19 L 90.73 42.02 C 89.68 43.80 89.44 45.97 88.05 47.57 C 83.70 47.53 80.49 43.63 77.79 40.65 L 77.78 39.74 C 78.99 38.99 80.18 38.18 81.18 37.15 C 79.87 37.30 78.58 37.53 77.28 37.70 C 76.22 37.58 75.16 37.53 74.09 37.53 C 71.16 37.64 71.39 35.18 71.15 32.99 C 71.63 32.73 72.58 32.20 73.05 31.93 C 76.40 30.52 77.64 27.44 76.15 24.13 Z" />
<path fill="#a1c887" opacity="1.00" d=" M 3.34 23.03 C 7.53 25.42 3.06 28.83 0.00 29.33 L 0.00 26.32 C 1.26 25.37 2.79 24.62 3.34 23.03 Z" />
<path fill="#bea9be" opacity="1.00" d=" M 28.31 23.00 C 29.17 23.32 30.04 23.66 30.89 24.02 L 30.96 25.10 L 30.72 26.04 C 28.97 26.03 27.17 25.83 25.87 24.54 C 26.48 24.16 27.70 23.38 28.31 23.00 Z" />
<path fill="#4d6850" opacity="1.00" d=" M 43.08 23.10 C 44.46 23.02 45.85 22.96 47.24 22.93 C 45.83 24.34 44.36 25.68 43.09 27.23 C 43.04 25.85 43.04 24.48 43.08 23.10 Z" />
<path fill="#719d6c" opacity="1.00" d=" M 47.24 22.93 C 47.71 23.00 48.65 23.15 49.11 23.23 C 47.65 25.38 42.28 27.55 44.99 30.35 C 46.32 31.61 47.11 33.19 46.95 35.07 C 46.02 34.37 45.09 33.66 44.11 33.03 C 43.91 34.05 43.74 35.07 43.60 36.10 C 41.51 37.49 39.55 35.19 39.14 33.23 C 41.58 31.93 43.72 30.33 43.09 27.23 C 44.36 25.68 45.83 24.34 47.24 22.93 Z" />
<path fill="#698a61" opacity="1.00" d=" M 21.08 30.41 C 22.46 28.59 20.05 24.17 22.67 24.13 C 23.69 24.56 24.78 24.59 25.87 24.54 C 27.17 25.83 28.97 26.03 30.72 26.04 C 29.12 29.26 34.16 29.00 35.98 27.92 C 36.16 29.21 36.35 30.51 36.44 31.82 C 34.79 30.95 33.07 30.31 31.19 30.41 C 29.53 29.15 28.62 26.93 26.36 26.55 C 23.30 24.79 23.69 29.96 21.08 30.41 Z" />
<path fill="#30202a" opacity="1.00" d=" M 55.82 25.88 C 56.42 25.27 57.01 24.65 57.60 24.03 C 58.55 24.96 59.51 24.96 60.46 24.04 C 60.73 24.90 60.99 25.77 61.24 26.65 C 61.80 28.71 62.29 30.82 63.27 32.74 C 65.07 33.35 66.94 33.79 68.86 33.80 C 70.82 33.83 68.60 35.15 68.37 35.83 C 66.94 36.71 65.51 37.61 63.97 38.30 C 61.98 36.42 60.30 37.11 59.86 39.73 C 57.50 39.34 58.14 36.63 57.74 34.90 C 57.13 35.55 56.54 36.21 55.99 36.90 C 54.78 37.23 53.61 37.72 52.35 37.81 C 51.43 36.10 50.55 34.37 49.61 32.67 L 49.89 31.83 C 51.25 31.27 52.71 31.06 54.16 31.45 C 53.02 32.42 51.78 33.42 51.93 35.09 C 53.42 34.21 58.58 33.95 57.13 31.86 C 56.12 30.05 54.03 27.90 55.82 25.88 Z" />
<path fill="#b49e90" opacity="1.00" d=" M 64.14 29.42 C 67.19 27.00 58.64 24.12 63.77 24.25 C 65.38 26.16 67.64 27.15 69.94 27.99 C 67.56 26.85 65.93 30.31 64.14 29.42 Z" />
<path fill="#352032" opacity="1.00" d=" M 81.06 23.82 C 81.49 24.18 82.37 24.90 82.80 25.26 C 85.78 29.91 91.38 30.65 96.28 31.84 C 95.04 35.14 94.76 39.15 93.06 42.04 C 93.36 39.16 92.98 36.31 90.06 35.02 C 89.45 31.40 85.22 30.28 82.80 28.10 C 84.30 31.03 86.57 34.41 90.06 35.02 C 90.53 37.03 92.94 39.22 91.19 41.19 C 85.83 36.96 80.62 31.08 81.06 23.82 Z" />
<path fill="#557252" opacity="1.00" d=" M 9.65 26.30 C 11.96 24.24 14.98 25.44 17.28 26.83 C 16.50 26.94 14.95 27.17 14.18 27.28 C 12.65 27.08 11.09 26.91 9.65 26.30 Z" />
<path fill="#412935" opacity="1.00" d=" M 44.99 30.35 C 47.35 29.44 48.18 26.84 49.73 25.04 C 50.01 25.61 50.57 26.75 50.86 27.32 L 51.18 28.32 C 50.74 29.48 50.27 30.65 49.89 31.83 L 49.61 32.67 C 48.63 34.42 49.57 36.23 50.20 37.89 C 49.93 39.04 49.62 40.17 49.26 41.29 C 47.61 39.58 46.85 37.44 46.95 35.07 C 47.11 33.19 46.32 31.61 44.99 30.35 Z" />
<path fill="#91bc78" opacity="1.00" d=" M 21.08 30.41 C 23.69 29.96 23.30 24.79 26.36 26.55 C 28.62 26.93 29.53 29.15 31.19 30.41 C 33.07 30.31 34.79 30.95 36.44 31.82 C 35.10 33.39 33.48 34.84 32.82 36.86 C 32.04 35.40 31.29 33.91 30.19 32.66 C 30.15 34.51 30.07 38.22 30.03 40.07 C 31.97 39.60 35.15 39.26 32.82 36.86 C 35.99 36.42 34.74 40.13 35.24 42.07 C 35.15 44.82 31.95 43.30 30.19 43.79 C 30.34 41.23 28.04 40.07 25.99 39.26 C 24.90 38.92 23.83 38.55 22.77 38.15 C 25.43 35.49 22.50 32.79 21.08 30.41 Z" />
<path fill="#93bc6d" opacity="1.00" d=" M 14.18 27.28 C 14.95 27.17 16.50 26.94 17.28 26.83 C 17.08 28.60 16.78 30.37 15.90 31.95 C 14.18 34.47 10.20 36.85 12.22 40.24 L 11.88 40.97 C 11.26 41.00 10.02 41.06 9.40 41.09 C 6.82 39.63 4.40 37.70 1.21 37.74 C 0.96 36.12 0.89 34.47 0.77 32.83 C 1.10 32.68 1.76 32.39 2.09 32.24 C 0.82 36.02 4.63 35.19 6.67 33.72 C 7.15 31.49 9.09 27.85 5.15 29.02 C 6.88 26.72 11.77 28.67 14.18 27.28 Z" />
<path fill="#5b6f57" opacity="1.00" d=" M 17.28 26.83 C 17.81 28.83 18.79 30.36 21.08 30.41 C 22.50 32.79 25.43 35.49 22.77 38.15 L 21.80 37.79 C 23.13 33.39 17.91 40.66 18.93 36.10 C 19.49 34.84 21.54 33.32 19.81 32.11 C 17.70 30.72 15.32 36.21 15.90 31.95 C 16.78 30.37 17.08 28.60 17.28 26.83 Z" />
<path fill="#354a4a" opacity="1.00" d=" M 35.98 27.92 C 38.23 26.75 40.73 27.92 43.09 27.23 C 43.72 30.33 41.58 31.93 39.14 33.23 C 39.55 35.19 41.51 37.49 43.60 36.10 C 43.50 37.06 43.33 38.01 43.13 38.96 C 41.49 39.77 39.85 40.59 38.20 41.39 C 32.43 40.67 41.05 34.33 36.44 31.82 C 36.35 30.51 36.16 29.21 35.98 27.92 Z" />
<path fill="#dccab6" opacity="1.00" d=" M 61.24 26.65 C 62.25 27.53 63.18 28.49 64.14 29.42 C 65.93 30.31 67.56 26.85 69.94 27.99 C 72.69 27.69 73.51 29.27 73.05 31.93 C 72.58 32.20 71.63 32.73 71.15 32.99 C 70.58 33.20 69.43 33.60 68.86 33.80 C 66.94 33.79 65.07 33.35 63.27 32.74 C 62.29 30.82 61.80 28.71 61.24 26.65 Z" />
<path fill="#886061" opacity="1.00" d=" M 82.80 28.10 C 85.22 30.28 89.45 31.40 90.06 35.02 C 86.57 34.41 84.30 31.03 82.80 28.10 Z" />
<path fill="#b2d183" opacity="1.00" d=" M 5.15 29.02 C 9.09 27.85 7.15 31.49 6.67 33.72 C 4.63 35.19 0.82 36.02 2.09 32.24 C 3.62 31.76 4.94 30.69 5.15 29.02 Z" />
<path fill="#2d3e43" opacity="1.00" d=" M 96.28 31.84 C 97.22 31.46 98.16 31.11 99.12 30.77 C 101.98 32.09 105.25 33.73 103.29 37.38 C 102.81 38.42 103.04 39.25 103.97 39.86 C 104.90 40.74 105.87 41.61 106.46 42.77 C 106.34 45.50 104.44 47.44 102.36 48.94 C 102.23 48.53 101.96 47.70 101.83 47.28 C 98.10 51.05 92.15 50.44 88.05 47.57 C 89.44 45.97 89.68 43.80 90.73 42.02 C 91.31 42.78 92.09 42.79 93.06 42.04 C 94.76 39.15 95.04 35.14 96.28 31.84 Z" />
<path fill="#779963" opacity="1.00" d=" M 12.22 40.24 C 10.20 36.85 14.18 34.47 15.90 31.95 C 15.32 36.21 17.70 30.72 19.81 32.11 C 21.54 33.32 19.49 34.84 18.93 36.10 C 16.89 37.77 14.71 39.30 12.22 40.24 Z" />
<path fill="#699169" opacity="1.00" d=" M 36.44 31.82 C 41.05 34.33 32.43 40.67 38.20 41.39 C 37.88 41.56 37.26 41.90 36.94 42.06 C 36.52 42.07 35.67 42.07 35.24 42.07 C 34.74 40.13 35.99 36.42 32.82 36.86 C 33.48 34.84 35.10 33.39 36.44 31.82 Z" />
<path fill="#7f624b" opacity="1.00" d=" M 51.93 35.09 C 51.78 33.42 53.02 32.42 54.16 31.45 C 54.90 31.56 56.39 31.76 57.13 31.86 C 58.58 33.95 53.42 34.21 51.93 35.09 Z" />
<path fill="#577154" opacity="1.00" d=" M 0.00 33.16 L 0.77 32.83 C 0.89 34.47 0.96 36.12 1.21 37.74 C 4.40 37.70 6.82 39.63 9.40 41.09 C 8.21 41.40 7.01 41.68 5.82 42.00 C 3.88 42.00 1.94 41.99 0.00 41.97 L 0.00 33.16 Z" />
<path fill="#618665" opacity="1.00" d=" M 30.19 32.66 C 31.29 33.91 32.04 35.40 32.82 36.86 C 35.15 39.26 31.97 39.60 30.03 40.07 C 30.07 38.22 30.15 34.51 30.19 32.66 Z" />
<path fill="#56755e" opacity="1.00" d=" M 44.11 33.03 C 45.09 33.66 46.02 34.37 46.95 35.07 C 46.85 37.44 47.61 39.58 49.26 41.29 C 47.00 41.11 44.76 40.67 43.13 38.96 C 43.33 38.01 43.50 37.06 43.60 36.10 C 43.74 35.07 43.91 34.05 44.11 33.03 Z" />
<path fill="#bf9946" opacity="1.00" d=" M 50.20 37.89 C 49.57 36.23 48.63 34.42 49.61 32.67 C 50.55 34.37 51.43 36.10 52.35 37.81 C 53.61 37.72 54.78 37.23 55.99 36.90 L 55.80 37.78 C 54.57 38.79 53.37 39.83 52.12 40.81 C 51.44 39.86 50.83 38.87 50.20 37.89 Z" />
<path fill="#74504d" opacity="1.00" d=" M 68.86 33.80 C 69.43 33.60 70.58 33.20 71.15 32.99 C 71.39 35.18 71.16 37.64 74.09 37.53 C 72.65 37.85 71.20 38.19 69.79 38.63 C 69.36 38.74 68.51 38.97 68.08 39.09 C 68.19 38.00 68.30 36.91 68.37 35.83 C 68.60 35.15 70.82 33.83 68.86 33.80 Z" />
<path fill="#43253a" opacity="1.00" d=" M 105.47 33.91 C 106.12 35.56 106.58 37.27 106.98 38.99 C 105.51 38.33 103.40 37.15 103.97 39.86 C 103.04 39.25 102.81 38.42 103.29 37.38 C 104.72 36.76 104.95 35.21 105.47 33.91 Z" />
<path fill="#8b8343" opacity="1.00" d=" M 55.99 36.90 C 56.54 36.21 57.13 35.55 57.74 34.90 C 58.14 36.63 57.50 39.34 59.86 39.73 C 61.93 39.76 62.02 41.59 62.25 43.20 C 60.57 42.88 58.92 42.44 57.31 41.89 C 56.37 40.93 55.19 41.81 54.22 42.17 C 54.82 40.74 55.61 39.36 55.80 37.78 L 55.99 36.90 Z" />
<path fill="#6a357d" opacity="1.00" d=" M 90.06 35.02 C 92.98 36.31 93.36 39.16 93.06 42.04 C 92.09 42.79 91.31 42.78 90.73 42.02 L 91.19 41.19 C 92.94 39.22 90.53 37.03 90.06 35.02 Z" />
<path fill="#ab94ac" opacity="1.00" d=" M 12.22 40.24 C 14.71 39.30 16.89 37.77 18.93 36.10 C 17.91 40.66 23.13 33.39 21.80 37.79 C 19.82 39.12 21.38 41.82 19.34 43.08 C 17.04 41.67 14.23 42.88 11.77 43.18 L 10.89 43.11 C 11.13 42.57 11.63 41.50 11.88 40.97 L 12.22 40.24 Z" />
<path fill="#9d7568" opacity="1.00" d=" M 63.97 38.30 C 65.51 37.61 66.94 36.71 68.37 35.83 C 68.30 36.91 68.19 38.00 68.08 39.09 C 66.59 39.99 65.21 39.23 63.97 38.30 Z" />
<path fill="#e1d1c5" opacity="1.00" d=" M 59.86 39.73 C 60.30 37.11 61.98 36.42 63.97 38.30 C 65.21 39.23 66.59 39.99 68.08 39.09 C 68.51 38.97 69.36 38.74 69.79 38.63 C 70.40 38.93 71.61 39.53 72.22 39.84 C 70.65 40.18 69.24 40.94 67.90 41.80 C 66.86 42.64 65.93 42.97 65.66 41.32 C 64.50 41.89 63.39 42.58 62.25 43.20 C 62.02 41.59 61.93 39.76 59.86 39.73 Z" />
<path fill="#8e6f6f" opacity="1.00" d=" M 74.09 37.53 C 75.16 37.53 76.22 37.58 77.28 37.70 C 75.67 38.57 74.05 39.52 72.22 39.84 C 71.61 39.53 70.40 38.93 69.79 38.63 C 71.20 38.19 72.65 37.85 74.09 37.53 Z" />
<path fill="#97a257" opacity="1.00" d=" M 77.28 37.70 C 78.58 37.53 79.87 37.30 81.18 37.15 C 80.18 38.18 78.99 38.99 77.78 39.74 C 75.99 40.19 74.36 41.05 72.78 41.97 C 71.62 42.33 70.47 42.71 69.31 43.07 C 68.96 42.75 68.25 42.12 67.90 41.80 C 69.24 40.94 70.65 40.18 72.22 39.84 C 74.05 39.52 75.67 38.57 77.28 37.70 Z" />
<path fill="#435953" opacity="1.00" d=" M 19.34 43.08 C 21.38 41.82 19.82 39.12 21.80 37.79 C 21.88 39.21 21.99 40.63 22.14 42.05 C 24.27 42.48 25.35 41.06 25.99 39.26 C 28.04 40.07 30.34 41.23 30.19 43.79 L 29.16 43.88 C 27.39 44.01 25.58 44.06 23.91 44.72 C 22.87 44.99 21.83 45.51 20.74 45.16 C 20.27 44.47 19.81 43.77 19.34 43.08 Z" />
<path fill="#78a570" opacity="1.00" d=" M 21.80 37.79 L 22.77 38.15 C 23.83 38.55 24.90 38.92 25.99 39.26 C 25.35 41.06 24.27 42.48 22.14 42.05 C 21.99 40.63 21.88 39.21 21.80 37.79 Z" />
<path fill="#522f4b" opacity="1.00" d=" M 50.20 37.89 C 50.83 38.87 51.44 39.86 52.12 40.81 C 53.37 39.83 54.57 38.79 55.80 37.78 C 55.61 39.36 54.82 40.74 54.22 42.17 C 54.45 42.74 54.92 43.86 55.15 44.42 C 53.50 45.24 51.66 45.01 50.14 44.04 C 49.85 43.12 49.56 42.21 49.26 41.29 C 49.62 40.17 49.93 39.04 50.20 37.89 Z" />
<path fill="#8a4757" opacity="1.00" d=" M 103.97 39.86 C 103.40 37.15 105.51 38.33 106.98 38.99 C 108.12 40.61 109.54 42.00 111.00 43.32 L 111.00 44.84 C 110.04 45.18 109.09 45.53 108.14 45.89 C 107.62 44.83 107.09 43.77 106.46 42.77 C 105.87 41.61 104.90 40.74 103.97 39.86 Z" />
<path fill="#9dc98d" opacity="1.00" d=" M 38.20 41.39 C 39.85 40.59 41.49 39.77 43.13 38.96 C 44.76 40.67 47.00 41.11 49.26 41.29 C 49.56 42.21 49.85 43.12 50.14 44.04 C 48.63 48.72 43.43 49.65 39.18 50.18 C 38.43 50.20 36.94 50.23 36.20 50.25 C 35.60 50.17 34.40 50.00 33.80 49.92 C 34.21 47.94 36.70 48.09 37.41 46.34 C 38.41 45.05 37.11 43.43 36.94 42.06 C 37.26 41.90 37.88 41.56 38.20 41.39 Z" />
<path fill="#3c3733" opacity="1.00" d=" M 72.78 41.97 C 74.36 41.05 75.99 40.19 77.78 39.74 L 77.79 40.65 C 76.92 41.59 76.00 42.49 75.23 43.52 C 76.74 44.12 76.90 45.70 77.12 47.10 C 76.04 47.43 74.93 47.95 73.80 47.49 C 74.14 47.22 74.81 46.69 75.15 46.42 C 76.42 45.18 73.25 43.45 72.78 41.97 Z" />
<path fill="#ebe4eb" opacity="1.00" d=" M 5.82 42.00 C 7.01 41.68 8.21 41.40 9.40 41.09 C 10.02 41.06 11.26 41.00 11.88 40.97 C 11.63 41.50 11.13 42.57 10.89 43.11 C 9.02 43.25 5.46 45.38 5.82 42.00 Z" />
<path fill="#79434a" opacity="1.00" d=" M 54.22 42.17 C 55.19 41.81 56.37 40.93 57.31 41.89 C 57.21 42.37 57.01 43.33 56.91 43.82 C 56.47 43.97 55.59 44.27 55.15 44.42 C 54.92 43.86 54.45 42.74 54.22 42.17 Z" />
<path fill="#605149" opacity="1.00" d=" M 62.25 43.20 C 63.39 42.58 64.50 41.89 65.66 41.32 C 65.93 42.97 66.86 42.64 67.90 41.80 C 68.25 42.12 68.96 42.75 69.31 43.07 C 68.53 43.61 67.75 44.16 66.97 44.71 C 65.92 45.42 64.86 46.12 63.80 46.81 C 63.15 46.90 61.84 47.07 61.18 47.16 C 62.15 45.96 63.28 44.74 62.25 43.20 Z" />
<path fill="#c09348" opacity="1.00" d=" M 75.23 43.52 C 76.00 42.49 76.92 41.59 77.79 40.65 C 77.86 47.12 82.20 52.49 83.17 58.81 L 82.18 58.99 C 81.05 56.14 79.70 53.39 78.08 50.80 C 77.74 49.57 77.40 48.34 77.12 47.10 C 76.90 45.70 76.74 44.12 75.23 43.52 Z" />
<path fill="#1e2730" opacity="1.00" d=" M 77.79 40.65 C 80.49 43.63 83.70 47.53 88.05 47.57 C 92.15 50.44 98.10 51.05 101.83 47.28 C 101.96 47.70 102.23 48.53 102.36 48.94 C 104.44 47.44 106.34 45.50 106.46 42.77 C 107.09 43.77 107.62 44.83 108.14 45.89 C 108.75 47.30 109.95 48.31 111.00 49.38 L 111.00 50.87 C 107.85 48.89 104.71 51.62 102.04 53.18 C 101.78 54.64 103.08 55.21 104.09 55.87 C 102.01 55.89 100.30 57.02 98.67 58.17 C 97.74 58.39 96.83 58.64 95.92 58.94 C 95.42 59.11 94.40 59.47 93.89 59.65 C 92.59 60.12 91.29 60.62 89.97 61.03 L 89.09 61.13 C 86.45 61.91 84.14 61.69 83.17 58.81 C 82.20 52.49 77.86 47.12 77.79 40.65 M 83.95 47.92 C 85.35 51.63 85.27 58.70 91.05 57.01 C 88.57 54.13 87.25 49.90 83.95 47.92 M 91.95 51.95 C 92.13 53.34 92.68 54.63 93.19 55.92 C 94.86 56.41 96.41 54.86 95.92 53.19 C 94.63 52.68 93.33 52.13 91.95 51.95 Z" />
<path fill="#a287a2" opacity="1.00" d=" M 0.00 41.97 C 1.94 41.99 3.88 42.00 5.82 42.00 C 5.46 45.38 9.02 43.25 10.89 43.11 L 11.77 43.18 C 14.32 43.62 16.91 44.18 19.34 43.08 C 19.81 43.77 20.27 44.47 20.74 45.16 C 18.31 46.03 16.00 47.21 13.55 48.05 C 11.96 46.48 9.81 47.16 7.99 47.82 C 6.54 46.79 4.91 46.09 3.20 45.63 C 2.17 44.91 1.10 44.24 0.00 43.62 L 0.00 41.97 Z" />
<path fill="#ece3ec" opacity="1.00" d=" M 11.77 43.18 C 14.23 42.88 17.04 41.67 19.34 43.08 C 16.91 44.18 14.32 43.62 11.77 43.18 Z" />
<path fill="#b3d798" opacity="1.00" d=" M 35.24 42.07 C 35.67 42.07 36.52 42.07 36.94 42.06 C 37.11 43.43 38.41 45.05 37.41 46.34 C 36.70 48.09 34.21 47.94 33.80 49.92 C 33.40 49.87 32.60 49.78 32.21 49.73 C 31.05 49.21 29.96 48.20 28.60 48.51 C 18.60 49.79 25.49 48.94 26.76 46.93 C 27.45 45.83 28.28 44.84 29.16 43.88 L 30.19 43.79 C 31.95 43.30 35.15 44.82 35.24 42.07 Z" />
<path fill="#34382f" opacity="1.00" d=" M 57.31 41.89 C 58.92 42.44 60.57 42.88 62.25 43.20 C 63.28 44.74 62.15 45.96 61.18 47.16 C 61.13 47.90 61.04 49.37 60.99 50.10 C 60.73 50.56 60.21 51.47 59.94 51.92 C 59.15 51.89 57.56 51.82 56.76 51.79 C 57.66 50.13 58.86 48.67 59.96 47.13 C 59.19 47.04 57.65 46.86 56.89 46.77 C 57.89 45.81 59.01 44.97 60.06 44.06 C 59.27 44.00 57.70 43.88 56.91 43.82 C 57.01 43.33 57.21 42.37 57.31 41.89 Z" />
<path fill="#1f2029" opacity="1.00" d=" M 69.31 43.07 C 70.47 42.71 71.62 42.33 72.78 41.97 C 73.25 43.45 76.42 45.18 75.15 46.42 C 73.77 45.57 72.52 44.49 71.01 43.85 C 70.50 46.14 71.36 47.57 73.80 47.49 C 74.93 47.95 76.04 47.43 77.12 47.10 C 77.40 48.34 77.74 49.57 78.08 50.80 C 78.50 54.16 79.62 57.68 82.22 60.00 C 82.80 62.67 80.81 64.12 78.89 61.93 C 77.86 59.90 76.30 58.34 74.04 59.83 C 73.74 59.27 73.16 58.16 72.86 57.61 C 72.31 56.59 71.72 55.60 71.12 54.61 C 70.61 52.42 70.15 50.21 69.82 47.98 C 69.62 46.46 67.92 45.75 66.97 44.71 C 67.75 44.16 68.53 43.61 69.31 43.07 Z" />
<path fill="#729f6e" opacity="1.00" d=" M 0.00 43.62 C 1.10 44.24 2.17 44.91 3.20 45.63 C 2.26 48.30 4.84 47.91 6.61 48.21 C 6.59 49.34 6.56 50.47 6.45 51.59 C 5.29 52.09 4.07 52.55 3.91 53.99 C 3.49 54.31 2.64 54.94 2.22 55.26 C 0.71 52.49 3.59 47.55 0.00 46.60 L 0.00 43.62 Z" />
<path fill="#6e906e" opacity="1.00" d=" M 23.91 44.72 C 25.58 44.06 27.39 44.01 29.16 43.88 C 28.28 44.84 27.45 45.83 26.76 46.93 C 25.80 46.20 24.86 45.45 23.91 44.72 Z" />
<path fill="#21232b" opacity="0.98" d=" M 50.14 44.04 C 51.66 45.01 53.50 45.24 55.15 44.42 C 55.59 44.27 56.47 43.97 56.91 43.82 C 57.70 43.88 59.27 44.00 60.06 44.06 C 59.01 44.97 57.89 45.81 56.89 46.77 C 57.65 46.86 59.19 47.04 59.96 47.13 C 58.86 48.67 57.66 50.13 56.76 51.79 C 55.91 52.62 55.08 53.49 54.14 54.21 C 53.36 54.15 51.81 54.03 51.03 53.96 C 51.65 52.96 52.34 52.01 52.96 51.02 C 51.04 51.21 49.13 51.66 47.19 51.34 C 44.45 50.81 41.79 51.83 39.10 52.20 C 38.79 51.94 38.16 51.41 37.85 51.14 C 38.18 50.90 38.85 50.42 39.18 50.18 C 43.43 49.65 48.63 48.72 50.14 44.04 Z" />
<path fill="#696c3c" opacity="1.00" d=" M 71.01 43.85 C 72.52 44.49 73.77 45.57 75.15 46.42 C 74.81 46.69 74.14 47.22 73.80 47.49 C 71.36 47.57 70.50 46.14 71.01 43.85 Z" />
<path fill="#6e956d" opacity="1.00" d=" M 13.55 48.05 C 16.00 47.21 18.31 46.03 20.74 45.16 C 21.83 45.51 22.87 44.99 23.91 44.72 C 24.58 50.21 13.03 45.52 14.15 51.30 C 12.52 51.82 10.81 52.04 9.12 52.30 C 8.82 50.64 9.50 49.84 11.14 49.89 C 12.37 49.88 13.18 49.27 13.55 48.05 Z" />
<path fill="#9fc38d" opacity="1.00" d=" M 23.91 44.72 C 24.86 45.45 25.80 46.20 26.76 46.93 C 25.49 48.94 18.60 49.79 28.60 48.51 C 29.96 48.20 31.05 49.21 32.21 49.73 C 27.16 49.97 22.07 49.97 17.11 50.99 C 16.37 51.07 14.89 51.22 14.15 51.30 C 13.03 45.52 24.58 50.21 23.91 44.72 Z" />
<path fill="#834645" opacity="1.00" d=" M 63.80 46.81 C 64.86 46.12 65.92 45.42 66.97 44.71 C 67.92 45.75 69.62 46.46 69.82 47.98 C 68.80 49.54 67.46 50.86 65.89 51.87 C 64.69 52.19 63.49 52.54 62.28 52.82 C 61.69 52.59 60.53 52.15 59.94 51.92 C 60.21 51.47 60.73 50.56 60.99 50.10 C 63.67 50.09 66.59 49.52 68.20 47.16 C 66.74 47.01 65.27 46.89 63.80 46.81 Z" />
<path fill="#5e2d46" opacity="1.00" d=" M 108.14 45.89 C 109.09 45.53 110.04 45.18 111.00 44.84 L 111.00 49.38 C 109.95 48.31 108.75 47.30 108.14 45.89 Z" />
<path fill="#587561" opacity="1.00" d=" M 3.20 45.63 C 4.91 46.09 6.54 46.79 7.99 47.82 C 9.00 48.56 10.08 49.22 11.14 49.89 C 9.50 49.84 8.82 50.64 9.12 52.30 C 7.39 52.88 5.62 53.35 3.91 53.99 C 4.07 52.55 5.29 52.09 6.45 51.59 C 6.56 50.47 6.59 49.34 6.61 48.21 C 4.84 47.91 2.26 48.30 3.20 45.63 Z" />
<path fill="#435e4f" opacity="1.00" d=" M 0.00 46.60 C 3.59 47.55 0.71 52.49 2.22 55.26 C 1.48 55.94 0.74 56.63 0.00 57.31 L 0.00 46.60 Z" />
<path fill="#3c4b4d" opacity="1.00" d=" M 7.99 47.82 C 9.81 47.16 11.96 46.48 13.55 48.05 C 13.18 49.27 12.37 49.88 11.14 49.89 C 10.08 49.22 9.00 48.56 7.99 47.82 Z" />
<path fill="#cc8948" opacity="1.00" d=" M 61.18 47.16 C 61.84 47.07 63.15 46.90 63.80 46.81 C 65.27 46.89 66.74 47.01 68.20 47.16 C 66.59 49.52 63.67 50.09 60.99 50.10 C 61.04 49.37 61.13 47.90 61.18 47.16 Z" />
<path fill="#5d2c56" opacity="1.00" d=" M 65.89 51.87 C 67.46 50.86 68.80 49.54 69.82 47.98 C 70.15 50.21 70.61 52.42 71.12 54.61 C 70.45 55.45 69.79 56.30 69.14 57.15 C 68.59 55.64 70.04 52.13 67.94 52.01 C 67.43 51.97 66.40 51.90 65.89 51.87 Z" />
<path fill="#293c49" opacity="1.00" d=" M 83.95 47.92 C 87.25 49.90 88.57 54.13 91.05 57.01 C 85.27 58.70 85.35 51.63 83.95 47.92 Z" />
<path fill="#37442e" opacity="1.00" d=" M 17.11 50.99 C 22.07 49.97 27.16 49.97 32.21 49.73 C 32.60 49.78 33.40 49.87 33.80 49.92 C 34.40 50.00 35.60 50.17 36.20 50.25 C 34.75 50.74 33.29 51.18 31.85 51.66 C 26.85 51.94 21.85 52.04 16.86 51.95 L 17.11 50.99 Z" />
<path fill="#536b44" opacity="1.00" d=" M 36.20 50.25 C 36.94 50.23 38.43 50.20 39.18 50.18 C 38.85 50.42 38.18 50.90 37.85 51.14 C 34.76 53.53 31.29 55.32 27.70 56.82 C 25.77 57.25 23.86 57.76 21.95 58.26 C 23.27 59.57 24.77 60.69 26.14 61.95 C 21.55 61.46 16.20 60.30 12.23 63.27 C 12.36 62.69 12.63 61.54 12.76 60.96 C 14.23 59.97 15.75 59.07 17.27 58.15 C 22.45 56.16 27.44 53.38 33.03 52.74 C 32.74 52.47 32.14 51.93 31.85 51.66 C 33.29 51.18 34.75 50.74 36.20 50.25 Z" />
<path fill="#2b3e63" opacity="1.00" d=" M 102.04 53.18 C 104.71 51.62 107.85 48.89 111.00 50.87 L 111.00 52.55 C 109.47 53.25 108.14 54.32 107.15 55.67 C 106.38 55.72 104.85 55.82 104.09 55.87 C 103.08 55.21 101.78 54.64 102.04 53.18 Z" />
<path fill="#506135" opacity="1.00" d=" M 14.15 51.30 C 14.89 51.22 16.37 51.07 17.11 50.99 L 16.86 51.95 C 14.25 52.95 11.66 54.00 9.04 54.99 C 6.14 55.99 3.33 57.26 0.67 58.78 L 0.00 59.14 L 0.00 57.31 C 0.74 56.63 1.48 55.94 2.22 55.26 C 2.64 54.94 3.49 54.31 3.91 53.99 C 5.62 53.35 7.39 52.88 9.12 52.30 C 10.81 52.04 12.52 51.82 14.15 51.30 Z" />
<path fill="#2e4141" opacity="1.00" d=" M 27.70 56.82 C 31.29 55.32 34.76 53.53 37.85 51.14 C 38.16 51.41 38.79 51.94 39.10 52.20 C 38.77 52.45 38.13 52.94 37.80 53.18 C 35.40 56.19 31.70 59.96 27.70 56.82 Z" />
<path fill="#3e5a4b" opacity="1.00" d=" M 39.10 52.20 C 41.79 51.83 44.45 50.81 47.19 51.34 C 46.38 54.01 42.28 53.28 41.86 56.29 C 40.20 55.72 38.98 54.43 37.80 53.18 C 38.13 52.94 38.77 52.45 39.10 52.20 Z" />
<path fill="#313d39" opacity="1.00" d=" M 47.19 51.34 C 49.13 51.66 51.04 51.21 52.96 51.02 C 52.34 52.01 51.65 52.96 51.03 53.96 C 51.81 54.03 53.36 54.15 54.14 54.21 C 49.88 55.74 45.49 57.00 41.12 58.23 L 41.36 57.32 C 41.48 57.06 41.73 56.55 41.86 56.29 C 42.28 53.28 46.38 54.01 47.19 51.34 Z" />
<path fill="#53273e" opacity="1.00" d=" M 78.08 50.80 C 79.70 53.39 81.05 56.14 82.18 58.99 L 82.22 60.00 C 79.62 57.68 78.50 54.16 78.08 50.80 Z" />
<path fill="#add290" opacity="1.00" d=" M 9.04 54.99 C 11.66 54.00 14.25 52.95 16.86 51.95 C 21.85 52.04 26.85 51.94 31.85 51.66 C 32.14 51.93 32.74 52.47 33.03 52.74 C 27.44 53.38 22.45 56.16 17.27 58.15 C 16.72 57.91 15.62 57.42 15.07 57.17 C 13.49 59.38 10.98 58.30 8.80 57.92 C 8.86 57.18 8.98 55.72 9.04 54.99 Z" />
<path fill="#d49c46" opacity="1.00" d=" M 54.14 54.21 C 55.08 53.49 55.91 52.62 56.76 51.79 C 57.56 51.82 59.15 51.89 59.94 51.92 C 60.53 52.15 61.69 52.59 62.28 52.82 C 61.19 53.16 60.12 53.56 59.08 54.02 C 54.58 55.82 51.73 60.08 47.86 62.86 C 46.01 63.99 44.08 67.48 41.55 66.11 C 42.03 65.58 43.00 64.52 43.48 63.99 C 45.30 62.44 46.62 60.40 47.17 58.06 C 45.48 58.75 43.84 59.57 42.19 60.34 C 41.60 60.08 40.42 59.57 39.84 59.31 C 40.16 59.04 40.80 58.50 41.12 58.23 C 45.49 57.00 49.88 55.74 54.14 54.21 Z" />
<path fill="#6f853c" opacity="1.00" d=" M 62.28 52.82 C 63.49 52.54 64.69 52.19 65.89 51.87 C 66.40 51.90 67.43 51.97 67.94 52.01 C 67.97 56.40 68.02 60.80 67.92 65.19 C 66.51 63.88 65.19 62.48 63.86 61.09 C 63.43 59.89 63.11 58.65 62.73 57.44 C 61.45 57.60 60.18 57.84 58.89 57.97 C 59.16 55.80 61.05 54.46 62.28 52.82 Z" />
<path fill="#3c4028" opacity="1.00" d=" M 67.94 52.01 C 70.04 52.13 68.59 55.64 69.14 57.15 C 69.15 57.56 69.16 58.38 69.17 58.80 C 69.05 64.57 68.99 70.34 68.89 76.12 L 68.83 77.20 C 68.42 74.39 68.02 71.60 67.78 68.77 C 67.86 67.58 67.91 66.39 67.92 65.19 C 68.02 60.80 67.97 56.40 67.94 52.01 Z" />
<path fill="#2e455b" opacity="1.00" d=" M 91.95 51.95 C 93.33 52.13 94.63 52.68 95.92 53.19 C 96.41 54.86 94.86 56.41 93.19 55.92 C 92.68 54.63 92.13 53.34 91.95 51.95 Z" />
<path fill="#70a374" opacity="1.00" d=" M 27.70 56.82 C 31.70 59.96 35.40 56.19 37.80 53.18 C 38.98 54.43 40.20 55.72 41.86 56.29 C 41.73 56.55 41.48 57.06 41.36 57.32 C 38.46 58.27 35.30 58.92 33.04 61.12 C 32.47 61.46 31.33 62.13 30.77 62.47 C 30.27 62.48 29.27 62.50 28.77 62.51 C 27.88 62.37 27.01 62.19 26.14 61.95 C 24.77 60.69 23.27 59.57 21.95 58.26 C 23.86 57.76 25.77 57.25 27.70 56.82 Z" />
<path fill="#1c2328" opacity="1.00" d=" M 59.08 54.02 C 60.12 53.56 61.19 53.16 62.28 52.82 C 61.05 54.46 59.16 55.80 58.89 57.97 C 60.18 57.84 61.45 57.60 62.73 57.44 C 63.11 58.65 63.43 59.89 63.86 61.09 C 62.75 62.07 61.52 63.17 61.99 64.82 C 62.16 68.02 62.94 71.15 63.66 74.27 C 63.95 75.59 64.26 76.91 64.61 78.21 C 64.75 78.85 65.03 80.12 65.16 80.76 C 65.17 83.50 65.11 86.25 64.99 89.00 C 63.13 89.07 64.40 86.12 63.82 84.95 C 61.21 85.16 60.20 88.90 60.56 91.18 C 56.39 94.36 57.07 100.04 53.23 103.25 C 52.96 101.92 52.13 100.44 53.11 99.20 C 56.23 91.43 60.76 83.76 60.03 75.08 C 59.54 72.26 59.36 68.03 56.31 66.87 C 59.07 64.15 56.77 61.22 54.78 58.84 C 56.25 57.27 57.71 55.68 59.08 54.02 Z" />
<path fill="#452943" opacity="1.00" d=" M 107.15 55.67 C 108.14 54.32 109.47 53.25 111.00 52.55 L 111.00 71.63 C 106.43 73.24 103.29 77.20 99.01 79.31 C 97.60 76.73 96.64 73.93 97.02 70.95 C 100.47 71.74 99.51 65.52 96.17 66.73 C 93.99 66.06 91.18 65.29 89.73 67.64 C 88.62 69.76 91.94 72.11 92.87 74.14 C 91.81 73.84 90.73 73.35 89.64 73.80 C 89.45 73.57 89.06 73.11 88.86 72.88 C 87.25 71.19 84.76 70.79 82.71 69.82 C 85.49 67.86 91.38 67.09 91.38 63.16 C 92.68 62.54 93.95 61.87 95.20 61.14 C 95.90 62.54 96.97 62.70 98.25 61.83 L 98.92 61.78 C 101.10 62.67 103.72 63.77 105.26 61.23 C 107.01 59.86 109.01 57.89 107.15 55.67 Z" />
<path fill="#803b53" opacity="1.00" d=" M 47.86 62.86 C 51.73 60.08 54.58 55.82 59.08 54.02 C 57.71 55.68 56.25 57.27 54.78 58.84 C 50.99 62.48 47.28 66.22 43.59 69.96 L 42.97 70.14 C 40.74 70.60 39.07 72.27 37.03 73.17 L 37.35 72.30 C 38.36 70.90 39.20 69.39 39.96 67.83 C 40.48 67.25 41.01 66.67 41.55 66.11 C 44.08 67.48 46.01 63.99 47.86 62.86 Z" />
<path fill="#2d3c3e" opacity="1.00" d=" M 0.67 58.78 C 3.33 57.26 6.14 55.99 9.04 54.99 C 8.98 55.72 8.86 57.18 8.80 57.92 L 8.56 58.85 C 8.57 59.80 7.10 62.04 8.98 61.89 C 11.50 61.44 9.52 64.59 12.02 64.22 C 11.95 66.99 10.56 69.52 8.28 71.10 C 8.56 68.06 6.76 66.22 4.45 64.64 C 4.07 62.14 2.53 60.36 0.67 58.78 Z" />
<path fill="#7f3a4d" opacity="1.00" d=" M 69.14 57.15 C 69.79 56.30 70.45 55.45 71.12 54.61 C 71.72 55.60 72.31 56.59 72.86 57.61 C 70.74 60.45 73.99 63.28 75.28 65.72 C 76.80 67.64 78.28 71.20 81.29 70.28 L 81.94 70.14 C 83.24 72.47 85.14 74.43 86.23 76.88 C 85.17 76.53 84.12 76.17 83.08 75.78 C 80.55 73.38 77.53 71.56 74.96 69.20 C 74.34 65.96 71.90 63.48 70.16 60.80 C 69.91 60.30 69.41 59.30 69.17 58.80 C 69.16 58.38 69.15 57.56 69.14 57.15 Z" />
<path fill="#b88478" opacity="1.00" d=" M 98.67 58.17 C 100.30 57.02 102.01 55.89 104.09 55.87 C 104.85 55.82 106.38 55.72 107.15 55.67 C 107.53 59.79 101.30 59.05 98.67 58.17 Z" />
<path fill="#944d5b" opacity="1.00" d=" M 107.15 55.67 C 109.01 57.89 107.01 59.86 105.26 61.23 C 103.67 61.37 100.50 61.64 98.92 61.78 L 98.25 61.83 C 97.58 60.78 96.76 59.85 95.92 58.94 C 96.83 58.64 97.74 58.39 98.67 58.17 C 101.30 59.05 107.53 59.79 107.15 55.67 Z" />
<path fill="#92ae79" opacity="1.00" d=" M 8.80 57.92 C 10.98 58.30 13.49 59.38 15.07 57.17 C 15.62 57.42 16.72 57.91 17.27 58.15 C 15.75 59.07 14.23 59.97 12.76 60.96 C 10.93 61.20 9.49 60.43 8.56 58.85 L 8.80 57.92 Z" />
<path fill="#5a6145" opacity="1.00" d=" M 33.04 61.12 C 35.30 58.92 38.46 58.27 41.36 57.32 L 41.12 58.23 C 40.80 58.50 40.16 59.04 39.84 59.31 C 37.60 60.01 35.34 60.67 33.04 61.12 Z" />
<path fill="#834544" opacity="1.00" d=" M 42.19 60.34 C 43.84 59.57 45.48 58.75 47.17 58.06 C 46.62 60.40 45.30 62.44 43.48 63.99 C 38.96 61.34 32.93 66.41 28.77 62.51 C 29.27 62.50 30.27 62.48 30.77 62.47 C 34.96 64.14 38.75 62.48 42.19 60.34 Z" />
<path fill="#ad5363" opacity="1.00" d=" M 75.28 65.72 C 73.99 63.28 70.74 60.45 72.86 57.61 C 73.16 58.16 73.74 59.27 74.04 59.83 C 74.53 60.85 74.99 61.92 75.65 62.86 C 77.46 65.39 79.37 67.84 81.29 70.28 C 78.28 71.20 76.80 67.64 75.28 65.72 Z" />
<path fill="#1d2432" opacity="1.00" d=" M 0.00 59.14 L 0.67 58.78 C 2.53 60.36 4.07 62.14 4.45 64.64 C 6.76 66.22 8.56 68.06 8.28 71.10 C 10.56 69.52 11.95 66.99 12.02 64.22 L 12.23 63.27 C 16.20 60.30 21.55 61.46 26.14 61.95 C 27.01 62.19 27.88 62.37 28.77 62.51 C 32.93 66.41 38.96 61.34 43.48 63.99 C 43.00 64.52 42.03 65.58 41.55 66.11 C 41.01 66.67 40.48 67.25 39.96 67.83 C 38.57 68.06 37.18 68.27 35.81 68.59 C 28.89 70.17 21.91 71.45 14.84 72.16 C 11.79 72.57 8.69 72.89 5.81 74.02 L 5.11 73.70 C 3.62 72.40 1.76 71.72 0.00 70.89 L 0.00 59.14 Z" />
<path fill="#435240" opacity="1.00" d=" M 8.98 61.89 C 7.10 62.04 8.57 59.80 8.56 58.85 C 9.49 60.43 10.93 61.20 12.76 60.96 C 12.63 61.54 12.36 62.69 12.23 63.27 L 12.02 64.22 C 9.52 64.59 11.50 61.44 8.98 61.89 Z" />
<path fill="#d7875c" opacity="1.00" d=" M 33.04 61.12 C 35.34 60.67 37.60 60.01 39.84 59.31 C 40.42 59.57 41.60 60.08 42.19 60.34 C 38.75 62.48 34.96 64.14 30.77 62.47 C 31.33 62.13 32.47 61.46 33.04 61.12 Z" />
<path fill="#563645" opacity="1.00" d=" M 43.59 69.96 C 47.28 66.22 50.99 62.48 54.78 58.84 C 56.77 61.22 59.07 64.15 56.31 66.87 C 56.23 67.38 56.08 68.40 56.00 68.90 L 55.29 69.20 C 55.68 66.20 52.56 66.94 50.74 67.56 C 48.95 68.02 47.26 68.80 45.67 69.74 C 47.28 69.88 50.51 70.15 52.12 70.28 C 49.37 70.87 46.05 71.86 43.59 69.96 Z" />
<path fill="#401e3b" opacity="1.00" d=" M 69.17 58.80 C 69.41 59.30 69.91 60.30 70.16 60.80 C 70.55 62.51 71.04 64.19 71.46 65.90 C 70.84 67.65 72.24 68.76 73.34 69.89 C 72.49 72.21 71.38 74.42 69.92 76.41 L 68.89 76.12 C 68.99 70.34 69.05 64.57 69.17 58.80 Z" />
<path fill="#56283f" opacity="1.00" d=" M 74.04 59.83 C 76.30 58.34 77.86 59.90 78.89 61.93 C 77.79 62.18 76.71 62.49 75.65 62.86 C 74.99 61.92 74.53 60.85 74.04 59.83 Z" />
<path fill="#7e4144" opacity="1.00" d=" M 82.18 58.99 L 83.17 58.81 C 84.14 61.69 86.45 61.91 89.09 61.13 C 88.85 62.78 89.33 64.80 87.80 65.93 C 84.72 65.76 82.69 62.87 82.22 60.00 L 82.18 58.99 Z" />
<path fill="#653348" opacity="1.00" d=" M 93.89 59.65 C 94.40 59.47 95.42 59.11 95.92 58.94 C 96.76 59.85 97.58 60.78 98.25 61.83 C 96.97 62.70 95.90 62.54 95.20 61.14 C 94.87 60.77 94.22 60.02 93.89 59.65 Z" />
<path fill="#3c2032" opacity="1.00" d=" M 82.22 60.00 C 82.69 62.87 84.72 65.76 87.80 65.93 C 89.33 64.80 88.85 62.78 89.09 61.13 L 89.97 61.03 C 90.32 61.56 91.02 62.63 91.38 63.16 C 91.38 67.09 85.49 67.86 82.71 69.82 L 81.94 70.14 L 81.29 70.28 C 79.37 67.84 77.46 65.39 75.65 62.86 C 76.71 62.49 77.79 62.18 78.89 61.93 C 80.81 64.12 82.80 62.67 82.22 60.00 Z" />
<path fill="#8b4c55" opacity="1.00" d=" M 89.97 61.03 C 91.29 60.62 92.59 60.12 93.89 59.65 C 94.22 60.02 94.87 60.77 95.20 61.14 C 93.95 61.87 92.68 62.54 91.38 63.16 C 91.02 62.63 90.32 61.56 89.97 61.03 Z" />
<path fill="#617640" opacity="1.00" d=" M 63.86 61.09 C 65.19 62.48 66.51 63.88 67.92 65.19 C 67.91 66.39 67.86 67.58 67.78 68.77 C 66.03 71.64 65.01 74.89 64.61 78.21 C 64.26 76.91 63.95 75.59 63.66 74.27 C 62.64 71.69 66.28 65.11 61.99 64.82 C 61.52 63.17 62.75 62.07 63.86 61.09 Z" />
<path fill="#5d2946" opacity="1.00" d=" M 70.16 60.80 C 71.90 63.48 74.34 65.96 74.96 69.20 C 73.74 68.16 72.57 67.05 71.46 65.90 C 71.04 64.19 70.55 62.51 70.16 60.80 Z" />
<path fill="#73394e" opacity="1.00" d=" M 98.92 61.78 C 100.50 61.64 103.67 61.37 105.26 61.23 C 103.72 63.77 101.10 62.67 98.92 61.78 Z" />
<path fill="#314443" opacity="1.00" d=" M 61.99 64.82 C 66.28 65.11 62.64 71.69 63.66 74.27 C 62.94 71.15 62.16 68.02 61.99 64.82 Z" />
<path fill="#212028" opacity="1.00" d=" M 73.34 69.89 C 72.24 68.76 70.84 67.65 71.46 65.90 C 72.57 67.05 73.74 68.16 74.96 69.20 C 77.53 71.56 80.55 73.38 83.08 75.78 C 80.91 79.26 77.69 76.29 75.15 74.94 C 74.98 73.11 75.05 71.04 73.34 69.89 Z" />
<path fill="#1c212e" opacity="1.00" d=" M 89.73 67.64 C 91.18 65.29 93.99 66.06 96.17 66.73 C 96.52 68.12 96.81 69.53 97.02 70.95 C 95.97 71.31 94.93 71.70 93.89 72.11 C 92.33 70.79 91.03 69.21 89.73 67.64 Z" />
<path fill="#844656" opacity="1.00" d=" M 50.74 67.56 C 52.56 66.94 55.68 66.20 55.29 69.20 C 54.27 69.65 53.21 70.01 52.12 70.28 C 52.76 69.55 53.39 68.81 54.01 68.06 C 53.19 67.94 51.56 67.69 50.74 67.56 Z" />
<path fill="#3d5748" opacity="1.00" d=" M 56.31 66.87 C 59.36 68.03 59.54 72.26 60.03 75.08 C 59.17 73.62 57.77 72.96 56.12 72.85 C 56.07 71.53 56.03 70.22 56.00 68.90 C 56.08 68.40 56.23 67.38 56.31 66.87 Z" />
<path fill="#4b4269" opacity="1.00" d=" M 96.17 66.73 C 99.51 65.52 100.47 71.74 97.02 70.95 C 96.81 69.53 96.52 68.12 96.17 66.73 Z" />
<path fill="#5b343a" opacity="1.00" d=" M 35.81 68.59 C 37.18 68.27 38.57 68.06 39.96 67.83 C 39.20 69.39 38.36 70.90 37.35 72.30 L 37.20 71.16 C 37.90 69.62 37.91 68.41 35.81 68.59 Z" />
<path fill="#a35d63" opacity="1.00" d=" M 45.67 69.74 C 47.26 68.80 48.95 68.02 50.74 67.56 C 51.56 67.69 53.19 67.94 54.01 68.06 C 53.39 68.81 52.76 69.55 52.12 70.28 C 50.51 70.15 47.28 69.88 45.67 69.74 Z" />
<path fill="#5d337c" opacity="1.00" d=" M 92.87 74.14 C 91.94 72.11 88.62 69.76 89.73 67.64 C 91.03 69.21 92.33 70.79 93.89 72.11 C 95.03 74.05 95.56 75.92 92.87 74.14 Z" />
<path fill="#c28376" opacity="1.00" d=" M 14.84 72.16 C 21.91 71.45 28.89 70.17 35.81 68.59 C 37.91 68.41 37.90 69.62 37.20 71.16 C 30.19 71.62 23.24 72.61 16.26 73.32 C 15.90 73.03 15.19 72.45 14.84 72.16 Z" />
<path fill="#372132" opacity="1.00" d=" M 55.29 69.20 L 56.00 68.90 C 56.03 70.22 56.07 71.53 56.12 72.85 C 55.92 73.42 55.51 74.57 55.30 75.14 C 55.20 74.36 54.99 72.79 54.88 72.01 C 52.32 72.61 49.88 73.71 47.24 73.92 C 45.26 72.25 42.67 74.67 40.62 73.14 C 41.40 72.14 42.18 71.14 42.97 70.14 L 43.59 69.96 C 46.05 71.86 49.37 70.87 52.12 70.28 C 53.21 70.01 54.27 69.65 55.29 69.20 Z" />
<path fill="#6d863f" opacity="1.00" d=" M 64.61 78.21 C 65.01 74.89 66.03 71.64 67.78 68.77 C 68.02 71.60 68.42 74.39 68.83 77.20 C 68.90 78.50 68.95 79.80 68.98 81.11 C 68.94 81.64 68.87 82.70 68.83 83.24 C 67.82 82.59 66.84 81.91 65.85 81.24 L 65.16 80.76 C 65.03 80.12 64.75 78.85 64.61 78.21 Z" />
<path fill="#65336e" opacity="1.00" d=" M 37.03 73.17 C 39.07 72.27 40.74 70.60 42.97 70.14 C 42.18 71.14 41.40 72.14 40.62 73.14 C 39.71 73.67 38.80 74.20 37.91 74.76 C 37.43 75.06 36.47 75.66 35.99 75.97 C 36.32 75.03 36.67 74.09 37.03 73.17 Z" />
<path fill="#522752" opacity="1.00" d=" M 73.34 69.89 C 75.05 71.04 74.98 73.11 75.15 74.94 C 74.77 76.69 75.63 79.13 74.15 80.39 C 72.69 79.12 71.29 77.78 69.92 76.41 C 71.38 74.42 72.49 72.21 73.34 69.89 Z" />
<path fill="#212229" opacity="1.00" d=" M 81.94 70.14 L 82.71 69.82 C 84.76 70.79 87.25 71.19 88.86 72.88 C 85.41 72.64 88.12 76.81 87.97 78.78 C 87.38 79.12 86.20 79.81 85.62 80.15 C 84.52 78.85 83.75 77.33 83.08 75.78 C 84.12 76.17 85.17 76.53 86.23 76.88 C 85.14 74.43 83.24 72.47 81.94 70.14 Z" />
<path fill="#0e0a0f" opacity="1.00" d=" M 0.00 70.89 C 1.76 71.72 3.62 72.40 5.11 73.70 C 3.38 73.95 1.66 74.29 0.00 74.85 L 0.00 70.89 Z" />
<path fill="#814252" opacity="1.00" d=" M 16.26 73.32 C 23.24 72.61 30.19 71.62 37.20 71.16 L 37.35 72.30 C 30.64 73.77 23.83 74.74 17.12 76.18 C 11.49 77.11 5.58 78.90 0.00 76.83 L 0.00 74.85 C 1.66 74.29 3.38 73.95 5.11 73.70 L 5.81 74.02 C 9.25 75.90 12.90 74.30 16.26 73.32 Z" />
<path fill="#090a09" opacity="0.92" d=" M 93.89 72.11 C 94.93 71.70 95.97 71.31 97.02 70.95 C 96.64 73.93 97.60 76.73 99.01 79.31 C 99.19 79.75 99.56 80.64 99.74 81.08 C 98.74 82.00 97.70 82.88 96.81 83.91 C 96.27 84.74 95.95 85.68 95.85 86.71 C 94.38 87.22 93.14 88.27 92.71 89.80 L 91.94 89.92 C 89.06 89.63 86.59 90.93 84.78 93.11 C 84.30 93.08 83.34 93.00 82.86 92.97 C 84.44 88.99 88.03 86.56 92.41 86.49 C 93.34 83.80 95.51 82.13 97.86 80.72 C 97.84 78.05 94.77 75.59 92.08 75.94 C 92.05 76.77 91.98 78.43 91.95 79.26 C 91.06 77.49 90.32 75.65 89.64 73.80 C 90.73 73.35 91.81 73.84 92.87 74.14 C 95.56 75.92 95.03 74.05 93.89 72.11 Z" />
<path fill="#a46766" opacity="1.00" d=" M 5.81 74.02 C 8.69 72.89 11.79 72.57 14.84 72.16 C 15.19 72.45 15.90 73.03 16.26 73.32 C 12.90 74.30 9.25 75.90 5.81 74.02 Z" />
<path fill="#2b2234" opacity="1.00" d=" M 17.12 76.18 C 23.83 74.74 30.64 73.77 37.35 72.30 L 37.03 73.17 C 36.67 74.09 36.32 75.03 35.99 75.97 C 35.85 76.24 35.58 76.79 35.45 77.06 C 32.72 74.06 29.97 80.25 27.66 81.10 C 25.25 83.01 24.92 79.59 25.68 77.89 C 21.96 77.44 24.48 82.51 24.05 84.90 L 23.15 84.88 C 21.70 83.88 20.45 80.03 18.55 82.06 C 18.13 80.77 18.00 79.42 17.72 78.11 C 13.72 78.79 9.82 80.03 5.75 80.36 C 3.85 80.11 1.92 79.99 0.00 79.89 L 0.00 76.83 C 5.58 78.90 11.49 77.11 17.12 76.18 Z" />
<path fill="#4f2652" opacity="1.00" d=" M 47.24 73.92 C 49.88 73.71 52.32 72.61 54.88 72.01 C 54.99 72.79 55.20 74.36 55.30 75.14 L 55.05 75.92 C 52.30 77.86 50.45 81.35 47.06 82.19 C 46.98 79.43 47.04 76.67 47.24 73.92 Z" />
<path fill="#7f3f51" opacity="1.00" d=" M 99.01 79.31 C 103.29 77.20 106.43 73.24 111.00 71.63 L 111.00 82.81 C 107.29 86.77 101.84 87.99 96.98 89.91 C 96.93 88.41 96.85 85.41 96.81 83.91 C 101.78 84.72 106.00 81.47 109.85 78.78 C 109.89 78.06 109.98 76.62 110.02 75.90 C 106.28 76.89 103.29 79.59 99.74 81.08 C 99.56 80.64 99.19 79.75 99.01 79.31 Z" />
<path fill="#1d2529" opacity="1.00" d=" M 37.91 74.76 C 38.80 74.20 39.71 73.67 40.62 73.14 C 42.67 74.67 45.26 72.25 47.24 73.92 C 47.04 76.67 46.98 79.43 47.06 82.19 C 50.45 81.35 52.30 77.86 55.05 75.92 C 54.33 83.92 52.88 92.41 48.29 99.18 C 45.53 100.82 42.82 102.55 39.98 104.06 C 43.27 100.03 46.73 96.15 50.05 92.15 C 49.61 92.13 48.74 92.08 48.30 92.06 C 47.36 86.22 47.38 74.34 38.93 74.84 L 37.91 74.76 Z" />
<path fill="#5e7740" opacity="1.00" d=" M 56.12 72.85 C 57.77 72.96 59.17 73.62 60.03 75.08 C 60.76 83.76 56.23 91.43 53.11 99.20 C 52.13 100.44 52.96 101.92 53.23 103.25 C 51.61 106.97 46.14 108.80 43.01 105.87 C 44.60 103.52 47.56 102.21 48.29 99.18 C 52.88 92.41 54.33 83.92 55.05 75.92 L 55.30 75.14 C 55.51 74.57 55.92 73.42 56.12 72.85 Z" />
<path fill="#2d4562" opacity="1.00" d=" M 87.97 78.78 C 88.12 76.81 85.41 72.64 88.86 72.88 C 89.06 73.11 89.45 73.57 89.64 73.80 C 90.32 75.65 91.06 77.49 91.95 79.26 L 92.35 80.14 C 90.77 81.21 89.37 79.36 87.97 78.78 Z" />
<path fill="#384d3b" opacity="1.00" d=" M 35.99 75.97 C 36.47 75.66 37.43 75.06 37.91 74.76 L 38.93 74.84 C 40.23 76.80 40.66 79.72 38.37 81.14 C 37.35 78.04 35.20 79.63 34.06 81.67 C 33.22 83.92 32.02 84.00 30.64 82.12 C 32.53 80.75 34.67 79.40 35.45 77.06 C 35.58 76.79 35.85 76.24 35.99 75.97 Z" />
<path fill="#2a3b38" opacity="1.00" d=" M 38.93 74.84 C 47.38 74.34 47.36 86.22 48.30 92.06 C 41.32 94.62 39.21 103.22 32.12 105.19 C 34.81 100.88 41.05 97.73 39.98 91.82 C 38.55 93.16 37.41 94.76 36.09 96.21 C 35.85 95.67 35.38 94.59 35.14 94.06 C 37.91 91.02 43.16 88.76 42.00 83.84 C 40.04 85.17 38.55 87.03 37.22 88.95 C 36.96 88.71 36.44 88.24 36.19 88.00 C 35.41 87.31 34.62 86.63 33.83 85.96 C 34.19 85.49 34.92 84.57 35.28 84.10 C 36.32 83.13 37.37 82.16 38.37 81.14 C 40.66 79.72 40.23 76.80 38.93 74.84 Z" />
<path fill="#233239" opacity="1.00" d=" M 75.15 74.94 C 77.69 76.29 80.91 79.26 83.08 75.78 C 83.75 77.33 84.52 78.85 85.62 80.15 C 87.01 83.52 83.70 80.14 82.26 79.83 C 82.26 82.64 81.80 85.47 80.82 88.10 C 79.54 86.85 78.56 85.32 77.36 84.00 C 77.03 85.06 76.68 86.12 76.30 87.16 C 76.21 86.61 76.01 85.49 75.91 84.94 C 73.36 85.68 73.81 88.39 74.76 90.29 C 72.99 93.80 72.94 90.16 72.86 87.93 C 72.31 88.65 71.75 89.37 71.20 90.09 C 70.48 87.78 69.65 85.51 68.83 83.24 C 68.87 82.70 68.94 81.64 68.98 81.11 C 70.66 80.82 72.72 81.45 74.15 80.39 C 75.63 79.13 74.77 76.69 75.15 74.94 Z" />
<path fill="#65884f" opacity="1.00" d=" M 27.66 81.10 C 29.97 80.25 32.72 74.06 35.45 77.06 C 34.67 79.40 32.53 80.75 30.64 82.12 L 29.88 82.18 C 29.33 81.91 28.22 81.37 27.66 81.10 Z" />
<path fill="#1b1f27" opacity="1.00" d=" M 68.89 76.12 L 69.92 76.41 C 71.29 77.78 72.69 79.12 74.15 80.39 C 72.72 81.45 70.66 80.82 68.98 81.11 C 68.95 79.80 68.90 78.50 68.83 77.20 L 68.89 76.12 Z" />
<path fill="#000000" opacity="0.09" d=" M 92.08 75.94 C 94.77 75.59 97.84 78.05 97.86 80.72 C 95.51 82.13 93.34 83.80 92.41 86.49 C 88.03 86.56 84.44 88.99 82.86 92.97 C 82.14 92.97 80.70 92.98 79.98 92.98 C 78.62 92.98 77.26 92.95 75.90 92.89 C 76.32 91.09 76.98 89.19 78.55 88.08 C 79.43 89.29 79.82 91.58 81.81 90.91 C 82.72 88.62 82.96 86.11 84.11 83.92 C 85.49 84.46 86.62 85.45 87.92 86.15 C 87.67 84.75 87.31 83.38 87.08 81.99 C 89.09 82.24 91.05 82.80 93.08 83.00 C 93.03 81.99 92.79 81.04 92.35 80.14 L 91.95 79.26 C 91.98 78.43 92.05 76.77 92.08 75.94 Z" />
<path fill="#bf7a72" opacity="1.00" d=" M 99.74 81.08 C 103.29 79.59 106.28 76.89 110.02 75.90 C 109.98 76.62 109.89 78.06 109.85 78.78 C 106.00 81.47 101.78 84.72 96.81 83.91 C 97.70 82.88 98.74 82.00 99.74 81.08 Z" />
<path fill="#070808" opacity="0.91" d=" M 5.75 80.36 C 9.82 80.03 13.72 78.79 17.72 78.11 C 18.00 79.42 18.13 80.77 18.55 82.06 C 18.88 84.45 20.95 85.39 23.15 84.88 L 24.05 84.90 C 25.29 85.14 26.50 85.50 27.66 86.01 C 28.65 86.68 29.80 86.52 30.92 86.39 C 30.68 87.67 30.35 88.93 30.16 90.22 C 30.01 91.27 30.23 92.27 30.80 93.21 C 30.39 94.03 29.78 94.58 28.97 94.84 C 30.24 91.71 29.94 89.46 28.07 88.07 C 22.70 87.82 17.15 85.86 15.63 80.23 C 12.32 80.07 8.97 81.51 5.75 80.36 Z" />
<path fill="#46645c" opacity="1.00" d=" M 24.05 84.90 C 24.48 82.51 21.96 77.44 25.68 77.89 C 24.92 79.59 25.25 83.01 27.66 81.10 C 28.22 81.37 29.33 81.91 29.88 82.18 C 29.09 83.42 28.33 84.69 27.66 86.01 C 26.50 85.50 25.29 85.14 24.05 84.90 Z" />
<path fill="#527255" opacity="1.00" d=" M 34.06 81.67 C 35.20 79.63 37.35 78.04 38.37 81.14 C 37.37 82.16 36.32 83.13 35.28 84.10 C 34.97 83.49 34.36 82.28 34.06 81.67 Z" />
<path fill="#050707" opacity="0.93" d=" M 85.62 80.15 C 86.20 79.81 87.38 79.12 87.97 78.78 C 89.37 79.36 90.77 81.21 92.35 80.14 C 92.79 81.04 93.03 81.99 93.08 83.00 C 91.05 82.80 89.09 82.24 87.08 81.99 C 87.31 83.38 87.67 84.75 87.92 86.15 C 86.62 85.45 85.49 84.46 84.11 83.92 C 82.96 86.11 82.72 88.62 81.81 90.91 C 79.82 91.58 79.43 89.29 78.55 88.08 C 76.98 89.19 76.32 91.09 75.90 92.89 C 77.26 92.95 78.62 92.98 79.98 92.98 L 80.04 93.76 C 77.81 94.08 75.75 94.98 73.82 96.11 C 73.55 96.27 73.01 96.57 72.74 96.73 L 72.08 97.09 C 72.06 95.76 72.00 94.44 71.91 93.13 C 69.68 93.66 67.41 93.89 65.13 93.49 C 63.20 94.73 62.49 97.37 60.24 98.10 C 60.11 97.30 59.86 95.68 59.73 94.87 C 55.15 98.57 56.53 106.08 51.74 109.89 C 45.99 111.66 41.90 107.08 38.61 103.29 C 35.16 105.69 31.81 108.27 28.60 111.00 L 24.66 111.00 C 25.29 109.64 25.98 108.31 26.72 107.01 C 26.71 111.01 30.89 106.65 32.12 105.19 C 39.21 103.22 41.32 94.62 48.30 92.06 C 48.74 92.08 49.61 92.13 50.05 92.15 C 46.73 96.15 43.27 100.03 39.98 104.06 C 42.82 102.55 45.53 100.82 48.29 99.18 C 47.56 102.21 44.60 103.52 43.01 105.87 C 46.14 108.80 51.61 106.97 53.23 103.25 C 57.07 100.04 56.39 94.36 60.56 91.18 C 61.31 90.37 62.09 89.60 62.91 88.85 C 62.60 90.59 62.18 92.30 61.95 94.05 C 63.11 93.20 64.18 92.25 65.33 91.39 C 66.88 91.09 68.89 92.59 70.10 91.41 C 70.38 91.08 70.93 90.42 71.20 90.09 C 71.75 89.37 72.31 88.65 72.86 87.93 C 72.94 90.16 72.99 93.80 74.76 90.29 C 75.38 89.30 75.90 88.26 76.30 87.16 C 76.68 86.12 77.03 85.06 77.36 84.00 C 78.56 85.32 79.54 86.85 80.82 88.10 C 81.80 85.47 82.26 82.64 82.26 79.83 C 83.70 80.14 87.01 83.52 85.62 80.15 Z" />
<path fill="#364d6f" opacity="1.00" d=" M 18.55 82.06 C 20.45 80.03 21.70 83.88 23.15 84.88 C 20.95 85.39 18.88 84.45 18.55 82.06 Z" />
<path fill="#293a38" opacity="1.00" d=" M 65.16 80.76 L 65.85 81.24 C 67.08 84.95 64.72 90.45 70.10 91.41 C 68.89 92.59 66.88 91.09 65.33 91.39 C 64.18 92.25 63.11 93.20 61.95 94.05 C 62.18 92.30 62.60 90.59 62.91 88.85 C 62.09 89.60 61.31 90.37 60.56 91.18 C 60.20 88.90 61.21 85.16 63.82 84.95 C 64.40 86.12 63.13 89.07 64.99 89.00 C 65.11 86.25 65.17 83.50 65.16 80.76 Z" />
<path fill="#58703f" opacity="1.00" d=" M 65.85 81.24 C 66.84 81.91 67.82 82.59 68.83 83.24 C 69.65 85.51 70.48 87.78 71.20 90.09 C 70.93 90.42 70.38 91.08 70.10 91.41 C 64.72 90.45 67.08 84.95 65.85 81.24 Z" />
<path fill="#67937a" opacity="1.00" d=" M 29.88 82.18 L 30.64 82.12 C 32.02 84.00 33.22 83.92 34.06 81.67 C 34.36 82.28 34.97 83.49 35.28 84.10 C 34.92 84.57 34.19 85.49 33.83 85.96 C 32.69 87.45 31.48 88.88 30.16 90.22 C 30.35 88.93 30.68 87.67 30.92 86.39 C 29.80 86.52 28.65 86.68 27.66 86.01 C 28.33 84.69 29.09 83.42 29.88 82.18 Z" />
<path fill="#442a39" opacity="1.00" d=" M 96.98 89.91 C 101.84 87.99 107.29 86.77 111.00 82.81 L 111.00 84.76 C 110.03 85.52 109.05 86.28 108.07 87.04 C 107.31 87.60 106.57 88.18 105.85 88.78 C 103.15 90.49 100.41 92.15 97.92 94.14 C 96.87 96.46 94.93 98.28 92.18 98.00 C 91.87 97.71 91.25 97.13 90.94 96.84 C 92.11 95.33 93.23 93.78 94.26 92.17 C 95.51 90.60 96.01 88.70 95.85 86.71 C 95.95 85.68 96.27 84.74 96.81 83.91 C 96.85 85.41 96.93 88.41 96.98 89.91 Z" />
<path fill="#3b5454" opacity="1.00" d=" M 37.22 88.95 C 38.55 87.03 40.04 85.17 42.00 83.84 C 43.16 88.76 37.91 91.02 35.14 94.06 C 35.02 92.11 36.34 90.56 37.22 88.95 Z" />
<path fill="#334c5b" opacity="1.00" d=" M 74.76 90.29 C 73.81 88.39 73.36 85.68 75.91 84.94 C 76.01 85.49 76.21 86.61 76.30 87.16 C 75.90 88.26 75.38 89.30 74.76 90.29 Z" />
<path fill="#bc7874" opacity="1.00" d=" M 108.07 87.04 C 109.05 86.28 110.03 85.52 111.00 84.76 L 111.00 91.91 C 109.81 92.72 108.62 93.51 107.37 94.21 L 107.15 93.42 C 107.38 91.83 107.84 88.64 108.07 87.04 Z" />
<path fill="#32494b" opacity="1.00" d=" M 30.16 90.22 C 31.48 88.88 32.69 87.45 33.83 85.96 C 34.62 86.63 35.41 87.31 36.19 88.00 C 34.13 89.44 32.19 91.09 30.80 93.21 C 30.23 92.27 30.01 91.27 30.16 90.22 Z" />
<path fill="#4b684e" opacity="1.00" d=" M 92.71 89.80 C 93.14 88.27 94.38 87.22 95.85 86.71 C 96.01 88.70 95.51 90.60 94.26 92.17 C 93.87 91.58 93.09 90.39 92.71 89.80 Z" />
<path fill="#849b62" opacity="1.00" d=" M 105.85 88.78 C 106.57 88.18 107.31 87.60 108.07 87.04 C 107.84 88.64 107.38 91.83 107.15 93.42 C 105.78 93.37 104.42 93.35 103.06 93.21 C 103.94 91.71 104.93 90.27 105.85 88.78 Z" />
<path fill="#000000" opacity="0.34" d=" M 28.07 88.07 C 29.94 89.46 30.24 91.71 28.97 94.84 C 26.97 93.85 26.67 91.59 28.07 88.07 Z" />
<path fill="#060807" opacity="0.94" d=" M 36.19 88.00 C 36.44 88.24 36.96 88.71 37.22 88.95 C 36.34 90.56 35.02 92.11 35.14 94.06 C 35.38 94.59 35.85 95.67 36.09 96.21 C 32.83 99.69 30.53 104.08 26.72 107.01 C 28.76 102.35 32.10 98.19 33.03 93.08 C 32.47 93.11 31.36 93.18 30.80 93.21 C 32.19 91.09 34.13 89.44 36.19 88.00 Z" />
<path fill="#a86467" opacity="1.00" d=" M 97.92 94.14 C 100.41 92.15 103.15 90.49 105.85 88.78 C 104.93 90.27 103.94 91.71 103.06 93.21 C 102.79 93.65 102.26 94.52 102.00 94.96 C 101.77 95.27 101.31 95.91 101.08 96.23 C 100.02 95.54 98.96 94.85 97.92 94.14 Z" />
<path fill="#9ec575" opacity="1.00" d=" M 84.78 93.11 C 86.59 90.93 89.06 89.63 91.94 89.92 C 89.81 90.95 91.01 93.29 89.82 94.84 C 88.66 95.60 87.24 95.66 85.94 96.01 C 85.52 95.05 85.14 94.09 84.78 93.11 Z" />
<path fill="#77a168" opacity="1.00" d=" M 91.94 89.92 L 92.71 89.80 C 93.09 90.39 93.87 91.58 94.26 92.17 C 93.23 93.78 92.11 95.33 90.94 96.84 L 90.13 97.17 C 88.84 96.72 86.44 97.64 85.94 96.01 C 87.24 95.66 88.66 95.60 89.82 94.84 C 91.01 93.29 89.81 90.95 91.94 89.92 Z" />
<path fill="#4c6644" opacity="1.00" d=" M 36.09 96.21 C 37.41 94.76 38.55 93.16 39.98 91.82 C 41.05 97.73 34.81 100.88 32.12 105.19 C 30.89 106.65 26.71 111.01 26.72 107.01 C 30.53 104.08 32.83 99.69 36.09 96.21 Z" />
<path fill="#a0555d" opacity="1.00" d=" M 107.37 94.21 C 108.62 93.51 109.81 92.72 111.00 91.91 L 111.00 95.03 C 109.96 95.36 108.92 95.67 107.86 95.94 C 107.74 95.51 107.49 94.64 107.37 94.21 Z" />
<path fill="#202242" opacity="0.95" d=" M 20.99 95.91 C 21.49 93.85 25.66 91.31 26.12 94.04 C 26.22 96.26 25.38 98.27 24.13 100.06 C 22.64 99.07 23.46 97.45 23.66 96.05 C 22.99 96.02 21.66 95.95 20.99 95.91 Z" />
<path fill="#000000" opacity="0.06" d=" M 65.13 93.49 C 67.41 93.89 69.68 93.66 71.91 93.13 C 72.00 94.44 72.06 95.76 72.08 97.09 C 69.12 100.04 64.32 100.36 61.75 103.75 C 59.75 106.14 58.48 109.22 55.82 111.00 L 28.60 111.00 C 31.81 108.27 35.16 105.69 38.61 103.29 C 41.90 107.08 45.99 111.66 51.74 109.89 C 56.53 106.08 55.15 98.57 59.73 94.87 C 59.86 95.68 60.11 97.30 60.24 98.10 C 62.49 97.37 63.20 94.73 65.13 93.49 Z" />
<path fill="#31413b" opacity="1.00" d=" M 79.98 92.98 C 80.70 92.98 82.14 92.97 82.86 92.97 C 83.34 93.00 84.30 93.08 84.78 93.11 C 85.14 94.09 85.52 95.05 85.94 96.01 C 86.44 97.64 88.84 96.72 90.13 97.17 C 88.44 98.18 86.94 99.49 85.88 101.16 C 84.64 100.99 83.39 100.87 82.14 100.81 C 81.89 100.60 81.39 100.18 81.14 99.97 C 81.34 97.64 83.66 93.65 80.04 93.76 L 79.98 92.98 Z" />
<path fill="#495b4c" opacity="1.00" d=" M 103.06 93.21 C 104.42 93.35 105.78 93.37 107.15 93.42 L 107.37 94.21 C 107.49 94.64 107.74 95.51 107.86 95.94 C 107.57 96.20 106.99 96.71 106.69 96.97 C 105.57 98.88 105.54 101.39 104.09 103.06 C 105.06 99.46 102.06 100.46 99.76 100.83 C 99.36 100.56 98.57 100.02 98.17 99.75 L 98.30 98.72 C 98.65 98.60 99.33 98.36 99.68 98.24 C 102.53 100.32 104.55 97.07 106.13 95.10 C 104.75 95.02 103.38 94.97 102.00 94.96 C 102.26 94.52 102.79 93.65 103.06 93.21 Z" />
<path fill="#010103" opacity="0.91" d=" M 26.12 94.04 C 28.51 94.09 26.69 100.62 25.98 102.82 L 25.14 102.83 C 24.83 101.90 24.49 100.97 24.13 100.06 C 25.38 98.27 26.22 96.26 26.12 94.04 Z" />
<path fill="#c2e280" opacity="1.00" d=" M 73.82 96.11 C 75.75 94.98 77.81 94.08 80.04 93.76 C 83.66 93.65 81.34 97.64 81.14 99.97 L 80.22 100.17 C 77.81 99.38 74.22 99.32 73.82 96.11 Z" />
<path fill="#7e424f" opacity="1.00" d=" M 92.18 98.00 C 94.93 98.28 96.87 96.46 97.92 94.14 C 98.96 94.85 100.02 95.54 101.08 96.23 C 100.73 96.73 100.03 97.74 99.68 98.24 C 99.33 98.36 98.65 98.60 98.30 98.72 C 94.38 98.48 90.95 101.33 87.23 102.27 L 86.89 101.19 C 88.67 100.17 90.41 99.06 92.18 98.00 Z" />
<path fill="#7ea666" opacity="1.00" d=" M 102.00 94.96 C 103.38 94.97 104.75 95.02 106.13 95.10 C 104.55 97.07 102.53 100.32 99.68 98.24 C 100.03 97.74 100.73 96.73 101.08 96.23 C 101.31 95.91 101.77 95.27 102.00 94.96 Z" />
<path fill="#3e2338" opacity="1.00" d=" M 107.86 95.94 C 108.92 95.67 109.96 95.36 111.00 95.03 L 111.00 100.83 C 110.50 101.12 109.49 101.70 108.99 101.99 C 107.86 100.50 106.95 98.86 106.69 96.97 C 106.99 96.71 107.57 96.20 107.86 95.94 Z" />
<path fill="#242534" opacity="0.95" d=" M 14.18 100.16 C 15.97 97.96 18.99 97.85 20.99 95.91 C 19.47 98.52 20.46 102.03 23.85 102.01 C 23.92 101.53 24.06 100.55 24.13 100.06 C 24.49 100.97 24.83 101.90 25.14 102.83 C 23.08 103.03 21.06 103.47 19.07 104.03 C 17.28 103.20 14.57 102.20 14.18 100.16 Z" />
<path fill="#7177b3" opacity="1.00" d=" M 20.99 95.91 C 21.66 95.95 22.99 96.02 23.66 96.05 C 23.46 97.45 22.64 99.07 24.13 100.06 C 24.06 100.55 23.92 101.53 23.85 102.01 C 20.46 102.03 19.47 98.52 20.99 95.91 Z" />
<path fill="#87ad68" opacity="1.00" d=" M 72.74 96.73 C 73.01 96.57 73.55 96.27 73.82 96.11 C 74.22 99.32 77.81 99.38 80.22 100.17 C 79.46 100.72 78.71 101.29 77.98 101.88 C 75.50 101.17 72.04 101.35 72.80 97.75 L 72.74 96.73 Z" />
<path fill="#161a12" opacity="0.95" d=" M 61.75 103.75 C 64.32 100.36 69.12 100.04 72.08 97.09 L 72.74 96.73 L 72.80 97.75 C 71.97 99.29 70.46 100.07 68.96 100.83 C 65.06 102.95 60.07 105.79 60.67 111.00 L 55.82 111.00 C 58.48 109.22 59.75 106.14 61.75 103.75 Z" />
<path fill="#1c171b" opacity="0.98" d=" M 90.13 97.17 L 90.94 96.84 C 91.25 97.13 91.87 97.71 92.18 98.00 C 90.41 99.06 88.67 100.17 86.89 101.19 L 85.88 101.16 C 86.94 99.49 88.44 98.18 90.13 97.17 Z" />
<path fill="#2a2c34" opacity="1.00" d=" M 104.09 103.06 C 105.54 101.39 105.57 98.88 106.69 96.97 C 106.95 98.86 107.86 100.50 108.99 101.99 C 106.72 103.71 104.44 105.41 102.14 107.07 C 99.41 107.94 96.73 109.07 94.58 111.00 L 89.65 111.00 C 91.63 107.55 96.04 106.51 98.96 103.97 C 100.67 103.69 102.42 103.57 104.09 103.06 Z" />
<path fill="#40503f" opacity="1.00" d=" M 68.96 100.83 C 70.46 100.07 71.97 99.29 72.80 97.75 C 72.04 101.35 75.50 101.17 77.98 101.88 C 77.70 102.19 77.15 102.82 76.87 103.14 L 76.16 102.80 C 74.62 101.90 72.79 102.02 71.08 101.76 C 70.55 101.53 69.49 101.06 68.96 100.83 Z" />
<path fill="#a25b5f" opacity="1.00" d=" M 87.23 102.27 C 90.95 101.33 94.38 98.48 98.30 98.72 L 98.17 99.75 C 94.10 101.02 90.15 103.88 85.77 103.37 C 86.13 103.10 86.86 102.55 87.23 102.27 Z" />
<path fill="#586095" opacity="1.00" d=" M 80.22 100.17 L 81.14 99.97 C 81.39 100.18 81.89 100.60 82.14 100.81 C 81.32 101.68 81.25 102.55 81.93 103.43 L 81.92 104.20 C 80.09 105.18 77.90 105.25 76.87 103.14 C 77.15 102.82 77.70 102.19 77.98 101.88 C 78.71 101.29 79.46 100.72 80.22 100.17 Z" />
<path fill="#793c50" opacity="1.00" d=" M 85.77 103.37 C 90.15 103.88 94.10 101.02 98.17 99.75 C 96.29 104.22 90.51 103.88 88.35 108.05 C 86.67 107.19 84.90 106.51 83.19 105.69 C 82.42 103.81 84.55 103.84 85.77 103.37 Z" />
<path fill="#45243d" opacity="1.00" d=" M 98.17 99.75 C 98.57 100.02 99.36 100.56 99.76 100.83 C 99.49 101.87 99.22 102.92 98.96 103.97 C 96.04 106.51 91.63 107.55 89.65 111.00 L 89.02 111.00 C 88.75 110.47 88.23 109.42 87.96 108.90 L 88.35 108.05 C 90.51 103.88 96.29 104.22 98.17 99.75 Z" />
<path fill="#85ad69" opacity="1.00" d=" M 99.76 100.83 C 102.06 100.46 105.06 99.46 104.09 103.06 C 102.42 103.57 100.67 103.69 98.96 103.97 C 99.22 102.92 99.49 101.87 99.76 100.83 Z" />
<path fill="#d8e778" opacity="1.00" d=" M 60.67 111.00 C 60.07 105.79 65.06 102.95 68.96 100.83 C 69.49 101.06 70.55 101.53 71.08 101.76 C 71.39 102.90 71.73 104.04 72.12 105.16 C 70.18 106.16 68.45 107.46 66.76 108.82 C 65.32 109.46 63.93 110.20 62.57 111.00 L 60.67 111.00 Z" />
<path fill="#21222a" opacity="1.00" d=" M 82.14 100.81 C 83.39 100.87 84.64 100.99 85.88 101.16 C 84.75 102.21 83.50 103.18 81.93 103.43 C 81.25 102.55 81.32 101.68 82.14 100.81 Z" />
<path fill="#5e2d3f" opacity="1.00" d=" M 85.88 101.16 L 86.89 101.19 L 87.23 102.27 C 86.86 102.55 86.13 103.10 85.77 103.37 C 84.55 103.84 82.42 103.81 83.19 105.69 C 84.90 106.51 86.67 107.19 88.35 108.05 L 87.96 108.90 C 85.94 108.23 83.88 107.69 81.91 106.88 C 81.91 106.21 81.92 104.87 81.92 104.20 L 81.93 103.43 C 83.50 103.18 84.75 102.21 85.88 101.16 Z" />
<path fill="#794150" opacity="1.00" d=" M 108.99 101.99 C 109.49 101.70 110.50 101.12 111.00 100.83 L 111.00 105.86 C 108.70 108.53 104.58 107.96 102.57 111.00 L 97.63 111.00 C 99.12 109.68 100.68 108.43 102.14 107.07 C 104.44 105.41 106.72 103.71 108.99 101.99 Z" />
<path fill="#62687d" opacity="1.00" d=" M 71.08 101.76 C 72.79 102.02 74.62 101.90 76.16 102.80 C 75.07 103.44 73.98 104.09 72.90 104.74 L 72.12 105.16 C 71.73 104.04 71.39 102.90 71.08 101.76 Z" />
<path fill="#000000" opacity="0.76" d=" M 19.07 104.03 C 21.06 103.47 23.08 103.03 25.14 102.83 L 25.98 102.82 C 25.29 104.92 21.11 104.30 18.97 105.04 L 19.07 104.03 Z" />
<path fill="#292833" opacity="1.00" d=" M 72.90 104.74 C 73.98 104.09 75.07 103.44 76.16 102.80 L 76.87 103.14 C 77.90 105.25 80.09 105.18 81.92 104.20 C 81.92 104.87 81.91 106.21 81.91 106.88 C 79.55 107.18 77.41 108.21 75.27 109.17 C 76.27 106.64 76.46 104.09 72.90 104.74 Z" />
<path fill="#b1d77e" opacity="1.00" d=" M 72.12 105.16 L 72.90 104.74 C 72.91 105.28 72.93 106.38 72.94 106.93 C 71.34 108.74 69.08 109.21 66.76 108.82 C 68.45 107.46 70.18 106.16 72.12 105.16 Z" />
<path fill="#5b7d55" opacity="1.00" d=" M 72.90 104.74 C 76.46 104.09 76.27 106.64 75.27 109.17 C 74.89 109.63 74.14 110.54 73.76 111.00 L 72.14 111.00 C 72.62 109.69 72.99 108.33 72.94 106.93 C 72.93 106.38 72.91 105.28 72.90 104.74 Z" />
<path fill="#552c43" opacity="1.00" d=" M 102.57 111.00 C 104.58 107.96 108.70 108.53 111.00 105.86 L 111.00 111.00 L 102.57 111.00 Z" />
<path fill="#83ac68" opacity="1.00" d=" M 66.76 108.82 C 69.08 109.21 71.34 108.74 72.94 106.93 C 72.99 108.33 72.62 109.69 72.14 111.00 L 62.57 111.00 C 63.93 110.20 65.32 109.46 66.76 108.82 Z" />
<path fill="#c33e42" opacity="1.00" d=" M 75.27 109.17 C 77.41 108.21 79.55 107.18 81.91 106.88 C 83.88 107.69 85.94 108.23 87.96 108.90 C 88.23 109.42 88.75 110.47 89.02 111.00 L 73.76 111.00 C 74.14 110.54 74.89 109.63 75.27 109.17 Z" />
<path fill="#512a41" opacity="1.00" d=" M 94.58 111.00 C 96.73 109.07 99.41 107.94 102.14 107.07 C 100.68 108.43 99.12 109.68 97.63 111.00 L 94.58 111.00 Z" />
</svg>
