<?xml version="1.0" encoding="UTF-8" ?>
<!DOCTYPE svg PUBLIC "-//W3C//DTD SVG 1.1//EN" "http://www.w3.org/Graphics/SVG/1.1/DTD/svg11.dtd">
<svg width="111pt" height="111pt" viewBox="0 0 111 111" version="1.1" xmlns="http://www.w3.org/2000/svg">
<path fill="#0c0c07" opacity="0.95" d=" M 53.27 0.00 L 59.34 0.00 C 55.18 2.58 50.80 5.44 48.51 9.91 C 47.30 12.15 46.30 14.51 45.47 16.92 C 45.31 17.22 45.01 17.82 44.85 18.12 C 41.83 17.92 38.88 17.14 35.86 16.98 C 37.27 18.91 39.00 20.56 40.75 22.17 C 41.96 23.41 43.25 24.61 44.89 25.25 C 45.07 26.92 45.27 28.60 45.62 30.25 C 45.69 30.93 45.83 32.30 45.90 32.98 C 44.82 34.26 43.37 35.06 41.93 35.85 C 41.45 36.14 40.48 36.72 40.00 37.01 C 39.69 37.19 39.09 37.56 38.78 37.74 L 38.11 38.13 C 37.92 36.62 37.66 35.13 37.30 33.66 C 38.58 27.80 29.71 29.13 28.19 32.89 L 27.99 33.87 C 27.31 33.91 25.95 33.97 25.28 34.01 C 23.32 33.23 21.23 32.96 19.14 32.86 L 18.91 32.09 C 18.36 29.91 17.65 27.77 17.07 25.59 L 17.02 24.84 C 17.36 21.52 17.13 18.23 15.16 15.50 L 15.32 14.65 C 16.90 15.35 18.49 16.09 19.84 17.19 C 20.04 20.96 20.22 24.75 20.39 28.53 C 24.99 34.63 31.27 26.28 36.78 26.14 C 38.56 27.93 40.29 30.06 39.25 33.05 C 40.90 33.03 42.45 32.44 43.95 31.82 C 43.26 24.91 35.79 21.94 33.00 16.02 C 36.13 15.36 40.41 17.09 43.17 15.21 C 44.60 9.16 48.70 4.17 53.27 0.00 Z" />
<path fill="#eaf651" opacity="1.00" d=" M 59.34 0.00 L 63.34 0.00 C 60.15 2.01 55.51 3.65 56.59 8.67 C 54.87 11.75 50.94 12.94 48.51 9.91 C 50.80 5.44 55.18 2.58 59.34 0.00 Z" />
<path fill="#ceed3b" opacity="1.00" d=" M 63.34 0.00 L 67.92 0.00 C 68.37 6.21 69.44 12.38 69.55 18.61 C 68.36 21.31 67.04 23.98 66.68 26.96 C 64.85 27.24 63.44 25.90 61.92 25.14 C 58.42 23.08 54.16 21.65 51.98 18.02 C 50.94 16.83 50.25 14.54 48.26 15.11 C 47.37 16.03 46.94 18.79 45.47 16.92 C 46.30 14.51 47.30 12.15 48.51 9.91 C 50.94 12.94 54.87 11.75 56.59 8.67 C 55.51 3.65 60.15 2.01 63.34 0.00 Z" />
<path fill="#c1e137" opacity="1.00" d=" M 67.92 0.00 L 72.70 0.00 C 73.76 4.13 75.73 7.95 77.13 11.97 C 75.08 14.83 74.22 18.75 75.92 21.98 C 74.75 24.84 72.21 28.07 74.74 30.92 C 72.53 32.72 70.07 34.17 67.79 35.88 C 65.88 36.74 62.96 36.62 62.53 39.19 C 61.29 38.86 60.06 38.50 58.82 38.18 C 59.10 40.89 63.04 41.72 65.03 40.17 C 66.33 40.40 67.62 40.63 68.92 40.88 C 67.93 43.37 65.67 44.26 63.14 44.27 C 63.05 45.45 63.02 46.62 63.05 47.80 C 61.27 45.45 59.12 44.22 55.94 45.88 L 55.11 45.96 L 54.15 45.98 C 56.08 43.43 52.25 43.08 50.69 41.96 C 51.66 39.67 53.93 40.83 55.79 40.87 C 57.16 39.98 56.94 38.32 57.08 36.91 C 56.28 37.84 55.56 38.83 54.75 39.75 C 53.38 39.67 52.84 37.91 51.90 37.08 C 50.17 34.95 48.58 32.67 48.67 29.79 C 48.87 28.15 48.98 26.49 48.99 24.84 C 45.23 26.35 47.02 31.22 47.55 34.34 L 47.77 35.29 C 46.66 34.91 46.04 34.14 45.90 32.98 C 45.83 32.30 45.69 30.93 45.62 30.25 C 44.65 26.39 48.71 21.10 44.85 18.12 C 45.01 17.82 45.31 17.22 45.47 16.92 C 46.94 18.79 47.37 16.03 48.26 15.11 C 50.25 14.54 50.94 16.83 51.98 18.02 C 54.16 21.65 58.42 23.08 61.92 25.14 C 63.44 25.90 64.85 27.24 66.68 26.96 C 67.04 23.98 68.36 21.31 69.55 18.61 C 69.44 12.38 68.37 6.21 67.92 0.00 Z" />
<path fill="#9cc339" opacity="1.00" d=" M 72.70 0.00 L 77.88 0.00 C 78.83 2.93 80.81 5.75 80.53 8.94 L 80.52 9.75 C 80.22 10.10 79.61 10.80 79.30 11.15 C 78.76 11.35 77.67 11.76 77.13 11.97 C 75.73 7.95 73.76 4.13 72.70 0.00 Z" />
<path fill="#7ca645" opacity="1.00" d=" M 77.88 0.00 L 82.94 0.00 L 83.26 0.86 C 83.42 1.41 83.74 2.50 83.90 3.05 C 85.29 6.73 84.60 8.83 81.85 9.35 C 81.52 9.24 80.86 9.04 80.53 8.94 C 80.81 5.75 78.83 2.93 77.88 0.00 Z" />
<path fill="#0d0b0c" opacity="0.96" d=" M 82.94 0.00 L 88.74 0.00 C 93.33 4.00 96.42 9.22 99.94 14.09 C 103.54 12.36 106.86 6.97 111.00 8.88 L 111.00 15.51 C 109.23 19.05 108.83 23.07 107.91 26.86 C 108.94 26.54 109.97 26.21 111.00 25.87 L 111.00 32.31 C 109.68 31.07 108.38 29.81 107.07 28.57 C 106.47 27.98 105.85 27.43 105.18 26.92 C 104.69 26.65 103.71 26.09 103.21 25.82 C 103.82 24.55 104.44 23.29 105.10 22.05 C 107.34 18.80 108.42 14.88 109.12 11.04 C 108.62 11.27 107.62 11.73 107.12 11.97 C 105.00 12.77 103.23 14.16 101.80 15.91 C 101.34 16.14 100.41 16.60 99.95 16.83 C 99.52 16.92 98.67 17.10 98.24 17.19 C 97.59 15.54 96.85 13.80 95.09 13.11 C 94.17 9.06 91.06 6.22 87.90 3.77 C 86.53 2.56 85.13 1.19 83.26 0.86 L 82.94 0.00 Z" />
<path fill="#9c8b91" opacity="1.00" d=" M 83.26 0.86 C 85.13 1.19 86.53 2.56 87.90 3.77 L 87.09 4.15 C 85.95 4.01 84.89 3.64 83.90 3.05 C 83.74 2.50 83.42 1.41 83.26 0.86 Z" />
<path fill="#5b854f" opacity="1.00" d=" M 83.90 3.05 C 84.89 3.64 85.95 4.01 87.09 4.15 C 88.09 5.41 89.15 6.62 90.22 7.83 C 90.06 10.40 90.74 14.08 86.95 13.16 C 86.03 12.48 85.12 11.79 84.19 11.13 C 83.41 10.54 82.62 9.94 81.85 9.35 C 84.60 8.83 85.29 6.73 83.90 3.05 Z" />
<path fill="#a67db7" opacity="1.00" d=" M 87.09 4.15 L 87.90 3.77 C 91.06 6.22 94.17 9.06 95.09 13.11 C 93.36 11.44 91.90 9.54 90.22 7.83 C 89.15 6.62 88.09 5.41 87.09 4.15 Z" />
<path fill="#3f6361" opacity="1.00" d=" M 90.22 7.83 C 91.90 9.54 93.36 11.44 95.09 13.11 C 95.15 14.95 95.97 16.69 97.21 18.04 C 94.05 20.56 91.21 23.44 88.12 26.03 C 86.19 25.92 84.53 26.66 83.23 28.07 C 82.11 27.16 80.95 26.30 79.91 25.31 C 83.21 24.43 88.34 22.85 88.94 19.18 C 89.33 16.89 88.73 14.69 86.95 13.16 C 90.74 14.08 90.06 10.40 90.22 7.83 Z" />
<path fill="#836a6d" opacity="1.00" d=" M 80.53 8.94 C 80.86 9.04 81.52 9.24 81.85 9.35 C 82.62 9.94 83.41 10.54 84.19 11.13 C 82.93 14.92 79.69 17.51 77.64 20.84 L 76.85 21.32 C 75.65 18.77 75.89 16.00 77.75 13.84 C 77.86 14.69 78.10 16.38 78.22 17.22 C 79.69 15.04 80.85 12.43 80.52 9.75 L 80.53 8.94 Z" />
<path fill="#cebaae" opacity="1.00" d=" M 80.52 9.75 C 80.85 12.43 79.69 15.04 78.22 17.22 C 78.10 16.38 77.86 14.69 77.75 13.84 C 78.27 12.95 78.79 12.05 79.30 11.15 C 79.61 10.80 80.22 10.10 80.52 9.75 Z" />
<path fill="#656638" opacity="1.00" d=" M 77.13 11.97 C 77.67 11.76 78.76 11.35 79.30 11.15 C 78.79 12.05 78.27 12.95 77.75 13.84 C 75.89 16.00 75.65 18.77 76.85 21.32 L 76.72 22.19 L 75.92 21.98 C 74.22 18.75 75.08 14.83 77.13 11.97 Z" />
<path fill="#714364" opacity="1.00" d=" M 84.19 11.13 C 85.12 11.79 86.03 12.48 86.95 13.16 C 88.73 14.69 89.33 16.89 88.94 19.18 C 88.05 17.26 87.18 15.17 85.30 13.99 C 84.89 14.98 84.49 15.97 84.10 16.96 C 81.88 18.14 79.82 19.59 77.64 20.84 C 79.69 17.51 82.93 14.92 84.19 11.13 Z" />
<path fill="#7c6985" opacity="1.00" d=" M 107.12 11.97 C 107.62 11.73 108.62 11.27 109.12 11.04 C 108.42 14.88 107.34 18.80 105.10 22.05 L 104.84 20.90 C 105.33 18.50 106.46 16.28 106.83 13.85 C 106.91 13.38 107.05 12.44 107.12 11.97 Z" />
<path fill="#557a3f" opacity="1.00" d=" M 101.80 15.91 C 103.23 14.16 105.00 12.77 107.12 11.97 C 107.05 12.44 106.91 13.38 106.83 13.85 C 105.19 14.61 103.56 15.42 101.80 15.91 Z" />
<path fill="#000000" opacity="0.31" d=" M 1.84 13.88 C 5.22 12.73 8.69 12.68 12.25 13.71 C 8.78 13.81 5.31 13.96 1.84 13.88 Z" />
<path fill="#a17bb7" opacity="1.00" d=" M 95.09 13.11 C 96.85 13.80 97.59 15.54 98.24 17.19 C 97.98 17.40 97.46 17.83 97.21 18.04 C 95.97 16.69 95.15 14.95 95.09 13.11 Z" />
<path fill="#191610" opacity="0.97" d=" M 0.00 15.10 C 0.46 14.80 1.38 14.18 1.84 13.88 C 5.31 13.96 8.78 13.81 12.25 13.71 C 13.31 13.89 14.34 14.20 15.32 14.65 L 15.16 15.50 C 14.46 16.25 13.88 19.02 13.02 16.92 C 11.97 14.16 8.94 15.10 6.78 15.75 C 6.06 15.85 4.63 16.06 3.91 16.16 C 2.90 16.33 1.90 16.54 0.92 16.81 L 0.00 17.01 L 0.00 15.10 Z" />
<path fill="#2b242f" opacity="1.00" d=" M 85.30 13.99 C 87.18 15.17 88.05 17.26 88.94 19.18 C 88.34 22.85 83.21 24.43 79.91 25.31 C 79.12 24.59 78.37 23.84 77.63 23.07 C 80.04 21.34 83.61 20.35 84.10 16.96 C 84.49 15.97 84.89 14.98 85.30 13.99 Z" />
<path fill="#375961" opacity="1.00" d=" M 101.80 15.91 C 103.56 15.42 105.19 14.61 106.83 13.85 C 106.46 16.28 105.33 18.50 104.84 20.90 C 103.25 22.71 101.85 24.69 99.99 26.25 C 97.22 27.03 94.63 28.39 91.81 29.01 C 92.27 23.56 99.07 21.93 99.95 16.83 C 100.41 16.60 101.34 16.14 101.80 15.91 Z" />
<path fill="#e8d654" opacity="1.00" d=" M 6.78 15.75 C 8.94 15.10 11.97 14.16 13.02 16.92 C 13.88 19.02 14.46 16.25 15.16 15.50 C 17.13 18.23 17.36 21.52 17.02 24.84 C 15.32 24.95 11.91 25.19 10.21 25.31 C 8.83 24.87 6.72 25.60 5.84 24.25 C 7.84 21.68 5.83 18.58 6.78 15.75 Z" />
<path fill="#000000" opacity="0.13" d=" M 32.94 15.07 C 36.35 14.86 39.76 15.13 43.17 15.21 C 40.41 17.09 36.13 15.36 33.00 16.02 L 32.94 15.07 Z" />
<path fill="#955b71" opacity="1.00" d=" M 0.92 16.81 C 1.90 16.54 2.90 16.33 3.91 16.16 C 4.59 18.81 4.29 21.94 5.84 24.25 C 6.72 25.60 8.83 24.87 10.21 25.31 C 8.40 25.84 6.58 26.34 4.78 26.89 C 3.70 23.46 2.63 20.00 0.92 16.81 Z" />
<path fill="#917245" opacity="1.00" d=" M 3.91 16.16 C 4.63 16.06 6.06 15.85 6.78 15.75 C 5.83 18.58 7.84 21.68 5.84 24.25 C 4.29 21.94 4.59 18.81 3.91 16.16 Z" />
<path fill="#000000" opacity="0.11" d=" M 107.91 26.86 C 108.83 23.07 109.23 19.05 111.00 15.51 L 111.00 25.87 C 109.97 26.21 108.94 26.54 107.91 26.86 Z" />
<path fill="#4d364e" opacity="1.00" d=" M 0.00 17.01 L 0.92 16.81 C 2.63 20.00 3.70 23.46 4.78 26.89 C 4.07 27.64 3.37 28.40 2.68 29.17 C 1.76 28.05 0.88 26.89 0.00 25.73 L 0.00 17.01 Z" />
<path fill="#655b4d" opacity="1.00" d=" M 35.86 16.98 C 38.88 17.14 41.83 17.92 44.85 18.12 C 48.71 21.10 44.65 26.39 45.62 30.25 C 45.27 28.60 45.07 26.92 44.89 25.25 C 45.38 22.55 43.00 21.57 40.75 22.17 C 39.00 20.56 37.27 18.91 35.86 16.98 Z" />
<path fill="#423541" opacity="1.00" d=" M 77.64 20.84 C 79.82 19.59 81.88 18.14 84.10 16.96 C 83.61 20.35 80.04 21.34 77.63 23.07 C 77.41 22.85 76.95 22.41 76.72 22.19 L 76.85 21.32 L 77.64 20.84 Z" />
<path fill="#2b4036" opacity="1.00" d=" M 98.24 17.19 C 98.67 17.10 99.52 16.92 99.95 16.83 C 99.07 21.93 92.27 23.56 91.81 29.01 C 90.43 28.57 89.42 27.20 87.82 27.61 C 87.89 27.22 88.05 26.43 88.12 26.03 C 91.21 23.44 94.05 20.56 97.21 18.04 C 97.46 17.83 97.98 17.40 98.24 17.19 Z" />
<path fill="#a79a9f" opacity="1.00" d=" M 99.99 26.25 C 101.85 24.69 103.25 22.71 104.84 20.90 L 105.10 22.05 C 104.44 23.29 103.82 24.55 103.21 25.82 C 102.69 26.16 101.64 26.83 101.12 27.17 C 100.84 26.94 100.27 26.48 99.99 26.25 Z" />
<path fill="#2b1f2e" opacity="1.00" d=" M 40.75 22.17 C 43.00 21.57 45.38 22.55 44.89 25.25 C 43.25 24.61 41.96 23.41 40.75 22.17 Z" />
<path fill="#a6cb37" opacity="1.00" d=" M 75.92 21.98 L 76.72 22.19 C 76.95 22.41 77.41 22.85 77.63 23.07 C 78.37 23.84 79.12 24.59 79.91 25.31 C 80.95 26.30 82.11 27.16 83.23 28.07 C 82.84 29.07 82.44 30.06 82.02 31.05 C 79.22 32.02 76.47 33.13 73.95 34.69 C 72.02 35.52 70.10 36.38 68.08 36.99 L 67.79 35.88 C 70.07 34.17 72.53 32.72 74.74 30.92 C 72.21 28.07 74.75 24.84 75.92 21.98 Z" />
<path fill="#634a4e" opacity="1.00" d=" M 10.21 25.31 C 11.91 25.19 15.32 24.95 17.02 24.84 L 17.07 25.59 C 15.58 26.30 12.36 27.85 15.86 28.23 C 12.42 29.59 16.98 32.15 18.91 32.09 L 19.14 32.86 C 16.76 32.91 14.39 33.25 12.16 34.13 C 11.38 34.10 9.82 34.06 9.04 34.03 C 9.76 33.16 10.53 32.32 11.20 31.40 C 7.64 32.96 7.30 28.42 4.78 26.89 C 6.58 26.34 8.40 25.84 10.21 25.31 Z" />
<path fill="#a3bc34" opacity="1.00" d=" M 47.55 34.34 C 47.02 31.22 45.23 26.35 48.99 24.84 C 48.98 26.49 48.87 28.15 48.67 29.79 C 48.25 31.29 47.88 32.81 47.55 34.34 Z" />
<path fill="#0c0b08" opacity="0.98" d=" M 0.00 25.73 C 0.88 26.89 1.76 28.05 2.68 29.17 C 3.05 33.07 6.69 35.28 7.31 39.13 C 5.37 41.13 3.47 43.19 1.62 45.29 C 1.37 45.53 0.87 46.01 0.62 46.25 L 0.00 45.79 L 0.00 41.33 C 1.28 39.72 4.23 38.60 3.88 36.23 C 2.65 35.31 1.30 34.58 0.00 33.77 L 0.00 25.73 Z" />
<path fill="#a2897a" opacity="1.00" d=" M 15.86 28.23 C 12.36 27.85 15.58 26.30 17.07 25.59 C 17.65 27.77 18.36 29.91 18.91 32.09 C 16.98 32.15 12.42 29.59 15.86 28.23 Z" />
<path fill="#7fa73e" opacity="1.00" d=" M 83.23 28.07 C 84.53 26.66 86.19 25.92 88.12 26.03 C 88.05 26.43 87.89 27.22 87.82 27.61 C 86.90 28.61 85.98 29.61 85.09 30.64 C 84.32 30.74 82.78 30.95 82.02 31.05 C 82.44 30.06 82.84 29.07 83.23 28.07 Z" />
<path fill="#4b6d59" opacity="1.00" d=" M 91.81 29.01 C 94.63 28.39 97.22 27.03 99.99 26.25 C 100.27 26.48 100.84 26.94 101.12 27.17 C 98.64 28.31 95.62 28.55 93.76 30.82 C 92.38 31.73 90.97 32.65 90.06 34.07 C 88.77 34.65 87.38 34.59 86.02 34.41 C 86.30 35.63 86.66 36.83 86.97 38.04 C 84.36 38.92 80.22 40.36 81.47 43.84 C 79.95 45.52 78.26 47.34 76.05 48.06 C 76.45 47.09 76.79 46.09 77.08 45.08 C 75.73 45.00 74.39 44.97 73.05 44.99 C 75.49 43.22 78.56 41.83 79.80 38.92 L 80.11 38.01 C 81.96 36.37 83.73 34.64 85.37 32.79 C 85.83 32.14 85.73 31.42 85.09 30.64 C 85.98 29.61 86.90 28.61 87.82 27.61 C 89.42 27.20 90.43 28.57 91.81 29.01 Z" />
<path fill="#283937" opacity="1.00" d=" M 101.12 27.17 C 101.64 26.83 102.69 26.16 103.21 25.82 C 102.87 27.12 102.12 28.21 101.15 29.12 C 98.68 29.68 96.25 30.36 93.76 30.82 C 95.62 28.55 98.64 28.31 101.12 27.17 Z" />
<path fill="#3e5b6a" opacity="1.00" d=" M 103.21 25.82 C 103.71 26.09 104.69 26.65 105.18 26.92 C 101.71 30.94 100.26 36.81 95.16 39.16 C 95.30 35.11 99.00 32.29 101.15 29.12 C 102.12 28.21 102.87 27.12 103.21 25.82 Z" />
<path fill="#3a2d37" opacity="1.00" d=" M 2.68 29.17 C 3.37 28.40 4.07 27.64 4.78 26.89 C 7.30 28.42 7.64 32.96 11.20 31.40 C 10.53 32.32 9.76 33.16 9.04 34.03 C 9.82 34.06 11.38 34.10 12.16 34.13 C 10.61 35.86 8.99 37.52 7.31 39.13 C 6.69 35.28 3.05 33.07 2.68 29.17 Z" />
<path fill="#28252d" opacity="1.00" d=" M 105.18 26.92 C 105.85 27.43 106.47 27.98 107.07 28.57 C 106.80 28.86 106.27 29.43 106.00 29.72 C 104.47 31.50 103.42 33.72 102.90 36.01 C 105.61 36.47 108.00 35.11 110.24 33.78 L 111.00 34.20 L 111.00 47.35 C 107.87 45.59 109.83 41.92 109.88 39.04 C 108.46 39.70 107.09 40.46 105.73 41.21 C 105.73 40.15 105.79 39.09 105.77 38.03 C 101.86 36.95 98.76 39.63 95.10 40.01 L 95.16 39.16 C 100.26 36.81 101.71 30.94 105.18 26.92 Z" />
<path fill="#344d72" opacity="1.00" d=" M 93.76 30.82 C 96.25 30.36 98.68 29.68 101.15 29.12 C 99.00 32.29 95.30 35.11 95.16 39.16 L 95.10 40.01 L 95.04 40.61 L 94.27 41.07 C 92.35 42.11 90.79 43.65 89.17 45.08 L 88.22 45.10 C 87.62 45.03 86.44 44.91 85.84 44.85 C 85.65 42.41 87.04 40.71 88.87 39.35 C 88.39 39.02 87.45 38.36 86.97 38.04 C 88.47 37.15 89.73 35.84 90.06 34.07 C 90.97 32.65 92.38 31.73 93.76 30.82 Z" />
<path fill="#8e63aa" opacity="1.00" d=" M 106.00 29.72 C 106.27 29.43 106.80 28.86 107.07 28.57 C 108.38 29.81 109.68 31.07 111.00 32.31 L 111.00 34.20 L 110.24 33.78 C 108.86 32.39 107.47 31.02 106.00 29.72 Z" />
<path fill="#99c03c" opacity="1.00" d=" M 28.19 32.89 C 29.71 29.13 38.58 27.80 37.30 33.66 C 35.89 34.79 34.57 36.03 33.08 37.05 C 32.05 36.09 31.22 34.91 30.05 34.13 C 29.58 33.82 28.66 33.20 28.19 32.89 Z" />
<path fill="#9ea64d" opacity="1.00" d=" M 47.55 34.34 C 47.88 32.81 48.25 31.29 48.67 29.79 C 48.58 32.67 50.17 34.95 51.90 37.08 C 50.99 37.29 50.08 37.47 49.16 37.64 C 48.71 36.85 48.25 36.06 47.77 35.29 L 47.55 34.34 Z" />
<path fill="#305062" opacity="1.00" d=" M 102.90 36.01 C 103.42 33.72 104.47 31.50 106.00 29.72 C 107.47 31.02 108.86 32.39 110.24 33.78 C 108.00 35.11 105.61 36.47 102.90 36.01 Z" />
<path fill="#5f6421" opacity="1.00" d=" M 73.95 34.69 C 76.47 33.13 79.22 32.02 82.02 31.05 C 82.78 30.95 84.32 30.74 85.09 30.64 C 85.73 31.42 85.83 32.14 85.37 32.79 C 82.26 31.24 77.60 33.11 77.62 36.99 C 76.65 36.49 75.79 35.84 74.87 35.27 L 73.95 34.69 Z" />
<path fill="#eddb39" opacity="1.00" d=" M 77.62 36.99 C 77.60 33.11 82.26 31.24 85.37 32.79 C 83.73 34.64 81.96 36.37 80.11 38.01 C 76.34 38.27 72.59 38.84 68.81 38.95 C 70.73 37.58 72.86 36.51 74.87 35.27 C 75.79 35.84 76.65 36.49 77.62 36.99 Z" />
<path fill="#dff843" opacity="1.00" d=" M 12.16 34.13 C 14.39 33.25 16.76 32.91 19.14 32.86 C 21.23 32.96 23.32 33.23 25.28 34.01 C 24.97 34.22 24.35 34.65 24.04 34.86 C 21.21 35.59 20.97 39.16 18.80 40.81 C 15.33 42.77 11.71 45.88 7.36 44.36 C 5.36 43.95 3.56 45.05 1.62 45.29 C 3.47 43.19 5.37 41.13 7.31 39.13 C 8.99 37.52 10.61 35.86 12.16 34.13 Z" />
<path fill="#283b33" opacity="1.00" d=" M 28.19 32.89 C 28.66 33.20 29.58 33.82 30.05 34.13 C 29.40 36.93 27.60 39.64 28.18 42.59 C 29.53 43.19 31.39 43.34 32.08 44.85 C 31.72 47.61 31.69 52.02 35.75 50.99 C 35.80 50.54 35.90 49.63 35.95 49.18 C 36.18 48.56 36.64 47.32 36.87 46.70 L 37.90 47.02 C 37.85 48.74 37.41 50.41 37.06 52.09 C 35.49 52.71 33.83 52.44 32.20 52.29 C 30.26 54.96 31.51 58.15 31.99 61.06 C 31.67 60.75 31.03 60.12 30.71 59.81 C 29.25 58.12 29.11 56.06 29.95 54.04 C 30.88 50.21 33.10 43.56 27.15 43.85 C 26.83 43.65 26.20 43.26 25.88 43.06 C 27.20 40.18 27.94 37.04 27.99 33.87 L 28.19 32.89 Z" />
<path fill="#5f6d1e" opacity="1.00" d=" M 41.93 35.85 C 43.37 35.06 44.82 34.26 45.90 32.98 C 46.04 34.14 46.66 34.91 47.77 35.29 C 48.25 36.06 48.71 36.85 49.16 37.64 C 48.60 37.47 47.48 37.13 46.92 36.96 C 46.44 36.77 45.48 36.38 45.00 36.19 C 44.24 36.11 42.70 35.94 41.93 35.85 Z" />
<path fill="#000000" opacity="0.10" d=" M 0.00 33.77 C 1.30 34.58 2.65 35.31 3.88 36.23 C 4.23 38.60 1.28 39.72 0.00 41.33 L 0.00 33.77 Z" />
<path fill="#689762" opacity="1.00" d=" M 25.28 34.01 C 25.95 33.97 27.31 33.91 27.99 33.87 C 27.94 37.04 27.20 40.18 25.88 43.06 C 22.17 42.23 19.40 44.94 16.16 46.12 L 15.88 45.02 C 18.50 41.54 24.41 39.88 24.04 34.86 C 24.35 34.65 24.97 34.22 25.28 34.01 Z" />
<path fill="#507c64" opacity="1.00" d=" M 30.05 34.13 C 31.22 34.91 32.05 36.09 33.08 37.05 C 34.57 36.03 35.89 34.79 37.30 33.66 C 37.09 38.00 37.03 42.35 36.87 46.70 C 36.64 47.32 36.18 48.56 35.95 49.18 C 34.10 48.26 32.89 46.71 32.08 44.85 C 31.39 43.34 29.53 43.19 28.18 42.59 C 27.60 39.64 29.40 36.93 30.05 34.13 Z" />
<path fill="#161f1c" opacity="1.00" d=" M 37.30 33.66 C 37.66 35.13 37.92 36.62 38.11 38.13 C 38.06 41.09 38.09 44.06 37.90 47.02 L 36.87 46.70 C 37.03 42.35 37.09 38.00 37.30 33.66 Z" />
<path fill="#26393e" opacity="1.00" d=" M 86.02 34.41 C 87.38 34.59 88.77 34.65 90.06 34.07 C 89.73 35.84 88.47 37.15 86.97 38.04 C 86.66 36.83 86.30 35.63 86.02 34.41 Z" />
<path fill="#c5e53d" opacity="1.00" d=" M 18.80 40.81 C 20.97 39.16 21.21 35.59 24.04 34.86 C 24.41 39.88 18.50 41.54 15.88 45.02 C 11.30 47.93 4.94 51.37 0.62 46.25 C 0.87 46.01 1.37 45.53 1.62 45.29 C 3.56 45.05 5.36 43.95 7.36 44.36 C 11.71 45.88 15.33 42.77 18.80 40.81 Z" />
<path fill="#757a24" opacity="1.00" d=" M 68.08 36.99 C 70.10 36.38 72.02 35.52 73.95 34.69 L 74.87 35.27 C 72.86 36.51 70.73 37.58 68.81 38.95 C 72.59 38.84 76.34 38.27 80.11 38.01 L 79.80 38.92 C 76.24 39.94 72.30 39.30 68.92 40.88 C 67.62 40.63 66.33 40.40 65.03 40.17 C 65.91 38.99 66.99 37.98 68.08 36.99 Z" />
<path fill="#d0e83d" opacity="1.00" d=" M 40.00 37.01 C 40.48 36.72 41.45 36.14 41.93 35.85 C 42.70 35.94 44.24 36.11 45.00 36.19 C 46.02 39.68 43.11 42.48 39.98 40.06 C 39.99 39.29 39.99 37.77 40.00 37.01 Z" />
<path fill="#b6d836" opacity="1.00" d=" M 45.00 36.19 C 45.48 36.38 46.44 36.77 46.92 36.96 C 45.17 40.04 47.86 43.16 48.22 46.30 C 47.02 50.39 42.50 45.49 40.02 44.83 C 40.00 43.24 39.98 41.65 39.98 40.06 C 43.11 42.48 46.02 39.68 45.00 36.19 Z" />
<path fill="#8bb642" opacity="1.00" d=" M 62.53 39.19 C 62.96 36.62 65.88 36.74 67.79 35.88 L 68.08 36.99 C 66.99 37.98 65.91 38.99 65.03 40.17 C 64.41 39.93 63.15 39.43 62.53 39.19 Z" />
<path fill="#669251" opacity="1.00" d=" M 38.78 37.74 C 39.09 37.56 39.69 37.19 40.00 37.01 C 39.99 37.77 39.99 39.29 39.98 40.06 C 39.98 41.65 40.00 43.24 40.02 44.83 C 39.95 45.42 39.82 46.60 39.76 47.19 C 39.34 44.05 38.98 40.91 38.78 37.74 Z" />
<path fill="#83962c" opacity="1.00" d=" M 46.92 36.96 C 47.48 37.13 48.60 37.47 49.16 37.64 C 50.08 37.47 50.99 37.29 51.90 37.08 C 52.84 37.91 53.38 39.67 54.75 39.75 C 55.56 38.83 56.28 37.84 57.08 36.91 C 56.94 38.32 57.16 39.98 55.79 40.87 C 53.93 40.83 51.66 39.67 50.69 41.96 C 49.71 43.32 49.01 44.84 48.22 46.30 C 47.86 43.16 45.17 40.04 46.92 36.96 Z" />
<path fill="#4c765e" opacity="1.00" d=" M 38.11 38.13 L 38.78 37.74 C 38.98 40.91 39.34 44.05 39.76 47.19 C 39.86 48.76 39.92 50.33 40.05 51.89 C 39.49 55.04 42.79 55.20 45.03 55.03 C 47.18 55.89 46.89 57.90 45.93 59.59 L 45.14 60.03 C 42.65 60.64 42.90 63.19 42.64 65.23 C 41.32 63.41 40.15 61.49 38.91 59.62 L 38.90 58.95 C 39.26 56.46 38.24 54.20 37.06 52.09 C 37.41 50.41 37.85 48.74 37.90 47.02 C 38.09 44.06 38.06 41.09 38.11 38.13 Z" />
<path fill="#638236" opacity="1.00" d=" M 58.82 38.18 C 60.06 38.50 61.29 38.86 62.53 39.19 C 63.15 39.43 64.41 39.93 65.03 40.17 C 63.04 41.72 59.10 40.89 58.82 38.18 Z" />
<path fill="#2e4047" opacity="1.00" d=" M 81.47 43.84 C 80.22 40.36 84.36 38.92 86.97 38.04 C 87.45 38.36 88.39 39.02 88.87 39.35 C 87.04 40.71 85.65 42.41 85.84 44.85 C 82.34 47.02 79.79 50.51 76.02 52.25 C 76.66 51.19 77.36 50.16 77.97 49.08 C 74.70 49.48 71.42 49.87 68.14 50.17 C 66.70 50.03 65.27 49.85 63.84 49.62 C 64.43 49.43 65.61 49.04 66.20 48.85 C 67.83 48.93 69.49 49.00 71.04 48.40 C 72.72 48.78 74.43 48.61 76.05 48.06 C 78.26 47.34 79.95 45.52 81.47 43.84 Z" />
<path fill="#5f4b59" opacity="1.00" d=" M 95.10 40.01 C 98.76 39.63 101.86 36.95 105.77 38.03 C 105.79 39.09 105.73 40.15 105.73 41.21 C 104.01 44.07 102.49 47.05 101.57 50.26 L 100.76 50.17 C 100.63 49.83 100.37 49.14 100.24 48.80 C 100.22 47.62 101.46 44.65 99.38 46.45 C 97.86 46.99 95.96 50.72 94.80 49.06 C 94.92 47.41 95.04 45.77 95.21 44.13 C 96.11 43.03 95.86 41.66 95.04 40.61 L 95.10 40.01 Z" />
<path fill="#8ab13a" opacity="1.00" d=" M 68.92 40.88 C 72.30 39.30 76.24 39.94 79.80 38.92 C 78.56 41.83 75.49 43.22 73.05 44.99 C 71.83 45.79 71.00 46.88 71.04 48.40 C 69.49 49.00 67.83 48.93 66.20 48.85 C 65.15 48.50 64.10 48.15 63.05 47.80 C 63.02 46.62 63.05 45.45 63.14 44.27 C 65.67 44.26 67.93 43.37 68.92 40.88 Z" />
<path fill="#f7f7de" opacity="1.00" d=" M 105.73 41.21 C 107.09 40.46 108.46 39.70 109.88 39.04 C 109.83 41.92 107.87 45.59 111.00 47.35 L 111.00 48.83 C 107.82 49.02 104.76 50.59 101.57 50.26 C 102.49 47.05 104.01 44.07 105.73 41.21 Z" />
<path fill="#18161a" opacity="1.00" d=" M 89.17 45.08 C 90.79 43.65 92.35 42.11 94.27 41.07 C 93.78 42.00 93.31 42.93 92.85 43.87 C 90.51 48.62 91.24 54.16 91.02 59.28 C 91.02 60.01 91.01 61.46 91.00 62.19 C 92.45 66.79 93.70 72.18 97.90 75.04 C 100.37 78.52 96.61 76.26 95.06 74.94 C 94.89 74.67 94.55 74.13 94.39 73.86 C 90.14 69.43 91.39 61.97 86.96 58.06 C 89.66 56.78 89.23 53.67 89.57 51.04 C 89.96 49.05 89.53 47.04 89.17 45.08 Z" />
<path fill="#806e71" opacity="1.00" d=" M 94.27 41.07 L 95.04 40.61 C 95.86 41.66 96.11 43.03 95.21 44.13 C 94.45 44.77 93.70 45.41 92.95 46.06 C 92.93 45.51 92.88 44.42 92.85 43.87 C 93.31 42.93 93.78 42.00 94.27 41.07 Z" />
<path fill="#a1c738" opacity="1.00" d=" M 48.22 46.30 C 49.01 44.84 49.71 43.32 50.69 41.96 C 52.25 43.08 56.08 43.43 54.15 45.98 C 52.74 46.00 51.33 46.04 49.93 46.12 C 49.89 47.57 50.33 48.96 51.17 50.14 C 52.13 51.66 52.98 53.25 53.28 55.05 C 51.65 56.93 50.40 59.07 49.19 61.22 C 48.11 60.65 47.02 60.11 45.93 59.59 C 46.89 57.90 47.18 55.89 45.03 55.03 C 43.52 53.76 41.75 52.87 40.05 51.89 C 39.92 50.33 39.86 48.76 39.76 47.19 C 39.82 46.60 39.95 45.42 40.02 44.83 C 42.50 45.49 47.02 50.39 48.22 46.30 Z" />
<path fill="#bedf39" opacity="1.00" d=" M 16.16 46.12 C 19.40 44.94 22.17 42.23 25.88 43.06 C 26.20 43.26 26.83 43.65 27.15 43.85 C 28.80 46.69 26.08 49.32 25.15 51.92 C 24.51 52.65 23.85 53.37 23.17 54.06 C 19.12 55.08 15.69 59.08 11.27 57.81 C 9.94 56.30 8.67 54.72 7.71 52.95 C 8.07 52.60 8.80 51.90 9.16 51.55 C 11.55 49.82 13.82 47.93 16.16 46.12 Z" />
<path fill="#507d65" opacity="1.00" d=" M 27.15 43.85 C 33.10 43.56 30.88 50.21 29.95 54.04 C 28.57 52.86 27.02 51.95 25.15 51.92 C 26.08 49.32 28.80 46.69 27.15 43.85 Z" />
<path fill="#554754" opacity="1.00" d=" M 91.02 59.28 C 91.24 54.16 90.51 48.62 92.85 43.87 C 92.88 44.42 92.93 45.51 92.95 46.06 C 92.96 47.41 92.97 48.76 92.99 50.11 C 91.88 53.90 95.38 54.73 98.07 56.00 L 96.97 56.35 C 96.49 56.48 95.52 56.73 95.04 56.86 C 93.38 55.78 92.65 58.97 91.02 59.28 Z" />
<path fill="#c3b2ad" opacity="1.00" d=" M 92.95 46.06 C 93.70 45.41 94.45 44.77 95.21 44.13 C 95.04 45.77 94.92 47.41 94.80 49.06 C 94.35 49.32 93.44 49.85 92.99 50.11 C 92.97 48.76 92.96 47.41 92.95 46.06 Z" />
<path fill="#9cc13e" opacity="1.00" d=" M 0.62 46.25 C 4.94 51.37 11.30 47.93 15.88 45.02 L 16.16 46.12 C 13.82 47.93 11.55 49.82 9.16 51.55 C 6.00 51.08 3.05 54.43 0.00 52.08 L 0.00 45.79 L 0.62 46.25 Z" />
<path fill="#3e6460" opacity="1.00" d=" M 32.08 44.85 C 32.89 46.71 34.10 48.26 35.95 49.18 C 35.90 49.63 35.80 50.54 35.75 50.99 C 31.69 52.02 31.72 47.61 32.08 44.85 Z" />
<path fill="#676947" opacity="1.00" d=" M 55.94 45.88 C 59.12 44.22 61.27 45.45 63.05 47.80 C 64.10 48.15 65.15 48.50 66.20 48.85 C 65.61 49.04 64.43 49.43 63.84 49.62 C 62.15 49.32 60.49 48.89 58.84 48.40 C 61.75 46.42 57.74 45.25 55.94 45.88 Z" />
<path fill="#c7af98" opacity="1.00" d=" M 73.05 44.99 C 74.39 44.97 75.73 45.00 77.08 45.08 C 76.79 46.09 76.45 47.09 76.05 48.06 C 74.43 48.61 72.72 48.78 71.04 48.40 C 71.00 46.88 71.83 45.79 73.05 44.99 Z" />
<path fill="#385a67" opacity="1.00" d=" M 76.02 52.25 C 79.79 50.51 82.34 47.02 85.84 44.85 C 86.44 44.91 87.62 45.03 88.22 45.10 C 84.65 48.66 80.71 52.12 79.03 57.03 C 76.18 57.26 71.12 59.89 71.80 55.23 C 73.43 54.59 75.06 53.79 76.02 52.25 Z" />
<path fill="#282429" opacity="1.00" d=" M 88.22 45.10 L 89.17 45.08 C 89.53 47.04 89.96 49.05 89.57 51.04 C 87.98 49.15 86.96 51.84 85.83 52.82 L 84.91 52.73 C 84.88 52.27 84.82 51.33 84.79 50.86 C 80.83 53.88 79.03 59.31 80.17 64.16 C 79.96 65.43 81.98 66.66 82.73 65.26 C 83.04 65.00 83.65 64.50 83.96 64.25 C 84.48 67.25 85.53 70.12 86.22 73.08 C 84.70 71.53 83.97 68.26 81.18 69.04 C 79.22 71.60 77.09 74.05 75.36 76.78 C 74.02 78.77 72.15 80.30 69.84 81.00 C 70.57 78.05 73.45 76.36 75.05 73.91 C 72.08 74.26 70.55 77.34 68.32 79.00 C 68.19 78.47 67.92 77.41 67.79 76.88 C 70.79 73.49 74.00 70.27 77.76 67.72 C 78.01 66.13 78.00 64.52 78.10 62.93 L 78.31 62.01 C 78.85 60.40 78.96 58.71 79.03 57.03 C 80.71 52.12 84.65 48.66 88.22 45.10 Z" />
<path fill="#848c59" opacity="1.00" d=" M 49.93 46.12 C 51.33 46.04 52.74 46.00 54.15 45.98 L 55.11 45.96 C 54.44 46.95 53.77 47.95 53.12 48.95 C 52.63 49.25 51.65 49.84 51.17 50.14 C 50.33 48.96 49.89 47.57 49.93 46.12 Z" />
<path fill="#596a32" opacity="1.00" d=" M 55.11 45.96 L 55.94 45.88 C 56.23 46.39 56.82 47.41 57.11 47.92 C 57.41 48.39 58.02 49.32 58.32 49.79 C 58.02 50.03 57.43 50.49 57.14 50.72 C 56.18 49.39 54.70 48.96 53.12 48.95 C 53.77 47.95 54.44 46.95 55.11 45.96 Z" />
<path fill="#d6c2a1" opacity="1.00" d=" M 55.94 45.88 C 57.74 45.25 61.75 46.42 58.84 48.40 C 58.41 48.28 57.54 48.04 57.11 47.92 C 56.82 47.41 56.23 46.39 55.94 45.88 Z" />
<path fill="#715b65" opacity="1.00" d=" M 99.38 46.45 C 101.46 44.65 100.22 47.62 100.24 48.80 C 100.10 51.00 99.35 53.27 99.92 55.46 C 99.45 55.59 98.53 55.86 98.07 56.00 C 95.38 54.73 91.88 53.90 92.99 50.11 C 93.44 49.85 94.35 49.32 94.80 49.06 C 95.96 50.72 97.86 46.99 99.38 46.45 Z" />
<path fill="#5c824c" opacity="1.00" d=" M 57.11 47.92 C 57.54 48.04 58.41 48.28 58.84 48.40 C 60.49 48.89 62.15 49.32 63.84 49.62 C 65.27 49.85 66.70 50.03 68.14 50.17 C 67.77 50.65 67.04 51.61 66.68 52.10 C 65.37 52.71 64.05 53.29 62.77 53.94 C 62.13 53.23 61.50 52.52 60.88 51.80 C 60.20 50.92 59.32 50.25 58.32 49.79 C 58.02 49.32 57.41 48.39 57.11 47.92 Z" />
<path fill="#80ac41" opacity="1.00" d=" M 53.12 48.95 C 54.70 48.96 56.18 49.39 57.14 50.72 C 55.72 52.05 54.55 53.59 53.28 55.05 C 52.98 53.25 52.13 51.66 51.17 50.14 C 51.65 49.84 52.63 49.25 53.12 48.95 Z" />
<path fill="#42665a" opacity="1.00" d=" M 68.14 50.17 C 71.42 49.87 74.70 49.48 77.97 49.08 C 77.36 50.16 76.66 51.19 76.02 52.25 C 74.23 52.03 72.61 52.96 71.16 53.89 C 69.67 53.27 68.16 52.73 66.68 52.10 C 67.04 51.61 67.77 50.65 68.14 50.17 Z" />
<path fill="#413a38" opacity="1.00" d=" M 100.24 48.80 C 100.37 49.14 100.63 49.83 100.76 50.17 C 101.17 51.30 100.65 53.04 101.76 53.77 C 102.11 54.00 102.81 54.48 103.15 54.72 C 102.34 54.91 100.73 55.27 99.92 55.46 C 99.35 53.27 100.10 51.00 100.24 48.80 Z" />
<path fill="#f8f4c0" opacity="1.00" d=" M 101.57 50.26 C 104.76 50.59 107.82 49.02 111.00 48.83 L 111.00 55.97 L 110.12 55.92 C 108.23 53.23 104.89 52.45 101.76 53.77 C 100.65 53.04 101.17 51.30 100.76 50.17 L 101.57 50.26 Z" />
<path fill="#373929" opacity="1.00" d=" M 58.32 49.79 C 59.32 50.25 60.20 50.92 60.88 51.80 C 58.70 52.46 57.21 54.26 55.66 55.81 C 55.39 56.09 54.84 56.65 54.56 56.93 C 49.51 60.65 49.63 68.68 55.04 71.97 L 54.13 71.87 L 53.13 71.74 C 51.86 71.49 50.59 71.25 49.30 71.08 L 49.31 70.39 C 48.86 67.30 47.55 64.31 49.19 61.22 C 50.40 59.07 51.65 56.93 53.28 55.05 C 54.55 53.59 55.72 52.05 57.14 50.72 C 57.43 50.49 58.02 50.03 58.32 49.79 Z" />
<path fill="#466e63" opacity="1.00" d=" M 85.83 52.82 C 86.96 51.84 87.98 49.15 89.57 51.04 C 89.23 53.67 89.66 56.78 86.96 58.06 C 86.74 58.51 86.31 59.40 86.09 59.85 C 86.01 60.60 85.84 62.09 85.75 62.84 C 85.30 63.19 84.41 63.90 83.96 64.25 C 83.65 64.50 83.04 65.00 82.73 65.26 C 80.45 60.55 83.86 56.72 85.83 52.82 Z" />
<path fill="#436a65" opacity="1.00" d=" M 0.00 52.08 C 3.05 54.43 6.00 51.08 9.16 51.55 C 8.80 51.90 8.07 52.60 7.71 52.95 C 5.30 55.43 5.44 59.76 7.82 62.21 C 9.49 65.76 13.49 65.53 15.24 62.18 C 17.96 59.55 20.70 56.93 23.17 54.06 C 23.85 53.37 24.51 52.65 25.15 51.92 C 27.02 51.95 28.57 52.86 29.95 54.04 C 29.11 56.06 29.25 58.12 30.71 59.81 C 30.07 61.10 29.47 62.42 28.98 63.78 L 28.28 64.25 C 28.19 63.44 28.02 61.83 27.93 61.02 C 25.25 62.83 22.38 64.42 20.01 66.64 C 20.55 66.96 21.63 67.59 22.17 67.91 C 18.19 67.97 14.24 67.57 10.27 67.58 C 8.08 66.95 7.03 64.62 4.85 64.00 C 3.43 61.72 2.05 59.38 0.00 57.60 L 0.00 52.08 Z" />
<path fill="#5c4655" opacity="1.00" d=" M 80.17 64.16 C 79.03 59.31 80.83 53.88 84.79 50.86 C 84.82 51.33 84.88 52.27 84.91 52.73 C 81.97 55.83 80.59 59.97 80.17 64.16 Z" />
<path fill="#3d5e67" opacity="1.00" d=" M 32.20 52.29 C 33.83 52.44 35.49 52.71 37.06 52.09 C 38.24 54.20 39.26 56.46 38.90 58.95 C 37.34 57.79 35.98 56.17 33.95 55.89 C 35.99 60.54 36.99 65.55 37.16 70.63 C 36.08 70.64 35.00 70.70 33.93 70.77 C 32.83 68.94 32.61 67.65 35.10 68.75 C 34.35 66.08 33.31 63.50 31.99 61.06 C 31.51 58.15 30.26 54.96 32.20 52.29 Z" />
<path fill="#85b140" opacity="1.00" d=" M 40.05 51.89 C 41.75 52.87 43.52 53.76 45.03 55.03 C 42.79 55.20 39.49 55.04 40.05 51.89 Z" />
<path fill="#82ae42" opacity="1.00" d=" M 55.66 55.81 C 57.21 54.26 58.70 52.46 60.88 51.80 C 61.50 52.52 62.13 53.23 62.77 53.94 L 63.19 54.74 C 63.37 57.36 62.66 60.10 60.00 61.13 C 57.84 60.14 56.91 57.69 55.66 55.81 Z" />
<path fill="#3c583d" opacity="1.00" d=" M 62.77 53.94 C 64.05 53.29 65.37 52.71 66.68 52.10 C 68.16 52.73 69.67 53.27 71.16 53.89 C 69.66 53.93 66.65 54.00 65.15 54.04 C 65.87 56.64 65.73 59.27 64.90 61.82 C 64.45 62.11 63.54 62.68 63.09 62.96 C 63.16 60.24 64.96 57.16 63.19 54.74 L 62.77 53.94 Z" />
<path fill="#2f4949" opacity="1.00" d=" M 71.16 53.89 C 72.61 52.96 74.23 52.03 76.02 52.25 C 75.06 53.79 73.43 54.59 71.80 55.23 L 71.17 54.75 L 71.16 53.89 Z" />
<path fill="#94ba3a" opacity="1.00" d=" M 7.82 62.21 C 5.44 59.76 5.30 55.43 7.71 52.95 C 8.67 54.72 9.94 56.30 11.27 57.81 C 15.69 59.08 19.12 55.08 23.17 54.06 C 20.70 56.93 17.96 59.55 15.24 62.18 C 12.82 61.22 10.29 61.87 7.82 62.21 Z" />
<path fill="#2d3834" opacity="1.00" d=" M 80.17 64.16 C 80.59 59.97 81.97 55.83 84.91 52.73 L 85.83 52.82 C 83.86 56.72 80.45 60.55 82.73 65.26 C 81.98 66.66 79.96 65.43 80.17 64.16 Z" />
<path fill="#7e7d69" opacity="1.00" d=" M 101.76 53.77 C 104.89 52.45 108.23 53.23 110.12 55.92 L 109.15 56.21 C 108.71 56.08 107.82 55.81 107.38 55.68 C 105.99 55.25 104.57 54.99 103.15 54.72 C 102.81 54.48 102.11 54.00 101.76 53.77 Z" />
<path fill="#527b56" opacity="1.00" d=" M 65.15 54.04 C 66.65 54.00 69.66 53.93 71.16 53.89 L 71.17 54.75 C 70.78 56.13 70.31 57.49 69.98 58.89 C 71.53 58.97 74.63 59.12 76.18 59.20 C 75.15 60.35 71.42 60.48 72.89 62.48 L 73.07 62.93 C 70.65 63.61 68.29 64.47 65.82 64.96 C 67.26 63.20 69.39 62.31 71.24 61.09 C 69.65 61.27 66.49 61.64 64.90 61.82 C 65.73 59.27 65.87 56.64 65.15 54.04 Z" />
<path fill="#638e51" opacity="1.00" d=" M 63.19 54.74 C 64.96 57.16 63.16 60.24 63.09 62.96 C 63.54 62.68 64.45 62.11 64.90 61.82 C 66.49 61.64 69.65 61.27 71.24 61.09 C 69.39 62.31 67.26 63.20 65.82 64.96 C 68.29 64.47 70.65 63.61 73.07 62.93 C 74.85 62.86 76.59 62.44 78.31 62.01 L 78.10 62.93 C 74.70 64.81 70.93 65.84 67.30 67.17 C 64.55 64.81 61.99 66.95 60.20 69.24 C 60.00 68.91 59.58 68.26 59.37 67.94 C 61.32 63.46 55.98 60.71 54.56 56.93 C 54.84 56.65 55.39 56.09 55.66 55.81 C 56.91 57.69 57.84 60.14 60.00 61.13 C 62.66 60.10 63.37 57.36 63.19 54.74 Z" />
<path fill="#41645a" opacity="1.00" d=" M 71.17 54.75 L 71.80 55.23 C 71.12 59.89 76.18 57.26 79.03 57.03 C 78.96 58.71 78.85 60.40 78.31 62.01 C 77.97 58.60 74.55 62.04 72.89 62.48 C 71.42 60.48 75.15 60.35 76.18 59.20 C 74.63 59.12 71.53 58.97 69.98 58.89 C 70.31 57.49 70.78 56.13 71.17 54.75 Z" />
<path fill="#f3f1ed" opacity="1.00" d=" M 99.92 55.46 C 100.73 55.27 102.34 54.91 103.15 54.72 C 104.57 54.99 105.99 55.25 107.38 55.68 C 105.55 55.72 103.64 55.80 102.02 56.72 C 100.32 56.92 98.59 56.94 96.97 56.35 L 98.07 56.00 C 98.53 55.86 99.45 55.59 99.92 55.46 Z" />
<path fill="#273b5e" opacity="1.00" d=" M 33.95 55.89 C 35.98 56.17 37.34 57.79 38.90 58.95 L 38.91 59.62 C 37.82 64.50 44.78 68.41 43.08 73.93 C 42.52 73.75 41.41 73.38 40.85 73.19 C 40.62 72.91 40.17 72.36 39.95 72.08 C 39.21 71.31 38.28 70.83 37.16 70.63 C 36.99 65.55 35.99 60.54 33.95 55.89 Z" />
<path fill="#422b44" opacity="1.00" d=" M 91.02 59.28 C 92.65 58.97 93.38 55.78 95.04 56.86 C 96.51 58.16 98.13 59.28 99.84 60.23 C 101.32 61.13 103.12 61.02 104.77 61.29 C 106.33 61.48 109.44 61.88 111.00 62.07 L 111.00 65.94 C 109.21 67.53 106.10 67.82 105.05 70.01 L 104.73 71.00 C 101.39 67.45 98.67 63.33 95.22 59.88 C 95.10 60.43 94.86 61.51 94.73 62.05 C 93.50 62.32 92.24 62.49 91.00 62.19 C 91.01 61.46 91.02 60.01 91.02 59.28 Z" />
<path fill="#a28a85" opacity="1.00" d=" M 95.04 56.86 C 95.52 56.73 96.49 56.48 96.97 56.35 C 98.59 56.94 100.32 56.92 102.02 56.72 C 102.49 56.84 103.44 57.07 103.91 57.18 C 104.92 60.33 102.20 60.24 99.84 60.23 C 98.13 59.28 96.51 58.16 95.04 56.86 Z" />
<path fill="#e2d7d3" opacity="1.00" d=" M 102.02 56.72 C 103.64 55.80 105.55 55.72 107.38 55.68 C 107.82 55.81 108.71 56.08 109.15 56.21 C 107.60 57.24 105.69 57.14 103.91 57.18 C 103.44 57.07 102.49 56.84 102.02 56.72 Z" />
<path fill="#705b64" opacity="1.00" d=" M 109.15 56.21 L 110.12 55.92 L 111.00 55.97 L 111.00 59.77 C 108.87 60.04 106.80 60.61 104.77 61.29 C 103.12 61.02 101.32 61.13 99.84 60.23 C 102.20 60.24 104.92 60.33 103.91 57.18 C 105.69 57.14 107.60 57.24 109.15 56.21 Z" />
<path fill="#85b047" opacity="1.00" d=" M 55.04 71.97 C 49.63 68.68 49.51 60.65 54.56 56.93 C 55.98 60.71 61.32 63.46 59.37 67.94 C 58.08 69.83 57.43 76.15 55.04 71.97 Z" />
<path fill="#060809" opacity="0.96" d=" M 0.00 57.60 C 2.05 59.38 3.43 61.72 4.85 64.00 C 5.66 66.89 6.40 70.40 9.77 71.28 L 9.75 72.16 C 9.03 72.15 7.59 72.13 6.87 72.12 C 5.17 73.05 3.44 74.12 2.28 75.72 C 1.53 76.61 0.77 77.49 0.00 78.36 L 0.00 74.21 C 1.14 73.04 3.29 72.55 3.78 70.94 C 2.92 68.00 2.29 64.75 0.00 62.54 L 0.00 57.60 Z" />
<path fill="#534351" opacity="1.00" d=" M 86.09 59.85 C 86.31 59.40 86.74 58.51 86.96 58.06 C 91.39 61.97 90.14 69.43 94.39 73.86 C 93.32 75.07 92.18 76.22 90.98 77.29 C 90.27 76.69 89.60 76.07 88.95 75.41 C 89.64 74.39 90.34 73.36 90.88 72.25 C 90.01 69.80 88.73 67.52 87.76 65.11 C 87.55 63.25 89.22 59.57 86.09 59.85 Z" />
<path fill="#3b3441" opacity="1.00" d=" M 28.98 63.78 C 29.47 62.42 30.07 61.10 30.71 59.81 C 31.03 60.12 31.67 60.75 31.99 61.06 C 33.31 63.50 34.35 66.08 35.10 68.75 C 32.61 67.65 32.83 68.94 33.93 70.77 C 30.95 70.93 27.97 71.06 25.00 71.01 C 26.42 68.66 28.41 66.55 28.98 63.78 Z" />
<path fill="#252d3e" opacity="1.00" d=" M 43.08 73.93 C 44.78 68.41 37.82 64.50 38.91 59.62 C 40.15 61.49 41.32 63.41 42.64 65.23 C 42.91 65.73 43.44 66.71 43.71 67.21 C 44.08 69.53 44.48 71.85 44.90 74.17 C 44.95 75.35 44.99 76.54 45.04 77.73 L 45.07 78.68 C 45.08 79.17 45.10 80.14 45.11 80.63 C 42.03 79.65 39.85 82.31 39.27 85.07 C 39.05 83.88 38.35 83.14 37.20 82.87 C 38.65 81.32 40.63 80.38 42.32 79.12 C 44.19 77.45 41.47 74.98 40.85 73.19 C 41.41 73.38 42.52 73.75 43.08 73.93 Z" />
<path fill="#3c584e" opacity="1.00" d=" M 42.64 65.23 C 42.90 63.19 42.65 60.64 45.14 60.03 C 45.03 60.44 44.82 61.25 44.71 61.65 C 44.13 63.45 43.92 65.34 43.71 67.21 C 43.44 66.71 42.91 65.73 42.64 65.23 Z" />
<path fill="#86b142" opacity="1.00" d=" M 45.14 60.03 L 45.93 59.59 C 47.02 60.11 48.11 60.65 49.19 61.22 C 47.55 64.31 48.86 67.30 49.31 70.39 C 45.59 69.49 46.59 64.37 44.71 61.65 C 44.82 61.25 45.03 60.44 45.14 60.03 Z" />
<path fill="#71a074" opacity="1.00" d=" M 72.89 62.48 C 74.55 62.04 77.97 58.60 78.31 62.01 C 76.59 62.44 74.85 62.86 73.07 62.93 L 72.89 62.48 Z" />
<path fill="#9a8685" opacity="1.00" d=" M 86.09 59.85 C 89.22 59.57 87.55 63.25 87.76 65.11 L 86.67 65.34 C 86.44 64.71 85.98 63.46 85.75 62.84 C 85.84 62.09 86.01 60.60 86.09 59.85 Z" />
<path fill="#5d4958" opacity="1.00" d=" M 95.22 59.88 C 98.67 63.33 101.39 67.45 104.73 71.00 C 106.54 73.08 108.43 75.16 111.00 76.31 L 111.00 78.22 C 104.66 74.16 96.13 70.22 94.73 62.05 C 94.86 61.51 95.10 60.43 95.22 59.88 Z" />
<path fill="#554254" opacity="1.00" d=" M 104.77 61.29 C 106.80 60.61 108.87 60.04 111.00 59.77 L 111.00 62.07 C 109.44 61.88 106.33 61.48 104.77 61.29 Z" />
<path fill="#7fa73e" opacity="1.00" d=" M 7.82 62.21 C 10.29 61.87 12.82 61.22 15.24 62.18 C 13.49 65.53 9.49 65.76 7.82 62.21 Z" />
<path fill="#5d874f" opacity="1.00" d=" M 20.01 66.64 C 22.38 64.42 25.25 62.83 27.93 61.02 C 28.02 61.83 28.19 63.44 28.28 64.25 C 27.60 64.90 26.92 65.55 26.24 66.20 C 24.90 66.78 23.70 67.95 22.17 67.91 C 21.63 67.59 20.55 66.96 20.01 66.64 Z" />
<path fill="#547866" opacity="1.00" d=" M 43.71 67.21 C 43.92 65.34 44.13 63.45 44.71 61.65 C 46.59 64.37 45.59 69.49 49.31 70.39 L 49.30 71.08 C 47.82 72.09 46.35 73.11 44.90 74.17 C 44.48 71.85 44.08 69.53 43.71 67.21 Z" />
<path fill="#30253a" opacity="1.00" d=" M 91.00 62.19 C 92.24 62.49 93.50 62.32 94.73 62.05 C 96.13 70.22 104.66 74.16 111.00 78.22 L 111.00 79.29 C 106.51 78.20 102.68 74.74 97.90 75.04 C 93.70 72.18 92.45 66.79 91.00 62.19 Z" />
<path fill="#000000" opacity="0.07" d=" M 0.00 62.54 C 2.29 64.75 2.92 68.00 3.78 70.94 C 3.29 72.55 1.14 73.04 0.00 74.21 L 0.00 62.54 Z" />
<path fill="#a4c939" opacity="1.00" d=" M 67.30 67.17 C 70.93 65.84 74.70 64.81 78.10 62.93 C 78.00 64.52 78.01 66.13 77.76 67.72 C 74.00 70.27 70.79 73.49 67.79 76.88 C 65.02 77.48 62.16 78.09 59.67 76.30 C 56.34 75.45 59.11 71.92 60.02 70.10 C 62.49 69.24 64.90 68.21 67.30 67.17 Z" />
<path fill="#726069" opacity="1.00" d=" M 83.96 64.25 C 84.41 63.90 85.30 63.19 85.75 62.84 C 85.98 63.46 86.44 64.71 86.67 65.34 C 87.63 67.79 88.06 71.27 90.88 72.25 C 90.34 73.36 89.64 74.39 88.95 75.41 C 88.05 74.62 87.14 73.85 86.22 73.08 C 85.53 70.12 84.48 67.25 83.96 64.25 Z" />
<path fill="#375962" opacity="1.00" d=" M 4.85 64.00 C 7.03 64.62 8.08 66.95 10.27 67.58 C 14.24 67.57 18.19 67.97 22.17 67.91 C 23.70 67.95 24.90 66.78 26.24 66.20 C 24.75 68.68 22.82 70.87 20.72 72.85 C 16.89 73.83 13.33 72.29 9.77 71.28 C 6.40 70.40 5.66 66.89 4.85 64.00 Z" />
<path fill="#222428" opacity="1.00" d=" M 28.28 64.25 L 28.98 63.78 C 28.41 66.55 26.42 68.66 25.00 71.01 C 27.97 71.06 30.95 70.93 33.93 70.77 C 35.00 70.70 36.08 70.64 37.16 70.63 C 38.28 70.83 39.21 71.31 39.95 72.08 C 39.52 72.11 38.67 72.19 38.24 72.22 C 32.71 73.05 25.61 69.69 21.04 74.08 C 17.12 74.45 13.18 74.14 9.75 72.16 L 9.77 71.28 C 13.33 72.29 16.89 73.83 20.72 72.85 C 22.82 70.87 24.75 68.68 26.24 66.20 C 26.92 65.55 27.60 64.90 28.28 64.25 Z" />
<path fill="#d2bfb6" opacity="1.00" d=" M 86.67 65.34 L 87.76 65.11 C 88.73 67.52 90.01 69.80 90.88 72.25 C 88.06 71.27 87.63 67.79 86.67 65.34 Z" />
<path fill="#7daa4b" opacity="1.00" d=" M 60.20 69.24 C 61.99 66.95 64.55 64.81 67.30 67.17 C 64.90 68.21 62.49 69.24 60.02 70.10 L 60.20 69.24 Z" />
<path fill="#5d3f56" opacity="1.00" d=" M 105.05 70.01 C 106.10 67.82 109.21 67.53 111.00 65.94 L 111.00 75.28 C 109.05 73.48 107.06 71.73 105.05 70.01 Z" />
<path fill="#44473a" opacity="1.00" d=" M 59.37 67.94 C 59.58 68.26 60.00 68.91 60.20 69.24 L 60.02 70.10 C 59.11 71.92 56.34 75.45 59.67 76.30 L 60.06 76.94 C 56.91 76.65 53.06 77.19 52.09 80.74 L 51.49 81.03 C 50.92 80.77 49.79 80.26 49.23 80.00 C 49.45 79.54 49.88 78.62 50.10 78.16 C 50.33 77.90 50.78 77.36 51.01 77.09 C 52.41 75.67 53.83 72.98 55.14 76.04 C 54.90 74.63 54.56 73.24 54.13 71.87 L 55.04 71.97 C 57.43 76.15 58.08 69.83 59.37 67.94 Z" />
<path fill="#462e4d" opacity="1.00" d=" M 81.18 69.04 C 83.97 68.26 84.70 71.53 86.22 73.08 C 85.35 76.19 81.76 77.38 79.93 79.82 C 80.48 79.93 81.57 80.15 82.12 80.26 C 81.17 81.65 80.21 83.04 79.09 84.30 C 77.23 79.10 71.90 86.91 73.03 90.17 C 72.04 89.68 71.05 89.21 70.05 88.76 C 71.44 84.66 76.15 81.23 75.36 76.78 C 77.09 74.05 79.22 71.60 81.18 69.04 Z" />
<path fill="#281f26" opacity="1.00" d=" M 105.05 70.01 C 107.06 71.73 109.05 73.48 111.00 75.28 L 111.00 76.31 C 108.43 75.16 106.54 73.08 104.73 71.00 L 105.05 70.01 Z" />
<path fill="#ede6d2" opacity="1.00" d=" M 49.30 71.08 C 50.59 71.25 51.86 71.49 53.13 71.74 C 52.27 73.46 51.53 75.24 51.01 77.09 C 50.78 77.36 50.33 77.90 50.10 78.16 C 48.42 77.92 46.74 77.48 45.04 77.73 C 44.99 76.54 44.95 75.35 44.90 74.17 C 46.35 73.11 47.82 72.09 49.30 71.08 Z" />
<path fill="#3d3044" opacity="1.00" d=" M 2.28 75.72 C 3.44 74.12 5.17 73.05 6.87 72.12 C 7.48 73.73 8.18 75.31 8.92 76.87 C 7.10 81.00 11.06 84.94 12.25 88.73 C 13.13 91.44 15.73 92.61 18.22 93.46 C 17.06 94.28 15.90 95.08 14.73 95.89 C 11.45 97.11 6.09 101.54 4.28 96.27 C 5.05 92.57 1.84 89.29 1.43 85.61 C -2.01 81.74 3.58 79.04 2.28 75.72 Z" />
<path fill="#94627a" opacity="1.00" d=" M 6.87 72.12 C 7.59 72.13 9.03 72.15 9.75 72.16 C 13.18 74.14 17.12 74.45 21.04 74.08 L 20.91 74.98 C 19.45 74.99 16.53 75.02 15.07 75.03 C 17.73 79.42 18.57 87.89 26.12 85.18 C 24.69 86.08 23.24 86.94 21.79 87.82 C 20.92 88.15 20.05 88.45 19.16 88.73 C 16.54 85.38 14.52 81.62 12.34 77.98 C 12.11 81.80 10.11 78.11 8.92 76.87 C 8.18 75.31 7.48 73.73 6.87 72.12 Z" />
<path fill="#cbcb7a" opacity="1.00" d=" M 21.04 74.08 C 25.61 69.69 32.71 73.05 38.24 72.22 C 35.18 72.61 32.11 72.91 29.04 73.09 C 29.21 73.37 29.55 73.92 29.72 74.19 L 30.15 74.90 C 27.07 74.92 23.99 75.00 20.91 74.98 L 21.04 74.08 Z" />
<path fill="#b9b576" opacity="1.00" d=" M 38.24 72.22 C 38.67 72.19 39.52 72.11 39.95 72.08 C 40.17 72.36 40.62 72.91 40.85 73.19 C 41.47 74.98 44.19 77.45 42.32 79.12 C 42.09 78.85 41.63 78.31 41.40 78.05 C 41.14 77.71 40.62 77.05 40.36 76.72 C 39.03 72.00 33.38 74.49 29.72 74.19 C 29.55 73.92 29.21 73.37 29.04 73.09 C 32.11 72.91 35.18 72.61 38.24 72.22 Z" />
<path fill="#c5b0a2" opacity="1.00" d=" M 53.13 71.74 L 54.13 71.87 C 54.56 73.24 54.90 74.63 55.14 76.04 C 53.83 72.98 52.41 75.67 51.01 77.09 C 51.53 75.24 52.27 73.46 53.13 71.74 Z" />
<path fill="#232028" opacity="1.00" d=" M 86.22 73.08 C 87.14 73.85 88.05 74.62 88.95 75.41 C 89.60 76.07 90.27 76.69 90.98 77.29 C 91.79 77.97 92.75 78.44 93.70 78.91 C 94.15 77.58 94.58 76.26 95.06 74.94 C 96.61 76.26 100.37 78.52 97.90 75.04 C 102.68 74.74 106.51 78.20 111.00 79.29 L 111.00 98.10 L 110.13 98.03 C 110.02 97.58 109.79 96.69 109.67 96.24 C 105.82 95.37 101.87 95.20 97.96 94.76 C 95.58 93.85 92.66 93.73 91.98 90.76 C 92.95 90.38 93.94 90.02 94.93 89.69 C 95.37 94.57 101.13 93.19 104.75 93.86 C 106.39 91.20 109.32 88.60 108.90 85.24 C 105.82 81.73 100.51 84.06 98.18 87.15 C 98.53 84.79 98.71 82.41 98.88 80.03 C 97.31 80.30 94.75 83.62 93.98 81.92 C 94.05 80.18 92.40 79.77 91.16 79.10 C 89.99 78.23 88.91 77.28 87.76 76.41 C 85.67 77.22 84.08 79.13 82.12 80.26 C 81.57 80.15 80.48 79.93 79.93 79.82 C 81.76 77.38 85.35 76.19 86.22 73.08 Z" />
<path fill="#ede57a" opacity="1.00" d=" M 29.72 74.19 C 33.38 74.49 39.03 72.00 40.36 76.72 C 36.98 76.00 33.60 75.21 30.15 74.90 L 29.72 74.19 Z" />
<path fill="#674c4f" opacity="1.00" d=" M 68.32 79.00 C 70.55 77.34 72.08 74.26 75.05 73.91 C 73.45 76.36 70.57 78.05 69.84 81.00 C 72.15 80.30 74.02 78.77 75.36 76.78 C 76.15 81.23 71.44 84.66 70.05 88.76 C 69.71 88.61 69.03 88.30 68.69 88.15 C 69.17 86.80 69.69 85.47 70.11 84.10 C 68.78 84.77 67.57 85.77 66.04 85.94 C 66.81 83.64 68.64 81.54 68.32 79.00 Z" />
<path fill="#3b2f3f" opacity="1.00" d=" M 94.39 73.86 C 94.55 74.13 94.89 74.67 95.06 74.94 C 94.58 76.26 94.15 77.58 93.70 78.91 C 92.75 78.44 91.79 77.97 90.98 77.29 C 92.18 76.22 93.32 75.07 94.39 73.86 Z" />
<path fill="#edc65e" opacity="1.00" d=" M 15.07 75.03 C 16.53 75.02 19.45 74.99 20.91 74.98 C 23.99 75.00 27.07 74.92 30.15 74.90 C 33.60 75.21 36.98 76.00 40.36 76.72 C 40.62 77.05 41.14 77.71 41.40 78.05 C 36.14 80.03 30.89 82.16 26.12 85.18 C 18.57 87.89 17.73 79.42 15.07 75.03 Z" />
<path fill="#856478" opacity="1.00" d=" M 2.28 75.72 C 3.58 79.04 -2.01 81.74 1.43 85.61 C 1.84 89.29 5.05 92.57 4.28 96.27 C 2.61 93.51 1.35 90.54 0.00 87.61 L 0.00 78.36 C 0.77 77.49 1.53 76.61 2.28 75.72 Z" />
<path fill="#666d43" opacity="1.00" d=" M 59.67 76.30 C 62.16 78.09 65.02 77.48 67.79 76.88 C 67.92 77.41 68.19 78.47 68.32 79.00 C 65.98 77.10 63.56 78.99 62.11 80.97 C 61.60 79.54 60.84 78.23 60.06 76.94 L 59.67 76.30 Z" />
<path fill="#91bb3b" opacity="1.00" d=" M 82.12 80.26 C 84.08 79.13 85.67 77.22 87.76 76.41 C 88.91 77.28 89.99 78.23 91.16 79.10 C 88.92 81.62 86.54 84.03 83.80 86.00 C 81.15 86.97 78.52 87.99 75.86 88.92 C 76.87 87.34 77.90 85.76 79.09 84.30 C 80.21 83.04 81.17 81.65 82.12 80.26 Z" />
<path fill="#553b54" opacity="1.00" d=" M 8.92 76.87 C 10.11 78.11 12.11 81.80 12.34 77.98 C 14.52 81.62 16.54 85.38 19.16 88.73 C 20.05 88.45 20.92 88.15 21.79 87.82 C 22.41 88.18 23.64 88.91 24.26 89.27 C 22.34 90.80 20.31 92.19 18.22 93.46 C 15.73 92.61 13.13 91.44 12.25 88.73 C 11.06 84.94 7.10 81.00 8.92 76.87 Z" />
<path fill="#b9a99a" opacity="1.00" d=" M 45.04 77.73 C 46.74 77.48 48.42 77.92 50.10 78.16 C 49.88 78.62 49.45 79.54 49.23 80.00 C 47.92 81.33 46.80 78.38 45.07 78.68 L 45.04 77.73 Z" />
<path fill="#e6dfcb" opacity="1.00" d=" M 52.09 80.74 C 53.06 77.19 56.91 76.65 60.06 76.94 C 60.84 78.23 61.60 79.54 62.11 80.97 C 59.80 82.42 57.49 83.88 54.96 84.93 C 53.04 84.82 52.44 82.34 52.09 80.74 Z" />
<path fill="#764a6b" opacity="1.00" d=" M 41.40 78.05 C 41.63 78.31 42.09 78.85 42.32 79.12 C 40.63 80.38 38.65 81.32 37.20 82.87 C 36.87 83.31 36.21 84.18 35.88 84.62 C 34.24 85.40 32.60 86.18 30.92 86.88 L 30.12 87.08 C 28.05 87.46 26.15 88.41 24.26 89.27 C 23.64 88.91 22.41 88.18 21.79 87.82 C 23.24 86.94 24.69 86.08 26.12 85.18 C 30.89 82.16 36.14 80.03 41.40 78.05 Z" />
<path fill="#e6ddc3" opacity="1.00" d=" M 62.11 80.97 C 63.56 78.99 65.98 77.10 68.32 79.00 C 68.64 81.54 66.81 83.64 66.04 85.94 C 63.03 85.66 61.15 84.20 62.11 80.97 Z" />
<path fill="#71565c" opacity="1.00" d=" M 45.07 78.68 C 46.80 78.38 47.92 81.33 49.23 80.00 C 49.79 80.26 50.92 80.77 51.49 81.03 C 49.88 82.14 47.88 81.97 46.03 82.08 C 45.80 81.72 45.34 80.99 45.11 80.63 C 45.10 80.14 45.08 79.17 45.07 78.68 Z" />
<path fill="#5e8a51" opacity="1.00" d=" M 91.16 79.10 C 92.40 79.77 94.05 80.18 93.98 81.92 C 92.68 82.94 91.41 83.99 90.12 85.01 C 88.04 85.73 85.97 87.49 83.80 86.00 C 86.54 84.03 88.92 81.62 91.16 79.10 Z" />
<path fill="#273960" opacity="1.00" d=" M 39.27 85.07 C 39.85 82.31 42.03 79.65 45.11 80.63 C 45.34 80.99 45.80 81.72 46.03 82.08 C 46.58 83.06 47.12 84.03 47.67 85.00 C 47.89 86.75 48.05 88.50 48.20 90.25 C 46.88 90.59 45.55 91.01 44.16 91.01 C 43.09 90.57 42.72 88.47 41.56 90.05 C 40.70 88.44 39.93 86.78 39.27 85.07 Z" />
<path fill="#2f3234" opacity="1.00" d=" M 93.98 81.92 C 94.75 83.62 97.31 80.30 98.88 80.03 C 98.71 82.41 98.53 84.79 98.18 87.15 C 97.20 88.13 96.07 88.92 94.93 89.69 C 93.94 90.02 92.95 90.38 91.98 90.76 C 90.19 90.58 86.45 92.24 86.99 89.15 C 88.36 88.04 89.25 86.51 90.12 85.01 C 91.41 83.99 92.68 82.94 93.98 81.92 Z" />
<path fill="#372e35" opacity="1.00" d=" M 51.49 81.03 L 52.09 80.74 C 52.44 82.34 53.04 84.82 54.96 84.93 C 57.49 83.88 59.80 82.42 62.11 80.97 C 61.15 84.20 63.03 85.66 66.04 85.94 C 67.57 85.77 68.78 84.77 70.11 84.10 C 69.69 85.47 69.17 86.80 68.69 88.15 L 67.84 88.10 C 66.62 88.02 65.40 87.94 64.18 87.86 C 61.62 86.34 59.18 87.36 57.89 89.89 C 56.06 89.20 54.22 88.57 52.37 87.96 C 51.48 86.56 49.29 83.15 47.67 85.00 C 47.12 84.03 46.58 83.06 46.03 82.08 C 47.88 81.97 49.88 82.14 51.49 81.03 Z" />
<path fill="#2b252a" opacity="1.00" d=" M 73.03 90.17 C 71.90 86.91 77.23 79.10 79.09 84.30 C 77.90 85.76 76.87 87.34 75.86 88.92 C 75.13 89.52 74.42 90.12 73.71 90.73 L 73.08 91.23 L 73.03 90.17 Z" />
<path fill="#d3d6db" opacity="1.00" d=" M 37.20 82.87 C 38.35 83.14 39.05 83.88 39.27 85.07 C 39.93 86.78 40.70 88.44 41.56 90.05 C 41.95 91.40 43.84 93.10 42.17 94.30 C 41.73 93.98 40.84 93.34 40.40 93.02 C 39.33 90.51 38.08 88.06 36.56 85.78 C 36.39 85.49 36.05 84.91 35.88 84.62 C 36.21 84.18 36.87 83.31 37.20 82.87 Z" />
<path fill="#080a09" opacity="1.00" d=" M 47.67 85.00 C 49.29 83.15 51.48 86.56 52.37 87.96 C 51.29 88.68 50.20 89.37 49.10 90.05 L 48.20 90.25 C 48.05 88.50 47.89 86.75 47.67 85.00 Z" />
<path fill="#3d3d40" opacity="1.00" d=" M 98.18 87.15 C 100.51 84.06 105.82 81.73 108.90 85.24 C 109.32 88.60 106.39 91.20 104.75 93.86 C 101.13 93.19 95.37 94.57 94.93 89.69 C 96.07 88.92 97.20 88.13 98.18 87.15 Z" />
<path fill="#b8c0e9" opacity="1.00" d=" M 30.92 86.88 C 32.60 86.18 34.24 85.40 35.88 84.62 C 36.05 84.91 36.39 85.49 36.56 85.78 C 36.31 88.67 38.16 91.22 39.09 93.84 C 39.42 93.64 40.07 93.23 40.40 93.02 C 40.84 93.34 41.73 93.98 42.17 94.30 C 41.20 95.36 40.13 96.31 39.03 97.24 C 37.46 97.66 35.89 98.04 34.31 98.42 L 34.27 97.57 C 34.76 93.95 33.51 89.52 30.92 86.88 Z" />
<path fill="#4a7563" opacity="1.00" d=" M 83.80 86.00 C 85.97 87.49 88.04 85.73 90.12 85.01 C 89.25 86.51 88.36 88.04 86.99 89.15 C 81.75 87.81 77.37 94.51 79.98 99.04 C 79.51 98.99 78.59 98.89 78.12 98.84 C 76.98 98.00 75.89 97.10 74.89 96.10 C 74.50 94.31 74.06 92.53 73.71 90.73 C 74.42 90.12 75.13 89.52 75.86 88.92 C 78.52 87.99 81.15 86.97 83.80 86.00 Z" />
<path fill="#a5aac4" opacity="1.00" d=" M 39.09 93.84 C 38.16 91.22 36.31 88.67 36.56 85.78 C 38.08 88.06 39.33 90.51 40.40 93.02 C 40.07 93.23 39.42 93.64 39.09 93.84 Z" />
<path fill="#242330" opacity="1.00" d=" M 24.26 89.27 C 26.15 88.41 28.05 87.46 30.12 87.08 C 29.78 87.50 29.09 88.33 28.75 88.75 C 27.78 89.18 26.82 89.64 25.88 90.14 C 23.97 91.24 21.81 92.30 20.87 94.43 C 18.55 94.35 16.26 96.02 15.48 98.18 C 15.29 97.61 14.92 96.46 14.73 95.89 C 15.90 95.08 17.06 94.28 18.22 93.46 C 20.31 92.19 22.34 90.80 24.26 89.27 Z" />
<path fill="#a1aad5" opacity="1.00" d=" M 30.12 87.08 L 30.92 86.88 C 33.51 89.52 34.76 93.95 34.27 97.57 C 31.61 95.22 30.09 91.97 28.75 88.75 C 29.09 88.33 29.78 87.50 30.12 87.08 Z" />
<path fill="#876a44" opacity="1.00" d=" M 57.89 89.89 C 59.18 87.36 61.62 86.34 64.18 87.86 L 63.96 88.82 C 63.48 88.87 62.53 88.96 62.05 89.00 C 59.98 88.55 59.27 90.57 58.51 92.04 L 57.56 91.66 C 57.64 91.22 57.80 90.34 57.89 89.89 Z" />
<path fill="#060506" opacity="0.96" d=" M 0.00 87.61 C 1.35 90.54 2.61 93.51 4.28 96.27 C 6.09 101.54 11.45 97.11 14.73 95.89 C 14.92 96.46 15.29 97.61 15.48 98.18 C 15.70 102.23 19.99 102.83 23.10 103.66 C 21.66 104.21 20.24 104.82 18.79 105.36 C 17.41 105.90 15.40 106.22 15.10 107.96 C 15.41 108.98 15.73 109.99 16.07 111.00 L 14.08 111.00 C 13.37 109.73 12.66 108.47 12.12 107.12 C 13.45 105.77 15.18 105.06 16.99 104.60 C 16.02 102.61 13.80 101.49 13.59 99.05 C 10.75 99.89 8.49 102.94 5.24 101.87 C 3.28 99.26 1.72 96.38 0.00 93.62 L 0.00 87.61 Z" />
<path fill="#6a934e" opacity="1.00" d=" M 52.37 87.96 C 54.22 88.57 56.06 89.20 57.89 89.89 C 57.80 90.34 57.64 91.22 57.56 91.66 C 57.30 92.78 57.07 93.91 56.87 95.05 C 56.63 94.77 56.16 94.22 55.93 93.94 C 54.10 91.73 50.25 93.65 47.71 93.18 C 46.02 92.61 48.79 91.01 49.10 90.05 C 50.20 89.37 51.29 88.68 52.37 87.96 Z" />
<path fill="#695430" opacity="1.00" d=" M 64.18 87.86 C 65.40 87.94 66.62 88.02 67.84 88.10 C 67.93 88.48 68.11 89.23 68.20 89.61 C 66.29 90.45 64.69 91.79 63.01 92.99 C 63.30 91.59 63.66 90.22 63.96 88.82 L 64.18 87.86 Z" />
<path fill="#a67b4f" opacity="1.00" d=" M 67.84 88.10 L 68.69 88.15 C 69.03 88.30 69.71 88.61 70.05 88.76 C 71.05 89.21 72.04 89.68 73.03 90.17 L 73.08 91.23 C 72.23 93.43 71.29 95.60 70.76 97.91 L 70.11 98.18 L 69.11 98.19 C 70.05 95.24 72.87 90.63 68.20 89.61 C 68.11 89.23 67.93 88.48 67.84 88.10 Z" />
<path fill="#8189b4" opacity="1.00" d=" M 25.88 90.14 C 26.82 89.64 27.78 89.18 28.75 88.75 C 30.09 91.97 31.61 95.22 34.27 97.57 L 34.31 98.42 C 33.76 98.66 32.67 99.12 32.12 99.35 C 28.37 98.07 27.67 93.23 25.88 90.14 Z" />
<path fill="#271f29" opacity="1.00" d=" M 41.56 90.05 C 42.72 88.47 43.09 90.57 44.16 91.01 C 45.55 91.01 46.88 90.59 48.20 90.25 L 49.10 90.05 C 48.79 91.01 46.02 92.61 47.71 93.18 C 48.33 93.48 49.57 94.09 50.19 94.39 C 49.08 94.64 47.96 94.85 46.84 95.03 C 43.91 94.53 42.37 97.21 40.72 99.10 L 40.10 98.91 C 39.83 98.49 39.30 97.65 39.03 97.24 C 40.13 96.31 41.20 95.36 42.17 94.30 C 43.84 93.10 41.95 91.40 41.56 90.05 Z" />
<path fill="#2a2131" opacity="1.00" d=" M 58.51 92.04 C 59.27 90.57 59.98 88.55 62.05 89.00 C 61.34 90.47 60.69 91.96 59.93 93.41 C 59.58 93.06 58.87 92.38 58.51 92.04 Z" />
<path fill="#886662" opacity="1.00" d=" M 62.05 89.00 C 62.53 88.96 63.48 88.87 63.96 88.82 C 63.66 90.22 63.30 91.59 63.01 92.99 C 64.69 91.79 66.29 90.45 68.20 89.61 C 67.57 92.70 66.96 97.54 62.85 97.37 C 62.87 96.54 62.91 94.90 62.93 94.08 C 61.77 94.10 59.75 95.51 59.93 93.41 C 60.69 91.96 61.34 90.47 62.05 89.00 Z" />
<path fill="#3e6267" opacity="1.00" d=" M 79.98 99.04 C 77.37 94.51 81.75 87.81 86.99 89.15 C 86.45 92.24 90.19 90.58 91.98 90.76 C 90.57 95.02 86.17 97.94 81.81 98.41 C 84.15 100.25 90.83 98.66 88.37 103.00 C 87.68 102.20 86.87 101.58 85.93 101.15 C 83.96 100.40 81.95 99.77 79.98 99.04 Z" />
<path fill="#535c8b" opacity="1.00" d=" M 20.87 94.43 C 21.81 92.30 23.97 91.24 25.88 90.14 C 27.67 93.23 28.37 98.07 32.12 99.35 C 30.06 100.18 27.95 100.88 25.89 101.71 C 24.56 100.13 23.46 98.37 22.15 96.77 C 21.83 96.18 21.19 95.01 20.87 94.43 Z" />
<path fill="#402d34" opacity="1.00" d=" M 68.20 89.61 C 72.87 90.63 70.05 95.24 69.11 98.19 C 68.37 98.23 66.89 98.30 66.15 98.34 C 65.02 98.10 63.93 97.77 62.85 97.37 C 66.96 97.54 67.57 92.70 68.20 89.61 Z" />
<path fill="#424548" opacity="1.00" d=" M 73.08 91.23 L 73.71 90.73 C 74.06 92.53 74.50 94.31 74.89 96.10 C 72.67 93.64 71.98 97.12 71.71 99.00 C 71.47 98.73 71.00 98.18 70.76 97.91 C 71.29 95.60 72.23 93.43 73.08 91.23 Z" />
<path fill="#495176" opacity="1.00" d=" M 91.98 90.76 C 92.66 93.73 95.58 93.85 97.96 94.76 C 97.64 95.05 97.02 95.65 96.70 95.94 C 96.44 96.19 95.91 96.67 95.65 96.91 C 94.80 97.63 93.95 98.34 93.12 99.07 C 90.43 101.17 87.36 105.74 89.86 108.97 C 90.23 109.48 90.96 110.49 91.33 111.00 L 84.85 111.00 L 85.27 110.25 C 86.98 108.18 87.39 105.45 88.37 103.00 C 90.83 98.66 84.15 100.25 81.81 98.41 C 86.17 97.94 90.57 95.02 91.98 90.76 Z" />
<path fill="#e3de6e" opacity="1.00" d=" M 56.87 95.05 C 57.07 93.91 57.30 92.78 57.56 91.66 C 57.30 94.96 60.16 96.48 62.85 97.37 C 63.93 97.77 65.02 98.10 66.15 98.34 C 63.99 98.44 61.83 98.43 59.68 98.29 C 58.72 97.23 57.75 96.17 56.87 95.05 Z" />
<path fill="#50423b" opacity="1.00" d=" M 57.56 91.66 L 58.51 92.04 C 58.87 92.38 59.58 93.06 59.93 93.41 C 59.75 95.51 61.77 94.10 62.93 94.08 C 62.91 94.90 62.87 96.54 62.85 97.37 C 60.16 96.48 57.30 94.96 57.56 91.66 Z" />
<path fill="#44563c" opacity="1.00" d=" M 47.71 93.18 C 50.25 93.65 54.10 91.73 55.93 93.94 C 54.01 93.99 52.09 94.12 50.19 94.39 C 49.57 94.09 48.33 93.48 47.71 93.18 Z" />
<path fill="#273a62" opacity="1.00" d=" M 15.48 98.18 C 16.26 96.02 18.55 94.35 20.87 94.43 C 21.19 95.01 21.83 96.18 22.15 96.77 C 22.58 99.01 23.49 101.11 24.32 103.22 C 24.02 103.33 23.41 103.55 23.10 103.66 C 19.99 102.83 15.70 102.23 15.48 98.18 Z" />
<path fill="#4e393e" opacity="1.00" d=" M 50.19 94.39 C 52.09 94.12 54.01 93.99 55.93 93.94 C 56.16 94.22 56.63 94.77 56.87 95.05 C 57.75 96.17 58.72 97.23 59.68 98.29 C 59.60 100.26 59.60 102.22 59.69 104.19 C 59.25 106.90 61.05 107.72 63.15 106.21 C 63.58 106.26 64.43 106.36 64.86 106.41 C 66.26 106.72 67.68 106.96 69.10 107.23 C 66.98 108.05 65.07 109.26 63.59 111.00 L 58.17 111.00 C 59.18 106.58 53.96 107.48 53.58 111.00 L 44.60 111.00 C 48.48 108.28 52.48 105.72 56.74 103.65 C 56.99 102.43 57.10 101.20 57.07 99.96 C 57.08 98.54 57.07 96.97 55.81 96.04 C 52.70 96.60 50.04 98.58 47.27 100.03 C 46.94 99.74 46.28 99.17 45.95 98.88 C 47.76 97.64 50.30 96.02 46.84 95.03 C 47.96 94.85 49.08 94.64 50.19 94.39 Z" />
<path fill="#7f325f" opacity="1.00" d=" M 40.72 99.10 C 42.37 97.21 43.91 94.53 46.84 95.03 C 50.30 96.02 47.76 97.64 45.95 98.88 C 45.14 99.31 44.31 99.74 43.49 100.16 C 42.57 99.77 41.64 99.46 40.72 99.10 Z" />
<path fill="#5c8957" opacity="1.00" d=" M 71.71 99.00 C 71.98 97.12 72.67 93.64 74.89 96.10 C 75.89 97.10 76.98 98.00 78.12 98.84 C 76.19 98.95 74.22 99.04 72.43 99.85 C 72.25 99.64 71.89 99.21 71.71 99.00 Z" />
<path fill="#43686a" opacity="1.00" d=" M 96.70 95.94 C 97.02 95.65 97.64 95.05 97.96 94.76 C 100.88 98.26 106.01 97.62 110.13 98.03 L 111.00 98.10 L 111.00 100.13 C 108.29 99.48 105.54 98.85 102.73 99.14 C 101.99 99.16 100.51 99.18 99.78 99.20 C 98.69 98.17 97.68 97.07 96.70 95.94 Z" />
<path fill="#334e6c" opacity="1.00" d=" M 97.96 94.76 C 101.87 95.20 105.82 95.37 109.67 96.24 C 109.79 96.69 110.02 97.58 110.13 98.03 C 106.01 97.62 100.88 98.26 97.96 94.76 Z" />
<path fill="#9d7e6c" opacity="1.00" d=" M 47.27 100.03 C 50.04 98.58 52.70 96.60 55.81 96.04 C 57.07 96.97 57.08 98.54 57.07 99.96 C 52.52 102.89 47.44 104.95 43.12 108.25 C 41.95 107.49 40.79 106.72 39.66 105.90 L 40.14 105.17 C 42.42 103.32 44.88 101.72 47.27 100.03 Z" />
<path fill="#45603e" opacity="1.00" d=" M 95.65 96.91 C 95.91 96.67 96.44 96.19 96.70 95.94 C 97.68 97.07 98.69 98.17 99.78 99.20 C 100.81 100.23 101.89 101.23 103.04 102.13 C 102.74 102.43 102.15 103.02 101.85 103.31 C 101.42 102.92 100.57 102.13 100.14 101.74 C 98.61 100.17 97.09 98.57 95.65 96.91 Z" />
<path fill="#1f2430" opacity="1.00" d=" M 22.15 96.77 C 23.46 98.37 24.56 100.13 25.89 101.71 C 27.91 103.21 25.65 103.04 24.32 103.22 C 23.49 101.11 22.58 99.01 22.15 96.77 Z" />
<path fill="#61565e" opacity="1.00" d=" M 34.31 98.42 C 35.89 98.04 37.46 97.66 39.03 97.24 C 39.30 97.65 39.83 98.49 40.10 98.91 C 39.59 99.16 38.58 99.67 38.07 99.93 C 36.64 100.41 35.26 101.01 33.94 101.73 C 30.30 102.12 27.00 103.76 23.74 105.29 C 22.10 105.58 20.43 105.83 18.79 105.36 C 20.24 104.82 21.66 104.21 23.10 103.66 C 23.41 103.55 24.02 103.33 24.32 103.22 C 25.65 103.04 27.91 103.21 25.89 101.71 C 27.95 100.88 30.06 100.18 32.12 99.35 C 32.67 99.12 33.76 98.66 34.31 98.42 Z" />
<path fill="#85b367" opacity="1.00" d=" M 93.12 99.07 C 93.95 98.34 94.80 97.63 95.65 96.91 C 97.09 98.57 98.61 100.17 100.14 101.74 C 97.70 101.92 95.30 102.36 92.95 103.06 C 92.73 102.76 92.27 102.17 92.04 101.88 C 92.40 100.94 92.76 100.01 93.12 99.07 Z" />
<path fill="#856357" opacity="1.00" d=" M 59.68 98.29 C 61.83 98.43 63.99 98.44 66.15 98.34 C 66.89 98.30 68.37 98.23 69.11 98.19 L 70.11 98.18 C 68.63 100.12 66.18 100.26 63.92 100.70 C 62.67 100.40 61.42 100.10 60.14 99.96 C 59.95 101.37 59.80 102.78 59.69 104.19 C 59.60 102.22 59.60 100.26 59.68 98.29 Z" />
<path fill="#312138" opacity="1.00" d=" M 70.11 98.18 L 70.76 97.91 C 71.00 98.18 71.47 98.73 71.71 99.00 C 71.89 99.21 72.25 99.64 72.43 99.85 L 72.79 100.53 C 70.52 105.05 77.10 107.62 79.33 111.00 L 63.59 111.00 C 65.07 109.26 66.98 108.05 69.10 107.23 C 67.68 106.96 66.26 106.72 64.86 106.41 C 65.36 106.25 66.36 105.92 66.86 105.76 L 66.97 101.17 C 66.47 101.09 65.47 100.93 64.97 100.86 L 63.92 100.70 C 66.18 100.26 68.63 100.12 70.11 98.18 Z" />
<path fill="#221825" opacity="1.00" d=" M 38.07 99.93 C 38.58 99.67 39.59 99.16 40.10 98.91 C 39.69 100.24 39.20 101.54 38.77 102.87 C 37.93 103.99 39.59 104.44 40.14 105.17 L 39.66 105.90 C 37.38 107.26 35.37 108.99 33.64 111.00 L 16.07 111.00 C 15.73 109.99 15.41 108.98 15.10 107.96 C 18.17 106.50 21.26 106.94 23.42 109.65 C 29.72 109.88 37.24 107.17 38.07 99.93 Z" />
<path fill="#602a52" opacity="1.00" d=" M 40.10 98.91 L 40.72 99.10 C 41.64 99.46 42.57 99.77 43.49 100.16 C 42.08 101.33 40.46 102.18 38.77 102.87 C 39.20 101.54 39.69 100.24 40.10 98.91 Z" />
<path fill="#382635" opacity="1.00" d=" M 43.49 100.16 C 44.31 99.74 45.14 99.31 45.95 98.88 C 46.28 99.17 46.94 99.74 47.27 100.03 C 44.88 101.72 42.42 103.32 40.14 105.17 C 39.59 104.44 37.93 103.99 38.77 102.87 C 40.46 102.18 42.08 101.33 43.49 100.16 Z" />
<path fill="#87b243" opacity="1.00" d=" M 72.43 99.85 C 74.22 99.04 76.19 98.95 78.12 98.84 C 78.59 98.89 79.51 98.99 79.98 99.04 C 81.95 99.77 83.96 100.40 85.93 101.15 C 85.65 104.18 85.42 107.21 85.27 110.25 L 84.85 111.00 L 82.26 111.00 C 79.06 107.55 75.51 104.39 72.79 100.53 L 72.43 99.85 Z" />
<path fill="#33444c" opacity="1.00" d=" M 89.86 108.97 C 87.36 105.74 90.43 101.17 93.12 99.07 C 92.76 100.01 92.40 100.94 92.04 101.88 C 90.85 104.08 89.78 106.40 89.86 108.97 Z" />
<path fill="#6c9d63" opacity="1.00" d=" M 99.78 99.20 C 100.51 99.18 101.99 99.16 102.73 99.14 C 104.83 101.49 108.25 100.86 111.00 101.92 L 111.00 102.97 C 109.00 102.43 106.97 101.93 104.88 102.09 C 104.42 102.10 103.50 102.12 103.04 102.13 C 101.89 101.23 100.81 100.23 99.78 99.20 Z" />
<path fill="#52806e" opacity="1.00" d=" M 102.73 99.14 C 105.54 98.85 108.29 99.48 111.00 100.13 L 111.00 101.92 C 108.25 100.86 104.83 101.49 102.73 99.14 Z" />
<path fill="#2d2336" opacity="1.00" d=" M 33.94 101.73 C 35.26 101.01 36.64 100.41 38.07 99.93 C 37.24 107.17 29.72 109.88 23.42 109.65 C 21.26 106.94 18.17 106.50 15.10 107.96 C 15.40 106.22 17.41 105.90 18.79 105.36 C 20.43 105.83 22.10 105.58 23.74 105.29 C 27.34 106.36 32.16 105.33 33.94 101.73 Z" />
<path fill="#633950" opacity="1.00" d=" M 43.12 108.25 C 47.44 104.95 52.52 102.89 57.07 99.96 C 57.10 101.20 56.99 102.43 56.74 103.65 C 52.48 105.72 48.48 108.28 44.60 111.00 L 39.75 111.00 C 40.90 110.11 42.04 109.21 43.12 108.25 Z" />
<path fill="#a38670" opacity="1.00" d=" M 60.14 99.96 C 61.42 100.10 62.67 100.40 63.92 100.70 C 63.61 102.53 63.26 104.35 63.15 106.21 C 61.05 107.72 59.25 106.90 59.69 104.19 C 59.80 102.78 59.95 101.37 60.14 99.96 Z" />
<path fill="#78595b" opacity="1.00" d=" M 63.92 100.70 L 64.97 100.86 C 64.96 102.71 64.93 104.56 64.86 106.41 C 64.43 106.36 63.58 106.26 63.15 106.21 C 63.26 104.35 63.61 102.53 63.92 100.70 Z" />
<path fill="#522f49" opacity="1.00" d=" M 64.97 100.86 C 65.47 100.93 66.47 101.09 66.97 101.17 L 66.86 105.76 C 66.36 105.92 65.36 106.25 64.86 106.41 C 64.93 104.56 64.96 102.71 64.97 100.86 Z" />
<path fill="#59494d" opacity="1.00" d=" M 79.33 111.00 C 77.10 107.62 70.52 105.05 72.79 100.53 C 75.51 104.39 79.06 107.55 82.26 111.00 L 79.33 111.00 Z" />
<path fill="#5e8b64" opacity="1.00" d=" M 85.93 101.15 C 86.87 101.58 87.68 102.20 88.37 103.00 C 87.39 105.45 86.98 108.18 85.27 110.25 C 85.42 107.21 85.65 104.18 85.93 101.15 Z" />
<path fill="#48384b" opacity="1.00" d=" M 23.74 105.29 C 27.00 103.76 30.30 102.12 33.94 101.73 C 32.16 105.33 27.34 106.36 23.74 105.29 Z" />
<path fill="#c9eb4d" opacity="1.00" d=" M 92.04 101.88 C 92.27 102.17 92.73 102.76 92.95 103.06 C 95.10 107.03 101.28 106.10 102.44 111.00 L 91.33 111.00 C 90.96 110.49 90.23 109.48 89.86 108.97 C 89.78 106.40 90.85 104.08 92.04 101.88 Z" />
<path fill="#b1d94f" opacity="1.00" d=" M 92.95 103.06 C 95.30 102.36 97.70 101.92 100.14 101.74 C 100.57 102.13 101.42 102.92 101.85 103.31 C 101.91 104.59 102.12 105.78 103.62 105.72 C 104.58 107.44 105.43 109.22 106.27 111.00 L 102.44 111.00 C 101.28 106.10 95.10 107.03 92.95 103.06 Z" />
<path fill="#99c54d" opacity="1.00" d=" M 103.04 102.13 C 103.50 102.12 104.42 102.10 104.88 102.09 C 106.53 104.51 108.24 106.99 111.00 108.26 L 111.00 111.00 L 106.27 111.00 C 105.43 109.22 104.58 107.44 103.62 105.72 C 102.12 105.78 101.91 104.59 101.85 103.31 C 102.15 103.02 102.74 102.43 103.04 102.13 Z" />
<path fill="#83b150" opacity="1.00" d=" M 104.88 102.09 C 106.97 101.93 109.00 102.43 111.00 102.97 L 111.00 108.26 C 108.24 106.99 106.53 104.51 104.88 102.09 Z" />
<path fill="#7f5d5e" opacity="1.00" d=" M 33.64 111.00 C 35.37 108.99 37.38 107.26 39.66 105.90 C 40.79 106.72 41.95 107.49 43.12 108.25 C 42.04 109.21 40.90 110.11 39.75 111.00 L 33.64 111.00 Z" />
<path fill="#662b57" opacity="1.00" d=" M 53.58 111.00 C 53.96 107.48 59.18 106.58 58.17 111.00 L 53.58 111.00 Z" />
</svg>
