<?xml version="1.0" encoding="UTF-8" ?>
<!DOCTYPE svg PUBLIC "-//W3C//DTD SVG 1.1//EN" "http://www.w3.org/Graphics/SVG/1.1/DTD/svg11.dtd">
<svg width="111pt" height="111pt" viewBox="0 0 111 111" version="1.1" xmlns="http://www.w3.org/2000/svg">
<path fill="#000001" opacity="1.00" d=" M 33.61 0.00 L 38.44 0.00 C 38.06 0.04 37.29 0.11 36.91 0.14 L 35.93 0.66 C 31.98 3.79 27.61 6.30 23.31 8.91 C 20.39 10.88 17.45 13.01 15.43 15.96 C 15.42 17.97 16.45 19.78 17.29 21.54 C 18.28 22.93 19.36 24.25 20.44 25.58 C 20.47 26.18 20.53 27.36 20.56 27.96 C 21.73 28.98 22.90 30.00 24.07 31.02 C 25.64 29.80 27.21 28.58 28.61 27.17 C 30.94 24.73 33.30 22.10 36.59 20.99 C 40.05 19.87 43.24 18.12 46.26 16.13 C 48.40 14.83 50.58 13.61 52.78 12.44 C 51.67 10.42 50.64 8.31 50.41 5.98 C 52.15 3.93 53.94 1.90 55.85 0.00 L 57.98 0.00 C 55.38 2.19 53.25 4.90 51.85 8.01 C 53.41 7.43 54.95 6.83 56.49 6.21 L 57.93 6.29 C 56.30 7.17 54.64 7.97 52.97 8.78 C 53.25 9.60 53.79 11.23 54.06 12.05 C 59.08 11.00 63.90 9.16 68.96 8.28 C 66.80 6.77 64.84 5.00 63.11 3.01 C 63.60 2.26 64.56 0.75 65.05 0.00 L 68.50 0.00 C 68.05 0.54 67.15 1.62 66.71 2.17 C 65.23 2.56 65.11 3.23 66.32 4.17 C 68.09 5.64 69.87 7.10 71.76 8.40 C 72.32 8.39 73.43 8.37 73.99 8.36 C 82.11 8.37 90.68 7.41 98.17 11.24 C 99.34 11.06 100.73 9.98 101.72 11.14 C 103.70 13.19 106.53 12.88 109.14 12.76 C 109.77 13.75 110.39 14.74 111.00 15.74 L 111.00 17.25 C 109.70 16.75 108.39 16.29 107.07 15.84 C 106.03 15.49 105.00 15.13 103.97 14.77 C 102.52 13.89 101.12 12.92 99.71 11.97 C 98.97 13.36 98.22 14.75 97.56 16.18 C 97.65 15.37 97.84 13.76 97.93 12.96 C 89.45 11.01 80.67 9.70 71.97 10.83 C 67.50 11.48 63.02 12.08 58.63 13.14 C 55.94 14.08 52.77 14.45 50.74 16.65 C 47.94 19.57 45.41 22.75 42.48 25.55 C 42.63 24.72 42.95 23.06 43.10 22.23 C 44.54 20.67 45.93 19.06 47.19 17.35 C 42.69 19.99 38.08 22.54 34.01 25.83 C 33.29 26.63 32.61 27.45 31.88 28.24 C 30.91 29.10 29.92 29.92 28.94 30.76 C 27.28 31.88 27.59 34.05 27.88 35.74 L 26.95 36.70 C 26.28 34.47 26.71 32.23 27.59 30.13 C 24.66 32.67 21.79 35.28 18.83 37.79 C 18.28 38.56 17.72 39.33 17.15 40.08 C 16.83 40.16 16.20 40.32 15.88 40.40 C 12.31 41.19 8.69 41.88 5.25 43.14 C 3.49 44.13 2.31 45.65 2.75 47.75 C 2.73 51.73 2.73 55.72 2.59 59.70 C 3.99 58.85 5.38 58.01 6.78 57.16 C 6.64 58.10 6.49 59.05 6.35 59.99 C 9.19 61.44 12.04 62.86 14.86 64.36 C 15.82 64.03 17.74 63.36 18.70 63.03 L 18.17 64.63 C 18.01 65.12 17.68 66.11 17.52 66.60 C 18.90 67.79 20.58 68.76 21.51 70.37 C 22.36 72.60 22.16 75.05 22.24 77.39 C 20.44 83.43 16.85 88.64 13.03 93.55 L 13.53 94.17 C 14.75 95.26 15.86 97.05 17.74 96.70 C 22.72 96.58 27.71 96.72 32.67 96.24 C 35.81 94.67 35.35 90.87 35.91 87.96 C 36.12 85.94 37.36 84.27 38.31 82.55 C 36.31 81.69 34.30 80.87 32.27 80.09 C 31.70 84.57 32.15 89.41 29.78 93.45 C 29.00 89.36 28.70 85.17 27.49 81.17 C 27.58 80.62 27.76 79.53 27.85 78.98 C 27.66 75.31 25.04 72.43 23.87 69.06 C 23.15 66.88 21.61 65.17 19.84 63.76 C 18.15 62.26 16.65 60.55 15.32 58.72 C 14.49 56.91 14.18 54.94 14.38 52.96 C 15.89 51.22 17.49 49.57 19.13 47.97 C 19.19 47.22 19.29 45.74 19.34 45.00 C 19.59 42.58 20.18 40.21 20.71 37.84 C 21.27 37.58 22.41 37.05 22.98 36.79 C 23.38 36.82 24.18 36.86 24.58 36.89 C 26.57 37.44 28.56 37.97 30.56 38.46 C 30.86 38.05 31.48 37.22 31.78 36.81 C 31.80 37.09 31.82 37.64 31.83 37.92 C 31.34 39.97 30.44 41.93 30.23 44.04 C 29.75 49.80 33.27 54.81 33.95 60.41 C 35.86 62.25 38.73 65.33 41.19 62.55 C 41.71 64.01 42.25 65.46 42.85 66.89 C 43.46 68.16 44.14 69.39 44.81 70.62 C 45.22 68.80 45.63 66.98 46.03 65.16 C 46.78 65.20 48.27 65.29 49.02 65.33 C 50.99 64.61 53.06 64.36 55.14 64.56 C 57.13 63.54 59.09 62.46 60.82 61.03 C 62.52 58.67 64.37 56.42 66.43 54.37 C 66.76 54.03 67.41 53.35 67.73 53.01 L 69.66 52.09 C 69.59 52.57 69.47 53.51 69.40 53.98 C 69.95 57.65 72.79 60.19 75.24 62.68 C 75.81 63.25 76.39 63.81 76.98 64.37 C 78.71 65.63 80.53 66.78 82.52 67.58 C 86.15 69.29 88.93 65.10 91.86 63.55 C 93.30 63.89 94.73 64.23 96.17 64.57 C 99.26 61.69 102.71 58.92 104.53 55.00 C 104.62 52.04 102.20 50.10 100.25 48.27 C 99.49 49.20 98.73 50.13 97.96 51.05 C 98.34 48.34 99.13 45.71 99.64 43.03 C 98.15 39.93 94.87 38.24 91.98 36.67 C 90.03 36.20 88.03 35.63 86.01 35.80 C 84.81 36.93 83.83 38.26 82.83 39.55 C 79.90 39.88 76.66 39.09 74.00 40.67 C 73.25 42.72 72.58 44.80 71.90 46.88 C 71.59 46.05 70.98 44.38 70.67 43.54 C 70.66 43.26 70.63 42.69 70.62 42.40 C 68.73 42.34 66.84 42.26 64.95 42.15 C 64.82 41.47 64.69 40.79 64.58 40.11 C 66.84 40.27 69.10 40.43 71.36 40.58 C 72.34 39.58 73.25 38.49 74.39 37.65 C 76.90 37.25 79.46 37.51 81.99 37.53 C 82.98 36.30 83.76 34.83 85.10 33.93 C 86.86 33.48 88.71 33.59 90.51 33.72 C 92.20 34.42 93.87 35.15 95.52 35.92 C 96.00 36.16 96.94 36.64 97.42 36.88 C 99.57 38.76 101.35 41.01 102.96 43.37 C 102.91 44.67 102.86 45.98 102.88 47.29 L 103.24 47.76 C 103.56 48.16 104.20 48.96 104.52 49.36 C 105.67 50.65 106.17 52.33 106.64 53.96 C 104.77 58.88 100.90 62.58 96.87 65.79 C 95.31 65.58 93.75 65.27 92.17 65.34 C 89.56 66.66 87.61 69.06 84.84 70.14 C 80.96 68.75 77.41 66.56 74.02 64.26 C 73.39 63.49 72.78 62.70 72.19 61.91 C 71.07 60.37 69.79 58.94 68.50 57.54 C 68.34 56.61 68.18 55.68 68.02 54.76 C 64.91 56.63 63.62 60.07 61.46 62.79 C 60.20 63.43 58.91 64.02 57.65 64.66 C 56.64 65.27 55.65 65.91 54.67 66.57 C 54.24 66.20 53.40 65.44 52.98 65.07 C 51.13 66.19 49.19 67.20 47.07 67.71 C 46.52 69.96 45.97 72.20 45.41 74.45 C 43.07 72.27 42.14 69.06 40.52 66.38 C 40.39 69.07 40.63 71.88 39.39 74.36 C 39.07 74.02 38.43 73.35 38.11 73.01 C 37.74 71.56 37.44 70.10 37.15 68.64 C 35.21 68.53 33.27 68.44 31.33 68.35 C 31.31 68.70 31.27 69.39 31.25 69.73 C 32.89 69.66 34.53 69.61 36.17 69.56 C 35.21 71.40 33.52 72.54 31.61 73.21 C 31.52 74.54 31.41 75.88 31.31 77.22 C 35.90 79.50 40.38 82.04 44.27 85.41 C 44.85 84.46 45.43 83.50 46.01 82.55 C 49.05 82.87 52.08 83.22 55.10 83.70 C 55.33 83.75 55.79 83.86 56.02 83.92 C 56.25 84.24 56.69 84.88 56.92 85.21 C 57.30 87.33 57.57 89.48 57.89 91.61 C 61.90 86.32 67.00 81.94 72.01 77.63 C 71.68 74.42 71.74 71.18 71.29 67.99 C 70.30 66.10 68.89 64.49 67.67 62.76 C 68.13 62.86 69.05 63.07 69.51 63.18 C 70.16 63.45 71.46 64.00 72.11 64.27 C 71.91 67.79 71.82 71.37 72.70 74.81 C 74.45 79.59 74.71 84.73 75.60 89.71 L 74.71 90.06 C 74.41 86.27 73.81 82.47 72.28 78.96 C 70.48 80.63 68.61 82.24 67.11 84.19 C 66.84 84.66 66.31 85.61 66.05 86.08 C 66.89 87.66 67.70 89.39 69.38 90.25 C 71.36 90.77 73.44 90.39 75.46 90.37 C 75.53 91.14 75.68 92.68 75.76 93.44 C 76.43 95.61 77.44 97.72 76.76 100.05 C 80.98 101.15 79.26 97.21 79.66 95.19 C 79.93 95.15 80.49 95.07 80.76 95.03 C 80.62 95.92 80.33 97.71 80.19 98.60 C 81.53 98.93 82.88 99.23 84.24 99.52 C 84.80 97.92 85.24 96.28 85.74 94.66 C 85.74 95.65 85.73 97.64 85.72 98.64 C 86.96 98.11 88.20 97.57 89.43 97.03 C 89.40 95.10 89.35 93.17 89.27 91.24 C 87.31 91.98 85.36 92.75 83.48 93.67 C 81.05 93.55 78.63 93.30 76.38 92.30 C 76.38 91.82 76.39 90.85 76.39 90.37 L 77.78 90.60 C 79.75 90.96 81.77 90.96 83.76 90.81 C 84.57 90.53 86.17 89.96 86.98 89.68 C 87.34 89.41 88.06 88.88 88.42 88.61 C 89.18 88.78 89.95 88.93 90.71 89.07 C 93.34 86.73 96.02 84.44 98.80 82.27 C 99.23 81.94 100.07 81.28 100.49 80.95 C 100.54 78.03 100.57 75.11 100.57 72.20 C 97.84 72.62 95.13 73.12 92.41 73.62 C 92.26 74.67 92.13 75.72 92.01 76.76 C 90.87 77.14 89.75 77.54 88.63 77.98 L 88.01 78.24 C 88.37 77.68 89.08 76.55 89.44 75.99 C 90.32 74.74 91.05 73.33 92.25 72.35 C 94.05 71.73 95.95 71.45 97.74 70.79 C 98.64 69.58 99.08 68.10 99.69 66.74 C 100.26 66.67 101.42 66.54 101.99 66.47 C 103.15 65.30 104.31 64.14 105.47 62.97 C 105.58 62.18 105.78 60.60 105.89 59.81 C 107.39 62.26 108.28 65.01 108.59 67.86 C 109.33 66.25 110.12 64.66 111.00 63.11 L 111.00 84.75 C 109.68 86.09 108.27 87.35 106.79 88.51 C 105.61 89.37 104.39 90.19 103.19 91.02 C 104.46 92.06 105.74 93.10 107.02 94.13 C 105.46 97.12 103.60 99.93 101.51 102.57 C 104.30 102.77 107.10 103.05 109.80 103.80 L 111.00 104.63 L 111.00 106.63 C 107.87 105.43 104.53 105.03 101.20 105.40 C 102.18 107.29 103.18 109.17 104.27 111.00 L 102.69 111.00 C 101.76 109.71 100.87 108.39 99.99 107.07 C 98.96 108.32 97.93 109.58 96.90 110.83 C 96.83 110.87 96.70 110.96 96.64 111.00 L 93.66 111.00 C 96.09 109.60 98.14 107.63 99.49 105.17 C 95.43 103.53 90.98 104.12 87.55 106.86 C 87.81 107.36 88.31 108.35 88.57 108.85 C 89.01 109.39 89.89 110.46 90.33 111.00 L 88.82 111.00 C 88.27 110.64 87.16 109.91 86.60 109.54 C 82.20 109.65 77.80 109.15 73.40 109.16 L 73.54 107.91 C 74.07 107.28 74.61 106.65 75.14 106.02 C 73.82 106.32 72.49 106.61 71.17 106.90 C 69.40 105.85 67.46 105.08 65.37 105.14 C 65.22 105.38 64.94 105.86 64.80 106.10 C 63.90 107.70 63.11 109.37 62.26 111.00 L 61.34 111.00 C 62.17 108.91 64.18 106.49 62.99 104.22 C 60.66 102.66 58.07 101.52 55.82 99.81 C 55.54 99.62 54.98 99.24 54.69 99.05 C 50.09 99.14 45.49 99.58 40.88 99.34 C 40.41 98.36 39.97 97.36 39.56 96.35 C 39.34 92.84 39.48 89.32 39.43 85.80 C 36.27 88.04 37.79 92.79 36.94 96.10 C 31.96 101.03 24.45 98.52 18.28 98.65 C 18.66 99.27 19.05 99.88 19.43 100.50 C 23.45 101.53 27.87 102.03 31.20 104.72 C 33.24 106.14 32.42 108.91 32.72 111.00 L 30.26 111.00 C 30.31 109.59 30.38 108.19 30.45 106.79 C 24.21 103.16 16.86 102.59 9.92 101.15 C 10.59 102.49 11.26 103.83 11.92 105.18 C 12.83 107.16 13.80 109.12 14.91 111.00 L 12.32 111.00 C 9.97 105.95 7.27 101.09 4.47 96.28 C 4.07 93.78 2.31 92.15 0.00 91.31 L 0.00 83.74 C 0.66 85.44 1.42 87.10 2.17 88.76 C 3.07 88.57 3.97 88.41 4.88 88.27 C 4.38 86.79 2.74 85.28 3.62 83.65 C 6.87 78.03 11.54 73.39 15.00 67.92 C 14.53 66.50 13.34 65.50 12.43 64.36 C 9.39 64.26 7.15 62.13 4.92 60.34 C 3.29 61.58 1.65 62.80 0.00 64.02 L 0.00 61.34 C 0.63 59.35 1.23 57.34 1.76 55.32 C 1.16 54.45 0.57 53.57 0.00 52.69 L 0.00 51.86 C 0.51 51.71 1.54 51.40 2.05 51.24 C 1.61 49.98 1.14 48.68 0.00 47.87 L 0.00 47.03 C 2.02 43.80 4.72 41.21 8.47 40.12 C 8.53 37.64 8.31 35.13 8.76 32.68 C 10.81 29.50 15.24 29.90 18.50 29.18 C 18.97 25.94 16.03 23.91 14.62 21.35 C 13.25 19.12 11.54 16.01 13.68 13.68 C 19.00 7.44 27.05 4.66 33.61 0.00 M 9.93 33.32 L 9.90 33.31 C 10.27 35.48 10.33 37.68 10.30 39.88 C 12.26 39.39 14.23 38.91 16.19 38.37 C 16.80 37.11 17.78 36.11 18.93 35.33 L 18.84 35.32 C 20.71 35.10 21.65 32.95 22.93 31.74 C 18.96 29.09 13.66 31.12 9.93 33.32 M 21.77 44.06 C 21.43 46.08 21.06 48.09 20.69 50.10 C 18.79 51.16 16.60 52.70 16.28 55.00 C 17.03 57.20 18.61 58.98 19.89 60.89 C 20.95 61.74 22.01 62.59 23.07 63.45 C 24.99 64.93 26.73 66.73 28.97 67.73 C 29.99 67.09 30.92 66.33 31.89 65.62 C 33.54 65.93 35.79 67.34 36.75 65.08 C 35.47 63.43 33.72 62.15 32.68 60.34 C 31.31 57.13 31.16 53.50 29.36 50.46 C 29.48 47.95 28.94 45.45 28.70 42.95 C 28.94 42.31 29.43 41.01 29.67 40.36 C 27.42 40.25 25.16 40.21 22.90 40.23 C 22.54 41.51 22.16 42.79 21.77 44.06 M 100.03 68.28 C 100.75 71.17 101.29 74.09 101.49 77.07 C 105.05 75.75 103.31 71.10 103.69 68.19 C 102.47 68.22 101.25 68.25 100.03 68.28 M 14.02 73.21 C 13.21 74.39 12.40 75.56 11.58 76.73 C 9.49 79.43 7.26 82.02 5.30 84.82 C 7.10 87.65 8.99 90.58 12.15 92.04 C 12.30 91.63 12.60 90.81 12.75 90.40 C 17.87 87.55 19.78 81.44 20.23 75.95 C 20.53 73.26 19.32 70.78 17.96 68.55 C 16.50 69.97 15.20 71.54 14.02 73.21 M 28.39 71.07 C 28.75 77.08 29.41 83.09 29.66 89.13 L 31.01 88.11 C 32.44 81.96 30.35 75.59 30.35 69.35 C 29.86 69.78 28.88 70.64 28.39 71.07 M 105.04 76.03 C 106.26 77.59 107.81 78.82 109.27 80.14 C 111.81 77.66 110.39 74.15 108.11 72.14 C 107.14 73.41 105.19 74.30 105.04 76.03 M 101.09 81.01 C 101.96 81.51 103.70 82.52 104.57 83.02 C 105.93 83.84 107.33 84.71 108.95 84.90 C 110.32 81.37 105.70 79.49 104.05 76.93 C 102.70 78.00 101.64 79.37 101.09 81.01 M 98.38 83.82 L 98.53 84.57 C 97.45 85.36 96.37 86.16 95.28 86.94 L 95.33 87.24 C 94.66 87.69 93.32 88.59 92.66 89.04 L 92.81 90.16 C 91.46 89.37 89.71 91.59 90.60 92.79 C 90.56 94.34 90.55 95.88 90.56 97.43 C 92.55 96.85 94.51 96.18 96.43 95.40 C 97.62 94.46 98.83 93.53 100.03 92.60 C 101.74 90.42 104.49 88.80 105.28 86.06 C 104.51 82.76 100.89 83.14 98.38 83.82 M 47.17 83.65 C 47.52 84.08 48.21 84.93 48.55 85.36 C 50.51 87.38 52.70 89.45 55.62 89.82 C 55.75 89.27 56.01 88.17 56.14 87.62 C 54.92 84.31 50.16 84.28 47.17 83.65 M 40.73 84.71 C 40.81 88.84 39.49 93.96 42.43 97.35 C 45.78 98.46 49.46 97.27 52.92 97.30 C 56.45 96.71 58.86 99.88 61.75 101.30 C 61.77 100.52 61.81 98.97 61.84 98.20 C 62.78 98.19 64.67 98.18 65.62 98.17 C 65.01 96.92 64.40 95.67 63.77 94.42 C 62.43 93.62 61.13 92.76 59.88 91.83 C 59.11 92.58 58.37 93.37 57.59 94.12 C 57.49 93.43 57.29 92.06 57.19 91.37 C 52.82 92.04 49.68 88.67 46.85 85.93 C 46.44 86.38 45.64 87.29 45.23 87.74 C 43.85 86.56 42.38 85.49 40.73 84.71 M 61.18 91.63 C 62.03 91.54 63.73 91.37 64.58 91.28 L 64.77 92.98 C 65.58 91.13 66.40 88.80 64.67 87.18 C 62.46 87.32 60.93 89.50 61.18 91.63 M 4.31 90.29 C 4.78 93.35 6.97 95.76 8.97 97.99 C 10.83 99.09 13.04 99.35 15.11 99.81 C 12.73 95.62 8.90 91.95 4.31 90.29 M 65.91 92.70 C 65.97 93.29 66.08 94.46 66.14 95.05 C 66.47 95.33 67.13 95.89 67.47 96.17 C 67.37 96.79 67.16 98.03 67.06 98.64 C 69.60 99.12 72.17 99.43 74.74 99.69 C 75.33 99.13 75.92 98.56 76.51 97.99 C 75.22 96.45 75.37 94.29 74.63 92.50 C 71.72 92.56 68.77 91.98 65.91 92.70 M 90.02 98.41 C 83.18 101.90 75.05 101.89 67.72 100.04 C 66.24 99.73 63.31 98.36 63.51 101.27 C 63.67 101.85 63.99 103.03 64.15 103.61 C 66.36 103.43 68.59 103.52 70.71 104.27 C 74.26 105.42 77.96 104.06 81.47 103.42 C 82.64 103.44 83.81 103.48 84.98 103.55 C 85.50 104.41 86.02 105.26 86.54 106.12 C 86.82 105.52 87.38 104.32 87.66 103.72 C 90.95 102.68 94.21 101.33 97.73 101.46 C 98.02 101.10 98.59 100.38 98.87 100.02 C 101.21 98.75 104.32 95.63 102.94 92.98 C 98.76 95.12 94.79 97.74 90.02 98.41 M 75.76 106.38 C 77.65 109.14 81.17 108.16 83.99 108.02 C 83.70 107.01 83.40 105.99 83.10 104.98 C 80.66 105.46 78.21 105.91 75.76 106.38 Z" />
<path fill="#8ccc90" opacity="1.00" d=" M 38.44 0.00 L 45.93 0.00 C 46.59 1.66 47.25 3.33 48.04 4.94 C 47.06 7.46 46.11 10.16 43.77 11.75 C 43.37 12.05 42.56 12.64 42.16 12.94 C 40.92 13.22 39.67 13.46 38.42 13.70 C 37.57 12.70 36.73 11.71 35.88 10.71 C 36.38 7.21 36.64 3.67 36.91 0.14 C 37.29 0.11 38.06 0.04 38.44 0.00 Z" />
<path fill="#84bf8c" opacity="1.00" d=" M 45.93 0.00 L 55.85 0.00 C 53.94 1.90 52.15 3.93 50.41 5.98 C 50.24 6.18 49.88 6.57 49.70 6.77 C 49.13 6.18 48.57 5.56 48.04 4.94 C 47.25 3.33 46.59 1.66 45.93 0.00 Z" />
<path fill="#b45b63" opacity="1.00" d=" M 57.98 0.00 L 65.05 0.00 C 64.56 0.75 63.60 2.26 63.11 3.01 C 60.83 3.92 58.62 4.99 56.49 6.21 C 54.95 6.83 53.41 7.43 51.85 8.01 C 53.25 4.90 55.38 2.19 57.98 0.00 Z" />
<path fill="#c2dd96" opacity="1.00" d=" M 68.50 0.00 L 77.43 0.00 C 76.99 3.04 75.55 5.76 73.99 8.36 C 73.43 8.37 72.32 8.39 71.76 8.40 C 69.87 7.10 68.09 5.64 66.32 4.17 C 66.42 3.67 66.61 2.67 66.71 2.17 C 67.15 1.62 68.05 0.54 68.50 0.00 Z" />
<path fill="#cde298" opacity="1.00" d=" M 77.43 0.00 L 111.00 0.00 L 111.00 15.74 C 110.39 14.74 109.77 13.75 109.14 12.76 C 106.53 12.88 103.70 13.19 101.72 11.14 C 100.73 9.98 99.34 11.06 98.17 11.24 C 90.68 7.41 82.11 8.37 73.99 8.36 C 75.55 5.76 76.99 3.04 77.43 0.00 Z" />
<path fill="#b7db95" opacity="1.00" d=" M 23.31 8.91 C 27.61 6.30 31.98 3.79 35.93 0.66 L 36.91 0.14 C 36.64 3.67 36.38 7.21 35.88 10.71 C 34.19 15.83 28.69 17.68 24.13 19.39 C 23.01 18.56 21.88 17.76 20.85 16.84 C 20.57 13.94 23.21 11.79 23.31 8.91 Z" />
<path fill="#6abc89" opacity="1.00" d=" M 66.32 4.17 C 65.11 3.23 65.23 2.56 66.71 2.17 C 66.61 2.67 66.42 3.67 66.32 4.17 Z" />
<path fill="#832845" opacity="1.00" d=" M 56.49 6.21 C 58.62 4.99 60.83 3.92 63.11 3.01 C 64.84 5.00 66.80 6.77 68.96 8.28 C 63.90 9.16 59.08 11.00 54.06 12.05 C 53.79 11.23 53.25 9.60 52.97 8.78 C 54.64 7.97 56.30 7.17 57.93 6.29 L 56.49 6.21 Z" />
<path fill="#338178" opacity="1.00" d=" M 48.04 4.94 C 48.57 5.56 49.13 6.18 49.70 6.77 C 49.88 6.57 50.24 6.18 50.41 5.98 C 50.64 8.31 51.67 10.42 52.78 12.44 C 50.58 13.61 48.40 14.83 46.26 16.13 C 45.43 14.67 44.60 13.21 43.77 11.75 C 46.11 10.16 47.06 7.46 48.04 4.94 Z" />
<path fill="#c8e097" opacity="1.00" d=" M 15.43 15.96 C 17.45 13.01 20.39 10.88 23.31 8.91 C 23.21 11.79 20.57 13.94 20.85 16.84 C 21.88 17.76 23.01 18.56 24.13 19.39 C 21.88 20.20 19.58 20.88 17.29 21.54 C 16.45 19.78 15.42 17.97 15.43 15.96 Z" />
<path fill="#59b889" opacity="1.00" d=" M 35.88 10.71 C 36.73 11.71 37.57 12.70 38.42 13.70 C 39.67 13.46 40.92 13.22 42.16 12.94 C 37.74 16.41 32.86 19.20 28.09 22.14 C 26.56 22.93 26.47 24.79 25.86 26.21 C 26.78 26.53 27.70 26.85 28.61 27.17 C 27.21 28.58 25.64 29.80 24.07 31.02 C 22.90 30.00 21.73 28.98 20.56 27.96 C 20.53 27.36 20.47 26.18 20.44 25.58 C 19.36 24.25 18.28 22.93 17.29 21.54 C 19.58 20.88 21.88 20.20 24.13 19.39 C 28.69 17.68 34.19 15.83 35.88 10.71 Z" />
<path fill="#bcd7ad" opacity="1.00" d=" M 58.63 13.14 C 63.02 12.08 67.50 11.48 71.97 10.83 C 80.67 9.70 89.45 11.01 97.93 12.96 C 97.84 13.76 97.65 15.37 97.56 16.18 C 96.11 20.81 93.98 25.50 95.38 30.45 C 93.76 31.55 92.14 32.64 90.51 33.72 C 88.71 33.59 86.86 33.48 85.10 33.93 C 83.76 34.83 82.98 36.30 81.99 37.53 C 79.46 37.51 76.90 37.25 74.39 37.65 C 73.25 38.49 72.34 39.58 71.36 40.58 C 69.10 40.43 66.84 40.27 64.58 40.11 C 64.19 37.23 63.99 34.32 63.83 31.41 C 62.87 31.49 61.92 31.57 60.96 31.63 L 61.15 30.55 C 61.41 28.55 61.26 26.50 61.75 24.54 C 64.01 22.81 66.59 21.57 69.02 20.10 C 69.76 20.86 70.50 21.62 71.23 22.39 C 71.68 22.17 72.57 21.75 73.02 21.53 C 74.25 20.61 74.66 19.05 75.40 17.78 C 73.64 18.14 71.90 18.53 70.16 18.95 C 69.53 18.45 68.89 17.96 68.24 17.48 C 67.32 18.20 66.41 18.93 65.49 19.64 C 65.22 18.68 64.94 17.72 64.68 16.76 C 64.18 17.80 63.68 18.84 63.19 19.89 C 63.34 19.18 63.63 17.75 63.78 17.04 C 63.10 17.32 61.74 17.87 61.06 18.15 L 60.71 18.25 C 60.87 17.87 61.19 17.11 61.35 16.73 L 61.67 14.57 C 61.12 14.67 60.02 14.87 59.48 14.97 L 58.63 13.14 M 78.40 14.19 C 77.14 15.68 79.81 17.15 80.77 15.70 C 82.06 14.19 79.35 12.70 78.40 14.19 Z" />
<path fill="#3fa081" opacity="1.00" d=" M 42.16 12.94 C 42.56 12.64 43.37 12.05 43.77 11.75 C 44.60 13.21 45.43 14.67 46.26 16.13 C 43.24 18.12 40.05 19.87 36.59 20.99 C 33.30 22.10 30.94 24.73 28.61 27.17 C 27.70 26.85 26.78 26.53 25.86 26.21 C 26.47 24.79 26.56 22.93 28.09 22.14 C 32.86 19.20 37.74 16.41 42.16 12.94 Z" />
<path fill="#314d51" opacity="1.00" d=" M 97.56 16.18 C 98.22 14.75 98.97 13.36 99.71 11.97 C 101.12 12.92 102.52 13.89 103.97 14.77 C 103.58 14.79 102.81 14.84 102.42 14.87 C 101.56 19.84 98.16 23.94 97.82 29.02 C 98.64 28.82 100.28 28.40 101.11 28.19 C 101.36 28.39 101.87 28.79 102.12 28.98 C 99.52 30.88 97.47 33.39 95.52 35.92 C 93.87 35.15 92.20 34.42 90.51 33.72 C 92.14 32.64 93.76 31.55 95.38 30.45 C 93.98 25.50 96.11 20.81 97.56 16.18 M 96.34 28.28 C 96.82 23.98 100.28 20.58 99.99 16.18 C 97.50 19.62 95.17 23.91 96.34 28.28 Z" />
<path fill="#c5ddaf" opacity="1.00" d=" M 50.74 16.65 C 52.77 14.45 55.94 14.08 58.63 13.14 L 59.48 14.97 C 56.24 16.94 51.46 19.19 51.44 23.55 C 53.13 25.31 54.98 23.24 56.46 22.35 C 58.48 22.25 60.47 21.92 62.45 21.52 C 62.63 21.11 63.00 20.30 63.19 19.89 C 63.68 18.84 64.18 17.80 64.68 16.76 C 64.94 17.72 65.22 18.68 65.49 19.64 C 66.41 18.93 67.32 18.20 68.24 17.48 C 68.89 17.96 69.53 18.45 70.16 18.95 C 70.98 19.96 71.94 20.82 73.02 21.53 C 72.57 21.75 71.68 22.17 71.23 22.39 C 70.50 21.62 69.76 20.86 69.02 20.10 C 66.59 21.57 64.01 22.81 61.75 24.54 C 61.26 26.50 61.41 28.55 61.15 30.55 C 57.16 28.40 51.43 25.06 47.76 29.48 C 46.05 29.32 44.35 28.97 42.63 28.99 C 40.71 29.32 39.27 30.79 37.71 31.85 C 36.91 31.75 36.11 31.64 35.30 31.53 C 34.39 32.84 33.48 34.16 32.56 35.47 C 32.38 35.64 32.02 35.98 31.84 36.15 C 31.61 35.78 31.16 35.05 30.93 34.68 C 31.48 32.57 31.78 30.41 31.88 28.24 C 32.61 27.45 33.29 26.63 34.01 25.83 C 35.31 26.63 36.60 27.42 37.90 28.22 C 39.53 26.13 41.26 24.13 43.10 22.23 C 42.95 23.06 42.63 24.72 42.48 25.55 C 45.41 22.75 47.94 19.57 50.74 16.65 Z" />
<path fill="#eaf3ba" opacity="1.00" d=" M 78.40 14.19 C 79.35 12.70 82.06 14.19 80.77 15.70 C 79.81 17.15 77.14 15.68 78.40 14.19 Z" />
<path fill="#270a15" opacity="1.00" d=" M 51.44 23.55 C 51.46 19.19 56.24 16.94 59.48 14.97 C 60.02 14.87 61.12 14.67 61.67 14.57 L 61.35 16.73 C 59.07 14.72 57.59 19.08 60.71 18.25 L 61.06 18.15 C 61.74 17.87 63.10 17.32 63.78 17.04 C 63.63 17.75 63.34 19.18 63.19 19.89 C 63.00 20.30 62.63 21.11 62.45 21.52 C 60.47 21.92 58.48 22.25 56.46 22.35 C 54.98 23.24 53.13 25.31 51.44 23.55 M 56.39 18.11 C 55.88 19.73 56.45 20.25 58.07 19.67 C 58.58 18.04 58.02 17.52 56.39 18.11 M 54.50 20.35 C 53.34 20.29 52.06 22.69 53.81 22.71 C 54.99 22.79 56.28 20.34 54.50 20.35 Z" />
<path fill="#9dbfa4" opacity="1.00" d=" M 102.42 14.87 C 102.81 14.84 103.58 14.79 103.97 14.77 C 105.00 15.13 106.03 15.49 107.07 15.84 C 106.28 19.42 106.41 23.40 104.37 26.57 C 103.27 27.09 102.18 27.63 101.11 28.19 C 100.28 28.40 98.64 28.82 97.82 29.02 C 98.16 23.94 101.56 19.84 102.42 14.87 Z" />
<path fill="#a03754" opacity="1.00" d=" M 60.71 18.25 C 57.59 19.08 59.07 14.72 61.35 16.73 C 61.19 17.11 60.87 17.87 60.71 18.25 Z" />
<path fill="#7da299" opacity="1.00" d=" M 107.07 15.84 C 108.39 16.29 109.70 16.75 111.00 17.25 L 111.00 29.22 C 108.30 29.30 105.59 29.28 102.89 29.04 C 103.84 28.51 105.46 28.23 105.64 26.96 C 105.32 26.86 104.69 26.67 104.37 26.57 C 106.41 23.40 106.28 19.42 107.07 15.84 Z" />
<path fill="#d1edbd" opacity="1.00" d=" M 34.01 25.83 C 38.08 22.54 42.69 19.99 47.19 17.35 C 45.93 19.06 44.54 20.67 43.10 22.23 C 41.26 24.13 39.53 26.13 37.90 28.22 C 36.60 27.42 35.31 26.63 34.01 25.83 Z" />
<path fill="#77a076" opacity="1.00" d=" M 96.34 28.28 C 95.17 23.91 97.50 19.62 99.99 16.18 C 100.28 20.58 96.82 23.98 96.34 28.28 Z" />
<path fill="#c5ddaf" opacity="1.00" d=" M 56.39 18.11 C 58.02 17.52 58.58 18.04 58.07 19.67 C 56.45 20.25 55.88 19.73 56.39 18.11 Z" />
<path fill="#eff6bb" opacity="1.00" d=" M 70.16 18.95 C 71.90 18.53 73.64 18.14 75.40 17.78 C 74.66 19.05 74.25 20.61 73.02 21.53 C 71.94 20.82 70.98 19.96 70.16 18.95 Z" />
<path fill="#db2b67" opacity="1.00" d=" M 54.50 20.35 C 56.28 20.34 54.99 22.79 53.81 22.71 C 52.06 22.69 53.34 20.29 54.50 20.35 Z" />
<path fill="#000000" opacity="1.00" d=" M 47.76 29.48 C 51.43 25.06 57.16 28.40 61.15 30.55 L 60.96 31.63 C 60.88 32.04 60.72 32.85 60.63 33.26 C 59.49 32.22 58.32 31.20 57.01 30.37 C 55.48 29.85 53.92 29.39 52.37 28.95 C 51.02 29.60 49.78 30.45 48.65 31.43 C 46.74 31.41 44.84 31.35 42.94 31.32 C 40.54 30.87 38.82 32.94 37.54 34.64 C 35.51 37.37 34.67 40.75 34.52 44.11 C 34.80 44.51 35.37 45.30 35.66 45.70 C 35.88 45.99 36.33 46.58 36.55 46.87 C 40.21 46.87 43.70 45.71 47.24 44.94 C 51.29 43.68 56.17 42.92 59.03 39.58 C 58.18 39.50 56.46 39.34 55.60 39.26 L 55.36 38.68 C 57.99 40.07 57.76 35.53 55.23 36.87 L 56.09 35.73 C 56.54 35.96 57.42 36.42 57.87 36.65 C 57.97 37.18 58.17 38.24 58.27 38.77 C 58.70 38.60 59.55 38.27 59.98 38.11 C 59.86 39.57 59.76 41.03 59.66 42.49 C 56.08 42.64 53.30 45.17 49.85 45.70 L 49.01 45.89 C 44.49 47.12 40.00 48.57 35.27 48.70 C 34.23 46.94 32.33 45.27 32.78 43.04 C 33.12 40.67 33.70 38.35 34.28 36.03 C 33.85 35.89 32.99 35.61 32.56 35.47 C 33.48 34.16 34.39 32.84 35.30 31.53 C 36.11 31.64 36.91 31.75 37.71 31.85 C 39.27 30.79 40.71 29.32 42.63 28.99 C 44.35 28.97 46.05 29.32 47.76 29.48 Z" />
<path fill="#364541" opacity="1.00" d=" M 101.11 28.19 C 102.18 27.63 103.27 27.09 104.37 26.57 C 104.69 26.67 105.32 26.86 105.64 26.96 C 105.46 28.23 103.84 28.51 102.89 29.04 L 102.12 28.98 C 101.87 28.79 101.36 28.39 101.11 28.19 Z" />
<path fill="#627659" opacity="1.00" d=" M 28.94 30.76 C 29.92 29.92 30.91 29.10 31.88 28.24 C 31.78 30.41 31.48 32.57 30.93 34.68 C 31.16 35.05 31.61 35.78 31.84 36.15 L 31.78 36.81 C 31.48 37.22 30.86 38.05 30.56 38.46 C 28.56 37.97 26.57 37.44 24.58 36.89 C 25.17 36.84 26.36 36.75 26.95 36.70 L 27.88 35.74 C 29.46 34.59 30.02 32.45 28.94 30.76 Z" />
<path fill="#93cd90" opacity="1.00" d=" M 48.65 31.43 C 49.78 30.45 51.02 29.60 52.37 28.95 C 52.39 29.40 52.44 30.29 52.46 30.74 C 52.26 30.96 51.86 31.40 51.66 31.62 C 51.52 32.22 51.26 33.41 51.12 34.01 C 51.10 36.78 49.34 39.02 48.02 41.31 C 46.89 41.66 45.76 41.99 44.62 42.30 C 44.22 42.10 43.42 41.68 43.02 41.47 C 43.91 37.67 45.92 34.21 48.65 31.43 Z" />
<path fill="#14737a" opacity="1.00" d=" M 52.37 28.95 C 53.92 29.39 55.48 29.85 57.01 30.37 C 57.24 32.47 57.50 34.57 57.87 36.65 C 57.42 36.42 56.54 35.96 56.09 35.73 C 55.07 35.15 54.06 34.57 53.04 33.99 C 52.69 33.40 52.00 32.21 51.66 31.62 C 51.86 31.40 52.26 30.96 52.46 30.74 C 52.44 30.29 52.39 29.40 52.37 28.95 Z" />
<path fill="#92b9a3" opacity="1.00" d=" M 102.12 28.98 L 102.89 29.04 C 105.59 29.28 108.30 29.30 111.00 29.22 L 111.00 30.12 C 108.35 32.13 105.66 34.11 103.33 36.50 C 102.76 36.52 101.62 36.56 101.06 36.58 C 99.84 36.66 98.63 36.76 97.42 36.88 C 96.94 36.64 96.00 36.16 95.52 35.92 C 97.47 33.39 99.52 30.88 102.12 28.98 Z" />
<path fill="#bcbac1" opacity="1.00" d=" M 9.93 33.32 C 13.66 31.12 18.96 29.09 22.93 31.74 C 21.65 32.95 20.71 35.10 18.84 35.32 C 15.85 34.75 12.89 34.05 9.93 33.32 Z" />
<path fill="#d1edbd" opacity="1.00" d=" M 18.83 37.79 C 21.79 35.28 24.66 32.67 27.59 30.13 C 26.71 32.23 26.28 34.47 26.95 36.70 C 26.36 36.75 25.17 36.84 24.58 36.89 C 24.18 36.86 23.38 36.82 22.98 36.79 C 22.41 37.05 21.27 37.58 20.71 37.84 C 20.18 40.21 19.59 42.58 19.34 45.00 C 18.32 43.37 17.11 41.87 15.88 40.40 C 16.20 40.32 16.83 40.16 17.15 40.08 C 17.72 39.33 18.28 38.56 18.83 37.79 Z" />
<path fill="#9fcc91" opacity="1.00" d=" M 28.94 30.76 C 30.02 32.45 29.46 34.59 27.88 35.74 C 27.59 34.05 27.28 31.88 28.94 30.76 Z" />
<path fill="#9ed192" opacity="1.00" d=" M 37.54 34.64 C 38.82 32.94 40.54 30.87 42.94 31.32 C 44.01 31.48 45.07 31.65 46.13 31.84 C 45.05 34.14 43.72 36.32 42.18 38.34 C 41.66 38.08 40.64 37.55 40.12 37.29 L 39.29 37.00 C 38.92 37.28 38.18 37.82 37.81 38.10 C 37.60 39.20 37.46 40.31 37.28 41.42 C 38.05 41.43 39.59 41.46 40.36 41.48 C 39.97 44.01 38.14 45.45 35.66 45.70 C 35.37 45.30 34.80 44.51 34.52 44.11 C 34.67 40.75 35.51 37.37 37.54 34.64 Z" />
<path fill="#43aa84" opacity="1.00" d=" M 42.94 31.32 C 44.84 31.35 46.74 31.41 48.65 31.43 C 45.92 34.21 43.91 37.67 43.02 41.47 C 43.42 41.68 44.22 42.10 44.62 42.30 C 45.53 43.14 46.38 44.04 47.24 44.94 C 43.70 45.71 40.21 46.87 36.55 46.87 C 36.33 46.58 35.88 45.99 35.66 45.70 C 38.14 45.45 39.97 44.01 40.36 41.48 C 40.87 40.38 41.51 39.35 42.18 38.34 C 43.72 36.32 45.05 34.14 46.13 31.84 C 45.07 31.65 44.01 31.48 42.94 31.32 Z" />
<path fill="#40ac84" opacity="1.00" d=" M 57.01 30.37 C 58.32 31.20 59.49 32.22 60.63 33.26 C 60.40 34.55 60.21 35.84 60.07 37.14 C 60.05 37.38 60.00 37.87 59.98 38.11 C 59.55 38.27 58.70 38.60 58.27 38.77 C 58.17 38.24 57.97 37.18 57.87 36.65 C 57.50 34.57 57.24 32.47 57.01 30.37 Z" />
<path fill="#270a15" opacity="1.00" d=" M 60.96 31.63 C 61.92 31.57 62.87 31.49 63.83 31.41 C 63.99 34.32 64.19 37.23 64.58 40.11 C 64.69 40.79 64.82 41.47 64.95 42.15 C 65.19 43.50 65.42 44.85 65.65 46.20 C 67.02 46.47 68.39 46.74 69.76 47.02 C 70.08 45.86 70.38 44.71 70.67 43.54 C 70.98 44.38 71.59 46.05 71.90 46.88 C 71.35 48.70 70.51 50.41 69.66 52.09 L 67.73 53.01 C 68.08 51.45 68.40 49.88 68.72 48.31 C 68.46 48.30 67.94 48.28 67.69 48.27 C 67.13 49.81 67.87 53.73 65.16 52.09 C 61.98 47.62 63.67 41.49 62.80 36.32 C 62.12 36.53 60.75 36.94 60.07 37.14 C 60.21 35.84 60.40 34.55 60.63 33.26 C 60.72 32.85 60.88 32.04 60.96 31.63 Z" />
<path fill="#247a92" opacity="1.00" d=" M 103.33 36.50 C 105.66 34.11 108.35 32.13 111.00 30.12 L 111.00 34.01 C 109.13 36.42 106.16 36.70 103.33 36.50 Z" />
<path fill="#5f2447" opacity="1.00" d=" M 51.12 34.01 C 51.26 33.41 51.52 32.22 51.66 31.62 C 52.00 32.21 52.69 33.40 53.04 33.99 C 52.56 33.99 51.60 34.00 51.12 34.01 Z" />
<path fill="#7d7dab" opacity="1.00" d=" M 9.90 33.31 L 9.93 33.32 C 12.89 34.05 15.85 34.75 18.84 35.32 L 18.93 35.33 C 17.78 36.11 16.80 37.11 16.19 38.37 C 14.23 38.91 12.26 39.39 10.30 39.88 C 10.33 37.68 10.27 35.48 9.90 33.31 Z" />
<path fill="#4bb488" opacity="1.00" d=" M 51.12 34.01 C 51.60 34.00 52.56 33.99 53.04 33.99 C 54.06 34.57 55.07 35.15 56.09 35.73 L 55.23 36.87 C 53.51 39.28 50.80 40.56 48.02 41.31 C 49.34 39.02 51.10 36.78 51.12 34.01 Z" />
<path fill="#042835" opacity="1.00" d=" M 103.33 36.50 C 106.16 36.70 109.13 36.42 111.00 34.01 L 111.00 37.18 C 107.67 39.96 104.46 43.54 103.24 47.76 L 102.88 47.29 C 102.86 45.98 102.91 44.67 102.96 43.37 C 103.79 43.16 104.61 42.96 105.44 42.76 C 105.08 41.61 104.76 40.45 104.41 39.31 C 103.29 38.39 102.17 37.49 101.06 36.58 C 101.62 36.56 102.76 36.52 103.33 36.50 Z" />
<path fill="#c56a6d" opacity="1.00" d=" M 31.84 36.15 C 32.02 35.98 32.38 35.64 32.56 35.47 C 32.99 35.61 33.85 35.89 34.28 36.03 C 33.70 38.35 33.12 40.67 32.78 43.04 C 32.33 45.27 34.23 46.94 35.27 48.70 C 40.00 48.57 44.49 47.12 49.01 45.89 C 48.94 48.83 49.36 51.88 48.53 54.74 C 46.83 58.09 44.06 61.92 39.76 60.71 C 39.44 57.98 39.17 55.25 38.99 52.50 C 39.18 50.88 38.50 49.68 36.89 49.18 C 36.82 51.95 36.83 54.72 36.86 57.50 C 36.38 57.43 35.41 57.28 34.92 57.21 C 34.59 58.27 34.27 59.34 33.95 60.41 C 33.27 54.81 29.75 49.80 30.23 44.04 C 30.44 41.93 31.34 39.97 31.83 37.92 C 31.82 37.64 31.80 37.09 31.78 36.81 L 31.84 36.15 Z" />
<path fill="#7b2942" opacity="1.00" d=" M 60.07 37.14 C 60.75 36.94 62.12 36.53 62.80 36.32 C 63.67 41.49 61.98 47.62 65.16 52.09 C 67.87 53.73 67.13 49.81 67.69 48.27 C 67.94 48.28 68.46 48.30 68.72 48.31 C 68.40 49.88 68.08 51.45 67.73 53.01 C 67.41 53.35 66.76 54.03 66.43 54.37 C 65.18 53.55 63.94 52.72 62.65 51.97 C 62.25 52.20 61.45 52.68 61.04 52.91 C 60.05 53.36 59.04 53.78 58.03 54.18 C 58.53 53.57 59.03 52.97 59.53 52.37 C 58.63 51.32 57.72 50.27 56.82 49.22 C 57.57 47.52 58.33 45.81 59.08 44.11 C 57.99 45.07 56.91 46.03 55.83 46.99 C 55.70 48.24 55.58 49.48 55.44 50.73 C 54.52 49.98 53.61 49.24 52.69 48.49 C 51.74 49.01 50.80 49.52 49.85 50.03 C 49.85 48.59 49.85 47.15 49.85 45.70 C 53.30 45.17 56.08 42.64 59.66 42.49 C 59.76 41.03 59.86 39.57 59.98 38.11 C 60.00 37.87 60.05 37.38 60.07 37.14 Z" />
<path fill="#9ed292" opacity="1.00" d=" M 82.83 39.55 C 83.83 38.26 84.81 36.93 86.01 35.80 C 88.03 35.63 90.03 36.20 91.98 36.67 C 91.17 37.99 90.31 39.28 89.43 40.55 C 88.28 45.95 91.00 51.11 90.35 56.47 C 86.93 55.46 85.24 52.30 84.10 49.19 C 83.93 49.49 83.60 50.09 83.44 50.39 C 82.97 47.29 83.19 44.01 82.06 41.05 C 79.39 40.70 76.68 40.76 74.00 40.67 C 76.66 39.09 79.90 39.88 82.83 39.55 Z" />
<path fill="#c92a7b" opacity="0.98" d=" M 37.81 38.10 C 38.18 37.82 38.92 37.28 39.29 37.00 L 40.12 37.29 C 40.60 38.59 40.30 39.63 39.21 40.40 C 38.86 39.83 38.16 38.67 37.81 38.10 Z" />
<path fill="#270a15" opacity="1.00" d=" M 40.12 37.29 C 40.64 37.55 41.66 38.08 42.18 38.34 C 41.51 39.35 40.87 40.38 40.36 41.48 C 39.59 41.46 38.05 41.43 37.28 41.42 C 37.46 40.31 37.60 39.20 37.81 38.10 C 38.16 38.67 38.86 39.83 39.21 40.40 C 40.30 39.63 40.60 38.59 40.12 37.29 Z" />
<path fill="#156d6d" opacity="1.00" d=" M 48.02 41.31 C 50.80 40.56 53.51 39.28 55.23 36.87 C 55.26 37.32 55.33 38.23 55.36 38.68 L 55.60 39.26 C 56.46 39.34 58.18 39.50 59.03 39.58 C 56.17 42.92 51.29 43.68 47.24 44.94 C 46.38 44.04 45.53 43.14 44.62 42.30 C 45.76 41.99 46.89 41.66 48.02 41.31 Z" />
<path fill="#c11571" opacity="1.00" d=" M 55.23 36.87 C 57.76 35.53 57.99 40.07 55.36 38.68 C 55.33 38.23 55.26 37.32 55.23 36.87 Z" />
<path fill="#6cbb8a" opacity="1.00" d=" M 91.98 36.67 C 94.87 38.24 98.15 39.93 99.64 43.03 C 99.13 45.71 98.34 48.34 97.96 51.05 C 96.17 53.29 94.27 55.44 92.09 57.31 C 91.66 57.10 90.79 56.68 90.35 56.47 C 91.00 51.11 88.28 45.95 89.43 40.55 C 90.31 39.28 91.17 37.99 91.98 36.67 Z" />
<path fill="#176178" opacity="1.00" d=" M 97.42 36.88 C 98.63 36.76 99.84 36.66 101.06 36.58 C 102.17 37.49 103.29 38.39 104.41 39.31 C 104.76 40.45 105.08 41.61 105.44 42.76 C 104.61 42.96 103.79 43.16 102.96 43.37 C 101.35 41.01 99.57 38.76 97.42 36.88 Z" />
<path fill="#bad8ae" opacity="1.00" d=" M 103.24 47.76 C 104.46 43.54 107.67 39.96 111.00 37.18 L 111.00 47.37 C 108.83 48.00 106.67 48.66 104.52 49.36 C 104.20 48.96 103.56 48.16 103.24 47.76 Z" />
<path fill="#b3d0aa" opacity="1.00" d=" M 5.25 43.14 C 8.69 41.88 12.31 41.19 15.88 40.40 C 17.11 41.87 18.32 43.37 19.34 45.00 C 19.29 45.74 19.19 47.22 19.13 47.97 C 17.49 49.57 15.89 51.22 14.38 52.96 C 12.24 54.41 9.72 55.10 7.29 55.90 C 6.13 55.72 4.97 55.55 3.82 55.39 C 3.74 54.13 3.65 52.87 3.54 51.62 C 5.20 49.09 5.34 46.06 5.25 43.14 Z" />
<path fill="#bede96" opacity="1.00" d=" M 21.77 44.06 C 22.16 42.79 22.54 41.51 22.90 40.23 C 25.16 40.21 27.42 40.25 29.67 40.36 C 29.43 41.01 28.94 42.31 28.70 42.95 C 28.22 44.10 27.70 45.22 27.19 46.35 C 25.45 47.17 23.71 48.01 21.99 48.86 C 21.92 47.26 21.84 45.66 21.77 44.06 Z" />
<path fill="#c5e197" opacity="1.00" d=" M 74.00 40.67 C 76.68 40.76 79.39 40.70 82.06 41.05 C 83.19 44.01 82.97 47.29 83.44 50.39 C 82.24 52.39 81.07 54.82 78.67 55.57 C 75.49 56.43 72.36 54.97 69.40 53.98 C 69.47 53.51 69.59 52.57 69.66 52.09 C 70.51 50.41 71.35 48.70 71.90 46.88 C 72.58 44.80 73.25 42.72 74.00 40.67 Z" />
<path fill="#c76a6e" opacity="1.00" d=" M 64.95 42.15 C 66.84 42.26 68.73 42.34 70.62 42.40 C 70.63 42.69 70.66 43.26 70.67 43.54 C 70.38 44.71 70.08 45.86 69.76 47.02 C 68.39 46.74 67.02 46.47 65.65 46.20 C 65.42 44.85 65.19 43.50 64.95 42.15 Z" />
<path fill="#6cc08b" opacity="1.00" d=" M 27.19 46.35 C 27.70 45.22 28.22 44.10 28.70 42.95 C 28.94 45.45 29.48 47.95 29.36 50.46 C 27.14 54.74 26.39 59.80 23.07 63.45 C 22.01 62.59 20.95 61.74 19.89 60.89 C 22.63 59.58 26.32 57.75 25.64 54.05 C 26.09 51.09 23.03 50.13 20.69 50.10 C 21.06 48.09 21.43 46.08 21.77 44.06 C 21.84 45.66 21.92 47.26 21.99 48.86 C 23.71 48.01 25.45 47.17 27.19 46.35 Z" />
<path fill="#c2d4a9" opacity="1.00" d=" M 2.75 47.75 C 2.31 45.65 3.49 44.13 5.25 43.14 C 5.34 46.06 5.20 49.09 3.54 51.62 C 3.28 50.33 3.01 49.04 2.75 47.75 Z" />
<path fill="#994352" opacity="1.00" d=" M 55.83 46.99 C 56.91 46.03 57.99 45.07 59.08 44.11 C 58.33 45.81 57.57 47.52 56.82 49.22 C 57.72 50.27 58.63 51.32 59.53 52.37 C 59.03 52.97 58.53 53.57 58.03 54.18 C 56.95 54.51 55.86 54.83 54.76 55.14 C 54.71 54.30 54.60 52.63 54.55 51.79 C 53.28 54.19 51.92 56.54 50.43 58.80 C 50.08 58.82 49.36 58.84 49.00 58.86 C 48.39 59.14 47.17 59.71 46.56 59.99 C 45.68 60.77 44.77 61.50 43.87 62.25 C 43.53 63.79 43.19 65.34 42.85 66.89 C 42.25 65.46 41.71 64.01 41.19 62.55 C 38.73 65.33 35.86 62.25 33.95 60.41 C 34.27 59.34 34.59 58.27 34.92 57.21 C 35.41 57.28 36.38 57.43 36.86 57.50 C 36.83 54.72 36.82 51.95 36.89 49.18 C 38.50 49.68 39.18 50.88 38.99 52.50 C 38.59 55.20 38.26 57.91 38.09 60.63 C 38.51 60.65 39.34 60.69 39.76 60.71 C 44.06 61.92 46.83 58.09 48.53 54.74 C 49.36 51.88 48.94 48.83 49.01 45.89 L 49.85 45.70 C 49.85 47.15 49.85 48.59 49.85 50.03 C 50.80 49.52 51.74 49.01 52.69 48.49 C 53.61 49.24 54.52 49.98 55.44 50.73 C 55.58 49.48 55.70 48.24 55.83 46.99 Z" />
<path fill="#b7db95" opacity="1.00" d=" M 0.00 47.87 C 1.14 48.68 1.61 49.98 2.05 51.24 C 1.54 51.40 0.51 51.71 0.00 51.86 L 0.00 47.87 Z" />
<path fill="#356985" opacity="1.00" d=" M 2.75 47.75 C 3.01 49.04 3.28 50.33 3.54 51.62 C 3.65 52.87 3.74 54.13 3.82 55.39 C 4.97 55.55 6.13 55.72 7.29 55.90 C 8.02 56.78 8.75 57.66 9.48 58.54 C 11.42 58.60 13.37 58.66 15.32 58.72 C 16.65 60.55 18.15 62.26 19.84 63.76 C 19.43 63.98 18.59 64.41 18.17 64.63 L 18.70 63.03 C 17.74 63.36 15.82 64.03 14.86 64.36 C 12.04 62.86 9.19 61.44 6.35 59.99 C 6.49 59.05 6.64 58.10 6.78 57.16 C 5.38 58.01 3.99 58.85 2.59 59.70 C 2.73 55.72 2.73 51.73 2.75 47.75 Z" />
<path fill="#a7c4a5" opacity="1.00" d=" M 104.52 49.36 C 106.67 48.66 108.83 48.00 111.00 47.37 L 111.00 55.39 C 110.83 54.90 110.48 53.91 110.31 53.41 C 109.08 53.56 107.86 53.76 106.64 53.96 C 106.17 52.33 105.67 50.65 104.52 49.36 Z" />
<path fill="#3eaf85" opacity="1.00" d=" M 84.10 49.19 C 85.24 52.30 86.93 55.46 90.35 56.47 C 90.79 56.68 91.66 57.10 92.09 57.31 C 89.13 59.75 84.76 62.00 81.52 58.63 C 79.25 56.44 76.11 56.71 73.20 56.87 C 74.31 58.64 75.94 60.41 75.24 62.68 C 72.79 60.19 69.95 57.65 69.40 53.98 C 72.36 54.97 75.49 56.43 78.67 55.57 C 81.07 54.82 82.24 52.39 83.44 50.39 C 83.60 50.09 83.93 49.49 84.10 49.19 Z" />
<path fill="#085f6d" opacity="1.00" d=" M 100.25 48.27 C 102.20 50.10 104.62 52.04 104.53 55.00 C 102.71 58.92 99.26 61.69 96.17 64.57 C 94.73 64.23 93.30 63.89 91.86 63.55 C 88.93 65.10 86.15 69.29 82.52 67.58 C 80.53 66.78 78.71 65.63 76.98 64.37 C 78.92 64.26 80.87 64.16 82.81 64.06 C 82.31 62.27 81.86 60.46 81.52 58.63 C 84.76 62.00 89.13 59.75 92.09 57.31 C 94.27 55.44 96.17 53.29 97.96 51.05 C 98.73 50.13 99.49 49.20 100.25 48.27 Z" />
<path fill="#c5e197" opacity="1.00" d=" M 16.28 55.00 C 16.60 52.70 18.79 51.16 20.69 50.10 C 23.03 50.13 26.09 51.09 25.64 54.05 C 26.32 57.75 22.63 59.58 19.89 60.89 C 18.61 58.98 17.03 57.20 16.28 55.00 Z" />
<path fill="#268b7a" opacity="1.00" d=" M 29.36 50.46 C 31.16 53.50 31.31 57.13 32.68 60.34 C 33.72 62.15 35.47 63.43 36.75 65.08 C 35.79 67.34 33.54 65.93 31.89 65.62 C 30.92 66.33 29.99 67.09 28.97 67.73 C 26.73 66.73 24.99 64.93 23.07 63.45 C 26.39 59.80 27.14 54.74 29.36 50.46 Z" />
<path fill="#270a15" opacity="1.00" d=" M 50.43 58.80 C 51.92 56.54 53.28 54.19 54.55 51.79 C 54.60 52.63 54.71 54.30 54.76 55.14 C 55.86 54.83 56.95 54.51 58.03 54.18 C 59.04 53.78 60.05 53.36 61.04 52.91 C 61.56 53.09 62.58 53.44 63.09 53.61 C 61.60 55.27 59.88 56.70 58.10 58.03 C 57.90 57.85 57.50 57.48 57.30 57.30 L 57.18 55.71 C 54.85 56.56 52.59 57.58 50.43 58.80 Z" />
<path fill="#6c1c36" opacity="1.00" d=" M 61.04 52.91 C 61.45 52.68 62.25 52.20 62.65 51.97 C 63.94 52.72 65.18 53.55 66.43 54.37 C 64.37 56.42 62.52 58.67 60.82 61.03 C 55.85 59.71 50.89 61.57 45.97 62.24 C 46.99 63.27 48.00 64.30 49.02 65.33 C 48.27 65.29 46.78 65.20 46.03 65.16 C 45.63 66.98 45.22 68.80 44.81 70.62 C 44.14 69.39 43.46 68.16 42.85 66.89 C 43.19 65.34 43.53 63.79 43.87 62.25 C 44.77 61.50 45.68 60.77 46.56 59.99 C 47.11 62.05 50.11 60.59 49.00 58.86 C 49.36 58.84 50.08 58.82 50.43 58.80 C 52.82 58.89 55.13 58.26 57.30 57.30 C 57.50 57.48 57.90 57.85 58.10 58.03 C 59.88 56.70 61.60 55.27 63.09 53.61 C 62.58 53.44 61.56 53.09 61.04 52.91 Z" />
<path fill="#88b3a0" opacity="1.00" d=" M 7.29 55.90 C 9.72 55.10 12.24 54.41 14.38 52.96 C 14.18 54.94 14.49 56.91 15.32 58.72 C 13.37 58.66 11.42 58.60 9.48 58.54 C 8.75 57.66 8.02 56.78 7.29 55.90 Z" />
<path fill="#2d0c19" opacity="1.00" d=" M 38.09 60.63 C 38.26 57.91 38.59 55.20 38.99 52.50 C 39.17 55.25 39.44 57.98 39.76 60.71 C 39.34 60.69 38.51 60.65 38.09 60.63 Z" />
<path fill="#134876" opacity="1.00" d=" M 106.64 53.96 C 107.86 53.76 109.08 53.56 110.31 53.41 C 110.48 53.91 110.83 54.90 111.00 55.39 L 111.00 63.11 C 110.12 64.66 109.33 66.25 108.59 67.86 C 108.28 65.01 107.39 62.26 105.89 59.81 C 105.78 60.60 105.58 62.18 105.47 62.97 C 104.31 64.14 103.15 65.30 101.99 66.47 C 101.42 66.54 100.26 66.67 99.69 66.74 C 99.08 68.10 98.64 69.58 97.74 70.79 C 95.95 71.45 94.05 71.73 92.25 72.35 C 91.05 73.33 90.32 74.74 89.44 75.99 C 87.84 74.09 86.29 72.15 84.84 70.14 C 87.61 69.06 89.56 66.66 92.17 65.34 C 93.75 65.27 95.31 65.58 96.87 65.79 C 100.90 62.58 104.77 58.88 106.64 53.96 Z" />
<path fill="#1a3e6f" opacity="1.00" d=" M 61.46 62.79 C 63.62 60.07 64.91 56.63 68.02 54.76 C 68.18 55.68 68.34 56.61 68.50 57.54 C 68.81 59.43 69.17 61.30 69.51 63.18 C 69.05 63.07 68.13 62.86 67.67 62.76 C 68.89 64.49 70.30 66.10 71.29 67.99 C 71.74 71.18 71.68 74.42 72.01 77.63 C 67.00 81.94 61.90 86.32 57.89 91.61 C 57.57 89.48 57.30 87.33 56.92 85.21 C 61.27 86.32 63.33 81.65 63.84 78.16 C 63.63 74.86 60.01 74.01 57.55 72.84 C 58.05 72.33 59.04 71.30 59.54 70.79 C 60.85 69.45 62.32 68.27 63.45 66.77 C 63.83 65.20 62.11 64.07 61.46 62.79 Z" />
<path fill="#c53169" opacity="1.00" d=" M 50.43 58.80 C 52.59 57.58 54.85 56.56 57.18 55.71 L 57.30 57.30 C 55.13 58.26 52.82 58.89 50.43 58.80 Z" />
<path fill="#2f9a7f" opacity="1.00" d=" M 73.20 56.87 C 76.11 56.71 79.25 56.44 81.52 58.63 C 81.86 60.46 82.31 62.27 82.81 64.06 C 80.87 64.16 78.92 64.26 76.98 64.37 C 76.39 63.81 75.81 63.25 75.24 62.68 C 75.94 60.41 74.31 58.64 73.20 56.87 Z" />
<path fill="#265378" opacity="1.00" d=" M 69.51 63.18 C 69.17 61.30 68.81 59.43 68.50 57.54 C 69.79 58.94 71.07 60.37 72.19 61.91 C 72.17 62.50 72.13 63.68 72.11 64.27 C 71.46 64.00 70.16 63.45 69.51 63.18 Z" />
<path fill="#2d0f18" opacity="1.00" d=" M 46.56 59.99 C 47.17 59.71 48.39 59.14 49.00 58.86 C 50.11 60.59 47.11 62.05 46.56 59.99 Z" />
<path fill="#9f4256" opacity="1.00" d=" M 45.97 62.24 C 50.89 61.57 55.85 59.71 60.82 61.03 C 59.09 62.46 57.13 63.54 55.14 64.56 C 53.06 64.36 50.99 64.61 49.02 65.33 C 48.00 64.30 46.99 63.27 45.97 62.24 Z" />
<path fill="#344c48" opacity="1.00" d=" M 72.19 61.91 C 72.78 62.70 73.39 63.49 74.02 64.26 C 73.95 66.26 73.90 68.26 73.82 70.27 C 73.46 71.78 73.07 73.29 72.70 74.81 C 71.82 71.37 71.91 67.79 72.11 64.27 C 72.13 63.68 72.17 62.50 72.19 61.91 Z" />
<path fill="#4a6d81" opacity="1.00" d=" M 61.46 62.79 C 62.11 64.07 63.83 65.20 63.45 66.77 C 62.32 68.27 60.85 69.45 59.54 70.79 C 58.92 68.74 58.28 66.70 57.65 64.66 C 58.91 64.02 60.20 63.43 61.46 62.79 Z" />
<path fill="#4d081f" opacity="1.00" d=" M 18.17 64.63 C 18.59 64.41 19.43 63.98 19.84 63.76 C 21.61 65.17 23.15 66.88 23.87 69.06 C 25.04 72.43 27.66 75.31 27.85 78.98 C 26.63 78.94 25.67 79.39 24.95 80.34 C 24.12 82.05 26.70 81.83 27.49 81.17 C 28.70 85.17 29.00 89.36 29.78 93.45 C 32.15 89.41 31.70 84.57 32.27 80.09 C 34.30 80.87 36.31 81.69 38.31 82.55 C 37.36 84.27 36.12 85.94 35.91 87.96 C 35.35 90.87 35.81 94.67 32.67 96.24 C 30.73 94.89 28.62 93.75 26.92 92.09 C 25.91 89.10 25.86 85.78 24.03 83.09 C 23.25 81.25 22.62 79.35 22.24 77.39 C 22.16 75.05 22.36 72.60 21.51 70.37 C 20.58 68.76 18.90 67.79 17.52 66.60 C 17.68 66.11 18.01 65.12 18.17 64.63 Z" />
<path fill="#081d47" opacity="1.00" d=" M 74.02 64.26 C 77.41 66.56 80.96 68.75 84.84 70.14 C 86.29 72.15 87.84 74.09 89.44 75.99 C 89.08 76.55 88.37 77.68 88.01 78.24 C 86.94 78.92 85.94 79.72 85.01 80.58 C 82.19 80.41 80.03 78.90 79.05 76.23 C 81.42 77.62 84.07 78.38 86.20 76.17 C 83.91 73.96 81.18 72.28 78.29 70.96 C 77.87 70.72 77.02 70.23 76.60 69.98 C 76.49 71.29 76.38 72.59 76.27 73.90 L 78.26 73.02 C 78.23 74.34 78.20 75.67 78.18 77.00 L 77.99 76.49 C 78.19 77.21 78.38 77.93 78.56 78.66 C 78.14 78.88 77.30 79.32 76.88 79.54 C 77.17 83.10 77.22 86.68 77.15 90.26 C 76.97 90.06 76.59 89.65 76.41 89.45 C 75.65 83.04 75.28 76.58 73.82 70.27 C 73.90 68.26 73.95 66.26 74.02 64.26 Z" />
<path fill="#9ac4a7" opacity="1.00" d=" M 47.07 67.71 C 49.19 67.20 51.13 66.19 52.98 65.07 C 53.40 65.44 54.24 66.20 54.67 66.57 C 55.65 65.91 56.64 65.27 57.65 64.66 C 58.28 66.70 58.92 68.74 59.54 70.79 C 59.04 71.30 58.05 72.33 57.55 72.84 C 57.12 73.31 56.68 73.78 56.25 74.25 C 54.27 75.57 52.38 77.01 50.66 78.65 C 49.55 77.64 48.44 76.63 47.25 75.72 C 46.79 75.40 45.87 74.77 45.41 74.45 C 45.97 72.20 46.52 69.96 47.07 67.71 Z" />
<path fill="#8cb19e" opacity="1.00" d=" M 40.52 66.38 C 42.14 69.06 43.07 72.27 45.41 74.45 C 45.87 74.77 46.79 75.40 47.25 75.72 C 43.14 77.81 38.53 78.25 34.04 77.24 C 35.39 75.82 36.75 74.41 38.11 73.01 C 38.43 73.35 39.07 74.02 39.39 74.36 C 40.63 71.88 40.39 69.07 40.52 66.38 Z" />
<path fill="#5a9297" opacity="1.00" d=" M 31.33 68.35 C 33.27 68.44 35.21 68.53 37.15 68.64 C 37.44 70.10 37.74 71.56 38.11 73.01 C 36.75 74.41 35.39 75.82 34.04 77.24 C 38.53 78.25 43.14 77.81 47.25 75.72 C 48.44 76.63 49.55 77.64 50.66 78.65 C 52.38 77.01 54.27 75.57 56.25 74.25 C 55.59 75.91 54.97 77.59 54.35 79.26 C 55.13 79.62 55.91 79.98 56.69 80.34 C 56.16 81.46 55.63 82.58 55.10 83.70 C 52.08 83.22 49.05 82.87 46.01 82.55 C 45.43 83.50 44.85 84.46 44.27 85.41 C 40.38 82.04 35.90 79.50 31.31 77.22 C 31.41 75.88 31.52 74.54 31.61 73.21 C 33.52 72.54 35.21 71.40 36.17 69.56 C 34.53 69.61 32.89 69.66 31.25 69.73 C 31.27 69.39 31.31 68.70 31.33 68.35 Z" />
<path fill="#463466" opacity="1.00" d=" M 100.03 68.28 C 101.25 68.25 102.47 68.22 103.69 68.19 C 103.31 71.10 105.05 75.75 101.49 77.07 C 101.29 74.09 100.75 71.17 100.03 68.28 Z" />
<path fill="#6c1c36" opacity="1.00" d=" M 14.02 73.21 C 15.20 71.54 16.50 69.97 17.96 68.55 C 19.32 70.78 20.53 73.26 20.23 75.95 C 19.78 81.44 17.87 87.55 12.75 90.40 C 13.57 87.86 14.54 85.34 16.22 83.23 C 18.07 81.10 19.33 77.94 17.81 75.29 C 16.71 74.33 15.29 73.88 14.02 73.21 Z" />
<path fill="#6a815e" opacity="1.00" d=" M 28.39 71.07 C 28.88 70.64 29.86 69.78 30.35 69.35 C 30.35 75.59 32.44 81.96 31.01 88.11 L 29.66 89.13 C 29.41 83.09 28.75 77.08 28.39 71.07 Z" />
<path fill="#aaa7b6" opacity="1.00" d=" M 76.27 73.90 C 76.38 72.59 76.49 71.29 76.60 69.98 C 77.02 70.23 77.87 70.72 78.29 70.96 C 78.34 71.70 78.42 73.16 78.46 73.89 L 80.62 73.74 C 79.93 74.35 79.25 74.95 78.55 75.54 L 79.05 76.23 C 80.03 78.90 82.19 80.41 85.01 80.58 C 84.45 81.12 83.90 81.66 83.34 82.19 C 82.46 82.02 80.69 81.69 79.81 81.52 C 80.67 83.32 82.26 84.50 83.98 85.40 C 84.23 85.55 84.74 85.87 84.99 86.03 C 84.63 87.64 84.18 89.22 83.76 90.81 C 81.77 90.96 79.75 90.96 77.78 90.60 L 77.15 90.26 C 77.22 86.68 77.17 83.10 76.88 79.54 C 77.30 79.32 78.14 78.88 78.56 78.66 C 78.38 77.93 78.19 77.21 77.99 76.49 L 78.18 77.00 C 78.20 75.67 78.23 74.34 78.26 73.02 L 76.27 73.90 Z" />
<path fill="#c2dd96" opacity="1.00" d=" M 72.70 74.81 C 73.07 73.29 73.46 71.78 73.82 70.27 C 75.28 76.58 75.65 83.04 76.41 89.45 C 76.59 89.65 76.97 90.06 77.15 90.26 L 77.78 90.60 L 76.39 90.37 C 76.39 90.85 76.38 91.82 76.38 92.30 L 75.76 93.44 C 75.68 92.68 75.53 91.14 75.46 90.37 C 73.44 90.39 71.36 90.77 69.38 90.25 L 69.83 90.25 C 71.46 90.21 73.09 90.19 74.71 90.06 L 75.60 89.71 C 74.71 84.73 74.45 79.59 72.70 74.81 Z" />
<path fill="#2f4b72" opacity="1.00" d=" M 78.29 70.96 C 81.18 72.28 83.91 73.96 86.20 76.17 C 84.07 78.38 81.42 77.62 79.05 76.23 L 78.55 75.54 C 79.25 74.95 79.93 74.35 80.62 73.74 L 78.46 73.89 C 78.42 73.16 78.34 71.70 78.29 70.96 Z" />
<path fill="#3c6c83" opacity="1.00" d=" M 56.25 74.25 C 56.68 73.78 57.12 73.31 57.55 72.84 C 60.01 74.01 63.63 74.86 63.84 78.16 C 63.33 81.65 61.27 86.32 56.92 85.21 C 56.69 84.88 56.25 84.24 56.02 83.92 C 55.79 83.86 55.33 83.75 55.10 83.70 C 55.63 82.58 56.16 81.46 56.69 80.34 C 55.91 79.98 55.13 79.62 54.35 79.26 C 54.97 77.59 55.59 75.91 56.25 74.25 Z" />
<path fill="#57467c" opacity="1.00" d=" M 92.41 73.62 C 95.13 73.12 97.84 72.62 100.57 72.20 C 100.57 75.11 100.54 78.03 100.49 80.95 C 100.07 81.28 99.23 81.94 98.80 82.27 C 98.34 80.51 97.87 78.75 97.42 76.99 C 97.40 76.08 97.42 75.16 97.43 74.25 C 96.21 75.52 95.01 76.82 93.69 78.00 C 93.27 77.69 92.43 77.07 92.01 76.76 C 92.13 75.72 92.26 74.67 92.41 73.62 Z" />
<path fill="#4b356e" opacity="1.00" d=" M 105.04 76.03 C 105.19 74.30 107.14 73.41 108.11 72.14 C 110.39 74.15 111.81 77.66 109.27 80.14 C 107.81 78.82 106.26 77.59 105.04 76.03 Z" />
<path fill="#913e4c" opacity="1.00" d=" M 11.58 76.73 C 12.40 75.56 13.21 74.39 14.02 73.21 C 15.29 73.88 16.71 74.33 17.81 75.29 C 19.33 77.94 18.07 81.10 16.22 83.23 C 16.00 81.71 15.78 80.19 15.55 78.67 C 14.23 78.02 12.90 77.37 11.58 76.73 Z" />
<path fill="#042835" opacity="1.00" d=" M 93.69 78.00 C 95.01 76.82 96.21 75.52 97.43 74.25 C 97.42 75.16 97.40 76.08 97.42 76.99 C 95.29 78.56 93.24 80.24 91.04 81.70 C 90.55 81.66 89.57 81.58 89.08 81.54 C 89.32 81.36 89.81 80.99 90.05 80.81 C 91.26 79.87 92.49 78.95 93.69 78.00 Z" />
<path fill="#b35961" opacity="1.00" d=" M 5.30 84.82 C 7.26 82.02 9.49 79.43 11.58 76.73 C 12.90 77.37 14.23 78.02 15.55 78.67 C 15.78 80.19 16.00 81.71 16.22 83.23 C 14.54 85.34 13.57 87.86 12.75 90.40 C 12.60 90.81 12.30 91.63 12.15 92.04 C 8.99 90.58 7.10 87.65 5.30 84.82 Z" />
<path fill="#7a749a" opacity="1.00" d=" M 88.63 77.98 C 89.75 77.54 90.87 77.14 92.01 76.76 C 92.43 77.07 93.27 77.69 93.69 78.00 C 92.49 78.95 91.26 79.87 90.05 80.81 C 89.69 80.10 88.99 78.68 88.63 77.98 Z" />
<path fill="#8b3c47" opacity="1.00" d=" M 22.24 77.39 C 22.62 79.35 23.25 81.25 24.03 83.09 C 23.27 86.23 22.20 89.56 19.65 91.71 C 17.79 92.91 15.59 93.41 13.53 94.17 L 13.03 93.55 C 16.85 88.64 20.44 83.43 22.24 77.39 Z" />
<path fill="#526c59" opacity="1.00" d=" M 88.01 78.24 L 88.63 77.98 C 88.99 78.68 89.69 80.10 90.05 80.81 C 89.81 80.99 89.32 81.36 89.08 81.54 C 89.57 81.58 90.55 81.66 91.04 81.70 L 91.07 82.28 C 90.49 82.67 89.35 83.45 88.77 83.84 C 88.31 83.70 87.40 83.40 86.94 83.26 C 87.01 83.80 87.15 84.88 87.22 85.43 C 87.52 85.42 88.11 85.41 88.40 85.40 C 88.66 85.78 89.18 86.53 89.45 86.90 C 89.76 87.45 90.40 88.53 90.71 89.07 C 89.95 88.93 89.18 88.78 88.42 88.61 C 87.85 86.05 85.60 88.04 86.98 89.68 C 86.17 89.96 84.57 90.53 83.76 90.81 C 84.18 89.22 84.63 87.64 84.99 86.03 C 84.74 85.87 84.23 85.55 83.98 85.40 L 85.46 84.90 C 84.79 83.97 84.09 83.05 83.34 82.19 C 83.90 81.66 84.45 81.12 85.01 80.58 C 85.94 79.72 86.94 78.92 88.01 78.24 Z" />
<path fill="#918aa8" opacity="1.00" d=" M 91.04 81.70 C 93.24 80.24 95.29 78.56 97.42 76.99 C 97.87 78.75 98.34 80.51 98.80 82.27 C 96.02 84.44 93.34 86.73 90.71 89.07 C 90.40 88.53 89.76 87.45 89.45 86.90 C 89.91 87.05 90.83 87.34 91.30 87.49 C 91.23 85.75 91.15 84.02 91.07 82.28 L 91.04 81.70 Z" />
<path fill="#aa4d58" opacity="1.00" d=" M 101.09 81.01 C 101.64 79.37 102.70 78.00 104.05 76.93 C 104.48 78.93 104.68 80.98 104.57 83.02 C 103.70 82.52 101.96 81.51 101.09 81.01 Z" />
<path fill="#822440" opacity="1.00" d=" M 104.05 76.93 C 105.70 79.49 110.32 81.37 108.95 84.90 C 107.33 84.71 105.93 83.84 104.57 83.02 C 104.68 80.98 104.48 78.93 104.05 76.93 Z" />
<path fill="#526b50" opacity="1.00" d=" M 24.95 80.34 C 25.67 79.39 26.63 78.94 27.85 78.98 C 27.76 79.53 27.58 80.62 27.49 81.17 C 26.70 81.83 24.12 82.05 24.95 80.34 Z" />
<path fill="#a3a0b2" opacity="1.00" d=" M 67.11 84.19 C 68.61 82.24 70.48 80.63 72.28 78.96 C 73.81 82.47 74.41 86.27 74.71 90.06 C 73.09 90.19 71.46 90.21 69.83 90.25 C 69.60 87.97 68.35 86.04 67.11 84.19 Z" />
<path fill="#2c322b" opacity="1.00" d=" M 79.81 81.52 C 80.69 81.69 82.46 82.02 83.34 82.19 C 84.09 83.05 84.79 83.97 85.46 84.90 L 83.98 85.40 C 82.26 84.50 80.67 83.32 79.81 81.52 Z" />
<path fill="#5e112e" opacity="1.00" d=" M 24.03 83.09 C 25.86 85.78 25.91 89.10 26.92 92.09 C 28.62 93.75 30.73 94.89 32.67 96.24 C 27.71 96.72 22.72 96.58 17.74 96.70 C 15.86 97.05 14.75 95.26 13.53 94.17 C 15.59 93.41 17.79 92.91 19.65 91.71 C 22.20 89.56 23.27 86.23 24.03 83.09 Z" />
<path fill="#c7c5b8" opacity="1.00" d=" M 86.94 83.26 C 87.40 83.40 88.31 83.70 88.77 83.84 C 89.35 83.45 90.49 82.67 91.07 82.28 C 91.15 84.02 91.23 85.75 91.30 87.49 C 90.83 87.34 89.91 87.05 89.45 86.90 C 89.18 86.53 88.66 85.78 88.40 85.40 C 88.11 85.41 87.52 85.42 87.22 85.43 C 87.15 84.88 87.01 83.80 86.94 83.26 Z" />
<path fill="#553c7c" opacity="1.00" d=" M 98.38 83.82 C 100.89 83.14 104.51 82.76 105.28 86.06 C 104.49 88.80 101.74 90.42 100.03 92.60 C 99.56 89.92 99.08 87.24 98.53 84.57 L 98.38 83.82 M 100.34 85.56 C 99.47 86.57 99.40 88.38 100.28 89.41 C 101.75 89.30 101.85 85.63 100.34 85.56 Z" />
<path fill="#574c78" opacity="1.00" d=" M 47.17 83.65 C 50.16 84.28 54.92 84.31 56.14 87.62 C 53.64 86.76 51.12 85.99 48.55 85.36 C 48.21 84.93 47.52 84.08 47.17 83.65 Z" />
<path fill="#43b186" opacity="1.00" d=" M 40.73 84.71 C 42.38 85.49 43.85 86.56 45.23 87.74 C 45.64 87.29 46.44 86.38 46.85 85.93 C 49.68 88.67 52.82 92.04 57.19 91.37 C 57.29 92.06 57.49 93.43 57.59 94.12 C 58.37 93.37 59.11 92.58 59.88 91.83 C 61.13 92.76 62.43 93.62 63.77 94.42 C 64.40 95.67 65.01 96.92 65.62 98.17 C 64.67 98.18 62.78 98.19 61.84 98.20 C 61.81 98.97 61.77 100.52 61.75 101.30 C 58.86 99.88 56.45 96.71 52.92 97.30 C 49.46 97.27 45.78 98.46 42.43 97.35 C 39.49 93.96 40.81 88.84 40.73 84.71 Z" />
<path fill="#bcbac1" opacity="1.00" d=" M 48.55 85.36 C 51.12 85.99 53.64 86.76 56.14 87.62 C 56.01 88.17 55.75 89.27 55.62 89.82 C 52.70 89.45 50.51 87.38 48.55 85.36 Z" />
<path fill="#d1edbd" opacity="1.00" d=" M 66.05 86.08 C 66.31 85.61 66.84 84.66 67.11 84.19 C 68.35 86.04 69.60 87.97 69.83 90.25 L 69.38 90.25 C 67.70 89.39 66.89 87.66 66.05 86.08 Z" />
<path fill="#645d95" opacity="1.00" d=" M 95.28 86.94 C 96.37 86.16 97.45 85.36 98.53 84.57 C 99.08 87.24 99.56 89.92 100.03 92.60 C 98.83 93.53 97.62 94.46 96.43 95.40 C 96.09 92.68 95.72 89.96 95.33 87.24 L 95.28 86.94 Z" />
<path fill="#261f39" opacity="1.00" d=" M 100.34 85.56 C 101.85 85.63 101.75 89.30 100.28 89.41 C 99.40 88.38 99.47 86.57 100.34 85.56 Z" />
<path fill="#228177" opacity="1.00" d=" M 106.79 88.51 C 108.27 87.35 109.68 86.09 111.00 84.75 L 111.00 104.63 L 109.80 103.80 C 107.22 99.17 108.22 93.51 106.79 88.51 Z" />
<path fill="#000000" opacity="0.55" d=" M 36.94 96.10 C 37.79 92.79 36.27 88.04 39.43 85.80 C 39.48 89.32 39.34 92.84 39.56 96.35 C 39.35 95.85 38.93 94.84 38.72 94.34 C 38.28 94.78 37.39 95.66 36.94 96.10 Z" />
<path fill="#aeadbc" opacity="1.00" d=" M 61.18 91.63 C 60.93 89.50 62.46 87.32 64.67 87.18 C 66.40 88.80 65.58 91.13 64.77 92.98 L 64.58 91.28 C 63.73 91.37 62.03 91.54 61.18 91.63 Z" />
<path fill="#5d8163" opacity="0.95" d=" M 86.98 89.68 C 85.60 88.04 87.85 86.05 88.42 88.61 C 88.06 88.88 87.34 89.41 86.98 89.68 Z" />
<path fill="#847da1" opacity="1.00" d=" M 92.66 89.04 C 93.32 88.59 94.66 87.69 95.33 87.24 C 95.72 89.96 96.09 92.68 96.43 95.40 C 94.51 96.18 92.55 96.85 90.56 97.43 C 90.55 95.88 90.56 94.34 90.60 92.79 C 92.02 93.00 93.32 91.54 92.81 90.16 L 92.66 89.04 Z" />
<path fill="#086271" opacity="1.00" d=" M 103.19 91.02 C 104.39 90.19 105.61 89.37 106.79 88.51 C 108.22 93.51 107.22 99.17 109.80 103.80 C 107.10 103.05 104.30 102.77 101.51 102.57 C 103.60 99.93 105.46 97.12 107.02 94.13 C 105.74 93.10 104.46 92.06 103.19 91.02 Z" />
<path fill="#c3c0af" opacity="1.00" d=" M 90.60 92.79 C 89.71 91.59 91.46 89.37 92.81 90.16 C 93.32 91.54 92.02 93.00 90.60 92.79 Z" />
<path fill="#a03754" opacity="1.00" d=" M 4.31 90.29 C 8.90 91.95 12.73 95.62 15.11 99.81 C 13.04 99.35 10.83 99.09 8.97 97.99 C 6.97 95.76 4.78 93.35 4.31 90.29 Z" />
<path fill="#2d0c19" opacity="1.00" d=" M 0.00 91.31 C 2.31 92.15 4.07 93.78 4.47 96.28 C 4.19 100.27 6.92 103.72 6.43 107.72 C 4.76 103.22 2.57 98.94 0.00 94.90 L 0.00 91.31 Z" />
<path fill="#676096" opacity="1.00" d=" M 83.48 93.67 C 85.36 92.75 87.31 91.98 89.27 91.24 C 89.35 93.17 89.40 95.10 89.43 97.03 C 88.20 97.57 86.96 98.11 85.72 98.64 C 85.73 97.64 85.74 95.65 85.74 94.66 C 85.24 96.28 84.80 97.92 84.24 99.52 C 83.98 97.57 83.74 95.62 83.48 93.67 Z" />
<path fill="#9e98ae" opacity="1.00" d=" M 65.91 92.70 C 68.77 91.98 71.72 92.56 74.63 92.50 C 75.37 94.29 75.22 96.45 76.51 97.99 C 75.92 98.56 75.33 99.13 74.74 99.69 C 72.17 99.43 69.60 99.12 67.06 98.64 C 67.16 98.03 67.37 96.79 67.47 96.17 C 69.33 94.88 66.89 92.84 66.14 95.05 C 66.08 94.46 65.97 93.29 65.91 92.70 Z" />
<path fill="#928cb1" opacity="1.00" d=" M 75.76 93.44 L 76.38 92.30 C 78.63 93.30 81.05 93.55 83.48 93.67 C 83.74 95.62 83.98 97.57 84.24 99.52 C 82.88 99.23 81.53 98.93 80.19 98.60 C 80.33 97.71 80.62 95.92 80.76 95.03 C 80.49 95.07 79.93 95.15 79.66 95.19 C 79.26 97.21 80.98 101.15 76.76 100.05 C 77.44 97.72 76.43 95.61 75.76 93.44 Z" />
<path fill="#60ba8b" opacity="1.00" d=" M 90.02 98.41 C 94.79 97.74 98.76 95.12 102.94 92.98 C 104.32 95.63 101.21 98.75 98.87 100.02 C 98.59 100.38 98.02 101.10 97.73 101.46 C 94.21 101.33 90.95 102.68 87.66 103.72 C 87.38 104.32 86.82 105.52 86.54 106.12 C 86.02 105.26 85.50 104.41 84.98 103.55 C 83.81 103.48 82.64 103.44 81.47 103.42 C 75.43 103.54 69.22 103.53 63.51 101.27 C 63.31 98.36 66.24 99.73 67.72 100.04 C 75.05 101.89 83.18 101.90 90.02 98.41 Z" />
<path fill="#d1edbd" opacity="1.00" d=" M 66.14 95.05 C 66.89 92.84 69.33 94.88 67.47 96.17 C 67.13 95.89 66.47 95.33 66.14 95.05 Z" />
<path fill="#a9485b" opacity="1.00" d=" M 0.00 94.90 C 2.57 98.94 4.76 103.22 6.43 107.72 C 6.67 108.82 6.92 109.91 7.20 111.00 L 3.14 111.00 C 2.01 108.22 0.97 105.39 0.00 102.55 L 0.00 94.90 Z" />
<path fill="#77233f" opacity="1.00" d=" M 6.43 107.72 C 6.92 103.72 4.19 100.27 4.47 96.28 C 7.27 101.09 9.97 105.95 12.32 111.00 L 7.20 111.00 C 6.92 109.91 6.67 108.82 6.43 107.72 Z" />
<path fill="#000000" opacity="0.47" d=" M 40.88 99.34 C 45.49 99.58 50.09 99.14 54.69 99.05 C 54.98 99.24 55.54 99.62 55.82 99.81 C 50.89 99.79 45.54 101.70 40.88 99.34 Z" />
<path fill="#8e2c48" opacity="1.00" d=" M 9.92 101.15 C 16.86 102.59 24.21 103.16 30.45 106.79 C 30.38 108.19 30.31 109.59 30.26 111.00 L 21.45 111.00 C 20.43 106.40 15.46 105.33 11.93 103.23 C 11.93 103.72 11.92 104.69 11.92 105.18 C 11.26 103.83 10.59 102.49 9.92 101.15 Z" />
<path fill="#216f61" opacity="1.00" d=" M 63.51 101.27 C 69.22 103.53 75.43 103.54 81.47 103.42 C 77.96 104.06 74.26 105.42 70.71 104.27 C 68.59 103.52 66.36 103.43 64.15 103.61 C 63.99 103.03 63.67 101.85 63.51 101.27 Z" />
<path fill="#d17975" opacity="1.00" d=" M 0.00 102.55 C 0.97 105.39 2.01 108.22 3.14 111.00 L 0.00 111.00 L 0.00 102.55 Z" />
<path fill="#b25760" opacity="1.00" d=" M 11.93 103.23 C 15.46 105.33 20.43 106.40 21.45 111.00 L 14.91 111.00 C 13.80 109.12 12.83 107.16 11.92 105.18 C 11.92 104.69 11.93 103.72 11.93 103.23 Z" />
<path fill="#6a6399" opacity="1.00" d=" M 87.55 106.86 C 90.98 104.12 95.43 103.53 99.49 105.17 C 98.14 107.63 96.09 109.60 93.66 111.00 L 92.55 111.00 C 91.44 109.99 90.72 107.59 89.05 107.73 C 88.93 108.01 88.69 108.57 88.57 108.85 C 88.31 108.35 87.81 107.36 87.55 106.86 Z" />
<path fill="#6c5e8e" opacity="1.00" d=" M 65.37 105.14 C 67.46 105.08 69.40 105.85 71.17 106.90 C 72.49 106.61 73.82 106.32 75.14 106.02 C 74.61 106.65 74.07 107.28 73.54 107.91 C 71.25 108.73 68.92 109.43 66.61 110.22 C 66.01 108.84 65.41 107.47 64.80 106.10 C 64.94 105.86 65.22 105.38 65.37 105.14 Z" />
<path fill="#4b3a6d" opacity="1.00" d=" M 75.76 106.38 C 78.21 105.91 80.66 105.46 83.10 104.98 C 83.40 105.99 83.70 107.01 83.99 108.02 C 81.17 108.16 77.65 109.14 75.76 106.38 Z" />
<path fill="#d0ceb8" opacity="1.00" d=" M 62.26 111.00 C 63.11 109.37 63.90 107.70 64.80 106.10 C 65.41 107.47 66.01 108.84 66.61 110.22 C 66.04 110.41 64.88 110.80 64.31 111.00 L 62.26 111.00 Z" />
<path fill="#b8b4b3" opacity="1.00" d=" M 89.05 107.73 C 90.72 107.59 91.44 109.99 92.55 111.00 L 90.33 111.00 C 89.89 110.46 89.01 109.39 88.57 108.85 C 88.69 108.57 88.93 108.01 89.05 107.73 Z" />
<path fill="#292430" opacity="1.00" d=" M 66.61 110.22 C 68.92 109.43 71.25 108.73 73.54 107.91 L 73.40 109.16 C 73.35 109.62 73.25 110.54 73.21 111.00 L 64.31 111.00 C 64.88 110.80 66.04 110.41 66.61 110.22 Z" />
<path fill="#473762" opacity="1.00" d=" M 96.90 110.83 C 97.93 109.58 98.96 108.32 99.99 107.07 C 100.87 108.39 101.76 109.71 102.69 111.00 L 96.75 111.00 L 96.90 110.83 Z" />
<path fill="#857c9c" opacity="1.00" d=" M 96.64 111.00 C 96.70 110.96 96.83 110.87 96.90 110.83 L 96.75 111.00 L 96.64 111.00 Z" />
</svg>
