<?xml version="1.0" encoding="UTF-8" ?>
<!DOCTYPE svg PUBLIC "-//W3C//DTD SVG 1.1//EN" "http://www.w3.org/Graphics/SVG/1.1/DTD/svg11.dtd">
<svg width="111pt" height="111pt" viewBox="0 0 111 111" version="1.1" xmlns="http://www.w3.org/2000/svg">
<path fill="#27203b" opacity="1.00" d=" M 0.00 0.00 L 4.53 0.00 C 2.94 1.44 1.43 2.97 0.00 4.56 L 0.00 0.00 Z" />
<path fill="#4a4a52" opacity="1.00" d=" M 4.53 0.00 L 7.19 0.00 C 4.81 2.18 2.41 4.34 0.00 6.48 L 0.00 4.56 C 1.43 2.97 2.94 1.44 4.53 0.00 Z" />
<path fill="#251e38" opacity="1.00" d=" M 7.19 0.00 L 7.81 0.00 C 9.05 2.99 10.20 6.01 11.28 9.06 C 11.63 8.86 12.34 8.45 12.70 8.24 C 16.25 6.58 17.88 2.83 20.33 0.00 L 27.42 0.00 C 26.50 1.18 25.64 2.40 24.73 3.58 C 21.90 5.14 19.14 6.84 16.21 8.20 C 10.58 10.18 5.61 13.57 0.00 15.61 L 0.00 6.48 C 2.41 4.34 4.81 2.18 7.19 0.00 Z" />
<path fill="#000000" opacity="1.00" d=" M 7.81 0.00 L 11.03 0.00 C 11.45 1.59 12.05 1.59 12.82 0.00 L 17.18 0.00 C 15.30 2.52 13.87 5.34 12.70 8.24 C 12.34 8.45 11.63 8.86 11.28 9.06 C 10.20 6.01 9.05 2.99 7.81 0.00 Z" />
<path fill="#000000" opacity="0.46" d=" M 11.03 0.00 L 12.82 0.00 C 12.05 1.59 11.45 1.59 11.03 0.00 Z" />
<path fill="#4c4c52" opacity="1.00" d=" M 17.18 0.00 L 20.33 0.00 C 17.88 2.83 16.25 6.58 12.70 8.24 C 13.87 5.34 15.30 2.52 17.18 0.00 Z" />
<path fill="#000000" opacity="1.00" d=" M 27.42 0.00 L 31.60 0.00 L 31.19 0.59 C 29.23 1.97 26.93 2.70 24.73 3.58 C 25.64 2.40 26.50 1.18 27.42 0.00 Z" />
<path fill="#27241e" opacity="0.78" d=" M 31.60 0.00 L 36.13 0.00 C 35.40 0.94 34.61 1.99 33.36 2.20 C 32.82 1.79 31.73 0.99 31.19 0.59 L 31.60 0.00 Z" />
<path fill="#000000" opacity="1.00" d=" M 49.09 0.00 L 51.00 0.00 C 51.96 1.53 52.84 3.11 53.72 4.68 C 54.33 4.66 55.56 4.61 56.17 4.58 C 55.07 3.07 53.99 1.55 52.94 0.00 L 55.89 0.00 C 56.53 1.55 57.16 1.55 57.78 0.00 L 64.35 0.00 C 63.57 0.70 62.79 1.39 62.00 2.09 C 60.69 3.03 59.34 3.94 57.98 4.83 C 59.27 7.50 60.77 10.07 62.20 12.67 C 62.11 12.81 61.94 13.11 61.85 13.25 C 59.56 10.27 58.66 5.33 54.38 4.70 C 55.73 7.91 52.51 9.35 50.60 11.09 C 48.53 12.83 46.75 14.88 45.14 17.05 C 42.88 20.05 41.08 23.38 39.63 26.84 C 39.43 27.35 39.03 28.37 38.83 28.89 C 36.73 34.18 34.97 40.03 36.29 45.74 C 37.81 48.49 40.89 50.12 42.02 53.16 C 41.10 52.26 40.14 51.39 39.20 50.50 C 34.72 45.79 29.59 41.79 24.95 37.27 C 24.40 35.99 23.94 34.67 23.38 33.40 C 22.95 32.68 22.09 31.26 21.66 30.55 C 19.91 27.63 18.19 24.68 16.01 22.05 C 13.94 25.28 12.22 28.72 10.47 32.12 C 12.04 36.08 13.46 40.43 16.64 43.41 C 23.09 47.28 29.88 50.64 36.15 54.83 L 34.91 54.87 C 28.76 51.93 23.01 48.27 17.09 44.93 C 15.62 44.12 14.31 43.01 13.41 41.58 C 13.09 40.77 12.76 39.97 12.42 39.17 C 11.91 38.73 10.89 37.84 10.37 37.40 C 10.64 35.77 10.15 34.23 9.47 32.78 C 12.86 25.70 16.47 18.72 19.56 11.50 C 12.56 15.29 6.69 20.75 0.00 25.02 L 0.00 23.71 C 7.04 19.44 13.51 14.28 20.19 9.47 C 24.01 6.91 27.88 4.29 32.19 2.60 C 29.96 4.65 27.09 6.12 25.63 8.88 C 23.44 12.54 21.51 16.35 19.53 20.13 C 21.47 23.95 23.34 27.88 26.29 31.05 C 24.98 35.74 29.63 38.10 32.41 40.86 C 33.79 27.51 40.55 14.68 50.72 5.94 C 50.18 3.96 49.63 1.98 49.09 0.00 Z" />
<path fill="#ffffcc" opacity="1.00" d=" M 51.00 0.00 L 52.94 0.00 C 53.99 1.55 55.07 3.07 56.17 4.58 C 55.56 4.61 54.33 4.66 53.72 4.68 C 52.84 3.11 51.96 1.53 51.00 0.00 Z" />
<path fill="#000000" opacity="0.36" d=" M 55.89 0.00 L 57.78 0.00 C 57.16 1.55 56.53 1.55 55.89 0.00 Z" />
<path fill="#595a5b" opacity="1.00" d=" M 64.35 0.00 L 74.43 0.00 C 73.32 0.55 72.22 1.14 71.12 1.71 C 68.66 3.03 66.04 4.23 64.08 6.28 C 63.12 8.63 63.88 11.20 64.25 13.60 C 65.64 13.40 67.04 13.22 68.45 13.07 C 70.96 13.38 73.51 13.51 76.01 12.99 C 80.44 12.17 84.99 12.63 89.40 11.70 C 90.06 7.83 90.45 3.92 90.59 0.00 L 93.93 0.00 C 96.42 6.34 96.30 13.21 97.03 19.88 C 95.97 21.35 94.93 22.84 94.08 24.44 C 93.86 25.88 94.42 27.31 94.65 28.71 C 91.59 36.10 87.02 42.69 82.83 49.45 C 77.38 37.87 71.76 26.21 64.00 15.96 C 68.68 25.01 74.51 33.50 78.20 43.05 C 80.50 48.02 82.78 53.01 85.41 57.82 C 85.03 58.07 84.28 58.57 83.90 58.82 C 74.38 44.25 64.95 29.46 58.02 13.44 C 59.01 13.55 59.99 13.65 60.98 13.72 L 61.85 13.25 C 61.94 13.11 62.11 12.81 62.20 12.67 L 62.70 11.75 C 62.78 9.89 62.41 7.99 62.84 6.17 C 64.42 4.32 66.42 2.89 68.20 1.26 C 66.12 1.45 64.05 1.67 62.00 2.09 C 62.79 1.39 63.57 0.70 64.35 0.00 M 68.95 18.06 C 69.06 19.72 69.77 21.85 71.85 20.73 C 73.17 18.31 71.02 17.64 68.95 18.06 Z" />
<path fill="#dd4648" opacity="1.00" d=" M 74.43 0.00 L 89.72 0.00 C 89.73 0.44 89.74 1.33 89.74 1.78 C 89.07 1.68 87.74 1.49 87.08 1.40 C 84.60 3.53 82.64 6.17 81.27 9.13 C 81.85 9.96 82.43 10.79 83.02 11.63 C 79.46 11.65 75.96 12.25 72.43 12.59 C 72.10 9.07 74.05 4.39 71.12 1.71 C 72.22 1.14 73.32 0.55 74.43 0.00 Z" />
<path fill="#000000" opacity="1.00" d=" M 89.72 0.00 L 90.59 0.00 C 90.45 3.92 90.06 7.83 89.40 11.70 C 84.99 12.63 80.44 12.17 76.01 12.99 C 73.51 13.51 70.96 13.38 68.45 13.07 C 69.77 12.89 71.10 12.73 72.43 12.59 C 75.96 12.25 79.46 11.65 83.02 11.63 C 85.06 11.60 87.11 11.60 89.16 11.57 C 89.53 8.32 89.80 5.05 89.74 1.78 C 89.74 1.33 89.73 0.44 89.72 0.00 Z" />
<path fill="#474653" opacity="1.00" d=" M 93.93 0.00 L 107.08 0.00 C 111.19 12.12 110.94 25.89 105.46 37.55 C 103.74 42.21 100.08 45.90 98.85 50.77 C 94.71 52.81 90.47 54.67 85.94 55.67 C 84.88 53.61 83.82 51.55 82.83 49.45 C 87.02 42.69 91.59 36.10 94.65 28.71 C 98.12 28.33 100.66 24.86 98.39 21.71 C 97.27 22.39 96.16 23.07 95.07 23.78 L 94.08 24.44 C 94.93 22.84 95.97 21.35 97.03 19.88 C 96.30 13.21 96.42 6.34 93.93 0.00 Z" />
<path fill="#262039" opacity="1.00" d=" M 107.08 0.00 L 111.00 0.00 L 111.00 46.80 C 107.04 48.38 102.97 49.66 98.85 50.77 C 100.08 45.90 103.74 42.21 105.46 37.55 C 110.94 25.89 111.19 12.12 107.08 0.00 Z" />
<path fill="#b8b37f" opacity="1.00" d=" M 24.73 3.58 C 26.93 2.70 29.23 1.97 31.19 0.59 C 31.73 0.99 32.82 1.79 33.36 2.20 C 33.07 2.30 32.48 2.50 32.19 2.60 C 27.88 4.29 24.01 6.91 20.19 9.47 C 18.84 9.10 17.51 8.68 16.21 8.20 C 19.14 6.84 21.90 5.14 24.73 3.58 Z" />
<path fill="#c53155" opacity="1.00" d=" M 87.08 1.40 C 87.74 1.49 89.07 1.68 89.74 1.78 C 89.80 5.05 89.53 8.32 89.16 11.57 C 87.11 11.60 85.06 11.60 83.02 11.63 C 82.43 10.79 81.85 9.96 81.27 9.13 C 82.64 6.17 84.60 3.53 87.08 1.40 Z" />
<path fill="#fcfcec" opacity="1.00" d=" M 57.98 4.83 C 59.34 3.94 60.69 3.03 62.00 2.09 C 64.05 1.67 66.12 1.45 68.20 1.26 C 66.42 2.89 64.42 4.32 62.84 6.17 C 62.41 7.99 62.78 9.89 62.70 11.75 L 62.20 12.67 C 60.77 10.07 59.27 7.50 57.98 4.83 Z" />
<path fill="#ffffcc" opacity="1.00" d=" M 64.08 6.28 C 66.04 4.23 68.66 3.03 71.12 1.71 C 74.05 4.39 72.10 9.07 72.43 12.59 C 71.10 12.73 69.77 12.89 68.45 13.07 C 67.04 13.22 65.64 13.40 64.25 13.60 C 63.88 11.20 63.12 8.63 64.08 6.28 Z" />
<path fill="#b8b37f" opacity="1.00" d=" M 54.38 4.70 C 58.66 5.33 59.56 10.27 61.85 13.25 L 60.98 13.72 C 59.99 13.65 59.01 13.55 58.02 13.44 C 57.24 11.49 56.12 9.67 54.55 8.24 C 54.96 10.87 56.19 13.22 57.48 15.51 C 55.26 14.86 54.35 12.57 53.14 10.83 C 52.29 10.91 51.44 11.00 50.60 11.09 C 52.51 9.35 55.73 7.91 54.38 4.70 Z" />
<path fill="#262139" opacity="1.00" d=" M 0.00 15.61 C 5.61 13.57 10.58 10.18 16.21 8.20 C 17.51 8.68 18.84 9.10 20.19 9.47 C 13.51 14.28 7.04 19.44 0.00 23.71 L 0.00 15.61 Z" />
<path fill="#251f38" opacity="1.00" d=" M 54.55 8.24 C 56.12 9.67 57.24 11.49 58.02 13.44 C 64.95 29.46 74.38 44.25 83.90 58.82 C 84.28 58.57 85.03 58.07 85.41 57.82 C 86.29 59.30 87.20 60.77 88.05 62.27 C 87.65 62.47 86.85 62.85 86.44 63.04 C 86.60 64.70 87.17 66.29 87.65 67.88 C 87.33 72.53 87.26 77.19 87.45 81.84 C 87.48 83.11 87.49 84.38 87.51 85.65 C 95.15 89.24 102.79 92.93 111.00 95.04 L 111.00 100.53 C 102.64 97.01 94.30 93.43 86.18 89.40 C 85.67 94.96 85.10 100.53 83.93 106.00 C 82.98 107.46 82.27 109.32 83.16 111.00 L 73.43 111.00 C 69.52 106.37 65.75 101.63 62.27 96.67 C 59.19 92.39 58.14 86.92 54.54 82.98 C 54.26 82.66 53.71 82.02 53.44 81.70 C 52.13 83.56 50.68 85.50 50.57 87.87 C 50.50 88.11 50.35 88.59 50.28 88.83 C 48.60 89.57 46.92 90.34 45.29 91.19 C 45.05 91.33 44.57 91.59 44.33 91.72 C 44.03 91.60 43.42 91.37 43.12 91.25 C 43.17 91.65 43.27 92.45 43.32 92.85 L 42.85 92.67 C 40.94 91.71 38.81 91.41 36.72 91.07 L 35.34 90.81 C 37.77 90.22 40.23 89.75 42.73 89.50 C 42.46 88.57 42.18 87.63 41.91 86.69 C 40.93 86.87 39.93 86.95 38.93 86.95 L 38.81 86.70 C 39.17 86.29 39.90 85.48 40.27 85.07 C 41.00 84.04 41.69 82.97 42.30 81.86 L 42.49 83.38 C 42.69 84.71 42.94 86.03 43.19 87.36 C 45.23 86.15 47.58 84.62 47.78 82.01 C 47.48 80.47 46.71 79.09 46.05 77.69 C 45.86 77.28 45.47 76.47 45.27 76.06 C 44.94 74.98 44.46 73.98 43.83 73.05 C 43.50 73.51 42.83 74.43 42.49 74.89 C 41.31 76.60 39.29 77.23 37.46 78.02 C 36.41 76.43 35.21 74.94 34.12 73.38 C 33.93 72.92 33.56 71.99 33.37 71.52 C 35.48 72.31 37.59 73.97 39.96 73.19 C 44.30 71.83 49.42 73.35 53.12 70.10 C 55.58 67.66 57.05 64.30 57.89 60.98 C 58.83 57.87 55.99 55.72 54.26 53.61 C 53.85 53.13 53.01 52.16 52.59 51.67 C 54.19 52.37 55.78 53.06 57.38 53.74 C 56.38 52.56 55.35 51.40 54.29 50.27 C 53.78 50.08 52.76 49.71 52.25 49.53 C 52.46 49.40 52.90 49.14 53.12 49.02 C 54.40 49.38 55.66 49.82 56.90 50.29 C 59.24 53.18 60.97 56.97 64.69 58.31 C 69.14 60.80 73.91 57.51 77.98 55.72 C 75.87 50.19 72.72 45.16 69.97 39.94 C 64.80 42.25 59.22 43.76 54.53 47.03 C 52.83 46.81 51.14 46.37 50.41 44.64 C 49.07 40.19 47.56 35.72 47.24 31.05 C 46.91 29.43 47.99 28.12 48.98 27.00 C 51.93 23.75 55.48 21.12 59.10 18.67 C 58.56 17.61 58.05 16.54 57.48 15.51 C 56.19 13.22 54.96 10.87 54.55 8.24 M 50.58 27.33 L 50.10 27.38 C 49.24 28.62 47.47 30.02 48.46 31.69 C 49.15 36.81 50.55 41.86 52.85 46.49 C 54.23 45.67 55.61 44.85 56.99 44.04 C 61.14 42.29 65.33 40.63 69.50 38.93 C 68.67 36.90 67.67 34.94 66.52 33.06 C 64.96 30.04 63.31 27.07 61.77 24.04 C 61.15 22.87 60.53 21.70 59.90 20.54 L 60.46 19.93 C 56.39 21.12 53.50 24.46 50.58 27.33 M 64.71 62.60 C 63.33 62.98 61.34 62.92 61.03 64.70 C 66.58 66.54 72.52 64.93 77.71 62.72 C 77.72 62.06 77.73 60.75 77.74 60.09 C 73.41 61.01 69.07 61.84 64.71 62.60 M 68.40 68.96 C 68.39 69.94 68.37 70.92 68.35 71.90 C 71.44 73.22 74.76 73.79 78.10 74.01 C 78.61 72.51 78.83 70.95 78.95 69.38 C 75.45 69.01 71.92 68.33 68.40 68.96 M 64.44 74.91 C 67.70 78.43 72.75 79.48 76.87 81.73 C 77.25 80.27 77.59 78.80 77.87 77.31 C 74.54 76.17 71.28 74.82 67.87 73.90 C 66.42 73.24 65.27 73.58 64.44 74.91 M 59.67 78.91 C 59.80 79.26 60.07 79.96 60.21 80.31 C 59.40 81.47 57.45 82.93 58.42 84.52 C 60.99 88.53 64.29 92.02 67.32 95.69 C 69.36 97.84 70.80 100.69 73.54 102.08 C 73.84 100.05 74.10 98.02 74.35 95.99 C 74.67 96.26 75.29 96.81 75.61 97.08 C 76.19 93.13 76.80 89.19 77.14 85.21 C 72.59 83.09 68.27 80.50 63.78 78.27 C 62.39 77.21 60.95 78.35 59.67 78.91 Z" />
<path fill="#585a5b" opacity="1.00" d=" M 45.14 17.05 C 46.75 14.88 48.53 12.83 50.60 11.09 C 51.44 11.00 52.29 10.91 53.14 10.83 C 54.35 12.57 55.26 14.86 57.48 15.51 C 58.05 16.54 58.56 17.61 59.10 18.67 C 55.48 21.12 51.93 23.75 48.98 27.00 C 47.99 28.12 46.91 29.43 47.24 31.05 C 47.56 35.72 49.07 40.19 50.41 44.64 C 49.59 44.16 48.51 43.92 48.03 43.01 C 45.46 39.00 44.14 34.38 42.38 30.00 C 42.05 30.26 41.41 30.77 41.08 31.03 C 42.45 26.96 45.18 23.36 45.91 19.11 C 45.72 18.59 45.34 17.57 45.14 17.05 M 49.21 14.11 C 47.64 14.41 48.06 17.03 49.71 16.02 C 51.19 15.69 50.82 13.20 49.21 14.11 Z" />
<path fill="#262039" opacity="1.00" d=" M 0.00 25.02 C 6.69 20.75 12.56 15.29 19.56 11.50 C 16.47 18.72 12.86 25.70 9.47 32.78 C 10.15 34.23 10.64 35.77 10.37 37.40 C 8.57 38.52 5.59 39.28 5.86 42.00 C 8.48 42.80 10.50 40.52 12.42 39.17 C 12.76 39.97 13.09 40.77 13.41 41.58 C 12.14 42.56 10.88 43.57 9.67 44.62 C 17.94 49.42 27.00 52.73 35.19 57.69 C 34.81 58.74 34.43 59.80 34.06 60.85 C 25.26 55.97 16.26 51.45 7.53 46.44 C 2.22 44.00 2.02 37.44 0.00 32.68 L 0.00 25.02 Z" />
<path fill="#692828" opacity="1.00" d=" M 49.21 14.11 C 50.82 13.20 51.19 15.69 49.71 16.02 C 48.06 17.03 47.64 14.41 49.21 14.11 Z" />
<path fill="#000000" opacity="1.00" d=" M 64.00 15.96 C 71.76 26.21 77.38 37.87 82.83 49.45 C 83.82 51.55 84.88 53.61 85.94 55.67 C 90.47 54.67 94.71 52.81 98.85 50.77 C 102.97 49.66 107.04 48.38 111.00 46.80 L 111.00 47.69 C 102.69 50.77 94.27 53.55 86.01 56.75 C 86.38 57.40 87.14 58.70 87.51 59.35 C 88.28 60.12 89.05 60.87 89.85 61.60 C 96.76 58.95 103.65 56.11 111.00 54.92 L 111.00 55.93 C 103.54 57.69 96.16 60.00 89.17 63.17 C 88.53 65.15 88.65 67.27 88.55 69.32 C 93.87 69.36 99.19 69.49 104.50 69.78 L 104.77 69.60 C 107.05 68.23 109.17 66.59 111.00 64.65 L 111.00 71.31 C 103.46 70.52 95.87 70.45 88.29 70.23 C 88.27 72.10 88.24 73.97 88.28 75.83 C 88.31 76.29 88.36 77.19 88.39 77.65 C 91.80 78.95 95.51 78.39 99.02 79.15 C 103.00 79.94 107.01 80.59 111.00 81.31 L 111.00 91.52 C 102.82 89.09 95.54 84.46 87.45 81.84 C 87.26 77.19 87.33 72.53 87.65 67.88 C 88.12 66.10 89.17 64.02 88.05 62.27 C 87.20 60.77 86.29 59.30 85.41 57.82 C 82.78 53.01 80.50 48.02 78.20 43.05 C 74.51 33.50 68.68 25.01 64.00 15.96 M 100.06 82.32 C 101.83 83.94 104.06 84.91 106.34 85.61 C 106.38 85.62 106.46 85.64 106.50 85.65 C 107.18 85.81 108.56 86.12 109.25 86.27 C 109.08 85.80 108.76 84.86 108.59 84.39 C 105.83 83.40 102.94 82.86 100.06 82.32 Z" />
<path fill="#676463" opacity="1.00" d=" M 39.63 26.84 C 41.08 23.38 42.88 20.05 45.14 17.05 C 45.34 17.57 45.72 18.59 45.91 19.11 C 45.18 23.36 42.45 26.96 41.08 31.03 C 40.86 31.53 40.42 32.53 40.20 33.03 C 39.78 30.99 39.48 28.92 39.63 26.84 Z" />
<path fill="#97907c" opacity="1.00" d=" M 68.95 18.06 C 71.02 17.64 73.17 18.31 71.85 20.73 C 69.77 21.85 69.06 19.72 68.95 18.06 Z" />
<path fill="#fff899" opacity="1.00" d=" M 50.58 27.33 C 53.50 24.46 56.39 21.12 60.46 19.93 L 59.90 20.54 C 57.47 23.07 54.66 25.22 51.77 27.20 C 51.48 27.24 50.88 27.30 50.58 27.33 Z" />
<path fill="#e37a5e" opacity="1.00" d=" M 51.77 27.20 C 54.66 25.22 57.47 23.07 59.90 20.54 C 60.53 21.70 61.15 22.87 61.77 24.04 C 60.45 26.50 59.27 29.38 56.62 30.72 C 54.01 31.59 51.19 31.56 48.46 31.69 C 47.47 30.02 49.24 28.62 50.10 27.38 L 50.58 27.33 C 50.88 27.30 51.48 27.24 51.77 27.20 Z" />
<path fill="#d54040" opacity="1.00" d=" M 95.07 23.78 C 96.16 23.07 97.27 22.39 98.39 21.71 C 98.31 24.15 98.14 27.08 95.09 27.42 C 95.09 26.51 95.07 24.69 95.07 23.78 Z" />
<path fill="#5a2f31" opacity="1.00" d=" M 98.39 21.71 C 100.66 24.86 98.12 28.33 94.65 28.71 C 94.42 27.31 93.86 25.88 94.08 24.44 L 95.07 23.78 C 95.07 24.69 95.09 26.51 95.09 27.42 C 98.14 27.08 98.31 24.15 98.39 21.71 Z" />
<path fill="#251f38" opacity="1.00" d=" M 10.47 32.12 C 12.22 28.72 13.94 25.28 16.01 22.05 C 18.19 24.68 19.91 27.63 21.66 30.55 C 19.63 31.45 17.70 32.56 15.90 33.88 C 17.49 34.48 19.04 35.36 20.76 35.52 C 21.70 34.89 22.52 34.12 23.38 33.40 C 23.94 34.67 24.40 35.99 24.95 37.27 C 23.93 38.80 22.54 40.27 22.36 42.20 C 26.43 46.70 31.50 50.15 36.80 53.04 C 38.35 54.38 39.78 55.86 41.20 57.34 C 40.86 57.53 40.16 57.93 39.82 58.13 L 39.14 57.97 C 38.83 57.71 38.20 57.19 37.89 56.94 C 36.92 56.21 35.92 55.52 34.91 54.87 L 36.15 54.83 C 29.88 50.64 23.09 47.28 16.64 43.41 C 13.46 40.43 12.04 36.08 10.47 32.12 Z" />
<path fill="#dd444c" opacity="1.00" d=" M 61.77 24.04 C 63.31 27.07 64.96 30.04 66.52 33.06 C 62.59 35.60 58.55 38.14 55.63 41.90 C 55.97 42.43 56.65 43.51 56.99 44.04 C 55.61 44.85 54.23 45.67 52.85 46.49 C 50.55 41.86 49.15 36.81 48.46 31.69 C 51.19 31.56 54.01 31.59 56.62 30.72 C 59.27 29.38 60.45 26.50 61.77 24.04 Z" />
<path fill="#4d4d58" opacity="1.00" d=" M 38.83 28.89 C 39.03 28.37 39.43 27.35 39.63 26.84 C 39.48 28.92 39.78 30.99 40.20 33.03 C 40.42 32.53 40.86 31.53 41.08 31.03 C 41.41 30.77 42.05 30.26 42.38 30.00 C 44.14 34.38 45.46 39.00 48.03 43.01 C 48.51 43.92 49.59 44.16 50.41 44.64 C 51.14 46.37 52.83 46.81 54.53 47.03 C 55.33 48.11 56.11 49.21 56.90 50.29 C 55.66 49.82 54.40 49.38 53.12 49.02 C 52.90 49.14 52.46 49.40 52.25 49.53 L 51.51 49.99 C 49.70 51.01 46.97 52.82 45.19 50.78 C 39.79 45.08 38.24 36.48 38.83 28.89 Z" />
<path fill="#26223b" opacity="1.00" d=" M 36.29 45.74 C 34.97 40.03 36.73 34.18 38.83 28.89 C 38.24 36.48 39.79 45.08 45.19 50.78 C 46.97 52.82 49.70 51.01 51.51 49.99 L 51.44 50.75 C 49.78 53.46 46.35 54.01 43.91 55.79 L 43.39 56.16 C 42.96 55.15 42.50 54.15 42.02 53.16 C 40.89 50.12 37.81 48.49 36.29 45.74 Z" />
<path fill="#403f4e" opacity="1.00" d=" M 15.90 33.88 C 17.70 32.56 19.63 31.45 21.66 30.55 C 22.09 31.26 22.95 32.68 23.38 33.40 C 22.52 34.12 21.70 34.89 20.76 35.52 C 19.04 35.36 17.49 34.48 15.90 33.88 Z" />
<path fill="#000000" opacity="1.00" d=" M 0.00 32.68 C 2.02 37.44 2.22 44.00 7.53 46.44 C 16.26 51.45 25.26 55.97 34.06 60.85 C 34.64 61.17 35.79 61.80 36.37 62.11 L 35.62 62.90 C 35.25 63.34 34.52 64.23 34.15 64.67 C 32.76 66.75 32.52 69.18 33.37 71.52 C 33.56 71.99 33.93 72.92 34.12 73.38 C 32.86 74.91 29.15 78.41 33.17 78.92 C 33.41 77.44 34.17 76.35 35.46 75.64 C 34.96 76.80 34.42 77.95 33.85 79.08 L 33.44 79.93 C 33.16 81.93 33.69 83.84 35.25 85.21 C 35.65 83.79 36.02 82.36 36.35 80.93 C 36.57 79.90 36.93 78.92 37.46 78.02 C 39.29 77.23 41.31 76.60 42.49 74.89 C 42.48 75.34 42.44 76.24 42.42 76.70 C 42.37 78.42 42.31 80.14 42.30 81.86 C 41.69 82.97 41.00 84.04 40.27 85.07 C 40.45 82.91 40.61 80.74 40.78 78.58 C 39.70 78.52 38.62 78.45 37.54 78.39 C 37.14 80.94 36.16 83.55 36.93 86.13 C 37.40 86.27 38.34 86.56 38.81 86.70 L 38.93 86.95 C 36.12 86.85 34.02 84.61 31.40 83.80 C 31.28 84.52 31.04 85.96 30.92 86.68 C 30.75 87.16 30.40 88.13 30.23 88.61 C 31.40 89.44 32.64 90.15 33.85 90.93 C 34.54 91.99 35.25 93.03 36.00 94.05 C 38.43 95.16 40.76 93.91 42.85 92.67 L 43.32 92.85 C 43.58 95.59 45.02 97.97 46.72 100.06 C 46.08 97.24 45.15 94.49 44.33 91.72 C 44.57 91.59 45.05 91.33 45.29 91.19 C 47.47 92.88 50.15 91.50 50.28 88.83 C 50.35 88.59 50.50 88.11 50.57 87.87 C 51.96 86.29 53.34 84.71 54.54 82.98 C 58.14 86.92 59.19 92.39 62.27 96.67 C 65.75 101.63 69.52 106.37 73.43 111.00 L 71.29 111.00 C 64.96 104.75 59.53 97.62 54.85 90.07 C 53.98 88.06 52.84 90.53 52.15 91.25 C 51.00 93.09 48.82 93.67 46.97 94.52 C 48.32 99.89 50.99 104.93 51.37 110.52 C 47.35 107.17 45.77 101.95 42.89 97.73 C 40.23 97.52 37.28 97.68 35.01 96.02 C 33.68 94.93 32.77 93.44 31.73 92.10 C 29.87 90.92 28.35 89.33 27.52 87.25 C 25.39 90.23 23.55 93.52 20.75 95.94 C 17.15 94.07 15.25 90.06 12.48 87.21 C 9.89 87.99 7.25 90.25 4.46 89.50 C 2.53 87.10 1.31 84.23 0.00 81.47 L 0.00 71.60 C 2.23 76.13 4.21 80.79 6.69 85.20 L 7.19 86.00 C 9.20 85.35 11.18 84.57 13.09 83.68 C 14.51 85.58 15.89 87.52 17.42 89.33 C 18.49 90.45 19.60 91.53 20.72 92.59 C 22.90 89.25 25.06 85.90 27.30 82.60 C 27.72 82.67 28.54 82.82 28.95 82.89 L 29.80 83.15 C 29.88 80.73 29.82 78.17 27.95 76.38 C 30.02 75.55 32.46 74.52 32.93 72.06 C 32.33 71.35 31.59 71.13 30.71 71.41 C 27.00 72.17 23.56 73.81 20.05 75.16 C 19.58 75.15 18.65 75.14 18.18 75.13 C 18.01 74.87 17.67 74.36 17.50 74.11 C 13.65 67.69 10.43 60.92 7.36 54.10 C 4.72 48.54 2.88 42.64 0.00 37.19 L 0.00 32.68 M 7.22 48.25 C 11.18 56.21 15.57 63.96 19.78 71.80 C 21.01 71.35 22.24 70.91 23.47 70.46 C 25.08 67.71 26.83 65.04 28.25 62.19 C 21.26 57.52 14.50 52.47 7.22 48.25 M 32.11 62.21 C 30.39 64.99 27.90 67.81 27.85 71.20 C 32.00 70.26 32.36 65.90 34.46 62.93 C 33.87 62.75 32.70 62.39 32.11 62.21 M 31.36 80.44 C 31.63 80.71 31.63 80.71 31.36 80.44 Z" />
<path fill="#bb2b5c" opacity="1.00" d=" M 66.52 33.06 C 67.67 34.94 68.67 36.90 69.50 38.93 C 65.33 40.63 61.14 42.29 56.99 44.04 C 56.65 43.51 55.97 42.43 55.63 41.90 C 58.55 38.14 62.59 35.60 66.52 33.06 Z" />
<path fill="#515158" opacity="1.00" d=" M 0.00 37.19 C 2.88 42.64 4.72 48.54 7.36 54.10 C 6.58 55.25 5.79 56.40 4.99 57.55 C 3.59 53.74 1.75 50.13 0.00 46.48 L 0.00 37.19 Z" />
<path fill="#3f3d4c" opacity="1.00" d=" M 5.86 42.00 C 5.59 39.28 8.57 38.52 10.37 37.40 C 10.89 37.84 11.91 38.73 12.42 39.17 C 10.50 40.52 8.48 42.80 5.86 42.00 Z" />
<path fill="#3d3b50" opacity="1.00" d=" M 22.36 42.20 C 22.54 40.27 23.93 38.80 24.95 37.27 C 29.59 41.79 34.72 45.79 39.20 50.50 C 38.40 51.34 37.60 52.19 36.80 53.04 C 31.50 50.15 26.43 46.70 22.36 42.20 Z" />
<path fill="#55575a" opacity="1.00" d=" M 54.53 47.03 C 59.22 43.76 64.80 42.25 69.97 39.94 C 72.72 45.16 75.87 50.19 77.98 55.72 C 73.91 57.51 69.14 60.80 64.69 58.31 C 60.97 56.97 59.24 53.18 56.90 50.29 C 56.11 49.21 55.33 48.11 54.53 47.03 Z" />
<path fill="#4a4953" opacity="1.00" d=" M 9.67 44.62 C 10.88 43.57 12.14 42.56 13.41 41.58 C 14.31 43.01 15.62 44.12 17.09 44.93 C 23.01 48.27 28.76 51.93 34.91 54.87 C 35.92 55.52 36.92 56.21 37.89 56.94 C 36.56 56.74 35.15 58.36 36.02 59.56 C 37.29 60.22 38.24 58.61 39.14 57.97 L 39.82 58.13 L 40.52 58.30 C 40.05 58.72 39.11 59.56 38.64 59.98 C 37.87 60.68 37.11 61.38 36.37 62.11 C 35.79 61.80 34.64 61.17 34.06 60.85 C 34.43 59.80 34.81 58.74 35.19 57.69 C 27.00 52.73 17.94 49.42 9.67 44.62 Z" />
<path fill="#262039" opacity="1.00" d=" M 0.00 46.48 C 1.75 50.13 3.59 53.74 4.99 57.55 C 6.53 62.55 9.08 67.14 11.06 71.96 C 11.74 73.60 13.00 74.88 14.13 76.22 C 15.25 75.52 16.38 74.81 17.50 74.11 C 17.67 74.36 18.01 74.87 18.18 75.13 C 18.65 75.14 19.58 75.15 20.05 75.16 C 18.23 76.15 16.53 77.34 14.87 78.57 C 18.38 78.62 21.83 77.86 25.26 77.18 C 22.94 80.25 18.72 80.45 15.84 82.81 C 20.03 82.94 23.64 77.71 27.66 80.44 C 28.05 81.28 28.49 82.09 28.95 82.89 C 28.54 82.82 27.72 82.67 27.30 82.60 C 27.06 82.59 26.57 82.57 26.33 82.55 C 24.62 85.21 23.04 87.95 21.35 90.61 C 20.04 90.17 18.74 89.74 17.42 89.33 C 15.89 87.52 14.51 85.58 13.09 83.68 C 14.08 83.00 15.05 82.30 15.99 81.56 C 12.50 81.32 9.69 83.81 6.69 85.20 C 4.21 80.79 2.23 76.13 0.00 71.60 L 0.00 46.48 Z" />
<path fill="#3e3b4e" opacity="1.00" d=" M 86.01 56.75 C 94.27 53.55 102.69 50.77 111.00 47.69 L 111.00 51.91 C 103.14 54.28 95.15 56.30 87.51 59.35 C 87.14 58.70 86.38 57.40 86.01 56.75 Z" />
<path fill="#d4cca8" opacity="1.00" d=" M 51.51 49.99 L 52.25 49.53 C 52.76 49.71 53.78 50.08 54.29 50.27 C 53.58 50.39 52.16 50.63 51.44 50.75 L 51.51 49.99 Z" />
<path fill="#5d565b" opacity="1.00" d=" M 36.80 53.04 C 37.60 52.19 38.40 51.34 39.20 50.50 C 40.14 51.39 41.10 52.26 42.02 53.16 C 42.50 54.15 42.96 55.15 43.39 56.16 C 42.43 56.87 41.48 57.59 40.52 58.30 L 39.82 58.13 C 40.16 57.93 40.86 57.53 41.20 57.34 C 39.78 55.86 38.35 54.38 36.80 53.04 Z" />
<path fill="#767364" opacity="1.00" d=" M 51.44 50.75 C 52.16 50.63 53.58 50.39 54.29 50.27 C 55.35 51.40 56.38 52.56 57.38 53.74 C 55.78 53.06 54.19 52.37 52.59 51.67 C 53.01 52.16 53.85 53.13 54.26 53.61 C 53.75 53.99 52.71 54.74 52.20 55.12 C 52.97 56.54 54.65 57.77 54.39 59.54 C 53.76 63.11 52.46 67.16 48.95 68.88 C 45.90 70.42 42.47 71.94 38.98 71.39 C 36.15 70.33 35.42 67.07 34.15 64.67 C 34.52 64.23 35.25 63.34 35.62 62.90 C 36.22 63.19 36.81 63.48 37.41 63.77 C 38.30 66.40 40.14 68.46 43.13 68.32 L 43.99 68.50 L 44.77 67.92 C 49.30 65.65 51.18 59.60 47.51 55.69 C 46.61 55.71 44.81 55.77 43.91 55.79 C 46.35 54.01 49.78 53.46 51.44 50.75 Z" />
<path fill="#26203a" opacity="1.00" d=" M 87.51 59.35 C 95.15 56.30 103.14 54.28 111.00 51.91 L 111.00 54.92 C 103.65 56.11 96.76 58.95 89.85 61.60 C 89.05 60.87 88.28 60.12 87.51 59.35 Z" />
<path fill="#444356" opacity="1.00" d=" M 7.36 54.10 C 10.43 60.92 13.65 67.69 17.50 74.11 C 16.38 74.81 15.25 75.52 14.13 76.22 C 13.00 74.88 11.74 73.60 11.06 71.96 C 9.08 67.14 6.53 62.55 4.99 57.55 C 5.79 56.40 6.58 55.25 7.36 54.10 Z" />
<path fill="#4b4b53" opacity="1.00" d=" M 52.20 55.12 C 52.71 54.74 53.75 53.99 54.26 53.61 C 55.99 55.72 58.83 57.87 57.89 60.98 C 57.05 64.30 55.58 67.66 53.12 70.10 C 49.42 73.35 44.30 71.83 39.96 73.19 C 37.59 73.97 35.48 72.31 33.37 71.52 C 32.52 69.18 32.76 66.75 34.15 64.67 C 35.42 67.07 36.15 70.33 38.98 71.39 C 42.47 71.94 45.90 70.42 48.95 68.88 C 52.46 67.16 53.76 63.11 54.39 59.54 C 54.65 57.77 52.97 56.54 52.20 55.12 Z" />
<path fill="#fffff1" opacity="1.00" d=" M 43.39 56.16 L 43.91 55.79 C 44.81 55.77 46.61 55.71 47.51 55.69 C 48.52 60.64 43.31 63.31 39.23 63.98 C 39.01 62.65 38.81 61.31 38.64 59.98 C 39.11 59.56 40.05 58.72 40.52 58.30 C 41.48 57.59 42.43 56.87 43.39 56.16 Z" />
<path fill="#b8b37f" opacity="1.00" d=" M 47.51 55.69 C 51.18 59.60 49.30 65.65 44.77 67.92 C 45.49 66.59 45.24 65.68 44.03 65.18 C 42.69 65.83 42.39 66.87 43.13 68.32 C 40.14 68.46 38.30 66.40 37.41 63.77 C 36.81 63.48 36.22 63.19 35.62 62.90 L 36.37 62.11 C 37.11 61.38 37.87 60.68 38.64 59.98 C 38.81 61.31 39.01 62.65 39.23 63.98 C 43.31 63.31 48.52 60.64 47.51 55.69 Z" />
<path fill="#261f39" opacity="1.00" d=" M 89.17 63.17 C 96.16 60.00 103.54 57.69 111.00 55.93 L 111.00 62.58 C 108.68 64.69 106.35 66.85 104.77 69.60 L 104.50 69.78 C 99.19 69.49 93.87 69.36 88.55 69.32 C 88.65 67.27 88.53 65.15 89.17 63.17 Z" />
<path fill="#6f6760" opacity="1.00" d=" M 36.02 59.56 C 35.15 58.36 36.56 56.74 37.89 56.94 C 38.20 57.19 38.83 57.71 39.14 57.97 C 38.24 58.61 37.29 60.22 36.02 59.56 Z" />
<path fill="#454351" opacity="1.00" d=" M 64.71 62.60 C 69.07 61.84 73.41 61.01 77.74 60.09 C 77.73 60.75 77.72 62.06 77.71 62.72 C 72.52 64.93 66.58 66.54 61.03 64.70 C 61.34 62.92 63.33 62.98 64.71 62.60 Z" />
<path fill="#373346" opacity="1.00" d=" M 32.11 62.21 C 32.70 62.39 33.87 62.75 34.46 62.93 C 32.36 65.90 32.00 70.26 27.85 71.20 C 27.90 67.81 30.39 64.99 32.11 62.21 Z" />
<path fill="#602b3b" opacity="1.00" d=" M 86.44 63.04 C 86.85 62.85 87.65 62.47 88.05 62.27 C 89.17 64.02 88.12 66.10 87.65 67.88 C 87.17 66.29 86.60 64.70 86.44 63.04 Z" />
<path fill="#823641" opacity="1.00" d=" M 104.77 69.60 C 106.35 66.85 108.68 64.69 111.00 62.58 L 111.00 64.65 C 109.17 66.59 107.05 68.23 104.77 69.60 Z" />
<path fill="#f3efb1" opacity="1.00" d=" M 43.13 68.32 C 42.39 66.87 42.69 65.83 44.03 65.18 C 45.24 65.68 45.49 66.59 44.77 67.92 L 43.99 68.50 L 43.13 68.32 Z" />
<path fill="#3d3a4b" opacity="1.00" d=" M 68.40 68.96 C 71.92 68.33 75.45 69.01 78.95 69.38 C 78.83 70.95 78.61 72.51 78.10 74.01 C 74.76 73.79 71.44 73.22 68.35 71.90 C 68.37 70.92 68.39 69.94 68.40 68.96 Z" />
<path fill="#4d4d55" opacity="1.00" d=" M 88.29 70.23 C 95.87 70.45 103.46 70.52 111.00 71.31 L 111.00 77.17 C 103.46 76.26 95.89 75.10 88.28 75.83 C 88.24 73.97 88.27 72.10 88.29 70.23 Z" />
<path fill="#444256" opacity="1.00" d=" M 30.71 71.41 C 31.59 71.13 32.33 71.35 32.93 72.06 C 32.46 74.52 30.02 75.55 27.95 76.38 C 27.59 76.07 26.86 75.44 26.50 75.13 C 26.41 75.30 26.22 75.65 26.12 75.83 C 25.91 76.16 25.47 76.84 25.26 77.18 C 21.83 77.86 18.38 78.62 14.87 78.57 C 16.53 77.34 18.23 76.15 20.05 75.16 C 23.56 73.81 27.00 72.17 30.71 71.41 Z" />
<path fill="#ffffcc" opacity="1.00" d=" M 42.49 74.89 C 42.83 74.43 43.50 73.51 43.83 73.05 C 44.46 73.98 44.94 74.98 45.27 76.06 C 44.56 76.22 43.14 76.54 42.42 76.70 C 42.44 76.24 42.48 75.34 42.49 74.89 Z" />
<path fill="#ffffcc" opacity="1.00" d=" M 33.17 78.92 C 29.15 78.41 32.86 74.91 34.12 73.38 C 35.21 74.94 36.41 76.43 37.46 78.02 C 36.93 78.92 36.57 79.90 36.35 80.93 C 35.52 80.31 34.69 79.70 33.85 79.08 C 34.42 77.95 34.96 76.80 35.46 75.64 C 34.17 76.35 33.41 77.44 33.17 78.92 Z" />
<path fill="#4d4d54" opacity="1.00" d=" M 64.44 74.91 C 65.27 73.58 66.42 73.24 67.87 73.90 C 71.28 74.82 74.54 76.17 77.87 77.31 C 77.59 78.80 77.25 80.27 76.87 81.73 C 72.75 79.48 67.70 78.43 64.44 74.91 Z" />
<path fill="#fff899" opacity="1.00" d=" M 26.12 75.83 C 26.22 75.65 26.41 75.30 26.50 75.13 C 26.86 75.44 27.59 76.07 27.95 76.38 C 29.82 78.17 29.88 80.73 29.80 83.15 L 28.95 82.89 C 28.49 82.09 28.05 81.28 27.66 80.44 C 27.07 78.93 26.55 77.39 26.12 75.83 Z" />
<path fill="#000000" opacity="1.00" d=" M 25.26 77.18 C 25.47 76.84 25.91 76.16 26.12 75.83 C 26.55 77.39 27.07 78.93 27.66 80.44 C 23.64 77.71 20.03 82.94 15.84 82.81 C 18.72 80.45 22.94 80.25 25.26 77.18 Z" />
<path fill="#fff899" opacity="1.00" d=" M 45.27 76.06 C 45.47 76.47 45.86 77.28 46.05 77.69 C 45.18 79.77 44.01 81.71 42.49 83.38 L 42.30 81.86 C 42.31 80.14 42.37 78.42 42.42 76.70 C 43.14 76.54 44.56 76.22 45.27 76.06 Z" />
<path fill="#221c36" opacity="1.00" d=" M 88.28 75.83 C 95.89 75.10 103.46 76.26 111.00 77.17 L 111.00 81.31 C 107.01 80.59 103.00 79.94 99.02 79.15 C 95.51 78.39 91.80 78.95 88.39 77.65 C 88.36 77.19 88.31 76.29 88.28 75.83 Z" />
<path fill="#dea35c" opacity="1.00" d=" M 37.54 78.39 C 38.62 78.45 39.70 78.52 40.78 78.58 C 40.61 80.74 40.45 82.91 40.27 85.07 C 39.90 85.48 39.17 86.29 38.81 86.70 C 38.34 86.56 37.40 86.27 36.93 86.13 C 36.16 83.55 37.14 80.94 37.54 78.39 Z" />
<path fill="#ae673e" opacity="1.00" d=" M 46.05 77.69 C 46.71 79.09 47.48 80.47 47.78 82.01 C 47.58 84.62 45.23 86.15 43.19 87.36 C 42.94 86.03 42.69 84.71 42.49 83.38 C 44.01 81.71 45.18 79.77 46.05 77.69 Z" />
<path fill="#000000" opacity="1.00" d=" M 59.67 78.91 C 60.95 78.35 62.39 77.21 63.78 78.27 C 68.27 80.50 72.59 83.09 77.14 85.21 C 76.80 89.19 76.19 93.13 75.61 97.08 C 75.29 96.81 74.67 96.26 74.35 95.99 C 69.10 91.29 64.18 86.15 60.21 80.31 C 60.07 79.96 59.80 79.26 59.67 78.91 M 64.96 82.35 C 68.18 85.77 71.67 88.94 75.33 91.89 C 75.41 90.92 75.59 88.99 75.68 88.02 C 71.89 86.59 69.08 82.55 64.96 82.35 Z" />
<path fill="#dea35c" opacity="1.00" d=" M 33.85 79.08 C 34.69 79.70 35.52 80.31 36.35 80.93 C 36.02 82.36 35.65 83.79 35.25 85.21 C 33.69 83.84 33.16 81.93 33.44 79.93 L 33.85 79.08 Z" />
<path fill="#dfad62" opacity="1.00" d=" M 31.36 80.44 C 31.63 80.71 31.63 80.71 31.36 80.44 Z" />
<path fill="#893743" opacity="1.00" d=" M 6.69 85.20 C 9.69 83.81 12.50 81.32 15.99 81.56 C 15.05 82.30 14.08 83.00 13.09 83.68 C 11.18 84.57 9.20 85.35 7.19 86.00 L 6.69 85.20 Z" />
<path fill="#494854" opacity="1.00" d=" M 58.42 84.52 C 57.45 82.93 59.40 81.47 60.21 80.31 C 64.18 86.15 69.10 91.29 74.35 95.99 C 74.10 98.02 73.84 100.05 73.54 102.08 C 70.80 100.69 69.36 97.84 67.32 95.69 C 64.29 92.02 60.99 88.53 58.42 84.52 Z" />
<path fill="#dd444c" opacity="1.00" d=" M 26.33 82.55 C 26.57 82.57 27.06 82.59 27.30 82.60 C 25.06 85.90 22.90 89.25 20.72 92.59 C 19.60 91.53 18.49 90.45 17.42 89.33 C 18.74 89.74 20.04 90.17 21.35 90.61 C 23.04 87.95 24.62 85.21 26.33 82.55 Z" />
<path fill="#632a34" opacity="1.00" d=" M 53.44 81.70 C 53.71 82.02 54.26 82.66 54.54 82.98 C 53.34 84.71 51.96 86.29 50.57 87.87 C 50.68 85.50 52.13 83.56 53.44 81.70 Z" />
<path fill="#434153" opacity="1.00" d=" M 87.45 81.84 C 95.54 84.46 102.82 89.09 111.00 91.52 L 111.00 95.04 C 102.79 92.93 95.15 89.24 87.51 85.65 C 87.49 84.38 87.48 83.11 87.45 81.84 Z" />
<path fill="#000000" opacity="0.49" d=" M 100.06 82.32 C 102.94 82.86 105.83 83.40 108.59 84.39 C 108.76 84.86 109.08 85.80 109.25 86.27 C 108.56 86.12 107.18 85.81 106.50 85.65 C 106.46 85.64 106.38 85.62 106.34 85.61 C 104.06 84.91 101.83 83.94 100.06 82.32 Z" />
<path fill="#3e3b4c" opacity="1.00" d=" M 31.40 83.80 C 34.02 84.61 36.12 86.85 38.93 86.95 C 39.93 86.95 40.93 86.87 41.91 86.69 C 42.18 87.63 42.46 88.57 42.73 89.50 C 40.23 89.75 37.77 90.22 35.34 90.81 C 33.41 90.10 32.06 88.31 30.92 86.68 C 31.04 85.96 31.28 84.52 31.40 83.80 Z" />
<path fill="#000000" opacity="0.56" d=" M 106.34 85.61 C 106.38 85.62 106.46 85.64 106.50 85.65 C 106.46 85.64 106.38 85.62 106.34 85.61 Z" />
<path fill="#fff899" opacity="1.00" d=" M 30.23 88.61 C 30.40 88.13 30.75 87.16 30.92 86.68 C 32.06 88.31 33.41 90.10 35.34 90.81 L 36.72 91.07 C 36.48 92.06 36.24 93.05 36.00 94.05 C 35.25 93.03 34.54 91.99 33.85 90.93 C 32.64 90.15 31.40 89.44 30.23 88.61 Z" />
<path fill="#80303b" opacity="1.00" d=" M 45.29 91.19 C 46.92 90.34 48.60 89.57 50.28 88.83 C 50.15 91.50 47.47 92.88 45.29 91.19 Z" />
<path fill="#000000" opacity="1.00" d=" M 86.18 89.40 C 94.30 93.43 102.64 97.01 111.00 100.53 L 111.00 104.47 C 103.41 100.84 95.74 97.36 88.43 93.16 C 88.12 99.10 87.62 105.04 87.75 111.00 L 83.70 111.00 C 84.55 109.45 84.19 107.65 83.93 106.00 C 85.10 100.53 85.67 94.96 86.18 89.40 Z" />
<path fill="#bd2a54" opacity="1.00" d=" M 36.72 91.07 C 38.81 91.41 40.94 91.71 42.85 92.67 C 40.76 93.91 38.43 95.16 36.00 94.05 C 36.24 93.05 36.48 92.06 36.72 91.07 Z" />
<path fill="#dea35c" opacity="1.00" d=" M 43.12 91.25 C 43.42 91.37 44.03 91.60 44.33 91.72 C 45.15 94.49 46.08 97.24 46.72 100.06 C 45.02 97.97 43.58 95.59 43.32 92.85 C 43.27 92.45 43.17 91.65 43.12 91.25 Z" />
<path fill="#9c3c47" opacity="1.00" d=" M 83.16 111.00 C 82.27 109.32 82.98 107.46 83.93 106.00 C 84.19 107.65 84.55 109.45 83.70 111.00 L 83.16 111.00 Z" />
</svg>
