<?xml version="1.0" encoding="UTF-8" ?>
<!DOCTYPE svg PUBLIC "-//W3C//DTD SVG 1.1//EN" "http://www.w3.org/Graphics/SVG/1.1/DTD/svg11.dtd">
<svg width="111pt" height="111pt" viewBox="0 0 111 111" version="1.1" xmlns="http://www.w3.org/2000/svg">
<path fill="#000000" opacity="1.00" d=" M 71.43 0.00 L 72.50 0.00 C 70.84 5.93 68.88 11.80 68.08 17.94 C 76.12 11.64 85.96 8.13 95.90 6.25 C 100.87 5.24 105.98 5.45 111.00 5.94 L 111.00 7.94 C 101.11 6.18 91.26 8.91 82.00 12.16 C 77.43 13.78 73.13 16.21 69.45 19.38 C 68.15 20.33 67.51 21.79 67.21 23.33 C 76.34 21.43 85.70 20.92 95.00 20.77 C 98.01 20.92 101.26 20.63 104.02 22.07 C 103.92 23.97 102.64 25.49 101.77 27.09 C 97.55 34.41 92.09 40.85 86.42 47.06 C 90.23 46.50 93.17 43.67 96.92 42.98 C 101.57 42.11 106.32 42.58 111.00 42.96 L 111.00 44.77 C 107.94 44.20 104.83 43.98 101.72 44.03 C 98.52 44.09 95.43 44.98 92.45 46.08 C 92.61 46.95 92.77 47.82 92.93 48.69 C 91.81 49.71 90.69 50.75 89.51 51.71 C 88.55 52.20 87.59 52.68 86.62 53.13 C 86.64 53.79 86.69 55.10 86.72 55.76 C 86.15 55.43 85.03 54.78 84.46 54.45 C 86.41 57.08 85.92 60.20 85.39 63.20 C 86.01 63.34 87.24 63.63 87.86 63.77 C 93.55 64.91 99.67 65.73 105.23 63.60 C 107.36 62.60 109.34 61.30 111.00 59.62 L 111.00 61.75 C 109.80 63.93 108.49 66.04 107.31 68.22 C 105.14 72.08 103.01 75.95 100.97 79.87 C 104.31 76.98 107.74 74.21 111.00 71.23 L 111.00 73.44 C 107.39 76.62 103.60 79.59 100.09 82.88 C 103.35 84.95 107.14 85.94 111.00 85.64 L 111.00 88.44 C 110.26 88.45 108.78 88.48 108.04 88.49 C 106.33 94.58 105.82 101.46 108.86 107.22 C 109.05 108.60 109.54 109.96 110.49 111.00 L 107.62 111.00 L 107.73 110.54 C 107.58 110.66 107.29 110.89 107.14 111.00 L 104.89 111.00 C 105.74 109.91 106.54 108.77 107.33 107.63 C 104.35 108.01 101.65 109.32 99.20 111.00 L 96.68 111.00 C 97.54 110.27 98.38 109.52 99.21 108.75 C 95.35 107.86 91.44 108.70 87.63 109.34 C 85.11 109.67 82.64 110.29 80.21 111.00 L 76.66 111.00 C 77.56 110.42 78.44 109.82 79.32 109.21 C 76.76 108.31 74.18 107.44 71.52 106.85 C 67.07 106.64 62.52 107.27 58.50 109.27 C 57.47 109.82 56.47 110.43 55.45 111.00 L 53.65 111.00 C 60.28 105.20 70.07 103.85 78.14 107.28 C 82.34 104.89 87.12 103.67 91.94 103.49 C 96.13 103.18 100.30 104.56 104.46 103.59 C 102.57 106.87 108.08 106.33 105.36 103.46 C 105.21 100.42 105.21 97.38 105.17 94.34 C 101.71 96.52 98.46 99.11 94.63 100.64 C 95.77 95.73 98.15 91.04 102.01 87.72 C 101.89 88.18 101.66 89.09 101.55 89.55 C 99.56 92.25 97.65 95.05 96.61 98.27 C 98.15 97.33 99.67 96.35 101.18 95.37 C 104.32 93.92 106.27 91.18 107.04 87.85 C 105.72 87.47 104.40 87.08 103.08 86.70 C 97.32 83.29 94.76 76.43 93.69 70.14 C 93.25 70.36 92.36 70.80 91.92 71.02 C 92.41 69.42 93.10 67.88 93.80 66.35 C 92.29 66.28 90.77 66.21 89.25 66.14 C 89.17 67.82 89.08 69.51 88.92 71.20 C 88.64 72.47 88.69 73.72 89.07 74.94 C 89.42 74.36 90.12 73.21 90.46 72.63 L 91.35 73.35 C 90.54 76.44 89.35 79.44 87.69 82.19 C 86.80 76.77 87.38 71.30 87.56 65.86 C 87.34 63.45 84.85 65.31 84.56 66.63 C 82.75 70.21 81.94 74.24 79.76 77.65 C 79.15 77.82 77.92 78.16 77.31 78.33 C 72.48 85.98 65.64 92.15 58.08 97.02 C 51.30 101.24 44.24 105.22 36.49 107.34 C 35.19 107.69 33.85 107.36 32.56 107.24 C 38.62 103.58 43.88 98.76 48.17 93.13 C 53.32 87.01 58.45 80.79 62.20 73.68 C 59.96 74.93 57.77 76.27 55.46 77.40 C 54.83 76.98 54.41 76.34 54.05 75.69 C 55.97 75.48 57.47 74.26 58.99 73.19 C 57.43 73.78 55.90 74.43 54.36 75.07 L 54.31 72.78 C 54.90 72.58 56.08 72.19 56.67 72.00 C 58.52 71.04 60.50 70.28 61.77 72.47 C 63.73 70.71 66.36 69.03 66.11 66.02 C 66.17 62.43 67.77 59.19 68.62 55.78 L 68.16 54.92 C 66.86 53.37 67.18 51.42 67.55 49.58 C 68.56 49.05 69.57 48.52 70.58 47.98 C 71.60 48.30 72.62 48.62 73.64 48.95 C 75.48 46.70 77.50 44.62 79.35 42.39 C 81.26 43.38 82.69 44.98 83.99 46.65 C 90.33 40.54 95.93 33.62 100.34 26.00 C 100.92 25.09 101.52 24.18 102.12 23.28 C 90.55 22.35 78.89 23.29 67.42 24.87 C 67.21 24.33 66.79 23.24 66.57 22.70 C 65.58 15.97 68.30 9.46 69.90 3.04 C 65.81 6.39 61.99 10.06 58.10 13.65 C 54.13 17.50 50.12 21.36 46.61 25.65 C 45.34 26.65 46.45 28.01 47.27 28.83 C 52.22 33.80 59.21 35.65 65.35 38.68 C 60.46 40.97 54.80 39.99 49.60 39.60 C 47.68 39.17 45.80 38.58 43.93 37.96 C 42.68 36.95 41.48 35.88 40.26 34.83 C 39.56 36.24 38.85 37.66 38.15 39.08 C 37.78 39.82 37.41 40.56 37.04 41.30 C 35.38 44.60 33.89 48.01 32.99 51.60 C 31.67 55.81 32.21 60.65 34.72 64.32 C 36.71 67.31 39.01 70.07 41.43 72.71 L 41.68 71.23 C 42.38 71.51 43.78 72.07 44.48 72.35 C 44.68 71.20 44.90 70.05 45.11 68.90 C 46.05 69.67 47.00 70.44 47.94 71.22 C 48.21 70.23 48.50 69.25 48.81 68.28 C 49.97 69.22 51.07 70.22 52.20 71.20 C 53.29 69.83 54.37 68.45 55.44 67.07 C 55.79 69.10 57.50 68.91 59.12 68.69 C 59.39 68.89 59.92 69.29 60.18 69.49 C 59.58 69.61 58.38 69.85 57.78 69.97 C 56.11 70.65 54.60 71.62 53.05 72.53 C 53.17 74.64 53.40 76.74 53.58 78.84 C 53.96 78.66 54.73 78.30 55.11 78.12 C 54.83 78.80 54.27 80.16 53.98 80.84 C 52.58 81.22 51.25 81.81 50.01 82.57 C 48.86 81.42 47.65 80.33 46.40 79.29 C 45.58 79.50 44.76 79.72 43.95 79.94 C 43.67 78.78 42.79 77.61 43.28 76.39 L 43.93 76.07 C 44.80 74.98 44.61 74.08 43.36 73.39 C 43.34 74.14 43.30 75.64 43.28 76.39 C 42.10 75.46 40.93 74.51 39.77 73.56 C 34.20 76.02 29.21 79.65 24.83 83.86 C 22.82 85.74 21.05 87.96 18.53 89.19 C 20.49 85.66 23.82 83.20 26.66 80.42 C 28.13 79.30 29.57 78.15 31.05 77.04 C 31.76 76.51 32.48 76.00 33.22 75.50 C 34.88 74.55 36.60 73.70 38.30 72.83 C 37.25 71.34 36.19 69.85 35.08 68.40 C 34.15 67.20 33.18 66.02 32.21 64.85 C 29.67 68.06 27.13 71.28 24.98 74.77 C 23.34 77.32 21.74 79.88 20.34 82.57 C 19.06 84.77 17.90 87.04 16.66 89.27 C 17.01 89.46 17.71 89.83 18.07 90.01 C 17.08 92.00 15.54 93.63 13.96 95.15 C 14.84 88.49 18.66 82.75 22.00 77.09 C 24.85 72.47 27.85 67.92 31.57 63.95 C 31.24 62.57 30.90 61.20 30.57 59.82 C 22.25 67.09 10.35 66.56 0.00 67.15 L 0.00 65.58 C 2.43 65.11 4.88 64.79 7.34 64.57 C 8.55 64.48 9.75 64.38 10.96 64.28 C 16.88 63.15 23.30 62.94 28.44 59.42 C 29.80 58.71 29.87 57.03 30.41 55.77 C 25.27 57.79 19.96 59.38 14.45 59.91 C 10.58 60.23 6.73 60.73 2.88 61.21 C 2.16 61.28 0.72 61.42 0.00 61.49 L 0.00 60.07 C 9.40 57.95 19.47 58.51 28.37 54.43 C 30.51 53.63 30.60 51.06 31.34 49.23 C 33.02 43.09 36.62 37.77 39.42 32.12 C 36.40 26.19 36.37 19.04 32.37 13.60 C 29.06 8.90 22.48 7.94 17.26 9.42 C 11.14 11.20 5.66 14.59 0.00 17.43 L 0.00 16.02 C 6.26 11.22 13.58 7.94 21.42 6.84 C 22.61 6.87 23.81 6.91 25.00 6.98 C 32.77 9.00 37.80 16.39 38.77 24.08 C 39.11 25.79 39.41 27.51 39.75 29.22 C 41.17 33.41 44.51 37.38 49.05 38.15 C 53.07 38.92 57.21 38.82 61.28 38.63 C 55.22 35.83 48.69 33.42 44.24 28.14 C 43.25 26.40 42.35 24.60 41.60 22.73 C 42.02 21.91 42.45 21.10 42.89 20.29 C 43.43 21.88 44.02 23.44 44.67 24.99 C 52.73 15.80 61.81 7.52 71.43 0.00 M 79.51 44.40 C 77.41 46.03 74.79 48.46 74.21 50.81 C 73.88 51.27 73.24 52.18 72.91 52.64 L 71.89 52.19 C 71.95 51.39 72.06 49.81 72.11 49.02 L 71.33 49.93 C 70.71 49.07 69.91 49.03 68.93 49.82 C 67.89 50.66 67.54 51.68 67.87 52.88 C 68.67 54.66 69.96 54.80 71.74 53.31 C 71.30 54.27 70.44 56.20 70.01 57.17 C 73.31 56.05 75.68 53.41 78.32 51.28 L 78.30 50.43 C 80.77 50.99 82.58 52.71 84.39 54.35 C 84.56 51.93 83.50 49.68 82.20 47.71 C 81.28 46.67 80.88 44.87 79.51 44.40 M 84.33 48.57 C 84.09 53.04 89.83 51.35 90.06 48.21 C 88.15 48.27 86.24 48.38 84.33 48.57 M 78.52 51.51 L 79.05 52.75 L 78.72 51.99 C 77.37 52.88 76.11 53.88 74.98 55.03 L 74.91 55.46 C 72.67 56.96 70.40 58.45 68.39 60.27 L 68.28 60.26 C 68.22 60.91 68.09 62.22 68.03 62.87 L 67.39 64.68 C 70.77 64.74 74.56 63.59 77.49 65.83 C 77.96 67.09 79.01 68.00 79.84 69.02 C 79.88 71.27 82.24 69.47 82.18 68.15 C 82.60 66.50 84.36 64.32 83.13 62.81 C 82.81 62.43 82.17 61.67 81.85 61.29 C 80.40 61.22 78.95 61.16 77.50 61.13 L 78.04 60.26 C 78.55 60.21 79.56 60.11 80.07 60.06 C 81.80 60.35 83.52 60.68 85.24 61.05 C 84.14 57.42 83.09 51.91 78.52 51.51 M 66.97 67.99 C 68.31 68.29 69.65 68.60 70.99 68.92 C 70.81 69.30 70.45 70.06 70.27 70.44 C 69.50 69.58 68.51 69.11 67.31 69.02 C 63.52 74.49 60.14 80.23 56.22 85.62 C 55.09 86.98 53.96 88.35 52.86 89.75 C 51.21 91.71 49.51 93.65 47.91 95.67 C 45.45 98.87 42.41 101.52 39.60 104.38 C 45.87 103.04 50.99 98.88 56.65 96.09 C 61.69 93.01 66.12 89.02 69.60 84.25 C 73.53 82.46 74.73 77.56 78.73 75.68 C 81.98 72.73 78.86 69.35 76.73 66.88 L 76.56 67.14 C 75.42 65.94 74.18 65.56 72.83 65.99 C 71.65 64.85 70.42 64.76 69.16 65.74 L 68.64 64.99 C 67.56 65.67 67.02 66.71 66.97 67.99 M 95.42 67.48 C 95.43 68.83 95.44 70.17 95.46 71.52 C 96.27 74.56 97.37 77.53 98.97 80.26 C 100.05 78.46 101.26 76.69 101.88 74.67 C 103.98 71.77 105.54 68.54 107.08 65.32 C 103.22 66.18 99.32 66.88 95.42 67.48 M 47.94 72.07 L 47.96 73.49 C 50.88 72.79 49.57 77.21 51.75 78.20 C 52.11 76.17 52.17 74.12 52.12 72.08 C 50.71 72.69 49.32 72.69 47.94 72.07 M 46.04 72.81 C 46.03 75.04 46.31 77.30 47.69 79.13 C 48.39 76.95 48.15 74.13 46.04 72.81 M 50.35 80.08 C 50.85 80.69 50.85 80.69 50.35 80.08 M 80.91 107.09 L 80.35 108.04 L 80.98 108.93 C 86.35 108.47 91.62 107.00 97.03 106.90 C 98.89 107.06 102.30 109.22 103.03 106.45 C 95.83 104.51 87.98 104.63 80.91 107.09 Z" />
<path fill="#000000" opacity="1.00" d=" M 0.00 12.47 C 5.48 6.60 13.01 2.84 20.98 1.87 C 26.54 0.93 32.47 2.56 36.79 6.18 C 40.70 9.54 42.06 14.91 42.26 19.86 C 42.03 19.93 41.55 20.06 41.31 20.12 C 39.91 16.18 39.32 11.73 36.56 8.43 C 33.88 5.47 30.02 3.69 26.02 3.62 C 23.40 3.67 20.79 3.94 18.24 4.51 C 11.58 6.62 5.34 9.99 0.00 14.50 L 0.00 12.47 Z" />
<path fill="#9a3d33" opacity="1.00" d=" M 58.10 13.65 C 61.99 10.06 65.81 6.39 69.90 3.04 C 68.30 9.46 65.58 15.97 66.57 22.70 C 64.17 26.50 60.94 29.71 57.11 32.08 C 56.83 25.89 58.32 19.89 59.16 13.82 L 58.10 13.65 Z" />
<path fill="#f29c7f" opacity="1.00" d=" M 18.24 4.51 C 20.79 3.94 23.40 3.67 26.02 3.62 C 26.27 4.74 26.52 5.87 26.77 7.00 C 26.33 6.99 25.45 6.98 25.00 6.98 C 23.81 6.91 22.61 6.87 21.42 6.84 C 20.46 5.93 19.36 5.19 18.24 4.51 Z" />
<path fill="#de4967" opacity="1.00" d=" M 26.02 3.62 C 30.02 3.69 33.88 5.47 36.56 8.43 C 39.32 11.73 39.91 16.18 41.31 20.12 C 41.27 20.78 41.19 22.09 41.14 22.74 C 40.55 23.08 39.37 23.74 38.77 24.08 C 37.80 16.39 32.77 9.00 25.00 6.98 C 25.45 6.98 26.33 6.99 26.77 7.00 C 26.52 5.87 26.27 4.74 26.02 3.62 Z" />
<path fill="#ffffa4" opacity="1.00" d=" M 0.00 14.50 C 5.34 9.99 11.58 6.62 18.24 4.51 C 19.36 5.19 20.46 5.93 21.42 6.84 C 13.58 7.94 6.26 11.22 0.00 16.02 L 0.00 14.50 Z" />
<path fill="#ffffc3" opacity="1.00" d=" M 82.00 12.16 C 91.26 8.91 101.11 6.18 111.00 7.94 L 111.00 9.58 C 109.21 9.99 107.42 10.33 105.62 10.67 C 104.36 12.86 103.22 16.10 100.10 15.78 C 96.86 16.54 94.32 14.33 91.74 12.82 C 88.66 10.89 84.85 14.65 82.00 12.16 Z" />
<path fill="#df813b" opacity="1.00" d=" M 105.62 10.67 C 107.42 10.33 109.21 9.99 111.00 9.58 L 111.00 33.01 C 108.88 34.26 106.71 36.44 104.11 36.12 C 101.01 34.51 101.29 30.08 101.77 27.09 C 102.64 25.49 103.92 23.97 104.02 22.07 C 101.26 20.63 98.01 20.92 95.00 20.77 C 85.70 20.92 76.34 21.43 67.21 23.33 C 67.51 21.79 68.15 20.33 69.45 19.38 C 73.13 16.21 77.43 13.78 82.00 12.16 C 84.85 14.65 88.66 10.89 91.74 12.82 C 94.32 14.33 96.86 16.54 100.10 15.78 C 103.22 16.10 104.36 12.86 105.62 10.67 Z" />
<path fill="#e0813b" opacity="1.00" d=" M 46.61 25.65 C 50.12 21.36 54.13 17.50 58.10 13.65 L 59.16 13.82 C 58.32 19.89 56.83 25.89 57.11 32.08 C 60.94 29.71 64.17 26.50 66.57 22.70 C 66.79 23.24 67.21 24.33 67.42 24.87 C 78.89 23.29 90.55 22.35 102.12 23.28 C 101.52 24.18 100.92 25.09 100.34 26.00 C 92.46 29.10 86.51 35.55 79.23 39.76 C 76.46 41.55 73.80 43.53 70.90 45.12 C 68.28 46.38 65.61 47.57 63.05 48.96 C 62.10 47.24 60.91 45.67 59.71 44.12 C 56.53 44.33 53.12 44.55 50.45 46.48 C 46.94 49.25 44.83 53.62 44.61 58.06 C 46.09 61.86 50.51 64.35 54.52 63.26 C 57.81 62.74 60.34 60.34 62.08 57.63 C 62.43 58.68 62.78 59.74 63.13 60.79 C 62.85 61.00 62.30 61.41 62.02 61.61 C 61.44 61.97 60.26 62.70 59.67 63.06 L 58.64 63.49 C 56.18 65.18 59.42 68.33 61.66 66.93 C 60.84 67.55 59.99 68.14 59.12 68.69 C 57.50 68.91 55.79 69.10 55.44 67.07 C 54.37 68.45 53.29 69.83 52.20 71.20 C 51.07 70.22 49.97 69.22 48.81 68.28 C 48.50 69.25 48.21 70.23 47.94 71.22 C 47.00 70.44 46.05 69.67 45.11 68.90 C 44.90 70.05 44.68 71.20 44.48 72.35 C 43.78 72.07 42.38 71.51 41.68 71.23 L 41.43 72.71 C 39.01 70.07 36.71 67.31 34.72 64.32 C 32.21 60.65 31.67 55.81 32.99 51.60 C 33.09 52.21 33.28 53.42 33.38 54.02 C 34.72 51.14 36.95 48.89 39.38 46.89 C 42.37 43.91 46.14 41.96 49.60 39.60 C 54.80 39.99 60.46 40.97 65.35 38.68 C 59.21 35.65 52.22 33.80 47.27 28.83 C 46.45 28.01 45.34 26.65 46.61 25.65 Z" />
<path fill="#b7427a" opacity="1.00" d=" M 38.77 24.08 C 39.37 23.74 40.55 23.08 41.14 22.74 L 41.60 22.73 C 42.35 24.60 43.25 26.40 44.24 28.14 C 44.19 28.66 44.08 29.69 44.03 30.20 C 42.60 29.90 41.18 29.56 39.75 29.22 C 39.41 27.51 39.11 25.79 38.77 24.08 Z" />
<path fill="#6e2134" opacity="1.00" d=" M 79.23 39.76 C 86.51 35.55 92.46 29.10 100.34 26.00 C 95.93 33.62 90.33 40.54 83.99 46.65 C 82.69 44.98 81.26 43.38 79.35 42.39 C 79.33 41.51 79.27 40.64 79.23 39.76 Z" />
<path fill="#762334" opacity="1.00" d=" M 86.42 47.06 C 92.09 40.85 97.55 34.41 101.77 27.09 C 101.29 30.08 101.01 34.51 104.11 36.12 C 106.71 36.44 108.88 34.26 111.00 33.01 L 111.00 42.96 C 106.32 42.58 101.57 42.11 96.92 42.98 C 93.17 43.67 90.23 46.50 86.42 47.06 Z" />
<path fill="#743da7" opacity="1.00" d=" M 44.24 28.14 C 48.69 33.42 55.22 35.83 61.28 38.63 C 57.21 38.82 53.07 38.92 49.05 38.15 C 44.51 37.38 41.17 33.41 39.75 29.22 C 41.18 29.56 42.60 29.90 44.03 30.20 C 44.08 29.69 44.19 28.66 44.24 28.14 Z" />
<path fill="#c5833e" opacity="1.00" d=" M 40.26 34.83 C 41.48 35.88 42.68 36.95 43.93 37.96 C 41.98 38.24 40.06 38.66 38.15 39.08 C 38.85 37.66 39.56 36.24 40.26 34.83 Z" />
<path fill="#f2cd69" opacity="1.00" d=" M 38.15 39.08 C 40.06 38.66 41.98 38.24 43.93 37.96 C 45.80 38.58 47.68 39.17 49.60 39.60 C 46.14 41.96 42.37 43.91 39.38 46.89 C 38.98 44.88 38.28 42.95 37.04 41.30 C 37.41 40.56 37.78 39.82 38.15 39.08 Z" />
<path fill="#8c3033" opacity="1.00" d=" M 70.90 45.12 C 73.80 43.53 76.46 41.55 79.23 39.76 C 79.27 40.64 79.33 41.51 79.35 42.39 C 77.50 44.62 75.48 46.70 73.64 48.95 C 72.62 48.62 71.60 48.30 70.58 47.98 C 70.66 47.27 70.82 45.84 70.90 45.12 Z" />
<path fill="#ffffc9" opacity="1.00" d=" M 37.04 41.30 C 38.28 42.95 38.98 44.88 39.38 46.89 C 36.95 48.89 34.72 51.14 33.38 54.02 C 33.28 53.42 33.09 52.21 32.99 51.60 C 33.89 48.01 35.38 44.60 37.04 41.30 Z" />
<path fill="#000000" opacity="1.00" d=" M 50.45 46.48 C 53.12 44.55 56.53 44.33 59.71 44.12 C 60.91 45.67 62.10 47.24 63.05 48.96 C 63.44 51.89 63.08 54.86 62.08 57.63 C 60.34 60.34 57.81 62.74 54.52 63.26 C 50.51 64.35 46.09 61.86 44.61 58.06 C 44.83 53.62 46.94 49.25 50.45 46.48 M 50.03 48.08 C 48.49 49.90 47.23 51.92 46.26 54.10 C 46.05 55.41 45.78 56.72 45.70 58.05 C 47.17 60.72 50.68 63.10 53.72 61.77 C 62.13 62.00 65.29 46.19 55.92 45.37 C 53.85 46.02 51.90 46.98 50.03 48.08 Z" />
<path fill="#f4d350" opacity="1.00" d=" M 79.51 44.40 C 80.88 44.87 81.28 46.67 82.20 47.71 C 81.39 46.73 80.60 45.19 79.11 46.11 C 78.05 47.33 78.25 48.93 78.30 50.43 L 78.32 51.28 C 75.68 53.41 73.31 56.05 70.01 57.17 C 70.44 56.20 71.30 54.27 71.74 53.31 C 71.78 53.03 71.85 52.47 71.89 52.19 L 72.91 52.64 C 74.25 54.18 75.68 51.77 74.21 50.81 C 74.79 48.46 77.41 46.03 79.51 44.40 Z" />
<path fill="#804a7c" opacity="1.00" d=" M 92.45 46.08 C 95.43 44.98 98.52 44.09 101.72 44.03 C 102.17 46.08 102.78 48.10 103.60 50.05 C 103.40 51.06 103.20 52.07 102.99 53.07 C 104.37 53.85 105.75 54.61 107.14 55.39 C 105.65 55.99 104.26 56.78 102.87 57.57 C 101.50 56.33 100.17 55.05 98.82 53.79 C 95.89 52.46 92.64 52.22 89.51 51.71 C 90.69 50.75 91.81 49.71 92.93 48.69 C 92.77 47.82 92.61 46.95 92.45 46.08 Z" />
<path fill="#853c6f" opacity="1.00" d=" M 101.72 44.03 C 104.83 43.98 107.94 44.20 111.00 44.77 L 111.00 54.70 C 109.71 54.91 108.42 55.14 107.14 55.39 C 105.75 54.61 104.37 53.85 102.99 53.07 C 103.20 52.07 103.40 51.06 103.60 50.05 C 102.78 48.10 102.17 46.08 101.72 44.03 Z" />
<path fill="#c66638" opacity="1.00" d=" M 63.05 48.96 C 65.61 47.57 68.28 46.38 70.90 45.12 C 70.82 45.84 70.66 47.27 70.58 47.98 C 69.57 48.52 68.56 49.05 67.55 49.58 C 67.18 51.42 66.86 53.37 68.16 54.92 C 66.89 57.19 65.26 59.26 63.13 60.79 C 62.78 59.74 62.43 58.68 62.08 57.63 C 63.08 54.86 63.44 51.89 63.05 48.96 Z" />
<path fill="#a2e3fe" opacity="1.00" d=" M 50.03 48.08 C 51.90 46.98 53.85 46.02 55.92 45.37 C 56.63 47.51 58.01 49.56 58.02 51.87 C 57.12 55.37 55.35 58.57 53.72 61.77 C 50.68 63.10 47.17 60.72 45.70 58.05 C 45.78 56.72 46.05 55.41 46.26 54.10 C 47.55 55.38 49.70 56.86 51.38 55.34 C 53.90 53.30 53.25 49.02 50.03 48.08 Z" />
<path fill="#5d8efc" opacity="1.00" d=" M 55.92 45.37 C 65.29 46.19 62.13 62.00 53.72 61.77 C 55.35 58.57 57.12 55.37 58.02 51.87 C 58.01 49.56 56.63 47.51 55.92 45.37 Z" />
<path fill="#5f316f" opacity="1.00" d=" M 79.11 46.11 C 80.60 45.19 81.39 46.73 82.20 47.71 C 83.50 49.68 84.56 51.93 84.39 54.35 C 82.58 52.71 80.77 50.99 78.30 50.43 C 78.25 48.93 78.05 47.33 79.11 46.11 Z" />
<path fill="#571a2b" opacity="1.00" d=" M 84.33 48.57 C 86.24 48.38 88.15 48.27 90.06 48.21 C 89.83 51.35 84.09 53.04 84.33 48.57 Z" />
<path fill="#f5d846" opacity="1.00" d=" M 46.26 54.10 C 47.23 51.92 48.49 49.90 50.03 48.08 C 53.25 49.02 53.90 53.30 51.38 55.34 C 49.70 56.86 47.55 55.38 46.26 54.10 Z" />
<path fill="#ffffd3" opacity="1.00" d=" M 68.93 49.82 C 69.91 49.03 70.71 49.07 71.33 49.93 C 70.33 51.05 69.48 52.59 67.87 52.88 C 67.54 51.68 67.89 50.66 68.93 49.82 Z" />
<path fill="#5d8efc" opacity="1.00" d=" M 71.33 49.93 L 72.11 49.02 C 72.06 49.81 71.95 51.39 71.89 52.19 C 71.85 52.47 71.78 53.03 71.74 53.31 C 69.96 54.80 68.67 54.66 67.87 52.88 C 69.48 52.59 70.33 51.05 71.33 49.93 Z" />
<path fill="#ffffd3" opacity="1.00" d=" M 72.91 52.64 C 73.24 52.18 73.88 51.27 74.21 50.81 C 75.68 51.77 74.25 54.18 72.91 52.64 Z" />
<path fill="#6c3570" opacity="1.00" d=" M 78.52 51.51 C 83.09 51.91 84.14 57.42 85.24 61.05 C 83.52 60.68 81.80 60.35 80.07 60.06 C 81.24 57.55 80.19 55.04 79.05 52.75 L 78.52 51.51 Z" />
<path fill="#b25976" opacity="1.00" d=" M 86.62 53.13 C 87.59 52.68 88.55 52.20 89.51 51.71 C 92.64 52.22 95.89 52.46 98.82 53.79 C 94.30 54.01 89.11 54.90 86.63 59.18 C 86.48 60.81 86.05 62.87 87.86 63.77 C 87.24 63.63 86.01 63.34 85.39 63.20 C 85.92 60.20 86.41 57.08 84.46 54.45 C 85.03 54.78 86.15 55.43 86.72 55.76 C 86.69 55.10 86.64 53.79 86.62 53.13 Z" />
<path fill="#f4d748" opacity="1.00" d=" M 74.98 55.03 C 76.11 53.88 77.37 52.88 78.72 51.99 C 78.54 54.75 78.27 57.50 78.04 60.26 C 75.92 60.17 73.79 60.25 71.67 60.30 C 72.97 58.88 75.01 57.67 74.91 55.46 L 74.98 55.03 Z" />
<path fill="#aa5567" opacity="1.00" d=" M 78.72 51.99 L 79.05 52.75 C 80.19 55.04 81.24 57.55 80.07 60.06 C 79.56 60.11 78.55 60.21 78.04 60.26 C 78.27 57.50 78.54 54.75 78.72 51.99 Z" />
<path fill="#d98e61" opacity="1.00" d=" M 86.63 59.18 C 89.11 54.90 94.30 54.01 98.82 53.79 C 100.17 55.05 101.50 56.33 102.87 57.57 L 102.39 57.83 C 97.24 58.99 91.90 60.48 86.63 59.18 Z" />
<path fill="#913334" opacity="1.00" d=" M 68.16 54.92 L 68.62 55.78 C 67.77 59.19 66.17 62.43 66.11 66.02 C 66.36 69.03 63.73 70.71 61.77 72.47 C 60.50 70.28 58.52 71.04 56.67 72.00 C 56.95 71.49 57.51 70.48 57.78 69.97 C 58.38 69.85 59.58 69.61 60.18 69.49 C 59.92 69.29 59.39 68.89 59.12 68.69 C 59.99 68.14 60.84 67.55 61.66 66.93 L 61.89 66.71 C 62.38 66.21 63.36 65.22 63.84 64.73 C 65.45 63.52 63.71 61.27 62.02 61.61 C 62.30 61.41 62.85 61.00 63.13 60.79 C 65.26 59.26 66.89 57.19 68.16 54.92 Z" />
<path fill="#e9a888" opacity="1.00" d=" M 107.14 55.39 C 108.42 55.14 109.71 54.91 111.00 54.70 L 111.00 59.62 C 109.34 61.30 107.36 62.60 105.23 63.60 C 104.27 61.68 103.29 59.78 102.39 57.83 L 102.87 57.57 C 104.26 56.78 105.65 55.99 107.14 55.39 Z" />
<path fill="#7d3ea5" opacity="1.00" d=" M 14.45 59.91 C 19.96 59.38 25.27 57.79 30.41 55.77 C 29.87 57.03 29.80 58.71 28.44 59.42 C 23.30 62.94 16.88 63.15 10.96 64.28 C 12.26 62.93 13.43 61.48 14.45 59.91 Z" />
<path fill="#ffffd3" opacity="1.00" d=" M 68.39 60.27 C 70.40 58.45 72.67 56.96 74.91 55.46 C 75.01 57.67 72.97 58.88 71.67 60.30 C 70.58 60.32 69.48 60.30 68.39 60.27 Z" />
<path fill="#f1ca70" opacity="1.00" d=" M 86.63 59.18 C 91.90 60.48 97.24 58.99 102.39 57.83 C 103.29 59.78 104.27 61.68 105.23 63.60 C 99.67 65.73 93.55 64.91 87.86 63.77 C 86.05 62.87 86.48 60.81 86.63 59.18 Z" />
<path fill="#a44187" opacity="1.00" d=" M 2.88 61.21 C 6.73 60.73 10.58 60.23 14.45 59.91 C 13.43 61.48 12.26 62.93 10.96 64.28 C 9.75 64.38 8.55 64.48 7.34 64.57 C 6.26 62.96 4.71 61.82 2.88 61.21 Z" />
<path fill="#9d8c37" opacity="1.00" d=" M 68.28 60.26 L 68.39 60.27 C 69.48 60.30 70.58 60.32 71.67 60.30 C 73.79 60.25 75.92 60.17 78.04 60.26 L 77.50 61.13 C 76.88 61.16 75.63 61.23 75.01 61.26 C 73.74 60.57 72.61 60.71 71.62 61.68 C 70.41 62.03 69.19 62.38 68.03 62.87 C 68.09 62.22 68.22 60.91 68.28 60.26 Z" />
<path fill="#c34479" opacity="1.00" d=" M 0.00 61.49 C 0.72 61.42 2.16 61.28 2.88 61.21 C 4.71 61.82 6.26 62.96 7.34 64.57 C 4.88 64.79 2.43 65.11 0.00 65.58 L 0.00 61.49 Z" />
<path fill="#e8e2c0" opacity="1.00" d=" M 71.62 61.68 C 72.61 60.71 73.74 60.57 75.01 61.26 C 73.99 62.31 72.86 62.45 71.62 61.68 Z" />
<path fill="#f5d846" opacity="1.00" d=" M 75.01 61.26 C 75.63 61.23 76.88 61.16 77.50 61.13 C 78.95 61.16 80.40 61.22 81.85 61.29 C 82.17 61.67 82.81 62.43 83.13 62.81 L 82.49 62.37 C 80.73 61.60 78.85 61.73 77.19 62.73 C 77.26 63.50 77.41 65.05 77.49 65.83 C 74.56 63.59 70.77 64.74 67.39 64.68 L 68.03 62.87 C 69.19 62.38 70.41 62.03 71.62 61.68 C 72.86 62.45 73.99 62.31 75.01 61.26 Z" />
<path fill="#ffff76" opacity="1.00" d=" M 59.67 63.06 C 60.26 62.70 61.44 61.97 62.02 61.61 L 62.09 62.13 C 62.02 63.80 59.27 66.19 59.67 63.06 Z" />
<path fill="#000000" opacity="1.00" d=" M 62.02 61.61 C 63.71 61.27 65.45 63.52 63.84 64.73 C 63.40 64.08 62.53 62.78 62.09 62.13 L 62.02 61.61 Z" />
<path fill="#793171" opacity="1.00" d=" M 77.19 62.73 C 78.85 61.73 80.73 61.60 82.49 62.37 C 81.59 64.58 80.63 66.77 79.84 69.02 C 79.01 68.00 77.96 67.09 77.49 65.83 C 77.41 65.05 77.26 63.50 77.19 62.73 Z" />
<path fill="#ffffa4" opacity="1.00" d=" M 107.31 68.22 C 108.49 66.04 109.80 63.93 111.00 61.75 L 111.00 67.06 C 109.77 67.47 108.54 67.86 107.31 68.22 Z" />
<path fill="#503023" opacity="1.00" d=" M 61.66 66.93 C 59.42 68.33 56.18 65.18 58.64 63.49 C 59.31 64.94 60.44 66.03 61.89 66.71 L 61.66 66.93 Z" />
<path fill="#5d8efc" opacity="1.00" d=" M 58.64 63.49 L 59.67 63.06 C 59.27 66.19 62.02 63.80 62.09 62.13 C 62.53 62.78 63.40 64.08 63.84 64.73 C 63.36 65.22 62.38 66.21 61.89 66.71 C 60.44 66.03 59.31 64.94 58.64 63.49 Z" />
<path fill="#e58a77" opacity="1.00" d=" M 82.49 62.37 L 83.13 62.81 C 84.36 64.32 82.60 66.50 82.18 68.15 C 82.24 69.47 79.88 71.27 79.84 69.02 C 80.63 66.77 81.59 64.58 82.49 62.37 Z" />
<path fill="#de4765" opacity="1.00" d=" M 32.21 64.85 C 33.18 66.02 34.15 67.20 35.08 68.40 C 32.70 70.33 30.63 72.60 28.56 74.85 C 28.22 75.22 27.52 75.97 27.17 76.34 C 26.62 75.95 25.53 75.17 24.98 74.77 C 27.13 71.28 29.67 68.06 32.21 64.85 Z" />
<path fill="#8d3f99" opacity="1.00" d=" M 66.97 67.99 C 67.02 66.71 67.56 65.67 68.64 64.99 L 69.16 65.74 C 69.87 67.28 71.72 66.62 72.83 65.99 C 74.18 65.56 75.42 65.94 76.56 67.14 C 74.55 69.56 73.95 72.66 73.15 75.61 C 72.19 73.89 71.23 72.16 70.27 70.44 C 70.45 70.06 70.81 69.30 70.99 68.92 C 69.65 68.60 68.31 68.29 66.97 67.99 Z" />
<path fill="#e89d8f" opacity="1.00" d=" M 95.42 67.48 C 99.32 66.88 103.22 66.18 107.08 65.32 C 105.54 68.54 103.98 71.77 101.88 74.67 C 102.15 73.18 102.39 71.69 102.63 70.20 C 100.25 70.69 97.86 71.12 95.46 71.52 C 95.44 70.17 95.43 68.83 95.42 67.48 Z" />
<path fill="#e9a888" opacity="1.00" d=" M 69.16 65.74 C 70.42 64.76 71.65 64.85 72.83 65.99 C 71.72 66.62 69.87 67.28 69.16 65.74 Z" />
<path fill="#472c67" opacity="1.00" d=" M 89.25 66.14 C 90.77 66.21 92.29 66.28 93.80 66.35 C 93.10 67.88 92.41 69.42 91.92 71.02 C 91.78 71.60 91.49 72.76 91.35 73.35 L 90.46 72.63 C 90.08 72.28 89.31 71.56 88.92 71.20 C 89.08 69.51 89.17 67.82 89.25 66.14 Z" />
<path fill="#39225c" opacity="1.00" d=" M 76.56 67.14 L 76.73 66.88 C 78.86 69.35 81.98 72.73 78.73 75.68 C 74.73 77.56 73.53 82.46 69.60 84.25 C 70.15 82.69 70.62 81.10 71.16 79.54 C 71.86 78.25 72.56 76.96 73.15 75.61 C 73.95 72.66 74.55 69.56 76.56 67.14 Z" />
<path fill="#ffffd3" opacity="1.00" d=" M 107.31 68.22 C 108.54 67.86 109.77 67.47 111.00 67.06 L 111.00 71.23 C 107.74 74.21 104.31 76.98 100.97 79.87 C 103.01 75.95 105.14 72.08 107.31 68.22 Z" />
<path fill="#7a43a4" opacity="1.00" d=" M 28.56 74.85 C 30.63 72.60 32.70 70.33 35.08 68.40 C 34.38 70.75 33.74 73.11 33.22 75.50 C 32.48 76.00 31.76 76.51 31.05 77.04 C 30.22 76.31 29.39 75.58 28.56 74.85 Z" />
<path fill="#4f2c78" opacity="1.00" d=" M 35.08 68.40 C 36.19 69.85 37.25 71.34 38.30 72.83 C 36.60 73.70 34.88 74.55 33.22 75.50 C 33.74 73.11 34.38 70.75 35.08 68.40 Z" />
<path fill="#db4667" opacity="1.00" d=" M 67.31 69.02 C 68.51 69.11 69.50 69.58 70.27 70.44 C 71.23 72.16 72.19 73.89 73.15 75.61 C 72.56 76.96 71.86 78.25 71.16 79.54 C 67.42 83.58 63.75 87.71 59.38 91.10 C 58.34 89.26 57.28 87.43 56.22 85.62 C 60.14 80.23 63.52 74.49 67.31 69.02 Z" />
<path fill="#ffffd3" opacity="1.00" d=" M 53.05 72.53 C 54.60 71.62 56.11 70.65 57.78 69.97 C 57.51 70.48 56.95 71.49 56.67 72.00 C 56.08 72.19 54.90 72.58 54.31 72.78 L 54.36 75.07 C 55.90 74.43 57.43 73.78 58.99 73.19 C 57.47 74.26 55.97 75.48 54.05 75.69 C 54.41 76.34 54.83 76.98 55.46 77.40 C 55.38 77.58 55.20 77.94 55.11 78.12 C 54.73 78.30 53.96 78.66 53.58 78.84 C 53.40 76.74 53.17 74.64 53.05 72.53 Z" />
<path fill="#ffff76" opacity="1.00" d=" M 95.46 71.52 C 97.86 71.12 100.25 70.69 102.63 70.20 C 102.39 71.69 102.15 73.18 101.88 74.67 C 101.26 76.69 100.05 78.46 98.97 80.26 C 97.37 77.53 96.27 74.56 95.46 71.52 Z" />
<path fill="#6b3c86" opacity="1.00" d=" M 88.92 71.20 C 89.31 71.56 90.08 72.28 90.46 72.63 C 90.12 73.21 89.42 74.36 89.07 74.94 C 88.69 73.72 88.64 72.47 88.92 71.20 Z" />
<path fill="#e89d8f" opacity="1.00" d=" M 47.94 72.07 C 49.32 72.69 50.71 72.69 52.12 72.08 C 52.17 74.12 52.11 76.17 51.75 78.20 C 49.57 77.21 50.88 72.79 47.96 73.49 L 47.94 72.07 Z" />
<path fill="#ffffd3" opacity="1.00" d=" M 43.36 73.39 C 44.61 74.08 44.80 74.98 43.93 76.07 L 43.28 76.39 C 43.30 75.64 43.34 74.14 43.36 73.39 Z" />
<path fill="#ffffd3" opacity="1.00" d=" M 46.04 72.81 C 48.15 74.13 48.39 76.95 47.69 79.13 C 46.31 77.30 46.03 75.04 46.04 72.81 Z" />
<path fill="#ffff7d" opacity="1.00" d=" M 100.09 82.88 C 103.60 79.59 107.39 76.62 111.00 73.44 L 111.00 80.17 C 109.46 80.80 109.46 81.43 111.00 82.06 L 111.00 85.64 C 107.14 85.94 103.35 84.95 100.09 82.88 Z" />
<path fill="#ebbf89" opacity="1.00" d=" M 24.98 74.77 C 25.53 75.17 26.62 75.95 27.17 76.34 C 26.29 77.56 25.57 78.89 24.89 80.23 C 23.37 81.00 21.88 81.83 20.34 82.57 C 21.74 79.88 23.34 77.32 24.98 74.77 Z" />
<path fill="#bd79b3" opacity="1.00" d=" M 27.17 76.34 C 27.52 75.97 28.22 75.22 28.56 74.85 C 29.39 75.58 30.22 76.31 31.05 77.04 C 29.57 78.15 28.13 79.30 26.66 80.42 L 24.89 80.23 C 25.57 78.89 26.29 77.56 27.17 76.34 Z" />
<path fill="#ffffd3" opacity="1.00" d=" M 20.34 82.57 C 21.88 81.83 23.37 81.00 24.89 80.23 L 26.66 80.42 C 23.82 83.20 20.49 85.66 18.53 89.19 C 18.41 89.39 18.18 89.80 18.07 90.01 C 17.71 89.83 17.01 89.46 16.66 89.27 C 17.90 87.04 19.06 84.77 20.34 82.57 Z" />
<path fill="#726456" opacity="0.98" d=" M 50.35 80.08 C 50.85 80.69 50.85 80.69 50.35 80.08 Z" />
<path fill="#9e5b9e" opacity="1.00" d=" M 59.38 91.10 C 63.75 87.71 67.42 83.58 71.16 79.54 C 70.62 81.10 70.15 82.69 69.60 84.25 C 66.12 89.02 61.69 93.01 56.65 96.09 C 56.29 95.59 55.58 94.59 55.22 94.09 C 55.57 93.88 56.27 93.46 56.62 93.25 C 57.57 92.57 58.48 91.83 59.38 91.10 Z" />
<path fill="#c4c368" opacity="1.00" d=" M 111.00 82.06 C 109.46 81.43 109.46 80.80 111.00 80.17 L 111.00 82.06 Z" />
<path fill="#e58a77" opacity="1.00" d=" M 56.22 85.62 C 57.28 87.43 58.34 89.26 59.38 91.10 C 58.48 91.83 57.57 92.57 56.62 93.25 C 55.37 92.08 54.11 90.91 52.86 89.75 C 53.96 88.35 55.09 86.98 56.22 85.62 Z" />
<path fill="#462d61" opacity="1.00" d=" M 103.08 86.70 C 104.40 87.08 105.72 87.47 107.04 87.85 C 106.27 91.18 104.32 93.92 101.18 95.37 C 101.29 93.43 101.39 91.49 101.55 89.55 C 101.66 89.09 101.89 88.18 102.01 87.72 C 102.28 87.47 102.82 86.96 103.08 86.70 Z" />
<path fill="#eec04f" opacity="1.00" d=" M 108.04 88.49 C 108.78 88.48 110.26 88.45 111.00 88.44 L 111.00 97.17 C 108.30 95.93 108.50 100.23 111.00 100.09 L 111.00 107.23 C 110.47 107.23 109.40 107.23 108.86 107.22 C 105.82 101.46 106.33 94.58 108.04 88.49 Z" />
<path fill="#f2ce8a" opacity="1.00" d=" M 52.86 89.75 C 54.11 90.91 55.37 92.08 56.62 93.25 C 56.27 93.46 55.57 93.88 55.22 94.09 C 53.53 95.01 51.79 95.85 50.06 96.70 C 49.52 96.44 48.45 95.93 47.91 95.67 C 49.51 93.65 51.21 91.71 52.86 89.75 Z" />
<path fill="#7d3ea5" opacity="1.00" d=" M 96.61 98.27 C 97.65 95.05 99.56 92.25 101.55 89.55 C 101.39 91.49 101.29 93.43 101.18 95.37 C 99.67 96.35 98.15 97.33 96.61 98.27 Z" />
<path fill="#ffffa4" opacity="1.00" d=" M 50.06 96.70 C 51.79 95.85 53.53 95.01 55.22 94.09 C 55.58 94.59 56.29 95.59 56.65 96.09 C 50.99 98.88 45.87 103.04 39.60 104.38 C 42.41 101.52 45.45 98.87 47.91 95.67 C 48.45 95.93 49.52 96.44 50.06 96.70 Z" />
<path fill="#fbf263" opacity="1.00" d=" M 111.00 100.09 C 108.50 100.23 108.30 95.93 111.00 97.17 L 111.00 100.09 Z" />
<path fill="#4d1929" opacity="1.00" d=" M 104.46 103.59 L 105.36 103.46 C 108.08 106.33 102.57 106.87 104.46 103.59 Z" />
<path fill="#7e2d3a" opacity="1.00" d=" M 80.91 107.09 C 87.98 104.63 95.83 104.51 103.03 106.45 C 102.30 109.22 98.89 107.06 97.03 106.90 C 91.62 107.00 86.35 108.47 80.98 108.93 L 80.35 108.04 L 80.91 107.09 Z" />
<path fill="#c8703b" opacity="1.00" d=" M 58.50 109.27 C 62.52 107.27 67.07 106.64 71.52 106.85 C 71.47 107.66 71.39 108.47 71.29 109.28 C 67.07 110.02 62.74 109.77 58.50 109.27 Z" />
<path fill="#6d2335" opacity="1.00" d=" M 71.52 106.85 C 74.18 107.44 76.76 108.31 79.32 109.21 C 78.44 109.82 77.56 110.42 76.66 111.00 L 55.45 111.00 C 56.47 110.43 57.47 109.82 58.50 109.27 C 62.74 109.77 67.07 110.02 71.29 109.28 C 71.39 108.47 71.47 107.66 71.52 106.85 Z" />
<path fill="#937459" opacity="1.00" d=" M 108.86 107.22 C 109.40 107.23 110.47 107.23 111.00 107.23 L 111.00 111.00 L 110.49 111.00 C 109.54 109.96 109.05 108.60 108.86 107.22 Z" />
<path fill="#7e2d3a" opacity="1.00" d=" M 87.63 109.34 C 91.44 108.70 95.35 107.86 99.21 108.75 C 98.38 109.52 97.54 110.27 96.68 111.00 L 92.60 111.00 C 90.97 110.38 89.33 109.76 87.63 109.34 Z" />
<path fill="#662236" opacity="1.00" d=" M 99.20 111.00 C 101.65 109.32 104.35 108.01 107.33 107.63 C 106.54 108.77 105.74 109.91 104.89 111.00 L 99.20 111.00 Z" />
<path fill="#c8703b" opacity="1.00" d=" M 80.21 111.00 C 82.64 110.29 85.11 109.67 87.63 109.34 C 89.33 109.76 90.97 110.38 92.60 111.00 L 80.21 111.00 Z" />
<path fill="#9b344d" opacity="1.00" d=" M 107.14 111.00 C 107.29 110.89 107.58 110.66 107.73 110.54 L 107.62 111.00 L 107.14 111.00 Z" />
</svg>
