<?xml version="1.0" encoding="UTF-8" ?>
<!DOCTYPE svg PUBLIC "-//W3C//DTD SVG 1.1//EN" "http://www.w3.org/Graphics/SVG/1.1/DTD/svg11.dtd">
<svg width="111pt" height="111pt" viewBox="0 0 111 111" version="1.1" xmlns="http://www.w3.org/2000/svg">
<path fill="#000000" opacity="1.00" d=" M 23.74 0.00 L 25.17 0.00 C 30.42 11.19 35.38 22.51 40.06 33.95 C 41.27 36.19 40.01 38.61 39.90 40.94 C 39.86 43.58 40.27 46.20 40.63 48.80 C 45.05 37.62 51.58 27.36 59.49 18.32 C 59.96 23.24 60.34 28.17 60.33 33.11 C 61.34 32.52 62.34 31.92 63.34 31.31 C 65.52 20.63 68.27 9.97 72.74 0.00 L 74.50 0.00 C 70.80 7.57 68.60 15.76 66.43 23.87 C 64.09 32.62 62.85 41.61 61.43 50.54 C 63.32 49.91 65.28 49.11 66.30 47.28 C 71.17 40.02 76.22 32.84 80.24 25.06 C 84.46 16.89 88.20 8.50 91.68 0.00 L 93.85 0.00 C 88.75 12.44 83.35 24.87 75.90 36.12 C 78.50 36.52 80.94 37.57 82.50 39.77 C 82.43 40.67 82.30 42.46 82.24 43.36 C 89.85 30.81 99.16 19.04 111.00 10.22 L 111.00 12.28 C 107.17 15.40 103.47 18.68 100.21 22.40 C 94.52 27.72 90.12 34.20 85.87 40.68 C 83.38 44.31 81.41 48.25 79.42 52.17 C 80.32 53.47 81.22 54.77 82.12 56.07 C 83.42 54.27 85.95 52.73 85.65 50.23 C 85.54 48.14 85.29 46.07 85.15 43.99 C 85.42 44.23 85.95 44.73 86.21 44.98 C 86.20 48.04 87.75 51.73 85.02 54.09 C 82.24 57.79 76.11 60.07 77.30 65.64 C 77.68 65.83 78.46 66.21 78.85 66.40 C 79.50 64.82 79.78 62.53 82.09 63.04 C 81.72 64.83 80.79 66.41 79.71 67.86 C 78.75 67.70 77.79 67.53 76.83 67.36 C 77.80 70.24 78.87 73.10 80.26 75.80 C 82.15 72.91 81.45 69.34 81.96 66.09 C 85.75 64.46 88.83 61.67 91.52 58.60 C 91.64 55.33 90.96 52.14 90.11 49.01 C 88.88 45.37 91.46 42.12 93.06 39.08 C 95.99 34.46 98.14 29.17 102.32 25.48 C 99.59 31.42 95.36 36.95 95.07 43.72 C 96.51 43.99 97.95 44.24 99.40 44.49 C 98.70 48.33 95.79 51.07 93.37 53.90 C 93.33 56.11 94.38 58.72 92.73 60.59 C 91.45 62.27 89.80 63.61 88.24 65.02 C 94.15 62.48 100.69 62.33 107.01 62.19 C 108.63 62.16 109.91 61.11 111.00 60.04 L 111.00 62.49 L 110.33 62.36 C 110.50 62.55 110.83 62.92 111.00 63.11 L 111.00 65.30 C 107.40 64.94 103.77 64.65 100.17 65.15 C 99.84 65.61 99.20 66.52 98.88 66.97 C 98.07 71.75 104.39 74.04 104.45 78.70 C 104.28 80.48 103.02 81.89 102.00 83.28 C 99.56 85.87 96.87 88.21 94.07 90.40 C 91.11 92.80 87.68 94.53 84.04 95.62 C 85.02 96.30 85.99 96.98 86.96 97.67 C 89.13 95.78 91.51 94.09 94.23 93.08 C 96.43 92.29 98.67 91.61 100.94 91.03 C 104.83 89.70 108.57 91.92 111.00 94.84 L 111.00 99.45 C 109.19 97.38 107.39 95.18 104.99 93.76 C 101.69 93.50 98.30 94.51 95.27 95.77 C 92.68 96.78 89.85 97.49 87.71 99.34 C 86.49 100.31 85.15 101.11 83.81 101.90 C 82.94 102.49 82.08 103.10 81.24 103.74 C 82.06 106.08 84.82 108.40 83.42 111.00 L 80.23 111.00 C 80.68 110.52 81.59 109.55 82.04 109.06 C 81.09 107.35 80.18 105.62 79.27 103.90 C 76.27 105.64 74.04 108.30 71.95 111.00 L 69.90 111.00 C 71.42 108.98 72.85 106.89 74.64 105.09 C 77.99 102.60 81.83 100.85 85.08 98.21 C 79.33 94.96 72.53 94.24 66.04 94.14 L 65.57 94.16 C 60.36 94.05 56.21 97.51 52.52 100.72 C 51.58 101.62 51.29 102.95 50.80 104.10 C 49.99 106.33 49.67 108.69 49.20 111.00 L 47.24 111.00 C 47.89 106.92 49.22 103.00 50.61 99.12 C 41.17 94.14 31.20 90.26 21.08 86.92 C 15.46 85.16 9.56 83.65 3.65 84.63 C 3.64 85.16 3.62 86.24 3.62 86.77 C 7.16 93.59 12.56 99.23 17.71 104.85 C 19.66 106.94 21.58 109.06 23.68 111.00 L 21.17 111.00 C 14.99 106.16 10.06 99.93 5.29 93.76 C 3.57 91.13 1.10 88.47 1.27 85.12 C 1.54 82.94 4.03 82.10 5.93 82.15 C 14.99 82.19 23.61 85.50 31.94 88.76 C 30.45 85.31 28.87 81.27 25.12 79.72 C 20.56 77.47 17.86 72.96 14.77 69.13 C 10.82 64.27 6.59 59.60 3.36 54.20 C 3.12 51.85 2.18 49.38 0.00 48.18 L 0.00 44.48 C 4.86 45.32 9.57 46.87 14.10 48.77 C 9.64 39.82 4.11 31.33 0.74 21.87 C 4.08 24.04 7.07 26.69 10.00 29.37 C 6.63 21.77 3.82 13.86 2.34 5.66 C 4.18 7.35 4.66 9.87 5.45 12.12 C 7.31 18.14 9.73 23.96 12.11 29.79 C 13.44 33.73 17.56 35.51 20.29 38.35 C 24.89 42.47 29.32 46.77 33.49 51.33 C 30.91 45.11 28.76 38.71 26.22 32.47 C 25.55 31.50 24.84 30.56 24.15 29.60 C 25.28 26.73 23.57 23.91 23.22 21.06 C 21.75 14.09 22.65 6.95 23.74 0.00 M 25.57 3.70 C 24.56 9.44 23.97 15.35 25.14 21.13 C 26.59 28.15 29.16 34.88 31.84 41.51 C 33.73 46.53 35.49 51.68 38.54 56.14 C 42.12 51.37 37.91 45.79 38.36 40.53 C 40.09 35.04 36.55 30.18 34.80 25.22 C 32.02 17.91 27.62 11.29 25.57 3.70 M 50.90 34.04 L 51.05 34.53 C 48.17 39.96 44.33 45.16 43.14 51.38 C 41.68 52.18 42.09 54.08 41.67 55.43 C 40.98 59.22 40.12 63.09 40.84 66.95 C 41.71 74.40 47.11 81.12 54.24 83.47 L 54.20 83.65 C 55.54 83.97 56.89 84.29 58.25 84.61 L 57.72 85.22 C 51.44 86.85 47.30 79.16 40.99 80.76 C 41.60 81.56 42.34 82.14 43.22 82.52 L 43.42 83.60 C 46.62 87.20 50.43 90.23 54.39 92.95 C 55.43 91.64 56.41 90.29 57.30 88.87 C 59.49 86.17 62.18 83.94 65.06 82.01 C 63.77 81.44 62.49 80.87 61.20 80.30 L 60.31 81.60 C 61.55 78.26 62.83 74.93 63.11 71.33 C 61.24 72.79 59.17 73.99 56.72 73.60 C 56.05 71.69 54.20 70.29 53.61 68.28 C 52.69 65.06 53.23 61.66 53.80 58.42 C 55.11 56.47 56.55 54.60 57.82 52.63 C 59.70 53.84 62.03 54.64 63.25 56.64 C 65.43 59.93 64.82 64.08 65.57 67.80 L 64.22 68.26 C 63.92 68.84 63.30 70.02 63.00 70.60 C 64.05 70.59 66.17 70.57 67.22 70.56 C 68.55 69.36 70.71 68.48 70.52 66.29 C 70.75 66.21 71.21 66.06 71.44 65.99 C 70.71 65.88 69.25 65.65 68.52 65.54 C 70.10 64.72 71.81 64.28 73.57 64.13 C 72.97 62.34 73.42 60.56 74.03 58.84 C 71.98 61.07 69.74 63.13 67.16 64.73 C 67.24 62.47 69.49 61.37 70.88 59.93 C 76.09 55.41 80.56 48.87 80.42 41.76 C 74.62 44.29 69.20 47.57 63.92 51.02 C 62.56 52.12 60.76 51.91 59.13 51.97 C 58.94 50.94 58.74 49.90 58.54 48.87 C 58.95 40.26 57.95 31.66 58.51 23.05 C 55.16 25.91 53.69 30.57 50.90 34.04 M 4.89 26.96 C 6.32 29.05 7.09 31.69 9.25 33.20 L 9.11 34.44 C 12.10 41.35 16.50 47.55 19.92 54.23 C 21.92 58.01 24.88 61.14 27.40 64.57 C 29.44 67.31 29.93 71.07 32.65 73.32 C 34.46 74.93 36.19 76.62 37.75 78.47 C 39.75 78.74 41.78 78.96 43.78 78.58 C 38.65 73.03 37.81 65.19 38.60 57.99 C 36.06 54.79 33.02 52.07 29.96 49.39 L 29.80 49.48 C 26.71 46.57 23.74 43.45 20.42 40.84 C 15.13 36.34 9.63 32.03 4.89 26.96 M 61.33 34.51 C 60.62 35.56 60.41 36.74 60.69 38.08 C 60.60 38.47 60.96 41.68 61.59 40.04 C 61.46 38.46 63.46 35.00 61.33 34.51 M 69.49 45.34 C 72.87 43.71 76.89 42.44 78.79 38.92 C 77.53 38.41 76.27 37.89 75.01 37.38 C 73.05 39.95 70.95 42.43 69.49 45.34 M 92.45 52.03 C 94.92 50.95 95.84 48.08 97.23 45.96 C 96.23 45.58 95.24 45.19 94.24 44.81 C 93.94 44.12 93.35 42.74 93.05 42.05 C 90.34 44.49 91.57 48.90 92.45 52.03 M 2.16 47.39 C 5.01 52.59 7.79 57.93 11.98 62.19 C 14.91 63.97 18.01 65.48 21.15 66.86 C 20.79 67.45 20.08 68.62 19.73 69.20 C 18.26 68.06 16.78 66.93 15.19 65.96 C 18.03 70.17 21.11 74.58 25.41 77.41 C 30.36 79.25 32.84 84.43 33.64 89.33 C 36.44 90.69 39.32 91.85 42.18 93.07 C 40.92 89.04 39.75 84.94 39.49 80.71 C 37.37 80.49 35.81 79.13 34.56 77.50 C 33.10 75.50 30.53 75.06 28.41 74.05 L 28.16 73.22 C 31.11 74.26 29.47 70.68 27.55 70.83 L 28.19 70.39 C 25.25 63.48 19.05 58.62 15.95 51.76 C 11.54 49.77 6.81 48.65 2.16 47.39 M 78.40 53.98 C 77.39 56.30 73.12 58.53 75.74 61.04 C 77.28 59.72 78.93 58.49 80.23 56.91 C 81.77 55.48 79.50 54.44 78.40 53.98 M 56.94 54.75 L 57.20 55.28 C 54.57 58.84 53.88 63.60 54.90 67.86 C 55.83 70.03 57.33 73.13 60.23 72.23 L 60.23 71.53 C 63.16 67.93 64.67 62.60 62.63 58.22 C 61.70 56.03 59.36 54.41 56.94 54.75 M 83.71 67.88 C 84.12 72.32 81.92 76.23 80.14 80.11 C 78.88 82.08 81.29 83.62 82.16 85.12 C 84.97 79.88 86.83 74.11 87.52 68.20 C 87.32 67.68 86.91 66.65 86.71 66.13 C 85.51 66.33 84.59 67.12 83.71 67.88 M 88.91 68.97 C 88.34 74.92 85.26 80.12 83.40 85.69 C 86.21 83.62 87.81 80.42 89.71 77.59 C 91.70 74.11 94.15 70.08 93.16 65.94 C 90.98 64.32 88.78 66.79 88.91 68.97 M 94.44 65.75 C 95.46 69.82 93.40 73.63 92.24 77.42 C 88.40 83.16 84.10 88.66 78.86 93.20 C 81.21 93.29 83.55 93.56 85.90 93.54 C 89.40 92.14 92.30 89.64 95.27 87.38 C 98.06 84.89 101.46 82.48 102.78 78.87 C 102.66 73.75 94.60 71.01 97.84 65.22 C 96.99 65.35 95.29 65.61 94.44 65.75 M 70.89 70.55 L 70.14 70.34 C 66.93 72.11 66.80 76.31 69.07 78.92 C 69.92 80.28 70.08 82.75 72.22 82.61 C 71.90 80.85 71.58 79.09 71.16 77.36 C 71.69 77.32 72.76 77.26 73.30 77.23 C 73.15 78.99 73.24 80.75 73.50 82.49 C 74.33 82.37 75.99 82.12 76.82 82.00 L 77.66 82.54 C 78.24 80.11 79.86 77.90 79.72 75.33 C 77.97 75.40 76.23 75.56 74.48 75.66 C 76.12 75.09 77.22 74.04 77.79 72.50 C 77.23 72.18 76.11 71.55 75.55 71.24 L 76.78 70.02 C 75.98 68.81 74.06 67.91 74.64 66.15 C 71.46 65.30 71.51 68.42 70.89 70.55 M 64.04 73.71 L 63.01 73.75 C 63.31 74.89 63.65 76.07 63.49 77.27 C 63.12 77.85 62.39 79.02 62.02 79.61 C 62.90 79.90 64.65 80.47 65.52 80.75 L 65.38 81.02 C 65.74 81.52 66.45 82.53 66.81 83.03 C 67.33 82.52 68.36 81.50 68.88 80.98 C 67.71 78.51 65.02 76.44 65.98 73.41 C 66.12 73.00 66.39 72.16 66.53 71.74 C 65.51 69.71 63.66 72.37 64.04 73.71 M 64.72 86.32 C 67.28 87.11 70.65 85.65 71.08 82.83 C 68.77 83.04 65.69 84.02 64.72 86.32 M 72.75 83.76 C 72.56 85.47 72.28 87.18 72.12 88.90 C 70.89 89.36 69.97 90.13 69.33 91.23 C 72.16 91.73 74.98 92.32 77.84 92.66 C 79.61 91.67 80.48 89.48 81.81 87.97 C 80.78 86.74 79.81 85.45 78.65 84.35 C 76.80 83.49 74.71 83.79 72.75 83.76 M 40.86 82.87 C 42.11 86.44 42.37 90.41 44.11 93.78 C 46.55 95.65 49.46 96.81 52.03 98.48 C 52.46 96.91 54.18 95.21 53.62 93.64 C 48.75 90.84 44.65 86.97 40.86 82.87 M 56.33 95.47 C 59.51 93.05 63.85 92.65 66.80 90.04 L 64.78 90.81 C 64.53 88.97 64.38 87.12 64.32 85.26 C 60.92 87.95 57.53 91.16 56.33 95.47 M 64.96 87.60 C 65.42 88.21 66.34 89.43 66.80 90.04 C 68.59 91.94 69.61 87.36 70.91 87.07 C 69.42 87.20 66.44 87.47 64.96 87.60 Z" />
<path fill="#42445d" opacity="1.00" d=" M 74.50 0.00 L 88.33 0.00 C 86.20 6.23 82.05 11.42 79.26 17.33 C 76.85 22.16 73.80 26.64 70.51 30.91 C 67.08 30.40 66.89 26.60 66.43 23.87 C 68.60 15.76 70.80 7.57 74.50 0.00 Z" />
<path fill="#2b2549" opacity="1.00" d=" M 88.33 0.00 L 91.68 0.00 C 88.20 8.50 84.46 16.89 80.24 25.06 C 76.22 32.84 71.17 40.02 66.30 47.28 C 65.28 49.11 63.32 49.91 61.43 50.54 C 62.85 41.61 64.09 32.62 66.43 23.87 C 66.89 26.60 67.08 30.40 70.51 30.91 C 73.80 26.64 76.85 22.16 79.26 17.33 C 82.05 11.42 86.20 6.23 88.33 0.00 Z" />
<path fill="#000000" opacity="1.00" d=" M 2.30 5.46 C 2.17 4.30 2.03 3.03 2.66 1.96 C 10.40 9.83 17.19 18.59 23.62 27.54 L 23.84 29.20 C 16.67 21.80 10.85 13.20 3.89 5.62 C 3.49 5.58 2.70 5.50 2.30 5.46 Z" />
<path fill="#3e3e5b" opacity="1.00" d=" M 25.57 3.70 C 27.62 11.29 32.02 17.91 34.80 25.22 C 36.55 30.18 40.09 35.04 38.36 40.53 C 36.18 40.81 34.01 41.15 31.84 41.51 C 29.16 34.88 26.59 28.15 25.14 21.13 C 23.97 15.35 24.56 9.44 25.57 3.70 Z" />
<path fill="#6f7794" opacity="1.00" d=" M 2.30 5.46 C 2.70 5.50 3.49 5.58 3.89 5.62 C 10.85 13.20 16.67 21.80 23.84 29.20 C 23.92 29.30 24.07 29.50 24.15 29.60 C 24.84 30.56 25.55 31.50 26.22 32.47 C 24.16 34.35 22.19 36.32 20.29 38.35 C 17.56 35.51 13.44 33.73 12.11 29.79 C 9.73 23.96 7.31 18.14 5.45 12.12 C 4.66 9.87 4.18 7.35 2.34 5.66 L 2.30 5.46 Z" />
<path fill="#5c5d74" opacity="1.00" d=" M 100.21 22.40 C 103.47 18.68 107.17 15.40 111.00 12.28 L 111.00 14.31 C 109.60 14.83 108.85 15.80 108.75 17.22 C 108.66 17.28 108.49 17.40 108.41 17.46 C 105.34 18.57 103.43 21.62 100.21 22.40 Z" />
<path fill="#0e0f12" opacity="0.71" d=" M 108.75 17.22 C 108.85 15.80 109.60 14.83 111.00 14.31 L 111.00 15.09 C 110.44 15.62 109.31 16.68 108.75 17.22 Z" />
<path fill="#3a385d" opacity="1.00" d=" M 100.21 22.40 C 103.43 21.62 105.34 18.57 108.41 17.46 C 107.07 19.37 105.75 21.30 104.22 23.06 C 103.84 23.57 103.10 24.58 102.72 25.08 C 102.62 25.18 102.42 25.38 102.32 25.48 C 98.14 29.17 95.99 34.46 93.06 39.08 C 91.46 42.12 88.88 45.37 90.11 49.01 C 90.96 52.14 91.64 55.33 91.52 58.60 C 88.83 61.67 85.75 64.46 81.96 66.09 C 81.45 69.34 82.15 72.91 80.26 75.80 C 78.87 73.10 77.80 70.24 76.83 67.36 C 77.79 67.53 78.75 67.70 79.71 67.86 C 80.79 66.41 81.72 64.83 82.09 63.04 C 79.78 62.53 79.50 64.82 78.85 66.40 C 78.46 66.21 77.68 65.83 77.30 65.64 C 76.11 60.07 82.24 57.79 85.02 54.09 C 87.75 51.73 86.20 48.04 86.21 44.98 C 86.11 43.54 86.00 42.11 85.87 40.68 C 90.12 34.20 94.52 27.72 100.21 22.40 Z" />
<path fill="#060508" opacity="0.65" d=" M 102.72 25.08 C 103.10 24.58 103.84 23.57 104.22 23.06 C 103.84 23.57 103.10 24.58 102.72 25.08 Z" />
<path fill="#2f2b4f" opacity="1.00" d=" M 50.90 34.04 C 53.69 30.57 55.16 25.91 58.51 23.05 C 57.95 31.66 58.95 40.26 58.54 48.87 C 58.35 50.13 58.11 51.38 57.82 52.63 C 56.55 54.60 55.11 56.47 53.80 58.42 C 50.83 53.15 50.98 46.98 49.59 41.25 C 50.36 39.71 51.08 38.13 51.65 36.51 C 51.50 36.01 51.20 35.02 51.05 34.53 L 50.90 34.04 Z" />
<path fill="#ffffff" opacity="1.00" d=" M 4.89 26.96 C 9.63 32.03 15.13 36.34 20.42 40.84 C 16.27 38.98 13.01 35.69 9.25 33.20 C 7.09 31.69 6.32 29.05 4.89 26.96 Z" />
<path fill="#545986" opacity="1.00" d=" M 20.29 38.35 C 22.19 36.32 24.16 34.35 26.22 32.47 C 28.76 38.71 30.91 45.11 33.49 51.33 C 29.32 46.77 24.89 42.47 20.29 38.35 Z" />
<path fill="#4a4c68" opacity="1.00" d=" M 9.25 33.20 C 13.01 35.69 16.27 38.98 20.42 40.84 C 23.74 43.45 26.71 46.57 29.80 49.48 C 27.85 51.10 25.30 50.67 22.99 51.05 C 21.63 51.72 20.91 53.15 19.92 54.23 C 16.50 47.55 12.10 41.35 9.11 34.44 L 9.25 33.20 Z" />
<path fill="#231f43" opacity="1.00" d=" M 61.33 34.51 C 63.46 35.00 61.46 38.46 61.59 40.04 C 60.96 41.68 60.60 38.47 60.69 38.08 C 60.41 36.74 60.62 35.56 61.33 34.51 Z" />
<path fill="#ffffff" opacity="1.00" d=" M 43.14 51.38 C 44.33 45.16 48.17 39.96 51.05 34.53 C 51.20 35.02 51.50 36.01 51.65 36.51 C 51.08 38.13 50.36 39.71 49.59 41.25 C 46.28 46.73 44.82 52.98 43.03 59.05 C 42.55 56.51 42.69 53.91 43.14 51.38 Z" />
<path fill="#251f3e" opacity="1.00" d=" M 69.49 45.34 C 70.95 42.43 73.05 39.95 75.01 37.38 C 76.27 37.89 77.53 38.41 78.79 38.92 C 76.89 42.44 72.87 43.71 69.49 45.34 Z" />
<path fill="#2b264f" opacity="1.00" d=" M 31.84 41.51 C 34.01 41.15 36.18 40.81 38.36 40.53 C 37.91 45.79 42.12 51.37 38.54 56.14 C 35.49 51.68 33.73 46.53 31.84 41.51 Z" />
<path fill="#292342" opacity="1.00" d=" M 79.42 52.17 C 81.41 48.25 83.38 44.31 85.87 40.68 C 86.00 42.11 86.11 43.54 86.21 44.98 C 85.95 44.73 85.42 44.23 85.15 43.99 C 85.29 46.07 85.54 48.14 85.65 50.23 C 85.95 52.73 83.42 54.27 82.12 56.07 C 81.22 54.77 80.32 53.47 79.42 52.17 Z" />
<path fill="#53556c" opacity="1.00" d=" M 43.03 59.05 C 44.82 52.98 46.28 46.73 49.59 41.25 C 50.98 46.98 50.83 53.15 53.80 58.42 C 53.23 61.66 52.69 65.06 53.61 68.28 C 54.20 70.29 56.05 71.69 56.72 73.60 C 55.91 76.89 54.96 80.15 54.24 83.47 C 47.11 81.12 41.71 74.40 40.84 66.95 C 40.12 63.09 40.98 59.22 41.67 55.43 C 42.09 54.08 41.68 52.18 43.14 51.38 C 42.69 53.91 42.55 56.51 43.03 59.05 Z" />
<path fill="#251f3d" opacity="1.00" d=" M 63.92 51.02 C 69.20 47.57 74.62 44.29 80.42 41.76 C 80.56 48.87 76.09 55.41 70.88 59.93 C 69.49 61.37 67.24 62.47 67.16 64.73 C 67.08 65.10 66.93 65.86 66.86 66.23 C 67.27 66.06 68.11 65.71 68.52 65.54 C 69.25 65.65 70.71 65.88 71.44 65.99 C 71.21 66.06 70.75 66.21 70.52 66.29 C 68.87 66.80 67.22 67.29 65.57 67.80 C 64.82 64.08 65.43 59.93 63.25 56.64 C 62.03 54.64 59.70 53.84 57.82 52.63 C 58.11 51.38 58.35 50.13 58.54 48.87 C 58.74 49.90 58.94 50.94 59.13 51.97 C 60.76 51.91 62.56 52.12 63.92 51.02 Z" />
<path fill="#3a375c" opacity="1.00" d=" M 92.45 52.03 C 91.57 48.90 90.34 44.49 93.05 42.05 C 93.35 42.74 93.94 44.12 94.24 44.81 C 95.24 45.19 96.23 45.58 97.23 45.96 C 95.84 48.08 94.92 50.95 92.45 52.03 Z" />
<path fill="#b3899d" opacity="1.00" d=" M 2.16 47.39 C 6.81 48.65 11.54 49.77 15.95 51.76 C 19.05 58.62 25.25 63.48 28.19 70.39 C 25.88 69.14 23.56 67.91 21.15 66.86 C 18.01 65.48 14.91 63.97 11.98 62.19 C 7.79 57.93 5.01 52.59 2.16 47.39 Z" />
<path fill="#2d2328" opacity="0.67" d=" M 0.00 48.18 C 2.18 49.38 3.12 51.85 3.36 54.20 C 1.50 52.98 0.77 50.80 0.00 48.82 L 0.00 48.18 Z" />
<path fill="#312d4f" opacity="1.00" d=" M 29.80 49.48 L 29.96 49.39 C 33.02 52.07 36.06 54.79 38.60 57.99 C 37.81 65.19 38.65 73.03 43.78 78.58 C 41.78 78.96 39.75 78.74 37.75 78.47 C 36.19 76.62 34.46 74.93 32.65 73.32 C 29.93 71.07 29.44 67.31 27.40 64.57 C 24.88 61.14 21.92 58.01 19.92 54.23 C 20.91 53.15 21.63 51.72 22.99 51.05 C 25.30 50.67 27.85 51.10 29.80 49.48 Z" />
<path fill="#26203e" opacity="1.00" d=" M 78.40 53.98 C 79.50 54.44 81.77 55.48 80.23 56.91 C 78.93 58.49 77.28 59.72 75.74 61.04 C 73.12 58.53 77.39 56.30 78.40 53.98 Z" />
<path fill="#864383" opacity="1.00" d=" M 56.94 54.75 C 59.36 54.41 61.70 56.03 62.63 58.22 C 64.67 62.60 63.16 67.93 60.23 71.53 C 60.40 65.98 60.27 60.13 57.20 55.28 L 56.94 54.75 Z" />
<path fill="#cc7894" opacity="1.00" d=" M 57.20 55.28 C 60.27 60.13 60.40 65.98 60.23 71.53 L 60.23 72.23 C 57.33 73.13 55.83 70.03 54.90 67.86 C 53.88 63.60 54.57 58.84 57.20 55.28 Z" />
<path fill="#545986" opacity="1.00" d=" M 67.16 64.73 C 69.74 63.13 71.98 61.07 74.03 58.84 C 73.42 60.56 72.97 62.34 73.57 64.13 C 71.81 64.28 70.10 64.72 68.52 65.54 C 68.11 65.71 67.27 66.06 66.86 66.23 C 66.93 65.86 67.08 65.10 67.16 64.73 Z" />
<path fill="#494c69" opacity="1.00" d=" M 110.33 62.36 L 111.00 62.49 L 111.00 63.11 C 110.83 62.92 110.50 62.55 110.33 62.36 Z" />
<path fill="#28233e" opacity="1.00" d=" M 100.17 65.15 C 103.77 64.65 107.40 64.94 111.00 65.30 L 111.00 72.22 C 107.26 69.85 103.14 68.13 98.88 66.97 C 99.20 66.52 99.84 65.61 100.17 65.15 Z" />
<path fill="#64265b" opacity="1.00" d=" M 83.71 67.88 C 84.59 67.12 85.51 66.33 86.71 66.13 C 86.91 66.65 87.32 67.68 87.52 68.20 C 86.83 74.11 84.97 79.88 82.16 85.12 C 81.29 83.62 78.88 82.08 80.14 80.11 C 81.92 76.23 84.12 72.32 83.71 67.88 Z" />
<path fill="#261f3d" opacity="1.00" d=" M 88.91 68.97 C 88.78 66.79 90.98 64.32 93.16 65.94 C 94.15 70.08 91.70 74.11 89.71 77.59 C 87.81 80.42 86.21 83.62 83.40 85.69 C 85.26 80.12 88.34 74.92 88.91 68.97 Z" />
<path fill="#4c4f80" opacity="1.00" d=" M 94.44 65.75 C 95.29 65.61 96.99 65.35 97.84 65.22 C 94.60 71.01 102.66 73.75 102.78 78.87 C 101.46 82.48 98.06 84.89 95.27 87.38 C 94.33 84.03 95.06 79.97 92.24 77.42 C 93.40 73.63 95.46 69.82 94.44 65.75 Z" />
<path fill="#8c5480" opacity="1.00" d=" M 15.19 65.96 C 16.78 66.93 18.26 68.06 19.73 69.20 C 22.39 71.20 25.34 72.77 28.41 74.05 C 30.53 75.06 33.10 75.50 34.56 77.50 C 35.81 79.13 37.37 80.49 39.49 80.71 C 39.75 84.94 40.92 89.04 42.18 93.07 C 39.32 91.85 36.44 90.69 33.64 89.33 C 32.84 84.43 30.36 79.25 25.41 77.41 C 21.11 74.58 18.03 70.17 15.19 65.96 Z" />
<path fill="#2e242a" opacity="1.00" d=" M 21.15 66.86 C 23.56 67.91 25.88 69.14 28.19 70.39 L 27.55 70.83 C 27.30 71.01 26.79 71.36 26.53 71.54 C 26.94 71.96 27.75 72.80 28.16 73.22 L 28.41 74.05 C 25.34 72.77 22.39 71.20 19.73 69.20 C 20.08 68.62 20.79 67.45 21.15 66.86 Z" />
<path fill="#747c97" opacity="1.00" d=" M 65.57 67.80 C 67.22 67.29 68.87 66.80 70.52 66.29 C 70.71 68.48 68.55 69.36 67.22 70.56 C 66.17 70.57 64.05 70.59 63.00 70.60 C 63.30 70.02 63.92 68.84 64.22 68.26 L 65.57 67.80 Z" />
<path fill="#b48691" opacity="1.00" d=" M 70.89 70.55 C 71.51 68.42 71.46 65.30 74.64 66.15 C 74.06 67.91 75.98 68.81 76.78 70.02 L 75.55 71.24 L 74.90 71.51 C 73.55 71.24 72.21 70.92 70.89 70.55 Z" />
<path fill="#43425d" opacity="1.00" d=" M 98.88 66.97 C 103.14 68.13 107.26 69.85 111.00 72.22 L 111.00 94.84 C 108.57 91.92 104.83 89.70 100.94 91.03 C 102.69 90.59 104.44 90.14 106.19 89.67 C 104.96 87.43 103.56 85.30 102.00 83.28 C 103.02 81.89 104.28 80.48 104.45 78.70 C 104.39 74.04 98.07 71.75 98.88 66.97 Z" />
<path fill="#943e70" opacity="1.00" d=" M 70.14 70.34 L 70.89 70.55 C 72.21 70.92 73.55 71.24 74.90 71.51 C 73.53 72.06 72.16 72.59 70.79 73.12 C 70.73 74.36 70.69 75.61 70.66 76.86 C 70.27 77.37 69.47 78.40 69.07 78.92 C 66.80 76.31 66.93 72.11 70.14 70.34 Z" />
<path fill="#493841" opacity="1.00" d=" M 26.53 71.54 C 26.79 71.36 27.30 71.01 27.55 70.83 C 29.47 70.68 31.11 74.26 28.16 73.22 C 27.75 72.80 26.94 71.96 26.53 71.54 Z" />
<path fill="#8189a4" opacity="1.00" d=" M 64.04 73.71 C 63.66 72.37 65.51 69.71 66.53 71.74 C 66.39 72.16 66.12 73.00 65.98 73.41 C 65.35 73.60 64.70 73.69 64.04 73.71 Z" />
<path fill="#2b253c" opacity="1.00" d=" M 74.90 71.51 L 75.55 71.24 C 76.11 71.55 77.23 72.18 77.79 72.50 C 75.74 73.36 72.89 73.39 71.72 75.58 C 72.64 75.65 73.56 75.67 74.48 75.66 C 76.23 75.56 77.97 75.40 79.72 75.33 C 79.86 77.90 78.24 80.11 77.66 82.54 L 76.82 82.00 C 76.40 80.38 76.13 78.72 75.83 77.08 C 75.20 77.12 73.93 77.19 73.30 77.23 C 72.76 77.26 71.69 77.32 71.16 77.36 C 71.58 79.09 71.90 80.85 72.22 82.61 C 70.08 82.75 69.92 80.28 69.07 78.92 C 69.47 78.40 70.27 77.37 70.66 76.86 C 70.69 75.61 70.73 74.36 70.79 73.12 C 72.16 72.59 73.53 72.06 74.90 71.51 Z" />
<path fill="#2c294e" opacity="1.00" d=" M 56.72 73.60 C 59.17 73.99 61.24 72.79 63.11 71.33 C 62.83 74.93 61.55 78.26 60.31 81.60 C 59.65 82.62 58.97 83.63 58.25 84.61 C 56.89 84.29 55.54 83.97 54.20 83.65 L 54.24 83.47 C 54.96 80.15 55.91 76.89 56.72 73.60 Z" />
<path fill="#414479" opacity="1.00" d=" M 71.72 75.58 C 72.89 73.39 75.74 73.36 77.79 72.50 C 77.22 74.04 76.12 75.09 74.48 75.66 C 73.56 75.67 72.64 75.65 71.72 75.58 Z" />
<path fill="#444774" opacity="1.00" d=" M 63.01 73.75 L 64.04 73.71 C 64.70 73.69 65.35 73.60 65.98 73.41 C 65.02 76.44 67.71 78.51 68.88 80.98 C 68.36 81.50 67.33 82.52 66.81 83.03 C 66.45 82.53 65.74 81.52 65.38 81.02 L 65.52 80.75 C 65.64 80.05 65.89 78.64 66.01 77.93 C 65.38 77.77 64.12 77.43 63.49 77.27 C 63.65 76.07 63.31 74.89 63.01 73.75 Z" />
<path fill="#5c5d74" opacity="1.00" d=" M 73.30 77.23 C 73.93 77.19 75.20 77.12 75.83 77.08 C 76.13 78.72 76.40 80.38 76.82 82.00 C 75.99 82.12 74.33 82.37 73.50 82.49 C 73.24 80.75 73.15 78.99 73.30 77.23 Z" />
<path fill="#798391" opacity="1.00" d=" M 62.02 79.61 C 62.39 79.02 63.12 77.85 63.49 77.27 C 64.12 77.43 65.38 77.77 66.01 77.93 C 65.89 78.64 65.64 80.05 65.52 80.75 C 64.65 80.47 62.90 79.90 62.02 79.61 Z" />
<path fill="#7e889c" opacity="1.00" d=" M 78.86 93.20 C 84.10 88.66 88.40 83.16 92.24 77.42 C 95.06 79.97 94.33 84.03 95.27 87.38 C 92.30 89.64 89.40 92.14 85.90 93.54 C 83.55 93.56 81.21 93.29 78.86 93.20 Z" />
<path fill="#b954be" opacity="1.00" d=" M 40.99 80.76 C 47.30 79.16 51.44 86.85 57.72 85.22 L 58.25 84.61 C 58.97 83.63 59.65 82.62 60.31 81.60 L 61.20 80.30 C 62.49 80.87 63.77 81.44 65.06 82.01 C 62.18 83.94 59.49 86.17 57.30 88.87 C 52.50 86.97 48.20 83.93 43.22 82.52 C 42.34 82.14 41.60 81.56 40.99 80.76 Z" />
<path fill="#8c5081" opacity="1.00" d=" M 43.22 82.52 C 48.20 83.93 52.50 86.97 57.30 88.87 C 56.41 90.29 55.43 91.64 54.39 92.95 C 50.43 90.23 46.62 87.20 43.42 83.60 L 43.22 82.52 Z" />
<path fill="#4a4a66" opacity="1.00" d=" M 64.72 86.32 C 65.69 84.02 68.77 83.04 71.08 82.83 C 70.65 85.65 67.28 87.11 64.72 86.32 Z" />
<path fill="#2f2b51" opacity="1.00" d=" M 72.75 83.76 C 74.71 83.79 76.80 83.49 78.65 84.35 C 79.81 85.45 80.78 86.74 81.81 87.97 C 80.48 89.48 79.61 91.67 77.84 92.66 C 74.98 92.32 72.16 91.73 69.33 91.23 C 69.97 90.13 70.89 89.36 72.12 88.90 C 72.28 87.18 72.56 85.47 72.75 83.76 Z" />
<path fill="#505167" opacity="1.00" d=" M 94.07 90.40 C 96.87 88.21 99.56 85.87 102.00 83.28 C 103.56 85.30 104.96 87.43 106.19 89.67 C 104.44 90.14 102.69 90.59 100.94 91.03 C 98.67 91.61 96.43 92.29 94.23 93.08 C 94.18 92.19 94.12 91.30 94.07 90.40 Z" />
<path fill="#565e75" opacity="1.00" d=" M 3.65 84.63 C 9.56 83.65 15.46 85.16 21.08 86.92 C 31.20 90.26 41.17 94.14 50.61 99.12 C 49.22 103.00 47.89 106.92 47.24 111.00 L 45.58 111.00 C 42.90 109.76 40.17 108.56 37.23 108.06 C 34.82 107.44 32.66 106.17 30.58 104.86 C 31.50 103.72 33.10 102.76 32.79 101.07 C 32.51 96.23 28.13 92.70 23.94 91.03 C 21.44 89.98 18.96 91.49 17.51 93.48 C 13.31 92.65 11.36 88.03 7.90 85.84 C 6.47 86.15 5.04 86.46 3.62 86.77 C 3.62 86.24 3.64 85.16 3.65 84.63 Z" />
<path fill="#8c5181" opacity="1.00" d=" M 40.86 82.87 C 44.65 86.97 48.75 90.84 53.62 93.64 C 54.18 95.21 52.46 96.91 52.03 98.48 C 49.46 96.81 46.55 95.65 44.11 93.78 C 42.37 90.41 42.11 86.44 40.86 82.87 Z" />
<path fill="#424d6b" opacity="1.00" d=" M 3.62 86.77 C 5.04 86.46 6.47 86.15 7.90 85.84 C 11.36 88.03 13.31 92.65 17.51 93.48 C 17.40 100.06 24.33 105.22 30.58 104.86 C 32.66 106.17 34.82 107.44 37.23 108.06 C 35.52 107.92 33.81 107.85 32.10 107.67 C 27.44 106.15 22.63 105.06 17.71 104.85 C 12.56 99.23 7.16 93.59 3.62 86.77 Z" />
<path fill="#53556c" opacity="1.00" d=" M 56.33 95.47 C 57.53 91.16 60.92 87.95 64.32 85.26 C 64.38 87.12 64.53 88.97 64.78 90.81 L 66.80 90.04 C 63.85 92.65 59.51 93.05 56.33 95.47 Z" />
<path fill="#545986" opacity="1.00" d=" M 64.96 87.60 C 66.44 87.47 69.42 87.20 70.91 87.07 C 69.61 87.36 68.59 91.94 66.80 90.04 C 66.34 89.43 65.42 88.21 64.96 87.60 Z" />
<path fill="#000000" opacity="1.00" d=" M 17.51 93.48 C 18.96 91.49 21.44 89.98 23.94 91.03 C 28.13 92.70 32.51 96.23 32.79 101.07 C 33.10 102.76 31.50 103.72 30.58 104.86 C 24.33 105.22 17.40 100.06 17.51 93.48 M 20.28 93.24 C 19.46 94.43 19.44 95.63 20.19 96.85 C 22.10 100.11 25.28 102.75 29.08 103.37 C 29.65 103.06 30.78 102.45 31.35 102.14 C 31.18 100.95 30.98 99.75 30.82 98.57 C 28.63 95.18 24.69 90.80 20.28 93.24 Z" />
<path fill="#828190" opacity="1.00" d=" M 84.04 95.62 C 87.68 94.53 91.11 92.80 94.07 90.40 C 94.12 91.30 94.18 92.19 94.23 93.08 C 91.51 94.09 89.13 95.78 86.96 97.67 C 85.99 96.98 85.02 96.30 84.04 95.62 Z" />
<path fill="#cc7894" opacity="1.00" d=" M 20.28 93.24 C 24.69 90.80 28.63 95.18 30.82 98.57 C 26.82 97.99 23.77 95.02 20.28 93.24 Z" />
<path fill="#a65b8a" opacity="1.00" d=" M 20.19 96.85 C 19.44 95.63 19.46 94.43 20.28 93.24 C 23.77 95.02 26.82 97.99 30.82 98.57 C 30.98 99.75 31.18 100.95 31.35 102.14 C 30.78 102.45 29.65 103.06 29.08 103.37 C 25.28 102.75 22.10 100.11 20.19 96.85 Z" />
<path fill="#ffffff" opacity="1.00" d=" M 52.52 100.72 C 56.21 97.51 60.36 94.05 65.57 94.16 C 59.88 97.10 54.46 100.79 50.84 106.19 C 50.83 105.67 50.81 104.63 50.80 104.10 C 51.29 102.95 51.58 101.62 52.52 100.72 Z" />
<path fill="#57596f" opacity="1.00" d=" M 65.57 94.16 L 66.04 94.14 C 71.68 94.64 72.26 101.13 74.64 105.09 C 72.85 106.89 71.42 108.98 69.90 111.00 L 49.20 111.00 C 49.67 108.69 49.99 106.33 50.80 104.10 C 50.81 104.63 50.83 105.67 50.84 106.19 C 54.46 100.79 59.88 97.10 65.57 94.16 Z" />
<path fill="#3c395c" opacity="1.00" d=" M 66.04 94.14 C 72.53 94.24 79.33 94.96 85.08 98.21 C 81.83 100.85 77.99 102.60 74.64 105.09 C 72.26 101.13 71.68 94.64 66.04 94.14 Z" />
<path fill="#53546b" opacity="1.00" d=" M 95.27 95.77 C 98.30 94.51 101.69 93.50 104.99 93.76 C 107.39 95.18 109.19 97.38 111.00 99.45 L 111.00 111.00 L 83.42 111.00 C 84.82 108.40 82.06 106.08 81.24 103.74 C 82.08 103.10 82.94 102.49 83.81 101.90 C 86.04 103.42 88.12 105.24 90.62 106.32 C 93.48 107.01 96.41 105.33 98.13 103.13 C 99.02 100.95 98.51 98.47 98.64 96.18 C 97.97 96.12 96.64 96.01 95.98 95.95 L 95.27 95.77 Z" />
<path fill="#ffffff" opacity="1.00" d=" M 87.71 99.34 C 89.85 97.49 92.68 96.78 95.27 95.77 L 95.98 95.95 C 96.54 98.07 97.66 100.92 95.54 102.57 C 94.38 103.97 92.52 103.47 90.95 103.51 C 89.70 102.24 88.85 99.61 86.45 100.69 L 87.71 99.34 Z" />
<path fill="#828190" opacity="1.00" d=" M 95.98 95.95 C 96.64 96.01 97.97 96.12 98.64 96.18 C 98.51 98.47 99.02 100.95 98.13 103.13 C 96.41 105.33 93.48 107.01 90.62 106.32 C 88.12 105.24 86.04 103.42 83.81 101.90 C 85.15 101.11 86.49 100.31 87.71 99.34 L 86.45 100.69 C 88.85 99.61 89.70 102.24 90.95 103.51 C 92.52 103.47 94.38 103.97 95.54 102.57 C 97.66 100.92 96.54 98.07 95.98 95.95 Z" />
<path fill="#7f889d" opacity="1.00" d=" M 71.95 111.00 C 74.04 108.30 76.27 105.64 79.27 103.90 C 80.18 105.62 81.09 107.35 82.04 109.06 C 81.59 109.55 80.68 110.52 80.23 111.00 L 71.95 111.00 Z" />
<path fill="#302f54" opacity="1.00" d=" M 17.71 104.85 C 22.63 105.06 27.44 106.15 32.10 107.67 C 31.53 108.78 30.97 109.89 30.40 111.00 L 23.68 111.00 C 21.58 109.06 19.66 106.94 17.71 104.85 Z" />
<path fill="#000000" opacity="1.00" d=" M 32.10 107.67 C 33.81 107.85 35.52 107.92 37.23 108.06 C 40.17 108.56 42.90 109.76 45.58 111.00 L 42.06 111.00 C 38.72 109.97 34.67 108.46 31.61 111.00 L 30.40 111.00 C 30.97 109.89 31.53 108.78 32.10 107.67 Z" />
<path fill="#7d4c72" opacity="1.00" d=" M 31.61 111.00 C 34.67 108.46 38.72 109.97 42.06 111.00 L 31.61 111.00 Z" />
</svg>
