<?xml version="1.0" encoding="UTF-8" ?>
<!DOCTYPE svg PUBLIC "-//W3C//DTD SVG 1.1//EN" "http://www.w3.org/Graphics/SVG/1.1/DTD/svg11.dtd">
<svg width="111pt" height="111pt" viewBox="0 0 111 111" version="1.1" xmlns="http://www.w3.org/2000/svg">
<path fill="#000000" opacity="1.00" d=" M 50.24 4.70 C 51.83 3.83 53.33 2.69 55.11 2.23 C 56.87 1.91 57.42 4.06 58.41 5.05 C 60.36 4.73 62.37 3.99 64.34 4.59 C 65.16 6.13 65.27 7.91 65.56 9.60 C 66.63 9.91 67.70 10.22 68.77 10.52 C 68.86 12.78 68.84 15.03 68.76 17.28 C 72.24 16.44 76.43 16.15 79.32 18.65 C 80.67 20.91 79.53 23.73 79.48 26.19 C 81.74 28.03 82.66 30.70 82.63 33.57 C 85.67 30.96 88.54 28.04 92.10 26.12 C 95.84 24.12 100.45 25.90 103.25 28.71 C 105.41 31.09 105.34 34.51 105.51 37.52 C 101.24 38.75 96.43 36.36 92.67 39.27 C 96.63 39.44 101.17 39.85 103.60 43.46 C 107.85 49.68 109.81 58.07 106.33 65.10 C 103.65 63.74 100.72 62.05 99.80 58.96 C 98.30 54.75 98.68 49.23 94.37 46.61 C 90.54 43.95 86.47 48.15 82.37 47.57 C 84.98 46.18 87.69 45.01 90.49 44.05 C 92.78 44.49 94.97 45.39 96.93 46.67 C 98.24 48.49 99.38 50.46 100.07 52.60 C 100.35 54.94 100.38 57.38 101.41 59.55 C 102.71 61.05 104.24 62.31 105.85 63.46 C 107.62 59.39 107.29 54.93 105.40 50.97 C 104.97 49.80 104.49 48.65 103.96 47.52 C 103.05 45.56 101.72 43.82 100.20 42.28 C 97.33 41.23 94.24 41.06 91.26 41.68 C 86.88 42.49 82.41 42.71 77.98 42.31 C 78.09 42.85 78.31 43.93 78.43 44.48 C 79.66 45.52 80.88 46.56 82.15 47.56 C 80.53 47.20 78.92 46.81 77.32 46.39 C 79.04 51.61 83.49 55.09 86.41 59.58 C 89.67 64.11 91.80 69.30 94.51 74.15 C 87.45 79.20 79.29 82.39 71.89 86.89 C 72.59 89.30 71.79 91.69 71.14 94.01 C 72.03 96.56 73.20 99.21 72.69 101.97 C 72.05 105.12 70.70 108.07 69.42 111.00 L 67.88 111.00 C 69.50 106.66 70.50 102.09 70.68 97.46 C 70.00 97.48 68.63 97.53 67.95 97.55 C 64.78 94.46 62.87 90.39 62.88 85.92 C 61.91 85.45 60.94 84.97 59.98 84.49 C 59.84 84.18 59.56 83.56 59.42 83.25 C 59.64 80.49 59.44 77.73 58.92 75.02 C 58.18 71.50 59.08 67.96 59.79 64.51 C 58.59 64.23 57.39 63.94 56.20 63.63 C 53.53 62.00 51.65 59.44 49.25 57.48 C 47.61 56.31 46.17 54.86 45.33 53.00 C 45.41 50.76 45.64 48.49 46.69 46.48 C 46.74 49.79 45.94 53.52 48.77 55.97 C 48.19 52.02 47.85 47.99 48.99 44.10 C 47.50 44.21 46.01 44.32 44.51 44.43 C 44.42 45.06 44.24 46.33 44.15 46.97 C 41.06 48.71 38.25 50.98 36.28 53.97 C 37.05 54.85 37.83 55.72 38.63 56.57 C 39.83 57.59 41.13 58.48 42.42 59.38 C 43.95 67.88 41.59 77.00 35.63 83.34 C 35.35 83.64 34.80 84.24 34.53 84.54 C 28.66 89.40 24.55 96.54 24.76 104.32 C 24.76 106.56 25.14 108.78 25.39 111.00 L 22.91 111.00 C 22.79 109.63 22.68 108.26 22.56 106.89 C 20.97 108.25 19.38 109.61 17.79 110.97 C 17.82 110.63 17.87 109.94 17.89 109.60 L 18.32 108.45 C 19.98 104.54 21.29 100.32 20.66 96.03 C 20.05 95.86 18.83 95.51 18.22 95.33 C 20.86 88.61 24.74 82.46 28.22 76.16 C 27.10 74.83 25.36 73.72 25.24 71.81 C 24.72 69.17 26.94 67.01 27.76 64.72 C 25.26 66.87 21.99 68.71 20.82 71.99 C 21.05 74.04 21.56 76.04 21.90 78.07 C 17.83 77.85 13.69 73.59 15.58 69.43 C 17.55 65.13 21.73 62.47 25.67 60.16 C 20.33 58.94 16.89 53.23 17.78 47.95 C 17.97 46.72 18.69 46.05 19.92 45.96 C 21.65 48.23 22.80 50.96 25.05 52.80 C 25.32 51.92 25.87 50.15 26.14 49.27 C 26.53 50.06 26.91 50.87 27.27 51.68 C 27.28 54.14 27.28 56.60 27.43 59.06 C 32.19 58.61 29.64 52.92 32.39 50.45 C 33.53 49.06 35.03 48.05 36.57 47.16 C 40.84 44.63 44.47 41.18 48.42 38.19 C 46.57 37.75 44.72 37.34 42.87 36.94 C 42.37 38.59 42.27 40.67 40.61 41.64 C 39.02 42.59 37.18 42.99 35.45 43.63 C 35.03 43.80 34.19 44.13 33.76 44.30 C 31.70 45.31 30.17 47.03 28.91 48.90 C 28.83 49.00 28.68 49.20 28.60 49.30 C 27.48 45.90 26.27 42.50 25.54 38.99 C 26.26 35.74 30.38 37.70 32.60 37.83 C 31.87 36.54 31.14 35.25 30.43 33.95 C 31.30 33.24 32.17 32.54 33.04 31.83 C 31.90 29.69 30.29 27.54 30.51 24.99 C 30.60 23.09 31.71 21.45 32.47 19.77 C 31.84 17.47 29.61 14.79 31.33 12.54 C 33.30 9.84 37.51 11.17 39.52 8.54 C 42.22 5.79 46.25 1.79 50.24 4.70 M 52.77 4.10 L 53.27 4.83 C 52.71 5.21 51.59 5.96 51.03 6.34 L 50.28 5.77 C 49.63 6.84 48.11 7.62 48.27 9.03 L 49.03 9.19 C 48.88 11.25 49.47 13.32 49.44 15.40 C 50.89 13.40 52.26 11.22 51.62 8.61 L 52.58 7.72 C 52.76 8.39 53.12 9.74 53.30 10.41 C 54.59 9.86 55.89 9.31 57.19 8.76 C 56.87 7.08 56.54 5.41 56.20 3.73 C 55.34 3.82 53.63 4.01 52.77 4.10 M 42.03 8.05 C 41.40 8.86 40.78 9.66 40.17 10.47 C 40.59 10.34 41.44 10.08 41.87 9.95 C 44.13 8.73 47.62 8.13 48.04 5.11 C 45.85 5.67 43.83 6.71 42.03 8.05 M 57.97 8.45 C 59.99 9.09 61.93 9.94 63.74 11.04 C 63.27 9.29 64.15 6.76 62.34 5.64 C 60.55 6.01 58.02 6.07 57.97 8.45 M 44.47 11.42 C 43.19 14.01 40.40 16.67 42.17 19.70 C 42.77 19.69 43.99 19.66 44.60 19.65 C 45.19 18.93 45.79 18.21 46.38 17.49 C 46.47 16.89 46.65 15.70 46.74 15.10 C 47.24 13.31 48.32 11.35 47.47 9.49 C 45.94 8.60 45.06 10.30 44.47 11.42 M 53.98 11.03 L 55.13 11.96 C 52.47 12.58 53.23 15.32 54.87 16.61 C 56.26 18.98 57.16 21.60 57.75 24.29 C 57.27 26.87 57.54 29.49 58.45 31.95 C 58.88 33.77 59.17 35.64 59.86 37.38 C 58.67 38.81 57.42 40.19 56.34 41.71 C 53.86 42.67 51.65 44.25 50.19 46.50 L 49.98 46.47 C 49.84 48.05 49.71 49.64 49.58 51.23 C 50.63 56.32 53.86 63.41 60.16 62.41 C 59.95 56.55 52.94 52.87 54.91 46.78 C 56.63 44.96 58.61 43.42 60.63 41.96 L 60.63 41.74 C 62.85 40.73 64.28 38.73 65.81 36.93 C 63.44 34.42 60.69 32.02 59.87 28.50 C 60.81 25.81 63.40 22.87 61.32 20.07 C 60.37 18.48 59.45 16.87 58.54 15.25 C 60.21 15.85 61.42 17.17 62.75 18.28 C 62.20 15.81 62.57 12.50 60.16 10.90 C 58.25 9.65 55.97 10.62 53.98 11.03 M 63.22 12.15 C 63.51 13.06 63.80 13.97 64.09 14.88 C 64.13 16.19 64.18 17.51 64.22 18.83 C 64.92 18.93 66.32 19.12 67.02 19.22 C 67.17 17.48 67.32 15.75 67.47 14.01 C 67.46 13.11 67.44 12.21 67.42 11.31 C 66.00 11.47 64.60 11.77 63.22 12.15 M 33.01 13.09 C 31.80 14.49 33.07 16.19 33.50 17.60 C 33.98 17.61 34.96 17.62 35.45 17.62 C 35.77 15.09 37.48 13.16 39.14 11.36 C 37.09 11.88 34.87 12.00 33.01 13.09 M 38.28 16.03 C 38.46 18.14 38.09 20.93 40.47 21.93 L 40.75 20.73 C 40.35 20.70 39.53 20.62 39.13 20.58 C 39.46 17.18 41.54 14.41 43.08 11.47 C 41.29 12.64 37.76 13.20 38.28 16.03 M 50.32 16.03 C 49.83 17.62 50.42 18.14 52.09 17.60 C 52.57 16.00 51.98 15.48 50.32 16.03 M 47.54 19.73 C 45.42 21.85 42.30 22.16 39.92 23.88 C 39.32 23.40 38.12 22.44 37.52 21.96 C 37.53 29.04 42.57 36.03 49.96 36.57 L 51.06 37.50 C 50.46 37.60 49.25 37.79 48.65 37.88 C 48.80 39.07 49.26 40.10 50.04 40.97 C 50.43 40.99 51.22 41.02 51.61 41.04 C 52.27 41.04 53.59 41.03 54.26 41.02 C 56.48 39.69 58.03 37.64 58.08 34.96 C 56.86 35.68 55.65 36.42 54.45 37.18 L 53.37 37.28 C 53.31 35.71 54.42 32.99 51.89 32.96 C 52.20 32.83 52.80 32.57 53.10 32.44 C 53.60 32.54 54.59 32.73 55.09 32.83 C 55.92 29.53 55.61 26.11 55.40 22.75 C 55.34 28.52 48.70 31.32 44.09 28.71 C 44.81 28.73 46.24 28.76 46.96 28.78 C 48.24 26.77 49.75 24.93 51.31 23.13 C 52.41 22.23 53.54 21.32 55.06 21.42 C 54.56 20.39 54.06 19.34 53.57 18.30 C 52.71 18.71 51.86 19.11 51.00 19.51 C 50.37 19.17 49.11 18.48 48.48 18.14 C 48.17 18.67 47.86 19.20 47.54 19.73 M 67.83 18.41 C 68.25 19.82 70.02 20.98 71.39 20.43 C 72.43 21.63 74.07 22.47 74.66 23.99 C 74.63 25.63 73.33 26.95 72.72 28.42 C 74.34 27.76 75.96 27.11 77.59 26.47 C 77.94 24.54 78.71 22.60 78.48 20.61 C 77.80 19.03 75.87 18.48 74.29 18.45 C 72.14 18.35 69.98 18.34 67.83 18.41 M 33.37 29.60 L 33.87 29.59 C 35.78 32.45 38.63 34.87 39.08 38.48 L 37.30 39.10 L 38.02 38.21 C 36.68 36.07 34.93 31.30 31.85 34.11 C 32.24 34.19 33.00 34.33 33.38 34.40 C 33.74 36.00 34.10 37.59 34.46 39.19 C 33.79 39.19 32.45 39.18 31.78 39.18 C 30.42 38.99 28.17 37.56 27.29 39.20 C 27.28 41.27 28.51 43.14 29.07 45.10 C 29.90 44.61 30.74 44.11 31.58 43.61 L 31.62 42.98 C 34.35 42.29 37.05 41.46 39.71 40.51 C 40.72 36.30 39.07 32.15 35.67 29.55 C 35.26 26.33 36.08 23.08 35.53 19.88 C 31.74 21.69 31.56 26.27 33.37 29.60 M 64.53 20.25 C 63.67 22.95 62.88 25.67 61.95 28.35 L 61.37 28.79 C 62.45 32.23 65.41 34.77 69.06 34.94 C 68.52 33.64 67.95 32.35 67.38 31.06 C 69.13 28.76 71.11 26.66 73.20 24.67 C 72.34 23.80 71.48 22.94 70.62 22.07 L 70.08 22.41 C 68.27 21.61 66.42 20.88 64.53 20.25 M 52.47 24.35 C 51.08 25.02 49.41 26.43 49.31 28.03 C 50.91 28.56 54.17 25.46 52.47 24.35 M 92.83 27.78 L 93.29 27.94 L 91.99 27.71 C 89.49 30.14 86.69 32.25 84.30 34.80 C 83.50 35.17 82.71 35.54 81.91 35.91 C 81.24 37.59 80.57 39.27 79.93 40.95 C 82.98 40.37 85.99 39.60 88.92 38.55 C 90.53 37.99 92.16 37.45 93.79 36.95 C 93.76 36.40 93.70 35.29 93.67 34.74 C 92.43 33.68 91.31 32.50 90.36 31.18 C 91.05 30.76 92.42 29.92 93.10 29.50 C 95.07 31.14 96.13 33.29 95.24 35.82 C 97.63 36.22 100.05 36.50 102.47 36.18 L 103.83 36.69 C 103.84 34.43 103.66 32.18 103.37 29.94 C 102.81 29.71 101.70 29.25 101.14 29.02 C 98.77 27.05 95.68 26.60 92.83 27.78 M 69.20 31.34 C 69.35 34.20 72.91 34.66 75.16 34.63 C 76.35 36.26 77.73 37.73 79.03 39.27 C 80.22 35.61 82.05 31.39 79.57 27.83 C 76.00 28.61 72.44 29.63 69.20 31.34 M 92.21 31.27 C 91.76 32.56 93.60 34.25 94.84 33.67 C 95.38 32.37 93.46 30.58 92.21 31.27 M 56.03 34.08 C 55.43 34.72 55.43 34.72 56.03 34.08 C 56.62 33.42 56.62 33.42 56.03 34.08 M 64.80 39.99 C 66.77 39.06 68.63 37.88 70.17 36.33 C 67.13 34.46 65.93 37.84 64.80 39.99 M 64.54 42.95 C 64.48 45.48 64.65 48.00 64.98 50.50 C 70.90 49.44 74.67 43.32 74.21 37.54 C 70.68 38.40 66.60 39.77 64.54 42.95 M 74.90 37.43 C 74.88 40.81 74.52 44.20 72.75 47.17 C 70.28 49.06 67.92 51.24 64.56 51.19 C 64.66 51.70 64.87 52.71 64.98 53.21 C 68.24 53.67 71.63 52.89 74.64 51.63 C 76.02 50.08 76.00 47.87 76.43 45.95 C 76.10 43.11 76.87 39.80 74.90 37.43 M 56.15 51.35 C 57.05 52.54 57.93 53.74 58.82 54.93 C 60.11 53.91 61.93 53.33 62.76 51.85 C 63.19 49.45 63.06 46.99 62.70 44.58 C 58.52 43.48 55.80 47.61 56.15 51.35 M 19.31 47.89 C 19.22 49.78 19.46 51.66 19.78 53.52 C 21.31 55.79 23.14 58.04 25.95 58.67 C 25.82 57.21 25.68 55.75 25.53 54.30 C 23.97 53.54 22.51 52.60 21.33 51.31 C 20.73 50.12 20.08 48.97 19.31 47.89 M 32.63 52.62 C 32.21 53.70 31.24 55.15 32.65 55.90 C 35.23 53.21 37.29 50.07 39.78 47.29 C 36.91 48.21 33.98 49.78 32.63 52.62 M 73.36 54.83 C 73.92 55.69 74.50 56.55 75.05 57.42 C 77.10 60.76 79.59 63.79 81.88 66.96 C 82.14 67.91 82.40 68.87 82.65 69.82 C 80.96 69.87 78.87 70.37 77.49 69.11 C 78.31 68.24 79.07 67.33 79.78 66.37 C 78.09 67.19 76.40 68.01 74.71 68.82 L 75.20 67.80 C 76.40 66.96 77.59 66.11 78.78 65.26 C 75.82 62.34 73.96 58.52 71.05 55.60 C 69.61 55.52 68.17 55.50 66.73 55.55 C 62.42 62.74 58.93 71.88 63.00 79.96 C 66.35 75.89 69.71 71.34 74.60 69.07 L 74.25 69.83 C 73.23 70.73 72.21 71.63 71.20 72.54 L 72.05 72.79 C 68.93 73.50 67.08 77.31 64.81 79.55 L 64.43 79.56 C 64.79 80.80 65.28 82.00 65.97 83.09 C 67.34 84.16 68.68 85.27 70.00 86.39 C 72.19 85.06 74.31 83.64 76.37 82.13 C 75.40 80.53 74.43 78.92 73.42 77.34 C 73.27 76.64 72.98 75.24 72.84 74.53 C 74.66 76.83 76.13 79.38 77.61 81.91 C 82.26 79.29 86.95 76.75 91.78 74.46 C 90.93 73.55 89.11 73.00 89.55 71.47 L 90.70 70.17 C 89.42 65.87 86.09 62.67 83.87 58.87 L 83.83 58.86 C 82.16 56.01 79.95 53.53 77.90 50.96 C 76.65 52.54 75.09 53.81 73.36 54.83 M 59.76 56.09 L 59.84 56.50 C 60.32 57.74 60.81 58.97 61.32 60.19 C 62.81 58.20 64.50 56.04 63.67 53.36 C 62.31 54.18 60.95 55.02 59.76 56.09 M 34.41 55.62 C 32.92 57.44 31.22 59.10 29.24 60.40 C 26.76 61.43 24.40 62.73 22.14 64.17 C 19.50 66.24 17.15 68.77 16.39 72.14 C 17.37 74.07 18.81 75.66 20.67 76.78 C 17.83 72.89 20.03 68.29 23.61 65.93 C 25.46 64.96 27.32 63.99 29.24 63.17 C 32.14 62.27 34.95 61.12 37.77 59.98 C 36.66 58.52 35.54 57.06 34.41 55.62 M 35.27 62.37 L 35.07 62.97 C 31.46 63.28 28.77 66.21 26.95 69.10 C 25.55 71.27 27.44 73.38 28.81 74.97 C 29.23 74.36 30.06 73.14 30.48 72.53 C 32.32 73.65 32.96 75.70 33.59 77.63 C 37.32 72.62 38.89 66.38 40.14 60.35 C 38.42 60.77 36.80 61.50 35.27 62.37 M 32.09 80.98 C 32.37 81.48 32.94 82.48 33.22 82.98 C 37.62 78.81 40.93 72.93 40.65 66.72 C 38.97 72.07 36.40 77.25 32.09 80.98 M 26.63 80.99 C 27.09 81.52 27.55 82.05 28.01 82.58 C 28.97 79.88 31.01 77.74 31.99 75.04 C 29.09 75.55 28.56 79.18 26.63 80.99 M 59.83 82.67 C 61.40 83.72 63.02 84.71 64.61 85.72 C 64.00 89.66 66.00 93.21 68.28 96.24 C 68.50 93.15 68.36 90.06 68.28 86.97 C 66.50 85.56 64.85 83.99 63.38 82.25 C 62.19 82.36 61.01 82.50 59.83 82.67 M 25.16 83.00 C 24.38 86.54 22.49 89.67 21.25 93.04 C 25.33 91.73 27.23 86.69 28.09 82.79 C 27.36 82.84 25.89 82.95 25.16 83.00 M 31.16 83.29 C 29.67 86.39 34.49 83.27 31.16 83.29 M 70.32 88.35 C 69.42 89.63 69.62 90.36 70.92 90.55 C 71.82 89.27 71.62 88.54 70.32 88.35 M 21.19 103.90 C 21.53 103.78 22.21 103.54 22.55 103.41 C 23.16 100.84 23.27 98.19 23.41 95.56 C 22.29 98.22 21.59 101.04 21.19 103.90 M 21.09 105.02 C 21.13 108.35 24.13 103.51 21.09 105.02 Z" />
<path fill="#3e534e" opacity="1.00" d=" M 52.77 4.10 C 53.63 4.01 55.34 3.82 56.20 3.73 C 56.54 5.41 56.87 7.08 57.19 8.76 C 55.89 9.31 54.59 9.86 53.30 10.41 C 53.12 9.74 52.76 8.39 52.58 7.72 L 51.62 8.61 C 50.97 8.75 49.68 9.05 49.03 9.19 L 48.27 9.03 C 48.11 7.62 49.63 6.84 50.28 5.77 L 51.03 6.34 C 52.07 7.86 54.86 6.33 53.27 4.83 L 52.77 4.10 Z" />
<path fill="#fdedc1" opacity="1.00" d=" M 42.03 8.05 C 43.83 6.71 45.85 5.67 48.04 5.11 C 47.62 8.13 44.13 8.73 41.87 9.95 C 41.44 10.08 40.59 10.34 40.17 10.47 C 40.78 9.66 41.40 8.86 42.03 8.05 Z" />
<path fill="#a1ac7a" opacity="1.00" d=" M 51.03 6.34 C 51.59 5.96 52.71 5.21 53.27 4.83 C 54.86 6.33 52.07 7.86 51.03 6.34 Z" />
<path fill="#8c9e77" opacity="1.00" d=" M 57.97 8.45 C 58.02 6.07 60.55 6.01 62.34 5.64 C 64.15 6.76 63.27 9.29 63.74 11.04 C 61.93 9.94 59.99 9.09 57.97 8.45 Z" />
<path fill="#8e9e72" opacity="1.00" d=" M 44.47 11.42 C 45.06 10.30 45.94 8.60 47.47 9.49 C 48.32 11.35 47.24 13.31 46.74 15.10 C 46.65 15.70 46.47 16.89 46.38 17.49 C 45.79 18.21 45.19 18.93 44.60 19.65 C 43.99 19.66 42.77 19.69 42.17 19.70 C 40.40 16.67 43.19 14.01 44.47 11.42 Z" />
<path fill="#8c9e77" opacity="1.00" d=" M 49.03 9.19 C 49.68 9.05 50.97 8.75 51.62 8.61 C 52.26 11.22 50.89 13.40 49.44 15.40 C 49.47 13.32 48.88 11.25 49.03 9.19 Z" />
<path fill="#365960" opacity="1.00" d=" M 53.98 11.03 C 55.97 10.62 58.25 9.65 60.16 10.90 C 62.57 12.50 62.20 15.81 62.75 18.28 C 61.42 17.17 60.21 15.85 58.54 15.25 C 57.79 14.36 56.96 13.54 56.10 12.75 C 55.86 12.55 55.37 12.16 55.13 11.96 L 53.98 11.03 Z" />
<path fill="#97a679" opacity="1.00" d=" M 63.22 12.15 C 64.60 11.77 66.00 11.47 67.42 11.31 C 67.44 12.21 67.46 13.11 67.47 14.01 C 66.34 14.30 65.21 14.59 64.09 14.88 C 63.80 13.97 63.51 13.06 63.22 12.15 Z" />
<path fill="#c1c998" opacity="1.00" d=" M 33.01 13.09 C 34.87 12.00 37.09 11.88 39.14 11.36 C 37.48 13.16 35.77 15.09 35.45 17.62 C 34.96 17.62 33.98 17.61 33.50 17.60 C 33.07 16.19 31.80 14.49 33.01 13.09 Z" />
<path fill="#cbd7a2" opacity="1.00" d=" M 38.28 16.03 C 37.76 13.20 41.29 12.64 43.08 11.47 C 41.54 14.41 39.46 17.18 39.13 20.58 C 39.53 20.62 40.35 20.70 40.75 20.73 L 40.47 21.93 C 38.09 20.93 38.46 18.14 38.28 16.03 Z" />
<path fill="#fdedc1" opacity="1.00" d=" M 54.87 16.61 C 53.23 15.32 52.47 12.58 55.13 11.96 C 55.37 12.16 55.86 12.55 56.10 12.75 C 55.69 14.03 55.27 15.32 54.87 16.61 Z" />
<path fill="#919f76" opacity="1.00" d=" M 56.10 12.75 C 56.96 13.54 57.79 14.36 58.54 15.25 C 59.45 16.87 60.37 18.48 61.32 20.07 C 60.41 21.70 59.11 23.04 57.75 24.29 C 57.16 21.60 56.26 18.98 54.87 16.61 C 55.27 15.32 55.69 14.03 56.10 12.75 Z" />
<path fill="#2c4c57" opacity="1.00" d=" M 64.09 14.88 C 65.21 14.59 66.34 14.30 67.47 14.01 C 67.32 15.75 67.17 17.48 67.02 19.22 C 66.32 19.12 64.92 18.93 64.22 18.83 C 64.18 17.51 64.13 16.19 64.09 14.88 Z" />
<path fill="#3f6961" opacity="1.00" d=" M 50.32 16.03 C 51.98 15.48 52.57 16.00 52.09 17.60 C 50.42 18.14 49.83 17.62 50.32 16.03 Z" />
<path fill="#ebc29f" opacity="1.00" d=" M 47.54 19.73 C 47.86 19.20 48.17 18.67 48.48 18.14 C 49.11 18.48 50.37 19.17 51.00 19.51 C 51.86 19.11 52.71 18.71 53.57 18.30 C 54.06 19.34 54.56 20.39 55.06 21.42 C 53.54 21.32 52.41 22.23 51.31 23.13 C 50.05 22.00 48.80 20.86 47.54 19.73 Z" />
<path fill="#aebe92" opacity="1.00" d=" M 67.83 18.41 C 69.98 18.34 72.14 18.35 74.29 18.45 C 73.31 19.10 72.36 19.78 71.39 20.43 C 70.02 20.98 68.25 19.82 67.83 18.41 Z" />
<path fill="#294d5a" opacity="1.00" d=" M 74.29 18.45 C 75.87 18.48 77.80 19.03 78.48 20.61 C 78.71 22.60 77.94 24.54 77.59 26.47 C 75.96 27.11 74.34 27.76 72.72 28.42 C 73.33 26.95 74.63 25.63 74.66 23.99 C 74.07 22.47 72.43 21.63 71.39 20.43 C 72.36 19.78 73.31 19.10 74.29 18.45 Z" />
<path fill="#aebe92" opacity="1.00" d=" M 33.37 29.60 C 31.56 26.27 31.74 21.69 35.53 19.88 C 36.08 23.08 35.26 26.33 35.67 29.55 C 35.22 29.56 34.32 29.58 33.87 29.59 L 33.37 29.60 Z" />
<path fill="#fce6bb" opacity="1.00" d=" M 47.54 19.73 C 48.80 20.86 50.05 22.00 51.31 23.13 C 49.75 24.93 48.24 26.77 46.96 28.78 C 46.24 28.76 44.81 28.73 44.09 28.71 C 48.70 31.32 55.34 28.52 55.40 22.75 C 55.61 26.11 55.92 29.53 55.09 32.83 C 54.59 32.73 53.60 32.54 53.10 32.44 C 52.80 32.57 52.20 32.83 51.89 32.96 C 50.54 33.52 49.20 34.11 47.87 34.70 C 48.39 35.17 49.44 36.10 49.96 36.57 C 42.57 36.03 37.53 29.04 37.52 21.96 C 38.12 22.44 39.32 23.40 39.92 23.88 C 42.30 22.16 45.42 21.85 47.54 19.73 Z" />
<path fill="#2c4d58" opacity="1.00" d=" M 61.32 20.07 C 63.40 22.87 60.81 25.81 59.87 28.50 C 59.39 29.65 58.92 30.80 58.45 31.95 C 57.54 29.49 57.27 26.87 57.75 24.29 C 59.11 23.04 60.41 21.70 61.32 20.07 Z" />
<path fill="#d1d7a7" opacity="1.00" d=" M 64.53 20.25 C 66.42 20.88 68.27 21.61 70.08 22.41 C 67.21 24.16 64.60 26.28 61.95 28.35 C 62.88 25.67 63.67 22.95 64.53 20.25 Z" />
<path fill="#264759" opacity="1.00" d=" M 70.08 22.41 L 70.62 22.07 C 71.48 22.94 72.34 23.80 73.20 24.67 C 71.11 26.66 69.13 28.76 67.38 31.06 C 67.95 32.35 68.52 33.64 69.06 34.94 C 65.41 34.77 62.45 32.23 61.37 28.79 L 61.95 28.35 C 64.60 26.28 67.21 24.16 70.08 22.41 Z" />
<path fill="#e54566" opacity="1.00" d=" M 52.47 24.35 C 54.17 25.46 50.91 28.56 49.31 28.03 C 49.41 26.43 51.08 25.02 52.47 24.35 Z" />
<path fill="#fdedc1" opacity="1.00" d=" M 92.83 27.78 C 95.68 26.60 98.77 27.05 101.14 29.02 C 100.02 29.39 98.90 29.78 97.76 30.08 C 96.33 29.24 94.88 28.41 93.29 27.94 L 92.83 27.78 Z" />
<path fill="#829974" opacity="1.00" d=" M 69.20 31.34 C 72.44 29.63 76.00 28.61 79.57 27.83 C 77.81 29.39 76.02 30.93 74.21 32.43 C 74.52 33.16 74.84 33.90 75.16 34.63 C 72.91 34.66 69.35 34.20 69.20 31.34 Z" />
<path fill="#4d776a" opacity="1.00" d=" M 79.57 27.83 C 82.05 31.39 80.22 35.61 79.03 39.27 C 77.73 37.73 76.35 36.26 75.16 34.63 C 74.84 33.90 74.52 33.16 74.21 32.43 C 76.02 30.93 77.81 29.39 79.57 27.83 Z" />
<path fill="#466864" opacity="1.00" d=" M 84.30 34.80 C 86.69 32.25 89.49 30.14 91.99 27.71 C 92.27 28.16 92.83 29.05 93.10 29.50 C 92.42 29.92 91.05 30.76 90.36 31.18 C 91.31 32.50 92.43 33.68 93.67 34.74 C 93.70 35.29 93.76 36.40 93.79 36.95 C 92.16 37.45 90.53 37.99 88.92 38.55 C 87.38 37.30 85.84 36.05 84.30 34.80 Z" />
<path fill="#799272" opacity="1.00" d=" M 91.99 27.71 L 93.29 27.94 C 94.88 28.41 96.33 29.24 97.76 30.08 C 99.49 31.98 100.92 34.14 102.47 36.18 C 100.05 36.50 97.63 36.22 95.24 35.82 C 96.13 33.29 95.07 31.14 93.10 29.50 C 92.83 29.05 92.27 28.16 91.99 27.71 Z" />
<path fill="#436b66" opacity="1.00" d=" M 58.45 31.95 C 58.92 30.80 59.39 29.65 59.87 28.50 C 60.69 32.02 63.44 34.42 65.81 36.93 C 64.28 38.73 62.85 40.73 60.63 41.74 C 60.62 41.12 60.61 39.89 60.60 39.27 C 60.42 38.80 60.05 37.85 59.86 37.38 C 59.17 35.64 58.88 33.77 58.45 31.95 Z" />
<path fill="#8c9e77" opacity="1.00" d=" M 97.76 30.08 C 98.90 29.78 100.02 29.39 101.14 29.02 C 101.70 29.25 102.81 29.71 103.37 29.94 C 103.66 32.18 103.84 34.43 103.83 36.69 L 102.47 36.18 C 100.92 34.14 99.49 31.98 97.76 30.08 Z" />
<path fill="#365960" opacity="1.00" d=" M 33.87 29.59 C 34.32 29.58 35.22 29.56 35.67 29.55 C 39.07 32.15 40.72 36.30 39.71 40.51 C 37.05 41.46 34.35 42.29 31.62 42.98 C 31.66 42.17 31.73 40.56 31.77 39.75 C 33.17 40.09 34.58 40.39 35.98 40.70 C 36.42 40.16 36.86 39.63 37.30 39.10 L 39.08 38.48 C 38.63 34.87 35.78 32.45 33.87 29.59 Z" />
<path fill="#d23f62" opacity="1.00" d=" M 92.21 31.27 C 93.46 30.58 95.38 32.37 94.84 33.67 C 93.60 34.25 91.76 32.56 92.21 31.27 Z" />
<path fill="#8c9e77" opacity="1.00" d=" M 31.85 34.11 C 34.93 31.30 36.68 36.07 38.02 38.21 L 37.30 39.10 C 36.86 39.63 36.42 40.16 35.98 40.70 C 35.63 38.74 35.46 36.77 35.33 34.79 C 34.84 34.69 33.87 34.50 33.38 34.40 C 33.00 34.33 32.24 34.19 31.85 34.11 Z" />
<path fill="#141310" opacity="0.83" d=" M 47.87 34.70 C 49.20 34.11 50.54 33.52 51.89 32.96 C 54.42 32.99 53.31 35.71 53.37 37.28 C 52.79 37.34 51.64 37.45 51.06 37.50 L 49.96 36.57 C 49.44 36.10 48.39 35.17 47.87 34.70 Z" />
<path fill="#6d7e72" opacity="1.00" d=" M 56.03 34.08 C 56.62 33.42 56.62 33.42 56.03 34.08 Z" />
<path fill="#6d786b" opacity="1.00" d=" M 56.03 34.08 C 55.43 34.72 55.43 34.72 56.03 34.08 Z" />
<path fill="#221e37" opacity="1.00" d=" M 33.38 34.40 C 33.87 34.50 34.84 34.69 35.33 34.79 C 35.46 36.77 35.63 38.74 35.98 40.70 C 34.58 40.39 33.17 40.09 31.77 39.75 L 31.78 39.18 C 32.45 39.18 33.79 39.19 34.46 39.19 C 34.10 37.59 33.74 36.00 33.38 34.40 Z" />
<path fill="#93422f" opacity="1.00" d=" M 54.45 37.18 C 55.65 36.42 56.86 35.68 58.08 34.96 C 58.03 37.64 56.48 39.69 54.26 41.02 C 54.34 39.74 54.40 38.46 54.45 37.18 Z" />
<path fill="#2b4e5e" opacity="1.00" d=" M 81.91 35.91 C 82.71 35.54 83.50 35.17 84.30 34.80 C 85.84 36.05 87.38 37.30 88.92 38.55 C 85.99 39.60 82.98 40.37 79.93 40.95 C 80.57 39.27 81.24 37.59 81.91 35.91 Z" />
<path fill="#d23f62" opacity="1.00" d=" M 64.80 39.99 C 65.93 37.84 67.13 34.46 70.17 36.33 C 68.63 37.88 66.77 39.06 64.80 39.99 Z" />
<path fill="#28495a" opacity="1.00" d=" M 42.87 36.94 C 44.72 37.34 46.57 37.75 48.42 38.19 C 44.47 41.18 40.84 44.63 36.57 47.16 C 36.20 45.98 35.82 44.80 35.45 43.63 C 37.18 42.99 39.02 42.59 40.61 41.64 C 42.27 40.67 42.37 38.59 42.87 36.94 Z" />
<path fill="#aba344" opacity="1.00" d=" M 48.65 37.88 C 49.25 37.79 50.46 37.60 51.06 37.50 C 51.64 37.45 52.79 37.34 53.37 37.28 L 54.45 37.18 C 54.40 38.46 54.34 39.74 54.26 41.02 C 53.59 41.03 52.27 41.04 51.61 41.04 C 52.55 39.66 52.40 38.62 51.16 37.92 C 49.91 38.50 49.54 39.51 50.04 40.97 C 49.26 40.10 48.80 39.07 48.65 37.88 Z" />
<path fill="#829974" opacity="1.00" d=" M 27.29 39.20 C 28.17 37.56 30.42 38.99 31.78 39.18 L 31.77 39.75 C 31.73 40.56 31.66 42.17 31.62 42.98 L 31.58 43.61 C 30.74 44.11 29.90 44.61 29.07 45.10 C 28.51 43.14 27.28 41.27 27.29 39.20 Z" />
<path fill="#f3f2d4" opacity="1.00" d=" M 50.04 40.97 C 49.54 39.51 49.91 38.50 51.16 37.92 C 52.40 38.62 52.55 39.66 51.61 41.04 C 51.22 41.02 50.43 40.99 50.04 40.97 Z" />
<path fill="#97a679" opacity="1.00" d=" M 59.86 37.38 C 60.05 37.85 60.42 38.80 60.60 39.27 C 60.61 39.89 60.62 41.12 60.63 41.74 L 60.63 41.96 C 58.61 43.42 56.63 44.96 54.91 46.78 C 53.96 47.95 53.08 49.18 52.19 50.41 C 51.54 50.61 50.23 51.02 49.58 51.23 C 49.71 49.64 49.84 48.05 49.98 46.47 L 50.19 46.50 C 50.66 46.58 51.60 46.74 52.07 46.81 C 53.87 45.46 55.16 43.59 56.34 41.71 C 57.42 40.19 58.67 38.81 59.86 37.38 Z" />
<path fill="#e2465f" opacity="1.00" d=" M 64.54 42.95 C 66.60 39.77 70.68 38.40 74.21 37.54 C 71.79 41.16 68.31 43.80 64.79 46.26 C 64.73 45.43 64.60 43.78 64.54 42.95 Z" />
<path fill="#90285e" opacity="1.00" d=" M 74.21 37.54 C 74.67 43.32 70.90 49.44 64.98 50.50 C 64.65 48.00 64.48 45.48 64.54 42.95 C 64.60 43.78 64.73 45.43 64.79 46.26 C 68.31 43.80 71.79 41.16 74.21 37.54 Z" />
<path fill="#3b3548" opacity="1.00" d=" M 74.90 37.43 C 76.87 39.80 76.10 43.11 76.43 45.95 C 75.20 46.33 73.97 46.74 72.75 47.17 C 74.52 44.20 74.88 40.81 74.90 37.43 Z" />
<path fill="#fdedc1" opacity="1.00" d=" M 50.19 46.50 C 51.65 44.25 53.86 42.67 56.34 41.71 C 55.16 43.59 53.87 45.46 52.07 46.81 C 51.60 46.74 50.66 46.58 50.19 46.50 Z" />
<path fill="#264759" opacity="1.00" d=" M 77.98 42.31 C 82.41 42.71 86.88 42.49 91.26 41.68 C 91.06 42.27 90.68 43.46 90.49 44.05 C 87.69 45.01 84.98 46.18 82.37 47.57 L 82.15 47.56 C 80.88 46.56 79.66 45.52 78.43 44.48 C 78.31 43.93 78.09 42.85 77.98 42.31 Z" />
<path fill="#436663" opacity="1.00" d=" M 91.26 41.68 C 94.24 41.06 97.33 41.23 100.20 42.28 C 99.52 42.63 98.16 43.33 97.48 43.67 C 97.30 44.67 97.11 45.67 96.93 46.67 C 94.97 45.39 92.78 44.49 90.49 44.05 C 90.68 43.46 91.06 42.27 91.26 41.68 Z" />
<path fill="#67836c" opacity="1.00" d=" M 97.48 43.67 C 98.16 43.33 99.52 42.63 100.20 42.28 C 101.72 43.82 103.05 45.56 103.96 47.52 C 102.21 47.37 100.84 48.30 100.31 49.97 C 100.72 50.16 101.52 50.53 101.92 50.71 C 101.56 51.47 100.84 52.98 100.48 53.73 L 100.07 52.60 C 99.38 50.46 98.24 48.49 96.93 46.67 C 97.11 45.67 97.30 44.67 97.48 43.67 Z" />
<path fill="#4f796f" opacity="1.00" d=" M 33.76 44.30 C 34.19 44.13 35.03 43.80 35.45 43.63 C 35.82 44.80 36.20 45.98 36.57 47.16 C 35.03 48.05 33.53 49.06 32.39 50.45 C 29.64 52.92 32.19 58.61 27.43 59.06 C 27.28 56.60 27.28 54.14 27.27 51.68 C 27.74 50.90 28.17 50.10 28.60 49.30 C 28.68 49.20 28.83 49.00 28.91 48.90 C 31.60 48.84 33.32 46.85 33.76 44.30 Z" />
<path fill="#edddb4" opacity="1.00" d=" M 44.51 44.43 C 46.01 44.32 47.50 44.21 48.99 44.10 C 47.85 47.99 48.19 52.02 48.77 55.97 C 45.94 53.52 46.74 49.79 46.69 46.48 C 45.64 48.49 45.41 50.76 45.33 53.00 C 45.23 53.44 45.04 54.32 44.94 54.76 C 42.86 55.44 40.74 56.00 38.63 56.57 C 37.83 55.72 37.05 54.85 36.28 53.97 C 38.25 50.98 41.06 48.71 44.15 46.97 C 44.24 46.33 44.42 45.06 44.51 44.43 Z" />
<path fill="#fdedc1" opacity="1.00" d=" M 28.91 48.90 C 30.17 47.03 31.70 45.31 33.76 44.30 C 33.32 46.85 31.60 48.84 28.91 48.90 Z" />
<path fill="#ebddb5" opacity="1.00" d=" M 56.15 51.35 C 55.80 47.61 58.52 43.48 62.70 44.58 C 62.43 46.34 62.17 48.11 61.92 49.87 C 60.00 50.38 58.08 50.87 56.15 51.35 Z" />
<path fill="#c7b496" opacity="1.00" d=" M 62.70 44.58 C 63.06 46.99 63.19 49.45 62.76 51.85 C 61.93 53.33 60.11 53.91 58.82 54.93 C 57.93 53.74 57.05 52.54 56.15 51.35 C 58.08 50.87 60.00 50.38 61.92 49.87 C 62.17 48.11 62.43 46.34 62.70 44.58 Z" />
<path fill="#221e37" opacity="1.00" d=" M 72.75 47.17 C 73.97 46.74 75.20 46.33 76.43 45.95 C 76.00 47.87 76.02 50.08 74.64 51.63 C 71.63 52.89 68.24 53.67 64.98 53.21 C 64.87 52.71 64.66 51.70 64.56 51.19 C 67.92 51.24 70.28 49.06 72.75 47.17 Z" />
<path fill="#416f67" opacity="1.00" d=" M 52.19 50.41 C 53.08 49.18 53.96 47.95 54.91 46.78 C 52.94 52.87 59.95 56.55 60.16 62.41 C 53.86 63.41 50.63 56.32 49.58 51.23 C 50.23 51.02 51.54 50.61 52.19 50.41 Z" />
<path fill="#efe2b7" opacity="1.00" d=" M 19.31 47.89 C 20.08 48.97 20.73 50.12 21.33 51.31 C 20.94 51.86 20.17 52.97 19.78 53.52 C 19.46 51.66 19.22 49.78 19.31 47.89 Z" />
<path fill="#244450" opacity="1.00" d=" M 32.63 52.62 C 33.98 49.78 36.91 48.21 39.78 47.29 C 37.29 50.07 35.23 53.21 32.65 55.90 C 31.24 55.15 32.21 53.70 32.63 52.62 Z" />
<path fill="#e0e5bc" opacity="1.00" d=" M 100.31 49.97 C 100.84 48.30 102.21 47.37 103.96 47.52 C 104.49 48.65 104.97 49.80 105.40 50.97 L 105.77 52.27 C 104.47 51.77 103.19 51.25 101.92 50.71 C 101.52 50.53 100.72 50.16 100.31 49.97 Z" />
<path fill="#568172" opacity="1.00" d=" M 21.33 51.31 C 22.51 52.60 23.97 53.54 25.53 54.30 C 25.68 55.75 25.82 57.21 25.95 58.67 C 23.14 58.04 21.31 55.79 19.78 53.52 C 20.17 52.97 20.94 51.86 21.33 51.31 Z" />
<path fill="#97a679" opacity="1.00" d=" M 101.92 50.71 C 103.19 51.25 104.47 51.77 105.77 52.27 L 105.40 50.97 C 107.29 54.93 107.62 59.39 105.85 63.46 C 104.24 62.31 102.71 61.05 101.41 59.55 C 102.07 59.45 103.38 59.25 104.03 59.16 C 103.96 57.90 103.88 56.65 103.78 55.40 C 103.08 55.37 101.68 55.33 100.98 55.30 C 100.85 54.91 100.60 54.12 100.48 53.73 C 100.84 52.98 101.56 51.47 101.92 50.71 Z" />
<path fill="#d9ae8f" opacity="1.00" d=" M 73.36 54.83 C 75.09 53.81 76.65 52.54 77.90 50.96 C 79.95 53.53 82.16 56.01 83.83 58.86 C 80.95 58.13 78.04 57.43 75.05 57.42 C 74.50 56.55 73.92 55.69 73.36 54.83 Z" />
<path fill="#d0ae90" opacity="1.00" d=" M 45.33 53.00 C 46.17 54.86 47.61 56.31 49.25 57.48 C 46.97 58.09 44.69 58.72 42.42 59.38 C 41.13 58.48 39.83 57.59 38.63 56.57 C 40.74 56.00 42.86 55.44 44.94 54.76 C 45.04 54.32 45.23 53.44 45.33 53.00 Z" />
<path fill="#5a5242" opacity="1.00" d=" M 100.07 52.60 L 100.48 53.73 C 100.60 54.12 100.85 54.91 100.98 55.30 C 101.68 55.33 103.08 55.37 103.78 55.40 C 103.88 56.65 103.96 57.90 104.03 59.16 C 103.38 59.25 102.07 59.45 101.41 59.55 C 100.38 57.38 100.35 54.94 100.07 52.60 Z" />
<path fill="#937d67" opacity="0.82" d=" M 59.76 56.09 C 60.95 55.02 62.31 54.18 63.67 53.36 C 64.50 56.04 62.81 58.20 61.32 60.19 C 60.81 58.97 60.32 57.74 59.84 56.50 L 60.26 56.44 C 60.13 56.35 59.89 56.18 59.76 56.09 Z" />
<path fill="#3d6e67" opacity="1.00" d=" M 34.41 55.62 C 35.54 57.06 36.66 58.52 37.77 59.98 C 34.95 61.12 32.14 62.27 29.24 63.17 C 29.24 62.25 29.24 61.32 29.24 60.40 C 31.22 59.10 32.92 57.44 34.41 55.62 Z" />
<path fill="#e2c2a0" opacity="0.94" d=" M 59.76 56.09 C 59.89 56.18 60.13 56.35 60.26 56.44 L 59.84 56.50 L 59.76 56.09 Z" />
<path fill="#f7e0b7" opacity="1.00" d=" M 75.05 57.42 C 78.04 57.43 80.95 58.13 83.83 58.86 L 83.87 58.87 C 86.09 62.67 89.42 65.87 90.70 70.17 L 89.55 71.47 C 87.09 69.80 84.56 68.24 81.88 66.96 C 79.59 63.79 77.10 60.76 75.05 57.42 Z" />
<path fill="#efe2b7" opacity="1.00" d=" M 42.42 59.38 C 44.69 58.72 46.97 58.09 49.25 57.48 C 51.65 59.44 53.53 62.00 56.20 63.63 C 58.83 70.24 56.00 76.95 54.06 83.30 C 51.59 86.56 48.65 89.40 45.62 92.13 C 43.31 93.20 40.88 92.18 38.86 90.99 C 38.56 89.66 38.27 88.34 37.93 87.03 C 37.24 85.76 36.44 84.54 35.63 83.34 C 41.59 77.00 43.95 67.88 42.42 59.38 Z" />
<path fill="#597d6a" opacity="1.00" d=" M 22.14 64.17 C 24.40 62.73 26.76 61.43 29.24 60.40 C 29.24 61.32 29.24 62.25 29.24 63.17 C 27.32 63.99 25.46 64.96 23.61 65.93 C 23.24 65.49 22.51 64.61 22.14 64.17 Z" />
<path fill="#365e61" opacity="1.00" d=" M 35.27 62.37 C 36.80 61.50 38.42 60.77 40.14 60.35 C 38.89 66.38 37.32 72.62 33.59 77.63 C 32.96 75.70 32.32 73.65 30.48 72.53 C 32.48 69.59 34.03 66.36 35.07 62.97 L 35.27 62.37 Z" />
<path fill="#96a678" opacity="1.00" d=" M 26.95 69.10 C 28.77 66.21 31.46 63.28 35.07 62.97 C 34.03 66.36 32.48 69.59 30.48 72.53 C 30.06 73.14 29.23 74.36 28.81 74.97 C 27.44 73.38 25.55 71.27 26.95 69.10 Z" />
<path fill="#6d8b71" opacity="1.00" d=" M 56.20 63.63 C 57.39 63.94 58.59 64.23 59.79 64.51 C 59.08 67.96 58.18 71.50 58.92 75.02 C 59.44 77.73 59.64 80.49 59.42 83.25 C 59.13 83.76 58.56 84.77 58.28 85.28 C 57.74 84.90 56.66 84.13 56.12 83.74 C 56.35 82.77 56.56 81.79 56.74 80.81 C 56.07 81.44 54.73 82.68 54.06 83.30 C 56.00 76.95 58.83 70.24 56.20 63.63 Z" />
<path fill="#cbd7a2" opacity="1.00" d=" M 16.39 72.14 C 17.15 68.77 19.50 66.24 22.14 64.17 C 22.51 64.61 23.24 65.49 23.61 65.93 C 20.03 68.29 17.83 72.89 20.67 76.78 C 18.81 75.66 17.37 74.07 16.39 72.14 Z" />
<path fill="#fdedc1" opacity="1.00" d=" M 32.09 80.98 C 36.40 77.25 38.97 72.07 40.65 66.72 C 40.93 72.93 37.62 78.81 33.22 82.98 C 32.94 82.48 32.37 81.48 32.09 80.98 Z" />
<path fill="#bfb948" opacity="1.00" d=" M 74.71 68.82 C 76.40 68.01 78.09 67.19 79.78 66.37 C 79.07 67.33 78.31 68.24 77.49 69.11 C 76.22 70.49 74.95 71.86 73.72 73.27 L 72.05 72.79 L 71.20 72.54 C 72.21 71.63 73.23 70.73 74.25 69.83 L 74.60 69.07 C 74.63 69.01 74.69 68.89 74.71 68.82 Z" />
<path fill="#231f39" opacity="1.00" d=" M 81.88 66.96 C 84.56 68.24 87.09 69.80 89.55 71.47 C 89.11 73.00 90.93 73.55 91.78 74.46 C 86.95 76.75 82.26 79.29 77.61 81.91 C 76.13 79.38 74.66 76.83 72.84 74.53 C 73.06 74.22 73.50 73.58 73.72 73.27 C 74.95 71.86 76.22 70.49 77.49 69.11 C 78.87 70.37 80.96 69.87 82.65 69.82 C 82.40 68.87 82.14 67.91 81.88 66.96 M 80.28 75.17 L 79.49 75.74 C 81.13 76.22 83.33 77.52 84.65 75.70 C 85.74 74.29 84.01 72.81 83.03 71.95 C 81.28 70.94 78.75 73.60 80.28 75.17 Z" />
<path fill="#d8425a" opacity="1.00" d=" M 80.28 75.17 C 78.75 73.60 81.28 70.94 83.03 71.95 C 82.62 73.38 81.49 74.40 80.28 75.17 Z" />
<path fill="#882655" opacity="1.00" d=" M 83.03 71.95 C 84.01 72.81 85.74 74.29 84.65 75.70 C 83.33 77.52 81.13 76.22 79.49 75.74 L 80.28 75.17 C 81.49 74.40 82.62 73.38 83.03 71.95 Z" />
<path fill="#fdfcec" opacity="1.00" d=" M 64.81 79.55 C 67.08 77.31 68.93 73.50 72.05 72.79 L 73.72 73.27 C 73.50 73.58 73.06 74.22 72.84 74.53 C 71.07 77.33 68.61 80.45 64.81 79.55 Z" />
<path fill="#fdedc1" opacity="1.00" d=" M 26.63 80.99 C 28.56 79.18 29.09 75.55 31.99 75.04 C 31.01 77.74 28.97 79.88 28.01 82.58 C 27.55 82.05 27.09 81.52 26.63 80.99 Z" />
<path fill="#f4e368" opacity="1.00" d=" M 64.81 79.55 C 68.61 80.45 71.07 77.33 72.84 74.53 C 72.98 75.24 73.27 76.64 73.42 77.34 C 71.02 79.37 68.47 81.19 65.97 83.09 C 65.28 82.00 64.79 80.80 64.43 79.56 L 64.81 79.55 Z" />
<path fill="#a54e36" opacity="1.00" d=" M 73.42 77.34 C 74.43 78.92 75.40 80.53 76.37 82.13 C 74.31 83.64 72.19 85.06 70.00 86.39 C 68.68 85.27 67.34 84.16 65.97 83.09 C 68.47 81.19 71.02 79.37 73.42 77.34 Z" />
<path fill="#000000" opacity="1.00" d=" M 54.06 83.30 C 54.73 82.68 56.07 81.44 56.74 80.81 C 56.56 81.79 56.35 82.77 56.12 83.74 C 54.50 85.60 52.76 87.36 51.01 89.10 C 49.41 90.42 47.57 91.43 45.62 92.13 C 48.65 89.40 51.59 86.56 54.06 83.30 Z" />
<path fill="#fdedc1" opacity="1.00" d=" M 59.83 82.67 C 61.01 82.50 62.19 82.36 63.38 82.25 C 64.85 83.99 66.50 85.56 68.28 86.97 C 68.36 90.06 68.50 93.15 68.28 96.24 C 66.00 93.21 64.00 89.66 64.61 85.72 C 63.02 84.71 61.40 83.72 59.83 82.67 Z" />
<path fill="#3f374c" opacity="1.00" d=" M 25.16 83.00 C 25.89 82.95 27.36 82.84 28.09 82.79 C 27.23 86.69 25.33 91.73 21.25 93.04 C 22.49 89.67 24.38 86.54 25.16 83.00 Z" />
<path fill="#bcb145" opacity="1.00" d=" M 31.16 83.29 C 34.49 83.27 29.67 86.39 31.16 83.29 Z" />
<path fill="#a5af7b" opacity="1.00" d=" M 34.53 84.54 C 34.80 84.24 35.35 83.64 35.63 83.34 C 36.44 84.54 37.24 85.76 37.93 87.03 C 37.49 87.26 36.61 87.72 36.17 87.95 C 37.05 88.98 37.92 90.02 38.86 90.99 C 40.88 92.18 43.31 93.20 45.62 92.13 C 47.57 91.43 49.41 90.42 51.01 89.10 C 54.41 90.91 56.76 87.91 58.28 85.28 C 58.56 84.77 59.13 83.76 59.42 83.25 C 59.56 83.56 59.84 84.18 59.98 84.49 C 61.17 93.24 62.57 102.31 60.25 111.00 L 25.39 111.00 C 25.14 108.78 24.76 106.56 24.76 104.32 C 26.63 97.78 29.22 91.19 34.45 86.57 C 34.47 86.06 34.51 85.05 34.53 84.54 Z" />
<path fill="#829974" opacity="1.00" d=" M 51.01 89.10 C 52.76 87.36 54.50 85.60 56.12 83.74 C 56.66 84.13 57.74 84.90 58.28 85.28 C 56.76 87.91 54.41 90.91 51.01 89.10 Z" />
<path fill="#fdedc1" opacity="1.00" d=" M 34.53 84.54 C 34.51 85.05 34.47 86.06 34.45 86.57 C 29.22 91.19 26.63 97.78 24.76 104.32 C 24.55 96.54 28.66 89.40 34.53 84.54 Z" />
<path fill="#62846e" opacity="1.00" d=" M 59.98 84.49 C 60.94 84.97 61.91 85.45 62.88 85.92 C 62.87 90.39 64.78 94.46 67.95 97.55 C 68.63 97.53 70.00 97.48 70.68 97.46 C 70.50 102.09 69.50 106.66 67.88 111.00 L 60.25 111.00 C 62.57 102.31 61.17 93.24 59.98 84.49 Z" />
<path fill="#000000" opacity="1.00" d=" M 36.17 87.95 C 36.61 87.72 37.49 87.26 37.93 87.03 C 38.27 88.34 38.56 89.66 38.86 90.99 C 37.92 90.02 37.05 88.98 36.17 87.95 Z" />
<path fill="#90735f" opacity="1.00" d=" M 70.32 88.35 C 71.62 88.54 71.82 89.27 70.92 90.55 C 69.62 90.36 69.42 89.63 70.32 88.35 Z" />
<path fill="#240a16" opacity="0.82" d=" M 11.24 111.00 C 13.45 105.72 16.15 100.67 18.22 95.33 C 18.83 95.51 20.05 95.86 20.66 96.03 C 19.04 97.89 17.76 100.01 16.93 102.34 C 15.78 105.26 14.64 108.18 13.25 111.00 L 11.24 111.00 Z" />
<path fill="#d9ae8f" opacity="1.00" d=" M 21.19 103.90 C 21.59 101.04 22.29 98.22 23.41 95.56 C 23.27 98.19 23.16 100.84 22.55 103.41 C 22.21 103.54 21.53 103.78 21.19 103.90 Z" />
<path fill="#90285c" opacity="1.00" d=" M 16.93 102.34 C 17.76 100.01 19.04 97.89 20.66 96.03 C 21.29 100.32 19.98 104.54 18.32 108.45 C 17.85 106.42 17.39 104.38 16.93 102.34 Z" />
<path fill="#d23f62" opacity="1.00" d=" M 13.25 111.00 C 14.64 108.18 15.78 105.26 16.93 102.34 C 17.39 104.38 17.85 106.42 18.32 108.45 L 17.89 109.60 C 17.75 109.95 17.48 110.65 17.34 111.00 L 13.25 111.00 Z" />
<path fill="#756252" opacity="1.00" d=" M 21.09 105.02 C 24.13 103.51 21.13 108.35 21.09 105.02 Z" />
</svg>
