<?xml version="1.0" encoding="UTF-8" ?>
<!DOCTYPE svg PUBLIC "-//W3C//DTD SVG 1.1//EN" "http://www.w3.org/Graphics/SVG/1.1/DTD/svg11.dtd">
<svg width="111pt" height="111pt" viewBox="0 0 111 111" version="1.1" xmlns="http://www.w3.org/2000/svg">
<path fill="#c1863f" opacity="1.00" d=" M 0.00 0.00 L 1.34 0.00 C 1.29 2.82 1.26 5.64 1.21 8.46 C 0.91 8.91 0.30 9.82 0.00 10.27 L 0.00 0.00 Z" />
<path fill="#000000" opacity="1.00" d=" M 1.34 0.00 L 4.23 0.00 C 4.30 3.01 3.53 6.26 5.08 9.03 C 5.09 9.06 5.11 9.11 5.13 9.14 C 3.35 11.79 3.82 15.01 3.78 18.02 C 3.79 28.05 3.57 38.08 4.34 48.09 C 4.38 52.27 4.51 56.46 4.61 60.64 C 5.68 60.03 6.76 59.43 7.86 58.87 C 8.34 58.63 9.30 58.15 9.78 57.91 C 9.56 47.17 9.88 36.43 9.68 25.69 C 10.28 17.14 10.48 8.55 9.76 0.00 L 13.08 0.00 C 13.05 2.22 13.03 4.44 13.09 6.65 C 15.90 4.77 17.91 1.97 20.65 0.00 L 25.45 0.00 C 24.48 4.67 23.72 9.56 25.17 14.22 C 29.73 12.44 35.23 9.61 35.84 4.17 C 34.23 2.66 32.45 1.33 30.69 0.00 L 35.96 0.00 C 37.60 2.27 38.55 5.05 38.59 7.86 C 38.13 9.93 36.51 11.48 35.42 13.25 C 32.80 14.92 30.20 17.02 27.00 17.37 C 25.30 16.58 23.82 15.40 22.31 14.31 C 19.97 11.53 20.91 7.71 20.70 4.37 C 18.71 6.06 16.62 7.62 14.46 9.08 C 14.25 9.23 13.84 9.54 13.63 9.70 C 13.40 22.04 12.47 34.38 12.84 46.75 C 17.04 45.96 21.14 47.24 25.11 48.49 C 27.74 42.92 29.98 37.13 31.42 31.14 C 32.17 27.86 32.07 24.09 34.63 21.55 C 39.60 15.29 48.02 13.79 55.56 13.53 C 56.29 11.89 57.26 10.32 57.58 8.55 C 56.69 6.46 55.43 4.00 53.04 3.41 C 51.11 3.58 49.47 4.78 47.74 5.53 C 45.97 3.80 44.39 1.90 42.81 0.00 L 46.70 0.00 C 47.10 0.48 47.90 1.45 48.31 1.93 C 49.86 1.33 51.38 0.57 53.04 0.30 C 55.26 0.45 56.91 2.14 58.53 3.49 C 59.88 5.43 60.70 7.66 60.93 10.01 C 62.59 8.38 64.19 6.69 65.79 5.00 C 66.77 4.01 67.81 3.08 68.85 2.16 C 68.75 2.66 68.54 3.65 68.44 4.15 C 68.00 5.99 67.44 7.79 66.96 9.62 C 66.32 13.17 65.15 16.59 63.83 19.94 C 63.32 21.18 62.76 22.40 62.22 23.63 C 68.01 22.02 74.46 21.74 80.00 24.39 C 82.53 16.19 84.96 7.65 90.33 0.79 C 91.01 1.86 91.69 2.93 92.36 4.00 C 95.19 2.37 98.38 1.72 101.61 1.58 C 102.02 1.19 102.86 0.40 103.28 0.00 L 107.92 0.00 C 106.30 2.38 104.58 4.72 102.33 6.55 C 98.45 5.60 93.64 6.68 91.89 10.55 C 91.78 18.68 91.74 26.88 90.76 34.95 C 92.26 36.82 94.90 36.73 97.05 37.12 C 101.73 37.54 106.44 37.77 111.00 38.97 L 111.00 43.26 C 103.83 40.92 95.89 42.36 89.01 39.02 C 88.20 37.68 87.46 36.31 86.72 34.94 C 86.21 37.32 85.45 39.78 85.99 42.23 C 86.67 43.70 88.24 44.47 89.40 45.52 C 89.52 46.23 89.76 47.66 89.89 48.37 C 94.87 47.06 98.63 50.90 102.97 52.48 C 104.92 53.34 107.05 53.93 108.71 55.31 C 110.00 56.69 110.39 58.64 111.00 60.38 L 111.00 63.80 L 110.31 64.49 C 108.87 63.50 107.46 62.45 105.90 61.65 C 102.04 62.78 98.45 64.68 94.61 65.90 C 95.03 68.78 95.47 71.67 96.12 74.52 C 98.02 75.43 99.09 76.96 98.70 79.10 C 101.30 77.66 103.93 74.60 107.17 75.68 C 109.12 79.02 109.72 82.93 111.00 86.55 L 111.00 111.00 L 109.35 111.00 C 108.68 108.56 108.11 106.09 107.31 103.69 C 106.35 101.02 105.16 98.45 103.99 95.88 C 102.28 92.21 100.19 88.72 97.90 85.38 C 97.07 86.78 95.94 88.06 95.48 89.64 C 95.77 91.84 96.71 93.89 97.64 95.89 C 99.73 99.54 101.41 103.40 103.39 107.11 C 104.22 108.45 105.10 109.76 106.06 111.00 L 100.99 111.00 C 100.58 109.43 99.97 109.43 99.17 111.00 L 91.48 111.00 C 93.36 109.70 95.21 108.28 97.36 107.45 C 97.90 107.28 98.98 106.93 99.52 106.76 C 98.10 101.79 94.92 97.63 92.46 93.16 C 92.59 94.86 92.71 96.56 92.70 98.26 C 90.54 102.29 89.19 106.66 87.84 111.00 L 78.56 111.00 C 80.24 110.16 81.85 109.18 83.47 108.22 C 82.34 106.23 81.21 104.24 80.12 102.23 C 79.52 101.08 78.95 99.92 78.41 98.75 C 78.20 98.29 77.80 97.37 77.59 96.91 C 76.72 98.39 75.87 99.89 75.19 101.48 C 74.39 103.30 73.57 105.11 72.64 106.87 C 71.92 108.13 70.91 109.46 71.23 111.00 L 68.61 111.00 C 70.24 106.96 72.89 103.29 73.63 98.93 C 71.56 100.33 69.31 101.60 67.70 103.54 C 66.23 105.74 65.94 108.44 65.60 111.00 L 61.78 111.00 C 63.25 110.62 62.98 108.05 61.31 109.06 C 60.99 109.54 60.37 110.51 60.05 111.00 L 55.63 111.00 C 58.35 109.35 61.28 107.85 63.31 105.33 C 57.69 107.24 51.90 108.68 46.43 111.00 L 33.97 111.00 L 33.21 110.18 C 41.83 107.25 51.12 104.44 57.48 97.53 C 59.74 95.16 62.24 92.87 63.71 89.89 C 63.88 88.02 61.90 86.67 61.06 85.13 C 57.38 86.87 54.52 89.83 51.54 92.52 C 47.69 96.18 43.71 99.71 39.73 103.23 C 36.92 105.60 34.23 108.11 31.94 111.00 L 27.64 111.00 C 34.20 104.42 41.32 98.46 48.15 92.17 C 52.22 88.69 55.97 84.69 60.84 82.29 C 62.31 83.58 63.80 84.84 65.32 86.07 C 65.79 84.73 66.26 83.38 66.72 82.04 C 65.17 80.99 63.63 79.93 62.11 78.86 C 62.37 77.95 62.63 77.03 62.89 76.11 C 60.21 74.22 57.96 71.82 56.22 69.04 C 55.31 73.22 54.24 77.46 52.15 81.22 C 49.78 82.40 46.95 81.49 44.41 81.57 C 45.01 87.07 41.63 91.68 38.94 96.11 C 38.43 96.10 37.43 96.07 36.93 96.05 C 32.67 95.52 28.43 94.52 24.66 92.41 C 23.27 93.78 21.88 95.15 20.66 96.67 L 20.31 97.53 C 19.49 97.48 17.86 97.39 17.04 97.34 C 15.64 95.81 14.21 94.30 12.71 92.86 C 12.87 96.59 11.51 100.84 14.32 103.93 L 14.06 105.10 C 12.84 107.08 11.69 109.11 10.34 111.00 L 7.66 111.00 C 6.24 109.04 4.82 107.08 3.50 105.05 C 4.52 104.43 5.53 103.82 6.54 103.21 C 6.61 100.09 7.21 96.19 3.45 95.13 C 3.43 94.39 3.40 92.90 3.38 92.16 C 2.25 92.68 1.12 93.22 -0.00 93.77 L 0.00 90.46 C 0.56 89.69 1.12 88.92 1.68 88.16 C 0.33 86.07 0.77 83.55 0.00 81.28 L 0.00 76.67 C 1.47 76.49 2.82 76.62 4.04 77.09 C 4.18 78.76 2.23 79.12 1.25 80.05 C 2.80 82.24 5.26 81.83 7.12 80.34 C 6.41 79.30 5.02 78.47 5.33 77.03 L 5.71 76.62 C 8.26 76.86 9.99 79.35 8.80 81.72 C 7.35 85.52 9.54 89.28 9.50 93.13 C 9.09 93.63 8.28 94.62 7.88 95.12 C 7.89 97.63 7.92 100.21 8.81 102.60 C 10.86 101.86 9.92 99.22 10.26 97.64 C 10.48 97.57 10.93 97.42 11.16 97.35 C 9.88 91.96 10.64 86.41 10.70 80.95 C 10.89 79.11 10.63 76.67 12.43 75.54 C 17.19 73.98 22.23 73.51 27.03 72.09 C 27.41 71.69 28.16 70.89 28.54 70.49 C 29.31 69.69 30.09 68.90 30.87 68.11 C 20.56 70.27 10.44 73.42 0.00 74.91 L 0.00 70.64 C 0.94 71.06 1.88 71.47 2.83 71.87 C 3.60 71.83 5.16 71.75 5.93 71.72 C 8.47 71.17 11.04 70.61 13.41 69.54 C 13.78 67.71 13.77 65.83 13.87 63.97 C 10.65 65.19 7.38 66.30 4.12 67.42 L 2.67 68.01 C 1.76 68.55 0.87 69.13 0.00 69.74 L 0.00 63.94 C 3.06 61.43 1.28 57.13 1.46 53.73 C 1.10 53.49 0.37 52.99 0.00 52.75 L 0.00 49.40 C 0.36 48.83 1.07 47.70 1.42 47.13 C 0.82 41.58 0.30 35.98 0.90 30.41 C 1.41 25.27 1.25 20.09 1.14 14.94 C 0.85 14.51 0.28 13.63 0.00 13.19 L 0.00 10.27 C 0.30 9.82 0.91 8.91 1.21 8.46 C 1.26 5.64 1.29 2.82 1.34 0.00 M 85.33 19.30 C 83.56 18.98 83.01 21.90 83.83 23.06 C 82.37 24.21 82.56 26.31 82.20 27.96 C 80.31 30.57 80.85 34.23 79.98 37.26 C 83.80 34.91 86.56 31.19 88.03 26.98 C 88.21 22.14 88.84 17.30 88.61 12.45 C 89.01 11.36 89.30 10.24 89.53 9.11 C 87.17 11.81 85.50 15.73 85.33 19.30 M 59.18 19.59 C 55.85 23.03 53.15 27.14 51.26 31.53 C 50.66 32.27 50.21 33.09 49.91 34.01 C 51.72 34.64 53.53 35.29 55.34 35.94 C 58.06 28.70 60.27 21.29 62.85 14.02 C 61.31 15.63 59.50 17.25 59.18 19.59 M 36.17 25.11 C 36.36 32.73 33.38 39.90 30.62 46.86 C 29.38 49.19 28.36 53.23 24.98 52.76 C 20.97 51.96 17.15 50.43 13.29 49.12 C 13.28 51.39 13.02 53.68 13.33 55.94 C 14.18 57.49 14.83 59.12 14.94 60.91 C 17.42 62.95 16.16 66.21 16.20 68.96 C 21.14 67.99 26.08 66.95 30.95 65.68 C 32.82 65.30 31.26 63.03 31.38 61.86 C 33.38 59.82 35.96 58.57 38.64 57.67 C 38.76 55.99 37.99 53.87 39.68 52.74 C 42.90 49.88 46.46 47.40 49.98 44.92 C 51.55 43.41 54.05 45.54 55.50 44.01 C 55.77 42.06 55.04 40.12 54.80 38.19 C 52.21 37.46 49.68 36.57 47.22 35.48 C 47.99 28.73 52.18 22.90 55.84 17.35 C 48.63 17.23 40.80 19.18 36.17 25.11 M 71.81 25.07 C 72.19 26.21 72.91 27.15 73.76 27.98 C 74.88 29.87 76.03 31.78 77.74 33.22 C 78.16 31.24 79.14 29.22 78.75 27.17 C 77.92 26.65 77.06 26.17 76.17 25.73 C 74.72 25.52 73.26 25.28 71.81 25.07 M 61.74 37.94 C 61.43 39.26 61.12 40.58 60.82 41.91 L 59.60 41.70 C 59.53 39.14 59.55 36.58 59.53 34.02 C 57.73 36.00 57.80 38.83 57.57 41.33 L 58.12 41.43 C 58.77 43.61 60.58 44.96 62.58 45.82 C 62.91 45.21 63.57 43.99 63.90 43.38 C 64.76 44.43 65.61 45.50 66.45 46.58 C 67.22 47.97 67.92 49.67 69.66 50.03 L 69.90 49.03 C 73.14 46.34 76.58 43.16 77.75 39.00 C 76.00 35.25 73.49 31.87 70.85 28.70 C 71.12 27.09 69.39 25.75 67.89 26.40 C 64.37 29.26 62.89 33.72 61.74 37.94 M 80.27 39.33 C 78.82 39.96 77.77 42.04 78.17 43.55 C 79.70 43.56 82.01 40.24 80.27 39.33 M 77.96 48.14 C 81.34 46.61 84.52 42.64 83.86 38.80 C 81.95 41.94 79.11 44.60 77.96 48.14 M 58.04 45.10 C 57.05 47.63 60.21 48.58 61.65 49.98 C 62.16 47.52 59.68 46.33 58.04 45.10 M 79.99 50.63 C 82.41 51.63 85.90 48.38 83.80 46.20 C 81.94 47.04 81.04 49.01 79.99 50.63 M 52.36 47.38 C 50.21 49.28 48.90 51.89 47.29 54.22 C 47.72 54.62 48.58 55.44 49.01 55.84 C 50.49 56.96 51.95 58.11 53.37 59.32 C 54.41 60.81 55.46 62.29 56.50 63.78 C 57.94 62.68 59.42 61.63 60.98 60.71 C 61.61 58.93 62.43 57.17 62.58 55.26 C 62.12 54.18 60.98 53.60 60.18 52.79 C 59.23 51.78 58.32 50.71 57.24 49.83 C 55.80 48.75 54.36 47.05 52.36 47.38 M 71.24 52.73 C 71.76 53.48 72.42 54.90 73.56 54.53 C 75.41 53.05 78.86 50.82 76.21 48.35 C 74.58 49.75 71.89 50.51 71.24 52.73 M 91.87 52.20 L 90.75 51.95 C 89.80 54.47 92.11 56.59 92.66 58.93 C 89.87 59.78 91.89 63.06 94.04 62.87 C 97.26 62.31 100.08 60.50 103.09 59.31 C 104.82 59.39 106.54 58.80 107.25 57.10 C 105.77 56.56 104.28 56.08 102.78 55.61 L 102.30 55.78 C 99.64 54.79 97.32 52.58 94.46 52.34 C 95.78 49.89 90.57 49.70 91.87 52.20 M 41.05 56.84 C 42.95 55.20 45.28 53.73 46.00 51.17 C 43.84 52.53 40.73 53.76 41.05 56.84 M 79.12 53.91 C 76.28 55.76 74.31 58.84 74.15 62.26 C 73.18 64.12 72.94 66.95 74.65 68.50 C 75.88 69.49 77.04 70.54 78.19 71.62 C 79.66 72.88 81.25 74.00 82.93 74.98 C 84.96 70.43 86.93 65.84 88.69 61.18 C 88.07 59.98 86.80 59.37 85.77 58.59 C 84.48 56.01 81.91 54.25 79.97 52.15 C 79.75 52.59 79.33 53.47 79.12 53.91 M 86.41 54.43 C 85.65 55.78 87.74 57.61 89.00 56.68 C 89.96 55.29 87.64 53.43 86.41 54.43 M 44.03 56.08 L 44.44 56.70 C 41.92 60.63 36.24 60.12 33.92 64.23 C 35.20 64.66 36.50 65.04 37.80 65.39 C 39.65 67.63 41.14 70.13 42.70 72.57 L 42.54 72.78 C 43.35 74.03 44.17 75.29 45.00 76.54 C 48.14 73.05 50.66 69.07 53.22 65.16 C 54.29 63.46 52.18 61.90 51.09 60.84 C 48.83 59.15 46.99 56.51 44.03 56.08 M 65.27 58.43 C 65.39 58.78 65.63 59.50 65.75 59.86 C 64.83 60.69 63.91 61.52 62.99 62.35 C 65.66 66.69 70.48 59.60 67.40 57.01 C 66.63 54.03 62.25 57.08 65.27 58.43 M 5.48 62.51 C 4.91 62.89 3.77 63.64 3.20 64.02 C 1.87 63.44 0.01 65.72 1.89 66.26 C 3.20 66.31 4.24 65.86 5.03 64.89 L 6.00 64.58 C 8.11 63.54 10.25 62.49 12.63 62.29 C 12.52 61.33 12.42 60.36 12.32 59.40 C 10.17 60.72 7.80 61.57 5.48 62.51 M 70.10 64.73 C 72.99 65.64 72.16 61.74 72.76 60.04 C 71.61 61.44 70.64 62.98 70.10 64.73 M 58.28 65.29 C 58.11 67.75 60.17 69.63 61.33 71.61 L 62.09 71.49 C 62.35 72.95 65.14 75.27 66.01 73.22 C 67.45 70.98 64.75 68.95 64.09 66.88 C 62.21 66.49 59.78 63.03 58.28 65.29 M 90.96 74.18 C 91.69 75.61 92.75 76.80 93.82 77.97 C 92.22 79.28 90.52 80.52 89.16 82.10 C 89.04 83.79 90.08 85.17 90.95 86.49 C 93.08 83.64 97.38 80.90 95.69 76.80 L 94.78 77.35 C 94.33 76.38 93.88 75.41 93.43 74.44 L 92.97 74.39 C 92.73 71.28 92.70 68.12 91.95 65.08 L 91.00 64.63 C 87.22 66.46 90.43 71.23 90.96 74.18 M 66.07 66.05 C 65.98 67.53 66.78 68.86 67.22 70.22 C 68.56 69.66 70.11 68.75 69.86 67.03 C 68.97 65.68 67.51 65.22 66.07 66.05 M 36.10 68.12 C 35.68 69.74 36.27 70.34 37.88 69.90 C 38.30 68.28 37.71 67.69 36.10 68.12 M 45.72 78.96 C 47.16 79.07 48.60 79.16 50.04 79.25 C 51.38 76.00 52.64 72.66 52.84 69.11 C 50.68 72.56 47.75 75.43 45.72 78.96 M 67.08 74.90 C 68.45 75.54 69.77 77.04 71.41 76.47 C 72.78 75.28 73.77 73.73 74.85 72.29 C 73.82 71.37 72.79 70.45 71.77 69.53 C 69.93 71.07 68.39 72.90 67.08 74.90 M 26.67 74.94 C 27.72 76.97 28.63 79.07 29.39 81.22 C 29.31 82.39 29.24 83.56 29.17 84.73 C 32.67 85.03 36.16 85.61 39.68 85.63 C 42.38 84.00 39.79 80.46 39.26 78.21 C 37.84 74.79 35.66 71.52 32.07 70.12 C 30.74 72.21 28.88 73.83 26.67 74.94 M 87.22 71.72 C 86.53 74.50 86.61 77.37 87.12 80.17 C 88.52 79.62 90.18 79.33 91.12 78.02 C 90.14 75.75 88.74 73.67 87.22 71.72 M 79.02 81.38 C 80.35 81.67 81.64 82.36 83.04 82.17 C 84.63 81.19 84.62 79.29 84.68 77.65 C 82.77 77.02 80.86 76.41 78.92 75.87 C 76.14 72.15 75.32 81.52 79.02 81.38 M 18.68 76.51 C 17.83 78.35 16.91 80.18 15.81 81.89 C 14.54 82.97 13.45 84.24 12.42 85.54 C 13.12 89.15 15.88 91.86 18.61 94.10 C 19.62 93.02 20.66 91.97 21.72 90.95 C 24.29 89.03 25.13 85.81 26.42 83.03 C 25.80 80.76 25.32 78.23 23.53 76.53 C 21.92 76.36 20.29 76.48 18.68 76.51 M 74.20 76.31 C 73.35 77.53 73.57 78.30 74.87 78.63 C 75.72 77.42 75.49 76.64 74.20 76.31 M 12.61 77.64 C 12.62 79.06 12.63 80.48 12.66 81.91 C 14.25 80.66 15.58 79.07 15.99 77.03 C 14.86 77.23 13.73 77.43 12.61 77.64 M 64.95 78.19 C 66.06 78.94 67.19 79.66 68.32 80.38 L 68.22 80.73 C 69.89 81.21 71.58 81.68 73.27 82.08 C 73.24 79.61 71.31 78.28 69.12 77.76 C 67.69 77.20 66.24 77.33 64.95 78.19 M 99.10 82.88 C 100.37 84.30 101.37 86.07 103.04 87.06 C 103.41 86.59 104.13 85.64 104.50 85.17 C 105.06 89.31 106.62 93.23 108.51 96.94 C 108.96 90.77 106.82 84.91 105.43 79.00 C 102.92 79.52 101.07 81.39 99.10 82.88 M 66.75 87.17 C 66.80 87.80 66.89 89.08 66.93 89.71 C 68.76 88.46 70.06 86.64 71.38 84.91 L 72.24 84.92 C 72.07 84.54 71.73 83.79 71.56 83.42 C 68.65 81.91 66.87 84.53 66.75 87.17 M 74.05 84.88 L 74.12 85.22 C 72.95 86.55 72.51 88.27 72.18 89.97 C 73.19 89.85 74.11 89.53 74.94 89.01 C 77.45 87.85 79.66 86.15 81.84 84.47 C 79.23 83.43 76.39 82.98 74.05 84.88 M 2.04 84.75 C 3.10 86.11 6.02 86.73 6.02 84.30 C 4.69 84.43 3.37 84.58 2.04 84.75 M 81.42 87.22 L 81.48 87.59 C 80.40 88.98 78.09 89.92 78.08 91.87 C 79.13 94.22 80.26 96.66 82.25 98.36 L 82.19 98.77 C 82.05 101.19 83.70 102.95 85.16 104.64 C 85.37 105.58 85.67 106.49 86.06 107.38 C 88.36 104.42 89.09 100.51 90.29 97.01 C 90.02 92.54 87.53 88.35 84.16 85.46 C 83.25 86.05 82.34 86.64 81.42 87.22 M 2.98 88.41 C 3.68 90.47 6.76 90.48 7.13 88.20 C 5.74 88.20 4.36 88.27 2.98 88.41 M 26.79 90.01 C 30.09 91.29 33.52 92.37 37.10 92.34 C 37.69 91.03 38.29 89.73 38.90 88.44 C 34.94 89.28 28.93 85.07 26.79 90.01 M 5.04 93.73 C 6.39 94.90 8.66 92.84 7.67 91.41 C 6.37 90.36 3.76 92.26 5.04 93.73 M 59.06 101.08 C 54.61 103.98 49.16 104.96 44.80 108.03 C 50.68 107.07 56.31 104.92 61.95 103.09 C 65.48 100.68 66.32 95.77 67.09 91.80 C 62.46 92.82 62.26 98.41 59.06 101.08 M 71.67 92.67 C 70.81 93.59 70.54 94.87 70.08 96.01 C 72.26 95.26 74.15 93.90 75.98 92.53 C 74.55 92.42 73.00 91.85 71.67 92.67 M 7.08 105.61 C 7.38 106.73 8.00 107.65 9.03 108.22 C 9.89 106.82 10.77 105.42 11.72 104.08 C 10.18 104.60 8.63 105.11 7.08 105.61 Z" />
<path fill="#f7faff" opacity="1.00" d=" M 4.23 0.00 L 6.28 0.00 C 6.27 3.04 6.63 6.25 5.08 9.03 C 3.53 6.26 4.30 3.01 4.23 0.00 Z" />
<path fill="#6c76a9" opacity="1.00" d=" M 6.28 0.00 L 7.80 0.00 C 7.65 12.35 7.99 24.70 7.62 37.05 C 7.46 38.58 7.99 40.01 8.87 41.25 C 9.83 36.10 8.72 30.84 9.68 25.69 C 9.88 36.43 9.56 47.17 9.78 57.91 C 9.30 58.15 8.34 58.63 7.86 58.87 C 7.43 55.25 6.94 51.63 6.63 47.99 C 6.07 38.33 6.28 28.65 6.26 18.98 C 6.17 15.68 6.79 12.17 5.13 9.14 C 5.11 9.11 5.09 9.06 5.08 9.03 C 6.63 6.25 6.27 3.04 6.28 0.00 Z" />
<path fill="#7782af" opacity="1.00" d=" M 7.80 0.00 L 9.76 0.00 C 10.48 8.55 10.28 17.14 9.68 25.69 C 8.72 30.84 9.83 36.10 8.87 41.25 C 7.99 40.01 7.46 38.58 7.62 37.05 C 7.99 24.70 7.65 12.35 7.80 0.00 Z" />
<path fill="#97522a" opacity="1.00" d=" M 13.08 0.00 L 20.65 0.00 C 17.91 1.97 15.90 4.77 13.09 6.65 C 13.03 4.44 13.05 2.22 13.08 0.00 M 13.98 3.31 C 12.37 6.29 17.29 3.47 13.98 3.31 Z" />
<path fill="#8f4a26" opacity="1.00" d=" M 25.45 0.00 L 30.69 0.00 C 32.45 1.33 34.23 2.66 35.84 4.17 C 35.23 9.61 29.73 12.44 25.17 14.22 C 23.72 9.56 24.48 4.67 25.45 0.00 Z" />
<path fill="#934e28" opacity="1.00" d=" M 35.96 0.00 L 42.81 0.00 C 44.39 1.90 45.97 3.80 47.74 5.53 C 49.47 4.78 51.11 3.58 53.04 3.41 C 55.43 4.00 56.69 6.46 57.58 8.55 C 57.26 10.32 56.29 11.89 55.56 13.53 C 48.02 13.79 39.60 15.29 34.63 21.55 C 32.07 24.09 32.17 27.86 31.42 31.14 C 31.34 30.48 31.18 29.16 31.10 28.50 C 28.73 29.01 27.43 31.13 25.97 32.84 C 26.99 28.67 29.34 25.04 31.32 21.28 C 32.67 18.60 35.04 16.35 35.42 13.25 C 36.51 11.48 38.13 9.93 38.59 7.86 C 38.55 5.05 37.60 2.27 35.96 0.00 Z" />
<path fill="#a05d2e" opacity="1.00" d=" M 46.70 0.00 L 75.43 0.00 C 77.46 1.45 79.88 2.05 82.31 2.37 C 80.33 3.35 78.17 3.84 75.96 3.67 C 77.00 6.04 78.07 8.39 79.21 10.72 C 78.21 11.43 77.24 12.18 76.28 12.95 C 74.71 10.84 73.30 8.63 71.90 6.41 C 71.25 5.07 69.57 4.89 68.44 4.15 C 68.54 3.65 68.75 2.66 68.85 2.16 C 67.81 3.08 66.77 4.01 65.79 5.00 C 63.46 4.13 61.04 3.43 58.53 3.49 C 56.91 2.14 55.26 0.45 53.04 0.30 C 51.38 0.57 49.86 1.33 48.31 1.93 C 47.90 1.45 47.10 0.48 46.70 0.00 Z" />
<path fill="#b6793b" opacity="1.00" d=" M 75.43 0.00 L 87.50 0.00 C 85.77 0.79 84.07 1.64 82.31 2.37 C 79.88 2.05 77.46 1.45 75.43 0.00 Z" />
<path fill="#8e4825" opacity="1.00" d=" M 87.50 0.00 L 103.28 0.00 C 102.86 0.40 102.02 1.19 101.61 1.58 C 98.38 1.72 95.19 2.37 92.36 4.00 C 91.69 2.93 91.01 1.86 90.33 0.79 C 84.96 7.65 82.53 16.19 80.00 24.39 C 74.46 21.74 68.01 22.02 62.22 23.63 C 62.76 22.40 63.32 21.18 63.83 19.94 C 63.66 20.63 63.30 22.02 63.13 22.71 C 66.40 22.34 69.68 22.02 72.96 21.72 C 73.81 16.33 79.46 13.74 81.73 9.00 C 80.88 9.56 80.04 10.14 79.21 10.72 C 78.07 8.39 77.00 6.04 75.96 3.67 C 78.17 3.84 80.33 3.35 82.31 2.37 C 84.07 1.64 85.77 0.79 87.50 0.00 Z" />
<path fill="#d18d44" opacity="1.00" d=" M 13.98 3.31 C 17.29 3.47 12.37 6.29 13.98 3.31 Z" />
<path fill="#c88b42" opacity="1.00" d=" M 58.53 3.49 C 61.04 3.43 63.46 4.13 65.79 5.00 C 64.19 6.69 62.59 8.38 60.93 10.01 C 60.70 7.66 59.88 5.43 58.53 3.49 Z" />
<path fill="#fff479" opacity="1.00" d=" M 20.70 4.37 C 20.91 7.71 19.97 11.53 22.31 14.31 C 20.47 17.62 20.09 21.37 19.77 25.07 C 19.59 27.78 17.34 29.62 15.44 31.27 C 15.11 27.81 14.36 24.42 13.64 21.03 C 14.51 17.09 14.67 13.10 14.46 9.08 C 16.62 7.62 18.71 6.06 20.70 4.37 Z" />
<path fill="#b78a43" opacity="1.00" d=" M 66.96 9.62 C 67.44 7.79 68.00 5.99 68.44 4.15 C 69.57 4.89 71.25 5.07 71.90 6.41 C 71.94 8.60 71.89 10.80 72.00 13.00 C 71.60 11.10 71.22 9.20 70.84 7.31 C 69.44 7.90 68.14 8.67 66.96 9.62 Z" />
<path fill="#000000" opacity="1.00" d=" M 108.47 12.84 C 108.24 10.13 109.92 7.80 111.00 5.46 L 111.00 16.20 C 110.19 15.07 108.83 14.23 108.47 12.84 Z" />
<path fill="#8b4322" opacity="1.00" d=" M 71.90 6.41 C 73.30 8.63 74.71 10.84 76.28 12.95 C 75.06 13.97 73.87 15.04 72.67 16.08 C 72.51 15.31 72.17 13.77 72.00 13.00 C 71.89 10.80 71.94 8.60 71.90 6.41 Z" />
<path fill="#fff679" opacity="1.00" d=" M 66.96 9.62 C 68.14 8.67 69.44 7.90 70.84 7.31 C 71.22 9.20 71.60 11.10 72.00 13.00 C 72.17 13.77 72.51 15.31 72.67 16.08 C 73.87 15.04 75.06 13.97 76.28 12.95 C 77.24 12.18 78.21 11.43 79.21 10.72 C 80.04 10.14 80.88 9.56 81.73 9.00 C 79.46 13.74 73.81 16.33 72.96 21.72 C 69.68 22.02 66.40 22.34 63.13 22.71 C 63.30 22.02 63.66 20.63 63.83 19.94 C 65.15 16.59 66.32 13.17 66.96 9.62 Z" />
<path fill="#c28740" opacity="1.00" d=" M 13.63 9.70 C 13.84 9.54 14.25 9.23 14.46 9.08 C 14.67 13.10 14.51 17.09 13.64 21.03 C 14.36 24.42 15.11 27.81 15.44 31.27 C 17.34 29.62 19.59 27.78 19.77 25.07 C 20.09 21.37 20.47 17.62 22.31 14.31 C 23.82 15.40 25.30 16.58 27.00 17.37 C 30.20 17.02 32.80 14.92 35.42 13.25 C 35.04 16.35 32.67 18.60 31.32 21.28 C 29.34 25.04 26.99 28.67 25.97 32.84 C 27.43 31.13 28.73 29.01 31.10 28.50 C 31.18 29.16 31.34 30.48 31.42 31.14 C 29.98 37.13 27.74 42.92 25.11 48.49 C 21.14 47.24 17.04 45.96 12.84 46.75 C 12.47 34.38 13.40 22.04 13.63 9.70 Z" />
<path fill="#ff313e" opacity="1.00" d=" M 85.33 19.30 C 85.50 15.73 87.17 11.81 89.53 9.11 C 89.30 10.24 89.01 11.36 88.61 12.45 C 86.87 17.07 85.92 21.96 83.94 26.51 C 83.46 27.67 82.97 28.83 82.46 29.98 C 82.40 29.47 82.27 28.46 82.20 27.96 C 82.56 26.31 82.37 24.21 83.83 23.06 C 85.01 22.18 85.81 20.80 85.33 19.30 Z" />
<path fill="#f7fafe" opacity="1.00" d=" M 3.78 18.02 C 3.82 15.01 3.35 11.79 5.13 9.14 C 6.79 12.17 6.17 15.68 6.26 18.98 C 6.28 28.65 6.07 38.33 6.63 47.99 C 6.16 48.14 5.21 48.44 4.73 48.58 L 4.34 48.09 C 3.57 38.08 3.79 28.05 3.78 18.02 Z" />
<path fill="#54243e" opacity="1.00" d=" M 83.94 26.51 C 85.92 21.96 86.87 17.07 88.61 12.45 C 88.84 17.30 88.21 22.14 88.03 26.98 C 86.67 26.82 85.30 26.66 83.94 26.51 Z" />
<path fill="#e4e070" opacity="1.00" d=" M 0.00 13.19 C 0.28 13.63 0.85 14.51 1.14 14.94 C 1.25 20.09 1.41 25.27 0.90 30.41 L 0.00 29.70 L 0.00 13.19 Z" />
<path fill="#ec303d" opacity="1.00" d=" M 59.18 19.59 C 59.50 17.25 61.31 15.63 62.85 14.02 C 60.27 21.29 58.06 28.70 55.34 35.94 C 53.53 35.29 51.72 34.64 49.91 34.01 C 50.21 33.09 50.66 32.27 51.26 31.53 C 54.51 28.08 58.13 24.36 59.18 19.59 Z" />
<path fill="#fec562" opacity="1.00" d=" M 83.83 23.06 C 83.01 21.90 83.56 18.98 85.33 19.30 C 85.81 20.80 85.01 22.18 83.83 23.06 Z" />
<path fill="#fec562" opacity="1.00" d=" M 51.26 31.53 C 53.15 27.14 55.85 23.03 59.18 19.59 C 58.13 24.36 54.51 28.08 51.26 31.53 Z" />
<path fill="#e02e3b" opacity="1.00" d=" M 71.81 25.07 C 73.26 25.28 74.72 25.52 76.17 25.73 C 75.37 26.48 74.57 27.23 73.76 27.98 C 72.91 27.15 72.19 26.21 71.81 25.07 Z" />
<path fill="#4b2440" opacity="1.00" d=" M 76.17 25.73 C 77.06 26.17 77.92 26.65 78.75 27.17 C 79.14 29.22 78.16 31.24 77.74 33.22 C 76.03 31.78 74.88 29.87 73.76 27.98 C 74.57 27.23 75.37 26.48 76.17 25.73 Z" />
<path fill="#39223e" opacity="1.00" d=" M 83.94 26.51 C 85.30 26.66 86.67 26.82 88.03 26.98 C 86.56 31.19 83.80 34.91 79.98 37.26 C 80.85 34.23 80.31 30.57 82.20 27.96 C 82.27 28.46 82.40 29.47 82.46 29.98 C 82.97 28.83 83.46 27.67 83.94 26.51 Z" />
<path fill="#fec562" opacity="1.00" d=" M 61.74 37.94 C 62.89 33.72 64.37 29.26 67.89 26.40 C 66.03 31.24 64.63 36.35 61.81 40.73 C 61.79 40.04 61.76 38.64 61.74 37.94 Z" />
<path fill="#ed2e3a" opacity="1.00" d=" M 67.89 26.40 C 69.39 25.75 71.12 27.09 70.85 28.70 C 70.75 30.03 70.64 31.37 70.51 32.70 C 69.09 37.31 68.51 42.18 66.45 46.58 C 65.61 45.50 64.76 44.43 63.90 43.38 C 63.19 42.51 62.47 41.64 61.81 40.73 C 64.63 36.35 66.03 31.24 67.89 26.40 Z" />
<path fill="#45223d" opacity="1.00" d=" M 70.85 28.70 C 73.49 31.87 76.00 35.25 77.75 39.00 C 76.58 43.16 73.14 46.34 69.90 49.03 C 71.56 43.71 71.16 38.14 70.51 32.70 C 70.64 31.37 70.75 30.03 70.85 28.70 Z" />
<path fill="#fec562" opacity="1.00" d=" M 0.00 29.70 L 0.90 30.41 C 0.30 35.98 0.82 41.58 1.42 47.13 C 1.07 47.70 0.36 48.83 0.00 49.40 L 0.00 29.70 Z" />
<path fill="#74263c" opacity="1.00" d=" M 66.45 46.58 C 68.51 42.18 69.09 37.31 70.51 32.70 C 71.16 38.14 71.56 43.71 69.90 49.03 L 69.66 50.03 C 67.92 49.67 67.22 47.97 66.45 46.58 Z" />
<path fill="#f62f3d" opacity="1.00" d=" M 57.57 41.33 C 57.80 38.83 57.73 36.00 59.53 34.02 C 59.55 36.58 59.53 39.14 59.60 41.70 C 59.23 41.63 58.49 41.50 58.12 41.43 L 57.57 41.33 Z" />
<path fill="#fffd7d" opacity="1.00" d=" M 85.99 42.23 C 85.45 39.78 86.21 37.32 86.72 34.94 C 87.46 36.31 88.20 37.68 89.01 39.02 C 88.47 41.25 89.07 43.76 91.44 44.60 C 95.71 47.08 101.16 47.99 104.36 52.00 L 102.97 52.48 C 98.63 50.90 94.87 47.06 89.89 48.37 C 89.76 47.66 89.52 46.23 89.40 45.52 C 88.24 44.47 86.67 43.70 85.99 42.23 Z" />
<path fill="#2c1619" opacity="1.00" d=" M 60.82 41.91 C 61.12 40.58 61.43 39.26 61.74 37.94 C 61.76 38.64 61.79 40.04 61.81 40.73 C 62.47 41.64 63.19 42.51 63.90 43.38 C 63.57 43.99 62.91 45.21 62.58 45.82 C 60.58 44.96 58.77 43.61 58.12 41.43 C 58.49 41.50 59.23 41.63 59.60 41.70 L 60.82 41.91 Z" />
<path fill="#211425" opacity="1.00" d=" M 80.27 39.33 C 82.01 40.24 79.70 43.56 78.17 43.55 C 77.77 42.04 78.82 39.96 80.27 39.33 Z" />
<path fill="#241527" opacity="1.00" d=" M 77.96 48.14 C 79.11 44.60 81.95 41.94 83.86 38.80 C 84.52 42.64 81.34 46.61 77.96 48.14 Z" />
<path fill="#c28840" opacity="1.00" d=" M 89.01 39.02 C 95.89 42.36 103.83 40.92 111.00 43.26 L 111.00 60.38 C 110.39 58.64 110.00 56.69 108.71 55.31 C 107.05 53.93 104.92 53.34 102.97 52.48 L 104.36 52.00 C 101.16 47.99 95.71 47.08 91.44 44.60 C 89.07 43.76 88.47 41.25 89.01 39.02 Z" />
<path fill="#e02e3b" opacity="1.00" d=" M 58.04 45.10 C 59.68 46.33 62.16 47.52 61.65 49.98 C 60.21 48.58 57.05 47.63 58.04 45.10 Z" />
<path fill="#b82a3b" opacity="1.00" d=" M 79.99 50.63 C 81.04 49.01 81.94 47.04 83.80 46.20 C 85.90 48.38 82.41 51.63 79.99 50.63 Z" />
<path fill="#fec562" opacity="1.00" d=" M 52.36 47.38 C 54.36 47.05 55.80 48.75 57.24 49.83 C 55.99 49.60 54.73 49.40 53.47 49.21 C 52.02 51.44 50.52 53.65 49.01 55.84 C 48.58 55.44 47.72 54.62 47.29 54.22 C 48.90 51.89 50.21 49.28 52.36 47.38 Z" />
<path fill="#d5e8ff" opacity="1.00" d=" M 4.34 48.09 L 4.73 48.58 C 5.21 48.44 6.16 48.14 6.63 47.99 C 6.94 51.63 7.43 55.25 7.86 58.87 C 6.76 59.43 5.68 60.03 4.61 60.64 C 4.51 56.46 4.38 52.27 4.34 48.09 Z" />
<path fill="#eb2e3b" opacity="1.00" d=" M 53.47 49.21 C 54.73 49.40 55.99 49.60 57.24 49.83 C 58.32 50.71 59.23 51.78 60.18 52.79 C 58.02 55.07 55.89 57.42 53.37 59.32 C 51.95 58.11 50.49 56.96 49.01 55.84 C 50.52 53.65 52.02 51.44 53.47 49.21 Z" />
<path fill="#371e37" opacity="1.00" d=" M 71.24 52.73 C 71.89 50.51 74.58 49.75 76.21 48.35 C 78.86 50.82 75.41 53.05 73.56 54.53 C 72.42 54.90 71.76 53.48 71.24 52.73 Z" />
<path fill="#fff679" opacity="1.00" d=" M 91.87 52.20 C 90.57 49.70 95.78 49.89 94.46 52.34 C 93.82 52.31 92.52 52.24 91.87 52.20 Z" />
<path fill="#f62f3d" opacity="1.00" d=" M 41.05 56.84 C 40.73 53.76 43.84 52.53 46.00 51.17 C 45.28 53.73 42.95 55.20 41.05 56.84 Z" />
<path fill="#f52e3a" opacity="1.00" d=" M 90.75 51.95 L 91.87 52.20 C 92.52 52.24 93.82 52.31 94.46 52.34 C 97.32 52.58 99.64 54.79 102.30 55.78 C 99.91 56.60 97.55 57.47 95.22 58.45 C 94.36 58.60 93.51 58.76 92.66 58.93 C 92.11 56.59 89.80 54.47 90.75 51.95 Z" />
<path fill="#47223d" opacity="1.00" d=" M 60.18 52.79 C 60.98 53.60 62.12 54.18 62.58 55.26 C 62.43 57.17 61.61 58.93 60.98 60.71 C 59.42 61.63 57.94 62.68 56.50 63.78 C 55.46 62.29 54.41 60.81 53.37 59.32 C 55.89 57.42 58.02 55.07 60.18 52.79 Z" />
<path fill="#f32e3a" opacity="1.00" d=" M 79.12 53.91 C 79.33 53.47 79.75 52.59 79.97 52.15 C 81.91 54.25 84.48 56.01 85.77 58.59 C 85.21 59.63 84.61 60.65 84.02 61.67 C 81.11 64.23 77.94 66.46 74.65 68.50 C 72.94 66.95 73.18 64.12 74.15 62.26 C 76.17 59.71 77.87 56.92 79.12 53.91 Z" />
<path fill="#fec562" opacity="1.00" d=" M 74.15 62.26 C 74.31 58.84 76.28 55.76 79.12 53.91 C 77.87 56.92 76.17 59.71 74.15 62.26 Z" />
<path fill="#e02e3b" opacity="1.00" d=" M 86.41 54.43 C 87.64 53.43 89.96 55.29 89.00 56.68 C 87.74 57.61 85.65 55.78 86.41 54.43 Z" />
<path fill="#732439" opacity="1.00" d=" M 102.30 55.78 L 102.78 55.61 C 104.28 56.08 105.77 56.56 107.25 57.10 C 106.54 58.80 104.82 59.39 103.09 59.31 C 100.44 59.37 97.82 58.94 95.22 58.45 C 97.55 57.47 99.91 56.60 102.30 55.78 Z" />
<path fill="#3e1931" opacity="1.00" d=" M 44.03 56.08 C 46.99 56.51 48.83 59.15 51.09 60.84 C 52.18 61.90 54.29 63.46 53.22 65.16 C 50.66 69.07 48.14 73.05 45.00 76.54 C 44.17 75.29 43.35 74.03 42.54 72.78 L 42.70 72.57 C 44.90 69.76 46.95 66.71 48.27 63.40 C 47.53 60.91 45.79 58.88 44.44 56.70 L 44.03 56.08 Z" />
<path fill="#fc303d" opacity="1.00" d=" M 65.27 58.43 C 62.25 57.08 66.63 54.03 67.40 57.01 C 66.87 57.37 65.80 58.07 65.27 58.43 Z" />
<path fill="#ee2e3a" opacity="1.00" d=" M 33.92 64.23 C 36.24 60.12 41.92 60.63 44.44 56.70 C 45.79 58.88 47.53 60.91 48.27 63.40 C 46.95 66.71 44.90 69.76 42.70 72.57 C 41.14 70.13 39.65 67.63 37.80 65.39 C 36.50 65.04 35.20 64.66 33.92 64.23 Z" />
<path fill="#78263e" opacity="1.00" d=" M 67.40 57.01 C 70.48 59.60 65.66 66.69 62.99 62.35 C 63.91 61.52 64.83 60.69 65.75 59.86 C 65.63 59.50 65.39 58.78 65.27 58.43 C 65.80 58.07 66.87 57.37 67.40 57.01 Z" />
<path fill="#3a213d" opacity="1.00" d=" M 85.77 58.59 C 86.80 59.37 88.07 59.98 88.69 61.18 C 86.93 65.84 84.96 70.43 82.93 74.98 C 81.25 74.00 79.66 72.88 78.19 71.62 C 81.24 69.09 83.53 65.67 84.02 61.67 C 84.61 60.65 85.21 59.63 85.77 58.59 Z" />
<path fill="#47223e" opacity="1.00" d=" M 92.66 58.93 C 93.51 58.76 94.36 58.60 95.22 58.45 C 97.82 58.94 100.44 59.37 103.09 59.31 C 100.08 60.50 97.26 62.31 94.04 62.87 C 91.89 63.06 89.87 59.78 92.66 58.93 Z" />
<path fill="#b6793b" opacity="1.00" d=" M 5.48 62.51 C 7.80 61.57 10.17 60.72 12.32 59.40 C 12.42 60.36 12.52 61.33 12.63 62.29 C 10.25 62.49 8.11 63.54 6.00 64.58 C 6.05 64.17 6.16 63.35 6.21 62.94 L 5.48 62.51 Z" />
<path fill="#f62f3d" opacity="1.00" d=" M 70.10 64.73 C 70.64 62.98 71.61 61.44 72.76 60.04 C 72.16 61.74 72.99 65.64 70.10 64.73 Z" />
<path fill="#6f253c" opacity="1.00" d=" M 74.65 68.50 C 77.94 66.46 81.11 64.23 84.02 61.67 C 83.53 65.67 81.24 69.09 78.19 71.62 C 77.04 70.54 75.88 69.49 74.65 68.50 Z" />
<path fill="#905b68" opacity="1.00" d=" M 94.61 65.90 C 98.45 64.68 102.04 62.78 105.90 61.65 C 107.46 62.45 108.87 63.50 110.31 64.49 C 106.63 66.71 109.53 70.95 111.00 73.64 L 111.00 86.55 C 109.72 82.93 109.12 79.02 107.17 75.68 C 103.93 74.60 101.30 77.66 98.70 79.10 C 99.09 76.96 98.02 75.43 96.12 74.52 C 95.47 71.67 95.03 68.78 94.61 65.90 Z" />
<path fill="#f7fafe" opacity="1.00" d=" M 3.20 64.02 C 3.77 63.64 4.91 62.89 5.48 62.51 L 6.21 62.94 C 6.16 63.35 6.05 64.17 6.00 64.58 L 5.03 64.89 C 4.57 64.68 3.66 64.24 3.20 64.02 Z" />
<path fill="#fff479" opacity="1.00" d=" M 1.89 66.26 C 0.01 65.72 1.87 63.44 3.20 64.02 C 3.66 64.24 4.57 64.68 5.03 64.89 C 4.24 65.86 3.20 66.31 1.89 66.26 Z" />
<path fill="#934c30" opacity="1.00" d=" M 4.12 67.42 C 7.38 66.30 10.65 65.19 13.87 63.97 C 13.77 65.83 13.78 67.71 13.41 69.54 C 11.04 70.61 8.47 71.17 5.93 71.72 C 5.61 70.16 6.00 68.06 4.12 67.42 Z" />
<path fill="#78263e" opacity="1.00" d=" M 58.28 65.29 C 59.78 63.03 62.21 66.49 64.09 66.88 C 64.75 68.95 67.45 70.98 66.01 73.22 C 65.07 72.06 63.66 70.98 62.09 71.49 L 61.33 71.61 C 60.17 69.63 58.11 67.75 58.28 65.29 Z" />
<path fill="#b18b91" opacity="1.00" d=" M 110.31 64.49 L 111.00 63.80 L 111.00 73.64 C 109.53 70.95 106.63 66.71 110.31 64.49 Z" />
<path fill="#451e35" opacity="1.00" d=" M 90.96 74.18 C 90.43 71.23 87.22 66.46 91.00 64.63 L 91.95 65.08 C 92.70 68.12 92.73 71.28 92.97 74.39 C 92.47 74.34 91.47 74.23 90.96 74.18 M 91.28 70.26 C 89.59 73.14 94.63 70.53 91.28 70.26 Z" />
<path fill="#43203a" opacity="1.00" d=" M 66.07 66.05 C 67.51 65.22 68.97 65.68 69.86 67.03 C 70.11 68.75 68.56 69.66 67.22 70.22 C 66.78 68.86 65.98 67.53 66.07 66.05 Z" />
<path fill="#fff679" opacity="1.00" d=" M 0.00 69.74 C 0.87 69.13 1.76 68.55 2.67 68.01 C 2.62 69.30 2.71 70.59 2.83 71.87 C 1.88 71.47 0.94 71.06 0.00 70.64 L 0.00 69.74 Z" />
<path fill="#f7fafe" opacity="1.00" d=" M 2.67 68.01 L 4.12 67.42 C 6.00 68.06 5.61 70.16 5.93 71.72 C 5.16 71.75 3.60 71.83 2.83 71.87 C 2.71 70.59 2.62 69.30 2.67 68.01 Z" />
<path fill="#fec562" opacity="1.00" d=" M 0.00 74.91 C 10.44 73.42 20.56 70.27 30.87 68.11 C 30.09 68.90 29.31 69.69 28.54 70.49 C 24.19 69.66 20.27 72.01 16.19 73.01 C 12.76 74.01 9.14 74.53 6.00 76.30 C 4.00 76.39 2.00 76.44 0.00 76.37 L 0.00 74.91 Z" />
<path fill="#6c151a" opacity="1.00" d=" M 36.10 68.12 C 37.71 67.69 38.30 68.28 37.88 69.90 C 36.27 70.34 35.68 69.74 36.10 68.12 Z" />
<path fill="#7d273d" opacity="1.00" d=" M 45.72 78.96 C 47.75 75.43 50.68 72.56 52.84 69.11 C 52.64 72.66 51.38 76.00 50.04 79.25 C 48.60 79.16 47.16 79.07 45.72 78.96 Z" />
<path fill="#935f6c" opacity="1.00" d=" M 56.22 69.04 C 57.96 71.82 60.21 74.22 62.89 76.11 C 62.63 77.03 62.37 77.95 62.11 78.86 C 63.63 79.93 65.17 80.99 66.72 82.04 C 66.26 83.38 65.79 84.73 65.32 86.07 C 63.80 84.84 62.31 83.58 60.84 82.29 C 55.97 84.69 52.22 88.69 48.15 92.17 C 41.32 98.46 34.20 104.42 27.64 111.00 L 26.76 111.00 C 26.76 109.67 26.04 108.11 26.93 106.93 C 29.08 104.02 31.93 101.72 34.07 98.80 C 35.01 97.87 35.95 96.94 36.93 96.05 C 37.43 96.07 38.43 96.10 38.94 96.11 C 41.63 91.68 45.01 87.07 44.41 81.57 C 46.95 81.49 49.78 82.40 52.15 81.22 C 54.24 77.46 55.31 73.22 56.22 69.04 Z" />
<path fill="#6b253c" opacity="1.00" d=" M 67.08 74.90 C 68.39 72.90 69.93 71.07 71.77 69.53 C 72.79 70.45 73.82 71.37 74.85 72.29 C 73.77 73.73 72.78 75.28 71.41 76.47 C 69.77 77.04 68.45 75.54 67.08 74.90 Z" />
<path fill="#f52e3a" opacity="1.00" d=" M 91.28 70.26 C 94.63 70.53 89.59 73.14 91.28 70.26 Z" />
<path fill="#862d1b" opacity="1.00" d=" M 16.19 73.01 C 20.27 72.01 24.19 69.66 28.54 70.49 C 28.16 70.89 27.41 71.69 27.03 72.09 C 22.23 73.51 17.19 73.98 12.43 75.54 C 10.63 76.67 10.89 79.11 10.70 80.95 C 10.64 86.41 9.88 91.96 11.16 97.35 C 10.93 97.42 10.48 97.57 10.26 97.64 C 9.96 96.14 9.71 94.64 9.50 93.13 C 9.54 89.28 7.35 85.52 8.80 81.72 C 9.99 79.35 8.26 76.86 5.71 76.62 L 6.00 76.30 C 9.14 74.53 12.76 74.01 16.19 73.01 Z" />
<path fill="#f12e3a" opacity="1.00" d=" M 26.67 74.94 C 28.88 73.83 30.74 72.21 32.07 70.12 C 35.66 71.52 37.84 74.79 39.26 78.21 C 36.10 79.63 32.63 80.06 29.39 81.22 C 28.63 79.07 27.72 76.97 26.67 74.94 Z" />
<path fill="#c82936" opacity="1.00" d=" M 62.09 71.49 C 63.66 70.98 65.07 72.06 66.01 73.22 C 65.14 75.27 62.35 72.95 62.09 71.49 Z" />
<path fill="#402039" opacity="1.00" d=" M 87.22 71.72 C 88.74 73.67 90.14 75.75 91.12 78.02 C 90.18 79.33 88.52 79.62 87.12 80.17 C 86.61 77.37 86.53 74.50 87.22 71.72 Z" />
<path fill="#f62f3d" opacity="1.00" d=" M 90.96 74.18 C 91.47 74.23 92.47 74.34 92.97 74.39 L 93.43 74.44 C 93.88 75.41 94.33 76.38 94.78 77.35 C 94.54 77.50 94.06 77.82 93.82 77.97 C 92.75 76.80 91.69 75.61 90.96 74.18 Z" />
<path fill="#56223a" opacity="1.00" d=" M 79.02 81.38 C 75.32 81.52 76.14 72.15 78.92 75.87 C 79.02 77.71 79.02 79.54 79.02 81.38 Z" />
<path fill="#e02e3b" opacity="1.00" d=" M 0.00 76.37 C 2.00 76.44 4.00 76.39 6.00 76.30 L 5.71 76.62 L 5.33 77.03 C 5.02 78.47 6.41 79.30 7.12 80.34 C 5.26 81.83 2.80 82.24 1.25 80.05 C 2.23 79.12 4.18 78.76 4.04 77.09 C 2.82 76.62 1.47 76.49 0.00 76.67 L 0.00 76.37 Z" />
<path fill="#f12e3a" opacity="1.00" d=" M 18.68 76.51 C 20.29 76.48 21.92 76.36 23.53 76.53 C 25.32 78.23 25.80 80.76 26.42 83.03 C 24.62 83.55 22.88 84.64 20.95 84.48 C 19.09 83.94 17.47 82.85 15.81 81.89 C 16.91 80.18 17.83 78.35 18.68 76.51 Z" />
<path fill="#62233a" opacity="1.00" d=" M 74.20 76.31 C 75.49 76.64 75.72 77.42 74.87 78.63 C 73.57 78.30 73.35 77.53 74.20 76.31 Z" />
<path fill="#3b213e" opacity="1.00" d=" M 78.92 75.87 C 80.86 76.41 82.77 77.02 84.68 77.65 C 84.62 79.29 84.63 81.19 83.04 82.17 C 81.64 82.36 80.35 81.67 79.02 81.38 C 79.02 79.54 79.02 77.71 78.92 75.87 Z" />
<path fill="#ec303d" opacity="1.00" d=" M 12.61 77.64 C 13.73 77.43 14.86 77.23 15.99 77.03 C 15.58 79.07 14.25 80.66 12.66 81.91 C 12.63 80.48 12.62 79.06 12.61 77.64 Z" />
<path fill="#ff313e" opacity="1.00" d=" M 64.95 78.19 C 66.24 77.33 67.69 77.20 69.12 77.76 C 68.92 78.41 68.52 79.73 68.32 80.38 C 67.19 79.66 66.06 78.94 64.95 78.19 Z" />
<path fill="#41223f" opacity="1.00" d=" M 94.78 77.35 L 95.69 76.80 C 97.38 80.90 93.08 83.64 90.95 86.49 C 90.08 85.17 89.04 83.79 89.16 82.10 C 90.52 80.52 92.22 79.28 93.82 77.97 C 94.06 77.82 94.54 77.50 94.78 77.35 Z" />
<path fill="#3f1831" opacity="1.00" d=" M 29.39 81.22 C 32.63 80.06 36.10 79.63 39.26 78.21 C 39.79 80.46 42.38 84.00 39.68 85.63 C 36.16 85.61 32.67 85.03 29.17 84.73 C 29.24 83.56 29.31 82.39 29.39 81.22 Z" />
<path fill="#682236" opacity="1.00" d=" M 69.12 77.76 C 71.31 78.28 73.24 79.61 73.27 82.08 C 71.58 81.68 69.89 81.21 68.22 80.73 L 68.32 80.38 C 68.52 79.73 68.92 78.41 69.12 77.76 Z" />
<path fill="#f62f3d" opacity="1.00" d=" M 99.10 82.88 C 101.07 81.39 102.92 79.52 105.43 79.00 C 106.82 84.91 108.96 90.77 108.51 96.94 C 106.62 93.23 105.06 89.31 104.50 85.17 C 104.13 85.64 103.41 86.59 103.04 87.06 C 101.37 86.07 100.37 84.30 99.10 82.88 Z" />
<path fill="#27142c" opacity="1.00" d=" M 12.42 85.54 C 13.45 84.24 14.54 82.97 15.81 81.89 C 17.47 82.85 19.09 83.94 20.95 84.48 C 22.88 84.64 24.62 83.55 26.42 83.03 C 25.13 85.81 24.29 89.03 21.72 90.95 C 19.63 87.78 16.63 84.48 12.42 85.54 Z" />
<path fill="#5a2330" opacity="1.00" d=" M 66.75 87.17 C 66.87 84.53 68.65 81.91 71.56 83.42 C 71.73 83.79 72.07 84.54 72.24 84.92 L 71.38 84.91 C 70.81 84.90 69.65 84.89 69.08 84.89 C 68.28 85.62 67.50 86.38 66.75 87.17 Z" />
<path fill="#7d273d" opacity="1.00" d=" M 74.05 84.88 C 76.39 82.98 79.23 83.43 81.84 84.47 C 79.66 86.15 77.45 87.85 74.94 89.01 C 74.69 87.74 74.42 86.48 74.12 85.22 L 74.05 84.88 Z" />
<path fill="#e02e3b" opacity="1.00" d=" M 2.04 84.75 C 3.37 84.58 4.69 84.43 6.02 84.30 C 6.02 86.73 3.10 86.11 2.04 84.75 Z" />
<path fill="#6b2239" opacity="1.00" d=" M 12.42 85.54 C 16.63 84.48 19.63 87.78 21.72 90.95 C 20.66 91.97 19.62 93.02 18.61 94.10 C 15.88 91.86 13.12 89.15 12.42 85.54 Z" />
<path fill="#fff479" opacity="1.00" d=" M 51.54 92.52 C 54.52 89.83 57.38 86.87 61.06 85.13 C 58.12 88.83 54.16 91.49 50.97 94.94 C 48.04 98.07 44.81 100.89 41.57 103.69 C 41.11 103.58 40.19 103.35 39.73 103.23 C 43.71 99.71 47.69 96.18 51.54 92.52 Z" />
<path fill="#ff313e" opacity="1.00" d=" M 66.75 87.17 C 67.50 86.38 68.28 85.62 69.08 84.89 C 69.65 84.89 70.81 84.90 71.38 84.91 C 70.06 86.64 68.76 88.46 66.93 89.71 C 66.89 89.08 66.80 87.80 66.75 87.17 Z" />
<path fill="#e02e3b" opacity="1.00" d=" M 50.97 94.94 C 54.16 91.49 58.12 88.83 61.06 85.13 C 61.90 86.67 63.88 88.02 63.71 89.89 C 62.24 92.87 59.74 95.16 57.48 97.53 C 51.12 104.44 41.83 107.25 33.21 110.18 L 33.97 111.00 L 31.94 111.00 C 34.23 108.11 36.92 105.60 39.73 103.23 C 40.19 103.35 41.11 103.58 41.57 103.69 C 44.81 100.89 48.04 98.07 50.97 94.94 Z" />
<path fill="#fc303d" opacity="1.00" d=" M 72.18 89.97 C 72.51 88.27 72.95 86.55 74.12 85.22 C 74.42 86.48 74.69 87.74 74.94 89.01 C 74.11 89.53 73.19 89.85 72.18 89.97 Z" />
<path fill="#41233b" opacity="1.00" d=" M 81.42 87.22 C 82.34 86.64 83.25 86.05 84.16 85.46 C 87.53 88.35 90.02 92.54 90.29 97.01 C 89.09 100.51 88.36 104.42 86.06 107.38 C 85.67 106.49 85.37 105.58 85.16 104.64 C 86.29 101.41 90.15 97.65 87.21 94.35 C 86.49 91.62 85.11 88.81 81.74 89.40 C 81.67 88.95 81.54 88.05 81.48 87.59 L 81.42 87.22 Z" />
<path fill="#4e223d" opacity="1.00" d=" M 95.48 89.64 C 95.94 88.06 97.07 86.78 97.90 85.38 C 100.19 88.72 102.28 92.21 103.99 95.88 C 101.92 94.46 99.46 93.54 97.64 95.89 C 96.71 93.89 95.77 91.84 95.48 89.64 Z" />
<path fill="#e02e3b" opacity="1.00" d=" M 2.98 88.41 C 4.36 88.27 5.74 88.20 7.13 88.20 C 6.76 90.48 3.68 90.47 2.98 88.41 Z" />
<path fill="#71233a" opacity="1.00" d=" M 26.79 90.01 C 28.93 85.07 34.94 89.28 38.90 88.44 C 38.29 89.73 37.69 91.03 37.10 92.34 C 33.52 92.37 30.09 91.29 26.79 90.01 Z" />
<path fill="#fec562" opacity="1.00" d=" M 81.48 87.59 C 81.54 88.05 81.67 88.95 81.74 89.40 C 82.19 92.36 82.93 95.37 82.25 98.36 C 80.26 96.66 79.13 94.22 78.08 91.87 C 78.09 89.92 80.40 88.98 81.48 87.59 Z" />
<path fill="#f42a39" opacity="1.00" d=" M 81.74 89.40 C 85.11 88.81 86.49 91.62 87.21 94.35 C 86.09 96.68 84.90 98.98 83.49 101.15 C 83.17 100.56 82.52 99.37 82.19 98.77 L 82.25 98.36 C 82.93 95.37 82.19 92.36 81.74 89.40 Z" />
<path fill="#b82a3b" opacity="1.00" d=" M 5.04 93.73 C 3.76 92.26 6.37 90.36 7.67 91.41 C 8.66 92.84 6.39 94.90 5.04 93.73 Z" />
<path fill="#3c223f" opacity="1.00" d=" M 59.06 101.08 C 62.26 98.41 62.46 92.82 67.09 91.80 C 66.32 95.77 65.48 100.68 61.95 103.09 C 56.31 104.92 50.68 107.07 44.80 108.03 C 49.16 104.96 54.61 103.98 59.06 101.08 Z" />
<path fill="#ec303d" opacity="1.00" d=" M 71.67 92.67 C 73.00 91.85 74.55 92.42 75.98 92.53 C 74.15 93.90 72.26 95.26 70.08 96.01 C 70.54 94.87 70.81 93.59 71.67 92.67 Z" />
<path fill="#f7faff" opacity="1.00" d=" M -0.00 93.77 C 1.12 93.22 2.25 92.68 3.38 92.16 C 3.40 92.90 3.43 94.39 3.45 95.13 C 7.21 96.19 6.61 100.09 6.54 103.21 C 5.53 103.82 4.52 104.43 3.50 105.05 C 4.82 107.08 6.24 109.04 7.66 111.00 L 0.00 111.00 L 0.00 93.77 Z" />
<path fill="#f7fafe" opacity="1.00" d=" M 12.71 92.86 C 14.21 94.30 15.64 95.81 17.04 97.34 C 17.86 97.39 19.49 97.48 20.31 97.53 C 19.40 100.86 16.99 103.41 14.06 105.10 L 14.32 103.93 C 11.51 100.84 12.87 96.59 12.71 92.86 Z" />
<path fill="#f7faff" opacity="1.00" d=" M 20.66 96.67 C 21.88 95.15 23.27 93.78 24.66 92.41 C 28.43 94.52 32.67 95.52 36.93 96.05 C 35.95 96.94 35.01 97.87 34.07 98.80 C 28.72 102.15 24.58 107.03 19.71 111.00 L 10.34 111.00 C 11.69 109.11 12.84 107.08 14.06 105.10 C 16.99 103.41 19.40 100.86 20.31 97.53 L 20.66 96.67 Z" />
<path fill="#942a76" opacity="1.00" d=" M 92.46 93.16 C 94.92 97.63 98.10 101.79 99.52 106.76 C 98.98 106.93 97.90 107.28 97.36 107.45 C 96.11 104.25 94.70 101.08 92.70 98.26 C 92.71 96.56 92.59 94.86 92.46 93.16 Z" />
<path fill="#91633b" opacity="1.00" d=" M 7.88 95.12 C 8.28 94.62 9.09 93.63 9.50 93.13 C 9.71 94.64 9.96 96.14 10.26 97.64 C 9.92 99.22 10.86 101.86 8.81 102.60 C 7.92 100.21 7.89 97.63 7.88 95.12 Z" />
<path fill="#b82a3b" opacity="1.00" d=" M 97.64 95.89 C 99.46 93.54 101.92 94.46 103.99 95.88 C 105.16 98.45 106.35 101.02 107.31 103.69 C 106.82 104.64 106.34 105.59 105.85 106.54 C 105.03 106.73 104.21 106.92 103.39 107.11 C 101.41 103.40 99.73 99.54 97.64 95.89 Z" />
<path fill="#692338" opacity="1.00" d=" M 83.49 101.15 C 84.90 98.98 86.09 96.68 87.21 94.35 C 90.15 97.65 86.29 101.41 85.16 104.64 C 83.70 102.95 82.05 101.19 82.19 98.77 C 82.52 99.37 83.17 100.56 83.49 101.15 Z" />
<path fill="#bc3f3a" opacity="1.00" d=" M 75.19 101.48 C 75.87 99.89 76.72 98.39 77.59 96.91 C 77.80 97.37 78.20 98.29 78.41 98.75 C 77.60 100.30 76.69 101.80 75.81 103.31 C 75.65 102.85 75.35 101.94 75.19 101.48 Z" />
<path fill="#c5a6a8" opacity="1.00" d=" M 19.71 111.00 C 24.58 107.03 28.72 102.15 34.07 98.80 C 31.93 101.72 29.08 104.02 26.93 106.93 C 26.04 108.11 26.76 109.67 26.76 111.00 L 19.71 111.00 Z" />
<path fill="#74253c" opacity="1.00" d=" M 78.41 98.75 C 78.95 99.92 79.52 101.08 80.12 102.23 C 77.89 105.07 75.96 108.13 73.76 111.00 L 72.67 111.00 C 73.31 110.00 73.68 108.91 73.80 107.71 C 74.39 106.21 75.09 104.75 75.81 103.31 C 76.69 101.80 77.60 100.30 78.41 98.75 Z" />
<path fill="#38213d" opacity="1.00" d=" M 92.70 98.26 C 94.70 101.08 96.11 104.25 97.36 107.45 C 95.21 108.28 93.36 109.70 91.48 111.00 L 87.84 111.00 C 89.19 106.66 90.54 102.29 92.70 98.26 Z" />
<path fill="#fc303d" opacity="1.00" d=" M 67.70 103.54 C 69.31 101.60 71.56 100.33 73.63 98.93 C 72.89 103.29 70.24 106.96 68.61 111.00 L 65.60 111.00 C 65.94 108.44 66.23 105.74 67.70 103.54 Z" />
<path fill="#fec562" opacity="1.00" d=" M 72.64 106.87 C 73.57 105.11 74.39 103.30 75.19 101.48 C 75.35 101.94 75.65 102.85 75.81 103.31 C 75.09 104.75 74.39 106.21 73.80 107.71 C 73.51 107.50 72.93 107.08 72.64 106.87 Z" />
<path fill="#37213d" opacity="1.00" d=" M 73.76 111.00 C 75.96 108.13 77.89 105.07 80.12 102.23 C 81.21 104.24 82.34 106.23 83.47 108.22 C 81.85 109.18 80.24 110.16 78.56 111.00 L 73.76 111.00 Z" />
<path fill="#fec562" opacity="1.00" d=" M 7.08 105.61 C 8.63 105.11 10.18 104.60 11.72 104.08 C 10.77 105.42 9.89 106.82 9.03 108.22 C 8.00 107.65 7.38 106.73 7.08 105.61 Z" />
<path fill="#ff313e" opacity="1.00" d=" M 105.85 106.54 C 106.34 105.59 106.82 104.64 107.31 103.69 C 108.11 106.09 108.68 108.56 109.35 111.00 L 106.06 111.00 C 105.10 109.76 104.22 108.45 103.39 107.11 C 104.21 106.92 105.03 106.73 105.85 106.54 Z" />
<path fill="#54243e" opacity="1.00" d=" M 46.43 111.00 C 51.90 108.68 57.69 107.24 63.31 105.33 C 61.28 107.85 58.35 109.35 55.63 111.00 L 46.43 111.00 Z" />
<path fill="#ed2e3a" opacity="1.00" d=" M 71.23 111.00 C 70.91 109.46 71.92 108.13 72.64 106.87 C 72.93 107.08 73.51 107.50 73.80 107.71 C 73.68 108.91 73.31 110.00 72.67 111.00 L 71.23 111.00 Z" />
<path fill="#391b30" opacity="1.00" d=" M 61.31 109.06 C 62.98 108.05 63.25 110.62 61.78 111.00 L 60.05 111.00 C 60.37 110.51 60.99 109.54 61.31 109.06 Z" />
<path fill="#8a2368" opacity="1.00" d=" M 99.17 111.00 C 99.97 109.43 100.58 109.43 100.99 111.00 L 99.17 111.00 Z" />
</svg>
