<?xml version="1.0" encoding="UTF-8" ?>
<!DOCTYPE svg PUBLIC "-//W3C//DTD SVG 1.1//EN" "http://www.w3.org/Graphics/SVG/1.1/DTD/svg11.dtd">
<svg width="111pt" height="111pt" viewBox="0 0 111 111" version="1.1" xmlns="http://www.w3.org/2000/svg">
<path fill="#080506" opacity="0.94" d=" M 34.18 22.29 C 44.87 10.95 61.55 6.33 76.77 8.12 C 80.34 12.54 83.44 17.34 87.31 21.53 C 95.23 23.99 103.32 25.91 111.00 29.10 L 111.00 31.29 C 103.02 29.03 95.35 25.78 87.35 23.60 C 80.45 21.24 79.74 9.52 71.84 9.93 C 68.16 9.89 64.50 10.09 60.86 10.55 C 56.04 11.46 51.49 13.42 47.08 15.50 C 43.40 18.82 34.00 21.13 36.66 27.47 C 37.31 30.08 39.39 31.91 40.90 34.03 L 40.94 34.97 C 36.63 31.39 36.73 34.35 38.99 38.09 C 39.36 42.50 36.45 35.60 34.09 36.98 C 30.25 39.98 26.71 43.54 22.06 45.33 C 25.37 41.18 30.26 38.72 33.82 34.81 C 37.12 31.11 33.90 26.44 34.18 22.29 Z" />
<path fill="#77514f" opacity="1.00" d=" M 60.86 10.55 C 64.50 10.09 68.16 9.89 71.84 9.93 C 71.73 15.23 75.69 19.44 76.09 24.64 C 73.27 25.97 69.98 28.73 75.19 27.41 C 76.98 34.30 72.10 40.97 65.11 41.23 C 67.22 38.30 70.26 34.14 70.21 30.94 C 69.90 30.72 69.29 30.28 68.99 30.06 C 74.84 22.98 65.25 15.98 60.86 10.55 Z" />
<path fill="#48252d" opacity="1.00" d=" M 71.84 9.93 C 79.74 9.52 80.45 21.24 87.35 23.60 C 95.35 25.78 103.02 29.03 111.00 31.29 L 111.00 63.30 C 110.08 62.47 109.15 61.66 108.24 60.82 C 107.24 55.86 105.69 51.05 104.39 46.17 C 103.79 38.91 95.34 47.59 91.75 43.41 C 84.01 44.01 76.70 47.83 68.89 48.64 C 63.93 49.96 59.06 51.58 54.15 53.06 C 51.78 52.66 49.24 52.69 47.13 51.39 C 44.96 50.22 42.71 49.20 40.51 48.09 C 44.10 45.23 45.92 42.39 40.93 39.99 C 44.58 40.80 48.16 42.12 50.82 44.85 C 62.18 47.41 82.51 39.89 76.09 24.64 C 75.69 19.44 71.73 15.23 71.84 9.93 Z" />
<path fill="#a57d72" opacity="1.00" d=" M 47.08 15.50 C 51.49 13.42 56.04 11.46 60.86 10.55 C 65.25 15.98 74.84 22.98 68.99 30.06 C 65.22 26.75 57.42 28.25 59.26 34.33 C 55.91 35.58 52.51 36.73 49.12 37.85 C 46.58 36.17 43.88 34.77 40.90 34.03 C 39.39 31.91 37.31 30.08 36.66 27.47 C 37.42 22.19 41.93 24.51 44.57 22.77 C 42.69 19.18 47.81 18.22 47.08 15.50 M 41.16 31.30 C 44.26 34.56 51.11 36.36 55.36 33.40 C 57.88 32.71 59.83 26.26 56.07 26.90 L 54.94 26.84 C 57.81 24.46 62.93 23.81 64.16 20.04 C 56.19 23.21 49.36 28.67 41.16 31.30 Z" />
<path fill="#c1b2a4" opacity="1.00" d=" M 36.66 27.47 C 34.00 21.13 43.40 18.82 47.08 15.50 C 47.81 18.22 42.69 19.18 44.57 22.77 C 41.93 24.51 37.42 22.19 36.66 27.47 Z" />
<path fill="#2d1a1a" opacity="1.00" d=" M 41.16 31.30 C 49.36 28.67 56.19 23.21 64.16 20.04 C 62.93 23.81 57.81 24.46 54.94 26.84 C 52.01 28.40 48.99 29.80 46.02 31.31 C 48.69 35.76 57.86 32.36 56.07 26.90 C 59.83 26.26 57.88 32.71 55.36 33.40 C 51.11 36.36 44.26 34.56 41.16 31.30 Z" />
<path fill="#201315" opacity="1.00" d=" M 75.19 27.41 C 69.98 28.73 73.27 25.97 76.09 24.64 C 82.51 39.89 62.18 47.41 50.82 44.85 C 55.66 43.96 60.42 42.72 65.11 41.23 C 72.10 40.97 76.98 34.30 75.19 27.41 Z" />
<path fill="#e74760" opacity="1.00" d=" M 46.02 31.31 C 48.99 29.80 52.01 28.40 54.94 26.84 L 56.07 26.90 C 57.86 32.36 48.69 35.76 46.02 31.31 Z" />
<path fill="#2d221f" opacity="1.00" d=" M 59.26 34.33 C 57.42 28.25 65.22 26.75 68.99 30.06 C 69.29 30.28 69.90 30.72 70.21 30.94 C 67.85 32.58 66.05 31.45 64.63 29.31 C 61.52 29.62 60.84 32.24 61.70 34.86 C 55.26 39.00 46.47 41.83 40.94 34.97 L 40.90 34.03 C 43.88 34.77 46.58 36.17 49.12 37.85 C 52.51 36.73 55.91 35.58 59.26 34.33 Z" />
<path fill="#9f786d" opacity="1.00" d=" M 61.70 34.86 C 60.84 32.24 61.52 29.62 64.63 29.31 C 66.05 31.45 67.85 32.58 70.21 30.94 C 70.26 34.14 67.22 38.30 65.11 41.23 C 60.42 42.72 55.66 43.96 50.82 44.85 C 48.16 42.12 44.58 40.80 40.93 39.99 C 40.27 39.37 39.62 38.74 38.99 38.09 C 36.73 34.35 36.63 31.39 40.94 34.97 C 46.47 41.83 55.26 39.00 61.70 34.86 Z" />
<path fill="#0b0908" opacity="0.93" d=" M 0.00 30.47 C 8.18 33.73 13.18 44.83 22.06 45.33 C 20.21 46.76 17.82 49.27 16.32 46.13 C 11.43 41.28 5.52 37.57 0.00 33.49 L 0.00 30.47 Z" />
<path fill="#a88377" opacity="1.00" d=" M 0.00 33.49 C 5.52 37.57 11.43 41.28 16.32 46.13 C 14.42 49.80 10.24 52.11 6.14 52.05 C 4.14 49.86 2.08 47.73 0.00 45.61 L 0.00 33.49 Z" />
<path fill="#674344" opacity="1.00" d=" M 22.06 45.33 C 26.71 43.54 30.25 39.98 34.09 36.98 C 36.45 35.60 39.36 42.50 38.99 38.09 C 39.62 38.74 40.27 39.37 40.93 39.99 C 45.92 42.39 44.10 45.23 40.51 48.09 C 36.83 46.53 24.58 41.14 33.05 48.00 C 36.81 49.29 44.58 57.87 47.13 51.39 C 49.24 52.69 51.78 52.66 54.15 53.06 C 52.53 53.80 50.92 54.64 49.79 56.06 C 56.94 54.23 63.87 51.49 71.07 49.69 C 70.52 49.43 69.44 48.90 68.89 48.64 C 76.70 47.83 84.01 44.01 91.75 43.41 C 95.34 47.59 103.79 38.91 104.39 46.17 C 101.50 43.93 98.14 45.86 96.12 48.26 C 97.11 55.05 98.67 62.62 103.26 67.88 C 107.44 68.98 108.53 63.92 108.24 60.82 C 109.15 61.66 110.08 62.47 111.00 63.30 L 111.00 65.64 C 108.24 68.61 106.11 72.50 102.24 74.13 L 101.27 74.06 C 99.16 65.53 94.13 57.86 93.72 48.90 C 90.46 50.30 87.57 52.46 84.95 54.82 C 77.64 58.92 69.34 61.62 62.82 66.92 C 57.27 74.62 50.26 81.00 43.85 87.94 C 45.25 87.99 46.65 88.00 48.05 87.96 C 38.18 90.75 27.74 92.01 17.98 87.92 C 16.11 85.40 14.56 82.66 12.93 79.99 C 20.61 82.40 27.53 88.33 35.69 88.71 C 43.32 84.58 52.44 76.87 50.99 67.17 C 48.49 59.07 38.02 58.92 32.84 53.01 C 36.13 53.28 44.11 59.61 43.68 55.34 C 38.39 54.23 33.30 46.71 27.78 50.48 C 25.69 50.52 23.59 50.32 21.52 50.69 C 15.24 48.24 8.60 53.56 9.70 60.10 C 6.48 61.70 9.59 53.86 6.14 52.05 C 10.24 52.11 14.42 49.80 16.32 46.13 C 17.82 49.27 20.21 46.76 22.06 45.33 M 71.33 53.43 C 65.57 55.53 58.72 56.01 53.82 60.02 C 60.20 59.17 67.05 58.45 72.37 54.45 C 74.94 52.95 73.57 52.74 71.33 53.43 Z" />
<path fill="#8b655f" opacity="1.00" d=" M 33.05 48.00 C 24.58 41.14 36.83 46.53 40.51 48.09 C 42.71 49.20 44.96 50.22 47.13 51.39 C 44.58 57.87 36.81 49.29 33.05 48.00 Z" />
<path fill="#a0796e" opacity="1.00" d=" M 96.12 48.26 C 98.14 45.86 101.50 43.93 104.39 46.17 C 105.69 51.05 107.24 55.86 108.24 60.82 C 108.53 63.92 107.44 68.98 103.26 67.88 C 98.67 62.62 97.11 55.05 96.12 48.26 Z" />
<path fill="#502a32" opacity="1.00" d=" M 0.00 45.61 C 2.08 47.73 4.14 49.86 6.14 52.05 C 9.59 53.86 6.48 61.70 9.70 60.10 C 9.74 60.50 9.82 61.31 9.86 61.71 C 9.73 68.01 5.63 75.27 10.05 80.96 C 13.20 86.66 18.20 91.01 23.60 94.49 C 24.19 96.57 22.03 99.58 19.60 98.65 C 14.76 96.74 12.14 101.58 8.84 103.90 C 9.10 101.84 9.36 99.77 9.61 97.71 C 6.60 98.76 2.13 106.82 0.00 101.73 L 0.00 45.61 Z" />
<path fill="#8a645e" opacity="1.00" d=" M 27.78 50.48 C 33.30 46.71 38.39 54.23 43.68 55.34 C 44.11 59.61 36.13 53.28 32.84 53.01 C 38.02 58.92 48.49 59.07 50.99 67.17 C 40.44 63.22 29.93 58.36 21.52 50.69 C 23.59 50.32 25.69 50.52 27.78 50.48 Z" />
<path fill="#946963" opacity="1.00" d=" M 54.15 53.06 C 59.06 51.58 63.93 49.96 68.89 48.64 C 69.44 48.90 70.52 49.43 71.07 49.69 C 63.87 51.49 56.94 54.23 49.79 56.06 C 50.92 54.64 52.53 53.80 54.15 53.06 Z" />
<path fill="#a88175" opacity="1.00" d=" M 84.95 54.82 C 87.57 52.46 90.46 50.30 93.72 48.90 C 94.13 57.86 99.16 65.53 101.27 74.06 C 90.37 76.69 79.43 79.25 68.77 82.73 C 61.88 84.54 54.93 86.11 48.05 87.96 C 46.65 88.00 45.25 87.99 43.85 87.94 C 50.26 81.00 57.27 74.62 62.82 66.92 C 70.30 63.43 79.12 60.82 84.95 54.82 Z" />
<path fill="#a98276" opacity="1.00" d=" M 9.70 60.10 C 8.60 53.56 15.24 48.24 21.52 50.69 C 29.93 58.36 40.44 63.22 50.99 67.17 C 52.44 76.87 43.32 84.58 35.69 88.71 C 27.53 88.33 20.61 82.40 12.93 79.99 C 12.15 78.78 11.33 77.59 10.77 76.27 C 10.71 72.07 11.02 67.81 10.20 63.66 C 10.12 63.18 9.94 62.20 9.86 61.71 C 9.82 61.31 9.74 60.50 9.70 60.10 Z" />
<path fill="#966f67" opacity="1.00" d=" M 71.33 53.43 C 73.57 52.74 74.94 52.95 72.37 54.45 C 67.05 58.45 60.20 59.17 53.82 60.02 C 58.72 56.01 65.57 55.53 71.33 53.43 Z" />
<path fill="#bea89a" opacity="1.00" d=" M 62.82 66.92 C 69.34 61.62 77.64 58.92 84.95 54.82 C 79.12 60.82 70.30 63.43 62.82 66.92 Z" />
<path fill="#0b0707" opacity="0.96" d=" M 10.05 80.96 C 5.63 75.27 9.73 68.01 9.86 61.71 C 9.94 62.20 10.12 63.18 10.20 63.66 C 10.79 67.76 9.08 72.34 10.77 76.27 C 11.33 77.59 12.15 78.78 12.93 79.99 C 14.56 82.66 16.11 85.40 17.98 87.92 C 22.50 93.21 30.08 94.52 35.80 98.16 C 39.11 102.32 42.51 106.43 45.26 111.00 L 42.52 111.00 C 38.15 105.68 35.09 97.98 27.67 96.36 C 20.15 99.92 10.67 102.15 6.42 111.00 L 3.73 111.00 C 5.30 108.54 6.87 106.06 8.84 103.90 C 12.14 101.58 14.76 96.74 19.60 98.65 C 22.03 99.58 24.19 96.57 23.60 94.49 C 18.20 91.01 13.20 86.66 10.05 80.96 Z" />
<path fill="#604942" opacity="1.00" d=" M 10.20 63.66 C 11.02 67.81 10.71 72.07 10.77 76.27 C 9.08 72.34 10.79 67.76 10.20 63.66 Z" />
<path fill="#4d2830" opacity="1.00" d=" M 102.24 74.13 C 106.11 72.50 108.24 68.61 111.00 65.64 L 111.00 84.86 C 105.70 89.54 95.25 90.07 94.34 98.30 C 92.61 102.60 90.58 106.76 88.72 111.00 L 79.73 111.00 C 83.36 108.08 85.12 103.77 85.49 99.21 C 85.76 97.83 85.96 96.44 86.04 95.04 C 77.95 94.86 69.91 95.98 61.83 96.34 L 61.07 96.32 C 57.82 96.07 54.28 95.19 51.69 97.55 C 50.09 97.40 48.48 97.46 46.89 97.70 C 43.19 97.89 39.50 98.06 35.80 98.16 C 30.08 94.52 22.50 93.21 17.98 87.92 C 27.74 92.01 38.18 90.75 48.05 87.96 C 54.93 86.11 61.88 84.54 68.77 82.73 C 72.33 82.51 76.82 81.54 75.33 85.92 C 82.09 94.58 92.85 85.91 99.23 81.27 C 102.53 79.83 98.87 75.35 102.24 74.13 Z" />
<path fill="#5a363a" opacity="1.00" d=" M 68.77 82.73 C 79.43 79.25 90.37 76.69 101.27 74.06 L 102.24 74.13 C 98.87 75.35 102.53 79.83 99.23 81.27 C 92.85 85.91 82.09 94.58 75.33 85.92 C 76.82 81.54 72.33 82.51 68.77 82.73 Z" />
<path fill="#060303" opacity="0.94" d=" M 94.34 98.30 C 95.25 90.07 105.70 89.54 111.00 84.86 L 111.00 87.58 C 100.39 91.29 94.31 100.83 90.71 111.00 L 88.72 111.00 C 90.58 106.76 92.61 102.60 94.34 98.30 Z" />
<path fill="#6e4647" opacity="1.00" d=" M 61.83 96.34 C 69.91 95.98 77.95 94.86 86.04 95.04 C 85.96 96.44 85.76 97.83 85.49 99.21 C 78.06 95.83 69.64 97.87 61.83 96.34 Z" />
<path fill="#c7b1a4" opacity="1.00" d=" M 51.69 97.55 C 54.28 95.19 57.82 96.07 61.07 96.32 C 55.94 95.38 53.28 97.68 52.43 102.32 C 52.15 100.74 51.90 99.15 51.69 97.55 Z" />
<path fill="#a27a70" opacity="1.00" d=" M 61.07 96.32 L 61.83 96.34 C 69.64 97.87 78.06 95.83 85.49 99.21 C 85.12 103.77 83.36 108.08 79.73 111.00 L 65.51 111.00 C 60.67 109.03 52.55 109.15 52.43 102.32 C 53.28 97.68 55.94 95.38 61.07 96.32 Z" />
<path fill="#815c57" opacity="1.00" d=" M 46.89 97.70 C 48.48 97.46 50.09 97.40 51.69 97.55 C 51.90 99.15 52.15 100.74 52.43 102.32 C 52.55 109.15 60.67 109.03 65.51 111.00 L 48.94 111.00 C 53.09 107.04 47.21 102.26 46.89 97.70 Z" />
<path fill="#7d5453" opacity="1.00" d=" M 0.00 101.73 C 2.13 106.82 6.60 98.76 9.61 97.71 C 9.36 99.77 9.10 101.84 8.84 103.90 C 6.87 106.06 5.30 108.54 3.73 111.00 L 0.00 111.00 L 0.00 101.73 Z" />
<path fill="#a98478" opacity="1.00" d=" M 35.80 98.16 C 39.50 98.06 43.19 97.89 46.89 97.70 C 47.21 102.26 53.09 107.04 48.94 111.00 L 45.26 111.00 C 42.51 106.43 39.11 102.32 35.80 98.16 Z" />
</svg>
