<?xml version="1.0" encoding="UTF-8" ?>
<!DOCTYPE svg PUBLIC "-//W3C//DTD SVG 1.1//EN" "http://www.w3.org/Graphics/SVG/1.1/DTD/svg11.dtd">
<svg width="111pt" height="111pt" viewBox="0 0 111 111" version="1.1" xmlns="http://www.w3.org/2000/svg">
<path fill="#000000" opacity="1.00" d=" M 6.67 0.00 L 9.88 0.00 C 12.61 3.20 15.32 6.45 17.39 10.12 C 17.71 11.24 18.04 12.36 18.38 13.47 C 19.38 13.53 20.38 13.59 21.38 13.66 C 19.11 17.02 15.19 18.09 11.60 19.38 C 8.61 20.60 5.73 22.09 3.13 24.01 C 1.57 25.78 3.31 27.55 4.31 29.08 C 6.86 32.67 9.64 36.09 12.88 39.08 C 14.51 40.74 16.47 42.26 17.41 44.45 C 18.58 47.60 16.91 50.74 16.39 53.83 C 16.76 55.24 18.29 55.91 19.20 56.92 C 19.33 53.17 19.76 49.31 21.87 46.10 C 22.88 45.08 23.94 44.12 25.00 43.16 C 23.84 39.26 21.99 35.50 18.30 33.42 C 15.82 30.93 12.52 28.09 13.16 24.18 C 16.97 20.89 22.62 21.33 26.54 18.10 C 24.10 14.36 20.69 11.45 17.43 8.46 C 17.18 7.72 16.93 6.98 16.66 6.25 C 16.44 4.17 16.31 2.08 16.18 0.00 L 18.98 0.00 C 19.28 2.67 18.87 5.88 21.18 7.81 C 24.41 10.91 27.88 13.90 29.78 18.06 C 28.26 19.85 26.63 21.53 24.90 23.11 C 24.55 25.65 24.43 28.26 23.63 30.72 C 19.99 31.41 19.66 25.15 15.90 24.72 C 16.85 30.61 23.40 32.27 26.13 36.96 C 28.29 40.33 32.41 41.54 35.30 44.14 C 32.41 45.98 29.09 47.20 25.61 46.60 C 22.50 49.07 21.98 53.13 22.36 56.85 C 26.84 55.75 31.50 54.02 36.14 55.22 C 37.69 55.52 39.20 56.55 39.70 58.10 C 40.20 62.95 36.89 67.30 36.86 72.02 C 37.17 72.27 37.79 72.77 38.10 73.02 C 40.44 73.22 42.31 71.41 44.43 70.69 C 47.64 68.98 51.88 68.89 53.99 65.55 C 49.99 64.13 46.42 61.67 44.22 57.98 C 45.98 56.57 47.79 55.22 49.64 53.94 C 49.10 52.56 48.55 51.18 48.00 49.81 C 50.19 46.77 52.49 43.81 54.90 40.93 C 59.10 36.09 59.77 29.44 62.07 23.68 L 62.96 23.12 C 64.33 24.63 65.48 26.33 66.67 27.99 C 68.19 24.14 69.15 20.10 70.72 16.28 C 71.02 16.17 71.61 15.96 71.91 15.85 C 73.34 17.66 74.09 19.87 74.97 21.97 C 76.34 19.35 77.59 16.65 79.27 14.20 C 79.60 14.24 80.27 14.32 80.61 14.36 C 82.22 16.79 82.94 19.66 83.82 22.41 C 90.23 13.50 98.41 5.92 107.64 0.00 L 111.00 0.00 L 111.00 0.47 C 109.91 1.32 108.79 2.14 107.66 2.93 C 104.91 4.74 102.35 6.81 99.80 8.88 C 97.51 10.65 95.12 12.46 93.84 15.14 C 96.35 13.89 98.61 12.23 100.90 10.64 C 99.67 12.37 98.40 14.08 97.13 15.79 C 98.11 15.44 99.07 15.09 100.05 14.75 C 101.53 14.73 103.01 14.75 104.49 14.81 C 104.08 15.16 103.26 15.87 102.85 16.22 C 100.10 16.98 97.33 17.64 94.62 18.55 C 93.46 20.36 92.27 22.14 91.05 23.90 C 93.26 23.59 95.58 23.07 97.74 23.99 L 98.84 25.27 C 95.66 25.56 92.47 25.73 89.35 26.40 C 88.36 28.17 87.35 29.92 86.44 31.72 C 85.91 33.57 85.71 35.49 85.43 37.38 C 87.42 36.67 89.40 35.93 91.38 35.18 C 92.12 36.46 92.86 37.73 93.59 39.01 C 93.65 38.86 93.76 38.58 93.81 38.44 C 98.35 34.34 100.97 28.74 103.61 23.36 C 105.31 20.34 106.92 17.26 108.26 14.06 C 109.19 11.83 110.13 9.61 111.00 7.36 L 111.00 13.95 C 106.16 24.52 101.61 36.18 92.04 43.42 C 92.32 43.81 92.88 44.61 93.16 45.00 C 85.17 49.34 78.27 55.31 71.10 60.82 C 67.58 62.96 64.31 65.46 61.14 68.09 C 58.58 69.79 56.00 71.50 53.20 72.78 C 53.39 70.22 54.85 68.10 56.12 65.96 C 54.92 67.35 53.76 68.77 52.62 70.21 C 50.99 71.95 49.37 73.69 47.87 75.55 L 47.17 76.34 C 50.92 76.22 55.53 73.90 58.72 76.80 C 54.84 77.43 50.47 77.78 47.89 81.17 C 47.54 81.60 46.85 82.44 46.50 82.86 C 48.33 83.50 50.16 84.14 51.99 84.78 C 53.39 83.13 54.81 81.50 56.27 79.91 C 66.01 69.15 75.21 57.33 88.05 50.09 C 90.10 48.77 92.72 48.00 94.11 45.87 C 94.71 44.75 94.38 43.39 94.75 42.19 C 95.33 42.58 96.51 43.36 97.10 43.75 C 99.61 40.59 102.77 38.04 106.27 36.05 C 108.01 38.06 107.53 40.73 107.45 43.16 C 107.98 43.37 109.02 43.79 109.55 44.00 C 109.76 48.25 108.71 52.42 107.63 56.49 C 108.47 56.39 110.16 56.19 111.00 56.09 L 111.00 58.89 C 109.77 58.63 108.54 58.37 107.32 58.11 C 105.32 64.07 103.37 70.26 98.89 74.89 C 101.11 75.51 103.96 75.35 105.53 77.34 C 106.34 79.54 106.28 81.95 106.39 84.26 C 106.38 84.54 106.36 85.08 106.35 85.36 C 107.90 85.75 109.46 86.15 111.00 86.60 L 111.00 89.63 C 108.72 88.58 105.83 88.54 103.89 86.96 C 103.55 84.21 103.63 81.43 103.51 78.67 C 102.73 78.48 101.16 78.08 100.38 77.89 C 100.42 81.25 100.77 84.61 100.63 87.97 C 99.00 89.83 96.22 87.63 94.22 87.35 C 91.84 89.37 89.28 91.42 88.43 94.57 C 87.60 97.59 84.71 100.10 84.85 103.23 L 85.73 103.84 C 90.02 101.12 94.32 97.59 99.60 97.25 C 101.19 99.26 99.21 101.56 98.29 103.41 C 95.96 107.31 91.46 108.66 87.86 111.00 L 85.97 111.00 C 84.96 109.07 84.10 107.06 83.24 105.06 C 82.78 105.60 82.32 106.14 81.84 106.67 C 80.81 107.75 79.70 108.76 78.58 109.75 C 79.03 108.02 79.44 106.29 80.00 104.60 C 82.10 100.82 84.83 97.40 86.46 93.36 C 85.99 93.05 85.04 92.42 84.56 92.11 C 87.64 90.21 90.47 87.93 92.97 85.31 C 92.48 85.19 91.50 84.95 91.01 84.84 C 86.58 83.74 81.96 82.69 77.39 83.55 C 74.68 83.98 72.50 85.76 70.25 87.18 C 67.10 89.30 63.63 90.94 60.67 93.34 C 60.58 93.73 60.38 94.51 60.29 94.90 C 59.78 97.22 59.03 99.47 58.29 101.72 C 58.03 102.97 57.82 104.22 57.63 105.48 C 57.24 107.36 56.71 109.20 56.05 111.00 L 41.99 111.00 C 42.63 109.33 44.20 109.20 45.74 109.19 C 47.69 109.59 49.64 110.00 51.60 110.35 C 51.98 110.27 52.75 110.12 53.13 110.04 C 55.17 106.41 55.72 102.21 55.67 98.11 C 50.87 98.01 52.26 104.70 48.57 106.29 C 46.70 106.93 44.74 107.24 42.80 107.55 C 41.09 107.60 39.36 107.80 37.66 107.48 C 36.69 105.48 36.11 103.32 35.46 101.20 C 34.92 101.45 33.83 101.95 33.29 102.20 C 33.15 101.77 32.86 100.89 32.71 100.45 C 32.81 99.60 33.01 97.89 33.11 97.04 C 33.22 96.39 33.33 95.73 33.44 95.08 C 28.93 92.88 26.07 88.70 22.71 85.16 C 22.43 84.86 21.87 84.25 21.59 83.94 C 20.09 86.61 18.20 89.11 17.17 92.02 C 17.33 95.34 18.56 98.49 19.39 101.68 C 20.28 104.79 21.07 107.93 22.10 111.00 L 19.24 111.00 C 17.33 105.74 16.54 100.18 15.22 94.77 C 11.58 100.56 7.20 105.80 2.78 111.00 L 0.00 111.00 L 0.00 110.35 C 0.74 109.39 1.45 108.41 2.14 107.43 C 4.60 104.59 7.08 101.75 9.04 98.53 C 12.46 94.02 16.00 89.49 18.36 84.31 C 19.66 81.95 17.49 79.76 16.33 77.86 C 13.95 76.05 11.35 74.56 8.78 73.06 C 7.91 74.36 6.91 75.60 6.29 77.06 C 7.66 80.41 9.70 83.57 9.89 87.31 C 8.05 85.47 6.86 83.14 6.07 80.68 L 5.54 79.07 C 3.99 82.26 2.19 86.04 4.24 89.46 C 4.86 90.63 5.55 91.77 6.09 92.98 C 6.08 93.48 6.07 94.48 6.06 94.98 C 5.55 94.73 4.53 94.23 4.02 93.98 C 3.33 92.88 2.64 91.78 1.95 90.69 C 1.60 93.23 1.17 95.79 0.00 98.10 L 0.00 90.63 C 1.18 84.10 3.33 77.79 6.96 72.21 C 2.37 70.91 0.41 76.92 0.00 80.50 L 0.00 72.72 C 1.79 72.70 2.11 69.65 0.00 70.24 L 0.00 65.50 C 0.87 66.88 1.81 68.22 2.75 69.56 C 5.34 69.53 7.88 70.13 10.11 71.49 C 13.82 73.46 17.42 75.65 20.63 78.36 C 21.98 79.25 23.20 80.71 24.90 80.80 C 26.63 79.89 27.75 78.18 29.10 76.82 C 24.05 73.89 19.28 70.50 14.52 67.12 C 14.07 66.79 13.15 66.12 12.69 65.79 C 15.34 66.40 17.88 67.42 20.13 68.95 C 23.99 71.21 27.58 74.09 31.84 75.55 C 32.93 75.20 33.95 74.69 34.99 74.23 C 33.09 70.38 31.17 66.32 27.43 63.91 C 25.20 62.19 23.05 59.90 20.05 59.79 C 20.03 59.65 19.99 59.38 19.97 59.25 C 17.16 58.06 14.34 56.91 11.50 55.82 C 8.30 54.40 4.78 54.11 1.33 54.45 C 2.20 57.64 2.80 60.93 2.59 64.25 C 1.94 64.42 0.65 64.75 0.00 64.91 L 0.00 62.91 C 1.78 62.78 1.82 60.16 0.00 60.06 L 0.00 53.05 C 1.59 52.24 1.59 51.65 0.00 51.27 L 0.00 47.12 C 5.18 46.51 9.47 50.43 14.09 52.20 C 14.74 50.17 15.95 48.13 15.40 45.93 C 14.78 44.45 13.48 43.44 12.45 42.26 C 9.41 43.36 6.21 43.84 2.98 43.70 C 3.47 40.82 4.96 38.28 6.55 35.88 C 4.05 33.01 1.71 29.97 0.00 26.55 L 0.00 24.37 C 3.77 19.10 10.50 17.61 15.96 14.73 C 12.81 15.08 9.54 15.53 6.56 14.13 C 8.40 11.71 10.40 9.40 12.41 7.11 C 10.28 4.92 8.40 2.51 6.67 0.00 M 9.90 13.16 C 11.76 13.11 13.61 12.86 15.37 12.23 C 14.84 10.97 14.29 9.72 13.74 8.47 C 11.85 9.45 10.92 11.41 9.90 13.16 M 85.53 23.54 C 84.06 25.04 84.48 27.12 84.54 29.00 C 85.41 28.70 86.35 28.26 86.54 27.25 C 87.58 25.55 88.14 23.63 88.52 21.68 C 90.64 20.84 92.06 18.99 93.66 17.45 C 93.43 16.66 93.20 15.87 92.98 15.07 C 90.19 17.62 88.00 20.71 85.53 23.54 M 75.02 26.42 C 72.62 30.61 69.29 34.29 67.41 38.75 L 67.32 37.99 C 65.01 41.17 62.69 44.33 60.35 47.48 C 58.17 50.28 56.74 53.61 54.13 56.07 C 54.20 55.22 54.34 53.53 54.41 52.68 C 57.23 48.76 59.59 44.51 62.64 40.74 C 64.69 38.23 66.16 35.32 66.51 32.07 C 64.11 33.26 62.55 35.52 60.64 37.31 L 60.70 37.40 C 59.86 38.21 59.03 39.03 58.22 39.86 L 58.25 40.28 C 55.26 43.39 52.28 46.56 50.10 50.32 C 50.74 51.67 51.38 53.03 52.02 54.38 C 50.10 55.59 48.12 56.72 46.33 58.11 C 48.76 61.08 52.13 63.27 55.88 64.17 C 55.61 61.58 55.30 58.84 56.73 56.49 C 59.76 50.88 63.15 45.35 67.61 40.75 C 67.60 40.60 67.57 40.30 67.56 40.15 C 69.02 38.97 70.32 37.59 71.29 35.96 C 71.31 36.32 71.35 37.04 71.37 37.40 C 68.67 41.49 65.71 45.42 63.03 49.51 C 60.62 52.78 56.92 56.47 57.82 60.86 C 58.06 63.12 58.20 65.39 58.15 67.66 C 62.21 64.77 66.09 61.66 70.14 58.77 L 70.65 58.78 C 74.85 55.31 79.46 52.38 83.80 49.06 L 83.79 48.97 C 88.43 47.46 90.86 42.90 90.74 38.19 C 88.86 38.52 86.98 38.85 85.11 39.19 C 84.56 40.67 83.95 42.15 83.59 43.70 C 82.51 45.62 81.41 47.53 80.20 49.37 C 80.29 48.42 80.47 46.54 80.56 45.59 L 80.96 45.54 C 81.85 43.39 82.81 41.24 83.28 38.95 C 83.20 36.05 82.58 33.19 82.11 30.34 C 82.90 26.28 81.08 21.80 79.16 18.18 C 77.82 20.94 76.17 23.56 75.02 26.42 M 71.33 20.98 C 70.26 24.68 67.85 28.09 68.33 32.11 C 69.91 30.13 71.32 28.02 72.76 25.94 C 72.54 24.22 72.34 22.44 71.33 20.98 M 20.07 24.11 C 20.26 24.63 20.65 25.67 20.84 26.19 C 21.22 26.33 21.98 26.60 22.35 26.74 C 22.37 25.61 22.39 24.48 22.41 23.35 C 21.63 23.61 20.85 23.86 20.07 24.11 M 61.05 34.05 C 62.79 32.69 66.15 30.26 63.85 27.94 C 61.59 28.83 61.97 32.10 61.05 34.05 M 5.91 42.04 C 7.57 41.64 9.17 41.02 10.72 40.29 C 9.77 39.29 8.80 38.29 7.83 37.31 C 6.81 38.72 6.12 40.31 5.91 42.04 M 99.34 44.25 C 100.18 44.32 101.87 44.46 102.72 44.53 C 102.68 45.32 102.61 46.88 102.57 47.66 C 102.80 47.76 103.25 47.97 103.48 48.07 C 105.65 45.59 106.29 41.86 105.09 38.78 L 104.30 40.05 C 102.52 41.30 100.89 42.74 99.34 44.25 M 28.03 42.48 C 26.77 43.87 29.20 45.80 30.39 44.45 C 31.47 43.16 29.14 41.52 28.03 42.48 M 88.29 52.78 C 87.77 53.17 86.74 53.94 86.23 54.33 C 84.76 53.10 81.78 55.27 82.96 56.97 C 82.73 57.22 82.27 57.72 82.05 57.97 C 80.47 57.62 78.40 59.12 78.02 60.70 L 78.34 61.23 C 75.87 61.71 74.08 64.26 72.56 66.18 C 69.05 68.85 66.37 72.40 63.43 75.64 C 60.76 78.64 58.04 81.61 55.59 84.79 C 52.29 85.55 56.05 87.90 57.42 88.72 C 59.70 85.83 63.21 84.47 65.95 82.15 C 69.83 81.08 73.73 77.80 77.90 79.20 C 80.06 76.63 83.04 74.64 84.47 71.55 C 87.00 69.03 89.33 66.32 92.20 64.18 C 96.18 58.53 99.85 52.43 101.11 45.53 C 96.47 47.15 91.90 49.41 88.29 52.78 M 2.12 48.93 C 2.14 49.58 2.18 50.87 2.20 51.51 C 3.82 51.61 5.47 52.37 7.08 51.88 C 7.34 53.55 9.79 54.00 11.14 53.52 C 11.39 52.07 8.74 50.65 7.51 51.48 C 5.86 50.35 4.02 49.54 2.12 48.93 M 104.68 49.69 L 104.58 50.26 C 99.99 52.67 99.19 58.34 95.90 61.98 C 91.78 66.92 86.86 71.19 83.48 76.74 C 82.19 77.45 81.24 78.60 80.22 79.63 C 79.74 80.10 79.27 80.56 78.79 81.03 C 82.41 80.99 86.02 81.31 89.62 81.76 C 91.23 80.27 93.32 79.27 94.38 77.26 C 96.00 74.36 99.41 73.03 100.75 69.93 L 100.37 70.08 C 103.44 64.94 104.96 59.01 105.83 53.14 C 106.24 51.74 105.94 50.47 104.68 49.69 M 23.83 58.72 C 24.89 59.32 26.09 59.50 27.28 59.69 C 27.90 60.50 28.53 61.29 29.19 62.07 C 31.22 64.25 33.15 66.51 34.85 68.96 C 35.88 65.75 37.22 62.58 37.56 59.20 C 37.25 57.77 35.43 57.61 34.25 57.89 C 30.76 57.31 27.11 57.19 23.83 58.72 M 41.19 74.85 C 42.15 75.58 43.10 76.31 44.06 77.05 C 45.15 75.53 46.21 74.00 47.17 72.40 C 45.17 73.20 43.19 74.04 41.19 74.85 M 24.67 83.08 C 26.94 88.37 32.30 91.87 37.91 92.60 C 37.43 94.58 36.54 96.41 35.51 98.16 C 35.99 98.48 36.94 99.12 37.41 99.44 C 37.89 101.39 38.40 103.32 38.90 105.26 C 41.69 104.89 44.53 104.77 47.29 104.15 C 49.96 101.20 49.99 96.69 52.49 93.54 C 49.88 92.65 47.31 91.60 44.99 90.10 C 45.69 88.47 46.79 87.09 48.01 85.81 C 46.86 85.36 45.74 84.85 44.65 84.29 C 43.79 83.03 44.67 81.59 44.88 80.29 C 41.86 79.05 39.84 76.42 37.21 74.72 C 33.38 77.84 29.64 81.62 24.67 83.08 M 92.60 82.83 C 94.32 84.16 96.17 85.35 98.16 86.25 C 98.41 83.43 98.49 80.57 97.89 77.78 C 95.61 78.85 93.96 80.76 92.60 82.83 M 66.70 84.63 C 64.04 86.28 60.87 87.87 59.80 91.04 C 63.11 89.24 66.05 86.77 69.65 85.52 C 72.81 84.42 75.45 82.10 77.08 79.20 C 73.31 80.38 70.13 82.77 66.70 84.63 M 51.01 90.07 C 52.94 91.00 54.84 92.00 56.65 93.15 C 55.83 93.90 55.01 94.66 54.19 95.41 C 54.76 96.25 55.33 97.08 55.91 97.92 C 56.31 97.33 57.11 96.15 57.51 95.56 C 57.52 94.20 57.54 92.84 57.57 91.48 C 56.23 90.78 54.90 90.09 53.55 89.42 C 52.64 88.37 51.74 87.32 50.84 86.27 C 49.73 87.66 47.65 90.41 51.01 90.07 M 92.29 101.80 C 90.14 103.28 88.02 104.83 86.09 106.60 C 89.03 108.31 92.18 106.21 94.60 104.55 C 95.67 103.03 96.78 101.53 97.86 100.01 C 95.91 100.27 94.03 100.88 92.29 101.80 Z" />
<path fill="#92ba74" opacity="1.00" d=" M 9.88 0.00 L 12.34 0.00 C 13.86 2.02 15.32 4.10 16.66 6.25 C 16.93 6.98 17.18 7.72 17.43 8.46 C 17.42 8.87 17.40 9.71 17.39 10.12 C 15.32 6.45 12.61 3.20 9.88 0.00 Z" />
<path fill="#5b745e" opacity="1.00" d=" M 12.34 0.00 L 16.18 0.00 C 16.31 2.08 16.44 4.17 16.66 6.25 C 15.32 4.10 13.86 2.02 12.34 0.00 Z" />
<path fill="#92ba74" opacity="1.00" d=" M 107.66 2.93 C 108.79 2.14 109.91 1.32 111.00 0.47 L 111.00 2.53 C 108.60 5.25 106.17 7.96 103.98 10.86 C 102.81 12.29 101.49 13.59 100.05 14.75 C 99.07 15.09 98.11 15.44 97.13 15.79 C 98.40 14.08 99.67 12.37 100.90 10.64 C 98.61 12.23 96.35 13.89 93.84 15.14 C 95.12 12.46 97.51 10.65 99.80 8.88 L 99.54 10.84 C 102.96 9.16 106.90 7.06 107.66 2.93 Z" />
<path fill="#98cdae" opacity="1.00" d=" M 99.80 8.88 C 102.35 6.81 104.91 4.74 107.66 2.93 C 106.90 7.06 102.96 9.16 99.54 10.84 L 99.80 8.88 Z" />
<path fill="#4e5c58" opacity="1.00" d=" M 103.98 10.86 C 106.17 7.96 108.60 5.25 111.00 2.53 L 111.00 7.36 C 110.13 9.61 109.19 11.83 108.26 14.06 C 106.90 12.91 105.49 11.81 103.98 10.86 Z" />
<path fill="#333941" opacity="1.00" d=" M 9.90 13.16 C 10.92 11.41 11.85 9.45 13.74 8.47 C 14.29 9.72 14.84 10.97 15.37 12.23 C 13.61 12.86 11.76 13.11 9.90 13.16 Z" />
<path fill="#1f264a" opacity="1.00" d=" M 17.43 8.46 C 20.69 11.45 24.10 14.36 26.54 18.10 C 22.62 21.33 16.97 20.89 13.16 24.18 C 12.52 28.09 15.82 30.93 18.30 33.42 C 18.70 35.73 19.51 37.93 20.38 40.10 C 20.18 40.56 19.77 41.49 19.57 41.95 C 17.59 37.05 13.37 33.70 10.47 29.40 C 9.16 27.04 6.27 28.95 4.31 29.08 C 3.31 27.55 1.57 25.78 3.13 24.01 C 6.28 24.06 11.07 23.16 11.60 19.38 C 15.19 18.09 19.11 17.02 21.38 13.66 C 20.38 13.59 19.38 13.53 18.38 13.47 C 18.04 12.36 17.71 11.24 17.39 10.12 C 17.40 9.71 17.42 8.87 17.43 8.46 Z" />
<path fill="#444753" opacity="1.00" d=" M 100.05 14.75 C 101.49 13.59 102.81 12.29 103.98 10.86 C 105.49 11.81 106.90 12.91 108.26 14.06 C 106.92 17.26 105.31 20.34 103.61 23.36 C 101.12 23.78 100.31 26.44 99.13 28.30 C 97.41 31.72 94.61 34.59 93.81 38.44 C 93.76 38.58 93.65 38.86 93.59 39.01 C 92.86 37.73 92.12 36.46 91.38 35.18 C 89.40 35.93 87.42 36.67 85.43 37.38 C 85.71 35.49 85.91 33.57 86.44 31.72 C 88.95 31.35 89.52 28.31 90.94 26.62 C 93.59 26.29 96.23 25.85 98.84 25.27 L 97.74 23.99 C 96.76 23.54 95.78 23.11 94.79 22.70 C 96.24 19.21 100.15 18.41 102.85 16.22 C 103.26 15.87 104.08 15.16 104.49 14.81 C 103.01 14.75 101.53 14.73 100.05 14.75 Z" />
<path fill="#92ba74" opacity="1.00" d=" M 85.53 23.54 C 88.00 20.71 90.19 17.62 92.98 15.07 C 93.20 15.87 93.43 16.66 93.66 17.45 C 92.06 18.99 90.64 20.84 88.52 21.68 C 88.14 23.63 87.58 25.55 86.54 27.25 C 86.24 26.01 85.88 24.77 85.53 23.54 Z" />
<path fill="#92ba74" opacity="1.00" d=" M 94.62 18.55 C 97.33 17.64 100.10 16.98 102.85 16.22 C 100.15 18.41 96.24 19.21 94.79 22.70 C 95.78 23.11 96.76 23.54 97.74 23.99 C 95.58 23.07 93.26 23.59 91.05 23.90 C 92.27 22.14 93.46 20.36 94.62 18.55 Z" />
<path fill="#3b294d" opacity="1.00" d=" M 75.02 26.42 C 76.17 23.56 77.82 20.94 79.16 18.18 C 81.08 21.80 82.90 26.28 82.11 30.34 C 78.25 33.55 79.30 39.96 74.69 42.32 C 74.79 38.37 74.77 34.42 74.87 30.48 C 75.62 28.95 76.36 27.42 77.09 25.88 L 75.02 26.42 Z" />
<path fill="#3d4d4d" opacity="1.00" d=" M 3.13 24.01 C 5.73 22.09 8.61 20.60 11.60 19.38 C 11.07 23.16 6.28 24.06 3.13 24.01 Z" />
<path fill="#fa5f79" opacity="1.00" d=" M 71.33 20.98 C 72.34 22.44 72.54 24.22 72.76 25.94 C 71.32 28.02 69.91 30.13 68.33 32.11 C 67.85 28.09 70.26 24.68 71.33 20.98 Z" />
<path fill="#4e5c58" opacity="1.00" d=" M 20.07 24.11 C 20.85 23.86 21.63 23.61 22.41 23.35 C 22.39 24.48 22.37 25.61 22.35 26.74 C 21.98 26.60 21.22 26.33 20.84 26.19 C 20.65 25.67 20.26 24.63 20.07 24.11 Z" />
<path fill="#63b4c5" opacity="1.00" d=" M 99.13 28.30 C 100.31 26.44 101.12 23.78 103.61 23.36 C 100.97 28.74 98.35 34.34 93.81 38.44 C 94.61 34.59 97.41 31.72 99.13 28.30 Z" />
<path fill="#ac5c70" opacity="1.00" d=" M 85.53 23.54 C 85.88 24.77 86.24 26.01 86.54 27.25 C 86.35 28.26 85.41 28.70 84.54 29.00 C 84.48 27.12 84.06 25.04 85.53 23.54 Z" />
<path fill="#fffc7b" opacity="1.00" d=" M 89.35 26.40 C 92.47 25.73 95.66 25.56 98.84 25.27 C 96.23 25.85 93.59 26.29 90.94 26.62 C 89.52 28.31 88.95 31.35 86.44 31.72 C 87.35 29.92 88.36 28.17 89.35 26.40 Z" />
<path fill="#d2b8c4" opacity="1.00" d=" M 67.41 38.75 C 69.29 34.29 72.62 30.61 75.02 26.42 L 77.09 25.88 C 76.36 27.42 75.62 28.95 74.87 30.48 C 73.70 32.32 72.47 34.13 71.29 35.96 C 70.32 37.59 69.02 38.97 67.56 40.15 L 67.41 38.75 Z" />
<path fill="#565258" opacity="1.00" d=" M 4.31 29.08 C 6.27 28.95 9.16 27.04 10.47 29.40 C 13.37 33.70 17.59 37.05 19.57 41.95 C 19.77 41.49 20.18 40.56 20.38 40.10 C 21.04 42.06 21.44 44.08 21.87 46.10 C 19.76 49.31 19.33 53.17 19.20 56.92 C 18.29 55.91 16.76 55.24 16.39 53.83 C 16.91 50.74 18.58 47.60 17.41 44.45 C 16.47 42.26 14.51 40.74 12.88 39.08 C 9.64 36.09 6.86 32.67 4.31 29.08 Z" />
<path fill="#fa5f79" opacity="1.00" d=" M 61.05 34.05 C 61.97 32.10 61.59 28.83 63.85 27.94 C 66.15 30.26 62.79 32.69 61.05 34.05 Z" />
<path fill="#e2556d" opacity="1.00" d=" M 71.29 35.96 C 72.47 34.13 73.70 32.32 74.87 30.48 C 74.77 34.42 74.79 38.37 74.69 42.32 C 73.32 43.04 72.58 44.18 72.46 45.76 L 72.49 43.45 C 68.00 48.83 63.63 55.19 63.20 62.38 C 64.84 58.54 66.92 54.66 71.14 53.24 C 69.73 55.14 68.19 56.94 66.67 58.74 L 68.28 58.73 C 68.75 58.74 69.68 58.76 70.14 58.77 C 66.09 61.66 62.21 64.77 58.15 67.66 C 58.20 65.39 58.06 63.12 57.82 60.86 C 58.03 56.46 61.68 53.50 63.03 49.51 C 65.71 45.42 68.67 41.49 71.37 37.40 C 71.35 37.04 71.31 36.32 71.29 35.96 Z" />
<path fill="#503352" opacity="1.00" d=" M 74.69 42.32 C 79.30 39.96 78.25 33.55 82.11 30.34 C 82.58 33.19 83.20 36.05 83.28 38.95 C 82.81 41.24 81.85 43.39 80.96 45.54 L 80.56 45.59 C 80.25 45.63 79.64 45.72 79.33 45.76 C 78.01 46.44 76.76 47.22 75.50 47.99 C 75.61 46.45 75.38 44.92 75.05 43.42 C 74.19 44.21 73.33 44.99 72.46 45.76 C 72.58 44.18 73.32 43.04 74.69 42.32 Z" />
<path fill="#fa5f79" opacity="1.00" d=" M 60.64 37.31 C 62.55 35.52 64.11 33.26 66.51 32.07 C 66.16 35.32 64.69 38.23 62.64 40.74 C 62.05 39.59 61.39 38.48 60.70 37.40 L 60.64 37.31 Z" />
<path fill="#708c69" opacity="1.00" d=" M 20.38 40.10 C 19.51 37.93 18.70 35.73 18.30 33.42 C 21.99 35.50 23.84 39.26 25.00 43.16 C 23.94 44.12 22.88 45.08 21.87 46.10 C 21.44 44.08 21.04 42.06 20.38 40.10 Z" />
<path fill="#2f3641" opacity="1.00" d=" M 5.91 42.04 C 6.12 40.31 6.81 38.72 7.83 37.31 C 8.80 38.29 9.77 39.29 10.72 40.29 C 9.17 41.02 7.57 41.64 5.91 42.04 Z" />
<path fill="#ff9798" opacity="1.00" d=" M 60.70 37.40 C 61.39 38.48 62.05 39.59 62.64 40.74 C 59.59 44.51 57.23 48.76 54.41 52.68 C 53.81 53.10 52.61 53.96 52.02 54.38 C 51.38 53.03 50.74 51.67 50.10 50.32 C 53.41 48.11 55.93 44.98 58.34 41.86 C 58.32 41.47 58.27 40.68 58.25 40.28 L 58.22 39.86 C 59.03 39.03 59.86 38.21 60.70 37.40 Z" />
<path fill="#e1556c" opacity="1.00" d=" M 67.32 37.99 L 67.41 38.75 L 67.56 40.15 C 67.57 40.30 67.60 40.60 67.61 40.75 C 63.15 45.35 59.76 50.88 56.73 56.49 C 55.30 58.84 55.61 61.58 55.88 64.17 C 52.13 63.27 48.76 61.08 46.33 58.11 C 48.12 56.72 50.10 55.59 52.02 54.38 C 52.61 53.96 53.81 53.10 54.41 52.68 C 54.34 53.53 54.20 55.22 54.13 56.07 C 56.74 53.61 58.17 50.28 60.35 47.48 C 62.69 44.33 65.01 41.17 67.32 37.99 Z" />
<path fill="#4f4c55" opacity="1.00" d=" M 85.11 39.19 C 86.98 38.85 88.86 38.52 90.74 38.19 C 90.86 42.90 88.43 47.46 83.79 48.97 C 83.67 47.21 83.59 45.46 83.59 43.70 C 83.95 42.15 84.56 40.67 85.11 39.19 Z" />
<path fill="#ac5c70" opacity="1.00" d=" M 99.34 44.25 C 100.89 42.74 102.52 41.30 104.30 40.05 C 103.64 42.67 103.29 45.37 103.48 48.07 C 103.25 47.97 102.80 47.76 102.57 47.66 C 102.61 46.88 102.68 45.32 102.72 44.53 C 101.87 44.46 100.18 44.32 99.34 44.25 Z" />
<path fill="#89a6be" opacity="1.00" d=" M 104.30 40.05 L 105.09 38.78 C 106.29 41.86 105.65 45.59 103.48 48.07 C 103.29 45.37 103.64 42.67 104.30 40.05 Z" />
<path fill="#fffc7b" opacity="1.00" d=" M 50.10 50.32 C 52.28 46.56 55.26 43.39 58.25 40.28 C 58.27 40.68 58.32 41.47 58.34 41.86 C 55.93 44.98 53.41 48.11 50.10 50.32 Z" />
<path fill="#1d2443" opacity="1.00" d=" M 28.03 42.48 C 29.14 41.52 31.47 43.16 30.39 44.45 C 29.20 45.80 26.77 43.87 28.03 42.48 Z" />
<path fill="#000000" opacity="1.00" d=" M 63.20 62.38 C 63.63 55.19 68.00 48.83 72.49 43.45 L 72.46 45.76 C 73.33 44.99 74.19 44.21 75.05 43.42 C 75.38 44.92 75.61 46.45 75.50 47.99 C 74.28 52.23 72.05 56.24 68.28 58.73 L 66.67 58.74 C 68.19 56.94 69.73 55.14 71.14 53.24 C 66.92 54.66 64.84 58.54 63.20 62.38 M 71.97 45.62 C 71.18 48.31 68.99 50.28 67.95 52.88 C 70.17 51.18 72.14 49.18 73.88 47.01 C 73.24 46.55 72.61 46.08 71.97 45.62 Z" />
<path fill="#803d5b" opacity="1.00" d=" M 80.20 49.37 C 81.41 47.53 82.51 45.62 83.59 43.70 C 83.59 45.46 83.67 47.21 83.79 48.97 L 83.80 49.06 C 79.46 52.38 74.85 55.31 70.65 58.78 L 70.14 58.77 C 69.68 58.76 68.75 58.74 68.28 58.73 C 72.05 56.24 74.28 52.23 75.50 47.99 C 76.76 47.22 78.01 46.44 79.33 45.76 C 79.64 45.72 80.25 45.63 80.56 45.59 C 80.47 46.54 80.29 48.42 80.20 49.37 Z" />
<path fill="#e4566d" opacity="1.00" d=" M 71.10 60.82 C 78.27 55.31 85.17 49.34 93.16 45.00 C 93.40 45.22 93.87 45.65 94.11 45.87 C 92.72 48.00 90.10 48.77 88.05 50.09 C 75.21 57.33 66.01 69.15 56.27 79.91 C 55.68 79.64 54.48 79.11 53.89 78.85 C 52.51 79.72 51.14 80.59 49.76 81.46 C 49.29 81.39 48.36 81.24 47.89 81.17 C 50.47 77.78 54.84 77.43 58.72 76.80 C 55.53 73.90 50.92 76.22 47.17 76.34 L 47.87 75.55 C 49.44 74.45 51.05 73.39 52.52 72.15 C 52.54 71.67 52.59 70.70 52.62 70.21 C 53.76 68.77 54.92 67.35 56.12 65.96 C 54.85 68.10 53.39 70.22 53.20 72.78 C 56.00 71.50 58.58 69.79 61.14 68.09 C 61.61 68.15 62.53 68.28 62.99 68.35 C 66.73 66.20 70.31 63.69 73.30 60.55 L 71.10 60.82 Z" />
<path fill="#fffc7b" opacity="1.00" d=" M 71.97 45.62 C 72.61 46.08 73.24 46.55 73.88 47.01 C 72.14 49.18 70.17 51.18 67.95 52.88 C 68.99 50.28 71.18 48.31 71.97 45.62 Z" />
<path fill="#823f5b" opacity="1.00" d=" M 88.29 52.78 C 91.90 49.41 96.47 47.15 101.11 45.53 C 99.85 52.43 96.18 58.53 92.20 64.18 C 89.33 66.32 87.00 69.03 84.47 71.55 C 85.26 69.40 86.34 67.37 87.59 65.46 C 86.48 64.49 85.36 63.52 84.25 62.55 C 86.43 59.90 89.30 57.40 89.44 53.70 C 89.53 53.27 89.70 52.42 89.79 52.00 L 88.29 52.78 Z" />
<path fill="#fa5f79" opacity="1.00" d=" M 2.12 48.93 C 4.02 49.54 5.86 50.35 7.51 51.48 L 7.08 51.88 C 5.47 52.37 3.82 51.61 2.20 51.51 C 2.18 50.87 2.14 49.58 2.12 48.93 Z" />
<path fill="#fffc7b" opacity="1.00" d=" M 57.82 60.86 C 56.92 56.47 60.62 52.78 63.03 49.51 C 61.68 53.50 58.03 56.46 57.82 60.86 Z" />
<path fill="#71a5c5" opacity="1.00" d=" M 104.68 49.69 C 105.94 50.47 106.24 51.74 105.83 53.14 C 104.96 59.01 103.44 64.94 100.37 70.08 L 98.66 70.78 C 99.43 68.54 100.27 66.33 101.05 64.09 C 102.85 59.66 103.86 54.97 104.58 50.26 L 104.68 49.69 Z" />
<path fill="#000000" opacity="0.59" d=" M 0.00 51.27 C 1.59 51.65 1.59 52.24 0.00 53.05 L 0.00 51.27 Z" />
<path fill="#694e46" opacity="1.00" d=" M 7.51 51.48 C 8.74 50.65 11.39 52.07 11.14 53.52 C 9.79 54.00 7.34 53.55 7.08 51.88 L 7.51 51.48 Z" />
<path fill="#6b3a57" opacity="1.00" d=" M 95.90 61.98 C 99.19 58.34 99.99 52.67 104.58 50.26 C 103.86 54.97 102.85 59.66 101.05 64.09 L 100.75 62.76 C 99.83 64.14 98.95 65.56 98.13 67.02 C 97.03 66.73 95.93 66.44 94.84 66.15 C 90.60 69.23 88.35 74.52 83.48 76.74 C 86.86 71.19 91.78 66.92 95.90 61.98 Z" />
<path fill="#f6ded8" opacity="1.00" d=" M 86.23 54.33 C 86.74 53.94 87.77 53.17 88.29 52.78 L 89.79 52.00 C 89.70 52.42 89.53 53.27 89.44 53.70 C 84.91 57.66 80.95 62.20 76.78 66.52 C 77.53 64.76 78.21 62.96 79.01 61.21 C 80.19 60.30 81.24 59.23 82.05 57.97 C 82.27 57.72 82.73 57.22 82.96 56.97 C 84.14 56.21 85.24 55.34 86.23 54.33 Z" />
<path fill="#934765" opacity="1.00" d=" M 1.33 54.45 C 4.78 54.11 8.30 54.40 11.50 55.82 C 9.14 56.60 6.76 57.28 4.35 57.91 C 4.22 62.35 7.64 65.52 11.57 66.90 L 11.42 64.99 C 11.74 65.19 12.38 65.59 12.69 65.79 C 13.15 66.12 14.07 66.79 14.52 67.12 C 13.01 68.54 11.54 69.99 10.11 71.49 C 7.88 70.13 5.34 69.53 2.75 69.56 C 1.81 68.22 0.87 66.88 0.00 65.50 L 0.00 64.91 C 0.65 64.75 1.94 64.42 2.59 64.25 C 2.80 60.93 2.20 57.64 1.33 54.45 Z" />
<path fill="#6a3439" opacity="1.00" d=" M 82.96 56.97 C 81.78 55.27 84.76 53.10 86.23 54.33 C 85.24 55.34 84.14 56.21 82.96 56.97 Z" />
<path fill="#e58e91" opacity="1.00" d=" M 76.78 66.52 C 80.95 62.20 84.91 57.66 89.44 53.70 C 89.30 57.40 86.43 59.90 84.25 62.55 C 80.06 67.16 75.53 71.46 70.85 75.57 C 67.31 78.14 63.58 80.43 60.00 82.95 C 58.70 83.93 57.16 84.46 55.59 84.79 C 58.04 81.61 60.76 78.64 63.43 75.64 C 63.63 76.06 64.02 76.91 64.21 77.33 C 64.35 77.64 64.63 78.26 64.77 78.56 C 68.43 74.20 73.23 70.99 76.78 66.52 Z" />
<path fill="#d89293" opacity="1.00" d=" M 4.35 57.91 C 6.76 57.28 9.14 56.60 11.50 55.82 C 14.34 56.91 17.16 58.06 19.97 59.25 C 19.99 59.38 20.03 59.65 20.05 59.79 C 18.13 60.04 16.22 59.76 14.35 59.34 C 13.17 61.01 11.52 62.19 9.72 63.11 C 10.15 63.58 11.00 64.52 11.42 64.99 L 11.57 66.90 C 7.64 65.52 4.22 62.35 4.35 57.91 Z" />
<path fill="#d89293" opacity="1.00" d=" M 23.83 58.72 C 27.11 57.19 30.76 57.31 34.25 57.89 C 32.14 58.13 30.05 58.43 27.95 58.72 C 28.35 59.84 28.72 60.97 29.19 62.07 C 28.53 61.29 27.90 60.50 27.28 59.69 C 26.09 59.50 24.89 59.32 23.83 58.72 Z" />
<path fill="#30254b" opacity="1.00" d=" M 34.25 57.89 C 35.43 57.61 37.25 57.77 37.56 59.20 C 37.22 62.58 35.88 65.75 34.85 68.96 C 33.15 66.51 31.22 64.25 29.19 62.07 C 28.72 60.97 28.35 59.84 27.95 58.72 C 30.05 58.43 32.14 58.13 34.25 57.89 Z" />
<path fill="#c78378" opacity="1.00" d=" M 78.02 60.70 C 78.40 59.12 80.47 57.62 82.05 57.97 C 81.24 59.23 80.19 60.30 79.01 61.21 L 78.34 61.23 L 78.02 60.70 Z" />
<path fill="#22284a" opacity="1.00" d=" M 107.32 58.11 C 108.54 58.37 109.77 58.63 111.00 58.89 L 111.00 59.17 C 110.13 60.25 108.91 61.09 108.35 62.39 C 108.24 64.99 110.17 67.50 109.12 70.08 C 107.49 74.64 106.62 79.43 106.39 84.26 C 106.28 81.95 106.34 79.54 105.53 77.34 C 103.96 75.35 101.11 75.51 98.89 74.89 C 103.37 70.26 105.32 64.07 107.32 58.11 Z" />
<path fill="#973f5d" opacity="1.00" d=" M 14.35 59.34 C 16.22 59.76 18.13 60.04 20.05 59.79 C 23.05 59.90 25.20 62.19 27.43 63.91 L 27.87 65.69 C 26.16 65.07 24.46 64.44 22.76 63.78 C 21.58 65.34 20.72 67.09 20.13 68.95 C 17.88 67.42 15.34 66.40 12.69 65.79 C 12.38 65.59 11.74 65.19 11.42 64.99 C 11.00 64.52 10.15 63.58 9.72 63.11 C 11.52 62.19 13.17 61.01 14.35 59.34 Z" />
<path fill="#000000" opacity="0.74" d=" M 0.00 60.06 C 1.82 60.16 1.78 62.78 0.00 62.91 L 0.00 60.06 Z" />
<path fill="#425356" opacity="1.00" d=" M 108.35 62.39 C 108.91 61.09 110.13 60.25 111.00 59.17 L 111.00 86.60 C 109.46 86.15 107.90 85.75 106.35 85.36 C 106.36 85.08 106.38 84.54 106.39 84.26 C 106.62 79.43 107.49 74.64 109.12 70.08 C 110.17 67.50 108.24 64.99 108.35 62.39 Z" />
<path fill="#fffc7b" opacity="1.00" d=" M 61.14 68.09 C 64.31 65.46 67.58 62.96 71.10 60.82 L 73.30 60.55 C 70.31 63.69 66.73 66.20 62.99 68.35 C 62.53 68.28 61.61 68.15 61.14 68.09 Z" />
<path fill="#fffc7b" opacity="1.00" d=" M 72.56 66.18 C 74.08 64.26 75.87 61.71 78.34 61.23 L 79.01 61.21 C 78.21 62.96 77.53 64.76 76.78 66.52 C 73.23 70.99 68.43 74.20 64.77 78.56 C 64.63 78.26 64.35 77.64 64.21 77.33 C 67.17 73.75 71.25 70.88 72.56 66.18 Z" />
<path fill="#6a3d57" opacity="1.00" d=" M 70.85 75.57 C 75.53 71.46 80.06 67.16 84.25 62.55 C 85.36 63.52 86.48 64.49 87.59 65.46 C 86.34 67.37 85.26 69.40 84.47 71.55 C 83.04 74.64 80.06 76.63 77.90 79.20 C 73.73 77.80 69.83 81.08 65.95 82.15 C 67.66 80.01 69.15 77.71 70.85 75.57 Z" />
<path fill="#373051" opacity="1.00" d=" M 98.13 67.02 C 98.95 65.56 99.83 64.14 100.75 62.76 L 101.05 64.09 C 100.27 66.33 99.43 68.54 98.66 70.78 L 100.37 70.08 L 100.75 69.93 C 99.41 73.03 96.00 74.36 94.38 77.26 C 93.32 79.27 91.23 80.27 89.62 81.76 C 86.02 81.31 82.41 80.99 78.79 81.03 C 79.27 80.56 79.74 80.10 80.22 79.63 C 84.01 81.13 88.14 79.77 90.78 76.80 C 93.79 74.00 96.24 70.66 98.13 67.02 Z" />
<path fill="#402f51" opacity="1.00" d=" M 22.76 63.78 C 24.46 64.44 26.16 65.07 27.87 65.69 L 27.43 63.91 C 31.17 66.32 33.09 70.38 34.99 74.23 C 33.95 74.69 32.93 75.20 31.84 75.55 C 27.58 74.09 23.99 71.21 20.13 68.95 C 20.72 67.09 21.58 65.34 22.76 63.78 Z" />
<path fill="#553754" opacity="1.00" d=" M 83.48 76.74 C 88.35 74.52 90.60 69.23 94.84 66.15 C 95.93 66.44 97.03 66.73 98.13 67.02 C 96.24 70.66 93.79 74.00 90.78 76.80 C 88.14 79.77 84.01 81.13 80.22 79.63 C 81.24 78.60 82.19 77.45 83.48 76.74 Z" />
<path fill="#ddbbb2" opacity="1.00" d=" M 63.43 75.64 C 66.37 72.40 69.05 68.85 72.56 66.18 C 71.25 70.88 67.17 73.75 64.21 77.33 C 64.02 76.91 63.63 76.06 63.43 75.64 Z" />
<path fill="#4d455b" opacity="1.00" d=" M 10.11 71.49 C 11.54 69.99 13.01 68.54 14.52 67.12 C 19.28 70.50 24.05 73.89 29.10 76.82 C 27.75 78.18 26.63 79.89 24.90 80.80 C 23.20 80.71 21.98 79.25 20.63 78.36 C 17.42 75.65 13.82 73.46 10.11 71.49 Z" />
<path fill="#000000" opacity="0.19" d=" M 0.00 70.24 C 2.11 69.65 1.79 72.70 0.00 72.72 L 0.00 70.24 Z" />
<path fill="#fffc7b" opacity="1.00" d=" M 47.87 75.55 C 49.37 73.69 50.99 71.95 52.62 70.21 C 52.59 70.70 52.54 71.67 52.52 72.15 C 51.05 73.39 49.44 74.45 47.87 75.55 Z" />
<path fill="#92ba74" opacity="1.00" d=" M 0.00 80.50 C 0.41 76.92 2.37 70.91 6.96 72.21 C 3.33 77.79 1.18 84.10 0.00 90.63 L 0.00 80.50 Z" />
<path fill="#fa5f79" opacity="1.00" d=" M 41.19 74.85 C 43.19 74.04 45.17 73.20 47.17 72.40 C 46.21 74.00 45.15 75.53 44.06 77.05 C 43.10 76.31 42.15 75.58 41.19 74.85 Z" />
<path fill="#486167" opacity="1.00" d=" M 6.29 77.06 C 6.91 75.60 7.91 74.36 8.78 73.06 C 11.35 74.56 13.95 76.05 16.33 77.86 C 15.42 81.62 14.73 85.51 12.83 88.94 C 11.41 91.59 9.87 94.24 9.34 97.24 C 8.90 97.29 8.00 97.40 7.56 97.45 C 7.11 95.95 6.68 94.44 6.09 92.98 C 5.55 91.77 4.86 90.63 4.24 89.46 C 4.98 86.56 5.69 83.65 6.07 80.68 C 6.86 83.14 8.05 85.47 9.89 87.31 C 9.70 83.57 7.66 80.41 6.29 77.06 Z" />
<path fill="#ac5c70" opacity="1.00" d=" M 60.00 82.95 C 63.58 80.43 67.31 78.14 70.85 75.57 C 69.15 77.71 67.66 80.01 65.95 82.15 C 63.21 84.47 59.70 85.83 57.42 88.72 C 56.05 87.90 52.29 85.55 55.59 84.79 C 57.16 84.46 58.70 83.93 60.00 82.95 Z" />
<path fill="#2f3c55" opacity="1.00" d=" M 16.33 77.86 C 17.49 79.76 19.66 81.95 18.36 84.31 C 16.00 89.49 12.46 94.02 9.04 98.53 L 9.34 97.24 C 9.87 94.24 11.41 91.59 12.83 88.94 C 14.73 85.51 15.42 81.62 16.33 77.86 Z" />
<path fill="#292c4d" opacity="1.00" d=" M 92.60 82.83 C 93.96 80.76 95.61 78.85 97.89 77.78 C 98.49 80.57 98.41 83.43 98.16 86.25 C 96.17 85.35 94.32 84.16 92.60 82.83 Z" />
<path fill="#ab5066" opacity="1.00" d=" M 49.76 81.46 C 51.14 80.59 52.51 79.72 53.89 78.85 C 54.48 79.11 55.68 79.64 56.27 79.91 C 54.81 81.50 53.39 83.13 51.99 84.78 C 50.16 84.14 48.33 83.50 46.50 82.86 C 46.85 82.44 47.54 81.60 47.89 81.17 C 48.36 81.24 49.29 81.39 49.76 81.46 Z" />
<path fill="#92ba74" opacity="1.00" d=" M 4.24 89.46 C 2.19 86.04 3.99 82.26 5.54 79.07 L 6.07 80.68 C 5.69 83.65 4.98 86.56 4.24 89.46 Z" />
<path fill="#4d455b" opacity="1.00" d=" M 66.70 84.63 C 70.13 82.77 73.31 80.38 77.08 79.20 C 75.45 82.10 72.81 84.42 69.65 85.52 C 66.05 86.77 63.11 89.24 59.80 91.04 C 60.87 87.87 64.04 86.28 66.70 84.63 Z" />
<path fill="#353950" opacity="1.00" d=" M 77.39 83.55 C 81.96 82.69 86.58 83.74 91.01 84.84 C 88.50 87.08 85.86 89.19 83.18 91.22 C 83.53 91.44 84.22 91.89 84.56 92.11 C 85.04 92.42 85.99 93.05 86.46 93.36 C 82.78 95.13 81.37 99.22 79.05 102.30 C 79.28 102.87 79.76 104.03 80.00 104.60 C 79.44 106.29 79.03 108.02 78.58 109.75 C 79.70 108.76 80.81 107.75 81.84 106.67 C 82.39 108.11 82.94 109.56 83.52 111.00 L 77.06 111.00 C 75.67 106.52 75.33 101.76 73.68 97.36 C 69.90 96.43 65.59 98.05 61.59 97.27 C 61.58 96.53 61.54 95.04 61.53 94.30 C 61.22 94.45 60.60 94.75 60.29 94.90 C 60.38 94.51 60.58 93.73 60.67 93.34 C 63.63 90.94 67.10 89.30 70.25 87.18 C 72.50 85.76 74.68 83.98 77.39 83.55 M 80.40 85.11 C 81.65 86.52 84.78 86.41 86.59 85.80 C 85.40 84.29 82.18 84.46 80.40 85.11 Z" />
<path fill="#2d3950" opacity="1.00" d=" M 17.17 92.02 C 18.20 89.11 20.09 86.61 21.59 83.94 C 21.87 84.25 22.43 84.86 22.71 85.16 C 22.85 86.05 23.13 87.83 23.27 88.72 C 23.98 91.93 25.23 95.04 27.13 97.75 C 25.37 99.29 23.78 101.00 22.31 102.81 C 21.33 102.43 20.36 102.05 19.39 101.68 C 18.56 98.49 17.33 95.34 17.17 92.02 Z" />
<path fill="#040507" opacity="1.00" d=" M 80.40 85.11 C 82.18 84.46 85.40 84.29 86.59 85.80 C 84.78 86.41 81.65 86.52 80.40 85.11 Z" />
<path fill="#5095b0" opacity="1.00" d=" M 91.01 84.84 C 91.50 84.95 92.48 85.19 92.97 85.31 C 90.47 87.93 87.64 90.21 84.56 92.11 C 84.22 91.89 83.53 91.44 83.18 91.22 C 85.86 89.19 88.50 87.08 91.01 84.84 Z" />
<path fill="#66afb3" opacity="1.00" d=" M 22.71 85.16 C 26.07 88.70 28.93 92.88 33.44 95.08 C 33.33 95.73 33.22 96.39 33.11 97.04 C 33.15 96.67 33.24 95.94 33.28 95.57 C 28.51 96.75 26.04 91.61 23.27 88.72 C 23.13 87.83 22.85 86.05 22.71 85.16 Z" />
<path fill="#fa5f79" opacity="1.00" d=" M 51.01 90.07 C 47.65 90.41 49.73 87.66 50.84 86.27 C 51.74 87.32 52.64 88.37 53.55 89.42 C 52.91 89.58 51.64 89.90 51.01 90.07 Z" />
<path fill="#759685" opacity="1.00" d=" M 23.27 88.72 C 26.04 91.61 28.51 96.75 33.28 95.57 C 33.24 95.94 33.15 96.67 33.11 97.04 C 33.01 97.89 32.81 99.60 32.71 100.45 L 32.42 100.01 C 32.12 99.74 31.52 99.20 31.22 98.93 C 30.90 99.43 30.25 100.45 29.92 100.96 C 28.96 99.91 28.02 98.85 27.13 97.75 C 25.23 95.04 23.98 91.93 23.27 88.72 Z" />
<path fill="#4f4c55" opacity="1.00" d=" M 53.55 89.42 C 54.90 90.09 56.23 90.78 57.57 91.48 C 57.54 92.84 57.52 94.20 57.51 95.56 C 57.11 96.15 56.31 97.33 55.91 97.92 C 55.33 97.08 54.76 96.25 54.19 95.41 C 55.01 94.66 55.83 93.90 56.65 93.15 C 54.84 92.00 52.94 91.00 51.01 90.07 C 51.64 89.90 52.91 89.58 53.55 89.42 Z" />
<path fill="#8eb36e" opacity="1.00" d=" M 1.95 90.69 C 2.64 91.78 3.33 92.88 4.02 93.98 C 2.89 98.38 2.22 102.88 2.14 107.43 C 1.45 108.41 0.74 109.39 0.00 110.35 L 0.00 98.10 C 1.17 95.79 1.60 93.23 1.95 90.69 Z" />
<path fill="#375068" opacity="1.00" d=" M 6.09 92.98 C 6.68 94.44 7.11 95.95 7.56 97.45 C 8.00 97.40 8.90 97.29 9.34 97.24 L 9.04 98.53 C 7.08 101.75 4.60 104.59 2.14 107.43 C 2.22 102.88 2.89 98.38 4.02 93.98 C 4.53 94.23 5.55 94.73 6.06 94.98 C 6.07 94.48 6.08 93.48 6.09 92.98 Z" />
<path fill="#627e61" opacity="1.00" d=" M 60.29 94.90 C 60.60 94.75 61.22 94.45 61.53 94.30 C 61.54 95.04 61.58 96.53 61.59 97.27 C 65.59 98.05 69.90 96.43 73.68 97.36 C 75.33 101.76 75.67 106.52 77.06 111.00 L 61.96 111.00 C 63.65 107.76 66.60 103.62 63.35 100.36 C 61.66 100.81 59.98 101.27 58.29 101.72 C 59.03 99.47 59.78 97.22 60.29 94.90 Z" />
<path fill="#52a1ba" opacity="1.00" d=" M 79.05 102.30 C 81.37 99.22 82.78 95.13 86.46 93.36 C 84.83 97.40 82.10 100.82 80.00 104.60 C 79.76 104.03 79.28 102.87 79.05 102.30 Z" />
<path fill="#3d4f55" opacity="1.00" d=" M 27.13 97.75 C 28.02 98.85 28.96 99.91 29.92 100.96 C 30.23 101.23 30.85 101.76 31.16 102.02 C 31.48 101.52 32.11 100.52 32.42 100.01 L 32.71 100.45 C 32.86 100.89 33.15 101.77 33.29 102.20 C 33.13 102.63 32.80 103.48 32.63 103.91 C 34.04 105.89 35.34 107.96 36.23 110.23 L 36.56 111.00 L 22.10 111.00 C 21.07 107.93 20.28 104.79 19.39 101.68 C 20.36 102.05 21.33 102.43 22.31 102.81 C 23.78 101.00 25.37 99.29 27.13 97.75 Z" />
<path fill="#95bf94" opacity="1.00" d=" M 29.92 100.96 C 30.25 100.45 30.90 99.43 31.22 98.93 C 31.52 99.20 32.12 99.74 32.42 100.01 C 32.11 100.52 31.48 101.52 31.16 102.02 C 30.85 101.76 30.23 101.23 29.92 100.96 Z" />
<path fill="#475858" opacity="1.00" d=" M 48.57 106.29 C 52.26 104.70 50.87 98.01 55.67 98.11 C 55.72 102.21 55.17 106.41 53.13 110.04 C 53.97 107.55 50.48 108.25 51.60 110.35 C 49.64 110.00 47.69 109.59 45.74 109.19 C 46.31 109.01 47.46 108.65 48.03 108.47 C 46.30 108.12 44.56 107.78 42.80 107.55 C 44.74 107.24 46.70 106.93 48.57 106.29 Z" />
<path fill="#92ba74" opacity="1.00" d=" M 92.29 101.80 C 94.03 100.88 95.91 100.27 97.86 100.01 C 96.78 101.53 95.67 103.03 94.60 104.55 C 94.02 103.86 92.87 102.49 92.29 101.80 Z" />
<path fill="#688667" opacity="1.00" d=" M 33.29 102.20 C 33.83 101.95 34.92 101.45 35.46 101.20 C 36.11 103.32 36.69 105.48 37.66 107.48 C 39.36 107.80 41.09 107.60 42.80 107.55 C 44.56 107.78 46.30 108.12 48.03 108.47 C 47.46 108.65 46.31 109.01 45.74 109.19 C 44.20 109.20 42.63 109.33 41.99 111.00 L 39.20 111.00 C 38.42 109.56 37.42 109.31 36.23 110.23 C 35.34 107.96 34.04 105.89 32.63 103.91 C 32.80 103.48 33.13 102.63 33.29 102.20 Z" />
<path fill="#73a98f" opacity="1.00" d=" M 58.29 101.72 C 59.98 101.27 61.66 100.81 63.35 100.36 C 66.60 103.62 63.65 107.76 61.96 111.00 L 58.88 111.00 C 59.78 108.35 60.30 105.60 60.72 102.84 C 59.95 103.50 58.41 104.82 57.63 105.48 C 57.82 104.22 58.03 102.97 58.29 101.72 M 60.91 106.19 C 60.29 107.83 60.81 108.36 62.46 107.79 C 63.08 106.14 62.56 105.61 60.91 106.19 Z" />
<path fill="#5b745e" opacity="1.00" d=" M 86.09 106.60 C 88.02 104.83 90.14 103.28 92.29 101.80 C 92.87 102.49 94.02 103.86 94.60 104.55 C 92.18 106.21 89.03 108.31 86.09 106.60 Z" />
<path fill="#a2e9e3" opacity="1.00" d=" M 57.63 105.48 C 58.41 104.82 59.95 103.50 60.72 102.84 C 60.30 105.60 59.78 108.35 58.88 111.00 L 56.05 111.00 C 56.71 109.20 57.24 107.36 57.63 105.48 Z" />
<path fill="#4892a3" opacity="1.00" d=" M 81.84 106.67 C 82.32 106.14 82.78 105.60 83.24 105.06 C 84.10 107.06 84.96 109.07 85.97 111.00 L 83.52 111.00 C 82.94 109.56 82.39 108.11 81.84 106.67 Z" />
<path fill="#affaf5" opacity="1.00" d=" M 60.91 106.19 C 62.56 105.61 63.08 106.14 62.46 107.79 C 60.81 108.36 60.29 107.83 60.91 106.19 Z" />
<path fill="#688668" opacity="1.00" d=" M 51.60 110.35 C 50.48 108.25 53.97 107.55 53.13 110.04 C 52.75 110.12 51.98 110.27 51.60 110.35 Z" />
<path fill="#2a372c" opacity="1.00" d=" M 36.23 110.23 C 37.42 109.31 38.42 109.56 39.20 111.00 L 36.56 111.00 L 36.23 110.23 Z" />
</svg>
