<?xml version="1.0" encoding="UTF-8" ?>
<!DOCTYPE svg PUBLIC "-//W3C//DTD SVG 1.1//EN" "http://www.w3.org/Graphics/SVG/1.1/DTD/svg11.dtd">
<svg width="111pt" height="111pt" viewBox="0 0 111 111" version="1.1" xmlns="http://www.w3.org/2000/svg">
<path fill="#000000" opacity="1.00" d=" M 36.94 0.00 L 40.22 0.00 C 39.52 0.71 38.84 1.44 38.18 2.20 C 35.88 4.88 34.25 8.05 32.12 10.86 C 30.40 13.12 29.50 15.83 28.54 18.47 C 27.86 17.04 27.59 15.62 28.45 14.17 C 30.39 9.01 32.99 3.93 36.94 0.00 Z" />
<path fill="#3f6373" opacity="1.00" d=" M 40.22 0.00 L 46.31 0.00 C 45.51 6.42 46.16 13.39 42.60 19.12 C 40.82 18.59 38.91 18.28 37.35 17.22 C 37.01 12.19 38.79 7.25 38.18 2.20 C 38.84 1.44 39.52 0.71 40.22 0.00 Z" />
<path fill="#000000" opacity="1.00" d=" M 46.31 0.00 L 47.88 0.00 C 47.81 3.62 47.60 7.24 47.32 10.85 C 50.26 7.07 53.28 3.32 56.75 0.00 L 59.65 0.00 C 58.52 1.12 57.44 2.30 56.36 3.49 C 53.22 6.78 50.27 10.28 47.73 14.07 C 46.23 16.15 44.83 18.32 43.78 20.67 C 41.73 24.93 40.44 29.57 40.23 34.30 C 40.07 35.80 39.94 37.31 39.73 38.82 C 39.36 39.93 38.94 41.02 38.53 42.12 C 38.44 41.31 38.28 39.70 38.20 38.89 C 38.09 35.83 38.34 32.76 38.88 29.74 C 39.84 26.11 40.95 22.50 42.60 19.12 C 46.16 13.39 45.51 6.42 46.31 0.00 Z" />
<path fill="#6d8e6a" opacity="1.00" d=" M 59.65 0.00 L 73.21 0.00 C 69.27 6.58 65.50 13.30 60.94 19.49 C 60.53 19.05 59.70 18.19 59.29 17.76 C 60.17 15.65 61.03 13.52 61.80 11.37 C 59.56 10.56 57.34 9.65 55.33 8.34 C 56.58 6.99 56.39 5.17 56.36 3.49 C 57.44 2.30 58.52 1.12 59.65 0.00 Z" />
<path fill="#589c9b" opacity="1.00" d=" M 73.21 0.00 L 78.67 0.00 C 75.11 5.56 71.83 11.42 67.07 16.08 C 64.30 18.76 61.90 21.77 59.36 24.66 C 59.62 22.87 59.97 21.05 60.94 19.49 C 65.50 13.30 69.27 6.58 73.21 0.00 Z" />
<path fill="#000000" opacity="1.00" d=" M 78.67 0.00 L 81.26 0.00 C 79.74 2.24 78.37 4.58 76.91 6.85 C 77.73 6.67 79.37 6.31 80.19 6.12 C 77.07 11.14 71.11 13.57 68.12 18.76 C 63.68 23.74 58.75 28.34 53.51 32.47 C 54.91 29.48 57.34 27.20 59.36 24.66 C 61.90 21.77 64.30 18.76 67.07 16.08 C 71.83 11.42 75.11 5.56 78.67 0.00 Z" />
<path fill="#000000" opacity="1.00" d=" M 81.06 14.85 C 90.09 8.28 100.28 3.44 111.00 0.37 L 111.00 2.99 C 108.75 3.59 106.50 4.21 104.30 5.00 C 101.42 5.99 98.59 7.12 95.90 8.53 C 89.74 11.60 83.87 15.27 78.51 19.60 C 73.77 23.32 68.96 27.21 65.69 32.35 C 65.56 31.83 65.31 30.80 65.19 30.28 C 67.92 26.06 71.47 22.45 75.42 19.35 C 79.08 16.70 79.50 11.78 81.30 7.94 C 82.18 6.58 80.87 4.52 78.99 5.37 C 80.49 4.85 81.98 4.34 83.48 3.81 C 83.33 7.61 82.07 11.22 81.06 14.85 Z" />
<path fill="#557369" opacity="1.00" d=" M 32.12 10.86 C 34.25 8.05 35.88 4.88 38.18 2.20 C 38.79 7.25 37.01 12.19 37.35 17.22 C 38.91 18.28 40.82 18.59 42.60 19.12 C 40.95 22.50 39.84 26.11 38.88 29.74 C 37.80 29.98 36.71 30.23 35.63 30.46 C 35.22 28.28 34.85 26.08 34.71 23.85 C 35.37 20.14 35.93 16.41 36.12 12.65 C 34.86 14.23 33.70 15.89 32.53 17.53 C 32.27 15.32 32.14 13.09 32.12 10.86 Z" />
<path fill="#c8fda1" opacity="1.00" d=" M 104.30 5.00 C 106.50 4.21 108.75 3.59 111.00 2.99 L 111.00 4.06 C 108.90 4.75 106.03 7.99 104.30 5.00 Z" />
<path fill="#d4ffab" opacity="1.00" d=" M 47.73 14.07 C 50.27 10.28 53.22 6.78 56.36 3.49 C 56.39 5.17 56.58 6.99 55.33 8.34 C 53.18 11.27 51.21 14.34 49.69 17.65 C 50.44 18.84 51.20 20.01 51.97 21.18 C 50.26 22.88 48.03 23.77 46.03 25.02 C 43.95 29.23 42.88 33.86 42.09 38.47 C 41.72 32.10 43.71 25.92 46.17 20.14 C 47.04 18.22 47.42 16.14 47.73 14.07 Z" />
<path fill="#88ad6c" opacity="1.00" d=" M 95.90 8.53 C 98.59 7.12 101.42 5.99 104.30 5.00 C 106.03 7.99 108.90 4.75 111.00 4.06 L 111.00 11.36 C 106.94 13.71 102.70 15.94 99.36 19.29 C 98.82 21.67 101.92 22.63 103.21 24.15 C 97.89 27.39 92.53 30.56 87.03 33.48 C 85.68 31.19 84.08 29.02 81.86 27.50 C 82.11 30.21 82.44 32.91 82.85 35.60 C 77.13 37.09 71.41 39.41 67.27 43.78 C 66.68 43.43 65.51 42.72 64.92 42.37 C 61.59 45.06 56.71 45.73 54.34 49.51 C 51.86 49.85 49.87 48.72 48.29 46.89 C 49.12 44.55 49.67 42.12 49.79 39.63 C 48.73 41.79 47.92 44.07 47.23 46.37 C 45.19 46.93 43.15 47.46 41.10 47.95 C 40.91 47.38 40.54 46.24 40.35 45.66 C 40.37 46.38 40.42 47.83 40.44 48.55 C 37.68 50.59 36.88 53.94 35.88 57.02 C 36.85 58.17 37.80 59.34 38.50 60.68 C 34.93 62.33 31.41 64.09 27.97 65.99 C 26.92 64.55 25.88 63.10 24.84 61.67 C 28.24 61.40 31.70 60.51 34.15 57.98 C 31.89 56.12 29.23 54.90 26.42 54.12 C 26.97 51.50 27.63 48.90 28.27 46.29 C 27.85 46.52 27.00 46.96 26.58 47.18 C 25.24 44.28 23.55 41.56 22.09 38.73 C 22.88 37.18 23.69 35.64 24.62 34.16 L 25.53 33.62 C 26.15 37.96 25.23 44.28 29.90 46.55 C 29.68 45.75 29.45 44.95 29.22 44.15 C 31.82 40.90 29.02 36.72 29.77 33.01 C 30.59 28.63 31.09 24.18 30.29 19.76 C 31.13 19.12 31.88 18.36 32.53 17.53 C 33.70 15.89 34.86 14.23 36.12 12.65 C 35.93 16.41 35.37 20.14 34.71 23.85 C 34.10 27.54 33.37 31.30 33.88 35.05 C 34.00 37.34 36.64 37.80 38.20 38.89 C 38.28 39.70 38.44 41.31 38.53 42.12 C 38.94 41.02 39.36 39.93 39.73 38.82 C 40.32 38.73 41.50 38.55 42.09 38.47 C 42.88 33.86 43.95 29.23 46.03 25.02 C 48.03 23.77 50.26 22.88 51.97 21.18 C 51.20 20.01 50.44 18.84 49.69 17.65 C 51.21 14.34 53.18 11.27 55.33 8.34 C 57.34 9.65 59.56 10.56 61.80 11.37 C 61.03 13.52 60.17 15.65 59.29 17.76 C 59.70 18.19 60.53 19.05 60.94 19.49 C 59.97 21.05 59.62 22.87 59.36 24.66 C 57.34 27.20 54.91 29.48 53.51 32.47 C 52.77 33.83 52.10 35.23 51.43 36.63 C 53.10 36.72 54.40 35.62 55.57 34.61 C 59.46 31.17 63.22 27.56 66.45 23.49 C 67.61 22.18 67.63 20.35 68.12 18.76 C 71.11 13.57 77.07 11.14 80.19 6.12 C 80.55 6.73 80.92 7.34 81.30 7.94 C 79.50 11.78 79.08 16.70 75.42 19.35 C 71.47 22.45 67.92 26.06 65.19 30.28 C 65.31 30.80 65.56 31.83 65.69 32.35 C 64.64 33.98 63.50 35.54 62.31 37.06 C 65.62 35.40 68.41 32.97 70.79 30.16 C 75.45 27.10 79.34 23.06 83.87 19.83 C 88.29 16.15 93.40 13.29 97.32 9.03 L 95.90 8.53 Z" />
<path fill="#c8fda1" opacity="1.00" d=" M 78.51 19.60 C 83.87 15.27 89.74 11.60 95.90 8.53 L 97.32 9.03 C 93.40 13.29 88.29 16.15 83.87 19.83 C 79.34 23.06 75.45 27.10 70.79 30.16 C 73.60 25.99 78.18 23.63 81.52 19.97 C 80.77 19.88 79.27 19.70 78.51 19.60 Z" />
<path fill="#549a9d" opacity="1.00" d=" M 28.54 18.47 C 29.50 15.83 30.40 13.12 32.12 10.86 C 32.14 13.09 32.27 15.32 32.53 17.53 C 31.88 18.36 31.13 19.12 30.29 19.76 L 29.21 20.57 C 27.30 26.61 28.01 33.03 27.89 39.26 C 26.09 32.80 27.52 26.16 28.38 19.69 C 28.42 19.38 28.50 18.77 28.54 18.47 Z" />
<path fill="#76986b" opacity="1.00" d=" M 99.36 19.29 C 102.70 15.94 106.94 13.71 111.00 11.36 L 111.00 18.98 C 108.58 20.96 105.90 22.57 103.21 24.15 C 101.92 22.63 98.82 21.67 99.36 19.29 Z" />
<path fill="#ccefe3" opacity="1.00" d=" M 43.78 20.67 C 44.83 18.32 46.23 16.15 47.73 14.07 C 47.42 16.14 47.04 18.22 46.17 20.14 C 43.71 25.92 41.72 32.10 42.09 38.47 C 41.50 38.55 40.32 38.73 39.73 38.82 C 39.94 37.31 40.07 35.80 40.23 34.30 C 41.34 29.74 42.68 25.24 43.78 20.67 Z" />
<path fill="#000000" opacity="1.00" d=" M 16.18 34.05 C 16.58 27.68 18.52 20.93 22.97 16.17 C 24.24 18.45 24.95 21.03 26.54 23.12 C 26.63 22.00 26.82 19.76 26.91 18.65 C 27.28 18.91 28.01 19.43 28.38 19.69 C 27.52 26.16 26.09 32.80 27.89 39.26 C 28.21 40.92 28.72 42.54 29.22 44.15 C 29.45 44.95 29.68 45.75 29.90 46.55 C 25.23 44.28 26.15 37.96 25.53 33.62 C 26.30 28.58 24.82 23.73 22.84 19.15 C 21.51 21.08 20.84 23.33 20.15 25.54 C 19.20 28.93 17.45 32.57 18.71 36.10 C 20.46 40.49 23.03 44.48 25.10 48.71 C 25.47 48.33 26.21 47.56 26.58 47.18 C 27.00 46.96 27.85 46.52 28.27 46.29 C 27.63 48.90 26.97 51.50 26.42 54.12 C 29.23 54.90 31.89 56.12 34.15 57.98 C 31.70 60.51 28.24 61.40 24.84 61.67 C 25.88 63.10 26.92 64.55 27.97 65.99 C 29.01 67.41 30.10 68.79 31.20 70.17 C 33.18 69.16 35.10 68.03 36.94 66.80 C 36.83 65.97 36.72 65.13 36.62 64.30 C 37.36 63.57 38.09 62.83 38.81 62.08 L 38.50 60.68 C 37.80 59.34 36.85 58.17 35.88 57.02 C 36.88 53.94 37.68 50.59 40.44 48.55 C 40.42 47.83 40.37 46.38 40.35 45.66 C 40.54 46.24 40.91 47.38 41.10 47.95 C 43.15 47.46 45.19 46.93 47.23 46.37 C 47.92 44.07 48.73 41.79 49.79 39.63 C 49.67 42.12 49.12 44.55 48.29 46.89 C 49.87 48.72 51.86 49.85 54.34 49.51 C 54.93 49.60 56.10 49.78 56.69 49.87 C 58.76 49.60 60.83 49.89 62.87 50.26 C 63.62 51.70 64.38 53.14 65.15 54.57 C 65.96 54.58 67.58 54.61 68.39 54.62 C 68.31 55.51 68.14 57.29 68.06 58.19 C 67.96 58.55 67.77 59.29 67.67 59.66 C 72.45 63.01 76.02 67.81 81.13 70.69 C 82.86 69.86 84.52 68.86 85.53 67.17 C 84.22 65.50 83.06 63.72 82.09 61.83 C 82.61 60.92 84.59 59.89 83.34 58.70 C 80.71 54.56 76.27 51.93 73.94 47.58 C 74.27 47.45 74.93 47.20 75.26 47.07 C 78.84 48.43 82.18 50.31 85.68 51.86 C 84.88 47.17 83.96 42.51 83.19 37.81 C 83.11 37.26 82.93 36.15 82.85 35.60 C 82.44 32.91 82.11 30.21 81.86 27.50 C 84.08 29.02 85.68 31.19 87.03 33.48 C 88.08 35.25 89.01 37.09 89.96 38.91 C 90.42 38.74 91.32 38.40 91.78 38.22 C 92.46 38.80 93.15 39.38 93.84 39.96 C 99.85 36.80 105.84 33.46 111.00 28.99 L 111.00 31.85 C 109.61 33.27 106.83 34.11 106.32 35.94 C 107.73 36.44 109.47 36.46 111.00 36.77 L 111.00 39.02 C 108.35 38.35 105.66 37.91 102.97 37.45 C 100.34 38.96 97.61 40.30 94.81 41.45 C 96.10 43.63 97.63 45.66 99.20 47.66 C 100.21 49.20 101.66 50.70 101.62 52.68 C 100.96 54.10 100.28 55.50 99.63 56.93 C 100.12 59.00 100.49 61.11 100.81 63.22 C 99.77 64.10 98.77 65.03 97.77 65.95 C 102.17 65.39 106.70 65.76 111.00 64.51 L 111.00 67.07 C 105.88 67.86 100.59 67.42 95.54 68.67 C 92.94 75.00 89.86 81.13 86.07 86.84 C 82.25 85.18 78.38 83.67 74.49 82.21 C 73.54 81.75 72.05 81.24 72.26 79.89 C 72.57 77.10 73.57 74.44 74.29 71.74 C 72.16 70.54 70.03 69.34 67.88 68.17 C 66.44 69.12 64.82 69.68 63.15 70.08 C 63.25 71.47 63.35 72.86 63.46 74.26 C 61.06 76.74 58.45 79.10 56.58 82.04 C 55.72 85.40 59.71 87.31 61.25 89.89 C 59.89 90.89 58.52 91.88 57.15 92.86 C 58.91 97.20 61.46 101.49 65.87 103.56 C 68.55 101.31 70.95 98.61 74.12 97.03 C 77.47 97.16 74.42 101.33 74.10 103.15 C 75.64 105.91 77.38 108.56 79.38 111.00 L 76.27 111.00 C 74.84 108.63 73.51 106.21 72.05 103.86 C 72.28 102.51 72.51 101.17 72.74 99.83 C 72.09 100.42 71.46 101.01 70.83 101.62 C 69.22 103.03 67.81 104.72 65.92 105.77 C 62.55 105.52 60.23 102.42 58.16 100.04 C 56.71 97.60 55.05 95.01 55.13 92.06 C 55.87 90.96 56.97 90.19 57.94 89.31 C 56.33 87.49 54.54 85.84 52.55 84.45 C 53.54 82.63 54.56 80.83 55.71 79.11 C 57.48 77.33 59.55 75.83 61.04 73.78 C 61.47 72.07 61.31 70.29 61.35 68.55 C 62.62 68.24 63.89 67.92 65.16 67.60 C 64.68 65.48 61.67 64.30 60.21 66.17 C 57.69 69.04 53.84 69.68 50.34 70.65 C 50.33 71.19 50.33 71.73 50.32 72.27 C 49.85 72.82 49.41 73.39 49.00 73.98 C 48.68 75.02 48.40 76.06 48.14 77.12 C 47.06 80.23 45.98 83.42 44.09 86.15 C 42.31 88.58 39.47 89.85 36.87 91.18 C 36.32 91.45 35.76 91.69 35.21 91.95 C 34.71 92.17 33.72 92.62 33.23 92.84 C 33.36 93.46 33.62 94.69 33.75 95.31 C 31.96 96.23 30.07 96.90 28.20 97.64 C 28.59 98.51 29.36 100.25 29.74 101.11 C 27.51 103.54 25.09 107.37 26.43 110.62 L 26.62 111.00 L 22.82 111.00 C 23.98 107.32 25.52 103.79 26.84 100.17 C 26.53 99.07 26.22 97.97 25.92 96.86 C 27.48 95.92 29.14 95.16 30.86 94.56 C 30.84 93.87 30.80 92.50 30.78 91.81 C 34.40 90.20 38.40 89.11 41.46 86.51 C 44.21 83.30 45.58 79.14 46.65 75.12 C 42.93 78.70 39.00 82.46 37.32 87.49 C 31.53 87.75 25.55 87.75 19.81 86.75 C 19.39 85.46 18.85 84.23 18.17 83.06 C 17.61 83.57 16.50 84.59 15.95 85.10 C 15.52 84.64 14.66 83.73 14.23 83.28 C 12.57 84.67 10.77 85.87 8.85 86.86 C 6.54 84.10 6.09 80.51 5.88 77.05 C 4.36 75.70 2.02 74.40 2.40 72.01 C 3.36 64.59 4.70 57.18 6.81 49.99 C 7.50 48.10 7.76 45.71 9.72 44.65 C 10.87 50.37 9.74 56.19 9.86 61.96 C 10.48 61.51 11.73 60.60 12.35 60.14 C 13.24 63.66 11.61 68.33 14.25 71.00 C 14.94 64.65 15.50 58.26 16.63 51.97 C 16.67 50.79 17.25 50.11 18.38 49.93 C 18.76 55.28 18.66 60.65 19.15 66.00 C 19.19 67.51 20.10 68.75 20.79 70.03 C 20.75 72.25 20.65 74.47 20.58 76.69 C 21.21 76.27 22.45 75.41 23.07 74.99 C 26.52 75.49 29.81 76.66 32.98 78.05 C 36.13 77.21 39.01 75.64 40.91 72.91 C 39.60 71.63 38.64 70.07 37.92 68.38 C 35.83 69.46 33.79 71.84 31.35 71.59 C 27.70 68.71 24.29 65.13 22.34 60.87 L 22.72 59.88 C 25.53 59.20 28.48 59.14 31.23 58.14 C 29.18 56.96 26.78 56.50 24.80 55.20 C 24.55 53.90 24.72 52.51 24.25 51.26 C 20.92 45.92 16.83 40.48 16.18 34.05 M 84.20 31.97 C 84.45 38.92 87.02 45.55 87.57 52.45 C 87.79 54.64 88.23 56.80 88.64 58.96 C 87.01 57.31 86.13 55.14 84.78 53.30 C 82.67 51.65 80.18 50.53 77.61 49.78 C 80.53 52.15 83.22 54.76 85.11 58.05 C 84.78 59.39 84.39 60.73 84.25 62.11 C 84.71 63.73 85.99 64.96 86.92 66.33 C 87.82 69.82 84.08 71.02 81.82 72.58 C 81.23 72.52 80.06 72.38 79.47 72.32 C 75.91 69.45 73.16 65.77 69.64 62.84 L 68.84 62.74 C 69.06 61.54 67.59 60.17 66.45 59.94 L 66.72 59.44 C 66.44 58.96 65.88 57.99 65.60 57.51 C 63.27 56.56 62.40 54.15 61.58 51.98 C 59.61 51.64 57.64 52.06 56.35 53.65 C 56.10 53.13 55.59 52.09 55.33 51.57 C 52.58 51.06 49.49 50.93 47.72 48.40 C 47.67 50.17 46.72 51.65 45.83 53.10 C 43.50 53.37 42.20 55.40 40.77 57.00 C 40.45 58.48 40.30 59.97 40.33 61.48 C 42.24 60.84 44.00 59.85 45.60 58.62 C 46.23 58.67 47.49 58.78 48.12 58.83 L 48.02 59.22 C 48.67 58.97 49.98 58.46 50.63 58.20 C 49.62 60.11 47.64 59.92 45.88 59.51 C 43.31 61.00 40.75 62.49 38.25 64.07 C 39.76 65.10 39.57 66.70 39.14 68.26 C 40.85 71.12 44.41 68.24 47.01 68.79 C 50.72 69.79 54.12 67.82 57.44 66.46 C 58.84 64.05 61.37 61.82 64.36 62.86 C 68.33 65.79 72.37 68.63 76.31 71.64 C 75.30 74.32 74.79 77.15 74.43 79.99 C 78.44 80.78 82.08 82.68 85.85 84.18 C 86.98 81.64 88.23 79.16 89.43 76.66 L 89.79 76.59 C 91.28 72.82 94.21 69.62 94.47 65.42 C 95.72 64.17 97.88 63.76 98.54 62.03 C 98.35 59.72 97.93 57.44 97.82 55.13 C 98.44 54.08 99.04 53.02 99.64 51.96 C 97.44 48.90 95.28 45.82 93.15 42.71 C 92.89 47.07 96.74 50.19 96.71 54.47 C 93.16 51.85 92.82 46.89 89.79 43.86 C 88.58 39.65 86.12 35.88 84.20 31.97 M 43.12 52.07 C 44.42 52.24 46.84 50.92 46.50 49.40 C 45.03 48.83 42.76 50.46 43.12 52.07 M 38.43 56.25 C 39.84 54.70 41.69 53.74 43.59 52.93 C 43.00 52.61 41.83 51.96 41.25 51.64 C 41.93 50.74 43.31 48.95 43.99 48.05 C 40.43 49.31 38.13 52.45 38.43 56.25 M 8.32 51.03 C 6.59 56.15 6.51 61.62 5.29 66.87 C 5.01 69.56 3.16 73.41 6.40 74.99 C 6.60 73.45 6.60 71.92 6.41 70.38 C 7.00 70.11 8.18 69.57 8.77 69.30 C 7.84 74.18 6.85 79.42 9.20 84.08 C 11.64 83.55 13.24 81.45 15.12 79.98 C 15.38 80.54 15.90 81.65 16.17 82.20 C 17.08 81.75 17.99 81.29 18.90 80.84 C 19.90 82.33 20.89 83.82 21.88 85.31 C 26.57 85.39 31.26 85.58 35.95 85.83 C 37.55 83.18 39.42 80.68 40.84 77.92 C 41.94 76.96 42.92 75.89 43.93 74.83 C 44.96 74.47 46.00 74.11 47.03 73.75 C 46.23 72.00 44.35 71.29 42.80 70.38 C 42.90 70.86 43.09 71.83 43.19 72.32 C 41.47 74.28 39.75 76.26 38.30 78.44 C 36.18 78.97 34.04 79.48 31.83 79.34 C 28.90 78.02 25.75 76.90 22.53 76.68 C 21.94 77.76 20.66 78.38 19.68 77.30 C 17.68 75.46 19.19 72.50 18.55 70.18 C 16.61 66.27 18.62 61.83 17.40 57.74 C 16.34 62.23 15.96 66.87 16.07 71.49 C 15.36 71.41 13.93 71.26 13.22 71.18 C 13.50 71.62 14.06 72.48 14.34 72.91 C 14.29 74.53 14.23 76.16 14.18 77.78 C 13.64 77.41 12.58 76.66 12.05 76.29 C 11.48 72.20 11.78 68.07 11.34 63.97 C 9.47 65.66 8.84 68.40 6.56 69.70 C 9.10 63.83 9.49 57.28 8.32 51.03 M 46.41 70.15 C 46.65 73.45 49.43 68.67 46.41 70.15 Z" />
<path fill="#b6dbcc" opacity="1.00" d=" M 53.51 32.47 C 58.75 28.34 63.68 23.74 68.12 18.76 C 67.63 20.35 67.61 22.18 66.45 23.49 C 63.22 27.56 59.46 31.17 55.57 34.61 C 54.40 35.62 53.10 36.72 51.43 36.63 C 52.10 35.23 52.77 33.83 53.51 32.47 Z" />
<path fill="#4b6668" opacity="1.00" d=" M 103.21 24.15 C 105.90 22.57 108.58 20.96 111.00 18.98 L 111.00 28.99 C 105.84 33.46 99.85 36.80 93.84 39.96 C 93.15 39.38 92.46 38.80 91.78 38.22 C 91.32 38.40 90.42 38.74 89.96 38.91 C 89.01 37.09 88.08 35.25 87.03 33.48 C 92.53 30.56 97.89 27.39 103.21 24.15 Z" />
<path fill="#639383" opacity="1.00" d=" M 20.15 25.54 C 20.84 23.33 21.51 21.08 22.84 19.15 C 24.82 23.73 26.30 28.58 25.53 33.62 L 24.62 34.16 C 24.26 30.74 23.47 27.24 20.15 25.54 Z" />
<path fill="#d6efce" opacity="1.00" d=" M 65.69 32.35 C 68.96 27.21 73.77 23.32 78.51 19.60 C 79.27 19.70 80.77 19.88 81.52 19.97 C 78.18 23.63 73.60 25.99 70.79 30.16 C 68.41 32.97 65.62 35.40 62.31 37.06 C 63.50 35.54 64.64 33.98 65.69 32.35 Z" />
<path fill="#ccf0ca" opacity="1.00" d=" M 29.21 20.57 L 30.29 19.76 C 31.09 24.18 30.59 28.63 29.77 33.01 C 29.02 36.72 31.82 40.90 29.22 44.15 C 28.72 42.54 28.21 40.92 27.89 39.26 C 28.01 33.03 27.30 26.61 29.21 20.57 Z" />
<path fill="#37747c" opacity="1.00" d=" M 40.23 34.30 C 40.44 29.57 41.73 24.93 43.78 20.67 C 42.68 25.24 41.34 29.74 40.23 34.30 Z" />
<path fill="#6f916a" opacity="1.00" d=" M 33.88 35.05 C 33.37 31.30 34.10 27.54 34.71 23.85 C 34.85 26.08 35.22 28.28 35.63 30.46 C 36.71 30.23 37.80 29.98 38.88 29.74 C 38.34 32.76 38.09 35.83 38.20 38.89 C 36.64 37.80 34.00 37.34 33.88 35.05 Z" />
<path fill="#64846a" opacity="1.00" d=" M 20.15 25.54 C 23.47 27.24 24.26 30.74 24.62 34.16 C 23.69 35.64 22.88 37.18 22.09 38.73 C 21.15 36.72 20.11 34.75 18.64 33.07 C 18.66 33.83 18.70 35.34 18.71 36.10 C 17.45 32.57 19.20 28.93 20.15 25.54 Z" />
<path fill="#b1c39e" opacity="1.00" d=" M 84.20 31.97 C 86.12 35.88 88.58 39.65 89.79 43.86 C 90.08 46.33 90.39 48.80 90.79 51.26 C 89.98 51.55 88.37 52.15 87.57 52.45 C 87.02 45.55 84.45 38.92 84.20 31.97 Z" />
<path fill="#b0f0e1" opacity="1.00" d=" M 18.64 33.07 C 20.11 34.75 21.15 36.72 22.09 38.73 C 23.55 41.56 25.24 44.28 26.58 47.18 C 26.21 47.56 25.47 48.33 25.10 48.71 C 23.03 44.48 20.46 40.49 18.71 36.10 C 18.70 35.34 18.66 33.83 18.64 33.07 Z" />
<path fill="#3c4a53" opacity="1.00" d=" M 67.27 43.78 C 71.41 39.41 77.13 37.09 82.85 35.60 C 82.93 36.15 83.11 37.26 83.19 37.81 C 79.79 40.10 75.36 42.40 75.26 47.07 C 74.93 47.20 74.27 47.45 73.94 47.58 C 76.27 51.93 80.71 54.56 83.34 58.70 C 84.59 59.89 82.61 60.92 82.09 61.83 C 81.12 62.00 80.06 62.63 79.11 62.08 C 75.47 60.43 72.33 57.91 69.22 55.45 C 68.82 56.36 68.44 57.27 68.06 58.19 C 68.14 57.29 68.31 55.51 68.39 54.62 C 67.58 54.61 65.96 54.58 65.15 54.57 C 64.38 53.14 63.62 51.70 62.87 50.26 C 60.83 49.89 58.76 49.60 56.69 49.87 C 56.10 49.78 54.93 49.60 54.34 49.51 C 56.71 45.73 61.59 45.06 64.92 42.37 C 65.51 42.72 66.68 43.43 67.27 43.78 Z" />
<path fill="#4b595b" opacity="1.00" d=" M 75.26 47.07 C 75.36 42.40 79.79 40.10 83.19 37.81 C 83.96 42.51 84.88 47.17 85.68 51.86 C 82.18 50.31 78.84 48.43 75.26 47.07 Z" />
<path fill="#607762" opacity="1.00" d=" M 94.81 41.45 C 97.61 40.30 100.34 38.96 102.97 37.45 C 105.66 37.91 108.35 38.35 111.00 39.02 L 111.00 44.93 C 106.98 45.33 102.81 45.67 99.20 47.66 C 97.63 45.66 96.10 43.63 94.81 41.45 Z" />
<path fill="#aca38a" opacity="1.00" d=" M 93.15 42.71 C 95.28 45.82 97.44 48.90 99.64 51.96 C 99.04 53.02 98.44 54.08 97.82 55.13 L 97.68 55.39 L 96.71 54.47 C 96.74 50.19 92.89 47.07 93.15 42.71 Z" />
<path fill="#79766d" opacity="1.00" d=" M 89.79 43.86 C 92.82 46.89 93.16 51.85 96.71 54.47 L 97.68 55.39 C 96.66 57.71 95.38 60.10 92.95 61.21 C 90.02 61.33 87.20 60.05 85.11 58.05 C 83.22 54.76 80.53 52.15 77.61 49.78 C 80.18 50.53 82.67 51.65 84.78 53.30 C 86.13 55.14 87.01 57.31 88.64 58.96 C 88.23 56.80 87.79 54.64 87.57 52.45 C 88.37 52.15 89.98 51.55 90.79 51.26 C 90.39 48.80 90.08 46.33 89.79 43.86 Z" />
<path fill="#83a46b" opacity="1.00" d=" M 99.20 47.66 C 102.81 45.67 106.98 45.33 111.00 44.93 L 111.00 53.15 C 107.86 53.25 104.72 53.14 101.62 52.68 C 101.66 50.70 100.21 49.20 99.20 47.66 Z" />
<path fill="#d4ffab" opacity="1.00" d=" M 43.12 52.07 C 42.76 50.46 45.03 48.83 46.50 49.40 C 46.84 50.92 44.42 52.24 43.12 52.07 Z" />
<path fill="#7b766a" opacity="1.00" d=" M 47.72 48.40 C 49.49 50.93 52.58 51.06 55.33 51.57 C 55.59 52.09 56.10 53.13 56.35 53.65 C 57.64 52.06 59.61 51.64 61.58 51.98 C 60.03 54.23 58.61 57.08 55.68 57.71 C 54.32 55.49 52.85 53.31 51.00 51.45 L 49.93 51.80 C 48.57 52.25 47.21 52.69 45.83 53.10 C 46.72 51.65 47.67 50.17 47.72 48.40 Z" />
<path fill="#aca38a" opacity="1.00" d=" M 38.43 56.25 C 38.13 52.45 40.43 49.31 43.99 48.05 C 43.31 48.95 41.93 50.74 41.25 51.64 C 41.83 51.96 43.00 52.61 43.59 52.93 C 41.69 53.74 39.84 54.70 38.43 56.25 Z" />
<path fill="#aca38a" opacity="1.00" d=" M 8.32 51.03 C 9.49 57.28 9.10 63.83 6.56 69.70 C 8.84 68.40 9.47 65.66 11.34 63.97 C 11.78 68.07 11.48 72.20 12.05 76.29 C 11.93 76.76 11.70 77.71 11.59 78.18 C 7.85 77.00 8.72 72.31 8.77 69.30 C 8.18 69.57 7.00 70.11 6.41 70.38 C 6.60 71.92 6.60 73.45 6.40 74.99 C 3.16 73.41 5.01 69.56 5.29 66.87 C 6.51 61.62 6.59 56.15 8.32 51.03 Z" />
<path fill="#4a0b4f" opacity="1.00" d=" M 45.83 53.10 C 47.21 52.69 48.57 52.25 49.93 51.80 C 51.17 53.69 52.89 55.60 52.29 58.04 C 51.88 58.08 51.05 58.16 50.63 58.20 C 49.98 58.46 48.67 58.97 48.02 59.22 L 48.12 58.83 C 48.43 57.57 48.74 56.30 49.05 55.04 C 46.25 55.53 43.50 56.23 40.77 57.00 C 42.20 55.40 43.50 53.37 45.83 53.10 Z" />
<path fill="#171019" opacity="1.00" d=" M 49.93 51.80 L 51.00 51.45 C 52.85 53.31 54.32 55.49 55.68 57.71 C 54.55 57.84 53.42 57.95 52.29 58.04 C 52.89 55.60 51.17 53.69 49.93 51.80 Z" />
<path fill="#4a4c5b" opacity="1.00" d=" M 61.58 51.98 C 62.40 54.15 63.27 56.56 65.60 57.51 C 65.88 57.99 66.44 58.96 66.72 59.44 L 66.45 59.94 C 66.30 60.23 65.99 60.79 65.84 61.08 C 65.36 61.68 64.87 62.27 64.36 62.86 C 61.37 61.82 58.84 64.05 57.44 66.46 C 54.12 67.82 50.72 69.79 47.01 68.79 C 44.41 68.24 40.85 71.12 39.14 68.26 C 42.72 68.12 46.30 68.36 49.87 68.25 L 50.33 67.69 C 51.50 66.85 52.71 66.06 53.86 65.20 C 53.74 64.83 53.51 64.11 53.39 63.75 C 52.70 61.80 52.05 59.76 50.63 58.20 C 51.05 58.16 51.88 58.08 52.29 58.04 C 53.42 57.95 54.55 57.84 55.68 57.71 C 58.61 57.08 60.03 54.23 61.58 51.98 Z" />
<path fill="#52675e" opacity="1.00" d=" M 99.63 56.93 C 100.28 55.50 100.96 54.10 101.62 52.68 C 104.72 53.14 107.86 53.25 111.00 53.15 L 111.00 57.95 C 107.49 59.47 103.79 60.73 100.81 63.22 C 100.49 61.11 100.12 59.00 99.63 56.93 Z" />
<path fill="#ac3372" opacity="1.00" d=" M 40.77 57.00 C 43.50 56.23 46.25 55.53 49.05 55.04 C 48.74 56.30 48.43 57.57 48.12 58.83 C 47.49 58.78 46.23 58.67 45.60 58.62 C 44.00 59.85 42.24 60.84 40.33 61.48 C 40.30 59.97 40.45 58.48 40.77 57.00 Z" />
<path fill="#4c6066" opacity="1.00" d=" M 69.22 55.45 C 72.33 57.91 75.47 60.43 79.11 62.08 C 80.06 62.63 81.12 62.00 82.09 61.83 C 83.06 63.72 84.22 65.50 85.53 67.17 C 84.52 68.86 82.86 69.86 81.13 70.69 C 76.02 67.81 72.45 63.01 67.67 59.66 C 67.77 59.29 67.96 58.55 68.06 58.19 C 68.44 57.27 68.82 56.36 69.22 55.45 Z" />
<path fill="#484759" opacity="1.00" d=" M 97.68 55.39 L 97.82 55.13 C 97.93 57.44 98.35 59.72 98.54 62.03 C 97.88 63.76 95.72 64.17 94.47 65.42 C 94.21 69.62 91.28 72.82 89.79 76.59 L 89.43 76.66 C 88.43 76.82 87.44 76.99 86.45 77.15 C 88.23 73.90 90.11 70.70 91.79 67.39 C 90.16 67.03 88.54 66.67 86.92 66.33 C 85.99 64.96 84.71 63.73 84.25 62.11 C 84.39 60.73 84.78 59.39 85.11 58.05 C 87.20 60.05 90.02 61.33 92.95 61.21 C 95.38 60.10 96.66 57.71 97.68 55.39 Z" />
<path fill="#5a5660" opacity="1.00" d=" M 17.40 57.74 C 18.62 61.83 16.61 66.27 18.55 70.18 C 19.19 72.50 17.68 75.46 19.68 77.30 C 20.66 78.38 21.94 77.76 22.53 76.68 C 23.69 78.39 25.05 79.95 26.47 81.44 C 29.11 81.68 31.81 81.84 34.37 81.02 C 33.54 80.44 32.69 79.88 31.83 79.34 C 34.04 79.48 36.18 78.97 38.30 78.44 C 38.94 78.31 40.21 78.05 40.84 77.92 C 39.42 80.68 37.55 83.18 35.95 85.83 C 31.26 85.58 26.57 85.39 21.88 85.31 C 20.89 83.82 19.90 82.33 18.90 80.84 C 17.99 81.29 17.08 81.75 16.17 82.20 C 15.90 81.65 15.38 80.54 15.12 79.98 C 13.24 81.45 11.64 83.55 9.20 84.08 C 6.85 79.42 7.84 74.18 8.77 69.30 C 8.72 72.31 7.85 77.00 11.59 78.18 C 11.70 77.71 11.93 76.76 12.05 76.29 C 12.58 76.66 13.64 77.41 14.18 77.78 C 14.23 76.16 14.29 74.53 14.34 72.91 C 14.06 72.48 13.50 71.62 13.22 71.18 C 13.93 71.26 15.36 71.41 16.07 71.49 C 15.96 66.87 16.34 62.23 17.40 57.74 Z" />
<path fill="#5d8379" opacity="1.00" d=" M 100.81 63.22 C 103.79 60.73 107.49 59.47 111.00 57.95 L 111.00 64.51 C 106.70 65.76 102.17 65.39 97.77 65.95 C 98.77 65.03 99.77 64.10 100.81 63.22 Z" />
<path fill="#978a78" opacity="1.00" d=" M 50.63 58.20 C 52.05 59.76 52.70 61.80 53.39 63.75 C 52.12 64.85 50.64 65.90 50.33 67.69 L 49.87 68.25 C 46.30 68.36 42.72 68.12 39.14 68.26 C 39.57 66.70 39.76 65.10 38.25 64.07 C 40.75 62.49 43.31 61.00 45.88 59.51 C 47.64 59.92 49.62 60.11 50.63 58.20 Z" />
<path fill="#6eb0b9" opacity="1.00" d=" M 65.84 61.08 C 65.99 60.79 66.30 60.23 66.45 59.94 C 67.59 60.17 69.06 61.54 68.84 62.74 C 67.65 62.71 66.27 62.34 65.84 61.08 Z" />
<path fill="#62826a" opacity="1.00" d=" M 27.97 65.99 C 31.41 64.09 34.93 62.33 38.50 60.68 L 38.81 62.08 C 38.09 62.83 37.36 63.57 36.62 64.30 C 36.72 65.13 36.83 65.97 36.94 66.80 C 35.10 68.03 33.18 69.16 31.20 70.17 C 30.10 68.79 29.01 67.41 27.97 65.99 Z" />
<path fill="#bcba9b" opacity="1.00" d=" M 64.36 62.86 C 64.87 62.27 65.36 61.68 65.84 61.08 C 66.27 62.34 67.65 62.71 68.84 62.74 L 69.64 62.84 C 73.16 65.77 75.91 69.45 79.47 72.32 C 78.40 72.15 77.34 71.94 76.31 71.64 C 72.37 68.63 68.33 65.79 64.36 62.86 Z" />
<path fill="#000000" opacity="1.00" d=" M 50.33 67.69 C 50.64 65.90 52.12 64.85 53.39 63.75 C 53.51 64.11 53.74 64.83 53.86 65.20 C 52.71 66.06 51.50 66.85 50.33 67.69 Z" />
<path fill="#454558" opacity="1.00" d=" M 60.21 66.17 C 61.67 64.30 64.68 65.48 65.16 67.60 C 63.89 67.92 62.62 68.24 61.35 68.55 C 61.31 70.29 61.47 72.07 61.04 73.78 C 59.55 75.83 57.48 77.33 55.71 79.11 C 55.33 78.59 54.59 77.55 54.21 77.03 C 53.21 77.82 52.21 78.61 51.22 79.40 C 50.49 77.58 49.73 75.79 49.00 73.98 C 49.41 73.39 49.85 72.82 50.32 72.27 C 50.33 71.73 50.33 71.19 50.34 70.65 C 53.84 69.68 57.69 69.04 60.21 66.17 Z" />
<path fill="#6d6a68" opacity="1.00" d=" M 86.92 66.33 C 88.54 66.67 90.16 67.03 91.79 67.39 C 90.11 70.70 88.23 73.90 86.45 77.15 C 87.44 76.99 88.43 76.82 89.43 76.66 C 88.23 79.16 86.98 81.64 85.85 84.18 C 82.08 82.68 78.44 80.78 74.43 79.99 C 74.79 77.15 75.30 74.32 76.31 71.64 C 77.34 71.94 78.40 72.15 79.47 72.32 C 80.06 72.38 81.23 72.52 81.82 72.58 C 84.08 71.02 87.82 69.82 86.92 66.33 Z" />
<path fill="#4d4749" opacity="1.00" d=" M 46.41 70.15 C 49.43 68.67 46.65 73.45 46.41 70.15 Z" />
<path fill="#5a5457" opacity="1.00" d=" M 42.80 70.38 C 44.35 71.29 46.23 72.00 47.03 73.75 C 46.00 74.11 44.96 74.47 43.93 74.83 C 43.74 74.20 43.37 72.95 43.19 72.32 C 43.09 71.83 42.90 70.86 42.80 70.38 Z" />
<path fill="#65949c" opacity="1.00" d=" M 38.30 78.44 C 39.75 76.26 41.47 74.28 43.19 72.32 C 43.37 72.95 43.74 74.20 43.93 74.83 C 42.92 75.89 41.94 76.96 40.84 77.92 C 40.21 78.05 38.94 78.31 38.30 78.44 Z" />
<path fill="#877c72" opacity="1.00" d=" M 48.14 77.12 C 48.40 76.06 48.68 75.02 49.00 73.98 C 49.73 75.79 50.49 77.58 51.22 79.40 C 52.21 78.61 53.21 77.82 54.21 77.03 C 54.59 77.55 55.33 78.59 55.71 79.11 C 54.56 80.83 53.54 82.63 52.55 84.45 C 52.07 86.26 51.85 88.12 51.41 89.94 C 50.92 92.16 48.04 93.30 48.14 95.70 C 50.15 97.93 53.34 98.49 55.68 100.31 C 54.37 100.69 53.08 101.08 51.79 101.50 C 50.90 99.74 49.51 98.37 47.52 97.96 C 45.00 96.86 41.67 96.44 39.50 98.44 C 35.45 101.52 31.95 105.80 31.33 111.00 L 26.62 111.00 L 26.43 110.62 C 28.24 106.66 30.47 102.87 31.80 98.71 C 34.04 97.20 36.20 94.85 35.21 91.95 C 35.76 91.69 36.32 91.45 36.87 91.18 C 39.60 92.86 42.01 90.38 44.07 88.90 C 46.74 87.26 47.11 83.95 48.11 81.26 C 48.70 79.92 48.53 78.48 48.14 77.12 Z" />
<path fill="#bcba9b" opacity="1.00" d=" M 22.53 76.68 C 25.75 76.90 28.90 78.02 31.83 79.34 C 32.69 79.88 33.54 80.44 34.37 81.02 C 31.81 81.84 29.11 81.68 26.47 81.44 C 25.05 79.95 23.69 78.39 22.53 76.68 Z" />
<path fill="#d4ffab" opacity="1.00" d=" M 48.14 77.12 C 48.53 78.48 48.70 79.92 48.11 81.26 C 47.11 83.95 46.74 87.26 44.07 88.90 C 42.01 90.38 39.60 92.86 36.87 91.18 C 39.47 89.85 42.31 88.58 44.09 86.15 C 45.98 83.42 47.06 80.23 48.14 77.12 Z" />
<path fill="#5e5962" opacity="1.00" d=" M 51.41 89.94 C 51.85 88.12 52.07 86.26 52.55 84.45 C 54.54 85.84 56.33 87.49 57.94 89.31 C 56.97 90.19 55.87 90.96 55.13 92.06 C 55.05 95.01 56.71 97.60 58.16 100.04 C 57.54 100.11 56.30 100.24 55.68 100.31 C 53.34 98.49 50.15 97.93 48.14 95.70 C 48.04 93.30 50.92 92.16 51.41 89.94 Z" />
<path fill="#aca38a" opacity="1.00" d=" M 33.23 92.84 C 33.72 92.62 34.71 92.17 35.21 91.95 C 36.20 94.85 34.04 97.20 31.80 98.71 C 30.47 102.87 28.24 106.66 26.43 110.62 C 25.09 107.37 27.51 103.54 29.74 101.11 C 29.36 100.25 28.59 98.51 28.20 97.64 C 30.07 96.90 31.96 96.23 33.75 95.31 C 33.62 94.69 33.36 93.46 33.23 92.84 Z" />
<path fill="#000000" opacity="1.00" d=" M 39.50 98.44 C 41.67 96.44 45.00 96.86 47.52 97.96 C 49.12 102.17 51.69 105.91 54.39 109.50 C 54.68 109.87 55.27 110.62 55.56 111.00 L 52.64 111.00 C 49.80 107.46 47.75 103.40 45.20 99.67 C 44.63 99.34 43.49 98.70 42.92 98.38 C 38.73 101.67 34.60 105.58 33.42 111.00 L 31.33 111.00 C 31.95 105.80 35.45 101.52 39.50 98.44 Z" />
<path fill="#d4ffab" opacity="1.00" d=" M 47.52 97.96 C 49.51 98.37 50.90 99.74 51.79 101.50 C 53.13 103.98 54.62 106.58 54.39 109.50 C 51.69 105.91 49.12 102.17 47.52 97.96 Z" />
<path fill="#978a78" opacity="1.00" d=" M 55.68 100.31 C 56.30 100.24 57.54 100.11 58.16 100.04 C 60.23 102.42 62.55 105.52 65.92 105.77 C 67.81 104.72 69.22 103.03 70.83 101.62 C 70.39 103.76 69.86 105.88 69.12 107.94 C 70.96 108.94 72.77 109.99 74.60 111.00 L 55.56 111.00 C 55.27 110.62 54.68 109.87 54.39 109.50 C 54.62 106.58 53.13 103.98 51.79 101.50 C 53.08 101.08 54.37 100.69 55.68 100.31 Z" />
<path fill="#3b3c54" opacity="1.00" d=" M 70.83 101.62 C 71.46 101.01 72.09 100.42 72.74 99.83 C 72.51 101.17 72.28 102.51 72.05 103.86 C 73.51 106.21 74.84 108.63 76.27 111.00 L 74.60 111.00 C 72.77 109.99 70.96 108.94 69.12 107.94 C 69.86 105.88 70.39 103.76 70.83 101.62 Z" />
</svg>
