<?xml version="1.0" encoding="UTF-8" ?>
<!DOCTYPE svg PUBLIC "-//W3C//DTD SVG 1.1//EN" "http://www.w3.org/Graphics/SVG/1.1/DTD/svg11.dtd">
<svg width="997pt" height="1024pt" viewBox="0 0 997 1024" version="1.1" xmlns="http://www.w3.org/2000/svg">
<path fill="#000000" opacity="1.00" d=" M 520.07 1.89 C 527.08 -1.05 535.46 -0.03 541.47 4.65 C 549.70 11.01 554.82 20.55 558.48 30.08 C 558.10 46.06 556.65 62.03 556.06 78.03 C 555.46 87.03 555.30 96.05 554.65 105.05 C 554.59 111.34 553.84 117.65 554.54 123.93 C 554.32 122.31 554.08 120.70 553.83 119.09 C 553.55 141.62 552.02 164.10 551.25 186.61 C 575.17 164.64 599.42 143.05 623.73 121.52 C 634.00 125.27 645.26 125.66 655.95 123.76 C 663.75 121.72 670.66 117.37 677.89 113.92 C 682.32 111.87 686.69 108.92 691.80 109.30 C 691.40 111.48 690.61 113.57 689.28 115.35 C 680.61 127.68 670.43 139.00 663.28 152.34 C 658.08 162.18 659.74 173.85 655.71 184.07 C 650.32 198.75 639.67 210.77 628.50 221.40 C 606.50 241.42 582.73 259.34 559.60 278.01 C 566.29 292.85 572.87 307.74 579.24 322.72 C 580.43 325.98 583.33 328.04 585.75 330.35 C 639.66 382.12 695.14 432.24 751.15 481.72 C 796.09 521.07 843.28 557.71 889.98 594.92 C 909.53 610.36 928.86 626.09 947.45 642.69 C 960.39 654.33 973.28 666.10 984.88 679.09 C 988.20 683.30 992.35 687.40 993.16 692.95 C 992.49 693.55 991.83 694.17 991.18 694.79 C 994.77 704.05 997.23 713.95 996.76 723.94 C 996.39 731.89 993.44 739.99 987.46 745.44 C 980.81 751.53 971.95 754.45 963.24 756.05 C 933.84 729.51 903.55 703.95 872.53 679.31 C 854.25 664.62 836.19 649.63 817.30 635.71 C 808.22 629.13 798.87 622.89 789.05 617.48 C 786.58 624.40 783.99 631.29 781.43 638.18 C 784.77 646.20 791.94 652.23 800.17 654.80 C 806.26 657.07 812.76 657.65 819.19 658.23 C 814.55 663.55 809.64 668.63 805.08 674.03 C 811.15 675.33 817.18 676.89 823.13 678.71 C 824.28 686.06 824.70 693.74 821.77 700.77 C 817.69 710.82 808.49 717.42 799.56 722.91 C 805.45 729.86 811.82 736.90 820.33 740.63 C 823.42 742.02 826.85 742.42 830.21 742.04 C 827.31 748.92 820.23 752.95 812.94 753.26 C 802.97 753.69 793.12 751.07 783.74 747.94 C 793.35 766.40 802.81 784.93 812.81 803.18 C 824.27 824.19 835.28 845.52 848.64 865.41 C 851.09 868.55 853.15 872.54 857.13 873.95 C 853.44 883.93 848.30 893.98 839.39 900.27 C 833.09 905.00 825.24 906.56 817.88 908.85 C 809.83 911.25 800.73 911.90 793.02 908.05 C 782.34 902.94 774.73 893.43 767.89 884.09 C 755.97 867.27 745.51 849.48 735.40 831.53 C 722.22 807.97 709.91 783.94 698.08 759.68 C 694.91 761.61 691.63 763.34 688.36 765.10 C 687.41 773.98 682.57 782.11 675.58 787.57 C 670.98 791.30 665.70 794.01 660.43 796.64 C 666.18 804.37 671.84 812.96 680.88 817.16 C 683.40 818.46 686.29 818.49 689.07 818.55 C 685.89 823.92 680.31 827.76 673.99 828.07 C 661.85 828.79 650.62 823.26 639.54 819.10 C 637.97 824.57 638.00 830.33 637.05 835.92 C 636.76 839.24 635.55 842.70 636.66 846.00 C 641.09 860.24 645.82 874.58 653.62 887.39 C 658.06 894.90 663.82 901.96 671.60 906.18 C 663.74 913.65 655.74 920.98 647.85 928.42 C 639.72 919.43 633.94 908.54 630.24 897.04 C 625.78 884.48 623.26 871.33 621.64 858.14 C 611.04 863.66 597.89 864.07 587.01 859.12 C 578.61 855.46 571.85 849.06 565.38 842.74 C 578.44 843.57 592.02 841.95 603.62 835.51 C 612.02 831.17 619.36 825.07 626.01 818.41 C 612.94 814.89 599.89 810.12 589.02 801.86 C 584.39 798.41 580.86 793.65 578.39 788.46 C 576.77 785.18 576.31 781.04 572.85 779.06 C 573.79 762.01 574.58 744.95 575.90 727.93 C 573.59 727.64 571.28 727.38 568.97 727.15 C 568.73 745.45 561.16 762.87 551.45 778.08 C 551.83 784.74 552.08 791.41 552.36 798.09 C 558.34 792.12 564.10 785.92 570.18 780.06 C 570.84 784.74 571.99 789.36 572.33 794.10 C 573.74 792.41 575.13 790.70 576.57 789.04 C 576.26 794.51 574.73 799.77 573.16 804.99 C 572.20 814.68 570.73 825.27 563.69 832.63 C 561.13 835.60 557.54 837.24 554.10 838.93 C 555.91 892.34 558.41 945.72 560.34 999.11 C 555.18 1009.15 547.34 1018.71 536.21 1022.21 C 525.53 1025.94 514.20 1022.31 504.07 1018.56 C 490.81 1013.21 477.65 1006.66 467.37 996.52 C 461.09 990.53 456.18 983.23 452.47 975.42 C 451.83 974.03 451.10 972.62 451.35 971.07 C 454.48 935.73 456.47 900.31 457.91 864.87 C 449.57 859.62 440.70 853.89 436.17 844.79 C 431.81 836.66 430.62 827.17 431.85 818.10 C 426.16 817.48 420.42 817.75 414.71 817.49 C 411.90 821.09 409.15 824.74 406.34 828.35 C 406.45 824.65 406.55 820.95 406.70 817.26 C 404.15 817.18 401.61 817.05 399.08 816.89 C 389.90 805.05 380.96 793.04 372.22 780.88 C 367.49 796.76 359.04 812.96 343.97 821.18 C 343.13 812.18 341.90 803.23 341.24 794.22 C 338.36 796.30 334.92 798.01 333.60 801.55 C 328.79 811.33 320.18 819.49 309.35 821.98 C 310.57 816.27 311.56 810.52 312.53 804.77 C 307.30 805.10 302.23 803.66 297.09 803.07 C 294.42 805.35 292.17 808.06 289.47 810.32 C 296.40 818.45 304.34 825.68 312.74 832.28 C 321.47 839.20 330.92 845.78 341.91 848.45 C 348.36 850.25 355.13 849.85 361.75 849.54 C 357.75 838.51 360.47 826.56 364.61 816.02 C 376.13 828.78 390.74 838.43 406.25 845.67 C 407.45 846.39 408.45 844.90 409.39 844.36 C 414.98 839.57 420.73 834.97 426.33 830.18 C 426.40 835.46 427.38 840.69 427.25 845.98 C 426.79 854.52 426.03 863.28 422.33 871.13 C 419.67 877.44 414.98 883.18 408.53 885.82 C 402.94 887.74 396.93 888.16 391.06 888.28 C 380.88 888.12 369.95 887.64 361.27 881.68 C 354.16 877.07 350.64 869.09 346.20 862.22 C 334.33 864.00 322.61 860.49 311.64 856.28 C 303.03 852.86 294.56 848.63 287.64 842.39 C 281.97 836.72 278.16 829.24 276.68 821.38 C 275.78 822.04 274.89 822.71 274.00 823.38 C 279.48 834.11 285.53 844.53 291.51 854.99 C 278.45 853.27 265.40 851.50 252.37 849.63 C 250.25 845.94 247.93 842.39 245.83 838.70 C 230.90 842.44 214.85 840.60 200.92 834.15 C 191.52 829.99 182.88 824.29 174.88 817.87 C 192.43 816.06 209.46 811.06 225.99 805.07 C 215.65 786.28 206.07 767.03 198.26 747.04 C 193.02 733.53 188.06 719.75 185.96 705.35 C 180.01 709.34 173.43 712.47 167.82 716.91 C 146.33 745.23 125.37 774.04 101.60 800.53 C 95.86 807.18 89.80 813.55 83.80 819.96 C 102.76 814.22 121.68 807.75 139.01 797.99 C 155.22 788.99 168.16 774.37 175.55 757.41 C 177.56 753.28 178.53 748.77 180.24 744.53 C 185.26 758.72 186.29 774.63 180.89 788.88 C 174.18 807.16 159.12 820.61 144.04 832.13 C 154.11 846.06 166.13 858.72 180.08 868.81 C 191.48 877.20 206.43 879.78 220.20 877.17 C 213.98 882.87 206.55 887.64 198.08 888.98 C 188.94 890.71 179.73 888.03 171.30 884.63 C 161.22 880.36 151.43 875.09 143.16 867.86 C 135.47 861.45 131.05 851.62 130.23 841.75 C 118.35 849.22 105.25 856.00 90.94 856.58 C 72.70 857.44 54.91 849.91 41.04 838.39 C 32.81 839.22 23.83 838.98 16.73 834.19 C 7.04 828.18 2.04 817.02 0.14 806.15 C 38.79 761.07 74.51 713.58 109.77 665.83 C 119.80 651.84 129.46 637.48 136.91 621.92 C 144.96 603.24 148.63 583.05 151.15 562.97 C 152.78 549.37 155.79 535.70 153.96 521.95 C 153.40 514.45 151.72 506.61 154.48 499.34 C 157.08 493.15 162.46 488.79 167.57 484.73 C 175.66 478.74 184.48 473.67 193.87 470.03 C 197.46 468.84 201.16 467.41 205.00 467.59 C 207.14 467.88 207.65 470.25 207.57 472.05 C 207.29 482.46 202.49 492.39 203.34 502.88 C 203.93 506.98 208.74 507.64 211.87 509.06 C 219.72 512.11 228.17 509.22 235.16 505.37 C 250.16 496.94 262.36 484.54 273.92 471.99 C 298.17 445.44 320.84 417.50 344.59 390.51 C 360.94 371.93 377.44 353.47 394.81 335.85 C 397.17 333.52 397.77 330.14 398.95 327.18 C 407.07 305.32 415.10 283.42 423.58 261.69 C 416.82 253.40 409.39 245.70 402.42 237.60 C 366.41 196.81 331.17 155.36 296.20 113.69 C 300.05 102.99 301.02 91.22 299.01 80.03 C 296.27 69.68 290.21 60.62 286.48 50.64 C 285.89 48.99 285.75 47.23 285.52 45.51 C 289.06 45.21 291.81 47.72 294.51 49.61 C 304.48 57.29 313.71 65.98 324.37 72.73 C 329.28 76.22 335.08 78.10 341.01 78.91 C 350.59 80.15 360.30 82.19 368.56 87.46 C 388.92 100.00 403.31 119.63 418.01 138.01 C 407.83 117.52 397.84 96.92 387.28 76.62 C 378.21 58.83 367.37 42.04 357.16 24.91 C 356.14 22.53 353.74 19.87 355.06 17.21 C 358.24 17.01 360.60 19.59 363.00 21.29 C 375.88 31.67 387.49 43.70 401.45 52.70 C 418.23 62.53 436.91 68.83 456.00 72.35 C 458.04 73.02 461.06 72.62 461.89 75.08 C 466.37 84.23 471.10 93.26 475.56 102.42 C 477.26 106.31 482.43 106.92 484.08 110.93 C 485.30 83.97 486.74 57.02 488.13 30.07 C 496.88 18.90 506.51 7.26 520.07 1.89 M 523.43 10.64 C 518.36 11.40 513.71 13.79 509.52 16.66 C 506.00 19.03 502.37 22.46 502.42 27.04 C 502.61 33.36 505.20 39.81 509.89 44.14 C 514.18 48.12 520.51 47.35 525.88 47.26 C 532.52 46.65 539.51 45.86 545.33 42.35 C 549.12 39.07 548.97 33.44 548.51 28.88 C 547.72 23.70 546.99 17.81 542.66 14.28 C 537.32 9.99 529.93 9.65 523.43 10.64 M 497.02 35.64 C 487.51 149.89 480.69 264.37 476.39 378.94 C 472.66 466.35 472.49 553.86 471.38 641.34 C 471.18 691.90 470.76 742.47 469.75 793.02 C 468.51 834.85 467.12 876.69 464.77 918.48 C 463.52 936.31 462.72 954.18 460.43 971.92 C 459.49 974.71 462.00 976.49 463.56 978.37 C 472.62 988.74 482.58 998.66 494.66 1005.47 C 503.40 1010.41 513.85 1013.22 523.82 1010.83 C 535.67 1008.23 544.87 999.36 552.05 990.05 C 553.89 988.12 552.97 985.35 553.00 983.01 C 544.01 831.13 538.76 679.00 539.31 526.84 C 557.64 517.25 574.58 505.02 589.79 491.01 C 587.34 485.99 584.90 480.96 582.56 475.88 C 564.89 489.54 551.02 507.48 539.30 526.34 C 539.24 526.10 539.12 525.64 539.06 525.41 C 539.46 518.33 539.39 511.23 539.53 504.15 C 539.57 503.97 539.63 503.61 539.66 503.43 C 551.20 489.64 563.14 476.02 577.22 464.74 C 575.66 461.42 574.09 458.11 572.58 454.77 C 561.35 463.41 550.20 472.22 539.91 481.97 C 539.81 488.76 539.69 495.56 539.68 502.35 C 539.20 490.58 539.83 478.79 540.09 467.02 C 540.58 416.66 542.22 366.34 543.66 316.00 C 544.96 264.65 546.99 213.32 547.54 161.95 C 547.61 151.44 548.57 140.91 547.88 130.41 C 548.68 119.33 548.26 108.19 548.74 97.09 C 549.08 79.47 549.67 61.83 549.64 44.20 C 540.28 50.25 529.17 55.43 517.74 53.40 C 508.28 51.44 501.56 43.68 497.02 35.64 M 380.00 41.84 C 380.36 46.45 382.27 50.71 384.08 54.91 C 390.98 70.30 399.05 85.14 406.80 100.12 C 429.35 142.64 450.80 185.74 471.90 228.99 C 474.06 233.02 475.58 237.40 478.23 241.15 C 478.42 231.75 479.02 222.36 479.35 212.96 C 479.88 208.76 476.79 205.46 475.20 201.87 C 471.90 194.93 468.05 188.18 465.89 180.78 C 471.34 186.68 475.34 193.71 479.91 200.26 C 480.70 180.16 481.85 160.07 482.67 139.97 C 482.91 137.75 482.29 135.61 481.22 133.69 C 472.45 116.56 464.06 99.18 454.29 82.61 C 446.69 82.01 439.00 81.61 431.65 79.42 C 423.26 76.96 414.65 73.91 408.14 67.85 C 400.48 61.18 393.95 53.37 386.70 46.29 C 384.71 44.50 382.80 42.27 380.00 41.84 M 301.79 64.54 C 303.09 74.63 310.34 83.51 309.08 93.98 C 308.77 98.52 307.26 103.16 308.41 107.67 C 309.33 110.15 312.44 109.84 314.53 109.38 C 320.75 107.78 326.98 105.12 331.49 100.39 C 334.85 96.87 338.68 93.51 340.64 88.95 C 341.50 87.68 340.82 86.01 339.33 85.75 C 333.06 84.70 326.21 86.79 320.32 83.78 C 312.70 78.87 308.98 69.87 301.79 64.54 M 347.13 93.23 C 343.50 100.72 337.82 107.24 330.82 111.76 C 323.59 115.95 314.74 116.33 306.74 114.48 C 353.96 170.55 402.02 225.95 451.69 279.87 C 459.85 271.84 468.24 264.07 476.41 256.05 C 466.98 236.95 457.69 217.78 448.23 198.69 C 446.63 195.51 444.25 192.83 442.11 190.02 C 430.72 174.92 420.09 159.27 408.90 144.02 C 396.21 126.13 382.27 108.53 364.20 95.80 C 359.93 93.08 355.20 90.55 350.02 90.48 C 348.27 90.01 347.88 92.18 347.13 93.23 M 652.68 132.64 C 645.47 135.27 637.76 132.01 630.40 133.51 C 627.54 134.17 627.77 137.70 628.27 139.93 C 630.25 147.20 634.48 153.85 640.15 158.81 C 643.65 161.84 647.34 165.46 652.27 165.54 C 653.98 158.82 651.05 151.57 654.04 145.09 C 656.81 139.74 662.00 136.29 666.38 132.35 C 668.58 130.23 671.76 128.75 672.67 125.62 C 665.77 127.25 659.38 130.41 652.68 132.64 M 598.72 153.70 C 583.12 167.75 567.50 181.80 552.12 196.10 C 551.32 196.72 550.85 197.51 550.73 198.49 C 549.82 216.79 549.40 235.13 548.17 253.42 C 563.83 240.76 577.67 226.10 592.73 212.76 C 594.65 210.98 596.85 209.54 599.18 208.34 C 598.01 212.95 595.38 216.97 592.82 220.91 C 588.31 227.55 583.19 233.92 576.69 238.72 C 567.51 245.67 557.93 252.10 548.20 258.26 C 547.75 263.02 547.61 267.81 547.43 272.59 C 563.03 259.73 579.43 247.89 595.44 235.54 C 607.12 226.70 618.85 217.75 628.82 206.94 C 635.14 200.09 641.34 192.92 645.60 184.57 C 647.47 181.05 648.32 177.08 648.21 173.10 C 639.30 168.90 630.22 163.47 625.51 154.45 C 621.56 147.71 621.77 139.57 623.04 132.11 C 614.64 138.95 606.90 146.59 598.72 153.70 M 427.47 265.88 C 419.39 286.32 411.01 306.66 403.14 327.18 C 417.49 313.64 431.12 299.33 445.53 285.84 C 439.65 279.06 433.63 272.40 427.47 265.88 M 387.92 355.95 C 362.69 382.39 337.94 409.29 313.63 436.59 C 301.81 449.86 289.91 463.07 278.77 476.92 C 267.28 491.12 256.31 505.74 244.84 519.97 C 240.45 525.16 236.17 530.53 230.85 534.82 C 228.36 536.90 224.09 538.09 221.56 535.47 C 218.46 532.14 217.42 527.56 215.47 523.58 C 214.89 522.54 214.32 521.13 213.00 520.95 C 210.31 522.28 209.03 525.18 207.66 527.68 C 202.99 537.16 200.04 547.36 196.18 557.17 C 195.72 558.47 194.79 559.50 193.96 560.58 C 194.39 543.54 201.57 527.06 199.63 509.88 C 199.18 503.43 198.29 496.84 195.31 491.01 C 185.87 500.16 173.33 509.16 159.40 506.10 C 166.20 545.02 158.66 585.08 144.51 621.54 C 137.37 639.55 129.19 657.25 118.48 673.45 C 108.55 689.03 97.87 704.12 86.82 718.93 C 75.16 734.81 63.15 750.45 50.34 765.42 C 38.22 779.38 26.05 793.50 11.54 805.07 C 17.48 813.15 23.59 821.22 31.03 828.00 C 33.23 829.72 35.66 832.08 38.67 831.75 C 41.99 829.10 41.60 823.65 45.53 821.53 C 52.78 818.00 61.09 818.09 68.98 818.09 C 85.27 798.00 101.47 777.85 117.73 757.73 C 141.78 727.75 166.15 698.02 189.62 667.58 C 216.03 633.72 242.47 599.89 269.74 566.72 C 291.70 540.38 313.96 514.29 336.31 488.28 C 381.08 436.49 425.87 384.61 473.86 335.75 C 475.03 333.78 474.44 331.22 474.71 329.01 C 475.29 308.27 476.31 287.54 477.03 266.80 C 446.81 295.99 416.74 325.37 387.92 355.95 M 546.60 288.43 C 546.10 304.30 545.19 320.17 544.67 336.04 C 544.56 341.53 543.53 347.03 544.21 352.51 C 543.48 357.67 543.64 362.89 543.33 368.08 C 543.25 371.25 542.51 374.70 544.46 377.51 C 569.81 430.14 595.78 482.50 620.46 535.46 C 635.93 568.09 650.07 601.40 661.13 635.80 C 667.17 654.02 672.58 672.46 679.52 690.37 C 685.67 706.05 692.02 721.64 698.98 736.98 C 710.55 762.34 723.25 787.16 735.82 812.03 C 747.36 834.20 758.41 856.72 772.33 877.54 C 777.15 884.57 782.43 891.56 789.48 896.52 C 794.51 900.10 800.82 901.72 806.96 901.02 C 813.75 900.14 820.83 899.40 826.86 895.87 C 835.67 890.86 841.95 882.58 847.06 874.03 C 826.52 839.24 806.90 803.92 787.82 768.32 C 761.56 719.54 736.08 670.35 710.90 621.01 C 674.18 548.94 637.96 476.60 603.60 403.36 C 585.53 364.11 568.36 324.46 550.98 284.89 C 549.52 286.07 548.05 287.25 546.60 288.43 M 592.78 353.83 C 597.28 364.28 601.99 374.64 606.51 385.08 C 607.91 388.83 611.18 391.32 613.82 394.17 C 622.74 403.59 631.92 412.78 640.57 422.46 C 641.12 423.24 641.66 424.04 642.18 424.87 C 632.02 416.45 622.64 407.13 612.59 398.59 C 623.17 422.63 634.49 446.36 645.77 470.08 C 647.05 473.30 650.09 475.17 652.61 477.33 C 660.82 484.16 669.14 490.85 677.26 497.78 C 678.25 496.22 679.25 494.67 680.26 493.12 C 671.31 481.32 661.72 469.35 657.24 455.02 C 664.10 451.48 670.88 447.78 677.71 444.16 C 682.36 456.17 686.92 468.23 691.92 480.10 C 696.32 471.73 696.19 462.01 696.76 452.83 C 701.85 463.01 706.65 473.34 711.48 483.65 C 712.29 490.28 709.74 497.18 705.07 501.97 C 708.66 512.58 715.66 521.61 724.13 528.81 C 728.66 524.94 731.40 519.52 734.89 514.78 C 727.38 507.69 719.04 501.42 712.20 493.67 C 721.51 497.88 729.54 504.38 737.97 510.06 C 741.20 504.72 744.62 499.48 747.92 494.17 C 719.39 470.08 691.93 444.76 664.22 419.74 C 640.32 397.86 616.55 375.83 592.78 353.83 M 469.40 358.81 C 470.57 363.74 471.60 368.70 472.64 373.66 C 472.80 373.63 473.14 373.59 473.30 373.56 C 472.92 367.16 473.65 360.77 473.77 354.37 C 472.26 355.80 470.83 357.31 469.40 358.81 M 453.50 375.50 C 446.24 392.60 440.78 410.45 433.91 427.71 C 434.74 422.94 436.72 418.50 438.20 413.92 C 442.18 402.15 446.38 390.45 450.51 378.72 C 440.65 388.42 431.45 398.82 422.05 408.98 C 409.49 422.90 396.72 436.65 384.56 450.93 C 389.55 453.27 394.40 455.95 399.48 458.09 L 400.62 456.72 C 400.62 457.28 400.62 458.40 400.61 458.96 C 406.98 462.47 413.18 466.24 419.34 470.10 C 432.34 478.73 444.47 488.61 456.03 499.09 C 458.50 497.62 461.22 496.44 463.36 494.48 C 465.07 492.01 466.84 489.53 469.44 487.91 C 469.52 484.82 469.57 481.73 469.65 478.65 C 464.71 478.86 459.75 479.06 454.84 478.45 C 458.26 473.63 464.57 472.04 469.71 469.58 C 470.84 457.76 470.14 445.86 471.16 434.03 C 471.27 418.67 472.09 403.33 472.44 387.98 C 470.88 379.19 468.46 370.56 466.68 361.81 C 462.12 366.20 457.57 370.65 453.50 375.50 M 542.43 393.63 C 542.01 405.93 541.49 418.24 541.28 430.54 C 545.93 434.17 551.20 436.95 556.03 440.35 C 554.86 436.45 553.75 432.54 552.93 428.56 C 554.77 432.72 555.37 437.40 557.67 441.35 C 560.33 443.62 563.41 445.35 566.19 447.50 C 566.71 447.12 567.75 446.37 568.27 445.99 C 561.43 432.04 554.77 418.01 547.98 404.04 C 546.96 401.78 545.96 399.48 544.42 397.52 C 544.24 396.15 543.58 394.59 542.43 393.63 M 540.88 436.33 C 540.88 438.02 540.82 439.74 541.03 441.44 C 540.55 446.83 540.21 452.35 541.03 457.73 C 543.43 459.37 545.73 461.15 547.99 462.98 C 553.21 457.87 558.62 452.96 563.86 447.88 C 556.15 444.13 548.67 439.93 540.88 436.33 M 664.20 459.90 C 670.28 470.06 676.25 480.28 682.25 490.49 C 684.49 487.99 686.63 485.42 688.76 482.83 C 684.82 472.88 680.90 462.94 677.04 452.96 C 672.81 455.38 668.50 457.64 664.20 459.90 M 382.05 457.05 C 383.32 460.70 386.28 463.33 388.69 466.23 C 401.08 479.57 414.31 492.09 427.59 504.53 C 431.81 499.89 435.58 494.86 439.54 489.99 C 425.40 480.69 410.60 472.47 396.06 463.84 C 391.54 461.28 387.13 458.35 382.05 457.05 M 379.42 463.71 C 373.21 479.20 367.05 494.70 361.35 510.39 C 367.48 508.79 373.73 507.63 380.04 507.10 C 383.79 497.38 387.30 487.57 391.32 477.96 C 387.10 473.42 383.53 468.34 379.42 463.71 M 541.37 466.96 C 541.07 468.91 543.99 470.07 545.60 469.65 C 545.28 468.19 542.89 466.58 541.37 466.96 M 347.30 493.32 C 345.07 496.12 342.06 498.52 341.02 502.08 C 337.89 511.71 334.99 521.40 331.79 531.00 C 334.74 535.57 337.66 540.16 340.91 544.53 C 343.46 536.24 345.99 527.95 348.61 519.68 C 346.38 519.31 344.17 518.81 342.00 518.21 C 344.52 516.12 347.65 515.11 350.48 513.58 C 354.95 500.66 359.14 487.63 363.79 474.77 C 357.90 480.57 352.85 487.19 347.30 493.32 M 685.28 502.43 C 681.14 508.89 675.31 514.02 669.57 519.01 C 671.77 523.51 673.99 527.99 676.13 532.52 C 690.28 519.71 700.09 503.00 708.94 486.30 C 705.78 482.22 702.79 478.01 699.77 473.84 C 696.20 483.94 691.10 493.45 685.28 502.43 M 174.85 484.77 C 171.35 487.08 167.38 489.42 165.60 493.40 C 164.47 495.76 165.39 498.24 166.96 500.13 C 177.83 499.19 187.76 493.91 195.91 486.89 C 196.84 485.93 198.17 484.84 197.73 483.33 C 195.88 479.50 190.96 477.97 187.02 479.08 C 182.65 480.20 178.69 482.48 174.85 484.77 M 393.70 480.84 C 391.04 489.60 388.29 498.35 385.60 507.10 C 392.74 507.40 399.80 508.52 406.79 509.93 C 407.42 507.82 408.12 505.74 408.85 503.67 C 408.27 505.74 407.76 507.83 407.22 509.92 C 409.51 509.65 411.81 509.39 414.10 509.10 C 413.79 509.69 413.16 510.87 412.85 511.46 C 420.10 513.38 426.89 516.60 433.97 518.98 C 425.82 512.50 417.93 505.67 410.52 498.35 C 404.63 492.79 399.32 486.66 393.70 480.84 M 467.98 493.45 C 467.53 495.12 468.09 495.66 469.66 495.07 C 470.10 493.39 469.54 492.85 467.98 493.45 M 749.13 495.39 C 751.18 502.67 753.50 509.87 755.62 517.13 C 754.66 518.57 753.71 520.00 752.76 521.44 C 779.30 542.70 804.35 565.76 829.97 588.11 C 848.09 604.62 866.75 620.57 884.15 637.86 C 885.54 639.13 886.62 640.67 887.55 642.31 C 882.69 640.61 878.45 637.64 874.19 634.84 C 868.12 630.59 861.89 626.57 856.03 622.04 C 835.17 606.79 816.98 588.34 797.95 570.95 C 799.56 577.99 801.95 584.82 803.55 591.86 C 797.72 597.17 791.77 602.37 786.14 607.90 C 797.20 612.90 808.05 618.37 818.58 624.41 C 839.35 636.80 858.75 651.32 877.67 666.34 C 894.26 679.31 910.52 692.72 926.24 706.74 C 939.07 718.64 951.89 730.74 962.36 744.83 C 971.56 738.38 981.01 731.85 988.09 723.00 C 989.12 721.49 991.04 719.31 989.38 717.56 C 986.28 714.57 980.34 714.67 979.11 709.88 C 976.22 702.70 977.38 694.82 976.61 687.41 C 946.13 660.89 915.29 634.75 884.49 608.59 C 839.77 570.38 794.11 533.29 749.13 495.39 M 432.34 510.24 C 445.08 523.06 457.05 536.68 467.70 551.28 C 468.01 543.56 468.34 535.81 468.02 528.09 C 460.31 516.92 451.86 506.14 441.97 496.79 C 438.78 501.28 435.68 505.85 432.34 510.24 M 450.34 497.24 C 449.95 498.60 452.06 500.68 453.42 499.88 C 453.99 498.32 451.69 496.94 450.34 497.24 M 659.06 497.15 C 661.85 502.22 663.12 508.82 668.36 512.01 C 666.43 506.46 662.52 501.83 659.06 497.15 M 585.02 504.45 C 588.45 503.76 591.90 503.17 595.41 503.15 C 594.63 501.49 593.87 499.83 593.14 498.17 C 590.47 500.30 587.68 502.29 585.02 504.45 M 459.11 508.61 C 461.43 511.33 463.65 514.15 465.86 516.98 C 466.81 516.24 467.76 515.51 468.71 514.78 C 468.73 510.71 468.93 506.64 469.05 502.58 C 465.66 504.47 462.31 506.43 459.11 508.61 M 694.57 570.00 C 697.05 574.83 699.35 579.74 701.85 584.56 C 705.19 581.67 708.59 578.80 711.35 575.32 C 720.75 563.86 724.08 548.81 733.20 537.18 C 738.17 530.42 743.45 523.75 750.16 518.62 C 749.05 515.06 747.86 511.51 746.69 507.97 C 728.19 527.68 711.82 549.22 694.57 570.00 M 289.98 560.99 C 287.24 564.12 286.26 568.28 285.04 572.16 C 282.63 580.26 282.24 589.37 285.87 597.18 C 288.51 603.26 293.50 607.96 299.05 611.43 C 300.63 606.65 298.50 601.87 298.41 597.06 C 297.07 584.11 297.21 570.87 300.34 558.17 C 304.69 555.72 309.11 553.38 313.47 550.96 C 312.07 548.98 310.69 546.99 309.31 545.02 C 315.13 539.21 320.89 533.34 326.69 527.52 C 328.74 525.61 329.30 522.76 330.20 520.23 C 331.38 516.42 332.98 512.75 334.03 508.91 C 319.12 526.07 304.68 543.64 289.98 560.99 M 371.02 512.37 C 369.66 512.67 367.99 512.64 367.14 513.96 C 374.10 515.12 381.17 516.06 387.85 518.46 C 389.20 516.34 390.59 514.26 392.06 512.23 C 393.99 511.83 395.93 511.43 397.85 510.95 C 388.89 510.55 379.88 511.00 371.02 512.37 M 562.14 526.08 C 553.87 541.19 547.36 557.16 541.34 573.27 C 539.83 576.98 541.10 581.03 541.05 584.90 C 562.29 563.73 579.12 538.71 595.48 513.73 C 595.91 513.10 596.77 511.84 597.20 511.22 C 588.89 511.48 580.56 511.53 572.29 512.34 C 568.24 516.39 564.92 521.09 562.14 526.08 M 411.48 514.28 C 407.69 522.03 404.81 530.24 403.06 538.70 C 410.33 532.75 417.17 526.08 422.21 518.09 C 418.68 516.84 415.23 514.32 411.48 514.28 M 394.99 515.99 C 388.56 526.10 385.56 538.08 384.88 549.96 C 384.71 554.67 386.51 559.17 388.80 563.20 C 394.19 573.14 401.68 581.72 409.62 589.68 C 414.39 587.14 419.46 585.22 424.19 582.62 C 415.57 580.63 408.69 574.18 404.53 566.58 C 399.85 558.10 395.26 548.89 395.80 538.94 C 395.85 529.92 400.10 521.52 405.77 514.73 C 402.18 515.18 398.53 515.20 394.99 515.99 M 690.61 524.86 C 691.82 535.83 694.33 547.08 700.91 556.19 C 703.72 550.50 706.67 544.88 709.53 539.22 C 706.26 531.72 703.21 524.12 700.01 516.59 C 696.82 519.28 693.70 522.06 690.61 524.86 M 598.82 520.93 C 599.75 523.82 603.29 523.82 605.69 524.58 C 604.66 522.46 603.62 520.37 602.53 518.30 C 601.04 518.85 598.85 518.83 598.82 520.93 M 353.66 530.65 C 359.93 527.78 366.84 526.99 373.51 525.54 C 373.96 524.24 374.41 522.96 374.86 521.68 C 369.16 521.10 363.42 520.89 357.72 520.31 C 356.28 523.72 354.98 527.19 353.66 530.65 M 381.16 522.17 C 379.84 522.87 379.84 523.54 381.15 524.20 C 382.46 523.49 382.47 522.81 381.16 522.17 M 403.07 549.37 C 402.65 555.78 406.17 562.08 410.03 567.12 C 421.20 555.34 432.17 543.29 444.66 532.86 C 442.22 529.50 439.71 526.18 437.10 522.94 C 425.29 531.12 413.80 539.82 403.07 549.37 M 748.66 526.96 C 742.64 536.58 735.81 545.73 730.34 555.68 C 732.61 559.29 735.44 562.53 738.37 565.61 C 740.90 568.14 743.40 570.97 746.92 572.10 C 754.45 574.86 761.16 579.36 767.93 583.57 C 775.70 576.93 784.58 571.71 793.50 566.79 C 778.94 553.10 763.70 540.13 748.66 526.96 M 362.94 532.20 C 359.53 532.75 355.92 533.39 353.35 535.91 C 356.39 540.05 361.98 538.72 366.42 538.90 C 371.26 539.24 376.11 539.37 380.96 539.13 C 381.30 536.25 381.91 533.41 382.64 530.62 C 376.02 530.34 369.47 531.31 362.94 532.20 M 541.53 594.96 C 542.23 602.65 541.99 610.49 543.76 618.04 C 559.05 586.29 584.48 560.24 613.81 541.11 C 611.45 537.16 606.47 536.61 602.82 534.35 C 582.20 554.36 561.32 574.12 541.53 594.96 M 327.42 535.61 C 324.28 539.42 320.92 543.04 317.67 546.76 C 317.38 547.38 316.81 548.63 316.52 549.26 C 321.79 546.52 327.04 543.74 332.11 540.67 C 330.56 538.96 329.03 537.25 327.42 535.61 M 678.99 538.36 C 679.78 540.23 680.68 542.07 681.64 543.87 C 681.05 541.93 681.15 539.30 678.99 538.36 M 326.86 561.02 C 336.50 574.20 345.79 587.74 352.81 602.54 C 356.68 600.61 360.59 598.76 364.54 597.02 C 355.25 577.71 345.27 558.54 332.41 541.33 C 329.73 547.63 328.56 554.42 326.86 561.02 M 345.60 552.13 C 350.08 558.93 354.22 565.94 358.20 573.04 C 361.24 563.20 363.90 553.25 367.43 543.58 C 362.03 543.14 356.64 543.90 351.25 544.04 C 350.90 543.38 350.20 542.07 349.86 541.42 C 348.29 544.93 347.03 548.56 345.60 552.13 M 420.62 575.53 C 420.89 575.50 421.44 575.46 421.71 575.43 C 435.27 569.35 448.85 563.05 460.99 554.38 C 457.79 550.37 454.79 546.21 451.69 542.13 C 439.91 551.86 430.06 563.60 420.62 575.53 M 374.44 543.40 C 371.02 554.89 367.41 566.33 364.24 577.90 C 370.54 572.25 376.66 566.42 382.96 560.78 C 381.28 555.31 380.47 549.60 380.72 543.87 C 378.63 543.69 376.53 543.56 374.44 543.40 M 539.68 545.23 C 539.76 549.31 539.78 553.40 540.11 557.48 C 541.94 552.97 542.70 548.14 544.18 543.52 C 542.67 544.09 541.18 544.66 539.68 545.23 M 607.98 553.81 C 609.59 557.81 611.47 561.72 613.10 565.72 C 616.53 564.69 619.92 563.52 623.26 562.23 C 621.47 558.72 619.84 555.13 618.23 551.54 C 614.84 552.43 611.37 552.92 607.98 553.81 M 304.12 561.22 C 303.01 570.28 303.33 579.53 304.12 588.61 C 305.38 612.48 311.70 635.83 319.52 658.34 C 326.53 676.82 332.28 695.79 340.16 713.94 C 348.37 733.04 359.51 750.68 370.84 768.05 C 380.31 782.22 390.49 795.88 400.92 809.35 C 407.76 809.39 414.60 809.76 421.45 809.72 C 412.11 798.80 403.77 787.07 396.18 774.88 C 372.17 737.01 355.19 695.33 337.67 654.21 C 330.89 637.82 323.75 621.42 319.97 604.01 C 316.37 587.37 315.25 569.47 321.66 553.35 C 315.86 556.07 310.05 558.80 304.12 561.22 M 583.02 573.45 C 587.57 587.94 592.23 602.42 597.74 616.57 C 601.63 613.09 605.90 610.05 609.79 606.57 C 604.03 592.09 599.81 576.94 595.25 562.01 C 591.21 565.87 587.20 569.76 583.02 573.45 M 449.57 570.22 C 453.78 568.27 458.21 566.71 462.21 564.33 C 460.16 564.14 458.11 564.05 456.07 563.97 C 453.68 565.81 451.27 567.69 449.57 570.22 M 371.82 578.02 C 372.52 583.04 373.45 588.03 374.03 593.06 C 379.32 593.70 384.62 594.16 389.92 594.58 C 391.95 591.35 394.02 588.15 396.16 584.99 C 391.55 578.95 387.50 572.45 384.64 565.40 C 380.15 569.38 376.09 573.81 371.82 578.02 M 725.45 565.64 C 723.02 569.46 720.28 573.06 717.73 576.80 C 715.81 579.05 717.68 581.93 718.89 584.05 C 725.36 593.88 735.32 600.60 744.92 607.05 C 750.15 601.46 755.54 596.04 760.59 590.30 C 747.69 584.00 735.19 576.33 725.45 565.64 M 325.74 596.12 C 327.52 590.23 329.01 584.26 330.78 578.36 C 329.01 575.61 327.40 572.77 325.71 569.97 C 324.18 578.55 324.24 587.53 325.74 596.12 M 621.96 572.84 C 616.84 574.91 611.31 573.08 606.04 572.88 C 610.15 581.22 614.35 589.52 618.81 597.68 C 623.16 592.62 628.02 588.06 632.74 583.37 C 630.72 579.25 628.95 575.03 627.03 570.87 C 625.35 571.55 623.67 572.26 621.96 572.84 M 446.38 584.40 C 411.52 600.04 376.79 616.15 343.58 635.12 C 345.31 641.57 346.91 648.06 348.73 654.49 C 386.73 632.46 426.09 612.75 466.57 595.70 C 466.55 588.93 467.10 582.18 467.18 575.42 C 460.15 578.18 453.32 581.42 446.38 584.40 M 756.45 607.43 C 746.57 617.47 738.26 628.86 729.13 639.55 C 733.25 647.81 737.21 656.16 741.67 664.24 C 749.66 646.73 759.32 629.70 772.42 615.47 C 780.86 606.65 788.73 597.19 798.57 589.86 C 796.82 585.00 794.96 580.18 793.20 575.32 C 779.36 584.07 767.85 595.83 756.45 607.43 M 265.72 590.00 C 269.44 603.00 277.47 614.20 285.87 624.59 C 290.97 622.62 296.20 621.01 301.32 619.10 C 295.89 617.27 291.21 613.72 287.85 609.09 C 280.96 599.72 277.36 588.04 277.02 576.47 C 273.12 580.87 269.50 585.49 265.72 590.00 M 333.71 584.27 C 331.65 589.72 329.73 595.23 327.60 600.66 C 326.28 603.41 327.82 606.31 328.38 609.05 C 334.20 607.24 340.00 605.34 345.74 603.29 C 341.76 597.10 338.25 590.61 334.38 584.36 C 334.21 584.34 333.88 584.29 333.71 584.27 M 561.22 599.31 C 558.15 602.72 557.39 607.43 557.47 611.86 C 565.74 612.09 574.01 612.28 582.28 612.63 C 581.25 605.58 580.23 598.54 579.33 591.48 C 572.76 592.26 565.67 594.02 561.22 599.31 M 585.41 627.52 C 574.13 630.69 561.81 630.76 550.65 627.02 C 557.11 635.22 565.49 642.70 575.99 644.92 C 585.73 647.36 595.50 643.28 604.00 638.82 C 614.33 633.05 624.34 625.92 631.05 615.98 C 634.69 610.75 637.27 604.87 639.48 598.92 C 638.57 596.74 637.64 594.57 636.70 592.42 C 622.65 607.88 605.18 620.50 585.41 627.52 M 211.89 658.19 C 212.54 659.15 213.31 660.06 213.96 661.05 C 218.75 659.04 222.99 655.91 227.67 653.64 C 244.86 644.75 262.24 636.00 280.62 629.82 C 272.60 619.05 265.22 607.36 262.44 594.03 C 245.18 615.09 228.48 636.60 211.89 658.19 M 711.72 604.80 C 713.70 608.37 715.41 612.08 717.23 615.74 C 719.87 613.08 722.40 610.31 725.10 607.71 C 724.97 604.42 725.00 599.52 721.06 598.46 C 717.04 598.77 714.16 601.92 711.72 604.80 M 332.92 620.13 C 335.48 624.84 338.33 629.42 341.76 633.55 C 357.41 621.84 374.21 611.80 391.16 602.11 C 371.63 607.67 352.30 614.02 332.92 620.13 M 450.29 610.43 C 438.64 626.59 427.24 642.94 416.94 659.99 C 407.20 675.51 397.72 691.19 388.90 707.24 C 391.97 712.28 395.12 717.27 398.44 722.16 C 407.62 705.73 416.77 689.28 425.64 672.68 C 434.44 655.94 443.43 639.26 450.68 621.78 C 452.13 617.77 454.08 613.67 453.66 609.30 C 452.27 607.94 451.14 609.25 450.29 610.43 M 458.97 617.06 C 461.51 619.94 463.77 623.03 465.87 626.24 C 465.98 620.77 466.12 615.30 466.25 609.83 C 463.80 612.22 461.41 614.67 458.97 617.06 M 721.63 625.11 C 722.26 626.10 722.93 627.10 723.60 628.09 C 725.31 624.96 727.33 622.01 728.96 618.84 C 726.30 620.66 724.00 622.94 721.63 625.11 M 639.59 624.13 C 640.07 628.83 640.61 633.53 641.16 638.23 C 645.24 637.02 649.32 635.84 653.44 634.78 C 652.14 630.51 650.55 626.35 648.96 622.19 C 645.85 622.89 642.73 623.56 639.59 624.13 M 404.16 632.52 C 405.49 634.86 406.76 637.24 408.01 639.64 C 415.19 635.18 421.53 629.58 427.88 624.06 C 419.75 626.13 411.78 629.00 404.16 632.52 M 215.66 663.15 C 216.55 669.76 217.81 676.31 218.71 682.91 C 248.74 669.93 279.00 657.43 309.99 646.88 C 307.98 641.12 306.15 635.30 304.82 629.35 C 274.62 639.27 244.77 650.36 215.66 663.15 M 454.26 630.84 C 453.60 635.91 453.84 641.03 453.24 646.11 C 457.14 650.21 460.81 654.55 464.92 658.46 C 464.57 652.22 464.17 645.90 462.27 639.91 C 461.11 635.84 458.23 632.39 454.26 630.84 M 606.82 644.12 C 611.36 659.22 615.79 674.41 622.18 688.86 C 629.00 704.86 637.40 720.19 647.58 734.30 C 650.80 731.44 653.81 728.35 657.12 725.58 C 652.05 713.25 646.94 700.94 642.34 688.43 C 635.18 670.21 629.37 651.51 622.99 633.01 C 617.63 636.76 612.21 640.42 606.82 644.12 M 378.86 644.79 C 385.14 658.45 389.17 672.99 393.71 687.28 C 397.63 679.87 401.34 672.31 405.49 665.01 C 402.55 655.29 399.82 645.42 395.16 636.35 C 389.66 639.04 384.19 641.78 378.86 644.79 M 759.56 650.04 C 767.47 663.66 781.01 672.63 794.24 680.51 C 799.07 674.81 803.83 669.04 808.47 663.18 C 798.31 659.68 788.08 655.94 779.03 650.04 C 774.21 646.72 769.23 642.72 767.63 636.82 C 764.89 641.19 762.31 645.67 759.56 650.04 M 411.95 647.38 C 412.51 648.69 413.05 650.00 413.61 651.33 C 415.89 647.48 418.30 643.70 420.77 639.97 C 417.43 641.94 414.91 644.94 411.95 647.38 M 640.16 651.87 C 642.30 656.45 644.86 660.82 647.05 665.38 C 652.21 663.96 657.29 662.25 662.11 659.92 C 660.24 654.61 658.66 649.21 656.88 643.88 C 651.34 646.62 645.64 649.03 640.16 651.87 M 570.69 662.24 C 568.86 662.36 567.05 662.51 565.24 662.65 C 565.39 672.64 565.73 682.63 565.78 692.62 C 566.98 691.94 568.19 691.27 569.39 690.60 C 581.20 683.32 591.07 673.44 601.63 664.53 C 601.61 659.26 601.07 654.01 600.94 648.75 C 591.02 653.61 581.12 658.58 570.69 662.24 M 545.76 653.01 C 546.97 674.69 548.35 696.39 549.14 718.10 L 549.38 717.92 C 549.13 723.18 549.44 728.48 550.24 733.68 C 551.16 743.78 552.61 753.88 553.34 764.02 C 562.54 748.56 564.68 729.55 561.97 711.97 C 558.84 691.78 552.91 672.12 545.76 653.01 M 435.57 674.12 C 448.37 685.57 454.22 702.52 457.41 718.94 C 458.40 723.14 458.21 727.57 459.46 731.70 C 460.31 746.55 460.41 761.45 459.43 776.31 C 460.65 775.09 462.06 773.89 461.76 771.98 C 462.42 759.58 462.56 747.15 462.77 734.73 C 463.36 733.11 463.26 731.31 462.95 729.66 C 463.36 720.00 463.74 710.32 463.68 700.66 C 464.62 691.62 464.11 682.34 464.69 673.22 C 459.05 666.86 452.07 661.89 444.92 657.38 C 441.79 662.95 438.79 668.60 435.57 674.12 M 282.18 682.20 C 268.96 693.20 256.15 704.68 243.13 715.91 C 246.05 718.50 248.96 721.10 251.81 723.76 C 272.08 707.74 292.64 692.09 312.97 676.14 C 311.96 670.52 311.56 664.82 311.14 659.14 C 301.00 666.20 291.67 674.31 282.18 682.20 M 348.05 664.92 C 355.15 680.08 361.98 695.42 370.31 709.95 C 368.71 692.26 364.55 674.70 356.75 658.68 C 353.81 660.71 350.92 662.80 348.05 664.92 M 289.31 663.11 C 288.63 665.10 287.94 667.08 287.27 669.08 C 290.89 666.34 294.71 663.89 298.29 661.11 C 295.23 661.44 292.25 662.21 289.31 663.11 M 609.85 668.57 C 610.63 667.46 610.08 665.52 608.88 664.95 C 606.71 665.28 607.78 669.52 609.85 668.57 M 217.62 693.18 C 218.31 698.16 220.81 702.89 222.13 707.81 C 228.15 725.21 234.90 742.37 242.56 759.11 C 244.48 754.54 246.49 750.02 248.47 745.48 C 249.23 744.09 249.25 742.54 248.87 741.06 C 250.79 737.01 253.05 733.13 255.05 729.13 C 254.19 729.74 253.34 730.35 252.50 730.98 C 244.96 727.78 237.67 724.04 230.08 720.97 C 243.88 706.75 258.05 692.88 273.32 680.24 C 276.43 675.95 277.25 670.39 279.46 665.60 C 257.87 672.31 236.86 681.25 217.62 693.18 M 190.08 687.06 C 195.18 705.96 198.75 725.30 205.16 743.84 C 211.92 764.44 221.80 783.81 231.81 802.98 C 237.30 800.73 242.65 798.17 248.07 795.75 C 237.48 772.64 229.17 748.58 221.36 724.42 C 215.60 705.85 209.45 687.39 203.98 668.73 C 199.23 674.75 194.69 680.94 190.08 687.06 M 656.69 673.70 C 655.22 674.53 654.82 676.10 654.72 677.69 C 658.22 674.57 662.44 672.25 665.44 668.61 C 662.13 669.53 659.37 671.65 656.69 673.70 M 745.51 672.08 C 752.98 687.33 760.71 702.47 768.32 717.66 C 771.75 723.93 774.43 730.68 778.34 736.66 C 787.80 743.12 799.81 744.76 811.04 744.73 C 808.57 742.53 805.81 740.69 803.12 738.79 C 779.15 721.12 758.11 697.52 749.63 668.43 C 748.18 669.56 746.71 670.67 745.51 672.08 M 757.81 671.90 C 759.47 676.03 762.06 679.73 765.05 683.01 C 770.66 689.02 776.59 694.74 782.97 699.94 C 786.69 695.26 790.52 690.66 794.22 685.96 C 781.05 684.81 768.33 679.91 757.81 671.90 M 371.41 672.99 C 372.47 680.02 374.54 686.84 375.70 693.86 C 378.13 705.98 379.81 718.25 381.76 730.45 C 384.51 736.32 388.29 741.66 391.40 747.35 C 392.73 746.18 394.05 745.01 395.39 743.86 C 387.49 720.21 379.59 696.54 371.41 672.99 M 659.26 680.49 C 659.20 683.09 661.54 685.24 661.87 687.87 C 660.00 692.26 657.68 696.46 655.72 700.82 C 656.93 705.90 657.82 711.15 660.09 715.91 C 662.73 721.48 667.16 726.13 672.50 729.19 C 672.15 729.56 671.44 730.31 671.08 730.68 C 676.10 732.19 681.23 733.30 686.30 734.51 C 681.16 739.28 675.75 743.78 670.73 748.68 C 672.40 749.08 674.12 749.78 675.90 749.39 C 681.20 748.59 686.41 747.19 691.44 745.32 C 680.25 722.98 673.34 698.87 666.46 674.94 C 664.10 676.85 661.53 678.48 659.26 680.49 M 426.53 682.05 C 430.32 686.64 434.61 690.94 439.84 693.90 C 437.52 688.84 434.77 683.97 431.83 679.25 C 431.10 679.05 429.64 678.66 428.92 678.47 C 428.12 679.66 427.32 680.85 426.53 682.05 M 805.84 680.87 C 803.74 686.29 801.82 691.84 798.76 696.83 C 795.13 703.09 789.79 708.12 784.21 712.64 C 786.56 714.70 788.87 716.81 791.13 718.99 C 799.81 714.14 808.82 708.92 814.66 700.64 C 818.53 695.04 818.57 687.54 815.22 681.70 C 812.08 681.53 808.95 681.22 805.84 680.87 M 566.89 709.38 C 567.36 712.07 567.87 714.77 568.33 717.47 C 571.42 717.41 574.52 717.46 577.61 717.61 C 585.33 707.01 593.10 696.45 600.87 685.89 C 589.28 693.31 578.60 702.14 566.89 709.38 M 277.43 711.53 C 273.83 714.54 269.49 716.85 266.85 720.85 C 262.41 727.20 257.88 733.49 253.43 739.83 C 256.22 744.97 258.51 750.36 261.47 755.41 C 276.77 733.46 292.00 711.47 306.67 689.10 C 296.60 696.12 287.24 704.14 277.43 711.53 M 603.68 701.70 C 596.53 708.64 589.17 715.79 584.86 724.93 C 580.47 734.23 578.81 744.56 578.28 754.75 C 581.88 760.13 586.01 765.11 590.22 770.02 C 598.80 748.27 610.59 727.81 624.41 708.98 C 621.11 702.75 618.17 696.34 615.55 689.80 C 611.54 693.71 607.75 697.85 603.68 701.70 M 314.08 695.67 C 310.47 700.89 306.90 706.14 303.18 711.28 C 308.00 716.58 311.43 722.86 314.40 729.33 C 315.29 726.10 315.84 722.80 316.39 719.51 C 323.36 733.60 325.15 750.01 321.26 765.23 C 320.51 772.13 320.99 779.12 320.25 786.04 L 320.10 786.21 C 319.32 796.01 317.87 805.74 316.59 815.49 C 324.73 808.86 331.68 800.63 336.03 791.02 C 341.79 778.22 344.09 764.05 344.19 750.08 C 343.99 743.51 344.34 736.30 340.47 730.61 C 336.47 724.08 333.58 716.95 329.78 710.32 C 325.42 704.61 319.89 699.85 314.08 695.67 M 180.18 700.00 C 178.82 700.78 178.75 701.48 179.95 702.11 C 181.31 701.32 181.39 700.61 180.18 700.00 M 403.87 725.92 C 407.96 742.83 409.56 760.20 410.73 777.52 C 412.79 782.02 416.26 785.80 418.75 790.11 C 419.63 790.98 419.94 792.99 421.46 792.89 C 424.40 782.56 425.81 771.79 425.25 761.04 C 424.33 741.25 419.95 721.82 415.18 702.65 C 411.48 710.44 407.37 718.03 403.87 725.92 M 433.20 713.28 C 432.58 723.19 431.54 733.08 430.96 743.00 C 438.43 739.91 445.31 735.56 451.92 730.95 C 450.64 724.25 448.94 717.65 446.88 711.15 C 442.38 712.21 437.87 713.45 433.20 713.28 M 279.17 739.20 C 272.54 749.16 266.61 759.54 260.48 769.81 C 258.53 764.80 256.59 759.79 254.20 754.98 C 252.57 758.56 250.82 762.07 249.03 765.58 C 255.32 772.51 261.86 779.37 269.79 784.45 C 274.61 781.43 279.45 778.43 283.96 774.95 C 294.29 767.21 302.52 756.84 308.32 745.35 C 309.12 744.01 309.21 742.45 308.64 741.03 C 305.93 731.42 302.19 722.12 297.71 713.20 C 290.72 721.25 285.12 730.37 279.17 739.20 M 628.02 720.00 C 632.40 729.21 638.88 737.42 646.84 743.80 L 646.72 743.97 C 649.74 746.48 652.77 749.00 655.95 751.32 C 658.53 750.93 661.81 752.00 663.77 749.77 C 667.61 745.88 671.50 742.03 675.24 738.05 C 671.42 736.63 667.93 734.35 664.07 733.15 C 658.35 735.25 652.91 738.04 647.22 740.23 L 647.09 741.30 C 646.15 740.40 645.08 739.66 644.31 738.62 C 639.15 731.97 634.12 725.20 629.73 718.02 C 629.15 718.67 628.58 719.33 628.02 720.00 M 611.20 742.27 C 607.94 748.41 605.85 755.12 604.39 761.90 C 610.54 774.75 618.06 786.96 627.12 797.97 C 628.84 799.89 630.49 802.10 633.00 803.05 C 640.28 806.08 648.25 807.33 656.11 807.03 C 644.10 795.28 633.58 781.85 626.25 766.67 C 625.18 764.25 623.57 762.14 621.76 760.25 C 618.00 756.26 615.18 751.54 612.44 746.84 C 614.60 747.35 616.77 747.87 618.95 748.32 C 617.82 744.67 616.93 740.96 616.10 737.25 C 614.17 738.60 612.27 740.11 611.20 742.27 M 316.67 740.86 C 306.66 758.08 294.74 774.48 279.49 787.46 C 269.36 795.72 257.51 801.46 245.58 806.61 C 229.07 813.70 211.35 817.39 193.68 820.13 C 206.12 827.95 220.69 833.26 235.55 832.43 C 250.75 830.67 264.00 822.04 275.87 812.93 C 275.61 806.91 276.77 800.99 278.10 795.16 C 280.29 798.18 282.40 801.27 284.47 804.39 C 289.69 799.56 293.98 793.81 298.08 788.03 C 308.05 774.13 313.65 757.56 316.67 740.86 M 429.37 754.85 C 432.95 769.52 430.80 785.18 424.79 798.92 C 427.63 802.99 430.56 807.01 433.29 811.18 C 434.06 808.41 434.84 805.66 435.69 802.92 C 441.60 815.34 449.95 826.41 459.25 836.47 C 460.19 817.35 460.76 798.22 461.78 779.11 C 459.00 780.99 455.96 782.44 452.83 783.65 C 453.56 777.10 454.00 770.52 454.34 763.94 C 454.74 756.32 453.77 748.74 453.46 741.14 C 445.67 746.11 437.56 750.55 429.37 754.85 M 624.06 741.74 C 624.92 744.45 625.86 747.19 627.47 749.55 C 630.00 751.02 633.19 750.48 636.03 750.73 C 631.69 748.20 628.05 744.75 624.06 741.74 M 672.09 755.52 C 655.69 758.31 638.78 756.70 622.78 752.45 C 628.89 761.24 637.97 769.10 649.01 770.18 C 665.90 771.15 682.29 764.24 695.40 753.96 C 694.49 751.93 693.56 749.92 692.65 747.90 C 686.16 751.31 679.36 754.28 672.09 755.52 M 351.27 749.32 C 350.92 758.10 349.57 766.82 347.45 775.35 C 345.96 780.89 344.81 786.65 345.09 792.40 C 344.63 795.42 344.64 798.50 345.10 801.53 C 345.01 804.21 345.71 807.44 347.96 809.16 C 350.95 809.15 352.47 806.03 353.89 803.86 C 359.11 794.33 364.64 784.83 367.88 774.40 C 362.08 766.21 356.69 757.76 351.27 749.32 M 397.43 757.08 C 400.07 761.19 402.32 765.58 405.47 769.34 C 404.26 764.55 403.59 759.28 400.21 755.44 C 399.51 755.85 398.12 756.67 397.43 757.08 M 580.20 763.19 C 579.23 773.62 580.11 785.35 587.50 793.46 C 598.74 805.34 614.90 811.77 631.03 813.07 C 633.85 813.18 636.78 813.63 639.52 812.71 C 644.50 812.97 649.33 811.55 654.25 811.02 C 654.38 810.73 654.63 810.15 654.76 809.85 C 652.04 809.85 649.32 809.72 646.62 809.45 C 634.61 807.02 622.09 804.42 612.01 797.04 C 599.34 787.94 588.94 776.03 580.20 763.19 M 177.85 765.98 C 166.59 781.43 153.77 796.02 138.18 807.23 C 119.11 820.05 96.42 826.23 73.98 829.91 C 70.71 830.84 68.42 833.89 64.97 834.45 C 63.97 833.90 62.99 833.33 62.03 832.73 C 58.97 833.80 55.91 834.87 52.81 835.84 C 63.59 842.92 75.96 848.38 89.05 848.55 C 104.03 847.97 117.82 840.99 130.34 833.27 C 130.83 827.29 132.43 821.48 134.38 815.83 C 136.14 819.22 137.98 822.57 139.89 825.88 C 147.33 819.33 154.35 812.21 160.27 804.24 C 168.08 792.55 174.67 779.71 177.85 765.98 M 598.84 767.73 C 598.02 770.53 597.12 773.30 596.18 776.07 C 599.71 779.49 603.38 782.77 607.11 785.99 C 604.08 780.03 601.08 774.00 598.84 767.73 M 658.95 774.84 C 654.88 778.42 650.80 782.01 646.19 784.89 C 648.36 787.17 650.48 789.51 652.63 791.83 C 663.85 786.44 677.93 781.17 681.79 768.01 C 674.39 770.97 666.71 773.14 658.95 774.84 M 252.37 780.81 C 254.03 784.23 255.70 787.65 257.27 791.12 C 259.13 790.24 260.97 789.33 262.82 788.46 C 259.22 786.07 255.72 783.53 252.37 780.81 M 303.42 795.97 C 306.88 795.84 310.34 795.52 313.76 794.94 C 313.84 790.55 314.28 786.18 314.33 781.79 C 310.56 786.41 307.33 791.44 303.42 795.97 M 552.94 816.00 C 553.40 821.90 553.41 827.83 553.77 833.75 C 559.10 829.54 563.84 824.05 565.42 817.30 C 567.35 809.30 566.43 800.84 564.09 793.04 C 561.35 801.11 558.54 809.40 552.94 816.00 M 281.77 806.64 C 281.35 813.79 281.17 821.25 283.95 828.01 C 285.73 832.80 288.95 836.94 292.87 840.19 C 307.08 852.28 326.37 857.79 344.85 855.77 C 348.99 854.83 353.34 854.73 357.28 853.04 C 354.50 852.83 351.71 852.81 348.93 852.63 C 338.57 850.49 327.96 848.40 318.60 843.27 C 306.96 836.34 297.39 826.47 288.92 816.01 C 286.35 813.02 284.50 809.44 281.77 806.64 M 653.19 816.61 C 658.62 818.00 664.14 819.09 669.76 819.41 C 666.82 816.76 663.87 814.12 660.91 811.51 C 658.36 813.25 655.63 814.74 653.19 816.61 M 438.14 814.77 C 436.32 823.73 435.93 833.51 440.06 841.93 C 443.94 849.76 451.29 854.98 458.30 859.81 C 458.52 855.20 458.73 850.59 458.96 845.98 C 459.42 843.98 457.49 842.81 456.46 841.43 C 449.12 833.45 443.30 824.26 438.14 814.77 M 627.78 822.98 C 626.19 829.60 621.25 834.97 615.57 838.47 C 606.69 843.64 596.26 844.87 586.27 846.29 C 590.29 849.80 595.88 850.07 600.94 850.51 C 607.12 850.82 613.48 851.00 619.50 849.35 C 624.66 846.71 628.32 841.64 630.24 836.26 C 632.15 830.80 630.84 824.99 629.35 819.62 C 628.41 820.51 628.09 821.75 627.78 822.98 M 366.15 826.76 C 365.54 832.82 365.70 839.05 367.44 844.92 C 368.75 849.04 370.63 853.34 374.43 855.74 C 377.99 858.04 382.79 859.73 386.88 857.79 C 392.28 855.43 397.77 853.29 403.17 850.93 C 389.86 844.54 376.34 837.73 366.15 826.76 M 140.12 856.90 C 145.97 865.81 155.28 871.81 164.74 876.32 C 177.82 882.70 192.91 884.31 207.17 881.84 C 195.39 879.31 183.65 875.84 173.16 869.77 C 164.93 865.00 158.34 857.98 152.28 850.75 C 146.28 843.62 141.31 835.66 137.17 827.33 C 134.72 837.04 134.77 848.11 140.12 856.90 M 251.53 836.75 C 252.71 838.53 253.76 840.42 255.12 842.10 C 261.85 843.22 268.68 843.82 275.48 844.50 C 272.01 839.47 268.71 834.32 265.36 829.22 C 261.04 832.23 256.26 834.47 251.53 836.75 M 416.94 847.38 C 412.34 856.58 406.48 866.81 395.86 869.77 C 385.16 872.42 373.56 873.64 362.91 870.10 C 370.56 875.76 378.58 881.41 387.91 883.83 C 401.75 888.14 416.83 876.63 418.93 862.87 C 420.34 856.26 419.75 849.47 419.02 842.83 C 418.33 844.35 417.34 845.72 416.94 847.38 M 626.51 855.74 C 625.14 865.33 627.87 874.84 631.19 883.73 C 635.75 895.71 642.03 906.94 648.50 917.97 C 651.78 913.34 654.80 908.55 658.03 903.89 C 648.04 887.16 639.72 869.44 633.46 850.99 C 631.17 852.61 628.86 854.20 626.51 855.74 M 348.63 861.82 C 357.13 863.26 365.68 864.49 374.29 865.01 C 370.00 862.03 366.23 858.33 363.60 853.80 C 359.06 857.28 353.93 859.75 348.63 861.82 Z" />
<path fill="#a16121" opacity="1.00" d=" M 523.43 10.64 C 529.93 9.65 537.32 9.99 542.66 14.28 C 546.99 17.81 547.72 23.70 548.51 28.88 C 548.97 33.44 549.12 39.07 545.33 42.35 C 539.51 45.86 532.52 46.65 525.88 47.26 C 520.51 47.35 514.18 48.12 509.89 44.14 C 505.20 39.81 502.61 33.36 502.42 27.04 C 502.37 22.46 506.00 19.03 509.52 16.66 C 513.71 13.79 518.36 11.40 523.43 10.64 M 517.86 24.15 C 518.95 24.51 520.20 26.47 521.46 25.42 C 523.85 24.08 525.79 21.03 528.85 21.57 C 531.46 23.07 533.24 25.64 535.57 27.51 C 534.11 23.71 532.34 19.43 528.75 17.22 C 524.17 17.14 520.61 20.90 517.86 24.15 M 538.34 36.29 C 534.74 37.95 530.46 37.30 526.73 36.45 C 521.46 35.20 519.35 29.69 516.12 25.98 C 518.09 31.48 520.40 39.06 527.33 39.62 C 532.17 40.06 538.03 41.28 542.23 38.23 C 544.45 33.69 543.00 28.37 542.29 23.61 C 540.35 27.60 541.29 32.74 538.34 36.29 Z" />
<path fill="#020100" opacity="1.00" d=" M 517.86 24.15 C 520.61 20.90 524.17 17.14 528.75 17.22 C 532.34 19.43 534.11 23.71 535.57 27.51 C 533.24 25.64 531.46 23.07 528.85 21.57 C 525.79 21.03 523.85 24.08 521.46 25.42 C 520.20 26.47 518.95 24.51 517.86 24.15 Z" />
<path fill="#000000" opacity="1.00" d=" M 538.34 36.29 C 541.29 32.74 540.35 27.60 542.29 23.61 C 543.00 28.37 544.45 33.69 542.23 38.23 C 538.03 41.28 532.17 40.06 527.33 39.62 C 520.40 39.06 518.09 31.48 516.12 25.98 C 519.35 29.69 521.46 35.20 526.73 36.45 C 530.46 37.30 534.74 37.95 538.34 36.29 Z" />
<path fill="#a16121" opacity="1.00" d=" M 497.02 35.64 C 501.56 43.68 508.28 51.44 517.74 53.40 C 529.17 55.43 540.28 50.25 549.64 44.20 C 549.67 61.83 549.08 79.47 548.74 97.09 C 548.38 96.59 547.64 95.59 547.27 95.09 C 547.43 106.85 546.03 118.74 547.88 130.41 C 548.57 140.91 547.61 151.44 547.54 161.95 C 546.99 213.32 544.96 264.65 543.66 316.00 C 542.22 366.34 540.58 416.66 540.09 467.02 C 539.83 478.79 539.20 490.58 539.68 502.35 L 539.66 503.43 C 539.63 503.61 539.57 503.97 539.53 504.15 C 539.18 503.90 538.48 503.42 538.13 503.18 C 538.60 510.57 537.00 518.20 539.06 525.41 C 539.12 525.64 539.24 526.10 539.30 526.34 L 539.31 526.84 C 538.76 679.00 544.01 831.13 553.00 983.01 C 552.97 985.35 553.89 988.12 552.05 990.05 C 544.87 999.36 535.67 1008.23 523.82 1010.83 C 513.85 1013.22 503.40 1010.41 494.66 1005.47 C 482.58 998.66 472.62 988.74 463.56 978.37 C 462.00 976.49 459.49 974.71 460.43 971.92 C 462.72 954.18 463.52 936.31 464.77 918.48 C 467.12 876.69 468.51 834.85 469.75 793.02 C 470.76 742.47 471.18 691.90 471.38 641.34 C 472.49 553.86 472.66 466.35 476.39 378.94 C 480.69 264.37 487.51 149.89 497.02 35.64 M 529.11 184.02 C 521.41 206.19 514.33 228.58 507.06 250.89 C 503.47 262.61 499.15 274.13 496.18 286.02 C 505.62 259.16 514.65 232.15 524.43 205.40 C 527.07 197.89 531.47 190.99 532.98 183.09 C 533.89 178.46 534.90 173.84 535.14 169.12 C 532.33 173.72 531.15 179.06 529.11 184.02 M 506.04 361.05 C 495.15 405.23 488.17 450.50 487.00 496.02 C 485.06 550.32 484.67 604.67 484.70 659.01 C 484.76 683.01 484.81 707.01 485.76 731.00 C 485.76 732.12 486.16 733.20 486.52 734.27 C 486.75 732.50 486.92 730.73 487.02 728.97 C 489.56 682.31 491.12 635.60 493.37 588.92 C 495.34 542.22 497.30 495.48 501.21 448.89 C 503.93 418.33 507.82 387.90 511.80 357.49 C 512.64 350.55 513.91 343.62 513.87 336.60 C 510.00 344.27 508.38 352.84 506.04 361.05 M 516.03 478.98 C 512.44 530.58 510.47 582.28 510.18 634.00 C 509.99 666.95 510.96 699.89 511.86 732.83 C 514.21 797.54 516.51 862.27 520.15 926.94 C 520.21 930.36 520.39 933.81 521.20 937.16 C 521.44 907.45 520.48 877.71 520.08 848.00 C 519.30 799.15 518.16 750.31 517.87 701.46 C 519.38 698.90 518.75 695.80 518.92 692.98 C 518.81 646.67 518.78 600.36 518.91 554.05 C 519.05 527.36 518.70 500.68 519.03 473.99 C 519.10 472.00 518.75 470.04 517.82 468.28 C 516.24 471.62 516.24 475.36 516.03 478.98 Z" />
<path fill="#a16121" opacity="1.00" d=" M 380.00 41.84 C 382.80 42.27 384.71 44.50 386.70 46.29 C 393.95 53.37 400.48 61.18 408.14 67.85 C 414.65 73.91 423.26 76.96 431.65 79.42 C 439.00 81.61 446.69 82.01 454.29 82.61 C 464.06 99.18 472.45 116.56 481.22 133.69 C 482.29 135.61 482.91 137.75 482.67 139.97 C 481.85 160.07 480.70 180.16 479.91 200.26 C 475.34 193.71 471.34 186.68 465.89 180.78 C 468.05 188.18 471.90 194.93 475.20 201.87 C 476.79 205.46 479.88 208.76 479.35 212.96 C 479.02 222.36 478.42 231.75 478.23 241.15 C 475.58 237.40 474.06 233.02 471.90 228.99 C 450.80 185.74 429.35 142.64 406.80 100.12 C 399.05 85.14 390.98 70.30 384.08 54.91 C 382.27 50.71 380.36 46.45 380.00 41.84 M 415.70 82.77 C 427.57 97.55 442.95 111.21 462.18 114.70 C 447.31 103.20 431.60 92.80 415.70 82.77 M 415.18 100.08 C 417.10 105.12 419.93 109.73 422.59 114.40 C 427.89 123.06 433.48 132.01 441.96 137.92 C 449.84 143.54 458.37 148.34 467.41 151.84 C 466.43 150.44 465.45 149.03 464.19 147.87 C 455.78 139.94 446.94 132.49 438.47 124.63 C 430.14 117.00 423.45 107.76 415.18 100.08 Z" />
<path fill="#a16121" opacity="1.00" d=" M 301.79 64.54 C 308.98 69.87 312.70 78.87 320.32 83.78 C 326.21 86.79 333.06 84.70 339.33 85.75 C 340.82 86.01 341.50 87.68 340.64 88.95 C 338.68 93.51 334.85 96.87 331.49 100.39 C 326.98 105.12 320.75 107.78 314.53 109.38 C 312.44 109.84 309.33 110.15 308.41 107.67 C 307.26 103.16 308.77 98.52 309.08 93.98 C 310.34 83.51 303.09 74.63 301.79 64.54 Z" />
<path fill="#020100" opacity="1.00" d=" M 415.70 82.77 C 431.60 92.80 447.31 103.20 462.18 114.70 C 442.95 111.21 427.57 97.55 415.70 82.77 Z" />
<path fill="#a16121" opacity="1.00" d=" M 347.13 93.23 C 347.88 92.18 348.27 90.01 350.02 90.48 C 355.20 90.55 359.93 93.08 364.20 95.80 C 382.27 108.53 396.21 126.13 408.90 144.02 C 420.09 159.27 430.72 174.92 442.11 190.02 C 444.25 192.83 446.63 195.51 448.23 198.69 C 457.69 217.78 466.98 236.95 476.41 256.05 C 468.24 264.07 459.85 271.84 451.69 279.87 C 402.02 225.95 353.96 170.55 306.74 114.48 C 314.74 116.33 323.59 115.95 330.82 111.76 C 337.82 107.24 343.50 100.72 347.13 93.23 M 382.07 140.86 C 387.88 149.83 395.69 157.29 402.58 165.41 C 411.92 175.47 420.56 186.13 429.31 196.69 C 432.52 200.26 435.37 204.21 439.11 207.27 C 431.81 193.50 423.29 180.40 414.62 167.47 C 407.85 157.08 398.37 148.63 387.60 142.56 C 385.92 141.50 383.99 141.15 382.07 140.86 Z" />
<path fill="#b86f25" opacity="1.00" d=" M 547.27 95.09 C 547.64 95.59 548.38 96.59 548.74 97.09 C 548.26 108.19 548.68 119.33 547.88 130.41 C 546.03 118.74 547.43 106.85 547.27 95.09 Z" />
<path fill="#000000" opacity="1.00" d=" M 415.18 100.08 C 423.45 107.76 430.14 117.00 438.47 124.63 C 446.94 132.49 455.78 139.94 464.19 147.87 C 465.45 149.03 466.43 150.44 467.41 151.84 C 458.37 148.34 449.84 143.54 441.96 137.92 C 433.48 132.01 427.89 123.06 422.59 114.40 C 419.93 109.73 417.10 105.12 415.18 100.08 Z" />
<path fill="#a16121" opacity="1.00" d=" M 652.68 132.64 C 659.38 130.41 665.77 127.25 672.67 125.62 C 671.76 128.75 668.58 130.23 666.38 132.35 C 662.00 136.29 656.81 139.74 654.04 145.09 C 651.05 151.57 653.98 158.82 652.27 165.54 C 647.34 165.46 643.65 161.84 640.15 158.81 C 634.48 153.85 630.25 147.20 628.27 139.93 C 627.77 137.70 627.54 134.17 630.40 133.51 C 637.76 132.01 645.47 135.27 652.68 132.64 Z" />
<path fill="#a16121" opacity="1.00" d=" M 598.72 153.70 C 606.90 146.59 614.64 138.95 623.04 132.11 C 621.77 139.57 621.56 147.71 625.51 154.45 C 630.22 163.47 639.30 168.90 648.21 173.10 C 648.32 177.08 647.47 181.05 645.60 184.57 C 641.34 192.92 635.14 200.09 628.82 206.94 C 618.85 217.75 607.12 226.70 595.44 235.54 C 579.43 247.89 563.03 259.73 547.43 272.59 C 547.61 267.81 547.75 263.02 548.20 258.26 C 557.93 252.10 567.51 245.67 576.69 238.72 C 583.19 233.92 588.31 227.55 592.82 220.91 C 595.38 216.97 598.01 212.95 599.18 208.34 C 596.85 209.54 594.65 210.98 592.73 212.76 C 577.67 226.10 563.83 240.76 548.17 253.42 C 549.40 235.13 549.82 216.79 550.73 198.49 C 550.85 197.51 551.32 196.72 552.12 196.10 C 567.50 181.80 583.12 167.75 598.72 153.70 Z" />
<path fill="#000000" opacity="1.00" d=" M 382.07 140.86 C 383.99 141.15 385.92 141.50 387.60 142.56 C 398.37 148.63 407.85 157.08 414.62 167.47 C 423.29 180.40 431.81 193.50 439.11 207.27 C 435.37 204.21 432.52 200.26 429.31 196.69 C 420.56 186.13 411.92 175.47 402.58 165.41 C 395.69 157.29 387.88 149.83 382.07 140.86 Z" />
<path fill="#020100" opacity="1.00" d=" M 529.11 184.02 C 531.15 179.06 532.33 173.72 535.14 169.12 C 534.90 173.84 533.89 178.46 532.98 183.09 C 531.47 190.99 527.07 197.89 524.43 205.40 C 514.65 232.15 505.62 259.16 496.18 286.02 C 499.15 274.13 503.47 262.61 507.06 250.89 C 514.33 228.58 521.41 206.19 529.11 184.02 Z" />
<path fill="#a16121" opacity="1.00" d=" M 427.47 265.88 C 433.63 272.40 439.65 279.06 445.53 285.84 C 431.12 299.33 417.49 313.64 403.14 327.18 C 411.01 306.66 419.39 286.32 427.47 265.88 Z" />
<path fill="#a16121" opacity="1.00" d=" M 387.92 355.95 C 416.74 325.37 446.81 295.99 477.03 266.80 C 476.31 287.54 475.29 308.27 474.71 329.01 C 474.44 331.22 475.03 333.78 473.86 335.75 C 425.87 384.61 381.08 436.49 336.31 488.28 C 313.96 514.29 291.70 540.38 269.74 566.72 C 242.47 599.89 216.03 633.72 189.62 667.58 C 166.15 698.02 141.78 727.75 117.73 757.73 C 101.47 777.85 85.27 798.00 68.98 818.09 C 61.09 818.09 52.78 818.00 45.53 821.53 C 41.60 823.65 41.99 829.10 38.67 831.75 C 35.66 832.08 33.23 829.72 31.03 828.00 C 23.59 821.22 17.48 813.15 11.54 805.07 C 26.05 793.50 38.22 779.38 50.34 765.42 C 63.15 750.45 75.16 734.81 86.82 718.93 C 97.87 704.12 108.55 689.03 118.48 673.45 C 129.19 657.25 137.37 639.55 144.51 621.54 C 158.66 585.08 166.20 545.02 159.40 506.10 C 173.33 509.16 185.87 500.16 195.31 491.01 C 198.29 496.84 199.18 503.43 199.63 509.88 C 201.57 527.06 194.39 543.54 193.96 560.58 C 194.79 559.50 195.72 558.47 196.18 557.17 C 200.04 547.36 202.99 537.16 207.66 527.68 C 209.03 525.18 210.31 522.28 213.00 520.95 C 214.32 521.13 214.89 522.54 215.47 523.58 C 217.42 527.56 218.46 532.14 221.56 535.47 C 224.09 538.09 228.36 536.90 230.85 534.82 C 236.17 530.53 240.45 525.16 244.84 519.97 C 256.31 505.74 267.28 491.12 278.77 476.92 C 289.91 463.07 301.81 449.86 313.63 436.59 C 337.94 409.29 362.69 382.39 387.92 355.95 M 435.75 333.79 C 422.58 351.95 410.20 370.70 396.36 388.37 C 372.12 418.08 346.23 446.42 322.10 476.21 C 326.29 473.46 329.40 469.45 333.07 466.09 C 359.67 439.33 385.89 412.17 411.22 384.20 C 423.95 370.45 434.64 354.64 441.42 337.11 C 442.87 333.08 444.42 328.95 444.19 324.59 C 440.62 326.89 438.24 330.46 435.75 333.79 M 179.55 528.14 C 175.00 547.84 173.32 568.10 168.62 587.78 C 164.49 603.06 156.51 616.89 150.54 631.45 C 151.55 630.49 152.63 629.57 153.37 628.39 C 161.27 616.10 168.86 603.60 175.61 590.64 C 176.94 588.12 177.89 585.42 178.68 582.70 C 180.71 576.31 179.61 569.53 179.99 562.96 C 180.50 552.98 180.69 542.99 180.38 533.00 C 180.34 531.34 179.88 529.74 179.55 528.14 M 247.78 555.81 C 229.15 577.55 211.21 599.87 192.79 621.79 C 168.71 649.20 143.23 675.69 123.41 706.49 C 119.19 713.24 114.09 719.64 111.62 727.32 C 113.89 726.14 115.80 724.42 117.41 722.46 C 151.18 684.14 183.94 644.92 216.31 605.41 C 222.44 597.47 228.32 589.35 234.25 581.26 C 241.69 570.28 249.79 559.62 255.72 547.72 C 252.60 549.91 250.32 553.01 247.78 555.81 Z" />
<path fill="#a16121" opacity="1.00" d=" M 546.60 288.43 C 548.05 287.25 549.52 286.07 550.98 284.89 C 568.36 324.46 585.53 364.11 603.60 403.36 C 637.96 476.60 674.18 548.94 710.90 621.01 C 736.08 670.35 761.56 719.54 787.82 768.32 C 806.90 803.92 826.52 839.24 847.06 874.03 C 841.95 882.58 835.67 890.86 826.86 895.87 C 820.83 899.40 813.75 900.14 806.96 901.02 C 800.82 901.72 794.51 900.10 789.48 896.52 C 782.43 891.56 777.15 884.57 772.33 877.54 C 758.41 856.72 747.36 834.20 735.82 812.03 C 723.25 787.16 710.55 762.34 698.98 736.98 C 692.02 721.64 685.67 706.05 679.52 690.37 C 672.58 672.46 667.17 654.02 661.13 635.80 C 650.07 601.40 635.93 568.09 620.46 535.46 C 595.78 482.50 569.81 430.14 544.46 377.51 C 544.81 369.20 545.84 360.75 544.21 352.51 C 543.53 347.03 544.56 341.53 544.67 336.04 C 545.19 320.17 546.10 304.30 546.60 288.43 M 663.64 564.48 C 663.54 569.20 665.67 573.52 667.21 577.87 C 673.28 593.19 680.70 607.93 688.77 622.28 C 706.95 655.57 725.75 688.52 744.77 721.33 C 749.50 729.11 753.70 737.28 759.15 744.58 C 755.31 734.55 750.03 725.14 745.47 715.43 C 721.23 666.40 696.74 617.39 668.32 570.60 C 666.99 568.39 665.46 566.30 663.64 564.48 M 670.85 622.26 C 676.18 635.72 683.43 648.34 689.74 661.37 C 704.91 691.44 720.52 721.29 735.75 751.33 C 746.39 771.96 756.60 792.82 767.81 813.16 C 773.22 822.77 778.92 832.39 786.53 840.45 C 787.84 841.97 789.59 842.96 791.51 843.57 C 791.25 840.80 790.64 838.08 789.48 835.55 C 785.78 827.09 781.37 818.95 777.16 810.73 C 744.45 748.83 710.97 687.28 674.62 627.42 C 673.55 625.56 672.24 623.87 670.85 622.26 Z" />
<path fill="#000000" opacity="1.00" d=" M 435.75 333.79 C 438.24 330.46 440.62 326.89 444.19 324.59 C 444.42 328.95 442.87 333.08 441.42 337.11 C 434.64 354.64 423.95 370.45 411.22 384.20 C 385.89 412.17 359.67 439.33 333.07 466.09 C 329.40 469.45 326.29 473.46 322.10 476.21 C 346.23 446.42 372.12 418.08 396.36 388.37 C 410.20 370.70 422.58 351.95 435.75 333.79 Z" />
<path fill="#000000" opacity="1.00" d=" M 506.04 361.05 C 508.38 352.84 510.00 344.27 513.87 336.60 C 513.91 343.62 512.64 350.55 511.80 357.49 C 507.82 387.90 503.93 418.33 501.21 448.89 C 497.30 495.48 495.34 542.22 493.37 588.92 C 491.12 635.60 489.56 682.31 487.02 728.97 C 486.92 730.73 486.75 732.50 486.52 734.27 C 486.16 733.20 485.76 732.12 485.76 731.00 C 484.81 707.01 484.76 683.01 484.70 659.01 C 484.67 604.67 485.06 550.32 487.00 496.02 C 488.17 450.50 495.15 405.23 506.04 361.05 Z" />
<path fill="#b56d25" opacity="1.00" d=" M 544.21 352.51 C 545.84 360.75 544.81 369.20 544.46 377.51 C 542.51 374.70 543.25 371.25 543.33 368.08 C 543.64 362.89 543.48 357.67 544.21 352.51 Z" />
<path fill="#a16121" opacity="1.00" d=" M 592.78 353.83 C 616.55 375.83 640.32 397.86 664.22 419.74 C 691.93 444.76 719.39 470.08 747.92 494.17 C 744.62 499.48 741.20 504.72 737.97 510.06 C 729.54 504.38 721.51 497.88 712.20 493.67 C 719.04 501.42 727.38 507.69 734.89 514.78 C 731.40 519.52 728.66 524.94 724.13 528.81 C 715.66 521.61 708.66 512.58 705.07 501.97 C 709.74 497.18 712.29 490.28 711.48 483.65 C 706.65 473.34 701.85 463.01 696.76 452.83 C 696.19 462.01 696.32 471.73 691.92 480.10 C 686.92 468.23 682.36 456.17 677.71 444.16 C 670.88 447.78 664.10 451.48 657.24 455.02 C 661.72 469.35 671.31 481.32 680.26 493.12 C 679.25 494.67 678.25 496.22 677.26 497.78 C 669.14 490.85 660.82 484.16 652.61 477.33 C 650.09 475.17 647.05 473.30 645.77 470.08 C 634.49 446.36 623.17 422.63 612.59 398.59 C 622.64 407.13 632.02 416.45 642.18 424.87 C 641.66 424.04 641.12 423.24 640.57 422.46 C 631.92 412.78 622.74 403.59 613.82 394.17 C 611.18 391.32 607.91 388.83 606.51 385.08 C 601.99 374.64 597.28 364.28 592.78 353.83 Z" />
<path fill="#b26c24" opacity="1.00" d=" M 469.40 358.81 C 470.83 357.31 472.26 355.80 473.77 354.37 C 473.65 360.77 472.92 367.16 473.30 373.56 C 473.14 373.59 472.80 373.63 472.64 373.66 C 471.60 368.70 470.57 363.74 469.40 358.81 Z" />
<path fill="#a16121" opacity="1.00" d=" M 422.05 408.98 C 431.45 398.82 440.65 388.42 450.51 378.72 C 446.38 390.45 442.18 402.15 438.20 413.92 C 436.72 418.50 434.74 422.94 433.91 427.71 C 433.03 430.17 432.13 432.63 431.24 435.09 C 429.19 436.40 428.69 438.75 429.19 441.02 C 425.78 450.67 422.67 460.43 419.34 470.10 C 413.18 466.24 406.98 462.47 400.61 458.96 C 400.62 458.40 400.62 457.28 400.62 456.72 L 399.48 458.09 C 394.40 455.95 389.55 453.27 384.56 450.93 C 396.72 436.65 409.49 422.90 422.05 408.98 Z" />
<path fill="#a16121" opacity="1.00" d=" M 542.43 393.63 C 543.58 394.59 544.24 396.15 544.42 397.52 C 547.27 407.86 549.84 418.28 552.93 428.56 C 553.75 432.54 554.86 436.45 556.03 440.35 C 551.20 436.95 545.93 434.17 541.28 430.54 C 541.49 418.24 542.01 405.93 542.43 393.63 Z" />
<path fill="#3f240b" opacity="0.72" d=" M 429.19 441.02 C 428.69 438.75 429.19 436.40 431.24 435.09 C 431.47 437.30 430.70 439.40 429.19 441.02 Z" />
<path fill="#a18f7b" opacity="1.00" d=" M 540.88 436.33 C 548.67 439.93 556.15 444.13 563.86 447.88 C 558.62 452.96 553.21 457.87 547.99 462.98 C 545.73 461.15 543.43 459.37 541.03 457.73 C 542.83 452.48 541.78 446.79 541.03 441.44 C 540.82 439.74 540.88 438.02 540.88 436.33 Z" />
<path fill="#afa190" opacity="1.00" d=" M 541.03 441.44 C 541.78 446.79 542.83 452.48 541.03 457.73 C 540.21 452.35 540.55 446.83 541.03 441.44 Z" />
<path fill="#a18f7b" opacity="1.00" d=" M 664.20 459.90 C 668.50 457.64 672.81 455.38 677.04 452.96 C 680.90 462.94 684.82 472.88 688.76 482.83 C 686.63 485.42 684.49 487.99 682.25 490.49 C 676.25 480.28 670.28 470.06 664.20 459.90 Z" />
<path fill="#a18f7b" opacity="1.00" d=" M 539.91 481.97 C 550.20 472.22 561.35 463.41 572.58 454.77 C 574.09 458.11 575.66 461.42 577.22 464.74 C 563.14 476.02 551.20 489.64 539.66 503.43 L 539.68 502.35 C 539.69 495.56 539.81 488.76 539.91 481.97 Z" />
<path fill="#a18f7b" opacity="1.00" d=" M 382.05 457.05 C 387.13 458.35 391.54 461.28 396.06 463.84 C 410.60 472.47 425.40 480.69 439.54 489.99 C 435.58 494.86 431.81 499.89 427.59 504.53 C 414.31 492.09 401.08 479.57 388.69 466.23 C 386.28 463.33 383.32 460.70 382.05 457.05 Z" />
<path fill="#a16121" opacity="1.00" d=" M 379.42 463.71 C 383.53 468.34 387.10 473.42 391.32 477.96 C 387.30 487.57 383.79 497.38 380.04 507.10 C 373.73 507.63 367.48 508.79 361.35 510.39 C 367.05 494.70 373.21 479.20 379.42 463.71 Z" />
<path fill="#a16121" opacity="1.00" d=" M 541.37 466.96 C 542.89 466.58 545.28 468.19 545.60 469.65 C 543.99 470.07 541.07 468.91 541.37 466.96 Z" />
<path fill="#000000" opacity="1.00" d=" M 516.03 478.98 C 516.24 475.36 516.24 471.62 517.82 468.28 C 517.72 546.00 517.19 623.73 517.87 701.46 C 518.16 750.31 519.30 799.15 520.08 848.00 C 520.48 877.71 521.44 907.45 521.20 937.16 C 520.39 933.81 520.21 930.36 520.15 926.94 C 516.51 862.27 514.21 797.54 511.86 732.83 C 510.96 699.89 509.99 666.95 510.18 634.00 C 510.47 582.28 512.44 530.58 516.03 478.98 Z" />
<path fill="#bc7127" opacity="1.00" d=" M 517.82 468.28 C 518.75 470.04 519.10 472.00 519.03 473.99 C 518.70 500.68 519.05 527.36 518.91 554.05 C 518.78 600.36 518.81 646.67 518.92 692.98 C 518.75 695.80 519.38 698.90 517.87 701.46 C 517.19 623.73 517.72 546.00 517.82 468.28 Z" />
<path fill="#a16121" opacity="1.00" d=" M 347.30 493.32 C 352.85 487.19 357.90 480.57 363.79 474.77 C 359.14 487.63 354.95 500.66 350.48 513.58 C 347.65 515.11 344.52 516.12 342.00 518.21 C 344.17 518.81 346.38 519.31 348.61 519.68 C 345.99 527.95 343.46 536.24 340.91 544.53 C 337.66 540.16 334.74 535.57 331.79 531.00 C 334.99 521.40 337.89 511.71 341.02 502.08 C 342.06 498.52 345.07 496.12 347.30 493.32 Z" />
<path fill="#a18f7b" opacity="1.00" d=" M 685.28 502.43 C 691.10 493.45 696.20 483.94 699.77 473.84 C 702.79 478.01 705.78 482.22 708.94 486.30 C 700.09 503.00 690.28 519.71 676.13 532.52 C 673.99 527.99 671.77 523.51 669.57 519.01 C 675.31 514.02 681.14 508.89 685.28 502.43 Z" />
<path fill="#a18f7b" opacity="1.00" d=" M 539.30 526.34 C 551.02 507.48 564.89 489.54 582.56 475.88 C 584.90 480.96 587.34 485.99 589.79 491.01 C 574.58 505.02 557.64 517.25 539.31 526.84 L 539.30 526.34 Z" />
<path fill="#a16121" opacity="1.00" d=" M 174.85 484.77 C 178.69 482.48 182.65 480.20 187.02 479.08 C 190.96 477.97 195.88 479.50 197.73 483.33 C 198.17 484.84 196.84 485.93 195.91 486.89 C 187.76 493.91 177.83 499.19 166.96 500.13 C 165.39 498.24 164.47 495.76 165.60 493.40 C 167.38 489.42 171.35 487.08 174.85 484.77 Z" />
<path fill="#a16121" opacity="1.00" d=" M 393.70 480.84 C 399.32 486.66 404.63 492.79 410.52 498.35 C 409.96 500.12 409.40 501.89 408.85 503.67 C 408.12 505.74 407.42 507.82 406.79 509.93 C 399.80 508.52 392.74 507.40 385.60 507.10 C 388.29 498.35 391.04 489.60 393.70 480.84 Z" />
<path fill="#a18f7b" opacity="1.00" d=" M 467.98 493.45 C 469.54 492.85 470.10 493.39 469.66 495.07 C 468.09 495.66 467.53 495.12 467.98 493.45 Z" />
<path fill="#a16121" opacity="1.00" d=" M 749.13 495.39 C 794.11 533.29 839.77 570.38 884.49 608.59 C 915.29 634.75 946.13 660.89 976.61 687.41 C 977.38 694.82 976.22 702.70 979.11 709.88 C 980.34 714.67 986.28 714.57 989.38 717.56 C 991.04 719.31 989.12 721.49 988.09 723.00 C 981.01 731.85 971.56 738.38 962.36 744.83 C 951.89 730.74 939.07 718.64 926.24 706.74 C 910.52 692.72 894.26 679.31 877.67 666.34 C 858.75 651.32 839.35 636.80 818.58 624.41 C 808.05 618.37 797.20 612.90 786.14 607.90 C 791.77 602.37 797.72 597.17 803.55 591.86 C 801.95 584.82 799.56 577.99 797.95 570.95 C 816.98 588.34 835.17 606.79 856.03 622.04 C 861.89 626.57 868.12 630.59 874.19 634.84 C 878.45 637.64 882.69 640.61 887.55 642.31 C 886.62 640.67 885.54 639.13 884.15 637.86 C 866.75 620.57 848.09 604.62 829.97 588.11 C 804.35 565.76 779.30 542.70 752.76 521.44 C 753.71 520.00 754.66 518.57 755.62 517.13 C 753.50 509.87 751.18 502.67 749.13 495.39 Z" />
<path fill="#a18f7b" opacity="1.00" d=" M 432.34 510.24 C 435.68 505.85 438.78 501.28 441.97 496.79 C 451.86 506.14 460.31 516.92 468.02 528.09 C 468.34 535.81 468.01 543.56 467.70 551.28 C 457.05 536.68 445.08 523.06 432.34 510.24 Z" />
<path fill="#a18f7b" opacity="1.00" d=" M 450.34 497.24 C 451.69 496.94 453.99 498.32 453.42 499.88 C 452.06 500.68 449.95 498.60 450.34 497.24 Z" />
<path fill="#b3a088" opacity="1.00" d=" M 585.02 504.45 C 587.68 502.29 590.47 500.30 593.14 498.17 C 593.87 499.83 594.63 501.49 595.41 503.15 C 591.90 503.17 588.45 503.76 585.02 504.45 Z" />
<path fill="#a18f7b" opacity="1.00" d=" M 459.11 508.61 C 462.31 506.43 465.66 504.47 469.05 502.58 C 468.93 506.64 468.73 510.71 468.71 514.78 C 467.76 515.51 466.81 516.24 465.86 516.98 C 463.65 514.15 461.43 511.33 459.11 508.61 Z" />
<path fill="#bb7026" opacity="1.00" d=" M 538.13 503.18 C 538.48 503.42 539.18 503.90 539.53 504.15 C 539.39 511.23 539.46 518.33 539.06 525.41 C 537.00 518.20 538.60 510.57 538.13 503.18 Z" />
<path fill="#a18f7b" opacity="1.00" d=" M 694.57 570.00 C 711.82 549.22 728.19 527.68 746.69 507.97 C 747.86 511.51 749.05 515.06 750.16 518.62 C 743.45 523.75 738.17 530.42 733.20 537.18 C 724.08 548.81 720.75 563.86 711.35 575.32 C 708.59 578.80 705.19 581.67 701.85 584.56 C 699.35 579.74 697.05 574.83 694.57 570.00 Z" />
<path fill="#a08e7a" opacity="1.00" d=" M 371.02 512.37 C 379.88 511.00 388.89 510.55 397.85 510.95 C 395.93 511.43 393.99 511.83 392.06 512.23 C 390.59 514.26 389.20 516.34 387.85 518.46 C 381.17 516.06 374.10 515.12 367.14 513.96 C 367.99 512.64 369.66 512.67 371.02 512.37 Z" />
<path fill="#a18f7b" opacity="1.00" d=" M 562.14 526.08 C 564.92 521.09 568.24 516.39 572.29 512.34 C 579.96 513.85 587.87 511.68 595.48 513.73 C 579.12 538.71 562.29 563.73 541.05 584.90 C 541.10 581.03 539.83 576.98 541.34 573.27 C 547.36 557.16 553.87 541.19 562.14 526.08 Z" />
<path fill="#b6a28b" opacity="1.00" d=" M 572.29 512.34 C 580.56 511.53 588.89 511.48 597.20 511.22 C 596.77 511.84 595.91 513.10 595.48 513.73 C 587.87 511.68 579.96 513.85 572.29 512.34 Z" />
<path fill="#a18f7b" opacity="1.00" d=" M 411.48 514.28 C 415.23 514.32 418.68 516.84 422.21 518.09 C 417.17 526.08 410.33 532.75 403.06 538.70 C 404.81 530.24 407.69 522.03 411.48 514.28 Z" />
<path fill="#a18f7b" opacity="1.00" d=" M 394.99 515.99 C 398.53 515.20 402.18 515.18 405.77 514.73 C 400.10 521.52 395.85 529.92 395.80 538.94 C 395.26 548.89 399.85 558.10 404.53 566.58 C 408.69 574.18 415.57 580.63 424.19 582.62 C 419.46 585.22 414.39 587.14 409.62 589.68 C 401.68 581.72 394.19 573.14 388.80 563.20 C 386.51 559.17 384.71 554.67 384.88 549.96 C 385.56 538.08 388.56 526.10 394.99 515.99 Z" />
<path fill="#a18f7b" opacity="1.00" d=" M 690.61 524.86 C 693.70 522.06 696.82 519.28 700.01 516.59 C 703.21 524.12 706.26 531.72 709.53 539.22 C 706.67 544.88 703.72 550.50 700.91 556.19 C 694.33 547.08 691.82 535.83 690.61 524.86 Z" />
<path fill="#ab9782" opacity="1.00" d=" M 598.82 520.93 C 598.85 518.83 601.04 518.85 602.53 518.30 C 603.62 520.37 604.66 522.46 605.69 524.58 C 603.29 523.82 599.75 523.82 598.82 520.93 Z" />
<path fill="#a16121" opacity="1.00" d=" M 353.66 530.65 C 354.98 527.19 356.28 523.72 357.72 520.31 C 363.42 520.89 369.16 521.10 374.86 521.68 C 374.41 522.96 373.96 524.24 373.51 525.54 C 366.84 526.99 359.93 527.78 353.66 530.65 Z" />
<path fill="#593612" opacity="1.00" d=" M 381.16 522.17 C 382.47 522.81 382.46 523.49 381.15 524.20 C 379.84 523.54 379.84 522.87 381.16 522.17 Z" />
<path fill="#a18f7b" opacity="1.00" d=" M 403.07 549.37 C 413.80 539.82 425.29 531.12 437.10 522.94 C 439.71 526.18 442.22 529.50 444.66 532.86 C 432.17 543.29 421.20 555.34 410.03 567.12 C 406.17 562.08 402.65 555.78 403.07 549.37 Z" />
<path fill="#a16121" opacity="1.00" d=" M 748.66 526.96 C 763.70 540.13 778.94 553.10 793.50 566.79 C 784.58 571.71 775.70 576.93 767.93 583.57 C 761.16 579.36 754.45 574.86 746.92 572.10 C 743.40 570.97 740.90 568.14 738.37 565.61 C 735.44 562.53 732.61 559.29 730.34 555.68 C 735.81 545.73 742.64 536.58 748.66 526.96 Z" />
<path fill="#000000" opacity="1.00" d=" M 179.55 528.14 C 179.88 529.74 180.34 531.34 180.38 533.00 C 180.69 542.99 180.50 552.98 179.99 562.96 C 179.61 569.53 180.71 576.31 178.68 582.70 C 177.89 585.42 176.94 588.12 175.61 590.64 C 168.86 603.60 161.27 616.10 153.37 628.39 C 152.63 629.57 151.55 630.49 150.54 631.45 C 156.51 616.89 164.49 603.06 168.62 587.78 C 173.32 568.10 175.00 547.84 179.55 528.14 Z" />
<path fill="#a18f7b" opacity="1.00" d=" M 362.94 532.20 C 369.47 531.31 376.02 530.34 382.64 530.62 C 381.91 533.41 381.30 536.25 380.96 539.13 C 376.39 536.90 371.19 538.05 366.42 538.90 C 361.98 538.72 356.39 540.05 353.35 535.91 C 355.92 533.39 359.53 532.75 362.94 532.20 Z" />
<path fill="#a18f7b" opacity="1.00" d=" M 541.53 594.96 C 561.32 574.12 582.20 554.36 602.82 534.35 C 606.47 536.61 611.45 537.16 613.81 541.11 C 584.48 560.24 559.05 586.29 543.76 618.04 C 541.99 610.49 542.23 602.65 541.53 594.96 Z" />
<path fill="#9d8b78" opacity="1.00" d=" M 327.42 535.61 C 329.03 537.25 330.56 538.96 332.11 540.67 C 327.04 543.74 321.79 546.52 316.52 549.26 C 316.81 548.63 317.38 547.38 317.67 546.76 C 320.92 543.04 324.28 539.42 327.42 535.61 Z" />
<path fill="#b5a18a" opacity="1.00" d=" M 366.42 538.90 C 371.19 538.05 376.39 536.90 380.96 539.13 C 376.11 539.37 371.26 539.24 366.42 538.90 Z" />
<path fill="#a18f7b" opacity="1.00" d=" M 678.99 538.36 C 681.15 539.30 681.05 541.93 681.64 543.87 C 680.68 542.07 679.78 540.23 678.99 538.36 Z" />
<path fill="#a18f7b" opacity="1.00" d=" M 326.86 561.02 C 328.56 554.42 329.73 547.63 332.41 541.33 C 345.27 558.54 355.25 577.71 364.54 597.02 C 360.59 598.76 356.68 600.61 352.81 602.54 C 345.79 587.74 336.50 574.20 326.86 561.02 Z" />
<path fill="#a16121" opacity="1.00" d=" M 345.60 552.13 C 347.03 548.56 348.29 544.93 349.86 541.42 C 350.20 542.07 350.90 543.38 351.25 544.04 C 356.64 543.90 362.03 543.14 367.43 543.58 C 363.90 553.25 361.24 563.20 358.20 573.04 C 354.22 565.94 350.08 558.93 345.60 552.13 Z" />
<path fill="#a18f7b" opacity="1.00" d=" M 420.62 575.53 C 430.06 563.60 439.91 551.86 451.69 542.13 C 454.79 546.21 457.79 550.37 460.99 554.38 C 448.85 563.05 435.27 569.35 421.71 575.43 C 421.44 575.46 420.89 575.50 420.62 575.53 Z" />
<path fill="#a16121" opacity="1.00" d=" M 374.44 543.40 C 376.53 543.56 378.63 543.69 380.72 543.87 C 380.47 549.60 381.28 555.31 382.96 560.78 C 376.66 566.42 370.54 572.25 364.24 577.90 C 367.41 566.33 371.02 554.89 374.44 543.40 Z" />
<path fill="#b59e87" opacity="1.00" d=" M 539.68 545.23 C 541.18 544.66 542.67 544.09 544.18 543.52 C 542.70 548.14 541.94 552.97 540.11 557.48 C 539.78 553.40 539.76 549.31 539.68 545.23 Z" />
<path fill="#000000" opacity="1.00" d=" M 247.78 555.81 C 250.32 553.01 252.60 549.91 255.72 547.72 C 249.79 559.62 241.69 570.28 234.25 581.26 C 228.32 589.35 222.44 597.47 216.31 605.41 C 183.94 644.92 151.18 684.14 117.41 722.46 C 115.80 724.42 113.89 726.14 111.62 727.32 C 114.09 719.64 119.19 713.24 123.41 706.49 C 143.23 675.69 168.71 649.20 192.79 621.79 C 211.21 599.87 229.15 577.55 247.78 555.81 Z" />
<path fill="#a18f7b" opacity="1.00" d=" M 607.98 553.81 C 611.37 552.92 614.84 552.43 618.23 551.54 C 619.84 555.13 621.47 558.72 623.26 562.23 C 619.92 563.52 616.53 564.69 613.10 565.72 C 611.47 561.72 609.59 557.81 607.98 553.81 Z" />
<path fill="#a18f7b" opacity="1.00" d=" M 304.12 561.22 C 310.05 558.80 315.86 556.07 321.66 553.35 C 315.25 569.47 316.37 587.37 319.97 604.01 C 323.75 621.42 330.89 637.82 337.67 654.21 C 355.19 695.33 372.17 737.01 396.18 774.88 C 403.77 787.07 412.11 798.80 421.45 809.72 C 414.60 809.76 407.76 809.39 400.92 809.35 C 390.49 795.88 380.31 782.22 370.84 768.05 C 359.51 750.68 348.37 733.04 340.16 713.94 C 332.28 695.79 326.53 676.82 319.52 658.34 C 311.70 635.83 305.38 612.48 304.12 588.61 C 305.56 582.49 304.53 576.22 304.86 570.01 C 304.97 567.06 305.22 564.03 304.12 561.22 Z" />
<path fill="#b8a38d" opacity="1.00" d=" M 304.12 561.22 C 305.22 564.03 304.97 567.06 304.86 570.01 C 304.53 576.22 305.56 582.49 304.12 588.61 C 303.33 579.53 303.01 570.28 304.12 561.22 Z" />
<path fill="#a18f7b" opacity="1.00" d=" M 583.02 573.45 C 587.20 569.76 591.21 565.87 595.25 562.01 C 599.81 576.94 604.03 592.09 609.79 606.57 C 605.90 610.05 601.63 613.09 597.74 616.57 C 592.23 602.42 587.57 587.94 583.02 573.45 Z" />
<path fill="#a18f7b" opacity="1.00" d=" M 449.57 570.22 C 451.27 567.69 453.68 565.81 456.07 563.97 C 458.11 564.05 460.16 564.14 462.21 564.33 C 458.21 566.71 453.78 568.27 449.57 570.22 Z" />
<path fill="#000000" opacity="1.00" d=" M 663.64 564.48 C 665.46 566.30 666.99 568.39 668.32 570.60 C 696.74 617.39 721.23 666.40 745.47 715.43 C 750.03 725.14 755.31 734.55 759.15 744.58 C 753.70 737.28 749.50 729.11 744.77 721.33 C 725.75 688.52 706.95 655.57 688.77 622.28 C 680.70 607.93 673.28 593.19 667.21 577.87 C 665.67 573.52 663.54 569.20 663.64 564.48 Z" />
<path fill="#a18f7b" opacity="1.00" d=" M 371.82 578.02 C 376.09 573.81 380.15 569.38 384.64 565.40 C 387.50 572.45 391.55 578.95 396.16 584.99 C 394.02 588.15 391.95 591.35 389.92 594.58 C 384.62 594.16 379.32 593.70 374.03 593.06 C 373.45 588.03 372.52 583.04 371.82 578.02 Z" />
<path fill="#a18f7b" opacity="1.00" d=" M 725.45 565.64 C 735.19 576.33 747.69 584.00 760.59 590.30 C 755.54 596.04 750.15 601.46 744.92 607.05 C 735.32 600.60 725.36 593.88 718.89 584.05 C 717.68 581.93 715.81 579.05 717.73 576.80 C 720.28 573.06 723.02 569.46 725.45 565.64 Z" />
<path fill="#9e6021" opacity="1.00" d=" M 325.74 596.12 C 324.24 587.53 324.18 578.55 325.71 569.97 C 327.40 572.77 329.01 575.61 330.78 578.36 C 329.01 584.26 327.52 590.23 325.74 596.12 Z" />
<path fill="#a18f7b" opacity="1.00" d=" M 621.96 572.84 C 623.67 572.26 625.35 571.55 627.03 570.87 C 628.95 575.03 630.72 579.25 632.74 583.37 C 628.02 588.06 623.16 592.62 618.81 597.68 C 614.35 589.52 610.15 581.22 606.04 572.88 C 611.31 573.08 616.84 574.91 621.96 572.84 Z" />
<path fill="#a18f7b" opacity="1.00" d=" M 446.38 584.40 C 453.32 581.42 460.15 578.18 467.18 575.42 C 467.10 582.18 466.55 588.93 466.57 595.70 C 426.09 612.75 386.73 632.46 348.73 654.49 C 346.91 648.06 345.31 641.57 343.58 635.12 C 376.79 616.15 411.52 600.04 446.38 584.40 Z" />
<path fill="#a18f7b" opacity="1.00" d=" M 756.45 607.43 C 767.85 595.83 779.36 584.07 793.20 575.32 C 794.96 580.18 796.82 585.00 798.57 589.86 C 788.73 597.19 780.86 606.65 772.42 615.47 C 759.32 629.70 749.66 646.73 741.67 664.24 C 737.21 656.16 733.25 647.81 729.13 639.55 C 738.26 628.86 746.57 617.47 756.45 607.43 Z" />
<path fill="#a18f7b" opacity="1.00" d=" M 265.72 590.00 C 269.50 585.49 273.12 580.87 277.02 576.47 C 277.36 588.04 280.96 599.72 287.85 609.09 C 291.21 613.72 295.89 617.27 301.32 619.10 C 296.20 621.01 290.97 622.62 285.87 624.59 C 277.47 614.20 269.44 603.00 265.72 590.00 Z" />
<path fill="#a16121" opacity="1.00" d=" M 333.71 584.27 C 333.88 584.29 334.21 584.34 334.38 584.36 C 338.25 590.61 341.76 597.10 345.74 603.29 C 340.00 605.34 334.20 607.24 328.38 609.05 C 327.82 606.31 326.28 603.41 327.60 600.66 C 329.73 595.23 331.65 589.72 333.71 584.27 Z" />
<path fill="#a18f7b" opacity="1.00" d=" M 561.22 599.31 C 565.67 594.02 572.76 592.26 579.33 591.48 C 580.23 598.54 581.25 605.58 582.28 612.63 C 574.01 612.28 565.74 612.09 557.47 611.86 C 557.39 607.43 558.15 602.72 561.22 599.31 Z" />
<path fill="#a18f7b" opacity="1.00" d=" M 585.41 627.52 C 605.18 620.50 622.65 607.88 636.70 592.42 C 637.64 594.57 638.57 596.74 639.48 598.92 C 637.27 604.87 634.69 610.75 631.05 615.98 C 624.34 625.92 614.33 633.05 604.00 638.82 C 595.50 643.28 585.73 647.36 575.99 644.92 C 565.49 642.70 557.11 635.22 550.65 627.02 C 561.81 630.76 574.13 630.69 585.41 627.52 Z" />
<path fill="#a18f7b" opacity="1.00" d=" M 711.72 604.80 C 714.16 601.92 717.04 598.77 721.06 598.46 C 725.00 599.52 724.97 604.42 725.10 607.71 C 722.40 610.31 719.87 613.08 717.23 615.74 C 715.41 612.08 713.70 608.37 711.72 604.80 Z" />
<path fill="#a18f7b" opacity="1.00" d=" M 332.92 620.13 C 352.30 614.02 371.63 607.67 391.16 602.11 C 374.21 611.80 357.41 621.84 341.76 633.55 C 338.33 629.42 335.48 624.84 332.92 620.13 Z" />
<path fill="#a18f7b" opacity="1.00" d=" M 450.29 610.43 C 451.14 609.25 452.27 607.94 453.66 609.30 C 454.08 613.67 452.13 617.77 450.68 621.78 C 443.43 639.26 434.44 655.94 425.64 672.68 C 416.77 689.28 407.62 705.73 398.44 722.16 C 395.12 717.27 391.97 712.28 388.90 707.24 C 397.72 691.19 407.20 675.51 416.94 659.99 C 427.24 642.94 438.64 626.59 450.29 610.43 Z" />
<path fill="#a1907d" opacity="1.00" d=" M 458.97 617.06 C 461.41 614.67 463.80 612.22 466.25 609.83 C 466.12 615.30 465.98 620.77 465.87 626.24 C 463.77 623.03 461.51 619.94 458.97 617.06 Z" />
<path fill="#a18f7b" opacity="1.00" d=" M 721.63 625.11 C 724.00 622.94 726.30 620.66 728.96 618.84 C 727.33 622.01 725.31 624.96 723.60 628.09 C 722.93 627.10 722.26 626.10 721.63 625.11 Z" />
<path fill="#a18f7b" opacity="1.00" d=" M 639.59 624.13 C 642.73 623.56 645.85 622.89 648.96 622.19 C 650.55 626.35 652.14 630.51 653.44 634.78 C 649.32 635.84 645.24 637.02 641.16 638.23 C 640.61 633.53 640.07 628.83 639.59 624.13 Z" />
<path fill="#000000" opacity="1.00" d=" M 670.85 622.26 C 672.24 623.87 673.55 625.56 674.62 627.42 C 710.97 687.28 744.45 748.83 777.16 810.73 C 781.37 818.95 785.78 827.09 789.48 835.55 C 790.64 838.08 791.25 840.80 791.51 843.57 C 789.59 842.96 787.84 841.97 786.53 840.45 C 778.92 832.39 773.22 822.77 767.81 813.16 C 756.60 792.82 746.39 771.96 735.75 751.33 C 720.52 721.29 704.91 691.44 689.74 661.37 C 683.43 648.34 676.18 635.72 670.85 622.26 Z" />
<path fill="#a08e7a" opacity="1.00" d=" M 404.16 632.52 C 411.78 629.00 419.75 626.13 427.88 624.06 C 421.53 629.58 415.19 635.18 408.01 639.64 C 406.76 637.24 405.49 634.86 404.16 632.52 Z" />
<path fill="#a18f7b" opacity="1.00" d=" M 215.66 663.15 C 244.77 650.36 274.62 639.27 304.82 629.35 C 306.15 635.30 307.98 641.12 309.99 646.88 C 279.00 657.43 248.74 669.93 218.71 682.91 C 217.81 676.31 216.55 669.76 215.66 663.15 Z" />
<path fill="#a18f7b" opacity="1.00" d=" M 454.26 630.84 C 458.23 632.39 461.11 635.84 462.27 639.91 C 464.17 645.90 464.57 652.22 464.92 658.46 C 460.81 654.55 457.14 650.21 453.24 646.11 C 453.84 641.03 453.60 635.91 454.26 630.84 Z" />
<path fill="#a18f7b" opacity="1.00" d=" M 606.82 644.12 C 612.21 640.42 617.63 636.76 622.99 633.01 C 629.37 651.51 635.18 670.21 642.34 688.43 C 646.94 700.94 652.05 713.25 657.12 725.58 C 653.81 728.35 650.80 731.44 647.58 734.30 C 637.40 720.19 629.00 704.86 622.18 688.86 C 615.79 674.41 611.36 659.22 606.82 644.12 Z" />
<path fill="#a18f7b" opacity="1.00" d=" M 378.86 644.79 C 384.19 641.78 389.66 639.04 395.16 636.35 C 399.82 645.42 402.55 655.29 405.49 665.01 C 401.34 672.31 397.63 679.87 393.71 687.28 C 389.17 672.99 385.14 658.45 378.86 644.79 Z" />
<path fill="#a18f7b" opacity="1.00" d=" M 759.56 650.04 C 762.31 645.67 764.89 641.19 767.63 636.82 C 769.23 642.72 774.21 646.72 779.03 650.04 C 788.08 655.94 798.31 659.68 808.47 663.18 C 803.83 669.04 799.07 674.81 794.24 680.51 C 781.01 672.63 767.47 663.66 759.56 650.04 Z" />
<path fill="#a18f7b" opacity="1.00" d=" M 411.95 647.38 C 414.91 644.94 417.43 641.94 420.77 639.97 C 418.30 643.70 415.89 647.48 413.61 651.33 C 413.05 650.00 412.51 648.69 411.95 647.38 Z" />
<path fill="#a18f7b" opacity="1.00" d=" M 640.16 651.87 C 645.64 649.03 651.34 646.62 656.88 643.88 C 658.66 649.21 660.24 654.61 662.11 659.92 C 657.29 662.25 652.21 663.96 647.05 665.38 C 644.86 660.82 642.30 656.45 640.16 651.87 Z" />
<path fill="#a18f7b" opacity="1.00" d=" M 570.69 662.24 C 581.12 658.58 591.02 653.61 600.94 648.75 C 601.07 654.01 601.61 659.26 601.63 664.53 C 591.07 673.44 581.20 683.32 569.39 690.60 C 568.84 690.36 567.75 689.90 567.20 689.67 C 566.98 681.33 567.01 672.97 567.12 664.63 C 568.27 663.78 569.49 663.03 570.69 662.24 Z" />
<path fill="#a18f7b" opacity="1.00" d=" M 545.76 653.01 C 552.91 672.12 558.84 691.78 561.97 711.97 C 564.68 729.55 562.54 748.56 553.34 764.02 C 552.61 753.88 551.16 743.78 550.24 733.68 C 551.35 728.19 550.94 722.59 550.60 717.05 C 550.30 717.27 549.68 717.71 549.38 717.92 L 549.14 718.10 C 548.35 696.39 546.97 674.69 545.76 653.01 Z" />
<path fill="#a18f7b" opacity="1.00" d=" M 435.57 674.12 C 438.79 668.60 441.79 662.95 444.92 657.38 C 452.07 661.89 459.05 666.86 464.69 673.22 C 464.11 682.34 464.62 691.62 463.68 700.66 C 463.42 701.12 462.89 702.04 462.63 702.50 C 462.12 705.65 462.16 708.85 462.11 712.04 C 462.12 717.92 461.39 723.89 462.95 729.66 C 463.26 731.31 463.36 733.11 462.77 734.73 C 462.37 735.80 461.95 736.87 461.54 737.95 C 461.06 735.79 460.40 733.69 459.46 731.70 C 458.21 727.57 458.40 723.14 457.41 718.94 C 454.22 702.52 448.37 685.57 435.57 674.12 Z" />
<path fill="#a18f7b" opacity="1.00" d=" M 282.18 682.20 C 291.67 674.31 301.00 666.20 311.14 659.14 C 311.56 664.82 311.96 670.52 312.97 676.14 C 292.64 692.09 272.08 707.74 251.81 723.76 C 248.96 721.10 246.05 718.50 243.13 715.91 C 256.15 704.68 268.96 693.20 282.18 682.20 Z" />
<path fill="#a18f7b" opacity="1.00" d=" M 348.05 664.92 C 350.92 662.80 353.81 660.71 356.75 658.68 C 364.55 674.70 368.71 692.26 370.31 709.95 C 361.98 695.42 355.15 680.08 348.05 664.92 Z" />
<path fill="#a16121" opacity="1.00" d=" M 289.31 663.11 C 292.25 662.21 295.23 661.44 298.29 661.11 C 294.71 663.89 290.89 666.34 287.27 669.08 C 287.94 667.08 288.63 665.10 289.31 663.11 Z" />
<path fill="#af9c86" opacity="1.00" d=" M 565.24 662.65 C 567.05 662.51 568.86 662.36 570.69 662.24 C 569.49 663.03 568.27 663.78 567.12 664.63 C 567.01 672.97 566.98 681.33 567.20 689.67 C 567.75 689.90 568.84 690.36 569.39 690.60 C 568.19 691.27 566.98 691.94 565.78 692.62 C 565.73 682.63 565.39 672.64 565.24 662.65 Z" />
<path fill="#a18f7b" opacity="1.00" d=" M 609.85 668.57 C 607.78 669.52 606.71 665.28 608.88 664.95 C 610.08 665.52 610.63 667.46 609.85 668.57 Z" />
<path fill="#a18f7b" opacity="1.00" d=" M 190.08 687.06 C 194.69 680.94 199.23 674.75 203.98 668.73 C 209.45 687.39 215.60 705.85 221.36 724.42 C 229.17 748.58 237.48 772.64 248.07 795.75 C 242.65 798.17 237.30 800.73 231.81 802.98 C 221.80 783.81 211.92 764.44 205.16 743.84 C 198.75 725.30 195.18 705.96 190.08 687.06 Z" />
<path fill="#a18f7b" opacity="1.00" d=" M 656.69 673.70 C 659.37 671.65 662.13 669.53 665.44 668.61 C 662.44 672.25 658.22 674.57 654.72 677.69 C 654.82 676.10 655.22 674.53 656.69 673.70 Z" />
<path fill="#a18f7b" opacity="1.00" d=" M 745.51 672.08 C 746.71 670.67 748.18 669.56 749.63 668.43 C 758.11 697.52 779.15 721.12 803.12 738.79 C 805.81 740.69 808.57 742.53 811.04 744.73 C 799.81 744.76 787.80 743.12 778.34 736.66 C 774.43 730.68 771.75 723.93 768.32 717.66 C 760.71 702.47 752.98 687.33 745.51 672.08 Z" />
<path fill="#a18f7b" opacity="1.00" d=" M 757.81 671.90 C 768.33 679.91 781.05 684.81 794.22 685.96 C 790.52 690.66 786.69 695.26 782.97 699.94 C 776.59 694.74 770.66 689.02 765.05 683.01 C 762.06 679.73 759.47 676.03 757.81 671.90 Z" />
<path fill="#a18f7b" opacity="1.00" d=" M 371.41 672.99 C 379.59 696.54 387.49 720.21 395.39 743.86 C 394.05 745.01 392.73 746.18 391.40 747.35 C 388.29 741.66 384.51 736.32 381.76 730.45 C 379.81 718.25 378.13 705.98 375.70 693.86 C 374.54 686.84 372.47 680.02 371.41 672.99 Z" />
<path fill="#9e8b78" opacity="1.00" d=" M 426.53 682.05 C 427.32 680.85 428.12 679.66 428.92 678.47 C 429.64 678.66 431.10 679.05 431.83 679.25 C 434.77 683.97 437.52 688.84 439.84 693.90 C 434.61 690.94 430.32 686.64 426.53 682.05 Z" />
<path fill="#a18f7b" opacity="1.00" d=" M 805.84 680.87 C 808.95 681.22 812.08 681.53 815.22 681.70 C 818.57 687.54 818.53 695.04 814.66 700.64 C 808.82 708.92 799.81 714.14 791.13 718.99 C 788.87 716.81 786.56 714.70 784.21 712.64 C 789.79 708.12 795.13 703.09 798.76 696.83 C 801.82 691.84 803.74 686.29 805.84 680.87 Z" />
<path fill="#a18f7b" opacity="1.00" d=" M 566.89 709.38 C 578.60 702.14 589.28 693.31 600.87 685.89 C 593.10 696.45 585.33 707.01 577.61 717.61 C 574.52 717.46 571.42 717.41 568.33 717.47 C 567.87 714.77 567.36 712.07 566.89 709.38 Z" />
<path fill="#a18f7b" opacity="1.00" d=" M 277.43 711.53 C 287.24 704.14 296.60 696.12 306.67 689.10 C 292.00 711.47 276.77 733.46 261.47 755.41 C 258.51 750.36 256.22 744.97 253.43 739.83 C 257.88 733.49 262.41 727.20 266.85 720.85 C 269.49 716.85 273.83 714.54 277.43 711.53 Z" />
<path fill="#a18f7b" opacity="1.00" d=" M 603.68 701.70 C 607.75 697.85 611.54 693.71 615.55 689.80 C 618.17 696.34 621.11 702.75 624.41 708.98 C 610.59 727.81 598.80 748.27 590.22 770.02 C 586.01 765.11 581.88 760.13 578.28 754.75 C 578.81 744.56 580.47 734.23 584.86 724.93 C 589.17 715.79 596.53 708.64 603.68 701.70 Z" />
<path fill="#a18f7b" opacity="1.00" d=" M 314.08 695.67 C 319.89 699.85 325.42 704.61 329.78 710.32 C 333.58 716.95 336.47 724.08 340.47 730.61 C 344.34 736.30 343.99 743.51 344.19 750.08 C 344.09 764.05 341.79 778.22 336.03 791.02 C 331.68 800.63 324.73 808.86 316.59 815.49 C 317.87 805.74 319.32 796.01 320.10 786.21 L 320.25 786.04 C 320.57 785.68 321.22 784.95 321.55 784.59 C 322.16 778.16 322.35 771.62 321.26 765.23 C 325.15 750.01 323.36 733.60 316.39 719.51 C 315.84 722.80 315.29 726.10 314.40 729.33 C 311.43 722.86 308.00 716.58 303.18 711.28 C 306.90 706.14 310.47 700.89 314.08 695.67 Z" />
<path fill="#746658" opacity="1.00" d=" M 180.18 700.00 C 181.39 700.61 181.31 701.32 179.95 702.11 C 178.75 701.48 178.82 700.78 180.18 700.00 Z" />
<path fill="#b7a28c" opacity="1.00" d=" M 462.63 702.50 C 462.89 702.04 463.42 701.12 463.68 700.66 C 463.74 710.32 463.36 720.00 462.95 729.66 C 461.39 723.89 462.12 717.92 462.11 712.04 C 462.16 708.85 462.12 705.65 462.63 702.50 Z" />
<path fill="#a18f7b" opacity="1.00" d=" M 403.87 725.92 C 407.37 718.03 411.48 710.44 415.18 702.65 C 419.95 721.82 424.33 741.25 425.25 761.04 C 425.81 771.79 424.40 782.56 421.46 792.89 C 419.94 792.99 419.63 790.98 418.75 790.11 C 416.26 785.80 412.79 782.02 410.73 777.52 C 409.56 760.20 407.96 742.83 403.87 725.92 Z" />
<path fill="#a18f7b" opacity="1.00" d=" M 433.20 713.28 C 437.87 713.45 442.38 712.21 446.88 711.15 C 448.94 717.65 450.64 724.25 451.92 730.95 C 445.31 735.56 438.43 739.91 430.96 743.00 C 431.54 733.08 432.58 723.19 433.20 713.28 Z" />
<path fill="#a16121" opacity="1.00" d=" M 279.17 739.20 C 285.12 730.37 290.72 721.25 297.71 713.20 C 302.19 722.12 305.93 731.42 308.64 741.03 C 309.21 742.45 309.12 744.01 308.32 745.35 C 302.52 756.84 294.29 767.21 283.96 774.95 C 279.45 778.43 274.61 781.43 269.79 784.45 C 261.86 779.37 255.32 772.51 249.03 765.58 C 250.82 762.07 252.57 758.56 254.20 754.98 C 256.59 759.79 258.53 764.80 260.48 769.81 C 266.61 759.54 272.54 749.16 279.17 739.20 Z" />
<path fill="#b6a18b" opacity="1.00" d=" M 549.38 717.92 C 549.68 717.71 550.30 717.27 550.60 717.05 C 550.94 722.59 551.35 728.19 550.24 733.68 C 549.44 728.48 549.13 723.18 549.38 717.92 Z" />
<path fill="#a08e7a" opacity="1.00" d=" M 628.02 720.00 C 628.58 719.33 629.15 718.67 629.73 718.02 C 634.12 725.20 639.15 731.97 644.31 738.62 C 645.08 739.66 646.15 740.40 647.09 741.30 C 646.97 742.11 646.88 742.95 646.84 743.80 C 638.88 737.42 632.40 729.21 628.02 720.00 Z" />
<path fill="#b9a48e" opacity="1.00" d=" M 459.46 731.70 C 460.40 733.69 461.06 735.79 461.54 737.95 C 461.95 736.87 462.37 735.80 462.77 734.73 C 462.56 747.15 462.42 759.58 461.76 771.98 C 462.06 773.89 460.65 775.09 459.43 776.31 C 460.41 761.45 460.31 746.55 459.46 731.70 Z" />
<path fill="#a18f7b" opacity="1.00" d=" M 647.22 740.23 C 652.91 738.04 658.35 735.25 664.07 733.15 C 667.93 734.35 671.42 736.63 675.24 738.05 C 671.50 742.03 667.61 745.88 663.77 749.77 C 661.81 752.00 658.53 750.93 655.95 751.32 C 652.77 749.00 649.74 746.48 646.72 743.97 L 646.84 743.80 C 646.88 742.95 646.97 742.11 647.09 741.30 L 647.22 740.23 Z" />
<path fill="#a18f7b" opacity="1.00" d=" M 611.20 742.27 C 612.27 740.11 614.17 738.60 616.10 737.25 C 616.93 740.96 617.82 744.67 618.95 748.32 C 616.77 747.87 614.60 747.35 612.44 746.84 C 615.18 751.54 618.00 756.26 621.76 760.25 C 623.57 762.14 625.18 764.25 626.25 766.67 C 633.58 781.85 644.10 795.28 656.11 807.03 C 648.25 807.33 640.28 806.08 633.00 803.05 C 630.49 802.10 628.84 799.89 627.12 797.97 C 618.06 786.96 610.54 774.75 604.39 761.90 C 605.85 755.12 607.94 748.41 611.20 742.27 Z" />
<path fill="#a18f7b" opacity="1.00" d=" M 316.67 740.86 C 313.65 757.56 308.05 774.13 298.08 788.03 C 293.98 793.81 289.69 799.56 284.47 804.39 C 282.40 801.27 280.29 798.18 278.10 795.16 C 276.77 800.99 275.61 806.91 275.87 812.93 C 264.00 822.04 250.75 830.67 235.55 832.43 C 220.69 833.26 206.12 827.95 193.68 820.13 C 211.35 817.39 229.07 813.70 245.58 806.61 C 257.51 801.46 269.36 795.72 279.49 787.46 C 294.74 774.48 306.66 758.08 316.67 740.86 Z" />
<path fill="#998875" opacity="1.00" d=" M 624.06 741.74 C 628.05 744.75 631.69 748.20 636.03 750.73 C 633.19 750.48 630.00 751.02 627.47 749.55 C 625.86 747.19 624.92 744.45 624.06 741.74 Z" />
<path fill="#a18f7b" opacity="1.00" d=" M 672.09 755.52 C 679.36 754.28 686.16 751.31 692.65 747.90 C 693.56 749.92 694.49 751.93 695.40 753.96 C 682.29 764.24 665.90 771.15 649.01 770.18 C 637.97 769.10 628.89 761.24 622.78 752.45 C 638.78 756.70 655.69 758.31 672.09 755.52 Z" />
<path fill="#a18f7b" opacity="1.00" d=" M 351.27 749.32 C 356.69 757.76 362.08 766.21 367.88 774.40 C 364.64 784.83 359.11 794.33 353.89 803.86 C 352.47 806.03 350.95 809.15 347.96 809.16 C 345.71 807.44 345.01 804.21 345.10 801.53 C 346.01 798.51 346.02 795.41 345.09 792.40 C 344.81 786.65 345.96 780.89 347.45 775.35 C 349.57 766.82 350.92 758.10 351.27 749.32 Z" />
<path fill="#a18f7b" opacity="1.00" d=" M 580.20 763.19 C 588.94 776.03 599.34 787.94 612.01 797.04 C 622.09 804.42 634.61 807.02 646.62 809.45 C 646.21 809.83 645.39 810.58 644.97 810.96 C 643.16 811.55 641.35 812.16 639.52 812.71 C 636.78 813.63 633.85 813.18 631.03 813.07 C 614.90 811.77 598.74 805.34 587.50 793.46 C 580.11 785.35 579.23 773.62 580.20 763.19 Z" />
<path fill="#a18f7b" opacity="1.00" d=" M 177.85 765.98 C 174.67 779.71 168.08 792.55 160.27 804.24 C 154.35 812.21 147.33 819.33 139.89 825.88 C 137.98 822.57 136.14 819.22 134.38 815.83 C 132.43 821.48 130.83 827.29 130.34 833.27 C 117.82 840.99 104.03 847.97 89.05 848.55 C 75.96 848.38 63.59 842.92 52.81 835.84 C 55.91 834.87 58.97 833.80 62.03 832.73 C 62.99 833.33 63.97 833.90 64.97 834.45 C 68.42 833.89 70.71 830.84 73.98 829.91 C 96.42 826.23 119.11 820.05 138.18 807.23 C 153.77 796.02 166.59 781.43 177.85 765.98 Z" />
<path fill="#b8a38d" opacity="1.00" d=" M 321.26 765.23 C 322.35 771.62 322.16 778.16 321.55 784.59 C 321.22 784.95 320.57 785.68 320.25 786.04 C 320.99 779.12 320.51 772.13 321.26 765.23 Z" />
<path fill="#a18f7b" opacity="1.00" d=" M 658.95 774.84 C 666.71 773.14 674.39 770.97 681.79 768.01 C 677.93 781.17 663.85 786.44 652.63 791.83 C 650.48 789.51 648.36 787.17 646.19 784.89 C 650.80 782.01 654.88 778.42 658.95 774.84 Z" />
<path fill="#a06021" opacity="1.00" d=" M 303.42 795.97 C 307.33 791.44 310.56 786.41 314.33 781.79 C 314.28 786.18 313.84 790.55 313.76 794.94 C 310.34 795.52 306.88 795.84 303.42 795.97 Z" />
<path fill="#bba68e" opacity="1.00" d=" M 345.09 792.40 C 346.02 795.41 346.01 798.51 345.10 801.53 C 344.64 798.50 344.63 795.42 345.09 792.40 Z" />
<path fill="#a18f7b" opacity="1.00" d=" M 552.94 816.00 C 558.54 809.40 561.35 801.11 564.09 793.04 C 566.43 800.84 567.35 809.30 565.42 817.30 C 563.84 824.05 559.10 829.54 553.77 833.75 C 553.41 827.83 553.40 821.90 552.94 816.00 Z" />
<path fill="#a18f7b" opacity="1.00" d=" M 281.77 806.64 C 284.50 809.44 286.35 813.02 288.92 816.01 C 297.39 826.47 306.96 836.34 318.60 843.27 C 327.96 848.40 338.57 850.49 348.93 852.63 C 347.45 853.33 346.00 854.06 344.53 854.77 C 344.61 855.02 344.77 855.52 344.85 855.77 C 326.37 857.79 307.08 852.28 292.87 840.19 C 288.95 836.94 285.73 832.80 283.95 828.01 C 281.17 821.25 281.35 813.79 281.77 806.64 Z" />
<path fill="#c5af97" opacity="1.00" d=" M 646.62 809.45 C 649.32 809.72 652.04 809.85 654.76 809.85 C 654.63 810.15 654.38 810.73 654.25 811.02 C 649.33 811.55 644.50 812.97 639.52 812.71 C 641.35 812.16 643.16 811.55 644.97 810.96 C 645.39 810.58 646.21 809.83 646.62 809.45 Z" />
<path fill="#a08e7a" opacity="1.00" d=" M 653.19 816.61 C 655.63 814.74 658.36 813.25 660.91 811.51 C 663.87 814.12 666.82 816.76 669.76 819.41 C 664.14 819.09 658.62 818.00 653.19 816.61 Z" />
<path fill="#a18f7b" opacity="1.00" d=" M 438.14 814.77 C 443.30 824.26 449.12 833.45 456.46 841.43 C 457.49 842.81 459.42 843.98 458.96 845.98 C 458.73 850.59 458.52 855.20 458.30 859.81 C 451.29 854.98 443.94 849.76 440.06 841.93 C 435.93 833.51 436.32 823.73 438.14 814.77 Z" />
<path fill="#a18f7b" opacity="1.00" d=" M 627.78 822.98 C 628.09 821.75 628.41 820.51 629.35 819.62 C 630.84 824.99 632.15 830.80 630.24 836.26 C 628.32 841.64 624.66 846.71 619.50 849.35 C 613.48 851.00 607.12 850.82 600.94 850.51 C 595.88 850.07 590.29 849.80 586.27 846.29 C 596.26 844.87 606.69 843.64 615.57 838.47 C 621.25 834.97 626.19 829.60 627.78 822.98 Z" />
<path fill="#a18f7b" opacity="1.00" d=" M 366.15 826.76 C 376.34 837.73 389.86 844.54 403.17 850.93 C 397.77 853.29 392.28 855.43 386.88 857.79 C 382.79 859.73 377.99 858.04 374.43 855.74 C 370.63 853.34 368.75 849.04 367.44 844.92 C 365.70 839.05 365.54 832.82 366.15 826.76 Z" />
<path fill="#a18f7b" opacity="1.00" d=" M 140.12 856.90 C 134.77 848.11 134.72 837.04 137.17 827.33 C 141.31 835.66 146.28 843.62 152.28 850.75 C 158.34 857.98 164.93 865.00 173.16 869.77 C 183.65 875.84 195.39 879.31 207.17 881.84 C 192.91 884.31 177.82 882.70 164.74 876.32 C 155.28 871.81 145.97 865.81 140.12 856.90 Z" />
<path fill="#a18f7b" opacity="1.00" d=" M 251.53 836.75 C 256.26 834.47 261.04 832.23 265.36 829.22 C 268.71 834.32 272.01 839.47 275.48 844.50 C 268.68 843.82 261.85 843.22 255.12 842.10 C 253.76 840.42 252.71 838.53 251.53 836.75 Z" />
<path fill="#ae9b85" opacity="1.00" d=" M 416.94 847.38 C 417.34 845.72 418.33 844.35 419.02 842.83 C 419.75 849.47 420.34 856.26 418.93 862.87 C 417.14 857.85 418.96 852.36 416.94 847.38 Z" />
<path fill="#a18f7b" opacity="1.00" d=" M 395.86 869.77 C 406.48 866.81 412.34 856.58 416.94 847.38 C 418.96 852.36 417.14 857.85 418.93 862.87 C 416.83 876.63 401.75 888.14 387.91 883.83 C 378.58 881.41 370.56 875.76 362.91 870.10 C 373.56 873.64 385.16 872.42 395.86 869.77 Z" />
<path fill="#c6b097" opacity="1.00" d=" M 348.93 852.63 C 351.71 852.81 354.50 852.83 357.28 853.04 C 353.34 854.73 348.99 854.83 344.85 855.77 C 344.77 855.52 344.61 855.02 344.53 854.77 C 346.00 854.06 347.45 853.33 348.93 852.63 Z" />
<path fill="#a18f7b" opacity="1.00" d=" M 626.51 855.74 C 628.86 854.20 631.17 852.61 633.46 850.99 C 639.72 869.44 648.04 887.16 658.03 903.89 C 654.80 908.55 651.78 913.34 648.50 917.97 C 642.03 906.94 635.75 895.71 631.19 883.73 C 627.87 874.84 625.14 865.33 626.51 855.74 Z" />
</svg>
