<?xml version="1.0" encoding="UTF-8" ?>
<!DOCTYPE svg PUBLIC "-//W3C//DTD SVG 1.1//EN" "http://www.w3.org/Graphics/SVG/1.1/DTD/svg11.dtd">
<svg width="650pt" height="838pt" viewBox="0 0 650 838" version="1.1" xmlns="http://www.w3.org/2000/svg">
<path fill="#f0ba72" opacity="1.00" d=" M 433.26 83.08 C 435.40 82.87 437.48 82.32 439.59 81.90 C 438.47 83.16 437.26 84.36 435.94 85.42 C 435.90 84.83 435.82 83.67 435.78 83.08 C 433.77 84.53 431.78 86.02 429.73 87.39 C 430.47 85.64 431.98 84.42 433.26 83.08 Z" />
<path fill="#e98503" opacity="1.00" d=" M 429.73 87.39 C 431.78 86.02 433.77 84.53 435.78 83.08 C 435.82 83.67 435.90 84.83 435.94 85.42 L 435.70 85.89 C 434.43 87.40 434.47 89.53 435.64 91.08 C 436.05 91.87 436.46 92.67 436.85 93.48 C 438.67 97.87 441.68 102.32 440.32 107.30 C 439.78 106.76 438.71 105.70 438.17 105.17 L 438.00 104.96 C 436.34 102.47 434.16 100.40 432.11 98.24 L 432.02 97.97 C 431.90 96.63 431.23 95.91 430.01 95.81 L 429.75 94.68 C 429.50 92.32 429.51 89.94 429.46 87.57 L 429.73 87.39 Z" />
<path fill="#ffdfa3" opacity="1.00" d=" M 435.64 91.08 C 434.47 89.53 434.43 87.40 435.70 85.89 C 436.38 87.45 436.40 89.55 435.64 91.08 Z" />
<path fill="#c8c8c8" opacity="1.00" d=" M 429.75 94.68 C 428.39 92.60 428.62 89.81 429.46 87.57 C 429.51 89.94 429.50 92.32 429.75 94.68 Z" />
<path fill="#f0ba72" opacity="1.00" d=" M 436.85 93.48 C 437.94 94.68 438.81 96.07 439.79 97.36 C 440.43 99.95 441.63 102.38 442.15 105.00 C 441.36 108.07 440.53 111.40 438.05 113.58 C 437.91 110.77 437.87 107.96 438.17 105.17 C 438.71 105.70 439.78 106.76 440.32 107.30 C 441.68 102.32 438.67 97.87 436.85 93.48 Z" />
<path fill="#fff5d7" opacity="1.00" d=" M 183.25 96.07 C 184.23 95.87 185.21 95.60 186.22 95.55 L 184.15 97.09 L 186.27 98.29 C 185.88 98.70 185.09 99.51 184.69 99.91 L 184.31 99.74 C 183.81 99.52 182.80 99.07 182.30 98.85 C 179.15 103.24 178.80 108.83 179.73 114.00 L 179.10 114.19 C 178.98 112.62 179.10 110.95 178.29 109.52 C 176.88 106.26 180.70 103.73 180.11 100.37 C 181.44 99.17 182.89 97.94 183.25 96.07 Z" />
<path fill="#e2b065" opacity="1.00" d=" M 430.01 95.81 C 431.23 95.91 431.90 96.63 432.02 97.97 C 430.57 98.08 429.89 97.36 430.01 95.81 Z" />
<path fill="#e98603" opacity="1.00" d=" M 182.30 98.85 C 182.80 99.07 183.81 99.52 184.31 99.74 C 184.23 100.17 184.06 101.01 183.97 101.44 C 182.90 105.95 183.45 110.79 185.89 114.78 L 186.05 115.13 C 186.60 116.86 187.62 118.45 189.25 119.34 L 189.82 119.48 C 190.16 119.79 190.85 120.42 191.19 120.73 C 193.72 124.32 195.73 128.60 194.43 133.08 C 193.76 132.91 192.42 132.56 191.75 132.39 L 191.90 130.90 C 192.22 129.40 191.13 128.17 190.35 127.02 L 189.94 125.91 C 189.54 124.13 188.66 122.44 186.96 121.58 L 186.50 121.50 C 186.24 121.44 185.71 121.32 185.45 121.26 C 183.37 119.28 181.47 117.11 179.85 114.74 L 179.73 114.00 C 178.80 108.83 179.15 103.24 182.30 98.85 Z" />
<path fill="#fff5d7" opacity="1.00" d=" M 432.11 98.24 C 434.16 100.40 436.34 102.47 438.00 104.96 L 437.44 105.13 C 435.88 102.69 432.31 101.28 432.11 98.24 Z" />
<path fill="#fff5d7" opacity="1.00" d=" M 185.89 114.78 C 183.45 110.79 182.90 105.95 183.97 101.44 C 184.16 104.35 183.91 107.29 184.12 110.20 C 185.10 111.59 186.54 112.84 185.89 114.78 Z" />
<path fill="#fff5d7" opacity="1.00" d=" M 179.85 114.74 C 181.47 117.11 183.37 119.28 185.45 121.26 C 182.73 120.05 180.88 117.46 179.85 114.74 Z" />
<path fill="#fff5d7" opacity="1.00" d=" M 186.05 115.13 C 187.65 115.22 190.25 117.69 189.82 119.48 L 189.25 119.34 C 187.62 118.45 186.60 116.86 186.05 115.13 Z" />
<path fill="#fff5d7" opacity="1.00" d=" M 191.19 120.73 C 192.10 121.58 193.00 122.45 193.88 123.33 C 194.25 125.57 195.16 127.65 195.87 129.79 C 195.42 131.16 194.99 132.54 194.87 133.99 C 193.26 134.56 191.96 134.30 191.75 132.39 C 192.42 132.56 193.76 132.91 194.43 133.08 C 195.73 128.60 193.72 124.32 191.19 120.73 Z" />
<path fill="#fff5d7" opacity="1.00" d=" M 186.50 121.50 L 186.96 121.58 C 188.66 122.44 189.54 124.13 189.94 125.91 C 188.65 126.23 187.85 124.46 187.03 123.73 C 186.90 123.17 186.63 122.06 186.50 121.50 Z" />
<path fill="#f5cf9a" opacity="1.00" d=" M 190.35 127.02 C 191.13 128.17 192.22 129.40 191.90 130.90 C 190.10 131.20 189.13 128.21 190.35 127.02 Z" />
<path fill="#f0ba72" opacity="1.00" d=" M 407.19 133.07 C 406.31 130.35 409.99 129.07 411.39 127.19 C 411.12 128.66 411.26 130.32 410.25 131.54 C 409.62 134.56 408.73 137.50 410.23 140.46 C 410.49 140.99 411.01 142.04 411.28 142.57 C 412.05 145.00 414.70 146.25 415.23 148.73 C 412.51 147.17 410.76 144.45 409.59 141.61 C 408.49 138.84 408.72 135.69 407.19 133.07 Z" />
<path fill="#e98606" opacity="1.00" d=" M 406.07 132.62 L 407.19 133.07 C 408.72 135.69 408.49 138.84 409.59 141.61 C 410.76 144.45 412.51 147.17 415.23 148.73 C 415.40 148.85 415.74 149.08 415.92 149.20 L 416.09 149.60 C 419.61 155.74 419.90 163.38 416.07 169.44 L 415.82 169.97 C 415.27 166.41 415.03 162.79 414.31 159.25 L 414.34 158.58 C 414.82 156.67 414.01 154.77 412.18 153.98 L 411.52 152.82 L 411.39 152.57 L 411.30 152.33 L 410.88 150.94 C 410.53 149.48 409.85 147.65 408.11 147.52 L 407.89 147.01 C 406.22 143.60 405.14 139.83 405.76 136.00 C 405.84 135.16 405.99 133.47 406.07 132.62 Z" />
<path fill="#fff5d7" opacity="1.00" d=" M 405.03 135.84 L 405.76 136.00 C 405.14 139.83 406.22 143.60 407.89 147.01 L 407.25 146.99 C 407.00 146.37 406.50 145.13 406.25 144.51 C 405.96 143.45 405.63 142.37 405.10 141.40 C 405.03 139.55 405.03 137.69 405.03 135.84 Z" />
<path fill="#fff5d7" opacity="1.00" d=" M 323.71 143.54 C 324.38 141.76 325.93 140.59 327.26 139.31 C 327.14 139.79 326.90 140.76 326.79 141.25 C 327.06 141.54 327.60 142.13 327.87 142.42 C 328.23 150.59 328.19 158.78 328.08 166.97 C 327.98 168.47 328.30 170.13 327.32 171.43 C 325.99 173.31 325.99 175.59 325.95 177.79 C 326.89 178.37 328.32 179.99 329.21 178.30 C 332.09 176.17 333.57 172.77 336.25 170.57 C 332.81 177.19 326.62 181.85 319.97 184.96 C 324.05 178.66 327.79 171.73 327.75 164.00 C 327.71 156.74 328.42 149.28 326.37 142.21 C 324.88 144.13 323.45 146.11 321.77 147.87 C 322.21 146.34 323.00 144.96 323.71 143.54 Z" />
<path fill="#fda618" opacity="1.00" d=" M 321.77 147.87 C 323.45 146.11 324.88 144.13 326.37 142.21 C 328.42 149.28 327.71 156.74 327.75 164.00 C 327.79 171.73 324.05 178.66 319.97 184.96 C 326.62 181.85 332.81 177.19 336.25 170.57 C 336.78 170.45 337.83 170.21 338.35 170.09 C 339.51 175.71 341.27 181.40 345.16 185.77 C 351.74 194.35 363.13 197.34 369.36 206.31 C 369.43 206.23 369.56 206.08 369.62 206.00 L 370.08 206.72 C 374.61 214.33 377.68 223.00 377.36 231.96 C 377.02 237.21 375.65 242.31 374.05 247.30 C 377.72 244.23 380.75 240.45 383.41 236.50 C 385.00 236.11 386.62 235.82 388.27 236.00 C 385.83 239.04 383.64 245.00 388.26 247.16 L 388.68 247.44 C 392.38 250.13 397.23 249.48 401.52 249.22 C 406.29 248.47 410.92 244.46 415.85 246.82 C 417.15 248.33 418.10 250.10 419.06 251.84 L 419.10 252.00 C 420.20 260.92 420.43 270.16 418.27 278.93 C 418.37 281.50 419.01 284.03 419.80 286.47 L 419.84 286.59 C 420.33 288.82 421.70 291.05 424.08 291.55 C 429.44 292.87 435.06 292.50 440.51 292.04 C 440.71 292.02 441.12 291.97 441.32 291.95 C 447.33 294.18 452.49 298.17 456.14 303.45 C 456.79 304.36 457.35 305.34 457.96 306.30 C 458.02 306.96 458.15 308.27 458.22 308.93 C 458.53 312.61 459.00 316.44 457.82 320.03 C 457.09 322.37 456.34 324.71 456.00 327.14 C 459.94 324.21 462.48 319.72 463.80 315.05 C 463.89 314.76 464.07 314.17 464.16 313.87 C 466.79 307.03 467.08 299.16 464.12 292.38 L 464.09 292.31 C 463.22 289.37 461.86 286.59 459.94 284.20 L 459.75 283.93 C 460.25 283.73 461.26 283.31 461.76 283.10 L 463.35 283.02 C 463.47 283.14 463.71 283.36 463.82 283.48 C 464.21 283.81 464.99 284.49 465.38 284.83 C 468.74 288.50 472.69 291.68 475.41 295.92 C 478.65 300.59 480.68 305.94 482.40 311.33 C 482.50 311.51 482.71 311.89 482.82 312.08 L 483.14 312.75 C 484.03 320.36 483.95 328.09 482.18 335.57 L 481.89 336.01 C 478.91 339.99 477.82 344.97 475.80 349.45 C 484.22 346.10 490.70 337.94 500.28 337.51 C 497.90 340.34 494.60 342.50 493.04 345.95 C 490.85 350.29 491.53 355.32 491.56 360.00 C 491.52 362.16 492.92 363.92 493.89 365.74 L 494.23 366.37 C 499.63 381.63 510.03 394.95 513.04 411.07 C 513.99 414.86 512.96 418.70 512.20 422.42 L 512.02 422.73 C 510.64 424.72 508.96 426.92 510.01 429.46 C 513.24 428.10 516.74 426.93 519.21 424.31 C 520.96 422.16 522.43 419.80 524.13 417.61 C 526.78 421.36 527.64 425.89 528.87 430.22 L 529.09 431.02 C 530.42 442.10 529.50 453.58 525.08 463.91 C 523.72 467.68 521.04 470.87 520.10 474.80 L 519.77 475.57 C 516.86 478.08 514.81 481.44 511.97 484.03 C 502.34 494.12 489.00 500.26 480.96 511.92 C 479.27 514.08 479.64 516.78 480.31 519.25 C 476.37 520.49 472.42 521.69 468.48 522.91 C 466.22 519.64 463.12 516.61 459.01 516.02 C 452.89 515.14 446.89 517.38 441.12 519.13 L 439.64 518.92 C 446.99 512.52 455.02 506.86 461.77 499.76 C 471.21 490.81 479.58 480.24 483.67 467.73 C 485.89 460.73 485.92 452.88 482.94 446.10 C 480.53 440.35 478.61 434.27 478.51 427.99 C 478.57 422.79 480.72 417.10 485.57 414.59 C 488.67 412.64 492.43 412.64 495.97 412.53 C 488.67 405.97 479.01 400.96 468.95 402.07 C 462.77 402.78 457.63 407.20 455.26 412.84 C 454.89 411.86 454.52 410.88 454.19 409.89 C 451.74 393.61 441.92 378.81 428.28 369.70 C 425.84 367.93 423.08 366.66 420.20 365.78 C 421.96 369.33 424.09 373.70 421.51 377.42 C 421.01 371.08 419.12 364.94 417.05 358.97 C 410.60 343.53 401.57 328.99 389.98 316.90 C 390.95 321.20 392.26 325.51 391.97 329.97 C 391.67 341.46 387.14 352.23 382.42 362.52 C 377.92 371.39 373.03 380.10 367.21 388.18 C 364.22 391.88 362.05 396.41 357.92 399.03 C 358.85 396.19 360.45 393.66 362.07 391.17 C 370.27 377.37 374.51 361.03 372.92 344.97 C 371.69 333.97 367.93 322.91 360.59 314.46 C 354.35 307.24 350.97 297.61 351.66 288.07 C 352.31 277.24 357.52 267.32 363.97 258.82 C 356.57 259.34 351.06 265.30 347.10 271.03 C 337.63 285.37 334.80 302.67 328.30 318.33 C 320.61 312.13 310.44 308.88 304.61 300.43 C 305.06 293.90 304.88 287.35 305.04 280.81 C 305.57 277.33 305.82 273.82 306.09 270.32 C 308.69 261.39 310.20 251.87 308.39 242.63 C 306.17 230.98 297.87 220.52 286.81 216.10 C 290.99 223.18 294.57 231.64 291.99 239.93 C 290.31 247.17 284.75 252.59 279.01 256.90 C 273.36 260.83 266.04 263.34 262.86 269.94 C 259.29 275.79 259.87 283.03 261.56 289.38 C 263.49 297.27 267.26 304.54 269.71 312.25 C 270.49 315.09 271.28 319.60 267.73 320.87 C 263.99 322.20 259.88 321.33 256.07 320.81 C 250.95 319.44 245.33 316.55 243.71 311.10 C 241.73 305.83 243.09 300.17 244.90 295.07 C 236.73 299.81 229.62 307.43 227.64 316.90 C 225.46 324.47 226.25 332.50 228.13 340.04 C 228.44 341.43 229.38 342.53 230.12 343.72 C 227.82 349.34 226.22 355.28 225.85 361.37 C 221.38 360.05 216.83 357.73 214.71 353.34 C 211.60 347.68 212.65 341.07 213.71 335.02 C 197.79 345.30 192.25 368.00 200.01 385.01 C 204.64 395.77 214.56 403.38 225.11 407.85 C 233.18 411.18 240.14 416.69 246.21 422.88 C 243.99 426.77 242.56 431.54 244.18 435.92 C 245.54 440.08 249.51 442.53 253.30 444.18 C 252.36 450.24 250.46 456.59 245.68 460.75 C 243.91 462.12 241.33 463.34 239.24 461.91 C 236.60 460.66 235.86 457.63 234.91 455.15 C 231.67 445.00 224.46 436.10 214.96 431.17 C 216.20 438.11 218.93 444.82 218.65 451.98 C 218.40 467.44 211.20 481.53 205.61 495.60 C 204.81 497.77 204.30 500.03 203.78 502.28 C 198.88 501.31 193.96 500.36 188.99 499.78 C 185.72 499.48 182.46 499.15 179.23 498.57 C 179.80 501.27 180.01 504.15 181.33 506.63 C 187.47 508.25 193.94 508.55 200.21 509.69 C 199.73 511.36 199.26 513.03 198.78 514.71 C 195.93 514.85 193.09 515.21 190.25 515.53 C 190.26 515.75 190.29 516.21 190.30 516.43 C 192.91 516.47 195.52 516.52 198.12 516.66 C 196.73 521.74 196.55 527.03 196.97 532.26 C 194.22 531.77 191.46 531.35 188.69 531.02 L 189.57 532.68 C 185.81 528.65 182.51 524.20 178.50 520.40 C 176.32 518.26 173.18 517.66 170.27 517.21 C 162.62 502.94 163.61 485.78 167.35 470.49 C 168.25 467.83 168.47 465.04 168.32 462.25 C 169.59 458.96 171.07 455.73 171.81 452.27 L 171.92 451.83 C 173.59 450.14 175.25 448.45 176.91 446.76 C 177.16 450.11 177.59 453.55 179.52 456.41 C 180.91 459.50 183.12 462.09 185.63 464.34 C 186.01 464.38 186.78 464.45 187.16 464.48 C 189.14 460.41 191.49 456.54 193.86 452.68 C 194.38 451.99 194.97 451.36 195.63 450.80 C 199.43 447.70 202.32 443.50 203.71 438.80 C 204.39 435.87 202.63 433.20 200.76 431.13 C 200.59 430.92 200.25 430.49 200.07 430.27 C 199.23 429.03 198.43 427.72 197.31 426.72 C 187.78 418.22 176.48 412.15 165.77 405.33 C 164.43 404.53 163.00 403.86 161.60 403.19 L 161.35 403.05 C 151.70 396.49 143.25 387.92 138.17 377.30 C 131.65 365.00 130.73 350.37 133.90 336.96 L 134.01 336.48 C 136.16 330.79 138.43 325.07 141.90 320.04 C 144.25 316.34 147.49 313.34 149.95 309.73 C 150.24 309.39 150.83 308.70 151.12 308.36 C 151.18 308.30 151.30 308.17 151.36 308.11 C 151.71 307.82 152.39 307.24 152.73 306.95 C 156.21 304.67 159.17 301.71 162.67 299.46 C 165.71 297.26 169.10 295.63 172.14 293.43 L 172.50 293.20 C 174.32 292.75 176.15 292.36 177.99 291.98 C 175.95 295.87 172.31 299.30 172.02 303.85 C 171.99 304.45 171.93 305.64 171.89 306.24 C 170.36 310.55 170.45 315.17 171.95 319.48 L 171.97 319.57 C 173.46 326.06 177.03 332.39 182.56 336.24 C 181.62 329.78 181.31 323.19 181.66 316.68 C 181.74 316.11 181.92 314.96 182.00 314.39 C 184.33 306.39 189.55 299.52 196.50 294.93 L 196.66 294.84 C 201.64 292.46 206.71 290.13 212.17 289.11 C 220.44 287.23 229.24 284.97 235.57 278.99 C 235.78 278.76 236.18 278.30 236.38 278.06 C 240.37 275.34 242.64 270.71 243.38 266.04 C 244.39 259.04 242.48 251.90 238.96 245.85 C 237.54 243.08 235.40 240.56 235.08 237.35 C 241.07 241.81 244.97 248.35 248.34 254.87 C 250.07 257.71 252.26 261.32 255.99 261.42 C 257.95 261.73 259.67 260.60 261.27 259.63 C 261.43 259.14 261.75 258.16 261.91 257.68 L 262.00 257.33 C 264.14 248.27 259.64 239.41 254.92 231.96 C 247.96 221.88 244.40 208.91 247.98 196.90 L 248.14 196.27 C 249.41 193.49 250.61 190.67 251.83 187.87 L 252.05 187.48 C 257.88 178.49 266.36 171.13 276.47 167.42 C 286.88 163.98 297.59 161.47 307.75 157.30 C 312.47 155.05 317.52 152.91 320.94 148.77 C 321.15 148.55 321.56 148.09 321.77 147.87 Z" />
<path fill="#fff5d7" opacity="1.00" d=" M 408.11 147.52 C 409.85 147.65 410.53 149.48 410.88 150.94 C 409.51 151.06 407.60 148.94 408.11 147.52 Z" />
<path fill="#fff5d7" opacity="1.00" d=" M 317.21 150.21 C 318.44 149.72 319.67 149.20 320.94 148.77 C 317.52 152.91 312.47 155.05 307.75 157.30 C 297.59 161.47 286.88 163.98 276.47 167.42 C 266.36 171.13 257.88 178.49 252.05 187.48 C 254.28 180.81 260.06 175.96 265.89 172.36 C 268.04 170.22 270.83 169.05 273.50 167.71 C 276.80 166.66 280.20 165.84 283.48 164.67 C 284.46 164.26 285.47 163.92 286.50 163.65 C 287.69 162.91 289.13 162.96 290.47 162.75 C 292.40 161.75 294.66 161.73 296.63 160.80 C 297.56 160.23 298.49 159.67 299.42 159.11 C 300.78 158.93 302.24 159.12 303.54 158.61 C 305.96 156.80 309.04 156.31 311.59 154.70 C 313.61 153.40 316.84 153.05 317.21 150.21 Z" />
<path fill="#fff5d7" opacity="1.00" d=" M 416.09 149.60 C 417.14 150.72 417.66 152.20 418.32 153.55 C 418.82 154.89 419.27 156.26 419.87 157.57 C 419.91 159.21 419.93 160.86 419.90 162.51 C 419.20 163.41 418.83 164.44 418.79 165.61 C 418.07 167.01 417.27 168.40 416.07 169.44 C 419.90 163.38 419.61 155.74 416.09 149.60 Z" />
<path fill="#f7ca93" opacity="1.00" d=" M 411.30 152.33 L 411.39 152.57 L 411.52 152.82 C 411.47 152.70 411.36 152.45 411.30 152.33 Z" />
<path fill="#fff5d7" opacity="1.00" d=" M 412.18 153.98 C 414.01 154.77 414.82 156.67 414.34 158.58 L 414.03 158.63 C 413.44 157.13 411.19 155.73 412.18 153.98 Z" />
<path fill="#fff5d7" opacity="1.00" d=" M 153.68 159.82 C 155.42 161.15 157.55 161.20 159.64 161.06 C 160.51 161.97 161.39 162.87 162.27 163.77 C 160.95 163.18 159.69 162.16 158.17 162.22 C 157.75 164.08 159.25 165.70 159.81 167.38 C 157.90 164.74 155.81 162.27 153.68 159.82 Z" />
<path fill="#f5c988" opacity="1.00" d=" M 414.31 159.25 C 415.03 162.79 415.27 166.41 415.82 169.97 L 416.01 171.07 C 415.51 171.07 414.52 171.06 414.03 171.06 C 413.99 167.13 413.69 163.15 414.31 159.25 Z" />
<path fill="#e5890b" opacity="1.00" d=" M 158.17 162.22 C 159.69 162.16 160.95 163.18 162.27 163.77 L 163.40 164.43 C 163.48 164.50 163.63 164.66 163.71 164.73 C 165.58 166.60 166.63 169.04 167.85 171.33 L 167.91 172.07 C 167.95 173.31 168.63 173.94 169.93 173.96 C 171.42 174.06 172.78 174.73 174.19 175.16 C 174.21 175.64 174.27 176.58 174.29 177.05 C 172.51 176.94 170.58 177.51 168.91 176.70 C 168.05 175.98 167.08 175.71 166.01 175.89 L 165.30 175.96 C 164.89 174.24 163.48 173.11 162.27 171.97 C 161.68 170.92 161.11 169.85 160.58 168.78 L 160.46 168.54 L 160.33 168.32 L 159.81 167.38 C 159.25 165.70 157.75 164.08 158.17 162.22 Z" />
<path fill="#feeab8" opacity="1.00" d=" M 163.40 164.43 C 163.48 164.50 163.63 164.66 163.71 164.73 C 163.63 164.66 163.48 164.50 163.40 164.43 Z" />
<path fill="#fff5d7" opacity="1.00" d=" M 336.25 170.57 C 335.80 168.66 337.69 166.87 338.96 165.64 C 338.86 168.99 339.52 172.24 340.25 175.50 C 340.79 176.43 341.11 177.45 341.22 178.55 C 341.94 179.90 342.76 181.21 343.69 182.44 C 344.65 184.61 346.60 186.06 348.21 187.73 C 349.94 189.32 351.35 191.39 353.62 192.27 C 355.07 193.61 356.56 194.95 358.44 195.68 C 362.49 198.61 367.31 201.47 369.62 206.00 C 369.56 206.08 369.43 206.23 369.36 206.31 C 363.13 197.34 351.74 194.35 345.16 185.77 C 341.27 181.40 339.51 175.71 338.35 170.09 C 337.83 170.21 336.78 170.45 336.25 170.57 Z" />
<path fill="#fdd68b" opacity="1.00" d=" M 160.33 168.32 L 160.46 168.54 L 160.58 168.78 C 160.51 168.66 160.39 168.43 160.33 168.32 Z" />
<path fill="#fff5d7" opacity="1.00" d=" M 162.27 171.97 C 163.48 173.11 164.89 174.24 165.30 175.96 C 163.62 176.15 161.03 173.66 162.27 171.97 Z" />
<path fill="#fff5d7" opacity="1.00" d=" M 167.91 172.07 C 169.40 171.88 170.07 172.50 169.93 173.96 C 168.63 173.94 167.95 173.31 167.91 172.07 Z" />
<path fill="#f2ba72" opacity="1.00" d=" M 166.01 175.89 C 167.08 175.71 168.05 175.98 168.91 176.70 C 168.19 176.69 166.74 176.67 166.02 176.66 L 166.01 175.89 Z" />
<path fill="#fff5d7" opacity="1.00" d=" M 248.14 196.27 C 248.38 193.27 249.31 189.76 251.83 187.87 C 250.61 190.67 249.41 193.49 248.14 196.27 Z" />
<path fill="#fff5d7" opacity="1.00" d=" M 247.07 196.89 L 247.98 196.90 C 244.40 208.91 247.96 221.88 254.92 231.96 C 259.64 239.41 264.14 248.27 262.00 257.33 C 261.51 254.09 262.77 250.51 261.25 247.50 C 260.99 246.48 260.67 245.48 260.29 244.52 C 259.98 243.13 259.44 241.82 258.85 240.53 C 257.91 238.93 257.09 237.26 256.27 235.59 C 255.38 232.79 253.07 230.92 251.67 228.44 C 251.19 227.46 250.71 226.49 250.22 225.53 C 250.03 223.68 249.07 222.09 248.16 220.52 C 248.01 217.85 246.90 215.39 246.08 212.89 C 245.77 209.12 245.96 205.33 246.09 201.56 C 247.23 200.25 246.90 198.47 247.07 196.89 Z" />
<path fill="#fff5d7" opacity="1.00" d=" M 370.08 206.72 C 371.20 207.25 371.68 208.44 372.29 209.46 C 373.29 211.56 374.20 213.74 375.82 215.46 C 376.05 218.18 376.24 220.91 377.29 223.48 C 378.75 226.04 377.76 229.18 378.05 232.00 C 378.64 235.16 375.14 238.84 378.54 241.26 C 381.08 239.00 382.25 235.60 385.05 233.63 C 384.52 234.59 383.97 235.55 383.41 236.50 C 380.75 240.45 377.72 244.23 374.05 247.30 C 375.65 242.31 377.02 237.21 377.36 231.96 C 377.68 223.00 374.61 214.33 370.08 206.72 Z" />
<path fill="#eb8500" opacity="1.00" d=" M 286.81 216.10 C 297.87 220.52 306.17 230.98 308.39 242.63 C 310.20 251.87 308.69 261.39 306.09 270.32 C 305.01 266.52 303.77 262.76 302.56 259.00 C 302.13 266.54 300.58 274.47 295.30 280.21 C 291.85 284.82 285.69 286.86 283.09 292.15 C 280.81 298.27 287.12 302.95 287.58 308.74 C 286.67 313.11 281.92 314.72 278.32 316.30 C 271.11 319.16 264.98 324.87 262.16 332.15 C 260.67 336.27 260.51 340.70 259.83 345.00 C 253.87 342.78 249.74 337.16 248.74 330.97 C 247.96 326.96 248.88 322.92 249.76 319.01 C 241.64 325.81 235.07 334.39 230.12 343.72 C 229.38 342.53 228.44 341.43 228.13 340.04 C 226.25 332.50 225.46 324.47 227.64 316.90 C 229.62 307.43 236.73 299.81 244.90 295.07 C 243.09 300.17 241.73 305.83 243.71 311.10 C 245.33 316.55 250.95 319.44 256.07 320.81 C 259.88 321.33 263.99 322.20 267.73 320.87 C 271.28 319.60 270.49 315.09 269.71 312.25 C 267.26 304.54 263.49 297.27 261.56 289.38 C 259.87 283.03 259.29 275.79 262.86 269.94 C 266.04 263.34 273.36 260.83 279.01 256.90 C 284.75 252.59 290.31 247.17 291.99 239.93 C 294.57 231.64 290.99 223.18 286.81 216.10 Z" />
<path fill="#fff5d7" opacity="1.00" d=" M 391.33 220.75 C 391.73 221.16 392.55 221.97 392.95 222.38 C 392.99 223.92 393.03 225.47 393.07 227.02 L 392.29 226.95 C 392.32 225.47 392.31 223.99 392.26 222.51 C 389.30 225.21 388.83 229.63 385.89 232.42 C 386.42 231.10 387.03 229.81 387.66 228.53 C 390.01 226.39 389.46 223.10 391.33 220.75 Z" />
<path fill="#efaa35" opacity="1.00" d=" M 385.89 232.42 C 388.83 229.63 389.30 225.21 392.26 222.51 C 392.31 223.99 392.32 225.47 392.29 226.95 C 392.11 228.93 391.34 230.80 390.88 232.73 C 390.70 232.96 390.32 233.42 390.14 233.65 C 389.50 234.43 388.87 235.20 388.27 236.00 C 386.62 235.82 385.00 236.11 383.41 236.50 C 383.97 235.55 384.52 234.59 385.05 233.63 C 385.26 233.33 385.68 232.72 385.89 232.42 Z" />
<path fill="#fff5d7" opacity="1.00" d=" M 230.75 233.98 L 232.09 233.95 L 232.03 235.09 C 233.72 234.75 234.62 236.33 235.82 237.18 C 237.16 238.21 238.94 238.81 239.69 240.46 C 240.83 242.81 243.30 244.16 244.32 246.58 C 245.19 248.30 246.32 249.86 247.29 251.53 C 249.02 255.05 251.39 258.26 254.35 260.85 C 255.40 260.88 256.46 260.92 257.52 260.95 C 259.09 260.02 260.60 258.97 261.91 257.68 C 261.75 258.16 261.43 259.14 261.27 259.63 C 259.67 260.60 257.95 261.73 255.99 261.42 C 252.26 261.32 250.07 257.71 248.34 254.87 C 244.97 248.35 241.07 241.81 235.08 237.35 C 235.40 240.56 237.54 243.08 238.96 245.85 C 242.48 251.90 244.39 259.04 243.38 266.04 C 242.64 270.71 240.37 275.34 236.38 278.06 C 237.73 275.29 240.20 273.21 241.78 270.53 C 241.97 269.14 241.84 267.60 242.83 266.47 C 242.66 263.54 243.82 260.12 242.12 257.53 C 242.11 255.08 242.05 252.57 240.76 250.39 C 240.03 248.99 239.19 247.64 238.07 246.52 C 238.01 246.01 237.91 245.00 237.85 244.49 C 236.46 242.64 234.88 240.84 234.01 238.68 C 232.78 237.21 231.72 235.63 230.75 233.98 Z" />
<path fill="#fff5d7" opacity="1.00" d=" M 388.27 236.00 C 388.87 235.20 389.50 234.43 390.14 233.65 C 390.05 237.00 386.21 238.77 385.89 242.04 C 386.04 243.98 387.42 245.48 388.26 247.16 C 383.64 245.00 385.83 239.04 388.27 236.00 Z" />
<path fill="#fff5d7" opacity="1.00" d=" M 407.49 246.66 C 409.71 245.66 412.08 244.98 414.54 245.01 C 417.25 246.18 419.29 248.75 419.06 251.84 C 418.10 250.10 417.15 248.33 415.85 246.82 C 410.92 244.46 406.29 248.47 401.52 249.22 C 397.23 249.48 392.38 250.13 388.68 247.44 C 393.67 249.25 399.59 249.87 404.55 247.75 C 405.46 247.23 406.45 246.86 407.49 246.66 Z" />
<path fill="#fff5d7" opacity="1.00" d=" M 419.10 252.00 L 420.00 251.83 C 420.46 263.39 419.79 274.93 419.80 286.47 C 419.01 284.03 418.37 281.50 418.27 278.93 C 420.43 270.16 420.20 260.92 419.10 252.00 Z" />
<path fill="#fff5d7" opacity="1.00" d=" M 519.60 256.81 C 520.64 254.55 523.79 255.74 524.82 253.70 C 527.18 253.71 524.84 255.52 524.66 256.59 C 523.43 258.64 524.22 261.15 524.14 263.41 C 525.88 266.51 527.36 269.89 529.98 272.38 C 529.97 273.20 529.95 274.85 529.94 275.68 C 527.21 269.16 521.44 263.10 523.81 255.45 C 522.40 255.90 520.99 256.33 519.60 256.81 Z" />
<path fill="#ea8502" opacity="1.00" d=" M 519.60 256.81 C 520.99 256.33 522.40 255.90 523.81 255.45 C 521.44 263.10 527.21 269.16 529.94 275.68 C 530.02 276.01 530.18 276.66 530.27 276.99 C 531.75 282.80 528.35 288.49 523.16 291.01 C 522.80 291.12 522.09 291.32 521.73 291.43 L 522.05 290.87 C 524.01 287.69 526.11 284.06 525.12 280.17 C 524.40 275.18 520.03 272.19 517.31 268.35 C 515.23 265.45 516.00 261.49 517.79 258.65 C 518.29 257.94 518.89 257.33 519.60 256.81 Z" />
<path fill="#c84800" opacity="1.00" d=" M 295.30 280.21 C 300.58 274.47 302.13 266.54 302.56 259.00 C 303.77 262.76 305.01 266.52 306.09 270.32 C 305.82 273.82 305.57 277.33 305.04 280.81 C 303.20 284.31 300.69 287.85 301.10 292.02 C 301.13 295.17 302.82 297.96 304.61 300.43 C 310.44 308.88 320.61 312.13 328.30 318.33 C 340.37 333.41 340.08 356.84 327.71 371.65 C 325.72 373.96 323.52 376.08 321.58 378.43 C 330.33 377.55 337.95 371.54 341.80 363.78 C 343.86 360.31 344.22 356.12 346.36 352.71 C 346.55 362.45 347.41 372.40 351.50 381.38 C 354.72 388.33 356.23 396.69 352.84 403.87 C 348.66 413.05 339.56 418.50 330.98 423.00 C 326.57 425.39 320.98 427.14 318.70 432.01 C 317.78 435.61 322.25 437.00 325.00 437.19 C 335.82 437.89 346.09 431.99 352.91 423.91 C 356.78 419.12 363.55 417.16 369.34 419.38 C 364.10 422.17 358.12 424.54 355.01 429.96 C 349.40 438.20 351.31 448.56 350.31 457.91 C 348.98 474.14 345.36 491.51 333.70 503.64 C 327.40 510.34 318.20 512.97 309.28 513.51 C 309.31 513.80 309.39 514.38 309.43 514.67 C 327.53 513.34 345.81 510.08 362.37 502.39 C 371.59 497.85 381.35 490.89 383.29 480.09 C 385.73 461.78 382.35 443.39 382.64 425.04 C 382.58 419.52 384.92 412.95 391.01 411.76 C 385.57 418.41 386.01 428.84 392.10 434.90 C 395.19 438.01 399.84 439.42 404.11 438.29 C 412.12 436.17 415.75 427.22 415.27 419.59 C 415.04 413.42 413.60 407.35 411.38 401.61 C 405.83 387.45 401.94 372.29 402.68 356.98 C 403.10 352.15 403.38 347.09 405.63 342.69 C 407.84 353.07 408.31 364.09 413.30 373.66 C 414.73 376.69 418.19 378.93 421.51 377.42 C 424.09 373.70 421.96 369.33 420.20 365.78 C 423.08 366.66 425.84 367.93 428.28 369.70 C 441.92 378.81 451.74 393.61 454.19 409.89 C 455.23 417.33 454.61 424.83 454.03 432.28 C 456.01 432.38 458.37 432.53 459.65 430.68 C 463.34 426.63 461.47 420.81 461.25 415.94 C 467.32 422.61 470.31 431.57 471.45 440.38 C 472.81 451.20 470.17 462.71 463.19 471.23 C 457.42 478.42 449.29 483.24 440.94 486.86 C 430.14 492.04 418.74 495.78 407.33 499.34 C 403.93 500.48 400.37 501.41 397.35 503.42 C 395.79 504.36 394.87 506.39 395.75 508.11 C 397.28 511.09 399.63 513.55 401.43 516.38 C 389.99 518.29 378.55 521.46 366.86 520.33 C 366.31 520.16 365.23 519.82 364.69 519.65 C 366.97 518.87 369.34 518.29 371.51 517.20 C 371.41 516.61 371.23 515.44 371.13 514.85 C 367.00 514.09 363.04 516.20 359.03 516.90 C 346.86 519.59 334.95 523.71 322.47 524.79 C 315.34 524.83 308.23 526.13 301.10 525.39 C 289.58 523.73 277.87 521.16 267.89 514.88 C 271.46 506.85 278.95 501.59 286.30 497.29 C 291.90 493.90 298.79 493.30 304.02 489.21 C 303.37 487.50 302.62 485.84 301.51 484.39 C 296.40 484.78 291.98 487.66 287.18 489.18 C 282.55 490.55 279.41 494.37 276.50 497.97 C 272.83 501.02 269.09 504.26 266.90 508.59 C 265.37 508.61 263.84 508.64 262.31 508.67 C 262.03 507.72 261.76 506.77 261.50 505.82 C 262.42 504.52 263.35 503.24 264.28 501.96 C 267.73 496.91 272.19 492.64 277.18 489.13 C 282.15 485.59 286.28 480.26 286.53 473.95 C 287.40 464.06 280.37 455.39 272.20 450.73 C 266.47 447.11 259.68 446.12 253.30 444.18 C 249.51 442.53 245.54 440.08 244.18 435.92 C 242.56 431.54 243.99 426.77 246.21 422.88 C 248.68 419.05 252.23 416.10 255.94 413.52 C 253.96 409.26 250.41 406.11 247.20 402.80 C 235.88 391.88 225.72 377.78 225.85 361.37 C 226.22 355.28 227.82 349.34 230.12 343.72 C 235.07 334.39 241.64 325.81 249.76 319.01 C 248.88 322.92 247.96 326.96 248.74 330.97 C 249.74 337.16 253.87 342.78 259.83 345.00 C 260.51 340.70 260.67 336.27 262.16 332.15 C 264.98 324.87 271.11 319.16 278.32 316.30 C 281.92 314.72 286.67 313.11 287.58 308.74 C 287.12 302.95 280.81 298.27 283.09 292.15 C 285.69 286.86 291.85 284.82 295.30 280.21 Z" />
<path fill="#eb8500" opacity="1.00" d=" M 347.10 271.03 C 351.06 265.30 356.57 259.34 363.97 258.82 C 357.52 267.32 352.31 277.24 351.66 288.07 C 350.97 297.61 354.35 307.24 360.59 314.46 C 367.93 322.91 371.69 333.97 372.92 344.97 C 374.51 361.03 370.27 377.37 362.07 391.17 C 360.45 393.66 358.85 396.19 357.92 399.03 C 362.05 396.41 364.22 391.88 367.21 388.18 C 373.03 380.10 377.92 371.39 382.42 362.52 C 387.14 352.23 391.67 341.46 391.97 329.97 C 392.26 325.51 390.95 321.20 389.98 316.90 C 401.57 328.99 410.60 343.53 417.05 358.97 C 419.12 364.94 421.01 371.08 421.51 377.42 C 418.19 378.93 414.73 376.69 413.30 373.66 C 408.31 364.09 407.84 353.07 405.63 342.69 C 403.38 347.09 403.10 352.15 402.68 356.98 C 401.94 372.29 405.83 387.45 411.38 401.61 C 413.60 407.35 415.04 413.42 415.27 419.59 C 411.66 426.17 406.19 431.44 402.25 437.81 C 402.71 437.93 403.65 438.17 404.11 438.29 C 399.84 439.42 395.19 438.01 392.10 434.90 C 386.01 428.84 385.57 418.41 391.01 411.76 C 384.92 412.95 382.58 419.52 382.64 425.04 C 382.35 443.39 385.73 461.78 383.29 480.09 C 381.35 490.89 371.59 497.85 362.37 502.39 C 345.81 510.08 327.53 513.34 309.43 514.67 C 309.39 514.38 309.31 513.80 309.28 513.51 C 318.20 512.97 327.40 510.34 333.70 503.64 C 345.36 491.51 348.98 474.14 350.31 457.91 C 351.31 448.56 349.40 438.20 355.01 429.96 C 358.12 424.54 364.10 422.17 369.34 419.38 C 363.55 417.16 356.78 419.12 352.91 423.91 C 346.09 431.99 335.82 437.89 325.00 437.19 C 322.25 437.00 317.78 435.61 318.70 432.01 C 320.98 427.14 326.57 425.39 330.98 423.00 C 339.56 418.50 348.66 413.05 352.84 403.87 C 356.23 396.69 354.72 388.33 351.50 381.38 C 347.41 372.40 346.55 362.45 346.36 352.71 C 344.22 356.12 343.86 360.31 341.80 363.78 C 337.95 371.54 330.33 377.55 321.58 378.43 C 323.52 376.08 325.72 373.96 327.71 371.65 C 340.08 356.84 340.37 333.41 328.30 318.33 C 334.80 302.67 337.63 285.37 347.10 271.03 Z" />
<path fill="#fff5d7" opacity="1.00" d=" M 515.99 260.36 C 516.44 259.93 517.34 259.08 517.79 258.65 C 516.00 261.49 515.23 265.45 517.31 268.35 C 520.03 272.19 524.40 275.18 525.12 280.17 C 526.11 284.06 524.01 287.69 522.05 290.87 C 521.49 289.02 522.49 287.72 523.79 286.61 C 524.01 286.08 524.44 285.01 524.66 284.48 C 522.93 283.30 525.51 281.80 524.29 280.47 C 524.02 279.48 523.87 278.48 523.82 277.45 C 521.77 274.16 518.79 271.66 516.59 268.51 C 515.31 265.98 515.93 263.07 515.99 260.36 Z" />
<path fill="#fff5d7" opacity="1.00" d=" M 530.27 276.99 L 531.00 276.84 C 531.05 279.06 531.07 281.29 530.93 283.52 C 529.07 286.51 527.49 291.53 523.16 291.01 C 528.35 288.49 531.75 282.80 530.27 276.99 Z" />
<path fill="#fff5d7" opacity="1.00" d=" M 232.57 280.66 C 233.58 280.11 234.58 279.56 235.57 278.99 C 229.24 284.97 220.44 287.23 212.17 289.11 C 206.71 290.13 201.64 292.46 196.66 294.84 C 197.09 294.39 197.95 293.48 198.38 293.02 C 198.93 292.98 200.04 292.89 200.59 292.84 C 201.03 292.41 201.91 291.55 202.35 291.12 C 204.00 291.14 205.51 290.50 206.37 289.02 C 212.87 289.43 218.91 286.68 225.00 284.83 C 227.76 283.90 230.13 282.18 232.57 280.66 Z" />
<path fill="#ec8303" opacity="1.00" d=" M 301.10 292.02 C 300.69 287.85 303.20 284.31 305.04 280.81 C 304.88 287.35 305.06 293.90 304.61 300.43 C 302.82 297.96 301.13 295.17 301.10 292.02 Z" />
<path fill="#eed29d" opacity="1.00" d=" M 457.71 280.92 C 459.47 280.79 461.20 281.11 462.49 282.43 L 461.76 283.10 C 461.26 283.31 460.25 283.73 459.75 283.93 L 459.22 284.16 C 458.51 283.16 458.00 282.08 457.71 280.92 Z" />
<path fill="#ffdfa0" opacity="1.00" d=" M 463.35 283.02 C 463.47 283.14 463.71 283.36 463.82 283.48 C 463.71 283.36 463.47 283.14 463.35 283.02 Z" />
<path fill="#fff5d7" opacity="1.00" d=" M 459.94 284.20 C 461.86 286.59 463.22 289.37 464.09 292.31 C 462.53 291.58 461.87 290.10 461.74 288.48 C 460.66 287.25 459.52 286.02 459.94 284.20 Z" />
<path fill="#fff5d7" opacity="1.00" d=" M 465.38 284.83 C 468.14 285.70 469.62 288.51 471.79 290.29 C 475.49 293.22 476.59 298.08 479.84 301.42 C 479.96 304.33 483.09 305.97 482.18 309.19 C 482.34 309.91 482.66 311.35 482.82 312.08 C 482.71 311.89 482.50 311.51 482.40 311.33 C 480.68 305.94 478.65 300.59 475.41 295.92 C 472.69 291.68 468.74 288.50 465.38 284.83 Z" />
<path fill="#fcda96" opacity="1.00" d=" M 419.84 286.59 C 421.52 287.85 422.90 289.45 424.48 290.84 C 429.58 291.23 434.72 290.69 439.83 291.10 L 440.51 292.04 C 435.06 292.50 429.44 292.87 424.08 291.55 C 421.70 291.05 420.33 288.82 419.84 286.59 Z" />
<path fill="#f0ba72" opacity="1.00" d=" M 179.96 289.24 C 181.14 288.71 182.35 288.25 183.59 287.86 C 180.74 291.30 177.43 294.54 175.75 298.74 C 174.05 300.26 173.32 302.44 172.66 304.55 L 172.02 303.85 C 172.31 299.30 175.95 295.87 177.99 291.98 C 176.15 292.36 174.32 292.75 172.50 293.20 C 173.92 291.58 176.05 290.84 177.97 290.00 C 178.47 289.81 179.46 289.43 179.96 289.24 Z" />
<path fill="#ffecb0" opacity="1.00" d=" M 178.11 289.13 L 179.13 288.74 L 179.96 289.24 C 179.46 289.43 178.47 289.81 177.97 290.00 L 178.11 289.13 Z" />
<path fill="#fff5d7" opacity="1.00" d=" M 441.32 291.95 C 447.20 292.79 451.96 297.18 455.86 301.42 C 455.93 301.93 456.07 302.94 456.14 303.45 C 452.49 298.17 447.33 294.18 441.32 291.95 Z" />
<path fill="#fff5d7" opacity="1.00" d=" M 169.17 294.86 C 170.15 294.37 171.14 293.89 172.14 293.43 C 169.10 295.63 165.71 297.26 162.67 299.46 C 159.17 301.71 156.21 304.67 152.73 306.95 C 155.38 303.54 159.01 301.11 162.54 298.72 C 164.45 297.91 166.08 296.60 167.43 295.04 C 167.87 294.99 168.74 294.90 169.17 294.86 Z" />
<path fill="#fff5d7" opacity="1.00" d=" M 464.12 292.38 C 467.08 299.16 466.79 307.03 464.16 313.87 C 463.65 312.21 463.87 310.73 464.83 309.43 C 465.78 305.17 466.61 300.66 464.74 296.51 C 463.94 295.26 463.74 293.89 464.12 292.38 Z" />
<path fill="#fff5d7" opacity="1.00" d=" M 190.28 298.29 C 192.44 297.31 194.11 295.44 196.50 294.93 C 189.55 299.52 184.33 306.39 182.00 314.39 C 182.02 313.67 182.06 312.22 182.08 311.49 C 183.69 308.93 184.80 306.10 186.24 303.45 C 187.50 301.66 189.69 300.52 190.28 298.29 Z" />
<path fill="#fff5d7" opacity="1.00" d=" M 171.95 319.48 C 170.45 315.17 170.36 310.55 171.89 306.24 C 171.83 308.27 172.83 310.92 171.09 312.53 C 171.45 314.84 172.34 317.09 171.95 319.48 Z" />
<path fill="#ecc173" opacity="1.00" d=" M 151.12 308.36 C 151.18 308.30 151.30 308.17 151.36 308.11 C 151.30 308.17 151.18 308.30 151.12 308.36 Z" />
<path fill="#fff5d7" opacity="1.00" d=" M 458.22 308.93 L 458.97 308.96 C 458.97 310.11 458.99 311.26 459.02 312.42 C 460.80 313.31 459.58 314.82 459.08 316.00 C 458.52 317.54 459.17 319.06 460.33 320.11 C 461.35 319.53 461.83 318.45 462.36 317.46 C 462.57 316.82 462.99 315.54 463.20 314.90 L 463.80 315.05 C 462.48 319.72 459.94 324.21 456.00 327.14 C 456.34 324.71 457.09 322.37 457.82 320.03 C 459.00 316.44 458.53 312.61 458.22 308.93 Z" />
<path fill="#fff5d7" opacity="1.00" d=" M 140.69 320.58 C 143.27 316.59 146.23 312.77 149.95 309.73 C 147.49 313.34 144.25 316.34 141.90 320.04 C 138.43 325.07 136.16 330.79 134.01 336.48 C 134.25 332.12 136.92 328.47 138.16 324.48 C 139.18 323.30 140.05 322.00 140.69 320.58 Z" />
<path fill="#fff5d7" opacity="1.00" d=" M 483.14 312.75 C 483.35 312.92 483.76 313.24 483.97 313.41 C 484.18 317.94 484.07 322.49 484.08 327.03 C 484.01 328.57 484.25 330.25 483.23 331.57 C 483.09 333.25 483.01 334.94 482.86 336.63 L 482.18 335.57 C 483.95 328.09 484.03 320.36 483.14 312.75 Z" />
<path fill="#fff5d7" opacity="1.00" d=" M 180.05 319.43 C 180.65 318.54 181.19 317.63 181.66 316.68 C 181.31 323.19 181.62 329.78 182.56 336.24 C 177.03 332.39 173.46 326.06 171.97 319.57 C 172.88 320.26 173.29 321.25 173.21 322.52 C 173.72 323.48 174.23 324.43 174.74 325.39 C 175.73 328.05 177.43 330.36 179.67 332.11 C 180.68 331.09 181.89 329.63 180.10 328.57 C 180.53 325.53 179.89 322.48 180.05 319.43 Z" />
<path fill="#eb8500" opacity="1.00" d=" M 200.01 385.01 C 192.25 368.00 197.79 345.30 213.71 335.02 C 212.65 341.07 211.60 347.68 214.71 353.34 C 216.83 357.73 221.38 360.05 225.85 361.37 C 225.72 377.78 235.88 391.88 247.20 402.80 C 250.41 406.11 253.96 409.26 255.94 413.52 C 252.23 416.10 248.68 419.05 246.21 422.88 C 240.14 416.69 233.18 411.18 225.11 407.85 C 214.56 403.38 204.64 395.77 200.01 385.01 Z" />
<path fill="#f0ba72" opacity="1.00" d=" M 493.48 337.65 C 494.78 336.47 496.62 337.03 498.20 336.81 C 499.84 335.47 502.06 336.10 504.01 335.96 C 504.01 336.42 504.00 337.34 504.00 337.81 C 502.00 338.67 499.16 339.20 498.79 341.78 C 497.18 342.10 496.14 343.16 495.75 344.74 C 493.35 346.75 493.19 350.00 492.40 352.80 C 491.62 354.76 492.47 356.77 493.22 358.58 C 494.94 360.44 493.64 363.44 493.89 365.74 C 492.92 363.92 491.52 362.16 491.56 360.00 C 491.53 355.32 490.85 350.29 493.04 345.95 C 494.60 342.50 497.90 340.34 500.28 337.51 C 490.70 337.94 484.22 346.10 475.80 349.45 C 477.82 344.97 478.91 339.99 481.89 336.01 C 481.93 336.94 482.00 338.80 482.04 339.72 C 479.73 340.69 479.19 343.79 481.56 345.05 C 482.78 344.06 484.07 343.15 485.35 342.22 C 488.21 340.98 490.62 338.92 493.48 337.65 Z" />
<path fill="#fff5d7" opacity="1.00" d=" M 133.06 336.79 L 133.90 336.96 C 130.73 350.37 131.65 365.00 138.17 377.30 C 143.25 387.92 151.70 396.49 161.35 403.05 C 159.15 403.51 158.13 401.41 156.69 400.23 C 154.87 398.68 152.70 397.62 150.76 396.24 C 149.36 393.41 146.84 391.49 144.78 389.20 C 143.04 386.62 141.30 384.04 139.62 381.42 C 138.98 380.08 138.33 378.75 137.69 377.41 C 137.19 376.46 136.69 375.50 136.20 374.55 C 135.84 371.95 133.32 370.30 133.79 367.49 C 133.52 366.99 132.97 365.99 132.70 365.48 C 132.54 365.11 132.23 364.36 132.08 363.99 C 131.89 354.91 131.33 345.74 133.06 336.79 Z" />
<path fill="#fff5d7" opacity="1.00" d=" M 494.23 366.37 L 494.48 365.45 C 494.79 366.20 495.42 367.70 495.73 368.45 C 495.82 370.06 496.65 371.34 497.82 372.42 C 498.03 374.66 499.36 376.54 500.27 378.55 C 500.75 379.50 501.25 380.45 501.75 381.41 C 502.38 382.74 503.05 384.06 503.68 385.41 C 504.19 386.53 504.93 387.52 505.82 388.39 C 505.89 390.28 506.91 391.88 507.87 393.46 C 507.94 393.99 508.09 395.07 508.17 395.60 C 508.62 396.05 509.52 396.95 509.97 397.40 C 510.02 397.94 510.13 399.03 510.18 399.57 C 510.48 400.06 511.08 401.03 511.38 401.52 C 512.48 403.76 511.83 406.43 513.27 408.57 C 514.43 409.79 513.94 411.56 514.08 413.07 C 514.19 416.26 513.92 419.65 512.20 422.42 C 512.96 418.70 513.99 414.86 513.04 411.07 C 510.03 394.95 499.63 381.63 494.23 366.37 Z" />
<path fill="#eb8500" opacity="1.00" d=" M 455.26 412.84 C 457.63 407.20 462.77 402.78 468.95 402.07 C 479.01 400.96 488.67 405.97 495.97 412.53 C 492.43 412.64 488.67 412.64 485.57 414.59 C 480.72 417.10 478.57 422.79 478.51 427.99 C 478.61 434.27 480.53 440.35 482.94 446.10 C 485.92 452.88 485.89 460.73 483.67 467.73 C 479.58 480.24 471.21 490.81 461.77 499.76 C 455.02 506.86 446.99 512.52 439.64 518.92 L 441.12 519.13 C 436.88 520.45 432.85 523.39 428.26 522.90 C 423.36 521.97 418.29 522.10 413.49 523.47 C 412.69 523.44 411.89 523.41 411.10 523.37 C 410.83 520.60 410.45 517.83 409.98 515.09 C 407.13 515.54 404.28 515.94 401.43 516.38 C 399.63 513.55 397.28 511.09 395.75 508.11 C 394.87 506.39 395.79 504.36 397.35 503.42 C 400.37 501.41 403.93 500.48 407.33 499.34 C 418.74 495.78 430.14 492.04 440.94 486.86 C 449.29 483.24 457.42 478.42 463.19 471.23 C 470.17 462.71 472.81 451.20 471.45 440.38 C 470.31 431.57 467.32 422.61 461.25 415.94 C 461.47 420.81 463.34 426.63 459.65 430.68 C 458.37 432.53 456.01 432.38 454.03 432.28 C 454.61 424.83 455.23 417.33 454.19 409.89 C 454.52 410.88 454.89 411.86 455.26 412.84 Z" />
<path fill="#fff5d7" opacity="1.00" d=" M 161.60 403.19 C 163.00 403.86 164.43 404.53 165.77 405.33 C 176.48 412.15 187.78 418.22 197.31 426.72 C 198.43 427.72 199.23 429.03 200.07 430.27 C 195.51 425.96 190.52 422.23 185.58 418.36 C 184.57 417.72 183.47 417.26 182.38 416.79 C 181.45 415.92 180.53 415.05 179.61 414.18 C 179.04 414.13 177.92 414.02 177.36 413.97 C 176.45 413.00 175.54 412.05 174.62 411.10 C 174.07 411.07 172.95 410.99 172.39 410.96 C 171.61 409.92 170.58 409.19 169.38 408.75 C 167.32 406.12 163.85 405.54 161.60 403.19 Z" />
<path fill="#fff5d7" opacity="1.00" d=" M 514.55 427.05 C 517.89 423.71 521.16 420.36 523.98 416.61 C 524.47 417.06 525.44 417.94 525.93 418.39 C 525.96 420.00 526.69 421.34 527.80 422.50 C 527.91 425.13 528.98 427.58 528.87 430.22 C 527.64 425.89 526.78 421.36 524.13 417.61 C 522.43 419.80 520.96 422.16 519.21 424.31 C 516.74 426.93 513.24 428.10 510.01 429.46 C 508.96 426.92 510.64 424.72 512.02 422.73 C 511.98 423.21 511.91 424.17 511.87 424.65 L 510.76 425.35 C 511.17 425.76 512.00 426.58 512.41 426.99 C 512.95 427.00 514.02 427.03 514.55 427.05 Z" />
<path fill="#ffa51c" opacity="1.00" d=" M 402.25 437.81 C 406.19 431.44 411.66 426.17 415.27 419.59 C 415.75 427.22 412.12 436.17 404.11 438.29 C 403.65 438.17 402.71 437.93 402.25 437.81 Z" />
<path fill="#fff5d7" opacity="1.00" d=" M 200.76 431.13 C 202.63 433.20 204.39 435.87 203.71 438.80 C 202.32 443.50 199.43 447.70 195.63 450.80 C 197.15 447.71 200.05 445.52 201.83 442.55 C 202.08 440.63 201.48 438.33 203.28 437.03 C 201.86 435.34 201.65 433.08 200.76 431.13 Z" />
<path fill="#eb8500" opacity="1.00" d=" M 214.96 431.17 C 224.46 436.10 231.67 445.00 234.91 455.15 C 235.86 457.63 236.60 460.66 239.24 461.91 C 241.33 463.34 243.91 462.12 245.68 460.75 C 250.46 456.59 252.36 450.24 253.30 444.18 C 259.68 446.12 266.47 447.11 272.20 450.73 C 280.37 455.39 287.40 464.06 286.53 473.95 C 286.28 480.26 282.15 485.59 277.18 489.13 C 272.19 492.64 267.73 496.91 264.28 501.96 C 263.59 501.73 262.90 501.52 262.22 501.30 C 261.91 493.85 261.92 486.36 262.79 478.95 C 260.54 477.71 258.02 477.74 255.60 478.41 C 254.82 484.27 252.51 490.00 253.19 495.98 C 253.47 498.56 253.62 501.19 252.83 503.70 C 249.11 500.36 251.16 495.21 251.92 491.07 C 253.28 486.05 251.03 480.94 247.75 477.20 C 243.35 472.19 237.85 468.04 231.71 465.40 C 234.06 469.81 236.54 474.80 234.87 479.91 C 232.33 488.72 226.95 496.38 223.81 504.98 C 217.10 504.33 210.42 503.39 203.78 502.28 C 204.30 500.03 204.81 497.77 205.61 495.60 C 211.20 481.53 218.40 467.44 218.65 451.98 C 218.93 444.82 216.20 438.11 214.96 431.17 Z" />
<path fill="#fff5d7" opacity="1.00" d=" M 529.09 431.02 L 529.11 430.17 L 529.97 431.99 C 530.18 439.19 530.13 446.43 529.84 453.62 L 529.20 454.40 C 527.22 458.68 526.34 463.35 524.21 467.51 C 522.96 470.01 521.83 472.58 520.41 474.99 L 520.10 474.80 C 521.04 470.87 523.72 467.68 525.08 463.91 C 529.50 453.58 530.42 442.10 529.09 431.02 Z" />
<path fill="#e3ab45" opacity="1.00" d=" M 173.21 447.26 C 174.91 445.85 175.18 442.68 177.87 442.74 C 178.90 446.23 179.01 449.85 179.65 453.41 C 179.62 454.16 179.55 455.66 179.52 456.41 C 177.59 453.55 177.16 450.11 176.91 446.76 C 175.25 448.45 173.59 450.14 171.92 451.83 C 171.69 450.14 172.52 448.69 173.21 447.26 Z" />
<path fill="#dcdcdc" opacity="1.00" d=" M 167.00 458.97 C 170.61 459.33 170.26 454.48 171.81 452.27 C 171.07 455.73 169.59 458.96 168.32 462.25 C 165.70 467.41 165.69 473.29 164.41 478.82 C 163.16 484.34 163.70 490.03 163.34 495.63 C 160.18 500.90 158.00 506.69 154.98 512.02 C 146.18 514.28 137.03 515.36 128.39 518.36 C 120.54 520.89 113.23 525.35 104.87 526.02 C 105.46 525.07 106.83 523.69 105.31 522.82 C 103.36 521.64 104.14 519.26 103.92 517.39 C 102.48 516.42 102.47 513.56 103.93 512.61 C 103.19 510.39 105.38 508.20 104.16 506.33 C 105.05 504.57 106.50 503.16 107.30 501.36 C 108.08 498.37 111.52 497.15 112.22 494.22 C 113.94 494.03 114.93 492.51 116.10 491.43 C 115.72 490.92 114.96 489.90 114.57 489.39 L 115.60 488.96 C 121.49 486.66 126.83 483.23 132.42 480.33 C 135.52 478.46 139.10 480.11 142.35 480.57 C 148.92 481.65 155.38 483.68 162.08 483.77 C 154.16 480.48 146.14 477.41 138.27 474.00 L 137.62 473.43 C 139.15 473.24 141.62 470.54 142.43 473.18 C 144.34 473.02 144.87 471.12 145.72 469.75 C 148.44 468.19 150.89 466.21 153.62 464.67 C 155.83 463.66 158.03 462.60 159.81 460.90 L 160.19 462.09 C 162.55 461.11 164.15 458.38 167.00 458.97 Z" />
<path fill="#dbdbdb" opacity="1.00" d=" M 190.28 457.37 C 191.00 455.48 192.25 453.89 193.86 452.68 C 191.49 456.54 189.14 460.41 187.16 464.48 C 186.78 464.45 186.01 464.38 185.63 464.34 C 183.12 462.09 180.91 459.50 179.52 456.41 C 179.55 455.66 179.62 454.16 179.65 453.41 C 180.23 456.20 180.92 460.75 184.76 460.17 C 185.35 460.88 185.94 461.59 186.52 462.33 C 187.67 460.59 189.48 459.32 190.28 457.37 Z" />
<path fill="#e8bb72" opacity="1.00" d=" M 164.41 478.82 C 165.69 473.29 165.70 467.41 168.32 462.25 C 168.47 465.04 168.25 467.83 167.35 470.49 C 163.61 485.78 162.62 502.94 170.27 517.21 C 169.73 517.17 168.66 517.09 168.12 517.05 C 165.83 510.11 163.04 503.08 163.34 495.63 C 163.70 490.03 163.16 484.34 164.41 478.82 Z" />
<path fill="#c84800" opacity="1.00" d=" M 231.71 465.40 C 237.85 468.04 243.35 472.19 247.75 477.20 C 251.03 480.94 253.28 486.05 251.92 491.07 C 251.16 495.21 249.11 500.36 252.83 503.70 C 253.94 504.32 255.06 504.87 256.19 505.46 C 256.35 506.82 256.47 508.18 256.58 509.56 C 245.56 508.82 234.78 506.14 223.81 504.98 C 226.95 496.38 232.33 488.72 234.87 479.91 C 236.54 474.80 234.06 469.81 231.71 465.40 Z" />
<path fill="#ababab" opacity="1.00" d=" M 133.45 474.02 C 135.05 473.91 136.67 473.81 138.27 474.00 C 146.14 477.41 154.16 480.48 162.08 483.77 C 155.38 483.68 148.92 481.65 142.35 480.57 C 139.10 480.11 135.52 478.46 132.42 480.33 C 126.83 483.23 121.49 486.66 115.60 488.96 C 118.93 482.69 125.41 478.74 131.38 475.17 C 131.90 474.88 132.93 474.31 133.45 474.02 Z" />
<path fill="#9b9b9b" opacity="1.00" d=" M 511.97 484.03 C 514.81 481.44 516.86 478.08 519.77 475.57 C 520.31 475.96 521.38 476.72 521.91 477.11 C 517.80 480.77 513.79 485.31 513.34 491.06 C 513.10 494.09 513.34 498.05 516.39 499.64 C 519.76 501.43 523.49 502.42 526.85 504.25 C 532.23 506.94 536.59 511.20 541.76 514.23 C 544.97 516.15 548.63 517.08 552.20 518.09 C 552.27 521.83 552.22 525.58 552.27 529.33 L 551.33 528.80 C 538.33 521.51 524.29 516.15 509.91 512.28 C 506.82 511.34 503.59 511.32 500.40 511.55 C 495.41 510.17 491.69 514.09 488.21 516.97 C 485.58 517.76 482.93 518.44 480.31 519.25 C 479.64 516.78 479.27 514.08 480.96 511.92 C 489.00 500.26 502.34 494.12 511.97 484.03 Z" />
<path fill="#b5b5b5" opacity="1.00" d=" M 521.91 477.11 L 522.34 476.71 C 524.34 479.08 526.98 480.77 529.68 482.24 C 531.27 483.64 532.61 485.44 534.67 486.21 C 537.72 489.94 542.52 491.81 545.05 496.00 C 546.26 498.02 548.36 499.34 549.37 501.51 C 550.00 502.87 550.68 504.20 551.41 505.53 C 552.93 509.48 551.76 513.93 552.20 518.09 C 548.63 517.08 544.97 516.15 541.76 514.23 C 536.59 511.20 532.23 506.94 526.85 504.25 C 523.49 502.42 519.76 501.43 516.39 499.64 C 513.34 498.05 513.10 494.09 513.34 491.06 C 513.79 485.31 517.80 480.77 521.91 477.11 Z" />
<path fill="#e28618" opacity="1.00" d=" M 255.60 478.41 C 258.02 477.74 260.54 477.71 262.79 478.95 C 261.92 486.36 261.91 493.85 262.22 501.30 C 262.90 501.52 263.59 501.73 264.28 501.96 C 263.35 503.24 262.42 504.52 261.50 505.82 C 259.80 497.18 260.27 488.18 261.39 479.49 C 259.86 479.78 257.02 478.22 256.61 480.38 C 255.83 484.21 255.37 488.10 254.83 491.98 C 254.13 496.54 255.48 501.00 256.19 505.46 C 255.06 504.87 253.94 504.32 252.83 503.70 C 253.62 501.19 253.47 498.56 253.19 495.98 C 252.51 490.00 254.82 484.27 255.60 478.41 Z" />
<path fill="#74432c" opacity="1.00" d=" M 256.61 480.38 C 257.02 478.22 259.86 479.78 261.39 479.49 C 260.27 488.18 259.80 497.18 261.50 505.82 C 261.76 506.77 262.03 507.72 262.31 508.67 C 263.84 508.64 265.37 508.61 266.90 508.59 C 265.94 510.66 265.03 512.79 263.77 514.71 C 258.29 522.78 252.40 530.59 245.76 537.75 C 239.97 543.65 233.60 548.97 228.22 555.26 C 226.28 557.68 222.90 559.37 222.50 562.71 C 219.41 564.42 216.25 565.98 213.09 567.54 C 212.40 564.39 211.74 561.20 210.39 558.26 C 209.63 556.65 208.87 555.04 208.16 553.42 C 211.30 551.59 214.64 550.14 218.09 549.00 C 221.40 548.05 223.79 545.48 226.49 543.51 C 228.64 542.13 230.71 540.58 232.09 538.38 C 230.68 538.05 229.27 537.73 227.86 537.46 C 234.70 538.70 238.74 532.20 243.73 528.83 C 243.61 528.42 243.38 527.60 243.27 527.20 C 244.92 527.16 246.50 526.68 247.96 525.92 C 242.50 523.79 236.57 524.95 230.91 525.21 C 232.37 524.21 233.73 523.07 235.01 521.85 C 235.40 521.32 235.78 520.80 236.16 520.27 C 230.61 518.42 224.84 517.40 219.03 516.89 C 216.06 516.70 213.20 515.85 210.47 514.70 C 215.44 514.55 220.43 514.20 225.39 514.63 C 233.23 517.29 241.78 517.41 249.96 516.67 C 248.19 516.08 246.42 515.47 244.64 514.92 C 246.41 514.81 248.19 514.68 249.96 514.55 C 227.80 511.77 205.66 508.77 183.59 505.40 C 180.99 504.95 181.17 501.68 180.49 499.74 C 183.32 499.67 186.16 499.60 188.99 499.78 C 193.96 500.36 198.88 501.31 203.78 502.28 C 210.42 503.39 217.10 504.33 223.81 504.98 C 234.78 506.14 245.56 508.82 256.58 509.56 C 256.47 508.18 256.35 506.82 256.19 505.46 C 255.48 501.00 254.13 496.54 254.83 491.98 C 255.37 488.10 255.83 484.21 256.61 480.38 Z" />
<path fill="#723f2c" opacity="1.00" d=" M 287.18 489.18 C 291.98 487.66 296.40 484.78 301.51 484.39 C 300.72 485.61 300.43 487.44 298.84 487.95 C 293.84 490.50 288.13 491.45 283.40 494.55 C 281.25 495.98 278.95 497.17 276.50 497.97 C 279.41 494.37 282.55 490.55 287.18 489.18 Z" />
<path fill="#562b1a" opacity="1.00" d=" M 301.51 484.39 C 302.62 485.84 303.37 487.50 304.02 489.21 C 298.79 493.30 291.90 493.90 286.30 497.29 C 278.95 501.59 271.46 506.85 267.89 514.88 C 265.74 519.07 262.77 522.74 260.14 526.62 C 264.34 527.50 268.89 527.23 272.74 529.39 C 271.73 529.86 270.72 530.39 269.62 530.61 C 266.10 529.74 262.56 528.65 258.90 528.72 C 257.38 529.15 256.80 530.88 255.85 532.00 C 255.06 533.18 254.28 534.37 253.47 535.55 C 252.09 537.11 250.50 538.47 248.95 539.86 C 247.12 541.37 246.04 543.51 244.95 545.56 C 240.74 547.10 237.77 550.62 234.76 553.76 C 233.87 554.54 233.57 555.69 233.51 556.84 C 229.84 558.80 226.16 560.74 222.50 562.71 C 222.90 559.37 226.28 557.68 228.22 555.26 C 233.60 548.97 239.97 543.65 245.76 537.75 C 252.40 530.59 258.29 522.78 263.77 514.71 C 265.03 512.79 265.94 510.66 266.90 508.59 C 269.09 504.26 272.83 501.02 276.50 497.97 C 278.95 497.17 281.25 495.98 283.40 494.55 C 288.13 491.45 293.84 490.50 298.84 487.95 C 300.43 487.44 300.72 485.61 301.51 484.39 Z" />
<path fill="#c8c8c8" opacity="1.00" d=" M 154.98 512.02 C 158.00 506.69 160.18 500.90 163.34 495.63 C 163.04 503.08 165.83 510.11 168.12 517.05 C 164.86 517.05 161.60 517.15 158.35 517.36 C 146.22 518.24 133.94 519.48 122.43 523.63 C 116.73 525.73 110.89 527.39 105.23 529.60 C 104.71 528.46 104.20 527.31 103.72 526.17 L 104.87 526.02 C 113.23 525.35 120.54 520.89 128.39 518.36 C 137.03 515.36 146.18 514.28 154.98 512.02 Z" />
<path fill="#422005" opacity="1.00" d=" M 179.23 498.57 C 182.46 499.15 185.72 499.48 188.99 499.78 C 186.16 499.60 183.32 499.67 180.49 499.74 C 181.17 501.68 180.99 504.95 183.59 505.40 C 205.66 508.77 227.80 511.77 249.96 514.55 C 248.19 514.68 246.41 514.81 244.64 514.92 C 240.20 514.53 235.79 513.74 231.33 513.75 C 227.95 513.62 224.54 513.58 221.21 512.91 C 214.27 511.45 207.21 510.79 200.21 509.69 C 193.94 508.55 187.47 508.25 181.33 506.63 C 180.01 504.15 179.80 501.27 179.23 498.57 Z" />
<path fill="#e68a1a" opacity="1.00" d=" M 200.21 509.69 C 207.21 510.79 214.27 511.45 221.21 512.91 C 224.54 513.58 227.95 513.62 231.33 513.75 C 229.35 514.07 227.38 514.40 225.39 514.63 C 220.43 514.20 215.44 514.55 210.47 514.70 C 206.58 514.60 202.68 514.61 198.78 514.71 C 199.26 513.03 199.73 511.36 200.21 509.69 Z" />
<path fill="#8d8e90" opacity="1.00" d=" M 488.21 516.97 C 491.69 514.09 495.41 510.17 500.40 511.55 C 499.79 511.95 498.59 512.73 497.98 513.12 C 504.15 517.08 511.41 519.14 517.17 523.77 C 520.26 526.13 521.31 530.04 522.64 533.51 C 525.72 542.26 528.29 551.81 535.33 558.33 C 534.77 562.62 534.06 566.89 533.30 571.16 C 533.19 570.40 532.97 568.88 532.86 568.13 C 531.65 570.36 530.52 573.02 527.93 573.94 C 525.26 574.31 522.61 573.46 519.99 573.09 C 523.67 576.93 527.38 580.77 530.53 585.08 C 531.52 582.05 532.26 578.95 532.69 575.80 C 533.21 580.56 533.48 585.73 536.20 589.84 C 539.36 593.36 544.55 593.74 548.97 594.27 L 548.95 595.07 C 546.83 595.16 544.72 595.24 542.62 595.40 C 539.61 596.61 536.28 595.90 533.13 596.04 C 532.83 596.92 532.51 597.80 532.20 598.69 C 526.66 607.17 517.32 612.03 507.88 614.91 C 499.52 617.37 490.88 619.44 482.11 619.23 C 477.79 619.25 474.57 616.03 471.24 613.75 C 465.08 609.07 458.55 604.46 454.11 598.02 C 450.81 591.20 450.40 583.46 448.74 576.16 C 448.35 567.17 453.61 558.84 460.62 553.60 C 465.49 549.68 472.12 550.12 478.00 549.84 C 484.28 549.60 489.64 553.31 495.14 555.77 C 502.22 559.09 508.43 563.87 514.92 568.15 C 512.52 565.16 509.91 562.36 507.41 559.46 C 503.03 554.45 496.49 552.40 490.86 549.21 C 487.28 547.13 483.21 545.74 480.19 542.83 C 477.46 540.10 477.81 535.94 477.38 532.42 C 478.82 530.37 480.29 528.34 481.77 526.33 C 484.00 523.27 486.04 520.07 488.21 516.97 Z" />
<path fill="#dbdbdb" opacity="1.00" d=" M 500.40 511.55 C 503.59 511.32 506.82 511.34 509.91 512.28 C 524.29 516.15 538.33 521.51 551.33 528.80 C 550.99 529.28 550.30 530.25 549.96 530.73 C 551.07 532.22 552.92 531.90 554.54 532.21 C 557.67 534.55 560.96 536.67 564.28 538.75 C 565.12 541.21 566.94 542.66 569.65 542.06 C 570.17 542.55 571.19 543.51 571.71 543.99 C 570.74 546.08 570.37 548.96 567.92 549.88 C 559.43 553.84 549.16 551.93 541.16 557.18 C 539.41 558.36 537.40 559.17 535.33 558.33 C 528.29 551.81 525.72 542.26 522.64 533.51 C 521.31 530.04 520.26 526.13 517.17 523.77 C 511.41 519.14 504.15 517.08 497.98 513.12 C 498.59 512.73 499.79 511.95 500.40 511.55 Z" />
<path fill="#8e4825" opacity="1.00" d=" M 231.33 513.75 C 235.79 513.74 240.20 514.53 244.64 514.92 C 246.42 515.47 248.19 516.08 249.96 516.67 C 241.78 517.41 233.23 517.29 225.39 514.63 C 227.38 514.40 229.35 514.07 231.33 513.75 Z" />
<path fill="#422005" opacity="1.00" d=" M 190.25 515.53 C 193.09 515.21 195.93 514.85 198.78 514.71 C 202.68 514.61 206.58 514.60 210.47 514.70 C 213.20 515.85 216.06 516.70 219.03 516.89 C 224.84 517.40 230.61 518.42 236.16 520.27 C 235.78 520.80 235.40 521.32 235.01 521.85 C 229.94 520.04 224.62 519.14 219.28 518.60 C 212.25 517.74 205.18 517.21 198.12 516.66 C 195.52 516.52 192.91 516.47 190.30 516.43 C 190.29 516.21 190.26 515.75 190.25 515.53 Z" />
<path fill="#7a452b" opacity="1.00" d=" M 267.89 514.88 C 277.87 521.16 289.58 523.73 301.10 525.39 C 308.23 526.13 315.34 524.83 322.47 524.79 C 317.72 527.74 311.96 525.96 306.83 527.50 C 298.89 529.80 290.58 528.85 282.47 529.66 C 279.24 529.89 275.74 531.17 272.74 529.39 C 268.89 527.23 264.34 527.50 260.14 526.62 C 262.77 522.74 265.74 519.07 267.89 514.88 Z" />
<path fill="#733a01" opacity="1.00" d=" M 359.03 516.90 C 363.04 516.20 367.00 514.09 371.13 514.85 C 371.23 515.44 371.41 516.61 371.51 517.20 C 369.34 518.29 366.97 518.87 364.69 519.65 C 365.23 519.82 366.31 520.16 366.86 520.33 C 378.55 521.46 389.99 518.29 401.43 516.38 C 404.28 515.94 407.13 515.54 409.98 515.09 C 410.45 517.83 410.83 520.60 411.10 523.37 L 410.80 523.36 C 409.69 522.10 409.17 519.47 406.97 520.31 C 396.72 521.63 386.43 522.61 376.14 523.50 C 367.16 524.75 358.16 525.85 349.11 526.46 C 319.39 530.13 289.46 531.91 259.73 535.62 C 257.65 535.94 255.54 535.84 253.47 535.55 C 254.28 534.37 255.06 533.18 255.85 532.00 C 260.45 531.64 265.08 531.51 269.62 530.61 C 270.72 530.39 271.73 529.86 272.74 529.39 C 275.74 531.17 279.24 529.89 282.47 529.66 C 290.58 528.85 298.89 529.80 306.83 527.50 C 311.96 525.96 317.72 527.74 322.47 524.79 C 334.95 523.71 346.86 519.59 359.03 516.90 Z" />
<path fill="#c64a00" opacity="1.00" d=" M 441.12 519.13 C 446.89 517.38 452.89 515.14 459.01 516.02 C 463.12 516.61 466.22 519.64 468.48 522.91 C 461.17 525.20 453.45 525.67 445.89 526.63 C 448.70 524.94 451.66 523.54 454.70 522.30 C 454.41 521.20 454.13 520.10 453.86 519.02 C 445.97 521.04 438.69 524.83 431.02 527.47 C 430.10 525.94 429.18 524.42 428.26 522.90 C 432.85 523.39 436.88 520.45 441.12 519.13 Z" />
<path fill="#848587" opacity="1.00" d=" M 158.35 517.36 C 161.60 517.15 164.86 517.05 168.12 517.05 C 168.66 517.09 169.73 517.17 170.27 517.21 C 173.18 517.66 176.32 518.26 178.50 520.40 C 182.51 524.20 185.81 528.65 189.57 532.68 C 193.37 536.80 195.91 542.00 200.22 545.64 C 201.10 546.36 201.99 547.08 202.89 547.79 C 204.65 549.66 206.43 551.51 208.16 553.42 C 208.87 555.04 209.63 556.65 210.39 558.26 C 209.16 560.89 207.78 563.81 204.94 565.03 C 200.90 566.75 196.53 567.66 192.62 569.72 C 184.97 573.63 178.15 579.05 171.99 585.01 C 165.48 592.24 160.87 601.02 154.00 607.96 C 152.38 609.45 150.47 611.50 148.03 610.87 C 145.39 610.49 144.23 607.84 143.23 605.72 C 139.27 596.28 135.68 586.66 133.24 576.71 C 132.62 574.54 133.59 572.39 134.24 570.36 C 137.72 560.43 142.81 550.86 143.45 540.17 C 143.77 535.91 143.92 531.32 146.91 527.95 C 149.63 523.22 155.83 522.25 158.35 517.36 Z" />
<path fill="#eb8500" opacity="1.00" d=" M 198.12 516.66 C 205.18 517.21 212.25 517.74 219.28 518.60 C 218.80 522.10 218.62 525.63 218.85 529.16 C 216.20 529.85 213.63 530.76 211.06 531.69 C 212.13 532.75 213.21 533.82 214.30 534.87 C 208.47 534.33 202.74 533.16 196.97 532.26 C 196.55 527.03 196.73 521.74 198.12 516.66 Z" />
<path fill="#723a00" opacity="1.00" d=" M 480.31 519.25 C 482.93 518.44 485.58 517.76 488.21 516.97 C 486.04 520.07 484.00 523.27 481.77 526.33 C 478.55 528.40 474.57 528.47 470.99 529.56 C 460.53 531.93 450.05 534.22 439.67 536.90 L 438.34 537.14 C 435.64 537.54 433.02 538.39 430.62 539.68 C 435.69 540.78 440.90 540.31 446.01 541.01 C 449.18 541.42 452.48 541.77 455.55 540.59 C 457.22 541.42 459.06 541.62 460.91 541.53 C 463.40 543.65 467.18 542.22 470.19 542.71 C 469.30 544.10 468.44 545.53 467.60 546.96 C 464.34 545.17 460.56 545.82 457.02 545.60 C 446.69 544.85 436.36 544.27 426.06 543.18 C 422.69 542.76 419.30 543.01 415.95 543.39 C 421.52 545.03 427.12 546.85 432.98 547.04 C 438.54 547.18 444.10 547.40 449.66 547.64 C 450.25 547.79 451.43 548.07 452.02 548.22 C 449.78 548.94 447.52 549.60 445.29 550.35 C 441.11 548.70 436.54 549.40 432.17 549.37 C 432.28 550.60 432.40 551.84 432.52 553.09 C 421.48 550.90 410.21 550.38 399.02 549.40 C 377.46 549.52 356.02 546.45 334.46 547.17 C 334.07 545.19 333.67 543.23 333.22 541.28 C 337.06 537.59 342.93 539.67 347.69 538.73 C 354.07 541.53 361.13 542.04 367.99 542.62 C 375.41 542.42 383.06 543.53 390.26 541.23 C 398.95 538.61 408.05 537.22 416.30 533.26 C 420.53 531.64 425.03 530.40 428.73 527.71 C 429.15 526.07 428.65 524.42 426.85 524.04 C 422.45 523.19 417.93 523.94 413.49 523.47 C 418.29 522.10 423.36 521.97 428.26 522.90 C 429.18 524.42 430.10 525.94 431.02 527.47 C 438.69 524.83 445.97 521.04 453.86 519.02 C 454.13 520.10 454.41 521.20 454.70 522.30 C 451.66 523.54 448.70 524.94 445.89 526.63 C 453.45 525.67 461.17 525.20 468.48 522.91 C 472.42 521.69 476.37 520.49 480.31 519.25 Z" />
<path fill="#757678" opacity="1.00" d=" M 122.43 523.63 C 133.94 519.48 146.22 518.24 158.35 517.36 C 155.83 522.25 149.63 523.22 146.91 527.95 C 143.92 531.32 143.77 535.91 143.45 540.17 C 143.19 539.90 142.67 539.36 142.41 539.09 C 139.04 551.61 132.66 562.95 125.79 573.83 C 119.60 572.35 113.33 570.93 106.92 571.05 C 101.91 571.41 98.13 567.50 93.41 566.55 C 84.67 563.85 75.84 567.55 67.69 570.46 C 65.36 553.09 78.77 536.49 95.20 532.23 C 98.50 531.15 102.09 531.13 105.23 529.60 C 110.89 527.39 116.73 525.73 122.43 523.63 Z" />
<path fill="#c64901" opacity="1.00" d=" M 219.28 518.60 C 224.62 519.14 229.94 520.04 235.01 521.85 C 233.73 523.07 232.37 524.21 230.91 525.21 C 226.87 526.49 223.02 528.31 218.85 529.16 C 218.62 525.63 218.80 522.10 219.28 518.60 Z" />
<path fill="#5f2d00" opacity="1.00" d=" M 376.14 523.50 C 386.43 522.61 396.72 521.63 406.97 520.31 C 409.17 519.47 409.69 522.10 410.80 523.36 C 393.70 524.52 376.69 526.60 359.66 528.50 C 351.60 529.82 343.34 529.60 335.37 531.49 C 329.22 530.83 323.19 532.66 317.06 532.84 C 311.42 533.07 305.36 533.29 300.76 537.02 L 301.15 536.11 C 297.29 535.23 293.30 535.12 289.39 535.66 C 282.97 536.59 276.49 537.05 270.03 537.56 C 272.88 538.04 275.74 538.48 278.63 538.73 C 274.69 540.68 270.22 539.83 266.00 540.11 C 260.32 540.41 254.63 540.20 248.95 539.86 C 250.50 538.47 252.09 537.11 253.47 535.55 C 255.54 535.84 257.65 535.94 259.73 535.62 C 289.46 531.91 319.39 530.13 349.11 526.46 C 358.16 525.85 367.16 524.75 376.14 523.50 Z" />
<path fill="#73432c" opacity="1.00" d=" M 410.80 523.36 L 411.10 523.37 C 411.89 523.41 412.69 523.44 413.49 523.47 C 417.93 523.94 422.45 523.19 426.85 524.04 C 428.65 524.42 429.15 526.07 428.73 527.71 C 425.03 530.40 420.53 531.64 416.30 533.26 C 404.83 533.77 393.45 535.52 381.99 536.15 C 370.52 536.26 359.06 537.17 347.69 538.73 C 342.93 539.67 337.06 537.59 333.22 541.28 C 329.47 543.70 325.29 545.37 321.62 547.93 C 321.11 547.92 320.09 547.89 319.58 547.87 C 323.33 544.93 327.58 542.72 331.47 539.97 C 331.35 539.24 331.12 537.79 331.00 537.06 C 321.67 536.12 312.23 537.44 303.09 539.32 C 302.78 539.01 302.15 538.40 301.84 538.09 C 312.77 534.66 324.33 534.26 335.37 531.49 C 343.34 529.60 351.60 529.82 359.66 528.50 C 376.69 526.60 393.70 524.52 410.80 523.36 Z" />
<path fill="#632c16" opacity="1.00" d=" M 218.85 529.16 C 223.02 528.31 226.87 526.49 230.91 525.21 C 236.57 524.95 242.50 523.79 247.96 525.92 C 246.50 526.68 244.92 527.16 243.27 527.20 C 234.89 526.36 226.82 529.16 219.32 532.57 C 217.70 533.33 216.11 534.13 214.51 534.92 L 214.30 534.87 C 213.21 533.82 212.13 532.75 211.06 531.69 C 213.63 530.76 216.20 529.85 218.85 529.16 Z" />
<path fill="#fca51c" opacity="1.00" d=" M 470.99 529.56 C 474.57 528.47 478.55 528.40 481.77 526.33 C 480.29 528.34 478.82 530.37 477.38 532.42 C 475.70 534.83 473.96 537.19 472.27 539.59 C 472.03 536.22 471.65 532.87 470.99 529.56 Z" />
<path fill="#c74801" opacity="1.00" d=" M 219.32 532.57 C 226.82 529.16 234.89 526.36 243.27 527.20 C 243.38 527.60 243.61 528.42 243.73 528.83 C 238.74 532.20 234.70 538.70 227.86 537.46 C 225.67 537.08 223.48 536.73 221.30 536.39 C 220.63 535.11 219.98 533.84 219.32 532.57 Z" />
<path fill="#a44b12" opacity="1.00" d=" M 255.85 532.00 C 256.80 530.88 257.38 529.15 258.90 528.72 C 262.56 528.65 266.10 529.74 269.62 530.61 C 265.08 531.51 260.45 531.64 255.85 532.00 Z" />
<path fill="#c74901" opacity="1.00" d=" M 439.67 536.90 C 450.05 534.22 460.53 531.93 470.99 529.56 C 471.65 532.87 472.03 536.22 472.27 539.59 C 471.56 540.61 470.86 541.65 470.19 542.71 C 467.18 542.22 463.40 543.65 460.91 541.53 C 462.35 539.66 463.87 537.86 465.33 536.01 C 464.34 535.04 463.37 534.08 462.39 533.13 C 459.93 535.45 457.71 537.99 455.55 540.59 C 452.48 541.77 449.18 541.42 446.01 541.01 C 440.90 540.31 435.69 540.78 430.62 539.68 C 433.02 538.39 435.64 537.54 438.34 537.14 C 443.05 539.95 448.82 539.35 453.30 536.37 C 448.85 534.94 444.21 536.97 439.67 536.90 Z" />
<path fill="#422005" opacity="1.00" d=" M 317.06 532.84 C 323.19 532.66 329.22 530.83 335.37 531.49 C 324.33 534.26 312.77 534.66 301.84 538.09 C 301.57 537.82 301.03 537.29 300.76 537.02 C 305.36 533.29 311.42 533.07 317.06 532.84 Z" />
<path fill="#683300" opacity="1.00" d=" M 188.69 531.02 C 191.46 531.35 194.22 531.77 196.97 532.26 C 202.74 533.16 208.47 534.33 214.30 534.87 L 214.51 534.92 C 216.75 535.52 219.00 536.04 221.30 536.39 C 223.48 536.73 225.67 537.08 227.86 537.46 C 229.27 537.73 230.68 538.05 232.09 538.38 C 230.71 540.58 228.64 542.13 226.49 543.51 C 217.61 542.04 208.68 540.90 199.75 539.81 C 198.13 539.62 196.51 539.45 194.89 539.31 C 196.52 541.53 198.20 543.74 200.22 545.64 C 195.91 542.00 193.37 536.80 189.57 532.68 L 188.69 531.02 Z" />
<path fill="#c5761d" opacity="1.00" d=" M 214.51 534.92 C 216.11 534.13 217.70 533.33 219.32 532.57 C 219.98 533.84 220.63 535.11 221.30 536.39 C 219.00 536.04 216.75 535.52 214.51 534.92 Z" />
<path fill="#492610" opacity="1.00" d=" M 381.99 536.15 C 393.45 535.52 404.83 533.77 416.30 533.26 C 408.05 537.22 398.95 538.61 390.26 541.23 C 383.06 543.53 375.41 542.42 367.99 542.62 C 361.13 542.04 354.07 541.53 347.69 538.73 C 359.06 537.17 370.52 536.26 381.99 536.15 M 373.09 540.97 C 377.08 542.84 382.03 542.29 385.98 540.48 C 381.72 540.35 377.07 538.92 373.09 540.97 Z" />
<path fill="#633827" opacity="1.00" d=" M 462.39 533.13 C 463.37 534.08 464.34 535.04 465.33 536.01 C 463.87 537.86 462.35 539.66 460.91 541.53 C 459.06 541.62 457.22 541.42 455.55 540.59 C 457.71 537.99 459.93 535.45 462.39 533.13 Z" />
<path fill="#757678" opacity="1.00" d=" M 472.27 539.59 C 473.96 537.19 475.70 534.83 477.38 532.42 C 477.81 535.94 477.46 540.10 480.19 542.83 C 483.21 545.74 487.28 547.13 490.86 549.21 C 496.49 552.40 503.03 554.45 507.41 559.46 C 509.91 562.36 512.52 565.16 514.92 568.15 C 508.43 563.87 502.22 559.09 495.14 555.77 C 489.64 553.31 484.28 549.60 478.00 549.84 C 472.12 550.12 465.49 549.68 460.62 553.60 C 453.61 558.84 448.35 567.17 448.74 576.16 C 448.31 575.08 447.87 574.01 447.41 572.96 C 447.06 580.33 446.52 587.69 445.72 595.03 C 445.41 597.75 443.72 600.03 442.32 602.31 C 437.15 610.16 431.30 617.54 425.79 625.15 C 424.64 620.79 422.85 616.59 420.20 612.93 C 417.24 608.38 413.90 604.08 410.07 600.24 C 410.52 598.43 410.96 596.61 411.46 594.82 C 411.59 594.39 411.85 593.53 411.99 593.09 C 412.38 591.80 412.79 590.51 413.23 589.25 C 413.69 587.89 414.16 586.54 414.63 585.19 C 415.05 583.94 415.49 582.70 415.99 581.49 C 416.78 579.83 417.66 578.21 418.53 576.60 C 420.23 573.39 421.82 570.09 424.09 567.24 C 426.13 564.89 428.41 562.75 430.56 560.50 C 431.91 559.08 433.25 557.65 434.70 556.33 C 438.33 554.51 441.50 551.87 445.29 550.35 C 447.52 549.60 449.78 548.94 452.02 548.22 C 451.43 548.07 450.25 547.79 449.66 547.64 C 455.64 547.60 461.64 547.61 467.60 546.96 C 468.44 545.53 469.30 544.10 470.19 542.71 C 470.86 541.65 471.56 540.61 472.27 539.59 Z" />
<path fill="#c34a08" opacity="1.00" d=" M 289.39 535.66 C 293.30 535.12 297.29 535.23 301.15 536.11 L 300.76 537.02 C 293.78 540.23 286.01 538.87 278.63 538.73 C 275.74 538.48 272.88 538.04 270.03 537.56 C 276.49 537.05 282.97 536.59 289.39 535.66 Z" />
<path fill="#e77810" opacity="1.00" d=" M 439.67 536.90 C 444.21 536.97 448.85 534.94 453.30 536.37 C 448.82 539.35 443.05 539.95 438.34 537.14 L 439.67 536.90 Z" />
<path fill="#6e3901" opacity="1.00" d=" M 278.63 538.73 C 286.01 538.87 293.78 540.23 300.76 537.02 C 301.03 537.29 301.57 537.82 301.84 538.09 C 302.15 538.40 302.78 539.01 303.09 539.32 C 302.13 539.71 301.20 540.14 300.26 540.57 C 300.63 540.94 301.37 541.68 301.74 542.04 C 299.16 542.58 296.57 543.08 293.99 543.61 C 302.23 546.31 310.88 548.00 319.58 547.87 C 320.09 547.89 321.11 547.92 321.62 547.93 C 326.39 548.75 331.22 548.58 336.04 548.70 C 339.11 548.73 341.88 551.26 344.99 550.07 C 354.48 547.10 364.31 549.87 373.92 550.46 C 368.64 551.42 363.08 552.04 358.41 554.90 C 352.50 553.99 346.71 551.42 340.64 552.48 C 330.94 553.19 321.33 554.88 311.58 554.93 C 306.09 552.15 299.82 553.05 293.95 551.97 C 286.70 550.61 279.32 550.13 272.04 548.93 C 269.22 548.39 266.36 548.69 263.55 549.05 C 263.23 548.94 262.60 548.72 262.29 548.61 C 261.24 547.25 259.73 546.56 258.03 546.73 C 253.64 546.71 249.27 546.30 244.95 545.56 C 246.04 543.51 247.12 541.37 248.95 539.86 C 254.63 540.20 260.32 540.41 266.00 540.11 C 270.22 539.83 274.69 540.68 278.63 538.73 Z" />
<path fill="#44250d" opacity="1.00" d=" M 303.09 539.32 C 312.23 537.44 321.67 536.12 331.00 537.06 C 331.12 537.79 331.35 539.24 331.47 539.97 C 327.58 542.72 323.33 544.93 319.58 547.87 C 310.88 548.00 302.23 546.31 293.99 543.61 C 296.57 543.08 299.16 542.58 301.74 542.04 C 301.37 541.68 300.63 540.94 300.26 540.57 C 301.20 540.14 302.13 539.71 303.09 539.32 M 313.83 540.44 L 313.49 541.02 C 310.67 541.69 307.03 541.18 304.92 543.52 C 307.24 543.50 309.55 543.24 311.83 542.77 C 314.55 546.77 319.65 543.86 322.65 541.79 C 320.16 539.77 316.71 541.50 313.83 540.44 Z" />
<path fill="#6a6b6d" opacity="1.00" d=" M 142.41 539.09 C 142.67 539.36 143.19 539.90 143.45 540.17 C 142.81 550.86 137.72 560.43 134.24 570.36 C 133.59 572.39 132.62 574.54 133.24 576.71 C 135.68 586.66 139.27 596.28 143.23 605.72 C 144.23 607.84 145.39 610.49 148.03 610.87 C 150.47 611.50 152.38 609.45 154.00 607.96 C 160.87 601.02 165.48 592.24 171.99 585.01 C 178.15 579.05 184.97 573.63 192.62 569.72 C 196.53 567.66 200.90 566.75 204.94 565.03 C 207.78 563.81 209.16 560.89 210.39 558.26 C 211.74 561.20 212.40 564.39 213.09 567.54 C 210.10 569.03 207.00 570.35 203.72 571.04 C 196.41 572.46 190.27 577.04 184.77 581.82 C 176.61 589.28 169.68 598.32 165.73 608.72 C 163.78 613.70 163.44 619.08 162.19 624.24 C 150.02 621.62 138.29 617.43 126.47 613.61 C 117.90 610.86 108.88 610.50 100.03 609.40 C 93.99 609.08 87.65 607.90 82.67 604.27 C 79.18 601.04 77.09 596.60 73.62 593.35 C 71.67 591.19 69.19 589.45 67.70 586.92 C 67.33 581.45 68.03 575.95 67.69 570.46 C 75.84 567.55 84.67 563.85 93.41 566.55 C 98.13 567.50 101.91 571.41 106.92 571.05 C 113.33 570.93 119.60 572.35 125.79 573.83 C 132.66 562.95 139.04 551.61 142.41 539.09 Z" />
<path fill="#e0a641" opacity="1.00" d=" M 194.89 539.31 C 196.51 539.45 198.13 539.62 199.75 539.81 C 199.71 540.27 199.64 541.21 199.60 541.67 C 200.89 543.59 201.98 545.65 202.89 547.79 C 201.99 547.08 201.10 546.36 200.22 545.64 C 198.20 543.74 196.52 541.53 194.89 539.31 Z" />
<path fill="#eb8400" opacity="1.00" d=" M 199.75 539.81 C 208.68 540.90 217.61 542.04 226.49 543.51 C 223.79 545.48 221.40 548.05 218.09 549.00 C 214.64 550.14 211.30 551.59 208.16 553.42 C 206.43 551.51 204.65 549.66 202.89 547.79 C 201.98 545.65 200.89 543.59 199.60 541.67 C 199.64 541.21 199.71 540.27 199.75 539.81 Z" />
<path fill="#c7490a" opacity="1.00" d=" M 313.83 540.44 C 316.71 541.50 320.16 539.77 322.65 541.79 C 319.65 543.86 314.55 546.77 311.83 542.77 C 312.45 542.25 313.11 541.74 313.49 541.02 L 313.83 540.44 Z" />
<path fill="#7b421e" opacity="1.00" d=" M 373.09 540.97 C 377.07 538.92 381.72 540.35 385.98 540.48 C 382.03 542.29 377.08 542.84 373.09 540.97 Z" />
<path fill="#efaa35" opacity="1.00" d=" M 304.92 543.52 C 307.03 541.18 310.67 541.69 313.49 541.02 C 313.11 541.74 312.45 542.25 311.83 542.77 C 309.55 543.24 307.24 543.50 304.92 543.52 Z" />
<path fill="#452305" opacity="1.00" d=" M 321.62 547.93 C 325.29 545.37 329.47 543.70 333.22 541.28 C 333.67 543.23 334.07 545.19 334.46 547.17 C 356.02 546.45 377.46 549.52 399.02 549.40 C 410.21 550.38 421.48 550.90 432.52 553.09 C 432.40 551.84 432.28 550.60 432.17 549.37 C 436.54 549.40 441.11 548.70 445.29 550.35 C 441.50 551.87 438.33 554.51 434.70 556.33 C 432.54 556.07 430.38 555.86 428.21 555.77 C 428.27 555.36 428.39 554.52 428.44 554.11 C 427.51 554.28 426.59 554.47 425.67 554.66 C 418.78 550.32 410.25 552.88 403.12 555.21 C 388.38 557.73 373.02 558.65 358.41 554.90 C 363.08 552.04 368.64 551.42 373.92 550.46 C 364.31 549.87 354.48 547.10 344.99 550.07 C 341.88 551.26 339.11 548.73 336.04 548.70 C 331.22 548.58 326.39 548.75 321.62 547.93 M 368.09 554.64 C 371.59 555.53 375.23 556.15 378.85 555.72 C 384.74 556.14 390.77 555.68 396.31 553.52 C 391.96 553.05 387.55 553.19 383.19 553.47 L 383.45 552.08 C 378.10 551.53 373.33 554.48 368.09 554.64 Z" />
<path fill="#623102" opacity="1.00" d=" M 415.95 543.39 C 419.30 543.01 422.69 542.76 426.06 543.18 C 436.36 544.27 446.69 544.85 457.02 545.60 C 460.56 545.82 464.34 545.17 467.60 546.96 C 461.64 547.61 455.64 547.60 449.66 547.64 C 444.10 547.40 438.54 547.18 432.98 547.04 C 427.12 546.85 421.52 545.03 415.95 543.39 Z" />
<path fill="#adaeb0" opacity="1.00" d=" M 571.71 543.99 C 573.46 546.20 574.63 548.80 575.42 551.50 C 575.75 552.49 576.07 553.49 576.38 554.51 C 577.13 556.05 577.84 557.62 578.49 559.23 C 575.16 563.03 571.61 566.81 567.04 569.11 C 561.36 572.15 554.92 573.81 549.81 577.85 C 560.65 574.66 570.74 569.43 580.86 564.49 C 582.06 567.38 582.46 570.47 582.06 573.59 C 578.39 579.64 572.25 583.60 566.42 587.34 C 563.81 588.84 561.30 590.52 558.61 591.87 C 558.08 591.98 557.03 592.21 556.50 592.32 C 555.53 592.74 554.54 593.11 553.54 593.42 C 552.13 594.17 550.53 594.40 548.97 594.27 C 544.55 593.74 539.36 593.36 536.20 589.84 C 533.48 585.73 533.21 580.56 532.69 575.80 C 532.87 574.24 533.09 572.70 533.30 571.16 C 534.06 566.89 534.77 562.62 535.33 558.33 C 537.40 559.17 539.41 558.36 541.16 557.18 C 549.16 551.93 559.43 553.84 567.92 549.88 C 570.37 548.96 570.74 546.08 571.71 543.99 Z" />
<path fill="#3f230f" opacity="1.00" d=" M 234.76 553.76 C 237.77 550.62 240.74 547.10 244.95 545.56 C 249.27 546.30 253.64 546.71 258.03 546.73 C 259.73 546.56 261.24 547.25 262.29 548.61 C 251.91 546.69 242.48 552.56 233.51 556.84 C 233.57 555.69 233.87 554.54 234.76 553.76 Z" />
<path fill="#c8c8c8" opacity="1.00" d=" M 233.51 556.84 C 242.48 552.56 251.91 546.69 262.29 548.61 C 262.60 548.72 263.23 548.94 263.55 549.05 C 268.84 550.92 273.87 553.44 278.55 556.52 C 275.66 556.97 271.17 555.15 269.59 558.56 C 267.24 565.21 270.04 572.02 271.87 578.41 C 270.24 582.14 271.57 586.12 271.73 589.97 C 271.92 597.51 269.78 604.80 268.33 612.11 C 267.51 615.43 268.63 619.30 266.64 622.26 C 259.94 616.88 252.02 613.43 244.43 609.55 C 233.87 604.20 223.00 599.38 213.00 593.00 C 210.68 591.34 207.95 589.75 206.82 586.99 C 205.47 582.34 208.53 577.75 207.94 573.17 C 206.60 572.32 205.14 571.70 203.72 571.04 C 207.00 570.35 210.10 569.03 213.09 567.54 C 216.25 565.98 219.41 564.42 222.50 562.71 C 226.16 560.74 229.84 558.80 233.51 556.84 Z" />
<path fill="#40240d" opacity="1.00" d=" M 263.55 549.05 C 266.36 548.69 269.22 548.39 272.04 548.93 C 279.32 550.13 286.70 550.61 293.95 551.97 C 299.82 553.05 306.09 552.15 311.58 554.93 C 301.64 556.73 291.47 556.67 281.54 558.41 C 280.54 557.76 279.55 557.14 278.55 556.52 C 273.87 553.44 268.84 550.92 263.55 549.05 M 278.73 553.12 C 279.54 554.08 280.55 554.95 281.90 554.92 C 285.98 555.29 290.22 555.54 294.21 554.36 C 289.15 553.24 283.91 552.41 278.73 553.12 Z" />
<path fill="#73422d" opacity="1.00" d=" M 340.64 552.48 C 346.71 551.42 352.50 553.99 358.41 554.90 C 373.02 558.65 388.38 557.73 403.12 555.21 C 410.25 552.88 418.78 550.32 425.67 554.66 C 425.42 556.07 425.20 557.49 425.01 558.91 C 424.82 560.36 424.69 561.82 424.56 563.28 C 420.39 563.82 416.21 563.08 412.03 563.29 C 397.35 564.23 382.73 566.33 368.00 566.35 C 357.43 566.94 346.90 568.10 336.42 569.58 C 326.96 570.54 318.98 576.32 311.64 581.90 C 311.11 581.45 310.58 581.02 310.06 580.58 C 315.60 577.21 321.05 573.73 326.65 570.46 C 326.68 569.33 326.72 568.20 326.76 567.08 C 317.06 565.23 307.31 568.36 297.62 568.84 C 304.07 565.50 311.61 565.26 318.63 563.82 C 326.19 563.23 333.75 562.14 341.12 560.32 C 338.74 560.02 336.36 559.77 333.98 559.57 C 336.04 559.21 338.10 558.82 340.15 558.39 C 338.10 558.14 336.03 557.96 333.97 558.18 C 324.49 559.10 315.06 560.49 305.57 561.30 C 300.12 561.99 294.51 561.80 289.26 563.61 C 286.66 561.90 284.11 560.14 281.54 558.41 C 291.47 556.67 301.64 556.73 311.58 554.93 C 321.33 554.88 330.94 553.19 340.64 552.48 Z" />
<path fill="#e7891b" opacity="1.00" d=" M 368.09 554.64 C 373.33 554.48 378.10 551.53 383.45 552.08 L 383.19 553.47 C 381.76 554.25 380.33 555.03 378.85 555.72 C 375.23 556.15 371.59 555.53 368.09 554.64 Z" />
<path fill="#914617" opacity="1.00" d=" M 278.73 553.12 C 283.91 552.41 289.15 553.24 294.21 554.36 C 290.22 555.54 285.98 555.29 281.90 554.92 C 280.55 554.95 279.54 554.08 278.73 553.12 Z" />
<path fill="#be521b" opacity="1.00" d=" M 383.19 553.47 C 387.55 553.19 391.96 553.05 396.31 553.52 C 390.77 555.68 384.74 556.14 378.85 555.72 C 380.33 555.03 381.76 554.25 383.19 553.47 Z" />
<path fill="#c24704" opacity="1.00" d=" M 425.67 554.66 C 426.59 554.47 427.51 554.28 428.44 554.11 C 428.39 554.52 428.27 555.36 428.21 555.77 C 430.38 555.86 432.54 556.07 434.70 556.33 C 433.25 557.65 431.91 559.08 430.56 560.50 C 428.71 559.96 426.86 559.43 425.01 558.91 C 425.20 557.49 425.42 556.07 425.67 554.66 Z" />
<path fill="#dcdcdc" opacity="1.00" d=" M 269.59 558.56 C 271.17 555.15 275.66 556.97 278.55 556.52 C 279.55 557.14 280.54 557.76 281.54 558.41 C 284.11 560.14 286.66 561.90 289.26 563.61 C 290.25 564.28 291.26 564.99 292.25 565.70 C 295.00 567.65 297.66 569.75 300.15 572.04 L 301.24 572.99 C 302.67 574.27 304.13 575.53 305.62 576.75 L 305.88 576.96 C 307.27 578.16 308.65 579.39 310.06 580.58 C 310.58 581.02 311.11 581.45 311.64 581.90 C 312.85 582.91 314.07 583.94 315.25 585.01 C 317.12 586.78 318.86 588.69 320.47 590.71 C 318.32 600.68 318.83 610.90 317.92 621.01 C 317.94 631.26 312.94 640.85 306.58 648.61 C 304.09 651.92 299.71 653.83 295.66 652.39 C 287.82 649.97 279.68 646.10 274.84 639.23 C 271.84 627.12 272.23 614.38 272.42 601.97 C 273.31 594.14 274.14 586.11 271.87 578.41 C 270.04 572.02 267.24 565.21 269.59 558.56 Z" />
<path fill="#5a3620" opacity="1.00" d=" M 305.57 561.30 C 315.06 560.49 324.49 559.10 333.97 558.18 C 336.03 557.96 338.10 558.14 340.15 558.39 C 338.10 558.82 336.04 559.21 333.98 559.57 C 336.36 559.77 338.74 560.02 341.12 560.32 C 333.75 562.14 326.19 563.23 318.63 563.82 C 314.31 562.05 309.55 562.43 305.03 562.88 C 300.71 563.52 296.28 563.92 292.25 565.70 C 291.26 564.99 290.25 564.28 289.26 563.61 C 294.51 561.80 300.12 561.99 305.57 561.30 Z" />
<path fill="#462510" opacity="1.00" d=" M 425.01 558.91 C 426.86 559.43 428.71 559.96 430.56 560.50 C 428.41 562.75 426.13 564.89 424.09 567.24 C 416.38 568.04 408.63 568.47 400.97 569.66 C 389.44 570.99 377.80 570.35 366.22 570.38 C 366.45 571.17 366.67 571.96 366.91 572.77 C 360.67 570.98 354.18 572.75 348.71 575.88 C 345.59 577.58 342.64 579.59 339.93 581.88 C 338.72 582.88 337.51 583.90 336.35 584.95 C 336.23 584.29 335.99 582.96 335.87 582.29 C 329.02 583.40 322.05 583.59 315.25 585.01 C 314.07 583.94 312.85 582.91 311.64 581.90 C 318.98 576.32 326.96 570.54 336.42 569.58 C 346.90 568.10 357.43 566.94 368.00 566.35 C 382.73 566.33 397.35 564.23 412.03 563.29 C 416.21 563.08 420.39 563.82 424.56 563.28 C 424.69 561.82 424.82 560.36 425.01 558.91 M 379.33 567.59 C 379.33 567.83 379.34 568.31 379.35 568.55 C 382.92 568.76 386.50 568.91 390.08 568.72 C 392.18 568.51 394.61 568.75 396.21 567.07 C 390.59 566.18 384.99 568.11 379.33 567.59 M 334.81 572.76 C 332.53 573.60 330.71 575.29 328.62 576.48 C 326.91 577.57 324.78 578.24 323.76 580.13 C 327.89 580.47 332.09 580.11 336.12 579.16 C 336.35 578.70 336.82 577.78 337.05 577.31 C 340.90 577.85 344.64 576.25 347.64 573.94 C 349.96 572.30 345.29 570.98 344.23 572.56 C 341.09 572.44 337.90 572.18 334.81 572.76 Z" />
<path fill="#8a8b8b" opacity="1.00" d=" M 578.49 559.23 L 578.83 558.84 C 579.50 560.72 580.18 562.60 580.86 564.49 C 570.74 569.43 560.65 574.66 549.81 577.85 C 554.92 573.81 561.36 572.15 567.04 569.11 C 571.61 566.81 575.16 563.03 578.49 559.23 Z" />
<path fill="#472611" opacity="1.00" d=" M 292.25 565.70 C 296.28 563.92 300.71 563.52 305.03 562.88 C 309.55 562.43 314.31 562.05 318.63 563.82 C 311.61 565.26 304.07 565.50 297.62 568.84 C 307.31 568.36 317.06 565.23 326.76 567.08 C 326.72 568.20 326.68 569.33 326.65 570.46 C 321.05 573.73 315.60 577.21 310.06 580.58 C 308.65 579.39 307.27 578.16 305.88 576.96 C 310.91 575.69 316.04 574.13 319.86 570.41 C 313.29 570.80 306.56 570.24 300.15 572.04 C 297.66 569.75 295.00 567.65 292.25 565.70 Z" />
<path fill="#be521b" opacity="1.00" d=" M 379.33 567.59 C 384.99 568.11 390.59 566.18 396.21 567.07 C 394.61 568.75 392.18 568.51 390.08 568.72 C 386.50 568.91 382.92 568.76 379.35 568.55 C 379.34 568.31 379.33 567.83 379.33 567.59 Z" />
<path fill="#76462d" opacity="1.00" d=" M 400.97 569.66 C 408.63 568.47 416.38 568.04 424.09 567.24 C 421.82 570.09 420.23 573.39 418.53 576.60 C 411.79 576.10 405.27 578.23 398.75 579.53 C 395.24 580.20 391.76 581.10 388.50 582.59 C 381.77 578.38 374.54 574.95 366.91 572.77 C 366.67 571.96 366.45 571.17 366.22 570.38 C 377.80 570.35 389.44 570.99 400.97 569.66 Z" />
<path fill="#7a7a7c" opacity="1.00" d=" M 527.93 573.94 C 530.52 573.02 531.65 570.36 532.86 568.13 C 532.97 568.88 533.19 570.40 533.30 571.16 C 533.09 572.70 532.87 574.24 532.69 575.80 C 532.26 578.95 531.52 582.05 530.53 585.08 C 527.38 580.77 523.67 576.93 519.99 573.09 C 522.61 573.46 525.26 574.31 527.93 573.94 Z" />
<path fill="#c24907" opacity="1.00" d=" M 300.15 572.04 C 306.56 570.24 313.29 570.80 319.86 570.41 C 316.04 574.13 310.91 575.69 305.88 576.96 L 305.62 576.75 C 306.40 575.81 307.18 574.88 307.96 573.95 C 305.71 573.67 303.46 573.41 301.24 572.99 L 300.15 572.04 Z" />
<path fill="#999a9c" opacity="1.00" d=" M 184.77 581.82 C 190.27 577.04 196.41 572.46 203.72 571.04 C 205.14 571.70 206.60 572.32 207.94 573.17 C 208.53 577.75 205.47 582.34 206.82 586.99 C 207.95 589.75 210.68 591.34 213.00 593.00 C 223.00 599.38 233.87 604.20 244.43 609.55 C 252.02 613.43 259.94 616.88 266.64 622.26 C 267.42 623.55 267.95 624.99 267.98 626.52 C 267.29 628.97 266.79 631.48 266.89 634.05 C 267.00 639.20 266.46 644.48 268.05 649.47 C 268.14 653.06 267.65 656.63 266.98 660.15 C 264.79 660.08 262.41 660.53 260.43 659.34 C 257.78 659.01 254.91 659.61 252.46 658.35 C 250.12 658.05 247.57 658.55 245.44 657.35 C 243.10 657.06 240.59 657.49 238.44 656.36 C 236.75 656.16 234.96 656.28 233.45 655.38 C 231.42 655.14 229.25 655.39 227.41 654.35 C 225.40 654.13 223.28 654.34 221.44 653.37 C 219.76 653.16 218.02 653.14 216.45 652.43 C 215.08 652.18 213.69 652.01 212.43 651.40 C 210.75 651.18 209.00 651.18 207.44 650.45 C 206.08 650.18 204.71 649.97 203.46 649.39 C 201.76 649.17 200.02 649.12 198.44 648.44 C 197.10 648.15 195.77 647.88 194.47 647.49 C 193.46 647.13 192.46 646.78 191.46 646.44 C 190.11 646.21 188.76 645.96 187.48 645.48 C 186.47 645.12 185.46 644.77 184.46 644.42 C 183.47 644.10 182.48 643.77 181.51 643.43 C 181.02 643.16 180.03 642.63 179.53 642.36 C 178.06 641.97 176.64 641.43 175.24 640.84 C 173.60 639.79 172.00 638.69 170.30 637.76 C 168.77 636.22 167.01 634.96 165.13 633.90 C 164.62 632.44 164.08 631.00 163.56 629.56 C 162.84 627.97 163.10 626.08 162.12 624.61 L 162.19 624.24 C 163.44 619.08 163.78 613.70 165.73 608.72 C 169.68 598.32 176.61 589.28 184.77 581.82 Z" />
<path fill="#bc5008" opacity="1.00" d=" M 334.81 572.76 C 337.90 572.18 341.09 572.44 344.23 572.56 L 344.32 572.57 C 339.94 573.61 335.46 574.27 331.26 575.95 C 333.17 576.47 335.09 576.95 337.05 577.31 C 336.82 577.78 336.35 578.70 336.12 579.16 C 332.09 580.11 327.89 580.47 323.76 580.13 C 324.78 578.24 326.91 577.57 328.62 576.48 C 330.71 575.29 332.53 573.60 334.81 572.76 Z" />
<path fill="#b2782e" opacity="1.00" d=" M 344.23 572.56 C 345.29 570.98 349.96 572.30 347.64 573.94 C 346.49 573.56 345.38 573.10 344.32 572.57 L 344.23 572.56 Z" />
<path fill="#dbdbdb" opacity="1.00" d=" M 348.71 575.88 C 354.18 572.75 360.67 570.98 366.91 572.77 C 374.54 574.95 381.77 578.38 388.50 582.59 C 389.69 583.33 390.90 584.10 392.08 584.91 C 394.16 586.43 396.21 588.01 398.26 589.59 C 399.77 590.80 401.28 592.04 402.75 593.32 C 404.43 594.83 406.08 596.39 407.73 597.96 C 408.51 598.70 409.29 599.46 410.07 600.24 C 413.90 604.08 417.24 608.38 420.20 612.93 C 420.32 617.92 419.53 623.12 416.23 627.08 C 410.05 635.22 400.28 640.92 389.95 641.18 C 386.49 641.25 382.66 640.40 380.40 637.58 C 378.14 634.91 377.80 631.31 377.20 628.02 C 376.10 620.24 371.98 613.42 368.75 606.40 C 364.81 594.85 359.23 582.85 348.71 575.88 Z" />
<path fill="#462303" opacity="1.00" d=" M 301.24 572.99 C 303.46 573.41 305.71 573.67 307.96 573.95 C 307.18 574.88 306.40 575.81 305.62 576.75 C 304.13 575.53 302.67 574.27 301.24 572.99 Z" />
<path fill="#ee8308" opacity="1.00" d=" M 331.26 575.95 C 335.46 574.27 339.94 573.61 344.32 572.57 C 345.38 573.10 346.49 573.56 347.64 573.94 C 344.64 576.25 340.90 577.85 337.05 577.31 C 335.09 576.95 333.17 576.47 331.26 575.95 Z" />
<path fill="#6a6b6d" opacity="1.00" d=" M 445.72 595.03 C 446.52 587.69 447.06 580.33 447.41 572.96 C 447.87 574.01 448.31 575.08 448.74 576.16 C 450.40 583.46 450.81 591.20 454.11 598.02 C 458.55 604.46 465.08 609.07 471.24 613.75 C 474.57 616.03 477.79 619.25 482.11 619.23 C 490.88 619.44 499.52 617.37 507.88 614.91 C 517.32 612.03 526.66 607.17 532.20 598.69 C 531.39 607.27 525.75 614.89 518.94 619.88 C 511.13 626.33 501.32 629.41 492.08 633.20 C 488.24 634.68 484.48 636.40 480.54 637.60 C 472.21 641.30 463.15 643.65 453.99 643.37 C 444.66 643.33 435.11 644.03 426.12 640.95 C 427.04 635.73 427.19 630.30 425.79 625.15 C 431.30 617.54 437.15 610.16 442.32 602.31 C 443.72 600.03 445.41 597.75 445.72 595.03 Z" />
<path fill="#c8c8c8" opacity="1.00" d=" M 339.93 581.88 C 342.64 579.59 345.59 577.58 348.71 575.88 C 359.23 582.85 364.81 594.85 368.75 606.40 C 368.51 611.65 370.80 616.54 371.54 621.67 C 374.01 632.97 372.01 645.50 364.81 654.75 C 360.43 661.17 352.56 664.44 344.97 664.68 C 340.03 664.95 335.11 664.27 330.18 663.93 L 329.32 663.86 C 326.63 660.77 322.94 658.45 321.21 654.63 C 319.90 652.07 318.43 649.51 318.85 646.52 C 317.59 645.28 317.69 644.32 319.15 643.61 C 318.41 642.92 317.68 642.25 316.95 641.57 C 317.99 635.73 320.35 630.06 320.01 624.03 C 320.01 615.21 320.38 605.80 325.00 598.01 C 326.47 595.79 328.10 593.68 329.63 591.51 L 330.01 591.62 C 330.46 591.76 331.35 592.04 331.80 592.18 C 329.86 594.60 328.18 597.22 326.89 600.05 C 331.68 601.47 336.76 601.07 341.66 600.52 C 344.80 600.17 346.18 596.89 347.31 594.37 C 349.09 589.50 350.87 584.00 349.03 578.89 C 345.76 579.85 342.81 581.56 340.24 583.77 C 340.16 583.30 340.01 582.35 339.93 581.88 Z" />
<path fill="#552a1f" opacity="1.00" d=" M 398.75 579.53 C 405.27 578.23 411.79 576.10 418.53 576.60 C 417.66 578.21 416.78 579.83 415.99 581.49 C 409.76 581.04 403.64 582.13 397.64 583.69 C 395.76 583.98 393.90 584.41 392.08 584.91 C 390.90 584.10 389.69 583.33 388.50 582.59 C 391.76 581.10 395.24 580.20 398.75 579.53 Z" />
<path fill="#bebebe" opacity="1.00" d=" M 271.73 589.97 C 271.57 586.12 270.24 582.14 271.87 578.41 C 274.14 586.11 273.31 594.14 272.42 601.97 C 272.23 614.38 271.84 627.12 274.84 639.23 C 279.68 646.10 287.82 649.97 295.66 652.39 C 299.71 653.83 304.09 651.92 306.58 648.61 C 312.94 640.85 317.94 631.26 317.92 621.01 C 318.83 610.90 318.32 600.68 320.47 590.71 C 320.65 590.95 321.02 591.42 321.20 591.66 C 322.65 593.66 323.86 595.82 325.00 598.01 C 320.38 605.80 320.01 615.21 320.01 624.03 C 320.35 630.06 317.99 635.73 316.95 641.57 C 312.94 647.75 306.85 652.05 300.67 655.84 C 299.29 656.42 297.90 656.98 296.45 657.33 C 294.62 658.42 292.66 659.26 290.50 659.27 C 289.11 660.49 287.18 659.96 285.52 660.19 C 283.39 661.82 280.46 660.81 277.98 661.10 C 275.84 660.82 273.21 661.78 271.48 660.13 C 269.98 660.09 268.48 660.10 266.98 660.15 C 267.65 656.63 268.14 653.06 268.05 649.47 C 268.49 641.83 268.67 634.15 267.98 626.52 C 267.95 624.99 267.42 623.55 266.64 622.26 C 268.63 619.30 267.51 615.43 268.33 612.11 C 269.78 604.80 271.92 597.51 271.73 589.97 Z" />
<path fill="#dbdbdb" opacity="1.00" d=" M 340.24 583.77 C 342.81 581.56 345.76 579.85 349.03 578.89 C 350.87 584.00 349.09 589.50 347.31 594.37 C 346.18 596.89 344.80 600.17 341.66 600.52 C 336.76 601.07 331.68 601.47 326.89 600.05 C 328.18 597.22 329.86 594.60 331.80 592.18 C 331.35 592.04 330.46 591.76 330.01 591.62 C 331.94 589.23 334.06 586.99 336.35 584.95 C 337.51 583.90 338.72 582.88 339.93 581.88 C 340.01 582.35 340.16 583.30 340.24 583.77 Z" />
<path fill="#462303" opacity="1.00" d=" M 397.64 583.69 C 403.64 582.13 409.76 581.04 415.99 581.49 C 415.49 582.70 415.05 583.94 414.63 585.19 C 408.95 584.91 403.21 584.98 397.64 583.69 Z" />
<path fill="#7a4003" opacity="1.00" d=" M 315.25 585.01 C 322.05 583.59 329.02 583.40 335.87 582.29 C 335.99 582.96 336.23 584.29 336.35 584.95 C 334.06 586.99 331.94 589.23 330.01 591.62 L 329.63 591.51 C 326.87 590.63 323.86 590.28 321.20 591.66 C 321.02 591.42 320.65 590.95 320.47 590.71 C 318.86 588.69 317.12 586.78 315.25 585.01 Z" />
<path fill="#733b03" opacity="1.00" d=" M 392.08 584.91 C 393.90 584.41 395.76 583.98 397.64 583.69 C 403.21 584.98 408.95 584.91 414.63 585.19 C 414.16 586.54 413.69 587.89 413.23 589.25 C 408.26 589.95 402.91 587.14 398.26 589.59 C 396.21 588.01 394.16 586.43 392.08 584.91 Z" />
<path fill="#432305" opacity="1.00" d=" M 398.26 589.59 C 402.91 587.14 408.26 589.95 413.23 589.25 C 412.79 590.51 412.38 591.80 411.99 593.09 C 408.90 592.96 405.81 593.02 402.75 593.32 C 401.28 592.04 399.77 590.80 398.26 589.59 Z" />
<path fill="#40260e" opacity="1.00" d=" M 321.20 591.66 C 323.86 590.28 326.87 590.63 329.63 591.51 C 328.10 593.68 326.47 595.79 325.00 598.01 C 323.86 595.82 322.65 593.66 321.20 591.66 Z" />
<path fill="#e88910" opacity="1.00" d=" M 402.75 593.32 C 405.81 593.02 408.90 592.96 411.99 593.09 C 411.85 593.53 411.59 594.39 411.46 594.82 C 410.26 595.92 408.98 596.93 407.73 597.96 C 406.08 596.39 404.43 594.83 402.75 593.32 Z" />
<path fill="#422005" opacity="1.00" d=" M 407.73 597.96 C 408.98 596.93 410.26 595.92 411.46 594.82 C 410.96 596.61 410.52 598.43 410.07 600.24 C 409.29 599.46 408.51 598.70 407.73 597.96 Z" />
<path fill="#999a9c" opacity="1.00" d=" M 371.54 621.67 C 370.80 616.54 368.51 611.65 368.75 606.40 C 371.98 613.42 376.10 620.24 377.20 628.02 C 377.80 631.31 378.14 634.91 380.40 637.58 C 382.66 640.40 386.49 641.25 389.95 641.18 C 400.28 640.92 410.05 635.22 416.23 627.08 C 419.53 623.12 420.32 617.92 420.20 612.93 C 422.85 616.59 424.64 620.79 425.79 625.15 C 427.19 630.30 427.04 635.73 426.12 640.95 L 426.02 641.63 C 424.39 642.91 423.69 644.88 422.73 646.65 C 419.23 651.46 413.49 653.67 408.67 656.84 C 404.88 657.82 401.29 659.39 397.54 660.45 C 396.53 660.79 395.52 661.14 394.53 661.50 C 392.94 662.10 391.24 662.19 389.58 662.40 C 388.31 662.97 386.92 663.17 385.57 663.43 C 383.38 664.42 380.92 664.10 378.60 664.34 C 376.46 665.56 373.92 665.06 371.58 665.33 C 368.82 666.73 365.58 665.92 362.61 666.32 C 360.46 667.53 357.91 667.04 355.56 667.33 C 353.88 668.32 351.90 668.08 350.04 668.20 C 345.49 668.24 340.93 668.45 336.40 667.94 C 334.25 666.72 331.95 665.70 330.18 663.93 C 335.11 664.27 340.03 664.95 344.97 664.68 C 352.56 664.44 360.43 661.17 364.81 654.75 C 372.01 645.50 374.01 632.97 371.54 621.67 Z" />
<path fill="#898989" opacity="1.00" d=" M 266.89 634.05 C 266.79 631.48 267.29 628.97 267.98 626.52 C 268.67 634.15 268.49 641.83 268.05 649.47 C 266.46 644.48 267.00 639.20 266.89 634.05 Z" />
</svg>
