<?xml version="1.0" encoding="UTF-8" standalone="no"?>
<!-- Created with Inkscape (http://www.inkscape.org/) -->

<svg
   xmlns:dc="http://purl.org/dc/elements/1.1/"
   xmlns:cc="http://creativecommons.org/ns#"
   xmlns:rdf="http://www.w3.org/1999/02/22-rdf-syntax-ns#"
   xmlns:svg="http://www.w3.org/2000/svg"
   xmlns="http://www.w3.org/2000/svg"
   xmlns:sodipodi="http://sodipodi.sourceforge.net/DTD/sodipodi-0.dtd"
   xmlns:inkscape="http://www.inkscape.org/namespaces/inkscape"
   width="5.3798795mm"
   height="13.310307mm"
   viewBox="0 0 5.3798795 13.310307"
   version="1.1"
   id="svg4439"
   inkscape:version="0.92.4 (5da689c313, 2019-01-14)"
   sodipodi:docname="fire-bonfire.svg">
  <defs
     id="defs4433" />
  <sodipodi:namedview
     id="base"
     pagecolor="#ffffff"
     bordercolor="#666666"
     borderopacity="1.0"
     inkscape:pageopacity="0.0"
     inkscape:pageshadow="2"
     inkscape:zoom="3.959798"
     inkscape:cx="92.919233"
     inkscape:cy="-35.904676"
     inkscape:document-units="mm"
     inkscape:current-layer="layer1"
     showgrid="false"
     inkscape:window-width="1920"
     inkscape:window-height="1027"
     inkscape:window-x="-8"
     inkscape:window-y="-4"
     inkscape:window-maximized="1" />
  <metadata
     id="metadata4436">
    <rdf:RDF>
      <cc:Work
         rdf:about="">
        <dc:format>image/svg+xml</dc:format>
        <dc:type
           rdf:resource="http://purl.org/dc/dcmitype/StillImage" />
        <dc:title></dc:title>
      </cc:Work>
    </rdf:RDF>
  </metadata>
  <g
     inkscape:label="Layer 1"
     inkscape:groupmode="layer"
     id="layer1"
     transform="translate(-87.268393,-31.809132)">
    <path
       inkscape:connector-curvature="0"
       style="opacity:1;fill:#fff5d7;stroke-width:0.35277778"
       d="m 88.613369,32.906271 c 0.366889,-0.797278 1.478139,-0.377472 1.8415,-1.097139 0.832555,0.0035 0.0071,0.642056 -0.05645,1.019528 -0.433916,0.723195 -0.155222,1.608667 -0.183444,2.405945 0.613833,1.093611 1.135944,2.286 2.060222,3.164416 -0.0035,0.289278 -0.01058,0.871362 -0.01411,1.164167 -0.963084,-2.300111 -2.998612,-4.437944 -2.162529,-7.136695 -0.497417,0.15875 -0.994833,0.310445 -1.485194,0.479778 z"
       id="path4149"
       inkscape:export-xdpi="96"
       inkscape:export-ydpi="96" />
    <path
       inkscape:connector-curvature="0"
       style="opacity:1;fill:#ea8502;stroke-width:0.35277778"
       d="m 88.613369,32.906271 c 0.490361,-0.169333 0.987777,-0.321028 1.485194,-0.479778 -0.836083,2.698751 1.199445,4.836584 2.162528,7.136695 0.02822,0.116417 0.08467,0.345722 0.116417,0.462139 0.522111,2.049639 -0.677334,4.056945 -2.50825,4.945946 -0.127,0.0388 -0.377473,0.109361 -0.504473,0.148166 l 0.112889,-0.197555 c 0.691445,-1.121835 1.432278,-2.402418 1.083028,-3.774724 -0.254,-1.760361 -1.795639,-2.815166 -2.755195,-4.169833 -0.733778,-1.023056 -0.462139,-2.420056 0.169334,-3.421945 0.176389,-0.250472 0.388055,-0.465666 0.638528,-0.649111 z"
       id="path4151"
       inkscape:export-xdpi="96"
       inkscape:export-ydpi="96" />
    <path
       inkscape:connector-curvature="0"
       style="opacity:1;fill:#fff5d7;stroke-width:0.35277778"
       d="m 87.33984,34.158632 c 0.15875,-0.151694 0.476251,-0.451555 0.635001,-0.60325 -0.631473,1.001889 -0.903112,2.398889 -0.169334,3.421945 0.959556,1.354667 2.501195,2.409472 2.755195,4.169833 0.34925,1.372306 -0.391583,2.652889 -1.083028,3.774724 -0.197555,-0.65264 0.155222,-1.111251 0.613834,-1.502835 0.07761,-0.186972 0.229305,-0.564444 0.306916,-0.751416 -0.610305,-0.416278 0.299861,-0.945445 -0.130528,-1.414639 -0.09525,-0.34925 -0.148166,-0.702028 -0.165805,-1.065389 -0.723195,-1.160639 -1.774472,-2.042584 -2.550584,-3.153834 -0.451556,-0.892527 -0.232834,-1.919111 -0.211667,-2.875139 z"
       id="path4157"
       inkscape:export-xdpi="96"
       inkscape:export-ydpi="96" />
    <path
       inkscape:connector-curvature="0"
       style="opacity:1;fill:#fff5d7;stroke-width:0.35277778"
       d="m 92.377508,40.025327 0.257527,-0.05292 c 0.01764,0.783167 0.02469,1.569861 -0.02469,2.356556 -0.656166,1.054806 -1.213555,2.825751 -2.741083,2.642307 1.830917,-0.889001 3.030361,-2.896307 2.50825,-4.945946 z"
       id="path4159"
       inkscape:export-xdpi="96"
       inkscape:export-ydpi="96" />
  </g>
</svg>
