<?xml version="1.0" encoding="UTF-8" ?>
<!DOCTYPE svg PUBLIC "-//W3C//DTD SVG 1.1//EN" "http://www.w3.org/Graphics/SVG/1.1/DTD/svg11.dtd">
<svg width="530pt" height="520pt" viewBox="0 0 530 520" version="1.1" xmlns="http://www.w3.org/2000/svg">
<path fill="#000000" opacity="0.53" d=" M 313.85 11.78 C 315.16 10.17 315.92 7.08 318.57 8.14 C 319.53 9.17 320.38 10.31 321.24 11.44 C 318.79 10.94 316.24 11.02 313.85 11.78 Z" />
<path fill="#000000" opacity="1.00" d=" M 313.85 11.78 C 316.24 11.02 318.79 10.94 321.24 11.44 C 323.89 13.73 325.74 16.73 327.58 19.66 C 331.28 18.16 334.94 16.33 338.95 15.84 C 340.36 16.32 341.70 17.00 343.02 17.69 C 342.09 20.16 341.18 22.64 340.30 25.14 C 349.83 20.71 358.88 13.34 369.94 13.98 C 374.20 14.50 374.56 19.62 374.50 22.98 C 373.93 34.09 371.41 45.61 364.85 54.77 C 363.92 55.64 362.95 56.46 361.98 57.28 C 361.71 51.86 362.08 46.44 361.73 41.02 C 361.60 39.08 361.14 36.33 358.69 36.17 C 353.29 35.60 348.04 37.51 342.85 38.68 C 344.23 40.50 345.59 42.33 346.99 44.13 C 345.97 45.75 344.98 47.39 343.96 49.01 C 343.10 50.34 342.24 51.67 341.38 53.00 C 343.93 55.77 346.56 58.47 349.39 60.96 C 348.83 67.57 348.27 74.18 347.04 80.71 C 345.07 78.94 343.22 77.02 340.99 75.56 C 337.41 77.33 334.53 80.17 331.42 82.62 C 333.28 85.39 334.90 88.38 335.57 91.68 C 337.65 101.19 339.21 110.87 342.64 120.02 C 345.09 126.43 347.04 133.02 349.75 139.32 C 352.08 144.78 357.14 148.52 359.30 154.04 C 359.03 156.98 357.27 159.49 356.02 162.08 C 361.90 169.94 362.96 179.94 365.98 189.00 C 367.65 193.99 368.78 199.16 370.73 204.05 C 371.53 205.78 372.48 208.18 374.80 207.99 C 381.51 208.75 388.26 208.44 394.99 208.36 C 413.54 208.04 432.27 206.94 450.27 202.13 C 455.57 200.64 460.96 199.46 466.44 198.81 C 465.65 205.20 463.80 211.40 461.31 217.32 C 458.13 224.78 455.63 232.56 451.69 239.68 C 447.19 247.90 443.49 256.55 438.62 264.57 C 430.67 278.01 421.57 291.09 409.52 301.19 C 412.80 311.20 417.20 320.85 419.80 331.09 C 421.93 341.81 425.91 352.19 426.46 363.19 C 424.15 362.99 421.86 362.79 419.57 362.50 C 417.37 362.13 414.61 361.71 413.78 359.29 C 408.43 347.74 403.41 336.01 397.35 324.80 C 394.57 319.90 393.88 313.80 389.95 309.62 C 381.78 310.28 373.65 313.19 367.05 318.11 C 357.48 325.66 356.01 339.06 347.39 347.39 C 344.61 350.08 341.52 352.54 338.00 354.17 C 332.99 354.20 327.88 353.34 322.95 354.56 C 317.88 357.75 312.83 361.02 307.08 362.88 C 309.41 364.55 312.01 366.03 313.70 368.41 C 314.62 370.39 313.91 372.68 313.76 374.76 C 313.52 376.37 313.27 377.98 313.03 379.60 C 318.75 379.85 324.49 379.76 330.22 379.92 C 334.96 379.80 338.66 383.27 340.93 387.10 C 346.12 395.57 350.08 404.71 354.11 413.77 C 357.97 423.89 362.74 433.65 366.00 444.00 C 369.20 452.85 371.71 461.92 374.04 471.03 C 375.91 479.55 377.91 488.05 379.90 496.55 L 380.11 497.36 C 380.28 498.06 380.45 498.77 380.63 499.49 C 402.67 497.11 424.87 497.83 447.00 497.67 C 461.34 497.76 475.69 497.62 490.02 498.21 C 497.37 498.72 504.69 499.51 512.05 499.98 C 513.81 500.54 515.41 501.48 517.06 502.33 C 514.66 504.15 511.96 505.71 508.89 505.94 C 500.61 506.90 492.32 508.07 483.97 508.29 C 471.63 508.59 459.36 510.28 447.01 510.26 C 422.33 510.30 397.65 510.68 372.98 510.08 C 359.65 509.47 346.33 510.60 333.00 510.32 C 319.98 510.65 307.01 509.12 294.00 509.27 C 269.66 509.34 245.33 509.36 221.00 509.37 C 211.99 509.51 203.00 508.89 194.01 508.50 C 191.29 508.45 188.69 507.58 186.26 506.41 C 187.16 502.82 188.52 499.39 189.80 495.93 C 196.67 476.11 198.14 454.83 197.73 433.99 C 197.85 424.19 196.30 414.41 193.33 405.08 C 196.59 402.95 200.13 400.77 202.14 397.32 C 202.80 394.74 202.63 392.04 202.77 389.41 C 196.57 389.71 190.32 389.00 184.52 386.70 C 175.66 383.33 166.42 380.94 156.99 379.85 C 148.86 378.95 140.63 380.32 132.88 382.79 C 129.68 383.91 126.20 385.30 124.41 388.38 C 120.78 394.00 119.14 401.36 113.26 405.22 C 106.72 407.89 99.49 405.59 92.86 404.37 C 70.64 400.13 49.57 390.22 31.97 376.03 C 20.74 367.21 11.08 355.54 7.10 341.63 C 5.52 338.34 9.82 337.68 12.01 336.74 C 22.40 333.74 32.14 328.99 42.27 325.30 C 50.02 322.40 57.43 318.73 64.90 315.20 C 81.51 307.88 97.73 299.74 114.24 292.21 C 119.98 289.79 125.51 286.94 131.02 284.07 C 148.27 275.49 165.64 266.76 180.93 254.93 C 184.22 251.99 188.32 249.24 189.77 244.89 C 189.08 240.86 185.11 238.31 183.10 234.87 C 179.98 229.86 175.68 224.55 176.31 218.30 C 177.93 214.66 182.25 212.97 185.88 211.97 C 194.57 210.08 203.64 210.68 212.23 208.30 C 213.40 207.92 214.57 207.51 215.73 207.08 C 213.20 201.59 206.81 196.27 209.54 189.71 C 213.10 181.00 221.60 175.30 230.12 172.10 C 233.80 171.67 237.52 171.53 241.22 171.62 C 246.42 172.56 248.53 177.82 250.79 181.93 C 258.84 174.53 268.67 168.93 279.58 167.28 C 281.26 170.97 282.36 174.89 282.85 178.91 C 283.36 178.62 283.88 178.34 284.41 178.05 C 288.10 175.85 292.51 174.74 295.54 171.54 C 300.06 167.03 303.95 161.93 308.51 157.46 C 310.07 155.74 311.97 154.15 312.79 151.91 C 312.74 149.91 312.23 147.97 311.86 146.02 C 313.30 144.79 314.74 143.55 316.18 142.32 C 314.07 140.36 311.91 138.39 309.35 137.04 C 308.15 127.82 311.64 119.04 312.91 110.05 C 314.10 102.32 315.97 94.72 317.69 87.09 C 315.08 85.82 312.47 84.54 309.97 83.05 L 309.74 82.16 C 309.36 80.64 309.01 79.11 308.65 77.59 C 307.83 78.32 306.98 79.01 306.11 79.69 C 304.31 81.71 301.68 81.76 299.17 81.63 C 300.02 74.97 300.82 68.30 301.83 61.67 C 292.34 62.47 283.02 66.83 273.43 64.39 C 274.86 62.81 276.20 61.14 277.73 59.66 C 283.29 56.30 290.45 56.03 295.21 51.33 C 291.84 49.75 288.15 48.23 286.01 45.00 C 282.42 40.28 283.11 33.69 285.62 28.65 C 288.79 21.84 295.21 15.91 302.99 15.46 C 306.94 15.37 310.49 13.68 313.85 11.78 M 315.28 14.17 L 315.03 15.06 C 312.68 13.44 310.77 19.19 313.85 18.47 C 314.51 19.00 315.82 20.06 316.48 20.59 C 317.44 22.10 318.35 23.63 319.32 25.13 C 320.71 23.42 322.16 21.76 323.33 19.90 C 322.15 16.48 318.77 14.44 315.28 14.17 M 346.03 26.04 C 341.04 29.17 334.89 31.46 332.22 37.14 L 331.22 37.40 C 340.62 38.18 349.42 32.66 358.84 32.92 C 364.81 34.78 364.18 41.90 364.98 46.85 C 368.88 39.90 370.44 31.87 370.74 23.99 C 370.94 21.37 370.05 18.87 368.92 16.56 C 361.09 19.19 353.14 21.72 346.03 26.04 M 292.94 24.24 C 290.77 25.53 289.76 28.08 288.27 30.02 C 287.26 34.09 285.72 38.83 288.48 42.57 C 294.53 51.38 309.91 50.27 314.63 40.67 C 316.54 36.59 318.15 31.04 315.06 27.13 C 314.65 24.74 313.17 22.88 310.99 21.85 C 306.29 15.84 296.70 18.43 292.94 24.24 M 325.03 24.10 C 322.45 25.31 322.64 28.57 322.03 30.93 C 320.98 36.52 318.78 41.82 315.64 46.55 C 312.59 48.70 309.36 50.58 305.91 52.02 C 303.94 52.18 301.50 52.08 300.14 53.78 C 296.87 54.75 293.79 56.20 290.68 57.57 C 287.73 58.46 284.92 59.76 282.54 61.73 C 285.40 61.65 288.23 61.22 291.02 60.58 C 293.00 60.03 294.98 59.50 296.97 58.94 C 300.78 57.95 304.63 57.09 308.48 56.22 C 311.14 55.52 313.80 54.87 316.46 54.18 C 316.13 52.58 315.79 50.98 315.45 49.38 C 316.29 48.40 317.13 47.43 317.97 46.44 C 319.48 46.52 320.85 45.75 321.73 44.54 C 324.86 44.35 327.97 44.75 330.95 45.74 C 329.77 49.34 328.20 52.80 326.28 56.07 C 328.41 54.29 330.63 52.60 332.50 50.53 C 334.54 48.27 335.20 45.20 336.16 42.39 C 332.44 42.29 327.71 43.44 325.64 39.42 C 329.02 34.65 332.65 29.98 335.01 24.58 C 337.11 23.78 337.59 21.34 338.49 19.54 C 333.87 20.60 329.33 22.08 325.03 24.10 M 339.88 42.04 C 339.25 44.46 338.63 46.89 338.13 49.34 C 340.26 47.74 341.89 45.64 343.24 43.36 C 342.12 42.92 341.00 42.48 339.88 42.04 M 320.76 49.78 C 318.71 51.40 320.45 54.19 320.43 56.31 C 323.06 53.91 325.33 51.13 327.12 48.04 C 324.96 48.41 322.62 48.49 320.76 49.78 M 332.26 55.02 C 333.44 56.71 334.83 58.32 335.55 60.29 C 336.20 64.09 335.48 67.96 335.17 71.76 C 336.68 71.16 338.20 70.57 339.72 69.97 C 341.47 71.22 343.26 72.44 345.06 73.64 C 345.13 70.01 346.28 66.16 345.19 62.63 C 342.34 58.82 338.95 55.37 336.74 51.09 C 335.25 52.40 333.76 53.71 332.26 55.02 M 313.09 60.88 C 311.60 61.53 309.05 62.09 309.48 64.20 C 310.39 70.11 311.53 76.16 314.34 81.51 L 313.98 82.13 C 319.58 80.94 325.11 79.44 330.53 77.59 C 330.90 71.71 332.84 65.35 330.40 59.74 C 324.66 58.67 318.65 59.10 313.09 60.88 M 302.43 78.19 C 303.77 76.99 305.24 75.86 306.22 74.31 C 307.47 71.42 306.06 68.37 304.88 65.73 C 302.79 69.53 302.55 73.95 302.43 78.19 M 322.40 85.30 C 323.00 92.27 325.71 98.85 327.41 105.59 C 330.39 115.85 331.28 126.60 334.59 136.77 L 335.19 137.20 C 336.80 144.70 338.28 152.23 340.35 159.62 C 342.19 166.11 343.35 172.81 345.88 179.09 C 347.03 185.81 349.40 192.26 351.25 198.81 C 352.67 204.13 357.66 207.33 359.69 212.32 C 362.92 219.85 363.22 228.23 366.25 235.83 C 368.50 241.50 371.27 246.95 373.36 252.68 C 376.39 260.44 378.31 268.62 381.95 276.14 C 384.84 286.00 389.26 295.41 393.14 304.93 C 399.98 321.98 408.29 338.37 415.99 355.03 C 417.03 357.43 418.73 359.54 421.12 360.71 C 422.04 359.65 422.34 358.46 422.02 357.12 C 421.13 352.35 420.07 347.51 417.91 343.14 C 417.19 334.65 414.08 326.64 411.44 318.62 C 406.15 302.66 399.08 287.40 391.72 272.31 C 388.01 265.01 385.91 256.99 381.74 249.92 C 380.05 243.81 377.59 237.94 375.06 232.14 C 373.67 224.27 370.10 217.05 367.66 209.50 C 363.91 197.72 360.57 185.82 357.08 173.96 C 355.99 169.89 352.92 166.81 351.31 162.98 C 352.12 159.95 353.89 157.27 354.61 154.22 C 352.11 149.30 347.62 145.64 345.55 140.45 C 339.81 126.26 335.17 111.64 331.11 96.88 C 330.11 92.95 330.06 88.83 328.97 84.92 C 327.11 83.78 323.53 82.82 322.40 85.30 M 318.94 94.54 C 317.77 101.97 316.53 109.43 316.08 116.94 C 314.08 122.11 313.10 127.58 311.84 132.95 C 314.73 135.76 317.55 138.67 319.88 141.98 C 319.59 142.29 319.01 142.91 318.71 143.22 C 317.35 144.36 315.19 145.00 314.79 146.96 C 315.45 148.83 316.46 150.55 317.37 152.31 C 312.67 159.19 306.11 164.44 300.79 170.80 C 296.02 176.52 290.27 181.62 287.16 188.52 C 285.81 192.79 285.27 197.25 285.30 201.71 C 289.65 202.97 294.49 202.03 297.26 198.22 C 299.96 195.24 297.60 190.46 300.41 187.49 C 307.76 178.73 314.61 169.55 321.12 160.15 C 323.17 156.92 325.80 154.11 328.80 151.74 C 330.82 151.59 332.57 150.33 333.54 148.59 C 333.38 146.58 332.75 144.66 332.26 142.73 C 331.58 139.47 330.80 136.23 329.90 133.02 C 328.43 134.08 326.86 135.01 325.56 136.27 C 324.31 135.64 322.38 135.70 322.02 134.03 C 320.74 130.15 320.53 126.03 319.73 122.04 C 319.19 115.18 319.49 108.29 320.37 101.46 C 320.85 99.02 319.88 96.73 318.94 94.54 M 321.98 111.76 C 322.07 115.29 322.29 118.82 323.05 122.28 L 323.11 121.37 C 323.25 125.01 323.30 128.87 324.96 132.20 C 326.28 132.10 327.61 131.97 328.94 131.81 C 328.48 126.06 326.98 120.49 325.82 114.87 C 325.80 114.16 325.75 112.73 325.72 112.02 C 324.46 112.05 323.22 111.96 321.98 111.76 M 323.86 161.88 C 318.95 170.08 313.22 177.74 307.02 185.00 C 305.24 186.76 302.74 188.36 302.58 191.12 C 302.06 194.90 301.51 198.70 300.19 202.30 C 307.71 205.69 316.06 205.73 324.11 206.54 C 333.24 207.22 342.39 208.34 351.56 207.58 C 351.20 207.00 350.50 205.85 350.15 205.27 C 347.09 198.83 345.63 191.83 343.74 185.00 C 340.88 174.62 338.23 164.18 335.28 153.82 C 330.47 154.70 326.27 157.61 323.86 161.88 M 261.34 178.37 C 258.16 180.42 257.46 184.43 256.03 187.67 C 258.46 187.07 260.89 186.49 263.35 186.02 C 259.40 193.14 250.19 193.61 244.77 198.94 C 234.82 202.21 225.60 207.37 215.62 210.58 C 211.33 211.88 206.84 212.33 202.51 213.46 C 195.08 215.51 186.94 215.45 180.29 219.80 C 182.15 223.72 184.14 227.67 187.21 230.81 C 188.55 234.78 191.79 237.84 195.27 240.04 C 195.36 240.26 195.56 240.70 195.65 240.92 C 195.96 243.10 197.30 245.55 196.11 247.67 C 194.60 248.19 192.92 248.57 191.95 249.97 C 189.19 253.19 186.52 256.53 183.11 259.10 C 169.38 269.65 153.98 277.73 138.62 285.61 C 109.19 299.63 79.86 313.89 50.05 327.08 C 37.26 332.83 24.01 337.47 10.76 342.03 C 15.89 354.29 24.78 364.69 35.28 372.70 C 46.82 381.94 59.90 389.30 73.85 394.20 C 84.15 398.24 95.00 400.73 105.98 402.03 C 108.21 402.22 110.52 402.43 112.72 401.88 C 116.14 398.23 117.59 393.28 119.96 388.97 C 122.11 384.22 125.34 379.94 126.82 374.92 C 130.30 369.62 132.83 363.73 136.66 358.65 C 140.66 353.28 144.69 347.94 148.30 342.30 C 151.31 337.49 155.20 333.31 158.15 328.46 L 158.30 327.81 C 163.05 323.68 166.47 318.34 170.81 313.83 C 180.16 304.16 188.44 293.48 198.30 284.29 C 206.69 276.37 214.62 267.97 223.02 260.05 C 227.77 255.51 232.97 251.42 237.16 246.32 C 241.91 243.91 245.20 239.59 248.90 235.91 C 253.66 230.66 258.80 225.62 262.28 219.37 C 264.79 217.53 266.77 215.07 268.66 212.62 C 276.05 203.25 282.29 192.77 286.00 181.38 C 284.35 182.15 282.33 182.67 281.54 184.51 C 279.37 188.50 277.43 192.63 274.73 196.30 C 273.62 195.18 272.51 194.06 271.39 192.95 C 276.63 187.47 278.49 179.30 278.21 171.88 C 272.29 173.11 266.44 175.07 261.34 178.37 M 233.50 182.48 C 230.50 183.89 227.88 187.12 228.34 190.59 C 231.78 194.67 240.48 193.33 241.76 187.79 C 242.23 183.78 236.90 181.16 233.50 182.48 M 278.12 208.63 C 276.95 209.07 276.39 210.32 275.54 211.16 C 278.05 211.53 280.57 211.88 283.09 212.26 C 284.33 210.50 285.63 208.76 286.73 206.90 C 286.38 206.79 285.69 206.57 285.34 206.46 C 283.94 205.04 282.44 203.73 280.99 202.38 C 280.03 204.47 278.97 206.50 278.12 208.63 M 451.40 206.37 C 426.17 213.23 399.82 212.53 373.91 213.20 C 377.03 223.43 380.80 233.46 384.52 243.49 C 386.26 248.01 387.81 252.63 390.10 256.91 C 392.31 264.22 395.97 271.01 398.95 278.03 C 401.74 284.10 404.19 290.37 407.94 295.95 C 411.00 293.74 413.94 291.31 416.37 288.40 C 421.01 282.76 425.65 277.09 429.43 270.83 C 437.59 258.70 444.09 245.55 450.30 232.34 C 454.53 223.09 459.06 213.83 461.04 203.79 C 457.80 204.56 454.60 205.46 451.40 206.37 M 293.71 205.60 C 290.59 207.53 288.93 210.96 287.06 213.98 C 284.15 219.31 279.68 223.59 276.91 229.02 C 275.28 232.26 272.46 234.61 269.59 236.72 C 268.64 239.89 268.75 243.78 266.24 246.23 C 262.06 247.94 257.32 247.11 252.91 247.41 L 252.58 246.90 C 250.67 250.79 248.71 254.71 247.94 259.01 C 247.32 262.50 246.10 265.84 244.34 268.92 C 245.11 271.55 246.21 274.18 246.14 276.97 C 244.97 280.27 243.01 283.22 241.46 286.36 C 244.46 285.62 247.43 284.72 250.20 283.35 C 256.33 280.29 262.79 277.91 268.67 274.36 C 275.93 272.32 282.91 269.40 289.83 266.44 C 291.13 267.09 292.45 267.70 293.68 268.50 C 293.41 270.92 292.50 273.20 291.67 275.47 C 288.42 279.92 285.49 284.66 281.56 288.56 C 278.58 291.80 274.80 294.30 272.24 297.92 C 272.74 299.85 273.60 301.68 274.38 303.52 C 277.99 303.63 281.61 303.77 285.23 303.93 C 287.71 304.55 290.60 306.20 290.61 309.10 C 290.22 313.74 287.39 317.72 286.42 322.23 C 285.07 328.69 285.00 335.84 288.03 341.86 C 288.96 349.26 291.95 356.15 295.10 362.84 C 296.97 362.43 298.84 362.04 300.71 361.65 C 306.52 358.93 312.15 355.88 317.70 352.68 C 320.78 350.82 324.32 349.92 327.91 349.81 C 328.32 350.36 329.14 351.46 329.55 352.02 C 335.71 350.60 341.24 347.31 345.39 342.53 C 349.45 337.36 352.60 331.54 355.26 325.55 C 361.52 313.27 375.21 306.78 388.48 305.69 C 386.51 296.72 382.60 288.30 378.85 279.96 C 378.75 278.63 378.33 277.35 377.93 276.08 C 374.05 265.23 370.58 254.23 366.21 243.56 C 365.44 243.24 364.68 242.91 363.92 242.58 C 363.67 238.30 362.23 234.25 360.85 230.24 C 359.12 225.09 358.90 219.46 356.41 214.58 C 355.36 212.09 352.32 212.31 350.10 212.08 C 340.80 211.83 331.50 211.51 322.25 210.54 C 315.21 209.75 307.90 209.68 301.34 206.71 C 298.92 205.95 296.19 204.05 293.71 205.60 M 267.73 219.47 C 270.62 220.16 273.48 221.40 276.50 221.31 C 278.75 220.43 279.92 218.08 281.40 216.32 C 279.04 215.09 276.72 213.66 274.09 213.12 C 271.18 214.23 269.57 217.14 267.73 219.47 M 264.90 223.93 C 261.40 226.38 258.92 229.95 256.31 233.25 C 260.35 233.57 264.51 234.27 268.52 233.29 C 272.20 232.09 273.67 228.09 275.41 225.00 C 272.12 223.88 268.25 222.03 264.90 223.93 M 247.62 242.51 C 253.18 242.72 258.73 242.98 264.26 243.55 C 264.51 241.81 264.76 240.08 264.98 238.34 C 261.07 238.28 257.13 238.02 253.23 238.49 C 250.81 238.80 249.33 241.01 247.62 242.51 M 238.66 251.33 C 240.98 251.70 243.29 252.30 245.66 252.26 C 247.89 250.94 247.48 248.00 247.88 245.82 C 244.24 246.54 241.17 248.68 238.66 251.33 M 237.80 254.97 L 237.73 255.42 C 232.17 256.78 230.79 262.88 229.98 267.75 C 231.70 267.38 234.74 268.61 235.63 266.89 C 238.15 266.27 241.23 266.20 243.02 264.03 C 244.00 261.68 243.67 259.02 243.85 256.53 C 241.82 256.04 239.81 255.50 237.80 254.97 M 217.62 271.23 C 218.10 273.95 219.18 277.01 217.52 279.56 C 214.56 284.59 210.30 288.69 206.64 293.21 C 209.43 295.52 212.42 297.59 215.60 299.33 C 215.17 296.12 214.28 292.89 214.61 289.64 C 215.24 287.77 216.69 286.34 217.81 284.77 C 220.77 281.08 222.23 276.52 224.31 272.35 C 225.90 269.21 226.68 265.76 227.04 262.28 C 223.44 264.75 220.34 267.84 217.62 271.23 M 230.65 271.32 C 227.88 273.92 226.02 277.26 224.92 280.87 C 227.75 280.38 230.55 279.73 233.38 279.22 C 235.45 279.89 237.52 280.80 239.73 280.85 C 243.49 279.09 242.20 274.17 242.21 270.86 C 238.35 270.90 234.50 271.10 230.65 271.32 M 279.06 275.23 C 269.34 277.95 260.20 282.52 251.23 287.10 C 242.39 291.36 233.13 294.73 224.56 299.54 C 221.74 301.01 219.04 302.80 215.98 303.72 C 212.25 302.72 209.31 299.89 205.71 298.52 C 207.78 303.71 211.02 308.31 214.10 312.95 C 216.10 315.68 217.99 318.71 220.98 320.47 C 222.05 320.08 223.02 319.54 223.90 318.84 C 224.57 318.88 225.90 318.95 226.57 318.99 C 232.49 318.35 238.21 316.35 243.31 313.29 C 253.13 307.38 261.89 299.93 270.86 292.84 C 278.02 287.09 284.94 280.43 288.38 271.72 C 285.11 272.39 281.92 273.48 279.06 275.23 M 206.38 282.38 C 202.66 286.34 198.19 289.74 195.65 294.65 C 193.67 298.54 190.99 302.09 189.41 306.16 C 187.14 308.90 184.62 311.53 181.23 312.84 C 180.85 313.05 180.09 313.48 179.71 313.69 C 177.77 319.53 178.70 325.83 178.23 331.88 C 180.74 333.34 183.28 334.75 185.86 336.08 C 184.37 331.51 181.92 327.05 181.96 322.14 C 183.28 318.70 186.74 316.76 189.26 314.28 L 189.79 314.41 C 189.55 312.45 189.36 310.49 189.35 308.52 C 196.36 302.97 200.29 294.72 205.95 287.97 C 209.26 283.58 214.05 279.97 215.28 274.32 C 211.37 275.83 209.19 279.53 206.38 282.38 M 227.80 283.69 C 224.32 284.45 220.45 285.89 218.49 289.05 C 218.06 292.11 218.81 295.18 219.34 298.19 C 223.58 296.52 227.55 294.27 231.58 292.17 C 234.46 290.68 237.24 288.99 239.90 287.14 C 238.20 285.82 236.60 284.28 234.58 283.46 C 232.36 282.75 230.02 283.33 227.80 283.69 M 192.78 311.99 C 197.94 310.82 204.47 306.23 201.72 300.26 C 198.15 303.67 194.90 307.49 192.78 311.99 M 255.21 310.25 C 254.41 310.91 254.04 311.76 254.08 312.81 C 257.07 315.06 260.99 314.43 264.49 314.57 C 265.43 318.12 266.24 321.70 266.91 325.31 C 267.11 330.04 267.91 334.80 269.87 339.14 C 271.65 347.91 275.52 356.20 280.12 363.84 C 282.77 368.41 286.74 371.99 289.65 376.35 C 289.60 379.55 288.24 382.54 287.63 385.65 C 290.77 385.52 294.35 386.36 297.15 384.55 C 297.71 385.56 298.27 386.60 298.82 387.63 C 297.27 390.41 300.30 392.33 302.21 393.77 C 307.99 397.55 312.73 402.60 317.95 407.06 C 328.44 416.24 338.30 426.23 346.46 437.57 C 357.84 453.63 366.30 471.58 372.82 490.11 C 373.30 490.25 374.25 490.53 374.72 490.67 C 369.03 468.97 363.08 447.26 354.49 426.50 C 351.97 420.62 350.02 414.32 346.02 409.23 C 345.38 407.04 345.29 404.32 343.25 402.90 C 341.53 397.40 339.17 391.97 335.56 387.44 C 332.85 383.86 327.98 384.35 324.02 383.97 C 319.12 383.80 313.82 382.31 309.37 385.18 L 308.48 385.03 C 306.00 379.95 309.34 374.71 308.84 369.48 C 306.90 368.64 304.83 368.17 302.81 367.63 C 301.46 367.29 300.12 366.94 298.79 366.58 C 297.72 367.85 296.65 369.11 295.58 370.38 C 286.98 360.32 283.28 347.09 281.15 334.29 C 281.34 330.55 281.53 326.80 281.30 323.06 C 282.79 318.17 284.73 313.43 286.30 308.57 L 285.20 308.59 C 281.37 307.71 277.42 307.74 273.55 307.19 C 271.21 305.76 270.00 303.12 268.41 301.00 C 263.69 303.59 259.11 306.53 255.21 310.25 M 204.54 313.48 C 205.50 315.76 208.21 315.70 210.18 316.46 C 208.87 312.99 206.99 309.77 204.76 306.81 C 204.26 308.99 203.04 311.41 204.54 313.48 M 186.72 323.03 C 188.11 329.80 191.48 335.97 194.22 342.28 C 196.03 346.59 198.01 350.84 199.88 355.13 C 203.86 364.41 205.96 374.40 206.70 384.46 C 207.42 383.72 208.12 382.96 208.82 382.21 L 208.76 383.08 C 210.56 368.82 214.96 354.96 215.56 340.54 C 215.64 339.19 215.38 337.70 214.08 337.00 C 209.66 333.85 203.58 332.21 201.24 326.83 C 199.73 322.50 200.52 317.80 200.25 313.31 C 195.50 316.10 189.85 318.25 186.72 323.03 M 248.04 315.15 C 243.79 317.38 239.13 319.14 235.53 322.36 C 229.91 321.75 224.04 321.62 218.84 324.19 C 217.06 322.74 215.43 321.04 213.38 319.97 C 210.28 319.21 207.04 319.69 203.89 319.67 C 204.39 322.17 204.46 324.92 205.91 327.10 C 208.49 330.24 212.51 331.58 216.17 333.00 C 217.91 335.23 219.94 337.64 219.62 340.68 C 219.06 353.00 216.12 365.04 214.15 377.17 C 220.65 374.04 227.74 372.58 234.95 373.12 C 242.25 374.89 249.36 377.28 256.56 379.40 C 265.00 381.94 274.85 380.39 281.56 374.50 C 281.04 370.53 277.36 367.89 275.57 364.45 C 267.50 350.80 262.94 335.15 261.94 319.34 C 258.94 318.84 255.83 318.38 253.26 316.64 C 251.61 315.86 249.94 313.88 248.04 315.15 M 163.13 330.13 C 155.33 340.08 147.99 350.38 140.75 360.73 C 136.77 366.90 132.62 373.00 129.50 379.66 C 144.76 373.57 162.00 374.59 177.54 379.07 C 185.31 382.60 193.42 385.79 202.03 386.32 C 201.75 372.46 196.51 359.27 190.89 346.80 C 190.12 346.89 188.57 347.09 187.79 347.19 C 185.91 346.26 183.97 345.47 182.09 344.55 C 179.53 345.21 176.95 345.89 174.30 345.97 C 174.05 345.64 173.56 344.97 173.32 344.63 C 173.49 335.27 174.45 325.90 174.69 316.51 C 170.28 320.56 166.94 325.56 163.13 330.13 M 177.75 336.41 C 177.27 338.02 177.30 339.75 176.67 341.34 C 178.35 341.09 181.25 341.66 181.22 339.15 C 180.12 338.16 178.92 337.29 177.75 336.41 M 185.83 339.82 C 185.84 340.64 185.87 342.30 185.88 343.12 C 186.62 343.06 188.11 342.94 188.86 342.88 C 188.86 342.19 188.86 340.80 188.86 340.10 C 188.11 340.03 186.59 339.89 185.83 339.82 M 272.25 384.40 C 264.71 385.33 257.26 383.86 249.97 382.08 C 243.04 379.09 235.57 377.00 227.96 377.31 C 222.13 377.20 216.11 379.75 212.61 384.49 C 210.28 388.48 209.38 393.08 208.07 397.46 C 212.55 398.47 217.17 398.96 221.53 400.46 C 224.46 401.51 225.68 404.98 225.19 407.87 C 224.35 414.59 222.59 421.16 221.01 427.74 C 216.20 448.06 209.80 468.03 201.03 487.00 C 198.17 492.88 194.24 498.16 191.49 504.09 C 192.26 503.95 193.81 503.66 194.58 503.52 C 197.72 503.70 200.87 503.83 204.02 503.81 C 221.74 503.36 239.50 504.34 257.16 502.35 C 295.89 501.15 334.65 501.72 373.39 501.76 C 371.08 495.08 368.88 488.18 364.60 482.46 C 356.78 472.02 347.71 462.61 339.40 452.57 C 331.28 444.37 323.04 436.29 314.92 428.10 C 310.20 423.36 304.17 419.72 300.70 413.88 C 300.06 408.94 302.52 404.26 302.59 399.36 C 298.87 395.36 294.61 391.18 289.07 390.02 C 287.12 389.38 284.88 389.05 283.45 387.45 C 283.23 383.36 285.12 379.57 285.95 375.65 C 281.16 378.22 277.43 382.53 272.25 384.40 M 203.77 401.25 L 204.32 402.08 C 201.97 403.97 199.61 405.84 197.29 407.78 C 199.48 411.01 201.76 414.24 203.03 417.97 C 207.40 430.28 207.95 443.54 207.27 456.47 C 209.57 451.01 210.13 445.01 212.45 439.56 C 213.74 436.22 215.16 432.79 215.17 429.15 C 217.91 421.34 219.78 413.22 220.43 404.96 C 214.96 403.40 209.53 401.37 203.77 401.25 M 304.37 412.60 C 306.04 415.21 308.66 417.02 310.87 419.16 C 318.77 426.57 326.72 433.95 334.19 441.81 C 341.18 449.18 348.49 456.30 354.59 464.45 C 356.18 466.56 358.01 468.51 360.04 470.23 C 359.45 468.18 358.75 466.17 357.73 464.30 C 352.51 454.98 347.54 445.45 341.07 436.91 C 331.08 423.69 318.66 412.56 305.94 402.04 C 305.32 405.53 304.29 409.02 304.37 412.60 M 200.17 423.07 C 200.49 428.72 201.07 434.35 201.34 440.00 C 201.72 447.30 200.46 454.54 200.21 461.82 C 200.97 461.67 201.73 461.52 202.49 461.38 L 202.37 460.68 C 205.94 452.25 204.06 442.93 204.21 434.07 C 203.83 430.58 203.31 427.12 202.59 423.69 C 201.99 423.53 200.78 423.23 200.17 423.07 M 200.06 468.16 C 198.54 473.10 197.70 478.22 196.53 483.26 C 198.81 480.70 200.46 477.66 201.41 474.38 C 202.96 469.15 205.73 464.34 206.64 458.93 C 204.02 461.64 201.60 464.69 200.06 468.16 Z" />
<path fill="#f46d41" opacity="1.00" d=" M 315.28 14.17 C 318.77 14.44 322.15 16.48 323.33 19.90 C 322.16 21.76 320.71 23.42 319.32 25.13 C 318.35 23.63 317.44 22.10 316.48 20.59 C 317.16 19.17 317.82 17.74 318.53 16.32 C 317.71 15.78 316.09 14.71 315.28 14.17 Z" />
<path fill="#807836" opacity="0.79" d=" M 313.85 18.47 C 310.77 19.19 312.68 13.44 315.03 15.06 C 314.73 16.23 314.34 17.37 313.85 18.47 Z" />
<path fill="#ffff9b" opacity="1.00" d=" M 315.03 15.06 L 315.28 14.17 C 316.09 14.71 317.71 15.78 318.53 16.32 C 317.82 17.74 317.16 19.17 316.48 20.59 C 315.82 20.06 314.51 19.00 313.85 18.47 C 314.34 17.37 314.73 16.23 315.03 15.06 Z" />
<path fill="#fffef9" opacity="1.00" d=" M 346.03 26.04 C 353.14 21.72 361.09 19.19 368.92 16.56 C 368.94 17.74 368.97 18.91 369.00 20.09 C 364.66 22.56 360.17 24.75 355.50 26.53 C 347.48 29.54 340.75 35.41 332.22 37.14 C 334.89 31.46 341.04 29.17 346.03 26.04 Z" />
<path fill="#6f6e9a" opacity="1.00" d=" M 368.92 16.56 C 370.05 18.87 370.94 21.37 370.74 23.99 C 370.44 31.87 368.88 39.90 364.98 46.85 C 364.18 41.90 364.81 34.78 358.84 32.92 C 349.42 32.66 340.62 38.18 331.22 37.40 L 332.22 37.14 C 340.75 35.41 347.48 29.54 355.50 26.53 C 360.17 24.75 364.66 22.56 369.00 20.09 C 368.97 18.91 368.94 17.74 368.92 16.56 Z" />
<path fill="#ff6858" opacity="1.00" d=" M 292.94 24.24 C 296.70 18.43 306.29 15.84 310.99 21.85 C 312.34 23.61 313.76 25.33 315.06 27.13 C 318.15 31.04 316.54 36.59 314.63 40.67 C 309.91 50.27 294.53 51.38 288.48 42.57 C 285.72 38.83 287.26 34.09 288.27 30.02 C 289.79 34.05 292.54 37.56 296.91 38.59 C 295.75 39.24 294.57 39.87 293.40 40.51 C 295.82 41.97 298.17 43.79 301.03 44.25 C 304.00 44.52 306.91 43.56 309.63 42.50 C 312.40 40.71 313.97 37.69 313.09 34.40 C 312.42 30.57 312.25 25.58 308.32 23.58 C 305.30 21.79 301.85 23.38 298.77 24.14 C 296.82 24.18 294.88 24.18 292.94 24.24 Z" />
<path fill="#fefffc" opacity="1.00" d=" M 325.03 24.10 C 329.33 22.08 333.87 20.60 338.49 19.54 C 337.59 21.34 337.11 23.78 335.01 24.58 C 330.58 26.48 326.19 28.48 322.03 30.93 C 322.64 28.57 322.45 25.31 325.03 24.10 Z" />
<path fill="#ffe76e" opacity="1.00" d=" M 310.99 21.85 C 313.17 22.88 314.65 24.74 315.06 27.13 C 313.76 25.33 312.34 23.61 310.99 21.85 Z" />
<path fill="#600d43" opacity="1.00" d=" M 298.77 24.14 C 301.85 23.38 305.30 21.79 308.32 23.58 C 312.25 25.58 312.42 30.57 313.09 34.40 C 310.49 34.87 308.47 36.70 305.96 37.37 C 307.17 39.09 308.39 40.80 309.63 42.50 C 306.91 43.56 304.00 44.52 301.03 44.25 C 298.17 43.79 295.82 41.97 293.40 40.51 C 294.57 39.87 295.75 39.24 296.91 38.59 C 299.30 37.00 302.33 35.18 302.49 31.98 C 302.54 28.94 300.23 26.59 298.77 24.14 Z" />
<path fill="#fefeeb" opacity="1.00" d=" M 288.27 30.02 C 289.76 28.08 290.77 25.53 292.94 24.24 C 294.88 24.18 296.82 24.18 298.77 24.14 C 300.23 26.59 302.54 28.94 302.49 31.98 C 302.33 35.18 299.30 37.00 296.91 38.59 C 292.54 37.56 289.79 34.05 288.27 30.02 Z" />
<path fill="#ffe76e" opacity="1.00" d=" M 322.03 30.93 C 326.19 28.48 330.58 26.48 335.01 24.58 C 332.65 29.98 329.02 34.65 325.64 39.42 C 324.38 41.17 323.12 42.90 321.73 44.54 C 320.85 45.75 319.48 46.52 317.97 46.44 C 317.39 46.47 316.23 46.52 315.64 46.55 C 318.78 41.82 320.98 36.52 322.03 30.93 Z" />
<path fill="#fefffc" opacity="1.00" d=" M 305.96 37.37 C 308.47 36.70 310.49 34.87 313.09 34.40 C 313.97 37.69 312.40 40.71 309.63 42.50 C 308.39 40.80 307.17 39.09 305.96 37.37 Z" />
<path fill="#000000" opacity="0.47" d=" M 342.85 38.68 C 348.04 37.51 353.29 35.60 358.69 36.17 C 361.14 36.33 361.60 39.08 361.73 41.02 C 362.08 46.44 361.71 51.86 361.98 57.28 C 362.95 56.46 363.92 55.64 364.85 54.77 C 364.48 55.74 364.12 56.72 363.77 57.70 C 363.08 57.73 361.70 57.79 361.01 57.83 C 360.97 52.85 361.36 47.89 361.25 42.92 C 361.23 40.69 360.67 38.28 358.81 36.85 C 354.18 36.61 349.71 38.17 345.24 39.13 C 346.16 40.96 347.43 42.70 347.72 44.77 C 346.73 46.39 345.33 47.70 343.96 49.01 C 344.98 47.39 345.97 45.75 346.99 44.13 C 345.59 42.33 344.23 40.50 342.85 38.68 Z" />
<path fill="#fb7f4c" opacity="1.00" d=" M 321.73 44.54 C 323.12 42.90 324.38 41.17 325.64 39.42 C 327.71 43.44 332.44 42.29 336.16 42.39 C 335.20 45.20 334.54 48.27 332.50 50.53 C 330.63 52.60 328.41 54.29 326.28 56.07 C 328.20 52.80 329.77 49.34 330.95 45.74 C 327.97 44.75 324.86 44.35 321.73 44.54 Z" />
<path fill="#9f9fd7" opacity="1.00" d=" M 339.88 42.04 C 341.00 42.48 342.12 42.92 343.24 43.36 C 341.89 45.64 340.26 47.74 338.13 49.34 C 338.63 46.89 339.25 44.46 339.88 42.04 Z" />
<path fill="#e66740" opacity="1.00" d=" M 305.91 52.02 C 309.36 50.58 312.59 48.70 315.64 46.55 C 316.23 46.52 317.39 46.47 317.97 46.44 C 317.13 47.43 316.29 48.40 315.45 49.38 C 315.79 50.98 316.13 52.58 316.46 54.18 C 313.80 54.87 311.14 55.52 308.48 56.22 C 308.53 54.78 308.58 53.35 308.65 51.91 C 307.96 51.94 306.59 51.99 305.91 52.02 Z" />
<path fill="#ffd6ce" opacity="1.00" d=" M 320.76 49.78 C 322.62 48.49 324.96 48.41 327.12 48.04 C 325.33 51.13 323.06 53.91 320.43 56.31 C 320.45 54.19 318.71 51.40 320.76 49.78 Z" />
<path fill="#8684ab" opacity="1.00" d=" M 332.26 55.02 C 333.76 53.71 335.25 52.40 336.74 51.09 C 338.95 55.37 342.34 58.82 345.19 62.63 C 346.28 66.16 345.13 70.01 345.06 73.64 C 343.26 72.44 341.47 71.22 339.72 69.97 C 338.20 70.57 336.68 71.16 335.17 71.76 C 335.48 67.96 336.20 64.09 335.55 60.29 C 334.83 58.32 333.44 56.71 332.26 55.02 Z" />
<path fill="#ffff88" opacity="1.00" d=" M 300.14 53.78 C 301.50 52.08 303.94 52.18 305.91 52.02 C 306.59 51.99 307.96 51.94 308.65 51.91 C 308.58 53.35 308.53 54.78 308.48 56.22 C 304.63 57.09 300.78 57.95 296.97 58.94 C 298.00 57.21 299.03 55.47 300.14 53.78 Z" />
<path fill="#fefefd" opacity="1.00" d=" M 290.68 57.57 C 293.79 56.20 296.87 54.75 300.14 53.78 C 299.03 55.47 298.00 57.21 296.97 58.94 C 294.98 59.50 293.00 60.03 291.02 60.58 C 290.90 59.57 290.79 58.57 290.68 57.57 Z" />
<path fill="#ffe76e" opacity="1.00" d=" M 282.54 61.73 C 284.92 59.76 287.73 58.46 290.68 57.57 C 290.79 58.57 290.90 59.57 291.02 60.58 C 288.23 61.22 285.40 61.65 282.54 61.73 Z" />
<path fill="#7e7b9b" opacity="1.00" d=" M 313.09 60.88 C 318.65 59.10 324.66 58.67 330.40 59.74 C 332.84 65.35 330.90 71.71 330.53 77.59 C 325.11 79.44 319.58 80.94 313.98 82.13 L 314.34 81.51 C 316.19 78.36 317.98 75.18 319.78 72.00 C 318.04 68.46 316.68 64.74 315.89 60.87 C 314.95 60.86 314.02 60.86 313.09 60.88 Z" />
<path fill="#000000" opacity="0.53" d=" M 272.42 64.81 C 273.68 62.60 275.32 60.64 277.73 59.66 C 276.20 61.14 274.86 62.81 273.43 64.39 C 283.02 66.83 292.34 62.47 301.83 61.67 C 300.82 68.30 300.02 74.97 299.17 81.63 C 298.28 75.28 300.21 69.02 300.32 62.68 C 291.10 63.80 281.65 68.32 272.42 64.81 Z" />
<path fill="#fffff5" opacity="1.00" d=" M 309.48 64.20 C 309.05 62.09 311.60 61.53 313.09 60.88 C 314.02 60.86 314.95 60.86 315.89 60.87 C 316.68 64.74 318.04 68.46 319.78 72.00 C 317.98 75.18 316.19 78.36 314.34 81.51 C 311.53 76.16 310.39 70.11 309.48 64.20 Z" />
<path fill="#000000" opacity="0.47" d=" M 349.39 60.96 C 349.66 67.82 351.17 75.57 346.88 81.55 L 347.04 80.71 C 348.27 74.18 348.83 67.57 349.39 60.96 Z" />
<path fill="#fffffe" opacity="1.00" d=" M 302.43 78.19 C 302.55 73.95 302.79 69.53 304.88 65.73 C 306.06 68.37 307.47 71.42 306.22 74.31 C 305.24 75.86 303.77 76.99 302.43 78.19 Z" />
<path fill="#32312e" opacity="0.57" d=" M 306.11 79.69 C 306.98 79.01 307.83 78.32 308.65 77.59 C 309.01 79.11 309.36 80.64 309.74 82.16 C 308.54 81.32 307.33 80.50 306.11 79.69 Z" />
<path fill="#000000" opacity="0.50" d=" M 309.97 83.05 C 312.47 84.54 315.08 85.82 317.69 87.09 C 315.97 94.72 314.10 102.32 312.91 110.05 C 311.64 119.04 308.15 127.82 309.35 137.04 C 308.65 134.79 307.68 132.51 308.10 130.10 C 309.04 123.30 310.99 116.68 312.02 109.88 C 313.19 102.37 314.65 94.91 316.79 87.61 C 314.02 86.86 311.30 85.78 309.97 83.05 Z" />
<path fill="#752a3a" opacity="1.00" d=" M 322.40 85.30 C 323.53 82.82 327.11 83.78 328.97 84.92 C 330.06 88.83 330.11 92.95 331.11 96.88 C 335.17 111.64 339.81 126.26 345.55 140.45 C 347.62 145.64 352.11 149.30 354.61 154.22 C 353.89 157.27 352.12 159.95 351.31 162.98 C 352.92 166.81 355.99 169.89 357.08 173.96 C 360.57 185.82 363.91 197.72 367.66 209.50 C 370.10 217.05 373.67 224.27 375.06 232.14 C 370.26 221.63 366.21 210.79 361.98 200.04 C 358.32 189.31 353.16 179.18 347.74 169.24 C 344.39 163.22 342.06 156.67 340.96 149.87 C 339.93 145.37 339.93 139.54 335.19 137.20 L 334.59 136.77 C 331.28 126.60 330.39 115.85 327.41 105.59 C 325.71 98.85 323.00 92.27 322.40 85.30 Z" />
<path fill="#e273ba" opacity="1.00" d=" M 318.94 94.54 C 319.88 96.73 320.85 99.02 320.37 101.46 C 319.49 108.29 319.19 115.18 319.73 122.04 C 319.41 122.45 318.77 123.27 318.45 123.68 C 317.75 123.33 317.06 122.98 316.37 122.63 C 316.25 120.73 316.12 118.84 316.08 116.94 C 316.53 109.43 317.77 101.97 318.94 94.54 Z" />
<path fill="#0f080d" opacity="0.68" d=" M 321.98 111.76 C 323.22 111.96 324.46 112.05 325.72 112.02 C 325.75 112.73 325.80 114.16 325.82 114.87 C 325.29 114.71 324.23 114.40 323.70 114.24 C 323.43 116.61 323.26 118.99 323.11 121.37 L 323.05 122.28 C 322.29 118.82 322.07 115.29 321.98 111.76 Z" />
<path fill="#8d74a0" opacity="1.00" d=" M 311.84 132.95 C 313.10 127.58 314.08 122.11 316.08 116.94 C 316.12 118.84 316.25 120.73 316.37 122.63 C 317.06 122.98 317.75 123.33 318.45 123.68 C 318.77 123.27 319.41 122.45 319.73 122.04 C 320.53 126.03 320.74 130.15 322.02 134.03 C 322.38 135.70 324.31 135.64 325.56 136.27 C 323.52 138.03 321.76 140.06 319.88 141.98 C 317.55 138.67 314.73 135.76 311.84 132.95 Z" />
<path fill="#b5aeb9" opacity="1.00" d=" M 325.56 136.27 C 326.86 135.01 328.43 134.08 329.90 133.02 C 330.80 136.23 331.58 139.47 332.26 142.73 C 330.84 143.66 329.41 144.58 328.03 145.56 C 324.95 147.70 322.37 150.50 320.61 153.81 C 321.29 151.81 321.92 149.76 322.07 147.64 C 321.86 145.64 319.96 144.57 318.71 143.22 C 319.01 142.91 319.59 142.29 319.88 141.98 C 321.76 140.06 323.52 138.03 325.56 136.27 Z" />
<path fill="#a07171" opacity="1.00" d=" M 335.19 137.20 C 339.93 139.54 339.93 145.37 340.96 149.87 C 342.06 156.67 344.39 163.22 347.74 169.24 C 353.16 179.18 358.32 189.31 361.98 200.04 C 359.52 197.58 356.52 195.78 353.43 194.22 C 351.71 187.19 350.20 180.06 347.13 173.47 C 346.68 175.33 346.22 177.20 345.88 179.09 C 343.35 172.81 342.19 166.11 340.35 159.62 C 338.28 152.23 336.80 144.70 335.19 137.20 Z" />
<path fill="#9492c1" opacity="1.00" d=" M 328.03 145.56 C 329.41 144.58 330.84 143.66 332.26 142.73 C 332.75 144.66 333.38 146.58 333.54 148.59 C 332.57 150.33 330.82 151.59 328.80 151.74 C 328.12 151.87 326.76 152.12 326.08 152.24 C 327.44 150.45 328.78 148.63 330.18 146.86 C 329.64 146.54 328.56 145.89 328.03 145.56 Z" />
<path fill="#fefef4" opacity="1.00" d=" M 314.79 146.96 C 315.19 145.00 317.35 144.36 318.71 143.22 C 319.96 144.57 321.86 145.64 322.07 147.64 C 321.92 149.76 321.29 151.81 320.61 153.81 C 317.66 159.27 313.60 163.99 309.93 168.95 C 305.56 174.85 301.11 180.72 296.18 186.17 C 294.70 187.58 293.24 189.35 291.15 189.77 C 289.79 189.42 288.48 188.95 287.16 188.52 C 290.27 181.62 296.02 176.52 300.79 170.80 C 306.11 164.44 312.67 159.19 317.37 152.31 C 316.46 150.55 315.45 148.83 314.79 146.96 Z" />
<path fill="#595992" opacity="1.00" d=" M 320.61 153.81 C 322.37 150.50 324.95 147.70 328.03 145.56 C 328.56 145.89 329.64 146.54 330.18 146.86 C 328.78 148.63 327.44 150.45 326.08 152.24 C 326.76 152.12 328.12 151.87 328.80 151.74 C 325.80 154.11 323.17 156.92 321.12 160.15 C 314.61 169.55 307.76 178.73 300.41 187.49 C 297.60 190.46 299.96 195.24 297.26 198.22 C 294.49 202.03 289.65 202.97 285.30 201.71 C 285.27 197.25 285.81 192.79 287.16 188.52 C 288.48 188.95 289.79 189.42 291.15 189.77 C 293.24 189.35 294.70 187.58 296.18 186.17 C 301.11 180.72 305.56 174.85 309.93 168.95 C 313.60 163.99 317.66 159.27 320.61 153.81 Z" />
<path fill="#000000" opacity="0.53" d=" M 279.58 167.28 C 282.60 170.12 283.84 174.06 284.41 178.05 C 283.88 178.34 283.36 178.62 282.85 178.91 C 282.36 174.89 281.26 170.97 279.58 167.28 Z" />
<path fill="#000000" opacity="0.45" d=" M 230.12 172.10 C 233.61 170.29 237.61 169.92 241.22 171.62 C 237.52 171.53 233.80 171.67 230.12 172.10 Z" />
<path fill="#512472" opacity="1.00" d=" M 261.34 178.37 C 266.44 175.07 272.29 173.11 278.21 171.88 C 278.49 179.30 276.63 187.47 271.39 192.95 C 270.45 193.79 269.49 194.61 268.56 195.45 C 264.82 194.88 260.83 194.51 257.28 196.14 C 251.97 198.32 249.19 203.66 245.98 208.07 C 245.90 207.52 245.74 206.41 245.65 205.86 C 245.50 204.84 245.36 203.82 245.22 202.81 C 244.13 202.88 243.04 202.98 241.96 203.09 C 242.93 201.73 243.80 200.30 244.77 198.94 C 250.19 193.61 259.40 193.14 263.35 186.02 C 260.89 186.49 258.46 187.07 256.03 187.67 C 257.46 184.43 258.16 180.42 261.34 178.37 Z" />
<path fill="#b28582" opacity="1.00" d=" M 347.13 173.47 C 350.20 180.06 351.71 187.19 353.43 194.22 C 356.52 195.78 359.52 197.58 361.98 200.04 C 366.21 210.79 370.26 221.63 375.06 232.14 C 377.59 237.94 380.05 243.81 381.74 249.92 C 383.04 255.40 384.94 260.71 387.23 265.85 C 391.12 274.61 392.54 284.19 395.90 293.14 C 399.30 302.41 403.31 311.47 405.99 321.00 C 404.45 318.12 402.80 315.30 401.53 312.29 C 395.89 298.50 389.61 284.98 382.92 271.67 C 382.58 273.15 382.23 274.63 381.95 276.14 C 378.31 268.62 376.39 260.44 373.36 252.68 C 371.27 246.95 368.50 241.50 366.25 235.83 C 363.22 228.23 362.92 219.85 359.69 212.32 C 357.66 207.33 352.67 204.13 351.25 198.81 C 349.40 192.26 347.03 185.81 345.88 179.09 C 346.22 177.20 346.68 175.33 347.13 173.47 Z" />
<path fill="#fe408c" opacity="1.00" d=" M 233.50 182.48 C 236.90 181.16 242.23 183.78 241.76 187.79 C 240.48 193.33 231.78 194.67 228.34 190.59 C 227.88 187.12 230.50 183.89 233.50 182.48 Z" />
<path fill="#451e66" opacity="1.00" d=" M 281.54 184.51 C 282.33 182.67 284.35 182.15 286.00 181.38 C 282.29 192.77 276.05 203.25 268.66 212.62 C 266.77 215.07 264.79 217.53 262.28 219.37 C 253.82 225.03 247.74 233.64 238.58 238.35 C 238.36 234.05 238.47 229.73 238.90 225.44 C 234.77 226.19 230.58 226.53 226.39 226.36 C 230.93 224.20 235.93 222.26 239.10 218.14 C 241.61 214.94 243.65 211.40 245.98 208.07 C 249.19 203.66 251.97 198.32 257.28 196.14 C 260.83 194.51 264.82 194.88 268.56 195.45 C 260.90 202.62 255.52 211.87 250.93 221.21 C 261.32 215.67 268.45 205.95 274.73 196.30 C 277.43 192.63 279.37 188.50 281.54 184.51 Z" />
<path fill="#000000" opacity="0.49" d=" M 302.58 191.12 C 302.74 188.36 305.24 186.76 307.02 185.00 C 302.96 189.81 302.92 196.32 302.13 202.24 C 317.34 206.56 333.30 205.85 348.91 207.22 C 349.22 206.73 349.84 205.76 350.15 205.27 C 350.50 205.85 351.20 207.00 351.56 207.58 C 342.39 208.34 333.24 207.22 324.11 206.54 C 316.06 205.73 307.71 205.69 300.19 202.30 C 301.51 198.70 302.06 194.90 302.58 191.12 Z" />
<path fill="#2f184d" opacity="1.00" d=" M 268.56 195.45 C 269.49 194.61 270.45 193.79 271.39 192.95 C 272.51 194.06 273.62 195.18 274.73 196.30 C 268.45 205.95 261.32 215.67 250.93 221.21 C 255.52 211.87 260.90 202.62 268.56 195.45 Z" />
<path fill="#ba58bc" opacity="1.00" d=" M 215.62 210.58 C 225.60 207.37 234.82 202.21 244.77 198.94 C 243.80 200.30 242.93 201.73 241.96 203.09 C 235.30 205.62 228.80 208.57 222.16 211.19 C 213.84 214.48 205.35 217.43 197.29 221.35 C 194.76 222.52 192.89 224.65 191.14 226.74 C 197.12 225.29 202.62 222.47 208.35 220.29 C 220.76 215.42 233.37 211.05 245.65 205.86 C 245.74 206.41 245.90 207.52 245.98 208.07 C 243.65 211.40 241.61 214.94 239.10 218.14 C 235.93 222.26 230.93 224.20 226.39 226.36 C 220.49 228.76 214.86 231.82 208.78 233.80 C 203.91 235.10 198.72 236.56 195.65 240.92 C 195.56 240.70 195.36 240.26 195.27 240.04 C 193.64 235.46 190.62 231.54 186.67 228.72 C 186.81 229.24 187.07 230.29 187.21 230.81 C 184.14 227.67 182.15 223.72 180.29 219.80 C 186.94 215.45 195.08 215.51 202.51 213.46 C 206.84 212.33 211.33 211.88 215.62 210.58 Z" />
<path fill="#000000" opacity="0.39" d=" M 436.95 204.02 C 441.35 203.17 445.79 202.46 450.27 202.13 C 432.27 206.94 413.54 208.04 394.99 208.36 C 388.26 208.44 381.51 208.75 374.80 207.99 C 385.47 206.42 396.30 207.96 407.03 207.19 C 417.03 206.39 427.09 205.94 436.95 204.02 Z" />
<path fill="#04012c" opacity="1.00" d=" M 222.16 211.19 C 228.80 208.57 235.30 205.62 241.96 203.09 C 243.04 202.98 244.13 202.88 245.22 202.81 C 245.36 203.82 245.50 204.84 245.65 205.86 C 233.37 211.05 220.76 215.42 208.35 220.29 C 202.62 222.47 197.12 225.29 191.14 226.74 C 192.89 224.65 194.76 222.52 197.29 221.35 C 205.35 217.43 213.84 214.48 222.16 211.19 Z" />
<path fill="#706ead" opacity="1.00" d=" M 278.12 208.63 C 278.97 206.50 280.03 204.47 280.99 202.38 C 282.44 203.73 283.94 205.04 285.34 206.46 C 282.90 207.07 280.43 207.63 278.12 208.63 Z" />
<path fill="#38175b" opacity="1.00" d=" M 451.40 206.37 C 454.60 205.46 457.80 204.56 461.04 203.79 C 459.06 213.83 454.53 223.09 450.30 232.34 C 444.09 245.55 437.59 258.70 429.43 270.83 C 416.26 264.94 402.98 259.25 389.50 254.11 C 389.65 254.81 389.95 256.21 390.10 256.91 C 387.81 252.63 386.26 248.01 384.52 243.49 C 380.80 233.46 377.03 223.43 373.91 213.20 C 399.82 212.53 426.17 213.23 451.40 206.37 Z" />
<path fill="#341757" opacity="1.00" d=" M 293.71 205.60 C 296.19 204.05 298.92 205.95 301.34 206.71 C 307.90 209.68 315.21 209.75 322.25 210.54 C 331.50 211.51 340.80 211.83 350.10 212.08 C 352.32 212.31 355.36 212.09 356.41 214.58 C 358.90 219.46 359.12 225.09 360.85 230.24 C 362.23 234.25 363.67 238.30 363.92 242.58 C 356.93 239.82 350.03 236.84 343.20 233.69 C 338.11 231.23 333.16 228.51 328.16 225.88 C 321.63 221.69 315.54 216.59 308.23 213.77 C 300.54 210.76 291.82 218.85 293.24 226.71 C 294.17 232.16 297.63 236.75 301.25 240.75 C 305.56 245.71 311.19 249.16 316.92 252.22 C 322.27 255.68 327.97 258.51 333.68 261.30 C 345.92 267.26 357.72 274.28 370.76 278.41 C 373.51 279.45 376.24 280.58 379.04 281.49 C 378.99 281.11 378.90 280.35 378.85 279.96 C 382.60 288.30 386.51 296.72 388.48 305.69 C 375.21 306.78 361.52 313.27 355.26 325.55 C 353.51 320.45 348.70 317.57 345.09 313.92 C 337.21 306.11 329.32 298.32 321.91 290.06 C 317.08 284.82 313.10 278.87 308.10 273.77 C 310.95 282.04 314.79 289.92 317.91 298.09 C 321.34 307.10 327.16 314.87 331.58 323.38 C 335.29 330.37 340.56 336.32 345.39 342.53 C 341.24 347.31 335.71 350.60 329.55 352.02 C 329.14 351.46 328.32 350.36 327.91 349.81 C 328.34 349.77 329.20 349.71 329.63 349.68 C 328.50 347.92 327.39 346.16 326.34 344.36 C 319.16 330.15 310.54 316.69 304.07 302.13 C 300.00 293.21 296.40 284.07 291.67 275.47 C 292.50 273.20 293.41 270.92 293.68 268.50 C 292.45 267.70 291.13 267.09 289.83 266.44 C 287.59 260.87 285.77 255.14 283.30 249.68 C 280.60 243.70 274.47 240.63 269.59 236.72 C 272.46 234.61 275.28 232.26 276.91 229.02 C 279.68 223.59 284.15 219.31 287.06 213.98 C 288.93 210.96 290.59 207.53 293.71 205.60 Z" />
<path fill="#aeaad0" opacity="1.00" d=" M 278.12 208.63 C 280.43 207.63 282.90 207.07 285.34 206.46 C 285.69 206.57 286.38 206.79 286.73 206.90 C 285.63 208.76 284.33 210.50 283.09 212.26 C 280.57 211.88 278.05 211.53 275.54 211.16 C 276.39 210.32 276.95 209.07 278.12 208.63 Z" />
<path fill="#000000" opacity="0.45" d=" M 185.88 211.97 C 194.34 209.11 203.35 208.27 212.23 208.30 C 203.64 210.68 194.57 210.08 185.88 211.97 Z" />
<path fill="#7676ac" opacity="1.00" d=" M 267.73 219.47 C 269.57 217.14 271.18 214.23 274.09 213.12 C 276.72 213.66 279.04 215.09 281.40 216.32 C 279.92 218.08 278.75 220.43 276.50 221.31 C 273.48 221.40 270.62 220.16 267.73 219.47 Z" />
<path fill="#492265" opacity="1.00" d=" M 293.24 226.71 C 291.82 218.85 300.54 210.76 308.23 213.77 C 315.54 216.59 321.63 221.69 328.16 225.88 C 324.14 224.64 319.85 222.71 315.61 223.61 C 310.49 227.10 307.00 233.53 307.26 239.77 C 308.61 245.02 313.27 248.51 316.92 252.22 C 311.19 249.16 305.56 245.71 301.25 240.75 C 297.63 236.75 294.17 232.16 293.24 226.71 Z" />
<path fill="#522370" opacity="1.00" d=" M 238.58 238.35 C 247.74 233.64 253.82 225.03 262.28 219.37 C 258.80 225.62 253.66 230.66 248.90 235.91 C 245.20 239.59 241.91 243.91 237.16 246.32 C 233.84 248.11 230.61 250.12 227.13 251.59 C 225.18 250.16 223.74 248.19 222.24 246.32 C 219.27 241.95 215.25 238.13 209.99 236.80 C 209.59 235.80 209.18 234.80 208.78 233.80 C 214.86 231.82 220.49 228.76 226.39 226.36 C 230.58 226.53 234.77 226.19 238.90 225.44 C 238.47 229.73 238.36 234.05 238.58 238.35 Z" />
<path fill="#6d6c9d" opacity="1.00" d=" M 264.90 223.93 C 268.25 222.03 272.12 223.88 275.41 225.00 C 273.67 228.09 272.20 232.09 268.52 233.29 C 264.51 234.27 260.35 233.57 256.31 233.25 C 258.92 229.95 261.40 226.38 264.90 223.93 Z" />
<path fill="#5a2a72" opacity="1.00" d=" M 315.61 223.61 C 319.85 222.71 324.14 224.64 328.16 225.88 C 333.16 228.51 338.11 231.23 343.20 233.69 C 340.59 233.38 337.96 233.25 335.34 233.09 C 331.97 239.41 329.87 246.56 330.44 253.78 C 330.63 256.58 332.05 259.09 333.68 261.30 C 327.97 258.51 322.27 255.68 316.92 252.22 C 313.27 248.51 308.61 245.02 307.26 239.77 C 307.00 233.53 310.49 227.10 315.61 223.61 Z" />
<path fill="#dd68e0" opacity="1.00" d=" M 186.67 228.72 C 190.62 231.54 193.64 235.46 195.27 240.04 C 191.79 237.84 188.55 234.78 187.21 230.81 C 187.07 230.29 186.81 229.24 186.67 228.72 Z" />
<path fill="#69317e" opacity="1.00" d=" M 335.34 233.09 C 337.96 233.25 340.59 233.38 343.20 233.69 C 350.03 236.84 356.93 239.82 363.92 242.58 C 364.68 242.91 365.44 243.24 366.21 243.56 C 364.87 243.51 363.53 243.47 362.19 243.45 C 364.65 255.21 371.01 266.13 370.76 278.41 C 357.72 274.28 345.92 267.26 333.68 261.30 C 332.05 259.09 330.63 256.58 330.44 253.78 C 329.87 246.56 331.97 239.41 335.34 233.09 Z" />
<path fill="#853e96" opacity="1.00" d=" M 195.65 240.92 C 198.72 236.56 203.91 235.10 208.78 233.80 C 209.18 234.80 209.59 235.80 209.99 236.80 C 205.11 237.81 200.43 239.53 195.65 240.92 Z" />
<path fill="#b455b7" opacity="1.00" d=" M 195.65 240.92 C 200.43 239.53 205.11 237.81 209.99 236.80 C 215.25 238.13 219.27 241.95 222.24 246.32 C 218.05 245.57 213.12 243.28 209.30 246.26 C 203.70 250.51 200.09 256.69 195.80 262.14 C 194.38 264.02 192.90 265.86 191.42 267.70 C 183.21 268.60 179.15 276.59 173.13 281.15 C 169.48 284.35 164.59 285.29 159.96 286.11 C 166.74 277.83 175.21 271.17 182.08 262.97 C 187.03 258.16 192.74 253.85 196.11 247.67 C 197.30 245.55 195.96 243.10 195.65 240.92 Z" />
<path fill="#44215d" opacity="1.00" d=" M 269.59 236.72 C 274.47 240.63 280.60 243.70 283.30 249.68 C 285.77 255.14 287.59 260.87 289.83 266.44 C 282.91 269.40 275.93 272.32 268.67 274.36 C 265.37 269.31 261.66 264.47 259.20 258.92 C 257.41 254.92 255.39 251.02 252.91 247.41 C 257.32 247.11 262.06 247.94 266.24 246.23 C 268.75 243.78 268.64 239.89 269.59 236.72 Z" />
<path fill="#8988c0" opacity="1.00" d=" M 247.62 242.51 C 249.33 241.01 250.81 238.80 253.23 238.49 C 257.13 238.02 261.07 238.28 264.98 238.34 C 264.76 240.08 264.51 241.81 264.26 243.55 C 258.73 242.98 253.18 242.72 247.62 242.51 Z" />
<path fill="#7b3a91" opacity="1.00" d=" M 362.19 243.45 C 363.53 243.47 364.87 243.51 366.21 243.56 C 370.58 254.23 374.05 265.23 377.93 276.08 C 378.33 277.35 378.75 278.63 378.85 279.96 C 378.90 280.35 378.99 281.11 379.04 281.49 C 376.24 280.58 373.51 279.45 370.76 278.41 C 371.01 266.13 364.65 255.21 362.19 243.45 Z" />
<path fill="#873e97" opacity="1.00" d=" M 209.30 246.26 C 213.12 243.28 218.05 245.57 222.24 246.32 C 223.74 248.19 225.18 250.16 227.13 251.59 C 230.61 250.12 233.84 248.11 237.16 246.32 C 232.97 251.42 227.77 255.51 223.02 260.05 C 214.62 267.97 206.69 276.37 198.30 284.29 C 188.44 293.48 180.16 304.16 170.81 313.83 C 166.47 318.34 163.05 323.68 158.30 327.81 C 158.92 323.14 162.03 319.42 165.04 316.01 C 167.81 312.80 170.85 309.85 173.82 306.83 C 181.80 298.78 188.29 289.35 196.75 281.76 C 201.43 277.59 205.56 272.78 208.34 267.13 C 204.40 264.91 200.21 263.15 195.80 262.14 C 200.09 256.69 203.70 250.51 209.30 246.26 Z" />
<path fill="#a5a3de" opacity="1.00" d=" M 238.66 251.33 C 241.17 248.68 244.24 246.54 247.88 245.82 C 247.48 248.00 247.89 250.94 245.66 252.26 C 243.29 252.30 240.98 251.70 238.66 251.33 Z" />
<path fill="#251543" opacity="1.00" d=" M 252.58 246.90 L 252.91 247.41 C 255.39 251.02 257.41 254.92 259.20 258.92 C 261.66 264.47 265.37 269.31 268.67 274.36 C 262.79 277.91 256.33 280.29 250.20 283.35 C 247.43 284.72 244.46 285.62 241.46 286.36 C 243.01 283.22 244.97 280.27 246.14 276.97 C 246.21 274.18 245.11 271.55 244.34 268.92 C 246.10 265.84 247.32 262.50 247.94 259.01 C 248.71 254.71 250.67 250.79 252.58 246.90 Z" />
<path fill="#e36ce4" opacity="1.00" d=" M 191.95 249.97 C 192.92 248.57 194.60 248.19 196.11 247.67 C 192.74 253.85 187.03 258.16 182.08 262.97 C 171.32 269.59 160.87 276.71 149.69 282.62 C 125.94 294.93 101.47 305.78 77.35 317.34 C 56.95 327.12 36.20 336.24 14.74 343.46 C 17.41 351.55 22.84 358.28 28.90 364.10 C 42.05 376.42 57.78 386.34 75.10 391.56 C 74.78 392.22 74.16 393.54 73.85 394.20 C 59.90 389.30 46.82 381.94 35.28 372.70 C 24.78 364.69 15.89 354.29 10.76 342.03 C 24.01 337.47 37.26 332.83 50.05 327.08 C 79.86 313.89 109.19 299.63 138.62 285.61 C 153.98 277.73 169.38 269.65 183.11 259.10 C 186.52 256.53 189.19 253.19 191.95 249.97 Z" />
<path fill="#87404c" opacity="1.00" d=" M 381.74 249.92 C 385.91 256.99 388.01 265.01 391.72 272.31 C 399.08 287.40 406.15 302.66 411.44 318.62 C 414.08 326.64 417.19 334.65 417.91 343.14 C 413.29 336.12 409.33 328.71 405.99 321.00 C 403.31 311.47 399.30 302.41 395.90 293.14 C 392.54 284.19 391.12 274.61 387.23 265.85 C 384.94 260.71 383.04 255.40 381.74 249.92 Z" />
<path fill="#79388a" opacity="1.00" d=" M 389.50 254.11 C 402.98 259.25 416.26 264.94 429.43 270.83 C 425.65 277.09 421.01 282.76 416.37 288.40 C 413.94 291.31 411.00 293.74 407.94 295.95 C 404.19 290.37 401.74 284.10 398.95 278.03 C 395.97 271.01 392.31 264.22 390.10 256.91 C 389.95 256.21 389.65 254.81 389.50 254.11 Z" />
<path fill="#8280ac" opacity="1.00" d=" M 237.80 254.97 C 239.81 255.50 241.82 256.04 243.85 256.53 C 243.67 259.02 244.00 261.68 243.02 264.03 C 241.23 266.20 238.15 266.27 235.63 266.89 C 236.78 263.17 237.45 259.30 237.73 255.42 L 237.80 254.97 Z" />
<path fill="#fffefa" opacity="1.00" d=" M 229.98 267.75 C 230.79 262.88 232.17 256.78 237.73 255.42 C 237.45 259.30 236.78 263.17 235.63 266.89 C 234.74 268.61 231.70 267.38 229.98 267.75 Z" />
<path fill="#743589" opacity="1.00" d=" M 195.80 262.14 C 200.21 263.15 204.40 264.91 208.34 267.13 C 205.56 272.78 201.43 277.59 196.75 281.76 C 188.29 289.35 181.80 298.78 173.82 306.83 C 170.85 309.85 167.81 312.80 165.04 316.01 C 162.03 319.42 158.92 323.14 158.30 327.81 L 158.15 328.46 C 155.20 333.31 151.31 337.49 148.30 342.30 C 144.69 347.94 140.66 353.28 136.66 358.65 C 132.83 363.73 130.30 369.62 126.82 374.92 C 126.83 373.52 126.81 372.12 126.78 370.73 C 122.94 375.10 120.24 380.28 117.20 385.19 C 114.85 389.12 109.92 389.82 106.52 392.49 C 103.71 394.22 101.21 397.65 97.50 396.63 C 90.20 395.22 83.00 393.27 75.73 391.73 C 86.29 377.16 99.29 364.62 111.25 351.23 C 128.87 331.25 147.71 312.39 166.62 293.64 C 175.04 285.15 184.10 277.21 191.42 267.70 C 192.90 265.86 194.38 264.02 195.80 262.14 Z" />
<path fill="#be5abf" opacity="1.00" d=" M 149.69 282.62 C 160.87 276.71 171.32 269.59 182.08 262.97 C 175.21 271.17 166.74 277.83 159.96 286.11 C 164.59 285.29 169.48 284.35 173.13 281.15 C 179.15 276.59 183.21 268.60 191.42 267.70 C 184.10 277.21 175.04 285.15 166.62 293.64 C 147.71 312.39 128.87 331.25 111.25 351.23 C 99.29 364.62 86.29 377.16 75.73 391.73 L 75.10 391.56 C 57.78 386.34 42.05 376.42 28.90 364.10 C 22.84 358.28 17.41 351.55 14.74 343.46 C 36.20 336.24 56.95 327.12 77.35 317.34 C 101.47 305.78 125.94 294.93 149.69 282.62 Z" />
<path fill="#2b1950" opacity="1.00" d=" M 217.62 271.23 C 220.34 267.84 223.44 264.75 227.04 262.28 C 226.68 265.76 225.90 269.21 224.31 272.35 C 222.23 276.52 220.77 281.08 217.81 284.77 C 216.69 286.34 215.24 287.77 214.61 289.64 C 214.28 292.89 215.17 296.12 215.60 299.33 C 212.42 297.59 209.43 295.52 206.64 293.21 C 210.30 288.69 214.56 284.59 217.52 279.56 C 219.18 277.01 218.10 273.95 217.62 271.23 Z" />
<path fill="#8784aa" opacity="1.00" d=" M 230.65 271.32 C 234.50 271.10 238.35 270.90 242.21 270.86 C 242.20 274.17 243.49 279.09 239.73 280.85 C 237.52 280.80 235.45 279.89 233.38 279.22 C 233.62 276.84 233.87 274.46 234.12 272.09 C 233.25 271.90 231.51 271.51 230.65 271.32 Z" />
<path fill="#fffffb" opacity="1.00" d=" M 224.92 280.87 C 226.02 277.26 227.88 273.92 230.65 271.32 C 231.51 271.51 233.25 271.90 234.12 272.09 C 233.87 274.46 233.62 276.84 233.38 279.22 C 230.55 279.73 227.75 280.38 224.92 280.87 Z" />
<path fill="#7b79a8" opacity="1.00" d=" M 279.06 275.23 C 281.92 273.48 285.11 272.39 288.38 271.72 C 284.94 280.43 278.02 287.09 270.86 292.84 C 261.89 299.93 253.13 307.38 243.31 313.29 C 238.21 316.35 232.49 318.35 226.57 318.99 C 234.09 311.85 244.03 308.33 252.42 302.45 C 262.82 295.36 272.68 287.44 281.50 278.44 C 280.84 277.94 279.51 276.95 278.84 276.45 C 279.59 275.94 280.33 275.41 281.07 274.89 C 280.57 274.97 279.56 275.14 279.06 275.23 Z" />
<path fill="#c79893" opacity="1.00" d=" M 382.92 271.67 C 389.61 284.98 395.89 298.50 401.53 312.29 C 402.80 315.30 404.45 318.12 405.99 321.00 C 409.33 328.71 413.29 336.12 417.91 343.14 C 420.07 347.51 421.13 352.35 422.02 357.12 C 422.34 358.46 422.04 359.65 421.12 360.71 C 418.73 359.54 417.03 357.43 415.99 355.03 C 408.29 338.37 399.98 321.98 393.14 304.93 C 389.26 295.41 384.84 286.00 381.95 276.14 C 382.23 274.63 382.58 273.15 382.92 271.67 Z" />
<path fill="#833f90" opacity="1.00" d=" M 308.10 273.77 C 313.10 278.87 317.08 284.82 321.91 290.06 C 329.32 298.32 337.21 306.11 345.09 313.92 C 348.70 317.57 353.51 320.45 355.26 325.55 C 352.60 331.54 349.45 337.36 345.39 342.53 C 340.56 336.32 335.29 330.37 331.58 323.38 C 327.16 314.87 321.34 307.10 317.91 298.09 C 314.79 289.92 310.95 282.04 308.10 273.77 Z" />
<path fill="#a4a0d7" opacity="1.00" d=" M 206.38 282.38 C 209.19 279.53 211.37 275.83 215.28 274.32 C 214.05 279.97 209.26 283.58 205.95 287.97 C 200.29 294.72 196.36 302.97 189.35 308.52 C 189.36 307.93 189.39 306.75 189.41 306.16 C 190.99 302.09 193.67 298.54 195.65 294.65 C 198.19 289.74 202.66 286.34 206.38 282.38 Z" />
<path fill="#fdf7e5" opacity="1.00" d=" M 251.23 287.10 C 260.20 282.52 269.34 277.95 279.06 275.23 C 279.56 275.14 280.57 274.97 281.07 274.89 C 280.33 275.41 279.59 275.94 278.84 276.45 C 271.90 280.68 264.25 283.74 257.85 288.85 C 245.90 298.10 234.46 308.02 223.90 318.84 C 223.02 319.54 222.05 320.08 220.98 320.47 C 217.99 318.71 216.10 315.68 214.10 312.95 C 211.02 308.31 207.78 303.71 205.71 298.52 C 209.31 299.89 212.25 302.72 215.98 303.72 C 219.04 302.80 221.74 301.01 224.56 299.54 C 233.13 294.73 242.39 291.36 251.23 287.10 Z" />
<path fill="#612e77" opacity="1.00" d=" M 281.56 288.56 C 285.49 284.66 288.42 279.92 291.67 275.47 C 296.40 284.07 300.00 293.21 304.07 302.13 C 301.46 303.08 298.87 304.07 296.28 305.08 C 292.75 303.00 289.30 300.57 285.28 299.59 C 282.43 298.77 279.78 300.56 277.23 301.55 C 279.88 302.39 282.57 303.11 285.23 303.93 C 281.61 303.77 277.99 303.63 274.38 303.52 C 273.60 301.68 272.74 299.85 272.24 297.92 C 274.80 294.30 278.58 291.80 281.56 288.56 Z" />
<path fill="#5e5e86" opacity="1.00" d=" M 278.84 276.45 C 279.51 276.95 280.84 277.94 281.50 278.44 C 272.68 287.44 262.82 295.36 252.42 302.45 C 244.03 308.33 234.09 311.85 226.57 318.99 C 225.90 318.95 224.57 318.88 223.90 318.84 C 234.46 308.02 245.90 298.10 257.85 288.85 C 264.25 283.74 271.90 280.68 278.84 276.45 Z" />
<path fill="#9591b9" opacity="1.00" d=" M 227.80 283.69 C 230.02 283.33 232.36 282.75 234.58 283.46 C 236.60 284.28 238.20 285.82 239.90 287.14 C 237.24 288.99 234.46 290.68 231.58 292.17 C 231.71 289.35 231.86 286.53 231.98 283.72 C 230.58 283.69 229.19 283.68 227.80 283.69 Z" />
<path fill="#fefef4" opacity="1.00" d=" M 218.49 289.05 C 220.45 285.89 224.32 284.45 227.80 283.69 C 229.19 283.68 230.58 283.69 231.98 283.72 C 231.86 286.53 231.71 289.35 231.58 292.17 C 227.55 294.27 223.58 296.52 219.34 298.19 C 218.81 295.18 218.06 292.11 218.49 289.05 Z" />
<path fill="#703583" opacity="1.00" d=" M 277.23 301.55 C 279.78 300.56 282.43 298.77 285.28 299.59 C 289.30 300.57 292.75 303.00 296.28 305.08 C 298.87 304.07 301.46 303.08 304.07 302.13 C 310.54 316.69 319.16 330.15 326.34 344.36 C 321.58 346.43 317.10 349.05 312.66 351.74 C 308.02 354.55 302.76 356.03 297.54 357.34 C 294.16 352.31 291.06 347.10 288.03 341.86 C 285.00 335.84 285.07 328.69 286.42 322.23 C 287.39 317.72 290.22 313.74 290.61 309.10 C 290.60 306.20 287.71 304.55 285.23 303.93 C 282.57 303.11 279.88 302.39 277.23 301.55 Z" />
<path fill="#331d5f" opacity="1.00" d=" M 192.78 311.99 C 194.90 307.49 198.15 303.67 201.72 300.26 C 204.47 306.23 197.94 310.82 192.78 311.99 Z" />
<path fill="#727094" opacity="1.00" d=" M 255.21 310.25 C 259.11 306.53 263.69 303.59 268.41 301.00 C 270.00 303.12 271.21 305.76 273.55 307.19 C 277.42 307.74 281.37 307.71 285.20 308.59 C 283.76 308.61 282.33 308.65 280.90 308.70 C 281.06 311.00 282.31 313.66 280.95 315.77 C 276.21 316.84 271.27 316.85 266.62 318.38 C 266.68 320.03 266.75 321.68 266.81 323.34 C 266.84 323.83 266.88 324.82 266.91 325.31 C 266.24 321.70 265.43 318.12 264.49 314.57 C 260.99 314.43 257.07 315.06 254.08 312.81 C 254.04 311.76 254.41 310.91 255.21 310.25 Z" />
<path fill="#5c5774" opacity="1.00" d=" M 181.23 312.84 C 184.62 311.53 187.14 308.90 189.41 306.16 C 189.39 306.75 189.36 307.93 189.35 308.52 C 189.36 310.49 189.55 312.45 189.79 314.41 L 189.26 314.28 C 186.61 313.66 183.94 313.11 181.23 312.84 Z" />
<path fill="#e5dfff" opacity="1.00" d=" M 204.54 313.48 C 203.04 311.41 204.26 308.99 204.76 306.81 C 206.99 309.77 208.87 312.99 210.18 316.46 C 208.21 315.70 205.50 315.76 204.54 313.48 Z" />
<path fill="#918da4" opacity="1.00" d=" M 280.90 308.70 C 282.33 308.65 283.76 308.61 285.20 308.59 L 286.30 308.57 C 284.73 313.43 282.79 318.17 281.30 323.06 C 281.23 321.86 281.15 320.66 281.07 319.47 C 276.35 320.89 271.60 322.18 266.81 323.34 C 266.75 321.68 266.68 320.03 266.62 318.38 C 271.27 316.85 276.21 316.84 280.95 315.77 C 282.31 313.66 281.06 311.00 280.90 308.70 Z" />
<path fill="#a584bc" opacity="1.00" d=" M 179.71 313.69 C 180.09 313.48 180.85 313.05 181.23 312.84 C 183.94 313.11 186.61 313.66 189.26 314.28 C 186.74 316.76 183.28 318.70 181.96 322.14 C 181.92 327.05 184.37 331.51 185.86 336.08 C 183.28 334.75 180.74 333.34 178.23 331.88 C 178.70 325.83 177.77 319.53 179.71 313.69 Z" />
<path fill="#8079a4" opacity="1.00" d=" M 186.72 323.03 C 189.85 318.25 195.50 316.10 200.25 313.31 C 200.52 317.80 199.73 322.50 201.24 326.83 C 203.58 332.21 209.66 333.85 214.08 337.00 C 215.38 337.70 215.64 339.19 215.56 340.54 C 214.96 354.96 210.56 368.82 208.76 383.08 L 208.82 382.21 C 209.02 376.14 207.88 370.16 207.13 364.17 C 206.89 360.45 207.03 356.73 206.78 353.02 C 207.52 356.80 208.08 360.62 208.72 364.43 C 211.25 356.32 211.31 347.79 211.71 339.38 C 207.34 336.56 202.32 333.96 199.78 329.19 C 198.38 325.87 197.49 322.36 196.13 319.02 C 193.93 320.21 191.86 321.63 189.81 323.06 C 191.90 328.36 194.28 333.70 194.58 339.47 C 194.49 340.17 194.31 341.57 194.22 342.28 C 191.48 335.97 188.11 329.80 186.72 323.03 Z" />
<path fill="#331754" opacity="1.00" d=" M 248.04 315.15 C 249.94 313.88 251.61 315.86 253.26 316.64 C 255.83 318.38 258.94 318.84 261.94 319.34 C 262.94 335.15 267.50 350.80 275.57 364.45 C 277.36 367.89 281.04 370.53 281.56 374.50 C 274.85 380.39 265.00 381.94 256.56 379.40 C 249.36 377.28 242.25 374.89 234.95 373.12 C 236.20 373.10 237.45 373.08 238.70 373.07 C 237.05 362.57 236.91 351.92 235.66 341.38 C 235.21 336.81 233.03 332.70 230.49 328.97 C 232.12 326.73 233.73 324.47 235.53 322.36 C 239.13 319.14 243.79 317.38 248.04 315.15 Z" />
<path fill="#221440" opacity="1.00" d=" M 163.13 330.13 C 166.94 325.56 170.28 320.56 174.69 316.51 C 174.45 325.90 173.49 335.27 173.32 344.63 C 173.56 344.97 174.05 345.64 174.30 345.97 C 176.95 345.89 179.53 345.21 182.09 344.55 C 183.97 345.47 185.91 346.26 187.79 347.19 C 186.94 358.51 182.28 368.92 177.54 379.07 C 162.00 374.59 144.76 373.57 129.50 379.66 C 132.62 373.00 136.77 366.90 140.75 360.73 C 147.99 350.38 155.33 340.08 163.13 330.13 Z" />
<path fill="#666088" opacity="1.00" d=" M 189.81 323.06 C 191.86 321.63 193.93 320.21 196.13 319.02 C 197.49 322.36 198.38 325.87 199.78 329.19 C 202.32 333.96 207.34 336.56 211.71 339.38 C 211.31 347.79 211.25 356.32 208.72 364.43 C 208.08 360.62 207.52 356.80 206.78 353.02 C 205.75 347.31 202.86 342.20 200.02 337.24 C 199.46 339.62 198.84 342.00 198.41 344.42 C 197.21 342.71 195.91 341.08 194.58 339.47 C 194.28 333.70 191.90 328.36 189.81 323.06 Z" />
<path fill="#311855" opacity="1.00" d=" M 203.89 319.67 C 207.04 319.69 210.28 319.21 213.38 319.97 C 215.43 321.04 217.06 322.74 218.84 324.19 C 217.96 327.13 217.06 330.06 216.17 333.00 C 212.51 331.58 208.49 330.24 205.91 327.10 C 204.46 324.92 204.39 322.17 203.89 319.67 Z" />
<path fill="#c0b9bd" opacity="1.00" d=" M 266.81 323.34 C 271.60 322.18 276.35 320.89 281.07 319.47 C 281.15 320.66 281.23 321.86 281.30 323.06 C 281.53 326.80 281.34 330.55 281.15 334.29 C 280.58 331.79 279.96 329.31 279.37 326.82 C 278.09 330.96 276.76 335.09 275.38 339.20 C 273.46 338.20 271.54 337.20 269.61 336.23 C 269.68 336.96 269.81 338.41 269.87 339.14 C 267.91 334.80 267.11 330.04 266.91 325.31 C 266.88 324.82 266.84 323.83 266.81 323.34 Z" />
<path fill="#482361" opacity="1.00" d=" M 218.84 324.19 C 224.04 321.62 229.91 321.75 235.53 322.36 C 233.73 324.47 232.12 326.73 230.49 328.97 C 233.03 332.70 235.21 336.81 235.66 341.38 C 236.91 351.92 237.05 362.57 238.70 373.07 C 237.45 373.08 236.20 373.10 234.95 373.12 C 227.74 372.58 220.65 374.04 214.15 377.17 C 216.12 365.04 219.06 353.00 219.62 340.68 C 219.94 337.64 217.91 335.23 216.17 333.00 C 217.06 330.06 217.96 327.13 218.84 324.19 Z" />
<path fill="#f4ecdd" opacity="1.00" d=" M 275.38 339.20 C 276.76 335.09 278.09 330.96 279.37 326.82 C 279.96 329.31 280.58 331.79 281.15 334.29 C 283.28 347.09 286.98 360.32 295.58 370.38 C 296.65 369.11 297.72 367.85 298.79 366.58 C 300.12 366.94 301.46 367.29 302.81 367.63 C 303.20 370.19 303.96 372.84 303.34 375.44 C 302.16 378.97 299.70 381.90 297.15 384.55 C 294.35 386.36 290.77 385.52 287.63 385.65 C 288.24 382.54 289.60 379.55 289.65 376.35 C 286.74 371.99 282.77 368.41 280.12 363.84 C 275.52 356.20 271.65 347.91 269.87 339.14 C 269.81 338.41 269.68 336.96 269.61 336.23 C 271.54 337.20 273.46 338.20 275.38 339.20 Z" />
<path fill="#000000" opacity="0.45" d=" M 419.80 331.09 C 423.19 337.91 423.92 345.59 426.09 352.81 C 427.25 356.52 427.63 360.43 427.12 364.29 C 424.58 363.78 422.06 363.19 419.57 362.50 C 421.86 362.79 424.15 362.99 426.46 363.19 C 425.91 352.19 421.93 341.81 419.80 331.09 Z" />
<path fill="#e273ba" opacity="1.00" d=" M 177.75 336.41 C 178.92 337.29 180.12 338.16 181.22 339.15 C 181.25 341.66 178.35 341.09 176.67 341.34 C 177.30 339.75 177.27 338.02 177.75 336.41 Z" />
<path fill="#bdb3b8" opacity="1.00" d=" M 198.41 344.42 C 198.84 342.00 199.46 339.62 200.02 337.24 C 202.86 342.20 205.75 347.31 206.78 353.02 C 207.03 356.73 206.89 360.45 207.13 364.17 C 206.54 360.51 206.02 356.58 203.54 353.65 C 201.22 350.95 199.41 347.85 198.41 344.42 Z" />
<path fill="#58415a" opacity="0.97" d=" M 185.83 339.82 C 186.59 339.89 188.11 340.03 188.86 340.10 C 188.86 340.80 188.86 342.19 188.86 342.88 C 188.11 342.94 186.62 343.06 185.88 343.12 C 185.87 342.30 185.84 340.64 185.83 339.82 Z" />
<path fill="#fdfaf5" opacity="1.00" d=" M 194.22 342.28 C 194.31 341.57 194.49 340.17 194.58 339.47 C 195.91 341.08 197.21 342.71 198.41 344.42 C 199.41 347.85 201.22 350.95 203.54 353.65 C 206.02 356.58 206.54 360.51 207.13 364.17 C 207.88 370.16 209.02 376.14 208.82 382.21 C 208.12 382.96 207.42 383.72 206.70 384.46 C 205.96 374.40 203.86 364.41 199.88 355.13 C 198.01 350.84 196.03 346.59 194.22 342.28 Z" />
<path fill="#361861" opacity="1.00" d=" M 288.03 341.86 C 291.06 347.10 294.16 352.31 297.54 357.34 C 298.56 358.79 299.64 360.22 300.71 361.65 C 298.84 362.04 296.97 362.43 295.10 362.84 C 291.95 356.15 288.96 349.26 288.03 341.86 Z" />
<path fill="#8a419e" opacity="1.00" d=" M 312.66 351.74 C 317.10 349.05 321.58 346.43 326.34 344.36 C 327.39 346.16 328.50 347.92 329.63 349.68 C 329.20 349.71 328.34 349.77 327.91 349.81 C 324.32 349.92 320.78 350.82 317.70 352.68 C 312.15 355.88 306.52 358.93 300.71 361.65 C 299.64 360.22 298.56 358.79 297.54 357.34 C 302.76 356.03 308.02 354.55 312.66 351.74 Z" />
<path fill="#2f1750" opacity="1.00" d=" M 187.79 347.19 C 188.57 347.09 190.12 346.89 190.89 346.80 C 196.51 359.27 201.75 372.46 202.03 386.32 C 193.42 385.79 185.31 382.60 177.54 379.07 C 182.28 368.92 186.94 358.51 187.79 347.19 Z" />
<path fill="#000000" opacity="0.42" d=" M 322.95 354.56 C 327.88 353.34 332.99 354.20 338.00 354.17 C 333.16 356.13 327.93 355.34 322.95 354.56 Z" />
<path fill="#8c89b0" opacity="1.00" d=" M 302.81 367.63 C 304.83 368.17 306.90 368.64 308.84 369.48 C 309.34 374.71 306.00 379.95 308.48 385.03 C 305.09 384.93 301.61 385.60 298.82 387.63 C 298.27 386.60 297.71 385.56 297.15 384.55 C 299.70 381.90 302.16 378.97 303.34 375.44 C 303.96 372.84 303.20 370.19 302.81 367.63 Z" />
<path fill="#843c99" opacity="1.00" d=" M 117.20 385.19 C 120.24 380.28 122.94 375.10 126.78 370.73 C 126.81 372.12 126.83 373.52 126.82 374.92 C 125.34 379.94 122.11 384.22 119.96 388.97 C 117.59 393.28 116.14 398.23 112.72 401.88 C 110.52 402.43 108.21 402.22 105.98 402.03 C 95.00 400.73 84.15 398.24 73.85 394.20 C 74.16 393.54 74.78 392.22 75.10 391.56 L 75.73 391.73 C 83.00 393.27 90.20 395.22 97.50 396.63 C 101.21 397.65 103.71 394.22 106.52 392.49 C 109.92 389.82 114.85 389.12 117.20 385.19 Z" />
<path fill="#000000" opacity="0.46" d=" M 313.03 379.60 C 313.27 377.98 313.52 376.37 313.76 374.76 C 313.83 375.61 313.98 377.31 314.06 378.16 C 319.42 378.92 324.83 379.34 330.22 379.92 C 324.49 379.76 318.75 379.85 313.03 379.60 Z" />
<path fill="#000000" opacity="0.44" d=" M 249.97 382.08 C 257.26 383.86 264.71 385.33 272.25 384.40 C 264.87 387.17 256.88 385.24 249.97 382.08 Z" />
<path fill="#9692b1" opacity="1.00" d=" M 309.37 385.18 C 313.82 382.31 319.12 383.80 324.02 383.97 C 327.98 384.35 332.85 383.86 335.56 387.44 C 339.17 391.97 341.53 397.40 343.25 402.90 C 338.47 399.77 335.90 394.60 333.64 389.55 C 327.07 388.59 320.55 387.28 314.09 385.74 C 314.27 386.32 314.63 387.50 314.82 388.09 C 313.02 387.08 311.22 386.07 309.37 385.18 Z" />
<path fill="#fefbf4" opacity="1.00" d=" M 298.82 387.63 C 301.61 385.60 305.09 384.93 308.48 385.03 L 309.37 385.18 C 311.22 386.07 313.02 387.08 314.82 388.09 C 325.84 394.14 336.40 401.11 346.02 409.23 C 350.02 414.32 351.97 420.62 354.49 426.50 C 363.08 447.26 369.03 468.97 374.72 490.67 C 374.25 490.53 373.30 490.25 372.82 490.11 C 366.30 471.58 357.84 453.63 346.46 437.57 C 338.30 426.23 328.44 416.24 317.95 407.06 C 312.73 402.60 307.99 397.55 302.21 393.77 C 300.30 392.33 297.27 390.41 298.82 387.63 M 301.55 388.77 C 314.47 401.43 329.07 412.40 340.78 426.26 C 346.63 432.34 350.69 439.86 356.60 445.89 C 356.57 443.39 356.59 440.84 355.66 438.49 C 352.96 430.89 350.55 423.16 346.98 415.91 C 343.50 408.96 336.69 404.71 330.60 400.30 C 323.91 395.70 317.32 390.45 309.34 388.30 C 306.76 387.48 304.10 388.27 301.55 388.77 Z" />
<path fill="#787594" opacity="1.00" d=" M 314.09 385.74 C 320.55 387.28 327.07 388.59 333.64 389.55 C 335.90 394.60 338.47 399.77 343.25 402.90 C 345.29 404.32 345.38 407.04 346.02 409.23 C 336.40 401.11 325.84 394.14 314.82 388.09 C 314.63 387.50 314.27 386.32 314.09 385.74 Z" />
<path fill="#e0d7cd" opacity="1.00" d=" M 301.55 388.77 C 304.10 388.27 306.76 387.48 309.34 388.30 C 317.32 390.45 323.91 395.70 330.60 400.30 C 336.69 404.71 343.50 408.96 346.98 415.91 C 350.55 423.16 352.96 430.89 355.66 438.49 C 356.59 440.84 356.57 443.39 356.60 445.89 C 350.69 439.86 346.63 432.34 340.78 426.26 C 329.07 412.40 314.47 401.43 301.55 388.77 Z" />
<path fill="#77749d" opacity="1.00" d=" M 203.77 401.25 C 209.53 401.37 214.96 403.40 220.43 404.96 C 219.78 413.22 217.91 421.34 215.17 429.15 C 214.21 419.28 210.07 410.07 204.32 402.08 L 203.77 401.25 Z" />
<path fill="#f9f1e1" opacity="1.00" d=" M 197.29 407.78 C 199.61 405.84 201.97 403.97 204.32 402.08 C 210.07 410.07 214.21 419.28 215.17 429.15 C 215.16 432.79 213.74 436.22 212.45 439.56 C 210.13 445.01 209.57 451.01 207.27 456.47 C 207.95 443.54 207.40 430.28 203.03 417.97 C 201.76 414.24 199.48 411.01 197.29 407.78 Z" />
<path fill="#fefdf1" opacity="1.00" d=" M 304.37 412.60 C 304.29 409.02 305.32 405.53 305.94 402.04 C 318.66 412.56 331.08 423.69 341.07 436.91 C 347.54 445.45 352.51 454.98 357.73 464.30 C 358.75 466.17 359.45 468.18 360.04 470.23 C 358.01 468.51 356.18 466.56 354.59 464.45 C 348.49 456.30 341.18 449.18 334.19 441.81 C 326.72 433.95 318.77 426.57 310.87 419.16 C 308.66 417.02 306.04 415.21 304.37 412.60 Z" />
<path fill="#000000" opacity="0.52" d=" M 193.78 411.15 C 192.92 409.19 192.80 407.13 193.33 405.08 C 196.30 414.41 197.85 424.19 197.73 433.99 C 198.14 454.83 196.67 476.11 189.80 495.93 C 191.91 483.97 195.36 472.21 196.15 460.03 C 196.61 451.34 197.77 442.64 197.03 433.93 C 196.32 426.30 196.58 418.41 193.78 411.15 Z" />
<path fill="#000000" opacity="0.48" d=" M 200.17 423.07 C 200.78 423.23 201.99 423.53 202.59 423.69 C 203.31 427.12 203.83 430.58 204.21 434.07 C 203.49 433.40 202.77 432.73 202.06 432.07 C 202.14 441.60 200.47 451.24 202.37 460.68 L 202.49 461.38 C 201.73 461.52 200.97 461.67 200.21 461.82 C 200.46 454.54 201.72 447.30 201.34 440.00 C 201.07 434.35 200.49 428.72 200.17 423.07 Z" />
<path fill="#ffffff" opacity="1.00" d=" M 200.06 468.16 C 201.60 464.69 204.02 461.64 206.64 458.93 C 205.73 464.34 202.96 469.15 201.41 474.38 C 200.46 477.66 198.81 480.70 196.53 483.26 C 197.70 478.22 198.54 473.10 200.06 468.16 Z" />
<path fill="#000000" opacity="0.51" d=" M 373.91 470.41 C 374.94 472.38 375.84 474.43 376.37 476.60 C 377.84 483.19 379.64 489.76 379.90 496.55 C 377.91 488.05 375.91 479.55 374.04 471.03 L 373.91 470.41 Z" />
<path fill="#000000" opacity="0.41" d=" M 406.02 497.21 C 422.98 495.69 440.01 496.60 457.00 496.32 C 463.67 496.12 470.32 496.71 476.97 497.20 C 488.67 497.54 500.64 496.86 512.05 499.98 C 504.69 499.51 497.37 498.72 490.02 498.21 C 475.69 497.62 461.34 497.76 447.00 497.67 C 424.87 497.83 402.67 497.11 380.63 499.49 C 380.45 498.77 380.28 498.06 380.11 497.36 C 388.71 498.65 397.38 496.97 406.02 497.21 Z" />
<path fill="#000000" opacity="0.56" d=" M 194.58 503.52 C 202.26 501.81 210.17 502.35 217.98 502.28 C 231.04 502.22 244.10 502.08 257.16 502.35 C 239.50 504.34 221.74 503.36 204.02 503.81 C 200.87 503.83 197.72 503.70 194.58 503.52 Z" />
<path fill="#000000" opacity="0.50" d=" M 517.06 502.33 L 517.81 501.80 C 517.79 502.78 517.79 503.77 517.80 504.76 C 507.47 507.83 496.60 508.11 485.94 509.09 C 457.66 510.78 429.34 512.15 401.00 512.04 C 386.32 511.87 371.69 510.08 356.99 510.73 C 336.01 511.94 314.98 510.85 294.01 510.02 C 271.70 511.20 249.34 510.39 227.00 510.63 C 213.32 511.09 199.71 509.11 186.02 509.45 C 186.09 508.43 186.16 507.42 186.26 506.41 C 188.69 507.58 191.29 508.45 194.01 508.50 C 203.00 508.89 211.99 509.51 221.00 509.37 C 245.33 509.36 269.66 509.34 294.00 509.27 C 307.01 509.12 319.98 510.65 333.00 510.32 C 346.33 510.60 359.65 509.47 372.98 510.08 C 397.65 510.68 422.33 510.30 447.01 510.26 C 459.36 510.28 471.63 508.59 483.97 508.29 C 492.32 508.07 500.61 506.90 508.89 505.94 C 511.96 505.71 514.66 504.15 517.06 502.33 Z" />
</svg>
